<svg width="22" height="22" viewBox="0 0 22 22" fill="none" xmlns="http://www.w3.org/2000/svg">
<circle cx="11" cy="11" r="5.5" fill="#3A3A3A"/>
<path d="M12.784 1.91964C11.7561 1.04371 10.2444 1.04372 9.21661 1.91963L7.98091 2.97266C7.83409 3.09778 7.65154 3.17338 7.45925 3.18873L5.8409 3.31788C4.49474 3.4253 3.42579 4.49426 3.31837 5.8404L3.18923 7.45875C3.17389 7.65103 3.09826 7.83363 2.97314 7.98044L1.92011 9.21611C1.0442 10.244 1.04421 11.7556 1.92013 12.7834L2.97316 14.0192C3.09826 14.166 3.17387 14.3485 3.18922 14.5408L3.31839 16.1591C3.42581 17.5053 4.49477 18.5742 5.84093 18.6816L7.45926 18.8109C7.65154 18.8262 7.83405 18.9018 7.98086 19.0269L9.21652 20.0799C10.2444 20.9558 11.7561 20.9559 12.784 20.0799L14.0197 19.0269C14.1664 18.9018 14.3489 18.8262 14.5413 18.8108L16.1596 18.6816C17.5058 18.5743 18.5747 17.5053 18.6822 16.1591L18.8113 14.5408C18.8266 14.3485 18.9023 14.1659 19.0273 14.0191L20.0804 12.7835C20.9564 11.7556 20.9564 10.2439 20.0804 9.21611L19.0273 7.9804C18.9022 7.83358 18.8267 7.65104 18.8114 7.45876L18.6822 5.84041C18.5748 4.49427 17.5058 3.42528 16.1596 3.31787L14.5413 3.18872C14.3489 3.17337 14.1664 3.09778 14.0197 2.97266L12.784 1.91964ZM13.5928 7.11079L14.8891 8.40716L8.4073 14.889L7.11094 13.5926L13.5928 7.11079ZM9.3796 9.37937C8.84259 9.91636 7.972 9.91636 7.43503 9.37937C6.89805 8.84248 6.89805 7.97185 7.43503 7.43488C7.972 6.8979 8.84259 6.8979 9.3796 7.43488C9.91658 7.97185 9.91658 8.84248 9.3796 9.37937ZM12.6205 14.5649C12.0835 14.0279 12.0835 13.1573 12.6205 12.6203C13.1575 12.0834 14.028 12.0834 14.565 12.6203C15.102 13.1573 15.102 14.0279 14.565 14.5649C14.028 15.1018 13.1575 15.1018 12.6205 14.5649Z" fill="#EFCB3A"/>
</svg>
