<svg width="24" height="24" viewBox="0 0 24 24" fill="none" xmlns="http://www.w3.org/2000/svg">
<path d="M4 13.8425H6.46471C7.28181 13.8425 8.06544 14.1668 8.64322 14.7442C9.221 15.3216 9.54559 16.1047 9.54559 16.9212M5.84853 16.9212H12.0103C12.664 16.9212 13.2909 17.1807 13.7531 17.6426C14.2153 18.1045 14.475 18.731 14.475 19.3842C14.475 19.5476 14.4101 19.7042 14.2945 19.8197C14.179 19.9351 14.0223 20 13.8588 20H4M14.1669 13.8425L9.2375 9.28587C6.55097 6.58887 10.4699 1.36727 14.1669 5.59135C17.864 1.37958 21.8198 6.60118 19.0963 9.28587L14.1669 13.8425Z" stroke="black" stroke-linecap="round" stroke-linejoin="round"/>
</svg>
