<svg width="24" height="24" viewBox="0 0 24 24" fill="none" xmlns="http://www.w3.org/2000/svg">
<path fill-rule="evenodd" clip-rule="evenodd" d="M4.49997 14C4.22383 14 3.99997 14.2239 3.99997 14.5C3.99997 14.7761 4.22383 15 4.49997 15L6.96468 15C7.64928 15 8.30578 15.2718 8.78976 15.7554C9.15405 16.1195 9.39815 16.5811 9.49659 17.0788L6.3485 17.0788C6.07236 17.0788 5.8485 17.3026 5.8485 17.5788C5.8485 17.8549 6.07236 18.0788 6.3485 18.0788L12.5103 18.0788C13.0315 18.0788 13.5312 18.2857 13.8996 18.6539C14.2681 19.022 14.475 19.5213 14.475 20.0418C14.475 20.0724 14.4628 20.1018 14.4411 20.1235C14.4193 20.1453 14.3897 20.1575 14.3588 20.1575L4.49997 20.1575C4.22383 20.1575 3.99997 20.3814 3.99997 20.6575C3.99997 20.9337 4.22383 21.1575 4.49997 21.1575L14.3588 21.1575C14.6547 21.1575 14.9386 21.0401 15.1479 20.8309C15.3573 20.6217 15.475 20.3378 15.475 20.0418C15.475 19.2558 15.1625 18.5021 14.6065 17.9465C14.0505 17.3909 13.2964 17.0788 12.5103 17.0788L10.5105 17.0788C10.4025 16.3143 10.0492 15.6002 9.49662 15.0481C8.82505 14.377 7.91428 14 6.96468 14L4.49997 14Z" fill="black"/>
<path d="M20.8862 10.1293C21.0332 9.8955 20.9223 9.59587 20.6721 9.47917C20.4218 9.36246 20.1275 9.47392 19.9709 9.70136C19.6868 10.1139 19.3023 10.4511 18.8503 10.6789C18.2486 10.9822 17.5622 11.0741 16.9019 10.9398C16.2416 10.8054 15.6457 10.4527 15.2103 9.93837C15.094 9.80098 14.9909 9.65419 14.9019 9.5H17.5C17.7761 9.5 18 9.27614 18 9C18 8.72386 17.7761 8.5 17.5 8.5H14.542C14.52 8.36984 14.5065 8.23781 14.5018 8.1047C14.4947 7.90108 14.5084 7.69853 14.542 7.5H17.5C17.7761 7.5 18 7.27614 18 7C18 6.72386 17.7761 6.5 17.5 6.5H14.9019C14.9563 6.40587 15.0159 6.31441 15.0807 6.22607C15.4791 5.68264 16.0489 5.28919 16.6983 5.10911C17.3476 4.92903 18.0387 4.97281 18.6601 5.2334C19.127 5.42915 19.5341 5.73869 19.8462 6.13043C20.0183 6.34639 20.3197 6.43704 20.5612 6.30317C20.8027 6.16929 20.8924 5.86265 20.7294 5.63971C20.3017 5.05456 19.721 4.59389 19.0468 4.3112C18.2183 3.96375 17.2968 3.90537 16.431 4.14548C15.5652 4.38559 14.8055 4.91019 14.2742 5.63476C14.0769 5.90384 13.9154 6.19468 13.7919 6.5H12.5C12.2239 6.5 12 6.72386 12 7C12 7.27614 12.2239 7.5 12.5 7.5H13.5314C13.5048 7.71101 13.4949 7.92486 13.5024 8.1396C13.5067 8.26051 13.5163 8.38076 13.5314 8.5H12.5C12.2239 8.5 12 8.72386 12 9C12 9.27614 12.2239 9.5 12.5 9.5H13.7919C13.9502 9.89132 14.1705 10.2578 14.4471 10.5845C15.0276 11.2702 15.8221 11.7406 16.7025 11.9197C17.583 12.0988 18.4981 11.9763 19.3004 11.5719C19.9532 11.2429 20.5004 10.7428 20.8862 10.1293Z" fill="black"/>
</svg>
