<svg width="24" height="24" viewBox="0 0 24 24" fill="none" xmlns="http://www.w3.org/2000/svg">
<path d="M15.3862 14.1293C15.5332 13.8955 15.4223 13.5959 15.1721 13.4792C14.9218 13.3625 14.6275 13.4739 14.4709 13.7014C14.1868 14.1139 13.8023 14.4511 13.3503 14.6789C12.7486 14.9822 12.0622 15.0741 11.4019 14.9398C10.7416 14.8054 10.1457 14.4527 9.7103 13.9384C9.59399 13.801 9.49094 13.6542 9.40192 13.5H12C12.2761 13.5 12.5 13.2761 12.5 13C12.5 12.7239 12.2761 12.5 12 12.5H9.04196C9.01996 12.3698 9.00648 12.2378 9.00183 12.1047C8.99472 11.9011 9.0084 11.6985 9.04196 11.5H12C12.2761 11.5 12.5 11.2761 12.5 11C12.5 10.7239 12.2761 10.5 12 10.5H9.40192C9.45627 10.4059 9.5159 10.3144 9.58067 10.2261C9.97913 9.68264 10.5489 9.28919 11.1983 9.10911C11.8476 8.92903 12.5387 8.97281 13.1601 9.2334C13.627 9.42915 14.0341 9.73869 14.3462 10.1304C14.5183 10.3464 14.8197 10.437 15.0612 10.3032C15.3027 10.1693 15.3924 9.86265 15.2294 9.63971C14.8017 9.05456 14.221 8.59389 13.5468 8.3112C12.7183 7.96375 11.7968 7.90537 10.931 8.14548C10.0652 8.38559 9.3055 8.91019 8.77422 9.63476C8.57692 9.90384 8.4154 10.1947 8.2919 10.5H7C6.72386 10.5 6.5 10.7239 6.5 11C6.5 11.2761 6.72386 11.5 7 11.5H8.03137C8.00478 11.711 7.99494 11.9249 8.00244 12.1396C8.00666 12.2605 8.01635 12.3808 8.03137 12.5H7C6.72386 12.5 6.5 12.7239 6.5 13C6.5 13.2761 6.72386 13.5 7 13.5H8.2919C8.4502 13.8913 8.67052 14.2578 8.94707 14.5845C9.5276 15.2702 10.3221 15.7406 11.2025 15.9197C12.083 16.0988 12.9981 15.9763 13.8004 15.5719C14.4532 15.2429 15.0004 14.7428 15.3862 14.1293Z" fill="black"/>
<path fill-rule="evenodd" clip-rule="evenodd" d="M3 12C3 7.02944 7.02944 3 12 3C16.9706 3 21 7.02944 21 12C21 16.9706 16.9706 21 12 21C7.02944 21 3 16.9706 3 12ZM12 20C7.58172 20 4 16.4183 4 12C4 7.58172 7.58172 4 12 4C16.4183 4 20 7.58172 20 12C20 16.4183 16.4183 20 12 20Z" fill="black"/>
</svg>
