<svg width="22" height="22" viewBox="0 0 22 22" fill="none" xmlns="http://www.w3.org/2000/svg">
<rect width="22" height="22" rx="11" fill="#EFCB3A"/>
<path d="M14.6699 17.0019C13.3813 17.0019 12.3366 15.9573 12.3366 14.6686C12.3366 13.3799 13.3813 12.3353 14.6699 12.3353C15.9586 12.3353 17.0033 13.3799 17.0033 14.6686C17.0033 15.9573 15.9586 17.0019 14.6699 17.0019ZM14.6699 15.6686C15.2222 15.6686 15.6699 15.2209 15.6699 14.6686C15.6699 14.1163 15.2222 13.6686 14.6699 13.6686C14.1177 13.6686 13.6699 14.1163 13.6699 14.6686C13.6699 15.2209 14.1177 15.6686 14.6699 15.6686ZM7.33659 9.66859C6.04793 9.66859 5.00325 8.62395 5.00325 7.33529C5.00325 6.04662 6.04793 5.00195 7.33659 5.00195C8.62525 5.00195 9.66993 6.04662 9.66993 7.33529C9.66993 8.62395 8.62525 9.66859 7.33659 9.66859ZM7.33659 8.33529C7.88887 8.33529 8.33659 7.88757 8.33659 7.33529C8.33659 6.783 7.88887 6.33529 7.33659 6.33529C6.78431 6.33529 6.33659 6.783 6.33659 7.33529C6.33659 7.88757 6.78431 8.33529 7.33659 8.33529ZM15.7173 5.3451L16.6601 6.28791L6.28921 16.6588L5.3464 15.716L15.7173 5.3451Z" fill="#161616"/>
</svg>
