<svg width="180" height="130" viewBox="0 0 180 130" fill="none" xmlns="http://www.w3.org/2000/svg">
<g clip-path="url(#clip0_1372_1867)">
<path d="M91.1788 45.332C91.386 44.916 91.6709 44.773 91.5932 44.838C91.5932 44.916 91.4637 45.605 91.1788 46.372C90.6997 47.971 88.6796 55.758 87.8508 59.645C86.8666 64.169 85.4163 71.67 84.7817 75.921C84.0954 80.016 83.6033 84.254 82.0752 95.863C81.4537 100.53 81.0393 103.728 80.6896 105.249C79.304 111.515 77.9832 114.921 75.5486 118.457C73.6709 121.174 72.2724 122.565 68.9443 124.58C65.9529 126.53 62.5472 127.57 59.0767 127.843C57.8206 127.843 54.622 127.57 53.4436 127.154C49.6234 126.114 47.1889 122.63 46.0105 116.442C45.5184 113.868 45.4537 112.204 45.6609 109.708C45.9328 105.184 48.0177 98.788 50.245 95.655C51.5659 93.848 53.9357 91.69 55.7357 90.858C57.0565 90.169 59.8407 89.753 60.8119 89.883C61.1616 89.961 61.576 90.091 61.7832 90.026C62.1975 90.026 62.2752 90.026 62.34 90.312C62.4047 90.585 62.6896 90.65 63.3112 90.52C63.5961 90.442 63.5961 90.585 63.3889 90.936C63.3112 91.144 63.3889 91.274 63.5961 91.417C63.7256 91.625 64.0105 91.768 64.0752 91.768C64.5673 91.911 64.2177 93.289 63.6609 93.51C63.4537 93.575 63.1688 93.718 62.8968 93.991C62.7544 94.264 62.5472 94.407 62.4824 94.407C61.9256 94.55 59.9832 96.63 58.999 98.086C58.1055 99.477 57.0565 101.986 56.4997 104.066C54.9716 109.63 55.4637 115.259 57.963 119.224C58.4422 120.056 59.6335 121.174 59.9055 121.109C60.1903 121.174 61.6407 120.134 62.4047 119.367C63.1688 118.6 64.6321 116.936 65.1242 116.234C66.3673 114.219 67.6235 110.748 68.1803 107.342C68.6594 104.56 69.3587 98.294 69.8508 91.768C70.6148 82.109 71.1716 76.883 71.3788 75.284C71.4436 75.076 71.0292 75.57 70.5371 76.259C68.7371 78.768 68.245 79.327 66.5098 80.159C65.1889 80.848 63.8033 81.134 61.0839 81.199C60.4623 81.264 58.1702 80.64 57.4709 80.159C57.0565 79.951 56.7069 79.6 56.435 79.249C56.2278 79.6 55.9429 79.951 55.7357 80.289C53.5083 83.487 52.6148 84.54 50.5947 85.931C49.0666 87.036 48.2378 87.53 46.3601 88.076C44.6896 88.57 44.34 88.635 43.0191 88.713C40.3127 88.778 36.9069 88.284 35.7285 87.595C35.4436 87.452 34.822 87.179 34.4076 87.036C32.3875 86.204 30.7817 84.54 29.6033 82.031C29.3961 81.407 29.1889 80.848 29.1242 80.64C29.0465 80.432 28.2177 81.472 24.6695 86.763C20.435 92.951 19.1788 94.615 17.858 95.941C17.0292 96.838 15.8508 97.67 15.0868 98.021C14.4522 98.229 12.445 98.853 12.3026 98.788H11.2537C9.24647 98.788 5.98316 98.164 4.3774 97.397C3.19898 96.773 2.08531 95.382 1.32129 93.64C0.764452 92.535 0.0651711 88.986 0.0651711 87.244C0.00042294 83.773 0.622006 79.041 1.52848 75.57C2.5774 71.748 4.79179 67.159 7.43352 63.753C10.0752 60.139 12.2378 57.838 14.1803 56.655C18.0004 54.159 25.0191 54.432 28.9817 57.422C29.7457 57.916 30.3673 58.462 30.6522 58.956C30.9242 59.294 31.2091 59.58 31.2091 59.58C31.3386 59.58 31.5587 59.164 31.7659 58.67C32.9443 56.239 35.5083 53.6 37.2565 52.833C38.2278 52.417 40.0278 52.209 40.1055 52.482C40.1055 52.56 40.1702 52.56 40.5846 52.482C40.999 52.417 41.3486 52.417 41.4263 52.417C41.6335 52.482 41.6335 52.56 41.4911 52.911C41.2839 53.6 41.2839 53.665 41.763 53.392C42.0479 53.249 42.3199 53.119 42.527 53.041C42.8119 52.911 43.5112 53.119 43.5112 53.184C43.5112 53.249 43.304 53.6 42.9544 54.081C42.6047 54.575 42.1127 55.472 41.6983 56.174C41.6983 56.317 41.6335 56.382 41.5558 56.525C41.5558 56.655 41.6335 56.798 41.6335 56.941C42.3975 55.68 43.1616 54.575 43.5112 54.159C43.9256 53.743 44.4824 53.535 44.7544 53.808C45.0393 54.016 44.8968 54.016 44.6896 54.367C43.9904 54.991 43.7184 55.55 43.0191 56.941C42.3975 58.332 42.1903 59.021 42.7472 58.124C43.4335 56.863 45.2465 54.64 45.6609 54.575C45.868 54.51 45.7256 54.991 45.2465 55.68C44.8321 56.317 44.1975 57.773 43.8479 58.67C43.8479 58.813 44.2752 58.189 44.8321 57.357C45.7256 55.966 46.0752 55.68 46.1529 55.966C46.1529 56.174 46.0105 56.525 44.9616 58.605C44.1328 60.412 43.3688 62.713 42.4623 66.119C41.3486 70.006 40.999 72.515 40.8695 75.427C40.8695 76.467 41.2839 79.808 41.4911 79.743C41.6983 79.665 42.7472 78.768 43.7832 77.728C45.104 76.337 46.4249 74.53 49.0019 70.708C52.3299 65.69 54.3501 62.284 57.1342 56.798C57.7558 55.615 58.3127 54.51 58.5846 54.016C59.9832 50.545 61.576 47.061 62.9616 45.046C64.9817 42.056 66.8594 40.392 68.8019 39.69C70.3299 39.144 72.2724 39.001 73.6709 39.144C74.2925 39.209 74.9141 39.352 75.1342 39.274C75.199 39.209 76.0278 39.352 76.9342 39.625C78.7472 40.249 80.6896 41.289 81.3889 42.134L81.6609 42.472L82.0105 42.199C82.0752 42.134 82.5673 41.718 82.917 41.432C83.1889 41.289 83.5386 40.873 83.6033 40.873C83.7457 40.665 84.1601 40.873 84.0954 41.224C84.0177 41.575 84.1601 41.575 84.5745 41.159C84.7817 40.808 85.3385 40.6 85.4162 40.808C85.4162 40.808 85.4163 41.016 85.3386 41.367C85.2738 41.926 85.2738 42.056 85.6234 41.718C86.1026 41.159 86.5947 40.873 86.8019 40.951C87.0868 41.081 87.0868 41.224 86.8019 41.991C86.5299 42.615 86.3875 43.525 86.5299 43.59C86.5947 43.59 86.9443 43.239 87.3587 42.615C88.058 41.64 88.1875 41.51 88.7443 41.64C89.0939 41.848 89.1716 41.991 88.7443 42.615C87.8508 43.863 86.3227 47.347 86.7371 47.269C86.7371 47.269 86.9443 46.931 87.294 46.437C88.2652 44.63 89.3788 42.823 89.6508 42.68C89.9357 42.472 90.0004 42.407 90.2724 42.68C90.4148 42.823 90.4148 42.966 90.2076 43.317C89.858 43.798 89.1716 45.54 89.1716 45.605C89.1716 45.605 89.5083 45.462 89.7285 45.124C90.0004 44.708 90.4148 44.214 90.6997 44.071C91.1788 43.655 91.2565 43.525 91.386 43.733C91.5285 43.798 91.4637 44.071 91.3213 44.279C91.0493 44.63 90.6997 45.54 90.7644 45.748L91.1788 45.332ZM25.0839 65.352L25.1616 65.417C25.1616 65.417 25.1616 65.352 25.0839 65.352ZM12.445 86.412C12.445 86.477 12.8594 85.996 15.294 82.733C16.1875 81.407 18.5573 78.144 20.4997 75.362C22.3774 72.645 24.1904 70.214 24.3198 69.863C24.527 69.525 24.6047 69.317 24.527 68.264C24.4623 66.535 23.4263 63.194 22.8695 62.986C22.8695 62.921 22.4422 63.337 21.8983 63.818C20.7846 65.001 18.7645 67.783 17.7285 69.733C16.1227 72.853 14.3875 77.585 13.4163 81.264C13.0666 83.071 12.3673 86.204 12.445 86.412ZM66.445 64.65C65.681 68.056 66.0177 67.783 67.0019 64.169C68.8666 57.773 70.6148 52.911 72.1429 49.921C72.4148 49.362 72.6997 48.803 72.622 48.803C72.4925 48.66 71.0292 51.091 70.4724 52.56C69.1515 55.615 67.3386 61.244 66.445 64.65ZM74.6422 52.352L74.9141 51.793L74.5774 50.61C74.435 49.986 74.2278 49.427 74.0853 49.219C73.9429 48.946 73.9429 49.076 73.386 49.986C72.4925 51.442 71.7932 53.119 70.8868 55.472C70.058 57.838 68.5299 62.713 68.5299 62.778C68.5299 62.921 68.5947 62.778 68.6594 62.57C68.8019 62.362 70.058 60.139 71.5083 57.565C72.9069 55.134 74.2278 52.833 74.6422 52.352ZM106.472 14.873C106.408 15.081 105.916 14.249 105.98 13.69C105.851 13.066 106.187 9.946 106.472 8.204C107.094 4.863 108.493 1.392 109.386 0.689998C109.671 0.481998 109.671 0.559998 109.736 0.767998C109.813 0.975998 109.813 1.392 109.736 1.743C109.671 1.873 109.671 2.016 109.671 2.159H109.878C109.943 2.081 109.943 1.951 110.021 1.808C110.228 1.457 110.435 0.910998 110.707 0.624998C110.914 0.143998 110.992 0.0659983 111.406 0.0659983C111.549 0.000998262 111.821 0.0659983 111.898 0.0659983C111.898 0.208998 111.821 0.481998 111.613 0.975998C111.471 1.392 111.264 1.951 111.199 2.159C111.264 2.367 111.199 2.51 111.134 2.575C111.199 2.64 111.341 2.718 111.406 2.783V2.718C112.17 1.119 112.662 0.416998 112.934 0.351998C113.219 0.273998 113.698 0.559998 113.698 0.624998C113.698 0.767998 113.491 1.184 113.141 1.665C112.792 2.289 112.442 3.056 112.17 3.823C112.235 4.031 112.313 4.317 112.313 4.59C112.377 4.655 112.377 4.798 112.442 4.863C113.284 3.056 114.048 1.535 114.398 1.249C114.669 1.041 114.747 1.119 115.226 1.327L115.718 1.665L115.162 2.575C114.19 4.031 113.698 5.357 114.113 5.279C114.255 5.279 114.462 5.006 114.812 4.525C115.848 3.407 116.754 2.575 116.962 2.64C117.311 2.575 118.01 3.264 118.075 3.472C118.075 3.472 117.933 3.68 117.661 3.966C117.246 4.317 116.198 6.046 116.34 6.124C116.34 6.124 116.897 5.773 117.454 5.279C118.075 4.863 118.632 4.447 118.839 4.382C118.982 4.382 119.189 4.447 119.331 4.733C119.681 5.149 119.746 5.357 119.254 5.565C119.124 5.63 118.775 5.981 118.425 6.462C118.153 6.956 117.933 7.294 117.933 7.294C117.933 7.372 118.425 7.164 118.917 6.878C119.953 6.332 120.367 6.254 120.445 6.67C120.445 6.878 120.367 7.021 120.018 7.294C119.603 7.58 118.567 8.828 118.775 8.763C118.917 8.763 119.189 8.685 119.474 8.555C119.888 8.269 120.51 8.061 120.51 8.139C120.575 8.412 119.953 9.322 119.396 9.803C118.36 10.635 117.039 13.482 116.068 17.174C115.718 18.279 115.434 18.773 114.747 19.332C114.255 19.605 113.983 19.748 113.763 19.605C113.491 19.54 113.491 19.397 113.634 18.981C113.841 18.006 113.698 17.941 112.869 18.838C112.105 19.397 112.105 19.462 111.898 19.332C111.821 19.254 111.756 19.046 111.898 18.63C112.105 17.59 111.963 17.59 111.199 18.357C110.435 18.916 110.293 18.838 110.435 17.798C110.5 17.655 110.5 17.525 110.5 17.382L110.085 17.174L109.943 17.317C109.671 17.525 109.386 17.798 109.386 17.798C109.257 17.863 109.049 17.798 109.049 17.733C108.907 17.59 108.829 17.174 109.049 15.991V15.848C108.972 15.64 108.829 15.367 108.7 15.159C108.557 15.575 108.493 16.056 108.415 16.407L108.208 17.031L107.936 16.758C107.508 16.407 107.508 16.407 107.651 14.808C107.728 14.457 107.728 13.976 107.793 13.417C107.651 13.144 107.508 12.936 107.379 12.65C107.236 12.377 107.094 12.091 107.029 11.818C106.951 12.091 106.887 12.377 106.887 12.65C106.68 13.833 106.537 14.873 106.472 14.873ZM160.123 36.154C160.187 36.284 159.916 37.337 159.773 38.234C157.067 41.718 151.162 45.189 146.642 45.046C144.622 44.916 142.187 44.422 140.595 43.798C139.274 43.239 133.718 40.665 132.462 39.768C130.727 43.59 130.662 47.139 130.999 57.214L132.812 76.467C131.841 77.936 131.556 78.274 131.077 78.69C130.662 79.119 130.442 79.184 130.313 78.976C130.313 78.976 130.313 78.768 130.377 78.625C130.52 78.209 130.999 77.234 131.556 76.337C131.426 76.337 131.219 76.402 131.077 76.402C130.792 76.961 130.52 77.52 130.377 77.728C130.17 77.936 130.17 78.144 130.235 78.144C130.313 78.209 130.313 78.209 130.17 78.144C130.17 78.144 129.898 78.274 129.613 78.56C129.057 79.041 128.642 79.184 128.707 78.833C128.785 78.69 128.707 78.482 128.707 78.417C128.707 78.352 128.849 77.936 129.057 77.442C129.341 76.961 129.341 76.545 129.341 76.545C129.199 76.467 128.914 77.026 128.5 77.65C127.671 79.041 127.386 79.184 127.179 78.209C127.114 77.793 126.972 77.52 126.972 77.52C126.829 77.442 126.764 77.65 126.622 78.001C126.493 78.352 126.35 78.56 126.208 78.482C125.793 78.352 125.508 78.066 125.444 77.793C125.379 77.377 124.408 76.675 124.265 76.883C124.187 77.026 124.265 77.234 124.265 77.312C124.265 77.52 123.98 77.442 123.501 77.234C123.009 76.961 122.387 75.986 122.038 75.154L121.688 74.452L122.103 76.675L121.688 76.545C121.002 76.337 120.367 75.219 119.539 72.996C119.046 71.332 117.933 68.888 117.868 69.031C117.661 69.174 117.933 71.046 118.153 71.605C118.36 72.021 118.697 72.996 118.982 73.763C119.331 74.53 119.603 75.362 119.603 75.427C119.746 75.57 119.681 75.492 119.189 75.284C118.49 74.803 117.518 73.62 116.962 72.294C116.832 72.021 116.69 71.605 116.547 71.124C114.398 74.244 112.235 77.091 110.577 78.911C109.321 80.367 108.415 80.991 106.951 81.55C105.708 82.109 105.423 82.174 103.973 82.239C102.652 82.382 99.3112 82.174 97.9903 81.68C97.304 81.472 96.0479 80.575 95.2191 79.392C94.4421 78.352 94.0278 77.234 93.6134 75.219C92.8493 71.254 92.9918 67.016 93.8206 61.66C94.999 53.951 97.1616 45.605 99.4537 39.274C101.539 33.437 102.51 30.941 103.274 29.966C104.18 28.718 106.68 27.184 106.822 27.808C106.887 28.016 106.887 27.951 107.236 27.808C107.586 27.665 108.272 27.535 108.415 27.6C108.557 27.665 108.493 27.873 108.415 28.081C108.208 28.289 108.272 28.51 108.272 28.51C108.272 28.51 108.557 28.432 108.829 28.159C109.321 27.743 109.593 27.665 110.15 27.873L110.5 28.016L110.228 28.783C109.736 29.823 109.464 30.733 109.593 30.798C109.671 30.863 109.878 30.525 110.085 30.174C110.992 28.783 111.613 28.289 112.442 28.783L112.934 29.134L112.662 29.407C112.442 29.55 112.235 29.888 111.963 30.174C111.549 30.798 110.914 31.916 110.435 33.164L110.085 33.931L110.577 33.294C110.849 32.956 111.406 32.189 111.898 31.487C112.377 30.798 112.934 30.174 113.141 30.031C113.634 29.758 113.634 29.758 113.983 29.888C114.527 30.239 114.605 30.447 114.113 30.733C113.698 31.006 112.869 32.332 112.662 32.956C112.52 33.372 112.52 33.372 113.698 32.332C114.605 31.279 115.226 31.071 115.369 31.357C115.511 31.565 115.369 31.708 115.304 31.708C115.084 31.838 113.763 33.723 113.841 33.931C113.841 33.996 114.113 33.723 114.462 33.372C115.162 32.67 115.304 32.54 115.576 32.813C115.718 33.086 115.226 34.204 114.669 34.62C113.284 35.946 109.179 49.778 107.301 59.788C106.744 62.362 105.916 68.134 105.98 68.55C106.058 68.68 106.822 67.718 108.829 64.858C111.549 60.893 113.841 57.214 117.169 51.312C117.803 47.477 118.632 43.447 119.539 39.625C120.717 34.828 121.559 32.397 122.452 31.071C123.009 30.239 124.187 28.783 125.301 28.159C125.858 27.808 126.35 27.6 127.179 27.457C128.357 27.249 129.057 27.184 129.341 27.184C131.841 27.184 134.897 26.833 139.481 30.109C140.53 30.863 140.659 30.863 141.501 32.397C142.058 33.294 142.537 34.62 142.887 35.179C143.586 36.154 144.493 37.129 144.7 37.194C144.907 37.259 145.813 37.194 146.785 36.635C148.235 35.803 149.698 35.114 150.954 34.061C151.641 33.58 152.275 33.164 152.275 33.164C152.34 33.086 152.34 33.229 152.482 33.294L152.612 33.58L153.039 33.164C153.454 32.813 153.726 32.813 153.661 33.372C153.518 33.645 153.803 33.723 154.36 33.294C154.632 33.021 154.839 32.878 155.046 32.956L155.396 33.021L155.331 33.58C155.124 34.139 155.189 34.412 155.254 34.412C155.331 34.412 155.603 34.139 155.953 33.853C156.51 33.229 156.652 33.229 157.002 33.437L157.416 33.58L156.859 34.412C156.018 35.946 156.16 35.946 158.038 34.204C158.18 33.996 158.323 33.996 158.53 34.139C158.802 34.412 158.802 34.412 158.038 35.387C157.623 36.011 157.209 36.57 157.131 36.713C157.067 36.986 157.067 36.986 157.339 36.843C157.559 36.778 157.973 36.284 158.53 35.868C159.501 34.893 159.566 34.893 159.644 35.114C159.708 35.114 159.423 35.66 159.009 36.284C157.766 37.961 157.895 38.169 159.216 36.843C159.644 36.427 160.123 36.076 160.123 36.154Z" fill="#00AC8B"/>
<path d="M96.6688 92.119C98.6112 92.119 99.8026 93.159 99.8026 94.758C99.8026 96.357 98.6112 97.397 96.6688 97.397H95.3479V101.284H93.8199V92.119H96.6688ZM95.2832 93.432V96.149H96.6688C97.5753 96.149 98.1321 95.655 98.1321 94.758C98.1321 93.926 97.5753 93.432 96.6688 93.432H95.2832ZM110.577 96.708C110.577 99.347 108.621 101.57 105.708 101.57C102.859 101.57 100.839 99.347 100.839 96.708C100.839 94.056 102.781 91.833 105.708 91.833C108.557 91.911 110.577 94.134 110.577 96.708ZM108.971 96.708C108.971 94.758 107.585 93.289 105.708 93.289C103.765 93.289 102.444 94.823 102.444 96.708C102.444 98.645 103.83 100.114 105.708 100.114C107.65 100.179 108.971 98.645 108.971 96.708ZM118.152 92.119H119.68V97.748C119.68 100.114 118.282 101.492 116.067 101.492C113.84 101.492 112.441 100.114 112.441 97.748V92.119H113.905V97.878C113.905 99.347 114.746 100.114 116.067 100.114C117.311 100.114 118.152 99.269 118.152 97.878V92.119ZM124.821 92.119C126.764 92.119 127.942 93.159 127.942 94.758C127.942 95.863 127.385 96.708 126.492 97.124L129.405 101.284H127.593L125.028 97.397H123.708V101.284H122.244V92.119H124.821ZM123.708 93.432V96.149H124.886C125.793 96.149 126.349 95.655 126.349 94.758C126.349 93.926 125.793 93.432 124.886 93.432H123.708ZM135.803 92.119V99.893H139.416V101.284H134.275V92.119H135.803ZM144.064 92.119H146.085L149.633 101.284H148.027L147.056 98.723H143.028L142.057 101.284H140.452L144.064 92.119ZM146.577 97.462L145.049 93.51L143.508 97.462H146.577ZM100.282 105.392V106.783H97.3033V114.57H95.7623V106.783H92.8486V105.392H100.282ZM104.659 105.392C106.614 105.392 107.793 106.432 107.793 108.031C107.793 109.149 107.236 109.981 106.329 110.397L109.256 114.57H107.443L104.866 110.67H103.623V114.57H102.159V105.392H104.659ZM103.623 106.718V109.422H104.801C105.708 109.422 106.264 108.941 106.264 108.031C106.264 107.199 105.708 106.718 104.801 106.718H103.623ZM113.426 105.392H115.433L118.981 114.57H117.388L116.404 111.996H112.377L111.405 114.57H109.813L113.426 105.392ZM114.397 106.783L112.869 110.748H115.925L114.397 106.783ZM122.659 105.392L127.385 112.62V105.392H128.913V114.57H126.971L122.244 107.342V114.57H120.781V105.392H122.659ZM131.982 112.269C132.526 113.036 133.303 113.452 134.132 113.452C135.039 113.452 135.518 112.893 135.518 112.204C135.518 110.397 131.218 110.67 131.218 107.68C131.218 106.289 132.319 105.119 133.99 105.119C135.311 105.119 136.282 105.743 137.046 106.64L135.932 107.615C135.388 106.848 134.754 106.432 133.99 106.432C133.226 106.432 132.746 106.926 132.746 107.615C132.746 109.422 137.046 109.149 137.046 112.139C137.046 113.738 135.803 114.778 134.132 114.778C132.669 114.778 131.698 114.219 130.869 113.244L131.982 112.269ZM139.338 105.392H140.801V114.57H139.338V105.392ZM150.112 105.392V106.783H147.198V114.57H145.67V106.783H142.744V105.392H150.112ZM151.99 105.392H153.453V114.57H151.99V105.392ZM165.198 109.981C165.198 112.62 163.256 114.843 160.329 114.843C157.48 114.843 155.473 112.62 155.473 109.981C155.473 107.342 157.416 105.119 160.329 105.119C163.256 105.119 165.198 107.342 165.198 109.981ZM163.593 109.981C163.593 108.031 162.207 106.575 160.329 106.575C158.387 106.575 157.066 108.109 157.066 109.981C157.066 111.931 158.452 113.387 160.329 113.387C162.272 113.387 163.593 111.931 163.593 109.981ZM169.161 105.392L173.887 112.62V105.392H175.416V114.57H173.473L168.746 107.342V114.57H167.283V105.392H169.161ZM93.8199 118.665H98.9609V119.991H95.3479V122.565H98.404V123.878H95.3479V126.595H98.9609V127.921H93.8199V118.665ZM95.6976 117.833L97.1609 116.091H98.7537L97.0832 117.833H95.6976ZM107.793 125.269L108.971 126.179C108.142 127.284 106.744 128.051 105.086 128.051C102.237 128.051 100.217 125.828 100.217 123.189C100.217 120.55 102.159 118.327 105.086 118.327C106.744 118.327 108.064 119.081 108.971 120.199L107.793 121.109C107.502 120.675 107.108 120.321 106.647 120.079C106.186 119.836 105.671 119.712 105.151 119.718C103.208 119.718 101.887 121.239 101.887 123.124C101.887 125.061 103.273 126.53 105.151 126.53C106.264 126.66 107.236 126.114 107.793 125.269ZM119.68 123.254C119.68 125.893 117.725 128.129 114.811 128.129C111.962 128.129 109.942 125.893 109.942 123.254C109.942 120.615 111.898 118.392 114.811 118.392C117.725 118.392 119.68 120.615 119.68 123.254ZM118.152 123.254C118.152 121.317 116.754 119.848 114.876 119.848C112.934 119.848 111.613 121.382 111.613 123.254C111.613 125.204 112.998 126.66 114.876 126.66C116.754 126.66 118.152 125.139 118.152 123.254ZM123.216 118.665V126.452H126.828V127.843H121.687V118.665H123.216ZM137.188 123.254C137.188 125.893 135.246 128.129 132.319 128.129C129.47 128.129 127.463 125.893 127.463 123.254C127.463 120.615 129.405 118.392 132.319 118.392C135.246 118.392 137.188 120.615 137.188 123.254ZM135.66 123.254C135.66 121.317 134.275 119.848 132.397 119.848C130.441 119.848 129.134 121.382 129.134 123.254C129.134 125.204 130.519 126.66 132.397 126.66C134.275 126.66 135.66 125.139 135.66 123.254ZM146.149 125.62V123.813H143.65V122.422H147.677V126.179C146.849 127.284 145.385 128.051 143.65 128.051C140.659 128.051 138.716 125.828 138.716 123.189C138.716 120.55 140.659 118.327 143.585 118.327C145.256 118.327 146.577 119.081 147.47 120.199L146.292 121.109C146.001 120.675 145.607 120.321 145.146 120.079C144.685 119.836 144.171 119.712 143.65 119.718C141.708 119.718 140.387 121.239 140.387 123.124C140.387 125.061 141.85 126.53 143.793 126.53C144.699 126.66 145.528 126.244 146.149 125.62ZM149.982 118.665H151.433V127.843H149.982V118.665ZM164.577 128.61V129.858C164.292 129.936 164.02 130.001 163.67 130.001C162.764 130.001 161.793 129.65 160.886 128.818L159.772 127.843C159.293 127.986 158.866 128.051 158.322 128.051C155.473 128.051 153.453 125.828 153.453 123.189C153.453 120.55 155.395 118.327 158.322 118.327C161.171 118.327 163.178 120.55 163.178 123.189C163.178 124.788 162.414 126.244 161.236 127.154L161.935 127.778C162.699 128.467 163.321 128.675 163.942 128.675C164.149 128.675 164.434 128.675 164.577 128.61ZM161.65 123.254C161.65 121.317 160.264 119.848 158.387 119.848C156.444 119.848 155.123 121.382 155.123 123.254C155.123 125.204 156.509 126.66 158.387 126.66C160.264 126.66 161.65 125.139 161.65 123.254ZM172.359 118.665V124.294C172.359 126.66 170.961 128.051 168.746 128.051C166.519 128.051 165.134 126.66 165.134 124.294V118.665H166.584V124.437C166.584 125.893 167.426 126.66 168.746 126.66C169.99 126.66 170.831 125.828 170.831 124.437V118.665H172.359ZM174.859 118.665H180V119.991H176.387V122.565H179.508V123.878H176.387V126.595H180V127.921H174.859V118.665Z" fill="#000091"/>
</g>
<defs>
<clipPath id="clip0_1372_1867">
<rect width="180" height="130" fill="white" transform="translate(0 0.000976562)"/>
</clipPath>
</defs>
</svg>
