<svg width="122" height="50" viewBox="0 0 122 50" fill="none" xmlns="http://www.w3.org/2000/svg">
<path d="M24.4444 0.155548H0V9.04443H24.4444V0.155548Z" fill="white"/>
<path d="M7.89349 7.97699C7.89673 7.97699 7.89996 7.97222 7.89996 7.97222C7.92567 7.95314 7.95146 7.92937 7.97401 7.90084C7.97078 7.90084 7.96754 7.90084 7.96431 7.89615C7.94175 7.91992 7.91605 7.94845 7.89349 7.97699Z" fill="#000091"/>
<path d="M11.1679 6.8688L11.1108 6.91792C11.1435 6.90973 11.1679 6.90155 11.1679 6.8688Z" fill="#000091"/>
<path fill-rule="evenodd" clip-rule="evenodd" d="M10.1056 7.99384C10.2003 7.89866 10.295 7.79762 10.3897 7.69369H10.3868C10.5647 7.49169 10.7369 7.29836 10.9435 7.12229C11.0066 7.06458 11.0668 7.01555 11.1242 6.9751C11.1327 6.96666 11.137 6.95399 11.1412 6.94162C11.1456 6.92873 11.1498 6.91614 11.1587 6.90873C11.1178 6.92436 11.0852 6.94903 11.0524 6.97384C11.0184 6.99955 10.9844 7.02532 10.9406 7.04147C10.9234 7.04147 10.9061 7.02421 10.9234 7.00688C10.9836 6.96355 11.0438 6.9174 11.1013 6.87125H11.0898C11.0726 6.87125 11.0726 6.85392 11.0726 6.83658C10.859 6.80266 10.6949 6.94873 10.5481 7.07947L10.5389 7.08769C10.516 7.09918 10.4944 7.08777 10.4775 7.0788C10.4689 7.07429 10.4615 7.07036 10.4557 7.07036C10.3258 7.11392 10.2137 7.19421 10.1009 7.2751C9.99696 7.34955 9.89244 7.42443 9.77281 7.47147V7.43688C9.73215 7.45088 9.692 7.46918 9.6517 7.48747C9.59244 7.51443 9.53304 7.54147 9.47148 7.55518C9.35918 7.58125 9.25503 7.57792 9.15407 7.57466C9.12096 7.57355 9.08807 7.57251 9.05548 7.57251C8.8717 7.59073 8.69029 7.63006 8.50903 7.6694L8.45007 7.68221C8.44718 7.68362 8.44429 7.68436 8.44141 7.6851C8.43859 7.68577 8.4357 7.68651 8.43281 7.68799C8.32378 7.71681 8.2234 7.75725 8.12296 7.81495L8.11148 7.82073C8.10755 7.82599 8.10355 7.83066 8.09992 7.83503C8.09555 7.84021 8.09163 7.84488 8.08852 7.84955C8.05407 7.88999 8.02252 7.92458 7.97378 7.95058C7.9017 7.98681 7.83941 8.04266 7.77815 8.09769C7.75163 8.12147 7.72518 8.14525 7.69829 8.16703C7.69259 8.17281 7.68111 8.17569 7.67244 8.17569C7.58355 8.26229 7.49459 8.34888 7.40274 8.43251C7.39704 8.43829 7.37118 8.44118 7.35111 8.43829C7.35111 8.43829 7.354 8.43829 7.354 8.4354L7.36259 8.41814L7.40563 8.34888C7.41422 8.33584 7.42215 8.32288 7.43 8.30992C7.43792 8.29688 7.44578 8.28392 7.45444 8.27095C7.47733 8.23629 7.50037 8.20162 7.52615 8.16992C7.53185 8.16125 7.53185 8.15258 7.52615 8.14681C7.52037 8.14103 7.51178 8.13814 7.50318 8.13814C7.58637 8.0574 7.68392 7.98806 7.78437 7.92747V7.92458C7.77289 7.92747 7.7557 7.9188 7.76429 7.90732C7.77274 7.89673 7.77955 7.88458 7.78607 7.87318L7.79296 7.8611C7.79444 7.85821 7.79511 7.85606 7.79585 7.85392C7.79659 7.85177 7.79726 7.84955 7.79874 7.84666C7.79726 7.84377 7.79511 7.84162 7.79296 7.83947C7.79081 7.83732 7.78866 7.83518 7.78726 7.83229L7.76985 7.84377C7.74903 7.85732 7.7277 7.87132 7.70978 7.8871C7.69711 7.89799 7.68526 7.91295 7.67318 7.92829C7.64681 7.96162 7.61903 7.99673 7.57778 7.99673C7.57489 7.99673 7.56059 7.99673 7.552 7.99384C7.54333 7.99384 7.53763 7.99095 7.53474 7.98806L7.53511 7.98555C7.53511 7.98555 7.53615 7.98518 7.53763 7.98518C7.53763 7.98518 7.54052 7.98236 7.54052 7.97947C7.54052 7.97947 7.54052 7.97658 7.54333 7.97658C7.54481 7.97369 7.54622 7.97147 7.54763 7.96932C7.54911 7.96718 7.55052 7.96503 7.552 7.96214C7.55341 7.95925 7.55481 7.9571 7.55629 7.95488C7.5577 7.95273 7.55911 7.95058 7.56059 7.94769C7.562 7.94629 7.56274 7.94406 7.56341 7.94192C7.56415 7.93977 7.56489 7.93762 7.56629 7.93614L7.56955 7.93021C7.57237 7.9251 7.57578 7.9191 7.57778 7.91303C7.57918 7.91021 7.58066 7.90799 7.58207 7.90584C7.58355 7.90369 7.58496 7.90155 7.58637 7.89866C7.59066 7.89288 7.59429 7.88636 7.59785 7.87984C7.60148 7.8734 7.60504 7.86688 7.60933 7.8611C7.61222 7.85532 7.61511 7.84955 7.62081 7.84377C7.6237 7.83799 7.62659 7.83295 7.62941 7.82792C7.63229 7.82288 7.63518 7.81784 7.63807 7.81206C7.64666 7.79762 7.63807 7.78606 7.62659 7.78318C7.65815 7.74281 7.69541 7.70814 7.74133 7.68221H7.73563C7.77518 7.66229 7.81592 7.63895 7.85644 7.61577C7.88029 7.60206 7.90444 7.58821 7.92785 7.5754C7.93644 7.56673 7.94504 7.55806 7.95652 7.55229C7.86185 7.58406 7.77578 7.62732 7.69259 7.6851C7.69259 7.6851 7.66963 7.69369 7.66385 7.69947C7.66385 7.69947 7.64666 7.70525 7.6237 7.6851C7.62081 7.68221 7.62081 7.67932 7.62081 7.67355C7.63081 7.65347 7.65133 7.64021 7.67363 7.62584C7.68978 7.6154 7.70674 7.60444 7.72126 7.58984C7.73844 7.58984 7.75281 7.58984 7.75281 7.60718C8.08326 7.34806 8.49074 7.28807 8.89955 7.22792C9.15103 7.19095 9.40303 7.15392 9.63792 7.07036C9.66229 7.05303 9.6874 7.03644 9.71252 7.01984C9.73763 7.00325 9.76274 6.98666 9.78711 6.96932C9.82896 6.95192 9.86652 6.92206 9.90622 6.89051C9.9454 6.85932 9.98681 6.82636 10.0367 6.80199C10.1687 6.70095 10.2692 6.58555 10.3208 6.41525C10.3208 6.39792 10.3036 6.38058 10.3036 6.38058C10.0856 6.61436 9.83592 6.7991 9.56903 6.93473C9.31459 7.06895 9.042 7.08888 8.77207 7.10858C8.67066 7.11599 8.56963 7.12332 8.47015 7.13673C8.48733 7.10207 8.52178 7.10214 8.55333 7.10214C8.55333 7.0611 8.57296 7.04347 8.59815 7.02088C8.60489 7.01481 8.61207 7.00844 8.61933 7.0011H8.66815C8.67674 7.0011 8.68104 6.99243 8.68533 6.98377C8.68963 6.9751 8.69392 6.96644 8.70252 6.96644C8.73696 6.96644 8.78578 6.94918 8.76852 6.94918C8.74222 6.91532 8.704 6.92873 8.66177 6.94347C8.62118 6.95769 8.57696 6.97318 8.53615 6.94918C8.55133 6.93251 8.55585 6.91251 8.56 6.89436C8.56452 6.87466 8.56852 6.8571 8.58489 6.84814H8.65089C8.65089 6.81347 8.68533 6.78177 8.68533 6.78177C8.83496 6.69177 8.97948 6.61325 9.12126 6.53614C9.216 6.48466 9.30963 6.43377 9.40266 6.38058C9.38385 6.38058 9.36711 6.38836 9.35096 6.39584C9.32518 6.40784 9.30059 6.41918 9.27066 6.39792C9.28785 6.39792 9.28785 6.38569 9.28785 6.3734C9.28785 6.3611 9.28785 6.34888 9.30511 6.34888C9.41274 6.32014 9.50852 6.27347 9.60637 6.22592C9.67548 6.19229 9.74555 6.15821 9.82155 6.12955C9.79903 6.12955 9.77815 6.13562 9.75778 6.14155C9.71859 6.15288 9.6814 6.16369 9.63792 6.12955C9.64933 6.12377 9.65852 6.11651 9.66763 6.10925C9.68592 6.09466 9.70385 6.08044 9.73837 6.08044V6.0314C9.73837 6.01406 9.75555 6.01407 9.77281 6.01407C9.75555 6.01407 9.73837 5.99681 9.73837 5.99681C9.74748 5.97844 9.76541 5.97466 9.78541 5.97044C9.80318 5.96673 9.82259 5.96266 9.83881 5.9477C9.82155 5.9477 9.79 5.94769 9.79 5.93036C9.83881 5.86399 9.922 5.84673 10.0052 5.8294C9.99659 5.81207 9.98007 5.81206 9.96578 5.81206C9.9514 5.81206 9.93918 5.81206 9.93918 5.79473C9.93918 5.77747 9.95644 5.77747 9.97363 5.77747H9.93918C9.91222 5.76384 9.91696 5.73962 9.92029 5.72281C9.92118 5.71821 9.922 5.71414 9.922 5.71103C9.9894 5.63162 10.0116 5.53792 10.0336 5.44473C10.0444 5.3991 10.0552 5.35355 10.0712 5.30992C10.054 5.30992 10.0367 5.30992 10.0367 5.29258C9.87541 5.47162 9.6197 5.53947 9.37681 5.60399L9.35385 5.61006H9.27066C9.18748 5.64466 9.06985 5.64466 8.98659 5.59273C8.94704 5.57199 8.91881 5.54599 8.88837 5.51799C8.868 5.49925 8.84659 5.47962 8.82022 5.45999C8.68533 5.37629 8.55333 5.30992 8.40415 5.25799C7.98807 5.12518 7.55481 5.05592 7.12155 5.07325C7.24259 5.00673 7.37104 4.98021 7.50118 4.9534C7.56859 4.93955 7.63652 4.92555 7.704 4.90584C7.74666 4.89333 7.78889 4.88036 7.83081 4.86747C8.06881 4.79451 8.2997 4.72377 8.55333 4.73851C8.52015 4.72673 8.47763 4.73095 8.43852 4.73488C8.42015 4.73673 8.40252 4.73851 8.38696 4.73851C8.19511 4.72421 8.0014 4.76688 7.79926 4.81147C7.75644 4.82088 7.71326 4.83044 7.66963 4.83947C7.59044 4.85599 7.51518 4.87962 7.43978 4.90332C7.35666 4.92947 7.27341 4.95562 7.18467 4.97221C7.14622 4.98555 7.11526 5.00814 7.08518 5.03014C7.03674 5.06555 6.99037 5.09947 6.91785 5.09058V5.03866C7.08429 4.83658 7.28511 4.63747 7.552 4.62014C7.80992 4.57814 8.05311 4.60807 8.30681 4.63925C8.34948 4.64451 8.39237 4.64984 8.4357 4.65481C8.6437 4.67155 8.83829 4.71792 9.048 4.76792L9.06985 4.7731C9.1157 4.7731 9.14155 4.81355 9.16652 4.85266C9.18689 4.88444 9.20666 4.9154 9.23622 4.92318C9.27711 4.93725 9.31792 4.93992 9.35881 4.94251C9.41837 4.94636 9.47792 4.95021 9.53748 4.98955C9.53748 4.97792 9.53555 4.96658 9.53363 4.9554C9.52985 4.93325 9.52607 4.91155 9.53748 4.88858C9.57452 4.85133 9.61696 4.86132 9.65874 4.87118C9.69141 4.87881 9.7237 4.88644 9.75274 4.87125C9.8437 4.81481 9.75837 4.72806 9.67296 4.64132C9.63178 4.59947 9.59052 4.55762 9.56903 4.51918C9.56903 4.50184 9.58629 4.48451 9.58629 4.48451C9.624 4.51829 9.65911 4.55325 9.69385 4.58792C9.78096 4.67466 9.86622 4.75947 9.98511 4.81933C10.0683 4.85392 10.2692 4.90295 10.2347 4.80199C10.1758 4.67118 10.0751 4.55769 9.97348 4.44318C9.93163 4.39599 9.88963 4.34866 9.85029 4.29984V4.23347C9.82407 4.23347 9.81785 4.22347 9.81 4.21103C9.80755 4.2071 9.80496 4.20295 9.80148 4.19881V4.13244C9.7594 4.11036 9.75 4.0754 9.74052 4.04021C9.73511 4.02021 9.7297 4.00014 9.71829 3.98236C9.68948 3.93577 9.68748 3.87844 9.68533 3.81925C9.68363 3.77221 9.68185 3.72407 9.66659 3.67932C9.63222 3.57829 9.61785 3.49466 9.60066 3.39362C9.58192 3.29029 9.5614 3.19147 9.54126 3.09473C9.50577 2.92399 9.47155 2.75977 9.4514 2.58844C9.42489 2.34355 9.54852 2.13651 9.67496 1.92481C9.71244 1.86199 9.75015 1.79888 9.78429 1.73421C9.90192 1.53214 10.0339 1.33303 10.2519 1.1974C10.2996 1.00036 10.429 0.836288 10.5578 0.672955L10.5676 0.660586C10.6947 0.502141 10.907 0.405252 11.0635 0.333919L11.0812 0.325845C11.3136 0.221919 11.523 0.155548 11.5259 0.155548H0V9.04147H8.17748C8.39615 8.88295 8.61355 8.78288 8.87222 8.66384C8.99029 8.60955 9.11696 8.55125 9.25629 8.48162C9.28585 8.46673 9.32089 8.44947 9.35978 8.43036C9.59333 8.31547 9.96548 8.13236 10.1056 7.99384ZM7.51081 6.79503C7.47837 6.79829 7.444 6.80169 7.45696 6.77569C7.46904 6.71725 7.52881 6.69977 7.58726 6.68266C7.61222 6.67532 7.63703 6.66807 7.65763 6.65769L7.66704 6.65288L7.67392 6.64918C7.70629 6.63199 7.74592 6.61095 7.77518 6.62318C7.79489 6.65125 7.81933 6.65851 7.84304 6.66547C7.86074 6.67073 7.878 6.67584 7.89266 6.6894C7.83066 6.75162 7.75829 6.75777 7.68496 6.76399C7.63622 6.76806 7.58703 6.77229 7.54007 6.79295C7.5317 6.79295 7.52133 6.79399 7.51081 6.79503ZM4.9723 6.38918C4.9723 6.40651 4.98955 6.42384 4.98955 6.42384C5.39126 5.97073 5.75563 5.58399 6.27207 5.26362C6.28592 5.25784 6.28081 5.2651 6.27392 5.27473C6.26378 5.28903 6.24985 5.30866 6.28933 5.29829C6.46029 5.25932 6.53711 5.11281 6.61178 4.97036C6.63111 4.93347 6.65029 4.89688 6.67096 4.86251C6.74926 4.73503 6.86059 4.6534 6.97274 4.57118C7.05355 4.51184 7.13489 4.45214 7.20459 4.37481C7.20459 4.39206 7.20459 4.4094 7.1874 4.42673C7.20459 4.44407 7.22185 4.44406 7.23903 4.44406C7.26933 4.42118 7.30237 4.41177 7.33407 4.40266C7.37444 4.3911 7.41259 4.38021 7.43992 4.34303C7.30792 4.2911 7.13866 4.27377 7.00666 4.32569C6.65659 4.4931 6.35822 4.76147 6.07415 5.06451C5.902 5.24636 5.72407 5.41658 5.506 5.53495C5.35681 5.8351 5.19037 6.10347 4.9723 6.38918ZM6.37311 5.31584C6.36415 5.33392 6.35511 5.34332 6.34652 5.35229C6.33874 5.36044 6.33118 5.36829 6.32437 5.38199C6.30718 5.41651 6.29 5.43088 6.25844 5.44814C6.24126 5.44814 6.22407 5.44814 6.22407 5.43088C6.24126 5.36473 6.29 5.29858 6.35592 5.28132C6.37311 5.28421 6.37311 5.30147 6.37311 5.31584ZM7.10681 7.8788C7.12118 7.86436 7.13837 7.84703 7.14696 7.82969C7.16126 7.7951 7.07244 7.80377 7.05807 7.81243C7.04511 7.82288 7.03681 7.83332 7.02681 7.84599L7.0237 7.84992C7.01178 7.86369 6.99778 7.87643 6.98355 7.88932C6.97392 7.89814 6.96415 7.90695 6.95489 7.91629C6.91474 7.95673 6.87466 7.9971 6.83163 8.03466C6.80296 8.06058 6.89466 8.07214 6.91474 8.0548C6.9377 8.03755 6.95778 8.01732 6.97785 7.9971C6.98548 7.9971 6.99311 7.99584 6.99822 7.99495L7.0017 7.99444L7.00363 7.99421C7.05118 7.97829 7.08652 7.94518 7.12089 7.91303L7.12978 7.90473C7.14126 7.89325 7.12689 7.88169 7.10681 7.8788ZM6.84741 7.6911L6.84666 7.6914L6.84637 7.69392C6.82874 7.70599 6.81133 7.71829 6.794 7.73058C6.74918 7.76229 6.70459 7.79384 6.65696 7.82095C6.61148 7.84658 6.56481 7.86873 6.5177 7.89103C6.49059 7.90392 6.46333 7.91688 6.436 7.93058C6.436 7.93058 6.436 7.92769 6.43318 7.92769C6.42741 7.91903 6.41592 7.91614 6.40444 7.92192C6.34133 7.95658 6.28681 8.00273 6.23807 8.05177C6.22941 8.05755 6.22081 8.06621 6.21511 8.07488L6.18926 8.10088V8.10377C6.17778 8.11532 6.1663 8.1268 6.152 8.14414C6.14896 8.14718 6.14666 8.15014 6.14452 8.15303C6.14037 8.15844 6.13652 8.16347 6.12904 8.16725C6.11755 8.17303 6.08881 8.17303 6.0917 8.15569V8.15281C6.08311 8.15858 6.07163 8.16436 6.06304 8.16725C6.05874 8.17014 6.05444 8.17229 6.05015 8.17444C6.04578 8.17658 6.04148 8.17881 6.03718 8.18169C6.03429 8.17881 6.02859 8.17881 6.0257 8.17881C6.02289 8.17881 6.01711 8.17881 6.01422 8.18169C6.00755 8.18747 6.00089 8.19288 5.99415 8.19836C5.98074 8.20925 5.96741 8.22014 5.954 8.23362C5.91955 8.2654 5.888 8.29999 5.85644 8.33755C5.85644 8.33755 5.85644 8.34036 5.85355 8.34036C5.85355 8.34184 5.85215 8.34325 5.85215 8.34325L5.85066 8.34614L5.84496 8.35192C5.84385 8.35303 5.84259 8.3551 5.84259 8.3551C5.8417 8.35658 5.84096 8.35769 5.83918 8.35769L5.83637 8.36058C5.83348 8.36636 5.83059 8.37214 5.82489 8.37792C5.822 8.38081 5.81629 8.38369 5.81052 8.38369C5.80763 8.3808 5.80481 8.37792 5.80481 8.37503C5.80333 8.37362 5.80266 8.37214 5.80192 8.37073C5.80118 8.36925 5.80052 8.36784 5.79903 8.36636C5.79615 8.36206 5.794 8.35769 5.79185 8.3534C5.7897 8.34903 5.78755 8.34473 5.78474 8.34036V8.33755C5.78474 8.33606 5.784 8.33466 5.78326 8.33318C5.78252 8.33177 5.78185 8.32888 5.78185 8.32888L5.83348 8.26821L5.83637 8.2654C5.83918 8.26251 5.84207 8.25888 5.84496 8.25525C5.84785 8.25169 5.85066 8.24806 5.85355 8.24518C5.85785 8.2394 5.86289 8.23362 5.86792 8.22784C5.87296 8.22206 5.87792 8.21629 5.88229 8.21051C5.8837 8.20762 5.88511 8.20547 5.88659 8.20332C5.888 8.20118 5.88941 8.19895 5.89089 8.19606C5.90807 8.17303 5.92533 8.14992 5.94252 8.12392V8.12103C5.94541 8.11821 5.94822 8.11532 5.94822 8.10955C5.95689 8.09799 5.96548 8.08643 5.97118 8.07488L5.98844 8.04029V8.0374L5.99126 8.03451C5.99126 8.03303 5.99274 8.03162 5.99274 8.03162L5.99415 8.02873C5.99704 8.02147 5.99992 8.01503 6.00274 8.00851C6.00563 8.00206 6.00852 7.99555 6.01141 7.98829V7.9854L6.01422 7.97384C6.0157 7.97103 6.01637 7.96814 6.01711 7.96525C6.01785 7.96236 6.01852 7.95947 6.02 7.95658V7.95369C6.02141 7.94932 6.02215 7.94503 6.02289 7.94066C6.02355 7.93636 6.0243 7.93206 6.0257 7.92769C6.0257 7.9248 6.0257 7.91903 6.02289 7.91614C6.04007 7.88444 6.06304 7.85555 6.08881 7.82666C6.08881 7.82666 6.086 7.8274 6.08452 7.82814L6.08207 7.82925L6.08022 7.82955C6.06748 7.83762 6.05644 7.84829 6.04526 7.85925C6.03637 7.86792 6.02733 7.87673 6.01711 7.88443C5.99992 7.89888 5.96548 7.87577 5.98844 7.85843C6.00274 7.84688 6.01422 7.83532 6.0257 7.82384C6.0257 7.82384 6.0257 7.82095 6.02859 7.82095C6.04 7.81058 6.05104 7.79881 6.06207 7.78703C6.07881 7.76918 6.0957 7.7511 6.11467 7.73725C6.13474 7.72281 6.14911 7.71125 6.16629 7.69681C6.16918 7.69392 6.17207 7.69103 6.17496 7.69103C6.18637 7.67666 6.19785 7.66221 6.21222 7.64777C6.21222 7.64777 6.21511 7.64777 6.21511 7.64488C6.31363 7.54932 6.45207 7.51562 6.59341 7.48118C6.68252 7.45947 6.77281 7.43755 6.85496 7.39955C6.90133 7.38029 6.95304 7.38784 7.00415 7.3954C7.04474 7.40132 7.08496 7.40725 7.12178 7.39955C7.17059 7.39955 7.22222 7.39955 7.27096 7.43421C7.15755 7.49458 7.04926 7.56369 6.94215 7.63206C6.91111 7.65184 6.88015 7.67162 6.84918 7.69103L6.84741 7.6911ZM7.206 6.51488C7.19252 6.51644 7.18385 6.5174 7.19126 6.52488C7.24007 6.57399 7.34052 6.55666 7.40933 6.51918C7.45815 6.48451 7.50978 6.48451 7.57578 6.48451C7.59296 6.48451 7.59296 6.45273 7.59296 6.43547C7.64178 6.45273 7.67622 6.45273 7.72496 6.45273C8.12378 6.3691 8.50829 6.2854 8.87555 6.10066C8.50392 5.81355 8.04578 5.68562 7.59704 5.56036C7.52259 5.53955 7.44844 5.51888 7.37489 5.49747C7.39111 5.49747 7.40726 5.50288 7.42348 5.50829C7.45629 5.51925 7.48955 5.53029 7.52415 5.49747C7.47859 5.46118 7.42792 5.45421 7.3777 5.4474C7.33615 5.44169 7.29496 5.43599 7.25726 5.41384C7.26118 5.41384 7.26592 5.41473 7.27096 5.41569C7.28815 5.41903 7.31 5.42325 7.32326 5.39651C7.23615 5.35266 7.14896 5.33777 7.06096 5.32273C7.0157 5.31503 6.97022 5.30725 6.92444 5.29547C7.00763 5.27814 7.05933 5.21177 7.05933 5.12807C7.05933 5.11081 7.02489 5.11081 7.00763 5.11081C6.8097 5.21177 6.67481 5.39651 6.59163 5.61295C6.66659 5.6571 6.74748 5.65199 6.82674 5.64695C6.87178 5.64414 6.91622 5.64132 6.95889 5.64755C6.92126 5.68332 6.86689 5.69303 6.81459 5.70236C6.79511 5.70584 6.77592 5.70925 6.758 5.71392C6.70637 5.72547 6.65763 5.76303 6.67481 5.79762C6.68629 5.81207 6.69778 5.81784 6.71215 5.82073C6.67481 5.83229 6.64037 5.84962 6.60881 5.88132C6.65607 5.91851 6.70474 5.91132 6.75281 5.90429C6.77192 5.90147 6.79089 5.89866 6.8097 5.89866C6.8097 5.91962 6.82341 5.92673 6.8377 5.93414C6.84511 5.93792 6.85259 5.94184 6.85844 5.9477C6.77526 5.97947 6.70926 6.04873 6.692 6.09777C6.67148 6.14777 6.63348 6.18029 6.59585 6.21244C6.57044 6.23421 6.54526 6.25577 6.52563 6.28251V6.33443C6.47022 6.38355 6.41318 6.42747 6.35704 6.47073C6.24163 6.55962 6.12948 6.64599 6.04074 6.77021C6.05792 6.77021 6.05792 6.78755 6.05792 6.80488C6.04207 6.82881 6.01948 6.8454 5.99807 6.8611C5.97304 6.87955 5.94955 6.89673 5.94029 6.92318C5.94029 6.94051 5.9403 6.95784 5.95748 6.95784C6.06281 6.92303 6.15385 6.86444 6.24318 6.80695C6.32422 6.75488 6.40385 6.70369 6.49118 6.67207C6.56259 6.65495 6.62474 6.62258 6.6854 6.59095C6.73689 6.56414 6.78726 6.53792 6.84126 6.52199C6.88281 6.5134 6.92874 6.5011 6.97466 6.48881C7.02059 6.47658 7.06644 6.46429 7.10807 6.45562C7.10807 6.47295 7.10807 6.49029 7.12533 6.49029H7.25726C7.24918 6.50992 7.22355 6.51288 7.206 6.51488Z" fill="#000091"/>
<path d="M24.4442 0.155548H14.8861C14.8861 0.155548 14.9035 0.158437 14.9757 0.195992C15.0537 0.236437 15.1549 0.291399 15.2156 0.323177C15.3398 0.386733 15.4582 0.467622 15.5362 0.591918C15.571 0.641029 15.6201 0.742141 15.5883 0.808659C15.5536 0.892437 15.5362 1.02829 15.4524 1.06007C15.3513 1.11207 15.2184 1.11207 15.0999 1.09473C15.0335 1.09473 14.967 1.0774 14.8977 1.06007C15.1491 1.16118 15.386 1.27969 15.5536 1.51377C15.571 1.54844 15.6374 1.56288 15.7039 1.56288C15.7212 1.56288 15.7212 1.59755 15.7212 1.61199C15.6865 1.64666 15.6547 1.66399 15.6721 1.7131H15.7212C15.805 1.67844 15.7876 1.51081 15.9061 1.56288C15.9899 1.61199 16.0246 1.73044 15.9725 1.81429C15.9061 1.88073 15.8396 1.93273 15.7703 1.98184C15.753 2.01658 15.753 2.0657 15.7703 2.10036C15.8194 2.16681 15.8367 2.23325 15.8541 2.30266C15.9061 2.4211 15.9205 2.55407 15.9725 2.67251C16.039 2.92392 16.1055 3.17532 16.091 3.42962C16.091 3.56258 16.0246 3.68103 16.0737 3.81688C16.1084 3.94977 16.1922 4.05095 16.2586 4.1694C16.325 4.27058 16.3915 4.33703 16.4436 4.43814C16.5447 4.60577 16.7296 4.7734 16.6458 4.97569C16.5967 5.09414 16.4117 5.07681 16.2933 5.14325C16.1922 5.2271 16.2759 5.36288 16.3279 5.44666C16.4117 5.59695 16.2268 5.69806 16.1084 5.75014C16.143 5.80214 16.2095 5.78481 16.2268 5.81658C16.2442 5.90036 16.3279 5.94947 16.2759 6.03621C16.2095 6.13732 16.0073 6.18643 16.1084 6.33962C16.1748 6.45814 16.1315 6.58814 16.091 6.70955C16.0419 6.85977 15.9061 6.92621 15.7876 6.96095C15.6865 6.99562 15.5681 6.99562 15.4698 6.97828C15.4351 6.96095 15.4033 6.94354 15.3687 6.94354C15.0826 6.90888 14.7966 6.82799 14.5134 6.82799C14.4296 6.84532 14.3459 6.85977 14.2794 6.89443C14.2042 6.9494 14.1349 7.01006 14.0771 7.07362C14.0771 7.07362 14.0771 7.07362 14.0742 7.07651C14.0627 7.09095 14.0482 7.10251 14.0367 7.11695C14.0309 7.12562 14.0222 7.13429 14.0164 7.14295C14.0107 7.14873 14.0078 7.15451 14.002 7.16029C13.9529 7.22103 13.9096 7.28747 13.8691 7.35391C13.8662 7.35969 13.8633 7.36258 13.8604 7.36547C13.8576 7.37414 13.8518 7.37992 13.846 7.38858C13.791 7.48977 13.7506 7.59377 13.7188 7.69784C13.6033 8.08214 13.6553 8.41154 13.7362 8.49251C13.7593 8.51562 14.291 8.68036 14.6607 8.84503C14.8342 8.9231 14.9555 8.98088 15.0566 9.04443H24.4413V0.155548H24.4442Z" fill="#E1000F"/>
<path d="M15.4545 3.39644C15.5208 3.4137 15.6217 3.4137 15.6217 3.44836C15.5871 3.58111 15.3882 3.61577 15.2874 3.7514H15.2355C15.1865 3.786 15.2009 3.8697 15.1519 3.8697C15.1029 3.85236 15.051 3.8697 15.0021 3.88703C15.0684 3.9534 15.1519 4.00533 15.2528 3.98807C15.2701 3.98807 15.3018 4.02266 15.3018 4.05444C15.3018 4.05444 15.3191 4.05444 15.3364 4.03711C15.3536 4.03711 15.3709 4.03711 15.3709 4.05444V4.12081C15.3219 4.18718 15.2355 4.1554 15.1692 4.16985C15.3047 4.20451 15.4372 4.20451 15.5554 4.16985C15.6562 4.13525 15.5554 3.96785 15.6217 3.88414C15.5871 3.88414 15.6217 3.83222 15.5871 3.83222C15.6217 3.79755 15.6534 3.74851 15.6879 3.73118C15.7225 3.73118 15.7715 3.71385 15.7888 3.67925C15.7888 3.64459 15.7225 3.63014 15.7369 3.59555C15.8378 3.52918 15.9214 3.42814 15.8868 3.32718C15.8695 3.27518 15.7369 3.27518 15.6534 3.24348C15.5698 3.2117 15.4689 3.24348 15.3681 3.26074C15.2845 3.26074 15.2009 3.31274 15.1173 3.32718C14.9992 3.36177 14.8983 3.42814 14.8004 3.49451C14.9185 3.44548 15.0338 3.42814 15.1692 3.39355C15.2701 3.39644 15.3536 3.37333 15.4545 3.39644Z" fill="#808080"/>
<path d="M0.915527 20.1556V13.9333H2.81775C4.18664 13.9333 5.03108 14.6356 5.03108 15.7911C5.03108 16.5467 4.66664 17.1067 4.02664 17.4L5.9733 20.1556H4.48886L2.82664 17.64H2.17775V20.1556H0.915527ZM2.88886 14.9822H2.17775V16.5911H2.88886C3.42219 16.5911 3.73331 16.28 3.73331 15.7733C3.73331 15.3022 3.42219 14.9822 2.88886 14.9822ZM9.27945 13.4H8.13279L9.13723 12.2H10.435L9.27945 13.4ZM6.90612 20.1556V13.9333H10.5328V14.9822H8.16834V16.4578H10.1772V17.5067H8.16834V19.1067H10.5328V20.1556H6.90612ZM12.1329 20.1556V13.9333H14.1862C15.5551 13.9333 16.3906 14.6356 16.3906 15.7911C16.3906 16.9378 15.5551 17.64 14.1862 17.64H13.3951V20.1556H12.1329ZM14.2395 14.9822H13.3951V16.5911H14.2395C14.7729 16.5911 15.0929 16.28 15.0929 15.7733C15.0929 15.3022 14.7729 14.9822 14.2395 14.9822ZM21.2374 17.8267V13.9333H22.4996V17.72C22.4996 19.3556 21.5396 20.3333 19.9752 20.3333C18.4196 20.3333 17.4596 19.3556 17.4596 17.72V13.9333H18.7218V17.8267C18.7218 18.6622 19.1929 19.1511 19.984 19.1511C20.7574 19.1511 21.2374 18.6622 21.2374 17.8267ZM24.2009 20.1556V13.9333H26.032C27.3298 13.9333 28.1209 14.5733 28.1209 15.6222C28.1209 16.1289 27.8898 16.5645 27.4543 16.8489C28.112 17.1422 28.4765 17.6756 28.4765 18.3245C28.4765 19.4622 27.5965 20.1556 26.1654 20.1556H24.2009ZM26.0587 14.9822H25.4632V16.3867H26.0587C26.5387 16.3867 26.8232 16.1289 26.8232 15.6756C26.8232 15.24 26.5387 14.9822 26.0587 14.9822ZM26.2365 17.4356H25.4632V19.1067H26.2365C26.8232 19.1067 27.1787 18.7956 27.1787 18.2711C27.1787 17.7378 26.8232 17.4356 26.2365 17.4356ZM29.9051 20.1556V13.9333H31.1673V19.0089H33.5317V20.1556H29.9051ZM34.776 20.1556V13.9333H36.0382V20.1556H34.776ZM43.1284 19.9956C43.6084 20.4311 44.0351 20.5911 44.4351 20.5911C44.5684 20.5911 44.7462 20.5733 44.8795 20.52V21.5867C44.6751 21.6667 44.4973 21.7022 44.2217 21.7022C43.5284 21.7022 42.8884 21.4178 42.2751 20.8845L41.5373 20.2267C41.2706 20.2978 40.9862 20.3333 40.684 20.3333C38.7195 20.3333 37.3773 18.8222 37.3773 17.0445C37.3773 15.2667 38.7195 13.7556 40.684 13.7556C42.6395 13.7556 43.9817 15.2667 43.9817 17.0445C43.9817 18.0845 43.5195 19.0356 42.7551 19.64L43.1284 19.9956ZM40.684 19.1511C41.8484 19.1511 42.684 18.2356 42.684 17.0445C42.684 15.8533 41.8484 14.9378 40.684 14.9378C39.5106 14.9378 38.6751 15.8533 38.6751 17.0445C38.6751 18.2356 39.5106 19.1511 40.684 19.1511ZM48.9943 17.8267V13.9333H50.2566V17.72C50.2566 19.3556 49.2966 20.3333 47.7321 20.3333C46.1766 20.3333 45.2166 19.3556 45.2166 17.72V13.9333H46.4788V17.8267C46.4788 18.6622 46.9499 19.1511 47.741 19.1511C48.5143 19.1511 48.9943 18.6622 48.9943 17.8267ZM51.9579 20.1556V13.9333H55.5846V14.9822H53.2201V16.4578H55.229V17.5067H53.2201V19.1067H55.5846V20.1556H51.9579ZM0.915527 29.0445V22.8222H4.54219V23.8711H2.17775V25.3467H4.18664V26.3956H2.17775V29.0445H0.915527ZM5.78634 29.0445V22.8222H7.68856C9.05745 22.8222 9.9019 23.5245 9.9019 24.68C9.9019 25.4356 9.53745 25.9956 8.89745 26.2889L10.8441 29.0445H9.35967L7.69745 26.5289H7.04856V29.0445H5.78634ZM7.75967 23.8711H7.04856V25.48H7.75967C8.29301 25.48 8.60412 25.1689 8.60412 24.6622C8.60412 24.1911 8.29301 23.8711 7.75967 23.8711ZM11.2638 29.0445L13.6194 22.8222H15.2728L17.6283 29.0445H16.2861L15.6906 27.4267H13.2017L12.606 29.0445H11.2638ZM13.5928 26.3511H15.2995L14.4461 24.0133L13.5928 26.3511ZM18.7225 29.0445V22.8222H20.3403L23.1225 27.32V22.8222H24.3847V29.0445H22.7669L19.9847 24.5467V29.0445H18.7225ZM29.0316 28.04C29.7427 28.04 30.3027 27.6933 30.6583 27.1867L31.6538 27.9511C31.1738 28.6089 30.4272 29.0711 29.5205 29.1867L28.7472 30.4756H27.6272L28.4094 29.1689C26.7916 28.8845 25.7249 27.5156 25.7249 25.9333C25.7249 24.1556 27.0672 22.6445 29.0316 22.6445C30.1605 22.6445 31.0849 23.1511 31.6538 23.9067L30.6583 24.68C30.3027 24.1733 29.7427 23.8267 29.0316 23.8267C27.8583 23.8267 27.0227 24.7422 27.0227 25.9333C27.0227 27.1245 27.8583 28.04 29.0316 28.04ZM32.0569 29.0445L34.4125 22.8222H36.0658L38.4214 29.0445H37.0792L36.4836 27.4267H33.9947L33.3992 29.0445H32.0569ZM34.3858 26.3511H36.0925L35.2392 24.0133L34.3858 26.3511ZM39.5155 29.0445V22.8222H40.7778V29.0445H39.5155ZM42.0903 28.1822L43.0058 27.3378C43.3792 27.8178 43.8769 28.1022 44.3836 28.1022C44.8814 28.1022 45.1836 27.8356 45.1836 27.3911C45.1836 26.2445 42.3569 26.5556 42.3569 24.4489C42.3569 23.4622 43.1747 22.6445 44.3658 22.6445C45.2992 22.6445 46.0103 23.0622 46.5436 23.6933L45.6192 24.5289C45.2547 24.0578 44.8458 23.7467 44.3747 23.7467C43.9303 23.7467 43.6369 24.0311 43.6369 24.4045C43.6369 25.5333 46.4636 25.2133 46.4636 27.3467C46.4458 28.52 45.5392 29.2222 44.3925 29.2222C43.3436 29.2222 42.6414 28.84 42.0903 28.1822ZM47.9204 29.0445V22.8222H51.5471V23.8711H49.1826V25.3467H51.1915V26.3956H49.1826V27.9956H51.5471V29.0445H47.9204Z" fill="black"/>
<path fill-rule="evenodd" clip-rule="evenodd" d="M23.0963 45.0553L22.2695 45.8108H22.0561L22.5451 44.9487H23.0963V45.0553ZM22.5007 47.9793H22.3229C22.1006 48.246 21.8517 48.4593 21.6116 48.4593C21.3627 48.4593 21.2383 48.3082 21.2383 47.9793C21.2383 47.846 21.2561 47.7038 21.2827 47.5793L22.7318 47.0994C23.0163 46.4239 22.6784 46.1305 22.2784 46.1305C21.5939 46.1305 20.8116 47.3304 20.8116 48.2904C20.8116 48.7437 21.0249 48.9926 21.3627 48.9926C21.7539 48.9837 22.1628 48.6015 22.5007 47.9793ZM22.0034 46.5219C22.199 46.5219 22.3678 46.673 22.279 47.0196L21.381 47.2596C21.5233 46.833 21.79 46.5219 22.0034 46.5219ZM19.1767 46.5394H19.6568L18.8922 48.6371C18.8211 48.8148 18.9189 48.9926 19.1056 48.9926C19.6479 48.9926 20.2969 48.5304 20.5458 47.8727H20.4124C20.2169 48.1482 19.7901 48.4504 19.4701 48.5038L20.1724 46.5394H20.8925L20.9814 46.2372H20.2791L20.5458 45.4817H20.2702L19.7724 46.2372L19.1767 46.3172V46.5394ZM18.5095 46.1399C18.6073 46.1399 18.7406 46.2466 18.6784 46.4421L17.816 48.5309C18.0383 48.4953 18.2694 48.2821 18.4028 48.0865H18.545C18.3405 48.6109 17.8782 48.9931 17.4782 48.9931C17.3804 48.9931 17.2381 48.8864 17.3093 48.6909L18.1094 46.6022C17.8872 46.6377 17.656 46.851 17.5227 47.0466H17.3893C17.5938 46.5133 18.0916 46.1399 18.5095 46.1399ZM18.759 45.6064C18.9368 45.6064 19.0879 45.4642 19.0879 45.2776C19.0879 45.0998 18.9368 44.9487 18.759 44.9487C18.5723 44.9487 18.4301 45.0998 18.4301 45.2776C18.4301 45.4553 18.5812 45.6064 18.759 45.6064ZM14.8739 47.3399C15.0694 46.9133 14.9983 46.7177 14.8739 46.7177C14.7672 46.7177 14.6427 46.8333 14.5182 47.0466H14.3849C14.5893 46.5933 14.8561 46.1399 15.1494 46.1399C15.3984 46.1399 15.4873 46.3888 15.4873 46.6644V47.0555C15.5273 47.0089 15.5662 46.9632 15.6043 46.9186L15.605 46.9177L15.6056 46.9171C15.9811 46.4764 16.2679 46.1399 16.5985 46.1399C16.8564 46.1399 16.9897 46.2999 16.9897 46.5399C16.9897 46.6821 16.9453 46.8599 16.8475 47.0466L16.1096 48.5309C16.3318 48.4953 16.563 48.2821 16.6963 48.0865H16.8297C16.6252 48.6198 16.1273 48.9931 15.7096 48.9931C15.5228 48.9931 15.4161 48.7976 15.4961 48.6376L16.3496 46.9933C16.4474 46.8066 16.4652 46.6821 16.3141 46.6821C16.1096 46.6821 15.6295 47.0199 15.3717 47.331L14.8116 48.8064C14.7494 48.9576 14.6872 48.9931 14.5449 48.9931C14.3138 48.9931 14.1982 48.842 14.3049 48.602L14.8739 47.3399ZM14.2953 46.7705C14.3931 46.4327 14.3398 46.1305 14.0819 46.1305C13.7604 46.1305 13.6598 46.3428 13.3481 46.9999L13.3263 47.0461V46.655C13.3263 46.3794 13.2374 46.1305 12.9884 46.1305C12.6951 46.1305 12.4284 46.5839 12.2239 47.0372H12.3573C12.4995 46.8327 12.6329 46.7083 12.7396 46.7083C12.864 46.7083 12.9351 46.9038 12.7396 47.3304L12.1706 48.5926C12.0639 48.8326 12.1795 48.9837 12.4106 48.9837C12.5529 48.9837 12.6151 48.9481 12.6773 48.797L13.2374 47.3216C13.3974 47.1261 13.5396 46.9572 13.7175 46.7705H14.2953ZM11.4862 47.0196C11.5751 46.673 11.4062 46.5219 11.2107 46.5219C10.9973 46.5219 10.7306 46.833 10.5883 47.2596L11.4862 47.0196ZM11.7079 47.9793H11.5301C11.3079 48.246 11.059 48.4593 10.8189 48.4593C10.57 48.4593 10.4456 48.3082 10.4456 47.9793C10.4456 47.846 10.4633 47.7038 10.49 47.5793L11.9391 47.0994C12.2236 46.4239 11.8858 46.1305 11.4857 46.1305C10.8011 46.1305 10.0188 47.3304 10.0188 48.2904C10.0188 48.7437 10.2321 48.9926 10.57 48.9926C10.9612 48.9837 11.3701 48.6015 11.7079 47.9793ZM8.86407 46.5394H8.384V46.3172L8.97963 46.2372L9.47748 45.4817H9.75304L9.48637 46.2372H10.1887L10.0998 46.5394H9.3797L8.67733 48.5038C8.99741 48.4504 9.42415 48.1482 9.6197 47.8727H9.75304C9.50415 48.5304 8.85518 48.9926 8.31289 48.9926C8.12615 48.9926 8.02837 48.8148 8.09948 48.6371L8.86407 46.5394ZM5.84185 48.1662C5.84185 47.5173 6.56193 46.6463 6.962 46.6463C7.05089 46.6463 7.13978 46.6552 7.21089 46.6819L6.79311 47.8018C6.55304 48.0951 6.17963 48.4506 6.00185 48.4506C5.90407 48.4506 5.84185 48.3617 5.84185 48.1662ZM7.82459 45.9975L8.04681 46.0153L7.27341 47.7929C7.08667 48.2196 7.16667 48.4151 7.27341 48.4151C7.38007 48.4151 7.51341 48.2907 7.65563 48.0862H7.78904C7.58452 48.5396 7.31785 48.9928 7.02444 48.9928C6.77555 48.9928 6.62437 48.7261 6.66881 48.2462L6.68659 48.0773L6.63822 48.145C6.31978 48.5901 6.03163 48.9928 5.73541 48.9928C5.47755 48.9928 5.34422 48.8328 5.34422 48.5929C5.34422 47.5618 6.47326 46.2463 7.53119 46.2463H7.57563L7.82459 45.9975ZM5.78815 46.7705C5.88592 46.4327 5.83259 46.1305 5.57481 46.1305C5.25326 46.1305 5.15259 46.3429 4.84104 46.9999L4.81911 47.0461V46.655C4.81911 46.3794 4.73022 46.1305 4.48133 46.1305C4.18793 46.1305 3.92126 46.5839 3.71674 47.0372H3.85007C3.99237 46.8327 4.1257 46.7083 4.22348 46.7083C4.34793 46.7083 4.41911 46.9038 4.22348 47.3304L3.65452 48.6015C3.54785 48.8415 3.66341 48.9926 3.89452 48.9926C4.03681 48.9926 4.09904 48.957 4.16126 48.8059L4.72133 47.3304C4.88133 47.135 5.02363 46.9661 5.20141 46.7794H5.78815V46.7705ZM2.12474 48.7254L2.07141 48.8854H0L0.0533337 48.7165C0.693408 48.601 0.800149 48.5476 1.06682 47.8277L1.64467 46.2811C1.90252 45.5611 1.84918 45.5078 1.28911 45.3923L1.34244 45.2323H4.03615L3.87615 46.0944H3.68052C3.68052 45.5789 3.62719 45.4456 3.13822 45.4456H3.01378C2.5337 45.4456 2.47148 45.5167 2.33815 45.89L1.95585 46.9299H2.51593C2.88933 46.9299 3.03156 46.6989 3.20044 46.3967H3.39607L2.93378 47.6588H2.73815C2.78259 47.2766 2.78259 47.1255 2.43593 47.1255H1.87585L1.618 47.8366C1.33933 48.5767 1.41896 48.5918 2.08259 48.7174C2.09637 48.72 2.11044 48.7227 2.12474 48.7254Z" fill="black"/>
<path fill-rule="evenodd" clip-rule="evenodd" d="M3.88504 38.2541L3.05822 38.85V38.8589H2.84482L3.33378 38.1475H3.88504V38.2541ZM9.66459 42.425L10.9893 38.9033L10.9448 38.8499L10.0291 38.9566V39.0634L10.2069 39.1968C10.3587 39.3149 10.3185 39.425 10.1926 39.77L10.1713 39.8282L9.15785 42.5318C9.07785 42.6918 9.18452 42.8875 9.37119 42.8875C9.78904 42.8875 10.2336 42.5051 10.4381 41.9803H10.3047C10.1624 42.1761 9.878 42.3895 9.66459 42.425ZM15.7362 39.7126L16.563 38.9566V38.8499H16.0118L15.5228 39.7126H15.7362ZM15.7889 41.8736H15.9667C15.6378 42.5051 15.2288 42.8875 14.8376 42.8875C14.4998 42.8875 14.2864 42.6384 14.2864 42.1849C14.2864 41.2244 15.0688 40.0238 15.7533 40.0238C16.1445 40.0238 16.4913 40.3173 16.2067 40.9932L14.7487 41.4735C14.7221 41.598 14.7043 41.7402 14.7043 41.8736C14.7043 42.2027 14.8287 42.3539 15.0777 42.3539C15.3177 42.3539 15.5667 42.1404 15.7889 41.8736ZM15.744 40.9132C15.833 40.5752 15.664 40.4241 15.4684 40.4241C15.2639 40.4241 14.9973 40.7353 14.8461 41.1533L15.744 40.9132ZM13.1302 40.4416H12.6502V40.2193L13.2458 40.1392L13.7437 39.3833H14.0193L13.7526 40.1392H14.4549L14.366 40.4416H13.6459L12.9436 42.407C13.2636 42.3537 13.6903 42.0513 13.8859 41.7756H14.0193C13.7704 42.4338 13.1213 42.8962 12.579 42.8962C12.3923 42.8962 12.2945 42.7183 12.3656 42.5404L13.1302 40.4416ZM12.1522 40.3349C12.2056 40.1392 12.0811 40.0325 11.9744 40.0325C11.5566 40.0325 11.0587 40.4149 10.8542 40.9396H10.9876C11.121 40.744 11.3521 40.5306 11.5744 40.4949L10.7742 42.5849C10.7031 42.7806 10.8453 42.8872 10.9431 42.8872C11.3432 42.8872 11.8055 42.5049 12.01 41.9801H11.8766C11.7433 42.1758 11.5121 42.3892 11.2899 42.4248L12.1522 40.3349ZM12.5619 39.179C12.5619 39.3569 12.4107 39.5081 12.2329 39.5081C12.0551 39.5081 11.9039 39.3569 11.9039 39.179C11.9039 39.0011 12.0462 38.8499 12.2329 38.8499C12.4107 38.8499 12.5619 39.0011 12.5619 39.179ZM8.07311 40.5486C7.67304 40.5486 6.95289 41.4201 6.95289 42.0693C6.95289 42.2649 7.01511 42.3539 7.12185 42.3539C7.29074 42.3539 7.66415 41.9981 7.90415 41.7046L8.322 40.5841C8.242 40.5575 8.162 40.5486 8.07311 40.5486ZM9.15793 39.9172L8.93571 39.8994L8.68674 40.1484H8.6423C7.58437 40.1484 6.45526 41.4646 6.45526 42.4962C6.45526 42.7363 6.58859 42.8964 6.84645 42.8964C7.14267 42.8964 7.43082 42.4934 7.74933 42.0481L7.7977 41.9803L7.77993 42.1494C7.73548 42.6296 7.88659 42.8964 8.13556 42.8964C8.42896 42.8964 8.69563 42.4428 8.90015 41.9892H8.76674C8.62452 42.1938 8.49119 42.3183 8.38452 42.3183C8.27778 42.3183 8.19778 42.1226 8.38452 41.6958L9.15793 39.9172ZM4.67667 42.7986C4.29437 42.9498 4.02763 43.1277 4.02763 43.4034C4.02763 43.6613 4.2677 43.768 4.76556 43.768C5.43237 43.768 5.79689 43.5724 5.79689 43.3144C5.79689 43.1989 5.64571 43.1455 5.24563 43.0121C4.98785 42.9321 4.80111 42.8609 4.67667 42.7986ZM5.12059 41.7047C4.94282 41.7047 4.88059 41.5535 4.88059 41.3935C4.88059 40.8777 5.12948 40.2373 5.52956 40.2373C5.70741 40.2373 5.76963 40.3885 5.76963 40.5486C5.76074 41.0733 5.51178 41.7047 5.12059 41.7047ZM5.45933 42.5406C5.9483 42.6918 6.25059 42.8075 6.25059 43.1454C6.25059 43.5812 5.45045 44.0969 4.48141 44.0881C3.92126 44.0881 3.44119 43.9369 3.44119 43.5723C3.44119 43.2254 3.76126 42.9408 4.54363 42.7096C4.43696 42.6384 4.39252 42.5495 4.39252 42.425C4.39252 42.2116 4.58807 42.0426 4.92593 41.8825C4.59696 41.8381 4.38356 41.589 4.38356 41.2244C4.38356 40.6641 4.84593 40.0238 5.57489 40.0238C5.72608 40.0238 5.85941 40.0594 5.96607 40.1306H6.76622L6.67734 40.4329H6.20615C6.23282 40.5129 6.25059 40.6019 6.25059 40.6998C6.25059 41.2422 5.81496 41.8647 5.12148 41.9003C4.9437 41.9981 4.85482 42.1315 4.85482 42.2383C4.85482 42.3638 5.00022 42.4063 5.32163 42.5001C5.36437 42.5126 5.4103 42.526 5.45933 42.5406ZM2.64044 41.02C2.98719 41.02 2.99607 41.1712 2.94274 41.5535H3.1383L3.60067 40.2907H3.40504C3.23615 40.5931 3.09385 40.8243 2.72044 40.8243H1.95593L2.32933 39.7838C2.46267 39.4103 2.52489 39.3391 3.00496 39.3391H3.34282C3.83178 39.3391 3.88511 39.4725 3.88511 39.9883H4.08074L4.24074 39.1257H1.34244L1.28911 39.2858C1.84918 39.4014 1.90252 39.4547 1.64474 40.1751L1.06689 41.7314C0.800148 42.4518 0.693481 42.5051 0.0444441 42.6207L0 42.7897H3.21837L3.79622 41.8737H3.57393C3.20059 42.2384 2.82719 42.5763 2.09815 42.5763C1.2963 42.5763 1.31059 42.537 1.55119 41.8759C1.56667 41.8333 1.58311 41.7881 1.6003 41.7403L1.86696 41.0289H2.64044V41.02Z" fill="black"/>
<path fill-rule="evenodd" clip-rule="evenodd" d="M5.296 33.4056C5.47378 33.4056 5.62489 33.2546 5.62489 33.0769C5.62489 32.8992 5.47378 32.7481 5.296 32.7481C5.10941 32.7481 4.96719 32.8992 4.96719 33.0769C4.96719 33.2635 5.10941 33.4056 5.296 33.4056ZM7.92756 34.5249C7.92756 34.0984 7.82096 33.9385 7.51874 33.9385C7.14548 33.9385 6.79889 34.3383 6.4523 34.8181L7.19882 32.819L7.15437 32.7568L6.23904 32.8634V32.9701L6.41674 33.1033C6.57156 33.2236 6.52667 33.344 6.39482 33.6976L6.38119 33.7341L5.57252 35.8487C5.50141 36.0264 5.42141 36.2397 5.42141 36.293C5.42141 36.5418 5.75911 36.7817 6.07015 36.7817C6.76334 36.7906 7.92756 35.5111 7.92756 34.5249ZM15.6327 33.6187L16.4593 32.8634V32.7568H15.9082L15.4195 33.6187H15.6327ZM15.6863 35.7777H15.864C15.5263 36.4085 15.1175 36.7906 14.7264 36.7817C14.3887 36.7817 14.1755 36.5418 14.1755 36.0887C14.1755 35.1291 14.9576 33.9296 15.6419 33.9296C16.0329 33.9296 16.3795 34.2228 16.0951 34.8981L14.6464 35.3778C14.6199 35.5023 14.6021 35.6444 14.6021 35.7777C14.6021 36.1064 14.7264 36.2575 14.9753 36.2575C15.2153 36.2575 15.4641 36.0442 15.6863 35.7777ZM15.641 34.8181C15.7299 34.4805 15.561 34.3295 15.3655 34.3295C15.1522 34.3295 14.8856 34.6404 14.7434 35.0581L15.641 34.8181ZM13.0183 34.3478H12.5384V34.1256L13.1338 34.0456L13.6315 33.2904H13.907L13.6404 34.0456H14.3424L14.2536 34.3478H13.5337L12.8316 36.3113C13.1516 36.258 13.5782 35.9559 13.7737 35.6805H13.907C13.6582 36.338 13.0094 36.8 12.4673 36.8C12.2807 36.8 12.1829 36.6223 12.254 36.4446L13.0183 34.3478ZM12.2912 34.5787C12.389 34.2411 12.3356 33.939 12.0779 33.939C11.7565 33.939 11.6559 34.1512 11.3444 34.8081L11.3225 34.8541V34.4632C11.3225 34.1878 11.2336 33.939 10.9848 33.939C10.6916 33.939 10.4249 34.3921 10.2205 34.8452H10.3538C10.496 34.641 10.6293 34.5165 10.727 34.5165C10.8515 34.5165 10.9226 34.712 10.727 35.1385L10.1583 36.4001C10.0516 36.6401 10.1672 36.7911 10.3982 36.7911C10.5404 36.7911 10.6027 36.7555 10.6649 36.6045L11.2247 35.1296C11.3847 34.9341 11.5269 34.7653 11.7047 34.5787H12.2912ZM9.47422 34.8181C9.56304 34.4805 9.39422 34.3295 9.19867 34.3295C8.98541 34.3295 8.72763 34.6404 8.57659 35.0581L9.47422 34.8181ZM9.69578 35.7777H9.51808C9.29593 36.0442 9.04704 36.2575 8.80711 36.2575C8.55823 36.2575 8.43385 36.1064 8.43385 35.7777C8.43385 35.6444 8.45163 35.5023 8.4783 35.3778L9.92689 34.8981C10.2113 34.2228 9.87356 33.9296 9.47363 33.9296C8.78934 33.9296 8.00726 35.1291 8.00726 36.0887C8.00726 36.5418 8.22052 36.7817 8.55822 36.7817C8.94926 36.7906 9.35808 36.4085 9.69578 35.7777ZM5.96385 36.1156C5.96385 36.2311 6.1683 36.3644 6.31045 36.3644C6.88815 36.3644 7.43022 35.3249 7.42134 34.7473C7.42134 34.5518 7.32363 34.4719 7.1903 34.4719C6.97704 34.4719 6.586 34.7918 6.33711 35.0938L6.10608 35.7158C6.02608 35.9201 5.96385 36.0801 5.96385 36.1156ZM5.03089 33.939C5.13756 33.939 5.26193 34.0456 5.20859 34.2411L4.35548 36.3291C4.57763 36.2935 4.80867 36.0803 4.942 35.8848H5.07533C4.87089 36.409 4.40874 36.7911 4.00882 36.7911C3.90222 36.7911 3.76 36.6844 3.83111 36.489L4.63096 34.401C4.40874 34.4366 4.1777 34.6498 4.04437 34.8452H3.91111C4.11548 34.3211 4.61319 33.939 5.03089 33.939ZM1.34193 33.015H3.25267L3.19941 33.1838C2.55059 33.2992 2.444 33.3526 2.17733 34.0723L1.60859 35.636C1.33311 36.3824 1.40415 36.4712 1.89296 36.4712C2.49689 36.4712 2.89282 36.0324 3.23859 35.6492C3.2643 35.6207 3.2897 35.5926 3.31489 35.565H3.53711L2.90608 36.6844H0L0.0533337 36.5245C0.693186 36.409 0.799851 36.3557 1.06644 35.636L1.64415 34.0634C1.90185 33.3437 1.84852 33.2904 1.28867 33.1749L1.34193 33.015Z" fill="black"/>
<g clip-path="url(#clip0_1_4)">
<path d="M121.001 48.6331H80.1481V0.475128H121.001V48.6331Z" fill="#004899"/>
<path d="M120.09 1.384H81.0563V47.7254H120.09V1.384Z" fill="white"/>
<path d="M92.5498 27.5353C93.8038 29.4344 95.6865 30.8314 97.8675 31.481C100.049 32.1307 102.389 31.9918 104.478 31.0882C106.567 30.1849 108.27 28.5747 109.291 26.5404C110.311 24.5062 110.583 22.1776 110.057 19.9632C109.532 17.7488 108.244 15.79 106.419 14.4305C104.594 13.0709 102.348 12.3974 100.076 12.5282C97.8042 12.6589 95.6507 13.5855 93.9937 15.1455C92.3366 16.7054 91.2816 18.799 91.014 21.059C90.9687 21.4349 90.9461 21.8131 90.9461 22.1917C90.9432 24.0897 91.5011 25.9462 92.5498 27.5285" fill="#80A4CC"/>
<path d="M97.4906 19.0505L98.007 19.132L97.8303 19.4719L97.3773 19.2272L97.4906 19.0505ZM99.5678 17.9179L99.1351 18.2985V18.5567L99.8147 18.7266L101.185 17.7956L101.149 17.4174L100.605 17.2293L99.5678 17.9179ZM99.7807 16.8963H99.6561L99.4273 17.329L99.0558 17.3584L98.6322 17.97L98.8588 18.115L99.4296 17.7526L99.8667 17.2859L99.7807 16.8963ZM100.551 15.6958L99.6742 16.3934L99.9868 16.62L100.687 15.9042L100.551 15.6958ZM93.8119 19.5897L94.1155 19.6281L94.2106 18.9101V18.6836L94.1562 18.457L93.9999 18.4434L93.8119 19.5897ZM93.9727 20.0631L94.0702 20.2149L94.2536 20.242L94.3374 19.8705L94.0339 19.798L93.9727 20.0631ZM94.1494 20.4345L94.1789 20.6316H94.3669L94.342 20.4187L94.1494 20.4345ZM94.2559 20.8581L94.308 20.985L94.4666 20.9148C94.4666 20.9148 94.4235 20.797 94.419 20.797L94.2559 20.8581ZM94.351 21.2206L94.4869 21.1708L94.4349 21.0552C94.4349 21.0552 94.3578 21.1209 94.3601 21.13V21.2206H94.351ZM100.786 20.6611C100.786 20.6611 100.54 21.2614 100.54 21.2659C100.54 21.2704 100.927 21.3021 100.927 21.3044L101.02 20.8106L100.952 20.7608L100.997 20.5908L100.802 20.4844L100.741 20.6113L100.786 20.6611ZM100.218 21.0779L100.429 21.1367L100.492 20.9397L100.342 20.9057L100.218 21.0779ZM104.762 28.6958L104.456 28.8724L104.067 28.954L103.21 29.7966L103.262 29.9846L103.387 29.9665L103.876 29.7558C104.147 29.629 104.396 29.4591 104.612 29.253C104.763 29.1037 104.887 28.9306 104.982 28.7411L104.762 28.6958ZM104.535 29.8714L104.431 29.7558L104.268 29.8533C104.268 29.8533 104.39 29.9778 104.388 29.9778L104.535 29.8714ZM101.289 22.5797L101.169 22.5638V22.7903L101.292 22.813L101.364 22.5185L101.326 22.5027L101.289 22.5797ZM94.0588 21.3112L94.1019 21.4947L94.2763 21.438L94.2196 21.2523L94.0588 21.3112ZM92.5502 27.5428L93.2297 26.9878L93.7802 27.1282L95.2503 26.0205L95.3205 25.4316L94.3555 24.0227C94.3004 23.4974 94.2119 22.976 94.0905 22.4619C93.9908 22.1176 93.7666 21.1164 93.7575 21.1028L93.6307 20.8468L92.711 19.4673L93.3067 17.9768L93.7643 17.9428L93.7937 17.7163L93.4404 17.4219V17.3584V17.0798C93.4404 16.8895 93.762 16.697 93.9773 16.697C94.0379 16.6975 94.0982 16.7066 94.1562 16.7242C94.3101 16.7862 94.4525 16.8734 94.5775 16.9824C94.6002 16.9983 94.9989 17.9315 94.9989 17.9315L94.6614 18.2056L94.4938 18.6133L94.7202 18.7968L95.0442 18.2373L96.3852 18.6903L97.2052 19.157L97.4543 18.8852L98.1339 18.9418L98.6367 18.2622L98.1838 18.0901L98.6617 17.5147L98.605 17.3199L97.8756 17.1795L98.4329 16.5838L98.9743 16.9371V17.0934L99.3163 17.1342L99.5859 16.5838L99.3843 16.4048L100.236 15.5848L101.013 15.2246L101.613 14.8305L101.731 14.7376L101.754 14.3162L101.652 14.0173L101.387 13.9131L101.726 13.6458L101.634 13.5959C101.129 13.9479 100.537 14.1527 99.9234 14.1872C99.2438 14.2325 97.8983 13.9357 97.8983 13.9357L96.5528 13.7341L96.0816 13.6503C94.9422 14.2583 93.935 15.0868 93.1188 16.0877L93.0848 17.3584L92.8764 17.9428L92.4052 19.6191L92.5615 20.0925L91.7981 20.2013L91.0257 21.0597C90.9823 21.4357 90.9604 21.8139 90.96 22.1924C90.9572 24.0904 91.5151 25.9471 92.5637 27.5292L92.5502 27.5428ZM105.725 13.9516C106.907 14.684 107.918 15.6623 108.689 16.82C109.459 17.9777 109.972 19.2877 110.192 20.6611L109.435 21.3089L108.953 21.1934L108.726 21.3927L108.742 21.5264C108.742 21.5898 108.778 21.7144 108.826 21.9024C108.919 22.2728 108.968 22.6531 108.971 23.035C108.98 23.3055 108.949 23.5757 108.878 23.8369H108.466L107.306 22.9263L106.422 23.1256L105.852 23.0282L105.129 23.2547L105.455 23.5356L106.024 23.3748L106.513 23.7667L106.436 23.9388L106.234 24.2673L105.799 24.888L105.12 25.4293L103.881 24.1427L103.559 24.1767L104.882 25.6944L105.419 25.5857L105.552 25.8597L105.013 26.7431L103.962 27.7466L103.505 28.9313C103.472 28.9798 103.424 29.0163 103.369 29.0355C103.174 29.1384 102.997 29.2698 102.841 29.4252C102.587 29.663 102.447 29.7944 102.415 29.8193C102.177 30.0261 101.926 30.2175 101.663 30.3924C101.384 30.5806 101.095 30.7523 100.796 30.9066C100.304 31.1594 99.7621 31.2964 99.2098 31.3075C98.8639 31.3066 98.5203 31.249 98.1928 31.1376C98.1475 31.1217 98.118 31.0991 98.118 31.0788L98.3445 30.4309C98.5217 30.2037 98.7115 29.9867 98.9131 29.7808C99.0952 29.5726 99.2303 29.3277 99.3095 29.0627C99.3856 28.7925 99.4833 28.5288 99.6017 28.2744C99.8124 27.9346 99.912 27.6447 99.8419 27.5745L98.4691 26.195L97.8937 25.1235L97.9549 24.8699C98.073 24.5235 98.2248 24.1898 98.408 23.8731C98.4868 23.6745 98.6243 23.5046 98.8021 23.3861L99.7218 22.9331L101.504 23.2027L102.048 23.5651L102.302 23.5334L103.392 23.8165L103.663 23.1075L102.279 22.7179L101.79 22.2309L101.722 22.249L101.948 22.8266L101.672 22.8832L101.643 22.8153L101.74 22.7972C101.74 22.7972 101.656 22.4415 101.441 22.3441C101.379 22.3043 101.308 22.2802 101.235 22.2739C101.1 22.2837 100.971 22.3361 100.868 22.4234C100.703 22.6001 100.514 22.7526 100.306 22.8764L99.7377 22.4483L99.9483 21.9183L100.037 21.9386C100.089 21.9516 100.143 21.9577 100.197 21.9567C100.265 21.963 100.333 21.946 100.389 21.9085C100.446 21.871 100.487 21.8153 100.508 21.7506C100.517 21.7168 100.516 21.6809 100.505 21.6476C100.494 21.6142 100.474 21.5847 100.447 21.5626L100.392 21.5014C100.422 21.4731 100.448 21.4421 100.472 21.4086C100.583 21.4385 100.697 21.4598 100.811 21.4721C100.934 21.4888 101.058 21.4571 101.158 21.3837L101.294 21.1572L101.52 21.0914L101.561 20.7856H101.704C101.756 20.8644 101.795 20.9518 101.817 21.0439L102.218 20.9397L102.336 20.5297L102.272 20.4572L102.447 20.0631L102.295 19.9566L102.037 20.6814L101.896 20.6996L101.833 20.5388L101.473 20.5659L101.271 20.242L101.708 19.789L102.136 19.2159L102.741 19.4061L102.889 19.7052H103.072L103.004 19.2703L103.498 18.8172L103.169 17.329L103.38 16.8601L103.607 16.8737L103.641 16.5067L102.055 14.7829L102.107 14.3162L103.41 14.0195L103.598 14.0761L104.338 14.0037L104.511 14.0807L105.707 13.9629L105.725 13.9516ZM105.702 14.2392L104.184 14.57L105.231 15.1725L105.573 14.7716L105.997 14.4861L105.702 14.2392Z" fill="#004899"/>
<path d="M89.7349 9.50715L89.4834 8.70075H87.8185L87.5535 9.50715H86.1627L88.1311 4.09332H89.1573L91.1234 9.50715H89.7349ZM88.677 6.14559L88.1923 7.59081H89.1346L88.677 6.14559Z" fill="#E3211B"/>
<path d="M96.1019 8.97423C95.906 9.15497 95.6762 9.29512 95.4258 9.38648C95.1754 9.47784 94.9094 9.51871 94.6431 9.50654H92.6317V4.09275H94.6363C94.9026 4.08065 95.1686 4.12145 95.419 4.21282C95.6694 4.3042 95.8992 4.4443 96.0951 4.62506C96.7271 5.25706 96.6569 5.94794 96.6569 6.79965C96.6569 7.65136 96.7339 8.34228 96.1019 8.97423ZM95.1958 5.57645C95.1264 5.47317 95.0304 5.3905 94.918 5.33708C94.8056 5.28367 94.681 5.26152 94.557 5.27291H93.9681V8.31959H94.5525C94.6764 8.331 94.8011 8.30886 94.9135 8.25543C95.0259 8.20206 95.1219 8.11938 95.1913 8.01606C95.2977 7.86429 95.334 7.71935 95.334 6.79965C95.334 5.87998 95.2977 5.73501 95.1913 5.58324L95.1958 5.57645Z" fill="#E3211B"/>
<path d="M98.4714 9.50715V4.09332H102.145V5.28029H99.801V6.18637H101.806V7.3733H99.801V8.32245H102.145V9.5094L98.4714 9.50715Z" fill="#E3211B"/>
<path d="M107.707 9.50715V6.91349L106.939 8.25221H106.087L105.317 6.91349V9.50715H103.989V4.09332H105.294L106.511 6.48084L107.727 4.09332H109.032V9.50715H107.707Z" fill="#E3211B"/>
<path d="M111.007 9.50715V4.09332H114.683V5.28029H112.339V6.18637H114.344V7.3733H112.339V8.32245H114.686V9.5094L111.007 9.50715Z" fill="#E3211B"/>
<path d="M87.2403 34.9314L86.3795 37.3008H86.9413L87.0591 36.9384H87.8474L87.9607 37.3008H88.5224L87.6594 34.9314H87.2403ZM87.2086 36.499L87.4668 35.731L87.7092 36.499H87.2086Z" fill="#E3211B"/>
<path d="M90.0581 37.3151C90.1838 37.3228 90.3097 37.3031 90.4271 37.2573C90.5444 37.2116 90.6504 37.1409 90.7377 37.0501C90.9098 36.8757 90.9642 36.6605 90.9642 36.264V35.9537H90.0853V36.4068H90.4432V36.4679C90.4461 36.5692 90.4105 36.6679 90.3435 36.7443C90.3055 36.7799 90.2606 36.8075 90.2114 36.8249C90.1623 36.8426 90.1101 36.8498 90.0581 36.8462C90.0092 36.8485 89.9605 36.8394 89.9157 36.8197C89.8709 36.8002 89.8312 36.7703 89.7999 36.7329C89.7432 36.6582 89.7047 36.5744 89.7047 36.1168C89.7047 35.6593 89.7432 35.5777 89.7999 35.5029C89.8314 35.4653 89.8709 35.4354 89.9157 35.4155C89.9605 35.3954 90.0091 35.3859 90.0581 35.3874C90.1426 35.3779 90.2275 35.4006 90.296 35.4509C90.3644 35.5013 90.4113 35.5756 90.4273 35.6593H90.971C90.9371 35.495 90.8597 35.343 90.747 35.2189C90.6341 35.095 90.4902 35.0035 90.3299 34.9541C90.1698 34.9047 89.9993 34.8995 89.8362 34.9387C89.6732 34.9776 89.5238 35.0598 89.4035 35.1768C89.1769 35.4033 89.1769 35.7363 89.1769 36.0829V36.1644C89.1769 36.5041 89.1769 36.8258 89.4035 37.0705C89.4896 37.1545 89.5923 37.2195 89.705 37.2616C89.8177 37.3038 89.938 37.3219 90.0581 37.3151Z" fill="#E3211B"/>
<path d="M93.3293 35.8625H92.43V35.4004H93.4834V34.9247H91.8909V37.2941H93.4834V36.8184H92.43V36.336H93.3293V35.8625Z" fill="#E3211B"/>
<path d="M95.7011 34.9247V36.2136L94.8811 34.9247H94.4054V37.2941H94.9445V36.0052L95.7645 37.2941H96.2425V34.9247H95.7011Z" fill="#E3211B"/>
<path d="M98.3781 36.581C98.3635 36.6569 98.322 36.7247 98.2611 36.7722C98.2003 36.8196 98.1245 36.8436 98.0475 36.8393C97.9986 36.8418 97.9499 36.8327 97.9051 36.813C97.8602 36.7933 97.8206 36.7636 97.7892 36.726C97.7326 36.6513 97.6918 36.5629 97.6918 36.1099C97.6918 35.6568 97.7326 35.5685 97.7892 35.4938C97.8206 35.4564 97.8602 35.4267 97.9051 35.407C97.9499 35.3873 97.9986 35.3782 98.0475 35.3805C98.1245 35.3764 98.2003 35.4004 98.2611 35.4478C98.322 35.4953 98.3635 35.5631 98.3781 35.6387H98.9286C98.9019 35.4269 98.7955 35.233 98.631 35.0967C98.4665 34.9603 98.2562 34.8917 98.0429 34.905C97.9217 34.9007 97.8009 34.9222 97.6884 34.9677C97.576 35.0135 97.4746 35.0824 97.3905 35.1698C97.1527 35.3963 97.1527 35.7293 97.1527 36.0759V36.1574C97.1527 36.4972 97.1527 36.8189 97.3905 37.0635C97.4746 37.1512 97.576 37.2201 97.6884 37.2658C97.8009 37.3114 97.9217 37.3329 98.0429 37.3286C98.2562 37.3419 98.4665 37.2733 98.631 37.1369C98.7955 37.0006 98.9019 36.8067 98.9286 36.5946L98.3781 36.581Z" fill="#E3211B"/>
<path d="M101.187 35.8625H100.288V35.4004H101.339V34.9247H99.7486V37.2941H101.339V36.8184H100.288V36.336H101.187V35.8625Z" fill="#E3211B"/>
<path d="M105.561 36.2143V36.0081C105.561 35.6706 105.561 35.4055 105.317 35.1564C105.231 35.0787 105.131 35.0186 105.022 34.9797C104.913 34.9409 104.798 34.924 104.682 34.9299H103.813V37.297H104.682C104.798 37.3034 104.913 37.2866 105.022 37.2479C105.131 37.2089 105.231 37.1487 105.317 37.0705C105.566 36.8168 105.564 36.5495 105.561 36.2143ZM104.952 36.6673C104.918 36.7175 104.872 36.7579 104.817 36.7842C104.763 36.8104 104.702 36.8218 104.642 36.8168H104.352V35.3965H104.637C104.697 35.3915 104.758 35.4026 104.813 35.4289C104.867 35.4552 104.914 35.4957 104.947 35.546C105.002 35.6231 105.015 35.7068 105.015 36.1055C105.015 36.5042 105.004 36.5993 104.952 36.6718V36.6673Z" fill="#E3211B"/>
<path d="M107.911 35.8629H107.012V35.4008H108.065V34.9274H106.472V37.2946H108.065V36.8211H107.012V36.3387H107.911V35.8629Z" fill="#E3211B"/>
<path d="M110.538 37.2941H112.094V36.8184H111.077V34.9247H110.538V37.2941Z" fill="#E3211B"/>
<path d="M114.199 37.294H114.761L113.898 34.9314H113.472L112.611 37.3008H113.173L113.293 36.9384H114.079L114.199 37.294ZM113.447 36.4921L113.698 35.7243L113.941 36.4921H113.447Z" fill="#E3211B"/>
<path d="M87.6054 39.2602H88.2034V38.7845H86.4683V39.2602H87.0664V41.1539H87.6054V39.2602Z" fill="#E3211B"/>
<path d="M90.9646 40.1413C91.0782 40.0851 91.1739 39.9981 91.2407 39.8905C91.3075 39.7829 91.343 39.6586 91.3429 39.5319C91.3431 39.4291 91.3222 39.3274 91.2815 39.2329C91.2407 39.1387 91.181 39.0535 91.106 38.9833C91.031 38.9131 90.9423 38.8589 90.8456 38.8243C90.7488 38.7896 90.6459 38.7753 90.5433 38.7822H89.61V41.1516H90.1514V40.2455H90.3983L90.8287 41.1516H91.4561L90.9374 40.1549L90.9646 40.1413ZM90.5116 39.806H90.1514V39.2578H90.5161C90.5888 39.2578 90.6586 39.2866 90.7099 39.338C90.7613 39.3895 90.7902 39.4592 90.7902 39.5319C90.7902 39.6046 90.7613 39.6744 90.7099 39.7256C90.6586 39.777 90.5888 39.806 90.5161 39.806H90.5116Z" fill="#E3211B"/>
<path d="M93.4653 38.7818L92.6023 41.1512H93.1663L93.2864 40.7888H94.0747L94.1856 41.1512H94.7497L93.8866 38.7818H93.4653ZM93.4336 40.3493L93.6919 39.5815L93.9342 40.3493H93.4336Z" fill="#E3211B"/>
<path d="M96.607 41.1539V39.865L97.427 41.1539H97.905V38.7845H97.3659V40.0734L96.5436 38.7845H96.0656V41.1539H96.607Z" fill="#E3211B"/>
<path d="M100.395 39.7366L100.107 39.689C100.039 39.6838 99.9742 39.656 99.9237 39.6098C99.8887 39.574 99.8684 39.5261 99.867 39.4761C99.867 39.3538 99.969 39.2224 100.189 39.2224H100.209C100.367 39.2093 100.524 39.2561 100.649 39.3538L100.986 39.0208C100.88 38.9272 100.757 38.8559 100.623 38.8108C100.489 38.7655 100.348 38.7476 100.207 38.7581C99.6926 38.7581 99.3483 39.0548 99.3483 39.4965C99.3378 39.6668 99.3948 39.8344 99.5068 39.9631C99.6364 40.0827 99.8023 40.1552 99.978 40.1693L100.272 40.21C100.337 40.2155 100.399 40.2408 100.449 40.2825C100.488 40.3276 100.508 40.3862 100.504 40.4456C100.504 40.5588 100.44 40.6925 100.127 40.6925C99.9345 40.7004 99.7443 40.6447 99.5862 40.534L99.2441 40.876C99.363 40.9824 99.5027 41.0633 99.6543 41.1136C99.8058 41.1639 99.9662 41.1825 100.125 41.1682C100.578 41.1682 101.031 40.9416 101.031 40.4343C101.039 40.3416 101.028 40.2485 100.998 40.1604C100.969 40.0723 100.921 39.9914 100.859 39.9223C100.729 39.8115 100.566 39.7464 100.395 39.7366Z" fill="#E3211B"/>
<path d="M103.02 38.7845H102.481V41.1517H103.02V38.7845Z" fill="#E3211B"/>
<path d="M105.566 39.2602H106.161V38.7845H104.428V39.2602H105.027V41.1539H105.566V39.2602Z" fill="#E3211B"/>
<path d="M108.11 38.7845H107.571V41.1517H108.11V38.7845Z" fill="#E3211B"/>
<path d="M111.374 39.9291C111.374 39.5894 111.374 39.2677 111.136 39.023C110.959 38.853 110.723 38.7578 110.478 38.7578C110.233 38.7578 109.997 38.853 109.82 39.023C109.594 39.2496 109.594 39.5826 109.594 39.9291V40.0107C109.594 40.3505 109.594 40.6721 109.82 40.9168C109.997 41.0868 110.233 41.1818 110.478 41.1818C110.723 41.1818 110.959 41.0868 111.136 40.9168C111.374 40.6902 111.374 40.3573 111.374 40.0107V39.9291ZM110.74 40.5793C110.708 40.6169 110.667 40.6472 110.622 40.668C110.577 40.6889 110.528 40.6995 110.478 40.6995C110.428 40.6995 110.379 40.6889 110.334 40.668C110.289 40.6472 110.249 40.6169 110.216 40.5793C110.158 40.5023 110.121 40.4229 110.121 39.9699C110.121 39.5169 110.16 39.4308 110.216 39.356C110.25 39.3193 110.29 39.2904 110.335 39.2704C110.38 39.2505 110.429 39.2401 110.478 39.2401C110.527 39.2401 110.576 39.2505 110.621 39.2704C110.666 39.2904 110.707 39.3193 110.74 39.356C110.796 39.4308 110.835 39.5146 110.835 39.9699C110.835 40.4252 110.799 40.5023 110.74 40.5793Z" fill="#E3211B"/>
<path d="M114.144 38.7845V40.0734L113.324 38.7845H112.846V41.1539H113.385V39.865L114.207 41.1539H114.685V38.7845H114.144Z" fill="#E3211B"/>
<path d="M87.9155 43.5816H87.0116V43.1173H88.0695V42.6416H86.4703V45.0178H88.0695V44.5421H87.0116V44.0574H87.9155V43.5816Z" fill="#E3211B"/>
<path d="M87.3743 42.346L87.7412 41.7888H87.2406L87.0889 42.346H87.3743Z" fill="#E3211B"/>
<path d="M90.6405 43.3587H91.1933C91.1634 43.1485 91.0555 42.9571 90.891 42.8227C90.7264 42.6884 90.5173 42.6209 90.3053 42.6339C90.1833 42.6298 90.0619 42.6511 89.9487 42.6968C89.8356 42.7423 89.7333 42.8112 89.6484 42.8989C89.4219 43.1254 89.4219 43.4606 89.4219 43.805V43.8842C89.4219 44.2262 89.4219 44.5502 89.6484 44.7903C89.7333 44.8779 89.8356 44.947 89.9487 44.9926C90.0619 45.0383 90.1833 45.0596 90.3053 45.0553C90.519 45.068 90.7296 44.9991 90.8945 44.8623C91.0593 44.7257 91.1661 44.5316 91.1933 44.3192H90.6405C90.6258 44.3955 90.5841 44.4639 90.5229 44.5119C90.4616 44.5597 90.3852 44.584 90.3075 44.5797C90.2587 44.5819 90.21 44.5728 90.1653 44.5531C90.1204 44.5334 90.0808 44.5037 90.0493 44.4664C89.9927 44.3893 89.9519 44.301 89.9519 43.848C89.9519 43.395 89.9927 43.3043 90.0493 43.2273C90.0812 43.1904 90.1209 43.1609 90.1655 43.1414C90.2102 43.1218 90.2588 43.1125 90.3075 43.114C90.3829 43.1093 90.4576 43.1313 90.5185 43.1759C90.5794 43.2208 90.6226 43.2853 90.6405 43.3587Z" fill="#E3211B"/>
<path d="M93.3292 42.6332C93.2068 42.6278 93.0846 42.6487 92.9709 42.6945C92.8573 42.7402 92.7546 42.8097 92.67 42.8983C92.4299 43.1248 92.4299 43.4601 92.4435 43.8044V43.8837C92.4435 44.2257 92.4435 44.5496 92.67 44.7898C92.8473 44.9601 93.0834 45.0552 93.3292 45.0552C93.575 45.0552 93.8112 44.9601 93.9884 44.7898C94.2285 44.5632 94.2263 44.2303 94.2263 43.8837V43.7998C94.2263 43.4601 94.2263 43.1362 93.9884 42.8938C93.9034 42.8058 93.8006 42.7372 93.687 42.6924C93.5733 42.6473 93.4513 42.6274 93.3292 42.6332ZM93.592 44.4454C93.5595 44.4832 93.5191 44.5136 93.4738 44.5345C93.4285 44.5553 93.3791 44.5659 93.3292 44.5659C93.2793 44.5659 93.23 44.5553 93.1847 44.5345C93.1393 44.5136 93.099 44.4832 93.0664 44.4454C93.0076 44.3684 92.9736 44.2892 92.9736 43.8339C92.9736 43.3786 93.0076 43.2947 93.0664 43.2177C93.0994 43.1805 93.1398 43.1509 93.1851 43.1305C93.2304 43.1101 93.2796 43.0995 93.3292 43.0995C93.3789 43.0995 93.428 43.1101 93.4733 43.1305C93.5186 43.1509 93.559 43.1805 93.592 43.2177C93.6509 43.2947 93.6848 43.374 93.6848 43.8339C93.6848 44.2937 93.6509 44.3662 93.592 44.4454Z" fill="#E3211B"/>
<path d="M95.6379 45.0178H97.2009V44.5421H96.1793V42.6416H95.6379V45.0178Z" fill="#E3211B"/>
<path d="M99.275 42.633C99.1526 42.6281 99.0305 42.6492 98.9169 42.6947C98.8033 42.7404 98.7006 42.8097 98.6157 42.8981C98.3892 43.1246 98.3892 43.4599 98.3892 43.8041V43.8835C98.3892 44.2255 98.3892 44.5494 98.6157 44.7895C98.7936 44.9594 99.0301 45.0541 99.2761 45.0541C99.5221 45.0541 99.7586 44.9594 99.9364 44.7895C100.163 44.563 100.163 44.2277 100.163 43.8835V43.8041C100.163 43.4621 100.163 43.1382 99.9364 42.8981C99.8512 42.8095 99.7482 42.7402 99.6341 42.6945C99.5201 42.6487 99.3977 42.6278 99.275 42.633ZM99.5377 44.4452C99.5054 44.483 99.4653 44.5134 99.4201 44.534C99.3749 44.5548 99.3258 44.5657 99.2761 44.5657C99.2264 44.5657 99.1772 44.5548 99.1321 44.534C99.0869 44.5134 99.0468 44.483 99.0145 44.4452C98.9556 44.3682 98.9193 44.2866 98.9193 43.8336C98.9193 43.3805 98.9556 43.2923 99.0145 43.2175C99.046 43.1794 99.0859 43.1488 99.1311 43.1285C99.1762 43.1081 99.2254 43.0981 99.275 43.0997C99.3248 43.0981 99.3743 43.1081 99.4198 43.1285C99.4653 43.1488 99.5057 43.1792 99.5377 43.2175C99.5966 43.2945 99.6328 43.3738 99.6328 43.8336C99.6328 44.2935 99.5966 44.3659 99.5377 44.4452Z" fill="#E3211B"/>
<path d="M102.771 43.3723H103.316C103.284 43.2051 103.206 43.0501 103.092 42.9238C102.978 42.7974 102.832 42.7045 102.669 42.6546C102.506 42.6048 102.333 42.6003 102.168 42.6413C102.002 42.6823 101.851 42.7672 101.731 42.8875C101.504 43.114 101.504 43.4493 101.504 43.7936V43.8729C101.504 44.215 101.504 44.5389 101.731 44.779C101.913 44.9493 102.154 45.0443 102.404 45.0443C102.653 45.0443 102.894 44.9493 103.076 44.779C103.248 44.6023 103.303 44.3893 103.303 43.9907V43.6758H102.397V44.1289H102.755V44.1923C102.759 44.2439 102.752 44.2963 102.734 44.3449C102.717 44.3939 102.688 44.4381 102.651 44.4748C102.614 44.5112 102.569 44.5393 102.52 44.5565C102.471 44.574 102.419 44.5803 102.367 44.5751C102.323 44.5701 102.281 44.5559 102.243 44.5337C102.205 44.5115 102.171 44.4815 102.145 44.446C102.089 44.3712 102.05 44.2874 102.05 43.8276C102.05 43.3678 102.089 43.2862 102.145 43.2114C102.177 43.1731 102.216 43.1428 102.261 43.1224C102.306 43.102 102.354 43.0921 102.404 43.0937C102.489 43.0848 102.574 43.1088 102.642 43.1605C102.71 43.2121 102.756 43.2878 102.771 43.3723Z" fill="#E3211B"/>
<path d="M105.276 42.6416H104.734V45.0178H105.276V42.6416Z" fill="#E3211B"/>
<path d="M108.348 44.6465C108.464 44.4053 108.51 44.1359 108.481 43.8695V43.7903C108.481 43.4482 108.481 43.1243 108.244 42.8842C108.066 42.7141 107.83 42.6189 107.584 42.6189C107.339 42.6189 107.102 42.7141 106.925 42.8842C106.699 43.1107 106.699 43.4459 106.699 43.7903V43.8695C106.699 44.2116 106.699 44.5355 106.925 44.7756C107.01 44.864 107.113 44.9333 107.226 44.9791C107.34 45.0246 107.462 45.0456 107.584 45.0406C107.742 45.0445 107.899 45.0071 108.037 44.9319H108.056L108.239 45.1154L108.504 44.8526L108.33 44.6782L108.348 44.6465ZM107.926 44.1934V44.2546L107.788 44.1142L107.523 44.3792L107.695 44.5514H107.643C107.625 44.5536 107.607 44.5536 107.589 44.5514C107.539 44.5523 107.49 44.5419 107.445 44.521C107.4 44.5004 107.36 44.4696 107.328 44.4313C107.27 44.3543 107.233 44.2728 107.233 43.8197C107.233 43.3667 107.27 43.2783 107.328 43.2036C107.36 43.1655 107.4 43.1352 107.445 43.1148C107.49 43.0944 107.539 43.0845 107.589 43.0858C107.639 43.0845 107.688 43.0942 107.734 43.1145C107.779 43.1349 107.82 43.1655 107.852 43.2036C107.908 43.2783 107.945 43.3622 107.945 43.8197C107.94 44.0055 107.933 44.121 107.926 44.1912V44.1934Z" fill="#E3211B"/>
<path d="M110.393 44.1807V42.6336H109.847V44.1852C109.881 44.3981 109.99 44.5921 110.154 44.7318C110.318 44.8718 110.526 44.9486 110.742 44.9486C110.958 44.9486 111.166 44.8718 111.33 44.7318C111.494 44.5921 111.603 44.3981 111.637 44.1852V42.6336H111.095V44.1717C111.101 44.2213 111.096 44.2713 111.08 44.3187C111.064 44.366 111.039 44.4093 111.005 44.4458C110.971 44.4822 110.929 44.5108 110.883 44.5296C110.837 44.5483 110.787 44.5567 110.737 44.5545C110.689 44.5554 110.642 44.5461 110.598 44.5273C110.553 44.5085 110.514 44.4804 110.481 44.4451C110.449 44.4098 110.424 44.3678 110.409 44.3223C110.394 44.2768 110.388 44.2285 110.393 44.1807Z" fill="#E3211B"/>
<path d="M114.531 43.5816H113.63V43.1173H114.685V42.6416H113.088V45.0178H114.685V44.5421H113.63V44.0574H114.531V43.5816Z" fill="#E3211B"/>
</g>
<defs>
<clipPath id="clip0_1_4">
<rect width="41" height="49.2" fill="white" transform="translate(80.1481)"/>
</clipPath>
</defs>
</svg>
