<svg preserveAspectRatio="none" overflow="visible" style="display: block;" width="24" height="24" viewBox="0 0 24 24" fill="none" xmlns="http://www.w3.org/2000/svg">
<g id="Ic&#195;&#180;nes des gestes">
<circle id="fond de couleur" cx="12" cy="12" r="12" fill="#009081"/>
<g id="tools-fill">
<path id="Vector" d="M7.55295 6.18101C8.37501 5.88876 9.3282 6.07162 9.98618 6.7296C10.6443 7.38777 10.8271 8.34131 10.5345 9.16353L17.7643 16.3934L16.3501 17.8076L9.11957 10.578C8.29751 10.8703 7.34433 10.6874 6.68635 10.0294C6.02818 9.37127 5.8454 8.41773 6.13801 7.59551L7.62915 9.08663C8.01968 9.47715 8.65285 9.47715 9.04337 9.08663C9.43389 8.6961 9.43389 8.06293 9.04337 7.67241L7.55295 6.18101ZM14.4645 7.43671L16.5859 6.25819L17.5287 7.20101L16.3501 9.32233L15.1716 9.55803L13.7574 10.9723L12.8146 10.0294L14.2288 8.61522L14.4645 7.43671ZM9.75048 12.6221L11.1647 14.0364L7.86486 17.3362C7.47433 17.7267 6.84117 17.7267 6.45065 17.3362C6.08309 16.9687 6.06147 16.3861 6.38578 15.9933L6.45065 15.922L9.75048 12.6221Z" fill="white"/>
</g>
</g>
</svg>
