<svg preserveAspectRatio="none" overflow="visible" style="display: block;" width="35" height="46.9231" viewBox="0 0 35 46.9231" fill="none" xmlns="http://www.w3.org/2000/svg">
<path id="Union (Stroke)" d="M32.6692 17.4996C32.6691 9.12215 25.8773 2.33075 17.4996 2.33075C9.25305 2.33089 2.54385 8.9116 2.33606 17.1081L2.33075 17.4996C2.33075 22.5149 4.76323 26.9614 8.52258 29.727L8.69556 29.8544L11.9815 33.3597C14.1963 35.7221 16.094 38.3532 17.6347 41.185C19.116 38.3626 20.9743 35.745 23.1657 33.4075L26.8583 29.4683L26.9645 29.3552L27.0844 29.2566C30.4965 26.471 32.6692 22.24 32.6692 17.4996ZM35 17.4996C35 22.9698 32.4894 27.8533 28.5586 31.0623L24.8659 35.0015C21.6583 38.4231 19.2134 42.4866 17.6923 46.9231C16.0422 42.4806 13.5225 38.4111 10.2813 34.9537L7.14173 31.6048C2.81111 28.4192 0 23.288 0 17.4996C0.000141748 7.83491 7.83491 0.000141757 17.4996 0C27.1645 0 34.9999 7.83482 35 17.4996Z" fill="#37635F"/>
</svg>
