<svg width="17" height="16" viewBox="0 0 17 16" fill="none" xmlns="http://www.w3.org/2000/svg">
<path d="M8.5 13.933L11.7998 10.6331C13.6223 8.81074 13.6223 5.85596 11.7998 4.03351C9.9774 2.21106 7.02261 2.21106 5.20017 4.03351C3.37772 5.85596 3.37772 8.81074 5.20017 10.6331L8.5 13.933ZM8.5 15.8186L4.25736 11.576C1.91421 9.23281 1.91421 5.43385 4.25736 3.0907C6.60051 0.747557 10.3995 0.747557 12.7427 3.0907C15.0858 5.43385 15.0858 9.23281 12.7427 11.576L8.5 15.8186ZM7.83333 6.66668V4.66668H9.16667V6.66668H11.1667V8.00001H9.16667V10H7.83333V8.00001H5.83333V6.66668H7.83333Z" fill="#000091"/>
</svg>
