<svg width="280" height="61" viewBox="0 0 280 61" fill="none" xmlns="http://www.w3.org/2000/svg">
<g clip-path="url(#clip0_66_1432)">
<path d="M24.6979 60.4688C11.0781 60.4688 0 49.5208 0 36.0625V0H254.948C268.563 0 279.641 10.9479 279.641 24.4062V60.4688" fill="white"/>
<path d="M242.083 52.9114H69.1353C59.6874 52.9114 51.9999 45.3541 51.9999 36.0625V7.55725H224.948C234.396 7.55725 242.083 15.1145 242.083 24.4062V52.9114ZM224.948 5.66663H50.1145V36.0625C50.1145 46.3958 58.6458 54.802 69.1353 54.802H243.969V24.4062C243.969 14.0729 235.437 5.66663 224.948 5.66663Z" fill="#010101"/>
<path d="M216.714 54.802L229.724 28.2239L216.432 5.66663H254.948C265.437 5.66663 273.969 14.0729 273.969 24.4062V54.802" fill="#010101"/>
<path d="M102.901 5.66663H50.1145V36.0625C50.1145 46.3958 58.6458 54.802 69.1353 54.802H121.927V24.4062C121.927 14.0729 113.391 5.66663 102.901 5.66663Z" fill="#010101"/>
<path d="M63.651 29.3594C58.8489 29.3594 54.9583 33.25 54.9583 38.0521C54.9583 42.8542 58.8489 46.7448 63.651 46.7448C68.4583 46.7448 72.3489 42.8542 72.3489 38.0521C72.3489 33.25 68.4583 29.3594 63.651 29.3594Z" fill="white"/>
<path d="M69.3229 39.4688H65.0729V43.7188H62.2344V39.4688H57.9844V36.6355H62.2344V32.3802H65.0729V36.6355H69.3229" fill="#1C1C1B"/>
<path d="M55.7864 26.5937V17.1979H58.2708V24.5156H61.828V26.5937" fill="white"/>
<path d="M62.9426 26.5937V17.1979H69.0155V19.276H65.4322V20.7552H68.4947V22.8385H65.4322V24.5156H69.1614V26.5937" fill="white"/>
<path d="M75.0885 26.5937V19.276H72.6041V17.1979H80.0677V19.276H77.5781V26.5937" fill="white"/>
<path d="M83.5521 21.4739H84.4479C85.4479 21.4739 85.9531 21.0625 85.9531 20.2343C85.9531 19.8281 85.8229 19.5468 85.5677 19.3958C85.3125 19.2395 84.9375 19.1614 84.4479 19.1614H83.5521V21.4739ZM81.0625 26.5989V17.1979H84.6198C85.125 17.1979 85.6042 17.2448 86.0625 17.3385C86.5208 17.4375 86.9167 17.5989 87.2604 17.8333C87.6042 18.0625 87.875 18.375 88.0781 18.7656C88.2813 19.1562 88.3802 19.6458 88.3802 20.2343C88.3802 20.9062 88.2448 21.4687 87.9688 21.9114C87.6979 22.3541 87.3281 22.6979 86.8646 22.9531L88.901 26.5989H86.125L84.5052 23.4427H83.5521V26.5989" fill="white"/>
<path d="M89.8698 26.5989H92.3593V17.1979H89.8698V26.5989Z" fill="white"/>
<path d="M75.3801 43.276V33.8698H81.5103V35.9531H77.8697V37.75H80.9895V39.8333H77.8697V43.276" fill="white"/>
<path d="M84.9218 38.7031L84.7604 39.3541H86.4948L86.3385 38.7031C86.2239 38.25 86.1041 37.7604 85.9895 37.2291C85.875 36.6979 85.7604 36.1979 85.6406 35.7239H85.5833C85.4791 36.2031 85.3698 36.7083 85.2604 37.2343C85.151 37.7604 85.0364 38.25 84.9218 38.7031ZM81.3073 43.276L84.1666 33.8698H87.1718L90.0364 43.276H87.4062L86.9427 41.276H84.3125L83.8489 43.276" fill="white"/>
<path d="M94.5624 43.4479C93.9687 43.4479 93.3958 43.3489 92.8541 43.151C92.3072 42.9531 91.8333 42.651 91.4218 42.2552C91.0103 41.8541 90.6822 41.3541 90.4426 40.75C90.203 40.1458 90.0833 39.4479 90.0833 38.6458C90.0833 37.8541 90.2083 37.151 90.4583 36.5416C90.7083 35.927 91.0416 35.4114 91.4635 34.9948C91.8801 34.5729 92.3645 34.25 92.9114 34.0312C93.4583 33.8073 94.026 33.6979 94.6249 33.6979C95.2499 33.6979 95.8124 33.8229 96.302 34.0677C96.7968 34.3125 97.2083 34.6041 97.5468 34.9427L96.2447 36.5312C96.0155 36.3333 95.776 36.1666 95.5312 36.0312C95.2812 35.9062 94.9999 35.8385 94.6822 35.8385C94.401 35.8385 94.1405 35.901 93.8958 36.026C93.651 36.151 93.4322 36.3333 93.2447 36.5625C93.0572 36.7916 92.9062 37.0781 92.7968 37.4166C92.6822 37.75 92.6301 38.1354 92.6301 38.5573C92.6301 39.4479 92.8124 40.125 93.1874 40.5989C93.5572 41.0677 94.0468 41.3073 94.651 41.3073C95.0208 41.3073 95.3437 41.2291 95.6301 41.0677C95.9114 40.9062 96.1562 40.7187 96.3593 40.4948L97.6614 42.0573C97.2551 42.5208 96.7916 42.8698 96.2655 43.0989C95.7395 43.3333 95.1718 43.4479 94.5624 43.4479Z" fill="white"/>
<path d="M98.6198 43.276H101.104V33.8698H98.6198V43.276Z" fill="white"/>
<path d="M102.875 43.276V33.8698H105.365V41.1927H108.922V43.276" fill="white"/>
<path d="M110.031 43.276V33.8698H116.109V35.9531H112.521V37.4323H115.589V39.5156H112.521V41.1927H116.255V43.276" fill="white"/>
<path d="M28.4062 25.7448C26.7135 28.2343 28.151 31.5104 29.8958 33.1718C31.4895 34.6823 32.7655 35.0364 32.9322 35.0781L33.7447 33.5208L36.0885 39.9323L29.4635 41.2812L30.3437 39.6458L29.4478 39.1458C26.6562 37.3281 26.0676 34.8593 25.8749 34.0885C25.5416 32.7604 25.0468 28.7864 28.4062 25.7448Z" fill="#010101"/>
<path d="M28.375 25.8489C29.5781 28.6093 33.1146 29.1406 35.4479 28.552C37.5208 28.026 38.5052 27.1718 38.6719 27.0156L38.6615 27L37.776 25.4635L44.4427 26.9218L42.0313 33.2395L41.1354 31.6458L40.2656 32.1198C37.2396 33.5104 34.8333 32.6927 34.0781 32.4427C32.7813 32.0156 29.1562 30.3125 28.375 25.8489Z" fill="#010101"/>
<path d="M40.1613 19.1927C39.6978 22.4895 37.7134 24.0729 37.0936 24.5729C36.0311 25.4375 32.6457 27.5677 28.4634 25.8177C31.4373 26.2916 33.7967 23.6041 34.5571 21.3177C35.2446 19.2656 35.0415 17.9687 34.9998 17.7708L34.979 17.7656L33.2134 17.6927L38.0259 12.8541L42.0519 18.2864L40.2342 18.1823" fill="#010101"/>
<path fill-rule="evenodd" clip-rule="evenodd" d="M19.9375 16.4115C18.4167 16.4115 17.1875 15.1823 17.1875 13.6563C17.1875 12.1354 18.4167 10.9062 19.9375 10.9062C21.4583 10.9062 22.6927 12.1354 22.6927 13.6563C22.6927 15.1823 21.4583 16.4115 19.9375 16.4115Z" fill="#010101"/>
<path d="M15.6771 29.7968C15.9115 29.151 16.2604 29.1927 16.2604 29.1927C16.2604 29.1927 16.5781 29.125 16.7552 29.7708L19.3281 38.8073C17.1823 38.1823 15.224 37.1198 13.5573 35.7083L15.6771 29.7968ZM23.7031 5.66663C13.7604 5.66663 5.67188 13.7552 5.67188 23.6979C5.67188 33.6406 13.7604 41.7291 23.7031 41.7291C24.2344 41.7291 24.7552 41.6979 25.276 41.651L25.3958 43.4635L28.6979 40.2708L25.0052 37.4531L25.1458 39.3541C24.6719 39.401 24.1875 39.4323 23.7031 39.4323C22.9375 39.4323 22.1875 39.375 21.4531 39.2656L21.3802 38.7864L19.6667 24.1875C19.4323 21.4323 21.0052 20.9948 21.9792 21.4062L27.4479 23.6041C28.0729 23.875 28.375 23.3489 28.375 23.3489C28.375 23.3489 28.7292 22.802 28.0938 22.3958C28.0938 22.3958 20.6406 17.4583 19.0521 17.1562C16.8854 16.7552 14.7396 18.5104 14.2656 20.7968L11.6198 33.7604C9.34375 31.0312 7.96875 27.5208 7.96875 23.6979C7.96875 15.0208 15.026 7.9635 23.7031 7.9635C28.3385 7.9635 32.5104 9.97913 35.3906 13.177L37.0052 11.5364C33.7083 7.93225 28.9635 5.66663 23.7031 5.66663Z" fill="#010101"/>
<path d="M132.55 17.27C132.55 16.75 132.487 16.3733 132.36 16.14C132.24 15.9 132.017 15.78 131.69 15.78C131.51 15.78 131.36 15.83 131.24 15.93C131.127 16.0233 131.037 16.18 130.97 16.4C130.903 16.6133 130.857 16.8967 130.83 17.25C130.803 17.5967 130.79 18.0233 130.79 18.53C130.79 19.07 130.807 19.5067 130.84 19.84C130.88 20.1733 130.937 20.4333 131.01 20.62C131.09 20.8 131.187 20.9233 131.3 20.99C131.42 21.05 131.557 21.08 131.71 21.08C131.837 21.08 131.953 21.06 132.06 21.02C132.173 20.9733 132.27 20.8867 132.35 20.76C132.43 20.6267 132.493 20.4433 132.54 20.21C132.587 19.97 132.61 19.6567 132.61 19.27H134.05C134.05 19.6567 134.02 20.0233 133.96 20.37C133.9 20.7167 133.787 21.02 133.62 21.28C133.46 21.54 133.23 21.7433 132.93 21.89C132.637 22.0367 132.253 22.11 131.78 22.11C131.24 22.11 130.81 22.0233 130.49 21.85C130.17 21.6767 129.923 21.4267 129.75 21.1C129.583 20.7733 129.473 20.3833 129.42 19.93C129.373 19.4767 129.35 18.9767 129.35 18.43C129.35 17.89 129.373 17.3933 129.42 16.94C129.473 16.48 129.583 16.0867 129.75 15.76C129.923 15.4333 130.17 15.18 130.49 15C130.81 14.8133 131.24 14.72 131.78 14.72C132.293 14.72 132.697 14.8033 132.99 14.97C133.29 15.1367 133.513 15.35 133.66 15.61C133.807 15.8633 133.897 16.14 133.93 16.44C133.97 16.7333 133.99 17.01 133.99 17.27H132.55ZM137.851 19.31L137.161 16.1H137.141L136.451 19.31H137.851ZM138.041 14.86L139.931 22H138.431L138.101 20.49H136.201L135.871 22H134.371L136.261 14.86H138.041ZM140.428 14.86H143.088C143.688 14.86 144.154 15.0133 144.488 15.32C144.821 15.62 144.988 16.08 144.988 16.7C144.988 17.18 144.891 17.5733 144.698 17.88C144.504 18.18 144.204 18.3733 143.798 18.46V18.48C144.158 18.5333 144.421 18.65 144.588 18.83C144.754 19.01 144.858 19.3 144.898 19.7C144.911 19.8333 144.921 19.98 144.928 20.14C144.934 20.2933 144.941 20.4667 144.948 20.66C144.961 21.04 144.981 21.33 145.008 21.53C145.048 21.73 145.134 21.8667 145.268 21.94V22H143.708C143.634 21.9 143.588 21.7867 143.568 21.66C143.548 21.5267 143.534 21.39 143.528 21.25L143.488 19.88C143.474 19.6 143.404 19.38 143.278 19.22C143.151 19.06 142.938 18.98 142.638 18.98H141.868V22H140.428V14.86ZM141.868 17.98H142.468C142.814 17.98 143.081 17.9 143.268 17.74C143.454 17.5733 143.548 17.2967 143.548 16.91C143.548 16.25 143.214 15.92 142.548 15.92H141.868V17.98ZM149.989 14.86V16.04H148.429V22H146.989V16.04H145.429V14.86H149.989ZM151.903 18.43C151.903 18.91 151.913 19.32 151.933 19.66C151.96 19.9933 152.007 20.2667 152.073 20.48C152.147 20.6867 152.247 20.84 152.373 20.94C152.507 21.0333 152.68 21.08 152.893 21.08C153.107 21.08 153.277 21.0333 153.403 20.94C153.537 20.84 153.637 20.6867 153.703 20.48C153.777 20.2667 153.823 19.9933 153.843 19.66C153.87 19.32 153.883 18.91 153.883 18.43C153.883 17.95 153.87 17.5433 153.843 17.21C153.823 16.8767 153.777 16.6033 153.703 16.39C153.637 16.1767 153.537 16.0233 153.403 15.93C153.277 15.83 153.107 15.78 152.893 15.78C152.68 15.78 152.507 15.83 152.373 15.93C152.247 16.0233 152.147 16.1767 152.073 16.39C152.007 16.6033 151.96 16.8767 151.933 17.21C151.913 17.5433 151.903 17.95 151.903 18.43ZM150.463 18.43C150.463 17.89 150.487 17.3933 150.533 16.94C150.587 16.48 150.697 16.0867 150.863 15.76C151.037 15.4333 151.283 15.18 151.603 15C151.923 14.8133 152.353 14.72 152.893 14.72C153.433 14.72 153.863 14.8133 154.183 15C154.503 15.18 154.747 15.4333 154.913 15.76C155.087 16.0867 155.197 16.48 155.243 16.94C155.297 17.3933 155.323 17.89 155.323 18.43C155.323 18.9767 155.297 19.4767 155.243 19.93C155.197 20.3833 155.087 20.7733 154.913 21.1C154.747 21.4267 154.503 21.6767 154.183 21.85C153.863 22.0233 153.433 22.11 152.893 22.11C152.353 22.11 151.923 22.0233 151.603 21.85C151.283 21.6767 151.037 21.4267 150.863 21.1C150.697 20.7733 150.587 20.3833 150.533 19.93C150.487 19.4767 150.463 18.9767 150.463 18.43ZM157.52 14.86V19.84C157.52 20.02 157.53 20.1867 157.55 20.34C157.577 20.4867 157.62 20.6167 157.68 20.73C157.747 20.8367 157.833 20.9233 157.94 20.99C158.053 21.05 158.193 21.08 158.36 21.08C158.533 21.08 158.673 21.05 158.78 20.99C158.887 20.9233 158.97 20.8367 159.03 20.73C159.097 20.6167 159.14 20.4867 159.16 20.34C159.187 20.1867 159.2 20.02 159.2 19.84V14.86H160.64V19.84C160.64 20.2933 160.577 20.67 160.45 20.97C160.323 21.2633 160.153 21.4967 159.94 21.67C159.727 21.8433 159.483 21.96 159.21 22.02C158.937 22.08 158.653 22.11 158.36 22.11C158.067 22.11 157.783 22.0833 157.51 22.03C157.237 21.9767 156.993 21.87 156.78 21.71C156.567 21.5433 156.397 21.31 156.27 21.01C156.143 20.71 156.08 20.32 156.08 19.84V14.86H157.52ZM164.601 17.27C164.601 16.75 164.537 16.3733 164.411 16.14C164.291 15.9 164.067 15.78 163.741 15.78C163.561 15.78 163.411 15.83 163.291 15.93C163.177 16.0233 163.087 16.18 163.021 16.4C162.954 16.6133 162.907 16.8967 162.881 17.25C162.854 17.5967 162.841 18.0233 162.841 18.53C162.841 19.07 162.857 19.5067 162.891 19.84C162.931 20.1733 162.987 20.4333 163.061 20.62C163.141 20.8 163.237 20.9233 163.351 20.99C163.471 21.05 163.607 21.08 163.761 21.08C163.887 21.08 164.004 21.06 164.111 21.02C164.224 20.9733 164.321 20.8867 164.401 20.76C164.481 20.6267 164.544 20.4433 164.591 20.21C164.637 19.97 164.661 19.6567 164.661 19.27H166.101C166.101 19.6567 166.071 20.0233 166.011 20.37C165.951 20.7167 165.837 21.02 165.671 21.28C165.511 21.54 165.281 21.7433 164.981 21.89C164.687 22.0367 164.304 22.11 163.831 22.11C163.291 22.11 162.861 22.0233 162.541 21.85C162.221 21.6767 161.974 21.4267 161.801 21.1C161.634 20.7733 161.524 20.3833 161.471 19.93C161.424 19.4767 161.401 18.9767 161.401 18.43C161.401 17.89 161.424 17.3933 161.471 16.94C161.524 16.48 161.634 16.0867 161.801 15.76C161.974 15.4333 162.221 15.18 162.541 15C162.861 14.8133 163.291 14.72 163.831 14.72C164.344 14.72 164.747 14.8033 165.041 14.97C165.341 15.1367 165.564 15.35 165.711 15.61C165.857 15.8633 165.947 16.14 165.981 16.44C166.021 16.7333 166.041 17.01 166.041 17.27H164.601ZM166.922 14.86H168.362V17.59H170.042V14.86H171.482V22H170.042V18.83H168.362V22H166.922V14.86ZM176.469 14.86V16.04H173.919V17.72H176.319V18.9H173.919V20.82H176.569V22H172.479V14.86H176.469ZM181.205 20.94H181.845C182.099 20.94 182.302 20.8967 182.455 20.81C182.609 20.7233 182.729 20.58 182.815 20.38C182.909 20.18 182.969 19.9167 182.995 19.59C183.029 19.2633 183.045 18.8567 183.045 18.37C183.045 17.9633 183.032 17.6067 183.005 17.3C182.979 16.9933 182.922 16.74 182.835 16.54C182.755 16.3333 182.632 16.18 182.465 16.08C182.305 15.9733 182.089 15.92 181.815 15.92H181.205V20.94ZM179.765 14.86H182.125C182.625 14.86 183.029 14.9433 183.335 15.11C183.642 15.27 183.879 15.5033 184.045 15.81C184.219 16.11 184.335 16.4733 184.395 16.9C184.455 17.3267 184.485 17.8033 184.485 18.33C184.485 18.9567 184.445 19.5033 184.365 19.97C184.292 20.43 184.162 20.81 183.975 21.11C183.789 21.41 183.539 21.6333 183.225 21.78C182.912 21.9267 182.515 22 182.035 22H179.765V14.86ZM189.428 14.86V16.04H186.878V17.72H189.278V18.9H186.878V20.82H189.528V22H185.438V14.86H189.428ZM132.67 28.98C132.67 28.8467 132.653 28.71 132.62 28.57C132.593 28.43 132.547 28.3033 132.48 28.19C132.413 28.07 132.327 27.9733 132.22 27.9C132.12 27.82 131.997 27.78 131.85 27.78C131.503 27.78 131.253 27.9733 131.1 28.36C130.947 28.7467 130.87 29.3867 130.87 30.28C130.87 30.7067 130.883 31.0933 130.91 31.44C130.937 31.7867 130.983 32.0833 131.05 32.33C131.123 32.57 131.223 32.7567 131.35 32.89C131.483 33.0167 131.653 33.08 131.86 33.08C131.947 33.08 132.04 33.0567 132.14 33.01C132.247 32.9633 132.343 32.8933 132.43 32.8C132.523 32.7067 132.6 32.59 132.66 32.45C132.72 32.3033 132.75 32.1333 132.75 31.94V31.21H131.8V30.15H134.13V34H133.07V33.34H133.05C132.877 33.62 132.667 33.82 132.42 33.94C132.18 34.0533 131.89 34.11 131.55 34.11C131.11 34.11 130.75 34.0333 130.47 33.88C130.197 33.7267 129.98 33.49 129.82 33.17C129.667 32.85 129.563 32.4567 129.51 31.99C129.457 31.5167 129.43 30.97 129.43 30.35C129.43 29.75 129.467 29.2233 129.54 28.77C129.62 28.3167 129.753 27.94 129.94 27.64C130.127 27.3333 130.373 27.1033 130.68 26.95C130.987 26.7967 131.37 26.72 131.83 26.72C132.617 26.72 133.183 26.9167 133.53 27.31C133.877 27.6967 134.05 28.2533 134.05 28.98H132.67ZM138.037 31.31L137.347 28.1H137.327L136.637 31.31H138.037ZM138.227 26.86L140.117 34H138.617L138.287 32.49H136.387L136.057 34H134.557L136.447 26.86H138.227ZM140.353 32.95L142.983 28.04H140.533V26.86H144.643V27.95L141.973 32.82H144.683V34H140.353V32.95ZM148.529 26.86L149.539 32.14H149.569L150.629 26.86H152.119L150.479 34H148.629L146.989 26.86H148.529ZM152.715 34V26.86H154.155V34H152.715ZM156.733 32.94H157.373C157.626 32.94 157.829 32.8967 157.983 32.81C158.136 32.7233 158.256 32.58 158.343 32.38C158.436 32.18 158.496 31.9167 158.523 31.59C158.556 31.2633 158.573 30.8567 158.573 30.37C158.573 29.9633 158.559 29.6067 158.533 29.3C158.506 28.9933 158.449 28.74 158.363 28.54C158.283 28.3333 158.159 28.18 157.993 28.08C157.833 27.9733 157.616 27.92 157.343 27.92H156.733V32.94ZM155.293 26.86H157.653C158.153 26.86 158.556 26.9433 158.863 27.11C159.169 27.27 159.406 27.5033 159.573 27.81C159.746 28.11 159.863 28.4733 159.923 28.9C159.983 29.3267 160.013 29.8033 160.013 30.33C160.013 30.9567 159.973 31.5033 159.893 31.97C159.819 32.43 159.689 32.81 159.503 33.11C159.316 33.41 159.066 33.6333 158.753 33.78C158.439 33.9267 158.043 34 157.563 34H155.293V26.86ZM164.955 26.86V28.04H162.405V29.72H164.805V30.9H162.405V32.82H165.055V34H160.965V26.86H164.955ZM131.96 38.86C131.753 39.24 131.577 39.61 131.43 39.97C131.283 40.3233 131.163 40.68 131.07 41.04C130.983 41.4 130.92 41.77 130.88 42.15C130.84 42.5233 130.82 42.9233 130.82 43.35C130.82 43.7767 130.84 44.18 130.88 44.56C130.92 44.9333 130.983 45.2967 131.07 45.65C131.163 45.9967 131.283 46.3467 131.43 46.7C131.577 47.06 131.753 47.43 131.96 47.81H130.9C130.4 47.0233 130.04 46.26 129.82 45.52C129.607 44.78 129.5 44.0567 129.5 43.35C129.5 42.6433 129.607 41.9167 129.82 41.17C130.04 40.4167 130.4 39.6467 130.9 38.86H131.96ZM134.119 38.86L135.859 43.75H135.879V38.86H137.199V46H135.559L133.799 41H133.779V46H132.459V38.86H134.119ZM139.491 42.43C139.491 42.91 139.501 43.32 139.521 43.66C139.548 43.9933 139.595 44.2667 139.661 44.48C139.735 44.6867 139.835 44.84 139.961 44.94C140.095 45.0333 140.268 45.08 140.481 45.08C140.695 45.08 140.865 45.0333 140.991 44.94C141.125 44.84 141.225 44.6867 141.291 44.48C141.365 44.2667 141.411 43.9933 141.431 43.66C141.458 43.32 141.471 42.91 141.471 42.43C141.471 41.95 141.458 41.5433 141.431 41.21C141.411 40.8767 141.365 40.6033 141.291 40.39C141.225 40.1767 141.125 40.0233 140.991 39.93C140.865 39.83 140.695 39.78 140.481 39.78C140.268 39.78 140.095 39.83 139.961 39.93C139.835 40.0233 139.735 40.1767 139.661 40.39C139.595 40.6033 139.548 40.8767 139.521 41.21C139.501 41.5433 139.491 41.95 139.491 42.43ZM138.051 42.43C138.051 41.89 138.075 41.3933 138.121 40.94C138.175 40.48 138.285 40.0867 138.451 39.76C138.625 39.4333 138.871 39.18 139.191 39C139.511 38.8133 139.941 38.72 140.481 38.72C141.021 38.72 141.451 38.8133 141.771 39C142.091 39.18 142.335 39.4333 142.501 39.76C142.675 40.0867 142.785 40.48 142.831 40.94C142.885 41.3933 142.911 41.89 142.911 42.43C142.911 42.9767 142.885 43.4767 142.831 43.93C142.785 44.3833 142.675 44.7733 142.501 45.1C142.335 45.4267 142.091 45.6767 141.771 45.85C141.451 46.0233 141.021 46.11 140.481 46.11C139.941 46.11 139.511 46.0233 139.191 45.85C138.871 45.6767 138.625 45.4267 138.451 45.1C138.285 44.7733 138.175 44.3833 138.121 43.93C138.075 43.4767 138.051 42.9767 138.051 42.43ZM145.418 38.86L147.158 43.75H147.178V38.86H148.498V46H146.858L145.098 41H145.078V46H143.758V38.86H145.418ZM151.902 38.86H154.562C155.162 38.86 155.629 39.0133 155.962 39.32C156.296 39.62 156.462 40.08 156.462 40.7C156.462 41.18 156.366 41.5733 156.172 41.88C155.979 42.18 155.679 42.3733 155.272 42.46V42.48C155.632 42.5333 155.896 42.65 156.062 42.83C156.229 43.01 156.332 43.3 156.372 43.7C156.386 43.8333 156.396 43.98 156.402 44.14C156.409 44.2933 156.416 44.4667 156.422 44.66C156.436 45.04 156.456 45.33 156.482 45.53C156.522 45.73 156.609 45.8667 156.742 45.94V46H155.182C155.109 45.9 155.062 45.7867 155.042 45.66C155.022 45.5267 155.009 45.39 155.002 45.25L154.962 43.88C154.949 43.6 154.879 43.38 154.752 43.22C154.626 43.06 154.412 42.98 154.112 42.98H153.342V46H151.902V38.86ZM153.342 41.98H153.942C154.289 41.98 154.556 41.9 154.742 41.74C154.929 41.5733 155.022 41.2967 155.022 40.91C155.022 40.25 154.689 39.92 154.022 39.92H153.342V41.98ZM161.449 38.86V40.04H158.899V41.72H161.299V42.9H158.899V44.82H161.549V46H157.459V38.86H161.449ZM165.323 41.27C165.323 40.75 165.26 40.3733 165.133 40.14C165.013 39.9 164.79 39.78 164.463 39.78C164.283 39.78 164.133 39.83 164.013 39.93C163.9 40.0233 163.81 40.18 163.743 40.4C163.677 40.6133 163.63 40.8967 163.603 41.25C163.577 41.5967 163.563 42.0233 163.563 42.53C163.563 43.07 163.58 43.5067 163.613 43.84C163.653 44.1733 163.71 44.4333 163.783 44.62C163.863 44.8 163.96 44.9233 164.073 44.99C164.193 45.05 164.33 45.08 164.483 45.08C164.61 45.08 164.727 45.06 164.833 45.02C164.947 44.9733 165.043 44.8867 165.123 44.76C165.203 44.6267 165.267 44.4433 165.313 44.21C165.36 43.97 165.383 43.6567 165.383 43.27H166.823C166.823 43.6567 166.793 44.0233 166.733 44.37C166.673 44.7167 166.56 45.02 166.393 45.28C166.233 45.54 166.003 45.7433 165.703 45.89C165.41 46.0367 165.027 46.11 164.553 46.11C164.013 46.11 163.583 46.0233 163.263 45.85C162.943 45.6767 162.697 45.4267 162.523 45.1C162.357 44.7733 162.247 44.3833 162.193 43.93C162.147 43.4767 162.123 42.9767 162.123 42.43C162.123 41.89 162.147 41.3933 162.193 40.94C162.247 40.48 162.357 40.0867 162.523 39.76C162.697 39.4333 162.943 39.18 163.263 39C163.583 38.8133 164.013 38.72 164.553 38.72C165.067 38.72 165.47 38.8033 165.763 38.97C166.063 39.1367 166.287 39.35 166.433 39.61C166.58 39.8633 166.67 40.14 166.703 40.44C166.743 40.7333 166.763 41.01 166.763 41.27H165.323ZM167.645 38.86H169.085V41.59H170.765V38.86H172.205V46H170.765V42.83H169.085V46H167.645V38.86ZM176.181 43.31L175.491 40.1H175.471L174.781 43.31H176.181ZM176.371 38.86L178.261 46H176.761L176.431 44.49H174.531L174.201 46H172.701L174.591 38.86H176.371ZM178.758 38.86H181.418C182.018 38.86 182.484 39.0133 182.818 39.32C183.151 39.62 183.318 40.08 183.318 40.7C183.318 41.18 183.221 41.5733 183.028 41.88C182.834 42.18 182.534 42.3733 182.128 42.46V42.48C182.488 42.5333 182.751 42.65 182.918 42.83C183.084 43.01 183.188 43.3 183.228 43.7C183.241 43.8333 183.251 43.98 183.258 44.14C183.264 44.2933 183.271 44.4667 183.278 44.66C183.291 45.04 183.311 45.33 183.338 45.53C183.378 45.73 183.464 45.8667 183.598 45.94V46H182.038C181.964 45.9 181.918 45.7867 181.898 45.66C181.878 45.5267 181.864 45.39 181.858 45.25L181.818 43.88C181.804 43.6 181.734 43.38 181.608 43.22C181.481 43.06 181.268 42.98 180.968 42.98H180.198V46H178.758V38.86ZM180.198 41.98H180.798C181.144 41.98 181.411 41.9 181.598 41.74C181.784 41.5733 181.878 41.2967 181.878 40.91C181.878 40.25 181.544 39.92 180.878 39.92H180.198V41.98ZM187.484 40.98C187.484 40.8467 187.468 40.71 187.434 40.57C187.408 40.43 187.361 40.3033 187.294 40.19C187.228 40.07 187.141 39.9733 187.034 39.9C186.934 39.82 186.811 39.78 186.664 39.78C186.318 39.78 186.068 39.9733 185.914 40.36C185.761 40.7467 185.684 41.3867 185.684 42.28C185.684 42.7067 185.698 43.0933 185.724 43.44C185.751 43.7867 185.798 44.0833 185.864 44.33C185.938 44.57 186.038 44.7567 186.164 44.89C186.298 45.0167 186.468 45.08 186.674 45.08C186.761 45.08 186.854 45.0567 186.954 45.01C187.061 44.9633 187.158 44.8933 187.244 44.8C187.338 44.7067 187.414 44.59 187.474 44.45C187.534 44.3033 187.564 44.1333 187.564 43.94V43.21H186.614V42.15H188.944V46H187.884V45.34H187.864C187.691 45.62 187.481 45.82 187.234 45.94C186.994 46.0533 186.704 46.11 186.364 46.11C185.924 46.11 185.564 46.0333 185.284 45.88C185.011 45.7267 184.794 45.49 184.634 45.17C184.481 44.85 184.378 44.4567 184.324 43.99C184.271 43.5167 184.244 42.97 184.244 42.35C184.244 41.75 184.281 41.2233 184.354 40.77C184.434 40.3167 184.568 39.94 184.754 39.64C184.941 39.3333 185.188 39.1033 185.494 38.95C185.801 38.7967 186.184 38.72 186.644 38.72C187.431 38.72 187.998 38.9167 188.344 39.31C188.691 39.6967 188.864 40.2533 188.864 40.98H187.484ZM193.861 38.86V40.04H191.311V41.72H193.711V42.9H191.311V44.82H193.961V46H189.871V38.86H193.861ZM197.666 43.31L196.976 40.1H196.956L196.266 43.31H197.666ZM197.856 38.86L199.746 46H198.246L197.916 44.49H196.016L195.686 46H194.186L196.076 38.86H197.856ZM201.682 44.94H202.242C202.589 44.94 202.869 44.8633 203.082 44.71C203.296 44.5567 203.402 44.2733 203.402 43.86C203.402 43.6533 203.372 43.4833 203.312 43.35C203.259 43.21 203.182 43.1 203.082 43.02C202.989 42.9333 202.876 42.8733 202.742 42.84C202.609 42.8067 202.462 42.79 202.302 42.79H201.682V44.94ZM201.682 41.79H202.092C202.492 41.79 202.782 41.72 202.962 41.58C203.149 41.4333 203.242 41.19 203.242 40.85C203.242 40.51 203.159 40.27 202.992 40.13C202.826 39.99 202.562 39.92 202.202 39.92H201.682V41.79ZM200.242 38.86H202.652C202.946 38.86 203.216 38.89 203.462 38.95C203.716 39.01 203.932 39.11 204.112 39.25C204.292 39.39 204.432 39.5767 204.532 39.81C204.632 40.0433 204.682 40.33 204.682 40.67C204.682 41.0567 204.592 41.39 204.412 41.67C204.232 41.9433 203.962 42.13 203.602 42.23V42.25C204.002 42.3033 204.319 42.4733 204.552 42.76C204.786 43.0467 204.902 43.43 204.902 43.91C204.902 44.19 204.866 44.4567 204.792 44.71C204.719 44.9633 204.592 45.1867 204.412 45.38C204.239 45.5667 204.009 45.7167 203.722 45.83C203.442 45.9433 203.092 46 202.672 46H200.242V38.86ZM205.799 46V38.86H207.239V44.82H209.789V46H205.799ZM214.418 38.86V40.04H211.868V41.72H214.268V42.9H211.868V44.82H214.518V46H210.428V38.86H214.418ZM215.802 38.86C216.302 39.6467 216.659 40.4167 216.872 41.17C217.092 41.9167 217.202 42.6433 217.202 43.35C217.202 44.0567 217.092 44.78 216.872 45.52C216.659 46.26 216.302 47.0233 215.802 47.81H214.742C214.949 47.43 215.126 47.06 215.272 46.7C215.419 46.3467 215.536 45.9967 215.622 45.65C215.716 45.2967 215.782 44.9333 215.822 44.56C215.862 44.18 215.882 43.7767 215.882 43.35C215.882 42.9233 215.862 42.5233 215.822 42.15C215.782 41.77 215.716 41.4 215.622 41.04C215.536 40.68 215.419 40.3233 215.272 39.97C215.126 39.61 214.949 39.24 214.742 38.86H215.802Z" fill="black"/>
<path d="M259.158 15.2235H239.834C239.498 15.2235 239.23 14.9482 239.23 14.6118C239.23 14.2753 239.498 14 239.834 14H259.158C259.495 14 259.762 14.2753 259.762 14.6118C259.762 14.9482 259.495 15.2235 259.158 15.2235Z" fill="white"/>
<path d="M262.393 22.7329H236.63C236.408 22.7329 236.194 22.6182 236.087 22.427C235.98 22.2358 235.965 21.9988 236.08 21.8076L240.538 14.4359C240.706 14.1453 241.088 14.0612 241.371 14.2294C241.654 14.4053 241.754 14.78 241.578 15.0629L237.685 21.517H261.315L257.422 15.0629C257.247 14.78 257.338 14.4053 257.629 14.2294C257.904 14.0612 258.287 14.1453 258.462 14.4359L262.913 21.8076C263.028 21.9988 263.028 22.2358 262.921 22.427C262.814 22.6182 262.607 22.7329 262.393 22.7329Z" fill="white"/>
<path d="M239.2 25.3404C237.433 25.3404 236.003 23.9105 236.003 22.1516C236.003 21.8075 236.278 21.5322 236.623 21.5322C236.959 21.5322 237.234 21.8075 237.234 22.1516C237.234 23.2299 238.114 24.1093 239.2 24.1093C240.27 24.1093 241.157 23.2299 241.157 22.1516C241.157 21.8075 241.433 21.5322 241.769 21.5322C242.106 21.5322 242.381 21.8075 242.381 22.1516C242.381 23.9105 240.951 25.3404 239.2 25.3404Z" fill="white"/>
<path d="M244.346 25.3404C242.587 25.3404 241.15 23.9105 241.15 22.1516C241.15 21.8075 241.432 21.5322 241.769 21.5322C242.105 21.5322 242.381 21.8075 242.381 22.1516C242.381 23.2299 243.26 24.1093 244.346 24.1093C245.424 24.1093 246.304 23.2299 246.304 22.1516C246.304 21.8075 246.579 21.5322 246.923 21.5322C247.26 21.5322 247.535 21.8075 247.535 22.1516C247.535 23.9105 246.105 25.3404 244.346 25.3404Z" fill="white"/>
<path d="M249.5 25.3404C247.741 25.3404 246.304 23.9105 246.304 22.1516C246.304 21.8075 246.579 21.5322 246.923 21.5322C247.26 21.5322 247.535 21.8075 247.535 22.1516C247.535 23.2299 248.414 24.1093 249.5 24.1093C250.578 24.1093 251.458 23.2299 251.458 22.1516C251.458 21.8075 251.733 21.5322 252.07 21.5322C252.414 21.5322 252.689 21.8075 252.689 22.1516C252.689 23.9105 251.259 25.3404 249.5 25.3404Z" fill="white"/>
<path d="M254.646 25.3404C252.888 25.3404 251.458 23.9105 251.458 22.1516C251.458 21.8075 251.733 21.5322 252.069 21.5322C252.413 21.5322 252.689 21.8075 252.689 22.1516C252.689 23.2299 253.568 24.1093 254.646 24.1093C255.732 24.1093 256.612 23.2299 256.612 22.1516C256.612 21.8075 256.887 21.5322 257.223 21.5322C257.56 21.5322 257.835 21.8075 257.835 22.1516C257.835 23.9105 256.405 25.3404 254.646 25.3404Z" fill="white"/>
<path d="M259.801 25.3404C258.042 25.3404 256.612 23.9105 256.612 22.1516C256.612 21.8075 256.887 21.5322 257.224 21.5322C257.56 21.5322 257.835 21.8075 257.835 22.1516C257.835 23.2299 258.715 24.1093 259.801 24.1093C260.879 24.1093 261.758 23.2299 261.758 22.1516C261.758 21.8075 262.034 21.5322 262.378 21.5322C262.714 21.5322 262.989 21.8075 262.989 22.1516C262.989 23.9105 261.559 25.3404 259.801 25.3404Z" fill="white"/>
<path d="M259.969 38.83H239.024C238.687 38.83 238.412 38.5547 238.412 38.2182V24.7288C238.412 24.3847 238.687 24.1094 239.024 24.1094C239.368 24.1094 239.643 24.3847 239.643 24.7288V37.6064H259.357V24.7441C259.357 24.4077 259.633 24.1324 259.969 24.1324C260.305 24.1324 260.588 24.4077 260.588 24.7441V38.2182C260.588 38.5547 260.305 38.83 259.969 38.83Z" fill="white"/>
<path d="M247.497 38.6999C247.16 38.6999 246.877 38.4246 246.877 38.0881V23.75C246.877 23.4058 247.16 23.1306 247.497 23.1306C247.833 23.1306 248.108 23.4058 248.108 23.75V38.0881C248.108 38.4246 247.833 38.6999 247.497 38.6999Z" fill="white"/>
<path d="M245.248 32.5976C244.912 32.5976 244.637 32.3223 244.637 31.9782V27.4894C244.637 27.1529 244.912 26.8776 245.248 26.8776C245.585 26.8776 245.868 27.1529 245.868 27.4894V31.9782C245.868 32.3223 245.585 32.5976 245.248 32.5976Z" fill="white"/>
<path d="M252.482 31.8481C252.329 31.8481 252.169 31.7869 252.054 31.6646C251.809 31.4275 251.809 31.0375 252.054 30.8005L256.038 26.8087C256.283 26.564 256.673 26.564 256.91 26.8087C257.147 27.0458 257.147 27.4358 256.91 27.6728L252.918 31.6646C252.796 31.7869 252.643 31.8481 252.482 31.8481Z" fill="white"/>
<path d="M254.234 33.8439C254.073 33.8439 253.912 33.7828 253.798 33.6604C253.553 33.4234 253.553 33.0334 253.798 32.7963L256.168 30.4257C256.405 30.181 256.795 30.181 257.032 30.4257C257.277 30.6628 257.277 31.0528 257.032 31.2898L254.669 33.6604C254.547 33.7828 254.386 33.8439 254.234 33.8439Z" fill="white"/>
<path d="M236.41 43H237.98L238.68 48.01H238.7L239.4 43H240.97V50H239.93V44.7H239.91L239.11 50H238.19L237.39 44.7H237.37V50H236.41V43ZM242.641 43H244.131L245.271 50H244.171L243.971 48.61V48.63H242.721L242.521 50H241.501L242.641 43ZM243.841 47.68L243.351 44.22H243.331L242.851 47.68H243.841ZM247.345 50.1C246.812 50.1 246.405 49.95 246.125 49.65C245.845 49.3433 245.705 48.9067 245.705 48.34V44.66C245.705 44.0933 245.845 43.66 246.125 43.36C246.405 43.0533 246.812 42.9 247.345 42.9C247.878 42.9 248.285 43.0533 248.565 43.36C248.845 43.66 248.985 44.0933 248.985 44.66V45.26H247.945V44.59C247.945 44.13 247.755 43.9 247.375 43.9C246.995 43.9 246.805 44.13 246.805 44.59V48.42C246.805 48.8733 246.995 49.1 247.375 49.1C247.755 49.1 247.945 48.8733 247.945 48.42V47.05H247.395V46.05H248.985V48.34C248.985 48.9067 248.845 49.3433 248.565 49.65C248.285 49.95 247.878 50.1 247.345 50.1ZM250.541 43H252.031L253.171 50H252.071L251.871 48.61V48.63H250.621L250.421 50H249.401L250.541 43ZM251.741 47.68L251.251 44.22H251.231L250.751 47.68H251.741ZM255.106 50.1C254.572 50.1 254.169 49.95 253.896 49.65C253.622 49.3433 253.486 48.9067 253.486 48.34V47.94H254.526V48.42C254.526 48.8733 254.716 49.1 255.096 49.1C255.282 49.1 255.422 49.0467 255.516 48.94C255.616 48.8267 255.666 48.6467 255.666 48.4C255.666 48.1067 255.599 47.85 255.466 47.63C255.332 47.4033 255.086 47.1333 254.726 46.82C254.272 46.42 253.956 46.06 253.776 45.74C253.596 45.4133 253.506 45.0467 253.506 44.64C253.506 44.0867 253.646 43.66 253.926 43.36C254.206 43.0533 254.612 42.9 255.146 42.9C255.672 42.9 256.069 43.0533 256.336 43.36C256.609 43.66 256.746 44.0933 256.746 44.66V44.95H255.706V44.59C255.706 44.35 255.659 44.1767 255.566 44.07C255.472 43.9567 255.336 43.9 255.156 43.9C254.789 43.9 254.606 44.1233 254.606 44.57C254.606 44.8233 254.672 45.06 254.806 45.28C254.946 45.5 255.196 45.7667 255.556 46.08C256.016 46.48 256.332 46.8433 256.506 47.17C256.679 47.4967 256.766 47.88 256.766 48.32C256.766 48.8933 256.622 49.3333 256.336 49.64C256.056 49.9467 255.646 50.1 255.106 50.1ZM257.396 43H258.496V50H257.396V43ZM259.32 43H260.7L261.77 47.19H261.79V43H262.77V50H261.64L260.32 44.89H260.3V50H259.32V43Z" fill="white"/>
</g>
<defs>
<clipPath id="clip0_66_1432">
<rect width="280" height="61" fill="white"/>
</clipPath>
</defs>
</svg>
