<svg width="325" height="72" viewBox="0 0 325 72" fill="none" xmlns="http://www.w3.org/2000/svg">
<g clip-path="url(#clip0_128_95)">
<path d="M24.6927 71.8125C11.0729 71.8125 0 60.8594 0 47.401V0L299.432 0.00520833C313.047 0.00520833 324.125 10.9531 324.125 24.4115V71.8177" fill="white"/>
<path d="M24.6927 60.474C11.0729 60.474 0 49.5208 0 36.0625V0L299.432 0.00520833C313.047 0.00520833 324.125 10.9531 324.125 24.4115V60.4792" fill="white"/>
<path d="M299.432 5.67188H50.1094V36.0677C50.1094 46.3958 58.6458 54.8021 69.1302 54.8021H318.458V24.4063C318.458 14.0781 309.922 5.67188 299.432 5.67188Z" fill="white"/>
<path d="M316.563 52.9115H69.1302C59.6875 52.9115 52 45.3542 52 36.0625V7.55731H299.432C308.88 7.55731 316.563 15.1146 316.563 24.4063V52.9115ZM299.432 5.66669H50.1094V36.0625C50.1094 46.3959 58.6458 54.8021 69.1302 54.8021H318.453V24.4063C318.453 14.0729 309.922 5.66669 299.432 5.66669Z" fill="#1C1C1B"/>
<path d="M230.518 25.6699V32.3366H231.872V29.4408H234.101V28.3366H231.872V26.7741H234.247V25.6699H230.518Z" fill="#1C1C1B"/>
<path d="M234.839 32.3366H238.568V31.2324H236.193V25.6699H234.839V32.3366Z" fill="#1C1C1B"/>
<path d="M241.952 29.8158L241.306 26.8366H241.285L240.64 29.8158H241.952ZM242.119 25.6699L243.89 32.3366H242.494L242.181 30.9199H240.41L240.098 32.3366H238.702L240.473 25.6699H242.119Z" fill="#1C1C1B"/>
<path d="M247.204 27.9199H248.558C248.558 27.6855 248.532 27.4303 248.496 27.1491C248.464 26.873 248.381 26.6178 248.246 26.3783C248.105 26.1335 247.897 25.9303 247.621 25.7741C247.339 25.623 246.964 25.5449 246.496 25.5449C245.98 25.5449 245.568 25.6335 245.266 25.7949C244.975 25.9616 244.74 26.2012 244.579 26.5033C244.423 26.8105 244.324 27.1803 244.287 27.6074C244.246 28.0397 244.225 28.5085 244.225 29.0033C244.225 29.5189 244.246 29.9928 244.287 30.4199C244.324 30.8366 244.423 31.2012 244.579 31.5033C244.74 31.8105 244.975 32.0501 245.266 32.2116C245.568 32.3626 245.98 32.4408 246.496 32.4408C246.923 32.4408 247.277 32.3678 247.558 32.2324C247.834 32.097 248.048 31.9095 248.204 31.6699C248.355 31.4251 248.459 31.1387 248.516 30.8158C248.568 30.498 248.6 30.1595 248.6 29.7949H247.266C247.266 30.1595 247.235 30.4512 247.183 30.6699C247.141 30.8783 247.084 31.0501 247.016 31.1699C246.943 31.2949 246.855 31.3835 246.746 31.4199C246.647 31.4616 246.532 31.4824 246.412 31.4824C246.272 31.4824 246.147 31.4564 246.037 31.3991C245.923 31.3314 245.834 31.2116 245.766 31.0449C245.693 30.8835 245.636 30.6439 245.6 30.3366C245.568 30.0189 245.558 29.6074 245.558 29.1074C245.558 28.623 245.568 28.222 245.6 27.8991C245.626 27.571 245.667 27.3053 245.725 27.1074C245.792 26.9043 245.876 26.7533 245.975 26.6699C246.084 26.5762 246.23 26.5241 246.412 26.5241C246.699 26.5241 246.902 26.6387 247.016 26.8574C247.136 27.0814 247.204 27.4355 247.204 27.9199Z" fill="#1C1C1B"/>
<path d="M250.57 29.0033C250.57 28.5605 250.575 28.1855 250.591 27.8783C250.617 27.5605 250.664 27.3053 250.737 27.1074C250.805 26.9043 250.893 26.7533 251.008 26.6699C251.127 26.5762 251.299 26.5241 251.508 26.5241C251.7 26.5241 251.851 26.5762 251.966 26.6699C252.086 26.7533 252.185 26.9043 252.258 27.1074C252.325 27.3053 252.367 27.5605 252.383 27.8783C252.409 28.1855 252.424 28.5605 252.424 29.0033C252.424 29.4512 252.409 29.8314 252.383 30.1491C252.367 30.472 252.325 30.7272 252.258 30.9199C252.185 31.1178 252.086 31.2637 251.966 31.3574C251.851 31.4408 251.7 31.4824 251.508 31.4824C251.299 31.4824 251.127 31.4408 251.008 31.3574C250.893 31.2637 250.805 31.1178 250.737 30.9199C250.664 30.7272 250.617 30.472 250.591 30.1491C250.575 29.8314 250.57 29.4512 250.57 29.0033ZM249.237 29.0033C249.237 29.5189 249.258 29.9928 249.299 30.4199C249.336 30.8366 249.435 31.2012 249.591 31.5033C249.752 31.8105 249.987 32.0501 250.278 32.2116C250.581 32.3626 250.992 32.4408 251.508 32.4408C252.002 32.4408 252.403 32.3626 252.695 32.2116C252.997 32.0501 253.226 31.8105 253.383 31.5033C253.544 31.2012 253.653 30.8366 253.695 30.4199C253.732 29.9928 253.758 29.5189 253.758 29.0033C253.758 28.5085 253.732 28.0397 253.695 27.6074C253.653 27.1803 253.544 26.8105 253.383 26.5033C253.226 26.2012 252.997 25.9616 252.695 25.7949C252.403 25.6335 252.002 25.5449 251.508 25.5449C250.992 25.5449 250.581 25.6335 250.278 25.7949C249.987 25.9616 249.752 26.2012 249.591 26.5033C249.435 26.8105 249.336 27.1803 249.299 27.6074C249.258 28.0397 249.237 28.5085 249.237 29.0033Z" fill="#1C1C1B"/>
<path d="M256.114 25.6699H254.551V32.3366H255.801V27.6699L257.447 32.3366H258.989V25.6699H257.759V30.2324H257.739L256.114 25.6699Z" fill="#1C1C1B"/>
<path d="M261.198 54.8021L274.208 28.224L260.917 5.67188H299.432C309.922 5.67188 318.453 14.0781 318.453 24.4063V54.8021" fill="#1C1C1B"/>
<path d="M299.432 7.5625H264.224L276.354 28.1458L264.229 52.9167H316.568V24.4115C316.568 15.1198 308.88 7.5625 299.432 7.5625Z" fill="#008A31"/>
<path d="M290.792 25.0573H294.417V26.125H293.187V32.5209H292.016V26.125H290.792" fill="white"/>
<path d="M296.313 26.1198V28.4167H296.771C297.208 28.4167 297.479 28.224 297.479 27.625V26.8906C297.479 26.3594 297.292 26.1198 296.88 26.1198H296.313ZM297.594 32.5209C297.531 32.3281 297.49 32.2084 297.49 31.6042V30.4323C297.49 29.7344 297.255 29.4844 296.719 29.4844H296.313V32.5209H295.141V25.0573H296.911C298.125 25.0573 298.651 25.6198 298.651 26.7761V27.3594C298.651 28.1302 298.401 28.6198 297.88 28.8646V28.8854C298.469 29.1302 298.661 29.6823 298.661 30.4636V31.6146C298.661 31.9792 298.672 32.2448 298.786 32.5209" fill="white"/>
<path d="M299.641 32.5209H300.818V25.0573H299.641V32.5209Z" fill="white"/>
<path d="M287.375 40.2709H287.396L288.281 34.1823H289.359L288.208 41.6459H286.458L285.307 34.1823H286.49" fill="white"/>
<path d="M291.292 37.3281H292.901V38.3959H291.292V40.5781H293.318V41.6459H290.12V34.1823H293.318V35.2448H291.292" fill="white"/>
<path d="M295.427 35.2448V37.5417H295.885C296.323 37.5417 296.594 37.349 296.594 36.75V36.0156C296.594 35.4844 296.406 35.2448 295.995 35.2448H295.427ZM296.708 41.6459C296.646 41.4531 296.604 41.3334 296.604 40.7292V39.5521C296.604 38.8594 296.37 38.6042 295.833 38.6042H295.427V41.6459H294.255V34.1823H296.026C297.24 34.1823 297.766 34.7448 297.766 35.8959V36.4844C297.766 37.2552 297.516 37.7396 296.995 37.9896V38.0104C297.583 38.2552 297.776 38.8073 297.776 39.5886V40.7396C297.776 41.099 297.786 41.3698 297.901 41.6459" fill="white"/>
<path d="M299.932 35.2448V37.5417H300.391C300.828 37.5417 301.094 37.349 301.094 36.75V36.0156C301.094 35.4844 300.911 35.2448 300.495 35.2448H299.932ZM301.208 41.6459C301.146 41.4531 301.104 41.3334 301.104 40.7292V39.5521C301.104 38.8594 300.87 38.6042 300.333 38.6042H299.932V41.6459H298.755V34.1823H300.526C301.74 34.1823 302.266 34.7448 302.266 35.8959V36.4844C302.266 37.2552 302.021 37.7396 301.5 37.9896V38.0104C302.083 38.2552 302.276 38.8073 302.276 39.5886V40.7396C302.276 41.099 302.286 41.3698 302.401 41.6459" fill="white"/>
<path d="M304.432 37.3281H306.042V38.3959H304.432V40.5781H306.458V41.6459H303.26V34.1823H306.458V35.2448H304.432" fill="white"/>
<path d="M296.083 17.4219C294.984 17.4219 294.094 18.3177 294.094 19.4114C294.094 20.5104 294.984 21.4062 296.083 21.4062C297.182 21.4062 298.073 20.5104 298.073 19.4114C298.073 18.3177 297.182 17.4219 296.083 17.4219ZM296.083 23.0729C294.063 23.0729 292.422 21.4323 292.422 19.4114C292.422 17.3958 294.063 15.7552 296.083 15.7552C298.099 15.7552 299.745 17.3958 299.745 19.4114C299.745 21.4323 298.099 23.0729 296.083 23.0729Z" fill="white"/>
<path d="M311.115 36.6042C311.115 41.5729 307.083 45.6094 302.115 45.6094H290.047C285.088 45.6094 281.047 41.5729 281.047 36.6042V22.0104C281.047 17.0469 285.088 13.0104 290.047 13.0104H302.115C307.083 13.0104 311.115 17.0469 311.115 22.0104V36.6042ZM302.115 11.4219H290.047C284.208 11.4219 279.458 16.1719 279.458 22.0104V36.6094C279.458 40.5677 281.672 43.9896 284.901 45.8021C284.677 45.9688 284.526 46.224 284.526 46.5208V48.3021C284.526 48.8073 284.932 49.2188 285.437 49.2188H306.724C307.229 49.2188 307.641 48.8073 307.641 48.3021V46.5208C307.641 46.224 307.484 45.9688 307.26 45.8021C310.49 43.9896 312.703 40.5677 312.703 36.6094V22.0104C312.703 16.1719 307.953 11.4219 302.115 11.4219Z" fill="white"/>
<path d="M162.932 54.8021L175.943 28.224L162.651 5.67188H201.167C211.656 5.67188 220.187 14.0729 220.187 24.4063V54.8021" fill="#1C1C1B"/>
<path d="M201.161 7.5625H165.958L178.083 28.1458L165.958 52.9167H218.297V24.4063C218.297 15.1198 210.609 7.5625 201.161 7.5625Z" fill="#FCC42F"/>
<path d="M206.12 41.3438H204.922C204.823 41.3438 204.724 41.3542 204.635 41.375C205.198 35.1146 206.062 25.4532 206.484 21.0834C206.531 20.6354 206.203 20.2396 205.755 20.1979C205.302 20.1511 204.917 20.4844 204.87 20.9271C204.224 27.6459 202.521 46.8282 202.5 47.0209C202.469 47.349 202.156 47.6094 201.781 47.6094H188.693C188.323 47.6094 188.005 47.349 187.974 47.0209C187.958 46.8282 186.25 27.6459 185.604 20.9271C185.562 20.4844 185.172 20.1511 184.719 20.1979C184.276 20.2396 183.948 20.6354 183.99 21.0834C184.411 25.4532 185.281 35.1094 185.844 41.375C185.75 41.349 185.656 41.3438 185.557 41.3438H184.354C183.578 41.3438 182.948 41.974 182.948 42.75V47.8229C182.948 48.599 183.578 49.2344 184.354 49.2344H185.557C186.141 49.2344 186.641 48.875 186.854 48.3698C187.281 48.8959 187.948 49.2344 188.693 49.2344H201.781C202.531 49.2344 203.193 48.8959 203.62 48.3698C203.833 48.875 204.333 49.2344 204.922 49.2344H206.12C206.896 49.2344 207.531 48.6042 207.531 47.8282V42.7552C207.531 41.9792 206.896 41.3438 206.12 41.3438Z" fill="#1C1C1B"/>
<path d="M190.182 24.8021V27.0938H190.854C191.25 27.0938 191.464 26.9115 191.464 26.3594V25.7084C191.464 25.0156 191.24 24.8021 190.708 24.8021H190.182ZM190.182 21.7656V23.7344H190.641C191.078 23.7344 191.344 23.5469 191.344 22.9479V22.5313C191.344 22 191.161 21.7656 190.75 21.7656H190.182ZM192.516 22.4167V22.6823C192.516 23.4479 192.281 23.9323 191.76 24.1719V24.1927C192.391 24.4427 192.635 24.9948 192.635 25.7813V26.3906C192.635 27.5417 192.031 28.1615 190.854 28.1615H189.01V20.6979H190.781C191.995 20.6979 192.516 21.2656 192.516 22.4167Z" fill="#1C1C1B"/>
<path d="M194.672 25.7969H195.807L195.25 22.0209H195.229L194.672 25.7969ZM197.349 28.1615H196.167L195.964 26.8073H194.526L194.323 28.1615H193.245L194.437 20.6979H196.156" fill="#1C1C1B"/>
<path d="M201.5 25.3802V26.3698C201.5 27.5677 200.906 28.2448 199.75 28.2448C198.599 28.2448 198.005 27.5677 198.005 26.3698V22.4896C198.005 21.2969 198.599 20.6146 199.75 20.6146C200.906 20.6146 201.5 21.2969 201.5 22.4896V23.2135H200.391V22.4166C200.391 21.8854 200.156 21.6823 199.781 21.6823C199.411 21.6823 199.177 21.8854 199.177 22.4166V26.4479C199.177 26.9791 199.411 27.1719 199.781 27.1719C200.156 27.1719 200.391 26.9791 200.391 26.4479V25.3802" fill="#1C1C1B"/>
<path d="M192.542 30.8906V36.2188H193.203C193.573 36.2188 193.797 36.0313 193.797 35.4948V31.6146C193.797 31.0834 193.573 30.8906 193.203 30.8906H192.542ZM191.37 29.8229H193.224C194.396 29.8229 194.974 30.474 194.974 31.6667V35.4427C194.974 36.6354 194.396 37.2865 193.224 37.2865H191.37" fill="#1C1C1B"/>
<path d="M197.104 32.9688H198.719V34.0365H197.104V36.2188H199.13V37.2865H195.938V29.8229H199.13V30.8906H197.104" fill="#1C1C1B"/>
<path d="M190 38.9479H193.63V40.0156H192.401V46.4115H191.229V40.0156H190" fill="#1C1C1B"/>
<path d="M195.526 40.0156V42.3073H195.984C196.422 42.3073 196.693 42.1146 196.693 41.5156V40.7813C196.693 40.25 196.505 40.0156 196.094 40.0156H195.526ZM196.807 46.4115C196.74 46.2188 196.703 46.099 196.703 45.4948V44.3229C196.703 43.6302 196.464 43.375 195.932 43.375H195.526V46.4115H194.354V38.9479H196.125C197.339 38.9479 197.865 39.5104 197.865 40.6667V41.25C197.865 42.0156 197.615 42.5104 197.094 42.7552V42.7761C197.682 43.0209 197.875 43.5729 197.875 44.3542V45.5052C197.875 45.8698 197.885 46.1354 198 46.4115" fill="#1C1C1B"/>
<path d="M198.859 46.4115H200.031V38.9479H198.859V46.4115Z" fill="#1C1C1B"/>
<path d="M206.963 17.3021H183.51V15.349C183.51 15.2865 183.547 15.2552 183.536 15.25H185.234C185.427 15.25 185.609 15.1823 185.755 15.0521L187.885 13.1927C187.979 13.1094 188.213 13.026 188.505 13.026H201.974C202.266 13.026 202.495 13.1094 202.594 13.1927L204.719 15.0521C204.865 15.1823 205.047 15.25 205.24 15.25H206.937C206.932 15.2552 206.963 15.2865 206.963 15.349V17.3021ZM206.937 13.6667H205.542L203.635 12C203.224 11.6458 202.62 11.4375 201.974 11.4375H188.505C187.859 11.4375 187.25 11.6458 186.844 12L184.937 13.6667H183.536C182.651 13.6667 181.927 14.4219 181.927 15.349V17.4948C181.927 17.7917 182.005 18.0885 182.146 18.3438C182.208 18.4531 182.297 18.5521 182.401 18.6198C182.661 18.7917 182.963 18.8854 183.271 18.8854H207.208C207.516 18.8854 207.818 18.7917 208.073 18.6198C208.177 18.5521 208.271 18.4531 208.328 18.3438C208.474 18.0885 208.547 17.7917 208.547 17.4948V15.349C208.547 14.4219 207.823 13.6667 206.937 13.6667Z" fill="#1C1C1B"/>
<path d="M201.969 13.7604H188.51C188.141 13.7604 187.839 14.0625 187.839 14.4323C187.839 14.8021 188.141 15.1042 188.51 15.1042H201.969C202.339 15.1042 202.641 14.8021 202.641 14.4323C202.641 14.0625 202.339 13.7604 201.969 13.7604Z" fill="#1C1C1B"/>
<path d="M102.896 5.67188H50.1094V36.0677C50.1094 46.3958 58.6458 54.8021 69.1302 54.8021H121.922V24.4063C121.922 14.0781 113.385 5.67188 102.896 5.67188Z" fill="#1C1C1B"/>
<path d="M63.651 29.3594C58.849 29.3594 54.9531 33.2552 54.9531 38.0573C54.9531 42.8542 58.849 46.7448 63.651 46.7448C68.4531 46.7448 72.3438 42.8542 72.3438 38.0573C72.3438 33.2552 68.4531 29.3594 63.651 29.3594Z" fill="white"/>
<path d="M69.3177 39.4688H65.0677V43.724H62.2343V39.4688H57.9791V36.6354H62.2343V32.3854H65.0677V36.6354H69.3177" fill="#1C1C1B"/>
<path d="M55.7812 26.599V17.1979H58.2708V24.5156H61.8281V26.599" fill="white"/>
<path d="M62.9375 26.599V17.1979H69.0156V19.2813H65.4271V20.7552H68.4948V22.8386H65.4271V24.5156H69.1563V26.599" fill="white"/>
<path d="M75.0885 26.599V19.2813H72.5989V17.1979H80.0624V19.2813H77.5728V26.599" fill="white"/>
<path d="M83.5469 21.4792H84.4427C85.4479 21.4792 85.9479 21.0625 85.9479 20.2344C85.9479 19.8334 85.8229 19.5521 85.5677 19.3959C85.3125 19.2448 84.9375 19.1667 84.4427 19.1667H83.5469V21.4792ZM81.0625 26.599V17.1979H84.6198C85.1198 17.1979 85.599 17.2448 86.0573 17.3438C86.5156 17.4427 86.9167 17.6042 87.2604 17.8386C87.599 18.0677 87.875 18.3802 88.0729 18.7709C88.276 19.1615 88.3802 19.6511 88.3802 20.2344C88.3802 20.9115 88.2396 21.4688 87.9688 21.9115C87.6927 22.3594 87.3229 22.7031 86.8594 22.9531L88.901 26.599H86.125L84.5052 23.4479H83.5469V26.599" fill="white"/>
<path d="M89.8698 26.599H92.3593V17.1979H89.8698V26.599Z" fill="white"/>
<path d="M75.375 43.276V33.875H81.5104V35.9583H77.8646V37.75H80.9896V39.8333H77.8646V43.276" fill="white"/>
<path d="M84.9166 38.7083L84.7551 39.3542H86.4947L86.3333 38.7083C86.2187 38.2552 86.1041 37.7604 85.9843 37.2292C85.8697 36.7031 85.7551 36.1979 85.6405 35.7292H85.5833C85.4739 36.2083 85.3645 36.7135 85.2551 37.2396C85.1458 37.7656 85.0312 38.2552 84.9166 38.7083ZM81.302 43.276L84.1614 33.875H87.1718L90.0364 43.276H87.4062L86.9426 41.2813H84.3072L83.8437 43.276" fill="white"/>
<path d="M94.5625 43.4531C93.9635 43.4531 93.3958 43.349 92.849 43.1563C92.3073 42.9583 91.8281 42.6562 91.4167 42.2552C91.0052 41.8594 90.6823 41.3542 90.4427 40.7552C90.2031 40.151 90.0781 39.4479 90.0781 38.651C90.0781 37.8594 90.2031 37.1562 90.4531 36.5469C90.7083 35.9323 91.0417 35.4167 91.4583 34.9948C91.8802 34.5781 92.3646 34.2552 92.9063 34.0365C93.4531 33.8125 94.026 33.7031 94.6198 33.7031C95.25 33.7031 95.8073 33.8229 96.2969 34.0729C96.7917 34.3177 97.2031 34.6094 97.5417 34.9479L96.2396 36.5365C96.0104 36.3333 95.7708 36.1667 95.526 36.0365C95.2812 35.9063 94.9948 35.8438 94.6771 35.8438C94.3958 35.8438 94.1354 35.9063 93.8906 36.0313C93.6458 36.1563 93.4271 36.3333 93.2396 36.5677C93.0521 36.7969 92.901 37.0833 92.7917 37.4219C92.6771 37.7552 92.625 38.1406 92.625 38.5625C92.625 39.4479 92.8125 40.1302 93.1823 40.599C93.5521 41.0729 94.0417 41.3125 94.651 41.3125C95.0156 41.3125 95.3385 41.2292 95.625 41.0729C95.9115 40.9115 96.151 40.724 96.3542 40.5L97.6563 42.0625C97.2552 42.526 96.7865 42.8698 96.2604 43.1042C95.7344 43.3333 95.1719 43.4531 94.5625 43.4531Z" fill="white"/>
<path d="M98.6145 43.276H101.104V33.875H98.6145V43.276Z" fill="white"/>
<path d="M102.87 43.276V33.875H105.359V41.1927H108.917V43.276" fill="white"/>
<path d="M110.031 43.276V33.875H116.104V35.9583H112.516V37.4323H115.583V39.5156H112.516V41.1927H116.25V43.276" fill="white"/>
<path d="M28.401 25.7448C26.7083 28.2396 28.1458 31.5104 29.8958 33.1719C31.4844 34.6823 32.7604 35.0417 32.9271 35.0834L33.7396 33.5261L36.0885 39.9375L29.4583 41.2813L30.3385 39.6511L29.4427 39.1459C26.651 37.3334 26.0625 34.8594 25.8698 34.0886C25.5365 32.7656 25.0417 28.7917 28.401 25.7448Z" fill="#1C1C1B"/>
<path d="M28.3698 25.8542C29.5729 28.6146 33.1093 29.1458 35.4479 28.5521C37.5156 28.026 38.5 27.1719 38.6666 27.0156L38.6614 27L37.7708 25.4688L44.4427 26.9271L42.026 33.2396L41.1302 31.651L40.2604 32.1198C37.2343 33.5156 34.8281 32.6927 34.0729 32.4479C32.776 32.0156 29.151 30.3177 28.3698 25.8542Z" fill="#1C1C1B"/>
<path d="M40.1562 19.1927C39.6979 22.4948 37.7083 24.0781 37.0885 24.5781C36.026 25.4427 32.6406 27.5677 28.4635 25.8229C31.4375 26.2969 33.7916 23.6094 34.552 21.3229C35.2395 19.2709 35.0364 17.974 35 17.7761L34.9791 17.7709L33.2083 17.6927L38.0208 12.8542L42.0468 18.2917L40.2343 18.1875" fill="#1C1C1B"/>
<path fill-rule="evenodd" clip-rule="evenodd" d="M19.9375 16.4115C18.4166 16.4115 17.1823 15.1823 17.1823 13.6615C17.1823 12.1406 18.4166 10.9062 19.9375 10.9062C21.4583 10.9062 22.6875 12.1406 22.6875 13.6615C22.6875 15.1823 21.4583 16.4115 19.9375 16.4115Z" fill="#1C1C1B"/>
<path d="M15.6718 29.7969C15.9062 29.1563 16.2604 29.1927 16.2604 29.1927C16.2604 29.1927 16.5729 29.125 16.75 29.7761L19.3229 38.8125C17.177 38.1875 15.2187 37.1198 13.5573 35.7136L15.6718 29.7969ZM23.6979 5.66669C13.7552 5.66669 5.66663 13.7604 5.66663 23.7031C5.66663 33.6459 13.7552 41.7344 23.6979 41.7344C24.2291 41.7344 24.7552 41.7031 25.276 41.6563L25.3958 43.4636L28.6927 40.2761L25 37.4584L25.1406 39.3594C24.6666 39.4011 24.1875 39.4375 23.6979 39.4375C22.9375 39.4375 22.1823 39.375 21.4479 39.2709L21.375 38.7917L19.6614 24.1927C19.427 21.4375 21.0052 20.9948 21.9739 21.4115L27.4427 23.6042C28.0677 23.8802 28.3698 23.349 28.3698 23.349C28.3698 23.349 28.7239 22.8021 28.0937 22.4011C28.0937 22.4011 20.6406 17.4584 19.052 17.1615C16.8854 16.7604 14.7395 18.5104 14.2604 20.7969L11.6145 33.7656C9.3385 31.0365 7.9635 27.5261 7.9635 23.7031C7.9635 15.0261 15.026 7.96877 23.6979 7.96877C28.3333 7.96877 32.5052 9.9844 35.3854 13.1823L37 11.5417C33.7031 7.93752 28.9635 5.66669 23.6979 5.66669Z" fill="#1C1C1B"/>
<path d="M182.101 63.7155L182.059 63.8821C181.851 64.8821 182.205 66.2571 183.976 66.2571C185.413 66.2571 186.643 65.4238 186.976 63.903C187.184 62.9238 186.663 62.1946 185.747 61.8405L185.018 61.5488C184.33 61.2571 184.268 61.1321 184.413 60.528C184.559 59.778 184.893 59.6946 185.393 59.6946C186.101 59.6946 186.101 59.8821 185.976 60.528L185.893 60.8613H187.413L187.497 60.528C187.663 59.778 187.518 58.4446 185.705 58.4446C184.351 58.4446 183.122 59.3613 182.851 60.653C182.622 61.6738 183.163 62.403 184.122 62.8196L184.83 63.0905C185.434 63.278 185.538 63.403 185.393 64.153C185.268 64.6946 184.997 65.0071 184.288 65.0071C183.497 65.0071 183.413 64.7571 183.58 63.8821L183.663 63.528H182.143L182.101 63.7155Z" fill="#1C1C1B"/>
<path d="M191.687 63.3613L191.791 62.7988C192.124 61.2988 191.708 60.2155 190.208 60.2155C188.52 60.2155 187.708 61.903 187.416 63.3197C186.895 65.7988 188.124 66.2572 188.999 66.2572C190.166 66.2572 191.228 65.3197 191.52 63.9238H190.124C189.999 64.4447 189.937 65.1322 189.166 65.1322C188.353 65.1322 188.645 64.403 188.812 63.6738L188.833 63.5697H191.645L191.687 63.3613ZM189.02 62.6322L189.041 62.528C189.187 61.8197 189.374 61.3405 190.062 61.3405C190.666 61.3405 190.583 61.653 190.437 62.3405L190.416 62.4447H189.062L189.02 62.6322ZM189.874 60.028H190.687L192.416 58.2155H190.687L189.52 60.028H189.874Z" fill="#1C1C1B"/>
<path d="M191.463 67.8613H192.692L193.192 65.4863H192.9C192.963 65.778 193.546 66.2572 194.129 66.2572C194.858 66.2572 196.088 65.5697 196.567 63.2988C196.963 61.4447 196.483 60.2155 195.254 60.2155C194.671 60.2155 194.067 60.5905 193.775 61.0072H194.088L194.233 60.3613H192.817L191.233 67.8613H191.463ZM193.629 63.1738C193.879 62.028 194.025 61.4447 194.754 61.4447C195.504 61.4447 195.317 62.028 195.046 63.2572C194.733 64.7363 194.546 65.0072 193.921 65.0072C193.171 65.0072 193.358 64.4655 193.629 63.1738Z" fill="#1C1C1B"/>
<path d="M201.252 61.7155C201.46 60.778 200.585 60.2155 199.627 60.2155C198.21 60.2155 197.418 61.028 197.127 62.3613H198.543C198.689 61.653 198.71 61.3405 199.439 61.3405C200.002 61.3405 199.898 61.4447 199.814 61.9447C199.71 62.403 199.627 62.3405 199.231 62.4447L198.335 62.6738C197.564 62.903 196.793 63.3613 196.523 64.5488C196.314 65.5905 196.939 66.2572 197.814 66.2572C198.439 66.2572 199.043 65.9447 199.398 65.4655H199.106C199.064 65.7988 199.627 66.1738 200.106 66.1738C200.314 66.1738 200.502 66.1113 200.814 65.9655L201.064 64.8197C200.627 65.0488 200.689 64.9863 200.627 64.9863C200.46 64.9863 200.564 65.0072 200.606 64.7988L201.252 61.7155ZM199.377 63.9863C199.189 64.778 198.981 65.0697 198.335 65.0697C197.877 65.0697 197.918 64.903 198.023 64.4447C198.106 64.0488 198.127 63.9238 198.46 63.778C198.814 63.6113 199.564 63.4447 199.46 63.5072L199.377 63.9863Z" fill="#1C1C1B"/>
<path d="M201.278 66.1113H202.507L203.236 62.6947C203.444 61.6947 203.882 61.6738 204.382 61.6738C204.548 61.6738 204.757 61.7155 204.965 61.778L205.257 60.3405C204.986 60.2363 204.923 60.2155 204.798 60.2155C204.194 60.2155 203.569 60.653 203.236 61.1947H203.548L203.736 60.3613H202.257L201.028 66.1113H201.278Z" fill="#1C1C1B"/>
<path d="M208.847 63.3613L208.951 62.7988C209.284 61.2988 208.868 60.2155 207.368 60.2155C205.68 60.2155 204.868 61.903 204.576 63.3197C204.055 65.7988 205.284 66.2572 206.159 66.2572C207.326 66.2572 208.388 65.3197 208.68 63.9238H207.284C207.159 64.4447 207.097 65.1322 206.326 65.1322C205.513 65.1322 205.805 64.403 205.972 63.6738L205.993 63.5697H208.805L208.847 63.3613ZM206.18 62.6322L206.201 62.528C206.347 61.8197 206.534 61.3405 207.222 61.3405C207.826 61.3405 207.743 61.653 207.597 62.3405L207.576 62.4447H206.222L206.18 62.6322Z" fill="#1C1C1B"/>
<path d="M208.727 66.1113H212.456L212.727 64.8197H210.623L213.414 61.528L213.664 60.3613H209.852L209.581 61.6322H211.602L208.727 65.0072L208.477 66.1113H208.727Z" fill="#1C1C1B"/>
<path d="M215.509 66.1113H216.738L218.343 58.5905H216.884L215.28 66.1113H215.509Z" fill="#1C1C1B"/>
<path d="M222.167 63.3613L222.271 62.7988C222.604 61.2988 222.187 60.2155 220.687 60.2155C219 60.2155 218.187 61.903 217.896 63.3197C217.375 65.7988 218.604 66.2572 219.479 66.2572C220.646 66.2572 221.708 65.3197 222 63.9238H220.604C220.479 64.4447 220.417 65.1322 219.646 65.1322C218.833 65.1322 219.125 64.403 219.292 63.6738L219.312 63.5697H222.125L222.167 63.3613ZM219.5 62.6322L219.521 62.528C219.667 61.8197 219.854 61.3405 220.542 61.3405C221.146 61.3405 221.062 61.653 220.917 62.3405L220.896 62.4447H219.542L219.5 62.6322Z" fill="#1C1C1B"/>
<path d="M226.651 62.1113L226.713 61.8613C226.838 61.1947 226.526 60.2155 225.151 60.2155C224.047 60.2155 223.005 60.8613 222.797 61.8822C222.609 62.7363 223.068 63.3405 223.818 63.6113L224.63 63.9238C224.984 64.0697 224.943 64.1322 224.859 64.528C224.755 65.028 224.588 65.1322 224.005 65.1322C223.38 65.1322 223.422 64.9863 223.547 64.3613L223.63 64.0072H222.297L222.213 64.3822C221.984 65.4238 222.463 66.2572 223.818 66.2572C224.901 66.2572 226.047 65.5697 226.297 64.4238C226.463 63.5697 226.005 62.9447 225.255 62.6738L224.609 62.4447C224.088 62.2363 224.13 62.2572 224.213 61.8405C224.318 61.3405 224.526 61.3405 224.943 61.3405C225.505 61.3405 225.359 61.5488 225.276 61.9655L225.213 62.2988H226.609L226.651 62.1113Z" fill="#1C1C1B"/>
<path d="M233.457 63.3613L233.561 62.7988C233.894 61.2988 233.478 60.2155 231.978 60.2155C230.29 60.2155 229.478 61.903 229.186 63.3197C228.665 65.7988 229.894 66.2572 230.769 66.2572C231.936 66.2572 232.998 65.3197 233.29 63.9238H231.894C231.769 64.4447 231.707 65.1322 230.936 65.1322C230.123 65.1322 230.415 64.403 230.582 63.6738L230.603 63.5697H233.415L233.457 63.3613ZM230.79 62.6322L230.811 62.528C230.957 61.8197 231.144 61.3405 231.832 61.3405C232.436 61.3405 232.353 61.653 232.207 62.3405L232.186 62.4447H230.832L230.79 62.6322ZM231.644 60.028H232.457L234.186 58.2155H232.457L231.29 60.028H231.644Z" fill="#1C1C1B"/>
<path d="M233.649 66.1113H234.878L236.483 58.5905H235.024L233.42 66.1113H233.649Z" fill="#1C1C1B"/>
<path d="M240.307 63.3613L240.411 62.7988C240.744 61.2988 240.328 60.2155 238.828 60.2155C237.14 60.2155 236.328 61.903 236.036 63.3197C235.515 65.7988 236.744 66.2572 237.619 66.2572C238.786 66.2572 239.848 65.3197 240.14 63.9238H238.744C238.619 64.4447 238.557 65.1322 237.786 65.1322C236.973 65.1322 237.265 64.403 237.432 63.6738L237.453 63.5697H240.265L240.307 63.3613ZM237.64 62.6322L237.661 62.528C237.807 61.8197 237.994 61.3405 238.682 61.3405C239.286 61.3405 239.203 61.653 239.057 62.3405L239.036 62.4447H237.682L237.64 62.6322ZM238.494 60.028H239.307L241.036 58.2155H239.307L238.14 60.028H238.494Z" fill="#1C1C1B"/>
<path d="M240.499 66.1113H241.728L242.541 62.3197C242.687 61.6113 242.999 61.4447 243.437 61.4447C243.874 61.4447 243.833 61.528 243.687 62.2363L242.853 66.1113H244.333L245.145 62.3197C245.291 61.6113 245.583 61.4447 246.02 61.4447C246.458 61.4447 246.416 61.528 246.27 62.2363L245.437 66.1113H246.916L247.833 61.8405C248.041 60.7988 247.395 60.2155 246.624 60.2155C245.978 60.2155 245.374 60.5697 245.208 60.778C245.208 60.778 244.791 60.2155 244.02 60.2155C243.499 60.2155 242.791 60.5697 242.458 60.9863H242.77L242.895 60.3613H241.478L240.27 66.1113H240.499Z" fill="#1C1C1B"/>
<path d="M252.337 63.3613L252.441 62.7988C252.774 61.2988 252.358 60.2155 250.858 60.2155C249.17 60.2155 248.358 61.903 248.066 63.3197C247.545 65.7988 248.774 66.2572 249.649 66.2572C250.816 66.2572 251.878 65.3197 252.17 63.9238H250.774C250.649 64.4447 250.587 65.1322 249.816 65.1322C249.003 65.1322 249.295 64.403 249.462 63.6738L249.483 63.5697H252.295L252.337 63.3613ZM249.67 62.6322L249.691 62.528C249.837 61.8197 250.024 61.3405 250.712 61.3405C251.316 61.3405 251.233 61.653 251.087 62.3405L251.066 62.4447H249.712L249.67 62.6322Z" fill="#1C1C1B"/>
<path d="M252.488 66.1113H253.717L254.529 62.3197C254.675 61.6113 254.967 61.4447 255.425 61.4447C255.967 61.4447 255.904 61.528 255.758 62.2363L254.946 66.1113H256.404L257.3 61.8613C257.529 60.778 256.904 60.2155 256.092 60.2155C255.488 60.2155 254.779 60.5697 254.446 60.9863H254.738L254.883 60.3613H253.467L252.238 66.1113H252.488Z" fill="#1C1C1B"/>
<path d="M257.777 61.528H258.277L257.61 64.6738C257.381 65.778 257.902 66.1738 258.631 66.1738C258.985 66.1738 259.277 66.1321 259.693 66.0488L259.943 64.8613C259.589 64.9238 259.464 64.9238 259.298 64.9238C258.923 64.9238 259.027 64.9655 259.11 64.5488L259.756 61.528H260.631L260.881 60.3613H260.006L260.339 58.8196H258.86L258.527 60.3613H257.798L257.548 61.528H257.777Z" fill="#1C1C1B"/>
<path d="M264.411 62.1113L264.473 61.8613C264.598 61.1947 264.286 60.2155 262.911 60.2155C261.807 60.2155 260.765 60.8613 260.557 61.8822C260.369 62.7363 260.828 63.3405 261.578 63.6113L262.39 63.9238C262.744 64.0697 262.703 64.1322 262.619 64.528C262.515 65.028 262.348 65.1322 261.765 65.1322C261.14 65.1322 261.182 64.9863 261.307 64.3613L261.39 64.0072H260.057L259.973 64.3822C259.744 65.4238 260.223 66.2572 261.578 66.2572C262.661 66.2572 263.807 65.5697 264.057 64.4238C264.223 63.5697 263.765 62.9447 263.015 62.6738L262.369 62.4447C261.848 62.2363 261.89 62.2572 261.973 61.8405C262.078 61.3405 262.286 61.3405 262.703 61.3405C263.265 61.3405 263.119 61.5488 263.036 61.9655L262.973 62.2988H264.369L264.411 62.1113Z" fill="#1C1C1B"/>
<path d="M271.342 61.7155C271.55 60.778 270.675 60.2155 269.717 60.2155C268.3 60.2155 267.508 61.028 267.217 62.3613H268.633C268.779 61.653 268.8 61.3405 269.529 61.3405C270.092 61.3405 269.988 61.4447 269.904 61.9447C269.8 62.403 269.717 62.3405 269.321 62.4447L268.425 62.6738C267.654 62.903 266.883 63.3613 266.613 64.5488C266.404 65.5905 267.029 66.2572 267.904 66.2572C268.529 66.2572 269.133 65.9447 269.488 65.4655H269.196C269.154 65.7988 269.717 66.1738 270.196 66.1738C270.404 66.1738 270.592 66.1113 270.904 65.9655L271.154 64.8197C270.717 65.0488 270.779 64.9863 270.717 64.9863C270.55 64.9863 270.654 65.0072 270.696 64.7988L271.342 61.7155ZM269.467 63.9863C269.279 64.778 269.071 65.0697 268.425 65.0697C267.967 65.0697 268.008 64.903 268.113 64.4447C268.196 64.0488 268.217 63.9238 268.55 63.778C268.904 63.6113 269.654 63.4447 269.55 63.5072L269.467 63.9863Z" fill="#1C1C1B"/>
<path d="M272.286 66.1113H273.661L276.39 60.3613H274.848L273.098 64.5905H273.39L273.348 60.3613H271.786L272.098 66.1113H272.286Z" fill="#1C1C1B"/>
<path d="M280.051 61.7155C280.259 60.778 279.384 60.2155 278.426 60.2155C277.009 60.2155 276.218 61.028 275.926 62.3613H277.343C277.488 61.653 277.509 61.3405 278.238 61.3405C278.801 61.3405 278.697 61.4447 278.613 61.9447C278.509 62.403 278.426 62.3405 278.03 62.4447L277.134 62.6738C276.363 62.903 275.593 63.3613 275.322 64.5488C275.113 65.5905 275.738 66.2572 276.613 66.2572C277.238 66.2572 277.843 65.9447 278.197 65.4655H277.905C277.863 65.7988 278.426 66.1738 278.905 66.1738C279.113 66.1738 279.301 66.1113 279.613 65.9655L279.863 64.8197C279.426 65.0488 279.488 64.9863 279.426 64.9863C279.259 64.9863 279.363 65.0072 279.405 64.7988L280.051 61.7155ZM278.176 63.9863C277.988 64.778 277.78 65.0697 277.134 65.0697C276.676 65.0697 276.718 64.903 276.822 64.4447C276.905 64.0488 276.926 63.9238 277.259 63.778C277.613 63.6113 278.363 63.4447 278.259 63.5072L278.176 63.9863Z" fill="#1C1C1B"/>
<path d="M280.077 66.1113H281.306L282.118 62.3197C282.264 61.6113 282.556 61.4447 283.014 61.4447C283.556 61.4447 283.493 61.528 283.347 62.2363L282.535 66.1113H283.993L284.889 61.8613C285.118 60.778 284.493 60.2155 283.681 60.2155C283.077 60.2155 282.368 60.5697 282.035 60.9863H282.327L282.472 60.3613H281.056L279.827 66.1113H280.077Z" fill="#1C1C1B"/>
<path d="M285.366 61.528H285.866L285.199 64.6738C284.97 65.778 285.491 66.1738 286.22 66.1738C286.574 66.1738 286.866 66.1321 287.283 66.0488L287.533 64.8613C287.178 64.9238 287.053 64.9238 286.887 64.9238C286.512 64.9238 286.616 64.9655 286.699 64.5488L287.345 61.528H288.22L288.47 60.3613H287.595L287.928 58.8196H286.449L286.116 60.3613H285.387L285.137 61.528H285.366Z" fill="#1C1C1B"/>
<path d="M292.817 66.1113H293.983L295.588 58.5905H294.108L293.608 60.9863H293.9C293.838 60.6947 293.275 60.2155 292.692 60.2155C291.858 60.2155 290.754 60.778 290.254 63.153C289.838 65.0072 290.317 66.2572 291.588 66.2572C292.358 66.2572 292.858 65.7572 293.046 65.4447H292.713L292.567 66.1113H292.817ZM293.171 63.2988C292.921 64.4447 292.796 65.0072 292.046 65.0072C291.296 65.0072 291.504 64.4238 291.775 63.2155C292.067 61.7572 292.213 61.4447 292.817 61.4447C293.65 61.4447 293.442 62.0072 293.171 63.2988Z" fill="#1C1C1B"/>
<path d="M299.356 63.3613L299.46 62.7988C299.793 61.2988 299.377 60.2155 297.877 60.2155C296.189 60.2155 295.377 61.903 295.085 63.3197C294.564 65.7988 295.793 66.2572 296.668 66.2572C297.835 66.2572 298.898 65.3197 299.189 63.9238H297.793C297.668 64.4447 297.606 65.1322 296.835 65.1322C296.023 65.1322 296.314 64.403 296.481 63.6738L296.502 63.5697H299.314L299.356 63.3613ZM296.689 62.6322L296.71 62.528C296.856 61.8197 297.043 61.3405 297.731 61.3405C298.335 61.3405 298.252 61.653 298.106 62.3405L298.085 62.4447H296.731L296.689 62.6322Z" fill="#1C1C1B"/>
<path d="M302.386 61.528H302.886L302.219 64.6738C301.99 65.778 302.511 66.1738 303.24 66.1738C303.594 66.1738 303.886 66.1321 304.303 66.0488L304.553 64.8613C304.198 64.9238 304.073 64.9238 303.907 64.9238C303.532 64.9238 303.636 64.9655 303.719 64.5488L304.365 61.528H305.24L305.49 60.3613H304.615L304.948 58.8196H303.469L303.136 60.3613H302.407L302.157 61.528H302.386Z" fill="#1C1C1B"/>
<path d="M304.687 66.1113H305.916L306.645 62.6947C306.853 61.6947 307.291 61.6738 307.791 61.6738C307.958 61.6738 308.166 61.7155 308.374 61.778L308.666 60.3405C308.395 60.2363 308.333 60.2155 308.208 60.2155C307.603 60.2155 306.978 60.653 306.645 61.1947H306.958L307.145 60.3613H305.666L304.437 66.1113H304.687Z" fill="#1C1C1B"/>
<path d="M307.878 66.1113H309.108L310.337 60.3613H308.858L307.649 66.1113H307.878ZM309.191 59.9655H310.42L310.733 58.5071H309.253L308.962 59.9655H309.191Z" fill="#1C1C1B"/>
<path d="M314.536 63.3613L314.64 62.7988C314.973 61.2988 314.557 60.2155 313.057 60.2155C311.369 60.2155 310.557 61.903 310.265 63.3197C309.744 65.7988 310.973 66.2572 311.848 66.2572C313.015 66.2572 314.077 65.3197 314.369 63.9238H312.973C312.848 64.4447 312.786 65.1322 312.015 65.1322C311.202 65.1322 311.494 64.403 311.661 63.6738L311.682 63.5697H314.494L314.536 63.3613ZM311.869 62.6322L311.89 62.528C312.036 61.8197 312.223 61.3405 312.911 61.3405C313.515 61.3405 313.432 61.653 313.286 62.3405L313.265 62.4447H311.911L311.869 62.6322Z" fill="#1C1C1B"/>
<path d="M314.687 66.1113H315.916L316.645 62.6947C316.853 61.6947 317.291 61.6738 317.791 61.6738C317.958 61.6738 318.166 61.7155 318.374 61.778L318.666 60.3405C318.395 60.2363 318.333 60.2155 318.208 60.2155C317.603 60.2155 316.978 60.653 316.645 61.1947H316.958L317.145 60.3613H315.666L314.437 66.1113H314.687Z" fill="#1C1C1B"/>
<path d="M129.951 31.993H130.483C130.812 31.993 131.078 31.9202 131.281 31.7745C131.483 31.6288 131.585 31.3597 131.585 30.967C131.585 30.7707 131.556 30.6092 131.499 30.4825C131.448 30.3495 131.376 30.245 131.281 30.169C131.192 30.0867 131.084 30.0297 130.958 29.998C130.831 29.9663 130.692 29.9505 130.54 29.9505H129.951V31.993ZM129.951 29.0005H130.34C130.72 29.0005 130.996 28.934 131.167 28.801C131.344 28.6617 131.433 28.4305 131.433 28.1075C131.433 27.7845 131.353 27.5565 131.195 27.4235C131.037 27.2905 130.787 27.224 130.445 27.224H129.951V29.0005ZM128.583 26.217H130.872C131.151 26.217 131.407 26.2455 131.642 26.3025C131.882 26.3595 132.088 26.4545 132.259 26.5875C132.43 26.7205 132.563 26.8978 132.658 27.1195C132.753 27.3412 132.801 27.6135 132.801 27.9365C132.801 28.3038 132.715 28.6205 132.544 28.8865C132.373 29.1462 132.117 29.3235 131.775 29.4185V29.4375C132.155 29.4882 132.455 29.6497 132.677 29.922C132.899 30.1943 133.01 30.5585 133.01 31.0145C133.01 31.2805 132.975 31.5338 132.905 31.7745C132.835 32.0152 132.715 32.2273 132.544 32.411C132.379 32.5883 132.161 32.7308 131.889 32.8385C131.623 32.9462 131.29 33 130.891 33H128.583V26.217ZM135.087 29.6085C135.087 30.0645 135.096 30.454 135.115 30.777C135.141 31.0937 135.185 31.3533 135.248 31.556C135.318 31.7523 135.413 31.898 135.533 31.993C135.66 32.0817 135.825 32.126 136.027 32.126C136.23 32.126 136.392 32.0817 136.512 31.993C136.639 31.898 136.734 31.7523 136.797 31.556C136.867 31.3533 136.911 31.0937 136.93 30.777C136.955 30.454 136.968 30.0645 136.968 29.6085C136.968 29.1525 136.955 28.7662 136.93 28.4495C136.911 28.1328 136.867 27.8732 136.797 27.6705C136.734 27.4678 136.639 27.3222 136.512 27.2335C136.392 27.1385 136.23 27.091 136.027 27.091C135.825 27.091 135.66 27.1385 135.533 27.2335C135.413 27.3222 135.318 27.4678 135.248 27.6705C135.185 27.8732 135.141 28.1328 135.115 28.4495C135.096 28.7662 135.087 29.1525 135.087 29.6085ZM133.719 29.6085C133.719 29.0955 133.741 28.6237 133.785 28.193C133.836 27.756 133.941 27.3823 134.099 27.072C134.264 26.7617 134.498 26.521 134.802 26.35C135.106 26.1727 135.514 26.084 136.027 26.084C136.54 26.084 136.949 26.1727 137.253 26.35C137.557 26.521 137.788 26.7617 137.946 27.072C138.111 27.3823 138.216 27.756 138.26 28.193C138.311 28.6237 138.336 29.0955 138.336 29.6085C138.336 30.1278 138.311 30.6028 138.26 31.0335C138.216 31.4642 138.111 31.8347 137.946 32.145C137.788 32.4553 137.557 32.6928 137.253 32.8575C136.949 33.0222 136.54 33.1045 136.027 33.1045C135.514 33.1045 135.106 33.0222 134.802 32.8575C134.498 32.6928 134.264 32.4553 134.099 32.145C133.941 31.8347 133.836 31.4642 133.785 31.0335C133.741 30.6028 133.719 30.1278 133.719 29.6085ZM140.423 26.217V30.948C140.423 31.119 140.432 31.2773 140.451 31.423C140.477 31.5623 140.518 31.6858 140.575 31.7935C140.638 31.8948 140.72 31.9772 140.822 32.0405C140.929 32.0975 141.062 32.126 141.221 32.126C141.385 32.126 141.518 32.0975 141.62 32.0405C141.721 31.9772 141.8 31.8948 141.857 31.7935C141.921 31.6858 141.962 31.5623 141.981 31.423C142.006 31.2773 142.019 31.119 142.019 30.948V26.217H143.387V30.948C143.387 31.3787 143.327 31.7365 143.206 32.0215C143.086 32.3002 142.924 32.5218 142.722 32.6865C142.519 32.8512 142.288 32.962 142.028 33.019C141.769 33.076 141.499 33.1045 141.221 33.1045C140.942 33.1045 140.673 33.0792 140.413 33.0285C140.154 32.9778 139.922 32.8765 139.72 32.7245C139.517 32.5662 139.356 32.3445 139.235 32.0595C139.115 31.7745 139.055 31.404 139.055 30.948V26.217H140.423ZM147.15 28.5065C147.15 28.0125 147.089 27.6547 146.969 27.433C146.855 27.205 146.643 27.091 146.333 27.091C146.162 27.091 146.019 27.1385 145.905 27.2335C145.797 27.3222 145.712 27.471 145.649 27.68C145.585 27.8827 145.541 28.1518 145.516 28.4875C145.49 28.8168 145.478 29.2222 145.478 29.7035C145.478 30.2165 145.493 30.6313 145.525 30.948C145.563 31.2647 145.617 31.5117 145.687 31.689C145.763 31.86 145.854 31.9772 145.962 32.0405C146.076 32.0975 146.206 32.126 146.352 32.126C146.472 32.126 146.583 32.107 146.684 32.069C146.792 32.0247 146.884 31.9423 146.96 31.822C147.036 31.6953 147.096 31.5212 147.14 31.2995C147.184 31.0715 147.207 30.7738 147.207 30.4065H148.575C148.575 30.7738 148.546 31.1222 148.489 31.4515C148.432 31.7808 148.324 32.069 148.166 32.316C148.014 32.563 147.796 32.7562 147.511 32.8955C147.232 33.0348 146.868 33.1045 146.418 33.1045C145.905 33.1045 145.497 33.0222 145.193 32.8575C144.889 32.6928 144.654 32.4553 144.49 32.145C144.331 31.8347 144.227 31.4642 144.176 31.0335C144.132 30.6028 144.11 30.1278 144.11 29.6085C144.11 29.0955 144.132 28.6237 144.176 28.193C144.227 27.756 144.331 27.3823 144.49 27.072C144.654 26.7617 144.889 26.521 145.193 26.35C145.497 26.1727 145.905 26.084 146.418 26.084C146.906 26.084 147.289 26.1632 147.568 26.3215C147.853 26.4798 148.065 26.6825 148.204 26.9295C148.343 27.1702 148.429 27.433 148.461 27.718C148.499 27.9967 148.518 28.2595 148.518 28.5065H147.15ZM149.355 26.217H150.723V28.8105H152.319V26.217H153.687V33H152.319V29.9885H150.723V33H149.355V26.217ZM155.859 29.6085C155.859 30.0645 155.868 30.454 155.887 30.777C155.913 31.0937 155.957 31.3533 156.02 31.556C156.09 31.7523 156.185 31.898 156.305 31.993C156.432 32.0817 156.597 32.126 156.799 32.126C157.002 32.126 157.164 32.0817 157.284 31.993C157.411 31.898 157.506 31.7523 157.569 31.556C157.639 31.3533 157.683 31.0937 157.702 30.777C157.727 30.454 157.74 30.0645 157.74 29.6085C157.74 29.1525 157.727 28.7662 157.702 28.4495C157.683 28.1328 157.639 27.8732 157.569 27.6705C157.506 27.4678 157.411 27.3222 157.284 27.2335C157.164 27.1385 157.002 27.091 156.799 27.091C156.597 27.091 156.432 27.1385 156.305 27.2335C156.185 27.3222 156.09 27.4678 156.02 27.6705C155.957 27.8732 155.913 28.1328 155.887 28.4495C155.868 28.7662 155.859 29.1525 155.859 29.6085ZM154.491 29.6085C154.491 29.0955 154.513 28.6237 154.557 28.193C154.608 27.756 154.713 27.3823 154.871 27.072C155.036 26.7617 155.27 26.521 155.574 26.35C155.878 26.1727 156.286 26.084 156.799 26.084C157.312 26.084 157.721 26.1727 158.025 26.35C158.329 26.521 158.56 26.7617 158.718 27.072C158.883 27.3823 158.988 27.756 159.032 28.193C159.083 28.6237 159.108 29.0955 159.108 29.6085C159.108 30.1278 159.083 30.6028 159.032 31.0335C158.988 31.4642 158.883 31.8347 158.718 32.145C158.56 32.4553 158.329 32.6928 158.025 32.8575C157.721 33.0222 157.312 33.1045 156.799 33.1045C156.286 33.1045 155.878 33.0222 155.574 32.8575C155.27 32.6928 155.036 32.4553 154.871 32.145C154.713 31.8347 154.608 31.4642 154.557 31.0335C154.513 30.6028 154.491 30.1278 154.491 29.6085ZM161.489 26.217L163.142 30.8625H163.161V26.217H164.415V33H162.857L161.185 28.25H161.166V33H159.912V26.217H161.489Z" fill="#1C1C1B"/>
</g>
<defs>
<clipPath id="clip0_128_95">
<rect width="325" height="72" fill="white"/>
</clipPath>
</defs>
</svg>
