<svg width="227" height="61" viewBox="0 0 227 61" fill="none" xmlns="http://www.w3.org/2000/svg">
<g clip-path="url(#clip0_11_147)">
<path d="M24.8542 60.7916C11.2344 60.7916 0.15625 49.8385 0.15625 36.3801V0.317627H201.323C214.938 0.317627 226.016 11.2655 226.016 24.7239L226.021 60.7916" fill="white"/>
<path d="M201.323 5.98438H50.2708V36.3802C50.2708 46.7135 58.802 55.1198 69.2916 55.1198H220.349V24.724C220.349 14.3958 211.812 5.98438 201.323 5.98438Z" fill="white"/>
<path d="M218.458 53.2292H69.2916C59.8437 53.2292 52.1562 45.6719 52.1562 36.3802V7.875H201.323C210.771 7.875 218.458 15.4323 218.458 24.724V53.2292ZM201.323 5.98438H50.2708V36.3802C50.2708 46.7135 58.802 55.1198 69.2916 55.1198H220.349V24.724C220.349 14.3958 211.812 5.98438 201.323 5.98438Z" fill="#FCC42F"/>
<path d="M163.089 55.1198L176.099 28.5417L162.807 5.98438H201.323C211.812 5.98438 220.349 14.3906 220.349 24.724V55.1198" fill="#FCC42F"/>
<path d="M201.323 7.875H166.115L178.245 28.4583L166.12 53.2292H218.458V24.724C218.458 15.4323 210.771 7.875 201.323 7.875Z" fill="#FCC42F"/>
<path d="M206.281 41.6615H205.078C204.979 41.6615 204.885 41.6719 204.792 41.6875C205.354 35.4323 206.224 25.7708 206.646 21.3958C206.687 20.9531 206.359 20.5573 205.917 20.5156C205.464 20.4635 205.073 20.7969 205.031 21.2448C204.385 27.9635 202.677 47.1458 202.661 47.3385C202.63 47.6615 202.312 47.9271 201.943 47.9271H188.854C188.479 47.9271 188.167 47.6615 188.135 47.3385C188.12 47.1458 186.411 27.9635 185.766 21.2448C185.724 20.7969 185.333 20.4635 184.88 20.5156C184.437 20.5573 184.109 20.9531 184.151 21.3958C184.573 25.7708 185.443 35.4271 186.005 41.6875C185.911 41.6667 185.812 41.6562 185.719 41.6562H184.516C183.74 41.6562 183.104 42.2917 183.104 43.0677V48.1406C183.104 48.9167 183.74 49.5469 184.516 49.5469H185.719C186.297 49.5469 186.802 49.1927 187.016 48.6823C187.443 49.2135 188.104 49.5469 188.854 49.5469H201.943C202.687 49.5469 203.349 49.2135 203.781 48.6875C203.995 49.1927 204.495 49.5521 205.078 49.5521H206.281C207.057 49.5521 207.687 48.9219 207.687 48.1406V43.0677C207.687 42.2917 207.057 41.6615 206.281 41.6615Z" fill="#1C1C1B"/>
<path d="M190.344 25.1198V27.4115H191.016C191.411 27.4115 191.625 27.2292 191.625 26.6771V26.026C191.625 25.3333 191.401 25.1198 190.865 25.1198H190.344ZM190.344 22.0833V24.0521H190.802C191.24 24.0521 191.505 23.8646 191.505 23.2656V22.849C191.505 22.3125 191.323 22.0833 190.906 22.0833H190.344ZM192.677 22.7344V23C192.677 23.7656 192.443 24.2448 191.922 24.4896V24.5104C192.547 24.7604 192.797 25.3125 192.797 26.099V26.7083C192.797 27.8594 192.187 28.4792 191.016 28.4792H189.172V21.0156H190.938C192.156 21.0156 192.677 21.5833 192.677 22.7344Z" fill="#1C1C1B"/>
<path d="M194.833 26.1146H195.964L195.411 22.3385H195.385L194.833 26.1146ZM197.51 28.4792H196.328L196.125 27.125H194.688L194.479 28.4792H193.406L194.599 21.0156H196.313" fill="#1C1C1B"/>
<path d="M201.661 25.6926V26.6874C201.661 27.8801 201.062 28.5624 199.911 28.5624C198.76 28.5624 198.161 27.8801 198.161 26.6874V22.8072C198.161 21.6093 198.76 20.927 199.911 20.927C201.062 20.927 201.661 21.6093 201.661 22.8072V23.5312H200.552V22.7291C200.552 22.1978 200.318 21.9947 199.943 21.9947C199.573 21.9947 199.338 22.1978 199.338 22.7291V26.7603C199.338 27.2916 199.573 27.4843 199.943 27.4843C200.318 27.4843 200.552 27.2916 200.552 26.7603V25.6926" fill="#1C1C1B"/>
<path d="M192.703 31.2083V36.5365H193.365C193.734 36.5365 193.958 36.3438 193.958 35.8125V31.9323C193.958 31.401 193.734 31.2083 193.365 31.2083H192.703ZM191.531 30.1406H193.385C194.557 30.1406 195.13 30.7917 195.13 31.9844V35.7604C195.13 36.9531 194.557 37.6042 193.385 37.6042H191.531" fill="#1C1C1B"/>
<path d="M197.266 33.2865H198.875V34.349H197.266V36.5365H199.292V37.6042H196.094V30.1406H199.292V31.2031H197.266" fill="#1C1C1B"/>
<path d="M190.161 39.2656H193.786V40.3281H192.562V46.7292H191.385V40.3281H190.161" fill="#1C1C1B"/>
<path d="M195.688 40.3281V42.625H196.146C196.583 42.625 196.849 42.4323 196.849 41.8333V41.099C196.849 40.5677 196.667 40.3281 196.25 40.3281H195.688ZM196.969 46.7292C196.901 46.5365 196.859 46.4167 196.859 45.8125V44.6354C196.859 43.9479 196.625 43.6875 196.094 43.6875H195.688V46.7292H194.516V39.2656H196.286C197.5 39.2656 198.021 39.8281 198.021 40.9792V41.5677C198.021 42.3333 197.776 42.8229 197.255 43.0729V43.0938C197.839 43.3385 198.031 43.8906 198.031 44.6719V45.8229C198.031 46.1823 198.042 46.4531 198.161 46.7292" fill="#1C1C1B"/>
<path d="M199.016 46.7292H200.188V39.2656H199.016V46.7292Z" fill="#1C1C1B"/>
<path d="M207.125 17.6197H183.672V15.6666C183.672 15.5989 183.703 15.5676 183.698 15.5676H185.396C185.589 15.5676 185.771 15.4999 185.917 15.3697L188.047 13.5103C188.141 13.427 188.37 13.3437 188.661 13.3437H202.13C202.422 13.3437 202.656 13.427 202.75 13.5103L204.88 15.3697C205.026 15.4999 205.208 15.5676 205.401 15.5676H207.099C207.089 15.5676 207.125 15.5989 207.125 15.6666V17.6197ZM207.099 13.9791H205.698L203.792 12.3176C203.385 11.9583 202.781 11.7551 202.13 11.7551H188.661C188.016 11.7551 187.411 11.9583 187 12.3176L185.094 13.9791H183.698C182.807 13.9791 182.089 14.7395 182.089 15.6666V17.8124C182.089 18.1093 182.161 18.401 182.307 18.6614C182.37 18.7708 182.458 18.8697 182.562 18.9374C182.823 19.1093 183.12 19.1978 183.427 19.1978H207.37C207.677 19.1978 207.974 19.1093 208.234 18.9374C208.339 18.8697 208.427 18.7708 208.49 18.6614C208.63 18.401 208.708 18.1093 208.708 17.8124V15.6666C208.708 14.7395 207.984 13.9791 207.099 13.9791Z" fill="#1C1C1B"/>
<path d="M202.125 14.0781H188.667C188.297 14.0781 187.995 14.3802 187.995 14.75C187.995 15.1198 188.297 15.4219 188.667 15.4219H202.125C202.495 15.4219 202.797 15.1198 202.797 14.75C202.797 14.3802 202.495 14.0781 202.125 14.0781Z" fill="#1C1C1B"/>
<path d="M103.057 5.98438H50.2708V36.3802C50.2708 46.7135 58.802 55.1198 69.2916 55.1198H122.083V24.724C122.083 14.3958 113.547 5.98438 103.057 5.98438Z" fill="#FCC42F"/>
<path d="M63.8072 29.677C59.0051 29.677 55.1145 33.5676 55.1145 38.3697C55.1145 43.1718 59.0051 47.0624 63.8072 47.0624C68.6145 47.0624 72.5051 43.1718 72.5051 38.3697C72.5051 33.5676 68.6145 29.677 63.8072 29.677Z" fill="white"/>
<path d="M69.4792 39.7865H65.2292V44.0417H62.3906V39.7865H58.1406V36.9531H62.3906V32.7031H65.2292V36.9531H69.4792" fill="#1C1C1B"/>
<path d="M55.9426 26.9167V17.5156H58.427V24.8333H61.9843V26.9167" fill="#1C1C1B"/>
<path d="M63.0989 26.9167V17.5156H69.1718V19.599H65.5885V21.0729H68.651V23.1562H65.5885V24.8333H69.3176V26.9167" fill="#1C1C1B"/>
<path d="M75.2448 26.9167V19.599H72.7604V17.5156H80.2239V19.599H77.7343V26.9167" fill="#1C1C1B"/>
<path d="M83.7083 21.7969H84.6042C85.6042 21.7969 86.1094 21.3802 86.1094 20.5521C86.1094 20.1458 85.9792 19.8698 85.724 19.7135C85.4688 19.5573 85.0938 19.4792 84.6042 19.4792H83.7083V21.7969ZM81.2188 26.9167V17.5156H84.776C85.2813 17.5156 85.7604 17.5625 86.2188 17.6562C86.6771 17.7552 87.0729 17.9219 87.4167 18.151C87.7604 18.3802 88.0313 18.6927 88.2344 19.0833C88.4375 19.474 88.5365 19.9635 88.5365 20.5521C88.5365 21.2292 88.401 21.7865 88.125 22.2292C87.8542 22.6719 87.4844 23.0208 87.0208 23.2708L89.0573 26.9167H86.2812L84.6615 23.7604H83.7083V26.9167" fill="#1C1C1B"/>
<path d="M90.026 26.9167H92.5156V17.5156H90.026V26.9167Z" fill="#1C1C1B"/>
<path d="M75.5364 43.5937V34.1926H81.6666V36.276H78.026V38.0676H81.1458V40.151H78.026V43.5937" fill="#1C1C1B"/>
<path d="M85.0781 39.0208L84.9166 39.6718H86.651L86.4948 39.0208C86.3802 38.5676 86.2604 38.078 86.1458 37.5468C86.0312 37.0155 85.9166 36.5155 85.7968 36.0416H85.7395C85.6354 36.526 85.526 37.0312 85.4166 37.552C85.3073 38.078 85.1927 38.5676 85.0781 39.0208ZM81.4635 43.5937L84.3229 34.1926H87.3281L90.1927 43.5937H87.5625L87.0989 41.5989H84.4687L84.0052 43.5937" fill="#1C1C1B"/>
<path d="M94.7187 43.7656C94.1249 43.7656 93.552 43.6667 93.0103 43.4688C92.4635 43.2708 91.9895 42.974 91.578 42.5729C91.1666 42.1719 90.8385 41.6719 90.5989 41.0677C90.3593 40.4688 90.2395 39.7656 90.2395 38.9635C90.2395 38.1771 90.3645 37.474 90.6145 36.8594C90.8645 36.25 91.1978 35.7344 91.6197 35.3125C92.0364 34.8958 92.5208 34.5729 93.0676 34.349C93.6145 34.1302 94.1822 34.0156 94.7812 34.0156C95.4062 34.0156 95.9687 34.1406 96.4583 34.3854C96.953 34.6354 97.3645 34.9271 97.703 35.2604L96.401 36.8542C96.1718 36.651 95.9322 36.4844 95.6874 36.3542C95.4374 36.224 95.1562 36.1562 94.8385 36.1562C94.5572 36.1562 94.2968 36.2188 94.052 36.349C93.8072 36.474 93.5885 36.651 93.401 36.8802C93.2135 37.1146 93.0624 37.401 92.953 37.7344C92.8385 38.0729 92.7864 38.4531 92.7864 38.875C92.7864 39.7656 92.9687 40.4479 93.3437 40.9167C93.7135 41.3906 94.203 41.625 94.8072 41.625C95.177 41.625 95.4999 41.5469 95.7864 41.3854C96.0676 41.2292 96.3124 41.0365 96.5155 40.8177L97.8176 42.375C97.4114 42.8438 96.9478 43.1875 96.4218 43.4167C95.8958 43.651 95.328 43.7656 94.7187 43.7656Z" fill="#1C1C1B"/>
<path d="M98.776 43.5937H101.26V34.1926H98.776V43.5937Z" fill="#1C1C1B"/>
<path d="M103.031 43.5937V34.1926H105.521V41.5103H109.078V43.5937" fill="#1C1C1B"/>
<path d="M110.188 43.5937V34.1926H116.266V36.276H112.677V37.7499H115.745V39.8333H112.677V41.5103H116.411V43.5937" fill="#1C1C1B"/>
<path d="M28.5624 26.0625C26.8697 28.5521 28.3072 31.8281 30.052 33.4896C31.6458 35 32.9218 35.3594 33.0885 35.401L33.901 33.8438L36.2447 40.2552L29.6197 41.599L30.4999 39.9688L29.6041 39.4635C26.8124 37.6458 26.2239 35.1771 26.0312 34.4062C25.6978 33.0781 25.203 29.1094 28.5624 26.0625Z" fill="#1C1C1B"/>
<path d="M28.5312 26.1718C29.7344 28.927 33.2708 29.4635 35.6042 28.8697C37.6771 28.3437 38.6615 27.4895 38.8281 27.3333L38.8177 27.3176L37.9323 25.7864L44.599 27.2395L42.1875 33.5572L41.2917 31.9687L40.4219 32.4374C37.3958 33.828 34.9896 33.0103 34.2344 32.7603C32.9375 32.3333 29.3125 30.6353 28.5312 26.1718Z" fill="#1C1C1B"/>
<path d="M40.3177 19.5156C39.8541 22.8125 37.8698 24.3958 37.25 24.8958C36.1875 25.7552 32.802 27.8854 28.6198 26.1354C31.5937 26.6094 33.9531 23.9271 34.7135 21.6406C35.401 19.5885 35.1979 18.2917 35.1562 18.0885H35.1354L33.3698 18.0104L38.1823 13.1719L42.2083 18.6094L40.3906 18.5052" fill="#1C1C1B"/>
<path fill-rule="evenodd" clip-rule="evenodd" d="M20.0938 16.7291C18.5729 16.7291 17.3438 15.4999 17.3438 13.9791C17.3438 12.4583 18.5729 11.2239 20.0938 11.2239C21.6146 11.2239 22.849 12.4583 22.849 13.9791C22.849 15.4999 21.6146 16.7291 20.0938 16.7291Z" fill="#1C1C1B"/>
<path d="M15.8333 30.1146C16.0677 29.4688 16.4167 29.5104 16.4167 29.5104C16.4167 29.5104 16.7344 29.4427 16.9115 30.0938L19.4844 39.125C17.3385 38.5052 15.3802 37.4375 13.7135 36.0312L15.8333 30.1146ZM23.8594 5.98438C13.9167 5.98438 5.82812 14.0729 5.82812 24.0208C5.82812 33.9583 13.9167 42.0521 23.8594 42.0521C24.3906 42.0521 24.9115 42.0156 25.4323 41.9688L25.5521 43.7812L28.8542 40.5885L25.1615 37.776L25.3021 39.6771C24.8281 39.7188 24.3438 39.75 23.8594 39.75C23.0938 39.75 22.3438 39.6927 21.6094 39.5885L21.5365 39.1094L19.8229 24.5104C19.5885 21.7552 21.1615 21.3125 22.1354 21.7292L27.6042 23.9219C28.2292 24.1927 28.5312 23.6719 28.5312 23.6719C28.5312 23.6719 28.8854 23.1198 28.25 22.7135C28.25 22.7135 20.7969 17.776 19.2083 17.4792C17.0417 17.0729 14.8958 18.8281 14.4219 21.1146L11.776 34.0833C9.5 31.349 8.125 27.8438 8.125 24.0208C8.125 15.3438 15.1823 8.28646 23.8594 8.28646C28.4948 8.28646 32.6667 10.3021 35.5469 13.4948L37.1615 11.8594C33.8646 8.25 29.1198 5.98438 23.8594 5.98438Z" fill="#1C1C1B"/>
<path d="M130.583 39.152H131.031C131.309 39.152 131.533 39.0907 131.703 38.968C131.874 38.8453 131.959 38.6187 131.959 38.288C131.959 38.1227 131.935 37.9867 131.887 37.88C131.845 37.768 131.783 37.68 131.703 37.616C131.629 37.5467 131.538 37.4987 131.431 37.472C131.325 37.4453 131.207 37.432 131.079 37.432H130.583V39.152ZM130.583 36.632H130.911C131.231 36.632 131.463 36.576 131.607 36.464C131.757 36.3467 131.831 36.152 131.831 35.88C131.831 35.608 131.765 35.416 131.631 35.304C131.498 35.192 131.287 35.136 130.999 35.136H130.583V36.632ZM129.431 34.288H131.359C131.594 34.288 131.81 34.312 132.007 34.36C132.21 34.408 132.383 34.488 132.527 34.6C132.671 34.712 132.783 34.8613 132.863 35.048C132.943 35.2347 132.983 35.464 132.983 35.736C132.983 36.0453 132.911 36.312 132.767 36.536C132.623 36.7547 132.407 36.904 132.119 36.984V37C132.439 37.0427 132.693 37.1787 132.879 37.408C133.066 37.6373 133.159 37.944 133.159 38.328C133.159 38.552 133.13 38.7653 133.071 38.968C133.013 39.1707 132.911 39.3493 132.767 39.504C132.629 39.6533 132.445 39.7733 132.215 39.864C131.991 39.9547 131.711 40 131.375 40H129.431V34.288ZM134.909 37.144C134.909 37.528 134.917 37.856 134.933 38.128C134.954 38.3947 134.991 38.6133 135.045 38.784C135.103 38.9493 135.183 39.072 135.285 39.152C135.391 39.2267 135.53 39.264 135.701 39.264C135.871 39.264 136.007 39.2267 136.109 39.152C136.215 39.072 136.295 38.9493 136.349 38.784C136.407 38.6133 136.445 38.3947 136.461 38.128C136.482 37.856 136.493 37.528 136.493 37.144C136.493 36.76 136.482 36.4347 136.461 36.168C136.445 35.9013 136.407 35.6827 136.349 35.512C136.295 35.3413 136.215 35.2187 136.109 35.144C136.007 35.064 135.871 35.024 135.701 35.024C135.53 35.024 135.391 35.064 135.285 35.144C135.183 35.2187 135.103 35.3413 135.045 35.512C134.991 35.6827 134.954 35.9013 134.933 36.168C134.917 36.4347 134.909 36.76 134.909 37.144ZM133.757 37.144C133.757 36.712 133.775 36.3147 133.813 35.952C133.855 35.584 133.943 35.2693 134.077 35.008C134.215 34.7467 134.413 34.544 134.669 34.4C134.925 34.2507 135.269 34.176 135.701 34.176C136.133 34.176 136.477 34.2507 136.733 34.4C136.989 34.544 137.183 34.7467 137.317 35.008C137.455 35.2693 137.543 35.584 137.581 35.952C137.623 36.3147 137.645 36.712 137.645 37.144C137.645 37.5813 137.623 37.9813 137.581 38.344C137.543 38.7067 137.455 39.0187 137.317 39.28C137.183 39.5413 136.989 39.7413 136.733 39.88C136.477 40.0187 136.133 40.088 135.701 40.088C135.269 40.088 134.925 40.0187 134.669 39.88C134.413 39.7413 134.215 39.5413 134.077 39.28C133.943 39.0187 133.855 38.7067 133.813 38.344C133.775 37.9813 133.757 37.5813 133.757 37.144ZM138.378 32.8H139.53L140.154 33.952H139.306L138.938 33.272L138.554 33.952H137.778L138.378 32.8ZM138.378 40V34.288H139.53V40H138.378ZM143.728 34.288V35.232H142.48V40H141.328V35.232H140.08V34.288H143.728ZM147.42 34.288V35.232H145.38V36.576H147.3V37.52H145.38V39.056H147.5V40H144.228V34.288H147.42ZM153.194 34.288V35.232H151.154V36.576H153.074V37.52H151.154V39.056H153.274V40H150.002V34.288H153.194ZM155.181 34.288L156.573 38.2H156.589V34.288H157.645V40H156.333L154.925 36H154.909V40H153.853V34.288H155.181ZM134.375 46.216C134.375 45.8 134.324 45.4987 134.223 45.312C134.127 45.12 133.948 45.024 133.687 45.024C133.543 45.024 133.423 45.064 133.327 45.144C133.236 45.2187 133.164 45.344 133.111 45.52C133.058 45.6907 133.02 45.9173 132.999 46.2C132.978 46.4773 132.967 46.8187 132.967 47.224C132.967 47.656 132.98 48.0053 133.007 48.272C133.039 48.5387 133.084 48.7467 133.143 48.896C133.207 49.04 133.284 49.1387 133.375 49.192C133.471 49.24 133.58 49.264 133.703 49.264C133.804 49.264 133.898 49.248 133.983 49.216C134.074 49.1787 134.151 49.1093 134.215 49.008C134.279 48.9013 134.33 48.7547 134.367 48.568C134.404 48.376 134.423 48.1253 134.423 47.816H135.575C135.575 48.1253 135.551 48.4187 135.503 48.696C135.455 48.9733 135.364 49.216 135.231 49.424C135.103 49.632 134.919 49.7947 134.679 49.912C134.444 50.0293 134.138 50.088 133.759 50.088C133.327 50.088 132.983 50.0187 132.727 49.88C132.471 49.7413 132.274 49.5413 132.135 49.28C132.002 49.0187 131.914 48.7067 131.871 48.344C131.834 47.9813 131.815 47.5813 131.815 47.144C131.815 46.712 131.834 46.3147 131.871 45.952C131.914 45.584 132.002 45.2693 132.135 45.008C132.274 44.7467 132.471 44.544 132.727 44.4C132.983 44.2507 133.327 44.176 133.759 44.176C134.17 44.176 134.492 44.2427 134.727 44.376C134.967 44.5093 135.146 44.68 135.263 44.888C135.38 45.0907 135.452 45.312 135.479 45.552C135.511 45.7867 135.527 46.008 135.527 46.216H134.375ZM138.616 47.848L138.064 45.28H138.048L137.496 47.848H138.616ZM138.768 44.288L140.28 50H139.08L138.816 48.792H137.296L137.032 50H135.832L137.344 44.288H138.768ZM140.677 44.288H142.805C143.285 44.288 143.659 44.4107 143.925 44.656C144.192 44.896 144.325 45.264 144.325 45.76C144.325 46.144 144.248 46.4587 144.093 46.704C143.939 46.944 143.699 47.0987 143.373 47.168V47.184C143.661 47.2267 143.872 47.32 144.005 47.464C144.139 47.608 144.221 47.84 144.253 48.16C144.264 48.2667 144.272 48.384 144.277 48.512C144.283 48.6347 144.288 48.7733 144.293 48.928C144.304 49.232 144.32 49.464 144.341 49.624C144.373 49.784 144.443 49.8933 144.549 49.952V50H143.301C143.243 49.92 143.205 49.8293 143.189 49.728C143.173 49.6213 143.163 49.512 143.157 49.4L143.125 48.304C143.115 48.08 143.059 47.904 142.957 47.776C142.856 47.648 142.685 47.584 142.445 47.584H141.829V50H140.677V44.288ZM141.829 46.784H142.309C142.587 46.784 142.8 46.72 142.949 46.592C143.099 46.4587 143.173 46.2373 143.173 45.928C143.173 45.4 142.907 45.136 142.373 45.136H141.829V46.784ZM148.326 44.288V45.232H147.078V50H145.926V45.232H144.678V44.288H148.326ZM149.858 47.144C149.858 47.528 149.866 47.856 149.882 48.128C149.903 48.3947 149.94 48.6133 149.994 48.784C150.052 48.9493 150.132 49.072 150.234 49.152C150.34 49.2267 150.479 49.264 150.65 49.264C150.82 49.264 150.956 49.2267 151.058 49.152C151.164 49.072 151.244 48.9493 151.298 48.784C151.356 48.6133 151.394 48.3947 151.41 48.128C151.431 47.856 151.442 47.528 151.442 47.144C151.442 46.76 151.431 46.4347 151.41 46.168C151.394 45.9013 151.356 45.6827 151.298 45.512C151.244 45.3413 151.164 45.2187 151.058 45.144C150.956 45.064 150.82 45.024 150.65 45.024C150.479 45.024 150.34 45.064 150.234 45.144C150.132 45.2187 150.052 45.3413 149.994 45.512C149.94 45.6827 149.903 45.9013 149.882 46.168C149.866 46.4347 149.858 46.76 149.858 47.144ZM148.706 47.144C148.706 46.712 148.724 46.3147 148.762 45.952C148.804 45.584 148.892 45.2693 149.026 45.008C149.164 44.7467 149.362 44.544 149.618 44.4C149.874 44.2507 150.218 44.176 150.65 44.176C151.082 44.176 151.426 44.2507 151.682 44.4C151.938 44.544 152.132 44.7467 152.266 45.008C152.404 45.2693 152.492 45.584 152.53 45.952C152.572 46.3147 152.594 46.712 152.594 47.144C152.594 47.5813 152.572 47.9813 152.53 48.344C152.492 48.7067 152.404 49.0187 152.266 49.28C152.132 49.5413 151.938 49.7413 151.682 49.88C151.426 50.0187 151.082 50.088 150.65 50.088C150.218 50.088 149.874 50.0187 149.618 49.88C149.362 49.7413 149.164 49.5413 149.026 49.28C148.892 49.0187 148.804 48.7067 148.762 48.344C148.724 47.9813 148.706 47.5813 148.706 47.144ZM154.599 44.288L155.991 48.2H156.007V44.288H157.063V50H155.751L154.343 46H154.327V50H153.271V44.288H154.599Z" fill="#1C1C1B"/>
<path d="M141.331 27.5341L141.249 25.407C141.249 25.3991 141.245 25.3913 141.245 25.3834L155.918 18.5853L155.852 20.2524L141.331 27.5341ZM131.321 18.7111L131.219 17.8579L136.755 22.6665C136.743 22.7098 136.719 22.7491 136.712 22.7963C136.676 23.0204 136.712 23.3546 137.069 23.6888C137.573 24.1567 138.229 24.1606 138.689 24.0505L140.494 25.4148C140.541 25.4463 140.592 25.4738 140.643 25.4896L140.71 27.2353L131.321 18.7111ZM144.217 13.1044L152.6 17.0126C152.718 17.0676 152.859 17.0716 152.985 17.0362C152.985 17.0362 153.312 16.9929 153.508 17.0834C153.508 17.107 153.508 17.1345 153.512 17.1581C153.532 17.3429 153.65 17.5001 153.815 17.5788L154.652 17.972L140.883 24.369L139.11 23.0322C138.957 22.9182 138.752 22.8946 138.579 22.9693C138.575 22.9693 138.127 23.1501 137.84 22.9417C137.84 22.9378 137.844 22.9378 137.848 22.9339C138.013 22.8592 138.123 22.7019 138.151 22.525C138.174 22.3441 138.103 22.1672 137.966 22.0492L131.781 16.7413L144.217 13.1044ZM156.693 17.7439L154.613 16.7728C154.55 16.5329 154.361 16.3285 154.055 16.1633C153.787 16.0218 153.492 15.9471 153.182 15.9471C153.068 15.9471 152.97 15.9589 152.887 15.9707L144.485 12.0507C144.367 11.9956 144.237 11.9838 144.111 12.0232L130.381 16.0375C130.366 16.0414 130.354 16.0532 130.338 16.0611C130.311 16.069 130.287 16.0847 130.259 16.0965C130.224 16.1201 130.193 16.1437 130.165 16.1712C130.153 16.183 130.138 16.1869 130.126 16.1987C130.122 16.2105 130.118 16.2184 130.11 16.2262C130.086 16.2616 130.067 16.3009 130.047 16.3403C130.039 16.3599 130.028 16.3796 130.02 16.4032C130.008 16.4425 130.008 16.4857 130.004 16.5251C130.004 16.5526 130 16.5762 130 16.5998C130 16.6037 130 16.6076 130 16.6116L130.283 19.0335C130.299 19.1633 130.358 19.2812 130.456 19.3677L140.694 28.6625C140.797 28.7529 140.926 28.8001 141.056 28.8001C141.135 28.8001 141.217 28.7844 141.292 28.7451L156.614 21.0663C156.787 20.9759 156.901 20.8029 156.909 20.6063L157 18.2472C157.008 18.0309 156.886 17.8343 156.693 17.7439Z" fill="#1C1C1B"/>
</g>
<defs>
<clipPath id="clip0_11_147">
<rect width="227" height="61" fill="white"/>
</clipPath>
</defs>
</svg>
