<svg width="227" height="61" viewBox="0 0 227 61" fill="none" xmlns="http://www.w3.org/2000/svg">
<g clip-path="url(#clip0_137_7)">
<path d="M24.8542 60.7916C11.2344 60.7916 0.15625 49.8385 0.15625 36.3801V0.317627H201.323C214.938 0.317627 226.016 11.2655 226.016 24.7239L226.021 60.7916" fill="white"/>
<path d="M201.323 5.98438H50.2708V36.3802C50.2708 46.7135 58.802 55.1198 69.2916 55.1198H220.349V24.724C220.349 14.3958 211.812 5.98438 201.323 5.98438Z" fill="white"/>
<path d="M218.458 53.2292H69.2916C59.8437 53.2292 52.1562 45.6719 52.1562 36.3802V7.875H201.323C210.771 7.875 218.458 15.4323 218.458 24.724V53.2292ZM201.323 5.98438H50.2708V36.3802C50.2708 46.7135 58.802 55.1198 69.2916 55.1198H220.349V24.724C220.349 14.3958 211.812 5.98438 201.323 5.98438Z" fill="#FCC42F"/>
<path d="M163.089 55.1198L176.099 28.5417L162.807 5.98438H201.323C211.812 5.98438 220.349 14.3906 220.349 24.724V55.1198" fill="#FCC42F"/>
<path d="M201.323 7.875H166.115L178.245 28.4583L166.12 53.2292H218.458V24.724C218.458 15.4323 210.771 7.875 201.323 7.875Z" fill="#FCC42F"/>
<path d="M206.281 41.6615H205.078C204.979 41.6615 204.885 41.6719 204.792 41.6875C205.354 35.4323 206.224 25.7708 206.646 21.3958C206.687 20.9531 206.359 20.5573 205.917 20.5156C205.464 20.4635 205.073 20.7969 205.031 21.2448C204.385 27.9635 202.677 47.1458 202.661 47.3385C202.63 47.6615 202.312 47.9271 201.943 47.9271H188.854C188.479 47.9271 188.167 47.6615 188.135 47.3385C188.12 47.1458 186.411 27.9635 185.766 21.2448C185.724 20.7969 185.333 20.4635 184.88 20.5156C184.437 20.5573 184.109 20.9531 184.151 21.3958C184.573 25.7708 185.443 35.4271 186.005 41.6875C185.911 41.6667 185.812 41.6562 185.719 41.6562H184.516C183.74 41.6562 183.104 42.2917 183.104 43.0677V48.1406C183.104 48.9167 183.74 49.5469 184.516 49.5469H185.719C186.297 49.5469 186.802 49.1927 187.016 48.6823C187.443 49.2135 188.104 49.5469 188.854 49.5469H201.943C202.687 49.5469 203.349 49.2135 203.781 48.6875C203.995 49.1927 204.495 49.5521 205.078 49.5521H206.281C207.057 49.5521 207.687 48.9219 207.687 48.1406V43.0677C207.687 42.2917 207.057 41.6615 206.281 41.6615Z" fill="#1C1C1B"/>
<path d="M190.344 25.1198V27.4115H191.016C191.411 27.4115 191.625 27.2292 191.625 26.6771V26.026C191.625 25.3333 191.401 25.1198 190.865 25.1198H190.344ZM190.344 22.0833V24.0521H190.802C191.24 24.0521 191.505 23.8646 191.505 23.2656V22.849C191.505 22.3125 191.323 22.0833 190.906 22.0833H190.344ZM192.677 22.7344V23C192.677 23.7656 192.443 24.2448 191.922 24.4896V24.5104C192.547 24.7604 192.797 25.3125 192.797 26.099V26.7083C192.797 27.8594 192.187 28.4792 191.016 28.4792H189.172V21.0156H190.938C192.156 21.0156 192.677 21.5833 192.677 22.7344Z" fill="#1C1C1B"/>
<path d="M194.833 26.1146H195.964L195.411 22.3385H195.385L194.833 26.1146ZM197.51 28.4792H196.328L196.125 27.125H194.688L194.479 28.4792H193.406L194.599 21.0156H196.313" fill="#1C1C1B"/>
<path d="M201.661 25.6926V26.6874C201.661 27.8801 201.062 28.5624 199.911 28.5624C198.76 28.5624 198.161 27.8801 198.161 26.6874V22.8072C198.161 21.6093 198.76 20.927 199.911 20.927C201.062 20.927 201.661 21.6093 201.661 22.8072V23.5312H200.552V22.7291C200.552 22.1978 200.318 21.9947 199.943 21.9947C199.573 21.9947 199.338 22.1978 199.338 22.7291V26.7603C199.338 27.2916 199.573 27.4843 199.943 27.4843C200.318 27.4843 200.552 27.2916 200.552 26.7603V25.6926" fill="#1C1C1B"/>
<path d="M192.703 31.2083V36.5365H193.365C193.734 36.5365 193.958 36.3438 193.958 35.8125V31.9323C193.958 31.401 193.734 31.2083 193.365 31.2083H192.703ZM191.531 30.1406H193.385C194.557 30.1406 195.13 30.7917 195.13 31.9844V35.7604C195.13 36.9531 194.557 37.6042 193.385 37.6042H191.531" fill="#1C1C1B"/>
<path d="M197.266 33.2865H198.875V34.349H197.266V36.5365H199.292V37.6042H196.094V30.1406H199.292V31.2031H197.266" fill="#1C1C1B"/>
<path d="M190.161 39.2656H193.786V40.3281H192.562V46.7292H191.385V40.3281H190.161" fill="#1C1C1B"/>
<path d="M195.688 40.3281V42.625H196.146C196.583 42.625 196.849 42.4323 196.849 41.8333V41.099C196.849 40.5677 196.667 40.3281 196.25 40.3281H195.688ZM196.969 46.7292C196.901 46.5365 196.859 46.4167 196.859 45.8125V44.6354C196.859 43.9479 196.625 43.6875 196.094 43.6875H195.688V46.7292H194.516V39.2656H196.286C197.5 39.2656 198.021 39.8281 198.021 40.9792V41.5677C198.021 42.3333 197.776 42.8229 197.255 43.0729V43.0938C197.839 43.3385 198.031 43.8906 198.031 44.6719V45.8229C198.031 46.1823 198.042 46.4531 198.161 46.7292" fill="#1C1C1B"/>
<path d="M199.016 46.7292H200.188V39.2656H199.016V46.7292Z" fill="#1C1C1B"/>
<path d="M207.125 17.6197H183.672V15.6666C183.672 15.5989 183.703 15.5676 183.698 15.5676H185.396C185.589 15.5676 185.771 15.4999 185.917 15.3697L188.047 13.5103C188.141 13.427 188.37 13.3437 188.661 13.3437H202.13C202.422 13.3437 202.656 13.427 202.75 13.5103L204.88 15.3697C205.026 15.4999 205.208 15.5676 205.401 15.5676H207.099C207.089 15.5676 207.125 15.5989 207.125 15.6666V17.6197ZM207.099 13.9791H205.698L203.792 12.3176C203.385 11.9583 202.781 11.7551 202.13 11.7551H188.661C188.016 11.7551 187.411 11.9583 187 12.3176L185.094 13.9791H183.698C182.807 13.9791 182.089 14.7395 182.089 15.6666V17.8124C182.089 18.1093 182.161 18.401 182.307 18.6614C182.37 18.7708 182.458 18.8697 182.562 18.9374C182.823 19.1093 183.12 19.1978 183.427 19.1978H207.37C207.677 19.1978 207.974 19.1093 208.234 18.9374C208.339 18.8697 208.427 18.7708 208.49 18.6614C208.63 18.401 208.708 18.1093 208.708 17.8124V15.6666C208.708 14.7395 207.984 13.9791 207.099 13.9791Z" fill="#1C1C1B"/>
<path d="M202.125 14.0781H188.667C188.297 14.0781 187.995 14.3802 187.995 14.75C187.995 15.1198 188.297 15.4219 188.667 15.4219H202.125C202.495 15.4219 202.797 15.1198 202.797 14.75C202.797 14.3802 202.495 14.0781 202.125 14.0781Z" fill="#1C1C1B"/>
<path d="M103.057 5.98438H50.2708V36.3802C50.2708 46.7135 58.802 55.1198 69.2916 55.1198H122.083V24.724C122.083 14.3958 113.547 5.98438 103.057 5.98438Z" fill="#FCC42F"/>
<path d="M63.8072 29.677C59.0051 29.677 55.1145 33.5676 55.1145 38.3697C55.1145 43.1718 59.0051 47.0624 63.8072 47.0624C68.6145 47.0624 72.5051 43.1718 72.5051 38.3697C72.5051 33.5676 68.6145 29.677 63.8072 29.677Z" fill="white"/>
<path d="M69.4792 39.7865H65.2292V44.0417H62.3906V39.7865H58.1406V36.9531H62.3906V32.7031H65.2292V36.9531H69.4792" fill="#1C1C1B"/>
<path d="M55.9426 26.9167V17.5156H58.427V24.8333H61.9843V26.9167" fill="#1C1C1B"/>
<path d="M63.0989 26.9167V17.5156H69.1718V19.599H65.5885V21.0729H68.651V23.1563H65.5885V24.8333H69.3176V26.9167" fill="#1C1C1B"/>
<path d="M75.2448 26.9167V19.599H72.7604V17.5156H80.2239V19.599H77.7343V26.9167" fill="#1C1C1B"/>
<path d="M83.7083 21.7969H84.6042C85.6042 21.7969 86.1094 21.3802 86.1094 20.5521C86.1094 20.1458 85.9792 19.8698 85.724 19.7135C85.4688 19.5573 85.0938 19.4792 84.6042 19.4792H83.7083V21.7969ZM81.2188 26.9167V17.5156H84.776C85.2813 17.5156 85.7604 17.5625 86.2188 17.6563C86.6771 17.7552 87.0729 17.9219 87.4167 18.151C87.7604 18.3802 88.0313 18.6927 88.2344 19.0833C88.4375 19.474 88.5365 19.9635 88.5365 20.5521C88.5365 21.2292 88.401 21.7865 88.125 22.2292C87.8542 22.6719 87.4844 23.0208 87.0208 23.2708L89.0573 26.9167H86.2813L84.6615 23.7604H83.7083V26.9167" fill="#1C1C1B"/>
<path d="M90.026 26.9167H92.5156V17.5156H90.026V26.9167Z" fill="#1C1C1B"/>
<path d="M75.5364 43.5937V34.1926H81.6666V36.276H78.026V38.0676H81.1458V40.151H78.026V43.5937" fill="#1C1C1B"/>
<path d="M85.0781 39.0208L84.9166 39.6718H86.651L86.4948 39.0208C86.3802 38.5676 86.2604 38.078 86.1458 37.5468C86.0312 37.0155 85.9166 36.5155 85.7968 36.0416H85.7395C85.6354 36.526 85.526 37.0312 85.4166 37.552C85.3073 38.078 85.1927 38.5676 85.0781 39.0208ZM81.4635 43.5937L84.3229 34.1926H87.3281L90.1927 43.5937H87.5625L87.0989 41.5989H84.4687L84.0052 43.5937" fill="#1C1C1B"/>
<path d="M94.7187 43.7656C94.1249 43.7656 93.552 43.6667 93.0103 43.4688C92.4635 43.2708 91.9895 42.974 91.578 42.5729C91.1666 42.1719 90.8385 41.6719 90.5989 41.0677C90.3593 40.4688 90.2395 39.7656 90.2395 38.9635C90.2395 38.1771 90.3645 37.474 90.6145 36.8594C90.8645 36.25 91.1978 35.7344 91.6197 35.3125C92.0364 34.8958 92.5208 34.5729 93.0676 34.349C93.6145 34.1302 94.1822 34.0156 94.7812 34.0156C95.4062 34.0156 95.9687 34.1406 96.4583 34.3854C96.953 34.6354 97.3645 34.9271 97.703 35.2604L96.401 36.8542C96.1718 36.651 95.9322 36.4844 95.6874 36.3542C95.4374 36.224 95.1562 36.1563 94.8385 36.1563C94.5572 36.1563 94.2968 36.2188 94.052 36.349C93.8072 36.474 93.5885 36.651 93.401 36.8802C93.2135 37.1146 93.0624 37.401 92.953 37.7344C92.8385 38.0729 92.7864 38.4531 92.7864 38.875C92.7864 39.7656 92.9687 40.4479 93.3437 40.9167C93.7135 41.3906 94.203 41.625 94.8072 41.625C95.177 41.625 95.4999 41.5469 95.7864 41.3854C96.0676 41.2292 96.3124 41.0365 96.5155 40.8177L97.8176 42.375C97.4114 42.8438 96.9478 43.1875 96.4218 43.4167C95.8958 43.651 95.328 43.7656 94.7187 43.7656Z" fill="#1C1C1B"/>
<path d="M98.776 43.5937H101.26V34.1926H98.776V43.5937Z" fill="#1C1C1B"/>
<path d="M103.031 43.5937V34.1926H105.521V41.5103H109.078V43.5937" fill="#1C1C1B"/>
<path d="M110.188 43.5937V34.1926H116.266V36.276H112.677V37.7499H115.745V39.8333H112.677V41.5103H116.411V43.5937" fill="#1C1C1B"/>
<path d="M28.5624 26.0625C26.8697 28.5521 28.3072 31.8281 30.052 33.4896C31.6458 35 32.9218 35.3594 33.0885 35.401L33.901 33.8438L36.2447 40.2552L29.6197 41.599L30.4999 39.9688L29.6041 39.4635C26.8124 37.6458 26.2239 35.1771 26.0312 34.4063C25.6978 33.0781 25.203 29.1094 28.5624 26.0625Z" fill="#1C1C1B"/>
<path d="M28.5312 26.1718C29.7344 28.927 33.2708 29.4635 35.6042 28.8697C37.6771 28.3437 38.6615 27.4895 38.8281 27.3333L38.8177 27.3176L37.9323 25.7864L44.599 27.2395L42.1875 33.5572L41.2917 31.9687L40.4219 32.4374C37.3958 33.828 34.9896 33.0103 34.2344 32.7603C32.9375 32.3333 29.3125 30.6353 28.5312 26.1718Z" fill="#1C1C1B"/>
<path d="M40.3177 19.5156C39.8541 22.8125 37.8698 24.3958 37.25 24.8958C36.1875 25.7552 32.802 27.8854 28.6198 26.1354C31.5937 26.6094 33.9531 23.9271 34.7135 21.6406C35.401 19.5885 35.1979 18.2917 35.1562 18.0885H35.1354L33.3698 18.0104L38.1823 13.1719L42.2083 18.6094L40.3906 18.5052" fill="#1C1C1B"/>
<path fill-rule="evenodd" clip-rule="evenodd" d="M20.0938 16.7291C18.5729 16.7291 17.3438 15.4999 17.3438 13.9791C17.3438 12.4583 18.5729 11.2239 20.0938 11.2239C21.6146 11.2239 22.849 12.4583 22.849 13.9791C22.849 15.4999 21.6146 16.7291 20.0938 16.7291Z" fill="#1C1C1B"/>
<path d="M15.8333 30.1146C16.0677 29.4688 16.4167 29.5104 16.4167 29.5104C16.4167 29.5104 16.7344 29.4427 16.9115 30.0938L19.4844 39.125C17.3385 38.5052 15.3802 37.4375 13.7135 36.0313L15.8333 30.1146ZM23.8594 5.98438C13.9167 5.98438 5.82812 14.0729 5.82812 24.0208C5.82812 33.9583 13.9167 42.0521 23.8594 42.0521C24.3906 42.0521 24.9115 42.0156 25.4323 41.9688L25.5521 43.7813L28.8542 40.5885L25.1615 37.776L25.3021 39.6771C24.8281 39.7188 24.3438 39.75 23.8594 39.75C23.0938 39.75 22.3438 39.6927 21.6094 39.5885L21.5365 39.1094L19.8229 24.5104C19.5885 21.7552 21.1615 21.3125 22.1354 21.7292L27.6042 23.9219C28.2292 24.1927 28.5313 23.6719 28.5313 23.6719C28.5313 23.6719 28.8854 23.1198 28.25 22.7135C28.25 22.7135 20.7969 17.776 19.2083 17.4792C17.0417 17.0729 14.8958 18.8281 14.4219 21.1146L11.776 34.0833C9.5 31.349 8.125 27.8438 8.125 24.0208C8.125 15.3438 15.1823 8.28646 23.8594 8.28646C28.4948 8.28646 32.6667 10.3021 35.5469 13.4948L37.1615 11.8594C33.8646 8.25 29.1198 5.98438 23.8594 5.98438Z" fill="#1C1C1B"/>
<path d="M135.54 39.152H135.988C136.266 39.152 136.49 39.0907 136.66 38.968C136.831 38.8453 136.916 38.6187 136.916 38.288C136.916 38.1227 136.892 37.9867 136.844 37.88C136.802 37.768 136.74 37.68 136.66 37.616C136.586 37.5467 136.495 37.4987 136.388 37.472C136.282 37.4453 136.164 37.432 136.036 37.432H135.54V39.152ZM135.54 36.632H135.868C136.188 36.632 136.42 36.576 136.564 36.464C136.714 36.3467 136.788 36.152 136.788 35.88C136.788 35.608 136.722 35.416 136.588 35.304C136.455 35.192 136.244 35.136 135.956 35.136H135.54V36.632ZM134.388 34.288H136.316C136.551 34.288 136.767 34.312 136.964 34.36C137.167 34.408 137.34 34.488 137.484 34.6C137.628 34.712 137.74 34.8613 137.82 35.048C137.9 35.2347 137.94 35.464 137.94 35.736C137.94 36.0453 137.868 36.312 137.724 36.536C137.58 36.7547 137.364 36.904 137.076 36.984V37C137.396 37.0427 137.65 37.1787 137.836 37.408C138.023 37.6373 138.116 37.944 138.116 38.328C138.116 38.552 138.087 38.7653 138.028 38.968C137.97 39.1707 137.868 39.3493 137.724 39.504C137.586 39.6533 137.402 39.7733 137.172 39.864C136.948 39.9547 136.668 40 136.332 40H134.388V34.288ZM141.218 37.848L140.666 35.28H140.65L140.098 37.848H141.218ZM141.37 34.288L142.882 40H141.682L141.418 38.792H139.898L139.634 40H138.434L139.946 34.288H141.37ZM143.279 34.288H145.407C145.887 34.288 146.26 34.4107 146.527 34.656C146.794 34.896 146.927 35.264 146.927 35.76C146.927 36.144 146.85 36.4587 146.695 36.704C146.54 36.944 146.3 37.0987 145.975 37.168V37.184C146.263 37.2267 146.474 37.32 146.607 37.464C146.74 37.608 146.823 37.84 146.855 38.16C146.866 38.2667 146.874 38.384 146.879 38.512C146.884 38.6347 146.89 38.7733 146.895 38.928C146.906 39.232 146.922 39.464 146.943 39.624C146.975 39.784 147.044 39.8933 147.151 39.952V40H145.903C145.844 39.92 145.807 39.8293 145.791 39.728C145.775 39.6213 145.764 39.512 145.759 39.4L145.727 38.304C145.716 38.08 145.66 37.904 145.559 37.776C145.458 37.648 145.287 37.584 145.047 37.584H144.431V40H143.279V34.288ZM144.431 36.784H144.911C145.188 36.784 145.402 36.72 145.551 36.592C145.7 36.4587 145.775 36.2373 145.775 35.928C145.775 35.4 145.508 35.136 144.975 35.136H144.431V36.784ZM147.78 40V34.288H148.932V40H147.78ZM149.787 40V34.288H150.939V39.056H152.979V40H149.787ZM129.944 44.288V45.232H127.904V46.576H129.824V47.52H127.904V49.056H130.024V50H126.752V44.288H129.944ZM131.931 44.288L133.323 48.2H133.339V44.288H134.395V50H133.083L131.675 46H131.659V50H130.603V44.288H131.931ZM139.559 46.216C139.559 45.8 139.508 45.4987 139.407 45.312C139.311 45.12 139.132 45.024 138.871 45.024C138.727 45.024 138.607 45.064 138.511 45.144C138.42 45.2187 138.348 45.344 138.295 45.52C138.241 45.6907 138.204 45.9173 138.183 46.2C138.161 46.4773 138.151 46.8187 138.151 47.224C138.151 47.656 138.164 48.0053 138.191 48.272C138.223 48.5387 138.268 48.7467 138.327 48.896C138.391 49.04 138.468 49.1387 138.559 49.192C138.655 49.24 138.764 49.264 138.887 49.264C138.988 49.264 139.081 49.248 139.167 49.216C139.257 49.1787 139.335 49.1093 139.399 49.008C139.463 48.9013 139.513 48.7547 139.551 48.568C139.588 48.376 139.607 48.1253 139.607 47.816H140.759C140.759 48.1253 140.735 48.4187 140.687 48.696C140.639 48.9733 140.548 49.216 140.415 49.424C140.287 49.632 140.103 49.7947 139.863 49.912C139.628 50.0293 139.321 50.088 138.943 50.088C138.511 50.088 138.167 50.0187 137.911 49.88C137.655 49.7413 137.457 49.5413 137.319 49.28C137.185 49.0187 137.097 48.7067 137.055 48.344C137.017 47.9813 136.999 47.5813 136.999 47.144C136.999 46.712 137.017 46.3147 137.055 45.952C137.097 45.584 137.185 45.2693 137.319 45.008C137.457 44.7467 137.655 44.544 137.911 44.4C138.167 44.2507 138.511 44.176 138.943 44.176C139.353 44.176 139.676 44.2427 139.911 44.376C140.151 44.5093 140.329 44.68 140.447 44.888C140.564 45.0907 140.636 45.312 140.663 45.552C140.695 45.7867 140.711 46.008 140.711 46.216H139.559ZM143.8 47.848L143.248 45.28H143.232L142.68 47.848H143.8ZM143.952 44.288L145.464 50H144.264L144 48.792H142.48L142.216 50H141.016L142.528 44.288H143.952ZM145.861 44.288H147.989C148.469 44.288 148.842 44.4107 149.109 44.656C149.376 44.896 149.509 45.264 149.509 45.76C149.509 46.144 149.432 46.4587 149.277 46.704C149.122 46.944 148.882 47.0987 148.557 47.168V47.184C148.845 47.2267 149.056 47.32 149.189 47.464C149.322 47.608 149.405 47.84 149.437 48.16C149.448 48.2667 149.456 48.384 149.461 48.512C149.466 48.6347 149.472 48.7733 149.477 48.928C149.488 49.232 149.504 49.464 149.525 49.624C149.557 49.784 149.626 49.8933 149.733 49.952V50H148.485C148.426 49.92 148.389 49.8293 148.373 49.728C148.357 49.6213 148.346 49.512 148.341 49.4L148.309 48.304C148.298 48.08 148.242 47.904 148.141 47.776C148.04 47.648 147.869 47.584 147.629 47.584H147.013V50H145.861V44.288ZM147.013 46.784H147.493C147.77 46.784 147.984 46.72 148.133 46.592C148.282 46.4587 148.357 46.2373 148.357 45.928C148.357 45.4 148.09 45.136 147.557 45.136H147.013V46.784ZM153.51 44.288V45.232H152.262V50H151.11V45.232H149.862V44.288H153.51ZM155.041 47.144C155.041 47.528 155.049 47.856 155.065 48.128C155.087 48.3947 155.124 48.6133 155.177 48.784C155.236 48.9493 155.316 49.072 155.417 49.152C155.524 49.2267 155.663 49.264 155.833 49.264C156.004 49.264 156.14 49.2267 156.241 49.152C156.348 49.072 156.428 48.9493 156.481 48.784C156.54 48.6133 156.577 48.3947 156.593 48.128C156.615 47.856 156.625 47.528 156.625 47.144C156.625 46.76 156.615 46.4347 156.593 46.168C156.577 45.9013 156.54 45.6827 156.481 45.512C156.428 45.3413 156.348 45.2187 156.241 45.144C156.14 45.064 156.004 45.024 155.833 45.024C155.663 45.024 155.524 45.064 155.417 45.144C155.316 45.2187 155.236 45.3413 155.177 45.512C155.124 45.6827 155.087 45.9013 155.065 46.168C155.049 46.4347 155.041 46.76 155.041 47.144ZM153.889 47.144C153.889 46.712 153.908 46.3147 153.945 45.952C153.988 45.584 154.076 45.2693 154.209 45.008C154.348 44.7467 154.545 44.544 154.801 44.4C155.057 44.2507 155.401 44.176 155.833 44.176C156.265 44.176 156.609 44.2507 156.865 44.4C157.121 44.544 157.316 44.7467 157.449 45.008C157.588 45.2693 157.676 45.584 157.713 45.952C157.756 46.3147 157.777 46.712 157.777 47.144C157.777 47.5813 157.756 47.9813 157.713 48.344C157.676 48.7067 157.588 49.0187 157.449 49.28C157.316 49.5413 157.121 49.7413 156.865 49.88C156.609 50.0187 156.265 50.088 155.833 50.088C155.401 50.088 155.057 50.0187 154.801 49.88C154.545 49.7413 154.348 49.5413 154.209 49.28C154.076 49.0187 153.988 48.7067 153.945 48.344C153.908 47.9813 153.889 47.5813 153.889 47.144ZM159.783 44.288L161.175 48.2H161.191V44.288H162.247V50H160.935L159.527 46H159.511V50H158.455V44.288H159.783Z" fill="#1C1C1B"/>
<path d="M139.525 30.7156V17.6581L149.466 15.6446V28.3535L139.525 30.7156ZM136.814 16.7956L138.708 17.595V30.5533L136.814 29.5526V16.7956ZM136.814 13.4628L146.855 11.8851V13.8415L136.814 15.6897V13.4628ZM141.728 16.3809L139.158 16.9008L137.821 16.3328L147.263 14.6018L148.399 15.0285L141.728 16.3809ZM150.275 15.1157C150.272 15.0736 150.263 15.0345 150.248 14.9955C150.242 14.9834 150.239 14.9684 150.23 14.9564C150.184 14.8692 150.112 14.8001 150.016 14.7641L147.672 13.8835V11.4073C147.672 11.2901 147.618 11.1759 147.528 11.0977C147.438 11.0226 147.318 10.9865 147.2 11.0046L136.343 12.7085C136.144 12.7416 136 12.9129 136 13.1142V29.799C136 29.9493 136.081 30.0905 136.216 30.1596L138.927 31.5931C138.933 31.5961 138.942 31.5931 138.948 31.5991C138.999 31.6232 139.056 31.6382 139.116 31.6382C139.149 31.6382 139.179 31.6352 139.21 31.6292L149.968 29.0718C150.151 29.0297 150.281 28.8644 150.281 28.6751V15.1457C150.281 15.1367 150.275 15.1277 150.275 15.1157Z" fill="#1C1C1B"/>
</g>
<defs>
<clipPath id="clip0_137_7">
<rect width="227" height="61" fill="white"/>
</clipPath>
</defs>
</svg>
