<svg width="227" height="61" viewBox="0 0 227 61" fill="none" xmlns="http://www.w3.org/2000/svg">
<g clip-path="url(#clip0_8_73978)">
<path d="M24.8542 60.7916C11.2344 60.7916 0.15625 49.8385 0.15625 36.3801V0.317627H201.323C214.938 0.317627 226.016 11.2655 226.016 24.7239L226.021 60.7916" fill="white"/>
<path d="M201.323 5.98438H50.2708V36.3802C50.2708 46.7135 58.802 55.1198 69.2916 55.1198H220.349V24.724C220.349 14.3958 211.812 5.98438 201.323 5.98438Z" fill="white"/>
<path d="M218.458 53.2292H69.2916C59.8437 53.2292 52.1562 45.6719 52.1562 36.3802V7.875H201.323C210.771 7.875 218.458 15.4323 218.458 24.724V53.2292ZM201.323 5.98438H50.2708V36.3802C50.2708 46.7135 58.802 55.1198 69.2916 55.1198H220.349V24.724C220.349 14.3958 211.812 5.98438 201.323 5.98438Z" fill="#FCC42F"/>
<path d="M163.089 55.1198L176.099 28.5417L162.807 5.98438H201.323C211.812 5.98438 220.349 14.3906 220.349 24.724V55.1198" fill="#FCC42F"/>
<path d="M201.323 7.875H166.115L178.245 28.4583L166.12 53.2292H218.458V24.724C218.458 15.4323 210.771 7.875 201.323 7.875Z" fill="#FCC42F"/>
<path d="M206.281 41.6615H205.078C204.979 41.6615 204.885 41.6719 204.792 41.6875C205.354 35.4323 206.224 25.7708 206.646 21.3958C206.687 20.9531 206.359 20.5573 205.917 20.5156C205.464 20.4635 205.073 20.7969 205.031 21.2448C204.385 27.9635 202.677 47.1458 202.661 47.3385C202.63 47.6615 202.312 47.9271 201.943 47.9271H188.854C188.479 47.9271 188.167 47.6615 188.135 47.3385C188.12 47.1458 186.411 27.9635 185.766 21.2448C185.724 20.7969 185.333 20.4635 184.88 20.5156C184.437 20.5573 184.109 20.9531 184.151 21.3958C184.573 25.7708 185.443 35.4271 186.005 41.6875C185.911 41.6667 185.812 41.6562 185.719 41.6562H184.516C183.74 41.6562 183.104 42.2917 183.104 43.0677V48.1406C183.104 48.9167 183.74 49.5469 184.516 49.5469H185.719C186.297 49.5469 186.802 49.1927 187.016 48.6823C187.443 49.2135 188.104 49.5469 188.854 49.5469H201.943C202.687 49.5469 203.349 49.2135 203.781 48.6875C203.995 49.1927 204.495 49.5521 205.078 49.5521H206.281C207.057 49.5521 207.687 48.9219 207.687 48.1406V43.0677C207.687 42.2917 207.057 41.6615 206.281 41.6615Z" fill="#1C1C1B"/>
<path d="M190.344 25.1198V27.4115H191.016C191.411 27.4115 191.625 27.2292 191.625 26.6771V26.026C191.625 25.3333 191.401 25.1198 190.865 25.1198H190.344ZM190.344 22.0833V24.0521H190.802C191.24 24.0521 191.505 23.8646 191.505 23.2656V22.849C191.505 22.3125 191.323 22.0833 190.906 22.0833H190.344ZM192.677 22.7344V23C192.677 23.7656 192.443 24.2448 191.922 24.4896V24.5104C192.547 24.7604 192.797 25.3125 192.797 26.099V26.7083C192.797 27.8594 192.187 28.4792 191.016 28.4792H189.172V21.0156H190.938C192.156 21.0156 192.677 21.5833 192.677 22.7344Z" fill="#1C1C1B"/>
<path d="M194.833 26.1146H195.964L195.411 22.3385H195.385L194.833 26.1146ZM197.51 28.4792H196.328L196.125 27.125H194.688L194.479 28.4792H193.406L194.599 21.0156H196.313" fill="#1C1C1B"/>
<path d="M201.661 25.6926V26.6874C201.661 27.8801 201.062 28.5624 199.911 28.5624C198.76 28.5624 198.161 27.8801 198.161 26.6874V22.8072C198.161 21.6093 198.76 20.927 199.911 20.927C201.062 20.927 201.661 21.6093 201.661 22.8072V23.5312H200.552V22.7291C200.552 22.1978 200.318 21.9947 199.943 21.9947C199.573 21.9947 199.338 22.1978 199.338 22.7291V26.7603C199.338 27.2916 199.573 27.4843 199.943 27.4843C200.318 27.4843 200.552 27.2916 200.552 26.7603V25.6926" fill="#1C1C1B"/>
<path d="M192.703 31.2083V36.5365H193.365C193.734 36.5365 193.958 36.3438 193.958 35.8125V31.9323C193.958 31.401 193.734 31.2083 193.365 31.2083H192.703ZM191.531 30.1406H193.385C194.557 30.1406 195.13 30.7917 195.13 31.9844V35.7604C195.13 36.9531 194.557 37.6042 193.385 37.6042H191.531" fill="#1C1C1B"/>
<path d="M197.266 33.2865H198.875V34.349H197.266V36.5365H199.292V37.6042H196.094V30.1406H199.292V31.2031H197.266" fill="#1C1C1B"/>
<path d="M190.161 39.2656H193.786V40.3281H192.562V46.7292H191.385V40.3281H190.161" fill="#1C1C1B"/>
<path d="M195.688 40.3281V42.625H196.146C196.583 42.625 196.849 42.4323 196.849 41.8333V41.099C196.849 40.5677 196.667 40.3281 196.25 40.3281H195.688ZM196.969 46.7292C196.901 46.5365 196.859 46.4167 196.859 45.8125V44.6354C196.859 43.9479 196.625 43.6875 196.094 43.6875H195.688V46.7292H194.516V39.2656H196.286C197.5 39.2656 198.021 39.8281 198.021 40.9792V41.5677C198.021 42.3333 197.776 42.8229 197.255 43.0729V43.0938C197.839 43.3385 198.031 43.8906 198.031 44.6719V45.8229C198.031 46.1823 198.042 46.4531 198.161 46.7292" fill="#1C1C1B"/>
<path d="M199.016 46.7292H200.188V39.2656H199.016V46.7292Z" fill="#1C1C1B"/>
<path d="M207.125 17.6197H183.672V15.6666C183.672 15.5989 183.703 15.5676 183.698 15.5676H185.396C185.589 15.5676 185.771 15.4999 185.917 15.3697L188.047 13.5103C188.141 13.427 188.37 13.3437 188.661 13.3437H202.13C202.422 13.3437 202.656 13.427 202.75 13.5103L204.88 15.3697C205.026 15.4999 205.208 15.5676 205.401 15.5676H207.099C207.089 15.5676 207.125 15.5989 207.125 15.6666V17.6197ZM207.099 13.9791H205.698L203.792 12.3176C203.385 11.9583 202.781 11.7551 202.13 11.7551H188.661C188.016 11.7551 187.411 11.9583 187 12.3176L185.094 13.9791H183.698C182.807 13.9791 182.089 14.7395 182.089 15.6666V17.8124C182.089 18.1093 182.161 18.401 182.307 18.6614C182.37 18.7708 182.458 18.8697 182.562 18.9374C182.823 19.1093 183.12 19.1978 183.427 19.1978H207.37C207.677 19.1978 207.974 19.1093 208.234 18.9374C208.339 18.8697 208.427 18.7708 208.49 18.6614C208.63 18.401 208.708 18.1093 208.708 17.8124V15.6666C208.708 14.7395 207.984 13.9791 207.099 13.9791Z" fill="#1C1C1B"/>
<path d="M202.125 14.0781H188.667C188.297 14.0781 187.995 14.3802 187.995 14.75C187.995 15.1198 188.297 15.4219 188.667 15.4219H202.125C202.495 15.4219 202.797 15.1198 202.797 14.75C202.797 14.3802 202.495 14.0781 202.125 14.0781Z" fill="#1C1C1B"/>
<path d="M103.057 5.98438H50.2708V36.3802C50.2708 46.7135 58.802 55.1198 69.2916 55.1198H122.083V24.724C122.083 14.3958 113.547 5.98438 103.057 5.98438Z" fill="#FCC42F"/>
<path d="M63.8072 29.677C59.0051 29.677 55.1145 33.5676 55.1145 38.3697C55.1145 43.1718 59.0051 47.0624 63.8072 47.0624C68.6145 47.0624 72.5051 43.1718 72.5051 38.3697C72.5051 33.5676 68.6145 29.677 63.8072 29.677Z" fill="white"/>
<path d="M69.4792 39.7865H65.2292V44.0417H62.3906V39.7865H58.1406V36.9531H62.3906V32.7031H65.2292V36.9531H69.4792" fill="#1C1C1B"/>
<path d="M55.9426 26.9167V17.5156H58.427V24.8333H61.9843V26.9167" fill="#1C1C1B"/>
<path d="M63.0989 26.9167V17.5156H69.1718V19.599H65.5885V21.0729H68.651V23.1562H65.5885V24.8333H69.3176V26.9167" fill="#1C1C1B"/>
<path d="M75.2448 26.9167V19.599H72.7604V17.5156H80.2239V19.599H77.7343V26.9167" fill="#1C1C1B"/>
<path d="M83.7083 21.7969H84.6042C85.6042 21.7969 86.1094 21.3802 86.1094 20.5521C86.1094 20.1458 85.9792 19.8698 85.724 19.7135C85.4688 19.5573 85.0938 19.4792 84.6042 19.4792H83.7083V21.7969ZM81.2188 26.9167V17.5156H84.776C85.2813 17.5156 85.7604 17.5625 86.2188 17.6562C86.6771 17.7552 87.0729 17.9219 87.4167 18.151C87.7604 18.3802 88.0313 18.6927 88.2344 19.0833C88.4375 19.474 88.5365 19.9635 88.5365 20.5521C88.5365 21.2292 88.401 21.7865 88.125 22.2292C87.8542 22.6719 87.4844 23.0208 87.0208 23.2708L89.0573 26.9167H86.2812L84.6615 23.7604H83.7083V26.9167" fill="#1C1C1B"/>
<path d="M90.026 26.9167H92.5156V17.5156H90.026V26.9167Z" fill="#1C1C1B"/>
<path d="M75.5364 43.5937V34.1926H81.6666V36.276H78.026V38.0676H81.1458V40.151H78.026V43.5937" fill="#1C1C1B"/>
<path d="M85.0781 39.0208L84.9166 39.6718H86.651L86.4948 39.0208C86.3802 38.5676 86.2604 38.078 86.1458 37.5468C86.0312 37.0155 85.9166 36.5155 85.7968 36.0416H85.7395C85.6354 36.526 85.526 37.0312 85.4166 37.552C85.3073 38.078 85.1927 38.5676 85.0781 39.0208ZM81.4635 43.5937L84.3229 34.1926H87.3281L90.1927 43.5937H87.5625L87.0989 41.5989H84.4687L84.0052 43.5937" fill="#1C1C1B"/>
<path d="M94.7187 43.7656C94.1249 43.7656 93.552 43.6667 93.0103 43.4688C92.4635 43.2708 91.9895 42.974 91.578 42.5729C91.1666 42.1719 90.8385 41.6719 90.5989 41.0677C90.3593 40.4688 90.2395 39.7656 90.2395 38.9635C90.2395 38.1771 90.3645 37.474 90.6145 36.8594C90.8645 36.25 91.1978 35.7344 91.6197 35.3125C92.0364 34.8958 92.5208 34.5729 93.0676 34.349C93.6145 34.1302 94.1822 34.0156 94.7812 34.0156C95.4062 34.0156 95.9687 34.1406 96.4583 34.3854C96.953 34.6354 97.3645 34.9271 97.703 35.2604L96.401 36.8542C96.1718 36.651 95.9322 36.4844 95.6874 36.3542C95.4374 36.224 95.1562 36.1562 94.8385 36.1562C94.5572 36.1562 94.2968 36.2188 94.052 36.349C93.8072 36.474 93.5885 36.651 93.401 36.8802C93.2135 37.1146 93.0624 37.401 92.953 37.7344C92.8385 38.0729 92.7864 38.4531 92.7864 38.875C92.7864 39.7656 92.9687 40.4479 93.3437 40.9167C93.7135 41.3906 94.203 41.625 94.8072 41.625C95.177 41.625 95.4999 41.5469 95.7864 41.3854C96.0676 41.2292 96.3124 41.0365 96.5155 40.8177L97.8176 42.375C97.4114 42.8438 96.9478 43.1875 96.4218 43.4167C95.8958 43.651 95.328 43.7656 94.7187 43.7656Z" fill="#1C1C1B"/>
<path d="M98.776 43.5937H101.26V34.1926H98.776V43.5937Z" fill="#1C1C1B"/>
<path d="M103.031 43.5937V34.1926H105.521V41.5103H109.078V43.5937" fill="#1C1C1B"/>
<path d="M110.188 43.5937V34.1926H116.266V36.276H112.677V37.7499H115.745V39.8333H112.677V41.5103H116.411V43.5937" fill="#1C1C1B"/>
<path d="M28.5624 26.0625C26.8697 28.5521 28.3072 31.8281 30.052 33.4896C31.6458 35 32.9218 35.3594 33.0885 35.401L33.901 33.8438L36.2447 40.2552L29.6197 41.599L30.4999 39.9688L29.6041 39.4635C26.8124 37.6458 26.2239 35.1771 26.0312 34.4062C25.6978 33.0781 25.203 29.1094 28.5624 26.0625Z" fill="#1C1C1B"/>
<path d="M28.5312 26.1718C29.7344 28.927 33.2708 29.4635 35.6042 28.8697C37.6771 28.3437 38.6615 27.4895 38.8281 27.3333L38.8177 27.3176L37.9323 25.7864L44.599 27.2395L42.1875 33.5572L41.2917 31.9687L40.4219 32.4374C37.3958 33.828 34.9896 33.0103 34.2344 32.7603C32.9375 32.3333 29.3125 30.6353 28.5312 26.1718Z" fill="#1C1C1B"/>
<path d="M40.3177 19.5156C39.8541 22.8125 37.8698 24.3958 37.25 24.8958C36.1875 25.7552 32.802 27.8854 28.6198 26.1354C31.5937 26.6094 33.9531 23.9271 34.7135 21.6406C35.401 19.5885 35.1979 18.2917 35.1562 18.0885H35.1354L33.3698 18.0104L38.1823 13.1719L42.2083 18.6094L40.3906 18.5052" fill="#1C1C1B"/>
<path fill-rule="evenodd" clip-rule="evenodd" d="M20.0938 16.7291C18.5729 16.7291 17.3438 15.4999 17.3438 13.9791C17.3438 12.4583 18.5729 11.2239 20.0938 11.2239C21.6146 11.2239 22.849 12.4583 22.849 13.9791C22.849 15.4999 21.6146 16.7291 20.0938 16.7291Z" fill="#1C1C1B"/>
<path d="M15.8333 30.1146C16.0677 29.4688 16.4167 29.5104 16.4167 29.5104C16.4167 29.5104 16.7344 29.4427 16.9115 30.0938L19.4844 39.125C17.3385 38.5052 15.3802 37.4375 13.7135 36.0312L15.8333 30.1146ZM23.8594 5.98438C13.9167 5.98438 5.82812 14.0729 5.82812 24.0208C5.82812 33.9583 13.9167 42.0521 23.8594 42.0521C24.3906 42.0521 24.9115 42.0156 25.4323 41.9688L25.5521 43.7812L28.8542 40.5885L25.1615 37.776L25.3021 39.6771C24.8281 39.7188 24.3438 39.75 23.8594 39.75C23.0938 39.75 22.3438 39.6927 21.6094 39.5885L21.5365 39.1094L19.8229 24.5104C19.5885 21.7552 21.1615 21.3125 22.1354 21.7292L27.6042 23.9219C28.2292 24.1927 28.5312 23.6719 28.5312 23.6719C28.5312 23.6719 28.8854 23.1198 28.25 22.7135C28.25 22.7135 20.7969 17.776 19.2083 17.4792C17.0417 17.0729 14.8958 18.8281 14.4219 21.1146L11.776 34.0833C9.5 31.349 8.125 27.8438 8.125 24.0208C8.125 15.3438 15.1823 8.28646 23.8594 8.28646C28.4948 8.28646 32.6667 10.3021 35.5469 13.4948L37.1615 11.8594C33.8646 8.25 29.1198 5.98438 23.8594 5.98438Z" fill="#1C1C1B"/>
<path d="M131.11 39.364H131.446C131.654 39.364 131.822 39.318 131.95 39.226C132.078 39.134 132.142 38.964 132.142 38.716C132.142 38.592 132.124 38.49 132.088 38.41C132.056 38.326 132.01 38.26 131.95 38.212C131.894 38.16 131.826 38.124 131.746 38.104C131.666 38.084 131.578 38.074 131.482 38.074H131.11V39.364ZM131.11 37.474H131.356C131.596 37.474 131.77 37.432 131.878 37.348C131.99 37.26 132.046 37.114 132.046 36.91C132.046 36.706 131.996 36.562 131.896 36.478C131.796 36.394 131.638 36.352 131.422 36.352H131.11V37.474ZM130.246 35.716H131.692C131.868 35.716 132.03 35.734 132.178 35.77C132.33 35.806 132.46 35.866 132.568 35.95C132.676 36.034 132.76 36.146 132.82 36.286C132.88 36.426 132.91 36.598 132.91 36.802C132.91 37.034 132.856 37.234 132.748 37.402C132.64 37.566 132.478 37.678 132.262 37.738V37.75C132.502 37.782 132.692 37.884 132.832 38.056C132.972 38.228 133.042 38.458 133.042 38.746C133.042 38.914 133.02 39.074 132.976 39.226C132.932 39.378 132.856 39.512 132.748 39.628C132.644 39.74 132.506 39.83 132.334 39.898C132.166 39.966 131.956 40 131.704 40H130.246V35.716ZM135.368 38.386L134.954 36.46H134.942L134.528 38.386H135.368ZM135.482 35.716L136.616 40H135.716L135.518 39.094H134.378L134.18 40H133.28L134.414 35.716H135.482ZM136.914 35.716H138.51C138.87 35.716 139.15 35.808 139.35 35.992C139.55 36.172 139.65 36.448 139.65 36.82C139.65 37.108 139.592 37.344 139.476 37.528C139.36 37.708 139.18 37.824 138.936 37.876V37.888C139.152 37.92 139.31 37.99 139.41 38.098C139.51 38.206 139.572 38.38 139.596 38.62C139.604 38.7 139.61 38.788 139.614 38.884C139.618 38.976 139.622 39.08 139.626 39.196C139.634 39.424 139.646 39.598 139.662 39.718C139.686 39.838 139.738 39.92 139.818 39.964V40H138.882C138.838 39.94 138.81 39.872 138.798 39.796C138.786 39.716 138.778 39.634 138.774 39.55L138.75 38.728C138.742 38.56 138.7 38.428 138.624 38.332C138.548 38.236 138.42 38.188 138.24 38.188H137.778V40H136.914V35.716ZM137.778 37.588H138.138C138.346 37.588 138.506 37.54 138.618 37.444C138.73 37.344 138.786 37.178 138.786 36.946C138.786 36.55 138.586 36.352 138.186 36.352H137.778V37.588ZM141.022 37.858C141.022 38.146 141.028 38.392 141.04 38.596C141.056 38.796 141.084 38.96 141.124 39.088C141.168 39.212 141.228 39.304 141.304 39.364C141.384 39.42 141.488 39.448 141.616 39.448C141.744 39.448 141.846 39.42 141.922 39.364C142.002 39.304 142.062 39.212 142.102 39.088C142.146 38.96 142.174 38.796 142.186 38.596C142.202 38.392 142.21 38.146 142.21 37.858C142.21 37.57 142.202 37.326 142.186 37.126C142.174 36.926 142.146 36.762 142.102 36.634C142.062 36.506 142.002 36.414 141.922 36.358C141.846 36.298 141.744 36.268 141.616 36.268C141.488 36.268 141.384 36.298 141.304 36.358C141.228 36.414 141.168 36.506 141.124 36.634C141.084 36.762 141.056 36.926 141.04 37.126C141.028 37.326 141.022 37.57 141.022 37.858ZM142.696 40.51L142.186 40C142.026 40.044 141.836 40.066 141.616 40.066C141.292 40.066 141.034 40.014 140.842 39.91C140.65 39.806 140.502 39.656 140.398 39.46C140.298 39.264 140.232 39.03 140.2 38.758C140.172 38.486 140.158 38.186 140.158 37.858C140.158 37.534 140.172 37.236 140.2 36.964C140.232 36.688 140.298 36.452 140.398 36.256C140.502 36.06 140.65 35.908 140.842 35.8C141.034 35.688 141.292 35.632 141.616 35.632C141.94 35.632 142.198 35.688 142.39 35.8C142.582 35.908 142.728 36.06 142.828 36.256C142.932 36.452 142.998 36.688 143.026 36.964C143.058 37.236 143.074 37.534 143.074 37.858C143.074 38.222 143.054 38.552 143.014 38.848C142.974 39.144 142.884 39.394 142.744 39.598L143.206 40.048L142.696 40.51ZM144.392 35.716V38.704C144.392 38.812 144.398 38.912 144.41 39.004C144.426 39.092 144.452 39.17 144.488 39.238C144.528 39.302 144.58 39.354 144.644 39.394C144.712 39.43 144.796 39.448 144.896 39.448C145 39.448 145.084 39.43 145.148 39.394C145.212 39.354 145.262 39.302 145.298 39.238C145.338 39.17 145.364 39.092 145.376 39.004C145.392 38.912 145.4 38.812 145.4 38.704V35.716H146.264V38.704C146.264 38.976 146.226 39.202 146.15 39.382C146.074 39.558 145.972 39.698 145.844 39.802C145.716 39.906 145.57 39.976 145.406 40.012C145.242 40.048 145.072 40.066 144.896 40.066C144.72 40.066 144.55 40.05 144.386 40.018C144.222 39.986 144.076 39.922 143.948 39.826C143.82 39.726 143.718 39.586 143.642 39.406C143.566 39.226 143.528 38.992 143.528 38.704V35.716H144.392ZM149.205 35.716V36.424H147.675V37.432H149.115V38.14H147.675V39.292H149.265V40H146.811V35.716H149.205ZM152.207 35.716V36.424H151.271V40H150.407V36.424H149.471V35.716H152.207ZM155.09 35.716V36.424H154.154V40H153.29V36.424H152.354V35.716H155.09ZM157.859 35.716V36.424H156.329V37.432H157.769V38.14H156.329V39.292H157.919V40H155.465V35.716H157.859ZM128.923 42.716V43.424H127.393V44.432H128.833V45.14H127.393V46.292H128.983V47H126.529V42.716H128.923ZM130.413 42.716L131.457 45.65H131.469V42.716H132.261V47H131.277L130.221 44H130.209V47H129.417V42.716H130.413ZM135.869 45.386L135.455 43.46H135.443L135.029 45.386H135.869ZM135.983 42.716L137.117 47H136.217L136.019 46.094H134.879L134.681 47H133.781L134.915 42.716H135.983ZM137.415 47V42.716H138.279V46.292H139.809V47H137.415ZM141.003 42.716V45.704C141.003 45.812 141.009 45.912 141.021 46.004C141.037 46.092 141.063 46.17 141.099 46.238C141.139 46.302 141.191 46.354 141.255 46.394C141.323 46.43 141.407 46.448 141.507 46.448C141.611 46.448 141.695 46.43 141.759 46.394C141.823 46.354 141.873 46.302 141.909 46.238C141.949 46.17 141.975 46.092 141.987 46.004C142.003 45.912 142.011 45.812 142.011 45.704V42.716H142.875V45.704C142.875 45.976 142.837 46.202 142.761 46.382C142.685 46.558 142.583 46.698 142.455 46.802C142.327 46.906 142.181 46.976 142.017 47.012C141.853 47.048 141.683 47.066 141.507 47.066C141.331 47.066 141.161 47.05 140.997 47.018C140.833 46.986 140.687 46.922 140.559 46.826C140.431 46.726 140.329 46.586 140.253 46.406C140.177 46.226 140.139 45.992 140.139 45.704V42.716H141.003ZM143.439 42.716H144.723L145.335 45.74H145.347L145.965 42.716H147.243V47H146.451V43.58H146.439L145.677 47H145.005L144.243 43.58H144.231V47H143.439V42.716ZM147.905 47V42.716H148.769V47H147.905ZM150.405 42.716L151.449 45.65H151.461V42.716H152.253V47H151.269L150.213 44H150.201V47H149.409V42.716H150.405ZM152.897 47V42.716H153.761V47H152.897ZM155.212 42.716V45.704C155.212 45.812 155.218 45.912 155.23 46.004C155.246 46.092 155.272 46.17 155.308 46.238C155.348 46.302 155.4 46.354 155.464 46.394C155.532 46.43 155.616 46.448 155.716 46.448C155.82 46.448 155.904 46.43 155.968 46.394C156.032 46.354 156.082 46.302 156.118 46.238C156.158 46.17 156.184 46.092 156.196 46.004C156.212 45.912 156.22 45.812 156.22 45.704V42.716H157.084V45.704C157.084 45.976 157.046 46.202 156.97 46.382C156.894 46.558 156.792 46.698 156.664 46.802C156.536 46.906 156.39 46.976 156.226 47.012C156.062 47.048 155.892 47.066 155.716 47.066C155.54 47.066 155.37 47.05 155.206 47.018C155.042 46.986 154.896 46.922 154.768 46.826C154.64 46.726 154.538 46.586 154.462 46.406C154.386 46.226 154.348 45.992 154.348 45.704V42.716H155.212ZM157.648 42.716H158.932L159.544 45.74H159.556L160.174 42.716H161.452V47H160.66V43.58H160.648L159.886 47H159.214L158.452 43.58H158.44V47H157.648V42.716Z" fill="#1C1C1B"/>
<path d="M156.824 21.3804C156.787 21.0783 156.74 20.7762 156.683 20.4793L159.475 19.6668L158.527 23.7241C158.355 24.4689 157.579 25.3231 156.85 25.5887C156.881 25.3126 156.907 25.0366 156.923 24.7658C156.959 24.1981 156.97 23.6356 156.949 23.0731C156.933 22.5054 156.891 21.9429 156.824 21.3804ZM154.272 22.0314C154.24 21.7606 154.199 21.4845 154.152 21.2137L156.355 20.5731C156.318 20.8491 156.298 21.1199 156.277 21.396C156.24 21.9637 156.235 22.5262 156.251 23.0887C156.266 23.6564 156.308 24.2189 156.376 24.7814C156.412 25.0887 156.459 25.396 156.522 25.6981L154.266 26.4324C154.313 26.0939 154.35 25.7554 154.371 25.422C154.407 24.8543 154.417 24.2918 154.402 23.7241C154.381 23.1616 154.345 22.5991 154.272 22.0314ZM151.006 22.8856C150.975 22.6408 150.933 22.4012 150.897 22.1564L153.792 21.3179C153.766 21.5626 153.74 21.8074 153.725 22.0522C153.688 22.6147 153.683 23.1824 153.699 23.7449C153.714 24.3074 153.756 24.8699 153.824 25.4376C153.865 25.797 153.928 26.1564 154.006 26.5158L150.959 27.5054C151.027 27.0939 151.074 26.6824 151.1 26.271C151.136 25.7033 151.147 25.1408 151.126 24.5731C151.11 24.0106 151.074 23.4481 151.006 22.8856ZM148.188 23.6043C148.162 23.396 148.131 23.1824 148.095 22.9741L150.511 22.271C150.49 22.4793 150.47 22.6929 150.454 22.9012C150.417 23.4689 150.412 24.0314 150.428 24.5939C150.443 25.1616 150.485 25.7241 150.553 26.2866C150.605 26.7137 150.683 27.1356 150.782 27.5626L148.11 28.4272C148.204 27.9481 148.256 27.4689 148.292 26.9897C148.324 26.422 148.334 25.8595 148.313 25.297C148.298 24.7293 148.256 24.1668 148.188 23.6043ZM138.527 24.6824C138.48 24.0835 138.412 23.4793 138.313 22.8856C138.251 22.5158 138.178 22.1408 138.089 21.7762L140.798 22.6564C140.766 22.9585 140.746 23.2554 140.735 23.547C140.725 24.0835 140.735 24.6199 140.772 25.1512C140.808 25.6824 140.871 26.2085 140.959 26.7397C141.048 27.2658 141.157 27.7918 141.345 28.3126C141.454 27.771 141.49 27.2345 141.506 26.7033C141.522 26.1668 141.506 25.6304 141.47 25.0991C141.433 24.5679 141.371 24.0418 141.287 23.5106C141.24 23.2606 141.193 23.0158 141.136 22.7658L142.318 23.1512C142.85 23.3283 143.537 23.4429 144.266 23.4845C144.214 23.6876 144.178 23.8908 144.147 24.0939C144.089 24.4689 144.063 24.8439 144.058 25.2189C144.053 25.5939 144.074 25.9741 144.121 26.3491C144.173 26.7241 144.24 27.1043 144.386 27.4793C144.532 27.1043 144.615 26.7293 144.673 26.3543C144.73 25.9793 144.756 25.6043 144.756 25.2293C144.761 24.8491 144.74 24.4741 144.693 24.0991C144.667 23.896 144.636 23.6981 144.589 23.4949C144.704 23.5001 144.818 23.5106 144.933 23.5106C145.777 23.5106 146.584 23.4116 147.199 23.2345L147.693 23.0887C147.673 23.2658 147.652 23.4429 147.641 23.6199C147.605 24.1876 147.6 24.7501 147.615 25.3126C147.631 25.8804 147.673 26.4429 147.74 27.0054C147.803 27.4897 147.886 27.9793 148.011 28.4637L145.324 29.3335C144.548 29.5835 143.063 29.5418 142.303 29.2449L138.511 27.7606C138.553 27.3387 138.579 26.9116 138.589 26.4897C138.595 25.8856 138.574 25.2814 138.527 24.6824ZM135.73 23.6929C135.667 23.0731 135.584 22.4585 135.47 21.8491C135.407 21.5158 135.334 21.1824 135.251 20.8491L137.839 21.6929C137.803 22.1043 137.777 22.5158 137.766 22.9272C137.761 23.5314 137.782 24.1356 137.829 24.7345C137.871 25.3387 137.938 25.9324 138.037 26.5314C138.1 26.9116 138.183 27.2918 138.272 27.672L135.808 26.7085C135.834 26.3179 135.845 25.9324 135.839 25.5522C135.829 24.9272 135.792 24.3074 135.73 23.6929ZM133.303 22.7606C133.235 22.1304 133.147 21.5106 133.027 20.8908C132.975 20.6147 132.917 20.3387 132.85 20.0679L134.954 20.7501C134.928 21.1356 134.917 21.521 134.923 21.9012C134.933 22.5262 134.97 23.146 135.032 23.7606C135.095 24.3804 135.178 24.9949 135.292 25.6043C135.355 25.9324 135.423 26.2606 135.506 26.5887L133.589 25.8387C133.527 25.8126 133.47 25.7814 133.407 25.7501C133.423 25.3804 133.428 25.0106 133.423 24.6408C133.407 24.0106 133.365 23.3856 133.303 22.7606ZM132.49 19.9481C132.48 20.2814 132.48 20.6147 132.485 20.9481C132.496 21.5783 132.537 22.2033 132.605 22.8283C132.667 23.4585 132.756 24.0783 132.876 24.6981C132.928 24.9845 132.99 25.2658 133.058 25.547C132.433 25.1199 131.824 24.422 131.595 23.8283L129.787 19.0679L132.49 19.9481ZM146.834 21.9793C145.756 22.2918 143.787 22.2554 142.725 21.9116L128.766 17.3595C128.746 17.3543 128.73 17.3491 128.714 17.3439C128.73 17.3387 128.746 17.3335 128.766 17.3283L140.324 14.5158C141.433 14.2449 143.48 14.2345 144.589 14.4949L160.074 18.1304L146.834 21.9793ZM161.959 18.0835C161.949 17.5158 161.459 17.1147 160.506 16.8908L144.891 13.2241C143.574 12.9168 141.329 12.9272 140.011 13.2449L128.459 16.0626C127.511 16.2918 127.022 16.6981 127.001 17.2762C126.98 17.8126 127.391 18.2293 128.183 18.5314L130.376 24.2918C130.798 25.4064 132.001 26.6199 133.115 27.0522L141.824 30.4637C142.412 30.6929 143.183 30.8179 143.99 30.8179C144.641 30.8179 145.24 30.7345 145.73 30.5783L157.199 26.8543C158.376 26.4689 159.522 25.2293 159.798 24.021L160.912 19.2397C160.917 19.2293 160.912 19.2241 160.912 19.2189C161.605 18.9481 161.975 18.5731 161.959 18.0835Z" fill="#1C1C1B"/>
<path d="M156.027 17.5783C154.412 17.1043 152.694 16.6356 150.454 16.0627C149.839 15.9012 149.23 15.7502 148.615 15.5991C148.298 15.521 147.975 15.4377 147.652 15.3595L145.464 14.8335C145.376 14.8127 145.282 14.7918 145.183 14.771C145.058 14.745 144.928 14.7293 144.803 14.7085C144.329 14.6512 143.829 14.6356 143.303 14.6512C142.86 14.672 142.339 14.7033 141.803 14.8387C141.49 14.922 141.173 15.0054 140.86 15.0835C140.24 15.2398 139.626 15.4012 139.011 15.5679C136.772 16.1564 135.058 16.6408 133.449 17.1304C133.402 17.146 133.371 17.1981 133.381 17.2502C133.391 17.3023 133.444 17.3335 133.501 17.3231C135.147 17.021 136.891 16.6564 139.152 16.1564C139.792 16.0158 140.433 15.87 141.069 15.7189C141.371 15.6512 141.667 15.5835 141.97 15.5158C142.371 15.422 142.813 15.3752 143.329 15.3595C143.808 15.3491 144.282 15.37 144.709 15.4273C144.824 15.4377 144.933 15.4585 145.048 15.4793C145.126 15.4898 145.204 15.5106 145.287 15.5314L147.49 16.0366C147.813 16.1043 148.131 16.1773 148.449 16.2502C149.074 16.3856 149.694 16.5262 150.313 16.6512C152.537 17.1304 154.339 17.4845 155.98 17.7762C155.985 17.7762 155.99 17.7762 156.001 17.7762C156.042 17.7762 156.084 17.745 156.095 17.6981C156.11 17.646 156.079 17.5939 156.027 17.5783Z" fill="#1C1C1B"/>
</g>
<defs>
<clipPath id="clip0_8_73978">
<rect width="227" height="61" fill="white"/>
</clipPath>
</defs>
</svg>
