<svg width="260" height="61" viewBox="0 0 260 61" fill="none" xmlns="http://www.w3.org/2000/svg">
<g clip-path="url(#clip0_79_801)">
<path d="M24.6979 60.4688C11.0781 60.4688 0 49.5208 0 36.0625V0H234.948C248.563 0 259.641 10.9479 259.641 24.4062V60.4688" fill="white"/>
<path d="M222.083 52.9113H69.1353C59.6874 52.9113 51.9999 45.354 51.9999 36.0623V7.55713H204.948C214.396 7.55713 222.083 15.1144 222.083 24.4061V52.9113ZM204.948 5.6665H50.1145V36.0623C50.1145 46.3957 58.6458 54.8019 69.1353 54.8019H223.969V24.4061C223.969 14.0728 215.437 5.6665 204.948 5.6665Z" fill="#333347"/>
<path d="M196.714 54.8019L209.724 28.2238L196.432 5.6665H234.948C245.437 5.6665 253.969 14.0728 253.969 24.4061V54.8019" fill="#333347"/>
<path d="M102.901 5.6665H50.1145V36.0623C50.1145 46.3957 58.6458 54.8019 69.1353 54.8019H121.927V24.4061C121.927 14.0728 113.391 5.6665 102.901 5.6665Z" fill="#333347"/>
<path d="M63.651 29.3594C58.8489 29.3594 54.9583 33.25 54.9583 38.0521C54.9583 42.8542 58.8489 46.7448 63.651 46.7448C68.4583 46.7448 72.3489 42.8542 72.3489 38.0521C72.3489 33.25 68.4583 29.3594 63.651 29.3594Z" fill="white"/>
<path d="M69.3229 39.4689H65.0729V43.7189H62.2344V39.4689H57.9844V36.6356H62.2344V32.3804H65.0729V36.6356H69.3229" fill="#1C1C1B"/>
<path d="M55.7864 26.5936V17.1978H58.2708V24.5155H61.828V26.5936" fill="white"/>
<path d="M62.9426 26.5936V17.1978H69.0155V19.2759H65.4322V20.755H68.4947V22.8384H65.4322V24.5155H69.1614V26.5936" fill="white"/>
<path d="M75.0885 26.5936V19.2759H72.6041V17.1978H80.0677V19.2759H77.5781V26.5936" fill="white"/>
<path d="M83.5521 21.4738H84.4479C85.4479 21.4738 85.9531 21.0623 85.9531 20.2342C85.9531 19.828 85.8229 19.5467 85.5677 19.3957C85.3125 19.2394 84.9375 19.1613 84.4479 19.1613H83.5521V21.4738ZM81.0625 26.5988V17.1978H84.6198C85.125 17.1978 85.6042 17.2446 86.0625 17.3384C86.5208 17.4373 86.9167 17.5988 87.2604 17.8332C87.6042 18.0623 87.875 18.3748 88.0781 18.7655C88.2813 19.1561 88.3802 19.6457 88.3802 20.2342C88.3802 20.9061 88.2448 21.4686 87.9688 21.9113C87.6979 22.354 87.3281 22.6978 86.8646 22.953L88.901 26.5988H86.125L84.5052 23.4425H83.5521V26.5988" fill="white"/>
<path d="M89.8698 26.5988H92.3593V17.1978H89.8698V26.5988Z" fill="white"/>
<path d="M75.3801 43.2759V33.8696H81.5103V35.953H77.8697V37.7498H80.9895V39.8332H77.8697V43.2759" fill="white"/>
<path d="M84.9218 38.703L84.7604 39.354H86.4948L86.3385 38.703C86.2239 38.2498 86.1041 37.7603 85.9895 37.229C85.875 36.6978 85.7604 36.1978 85.6406 35.7238H85.5833C85.4791 36.203 85.3698 36.7082 85.2604 37.2342C85.151 37.7603 85.0364 38.2498 84.9218 38.703ZM81.3073 43.2759L84.1666 33.8696H87.1718L90.0364 43.2759H87.4062L86.9427 41.2759H84.3125L83.8489 43.2759" fill="white"/>
<path d="M94.5624 43.4478C93.9687 43.4478 93.3958 43.3488 92.8541 43.1509C92.3072 42.953 91.8333 42.6509 91.4218 42.255C91.0103 41.854 90.6822 41.354 90.4426 40.7498C90.203 40.1457 90.0833 39.4478 90.0833 38.6457C90.0833 37.854 90.2083 37.1509 90.4583 36.5415C90.7083 35.9269 91.0416 35.4113 91.4635 34.9946C91.8801 34.5728 92.3645 34.2498 92.9114 34.0311C93.4583 33.8071 94.026 33.6978 94.6249 33.6978C95.2499 33.6978 95.8124 33.8228 96.302 34.0675C96.7968 34.3123 97.2083 34.604 97.5468 34.9425L96.2447 36.5311C96.0155 36.3332 95.776 36.1665 95.5312 36.0311C95.2812 35.9061 94.9999 35.8384 94.6822 35.8384C94.401 35.8384 94.1405 35.9009 93.8958 36.0259C93.651 36.1509 93.4322 36.3332 93.2447 36.5623C93.0572 36.7915 92.9062 37.078 92.7968 37.4165C92.6822 37.7498 92.6301 38.1353 92.6301 38.5571C92.6301 39.4478 92.8124 40.1248 93.1874 40.5988C93.5572 41.0675 94.0468 41.3071 94.651 41.3071C95.0208 41.3071 95.3437 41.229 95.6301 41.0675C95.9114 40.9061 96.1562 40.7186 96.3593 40.4946L97.6614 42.0571C97.2551 42.5207 96.7916 42.8696 96.2655 43.0988C95.7395 43.3332 95.1718 43.4478 94.5624 43.4478Z" fill="white"/>
<path d="M98.6198 43.2759H101.104V33.8696H98.6198V43.2759Z" fill="white"/>
<path d="M102.875 43.2759V33.8696H105.365V41.1925H108.922V43.2759" fill="white"/>
<path d="M110.031 43.2759V33.8696H116.109V35.953H112.521V37.4321H115.589V39.5155H112.521V41.1925H116.255V43.2759" fill="white"/>
<path d="M28.4062 25.7446C26.7135 28.2342 28.151 31.5103 29.8958 33.1717C31.4895 34.6821 32.7655 35.0363 32.9322 35.078L33.7447 33.5207L36.0885 39.9321L29.4635 41.2811L30.3437 39.6457L29.4478 39.1457C26.6562 37.328 26.0676 34.8592 25.8749 34.0884C25.5416 32.7603 25.0468 28.7863 28.4062 25.7446Z" fill="#333347"/>
<path d="M28.375 25.8488C29.5781 28.6092 33.1146 29.1405 35.4479 28.5519C37.5208 28.0259 38.5052 27.1717 38.6719 27.0155L38.6615 26.9998L37.776 25.4634L44.4427 26.9217L42.0313 33.2394L41.1354 31.6457L40.2656 32.1196C37.2396 33.5103 34.8333 32.6925 34.0781 32.4425C32.7813 32.0155 29.1562 30.3123 28.375 25.8488Z" fill="#333347"/>
<path d="M40.1613 19.1925C39.6978 22.4894 37.7134 24.0728 37.0936 24.5728C36.0311 25.4373 32.6457 27.5675 28.4634 25.8175C31.4373 26.2915 33.7967 23.604 34.5571 21.3175C35.2446 19.2655 35.0415 17.9686 34.9998 17.7707L34.979 17.7655L33.2134 17.6925L38.0259 12.854L42.0519 18.2863L40.2342 18.1821" fill="#333347"/>
<path fill-rule="evenodd" clip-rule="evenodd" d="M19.9375 16.4115C18.4167 16.4115 17.1875 15.1823 17.1875 13.6563C17.1875 12.1354 18.4167 10.9062 19.9375 10.9062C21.4583 10.9062 22.6927 12.1354 22.6927 13.6563C22.6927 15.1823 21.4583 16.4115 19.9375 16.4115Z" fill="#333347"/>
<path d="M15.6771 29.7967C15.9115 29.1509 16.2604 29.1925 16.2604 29.1925C16.2604 29.1925 16.5781 29.1248 16.7552 29.7707L19.3281 38.8071C17.1823 38.1821 15.224 37.1196 13.5573 35.7082L15.6771 29.7967ZM23.7031 5.6665C13.7604 5.6665 5.67188 13.755 5.67188 23.6978C5.67188 33.6405 13.7604 41.729 23.7031 41.729C24.2344 41.729 24.7552 41.6978 25.276 41.6509L25.3958 43.4634L28.6979 40.2707L25.0052 37.453L25.1458 39.354C24.6719 39.4009 24.1875 39.4321 23.7031 39.4321C22.9375 39.4321 22.1875 39.3748 21.4531 39.2655L21.3802 38.7863L19.6667 24.1873C19.4323 21.4321 21.0052 20.9946 21.9792 21.4061L27.4479 23.604C28.0729 23.8748 28.375 23.3488 28.375 23.3488C28.375 23.3488 28.7292 22.8019 28.0938 22.3957C28.0938 22.3957 20.6406 17.4582 19.0521 17.1561C16.8854 16.755 14.7396 18.5103 14.2656 20.7967L11.6198 33.7603C9.34375 31.0311 7.96875 27.5207 7.96875 23.6978C7.96875 15.0207 15.026 7.96338 23.7031 7.96338C28.3385 7.96338 32.5104 9.979 35.3906 13.1769L37.0052 11.5363C33.7083 7.93213 28.9635 5.6665 23.7031 5.6665Z" fill="#333347"/>
<path d="M130.94 18.09H131.58C131.867 18.09 132.097 18.0033 132.27 17.83C132.45 17.6567 132.54 17.3867 132.54 17.02C132.54 16.66 132.463 16.3867 132.31 16.2C132.157 16.0133 131.9 15.92 131.54 15.92H130.94V18.09ZM129.5 14.86H132.02C132.387 14.86 132.693 14.9233 132.94 15.05C133.193 15.17 133.397 15.33 133.55 15.53C133.703 15.73 133.813 15.96 133.88 16.22C133.947 16.4733 133.98 16.7333 133.98 17C133.98 17.3667 133.923 17.6867 133.81 17.96C133.703 18.2333 133.55 18.4567 133.35 18.63C133.157 18.8033 132.92 18.9333 132.64 19.02C132.36 19.1067 132.05 19.15 131.71 19.15H130.94V22H129.5V14.86ZM135.976 18.43C135.976 18.91 135.986 19.32 136.006 19.66C136.032 19.9933 136.079 20.2667 136.146 20.48C136.219 20.6867 136.319 20.84 136.446 20.94C136.579 21.0333 136.752 21.08 136.966 21.08C137.179 21.08 137.349 21.0333 137.476 20.94C137.609 20.84 137.709 20.6867 137.776 20.48C137.849 20.2667 137.896 19.9933 137.916 19.66C137.942 19.32 137.956 18.91 137.956 18.43C137.956 17.95 137.942 17.5433 137.916 17.21C137.896 16.8767 137.849 16.6033 137.776 16.39C137.709 16.1767 137.609 16.0233 137.476 15.93C137.349 15.83 137.179 15.78 136.966 15.78C136.752 15.78 136.579 15.83 136.446 15.93C136.319 16.0233 136.219 16.1767 136.146 16.39C136.079 16.6033 136.032 16.8767 136.006 17.21C135.986 17.5433 135.976 17.95 135.976 18.43ZM134.536 18.43C134.536 17.89 134.559 17.3933 134.606 16.94C134.659 16.48 134.769 16.0867 134.936 15.76C135.109 15.4333 135.356 15.18 135.676 15C135.996 14.8133 136.426 14.72 136.966 14.72C137.506 14.72 137.936 14.8133 138.256 15C138.576 15.18 138.819 15.4333 138.986 15.76C139.159 16.0867 139.269 16.48 139.316 16.94C139.369 17.3933 139.396 17.89 139.396 18.43C139.396 18.9767 139.369 19.4767 139.316 19.93C139.269 20.3833 139.159 20.7733 138.986 21.1C138.819 21.4267 138.576 21.6767 138.256 21.85C137.936 22.0233 137.506 22.11 136.966 22.11C136.426 22.11 135.996 22.0233 135.676 21.85C135.356 21.6767 135.109 21.4267 134.936 21.1C134.769 20.7733 134.659 20.3833 134.606 19.93C134.559 19.4767 134.536 18.9767 134.536 18.43ZM140.242 22V14.86H141.682V20.82H144.232V22H140.242ZM145.103 14.86L146.043 17.62H146.063L147.063 14.86H148.623L146.773 19.19V22H145.333V19.19L143.483 14.86H145.103ZM150.308 19.77V19.98C150.308 20.1467 150.322 20.3 150.348 20.44C150.375 20.5733 150.425 20.6867 150.498 20.78C150.572 20.8733 150.668 20.9467 150.788 21C150.915 21.0533 151.072 21.08 151.258 21.08C151.478 21.08 151.675 21.01 151.848 20.87C152.028 20.7233 152.118 20.5 152.118 20.2C152.118 20.04 152.095 19.9033 152.048 19.79C152.008 19.67 151.938 19.5633 151.838 19.47C151.738 19.3767 151.605 19.2933 151.438 19.22C151.278 19.14 151.078 19.06 150.838 18.98C150.518 18.8733 150.242 18.7567 150.008 18.63C149.775 18.5033 149.578 18.3567 149.418 18.19C149.265 18.0167 149.152 17.82 149.078 17.6C149.005 17.3733 148.968 17.1133 148.968 16.82C148.968 16.1133 149.165 15.5867 149.558 15.24C149.952 14.8933 150.492 14.72 151.178 14.72C151.498 14.72 151.792 14.7567 152.058 14.83C152.332 14.8967 152.565 15.01 152.758 15.17C152.958 15.3233 153.112 15.5233 153.218 15.77C153.332 16.01 153.388 16.3 153.388 16.64V16.84H152.008C152.008 16.5 151.948 16.24 151.828 16.06C151.708 15.8733 151.508 15.78 151.228 15.78C151.068 15.78 150.935 15.8033 150.828 15.85C150.722 15.8967 150.635 15.96 150.568 16.04C150.508 16.1133 150.465 16.2 150.438 16.3C150.418 16.4 150.408 16.5033 150.408 16.61C150.408 16.83 150.455 17.0167 150.548 17.17C150.642 17.3167 150.842 17.4533 151.148 17.58L152.258 18.06C152.532 18.18 152.755 18.3067 152.928 18.44C153.102 18.5667 153.238 18.7067 153.338 18.86C153.445 19.0067 153.518 19.17 153.558 19.35C153.598 19.53 153.618 19.73 153.618 19.95C153.618 20.7033 153.398 21.2533 152.958 21.6C152.525 21.94 151.918 22.11 151.138 22.11C150.325 22.11 149.742 21.9333 149.388 21.58C149.042 21.2267 148.868 20.72 148.868 20.06V19.77H150.308ZM158.514 14.86V16.04H156.954V22H155.514V16.04H153.954V14.86H158.514ZM160.289 14.86L161.229 17.62H161.249L162.249 14.86H163.809L161.959 19.19V22H160.519V19.19L158.669 14.86H160.289ZM164.334 14.86H166.994C167.594 14.86 168.061 15.0133 168.394 15.32C168.727 15.62 168.894 16.08 168.894 16.7C168.894 17.18 168.797 17.5733 168.604 17.88C168.411 18.18 168.111 18.3733 167.704 18.46V18.48C168.064 18.5333 168.327 18.65 168.494 18.83C168.661 19.01 168.764 19.3 168.804 19.7C168.817 19.8333 168.827 19.98 168.834 20.14C168.841 20.2933 168.847 20.4667 168.854 20.66C168.867 21.04 168.887 21.33 168.914 21.53C168.954 21.73 169.041 21.8667 169.174 21.94V22H167.614C167.541 21.9 167.494 21.7867 167.474 21.66C167.454 21.5267 167.441 21.39 167.434 21.25L167.394 19.88C167.381 19.6 167.311 19.38 167.184 19.22C167.057 19.06 166.844 18.98 166.544 18.98H165.774V22H164.334V14.86ZM165.774 17.98H166.374C166.721 17.98 166.987 17.9 167.174 17.74C167.361 17.5733 167.454 17.2967 167.454 16.91C167.454 16.25 167.121 15.92 166.454 15.92H165.774V17.98ZM171.631 14.44L170.651 13H172.031L172.571 14.44H171.631ZM173.881 14.86V16.04H171.331V17.72H173.731V18.9H171.331V20.82H173.981V22H169.891V14.86H173.881ZM176.365 14.86L178.105 19.75H178.125V14.86H179.445V22H177.805L176.045 17H176.025V22H174.705V14.86H176.365ZM184.437 14.86V16.04H181.887V17.72H184.287V18.9H181.887V20.82H184.537V22H180.447V14.86H184.437ZM133.49 26.86V28.04H130.94V29.72H133.34V30.9H130.94V32.82H133.59V34H129.5V26.86H133.49ZM134.014 26.86H135.604L136.524 29.17L137.434 26.86H139.004L137.344 30.39L139.124 34H137.504L136.474 31.58L135.454 34H133.874L135.654 30.39L134.014 26.86ZM141.126 30.09H141.766C142.052 30.09 142.282 30.0033 142.456 29.83C142.636 29.6567 142.726 29.3867 142.726 29.02C142.726 28.66 142.649 28.3867 142.496 28.2C142.342 28.0133 142.086 27.92 141.726 27.92H141.126V30.09ZM139.686 26.86H142.206C142.572 26.86 142.879 26.9233 143.126 27.05C143.379 27.17 143.582 27.33 143.736 27.53C143.889 27.73 143.999 27.96 144.066 28.22C144.132 28.4733 144.166 28.7333 144.166 29C144.166 29.3667 144.109 29.6867 143.996 29.96C143.889 30.2333 143.736 30.4567 143.536 30.63C143.342 30.8033 143.106 30.9333 142.826 31.02C142.546 31.1067 142.236 31.15 141.896 31.15H141.126V34H139.686V26.86ZM147.48 31.31L146.79 28.1H146.77L146.08 31.31H147.48ZM147.67 26.86L149.56 34H148.06L147.73 32.49H145.83L145.5 34H144L145.89 26.86H147.67ZM151.717 26.86L153.457 31.75H153.477V26.86H154.797V34H153.157L151.397 29H151.377V34H150.057V26.86H151.717ZM156.959 31.77V31.98C156.959 32.1467 156.972 32.3 156.999 32.44C157.025 32.5733 157.075 32.6867 157.149 32.78C157.222 32.8733 157.319 32.9467 157.439 33C157.565 33.0533 157.722 33.08 157.909 33.08C158.129 33.08 158.325 33.01 158.499 32.87C158.679 32.7233 158.769 32.5 158.769 32.2C158.769 32.04 158.745 31.9033 158.699 31.79C158.659 31.67 158.589 31.5633 158.489 31.47C158.389 31.3767 158.255 31.2933 158.089 31.22C157.929 31.14 157.729 31.06 157.489 30.98C157.169 30.8733 156.892 30.7567 156.659 30.63C156.425 30.5033 156.229 30.3567 156.069 30.19C155.915 30.0167 155.802 29.82 155.729 29.6C155.655 29.3733 155.619 29.1133 155.619 28.82C155.619 28.1133 155.815 27.5867 156.209 27.24C156.602 26.8933 157.142 26.72 157.829 26.72C158.149 26.72 158.442 26.7567 158.709 26.83C158.982 26.8967 159.215 27.01 159.409 27.17C159.609 27.3233 159.762 27.5233 159.869 27.77C159.982 28.01 160.039 28.3 160.039 28.64V28.84H158.659C158.659 28.5 158.599 28.24 158.479 28.06C158.359 27.8733 158.159 27.78 157.879 27.78C157.719 27.78 157.585 27.8033 157.479 27.85C157.372 27.8967 157.285 27.96 157.219 28.04C157.159 28.1133 157.115 28.2 157.089 28.3C157.069 28.4 157.059 28.5033 157.059 28.61C157.059 28.83 157.105 29.0167 157.199 29.17C157.292 29.3167 157.492 29.4533 157.799 29.58L158.909 30.06C159.182 30.18 159.405 30.3067 159.579 30.44C159.752 30.5667 159.889 30.7067 159.989 30.86C160.095 31.0067 160.169 31.17 160.209 31.35C160.249 31.53 160.269 31.73 160.269 31.95C160.269 32.7033 160.049 33.2533 159.609 33.6C159.175 33.94 158.569 34.11 157.789 34.11C156.975 34.11 156.392 33.9333 156.039 33.58C155.692 33.2267 155.519 32.72 155.519 32.06V31.77H156.959ZM162.904 25H164.284L163.304 26.44H162.364L162.904 25ZM164.974 26.86V28.04H162.424V29.72H164.824V30.9H162.424V32.82H165.074V34H160.984V26.86H164.974ZM131.96 38.86C131.753 39.24 131.577 39.61 131.43 39.97C131.283 40.3233 131.163 40.68 131.07 41.04C130.983 41.4 130.92 41.77 130.88 42.15C130.84 42.5233 130.82 42.9233 130.82 43.35C130.82 43.7767 130.84 44.18 130.88 44.56C130.92 44.9333 130.983 45.2967 131.07 45.65C131.163 45.9967 131.283 46.3467 131.43 46.7C131.577 47.06 131.753 47.43 131.96 47.81H130.9C130.4 47.0233 130.04 46.26 129.82 45.52C129.607 44.78 129.5 44.0567 129.5 43.35C129.5 42.6433 129.607 41.9167 129.82 41.17C130.04 40.4167 130.4 39.6467 130.9 38.86H131.96ZM135.509 41.27C135.509 40.75 135.446 40.3733 135.319 40.14C135.199 39.9 134.976 39.78 134.649 39.78C134.469 39.78 134.319 39.83 134.199 39.93C134.086 40.0233 133.996 40.18 133.929 40.4C133.862 40.6133 133.816 40.8967 133.789 41.25C133.762 41.5967 133.749 42.0233 133.749 42.53C133.749 43.07 133.766 43.5067 133.799 43.84C133.839 44.1733 133.896 44.4333 133.969 44.62C134.049 44.8 134.146 44.9233 134.259 44.99C134.379 45.05 134.516 45.08 134.669 45.08C134.796 45.08 134.912 45.06 135.019 45.02C135.132 44.9733 135.229 44.8867 135.309 44.76C135.389 44.6267 135.452 44.4433 135.499 44.21C135.546 43.97 135.569 43.6567 135.569 43.27H137.009C137.009 43.6567 136.979 44.0233 136.919 44.37C136.859 44.7167 136.746 45.02 136.579 45.28C136.419 45.54 136.189 45.7433 135.889 45.89C135.596 46.0367 135.212 46.11 134.739 46.11C134.199 46.11 133.769 46.0233 133.449 45.85C133.129 45.6767 132.882 45.4267 132.709 45.1C132.542 44.7733 132.432 44.3833 132.379 43.93C132.332 43.4767 132.309 42.9767 132.309 42.43C132.309 41.89 132.332 41.3933 132.379 40.94C132.432 40.48 132.542 40.0867 132.709 39.76C132.882 39.4333 133.129 39.18 133.449 39C133.769 38.8133 134.199 38.72 134.739 38.72C135.252 38.72 135.656 38.8033 135.949 38.97C136.249 39.1367 136.472 39.35 136.619 39.61C136.766 39.8633 136.856 40.14 136.889 40.44C136.929 40.7333 136.949 41.01 136.949 41.27H135.509ZM140.81 43.31L140.12 40.1H140.1L139.41 43.31H140.81ZM141 38.86L142.89 46H141.39L141.06 44.49H139.16L138.83 46H137.33L139.22 38.86H141ZM143.387 46V38.86H144.827V44.82H147.377V46H143.387ZM150.996 43.31L150.306 40.1H150.286L149.596 43.31H150.996ZM151.186 38.86L153.076 46H151.576L151.246 44.49H149.346L149.016 46H147.516L149.406 38.86H151.186ZM156.742 40.98C156.742 40.8467 156.726 40.71 156.692 40.57C156.666 40.43 156.619 40.3033 156.552 40.19C156.486 40.07 156.399 39.9733 156.292 39.9C156.192 39.82 156.069 39.78 155.922 39.78C155.576 39.78 155.326 39.9733 155.172 40.36C155.019 40.7467 154.942 41.3867 154.942 42.28C154.942 42.7067 154.956 43.0933 154.982 43.44C155.009 43.7867 155.056 44.0833 155.122 44.33C155.196 44.57 155.296 44.7567 155.422 44.89C155.556 45.0167 155.726 45.08 155.932 45.08C156.019 45.08 156.112 45.0567 156.212 45.01C156.319 44.9633 156.416 44.8933 156.502 44.8C156.596 44.7067 156.672 44.59 156.732 44.45C156.792 44.3033 156.822 44.1333 156.822 43.94V43.21H155.872V42.15H158.202V46H157.142V45.34H157.122C156.949 45.62 156.739 45.82 156.492 45.94C156.252 46.0533 155.962 46.11 155.622 46.11C155.182 46.11 154.822 46.0333 154.542 45.88C154.269 45.7267 154.052 45.49 153.892 45.17C153.739 44.85 153.636 44.4567 153.582 43.99C153.529 43.5167 153.502 42.97 153.502 42.35C153.502 41.75 153.539 41.2233 153.612 40.77C153.692 40.3167 153.826 39.94 154.012 39.64C154.199 39.3333 154.446 39.1033 154.752 38.95C155.059 38.7967 155.442 38.72 155.902 38.72C156.689 38.72 157.256 38.9167 157.602 39.31C157.949 39.6967 158.122 40.2533 158.122 40.98H156.742ZM163.119 38.86V40.04H160.569V41.72H162.969V42.9H160.569V44.82H163.219V46H159.129V38.86H163.119ZM164.503 38.86C165.003 39.6467 165.36 40.4167 165.573 41.17C165.793 41.9167 165.903 42.6433 165.903 43.35C165.903 44.0567 165.793 44.78 165.573 45.52C165.36 46.26 165.003 47.0233 164.503 47.81H163.443C163.65 47.43 163.827 47.06 163.973 46.7C164.12 46.3467 164.237 45.9967 164.323 45.65C164.417 45.2967 164.483 44.9333 164.523 44.56C164.563 44.18 164.583 43.7767 164.583 43.35C164.583 42.9233 164.563 42.5233 164.523 42.15C164.483 41.77 164.417 41.4 164.323 41.04C164.237 40.68 164.12 40.3233 163.973 39.97C163.827 39.61 163.65 39.24 163.443 38.86H164.503Z" fill="black"/>
<path d="M222.337 36.8405L216.602 36.8342C216.276 36.8342 216.006 36.5707 216.006 36.2444L216 30.5407C216 30.3023 216.144 30.0827 216.37 29.9948C216.59 29.9007 216.847 29.9509 217.016 30.1203L218.14 31.2372L227.803 21.6181C228.035 21.3923 228.411 21.3923 228.643 21.6181L231.304 24.2661C231.417 24.379 231.48 24.5233 231.48 24.6865C231.48 24.8433 231.417 24.9939 231.304 25.1069L221.641 34.7134L222.758 35.8303C222.927 35.9997 222.977 36.257 222.883 36.4766C222.795 36.6962 222.576 36.8405 222.337 36.8405ZM217.198 35.6483L220.894 35.6546L220.373 35.1338C220.141 34.9016 220.141 34.5252 220.373 34.293L230.036 24.6865L228.223 22.8794L218.56 32.4922C218.328 32.7243 217.951 32.7243 217.719 32.4922L217.192 31.9776" fill="white"/>
<path d="M234.473 28.2444C234.015 28.2444 233.575 28.0687 233.237 27.755C232.885 27.4287 232.684 26.9832 232.666 26.5001L232.578 23.7706L233.77 23.7329L233.858 26.4624C233.864 26.6256 233.933 26.7761 234.052 26.8891C234.171 27.002 234.341 27.046 234.498 27.0585C234.661 27.0522 234.811 26.9832 234.924 26.864C235.037 26.7448 235.094 26.5879 235.088 26.4248L234.956 22.7855L236.148 22.7478L236.28 26.3808C236.299 26.864 236.129 27.322 235.797 27.6734C235.464 28.0248 235.019 28.2256 234.535 28.2381C234.51 28.2444 234.491 28.2444 234.473 28.2444Z" fill="white"/>
<path d="M234.473 28.2444C234.015 28.2444 233.575 28.0687 233.237 27.755C232.885 27.4287 232.684 26.9832 232.666 26.5001L232.578 23.7706L233.77 23.7329L233.858 26.4624C233.864 26.6256 233.933 26.7761 234.052 26.8891C234.171 27.002 234.341 27.046 234.498 27.0585C234.661 27.0522 234.811 26.9832 234.924 26.864C235.037 26.7448 235.094 26.5879 235.088 26.4248L234.956 22.7855L236.148 22.7478L236.28 26.3808C236.299 26.864 236.129 27.322 235.797 27.6734C235.464 28.0248 235.019 28.2256 234.535 28.2381C234.51 28.2444 234.491 28.2444 234.473 28.2444Z" fill="white"/>
<path d="M232.063 28.6521C231.599 28.6521 231.166 28.4827 230.827 28.169C230.476 27.8364 230.269 27.3909 230.256 26.9078L230.168 24.1783L231.36 24.1406L231.448 26.8701C231.455 27.0395 231.524 27.1901 231.643 27.3031C231.762 27.416 231.919 27.485 232.082 27.4662C232.421 27.4537 232.691 27.1713 232.678 26.8325L232.546 23.1994L233.739 23.1555L233.87 26.7886C233.908 27.7862 233.124 28.6145 232.126 28.6521C232.101 28.6521 232.082 28.6521 232.063 28.6521Z" fill="white"/>
<path d="M234.115 36.8531C233.87 36.8531 233.651 36.7025 233.563 36.4829C233.469 36.2632 233.519 36.006 233.688 35.8366L234.811 34.7197L225.148 25.1069C224.916 24.881 224.916 24.5045 225.148 24.2723L227.803 21.6244C228.022 21.4048 228.424 21.4048 228.643 21.6244L238.733 31.6576L237.886 32.4984L228.223 22.8856L226.41 24.6927L236.073 34.2993C236.311 34.5314 236.311 34.9142 236.073 35.1401L235.552 35.6609H239.248L239.254 30.547H240.446L240.44 36.2507C240.44 36.577 240.176 36.8405 239.844 36.8405L234.115 36.8531Z" fill="white"/>
<path d="M228.198 41.3648C228.041 41.3648 227.891 41.3083 227.771 41.1891L223.718 37.167C223.548 36.9976 223.498 36.7403 223.586 36.5207C223.68 36.2948 223.9 36.1505 224.138 36.1505H225.726V25.1071C225.726 24.7808 225.989 24.511 226.322 24.511H230.08C230.407 24.511 230.677 24.7808 230.677 25.1071V36.7466H229.484V25.7032H226.918V36.7466C226.918 37.0729 226.648 37.3364 226.322 37.3364H225.581L228.198 39.9341L231.831 36.3262L232.678 37.167L228.618 41.1891C228.499 41.3083 228.349 41.3648 228.198 41.3648Z" fill="white"/>
<path d="M222.331 36.8405L216.602 36.8342C216.276 36.8342 216.006 36.5707 216.006 36.2444L216 30.5407C216 30.3023 216.144 30.0827 216.37 29.9948C216.59 29.9007 216.847 29.9509 217.016 30.1203L218.14 31.2372L227.803 21.6181C228.035 21.3923 228.411 21.3923 228.643 21.6181L231.304 24.2661C231.417 24.379 231.48 24.5233 231.48 24.6865C231.48 24.8433 231.417 24.9939 231.304 25.1069L221.214 35.1338L220.373 34.293L230.036 24.6865L228.223 22.8794L218.56 32.4922C218.328 32.7243 217.951 32.7243 217.719 32.4922L217.192 31.9776L217.198 35.6483L222.337 35.6546" fill="white"/>
<path d="M241.927 19.8237C241.494 19.8237 241.086 19.6543 240.779 19.3531L235.182 13.7812C234.874 13.48 234.705 13.0722 234.705 12.6455C234.705 12.2126 234.874 11.811 235.175 11.5035L236.631 10.0541C237.246 9.4517 238.313 9.4517 238.928 10.0541L244.525 15.626C245.158 16.2534 245.158 17.2762 244.525 17.9037L243.069 19.3531C242.762 19.6543 242.36 19.8237 241.927 19.8237ZM237.779 10.7694C237.666 10.7694 237.56 10.8196 237.478 10.8949V10.9012L236.023 12.3443C235.941 12.4259 235.897 12.5326 235.897 12.6455C235.897 12.7585 235.941 12.8651 236.023 12.9404L241.62 18.5123C241.783 18.6755 242.065 18.6692 242.228 18.5123L243.684 17.0692C243.847 16.8997 243.847 16.6299 243.678 16.4668L238.081 10.9012C237.999 10.8196 237.892 10.7694 237.779 10.7694Z" fill="white"/>
<path d="M236 29.5L231.5 25.5L230.5 26.5L230 28.5L233 32.5L236 29.5Z" fill="#333347"/>
<path d="M234.115 36.8531C233.87 36.8531 233.651 36.7025 233.563 36.4829C233.469 36.2632 233.519 36.006 233.688 35.8366L234.811 34.7197L225.148 25.1069C224.916 24.881 224.916 24.5045 225.148 24.2723L227.803 21.6244C228.022 21.4048 228.424 21.4048 228.643 21.6244L238.313 31.2435L239.43 30.1266C239.599 29.9572 239.856 29.907 240.082 30.0011C240.302 30.089 240.446 30.3086 240.446 30.547L240.44 36.2507C240.44 36.577 240.176 36.8405 239.844 36.8405L234.115 36.8531ZM226.41 24.6927L236.073 34.2993C236.311 34.5314 236.311 34.9142 236.073 35.1401L235.552 35.6609H239.248L239.254 31.9839L238.733 32.4984C238.501 32.7306 238.124 32.7306 237.886 32.4984L228.223 22.8856" fill="white"/>
<path d="M224.5 37.0002H226.5V25.5002H230L230.5 37.0002H231.5L228 41.0002L224.5 37.0002Z" fill="#333347"/>
<path d="M228.198 41.3648C228.041 41.3648 227.891 41.3083 227.778 41.1891L223.718 37.167C223.548 36.9976 223.498 36.7403 223.586 36.5207C223.68 36.2948 223.9 36.1505 224.138 36.1505H225.726V25.1071C225.726 24.7808 225.989 24.511 226.322 24.511H230.08C230.407 24.511 230.677 24.7808 230.677 25.1071V36.1505H232.251C232.496 36.1505 232.716 36.2948 232.804 36.5207C232.898 36.7403 232.848 36.9976 232.678 37.167L228.618 41.1891C228.499 41.3083 228.349 41.3648 228.198 41.3648ZM225.581 37.3364L228.198 39.9341L230.815 37.3364H230.08C229.748 37.3364 229.484 37.0729 229.484 36.7466V25.7032H226.918V36.7466C226.918 37.0729 226.648 37.3364 226.322 37.3364" fill="white"/>
<path d="M230.501 22.0826L227.803 25.6843C227.345 26.2929 227.47 27.1588 228.085 27.6106C228.694 28.0686 229.566 27.9431 230.024 27.3345L231.706 25.0882C232.377 24.2097 233.13 23.8834 233.494 23.7893C234.303 23.576 236.738 22.6661 238.043 21.8818C239.342 21.0912 240.013 19.259 239.944 17.684L236.06 13.8188L227.815 16.3789C226.811 16.7177 226.447 17.2887 226.297 17.6276C226.146 17.9727 224.502 21.8379 224.502 21.8379C224.314 22.321 224.207 22.8983 224.483 23.3877C224.759 23.8772 225.387 24.856 225.387 24.856L227.2 23.0489C227.2 23.0489 227.131 22.0512 227.363 21.5367C227.602 21.0284 227.853 20.1814 228.393 19.9869C228.926 19.7986 229.861 19.4974 229.861 19.4974C229.861 19.4974 229.779 20.5641 229.967 21.1351C230.162 21.7061 230.457 22.0449 230.457 22.0449" fill="#333347"/>
<path d="M228.913 28.4827C228.487 28.4827 228.072 28.3447 227.727 28.0874C227.301 27.7737 227.025 27.3094 226.949 26.7886C226.88 26.2678 227.012 25.747 227.332 25.3266L229.76 22.0826C229.641 21.8881 229.509 21.6371 229.403 21.3233C229.309 21.0284 229.265 20.6582 229.252 20.3257C229.02 20.401 228.782 20.4825 228.593 20.5453C228.399 20.6143 228.167 21.1728 228.041 21.4677L227.909 21.7877C227.79 22.0387 227.771 22.6536 227.796 23.0112C227.809 23.1806 227.746 23.3501 227.627 23.4693L225.807 25.2764C225.682 25.4019 225.5 25.4646 225.324 25.4458C225.142 25.427 224.985 25.3266 224.885 25.176C224.885 25.176 224.245 24.1783 223.963 23.6826C223.643 23.1116 223.636 22.4151 223.95 21.6183C223.956 21.6057 225.6 17.7342 225.751 17.3954C226.071 16.6675 226.717 16.1216 227.621 15.8142L235.878 13.2541C236.092 13.1851 236.324 13.2416 236.481 13.3984L240.371 17.2699C240.478 17.3766 240.534 17.5146 240.54 17.6652C240.609 19.2653 239.95 21.4237 238.35 22.3838C236.995 23.2057 234.535 24.1281 233.644 24.3666C233.513 24.3979 232.822 24.6113 232.182 25.4458L230.501 27.6921C230.181 28.1125 229.723 28.3886 229.196 28.4639C229.102 28.4765 229.007 28.4827 228.913 28.4827ZM229.867 18.9076C229.999 18.9076 230.131 18.9515 230.231 19.0331C230.388 19.1586 230.476 19.3468 230.457 19.5476C230.432 19.9115 230.425 20.6143 230.538 20.9469C230.683 21.3924 230.909 21.6622 230.915 21.6622C231.147 21.863 231.166 22.1892 230.978 22.4402L228.286 26.0356C228.154 26.205 228.104 26.4121 228.135 26.6192C228.16 26.8262 228.273 27.0145 228.443 27.1337C228.612 27.2655 228.819 27.3094 229.026 27.2906C229.233 27.2592 229.422 27.1462 229.547 26.9831L231.229 24.7305C232.088 23.6136 233.061 23.2873 233.343 23.2183C234.059 23.0301 236.468 22.1391 237.729 21.3735C238.802 20.7272 239.342 19.2025 239.354 17.935L235.891 14.4965L227.991 16.9436C227.42 17.1381 227.025 17.4519 226.843 17.866C226.692 18.2111 225.054 22.07 225.054 22.07C224.885 22.503 224.866 22.8544 225.004 23.0928C225.123 23.3124 225.318 23.6262 225.494 23.9085L226.598 22.8167C226.592 22.4277 226.61 21.7563 226.824 21.292L226.943 21.0159C227.175 20.4512 227.501 19.6731 228.192 19.4284C228.731 19.2402 229.679 18.9327 229.679 18.9327C229.742 18.9139 229.804 18.9076 229.867 18.9076Z" fill="white"/>
<path d="M214.369 44.7H215.881C216.373 44.7 216.742 44.832 216.988 45.096C217.234 45.36 217.357 45.747 217.357 46.257V49.443C217.357 49.953 217.234 50.34 216.988 50.604C216.742 50.868 216.373 51 215.881 51H214.369V44.7ZM215.863 50.1C216.025 50.1 216.148 50.052 216.232 49.956C216.322 49.86 216.367 49.704 216.367 49.488V46.212C216.367 45.996 216.322 45.84 216.232 45.744C216.148 45.648 216.025 45.6 215.863 45.6H215.359V50.1H215.863ZM218.025 44.7H220.725V45.6H219.015V47.265H220.374V48.165H219.015V50.1H220.725V51H218.025V44.7ZM219.465 43.242H220.545L219.582 44.277H218.835L219.465 43.242ZM222.69 51.09C222.216 51.09 221.853 50.955 221.601 50.685C221.355 50.415 221.232 50.034 221.232 49.542V46.158C221.232 45.666 221.355 45.285 221.601 45.015C221.853 44.745 222.216 44.61 222.69 44.61C223.164 44.61 223.524 44.745 223.77 45.015C224.022 45.285 224.148 45.666 224.148 46.158V46.824H223.212V46.095C223.212 45.705 223.047 45.51 222.717 45.51C222.387 45.51 222.222 45.705 222.222 46.095V49.614C222.222 49.998 222.387 50.19 222.717 50.19C223.047 50.19 223.212 49.998 223.212 49.614V48.651H224.148V49.542C224.148 50.034 224.022 50.415 223.77 50.685C223.524 50.955 223.164 51.09 222.69 51.09ZM224.74 44.7H225.73V47.265H226.792V44.7H227.782V51H226.792V48.165H225.73V51H224.74V44.7ZM228.519 44.7H231.219V45.6H229.509V47.265H230.868V48.165H229.509V50.1H231.219V51H228.519V44.7ZM228.699 43.242H229.779L230.409 44.277H229.662L228.699 43.242ZM232.563 45.6H231.528V44.7H234.588V45.6H233.553V51H232.563V45.6ZM235.067 44.7H237.767V45.6H236.057V47.265H237.416V48.165H236.057V50.1H237.767V51H235.067V44.7ZM238.337 44.7H239.804C240.314 44.7 240.686 44.82 240.92 45.06C241.154 45.294 241.271 45.657 241.271 46.149V46.536C241.271 47.19 241.055 47.604 240.623 47.778V47.796C240.863 47.868 241.031 48.015 241.127 48.237C241.229 48.459 241.28 48.756 241.28 49.128V50.235C241.28 50.415 241.286 50.562 241.298 50.676C241.31 50.784 241.34 50.892 241.388 51H240.38C240.344 50.898 240.32 50.802 240.308 50.712C240.296 50.622 240.29 50.46 240.29 50.226V49.074C240.29 48.786 240.242 48.585 240.146 48.471C240.056 48.357 239.897 48.3 239.669 48.3H239.327V51H238.337V44.7ZM239.687 47.4C239.885 47.4 240.032 47.349 240.128 47.247C240.23 47.145 240.281 46.974 240.281 46.734V46.248C240.281 46.02 240.239 45.855 240.155 45.753C240.077 45.651 239.951 45.6 239.777 45.6H239.327V47.4H239.687ZM241.967 44.7H242.957V51H241.967V44.7ZM243.698 44.7H246.398V45.6H244.688V47.265H246.047V48.165H244.688V50.1H246.398V51H243.698V44.7Z" fill="white"/>
</g>
<defs>
<clipPath id="clip0_79_801">
<rect width="260" height="61" fill="white"/>
</clipPath>
</defs>
</svg>
