<svg width="227" height="62" viewBox="0 0 227 62" fill="none" xmlns="http://www.w3.org/2000/svg">
<g clip-path="url(#clip0_21_1550)">
<path d="M24.8542 61.9479C11.2344 61.9479 0.15625 50.9948 0.15625 37.5364V0.135376H201.323C214.938 0.135376 226.016 11.0833 226.016 24.5416V61.9479" fill="white"/>
<path d="M24.8542 60.6093C11.2344 60.6093 0.15625 49.6562 0.15625 36.1979V0.135376H201.323C214.938 0.135376 226.016 11.0833 226.016 24.5416V60.6093" fill="white"/>
<path d="M201.323 5.80725H50.2708V36.1979C50.2708 46.5312 58.802 54.9375 69.2916 54.9375H220.349V24.5416C220.349 14.2083 211.812 5.80725 201.323 5.80725Z" fill="white"/>
<path d="M218.458 53.0468H69.2916C59.8437 53.0468 52.1562 45.4895 52.1562 36.2031V7.69267H201.323C210.771 7.69267 218.458 15.2552 218.458 24.5416V53.0468ZM201.323 5.80725H50.2708V36.1979C50.2708 46.5312 58.802 54.9375 69.2916 54.9375H220.349V24.5416C220.349 14.2083 211.812 5.80725 201.323 5.80725Z" fill="#008A31"/>
<path d="M103.057 5.80725H50.2708V36.1979C50.2708 46.5312 58.802 54.9375 69.2916 54.9375H122.083V24.5416C122.083 14.2083 113.547 5.80725 103.057 5.80725Z" fill="#008A31"/>
<path d="M56.3281 26.651V17.25H58.8177V24.5677H62.375V26.651" fill="white"/>
<path d="M63.4895 26.651V17.25H69.5624V19.3333H65.9739V20.8073H69.0416V22.8906H65.9739V24.5677H69.7083V26.651" fill="white"/>
<path d="M75.6354 26.651V19.3333H73.151V17.25H80.6145V19.3333H78.125V26.651" fill="white"/>
<path d="M84.099 21.5313H84.9948C85.9948 21.5313 86.5 21.1198 86.5 20.2865C86.5 19.8854 86.3698 19.6042 86.1146 19.4479C85.8594 19.2969 85.4844 19.2188 84.9948 19.2188H84.099V21.5313ZM81.6094 26.651V17.25H85.1667C85.6719 17.25 86.151 17.3021 86.6094 17.3958C87.0677 17.4896 87.4635 17.6563 87.8073 17.8854C88.151 18.1198 88.4219 18.4271 88.625 18.8177C88.8281 19.2083 88.9271 19.6979 88.9271 20.2865C88.9271 20.9635 88.7917 21.5208 88.5156 21.9635C88.2448 22.4115 87.875 22.7552 87.4115 23.0052L89.4479 26.651H86.6719L85.0521 23.5H84.099V26.651" fill="white"/>
<path d="M90.4166 26.651H92.9062V17.25H90.4166V26.651Z" fill="white"/>
<path d="M75.927 43.3281V33.9271H82.0572V36.0104H78.4166V37.8021H81.5364V39.8854H78.4166V43.3281" fill="white"/>
<path d="M85.4635 38.7604L85.3072 39.4114H87.0416L86.8801 38.7604C86.7655 38.3073 86.651 37.8125 86.5364 37.2864C86.4218 36.7552 86.302 36.25 86.1874 35.7812H86.1301C86.026 36.2604 85.9166 36.7656 85.8072 37.2916C85.6926 37.8125 85.5833 38.3073 85.4635 38.7604ZM81.8489 43.3281L84.7135 33.9271H87.7187L90.5833 43.3281H87.953L87.4895 41.3333H84.8593L84.3958 43.3281" fill="white"/>
<path d="M95.1145 43.5052C94.5155 43.5052 93.9426 43.4062 93.401 43.2083C92.8541 43.0104 92.3749 42.7083 91.9687 42.3073C91.5572 41.9114 91.2291 41.4062 90.9895 40.8073C90.7499 40.2031 90.6301 39.5 90.6301 38.6979C90.6301 37.9114 90.7551 37.2083 91.0051 36.5937C91.2551 35.9844 91.5885 35.4687 92.0103 35.0469C92.427 34.6302 92.9114 34.3073 93.4583 34.0885C93.9999 33.8646 94.5728 33.7552 95.1718 33.7552C95.7968 33.7552 96.3593 33.875 96.8489 34.125C97.3385 34.3698 97.7551 34.6614 98.0937 35L96.7916 36.5885C96.5572 36.3854 96.3176 36.2187 96.0728 36.0885C95.828 35.9583 95.5468 35.8958 95.2291 35.8958C94.9478 35.8958 94.6874 35.9583 94.4374 36.0833C94.1926 36.2083 93.9791 36.3854 93.7916 36.6198C93.5989 36.8489 93.453 37.1354 93.3437 37.4739C93.2291 37.8073 93.177 38.1927 93.177 38.6146C93.177 39.5 93.3593 40.1823 93.7343 40.651C94.1041 41.125 94.5937 41.3646 95.1978 41.3646C95.5676 41.3646 95.8905 41.2812 96.177 41.125C96.4583 40.9635 96.703 40.776 96.9062 40.5521L98.2083 42.1146C97.802 42.5781 97.3385 42.9219 96.8124 43.1562C96.2864 43.3854 95.7187 43.5052 95.1145 43.5052Z" fill="white"/>
<path d="M99.1614 43.3281H101.651V33.9271H99.1614V43.3281Z" fill="white"/>
<path d="M103.422 43.3281V33.9271H105.911V41.2448H109.469V43.3281" fill="white"/>
<path d="M110.578 43.3281V33.9271H116.656V36.0104H113.068V37.4844H116.135V39.5677H113.068V41.2448H116.802V43.3281" fill="white"/>
<path d="M69.8697 39.526H65.6197V43.776H62.7812V39.526H58.5312V36.6875H62.7812V32.4375H65.6197V36.6875H69.8697V39.526ZM64.1978 29.4114C59.3958 29.4114 55.5051 33.3073 55.5051 38.1041C55.5051 42.9062 59.3958 46.8021 64.1978 46.8021C69.0051 46.8021 72.8958 42.9062 72.8958 38.1041C72.8958 33.3073 69.0051 29.4114 64.1978 29.4114Z" fill="white"/>
<path d="M163.089 54.9375L176.104 28.3593L162.807 5.80725H201.323C211.812 5.80725 220.349 14.2135 220.349 24.5416V54.9375" fill="#008A31"/>
<path d="M201.323 7.69788H166.115L178.245 28.2812L166.12 53.052H218.458V24.5416C218.458 15.2552 210.771 7.69788 201.323 7.69788Z" fill="#008A31"/>
<path d="M192.682 25.1927H196.307V26.2552H195.083V32.6562H193.906V26.2552H192.682" fill="white"/>
<path d="M198.208 26.2552V28.5521H198.667C199.104 28.5521 199.37 28.3594 199.37 27.7604V27.026C199.37 26.4896 199.187 26.2552 198.771 26.2552H198.208ZM199.484 32.6562C199.422 32.4635 199.38 32.3437 199.38 31.7396V30.5625C199.38 29.8698 199.146 29.6146 198.615 29.6146H198.208V32.6562H197.036V25.1927H198.802C200.021 25.1927 200.542 25.7552 200.542 26.9062V27.4948C200.542 28.2604 200.297 28.75 199.776 28.9948V29.0208C200.359 29.2656 200.552 29.8177 200.552 30.5989V31.75C200.552 32.1094 200.562 32.375 200.682 32.6562" fill="white"/>
<path d="M201.536 32.6562H202.708V25.1927H201.536V32.6562Z" fill="white"/>
<path d="M189.266 40.4062H189.292L190.177 34.3177H191.25L190.099 41.7812H188.354L187.198 34.3177H188.385" fill="white"/>
<path d="M193.182 37.4635H194.792V38.526H193.182V40.7135H195.208V41.7812H192.01V34.3177H195.208V35.3802H193.182" fill="white"/>
<path d="M197.323 35.3802V37.6771H197.781C198.219 37.6771 198.484 37.4844 198.484 36.8854V36.151C198.484 35.6198 198.302 35.3802 197.885 35.3802H197.323ZM198.599 41.7812C198.536 41.5885 198.495 41.4687 198.495 40.8646V39.6875C198.495 38.9948 198.26 38.7396 197.729 38.7396H197.323V41.7812H196.151V34.3177H197.917C199.135 34.3177 199.656 34.8802 199.656 36.0312V36.6198C199.656 37.3854 199.411 37.875 198.891 38.125V38.1458C199.474 38.3906 199.667 38.9427 199.667 39.7239V40.875C199.667 41.2344 199.677 41.5052 199.797 41.7812" fill="white"/>
<path d="M201.823 35.3802V37.6771H202.281C202.719 37.6771 202.984 37.4844 202.984 36.8854V36.151C202.984 35.6198 202.802 35.3802 202.385 35.3802H201.823ZM203.104 41.7812C203.036 41.5885 202.995 41.4687 202.995 40.8646V39.6875C202.995 38.9948 202.76 38.7396 202.229 38.7396H201.823V41.7812H200.651V34.3177H202.422C203.635 34.3177 204.156 34.8802 204.156 36.0312V36.6198C204.156 37.3854 203.911 37.875 203.391 38.125V38.1458C203.974 38.3906 204.167 38.9427 204.167 39.7239V40.875C204.167 41.2344 204.182 41.5052 204.297 41.7812" fill="white"/>
<path d="M206.323 37.4635H207.932V38.526H206.323V40.7135H208.349V41.7812H205.151V34.3177H208.349V35.3802H206.323" fill="white"/>
<path d="M197.974 17.5573C196.875 17.5573 195.984 18.4531 195.984 19.5468C195.984 20.6458 196.875 21.5364 197.974 21.5364C199.073 21.5364 199.964 20.6458 199.964 19.5468C199.964 18.4531 199.073 17.5573 197.974 17.5573ZM197.974 23.2083C195.958 23.2083 194.312 21.5677 194.312 19.5468C194.312 17.5312 195.958 15.8854 197.974 15.8854C199.995 15.8854 201.635 17.5312 201.635 19.5468C201.635 21.5677 199.995 23.2083 197.974 23.2083Z" fill="white"/>
<path d="M213.01 36.7395C213.01 41.7031 208.974 45.7448 204.01 45.7448H191.937C186.979 45.7448 182.937 41.7031 182.937 36.7395V22.1458C182.937 17.1823 186.979 13.1458 191.937 13.1458H204.01C208.974 13.1458 213.01 17.1823 213.01 22.1458V36.7395ZM204.01 11.5573H191.937C186.099 11.5573 181.349 16.3073 181.349 22.1458V36.7395C181.349 40.7031 183.562 44.125 186.792 45.9375C186.573 46.1041 186.417 46.3593 186.417 46.6562V48.4375C186.417 48.9427 186.828 49.3541 187.328 49.3541H208.62C209.12 49.3541 209.531 48.9427 209.531 48.4375V46.6562C209.531 46.3593 209.375 46.1041 209.156 45.9375C212.385 44.125 214.594 40.7031 214.594 36.7395V22.1458C214.594 16.3073 209.844 11.5573 204.01 11.5573Z" fill="white"/>
<path d="M28.5624 25.8802C26.8697 28.375 28.3072 31.6458 30.052 33.3073C31.6458 34.8177 32.9218 35.1771 33.0885 35.2187L33.901 33.6614L36.2447 40.0729L29.6197 41.4166L30.4999 39.7864L29.6041 39.2812C26.8124 37.4687 26.2239 34.9948 26.0312 34.2239C25.6978 32.8958 25.203 28.9271 28.5624 25.8802Z" fill="#1C1C1B"/>
<path d="M28.5312 25.9895C29.7344 28.75 33.2708 29.2812 35.6042 28.6875C37.6771 28.1614 38.6615 27.3073 38.8281 27.151L38.8177 27.1354L37.9323 25.6041L44.599 27.0625L42.1875 33.375L41.2917 31.7864L40.4219 32.2604C37.3958 33.651 34.9896 32.8281 34.2344 32.5833C32.9375 32.151 29.3125 30.4531 28.5312 25.9895Z" fill="#1C1C1B"/>
<path d="M40.3177 19.3281C39.8541 22.6302 37.8698 24.2135 37.25 24.7135C36.1875 25.5729 32.802 27.7031 28.6198 25.9531C31.5937 26.4323 33.9531 23.7448 34.7135 21.4583C35.401 19.4062 35.1979 18.1094 35.1562 17.9062H35.1354L33.3698 17.8281L38.1823 12.9896L42.2083 18.4271L40.3906 18.3229" fill="#1C1C1B"/>
<path fill-rule="evenodd" clip-rule="evenodd" d="M20.0938 16.5468C18.5729 16.5468 17.3438 15.3177 17.3438 13.7968C17.3438 12.276 18.5729 11.0416 20.0938 11.0416C21.6146 11.0416 22.849 12.276 22.849 13.7968C22.849 15.3177 21.6146 16.5468 20.0938 16.5468Z" fill="#1C1C1B"/>
<path d="M15.8333 29.9323C16.0677 29.2916 16.4167 29.3281 16.4167 29.3281C16.4167 29.3281 16.7344 29.2604 16.9115 29.9114L19.4844 38.9479C17.3385 38.3229 15.3802 37.2552 13.7135 35.8489L15.8333 29.9323ZM23.8594 5.80725C13.9167 5.80725 5.82812 13.8958 5.82812 23.8385C5.82812 33.7812 13.9167 41.8698 23.8594 41.8698C24.3906 41.8698 24.9115 41.8385 25.4323 41.7916L25.5521 43.5989L28.8542 40.4114L25.1615 37.5937L25.3021 39.4948C24.8281 39.5416 24.3438 39.5729 23.8594 39.5729C23.0938 39.5729 22.3438 39.5104 21.6094 39.4062L21.5365 38.927L19.8229 24.3281C19.5885 21.5729 21.1615 21.1354 22.1354 21.5468L27.6042 23.7395C28.2292 24.0156 28.5313 23.4895 28.5313 23.4895C28.5313 23.4895 28.8854 22.9375 28.25 22.5364C28.25 22.5364 20.7969 17.5937 19.2083 17.2968C17.0417 16.8958 14.8958 18.6458 14.4219 20.9323L11.776 33.901C9.5 31.1718 8.125 27.6614 8.125 23.8385C8.125 15.1614 15.1823 8.10413 23.8594 8.10413C28.4948 8.10413 32.6667 10.1198 35.5469 13.3177L37.1615 11.677C33.8646 8.07288 29.1198 5.80725 23.8594 5.80725Z" fill="#1C1C1B"/>
<path d="M133.19 38.162C133.19 37.85 133.152 37.624 133.076 37.484C133.004 37.34 132.87 37.268 132.674 37.268C132.566 37.268 132.476 37.298 132.404 37.358C132.336 37.414 132.282 37.508 132.242 37.64C132.202 37.768 132.174 37.938 132.158 38.15C132.142 38.358 132.134 38.614 132.134 38.918C132.134 39.242 132.144 39.504 132.164 39.704C132.188 39.904 132.222 40.06 132.266 40.172C132.314 40.28 132.372 40.354 132.44 40.394C132.512 40.43 132.594 40.448 132.686 40.448C132.762 40.448 132.832 40.436 132.896 40.412C132.964 40.384 133.022 40.332 133.07 40.256C133.118 40.176 133.156 40.066 133.184 39.926C133.212 39.782 133.226 39.594 133.226 39.362H134.09C134.09 39.594 134.072 39.814 134.036 40.022C134 40.23 133.932 40.412 133.832 40.568C133.736 40.724 133.598 40.846 133.418 40.934C133.242 41.022 133.012 41.066 132.728 41.066C132.404 41.066 132.146 41.014 131.954 40.91C131.762 40.806 131.614 40.656 131.51 40.46C131.41 40.264 131.344 40.03 131.312 39.758C131.284 39.486 131.27 39.186 131.27 38.858C131.27 38.534 131.284 38.236 131.312 37.964C131.344 37.688 131.41 37.452 131.51 37.256C131.614 37.06 131.762 36.908 131.954 36.8C132.146 36.688 132.404 36.632 132.728 36.632C133.036 36.632 133.278 36.682 133.454 36.782C133.634 36.882 133.768 37.01 133.856 37.166C133.944 37.318 133.998 37.484 134.018 37.664C134.042 37.84 134.054 38.006 134.054 38.162H133.19ZM135.356 38.858C135.356 39.146 135.362 39.392 135.374 39.596C135.39 39.796 135.418 39.96 135.458 40.088C135.502 40.212 135.562 40.304 135.638 40.364C135.718 40.42 135.822 40.448 135.95 40.448C136.078 40.448 136.18 40.42 136.256 40.364C136.336 40.304 136.396 40.212 136.436 40.088C136.48 39.96 136.508 39.796 136.52 39.596C136.536 39.392 136.544 39.146 136.544 38.858C136.544 38.57 136.536 38.326 136.52 38.126C136.508 37.926 136.48 37.762 136.436 37.634C136.396 37.506 136.336 37.414 136.256 37.358C136.18 37.298 136.078 37.268 135.95 37.268C135.822 37.268 135.718 37.298 135.638 37.358C135.562 37.414 135.502 37.506 135.458 37.634C135.418 37.762 135.39 37.926 135.374 38.126C135.362 38.326 135.356 38.57 135.356 38.858ZM134.492 38.858C134.492 38.534 134.506 38.236 134.534 37.964C134.566 37.688 134.632 37.452 134.732 37.256C134.836 37.06 134.984 36.908 135.176 36.8C135.368 36.688 135.626 36.632 135.95 36.632C136.274 36.632 136.532 36.688 136.724 36.8C136.916 36.908 137.062 37.06 137.162 37.256C137.266 37.452 137.332 37.688 137.36 37.964C137.392 38.236 137.408 38.534 137.408 38.858C137.408 39.186 137.392 39.486 137.36 39.758C137.332 40.03 137.266 40.264 137.162 40.46C137.062 40.656 136.916 40.806 136.724 40.91C136.532 41.014 136.274 41.066 135.95 41.066C135.626 41.066 135.368 41.014 135.176 40.91C134.984 40.806 134.836 40.656 134.732 40.46C134.632 40.264 134.566 40.03 134.534 39.758C134.506 39.486 134.492 39.186 134.492 38.858ZM138.912 36.716L139.956 39.65H139.968V36.716H140.76V41H139.776L138.72 38H138.708V41H137.916V36.716H138.912ZM143.87 36.716V37.424H142.934V41H142.07V37.424H141.134V36.716H143.87ZM146.638 36.716V37.424H145.108V38.432H146.548V39.14H145.108V40.292H146.698V41H144.244V36.716H146.638ZM148.129 36.716L149.173 39.65H149.185V36.716H149.977V41H148.993L147.937 38H147.925V41H147.133V36.716H148.129ZM152.366 39.386L151.952 37.46H151.94L151.526 39.386H152.366ZM152.48 36.716L153.614 41H152.714L152.516 40.094H151.376L151.178 41H150.278L151.412 36.716H152.48ZM154.908 36.716L155.952 39.65H155.964V36.716H156.756V41H155.772L154.716 38H154.704V41H153.912V36.716H154.908ZM159.866 36.716V37.424H158.93V41H158.066V37.424H157.13V36.716H159.866ZM136.639 43.716V44.424H135.109V45.432H136.549V46.14H135.109V47.292H136.699V48H134.245V43.716H136.639ZM138.13 43.716L139.174 46.65H139.186V43.716H139.978V48H138.994L137.938 45H137.926V48H137.134V43.716H138.13ZM142.44 43.716L143.046 46.884H143.064L143.7 43.716H144.594L143.61 48H142.5L141.516 43.716H142.44ZM147.303 43.716V44.424H145.773V45.432H147.213V46.14H145.773V47.292H147.363V48H144.909V43.716H147.303ZM147.798 43.716H149.394C149.754 43.716 150.034 43.808 150.234 43.992C150.434 44.172 150.534 44.448 150.534 44.82C150.534 45.108 150.476 45.344 150.36 45.528C150.244 45.708 150.064 45.824 149.82 45.876V45.888C150.036 45.92 150.194 45.99 150.294 46.098C150.394 46.206 150.456 46.38 150.48 46.62C150.488 46.7 150.494 46.788 150.498 46.884C150.502 46.976 150.506 47.08 150.51 47.196C150.518 47.424 150.53 47.598 150.546 47.718C150.57 47.838 150.622 47.92 150.702 47.964V48H149.766C149.722 47.94 149.694 47.872 149.682 47.796C149.67 47.716 149.662 47.634 149.658 47.55L149.634 46.728C149.626 46.56 149.584 46.428 149.508 46.332C149.432 46.236 149.304 46.188 149.124 46.188H148.662V48H147.798V43.716ZM148.662 45.588H149.022C149.23 45.588 149.39 45.54 149.502 45.444C149.614 45.344 149.67 45.178 149.67 44.946C149.67 44.55 149.47 44.352 149.07 44.352H148.662V45.588ZM151.132 43.716H152.728C153.088 43.716 153.368 43.808 153.568 43.992C153.768 44.172 153.868 44.448 153.868 44.82C153.868 45.108 153.81 45.344 153.694 45.528C153.578 45.708 153.398 45.824 153.154 45.876V45.888C153.37 45.92 153.528 45.99 153.628 46.098C153.728 46.206 153.79 46.38 153.814 46.62C153.822 46.7 153.828 46.788 153.832 46.884C153.836 46.976 153.84 47.08 153.844 47.196C153.852 47.424 153.864 47.598 153.88 47.718C153.904 47.838 153.956 47.92 154.036 47.964V48H153.1C153.056 47.94 153.028 47.872 153.016 47.796C153.004 47.716 152.996 47.634 152.992 47.55L152.968 46.728C152.96 46.56 152.918 46.428 152.842 46.332C152.766 46.236 152.638 46.188 152.458 46.188H151.996V48H151.132V43.716ZM151.996 45.588H152.356C152.564 45.588 152.724 45.54 152.836 45.444C152.948 45.344 153.004 45.178 153.004 44.946C153.004 44.55 152.804 44.352 152.404 44.352H151.996V45.588ZM156.86 43.716V44.424H155.33V45.432H156.77V46.14H155.33V47.292H156.92V48H154.466V43.716H156.86Z" fill="#1C1C1B"/>
<path d="M145.711 31.9259C144.721 32.0926 143.791 32.1535 143.063 32.1119V24.3173C143.063 21.3547 145.035 17.7765 146.834 17.4815C147.308 17.4046 147.796 17.5713 148.257 17.9593C148.963 18.562 149.505 19.6201 149.771 20.8193V30.3805C149.771 30.3805 149.771 30.3837 149.771 30.3869C149.678 30.7011 148.203 31.5091 145.711 31.9259ZM143.496 16.2471C144.012 16.5613 144.791 16.7248 145.57 16.7248C146.539 16.7248 147.513 16.4748 147.965 15.9874C148.539 16.4138 149.601 17.4302 149.751 19.1937C149.44 18.5396 149.046 17.9785 148.578 17.5809C148.004 17.0936 147.372 16.8884 146.754 16.991C144.538 17.3565 142.566 21.39 142.566 24.3173V32.0445C142.245 31.9612 141.989 31.8233 141.87 31.7367V21.1335C141.87 18.6294 142.986 16.9044 143.496 16.2471ZM145.57 11.8481C146.702 11.8481 147.321 12.2136 147.363 12.3418V15.3525C147.321 15.4904 146.702 15.8527 145.57 15.8527C144.439 15.8527 143.82 15.4904 143.775 15.359V12.3515C143.82 12.2136 144.435 11.8481 145.57 11.8481ZM150.64 19.6169C150.64 16.9012 148.882 15.5289 148.232 15.1121V12.3418C148.232 10.5527 142.906 10.5527 142.906 12.3418V15.359C142.906 15.4295 142.916 15.4968 142.932 15.561C142.419 16.1894 141.001 18.1869 141.001 21.1335V31.8297C140.998 31.8457 141.001 31.865 141.001 31.881V31.8842C141.001 31.8842 141.001 31.8842 141.001 31.8874C141.001 31.9291 141.001 31.9708 141.014 32.0157C141.162 32.4806 142.037 32.8846 142.778 32.9679C142.999 32.9904 143.243 33 143.496 33C144.201 33 145.013 32.9263 145.856 32.7852C147.635 32.487 150.64 31.6469 150.64 30.3997C150.64 30.3965 150.64 30.3933 150.64 30.3901C150.64 30.3869 150.64 30.3837 150.64 30.3805" fill="#1C1C1B"/>
</g>
<defs>
<clipPath id="clip0_21_1550">
<rect width="227" height="62" fill="white"/>
</clipPath>
</defs>
</svg>
