<svg width="227" height="61" viewBox="0 0 227 61" fill="none" xmlns="http://www.w3.org/2000/svg">
<g clip-path="url(#clip0_22_1062)">
<path d="M24.8542 60.7916C11.2344 60.7916 0.15625 49.8385 0.15625 36.3801V0.317627H201.323C214.938 0.317627 226.016 11.2655 226.016 24.7239L226.021 60.7916" fill="white"/>
<path d="M201.323 5.98438H50.2708V36.3802C50.2708 46.7135 58.802 55.1198 69.2916 55.1198H220.349V24.724C220.349 14.3958 211.812 5.98438 201.323 5.98438Z" fill="white"/>
<path d="M218.458 53.2292H69.2916C59.8437 53.2292 52.1562 45.6719 52.1562 36.3802V7.875H201.323C210.771 7.875 218.458 15.4323 218.458 24.724V53.2292ZM201.323 5.98438H50.2708V36.3802C50.2708 46.7135 58.802 55.1198 69.2916 55.1198H220.349V24.724C220.349 14.3958 211.812 5.98438 201.323 5.98438Z" fill="#FCC42F"/>
<path d="M163.089 55.1198L176.099 28.5417L162.807 5.98438H201.323C211.812 5.98438 220.349 14.3906 220.349 24.724V55.1198" fill="#FCC42F"/>
<path d="M201.323 7.875H166.115L178.245 28.4583L166.12 53.2292H218.458V24.724C218.458 15.4323 210.771 7.875 201.323 7.875Z" fill="#FCC42F"/>
<path d="M206.281 41.6615H205.078C204.979 41.6615 204.885 41.6719 204.792 41.6875C205.354 35.4323 206.224 25.7708 206.646 21.3958C206.687 20.9531 206.359 20.5573 205.917 20.5156C205.464 20.4635 205.073 20.7969 205.031 21.2448C204.385 27.9635 202.677 47.1458 202.661 47.3385C202.63 47.6615 202.312 47.9271 201.943 47.9271H188.854C188.479 47.9271 188.167 47.6615 188.135 47.3385C188.12 47.1458 186.411 27.9635 185.766 21.2448C185.724 20.7969 185.333 20.4635 184.88 20.5156C184.437 20.5573 184.109 20.9531 184.151 21.3958C184.573 25.7708 185.443 35.4271 186.005 41.6875C185.911 41.6667 185.812 41.6562 185.719 41.6562H184.516C183.74 41.6562 183.104 42.2917 183.104 43.0677V48.1406C183.104 48.9167 183.74 49.5469 184.516 49.5469H185.719C186.297 49.5469 186.802 49.1927 187.016 48.6823C187.443 49.2135 188.104 49.5469 188.854 49.5469H201.943C202.687 49.5469 203.349 49.2135 203.781 48.6875C203.995 49.1927 204.495 49.5521 205.078 49.5521H206.281C207.057 49.5521 207.687 48.9219 207.687 48.1406V43.0677C207.687 42.2917 207.057 41.6615 206.281 41.6615Z" fill="#1C1C1B"/>
<path d="M190.344 25.1198V27.4115H191.016C191.411 27.4115 191.625 27.2292 191.625 26.6771V26.026C191.625 25.3333 191.401 25.1198 190.865 25.1198H190.344ZM190.344 22.0833V24.0521H190.802C191.24 24.0521 191.505 23.8646 191.505 23.2656V22.849C191.505 22.3125 191.323 22.0833 190.906 22.0833H190.344ZM192.677 22.7344V23C192.677 23.7656 192.443 24.2448 191.922 24.4896V24.5104C192.547 24.7604 192.797 25.3125 192.797 26.099V26.7083C192.797 27.8594 192.187 28.4792 191.016 28.4792H189.172V21.0156H190.938C192.156 21.0156 192.677 21.5833 192.677 22.7344Z" fill="#1C1C1B"/>
<path d="M194.833 26.1146H195.964L195.411 22.3385H195.385L194.833 26.1146ZM197.51 28.4792H196.328L196.125 27.125H194.688L194.479 28.4792H193.406L194.599 21.0156H196.313" fill="#1C1C1B"/>
<path d="M201.661 25.6926V26.6874C201.661 27.8801 201.062 28.5624 199.911 28.5624C198.76 28.5624 198.161 27.8801 198.161 26.6874V22.8072C198.161 21.6093 198.76 20.927 199.911 20.927C201.062 20.927 201.661 21.6093 201.661 22.8072V23.5312H200.552V22.7291C200.552 22.1978 200.318 21.9947 199.943 21.9947C199.573 21.9947 199.338 22.1978 199.338 22.7291V26.7603C199.338 27.2916 199.573 27.4843 199.943 27.4843C200.318 27.4843 200.552 27.2916 200.552 26.7603V25.6926" fill="#1C1C1B"/>
<path d="M192.703 31.2083V36.5365H193.365C193.734 36.5365 193.958 36.3438 193.958 35.8125V31.9323C193.958 31.401 193.734 31.2083 193.365 31.2083H192.703ZM191.531 30.1406H193.385C194.557 30.1406 195.13 30.7917 195.13 31.9844V35.7604C195.13 36.9531 194.557 37.6042 193.385 37.6042H191.531" fill="#1C1C1B"/>
<path d="M197.266 33.2865H198.875V34.349H197.266V36.5365H199.292V37.6042H196.094V30.1406H199.292V31.2031H197.266" fill="#1C1C1B"/>
<path d="M190.161 39.2656H193.786V40.3281H192.562V46.7292H191.385V40.3281H190.161" fill="#1C1C1B"/>
<path d="M195.688 40.3281V42.625H196.146C196.583 42.625 196.849 42.4323 196.849 41.8333V41.099C196.849 40.5677 196.667 40.3281 196.25 40.3281H195.688ZM196.969 46.7292C196.901 46.5365 196.859 46.4167 196.859 45.8125V44.6354C196.859 43.9479 196.625 43.6875 196.094 43.6875H195.688V46.7292H194.516V39.2656H196.286C197.5 39.2656 198.021 39.8281 198.021 40.9792V41.5677C198.021 42.3333 197.776 42.8229 197.255 43.0729V43.0938C197.839 43.3385 198.031 43.8906 198.031 44.6719V45.8229C198.031 46.1823 198.042 46.4531 198.161 46.7292" fill="#1C1C1B"/>
<path d="M199.016 46.7292H200.188V39.2656H199.016V46.7292Z" fill="#1C1C1B"/>
<path d="M207.125 17.6197H183.672V15.6666C183.672 15.5989 183.703 15.5676 183.698 15.5676H185.396C185.589 15.5676 185.771 15.4999 185.917 15.3697L188.047 13.5103C188.141 13.427 188.37 13.3437 188.661 13.3437H202.13C202.422 13.3437 202.656 13.427 202.75 13.5103L204.88 15.3697C205.026 15.4999 205.208 15.5676 205.401 15.5676H207.099C207.089 15.5676 207.125 15.5989 207.125 15.6666V17.6197ZM207.099 13.9791H205.698L203.792 12.3176C203.385 11.9583 202.781 11.7551 202.13 11.7551H188.661C188.016 11.7551 187.411 11.9583 187 12.3176L185.094 13.9791H183.698C182.807 13.9791 182.089 14.7395 182.089 15.6666V17.8124C182.089 18.1093 182.161 18.401 182.307 18.6614C182.37 18.7708 182.458 18.8697 182.562 18.9374C182.823 19.1093 183.12 19.1978 183.427 19.1978H207.37C207.677 19.1978 207.974 19.1093 208.234 18.9374C208.339 18.8697 208.427 18.7708 208.49 18.6614C208.63 18.401 208.708 18.1093 208.708 17.8124V15.6666C208.708 14.7395 207.984 13.9791 207.099 13.9791Z" fill="#1C1C1B"/>
<path d="M202.125 14.0781H188.667C188.297 14.0781 187.995 14.3802 187.995 14.75C187.995 15.1198 188.297 15.4219 188.667 15.4219H202.125C202.495 15.4219 202.797 15.1198 202.797 14.75C202.797 14.3802 202.495 14.0781 202.125 14.0781Z" fill="#1C1C1B"/>
<path d="M103.057 5.98438H50.2708V36.3802C50.2708 46.7135 58.802 55.1198 69.2916 55.1198H122.083V24.724C122.083 14.3958 113.547 5.98438 103.057 5.98438Z" fill="#FCC42F"/>
<path d="M63.8072 29.677C59.0051 29.677 55.1145 33.5676 55.1145 38.3697C55.1145 43.1718 59.0051 47.0624 63.8072 47.0624C68.6145 47.0624 72.5051 43.1718 72.5051 38.3697C72.5051 33.5676 68.6145 29.677 63.8072 29.677Z" fill="white"/>
<path d="M69.4792 39.7865H65.2292V44.0417H62.3906V39.7865H58.1406V36.9531H62.3906V32.7031H65.2292V36.9531H69.4792" fill="#1C1C1B"/>
<path d="M55.9426 26.9167V17.5156H58.427V24.8333H61.9843V26.9167" fill="#1C1C1B"/>
<path d="M63.0989 26.9167V17.5156H69.1718V19.599H65.5885V21.0729H68.651V23.1563H65.5885V24.8333H69.3176V26.9167" fill="#1C1C1B"/>
<path d="M75.2448 26.9167V19.599H72.7604V17.5156H80.2239V19.599H77.7343V26.9167" fill="#1C1C1B"/>
<path d="M83.7083 21.7969H84.6042C85.6042 21.7969 86.1094 21.3802 86.1094 20.5521C86.1094 20.1458 85.9792 19.8698 85.724 19.7135C85.4688 19.5573 85.0938 19.4792 84.6042 19.4792H83.7083V21.7969ZM81.2188 26.9167V17.5156H84.776C85.2813 17.5156 85.7604 17.5625 86.2188 17.6563C86.6771 17.7552 87.0729 17.9219 87.4167 18.151C87.7604 18.3802 88.0313 18.6927 88.2344 19.0833C88.4375 19.474 88.5365 19.9635 88.5365 20.5521C88.5365 21.2292 88.401 21.7865 88.125 22.2292C87.8542 22.6719 87.4844 23.0208 87.0208 23.2708L89.0573 26.9167H86.2813L84.6615 23.7604H83.7083V26.9167" fill="#1C1C1B"/>
<path d="M90.026 26.9167H92.5156V17.5156H90.026V26.9167Z" fill="#1C1C1B"/>
<path d="M75.5364 43.5937V34.1926H81.6666V36.276H78.026V38.0676H81.1458V40.151H78.026V43.5937" fill="#1C1C1B"/>
<path d="M85.0781 39.0208L84.9166 39.6718H86.651L86.4948 39.0208C86.3802 38.5676 86.2604 38.078 86.1458 37.5468C86.0312 37.0155 85.9166 36.5155 85.7968 36.0416H85.7395C85.6354 36.526 85.526 37.0312 85.4166 37.552C85.3073 38.078 85.1927 38.5676 85.0781 39.0208ZM81.4635 43.5937L84.3229 34.1926H87.3281L90.1927 43.5937H87.5625L87.0989 41.5989H84.4687L84.0052 43.5937" fill="#1C1C1B"/>
<path d="M94.7187 43.7656C94.1249 43.7656 93.552 43.6667 93.0103 43.4688C92.4635 43.2708 91.9895 42.974 91.578 42.5729C91.1666 42.1719 90.8385 41.6719 90.5989 41.0677C90.3593 40.4688 90.2395 39.7656 90.2395 38.9635C90.2395 38.1771 90.3645 37.474 90.6145 36.8594C90.8645 36.25 91.1978 35.7344 91.6197 35.3125C92.0364 34.8958 92.5208 34.5729 93.0676 34.349C93.6145 34.1302 94.1822 34.0156 94.7812 34.0156C95.4062 34.0156 95.9687 34.1406 96.4583 34.3854C96.953 34.6354 97.3645 34.9271 97.703 35.2604L96.401 36.8542C96.1718 36.651 95.9322 36.4844 95.6874 36.3542C95.4374 36.224 95.1562 36.1563 94.8385 36.1563C94.5572 36.1563 94.2968 36.2188 94.052 36.349C93.8072 36.474 93.5885 36.651 93.401 36.8802C93.2135 37.1146 93.0624 37.401 92.953 37.7344C92.8385 38.0729 92.7864 38.4531 92.7864 38.875C92.7864 39.7656 92.9687 40.4479 93.3437 40.9167C93.7135 41.3906 94.203 41.625 94.8072 41.625C95.177 41.625 95.4999 41.5469 95.7864 41.3854C96.0676 41.2292 96.3124 41.0365 96.5155 40.8177L97.8176 42.375C97.4114 42.8438 96.9478 43.1875 96.4218 43.4167C95.8958 43.651 95.328 43.7656 94.7187 43.7656Z" fill="#1C1C1B"/>
<path d="M98.776 43.5937H101.26V34.1926H98.776V43.5937Z" fill="#1C1C1B"/>
<path d="M103.031 43.5937V34.1926H105.521V41.5103H109.078V43.5937" fill="#1C1C1B"/>
<path d="M110.188 43.5937V34.1926H116.266V36.276H112.677V37.7499H115.745V39.8333H112.677V41.5103H116.411V43.5937" fill="#1C1C1B"/>
<path d="M28.5624 26.0625C26.8697 28.5521 28.3072 31.8281 30.052 33.4896C31.6458 35 32.9218 35.3594 33.0885 35.401L33.901 33.8438L36.2447 40.2552L29.6197 41.599L30.4999 39.9688L29.6041 39.4635C26.8124 37.6458 26.2239 35.1771 26.0312 34.4063C25.6978 33.0781 25.203 29.1094 28.5624 26.0625Z" fill="#1C1C1B"/>
<path d="M28.5312 26.1718C29.7344 28.927 33.2708 29.4635 35.6042 28.8697C37.6771 28.3437 38.6615 27.4895 38.8281 27.3333L38.8177 27.3176L37.9323 25.7864L44.599 27.2395L42.1875 33.5572L41.2917 31.9687L40.4219 32.4374C37.3958 33.828 34.9896 33.0103 34.2344 32.7603C32.9375 32.3333 29.3125 30.6353 28.5312 26.1718Z" fill="#1C1C1B"/>
<path d="M40.3177 19.5156C39.8541 22.8125 37.8698 24.3958 37.25 24.8958C36.1875 25.7552 32.802 27.8854 28.6198 26.1354C31.5937 26.6094 33.9531 23.9271 34.7135 21.6406C35.401 19.5885 35.1979 18.2917 35.1562 18.0885H35.1354L33.3698 18.0104L38.1823 13.1719L42.2083 18.6094L40.3906 18.5052" fill="#1C1C1B"/>
<path fill-rule="evenodd" clip-rule="evenodd" d="M20.0938 16.7291C18.5729 16.7291 17.3438 15.4999 17.3438 13.9791C17.3438 12.4583 18.5729 11.2239 20.0938 11.2239C21.6146 11.2239 22.849 12.4583 22.849 13.9791C22.849 15.4999 21.6146 16.7291 20.0938 16.7291Z" fill="#1C1C1B"/>
<path d="M15.8333 30.1146C16.0677 29.4688 16.4167 29.5104 16.4167 29.5104C16.4167 29.5104 16.7344 29.4427 16.9115 30.0938L19.4844 39.125C17.3385 38.5052 15.3802 37.4375 13.7135 36.0313L15.8333 30.1146ZM23.8594 5.98438C13.9167 5.98438 5.82812 14.0729 5.82812 24.0208C5.82812 33.9583 13.9167 42.0521 23.8594 42.0521C24.3906 42.0521 24.9115 42.0156 25.4323 41.9688L25.5521 43.7813L28.8542 40.5885L25.1615 37.776L25.3021 39.6771C24.8281 39.7188 24.3438 39.75 23.8594 39.75C23.0938 39.75 22.3438 39.6927 21.6094 39.5885L21.5365 39.1094L19.8229 24.5104C19.5885 21.7552 21.1615 21.3125 22.1354 21.7292L27.6042 23.9219C28.2292 24.1927 28.5313 23.6719 28.5313 23.6719C28.5313 23.6719 28.8854 23.1198 28.25 22.7135C28.25 22.7135 20.7969 17.776 19.2083 17.4792C17.0417 17.0729 14.8958 18.8281 14.4219 21.1146L11.776 34.0833C9.5 31.349 8.125 27.8438 8.125 24.0208C8.125 15.3438 15.1823 8.28646 23.8594 8.28646C28.4948 8.28646 32.6667 10.3021 35.5469 13.4948L37.1615 11.8594C33.8646 8.25 29.1198 5.98438 23.8594 5.98438Z" fill="#1C1C1B"/>
<path d="M137.117 35.002H139.91V35.828H138.125V37.004H139.805V37.83H138.125V40H137.117V35.002ZM140.406 40V35.002H141.414V40H140.406ZM142.162 40V35.002H143.17V39.174H144.955V40H142.162ZM145.423 35.002H146.921L147.635 38.53H147.649L148.37 35.002H149.861V40H148.937V36.01H148.923L148.034 40H147.25L146.361 36.01H146.347V40H145.423V35.002ZM129.566 45.263H130.014C130.215 45.263 130.376 45.2023 130.497 45.081C130.623 44.9597 130.686 44.7707 130.686 44.514C130.686 44.262 130.632 44.0707 130.525 43.94C130.418 43.8093 130.238 43.744 129.986 43.744H129.566V45.263ZM128.558 43.002H130.322C130.579 43.002 130.793 43.0463 130.966 43.135C131.143 43.219 131.286 43.331 131.393 43.471C131.5 43.611 131.577 43.772 131.624 43.954C131.671 44.1313 131.694 44.3133 131.694 44.5C131.694 44.7567 131.654 44.9807 131.575 45.172C131.5 45.3633 131.393 45.5197 131.253 45.641C131.118 45.7623 130.952 45.8533 130.756 45.914C130.56 45.9747 130.343 46.005 130.105 46.005H129.566V48H128.558V43.002ZM132.188 48V43.002H133.196V47.174H134.981V48H132.188ZM137.514 46.117L137.031 43.87H137.017L136.534 46.117H137.514ZM137.647 43.002L138.97 48H137.92L137.689 46.943H136.359L136.128 48H135.078L136.401 43.002H137.647ZM140.13 46.439V46.586C140.13 46.7027 140.139 46.81 140.158 46.908C140.176 47.0013 140.211 47.0807 140.263 47.146C140.314 47.2113 140.382 47.2627 140.466 47.3C140.554 47.3373 140.664 47.356 140.795 47.356C140.949 47.356 141.086 47.307 141.208 47.209C141.334 47.1063 141.397 46.95 141.397 46.74C141.397 46.628 141.38 46.5323 141.348 46.453C141.32 46.369 141.271 46.2943 141.201 46.229C141.131 46.1637 141.037 46.1053 140.921 46.054C140.809 45.998 140.669 45.942 140.501 45.886C140.277 45.8113 140.083 45.7297 139.92 45.641C139.756 45.5523 139.619 45.4497 139.507 45.333C139.399 45.2117 139.32 45.074 139.269 44.92C139.217 44.7613 139.192 44.5793 139.192 44.374C139.192 43.8793 139.329 43.5107 139.605 43.268C139.88 43.0253 140.258 42.904 140.739 42.904C140.963 42.904 141.168 42.9297 141.355 42.981C141.546 43.0277 141.709 43.107 141.845 43.219C141.985 43.3263 142.092 43.4663 142.167 43.639C142.246 43.807 142.286 44.01 142.286 44.248V44.388H141.32C141.32 44.15 141.278 43.968 141.194 43.842C141.11 43.7113 140.97 43.646 140.774 43.646C140.662 43.646 140.568 43.6623 140.494 43.695C140.419 43.7277 140.358 43.772 140.312 43.828C140.27 43.8793 140.239 43.94 140.221 44.01C140.207 44.08 140.2 44.1523 140.2 44.227C140.2 44.381 140.232 44.5117 140.298 44.619C140.363 44.7217 140.503 44.8173 140.718 44.906L141.495 45.242C141.686 45.326 141.842 45.4147 141.964 45.508C142.085 45.5967 142.181 45.6947 142.251 45.802C142.325 45.9047 142.377 46.019 142.405 46.145C142.433 46.271 142.447 46.411 142.447 46.565C142.447 47.0923 142.293 47.4773 141.985 47.72C141.681 47.958 141.257 48.077 140.711 48.077C140.141 48.077 139.733 47.9533 139.486 47.706C139.243 47.4587 139.122 47.104 139.122 46.642V46.439H140.13ZM145.874 43.002V43.828H144.782V48H143.774V43.828H142.682V43.002H145.874ZM146.36 48V43.002H147.368V48H146.36ZM149.019 45.501C149.019 45.837 149.026 46.124 149.04 46.362C149.058 46.5953 149.091 46.7867 149.138 46.936C149.189 47.0807 149.259 47.188 149.348 47.258C149.441 47.3233 149.562 47.356 149.712 47.356C149.861 47.356 149.98 47.3233 150.069 47.258C150.162 47.188 150.232 47.0807 150.279 46.936C150.33 46.7867 150.363 46.5953 150.377 46.362C150.395 46.124 150.405 45.837 150.405 45.501C150.405 45.165 150.395 44.8803 150.377 44.647C150.363 44.4137 150.33 44.2223 150.279 44.073C150.232 43.9237 150.162 43.8163 150.069 43.751C149.98 43.681 149.861 43.646 149.712 43.646C149.562 43.646 149.441 43.681 149.348 43.751C149.259 43.8163 149.189 43.9237 149.138 44.073C149.091 44.2223 149.058 44.4137 149.04 44.647C149.026 44.8803 149.019 45.165 149.019 45.501ZM150.972 48.595L150.377 48C150.19 48.0513 149.968 48.077 149.712 48.077C149.334 48.077 149.033 48.0163 148.809 47.895C148.585 47.7737 148.412 47.5987 148.291 47.37C148.174 47.1413 148.097 46.8683 148.06 46.551C148.027 46.2337 148.011 45.8837 148.011 45.501C148.011 45.123 148.027 44.7753 148.06 44.458C148.097 44.136 148.174 43.8607 148.291 43.632C148.412 43.4033 148.585 43.226 148.809 43.1C149.033 42.9693 149.334 42.904 149.712 42.904C150.09 42.904 150.391 42.9693 150.615 43.1C150.839 43.226 151.009 43.4033 151.126 43.632C151.247 43.8607 151.324 44.136 151.357 44.458C151.394 44.7753 151.413 45.123 151.413 45.501C151.413 45.9257 151.389 46.3107 151.343 46.656C151.296 47.0013 151.191 47.293 151.028 47.531L151.567 48.056L150.972 48.595ZM152.95 43.002V46.488C152.95 46.614 152.957 46.7307 152.971 46.838C152.99 46.9407 153.02 47.0317 153.062 47.111C153.109 47.1857 153.17 47.2463 153.244 47.293C153.324 47.335 153.422 47.356 153.538 47.356C153.66 47.356 153.758 47.335 153.832 47.293C153.907 47.2463 153.965 47.1857 154.007 47.111C154.054 47.0317 154.084 46.9407 154.098 46.838C154.117 46.7307 154.126 46.614 154.126 46.488V43.002H155.134V46.488C155.134 46.8053 155.09 47.069 155.001 47.279C154.913 47.4843 154.794 47.6477 154.644 47.769C154.495 47.8903 154.325 47.972 154.133 48.014C153.942 48.056 153.744 48.077 153.538 48.077C153.333 48.077 153.135 48.0583 152.943 48.021C152.752 47.9837 152.582 47.909 152.432 47.797C152.283 47.6803 152.164 47.517 152.075 47.307C151.987 47.097 151.942 46.824 151.942 46.488V43.002H152.95ZM158.565 43.002V43.828H156.78V45.004H158.46V45.83H156.78V47.174H158.635V48H155.772V43.002H158.565Z" fill="#1C1C1B"/>
<path d="M146.247 24.2272C146.939 23.5136 147.366 22.7168 147.533 21.8574C149.663 22.8157 151.965 23.3053 154.387 23.3261C149.945 24.7897 146.439 25.5084 143.892 25.847C144.83 25.3938 145.642 24.8574 146.247 24.2272ZM146.366 20.9303C146.403 21.8157 146.059 22.6334 145.351 23.3678C143.783 24.9928 140.627 26.0032 137.122 26.0032C133.778 26.0032 130.726 25.1178 128.465 23.5084C131.325 22.7636 134.533 21.1282 138.767 18.274C140.684 18.4668 142.653 18.4772 144.559 18.4876C149.627 18.5136 154.424 18.5397 158.533 21.623C157.247 21.9355 155.913 22.0918 154.564 22.0918C151.96 22.0918 149.507 21.5084 147.273 20.3522L146.695 20.0605C146.622 20.0188 146.528 20.024 146.455 20.0709C146.382 20.1126 146.34 20.1959 146.346 20.2845L146.366 20.9303ZM160.757 21.8782L160.262 21.4407C155.611 17.3001 149.991 17.274 144.554 17.2428C142.606 17.2324 140.59 17.222 138.679 17.0136L138.538 17.0032C138.476 16.9928 138.424 17.0084 138.372 17.0397L138.257 17.1178C133.538 20.3209 129.955 22.0501 126.96 22.5605L126.2 22.6907C126.111 22.7063 126.033 22.774 126.012 22.8626C125.981 22.9511 126.012 23.0449 126.075 23.1074L126.648 23.6334C129.153 25.9303 132.971 27.2428 137.122 27.2428C138.351 27.2428 139.538 27.1126 140.653 26.8938C143.361 26.8261 148.882 26.2115 157.262 23.1282C158.392 22.9615 159.346 22.7168 160.038 22.4928L160.669 22.2897C160.757 22.2636 160.814 22.1959 160.835 22.1074C160.851 22.024 160.825 21.9355 160.757 21.8782Z" fill="#1C1C1B"/>
</g>
<defs>
<clipPath id="clip0_22_1062">
<rect width="227" height="61" fill="white"/>
</clipPath>
</defs>
</svg>
