<svg width="230" height="61" viewBox="0 0 230 61" fill="none" xmlns="http://www.w3.org/2000/svg">
<g clip-path="url(#clip0_72_4235)">
<path d="M24.6979 60.4688C11.0781 60.4688 0 49.5208 0 36.0625V0H204.948C218.563 0 229.641 10.9479 229.641 24.4062V60.4688" fill="white"/>
<path d="M222.083 52.9114H69.1353C59.6874 52.9114 51.9999 45.3541 51.9999 36.0625V7.55725H204.948C214.396 7.55725 222.083 15.1145 222.083 24.4062V52.9114ZM204.948 5.66663H50.1145V36.0625C50.1145 46.3958 58.6458 54.802 69.1353 54.802H223.969V24.4062C223.969 14.0729 215.437 5.66663 204.948 5.66663Z" fill="#6B5B4A"/>
<path d="M166.714 54.802L179.724 28.2239L166.432 5.66663H204.948C215.437 5.66663 223.969 14.0729 223.969 24.4062V54.802" fill="#6B5B4A"/>
<path d="M102.901 5.66663H50.1145V36.0625C50.1145 46.3958 58.6458 54.802 69.1353 54.802H121.927V24.4062C121.927 14.0729 113.391 5.66663 102.901 5.66663Z" fill="#6B5B4A"/>
<path d="M63.651 29.3594C58.8489 29.3594 54.9583 33.25 54.9583 38.0521C54.9583 42.8542 58.8489 46.7448 63.651 46.7448C68.4583 46.7448 72.3489 42.8542 72.3489 38.0521C72.3489 33.25 68.4583 29.3594 63.651 29.3594Z" fill="white"/>
<path d="M69.3229 39.4688H65.0729V43.7188H62.2344V39.4688H57.9844V36.6355H62.2344V32.3802H65.0729V36.6355H69.3229" fill="#1C1C1B"/>
<path d="M55.7864 26.5937V17.1979H58.2708V24.5156H61.828V26.5937" fill="white"/>
<path d="M62.9426 26.5937V17.1979H69.0155V19.276H65.4322V20.7552H68.4947V22.8385H65.4322V24.5156H69.1614V26.5937" fill="white"/>
<path d="M75.0885 26.5937V19.276H72.6041V17.1979H80.0677V19.276H77.5781V26.5937" fill="white"/>
<path d="M83.5521 21.4739H84.4479C85.4479 21.4739 85.9531 21.0625 85.9531 20.2343C85.9531 19.8281 85.8229 19.5468 85.5677 19.3958C85.3125 19.2395 84.9375 19.1614 84.4479 19.1614H83.5521V21.4739ZM81.0625 26.5989V17.1979H84.6198C85.125 17.1979 85.6042 17.2448 86.0625 17.3385C86.5208 17.4375 86.9167 17.5989 87.2604 17.8333C87.6042 18.0625 87.875 18.375 88.0781 18.7656C88.2813 19.1562 88.3802 19.6458 88.3802 20.2343C88.3802 20.9062 88.2448 21.4687 87.9688 21.9114C87.6979 22.3541 87.3281 22.6979 86.8646 22.9531L88.901 26.5989H86.125L84.5052 23.4427H83.5521V26.5989" fill="white"/>
<path d="M89.8698 26.5989H92.3593V17.1979H89.8698V26.5989Z" fill="white"/>
<path d="M75.3801 43.276V33.8698H81.5103V35.9531H77.8697V37.75H80.9895V39.8333H77.8697V43.276" fill="white"/>
<path d="M84.9218 38.7031L84.7604 39.3541H86.4948L86.3385 38.7031C86.2239 38.25 86.1041 37.7604 85.9895 37.2291C85.875 36.6979 85.7604 36.1979 85.6406 35.7239H85.5833C85.4791 36.2031 85.3698 36.7083 85.2604 37.2343C85.151 37.7604 85.0364 38.25 84.9218 38.7031ZM81.3073 43.276L84.1666 33.8698H87.1718L90.0364 43.276H87.4062L86.9427 41.276H84.3125L83.8489 43.276" fill="white"/>
<path d="M94.5624 43.4479C93.9687 43.4479 93.3958 43.3489 92.8541 43.151C92.3072 42.9531 91.8333 42.651 91.4218 42.2552C91.0103 41.8541 90.6822 41.3541 90.4426 40.75C90.203 40.1458 90.0833 39.4479 90.0833 38.6458C90.0833 37.8541 90.2083 37.151 90.4583 36.5416C90.7083 35.927 91.0416 35.4114 91.4635 34.9948C91.8801 34.5729 92.3645 34.25 92.9114 34.0312C93.4583 33.8073 94.026 33.6979 94.6249 33.6979C95.2499 33.6979 95.8124 33.8229 96.302 34.0677C96.7968 34.3125 97.2083 34.6041 97.5468 34.9427L96.2447 36.5312C96.0155 36.3333 95.776 36.1666 95.5312 36.0312C95.2812 35.9062 94.9999 35.8385 94.6822 35.8385C94.401 35.8385 94.1405 35.901 93.8958 36.026C93.651 36.151 93.4322 36.3333 93.2447 36.5625C93.0572 36.7916 92.9062 37.0781 92.7968 37.4166C92.6822 37.75 92.6301 38.1354 92.6301 38.5573C92.6301 39.4479 92.8124 40.125 93.1874 40.5989C93.5572 41.0677 94.0468 41.3073 94.651 41.3073C95.0208 41.3073 95.3437 41.2291 95.6301 41.0677C95.9114 40.9062 96.1562 40.7187 96.3593 40.4948L97.6614 42.0573C97.2551 42.5208 96.7916 42.8698 96.2655 43.0989C95.7395 43.3333 95.1718 43.4479 94.5624 43.4479Z" fill="white"/>
<path d="M98.6198 43.276H101.104V33.8698H98.6198V43.276Z" fill="white"/>
<path d="M102.875 43.276V33.8698H105.365V41.1927H108.922V43.276" fill="white"/>
<path d="M110.031 43.276V33.8698H116.109V35.9531H112.521V37.4323H115.589V39.5156H112.521V41.1927H116.255V43.276" fill="white"/>
<path d="M28.4062 25.7448C26.7135 28.2343 28.151 31.5104 29.8958 33.1718C31.4895 34.6823 32.7655 35.0364 32.9322 35.0781L33.7447 33.5208L36.0885 39.9323L29.4635 41.2812L30.3437 39.6458L29.4478 39.1458C26.6562 37.3281 26.0676 34.8593 25.8749 34.0885C25.5416 32.7604 25.0468 28.7864 28.4062 25.7448Z" fill="#6B5B4A"/>
<path d="M28.375 25.8489C29.5781 28.6093 33.1146 29.1406 35.4479 28.552C37.5208 28.026 38.5052 27.1718 38.6719 27.0156L38.6615 27L37.776 25.4635L44.4427 26.9218L42.0313 33.2395L41.1354 31.6458L40.2656 32.1198C37.2396 33.5104 34.8333 32.6927 34.0781 32.4427C32.7813 32.0156 29.1562 30.3125 28.375 25.8489Z" fill="#6B5B4A"/>
<path d="M40.1613 19.1927C39.6978 22.4895 37.7134 24.0729 37.0936 24.5729C36.0311 25.4375 32.6457 27.5677 28.4634 25.8177C31.4373 26.2916 33.7967 23.6041 34.5571 21.3177C35.2446 19.2656 35.0415 17.9687 34.9998 17.7708L34.979 17.7656L33.2134 17.6927L38.0259 12.8541L42.0519 18.2864L40.2342 18.1823" fill="#6B5B4A"/>
<path fill-rule="evenodd" clip-rule="evenodd" d="M19.9375 16.4115C18.4167 16.4115 17.1875 15.1823 17.1875 13.6563C17.1875 12.1354 18.4167 10.9062 19.9375 10.9062C21.4583 10.9062 22.6927 12.1354 22.6927 13.6563C22.6927 15.1823 21.4583 16.4115 19.9375 16.4115Z" fill="#6B5B4A"/>
<path d="M15.6771 29.7968C15.9115 29.151 16.2604 29.1927 16.2604 29.1927C16.2604 29.1927 16.5781 29.125 16.7552 29.7708L19.3281 38.8073C17.1823 38.1823 15.224 37.1198 13.5573 35.7083L15.6771 29.7968ZM23.7031 5.66663C13.7604 5.66663 5.67188 13.7552 5.67188 23.6979C5.67188 33.6406 13.7604 41.7291 23.7031 41.7291C24.2344 41.7291 24.7552 41.6979 25.276 41.651L25.3958 43.4635L28.6979 40.2708L25.0052 37.4531L25.1458 39.3541C24.6719 39.401 24.1875 39.4323 23.7031 39.4323C22.9375 39.4323 22.1875 39.375 21.4531 39.2656L21.3802 38.7864L19.6667 24.1875C19.4323 21.4323 21.0052 20.9948 21.9792 21.4062L27.4479 23.6041C28.0729 23.875 28.375 23.3489 28.375 23.3489C28.375 23.3489 28.7292 22.802 28.0938 22.3958C28.0938 22.3958 20.6406 17.4583 19.0521 17.1562C16.8854 16.7552 14.7396 18.5104 14.2656 20.7968L11.6198 33.7604C9.34375 31.0312 7.96875 27.5208 7.96875 23.6979C7.96875 15.0208 15.026 7.9635 23.7031 7.9635C28.3385 7.9635 32.5104 9.97913 35.3906 13.177L37.0052 11.5364C33.7083 7.93225 28.9635 5.66663 23.7031 5.66663Z" fill="#6B5B4A"/>
<path fill-rule="evenodd" clip-rule="evenodd" d="M195.184 13.5477C192.848 13.829 190.995 15.7189 190.697 18.1033L190.693 18.1036L190.569 18.8693C190.562 18.8856 190.558 18.9007 190.558 18.914C190.554 18.9403 190.549 18.9665 190.545 18.9927C190.517 19.164 190.489 19.3314 190.515 19.5044L190.513 21.0954C187.452 24.2948 186.633 27.1159 187.139 29.2647C187.309 29.9622 187.62 30.6156 188.051 31.1832C188.482 31.7508 189.024 32.2202 189.642 32.5614C189.922 32.7258 190.213 32.8682 190.513 32.9874L190.511 34.7847L190.513 34.8477C190.49 35.4096 190.562 35.9713 190.728 36.5076C190.955 37.0944 191.311 37.6198 191.769 38.0432C192.048 38.3281 192.352 38.5852 192.679 38.8111C193.03 39.056 193.399 39.2719 193.783 39.4567C195.887 40.4919 198.644 41.0038 201.334 41C204.024 40.9962 206.734 40.4594 208.81 39.4032C209.316 39.1492 209.791 38.8357 210.226 38.4692C210.646 38.115 211.01 37.6961 211.304 37.2276C211.888 36.2837 211.886 35.9049 211.883 35.0104L211.882 35.0005L211.886 20.0602C211.956 19.8477 211.995 19.6255 212 19.4012C212 19.1676 211.963 18.942 211.893 18.7249C211.348 16.0509 209.424 14.0935 206.857 13.6116C205.861 11.4138 203.535 10 201.006 10C198.502 10 196.195 11.3865 195.184 13.5477ZM201.245 22.4255C197.72 22.4255 194.58 21.643 192.551 20.4235C192.188 19.5805 192.237 18.5859 192.269 18.2929C192.501 16.5087 193.988 15.1323 195.789 15.1323C195.966 15.1323 196.14 15.1455 196.309 15.1711C196.711 13.1523 198.661 11.6207 201.006 11.6207C203.336 11.6207 205.276 13.1331 205.695 15.1331C205.723 15.1326 205.75 15.1323 205.778 15.1323C208.041 15.1323 210.03 16.9544 210.478 19.3712C210.47 19.8542 210.363 20.1051 210.276 20.2103C208.268 21.5511 204.971 22.4255 201.245 22.4255ZM188.668 28.8903C188.352 27.5052 188.811 25.6874 190.508 23.5283L190.506 31.2072L190.426 31.1594C189.996 30.9258 189.618 30.6036 189.315 30.2131C189.013 29.8226 188.793 29.3722 188.668 28.8903ZM210.224 21.9951C209.664 22.3566 209.068 22.6569 208.447 22.8909C206.551 23.6243 203.985 24.0942 201.196 24.0961C198.758 24.1265 196.334 23.6966 194.048 22.8278C193.386 22.5663 192.756 22.2272 192.17 21.8174L192.168 31.7898C192.702 31.8871 193.246 31.9179 193.787 31.8814C196.341 31.7229 199.114 30.128 200.476 26.6441C200.556 26.4477 200.709 26.2916 200.901 26.2096C201.093 26.1276 201.309 26.1262 201.502 26.2057C201.694 26.2853 201.849 26.4394 201.932 26.6348C202.015 26.8301 202.019 27.051 201.944 27.2496C200.321 31.3982 196.973 33.3025 193.876 33.505C193.304 33.5419 192.729 33.5188 192.16 33.4362L192.168 34.8458C192.149 35.212 192.187 35.579 192.282 35.9326C192.432 36.2819 192.655 36.5935 192.934 36.8456C193.143 37.0558 193.369 37.2457 193.612 37.4129C193.893 37.6103 194.188 37.7852 194.496 37.9363C196.369 38.8569 198.836 39.3249 201.323 39.3077C203.809 39.2905 206.236 38.834 208.073 37.8885C208.463 37.694 208.83 37.4543 209.167 37.1742C209.454 36.9324 209.703 36.6463 209.905 36.3261C210.166 35.9455 210.281 35.4797 210.228 35.0177C210.227 35.0076 210.227 34.9649 210.227 34.918C210.227 34.8501 210.226 34.7732 210.224 34.7732L210.224 21.9951Z" fill="white"/>
<path d="M189.562 50.9442C189.054 50.9442 188.665 50.7996 188.395 50.5102C188.132 50.2209 188 49.8126 188 49.2853V45.6589C188 45.1317 188.132 44.7234 188.395 44.434C188.665 44.1447 189.054 44 189.562 44C190.07 44 190.456 44.1447 190.72 44.434C190.99 44.7234 191.125 45.1317 191.125 45.6589V46.3726H190.122V45.5914C190.122 45.1734 189.945 44.9645 189.591 44.9645C189.238 44.9645 189.061 45.1734 189.061 45.5914V49.3625C189.061 49.774 189.238 49.9798 189.591 49.9798C189.945 49.9798 190.122 49.774 190.122 49.3625V48.3305H191.125V49.2853C191.125 49.8126 190.99 50.2209 190.72 50.5102C190.456 50.7996 190.07 50.9442 189.562 50.9442Z" fill="white"/>
<path d="M193.312 50.9442C192.791 50.9442 192.393 50.7963 192.116 50.5006C191.84 50.2048 191.701 49.7869 191.701 49.2468V45.6975C191.701 45.1574 191.84 44.7394 192.116 44.4437C192.393 44.1479 192.791 44 193.312 44C193.833 44 194.231 44.1479 194.508 44.4437C194.784 44.7394 194.923 45.1574 194.923 45.6975V49.2468C194.923 49.7869 194.784 50.2048 194.508 50.5006C194.231 50.7963 193.833 50.9442 193.312 50.9442ZM193.312 49.9798C193.679 49.9798 193.862 49.7579 193.862 49.3143V45.63C193.862 45.1863 193.679 44.9645 193.312 44.9645C192.946 44.9645 192.762 45.1863 192.762 45.63V49.3143C192.762 49.7579 192.946 49.9798 193.312 49.9798Z" fill="white"/>
<path d="M195.64 44.0964H197.154L197.83 48.9285H197.849L198.524 44.0964H200.038V50.8478H199.035V45.7361H199.016L198.244 50.8478H197.357L196.585 45.7361H196.566V50.8478H195.64V44.0964Z" fill="white"/>
<path d="M200.83 44.0964H202.392C202.92 44.0964 203.315 44.2379 203.579 44.5208C203.842 44.8037 203.974 45.2185 203.974 45.765V46.4305C203.974 46.977 203.842 47.3917 203.579 47.6747C203.315 47.9576 202.92 48.099 202.392 48.099H201.891V50.8478H200.83V44.0964ZM202.392 47.1345C202.566 47.1345 202.695 47.0863 202.778 46.9899C202.868 46.8934 202.913 46.7295 202.913 46.498V45.6975C202.913 45.466 202.868 45.302 202.778 45.2056C202.695 45.1091 202.566 45.0609 202.392 45.0609H201.891V47.1345H202.392Z" fill="white"/>
<path d="M206.084 50.9442C205.563 50.9442 205.164 50.7963 204.888 50.5006C204.611 50.2048 204.473 49.7869 204.473 49.2468V45.6975C204.473 45.1574 204.611 44.7394 204.888 44.4437C205.164 44.1479 205.563 44 206.084 44C206.605 44 207.003 44.1479 207.28 44.4437C207.556 44.7394 207.694 45.1574 207.694 45.6975V49.2468C207.694 49.7869 207.556 50.2048 207.28 50.5006C207.003 50.7963 206.605 50.9442 206.084 50.9442ZM206.084 49.9798C206.45 49.9798 206.634 49.7579 206.634 49.3143V45.63C206.634 45.1863 206.45 44.9645 206.084 44.9645C205.717 44.9645 205.534 45.1863 205.534 45.63V49.3143C205.534 49.7579 205.717 49.9798 206.084 49.9798Z" fill="white"/>
<path d="M209.791 50.9442C209.277 50.9442 208.888 50.7996 208.624 50.5102C208.361 50.2144 208.229 49.7933 208.229 49.2468V48.861H209.232V49.3239C209.232 49.7611 209.415 49.9798 209.782 49.9798C209.962 49.9798 210.097 49.9283 210.187 49.8254C210.283 49.7161 210.331 49.5425 210.331 49.3046C210.331 49.0217 210.267 48.7742 210.138 48.562C210.01 48.3434 209.772 48.083 209.425 47.7807C208.987 47.395 208.682 47.0477 208.508 46.7391C208.335 46.4241 208.248 46.0704 208.248 45.6782C208.248 45.1445 208.383 44.733 208.653 44.4437C208.923 44.1479 209.315 44 209.83 44C210.338 44 210.72 44.1479 210.977 44.4437C211.241 44.733 211.373 45.1509 211.373 45.6975V45.9772H210.37V45.63C210.37 45.3985 210.325 45.2313 210.235 45.1284C210.145 45.0191 210.013 44.9645 209.839 44.9645C209.486 44.9645 209.309 45.1799 209.309 45.6107C209.309 45.855 209.373 46.0833 209.502 46.2955C209.637 46.5076 209.878 46.7648 210.225 47.067C210.669 47.4528 210.974 47.8033 211.141 48.1183C211.309 48.4334 211.392 48.8031 211.392 49.2275C211.392 49.7804 211.254 50.2048 210.977 50.5006C210.707 50.7963 210.312 50.9442 209.791 50.9442Z" fill="white"/>
<path d="M212.83 45.0609H211.721V44.0964H215V45.0609H213.891V50.8478H212.83V45.0609Z" fill="white"/>
<path d="M129.6 18.432H134.388V19.848H131.328V21.864H134.208V23.28H131.328V27H129.6V18.432ZM135.155 27V18.432H136.883V25.584H139.943V27H135.155ZM145.497 18.432V19.848H142.437V21.864H145.317V23.28H142.437V25.584H145.617V27H140.709V18.432H145.497ZM148.107 18.432V24.408C148.107 24.624 148.119 24.824 148.143 25.008C148.175 25.184 148.227 25.34 148.299 25.476C148.379 25.604 148.483 25.708 148.611 25.788C148.747 25.86 148.915 25.896 149.115 25.896C149.323 25.896 149.491 25.86 149.619 25.788C149.747 25.708 149.847 25.604 149.919 25.476C149.999 25.34 150.051 25.184 150.075 25.008C150.107 24.824 150.123 24.624 150.123 24.408V18.432H151.851V24.408C151.851 24.952 151.775 25.404 151.623 25.764C151.471 26.116 151.267 26.396 151.011 26.604C150.755 26.812 150.463 26.952 150.135 27.024C149.807 27.096 149.467 27.132 149.115 27.132C148.763 27.132 148.423 27.1 148.095 27.036C147.767 26.972 147.475 26.844 147.219 26.652C146.963 26.452 146.759 26.172 146.607 25.812C146.455 25.452 146.379 24.984 146.379 24.408V18.432H148.107ZM152.944 18.432H156.136C156.856 18.432 157.416 18.616 157.816 18.984C158.216 19.344 158.416 19.896 158.416 20.64C158.416 21.216 158.3 21.688 158.068 22.056C157.836 22.416 157.476 22.648 156.988 22.752V22.776C157.42 22.84 157.736 22.98 157.936 23.196C158.136 23.412 158.26 23.76 158.308 24.24C158.324 24.4 158.336 24.576 158.344 24.768C158.352 24.952 158.36 25.16 158.368 25.392C158.384 25.848 158.408 26.196 158.44 26.436C158.488 26.676 158.592 26.84 158.752 26.928V27H156.88C156.792 26.88 156.736 26.744 156.712 26.592C156.688 26.432 156.672 26.268 156.664 26.1L156.616 24.456C156.6 24.12 156.516 23.856 156.364 23.664C156.212 23.472 155.956 23.376 155.596 23.376H154.672V27H152.944V18.432ZM154.672 22.176H155.392C155.808 22.176 156.128 22.08 156.352 21.888C156.576 21.688 156.688 21.356 156.688 20.892C156.688 20.1 156.288 19.704 155.488 19.704H154.672V22.176ZM161.004 24.324V24.576C161.004 24.776 161.02 24.96 161.052 25.128C161.084 25.288 161.144 25.424 161.232 25.536C161.32 25.648 161.436 25.736 161.58 25.8C161.732 25.864 161.92 25.896 162.144 25.896C162.408 25.896 162.644 25.812 162.852 25.644C163.068 25.468 163.176 25.2 163.176 24.84C163.176 24.648 163.148 24.484 163.092 24.348C163.044 24.204 162.96 24.076 162.84 23.964C162.72 23.852 162.56 23.752 162.36 23.664C162.168 23.568 161.928 23.472 161.64 23.376C161.256 23.248 160.924 23.108 160.644 22.956C160.364 22.804 160.128 22.628 159.936 22.428C159.752 22.22 159.616 21.984 159.528 21.72C159.44 21.448 159.396 21.136 159.396 20.784C159.396 19.936 159.632 19.304 160.104 18.888C160.576 18.472 161.224 18.264 162.048 18.264C162.432 18.264 162.784 18.308 163.104 18.396C163.432 18.476 163.712 18.612 163.944 18.804C164.184 18.988 164.368 19.228 164.496 19.524C164.632 19.812 164.7 20.16 164.7 20.568V20.808H163.044C163.044 20.4 162.972 20.088 162.828 19.872C162.684 19.648 162.444 19.536 162.108 19.536C161.916 19.536 161.756 19.564 161.628 19.62C161.5 19.676 161.396 19.752 161.316 19.848C161.244 19.936 161.192 20.04 161.16 20.16C161.136 20.28 161.124 20.404 161.124 20.532C161.124 20.796 161.18 21.02 161.292 21.204C161.404 21.38 161.644 21.544 162.012 21.696L163.344 22.272C163.672 22.416 163.94 22.568 164.148 22.728C164.356 22.88 164.52 23.048 164.64 23.232C164.768 23.408 164.856 23.604 164.904 23.82C164.952 24.036 164.976 24.276 164.976 24.54C164.976 25.444 164.712 26.104 164.184 26.52C163.664 26.928 162.936 27.132 162 27.132C161.024 27.132 160.324 26.92 159.9 26.496C159.484 26.072 159.276 25.464 159.276 24.672V24.324H161.004ZM129.6 33.432H134.388V34.848H131.328V36.864H134.208V38.28H131.328V42H129.6V33.432ZM138.086 38.772L137.258 34.92H137.234L136.406 38.772H138.086ZM138.314 33.432L140.582 42H138.782L138.386 40.188H136.106L135.71 42H133.91L136.178 33.432H138.314ZM143.17 33.432L145.258 39.3H145.282V33.432H146.866V42H144.898L142.786 36H142.762V42H141.178V33.432H143.17ZM150.373 31.2H152.029L150.853 32.928H149.725L150.373 31.2ZM152.857 33.432V34.848H149.797V36.864H152.677V38.28H149.797V40.584H152.977V42H148.069V33.432H152.857ZM158.634 33.432V34.848H155.574V36.864H158.454V38.28H155.574V40.584H158.754V42H153.846V33.432H158.634ZM161.015 39.324V39.576C161.015 39.776 161.031 39.96 161.063 40.128C161.095 40.288 161.155 40.424 161.243 40.536C161.331 40.648 161.447 40.736 161.591 40.8C161.743 40.864 161.931 40.896 162.155 40.896C162.419 40.896 162.655 40.812 162.863 40.644C163.079 40.468 163.187 40.2 163.187 39.84C163.187 39.648 163.159 39.484 163.103 39.348C163.055 39.204 162.971 39.076 162.851 38.964C162.731 38.852 162.571 38.752 162.371 38.664C162.179 38.568 161.939 38.472 161.651 38.376C161.267 38.248 160.935 38.108 160.655 37.956C160.375 37.804 160.139 37.628 159.947 37.428C159.763 37.22 159.627 36.984 159.539 36.72C159.451 36.448 159.407 36.136 159.407 35.784C159.407 34.936 159.643 34.304 160.115 33.888C160.587 33.472 161.235 33.264 162.059 33.264C162.443 33.264 162.795 33.308 163.115 33.396C163.443 33.476 163.723 33.612 163.955 33.804C164.195 33.988 164.379 34.228 164.507 34.524C164.643 34.812 164.711 35.16 164.711 35.568V35.808H163.055C163.055 35.4 162.983 35.088 162.839 34.872C162.695 34.648 162.455 34.536 162.119 34.536C161.927 34.536 161.767 34.564 161.639 34.62C161.511 34.676 161.407 34.752 161.327 34.848C161.255 34.936 161.203 35.04 161.171 35.16C161.147 35.28 161.135 35.404 161.135 35.532C161.135 35.796 161.191 36.02 161.303 36.204C161.415 36.38 161.655 36.544 162.023 36.696L163.355 37.272C163.683 37.416 163.951 37.568 164.159 37.728C164.367 37.88 164.531 38.048 164.651 38.232C164.779 38.408 164.867 38.604 164.915 38.82C164.963 39.036 164.987 39.276 164.987 39.54C164.987 40.444 164.723 41.104 164.195 41.52C163.675 41.928 162.947 42.132 162.011 42.132C161.035 42.132 160.335 41.92 159.911 41.496C159.495 41.072 159.287 40.464 159.287 39.672V39.324H161.015Z" fill="black"/>
</g>
<defs>
<clipPath id="clip0_72_4235">
<rect width="230" height="61" fill="white"/>
</clipPath>
</defs>
</svg>
