<svg width="245" height="61" viewBox="0 0 245 61" fill="none" xmlns="http://www.w3.org/2000/svg">
<g clip-path="url(#clip0_72_4263)">
<path d="M24.6979 60.4688C11.0781 60.4688 0 49.5208 0 36.0625V0H219.948C233.563 0 244.641 10.9479 244.641 24.4062V60.4688" fill="white"/>
<path d="M222.083 52.9113H69.1353C59.6874 52.9113 51.9999 45.354 51.9999 36.0623V7.55713H204.948C214.396 7.55713 222.083 15.1144 222.083 24.4061V52.9113ZM204.948 5.6665H50.1145V36.0623C50.1145 46.3957 58.6458 54.8019 69.1353 54.8019H223.969V24.4061C223.969 14.0728 215.437 5.6665 204.948 5.6665Z" fill="#333347"/>
<path d="M181.714 54.8019L194.724 28.2238L181.432 5.6665H219.948C230.437 5.6665 238.969 14.0728 238.969 24.4061V54.8019" fill="#333347"/>
<path d="M102.901 5.6665H50.1145V36.0623C50.1145 46.3957 58.6458 54.8019 69.1353 54.8019H121.927V24.4061C121.927 14.0728 113.391 5.6665 102.901 5.6665Z" fill="#333347"/>
<path d="M63.651 29.3594C58.8489 29.3594 54.9583 33.25 54.9583 38.0521C54.9583 42.8542 58.8489 46.7448 63.651 46.7448C68.4583 46.7448 72.3489 42.8542 72.3489 38.0521C72.3489 33.25 68.4583 29.3594 63.651 29.3594Z" fill="white"/>
<path d="M69.3229 39.4689H65.0729V43.7189H62.2344V39.4689H57.9844V36.6356H62.2344V32.3804H65.0729V36.6356H69.3229" fill="#1C1C1B"/>
<path d="M55.7864 26.5936V17.1978H58.2708V24.5155H61.828V26.5936" fill="white"/>
<path d="M62.9426 26.5936V17.1978H69.0155V19.2759H65.4322V20.755H68.4947V22.8384H65.4322V24.5155H69.1614V26.5936" fill="white"/>
<path d="M75.0885 26.5936V19.2759H72.6041V17.1978H80.0677V19.2759H77.5781V26.5936" fill="white"/>
<path d="M83.5521 21.4738H84.4479C85.4479 21.4738 85.9531 21.0623 85.9531 20.2342C85.9531 19.828 85.8229 19.5467 85.5677 19.3957C85.3125 19.2394 84.9375 19.1613 84.4479 19.1613H83.5521V21.4738ZM81.0625 26.5988V17.1978H84.6198C85.125 17.1978 85.6042 17.2446 86.0625 17.3384C86.5208 17.4373 86.9167 17.5988 87.2604 17.8332C87.6042 18.0623 87.875 18.3748 88.0781 18.7655C88.2813 19.1561 88.3802 19.6457 88.3802 20.2342C88.3802 20.9061 88.2448 21.4686 87.9688 21.9113C87.6979 22.354 87.3281 22.6978 86.8646 22.953L88.901 26.5988H86.125L84.5052 23.4425H83.5521V26.5988" fill="white"/>
<path d="M89.8698 26.5988H92.3593V17.1978H89.8698V26.5988Z" fill="white"/>
<path d="M75.3801 43.2759V33.8696H81.5103V35.953H77.8697V37.7498H80.9895V39.8332H77.8697V43.2759" fill="white"/>
<path d="M84.9218 38.703L84.7604 39.354H86.4948L86.3385 38.703C86.2239 38.2498 86.1041 37.7603 85.9895 37.229C85.875 36.6978 85.7604 36.1978 85.6406 35.7238H85.5833C85.4791 36.203 85.3698 36.7082 85.2604 37.2342C85.151 37.7603 85.0364 38.2498 84.9218 38.703ZM81.3073 43.2759L84.1666 33.8696H87.1718L90.0364 43.2759H87.4062L86.9427 41.2759H84.3125L83.8489 43.2759" fill="white"/>
<path d="M94.5624 43.4478C93.9687 43.4478 93.3958 43.3488 92.8541 43.1509C92.3072 42.953 91.8333 42.6509 91.4218 42.255C91.0103 41.854 90.6822 41.354 90.4426 40.7498C90.203 40.1457 90.0833 39.4478 90.0833 38.6457C90.0833 37.854 90.2083 37.1509 90.4583 36.5415C90.7083 35.9269 91.0416 35.4113 91.4635 34.9946C91.8801 34.5728 92.3645 34.2498 92.9114 34.0311C93.4583 33.8071 94.026 33.6978 94.6249 33.6978C95.2499 33.6978 95.8124 33.8228 96.302 34.0675C96.7968 34.3123 97.2083 34.604 97.5468 34.9425L96.2447 36.5311C96.0155 36.3332 95.776 36.1665 95.5312 36.0311C95.2812 35.9061 94.9999 35.8384 94.6822 35.8384C94.401 35.8384 94.1405 35.9009 93.8958 36.0259C93.651 36.1509 93.4322 36.3332 93.2447 36.5623C93.0572 36.7915 92.9062 37.078 92.7968 37.4165C92.6822 37.7498 92.6301 38.1353 92.6301 38.5571C92.6301 39.4478 92.8124 40.1248 93.1874 40.5988C93.5572 41.0675 94.0468 41.3071 94.651 41.3071C95.0208 41.3071 95.3437 41.229 95.6301 41.0675C95.9114 40.9061 96.1562 40.7186 96.3593 40.4946L97.6614 42.0571C97.2551 42.5207 96.7916 42.8696 96.2655 43.0988C95.7395 43.3332 95.1718 43.4478 94.5624 43.4478Z" fill="white"/>
<path d="M98.6198 43.2759H101.104V33.8696H98.6198V43.2759Z" fill="white"/>
<path d="M102.875 43.2759V33.8696H105.365V41.1925H108.922V43.2759" fill="white"/>
<path d="M110.031 43.2759V33.8696H116.109V35.953H112.521V37.4321H115.589V39.5155H112.521V41.1925H116.255V43.2759" fill="white"/>
<path d="M28.4062 25.7446C26.7135 28.2342 28.151 31.5103 29.8958 33.1717C31.4895 34.6821 32.7655 35.0363 32.9322 35.078L33.7447 33.5207L36.0885 39.9321L29.4635 41.2811L30.3437 39.6457L29.4478 39.1457C26.6562 37.328 26.0676 34.8592 25.8749 34.0884C25.5416 32.7603 25.0468 28.7863 28.4062 25.7446Z" fill="#333347"/>
<path d="M28.375 25.8488C29.5781 28.6092 33.1146 29.1405 35.4479 28.5519C37.5208 28.0259 38.5052 27.1717 38.6719 27.0155L38.6615 26.9998L37.776 25.4634L44.4427 26.9217L42.0313 33.2394L41.1354 31.6457L40.2656 32.1196C37.2396 33.5103 34.8333 32.6925 34.0781 32.4425C32.7813 32.0155 29.1562 30.3123 28.375 25.8488Z" fill="#333347"/>
<path d="M40.1613 19.1925C39.6978 22.4894 37.7134 24.0728 37.0936 24.5728C36.0311 25.4373 32.6457 27.5675 28.4634 25.8175C31.4373 26.2915 33.7967 23.604 34.5571 21.3175C35.2446 19.2655 35.0415 17.9686 34.9998 17.7707L34.979 17.7655L33.2134 17.6925L38.0259 12.854L42.0519 18.2863L40.2342 18.1821" fill="#333347"/>
<path fill-rule="evenodd" clip-rule="evenodd" d="M19.9375 16.4115C18.4167 16.4115 17.1875 15.1823 17.1875 13.6563C17.1875 12.1354 18.4167 10.9062 19.9375 10.9062C21.4583 10.9062 22.6927 12.1354 22.6927 13.6563C22.6927 15.1823 21.4583 16.4115 19.9375 16.4115Z" fill="#333347"/>
<path d="M15.6771 29.7967C15.9115 29.1509 16.2604 29.1925 16.2604 29.1925C16.2604 29.1925 16.5781 29.1248 16.7552 29.7707L19.3281 38.8071C17.1823 38.1821 15.224 37.1196 13.5573 35.7082L15.6771 29.7967ZM23.7031 5.6665C13.7604 5.6665 5.67188 13.755 5.67188 23.6978C5.67188 33.6405 13.7604 41.729 23.7031 41.729C24.2344 41.729 24.7552 41.6978 25.276 41.6509L25.3958 43.4634L28.6979 40.2707L25.0052 37.453L25.1458 39.354C24.6719 39.4009 24.1875 39.4321 23.7031 39.4321C22.9375 39.4321 22.1875 39.3748 21.4531 39.2655L21.3802 38.7863L19.6667 24.1873C19.4323 21.4321 21.0052 20.9946 21.9792 21.4061L27.4479 23.604C28.0729 23.8748 28.375 23.3488 28.375 23.3488C28.375 23.3488 28.7292 22.8019 28.0938 22.3957C28.0938 22.3957 20.6406 17.4582 19.0521 17.1561C16.8854 16.755 14.7396 18.5103 14.2656 20.7967L11.6198 33.7603C9.34375 31.0311 7.96875 27.5207 7.96875 23.6978C7.96875 15.0207 15.026 7.96338 23.7031 7.96338C28.3385 7.96338 32.5104 9.979 35.3906 13.1769L37.0052 11.5363C33.7083 7.93213 28.9635 5.6665 23.7031 5.6665Z" fill="#333347"/>
<path d="M129.6 18.432H134.388V19.848H131.328V21.864H134.208V23.28H131.328V27H129.6V18.432ZM136.703 22.716C136.703 23.292 136.715 23.784 136.739 24.192C136.771 24.592 136.827 24.92 136.907 25.176C136.995 25.424 137.115 25.608 137.267 25.728C137.427 25.84 137.635 25.896 137.891 25.896C138.147 25.896 138.351 25.84 138.503 25.728C138.663 25.608 138.783 25.424 138.863 25.176C138.951 24.92 139.007 24.592 139.031 24.192C139.063 23.784 139.079 23.292 139.079 22.716C139.079 22.14 139.063 21.652 139.031 21.252C139.007 20.852 138.951 20.524 138.863 20.268C138.783 20.012 138.663 19.828 138.503 19.716C138.351 19.596 138.147 19.536 137.891 19.536C137.635 19.536 137.427 19.596 137.267 19.716C137.115 19.828 136.995 20.012 136.907 20.268C136.827 20.524 136.771 20.852 136.739 21.252C136.715 21.652 136.703 22.14 136.703 22.716ZM134.975 22.716C134.975 22.068 135.003 21.472 135.059 20.928C135.123 20.376 135.255 19.904 135.455 19.512C135.663 19.12 135.959 18.816 136.343 18.6C136.727 18.376 137.243 18.264 137.891 18.264C138.539 18.264 139.055 18.376 139.439 18.6C139.823 18.816 140.115 19.12 140.315 19.512C140.523 19.904 140.655 20.376 140.711 20.928C140.775 21.472 140.807 22.068 140.807 22.716C140.807 23.372 140.775 23.972 140.711 24.516C140.655 25.06 140.523 25.528 140.315 25.92C140.115 26.312 139.823 26.612 139.439 26.82C139.055 27.028 138.539 27.132 137.891 27.132C137.243 27.132 136.727 27.028 136.343 26.82C135.959 26.612 135.663 26.312 135.455 25.92C135.255 25.528 135.123 25.06 135.059 24.516C135.003 23.972 134.975 23.372 134.975 22.716ZM143.443 18.432V24.408C143.443 24.624 143.455 24.824 143.479 25.008C143.511 25.184 143.563 25.34 143.635 25.476C143.715 25.604 143.819 25.708 143.947 25.788C144.083 25.86 144.251 25.896 144.451 25.896C144.659 25.896 144.827 25.86 144.955 25.788C145.083 25.708 145.183 25.604 145.255 25.476C145.335 25.34 145.387 25.184 145.411 25.008C145.443 24.824 145.459 24.624 145.459 24.408V18.432H147.187V24.408C147.187 24.952 147.111 25.404 146.959 25.764C146.807 26.116 146.603 26.396 146.347 26.604C146.091 26.812 145.799 26.952 145.471 27.024C145.143 27.096 144.803 27.132 144.451 27.132C144.099 27.132 143.759 27.1 143.431 27.036C143.103 26.972 142.811 26.844 142.555 26.652C142.299 26.452 142.095 26.172 141.943 25.812C141.791 25.452 141.715 24.984 141.715 24.408V18.432H143.443ZM148.28 18.432H151.472C152.192 18.432 152.752 18.616 153.152 18.984C153.552 19.344 153.752 19.896 153.752 20.64C153.752 21.216 153.636 21.688 153.404 22.056C153.172 22.416 152.812 22.648 152.324 22.752V22.776C152.756 22.84 153.072 22.98 153.272 23.196C153.472 23.412 153.596 23.76 153.644 24.24C153.66 24.4 153.672 24.576 153.68 24.768C153.688 24.952 153.696 25.16 153.704 25.392C153.72 25.848 153.744 26.196 153.776 26.436C153.824 26.676 153.928 26.84 154.088 26.928V27H152.216C152.128 26.88 152.072 26.744 152.048 26.592C152.024 26.432 152.008 26.268 152 26.1L151.952 24.456C151.936 24.12 151.852 23.856 151.7 23.664C151.548 23.472 151.292 23.376 150.932 23.376H150.008V27H148.28V18.432ZM150.008 22.176H150.728C151.144 22.176 151.464 22.08 151.688 21.888C151.912 21.688 152.024 21.356 152.024 20.892C152.024 20.1 151.624 19.704 150.824 19.704H150.008V22.176ZM154.948 18.432H158.14C158.86 18.432 159.42 18.616 159.82 18.984C160.22 19.344 160.42 19.896 160.42 20.64C160.42 21.216 160.304 21.688 160.072 22.056C159.84 22.416 159.48 22.648 158.992 22.752V22.776C159.424 22.84 159.74 22.98 159.94 23.196C160.14 23.412 160.264 23.76 160.312 24.24C160.328 24.4 160.34 24.576 160.348 24.768C160.356 24.952 160.364 25.16 160.372 25.392C160.388 25.848 160.412 26.196 160.444 26.436C160.492 26.676 160.596 26.84 160.756 26.928V27H158.884C158.796 26.88 158.74 26.744 158.716 26.592C158.692 26.432 158.676 26.268 158.668 26.1L158.62 24.456C158.604 24.12 158.52 23.856 158.368 23.664C158.216 23.472 157.96 23.376 157.6 23.376H156.676V27H154.948V18.432ZM156.676 22.176H157.396C157.812 22.176 158.132 22.08 158.356 21.888C158.58 21.688 158.692 21.356 158.692 20.892C158.692 20.1 158.292 19.704 157.492 19.704H156.676V22.176ZM163.47 18.432V24.408C163.47 24.624 163.482 24.824 163.506 25.008C163.538 25.184 163.59 25.34 163.662 25.476C163.742 25.604 163.846 25.708 163.974 25.788C164.11 25.86 164.278 25.896 164.478 25.896C164.686 25.896 164.854 25.86 164.982 25.788C165.11 25.708 165.21 25.604 165.282 25.476C165.362 25.34 165.414 25.184 165.438 25.008C165.47 24.824 165.486 24.624 165.486 24.408V18.432H167.214V24.408C167.214 24.952 167.138 25.404 166.986 25.764C166.834 26.116 166.63 26.396 166.374 26.604C166.118 26.812 165.826 26.952 165.498 27.024C165.17 27.096 164.83 27.132 164.478 27.132C164.126 27.132 163.786 27.1 163.458 27.036C163.13 26.972 162.838 26.844 162.582 26.652C162.326 26.452 162.122 26.172 161.97 25.812C161.818 25.452 161.742 24.984 161.742 24.408V18.432H163.47ZM168.307 18.432H171.499C172.219 18.432 172.779 18.616 173.179 18.984C173.579 19.344 173.779 19.896 173.779 20.64C173.779 21.216 173.663 21.688 173.431 22.056C173.199 22.416 172.839 22.648 172.351 22.752V22.776C172.783 22.84 173.099 22.98 173.299 23.196C173.499 23.412 173.623 23.76 173.671 24.24C173.687 24.4 173.699 24.576 173.707 24.768C173.715 24.952 173.723 25.16 173.731 25.392C173.747 25.848 173.771 26.196 173.803 26.436C173.851 26.676 173.955 26.84 174.115 26.928V27H172.243C172.155 26.88 172.099 26.744 172.075 26.592C172.051 26.432 172.035 26.268 172.027 26.1L171.979 24.456C171.963 24.12 171.879 23.856 171.727 23.664C171.575 23.472 171.319 23.376 170.959 23.376H170.035V27H168.307V18.432ZM170.035 22.176H170.755C171.171 22.176 171.491 22.08 171.715 21.888C171.939 21.688 172.051 21.356 172.051 20.892C172.051 20.1 171.651 19.704 170.851 19.704H170.035V22.176ZM179.763 18.432V19.848H176.703V21.864H179.583V23.28H176.703V25.584H179.883V27H174.975V18.432H179.763ZM131.592 33.432L133.68 39.3H133.704V33.432H135.288V42H133.32L131.208 36H131.184V42H129.6V33.432H131.592ZM140.067 38.772L139.239 34.92H139.215L138.387 38.772H140.067ZM140.295 33.432L142.563 42H140.763L140.367 40.188H138.087L137.691 42H135.891L138.159 33.432H140.295ZM147.518 33.432V34.848H145.646V42H143.918V34.848H142.046V33.432H147.518ZM149.888 33.432V39.408C149.888 39.624 149.9 39.824 149.924 40.008C149.956 40.184 150.008 40.34 150.08 40.476C150.16 40.604 150.264 40.708 150.392 40.788C150.528 40.86 150.696 40.896 150.896 40.896C151.104 40.896 151.272 40.86 151.4 40.788C151.528 40.708 151.628 40.604 151.7 40.476C151.78 40.34 151.832 40.184 151.856 40.008C151.888 39.824 151.904 39.624 151.904 39.408V33.432H153.632V39.408C153.632 39.952 153.556 40.404 153.404 40.764C153.252 41.116 153.048 41.396 152.792 41.604C152.536 41.812 152.244 41.952 151.916 42.024C151.588 42.096 151.248 42.132 150.896 42.132C150.544 42.132 150.204 42.1 149.876 42.036C149.548 41.972 149.256 41.844 149 41.652C148.744 41.452 148.54 41.172 148.388 40.812C148.236 40.452 148.16 39.984 148.16 39.408V33.432H149.888ZM154.725 33.432H157.917C158.637 33.432 159.197 33.616 159.597 33.984C159.997 34.344 160.197 34.896 160.197 35.64C160.197 36.216 160.081 36.688 159.849 37.056C159.617 37.416 159.257 37.648 158.769 37.752V37.776C159.201 37.84 159.517 37.98 159.717 38.196C159.917 38.412 160.041 38.76 160.089 39.24C160.105 39.4 160.117 39.576 160.125 39.768C160.133 39.952 160.141 40.16 160.149 40.392C160.165 40.848 160.189 41.196 160.221 41.436C160.269 41.676 160.373 41.84 160.533 41.928V42H158.661C158.573 41.88 158.517 41.744 158.493 41.592C158.469 41.432 158.453 41.268 158.445 41.1L158.397 39.456C158.381 39.12 158.297 38.856 158.145 38.664C157.993 38.472 157.737 38.376 157.377 38.376H156.453V42H154.725V33.432ZM156.453 37.176H157.173C157.589 37.176 157.909 37.08 158.133 36.888C158.357 36.688 158.469 36.356 158.469 35.892C158.469 35.1 158.069 34.704 157.269 34.704H156.453V37.176ZM166.181 33.432V34.848H163.121V36.864H166.001V38.28H163.121V40.584H166.301V42H161.393V33.432H166.181ZM167.17 42V33.432H168.898V40.584H171.958V42H167.17ZM172.725 42V33.432H174.453V40.584H177.513V42H172.725ZM183.068 33.432V34.848H180.008V36.864H182.888V38.28H180.008V40.584H183.188V42H178.28V33.432H183.068Z" fill="black"/>
<path fill-rule="evenodd" clip-rule="evenodd" d="M211.197 12.9917C210.489 12.7271 209.997 12.6406 209.67 12.6452C209.338 12.6499 209.233 12.7457 209.211 12.7697C209.191 12.7911 209.158 12.8426 209.156 12.9856C209.155 13.0935 209.173 13.2211 209.209 13.3514L213.625 17.6963H216.528C217.034 17.0728 218.172 15.8497 220.078 14.1794C220.602 13.7203 220.792 13.4037 220.848 13.2371C220.879 13.1441 220.868 13.1284 220.843 13.0951L220.839 13.0896C220.774 13.001 220.62 12.8791 220.352 12.7673C220.11 12.6663 219.831 12.5973 219.575 12.5601C219.389 12.5649 219.251 12.6081 219.006 12.6965L218.957 12.7142C218.87 12.7457 218.807 12.7781 218.743 12.811C218.611 12.8791 218.474 12.9492 218.116 13.0172C217.548 13.1251 217.141 13.1334 216.683 13.0237C216.386 12.9524 216.057 12.826 215.66 12.6733L215.66 12.6732L215.66 12.6732C215.522 12.6199 215.375 12.5634 215.218 12.505L215.215 12.5046C215.205 12.5034 215.171 12.4992 215.103 12.5017C215.005 12.5053 214.878 12.5207 214.721 12.5484C214.412 12.603 214.047 12.694 213.66 12.7904L213.637 12.7962C213.255 12.8913 212.848 12.9925 212.508 13.0468C212.338 13.0739 212.162 13.0935 211.999 13.0896C211.986 13.0893 211.969 13.0891 211.947 13.0889H211.947C211.777 13.0872 211.364 13.0832 211.197 12.9917ZM213.237 11.3164C212.706 11.4374 211.732 11.5442 211.732 11.5442C211.164 11.5236 210.749 11.4099 210.402 11.3145C210.125 11.2386 209.891 11.1743 209.654 11.1777C209.117 11.1852 208.651 11.3462 208.316 11.7135C207.98 12.0836 207.873 12.5579 207.868 12.9653C207.863 13.3667 207.954 13.7551 208.067 14.0649L208.126 14.2248L212.043 18.0789C210.564 18.4041 208.986 19.063 207.531 20.2082C204.761 22.3897 202.542 26.2534 202.227 32.6479C202.207 33.0641 202.184 33.4866 202.161 33.912C202.068 35.6616 201.972 37.462 202.008 39.0902C202.052 41.0844 202.292 43.0034 203.107 44.3151C204.572 46.6711 206.968 47.8112 209.268 48.348C211.56 48.883 213.85 48.8422 215.268 48.7579C216.563 48.7331 218.698 48.6558 220.887 48.1961C223.067 47.7382 225.413 46.8786 227.016 45.2058C228.305 43.8598 228.744 41.8774 228.878 39.7527C228.983 38.0805 228.904 36.1896 228.823 34.2644L228.823 34.2638C228.8 33.7301 228.778 33.1937 228.759 32.6587C228.548 26.6489 226.338 22.879 223.569 20.6473C221.772 19.1991 219.772 18.4248 218.001 18.0891C218.574 17.4656 219.506 16.5318 220.863 15.3427C221.456 14.8235 221.868 14.3043 222.051 13.7626C222.256 13.1522 222.144 12.5834 221.83 12.152C221.553 11.7717 221.15 11.5369 220.794 11.3889C220.425 11.2351 220.029 11.1428 219.687 11.097L219.649 11.092H219.611C219.197 11.092 218.898 11.1959 218.617 11.2976L218.57 11.3145C218.314 11.4071 218.037 11.5078 217.597 11.5912C217.212 11.6645 217.189 11.6582 217.042 11.6184L217.042 11.6184C217.013 11.6105 216.98 11.6013 216.937 11.5912C216.72 11.539 216.496 11.4529 216.141 11.3164C216.127 11.311 216.103 11.2985 216.069 11.2814C215.905 11.1967 215.523 11 215.086 11C214.442 11 213.825 11.163 213.453 11.2614L213.453 11.2614L213.453 11.2615L213.453 11.2615C213.367 11.2841 213.295 11.3034 213.237 11.3164ZM208.478 21.4108C206.129 23.2603 204.054 26.6676 203.756 32.7231C203.735 33.1559 203.712 33.5897 203.689 34.0222C203.596 35.7668 203.504 37.492 203.538 39.0565C203.582 41.0386 203.83 42.5793 204.407 43.5068C205.575 45.3858 207.528 46.37 209.616 46.8573C211.702 47.3443 213.827 47.3108 215.192 47.2289L215.207 47.228L215.223 47.2277C216.495 47.2037 218.521 47.1289 220.572 46.6981C222.641 46.2636 224.624 45.489 225.91 44.1468C226.806 43.2119 227.221 41.7042 227.35 39.6564C227.45 38.0726 227.375 36.2919 227.295 34.3813C227.272 33.835 227.249 33.2782 227.229 32.7124C227.032 27.0884 224.989 23.7575 222.609 21.8391C220.802 20.3832 218.757 19.7053 217.07 19.4905C218.467 20.9563 220.051 22.4306 220.916 22.9628L220.114 24.2664C219.751 23.9038 219.206 23.4291 218.577 22.8815L218.577 22.8815C217.672 22.0929 216.593 21.1533 215.636 20.1804C215.589 20.8038 215.548 21.5006 215.531 22.1621C215.516 22.7319 215.52 23.2613 215.55 23.6891C215.565 23.9031 215.586 24.0802 215.611 24.218C215.624 24.2864 215.636 24.3394 215.648 24.3787C215.659 24.4162 215.666 24.4328 215.667 24.4343L215.777 25.0318L214.298 25.119C214.12 24.7626 214.055 24.2519 214.023 23.7962C213.988 23.2997 213.985 22.7161 214.001 22.123C214.013 21.6509 214.036 21.1638 214.066 20.6965C212.822 21.8971 211.513 22.9378 210.548 23.7056L210.547 23.7058L210.547 23.7061C210.412 23.8133 210.284 23.9151 210.164 24.0113L209.362 22.7076C210.212 22.115 211.785 20.8255 213.179 19.4313C211.695 19.6286 210.007 20.2073 208.478 21.4108Z" fill="white"/>
</g>
<defs>
<clipPath id="clip0_72_4263">
<rect width="245" height="61" fill="white"/>
</clipPath>
</defs>
</svg>
