<svg width="146" height="38" viewBox="0 0 146 38" fill="none" xmlns="http://www.w3.org/2000/svg">
<g clip-path="url(#clip0_85_7)">
<path d="M17.8073 23.0052C16.4844 24.9532 17.6094 27.5209 18.9792 28.8177C20.2239 30.0052 21.2239 30.2813 21.3542 30.3177L21.9896 29.099L23.8333 34.1198L18.6406 35.1719L19.3281 33.8959L18.625 33.5C16.4427 32.0782 15.9792 30.1407 15.8281 29.5365C15.5677 28.5 15.1771 25.3855 17.8073 23.0052Z" fill="black"/>
<path d="M17.7864 23.0886C18.7291 25.25 21.5 25.6667 23.3281 25.2032C24.9531 24.7917 25.7239 24.1198 25.8541 24L25.8489 23.9844L25.151 22.7865L30.375 23.9271L28.4844 28.875L27.7812 27.625L27.0989 27.9948C24.7291 29.0886 22.8489 28.4427 22.2552 28.25C21.2344 27.9167 18.3958 26.5834 17.7864 23.0886Z" fill="black"/>
<path d="M27.0208 17.8698C26.6563 20.4531 25.099 21.6927 24.6146 22.0833C23.7813 22.7604 21.1302 24.4323 17.8594 23.0573C20.1875 23.4323 22.0313 21.3281 22.6302 19.5365C23.1667 17.9323 23.0104 16.9115 22.9792 16.7552H22.9635L21.5729 16.6927L25.3438 12.9062L28.5 17.1615L27.0781 17.0781" fill="black"/>
<path fill-rule="evenodd" clip-rule="evenodd" d="M11.1771 15.6927C9.98442 15.6927 9.02087 14.724 9.02087 13.5365C9.02087 12.3438 9.98442 11.375 11.1771 11.375C12.3698 11.375 13.3334 12.3438 13.3334 13.5365C13.3334 14.724 12.3698 15.6927 11.1771 15.6927Z" fill="black"/>
<path d="M7.83854 26.177C8.02083 25.6718 8.29687 25.7031 8.29687 25.7031C8.29687 25.7031 8.54167 25.6458 8.68229 26.1614L10.6979 33.2343C9.01563 32.75 7.48438 31.9114 6.18229 30.8125L7.83854 26.177ZM14.125 7.276C6.33854 7.276 0 13.6093 0 21.401C0 29.1875 6.33854 35.526 14.125 35.526C14.5417 35.526 14.9531 35.5 15.3594 35.4635L15.4583 36.8802L18.0365 34.3854L15.1458 32.177L15.2552 33.6666C14.8802 33.7031 14.5104 33.7239 14.125 33.7239C13.5313 33.7239 12.9375 33.6823 12.3646 33.5989L12.3073 33.2239L10.9635 21.7864C10.7813 19.625 12.0156 19.2812 12.776 19.6041L17.0573 21.3281C17.5521 21.5364 17.7865 21.125 17.7865 21.125C17.7865 21.125 18.0625 20.6979 17.5677 20.3802C17.5677 20.3802 11.7292 16.5104 10.4844 16.276C8.78646 15.9583 7.10417 17.3333 6.73437 19.125L4.66146 29.2812C2.875 27.1458 1.80208 24.3958 1.80208 21.401C1.80208 14.6041 7.32813 9.07288 14.125 9.07288C17.7552 9.07288 21.026 10.651 23.2813 13.1562L24.5469 11.875C21.9635 9.04683 18.25 7.276 14.125 7.276Z" fill="black"/>
<path d="M88.526 4.92712V5.53129H86.9583V6.49483H88.1614V7.08858H86.9583V8.67712H86.2083V4.92712" fill="black"/>
<path d="M89.8073 6.65108H90.4375C90.6406 6.65108 90.7917 6.599 90.8906 6.50525C90.9896 6.40108 91.0417 6.26567 91.0417 6.09379C91.0417 5.92191 90.9896 5.7865 90.8906 5.69275C90.7917 5.599 90.6406 5.55212 90.4375 5.55212H89.8073V6.65108ZM90.9896 8.67712L90.1615 7.21358H89.8073V8.67712H89.0573V4.92712H90.4636C90.75 4.92712 91 4.97921 91.2031 5.07817C91.4063 5.18233 91.5573 5.31775 91.6615 5.49483C91.7656 5.66671 91.8125 5.85941 91.8125 6.07817C91.8125 6.32296 91.7448 6.54692 91.599 6.74483C91.4584 6.94275 91.2448 7.07817 90.9636 7.15629L91.8594 8.67712" fill="black"/>
<path d="M144.062 32.2968C144.062 34.8177 141.969 36.875 139.385 36.875H38.5781C36 36.875 33.901 34.8177 33.901 32.2968V11.8593C33.901 9.3385 36 7.28121 38.5781 7.28121H83.25C83.3646 8.5885 83.8958 9.86454 84.8958 10.8645C86.026 11.9895 87.5052 12.5573 88.9844 12.5573C90.4635 12.5573 91.9427 11.9895 93.0677 10.8645C94.0677 9.86454 94.5989 8.5885 94.7135 7.28121H139.385C141.969 7.28121 144.062 9.3385 144.062 11.8593V32.2968ZM85.651 3.44267C86.5416 2.55204 87.7239 2.06246 88.9844 2.06246C90.2396 2.06246 91.4271 2.55204 92.3125 3.44267C94.151 5.28121 94.151 8.27079 92.3125 10.1093C91.4271 11 90.2396 11.4895 88.9844 11.4895C87.7239 11.4895 86.5416 11 85.651 10.1093C84.7604 9.21871 84.2708 8.03642 84.2708 6.776C84.2708 5.51558 84.7604 4.33329 85.651 3.44267ZM139.385 6.2135H94.7083C94.5833 4.92704 94.0521 3.67183 93.0677 2.68746C91.9427 1.55725 90.4635 0.994751 88.9844 0.994751C87.5 0.994751 86.026 1.55725 84.8958 2.68746C83.9114 3.67183 83.3802 4.92704 83.2552 6.2135H38.5781C35.4114 6.2135 32.8333 8.74996 32.8333 11.8593V32.2968C32.8333 35.4062 35.4114 37.9427 38.5781 37.9427H139.385C142.552 37.9427 145.13 35.4062 145.13 32.2968V11.8593C145.13 8.74996 142.552 6.2135 139.385 6.2135Z" fill="black"/>
<path d="M102.297 21.7343C102.443 21.651 102.557 21.5312 102.646 21.3698C102.734 21.2083 102.781 21.0104 102.781 20.7812C102.781 20.4323 102.688 20.1666 102.505 19.9791C102.323 19.7968 102.104 19.7031 101.839 19.7031C101.578 19.7031 101.359 19.7968 101.177 19.9791C101 20.1666 100.911 20.4323 100.911 20.7812C100.911 21.125 101 21.3906 101.172 21.5781C101.344 21.7604 101.563 21.8593 101.828 21.8593C101.995 21.8593 102.151 21.8177 102.297 21.7343ZM100.88 22.427C100.599 22.2708 100.38 22.052 100.219 21.7656C100.057 21.4791 99.9792 21.151 99.9792 20.7812C99.9792 20.4062 100.063 20.0781 100.224 19.7916C100.391 19.5104 100.615 19.2864 100.901 19.1354C101.182 18.9791 101.5 18.901 101.854 18.901C102.203 18.901 102.521 18.9791 102.807 19.1354C103.094 19.2864 103.313 19.5104 103.479 19.7916C103.641 20.0781 103.724 20.4062 103.724 20.7812C103.724 21.151 103.641 21.4791 103.474 21.7656C103.302 22.052 103.078 22.2708 102.786 22.427C102.5 22.5833 102.182 22.6562 101.828 22.6562C101.474 22.6562 101.161 22.5833 100.88 22.427Z" fill="black"/>
<path d="M107.677 18.9584V22.599H106.75V22.1407C106.63 22.2969 106.479 22.4219 106.286 22.5105C106.094 22.599 105.885 22.6459 105.667 22.6459C105.38 22.6459 105.125 22.5834 104.906 22.4636C104.693 22.3438 104.521 22.1667 104.391 21.9323C104.266 21.698 104.203 21.4167 104.203 21.0938V18.9584H105.125V20.9636C105.125 21.25 105.198 21.474 105.344 21.6302C105.484 21.7865 105.687 21.8646 105.932 21.8646C106.187 21.8646 106.385 21.7865 106.531 21.6302C106.677 21.474 106.75 21.25 106.75 20.9636V18.9584" fill="black"/>
<path d="M67.8125 19.5833L65.1302 17.125V19.5156H59.9844V24.5729H65.1302V26.9635L67.8125 24.5L70.4896 22.0417" fill="black"/>
<path d="M42.5989 28.9948H51.2604V20.8021C51.2604 20.5782 51.3958 20.3802 51.6041 20.2969C51.8073 20.2084 52.0469 20.2552 52.2031 20.4115L52.9271 21.1407L54.7864 19.2865L51.5052 16.0052L49.5937 15.2188C48.9896 15.974 48 16.448 46.9375 16.448C45.875 16.448 44.8802 15.9792 44.2812 15.2188L42.3594 16.0105L39.0833 19.2865L40.9427 21.1407L41.6562 20.4219C41.8177 20.2657 42.0521 20.2188 42.2604 20.3021C42.4635 20.3907 42.5989 20.5886 42.5989 20.8125V28.9948ZM51.8125 30.099H42.0469C41.7448 30.099 41.5 29.849 41.5 29.5469V22.1407L41.3281 22.3073C41.1146 22.5209 40.7656 22.5209 40.5521 22.3073L37.9166 19.6771C37.8177 19.573 37.7552 19.4323 37.7552 19.2865C37.7552 19.1407 37.8177 19 37.9166 18.8959L41.6562 15.1563C41.7083 15.1042 41.7708 15.0677 41.8385 15.0365L44.2656 14.0365C44.5156 13.9323 44.8437 14.0417 44.9739 14.2865C45.3229 14.9271 46.0885 15.3438 46.9375 15.3438C47.7812 15.3438 48.5521 14.9271 48.8958 14.2813C48.9896 14.1042 49.1823 13.9896 49.3802 13.9896C49.4531 13.9896 49.5364 14.0052 49.6041 14.0313L52.0208 15.0313C52.0885 15.0573 52.151 15.099 52.2031 15.1459L55.9531 18.8959C56.0521 19 56.1146 19.1407 56.1146 19.2865C56.1146 19.4323 56.0521 19.573 55.9531 19.6771L53.3177 22.3073C53.2135 22.4115 53.0729 22.4688 52.9271 22.4688C52.7812 22.4688 52.6406 22.4115 52.5416 22.3073L52.3646 22.1302V29.5469C52.3646 29.849 52.1198 30.099 51.8125 30.099Z" fill="black"/>
<path d="M126.875 25.0105H122.672C122.578 25.0105 122.49 24.974 122.417 24.9115L119.354 22.2657C119.286 22.2084 119.198 22.1771 119.109 22.1771H117.745V20.3438H120.865C121.281 20.3438 121.687 20.5105 121.979 20.8021L124.208 23.0365C124.307 23.1355 124.359 23.2657 124.354 23.4063C124.354 23.4427 124.349 23.474 124.344 23.5052C124.344 23.5157 124.339 23.5261 124.339 23.5313C124.312 23.625 124.26 23.7084 124.182 23.7709C123.99 23.9427 123.672 23.9219 123.474 23.724L121.812 22.0625C121.667 21.9167 121.427 21.9167 121.281 22.0625C121.13 22.2136 121.13 22.4532 121.281 22.599L122.943 24.2605C123.422 24.7448 124.187 24.7761 124.682 24.3386C124.797 24.2396 124.891 24.125 124.958 23.9948L126.906 24C127.047 24 127.177 24.0573 127.271 24.1615C127.37 24.2657 127.417 24.3959 127.406 24.5365C127.391 24.7969 127.151 25.0105 126.875 25.0105ZM126.906 23.2448L125.104 23.2396C125.068 22.9636 124.943 22.698 124.745 22.5L122.516 20.2657C122.078 19.8334 121.479 19.5834 120.865 19.5834H117.37C117.161 19.5834 116.99 19.7552 116.99 19.9636V22.5521C116.99 22.7657 117.161 22.9323 117.37 22.9323H118.969L121.922 25.4844C122.13 25.6667 122.401 25.7657 122.672 25.7657H126.875C127.552 25.7657 128.12 25.25 128.161 24.5886C128.182 24.2344 128.068 23.9011 127.823 23.6407C127.589 23.3907 127.25 23.2448 126.906 23.2448Z" fill="black"/>
<path d="M123.089 16.7188C123.292 16.1458 123.693 15.7917 124.193 15.7552C124.224 15.7552 124.255 15.7552 124.286 15.7552C124.76 15.7552 125.219 16.0365 125.458 16.5C125.526 16.6198 125.656 16.6979 125.797 16.6979C125.937 16.6979 126.062 16.6198 126.13 16.5C126.391 16.0104 126.891 15.7188 127.396 15.7552C127.896 15.7917 128.297 16.1458 128.5 16.7188C128.99 18.099 127.047 19.7656 125.797 20.5521C124.547 19.7656 122.599 18.099 123.089 16.7188ZM125.604 21.3229C125.661 21.3594 125.729 21.375 125.797 21.375C125.865 21.375 125.932 21.3594 125.99 21.3229C126.406 21.0729 130.052 18.8229 129.214 16.4635C128.911 15.6094 128.25 15.0625 127.453 15C126.833 14.9583 126.224 15.2083 125.797 15.6719C125.37 15.2083 124.76 14.9531 124.141 15C123.339 15.0625 122.677 15.6094 122.375 16.4635C121.542 18.8229 125.182 21.0729 125.604 21.3229Z" fill="black"/>
<path d="M84.4792 22.4635H85.6771V21.9635H84.4792V22.4635Z" fill="black"/>
<path d="M80.5313 16L81.6667 14.7292L83.1198 16.1823V26.0313L80.5313 24.6667V16ZM88.3021 14.5677L89.9271 16.1927V26.2084H83.8229V16.125C83.849 16.0105 83.8177 15.8855 83.7292 15.7969L82.5052 14.5677H88.3021ZM90.625 16.0261C90.625 16.0105 90.625 15.9948 90.625 15.9792C90.6198 15.9636 90.6146 15.9532 90.6146 15.9427C90.6094 15.9323 90.6094 15.9219 90.6042 15.9115C90.599 15.9011 90.5886 15.8855 90.5834 15.875C90.5781 15.8646 90.5729 15.8594 90.5729 15.8542C90.5573 15.8334 90.5417 15.8125 90.5261 15.7969L88.6979 13.9688C88.6354 13.9011 88.5417 13.8646 88.4479 13.8646H81.6511C81.6511 13.8646 81.6511 13.8646 81.6459 13.8646C81.6146 13.8646 81.5886 13.8698 81.5573 13.875C81.5521 13.8802 81.5469 13.8802 81.5417 13.8855C81.5156 13.8907 81.4896 13.9011 81.4688 13.9167C81.4636 13.9219 81.4584 13.9219 81.4531 13.9271C81.4323 13.9427 81.4115 13.9584 81.3906 13.9792L79.9115 15.625C79.8542 15.6927 79.8229 15.7761 79.8229 15.8646V24.8802C79.8229 25.0105 79.8959 25.1302 80.0104 25.1927L80.1771 25.2813V25.7605H81.0938L83.2031 26.875C83.25 26.9011 83.3073 26.9115 83.3646 26.9115C83.3802 26.9115 83.3959 26.9115 83.4115 26.9063C83.4323 26.9115 83.4531 26.9115 83.474 26.9115H83.8229V27.2917H84.7552V26.9115H89.0052V27.2917H89.9375V26.9115H90.2761C90.474 26.9115 90.6302 26.7552 90.6302 26.5625V16.0469C90.6302 16.0417 90.6302 16.0365 90.625 16.0261Z" fill="black"/>
<path d="M88.5781 16.875V18.3698L87.5729 17.4375H85.1823V16.875H88.5781ZM84.8281 19.1927H88.9323C89.125 19.1927 89.2813 19.0365 89.2813 18.8385V16.5208C89.2813 16.3281 89.125 16.1719 88.9323 16.1719H84.8281C84.6354 16.1719 84.4792 16.3281 84.4792 16.5208V18.8385C84.4792 19.0365 84.6354 19.1927 84.8281 19.1927Z" fill="black"/>
<path d="M69.5104 30.9531C69.6927 30.6302 69.9375 30.375 70.25 30.1927C70.5573 30.0104 70.9062 29.9219 71.2916 29.9219C71.7604 29.9219 72.1614 30.0313 72.4948 30.2552C72.8281 30.474 73.0729 30.7865 73.2239 31.1927H72.7291C72.6094 30.9063 72.4271 30.6875 72.1823 30.526C71.9375 30.3646 71.6406 30.2865 71.2916 30.2865C70.9844 30.2865 70.7083 30.3594 70.4583 30.5C70.2135 30.6458 70.0208 30.8542 69.8802 31.125C69.7396 31.3906 69.6719 31.7031 69.6719 32.0625C69.6719 32.4167 69.7396 32.7292 69.8802 33C70.0208 33.2656 70.2135 33.474 70.4583 33.6146C70.7083 33.7604 70.9844 33.8333 71.2916 33.8333C71.6406 33.8333 71.9375 33.7552 72.1823 33.5938C72.4271 33.4375 72.6094 33.2188 72.7291 32.9375H73.2239C73.0729 33.3385 72.8281 33.6458 72.4896 33.8698C72.1562 34.0885 71.7552 34.1979 71.2916 34.1979C70.9062 34.1979 70.5573 34.1094 70.25 33.9271C69.9375 33.7448 69.6927 33.4896 69.5104 33.1667C69.3281 32.8438 69.2396 32.474 69.2396 32.0625C69.2396 31.651 69.3281 31.2813 69.5104 30.9531Z" fill="black"/>
<path d="M76.5729 33.6198C76.8177 33.4792 77.0156 33.2708 77.1563 33C77.3021 32.7292 77.375 32.4167 77.375 32.0625C77.375 31.7031 77.3021 31.3958 77.1563 31.125C77.0156 30.8594 76.8177 30.651 76.5729 30.5104C76.3229 30.3646 76.0417 30.2917 75.7292 30.2917C75.4219 30.2917 75.1406 30.3646 74.8906 30.5104C74.6406 30.651 74.4479 30.8594 74.3021 31.125C74.1563 31.3958 74.0885 31.7031 74.0885 32.0625C74.0885 32.4167 74.1563 32.7292 74.3021 33C74.4479 33.2708 74.6406 33.4792 74.8906 33.6198C75.1406 33.7656 75.4219 33.8385 75.7292 33.8385C76.0417 33.8385 76.3229 33.7656 76.5729 33.6198ZM74.6771 33.9323C74.3594 33.75 74.1094 33.4948 73.9271 33.1667C73.7448 32.8438 73.6562 32.474 73.6562 32.0625C73.6562 31.651 73.7448 31.2813 73.9271 30.9531C74.1094 30.6302 74.3594 30.375 74.6771 30.1927C74.9896 30.0104 75.3438 29.9219 75.7292 29.9219C76.125 29.9219 76.4792 30.0104 76.7917 30.1927C77.1094 30.375 77.3594 30.6302 77.5365 30.9531C77.7188 31.2813 77.8073 31.651 77.8073 32.0625C77.8073 32.474 77.7188 32.8438 77.5365 33.1667C77.3594 33.4948 77.1094 33.75 76.7917 33.9323C76.4792 34.1146 76.125 34.2031 75.7292 34.2031C75.3438 34.2031 74.9896 34.1146 74.6771 33.9323Z" fill="black"/>
<path d="M81.526 34.1615H81.1094L78.7864 30.6354V34.1615H78.3646V29.9688H78.7864L81.1094 33.4896V29.9688H81.526" fill="black"/>
<path d="M84.7239 29.9688V30.3177H83.5625V34.1615H83.1406V30.3177H81.9739V29.9688" fill="black"/>
<path d="M85.6042 30.3125V31.875H87.1927V32.2239H85.6042V33.8125H87.3698V34.1614H85.1823V29.9635H87.3698V30.3125" fill="black"/>
<path d="M91.151 34.1615H90.7291L88.4062 30.6354V34.1615H87.9896V29.9688H88.4062L90.7291 33.4896V29.9688H91.151" fill="black"/>
<path d="M92.3125 30.3125V31.875H93.9062V32.2239H92.3125V33.8125H94.0833V34.1614H91.8958V29.9635H94.0833V30.3125" fill="black"/>
<path d="M95.1042 29.9688V32.6094C95.1042 33.026 95.2031 33.3333 95.401 33.5313C95.599 33.7344 95.8698 33.8333 96.2135 33.8333C96.5573 33.8333 96.8281 33.7344 97.0208 33.5365C97.2135 33.3385 97.3125 33.026 97.3125 32.6094V29.9688H97.7344V32.6042C97.7344 33.1354 97.5885 33.5365 97.3073 33.8021C97.026 34.0677 96.6615 34.2031 96.2083 34.2031C95.7552 34.2031 95.3906 34.0677 95.1094 33.8021C94.8229 33.5365 94.6875 33.1354 94.6875 32.6042V29.9688" fill="black"/>
<path d="M98.8802 32.0677H99.7239C100.052 32.0677 100.297 31.9844 100.464 31.8281C100.63 31.6667 100.714 31.4531 100.714 31.1875C100.714 30.9115 100.635 30.6979 100.474 30.5469C100.312 30.3958 100.062 30.3229 99.7187 30.3229H98.8802V32.0677ZM100.693 34.1615L99.651 32.4115H98.8802V34.1615H98.4583V29.9688H99.7187C100.187 29.9688 100.542 30.0781 100.786 30.3021C101.026 30.526 101.146 30.8229 101.146 31.1875C101.146 31.4896 101.057 31.75 100.885 31.9635C100.714 32.1771 100.458 32.3177 100.115 32.3802L101.193 34.1615" fill="black"/>
<path d="M107.635 32.8177L106.807 30.5521L105.979 32.8177H107.635ZM107.766 33.1667H105.854L105.49 34.1615H105.042L106.573 30.0209H107.047L108.573 34.1615H108.13" fill="black"/>
<path d="M109.578 34.0625C109.37 33.9635 109.203 33.8281 109.083 33.6563C108.964 33.4844 108.896 33.2917 108.891 33.0833H109.333C109.354 33.2865 109.443 33.4635 109.604 33.6198C109.766 33.7708 110 33.849 110.307 33.849C110.589 33.849 110.813 33.776 110.979 33.6302C111.146 33.4844 111.229 33.3021 111.229 33.0781C111.229 32.8958 111.182 32.75 111.094 32.6406C111 32.5313 110.885 32.4479 110.75 32.3958C110.615 32.3385 110.427 32.2813 110.188 32.2188C109.906 32.1406 109.682 32.0677 109.521 31.9948C109.359 31.9219 109.214 31.8125 109.099 31.6615C108.984 31.5104 108.927 31.3021 108.927 31.0417C108.927 30.8281 108.979 30.6354 109.094 30.4635C109.208 30.2917 109.365 30.1615 109.568 30.0625C109.771 29.9688 110.005 29.9219 110.271 29.9219C110.661 29.9219 110.969 30.0156 111.208 30.2031C111.448 30.3958 111.583 30.6406 111.62 30.9427H111.161C111.135 30.7656 111.042 30.6146 110.88 30.4792C110.724 30.349 110.505 30.2813 110.234 30.2813C109.979 30.2813 109.771 30.349 109.604 30.4792C109.438 30.6146 109.354 30.7969 109.354 31.0313C109.354 31.2083 109.396 31.349 109.49 31.4583C109.583 31.5625 109.698 31.6458 109.833 31.7031C109.974 31.7552 110.161 31.8177 110.396 31.8802C110.667 31.9583 110.885 32.0313 111.057 32.1094C111.224 32.1823 111.365 32.2917 111.479 32.4479C111.599 32.599 111.656 32.8021 111.656 33.0573C111.656 33.2552 111.604 33.4427 111.5 33.6146C111.396 33.7917 111.24 33.9323 111.036 34.0417C110.833 34.151 110.589 34.2031 110.307 34.2031C110.031 34.2031 109.786 34.1563 109.578 34.0625Z" fill="black"/>
<path d="M112.797 34.0625C112.589 33.9635 112.427 33.8281 112.302 33.6563C112.182 33.4844 112.12 33.2917 112.109 33.0833H112.557C112.578 33.2865 112.667 33.4635 112.828 33.6198C112.984 33.7708 113.219 33.849 113.531 33.849C113.812 33.849 114.036 33.776 114.203 33.6302C114.37 33.4844 114.453 33.3021 114.453 33.0781C114.453 32.8958 114.406 32.75 114.313 32.6406C114.224 32.5313 114.109 32.4479 113.974 32.3958C113.833 32.3385 113.646 32.2813 113.406 32.2188C113.13 32.1406 112.906 32.0677 112.74 31.9948C112.578 31.9219 112.437 31.8125 112.323 31.6615C112.208 31.5104 112.146 31.3021 112.146 31.0417C112.146 30.8281 112.203 30.6354 112.318 30.4635C112.427 30.2917 112.589 30.1615 112.792 30.0625C112.995 29.9688 113.229 29.9219 113.495 29.9219C113.88 29.9219 114.193 30.0156 114.432 30.2031C114.667 30.3958 114.807 30.6406 114.844 30.9427H114.385C114.359 30.7656 114.266 30.6146 114.104 30.4792C113.943 30.349 113.729 30.2813 113.453 30.2813C113.203 30.2813 112.995 30.349 112.828 30.4792C112.661 30.6146 112.573 30.7969 112.573 31.0313C112.573 31.2083 112.62 31.349 112.714 31.4583C112.802 31.5625 112.922 31.6458 113.057 31.7031C113.198 31.7552 113.38 31.8177 113.62 31.8802C113.891 31.9583 114.109 32.0313 114.276 32.1094C114.448 32.1823 114.589 32.2917 114.703 32.4479C114.823 32.599 114.88 32.8021 114.88 33.0573C114.88 33.2552 114.828 33.4427 114.724 33.6146C114.62 33.7917 114.464 33.9323 114.26 34.0417C114.057 34.151 113.812 34.2031 113.531 34.2031C113.255 34.2031 113.01 34.1563 112.797 34.0625Z" fill="black"/>
<path d="M118.203 33.6198C118.448 33.4792 118.646 33.2708 118.786 33C118.932 32.7292 119.005 32.4167 119.005 32.0625C119.005 31.7031 118.932 31.3958 118.786 31.125C118.646 30.8594 118.448 30.651 118.203 30.5104C117.953 30.3646 117.672 30.2917 117.359 30.2917C117.047 30.2917 116.771 30.3646 116.521 30.5104C116.276 30.651 116.078 30.8594 115.932 31.125C115.786 31.3958 115.719 31.7031 115.719 32.0625C115.719 32.4167 115.786 32.7292 115.932 33C116.078 33.2708 116.276 33.4792 116.521 33.6198C116.771 33.7656 117.047 33.8385 117.359 33.8385C117.672 33.8385 117.953 33.7656 118.203 33.6198ZM116.307 33.9323C115.99 33.75 115.74 33.4948 115.557 33.1667C115.375 32.8438 115.286 32.474 115.286 32.0625C115.286 31.651 115.375 31.2813 115.557 30.9531C115.74 30.6302 115.99 30.375 116.307 30.1927C116.62 30.0104 116.974 29.9219 117.359 29.9219C117.755 29.9219 118.109 30.0104 118.422 30.1927C118.74 30.375 118.99 30.6302 119.167 30.9531C119.349 31.2813 119.437 31.651 119.437 32.0625C119.437 32.474 119.349 32.8438 119.167 33.1667C118.99 33.4948 118.74 33.75 118.422 33.9323C118.109 34.1146 117.755 34.2031 117.359 34.2031C116.974 34.2031 116.62 34.1146 116.307 33.9323Z" fill="black"/>
<path d="M120.073 30.9531C120.255 30.6302 120.5 30.375 120.812 30.1927C121.125 30.0104 121.469 29.9219 121.854 29.9219C122.323 29.9219 122.724 30.0313 123.057 30.2552C123.391 30.474 123.635 30.7865 123.786 31.1927H123.297C123.177 30.9063 122.995 30.6875 122.745 30.526C122.5 30.3646 122.203 30.2865 121.854 30.2865C121.547 30.2865 121.271 30.3594 121.026 30.5C120.776 30.6458 120.589 30.8542 120.443 31.125C120.307 31.3906 120.234 31.7031 120.234 32.0625C120.234 32.4167 120.307 32.7292 120.443 33C120.589 33.2656 120.776 33.474 121.026 33.6146C121.271 33.7604 121.547 33.8333 121.854 33.8333C122.203 33.8333 122.5 33.7552 122.745 33.5938C122.995 33.4375 123.177 33.2188 123.297 32.9375H123.786C123.635 33.3385 123.391 33.6458 123.057 33.8698C122.719 34.0885 122.323 34.1979 121.854 34.1979C121.469 34.1979 121.125 34.1094 120.812 33.9271C120.5 33.7448 120.255 33.4896 120.073 33.1667C119.896 32.8438 119.802 32.474 119.802 32.0625C119.802 31.651 119.896 31.2813 120.073 30.9531Z" fill="black"/>
<path d="M124.411 34.1615H124.828V29.9688H124.411V34.1615Z" fill="black"/>
<path d="M127.88 32.8177L127.052 30.5521L126.224 32.8177H127.88ZM128.005 33.1667H126.099L125.734 34.1615H125.286L126.818 30.0209H127.292L128.812 34.1615H128.37" fill="black"/>
<path d="M131.729 29.9688V30.3177H130.568V34.1615H130.146V30.3177H128.979V29.9688" fill="black"/>
<path d="M132.188 34.1615H132.609V29.9688H132.188V34.1615Z" fill="black"/>
<path d="M136.078 33.6198C136.323 33.4792 136.521 33.2708 136.661 33C136.807 32.7292 136.88 32.4167 136.88 32.0625C136.88 31.7031 136.807 31.3958 136.661 31.125C136.521 30.8594 136.323 30.651 136.078 30.5104C135.828 30.3646 135.547 30.2917 135.234 30.2917C134.922 30.2917 134.641 30.3646 134.396 30.5104C134.146 30.651 133.953 30.8594 133.807 31.125C133.661 31.3958 133.589 31.7031 133.589 32.0625C133.589 32.4167 133.661 32.7292 133.807 33C133.953 33.2708 134.146 33.4792 134.396 33.6198C134.641 33.7656 134.922 33.8385 135.234 33.8385C135.547 33.8385 135.828 33.7656 136.078 33.6198ZM134.177 33.9323C133.865 33.75 133.615 33.4948 133.432 33.1667C133.25 32.8438 133.156 32.474 133.156 32.0625C133.156 31.651 133.25 31.2813 133.432 30.9531C133.615 30.6302 133.865 30.375 134.177 30.1927C134.495 30.0104 134.849 29.9219 135.234 29.9219C135.625 29.9219 135.979 30.0104 136.297 30.1927C136.615 30.375 136.859 30.6302 137.042 30.9531C137.219 31.2813 137.313 31.651 137.313 32.0625C137.313 32.474 137.219 32.8438 137.042 33.1667C136.859 33.4948 136.615 33.75 136.297 33.9323C135.979 34.1146 135.625 34.2031 135.234 34.2031C134.849 34.2031 134.495 34.1146 134.177 33.9323Z" fill="black"/>
<path d="M141.031 34.1615H140.609L138.286 30.6354V34.1615H137.87V29.9688H138.286L140.609 33.4896V29.9688H141.031" fill="black"/>
</g>
<defs>
<clipPath id="clip0_85_7">
<rect width="146" height="38" fill="white"/>
</clipPath>
</defs>
</svg>
