<svg width="433" height="71" viewBox="0 0 433 71" fill="none" xmlns="http://www.w3.org/2000/svg">
<g clip-path="url(#clip0_47_1932)">
<path d="M432.141 70.37H83.5573C76.6354 70.37 71 64.7397 71 57.8127V8.61475H419.589C426.51 8.61475 432.141 14.2502 432.141 21.172V70.37ZM73.4844 11.0991V57.8127C73.4844 63.37 78.0052 67.8856 83.5573 67.8856H429.661V21.172C429.661 15.62 425.141 11.0991 419.589 11.0991" fill="#AC348E"/>
<path d="M154.109 69.276H88.448C71.0782 69.0052 72.1928 57.3385 72.2397 47.0781V10H154.109L163.724 37.1406C164.297 38.7552 164.297 40.5208 163.724 42.1354" fill="#AC348E"/>
<path d="M95.0209 8.33341C95.0209 12.198 90.1772 15.3282 84.2084 15.3282C78.2397 15.3282 73.4011 12.198 73.4011 8.33341C73.4011 4.46883 78.2397 1.33862 84.2084 1.33862C90.1772 1.33862 95.0209 4.46883 95.0209 8.33341Z" fill="white"/>
<path d="M84.2083 15.745C78.0208 15.745 72.9895 12.422 72.9895 8.3335C72.9895 4.25016 78.0208 0.927246 84.2083 0.927246C90.3958 0.927246 95.4322 4.25016 95.4322 8.3335C95.4322 12.422 90.3958 15.745 84.2083 15.745ZM84.2083 1.75537C78.4791 1.75537 73.8176 4.7085 73.8176 8.3335C73.8176 11.9637 78.4791 14.9168 84.2083 14.9168C89.9426 14.9168 94.6041 11.9637 94.6041 8.3335C94.6041 4.7085 89.9426 1.75537 84.2083 1.75537Z" fill="#AC348E"/>
<path d="M79.9688 5.85425H83.6094V6.66154H80.9688V8.18758H83.4531V9.00008H80.9688V11.4272H79.9688" fill="#AC348E"/>
<path d="M89.0365 11.4272H87.9688L87.2605 9.573C87.198 9.40112 87.099 9.28133 86.9688 9.21362C86.8386 9.14592 86.6667 9.10946 86.4584 9.10946H85.4532V11.4272H84.448V5.85425H86.8386C87.4688 5.85425 87.948 5.98966 88.2761 6.27091C88.6042 6.54696 88.7709 6.94279 88.7709 7.45841C88.7709 7.82821 88.672 8.14592 88.474 8.40112C88.2813 8.66154 88.0053 8.84383 87.6407 8.95321C87.9688 9.02092 88.2084 9.25008 88.3542 9.64071L89.0365 11.4272ZM86.6928 8.32821C87.073 8.32821 87.3595 8.25529 87.5417 8.11987C87.724 7.97404 87.8178 7.7605 87.8178 7.47404C87.8178 7.19279 87.724 6.98446 87.5417 6.84383C87.3647 6.70321 87.0834 6.6355 86.6928 6.6355H85.4324V8.32821" fill="#AC348E"/>
<path d="M29.1546 5C36.5036 5.13542 43.3421 8.02083 48.988 13.7292C49.3578 14.1042 49.3838 14.3437 48.9828 14.7083C48.4151 15.2083 47.889 15.75 47.3838 16.3177C47.0609 16.6823 46.863 16.6719 46.5192 16.3125C43.8474 13.5052 40.6963 11.401 37.0453 10.0781C32.3369 8.36979 27.5348 8.0625 22.6598 9.25521C16.1703 10.8385 11.1026 14.4635 7.49318 20.0573C4.0661 25.3698 2.90464 31.2083 3.89943 37.4479C4.55568 41.5573 6.21714 45.25 8.7536 48.5469C8.82652 48.6458 8.89422 48.75 8.98277 48.8333C9.09735 48.9375 9.22756 49.026 9.35256 49.125C9.40985 48.9792 9.49839 48.8438 9.52443 48.6927C10.0557 46.1563 10.5765 43.6198 11.0973 41.0833C11.8265 37.5313 12.5609 33.974 13.2744 30.4167C13.5609 28.974 13.7953 27.5156 14.6546 26.2708C16.1807 24.0677 18.1911 22.6823 20.9567 23.1615C22.1651 23.3698 23.3369 24.0104 24.4151 24.651C28.0453 26.8073 31.6234 29.0469 35.2171 31.2656C35.9307 31.7083 36.1182 32.1771 35.8578 32.7188C35.5765 33.3021 35.0088 33.4583 34.2223 33.1458C31.5505 32.0833 28.8421 31.0938 26.2276 29.9115C23.9776 28.8958 22.2067 30.1823 22.0817 32.5365C22.0192 33.7083 22.1442 34.901 22.2744 36.0729C22.7432 40.2917 23.2588 44.5052 23.7536 48.7188C24.0921 51.5938 24.4411 54.4688 24.764 57.349C24.8213 57.8177 25.0192 58.0625 25.488 58.0677C27.0921 58.1042 28.7067 58.125 30.3161 58.1563C30.7015 58.1615 30.7901 57.9427 30.7588 57.599C30.7067 56.9688 30.6703 56.3385 30.6338 55.7083C30.6286 55.599 30.6911 55.4896 30.7171 55.3854C30.8109 55.4219 30.9151 55.4375 30.9932 55.4948C32.6494 56.75 34.3057 58.0104 35.9619 59.2708C36.238 59.4792 36.1911 59.6406 35.9671 59.8542C34.4984 61.2656 33.0296 62.6875 31.5609 64.099C31.4828 64.1771 31.363 64.2083 31.2588 64.2604C31.2276 64.1458 31.1755 64.0313 31.1651 63.9167C31.113 63.3698 31.0401 62.8177 31.0401 62.2708C31.0401 61.7656 30.8369 61.6563 30.3682 61.6927C26.9255 61.9792 23.5453 61.6042 20.264 60.5781C12.8526 58.2656 7.22756 53.7031 3.46193 46.9115C0.857766 42.2083 -0.324526 37.1146 0.0765158 31.7656C0.842141 21.5885 5.71193 13.8646 14.5036 8.69271C18.8005 6.16146 23.5088 5.03125 29.1546 5ZM21.5401 57.0625C21.4463 56.6979 21.3942 56.4792 21.3317 56.2656C20.4463 53.151 19.5609 50.0365 18.6703 46.9219C18.264 45.5104 17.863 44.099 17.4098 42.7083C17.3265 42.4427 16.9984 42.0938 16.7796 42.0885C16.5036 42.0833 16.2067 42.375 15.9567 42.5833C15.8421 42.6771 15.8057 42.8646 15.7484 43.0208C14.7015 45.9323 13.6703 48.8542 12.5973 51.7552C12.4203 52.2448 12.5453 52.4948 12.9098 52.7813C14.7484 54.2292 16.7328 55.4271 18.8942 56.3177C19.5869 56.6042 20.3057 56.8542 21.0192 57.0938C21.1651 57.1406 21.3526 57.0781 21.5401 57.0625Z" fill="#AC348E"/>
<path d="M36.9203 37.0104C41.764 36.8125 45.337 32.2395 46.1442 27.8281C46.3317 26.8125 46.363 25.7656 46.4411 24.7291C46.4828 24.2135 46.2484 23.9427 45.6859 23.9635C45.1963 23.9843 44.7067 23.9427 44.2172 23.9218C44.0765 23.9114 43.9463 23.8645 43.8109 23.8333C43.8838 23.7031 43.9307 23.5416 44.0349 23.4375C45.3995 22.0573 46.7692 20.6927 48.139 19.3177C49.014 18.4375 49.8995 17.5573 50.7692 16.6666C51.0088 16.4218 51.1495 16.401 51.3734 16.7031C53.2588 19.2656 55.1651 21.8125 57.0557 24.3698C57.1234 24.4635 57.1599 24.5833 57.2067 24.6875C57.0765 24.7187 56.9463 24.7812 56.8161 24.7812C56.2849 24.7656 55.7536 24.7604 55.2276 24.6979C54.7276 24.6406 54.5401 24.7916 54.514 25.3125C54.4151 27.427 53.8161 29.401 52.738 31.2239C49.712 36.3541 43.0349 38.9531 37.3474 37.2031C37.2015 37.1562 37.0609 37.0729 36.9203 37.0104Z" fill="#AC348E"/>
<path d="M35.3787 37.104C33.4777 41.2082 35.561 45.6925 38.087 48.1978C39.3423 49.4425 40.7589 50.4634 42.3995 51.1613C42.9048 51.3748 43.1808 51.2863 43.3943 50.7811C43.5766 50.354 43.8058 49.9425 44.035 49.5311C44.1079 49.4009 44.2433 49.3123 44.3475 49.203C44.4152 49.3228 44.5037 49.4321 44.5506 49.5571C45.4725 52.0675 46.3891 54.5728 47.3058 57.0832C47.4777 57.5415 47.6183 58.0103 47.8162 58.4582C47.9933 58.8436 47.8891 58.9998 47.4881 59.0832C45.5245 59.4686 43.5714 59.8696 41.6131 60.2655C40.5714 60.4738 39.535 60.6925 38.4933 60.8957C38.2798 60.9373 38.0558 60.9269 37.837 60.9425C37.8995 60.7446 37.9464 60.5311 38.035 60.3436C38.2225 59.9582 38.3839 59.5519 38.6443 59.2134C39.0766 58.6457 38.8214 58.3905 38.3006 58.1196C36.4725 57.1717 35.0037 55.8071 33.8318 54.1196C30.4048 49.203 30.8891 42.0155 34.9412 37.6144C35.0923 37.4478 35.2329 37.2759 35.3787 37.104Z" fill="#AC348E"/>
<path d="M36.0974 37.651C36.9464 38.7396 37.9099 39.6563 39.1391 40.2656C42.1026 41.7188 45.1599 41.7917 48.2276 40.7083C49.3891 40.2969 50.4672 39.651 51.5766 39.099C52.0766 38.849 52.1755 38.5104 51.8266 38.0208C51.5193 37.5937 51.2797 37.1094 51.0245 36.6458C50.9776 36.5573 50.988 36.4323 50.9724 36.3229C51.0714 36.3229 51.1703 36.3125 51.2641 36.3333C54.4307 37.026 57.5922 37.724 60.7589 38.4063C61.1495 38.4896 61.1547 38.6406 61.0349 38.9531C59.8891 41.9167 58.7485 44.8854 57.6078 47.8542C57.5662 47.9583 57.488 48.0469 57.4255 48.1458C57.3422 48.0677 57.2276 48.0052 57.1755 47.9063C56.8891 47.4167 56.5922 46.9271 56.337 46.4115C56.1287 45.9844 55.8995 45.9323 55.4828 46.1719C53.1755 47.5156 50.6755 48.0156 48.0193 47.8333C42.5245 47.4479 37.4516 43.2187 36.1235 37.8802C36.1078 37.8073 36.1026 37.724 36.0974 37.651Z" fill="#AC348E"/>
<path d="M18.2224 17.578C18.2224 15.1926 20.1703 13.2343 22.5401 13.2447C24.8891 13.2551 26.811 15.1874 26.8214 17.552C26.8318 19.9374 24.8787 21.8957 22.5037 21.8853C20.1547 21.8749 18.2276 19.9322 18.2224 17.578Z" fill="#AC348E"/>
<path d="M88.0771 36.1074C87.6084 36.1074 87.1624 36.0277 86.7393 35.8682C86.3161 35.7054 85.9385 35.4743 85.6064 35.1748C85.2744 34.8753 85.0091 34.4912 84.8105 34.0225C84.6152 33.5505 84.5176 33.0264 84.5176 32.4502C84.5176 31.9684 84.5827 31.5241 84.7129 31.1172C84.8464 30.707 85.0254 30.3604 85.25 30.0771C85.4746 29.7907 85.735 29.5465 86.0312 29.3447C86.3275 29.1429 86.64 28.9948 86.9688 28.9004C87.2975 28.806 87.6344 28.7588 87.9795 28.7588C88.9105 28.7588 89.7015 29.0143 90.3525 29.5254L89.8691 30.3896C89.3288 30.0153 88.7331 29.8281 88.082 29.8281C87.7793 29.8281 87.4912 29.8883 87.2178 30.0088C86.9476 30.1292 86.7083 30.2985 86.5 30.5166C86.2917 30.7347 86.1257 31.0098 86.002 31.3418C85.8783 31.6738 85.8164 32.0384 85.8164 32.4355C85.8164 33.2201 86.0378 33.8499 86.4805 34.3252C86.9232 34.8005 87.4831 35.0381 88.1602 35.0381C88.873 35.0381 89.5273 34.7988 90.123 34.3203L90.5381 35.3018C89.848 35.8389 89.0277 36.1074 88.0771 36.1074ZM95.1133 36.1123C94.0033 36.1123 93.1276 35.7786 92.4863 35.1113C91.8483 34.4408 91.5293 33.5407 91.5293 32.4111C91.5293 31.3109 91.8499 30.4271 92.4912 29.7598C93.1357 29.0924 94.0146 28.7588 95.1279 28.7588C96.2054 28.7588 97.0615 29.0924 97.6963 29.7598C98.3343 30.4238 98.6533 31.3076 98.6533 32.4111C98.6533 33.5439 98.3392 34.444 97.7109 35.1113C97.0827 35.7786 96.2168 36.1123 95.1133 36.1123ZM95.084 35.0527C95.8099 35.0527 96.3617 34.8249 96.7393 34.3691C97.1169 33.9102 97.3057 33.2575 97.3057 32.4111C97.3057 31.5908 97.1169 30.9544 96.7393 30.502C96.3617 30.0462 95.8164 29.8184 95.1035 29.8184C94.3841 29.8184 93.8307 30.0462 93.4434 30.502C93.0592 30.9544 92.8672 31.5908 92.8672 32.4111C92.8672 33.2607 93.0544 33.9134 93.4287 34.3691C93.8031 34.8249 94.3548 35.0527 95.084 35.0527ZM101.329 31.9424H102.516C103.401 31.9424 103.844 31.599 103.844 30.9121C103.844 30.5378 103.751 30.2855 103.565 30.1553C103.38 30.0218 103.074 29.9551 102.647 29.9551H101.329V31.9424ZM100.104 36V28.8906H102.667C103.058 28.8906 103.395 28.9199 103.678 28.9785C103.964 29.0371 104.223 29.138 104.454 29.2812C104.685 29.4212 104.859 29.623 104.977 29.8867C105.094 30.1471 105.152 30.4694 105.152 30.8535C105.152 31.2539 105.034 31.6087 104.796 31.918C104.558 32.224 104.2 32.4307 103.722 32.5381C104.148 32.7757 104.462 33.1468 104.664 33.6514L105.626 36H104.283L103.468 33.8857C103.334 33.5374 103.189 33.3014 103.033 33.1777C102.877 33.054 102.641 32.9922 102.325 32.9922H101.344V36H100.104ZM106.881 36V28.8906H108.863C110.286 28.8906 111.349 29.1934 112.052 29.7988C112.755 30.401 113.106 31.2686 113.106 32.4014C113.106 33.5765 112.761 34.4701 112.071 35.082C111.384 35.694 110.382 36 109.063 36H106.881ZM108.121 34.9355H109.127C109.986 34.9355 110.646 34.7207 111.104 34.291C111.563 33.8613 111.793 33.2298 111.793 32.3965C111.793 31.6055 111.56 31.0016 111.095 30.585C110.632 30.165 109.926 29.9551 108.976 29.9551H108.121V34.9355ZM114.557 36V28.8906H119.044V29.9551H115.797V31.8545H118.868V32.9238H115.812V34.9355H119.186V36H114.557ZM84.9277 51V43.8906H86.9102C88.3327 43.8906 89.3955 44.1934 90.0986 44.7988C90.8018 45.401 91.1533 46.2686 91.1533 47.4014C91.1533 48.5765 90.8083 49.4701 90.1182 50.082C89.4313 50.694 88.4287 51 87.1104 51H84.9277ZM86.168 49.9355H87.1738C88.0332 49.9355 88.6924 49.7207 89.1514 49.291C89.6104 48.8613 89.8398 48.2298 89.8398 47.3965C89.8398 46.6055 89.6071 46.0016 89.1416 45.585C88.6794 45.165 87.973 44.9551 87.0225 44.9551H86.168V49.9355ZM92.2227 46.7715L92.7012 43.8906H94.0684L93.1113 46.7715H92.2227ZM95.6895 51V43.8906H100.177V44.9551H96.9297V46.8545H100.001V47.9238H96.9443V49.9355H100.318V51H95.6895ZM103.907 51.1123C103.419 51.1123 102.949 51.0407 102.496 50.8975C102.044 50.7542 101.687 50.5557 101.427 50.3018L101.954 49.4131C102.185 49.5921 102.485 49.7435 102.853 49.8672C103.224 49.9909 103.549 50.0527 103.829 50.0527C104.269 50.0527 104.592 49.9714 104.801 49.8086C105.012 49.6458 105.118 49.3984 105.118 49.0664C105.118 48.9362 105.108 48.832 105.089 48.7539C105.069 48.6725 105.025 48.5895 104.957 48.5049C104.889 48.417 104.786 48.3372 104.649 48.2656C104.516 48.1908 104.335 48.1126 104.107 48.0312C104.01 47.9987 103.844 47.945 103.609 47.8701C103.378 47.7952 103.209 47.7383 103.102 47.6992C102.516 47.4779 102.091 47.2174 101.827 46.918C101.563 46.6152 101.432 46.2067 101.432 45.6924C101.432 45.2757 101.541 44.9193 101.759 44.623C101.98 44.3268 102.273 44.1087 102.638 43.9688C103.002 43.8288 103.419 43.7588 103.888 43.7588C104.522 43.7588 105.016 43.8206 105.367 43.9443C105.719 44.068 106.051 44.2796 106.363 44.5791L105.729 45.3994C105.328 45.0186 104.773 44.8281 104.063 44.8281C103.676 44.8281 103.36 44.8949 103.116 45.0283C102.875 45.1618 102.755 45.3652 102.755 45.6387C102.755 45.7721 102.766 45.8828 102.789 45.9707C102.812 46.0553 102.859 46.14 102.931 46.2246C103.006 46.306 103.111 46.3825 103.248 46.4541C103.385 46.5225 103.567 46.5973 103.795 46.6787C103.876 46.708 104.046 46.765 104.303 46.8496C104.563 46.931 104.757 46.9961 104.884 47.0449C105.463 47.276 105.867 47.5413 106.095 47.8408C106.323 48.1403 106.437 48.557 106.437 49.0908C106.437 49.4456 106.367 49.7581 106.227 50.0283C106.087 50.2952 105.896 50.5052 105.655 50.6582C105.414 50.8112 105.147 50.9251 104.854 51C104.562 51.0749 104.246 51.1123 103.907 51.1123ZM111.075 51.1074C110.606 51.1074 110.16 51.0277 109.737 50.8682C109.314 50.7054 108.937 50.4743 108.604 50.1748C108.272 49.8753 108.007 49.4912 107.809 49.0225C107.613 48.5505 107.516 48.0264 107.516 47.4502C107.516 46.9684 107.581 46.5241 107.711 46.1172C107.844 45.707 108.023 45.3604 108.248 45.0771C108.473 44.7907 108.733 44.5465 109.029 44.3447C109.326 44.1429 109.638 43.9948 109.967 43.9004C110.296 43.806 110.632 43.7588 110.978 43.7588C111.909 43.7588 112.7 44.0143 113.351 44.5254L112.867 45.3896C112.327 45.0153 111.731 44.8281 111.08 44.8281C110.777 44.8281 110.489 44.8883 110.216 45.0088C109.946 45.1292 109.706 45.2985 109.498 45.5166C109.29 45.7347 109.124 46.0098 109 46.3418C108.876 46.6738 108.814 47.0384 108.814 47.4355C108.814 48.2201 109.036 48.8499 109.479 49.3252C109.921 49.8005 110.481 50.0381 111.158 50.0381C111.871 50.0381 112.525 49.7988 113.121 49.3203L113.536 50.3018C112.846 50.8389 112.026 51.1074 111.075 51.1074ZM116.568 48.1094H118.473C118.098 46.9993 117.784 46.0765 117.53 45.3408C117.319 45.9561 116.998 46.8789 116.568 48.1094ZM114.068 51L116.925 43.8906H118.185L121.065 51H119.664L118.976 49.2666H116.104L115.431 51H114.068ZM122.057 51V43.8906H123.297V49.9355H126.588V51H122.057ZM129.42 48.1094H131.324C130.95 46.9993 130.636 46.0765 130.382 45.3408C130.17 45.9561 129.85 46.8789 129.42 48.1094ZM126.92 51L129.776 43.8906H131.036L133.917 51H132.516L131.827 49.2666H128.956L128.282 51H126.92ZM134.908 51V43.8906H136.891C138.313 43.8906 139.376 44.1934 140.079 44.7988C140.782 45.401 141.134 46.2686 141.134 47.4014C141.134 48.5765 140.789 49.4701 140.099 50.082C139.412 50.694 138.409 51 137.091 51H134.908ZM136.148 49.9355H137.154C138.014 49.9355 138.673 49.7207 139.132 49.291C139.591 48.8613 139.82 48.2298 139.82 47.3965C139.82 46.6055 139.588 46.0016 139.122 45.585C138.66 45.165 137.953 44.9551 137.003 44.9551H136.148V49.9355ZM142.584 51V43.8906H147.071V44.9551H143.824V46.8545H146.896V47.9238H143.839V49.9355H147.213V51H142.584Z" fill="white"/>
<path d="M247.908 68.7952H248.314V10.2119H247.908V68.7952Z" fill="#AC348E"/>
<path d="M257.435 39.5001C257.435 42.8345 253.26 45.5385 248.111 45.5385C242.962 45.5385 238.78 42.8345 238.78 39.5001C238.78 36.1657 242.962 33.4688 248.111 33.4688C253.26 33.4688 257.435 36.1657 257.435 39.5001Z" fill="#AC348E"/>
<path d="M244.356 41.8749C244.02 41.6788 243.754 41.3985 243.572 41.0343C243.39 40.67 243.299 40.2427 243.299 39.7454C243.299 39.255 243.39 38.8277 243.572 38.4634C243.754 38.0922 244.013 37.819 244.349 37.6228C244.686 37.4267 245.085 37.3286 245.547 37.3286C246.01 37.3286 246.402 37.4267 246.745 37.6228C247.081 37.819 247.341 38.0922 247.516 38.4634C247.698 38.8277 247.789 39.255 247.789 39.7454C247.789 40.2427 247.698 40.67 247.516 41.0343C247.334 41.3985 247.074 41.6788 246.738 41.8749C246.402 42.071 246.01 42.1691 245.547 42.1691C245.092 42.1691 244.693 42.071 244.356 41.8749ZM246.57 41.0413C246.808 40.7401 246.934 40.3058 246.934 39.7454C246.934 39.185 246.808 38.7576 246.57 38.4634C246.325 38.1622 245.982 38.0151 245.547 38.0151C245.106 38.0151 244.77 38.1622 244.525 38.4564C244.279 38.7576 244.16 39.185 244.16 39.7454C244.16 40.3058 244.279 40.7401 244.525 41.0413C244.77 41.3355 245.106 41.4896 245.547 41.4896C245.982 41.4896 246.325 41.3355 246.57 41.0413Z" fill="white"/>
<path d="M249.141 41.6717C248.805 41.3354 248.637 40.8451 248.637 40.2006V37.3916H249.477V40.2497C249.477 40.656 249.575 40.9642 249.764 41.1743C249.953 41.3845 250.234 41.4896 250.612 41.4896C250.976 41.4896 251.263 41.3845 251.453 41.1673C251.642 40.9572 251.74 40.649 251.74 40.2497V37.3916H252.58V40.2006C252.58 40.8451 252.412 41.3284 252.076 41.6647C251.74 42.0009 251.256 42.169 250.612 42.169C249.96 42.169 249.47 42.0079 249.141 41.6717Z" fill="white"/>
<path d="M344.949 68.9915H345.348V10.4082H344.949V68.9915Z" fill="#AC348E"/>
<path d="M354.476 39.7032C354.476 43.0306 350.301 45.7345 345.152 45.7345C339.996 45.7345 335.821 43.0306 335.821 39.7032C335.821 36.3687 339.996 33.6648 345.152 33.6648C350.301 33.6648 354.476 36.3687 354.476 39.7032Z" fill="#AC348E"/>
<path d="M341.397 42.078C341.061 41.8749 340.795 41.6017 340.613 41.2304C340.431 40.8661 340.339 40.4388 340.339 39.9415C340.339 39.4511 340.431 39.0238 340.613 38.6596C340.788 38.2953 341.054 38.0151 341.39 37.8189C341.726 37.6298 342.126 37.5317 342.588 37.5317C343.05 37.5317 343.443 37.6298 343.786 37.8189C344.122 38.0151 344.381 38.2953 344.557 38.6596C344.739 39.0238 344.83 39.4511 344.83 39.9415C344.83 40.4388 344.739 40.8661 344.557 41.2304C344.374 41.6017 344.115 41.8749 343.779 42.078C343.443 42.2742 343.05 42.3722 342.588 42.3722C342.133 42.3722 341.733 42.2742 341.397 42.078ZM343.611 41.2374C343.849 40.9362 343.975 40.5019 343.975 39.9415C343.975 39.3881 343.849 38.9608 343.611 38.6596C343.366 38.3583 343.022 38.2112 342.588 38.2112C342.147 38.2112 341.811 38.3583 341.565 38.6596C341.32 38.9538 341.201 39.3811 341.201 39.9415C341.201 40.5019 341.32 40.9362 341.565 41.2374C341.811 41.5386 342.147 41.6857 342.588 41.6857C343.022 41.6857 343.366 41.5386 343.611 41.2374Z" fill="white"/>
<path d="M346.175 41.8677C345.845 41.5315 345.677 41.0481 345.677 40.4037V37.5876H346.518V40.4457C346.518 40.852 346.616 41.1602 346.805 41.3704C346.994 41.5805 347.281 41.6856 347.653 41.6856C348.024 41.6856 348.304 41.5805 348.493 41.3704C348.682 41.1532 348.781 40.852 348.781 40.4457V37.5876H349.621V40.4037C349.621 41.0411 349.453 41.5315 349.117 41.8677C348.781 42.204 348.297 42.3721 347.653 42.3721C347.001 42.3721 346.511 42.204 346.175 41.8677Z" fill="white"/>
<path d="M364.024 48.7607H366.272C366.882 48.7607 367.407 48.8658 367.841 49.09C368.29 49.3071 368.626 49.6224 368.857 50.0357C369.095 50.449 369.214 50.9393 369.214 51.5067C369.214 52.0741 369.095 52.5715 368.864 52.9848C368.633 53.4051 368.297 53.7203 367.855 53.9375C367.414 54.1546 366.889 54.2667 366.272 54.2667H364.024V48.7607ZM366.167 53.1039C366.706 53.1039 367.113 52.9708 367.372 52.7116C367.645 52.4454 367.771 52.0391 367.771 51.5067C367.771 50.449 367.239 49.9166 366.167 49.9166H365.474V53.1039" fill="#231F20"/>
<path d="M370.062 48.7609H373.999V49.8747H371.477V50.9114H373.831V52.0253H371.477V53.1531H373.999V54.2669H370.062V48.7609ZM371.743 48.2846L372.549 47.0657H373.803L372.584 48.2846H371.743Z" fill="#231F20"/>
<path d="M375.925 53.9865C375.498 53.7483 375.176 53.4191 374.945 52.9918C374.713 52.5645 374.601 52.0671 374.601 51.5067C374.601 50.9463 374.713 50.4559 374.945 50.0286C375.176 49.6013 375.498 49.2791 375.925 49.0409C376.353 48.8098 376.85 48.6907 377.424 48.6907C377.782 48.6907 378.132 48.7467 378.475 48.8518C378.811 48.9639 379.085 49.111 379.288 49.2931L378.846 50.3229C378.398 49.9936 377.936 49.8325 377.452 49.8325C377.011 49.8325 376.668 49.9726 376.43 50.2528C376.192 50.54 376.079 50.9533 376.079 51.5067C376.079 52.0601 376.192 52.4804 376.43 52.7676C376.668 53.0478 377.011 53.1949 377.452 53.1949C377.936 53.1949 378.398 53.0268 378.846 52.7046L379.288 53.7343C379.085 53.9164 378.811 54.0635 378.475 54.1756C378.132 54.2807 377.782 54.3367 377.424 54.3367C376.85 54.3367 376.353 54.2177 375.925 53.9865Z" fill="#231F20"/>
<path d="M385.123 48.7607V54.2667H383.701V52.0391H381.473V54.2667H380.044V48.7607H381.473V50.9043H383.701V48.7607" fill="#231F20"/>
<path d="M386.11 48.7609H390.047V49.8747H387.525V50.9114H389.879V52.0253H387.525V53.1531H390.047V54.2669H386.11V48.7609ZM386.573 47.0657H387.834L388.632 48.2846H387.792L386.573 47.0657Z" fill="#231F20"/>
<path d="M392.156 49.9376H390.517V48.7607H395.266V49.9376H393.627V54.2667H392.156" fill="#231F20"/>
<path d="M395.855 48.7607H399.784V49.8745H397.27V50.9113H399.623V52.0251H397.27V53.1529H399.784V54.2667H395.855" fill="#231F20"/>
<path d="M405.318 54.2667H403.777L403.07 52.4314C402.986 52.2282 402.79 52.1232 402.488 52.1232H401.963V54.2667H400.527V48.7607H403.091C403.756 48.7607 404.254 48.9008 404.59 49.1881C404.926 49.4753 405.094 49.8816 405.094 50.4139C405.094 50.7852 404.996 51.1074 404.793 51.3736C404.597 51.6468 404.317 51.843 403.959 51.955C404.114 51.9831 404.254 52.0601 404.373 52.1722C404.499 52.2843 404.597 52.4384 404.667 52.6275L405.318 54.2667ZM403.532 50.8973C403.672 50.7992 403.742 50.6521 403.742 50.456C403.742 50.2458 403.672 50.0917 403.532 49.9936C403.399 49.9026 403.175 49.8605 402.86 49.8605H401.942V51.0374H402.86C403.168 51.0374 403.392 50.9954 403.532 50.8973Z" fill="#231F20"/>
<path d="M406.054 54.2667H407.511V48.7607H406.054V54.2667Z" fill="#231F20"/>
<path d="M408.499 48.7607H412.429V49.8745H409.914V50.9113H412.268V52.0251H409.914V53.1529H412.429V54.2667H408.499" fill="#231F20"/>
<path d="M385.102 27.8367V27.8851L385.157 27.8367" fill="#231F20"/>
<path d="M388.464 32.6701L388.471 32.6771L388.492 31.2061" fill="#231F20"/>
<path d="M388.464 39.36V31.2341L388.38 31.3392C388.121 31.6684 387.638 31.6474 387.252 31.6544C387.063 31.6544 386.692 31.4863 386.517 31.4023L385.102 33.1255V39.36H383.168L384.941 41.1953L386.72 43.0236L388.492 41.1953L390.264 39.36" fill="#231F20"/>
<path d="M384.633 28.3551L385.102 27.8927V27.8857" fill="#231F20"/>
<path d="M385.158 27.8368L385.851 27.1503L385.844 27.1433L385.158 27.8368Z" fill="#231F20"/>
<path d="M385.157 27.8367L385.102 27.8851V27.892L385.157 27.8367Z" fill="#231F20"/>
<path d="M397.179 34.0851L395.904 35.36L390.237 29.693L389.886 29.3357L389.564 29.742L388.759 31.0029L388.661 32.8662L393.529 37.7348L392.163 39.1077L394.713 39.1428L397.2 39.1848V35.353" fill="#231F20"/>
<path d="M387.869 27.3253L386.944 26.4006L386.769 26.2395L385.851 27.1502L385.158 27.8367L385.102 27.8927L384.632 28.355L383.694 29.2937H383.701L377.697 35.297L376.422 34.0221L376.401 35.4161V39.1148L378.895 39.0798L380.044 39.0587L381.445 39.0377L380.317 37.9099L380.072 37.6717L385.102 32.6351L386.223 31.2061C385.956 30.9609 385.907 30.5616 385.914 30.2184C385.921 29.9592 386.012 29.7 386.181 29.4758L386.272 29.3638L387.014 28.4111L387.539 27.7386L387.82 27.3743" fill="#231F20"/>
<path d="M387.007 31.2131L387.035 31.1921C387 31.1781 386.965 31.1641 386.937 31.1431" fill="#231F20"/>
<path d="M391.413 30.6106L390.145 29.2026L390.398 28.6982L390.412 28.6772L390.517 28.7823L390.419 28.6772C390.622 28.474 390.643 28.46 390.93 28.355L391.133 28.2849L391.413 30.6106ZM390.496 29.1535L391.007 29.7209L390.888 28.6912C390.783 28.7332 390.748 28.7613 390.643 28.8733" fill="#231F20"/>
<path d="M392.527 31.1781C392.317 31.1781 392.114 31.101 391.946 30.9679C391.749 30.8068 391.623 30.5757 391.588 30.3235V30.3165L391.343 28.2009L393.214 27.3813L393.459 30.0993C393.522 30.6247 393.151 31.108 392.639 31.1711C392.604 31.1781 392.562 31.1781 392.527 31.1781ZM391.883 30.2884C391.904 30.4636 391.995 30.6247 392.128 30.7368C392.268 30.8488 392.436 30.8979 392.604 30.8769C392.954 30.8348 393.207 30.4986 393.165 30.1343L392.954 27.8157L391.665 28.3831" fill="#231F20"/>
<path d="M387.357 31.4233C387.203 31.4233 387.056 31.3882 386.909 31.3252C386.867 31.3112 386.832 31.2902 386.797 31.2692L386.769 31.2481L386.398 30.8769C386.166 30.4776 386.202 29.9732 386.489 29.5949L388.814 26.5127C388.443 26.1485 388.345 25.7141 388.282 25.3079C388.254 25.1047 388.261 24.6984 388.296 24.096C387.224 24.4112 386.769 24.5583 386.699 24.6003C386.685 24.6073 386.678 24.6144 386.671 24.6214L386.678 24.6424L385.991 26.1905L385.956 26.7929L383.883 28.7193L383.82 28.4741C383.729 28.1449 383.442 27.0381 383.442 26.863C383.442 26.6738 383.596 26.3306 383.624 26.2605C383.869 25.6301 385.116 22.4428 385.284 22.2046C385.452 21.9734 385.606 21.7843 385.9 21.5952C386.166 21.4271 386.622 21.1679 386.643 21.1539L386.657 21.1469L395.385 17.5112H395.413C396.457 17.5112 397.55 17.9175 398.397 18.632C399.301 19.3886 399.798 20.3623 399.798 21.371V21.4621L397.326 22.9331C397.34 23.2414 397.326 23.4795 397.277 23.6477C397.241 23.7527 397.213 23.8578 397.185 23.9629C397.087 24.3692 396.989 24.7615 396.429 25.3219C395.735 26.0154 394.713 26.5898 394.061 26.835C393.858 26.905 393.459 27.0521 393.003 27.2272L390.741 28.0748L390.482 28.1939L388.282 30.9539C388.051 31.2551 387.708 31.4233 387.357 31.4233ZM386.958 31.024C386.986 31.038 387.007 31.045 387.028 31.059C387.385 31.2131 387.806 31.101 388.044 30.7718L390.299 27.9558L390.629 27.7946L392.898 26.947C393.354 26.7789 393.753 26.6318 393.956 26.5548C394.601 26.3166 395.588 25.7422 396.219 25.1117C396.723 24.6073 396.807 24.2781 396.898 23.8928C396.926 23.7878 396.954 23.6757 396.989 23.5566C397.024 23.4585 397.052 23.2554 397.024 22.8631L397.01 22.772L399.504 21.287C399.441 19.3325 397.305 17.8195 395.441 17.8054L386.783 21.42C386.72 21.4551 386.3 21.6932 386.054 21.8474C385.802 22.0015 385.683 22.1626 385.529 22.3797C385.41 22.5479 384.464 24.9226 383.897 26.3796C383.827 26.5267 383.743 26.7719 383.743 26.863C383.743 26.954 383.89 27.5565 384.044 28.1659L385.662 26.6598L385.697 26.1204L386.363 24.6214C386.363 24.5513 386.398 24.4602 386.524 24.3552C386.566 24.3271 386.657 24.2571 388.415 23.7527L388.618 23.6967L388.604 23.9068C388.555 24.5793 388.548 25.0627 388.576 25.2588C388.646 25.7352 388.751 26.0644 389.067 26.3516L389.214 26.4847L386.727 29.7771C386.517 30.0503 386.482 30.4145 386.65 30.7087" fill="#231F20"/>
<path d="M284.544 48.9359V54.4419H283.276L283.269 51.9201L282.226 54.4419H281.301L280.25 51.9551V54.4419H278.989V48.9359H280.124L281.777 52.6976L283.409 48.9359" fill="#231F20"/>
<path d="M289.273 53.3071H286.828L286.338 54.4419H284.88L287.458 48.9359H288.607L291.192 54.4419H289.756L289.273 53.3071ZM288.803 52.2143L288.047 50.477L287.297 52.2143" fill="#231F20"/>
<path d="M296.25 51.3316V54.0986C295.956 54.2317 295.626 54.3368 295.262 54.4068C294.898 54.4769 294.527 54.5119 294.148 54.5119C293.546 54.5119 293.028 54.3998 292.586 54.1757C292.145 53.9445 291.809 53.6223 291.571 53.195C291.332 52.7747 291.213 52.2633 291.213 51.6819C291.213 51.1145 291.332 50.6171 291.571 50.1968C291.809 49.7695 292.145 49.4403 292.579 49.2091C293.007 48.9779 293.518 48.8658 294.092 48.8658C294.492 48.8658 294.863 48.9149 295.22 49.02C295.57 49.125 295.858 49.2651 296.082 49.4473L295.626 50.477C295.374 50.3089 295.129 50.1898 294.891 50.1197C294.66 50.0427 294.408 50.0077 294.141 50.0077C293.651 50.0077 293.287 50.1408 293.042 50.421C292.803 50.6942 292.684 51.1145 292.684 51.6819C292.684 52.2703 292.81 52.7116 293.063 52.9918C293.308 53.272 293.693 53.4121 294.218 53.4121C294.457 53.4121 294.702 53.3911 294.947 53.3421V52.3193H293.987V51.3316" fill="#231F20"/>
<path d="M300.887 53.3071H298.442L297.952 54.4419H296.502L299.073 48.9359H300.222L302.806 54.4419H301.377L300.887 53.3071ZM300.418 52.2143L299.661 50.477L298.912 52.2143" fill="#231F20"/>
<path d="M303.808 54.3508C303.409 54.2457 303.08 54.0986 302.827 53.9095L303.283 52.8797C303.556 53.0479 303.836 53.181 304.137 53.272C304.446 53.3631 304.747 53.4051 305.048 53.4051C305.356 53.4051 305.594 53.3631 305.763 53.279C305.924 53.195 306.008 53.0759 306.008 52.9218C306.008 52.7817 305.938 52.6696 305.784 52.5785C305.636 52.4875 305.356 52.3964 304.943 52.3123C304.418 52.2073 304.018 52.0812 303.724 51.9271C303.437 51.7729 303.234 51.5978 303.122 51.3877C303.003 51.1845 302.946 50.9323 302.946 50.6381C302.946 50.3019 303.038 50.0007 303.234 49.7275C303.423 49.4543 303.689 49.2441 304.032 49.09C304.383 48.9429 304.775 48.8658 305.216 48.8658C305.615 48.8658 306.001 48.9219 306.379 49.034C306.75 49.146 307.044 49.2861 307.255 49.4683L306.806 50.498C306.561 50.3299 306.309 50.1968 306.043 50.1057C305.77 50.0217 305.503 49.9726 305.237 49.9726C304.971 49.9726 304.761 50.0217 304.6 50.1268C304.439 50.2248 304.361 50.3579 304.361 50.526C304.361 50.6241 304.39 50.7012 304.446 50.7642C304.502 50.8273 304.607 50.8833 304.761 50.9463C304.915 51.0024 305.153 51.0654 305.461 51.1355C305.959 51.2406 306.358 51.3737 306.638 51.5208C306.925 51.6749 307.128 51.85 307.248 52.0601C307.367 52.2633 307.423 52.5085 307.423 52.7887C307.423 53.3281 307.213 53.7484 306.799 54.0566C306.379 54.3578 305.791 54.5119 305.034 54.5119C304.621 54.5119 304.214 54.4629 303.808 54.3508Z" fill="#231F20"/>
<path d="M308.236 54.4419H309.693V48.9359H308.236V54.4419Z" fill="#231F20"/>
<path d="M315.612 48.9359V54.4419H314.533L312.039 51.3176V54.4419H310.68V48.9359H311.745L314.239 52.0462V48.9359" fill="#231F20"/>
<path d="M306.141 21.3569H288.439C288.131 21.3569 287.886 21.1047 287.886 20.7965C287.886 20.4883 288.131 20.2361 288.439 20.2361H306.141C306.449 20.2361 306.694 20.4883 306.694 20.7965C306.694 21.1047 306.449 21.3569 306.141 21.3569Z" fill="#231F20"/>
<path d="M309.104 28.236H285.504C285.301 28.236 285.105 28.1309 285.007 27.9558C284.909 27.7807 284.895 27.5635 285 27.3884L289.084 20.6355C289.238 20.3693 289.588 20.2923 289.847 20.4464C290.106 20.6075 290.197 20.9507 290.036 21.2099L286.471 27.1222H308.116L304.551 21.2099C304.39 20.9507 304.474 20.6075 304.74 20.4464C304.992 20.2923 305.342 20.3693 305.503 20.6355L309.58 27.3884C309.685 27.5635 309.685 27.7807 309.587 27.9558C309.489 28.1309 309.3 28.236 309.104 28.236Z" fill="#231F20"/>
<path d="M287.858 30.6247C286.24 30.6247 284.93 29.3148 284.93 27.7036C284.93 27.3884 285.182 27.1362 285.497 27.1362C285.805 27.1362 286.058 27.3884 286.058 27.7036C286.058 28.6914 286.863 29.4969 287.858 29.4969C288.839 29.4969 289.651 28.6914 289.651 27.7036C289.651 27.3884 289.903 27.1362 290.211 27.1362C290.52 27.1362 290.772 27.3884 290.772 27.7036C290.772 29.3148 289.462 30.6247 287.858 30.6247Z" fill="#231F20"/>
<path d="M292.572 30.6247C290.961 30.6247 289.644 29.3148 289.644 27.7036C289.644 27.3884 289.903 27.1362 290.211 27.1362C290.52 27.1362 290.772 27.3884 290.772 27.7036C290.772 28.6914 291.577 29.4969 292.572 29.4969C293.56 29.4969 294.365 28.6914 294.365 27.7036C294.365 27.3884 294.618 27.1362 294.933 27.1362C295.241 27.1362 295.493 27.3884 295.493 27.7036C295.493 29.3148 294.183 30.6247 292.572 30.6247Z" fill="#231F20"/>
<path d="M297.294 30.6247C295.682 30.6247 294.365 29.3148 294.365 27.7036C294.365 27.3884 294.618 27.1362 294.933 27.1362C295.241 27.1362 295.493 27.3884 295.493 27.7036C295.493 28.6914 296.299 29.4969 297.294 29.4969C298.281 29.4969 299.087 28.6914 299.087 27.7036C299.087 27.3884 299.339 27.1362 299.647 27.1362C299.963 27.1362 300.215 27.3884 300.215 27.7036C300.215 29.3148 298.905 30.6247 297.294 30.6247Z" fill="#231F20"/>
<path d="M302.008 30.6247C300.397 30.6247 299.087 29.3148 299.087 27.7036C299.087 27.3884 299.339 27.1362 299.647 27.1362C299.962 27.1362 300.214 27.3884 300.214 27.7036C300.214 28.6914 301.02 29.4969 302.008 29.4969C303.002 29.4969 303.808 28.6914 303.808 27.7036C303.808 27.3884 304.06 27.1362 304.368 27.1362C304.677 27.1362 304.929 27.3884 304.929 27.7036C304.929 29.3148 303.619 30.6247 302.008 30.6247Z" fill="#231F20"/>
<path d="M306.729 30.6247C305.118 30.6247 303.808 29.3148 303.808 27.7036C303.808 27.3884 304.06 27.1362 304.369 27.1362C304.677 27.1362 304.929 27.3884 304.929 27.7036C304.929 28.6914 305.735 29.4969 306.729 29.4969C307.717 29.4969 308.523 28.6914 308.523 27.7036C308.523 27.3884 308.775 27.1362 309.09 27.1362C309.398 27.1362 309.65 27.3884 309.65 27.7036C309.65 29.3148 308.34 30.6247 306.729 30.6247Z" fill="#231F20"/>
<path d="M306.884 42.9816H287.697C287.388 42.9816 287.136 42.7294 287.136 42.4211V30.0642C287.136 29.749 287.388 29.4968 287.697 29.4968C288.012 29.4968 288.264 29.749 288.264 30.0642V41.8607H306.323V30.0782C306.323 29.77 306.575 29.5178 306.884 29.5178C307.192 29.5178 307.451 29.77 307.451 30.0782V42.4211C307.451 42.7294 307.192 42.9816 306.884 42.9816Z" fill="#231F20"/>
<path d="M295.458 42.8624C295.15 42.8624 294.891 42.6102 294.891 42.302V29.1675C294.891 28.8523 295.15 28.6001 295.458 28.6001C295.767 28.6001 296.019 28.8523 296.019 29.1675V42.302C296.019 42.6102 295.767 42.8624 295.458 42.8624Z" fill="#231F20"/>
<path d="M293.399 37.2725C293.09 37.2725 292.838 37.0203 292.838 36.7051V32.5931C292.838 32.2849 293.09 32.0327 293.399 32.0327C293.707 32.0327 293.966 32.2849 293.966 32.5931V36.7051C293.966 37.0203 293.707 37.2725 293.399 37.2725Z" fill="#231F20"/>
<path d="M300.025 36.586C299.885 36.586 299.738 36.5299 299.633 36.4178C299.409 36.2007 299.409 35.8434 299.633 35.6263L303.283 31.9696C303.507 31.7455 303.864 31.7455 304.081 31.9696C304.298 32.1868 304.298 32.544 304.081 32.7612L300.425 36.4178C300.313 36.5299 300.172 36.586 300.025 36.586Z" fill="#231F20"/>
<path d="M301.63 38.4141C301.482 38.4141 301.335 38.3581 301.23 38.246C301.006 38.0288 301.006 37.6716 301.23 37.4544L303.402 35.2829C303.619 35.0587 303.976 35.0587 304.193 35.2829C304.418 35.5 304.418 35.8573 304.193 36.0744L302.029 38.246C301.917 38.3581 301.77 38.4141 301.63 38.4141Z" fill="#231F20"/>
<path d="M178.32 53.1319H175.875L175.385 54.2667H173.928L176.506 48.7607H177.647L180.232 54.2667H178.803L178.32 53.1319ZM177.843 52.0391L177.094 50.2948L176.344 52.0391" fill="#231F20"/>
<path d="M181.241 54.1756C180.842 54.0635 180.512 53.9164 180.26 53.7343L180.715 52.7046C180.982 52.8727 181.269 53.0058 181.57 53.0969C181.871 53.1879 182.179 53.2299 182.481 53.2299C182.789 53.2299 183.027 53.1879 183.195 53.1039C183.356 53.0198 183.44 52.8937 183.44 52.7396C183.44 52.5995 183.363 52.4874 183.216 52.4034C183.069 52.3123 182.782 52.2212 182.369 52.1302C181.85 52.0321 181.444 51.899 181.157 51.7449C180.87 51.5978 180.666 51.4156 180.547 51.2125C180.435 51.0023 180.379 50.7572 180.379 50.463C180.379 50.1267 180.47 49.8255 180.659 49.5523C180.856 49.2791 181.122 49.0689 181.465 48.9148C181.815 48.7607 182.208 48.6907 182.649 48.6907C183.048 48.6907 183.433 48.7467 183.805 48.8518C184.183 48.9709 184.47 49.111 184.687 49.2931L184.239 50.3229C183.994 50.1477 183.742 50.0216 183.468 49.9306C183.202 49.8395 182.936 49.7975 182.663 49.7975C182.404 49.7975 182.193 49.8465 182.032 49.9446C181.871 50.0497 181.787 50.1828 181.787 50.3509C181.787 50.4419 181.822 50.519 181.878 50.582C181.934 50.6451 182.039 50.7081 182.193 50.7642C182.348 50.8272 182.579 50.8903 182.887 50.9533C183.391 51.0654 183.784 51.1915 184.071 51.3456C184.358 51.4997 184.561 51.6748 184.68 51.878C184.799 52.0881 184.855 52.3263 184.855 52.6135C184.855 53.1529 184.645 53.5662 184.232 53.8744C183.812 54.1826 183.223 54.3367 182.467 54.3367C182.053 54.3367 181.64 54.2807 181.241 54.1756Z" fill="#231F20"/>
<path d="M186.438 54.1756C186.039 54.0635 185.71 53.9164 185.458 53.7343L185.913 52.7046C186.186 52.8727 186.466 53.0058 186.768 53.0969C187.069 53.1879 187.377 53.2299 187.678 53.2299C187.987 53.2299 188.225 53.1879 188.393 53.1039C188.554 53.0198 188.638 52.8937 188.638 52.7396C188.638 52.5995 188.561 52.4874 188.414 52.4034C188.267 52.3123 187.987 52.2212 187.573 52.1302C187.048 52.0321 186.642 51.899 186.361 51.7449C186.067 51.5978 185.864 51.4156 185.745 51.2125C185.633 51.0023 185.577 50.7572 185.577 50.463C185.577 50.1267 185.668 49.8255 185.864 49.5523C186.053 49.2791 186.319 49.0689 186.663 48.9148C187.013 48.7607 187.405 48.6907 187.853 48.6907C188.246 48.6907 188.631 48.7467 189.002 48.8518C189.381 48.9709 189.675 49.111 189.885 49.2931L189.437 50.3229C189.198 50.1477 188.939 50.0216 188.673 49.9306C188.4 49.8395 188.134 49.7975 187.867 49.7975C187.601 49.7975 187.391 49.8465 187.23 49.9446C187.069 50.0497 186.992 50.1828 186.992 50.3509C186.992 50.4419 187.02 50.519 187.076 50.582C187.132 50.6451 187.237 50.7081 187.391 50.7642C187.552 50.8272 187.783 50.8903 188.092 50.9533C188.589 51.0654 188.981 51.1915 189.268 51.3456C189.556 51.4997 189.759 51.6748 189.878 51.878C189.997 52.0881 190.053 52.3263 190.053 52.6135C190.053 53.1529 189.843 53.5662 189.43 53.8744C189.009 54.1826 188.421 54.3367 187.664 54.3367C187.251 54.3367 186.845 54.2807 186.438 54.1756Z" fill="#231F20"/>
<path d="M192.022 53.9935C191.601 53.7623 191.279 53.4331 191.055 53.0058C190.831 52.5785 190.719 52.0741 190.719 51.5067C190.719 50.9323 190.831 50.4349 191.062 50.0146C191.286 49.5873 191.608 49.2651 192.022 49.0339C192.442 48.8028 192.932 48.6907 193.493 48.6907C194.053 48.6907 194.544 48.8028 194.957 49.0339C195.37 49.2651 195.692 49.5873 195.909 50.0146C196.134 50.4349 196.246 50.9323 196.246 51.5067C196.246 52.0741 196.134 52.5785 195.909 53.0058C195.692 53.4331 195.37 53.7623 194.957 53.9935C194.544 54.2247 194.053 54.3367 193.493 54.3367C192.932 54.3367 192.442 54.2247 192.022 53.9935ZM194.459 52.7886C194.698 52.4944 194.817 52.0671 194.817 51.5067C194.817 50.9463 194.698 50.526 194.459 50.2318C194.228 49.9376 193.906 49.7975 193.493 49.7975C193.079 49.7975 192.757 49.9376 192.526 50.2318C192.295 50.519 192.176 50.9463 192.176 51.5067C192.176 52.0741 192.295 52.5014 192.526 52.7956C192.757 53.0828 193.079 53.2299 193.493 53.2299C193.906 53.2299 194.228 53.0828 194.459 52.7886Z" fill="#231F20"/>
<path d="M198.277 53.9865C197.85 53.7483 197.521 53.4191 197.296 52.9918C197.065 52.5645 196.946 52.0671 196.946 51.5067C196.946 50.9463 197.065 50.4559 197.296 50.0286C197.521 49.6013 197.85 49.2791 198.277 49.0409C198.704 48.8098 199.202 48.6907 199.776 48.6907C200.133 48.6907 200.484 48.7467 200.82 48.8518C201.163 48.9639 201.429 49.111 201.64 49.2931L201.198 50.3229C200.75 49.9936 200.288 49.8325 199.804 49.8325C199.363 49.8325 199.02 49.9726 198.781 50.2528C198.543 50.54 198.424 50.9533 198.424 51.5067C198.424 52.0601 198.543 52.4804 198.781 52.7676C199.02 53.0478 199.363 53.1949 199.804 53.1949C200.288 53.1949 200.75 53.0268 201.198 52.7046L201.64 53.7343C201.429 53.9164 201.163 54.0635 200.82 54.1756C200.484 54.2807 200.133 54.3367 199.776 54.3367C199.202 54.3367 198.704 54.2177 198.277 53.9865Z" fill="#231F20"/>
<path d="M202.396 54.2667H203.853V48.7607H202.396V54.2667Z" fill="#231F20"/>
<path d="M208.561 53.1319H206.116L205.626 54.2667H204.168L206.746 48.7607H207.895L210.473 54.2667H209.044L208.561 53.1319ZM208.084 52.0391L207.335 50.2948L206.585 52.0391" fill="#231F20"/>
<path d="M211.314 49.9376H209.674V48.7607H214.424V49.9376H212.785V54.2667H211.314" fill="#231F20"/>
<path d="M215.012 54.2667H216.462V48.7607H215.012V54.2667Z" fill="#231F20"/>
<path d="M218.606 53.9935C218.192 53.7623 217.87 53.4331 217.646 53.0058C217.422 52.5785 217.31 52.0741 217.31 51.5067C217.31 50.9323 217.422 50.4349 217.646 50.0146C217.877 49.5873 218.199 49.2651 218.613 49.0339C219.026 48.8028 219.516 48.6907 220.077 48.6907C220.637 48.6907 221.128 48.8028 221.548 49.0339C221.961 49.2651 222.276 49.5873 222.501 50.0146C222.725 50.4349 222.837 50.9323 222.837 51.5067C222.837 52.0741 222.725 52.5785 222.501 53.0058C222.276 53.4331 221.961 53.7623 221.548 53.9935C221.128 54.2247 220.637 54.3367 220.077 54.3367C219.516 54.3367 219.026 54.2247 218.606 53.9935ZM221.051 52.7886C221.282 52.4944 221.401 52.0671 221.401 51.5067C221.401 50.9463 221.282 50.526 221.051 50.2318C220.819 49.9376 220.49 49.7975 220.077 49.7975C219.664 49.7975 219.341 49.9376 219.11 50.2318C218.879 50.519 218.76 50.9463 218.76 51.5067C218.76 52.0741 218.879 52.5014 219.11 52.7956C219.341 53.0828 219.664 53.2299 220.077 53.2299C220.49 53.2299 220.819 53.0828 221.051 52.7886Z" fill="#231F20"/>
<path d="M228.616 48.7607V54.2667H227.537L225.036 51.1425V54.2667H223.684V48.7607H224.742L227.243 51.871V48.7607" fill="#231F20"/>
<path d="M200.183 19.4795C199.363 19.4795 198.543 19.7947 197.92 20.4182C196.673 21.6651 196.673 23.6965 197.92 24.9504L201.822 28.8452C201.969 29.0974 202.312 29.1325 202.508 28.9223L206.48 24.9504C207.734 23.6965 207.734 21.6651 206.48 20.4182C205.857 19.7947 205.037 19.4795 204.218 19.4795C203.503 19.4795 202.788 19.7177 202.2 20.194C201.619 19.7177 200.897 19.4795 200.183 19.4795ZM200.183 20.3481C200.778 20.3481 201.373 20.5793 201.836 21.0416L201.892 21.1047C202.067 21.2658 202.333 21.2658 202.508 21.1047L202.571 21.0416C203.489 20.117 204.946 20.117 205.871 21.0416C206.788 21.9593 206.788 23.4233 205.871 24.341L202.2 28.0116L198.529 24.341C197.612 23.4233 197.612 21.9593 198.529 21.0416C198.992 20.5793 199.587 20.3481 200.183 20.3481ZM210.62 28.7051C210.088 28.7051 209.562 28.9083 209.163 29.3076L206.648 31.8224C206.263 31.2059 205.59 30.7997 204.813 30.7997H197.85C195.966 30.7997 194.936 31.7944 194.067 32.663L192.197 34.5333L191.636 33.9659C191.552 33.8889 191.44 33.8398 191.328 33.8398C191.209 33.8398 191.097 33.8889 191.02 33.9659L188.407 36.5788C188.323 36.6559 188.281 36.768 188.281 36.887C188.281 37.0061 188.323 37.1112 188.407 37.1953L194.936 43.717C195.104 43.8921 195.377 43.8851 195.552 43.717L198.158 41.1111C198.326 40.936 198.326 40.6628 198.158 40.4946L197.598 39.9342L198.158 39.3668C198.592 38.9325 198.866 38.6243 199.594 38.6243H205.682C207.174 38.6243 208.421 37.8818 209.31 36.6068C210.326 35.1358 211.328 33.3005 212.126 32.1656C212.42 31.7383 212.617 31.248 212.638 30.7436C212.659 30.2393 212.476 29.7139 212.077 29.3076C211.678 28.9083 211.145 28.7051 210.62 28.7051ZM210.62 29.5668C210.921 29.5668 211.223 29.6859 211.461 29.924C211.692 30.1552 211.776 30.4144 211.769 30.7086C211.755 31.0098 211.629 31.3531 211.412 31.6683C210.557 32.8732 209.569 34.6945 208.596 36.1095C207.825 37.2163 206.9 37.7557 205.682 37.7557H199.594C198.578 37.7557 197.976 38.3161 197.542 38.7504L196.981 39.3178L192.813 35.1428L194.677 33.2794C195.545 32.4108 196.253 31.6683 197.85 31.6683H204.813C205.541 31.6683 206.116 32.2427 206.116 32.9712C206.116 33.6997 205.541 34.2742 204.813 34.2742H200.89C200.316 34.2742 200.316 35.1498 200.89 35.1498H204.813C206.011 35.1498 206.984 34.1691 206.984 32.9712C206.984 32.8872 206.984 32.8101 206.97 32.726L209.78 29.924C210.011 29.6859 210.319 29.5668 210.62 29.5668ZM191.328 34.8906L197.233 40.8029L195.237 42.7923L189.332 36.887" fill="#231F20"/>
<path d="M195.237 43.9834C195.09 43.9834 194.943 43.9273 194.838 43.8223L188.309 37.2935C188.204 37.1885 188.141 37.0414 188.141 36.8873C188.141 36.7331 188.197 36.586 188.309 36.481L190.922 33.8751C191.132 33.6579 191.517 33.6579 191.734 33.8751L192.197 34.3374L193.962 32.5651C194.768 31.7596 195.867 30.6598 197.85 30.6598H204.813C205.548 30.6598 206.235 31.01 206.669 31.6054L209.065 29.2097C209.478 28.7964 210.032 28.5723 210.62 28.5723C211.208 28.5723 211.762 28.7964 212.175 29.2097C212.581 29.623 212.792 30.1694 212.778 30.7508C212.757 31.2552 212.567 31.7736 212.238 32.2429C211.846 32.7963 211.412 33.5108 210.949 34.2744C210.459 35.087 209.948 35.9276 209.422 36.6841C208.483 38.0501 207.188 38.7646 205.681 38.7646H199.594C198.957 38.7646 198.711 39.0098 198.312 39.4091L197.794 39.9345L198.256 40.3968C198.361 40.5089 198.424 40.649 198.424 40.8031C198.424 40.9572 198.361 41.0973 198.256 41.2094L195.643 43.8153C195.538 43.9273 195.398 43.9834 195.244 43.9834H195.237ZM191.328 33.9802C191.244 33.9802 191.167 34.0152 191.111 34.0642L188.505 36.6771C188.449 36.7331 188.414 36.8102 188.414 36.8873C188.414 36.9643 188.449 37.0414 188.505 37.0974L195.034 43.6191C195.146 43.7382 195.335 43.7382 195.447 43.6191L198.06 41.0132C198.179 40.9012 198.179 40.712 198.06 40.5929L197.401 39.9345L198.116 39.2129C198.522 38.8066 198.845 38.4844 199.594 38.4844H205.681C207.089 38.4844 208.308 37.8119 209.191 36.53C209.709 35.7735 210.221 34.9399 210.718 34.1273C211.18 33.3637 211.615 32.6422 212.007 32.0888C212.315 31.6545 212.483 31.1921 212.497 30.7438C212.518 30.2325 212.329 29.7631 211.979 29.4059C211.615 29.0486 211.131 28.8455 210.62 28.8455C210.102 28.8455 209.618 29.0486 209.261 29.4059L206.627 32.0468L206.529 31.8927C206.151 31.2972 205.513 30.933 204.813 30.933H197.85C195.986 30.933 194.971 31.9487 194.165 32.7613L192.197 34.7297L191.538 34.0642C191.482 34.0152 191.405 33.9802 191.328 33.9802ZM195.237 42.9957L189.136 36.8873L191.328 34.6947L197.43 40.8031L195.237 42.9957ZM189.528 36.8873L195.237 42.6034L197.037 40.8031L191.328 35.087L189.528 36.8873ZM196.981 39.5142L192.617 35.15L194.634 33.1325C195.489 32.2709 196.232 31.5284 197.85 31.5284H204.813C205.618 31.5284 206.256 32.1659 206.256 32.9714C206.256 33.784 205.618 34.4145 204.813 34.4145H200.89C200.659 34.4145 200.596 34.6036 200.596 34.7157C200.596 34.8208 200.659 35.0099 200.89 35.0099H204.813C205.934 35.0099 206.844 34.0992 206.844 32.9714C206.844 32.8944 206.844 32.8243 206.837 32.7473L206.823 32.6842L209.681 29.8262C210.186 29.3218 211.047 29.3218 211.559 29.8262C211.804 30.0713 211.916 30.3585 211.902 30.7158C211.895 31.052 211.755 31.4163 211.524 31.7455C211.096 32.348 210.641 33.0975 210.158 33.8961C209.688 34.6737 209.191 35.4792 208.708 36.1938C207.902 37.3496 206.942 37.896 205.681 37.896H199.594C198.676 37.896 198.123 38.3653 197.64 38.8487L196.981 39.5142ZM193.009 35.15L196.981 39.1219L197.444 38.6595C197.836 38.2673 198.48 37.6158 199.594 37.6158H205.681C206.844 37.6158 207.734 37.1114 208.476 36.0326C208.96 35.3321 209.45 34.5266 209.92 33.749C210.41 32.9504 210.865 32.1939 211.3 31.5844C211.496 31.2972 211.615 30.982 211.629 30.7088C211.636 30.4286 211.559 30.2184 211.363 30.0223C210.956 29.616 210.277 29.623 209.877 30.0223L207.117 32.7823C207.117 32.8453 207.125 32.9084 207.125 32.9714C207.125 34.2464 206.088 35.2901 204.813 35.2901H200.89C200.519 35.2901 200.316 34.9959 200.316 34.7157C200.316 34.4285 200.519 34.1413 200.89 34.1413H204.813C205.464 34.1413 205.976 33.6229 205.976 32.9714C205.976 32.32 205.464 31.8086 204.813 31.8086H197.85C196.344 31.8086 195.671 32.4741 194.831 33.3217L193.009 35.15ZM202.193 29.2027C202.172 29.2027 202.151 29.2027 202.13 29.1957C201.948 29.1747 201.794 29.0766 201.703 28.9225L197.822 25.0487C197.191 24.4183 196.841 23.5777 196.841 22.688C196.841 21.7914 197.191 20.9508 197.822 20.3203C198.452 19.6899 199.293 19.3396 200.182 19.3396C200.911 19.3396 201.626 19.5848 202.2 20.0191C202.774 19.5848 203.489 19.3396 204.217 19.3396C205.114 19.3466 205.948 19.6899 206.578 20.3203C207.881 21.6232 207.881 23.7458 206.578 25.0487L202.606 29.0206C202.501 29.1327 202.354 29.2027 202.193 29.2027ZM200.182 19.6198C199.363 19.6198 198.592 19.942 198.018 20.5164C197.437 21.0979 197.121 21.8684 197.121 22.688C197.121 23.5006 197.437 24.2712 198.018 24.8526L201.92 28.7544C201.99 28.8595 202.067 28.9085 202.158 28.9225C202.249 28.9295 202.347 28.9015 202.41 28.8314L206.382 24.8526C207.58 23.6547 207.58 21.7143 206.382 20.5164C205.808 19.942 205.037 19.6198 204.217 19.6198C203.517 19.6198 202.83 19.865 202.291 20.3063L202.2 20.3763L202.116 20.3063C201.569 19.865 200.883 19.6198 200.182 19.6198ZM202.2 28.208L198.431 24.4393C197.962 23.9699 197.703 23.3465 197.703 22.688C197.703 22.0295 197.962 21.4131 198.431 20.9438C198.901 20.4674 199.524 20.2082 200.182 20.2082C200.834 20.2082 201.457 20.4674 201.934 20.9438L201.99 20.9998C202.109 21.1189 202.291 21.1189 202.41 20.9998L202.466 20.9438C202.935 20.4674 203.559 20.2082 204.217 20.2082C204.876 20.2082 205.492 20.4674 205.969 20.9438C206.949 21.9245 206.949 23.4586 205.969 24.4393L202.2 28.208ZM200.182 20.4884C199.601 20.4884 199.048 20.7196 198.627 21.1329C197.759 22.0085 197.759 23.3745 198.627 24.2431L202.2 27.8157L205.773 24.2431C206.641 23.3745 206.641 22.0085 205.773 21.1329C205.352 20.7196 204.799 20.4884 204.217 20.4884C203.636 20.4884 203.083 20.7196 202.662 21.1329L202.606 21.1959C202.382 21.4201 202.018 21.4201 201.794 21.1959L201.731 21.1329C201.317 20.7196 200.764 20.4884 200.182 20.4884Z" fill="#231F20"/>
</g>
<defs>
<clipPath id="clip0_47_1932">
<rect width="433" height="71" fill="white"/>
</clipPath>
</defs>
</svg>
