<svg width="350" height="62" viewBox="0 0 350 62" fill="none" xmlns="http://www.w3.org/2000/svg">
<g clip-path="url(#clip0_9_9)">
<path d="M22.8125 34.1615C21.1146 36.651 22.5573 39.9271 24.3125 41.5885C25.9062 43.099 27.1927 43.4531 27.3594 43.4948L28.1719 41.9427L30.526 48.349L23.875 49.6979L24.7604 48.0625L23.8594 47.5625C21.0625 45.7448 20.4687 43.276 20.276 42.5052C19.9427 41.1771 19.4427 37.2031 22.8125 34.1615Z" fill="#231F20"/>
<path d="M22.7812 34.2708C23.9896 37.026 27.5417 37.5573 29.8854 36.9687C31.9635 36.4427 32.9531 35.5885 33.1198 35.4323L33.1094 35.4167L32.2188 33.8802L38.9115 35.3385L36.4844 41.6562L35.5938 40.0625L34.7135 40.5365C31.6771 41.9271 29.2656 41.1094 28.5104 40.8594C27.2031 40.4323 23.5677 38.7292 22.7812 34.2708Z" fill="#231F20"/>
<path d="M34.6094 27.6094C34.1458 30.9062 32.151 32.4896 31.5312 32.9896C30.4688 33.8542 27.0677 35.9844 22.875 34.2344C25.8594 34.7083 28.224 32.026 28.9896 29.7344C29.6771 27.6875 29.474 26.3854 29.4375 26.1875L29.4115 26.1823L27.6354 26.1094L32.4688 21.2708L36.5104 26.7083L34.6875 26.6042" fill="#231F20"/>
<path fill-rule="evenodd" clip-rule="evenodd" d="M14.3177 24.8281C12.7916 24.8281 11.5521 23.5938 11.5521 22.0781C11.5521 20.5521 12.7916 19.3229 14.3177 19.3229C15.8437 19.3229 17.0833 20.5521 17.0833 22.0781C17.0833 23.5938 15.8437 24.8281 14.3177 24.8281Z" fill="#231F20"/>
<path d="M10.0417 38.2135C10.276 37.5677 10.6302 37.6094 10.6302 37.6094C10.6302 37.6094 10.9427 37.5365 11.1198 38.1927L13.7031 47.224C11.5521 46.6042 9.58333 45.5365 7.91667 44.1302L10.0417 38.2135ZM18.099 14.0833C8.11979 14.0833 0 22.1719 0 32.1146C0 42.0573 8.11979 50.1458 18.099 50.1458C18.6302 50.1458 19.1563 50.1146 19.6771 50.0677L19.7969 51.8802L23.1094 48.6875L19.401 45.8698L19.5417 47.776C19.0677 47.8177 18.5833 47.849 18.099 47.849C17.3281 47.849 16.5781 47.7917 15.8385 47.6823L15.7656 47.2031L14.0469 32.6094C13.8073 29.8542 15.3906 29.4115 16.3646 29.8229L21.849 32.0208C22.4844 32.2917 22.7812 31.7656 22.7812 31.7656C22.7812 31.7656 23.1354 31.2187 22.5052 30.8125C22.5052 30.8125 15.026 25.875 13.4323 25.5781C11.2552 25.1719 9.10417 26.9271 8.625 29.2135L5.96875 42.1771C3.68229 39.4479 2.30729 35.9427 2.30729 32.1146C2.30729 23.4427 9.39062 16.3802 18.099 16.3802C22.7448 16.3802 26.9323 18.3958 29.8229 21.5937L31.4427 19.9583C28.1354 16.349 23.375 14.0833 18.099 14.0833Z" fill="#231F20"/>
<path d="M87.1094 13.7083V14.4844C87.1094 15.125 86.7969 15.5365 86.0677 15.5365H83.9375V23.7917H81.8698V15.5365H78.7083V14.8437C78.7083 14.1198 79.0416 13.7083 79.901 13.7083" fill="#231F20"/>
<path d="M90.6093 18.8802H91.8698C93.2604 18.8802 93.802 18.2083 93.802 17.1042C93.802 15.9167 93.276 15.4687 91.901 15.4687H90.6093V18.8802ZM91.9843 13.7083C94.6979 13.7083 95.9531 14.7448 95.9531 17.1042C95.9531 18.6979 95.0416 19.625 94.0156 20.151L96.0677 23.7917H94.5312C93.9375 23.7917 93.6041 23.5937 93.3229 23.0833L92.0364 20.5625H90.6093V23.7917H88.5416V15.0104C88.5416 14.1875 89.0052 13.7083 89.8489 13.7083" fill="#231F20"/>
<path d="M98.0834 23.7917H100.146V13.7083H98.0834V23.7917Z" fill="#231F20"/>
<path d="M107.932 13.7083C108.828 13.7083 108.943 14.0208 108.943 14.5833V15.474H104.708V17.8958H108.594V18.8177C108.594 19.276 108.417 19.5417 107.839 19.5417H104.708V22.0469H109.125V22.9844C109.125 23.5781 108.781 23.7917 108.099 23.7917H102.641V13.7083" fill="#231F20"/>
<path d="M118.266 13.7083V14.4844C118.266 15.0417 118.13 15.474 117.687 16.0469L113.073 22.0469H118.417V22.6719C118.417 23.2969 118.151 23.7917 117.375 23.7917H110.526V23.1667C110.526 22.4896 110.641 22.0625 111.073 21.5052L115.719 15.474H110.677V14.8594C110.677 14.151 111.12 13.7083 111.979 13.7083" fill="#231F20"/>
<path d="M56.75 33H58.0104C59.3958 33 59.9427 32.3229 59.9427 31.2188C59.9427 30.0313 59.4167 29.5885 58.0417 29.5885H56.75V33ZM58.125 27.8229C60.8385 27.8229 62.0938 28.8646 62.0938 31.2188C62.0938 32.8177 61.1823 33.7396 60.1562 34.2708L62.2083 37.9115H60.6719C60.0729 37.9115 59.7448 37.7135 59.4635 37.2031L58.1771 34.6823H56.75V37.9115H54.6875V29.125C54.6875 28.3021 55.1458 27.8229 55.9896 27.8229" fill="#231F20"/>
<path d="M69.5313 24.0208L68.1406 25.8802C67.8281 26.276 67.3959 26.474 66.8177 26.474H66.125L67.3959 24.0208H69.5313ZM69.3802 27.8229C70.2761 27.8229 70.3906 28.1406 70.3906 28.6979V29.5885H66.1563V32.0104H70.0417V32.9323C70.0417 33.3958 69.8594 33.6562 69.2813 33.6562H66.1563V36.1615H70.5729V37.1042C70.5729 37.6979 70.224 37.9115 69.5469 37.9115H64.0886V27.8229" fill="#231F20"/>
<path d="M77.8125 27.8229C78.7031 27.8229 78.8177 28.1354 78.8177 28.6979V29.5885H74.5833V32.0104H78.4687V32.9323C78.4687 33.3958 78.2916 33.6615 77.7135 33.6615H74.5833V36.1615H79V37.1042C79 37.6927 78.651 37.9115 77.9739 37.9115H72.5208V27.8229" fill="#231F20"/>
<path d="M83.4115 31.3542L82.849 37.9115H80.6979L81.5729 28.7135C81.6927 27.5781 83.5417 27.2135 84.1406 28.3854L86.4688 33.1979L88.7709 28.3854C89.3646 27.2135 91.2656 27.5781 91.4011 28.8802L92.2396 37.9115H90.0938L89.5313 31.3542L87.5469 35.5521C87.1302 36.3594 85.7917 36.3594 85.3959 35.5365" fill="#231F20"/>
<path d="M96.5156 32.9323H97.6562C99.0781 32.9323 99.625 32.4375 99.625 31.1875C99.625 29.7865 99.0469 29.5052 97.6927 29.5052H96.5156V32.9323ZM97.8073 27.8229C100.453 27.8229 101.792 28.7448 101.792 31.1875C101.792 33.6615 100.042 34.6146 97.7917 34.6146H96.5156V37.9115H94.4531V29.125C94.4531 28.3021 94.9115 27.8229 95.7552 27.8229" fill="#231F20"/>
<path d="M109.875 36.1615V37.0729C109.875 37.6615 109.479 37.9115 108.766 37.9115H105.078C104.151 37.9115 103.724 37.4323 103.724 36.526V27.8229H105.786V36.1615" fill="#231F20"/>
<path d="M114.932 29.4062C113.359 29.4062 112.583 29.9167 112.583 32.8854C112.583 35.8333 113.359 36.3281 114.932 36.3281C116.469 36.3281 117.26 35.8333 117.26 32.8854C117.26 29.9167 116.469 29.4062 114.932 29.4062ZM114.932 38.1094C111.953 38.1094 110.432 36.6927 110.432 32.8854C110.432 29.0625 111.953 27.6302 114.932 27.6302C117.891 27.6302 119.411 29.0625 119.411 32.8854C119.411 36.6927 117.891 38.1094 114.932 38.1094Z" fill="#231F20"/>
<path d="M121.771 27.8229C122.333 27.8229 122.682 28.0417 122.896 28.4688L124.813 32.276L126.599 28.4688C126.797 28.0208 127.078 27.8229 127.625 27.8229H128.932L125.708 34.1198V37.9115H123.641V34.1198L120.349 27.8229" fill="#231F20"/>
<path d="M135.688 27.8229C136.583 27.8229 136.698 28.1354 136.698 28.6979V29.5885H132.464V32.0104H136.349V32.9323C136.349 33.3958 136.172 33.6615 135.589 33.6615H132.464V36.1615H136.88V37.1042C136.88 37.6927 136.531 37.9115 135.854 37.9115H130.396V27.8229" fill="#231F20"/>
<path d="M146.021 27.8229V28.599C146.021 29.1615 145.885 29.5885 145.443 30.1667L140.828 36.1615H146.172V36.7917C146.172 37.4167 145.906 37.9115 145.13 37.9115H138.281V37.2865C138.281 36.6094 138.396 36.1823 138.828 35.6198L143.474 29.5885H138.432V28.9792C138.432 28.2708 138.875 27.8229 139.74 27.8229" fill="#231F20"/>
<path d="M67.599 47.1146H68.8542C70.2448 47.1146 70.7865 46.4427 70.7865 45.3385C70.7865 44.151 70.2604 43.7031 68.8854 43.7031H67.599V47.1146ZM68.9688 41.9427C71.6823 41.9427 72.9375 42.9792 72.9375 45.3385C72.9375 46.9375 72.0313 47.8594 71.0052 48.3854L73.0521 52.026H71.5156C70.9219 52.026 70.5885 51.8281 70.3073 51.3177L69.0208 48.7969H67.599V52.026H65.5312V43.2448C65.5312 42.4219 65.9948 41.9427 66.8385 41.9427" fill="#231F20"/>
<path d="M80.224 41.9427C81.1198 41.9427 81.2344 42.2552 81.2344 42.8177V43.7083H77V46.1302H80.8854V47.0521C80.8854 47.5104 80.7084 47.776 80.125 47.776H77V50.2812H81.4167V51.2187C81.4167 51.8125 81.0677 52.026 80.3906 52.026H74.9323V41.9427" fill="#231F20"/>
<path d="M89.8125 43.901C89.25 43.724 88.4062 43.526 87.2812 43.526C85.6614 43.526 84.7343 44.2813 84.7343 46.9531C84.7343 49.6198 85.6979 50.4479 87.4791 50.4479C88.6354 50.4479 89.3645 50.2292 89.927 50.0469V51.1198C89.927 51.9635 88.6875 52.224 87.2187 52.224C84.4218 52.224 82.6041 50.776 82.6041 46.9531C82.6041 43.0781 84.3229 41.7448 87.3802 41.7448C88.8541 41.7448 89.8125 42.0573 89.8125 42.9792" fill="#231F20"/>
<path d="M92.1875 41.9427C92.75 41.9427 93.099 42.1562 93.3125 42.5833L95.2292 46.3906L97.0208 42.5833C97.2188 42.1406 97.5 41.9427 98.0417 41.9427H99.349L96.125 48.2396V52.026H94.0573V48.2396L90.7656 41.9427" fill="#231F20"/>
<path d="M107.479 43.901C106.917 43.724 106.073 43.526 104.953 43.526C103.328 43.526 102.401 44.2813 102.401 46.9531C102.401 49.6198 103.365 50.4479 105.146 50.4479C106.307 50.4479 107.031 50.2292 107.599 50.0469V51.1198C107.599 51.9635 106.354 52.224 104.885 52.224C102.089 52.224 100.271 50.776 100.271 46.9531C100.271 43.0781 101.99 41.7448 105.047 41.7448C106.521 41.7448 107.479 42.0573 107.479 42.9792" fill="#231F20"/>
<path d="M115.615 50.2812V51.1875C115.615 51.7812 115.214 52.026 114.505 52.026H110.818C109.891 52.026 109.458 51.5521 109.458 50.6406V41.9427H111.526V50.2812" fill="#231F20"/>
<path d="M122.307 41.9427C123.198 41.9427 123.312 42.2552 123.312 42.8177V43.7083H119.083V46.1302H122.969V47.0521C122.969 47.5104 122.786 47.776 122.208 47.776H119.083V50.2812H123.495V51.2187C123.495 51.8125 123.151 52.026 122.469 52.026H117.016V41.9427" fill="#231F20"/>
<path d="M132.635 41.9427V42.7187C132.635 43.276 132.505 43.7083 132.057 44.2812L127.443 50.2812H132.786V50.9062C132.786 51.5312 132.521 52.026 131.745 52.026H124.896V51.401C124.896 50.724 125.01 50.2969 125.443 49.7396L130.089 43.7083H125.047V43.0937C125.047 42.3854 125.495 41.9427 126.354 41.9427" fill="#231F20"/>
<path d="M264.745 37.1771H270.224V29.125H264.745V37.1771Z" fill="#231F20"/>
<path d="M236.031 23.2604H270.224V19.2292H236.031V23.2604Z" fill="#231F20"/>
<path d="M250 28.0625H256.307V24.3229H250V28.0625Z" fill="#231F20"/>
<path d="M257.375 28.0625H263.682V24.3229H257.375V28.0625Z" fill="#231F20"/>
<path d="M257.375 37.1771H263.682V29.125H257.375V37.1771Z" fill="#231F20"/>
<path d="M264.745 28.0625H270.224V24.3229H264.745V28.0625Z" fill="#231F20"/>
<path d="M252.812 48.474H251.938V49.8594H252.75C253.453 49.8594 253.729 49.6406 253.729 49.1719C253.729 48.6875 253.453 48.474 252.812 48.474Z" fill="#231F20"/>
<path d="M236.031 37.1771H256.307V29.125H236.031V37.1771Z" fill="#231F20"/>
<path d="M278.135 46.3021H277.443V48.1302H278.12C278.859 48.1302 279.151 47.7708 279.151 47.1771C279.151 46.5417 278.87 46.3021 278.135 46.3021Z" fill="#231F20"/>
<path d="M253.578 46.9219C253.578 46.4792 253.339 46.2604 252.734 46.2604H251.938V47.599H252.745C253.276 47.599 253.578 47.3646 253.578 46.9219Z" fill="#231F20"/>
<path d="M245.01 46.3021H244.323V48.1302H244.995C245.74 48.1302 246.031 47.7708 246.031 47.1771C246.031 46.5417 245.75 46.3021 245.01 46.3021Z" fill="#231F20"/>
<path d="M201.281 28.3542C201.531 28.1615 201.714 27.849 201.755 27.5C201.807 27.1458 201.714 26.7969 201.495 26.5208C201.073 25.9688 200.172 25.9896 199.568 26.3177L193.036 29.776C192.651 30.0365 192.182 30.1667 191.62 30.1667H184.495V29.1198H191.62C191.854 29.1198 192.052 29.0885 192.229 29.0208L192.479 28.8906C192.526 28.8542 192.562 28.8177 192.604 28.7813C192.964 28.4115 192.948 27.8229 192.948 27.8177C192.927 27.0573 192.318 26.474 191.562 26.474H177.578C177.589 26.5677 177.604 26.6615 177.604 26.7604V34.3646L179.729 33.8854C179.771 33.875 179.807 33.8698 179.849 33.8698C179.891 33.8698 179.932 33.875 179.974 33.8854L189.479 36.2292" fill="#231F20"/>
<path d="M194.042 18.8333C194.76 16.849 194.703 15.1146 193.875 13.9323C193.25 13.0469 192.187 12.5156 191.036 12.5156C188.807 12.5156 187.589 15.8229 187.578 15.8594C187.505 16.0625 187.307 16.2031 187.083 16.2031C186.865 16.2031 186.661 16.0625 186.589 15.8594C186.578 15.8229 185.365 12.5156 183.13 12.5156C181.979 12.5156 180.922 13.0469 180.292 13.9323C179.469 15.1146 179.406 16.849 180.13 18.8333C181.208 21.8021 184.125 24.2031 185.859 25.4219H188.307C190.042 24.2083 192.958 21.8073 194.042 18.8333Z" fill="#231F20"/>
<path d="M177.354 45.9583C176.51 45.9583 176.094 46.2292 176.094 47.8177C176.094 49.401 176.51 49.6615 177.354 49.6615C178.177 49.6615 178.604 49.401 178.604 47.8177C178.604 46.2292 178.177 45.9583 177.354 45.9583Z" fill="#231F20"/>
<path d="M176.292 26.0938C176.104 25.8802 175.839 25.7344 175.526 25.7344H175.026C174.453 25.7344 173.995 26.1979 173.995 26.7604V34.5C173.995 35.0677 174.453 35.526 175.026 35.526H175.526C175.88 35.526 176.182 35.3333 176.365 35.0625" fill="#231F20"/>
<path d="M69.6146 5.16666C69.6146 4.53645 69.3333 4.30208 68.5989 4.30208H67.9114V6.11979H68.5833C69.3229 6.11979 69.6146 5.76041 69.6146 5.16666Z" fill="#231F20"/>
<path d="M163.193 45.9583C162.417 45.9583 162.151 46.3073 162.151 46.9948V47.8125H164.234V46.9948C164.234 46.3073 163.974 45.9583 163.193 45.9583Z" fill="#231F20"/>
<path d="M189.901 45.9583C189.12 45.9583 188.854 46.3073 188.854 46.9948V47.8125H190.937V46.9948C190.937 46.3073 190.677 45.9583 189.901 45.9583Z" fill="#231F20"/>
<path d="M236.031 28.0625H241.557V24.3229H236.031V28.0625Z" fill="#231F20"/>
<path d="M242.625 28.0625H248.932V24.3229H242.625V28.0625Z" fill="#231F20"/>
<path d="M228.151 46.3021H227.318V49.8281H227.984C229.089 49.8281 229.49 49.276 229.49 48.0052C229.49 46.6458 229 46.3021 228.151 46.3021Z" fill="#231F20"/>
<path d="M215.125 25.875C213.932 25.875 213.297 26.2812 213.297 28.4479C213.297 30.6094 213.932 31.0052 215.125 31.0052C216.302 31.0052 216.938 30.6094 216.938 28.4479C216.938 26.2812 216.302 25.875 215.125 25.875Z" fill="#231F20"/>
<path d="M202.344 45.9583C201.505 45.9583 201.089 46.2292 201.089 47.8177C201.089 49.401 201.505 49.6615 202.344 49.6615C203.172 49.6615 203.594 49.401 203.594 47.8177C203.594 46.2292 203.172 45.9583 202.344 45.9583Z" fill="#231F20"/>
<path d="M285.089 25.875C283.896 25.875 283.26 26.2812 283.26 28.4479C283.26 30.6094 283.896 31.0052 285.089 31.0052C286.266 31.0052 286.901 30.6094 286.901 28.4479C286.901 26.2812 286.266 25.875 285.089 25.875Z" fill="#231F20"/>
<path d="M319.104 34.1354V26.6927C319.021 26.7188 318.948 26.7656 318.859 26.7812C318.771 26.7917 318.687 26.7969 318.604 26.7969C318.354 26.7969 318.115 26.7292 317.885 26.625L316.833 27.6771V34.1354C316.833 34.4271 316.599 34.6615 316.307 34.6615H315.651L317.969 36.9688L320.286 34.6615H319.635C319.344 34.6615 319.104 34.4271 319.104 34.1354Z" fill="#231F20"/>
<path d="M322.531 22.125C323.167 21.9583 325.302 21.1615 326.422 20.4844C327.37 19.9115 327.844 18.5573 327.859 17.4375L327.125 16.7031L324.786 14.3802L317.786 16.5521C317.276 16.724 316.932 17.0052 316.771 17.375C316.635 17.6771 315.182 21.1042 315.182 21.1042C315.031 21.4896 315.016 21.7969 315.135 22.0156C315.245 22.2031 315.422 22.4896 315.573 22.7396L316.552 21.7656C316.542 21.4219 316.562 20.8281 316.75 20.4167L316.859 20.1615C317.068 19.6615 317.354 18.9792 317.964 18.7604C318.437 18.5885 319.286 18.3177 319.286 18.3177C319.339 18.3021 319.391 18.2969 319.448 18.2969C319.562 18.2969 319.677 18.3333 319.771 18.4115C319.911 18.5156 319.984 18.6875 319.974 18.8646C319.948 19.1875 319.943 19.8125 320.042 20.1094C320.172 20.5 320.375 20.7396 320.375 20.7448C320.583 20.9271 320.599 21.2135 320.432 21.4323L318.047 24.6302C317.932 24.776 317.885 24.9583 317.911 25.1458C317.937 25.3281 318.036 25.4948 318.187 25.6042C318.333 25.7135 318.516 25.7552 318.703 25.7396C318.891 25.7135 319.052 25.6146 319.167 25.4635L320.656 23.4687C321.417 22.4687 322.281 22.1875 322.531 22.125Z" fill="#231F20"/>
<path d="M322.984 25.0052C322.995 25.3073 323.266 25.5781 323.552 25.5312C323.698 25.526 323.833 25.4635 323.932 25.3594C324.031 25.2552 324.083 25.1146 324.078 24.9687L323.995 22.7396C323.562 22.901 323.193 23.026 322.922 23.1042" fill="#231F20"/>
<path d="M316.865 25.2917C316.802 24.8333 316.917 24.3698 317.198 23.9948L318.469 22.2969L317.995 21.8229L309.427 30.3646C309.219 30.5625 308.885 30.5625 308.682 30.3646L308.219 29.901V33.1615L311.495 33.1667L311.036 32.7083C310.937 32.6094 310.88 32.474 310.88 32.3333C310.88 32.1979 310.937 32.0625 311.036 31.9635L317.089 25.9323C316.974 25.7344 316.896 25.5208 316.865 25.2917Z" fill="#231F20"/>
<mask id="mask0_9_9" style="mask-type:luminance" maskUnits="userSpaceOnUse" x="46" y="0" width="304" height="62">
<path d="M46.6667 0H349.984V61.3333H46.6667V0Z" fill="white"/>
</mask>
<g mask="url(#mask0_9_9)">
<path d="M340.885 50.2031C340.885 50.5208 340.698 50.6354 340.333 50.6354H337.411V45.2292H340.245C340.724 45.2292 340.786 45.401 340.786 45.6979V46.1771H338.516V47.474H340.599V47.9687C340.599 48.2187 340.505 48.3542 340.193 48.3542H338.516V49.6979H340.885V50.2031ZM336.068 50.6354H334.964V45.2292H336.068V50.6354ZM333.052 50.6354C332.734 50.6354 332.563 50.5312 332.406 50.2552L331.719 48.9062H330.953V50.6354H329.849V45.9323C329.849 45.4896 330.094 45.2292 330.547 45.2292H331.693C333.141 45.2292 333.818 45.7865 333.818 47.0521C333.818 47.9062 333.328 48.401 332.781 48.6823L333.88 50.6354H333.052ZM328.818 33.6979C328.818 33.9896 328.583 34.224 328.292 34.224L323.214 34.2292C322.995 34.2292 322.807 34.1042 322.724 33.9062C322.641 33.7083 322.688 33.4792 322.839 33.3333L323.828 32.3385L320.161 28.6823V33.6094H321.563C321.781 33.6094 321.974 33.7344 322.052 33.9375C322.135 34.1302 322.089 34.3594 321.938 34.5104L318.339 38.0833C318.24 38.1875 318.104 38.2396 317.969 38.2396C317.833 38.2396 317.698 38.1875 317.594 38.0833L314 34.5104C313.849 34.3594 313.802 34.1302 313.885 33.9375C313.964 33.7344 314.156 33.6094 314.37 33.6094H315.776V28.7292L312.156 32.3333L313.146 33.3229C313.297 33.4687 313.344 33.6979 313.26 33.8958C313.177 34.0937 312.984 34.2187 312.771 34.2187L307.693 34.2135C307.401 34.2135 307.161 33.9792 307.161 33.6875V28.625C307.161 28.4115 307.286 28.224 307.484 28.1406C307.682 28.0573 307.911 28.1094 308.063 28.2552L309.052 29.2448L314.807 23.5052C314.625 23.2083 314.365 22.7969 314.219 22.5312C313.927 22.026 313.927 21.4115 314.203 20.7083C314.208 20.6927 315.672 17.2552 315.802 16.9531C316.083 16.3125 316.656 15.8229 317.458 15.5521L324.135 13.4792C323.849 12.7448 323.995 11.8802 324.589 11.2917L325.01 10.8698C325.807 10.0781 327.109 10.0781 327.911 10.8698L332.005 14.9531C332.391 15.3385 332.604 15.849 332.604 16.3958C332.604 16.9375 332.391 17.4531 332.005 17.8385L331.583 18.2604C331.193 18.6458 330.682 18.8542 330.13 18.8542C329.641 18.8542 329.193 18.6667 328.823 18.349C328.615 19.5208 328.026 20.7448 326.969 21.3854C326.448 21.7031 325.74 22.0365 325.036 22.3281L325.135 24.9375C325.151 25.3594 324.995 25.7656 324.703 26.0781C324.542 26.25 324.344 26.3698 324.13 26.4583L326.932 29.25L327.922 28.2604C328.073 28.1146 328.307 28.0625 328.5 28.151C328.698 28.2292 328.823 28.4219 328.823 28.6354L328.818 33.6979ZM328.729 50.2031C328.729 50.5208 328.542 50.6354 328.177 50.6354H325.255V45.2292H328.089C328.568 45.2292 328.63 45.401 328.63 45.6979V46.1771H326.365V47.474H328.448V47.9687C328.448 48.2187 328.349 48.3542 328.036 48.3542H326.365V49.6979H328.729V50.2031ZM324.552 45.6458C324.552 45.9896 324.385 46.2135 323.995 46.2135H322.849V50.6354H321.745V46.2135H320.052V45.8437C320.052 45.4531 320.229 45.2292 320.688 45.2292H324.552V45.6458ZM316.557 43.1927H317.708L318.396 44.5104H318.026C317.76 44.5104 317.531 44.4375 317.391 44.2604L316.557 43.1927ZM319.573 50.2031C319.573 50.5208 319.385 50.6354 319.021 50.6354H316.099V45.2292H318.932C319.411 45.2292 319.474 45.401 319.474 45.6979V46.1771H317.203V47.474H319.286V47.9687C319.286 48.2187 319.193 48.3542 318.88 48.3542H317.203V49.6979H319.573V50.2031ZM314.75 50.6354H313.641V48.3958H311.292V50.6354H310.182V45.2292H310.839C311.203 45.2292 311.292 45.3802 311.292 45.7292V47.4583H313.641V45.7292C313.641 45.3802 313.755 45.2292 314.109 45.2292H314.75V50.6354ZM309.182 50.151C309.182 50.599 308.516 50.7396 307.729 50.7396C306.229 50.7396 305.255 49.9635 305.255 47.9167C305.255 45.8437 306.177 45.125 307.813 45.125C308.604 45.125 309.12 45.2917 309.12 45.7865V46.2812C308.818 46.1823 308.365 46.0781 307.76 46.0781C306.896 46.0781 306.396 46.4844 306.396 47.9167C306.396 49.3437 306.911 49.7865 307.87 49.7865C308.49 49.7865 308.88 49.6719 309.182 49.5729V50.151ZM304.615 50.2031C304.615 50.5208 304.427 50.6354 304.063 50.6354H301.141V45.2292H303.974C304.453 45.2292 304.516 45.401 304.516 45.6979V46.1771H302.25V47.474H304.328V47.9687C304.328 48.2187 304.234 48.3542 303.922 48.3542H302.25V49.6979H304.615V50.2031ZM297.495 50.6354H296.438C295.948 50.6354 295.724 50.3802 295.724 49.9115V45.2292H297.693C299.25 45.2292 300.151 46.026 300.151 47.8646C300.151 49.5677 299.552 50.6354 297.495 50.6354ZM293.615 29.349C293.615 30.6354 292.974 31.5885 291.286 31.5885C289.594 31.5885 288.948 30.6354 288.948 29.349V25.4062H289.307C289.531 25.4062 289.625 25.5156 289.625 25.7812V29.3385C289.625 30.2708 290.031 31.0052 291.286 31.0052C292.536 31.0052 292.932 30.2708 292.932 29.3385V25.7812C292.932 25.5156 293.031 25.4062 293.26 25.4062H293.615V29.349ZM285.089 31.5885C283.469 31.5885 282.552 30.9479 282.552 28.4479C282.552 25.9323 283.469 25.2865 285.089 25.2865C286.698 25.2865 287.604 25.9323 287.604 28.4479C287.604 30.9479 286.698 31.5885 285.089 31.5885ZM279.542 50.7604C279.224 50.7604 279.047 50.6562 278.896 50.3802L278.203 49.0312H277.443V50.7604H276.339V46.0573C276.339 45.6146 276.583 45.3594 277.036 45.3594H278.177C279.63 45.3594 280.307 45.9115 280.307 47.1771C280.307 48.0365 279.818 48.526 279.271 48.8125L280.365 50.7604H279.542ZM275.01 48.8802C275.01 50.0729 274.427 50.8698 272.786 50.8698C271.177 50.8698 270.589 50.0729 270.589 48.8802V45.3594H271.245C271.609 45.3594 271.698 45.5104 271.698 45.8542V48.8281C271.698 49.5104 272.016 49.9115 272.786 49.9115C273.583 49.9115 273.896 49.5104 273.896 48.8281V45.8542C273.896 45.5104 273.995 45.3594 274.349 45.3594H275.01V48.8802ZM269.589 50.3281C269.589 50.6458 269.401 50.7604 269.036 50.7604H266.115V45.3594H268.948C269.427 45.3594 269.49 45.526 269.49 45.8281V46.3021H267.219V47.599H269.302V48.0937C269.302 48.3437 269.203 48.4844 268.896 48.4844H267.219V49.8281H269.589V50.3281ZM265.411 45.776C265.411 46.1198 265.245 46.3385 264.854 46.3385H263.708V50.7604H262.604V46.3385H260.911V45.9687C260.911 45.5781 261.089 45.3594 261.547 45.3594H265.411V45.776ZM260.224 48.8802C260.224 50.0729 259.641 50.8698 258 50.8698C256.385 50.8698 255.802 50.0729 255.802 48.8802V45.3594H256.458C256.823 45.3594 256.911 45.5104 256.911 45.8542V48.8281C256.911 49.5104 257.229 49.9115 258 49.9115C258.797 49.9115 259.109 49.5104 259.109 48.8281V45.8542C259.109 45.5104 259.203 45.3594 259.563 45.3594H260.224V48.8802ZM252.719 50.7604H251.521C251.052 50.7604 250.828 50.5052 250.828 50.0573V45.3594H252.672C253.932 45.3594 254.719 45.7292 254.719 46.7552C254.719 47.4531 254.38 47.7396 253.849 47.9271C254.349 48.0625 254.906 48.401 254.906 49.1719C254.906 50.3281 254.073 50.7604 252.719 50.7604ZM249.438 50.7604H248.328V45.3594H249.438V50.7604ZM246.422 50.7604C246.104 50.7604 245.922 50.6562 245.776 50.3802L245.083 49.0312H244.318V50.7604H243.214V46.0573C243.214 45.6146 243.464 45.3594 243.917 45.3594H245.057C246.51 45.3594 247.182 45.9115 247.182 47.1771C247.182 48.0365 246.693 48.526 246.146 48.8125L247.245 50.7604H246.422ZM242.438 45.776C242.438 46.1198 242.271 46.3385 241.88 46.3385H240.74V50.7604H239.63V46.3385H237.938V45.9687C237.938 45.5781 238.12 45.3594 238.578 45.3594H242.438V45.776ZM235.49 50.8698C234.224 50.8698 233.88 50.5156 233.88 50.1198V49.6302C234.297 49.7656 234.885 49.9115 235.547 49.9115C236.042 49.9115 236.333 49.7031 236.333 49.3333C236.333 48.5 233.823 48.6354 233.823 46.9375C233.823 45.8073 234.693 45.2552 235.932 45.2552C236.672 45.2552 237.271 45.401 237.271 45.9427V46.4062C237.052 46.3385 236.563 46.2083 236.021 46.2083C235.396 46.2083 235.057 46.3906 235.057 46.8229C235.057 47.6979 237.563 47.6094 237.563 49.2448C237.563 50.2292 236.766 50.8698 235.49 50.8698ZM233.281 37.1771H234.964V18.6979C234.964 18.401 235.198 18.1667 235.495 18.1667H270.755C271.052 18.1667 271.292 18.401 271.292 18.6979V37.1771H272.974V38.2396H233.281V37.1771ZM232.797 50.7604H231.688V45.3594H232.797V50.7604ZM227.974 50.7604H226.917C226.422 50.7604 226.198 50.5052 226.198 50.0365V45.3594H228.167C229.729 45.3594 230.63 46.151 230.63 47.9896C230.63 49.6927 230.026 50.7604 227.974 50.7604ZM223.646 29.349C223.646 30.6354 223.01 31.5885 221.318 31.5885C219.63 31.5885 218.984 30.6354 218.984 29.349V25.4062H219.339C219.568 25.4062 219.661 25.5156 219.661 25.7812V29.3385C219.661 30.2708 220.068 31.0052 221.318 31.0052C222.573 31.0052 222.969 30.2708 222.969 29.3385V25.7812C222.969 25.5156 223.068 25.4062 223.297 25.4062H223.646V29.349ZM215.125 31.5885C213.505 31.5885 212.589 30.9479 212.589 28.4479C212.589 25.9323 213.505 25.2865 215.125 25.2865C216.734 25.2865 217.641 25.9323 217.641 28.4479C217.641 30.9479 216.734 31.5885 215.125 31.5885ZM210.281 49.849C210.281 50.7344 209.323 50.8021 208.958 50.2812L206.901 47.2083V50.5104H205.797V45.7083C205.797 44.8802 206.693 44.8594 206.99 45.3125L209.172 48.5885V45.6042C209.172 45.2604 209.286 45.1094 209.641 45.1094H210.281V49.849ZM202.344 50.6198C200.75 50.6198 199.938 49.8594 199.938 47.8177C199.938 45.7708 200.75 45.0052 202.344 45.0052C203.932 45.0052 204.75 45.7708 204.75 47.8177C204.75 49.8594 203.932 50.6198 202.344 50.6198ZM198.885 50.5104H197.781V45.1094H198.885V50.5104ZM197.005 45.5208C197.005 45.8698 196.839 46.0885 196.453 46.0885H195.307V50.5104H194.198V46.0885H192.505V45.7187C192.505 45.3281 192.682 45.1094 193.146 45.1094H197.005V45.5208ZM192.052 50.5104H190.938V48.7187H188.854V50.5104H187.771V47.0052C187.771 45.8125 188.276 45.0052 189.896 45.0052C191.526 45.0052 192.052 45.8125 192.052 47.0052V50.5104ZM186.531 50.5104H185.422V45.1094H186.531V50.5104ZM184.417 50.026C184.417 50.4792 183.755 50.6198 182.964 50.6198C181.469 50.6198 180.495 49.8437 180.495 47.7917C180.495 45.7187 181.417 45.0052 183.052 45.0052C183.844 45.0052 184.359 45.1719 184.359 45.6667V46.1615C184.052 46.0625 183.604 45.9531 183 45.9531C182.13 45.9531 181.635 46.3594 181.635 47.7917C181.635 49.224 182.151 49.6667 183.104 49.6667C183.729 49.6667 184.12 49.5521 184.417 49.4531V50.026ZM177.339 35.5C176.984 36.1354 176.307 36.5729 175.526 36.5729H175.026C173.875 36.5729 172.943 35.6458 172.943 34.5V26.7604C172.943 25.6198 173.875 24.6875 175.026 24.6875H175.526C176.161 24.6875 176.719 24.9792 177.104 25.4271H184.12C182.328 24 180.099 21.8229 179.141 19.1927C178.302 16.8802 178.406 14.8021 179.438 13.3333C180.255 12.1667 181.641 11.4687 183.13 11.4687C185.141 11.4687 186.438 13.2292 187.083 14.4271C187.734 13.2292 189.031 11.4687 191.036 11.4687C192.531 11.4687 193.917 12.1667 194.734 13.3333C195.766 14.8021 195.87 16.8802 195.026 19.1927C194.068 21.8281 191.839 24.0052 190.052 25.4271H191.563C192.885 25.4271 193.958 26.4583 193.995 27.7812C194 27.8125 194.005 27.9271 193.984 28.0937L199.068 25.401C200.047 24.8594 201.526 24.8437 202.328 25.8802C202.714 26.3802 202.885 27.0052 202.797 27.6354C202.719 28.2656 202.396 28.8229 201.896 29.2031L189.87 37.2292C189.781 37.2865 189.682 37.3177 189.578 37.3177C189.536 37.3177 189.495 37.3125 189.453 37.3021L179.844 34.9323L177.339 35.5ZM177.354 50.6198C175.76 50.6198 174.943 49.8594 174.943 47.8177C174.943 45.7708 175.76 45.0052 177.354 45.0052C178.938 45.0052 179.755 45.7708 179.755 47.8177C179.755 49.8594 178.938 50.6198 177.354 50.6198ZM172.141 50.6198C170.875 50.6198 170.526 50.2656 170.526 49.8698V49.3802C170.948 49.5156 171.536 49.6667 172.193 49.6667C172.693 49.6667 172.984 49.4531 172.984 49.0781C172.984 48.25 170.474 48.3854 170.474 46.6875C170.474 45.5573 171.344 45.0052 172.583 45.0052C173.318 45.0052 173.922 45.151 173.922 45.6875V46.1615C173.698 46.0885 173.214 45.9531 172.672 45.9531C172.042 45.9531 171.708 46.1406 171.708 46.5729C171.708 47.4479 174.214 47.3594 174.214 48.9948C174.214 49.9844 173.417 50.6198 172.141 50.6198ZM167.875 50.6198C166.609 50.6198 166.266 50.2656 166.266 49.8698V49.3802C166.682 49.5156 167.271 49.6667 167.927 49.6667C168.427 49.6667 168.719 49.4531 168.719 49.0781C168.719 48.25 166.214 48.3854 166.214 46.6875C166.214 45.5573 167.078 45.0052 168.318 45.0052C169.052 45.0052 169.656 45.151 169.656 45.6875V46.1615C169.438 46.0885 168.948 45.9531 168.406 45.9531C167.781 45.9531 167.443 46.1406 167.443 46.5729C167.443 47.4479 169.953 47.3594 169.953 48.9948C169.953 49.9844 169.151 50.6198 167.875 50.6198ZM165.349 50.5104H164.234V48.7187H162.151V50.5104H161.068V47.0052C161.068 45.8125 161.573 45.0052 163.193 45.0052C164.828 45.0052 165.349 45.8125 165.349 47.0052V50.5104ZM139.974 58.6302H66.2448C56.8229 58.6302 49.1563 50.724 49.1563 41.0156V6.92187H57.5261C58.1823 10.401 61.9219 11.6198 66.4844 11.6198C71.0417 11.6198 74.7865 10.401 75.4427 6.92187H140.453L154.62 33.4427L139.974 58.6302ZM62.3906 3.35937H65.1719C65.6459 3.35937 65.7188 3.52604 65.7188 3.82291V4.30208H63.4948V5.6875H65.5417V6.24479C65.5417 6.48958 65.4375 6.6302 65.1354 6.6302H63.4948V8.73958H62.3906V3.35937ZM66.8073 4.05208C66.8073 3.60937 67.0573 3.35937 67.5052 3.35937H68.6459C70.0938 3.35937 70.7656 3.91145 70.7656 5.16666C70.7656 6.02083 70.2761 6.51562 69.7292 6.79687L70.8281 8.73958H70.0052C69.6875 8.73958 69.5104 8.63541 69.3594 8.36458L68.6719 7.01562H67.9115V8.73958H66.8073V4.05208ZM302.911 43.1927H304.052L303.313 44.1875C303.141 44.401 302.911 44.5104 302.604 44.5104H302.229L302.911 43.1927ZM330.672 4.70833H75.4427C74.7709 1.29687 71.0365 0.00520325 66.4844 0.00520325C61.9063 0.00520325 58.1563 1.08333 57.5209 4.70833H46.9323V41.0156C46.9323 51.9479 55.599 60.8437 66.2448 60.8437H349.984V24.5365C349.984 13.599 341.318 4.70833 330.672 4.70833Z" fill="#231F20"/>
</g>
<path d="M328.755 16.8385C328.755 16.8385 328.755 16.8385 328.755 16.8437L329.432 17.5156C329.807 17.8906 330.458 17.8854 330.833 17.5156L331.255 17.0937C331.443 16.9115 331.547 16.6562 331.547 16.3958C331.547 16.1302 331.443 15.8802 331.255 15.6979L327.161 11.6146C326.771 11.2292 326.141 11.2292 325.755 11.6146L325.339 12.0365C324.953 12.4167 324.953 13.0417 325.333 13.4323" fill="#231F20"/>
<path d="M331.646 46.1771H330.958V48.0052H331.63C332.375 48.0052 332.667 47.6406 332.667 47.0521C332.667 46.4167 332.38 46.1771 331.646 46.1771Z" fill="#231F20"/>
<path d="M326.557 30.3646L320.979 24.8021L320.161 25.8958V27.1927L324.953 31.9635C325.156 32.1719 325.156 32.5052 324.953 32.7083L324.484 33.1719H327.76L327.766 29.9062L327.307 30.3646C327.099 30.5677 326.766 30.5677 326.557 30.3646Z" fill="#231F20"/>
<path d="M318.365 20.7083L319.104 21.4427L319.354 21.1146C319.245 20.9427 319.13 20.7187 319.036 20.4427C318.953 20.1823 318.917 19.849 318.906 19.5521C318.698 19.6198 318.484 19.6927 318.318 19.7552C318.151 19.8125 317.943 20.3021 317.833 20.5677L317.807 20.6302C317.995 20.5573 318.213 20.5573 318.365 20.7083Z" fill="#231F20"/>
<path d="M297.672 46.1771H296.839V49.6979H297.505C298.615 49.6979 299.01 49.151 299.01 47.8802C299.01 46.5208 298.526 46.1771 297.672 46.1771Z" fill="#231F20"/>
</g>
<defs>
<clipPath id="clip0_9_9">
<rect width="350" height="61.3333" fill="white"/>
</clipPath>
</defs>
</svg>
