<svg width="227" height="62" viewBox="0 0 227 62" fill="none" xmlns="http://www.w3.org/2000/svg">
<g clip-path="url(#clip0_22_1144)">
<path d="M24.8542 61.9479C11.2344 61.9479 0.15625 50.9948 0.15625 37.5364V0.135376H201.323C214.938 0.135376 226.016 11.0833 226.016 24.5416V61.9479" fill="white"/>
<path d="M24.8542 60.6093C11.2344 60.6093 0.15625 49.6562 0.15625 36.1979V0.135376H201.323C214.938 0.135376 226.016 11.0833 226.016 24.5416V60.6093" fill="white"/>
<path d="M201.323 5.80725H50.2708V36.1979C50.2708 46.5312 58.802 54.9375 69.2916 54.9375H220.349V24.5416C220.349 14.2083 211.812 5.80725 201.323 5.80725Z" fill="white"/>
<path d="M218.458 53.0468H69.2916C59.8437 53.0468 52.1562 45.4895 52.1562 36.2031V7.69267H201.323C210.771 7.69267 218.458 15.2552 218.458 24.5416V53.0468ZM201.323 5.80725H50.2708V36.1979C50.2708 46.5312 58.802 54.9375 69.2916 54.9375H220.349V24.5416C220.349 14.2083 211.812 5.80725 201.323 5.80725Z" fill="#008A31"/>
<path d="M103.057 5.80725H50.2708V36.1979C50.2708 46.5312 58.802 54.9375 69.2916 54.9375H122.083V24.5416C122.083 14.2083 113.547 5.80725 103.057 5.80725Z" fill="#008A31"/>
<path d="M56.3281 26.651V17.25H58.8177V24.5677H62.375V26.651" fill="white"/>
<path d="M63.4895 26.651V17.25H69.5624V19.3333H65.9739V20.8073H69.0416V22.8906H65.9739V24.5677H69.7083V26.651" fill="white"/>
<path d="M75.6354 26.651V19.3333H73.151V17.25H80.6145V19.3333H78.125V26.651" fill="white"/>
<path d="M84.099 21.5313H84.9948C85.9948 21.5313 86.5 21.1198 86.5 20.2865C86.5 19.8854 86.3698 19.6042 86.1146 19.4479C85.8594 19.2969 85.4844 19.2188 84.9948 19.2188H84.099V21.5313ZM81.6094 26.651V17.25H85.1667C85.6719 17.25 86.151 17.3021 86.6094 17.3958C87.0677 17.4896 87.4635 17.6563 87.8073 17.8854C88.151 18.1198 88.4219 18.4271 88.625 18.8177C88.8281 19.2083 88.9271 19.6979 88.9271 20.2865C88.9271 20.9635 88.7917 21.5208 88.5156 21.9635C88.2448 22.4115 87.875 22.7552 87.4115 23.0052L89.4479 26.651H86.6719L85.0521 23.5H84.099V26.651" fill="white"/>
<path d="M90.4166 26.651H92.9062V17.25H90.4166V26.651Z" fill="white"/>
<path d="M75.927 43.3281V33.9271H82.0572V36.0104H78.4166V37.8021H81.5364V39.8854H78.4166V43.3281" fill="white"/>
<path d="M85.4635 38.7604L85.3072 39.4114H87.0416L86.8801 38.7604C86.7655 38.3073 86.651 37.8125 86.5364 37.2864C86.4218 36.7552 86.302 36.25 86.1874 35.7812H86.1301C86.026 36.2604 85.9166 36.7656 85.8072 37.2916C85.6926 37.8125 85.5833 38.3073 85.4635 38.7604ZM81.8489 43.3281L84.7135 33.9271H87.7187L90.5833 43.3281H87.953L87.4895 41.3333H84.8593L84.3958 43.3281" fill="white"/>
<path d="M95.1145 43.5052C94.5155 43.5052 93.9426 43.4062 93.401 43.2083C92.8541 43.0104 92.3749 42.7083 91.9687 42.3073C91.5572 41.9114 91.2291 41.4062 90.9895 40.8073C90.7499 40.2031 90.6301 39.5 90.6301 38.6979C90.6301 37.9114 90.7551 37.2083 91.0051 36.5937C91.2551 35.9844 91.5885 35.4687 92.0103 35.0469C92.427 34.6302 92.9114 34.3073 93.4583 34.0885C93.9999 33.8646 94.5728 33.7552 95.1718 33.7552C95.7968 33.7552 96.3593 33.875 96.8489 34.125C97.3385 34.3698 97.7551 34.6614 98.0937 35L96.7916 36.5885C96.5572 36.3854 96.3176 36.2187 96.0728 36.0885C95.828 35.9583 95.5468 35.8958 95.2291 35.8958C94.9478 35.8958 94.6874 35.9583 94.4374 36.0833C94.1926 36.2083 93.9791 36.3854 93.7916 36.6198C93.5989 36.8489 93.453 37.1354 93.3437 37.4739C93.2291 37.8073 93.177 38.1927 93.177 38.6146C93.177 39.5 93.3593 40.1823 93.7343 40.651C94.1041 41.125 94.5937 41.3646 95.1978 41.3646C95.5676 41.3646 95.8905 41.2812 96.177 41.125C96.4583 40.9635 96.703 40.776 96.9062 40.5521L98.2083 42.1146C97.802 42.5781 97.3385 42.9219 96.8124 43.1562C96.2864 43.3854 95.7187 43.5052 95.1145 43.5052Z" fill="white"/>
<path d="M99.1614 43.3281H101.651V33.9271H99.1614V43.3281Z" fill="white"/>
<path d="M103.422 43.3281V33.9271H105.911V41.2448H109.469V43.3281" fill="white"/>
<path d="M110.578 43.3281V33.9271H116.656V36.0104H113.068V37.4844H116.135V39.5677H113.068V41.2448H116.802V43.3281" fill="white"/>
<path d="M69.8697 39.526H65.6197V43.776H62.7812V39.526H58.5312V36.6875H62.7812V32.4375H65.6197V36.6875H69.8697V39.526ZM64.1978 29.4114C59.3958 29.4114 55.5051 33.3073 55.5051 38.1041C55.5051 42.9062 59.3958 46.8021 64.1978 46.8021C69.0051 46.8021 72.8958 42.9062 72.8958 38.1041C72.8958 33.3073 69.0051 29.4114 64.1978 29.4114Z" fill="white"/>
<path d="M163.089 54.9375L176.104 28.3593L162.807 5.80725H201.323C211.812 5.80725 220.349 14.2135 220.349 24.5416V54.9375" fill="#008A31"/>
<path d="M201.323 7.69788H166.115L178.245 28.2812L166.12 53.052H218.458V24.5416C218.458 15.2552 210.771 7.69788 201.323 7.69788Z" fill="#008A31"/>
<path d="M192.682 25.1927H196.307V26.2552H195.083V32.6562H193.906V26.2552H192.682" fill="white"/>
<path d="M198.208 26.2552V28.5521H198.667C199.104 28.5521 199.37 28.3594 199.37 27.7604V27.026C199.37 26.4896 199.187 26.2552 198.771 26.2552H198.208ZM199.484 32.6562C199.422 32.4635 199.38 32.3437 199.38 31.7396V30.5625C199.38 29.8698 199.146 29.6146 198.615 29.6146H198.208V32.6562H197.036V25.1927H198.802C200.021 25.1927 200.542 25.7552 200.542 26.9062V27.4948C200.542 28.2604 200.297 28.75 199.776 28.9948V29.0208C200.359 29.2656 200.552 29.8177 200.552 30.5989V31.75C200.552 32.1094 200.562 32.375 200.682 32.6562" fill="white"/>
<path d="M201.536 32.6562H202.708V25.1927H201.536V32.6562Z" fill="white"/>
<path d="M189.266 40.4062H189.292L190.177 34.3177H191.25L190.099 41.7812H188.354L187.198 34.3177H188.385" fill="white"/>
<path d="M193.182 37.4635H194.792V38.526H193.182V40.7135H195.208V41.7812H192.01V34.3177H195.208V35.3802H193.182" fill="white"/>
<path d="M197.323 35.3802V37.6771H197.781C198.219 37.6771 198.484 37.4844 198.484 36.8854V36.151C198.484 35.6198 198.302 35.3802 197.885 35.3802H197.323ZM198.599 41.7812C198.536 41.5885 198.495 41.4687 198.495 40.8646V39.6875C198.495 38.9948 198.26 38.7396 197.729 38.7396H197.323V41.7812H196.151V34.3177H197.917C199.135 34.3177 199.656 34.8802 199.656 36.0312V36.6198C199.656 37.3854 199.411 37.875 198.891 38.125V38.1458C199.474 38.3906 199.667 38.9427 199.667 39.7239V40.875C199.667 41.2344 199.677 41.5052 199.797 41.7812" fill="white"/>
<path d="M201.823 35.3802V37.6771H202.281C202.719 37.6771 202.984 37.4844 202.984 36.8854V36.151C202.984 35.6198 202.802 35.3802 202.385 35.3802H201.823ZM203.104 41.7812C203.036 41.5885 202.995 41.4687 202.995 40.8646V39.6875C202.995 38.9948 202.76 38.7396 202.229 38.7396H201.823V41.7812H200.651V34.3177H202.422C203.635 34.3177 204.156 34.8802 204.156 36.0312V36.6198C204.156 37.3854 203.911 37.875 203.391 38.125V38.1458C203.974 38.3906 204.167 38.9427 204.167 39.7239V40.875C204.167 41.2344 204.182 41.5052 204.297 41.7812" fill="white"/>
<path d="M206.323 37.4635H207.932V38.526H206.323V40.7135H208.349V41.7812H205.151V34.3177H208.349V35.3802H206.323" fill="white"/>
<path d="M197.974 17.5573C196.875 17.5573 195.984 18.4531 195.984 19.5468C195.984 20.6458 196.875 21.5364 197.974 21.5364C199.073 21.5364 199.964 20.6458 199.964 19.5468C199.964 18.4531 199.073 17.5573 197.974 17.5573ZM197.974 23.2083C195.958 23.2083 194.312 21.5677 194.312 19.5468C194.312 17.5312 195.958 15.8854 197.974 15.8854C199.995 15.8854 201.635 17.5312 201.635 19.5468C201.635 21.5677 199.995 23.2083 197.974 23.2083Z" fill="white"/>
<path d="M213.01 36.7395C213.01 41.7031 208.974 45.7448 204.01 45.7448H191.937C186.979 45.7448 182.937 41.7031 182.937 36.7395V22.1458C182.937 17.1823 186.979 13.1458 191.937 13.1458H204.01C208.974 13.1458 213.01 17.1823 213.01 22.1458V36.7395ZM204.01 11.5573H191.937C186.099 11.5573 181.349 16.3073 181.349 22.1458V36.7395C181.349 40.7031 183.562 44.125 186.792 45.9375C186.573 46.1041 186.417 46.3593 186.417 46.6562V48.4375C186.417 48.9427 186.828 49.3541 187.328 49.3541H208.62C209.12 49.3541 209.531 48.9427 209.531 48.4375V46.6562C209.531 46.3593 209.375 46.1041 209.156 45.9375C212.385 44.125 214.594 40.7031 214.594 36.7395V22.1458C214.594 16.3073 209.844 11.5573 204.01 11.5573Z" fill="white"/>
<path d="M28.5624 25.8802C26.8697 28.375 28.3072 31.6458 30.052 33.3073C31.6458 34.8177 32.9218 35.1771 33.0885 35.2187L33.901 33.6614L36.2447 40.0729L29.6197 41.4166L30.4999 39.7864L29.6041 39.2812C26.8124 37.4687 26.2239 34.9948 26.0312 34.2239C25.6978 32.8958 25.203 28.9271 28.5624 25.8802Z" fill="#1C1C1B"/>
<path d="M28.5312 25.9895C29.7344 28.75 33.2708 29.2812 35.6042 28.6875C37.6771 28.1614 38.6615 27.3073 38.8281 27.151L38.8177 27.1354L37.9323 25.6041L44.599 27.0625L42.1875 33.375L41.2917 31.7864L40.4219 32.2604C37.3958 33.651 34.9896 32.8281 34.2344 32.5833C32.9375 32.151 29.3125 30.4531 28.5312 25.9895Z" fill="#1C1C1B"/>
<path d="M40.3177 19.3281C39.8541 22.6302 37.8698 24.2135 37.25 24.7135C36.1875 25.5729 32.802 27.7031 28.6198 25.9531C31.5937 26.4323 33.9531 23.7448 34.7135 21.4583C35.401 19.4062 35.1979 18.1094 35.1562 17.9062H35.1354L33.3698 17.8281L38.1823 12.9896L42.2083 18.4271L40.3906 18.3229" fill="#1C1C1B"/>
<path fill-rule="evenodd" clip-rule="evenodd" d="M20.0938 16.5468C18.5729 16.5468 17.3438 15.3177 17.3438 13.7968C17.3438 12.276 18.5729 11.0416 20.0938 11.0416C21.6146 11.0416 22.849 12.276 22.849 13.7968C22.849 15.3177 21.6146 16.5468 20.0938 16.5468Z" fill="#1C1C1B"/>
<path d="M15.8333 29.9323C16.0677 29.2916 16.4167 29.3281 16.4167 29.3281C16.4167 29.3281 16.7344 29.2604 16.9115 29.9114L19.4844 38.9479C17.3385 38.3229 15.3802 37.2552 13.7135 35.8489L15.8333 29.9323ZM23.8594 5.80725C13.9167 5.80725 5.82812 13.8958 5.82812 23.8385C5.82812 33.7812 13.9167 41.8698 23.8594 41.8698C24.3906 41.8698 24.9115 41.8385 25.4323 41.7916L25.5521 43.5989L28.8542 40.4114L25.1615 37.5937L25.3021 39.4948C24.8281 39.5416 24.3438 39.5729 23.8594 39.5729C23.0938 39.5729 22.3438 39.5104 21.6094 39.4062L21.5365 38.927L19.8229 24.3281C19.5885 21.5729 21.1615 21.1354 22.1354 21.5468L27.6042 23.7395C28.2292 24.0156 28.5313 23.4895 28.5313 23.4895C28.5313 23.4895 28.8854 22.9375 28.25 22.5364C28.25 22.5364 20.7969 17.5937 19.2083 17.2968C17.0417 16.8958 14.8958 18.6458 14.4219 20.9323L11.776 33.901C9.5 31.1718 8.125 27.6614 8.125 23.8385C8.125 15.1614 15.1823 8.10413 23.8594 8.10413C28.4948 8.10413 32.6667 10.1198 35.5469 13.3177L37.1615 11.677C33.8646 8.07288 29.1198 5.80725 23.8594 5.80725Z" fill="#1C1C1B"/>
<path d="M135.855 36.716H138.249V37.424H136.719V38.432H138.159V39.14H136.719V41H135.855V36.716ZM138.632 41V36.716H139.496V40.292H141.026V41H138.632ZM143.197 39.386L142.783 37.46H142.771L142.357 39.386H143.197ZM143.311 36.716L144.445 41H143.545L143.347 40.094H142.207L142.009 41H141.109L142.243 36.716H143.311ZM146.573 38.162C146.573 37.85 146.535 37.624 146.459 37.484C146.387 37.34 146.253 37.268 146.057 37.268C145.949 37.268 145.859 37.298 145.787 37.358C145.719 37.414 145.665 37.508 145.625 37.64C145.585 37.768 145.557 37.938 145.541 38.15C145.525 38.358 145.517 38.614 145.517 38.918C145.517 39.242 145.527 39.504 145.547 39.704C145.571 39.904 145.605 40.06 145.649 40.172C145.697 40.28 145.755 40.354 145.823 40.394C145.895 40.43 145.977 40.448 146.069 40.448C146.145 40.448 146.215 40.436 146.279 40.412C146.347 40.384 146.405 40.332 146.453 40.256C146.501 40.176 146.539 40.066 146.567 39.926C146.595 39.782 146.609 39.594 146.609 39.362H147.473C147.473 39.594 147.455 39.814 147.419 40.022C147.383 40.23 147.315 40.412 147.215 40.568C147.119 40.724 146.981 40.846 146.801 40.934C146.625 41.022 146.395 41.066 146.111 41.066C145.787 41.066 145.529 41.014 145.337 40.91C145.145 40.806 144.997 40.656 144.893 40.46C144.793 40.264 144.727 40.03 144.695 39.758C144.667 39.486 144.653 39.186 144.653 38.858C144.653 38.534 144.667 38.236 144.695 37.964C144.727 37.688 144.793 37.452 144.893 37.256C144.997 37.06 145.145 36.908 145.337 36.8C145.529 36.688 145.787 36.632 146.111 36.632C146.419 36.632 146.661 36.682 146.837 36.782C147.017 36.882 147.151 37.01 147.239 37.166C147.327 37.318 147.381 37.484 147.401 37.664C147.425 37.84 147.437 38.006 147.437 38.162H146.573ZM148.74 38.858C148.74 39.146 148.746 39.392 148.758 39.596C148.774 39.796 148.802 39.96 148.842 40.088C148.886 40.212 148.946 40.304 149.022 40.364C149.102 40.42 149.206 40.448 149.334 40.448C149.462 40.448 149.564 40.42 149.64 40.364C149.72 40.304 149.78 40.212 149.82 40.088C149.864 39.96 149.892 39.796 149.904 39.596C149.92 39.392 149.928 39.146 149.928 38.858C149.928 38.57 149.92 38.326 149.904 38.126C149.892 37.926 149.864 37.762 149.82 37.634C149.78 37.506 149.72 37.414 149.64 37.358C149.564 37.298 149.462 37.268 149.334 37.268C149.206 37.268 149.102 37.298 149.022 37.358C148.946 37.414 148.886 37.506 148.842 37.634C148.802 37.762 148.774 37.926 148.758 38.126C148.746 38.326 148.74 38.57 148.74 38.858ZM147.876 38.858C147.876 38.534 147.89 38.236 147.918 37.964C147.95 37.688 148.016 37.452 148.116 37.256C148.22 37.06 148.368 36.908 148.56 36.8C148.752 36.688 149.01 36.632 149.334 36.632C149.658 36.632 149.916 36.688 150.108 36.8C150.3 36.908 150.446 37.06 150.546 37.256C150.65 37.452 150.716 37.688 150.744 37.964C150.776 38.236 150.792 38.534 150.792 38.858C150.792 39.186 150.776 39.486 150.744 39.758C150.716 40.03 150.65 40.264 150.546 40.46C150.446 40.656 150.3 40.806 150.108 40.91C149.916 41.014 149.658 41.066 149.334 41.066C149.01 41.066 148.752 41.014 148.56 40.91C148.368 40.806 148.22 40.656 148.116 40.46C148.016 40.264 147.95 40.03 147.918 39.758C147.89 39.486 147.876 39.186 147.876 38.858ZM152.296 36.716L153.34 39.65H153.352V36.716H154.144V41H153.16L152.104 38H152.092V41H151.3V36.716H152.296ZM136.139 43.716V44.424H134.609V45.432H136.049V46.14H134.609V47.292H136.199V48H133.745V43.716H136.139ZM137.63 43.716L138.674 46.65H138.686V43.716H139.478V48H138.494L137.438 45H137.426V48H136.634V43.716H137.63ZM141.94 43.716L142.546 46.884H142.564L143.2 43.716H144.094L143.11 48H142L141.016 43.716H141.94ZM146.803 43.716V44.424H145.273V45.432H146.713V46.14H145.273V47.292H146.863V48H144.409V43.716H146.803ZM147.298 43.716H148.894C149.254 43.716 149.534 43.808 149.734 43.992C149.934 44.172 150.034 44.448 150.034 44.82C150.034 45.108 149.976 45.344 149.86 45.528C149.744 45.708 149.564 45.824 149.32 45.876V45.888C149.536 45.92 149.694 45.99 149.794 46.098C149.894 46.206 149.956 46.38 149.98 46.62C149.988 46.7 149.994 46.788 149.998 46.884C150.002 46.976 150.006 47.08 150.01 47.196C150.018 47.424 150.03 47.598 150.046 47.718C150.07 47.838 150.122 47.92 150.202 47.964V48H149.266C149.222 47.94 149.194 47.872 149.182 47.796C149.17 47.716 149.162 47.634 149.158 47.55L149.134 46.728C149.126 46.56 149.084 46.428 149.008 46.332C148.932 46.236 148.804 46.188 148.624 46.188H148.162V48H147.298V43.716ZM148.162 45.588H148.522C148.73 45.588 148.89 45.54 149.002 45.444C149.114 45.344 149.17 45.178 149.17 44.946C149.17 44.55 148.97 44.352 148.57 44.352H148.162V45.588ZM150.632 43.716H152.228C152.588 43.716 152.868 43.808 153.068 43.992C153.268 44.172 153.368 44.448 153.368 44.82C153.368 45.108 153.31 45.344 153.194 45.528C153.078 45.708 152.898 45.824 152.654 45.876V45.888C152.87 45.92 153.028 45.99 153.128 46.098C153.228 46.206 153.29 46.38 153.314 46.62C153.322 46.7 153.328 46.788 153.332 46.884C153.336 46.976 153.34 47.08 153.344 47.196C153.352 47.424 153.364 47.598 153.38 47.718C153.404 47.838 153.456 47.92 153.536 47.964V48H152.6C152.556 47.94 152.528 47.872 152.516 47.796C152.504 47.716 152.496 47.634 152.492 47.55L152.468 46.728C152.46 46.56 152.418 46.428 152.342 46.332C152.266 46.236 152.138 46.188 151.958 46.188H151.496V48H150.632V43.716ZM151.496 45.588H151.856C152.064 45.588 152.224 45.54 152.336 45.444C152.448 45.344 152.504 45.178 152.504 44.946C152.504 44.55 152.304 44.352 151.904 44.352H151.496V45.588ZM156.36 43.716V44.424H154.83V45.432H156.27V46.14H154.83V47.292H156.42V48H153.966V43.716H156.36Z" fill="#1C1C1B"/>
<path d="M144.722 12.0178C144.64 12.0178 144.571 11.9492 144.571 11.8634C144.571 11.781 144.64 11.7158 144.722 11.7158C144.808 11.7158 144.873 11.781 144.873 11.8634C144.873 11.9492 144.808 12.0178 144.722 12.0178ZM144.722 11.3143C144.42 11.3143 144.173 11.5614 144.173 11.8634C144.173 12.1688 144.42 12.4159 144.722 12.4159C145.027 12.4159 145.274 12.1688 145.274 11.8634C145.274 11.5614 145.027 11.3143 144.722 11.3143Z" fill="#1C1C1B"/>
<path d="M146.97 32.4398H142.478V18.5964C142.478 17.7659 142.931 17.0075 143.658 16.6163C143.675 16.606 143.689 16.5888 143.703 16.5786H144.173V31.9422C144.173 32.052 144.262 32.1447 144.372 32.1447C144.482 32.1447 144.571 32.052 144.571 31.9422V16.5786H144.873V31.9422C144.873 32.052 144.966 32.1447 145.075 32.1447C145.185 32.1447 145.274 32.052 145.274 31.9422V16.5786H145.707C146.476 16.956 146.97 17.735 146.97 18.6376V32.4398ZM144.025 12.9753H145.419V13.5552H144.025V12.9753ZM145.71 10.5319V10.8064C145.666 10.7721 145.611 10.7481 145.549 10.7481H143.898C143.837 10.7481 143.782 10.7721 143.737 10.8064V10.5319H145.71ZM144.163 11.28H145.281V12.4434H144.163V11.28ZM145.824 15.6486H143.511V14.4887H145.937V15.6486H145.834C145.83 15.6486 145.827 15.6486 145.824 15.6486ZM146.843 16.2319C146.853 16.1942 146.867 16.1565 146.867 16.1118V14.0219C146.867 13.7646 146.661 13.5552 146.403 13.5552H146.352V12.7385C146.352 12.6287 146.307 12.5292 146.242 12.4468V10.2677C146.242 10.1201 146.122 10 145.975 10H143.473C143.325 10 143.205 10.1201 143.205 10.2677V12.4365C143.14 12.5189 143.095 12.6149 143.095 12.7282V13.5552H143.044C142.786 13.5552 142.581 13.7646 142.581 14.0219V16.1118C142.581 16.1565 142.594 16.1942 142.605 16.2319C141.939 16.8291 141.544 17.6904 141.544 18.6376V32.9031C141.544 33.1605 141.754 33.3698 142.011 33.3698H147.436C147.56 33.3698 147.68 33.3218 147.766 33.2325C147.855 33.1468 147.903 33.0266 147.903 32.9031V18.5964C147.903 17.6801 147.505 16.8256 146.843 16.2319Z" fill="#1C1C1B"/>
</g>
<defs>
<clipPath id="clip0_22_1144">
<rect width="227" height="62" fill="white"/>
</clipPath>
</defs>
</svg>
