<svg width="227" height="61" viewBox="0 0 227 61" fill="none" xmlns="http://www.w3.org/2000/svg">
<g clip-path="url(#clip0_26_18064)">
<path d="M24.8542 60.7916C11.2344 60.7916 0.15625 49.8385 0.15625 36.3801V0.317627H201.323C214.938 0.317627 226.016 11.2655 226.016 24.7239L226.021 60.7916" fill="white"/>
<path d="M201.323 5.98438H50.2708V36.3802C50.2708 46.7135 58.802 55.1198 69.2916 55.1198H220.349V24.724C220.349 14.3958 211.812 5.98438 201.323 5.98438Z" fill="white"/>
<path d="M218.458 53.2292H69.2916C59.8437 53.2292 52.1562 45.6719 52.1562 36.3802V7.875H201.323C210.771 7.875 218.458 15.4323 218.458 24.724V53.2292ZM201.323 5.98438H50.2708V36.3802C50.2708 46.7135 58.802 55.1198 69.2916 55.1198H220.349V24.724C220.349 14.3958 211.812 5.98438 201.323 5.98438Z" fill="#FCC42F"/>
<path d="M163.089 55.1198L176.099 28.5417L162.807 5.98438H201.323C211.812 5.98438 220.349 14.3906 220.349 24.724V55.1198" fill="#FCC42F"/>
<path d="M201.323 7.875H166.115L178.245 28.4583L166.12 53.2292H218.458V24.724C218.458 15.4323 210.771 7.875 201.323 7.875Z" fill="#FCC42F"/>
<path d="M206.281 41.6615H205.078C204.979 41.6615 204.885 41.6719 204.792 41.6875C205.354 35.4323 206.224 25.7708 206.646 21.3958C206.687 20.9531 206.359 20.5573 205.917 20.5156C205.464 20.4635 205.073 20.7969 205.031 21.2448C204.385 27.9635 202.677 47.1458 202.661 47.3385C202.63 47.6615 202.312 47.9271 201.943 47.9271H188.854C188.479 47.9271 188.167 47.6615 188.135 47.3385C188.12 47.1458 186.411 27.9635 185.766 21.2448C185.724 20.7969 185.333 20.4635 184.88 20.5156C184.437 20.5573 184.109 20.9531 184.151 21.3958C184.573 25.7708 185.443 35.4271 186.005 41.6875C185.911 41.6667 185.812 41.6562 185.719 41.6562H184.516C183.74 41.6562 183.104 42.2917 183.104 43.0677V48.1406C183.104 48.9167 183.74 49.5469 184.516 49.5469H185.719C186.297 49.5469 186.802 49.1927 187.016 48.6823C187.443 49.2135 188.104 49.5469 188.854 49.5469H201.943C202.687 49.5469 203.349 49.2135 203.781 48.6875C203.995 49.1927 204.495 49.5521 205.078 49.5521H206.281C207.057 49.5521 207.687 48.9219 207.687 48.1406V43.0677C207.687 42.2917 207.057 41.6615 206.281 41.6615Z" fill="#1C1C1B"/>
<path d="M190.344 25.1198V27.4115H191.016C191.411 27.4115 191.625 27.2292 191.625 26.6771V26.026C191.625 25.3333 191.401 25.1198 190.865 25.1198H190.344ZM190.344 22.0833V24.0521H190.802C191.24 24.0521 191.505 23.8646 191.505 23.2656V22.849C191.505 22.3125 191.323 22.0833 190.906 22.0833H190.344ZM192.677 22.7344V23C192.677 23.7656 192.443 24.2448 191.922 24.4896V24.5104C192.547 24.7604 192.797 25.3125 192.797 26.099V26.7083C192.797 27.8594 192.187 28.4792 191.016 28.4792H189.172V21.0156H190.938C192.156 21.0156 192.677 21.5833 192.677 22.7344Z" fill="#1C1C1B"/>
<path d="M194.833 26.1146H195.964L195.411 22.3385H195.385L194.833 26.1146ZM197.51 28.4792H196.328L196.125 27.125H194.688L194.479 28.4792H193.406L194.599 21.0156H196.313" fill="#1C1C1B"/>
<path d="M201.661 25.6926V26.6874C201.661 27.8801 201.062 28.5624 199.911 28.5624C198.76 28.5624 198.161 27.8801 198.161 26.6874V22.8072C198.161 21.6093 198.76 20.927 199.911 20.927C201.062 20.927 201.661 21.6093 201.661 22.8072V23.5312H200.552V22.7291C200.552 22.1978 200.318 21.9947 199.943 21.9947C199.573 21.9947 199.338 22.1978 199.338 22.7291V26.7603C199.338 27.2916 199.573 27.4843 199.943 27.4843C200.318 27.4843 200.552 27.2916 200.552 26.7603V25.6926" fill="#1C1C1B"/>
<path d="M192.703 31.2083V36.5365H193.365C193.734 36.5365 193.958 36.3438 193.958 35.8125V31.9323C193.958 31.401 193.734 31.2083 193.365 31.2083H192.703ZM191.531 30.1406H193.385C194.557 30.1406 195.13 30.7917 195.13 31.9844V35.7604C195.13 36.9531 194.557 37.6042 193.385 37.6042H191.531" fill="#1C1C1B"/>
<path d="M197.266 33.2865H198.875V34.349H197.266V36.5365H199.292V37.6042H196.094V30.1406H199.292V31.2031H197.266" fill="#1C1C1B"/>
<path d="M190.161 39.2656H193.786V40.3281H192.562V46.7292H191.385V40.3281H190.161" fill="#1C1C1B"/>
<path d="M195.688 40.3281V42.625H196.146C196.583 42.625 196.849 42.4323 196.849 41.8333V41.099C196.849 40.5677 196.667 40.3281 196.25 40.3281H195.688ZM196.969 46.7292C196.901 46.5365 196.859 46.4167 196.859 45.8125V44.6354C196.859 43.9479 196.625 43.6875 196.094 43.6875H195.688V46.7292H194.516V39.2656H196.286C197.5 39.2656 198.021 39.8281 198.021 40.9792V41.5677C198.021 42.3333 197.776 42.8229 197.255 43.0729V43.0938C197.839 43.3385 198.031 43.8906 198.031 44.6719V45.8229C198.031 46.1823 198.042 46.4531 198.161 46.7292" fill="#1C1C1B"/>
<path d="M199.016 46.7292H200.188V39.2656H199.016V46.7292Z" fill="#1C1C1B"/>
<path d="M207.125 17.6197H183.672V15.6666C183.672 15.5989 183.703 15.5676 183.698 15.5676H185.396C185.589 15.5676 185.771 15.4999 185.917 15.3697L188.047 13.5103C188.141 13.427 188.37 13.3437 188.661 13.3437H202.13C202.422 13.3437 202.656 13.427 202.75 13.5103L204.88 15.3697C205.026 15.4999 205.208 15.5676 205.401 15.5676H207.099C207.089 15.5676 207.125 15.5989 207.125 15.6666V17.6197ZM207.099 13.9791H205.698L203.792 12.3176C203.385 11.9583 202.781 11.7551 202.13 11.7551H188.661C188.016 11.7551 187.411 11.9583 187 12.3176L185.094 13.9791H183.698C182.807 13.9791 182.089 14.7395 182.089 15.6666V17.8124C182.089 18.1093 182.161 18.401 182.307 18.6614C182.37 18.7708 182.458 18.8697 182.562 18.9374C182.823 19.1093 183.12 19.1978 183.427 19.1978H207.37C207.677 19.1978 207.974 19.1093 208.234 18.9374C208.339 18.8697 208.427 18.7708 208.49 18.6614C208.63 18.401 208.708 18.1093 208.708 17.8124V15.6666C208.708 14.7395 207.984 13.9791 207.099 13.9791Z" fill="#1C1C1B"/>
<path d="M202.125 14.0781H188.667C188.297 14.0781 187.995 14.3802 187.995 14.75C187.995 15.1198 188.297 15.4219 188.667 15.4219H202.125C202.495 15.4219 202.797 15.1198 202.797 14.75C202.797 14.3802 202.495 14.0781 202.125 14.0781Z" fill="#1C1C1B"/>
<path d="M103.057 5.98438H50.2708V36.3802C50.2708 46.7135 58.802 55.1198 69.2916 55.1198H122.083V24.724C122.083 14.3958 113.547 5.98438 103.057 5.98438Z" fill="#FCC42F"/>
<path d="M63.8072 29.677C59.0051 29.677 55.1145 33.5676 55.1145 38.3697C55.1145 43.1718 59.0051 47.0624 63.8072 47.0624C68.6145 47.0624 72.5051 43.1718 72.5051 38.3697C72.5051 33.5676 68.6145 29.677 63.8072 29.677Z" fill="white"/>
<path d="M69.4792 39.7865H65.2292V44.0417H62.3906V39.7865H58.1406V36.9531H62.3906V32.7031H65.2292V36.9531H69.4792" fill="#1C1C1B"/>
<path d="M55.9426 26.9167V17.5156H58.427V24.8333H61.9843V26.9167" fill="#1C1C1B"/>
<path d="M63.0989 26.9167V17.5156H69.1718V19.599H65.5885V21.0729H68.651V23.1563H65.5885V24.8333H69.3176V26.9167" fill="#1C1C1B"/>
<path d="M75.2448 26.9167V19.599H72.7604V17.5156H80.2239V19.599H77.7343V26.9167" fill="#1C1C1B"/>
<path d="M83.7083 21.7969H84.6042C85.6042 21.7969 86.1094 21.3802 86.1094 20.5521C86.1094 20.1458 85.9792 19.8698 85.724 19.7135C85.4688 19.5573 85.0938 19.4792 84.6042 19.4792H83.7083V21.7969ZM81.2188 26.9167V17.5156H84.776C85.2813 17.5156 85.7604 17.5625 86.2188 17.6563C86.6771 17.7552 87.0729 17.9219 87.4167 18.151C87.7604 18.3802 88.0313 18.6927 88.2344 19.0833C88.4375 19.474 88.5365 19.9635 88.5365 20.5521C88.5365 21.2292 88.401 21.7865 88.125 22.2292C87.8542 22.6719 87.4844 23.0208 87.0208 23.2708L89.0573 26.9167H86.2813L84.6615 23.7604H83.7083V26.9167" fill="#1C1C1B"/>
<path d="M90.026 26.9167H92.5156V17.5156H90.026V26.9167Z" fill="#1C1C1B"/>
<path d="M75.5364 43.5937V34.1926H81.6666V36.276H78.026V38.0676H81.1458V40.151H78.026V43.5937" fill="#1C1C1B"/>
<path d="M85.0781 39.0208L84.9166 39.6718H86.651L86.4948 39.0208C86.3802 38.5676 86.2604 38.078 86.1458 37.5468C86.0312 37.0155 85.9166 36.5155 85.7968 36.0416H85.7395C85.6354 36.526 85.526 37.0312 85.4166 37.552C85.3073 38.078 85.1927 38.5676 85.0781 39.0208ZM81.4635 43.5937L84.3229 34.1926H87.3281L90.1927 43.5937H87.5625L87.0989 41.5989H84.4687L84.0052 43.5937" fill="#1C1C1B"/>
<path d="M94.7187 43.7656C94.1249 43.7656 93.552 43.6667 93.0103 43.4688C92.4635 43.2708 91.9895 42.974 91.578 42.5729C91.1666 42.1719 90.8385 41.6719 90.5989 41.0677C90.3593 40.4688 90.2395 39.7656 90.2395 38.9635C90.2395 38.1771 90.3645 37.474 90.6145 36.8594C90.8645 36.25 91.1978 35.7344 91.6197 35.3125C92.0364 34.8958 92.5208 34.5729 93.0676 34.349C93.6145 34.1302 94.1822 34.0156 94.7812 34.0156C95.4062 34.0156 95.9687 34.1406 96.4583 34.3854C96.953 34.6354 97.3645 34.9271 97.703 35.2604L96.401 36.8542C96.1718 36.651 95.9322 36.4844 95.6874 36.3542C95.4374 36.224 95.1562 36.1563 94.8385 36.1563C94.5572 36.1563 94.2968 36.2188 94.052 36.349C93.8072 36.474 93.5885 36.651 93.401 36.8802C93.2135 37.1146 93.0624 37.401 92.953 37.7344C92.8385 38.0729 92.7864 38.4531 92.7864 38.875C92.7864 39.7656 92.9687 40.4479 93.3437 40.9167C93.7135 41.3906 94.203 41.625 94.8072 41.625C95.177 41.625 95.4999 41.5469 95.7864 41.3854C96.0676 41.2292 96.3124 41.0365 96.5155 40.8177L97.8176 42.375C97.4114 42.8438 96.9478 43.1875 96.4218 43.4167C95.8958 43.651 95.328 43.7656 94.7187 43.7656Z" fill="#1C1C1B"/>
<path d="M98.776 43.5937H101.26V34.1926H98.776V43.5937Z" fill="#1C1C1B"/>
<path d="M103.031 43.5937V34.1926H105.521V41.5103H109.078V43.5937" fill="#1C1C1B"/>
<path d="M110.188 43.5937V34.1926H116.266V36.276H112.677V37.7499H115.745V39.8333H112.677V41.5103H116.411V43.5937" fill="#1C1C1B"/>
<path d="M28.5624 26.0625C26.8697 28.5521 28.3072 31.8281 30.052 33.4896C31.6458 35 32.9218 35.3594 33.0885 35.401L33.901 33.8438L36.2447 40.2552L29.6197 41.599L30.4999 39.9688L29.6041 39.4635C26.8124 37.6458 26.2239 35.1771 26.0312 34.4063C25.6978 33.0781 25.203 29.1094 28.5624 26.0625Z" fill="#1C1C1B"/>
<path d="M28.5312 26.1718C29.7344 28.927 33.2708 29.4635 35.6042 28.8697C37.6771 28.3437 38.6615 27.4895 38.8281 27.3333L38.8177 27.3176L37.9323 25.7864L44.599 27.2395L42.1875 33.5572L41.2917 31.9687L40.4219 32.4374C37.3958 33.828 34.9896 33.0103 34.2344 32.7603C32.9375 32.3333 29.3125 30.6353 28.5312 26.1718Z" fill="#1C1C1B"/>
<path d="M40.3177 19.5156C39.8541 22.8125 37.8698 24.3958 37.25 24.8958C36.1875 25.7552 32.802 27.8854 28.6198 26.1354C31.5937 26.6094 33.9531 23.9271 34.7135 21.6406C35.401 19.5885 35.1979 18.2917 35.1562 18.0885H35.1354L33.3698 18.0104L38.1823 13.1719L42.2083 18.6094L40.3906 18.5052" fill="#1C1C1B"/>
<path fill-rule="evenodd" clip-rule="evenodd" d="M20.0938 16.7291C18.5729 16.7291 17.3438 15.4999 17.3438 13.9791C17.3438 12.4583 18.5729 11.2239 20.0938 11.2239C21.6146 11.2239 22.849 12.4583 22.849 13.9791C22.849 15.4999 21.6146 16.7291 20.0938 16.7291Z" fill="#1C1C1B"/>
<path d="M15.8333 30.1146C16.0677 29.4688 16.4167 29.5104 16.4167 29.5104C16.4167 29.5104 16.7344 29.4427 16.9115 30.0938L19.4844 39.125C17.3385 38.5052 15.3802 37.4375 13.7135 36.0313L15.8333 30.1146ZM23.8594 5.98438C13.9167 5.98438 5.82812 14.0729 5.82812 24.0208C5.82812 33.9583 13.9167 42.0521 23.8594 42.0521C24.3906 42.0521 24.9115 42.0156 25.4323 41.9688L25.5521 43.7813L28.8542 40.5885L25.1615 37.776L25.3021 39.6771C24.8281 39.7188 24.3438 39.75 23.8594 39.75C23.0938 39.75 22.3438 39.6927 21.6094 39.5885L21.5365 39.1094L19.8229 24.5104C19.5885 21.7552 21.1615 21.3125 22.1354 21.7292L27.6042 23.9219C28.2292 24.1927 28.5313 23.6719 28.5313 23.6719C28.5313 23.6719 28.8854 23.1198 28.25 22.7135C28.25 22.7135 20.7969 17.776 19.2083 17.4792C17.0417 17.0729 14.8958 18.8281 14.4219 21.1146L11.776 34.0833C9.5 31.349 8.125 27.8438 8.125 24.0208C8.125 15.3438 15.1823 8.28646 23.8594 8.28646C28.4948 8.28646 32.6667 10.3021 35.5469 13.4948L37.1615 11.8594C33.8646 8.25 29.1198 5.98438 23.8594 5.98438Z" fill="#1C1C1B"/>
<path d="M135.109 39.662V39.788C135.109 39.888 135.117 39.98 135.133 40.064C135.149 40.144 135.179 40.212 135.223 40.268C135.267 40.324 135.325 40.368 135.397 40.4C135.473 40.432 135.567 40.448 135.679 40.448C135.811 40.448 135.929 40.406 136.033 40.322C136.141 40.234 136.195 40.1 136.195 39.92C136.195 39.824 136.181 39.742 136.153 39.674C136.129 39.602 136.087 39.538 136.027 39.482C135.967 39.426 135.887 39.376 135.787 39.332C135.691 39.284 135.571 39.236 135.427 39.188C135.235 39.124 135.069 39.054 134.929 38.978C134.789 38.902 134.671 38.814 134.575 38.714C134.483 38.61 134.415 38.492 134.371 38.36C134.327 38.224 134.305 38.068 134.305 37.892C134.305 37.468 134.423 37.152 134.659 36.944C134.895 36.736 135.219 36.632 135.631 36.632C135.823 36.632 135.999 36.654 136.159 36.698C136.323 36.738 136.463 36.806 136.579 36.902C136.699 36.994 136.791 37.114 136.855 37.262C136.923 37.406 136.957 37.58 136.957 37.784V37.904H136.129C136.129 37.7 136.093 37.544 136.021 37.436C135.949 37.324 135.829 37.268 135.661 37.268C135.565 37.268 135.485 37.282 135.421 37.31C135.357 37.338 135.305 37.376 135.265 37.424C135.229 37.468 135.203 37.52 135.187 37.58C135.175 37.64 135.169 37.702 135.169 37.766C135.169 37.898 135.197 38.01 135.253 38.102C135.309 38.19 135.429 38.272 135.613 38.348L136.279 38.636C136.443 38.708 136.577 38.784 136.681 38.864C136.785 38.94 136.867 39.024 136.927 39.116C136.991 39.204 137.035 39.302 137.059 39.41C137.083 39.518 137.095 39.638 137.095 39.77C137.095 40.222 136.963 40.552 136.699 40.76C136.439 40.964 136.075 41.066 135.607 41.066C135.119 41.066 134.769 40.96 134.557 40.748C134.349 40.536 134.245 40.232 134.245 39.836V39.662H135.109ZM139.313 39.386L138.899 37.46H138.887L138.473 39.386H139.313ZM139.427 36.716L140.561 41H139.661L139.463 40.094H138.323L138.125 41H137.225L138.359 36.716H139.427ZM142.689 38.162C142.689 37.85 142.651 37.624 142.575 37.484C142.503 37.34 142.369 37.268 142.173 37.268C142.065 37.268 141.975 37.298 141.903 37.358C141.835 37.414 141.781 37.508 141.741 37.64C141.701 37.768 141.673 37.938 141.657 38.15C141.641 38.358 141.633 38.614 141.633 38.918C141.633 39.242 141.643 39.504 141.663 39.704C141.687 39.904 141.721 40.06 141.765 40.172C141.813 40.28 141.871 40.354 141.939 40.394C142.011 40.43 142.093 40.448 142.185 40.448C142.261 40.448 142.331 40.436 142.395 40.412C142.463 40.384 142.521 40.332 142.569 40.256C142.617 40.176 142.655 40.066 142.683 39.926C142.711 39.782 142.725 39.594 142.725 39.362H143.589C143.589 39.594 143.571 39.814 143.535 40.022C143.499 40.23 143.431 40.412 143.331 40.568C143.235 40.724 143.097 40.846 142.917 40.934C142.741 41.022 142.511 41.066 142.227 41.066C141.903 41.066 141.645 41.014 141.453 40.91C141.261 40.806 141.113 40.656 141.009 40.46C140.909 40.264 140.843 40.03 140.811 39.758C140.783 39.486 140.769 39.186 140.769 38.858C140.769 38.534 140.783 38.236 140.811 37.964C140.843 37.688 140.909 37.452 141.009 37.256C141.113 37.06 141.261 36.908 141.453 36.8C141.645 36.688 141.903 36.632 142.227 36.632C142.535 36.632 142.777 36.682 142.953 36.782C143.133 36.882 143.267 37.01 143.355 37.166C143.443 37.318 143.497 37.484 143.517 37.664C143.541 37.84 143.553 38.006 143.553 38.162H142.689ZM144.081 36.716H144.945V38.354H145.953V36.716H146.817V41H145.953V39.098H144.945V41H144.081V36.716ZM149.809 36.716V37.424H148.279V38.432H149.719V39.14H148.279V40.292H149.869V41H147.415V36.716H149.809ZM152.812 36.716V37.424H151.876V41H151.012V37.424H150.076V36.716H152.812ZM131.557 45.654H131.941C132.113 45.654 132.251 45.602 132.355 45.498C132.463 45.394 132.517 45.232 132.517 45.012C132.517 44.796 132.471 44.632 132.379 44.52C132.287 44.408 132.133 44.352 131.917 44.352H131.557V45.654ZM130.693 43.716H132.205C132.425 43.716 132.609 43.754 132.757 43.83C132.909 43.902 133.031 43.998 133.123 44.118C133.215 44.238 133.281 44.376 133.321 44.532C133.361 44.684 133.381 44.84 133.381 45C133.381 45.22 133.347 45.412 133.279 45.576C133.215 45.74 133.123 45.874 133.003 45.978C132.887 46.082 132.745 46.16 132.577 46.212C132.409 46.264 132.223 46.29 132.019 46.29H131.557V48H130.693V43.716ZM133.804 48V43.716H134.668V47.292H136.198V48H133.804ZM138.369 46.386L137.955 44.46H137.943L137.529 46.386H138.369ZM138.483 43.716L139.617 48H138.717L138.519 47.094H137.379L137.181 48H136.281L137.415 43.716H138.483ZM140.611 46.662V46.788C140.611 46.888 140.619 46.98 140.635 47.064C140.651 47.144 140.681 47.212 140.725 47.268C140.769 47.324 140.827 47.368 140.899 47.4C140.975 47.432 141.069 47.448 141.181 47.448C141.313 47.448 141.431 47.406 141.535 47.322C141.643 47.234 141.697 47.1 141.697 46.92C141.697 46.824 141.683 46.742 141.655 46.674C141.631 46.602 141.589 46.538 141.529 46.482C141.469 46.426 141.389 46.376 141.289 46.332C141.193 46.284 141.073 46.236 140.929 46.188C140.737 46.124 140.571 46.054 140.431 45.978C140.291 45.902 140.173 45.814 140.077 45.714C139.985 45.61 139.917 45.492 139.873 45.36C139.829 45.224 139.807 45.068 139.807 44.892C139.807 44.468 139.925 44.152 140.161 43.944C140.397 43.736 140.721 43.632 141.133 43.632C141.325 43.632 141.501 43.654 141.661 43.698C141.825 43.738 141.965 43.806 142.081 43.902C142.201 43.994 142.293 44.114 142.357 44.262C142.425 44.406 142.459 44.58 142.459 44.784V44.904H141.631C141.631 44.7 141.595 44.544 141.523 44.436C141.451 44.324 141.331 44.268 141.163 44.268C141.067 44.268 140.987 44.282 140.923 44.31C140.859 44.338 140.807 44.376 140.767 44.424C140.731 44.468 140.705 44.52 140.689 44.58C140.677 44.64 140.671 44.702 140.671 44.766C140.671 44.898 140.699 45.01 140.755 45.102C140.811 45.19 140.931 45.272 141.115 45.348L141.781 45.636C141.945 45.708 142.079 45.784 142.183 45.864C142.287 45.94 142.369 46.024 142.429 46.116C142.493 46.204 142.537 46.302 142.561 46.41C142.585 46.518 142.597 46.638 142.597 46.77C142.597 47.222 142.465 47.552 142.201 47.76C141.941 47.964 141.577 48.066 141.109 48.066C140.621 48.066 140.271 47.96 140.059 47.748C139.851 47.536 139.747 47.232 139.747 46.836V46.662H140.611ZM145.535 43.716V44.424H144.599V48H143.735V44.424H142.799V43.716H145.535ZM145.951 48V43.716H146.815V48H145.951ZM148.23 45.858C148.23 46.146 148.236 46.392 148.248 46.596C148.264 46.796 148.292 46.96 148.332 47.088C148.376 47.212 148.436 47.304 148.512 47.364C148.592 47.42 148.696 47.448 148.824 47.448C148.952 47.448 149.054 47.42 149.13 47.364C149.21 47.304 149.27 47.212 149.31 47.088C149.354 46.96 149.382 46.796 149.394 46.596C149.41 46.392 149.418 46.146 149.418 45.858C149.418 45.57 149.41 45.326 149.394 45.126C149.382 44.926 149.354 44.762 149.31 44.634C149.27 44.506 149.21 44.414 149.13 44.358C149.054 44.298 148.952 44.268 148.824 44.268C148.696 44.268 148.592 44.298 148.512 44.358C148.436 44.414 148.376 44.506 148.332 44.634C148.292 44.762 148.264 44.926 148.248 45.126C148.236 45.326 148.23 45.57 148.23 45.858ZM149.904 48.51L149.394 48C149.234 48.044 149.044 48.066 148.824 48.066C148.5 48.066 148.242 48.014 148.05 47.91C147.858 47.806 147.71 47.656 147.606 47.46C147.506 47.264 147.44 47.03 147.408 46.758C147.38 46.486 147.366 46.186 147.366 45.858C147.366 45.534 147.38 45.236 147.408 44.964C147.44 44.688 147.506 44.452 147.606 44.256C147.71 44.06 147.858 43.908 148.05 43.8C148.242 43.688 148.5 43.632 148.824 43.632C149.148 43.632 149.406 43.688 149.598 43.8C149.79 43.908 149.936 44.06 150.036 44.256C150.14 44.452 150.206 44.688 150.234 44.964C150.266 45.236 150.282 45.534 150.282 45.858C150.282 46.222 150.262 46.552 150.222 46.848C150.182 47.144 150.092 47.394 149.952 47.598L150.414 48.048L149.904 48.51ZM151.6 43.716V46.704C151.6 46.812 151.606 46.912 151.618 47.004C151.634 47.092 151.66 47.17 151.696 47.238C151.736 47.302 151.788 47.354 151.852 47.394C151.92 47.43 152.004 47.448 152.104 47.448C152.208 47.448 152.292 47.43 152.356 47.394C152.42 47.354 152.47 47.302 152.506 47.238C152.546 47.17 152.572 47.092 152.584 47.004C152.6 46.912 152.608 46.812 152.608 46.704V43.716H153.472V46.704C153.472 46.976 153.434 47.202 153.358 47.382C153.282 47.558 153.18 47.698 153.052 47.802C152.924 47.906 152.778 47.976 152.614 48.012C152.45 48.048 152.28 48.066 152.104 48.066C151.928 48.066 151.758 48.05 151.594 48.018C151.43 47.986 151.284 47.922 151.156 47.826C151.028 47.726 150.926 47.586 150.85 47.406C150.774 47.226 150.736 46.992 150.736 46.704V43.716H151.6ZM156.413 43.716V44.424H154.883V45.432H156.323V46.14H154.883V47.292H156.473V48H154.019V43.716H156.413Z" fill="#1C1C1B"/>
<path d="M137.923 28.0422C137.985 28.0091 138.059 27.947 138.097 27.8228C138.241 27.3302 137.575 25.7984 133.24 18.0774C134.557 17.1998 137.115 15.4982 139.55 14.2231C140.891 13.5235 142.365 13.1675 143.93 13.1675C144.484 13.1675 145.871 13.42 146.397 13.5608C146.807 14.2728 147.2 14.9062 147.569 15.4403C148.869 17.3198 151.046 21.1741 151.067 21.2155C151.075 21.232 151.092 21.2486 151.104 21.2652C151.133 21.2941 151.398 21.555 151.717 21.555C151.82 21.555 151.916 21.5301 152.007 21.4763C152.367 21.2569 152.292 20.8305 152.201 20.6235C152.181 20.5821 152.16 20.5324 152.127 20.4744C151.916 20.0025 151.353 18.7646 148.041 13.5483L148.521 13.4573L155.016 22.6313L154.888 22.6603C154.615 22.7307 154.383 22.9129 154.217 23.1944C153.977 23.6705 151.775 27.918 148.736 29.4953C147.014 30.3854 145.134 30.8367 143.151 30.8367C141.168 30.8367 139.62 30.373 139.049 30.1743C138.581 30.0128 138.109 29.93 137.645 29.93C137.231 29.93 136.826 29.9963 136.441 30.1205L130.719 19.0751L131.51 19.0296C131.663 19.0213 131.812 18.9799 131.94 18.9095C132.723 20.3213 136.047 26.2869 136.962 27.6158C137.107 27.8269 137.302 28.1126 137.645 28.1126C137.736 28.1126 137.832 28.0878 137.923 28.0422ZM156.743 23.0495L149.175 12.3643L149.129 12.2939C149.072 12.2194 148.98 12.178 148.885 12.1987L147.279 12.5092C147.258 12.5092 147.217 12.5009 147.209 12.5009L146.082 12.207C145.387 12.0704 144.662 12 143.93 12C142.17 12 140.518 12.4016 139.011 13.1882C136.217 14.6537 133.791 16.231 132.595 17.0466L131.415 17.8621L129.225 17.9946C129.146 17.9988 129.071 18.0443 129.03 18.1147C128.993 18.1851 128.989 18.272 129.026 18.3424L135.795 31.4204C135.857 31.5363 136.002 31.5819 136.114 31.528L136.416 31.3832C137.107 31.0478 137.894 31.0106 138.664 31.2755C139.293 31.4949 140.99 32 143.156 32C145.329 32 147.387 31.5073 149.274 30.5303C152.59 28.8123 154.901 24.4322 155.228 23.7822L156.61 23.4221C156.685 23.4014 156.747 23.3475 156.776 23.273C156.801 23.1985 156.788 23.1157 156.743 23.0495Z" fill="#1C1C1B"/>
<path d="M139.388 29.4042H139.454C139.516 29.4042 139.525 29.4001 139.715 29.2055C141.76 27.1231 143.871 25.7031 145.983 24.9828C148.815 24.0182 151.187 23.6746 152.077 23.5462C152.549 23.48 152.565 23.4758 152.569 23.3558L152.561 23.2399L152.458 23.2192C152.433 23.215 151.849 23.0908 150.843 23.0908C149.709 23.0908 147.887 23.2523 145.652 24.0099C141.624 25.3843 139.433 28.6383 139.342 28.7749C139.226 28.953 139.226 29.1765 139.347 29.3545" fill="#1C1C1B"/>
<path d="M151.965 25.463C151.907 25.463 151.891 25.4713 151.518 25.728C147.875 28.2202 144.828 29.4829 142.464 29.4829C142.112 29.4829 141.768 29.4539 141.446 29.3959L141.412 29.3918C141.354 29.3918 141.301 29.4208 141.276 29.4746C141.214 29.5905 141.326 29.7768 141.379 29.8513C141.45 29.959 141.566 30.0294 141.711 30.0583C142.278 30.1743 142.857 30.2364 143.433 30.2364C148.508 30.2364 152.06 25.699 152.081 25.6493L152.11 25.5831L152.036 25.463" fill="#1C1C1B"/>
</g>
<defs>
<clipPath id="clip0_26_18064">
<rect width="227" height="61" fill="white"/>
</clipPath>
</defs>
</svg>
