<svg width="312" height="61" viewBox="0 0 312 61" fill="none" xmlns="http://www.w3.org/2000/svg">
<g clip-path="url(#clip0_66_1463)">
<path d="M24.6979 60.4688C11.0781 60.4688 0 49.5208 0 36.0625V0H286.948C300.563 0 311.641 10.9479 311.641 24.4062V60.4688" fill="white"/>
<path d="M244.083 52.9114H69.1353C59.6874 52.9114 51.9999 45.3541 51.9999 36.0625V7.55725H226.948C236.396 7.55725 244.083 15.1145 244.083 24.4062V52.9114ZM227 6L50.1667 5.66663L50.1145 36.0625C50.1145 46.3958 58.6458 54.802 69.1353 54.802L245.969 55V24.4062C245.969 14.0729 237.49 6 227 6Z" fill="#010101"/>
<path d="M102.901 5.66663H50.1145V36.0625C50.1145 46.3958 58.6458 54.802 69.1353 54.802H121.927V24.4062C121.927 14.0729 113.391 5.66663 102.901 5.66663Z" fill="#010101"/>
<path d="M63.651 29.3594C58.8489 29.3594 54.9583 33.25 54.9583 38.0521C54.9583 42.8542 58.8489 46.7448 63.651 46.7448C68.4583 46.7448 72.3489 42.8542 72.3489 38.0521C72.3489 33.25 68.4583 29.3594 63.651 29.3594Z" fill="white"/>
<path d="M69.3229 39.4688H65.0729V43.7188H62.2344V39.4688H57.9844V36.6355H62.2344V32.3802H65.0729V36.6355H69.3229" fill="#1C1C1B"/>
<path d="M55.7864 26.5937V17.1979H58.2708V24.5156H61.828V26.5937" fill="white"/>
<path d="M62.9426 26.5937V17.1979H69.0155V19.276H65.4322V20.7552H68.4947V22.8385H65.4322V24.5156H69.1614V26.5937" fill="white"/>
<path d="M75.0885 26.5937V19.276H72.6041V17.1979H80.0677V19.276H77.5781V26.5937" fill="white"/>
<path d="M83.5521 21.4739H84.4479C85.4479 21.4739 85.9531 21.0625 85.9531 20.2343C85.9531 19.8281 85.8229 19.5468 85.5677 19.3958C85.3125 19.2395 84.9375 19.1614 84.4479 19.1614H83.5521V21.4739ZM81.0625 26.5989V17.1979H84.6198C85.125 17.1979 85.6042 17.2448 86.0625 17.3385C86.5208 17.4375 86.9167 17.5989 87.2604 17.8333C87.6042 18.0625 87.875 18.375 88.0781 18.7656C88.2813 19.1562 88.3802 19.6458 88.3802 20.2343C88.3802 20.9062 88.2448 21.4687 87.9688 21.9114C87.6979 22.3541 87.3281 22.6979 86.8646 22.9531L88.901 26.5989H86.125L84.5052 23.4427H83.5521V26.5989" fill="white"/>
<path d="M89.8698 26.5989H92.3593V17.1979H89.8698V26.5989Z" fill="white"/>
<path d="M75.3801 43.276V33.8698H81.5103V35.9531H77.8697V37.75H80.9895V39.8333H77.8697V43.276" fill="white"/>
<path d="M84.9218 38.7031L84.7604 39.3541H86.4948L86.3385 38.7031C86.2239 38.25 86.1041 37.7604 85.9895 37.2291C85.875 36.6979 85.7604 36.1979 85.6406 35.7239H85.5833C85.4791 36.2031 85.3698 36.7083 85.2604 37.2343C85.151 37.7604 85.0364 38.25 84.9218 38.7031ZM81.3073 43.276L84.1666 33.8698H87.1718L90.0364 43.276H87.4062L86.9427 41.276H84.3125L83.8489 43.276" fill="white"/>
<path d="M94.5624 43.4479C93.9687 43.4479 93.3958 43.3489 92.8541 43.151C92.3072 42.9531 91.8333 42.651 91.4218 42.2552C91.0103 41.8541 90.6822 41.3541 90.4426 40.75C90.203 40.1458 90.0833 39.4479 90.0833 38.6458C90.0833 37.8541 90.2083 37.151 90.4583 36.5416C90.7083 35.927 91.0416 35.4114 91.4635 34.9948C91.8801 34.5729 92.3645 34.25 92.9114 34.0312C93.4583 33.8073 94.026 33.6979 94.6249 33.6979C95.2499 33.6979 95.8124 33.8229 96.302 34.0677C96.7968 34.3125 97.2083 34.6041 97.5468 34.9427L96.2447 36.5312C96.0155 36.3333 95.776 36.1666 95.5312 36.0312C95.2812 35.9062 94.9999 35.8385 94.6822 35.8385C94.401 35.8385 94.1405 35.901 93.8958 36.026C93.651 36.151 93.4322 36.3333 93.2447 36.5625C93.0572 36.7916 92.9062 37.0781 92.7968 37.4166C92.6822 37.75 92.6301 38.1354 92.6301 38.5573C92.6301 39.4479 92.8124 40.125 93.1874 40.5989C93.5572 41.0677 94.0468 41.3073 94.651 41.3073C95.0208 41.3073 95.3437 41.2291 95.6301 41.0677C95.9114 40.9062 96.1562 40.7187 96.3593 40.4948L97.6614 42.0573C97.2551 42.5208 96.7916 42.8698 96.2655 43.0989C95.7395 43.3333 95.1718 43.4479 94.5624 43.4479Z" fill="white"/>
<path d="M98.6198 43.276H101.104V33.8698H98.6198V43.276Z" fill="white"/>
<path d="M102.875 43.276V33.8698H105.365V41.1927H108.922V43.276" fill="white"/>
<path d="M110.031 43.276V33.8698H116.109V35.9531H112.521V37.4323H115.589V39.5156H112.521V41.1927H116.255V43.276" fill="white"/>
<path fill-rule="evenodd" clip-rule="evenodd" d="M16.2604 29.1927C16.2604 29.1927 15.9115 29.151 15.6771 29.7968L13.5573 35.7083C15.224 37.1198 17.1823 38.1823 19.3281 38.8073L16.7552 29.7708C16.5781 29.125 16.2604 29.1927 16.2604 29.1927ZM5.67188 23.6979C5.67188 13.7552 13.7604 5.66663 23.7031 5.66663C28.9635 5.66663 33.7083 7.93225 37.0052 11.5364L35.3906 13.177C32.5104 9.97913 28.3385 7.9635 23.7031 7.9635C15.026 7.9635 7.96875 15.0208 7.96875 23.6979C7.96875 27.5208 9.34375 31.0312 11.6198 33.7604L14.2656 20.7968C14.7396 18.5104 16.8854 16.7552 19.0521 17.1562C20.6406 17.4583 28.0938 22.3958 28.0938 22.3958C28.7292 22.802 28.375 23.3489 28.375 23.3489C28.375 23.3489 28.0729 23.875 27.4479 23.6041L21.9792 21.4062C21.0052 20.9948 19.4323 21.4323 19.6667 24.1875L21.3802 38.7864L21.4531 39.2656C22.1875 39.375 22.9375 39.4323 23.7031 39.4323C24.1875 39.4323 24.6719 39.401 25.1458 39.3541L25.0052 37.4531L28.6979 40.2708L25.3958 43.4635L25.276 41.651C24.7552 41.6979 24.2344 41.7291 23.7031 41.7291C13.7604 41.7291 5.67188 33.6406 5.67188 23.6979ZM19.9375 16.4115C18.4167 16.4115 17.1875 15.1823 17.1875 13.6562C17.1875 12.1354 18.4167 10.9062 19.9375 10.9062C21.4583 10.9062 22.6927 12.1354 22.6927 13.6562C22.6927 15.1823 21.4583 16.4115 19.9375 16.4115ZM37.1046 24.564C37.7365 24.0543 39.7005 22.4703 40.1613 19.1927L40.2342 18.1823L42.0519 18.2864L38.0259 12.8541L33.2134 17.6927L34.979 17.7656L34.9998 17.7708C35.0415 17.9687 35.2446 19.2656 34.5571 21.3177C33.7967 23.6041 31.4373 26.2916 28.4634 25.8177C32.6457 27.5677 36.0311 25.4375 37.0936 24.5729L37.1046 24.564ZM28.375 25.8489C29.5781 28.6093 33.1146 29.1406 35.4479 28.552C37.5208 28.026 38.5052 27.1718 38.6719 27.0156L38.6615 27L37.776 25.4635L44.4427 26.9218L42.0312 33.2395L41.1354 31.6458L40.2656 32.1198C37.2654 33.4985 34.8744 32.7065 34.0978 32.4492L34.0781 32.4427C32.7812 32.0156 29.1562 30.3125 28.375 25.8489ZM28.4062 25.7448C26.7135 28.2343 28.151 31.5104 29.8958 33.1718C31.4895 34.6823 32.7655 35.0364 32.9322 35.0781L33.7447 33.5208L36.0885 39.9323L29.4635 41.2812L30.3437 39.6458L29.4478 39.1458C26.6887 37.3493 26.0817 34.9168 25.8818 34.1162L25.8749 34.0885C25.5416 32.7604 25.0468 28.7864 28.4062 25.7448Z" fill="#010101"/>
<path d="M131.328 30.308H132.096C132.44 30.308 132.716 30.204 132.924 29.996C133.14 29.788 133.248 29.464 133.248 29.024C133.248 28.592 133.156 28.264 132.972 28.04C132.788 27.816 132.48 27.704 132.048 27.704H131.328V30.308ZM129.6 26.432H132.624C133.064 26.432 133.432 26.508 133.728 26.66C134.032 26.804 134.276 26.996 134.46 27.236C134.644 27.476 134.776 27.752 134.856 28.064C134.936 28.368 134.976 28.68 134.976 29C134.976 29.44 134.908 29.824 134.772 30.152C134.644 30.48 134.46 30.748 134.22 30.956C133.988 31.164 133.704 31.32 133.368 31.424C133.032 31.528 132.66 31.58 132.252 31.58H131.328V35H129.6V26.432ZM138.953 31.772L138.125 27.92H138.101L137.273 31.772H138.953ZM139.181 26.432L141.449 35H139.649L139.253 33.188H136.973L136.577 35H134.777L137.045 26.432H139.181ZM142.045 26.432H145.237C145.957 26.432 146.517 26.616 146.917 26.984C147.317 27.344 147.517 27.896 147.517 28.64C147.517 29.216 147.401 29.688 147.169 30.056C146.937 30.416 146.577 30.648 146.089 30.752V30.776C146.521 30.84 146.837 30.98 147.037 31.196C147.237 31.412 147.361 31.76 147.409 32.24C147.425 32.4 147.437 32.576 147.445 32.768C147.453 32.952 147.461 33.16 147.469 33.392C147.485 33.848 147.509 34.196 147.541 34.436C147.589 34.676 147.693 34.84 147.853 34.928V35H145.981C145.893 34.88 145.837 34.744 145.813 34.592C145.789 34.432 145.773 34.268 145.765 34.1L145.717 32.456C145.701 32.12 145.617 31.856 145.465 31.664C145.313 31.472 145.057 31.376 144.697 31.376H143.773V35H142.045V26.432ZM143.773 30.176H144.493C144.909 30.176 145.229 30.08 145.453 29.888C145.677 29.688 145.789 29.356 145.789 28.892C145.789 28.1 145.389 27.704 144.589 27.704H143.773V30.176ZM152.289 31.772L151.461 27.92H151.437L150.609 31.772H152.289ZM152.517 26.432L154.785 35H152.985L152.589 33.188H150.309L149.913 35H148.113L150.381 26.432H152.517ZM157.109 30.308H157.877C158.221 30.308 158.497 30.204 158.705 29.996C158.921 29.788 159.029 29.464 159.029 29.024C159.029 28.592 158.937 28.264 158.753 28.04C158.569 27.816 158.261 27.704 157.829 27.704H157.109V30.308ZM155.381 26.432H158.405C158.845 26.432 159.213 26.508 159.509 26.66C159.813 26.804 160.057 26.996 160.241 27.236C160.425 27.476 160.557 27.752 160.637 28.064C160.717 28.368 160.757 28.68 160.757 29C160.757 29.44 160.689 29.824 160.553 30.152C160.425 30.48 160.241 30.748 160.001 30.956C159.769 31.164 159.485 31.32 159.149 31.424C158.813 31.528 158.441 31.58 158.033 31.58H157.109V35H155.381V26.432ZM161.604 35V26.432H163.332V33.584H166.392V35H161.604ZM168.779 26.432V32.408C168.779 32.624 168.791 32.824 168.815 33.008C168.847 33.184 168.899 33.34 168.971 33.476C169.051 33.604 169.155 33.708 169.283 33.788C169.419 33.86 169.587 33.896 169.787 33.896C169.995 33.896 170.163 33.86 170.291 33.788C170.419 33.708 170.519 33.604 170.591 33.476C170.671 33.34 170.723 33.184 170.747 33.008C170.779 32.824 170.795 32.624 170.795 32.408V26.432H172.523V32.408C172.523 32.952 172.447 33.404 172.295 33.764C172.143 34.116 171.939 34.396 171.683 34.604C171.427 34.812 171.135 34.952 170.807 35.024C170.479 35.096 170.139 35.132 169.787 35.132C169.435 35.132 169.095 35.1 168.767 35.036C168.439 34.972 168.147 34.844 167.891 34.652C167.635 34.452 167.431 34.172 167.279 33.812C167.127 33.452 167.051 32.984 167.051 32.408V26.432H168.779ZM173.7 35V26.432H175.428V35H173.7ZM181.497 26.432V27.848H178.437V29.864H181.317V31.28H178.437V33.584H181.617V35H176.709V26.432H181.497Z" fill="black"/>
<path d="M191 6H217V55H210H191L204.5 28.5L191 6Z" fill="#010101"/>
<path d="M217 6H288C297.941 6 306 14.0589 306 24V55H217V6Z" fill="black"/>
<rect x="217" y="8" width="31" height="31" fill="black"/>
<path fill-rule="evenodd" clip-rule="evenodd" d="M230.109 14.1063C229.715 13.9593 229.442 13.9112 229.26 13.9138C229.076 13.9164 229.017 13.9696 229.005 13.983C228.994 13.9948 228.976 14.0235 228.975 14.1029C228.974 14.1628 228.984 14.2337 229.004 14.3061L231.457 16.7194H233.07C233.35 16.3731 233.982 15.6937 235.041 14.766C235.332 14.5109 235.438 14.3351 235.469 14.2426C235.486 14.1909 235.48 14.1822 235.466 14.1637L235.464 14.1606C235.428 14.1114 235.342 14.0437 235.193 13.9816C235.059 13.9255 234.904 13.8872 234.762 13.8665C234.659 13.8692 234.582 13.8932 234.446 13.9423L234.419 13.9521C234.371 13.9696 234.335 13.9876 234.3 14.0059C234.226 14.0437 234.15 14.0826 233.951 14.1204C233.636 14.1804 233.41 14.185 233.155 14.124C232.99 14.0845 232.808 14.0142 232.587 13.9294C232.511 13.8998 232.429 13.8684 232.342 13.8359L232.34 13.8357C232.335 13.835 232.315 13.8327 232.278 13.8341C232.224 13.8361 232.153 13.8447 232.066 13.86C231.894 13.8904 231.691 13.9409 231.477 13.9945L231.464 13.9977C231.252 14.0505 231.026 14.1067 230.837 14.1369C230.742 14.1519 230.644 14.1628 230.554 14.1606L230.525 14.1602C230.431 14.1593 230.201 14.1571 230.109 14.1063ZM231.242 13.1757C230.947 13.2429 230.406 13.3023 230.406 13.3023C230.09 13.2908 229.86 13.2277 229.667 13.1747C229.513 13.1326 229.383 13.0968 229.251 13.0987C228.953 13.1029 228.694 13.1923 228.508 13.3963C228.321 13.6018 228.262 13.8653 228.259 14.0916C228.257 14.3145 228.307 14.5303 228.37 14.7023L228.402 14.7912L230.578 16.9319C229.757 17.1125 228.88 17.4785 228.072 18.1145C226.533 19.3262 225.301 21.4723 225.126 25.024C225.115 25.2552 225.102 25.4899 225.09 25.7262C225.038 26.698 224.984 27.698 225.004 28.6023C225.029 29.71 225.162 30.7759 225.615 31.5044C226.429 32.813 227.76 33.4463 229.037 33.7444C230.31 34.0416 231.582 34.019 232.369 33.9721C233.089 33.9584 234.275 33.9154 235.49 33.6601C236.701 33.4057 238.004 32.9283 238.895 31.9992C239.611 31.2516 239.855 30.1504 239.929 28.9703C239.987 28.0415 239.943 26.9912 239.898 25.9219L239.898 25.9218L239.898 25.9216C239.886 25.6252 239.873 25.3272 239.863 25.03C239.746 21.692 238.518 19.598 236.98 18.3585C235.982 17.5541 234.871 17.124 233.887 16.9376C234.206 16.5912 234.724 16.0726 235.477 15.4121C235.806 15.1237 236.036 14.8353 236.137 14.5344C236.251 14.1954 236.189 13.8795 236.014 13.6398C235.86 13.4286 235.636 13.2982 235.439 13.216C235.234 13.1306 235.014 13.0793 234.824 13.0539L234.803 13.0511H234.782C234.552 13.0511 234.386 13.1088 234.23 13.1653L234.204 13.1747C234.062 13.2261 233.907 13.282 233.663 13.3284C233.449 13.3691 233.436 13.3656 233.355 13.3435L233.355 13.3435L233.355 13.3435C233.339 13.3391 233.32 13.334 233.297 13.3284C233.176 13.2994 233.051 13.2515 232.854 13.1757C232.847 13.1727 232.833 13.1658 232.815 13.1563C232.723 13.1093 232.511 13 232.269 13C231.911 13 231.568 13.0906 231.362 13.1452C231.314 13.1578 231.273 13.1685 231.242 13.1757ZM228.598 18.7826C227.294 19.8098 226.141 21.7024 225.975 25.0658C225.964 25.3062 225.951 25.5471 225.938 25.7873L225.938 25.7873L225.938 25.7874C225.886 26.7564 225.835 27.7147 225.854 28.5836C225.879 29.6845 226.017 30.5403 226.337 31.0555C226.986 32.0991 228.071 32.6458 229.23 32.9165C230.389 33.1869 231.569 33.1684 232.327 33.1229L232.336 33.1224L232.345 33.1222C233.051 33.1089 234.176 33.0673 235.316 32.828C236.465 32.5867 237.566 32.1565 238.281 31.411C238.778 30.8917 239.009 30.0543 239.08 28.9168C239.136 28.0371 239.094 27.048 239.05 25.9868L239.05 25.9866C239.037 25.6833 239.024 25.3741 239.013 25.0598C238.903 21.9361 237.769 20.0859 236.447 19.0204C235.443 18.2117 234.307 17.8352 233.37 17.7159C234.146 18.5301 235.026 19.349 235.507 19.6446L235.061 20.3687C234.86 20.1673 234.557 19.9036 234.208 19.5994L234.208 19.5994C233.705 19.1614 233.106 18.6395 232.574 18.0991C232.548 18.4454 232.525 18.8325 232.515 19.1999C232.507 19.5164 232.509 19.8104 232.526 20.048C232.534 20.1669 232.546 20.2653 232.56 20.3418C232.567 20.3798 232.574 20.4092 232.581 20.4311C232.587 20.4519 232.591 20.4611 232.591 20.462L232.652 20.7938L231.831 20.8422C231.732 20.6443 231.696 20.3607 231.678 20.1075C231.659 19.8317 231.657 19.5076 231.666 19.1781C231.672 18.9159 231.685 18.6454 231.702 18.3858C231.011 19.0527 230.284 19.6307 229.748 20.0572C229.673 20.1168 229.601 20.1734 229.535 20.227L229.089 19.5029C229.561 19.1737 230.435 18.4574 231.209 17.6831C230.385 17.7926 229.447 18.1141 228.598 18.7826Z" fill="white"/>
<path d="M222.263 43.1H223.397C223.78 43.1 224.067 43.2027 224.258 43.408C224.449 43.6133 224.545 43.9143 224.545 44.311V44.794C224.545 45.1907 224.449 45.4917 224.258 45.697C224.067 45.9023 223.78 46.005 223.397 46.005H223.033V48H222.263V43.1ZM223.397 45.305C223.523 45.305 223.616 45.27 223.677 45.2C223.742 45.13 223.775 45.011 223.775 44.843V44.262C223.775 44.094 223.742 43.975 223.677 43.905C223.616 43.835 223.523 43.8 223.397 43.8H223.033V45.305H223.397ZM226.076 48.07C225.698 48.07 225.409 47.9627 225.208 47.748C225.008 47.5333 224.907 47.23 224.907 46.838V44.262C224.907 43.87 225.008 43.5667 225.208 43.352C225.409 43.1373 225.698 43.03 226.076 43.03C226.454 43.03 226.744 43.1373 226.944 43.352C227.145 43.5667 227.245 43.87 227.245 44.262V46.838C227.245 47.23 227.145 47.5333 226.944 47.748C226.744 47.9627 226.454 48.07 226.076 48.07ZM226.076 47.37C226.342 47.37 226.475 47.209 226.475 46.887V44.213C226.475 43.891 226.342 43.73 226.076 43.73C225.81 43.73 225.677 43.891 225.677 44.213V46.887C225.677 47.209 225.81 47.37 226.076 47.37ZM228.886 48.07C228.513 48.07 228.228 47.965 228.032 47.755C227.836 47.5403 227.738 47.2347 227.738 46.838V43.1H228.508V46.894C228.508 47.062 228.541 47.1833 228.606 47.258C228.676 47.3327 228.774 47.37 228.9 47.37C229.026 47.37 229.122 47.3327 229.187 47.258C229.257 47.1833 229.292 47.062 229.292 46.894V43.1H230.034V46.838C230.034 47.2347 229.936 47.5403 229.74 47.755C229.544 47.965 229.259 48.07 228.886 48.07ZM230.582 43.1H231.744C232.141 43.1 232.43 43.1933 232.612 43.38C232.794 43.562 232.885 43.8443 232.885 44.227V44.423C232.885 44.675 232.843 44.8803 232.759 45.039C232.68 45.1977 232.556 45.312 232.388 45.382V45.396C232.771 45.5267 232.962 45.8673 232.962 46.418V46.838C232.962 47.216 232.862 47.5053 232.661 47.706C232.465 47.902 232.176 48 231.793 48H230.582V43.1ZM231.653 45.095C231.807 45.095 231.922 45.0553 231.996 44.976C232.076 44.8967 232.115 44.7637 232.115 44.577V44.304C232.115 44.1267 232.083 43.9983 232.017 43.919C231.957 43.8397 231.859 43.8 231.723 43.8H231.352V45.095H231.653ZM231.793 47.3C231.929 47.3 232.029 47.265 232.094 47.195C232.16 47.1203 232.192 46.9943 232.192 46.817V46.39C232.192 46.166 232.153 46.012 232.073 45.928C231.999 45.8393 231.873 45.795 231.695 45.795H231.352V47.3H231.793ZM233.412 43.1H235.512V43.8H234.182V45.095H235.239V45.795H234.182V47.3H235.512V48H233.412V43.1ZM235.955 43.1H236.725V47.3H237.992V48H235.955V43.1ZM238.362 43.1H239.132V47.3H240.399V48H238.362V43.1ZM240.768 43.1H242.868V43.8H241.538V45.095H242.595V45.795H241.538V47.3H242.868V48H240.768V43.1Z" fill="white"/>
<path d="M255.59 31.07C255.212 31.07 254.923 30.9627 254.722 30.748C254.522 30.5333 254.421 30.23 254.421 29.838V27.262C254.421 26.87 254.522 26.5667 254.722 26.352C254.923 26.1373 255.212 26.03 255.59 26.03C255.968 26.03 256.258 26.1373 256.458 26.352C256.659 26.5667 256.759 26.87 256.759 27.262V29.838C256.759 30.23 256.659 30.5333 256.458 30.748C256.258 30.9627 255.968 31.07 255.59 31.07ZM255.59 30.37C255.856 30.37 255.989 30.209 255.989 29.887V27.213C255.989 26.891 255.856 26.73 255.59 26.73C255.324 26.73 255.191 26.891 255.191 27.213V29.887C255.191 30.209 255.324 30.37 255.59 30.37ZM258.4 31.07C258.027 31.07 257.742 30.965 257.546 30.755C257.35 30.5403 257.252 30.2347 257.252 29.838V26.1H258.022V29.894C258.022 30.062 258.055 30.1833 258.12 30.258C258.19 30.3327 258.288 30.37 258.414 30.37C258.54 30.37 258.636 30.3327 258.701 30.258C258.771 30.1833 258.806 30.062 258.806 29.894V26.1H259.548V29.838C259.548 30.2347 259.45 30.5403 259.254 30.755C259.058 30.965 258.773 31.07 258.4 31.07Z" fill="white"/>
<rect x="266" y="8" width="31" height="31" fill="black"/>
<path d="M269.11 43.1H270.286C270.668 43.1 270.955 43.2027 271.147 43.408C271.338 43.6133 271.434 43.9143 271.434 44.311V46.789C271.434 47.1857 271.338 47.4867 271.147 47.692C270.955 47.8973 270.668 48 270.286 48H269.11V43.1ZM270.272 47.3C270.398 47.3 270.493 47.2627 270.559 47.188C270.629 47.1133 270.664 46.992 270.664 46.824V44.276C270.664 44.108 270.629 43.9867 270.559 43.912C270.493 43.8373 270.398 43.8 270.272 43.8H269.88V47.3H270.272ZM271.954 43.1H274.054V43.8H272.724V45.095H273.781V45.795H272.724V47.3H274.054V48H271.954V43.1ZM273.074 41.966H273.914L273.165 42.771H272.584L273.074 41.966ZM275.581 48.07C275.213 48.07 274.93 47.965 274.734 47.755C274.543 47.545 274.447 47.2487 274.447 46.866V44.234C274.447 43.8513 274.543 43.555 274.734 43.345C274.93 43.135 275.213 43.03 275.581 43.03C275.95 43.03 276.23 43.135 276.421 43.345C276.617 43.555 276.715 43.8513 276.715 44.234V44.752H275.987V44.185C275.987 43.8817 275.859 43.73 275.602 43.73C275.346 43.73 275.217 43.8817 275.217 44.185V46.922C275.217 47.2207 275.346 47.37 275.602 47.37C275.859 47.37 275.987 47.2207 275.987 46.922V46.173H276.715V46.866C276.715 47.2487 276.617 47.545 276.421 47.755C276.23 47.965 275.95 48.07 275.581 48.07ZM277.176 43.1H277.946V45.095H278.772V43.1H279.542V48H278.772V45.795H277.946V48H277.176V43.1ZM280.116 43.1H282.216V43.8H280.886V45.095H281.943V45.795H280.886V47.3H282.216V48H280.116V43.1ZM280.256 41.966H281.096L281.586 42.771H281.005L280.256 41.966ZM283.261 43.8H282.456V43.1H284.836V43.8H284.031V48H283.261V43.8ZM285.208 43.1H287.308V43.8H285.978V45.095H287.035V45.795H285.978V47.3H287.308V48H285.208V43.1ZM287.751 43.1H288.892C289.289 43.1 289.578 43.1933 289.76 43.38C289.942 43.562 290.033 43.8443 290.033 44.227V44.528C290.033 45.0367 289.865 45.3587 289.529 45.494V45.508C289.716 45.564 289.847 45.6783 289.921 45.851C290.001 46.0237 290.04 46.2547 290.04 46.544V47.405C290.04 47.545 290.045 47.6593 290.054 47.748C290.064 47.832 290.087 47.916 290.124 48H289.34C289.312 47.9207 289.294 47.846 289.284 47.776C289.275 47.706 289.27 47.58 289.27 47.398V46.502C289.27 46.278 289.233 46.1217 289.158 46.033C289.088 45.9443 288.965 45.9 288.787 45.9H288.521V48H287.751V43.1ZM288.801 45.2C288.955 45.2 289.07 45.1603 289.144 45.081C289.224 45.0017 289.263 44.8687 289.263 44.682V44.304C289.263 44.1267 289.231 43.9983 289.165 43.919C289.105 43.8397 289.007 43.8 288.871 43.8H288.521V45.2H288.801ZM290.575 43.1H291.345V48H290.575V43.1ZM291.921 43.1H294.021V43.8H292.691V45.095H293.748V45.795H292.691V47.3H294.021V48H291.921V43.1Z" fill="white"/>
<path d="M275.988 32.4392L271.474 32.4342C271.217 32.4342 271.005 32.2268 271.005 31.97L271 27.4806C271 27.293 271.114 27.1201 271.291 27.051C271.464 26.9769 271.667 27.0164 271.8 27.1497L272.684 28.0288L280.29 20.4577C280.473 20.2799 280.769 20.2799 280.952 20.4577L283.046 22.5419C283.135 22.6308 283.184 22.7444 283.184 22.8728C283.184 22.9962 283.135 23.1148 283.046 23.2037L275.44 30.7649L276.319 31.644C276.452 31.7774 276.492 31.9798 276.418 32.1527C276.349 32.3256 276.176 32.4392 275.988 32.4392ZM271.943 31.5008L274.852 31.5057L274.442 31.0958C274.26 30.9131 274.26 30.6167 274.442 30.434L282.048 22.8728L280.621 21.4504L273.015 29.0166C272.832 29.1993 272.536 29.1993 272.353 29.0166L271.938 28.6116" fill="white"/>
<path d="M285.54 25.673C285.179 25.673 284.833 25.5347 284.567 25.2878C284.29 25.031 284.132 24.6803 284.117 24.3L284.048 22.1517L284.987 22.122L285.056 24.2704C285.061 24.3988 285.115 24.5173 285.209 24.6062C285.303 24.6951 285.436 24.7297 285.559 24.7396C285.688 24.7346 285.806 24.6803 285.895 24.5865C285.984 24.4926 286.029 24.3692 286.024 24.2408L285.92 21.3763L286.858 21.3466L286.962 24.2062C286.977 24.5865 286.844 24.947 286.582 25.2236C286.32 25.5001 285.969 25.6582 285.589 25.6681C285.569 25.673 285.555 25.673 285.54 25.673Z" fill="white"/>
<path d="M285.54 25.673C285.179 25.673 284.833 25.5347 284.567 25.2878C284.29 25.031 284.132 24.6803 284.117 24.3L284.048 22.1517L284.987 22.122L285.056 24.2704C285.061 24.3988 285.115 24.5173 285.209 24.6062C285.303 24.6951 285.436 24.7297 285.559 24.7396C285.688 24.7346 285.806 24.6803 285.895 24.5865C285.984 24.4926 286.029 24.3692 286.024 24.2408L285.92 21.3763L286.858 21.3466L286.962 24.2062C286.977 24.5865 286.844 24.947 286.582 25.2236C286.32 25.5001 285.969 25.6582 285.589 25.6681C285.569 25.673 285.555 25.673 285.54 25.673Z" fill="white"/>
<path d="M283.643 25.9941C283.278 25.9941 282.937 25.8607 282.67 25.6138C282.394 25.352 282.231 25.0014 282.221 24.6211L282.152 22.4727L283.09 22.4431L283.159 24.5915C283.164 24.7248 283.219 24.8433 283.312 24.9322C283.406 25.0211 283.53 25.0755 283.658 25.0607C283.925 25.0508 284.137 24.8285 284.127 24.5618L284.024 21.7023L284.962 21.6677L285.066 24.5273C285.095 25.3125 284.478 25.9644 283.693 25.9941C283.673 25.9941 283.658 25.9941 283.643 25.9941Z" fill="white"/>
<path d="M285.258 32.449C285.066 32.449 284.893 32.3305 284.824 32.1576C284.75 31.9848 284.789 31.7823 284.922 31.6489L285.806 30.7698L278.201 23.2037C278.018 23.0259 278.018 22.7295 278.201 22.5468L280.29 20.4627C280.463 20.2898 280.779 20.2898 280.952 20.4627L288.893 28.3597L288.226 29.0215L280.621 21.4553L279.193 22.8777L286.799 30.4389C286.987 30.6217 286.987 30.9229 286.799 31.1007L286.389 31.5107H289.298L289.303 27.4856H290.241L290.236 31.9749C290.236 32.2317 290.029 32.4391 289.767 32.4391L285.258 32.449Z" fill="white"/>
<path d="M280.601 36C280.478 36 280.359 35.9556 280.265 35.8617L277.075 32.696C276.941 32.5626 276.902 32.3601 276.971 32.1873C277.045 32.0095 277.218 31.8959 277.406 31.8959H278.655V23.2037C278.655 22.9469 278.863 22.7345 279.124 22.7345H282.083C282.339 22.7345 282.552 22.9469 282.552 23.2037V32.3651H281.613V23.6729H279.593V32.3651C279.593 32.6219 279.381 32.8293 279.124 32.8293H278.542L280.601 34.874L283.461 32.0342L284.127 32.696L280.932 35.8617C280.838 35.9556 280.72 36 280.601 36Z" fill="white"/>
<path d="M275.983 32.4392L271.474 32.4342C271.217 32.4342 271.005 32.2268 271.005 31.97L271 27.4806C271 27.293 271.114 27.1201 271.291 27.051C271.464 26.9769 271.667 27.0164 271.8 27.1497L272.684 28.0288L280.29 20.4577C280.473 20.2799 280.769 20.2799 280.952 20.4577L283.046 22.5419C283.135 22.6308 283.184 22.7444 283.184 22.8728C283.184 22.9962 283.135 23.1148 283.046 23.2037L275.104 31.0958L274.442 30.434L282.048 22.8728L280.621 21.4504L273.015 29.0166C272.832 29.1993 272.536 29.1993 272.353 29.0166L271.938 28.6116L271.943 31.5008L275.988 31.5057" fill="white"/>
<path d="M291.407 19.0452C291.066 19.0452 290.745 18.9119 290.503 18.6748L286.098 14.2892C285.856 14.0522 285.722 13.7311 285.722 13.3953C285.722 13.0545 285.856 12.7384 286.093 12.4964L287.239 11.3556C287.723 10.8815 288.562 10.8815 289.046 11.3556L293.452 15.7412C293.95 16.2351 293.95 17.0401 293.452 17.534L292.306 18.6748C292.064 18.9119 291.748 19.0452 291.407 19.0452ZM288.142 11.9186C288.054 11.9186 287.97 11.9581 287.905 12.0174V12.0223L286.76 13.1582C286.695 13.2224 286.661 13.3064 286.661 13.3953C286.661 13.4842 286.695 13.5682 286.76 13.6274L291.165 18.013C291.293 18.1414 291.516 18.1365 291.644 18.013L292.79 16.8771C292.918 16.7438 292.918 16.5314 292.785 16.403L288.38 12.0223C288.315 11.9581 288.231 11.9186 288.142 11.9186Z" fill="white"/>
<path d="M286.742 26.6615L283.2 23.5131L282.413 24.3002L282.019 25.8744L284.381 29.0228L286.742 26.6615Z" fill="black"/>
<path d="M285.258 32.449C285.066 32.449 284.893 32.3305 284.824 32.1576C284.75 31.9848 284.789 31.7823 284.922 31.6489L285.806 30.7698L278.201 23.2037C278.018 23.0259 278.018 22.7295 278.201 22.5468L280.29 20.4627C280.463 20.2898 280.779 20.2898 280.952 20.4627L288.562 28.0338L289.441 27.1547C289.575 27.0213 289.777 26.9818 289.955 27.0559C290.128 27.125 290.241 27.2979 290.241 27.4856L290.236 31.9749C290.236 32.2317 290.029 32.4391 289.767 32.4391L285.258 32.449ZM279.193 22.8777L286.799 30.4389C286.987 30.6217 286.987 30.9229 286.799 31.1007L286.389 31.5107H289.298L289.303 28.6165L288.893 29.0215C288.71 29.2043 288.414 29.2043 288.226 29.0215L280.621 21.4553" fill="white"/>
<path d="M277.69 32.5647H279.264V23.5131H282.019L282.413 32.5647H283.2L280.445 35.7131L277.69 32.5647Z" fill="black"/>
<path d="M280.601 36C280.478 36 280.359 35.9556 280.27 35.8617L277.075 32.696C276.941 32.5626 276.902 32.3601 276.971 32.1873C277.045 32.0095 277.218 31.8959 277.406 31.8959H278.655V23.2037C278.655 22.9469 278.863 22.7345 279.124 22.7345H282.083C282.339 22.7345 282.552 22.9469 282.552 23.2037V31.8959H283.791C283.984 31.8959 284.157 32.0095 284.226 32.1873C284.3 32.3601 284.261 32.5626 284.127 32.696L280.932 35.8617C280.838 35.9556 280.72 36 280.601 36ZM278.542 32.8293L280.601 34.874L282.66 32.8293H282.083C281.821 32.8293 281.613 32.6219 281.613 32.3651V23.6729H279.593V32.3651C279.593 32.6219 279.381 32.8293 279.124 32.8293" fill="white"/>
<path d="M282.413 20.8232L280.29 23.658C279.929 24.1371 280.028 24.8186 280.512 25.1742C280.991 25.5347 281.678 25.436 282.038 24.9569L283.362 23.1888C283.89 22.4974 284.483 22.2406 284.769 22.1665C285.406 21.9986 287.323 21.2825 288.35 20.6651C289.372 20.0428 289.901 18.6007 289.846 17.3611L286.789 14.3188L280.3 16.3338C279.509 16.6005 279.223 17.05 279.104 17.3166C278.986 17.5883 277.692 20.6306 277.692 20.6306C277.544 21.0108 277.46 21.4652 277.677 21.8504C277.894 22.2357 278.388 23.0061 278.388 23.0061L279.816 21.5837C279.816 21.5837 279.761 20.7985 279.944 20.3935C280.132 19.9935 280.329 19.3267 280.754 19.1736C281.174 19.0255 281.91 18.7884 281.91 18.7884C281.91 18.7884 281.845 19.628 281.994 20.0774C282.147 20.5268 282.379 20.7935 282.379 20.7935" fill="black"/>
<path d="M281.164 25.8607C280.828 25.8607 280.502 25.7521 280.231 25.5496C279.895 25.3026 279.677 24.9372 279.618 24.5272C279.564 24.1173 279.668 23.7074 279.919 23.3765L281.831 20.8232C281.737 20.6701 281.633 20.4725 281.549 20.2256C281.475 19.9935 281.441 19.7021 281.431 19.4403C281.248 19.4996 281.06 19.5638 280.912 19.6132C280.759 19.6675 280.576 20.1071 280.477 20.3392L280.374 20.5911C280.28 20.7886 280.265 21.2726 280.285 21.5541C280.295 21.6875 280.245 21.8208 280.152 21.9146L278.719 23.337C278.621 23.4358 278.477 23.4852 278.339 23.4704C278.196 23.4555 278.072 23.3765 277.993 23.258C277.993 23.258 277.49 22.4727 277.267 22.0826C277.015 21.6331 277.01 21.0849 277.257 20.4577C277.262 20.4478 278.556 17.4006 278.675 17.1339C278.927 16.561 279.435 16.1314 280.147 15.8894L286.646 13.8743C286.814 13.82 286.997 13.8645 287.12 13.9879L290.182 17.0351C290.266 17.1191 290.311 17.2278 290.315 17.3463C290.37 18.6057 289.851 20.3046 288.592 21.0602C287.525 21.7072 285.589 22.4332 284.888 22.6209C284.784 22.6456 284.241 22.8135 283.737 23.4704L282.413 25.2384C282.162 25.5693 281.801 25.7866 281.386 25.8459C281.312 25.8558 281.238 25.8607 281.164 25.8607ZM281.915 18.3242C282.018 18.3242 282.122 18.3587 282.201 18.4229C282.325 18.5217 282.394 18.6699 282.379 18.8279C282.359 19.1144 282.354 19.6675 282.443 19.9293C282.557 20.2799 282.735 20.4923 282.739 20.4923C282.922 20.6503 282.937 20.9071 282.789 21.1047L280.67 23.9346C280.566 24.0679 280.527 24.2309 280.552 24.3939C280.571 24.5569 280.66 24.705 280.794 24.7989C280.927 24.9026 281.09 24.9372 281.253 24.9223C281.416 24.8977 281.564 24.8088 281.663 24.6803L282.986 22.9073C283.663 22.0282 284.428 21.7714 284.651 21.7171C285.214 21.5689 287.11 20.8676 288.103 20.2651C288.947 19.7564 289.372 18.5563 289.382 17.5587L286.656 14.8522L280.438 16.7783C279.989 16.9314 279.677 17.1784 279.534 17.5043C279.416 17.776 278.127 20.8133 278.127 20.8133C277.993 21.1541 277.978 21.4306 278.087 21.6183C278.181 21.7912 278.334 22.0381 278.472 22.2604L279.342 21.401C279.337 21.0948 279.351 20.5664 279.519 20.2009L279.613 19.9836C279.796 19.5391 280.053 18.9267 280.596 18.7341C281.021 18.5859 281.767 18.3439 281.767 18.3439C281.816 18.3291 281.865 18.3242 281.915 18.3242Z" fill="white"/>
</g>
<defs>
<clipPath id="clip0_66_1463">
<rect width="312" height="61" fill="white"/>
</clipPath>
</defs>
</svg>
