<svg width="280" height="61" viewBox="0 0 280 61" fill="none" xmlns="http://www.w3.org/2000/svg">
<g clip-path="url(#clip0_66_3666)">
<path d="M24.6979 60.4688C11.0781 60.4688 0 49.5208 0 36.0625V0H254.948C268.563 0 279.641 10.9479 279.641 24.4062V60.4688" fill="white"/>
<path d="M242.083 52.9114H69.1353C59.6874 52.9114 51.9999 45.3541 51.9999 36.0625V7.55725H224.948C234.396 7.55725 242.083 15.1145 242.083 24.4062V52.9114ZM224.948 5.66663H50.1145V36.0625C50.1145 46.3958 58.6458 54.802 69.1353 54.802H243.969V24.4062C243.969 14.0729 235.437 5.66663 224.948 5.66663Z" fill="#333347"/>
<path d="M216.714 54.802L229.724 28.2239L216.432 5.66663H254.948C265.437 5.66663 273.969 14.0729 273.969 24.4062V54.802" fill="#333347"/>
<path d="M102.901 5.66663H50.1145V36.0625C50.1145 46.3958 58.6458 54.802 69.1353 54.802H121.927V24.4062C121.927 14.0729 113.391 5.66663 102.901 5.66663Z" fill="#333347"/>
<path d="M63.651 29.3594C58.8489 29.3594 54.9583 33.25 54.9583 38.0521C54.9583 42.8542 58.8489 46.7448 63.651 46.7448C68.4583 46.7448 72.3489 42.8542 72.3489 38.0521C72.3489 33.25 68.4583 29.3594 63.651 29.3594Z" fill="white"/>
<path d="M69.3229 39.4688H65.0729V43.7188H62.2344V39.4688H57.9844V36.6355H62.2344V32.3802H65.0729V36.6355H69.3229" fill="#1C1C1B"/>
<path d="M55.7864 26.5937V17.1979H58.2708V24.5156H61.828V26.5937" fill="white"/>
<path d="M62.9426 26.5937V17.1979H69.0155V19.276H65.4322V20.7552H68.4947V22.8385H65.4322V24.5156H69.1614V26.5937" fill="white"/>
<path d="M75.0885 26.5937V19.276H72.6041V17.1979H80.0677V19.276H77.5781V26.5937" fill="white"/>
<path d="M83.5521 21.4739H84.4479C85.4479 21.4739 85.9531 21.0625 85.9531 20.2343C85.9531 19.8281 85.8229 19.5468 85.5677 19.3958C85.3125 19.2395 84.9375 19.1614 84.4479 19.1614H83.5521V21.4739ZM81.0625 26.5989V17.1979H84.6198C85.125 17.1979 85.6042 17.2448 86.0625 17.3385C86.5208 17.4375 86.9167 17.5989 87.2604 17.8333C87.6042 18.0625 87.875 18.375 88.0781 18.7656C88.2813 19.1562 88.3802 19.6458 88.3802 20.2343C88.3802 20.9062 88.2448 21.4687 87.9688 21.9114C87.6979 22.3541 87.3281 22.6979 86.8646 22.9531L88.901 26.5989H86.125L84.5052 23.4427H83.5521V26.5989" fill="white"/>
<path d="M89.8698 26.5989H92.3593V17.1979H89.8698V26.5989Z" fill="white"/>
<path d="M75.3801 43.276V33.8698H81.5103V35.9531H77.8697V37.75H80.9895V39.8333H77.8697V43.276" fill="white"/>
<path d="M84.9218 38.7031L84.7604 39.3541H86.4948L86.3385 38.7031C86.2239 38.25 86.1041 37.7604 85.9895 37.2291C85.875 36.6979 85.7604 36.1979 85.6406 35.7239H85.5833C85.4791 36.2031 85.3698 36.7083 85.2604 37.2343C85.151 37.7604 85.0364 38.25 84.9218 38.7031ZM81.3073 43.276L84.1666 33.8698H87.1718L90.0364 43.276H87.4062L86.9427 41.276H84.3125L83.8489 43.276" fill="white"/>
<path d="M94.5624 43.4479C93.9687 43.4479 93.3958 43.3489 92.8541 43.151C92.3072 42.9531 91.8333 42.651 91.4218 42.2552C91.0103 41.8541 90.6822 41.3541 90.4426 40.75C90.203 40.1458 90.0833 39.4479 90.0833 38.6458C90.0833 37.8541 90.2083 37.151 90.4583 36.5416C90.7083 35.927 91.0416 35.4114 91.4635 34.9948C91.8801 34.5729 92.3645 34.25 92.9114 34.0312C93.4583 33.8073 94.026 33.6979 94.6249 33.6979C95.2499 33.6979 95.8124 33.8229 96.302 34.0677C96.7968 34.3125 97.2083 34.6041 97.5468 34.9427L96.2447 36.5312C96.0155 36.3333 95.776 36.1666 95.5312 36.0312C95.2812 35.9062 94.9999 35.8385 94.6822 35.8385C94.401 35.8385 94.1405 35.901 93.8958 36.026C93.651 36.151 93.4322 36.3333 93.2447 36.5625C93.0572 36.7916 92.9062 37.0781 92.7968 37.4166C92.6822 37.75 92.6301 38.1354 92.6301 38.5573C92.6301 39.4479 92.8124 40.125 93.1874 40.5989C93.5572 41.0677 94.0468 41.3073 94.651 41.3073C95.0208 41.3073 95.3437 41.2291 95.6301 41.0677C95.9114 40.9062 96.1562 40.7187 96.3593 40.4948L97.6614 42.0573C97.2551 42.5208 96.7916 42.8698 96.2655 43.0989C95.7395 43.3333 95.1718 43.4479 94.5624 43.4479Z" fill="white"/>
<path d="M98.6198 43.276H101.104V33.8698H98.6198V43.276Z" fill="white"/>
<path d="M102.875 43.276V33.8698H105.365V41.1927H108.922V43.276" fill="white"/>
<path d="M110.031 43.276V33.8698H116.109V35.9531H112.521V37.4323H115.589V39.5156H112.521V41.1927H116.255V43.276" fill="white"/>
<path d="M28.4062 25.7448C26.7135 28.2343 28.151 31.5104 29.8958 33.1718C31.4895 34.6823 32.7655 35.0364 32.9322 35.0781L33.7447 33.5208L36.0885 39.9323L29.4635 41.2812L30.3437 39.6458L29.4478 39.1458C26.6562 37.3281 26.0676 34.8593 25.8749 34.0885C25.5416 32.7604 25.0468 28.7864 28.4062 25.7448Z" fill="#333347"/>
<path d="M28.375 25.8489C29.5781 28.6093 33.1146 29.1406 35.4479 28.552C37.5208 28.026 38.5052 27.1718 38.6719 27.0156L38.6615 27L37.776 25.4635L44.4427 26.9218L42.0313 33.2395L41.1354 31.6458L40.2656 32.1198C37.2396 33.5104 34.8333 32.6927 34.0781 32.4427C32.7813 32.0156 29.1562 30.3125 28.375 25.8489Z" fill="#333347"/>
<path d="M40.1613 19.1927C39.6978 22.4895 37.7134 24.0729 37.0936 24.5729C36.0311 25.4375 32.6457 27.5677 28.4634 25.8177C31.4373 26.2916 33.7967 23.6041 34.5571 21.3177C35.2446 19.2656 35.0415 17.9687 34.9998 17.7708L34.979 17.7656L33.2134 17.6927L38.0259 12.8541L42.0519 18.2864L40.2342 18.1823" fill="#333347"/>
<path fill-rule="evenodd" clip-rule="evenodd" d="M19.9375 16.4115C18.4167 16.4115 17.1875 15.1823 17.1875 13.6563C17.1875 12.1354 18.4167 10.9062 19.9375 10.9062C21.4583 10.9062 22.6927 12.1354 22.6927 13.6563C22.6927 15.1823 21.4583 16.4115 19.9375 16.4115Z" fill="#333347"/>
<path d="M15.6771 29.7968C15.9115 29.151 16.2604 29.1927 16.2604 29.1927C16.2604 29.1927 16.5781 29.125 16.7552 29.7708L19.3281 38.8073C17.1823 38.1823 15.224 37.1198 13.5573 35.7083L15.6771 29.7968ZM23.7031 5.66663C13.7604 5.66663 5.67188 13.7552 5.67188 23.6979C5.67188 33.6406 13.7604 41.7291 23.7031 41.7291C24.2344 41.7291 24.7552 41.6979 25.276 41.651L25.3958 43.4635L28.6979 40.2708L25.0052 37.4531L25.1458 39.3541C24.6719 39.401 24.1875 39.4323 23.7031 39.4323C22.9375 39.4323 22.1875 39.375 21.4531 39.2656L21.3802 38.7864L19.6667 24.1875C19.4323 21.4323 21.0052 20.9948 21.9792 21.4062L27.4479 23.6041C28.0729 23.875 28.375 23.3489 28.375 23.3489C28.375 23.3489 28.7292 22.802 28.0938 22.3958C28.0938 22.3958 20.6406 17.4583 19.0521 17.1562C16.8854 16.7552 14.7396 18.5104 14.2656 20.7968L11.6198 33.7604C9.34375 31.0312 7.96875 27.5208 7.96875 23.6979C7.96875 15.0208 15.026 7.9635 23.7031 7.9635C28.3385 7.9635 32.5104 9.97913 35.3906 13.177L37.0052 11.5364C33.7083 7.93225 28.9635 5.66663 23.7031 5.66663Z" fill="#333347"/>
<path d="M131.01 20.94H131.65C131.903 20.94 132.107 20.8967 132.26 20.81C132.413 20.7233 132.533 20.58 132.62 20.38C132.713 20.18 132.773 19.9167 132.8 19.59C132.833 19.2633 132.85 18.8567 132.85 18.37C132.85 17.9633 132.837 17.6067 132.81 17.3C132.783 16.9933 132.727 16.74 132.64 16.54C132.56 16.3333 132.437 16.18 132.27 16.08C132.11 15.9733 131.893 15.92 131.62 15.92H131.01V20.94ZM129.57 14.86H131.93C132.43 14.86 132.833 14.9433 133.14 15.11C133.447 15.27 133.683 15.5033 133.85 15.81C134.023 16.11 134.14 16.4733 134.2 16.9C134.26 17.3267 134.29 17.8033 134.29 18.33C134.29 18.9567 134.25 19.5033 134.17 19.97C134.097 20.43 133.967 20.81 133.78 21.11C133.593 21.41 133.343 21.6333 133.03 21.78C132.717 21.9267 132.32 22 131.84 22H129.57V14.86ZM137.162 13H138.542L137.562 14.44H136.622L137.162 13ZM139.232 14.86V16.04H136.682V17.72H139.082V18.9H136.682V20.82H139.332V22H135.242V14.86H139.232ZM143.107 17.27C143.107 16.75 143.043 16.3733 142.917 16.14C142.797 15.9 142.573 15.78 142.247 15.78C142.067 15.78 141.917 15.83 141.797 15.93C141.683 16.0233 141.593 16.18 141.527 16.4C141.46 16.6133 141.413 16.8967 141.387 17.25C141.36 17.5967 141.347 18.0233 141.347 18.53C141.347 19.07 141.363 19.5067 141.397 19.84C141.437 20.1733 141.493 20.4333 141.567 20.62C141.647 20.8 141.743 20.9233 141.857 20.99C141.977 21.05 142.113 21.08 142.267 21.08C142.393 21.08 142.51 21.06 142.617 21.02C142.73 20.9733 142.827 20.8867 142.907 20.76C142.987 20.6267 143.05 20.4433 143.097 20.21C143.143 19.97 143.167 19.6567 143.167 19.27H144.607C144.607 19.6567 144.577 20.0233 144.517 20.37C144.457 20.7167 144.343 21.02 144.177 21.28C144.017 21.54 143.787 21.7433 143.487 21.89C143.193 22.0367 142.81 22.11 142.337 22.11C141.797 22.11 141.367 22.0233 141.047 21.85C140.727 21.6767 140.48 21.4267 140.307 21.1C140.14 20.7733 140.03 20.3833 139.977 19.93C139.93 19.4767 139.907 18.9767 139.907 18.43C139.907 17.89 139.93 17.3933 139.977 16.94C140.03 16.48 140.14 16.0867 140.307 15.76C140.48 15.4333 140.727 15.18 141.047 15C141.367 14.8133 141.797 14.72 142.337 14.72C142.85 14.72 143.253 14.8033 143.547 14.97C143.847 15.1367 144.07 15.35 144.217 15.61C144.363 15.8633 144.453 16.14 144.487 16.44C144.527 16.7333 144.547 17.01 144.547 17.27H143.107ZM145.428 14.86H146.868V17.59H148.548V14.86H149.988V22H148.548V18.83H146.868V22H145.428V14.86ZM154.974 14.86V16.04H152.424V17.72H154.824V18.9H152.424V20.82H155.074V22H150.984V14.86H154.974ZM159.979 14.86V16.04H158.419V22H156.979V16.04H155.419V14.86H159.979ZM161.764 19.77V19.98C161.764 20.1467 161.777 20.3 161.804 20.44C161.83 20.5733 161.88 20.6867 161.954 20.78C162.027 20.8733 162.124 20.9467 162.244 21C162.37 21.0533 162.527 21.08 162.714 21.08C162.934 21.08 163.13 21.01 163.304 20.87C163.484 20.7233 163.574 20.5 163.574 20.2C163.574 20.04 163.55 19.9033 163.504 19.79C163.464 19.67 163.394 19.5633 163.294 19.47C163.194 19.3767 163.06 19.2933 162.894 19.22C162.734 19.14 162.534 19.06 162.294 18.98C161.974 18.8733 161.697 18.7567 161.464 18.63C161.23 18.5033 161.034 18.3567 160.874 18.19C160.72 18.0167 160.607 17.82 160.534 17.6C160.46 17.3733 160.424 17.1133 160.424 16.82C160.424 16.1133 160.62 15.5867 161.014 15.24C161.407 14.8933 161.947 14.72 162.634 14.72C162.954 14.72 163.247 14.7567 163.514 14.83C163.787 14.8967 164.02 15.01 164.214 15.17C164.414 15.3233 164.567 15.5233 164.674 15.77C164.787 16.01 164.844 16.3 164.844 16.64V16.84H163.464C163.464 16.5 163.404 16.24 163.284 16.06C163.164 15.8733 162.964 15.78 162.684 15.78C162.524 15.78 162.39 15.8033 162.284 15.85C162.177 15.8967 162.09 15.96 162.024 16.04C161.964 16.1133 161.92 16.2 161.894 16.3C161.874 16.4 161.864 16.5033 161.864 16.61C161.864 16.83 161.91 17.0167 162.004 17.17C162.097 17.3167 162.297 17.4533 162.604 17.58L163.714 18.06C163.987 18.18 164.21 18.3067 164.384 18.44C164.557 18.5667 164.694 18.7067 164.794 18.86C164.9 19.0067 164.974 19.17 165.014 19.35C165.054 19.53 165.074 19.73 165.074 19.95C165.074 20.7033 164.854 21.2533 164.414 21.6C163.98 21.94 163.374 22.11 162.594 22.11C161.78 22.11 161.197 21.9333 160.844 21.58C160.497 21.2267 160.324 20.72 160.324 20.06V19.77H161.764ZM169.701 20.94H170.341C170.595 20.94 170.798 20.8967 170.951 20.81C171.105 20.7233 171.225 20.58 171.311 20.38C171.405 20.18 171.465 19.9167 171.491 19.59C171.525 19.2633 171.541 18.8567 171.541 18.37C171.541 17.9633 171.528 17.6067 171.501 17.3C171.475 16.9933 171.418 16.74 171.331 16.54C171.251 16.3333 171.128 16.18 170.961 16.08C170.801 15.9733 170.585 15.92 170.311 15.92H169.701V20.94ZM168.261 14.86H170.621C171.121 14.86 171.525 14.9433 171.831 15.11C172.138 15.27 172.375 15.5033 172.541 15.81C172.715 16.11 172.831 16.4733 172.891 16.9C172.951 17.3267 172.981 17.8033 172.981 18.33C172.981 18.9567 172.941 19.5033 172.861 19.97C172.788 20.43 172.658 20.81 172.471 21.11C172.285 21.41 172.035 21.6333 171.721 21.78C171.408 21.9267 171.011 22 170.531 22H168.261V14.86ZM174.114 14.86H175.354V18.07H174.114V14.86ZM179.511 19.31L178.821 16.1H178.801L178.111 19.31H179.511ZM179.701 14.86L181.591 22H180.091L179.761 20.49H177.861L177.531 22H176.031L177.921 14.86H179.701ZM185.138 17.27C185.138 16.75 185.075 16.3733 184.948 16.14C184.828 15.9 184.605 15.78 184.278 15.78C184.098 15.78 183.948 15.83 183.828 15.93C183.715 16.0233 183.625 16.18 183.558 16.4C183.491 16.6133 183.445 16.8967 183.418 17.25C183.391 17.5967 183.378 18.0233 183.378 18.53C183.378 19.07 183.395 19.5067 183.428 19.84C183.468 20.1733 183.525 20.4333 183.598 20.62C183.678 20.8 183.775 20.9233 183.888 20.99C184.008 21.05 184.145 21.08 184.298 21.08C184.425 21.08 184.541 21.06 184.648 21.02C184.761 20.9733 184.858 20.8867 184.938 20.76C185.018 20.6267 185.081 20.4433 185.128 20.21C185.175 19.97 185.198 19.6567 185.198 19.27H186.638C186.638 19.6567 186.608 20.0233 186.548 20.37C186.488 20.7167 186.375 21.02 186.208 21.28C186.048 21.54 185.818 21.7433 185.518 21.89C185.225 22.0367 184.841 22.11 184.368 22.11C183.828 22.11 183.398 22.0233 183.078 21.85C182.758 21.6767 182.511 21.4267 182.338 21.1C182.171 20.7733 182.061 20.3833 182.008 19.93C181.961 19.4767 181.938 18.9767 181.938 18.43C181.938 17.89 181.961 17.3933 182.008 16.94C182.061 16.48 182.171 16.0867 182.338 15.76C182.511 15.4333 182.758 15.18 183.078 15C183.398 14.8133 183.828 14.72 184.368 14.72C184.881 14.72 185.285 14.8033 185.578 14.97C185.878 15.1367 186.101 15.35 186.248 15.61C186.395 15.8633 186.485 16.14 186.518 16.44C186.558 16.7333 186.578 17.01 186.578 17.27H185.138ZM191.639 14.86V16.04H190.079V22H188.639V16.04H187.079V14.86H191.639ZM192.334 22V14.86H193.774V22H192.334ZM195.912 14.86L196.922 20.14H196.952L198.012 14.86H199.502L197.862 22H196.012L194.372 14.86H195.912ZM200.097 22V14.86H201.537V22H200.097ZM206.785 14.86V16.04H205.225V22H203.785V16.04H202.225V14.86H206.785ZM209.33 13H210.71L209.73 14.44H208.79L209.33 13ZM211.4 14.86V16.04H208.85V17.72H211.25V18.9H208.85V20.82H211.5V22H207.41V14.86H211.4ZM213.385 19.77V19.98C213.385 20.1467 213.398 20.3 213.425 20.44C213.451 20.5733 213.501 20.6867 213.575 20.78C213.648 20.8733 213.745 20.9467 213.865 21C213.991 21.0533 214.148 21.08 214.335 21.08C214.555 21.08 214.751 21.01 214.925 20.87C215.105 20.7233 215.195 20.5 215.195 20.2C215.195 20.04 215.171 19.9033 215.125 19.79C215.085 19.67 215.015 19.5633 214.915 19.47C214.815 19.3767 214.681 19.2933 214.515 19.22C214.355 19.14 214.155 19.06 213.915 18.98C213.595 18.8733 213.318 18.7567 213.085 18.63C212.851 18.5033 212.655 18.3567 212.495 18.19C212.341 18.0167 212.228 17.82 212.155 17.6C212.081 17.3733 212.045 17.1133 212.045 16.82C212.045 16.1133 212.241 15.5867 212.635 15.24C213.028 14.8933 213.568 14.72 214.255 14.72C214.575 14.72 214.868 14.7567 215.135 14.83C215.408 14.8967 215.641 15.01 215.835 15.17C216.035 15.3233 216.188 15.5233 216.295 15.77C216.408 16.01 216.465 16.3 216.465 16.64V16.84H215.085C215.085 16.5 215.025 16.24 214.905 16.06C214.785 15.8733 214.585 15.78 214.305 15.78C214.145 15.78 214.011 15.8033 213.905 15.85C213.798 15.8967 213.711 15.96 213.645 16.04C213.585 16.1133 213.541 16.2 213.515 16.3C213.495 16.4 213.485 16.5033 213.485 16.61C213.485 16.83 213.531 17.0167 213.625 17.17C213.718 17.3167 213.918 17.4533 214.225 17.58L215.335 18.06C215.608 18.18 215.831 18.3067 216.005 18.44C216.178 18.5667 216.315 18.7067 216.415 18.86C216.521 19.0067 216.595 19.17 216.635 19.35C216.675 19.53 216.695 19.73 216.695 19.95C216.695 20.7033 216.475 21.2533 216.035 21.6C215.601 21.94 214.995 22.11 214.215 22.11C213.401 22.11 212.818 21.9333 212.465 21.58C212.118 21.2267 211.945 20.72 211.945 20.06V19.77H213.385ZM131.01 32.94H131.65C131.903 32.94 132.107 32.8967 132.26 32.81C132.413 32.7233 132.533 32.58 132.62 32.38C132.713 32.18 132.773 31.9167 132.8 31.59C132.833 31.2633 132.85 30.8567 132.85 30.37C132.85 29.9633 132.837 29.6067 132.81 29.3C132.783 28.9933 132.727 28.74 132.64 28.54C132.56 28.3333 132.437 28.18 132.27 28.08C132.11 27.9733 131.893 27.92 131.62 27.92H131.01V32.94ZM129.57 26.86H131.93C132.43 26.86 132.833 26.9433 133.14 27.11C133.447 27.27 133.683 27.5033 133.85 27.81C134.023 28.11 134.14 28.4733 134.2 28.9C134.26 29.3267 134.29 29.8033 134.29 30.33C134.29 30.9567 134.25 31.5033 134.17 31.97C134.097 32.43 133.967 32.81 133.78 33.11C133.593 33.41 133.343 33.6333 133.03 33.78C132.717 33.9267 132.32 34 131.84 34H129.57V26.86ZM139.232 26.86V28.04H136.682V29.72H139.082V30.9H136.682V32.82H139.332V34H135.242V26.86H139.232ZM143.619 31.77V31.98C143.619 32.1467 143.632 32.3 143.659 32.44C143.686 32.5733 143.736 32.6867 143.809 32.78C143.882 32.8733 143.979 32.9467 144.099 33C144.226 33.0533 144.382 33.08 144.569 33.08C144.789 33.08 144.986 33.01 145.159 32.87C145.339 32.7233 145.429 32.5 145.429 32.2C145.429 32.04 145.406 31.9033 145.359 31.79C145.319 31.67 145.249 31.5633 145.149 31.47C145.049 31.3767 144.916 31.2933 144.749 31.22C144.589 31.14 144.389 31.06 144.149 30.98C143.829 30.8733 143.552 30.7567 143.319 30.63C143.086 30.5033 142.889 30.3567 142.729 30.19C142.576 30.0167 142.462 29.82 142.389 29.6C142.316 29.3733 142.279 29.1133 142.279 28.82C142.279 28.1133 142.476 27.5867 142.869 27.24C143.262 26.8933 143.802 26.72 144.489 26.72C144.809 26.72 145.102 26.7567 145.369 26.83C145.642 26.8967 145.876 27.01 146.069 27.17C146.269 27.3233 146.422 27.5233 146.529 27.77C146.642 28.01 146.699 28.3 146.699 28.64V28.84H145.319C145.319 28.5 145.259 28.24 145.139 28.06C145.019 27.8733 144.819 27.78 144.539 27.78C144.379 27.78 144.246 27.8033 144.139 27.85C144.032 27.8967 143.946 27.96 143.879 28.04C143.819 28.1133 143.776 28.2 143.749 28.3C143.729 28.4 143.719 28.5033 143.719 28.61C143.719 28.83 143.766 29.0167 143.859 29.17C143.952 29.3167 144.152 29.4533 144.459 29.58L145.569 30.06C145.842 30.18 146.066 30.3067 146.239 30.44C146.412 30.5667 146.549 30.7067 146.649 30.86C146.756 31.0067 146.829 31.17 146.869 31.35C146.909 31.53 146.929 31.73 146.929 31.95C146.929 32.7033 146.709 33.2533 146.269 33.6C145.836 33.94 145.229 34.11 144.449 34.11C143.636 34.11 143.052 33.9333 142.699 33.58C142.352 33.2267 142.179 32.72 142.179 32.06V31.77H143.619ZM148.935 30.43C148.935 30.91 148.945 31.32 148.965 31.66C148.991 31.9933 149.038 32.2667 149.105 32.48C149.178 32.6867 149.278 32.84 149.405 32.94C149.538 33.0333 149.711 33.08 149.925 33.08C150.138 33.08 150.308 33.0333 150.435 32.94C150.568 32.84 150.668 32.6867 150.735 32.48C150.808 32.2667 150.855 31.9933 150.875 31.66C150.901 31.32 150.915 30.91 150.915 30.43C150.915 29.95 150.901 29.5433 150.875 29.21C150.855 28.8767 150.808 28.6033 150.735 28.39C150.668 28.1767 150.568 28.0233 150.435 27.93C150.308 27.83 150.138 27.78 149.925 27.78C149.711 27.78 149.538 27.83 149.405 27.93C149.278 28.0233 149.178 28.1767 149.105 28.39C149.038 28.6033 148.991 28.8767 148.965 29.21C148.945 29.5433 148.935 29.95 148.935 30.43ZM147.495 30.43C147.495 29.89 147.518 29.3933 147.565 28.94C147.618 28.48 147.728 28.0867 147.895 27.76C148.068 27.4333 148.315 27.18 148.635 27C148.955 26.8133 149.385 26.72 149.925 26.72C150.465 26.72 150.895 26.8133 151.215 27C151.535 27.18 151.778 27.4333 151.945 27.76C152.118 28.0867 152.228 28.48 152.275 28.94C152.328 29.3933 152.355 29.89 152.355 30.43C152.355 30.9767 152.328 31.4767 152.275 31.93C152.228 32.3833 152.118 32.7733 151.945 33.1C151.778 33.4267 151.535 33.6767 151.215 33.85C150.895 34.0233 150.465 34.11 149.925 34.11C149.385 34.11 148.955 34.0233 148.635 33.85C148.315 33.6767 148.068 33.4267 147.895 33.1C147.728 32.7733 147.618 32.3833 147.565 31.93C147.518 31.4767 147.495 30.9767 147.495 30.43ZM153.271 34V26.86H154.711V34H153.271ZM157.439 26.86L159.179 31.75H159.199V26.86H160.519V34H158.879L157.119 29H157.099V34H155.779V26.86H157.439ZM162.681 31.77V31.98C162.681 32.1467 162.695 32.3 162.721 32.44C162.748 32.5733 162.798 32.6867 162.871 32.78C162.945 32.8733 163.041 32.9467 163.161 33C163.288 33.0533 163.445 33.08 163.631 33.08C163.851 33.08 164.048 33.01 164.221 32.87C164.401 32.7233 164.491 32.5 164.491 32.2C164.491 32.04 164.468 31.9033 164.421 31.79C164.381 31.67 164.311 31.5633 164.211 31.47C164.111 31.3767 163.978 31.2933 163.811 31.22C163.651 31.14 163.451 31.06 163.211 30.98C162.891 30.8733 162.615 30.7567 162.381 30.63C162.148 30.5033 161.951 30.3567 161.791 30.19C161.638 30.0167 161.525 29.82 161.451 29.6C161.378 29.3733 161.341 29.1133 161.341 28.82C161.341 28.1133 161.538 27.5867 161.931 27.24C162.325 26.8933 162.865 26.72 163.551 26.72C163.871 26.72 164.165 26.7567 164.431 26.83C164.705 26.8967 164.938 27.01 165.131 27.17C165.331 27.3233 165.485 27.5233 165.591 27.77C165.705 28.01 165.761 28.3 165.761 28.64V28.84H164.381C164.381 28.5 164.321 28.24 164.201 28.06C164.081 27.8733 163.881 27.78 163.601 27.78C163.441 27.78 163.308 27.8033 163.201 27.85C163.095 27.8967 163.008 27.96 162.941 28.04C162.881 28.1133 162.838 28.2 162.811 28.3C162.791 28.4 162.781 28.5033 162.781 28.61C162.781 28.83 162.828 29.0167 162.921 29.17C163.015 29.3167 163.215 29.4533 163.521 29.58L164.631 30.06C164.905 30.18 165.128 30.3067 165.301 30.44C165.475 30.5667 165.611 30.7067 165.711 30.86C165.818 31.0067 165.891 31.17 165.931 31.35C165.971 31.53 165.991 31.73 165.991 31.95C165.991 32.7033 165.771 33.2533 165.331 33.6C164.898 33.94 164.291 34.11 163.511 34.11C162.698 34.11 162.115 33.9333 161.761 33.58C161.415 33.2267 161.241 32.72 161.241 32.06V31.77H162.681ZM171.569 26.86C171.363 27.24 171.186 27.61 171.039 27.97C170.893 28.3233 170.773 28.68 170.679 29.04C170.593 29.4 170.529 29.77 170.489 30.15C170.449 30.5233 170.429 30.9233 170.429 31.35C170.429 31.7767 170.449 32.18 170.489 32.56C170.529 32.9333 170.593 33.2967 170.679 33.65C170.773 33.9967 170.893 34.3467 171.039 34.7C171.186 35.06 171.363 35.43 171.569 35.81H170.509C170.009 35.0233 169.649 34.26 169.429 33.52C169.216 32.78 169.109 32.0567 169.109 31.35C169.109 30.6433 169.216 29.9167 169.429 29.17C169.649 28.4167 170.009 27.6467 170.509 26.86H171.569ZM173.578 32.94H174.218C174.472 32.94 174.675 32.8967 174.828 32.81C174.982 32.7233 175.102 32.58 175.188 32.38C175.282 32.18 175.342 31.9167 175.368 31.59C175.402 31.2633 175.418 30.8567 175.418 30.37C175.418 29.9633 175.405 29.6067 175.378 29.3C175.352 28.9933 175.295 28.74 175.208 28.54C175.128 28.3333 175.005 28.18 174.838 28.08C174.678 27.9733 174.462 27.92 174.188 27.92H173.578V32.94ZM172.138 26.86H174.498C174.998 26.86 175.402 26.9433 175.708 27.11C176.015 27.27 176.252 27.5033 176.418 27.81C176.592 28.11 176.708 28.4733 176.768 28.9C176.828 29.3267 176.858 29.8033 176.858 30.33C176.858 30.9567 176.818 31.5033 176.738 31.97C176.665 32.43 176.535 32.81 176.348 33.11C176.162 33.41 175.912 33.6333 175.598 33.78C175.285 33.9267 174.888 34 174.408 34H172.138V26.86ZM180.791 31.31L180.101 28.1H180.081L179.391 31.31H180.791ZM180.981 26.86L182.871 34H181.371L181.041 32.49H179.141L178.811 34H177.311L179.201 26.86H180.981ZM184.527 31.77V31.98C184.527 32.1467 184.541 32.3 184.567 32.44C184.594 32.5733 184.644 32.6867 184.717 32.78C184.791 32.8733 184.887 32.9467 185.007 33C185.134 33.0533 185.291 33.08 185.477 33.08C185.697 33.08 185.894 33.01 186.067 32.87C186.247 32.7233 186.337 32.5 186.337 32.2C186.337 32.04 186.314 31.9033 186.267 31.79C186.227 31.67 186.157 31.5633 186.057 31.47C185.957 31.3767 185.824 31.2933 185.657 31.22C185.497 31.14 185.297 31.06 185.057 30.98C184.737 30.8733 184.461 30.7567 184.227 30.63C183.994 30.5033 183.797 30.3567 183.637 30.19C183.484 30.0167 183.371 29.82 183.297 29.6C183.224 29.3733 183.187 29.1133 183.187 28.82C183.187 28.1133 183.384 27.5867 183.777 27.24C184.171 26.8933 184.711 26.72 185.397 26.72C185.717 26.72 186.011 26.7567 186.277 26.83C186.551 26.8967 186.784 27.01 186.977 27.17C187.177 27.3233 187.331 27.5233 187.437 27.77C187.551 28.01 187.607 28.3 187.607 28.64V28.84H186.227C186.227 28.5 186.167 28.24 186.047 28.06C185.927 27.8733 185.727 27.78 185.447 27.78C185.287 27.78 185.154 27.8033 185.047 27.85C184.941 27.8967 184.854 27.96 184.787 28.04C184.727 28.1133 184.684 28.2 184.657 28.3C184.637 28.4 184.627 28.5033 184.627 28.61C184.627 28.83 184.674 29.0167 184.767 29.17C184.861 29.3167 185.061 29.4533 185.367 29.58L186.477 30.06C186.751 30.18 186.974 30.3067 187.147 30.44C187.321 30.5667 187.457 30.7067 187.557 30.86C187.664 31.0067 187.737 31.17 187.777 31.35C187.817 31.53 187.837 31.73 187.837 31.95C187.837 32.7033 187.617 33.2533 187.177 33.6C186.744 33.94 186.137 34.11 185.357 34.11C184.544 34.11 183.961 33.9333 183.607 33.58C183.261 33.2267 183.087 32.72 183.087 32.06V31.77H184.527ZM189.113 26.86C189.613 27.6467 189.969 28.4167 190.183 29.17C190.403 29.9167 190.513 30.6433 190.513 31.35C190.513 32.0567 190.403 32.78 190.183 33.52C189.969 34.26 189.613 35.0233 189.113 35.81H188.053C188.259 35.43 188.436 35.06 188.583 34.7C188.729 34.3467 188.846 33.9967 188.933 33.65C189.026 33.2967 189.093 32.9333 189.133 32.56C189.173 32.18 189.193 31.7767 189.193 31.35C189.193 30.9233 189.173 30.5233 189.133 30.15C189.093 29.77 189.026 29.4 188.933 29.04C188.846 28.68 188.729 28.3233 188.583 27.97C188.436 27.61 188.259 27.24 188.053 26.86H189.113ZM131.16 38.86L132.9 43.75H132.92V38.86H134.24V46H132.6L130.84 41H130.82V46H129.5V38.86H131.16ZM136.532 42.43C136.532 42.91 136.542 43.32 136.562 43.66C136.589 43.9933 136.636 44.2667 136.702 44.48C136.776 44.6867 136.876 44.84 137.002 44.94C137.136 45.0333 137.309 45.08 137.522 45.08C137.736 45.08 137.906 45.0333 138.032 44.94C138.166 44.84 138.266 44.6867 138.332 44.48C138.406 44.2667 138.452 43.9933 138.472 43.66C138.499 43.32 138.512 42.91 138.512 42.43C138.512 41.95 138.499 41.5433 138.472 41.21C138.452 40.8767 138.406 40.6033 138.332 40.39C138.266 40.1767 138.166 40.0233 138.032 39.93C137.906 39.83 137.736 39.78 137.522 39.78C137.309 39.78 137.136 39.83 137.002 39.93C136.876 40.0233 136.776 40.1767 136.702 40.39C136.636 40.6033 136.589 40.8767 136.562 41.21C136.542 41.5433 136.532 41.95 136.532 42.43ZM135.092 42.43C135.092 41.89 135.116 41.3933 135.162 40.94C135.216 40.48 135.326 40.0867 135.492 39.76C135.666 39.4333 135.912 39.18 136.232 39C136.552 38.8133 136.982 38.72 137.522 38.72C138.062 38.72 138.492 38.8133 138.812 39C139.132 39.18 139.376 39.4333 139.542 39.76C139.716 40.0867 139.826 40.48 139.872 40.94C139.926 41.3933 139.952 41.89 139.952 42.43C139.952 42.9767 139.926 43.4767 139.872 43.93C139.826 44.3833 139.716 44.7733 139.542 45.1C139.376 45.4267 139.132 45.6767 138.812 45.85C138.492 46.0233 138.062 46.11 137.522 46.11C136.982 46.11 136.552 46.0233 136.232 45.85C135.912 45.6767 135.666 45.4267 135.492 45.1C135.326 44.7733 135.216 44.3833 135.162 43.93C135.116 43.4767 135.092 42.9767 135.092 42.43ZM142.459 38.86L144.199 43.75H144.219V38.86H145.539V46H143.899L142.139 41H142.119V46H140.799V38.86H142.459ZM149.301 42.52V43.7H146.481V42.52H149.301ZM151.752 44.94H152.392C152.646 44.94 152.849 44.8967 153.002 44.81C153.156 44.7233 153.276 44.58 153.362 44.38C153.456 44.18 153.516 43.9167 153.542 43.59C153.576 43.2633 153.592 42.8567 153.592 42.37C153.592 41.9633 153.579 41.6067 153.552 41.3C153.526 40.9933 153.469 40.74 153.382 40.54C153.302 40.3333 153.179 40.18 153.012 40.08C152.852 39.9733 152.636 39.92 152.362 39.92H151.752V44.94ZM150.312 38.86H152.672C153.172 38.86 153.576 38.9433 153.882 39.11C154.189 39.27 154.426 39.5033 154.592 39.81C154.766 40.11 154.882 40.4733 154.942 40.9C155.002 41.3267 155.032 41.8033 155.032 42.33C155.032 42.9567 154.992 43.5033 154.912 43.97C154.839 44.43 154.709 44.81 154.522 45.11C154.336 45.41 154.086 45.6333 153.772 45.78C153.459 45.9267 153.062 46 152.582 46H150.312V38.86ZM158.964 43.31L158.274 40.1H158.254L157.564 43.31H158.964ZM159.154 38.86L161.044 46H159.544L159.214 44.49H157.314L156.984 46H155.484L157.374 38.86H159.154ZM163.201 38.86L164.941 43.75H164.961V38.86H166.281V46H164.641L162.881 41H162.861V46H161.541V38.86H163.201ZM170.453 40.98C170.453 40.8467 170.437 40.71 170.403 40.57C170.377 40.43 170.33 40.3033 170.263 40.19C170.197 40.07 170.11 39.9733 170.003 39.9C169.903 39.82 169.78 39.78 169.633 39.78C169.287 39.78 169.037 39.9733 168.883 40.36C168.73 40.7467 168.653 41.3867 168.653 42.28C168.653 42.7067 168.667 43.0933 168.693 43.44C168.72 43.7867 168.767 44.0833 168.833 44.33C168.907 44.57 169.007 44.7567 169.133 44.89C169.267 45.0167 169.437 45.08 169.643 45.08C169.73 45.08 169.823 45.0567 169.923 45.01C170.03 44.9633 170.127 44.8933 170.213 44.8C170.307 44.7067 170.383 44.59 170.443 44.45C170.503 44.3033 170.533 44.1333 170.533 43.94V43.21H169.583V42.15H171.913V46H170.853V45.34H170.833C170.66 45.62 170.45 45.82 170.203 45.94C169.963 46.0533 169.673 46.11 169.333 46.11C168.893 46.11 168.533 46.0333 168.253 45.88C167.98 45.7267 167.763 45.49 167.603 45.17C167.45 44.85 167.347 44.4567 167.293 43.99C167.24 43.5167 167.213 42.97 167.213 42.35C167.213 41.75 167.25 41.2233 167.323 40.77C167.403 40.3167 167.537 39.94 167.723 39.64C167.91 39.3333 168.157 39.1033 168.463 38.95C168.77 38.7967 169.153 38.72 169.613 38.72C170.4 38.72 170.967 38.9167 171.313 39.31C171.66 39.6967 171.833 40.2533 171.833 40.98H170.453ZM176.83 38.86V40.04H174.28V41.72H176.68V42.9H174.28V44.82H176.93V46H172.84V38.86H176.83ZM177.654 38.86H180.314C180.914 38.86 181.381 39.0133 181.714 39.32C182.048 39.62 182.214 40.08 182.214 40.7C182.214 41.18 182.118 41.5733 181.924 41.88C181.731 42.18 181.431 42.3733 181.024 42.46V42.48C181.384 42.5333 181.648 42.65 181.814 42.83C181.981 43.01 182.084 43.3 182.124 43.7C182.138 43.8333 182.148 43.98 182.154 44.14C182.161 44.2933 182.168 44.4667 182.174 44.66C182.188 45.04 182.208 45.33 182.234 45.53C182.274 45.73 182.361 45.8667 182.494 45.94V46H180.934C180.861 45.9 180.814 45.7867 180.794 45.66C180.774 45.5267 180.761 45.39 180.754 45.25L180.714 43.88C180.701 43.6 180.631 43.38 180.504 43.22C180.378 43.06 180.164 42.98 179.864 42.98H179.094V46H177.654V38.86ZM179.094 41.98H179.694C180.041 41.98 180.308 41.9 180.494 41.74C180.681 41.5733 180.774 41.2967 180.774 40.91C180.774 40.25 180.441 39.92 179.774 39.92H179.094V41.98ZM187.201 38.86V40.04H184.651V41.72H187.051V42.9H184.651V44.82H187.301V46H183.211V38.86H187.201ZM189.375 38.86V43.84C189.375 44.02 189.385 44.1867 189.405 44.34C189.432 44.4867 189.475 44.6167 189.535 44.73C189.602 44.8367 189.689 44.9233 189.795 44.99C189.909 45.05 190.049 45.08 190.215 45.08C190.389 45.08 190.529 45.05 190.635 44.99C190.742 44.9233 190.825 44.8367 190.885 44.73C190.952 44.6167 190.995 44.4867 191.015 44.34C191.042 44.1867 191.055 44.02 191.055 43.84V38.86H192.495V43.84C192.495 44.2933 192.432 44.67 192.305 44.97C192.179 45.2633 192.009 45.4967 191.795 45.67C191.582 45.8433 191.339 45.96 191.065 46.02C190.792 46.08 190.509 46.11 190.215 46.11C189.922 46.11 189.639 46.0833 189.365 46.03C189.092 45.9767 188.849 45.87 188.635 45.71C188.422 45.5433 188.252 45.31 188.125 45.01C187.999 44.71 187.935 44.32 187.935 43.84V38.86H189.375ZM193.106 38.86H194.696L195.616 41.17L196.526 38.86H198.096L196.436 42.39L198.216 46H196.596L195.566 43.58L194.546 46H192.966L194.746 42.39L193.106 38.86Z" fill="black"/>
<path fill-rule="evenodd" clip-rule="evenodd" d="M246.197 12.9917C245.489 12.7271 244.997 12.6406 244.67 12.6452C244.338 12.6499 244.233 12.7457 244.211 12.7697C244.191 12.7911 244.158 12.8426 244.156 12.9856C244.155 13.0935 244.173 13.2211 244.209 13.3514L248.625 17.6963H251.528C252.034 17.0728 253.172 15.8497 255.078 14.1794C255.602 13.7203 255.792 13.4037 255.848 13.2371C255.879 13.1441 255.868 13.1284 255.843 13.0951L255.839 13.0896C255.774 13.001 255.62 12.8791 255.352 12.7673C255.11 12.6663 254.831 12.5973 254.575 12.5601C254.389 12.5649 254.251 12.6081 254.006 12.6965L253.957 12.7142C253.87 12.7457 253.807 12.7781 253.743 12.811C253.611 12.8791 253.474 12.9492 253.116 13.0172C252.548 13.1251 252.141 13.1334 251.683 13.0237C251.386 12.9524 251.057 12.826 250.66 12.6733L250.66 12.6732L250.66 12.6732C250.522 12.6199 250.375 12.5634 250.218 12.505L250.215 12.5046C250.205 12.5034 250.171 12.4992 250.103 12.5017C250.005 12.5053 249.878 12.5207 249.721 12.5484C249.412 12.603 249.047 12.694 248.66 12.7904L248.637 12.7962C248.255 12.8913 247.848 12.9925 247.508 13.0468C247.338 13.0739 247.162 13.0935 246.999 13.0896C246.986 13.0893 246.969 13.0891 246.947 13.0889H246.947C246.777 13.0872 246.364 13.0832 246.197 12.9917ZM248.237 11.3164C247.706 11.4374 246.732 11.5442 246.732 11.5442C246.164 11.5236 245.749 11.4099 245.402 11.3145C245.125 11.2386 244.891 11.1743 244.654 11.1777C244.117 11.1852 243.651 11.3462 243.316 11.7135C242.98 12.0836 242.873 12.5579 242.868 12.9653C242.863 13.3667 242.954 13.7551 243.067 14.0649L243.126 14.2248L247.043 18.0789C245.564 18.4041 243.986 19.063 242.531 20.2082C239.761 22.3897 237.542 26.2534 237.227 32.6479C237.207 33.0641 237.184 33.4866 237.161 33.912C237.068 35.6616 236.972 37.462 237.008 39.0902C237.052 41.0844 237.292 43.0034 238.107 44.3151C239.572 46.6711 241.968 47.8112 244.268 48.348C246.56 48.883 248.85 48.8422 250.268 48.7579C251.563 48.7331 253.698 48.6558 255.887 48.1961C258.067 47.7382 260.413 46.8786 262.016 45.2058C263.305 43.8598 263.744 41.8774 263.878 39.7527C263.983 38.0805 263.904 36.1896 263.823 34.2644L263.823 34.2638C263.8 33.7301 263.778 33.1937 263.759 32.6587C263.548 26.6489 261.338 22.879 258.569 20.6473C256.772 19.1991 254.772 18.4248 253.001 18.0891C253.574 17.4656 254.506 16.5318 255.863 15.3427C256.456 14.8235 256.868 14.3043 257.051 13.7626C257.256 13.1522 257.144 12.5834 256.83 12.152C256.553 11.7717 256.15 11.5369 255.794 11.3889C255.425 11.2351 255.029 11.1428 254.687 11.097L254.649 11.092H254.611C254.197 11.092 253.898 11.1959 253.617 11.2976L253.57 11.3145C253.314 11.4071 253.037 11.5078 252.597 11.5912C252.212 11.6645 252.189 11.6582 252.042 11.6184L252.042 11.6184C252.013 11.6105 251.98 11.6013 251.937 11.5912C251.72 11.539 251.496 11.4529 251.141 11.3164C251.127 11.311 251.103 11.2985 251.069 11.2814C250.905 11.1967 250.523 11 250.086 11C249.442 11 248.825 11.163 248.453 11.2614L248.453 11.2614L248.453 11.2615L248.453 11.2615C248.367 11.2841 248.295 11.3034 248.237 11.3164ZM243.478 21.4108C241.129 23.2603 239.054 26.6676 238.756 32.7231C238.735 33.1559 238.712 33.5897 238.689 34.0222C238.596 35.7668 238.504 37.492 238.538 39.0565C238.582 41.0386 238.83 42.5793 239.407 43.5068C240.575 45.3858 242.528 46.37 244.616 46.8573C246.702 47.3443 248.827 47.3108 250.192 47.2289L250.207 47.228L250.223 47.2277C251.495 47.2037 253.521 47.1289 255.572 46.6981C257.641 46.2636 259.624 45.489 260.91 44.1468C261.806 43.2119 262.221 41.7042 262.35 39.6564C262.45 38.0726 262.375 36.2919 262.295 34.3813C262.272 33.835 262.249 33.2782 262.229 32.7124C262.032 27.0884 259.989 23.7575 257.609 21.8391C255.802 20.3832 253.757 19.7053 252.07 19.4905C253.467 20.9563 255.051 22.4306 255.916 22.9628L255.114 24.2664C254.751 23.9038 254.206 23.4291 253.577 22.8815L253.577 22.8815C252.672 22.0929 251.593 21.1533 250.636 20.1804C250.589 20.8038 250.548 21.5006 250.531 22.1621C250.516 22.7319 250.52 23.2613 250.55 23.6891C250.565 23.9031 250.586 24.0802 250.611 24.218C250.624 24.2864 250.636 24.3394 250.648 24.3787C250.659 24.4162 250.666 24.4328 250.667 24.4343L250.777 25.0318L249.298 25.119C249.12 24.7626 249.055 24.2519 249.023 23.7962C248.988 23.2997 248.985 22.7161 249.001 22.123C249.013 21.6509 249.036 21.1638 249.066 20.6965C247.822 21.8971 246.513 22.9378 245.548 23.7056L245.547 23.7058L245.547 23.7061C245.412 23.8133 245.284 23.9151 245.164 24.0113L244.362 22.7076C245.212 22.115 246.785 20.8255 248.179 19.4313C246.695 19.6286 245.007 20.2073 243.478 21.4108Z" fill="white"/>
</g>
<defs>
<clipPath id="clip0_66_3666">
<rect width="280" height="61" fill="white"/>
</clipPath>
</defs>
</svg>
