<svg width="227" height="61" viewBox="0 0 227 61" fill="none" xmlns="http://www.w3.org/2000/svg">
<g clip-path="url(#clip0_137_49)">
<path d="M24.8542 60.7916C11.2344 60.7916 0.15625 49.8385 0.15625 36.3801V0.317627H201.323C214.938 0.317627 226.016 11.2655 226.016 24.7239L226.021 60.7916" fill="white"/>
<path d="M201.323 5.98438H50.2708V36.3802C50.2708 46.7135 58.802 55.1198 69.2916 55.1198H220.349V24.724C220.349 14.3958 211.812 5.98438 201.323 5.98438Z" fill="white"/>
<path d="M218.458 53.2292H69.2916C59.8437 53.2292 52.1562 45.6719 52.1562 36.3802V7.875H201.323C210.771 7.875 218.458 15.4323 218.458 24.724V53.2292ZM201.323 5.98438H50.2708V36.3802C50.2708 46.7135 58.802 55.1198 69.2916 55.1198H220.349V24.724C220.349 14.3958 211.812 5.98438 201.323 5.98438Z" fill="#FCC42F"/>
<path d="M163.089 55.1198L176.099 28.5417L162.807 5.98438H201.323C211.812 5.98438 220.349 14.3906 220.349 24.724V55.1198" fill="#FCC42F"/>
<path d="M201.323 7.875H166.115L178.245 28.4583L166.12 53.2292H218.458V24.724C218.458 15.4323 210.771 7.875 201.323 7.875Z" fill="#FCC42F"/>
<path d="M206.281 41.6615H205.078C204.979 41.6615 204.885 41.6719 204.792 41.6875C205.354 35.4323 206.224 25.7708 206.646 21.3958C206.687 20.9531 206.359 20.5573 205.917 20.5156C205.464 20.4635 205.073 20.7969 205.031 21.2448C204.385 27.9635 202.677 47.1458 202.661 47.3385C202.63 47.6615 202.312 47.9271 201.943 47.9271H188.854C188.479 47.9271 188.167 47.6615 188.135 47.3385C188.12 47.1458 186.411 27.9635 185.766 21.2448C185.724 20.7969 185.333 20.4635 184.88 20.5156C184.437 20.5573 184.109 20.9531 184.151 21.3958C184.573 25.7708 185.443 35.4271 186.005 41.6875C185.911 41.6667 185.812 41.6562 185.719 41.6562H184.516C183.74 41.6562 183.104 42.2917 183.104 43.0677V48.1406C183.104 48.9167 183.74 49.5469 184.516 49.5469H185.719C186.297 49.5469 186.802 49.1927 187.016 48.6823C187.443 49.2135 188.104 49.5469 188.854 49.5469H201.943C202.687 49.5469 203.349 49.2135 203.781 48.6875C203.995 49.1927 204.495 49.5521 205.078 49.5521H206.281C207.057 49.5521 207.687 48.9219 207.687 48.1406V43.0677C207.687 42.2917 207.057 41.6615 206.281 41.6615Z" fill="#1C1C1B"/>
<path d="M190.344 25.1198V27.4115H191.016C191.411 27.4115 191.625 27.2292 191.625 26.6771V26.026C191.625 25.3333 191.401 25.1198 190.865 25.1198H190.344ZM190.344 22.0833V24.0521H190.802C191.24 24.0521 191.505 23.8646 191.505 23.2656V22.849C191.505 22.3125 191.323 22.0833 190.906 22.0833H190.344ZM192.677 22.7344V23C192.677 23.7656 192.443 24.2448 191.922 24.4896V24.5104C192.547 24.7604 192.797 25.3125 192.797 26.099V26.7083C192.797 27.8594 192.187 28.4792 191.016 28.4792H189.172V21.0156H190.938C192.156 21.0156 192.677 21.5833 192.677 22.7344Z" fill="#1C1C1B"/>
<path d="M194.833 26.1146H195.964L195.411 22.3385H195.385L194.833 26.1146ZM197.51 28.4792H196.328L196.125 27.125H194.688L194.479 28.4792H193.406L194.599 21.0156H196.313" fill="#1C1C1B"/>
<path d="M201.661 25.6926V26.6874C201.661 27.8801 201.062 28.5624 199.911 28.5624C198.76 28.5624 198.161 27.8801 198.161 26.6874V22.8072C198.161 21.6093 198.76 20.927 199.911 20.927C201.062 20.927 201.661 21.6093 201.661 22.8072V23.5312H200.552V22.7291C200.552 22.1978 200.318 21.9947 199.943 21.9947C199.573 21.9947 199.338 22.1978 199.338 22.7291V26.7603C199.338 27.2916 199.573 27.4843 199.943 27.4843C200.318 27.4843 200.552 27.2916 200.552 26.7603V25.6926" fill="#1C1C1B"/>
<path d="M192.703 31.2083V36.5365H193.365C193.734 36.5365 193.958 36.3438 193.958 35.8125V31.9323C193.958 31.401 193.734 31.2083 193.365 31.2083H192.703ZM191.531 30.1406H193.385C194.557 30.1406 195.13 30.7917 195.13 31.9844V35.7604C195.13 36.9531 194.557 37.6042 193.385 37.6042H191.531" fill="#1C1C1B"/>
<path d="M197.266 33.2865H198.875V34.349H197.266V36.5365H199.292V37.6042H196.094V30.1406H199.292V31.2031H197.266" fill="#1C1C1B"/>
<path d="M190.161 39.2656H193.786V40.3281H192.562V46.7292H191.385V40.3281H190.161" fill="#1C1C1B"/>
<path d="M195.688 40.3281V42.625H196.146C196.583 42.625 196.849 42.4323 196.849 41.8333V41.099C196.849 40.5677 196.667 40.3281 196.25 40.3281H195.688ZM196.969 46.7292C196.901 46.5365 196.859 46.4167 196.859 45.8125V44.6354C196.859 43.9479 196.625 43.6875 196.094 43.6875H195.688V46.7292H194.516V39.2656H196.286C197.5 39.2656 198.021 39.8281 198.021 40.9792V41.5677C198.021 42.3333 197.776 42.8229 197.255 43.0729V43.0938C197.839 43.3385 198.031 43.8906 198.031 44.6719V45.8229C198.031 46.1823 198.042 46.4531 198.161 46.7292" fill="#1C1C1B"/>
<path d="M199.016 46.7292H200.188V39.2656H199.016V46.7292Z" fill="#1C1C1B"/>
<path d="M207.125 17.6197H183.672V15.6666C183.672 15.5989 183.703 15.5676 183.698 15.5676H185.396C185.589 15.5676 185.771 15.4999 185.917 15.3697L188.047 13.5103C188.141 13.427 188.37 13.3437 188.661 13.3437H202.13C202.422 13.3437 202.656 13.427 202.75 13.5103L204.88 15.3697C205.026 15.4999 205.208 15.5676 205.401 15.5676H207.099C207.089 15.5676 207.125 15.5989 207.125 15.6666V17.6197ZM207.099 13.9791H205.698L203.792 12.3176C203.385 11.9583 202.781 11.7551 202.13 11.7551H188.661C188.016 11.7551 187.411 11.9583 187 12.3176L185.094 13.9791H183.698C182.807 13.9791 182.089 14.7395 182.089 15.6666V17.8124C182.089 18.1093 182.161 18.401 182.307 18.6614C182.37 18.7708 182.458 18.8697 182.562 18.9374C182.823 19.1093 183.12 19.1978 183.427 19.1978H207.37C207.677 19.1978 207.974 19.1093 208.234 18.9374C208.339 18.8697 208.427 18.7708 208.49 18.6614C208.63 18.401 208.708 18.1093 208.708 17.8124V15.6666C208.708 14.7395 207.984 13.9791 207.099 13.9791Z" fill="#1C1C1B"/>
<path d="M202.125 14.0781H188.667C188.297 14.0781 187.995 14.3802 187.995 14.75C187.995 15.1198 188.297 15.4219 188.667 15.4219H202.125C202.495 15.4219 202.797 15.1198 202.797 14.75C202.797 14.3802 202.495 14.0781 202.125 14.0781Z" fill="#1C1C1B"/>
<path d="M103.057 5.98438H50.2708V36.3802C50.2708 46.7135 58.802 55.1198 69.2916 55.1198H122.083V24.724C122.083 14.3958 113.547 5.98438 103.057 5.98438Z" fill="#FCC42F"/>
<path d="M63.8072 29.677C59.0051 29.677 55.1145 33.5676 55.1145 38.3697C55.1145 43.1718 59.0051 47.0624 63.8072 47.0624C68.6145 47.0624 72.5051 43.1718 72.5051 38.3697C72.5051 33.5676 68.6145 29.677 63.8072 29.677Z" fill="white"/>
<path d="M69.4792 39.7865H65.2292V44.0417H62.3906V39.7865H58.1406V36.9531H62.3906V32.7031H65.2292V36.9531H69.4792" fill="#1C1C1B"/>
<path d="M55.9426 26.9167V17.5156H58.427V24.8333H61.9843V26.9167" fill="#1C1C1B"/>
<path d="M63.0989 26.9167V17.5156H69.1718V19.599H65.5885V21.0729H68.651V23.1563H65.5885V24.8333H69.3176V26.9167" fill="#1C1C1B"/>
<path d="M75.2448 26.9167V19.599H72.7604V17.5156H80.2239V19.599H77.7343V26.9167" fill="#1C1C1B"/>
<path d="M83.7083 21.7969H84.6042C85.6042 21.7969 86.1094 21.3802 86.1094 20.5521C86.1094 20.1458 85.9792 19.8698 85.724 19.7135C85.4688 19.5573 85.0938 19.4792 84.6042 19.4792H83.7083V21.7969ZM81.2188 26.9167V17.5156H84.776C85.2813 17.5156 85.7604 17.5625 86.2188 17.6563C86.6771 17.7552 87.0729 17.9219 87.4167 18.151C87.7604 18.3802 88.0313 18.6927 88.2344 19.0833C88.4375 19.474 88.5365 19.9635 88.5365 20.5521C88.5365 21.2292 88.401 21.7865 88.125 22.2292C87.8542 22.6719 87.4844 23.0208 87.0208 23.2708L89.0573 26.9167H86.2813L84.6615 23.7604H83.7083V26.9167" fill="#1C1C1B"/>
<path d="M90.026 26.9167H92.5156V17.5156H90.026V26.9167Z" fill="#1C1C1B"/>
<path d="M75.5364 43.5937V34.1926H81.6666V36.276H78.026V38.0676H81.1458V40.151H78.026V43.5937" fill="#1C1C1B"/>
<path d="M85.0781 39.0208L84.9166 39.6718H86.651L86.4948 39.0208C86.3802 38.5676 86.2604 38.078 86.1458 37.5468C86.0312 37.0155 85.9166 36.5155 85.7968 36.0416H85.7395C85.6354 36.526 85.526 37.0312 85.4166 37.552C85.3073 38.078 85.1927 38.5676 85.0781 39.0208ZM81.4635 43.5937L84.3229 34.1926H87.3281L90.1927 43.5937H87.5625L87.0989 41.5989H84.4687L84.0052 43.5937" fill="#1C1C1B"/>
<path d="M94.7187 43.7656C94.1249 43.7656 93.552 43.6667 93.0103 43.4688C92.4635 43.2708 91.9895 42.974 91.578 42.5729C91.1666 42.1719 90.8385 41.6719 90.5989 41.0677C90.3593 40.4688 90.2395 39.7656 90.2395 38.9635C90.2395 38.1771 90.3645 37.474 90.6145 36.8594C90.8645 36.25 91.1978 35.7344 91.6197 35.3125C92.0364 34.8958 92.5208 34.5729 93.0676 34.349C93.6145 34.1302 94.1822 34.0156 94.7812 34.0156C95.4062 34.0156 95.9687 34.1406 96.4583 34.3854C96.953 34.6354 97.3645 34.9271 97.703 35.2604L96.401 36.8542C96.1718 36.651 95.9322 36.4844 95.6874 36.3542C95.4374 36.224 95.1562 36.1563 94.8385 36.1563C94.5572 36.1563 94.2968 36.2188 94.052 36.349C93.8072 36.474 93.5885 36.651 93.401 36.8802C93.2135 37.1146 93.0624 37.401 92.953 37.7344C92.8385 38.0729 92.7864 38.4531 92.7864 38.875C92.7864 39.7656 92.9687 40.4479 93.3437 40.9167C93.7135 41.3906 94.203 41.625 94.8072 41.625C95.177 41.625 95.4999 41.5469 95.7864 41.3854C96.0676 41.2292 96.3124 41.0365 96.5155 40.8177L97.8176 42.375C97.4114 42.8438 96.9478 43.1875 96.4218 43.4167C95.8958 43.651 95.328 43.7656 94.7187 43.7656Z" fill="#1C1C1B"/>
<path d="M98.776 43.5937H101.26V34.1926H98.776V43.5937Z" fill="#1C1C1B"/>
<path d="M103.031 43.5937V34.1926H105.521V41.5103H109.078V43.5937" fill="#1C1C1B"/>
<path d="M110.188 43.5937V34.1926H116.266V36.276H112.677V37.7499H115.745V39.8333H112.677V41.5103H116.411V43.5937" fill="#1C1C1B"/>
<path d="M28.5624 26.0625C26.8697 28.5521 28.3072 31.8281 30.052 33.4896C31.6458 35 32.9218 35.3594 33.0885 35.401L33.901 33.8438L36.2447 40.2552L29.6197 41.599L30.4999 39.9688L29.6041 39.4635C26.8124 37.6458 26.2239 35.1771 26.0312 34.4063C25.6978 33.0781 25.203 29.1094 28.5624 26.0625Z" fill="#1C1C1B"/>
<path d="M28.5312 26.1718C29.7344 28.927 33.2708 29.4635 35.6042 28.8697C37.6771 28.3437 38.6615 27.4895 38.8281 27.3333L38.8177 27.3176L37.9323 25.7864L44.599 27.2395L42.1875 33.5572L41.2917 31.9687L40.4219 32.4374C37.3958 33.828 34.9896 33.0103 34.2344 32.7603C32.9375 32.3333 29.3125 30.6353 28.5312 26.1718Z" fill="#1C1C1B"/>
<path d="M40.3177 19.5156C39.8541 22.8125 37.8698 24.3958 37.25 24.8958C36.1875 25.7552 32.802 27.8854 28.6198 26.1354C31.5937 26.6094 33.9531 23.9271 34.7135 21.6406C35.401 19.5885 35.1979 18.2917 35.1562 18.0885H35.1354L33.3698 18.0104L38.1823 13.1719L42.2083 18.6094L40.3906 18.5052" fill="#1C1C1B"/>
<path fill-rule="evenodd" clip-rule="evenodd" d="M20.0938 16.7291C18.5729 16.7291 17.3438 15.4999 17.3438 13.9791C17.3438 12.4583 18.5729 11.2239 20.0938 11.2239C21.6146 11.2239 22.849 12.4583 22.849 13.9791C22.849 15.4999 21.6146 16.7291 20.0938 16.7291Z" fill="#1C1C1B"/>
<path d="M15.8333 30.1146C16.0677 29.4688 16.4167 29.5104 16.4167 29.5104C16.4167 29.5104 16.7344 29.4427 16.9115 30.0938L19.4844 39.125C17.3385 38.5052 15.3802 37.4375 13.7135 36.0313L15.8333 30.1146ZM23.8594 5.98438C13.9167 5.98438 5.82812 14.0729 5.82812 24.0208C5.82812 33.9583 13.9167 42.0521 23.8594 42.0521C24.3906 42.0521 24.9115 42.0156 25.4323 41.9688L25.5521 43.7813L28.8542 40.5885L25.1615 37.776L25.3021 39.6771C24.8281 39.7188 24.3438 39.75 23.8594 39.75C23.0938 39.75 22.3438 39.6927 21.6094 39.5885L21.5365 39.1094L19.8229 24.5104C19.5885 21.7552 21.1615 21.3125 22.1354 21.7292L27.6042 23.9219C28.2292 24.1927 28.5313 23.6719 28.5313 23.6719C28.5313 23.6719 28.8854 23.1198 28.25 22.7135C28.25 22.7135 20.7969 17.776 19.2083 17.4792C17.0417 17.0729 14.8958 18.8281 14.4219 21.1146L11.776 34.0833C9.5 31.349 8.125 27.8438 8.125 24.0208C8.125 15.3438 15.1823 8.28646 23.8594 8.28646C28.4948 8.28646 32.6667 10.3021 35.5469 13.4948L37.1615 11.8594C33.8646 8.25 29.1198 5.98438 23.8594 5.98438Z" fill="#1C1C1B"/>
<path d="M137.28 39.364H137.616C137.824 39.364 137.992 39.318 138.12 39.226C138.248 39.134 138.312 38.964 138.312 38.716C138.312 38.592 138.294 38.49 138.258 38.41C138.226 38.326 138.18 38.26 138.12 38.212C138.064 38.16 137.996 38.124 137.916 38.104C137.836 38.084 137.748 38.074 137.652 38.074H137.28V39.364ZM137.28 37.474H137.526C137.766 37.474 137.94 37.432 138.048 37.348C138.16 37.26 138.216 37.114 138.216 36.91C138.216 36.706 138.166 36.562 138.066 36.478C137.966 36.394 137.808 36.352 137.592 36.352H137.28V37.474ZM136.416 35.716H137.862C138.038 35.716 138.2 35.734 138.348 35.77C138.5 35.806 138.63 35.866 138.738 35.95C138.846 36.034 138.93 36.146 138.99 36.286C139.05 36.426 139.08 36.598 139.08 36.802C139.08 37.034 139.026 37.234 138.918 37.402C138.81 37.566 138.648 37.678 138.432 37.738V37.75C138.672 37.782 138.862 37.884 139.002 38.056C139.142 38.228 139.212 38.458 139.212 38.746C139.212 38.914 139.19 39.074 139.146 39.226C139.102 39.378 139.026 39.512 138.918 39.628C138.814 39.74 138.676 39.83 138.504 39.898C138.336 39.966 138.126 40 137.874 40H136.416V35.716ZM141.538 38.386L141.124 36.46H141.112L140.698 38.386H141.538ZM141.652 35.716L142.786 40H141.886L141.688 39.094H140.548L140.35 40H139.45L140.584 35.716H141.652ZM143.084 35.716H144.68C145.04 35.716 145.32 35.808 145.52 35.992C145.72 36.172 145.82 36.448 145.82 36.82C145.82 37.108 145.762 37.344 145.646 37.528C145.53 37.708 145.35 37.824 145.106 37.876V37.888C145.322 37.92 145.48 37.99 145.58 38.098C145.68 38.206 145.742 38.38 145.766 38.62C145.774 38.7 145.78 38.788 145.784 38.884C145.788 38.976 145.792 39.08 145.796 39.196C145.804 39.424 145.816 39.598 145.832 39.718C145.856 39.838 145.908 39.92 145.988 39.964V40H145.052C145.008 39.94 144.98 39.872 144.968 39.796C144.956 39.716 144.948 39.634 144.944 39.55L144.92 38.728C144.912 38.56 144.87 38.428 144.794 38.332C144.718 38.236 144.59 38.188 144.41 38.188H143.948V40H143.084V35.716ZM143.948 37.588H144.308C144.516 37.588 144.676 37.54 144.788 37.444C144.9 37.344 144.956 37.178 144.956 36.946C144.956 36.55 144.756 36.352 144.356 36.352H143.948V37.588ZM146.46 40V35.716H147.324V40H146.46ZM147.965 40V35.716H148.829V39.292H150.359V40H147.965ZM129.699 42.716V43.424H128.169V44.432H129.609V45.14H128.169V46.292H129.759V47H127.305V42.716H129.699ZM131.19 42.716L132.234 45.65H132.246V42.716H133.038V47H132.054L130.998 44H130.986V47H130.194V42.716H131.19ZM135.944 44.654H136.328C136.5 44.654 136.638 44.602 136.742 44.498C136.85 44.394 136.904 44.232 136.904 44.012C136.904 43.796 136.858 43.632 136.766 43.52C136.674 43.408 136.52 43.352 136.304 43.352H135.944V44.654ZM135.08 42.716H136.592C136.812 42.716 136.996 42.754 137.144 42.83C137.296 42.902 137.418 42.998 137.51 43.118C137.602 43.238 137.668 43.376 137.708 43.532C137.748 43.684 137.768 43.84 137.768 44C137.768 44.22 137.734 44.412 137.666 44.576C137.602 44.74 137.51 44.874 137.39 44.978C137.274 45.082 137.132 45.16 136.964 45.212C136.796 45.264 136.61 45.29 136.406 45.29H135.944V47H135.08V42.716ZM138.192 47V42.716H139.056V46.292H140.586V47H138.192ZM142.757 45.386L142.343 43.46H142.331L141.917 45.386H142.757ZM142.871 42.716L144.005 47H143.105L142.907 46.094H141.767L141.569 47H140.669L141.803 42.716H142.871ZM144.999 45.662V45.788C144.999 45.888 145.007 45.98 145.023 46.064C145.039 46.144 145.069 46.212 145.113 46.268C145.157 46.324 145.215 46.368 145.287 46.4C145.363 46.432 145.457 46.448 145.569 46.448C145.701 46.448 145.819 46.406 145.923 46.322C146.031 46.234 146.085 46.1 146.085 45.92C146.085 45.824 146.071 45.742 146.043 45.674C146.019 45.602 145.977 45.538 145.917 45.482C145.857 45.426 145.777 45.376 145.677 45.332C145.581 45.284 145.461 45.236 145.317 45.188C145.125 45.124 144.959 45.054 144.819 44.978C144.679 44.902 144.561 44.814 144.465 44.714C144.373 44.61 144.305 44.492 144.261 44.36C144.217 44.224 144.195 44.068 144.195 43.892C144.195 43.468 144.313 43.152 144.549 42.944C144.785 42.736 145.109 42.632 145.521 42.632C145.713 42.632 145.889 42.654 146.049 42.698C146.213 42.738 146.353 42.806 146.469 42.902C146.589 42.994 146.681 43.114 146.745 43.262C146.813 43.406 146.847 43.58 146.847 43.784V43.904H146.019C146.019 43.7 145.983 43.544 145.911 43.436C145.839 43.324 145.719 43.268 145.551 43.268C145.455 43.268 145.375 43.282 145.311 43.31C145.247 43.338 145.195 43.376 145.155 43.424C145.119 43.468 145.093 43.52 145.077 43.58C145.065 43.64 145.059 43.702 145.059 43.766C145.059 43.898 145.087 44.01 145.143 44.102C145.199 44.19 145.319 44.272 145.503 44.348L146.169 44.636C146.333 44.708 146.467 44.784 146.571 44.864C146.675 44.94 146.757 45.024 146.817 45.116C146.881 45.204 146.925 45.302 146.949 45.41C146.973 45.518 146.985 45.638 146.985 45.77C146.985 46.222 146.853 46.552 146.589 46.76C146.329 46.964 145.965 47.066 145.497 47.066C145.009 47.066 144.659 46.96 144.447 46.748C144.239 46.536 144.135 46.232 144.135 45.836V45.662H144.999ZM149.922 42.716V43.424H148.986V47H148.122V43.424H147.186V42.716H149.922ZM150.339 47V42.716H151.203V47H150.339ZM152.618 44.858C152.618 45.146 152.624 45.392 152.636 45.596C152.652 45.796 152.68 45.96 152.72 46.088C152.764 46.212 152.824 46.304 152.9 46.364C152.98 46.42 153.084 46.448 153.212 46.448C153.34 46.448 153.442 46.42 153.518 46.364C153.598 46.304 153.658 46.212 153.698 46.088C153.742 45.96 153.77 45.796 153.782 45.596C153.798 45.392 153.806 45.146 153.806 44.858C153.806 44.57 153.798 44.326 153.782 44.126C153.77 43.926 153.742 43.762 153.698 43.634C153.658 43.506 153.598 43.414 153.518 43.358C153.442 43.298 153.34 43.268 153.212 43.268C153.084 43.268 152.98 43.298 152.9 43.358C152.824 43.414 152.764 43.506 152.72 43.634C152.68 43.762 152.652 43.926 152.636 44.126C152.624 44.326 152.618 44.57 152.618 44.858ZM154.292 47.51L153.782 47C153.622 47.044 153.432 47.066 153.212 47.066C152.888 47.066 152.63 47.014 152.438 46.91C152.246 46.806 152.098 46.656 151.994 46.46C151.894 46.264 151.828 46.03 151.796 45.758C151.768 45.486 151.754 45.186 151.754 44.858C151.754 44.534 151.768 44.236 151.796 43.964C151.828 43.688 151.894 43.452 151.994 43.256C152.098 43.06 152.246 42.908 152.438 42.8C152.63 42.688 152.888 42.632 153.212 42.632C153.536 42.632 153.794 42.688 153.986 42.8C154.178 42.908 154.324 43.06 154.424 43.256C154.528 43.452 154.594 43.688 154.622 43.964C154.654 44.236 154.67 44.534 154.67 44.858C154.67 45.222 154.65 45.552 154.61 45.848C154.57 46.144 154.48 46.394 154.34 46.598L154.802 47.048L154.292 47.51ZM155.988 42.716V45.704C155.988 45.812 155.994 45.912 156.006 46.004C156.022 46.092 156.048 46.17 156.084 46.238C156.124 46.302 156.176 46.354 156.24 46.394C156.308 46.43 156.392 46.448 156.492 46.448C156.596 46.448 156.68 46.43 156.744 46.394C156.808 46.354 156.858 46.302 156.894 46.238C156.934 46.17 156.96 46.092 156.972 46.004C156.988 45.912 156.996 45.812 156.996 45.704V42.716H157.86V45.704C157.86 45.976 157.822 46.202 157.746 46.382C157.67 46.558 157.568 46.698 157.44 46.802C157.312 46.906 157.166 46.976 157.002 47.012C156.838 47.048 156.668 47.066 156.492 47.066C156.316 47.066 156.146 47.05 155.982 47.018C155.818 46.986 155.672 46.922 155.544 46.826C155.416 46.726 155.314 46.586 155.238 46.406C155.162 46.226 155.124 45.992 155.124 45.704V42.716H155.988ZM160.8 42.716V43.424H159.27V44.432H160.71V45.14H159.27V46.292H160.86V47H158.406V42.716H160.8Z" fill="#1C1C1B"/>
<path d="M148.662 18.1742C148.662 18.4209 148.484 18.6201 148.252 18.6736V29.6189C148.484 29.6694 148.662 29.8686 148.662 30.1153V30.6772C148.662 30.9596 148.43 31.1944 148.145 31.1944H136.326C136.04 31.1944 135.809 30.9596 135.809 30.6772V30.1153C135.809 29.8686 135.987 29.6694 136.219 29.6189V18.6736C135.987 18.6201 135.809 18.4209 135.809 18.1742V15.2491C135.809 14.9608 136.043 14.7259 136.332 14.7259H136.828C136.843 14.7319 136.861 14.7348 136.876 14.7348H139.435C139.453 14.7348 139.468 14.7319 139.486 14.7259H139.664L141.257 12.9423C141.335 12.8591 141.448 12.8056 141.573 12.8056H146.599C146.769 12.8056 146.911 12.9067 146.986 13.0464L146.989 13.0434L148.662 15.9744V18.1742ZM139.435 14.2592V14.5535H136.876V14.4941L139.435 14.2592ZM136.778 14.069L136.876 14.06V13.8282L139.435 13.5933V13.8252L139.536 13.8163V13.9649H139.53C139.527 13.9649 139.524 13.9619 139.521 13.9619L136.778 14.2146V14.069ZM136.778 13.4031L136.876 13.3942V12.8413H139.435V13.1593L139.536 13.1504V13.299H139.53C139.527 13.299 139.524 13.2961 139.521 13.2961L136.778 13.5488V13.4031ZM149.471 18.1742V15.9744C149.471 15.8317 149.432 15.695 149.364 15.5731C149.364 15.5731 147.646 12.5707 147.619 12.538C147.387 12.2021 147.007 12 146.599 12H141.573C141.234 12 140.916 12.1338 140.678 12.3775C140.669 12.3864 140.244 12.865 140.244 12.865C140.241 12.868 140.241 12.7967 140.241 12.7521C140.196 12.3478 139.854 12.0327 139.435 12.0327H136.876C136.43 12.0327 136.07 12.3954 136.07 12.8413C136.07 12.8413 135.984 13.9144 135.978 13.9679C135.416 14.1225 135 14.6397 135 15.2491V18.1742C135 18.5458 135.155 18.8847 135.41 19.1254V29.1641C135.155 29.4049 135 29.7438 135 30.1153V30.6772C135 31.4055 135.595 32 136.326 32H148.145C148.876 32 149.471 31.4055 149.471 30.6772V30.1153C149.471 29.7438 149.316 29.4049 149.058 29.1641V19.1254C149.316 18.8847 149.471 18.5458 149.471 18.1742Z" fill="#1C1C1B"/>
<path d="M142.342 14.5625C142.342 14.3723 142.5 14.2147 142.69 14.2147H145.488C145.681 14.2147 145.835 14.3723 145.835 14.5625V14.8657C145.835 15.059 145.681 15.2135 145.488 15.2135H142.69C142.5 15.2135 142.342 15.059 142.342 14.8657V14.5625ZM142.69 15.6059H145.488C145.895 15.6059 146.228 15.273 146.228 14.8657V14.5625C146.228 14.1583 145.895 13.8253 145.488 13.8253H142.69C142.286 13.8253 141.953 14.1583 141.953 14.5625V14.8657C141.953 15.273 142.286 15.6059 142.69 15.6059Z" fill="#1C1C1B"/>
<path d="M137.461 18.8817C137.461 18.9888 137.551 19.075 137.658 19.075H147.03C147.137 19.075 147.227 18.9888 147.227 18.8817C147.227 18.7718 147.137 18.6855 147.03 18.6855H137.658C137.551 18.6855 137.461 18.7718 137.461 18.8817Z" fill="#1C1C1B"/>
<path d="M147.03 29.1432H137.658C137.551 29.1432 137.461 29.2294 137.461 29.3364C137.461 29.4464 137.551 29.5326 137.658 29.5326H147.03C147.137 29.5326 147.227 29.4464 147.227 29.3364C147.227 29.2294 147.137 29.1432 147.03 29.1432Z" fill="#1C1C1B"/>
</g>
<defs>
<clipPath id="clip0_137_49">
<rect width="227" height="61" fill="white"/>
</clipPath>
</defs>
</svg>
