<svg width="227" height="61" viewBox="0 0 227 61" fill="none" xmlns="http://www.w3.org/2000/svg">
<g clip-path="url(#clip0_47_1638)">
<path d="M24.8542 60.7916C11.2344 60.7916 0.15625 49.8385 0.15625 36.3801V0.317627H201.323C214.938 0.317627 226.016 11.2655 226.016 24.7239L226.021 60.7916" fill="white"/>
<path d="M201.323 5.98438H50.2708V36.3802C50.2708 46.7135 58.802 55.1198 69.2916 55.1198H220.349V24.724C220.349 14.3958 211.812 5.98438 201.323 5.98438Z" fill="white"/>
<path d="M218.458 53.2292H69.2916C59.8437 53.2292 52.1562 45.6719 52.1562 36.3802V7.875H201.323C210.771 7.875 218.458 15.4323 218.458 24.724V53.2292ZM201.323 5.98438H50.2708V36.3802C50.2708 46.7135 58.802 55.1198 69.2916 55.1198H220.349V24.724C220.349 14.3958 211.812 5.98438 201.323 5.98438Z" fill="#FCC42F"/>
<path d="M163.089 55.1198L176.099 28.5417L162.807 5.98438H201.323C211.812 5.98438 220.349 14.3906 220.349 24.724V55.1198" fill="#FCC42F"/>
<path d="M201.323 7.875H166.115L178.245 28.4583L166.12 53.2292H218.458V24.724C218.458 15.4323 210.771 7.875 201.323 7.875Z" fill="#FCC42F"/>
<path d="M206.281 41.6615H205.078C204.979 41.6615 204.885 41.6719 204.792 41.6875C205.354 35.4323 206.224 25.7708 206.646 21.3958C206.687 20.9531 206.359 20.5573 205.917 20.5156C205.464 20.4635 205.073 20.7969 205.031 21.2448C204.385 27.9635 202.677 47.1458 202.661 47.3385C202.63 47.6615 202.312 47.9271 201.943 47.9271H188.854C188.479 47.9271 188.167 47.6615 188.135 47.3385C188.12 47.1458 186.411 27.9635 185.766 21.2448C185.724 20.7969 185.333 20.4635 184.88 20.5156C184.437 20.5573 184.109 20.9531 184.151 21.3958C184.573 25.7708 185.443 35.4271 186.005 41.6875C185.911 41.6667 185.812 41.6562 185.719 41.6562H184.516C183.74 41.6562 183.104 42.2917 183.104 43.0677V48.1406C183.104 48.9167 183.74 49.5469 184.516 49.5469H185.719C186.297 49.5469 186.802 49.1927 187.016 48.6823C187.443 49.2135 188.104 49.5469 188.854 49.5469H201.943C202.687 49.5469 203.349 49.2135 203.781 48.6875C203.995 49.1927 204.495 49.5521 205.078 49.5521H206.281C207.057 49.5521 207.687 48.9219 207.687 48.1406V43.0677C207.687 42.2917 207.057 41.6615 206.281 41.6615Z" fill="#1C1C1B"/>
<path d="M190.344 25.1198V27.4115H191.016C191.411 27.4115 191.625 27.2292 191.625 26.6771V26.026C191.625 25.3333 191.401 25.1198 190.865 25.1198H190.344ZM190.344 22.0833V24.0521H190.802C191.24 24.0521 191.505 23.8646 191.505 23.2656V22.849C191.505 22.3125 191.323 22.0833 190.906 22.0833H190.344ZM192.677 22.7344V23C192.677 23.7656 192.443 24.2448 191.922 24.4896V24.5104C192.547 24.7604 192.797 25.3125 192.797 26.099V26.7083C192.797 27.8594 192.187 28.4792 191.016 28.4792H189.172V21.0156H190.938C192.156 21.0156 192.677 21.5833 192.677 22.7344Z" fill="#1C1C1B"/>
<path d="M194.833 26.1146H195.964L195.411 22.3385H195.385L194.833 26.1146ZM197.51 28.4792H196.328L196.125 27.125H194.688L194.479 28.4792H193.406L194.599 21.0156H196.313" fill="#1C1C1B"/>
<path d="M201.661 25.6926V26.6874C201.661 27.8801 201.062 28.5624 199.911 28.5624C198.76 28.5624 198.161 27.8801 198.161 26.6874V22.8072C198.161 21.6093 198.76 20.927 199.911 20.927C201.062 20.927 201.661 21.6093 201.661 22.8072V23.5312H200.552V22.7291C200.552 22.1978 200.318 21.9947 199.943 21.9947C199.573 21.9947 199.338 22.1978 199.338 22.7291V26.7603C199.338 27.2916 199.573 27.4843 199.943 27.4843C200.318 27.4843 200.552 27.2916 200.552 26.7603V25.6926" fill="#1C1C1B"/>
<path d="M192.703 31.2083V36.5365H193.365C193.734 36.5365 193.958 36.3438 193.958 35.8125V31.9323C193.958 31.401 193.734 31.2083 193.365 31.2083H192.703ZM191.531 30.1406H193.385C194.557 30.1406 195.13 30.7917 195.13 31.9844V35.7604C195.13 36.9531 194.557 37.6042 193.385 37.6042H191.531" fill="#1C1C1B"/>
<path d="M197.266 33.2865H198.875V34.349H197.266V36.5365H199.292V37.6042H196.094V30.1406H199.292V31.2031H197.266" fill="#1C1C1B"/>
<path d="M190.161 39.2656H193.786V40.3281H192.562V46.7292H191.385V40.3281H190.161" fill="#1C1C1B"/>
<path d="M195.688 40.3281V42.625H196.146C196.583 42.625 196.849 42.4323 196.849 41.8333V41.099C196.849 40.5677 196.667 40.3281 196.25 40.3281H195.688ZM196.969 46.7292C196.901 46.5365 196.859 46.4167 196.859 45.8125V44.6354C196.859 43.9479 196.625 43.6875 196.094 43.6875H195.688V46.7292H194.516V39.2656H196.286C197.5 39.2656 198.021 39.8281 198.021 40.9792V41.5677C198.021 42.3333 197.776 42.8229 197.255 43.0729V43.0938C197.839 43.3385 198.031 43.8906 198.031 44.6719V45.8229C198.031 46.1823 198.042 46.4531 198.161 46.7292" fill="#1C1C1B"/>
<path d="M199.016 46.7292H200.188V39.2656H199.016V46.7292Z" fill="#1C1C1B"/>
<path d="M207.125 17.6197H183.672V15.6666C183.672 15.5989 183.703 15.5676 183.698 15.5676H185.396C185.589 15.5676 185.771 15.4999 185.917 15.3697L188.047 13.5103C188.141 13.427 188.37 13.3437 188.661 13.3437H202.13C202.422 13.3437 202.656 13.427 202.75 13.5103L204.88 15.3697C205.026 15.4999 205.208 15.5676 205.401 15.5676H207.099C207.089 15.5676 207.125 15.5989 207.125 15.6666V17.6197ZM207.099 13.9791H205.698L203.792 12.3176C203.385 11.9583 202.781 11.7551 202.13 11.7551H188.661C188.016 11.7551 187.411 11.9583 187 12.3176L185.094 13.9791H183.698C182.807 13.9791 182.089 14.7395 182.089 15.6666V17.8124C182.089 18.1093 182.161 18.401 182.307 18.6614C182.37 18.7708 182.458 18.8697 182.562 18.9374C182.823 19.1093 183.12 19.1978 183.427 19.1978H207.37C207.677 19.1978 207.974 19.1093 208.234 18.9374C208.339 18.8697 208.427 18.7708 208.49 18.6614C208.63 18.401 208.708 18.1093 208.708 17.8124V15.6666C208.708 14.7395 207.984 13.9791 207.099 13.9791Z" fill="#1C1C1B"/>
<path d="M202.125 14.0781H188.667C188.297 14.0781 187.995 14.3802 187.995 14.75C187.995 15.1198 188.297 15.4219 188.667 15.4219H202.125C202.495 15.4219 202.797 15.1198 202.797 14.75C202.797 14.3802 202.495 14.0781 202.125 14.0781Z" fill="#1C1C1B"/>
<path d="M103.057 5.98438H50.2708V36.3802C50.2708 46.7135 58.802 55.1198 69.2916 55.1198H122.083V24.724C122.083 14.3958 113.547 5.98438 103.057 5.98438Z" fill="#FCC42F"/>
<path d="M63.8072 29.677C59.0051 29.677 55.1145 33.5676 55.1145 38.3697C55.1145 43.1718 59.0051 47.0624 63.8072 47.0624C68.6145 47.0624 72.5051 43.1718 72.5051 38.3697C72.5051 33.5676 68.6145 29.677 63.8072 29.677Z" fill="white"/>
<path d="M69.4792 39.7865H65.2292V44.0417H62.3906V39.7865H58.1406V36.9531H62.3906V32.7031H65.2292V36.9531H69.4792" fill="#1C1C1B"/>
<path d="M55.9426 26.9167V17.5156H58.427V24.8333H61.9843V26.9167" fill="#1C1C1B"/>
<path d="M63.0989 26.9167V17.5156H69.1718V19.599H65.5885V21.0729H68.651V23.1563H65.5885V24.8333H69.3176V26.9167" fill="#1C1C1B"/>
<path d="M75.2448 26.9167V19.599H72.7604V17.5156H80.2239V19.599H77.7343V26.9167" fill="#1C1C1B"/>
<path d="M83.7083 21.7969H84.6042C85.6042 21.7969 86.1094 21.3802 86.1094 20.5521C86.1094 20.1458 85.9792 19.8698 85.724 19.7135C85.4688 19.5573 85.0938 19.4792 84.6042 19.4792H83.7083V21.7969ZM81.2188 26.9167V17.5156H84.776C85.2813 17.5156 85.7604 17.5625 86.2188 17.6563C86.6771 17.7552 87.0729 17.9219 87.4167 18.151C87.7604 18.3802 88.0313 18.6927 88.2344 19.0833C88.4375 19.474 88.5365 19.9635 88.5365 20.5521C88.5365 21.2292 88.401 21.7865 88.125 22.2292C87.8542 22.6719 87.4844 23.0208 87.0208 23.2708L89.0573 26.9167H86.2813L84.6615 23.7604H83.7083V26.9167" fill="#1C1C1B"/>
<path d="M90.026 26.9167H92.5156V17.5156H90.026V26.9167Z" fill="#1C1C1B"/>
<path d="M75.5364 43.5937V34.1926H81.6666V36.276H78.026V38.0676H81.1458V40.151H78.026V43.5937" fill="#1C1C1B"/>
<path d="M85.0781 39.0208L84.9166 39.6718H86.651L86.4948 39.0208C86.3802 38.5676 86.2604 38.078 86.1458 37.5468C86.0312 37.0155 85.9166 36.5155 85.7968 36.0416H85.7395C85.6354 36.526 85.526 37.0312 85.4166 37.552C85.3073 38.078 85.1927 38.5676 85.0781 39.0208ZM81.4635 43.5937L84.3229 34.1926H87.3281L90.1927 43.5937H87.5625L87.0989 41.5989H84.4687L84.0052 43.5937" fill="#1C1C1B"/>
<path d="M94.7187 43.7656C94.1249 43.7656 93.552 43.6667 93.0103 43.4688C92.4635 43.2708 91.9895 42.974 91.578 42.5729C91.1666 42.1719 90.8385 41.6719 90.5989 41.0677C90.3593 40.4688 90.2395 39.7656 90.2395 38.9635C90.2395 38.1771 90.3645 37.474 90.6145 36.8594C90.8645 36.25 91.1978 35.7344 91.6197 35.3125C92.0364 34.8958 92.5208 34.5729 93.0676 34.349C93.6145 34.1302 94.1822 34.0156 94.7812 34.0156C95.4062 34.0156 95.9687 34.1406 96.4583 34.3854C96.953 34.6354 97.3645 34.9271 97.703 35.2604L96.401 36.8542C96.1718 36.651 95.9322 36.4844 95.6874 36.3542C95.4374 36.224 95.1562 36.1563 94.8385 36.1563C94.5572 36.1563 94.2968 36.2188 94.052 36.349C93.8072 36.474 93.5885 36.651 93.401 36.8802C93.2135 37.1146 93.0624 37.401 92.953 37.7344C92.8385 38.0729 92.7864 38.4531 92.7864 38.875C92.7864 39.7656 92.9687 40.4479 93.3437 40.9167C93.7135 41.3906 94.203 41.625 94.8072 41.625C95.177 41.625 95.4999 41.5469 95.7864 41.3854C96.0676 41.2292 96.3124 41.0365 96.5155 40.8177L97.8176 42.375C97.4114 42.8438 96.9478 43.1875 96.4218 43.4167C95.8958 43.651 95.328 43.7656 94.7187 43.7656Z" fill="#1C1C1B"/>
<path d="M98.776 43.5937H101.26V34.1926H98.776V43.5937Z" fill="#1C1C1B"/>
<path d="M103.031 43.5937V34.1926H105.521V41.5103H109.078V43.5937" fill="#1C1C1B"/>
<path d="M110.188 43.5937V34.1926H116.266V36.276H112.677V37.7499H115.745V39.8333H112.677V41.5103H116.411V43.5937" fill="#1C1C1B"/>
<path d="M28.5624 26.0625C26.8697 28.5521 28.3072 31.8281 30.052 33.4896C31.6458 35 32.9218 35.3594 33.0885 35.401L33.901 33.8438L36.2447 40.2552L29.6197 41.599L30.4999 39.9688L29.6041 39.4635C26.8124 37.6458 26.2239 35.1771 26.0312 34.4063C25.6978 33.0781 25.203 29.1094 28.5624 26.0625Z" fill="#1C1C1B"/>
<path d="M28.5312 26.1718C29.7344 28.927 33.2708 29.4635 35.6042 28.8697C37.6771 28.3437 38.6615 27.4895 38.8281 27.3333L38.8177 27.3176L37.9323 25.7864L44.599 27.2395L42.1875 33.5572L41.2917 31.9687L40.4219 32.4374C37.3958 33.828 34.9896 33.0103 34.2344 32.7603C32.9375 32.3333 29.3125 30.6353 28.5312 26.1718Z" fill="#1C1C1B"/>
<path d="M40.3177 19.5156C39.8541 22.8125 37.8698 24.3958 37.25 24.8958C36.1875 25.7552 32.802 27.8854 28.6198 26.1354C31.5937 26.6094 33.9531 23.9271 34.7135 21.6406C35.401 19.5885 35.1979 18.2917 35.1562 18.0885H35.1354L33.3698 18.0104L38.1823 13.1719L42.2083 18.6094L40.3906 18.5052" fill="#1C1C1B"/>
<path fill-rule="evenodd" clip-rule="evenodd" d="M20.0938 16.7291C18.5729 16.7291 17.3438 15.4999 17.3438 13.9791C17.3438 12.4583 18.5729 11.2239 20.0938 11.2239C21.6146 11.2239 22.849 12.4583 22.849 13.9791C22.849 15.4999 21.6146 16.7291 20.0938 16.7291Z" fill="#1C1C1B"/>
<path d="M15.8333 30.1146C16.0677 29.4688 16.4167 29.5104 16.4167 29.5104C16.4167 29.5104 16.7344 29.4427 16.9115 30.0938L19.4844 39.125C17.3385 38.5052 15.3802 37.4375 13.7135 36.0313L15.8333 30.1146ZM23.8594 5.98438C13.9167 5.98438 5.82812 14.0729 5.82812 24.0208C5.82812 33.9583 13.9167 42.0521 23.8594 42.0521C24.3906 42.0521 24.9115 42.0156 25.4323 41.9688L25.5521 43.7813L28.8542 40.5885L25.1615 37.776L25.3021 39.6771C24.8281 39.7188 24.3438 39.75 23.8594 39.75C23.0938 39.75 22.3438 39.6927 21.6094 39.5885L21.5365 39.1094L19.8229 24.5104C19.5885 21.7552 21.1615 21.3125 22.1354 21.7292L27.6042 23.9219C28.2292 24.1927 28.5313 23.6719 28.5313 23.6719C28.5313 23.6719 28.8854 23.1198 28.25 22.7135C28.25 22.7135 20.7969 17.776 19.2083 17.4792C17.0417 17.0729 14.8958 18.8281 14.4219 21.1146L11.776 34.0833C9.5 31.349 8.125 27.8438 8.125 24.0208C8.125 15.3438 15.1823 8.28646 23.8594 8.28646C28.4948 8.28646 32.6667 10.3021 35.5469 13.4948L37.1615 11.8594C33.8646 8.25 29.1198 5.98438 23.8594 5.98438Z" fill="#1C1C1B"/>
<path d="M132.323 40.258H132.715C132.958 40.258 133.154 40.2043 133.303 40.097C133.452 39.9897 133.527 39.7913 133.527 39.502C133.527 39.3573 133.506 39.2383 133.464 39.145C133.427 39.047 133.373 38.97 133.303 38.914C133.238 38.8533 133.158 38.8113 133.065 38.788C132.972 38.7647 132.869 38.753 132.757 38.753H132.323V40.258ZM132.323 38.053H132.61C132.89 38.053 133.093 38.004 133.219 37.906C133.35 37.8033 133.415 37.633 133.415 37.395C133.415 37.157 133.357 36.989 133.24 36.891C133.123 36.793 132.939 36.744 132.687 36.744H132.323V38.053ZM131.315 36.002H133.002C133.207 36.002 133.396 36.023 133.569 36.065C133.746 36.107 133.898 36.177 134.024 36.275C134.15 36.373 134.248 36.5037 134.318 36.667C134.388 36.8303 134.423 37.031 134.423 37.269C134.423 37.5397 134.36 37.773 134.234 37.969C134.108 38.1603 133.919 38.291 133.667 38.361V38.375C133.947 38.4123 134.169 38.5313 134.332 38.732C134.495 38.9327 134.577 39.201 134.577 39.537C134.577 39.733 134.551 39.9197 134.5 40.097C134.449 40.2743 134.36 40.4307 134.234 40.566C134.113 40.6967 133.952 40.8017 133.751 40.881C133.555 40.9603 133.31 41 133.016 41H131.315V36.002ZM136.107 38.501C136.107 38.837 136.114 39.124 136.128 39.362C136.147 39.5953 136.18 39.7867 136.226 39.936C136.278 40.0807 136.348 40.188 136.436 40.258C136.53 40.3233 136.651 40.356 136.8 40.356C136.95 40.356 137.069 40.3233 137.157 40.258C137.251 40.188 137.321 40.0807 137.367 39.936C137.419 39.7867 137.451 39.5953 137.465 39.362C137.484 39.124 137.493 38.837 137.493 38.501C137.493 38.165 137.484 37.8803 137.465 37.647C137.451 37.4137 137.419 37.2223 137.367 37.073C137.321 36.9237 137.251 36.8163 137.157 36.751C137.069 36.681 136.95 36.646 136.8 36.646C136.651 36.646 136.53 36.681 136.436 36.751C136.348 36.8163 136.278 36.9237 136.226 37.073C136.18 37.2223 136.147 37.4137 136.128 37.647C136.114 37.8803 136.107 38.165 136.107 38.501ZM135.099 38.501C135.099 38.123 135.116 37.7753 135.148 37.458C135.186 37.136 135.263 36.8607 135.379 36.632C135.501 36.4033 135.673 36.226 135.897 36.1C136.121 35.9693 136.422 35.904 136.8 35.904C137.178 35.904 137.479 35.9693 137.703 36.1C137.927 36.226 138.098 36.4033 138.214 36.632C138.336 36.8607 138.413 37.136 138.445 37.458C138.483 37.7753 138.501 38.123 138.501 38.501C138.501 38.8837 138.483 39.2337 138.445 39.551C138.413 39.8683 138.336 40.1413 138.214 40.37C138.098 40.5987 137.927 40.7737 137.703 40.895C137.479 41.0163 137.178 41.077 136.8 41.077C136.422 41.077 136.121 41.0163 135.897 40.895C135.673 40.7737 135.501 40.5987 135.379 40.37C135.263 40.1413 135.186 39.8683 135.148 39.551C135.116 39.2337 135.099 38.8837 135.099 38.501ZM139.143 34.7H140.151L140.697 35.708H139.955L139.633 35.113L139.297 35.708H138.618L139.143 34.7ZM139.143 41V36.002H140.151V41H139.143ZM143.825 36.002V36.828H142.733V41H141.725V36.828H140.633V36.002H143.825ZM147.055 36.002V36.828H145.27V38.004H146.95V38.83H145.27V40.174H147.125V41H144.262V36.002H147.055ZM152.107 36.002V36.828H150.322V38.004H152.002V38.83H150.322V40.174H152.177V41H149.314V36.002H152.107ZM153.846 36.002L155.064 39.425H155.078V36.002H156.002V41H154.854L153.622 37.5H153.608V41H152.684V36.002H153.846ZM130.566 46.263H131.014C131.215 46.263 131.376 46.2023 131.497 46.081C131.623 45.9597 131.686 45.7707 131.686 45.514C131.686 45.262 131.632 45.0707 131.525 44.94C131.418 44.8093 131.238 44.744 130.986 44.744H130.566V46.263ZM129.558 44.002H131.322C131.579 44.002 131.793 44.0463 131.966 44.135C132.143 44.219 132.286 44.331 132.393 44.471C132.5 44.611 132.577 44.772 132.624 44.954C132.671 45.1313 132.694 45.3133 132.694 45.5C132.694 45.7567 132.654 45.9807 132.575 46.172C132.5 46.3633 132.393 46.5197 132.253 46.641C132.118 46.7623 131.952 46.8533 131.756 46.914C131.56 46.9747 131.343 47.005 131.105 47.005H130.566V49H129.558V44.002ZM133.188 49V44.002H134.196V48.174H135.981V49H133.188ZM138.514 47.117L138.031 44.87H138.017L137.534 47.117H138.514ZM138.647 44.002L139.97 49H138.92L138.689 47.943H137.359L137.128 49H136.078L137.401 44.002H138.647ZM141.13 47.439V47.586C141.13 47.7027 141.139 47.81 141.158 47.908C141.176 48.0013 141.211 48.0807 141.263 48.146C141.314 48.2113 141.382 48.2627 141.466 48.3C141.554 48.3373 141.664 48.356 141.795 48.356C141.949 48.356 142.086 48.307 142.208 48.209C142.334 48.1063 142.397 47.95 142.397 47.74C142.397 47.628 142.38 47.5323 142.348 47.453C142.32 47.369 142.271 47.2943 142.201 47.229C142.131 47.1637 142.037 47.1053 141.921 47.054C141.809 46.998 141.669 46.942 141.501 46.886C141.277 46.8113 141.083 46.7297 140.92 46.641C140.756 46.5523 140.619 46.4497 140.507 46.333C140.399 46.2117 140.32 46.074 140.269 45.92C140.217 45.7613 140.192 45.5793 140.192 45.374C140.192 44.8793 140.329 44.5107 140.605 44.268C140.88 44.0253 141.258 43.904 141.739 43.904C141.963 43.904 142.168 43.9297 142.355 43.981C142.546 44.0277 142.709 44.107 142.845 44.219C142.985 44.3263 143.092 44.4663 143.167 44.639C143.246 44.807 143.286 45.01 143.286 45.248V45.388H142.32C142.32 45.15 142.278 44.968 142.194 44.842C142.11 44.7113 141.97 44.646 141.774 44.646C141.662 44.646 141.568 44.6623 141.494 44.695C141.419 44.7277 141.358 44.772 141.312 44.828C141.27 44.8793 141.239 44.94 141.221 45.01C141.207 45.08 141.2 45.1523 141.2 45.227C141.2 45.381 141.232 45.5117 141.298 45.619C141.363 45.7217 141.503 45.8173 141.718 45.906L142.495 46.242C142.686 46.326 142.842 46.4147 142.964 46.508C143.085 46.5967 143.181 46.6947 143.251 46.802C143.325 46.9047 143.377 47.019 143.405 47.145C143.433 47.271 143.447 47.411 143.447 47.565C143.447 48.0923 143.293 48.4773 142.985 48.72C142.681 48.958 142.257 49.077 141.711 49.077C141.141 49.077 140.733 48.9533 140.486 48.706C140.243 48.4587 140.122 48.104 140.122 47.642V47.439H141.13ZM146.874 44.002V44.828H145.782V49H144.774V44.828H143.682V44.002H146.874ZM147.36 49V44.002H148.368V49H147.36ZM150.019 46.501C150.019 46.837 150.026 47.124 150.04 47.362C150.058 47.5953 150.091 47.7867 150.138 47.936C150.189 48.0807 150.259 48.188 150.348 48.258C150.441 48.3233 150.562 48.356 150.712 48.356C150.861 48.356 150.98 48.3233 151.069 48.258C151.162 48.188 151.232 48.0807 151.279 47.936C151.33 47.7867 151.363 47.5953 151.377 47.362C151.395 47.124 151.405 46.837 151.405 46.501C151.405 46.165 151.395 45.8803 151.377 45.647C151.363 45.4137 151.33 45.2223 151.279 45.073C151.232 44.9237 151.162 44.8163 151.069 44.751C150.98 44.681 150.861 44.646 150.712 44.646C150.562 44.646 150.441 44.681 150.348 44.751C150.259 44.8163 150.189 44.9237 150.138 45.073C150.091 45.2223 150.058 45.4137 150.04 45.647C150.026 45.8803 150.019 46.165 150.019 46.501ZM151.972 49.595L151.377 49C151.19 49.0513 150.968 49.077 150.712 49.077C150.334 49.077 150.033 49.0163 149.809 48.895C149.585 48.7737 149.412 48.5987 149.291 48.37C149.174 48.1413 149.097 47.8683 149.06 47.551C149.027 47.2337 149.011 46.8837 149.011 46.501C149.011 46.123 149.027 45.7753 149.06 45.458C149.097 45.136 149.174 44.8607 149.291 44.632C149.412 44.4033 149.585 44.226 149.809 44.1C150.033 43.9693 150.334 43.904 150.712 43.904C151.09 43.904 151.391 43.9693 151.615 44.1C151.839 44.226 152.009 44.4033 152.126 44.632C152.247 44.8607 152.324 45.136 152.357 45.458C152.394 45.7753 152.413 46.123 152.413 46.501C152.413 46.9257 152.389 47.3107 152.343 47.656C152.296 48.0013 152.191 48.293 152.028 48.531L152.567 49.056L151.972 49.595ZM153.95 44.002V47.488C153.95 47.614 153.957 47.7307 153.971 47.838C153.99 47.9407 154.02 48.0317 154.062 48.111C154.109 48.1857 154.17 48.2463 154.244 48.293C154.324 48.335 154.422 48.356 154.538 48.356C154.66 48.356 154.758 48.335 154.832 48.293C154.907 48.2463 154.965 48.1857 155.007 48.111C155.054 48.0317 155.084 47.9407 155.098 47.838C155.117 47.7307 155.126 47.614 155.126 47.488V44.002H156.134V47.488C156.134 47.8053 156.09 48.069 156.001 48.279C155.913 48.4843 155.794 48.6477 155.644 48.769C155.495 48.8903 155.325 48.972 155.133 49.014C154.942 49.056 154.744 49.077 154.538 49.077C154.333 49.077 154.135 49.0583 153.943 49.021C153.752 48.9837 153.582 48.909 153.432 48.797C153.283 48.6803 153.164 48.517 153.075 48.307C152.987 48.097 152.942 47.824 152.942 47.488V44.002H153.95ZM159.565 44.002V44.828H157.78V46.004H159.46V46.83H157.78V48.174H159.635V49H156.772V44.002H159.565Z" fill="#1C1C1B"/>
<path d="M150.148 30.0155C150.138 30.031 150.12 30.0404 150.104 30.0435L143.885 31.3887C143.808 31.4012 143.717 31.3483 143.695 31.2798L143.347 30.1525L143.727 30.4078C143.867 30.5448 144.054 30.6352 144.256 30.6352C144.312 30.6352 144.365 30.6289 144.415 30.6165L149.067 29.5764C149.235 29.539 149.369 29.4363 149.466 29.3024C149.5 29.2837 149.531 29.2556 149.556 29.2214C149.593 29.1591 149.6 29.0906 149.584 29.0252C149.6 28.9256 149.593 28.8197 149.559 28.7169L144.499 13.0597C144.393 12.7358 144.054 12.4898 143.705 12.4898C143.699 12.4898 143.643 12.4929 143.636 12.4929L138.947 12.9382C138.75 12.96 138.582 13.0565 138.479 13.2091C138.389 13.3461 138.364 13.5143 138.399 13.6793C138.399 13.8164 138.395 13.9783 138.392 14.162L137.86 12.4368L144.072 11.8452C144.169 11.8452 144.287 11.9262 144.315 12.0133L150.151 29.9656C150.157 29.9843 150.157 30.003 150.148 30.0155ZM139.526 26.808C138.9 26.4063 138.81 26.2786 138.81 25.1887C138.81 24.6344 138.863 22.4951 138.919 20.2281C138.931 19.7766 138.94 19.3157 138.953 18.8611L141.914 28.3931C140.893 27.708 139.884 27.0385 139.526 26.808ZM138.859 15.171L143.372 29.5857L143.119 29.4176L138.85 15.6318C138.853 15.473 138.856 15.3173 138.859 15.171ZM144.505 26.2537C145.162 26.6586 148.033 28.5207 148.939 29.1093L144.309 30.1463C144.293 30.1494 144.275 30.1525 144.256 30.1525C144.231 30.1525 144.206 30.1463 144.181 30.14C144.172 30.1307 144.163 30.1182 144.15 30.1089L144.029 30.0279C144.013 30.0061 144.004 29.9874 143.994 29.9656L138.881 13.6295C138.884 13.5859 138.884 13.5361 138.884 13.4987C138.884 13.4925 138.881 13.4894 138.881 13.4832C138.881 13.48 138.881 13.4769 138.881 13.4769C138.903 13.4458 138.94 13.424 138.993 13.4209L143.705 12.9725C143.714 12.9725 143.723 12.9756 143.733 12.9756C143.727 14.0063 143.655 16.8058 143.59 19.2908C143.534 21.5049 143.481 23.5944 143.481 24.1393C143.481 25.3694 143.652 25.7275 144.505 26.2537ZM144.76 25.8427C144.05 25.4067 143.963 25.2137 143.963 24.1393C143.963 23.6006 144.016 21.5142 144.072 19.3033C144.125 17.2791 144.184 15.0464 144.206 13.7261L149.005 28.5768C147.937 27.8824 145.377 26.2257 144.76 25.8427ZM150.954 29.7041L145.119 11.7518C144.969 11.2878 144.471 10.9577 143.979 11.0044L137.779 11.5961C137.511 11.621 137.277 11.7549 137.137 11.9666C136.997 12.1784 136.963 12.4462 137.041 12.7015L138.168 16.3325C138.14 17.5158 138.106 18.8922 138.075 20.2094C138.019 22.4795 137.963 24.6251 137.963 25.1887C137.963 26.4468 138.109 26.9046 139.071 27.5211C139.526 27.8139 141.058 28.8353 142.313 29.676L142.889 31.5289C143.017 31.9462 143.415 32.2358 143.857 32.2358C143.926 32.2358 143.998 32.2295 144.063 32.214L150.285 30.8687C150.537 30.8127 150.755 30.657 150.883 30.4359C151.007 30.2179 151.035 29.9501 150.954 29.7041Z" fill="#1C1C1B"/>
</g>
<defs>
<clipPath id="clip0_47_1638">
<rect width="227" height="61" fill="white"/>
</clipPath>
</defs>
</svg>
