<svg width="227" height="61" viewBox="0 0 227 61" fill="none" xmlns="http://www.w3.org/2000/svg">
<g clip-path="url(#clip0_21_1594)">
<path d="M24.8542 60.7916C11.2344 60.7916 0.15625 49.8385 0.15625 36.3801V0.317627H201.323C214.938 0.317627 226.016 11.2655 226.016 24.7239L226.021 60.7916" fill="white"/>
<path d="M218.458 53.2292H69.2916C59.8437 53.2292 52.1562 45.6719 52.1562 36.3802V7.875H201.323C210.771 7.875 218.458 15.4323 218.458 24.724V53.2292ZM201.323 5.98438H50.2708V36.3802C50.2708 46.7135 58.802 55.1198 69.2916 55.1198H220.349V24.724C220.349 14.3958 211.812 5.98438 201.323 5.98438Z" fill="#FCC42F"/>
<path d="M162.281 55.1198L175.292 28.5417L162 5.98438H200.516C211.005 5.98438 219.542 14.3906 219.542 24.724V55.1198" fill="#FCC42F"/>
<path d="M203.208 7.875H168L180.13 28.4583L168.005 53.2292H220.344V24.724C220.344 15.4323 212.656 7.875 203.208 7.875Z" fill="#FCC42F"/>
<path d="M206.281 41.6615H205.078C204.979 41.6615 204.885 41.6719 204.792 41.6875C205.354 35.4323 206.224 25.7708 206.646 21.3958C206.687 20.9531 206.359 20.5573 205.917 20.5156C205.463 20.4635 205.073 20.7969 205.031 21.2448C204.385 27.9635 202.677 47.1458 202.661 47.3385C202.63 47.6615 202.312 47.9271 201.943 47.9271H188.854C188.479 47.9271 188.167 47.6615 188.135 47.3385C188.12 47.1458 186.411 27.9635 185.765 21.2448C185.724 20.7969 185.333 20.4635 184.88 20.5156C184.437 20.5573 184.109 20.9531 184.151 21.3958C184.573 25.7708 185.443 35.4271 186.005 41.6875C185.911 41.6667 185.812 41.6562 185.719 41.6562H184.515C183.739 41.6562 183.104 42.2917 183.104 43.0677V48.1406C183.104 48.9167 183.739 49.5469 184.515 49.5469H185.719C186.297 49.5469 186.802 49.1927 187.015 48.6823C187.443 49.2135 188.104 49.5469 188.854 49.5469H201.943C202.687 49.5469 203.349 49.2135 203.781 48.6875C203.995 49.1927 204.495 49.5521 205.078 49.5521H206.281C207.057 49.5521 207.687 48.9219 207.687 48.1406V43.0677C207.687 42.2917 207.057 41.6615 206.281 41.6615Z" fill="#1C1C1B"/>
<path d="M190.344 25.1198V27.4115H191.016C191.411 27.4115 191.625 27.2292 191.625 26.6771V26.026C191.625 25.3333 191.401 25.1198 190.865 25.1198H190.344ZM190.344 22.0833V24.0521H190.802C191.24 24.0521 191.505 23.8646 191.505 23.2656V22.849C191.505 22.3125 191.323 22.0833 190.906 22.0833H190.344ZM192.677 22.7344V23C192.677 23.7656 192.443 24.2448 191.922 24.4896V24.5104C192.547 24.7604 192.797 25.3125 192.797 26.099V26.7083C192.797 27.8594 192.187 28.4792 191.016 28.4792H189.172V21.0156H190.938C192.156 21.0156 192.677 21.5833 192.677 22.7344Z" fill="#1C1C1B"/>
<path d="M194.833 26.1146H195.964L195.411 22.3385H195.385L194.833 26.1146ZM197.51 28.4792H196.328L196.125 27.125H194.688L194.479 28.4792H193.406L194.599 21.0156H196.313" fill="#1C1C1B"/>
<path d="M201.661 25.6926V26.6874C201.661 27.8801 201.062 28.5624 199.911 28.5624C198.76 28.5624 198.161 27.8801 198.161 26.6874V22.8072C198.161 21.6093 198.76 20.927 199.911 20.927C201.062 20.927 201.661 21.6093 201.661 22.8072V23.5312H200.552V22.7291C200.552 22.1978 200.318 21.9947 199.943 21.9947C199.573 21.9947 199.338 22.1978 199.338 22.7291V26.7603C199.338 27.2916 199.573 27.4843 199.943 27.4843C200.318 27.4843 200.552 27.2916 200.552 26.7603V25.6926" fill="#1C1C1B"/>
<path d="M192.703 31.2083V36.5365H193.365C193.734 36.5365 193.958 36.3438 193.958 35.8125V31.9323C193.958 31.401 193.734 31.2083 193.365 31.2083H192.703ZM191.531 30.1406H193.385C194.557 30.1406 195.13 30.7917 195.13 31.9844V35.7604C195.13 36.9531 194.557 37.6042 193.385 37.6042H191.531" fill="#1C1C1B"/>
<path d="M197.266 33.2865H198.875V34.349H197.266V36.5365H199.292V37.6042H196.094V30.1406H199.292V31.2031H197.266" fill="#1C1C1B"/>
<path d="M190.161 39.2656H193.786V40.3281H192.562V46.7292H191.385V40.3281H190.161" fill="#1C1C1B"/>
<path d="M195.688 40.3281V42.625H196.146C196.583 42.625 196.849 42.4323 196.849 41.8333V41.099C196.849 40.5677 196.667 40.3281 196.25 40.3281H195.688ZM196.969 46.7292C196.901 46.5365 196.859 46.4167 196.859 45.8125V44.6354C196.859 43.9479 196.625 43.6875 196.094 43.6875H195.688V46.7292H194.516V39.2656H196.286C197.5 39.2656 198.021 39.8281 198.021 40.9792V41.5677C198.021 42.3333 197.776 42.8229 197.255 43.0729V43.0938C197.839 43.3385 198.031 43.8906 198.031 44.6719V45.8229C198.031 46.1823 198.042 46.4531 198.161 46.7292" fill="#1C1C1B"/>
<path d="M199.016 46.7292H200.188V39.2656H199.016V46.7292Z" fill="#1C1C1B"/>
<path d="M207.125 17.6197H183.672V15.6666C183.672 15.5989 183.703 15.5676 183.698 15.5676H185.396C185.588 15.5676 185.771 15.4999 185.917 15.3697L188.047 13.5103C188.14 13.427 188.37 13.3437 188.661 13.3437H202.13C202.422 13.3437 202.656 13.427 202.75 13.5103L204.88 15.3697C205.026 15.4999 205.208 15.5676 205.401 15.5676H207.099C207.088 15.5676 207.125 15.5989 207.125 15.6666V17.6197ZM207.099 13.9791H205.698L203.792 12.3176C203.385 11.9583 202.781 11.7551 202.13 11.7551H188.661C188.015 11.7551 187.411 11.9583 187 12.3176L185.094 13.9791H183.698C182.807 13.9791 182.088 14.7395 182.088 15.6666V17.8124C182.088 18.1093 182.161 18.401 182.307 18.6614C182.37 18.7708 182.458 18.8697 182.562 18.9374C182.823 19.1093 183.12 19.1978 183.427 19.1978H207.37C207.677 19.1978 207.974 19.1093 208.234 18.9374C208.338 18.8697 208.427 18.7708 208.489 18.6614C208.63 18.401 208.708 18.1093 208.708 17.8124V15.6666C208.708 14.7395 207.984 13.9791 207.099 13.9791Z" fill="#1C1C1B"/>
<path d="M202.125 14.0781H188.667C188.297 14.0781 187.995 14.3802 187.995 14.75C187.995 15.1198 188.297 15.4219 188.667 15.4219H202.125C202.495 15.4219 202.797 15.1198 202.797 14.75C202.797 14.3802 202.495 14.0781 202.125 14.0781Z" fill="#1C1C1B"/>
<path d="M103.057 5.98438H50.2708V36.3802C50.2708 46.7135 58.802 55.1198 69.2916 55.1198H122.083V24.724C122.083 14.3958 113.547 5.98438 103.057 5.98438Z" fill="#FCC42F"/>
<path d="M63.8072 29.677C59.0051 29.677 55.1145 33.5676 55.1145 38.3697C55.1145 43.1718 59.0051 47.0624 63.8072 47.0624C68.6145 47.0624 72.5051 43.1718 72.5051 38.3697C72.5051 33.5676 68.6145 29.677 63.8072 29.677Z" fill="white"/>
<path d="M69.4792 39.7865H65.2292V44.0417H62.3906V39.7865H58.1406V36.9531H62.3906V32.7031H65.2292V36.9531H69.4792" fill="#1C1C1B"/>
<path d="M55.9426 26.9167V17.5156H58.427V24.8333H61.9843V26.9167" fill="#1C1C1B"/>
<path d="M63.0989 26.9167V17.5156H69.1718V19.599H65.5885V21.0729H68.651V23.1562H65.5885V24.8333H69.3176V26.9167" fill="#1C1C1B"/>
<path d="M75.2448 26.9167V19.599H72.7604V17.5156H80.2239V19.599H77.7343V26.9167" fill="#1C1C1B"/>
<path d="M83.7083 21.7969H84.6042C85.6042 21.7969 86.1094 21.3802 86.1094 20.5521C86.1094 20.1458 85.9792 19.8698 85.724 19.7135C85.4688 19.5573 85.0938 19.4792 84.6042 19.4792H83.7083V21.7969ZM81.2188 26.9167V17.5156H84.776C85.2813 17.5156 85.7604 17.5625 86.2188 17.6562C86.6771 17.7552 87.0729 17.9219 87.4167 18.151C87.7604 18.3802 88.0313 18.6927 88.2344 19.0833C88.4375 19.474 88.5365 19.9635 88.5365 20.5521C88.5365 21.2292 88.401 21.7865 88.125 22.2292C87.8542 22.6719 87.4844 23.0208 87.0208 23.2708L89.0573 26.9167H86.2812L84.6615 23.7604H83.7083V26.9167" fill="#1C1C1B"/>
<path d="M90.026 26.9167H92.5156V17.5156H90.026V26.9167Z" fill="#1C1C1B"/>
<path d="M75.5364 43.5937V34.1926H81.6666V36.276H78.026V38.0676H81.1458V40.151H78.026V43.5937" fill="#1C1C1B"/>
<path d="M85.0781 39.0208L84.9166 39.6718H86.651L86.4948 39.0208C86.3802 38.5676 86.2604 38.078 86.1458 37.5468C86.0312 37.0155 85.9166 36.5155 85.7968 36.0416H85.7395C85.6354 36.526 85.526 37.0312 85.4166 37.552C85.3073 38.078 85.1927 38.5676 85.0781 39.0208ZM81.4635 43.5937L84.3229 34.1926H87.3281L90.1927 43.5937H87.5625L87.0989 41.5989H84.4687L84.0052 43.5937" fill="#1C1C1B"/>
<path d="M94.7187 43.7656C94.1249 43.7656 93.552 43.6667 93.0103 43.4688C92.4635 43.2708 91.9895 42.974 91.578 42.5729C91.1666 42.1719 90.8385 41.6719 90.5989 41.0677C90.3593 40.4688 90.2395 39.7656 90.2395 38.9635C90.2395 38.1771 90.3645 37.474 90.6145 36.8594C90.8645 36.25 91.1978 35.7344 91.6197 35.3125C92.0364 34.8958 92.5208 34.5729 93.0676 34.349C93.6145 34.1302 94.1822 34.0156 94.7812 34.0156C95.4062 34.0156 95.9687 34.1406 96.4583 34.3854C96.953 34.6354 97.3645 34.9271 97.703 35.2604L96.401 36.8542C96.1718 36.651 95.9322 36.4844 95.6874 36.3542C95.4374 36.224 95.1562 36.1562 94.8385 36.1562C94.5572 36.1562 94.2968 36.2188 94.052 36.349C93.8072 36.474 93.5885 36.651 93.401 36.8802C93.2135 37.1146 93.0624 37.401 92.953 37.7344C92.8385 38.0729 92.7864 38.4531 92.7864 38.875C92.7864 39.7656 92.9687 40.4479 93.3437 40.9167C93.7135 41.3906 94.203 41.625 94.8072 41.625C95.177 41.625 95.4999 41.5469 95.7864 41.3854C96.0676 41.2292 96.3124 41.0365 96.5155 40.8177L97.8176 42.375C97.4114 42.8438 96.9478 43.1875 96.4218 43.4167C95.8958 43.651 95.328 43.7656 94.7187 43.7656Z" fill="#1C1C1B"/>
<path d="M98.776 43.5937H101.26V34.1926H98.776V43.5937Z" fill="#1C1C1B"/>
<path d="M103.031 43.5937V34.1926H105.521V41.5103H109.078V43.5937" fill="#1C1C1B"/>
<path d="M110.188 43.5937V34.1926H116.266V36.276H112.677V37.7499H115.745V39.8333H112.677V41.5103H116.411V43.5937" fill="#1C1C1B"/>
<path d="M28.5624 26.0625C26.8697 28.5521 28.3072 31.8281 30.052 33.4896C31.6458 35 32.9218 35.3594 33.0885 35.401L33.901 33.8438L36.2447 40.2552L29.6197 41.599L30.4999 39.9688L29.6041 39.4635C26.8124 37.6458 26.2239 35.1771 26.0312 34.4062C25.6978 33.0781 25.203 29.1094 28.5624 26.0625Z" fill="#1C1C1B"/>
<path d="M28.5312 26.1718C29.7344 28.927 33.2708 29.4635 35.6042 28.8697C37.6771 28.3437 38.6615 27.4895 38.8281 27.3333L38.8177 27.3176L37.9323 25.7864L44.599 27.2395L42.1875 33.5572L41.2917 31.9687L40.4219 32.4374C37.3958 33.828 34.9896 33.0103 34.2344 32.7603C32.9375 32.3333 29.3125 30.6353 28.5312 26.1718Z" fill="#1C1C1B"/>
<path d="M40.3177 19.5156C39.8541 22.8125 37.8698 24.3958 37.25 24.8958C36.1875 25.7552 32.802 27.8854 28.6198 26.1354C31.5937 26.6094 33.9531 23.9271 34.7135 21.6406C35.401 19.5885 35.1979 18.2917 35.1562 18.0885H35.1354L33.3698 18.0104L38.1823 13.1719L42.2083 18.6094L40.3906 18.5052" fill="#1C1C1B"/>
<path fill-rule="evenodd" clip-rule="evenodd" d="M20.0938 16.7291C18.5729 16.7291 17.3438 15.4999 17.3438 13.9791C17.3438 12.4583 18.5729 11.2239 20.0938 11.2239C21.6146 11.2239 22.849 12.4583 22.849 13.9791C22.849 15.4999 21.6146 16.7291 20.0938 16.7291Z" fill="#1C1C1B"/>
<path d="M15.8333 30.1146C16.0677 29.4688 16.4167 29.5104 16.4167 29.5104C16.4167 29.5104 16.7344 29.4427 16.9115 30.0938L19.4844 39.125C17.3385 38.5052 15.3802 37.4375 13.7135 36.0312L15.8333 30.1146ZM23.8594 5.98438C13.9167 5.98438 5.82812 14.0729 5.82812 24.0208C5.82812 33.9583 13.9167 42.0521 23.8594 42.0521C24.3906 42.0521 24.9115 42.0156 25.4323 41.9688L25.5521 43.7812L28.8542 40.5885L25.1615 37.776L25.3021 39.6771C24.8281 39.7188 24.3438 39.75 23.8594 39.75C23.0938 39.75 22.3438 39.6927 21.6094 39.5885L21.5365 39.1094L19.8229 24.5104C19.5885 21.7552 21.1615 21.3125 22.1354 21.7292L27.6042 23.9219C28.2292 24.1927 28.5312 23.6719 28.5312 23.6719C28.5312 23.6719 28.8854 23.1198 28.25 22.7135C28.25 22.7135 20.7969 17.776 19.2083 17.4792C17.0417 17.0729 14.8958 18.8281 14.4219 21.1146L11.776 34.0833C9.5 31.349 8.125 27.8438 8.125 24.0208C8.125 15.3438 15.1823 8.28646 23.8594 8.28646C28.4948 8.28646 32.6667 10.3021 35.5469 13.4948L37.1615 11.8594C33.8646 8.25 29.1198 5.98438 23.8594 5.98438Z" fill="#1C1C1B"/>
<path d="M131.638 21.689C131.638 21.325 131.593 21.0613 131.505 20.898C131.421 20.73 131.264 20.646 131.036 20.646C130.91 20.646 130.805 20.681 130.721 20.751C130.641 20.8163 130.578 20.926 130.532 21.08C130.485 21.2293 130.452 21.4277 130.434 21.675C130.415 21.9177 130.406 22.2163 130.406 22.571C130.406 22.949 130.417 23.2547 130.441 23.488C130.469 23.7213 130.508 23.9033 130.56 24.034C130.616 24.16 130.683 24.2463 130.763 24.293C130.847 24.335 130.942 24.356 131.05 24.356C131.138 24.356 131.22 24.342 131.295 24.314C131.374 24.2813 131.442 24.2207 131.498 24.132C131.554 24.0387 131.598 23.9103 131.631 23.747C131.663 23.579 131.68 23.3597 131.68 23.089H132.688C132.688 23.3597 132.667 23.6163 132.625 23.859C132.583 24.1017 132.503 24.314 132.387 24.496C132.275 24.678 132.114 24.8203 131.904 24.923C131.698 25.0257 131.43 25.077 131.099 25.077C130.721 25.077 130.42 25.0163 130.196 24.895C129.972 24.7737 129.799 24.5987 129.678 24.37C129.561 24.1413 129.484 23.8683 129.447 23.551C129.414 23.2337 129.398 22.8837 129.398 22.501C129.398 22.123 129.414 21.7753 129.447 21.458C129.484 21.136 129.561 20.8607 129.678 20.632C129.799 20.4033 129.972 20.226 130.196 20.1C130.42 19.9693 130.721 19.904 131.099 19.904C131.458 19.904 131.74 19.9623 131.946 20.079C132.156 20.1957 132.312 20.345 132.415 20.527C132.517 20.7043 132.58 20.898 132.604 21.108C132.632 21.3133 132.646 21.507 132.646 21.689H131.638ZM134.166 22.501C134.166 22.837 134.173 23.124 134.187 23.362C134.205 23.5953 134.238 23.7867 134.285 23.936C134.336 24.0807 134.406 24.188 134.495 24.258C134.588 24.3233 134.709 24.356 134.859 24.356C135.008 24.356 135.127 24.3233 135.216 24.258C135.309 24.188 135.379 24.0807 135.426 23.936C135.477 23.7867 135.51 23.5953 135.524 23.362C135.542 23.124 135.552 22.837 135.552 22.501C135.552 22.165 135.542 21.8803 135.524 21.647C135.51 21.4137 135.477 21.2223 135.426 21.073C135.379 20.9237 135.309 20.8163 135.216 20.751C135.127 20.681 135.008 20.646 134.859 20.646C134.709 20.646 134.588 20.681 134.495 20.751C134.406 20.8163 134.336 20.9237 134.285 21.073C134.238 21.2223 134.205 21.4137 134.187 21.647C134.173 21.8803 134.166 22.165 134.166 22.501ZM133.158 22.501C133.158 22.123 133.174 21.7753 133.207 21.458C133.244 21.136 133.321 20.8607 133.438 20.632C133.559 20.4033 133.732 20.226 133.956 20.1C134.18 19.9693 134.481 19.904 134.859 19.904C135.237 19.904 135.538 19.9693 135.762 20.1C135.986 20.226 136.156 20.4033 136.273 20.632C136.394 20.8607 136.471 21.136 136.504 21.458C136.541 21.7753 136.56 22.123 136.56 22.501C136.56 22.8837 136.541 23.2337 136.504 23.551C136.471 23.8683 136.394 24.1413 136.273 24.37C136.156 24.5987 135.986 24.7737 135.762 24.895C135.538 25.0163 135.237 25.077 134.859 25.077C134.481 25.077 134.18 25.0163 133.956 24.895C133.732 24.7737 133.559 24.5987 133.438 24.37C133.321 24.1413 133.244 23.8683 133.207 23.551C133.174 23.2337 133.158 22.8837 133.158 22.501ZM138.314 20.002L139.532 23.425H139.546V20.002H140.47V25H139.322L138.09 21.5H138.076V25H137.152V20.002H138.314ZM144.098 20.002V20.828H143.006V25H141.998V20.828H140.906V20.002H144.098ZM147.328 20.002V20.828H145.543V22.004H147.223V22.83H145.543V24.174H147.398V25H144.535V20.002H147.328ZM149.067 20.002L150.285 23.425H150.299V20.002H151.223V25H150.075L148.843 21.5H148.829V25H147.905V20.002H149.067ZM154.011 23.117L153.528 20.87H153.514L153.031 23.117H154.011ZM154.144 20.002L155.467 25H154.417L154.186 23.943H152.856L152.625 25H151.575L152.898 20.002H154.144ZM156.976 20.002L158.194 23.425H158.208V20.002H159.132V25H157.984L156.752 21.5H156.738V25H155.814V20.002H156.976ZM162.76 20.002V20.828H161.668V25H160.66V20.828H159.568V20.002H162.76ZM129.315 28.002V28.828H127.53V30.004H129.21V30.83H127.53V32.174H129.385V33H126.522V28.002H129.315ZM131.054 28.002L132.272 31.425H132.286V28.002H133.21V33H132.062L130.83 29.5H130.816V33H129.892V28.002H131.054ZM136.602 30.263H137.05C137.25 30.263 137.411 30.2023 137.533 30.081C137.659 29.9597 137.722 29.7707 137.722 29.514C137.722 29.262 137.668 29.0707 137.561 28.94C137.453 28.8093 137.274 28.744 137.022 28.744H136.602V30.263ZM135.594 28.002H137.358C137.614 28.002 137.829 28.0463 138.002 28.135C138.179 28.219 138.321 28.331 138.429 28.471C138.536 28.611 138.613 28.772 138.66 28.954C138.706 29.1313 138.73 29.3133 138.73 29.5C138.73 29.7567 138.69 29.9807 138.611 30.172C138.536 30.3633 138.429 30.5197 138.289 30.641C138.153 30.7623 137.988 30.8533 137.792 30.914C137.596 30.9747 137.379 31.005 137.141 31.005H136.602V33H135.594V28.002ZM139.224 33V28.002H140.232V32.174H142.017V33H139.224ZM144.55 31.117L144.067 28.87H144.053L143.57 31.117H144.55ZM144.683 28.002L146.006 33H144.956L144.725 31.943H143.395L143.164 33H142.114L143.437 28.002H144.683ZM147.165 31.439V31.586C147.165 31.7027 147.175 31.81 147.193 31.908C147.212 32.0013 147.247 32.0807 147.298 32.146C147.35 32.2113 147.417 32.2627 147.501 32.3C147.59 32.3373 147.7 32.356 147.83 32.356C147.984 32.356 148.122 32.307 148.243 32.209C148.369 32.1063 148.432 31.95 148.432 31.74C148.432 31.628 148.416 31.5323 148.383 31.453C148.355 31.369 148.306 31.2943 148.236 31.229C148.166 31.1637 148.073 31.1053 147.956 31.054C147.844 30.998 147.704 30.942 147.536 30.886C147.312 30.8113 147.119 30.7297 146.955 30.641C146.792 30.5523 146.654 30.4497 146.542 30.333C146.435 30.2117 146.356 30.074 146.304 29.92C146.253 29.7613 146.227 29.5793 146.227 29.374C146.227 28.8793 146.365 28.5107 146.64 28.268C146.916 28.0253 147.294 27.904 147.774 27.904C147.998 27.904 148.204 27.9297 148.39 27.981C148.582 28.0277 148.745 28.107 148.88 28.219C149.02 28.3263 149.128 28.4663 149.202 28.639C149.282 28.807 149.321 29.01 149.321 29.248V29.388H148.355C148.355 29.15 148.313 28.968 148.229 28.842C148.145 28.7113 148.005 28.646 147.809 28.646C147.697 28.646 147.604 28.6623 147.529 28.695C147.455 28.7277 147.394 28.772 147.347 28.828C147.305 28.8793 147.275 28.94 147.256 29.01C147.242 29.08 147.235 29.1523 147.235 29.227C147.235 29.381 147.268 29.5117 147.333 29.619C147.399 29.7217 147.539 29.8173 147.753 29.906L148.53 30.242C148.722 30.326 148.878 30.4147 148.999 30.508C149.121 30.5967 149.216 30.6947 149.286 30.802C149.361 30.9047 149.412 31.019 149.44 31.145C149.468 31.271 149.482 31.411 149.482 31.565C149.482 32.0923 149.328 32.4773 149.02 32.72C148.717 32.958 148.292 33.077 147.746 33.077C147.177 33.077 146.769 32.9533 146.521 32.706C146.279 32.4587 146.157 32.104 146.157 31.642V31.439H147.165ZM152.909 28.002V28.828H151.817V33H150.809V28.828H149.717V28.002H152.909ZM153.396 33V28.002H154.404V33H153.396ZM156.054 30.501C156.054 30.837 156.061 31.124 156.075 31.362C156.094 31.5953 156.127 31.7867 156.173 31.936C156.225 32.0807 156.295 32.188 156.383 32.258C156.477 32.3233 156.598 32.356 156.747 32.356C156.897 32.356 157.016 32.3233 157.104 32.258C157.198 32.188 157.268 32.0807 157.314 31.936C157.366 31.7867 157.398 31.5953 157.412 31.362C157.431 31.124 157.44 30.837 157.44 30.501C157.44 30.165 157.431 29.8803 157.412 29.647C157.398 29.4137 157.366 29.2223 157.314 29.073C157.268 28.9237 157.198 28.8163 157.104 28.751C157.016 28.681 156.897 28.646 156.747 28.646C156.598 28.646 156.477 28.681 156.383 28.751C156.295 28.8163 156.225 28.9237 156.173 29.073C156.127 29.2223 156.094 29.4137 156.075 29.647C156.061 29.8803 156.054 30.165 156.054 30.501ZM158.007 33.595L157.412 33C157.226 33.0513 157.004 33.077 156.747 33.077C156.369 33.077 156.068 33.0163 155.844 32.895C155.62 32.7737 155.448 32.5987 155.326 32.37C155.21 32.1413 155.133 31.8683 155.095 31.551C155.063 31.2337 155.046 30.8837 155.046 30.501C155.046 30.123 155.063 29.7753 155.095 29.458C155.133 29.136 155.21 28.8607 155.326 28.632C155.448 28.4033 155.62 28.226 155.844 28.1C156.068 27.9693 156.369 27.904 156.747 27.904C157.125 27.904 157.426 27.9693 157.65 28.1C157.874 28.226 158.045 28.4033 158.161 28.632C158.283 28.8607 158.36 29.136 158.392 29.458C158.43 29.7753 158.448 30.123 158.448 30.501C158.448 30.9257 158.425 31.3107 158.378 31.656C158.332 32.0013 158.227 32.293 158.063 32.531L158.602 33.056L158.007 33.595ZM159.986 28.002V31.488C159.986 31.614 159.993 31.7307 160.007 31.838C160.026 31.9407 160.056 32.0317 160.098 32.111C160.145 32.1857 160.205 32.2463 160.28 32.293C160.359 32.335 160.457 32.356 160.574 32.356C160.695 32.356 160.793 32.335 160.868 32.293C160.943 32.2463 161.001 32.1857 161.043 32.111C161.09 32.0317 161.12 31.9407 161.134 31.838C161.153 31.7307 161.162 31.614 161.162 31.488V28.002H162.17V31.488C162.17 31.8053 162.126 32.069 162.037 32.279C161.948 32.4843 161.829 32.6477 161.68 32.769C161.531 32.8903 161.36 32.972 161.169 33.014C160.978 33.056 160.779 33.077 160.574 33.077C160.369 33.077 160.17 33.0583 159.979 33.021C159.788 32.9837 159.617 32.909 159.468 32.797C159.319 32.6803 159.2 32.517 159.111 32.307C159.022 32.097 158.978 31.824 158.978 31.488V28.002H159.986ZM165.601 28.002V28.828H163.816V30.004H165.496V30.83H163.816V32.174H165.671V33H162.808V28.002H165.601ZM128.717 38.501C128.717 38.837 128.724 39.124 128.738 39.362C128.757 39.5953 128.79 39.7867 128.836 39.936C128.888 40.0807 128.958 40.188 129.046 40.258C129.14 40.3233 129.261 40.356 129.41 40.356C129.56 40.356 129.679 40.3233 129.767 40.258C129.861 40.188 129.931 40.0807 129.977 39.936C130.029 39.7867 130.061 39.5953 130.075 39.362C130.094 39.124 130.103 38.837 130.103 38.501C130.103 38.165 130.094 37.8803 130.075 37.647C130.061 37.4137 130.029 37.2223 129.977 37.073C129.931 36.9237 129.861 36.8163 129.767 36.751C129.679 36.681 129.56 36.646 129.41 36.646C129.261 36.646 129.14 36.681 129.046 36.751C128.958 36.8163 128.888 36.9237 128.836 37.073C128.79 37.2223 128.757 37.4137 128.738 37.647C128.724 37.8803 128.717 38.165 128.717 38.501ZM127.709 38.501C127.709 38.123 127.726 37.7753 127.758 37.458C127.796 37.136 127.873 36.8607 127.989 36.632C128.111 36.4033 128.283 36.226 128.507 36.1C128.731 35.9693 129.032 35.904 129.41 35.904C129.788 35.904 130.089 35.9693 130.313 36.1C130.537 36.226 130.708 36.4033 130.824 36.632C130.946 36.8607 131.023 37.136 131.055 37.458C131.093 37.7753 131.111 38.123 131.111 38.501C131.111 38.8837 131.093 39.2337 131.055 39.551C131.023 39.8683 130.946 40.1413 130.824 40.37C130.708 40.5987 130.537 40.7737 130.313 40.895C130.089 41.0163 129.788 41.077 129.41 41.077C129.032 41.077 128.731 41.0163 128.507 40.895C128.283 40.7737 128.111 40.5987 127.989 40.37C127.873 40.1413 127.796 39.8683 127.758 39.551C127.726 39.2337 127.709 38.8837 127.709 38.501ZM132.649 36.002V39.488C132.649 39.614 132.656 39.7307 132.67 39.838C132.689 39.9407 132.719 40.0317 132.761 40.111C132.808 40.1857 132.868 40.2463 132.943 40.293C133.022 40.335 133.12 40.356 133.237 40.356C133.358 40.356 133.456 40.335 133.531 40.293C133.606 40.2463 133.664 40.1857 133.706 40.111C133.753 40.0317 133.783 39.9407 133.797 39.838C133.816 39.7307 133.825 39.614 133.825 39.488V36.002H134.833V39.488C134.833 39.8053 134.789 40.069 134.7 40.279C134.611 40.4843 134.492 40.6477 134.343 40.769C134.194 40.8903 134.023 40.972 133.832 41.014C133.641 41.056 133.442 41.077 133.237 41.077C133.032 41.077 132.833 41.0583 132.642 41.021C132.451 40.9837 132.28 40.909 132.131 40.797C131.982 40.6803 131.863 40.517 131.774 40.307C131.685 40.097 131.641 39.824 131.641 39.488V36.002H132.649ZM139.945 36.002V36.828H138.16V38.004H139.84V38.83H138.16V40.174H140.015V41H137.152V36.002H139.945ZM141.684 36.002L142.902 39.425H142.916V36.002H143.84V41H142.692L141.46 37.5H141.446V41H140.522V36.002H141.684ZM146.245 36.002H147.743L148.457 39.53H148.471L149.192 36.002H150.683V41H149.759V37.01H149.745L148.856 41H148.072L147.183 37.01H147.169V41H146.245V36.002ZM154.198 36.002V36.828H152.413V38.004H154.093V38.83H152.413V40.174H154.268V41H151.405V36.002H154.198ZM157.701 36.002V36.828H156.609V41H155.601V36.828H154.509V36.002H157.701ZM159.842 39.117L159.359 36.87H159.345L158.862 39.117H159.842ZM159.975 36.002L161.298 41H160.248L160.017 39.943H158.687L158.456 41H157.406L158.729 36.002H159.975ZM161.645 41V36.002H162.653V40.174H164.438V41H161.645Z" fill="#1C1C1B"/>
</g>
<defs>
<clipPath id="clip0_21_1594">
<rect width="227" height="61" fill="white"/>
</clipPath>
</defs>
</svg>
