<svg width="240" height="61" viewBox="0 0 240 61" fill="none" xmlns="http://www.w3.org/2000/svg">
<g clip-path="url(#clip0_66_3696)">
<path d="M24.6979 60.4688C11.0781 60.4688 0 49.5208 0 36.0625V0H214.948C228.563 0 239.641 10.9479 239.641 24.4062V60.4688" fill="white"/>
<path d="M222.083 52.9114H69.1353C59.6874 52.9114 51.9999 45.3541 51.9999 36.0625V7.55725H204.948C214.396 7.55725 222.083 15.1145 222.083 24.4062V52.9114ZM204.948 5.66663H50.1145V36.0625C50.1145 46.3958 58.6458 54.802 69.1353 54.802H223.969V24.4062C223.969 14.0729 215.437 5.66663 204.948 5.66663Z" fill="#629D5E"/>
<path d="M176.714 54.802L189.724 28.2239L176.432 5.66663H214.948C225.437 5.66663 233.969 14.0729 233.969 24.4062V54.802" fill="#629D5E"/>
<path d="M102.901 5.66663H50.1145V36.0625C50.1145 46.3958 58.6458 54.802 69.1353 54.802H121.927V24.4062C121.927 14.0729 113.391 5.66663 102.901 5.66663Z" fill="#629D5E"/>
<path d="M63.651 29.3594C58.8489 29.3594 54.9583 33.25 54.9583 38.0521C54.9583 42.8542 58.8489 46.7448 63.651 46.7448C68.4583 46.7448 72.3489 42.8542 72.3489 38.0521C72.3489 33.25 68.4583 29.3594 63.651 29.3594Z" fill="white"/>
<path d="M69.3229 39.4688H65.0729V43.7188H62.2344V39.4688H57.9844V36.6355H62.2344V32.3802H65.0729V36.6355H69.3229" fill="#1C1C1B"/>
<path d="M55.7864 26.5937V17.1979H58.2708V24.5156H61.828V26.5937" fill="#1C1C1B"/>
<path d="M62.9426 26.5937V17.1979H69.0155V19.276H65.4322V20.7552H68.4947V22.8385H65.4322V24.5156H69.1614V26.5937" fill="#1C1C1B"/>
<path d="M75.0885 26.5937V19.276H72.6041V17.1979H80.0677V19.276H77.5781V26.5937" fill="#1C1C1B"/>
<path d="M83.5521 21.4739H84.4479C85.4479 21.4739 85.9531 21.0625 85.9531 20.2343C85.9531 19.8281 85.8229 19.5468 85.5677 19.3958C85.3125 19.2395 84.9375 19.1614 84.4479 19.1614H83.5521V21.4739ZM81.0625 26.5989V17.1979H84.6198C85.125 17.1979 85.6042 17.2448 86.0625 17.3385C86.5208 17.4375 86.9167 17.5989 87.2604 17.8333C87.6042 18.0625 87.875 18.375 88.0781 18.7656C88.2813 19.1562 88.3802 19.6458 88.3802 20.2343C88.3802 20.9062 88.2448 21.4687 87.9688 21.9114C87.6979 22.3541 87.3281 22.6979 86.8646 22.9531L88.901 26.5989H86.125L84.5052 23.4427H83.5521V26.5989" fill="#1C1C1B"/>
<path d="M89.8698 26.5989H92.3593V17.1979H89.8698V26.5989Z" fill="#1C1C1B"/>
<path d="M75.3801 43.276V33.8698H81.5103V35.9531H77.8697V37.75H80.9895V39.8333H77.8697V43.276" fill="#1C1C1B"/>
<path d="M84.9218 38.7031L84.7604 39.3541H86.4948L86.3385 38.7031C86.2239 38.25 86.1041 37.7604 85.9895 37.2291C85.875 36.6979 85.7604 36.1979 85.6406 35.7239H85.5833C85.4791 36.2031 85.3698 36.7083 85.2604 37.2343C85.151 37.7604 85.0364 38.25 84.9218 38.7031ZM81.3073 43.276L84.1666 33.8698H87.1718L90.0364 43.276H87.4062L86.9427 41.276H84.3125L83.8489 43.276" fill="#1C1C1B"/>
<path d="M94.5624 43.4479C93.9687 43.4479 93.3958 43.3489 92.8541 43.151C92.3072 42.9531 91.8333 42.651 91.4218 42.2552C91.0103 41.8541 90.6822 41.3541 90.4426 40.75C90.203 40.1458 90.0833 39.4479 90.0833 38.6458C90.0833 37.8541 90.2083 37.151 90.4583 36.5416C90.7083 35.927 91.0416 35.4114 91.4635 34.9948C91.8801 34.5729 92.3645 34.25 92.9114 34.0312C93.4583 33.8073 94.026 33.6979 94.6249 33.6979C95.2499 33.6979 95.8124 33.8229 96.302 34.0677C96.7968 34.3125 97.2083 34.6041 97.5468 34.9427L96.2447 36.5312C96.0155 36.3333 95.776 36.1666 95.5312 36.0312C95.2812 35.9062 94.9999 35.8385 94.6822 35.8385C94.401 35.8385 94.1405 35.901 93.8958 36.026C93.651 36.151 93.4322 36.3333 93.2447 36.5625C93.0572 36.7916 92.9062 37.0781 92.7968 37.4166C92.6822 37.75 92.6301 38.1354 92.6301 38.5573C92.6301 39.4479 92.8124 40.125 93.1874 40.5989C93.5572 41.0677 94.0468 41.3073 94.651 41.3073C95.0208 41.3073 95.3437 41.2291 95.6301 41.0677C95.9114 40.9062 96.1562 40.7187 96.3593 40.4948L97.6614 42.0573C97.2551 42.5208 96.7916 42.8698 96.2655 43.0989C95.7395 43.3333 95.1718 43.4479 94.5624 43.4479Z" fill="#1C1C1B"/>
<path d="M98.6198 43.276H101.104V33.8698H98.6198V43.276Z" fill="#1C1C1B"/>
<path d="M102.875 43.276V33.8698H105.365V41.1927H108.922V43.276" fill="#1C1C1B"/>
<path d="M110.031 43.276V33.8698H116.109V35.9531H112.521V37.4323H115.589V39.5156H112.521V41.1927H116.255V43.276" fill="#1C1C1B"/>
<path d="M28.4062 25.7448C26.7135 28.2343 28.151 31.5104 29.8958 33.1718C31.4895 34.6823 32.7655 35.0364 32.9322 35.0781L33.7447 33.5208L36.0885 39.9323L29.4635 41.2812L30.3437 39.6458L29.4478 39.1458C26.6562 37.3281 26.0676 34.8593 25.8749 34.0885C25.5416 32.7604 25.0468 28.7864 28.4062 25.7448Z" fill="#629D5E"/>
<path d="M28.375 25.8489C29.5781 28.6093 33.1146 29.1406 35.4479 28.552C37.5208 28.026 38.5052 27.1718 38.6719 27.0156L38.6615 27L37.776 25.4635L44.4427 26.9218L42.0313 33.2395L41.1354 31.6458L40.2656 32.1198C37.2396 33.5104 34.8333 32.6927 34.0781 32.4427C32.7813 32.0156 29.1562 30.3125 28.375 25.8489Z" fill="#629D5E"/>
<path d="M40.1613 19.1927C39.6978 22.4895 37.7134 24.0729 37.0936 24.5729C36.0311 25.4375 32.6457 27.5677 28.4634 25.8177C31.4373 26.2916 33.7967 23.6041 34.5571 21.3177C35.2446 19.2656 35.0415 17.9687 34.9998 17.7708L34.979 17.7656L33.2134 17.6927L38.0259 12.8541L42.0519 18.2864L40.2342 18.1823" fill="#629D5E"/>
<path fill-rule="evenodd" clip-rule="evenodd" d="M19.9375 16.4115C18.4167 16.4115 17.1875 15.1823 17.1875 13.6563C17.1875 12.1354 18.4167 10.9062 19.9375 10.9062C21.4583 10.9062 22.6927 12.1354 22.6927 13.6563C22.6927 15.1823 21.4583 16.4115 19.9375 16.4115Z" fill="#629D5E"/>
<path d="M15.6771 29.7968C15.9115 29.151 16.2604 29.1927 16.2604 29.1927C16.2604 29.1927 16.5781 29.125 16.7552 29.7708L19.3281 38.8073C17.1823 38.1823 15.224 37.1198 13.5573 35.7083L15.6771 29.7968ZM23.7031 5.66663C13.7604 5.66663 5.67188 13.7552 5.67188 23.6979C5.67188 33.6406 13.7604 41.7291 23.7031 41.7291C24.2344 41.7291 24.7552 41.6979 25.276 41.651L25.3958 43.4635L28.6979 40.2708L25.0052 37.4531L25.1458 39.3541C24.6719 39.401 24.1875 39.4323 23.7031 39.4323C22.9375 39.4323 22.1875 39.375 21.4531 39.2656L21.3802 38.7864L19.6667 24.1875C19.4323 21.4323 21.0052 20.9948 21.9792 21.4062L27.4479 23.6041C28.0729 23.875 28.375 23.3489 28.375 23.3489C28.375 23.3489 28.7292 22.802 28.0938 22.3958C28.0938 22.3958 20.6406 17.4583 19.0521 17.1562C16.8854 16.7552 14.7396 18.5104 14.2656 20.7968L11.6198 33.7604C9.34375 31.0312 7.96875 27.5208 7.96875 23.6979C7.96875 15.0208 15.026 7.9635 23.7031 7.9635C28.3385 7.9635 32.5104 9.97913 35.3906 13.177L37.0052 11.5364C33.7083 7.93225 28.9635 5.66663 23.7031 5.66663Z" fill="#629D5E"/>
<path d="M131.412 25.728H132.18C132.484 25.728 132.728 25.676 132.912 25.572C133.096 25.468 133.24 25.296 133.344 25.056C133.456 24.816 133.528 24.5 133.56 24.108C133.6 23.716 133.62 23.228 133.62 22.644C133.62 22.156 133.604 21.728 133.572 21.36C133.54 20.992 133.472 20.688 133.368 20.448C133.272 20.2 133.124 20.016 132.924 19.896C132.732 19.768 132.472 19.704 132.144 19.704H131.412V25.728ZM129.684 18.432H132.516C133.116 18.432 133.6 18.532 133.968 18.732C134.336 18.924 134.62 19.204 134.82 19.572C135.028 19.932 135.168 20.368 135.24 20.88C135.312 21.392 135.348 21.964 135.348 22.596C135.348 23.348 135.3 24.004 135.204 24.564C135.116 25.116 134.96 25.572 134.736 25.932C134.512 26.292 134.212 26.56 133.836 26.736C133.46 26.912 132.984 27 132.408 27H129.684V18.432ZM138.795 16.2H140.451L139.275 17.928H138.147L138.795 16.2ZM141.279 18.432V19.848H138.219V21.864H141.099V23.28H138.219V25.584H141.399V27H136.491V18.432H141.279ZM145.928 21.324C145.928 20.7 145.852 20.248 145.7 19.968C145.556 19.68 145.288 19.536 144.896 19.536C144.68 19.536 144.5 19.596 144.356 19.716C144.22 19.828 144.112 20.016 144.032 20.28C143.952 20.536 143.896 20.876 143.864 21.3C143.832 21.716 143.816 22.228 143.816 22.836C143.816 23.484 143.836 24.008 143.876 24.408C143.924 24.808 143.992 25.12 144.08 25.344C144.176 25.56 144.292 25.708 144.428 25.788C144.572 25.86 144.736 25.896 144.92 25.896C145.072 25.896 145.212 25.872 145.34 25.824C145.476 25.768 145.592 25.664 145.688 25.512C145.784 25.352 145.86 25.132 145.916 24.852C145.972 24.564 146 24.188 146 23.724H147.728C147.728 24.188 147.692 24.628 147.62 25.044C147.548 25.46 147.412 25.824 147.212 26.136C147.02 26.448 146.744 26.692 146.384 26.868C146.032 27.044 145.572 27.132 145.004 27.132C144.356 27.132 143.84 27.028 143.456 26.82C143.072 26.612 142.776 26.312 142.568 25.92C142.368 25.528 142.236 25.06 142.172 24.516C142.116 23.972 142.088 23.372 142.088 22.716C142.088 22.068 142.116 21.472 142.172 20.928C142.236 20.376 142.368 19.904 142.568 19.512C142.776 19.12 143.072 18.816 143.456 18.6C143.84 18.376 144.356 18.264 145.004 18.264C145.62 18.264 146.104 18.364 146.456 18.564C146.816 18.764 147.084 19.02 147.26 19.332C147.436 19.636 147.544 19.968 147.584 20.328C147.632 20.68 147.656 21.012 147.656 21.324H145.928ZM148.713 18.432H150.441V21.708H152.457V18.432H154.185V27H152.457V23.196H150.441V27H148.713V18.432ZM160.169 18.432V19.848H157.109V21.864H159.989V23.28H157.109V25.584H160.289V27H155.381V18.432H160.169ZM166.175 18.432V19.848H164.303V27H162.575V19.848H160.703V18.432H166.175ZM168.316 24.324V24.576C168.316 24.776 168.332 24.96 168.364 25.128C168.396 25.288 168.456 25.424 168.544 25.536C168.632 25.648 168.748 25.736 168.892 25.8C169.044 25.864 169.232 25.896 169.456 25.896C169.72 25.896 169.956 25.812 170.164 25.644C170.38 25.468 170.488 25.2 170.488 24.84C170.488 24.648 170.46 24.484 170.404 24.348C170.356 24.204 170.272 24.076 170.152 23.964C170.032 23.852 169.872 23.752 169.672 23.664C169.48 23.568 169.24 23.472 168.952 23.376C168.568 23.248 168.236 23.108 167.956 22.956C167.676 22.804 167.44 22.628 167.248 22.428C167.064 22.22 166.928 21.984 166.84 21.72C166.752 21.448 166.708 21.136 166.708 20.784C166.708 19.936 166.944 19.304 167.416 18.888C167.888 18.472 168.536 18.264 169.36 18.264C169.744 18.264 170.096 18.308 170.416 18.396C170.744 18.476 171.024 18.612 171.256 18.804C171.496 18.988 171.68 19.228 171.808 19.524C171.944 19.812 172.012 20.16 172.012 20.568V20.808H170.356C170.356 20.4 170.284 20.088 170.14 19.872C169.996 19.648 169.756 19.536 169.42 19.536C169.228 19.536 169.068 19.564 168.94 19.62C168.812 19.676 168.708 19.752 168.628 19.848C168.556 19.936 168.504 20.04 168.472 20.16C168.448 20.28 168.436 20.404 168.436 20.532C168.436 20.796 168.492 21.02 168.604 21.204C168.716 21.38 168.956 21.544 169.324 21.696L170.656 22.272C170.984 22.416 171.252 22.568 171.46 22.728C171.668 22.88 171.832 23.048 171.952 23.232C172.08 23.408 172.168 23.604 172.216 23.82C172.264 24.036 172.288 24.276 172.288 24.54C172.288 25.444 172.024 26.104 171.496 26.52C170.976 26.928 170.248 27.132 169.312 27.132C168.336 27.132 167.636 26.92 167.212 26.496C166.796 26.072 166.588 25.464 166.588 24.672V24.324H168.316ZM130.884 33.432L132.096 39.768H132.132L133.404 33.432H135.192L133.224 42H131.004L129.036 33.432H130.884ZM140.611 33.432V34.848H137.551V36.864H140.431V38.28H137.551V40.584H140.731V42H135.823V33.432H140.611ZM141.6 33.432H144.792C145.512 33.432 146.072 33.616 146.472 33.984C146.872 34.344 147.072 34.896 147.072 35.64C147.072 36.216 146.956 36.688 146.724 37.056C146.492 37.416 146.132 37.648 145.644 37.752V37.776C146.076 37.84 146.392 37.98 146.592 38.196C146.792 38.412 146.916 38.76 146.964 39.24C146.98 39.4 146.992 39.576 147 39.768C147.008 39.952 147.016 40.16 147.024 40.392C147.04 40.848 147.064 41.196 147.096 41.436C147.144 41.676 147.248 41.84 147.408 41.928V42H145.536C145.448 41.88 145.392 41.744 145.368 41.592C145.344 41.432 145.328 41.268 145.32 41.1L145.272 39.456C145.256 39.12 145.172 38.856 145.02 38.664C144.868 38.472 144.612 38.376 144.252 38.376H143.328V42H141.6V33.432ZM143.328 37.176H144.048C144.464 37.176 144.784 37.08 145.008 36.888C145.232 36.688 145.344 36.356 145.344 35.892C145.344 35.1 144.944 34.704 144.144 34.704H143.328V37.176ZM153.073 33.432V34.848H151.201V42H149.473V34.848H147.601V33.432H153.073ZM155.215 39.324V39.576C155.215 39.776 155.231 39.96 155.263 40.128C155.295 40.288 155.355 40.424 155.443 40.536C155.531 40.648 155.647 40.736 155.791 40.8C155.943 40.864 156.131 40.896 156.355 40.896C156.619 40.896 156.855 40.812 157.063 40.644C157.279 40.468 157.387 40.2 157.387 39.84C157.387 39.648 157.359 39.484 157.303 39.348C157.255 39.204 157.171 39.076 157.051 38.964C156.931 38.852 156.771 38.752 156.571 38.664C156.379 38.568 156.139 38.472 155.851 38.376C155.467 38.248 155.135 38.108 154.855 37.956C154.575 37.804 154.339 37.628 154.147 37.428C153.963 37.22 153.827 36.984 153.739 36.72C153.651 36.448 153.607 36.136 153.607 35.784C153.607 34.936 153.843 34.304 154.315 33.888C154.787 33.472 155.435 33.264 156.259 33.264C156.643 33.264 156.995 33.308 157.315 33.396C157.643 33.476 157.923 33.612 158.155 33.804C158.395 33.988 158.579 34.228 158.707 34.524C158.843 34.812 158.911 35.16 158.911 35.568V35.808H157.255C157.255 35.4 157.183 35.088 157.039 34.872C156.895 34.648 156.655 34.536 156.319 34.536C156.127 34.536 155.967 34.564 155.839 34.62C155.711 34.676 155.607 34.752 155.527 34.848C155.455 34.936 155.403 35.04 155.371 35.16C155.347 35.28 155.335 35.404 155.335 35.532C155.335 35.796 155.391 36.02 155.503 36.204C155.615 36.38 155.855 36.544 156.223 36.696L157.555 37.272C157.883 37.416 158.151 37.568 158.359 37.728C158.567 37.88 158.731 38.048 158.851 38.232C158.979 38.408 159.067 38.604 159.115 38.82C159.163 39.036 159.187 39.276 159.187 39.54C159.187 40.444 158.923 41.104 158.395 41.52C157.875 41.928 157.147 42.132 156.211 42.132C155.235 42.132 154.535 41.92 154.111 41.496C153.695 41.072 153.487 40.464 153.487 39.672V39.324H155.215Z" fill="black"/>
<path d="M202.337 36.8405L196.602 36.8342C196.276 36.8342 196.006 36.5707 196.006 36.2444L196 30.5407C196 30.3023 196.144 30.0827 196.37 29.9948C196.59 29.9007 196.847 29.9509 197.016 30.1203L198.14 31.2372L207.803 21.6181C208.035 21.3923 208.411 21.3923 208.643 21.6181L211.304 24.2661C211.417 24.379 211.48 24.5233 211.48 24.6865C211.48 24.8433 211.417 24.9939 211.304 25.1069L201.641 34.7134L202.758 35.8303C202.927 35.9997 202.977 36.257 202.883 36.4766C202.795 36.6962 202.576 36.8405 202.337 36.8405ZM197.198 35.6483L200.894 35.6546L200.373 35.1338C200.141 34.9016 200.141 34.5252 200.373 34.293L210.036 24.6865L208.223 22.8794L198.56 32.4922C198.328 32.7243 197.951 32.7243 197.719 32.4922L197.192 31.9776" fill="black"/>
<path d="M214.473 28.2442C214.015 28.2442 213.575 28.0685 213.237 27.7547C212.885 27.4285 212.684 26.983 212.666 26.4998L212.578 23.7703L213.77 23.7327L213.858 26.4622C213.864 26.6253 213.933 26.7759 214.052 26.8888C214.171 27.0018 214.341 27.0457 214.498 27.0583C214.661 27.052 214.811 26.983 214.924 26.8637C215.037 26.7445 215.094 26.5877 215.088 26.4245L214.956 22.7852L216.148 22.7476L216.28 26.3806C216.299 26.8637 216.129 27.3218 215.797 27.6732C215.464 28.0246 215.019 28.2253 214.535 28.2379C214.51 28.2442 214.491 28.2442 214.473 28.2442Z" fill="black"/>
<path d="M214.473 28.2442C214.015 28.2442 213.575 28.0685 213.237 27.7547C212.885 27.4285 212.684 26.983 212.666 26.4998L212.578 23.7703L213.77 23.7327L213.858 26.4622C213.864 26.6253 213.933 26.7759 214.052 26.8888C214.171 27.0018 214.341 27.0457 214.498 27.0583C214.661 27.052 214.811 26.983 214.924 26.8637C215.037 26.7445 215.094 26.5877 215.088 26.4245L214.956 22.7852L216.148 22.7476L216.28 26.3806C216.299 26.8637 216.129 27.3218 215.797 27.6732C215.464 28.0246 215.019 28.2253 214.535 28.2379C214.51 28.2442 214.491 28.2442 214.473 28.2442Z" fill="black"/>
<path d="M212.063 28.6521C211.599 28.6521 211.166 28.4827 210.827 28.1689C210.476 27.8364 210.269 27.3909 210.256 26.9077L210.168 24.1782L211.36 24.1406L211.448 26.8701C211.455 27.0395 211.524 27.1901 211.643 27.303C211.762 27.416 211.919 27.485 212.082 27.4662C212.421 27.4536 212.691 27.1712 212.678 26.8324L212.546 23.1994L213.739 23.1555L213.87 26.7885C213.908 27.7862 213.124 28.6144 212.126 28.6521C212.101 28.6521 212.082 28.6521 212.063 28.6521Z" fill="black"/>
<path d="M214.115 36.8531C213.87 36.8531 213.651 36.7025 213.563 36.4829C213.469 36.2632 213.519 36.006 213.688 35.8366L214.811 34.7197L205.148 25.1069C204.916 24.881 204.916 24.5045 205.148 24.2723L207.803 21.6244C208.022 21.4048 208.424 21.4048 208.643 21.6244L218.733 31.6576L217.886 32.4984L208.223 22.8856L206.41 24.6927L216.073 34.2993C216.311 34.5314 216.311 34.9142 216.073 35.1401L215.552 35.6609H219.248L219.254 30.547H220.446L220.44 36.2507C220.44 36.577 220.176 36.8405 219.844 36.8405L214.115 36.8531Z" fill="black"/>
<path d="M208.198 41.3646C208.041 41.3646 207.891 41.3081 207.771 41.1889L203.718 37.1668C203.548 36.9974 203.498 36.7401 203.586 36.5205C203.68 36.2946 203.9 36.1503 204.138 36.1503H205.726V25.1069C205.726 24.7806 205.989 24.5108 206.322 24.5108H210.08C210.407 24.5108 210.677 24.7806 210.677 25.1069V36.7464H209.484V25.703H206.918V36.7464C206.918 37.0727 206.648 37.3362 206.322 37.3362H205.581L208.198 39.934L211.831 36.326L212.678 37.1668L208.618 41.1889C208.499 41.3081 208.349 41.3646 208.198 41.3646Z" fill="black"/>
<path d="M202.331 36.8405L196.602 36.8342C196.276 36.8342 196.006 36.5707 196.006 36.2444L196 30.5407C196 30.3023 196.144 30.0827 196.37 29.9948C196.59 29.9007 196.847 29.9509 197.016 30.1203L198.14 31.2372L207.803 21.6181C208.035 21.3923 208.411 21.3923 208.643 21.6181L211.304 24.2661C211.417 24.379 211.48 24.5233 211.48 24.6865C211.48 24.8433 211.417 24.9939 211.304 25.1069L201.214 35.1338L200.373 34.293L210.036 24.6865L208.223 22.8794L198.56 32.4922C198.328 32.7243 197.951 32.7243 197.719 32.4922L197.192 31.9776L197.198 35.6483L202.337 35.6546" fill="black"/>
<path d="M221.927 19.8236C221.494 19.8236 221.086 19.6542 220.779 19.353L215.182 13.7811C214.874 13.4799 214.705 13.0721 214.705 12.6454C214.705 12.2124 214.874 11.8109 215.175 11.5034L216.631 10.0539C217.246 9.45158 218.313 9.45158 218.928 10.0539L224.525 15.6259C225.158 16.2533 225.158 17.2761 224.525 17.9036L223.069 19.353C222.762 19.6542 222.36 19.8236 221.927 19.8236ZM217.779 10.7693C217.666 10.7693 217.56 10.8195 217.478 10.8948V10.901L216.023 12.3442C215.941 12.4258 215.897 12.5324 215.897 12.6454C215.897 12.7583 215.941 12.865 216.023 12.9403L221.62 18.5122C221.783 18.6754 222.065 18.6691 222.228 18.5122L223.684 17.069C223.847 16.8996 223.847 16.6298 223.678 16.4667L218.081 10.901C217.999 10.8195 217.892 10.7693 217.779 10.7693Z" fill="black"/>
<path d="M216 29.5L211.5 25.5L210.5 26.5L210 28.5L213 32.5L216 29.5Z" fill="#629D5E"/>
<path d="M214.115 36.8531C213.87 36.8531 213.651 36.7025 213.563 36.4829C213.469 36.2632 213.519 36.006 213.688 35.8366L214.811 34.7197L205.148 25.1069C204.916 24.881 204.916 24.5045 205.148 24.2723L207.803 21.6244C208.022 21.4048 208.424 21.4048 208.643 21.6244L218.313 31.2435L219.43 30.1266C219.599 29.9572 219.856 29.907 220.082 30.0011C220.302 30.089 220.446 30.3086 220.446 30.547L220.44 36.2507C220.44 36.577 220.176 36.8405 219.844 36.8405L214.115 36.8531ZM206.41 24.6927L216.073 34.2993C216.311 34.5314 216.311 34.9142 216.073 35.1401L215.552 35.6609H219.248L219.254 31.9839L218.733 32.4984C218.501 32.7306 218.124 32.7306 217.886 32.4984L208.223 22.8856" fill="black"/>
<path d="M204.5 37H206.5V25.5H210L210.5 37H211.5L208 41L204.5 37Z" fill="#629D5E"/>
<path d="M208.198 41.3646C208.041 41.3646 207.891 41.3081 207.778 41.1889L203.718 37.1668C203.548 36.9974 203.498 36.7401 203.586 36.5205C203.68 36.2946 203.9 36.1503 204.138 36.1503H205.726V25.1069C205.726 24.7806 205.989 24.5108 206.322 24.5108H210.08C210.407 24.5108 210.677 24.7806 210.677 25.1069V36.1503H212.251C212.496 36.1503 212.716 36.2946 212.804 36.5205C212.898 36.7401 212.848 36.9974 212.678 37.1668L208.618 41.1889C208.499 41.3081 208.349 41.3646 208.198 41.3646ZM205.581 37.3362L208.198 39.934L210.815 37.3362H210.08C209.748 37.3362 209.484 37.0727 209.484 36.7464V25.703H206.918V36.7464C206.918 37.0727 206.648 37.3362 206.322 37.3362" fill="black"/>
<path d="M210.501 22.0825L207.803 25.6841C207.345 26.2928 207.47 27.1587 208.085 27.6105C208.694 28.0685 209.566 27.943 210.024 27.3344L211.706 25.088C212.377 24.2096 213.13 23.8833 213.494 23.7892C214.303 23.5758 216.738 22.666 218.043 21.8817C219.342 21.0911 220.013 19.2589 219.944 17.6839L216.06 13.8187L207.815 16.3788C206.811 16.7176 206.447 17.2886 206.297 17.6275C206.146 17.9726 204.502 21.8378 204.502 21.8378C204.314 22.3209 204.207 22.8982 204.483 23.3876C204.759 23.877 205.387 24.8559 205.387 24.8559L207.2 23.0488C207.2 23.0488 207.131 22.0511 207.363 21.5366C207.602 21.0283 207.853 20.1812 208.393 19.9867C208.926 19.7985 209.861 19.4973 209.861 19.4973C209.861 19.4973 209.779 20.564 209.967 21.135C210.162 21.706 210.457 22.0448 210.457 22.0448" fill="#629D5E"/>
<path d="M208.913 28.4826C208.487 28.4826 208.072 28.3446 207.727 28.0873C207.301 27.7736 207.025 27.3093 206.949 26.7885C206.88 26.2677 207.012 25.7469 207.332 25.3265L209.76 22.0825C209.641 21.8879 209.509 21.637 209.403 21.3232C209.309 21.0283 209.265 20.6581 209.252 20.3255C209.02 20.4008 208.782 20.4824 208.593 20.5452C208.399 20.6142 208.167 21.1726 208.041 21.4675L207.909 21.7875C207.79 22.0385 207.771 22.6535 207.796 23.0111C207.809 23.1805 207.746 23.3499 207.627 23.4692L205.807 25.2763C205.682 25.4018 205.5 25.4645 205.324 25.4457C205.142 25.4269 204.985 25.3265 204.885 25.1759C204.885 25.1759 204.245 24.1782 203.963 23.6825C203.643 23.1115 203.636 22.415 203.95 21.6181C203.956 21.6056 205.6 17.7341 205.751 17.3953C206.071 16.6674 206.717 16.1215 207.621 15.8141L215.878 13.254C216.092 13.185 216.324 13.2414 216.481 13.3983L220.371 17.2698C220.478 17.3765 220.534 17.5145 220.54 17.6651C220.609 19.2651 219.95 21.4236 218.35 22.3836C216.995 23.2056 214.535 24.128 213.644 24.3664C213.513 24.3978 212.822 24.6112 212.182 25.4457L210.501 27.692C210.181 28.1124 209.723 28.3885 209.196 28.4638C209.102 28.4764 209.007 28.4826 208.913 28.4826ZM209.867 18.9075C209.999 18.9075 210.131 18.9514 210.231 19.033C210.388 19.1585 210.476 19.3467 210.457 19.5475C210.432 19.9114 210.425 20.6142 210.538 20.9467C210.683 21.3922 210.909 21.6621 210.915 21.6621C211.147 21.8628 211.166 22.1891 210.978 22.4401L208.286 26.0355C208.154 26.2049 208.104 26.412 208.135 26.619C208.16 26.8261 208.273 27.0144 208.443 27.1336C208.612 27.2653 208.819 27.3093 209.026 27.2904C209.233 27.2591 209.422 27.1461 209.547 26.983L211.229 24.7304C212.088 23.6135 213.061 23.2872 213.343 23.2182C214.059 23.0299 216.468 22.1389 217.729 21.3734C218.802 20.7271 219.342 19.2024 219.354 17.9349L215.891 14.4964L207.991 16.9435C207.42 17.138 207.025 17.4517 206.843 17.8659C206.692 18.211 205.054 22.0699 205.054 22.0699C204.885 22.5029 204.866 22.8542 205.004 23.0927C205.123 23.3123 205.318 23.626 205.494 23.9084L206.598 22.8166C206.592 22.4276 206.61 21.7562 206.824 21.2918L206.943 21.0158C207.175 20.451 207.501 19.673 208.192 19.4283C208.731 19.24 209.679 18.9326 209.679 18.9326C209.742 18.9137 209.804 18.9075 209.867 18.9075Z" fill="black"/>
<path d="M194.369 44.7H195.881C196.373 44.7 196.742 44.832 196.988 45.096C197.234 45.36 197.357 45.747 197.357 46.257V49.443C197.357 49.953 197.234 50.34 196.988 50.604C196.742 50.868 196.373 51 195.881 51H194.369V44.7ZM195.863 50.1C196.025 50.1 196.148 50.052 196.232 49.956C196.322 49.86 196.367 49.704 196.367 49.488V46.212C196.367 45.996 196.322 45.84 196.232 45.744C196.148 45.648 196.025 45.6 195.863 45.6H195.359V50.1H195.863ZM198.025 44.7H200.725V45.6H199.015V47.265H200.374V48.165H199.015V50.1H200.725V51H198.025V44.7ZM199.465 43.242H200.545L199.582 44.277H198.835L199.465 43.242ZM202.69 51.09C202.216 51.09 201.853 50.955 201.601 50.685C201.355 50.415 201.232 50.034 201.232 49.542V46.158C201.232 45.666 201.355 45.285 201.601 45.015C201.853 44.745 202.216 44.61 202.69 44.61C203.164 44.61 203.524 44.745 203.77 45.015C204.022 45.285 204.148 45.666 204.148 46.158V46.824H203.212V46.095C203.212 45.705 203.047 45.51 202.717 45.51C202.387 45.51 202.222 45.705 202.222 46.095V49.614C202.222 49.998 202.387 50.19 202.717 50.19C203.047 50.19 203.212 49.998 203.212 49.614V48.651H204.148V49.542C204.148 50.034 204.022 50.415 203.77 50.685C203.524 50.955 203.164 51.09 202.69 51.09ZM204.74 44.7H205.73V47.265H206.792V44.7H207.782V51H206.792V48.165H205.73V51H204.74V44.7ZM208.519 44.7H211.219V45.6H209.509V47.265H210.868V48.165H209.509V50.1H211.219V51H208.519V44.7ZM208.699 43.242H209.779L210.409 44.277H209.662L208.699 43.242ZM212.563 45.6H211.528V44.7H214.588V45.6H213.553V51H212.563V45.6ZM215.067 44.7H217.767V45.6H216.057V47.265H217.416V48.165H216.057V50.1H217.767V51H215.067V44.7ZM218.337 44.7H219.804C220.314 44.7 220.686 44.82 220.92 45.06C221.154 45.294 221.271 45.657 221.271 46.149V46.536C221.271 47.19 221.055 47.604 220.623 47.778V47.796C220.863 47.868 221.031 48.015 221.127 48.237C221.229 48.459 221.28 48.756 221.28 49.128V50.235C221.28 50.415 221.286 50.562 221.298 50.676C221.31 50.784 221.34 50.892 221.388 51H220.38C220.344 50.898 220.32 50.802 220.308 50.712C220.296 50.622 220.29 50.46 220.29 50.226V49.074C220.29 48.786 220.242 48.585 220.146 48.471C220.056 48.357 219.897 48.3 219.669 48.3H219.327V51H218.337V44.7ZM219.687 47.4C219.885 47.4 220.032 47.349 220.128 47.247C220.23 47.145 220.281 46.974 220.281 46.734V46.248C220.281 46.02 220.239 45.855 220.155 45.753C220.077 45.651 219.951 45.6 219.777 45.6H219.327V47.4H219.687ZM221.967 44.7H222.957V51H221.967V44.7ZM223.698 44.7H226.398V45.6H224.688V47.265H226.047V48.165H224.688V50.1H226.398V51H223.698V44.7Z" fill="black"/>
</g>
<defs>
<clipPath id="clip0_66_3696">
<rect width="240" height="61" fill="white"/>
</clipPath>
</defs>
</svg>
