<svg width="240" height="61" viewBox="0 0 240 61" fill="none" xmlns="http://www.w3.org/2000/svg">
<g clip-path="url(#clip0_72_4714)">
<path d="M24.6979 60.4688C11.0781 60.4688 0 49.5208 0 36.0625V0H214.948C228.563 0 239.641 10.9479 239.641 24.4062V60.4688" fill="white"/>
<path d="M222.083 52.9114H69.1353C59.6874 52.9114 51.9999 45.3541 51.9999 36.0625V7.55725H204.948C214.396 7.55725 222.083 15.1145 222.083 24.4062V52.9114ZM204.948 5.66663H50.1145V36.0625C50.1145 46.3958 58.6458 54.802 69.1353 54.802H223.969V24.4062C223.969 14.0729 215.437 5.66663 204.948 5.66663Z" fill="#629D5E"/>
<path d="M176.714 54.802L189.724 28.2239L176.432 5.66663H214.948C225.437 5.66663 233.969 14.0729 233.969 24.4062V54.802" fill="#629D5E"/>
<path d="M102.901 5.66663H50.1145V36.0625C50.1145 46.3958 58.6458 54.802 69.1353 54.802H121.927V24.4062C121.927 14.0729 113.391 5.66663 102.901 5.66663Z" fill="#629D5E"/>
<path d="M63.651 29.3594C58.8489 29.3594 54.9583 33.25 54.9583 38.0521C54.9583 42.8542 58.8489 46.7448 63.651 46.7448C68.4583 46.7448 72.3489 42.8542 72.3489 38.0521C72.3489 33.25 68.4583 29.3594 63.651 29.3594Z" fill="white"/>
<path d="M69.3229 39.4688H65.0729V43.7188H62.2344V39.4688H57.9844V36.6355H62.2344V32.3802H65.0729V36.6355H69.3229" fill="#1C1C1B"/>
<path d="M55.7864 26.5937V17.1979H58.2708V24.5156H61.828V26.5937" fill="#1C1C1B"/>
<path d="M62.9426 26.5937V17.1979H69.0155V19.276H65.4322V20.7552H68.4947V22.8385H65.4322V24.5156H69.1614V26.5937" fill="#1C1C1B"/>
<path d="M75.0885 26.5937V19.276H72.6041V17.1979H80.0677V19.276H77.5781V26.5937" fill="#1C1C1B"/>
<path d="M83.5521 21.4739H84.4479C85.4479 21.4739 85.9531 21.0625 85.9531 20.2343C85.9531 19.8281 85.8229 19.5468 85.5677 19.3958C85.3125 19.2395 84.9375 19.1614 84.4479 19.1614H83.5521V21.4739ZM81.0625 26.5989V17.1979H84.6198C85.125 17.1979 85.6042 17.2448 86.0625 17.3385C86.5208 17.4375 86.9167 17.5989 87.2604 17.8333C87.6042 18.0625 87.875 18.375 88.0781 18.7656C88.2813 19.1562 88.3802 19.6458 88.3802 20.2343C88.3802 20.9062 88.2448 21.4687 87.9688 21.9114C87.6979 22.3541 87.3281 22.6979 86.8646 22.9531L88.901 26.5989H86.125L84.5052 23.4427H83.5521V26.5989" fill="#1C1C1B"/>
<path d="M89.8698 26.5989H92.3593V17.1979H89.8698V26.5989Z" fill="#1C1C1B"/>
<path d="M75.3801 43.276V33.8698H81.5103V35.9531H77.8697V37.75H80.9895V39.8333H77.8697V43.276" fill="#1C1C1B"/>
<path d="M84.9218 38.7031L84.7604 39.3541H86.4948L86.3385 38.7031C86.2239 38.25 86.1041 37.7604 85.9895 37.2291C85.875 36.6979 85.7604 36.1979 85.6406 35.7239H85.5833C85.4791 36.2031 85.3698 36.7083 85.2604 37.2343C85.151 37.7604 85.0364 38.25 84.9218 38.7031ZM81.3073 43.276L84.1666 33.8698H87.1718L90.0364 43.276H87.4062L86.9427 41.276H84.3125L83.8489 43.276" fill="#1C1C1B"/>
<path d="M94.5624 43.4479C93.9687 43.4479 93.3958 43.3489 92.8541 43.151C92.3072 42.9531 91.8333 42.651 91.4218 42.2552C91.0103 41.8541 90.6822 41.3541 90.4426 40.75C90.203 40.1458 90.0833 39.4479 90.0833 38.6458C90.0833 37.8541 90.2083 37.151 90.4583 36.5416C90.7083 35.927 91.0416 35.4114 91.4635 34.9948C91.8801 34.5729 92.3645 34.25 92.9114 34.0312C93.4583 33.8073 94.026 33.6979 94.6249 33.6979C95.2499 33.6979 95.8124 33.8229 96.302 34.0677C96.7968 34.3125 97.2083 34.6041 97.5468 34.9427L96.2447 36.5312C96.0155 36.3333 95.776 36.1666 95.5312 36.0312C95.2812 35.9062 94.9999 35.8385 94.6822 35.8385C94.401 35.8385 94.1405 35.901 93.8958 36.026C93.651 36.151 93.4322 36.3333 93.2447 36.5625C93.0572 36.7916 92.9062 37.0781 92.7968 37.4166C92.6822 37.75 92.6301 38.1354 92.6301 38.5573C92.6301 39.4479 92.8124 40.125 93.1874 40.5989C93.5572 41.0677 94.0468 41.3073 94.651 41.3073C95.0208 41.3073 95.3437 41.2291 95.6301 41.0677C95.9114 40.9062 96.1562 40.7187 96.3593 40.4948L97.6614 42.0573C97.2551 42.5208 96.7916 42.8698 96.2655 43.0989C95.7395 43.3333 95.1718 43.4479 94.5624 43.4479Z" fill="#1C1C1B"/>
<path d="M98.6198 43.276H101.104V33.8698H98.6198V43.276Z" fill="#1C1C1B"/>
<path d="M102.875 43.276V33.8698H105.365V41.1927H108.922V43.276" fill="#1C1C1B"/>
<path d="M110.031 43.276V33.8698H116.109V35.9531H112.521V37.4323H115.589V39.5156H112.521V41.1927H116.255V43.276" fill="#1C1C1B"/>
<path d="M28.4062 25.7448C26.7135 28.2343 28.151 31.5104 29.8958 33.1718C31.4895 34.6823 32.7655 35.0364 32.9322 35.0781L33.7447 33.5208L36.0885 39.9323L29.4635 41.2812L30.3437 39.6458L29.4478 39.1458C26.6562 37.3281 26.0676 34.8593 25.8749 34.0885C25.5416 32.7604 25.0468 28.7864 28.4062 25.7448Z" fill="#629D5E"/>
<path d="M28.375 25.8489C29.5781 28.6093 33.1146 29.1406 35.4479 28.552C37.5208 28.026 38.5052 27.1718 38.6719 27.0156L38.6615 27L37.776 25.4635L44.4427 26.9218L42.0313 33.2395L41.1354 31.6458L40.2656 32.1198C37.2396 33.5104 34.8333 32.6927 34.0781 32.4427C32.7813 32.0156 29.1562 30.3125 28.375 25.8489Z" fill="#629D5E"/>
<path d="M40.1613 19.1927C39.6978 22.4895 37.7134 24.0729 37.0936 24.5729C36.0311 25.4375 32.6457 27.5677 28.4634 25.8177C31.4373 26.2916 33.7967 23.6041 34.5571 21.3177C35.2446 19.2656 35.0415 17.9687 34.9998 17.7708L34.979 17.7656L33.2134 17.6927L38.0259 12.8541L42.0519 18.2864L40.2342 18.1823" fill="#629D5E"/>
<path fill-rule="evenodd" clip-rule="evenodd" d="M19.9375 16.4115C18.4167 16.4115 17.1875 15.1823 17.1875 13.6563C17.1875 12.1354 18.4167 10.9062 19.9375 10.9062C21.4583 10.9062 22.6927 12.1354 22.6927 13.6563C22.6927 15.1823 21.4583 16.4115 19.9375 16.4115Z" fill="#629D5E"/>
<path d="M15.6771 29.7968C15.9115 29.151 16.2604 29.1927 16.2604 29.1927C16.2604 29.1927 16.5781 29.125 16.7552 29.7708L19.3281 38.8073C17.1823 38.1823 15.224 37.1198 13.5573 35.7083L15.6771 29.7968ZM23.7031 5.66663C13.7604 5.66663 5.67188 13.7552 5.67188 23.6979C5.67188 33.6406 13.7604 41.7291 23.7031 41.7291C24.2344 41.7291 24.7552 41.6979 25.276 41.651L25.3958 43.4635L28.6979 40.2708L25.0052 37.4531L25.1458 39.3541C24.6719 39.401 24.1875 39.4323 23.7031 39.4323C22.9375 39.4323 22.1875 39.375 21.4531 39.2656L21.3802 38.7864L19.6667 24.1875C19.4323 21.4323 21.0052 20.9948 21.9792 21.4062L27.4479 23.6041C28.0729 23.875 28.375 23.3489 28.375 23.3489C28.375 23.3489 28.7292 22.802 28.0938 22.3958C28.0938 22.3958 20.6406 17.4583 19.0521 17.1562C16.8854 16.7552 14.7396 18.5104 14.2656 20.7968L11.6198 33.7604C9.34375 31.0312 7.96875 27.5208 7.96875 23.6979C7.96875 15.0208 15.026 7.9635 23.7031 7.9635C28.3385 7.9635 32.5104 9.97913 35.3906 13.177L37.0052 11.5364C33.7083 7.93225 28.9635 5.66663 23.7031 5.66663Z" fill="#629D5E"/>
<path d="M129.55 20.146H131.134V23.149H132.982V20.146H134.566V28H132.982V24.513H131.134V28H129.55V20.146ZM140.051 20.146V21.444H137.246V23.292H139.886V24.59H137.246V26.702H140.161V28H135.662V20.146H140.051ZM140.958 20.146H143.884C144.544 20.146 145.058 20.3147 145.424 20.652C145.791 20.982 145.974 21.488 145.974 22.17C145.974 22.698 145.868 23.1307 145.655 23.468C145.443 23.798 145.113 24.0107 144.665 24.106V24.128C145.061 24.1867 145.351 24.315 145.534 24.513C145.718 24.711 145.831 25.03 145.875 25.47C145.89 25.6167 145.901 25.778 145.908 25.954C145.916 26.1227 145.923 26.3133 145.93 26.526C145.945 26.944 145.967 27.263 145.996 27.483C146.04 27.703 146.136 27.8533 146.282 27.934V28H144.566C144.486 27.89 144.434 27.7653 144.412 27.626C144.39 27.4793 144.376 27.329 144.368 27.175L144.324 25.668C144.31 25.36 144.233 25.118 144.093 24.942C143.954 24.766 143.719 24.678 143.389 24.678H142.542V28H140.958V20.146ZM142.542 23.578H143.202C143.584 23.578 143.877 23.49 144.082 23.314C144.288 23.1307 144.39 22.8263 144.39 22.401C144.39 21.675 144.024 21.312 143.29 21.312H142.542V23.578ZM148.655 26.834H149.271C149.652 26.834 149.96 26.7497 150.195 26.581C150.429 26.4123 150.547 26.1007 150.547 25.646C150.547 25.4187 150.514 25.2317 150.448 25.085C150.389 24.931 150.305 24.81 150.195 24.722C150.092 24.6267 149.967 24.5607 149.821 24.524C149.674 24.4873 149.513 24.469 149.337 24.469H148.655V26.834ZM148.655 23.369H149.106C149.546 23.369 149.865 23.292 150.063 23.138C150.268 22.9767 150.371 22.709 150.371 22.335C150.371 21.961 150.279 21.697 150.096 21.543C149.912 21.389 149.623 21.312 149.227 21.312H148.655V23.369ZM147.071 20.146H149.722C150.044 20.146 150.341 20.179 150.613 20.245C150.891 20.311 151.13 20.421 151.328 20.575C151.526 20.729 151.68 20.9343 151.79 21.191C151.9 21.4477 151.955 21.763 151.955 22.137C151.955 22.5623 151.856 22.929 151.658 23.237C151.46 23.5377 151.163 23.743 150.767 23.853V23.875C151.207 23.9337 151.555 24.1207 151.812 24.436C152.068 24.7513 152.197 25.173 152.197 25.701C152.197 26.009 152.156 26.3023 152.076 26.581C151.995 26.8597 151.856 27.1053 151.658 27.318C151.467 27.5233 151.214 27.6883 150.899 27.813C150.591 27.9377 150.206 28 149.744 28H147.071V20.146ZM157.572 20.146V21.444H154.767V23.292H157.407V24.59H154.767V26.702H157.682V28H153.183V20.146H157.572ZM132.256 33.146C132.029 33.564 131.834 33.971 131.673 34.367C131.512 34.7557 131.38 35.148 131.277 35.544C131.182 35.94 131.112 36.347 131.068 36.765C131.024 37.1757 131.002 37.6157 131.002 38.085C131.002 38.5543 131.024 38.998 131.068 39.416C131.112 39.8267 131.182 40.2263 131.277 40.615C131.38 40.9963 131.512 41.3813 131.673 41.77C131.834 42.166 132.029 42.573 132.256 42.991H131.09C130.54 42.1257 130.144 41.286 129.902 40.472C129.667 39.658 129.55 38.8623 129.55 38.085C129.55 37.3077 129.667 36.5083 129.902 35.687C130.144 34.8583 130.54 34.0113 131.09 33.146H132.256ZM134.224 37.073C134.224 37.601 134.235 38.052 134.257 38.426C134.286 38.7927 134.338 39.0933 134.411 39.328C134.492 39.5553 134.602 39.724 134.741 39.834C134.888 39.9367 135.078 39.988 135.313 39.988C135.548 39.988 135.735 39.9367 135.874 39.834C136.021 39.724 136.131 39.5553 136.204 39.328C136.285 39.0933 136.336 38.7927 136.358 38.426C136.387 38.052 136.402 37.601 136.402 37.073C136.402 36.545 136.387 36.0977 136.358 35.731C136.336 35.3643 136.285 35.0637 136.204 34.829C136.131 34.5943 136.021 34.4257 135.874 34.323C135.735 34.213 135.548 34.158 135.313 34.158C135.078 34.158 134.888 34.213 134.741 34.323C134.602 34.4257 134.492 34.5943 134.411 34.829C134.338 35.0637 134.286 35.3643 134.257 35.731C134.235 36.0977 134.224 36.545 134.224 37.073ZM132.64 37.073C132.64 36.479 132.666 35.9327 132.717 35.434C132.776 34.928 132.897 34.4953 133.08 34.136C133.271 33.7767 133.542 33.498 133.894 33.3C134.246 33.0947 134.719 32.992 135.313 32.992C135.907 32.992 136.38 33.0947 136.732 33.3C137.084 33.498 137.352 33.7767 137.535 34.136C137.726 34.4953 137.847 34.928 137.898 35.434C137.957 35.9327 137.986 36.479 137.986 37.073C137.986 37.6743 137.957 38.2243 137.898 38.723C137.847 39.2217 137.726 39.6507 137.535 40.01C137.352 40.3693 137.084 40.6443 136.732 40.835C136.38 41.0257 135.907 41.121 135.313 41.121C134.719 41.121 134.246 41.0257 133.894 40.835C133.542 40.6443 133.271 40.3693 133.08 40.01C132.897 39.6507 132.776 39.2217 132.717 38.723C132.666 38.2243 132.64 37.6743 132.64 37.073ZM140.402 33.146V38.624C140.402 38.822 140.413 39.0053 140.435 39.174C140.465 39.3353 140.512 39.4783 140.578 39.603C140.652 39.7203 140.747 39.8157 140.864 39.889C140.989 39.955 141.143 39.988 141.326 39.988C141.517 39.988 141.671 39.955 141.788 39.889C141.906 39.8157 141.997 39.7203 142.063 39.603C142.137 39.4783 142.184 39.3353 142.206 39.174C142.236 39.0053 142.25 38.822 142.25 38.624V33.146H143.834V38.624C143.834 39.1227 143.765 39.537 143.625 39.867C143.486 40.1897 143.299 40.4463 143.064 40.637C142.83 40.8277 142.562 40.956 142.261 41.022C141.961 41.088 141.649 41.121 141.326 41.121C141.004 41.121 140.692 41.0917 140.391 41.033C140.091 40.9743 139.823 40.857 139.588 40.681C139.354 40.4977 139.167 40.241 139.027 39.911C138.888 39.581 138.818 39.152 138.818 38.624V33.146H140.402ZM150.966 35.478C150.966 35.3313 150.947 35.181 150.911 35.027C150.881 34.873 150.83 34.7337 150.757 34.609C150.683 34.477 150.588 34.3707 150.471 34.29C150.361 34.202 150.225 34.158 150.064 34.158C149.682 34.158 149.407 34.3707 149.239 34.796C149.07 35.2213 148.986 35.9253 148.986 36.908C148.986 37.3773 149 37.8027 149.03 38.184C149.059 38.5653 149.11 38.8917 149.184 39.163C149.264 39.427 149.374 39.6323 149.514 39.779C149.66 39.9183 149.847 39.988 150.075 39.988C150.17 39.988 150.273 39.9623 150.383 39.911C150.5 39.8597 150.606 39.7827 150.702 39.68C150.804 39.5773 150.889 39.449 150.955 39.295C151.021 39.1337 151.054 38.9467 151.054 38.734V37.931H150.009V36.765H152.572V41H151.406V40.274H151.384C151.193 40.582 150.962 40.802 150.691 40.934C150.427 41.0587 150.108 41.121 149.734 41.121C149.25 41.121 148.854 41.0367 148.546 40.868C148.245 40.6993 148.007 40.439 147.831 40.087C147.662 39.735 147.548 39.3023 147.49 38.789C147.431 38.2683 147.402 37.667 147.402 36.985C147.402 36.325 147.442 35.7457 147.523 35.247C147.611 34.7483 147.757 34.334 147.963 34.004C148.168 33.6667 148.439 33.4137 148.777 33.245C149.114 33.0763 149.536 32.992 150.042 32.992C150.907 32.992 151.53 33.2083 151.912 33.641C152.293 34.0663 152.484 34.6787 152.484 35.478H150.966ZM156.869 38.041L156.11 34.51H156.088L155.329 38.041H156.869ZM157.078 33.146L159.157 41H157.507L157.144 39.339H155.054L154.691 41H153.041L155.12 33.146H157.078ZM159.417 39.845L162.31 34.444H159.615V33.146H164.136V34.345L161.199 39.702H164.18V41H159.417V39.845ZM166.418 37.073C166.418 37.601 166.429 38.052 166.451 38.426C166.481 38.7927 166.532 39.0933 166.605 39.328C166.686 39.5553 166.796 39.724 166.935 39.834C167.082 39.9367 167.273 39.988 167.507 39.988C167.742 39.988 167.929 39.9367 168.068 39.834C168.215 39.724 168.325 39.5553 168.398 39.328C168.479 39.0933 168.53 38.7927 168.552 38.426C168.582 38.052 168.596 37.601 168.596 37.073C168.596 36.545 168.582 36.0977 168.552 35.731C168.53 35.3643 168.479 35.0637 168.398 34.829C168.325 34.5943 168.215 34.4257 168.068 34.323C167.929 34.213 167.742 34.158 167.507 34.158C167.273 34.158 167.082 34.213 166.935 34.323C166.796 34.4257 166.686 34.5943 166.605 34.829C166.532 35.0637 166.481 35.3643 166.451 35.731C166.429 36.0977 166.418 36.545 166.418 37.073ZM164.834 37.073C164.834 36.479 164.86 35.9327 164.911 35.434C164.97 34.928 165.091 34.4953 165.274 34.136C165.465 33.7767 165.736 33.498 166.088 33.3C166.44 33.0947 166.913 32.992 167.507 32.992C168.101 32.992 168.574 33.0947 168.926 33.3C169.278 33.498 169.546 33.7767 169.729 34.136C169.92 34.4953 170.041 34.928 170.092 35.434C170.151 35.9327 170.18 36.479 170.18 37.073C170.18 37.6743 170.151 38.2243 170.092 38.723C170.041 39.2217 169.92 39.6507 169.729 40.01C169.546 40.3693 169.278 40.6443 168.926 40.835C168.574 41.0257 168.101 41.121 167.507 41.121C166.913 41.121 166.44 41.0257 166.088 40.835C165.736 40.6443 165.465 40.3693 165.274 40.01C165.091 39.6507 164.97 39.2217 164.911 38.723C164.86 38.2243 164.834 37.6743 164.834 37.073ZM172.938 33.146L174.852 38.525H174.874V33.146H176.326V41H174.522L172.586 35.5H172.564V41H171.112V33.146H172.938ZM178.044 33.146C178.594 34.0113 178.986 34.8583 179.221 35.687C179.463 36.5083 179.584 37.3077 179.584 38.085C179.584 38.8623 179.463 39.658 179.221 40.472C178.986 41.286 178.594 42.1257 178.044 42.991H176.878C177.105 42.573 177.3 42.166 177.461 41.77C177.622 41.3813 177.751 40.9963 177.846 40.615C177.949 40.2263 178.022 39.8267 178.066 39.416C178.11 38.998 178.132 38.5543 178.132 38.085C178.132 37.6157 178.11 37.1757 178.066 36.765C178.022 36.347 177.949 35.94 177.846 35.544C177.751 35.148 177.622 34.7557 177.461 34.367C177.3 33.971 177.105 33.564 176.878 33.146H178.044Z" fill="black"/>
<path d="M202.337 36.8405L196.602 36.8342C196.276 36.8342 196.006 36.5707 196.006 36.2444L196 30.5407C196 30.3023 196.144 30.0827 196.37 29.9948C196.59 29.9007 196.847 29.9509 197.016 30.1203L198.14 31.2372L207.803 21.6181C208.035 21.3923 208.411 21.3923 208.643 21.6181L211.304 24.2661C211.417 24.379 211.48 24.5233 211.48 24.6865C211.48 24.8433 211.417 24.9939 211.304 25.1069L201.641 34.7134L202.758 35.8303C202.927 35.9997 202.977 36.257 202.883 36.4766C202.795 36.6962 202.576 36.8405 202.337 36.8405ZM197.198 35.6483L200.894 35.6546L200.373 35.1338C200.141 34.9016 200.141 34.5252 200.373 34.293L210.036 24.6865L208.223 22.8794L198.56 32.4922C198.328 32.7243 197.951 32.7243 197.719 32.4922L197.192 31.9776" fill="black"/>
<path d="M214.473 28.2442C214.015 28.2442 213.575 28.0685 213.237 27.7547C212.885 27.4285 212.684 26.983 212.666 26.4998L212.578 23.7703L213.77 23.7327L213.858 26.4622C213.864 26.6253 213.933 26.7759 214.052 26.8888C214.171 27.0018 214.341 27.0457 214.498 27.0583C214.661 27.052 214.811 26.983 214.924 26.8637C215.037 26.7445 215.094 26.5877 215.088 26.4245L214.956 22.7852L216.148 22.7476L216.28 26.3806C216.299 26.8637 216.129 27.3218 215.797 27.6732C215.464 28.0246 215.019 28.2253 214.535 28.2379C214.51 28.2442 214.491 28.2442 214.473 28.2442Z" fill="black"/>
<path d="M214.473 28.2442C214.015 28.2442 213.575 28.0685 213.237 27.7547C212.885 27.4285 212.684 26.983 212.666 26.4998L212.578 23.7703L213.77 23.7327L213.858 26.4622C213.864 26.6253 213.933 26.7759 214.052 26.8888C214.171 27.0018 214.341 27.0457 214.498 27.0583C214.661 27.052 214.811 26.983 214.924 26.8637C215.037 26.7445 215.094 26.5877 215.088 26.4245L214.956 22.7852L216.148 22.7476L216.28 26.3806C216.299 26.8637 216.129 27.3218 215.797 27.6732C215.464 28.0246 215.019 28.2253 214.535 28.2379C214.51 28.2442 214.491 28.2442 214.473 28.2442Z" fill="black"/>
<path d="M212.063 28.6521C211.599 28.6521 211.166 28.4827 210.827 28.1689C210.476 27.8364 210.269 27.3909 210.256 26.9077L210.168 24.1782L211.36 24.1406L211.448 26.8701C211.455 27.0395 211.524 27.1901 211.643 27.303C211.762 27.416 211.919 27.485 212.082 27.4662C212.421 27.4536 212.691 27.1712 212.678 26.8324L212.546 23.1994L213.739 23.1555L213.87 26.7885C213.908 27.7862 213.124 28.6144 212.126 28.6521C212.101 28.6521 212.082 28.6521 212.063 28.6521Z" fill="black"/>
<path d="M214.115 36.8531C213.87 36.8531 213.651 36.7025 213.563 36.4829C213.469 36.2632 213.519 36.006 213.688 35.8366L214.811 34.7197L205.148 25.1069C204.916 24.881 204.916 24.5045 205.148 24.2723L207.803 21.6244C208.022 21.4048 208.424 21.4048 208.643 21.6244L218.733 31.6576L217.886 32.4984L208.223 22.8856L206.41 24.6927L216.073 34.2993C216.311 34.5314 216.311 34.9142 216.073 35.1401L215.552 35.6609H219.248L219.254 30.547H220.446L220.44 36.2507C220.44 36.577 220.176 36.8405 219.844 36.8405L214.115 36.8531Z" fill="black"/>
<path d="M208.198 41.3646C208.041 41.3646 207.891 41.3081 207.771 41.1889L203.718 37.1668C203.548 36.9974 203.498 36.7401 203.586 36.5205C203.68 36.2946 203.9 36.1503 204.138 36.1503H205.726V25.1069C205.726 24.7806 205.989 24.5108 206.322 24.5108H210.08C210.407 24.5108 210.677 24.7806 210.677 25.1069V36.7464H209.484V25.703H206.918V36.7464C206.918 37.0727 206.648 37.3362 206.322 37.3362H205.581L208.198 39.934L211.831 36.326L212.678 37.1668L208.618 41.1889C208.499 41.3081 208.349 41.3646 208.198 41.3646Z" fill="black"/>
<path d="M202.331 36.8405L196.602 36.8342C196.276 36.8342 196.006 36.5707 196.006 36.2444L196 30.5407C196 30.3023 196.144 30.0827 196.37 29.9948C196.59 29.9007 196.847 29.9509 197.016 30.1203L198.14 31.2372L207.803 21.6181C208.035 21.3923 208.411 21.3923 208.643 21.6181L211.304 24.2661C211.417 24.379 211.48 24.5233 211.48 24.6865C211.48 24.8433 211.417 24.9939 211.304 25.1069L201.214 35.1338L200.373 34.293L210.036 24.6865L208.223 22.8794L198.56 32.4922C198.328 32.7243 197.951 32.7243 197.719 32.4922L197.192 31.9776L197.198 35.6483L202.337 35.6546" fill="black"/>
<path d="M221.927 19.8236C221.494 19.8236 221.086 19.6542 220.779 19.353L215.182 13.7811C214.874 13.4799 214.705 13.0721 214.705 12.6454C214.705 12.2124 214.874 11.8109 215.175 11.5034L216.631 10.0539C217.246 9.45158 218.313 9.45158 218.928 10.0539L224.525 15.6259C225.158 16.2533 225.158 17.2761 224.525 17.9036L223.069 19.353C222.762 19.6542 222.36 19.8236 221.927 19.8236ZM217.779 10.7693C217.666 10.7693 217.56 10.8195 217.478 10.8948V10.901L216.023 12.3442C215.941 12.4258 215.897 12.5324 215.897 12.6454C215.897 12.7583 215.941 12.865 216.023 12.9403L221.62 18.5122C221.783 18.6754 222.065 18.6691 222.228 18.5122L223.684 17.069C223.847 16.8996 223.847 16.6298 223.678 16.4667L218.081 10.901C217.999 10.8195 217.892 10.7693 217.779 10.7693Z" fill="black"/>
<path d="M216 29.5L211.5 25.5L210.5 26.5L210 28.5L213 32.5L216 29.5Z" fill="#629D5E"/>
<path d="M214.115 36.8531C213.87 36.8531 213.651 36.7025 213.563 36.4829C213.469 36.2632 213.519 36.006 213.688 35.8366L214.811 34.7197L205.148 25.1069C204.916 24.881 204.916 24.5045 205.148 24.2723L207.803 21.6244C208.022 21.4048 208.424 21.4048 208.643 21.6244L218.313 31.2435L219.43 30.1266C219.599 29.9572 219.856 29.907 220.082 30.0011C220.302 30.089 220.446 30.3086 220.446 30.547L220.44 36.2507C220.44 36.577 220.176 36.8405 219.844 36.8405L214.115 36.8531ZM206.41 24.6927L216.073 34.2993C216.311 34.5314 216.311 34.9142 216.073 35.1401L215.552 35.6609H219.248L219.254 31.9839L218.733 32.4984C218.501 32.7306 218.125 32.7306 217.886 32.4984L208.223 22.8856" fill="black"/>
<path d="M204.5 37H206.5V25.5H210L210.5 37H211.5L208 41L204.5 37Z" fill="#629D5E"/>
<path d="M208.198 41.3646C208.041 41.3646 207.891 41.3081 207.778 41.1889L203.718 37.1668C203.548 36.9974 203.498 36.7401 203.586 36.5205C203.68 36.2946 203.9 36.1503 204.138 36.1503H205.726V25.1069C205.726 24.7806 205.989 24.5108 206.322 24.5108H210.08C210.407 24.5108 210.677 24.7806 210.677 25.1069V36.1503H212.251C212.496 36.1503 212.716 36.2946 212.804 36.5205C212.898 36.7401 212.848 36.9974 212.678 37.1668L208.618 41.1889C208.499 41.3081 208.349 41.3646 208.198 41.3646ZM205.581 37.3362L208.198 39.934L210.815 37.3362H210.08C209.748 37.3362 209.484 37.0727 209.484 36.7464V25.703H206.918V36.7464C206.918 37.0727 206.648 37.3362 206.322 37.3362" fill="black"/>
<path d="M210.501 22.0825L207.803 25.6841C207.345 26.2928 207.47 27.1587 208.085 27.6105C208.694 28.0685 209.566 27.943 210.024 27.3344L211.706 25.088C212.377 24.2096 213.13 23.8833 213.494 23.7892C214.303 23.5758 216.738 22.666 218.043 21.8817C219.342 21.0911 220.013 19.2589 219.944 17.6839L216.06 13.8187L207.815 16.3788C206.811 16.7176 206.447 17.2886 206.297 17.6275C206.146 17.9726 204.502 21.8378 204.502 21.8378C204.314 22.3209 204.207 22.8982 204.483 23.3876C204.759 23.877 205.387 24.8559 205.387 24.8559L207.2 23.0488C207.2 23.0488 207.131 22.0511 207.363 21.5366C207.602 21.0283 207.853 20.1812 208.392 19.9867C208.926 19.7985 209.861 19.4973 209.861 19.4973C209.861 19.4973 209.779 20.564 209.967 21.135C210.162 21.706 210.457 22.0448 210.457 22.0448" fill="#629D5E"/>
<path d="M208.913 28.4826C208.487 28.4826 208.072 28.3446 207.727 28.0873C207.301 27.7736 207.025 27.3093 206.949 26.7885C206.88 26.2677 207.012 25.7469 207.332 25.3265L209.76 22.0825C209.641 21.8879 209.509 21.637 209.403 21.3232C209.309 21.0283 209.265 20.6581 209.252 20.3255C209.02 20.4008 208.781 20.4824 208.593 20.5452C208.399 20.6142 208.167 21.1726 208.041 21.4675L207.909 21.7875C207.79 22.0385 207.771 22.6535 207.796 23.0111C207.809 23.1805 207.746 23.3499 207.627 23.4692L205.807 25.2763C205.682 25.4018 205.5 25.4645 205.324 25.4457C205.142 25.4269 204.985 25.3265 204.885 25.1759C204.885 25.1759 204.245 24.1782 203.963 23.6825C203.643 23.1115 203.636 22.415 203.95 21.6181C203.956 21.6056 205.6 17.7341 205.751 17.3953C206.071 16.6674 206.717 16.1215 207.621 15.8141L215.878 13.254C216.091 13.185 216.324 13.2414 216.481 13.3983L220.371 17.2698C220.477 17.3765 220.534 17.5145 220.54 17.6651C220.609 19.2651 219.95 21.4236 218.35 22.3836C216.995 23.2056 214.535 24.128 213.644 24.3664C213.513 24.3978 212.822 24.6112 212.182 25.4457L210.501 27.692C210.181 28.1124 209.723 28.3885 209.196 28.4638C209.102 28.4764 209.007 28.4826 208.913 28.4826ZM209.867 18.9075C209.999 18.9075 210.131 18.9514 210.231 19.033C210.388 19.1585 210.476 19.3467 210.457 19.5475C210.432 19.9114 210.425 20.6142 210.538 20.9467C210.683 21.3922 210.909 21.6621 210.915 21.6621C211.147 21.8628 211.166 22.1891 210.978 22.4401L208.286 26.0355C208.154 26.2049 208.104 26.412 208.135 26.619C208.16 26.8261 208.273 27.0144 208.443 27.1336C208.612 27.2653 208.819 27.3093 209.026 27.2904C209.233 27.2591 209.422 27.1461 209.547 26.983L211.229 24.7304C212.088 23.6135 213.061 23.2872 213.343 23.2182C214.058 23.0299 216.468 22.1389 217.729 21.3734C218.802 20.7271 219.342 19.2024 219.354 17.9349L215.891 14.4964L207.991 16.9435C207.42 17.138 207.025 17.4517 206.843 17.8659C206.692 18.211 205.054 22.0699 205.054 22.0699C204.885 22.5029 204.866 22.8542 205.004 23.0927C205.123 23.3123 205.318 23.626 205.494 23.9084L206.598 22.8166C206.592 22.4276 206.61 21.7562 206.824 21.2918L206.943 21.0158C207.175 20.451 207.501 19.673 208.192 19.4283C208.731 19.24 209.679 18.9326 209.679 18.9326C209.742 18.9137 209.804 18.9075 209.867 18.9075Z" fill="black"/>
<path d="M194.369 44.7H195.881C196.373 44.7 196.742 44.832 196.988 45.096C197.234 45.36 197.357 45.747 197.357 46.257V49.443C197.357 49.953 197.234 50.34 196.988 50.604C196.742 50.868 196.373 51 195.881 51H194.369V44.7ZM195.863 50.1C196.025 50.1 196.148 50.052 196.232 49.956C196.322 49.86 196.367 49.704 196.367 49.488V46.212C196.367 45.996 196.322 45.84 196.232 45.744C196.148 45.648 196.025 45.6 195.863 45.6H195.359V50.1H195.863ZM198.025 44.7H200.725V45.6H199.015V47.265H200.374V48.165H199.015V50.1H200.725V51H198.025V44.7ZM199.465 43.242H200.545L199.582 44.277H198.835L199.465 43.242ZM202.69 51.09C202.216 51.09 201.853 50.955 201.601 50.685C201.355 50.415 201.232 50.034 201.232 49.542V46.158C201.232 45.666 201.355 45.285 201.601 45.015C201.853 44.745 202.216 44.61 202.69 44.61C203.164 44.61 203.524 44.745 203.77 45.015C204.022 45.285 204.148 45.666 204.148 46.158V46.824H203.212V46.095C203.212 45.705 203.047 45.51 202.717 45.51C202.387 45.51 202.222 45.705 202.222 46.095V49.614C202.222 49.998 202.387 50.19 202.717 50.19C203.047 50.19 203.212 49.998 203.212 49.614V48.651H204.148V49.542C204.148 50.034 204.022 50.415 203.77 50.685C203.524 50.955 203.164 51.09 202.69 51.09ZM204.74 44.7H205.73V47.265H206.792V44.7H207.782V51H206.792V48.165H205.73V51H204.74V44.7ZM208.519 44.7H211.219V45.6H209.509V47.265H210.868V48.165H209.509V50.1H211.219V51H208.519V44.7ZM208.699 43.242H209.779L210.409 44.277H209.662L208.699 43.242ZM212.563 45.6H211.528V44.7H214.588V45.6H213.553V51H212.563V45.6ZM215.067 44.7H217.767V45.6H216.057V47.265H217.416V48.165H216.057V50.1H217.767V51H215.067V44.7ZM218.337 44.7H219.804C220.314 44.7 220.686 44.82 220.92 45.06C221.154 45.294 221.271 45.657 221.271 46.149V46.536C221.271 47.19 221.055 47.604 220.623 47.778V47.796C220.863 47.868 221.031 48.015 221.127 48.237C221.229 48.459 221.28 48.756 221.28 49.128V50.235C221.28 50.415 221.286 50.562 221.298 50.676C221.31 50.784 221.34 50.892 221.388 51H220.38C220.344 50.898 220.32 50.802 220.308 50.712C220.296 50.622 220.29 50.46 220.29 50.226V49.074C220.29 48.786 220.242 48.585 220.146 48.471C220.056 48.357 219.897 48.3 219.669 48.3H219.327V51H218.337V44.7ZM219.687 47.4C219.885 47.4 220.032 47.349 220.128 47.247C220.23 47.145 220.281 46.974 220.281 46.734V46.248C220.281 46.02 220.239 45.855 220.155 45.753C220.077 45.651 219.951 45.6 219.777 45.6H219.327V47.4H219.687ZM221.967 44.7H222.957V51H221.967V44.7ZM223.698 44.7H226.398V45.6H224.688V47.265H226.047V48.165H224.688V50.1H226.398V51H223.698V44.7Z" fill="black"/>
</g>
<defs>
<clipPath id="clip0_72_4714">
<rect width="240" height="61" fill="white"/>
</clipPath>
</defs>
</svg>
