<svg width="245" height="61" viewBox="0 0 245 61" fill="none" xmlns="http://www.w3.org/2000/svg">
<g clip-path="url(#clip0_66_1721)">
<path d="M24.6979 60.4688C11.0781 60.4688 0 49.5208 0 36.0625V0H219.948C233.563 0 244.641 10.9479 244.641 24.4062V60.4688" fill="white"/>
<path d="M222.083 52.9114H69.1353C59.6874 52.9114 51.9999 45.3541 51.9999 36.0625V7.55725H204.948C214.396 7.55725 222.083 15.1145 222.083 24.4062V52.9114ZM204.948 5.66663H50.1145V36.0625C50.1145 46.3958 58.6458 54.802 69.1353 54.802H223.969V24.4062C223.969 14.0729 215.437 5.66663 204.948 5.66663Z" fill="#333347"/>
<path d="M181.714 54.802L194.724 28.2239L181.432 5.66663H219.948C230.437 5.66663 238.969 14.0729 238.969 24.4062V54.802" fill="#333347"/>
<path d="M102.901 5.66663H50.1145V36.0625C50.1145 46.3958 58.6458 54.802 69.1353 54.802H121.927V24.4062C121.927 14.0729 113.391 5.66663 102.901 5.66663Z" fill="#333347"/>
<path d="M63.651 29.3594C58.8489 29.3594 54.9583 33.25 54.9583 38.0521C54.9583 42.8542 58.8489 46.7448 63.651 46.7448C68.4583 46.7448 72.3489 42.8542 72.3489 38.0521C72.3489 33.25 68.4583 29.3594 63.651 29.3594Z" fill="white"/>
<path d="M69.3229 39.4688H65.0729V43.7188H62.2344V39.4688H57.9844V36.6355H62.2344V32.3802H65.0729V36.6355H69.3229" fill="#1C1C1B"/>
<path d="M55.7864 26.5937V17.1979H58.2708V24.5156H61.828V26.5937" fill="white"/>
<path d="M62.9426 26.5937V17.1979H69.0155V19.276H65.4322V20.7552H68.4947V22.8385H65.4322V24.5156H69.1614V26.5937" fill="white"/>
<path d="M75.0885 26.5937V19.276H72.6041V17.1979H80.0677V19.276H77.5781V26.5937" fill="white"/>
<path d="M83.5521 21.4739H84.4479C85.4479 21.4739 85.9531 21.0625 85.9531 20.2343C85.9531 19.8281 85.8229 19.5468 85.5677 19.3958C85.3125 19.2395 84.9375 19.1614 84.4479 19.1614H83.5521V21.4739ZM81.0625 26.5989V17.1979H84.6198C85.125 17.1979 85.6042 17.2448 86.0625 17.3385C86.5208 17.4375 86.9167 17.5989 87.2604 17.8333C87.6042 18.0625 87.875 18.375 88.0781 18.7656C88.2813 19.1562 88.3802 19.6458 88.3802 20.2343C88.3802 20.9062 88.2448 21.4687 87.9688 21.9114C87.6979 22.3541 87.3281 22.6979 86.8646 22.9531L88.901 26.5989H86.125L84.5052 23.4427H83.5521V26.5989" fill="white"/>
<path d="M89.8698 26.5989H92.3593V17.1979H89.8698V26.5989Z" fill="white"/>
<path d="M75.3801 43.276V33.8698H81.5103V35.9531H77.8697V37.75H80.9895V39.8333H77.8697V43.276" fill="white"/>
<path d="M84.9218 38.7031L84.7604 39.3541H86.4948L86.3385 38.7031C86.2239 38.25 86.1041 37.7604 85.9895 37.2291C85.875 36.6979 85.7604 36.1979 85.6406 35.7239H85.5833C85.4791 36.2031 85.3698 36.7083 85.2604 37.2343C85.151 37.7604 85.0364 38.25 84.9218 38.7031ZM81.3073 43.276L84.1666 33.8698H87.1718L90.0364 43.276H87.4062L86.9427 41.276H84.3125L83.8489 43.276" fill="white"/>
<path d="M94.5624 43.4479C93.9687 43.4479 93.3958 43.3489 92.8541 43.151C92.3072 42.9531 91.8333 42.651 91.4218 42.2552C91.0103 41.8541 90.6822 41.3541 90.4426 40.75C90.203 40.1458 90.0833 39.4479 90.0833 38.6458C90.0833 37.8541 90.2083 37.151 90.4583 36.5416C90.7083 35.927 91.0416 35.4114 91.4635 34.9948C91.8801 34.5729 92.3645 34.25 92.9114 34.0312C93.4583 33.8073 94.026 33.6979 94.6249 33.6979C95.2499 33.6979 95.8124 33.8229 96.302 34.0677C96.7968 34.3125 97.2083 34.6041 97.5468 34.9427L96.2447 36.5312C96.0155 36.3333 95.776 36.1666 95.5312 36.0312C95.2812 35.9062 94.9999 35.8385 94.6822 35.8385C94.401 35.8385 94.1405 35.901 93.8958 36.026C93.651 36.151 93.4322 36.3333 93.2447 36.5625C93.0572 36.7916 92.9062 37.0781 92.7968 37.4166C92.6822 37.75 92.6301 38.1354 92.6301 38.5573C92.6301 39.4479 92.8124 40.125 93.1874 40.5989C93.5572 41.0677 94.0468 41.3073 94.651 41.3073C95.0208 41.3073 95.3437 41.2291 95.6301 41.0677C95.9114 40.9062 96.1562 40.7187 96.3593 40.4948L97.6614 42.0573C97.2551 42.5208 96.7916 42.8698 96.2655 43.0989C95.7395 43.3333 95.1718 43.4479 94.5624 43.4479Z" fill="white"/>
<path d="M98.6198 43.276H101.104V33.8698H98.6198V43.276Z" fill="white"/>
<path d="M102.875 43.276V33.8698H105.365V41.1927H108.922V43.276" fill="white"/>
<path d="M110.031 43.276V33.8698H116.109V35.9531H112.521V37.4323H115.589V39.5156H112.521V41.1927H116.255V43.276" fill="white"/>
<path d="M28.4062 25.7448C26.7135 28.2343 28.151 31.5104 29.8958 33.1718C31.4895 34.6823 32.7655 35.0364 32.9322 35.0781L33.7447 33.5208L36.0885 39.9323L29.4635 41.2812L30.3437 39.6458L29.4478 39.1458C26.6562 37.3281 26.0676 34.8593 25.8749 34.0885C25.5416 32.7604 25.0468 28.7864 28.4062 25.7448Z" fill="#333347"/>
<path d="M28.375 25.8489C29.5781 28.6093 33.1146 29.1406 35.4479 28.552C37.5208 28.026 38.5052 27.1718 38.6719 27.0156L38.6615 27L37.776 25.4635L44.4427 26.9218L42.0313 33.2395L41.1354 31.6458L40.2656 32.1198C37.2396 33.5104 34.8333 32.6927 34.0781 32.4427C32.7813 32.0156 29.1562 30.3125 28.375 25.8489Z" fill="#333347"/>
<path d="M40.1613 19.1927C39.6978 22.4895 37.7134 24.0729 37.0936 24.5729C36.0311 25.4375 32.6457 27.5677 28.4634 25.8177C31.4373 26.2916 33.7967 23.6041 34.5571 21.3177C35.2446 19.2656 35.0415 17.9687 34.9998 17.7708L34.979 17.7656L33.2134 17.6927L38.0259 12.8541L42.0519 18.2864L40.2342 18.1823" fill="#333347"/>
<path fill-rule="evenodd" clip-rule="evenodd" d="M19.9375 16.4115C18.4167 16.4115 17.1875 15.1823 17.1875 13.6563C17.1875 12.1354 18.4167 10.9062 19.9375 10.9062C21.4583 10.9062 22.6927 12.1354 22.6927 13.6563C22.6927 15.1823 21.4583 16.4115 19.9375 16.4115Z" fill="#333347"/>
<path d="M15.6771 29.7968C15.9115 29.151 16.2604 29.1927 16.2604 29.1927C16.2604 29.1927 16.5781 29.125 16.7552 29.7708L19.3281 38.8073C17.1823 38.1823 15.224 37.1198 13.5573 35.7083L15.6771 29.7968ZM23.7031 5.66663C13.7604 5.66663 5.67188 13.7552 5.67188 23.6979C5.67188 33.6406 13.7604 41.7291 23.7031 41.7291C24.2344 41.7291 24.7552 41.6979 25.276 41.651L25.3958 43.4635L28.6979 40.2708L25.0052 37.4531L25.1458 39.3541C24.6719 39.401 24.1875 39.4323 23.7031 39.4323C22.9375 39.4323 22.1875 39.375 21.4531 39.2656L21.3802 38.7864L19.6667 24.1875C19.4323 21.4323 21.0052 20.9948 21.9792 21.4062L27.4479 23.6041C28.0729 23.875 28.375 23.3489 28.375 23.3489C28.375 23.3489 28.7292 22.802 28.0938 22.3958C28.0938 22.3958 20.6406 17.4583 19.0521 17.1562C16.8854 16.7552 14.7396 18.5104 14.2656 20.7968L11.6198 33.7604C9.34375 31.0312 7.96875 27.5208 7.96875 23.6979C7.96875 15.0208 15.026 7.9635 23.7031 7.9635C28.3385 7.9635 32.5104 9.97913 35.3906 13.177L37.0052 11.5364C33.7083 7.93225 28.9635 5.66663 23.7031 5.66663Z" fill="#333347"/>
<path d="M131.328 30.308H132.096C132.44 30.308 132.716 30.204 132.924 29.996C133.14 29.788 133.248 29.464 133.248 29.024C133.248 28.592 133.156 28.264 132.972 28.04C132.788 27.816 132.48 27.704 132.048 27.704H131.328V30.308ZM129.6 26.432H132.624C133.064 26.432 133.432 26.508 133.728 26.66C134.032 26.804 134.276 26.996 134.46 27.236C134.644 27.476 134.776 27.752 134.856 28.064C134.936 28.368 134.976 28.68 134.976 29C134.976 29.44 134.908 29.824 134.772 30.152C134.644 30.48 134.46 30.748 134.22 30.956C133.988 31.164 133.704 31.32 133.368 31.424C133.032 31.528 132.66 31.58 132.252 31.58H131.328V35H129.6V26.432ZM137.371 30.716C137.371 31.292 137.383 31.784 137.407 32.192C137.439 32.592 137.495 32.92 137.575 33.176C137.663 33.424 137.783 33.608 137.935 33.728C138.095 33.84 138.303 33.896 138.559 33.896C138.815 33.896 139.019 33.84 139.171 33.728C139.331 33.608 139.451 33.424 139.531 33.176C139.619 32.92 139.675 32.592 139.699 32.192C139.731 31.784 139.747 31.292 139.747 30.716C139.747 30.14 139.731 29.652 139.699 29.252C139.675 28.852 139.619 28.524 139.531 28.268C139.451 28.012 139.331 27.828 139.171 27.716C139.019 27.596 138.815 27.536 138.559 27.536C138.303 27.536 138.095 27.596 137.935 27.716C137.783 27.828 137.663 28.012 137.575 28.268C137.495 28.524 137.439 28.852 137.407 29.252C137.383 29.652 137.371 30.14 137.371 30.716ZM135.643 30.716C135.643 30.068 135.671 29.472 135.727 28.928C135.791 28.376 135.923 27.904 136.123 27.512C136.331 27.12 136.627 26.816 137.011 26.6C137.395 26.376 137.911 26.264 138.559 26.264C139.207 26.264 139.723 26.376 140.107 26.6C140.491 26.816 140.783 27.12 140.983 27.512C141.191 27.904 141.323 28.376 141.379 28.928C141.443 29.472 141.475 30.068 141.475 30.716C141.475 31.372 141.443 31.972 141.379 32.516C141.323 33.06 141.191 33.528 140.983 33.92C140.783 34.312 140.491 34.612 140.107 34.82C139.723 35.028 139.207 35.132 138.559 35.132C137.911 35.132 137.395 35.028 137.011 34.82C136.627 34.612 136.331 34.312 136.123 33.92C135.923 33.528 135.791 33.06 135.727 32.516C135.671 31.972 135.643 31.372 135.643 30.716ZM144.111 26.432V32.408C144.111 32.624 144.123 32.824 144.147 33.008C144.179 33.184 144.231 33.34 144.303 33.476C144.383 33.604 144.487 33.708 144.615 33.788C144.751 33.86 144.919 33.896 145.119 33.896C145.327 33.896 145.495 33.86 145.623 33.788C145.751 33.708 145.851 33.604 145.923 33.476C146.003 33.34 146.055 33.184 146.079 33.008C146.111 32.824 146.127 32.624 146.127 32.408V26.432H147.855V32.408C147.855 32.952 147.779 33.404 147.627 33.764C147.475 34.116 147.271 34.396 147.015 34.604C146.759 34.812 146.467 34.952 146.139 35.024C145.811 35.096 145.471 35.132 145.119 35.132C144.767 35.132 144.427 35.1 144.099 35.036C143.771 34.972 143.479 34.844 143.223 34.652C142.967 34.452 142.763 34.172 142.611 33.812C142.459 33.452 142.383 32.984 142.383 32.408V26.432H144.111ZM150.34 32.324V32.576C150.34 32.776 150.356 32.96 150.388 33.128C150.42 33.288 150.48 33.424 150.568 33.536C150.656 33.648 150.772 33.736 150.916 33.8C151.068 33.864 151.256 33.896 151.48 33.896C151.744 33.896 151.98 33.812 152.188 33.644C152.404 33.468 152.512 33.2 152.512 32.84C152.512 32.648 152.484 32.484 152.428 32.348C152.38 32.204 152.296 32.076 152.176 31.964C152.056 31.852 151.896 31.752 151.696 31.664C151.504 31.568 151.264 31.472 150.976 31.376C150.592 31.248 150.26 31.108 149.98 30.956C149.7 30.804 149.464 30.628 149.272 30.428C149.088 30.22 148.952 29.984 148.864 29.72C148.776 29.448 148.732 29.136 148.732 28.784C148.732 27.936 148.968 27.304 149.44 26.888C149.912 26.472 150.56 26.264 151.384 26.264C151.768 26.264 152.12 26.308 152.44 26.396C152.768 26.476 153.048 26.612 153.28 26.804C153.52 26.988 153.704 27.228 153.832 27.524C153.968 27.812 154.036 28.16 154.036 28.568V28.808H152.38C152.38 28.4 152.308 28.088 152.164 27.872C152.02 27.648 151.78 27.536 151.444 27.536C151.252 27.536 151.092 27.564 150.964 27.62C150.836 27.676 150.732 27.752 150.652 27.848C150.58 27.936 150.528 28.04 150.496 28.16C150.472 28.28 150.46 28.404 150.46 28.532C150.46 28.796 150.516 29.02 150.628 29.204C150.74 29.38 150.98 29.544 151.348 29.696L152.68 30.272C153.008 30.416 153.276 30.568 153.484 30.728C153.692 30.88 153.856 31.048 153.976 31.232C154.104 31.408 154.192 31.604 154.24 31.82C154.288 32.036 154.312 32.276 154.312 32.54C154.312 33.444 154.048 34.104 153.52 34.52C153 34.928 152.272 35.132 151.336 35.132C150.36 35.132 149.66 34.92 149.236 34.496C148.82 34.072 148.612 33.464 148.612 32.672V32.324H150.34ZM156.562 32.324V32.576C156.562 32.776 156.578 32.96 156.61 33.128C156.642 33.288 156.702 33.424 156.79 33.536C156.878 33.648 156.994 33.736 157.138 33.8C157.29 33.864 157.478 33.896 157.702 33.896C157.966 33.896 158.202 33.812 158.41 33.644C158.626 33.468 158.734 33.2 158.734 32.84C158.734 32.648 158.706 32.484 158.65 32.348C158.602 32.204 158.518 32.076 158.398 31.964C158.278 31.852 158.118 31.752 157.918 31.664C157.726 31.568 157.486 31.472 157.198 31.376C156.814 31.248 156.482 31.108 156.202 30.956C155.922 30.804 155.686 30.628 155.494 30.428C155.31 30.22 155.174 29.984 155.086 29.72C154.998 29.448 154.954 29.136 154.954 28.784C154.954 27.936 155.19 27.304 155.662 26.888C156.134 26.472 156.782 26.264 157.606 26.264C157.99 26.264 158.342 26.308 158.662 26.396C158.99 26.476 159.27 26.612 159.502 26.804C159.742 26.988 159.926 27.228 160.054 27.524C160.19 27.812 160.258 28.16 160.258 28.568V28.808H158.602C158.602 28.4 158.53 28.088 158.386 27.872C158.242 27.648 158.002 27.536 157.666 27.536C157.474 27.536 157.314 27.564 157.186 27.62C157.058 27.676 156.954 27.752 156.874 27.848C156.802 27.936 156.75 28.04 156.718 28.16C156.694 28.28 156.682 28.404 156.682 28.532C156.682 28.796 156.738 29.02 156.85 29.204C156.962 29.38 157.202 29.544 157.57 29.696L158.902 30.272C159.23 30.416 159.498 30.568 159.706 30.728C159.914 30.88 160.078 31.048 160.198 31.232C160.326 31.408 160.414 31.604 160.462 31.82C160.51 32.036 160.534 32.276 160.534 32.54C160.534 33.444 160.27 34.104 159.742 34.52C159.222 34.928 158.494 35.132 157.558 35.132C156.582 35.132 155.882 34.92 155.458 34.496C155.042 34.072 154.834 33.464 154.834 32.672V32.324H156.562ZM161.477 35V26.432H163.205V35H161.477ZM166.575 25.928L165.399 24.2H167.055L167.703 25.928H166.575ZM169.275 26.432V27.848H166.215V29.864H169.095V31.28H166.215V33.584H169.395V35H164.487V26.432H169.275ZM170.264 26.432H173.456C174.176 26.432 174.736 26.616 175.136 26.984C175.536 27.344 175.736 27.896 175.736 28.64C175.736 29.216 175.62 29.688 175.388 30.056C175.156 30.416 174.796 30.648 174.308 30.752V30.776C174.74 30.84 175.056 30.98 175.256 31.196C175.456 31.412 175.58 31.76 175.628 32.24C175.644 32.4 175.656 32.576 175.664 32.768C175.672 32.952 175.68 33.16 175.688 33.392C175.704 33.848 175.728 34.196 175.76 34.436C175.808 34.676 175.912 34.84 176.072 34.928V35H174.2C174.112 34.88 174.056 34.744 174.032 34.592C174.008 34.432 173.992 34.268 173.984 34.1L173.936 32.456C173.92 32.12 173.836 31.856 173.684 31.664C173.532 31.472 173.276 31.376 172.916 31.376H171.992V35H170.264V26.432ZM171.992 30.176H172.712C173.128 30.176 173.448 30.08 173.672 29.888C173.896 29.688 174.008 29.356 174.008 28.892C174.008 28.1 173.608 27.704 172.808 27.704H171.992V30.176ZM181.72 26.432V27.848H178.66V29.864H181.54V31.28H178.66V33.584H181.84V35H176.932V26.432H181.72Z" fill="black"/>
<path fill-rule="evenodd" clip-rule="evenodd" d="M211.197 12.9917C210.489 12.7271 209.997 12.6406 209.67 12.6452C209.338 12.6499 209.233 12.7457 209.211 12.7697C209.191 12.7911 209.158 12.8426 209.156 12.9856C209.155 13.0935 209.173 13.2211 209.209 13.3514L213.625 17.6963H216.528C217.034 17.0728 218.172 15.8497 220.078 14.1794C220.602 13.7203 220.792 13.4037 220.848 13.2371C220.879 13.1441 220.868 13.1284 220.843 13.0951L220.839 13.0896C220.774 13.001 220.62 12.8791 220.352 12.7673C220.11 12.6663 219.831 12.5973 219.575 12.5601C219.389 12.5649 219.251 12.6081 219.006 12.6965L218.957 12.7142C218.87 12.7457 218.807 12.7781 218.743 12.811C218.611 12.8791 218.474 12.9492 218.116 13.0172C217.548 13.1251 217.141 13.1334 216.683 13.0237C216.386 12.9524 216.057 12.826 215.66 12.6733L215.66 12.6732L215.66 12.6732C215.522 12.6199 215.375 12.5634 215.218 12.505L215.215 12.5046C215.205 12.5034 215.171 12.4992 215.103 12.5017C215.005 12.5053 214.878 12.5207 214.721 12.5484C214.412 12.603 214.047 12.694 213.66 12.7904L213.637 12.7962C213.255 12.8913 212.848 12.9925 212.508 13.0468C212.338 13.0739 212.162 13.0935 211.999 13.0896C211.986 13.0893 211.969 13.0891 211.947 13.0889H211.947C211.777 13.0872 211.364 13.0832 211.197 12.9917ZM213.237 11.3164C212.706 11.4374 211.732 11.5442 211.732 11.5442C211.164 11.5236 210.749 11.4099 210.402 11.3145C210.125 11.2386 209.891 11.1743 209.654 11.1777C209.117 11.1852 208.651 11.3462 208.316 11.7135C207.98 12.0836 207.873 12.5579 207.868 12.9653C207.863 13.3667 207.954 13.7551 208.067 14.0649L208.126 14.2248L212.043 18.0789C210.564 18.4041 208.986 19.063 207.531 20.2082C204.761 22.3897 202.542 26.2534 202.227 32.6479C202.207 33.0641 202.184 33.4866 202.161 33.912C202.068 35.6616 201.972 37.462 202.008 39.0902C202.052 41.0844 202.292 43.0034 203.107 44.3151C204.572 46.6711 206.968 47.8112 209.268 48.348C211.56 48.883 213.85 48.8422 215.268 48.7579C216.563 48.7331 218.698 48.6558 220.887 48.1961C223.067 47.7382 225.413 46.8786 227.016 45.2058C228.305 43.8598 228.744 41.8774 228.878 39.7527C228.983 38.0805 228.904 36.1896 228.823 34.2644L228.823 34.2638C228.8 33.7301 228.778 33.1937 228.759 32.6587C228.548 26.6489 226.338 22.879 223.569 20.6473C221.772 19.1991 219.772 18.4248 218.001 18.0891C218.574 17.4656 219.506 16.5318 220.863 15.3427C221.456 14.8235 221.868 14.3043 222.051 13.7626C222.256 13.1522 222.144 12.5834 221.83 12.152C221.553 11.7717 221.15 11.5369 220.794 11.3889C220.425 11.2351 220.029 11.1428 219.687 11.097L219.649 11.092H219.611C219.197 11.092 218.898 11.1959 218.617 11.2976L218.57 11.3145C218.314 11.4071 218.037 11.5078 217.597 11.5912C217.212 11.6645 217.189 11.6582 217.042 11.6184L217.042 11.6184C217.013 11.6105 216.98 11.6013 216.937 11.5912C216.72 11.539 216.496 11.4529 216.141 11.3164C216.127 11.311 216.103 11.2985 216.069 11.2814C215.905 11.1967 215.523 11 215.086 11C214.442 11 213.825 11.163 213.453 11.2614L213.453 11.2614L213.453 11.2615L213.453 11.2615C213.367 11.2841 213.295 11.3034 213.237 11.3164ZM208.478 21.4108C206.129 23.2603 204.054 26.6676 203.756 32.7231C203.735 33.1559 203.712 33.5897 203.689 34.0222C203.596 35.7668 203.504 37.492 203.538 39.0565C203.582 41.0386 203.83 42.5793 204.407 43.5068C205.575 45.3858 207.528 46.37 209.616 46.8573C211.702 47.3443 213.827 47.3108 215.192 47.2289L215.207 47.228L215.223 47.2277C216.495 47.2037 218.521 47.1289 220.572 46.6981C222.641 46.2636 224.624 45.489 225.91 44.1468C226.806 43.2119 227.221 41.7042 227.35 39.6564C227.45 38.0726 227.375 36.2919 227.295 34.3813C227.272 33.835 227.249 33.2782 227.229 32.7124C227.032 27.0884 224.989 23.7575 222.609 21.8391C220.802 20.3832 218.757 19.7053 217.07 19.4905C218.467 20.9563 220.051 22.4306 220.916 22.9628L220.114 24.2664C219.751 23.9038 219.206 23.4291 218.577 22.8815L218.577 22.8815C217.672 22.0929 216.593 21.1533 215.636 20.1804C215.589 20.8038 215.548 21.5006 215.531 22.1621C215.516 22.7319 215.52 23.2613 215.55 23.6891C215.565 23.9031 215.586 24.0802 215.611 24.218C215.624 24.2864 215.636 24.3394 215.648 24.3787C215.659 24.4162 215.666 24.4328 215.667 24.4343L215.777 25.0318L214.298 25.119C214.12 24.7626 214.055 24.2519 214.023 23.7962C213.988 23.2997 213.985 22.7161 214.001 22.123C214.013 21.6509 214.036 21.1638 214.066 20.6965C212.822 21.8971 211.513 22.9378 210.548 23.7056L210.547 23.7058L210.547 23.7061C210.412 23.8133 210.284 23.9151 210.164 24.0113L209.362 22.7076C210.212 22.115 211.785 20.8255 213.179 19.4313C211.695 19.6286 210.007 20.2073 208.478 21.4108Z" fill="white"/>
</g>
<defs>
<clipPath id="clip0_66_1721">
<rect width="245" height="61" fill="white"/>
</clipPath>
</defs>
</svg>
