<svg width="227" height="61" viewBox="0 0 227 61" fill="none" xmlns="http://www.w3.org/2000/svg">
<g clip-path="url(#clip0_46_582)">
<path d="M24.8542 60.7916C11.2344 60.7916 0.15625 49.8385 0.15625 36.3801V0.317627H201.323C214.938 0.317627 226.016 11.2655 226.016 24.7239L226.021 60.7916" fill="white"/>
<path d="M201.323 5.98438H50.2708V36.3802C50.2708 46.7135 58.802 55.1198 69.2916 55.1198H220.349V24.724C220.349 14.3958 211.812 5.98438 201.323 5.98438Z" fill="white"/>
<path d="M218.458 53.2292H69.2916C59.8437 53.2292 52.1562 45.6719 52.1562 36.3802V7.875H201.323C210.771 7.875 218.458 15.4323 218.458 24.724V53.2292ZM201.323 5.98438H50.2708V36.3802C50.2708 46.7135 58.802 55.1198 69.2916 55.1198H220.349V24.724C220.349 14.3958 211.812 5.98438 201.323 5.98438Z" fill="#FCC42F"/>
<path d="M163.089 55.1198L176.099 28.5417L162.807 5.98438H201.323C211.812 5.98438 220.349 14.3906 220.349 24.724V55.1198" fill="#FCC42F"/>
<path d="M201.323 7.875H166.115L178.245 28.4583L166.12 53.2292H218.458V24.724C218.458 15.4323 210.771 7.875 201.323 7.875Z" fill="#FCC42F"/>
<path d="M206.281 41.6615H205.078C204.979 41.6615 204.885 41.6719 204.792 41.6875C205.354 35.4323 206.224 25.7708 206.646 21.3958C206.687 20.9531 206.359 20.5573 205.917 20.5156C205.464 20.4635 205.073 20.7969 205.031 21.2448C204.385 27.9635 202.677 47.1458 202.661 47.3385C202.63 47.6615 202.312 47.9271 201.943 47.9271H188.854C188.479 47.9271 188.167 47.6615 188.135 47.3385C188.12 47.1458 186.411 27.9635 185.766 21.2448C185.724 20.7969 185.333 20.4635 184.88 20.5156C184.437 20.5573 184.109 20.9531 184.151 21.3958C184.573 25.7708 185.443 35.4271 186.005 41.6875C185.911 41.6667 185.812 41.6562 185.719 41.6562H184.516C183.74 41.6562 183.104 42.2917 183.104 43.0677V48.1406C183.104 48.9167 183.74 49.5469 184.516 49.5469H185.719C186.297 49.5469 186.802 49.1927 187.016 48.6823C187.443 49.2135 188.104 49.5469 188.854 49.5469H201.943C202.687 49.5469 203.349 49.2135 203.781 48.6875C203.995 49.1927 204.495 49.5521 205.078 49.5521H206.281C207.057 49.5521 207.687 48.9219 207.687 48.1406V43.0677C207.687 42.2917 207.057 41.6615 206.281 41.6615Z" fill="#1C1C1B"/>
<path d="M190.344 25.1198V27.4115H191.016C191.411 27.4115 191.625 27.2292 191.625 26.6771V26.026C191.625 25.3333 191.401 25.1198 190.865 25.1198H190.344ZM190.344 22.0833V24.0521H190.802C191.24 24.0521 191.505 23.8646 191.505 23.2656V22.849C191.505 22.3125 191.323 22.0833 190.906 22.0833H190.344ZM192.677 22.7344V23C192.677 23.7656 192.443 24.2448 191.922 24.4896V24.5104C192.547 24.7604 192.797 25.3125 192.797 26.099V26.7083C192.797 27.8594 192.187 28.4792 191.016 28.4792H189.172V21.0156H190.938C192.156 21.0156 192.677 21.5833 192.677 22.7344Z" fill="#1C1C1B"/>
<path d="M194.833 26.1146H195.964L195.411 22.3385H195.385L194.833 26.1146ZM197.51 28.4792H196.328L196.125 27.125H194.688L194.479 28.4792H193.406L194.599 21.0156H196.313" fill="#1C1C1B"/>
<path d="M201.661 25.6926V26.6874C201.661 27.8801 201.062 28.5624 199.911 28.5624C198.76 28.5624 198.161 27.8801 198.161 26.6874V22.8072C198.161 21.6093 198.76 20.927 199.911 20.927C201.062 20.927 201.661 21.6093 201.661 22.8072V23.5312H200.552V22.7291C200.552 22.1978 200.318 21.9947 199.943 21.9947C199.573 21.9947 199.338 22.1978 199.338 22.7291V26.7603C199.338 27.2916 199.573 27.4843 199.943 27.4843C200.318 27.4843 200.552 27.2916 200.552 26.7603V25.6926" fill="#1C1C1B"/>
<path d="M192.703 31.2083V36.5365H193.365C193.734 36.5365 193.958 36.3438 193.958 35.8125V31.9323C193.958 31.401 193.734 31.2083 193.365 31.2083H192.703ZM191.531 30.1406H193.385C194.557 30.1406 195.13 30.7917 195.13 31.9844V35.7604C195.13 36.9531 194.557 37.6042 193.385 37.6042H191.531" fill="#1C1C1B"/>
<path d="M197.266 33.2865H198.875V34.349H197.266V36.5365H199.292V37.6042H196.094V30.1406H199.292V31.2031H197.266" fill="#1C1C1B"/>
<path d="M190.161 39.2656H193.786V40.3281H192.562V46.7292H191.385V40.3281H190.161" fill="#1C1C1B"/>
<path d="M195.688 40.3281V42.625H196.146C196.583 42.625 196.849 42.4323 196.849 41.8333V41.099C196.849 40.5677 196.667 40.3281 196.25 40.3281H195.688ZM196.969 46.7292C196.901 46.5365 196.859 46.4167 196.859 45.8125V44.6354C196.859 43.9479 196.625 43.6875 196.094 43.6875H195.688V46.7292H194.516V39.2656H196.286C197.5 39.2656 198.021 39.8281 198.021 40.9792V41.5677C198.021 42.3333 197.776 42.8229 197.255 43.0729V43.0938C197.839 43.3385 198.031 43.8906 198.031 44.6719V45.8229C198.031 46.1823 198.042 46.4531 198.161 46.7292" fill="#1C1C1B"/>
<path d="M199.016 46.7292H200.188V39.2656H199.016V46.7292Z" fill="#1C1C1B"/>
<path d="M207.125 17.6197H183.672V15.6666C183.672 15.5989 183.703 15.5676 183.698 15.5676H185.396C185.589 15.5676 185.771 15.4999 185.917 15.3697L188.047 13.5103C188.141 13.427 188.37 13.3437 188.661 13.3437H202.13C202.422 13.3437 202.656 13.427 202.75 13.5103L204.88 15.3697C205.026 15.4999 205.208 15.5676 205.401 15.5676H207.099C207.089 15.5676 207.125 15.5989 207.125 15.6666V17.6197ZM207.099 13.9791H205.698L203.792 12.3176C203.385 11.9583 202.781 11.7551 202.13 11.7551H188.661C188.016 11.7551 187.411 11.9583 187 12.3176L185.094 13.9791H183.698C182.807 13.9791 182.089 14.7395 182.089 15.6666V17.8124C182.089 18.1093 182.161 18.401 182.307 18.6614C182.37 18.7708 182.458 18.8697 182.562 18.9374C182.823 19.1093 183.12 19.1978 183.427 19.1978H207.37C207.677 19.1978 207.974 19.1093 208.234 18.9374C208.339 18.8697 208.427 18.7708 208.49 18.6614C208.63 18.401 208.708 18.1093 208.708 17.8124V15.6666C208.708 14.7395 207.984 13.9791 207.099 13.9791Z" fill="#1C1C1B"/>
<path d="M202.125 14.0781H188.667C188.297 14.0781 187.995 14.3802 187.995 14.75C187.995 15.1198 188.297 15.4219 188.667 15.4219H202.125C202.495 15.4219 202.797 15.1198 202.797 14.75C202.797 14.3802 202.495 14.0781 202.125 14.0781Z" fill="#1C1C1B"/>
<path d="M103.057 5.98438H50.2708V36.3802C50.2708 46.7135 58.802 55.1198 69.2916 55.1198H122.083V24.724C122.083 14.3958 113.547 5.98438 103.057 5.98438Z" fill="#FCC42F"/>
<path d="M63.8072 29.677C59.0051 29.677 55.1145 33.5676 55.1145 38.3697C55.1145 43.1718 59.0051 47.0624 63.8072 47.0624C68.6145 47.0624 72.5051 43.1718 72.5051 38.3697C72.5051 33.5676 68.6145 29.677 63.8072 29.677Z" fill="white"/>
<path d="M69.4792 39.7865H65.2292V44.0417H62.3906V39.7865H58.1406V36.9531H62.3906V32.7031H65.2292V36.9531H69.4792" fill="#1C1C1B"/>
<path d="M55.9426 26.9167V17.5156H58.427V24.8333H61.9843V26.9167" fill="#1C1C1B"/>
<path d="M63.0989 26.9167V17.5156H69.1718V19.599H65.5885V21.0729H68.651V23.1563H65.5885V24.8333H69.3176V26.9167" fill="#1C1C1B"/>
<path d="M75.2448 26.9167V19.599H72.7604V17.5156H80.2239V19.599H77.7343V26.9167" fill="#1C1C1B"/>
<path d="M83.7083 21.7969H84.6042C85.6042 21.7969 86.1094 21.3802 86.1094 20.5521C86.1094 20.1458 85.9792 19.8698 85.724 19.7135C85.4688 19.5573 85.0938 19.4792 84.6042 19.4792H83.7083V21.7969ZM81.2188 26.9167V17.5156H84.776C85.2813 17.5156 85.7604 17.5625 86.2188 17.6563C86.6771 17.7552 87.0729 17.9219 87.4167 18.151C87.7604 18.3802 88.0313 18.6927 88.2344 19.0833C88.4375 19.474 88.5365 19.9635 88.5365 20.5521C88.5365 21.2292 88.401 21.7865 88.125 22.2292C87.8542 22.6719 87.4844 23.0208 87.0208 23.2708L89.0573 26.9167H86.2813L84.6615 23.7604H83.7083V26.9167" fill="#1C1C1B"/>
<path d="M90.026 26.9167H92.5156V17.5156H90.026V26.9167Z" fill="#1C1C1B"/>
<path d="M75.5364 43.5937V34.1926H81.6666V36.276H78.026V38.0676H81.1458V40.151H78.026V43.5937" fill="#1C1C1B"/>
<path d="M85.0781 39.0208L84.9166 39.6718H86.651L86.4948 39.0208C86.3802 38.5676 86.2604 38.078 86.1458 37.5468C86.0312 37.0155 85.9166 36.5155 85.7968 36.0416H85.7395C85.6354 36.526 85.526 37.0312 85.4166 37.552C85.3073 38.078 85.1927 38.5676 85.0781 39.0208ZM81.4635 43.5937L84.3229 34.1926H87.3281L90.1927 43.5937H87.5625L87.0989 41.5989H84.4687L84.0052 43.5937" fill="#1C1C1B"/>
<path d="M94.7187 43.7656C94.1249 43.7656 93.552 43.6667 93.0103 43.4688C92.4635 43.2708 91.9895 42.974 91.578 42.5729C91.1666 42.1719 90.8385 41.6719 90.5989 41.0677C90.3593 40.4688 90.2395 39.7656 90.2395 38.9635C90.2395 38.1771 90.3645 37.474 90.6145 36.8594C90.8645 36.25 91.1978 35.7344 91.6197 35.3125C92.0364 34.8958 92.5208 34.5729 93.0676 34.349C93.6145 34.1302 94.1822 34.0156 94.7812 34.0156C95.4062 34.0156 95.9687 34.1406 96.4583 34.3854C96.953 34.6354 97.3645 34.9271 97.703 35.2604L96.401 36.8542C96.1718 36.651 95.9322 36.4844 95.6874 36.3542C95.4374 36.224 95.1562 36.1563 94.8385 36.1563C94.5572 36.1563 94.2968 36.2188 94.052 36.349C93.8072 36.474 93.5885 36.651 93.401 36.8802C93.2135 37.1146 93.0624 37.401 92.953 37.7344C92.8385 38.0729 92.7864 38.4531 92.7864 38.875C92.7864 39.7656 92.9687 40.4479 93.3437 40.9167C93.7135 41.3906 94.203 41.625 94.8072 41.625C95.177 41.625 95.4999 41.5469 95.7864 41.3854C96.0676 41.2292 96.3124 41.0365 96.5155 40.8177L97.8176 42.375C97.4114 42.8438 96.9478 43.1875 96.4218 43.4167C95.8958 43.651 95.328 43.7656 94.7187 43.7656Z" fill="#1C1C1B"/>
<path d="M98.776 43.5937H101.26V34.1926H98.776V43.5937Z" fill="#1C1C1B"/>
<path d="M103.031 43.5937V34.1926H105.521V41.5103H109.078V43.5937" fill="#1C1C1B"/>
<path d="M110.188 43.5937V34.1926H116.266V36.276H112.677V37.7499H115.745V39.8333H112.677V41.5103H116.411V43.5937" fill="#1C1C1B"/>
<path d="M28.5624 26.0625C26.8697 28.5521 28.3072 31.8281 30.052 33.4896C31.6458 35 32.9218 35.3594 33.0885 35.401L33.901 33.8438L36.2447 40.2552L29.6197 41.599L30.4999 39.9688L29.6041 39.4635C26.8124 37.6458 26.2239 35.1771 26.0312 34.4063C25.6978 33.0781 25.203 29.1094 28.5624 26.0625Z" fill="#1C1C1B"/>
<path d="M28.5312 26.1718C29.7344 28.927 33.2708 29.4635 35.6042 28.8697C37.6771 28.3437 38.6615 27.4895 38.8281 27.3333L38.8177 27.3176L37.9323 25.7864L44.599 27.2395L42.1875 33.5572L41.2917 31.9687L40.4219 32.4374C37.3958 33.828 34.9896 33.0103 34.2344 32.7603C32.9375 32.3333 29.3125 30.6353 28.5312 26.1718Z" fill="#1C1C1B"/>
<path d="M40.3177 19.5156C39.8541 22.8125 37.8698 24.3958 37.25 24.8958C36.1875 25.7552 32.802 27.8854 28.6198 26.1354C31.5937 26.6094 33.9531 23.9271 34.7135 21.6406C35.401 19.5885 35.1979 18.2917 35.1562 18.0885H35.1354L33.3698 18.0104L38.1823 13.1719L42.2083 18.6094L40.3906 18.5052" fill="#1C1C1B"/>
<path fill-rule="evenodd" clip-rule="evenodd" d="M20.0938 16.7291C18.5729 16.7291 17.3438 15.4999 17.3438 13.9791C17.3438 12.4583 18.5729 11.2239 20.0938 11.2239C21.6146 11.2239 22.849 12.4583 22.849 13.9791C22.849 15.4999 21.6146 16.7291 20.0938 16.7291Z" fill="#1C1C1B"/>
<path d="M15.8333 30.1146C16.0677 29.4688 16.4167 29.5104 16.4167 29.5104C16.4167 29.5104 16.7344 29.4427 16.9115 30.0938L19.4844 39.125C17.3385 38.5052 15.3802 37.4375 13.7135 36.0313L15.8333 30.1146ZM23.8594 5.98438C13.9167 5.98438 5.82812 14.0729 5.82812 24.0208C5.82812 33.9583 13.9167 42.0521 23.8594 42.0521C24.3906 42.0521 24.9115 42.0156 25.4323 41.9688L25.5521 43.7813L28.8542 40.5885L25.1615 37.776L25.3021 39.6771C24.8281 39.7188 24.3438 39.75 23.8594 39.75C23.0938 39.75 22.3438 39.6927 21.6094 39.5885L21.5365 39.1094L19.8229 24.5104C19.5885 21.7552 21.1615 21.3125 22.1354 21.7292L27.6042 23.9219C28.2292 24.1927 28.5313 23.6719 28.5313 23.6719C28.5313 23.6719 28.8854 23.1198 28.25 22.7135C28.25 22.7135 20.7969 17.776 19.2083 17.4792C17.0417 17.0729 14.8958 18.8281 14.4219 21.1146L11.776 34.0833C9.5 31.349 8.125 27.8438 8.125 24.0208C8.125 15.3438 15.1823 8.28646 23.8594 8.28646C28.4948 8.28646 32.6667 10.3021 35.5469 13.4948L37.1615 11.8594C33.8646 8.25 29.1198 5.98438 23.8594 5.98438Z" fill="#1C1C1B"/>
<path d="M131.802 47.152H132.25C132.527 47.152 132.751 47.0907 132.922 46.968C133.093 46.8453 133.178 46.6187 133.178 46.288C133.178 46.1227 133.154 45.9867 133.106 45.88C133.063 45.768 133.002 45.68 132.922 45.616C132.847 45.5467 132.757 45.4987 132.65 45.472C132.543 45.4453 132.426 45.432 132.298 45.432H131.802V47.152ZM131.802 44.632H132.13C132.45 44.632 132.682 44.576 132.826 44.464C132.975 44.3467 133.05 44.152 133.05 43.88C133.05 43.608 132.983 43.416 132.85 43.304C132.717 43.192 132.506 43.136 132.218 43.136H131.802V44.632ZM130.65 42.288H132.578C132.813 42.288 133.029 42.312 133.226 42.36C133.429 42.408 133.602 42.488 133.746 42.6C133.89 42.712 134.002 42.8613 134.082 43.048C134.162 43.2347 134.202 43.464 134.202 43.736C134.202 44.0453 134.13 44.312 133.986 44.536C133.842 44.7547 133.626 44.904 133.338 44.984V45C133.658 45.0427 133.911 45.1787 134.098 45.408C134.285 45.6373 134.378 45.944 134.378 46.328C134.378 46.552 134.349 46.7653 134.29 46.968C134.231 47.1707 134.13 47.3493 133.986 47.504C133.847 47.6533 133.663 47.7733 133.434 47.864C133.21 47.9547 132.93 48 132.594 48H130.65V42.288ZM135.095 48V42.288H136.247V47.056H138.287V48H135.095ZM138.854 48V42.288H140.006V48H138.854ZM141.789 46.216V46.384C141.789 46.5173 141.8 46.64 141.821 46.752C141.842 46.8587 141.882 46.9493 141.941 47.024C142 47.0987 142.077 47.1573 142.173 47.2C142.274 47.2427 142.4 47.264 142.549 47.264C142.725 47.264 142.882 47.208 143.021 47.096C143.165 46.9787 143.237 46.8 143.237 46.56C143.237 46.432 143.218 46.3227 143.181 46.232C143.149 46.136 143.093 46.0507 143.013 45.976C142.933 45.9013 142.826 45.8347 142.693 45.776C142.565 45.712 142.405 45.648 142.213 45.584C141.957 45.4987 141.736 45.4053 141.549 45.304C141.362 45.2027 141.205 45.0853 141.077 44.952C140.954 44.8133 140.864 44.656 140.805 44.48C140.746 44.2987 140.717 44.0907 140.717 43.856C140.717 43.2907 140.874 42.8693 141.189 42.592C141.504 42.3147 141.936 42.176 142.485 42.176C142.741 42.176 142.976 42.2053 143.189 42.264C143.408 42.3173 143.594 42.408 143.749 42.536C143.909 42.6587 144.032 42.8187 144.117 43.016C144.208 43.208 144.253 43.44 144.253 43.712V43.872H143.149C143.149 43.6 143.101 43.392 143.005 43.248C142.909 43.0987 142.749 43.024 142.525 43.024C142.397 43.024 142.29 43.0427 142.205 43.08C142.12 43.1173 142.05 43.168 141.997 43.232C141.949 43.2907 141.914 43.36 141.893 43.44C141.877 43.52 141.869 43.6027 141.869 43.688C141.869 43.864 141.906 44.0133 141.981 44.136C142.056 44.2533 142.216 44.3627 142.461 44.464L143.349 44.848C143.568 44.944 143.746 45.0453 143.885 45.152C144.024 45.2533 144.133 45.3653 144.213 45.488C144.298 45.6053 144.357 45.736 144.389 45.88C144.421 46.024 144.437 46.184 144.437 46.36C144.437 46.9627 144.261 47.4027 143.909 47.68C143.562 47.952 143.077 48.088 142.453 48.088C141.802 48.088 141.336 47.9467 141.053 47.664C140.776 47.3813 140.637 46.976 140.637 46.448V46.216H141.789ZM148.353 42.288V43.232H147.105V48H145.953V43.232H144.705V42.288H148.353ZM152.045 42.288V43.232H150.005V44.576H151.925V45.52H150.005V47.056H152.125V48H148.853V42.288H152.045ZM152.705 42.288H154.833C155.313 42.288 155.686 42.4107 155.953 42.656C156.219 42.896 156.353 43.264 156.353 43.76C156.353 44.144 156.275 44.4587 156.121 44.704C155.966 44.944 155.726 45.0987 155.401 45.168V45.184C155.689 45.2267 155.899 45.32 156.033 45.464C156.166 45.608 156.249 45.84 156.281 46.16C156.291 46.2667 156.299 46.384 156.305 46.512C156.31 46.6347 156.315 46.7733 156.321 46.928C156.331 47.232 156.347 47.464 156.369 47.624C156.401 47.784 156.47 47.8933 156.577 47.952V48H155.329C155.27 47.92 155.233 47.8293 155.217 47.728C155.201 47.6213 155.19 47.512 155.185 47.4L155.153 46.304C155.142 46.08 155.086 45.904 154.985 45.776C154.883 45.648 154.713 45.584 154.473 45.584H153.857V48H152.705V42.288ZM153.857 44.784H154.337C154.614 44.784 154.827 44.72 154.977 44.592C155.126 44.4587 155.201 44.2373 155.201 43.928C155.201 43.4 154.934 43.136 154.401 43.136H153.857V44.784Z" fill="#1C1C1B"/>
<path d="M143.562 35.8102L128.361 18.1272L139.605 12.1654L154.692 28.1256L143.562 35.8102ZM155.971 27.9483C155.933 27.8005 155.849 27.6696 155.773 27.6063L140.264 11.1942C140.171 11.114 140.066 11.0591 139.935 11.0296C139.859 11.0084 139.778 11 139.652 11C139.567 11.0042 139.483 11.0169 139.398 11.0422C139.306 11.0633 139.225 11.0971 139.149 11.1393L127.546 17.2617C127.454 17.3081 127.373 17.3672 127.31 17.4221C127.226 17.4939 127.158 17.5783 127.116 17.6543C127.044 17.7726 127.006 17.8992 127.002 17.9921C126.989 18.1737 127.044 18.3468 127.166 18.4988L142.797 36.68C142.886 36.7898 143.004 36.8742 143.152 36.9333C143.258 36.9713 143.376 36.9924 143.503 36.9924C143.608 36.9924 143.739 36.9756 143.853 36.9376C143.963 36.9038 144.068 36.8573 144.182 36.7813L155.557 28.9194C155.658 28.8561 155.743 28.7759 155.819 28.6788C155.895 28.5774 155.946 28.4719 155.975 28.3579C156.009 28.2185 156.009 28.075 155.971 27.9483Z" fill="#1C1C1B"/>
<path d="M141.869 16.5186C141.915 16.5693 141.932 16.6242 141.945 16.6833C141.949 16.7044 141.957 16.7213 141.961 16.7424C141.97 16.8184 141.949 16.9071 141.907 17C141.856 17.1182 141.771 17.2406 141.657 17.3546C141.531 17.4855 141.375 17.5995 141.193 17.7009C141.007 17.8064 140.813 17.8867 140.606 17.9415C140.513 17.9669 140.42 17.9838 140.332 17.9964C140.15 18.0218 140.028 18.1907 140.053 18.368C140.078 18.5327 140.218 18.6509 140.378 18.6509C140.395 18.6509 140.412 18.6467 140.425 18.6467C140.543 18.6298 140.657 18.6044 140.775 18.5749C141.033 18.5031 141.282 18.4018 141.514 18.2751C141.708 18.1653 141.881 18.0344 142.033 17.8951C141.999 18.0218 141.957 18.1147 141.911 18.1527C141.902 18.1611 140.982 18.9296 140.078 18.9338C139.757 18.9211 139.593 18.786 139.031 18.216C138.085 17.2702 137.013 16.0837 136.933 15.8684C136.954 15.4799 137.064 14.9522 137.106 14.8593C137.156 14.7495 137.249 14.6355 137.359 14.5299C137.49 14.4117 137.646 14.3019 137.819 14.209C137.997 14.1119 138.187 14.0401 138.381 13.9895C138.567 13.9388 138.748 13.9135 138.926 13.9135C139.12 13.9135 139.242 13.9304 139.365 13.9726C139.479 14.0106 139.567 14.0613 139.627 14.1246L141.869 16.5186ZM138.917 13.259C138.689 13.259 138.453 13.2928 138.216 13.3561C137.971 13.4195 137.735 13.5124 137.511 13.6306C137.287 13.753 137.085 13.8924 136.916 14.0528C136.743 14.2133 136.612 14.3864 136.519 14.5637C136.405 14.7875 136.299 15.4715 136.278 15.8304C136.27 15.9613 136.249 16.3624 138.567 18.6804C139.111 19.2336 139.441 19.5629 140.045 19.5882L140.133 19.5925C141.223 19.5798 142.291 18.6931 142.337 18.6509C142.768 18.2836 142.852 17.3589 142.557 16.4342C142.536 16.3793 142.515 16.3286 142.485 16.278C142.477 16.2653 142.468 16.2484 142.455 16.2357C142.422 16.1808 142.392 16.1217 142.346 16.0753L140.104 13.677C139.969 13.5292 139.787 13.4195 139.567 13.3477C139.373 13.2886 139.149 13.2548 138.917 13.259Z" fill="#1C1C1B"/>
<path d="M137.203 15.121C137.068 15.2434 137.055 15.4503 137.178 15.5854L139.048 17.667C139.111 17.7388 139.2 17.7768 139.289 17.7768C139.369 17.7768 139.445 17.7515 139.508 17.6923C139.643 17.5741 139.656 17.363 139.534 17.2321L137.663 15.1463C137.541 15.0112 137.338 15.0027 137.203 15.121Z" fill="#1C1C1B"/>
<path d="M134.927 21.94C134.606 21.9231 134.442 21.7922 133.88 21.2222C132.934 20.2764 131.862 19.0857 131.781 18.8704C131.803 18.4819 131.908 17.9541 131.95 17.8655C132.005 17.7515 132.098 17.6375 132.212 17.5319C132.339 17.4137 132.495 17.3039 132.668 17.211C132.845 17.1181 133.035 17.0421 133.23 16.9914C133.415 16.945 133.597 16.9197 133.774 16.9154C133.969 16.9239 134.091 16.9366 134.214 16.9788C134.328 17.0126 134.416 17.0632 134.475 17.1266L136.717 19.5248C136.76 19.5713 136.776 19.6262 136.793 19.6853C136.798 19.7064 136.806 19.7275 136.81 19.7486C136.814 19.8246 136.798 19.9133 136.755 20.0062C136.709 20.1202 136.62 20.2426 136.506 20.3608C136.38 20.4875 136.223 20.6057 136.042 20.7071C135.86 20.8084 135.662 20.8886 135.455 20.9435C135.362 20.9688 135.273 20.99 135.18 21.0026C134.999 21.028 134.876 21.1926 134.902 21.3742C134.927 21.5346 135.066 21.6529 135.227 21.6529C135.244 21.6529 135.261 21.6529 135.278 21.6486C135.392 21.6317 135.51 21.6064 135.628 21.5769C135.881 21.5051 136.135 21.408 136.363 21.2771C136.557 21.1673 136.73 21.0406 136.878 20.9013C136.848 21.028 136.806 21.1208 136.76 21.1588C136.747 21.1673 135.831 21.9315 134.927 21.94ZM137.414 19.4742C137.393 19.4066 137.368 19.339 137.334 19.2799C137.321 19.2673 137.317 19.2546 137.304 19.2419C137.27 19.187 137.241 19.1279 137.194 19.0773L134.952 16.6832C134.817 16.5354 134.636 16.4214 134.416 16.3539C134.226 16.2905 134.002 16.2694 133.766 16.261C133.538 16.2652 133.301 16.299 133.065 16.3581C132.816 16.4214 132.584 16.5143 132.36 16.6325C132.136 16.755 131.933 16.8943 131.765 17.0548C131.591 17.2152 131.461 17.3883 131.368 17.5657C131.254 17.7895 131.148 18.4777 131.127 18.8324C131.119 18.9633 131.097 19.3644 133.416 21.6824C133.96 22.2355 134.29 22.5691 134.902 22.5902L134.982 22.5944C136.088 22.586 137.14 21.6951 137.186 21.6571C137.608 21.2897 137.697 20.3862 137.414 19.4742Z" fill="#1C1C1B"/>
<path d="M132.512 18.1526C132.394 18.0175 132.183 18.0048 132.052 18.1273C131.917 18.2497 131.904 18.4524 132.026 18.5875L133.893 20.6733C133.96 20.7451 134.049 20.7789 134.137 20.7789C134.213 20.7789 134.294 20.7536 134.357 20.6944C134.492 20.5762 134.501 20.3693 134.382 20.2342" fill="#1C1C1B"/>
<path d="M142.928 19.3434C143.114 19.2969 143.296 19.2716 143.473 19.2716C143.633 19.2758 143.785 19.2885 143.912 19.3307C144.022 19.3645 144.115 19.4194 144.17 19.4785L146.416 21.881C146.458 21.9232 146.475 21.9781 146.488 22.033C146.496 22.0541 146.5 22.0794 146.509 22.1005C146.513 22.1807 146.496 22.2652 146.454 22.3581C146.403 22.4763 146.315 22.5987 146.201 22.7128C146.078 22.8394 145.922 22.9576 145.74 23.059C145.555 23.1603 145.36 23.2405 145.153 23.2954C145.061 23.3208 144.968 23.3419 144.879 23.3545C144.697 23.3799 144.575 23.5445 144.6 23.7261C144.626 23.8908 144.765 24.0048 144.925 24.0048C144.942 24.0048 144.955 24.0048 144.972 24.0048C145.09 23.9879 145.204 23.9625 145.322 23.933C145.58 23.8612 145.829 23.7599 146.061 23.629C146.26 23.5192 146.429 23.3925 146.576 23.2532C146.547 23.3799 146.5 23.4728 146.454 23.5108C146.445 23.5192 145.529 24.2877 144.621 24.2919C144.305 24.2792 144.14 24.1441 143.578 23.5741C142.633 22.6283 141.56 21.4418 141.48 21.2223C141.501 20.8381 141.607 20.3103 141.649 20.2174C141.704 20.1076 141.797 19.9936 141.906 19.8838C142.037 19.7656 142.194 19.6558 142.367 19.5629C142.544 19.47 142.734 19.394 142.928 19.3434ZM142.058 18.9845C141.835 19.1069 141.632 19.2462 141.459 19.4067C141.29 19.5671 141.159 19.7403 141.062 19.9218C140.952 20.1456 140.847 20.8296 140.826 21.1843C140.817 21.3152 140.792 21.7163 143.114 24.0343C143.659 24.5917 143.988 24.9252 144.588 24.9463H144.681C145.787 24.9379 146.838 24.047 146.885 24.009C147.311 23.6417 147.395 22.7212 147.104 21.8007C147.083 21.7458 147.062 21.691 147.037 21.6403C147.024 21.6234 147.015 21.6065 147.003 21.5938C146.969 21.539 146.939 21.4798 146.893 21.4334L144.651 19.0309C144.516 18.8874 144.334 18.7776 144.115 18.7058C143.92 18.6425 143.714 18.6087 143.464 18.6129C143.236 18.6171 143 18.6509 142.764 18.71C142.519 18.7776 142.278 18.8705 142.058 18.9845Z" fill="#1C1C1B"/>
<path d="M141.75 20.4791C141.615 20.6016 141.602 20.8085 141.725 20.9436L143.591 23.0252C143.659 23.0969 143.747 23.1349 143.836 23.1349C143.916 23.1349 143.992 23.1096 144.056 23.0505C144.191 22.9323 144.199 22.7212 144.081 22.5903L142.211 20.5045C142.088 20.3693 141.881 20.3609 141.75 20.4791Z" fill="#1C1C1B"/>
<path d="M139.47 27.2939C139.154 27.2812 138.989 27.1503 138.423 26.5803C137.482 25.6345 136.405 24.4439 136.325 24.2285C136.35 23.8612 136.451 23.3249 136.498 23.2236C136.553 23.1096 136.641 22.9956 136.76 22.8901C136.882 22.7718 137.034 22.6663 137.211 22.5692C137.389 22.4763 137.579 22.4003 137.777 22.3496C137.959 22.3032 138.14 22.2778 138.318 22.2736C138.52 22.2694 138.638 22.2947 138.761 22.3327C138.875 22.3707 138.959 22.4214 139.018 22.4847L141.265 24.883C141.307 24.9294 141.32 24.9801 141.337 25.035C141.345 25.0603 141.349 25.0814 141.358 25.1068C141.362 25.1828 141.345 25.2714 141.303 25.3643C141.252 25.4825 141.168 25.6008 141.054 25.719C140.927 25.8457 140.771 25.9597 140.589 26.061C140.403 26.1666 140.209 26.2468 140.002 26.3017C139.909 26.327 139.817 26.3439 139.728 26.3608C139.546 26.3861 139.424 26.5508 139.449 26.7281C139.47 26.8928 139.614 27.011 139.774 27.011C139.787 27.011 139.804 27.0068 139.821 27.0068C139.935 26.9899 140.053 26.9646 140.171 26.935C140.429 26.8632 140.678 26.7661 140.906 26.6352C141.104 26.5254 141.273 26.3988 141.425 26.2594C141.396 26.3819 141.353 26.4748 141.307 26.517C141.054 26.7323 140.239 27.2897 139.47 27.2939ZM141.961 24.845C141.94 24.7732 141.915 24.7014 141.873 24.6339C141.869 24.6212 141.86 24.6085 141.852 24.6001C141.818 24.5452 141.788 24.4861 141.742 24.4354L139.5 22.0371C139.36 21.8894 139.183 21.7796 138.964 21.712C138.774 21.6487 138.546 21.6191 138.313 21.6191C138.077 21.6234 137.845 21.6529 137.612 21.7163C137.363 21.7796 137.127 21.8725 136.907 21.9907H136.903C136.675 22.1131 136.477 22.2567 136.308 22.4129C136.139 22.5692 136.008 22.7423 135.915 22.9238C135.801 23.1434 135.696 23.8316 135.674 24.1905C135.666 24.3214 135.641 24.7225 137.963 27.0406C138.508 27.5937 138.837 27.9272 139.445 27.9484L139.529 27.9526C140.627 27.9441 141.687 27.0532 141.729 27.011C142.156 26.6521 142.244 25.7528 141.961 24.845Z" fill="#1C1C1B"/>
<path d="M137.059 23.5107C136.937 23.3755 136.73 23.3629 136.595 23.4853C136.464 23.6035 136.451 23.8104 136.574 23.9456L138.44 26.0271C138.503 26.0989 138.596 26.1369 138.685 26.1369C138.761 26.1369 138.841 26.1116 138.9 26.0525C139.035 25.9343 139.048 25.7274 138.926 25.5922" fill="#1C1C1B"/>
<path d="M147.476 24.7014C147.662 24.655 147.843 24.6296 148.016 24.6254C148.177 24.6254 148.337 24.6465 148.46 24.6887C148.569 24.7225 148.658 24.7732 148.717 24.8365L150.959 27.2348C151.006 27.2812 151.023 27.3403 151.039 27.3995C151.044 27.4163 151.048 27.4375 151.056 27.4543C151.061 27.5346 151.044 27.6232 151.001 27.7161C150.951 27.8343 150.862 27.9568 150.752 28.0708C150.621 28.1975 150.465 28.3157 150.284 28.417C150.102 28.5184 149.904 28.5986 149.701 28.6535C149.608 28.6788 149.515 28.6999 149.422 28.7126C149.245 28.7379 149.123 28.9026 149.148 29.0841C149.169 29.2446 149.313 29.3628 149.469 29.3628C149.486 29.3628 149.503 29.3628 149.519 29.3586C149.633 29.3417 149.752 29.3206 149.87 29.2868C150.127 29.2193 150.377 29.1179 150.605 28.987C150.803 28.8773 150.972 28.7506 151.124 28.6112C151.094 28.7379 151.048 28.8308 151.001 28.8688C150.752 29.0841 149.933 29.6457 149.169 29.6499C148.852 29.6373 148.688 29.5022 148.122 28.9321C147.176 27.9864 146.104 26.7999 146.023 26.5803C146.044 26.2172 146.15 25.6768 146.196 25.5754C146.251 25.4656 146.34 25.3516 146.454 25.2419C146.581 25.1279 146.733 25.0181 146.91 24.921C147.087 24.8281 147.277 24.7521 147.476 24.7014ZM146.602 24.3425C146.374 24.4692 146.175 24.6085 146.006 24.7647C145.833 24.9252 145.702 25.0983 145.61 25.2799C145.5 25.4994 145.394 26.1834 145.369 26.5423C145.365 26.6732 145.339 27.0743 147.657 29.3924C148.206 29.9455 148.536 30.2791 149.139 30.3044H149.228C150.322 30.2959 151.381 29.405 151.428 29.367C151.859 28.9955 151.947 28.0708 151.643 27.1419C151.626 27.0912 151.605 27.0406 151.576 26.9899C151.567 26.9772 151.563 26.9646 151.55 26.9519C151.517 26.897 151.487 26.8379 151.441 26.7872L149.194 24.389C149.059 24.2454 148.878 24.1356 148.662 24.0638C148.468 24.0005 148.244 23.9752 148.012 23.9709C147.784 23.9752 147.543 24.0089 147.307 24.0681C147.066 24.1314 146.826 24.2243 146.602 24.3425Z" fill="#1C1C1B"/>
<path d="M146.294 25.8372C146.158 25.9596 146.15 26.1665 146.268 26.3016L148.139 28.3832C148.202 28.455 148.295 28.493 148.384 28.493C148.46 28.493 148.536 28.4634 148.603 28.4085C148.734 28.2861 148.747 28.0792 148.624 27.9441L146.758 25.8625C146.636 25.7274 146.429 25.7189 146.294 25.8372Z" fill="#1C1C1B"/>
<path d="M144.018 32.6519C143.701 32.6393 143.536 32.5042 142.971 31.9341C142.025 30.9884 140.952 29.8019 140.872 29.5866C140.897 29.2192 140.999 28.6788 141.045 28.5774C141.1 28.4676 141.189 28.3536 141.303 28.2481C141.429 28.1256 141.586 28.0201 141.759 27.9272C141.94 27.8301 142.126 27.7583 142.32 27.7076C142.506 27.657 142.692 27.6316 142.865 27.6316C143.038 27.6316 143.182 27.6485 143.308 27.6907C143.422 27.7245 143.507 27.7752 143.566 27.8427L145.808 30.2368C145.854 30.2875 145.871 30.3423 145.884 30.3972C145.892 30.4183 145.897 30.4395 145.905 30.4606C145.909 30.5408 145.892 30.6295 145.85 30.7181C145.8 30.8364 145.711 30.963 145.597 31.077C145.474 31.1995 145.318 31.3177 145.137 31.419C144.951 31.5246 144.752 31.6006 144.55 31.6597C144.457 31.685 144.364 31.7019 144.275 31.7146C144.094 31.7399 143.971 31.9046 143.997 32.0862C144.018 32.2466 144.157 32.3648 144.318 32.3648C144.334 32.3648 144.351 32.3648 144.364 32.3648C144.482 32.3479 144.6 32.3226 144.719 32.293C144.976 32.2213 145.225 32.1199 145.458 31.9933C145.652 31.8793 145.825 31.7526 145.973 31.6133C145.943 31.7399 145.897 31.8328 145.85 31.8708C145.842 31.8793 144.921 32.6477 144.018 32.6519ZM146.424 29.9919C146.416 29.9792 146.408 29.9666 146.399 29.9581C146.365 29.9032 146.336 29.8441 146.285 29.7934L144.047 27.3952C143.908 27.2474 143.731 27.1376 143.511 27.0658C143.317 27.0067 143.093 26.9814 142.857 26.9772C142.629 26.9772 142.392 27.011 142.156 27.0743C141.915 27.1376 141.679 27.2263 141.455 27.3487H141.451C141.227 27.4712 141.024 27.6105 140.855 27.7667C140.686 27.9272 140.551 28.1003 140.458 28.2819C140.349 28.5014 140.243 29.1897 140.222 29.5486C140.213 29.6794 140.188 30.0806 142.506 32.3986C143.055 32.9517 143.384 33.2853 143.984 33.3064H144.077C145.179 33.2979 146.23 32.407 146.277 32.369C146.707 32.0059 146.792 31.0897 146.5 30.1735C146.479 30.1101 146.458 30.051 146.424 29.9919Z" fill="#1C1C1B"/>
<path d="M141.603 28.8645C141.484 28.7294 141.277 28.721 141.142 28.8434C141.007 28.9617 140.995 29.1685 141.117 29.3037L142.988 31.3852C143.051 31.457 143.144 31.495 143.232 31.495C143.308 31.495 143.389 31.4655 143.448 31.4106C143.583 31.2924 143.596 31.0855 143.473 30.9504" fill="#1C1C1B"/>
</g>
<defs>
<clipPath id="clip0_46_582">
<rect width="227" height="61" fill="white"/>
</clipPath>
</defs>
</svg>
