<svg width="240" height="61" viewBox="0 0 240 61" fill="none" xmlns="http://www.w3.org/2000/svg">
<g clip-path="url(#clip0_79_990)">
<path d="M24.6979 60.4688C11.0781 60.4688 0 49.5208 0 36.0625V0H214.948C228.563 0 239.641 10.9479 239.641 24.4062V60.4688" fill="white"/>
<path d="M222.083 52.9114H69.1353C59.6874 52.9114 51.9999 45.3541 51.9999 36.0625V7.55725H204.948C214.396 7.55725 222.083 15.1145 222.083 24.4062V52.9114ZM204.948 5.66663H50.1145V36.0625C50.1145 46.3958 58.6458 54.802 69.1353 54.802H223.969V24.4062C223.969 14.0729 215.437 5.66663 204.948 5.66663Z" fill="#6B5B4A"/>
<path d="M176.714 54.802L189.724 28.2239L176.432 5.66663H214.948C225.437 5.66663 233.969 14.0729 233.969 24.4062V54.802" fill="#6B5B4A"/>
<path d="M102.901 5.66663H50.1145V36.0625C50.1145 46.3958 58.6458 54.802 69.1353 54.802H121.927V24.4062C121.927 14.0729 113.391 5.66663 102.901 5.66663Z" fill="#6B5B4A"/>
<path d="M63.651 29.3594C58.8489 29.3594 54.9583 33.25 54.9583 38.0521C54.9583 42.8542 58.8489 46.7448 63.651 46.7448C68.4583 46.7448 72.3489 42.8542 72.3489 38.0521C72.3489 33.25 68.4583 29.3594 63.651 29.3594Z" fill="white"/>
<path d="M69.3229 39.4688H65.0729V43.7188H62.2344V39.4688H57.9844V36.6355H62.2344V32.3802H65.0729V36.6355H69.3229" fill="#1C1C1B"/>
<path d="M55.7864 26.5937V17.1979H58.2708V24.5156H61.828V26.5937" fill="white"/>
<path d="M62.9426 26.5937V17.1979H69.0155V19.276H65.4322V20.7552H68.4947V22.8385H65.4322V24.5156H69.1614V26.5937" fill="white"/>
<path d="M75.0885 26.5937V19.276H72.6041V17.1979H80.0677V19.276H77.5781V26.5937" fill="white"/>
<path d="M83.5521 21.4739H84.4479C85.4479 21.4739 85.9531 21.0625 85.9531 20.2343C85.9531 19.8281 85.8229 19.5468 85.5677 19.3958C85.3125 19.2395 84.9375 19.1614 84.4479 19.1614H83.5521V21.4739ZM81.0625 26.5989V17.1979H84.6198C85.125 17.1979 85.6042 17.2448 86.0625 17.3385C86.5208 17.4375 86.9167 17.5989 87.2604 17.8333C87.6042 18.0625 87.875 18.375 88.0781 18.7656C88.2813 19.1562 88.3802 19.6458 88.3802 20.2343C88.3802 20.9062 88.2448 21.4687 87.9688 21.9114C87.6979 22.3541 87.3281 22.6979 86.8646 22.9531L88.901 26.5989H86.125L84.5052 23.4427H83.5521V26.5989" fill="white"/>
<path d="M89.8698 26.5989H92.3593V17.1979H89.8698V26.5989Z" fill="white"/>
<path d="M75.3801 43.276V33.8698H81.5103V35.9531H77.8697V37.75H80.9895V39.8333H77.8697V43.276" fill="white"/>
<path d="M84.9218 38.7031L84.7604 39.3541H86.4948L86.3385 38.7031C86.2239 38.25 86.1041 37.7604 85.9895 37.2291C85.875 36.6979 85.7604 36.1979 85.6406 35.7239H85.5833C85.4791 36.2031 85.3698 36.7083 85.2604 37.2343C85.151 37.7604 85.0364 38.25 84.9218 38.7031ZM81.3073 43.276L84.1666 33.8698H87.1718L90.0364 43.276H87.4062L86.9427 41.276H84.3125L83.8489 43.276" fill="white"/>
<path d="M94.5624 43.4479C93.9687 43.4479 93.3958 43.3489 92.8541 43.151C92.3072 42.9531 91.8333 42.651 91.4218 42.2552C91.0103 41.8541 90.6822 41.3541 90.4426 40.75C90.203 40.1458 90.0833 39.4479 90.0833 38.6458C90.0833 37.8541 90.2083 37.151 90.4583 36.5416C90.7083 35.927 91.0416 35.4114 91.4635 34.9948C91.8801 34.5729 92.3645 34.25 92.9114 34.0312C93.4583 33.8073 94.026 33.6979 94.6249 33.6979C95.2499 33.6979 95.8124 33.8229 96.302 34.0677C96.7968 34.3125 97.2083 34.6041 97.5468 34.9427L96.2447 36.5312C96.0155 36.3333 95.776 36.1666 95.5312 36.0312C95.2812 35.9062 94.9999 35.8385 94.6822 35.8385C94.401 35.8385 94.1405 35.901 93.8958 36.026C93.651 36.151 93.4322 36.3333 93.2447 36.5625C93.0572 36.7916 92.9062 37.0781 92.7968 37.4166C92.6822 37.75 92.6301 38.1354 92.6301 38.5573C92.6301 39.4479 92.8124 40.125 93.1874 40.5989C93.5572 41.0677 94.0468 41.3073 94.651 41.3073C95.0208 41.3073 95.3437 41.2291 95.6301 41.0677C95.9114 40.9062 96.1562 40.7187 96.3593 40.4948L97.6614 42.0573C97.2551 42.5208 96.7916 42.8698 96.2655 43.0989C95.7395 43.3333 95.1718 43.4479 94.5624 43.4479Z" fill="white"/>
<path d="M98.6198 43.276H101.104V33.8698H98.6198V43.276Z" fill="white"/>
<path d="M102.875 43.276V33.8698H105.365V41.1927H108.922V43.276" fill="white"/>
<path d="M110.031 43.276V33.8698H116.109V35.9531H112.521V37.4323H115.589V39.5156H112.521V41.1927H116.255V43.276" fill="white"/>
<path d="M28.4062 25.7448C26.7135 28.2343 28.151 31.5104 29.8958 33.1718C31.4895 34.6823 32.7655 35.0364 32.9322 35.0781L33.7447 33.5208L36.0885 39.9323L29.4635 41.2812L30.3437 39.6458L29.4478 39.1458C26.6562 37.3281 26.0676 34.8593 25.8749 34.0885C25.5416 32.7604 25.0468 28.7864 28.4062 25.7448Z" fill="#6B5B4A"/>
<path d="M28.375 25.8489C29.5781 28.6093 33.1146 29.1406 35.4479 28.552C37.5208 28.026 38.5052 27.1718 38.6719 27.0156L38.6615 27L37.776 25.4635L44.4427 26.9218L42.0313 33.2395L41.1354 31.6458L40.2656 32.1198C37.2396 33.5104 34.8333 32.6927 34.0781 32.4427C32.7813 32.0156 29.1562 30.3125 28.375 25.8489Z" fill="#6B5B4A"/>
<path d="M40.1613 19.1927C39.6978 22.4895 37.7134 24.0729 37.0936 24.5729C36.0311 25.4375 32.6457 27.5677 28.4634 25.8177C31.4373 26.2916 33.7967 23.6041 34.5571 21.3177C35.2446 19.2656 35.0415 17.9687 34.9998 17.7708L34.979 17.7656L33.2134 17.6927L38.0259 12.8541L42.0519 18.2864L40.2342 18.1823" fill="#6B5B4A"/>
<path fill-rule="evenodd" clip-rule="evenodd" d="M19.9375 16.4115C18.4167 16.4115 17.1875 15.1823 17.1875 13.6563C17.1875 12.1354 18.4167 10.9062 19.9375 10.9062C21.4583 10.9062 22.6927 12.1354 22.6927 13.6563C22.6927 15.1823 21.4583 16.4115 19.9375 16.4115Z" fill="#6B5B4A"/>
<path d="M15.6771 29.7968C15.9115 29.151 16.2604 29.1927 16.2604 29.1927C16.2604 29.1927 16.5781 29.125 16.7552 29.7708L19.3281 38.8073C17.1823 38.1823 15.224 37.1198 13.5573 35.7083L15.6771 29.7968ZM23.7031 5.66663C13.7604 5.66663 5.67188 13.7552 5.67188 23.6979C5.67188 33.6406 13.7604 41.7291 23.7031 41.7291C24.2344 41.7291 24.7552 41.6979 25.276 41.651L25.3958 43.4635L28.6979 40.2708L25.0052 37.4531L25.1458 39.3541C24.6719 39.401 24.1875 39.4323 23.7031 39.4323C22.9375 39.4323 22.1875 39.375 21.4531 39.2656L21.3802 38.7864L19.6667 24.1875C19.4323 21.4323 21.0052 20.9948 21.9792 21.4062L27.4479 23.6041C28.0729 23.875 28.375 23.3489 28.375 23.3489C28.375 23.3489 28.7292 22.802 28.0938 22.3958C28.0938 22.3958 20.6406 17.4583 19.0521 17.1562C16.8854 16.7552 14.7396 18.5104 14.2656 20.7968L11.6198 33.7604C9.34375 31.0312 7.96875 27.5208 7.96875 23.6979C7.96875 15.0208 15.026 7.9635 23.7031 7.9635C28.3385 7.9635 32.5104 9.97913 35.3906 13.177L37.0052 11.5364C33.7083 7.93225 28.9635 5.66663 23.7031 5.66663Z" fill="#6B5B4A"/>
<path fill-rule="evenodd" clip-rule="evenodd" d="M205.184 13.5477C202.848 13.829 200.995 15.7189 200.697 18.1033L200.693 18.1036L200.569 18.8693C200.562 18.8856 200.558 18.9007 200.558 18.914C200.554 18.9403 200.549 18.9665 200.545 18.9927C200.517 19.164 200.489 19.3314 200.515 19.5044L200.513 21.0954C197.452 24.2948 196.633 27.1159 197.139 29.2647C197.309 29.9622 197.62 30.6156 198.051 31.1832C198.482 31.7508 199.024 32.2202 199.642 32.5614C199.922 32.7258 200.213 32.8682 200.513 32.9874L200.511 34.7847L200.513 34.8477C200.49 35.4096 200.562 35.9713 200.728 36.5076C200.955 37.0944 201.311 37.6198 201.769 38.0432C202.048 38.3281 202.352 38.5852 202.679 38.8111C203.03 39.056 203.399 39.2719 203.783 39.4567C205.887 40.4919 208.644 41.0038 211.334 41C214.024 40.9962 216.734 40.4594 218.81 39.4032C219.316 39.1492 219.791 38.8357 220.226 38.4692C220.646 38.115 221.01 37.6961 221.304 37.2276C221.888 36.2837 221.886 35.9049 221.883 35.0104L221.882 35.0005L221.886 20.0602C221.956 19.8477 221.995 19.6255 222 19.4012C222 19.1676 221.963 18.942 221.893 18.7249C221.348 16.0509 219.424 14.0935 216.857 13.6116C215.861 11.4138 213.535 10 211.006 10C208.502 10 206.195 11.3865 205.184 13.5477ZM211.245 22.4255C207.72 22.4255 204.58 21.643 202.551 20.4235C202.188 19.5805 202.237 18.5859 202.269 18.2929C202.501 16.5087 203.988 15.1323 205.789 15.1323C205.966 15.1323 206.14 15.1455 206.309 15.1711C206.711 13.1523 208.661 11.6207 211.006 11.6207C213.336 11.6207 215.276 13.1331 215.695 15.1331C215.723 15.1326 215.75 15.1323 215.778 15.1323C218.041 15.1323 220.03 16.9544 220.478 19.3712C220.47 19.8542 220.363 20.1051 220.276 20.2103C218.268 21.5511 214.971 22.4255 211.245 22.4255ZM198.668 28.8903C198.352 27.5052 198.811 25.6874 200.508 23.5283L200.506 31.2072L200.426 31.1594C199.996 30.9258 199.618 30.6036 199.315 30.2131C199.013 29.8226 198.793 29.3722 198.668 28.8903ZM220.224 21.9951C219.664 22.3566 219.068 22.6569 218.447 22.8909C216.551 23.6243 213.985 24.0942 211.196 24.0961C208.758 24.1265 206.334 23.6966 204.048 22.8278C203.386 22.5663 202.756 22.2272 202.17 21.8174L202.168 31.7898C202.702 31.8871 203.246 31.9179 203.787 31.8814C206.341 31.7229 209.114 30.128 210.476 26.6441C210.556 26.4477 210.709 26.2916 210.901 26.2096C211.093 26.1276 211.309 26.1262 211.502 26.2057C211.694 26.2853 211.849 26.4394 211.932 26.6348C212.015 26.8301 212.019 27.051 211.944 27.2496C210.321 31.3982 206.973 33.3025 203.876 33.505C203.304 33.5419 202.729 33.5188 202.16 33.4362L202.168 34.8458C202.149 35.212 202.187 35.579 202.282 35.9326C202.432 36.2819 202.655 36.5935 202.934 36.8456C203.143 37.0558 203.369 37.2457 203.612 37.4129C203.893 37.6103 204.188 37.7852 204.496 37.9363C206.369 38.8569 208.836 39.3249 211.323 39.3077C213.809 39.2905 216.236 38.834 218.073 37.8885C218.463 37.694 218.83 37.4543 219.167 37.1742C219.454 36.9324 219.703 36.6463 219.905 36.3261C220.166 35.9455 220.281 35.4797 220.228 35.0177C220.227 35.0076 220.227 34.9649 220.227 34.918C220.227 34.8501 220.226 34.7732 220.224 34.7732L220.224 21.9951Z" fill="white"/>
<path d="M199.562 50.9442C199.054 50.9442 198.665 50.7996 198.395 50.5102C198.132 50.2209 198 49.8126 198 49.2853V45.6589C198 45.1317 198.132 44.7234 198.395 44.434C198.665 44.1447 199.054 44 199.562 44C200.07 44 200.456 44.1447 200.72 44.434C200.99 44.7234 201.125 45.1317 201.125 45.6589V46.3726H200.122V45.5914C200.122 45.1734 199.945 44.9645 199.591 44.9645C199.238 44.9645 199.061 45.1734 199.061 45.5914V49.3625C199.061 49.774 199.238 49.9798 199.591 49.9798C199.945 49.9798 200.122 49.774 200.122 49.3625V48.3305H201.125V49.2853C201.125 49.8126 200.99 50.2209 200.72 50.5102C200.456 50.7996 200.07 50.9442 199.562 50.9442Z" fill="white"/>
<path d="M203.312 50.9442C202.791 50.9442 202.393 50.7963 202.116 50.5006C201.84 50.2048 201.701 49.7869 201.701 49.2468V45.6975C201.701 45.1574 201.84 44.7394 202.116 44.4437C202.393 44.1479 202.791 44 203.312 44C203.833 44 204.231 44.1479 204.508 44.4437C204.784 44.7394 204.923 45.1574 204.923 45.6975V49.2468C204.923 49.7869 204.784 50.2048 204.508 50.5006C204.231 50.7963 203.833 50.9442 203.312 50.9442ZM203.312 49.9798C203.679 49.9798 203.862 49.7579 203.862 49.3143V45.63C203.862 45.1863 203.679 44.9645 203.312 44.9645C202.946 44.9645 202.762 45.1863 202.762 45.63V49.3143C202.762 49.7579 202.946 49.9798 203.312 49.9798Z" fill="white"/>
<path d="M205.64 44.0964H207.154L207.83 48.9285H207.849L208.524 44.0964H210.038V50.8478H209.035V45.7361H209.016L208.244 50.8478H207.357L206.585 45.7361H206.566V50.8478H205.64V44.0964Z" fill="white"/>
<path d="M210.83 44.0964H212.392C212.92 44.0964 213.315 44.2379 213.579 44.5208C213.842 44.8037 213.974 45.2185 213.974 45.765V46.4305C213.974 46.977 213.842 47.3917 213.579 47.6747C213.315 47.9576 212.92 48.099 212.392 48.099H211.891V50.8478H210.83V44.0964ZM212.392 47.1345C212.566 47.1345 212.695 47.0863 212.778 46.9899C212.868 46.8934 212.913 46.7295 212.913 46.498V45.6975C212.913 45.466 212.868 45.302 212.778 45.2056C212.695 45.1091 212.566 45.0609 212.392 45.0609H211.891V47.1345H212.392Z" fill="white"/>
<path d="M216.084 50.9442C215.563 50.9442 215.164 50.7963 214.888 50.5006C214.611 50.2048 214.473 49.7869 214.473 49.2468V45.6975C214.473 45.1574 214.611 44.7394 214.888 44.4437C215.164 44.1479 215.563 44 216.084 44C216.605 44 217.003 44.1479 217.28 44.4437C217.556 44.7394 217.694 45.1574 217.694 45.6975V49.2468C217.694 49.7869 217.556 50.2048 217.28 50.5006C217.003 50.7963 216.605 50.9442 216.084 50.9442ZM216.084 49.9798C216.45 49.9798 216.634 49.7579 216.634 49.3143V45.63C216.634 45.1863 216.45 44.9645 216.084 44.9645C215.717 44.9645 215.534 45.1863 215.534 45.63V49.3143C215.534 49.7579 215.717 49.9798 216.084 49.9798Z" fill="white"/>
<path d="M219.791 50.9442C219.277 50.9442 218.888 50.7996 218.624 50.5102C218.361 50.2144 218.229 49.7933 218.229 49.2468V48.861H219.232V49.3239C219.232 49.7611 219.415 49.9798 219.782 49.9798C219.962 49.9798 220.097 49.9283 220.187 49.8254C220.283 49.7161 220.331 49.5425 220.331 49.3046C220.331 49.0217 220.267 48.7742 220.138 48.562C220.01 48.3434 219.772 48.083 219.425 47.7807C218.987 47.395 218.682 47.0477 218.508 46.7391C218.335 46.4241 218.248 46.0704 218.248 45.6782C218.248 45.1445 218.383 44.733 218.653 44.4437C218.923 44.1479 219.315 44 219.83 44C220.338 44 220.72 44.1479 220.977 44.4437C221.241 44.733 221.373 45.1509 221.373 45.6975V45.9772H220.37V45.63C220.37 45.3985 220.325 45.2313 220.235 45.1284C220.145 45.0191 220.013 44.9645 219.839 44.9645C219.486 44.9645 219.309 45.1799 219.309 45.6107C219.309 45.855 219.373 46.0833 219.502 46.2955C219.637 46.5076 219.878 46.7648 220.225 47.067C220.669 47.4528 220.974 47.8033 221.141 48.1183C221.309 48.4334 221.392 48.8031 221.392 49.2275C221.392 49.7804 221.254 50.2048 220.977 50.5006C220.707 50.7963 220.312 50.9442 219.791 50.9442Z" fill="white"/>
<path d="M222.83 45.0609H221.721V44.0964H225V45.0609H223.891V50.8478H222.83V45.0609Z" fill="white"/>
<path d="M129.6 18.432H132.792C133.512 18.432 134.072 18.616 134.472 18.984C134.872 19.344 135.072 19.896 135.072 20.64C135.072 21.216 134.956 21.688 134.724 22.056C134.492 22.416 134.132 22.648 133.644 22.752V22.776C134.076 22.84 134.392 22.98 134.592 23.196C134.792 23.412 134.916 23.76 134.964 24.24C134.98 24.4 134.992 24.576 135 24.768C135.008 24.952 135.016 25.16 135.024 25.392C135.04 25.848 135.064 26.196 135.096 26.436C135.144 26.676 135.248 26.84 135.408 26.928V27H133.536C133.448 26.88 133.392 26.744 133.368 26.592C133.344 26.432 133.328 26.268 133.32 26.1L133.272 24.456C133.256 24.12 133.172 23.856 133.02 23.664C132.868 23.472 132.612 23.376 132.252 23.376H131.328V27H129.6V18.432ZM131.328 22.176H132.048C132.464 22.176 132.784 22.08 133.008 21.888C133.232 21.688 133.344 21.356 133.344 20.892C133.344 20.1 132.944 19.704 132.144 19.704H131.328V22.176ZM141.056 18.432V19.848H137.996V21.864H140.876V23.28H137.996V25.584H141.176V27H136.268V18.432H141.056ZM143.437 24.324V24.576C143.437 24.776 143.453 24.96 143.485 25.128C143.517 25.288 143.577 25.424 143.665 25.536C143.753 25.648 143.869 25.736 144.013 25.8C144.165 25.864 144.353 25.896 144.577 25.896C144.841 25.896 145.077 25.812 145.285 25.644C145.501 25.468 145.609 25.2 145.609 24.84C145.609 24.648 145.581 24.484 145.525 24.348C145.477 24.204 145.393 24.076 145.273 23.964C145.153 23.852 144.993 23.752 144.793 23.664C144.601 23.568 144.361 23.472 144.073 23.376C143.689 23.248 143.357 23.108 143.077 22.956C142.797 22.804 142.561 22.628 142.369 22.428C142.185 22.22 142.049 21.984 141.961 21.72C141.873 21.448 141.829 21.136 141.829 20.784C141.829 19.936 142.065 19.304 142.537 18.888C143.009 18.472 143.657 18.264 144.481 18.264C144.865 18.264 145.217 18.308 145.537 18.396C145.865 18.476 146.145 18.612 146.377 18.804C146.617 18.988 146.801 19.228 146.929 19.524C147.065 19.812 147.133 20.16 147.133 20.568V20.808H145.477C145.477 20.4 145.405 20.088 145.261 19.872C145.117 19.648 144.877 19.536 144.541 19.536C144.349 19.536 144.189 19.564 144.061 19.62C143.933 19.676 143.829 19.752 143.749 19.848C143.677 19.936 143.625 20.04 143.593 20.16C143.569 20.28 143.557 20.404 143.557 20.532C143.557 20.796 143.613 21.02 143.725 21.204C143.837 21.38 144.077 21.544 144.445 21.696L145.777 22.272C146.105 22.416 146.373 22.568 146.581 22.728C146.789 22.88 146.953 23.048 147.073 23.232C147.201 23.408 147.289 23.604 147.337 23.82C147.385 24.036 147.409 24.276 147.409 24.54C147.409 25.444 147.145 26.104 146.617 26.52C146.097 26.928 145.369 27.132 144.433 27.132C143.457 27.132 142.757 26.92 142.333 26.496C141.917 26.072 141.709 25.464 141.709 24.672V24.324H143.437ZM153.284 18.432V19.848H151.412V27H149.684V19.848H147.812V18.432H153.284ZM158.822 18.432V19.848H155.762V21.864H158.642V23.28H155.762V25.584H158.942V27H154.034V18.432H158.822ZM161.203 24.324V24.576C161.203 24.776 161.219 24.96 161.251 25.128C161.283 25.288 161.343 25.424 161.431 25.536C161.519 25.648 161.635 25.736 161.779 25.8C161.931 25.864 162.119 25.896 162.343 25.896C162.607 25.896 162.843 25.812 163.051 25.644C163.267 25.468 163.375 25.2 163.375 24.84C163.375 24.648 163.347 24.484 163.291 24.348C163.243 24.204 163.159 24.076 163.039 23.964C162.919 23.852 162.759 23.752 162.559 23.664C162.367 23.568 162.127 23.472 161.839 23.376C161.455 23.248 161.123 23.108 160.843 22.956C160.563 22.804 160.327 22.628 160.135 22.428C159.951 22.22 159.815 21.984 159.727 21.72C159.639 21.448 159.595 21.136 159.595 20.784C159.595 19.936 159.831 19.304 160.303 18.888C160.775 18.472 161.423 18.264 162.247 18.264C162.631 18.264 162.983 18.308 163.303 18.396C163.631 18.476 163.911 18.612 164.143 18.804C164.383 18.988 164.567 19.228 164.695 19.524C164.831 19.812 164.899 20.16 164.899 20.568V20.808H163.243C163.243 20.4 163.171 20.088 163.027 19.872C162.883 19.648 162.643 19.536 162.307 19.536C162.115 19.536 161.955 19.564 161.827 19.62C161.699 19.676 161.595 19.752 161.515 19.848C161.443 19.936 161.391 20.04 161.359 20.16C161.335 20.28 161.323 20.404 161.323 20.532C161.323 20.796 161.379 21.02 161.491 21.204C161.603 21.38 161.843 21.544 162.211 21.696L163.543 22.272C163.871 22.416 164.139 22.568 164.347 22.728C164.555 22.88 164.719 23.048 164.839 23.232C164.967 23.408 165.055 23.604 165.103 23.82C165.151 24.036 165.175 24.276 165.175 24.54C165.175 25.444 164.911 26.104 164.383 26.52C163.863 26.928 163.135 27.132 162.199 27.132C161.223 27.132 160.523 26.92 160.099 26.496C159.683 26.072 159.475 25.464 159.475 24.672V24.324H161.203ZM131.412 40.728H132.18C132.484 40.728 132.728 40.676 132.912 40.572C133.096 40.468 133.24 40.296 133.344 40.056C133.456 39.816 133.528 39.5 133.56 39.108C133.6 38.716 133.62 38.228 133.62 37.644C133.62 37.156 133.604 36.728 133.572 36.36C133.54 35.992 133.472 35.688 133.368 35.448C133.272 35.2 133.124 35.016 132.924 34.896C132.732 34.768 132.472 34.704 132.144 34.704H131.412V40.728ZM129.684 33.432H132.516C133.116 33.432 133.6 33.532 133.968 33.732C134.336 33.924 134.62 34.204 134.82 34.572C135.028 34.932 135.168 35.368 135.24 35.88C135.312 36.392 135.348 36.964 135.348 37.596C135.348 38.348 135.3 39.004 135.204 39.564C135.116 40.116 134.96 40.572 134.736 40.932C134.512 41.292 134.212 41.56 133.836 41.736C133.46 41.912 132.984 42 132.408 42H129.684V33.432ZM141.279 33.432V34.848H138.219V36.864H141.099V38.28H138.219V40.584H141.399V42H136.491V33.432H141.279ZM145.151 33.432H148.343C149.063 33.432 149.623 33.616 150.023 33.984C150.423 34.344 150.623 34.896 150.623 35.64C150.623 36.216 150.507 36.688 150.275 37.056C150.043 37.416 149.683 37.648 149.195 37.752V37.776C149.627 37.84 149.943 37.98 150.143 38.196C150.343 38.412 150.467 38.76 150.515 39.24C150.531 39.4 150.543 39.576 150.551 39.768C150.559 39.952 150.567 40.16 150.575 40.392C150.591 40.848 150.615 41.196 150.647 41.436C150.695 41.676 150.799 41.84 150.959 41.928V42H149.087C148.999 41.88 148.943 41.744 148.919 41.592C148.895 41.432 148.879 41.268 148.871 41.1L148.823 39.456C148.807 39.12 148.723 38.856 148.571 38.664C148.419 38.472 148.163 38.376 147.803 38.376H146.879V42H145.151V33.432ZM146.879 37.176H147.599C148.015 37.176 148.335 37.08 148.559 36.888C148.783 36.688 148.895 36.356 148.895 35.892C148.895 35.1 148.495 34.704 147.695 34.704H146.879V37.176ZM156.607 33.432V34.848H153.547V36.864H156.427V38.28H153.547V40.584H156.727V42H151.819V33.432H156.607ZM159.324 37.308H160.092C160.436 37.308 160.712 37.204 160.92 36.996C161.136 36.788 161.244 36.464 161.244 36.024C161.244 35.592 161.152 35.264 160.968 35.04C160.784 34.816 160.476 34.704 160.044 34.704H159.324V37.308ZM157.596 33.432H160.62C161.06 33.432 161.428 33.508 161.724 33.66C162.028 33.804 162.272 33.996 162.456 34.236C162.64 34.476 162.772 34.752 162.852 35.064C162.932 35.368 162.972 35.68 162.972 36C162.972 36.44 162.904 36.824 162.768 37.152C162.64 37.48 162.456 37.748 162.216 37.956C161.984 38.164 161.7 38.32 161.364 38.424C161.028 38.528 160.656 38.58 160.248 38.58H159.324V42H157.596V33.432ZM166.949 38.772L166.121 34.92H166.097L165.269 38.772H166.949ZM167.177 33.432L169.445 42H167.645L167.249 40.188H164.969L164.573 42H162.773L165.041 33.432H167.177ZM171.433 39.324V39.576C171.433 39.776 171.449 39.96 171.481 40.128C171.513 40.288 171.573 40.424 171.661 40.536C171.749 40.648 171.865 40.736 172.009 40.8C172.161 40.864 172.349 40.896 172.573 40.896C172.837 40.896 173.073 40.812 173.281 40.644C173.497 40.468 173.605 40.2 173.605 39.84C173.605 39.648 173.577 39.484 173.521 39.348C173.473 39.204 173.389 39.076 173.269 38.964C173.149 38.852 172.989 38.752 172.789 38.664C172.597 38.568 172.357 38.472 172.069 38.376C171.685 38.248 171.353 38.108 171.073 37.956C170.793 37.804 170.557 37.628 170.365 37.428C170.181 37.22 170.045 36.984 169.957 36.72C169.869 36.448 169.825 36.136 169.825 35.784C169.825 34.936 170.061 34.304 170.533 33.888C171.005 33.472 171.653 33.264 172.477 33.264C172.861 33.264 173.213 33.308 173.533 33.396C173.861 33.476 174.141 33.612 174.373 33.804C174.613 33.988 174.797 34.228 174.925 34.524C175.061 34.812 175.129 35.16 175.129 35.568V35.808H173.473C173.473 35.4 173.401 35.088 173.257 34.872C173.113 34.648 172.873 34.536 172.537 34.536C172.345 34.536 172.185 34.564 172.057 34.62C171.929 34.676 171.825 34.752 171.745 34.848C171.673 34.936 171.621 35.04 171.589 35.16C171.565 35.28 171.553 35.404 171.553 35.532C171.553 35.796 171.609 36.02 171.721 36.204C171.833 36.38 172.073 36.544 172.441 36.696L173.773 37.272C174.101 37.416 174.369 37.568 174.577 37.728C174.785 37.88 174.949 38.048 175.069 38.232C175.197 38.408 175.285 38.604 175.333 38.82C175.381 39.036 175.405 39.276 175.405 39.54C175.405 40.444 175.141 41.104 174.613 41.52C174.093 41.928 173.365 42.132 172.429 42.132C171.453 42.132 170.753 41.92 170.329 41.496C169.913 41.072 169.705 40.464 169.705 39.672V39.324H171.433Z" fill="black"/>
</g>
<defs>
<clipPath id="clip0_79_990">
<rect width="240" height="61" fill="white"/>
</clipPath>
</defs>
</svg>
