<svg width="270" height="61" viewBox="0 0 270 61" fill="none" xmlns="http://www.w3.org/2000/svg">
<path d="M24.6979 60.4688C11.0781 60.4688 0 49.5208 0 36.0625V0H234.948C248.562 0 259.641 10.9479 259.641 24.4062V60.4688" fill="white"/>
<path d="M222.083 52.9114H69.1353C59.6874 52.9114 51.9999 45.3541 51.9999 36.0625V7.55725H204.948C214.396 7.55725 222.083 15.1145 222.083 24.4062V52.9114ZM204.948 5.66663H50.1145V36.0625C50.1145 46.3958 58.6458 54.802 69.1353 54.802H223.969V24.4062C223.969 14.0729 215.437 5.66663 204.948 5.66663Z" fill="#6B5B4A"/>
<path d="M196.714 54.802L209.724 28.2239L196.432 5.66663H234.948C245.437 5.66663 253.969 14.0729 253.969 24.4062V54.802" fill="#6B5B4A"/>
<path d="M102.901 5.66663H50.1145V36.0625C50.1145 46.3958 58.6458 54.802 69.1353 54.802H121.927V24.4062C121.927 14.0729 113.391 5.66663 102.901 5.66663Z" fill="#6B5B4A"/>
<path d="M63.651 29.3594C58.8489 29.3594 54.9583 33.25 54.9583 38.0521C54.9583 42.8542 58.8489 46.7448 63.651 46.7448C68.4583 46.7448 72.3489 42.8542 72.3489 38.0521C72.3489 33.25 68.4583 29.3594 63.651 29.3594Z" fill="white"/>
<path d="M69.3229 39.4688H65.0729V43.7188H62.2344V39.4688H57.9844V36.6355H62.2344V32.3802H65.0729V36.6355H69.3229" fill="#1C1C1B"/>
<path d="M55.7864 26.5937V17.1979H58.2708V24.5156H61.828V26.5937" fill="white"/>
<path d="M62.9426 26.5937V17.1979H69.0155V19.276H65.4322V20.7552H68.4947V22.8385H65.4322V24.5156H69.1614V26.5937" fill="white"/>
<path d="M75.0885 26.5937V19.276H72.6041V17.1979H80.0677V19.276H77.5781V26.5937" fill="white"/>
<path d="M83.5521 21.4739H84.4479C85.4479 21.4739 85.9531 21.0625 85.9531 20.2343C85.9531 19.8281 85.8229 19.5468 85.5677 19.3958C85.3125 19.2395 84.9375 19.1614 84.4479 19.1614H83.5521V21.4739ZM81.0625 26.5989V17.1979H84.6198C85.125 17.1979 85.6042 17.2448 86.0625 17.3385C86.5208 17.4375 86.9167 17.5989 87.2604 17.8333C87.6042 18.0625 87.875 18.375 88.0781 18.7656C88.2813 19.1562 88.3802 19.6458 88.3802 20.2343C88.3802 20.9062 88.2448 21.4687 87.9688 21.9114C87.6979 22.3541 87.3281 22.6979 86.8646 22.9531L88.901 26.5989H86.125L84.5052 23.4427H83.5521V26.5989" fill="white"/>
<path d="M89.8698 26.5989H92.3593V17.1979H89.8698V26.5989Z" fill="white"/>
<path d="M75.3801 43.276V33.8698H81.5103V35.9531H77.8697V37.75H80.9895V39.8333H77.8697V43.276" fill="white"/>
<path d="M84.9218 38.7031L84.7604 39.3541H86.4948L86.3385 38.7031C86.2239 38.25 86.1041 37.7604 85.9895 37.2291C85.875 36.6979 85.7604 36.1979 85.6406 35.7239H85.5833C85.4791 36.2031 85.3698 36.7083 85.2604 37.2343C85.151 37.7604 85.0364 38.25 84.9218 38.7031ZM81.3073 43.276L84.1666 33.8698H87.1718L90.0364 43.276H87.4062L86.9427 41.276H84.3125L83.8489 43.276" fill="white"/>
<path d="M94.5624 43.4479C93.9687 43.4479 93.3958 43.3489 92.8541 43.151C92.3072 42.9531 91.8333 42.651 91.4218 42.2552C91.0103 41.8541 90.6822 41.3541 90.4426 40.75C90.203 40.1458 90.0833 39.4479 90.0833 38.6458C90.0833 37.8541 90.2083 37.151 90.4583 36.5416C90.7083 35.927 91.0416 35.4114 91.4635 34.9948C91.8801 34.5729 92.3645 34.25 92.9114 34.0312C93.4583 33.8073 94.026 33.6979 94.6249 33.6979C95.2499 33.6979 95.8124 33.8229 96.302 34.0677C96.7968 34.3125 97.2083 34.6041 97.5468 34.9427L96.2447 36.5312C96.0155 36.3333 95.776 36.1666 95.5312 36.0312C95.2812 35.9062 94.9999 35.8385 94.6822 35.8385C94.401 35.8385 94.1405 35.901 93.8958 36.026C93.651 36.151 93.4322 36.3333 93.2447 36.5625C93.0572 36.7916 92.9062 37.0781 92.7968 37.4166C92.6822 37.75 92.6301 38.1354 92.6301 38.5573C92.6301 39.4479 92.8124 40.125 93.1874 40.5989C93.5572 41.0677 94.0468 41.3073 94.651 41.3073C95.0208 41.3073 95.3437 41.2291 95.6301 41.0677C95.9114 40.9062 96.1562 40.7187 96.3593 40.4948L97.6614 42.0573C97.2551 42.5208 96.7916 42.8698 96.2655 43.0989C95.7395 43.3333 95.1718 43.4479 94.5624 43.4479Z" fill="white"/>
<path d="M98.6198 43.276H101.104V33.8698H98.6198V43.276Z" fill="white"/>
<path d="M102.875 43.276V33.8698H105.365V41.1927H108.922V43.276" fill="white"/>
<path d="M110.031 43.276V33.8698H116.109V35.9531H112.521V37.4323H115.589V39.5156H112.521V41.1927H116.255V43.276" fill="white"/>
<path d="M28.4062 25.7448C26.7135 28.2343 28.151 31.5104 29.8958 33.1718C31.4895 34.6823 32.7655 35.0364 32.9322 35.0781L33.7447 33.5208L36.0885 39.9323L29.4635 41.2812L30.3437 39.6458L29.4478 39.1458C26.6562 37.3281 26.0676 34.8593 25.8749 34.0885C25.5416 32.7604 25.0468 28.7864 28.4062 25.7448Z" fill="#6B5B4A"/>
<path d="M28.375 25.8489C29.5781 28.6093 33.1146 29.1406 35.4479 28.552C37.5208 28.026 38.5052 27.1718 38.6719 27.0156L38.6615 27L37.776 25.4635L44.4427 26.9218L42.0312 33.2395L41.1354 31.6458L40.2656 32.1198C37.2396 33.5104 34.8333 32.6927 34.0781 32.4427C32.7813 32.0156 29.1562 30.3125 28.375 25.8489Z" fill="#6B5B4A"/>
<path d="M40.1613 19.1927C39.6978 22.4895 37.7134 24.0729 37.0936 24.5729C36.0311 25.4375 32.6457 27.5677 28.4634 25.8177C31.4373 26.2916 33.7967 23.6041 34.5571 21.3177C35.2446 19.2656 35.0415 17.9687 34.9998 17.7708L34.979 17.7656L33.2134 17.6927L38.0259 12.8541L42.0519 18.2864L40.2342 18.1823" fill="#6B5B4A"/>
<path fill-rule="evenodd" clip-rule="evenodd" d="M19.9375 16.4115C18.4167 16.4115 17.1875 15.1823 17.1875 13.6562C17.1875 12.1354 18.4167 10.9062 19.9375 10.9062C21.4583 10.9062 22.6927 12.1354 22.6927 13.6562C22.6927 15.1823 21.4583 16.4115 19.9375 16.4115Z" fill="#6B5B4A"/>
<path d="M15.6771 29.7968C15.9115 29.151 16.2604 29.1927 16.2604 29.1927C16.2604 29.1927 16.5781 29.125 16.7552 29.7708L19.3281 38.8073C17.1823 38.1823 15.224 37.1198 13.5573 35.7083L15.6771 29.7968ZM23.7031 5.66663C13.7604 5.66663 5.67188 13.7552 5.67188 23.6979C5.67188 33.6406 13.7604 41.7291 23.7031 41.7291C24.2344 41.7291 24.7552 41.6979 25.276 41.651L25.3958 43.4635L28.6979 40.2708L25.0052 37.4531L25.1458 39.3541C24.6719 39.401 24.1875 39.4323 23.7031 39.4323C22.9375 39.4323 22.1875 39.375 21.4531 39.2656L21.3802 38.7864L19.6667 24.1875C19.4323 21.4323 21.0052 20.9948 21.9792 21.4062L27.4479 23.6041C28.0729 23.875 28.375 23.3489 28.375 23.3489C28.375 23.3489 28.7292 22.802 28.0938 22.3958C28.0938 22.3958 20.6406 17.4583 19.0521 17.1562C16.8854 16.7552 14.7396 18.5104 14.2656 20.7968L11.6198 33.7604C9.34375 31.0312 7.96875 27.5208 7.96875 23.6979C7.96875 15.0208 15.026 7.9635 23.7031 7.9635C28.3385 7.9635 32.5104 9.97913 35.3906 13.177L37.0052 11.5364C33.7083 7.93225 28.9635 5.66663 23.7031 5.66663Z" fill="#6B5B4A"/>
<path fill-rule="evenodd" clip-rule="evenodd" d="M225.184 13.5477C222.848 13.829 220.995 15.7189 220.697 18.1033L220.693 18.1036L220.569 18.8693C220.562 18.8856 220.558 18.9007 220.558 18.914C220.554 18.9403 220.549 18.9665 220.545 18.9927C220.517 19.164 220.489 19.3314 220.515 19.5044L220.513 21.0954C217.452 24.2948 216.633 27.1159 217.139 29.2647C217.309 29.9622 217.62 30.6156 218.051 31.1832C218.482 31.7508 219.024 32.2202 219.642 32.5614C219.922 32.7258 220.213 32.8682 220.513 32.9874L220.511 34.7847L220.513 34.8477C220.49 35.4096 220.562 35.9713 220.728 36.5076C220.955 37.0944 221.311 37.6198 221.769 38.0432C222.048 38.3281 222.352 38.5852 222.679 38.8111C223.03 39.056 223.399 39.2719 223.783 39.4567C225.887 40.4919 228.644 41.0038 231.334 41C234.024 40.9962 236.734 40.4594 238.81 39.4032C239.316 39.1492 239.791 38.8357 240.226 38.4692C240.646 38.115 241.01 37.6961 241.304 37.2276C241.888 36.2837 241.886 35.9049 241.883 35.0104L241.882 35.0005L241.886 20.0602C241.956 19.8477 241.995 19.6255 242 19.4012C242 19.1676 241.963 18.942 241.893 18.7249C241.348 16.0509 239.424 14.0935 236.857 13.6116C235.861 11.4138 233.535 10 231.006 10C228.502 10 226.195 11.3865 225.184 13.5477ZM231.245 22.4255C227.72 22.4255 224.58 21.643 222.551 20.4235C222.188 19.5805 222.237 18.5859 222.269 18.2929C222.501 16.5087 223.988 15.1323 225.789 15.1323C225.966 15.1323 226.14 15.1455 226.309 15.1711C226.711 13.1523 228.661 11.6207 231.006 11.6207C233.336 11.6207 235.276 13.1331 235.695 15.1331C235.723 15.1326 235.75 15.1323 235.778 15.1323C238.041 15.1323 240.03 16.9544 240.478 19.3712C240.47 19.8542 240.363 20.1051 240.276 20.2103C238.268 21.5511 234.971 22.4255 231.245 22.4255ZM218.668 28.8903C218.352 27.5051 218.811 25.6874 220.508 23.5283L220.506 31.2072L220.426 31.1594C219.996 30.9258 219.618 30.6036 219.315 30.2131C219.013 29.8226 218.793 29.3722 218.668 28.8903ZM240.224 21.9951C239.664 22.3566 239.068 22.6569 238.447 22.8909C236.551 23.6243 233.985 24.0942 231.196 24.0961C228.758 24.1265 226.334 23.6966 224.048 22.8278C223.386 22.5663 222.756 22.2272 222.17 21.8174L222.168 31.7898C222.702 31.8871 223.246 31.9179 223.787 31.8814C226.341 31.7229 229.114 30.128 230.476 26.6441C230.556 26.4477 230.709 26.2916 230.901 26.2096C231.093 26.1276 231.309 26.1262 231.502 26.2057C231.694 26.2853 231.849 26.4394 231.932 26.6348C232.015 26.8301 232.019 27.051 231.944 27.2496C230.321 31.3982 226.973 33.3025 223.876 33.505C223.304 33.5419 222.729 33.5188 222.16 33.4362L222.168 34.8458C222.149 35.212 222.187 35.579 222.282 35.9326C222.432 36.2819 222.655 36.5935 222.934 36.8456C223.143 37.0558 223.369 37.2457 223.612 37.4129C223.893 37.6103 224.188 37.7852 224.496 37.9363C226.369 38.8569 228.836 39.3249 231.323 39.3077C233.809 39.2905 236.236 38.834 238.073 37.8885C238.463 37.694 238.83 37.4543 239.167 37.1742C239.454 36.9324 239.703 36.6463 239.905 36.3261C240.166 35.9455 240.281 35.4797 240.228 35.0177C240.227 35.0076 240.227 34.9649 240.227 34.918C240.227 34.8501 240.226 34.7732 240.224 34.7732L240.224 21.9951Z" fill="white"/>
<path d="M219.562 50.9442C219.054 50.9442 218.665 50.7996 218.395 50.5102C218.132 50.2209 218 49.8126 218 49.2853V45.6589C218 45.1317 218.132 44.7234 218.395 44.434C218.665 44.1447 219.054 44 219.562 44C220.07 44 220.456 44.1447 220.72 44.434C220.99 44.7234 221.125 45.1317 221.125 45.6589V46.3726H220.122V45.5914C220.122 45.1734 219.945 44.9645 219.591 44.9645C219.238 44.9645 219.061 45.1734 219.061 45.5914V49.3625C219.061 49.774 219.238 49.9798 219.591 49.9798C219.945 49.9798 220.122 49.774 220.122 49.3625V48.3305H221.125V49.2853C221.125 49.8126 220.99 50.2209 220.72 50.5102C220.456 50.7996 220.07 50.9442 219.562 50.9442Z" fill="white"/>
<path d="M223.312 50.9442C222.791 50.9442 222.393 50.7963 222.116 50.5006C221.84 50.2048 221.701 49.7869 221.701 49.2468V45.6975C221.701 45.1574 221.84 44.7394 222.116 44.4437C222.393 44.1479 222.791 44 223.312 44C223.833 44 224.231 44.1479 224.508 44.4437C224.784 44.7394 224.923 45.1574 224.923 45.6975V49.2468C224.923 49.7869 224.784 50.2048 224.508 50.5006C224.231 50.7963 223.833 50.9442 223.312 50.9442ZM223.312 49.9798C223.679 49.9798 223.862 49.7579 223.862 49.3143V45.63C223.862 45.1863 223.679 44.9645 223.312 44.9645C222.946 44.9645 222.762 45.1863 222.762 45.63V49.3143C222.762 49.7579 222.946 49.9798 223.312 49.9798Z" fill="white"/>
<path d="M225.64 44.0964H227.154L227.83 48.9285H227.849L228.524 44.0964H230.038V50.8478H229.035V45.7361H229.016L228.244 50.8478H227.357L226.585 45.7361H226.566V50.8478H225.64V44.0964Z" fill="white"/>
<path d="M230.83 44.0964H232.392C232.92 44.0964 233.315 44.2379 233.579 44.5208C233.842 44.8037 233.974 45.2185 233.974 45.765V46.4305C233.974 46.977 233.842 47.3917 233.579 47.6747C233.315 47.9576 232.92 48.099 232.392 48.099H231.891V50.8478H230.83V44.0964ZM232.392 47.1345C232.566 47.1345 232.695 47.0863 232.778 46.9899C232.868 46.8934 232.913 46.7295 232.913 46.498V45.6975C232.913 45.466 232.868 45.302 232.778 45.2056C232.695 45.1091 232.566 45.0609 232.392 45.0609H231.891V47.1345H232.392Z" fill="white"/>
<path d="M236.084 50.9442C235.563 50.9442 235.164 50.7963 234.888 50.5006C234.611 50.2048 234.473 49.7869 234.473 49.2468V45.6975C234.473 45.1574 234.611 44.7394 234.888 44.4437C235.164 44.1479 235.563 44 236.084 44C236.605 44 237.003 44.1479 237.28 44.4437C237.556 44.7394 237.694 45.1574 237.694 45.6975V49.2468C237.694 49.7869 237.556 50.2048 237.28 50.5006C237.003 50.7963 236.605 50.9442 236.084 50.9442ZM236.084 49.9798C236.45 49.9798 236.634 49.7579 236.634 49.3143V45.63C236.634 45.1863 236.45 44.9645 236.084 44.9645C235.717 44.9645 235.534 45.1863 235.534 45.63V49.3143C235.534 49.7579 235.717 49.9798 236.084 49.9798Z" fill="white"/>
<path d="M239.791 50.9442C239.277 50.9442 238.888 50.7996 238.624 50.5102C238.361 50.2144 238.229 49.7933 238.229 49.2468V48.861H239.232V49.3239C239.232 49.7611 239.415 49.9798 239.782 49.9798C239.962 49.9798 240.097 49.9283 240.187 49.8254C240.283 49.7161 240.331 49.5425 240.331 49.3046C240.331 49.0217 240.267 48.7742 240.138 48.562C240.01 48.3434 239.772 48.083 239.425 47.7807C238.987 47.395 238.682 47.0477 238.508 46.7391C238.335 46.4241 238.248 46.0704 238.248 45.6782C238.248 45.1445 238.383 44.733 238.653 44.4437C238.923 44.1479 239.315 44 239.83 44C240.338 44 240.72 44.1479 240.977 44.4437C241.241 44.733 241.373 45.1509 241.373 45.6975V45.9772H240.37V45.63C240.37 45.3985 240.325 45.2313 240.235 45.1284C240.145 45.0191 240.013 44.9645 239.839 44.9645C239.486 44.9645 239.309 45.1799 239.309 45.6107C239.309 45.855 239.373 46.0833 239.502 46.2955C239.637 46.5076 239.878 46.7648 240.225 47.067C240.669 47.4528 240.974 47.8033 241.141 48.1183C241.309 48.4334 241.392 48.8031 241.392 49.2275C241.392 49.7804 241.254 50.2048 240.977 50.5006C240.707 50.7963 240.312 50.9442 239.791 50.9442Z" fill="white"/>
<path d="M242.83 45.0609H241.721V44.0964H245V45.0609H243.891V50.8478H242.83V45.0609Z" fill="white"/>
<path d="M132.828 25.041L132.069 21.51H132.047L131.288 25.041H132.828ZM133.037 20.146L135.116 28H133.466L133.103 26.339H131.013L130.65 28H129L131.079 20.146H133.037ZM135.662 28V20.146H137.246V26.702H140.051V28H135.662ZM140.831 28V20.146H142.415V28H140.831ZM143.623 20.146H145.977L147.099 25.69H147.121L148.254 20.146H150.597V28H149.145V21.73H149.123L147.726 28H146.494L145.097 21.73H145.075V28H143.623V20.146ZM156.122 20.146V21.444H153.317V23.292H155.957V24.59H153.317V26.702H156.232V28H151.733V20.146H156.122ZM158.855 20.146L160.769 25.525H160.791V20.146H162.243V28H160.439L158.503 22.5H158.481V28H157.029V20.146H158.855ZM167.943 20.146V21.444H166.227V28H164.643V21.444H162.927V20.146H167.943ZM169.906 25.547V25.778C169.906 25.9613 169.921 26.13 169.95 26.284C169.979 26.4307 170.034 26.5553 170.115 26.658C170.196 26.7607 170.302 26.8413 170.434 26.9C170.573 26.9587 170.746 26.988 170.951 26.988C171.193 26.988 171.409 26.911 171.6 26.757C171.798 26.5957 171.897 26.35 171.897 26.02C171.897 25.844 171.871 25.6937 171.82 25.569C171.776 25.437 171.699 25.3197 171.589 25.217C171.479 25.1143 171.332 25.0227 171.149 24.942C170.973 24.854 170.753 24.766 170.489 24.678C170.137 24.5607 169.833 24.4323 169.576 24.293C169.319 24.1537 169.103 23.9923 168.927 23.809C168.758 23.6183 168.634 23.402 168.553 23.16C168.472 22.9107 168.432 22.6247 168.432 22.302C168.432 21.5247 168.648 20.9453 169.081 20.564C169.514 20.1827 170.108 19.992 170.863 19.992C171.215 19.992 171.538 20.0323 171.831 20.113C172.132 20.1863 172.388 20.311 172.601 20.487C172.821 20.6557 172.99 20.8757 173.107 21.147C173.232 21.411 173.294 21.73 173.294 22.104V22.324H171.776C171.776 21.95 171.71 21.664 171.578 21.466C171.446 21.2607 171.226 21.158 170.918 21.158C170.742 21.158 170.595 21.1837 170.478 21.235C170.361 21.2863 170.265 21.356 170.192 21.444C170.126 21.5247 170.078 21.62 170.049 21.73C170.027 21.84 170.016 21.9537 170.016 22.071C170.016 22.313 170.067 22.5183 170.17 22.687C170.273 22.8483 170.493 22.9987 170.83 23.138L172.051 23.666C172.352 23.798 172.597 23.9373 172.788 24.084C172.979 24.2233 173.129 24.3773 173.239 24.546C173.356 24.7073 173.437 24.887 173.481 25.085C173.525 25.283 173.547 25.503 173.547 25.745C173.547 26.5737 173.305 27.1787 172.821 27.56C172.344 27.934 171.677 28.121 170.819 28.121C169.924 28.121 169.283 27.9267 168.894 27.538C168.513 27.1493 168.322 26.592 168.322 25.866V25.547H169.906ZM132.905 35.797C132.905 35.225 132.835 34.8107 132.696 34.554C132.564 34.29 132.318 34.158 131.959 34.158C131.761 34.158 131.596 34.213 131.464 34.323C131.339 34.4257 131.24 34.598 131.167 34.84C131.094 35.0747 131.042 35.3863 131.013 35.775C130.984 36.1563 130.969 36.6257 130.969 37.183C130.969 37.777 130.987 38.2573 131.024 38.624C131.068 38.9907 131.13 39.2767 131.211 39.482C131.299 39.68 131.405 39.8157 131.53 39.889C131.662 39.955 131.812 39.988 131.981 39.988C132.12 39.988 132.249 39.966 132.366 39.922C132.491 39.8707 132.597 39.7753 132.685 39.636C132.773 39.4893 132.843 39.2877 132.894 39.031C132.945 38.767 132.971 38.4223 132.971 37.997H134.555C134.555 38.4223 134.522 38.8257 134.456 39.207C134.39 39.5883 134.265 39.922 134.082 40.208C133.906 40.494 133.653 40.7177 133.323 40.879C133 41.0403 132.579 41.121 132.058 41.121C131.464 41.121 130.991 41.0257 130.639 40.835C130.287 40.6443 130.016 40.3693 129.825 40.01C129.642 39.6507 129.521 39.2217 129.462 38.723C129.411 38.2243 129.385 37.6743 129.385 37.073C129.385 36.479 129.411 35.9327 129.462 35.434C129.521 34.928 129.642 34.4953 129.825 34.136C130.016 33.7767 130.287 33.498 130.639 33.3C130.991 33.0947 131.464 32.992 132.058 32.992C132.623 32.992 133.066 33.0837 133.389 33.267C133.719 33.4503 133.965 33.685 134.126 33.971C134.287 34.2497 134.386 34.554 134.423 34.884C134.467 35.2067 134.489 35.511 134.489 35.797H132.905ZM136.877 37.073C136.877 37.601 136.888 38.052 136.91 38.426C136.94 38.7927 136.991 39.0933 137.064 39.328C137.145 39.5553 137.255 39.724 137.394 39.834C137.541 39.9367 137.732 39.988 137.966 39.988C138.201 39.988 138.388 39.9367 138.527 39.834C138.674 39.724 138.784 39.5553 138.857 39.328C138.938 39.0933 138.989 38.7927 139.011 38.426C139.041 38.052 139.055 37.601 139.055 37.073C139.055 36.545 139.041 36.0977 139.011 35.731C138.989 35.3643 138.938 35.0637 138.857 34.829C138.784 34.5943 138.674 34.4257 138.527 34.323C138.388 34.213 138.201 34.158 137.966 34.158C137.732 34.158 137.541 34.213 137.394 34.323C137.255 34.4257 137.145 34.5943 137.064 34.829C136.991 35.0637 136.94 35.3643 136.91 35.731C136.888 36.0977 136.877 36.545 136.877 37.073ZM135.293 37.073C135.293 36.479 135.319 35.9327 135.37 35.434C135.429 34.928 135.55 34.4953 135.733 34.136C135.924 33.7767 136.195 33.498 136.547 33.3C136.899 33.0947 137.372 32.992 137.966 32.992C138.56 32.992 139.033 33.0947 139.385 33.3C139.737 33.498 140.005 33.7767 140.188 34.136C140.379 34.4953 140.5 34.928 140.551 35.434C140.61 35.9327 140.639 36.479 140.639 37.073C140.639 37.6743 140.61 38.2243 140.551 38.723C140.5 39.2217 140.379 39.6507 140.188 40.01C140.005 40.3693 139.737 40.6443 139.385 40.835C139.033 41.0257 138.56 41.121 137.966 41.121C137.372 41.121 136.899 41.0257 136.547 40.835C136.195 40.6443 135.924 40.3693 135.733 40.01C135.55 39.6507 135.429 39.2217 135.37 38.723C135.319 38.2243 135.293 37.6743 135.293 37.073ZM141.604 33.146H143.958L145.08 38.69H145.102L146.235 33.146H148.578V41H147.126V34.73H147.104L145.707 41H144.475L143.078 34.73H143.056V41H141.604V33.146ZM151.297 36.699H152.001C152.316 36.699 152.569 36.6037 152.76 36.413C152.958 36.2223 153.057 35.9253 153.057 35.522C153.057 35.126 152.973 34.8253 152.804 34.62C152.635 34.4147 152.353 34.312 151.957 34.312H151.297V36.699ZM149.713 33.146H152.485C152.888 33.146 153.226 33.2157 153.497 33.355C153.776 33.487 153.999 33.663 154.168 33.883C154.337 34.103 154.458 34.356 154.531 34.642C154.604 34.9207 154.641 35.2067 154.641 35.5C154.641 35.9033 154.579 36.2553 154.454 36.556C154.337 36.8567 154.168 37.1023 153.948 37.293C153.735 37.4837 153.475 37.6267 153.167 37.722C152.859 37.8173 152.518 37.865 152.144 37.865H151.297V41H149.713V33.146ZM156.836 37.073C156.836 37.601 156.847 38.052 156.869 38.426C156.899 38.7927 156.95 39.0933 157.023 39.328C157.104 39.5553 157.214 39.724 157.353 39.834C157.5 39.9367 157.691 39.988 157.925 39.988C158.16 39.988 158.347 39.9367 158.486 39.834C158.633 39.724 158.743 39.5553 158.816 39.328C158.897 39.0933 158.948 38.7927 158.97 38.426C159 38.052 159.014 37.601 159.014 37.073C159.014 36.545 159 36.0977 158.97 35.731C158.948 35.3643 158.897 35.0637 158.816 34.829C158.743 34.5943 158.633 34.4257 158.486 34.323C158.347 34.213 158.16 34.158 157.925 34.158C157.691 34.158 157.5 34.213 157.353 34.323C157.214 34.4257 157.104 34.5943 157.023 34.829C156.95 35.0637 156.899 35.3643 156.869 35.731C156.847 36.0977 156.836 36.545 156.836 37.073ZM155.252 37.073C155.252 36.479 155.278 35.9327 155.329 35.434C155.388 34.928 155.509 34.4953 155.692 34.136C155.883 33.7767 156.154 33.498 156.506 33.3C156.858 33.0947 157.331 32.992 157.925 32.992C158.519 32.992 158.992 33.0947 159.344 33.3C159.696 33.498 159.964 33.7767 160.147 34.136C160.338 34.4953 160.459 34.928 160.51 35.434C160.569 35.9327 160.598 36.479 160.598 37.073C160.598 37.6743 160.569 38.2243 160.51 38.723C160.459 39.2217 160.338 39.6507 160.147 40.01C159.964 40.3693 159.696 40.6443 159.344 40.835C158.992 41.0257 158.519 41.121 157.925 41.121C157.331 41.121 156.858 41.0257 156.506 40.835C156.154 40.6443 155.883 40.3693 155.692 40.01C155.509 39.6507 155.388 39.2217 155.329 38.723C155.278 38.2243 155.252 37.6743 155.252 37.073ZM162.805 38.547V38.778C162.805 38.9613 162.82 39.13 162.849 39.284C162.879 39.4307 162.934 39.5553 163.014 39.658C163.095 39.7607 163.201 39.8413 163.333 39.9C163.473 39.9587 163.645 39.988 163.85 39.988C164.092 39.988 164.309 39.911 164.499 39.757C164.697 39.5957 164.796 39.35 164.796 39.02C164.796 38.844 164.771 38.6937 164.719 38.569C164.675 38.437 164.598 38.3197 164.488 38.217C164.378 38.1143 164.232 38.0227 164.048 37.942C163.872 37.854 163.652 37.766 163.388 37.678C163.036 37.5607 162.732 37.4323 162.475 37.293C162.219 37.1537 162.002 36.9923 161.826 36.809C161.658 36.6183 161.533 36.402 161.452 36.16C161.372 35.9107 161.331 35.6247 161.331 35.302C161.331 34.5247 161.548 33.9453 161.98 33.564C162.413 33.1827 163.007 32.992 163.762 32.992C164.114 32.992 164.437 33.0323 164.73 33.113C165.031 33.1863 165.288 33.311 165.5 33.487C165.72 33.6557 165.889 33.8757 166.006 34.147C166.131 34.411 166.193 34.73 166.193 35.104V35.324H164.675C164.675 34.95 164.609 34.664 164.477 34.466C164.345 34.2607 164.125 34.158 163.817 34.158C163.641 34.158 163.495 34.1837 163.377 34.235C163.26 34.2863 163.165 34.356 163.091 34.444C163.025 34.5247 162.978 34.62 162.948 34.73C162.926 34.84 162.915 34.9537 162.915 35.071C162.915 35.313 162.967 35.5183 163.069 35.687C163.172 35.8483 163.392 35.9987 163.729 36.138L164.95 36.666C165.251 36.798 165.497 36.9373 165.687 37.084C165.878 37.2233 166.028 37.3773 166.138 37.546C166.256 37.7073 166.336 37.887 166.38 38.085C166.424 38.283 166.446 38.503 166.446 38.745C166.446 39.5737 166.204 40.1787 165.72 40.56C165.244 40.934 164.576 41.121 163.718 41.121C162.824 41.121 162.182 40.9267 161.793 40.538C161.412 40.1493 161.221 39.592 161.221 38.866V38.547H162.805ZM171.832 33.146V34.444H170.116V41H168.532V34.444H166.816V33.146H171.832ZM175.195 38.041L174.436 34.51H174.414L173.655 38.041H175.195ZM175.404 33.146L177.483 41H175.833L175.47 39.339H173.38L173.017 41H171.367L173.446 33.146H175.404ZM179.613 39.834H180.229C180.611 39.834 180.919 39.7497 181.153 39.581C181.388 39.4123 181.505 39.1007 181.505 38.646C181.505 38.4187 181.472 38.2317 181.406 38.085C181.348 37.931 181.263 37.81 181.153 37.722C181.051 37.6267 180.926 37.5607 180.779 37.524C180.633 37.4873 180.471 37.469 180.295 37.469H179.613V39.834ZM179.613 36.369H180.064C180.504 36.369 180.823 36.292 181.021 36.138C181.227 35.9767 181.329 35.709 181.329 35.335C181.329 34.961 181.238 34.697 181.054 34.543C180.871 34.389 180.581 34.312 180.185 34.312H179.613V36.369ZM178.029 33.146H180.68C181.003 33.146 181.3 33.179 181.571 33.245C181.85 33.311 182.088 33.421 182.286 33.575C182.484 33.729 182.638 33.9343 182.748 34.191C182.858 34.4477 182.913 34.763 182.913 35.137C182.913 35.5623 182.814 35.929 182.616 36.237C182.418 36.5377 182.121 36.743 181.725 36.853V36.875C182.165 36.9337 182.514 37.1207 182.77 37.436C183.027 37.7513 183.155 38.173 183.155 38.701C183.155 39.009 183.115 39.3023 183.034 39.581C182.954 39.8597 182.814 40.1053 182.616 40.318C182.426 40.5233 182.173 40.6883 181.857 40.813C181.549 40.9377 181.164 41 180.702 41H178.029V33.146ZM184.142 41V33.146H185.726V39.702H188.531V41H184.142ZM193.623 33.146V34.444H190.818V36.292H193.458V37.59H190.818V39.702H193.733V41H189.234V33.146H193.623ZM195.805 38.547V38.778C195.805 38.9613 195.82 39.13 195.849 39.284C195.879 39.4307 195.934 39.5553 196.014 39.658C196.095 39.7607 196.201 39.8413 196.333 39.9C196.473 39.9587 196.645 39.988 196.85 39.988C197.092 39.988 197.309 39.911 197.499 39.757C197.697 39.5957 197.796 39.35 197.796 39.02C197.796 38.844 197.771 38.6937 197.719 38.569C197.675 38.437 197.598 38.3197 197.488 38.217C197.378 38.1143 197.232 38.0227 197.048 37.942C196.872 37.854 196.652 37.766 196.388 37.678C196.036 37.5607 195.732 37.4323 195.475 37.293C195.219 37.1537 195.002 36.9923 194.826 36.809C194.658 36.6183 194.533 36.402 194.452 36.16C194.372 35.9107 194.331 35.6247 194.331 35.302C194.331 34.5247 194.548 33.9453 194.98 33.564C195.413 33.1827 196.007 32.992 196.762 32.992C197.114 32.992 197.437 33.0323 197.73 33.113C198.031 33.1863 198.288 33.311 198.5 33.487C198.72 33.6557 198.889 33.8757 199.006 34.147C199.131 34.411 199.193 34.73 199.193 35.104V35.324H197.675C197.675 34.95 197.609 34.664 197.477 34.466C197.345 34.2607 197.125 34.158 196.817 34.158C196.641 34.158 196.495 34.1837 196.377 34.235C196.26 34.2863 196.165 34.356 196.091 34.444C196.025 34.5247 195.978 34.62 195.948 34.73C195.926 34.84 195.915 34.9537 195.915 35.071C195.915 35.313 195.967 35.5183 196.069 35.687C196.172 35.8483 196.392 35.9987 196.729 36.138L197.95 36.666C198.251 36.798 198.497 36.9373 198.687 37.084C198.878 37.2233 199.028 37.3773 199.138 37.546C199.256 37.7073 199.336 37.887 199.38 38.085C199.424 38.283 199.446 38.503 199.446 38.745C199.446 39.5737 199.204 40.1787 198.72 40.56C198.244 40.934 197.576 41.121 196.718 41.121C195.824 41.121 195.182 40.9267 194.793 40.538C194.412 40.1493 194.221 39.592 194.221 38.866V38.547H195.805Z" fill="black"/>
</svg>
