<svg width="186" height="55" viewBox="0 0 186 55" fill="none" xmlns="http://www.w3.org/2000/svg">
<g clip-path="url(#clip0_19_563)">
<path d="M169.073 4.58333H64.8906C64.3073 1.57813 61.0469 0.4375 57.0729 0.4375C53.0781 0.4375 49.8021 1.39063 49.2448 4.58333H40V36.5781C40 46.2135 47.5677 54.0521 56.8646 54.0521H185.938V22.0573C185.938 12.4219 178.37 4.58333 169.073 4.58333ZM111.562 52.099H56.8646C48.6354 52.099 41.9427 45.1354 41.9427 36.5781V6.53646H49.25C49.8229 9.60417 53.0885 10.6771 57.0729 10.6771C61.0521 10.6771 64.3177 9.60417 64.8958 6.53646H111.984L124.354 29.901" fill="#EC6A5D"/>
<path d="M54.1042 6.27608V8.14067H53.1406V3.39587H55.5729C55.9844 3.39587 56.0469 3.54171 56.0469 3.80212V4.224H54.1042V5.44796H55.8958V5.93754C55.8958 6.15108 55.8021 6.27608 55.5417 6.27608" fill="white"/>
<path d="M58.6042 3.39587C59.8698 3.39587 60.4531 3.88025 60.4531 4.98962C60.4531 5.74483 60.0312 6.17712 59.5521 6.42712L60.5104 8.14067H59.7917C59.5156 8.14067 59.3594 8.04692 59.2292 7.80733L58.625 6.61983H57.9635V8.14067H57V4.00525C57 3.61983 57.2188 3.39587 57.6094 3.39587H58.6042ZM57.9635 5.82817H58.5521C59.1979 5.82817 59.4531 5.51046 59.4531 4.98962C59.4531 4.43233 59.2083 4.224 58.5677 4.224H57.9635" fill="white"/>
<path d="M19.7968 31.026C18.3229 33.2031 19.5781 36.0729 21.0989 37.526C22.4843 38.8489 23.5989 39.1614 23.7395 39.1979L24.4479 37.8385L26.4895 43.4479L20.7187 44.6302L21.4843 43.1979L20.7031 42.7604C18.276 41.1718 17.7604 39.0052 17.5937 38.3281C17.302 37.1666 16.8697 33.6875 19.7968 31.026Z" fill="#EC6A5D"/>
<path d="M19.7708 31.1198C20.8176 33.5312 23.901 34 25.9322 33.4792C27.7395 33.0208 28.5937 32.2708 28.7395 32.1354L28.7343 32.125L27.9583 30.7812L33.7655 32.0573L31.6614 37.5885L30.8853 36.1927L30.1249 36.6042C27.4895 37.8229 25.3958 37.1094 24.7395 36.8906C23.6093 36.5156 20.453 35.026 19.7708 31.1198Z" fill="#EC6A5D"/>
<path d="M30.0364 25.2865C29.6301 28.1771 27.901 29.5625 27.3645 30C26.4374 30.7552 23.4895 32.6198 19.8489 31.0885C22.4426 31.5052 24.4895 29.151 25.1562 27.1458C25.7551 25.3542 25.578 24.2135 25.5468 24.0417L25.526 24.0365L23.9843 23.9688L28.177 19.7344L31.6822 24.4948L30.1041 24.4062" fill="#EC6A5D"/>
<path d="M12.427 22.8489C11.0989 22.8489 10.026 21.7708 10.026 20.4375C10.026 19.1041 11.0989 18.026 12.427 18.026C13.75 18.026 14.8229 19.1041 14.8229 20.4375C14.8229 21.7708 13.75 22.8489 12.427 22.8489Z" fill="#EC6A5D"/>
<path d="M15.7031 13.4375C7.04687 13.4375 0 20.526 0 29.2344C0 37.9427 7.04687 45.026 15.7031 45.026C16.1667 45.026 16.625 44.9948 17.0729 44.9583L17.1823 46.5417L20.0521 43.75L16.8385 41.2812L16.9583 42.9479C16.5469 42.9844 16.125 43.0104 15.7031 43.0104C15.0365 43.0104 14.3854 42.9635 13.7448 42.8698L13.6823 42.4479L12.1875 29.6615C11.9844 27.25 13.3542 26.8646 14.2031 27.2292L18.9635 29.151C19.5104 29.3854 19.7708 28.9271 19.7708 28.9271C19.7708 28.9271 20.0781 28.4479 19.5312 28.0938C19.5312 28.0938 13.0365 23.7656 11.6562 23.5052C9.76562 23.151 7.89583 24.6875 7.48438 26.6927L5.18229 38.0469C3.19792 35.6562 2 32.5833 2 29.2344C2 21.6354 8.14583 15.4531 15.7031 15.4531C19.7396 15.4531 23.3698 17.2187 25.8802 20.0208L27.2865 18.5833C24.4167 15.4271 20.2865 13.4375 15.7031 13.4375ZM8.71354 34.5729C8.91667 34.0104 9.22396 34.0417 9.22396 34.0417C9.22396 34.0417 9.5 33.9844 9.65104 34.5521L11.8906 42.4688C10.026 41.9219 8.31771 40.9844 6.86979 39.7552" fill="#EC6A5D"/>
<path d="M165.781 14.2812L162.208 10.6823C161.51 9.98433 160.375 9.98433 159.677 10.6823L159.307 11.052C158.792 11.5729 158.661 12.3333 158.911 12.9791L153.078 14.8073C152.38 15.0468 151.88 15.4739 151.635 16.0416C151.521 16.3073 150.245 19.3385 150.24 19.3541C149.995 19.9739 150 20.5156 150.25 20.9583C150.385 21.1927 150.604 21.5573 150.771 21.8177L145.745 26.875L144.875 26C144.745 25.8698 144.547 25.8281 144.375 25.901C144.203 25.9739 144.089 26.1406 144.089 26.3281L144.094 30.7916C144.094 31.0468 144.302 31.2552 144.557 31.2552L148.99 31.2604C149.177 31.2604 149.344 31.1458 149.417 30.9739C149.49 30.7968 149.448 30.5989 149.318 30.4687L148.453 29.5989L151.615 26.4218V30.7239H150.385C150.203 30.7239 150.031 30.8333 149.964 31.0104C149.891 31.1823 149.927 31.3802 150.062 31.5156L153.203 34.6666C153.292 34.7552 153.406 34.802 153.526 34.802C153.646 34.802 153.766 34.7552 153.854 34.6666L156.995 31.5156C157.125 31.3802 157.167 31.1823 157.094 31.0104C157.021 30.8333 156.854 30.7239 156.667 30.7239H155.443V26.3802L158.646 29.5989L157.776 30.4739C157.646 30.6041 157.609 30.8073 157.677 30.9791C157.75 31.1562 157.922 31.2656 158.104 31.2656L162.542 31.2604C162.797 31.2604 163 31.052 163 30.7968L163.005 26.3385C163.005 26.1458 162.896 25.9791 162.724 25.9062C162.552 25.8333 162.349 25.8802 162.219 26.0104L161.354 26.875L158.906 24.4166C159.094 24.3437 159.266 24.2343 159.406 24.0833C159.667 23.8125 159.797 23.4531 159.786 23.0781L159.703 20.7812C160.312 20.5208 160.932 20.2291 161.385 19.9531C162.307 19.3854 162.823 18.3073 163.005 17.276C163.328 17.552 163.724 17.7187 164.151 17.7187C164.625 17.7187 165.078 17.5364 165.411 17.1927L165.781 16.8229C166.12 16.4843 166.307 16.0312 166.307 15.552C166.307 15.0729 166.12 14.6198 165.781 14.2812ZM154.521 20L153.875 19.3541C153.74 19.2187 153.552 19.2187 153.385 19.2864L153.411 19.2291C153.505 18.9948 153.687 18.5625 153.833 18.5104C153.979 18.4583 154.167 18.3958 154.344 18.3333C154.354 18.5989 154.385 18.8906 154.464 19.1198C154.542 19.3593 154.646 19.5625 154.734 19.7083L154.521 20ZM147.474 29.927L147.875 30.3281H145.016V27.4531L145.417 27.8593C145.599 28.0364 145.891 28.0364 146.068 27.8593L153.552 20.3385L153.964 20.7552L152.854 22.25C152.609 22.5781 152.505 22.9843 152.562 23.3906C152.594 23.5937 152.661 23.7864 152.76 23.9531L147.474 29.2708C147.385 29.3541 147.339 29.4739 147.339 29.5989C147.339 29.7239 147.385 29.8385 147.474 29.927ZM155.552 31.6458L153.526 33.6823L151.5 31.6458H152.073C152.328 31.6458 152.536 31.4427 152.536 31.1875V25.4948L153.458 24.5677C153.656 24.6562 153.865 24.7187 154.078 24.7187C154.156 24.7187 154.229 24.7135 154.302 24.7031C154.38 24.6927 154.448 24.651 154.521 24.625V31.1875C154.521 31.4427 154.729 31.6458 154.984 31.6458H155.552ZM161.677 27.8645L162.083 27.4583L162.078 30.3333L159.219 30.3385L159.625 29.927C159.802 29.75 159.802 29.4531 159.625 29.2708L155.443 25.0677V23.9218L156.156 22.9635L161.026 27.8645C161.208 28.0416 161.5 28.0416 161.677 27.8645ZM158.865 23.1093C158.87 23.2343 158.823 23.3593 158.734 23.4531C158.651 23.5416 158.531 23.5989 158.401 23.6041C158.151 23.6458 157.917 23.4062 157.906 23.1406L157.854 21.4635C158.089 21.3958 158.411 21.2864 158.792 21.1458L158.865 23.1093ZM160.906 19.1562C159.927 19.75 158.068 20.4531 157.51 20.5989C157.292 20.6562 156.536 20.9062 155.875 21.7864L154.573 23.5416C154.474 23.677 154.333 23.7604 154.172 23.7864C154.005 23.7968 153.849 23.7656 153.719 23.6666C153.589 23.5677 153.5 23.4218 153.479 23.2604C153.453 23.0989 153.495 22.9375 153.594 22.8073L155.682 19.9895C155.823 19.7968 155.812 19.5416 155.63 19.3854C155.625 19.3802 155.453 19.1718 155.339 18.8229C155.25 18.5625 155.255 18.0156 155.276 17.7291C155.286 17.5729 155.224 17.4218 155.104 17.3281C155.021 17.2604 154.922 17.2291 154.818 17.2291C154.771 17.2291 154.724 17.2343 154.677 17.25C154.677 17.25 153.937 17.4843 153.521 17.6354C152.99 17.8281 152.74 18.427 152.557 18.8698L152.464 19.0937C152.302 19.4583 152.281 19.9791 152.286 20.2864L151.437 21.1406C151.302 20.9218 151.151 20.6718 151.057 20.5052C150.948 20.3125 150.964 20.0416 151.094 19.7031C151.094 19.7031 152.365 16.6823 152.479 16.4166C152.62 16.0885 152.922 15.8437 153.37 15.6927L159.484 13.7708L161.521 15.8229L162.161 16.4687C162.151 17.4583 161.734 18.651 160.906 19.1562ZM165.13 16.1666L164.76 16.5364C164.432 16.8645 163.865 16.8645 163.536 16.5364L162.948 15.9427L159.958 12.9375C159.625 12.5937 159.625 12.0468 159.958 11.7083L160.328 11.3385C160.667 11 161.214 11 161.557 11.3385L165.13 14.9375C165.292 15.0989 165.385 15.3177 165.385 15.552C165.385 15.7864 165.292 16.0052 165.13 16.1666Z" fill="white"/>
<path d="M53.927 23.8385C53.1198 23.8385 52.7604 23.4167 52.7604 22.651V14.9844H55.9531C58.4843 14.9844 59.9479 16.2865 59.9479 19.2969C59.9479 22.0833 58.9739 23.8385 55.6354 23.8385H53.927ZM54.5729 22.3021H55.651C57.4479 22.3021 58.0937 21.4062 58.0937 19.3229C58.0937 17.0938 57.302 16.5312 55.9218 16.5312H54.5729" fill="#EC6A5D"/>
<path d="M65.0572 24.0104C62.4687 24.0104 61.1458 22.7656 61.1458 19.4219C61.1458 16.0677 62.4687 14.8125 65.0572 14.8125C67.6301 14.8125 68.9583 16.0677 68.9583 19.4219C68.9583 22.7656 67.6301 24.0104 65.0572 24.0104ZM65.0572 16.375C63.6926 16.375 63.0155 16.8177 63.0155 19.4219C63.0155 22.0104 63.6926 22.4479 65.0572 22.4479C66.3958 22.4479 67.0885 22.0104 67.0885 19.4219C67.0885 16.8177 66.3958 16.375 65.0572 16.375Z" fill="#EC6A5D"/>
<path d="M72.453 23.8385H70.6561V15.9687C70.6561 14.6093 72.1093 14.5781 72.5988 15.3177L76.1353 20.6822V15.7968C76.1353 15.2291 76.3228 14.9843 76.8957 14.9843H77.9322V22.7499C77.9322 24.1979 76.3801 24.3124 75.7915 23.4583L72.453 18.427" fill="#EC6A5D"/>
<path d="M82.0051 23.8385H80.2083V15.9687C80.2083 14.6093 81.6614 14.5781 82.151 15.3177L85.6874 20.6822V15.7968C85.6874 15.2291 85.8749 14.9843 86.4478 14.9843H87.4843V22.7499C87.4843 24.1979 85.9322 24.3124 85.3437 23.4583L82.0051 18.427" fill="#EC6A5D"/>
<path d="M94.2604 14.9844C95.0365 14.9844 95.1354 15.2604 95.1354 15.75V16.5312H91.4531V18.6562H94.8385V19.4688C94.8385 19.8698 94.6771 20.1042 94.1719 20.1042H91.4531V22.3021H95.2969V23.125C95.2969 23.6458 94.9948 23.8333 94.4062 23.8333H89.6562V14.9844" fill="#EC6A5D"/>
<path d="M103.25 14.9844V15.6615C103.25 16.1562 103.135 16.5312 102.745 17.0365L98.7343 22.3021H103.38V22.8542C103.38 23.401 103.151 23.8333 102.474 23.8333H96.5208V23.2865C96.5208 22.6927 96.6197 22.3177 96.9947 21.8229L101.036 16.5312H96.651V15.9948C96.651 15.375 97.0364 14.9844 97.7864 14.9844" fill="#EC6A5D"/>
<path d="M75.5728 33.2448C74.0676 33.2448 73.2186 32.6407 73.2186 30.2969C73.2186 27.9375 74.0676 27.3334 75.5728 27.3334C77.0728 27.3334 77.9113 27.9375 77.9113 30.2969C77.9113 32.6407 77.0728 33.2448 75.5728 33.2448ZM75.5728 27.8802C74.4634 27.8802 73.8749 28.2605 73.8749 30.2969C73.8749 32.3282 74.4634 32.698 75.5728 32.698C76.6665 32.698 77.2551 32.3282 77.2551 30.2969C77.2551 28.2605 76.6665 27.8802 75.5728 27.8802Z" fill="#EC6A5D"/>
<path d="M79.1614 31.1458V27.4479H79.4947C79.7083 27.4479 79.7916 27.5468 79.7916 27.802V31.1354C79.7916 32.0104 80.1718 32.6979 81.3333 32.6979C82.4999 32.6979 82.8697 32.0104 82.8697 31.1354V27.802C82.8697 27.5468 82.9635 27.4479 83.1718 27.4479H83.4999V31.1458C83.4999 32.3541 82.9062 33.25 81.3333 33.25C79.7655 33.25 79.1614 32.3541 79.1614 31.1458Z" fill="#EC6A5D"/>
<path d="M53.6562 36.6875C56.0156 36.6875 57.1093 37.5937 57.1093 39.6667C57.1093 41.0677 56.3177 41.875 55.427 42.3385L57.2083 45.5365H55.8698C55.3541 45.5365 55.0677 45.3646 54.8229 44.9167L53.7031 42.7031H52.4635V45.5365H50.6666V37.8281C50.6666 37.1042 51.0677 36.6875 51.802 36.6875H53.6562ZM52.4635 41.2292H53.5573C54.7656 41.2292 55.2395 40.6354 55.2395 39.6667C55.2395 38.625 54.7812 38.2344 53.5833 38.2344H52.4635" fill="#EC6A5D"/>
<path d="M63.453 36.6875C64.2291 36.6875 64.3333 36.9635 64.3333 37.4531V38.2344H60.6458V40.3594H64.0312V41.1719C64.0312 41.5729 63.8697 41.8073 63.3697 41.8073H60.6458V44.0052H64.4895V44.8281C64.4895 45.349 64.1874 45.5365 63.5989 45.5365H58.8489V36.6875" fill="#EC6A5D"/>
<path d="M71.7968 38.4062C71.3073 38.25 70.5729 38.0781 69.5937 38.0781C68.1875 38.0781 67.3802 38.7396 67.3802 41.0833C67.3802 43.4271 68.2135 44.151 69.7708 44.151C70.776 44.151 71.4062 43.9635 71.8958 43.8021V44.7396C71.8958 45.4792 70.8177 45.7083 69.5416 45.7083C67.1093 45.7083 65.526 44.4375 65.526 41.0833C65.526 37.6823 67.0208 36.5156 69.6823 36.5156C70.9635 36.5156 71.7968 36.7865 71.7968 37.5938" fill="#EC6A5D"/>
<path d="M73.8697 36.6875C74.3593 36.6875 74.6614 36.875 74.8489 37.25L76.5155 40.5885L78.0676 37.25C78.2395 36.8594 78.4843 36.6875 78.9583 36.6875H80.0989L77.2916 42.2083V45.5365H75.4947V42.2083L72.6301 36.6875" fill="#EC6A5D"/>
<path d="M87.1771 38.4062C86.6875 38.25 85.9531 38.0781 84.974 38.0781C83.5677 38.0781 82.7604 38.7396 82.7604 41.0833C82.7604 43.4271 83.5938 44.151 85.1458 44.151C86.1563 44.151 86.7865 43.9635 87.276 43.8021V44.7396C87.276 45.4792 86.1979 45.7083 84.9167 45.7083C82.4896 45.7083 80.9062 44.4375 80.9062 41.0833C80.9062 37.6823 82.401 36.5156 85.0625 36.5156C86.3385 36.5156 87.1771 36.7865 87.1771 37.5938" fill="#EC6A5D"/>
<path d="M94.2552 44.0052V44.7969C94.2552 45.3177 93.9062 45.5365 93.2864 45.5365H90.0833C89.276 45.5365 88.901 45.1146 88.901 44.3229V36.6875H90.7031V44.0052" fill="#EC6A5D"/>
<path d="M100.078 36.6875C100.854 36.6875 100.958 36.9635 100.958 37.4531V38.2344H97.276V40.3594H100.656V41.1719C100.656 41.5729 100.495 41.8073 99.9948 41.8073H97.276V44.0052H101.115V44.8281C101.115 45.349 100.812 45.5365 100.224 45.5365H95.4791V36.6875" fill="#EC6A5D"/>
<path d="M109.068 36.6875V37.3646C109.068 37.8542 108.953 38.2344 108.568 38.7396L104.552 44.0052H109.198V44.5521C109.198 45.1042 108.969 45.5365 108.292 45.5365H102.339V44.9844C102.339 44.3958 102.443 44.0208 102.812 43.526L106.854 38.2344H102.469V37.6979C102.469 37.0781 102.854 36.6875 103.604 36.6875" fill="#EC6A5D"/>
<path d="M133.391 45.6042C132.906 45.6042 132.688 45.3542 132.688 44.8906V40.2656H134.615C136.146 40.2656 137.031 41.0469 137.031 42.8646C137.031 44.5469 136.437 45.6042 134.427 45.6042H133.391ZM133.781 44.6823H134.432C135.516 44.6823 135.906 44.1406 135.906 42.8802C135.906 41.5365 135.432 41.1979 134.599 41.1979H133.781" fill="white"/>
<path d="M140.771 40.2656C141.24 40.2656 141.302 40.427 141.302 40.7239V41.1979H139.078V42.4791H141.12V42.9687C141.12 43.2135 141.021 43.3541 140.719 43.3541H139.078V44.6823H141.396V45.177C141.396 45.4895 141.213 45.6041 140.854 45.6041H137.99V40.2656H140.771ZM140.849 38.2448L140.12 39.2343C139.953 39.4427 139.729 39.5468 139.427 39.5468H139.062L139.729 38.2448" fill="white"/>
<path d="M145.807 41.3021C145.51 41.2083 145.068 41.1042 144.479 41.1042C143.625 41.1042 143.141 41.5052 143.141 42.9167C143.141 44.3333 143.646 44.7708 144.583 44.7708C145.187 44.7708 145.573 44.6562 145.865 44.5625V45.125C145.865 45.5729 145.213 45.7135 144.443 45.7135C142.974 45.7135 142.021 44.9427 142.021 42.9167C142.021 40.8698 142.922 40.1562 144.531 40.1562C145.302 40.1562 145.807 40.3229 145.807 40.8125" fill="white"/>
<path d="M147.49 40.2656C147.844 40.2656 147.932 40.4115 147.932 40.75V42.4635H150.229V40.75C150.229 40.4115 150.344 40.2656 150.693 40.2656H151.318V45.6042H150.229V43.3906H147.932V45.6042H146.844V40.2656" fill="white"/>
<path d="M155.417 40.2656C155.885 40.2656 155.948 40.427 155.948 40.7239V41.1979H153.724V42.4791H155.766V42.9687C155.766 43.2135 155.667 43.3541 155.365 43.3541H153.724V44.6823H156.042V45.177C156.042 45.4895 155.859 45.6041 155.5 45.6041H152.635V40.2656H155.417ZM154.219 38.2448L154.885 39.5468H154.531C154.271 39.5468 154.047 39.4791 153.906 39.302L153.089 38.2448" fill="white"/>
<path d="M160.922 40.2656V40.6771C160.922 41.0156 160.755 41.2344 160.375 41.2344H159.255V45.6042H158.167V41.2344H156.51V40.8646C156.51 40.4792 156.682 40.2656 157.135 40.2656" fill="white"/>
<path d="M164.38 40.2656C164.849 40.2656 164.911 40.4271 164.911 40.724V41.1979H162.687V42.4792H164.729V42.9688C164.729 43.2135 164.635 43.3542 164.328 43.3542H162.687V44.6823H165.005V45.1771C165.005 45.4896 164.823 45.6042 164.469 45.6042H161.604V40.2656" fill="white"/>
<path d="M167.906 40.2656C169.333 40.2656 169.99 40.8125 169.99 42.0625C169.99 42.9115 169.516 43.401 168.974 43.6771L170.052 45.6042H169.245C168.932 45.6042 168.76 45.5052 168.609 45.2292L167.932 43.8958H167.187V45.6042H166.104V40.9531C166.104 40.5156 166.344 40.2656 166.786 40.2656H167.906ZM167.187 43.0052H167.849C168.573 43.0052 168.865 42.6458 168.865 42.0625C168.865 41.4323 168.583 41.1979 167.865 41.1979H167.187" fill="white"/>
<path d="M171.109 45.6042H172.193V40.2656H171.109V45.6042Z" fill="white"/>
<path d="M176.286 40.2656C176.755 40.2656 176.818 40.4271 176.818 40.724V41.1979H174.594V42.4792H176.63V42.9688C176.63 43.2135 176.536 43.3542 176.234 43.3542H174.594V44.6823H176.911V45.1771C176.911 45.4896 176.729 45.6042 176.37 45.6042H173.505V40.2656" fill="white"/>
</g>
<defs>
<clipPath id="clip0_19_563">
<rect width="186" height="55" fill="white"/>
</clipPath>
</defs>
</svg>
