<svg width="230" height="61" viewBox="0 0 230 61" fill="none" xmlns="http://www.w3.org/2000/svg">
<g clip-path="url(#clip0_26_18656)">
<path d="M24.6979 60.4688C11.0781 60.4688 0 49.5208 0 36.0625V0H204.948C218.563 0 229.641 10.9479 229.641 24.4063V60.4688" fill="white"/>
<path d="M204.948 5.66663H50.1145V36.0625C50.1145 46.3958 58.6458 54.802 69.1353 54.802H223.974V24.4062C223.974 14.0729 215.437 5.66663 204.948 5.66663Z" fill="white"/>
<path d="M222.083 52.9114H69.1353C59.6874 52.9114 51.9999 45.3541 51.9999 36.0625V7.55725H204.948C214.396 7.55725 222.083 15.1145 222.083 24.4062V52.9114ZM204.948 5.66663H50.1145V36.0625C50.1145 46.3958 58.6458 54.802 69.1353 54.802H223.969V24.4062C223.969 14.0729 215.437 5.66663 204.948 5.66663Z" fill="#FCC42F"/>
<path d="M166.714 54.802L179.724 28.2239L166.432 5.66663H204.948C215.437 5.66663 223.969 14.0729 223.969 24.4062V54.802" fill="#FCC42F"/>
<path d="M204.948 7.55725H169.74L181.87 28.1406L169.74 52.9114H222.083V24.4062C222.083 15.1145 214.396 7.55725 204.948 7.55725Z" fill="#FCC42F"/>
<path d="M209.906 41.3438H208.703C208.604 41.3438 208.51 41.3542 208.417 41.3698C208.979 35.1094 209.849 25.4532 210.266 21.0782C210.312 20.6303 209.984 20.2344 209.536 20.1928C209.083 20.1459 208.698 20.4792 208.656 20.9219C208.005 27.6407 206.302 46.823 206.286 47.0157C206.255 47.3438 205.937 47.6094 205.568 47.6094H192.474C192.104 47.6094 191.792 47.3438 191.76 47.0157C191.74 46.823 190.036 27.6407 189.391 20.9219C189.349 20.4792 188.958 20.1459 188.505 20.1928C188.057 20.2344 187.729 20.6303 187.776 21.0782C188.193 25.4532 189.062 35.1094 189.625 41.3698C189.531 41.349 189.437 41.3386 189.339 41.3386H188.141C187.359 41.3386 186.729 41.9688 186.729 42.7448V47.8178C186.729 48.599 187.359 49.2292 188.141 49.2292H189.339C189.922 49.2292 190.427 48.8698 190.635 48.3646C191.068 48.8959 191.729 49.2292 192.474 49.2292H205.568C206.312 49.2292 206.974 48.8959 207.406 48.3646C207.615 48.875 208.12 49.2344 208.703 49.2344H209.906C210.682 49.2344 211.312 48.599 211.312 47.823V42.75C211.312 41.974 210.682 41.3438 209.906 41.3438Z" fill="#1C1C1B"/>
<path d="M193.969 24.802V27.0937H194.641C195.031 27.0937 195.245 26.9114 195.245 26.3593V25.7083C195.245 25.0156 195.021 24.802 194.49 24.802H193.969ZM193.969 21.7604V23.7343H194.427C194.865 23.7343 195.13 23.5416 195.13 22.9479V22.5312C195.13 21.9948 194.948 21.7604 194.531 21.7604H193.969ZM196.302 22.4114V22.677C196.302 23.4479 196.068 23.927 195.547 24.1718V24.1927C196.172 24.4375 196.417 24.9948 196.417 25.7812V26.3906C196.417 27.5416 195.812 28.1562 194.641 28.1562H192.792V20.6979H194.562C195.776 20.6979 196.302 21.2604 196.302 22.4114Z" fill="#1C1C1B"/>
<path d="M198.458 25.7916H199.589L199.031 22.0156H199.01L198.458 25.7916ZM201.135 28.1562H199.948L199.75 26.802H198.307L198.104 28.1562H197.031L198.224 20.6979H199.938" fill="#1C1C1B"/>
<path d="M205.281 25.375V26.3646C205.281 27.5625 204.687 28.2448 203.536 28.2448C202.38 28.2448 201.786 27.5625 201.786 26.3646V22.4844C201.786 21.2917 202.38 20.6094 203.536 20.6094C204.687 20.6094 205.281 21.2917 205.281 22.4844V23.2083H204.172V22.4115C204.172 21.8802 203.937 21.6771 203.568 21.6771C203.193 21.6771 202.958 21.8802 202.958 22.4115V26.4427C202.958 26.974 203.193 27.1667 203.568 27.1667C203.937 27.1667 204.172 26.974 204.172 26.4427V25.375" fill="#1C1C1B"/>
<path d="M196.323 30.8855V36.2188H196.984C197.359 36.2188 197.583 36.0261 197.583 35.4896V31.6094C197.583 31.0782 197.359 30.8855 196.984 30.8855H196.323ZM195.151 29.8177H197.005C198.182 29.8177 198.755 30.4688 198.755 31.6667V35.4375C198.755 36.6355 198.182 37.2813 197.005 37.2813H195.151" fill="#1C1C1B"/>
<path d="M200.891 32.9635H202.5V34.0312H200.891V36.2187H202.917V37.2812H199.719V29.8229H202.917V30.8854H200.891" fill="#1C1C1B"/>
<path d="M193.786 38.9427H197.411V40.0105H196.187V46.4063H195.01V40.0105H193.786" fill="#1C1C1B"/>
<path d="M199.312 40.0105V42.3021H199.771C200.203 42.3021 200.474 42.1094 200.474 41.5157V40.7813C200.474 40.2448 200.292 40.0105 199.875 40.0105H199.312ZM200.589 46.4063C200.526 46.2136 200.484 46.099 200.484 45.4896V44.3177C200.484 43.625 200.25 43.3698 199.714 43.3698H199.312V46.4063H198.135V38.9427H199.906C201.125 38.9427 201.646 39.5105 201.646 40.6615V41.25C201.646 42.0157 201.396 42.5052 200.88 42.75V42.7709C201.464 43.0157 201.656 43.573 201.656 44.349V45.5C201.656 45.8646 201.667 46.1302 201.781 46.4063" fill="#1C1C1B"/>
<path d="M202.641 46.4063H203.813V38.9427H202.641V46.4063Z" fill="#1C1C1B"/>
<path d="M210.745 17.2969H187.297V15.349C187.297 15.2813 187.328 15.25 187.323 15.25H189.021C189.208 15.25 189.396 15.1771 189.542 15.0521L191.667 13.1927C191.76 13.1094 191.995 13.0208 192.286 13.0208H205.755C206.047 13.0208 206.281 13.1094 206.375 13.1927L208.5 15.0521C208.646 15.1771 208.833 15.25 209.026 15.25H210.719C210.714 15.25 210.745 15.2813 210.745 15.349V17.2969ZM210.719 13.6615H209.323L207.417 12C207.01 11.6406 206.406 11.4375 205.755 11.4375H192.286C191.641 11.4375 191.036 11.6406 190.625 12L188.719 13.6615H187.323C186.432 13.6615 185.714 14.4167 185.714 15.349V17.4896C185.714 17.7917 185.786 18.0833 185.932 18.3438C185.99 18.4531 186.078 18.5469 186.187 18.6198C186.443 18.7917 186.745 18.8802 187.052 18.8802H210.99C211.297 18.8802 211.599 18.7917 211.859 18.6198C211.964 18.5469 212.052 18.4531 212.109 18.3438C212.255 18.0833 212.328 17.7917 212.328 17.4896V15.349C212.328 14.4167 211.609 13.6615 210.719 13.6615Z" fill="#1C1C1B"/>
<path d="M205.75 13.7604H192.292C191.922 13.7604 191.62 14.0625 191.62 14.427C191.62 14.802 191.922 15.0989 192.292 15.0989H205.75C206.12 15.0989 206.422 14.802 206.422 14.427C206.422 14.0625 206.12 13.7604 205.75 13.7604Z" fill="#1C1C1B"/>
<path d="M102.901 5.66663H50.1145V36.0625C50.1145 46.3958 58.6458 54.802 69.1353 54.802H121.927V24.4062C121.927 14.0729 113.391 5.66663 102.901 5.66663Z" fill="#FCC42F"/>
<path d="M63.651 29.3594C58.8489 29.3594 54.9583 33.25 54.9583 38.0521C54.9583 42.8542 58.8489 46.7448 63.651 46.7448C68.4583 46.7448 72.3489 42.8542 72.3489 38.0521C72.3489 33.25 68.4583 29.3594 63.651 29.3594Z" fill="white"/>
<path d="M69.3229 39.4688H65.0729V43.7188H62.2344V39.4688H57.9844V36.6355H62.2344V32.3802H65.0729V36.6355H69.3229" fill="#1C1C1B"/>
<path d="M55.7864 26.5937V17.1979H58.2708V24.5156H61.828V26.5937" fill="#1C1C1B"/>
<path d="M62.9426 26.5937V17.1979H69.0155V19.276H65.4322V20.7552H68.4947V22.8385H65.4322V24.5156H69.1614V26.5937" fill="#1C1C1B"/>
<path d="M75.0885 26.5937V19.276H72.6041V17.1979H80.0677V19.276H77.5781V26.5937" fill="#1C1C1B"/>
<path d="M83.5521 21.4739H84.4479C85.4479 21.4739 85.9531 21.0625 85.9531 20.2343C85.9531 19.8281 85.8229 19.5468 85.5677 19.3958C85.3125 19.2395 84.9375 19.1614 84.4479 19.1614H83.5521V21.4739ZM81.0625 26.5989V17.1979H84.6198C85.125 17.1979 85.6042 17.2448 86.0625 17.3385C86.5208 17.4375 86.9167 17.5989 87.2604 17.8333C87.6042 18.0625 87.875 18.375 88.0781 18.7656C88.2813 19.1562 88.3802 19.6458 88.3802 20.2343C88.3802 20.9062 88.2448 21.4687 87.9688 21.9114C87.6979 22.3541 87.3281 22.6979 86.8646 22.9531L88.901 26.5989H86.125L84.5052 23.4427H83.5521V26.5989" fill="#1C1C1B"/>
<path d="M89.8698 26.5989H92.3593V17.1979H89.8698V26.5989Z" fill="#1C1C1B"/>
<path d="M75.3801 43.276V33.8698H81.5103V35.9531H77.8697V37.75H80.9895V39.8333H77.8697V43.276" fill="#1C1C1B"/>
<path d="M84.9218 38.7031L84.7604 39.3541H86.4948L86.3385 38.7031C86.2239 38.25 86.1041 37.7604 85.9895 37.2291C85.875 36.6979 85.7604 36.1979 85.6406 35.7239H85.5833C85.4791 36.2031 85.3698 36.7083 85.2604 37.2343C85.151 37.7604 85.0364 38.25 84.9218 38.7031ZM81.3073 43.276L84.1666 33.8698H87.1718L90.0364 43.276H87.4062L86.9427 41.276H84.3125L83.8489 43.276" fill="#1C1C1B"/>
<path d="M94.5624 43.4479C93.9687 43.4479 93.3958 43.3489 92.8541 43.151C92.3072 42.9531 91.8333 42.651 91.4218 42.2552C91.0103 41.8541 90.6822 41.3541 90.4426 40.75C90.203 40.1458 90.0833 39.4479 90.0833 38.6458C90.0833 37.8541 90.2083 37.151 90.4583 36.5416C90.7083 35.927 91.0416 35.4114 91.4635 34.9948C91.8801 34.5729 92.3645 34.25 92.9114 34.0312C93.4583 33.8073 94.026 33.6979 94.6249 33.6979C95.2499 33.6979 95.8124 33.8229 96.302 34.0677C96.7968 34.3125 97.2083 34.6041 97.5468 34.9427L96.2447 36.5312C96.0155 36.3333 95.776 36.1666 95.5312 36.0312C95.2812 35.9062 94.9999 35.8385 94.6822 35.8385C94.401 35.8385 94.1405 35.901 93.8958 36.026C93.651 36.151 93.4322 36.3333 93.2447 36.5625C93.0572 36.7916 92.9062 37.0781 92.7968 37.4166C92.6822 37.75 92.6301 38.1354 92.6301 38.5573C92.6301 39.4479 92.8124 40.125 93.1874 40.5989C93.5572 41.0677 94.0468 41.3073 94.651 41.3073C95.0208 41.3073 95.3437 41.2291 95.6301 41.0677C95.9114 40.9062 96.1562 40.7187 96.3593 40.4948L97.6614 42.0573C97.2551 42.5208 96.7916 42.8698 96.2655 43.0989C95.7395 43.3333 95.1718 43.4479 94.5624 43.4479Z" fill="#1C1C1B"/>
<path d="M98.6198 43.276H101.104V33.8698H98.6198V43.276Z" fill="#1C1C1B"/>
<path d="M102.875 43.276V33.8698H105.365V41.1927H108.922V43.276" fill="#1C1C1B"/>
<path d="M110.031 43.276V33.8698H116.109V35.9531H112.521V37.4323H115.589V39.5156H112.521V41.1927H116.255V43.276" fill="#1C1C1B"/>
<path d="M28.4062 25.7448C26.7135 28.2343 28.151 31.5104 29.8958 33.1718C31.4895 34.6823 32.7655 35.0364 32.9322 35.0781L33.7447 33.5208L36.0885 39.9323L29.4635 41.2812L30.3437 39.6458L29.4478 39.1458C26.6562 37.3281 26.0676 34.8593 25.8749 34.0885C25.5416 32.7604 25.0468 28.7864 28.4062 25.7448Z" fill="#1C1C1B"/>
<path d="M28.375 25.8489C29.5781 28.6093 33.1146 29.1406 35.4479 28.552C37.5208 28.026 38.5052 27.1718 38.6719 27.0156L38.6615 27L37.776 25.4635L44.4427 26.9218L42.0313 33.2395L41.1354 31.6458L40.2656 32.1198C37.2396 33.5104 34.8333 32.6927 34.0781 32.4427C32.7813 32.0156 29.1562 30.3125 28.375 25.8489Z" fill="#1C1C1B"/>
<path d="M40.1613 19.1927C39.6978 22.4895 37.7134 24.0729 37.0936 24.5729C36.0311 25.4375 32.6457 27.5677 28.4634 25.8177C31.4373 26.2916 33.7967 23.6041 34.5571 21.3177C35.2446 19.2656 35.0415 17.9687 34.9998 17.7708L34.979 17.7656L33.2134 17.6927L38.0259 12.8541L42.0519 18.2864L40.2342 18.1823" fill="#1C1C1B"/>
<path fill-rule="evenodd" clip-rule="evenodd" d="M19.9375 16.4115C18.4167 16.4115 17.1875 15.1823 17.1875 13.6563C17.1875 12.1354 18.4167 10.9062 19.9375 10.9062C21.4583 10.9062 22.6927 12.1354 22.6927 13.6563C22.6927 15.1823 21.4583 16.4115 19.9375 16.4115Z" fill="#1C1C1B"/>
<path d="M15.6771 29.7968C15.9115 29.151 16.2604 29.1927 16.2604 29.1927C16.2604 29.1927 16.5781 29.125 16.7552 29.7708L19.3281 38.8073C17.1823 38.1823 15.224 37.1198 13.5573 35.7083L15.6771 29.7968ZM23.7031 5.66663C13.7604 5.66663 5.67188 13.7552 5.67188 23.6979C5.67188 33.6406 13.7604 41.7291 23.7031 41.7291C24.2344 41.7291 24.7552 41.6979 25.276 41.651L25.3958 43.4635L28.6979 40.2708L25.0052 37.4531L25.1458 39.3541C24.6719 39.401 24.1875 39.4323 23.7031 39.4323C22.9375 39.4323 22.1875 39.375 21.4531 39.2656L21.3802 38.7864L19.6667 24.1875C19.4323 21.4323 21.0052 20.9948 21.9792 21.4062L27.4479 23.6041C28.0729 23.875 28.375 23.3489 28.375 23.3489C28.375 23.3489 28.7292 22.802 28.0938 22.3958C28.0938 22.3958 20.6406 17.4583 19.0521 17.1562C16.8854 16.7552 14.7396 18.5104 14.2656 20.7968L11.6198 33.7604C9.34375 31.0312 7.96875 27.5208 7.96875 23.6979C7.96875 15.0208 15.026 7.9635 23.7031 7.9635C28.3385 7.9635 32.5104 9.97913 35.3906 13.177L37.0052 11.5364C33.7083 7.93225 28.9635 5.66663 23.7031 5.66663Z" fill="#1C1C1B"/>
<path d="M136.389 27.146V28.444H134.673V35H133.089V28.444H131.373V27.146H136.389ZM137.153 35V27.146H138.737V35H137.153ZM143.267 29.797C143.267 29.225 143.197 28.8107 143.058 28.554C142.926 28.29 142.68 28.158 142.321 28.158C142.123 28.158 141.958 28.213 141.826 28.323C141.701 28.4257 141.602 28.598 141.529 28.84C141.455 29.0747 141.404 29.3863 141.375 29.775C141.345 30.1563 141.331 30.6257 141.331 31.183C141.331 31.777 141.349 32.2573 141.386 32.624C141.43 32.9907 141.492 33.2767 141.573 33.482C141.661 33.68 141.767 33.8157 141.892 33.889C142.024 33.955 142.174 33.988 142.343 33.988C142.482 33.988 142.61 33.966 142.728 33.922C142.852 33.8707 142.959 33.7753 143.047 33.636C143.135 33.4893 143.204 33.2877 143.256 33.031C143.307 32.767 143.333 32.4223 143.333 31.997H144.917C144.917 32.4223 144.884 32.8257 144.818 33.207C144.752 33.5883 144.627 33.922 144.444 34.208C144.268 34.494 144.015 34.7177 143.685 34.879C143.362 35.0403 142.94 35.121 142.42 35.121C141.826 35.121 141.353 35.0257 141.001 34.835C140.649 34.6443 140.377 34.3693 140.187 34.01C140.003 33.6507 139.882 33.2217 139.824 32.723C139.772 32.2243 139.747 31.6743 139.747 31.073C139.747 30.479 139.772 29.9327 139.824 29.434C139.882 28.928 140.003 28.4953 140.187 28.136C140.377 27.7767 140.649 27.498 141.001 27.3C141.353 27.0947 141.826 26.992 142.42 26.992C142.984 26.992 143.428 27.0837 143.751 27.267C144.081 27.4503 144.326 27.685 144.488 27.971C144.649 28.2497 144.748 28.554 144.785 28.884C144.829 29.2067 144.851 29.511 144.851 29.797H143.267ZM147.404 27.146V30.292H147.426L149.428 27.146H151.144L149.01 30.512L151.386 35H149.604L147.987 31.777L147.404 32.668V35H145.82V27.146H147.404ZM156.117 27.146V28.444H153.312V30.292H155.952V31.59H153.312V33.702H156.227V35H151.728V27.146H156.117ZM161.622 27.146V28.444H159.906V35H158.322V28.444H156.606V27.146H161.622Z" fill="#1C1C1B"/>
</g>
<defs>
<clipPath id="clip0_26_18656">
<rect width="230" height="61" fill="white"/>
</clipPath>
</defs>
</svg>
