<svg width="208" height="38" viewBox="0 0 208 38" fill="none" xmlns="http://www.w3.org/2000/svg">
<g clip-path="url(#clip0_19_75)">
<path d="M56.0521 25.6615H55.4428C55.4063 25.2917 55.2865 24.9271 55.0886 24.5729H56.0521V25.6615ZM54.2709 27.6406L37.8178 24.0885L38.0469 23.026L54.5 26.5781L54.2709 27.6406ZM39.2188 25.6615V25.4896L40.0053 25.6615H39.2188ZM39.5625 18.8385C39.948 19.3229 40.5886 19.7448 41.3178 19.974C42.1459 20.2344 43.8073 20.4687 45.9428 19.2708L46.9792 20.125L46.4323 20.7969C46.3438 20.9115 46.3594 21.0833 46.474 21.1771C46.5261 21.2187 46.5834 21.2344 46.6407 21.2344C46.7188 21.2344 46.7969 21.1979 46.8542 21.1354L47.3907 20.4635L47.8698 20.8594L47.3334 21.526C47.2396 21.6406 47.2553 21.8125 47.375 21.9062C47.4219 21.9479 47.4792 21.9635 47.5417 21.9635C47.6198 21.9635 47.698 21.9271 47.75 21.8646L48.2865 21.1979L48.448 21.3333C48.5678 21.4271 48.6875 21.5208 48.8073 21.6146L48.2969 22.2448C48.2032 22.3594 48.224 22.5312 48.3386 22.625C48.3907 22.6615 48.448 22.6823 48.5105 22.6823C48.5834 22.6823 48.6615 22.6458 48.7136 22.5833L49.2448 21.9271C49.9428 22.4062 50.6823 22.7917 51.4532 23.0781C53.0886 23.6823 54.0261 24.625 54.2969 25.4375L38.2917 21.9844C38.5313 20.9427 39.1459 19.5573 39.5625 18.8385ZM44.3282 17.3073C44.0261 17.0365 43.8907 16.6667 44.0053 16.4271C44.0469 16.3385 44.1303 16.2812 44.2396 16.2552C44.2813 16.2448 44.3178 16.2448 44.3594 16.2448C44.5521 16.2448 44.7761 16.3281 44.9636 16.4844C45.1303 16.6198 45.2709 16.7969 45.3959 17.0208C45.5417 17.2917 45.6563 17.5729 45.7448 17.8854C45.4219 17.8333 45.1355 17.75 44.8698 17.6354C44.6459 17.5417 44.474 17.4375 44.3282 17.3073ZM46.5782 16.9427C46.6615 16.7187 46.7553 16.5365 46.875 16.3854C47.0782 16.1302 47.349 15.9792 47.573 15.9792C47.6303 15.9792 47.6875 15.9844 47.7344 16.0104C47.8282 16.0417 47.8907 16.1198 47.9219 16.2292C47.9792 16.4427 47.9115 16.724 47.7396 16.9635C47.6094 17.1406 47.448 17.2917 47.2292 17.4271C46.9688 17.599 46.6928 17.7292 46.3855 17.8333C46.4167 17.5104 46.4844 17.2187 46.5782 16.9427ZM55.6771 23.5H54.2292C53.6198 22.9323 52.8021 22.4323 51.823 22.0729C51.1928 21.8385 50.5782 21.526 49.9948 21.1406C50.7865 21.4635 51.5886 21.6875 52.4011 21.8021C54.125 22.0469 55.2396 22.7656 55.6771 23.5ZM56.948 23.9844C56.8073 22.4167 55.0417 21.099 52.5521 20.7396C51.5469 20.599 50.5469 20.276 49.5886 19.776L46.698 18.2865C46.9948 18.1771 47.2657 18.0417 47.5209 17.8802C47.7917 17.7031 48.0053 17.5104 48.1719 17.2812C48.448 16.901 48.5417 16.4531 48.4375 16.0781C48.3594 15.8125 48.1823 15.6094 47.9375 15.5104C47.4636 15.3177 46.8542 15.5417 46.4584 16.0521C46.2969 16.25 46.1771 16.4844 46.0782 16.7656C46.0469 16.849 46.0209 16.9323 45.9948 17.0208C45.9532 16.9323 45.9115 16.8437 45.8594 16.7604C45.7032 16.474 45.5209 16.25 45.3021 16.0677C44.9428 15.776 44.5053 15.6458 44.125 15.7344C43.8542 15.7917 43.6355 15.9583 43.5261 16.1927C43.3021 16.651 43.4844 17.276 43.9688 17.7031C44.1615 17.875 44.3855 18.0156 44.6563 18.1302C44.8855 18.2292 45.125 18.3021 45.375 18.3594C43.7084 19.2865 42.4323 19.2031 41.6407 18.9531C40.8542 18.7083 40.4063 18.2448 40.2969 17.9948C40.1823 17.7396 39.9532 17.5677 39.6771 17.526C39.4011 17.4948 39.1303 17.599 38.9584 17.8177C38.4219 18.4948 37.2448 20.9531 37.125 22.4896C37.0678 22.5833 37.0261 22.6875 37 22.8021L36.7709 23.8646C36.6459 24.4427 37.0105 25.0156 37.5886 25.1406L38.1511 25.2604V25.6615C38.1511 26.25 38.6303 26.7344 39.2188 26.7344H44.974L54.0417 28.6875C54.6198 28.8125 55.1928 28.4427 55.3178 27.8646L55.5469 26.8021C55.5521 26.7812 55.5521 26.7552 55.5521 26.7344H56.0521C56.6459 26.7344 57.125 26.25 57.125 25.6615V24.5729C57.125 24.3542 57.0573 24.1562 56.948 23.9844Z" fill="black"/>
<path d="M17.8073 23.0052C16.4844 24.9531 17.6094 27.5208 18.9792 28.8177C20.2239 30.0052 21.2239 30.2813 21.3542 30.3125L21.9896 29.0938L23.8333 34.1198L18.6406 35.1719L19.3281 33.8958L18.625 33.5C16.4427 32.0781 15.9792 30.1406 15.8281 29.5365C15.5677 28.4948 15.1771 25.3854 17.8073 23.0052Z" fill="black"/>
<path d="M17.7864 23.0885C18.7291 25.2448 21.4999 25.6667 23.328 25.2031C24.953 24.7865 25.7239 24.1198 25.8541 24L25.8489 23.9844L25.151 22.7812L30.3749 23.9271L28.4843 28.875L27.7864 27.625L27.0989 27.9948C24.7291 29.0885 22.8489 28.4427 22.2551 28.25C21.2343 27.9167 18.3958 26.5833 17.7864 23.0885Z" fill="black"/>
<path d="M27.0208 17.8698C26.6563 20.4531 25.099 21.6927 24.6146 22.0833C23.7812 22.7604 21.1302 24.4323 17.8594 23.0573C20.1875 23.4323 22.0313 21.3281 22.6302 19.5364C23.1667 17.9323 23.0104 16.9114 22.9792 16.7552H22.9635L21.5729 16.6927L25.3438 12.901L28.5 17.1614L27.0781 17.0781" fill="black"/>
<path fill-rule="evenodd" clip-rule="evenodd" d="M11.1771 15.6875C9.98435 15.6875 9.02081 14.724 9.02081 13.5365C9.02081 12.3438 9.98435 11.375 11.1771 11.375C12.3698 11.375 13.3333 12.3438 13.3333 13.5365C13.3333 14.724 12.3698 15.6875 11.1771 15.6875Z" fill="black"/>
<path d="M7.83854 26.1771C8.02083 25.6719 8.29688 25.7031 8.29688 25.7031C8.29688 25.7031 8.54167 25.6511 8.68229 26.1563L10.6979 33.2344C9.01563 32.75 7.48438 31.9115 6.18229 30.8125L7.83854 26.1771ZM14.125 7.27084C6.33854 7.27084 0 13.6094 0 21.4011C0 29.1875 6.33854 35.5261 14.125 35.5261C14.5417 35.5261 14.9531 35.5 15.3594 35.4636L15.4531 36.8802L18.0365 34.3802L15.1458 32.1771L15.2552 33.6667C14.8802 33.7031 14.5104 33.724 14.125 33.724C13.5313 33.724 12.9375 33.6823 12.3646 33.5938L12.3073 33.2188L10.9635 21.7813C10.7813 19.625 12.0156 19.2813 12.776 19.6042L17.0573 21.3229C17.5521 21.5365 17.7865 21.125 17.7865 21.125C17.7865 21.125 18.0625 20.6979 17.5677 20.3802C17.5677 20.3802 11.7292 16.5104 10.4844 16.2761C8.78646 15.9583 7.10417 17.3333 6.73437 19.125L4.66146 29.2813C2.875 27.1458 1.80208 24.3958 1.80208 21.4011C1.80208 14.6042 7.32813 9.07293 14.125 9.07293C17.7552 9.07293 21.026 10.6511 23.2812 13.1563L24.5469 11.875C21.9635 9.04688 18.25 7.27084 14.125 7.27084Z" fill="black"/>
<path d="M67.8176 16.4844L65.1353 14.026V16.4167H59.9895V21.4687H65.1353V23.8594L67.8176 21.401L70.4947 18.9427" fill="black"/>
<path d="M105.417 19.2656C105.562 19.1875 105.677 19.0677 105.771 18.9062C105.854 18.7396 105.901 18.5417 105.901 18.3125C105.901 17.9635 105.807 17.6979 105.625 17.5156C105.443 17.3281 105.224 17.2344 104.958 17.2344C104.698 17.2344 104.474 17.3281 104.297 17.5156C104.12 17.6979 104.031 17.9635 104.031 18.3125C104.031 18.6614 104.12 18.9219 104.292 19.1094C104.463 19.2969 104.682 19.3906 104.948 19.3906C105.115 19.3906 105.271 19.3489 105.417 19.2656ZM104 19.9583C103.719 19.8021 103.5 19.5833 103.338 19.2969C103.177 19.0156 103.099 18.6875 103.099 18.3125C103.099 17.9427 103.182 17.6146 103.344 17.3281C103.51 17.0417 103.734 16.8229 104.021 16.6667C104.302 16.5104 104.62 16.4323 104.974 16.4323C105.323 16.4323 105.641 16.5104 105.927 16.6667C106.208 16.8229 106.437 17.0417 106.599 17.3281C106.766 17.6146 106.844 17.9427 106.844 18.3125C106.844 18.6875 106.76 19.0156 106.594 19.2969C106.427 19.5833 106.198 19.8021 105.906 19.9583C105.62 20.1146 105.302 20.1927 104.948 20.1927C104.599 20.1927 104.281 20.1146 104 19.9583Z" fill="black"/>
<path d="M110.797 16.4948V20.1302H109.87V19.6719C109.75 19.8333 109.599 19.9531 109.406 20.0417C109.214 20.1354 109.005 20.1771 108.787 20.1771C108.5 20.1771 108.245 20.1198 108.031 20C107.807 19.875 107.635 19.6979 107.51 19.4635C107.385 19.2344 107.323 18.9531 107.323 18.6302V16.4948H108.245V18.4948C108.245 18.7864 108.318 19.0104 108.464 19.1667C108.604 19.3177 108.802 19.3958 109.052 19.3958C109.307 19.3958 109.505 19.3177 109.651 19.1667C109.797 19.0104 109.87 18.7864 109.87 18.4948V16.4948" fill="black"/>
<path d="M157.661 19.2656C157.807 19.1875 157.922 19.0677 158.016 18.9062C158.099 18.7396 158.146 18.5417 158.146 18.3125C158.146 17.9635 158.052 17.6979 157.87 17.5156C157.687 17.3281 157.469 17.2344 157.203 17.2344C156.943 17.2344 156.719 17.3281 156.542 17.5156C156.365 17.6979 156.276 17.9635 156.276 18.3125C156.276 18.6614 156.365 18.9219 156.536 19.1094C156.708 19.2969 156.927 19.3906 157.193 19.3906C157.359 19.3906 157.516 19.3489 157.661 19.2656ZM156.245 19.9583C155.964 19.8021 155.745 19.5833 155.583 19.2969C155.422 19.0156 155.344 18.6875 155.344 18.3125C155.344 17.9427 155.427 17.6146 155.589 17.3281C155.755 17.0417 155.979 16.8229 156.266 16.6667C156.547 16.5104 156.865 16.4323 157.219 16.4323C157.568 16.4323 157.885 16.5104 158.172 16.6667C158.458 16.8229 158.682 17.0417 158.844 17.3281C159.01 17.6146 159.089 17.9427 159.089 18.3125C159.089 18.6875 159.005 19.0156 158.839 19.2969C158.672 19.5833 158.443 19.8021 158.151 19.9583C157.865 20.1146 157.547 20.1927 157.193 20.1927C156.844 20.1927 156.526 20.1146 156.245 19.9583Z" fill="black"/>
<path d="M163.042 16.4948V20.1302H162.115V19.6719C161.995 19.8333 161.844 19.9531 161.651 20.0417C161.458 20.1354 161.25 20.1771 161.031 20.1771C160.745 20.1771 160.49 20.1198 160.271 20C160.052 19.875 159.88 19.6979 159.755 19.4635C159.63 19.2344 159.568 18.9531 159.568 18.6302V16.4948H160.49V18.4948C160.49 18.7864 160.562 19.0104 160.708 19.1667C160.849 19.3177 161.047 19.3958 161.297 19.3958C161.552 19.3958 161.75 19.3177 161.896 19.1667C162.042 19.0104 162.115 18.7864 162.115 18.4948V16.4948" fill="black"/>
<path d="M188.323 22.3802H184.125C184.031 22.3802 183.937 22.349 183.87 22.2865L180.807 19.6406C180.74 19.5781 180.651 19.5469 180.557 19.5469H179.198V17.7136H182.318C182.734 17.7136 183.135 17.8802 183.427 18.1771L185.661 20.4063C185.76 20.5052 185.812 20.6406 185.807 20.7813C185.807 20.8125 185.802 20.849 185.797 20.8802C185.792 20.8854 185.792 20.8958 185.786 20.9063C185.76 20.9948 185.708 21.0781 185.635 21.1406C185.437 21.3125 185.125 21.2969 184.927 21.099L183.266 19.4375C183.12 19.2865 182.875 19.2865 182.729 19.4375C182.583 19.5833 182.583 19.8229 182.729 19.9688L184.391 21.6302C184.87 22.1146 185.635 22.1458 186.135 21.7136C186.25 21.6146 186.344 21.4948 186.411 21.3646L188.354 21.375C188.495 21.375 188.625 21.4271 188.724 21.5313C188.818 21.6354 188.865 21.7708 188.859 21.9115C188.844 22.1719 188.599 22.3802 188.323 22.3802ZM188.354 20.6146L186.552 20.6094C186.521 20.3333 186.396 20.0729 186.193 19.8698L183.963 17.6406C183.531 17.2031 182.932 16.9583 182.318 16.9583H178.818C178.609 16.9583 178.443 17.125 178.443 17.3333V19.9271C178.443 20.1354 178.609 20.3021 178.818 20.3021H180.417L183.375 22.8594C183.583 23.0365 183.849 23.1354 184.125 23.1354H188.323C189.005 23.1354 189.573 22.6198 189.615 21.9583C189.635 21.6094 189.516 21.2708 189.276 21.0156C189.036 20.7604 188.703 20.6146 188.354 20.6146Z" fill="black"/>
<path d="M184.542 14.0885C184.745 13.5156 185.146 13.1667 185.646 13.1302C185.677 13.125 185.703 13.125 185.734 13.125C186.214 13.125 186.667 13.4115 186.912 13.8698C186.979 13.9948 187.104 14.0729 187.245 14.0729C187.385 14.0729 187.516 13.9948 187.578 13.8698C187.839 13.3854 188.339 13.0938 188.849 13.1302C189.344 13.1667 189.75 13.5156 189.953 14.0885C190.443 15.474 188.495 17.1354 187.245 17.9271C185.995 17.1354 184.047 15.474 184.542 14.0885ZM187.052 18.6927C187.115 18.7292 187.177 18.75 187.245 18.75C187.313 18.75 187.38 18.7292 187.438 18.6927C187.859 18.4479 191.505 16.1979 190.667 13.8385C190.359 12.9792 189.703 12.4323 188.901 12.375C188.281 12.3281 187.677 12.5833 187.245 13.0469C186.818 12.5833 186.208 12.3281 185.589 12.375C184.792 12.4323 184.13 12.9792 183.828 13.8385C182.99 16.1979 186.635 18.4479 187.052 18.6927Z" fill="black"/>
<path d="M141.682 24.0104H138.583L138.151 22.1719H142.12L141.682 24.0104ZM142.563 21.8177C142.521 21.7656 142.458 21.7396 142.391 21.7396H138.047L137.818 20.7656C137.797 20.6719 137.708 20.599 137.604 20.599H136.542C136.422 20.599 136.323 20.6979 136.323 20.8177C136.323 20.9375 136.422 21.0365 136.542 21.0365H137.432L137.662 22.0052L138.203 24.2761C138.224 24.375 138.313 24.4427 138.412 24.4427H141.854C141.953 24.4427 142.042 24.375 142.068 24.2761L142.604 22.0052C142.62 21.9375 142.604 21.8698 142.563 21.8177Z" fill="black"/>
<path d="M139.052 24.7917C138.76 24.7917 138.526 25.026 138.526 25.3177C138.526 25.6042 138.76 25.8437 139.052 25.8437C139.344 25.8437 139.583 25.6042 139.583 25.3177C139.583 25.026 139.344 24.7917 139.052 24.7917Z" fill="black"/>
<path d="M141.214 24.7917C140.922 24.7917 140.688 25.026 140.688 25.3177C140.688 25.6042 140.922 25.8437 141.214 25.8437C141.505 25.8437 141.745 25.6042 141.745 25.3177C141.745 25.026 141.505 24.7917 141.214 24.7917Z" fill="black"/>
<path d="M128.24 13.151H129.865L129.312 16.151H127.115L128.24 13.151ZM139.302 16.151H137.115L136.562 13.151H138.172L139.302 16.151ZM137.594 16.875H139.411C139.276 17.25 138.922 17.5208 138.505 17.5208C138.083 17.5208 137.729 17.25 137.594 16.875ZM135.854 17.5208C135.437 17.5208 135.078 17.25 134.948 16.875H136.76C136.63 17.25 136.271 17.5208 135.854 17.5208ZM133.208 17.5208C132.786 17.5208 132.432 17.25 132.302 16.875H134.115C133.984 17.25 133.625 17.5208 133.208 17.5208ZM130.557 17.5208C130.141 17.5208 129.781 17.25 129.656 16.875H131.463C131.333 17.25 130.979 17.5208 130.557 17.5208ZM131.906 16.151L132.125 13.151H134.302L134.516 16.151H131.906ZM127.911 17.5208C127.495 17.5208 127.135 17.25 127.005 16.875H128.818C128.687 17.25 128.333 17.5208 127.911 17.5208ZM135.13 20.3646H133.542V23.0573H132.875V20.3646H131.286V23.0573H127.865V18.2448C127.88 18.2448 127.896 18.2448 127.911 18.2448C128.448 18.2448 128.927 17.9948 129.234 17.599C129.547 17.9948 130.026 18.2448 130.557 18.2448C131.099 18.2448 131.573 17.9948 131.885 17.599C132.193 17.9948 132.672 18.2448 133.208 18.2448C133.745 18.2448 134.219 17.9948 134.531 17.599C134.838 17.9948 135.318 18.2448 135.854 18.2448C136.391 18.2448 136.87 17.9948 137.177 17.599C137.49 17.9948 137.963 18.2448 138.505 18.2448C138.578 18.2448 138.651 18.2396 138.719 18.2292V20.5938H139.448V17.9531C139.896 17.651 140.187 17.1354 140.187 16.5573C140.187 16.5521 140.187 16.5417 140.187 16.5313C140.187 16.4844 140.182 16.4323 140.161 16.3854L138.76 12.6615C138.708 12.5156 138.573 12.4219 138.422 12.4219H127.99C127.838 12.4219 127.708 12.5156 127.651 12.6615L126.25 16.3854C126.229 16.4323 126.224 16.4844 126.229 16.5313C126.229 16.5417 126.224 16.5521 126.224 16.5573C126.224 17.2083 126.599 17.776 127.135 18.0573V23.4219C127.135 23.6198 127.297 23.7865 127.5 23.7865H136.318V23.0573H135.13" fill="black"/>
<path d="M81.8176 20H83.0155V19.4948H81.8176V20Z" fill="black"/>
<path d="M77.8697 13.5313L79.0051 12.2656L80.4583 13.7188V23.5677L77.8697 22.2031V13.5313ZM85.6405 12.1042L87.2655 13.7292V23.7396H81.1666V13.6563C81.1874 13.5469 81.1562 13.4219 81.0676 13.3333L79.8437 12.1042H85.6405ZM87.9635 13.5625C87.9635 13.5469 87.9635 13.5261 87.9583 13.5104C87.9583 13.5 87.953 13.4896 87.9478 13.4792C87.9478 13.4688 87.9478 13.4583 87.9426 13.4479C87.9374 13.4323 87.927 13.4219 87.9218 13.4063C87.9166 13.4011 87.9114 13.3958 87.9062 13.3854C87.8958 13.3698 87.8801 13.349 87.8645 13.3333L86.0364 11.5C85.9687 11.4375 85.8801 11.3958 85.7864 11.3958H78.9895H78.9843C78.953 11.4011 78.927 11.4011 78.8958 11.4115L78.8749 11.4219C78.8541 11.4271 78.828 11.4375 78.8072 11.4531C78.802 11.4531 78.7968 11.4583 78.7916 11.4583C78.7708 11.4792 78.7499 11.4948 78.7291 11.5156L77.2499 13.1615C77.1926 13.2292 77.1614 13.3125 77.1614 13.3958V22.4167C77.1614 22.5469 77.2343 22.6667 77.3489 22.7292L77.5155 22.8125V23.2969H78.427L80.5364 24.4063C80.5937 24.4375 80.6458 24.4479 80.703 24.4479C80.7187 24.4479 80.7343 24.4427 80.7499 24.4427C80.7708 24.4479 80.7864 24.4479 80.8124 24.4479H81.1562V24.8281H82.0937V24.4479H86.3437V24.8281H87.276V24.4479H87.6145C87.8072 24.4479 87.9687 24.2917 87.9687 24.0938V13.5833C87.9687 13.5729 87.9635 13.5677 87.9635 13.5625Z" fill="black"/>
<path d="M85.9166 14.4115V15.901L84.9114 14.9688H82.5208V14.4115H85.9166ZM82.1666 16.724H86.2708C86.4635 16.724 86.6197 16.5677 86.6197 16.375V14.0573C86.6197 13.8646 86.4635 13.7031 86.2708 13.7031H82.1666C81.9739 13.7031 81.8176 13.8646 81.8176 14.0573V16.375C81.8176 16.5677 81.9739 16.724 82.1666 16.724Z" fill="black"/>
<path d="M66.849 28.7292C67.0313 28.4011 67.276 28.1458 67.5885 27.9636C67.8958 27.7813 68.2448 27.6927 68.6302 27.6927C69.099 27.6927 69.5 27.8021 69.8333 28.0261C70.1667 28.2448 70.4115 28.5625 70.5625 28.9636H70.0677C69.9479 28.6823 69.7656 28.4583 69.5208 28.2969C69.276 28.1406 68.9792 28.0573 68.6302 28.0573C68.3229 28.0573 68.0469 28.1302 67.7969 28.2708C67.5521 28.4167 67.3594 28.625 67.2188 28.8958C67.0781 29.1615 67.0104 29.4792 67.0104 29.8333C67.0104 30.1927 67.0781 30.5 67.2188 30.7708C67.3594 31.0365 67.5521 31.2448 67.7969 31.3854C68.0469 31.5313 68.3229 31.6042 68.6302 31.6042C68.9792 31.6042 69.276 31.5261 69.5208 31.3646C69.7656 31.2083 69.9479 30.9896 70.0677 30.7083H70.5625C70.4115 31.1094 70.1667 31.4219 69.8281 31.6406C69.4948 31.8594 69.0938 31.9688 68.6302 31.9688C68.2448 31.9688 67.8958 31.8802 67.5885 31.6979C67.276 31.5156 67.0313 31.2604 66.849 30.9375C66.6667 30.6146 66.5781 30.2448 66.5781 29.8333C66.5781 29.4219 66.6667 29.0521 66.849 28.7292Z" fill="black"/>
<path d="M73.9115 31.3958C74.1563 31.25 74.3542 31.0417 74.4949 30.7708C74.6407 30.5052 74.7136 30.1927 74.7136 29.8333C74.7136 29.4792 74.6407 29.1667 74.4949 28.8958C74.3542 28.6302 74.1563 28.4219 73.9115 28.2813C73.6615 28.1354 73.3803 28.0625 73.0678 28.0625C72.7605 28.0625 72.4792 28.1354 72.2292 28.2813C71.9792 28.4219 71.7865 28.6302 71.6407 28.8958C71.4949 29.1667 71.4272 29.4792 71.4272 29.8333C71.4272 30.1927 71.4949 30.5052 71.6407 30.7708C71.7865 31.0417 71.9792 31.25 72.2292 31.3958C72.4792 31.5365 72.7605 31.6094 73.0678 31.6094C73.3803 31.6094 73.6615 31.5365 73.9115 31.3958ZM72.0157 31.7031C71.698 31.5208 71.448 31.2656 71.2657 30.9375C71.0834 30.6146 70.9949 30.2448 70.9949 29.8333C70.9949 29.4219 71.0834 29.0521 71.2657 28.7292C71.448 28.4011 71.698 28.1458 72.0157 27.9636C72.3282 27.7813 72.6824 27.6927 73.0678 27.6927C73.4636 27.6927 73.8178 27.7813 74.1303 27.9636C74.448 28.1458 74.698 28.4011 74.8751 28.7292C75.0574 29.0521 75.1459 29.4219 75.1459 29.8333C75.1459 30.2448 75.0574 30.6146 74.8751 30.9375C74.698 31.2656 74.448 31.5208 74.1303 31.7031C73.8178 31.8854 73.4636 31.974 73.0678 31.974C72.6824 31.974 72.3282 31.8854 72.0157 31.7031Z" fill="black"/>
<path d="M78.8646 31.9323H78.4479L76.125 28.4063V31.9323H75.7031V27.7396H76.125L78.4479 31.2604V27.7396H78.8646" fill="black"/>
<path d="M82.0625 27.7396V28.0886H80.901V31.9323H80.4792V28.0886H79.3125V27.7396" fill="black"/>
<path d="M82.9426 28.0833V29.6458H84.5312V29.9948H82.9426V31.5885H84.7083V31.9323H82.5208V27.7344H84.7083V28.0833" fill="black"/>
<path d="M88.4896 31.9323H88.0677L85.7448 28.4063V31.9323H85.3281V27.7396H85.7448L88.0677 31.2604V27.7396H88.4896" fill="black"/>
<path d="M89.651 28.0833V29.6458H91.2448V29.9948H89.651V31.5885H91.4219V31.9323H89.2344V27.7344H91.4219V28.0833" fill="black"/>
<path d="M92.4428 27.7396V30.3802C92.4428 30.7969 92.5417 31.1042 92.7397 31.3021C92.9376 31.5052 93.2084 31.6042 93.5522 31.6042C93.8959 31.6042 94.1667 31.5052 94.3595 31.3073C94.5522 31.1094 94.6511 30.8021 94.6511 30.3802V27.7396H95.073V30.375C95.073 30.9063 94.9272 31.3073 94.6459 31.5729C94.3647 31.8386 94.0001 31.974 93.547 31.974C93.0938 31.974 92.7292 31.8386 92.448 31.5729C92.1615 31.3073 92.0261 30.9063 92.0261 30.375V27.7396" fill="black"/>
<path d="M96.2188 29.8386H97.0625C97.3906 29.8386 97.6354 29.7604 97.8021 29.599C97.9688 29.4375 98.0521 29.224 98.0521 28.9583C98.0521 28.6823 97.974 28.4688 97.8125 28.3177C97.651 28.1667 97.401 28.0938 97.0573 28.0938H96.2188V29.8386ZM98.0312 31.9323L96.9896 30.1823H96.2188V31.9323H95.7969V27.7396H97.0573C97.526 27.7396 97.8802 27.8542 98.125 28.0781C98.3646 28.3021 98.4844 28.5938 98.4844 28.9583C98.4844 29.2604 98.3958 29.5208 98.224 29.7344C98.0521 29.9479 97.7969 30.0886 97.4531 30.1511L98.5312 31.9323" fill="black"/>
<path d="M108.005 27.7917V31.9323H107.583V28.6302L106.109 31.9323H105.802L104.328 28.6406V31.9323H103.906V27.7917H104.349L105.953 31.3802L107.552 27.7917" fill="black"/>
<path d="M111.052 30.5885L110.224 28.3229L109.396 30.5885H111.052ZM111.177 30.9375H109.271L108.906 31.9323H108.464L109.99 27.7917H110.464L111.99 31.9323H111.542" fill="black"/>
<path d="M115.75 28.9636C115.63 28.6875 115.448 28.4688 115.203 28.3125C114.953 28.1563 114.667 28.0781 114.333 28.0781C114.021 28.0781 113.745 28.1458 113.495 28.2917C113.245 28.4375 113.052 28.6406 112.906 28.9063C112.766 29.1719 112.693 29.4844 112.693 29.8333C112.693 30.1875 112.766 30.4948 112.906 30.7656C113.052 31.0313 113.245 31.2344 113.495 31.3802C113.745 31.5261 114.021 31.599 114.333 31.599C114.625 31.599 114.891 31.5365 115.125 31.4115C115.359 31.2813 115.547 31.1042 115.688 30.8698C115.828 30.6354 115.912 30.3646 115.932 30.0469H114.167V29.7083H116.375V30.0104C116.354 30.3802 116.255 30.7136 116.073 31.0104C115.896 31.3125 115.651 31.5469 115.349 31.7188C115.052 31.8906 114.708 31.974 114.333 31.974C113.948 31.974 113.594 31.8854 113.281 31.7031C112.964 31.5208 112.714 31.2656 112.531 30.9375C112.349 30.6146 112.26 30.2448 112.26 29.8333C112.26 29.4219 112.349 29.0521 112.531 28.724C112.714 28.4011 112.964 28.1458 113.281 27.9636C113.594 27.7813 113.948 27.6927 114.333 27.6927C114.781 27.6927 115.172 27.8021 115.51 28.0261C115.844 28.25 116.094 28.5625 116.245 28.9636" fill="black"/>
<path d="M119.234 30.5885L118.406 28.3229L117.578 30.5885H119.234ZM119.365 30.9375H117.453L117.088 31.9323H116.646L118.172 27.7917H118.651L120.172 31.9323H119.729" fill="black"/>
<path d="M121.177 31.8333C120.969 31.7344 120.802 31.599 120.682 31.4271C120.562 31.2552 120.5 31.0677 120.49 30.8542H120.932C120.958 31.0573 121.047 31.2396 121.208 31.3906C121.365 31.5417 121.599 31.6198 121.906 31.6198C122.193 31.6198 122.417 31.5469 122.583 31.4011C122.75 31.2552 122.828 31.0729 122.828 30.849C122.828 30.6667 122.786 30.5208 122.693 30.4115C122.599 30.3021 122.484 30.2188 122.354 30.1667C122.213 30.1146 122.026 30.0521 121.786 29.9896C121.505 29.9167 121.286 29.8386 121.12 29.7656C120.958 29.6927 120.818 29.5833 120.703 29.4323C120.583 29.2813 120.526 29.0729 120.526 28.8125C120.526 28.599 120.583 28.4063 120.698 28.2344C120.807 28.0677 120.963 27.9323 121.167 27.8386C121.375 27.7396 121.604 27.6927 121.87 27.6927C122.26 27.6927 122.573 27.7865 122.812 27.974C123.047 28.1667 123.187 28.4115 123.219 28.7136H122.766C122.734 28.5365 122.646 28.3854 122.484 28.25C122.323 28.1198 122.104 28.0521 121.833 28.0521C121.583 28.0521 121.375 28.1198 121.208 28.25C121.036 28.3854 120.953 28.5677 120.953 28.8021C120.953 28.9792 121 29.1198 121.094 29.2292C121.182 29.3386 121.297 29.4167 121.437 29.474C121.573 29.5313 121.76 29.5886 121.995 29.6511C122.271 29.7292 122.49 29.8021 122.656 29.8802C122.823 29.9531 122.969 30.0677 123.083 30.2188C123.198 30.3698 123.26 30.5729 123.26 30.8281C123.26 31.0261 123.208 31.2136 123.099 31.3906C122.995 31.5625 122.844 31.7031 122.641 31.8125C122.432 31.9219 122.193 31.974 121.906 31.974C121.63 31.974 121.385 31.9271 121.177 31.8333Z" fill="black"/>
<path d="M123.859 31.9323H124.276V27.7396H123.859V31.9323Z" fill="black"/>
<path d="M128.182 31.9323H127.766L125.437 28.4063V31.9323H125.021V27.7396H125.437L127.766 31.2604V27.7396H128.182" fill="black"/>
<path d="M133.688 27.7396L132.094 31.9323H131.615L130.026 27.7396H130.484L131.854 31.4792L133.24 27.7396" fill="black"/>
<path d="M136.828 31.3958C137.078 31.25 137.271 31.0417 137.417 30.7708C137.562 30.5052 137.635 30.1927 137.635 29.8333C137.635 29.4792 137.562 29.1667 137.417 28.8958C137.271 28.6302 137.078 28.4219 136.828 28.2813C136.578 28.1354 136.302 28.0625 135.99 28.0625C135.677 28.0625 135.396 28.1354 135.146 28.2813C134.901 28.4219 134.703 28.6302 134.562 28.8958C134.417 29.1667 134.344 29.4792 134.344 29.8333C134.344 30.1927 134.417 30.5052 134.562 30.7708C134.703 31.0417 134.901 31.25 135.146 31.3958C135.396 31.5365 135.677 31.6094 135.99 31.6094C136.302 31.6094 136.578 31.5365 136.828 31.3958ZM134.932 31.7031C134.62 31.5208 134.37 31.2656 134.187 30.9375C134.005 30.6146 133.911 30.2448 133.911 29.8333C133.911 29.4219 134.005 29.0521 134.187 28.7292C134.37 28.4011 134.62 28.1458 134.932 27.9636C135.25 27.7813 135.599 27.6927 135.99 27.6927C136.38 27.6927 136.734 27.7813 137.052 27.9636C137.365 28.1458 137.615 28.4011 137.797 28.7292C137.974 29.0521 138.068 29.4219 138.068 29.8333C138.068 30.2448 137.974 30.6146 137.797 30.9375C137.615 31.2656 137.365 31.5208 137.052 31.7031C136.734 31.8854 136.38 31.974 135.99 31.974C135.599 31.974 135.25 31.8854 134.932 31.7031Z" fill="black"/>
<path d="M139.042 31.5938H140.547V31.9323H138.625V27.7396H139.042" fill="black"/>
<path d="M143.662 31.3958C143.912 31.25 144.109 31.0417 144.25 30.7708C144.396 30.5052 144.469 30.1927 144.469 29.8333C144.469 29.4792 144.396 29.1667 144.25 28.8958C144.109 28.6302 143.912 28.4219 143.662 28.2813C143.417 28.1354 143.135 28.0625 142.823 28.0625C142.51 28.0625 142.234 28.1354 141.984 28.2813C141.734 28.4219 141.537 28.6302 141.396 28.8958C141.25 29.1667 141.182 29.4792 141.182 29.8333C141.182 30.1927 141.25 30.5052 141.396 30.7708C141.537 31.0417 141.734 31.25 141.984 31.3958C142.234 31.5365 142.51 31.6094 142.823 31.6094C143.135 31.6094 143.417 31.5365 143.662 31.3958ZM141.766 31.7031C141.453 31.5208 141.203 31.2656 141.021 30.9375C140.839 30.6146 140.745 30.2448 140.745 29.8333C140.745 29.4219 140.839 29.0521 141.021 28.7292C141.203 28.4011 141.453 28.1458 141.766 27.9636C142.083 27.7813 142.438 27.6927 142.823 27.6927C143.214 27.6927 143.568 27.7813 143.885 27.9636C144.203 28.1458 144.448 28.4011 144.63 28.7292C144.807 29.0521 144.901 29.4219 144.901 29.8333C144.901 30.2448 144.807 30.6146 144.63 30.9375C144.448 31.2656 144.203 31.5208 143.885 31.7031C143.568 31.8854 143.214 31.974 142.823 31.974C142.438 31.974 142.083 31.8854 141.766 31.7031Z" fill="black"/>
<path d="M148.62 31.9323H148.198L145.875 28.4063V31.9323H145.458V27.7396H145.875L148.198 31.2604V27.7396H148.62" fill="black"/>
<path d="M151.818 27.7396V28.0886H150.651V31.9323H150.234V28.0886H149.062V27.7396" fill="black"/>
<path d="M154.578 30.5885L153.75 28.3229L152.922 30.5885H154.578ZM154.703 30.9375H152.797L152.427 31.9323H151.984L153.516 27.7917H153.99L155.51 31.9323H155.068" fill="black"/>
<path d="M155.974 31.9323H156.396V27.7396H155.974V31.9323Z" fill="black"/>
<path d="M157.557 29.8386H158.406C158.734 29.8386 158.979 29.7604 159.146 29.599C159.312 29.4375 159.396 29.224 159.396 28.9583C159.396 28.6823 159.312 28.4688 159.156 28.3177C158.995 28.1667 158.745 28.0938 158.401 28.0938H157.557V29.8386ZM159.37 31.9323L158.333 30.1823H157.557V31.9323H157.141V27.7396H158.401C158.865 27.7396 159.219 27.8542 159.464 28.0781C159.703 28.3021 159.828 28.5938 159.828 28.9583C159.828 29.2604 159.74 29.5208 159.568 29.7344C159.391 29.9479 159.135 30.0886 158.797 30.1511L159.875 31.9323" fill="black"/>
<path d="M160.87 28.0833V29.6458H162.458V29.9948H160.87V31.5885H162.641V31.9323H160.453V27.7344H162.641V28.0833" fill="black"/>
<path d="M170.401 30.5885L169.573 28.3229L168.745 30.5885H170.401ZM170.526 30.9375H168.62L168.255 31.9323H167.812L169.339 27.7917H169.812L171.339 31.9323H170.896" fill="black"/>
<path d="M172.344 31.8333C172.135 31.7344 171.969 31.599 171.849 31.4271C171.729 31.2552 171.661 31.0677 171.656 30.8542H172.099C172.12 31.0573 172.208 31.2396 172.37 31.3906C172.531 31.5417 172.76 31.6198 173.073 31.6198C173.354 31.6198 173.583 31.5469 173.745 31.4011C173.911 31.2552 173.995 31.0729 173.995 30.849C173.995 30.6667 173.948 30.5208 173.859 30.4115C173.766 30.3021 173.651 30.2188 173.516 30.1667C173.38 30.1146 173.193 30.0521 172.953 29.9896C172.672 29.9167 172.448 29.8386 172.286 29.7656C172.12 29.6927 171.979 29.5833 171.865 29.4323C171.75 29.2813 171.693 29.0729 171.693 28.8125C171.693 28.599 171.75 28.4063 171.859 28.2344C171.974 28.0677 172.13 27.9323 172.333 27.8386C172.536 27.7396 172.771 27.6927 173.036 27.6927C173.422 27.6927 173.734 27.7865 173.974 27.974C174.214 28.1667 174.349 28.4115 174.385 28.7136H173.927C173.901 28.5365 173.807 28.3854 173.646 28.25C173.484 28.1198 173.271 28.0521 173 28.0521C172.75 28.0521 172.536 28.1198 172.37 28.25C172.203 28.3854 172.12 28.5677 172.12 28.8021C172.12 28.9792 172.161 29.1198 172.255 29.2292C172.349 29.3386 172.464 29.4167 172.599 29.474C172.74 29.5313 172.927 29.5886 173.161 29.6511C173.432 29.7292 173.651 29.8021 173.823 29.8802C173.99 29.9531 174.13 30.0677 174.25 30.2188C174.365 30.3698 174.422 30.5729 174.422 30.8281C174.422 31.0261 174.37 31.2136 174.266 31.3906C174.161 31.5625 174.01 31.7031 173.802 31.8125C173.599 31.9219 173.354 31.974 173.073 31.974C172.797 31.974 172.552 31.9271 172.344 31.8333Z" fill="black"/>
<path d="M175.562 31.8333C175.354 31.7344 175.188 31.599 175.068 31.4271C174.948 31.2552 174.885 31.0677 174.875 30.8542H175.323C175.344 31.0573 175.432 31.2396 175.594 31.3906C175.75 31.5417 175.984 31.6198 176.292 31.6198C176.578 31.6198 176.802 31.5469 176.969 31.4011C177.135 31.2552 177.219 31.0729 177.219 30.849C177.219 30.6667 177.172 30.5208 177.078 30.4115C176.984 30.3021 176.875 30.2188 176.74 30.1667C176.599 30.1146 176.411 30.0521 176.172 29.9896C175.896 29.9167 175.672 29.8386 175.51 29.7656C175.344 29.6927 175.203 29.5833 175.089 29.4323C174.974 29.2813 174.911 29.0729 174.911 28.8125C174.911 28.599 174.969 28.4063 175.083 28.2344C175.193 28.0677 175.354 27.9323 175.552 27.8386C175.76 27.7396 175.995 27.6927 176.26 27.6927C176.646 27.6927 176.958 27.7865 177.198 27.974C177.432 28.1667 177.573 28.4115 177.604 28.7136H177.151C177.125 28.5365 177.031 28.3854 176.87 28.25C176.708 28.1198 176.495 28.0521 176.219 28.0521C175.969 28.0521 175.76 28.1198 175.594 28.25C175.422 28.3854 175.339 28.5677 175.339 28.8021C175.339 28.9792 175.385 29.1198 175.479 29.2292C175.568 29.3386 175.687 29.4167 175.823 29.474C175.964 29.5313 176.146 29.5886 176.38 29.6511C176.656 29.7292 176.875 29.8021 177.042 29.8802C177.208 29.9531 177.354 30.0677 177.469 30.2188C177.583 30.3698 177.646 30.5729 177.646 30.8281C177.646 31.0261 177.594 31.2136 177.484 31.3906C177.38 31.5625 177.229 31.7031 177.026 31.8125C176.823 31.9219 176.578 31.974 176.292 31.974C176.016 31.974 175.776 31.9271 175.562 31.8333Z" fill="black"/>
<path d="M180.969 31.3958C181.213 31.25 181.411 31.0417 181.552 30.7708C181.698 30.5052 181.771 30.1927 181.771 29.8333C181.771 29.4792 181.698 29.1667 181.552 28.8958C181.411 28.6302 181.213 28.4219 180.969 28.2813C180.719 28.1354 180.437 28.0625 180.125 28.0625C179.812 28.0625 179.536 28.1354 179.286 28.2813C179.036 28.4219 178.844 28.6302 178.698 28.8958C178.552 29.1667 178.484 29.4792 178.484 29.8333C178.484 30.1927 178.552 30.5052 178.698 30.7708C178.844 31.0417 179.036 31.25 179.286 31.3958C179.536 31.5365 179.812 31.6094 180.125 31.6094C180.437 31.6094 180.719 31.5365 180.969 31.3958ZM179.068 31.7031C178.755 31.5208 178.505 31.2656 178.323 30.9375C178.141 30.6146 178.052 30.2448 178.052 29.8333C178.052 29.4219 178.141 29.0521 178.323 28.7292C178.505 28.4011 178.755 28.1458 179.068 27.9636C179.385 27.7813 179.74 27.6927 180.125 27.6927C180.516 27.6927 180.87 27.7813 181.187 27.9636C181.505 28.1458 181.75 28.4011 181.932 28.7292C182.115 29.0521 182.203 29.4219 182.203 29.8333C182.203 30.2448 182.115 30.6146 181.932 30.9375C181.75 31.2656 181.505 31.5208 181.187 31.7031C180.87 31.8854 180.516 31.974 180.125 31.974C179.74 31.974 179.385 31.8854 179.068 31.7031Z" fill="black"/>
<path d="M182.838 28.7292C183.021 28.4011 183.266 28.1458 183.578 27.9636C183.891 27.7813 184.24 27.6927 184.62 27.6927C185.088 27.6927 185.49 27.8021 185.823 28.0261C186.156 28.2448 186.401 28.5625 186.552 28.9636H186.062C185.943 28.6823 185.755 28.4583 185.51 28.2969C185.266 28.1406 184.969 28.0573 184.62 28.0573C184.312 28.0573 184.036 28.1302 183.792 28.2708C183.542 28.4167 183.349 28.625 183.208 28.8958C183.073 29.1615 183 29.4792 183 29.8333C183 30.1927 183.073 30.5 183.208 30.7708C183.349 31.0365 183.542 31.2448 183.792 31.3854C184.036 31.5313 184.312 31.6042 184.62 31.6042C184.969 31.6042 185.266 31.5261 185.51 31.3646C185.755 31.2083 185.943 30.9896 186.062 30.7083H186.552C186.401 31.1094 186.156 31.4219 185.818 31.6406C185.484 31.8594 185.083 31.9688 184.62 31.9688C184.24 31.9688 183.891 31.8802 183.578 31.6979C183.266 31.5156 183.021 31.2604 182.838 30.9375C182.656 30.6146 182.568 30.2448 182.568 29.8333C182.568 29.4219 182.656 29.0521 182.838 28.7292Z" fill="black"/>
<path d="M187.177 31.9323H187.594V27.7396H187.177V31.9323Z" fill="black"/>
<path d="M190.646 30.5885L189.818 28.3229L188.99 30.5885H190.646ZM190.771 30.9375H188.859L188.495 31.9323H188.052L189.583 27.7917H190.057L191.578 31.9323H191.135" fill="black"/>
<path d="M194.495 27.7396V28.0886H193.333V31.9323H192.912V28.0886H191.745V27.7396" fill="black"/>
<path d="M194.953 31.9323H195.37V27.7396H194.953V31.9323Z" fill="black"/>
<path d="M198.839 31.3958C199.089 31.25 199.286 31.0417 199.427 30.7708C199.573 30.5052 199.646 30.1927 199.646 29.8333C199.646 29.4792 199.573 29.1667 199.427 28.8958C199.286 28.6302 199.089 28.4219 198.839 28.2813C198.589 28.1354 198.312 28.0625 198 28.0625C197.688 28.0625 197.406 28.1354 197.156 28.2813C196.911 28.4219 196.714 28.6302 196.573 28.8958C196.427 29.1667 196.354 29.4792 196.354 29.8333C196.354 30.1927 196.427 30.5052 196.573 30.7708C196.714 31.0417 196.911 31.25 197.156 31.3958C197.406 31.5365 197.688 31.6094 198 31.6094C198.312 31.6094 198.589 31.5365 198.839 31.3958ZM196.943 31.7031C196.63 31.5208 196.38 31.2656 196.198 30.9375C196.016 30.6146 195.922 30.2448 195.922 29.8333C195.922 29.4219 196.016 29.0521 196.198 28.7292C196.38 28.4011 196.63 28.1458 196.943 27.9636C197.26 27.7813 197.615 27.6927 198 27.6927C198.391 27.6927 198.745 27.7813 199.062 27.9636C199.375 28.1458 199.625 28.4011 199.807 28.7292C199.984 29.0521 200.078 29.4219 200.078 29.8333C200.078 30.2448 199.984 30.6146 199.807 30.9375C199.625 31.2656 199.375 31.5208 199.062 31.7031C198.745 31.8854 198.391 31.974 198 31.974C197.615 31.974 197.26 31.8854 196.943 31.7031Z" fill="black"/>
<path d="M203.797 31.9323H203.375L201.052 28.4063V31.9323H200.635V27.7396H201.052L203.375 31.2604V27.7396H203.797" fill="black"/>
<path d="M119.74 4.92709V5.53126H118.177V6.4948H119.38V7.08855H118.177V8.67188H117.427V4.92709" fill="black"/>
<path d="M121.026 6.65105H121.656C121.859 6.65105 122.01 6.59897 122.109 6.50001C122.214 6.40105 122.26 6.26563 122.26 6.08855C122.26 5.91668 122.214 5.78647 122.109 5.68751C122.01 5.59376 121.859 5.54688 121.656 5.54688H121.026V6.65105ZM122.208 8.67188L121.38 7.21355H121.026V8.67188H120.276V4.92709H121.682C121.969 4.92709 122.219 4.97397 122.422 5.07813C122.625 5.17709 122.776 5.31772 122.88 5.48959C122.984 5.66668 123.037 5.85938 123.037 6.07293C123.037 6.32293 122.964 6.54688 122.818 6.73959C122.677 6.94272 122.464 7.07814 122.182 7.15626L123.078 8.67188" fill="black"/>
<path d="M206.484 32.2969C206.484 34.8177 204.385 36.875 201.807 36.875H38.578C35.9999 36.875 33.901 34.8177 33.901 32.2969V11.8594C33.901 9.33332 35.9999 7.28124 38.578 7.28124H114.469C114.583 8.58853 115.115 9.86457 116.115 10.8646C117.245 11.9896 118.724 12.5521 120.203 12.5521C121.682 12.5521 123.161 11.9896 124.286 10.8646C125.286 9.86457 125.818 8.58853 125.932 7.28124H201.807C204.385 7.28124 206.484 9.33332 206.484 11.8594V32.2969ZM116.87 3.4427C117.76 2.55207 118.943 2.06249 120.203 2.06249C121.458 2.06249 122.646 2.55207 123.536 3.4427C124.422 4.33332 124.917 5.51561 124.917 6.77603C124.917 8.03645 124.422 9.21874 123.536 10.1094C122.646 10.9948 121.458 11.4896 120.203 11.4896C118.943 11.4896 117.76 10.9948 116.87 10.1094C115.031 8.27082 115.031 5.28124 116.87 3.4427ZM201.807 6.21353H125.927C125.802 4.92707 125.276 3.67186 124.286 2.68749C123.161 1.55728 121.682 0.994781 120.203 0.994781C118.724 0.994781 117.245 1.55728 116.115 2.68749C115.13 3.67186 114.599 4.92707 114.474 6.21353H38.578C35.4114 6.21353 32.8333 8.74999 32.8333 11.8594V32.2969C32.8333 35.4062 35.4114 37.9375 38.578 37.9375H201.807C204.974 37.9375 207.552 35.4062 207.552 32.2969V11.8594C207.552 8.74999 204.974 6.21353 201.807 6.21353Z" fill="black"/>
</g>
<defs>
<clipPath id="clip0_19_75">
<rect width="208" height="38" fill="white"/>
</clipPath>
</defs>
</svg>
