<svg width="241" height="41" viewBox="0 0 241 41" fill="none" xmlns="http://www.w3.org/2000/svg">
<g clip-path="url(#clip0_50_3865)">
<path d="M79.099 38.9844H38.5833C32.9636 38.9844 28.3958 34.2552 28.3958 28.4427V4.87498H33.3802C33.7761 6.95831 36.0052 7.68748 38.724 7.68748C41.4427 7.68748 43.6719 6.95831 44.0625 4.87498H79.3854L87.8333 22.3281L79.099 38.9844ZM229.271 3.54685H44.0625C43.6615 1.5104 41.4375 0.739563 38.724 0.739563C35.9948 0.739563 33.7604 1.38019 33.3802 3.54685H27.0677V28.4427C27.0677 34.9844 32.2344 40.3073 38.5833 40.3073H240.786V15.4114C240.786 8.86977 235.62 3.54685 229.271 3.54685Z" fill="#29675D"/>
<path d="M36.9375 4.70308V5.9635H36.2812V2.74475H37.9375C38.224 2.74475 38.2656 2.84371 38.2656 3.02079V3.30725H36.9375V4.13538H38.1615V4.46871C38.1615 4.61454 38.099 4.70308 37.9167 4.70308H36.9375Z" fill="white"/>
<path d="M39.5729 4.39579H39.9739C40.4167 4.39579 40.5885 4.18225 40.5885 3.82808C40.5885 3.44788 40.4219 3.30725 39.9844 3.30725H39.5729V4.39579ZM40.0104 2.74475C40.875 2.74475 41.276 3.07288 41.276 3.82808C41.276 4.3385 40.9844 4.63017 40.6562 4.80204L41.3125 5.9635H40.8229C40.6302 5.9635 40.526 5.901 40.4375 5.73954L40.026 4.93225H39.5729V5.9635H38.9167V3.15621C38.9167 2.89579 39.0625 2.74475 39.3333 2.74475H40.0104Z" fill="white"/>
<path d="M13.5156 23.0885C12.5104 24.5677 13.3646 26.5156 14.4062 27.5052C15.349 28.401 16.1094 28.6145 16.2083 28.6406L16.6927 27.7135L18.0885 31.526L14.1458 32.3229L14.6667 31.3541L14.1354 31.0573C12.4792 29.9739 12.125 28.5052 12.0104 28.0468C11.8125 27.2604 11.5208 24.8958 13.5156 23.0885Z" fill="#29675D"/>
<path d="M13.5 23.151C14.2135 24.7917 16.3177 25.1094 17.7031 24.7552C18.9375 24.4427 19.5208 23.9375 19.6198 23.8438L19.6146 23.8333L19.0885 22.9219L23.0521 23.7865L21.6146 27.5417L21.0885 26.599L20.5677 26.8802C18.7708 27.7083 17.3385 27.2188 16.8906 27.0729C16.1146 26.8177 13.9635 25.8073 13.5 23.151Z" fill="#29675D"/>
<path d="M20.5052 19.1927C20.2292 21.1563 19.0521 22.0938 18.6823 22.3906C18.0521 22.9063 16.0365 24.1719 13.5521 23.1302C15.3229 23.4115 16.7188 21.8177 17.1771 20.4583C17.5833 19.2396 17.4636 18.4635 17.4375 18.349L17.4271 18.3438L16.375 18.2969L19.2344 15.4219L21.6302 18.6563L20.5521 18.5938L20.5052 19.1927Z" fill="#29675D"/>
<path fill-rule="evenodd" clip-rule="evenodd" d="M8.48437 17.5365C7.57812 17.5365 6.84375 16.8073 6.84375 15.901C6.84375 14.9948 7.57812 14.2656 8.48437 14.2656C9.38542 14.2656 10.1198 14.9948 10.1198 15.901C10.1198 16.8073 9.38542 17.5365 8.48437 17.5365Z" fill="#29675D"/>
<path d="M5.94792 25.4948C6.08854 25.1145 6.29688 25.1354 6.29688 25.1354C6.29688 25.1354 6.48438 25.0989 6.58854 25.4843L8.11979 30.8541C6.84375 30.4843 5.67708 29.8489 4.6875 29.0156L5.94792 25.4948ZM10.7188 11.151C4.80729 11.151 0 15.9583 0 21.875C0 27.7812 4.80729 32.5937 10.7188 32.5937C11.0365 32.5937 11.349 32.5729 11.6563 32.5468L11.7292 33.6198L13.6927 31.7239L11.4948 30.052L11.5781 31.1823C11.2969 31.2083 11.0104 31.2239 10.7188 31.2239C10.2656 31.2239 9.82292 31.1927 9.38021 31.1302L9.33854 30.8437L8.32292 22.1614C8.18229 20.526 9.11458 20.2656 9.69271 20.5104L12.9479 21.8177C13.3177 21.9739 13.4948 21.6614 13.4948 21.6614C13.4948 21.6614 13.7083 21.3385 13.3333 21.0989C13.3333 21.0989 8.90104 18.1614 7.95313 17.9843C6.66667 17.7395 5.39063 18.7864 5.10938 20.1458L3.53646 27.8541C2.18229 26.2291 1.36458 24.1458 1.36458 21.875C1.36458 16.7135 5.5625 12.5156 10.7188 12.5156C13.474 12.5156 15.9531 13.7135 17.6667 15.6145L18.6302 14.6406C16.6667 12.5 13.849 11.151 10.7188 11.151Z" fill="#29675D"/>
<path d="M206.385 31.5312H206.818C207.542 31.5312 207.802 31.1718 207.802 30.3385C207.802 29.4479 207.484 29.2239 206.932 29.2239H206.385V31.5312ZM206.125 32.1458C205.802 32.1458 205.656 31.9739 205.656 31.6718V28.6041H206.943C207.958 28.6041 208.547 29.125 208.547 30.3281C208.547 31.4427 208.156 32.1458 206.813 32.1458H206.125Z" fill="white"/>
<path d="M211.099 27.2708L210.609 27.9219C210.5 28.0625 210.349 28.1302 210.151 28.1302H209.906L210.349 27.2708H211.099ZM211.047 28.6041C211.354 28.6041 211.396 28.7135 211.396 28.9114V29.2239H209.917V30.0729H211.276V30.3958C211.276 30.5625 211.214 30.651 211.01 30.651H209.917V31.5312H211.458V31.8594C211.458 32.0677 211.339 32.1458 211.104 32.1458H209.193V28.6041H211.047Z" fill="white"/>
<path d="M214.401 29.2916C214.203 29.2291 213.911 29.1614 213.516 29.1614C212.948 29.1614 212.625 29.4271 212.625 30.3646C212.625 31.3021 212.958 31.5885 213.589 31.5885C213.99 31.5885 214.245 31.5156 214.443 31.4479V31.8229C214.443 32.1198 214.005 32.2135 213.495 32.2135C212.516 32.2135 211.88 31.7031 211.88 30.3646C211.88 29.0052 212.479 28.5364 213.552 28.5364C214.068 28.5364 214.401 28.6458 214.401 28.9687V29.2916Z" fill="white"/>
<path d="M215.526 28.6041C215.76 28.6041 215.818 28.7031 215.818 28.927V30.0625H217.354V28.927C217.354 28.7031 217.427 28.6041 217.656 28.6041H218.073V32.1458H217.354V30.677H215.818V32.1458H215.099V28.6041H215.526Z" fill="white"/>
<path d="M220.01 27.2708L220.453 28.1302H220.219C220.042 28.1302 219.896 28.0833 219.802 27.9687L219.255 27.2708H220.01ZM220.807 28.6041C221.12 28.6041 221.161 28.7135 221.161 28.9114V29.2239H219.682V30.0729H221.036V30.3958C221.036 30.5625 220.974 30.651 220.771 30.651H219.682V31.5312H221.224V31.8594C221.224 32.0677 221.104 32.1458 220.865 32.1458H218.958V28.6041H220.807Z" fill="white"/>
<path d="M224.474 28.6041V28.875C224.474 29.1041 224.365 29.2448 224.115 29.2448H223.365V32.1458H222.641V29.2448H221.536V29.0052C221.536 28.75 221.656 28.6041 221.953 28.6041H224.474Z" fill="white"/>
<path d="M226.786 28.6041C227.099 28.6041 227.141 28.7135 227.141 28.9114V29.2239H225.656V30.0729H227.016V30.3958C227.016 30.5573 226.953 30.651 226.75 30.651H225.656V31.5312H227.203V31.8593C227.203 32.0677 227.078 32.1458 226.844 32.1458H224.932V28.6041H226.786Z" fill="white"/>
<path d="M228.656 30.4218H229.094C229.583 30.4218 229.771 30.1823 229.771 29.7968C229.771 29.3802 229.589 29.2239 229.104 29.2239H228.656V30.4218ZM229.135 28.6041C230.083 28.6041 230.526 28.9687 230.526 29.7968C230.526 30.3541 230.203 30.6823 229.849 30.8645L230.563 32.1406H230.026C229.818 32.1406 229.703 32.0729 229.604 31.8958L229.151 31.0104H228.656V32.1406H227.932V29.0625C227.932 28.7708 228.094 28.6041 228.391 28.6041H229.135Z" fill="white"/>
<path d="M231.995 32.1406H231.271V28.6041H231.995V32.1406Z" fill="white"/>
<path d="M234.719 28.6041C235.031 28.6041 235.073 28.7135 235.073 28.9114V29.2239H233.594V30.0729H234.953V30.3958C234.953 30.5573 234.885 30.651 234.688 30.651H233.594V31.5312H235.135V31.8593C235.135 32.0677 235.016 32.1458 234.776 32.1458H232.87V28.6041H234.719Z" fill="white"/>
<path d="M92.8021 30.375V29.8437C92.8021 29.3906 92.6354 29.1614 92.1302 29.1614C91.6198 29.1614 91.4479 29.3906 91.4479 29.8437V30.375H92.8021ZM91.4479 32.1458H90.7396V29.8489C90.7396 29.0677 91.0677 28.5364 92.1302 28.5364C93.1927 28.5364 93.5313 29.0677 93.5313 29.8489V32.1458H92.8021V30.9687H91.4479V32.1458Z" fill="white"/>
<path d="M96.3438 29.2916C96.2031 29.2448 95.8854 29.1614 95.5313 29.1614C95.1198 29.1614 94.9011 29.2812 94.9011 29.5625C94.9011 30.1354 96.5365 30.0781 96.5365 31.151C96.5365 31.7969 96.0156 32.2135 95.1823 32.2135C94.3594 32.2135 94.1302 31.9844 94.1302 31.7187V31.4062C94.4011 31.4896 94.7917 31.5885 95.2188 31.5885C95.5417 31.5885 95.7344 31.4479 95.7344 31.2083C95.7344 30.6614 94.099 30.75 94.099 29.6406C94.099 28.901 94.6615 28.5364 95.474 28.5364C95.9531 28.5364 96.3438 28.6354 96.3438 28.9844V29.2916Z" fill="white"/>
<path d="M99.1302 29.2916C98.9844 29.2448 98.6667 29.1614 98.3125 29.1614C97.9063 29.1614 97.6823 29.2812 97.6823 29.5625C97.6823 30.1354 99.3229 30.0781 99.3229 31.151C99.3229 31.7969 98.8021 32.2135 97.9688 32.2135C97.1406 32.2135 96.9167 31.9844 96.9167 31.7187V31.4062C97.1875 31.4896 97.5729 31.5885 98.0052 31.5885C98.3281 31.5885 98.5156 31.4479 98.5156 31.2083C98.5156 30.6614 96.8802 30.75 96.8802 29.6406C96.8802 28.901 97.4479 28.5364 98.2552 28.5364C98.7344 28.5364 99.1302 28.6354 99.1302 28.9844V29.2916Z" fill="white"/>
<path d="M101.37 29.1614C100.823 29.1614 100.547 29.3385 100.547 30.3802C100.547 31.4166 100.823 31.5885 101.37 31.5885C101.906 31.5885 102.188 31.4166 102.188 30.3802C102.188 29.3385 101.906 29.1614 101.37 29.1614ZM101.37 32.2135C100.328 32.2135 99.7969 31.7135 99.7969 30.3802C99.7969 29.0364 100.328 28.5364 101.37 28.5364C102.406 28.5364 102.938 29.0364 102.938 30.3802C102.938 31.7135 102.406 32.2135 101.37 32.2135Z" fill="white"/>
<path d="M105.943 29.2916C105.745 29.2291 105.448 29.1614 105.057 29.1614C104.49 29.1614 104.167 29.4271 104.167 30.3646C104.167 31.3021 104.5 31.5885 105.125 31.5885C105.531 31.5885 105.786 31.5156 105.979 31.4479V31.8229C105.979 32.1198 105.547 32.2135 105.031 32.2135C104.057 32.2135 103.422 31.7031 103.422 30.3646C103.422 29.0052 104.021 28.5364 105.089 28.5364C105.604 28.5364 105.943 28.6458 105.943 28.9687V29.2916Z" fill="white"/>
<path d="M107.359 32.1406H106.635V28.6041H107.359V32.1406Z" fill="white"/>
<path d="M110.234 30.375V29.8437C110.234 29.3906 110.068 29.1614 109.557 29.1614C109.052 29.1614 108.875 29.3906 108.875 29.8437V30.375H110.234ZM108.875 32.1458H108.172V29.8489C108.172 29.0677 108.5 28.5364 109.557 28.5364C110.625 28.5364 110.964 29.0677 110.964 29.8489V32.1458H110.234V30.9687H108.875V32.1458Z" fill="white"/>
<path d="M114.198 28.6041V28.875C114.198 29.1041 114.089 29.2448 113.833 29.2448H113.089V32.1458H112.365V29.2448H111.26V29.0052C111.26 28.75 111.38 28.6041 111.677 28.6041H114.198Z" fill="white"/>
<path d="M115.427 32.1406H114.703V28.6041H115.427V32.1406Z" fill="white"/>
<path d="M117.682 29.1614C117.135 29.1614 116.865 29.3385 116.865 30.3802C116.865 31.4166 117.135 31.5885 117.682 31.5885C118.224 31.5885 118.5 31.4166 118.5 30.3802C118.5 29.3385 118.224 29.1614 117.682 29.1614ZM117.682 32.2135C116.641 32.2135 116.109 31.7135 116.109 30.3802C116.109 29.0364 116.641 28.5364 117.682 28.5364C118.719 28.5364 119.25 29.0364 119.25 30.3802C119.25 31.7135 118.719 32.2135 117.682 32.2135Z" fill="white"/>
<path d="M120.661 32.1458H119.938V29C119.938 28.4531 120.521 28.4427 120.719 28.7396L122.141 30.8854V28.9271C122.141 28.7031 122.214 28.6042 122.448 28.6042H122.859V31.7083C122.859 32.2865 122.24 32.3333 122 31.9948L120.661 29.9792V32.1458Z" fill="white"/>
<path d="M125.672 17.2917C124.974 17.2917 124.604 17.5313 124.604 18.7969C124.604 20.0573 124.974 20.2865 125.672 20.2865C126.354 20.2865 126.724 20.0573 126.724 18.7969C126.724 17.5313 126.354 17.2917 125.672 17.2917ZM125.672 20.6302C124.729 20.6302 124.193 20.2552 124.193 18.7969C124.193 17.3281 124.729 16.9531 125.672 16.9531C126.609 16.9531 127.13 17.3281 127.13 18.7969C127.13 20.2552 126.609 20.6302 125.672 20.6302Z" fill="white"/>
<path d="M127.917 19.3229V17.0208H128.125C128.255 17.0208 128.307 17.0833 128.307 17.2396V19.3177C128.307 19.8594 128.547 20.2864 129.276 20.2864C130.005 20.2864 130.234 19.8594 130.234 19.3177V17.2396C130.234 17.0833 130.292 17.0208 130.427 17.0208H130.63V19.3229C130.63 20.0729 130.255 20.6302 129.276 20.6302C128.292 20.6302 127.917 20.0729 127.917 19.3229Z" fill="white"/>
<path d="M162.922 17.2917C162.229 17.2917 161.859 17.5313 161.859 18.7969C161.859 20.0573 162.229 20.2865 162.922 20.2865C163.609 20.2865 163.974 20.0573 163.974 18.7969C163.974 17.5313 163.609 17.2917 162.922 17.2917ZM162.922 20.6302C161.979 20.6302 161.448 20.2552 161.448 18.7969C161.448 17.3281 161.979 16.9531 162.922 16.9531C163.859 16.9531 164.385 17.3281 164.385 18.7969C164.385 20.2552 163.859 20.6302 162.922 20.6302Z" fill="white"/>
<path d="M165.172 19.3229V17.0208H165.38C165.51 17.0208 165.563 17.0833 165.563 17.2396V19.3177C165.563 19.8594 165.802 20.2864 166.531 20.2864C167.255 20.2864 167.49 19.8594 167.49 19.3177V17.2396C167.49 17.0833 167.547 17.0208 167.682 17.0208H167.885V19.3229C167.885 20.0729 167.51 20.6302 166.531 20.6302C165.547 20.6302 165.172 20.0729 165.172 19.3229Z" fill="white"/>
<path d="M202.161 17.2917C201.464 17.2917 201.094 17.5313 201.094 18.7969C201.094 20.0573 201.464 20.2865 202.161 20.2865C202.844 20.2865 203.214 20.0573 203.214 18.7969C203.214 17.5313 202.844 17.2917 202.161 17.2917ZM202.161 20.6302C201.219 20.6302 200.688 20.2552 200.688 18.7969C200.688 17.3281 201.219 16.9531 202.161 16.9531C203.099 16.9531 203.625 17.3281 203.625 18.7969C203.625 20.2552 203.099 20.6302 202.161 20.6302Z" fill="white"/>
<path d="M204.406 19.3229V17.0208H204.615C204.75 17.0208 204.802 17.0833 204.802 17.2396V19.3177C204.802 19.8594 205.036 20.2864 205.766 20.2864C206.495 20.2864 206.724 19.8594 206.724 19.3177V17.2396C206.724 17.0833 206.781 17.0208 206.917 17.0208H207.12V19.3229C207.12 20.0729 206.75 20.6302 205.766 20.6302C204.781 20.6302 204.406 20.0729 204.406 19.3229Z" fill="white"/>
<path d="M109.609 20.0312L113.766 17.8229C114.229 17.5625 114.958 17.5417 115.333 18.0312C115.708 18.5156 115.62 19.224 115.13 19.599L107.88 24.4531L102 22.9948L100.214 23.4063L100.167 17.875H109.078C109.703 17.875 110.214 18.375 110.234 18.9948C110.234 18.9948 110.286 20.1146 109.115 20.1146H104.807" stroke="white" stroke-width="0.634667" stroke-linecap="round" stroke-linejoin="round"/>
<path d="M98.5521 24H99.625C99.9323 24 100.182 23.7552 100.182 23.4479V17.9844C100.182 17.6771 99.9323 17.4271 99.625 17.4271H98.5521C98.2448 17.4271 97.9948 17.6771 97.9948 17.9844V23.4479C97.9948 23.7552 98.2448 24 98.5521 24Z" stroke="white" stroke-width="0.634667" stroke-linejoin="round"/>
<path d="M107.214 17.875C108.312 17.1094 110.182 15.5833 110.875 13.6667C111.885 10.8802 110.354 9.41146 108.76 9.41146C107.172 9.41146 106.375 11.6458 106.375 11.6458C106.375 11.6458 105.578 9.41146 103.984 9.41146C102.391 9.41146 100.859 10.8802 101.87 13.6667C102.568 15.5833 104.432 17.1094 105.531 17.875" stroke="white" stroke-width="0.634667" stroke-linejoin="round"/>
<path d="M224.385 8.26038L223.609 9.03642C223.396 9.24475 223.396 9.59371 223.609 9.80204L226.589 12.7812C226.797 12.9948 227.141 12.9948 227.354 12.7812L228.13 12.0104C228.344 11.7968 228.344 11.4531 228.13 11.2395L225.151 8.26038C224.943 8.05204 224.594 8.05204 224.385 8.26038Z" fill="#29675D"/>
<path d="M224.385 8.26042L223.609 9.03646C223.396 9.24479 223.396 9.59375 223.609 9.80208L226.589 12.7812C226.797 12.9948 227.141 12.9948 227.354 12.7812L228.13 12.0104C228.344 11.7969 228.344 11.4531 228.13 11.2396L225.151 8.26042C224.943 8.05208 224.594 8.05208 224.385 8.26042Z" stroke="white" stroke-width="0.634667" stroke-linejoin="round"/>
<path d="M222.323 15.3542L222.37 16.8177C222.38 17.1719 222.677 17.4531 223.031 17.4375C223.391 17.4271 223.667 17.1302 223.656 16.776L223.583 14.8281" fill="#29675D"/>
<path d="M222.323 15.3542L222.37 16.8177C222.38 17.1719 222.677 17.4531 223.031 17.4375C223.391 17.4271 223.667 17.1302 223.656 16.776L223.583 14.8281" stroke="white" stroke-width="0.634667" stroke-linejoin="round"/>
<path d="M225.052 19.8073L219.688 14.4479L218.276 15.8593L223.641 21.2187L222.818 22.0416L225.865 22.0364L225.87 18.9895L225.052 19.8073Z" fill="#29675D" stroke="white" stroke-width="0.634667" stroke-linejoin="round"/>
<path d="M220.677 22.3021V16.0833H218.677V22.3021H217.521L219.677 24.4531L221.833 22.3021H220.677Z" fill="#29675D" stroke="white" stroke-width="0.634667" stroke-linejoin="round"/>
<path d="M215.74 21.2187L221.104 15.8541L219.693 14.4427L214.328 19.8073L213.51 18.9844V22.0312L216.557 22.0364L215.74 21.2187Z" fill="#29675D" stroke="white" stroke-width="0.634667" stroke-linejoin="round"/>
<path d="M220.901 14.4635L219.469 16.3906C219.224 16.7135 219.292 17.1771 219.615 17.4219C219.937 17.6667 220.401 17.5989 220.646 17.2708L221.542 16.0729C221.896 15.5989 222.297 15.4271 222.49 15.375C222.922 15.2656 224.214 14.776 224.906 14.3542C225.599 13.9375 225.958 12.9583 225.922 12.1146L223.854 10.0469L219.474 11.4167C218.937 11.5989 218.745 11.9062 218.667 12.0833C218.583 12.2656 217.714 14.3333 217.714 14.3333C217.609 14.5937 217.552 14.901 217.703 15.1614C217.849 15.4219 218.182 15.9479 218.182 15.9479L219.146 14.9792C219.146 14.9792 219.109 14.4479 219.234 14.1771C219.359 13.901 219.495 13.4479 219.776 13.3437C220.062 13.2448 220.562 13.0833 220.562 13.0833C220.562 13.0833 220.516 13.651 220.62 13.9583C220.719 14.2656 220.88 14.4479 220.88 14.4479L220.901 14.4635Z" fill="#29675D" stroke="white" stroke-width="0.634667" stroke-linejoin="round"/>
<path d="M174.062 29.8437L173.865 32.1406H173.115L173.422 28.9167C173.458 28.5156 174.109 28.3906 174.318 28.8021L175.13 30.4896L175.937 28.8021C176.146 28.3906 176.807 28.5156 176.854 28.9739L177.151 32.1406H176.396L176.203 29.8437L175.505 31.3177C175.365 31.599 174.896 31.599 174.755 31.3125L174.062 29.8437Z" fill="white"/>
<path d="M179.885 30.375V29.8437C179.885 29.3906 179.714 29.1614 179.208 29.1614C178.698 29.1614 178.526 29.3906 178.526 29.8437V30.375H179.885ZM178.526 32.1458H177.818V29.8489C177.818 29.0677 178.151 28.5364 179.208 28.5364C180.271 28.5364 180.609 29.0677 180.609 29.8489V32.1458H179.885V30.9687H178.526V32.1458Z" fill="white"/>
<path d="M182.958 30.7344C182.755 30.7344 182.698 30.6458 182.698 30.4791V30.1354H184.224V31.7344C184.224 31.9479 184.141 32.0208 184.01 32.0625C183.708 32.1562 183.385 32.2135 182.859 32.2135C181.839 32.2135 181.188 31.7396 181.188 30.3646C181.188 29.026 181.891 28.5364 182.995 28.5364C183.776 28.5364 184.094 28.6927 184.094 29.0469V29.3333C183.849 29.2552 183.557 29.1614 183.021 29.1614C182.297 29.1614 181.932 29.4739 181.932 30.3646C181.932 31.3125 182.297 31.5885 182.88 31.5885C183.219 31.5885 183.375 31.5469 183.495 31.5208V30.7344H182.958Z" fill="white"/>
<path d="M187.042 30.375V29.8437C187.042 29.3906 186.875 29.1614 186.365 29.1614C185.859 29.1614 185.682 29.3906 185.682 29.8437V30.375H187.042ZM185.682 32.1458H184.979V29.8489C184.979 29.0677 185.307 28.5364 186.365 28.5364C187.432 28.5364 187.771 29.0677 187.771 29.8489V32.1458H187.042V30.9687H185.682V32.1458Z" fill="white"/>
<path d="M190.583 29.2916C190.437 29.2448 190.12 29.1614 189.771 29.1614C189.359 29.1614 189.141 29.2812 189.141 29.5625C189.141 30.1354 190.776 30.0781 190.776 31.151C190.776 31.7969 190.255 32.2135 189.422 32.2135C188.594 32.2135 188.37 31.9844 188.37 31.7187V31.4062C188.641 31.4896 189.026 31.5885 189.458 31.5885C189.781 31.5885 189.969 31.4479 189.969 31.2083C189.969 30.6614 188.333 30.75 188.333 29.6406C188.333 28.901 188.901 28.5364 189.708 28.5364C190.193 28.5364 190.583 28.6354 190.583 28.9844V29.2916Z" fill="white"/>
<path d="M192.208 32.1406H191.49V28.6041H192.208V32.1406Z" fill="white"/>
<path d="M193.849 32.1458H193.125V29C193.125 28.4531 193.708 28.4427 193.906 28.7396L195.328 30.8854V28.9271C195.328 28.7031 195.406 28.6042 195.635 28.6042H196.052V31.7083C196.052 32.2865 195.427 32.3333 195.193 31.9948L193.849 29.9792V32.1458Z" fill="white"/>
<path d="M173.776 24.4531H195.521" stroke="white" stroke-width="0.634667" stroke-linecap="round" stroke-linejoin="round"/>
<path d="M189.234 24.4531V16.9479H194.307V24.4531" stroke="white" stroke-width="0.634667" stroke-linejoin="round"/>
<path d="M174.99 14.3593H189.234V21.2291H174.99V14.3593Z" stroke="white" stroke-width="0.634667" stroke-linejoin="round"/>
<path d="M174.99 24.4531V12.276C174.99 11.2917 175.786 10.4948 176.771 10.4948H192.526C193.51 10.4948 194.307 11.2917 194.307 12.276V24.4531" stroke="white" stroke-width="0.634667" stroke-linejoin="round"/>
<path d="M194.099 14.3594H175.188" stroke="white" stroke-width="0.634667" stroke-linejoin="round"/>
<path d="M190.922 14.3594V10.4948" stroke="white" stroke-width="0.634667" stroke-linejoin="round"/>
<path d="M187.766 14.3594V10.4948" stroke="white" stroke-width="0.634667" stroke-linejoin="round"/>
<path d="M184.604 14.3594V10.4948" stroke="white" stroke-width="0.634667" stroke-linejoin="round"/>
<path d="M181.443 14.3594V10.4948" stroke="white" stroke-width="0.634667" stroke-linejoin="round"/>
<path d="M178.281 14.3594V10.4948" stroke="white" stroke-width="0.634667" stroke-linejoin="round"/>
<path d="M151.052 14.5989H142.62V12.0677H151.052V14.5989Z" stroke="white" stroke-width="0.634667" stroke-miterlimit="10" stroke-linecap="round" stroke-linejoin="round"/>
<path d="M151.052 14.5989H142.62V13.3333H151.052V14.5989Z" fill="white" stroke="white" stroke-width="0.634667" stroke-miterlimit="10" stroke-linecap="round" stroke-linejoin="round"/>
<path d="M140.969 25.6562V11.8229L142.469 9.14062H151.203L152.703 11.8229V25.6562" stroke="white" stroke-width="0.634667" stroke-miterlimit="10" stroke-linecap="round" stroke-linejoin="round"/>
<path d="M142.182 19.026H143.12" stroke="white" stroke-width="0.634667" stroke-miterlimit="10" stroke-linecap="round" stroke-linejoin="round"/>
<path d="M152.703 24.8646H140.969" stroke="white" stroke-width="0.634667" stroke-miterlimit="10" stroke-linecap="round" stroke-linejoin="round"/>
<path d="M38.7865 16.6145H39.5261C40.75 16.6145 41.1927 16.0104 41.1927 14.5937C41.1927 13.0833 40.6563 12.6979 39.7136 12.6979H38.7865V16.6145ZM38.349 17.6562C37.7969 17.6562 37.5521 17.375 37.5521 16.8541V11.651H39.7292C41.4583 11.651 42.4583 12.5312 42.4583 14.5781C42.4583 16.4687 41.7917 17.6562 39.5156 17.6562H38.349Z" fill="#29675D"/>
<path d="M45.9479 12.5938C45.0156 12.5938 44.5521 12.8958 44.5521 14.6615C44.5521 16.4219 45.0156 16.7188 45.9479 16.7188C46.8594 16.7188 47.3333 16.4219 47.3333 14.6615C47.3333 12.8958 46.8594 12.5938 45.9479 12.5938ZM45.9479 17.776C44.1823 17.776 43.276 16.9323 43.276 14.6615C43.276 12.3854 44.1823 11.5312 45.9479 11.5312C47.7031 11.5312 48.6094 12.3854 48.6094 14.6615C48.6094 16.9323 47.7031 17.776 45.9479 17.776Z" fill="#29675D"/>
<path d="M50.9948 17.6562H49.7708V12.3177C49.7708 11.3906 50.7604 11.375 51.0938 11.875L53.5104 15.5156V12.1979C53.5104 11.8177 53.6406 11.651 54.0313 11.651H54.7396V16.9219C54.7396 17.901 53.6771 17.9844 53.2761 17.401L50.9948 13.9844V17.6562Z" fill="#29675D"/>
<path d="M57.5208 17.6562H56.2917V12.3177C56.2917 11.3906 57.2812 11.375 57.6198 11.875L60.0312 15.5156V12.1979C60.0312 11.8177 60.1614 11.651 60.5521 11.651H61.2604V16.9219C61.2604 17.901 60.1979 17.9844 59.7969 17.401L57.5208 13.9844V17.6562Z" fill="#29675D"/>
<path d="M65.8854 11.651C66.4167 11.651 66.4844 11.8333 66.4844 12.1666V12.6979H63.9739V14.1458H66.2812V14.6927C66.2812 14.9687 66.1719 15.125 65.8281 15.125H63.9739V16.6145H66.5937V17.177C66.5937 17.5312 66.3854 17.6562 65.9844 17.6562H62.7448V11.651H65.8854Z" fill="#29675D"/>
<path d="M72.026 11.651V12.1093C72.026 12.4427 71.9479 12.6979 71.6823 13.0416L68.9427 16.6145H72.1146V16.9895C72.1146 17.3645 71.9531 17.6562 71.4948 17.6562H67.4323V17.2864C67.4323 16.8802 67.5 16.6302 67.7552 16.2916L70.5104 12.6979H67.5156V12.3385C67.5156 11.9166 67.7812 11.651 68.2917 11.651H72.026Z" fill="#29675D"/>
<path d="M53.1302 20.4063C52.3698 20.4063 51.9688 20.6667 51.9688 22.0469C51.9688 23.4219 52.3698 23.6771 53.1302 23.6771C53.8698 23.6771 54.2761 23.4219 54.2761 22.0469C54.2761 20.6667 53.8698 20.4063 53.1302 20.4063ZM53.1302 24.0469C52.099 24.0469 51.5208 23.6354 51.5208 22.0469C51.5208 20.4427 52.099 20.0312 53.1302 20.0312C54.1511 20.0312 54.724 20.4427 54.724 22.0469C54.724 23.6354 54.1511 24.0469 53.1302 24.0469Z" fill="#29675D"/>
<path d="M55.5781 22.6198V20.1094H55.8073C55.9479 20.1094 56.0052 20.1771 56.0052 20.349V22.6146C56.0052 23.2083 56.2656 23.6771 57.0625 23.6771C57.8594 23.6771 58.1094 23.2083 58.1094 22.6146V20.349C58.1094 20.1771 58.1719 20.1094 58.3177 20.1094H58.5365V22.6198C58.5365 23.4427 58.1354 24.0469 57.0625 24.0469C55.9896 24.0469 55.5781 23.4427 55.5781 22.6198Z" fill="#29675D"/>
<path d="M37.349 29.4635H38.0938C38.9219 29.4635 39.2448 29.0625 39.2448 28.4062C39.2448 27.6979 38.9323 27.4323 38.1146 27.4323H37.349V29.4635ZM38.1615 26.3802C39.776 26.3802 40.5208 27 40.5208 28.4062C40.5208 29.3594 39.9792 29.9062 39.3698 30.2187L40.5885 32.3906H39.6771C39.3229 32.3906 39.125 32.276 38.9583 31.9687L38.1927 30.4687H37.349V32.3906H36.125V27.1562C36.125 26.6666 36.3958 26.3802 36.8958 26.3802H38.1615Z" fill="#29675D"/>
<path d="M44.8542 26.3802C45.3854 26.3802 45.4531 26.5677 45.4531 26.901V27.4323H42.9375V28.875H45.2448V29.4271C45.2448 29.7031 45.1354 29.8594 44.7917 29.8594H42.9375V31.3489H45.5573V31.9114C45.5573 32.2656 45.3542 32.3906 44.9531 32.3906H41.7083V26.3802H44.8542Z" fill="#29675D"/>
<path d="M50.5469 27.5521C50.2135 27.4427 49.7135 27.3281 49.0469 27.3281C48.0833 27.3281 47.5365 27.776 47.5365 29.3698C47.5365 30.9583 48.1042 31.4479 49.1667 31.4479C49.8542 31.4479 50.2813 31.3229 50.6146 31.2135V31.849C50.6146 32.3542 49.8802 32.5104 49.0052 32.5104C47.349 32.5104 46.2656 31.6458 46.2656 29.3698C46.2656 27.0573 47.2865 26.2656 49.1042 26.2656C49.9792 26.2656 50.5469 26.4479 50.5469 27V27.5521Z" fill="#29675D"/>
<path d="M51.9635 26.3802C52.2969 26.3802 52.5052 26.5104 52.6302 26.7656L53.7708 29.0364L54.8333 26.7656C54.9479 26.5 55.1146 26.3802 55.4427 26.3802H56.2135L54.3021 30.1354V32.3906H53.0729V30.1354L51.1198 26.3802H51.9635Z" fill="#29675D"/>
<path d="M61.0469 27.5521C60.7135 27.4427 60.2135 27.3281 59.5469 27.3281C58.5833 27.3281 58.0365 27.776 58.0365 29.3698C58.0365 30.9583 58.6042 31.4479 59.6667 31.4479C60.349 31.4479 60.7813 31.3229 61.1146 31.2135V31.849C61.1146 32.3542 60.3802 32.5104 59.5052 32.5104C57.849 32.5104 56.7656 31.6458 56.7656 29.3698C56.7656 27.0573 57.7865 26.2656 59.6042 26.2656C60.4792 26.2656 61.0469 26.4479 61.0469 27V27.5521Z" fill="#29675D"/>
<path d="M65.8802 31.3489V31.8906C65.8802 32.2448 65.6458 32.3906 65.2239 32.3906H63.0312C62.4844 32.3906 62.2292 32.1041 62.2292 31.5677V26.3802H63.4531V31.3489H65.8802Z" fill="#29675D"/>
<path d="M69.8594 26.3802C70.3906 26.3802 70.4583 26.5677 70.4583 26.901V27.4323H67.9427V28.875H70.25V29.4271C70.25 29.7031 70.1406 29.8594 69.7969 29.8594H67.9427V31.3489H70.5677V31.9114C70.5677 32.2656 70.3594 32.3906 69.9583 32.3906H66.7188V26.3802H69.8594Z" fill="#29675D"/>
<path d="M75.9948 26.3802V26.8437C75.9948 27.1771 75.9167 27.4323 75.651 27.776L72.9167 31.3489H76.0833V31.7239C76.0833 32.0989 75.9271 32.3906 75.4687 32.3906H71.401V32.0208C71.401 31.6146 71.4687 31.3594 71.7292 31.026L74.4844 27.4323H71.4896V27.0729C71.4896 26.6458 71.7552 26.3802 72.2656 26.3802H75.9948Z" fill="#29675D"/>
<path d="M134.589 29.2865C134.391 29.224 134.099 29.151 133.703 29.151C133.135 29.151 132.812 29.4219 132.812 30.3542C132.812 31.2917 133.146 31.5833 133.776 31.5833C134.177 31.5833 134.432 31.5052 134.63 31.4427V31.8177C134.63 32.1146 134.193 32.2083 133.682 32.2083C132.703 32.2083 132.068 31.6979 132.068 30.3542C132.068 28.9948 132.667 28.5312 133.74 28.5312C134.255 28.5312 134.589 28.6406 134.589 28.9635V29.2865Z" fill="white"/>
<path d="M136.495 29.151C135.943 29.151 135.672 29.3333 135.672 30.375C135.672 31.4062 135.943 31.5833 136.495 31.5833C137.031 31.5833 137.307 31.4062 137.307 30.375C137.307 29.3333 137.031 29.151 136.495 29.151ZM136.495 32.2083C135.453 32.2083 134.922 31.7083 134.922 30.375C134.922 29.0312 135.453 28.526 136.495 28.526C137.526 28.526 138.063 29.0312 138.063 30.375C138.063 31.7083 137.526 32.2083 136.495 32.2083Z" fill="white"/>
<path d="M139.469 32.1354H138.745V28.9896C138.745 28.4479 139.328 28.4375 139.526 28.7343L140.948 30.875V28.9218C140.948 28.6979 141.026 28.5989 141.255 28.5989H141.672V31.7031C141.672 32.2812 141.047 32.3281 140.807 31.9843L139.469 29.9739V32.1354Z" fill="white"/>
<path d="M145.115 28.5989V28.8698C145.115 29.0937 145.005 29.2396 144.75 29.2396H144.005V32.1354H143.281V29.2396H142.177V28.9948C142.177 28.7448 142.292 28.5989 142.594 28.5989H145.115Z" fill="white"/>
<path d="M147.427 28.5989C147.74 28.5989 147.776 28.7083 147.776 28.9062V29.2187H146.297V30.0677H147.656V30.3906C147.656 30.5521 147.594 30.6458 147.391 30.6458H146.297V31.526H147.839V31.8541C147.839 32.0625 147.719 32.1354 147.484 32.1354H145.573V28.5989H147.427Z" fill="white"/>
<path d="M149.286 32.1354H148.568V28.9896C148.568 28.4479 149.151 28.4375 149.349 28.7343L150.771 30.875V28.9218C150.771 28.6979 150.844 28.5989 151.078 28.5989H151.49V31.7031C151.49 32.2812 150.87 32.3281 150.63 31.9843L149.286 29.9739V32.1354Z" fill="white"/>
<path d="M154.219 28.5989C154.531 28.5989 154.573 28.7083 154.573 28.9062V29.2187H153.094V30.0677H154.453V30.3906C154.453 30.5521 154.385 30.6458 154.182 30.6458H153.094V31.526H154.635V31.8541C154.635 32.0625 154.516 32.1354 154.276 32.1354H152.37V28.5989H154.219Z" fill="white"/>
<path d="M155.292 30.9062V28.5989H155.719C155.958 28.5989 156.016 28.6979 156.016 28.9219V30.8698C156.016 31.3177 156.224 31.5833 156.724 31.5833C157.245 31.5833 157.448 31.3177 157.448 30.8698V28.9219C157.448 28.6979 157.51 28.5989 157.745 28.5989H158.177V30.9062C158.177 31.6875 157.797 32.2083 156.724 32.2083C155.672 32.2083 155.292 31.6875 155.292 30.9062Z" fill="white"/>
<path d="M159.766 30.4114H160.203C160.688 30.4114 160.88 30.1771 160.88 29.7916C160.88 29.375 160.693 29.2187 160.214 29.2187H159.766V30.4114ZM160.245 28.5989C161.193 28.5989 161.63 28.9635 161.63 29.7916C161.63 30.3489 161.313 30.6719 160.953 30.8594L161.672 32.1354H161.135C160.927 32.1354 160.813 32.0677 160.714 31.8906L160.26 31.0052H159.766V32.1354H159.042V29.0573C159.042 28.7656 159.203 28.5989 159.5 28.5989H160.245Z" fill="white"/>
<path d="M140.125 33.3541V33.625C140.125 33.8541 140.016 33.9948 139.76 33.9948H139.016V36.8958H138.292V33.9948H137.188V33.7552C137.188 33.5 137.302 33.3541 137.604 33.3541H140.125Z" fill="white"/>
<path d="M142.432 33.3541C142.745 33.3541 142.786 33.4635 142.786 33.6614V33.9739H141.307V34.8229H142.667V35.1458C142.667 35.3073 142.599 35.401 142.396 35.401H141.307V36.2812H142.849V36.6093C142.849 36.8177 142.729 36.8958 142.49 36.8958H140.583V33.3541H142.432Z" fill="white"/>
<path d="M143.151 33.3541H143.729C143.906 33.3541 144.026 33.4218 144.12 33.5729L144.745 34.5677L145.411 33.5677C145.526 33.4062 145.641 33.3541 145.854 33.3541H146.318L145.13 35.0833L146.323 36.8958H145.74C145.562 36.8958 145.437 36.8177 145.344 36.6718L144.682 35.6354L143.995 36.6666C143.906 36.8073 143.812 36.8958 143.573 36.8958H143.099L144.292 35.1198L143.151 33.3541Z" fill="white"/>
<path d="M149.292 33.3541V33.625C149.292 33.8541 149.182 33.9948 148.927 33.9948H148.182V36.8958H147.458V33.9948H146.354V33.7552C146.354 33.5 146.469 33.3541 146.771 33.3541H149.292Z" fill="white"/>
<path d="M150.521 36.8958H149.797V33.3541H150.521V36.8958Z" fill="white"/>
<path d="M153.589 36.2812V36.5989C153.589 36.8073 153.453 36.8958 153.203 36.8958H151.911C151.589 36.8958 151.438 36.7239 151.438 36.4062V33.3541H152.161V36.2812H153.589Z" fill="white"/>
<path d="M155.937 33.3541C156.245 33.3541 156.286 33.4635 156.286 33.6614V33.9739H154.807V34.8229H156.167V35.1458C156.167 35.3073 156.104 35.401 155.901 35.401H154.807V36.2812H156.349V36.6093C156.349 36.8177 156.229 36.8958 155.995 36.8958H154.083V33.3541H155.937Z" fill="white"/>
</g>
<defs>
<clipPath id="clip0_50_3865">
<rect width="241" height="41" fill="white"/>
</clipPath>
</defs>
</svg>
