<svg width="312" height="61" viewBox="0 0 312 61" fill="none" xmlns="http://www.w3.org/2000/svg">
<g clip-path="url(#clip0_66_2048)">
<path d="M24.6979 60.4688C11.0781 60.4688 0 49.5208 0 36.0625V0H286.948C300.563 0 311.641 10.9479 311.641 24.4062V60.4688" fill="white"/>
<path d="M244.083 52.9114H69.1353C59.6874 52.9114 51.9999 45.3541 51.9999 36.0625V7.55725H226.948C236.396 7.55725 244.083 15.1145 244.083 24.4062V52.9114ZM227 6L50.1667 5.66663L50.1145 36.0625C50.1145 46.3958 58.6458 54.802 69.1353 54.802L245.969 55V24.4062C245.969 14.0729 237.49 6 227 6Z" fill="#010101"/>
<path d="M102.901 5.66663H50.1145V36.0625C50.1145 46.3958 58.6458 54.802 69.1353 54.802H121.927V24.4062C121.927 14.0729 113.391 5.66663 102.901 5.66663Z" fill="#010101"/>
<path d="M63.651 29.3594C58.8489 29.3594 54.9583 33.25 54.9583 38.0521C54.9583 42.8542 58.8489 46.7448 63.651 46.7448C68.4583 46.7448 72.3489 42.8542 72.3489 38.0521C72.3489 33.25 68.4583 29.3594 63.651 29.3594Z" fill="white"/>
<path d="M69.3229 39.4688H65.0729V43.7188H62.2344V39.4688H57.9844V36.6355H62.2344V32.3802H65.0729V36.6355H69.3229" fill="#1C1C1B"/>
<path d="M55.7864 26.5937V17.1979H58.2708V24.5156H61.828V26.5937" fill="white"/>
<path d="M62.9426 26.5937V17.1979H69.0155V19.276H65.4322V20.7552H68.4947V22.8385H65.4322V24.5156H69.1614V26.5937" fill="white"/>
<path d="M75.0885 26.5937V19.276H72.6041V17.1979H80.0677V19.276H77.5781V26.5937" fill="white"/>
<path d="M83.5521 21.4739H84.4479C85.4479 21.4739 85.9531 21.0625 85.9531 20.2343C85.9531 19.8281 85.8229 19.5468 85.5677 19.3958C85.3125 19.2395 84.9375 19.1614 84.4479 19.1614H83.5521V21.4739ZM81.0625 26.5989V17.1979H84.6198C85.125 17.1979 85.6042 17.2448 86.0625 17.3385C86.5208 17.4375 86.9167 17.5989 87.2604 17.8333C87.6042 18.0625 87.875 18.375 88.0781 18.7656C88.2813 19.1562 88.3802 19.6458 88.3802 20.2343C88.3802 20.9062 88.2448 21.4687 87.9688 21.9114C87.6979 22.3541 87.3281 22.6979 86.8646 22.9531L88.901 26.5989H86.125L84.5052 23.4427H83.5521V26.5989" fill="white"/>
<path d="M89.8698 26.5989H92.3593V17.1979H89.8698V26.5989Z" fill="white"/>
<path d="M75.3801 43.276V33.8698H81.5103V35.9531H77.8697V37.75H80.9895V39.8333H77.8697V43.276" fill="white"/>
<path d="M84.9218 38.7031L84.7604 39.3541H86.4948L86.3385 38.7031C86.2239 38.25 86.1041 37.7604 85.9895 37.2291C85.875 36.6979 85.7604 36.1979 85.6406 35.7239H85.5833C85.4791 36.2031 85.3698 36.7083 85.2604 37.2343C85.151 37.7604 85.0364 38.25 84.9218 38.7031ZM81.3073 43.276L84.1666 33.8698H87.1718L90.0364 43.276H87.4062L86.9427 41.276H84.3125L83.8489 43.276" fill="white"/>
<path d="M94.5624 43.4479C93.9687 43.4479 93.3958 43.3489 92.8541 43.151C92.3072 42.9531 91.8333 42.651 91.4218 42.2552C91.0103 41.8541 90.6822 41.3541 90.4426 40.75C90.203 40.1458 90.0833 39.4479 90.0833 38.6458C90.0833 37.8541 90.2083 37.151 90.4583 36.5416C90.7083 35.927 91.0416 35.4114 91.4635 34.9948C91.8801 34.5729 92.3645 34.25 92.9114 34.0312C93.4583 33.8073 94.026 33.6979 94.6249 33.6979C95.2499 33.6979 95.8124 33.8229 96.302 34.0677C96.7968 34.3125 97.2083 34.6041 97.5468 34.9427L96.2447 36.5312C96.0155 36.3333 95.776 36.1666 95.5312 36.0312C95.2812 35.9062 94.9999 35.8385 94.6822 35.8385C94.401 35.8385 94.1405 35.901 93.8958 36.026C93.651 36.151 93.4322 36.3333 93.2447 36.5625C93.0572 36.7916 92.9062 37.0781 92.7968 37.4166C92.6822 37.75 92.6301 38.1354 92.6301 38.5573C92.6301 39.4479 92.8124 40.125 93.1874 40.5989C93.5572 41.0677 94.0468 41.3073 94.651 41.3073C95.0208 41.3073 95.3437 41.2291 95.6301 41.0677C95.9114 40.9062 96.1562 40.7187 96.3593 40.4948L97.6614 42.0573C97.2551 42.5208 96.7916 42.8698 96.2655 43.0989C95.7395 43.3333 95.1718 43.4479 94.5624 43.4479Z" fill="white"/>
<path d="M98.6198 43.276H101.104V33.8698H98.6198V43.276Z" fill="white"/>
<path d="M102.875 43.276V33.8698H105.365V41.1927H108.922V43.276" fill="white"/>
<path d="M110.031 43.276V33.8698H116.109V35.9531H112.521V37.4323H115.589V39.5156H112.521V41.1927H116.255V43.276" fill="white"/>
<path fill-rule="evenodd" clip-rule="evenodd" d="M16.2604 29.1927C16.2604 29.1927 15.9115 29.151 15.6771 29.7968L13.5573 35.7083C15.224 37.1198 17.1823 38.1823 19.3281 38.8073L16.7552 29.7708C16.5781 29.125 16.2604 29.1927 16.2604 29.1927ZM5.67188 23.6979C5.67188 13.7552 13.7604 5.66663 23.7031 5.66663C28.9635 5.66663 33.7083 7.93225 37.0052 11.5364L35.3906 13.177C32.5104 9.97913 28.3385 7.9635 23.7031 7.9635C15.026 7.9635 7.96875 15.0208 7.96875 23.6979C7.96875 27.5208 9.34375 31.0312 11.6198 33.7604L14.2656 20.7968C14.7396 18.5104 16.8854 16.7552 19.0521 17.1562C20.6406 17.4583 28.0938 22.3958 28.0938 22.3958C28.7292 22.802 28.375 23.3489 28.375 23.3489C28.375 23.3489 28.0729 23.875 27.4479 23.6041L21.9792 21.4062C21.0052 20.9948 19.4323 21.4323 19.6667 24.1875L21.3802 38.7864L21.4531 39.2656C22.1875 39.375 22.9375 39.4323 23.7031 39.4323C24.1875 39.4323 24.6719 39.401 25.1458 39.3541L25.0052 37.4531L28.6979 40.2708L25.3958 43.4635L25.276 41.651C24.7552 41.6979 24.2344 41.7291 23.7031 41.7291C13.7604 41.7291 5.67188 33.6406 5.67188 23.6979ZM19.9375 16.4115C18.4167 16.4115 17.1875 15.1823 17.1875 13.6562C17.1875 12.1354 18.4167 10.9062 19.9375 10.9062C21.4583 10.9062 22.6927 12.1354 22.6927 13.6562C22.6927 15.1823 21.4583 16.4115 19.9375 16.4115ZM37.1046 24.564C37.7365 24.0543 39.7005 22.4703 40.1613 19.1927L40.2342 18.1823L42.0519 18.2864L38.0259 12.8541L33.2134 17.6927L34.979 17.7656L34.9998 17.7708C35.0415 17.9687 35.2446 19.2656 34.5571 21.3177C33.7967 23.6041 31.4373 26.2916 28.4634 25.8177C32.6457 27.5677 36.0311 25.4375 37.0936 24.5729L37.1046 24.564ZM28.375 25.8489C29.5781 28.6093 33.1146 29.1406 35.4479 28.552C37.5208 28.026 38.5052 27.1718 38.6719 27.0156L38.6615 27L37.776 25.4635L44.4427 26.9218L42.0312 33.2395L41.1354 31.6458L40.2656 32.1198C37.2654 33.4985 34.8744 32.7065 34.0978 32.4492L34.0781 32.4427C32.7812 32.0156 29.1562 30.3125 28.375 25.8489ZM28.4062 25.7448C26.7135 28.2343 28.151 31.5104 29.8958 33.1718C31.4895 34.6823 32.7655 35.0364 32.9322 35.0781L33.7447 33.5208L36.0885 39.9323L29.4635 41.2812L30.3437 39.6458L29.4478 39.1458C26.6887 37.3493 26.0817 34.9168 25.8818 34.1162L25.8749 34.0885C25.5416 32.7604 25.0468 28.7864 28.4062 25.7448Z" fill="#010101"/>
<path d="M132.55 17.27C132.55 16.75 132.487 16.3733 132.36 16.14C132.24 15.9 132.017 15.78 131.69 15.78C131.51 15.78 131.36 15.83 131.24 15.93C131.127 16.0233 131.037 16.18 130.97 16.4C130.903 16.6133 130.857 16.8967 130.83 17.25C130.803 17.5967 130.79 18.0233 130.79 18.53C130.79 19.07 130.807 19.5067 130.84 19.84C130.88 20.1733 130.937 20.4333 131.01 20.62C131.09 20.8 131.187 20.9233 131.3 20.99C131.42 21.05 131.557 21.08 131.71 21.08C131.837 21.08 131.953 21.06 132.06 21.02C132.173 20.9733 132.27 20.8867 132.35 20.76C132.43 20.6267 132.493 20.4433 132.54 20.21C132.587 19.97 132.61 19.6567 132.61 19.27H134.05C134.05 19.6567 134.02 20.0233 133.96 20.37C133.9 20.7167 133.787 21.02 133.62 21.28C133.46 21.54 133.23 21.7433 132.93 21.89C132.637 22.0367 132.253 22.11 131.78 22.11C131.24 22.11 130.81 22.0233 130.49 21.85C130.17 21.6767 129.923 21.4267 129.75 21.1C129.583 20.7733 129.473 20.3833 129.42 19.93C129.373 19.4767 129.35 18.9767 129.35 18.43C129.35 17.89 129.373 17.3933 129.42 16.94C129.473 16.48 129.583 16.0867 129.75 15.76C129.923 15.4333 130.17 15.18 130.49 15C130.81 14.8133 131.24 14.72 131.78 14.72C132.293 14.72 132.697 14.8033 132.99 14.97C133.29 15.1367 133.513 15.35 133.66 15.61C133.807 15.8633 133.897 16.14 133.93 16.44C133.97 16.7333 133.99 17.01 133.99 17.27H132.55ZM137.851 19.31L137.161 16.1H137.141L136.451 19.31H137.851ZM138.041 14.86L139.931 22H138.431L138.101 20.49H136.201L135.871 22H134.371L136.261 14.86H138.041ZM140.428 14.86H143.088C143.688 14.86 144.154 15.0133 144.488 15.32C144.821 15.62 144.988 16.08 144.988 16.7C144.988 17.18 144.891 17.5733 144.698 17.88C144.504 18.18 144.204 18.3733 143.798 18.46V18.48C144.158 18.5333 144.421 18.65 144.588 18.83C144.754 19.01 144.858 19.3 144.898 19.7C144.911 19.8333 144.921 19.98 144.928 20.14C144.934 20.2933 144.941 20.4667 144.948 20.66C144.961 21.04 144.981 21.33 145.008 21.53C145.048 21.73 145.134 21.8667 145.268 21.94V22H143.708C143.634 21.9 143.588 21.7867 143.568 21.66C143.548 21.5267 143.534 21.39 143.528 21.25L143.488 19.88C143.474 19.6 143.404 19.38 143.278 19.22C143.151 19.06 142.938 18.98 142.638 18.98H141.868V22H140.428V14.86ZM141.868 17.98H142.468C142.814 17.98 143.081 17.9 143.268 17.74C143.454 17.5733 143.548 17.2967 143.548 16.91C143.548 16.25 143.214 15.92 142.548 15.92H141.868V17.98ZM149.989 14.86V16.04H148.429V22H146.989V16.04H145.429V14.86H149.989ZM151.903 18.43C151.903 18.91 151.913 19.32 151.933 19.66C151.96 19.9933 152.007 20.2667 152.073 20.48C152.147 20.6867 152.247 20.84 152.373 20.94C152.507 21.0333 152.68 21.08 152.893 21.08C153.107 21.08 153.277 21.0333 153.403 20.94C153.537 20.84 153.637 20.6867 153.703 20.48C153.777 20.2667 153.823 19.9933 153.843 19.66C153.87 19.32 153.883 18.91 153.883 18.43C153.883 17.95 153.87 17.5433 153.843 17.21C153.823 16.8767 153.777 16.6033 153.703 16.39C153.637 16.1767 153.537 16.0233 153.403 15.93C153.277 15.83 153.107 15.78 152.893 15.78C152.68 15.78 152.507 15.83 152.373 15.93C152.247 16.0233 152.147 16.1767 152.073 16.39C152.007 16.6033 151.96 16.8767 151.933 17.21C151.913 17.5433 151.903 17.95 151.903 18.43ZM150.463 18.43C150.463 17.89 150.487 17.3933 150.533 16.94C150.587 16.48 150.697 16.0867 150.863 15.76C151.037 15.4333 151.283 15.18 151.603 15C151.923 14.8133 152.353 14.72 152.893 14.72C153.433 14.72 153.863 14.8133 154.183 15C154.503 15.18 154.747 15.4333 154.913 15.76C155.087 16.0867 155.197 16.48 155.243 16.94C155.297 17.3933 155.323 17.89 155.323 18.43C155.323 18.9767 155.297 19.4767 155.243 19.93C155.197 20.3833 155.087 20.7733 154.913 21.1C154.747 21.4267 154.503 21.6767 154.183 21.85C153.863 22.0233 153.433 22.11 152.893 22.11C152.353 22.11 151.923 22.0233 151.603 21.85C151.283 21.6767 151.037 21.4267 150.863 21.1C150.697 20.7733 150.587 20.3833 150.533 19.93C150.487 19.4767 150.463 18.9767 150.463 18.43ZM157.52 14.86V19.84C157.52 20.02 157.53 20.1867 157.55 20.34C157.577 20.4867 157.62 20.6167 157.68 20.73C157.747 20.8367 157.833 20.9233 157.94 20.99C158.053 21.05 158.193 21.08 158.36 21.08C158.533 21.08 158.673 21.05 158.78 20.99C158.887 20.9233 158.97 20.8367 159.03 20.73C159.097 20.6167 159.14 20.4867 159.16 20.34C159.187 20.1867 159.2 20.02 159.2 19.84V14.86H160.64V19.84C160.64 20.2933 160.577 20.67 160.45 20.97C160.323 21.2633 160.153 21.4967 159.94 21.67C159.727 21.8433 159.483 21.96 159.21 22.02C158.937 22.08 158.653 22.11 158.36 22.11C158.067 22.11 157.783 22.0833 157.51 22.03C157.237 21.9767 156.993 21.87 156.78 21.71C156.567 21.5433 156.397 21.31 156.27 21.01C156.143 20.71 156.08 20.32 156.08 19.84V14.86H157.52ZM164.601 17.27C164.601 16.75 164.537 16.3733 164.411 16.14C164.291 15.9 164.067 15.78 163.741 15.78C163.561 15.78 163.411 15.83 163.291 15.93C163.177 16.0233 163.087 16.18 163.021 16.4C162.954 16.6133 162.907 16.8967 162.881 17.25C162.854 17.5967 162.841 18.0233 162.841 18.53C162.841 19.07 162.857 19.5067 162.891 19.84C162.931 20.1733 162.987 20.4333 163.061 20.62C163.141 20.8 163.237 20.9233 163.351 20.99C163.471 21.05 163.607 21.08 163.761 21.08C163.887 21.08 164.004 21.06 164.111 21.02C164.224 20.9733 164.321 20.8867 164.401 20.76C164.481 20.6267 164.544 20.4433 164.591 20.21C164.637 19.97 164.661 19.6567 164.661 19.27H166.101C166.101 19.6567 166.071 20.0233 166.011 20.37C165.951 20.7167 165.837 21.02 165.671 21.28C165.511 21.54 165.281 21.7433 164.981 21.89C164.687 22.0367 164.304 22.11 163.831 22.11C163.291 22.11 162.861 22.0233 162.541 21.85C162.221 21.6767 161.974 21.4267 161.801 21.1C161.634 20.7733 161.524 20.3833 161.471 19.93C161.424 19.4767 161.401 18.9767 161.401 18.43C161.401 17.89 161.424 17.3933 161.471 16.94C161.524 16.48 161.634 16.0867 161.801 15.76C161.974 15.4333 162.221 15.18 162.541 15C162.861 14.8133 163.291 14.72 163.831 14.72C164.344 14.72 164.747 14.8033 165.041 14.97C165.341 15.1367 165.564 15.35 165.711 15.61C165.857 15.8633 165.947 16.14 165.981 16.44C166.021 16.7333 166.041 17.01 166.041 17.27H164.601ZM166.922 14.86H168.362V17.59H170.042V14.86H171.482V22H170.042V18.83H168.362V22H166.922V14.86ZM176.469 14.86V16.04H173.919V17.72H176.319V18.9H173.919V20.82H176.569V22H172.479V14.86H176.469ZM181.205 20.94H181.845C182.099 20.94 182.302 20.8967 182.455 20.81C182.609 20.7233 182.729 20.58 182.815 20.38C182.909 20.18 182.969 19.9167 182.995 19.59C183.029 19.2633 183.045 18.8567 183.045 18.37C183.045 17.9633 183.032 17.6067 183.005 17.3C182.979 16.9933 182.922 16.74 182.835 16.54C182.755 16.3333 182.632 16.18 182.465 16.08C182.305 15.9733 182.089 15.92 181.815 15.92H181.205V20.94ZM179.765 14.86H182.125C182.625 14.86 183.029 14.9433 183.335 15.11C183.642 15.27 183.879 15.5033 184.045 15.81C184.219 16.11 184.335 16.4733 184.395 16.9C184.455 17.3267 184.485 17.8033 184.485 18.33C184.485 18.9567 184.445 19.5033 184.365 19.97C184.292 20.43 184.162 20.81 183.975 21.11C183.789 21.41 183.539 21.6333 183.225 21.78C182.912 21.9267 182.515 22 182.035 22H179.765V14.86ZM189.428 14.86V16.04H186.878V17.72H189.278V18.9H186.878V20.82H189.528V22H185.438V14.86H189.428ZM130.94 30.09H131.58C131.867 30.09 132.097 30.0033 132.27 29.83C132.45 29.6567 132.54 29.3867 132.54 29.02C132.54 28.66 132.463 28.3867 132.31 28.2C132.157 28.0133 131.9 27.92 131.54 27.92H130.94V30.09ZM129.5 26.86H132.02C132.387 26.86 132.693 26.9233 132.94 27.05C133.193 27.17 133.397 27.33 133.55 27.53C133.703 27.73 133.813 27.96 133.88 28.22C133.947 28.4733 133.98 28.7333 133.98 29C133.98 29.3667 133.923 29.6867 133.81 29.96C133.703 30.2333 133.55 30.4567 133.35 30.63C133.157 30.8033 132.92 30.9333 132.64 31.02C132.36 31.1067 132.05 31.15 131.71 31.15H130.94V34H129.5V26.86ZM134.686 26.86H137.346C137.946 26.86 138.412 27.0133 138.746 27.32C139.079 27.62 139.246 28.08 139.246 28.7C139.246 29.18 139.149 29.5733 138.956 29.88C138.762 30.18 138.462 30.3733 138.056 30.46V30.48C138.416 30.5333 138.679 30.65 138.846 30.83C139.012 31.01 139.116 31.3 139.156 31.7C139.169 31.8333 139.179 31.98 139.186 32.14C139.192 32.2933 139.199 32.4667 139.206 32.66C139.219 33.04 139.239 33.33 139.266 33.53C139.306 33.73 139.392 33.8667 139.526 33.94V34H137.966C137.892 33.9 137.846 33.7867 137.826 33.66C137.806 33.5267 137.792 33.39 137.786 33.25L137.746 31.88C137.732 31.6 137.662 31.38 137.536 31.22C137.409 31.06 137.196 30.98 136.896 30.98H136.126V34H134.686V26.86ZM136.126 29.98H136.726C137.072 29.98 137.339 29.9 137.526 29.74C137.712 29.5733 137.806 29.2967 137.806 28.91C137.806 28.25 137.472 27.92 136.806 27.92H136.126V29.98ZM141.532 30.43C141.532 30.91 141.542 31.32 141.562 31.66C141.589 31.9933 141.636 32.2667 141.702 32.48C141.776 32.6867 141.876 32.84 142.002 32.94C142.136 33.0333 142.309 33.08 142.522 33.08C142.736 33.08 142.906 33.0333 143.032 32.94C143.166 32.84 143.266 32.6867 143.332 32.48C143.406 32.2667 143.452 31.9933 143.472 31.66C143.499 31.32 143.512 30.91 143.512 30.43C143.512 29.95 143.499 29.5433 143.472 29.21C143.452 28.8767 143.406 28.6033 143.332 28.39C143.266 28.1767 143.166 28.0233 143.032 27.93C142.906 27.83 142.736 27.78 142.522 27.78C142.309 27.78 142.136 27.83 142.002 27.93C141.876 28.0233 141.776 28.1767 141.702 28.39C141.636 28.6033 141.589 28.8767 141.562 29.21C141.542 29.5433 141.532 29.95 141.532 30.43ZM140.092 30.43C140.092 29.89 140.116 29.3933 140.162 28.94C140.216 28.48 140.326 28.0867 140.492 27.76C140.666 27.4333 140.912 27.18 141.232 27C141.552 26.8133 141.982 26.72 142.522 26.72C143.062 26.72 143.492 26.8133 143.812 27C144.132 27.18 144.376 27.4333 144.542 27.76C144.716 28.0867 144.826 28.48 144.872 28.94C144.926 29.3933 144.952 29.89 144.952 30.43C144.952 30.9767 144.926 31.4767 144.872 31.93C144.826 32.3833 144.716 32.7733 144.542 33.1C144.376 33.4267 144.132 33.6767 143.812 33.85C143.492 34.0233 143.062 34.11 142.522 34.11C141.982 34.11 141.552 34.0233 141.232 33.85C140.912 33.6767 140.666 33.4267 140.492 33.1C140.326 32.7733 140.216 32.3833 140.162 31.93C140.116 31.4767 140.092 30.9767 140.092 30.43ZM149.979 26.86V28.04H148.419V34H146.979V28.04H145.419V26.86H149.979ZM151.894 30.43C151.894 30.91 151.904 31.32 151.924 31.66C151.95 31.9933 151.997 32.2667 152.064 32.48C152.137 32.6867 152.237 32.84 152.364 32.94C152.497 33.0333 152.67 33.08 152.884 33.08C153.097 33.08 153.267 33.0333 153.394 32.94C153.527 32.84 153.627 32.6867 153.694 32.48C153.767 32.2667 153.814 31.9933 153.834 31.66C153.86 31.32 153.874 30.91 153.874 30.43C153.874 29.95 153.86 29.5433 153.834 29.21C153.814 28.8767 153.767 28.6033 153.694 28.39C153.627 28.1767 153.527 28.0233 153.394 27.93C153.267 27.83 153.097 27.78 152.884 27.78C152.67 27.78 152.497 27.83 152.364 27.93C152.237 28.0233 152.137 28.1767 152.064 28.39C151.997 28.6033 151.95 28.8767 151.924 29.21C151.904 29.5433 151.894 29.95 151.894 30.43ZM150.454 30.43C150.454 29.89 150.477 29.3933 150.524 28.94C150.577 28.48 150.687 28.0867 150.854 27.76C151.027 27.4333 151.274 27.18 151.594 27C151.914 26.8133 152.344 26.72 152.884 26.72C153.424 26.72 153.854 26.8133 154.174 27C154.494 27.18 154.737 27.4333 154.904 27.76C155.077 28.0867 155.187 28.48 155.234 28.94C155.287 29.3933 155.314 29.89 155.314 30.43C155.314 30.9767 155.287 31.4767 155.234 31.93C155.187 32.3833 155.077 32.7733 154.904 33.1C154.737 33.4267 154.494 33.6767 154.174 33.85C153.854 34.0233 153.424 34.11 152.884 34.11C152.344 34.11 151.914 34.0233 151.594 33.85C151.274 33.6767 151.027 33.4267 150.854 33.1C150.687 32.7733 150.577 32.3833 150.524 31.93C150.477 31.4767 150.454 30.9767 150.454 30.43ZM155.616 26.86H157.206L158.126 29.17L159.036 26.86H160.606L158.946 30.39L160.726 34H159.106L158.076 31.58L157.056 34H155.476L157.256 30.39L155.616 26.86ZM162.437 26.86L163.377 29.62H163.397L164.397 26.86H165.957L164.107 31.19V34H162.667V31.19L160.817 26.86H162.437ZM167.992 32.94H168.632C168.886 32.94 169.089 32.8967 169.242 32.81C169.396 32.7233 169.516 32.58 169.602 32.38C169.696 32.18 169.756 31.9167 169.782 31.59C169.816 31.2633 169.832 30.8567 169.832 30.37C169.832 29.9633 169.819 29.6067 169.792 29.3C169.766 28.9933 169.709 28.74 169.622 28.54C169.542 28.3333 169.419 28.18 169.252 28.08C169.092 27.9733 168.876 27.92 168.602 27.92H167.992V32.94ZM166.552 26.86H168.912C169.412 26.86 169.816 26.9433 170.122 27.11C170.429 27.27 170.666 27.5033 170.832 27.81C171.006 28.11 171.122 28.4733 171.182 28.9C171.242 29.3267 171.272 29.8033 171.272 30.33C171.272 30.9567 171.232 31.5033 171.152 31.97C171.079 32.43 170.949 32.81 170.762 33.11C170.576 33.41 170.326 33.6333 170.012 33.78C169.699 33.9267 169.302 34 168.822 34H166.552V26.86ZM176.215 26.86V28.04H173.665V29.72H176.065V30.9H173.665V32.82H176.315V34H172.225V26.86H176.215ZM131.01 44.94H131.65C131.903 44.94 132.107 44.8967 132.26 44.81C132.413 44.7233 132.533 44.58 132.62 44.38C132.713 44.18 132.773 43.9167 132.8 43.59C132.833 43.2633 132.85 42.8567 132.85 42.37C132.85 41.9633 132.837 41.6067 132.81 41.3C132.783 40.9933 132.727 40.74 132.64 40.54C132.56 40.3333 132.437 40.18 132.27 40.08C132.11 39.9733 131.893 39.92 131.62 39.92H131.01V44.94ZM129.57 38.86H131.93C132.43 38.86 132.833 38.9433 133.14 39.11C133.447 39.27 133.683 39.5033 133.85 39.81C134.023 40.11 134.14 40.4733 134.2 40.9C134.26 41.3267 134.29 41.8033 134.29 42.33C134.29 42.9567 134.25 43.5033 134.17 43.97C134.097 44.43 133.967 44.81 133.78 45.11C133.593 45.41 133.343 45.6333 133.03 45.78C132.717 45.9267 132.32 46 131.84 46H129.57V38.86ZM135.422 38.86H136.662V42.07H135.422V38.86ZM140.82 43.31L140.13 40.1H140.11L139.42 43.31H140.82ZM141.01 38.86L142.9 46H141.4L141.07 44.49H139.17L138.84 46H137.34L139.23 38.86H141.01ZM143.136 44.95L145.766 40.04H143.316V38.86H147.426V39.95L144.756 44.82H147.466V46H143.136V44.95ZM149.501 42.43C149.501 42.91 149.511 43.32 149.531 43.66C149.558 43.9933 149.604 44.2667 149.671 44.48C149.744 44.6867 149.844 44.84 149.971 44.94C150.104 45.0333 150.278 45.08 150.491 45.08C150.704 45.08 150.874 45.0333 151.001 44.94C151.134 44.84 151.234 44.6867 151.301 44.48C151.374 44.2667 151.421 43.9933 151.441 43.66C151.468 43.32 151.481 42.91 151.481 42.43C151.481 41.95 151.468 41.5433 151.441 41.21C151.421 40.8767 151.374 40.6033 151.301 40.39C151.234 40.1767 151.134 40.0233 151.001 39.93C150.874 39.83 150.704 39.78 150.491 39.78C150.278 39.78 150.104 39.83 149.971 39.93C149.844 40.0233 149.744 40.1767 149.671 40.39C149.604 40.6033 149.558 40.8767 149.531 41.21C149.511 41.5433 149.501 41.95 149.501 42.43ZM148.061 42.43C148.061 41.89 148.084 41.3933 148.131 40.94C148.184 40.48 148.294 40.0867 148.461 39.76C148.634 39.4333 148.881 39.18 149.201 39C149.521 38.8133 149.951 38.72 150.491 38.72C151.031 38.72 151.461 38.8133 151.781 39C152.101 39.18 152.344 39.4333 152.511 39.76C152.684 40.0867 152.794 40.48 152.841 40.94C152.894 41.3933 152.921 41.89 152.921 42.43C152.921 42.9767 152.894 43.4767 152.841 43.93C152.794 44.3833 152.684 44.7733 152.511 45.1C152.344 45.4267 152.101 45.6767 151.781 45.85C151.461 46.0233 151.031 46.11 150.491 46.11C149.951 46.11 149.521 46.0233 149.201 45.85C148.881 45.6767 148.634 45.4267 148.461 45.1C148.294 44.7733 148.184 44.3833 148.131 43.93C148.084 43.4767 148.061 42.9767 148.061 42.43ZM157.948 38.86V40.04H156.388V46H154.948V40.04H153.388V38.86H157.948ZM162.562 38.86V40.04H160.012V41.72H162.412V42.9H160.012V44.82H162.662V46H158.572V38.86H162.562Z" fill="black"/>
<path d="M191 6H217V55H210H191L204.5 28.5L191 6Z" fill="#010101"/>
<path d="M217 6H288C297.941 6 306 14.0589 306 24V55H217V6Z" fill="black"/>
<rect x="217" y="8" width="31" height="31" fill="black"/>
<path d="M242.158 12.2235H222.834C222.498 12.2235 222.23 11.9482 222.23 11.6118C222.23 11.2753 222.498 11 222.834 11H242.158C242.495 11 242.762 11.2753 242.762 11.6118C242.762 11.9482 242.495 12.2235 242.158 12.2235Z" fill="white"/>
<path d="M245.393 19.7329H219.63C219.408 19.7329 219.194 19.6182 219.087 19.427C218.98 19.2358 218.965 18.9988 219.08 18.8076L223.538 11.4359C223.706 11.1453 224.088 11.0612 224.371 11.2294C224.654 11.4053 224.754 11.78 224.578 12.0629L220.685 18.517H244.315L240.422 12.0629C240.247 11.78 240.338 11.4053 240.629 11.2294C240.904 11.0612 241.287 11.1453 241.462 11.4359L245.913 18.8076C246.028 18.9988 246.028 19.2358 245.921 19.427C245.814 19.6182 245.607 19.7329 245.393 19.7329Z" fill="white"/>
<path d="M222.2 22.3404C220.433 22.3404 219.003 20.9105 219.003 19.1516C219.003 18.8075 219.278 18.5322 219.623 18.5322C219.959 18.5322 220.234 18.8075 220.234 19.1516C220.234 20.2299 221.114 21.1093 222.2 21.1093C223.27 21.1093 224.157 20.2299 224.157 19.1516C224.157 18.8075 224.433 18.5322 224.769 18.5322C225.106 18.5322 225.381 18.8075 225.381 19.1516C225.381 20.9105 223.951 22.3404 222.2 22.3404Z" fill="white"/>
<path d="M227.346 22.3404C225.587 22.3404 224.15 20.9105 224.15 19.1516C224.15 18.8075 224.432 18.5322 224.769 18.5322C225.105 18.5322 225.381 18.8075 225.381 19.1516C225.381 20.2299 226.26 21.1093 227.346 21.1093C228.424 21.1093 229.304 20.2299 229.304 19.1516C229.304 18.8075 229.579 18.5322 229.923 18.5322C230.26 18.5322 230.535 18.8075 230.535 19.1516C230.535 20.9105 229.105 22.3404 227.346 22.3404Z" fill="white"/>
<path d="M232.5 22.3404C230.741 22.3404 229.304 20.9105 229.304 19.1516C229.304 18.8075 229.579 18.5322 229.923 18.5322C230.26 18.5322 230.535 18.8075 230.535 19.1516C230.535 20.2299 231.414 21.1093 232.5 21.1093C233.578 21.1093 234.458 20.2299 234.458 19.1516C234.458 18.8075 234.733 18.5322 235.07 18.5322C235.414 18.5322 235.689 18.8075 235.689 19.1516C235.689 20.9105 234.259 22.3404 232.5 22.3404Z" fill="white"/>
<path d="M237.646 22.3404C235.888 22.3404 234.458 20.9105 234.458 19.1516C234.458 18.8075 234.733 18.5322 235.069 18.5322C235.413 18.5322 235.689 18.8075 235.689 19.1516C235.689 20.2299 236.568 21.1093 237.646 21.1093C238.732 21.1093 239.612 20.2299 239.612 19.1516C239.612 18.8075 239.887 18.5322 240.223 18.5322C240.56 18.5322 240.835 18.8075 240.835 19.1516C240.835 20.9105 239.405 22.3404 237.646 22.3404Z" fill="white"/>
<path d="M242.801 22.3404C241.042 22.3404 239.612 20.9105 239.612 19.1516C239.612 18.8075 239.887 18.5322 240.224 18.5322C240.56 18.5322 240.835 18.8075 240.835 19.1516C240.835 20.2299 241.715 21.1093 242.801 21.1093C243.879 21.1093 244.758 20.2299 244.758 19.1516C244.758 18.8075 245.034 18.5322 245.378 18.5322C245.714 18.5322 245.99 18.8075 245.99 19.1516C245.99 20.9105 244.56 22.3404 242.801 22.3404Z" fill="white"/>
<path d="M242.969 35.83H222.024C221.687 35.83 221.412 35.5547 221.412 35.2182V21.7288C221.412 21.3847 221.687 21.1094 222.024 21.1094C222.368 21.1094 222.643 21.3847 222.643 21.7288V34.6064H242.357V21.7441C242.357 21.4077 242.633 21.1324 242.969 21.1324C243.305 21.1324 243.588 21.4077 243.588 21.7441V35.2182C243.588 35.5547 243.305 35.83 242.969 35.83Z" fill="white"/>
<path d="M230.497 35.6999C230.16 35.6999 229.877 35.4246 229.877 35.0881V20.75C229.877 20.4058 230.16 20.1306 230.497 20.1306C230.833 20.1306 231.108 20.4058 231.108 20.75V35.0881C231.108 35.4246 230.833 35.6999 230.497 35.6999Z" fill="white"/>
<path d="M228.248 29.5976C227.912 29.5976 227.637 29.3223 227.637 28.9782V24.4894C227.637 24.1529 227.912 23.8776 228.248 23.8776C228.585 23.8776 228.868 24.1529 228.868 24.4894V28.9782C228.868 29.3223 228.585 29.5976 228.248 29.5976Z" fill="white"/>
<path d="M235.482 28.8481C235.329 28.8481 235.169 28.7869 235.054 28.6646C234.809 28.4275 234.809 28.0375 235.054 27.8005L239.038 23.8087C239.283 23.564 239.673 23.564 239.91 23.8087C240.147 24.0458 240.147 24.4358 239.91 24.6728L235.918 28.6646C235.796 28.7869 235.643 28.8481 235.482 28.8481Z" fill="white"/>
<path d="M237.233 30.8439C237.073 30.8439 236.912 30.7828 236.798 30.6604C236.553 30.4234 236.553 30.0334 236.798 29.7963L239.168 27.4257C239.405 27.181 239.795 27.181 240.032 27.4257C240.277 27.6628 240.277 28.0528 240.032 28.2898L237.669 30.6604C237.547 30.7828 237.386 30.8439 237.233 30.8439Z" fill="white"/>
<path d="M220.469 42.4H221.725L222.285 46.408H222.301L222.861 42.4H224.117V48H223.285V43.76H223.269L222.629 48H221.893L221.253 43.76H221.237V48H220.469V42.4ZM225.453 42.4H226.645L227.557 48H226.677L226.517 46.888V46.904H225.517L225.357 48H224.541L225.453 42.4ZM226.413 46.144L226.021 43.376H226.005L225.621 46.144H226.413ZM229.217 48.08C228.79 48.08 228.465 47.96 228.241 47.72C228.017 47.4747 227.905 47.1253 227.905 46.672V43.728C227.905 43.2747 228.017 42.928 228.241 42.688C228.465 42.4427 228.79 42.32 229.217 42.32C229.643 42.32 229.969 42.4427 230.193 42.688C230.417 42.928 230.529 43.2747 230.529 43.728V44.208H229.697V43.672C229.697 43.304 229.545 43.12 229.241 43.12C228.937 43.12 228.785 43.304 228.785 43.672V46.736C228.785 47.0987 228.937 47.28 229.241 47.28C229.545 47.28 229.697 47.0987 229.697 46.736V45.64H229.257V44.84H230.529V46.672C230.529 47.1253 230.417 47.4747 230.193 47.72C229.969 47.96 229.643 48.08 229.217 48.08ZM231.774 42.4H232.966L233.878 48H232.998L232.838 46.888V46.904H231.838L231.678 48H230.862L231.774 42.4ZM232.734 46.144L232.342 43.376H232.326L231.942 46.144H232.734ZM235.425 48.08C234.998 48.08 234.676 47.96 234.457 47.72C234.238 47.4747 234.129 47.1253 234.129 46.672V46.352H234.961V46.736C234.961 47.0987 235.113 47.28 235.417 47.28C235.566 47.28 235.678 47.2373 235.753 47.152C235.833 47.0613 235.873 46.9173 235.873 46.72C235.873 46.4853 235.82 46.28 235.713 46.104C235.606 45.9227 235.409 45.7067 235.121 45.456C234.758 45.136 234.505 44.848 234.361 44.592C234.217 44.3307 234.145 44.0373 234.145 43.712C234.145 43.2693 234.257 42.928 234.481 42.688C234.705 42.4427 235.03 42.32 235.457 42.32C235.878 42.32 236.196 42.4427 236.409 42.688C236.628 42.928 236.737 43.2747 236.737 43.728V43.96H235.905V43.672C235.905 43.48 235.868 43.3413 235.793 43.256C235.718 43.1653 235.609 43.12 235.465 43.12C235.172 43.12 235.025 43.2987 235.025 43.656C235.025 43.8587 235.078 44.048 235.185 44.224C235.297 44.4 235.497 44.6133 235.785 44.864C236.153 45.184 236.406 45.4747 236.545 45.736C236.684 45.9973 236.753 46.304 236.753 46.656C236.753 47.1147 236.638 47.4667 236.409 47.712C236.185 47.9573 235.857 48.08 235.425 48.08ZM237.258 42.4H238.138V48H237.258V42.4ZM238.797 42.4H239.901L240.757 45.752H240.773V42.4H241.557V48H240.653L239.597 43.912H239.581V48H238.797V42.4ZM243.355 48.08C242.928 48.08 242.605 47.96 242.387 47.72C242.168 47.4747 242.059 47.1253 242.059 46.672V46.352H242.891V46.736C242.891 47.0987 243.043 47.28 243.347 47.28C243.496 47.28 243.608 47.2373 243.683 47.152C243.763 47.0613 243.803 46.9173 243.803 46.72C243.803 46.4853 243.749 46.28 243.643 46.104C243.536 45.9227 243.339 45.7067 243.051 45.456C242.688 45.136 242.435 44.848 242.291 44.592C242.147 44.3307 242.075 44.0373 242.075 43.712C242.075 43.2693 242.187 42.928 242.411 42.688C242.635 42.4427 242.96 42.32 243.387 42.32C243.808 42.32 244.125 42.4427 244.339 42.688C244.557 42.928 244.667 43.2747 244.667 43.728V43.96H243.835V43.672C243.835 43.48 243.797 43.3413 243.723 43.256C243.648 43.1653 243.539 43.12 243.395 43.12C243.101 43.12 242.955 43.2987 242.955 43.656C242.955 43.8587 243.008 44.048 243.115 44.224C243.227 44.4 243.427 44.6133 243.715 44.864C244.083 45.184 244.336 45.4747 244.475 45.736C244.613 45.9973 244.683 46.304 244.683 46.656C244.683 47.1147 244.568 47.4667 244.339 47.712C244.115 47.9573 243.787 48.08 243.355 48.08Z" fill="white"/>
<path d="M255.59 31.57C255.212 31.57 254.923 31.4627 254.722 31.248C254.522 31.0333 254.421 30.73 254.421 30.338V27.762C254.421 27.37 254.522 27.0667 254.722 26.852C254.923 26.6373 255.212 26.53 255.59 26.53C255.968 26.53 256.258 26.6373 256.458 26.852C256.659 27.0667 256.759 27.37 256.759 27.762V30.338C256.759 30.73 256.659 31.0333 256.458 31.248C256.258 31.4627 255.968 31.57 255.59 31.57ZM255.59 30.87C255.856 30.87 255.989 30.709 255.989 30.387V27.713C255.989 27.391 255.856 27.23 255.59 27.23C255.324 27.23 255.191 27.391 255.191 27.713V30.387C255.191 30.709 255.324 30.87 255.59 30.87ZM258.4 31.57C258.027 31.57 257.742 31.465 257.546 31.255C257.35 31.0403 257.252 30.7347 257.252 30.338V26.6H258.022V30.394C258.022 30.562 258.055 30.6833 258.12 30.758C258.19 30.8327 258.288 30.87 258.414 30.87C258.54 30.87 258.636 30.8327 258.701 30.758C258.771 30.6833 258.806 30.562 258.806 30.394V26.6H259.548V30.338C259.548 30.7347 259.45 31.0403 259.254 31.255C259.058 31.465 258.773 31.57 258.4 31.57Z" fill="white"/>
<rect x="266" y="8.5" width="31" height="31" fill="black"/>
<path d="M269.11 43.6H270.286C270.668 43.6 270.955 43.7027 271.147 43.908C271.338 44.1133 271.434 44.4143 271.434 44.811V47.289C271.434 47.6857 271.338 47.9867 271.147 48.192C270.955 48.3973 270.668 48.5 270.286 48.5H269.11V43.6ZM270.272 47.8C270.398 47.8 270.493 47.7627 270.559 47.688C270.629 47.6133 270.664 47.492 270.664 47.324V44.776C270.664 44.608 270.629 44.4867 270.559 44.412C270.493 44.3373 270.398 44.3 270.272 44.3H269.88V47.8H270.272ZM271.954 43.6H274.054V44.3H272.724V45.595H273.781V46.295H272.724V47.8H274.054V48.5H271.954V43.6ZM273.074 42.466H273.914L273.165 43.271H272.584L273.074 42.466ZM275.581 48.57C275.213 48.57 274.93 48.465 274.734 48.255C274.543 48.045 274.447 47.7487 274.447 47.366V44.734C274.447 44.3513 274.543 44.055 274.734 43.845C274.93 43.635 275.213 43.53 275.581 43.53C275.95 43.53 276.23 43.635 276.421 43.845C276.617 44.055 276.715 44.3513 276.715 44.734V45.252H275.987V44.685C275.987 44.3817 275.859 44.23 275.602 44.23C275.346 44.23 275.217 44.3817 275.217 44.685V47.422C275.217 47.7207 275.346 47.87 275.602 47.87C275.859 47.87 275.987 47.7207 275.987 47.422V46.673H276.715V47.366C276.715 47.7487 276.617 48.045 276.421 48.255C276.23 48.465 275.95 48.57 275.581 48.57ZM277.176 43.6H277.946V45.595H278.772V43.6H279.542V48.5H278.772V46.295H277.946V48.5H277.176V43.6ZM280.116 43.6H282.216V44.3H280.886V45.595H281.943V46.295H280.886V47.8H282.216V48.5H280.116V43.6ZM280.256 42.466H281.096L281.586 43.271H281.005L280.256 42.466ZM283.261 44.3H282.456V43.6H284.836V44.3H284.031V48.5H283.261V44.3ZM285.208 43.6H287.308V44.3H285.978V45.595H287.035V46.295H285.978V47.8H287.308V48.5H285.208V43.6ZM287.751 43.6H288.892C289.289 43.6 289.578 43.6933 289.76 43.88C289.942 44.062 290.033 44.3443 290.033 44.727V45.028C290.033 45.5367 289.865 45.8587 289.529 45.994V46.008C289.716 46.064 289.847 46.1783 289.921 46.351C290.001 46.5237 290.04 46.7547 290.04 47.044V47.905C290.04 48.045 290.045 48.1593 290.054 48.248C290.064 48.332 290.087 48.416 290.124 48.5H289.34C289.312 48.4207 289.294 48.346 289.284 48.276C289.275 48.206 289.27 48.08 289.27 47.898V47.002C289.27 46.778 289.233 46.6217 289.158 46.533C289.088 46.4443 288.965 46.4 288.787 46.4H288.521V48.5H287.751V43.6ZM288.801 45.7C288.955 45.7 289.07 45.6603 289.144 45.581C289.224 45.5017 289.263 45.3687 289.263 45.182V44.804C289.263 44.6267 289.231 44.4983 289.165 44.419C289.105 44.3397 289.007 44.3 288.871 44.3H288.521V45.7H288.801ZM290.575 43.6H291.345V48.5H290.575V43.6ZM291.921 43.6H294.021V44.3H292.691V45.595H293.748V46.295H292.691V47.8H294.021V48.5H291.921V43.6Z" fill="white"/>
<path d="M275.988 32.9391L271.474 32.9342C271.217 32.9342 271.005 32.7268 271.005 32.4699L271 27.9806C271 27.7929 271.114 27.6201 271.291 27.5509C271.464 27.4769 271.667 27.5164 271.8 27.6497L272.684 28.5288L280.29 20.9577C280.473 20.7799 280.769 20.7799 280.952 20.9577L283.046 23.0418C283.135 23.1307 283.184 23.2443 283.184 23.3727C283.184 23.4962 283.135 23.6147 283.046 23.7036L275.44 31.2649L276.319 32.144C276.452 32.2773 276.492 32.4798 276.418 32.6527C276.349 32.8255 276.176 32.9391 275.988 32.9391ZM271.943 32.0008L274.852 32.0057L274.442 31.5958C274.26 31.413 274.26 31.1167 274.442 30.934L282.048 23.3727L280.621 21.9504L273.015 29.5166C272.832 29.6993 272.536 29.6993 272.353 29.5166L271.938 29.1116" fill="white"/>
<path d="M285.54 26.173C285.179 26.173 284.833 26.0347 284.567 25.7878C284.29 25.531 284.132 25.1803 284.117 24.8001L284.048 22.6517L284.987 22.6221L285.056 24.7704C285.061 24.8988 285.115 25.0174 285.209 25.1063C285.303 25.1952 285.436 25.2297 285.559 25.2396C285.688 25.2347 285.806 25.1803 285.895 25.0865C285.984 24.9927 286.029 24.8692 286.024 24.7408L285.92 21.8763L286.858 21.8467L286.962 24.7062C286.977 25.0865 286.844 25.447 286.582 25.7236C286.32 26.0002 285.969 26.1582 285.589 26.1681C285.569 26.173 285.555 26.173 285.54 26.173Z" fill="white"/>
<path d="M285.54 26.173C285.179 26.173 284.833 26.0347 284.567 25.7878C284.29 25.531 284.132 25.1803 284.117 24.8001L284.048 22.6517L284.987 22.6221L285.056 24.7704C285.061 24.8988 285.115 25.0174 285.209 25.1063C285.303 25.1952 285.436 25.2297 285.559 25.2396C285.688 25.2347 285.806 25.1803 285.895 25.0865C285.984 24.9927 286.029 24.8692 286.024 24.7408L285.92 21.8763L286.858 21.8467L286.962 24.7062C286.977 25.0865 286.844 25.447 286.582 25.7236C286.32 26.0002 285.969 26.1582 285.589 26.1681C285.569 26.173 285.555 26.173 285.54 26.173Z" fill="white"/>
<path d="M283.643 26.4941C283.278 26.4941 282.937 26.3607 282.67 26.1138C282.394 25.852 282.231 25.5014 282.221 25.1211L282.152 22.9727L283.09 22.9431L283.159 25.0915C283.164 25.2248 283.219 25.3433 283.312 25.4322C283.406 25.5211 283.53 25.5755 283.658 25.5607C283.925 25.5508 284.137 25.3285 284.127 25.0618L284.024 22.2023L284.962 22.1677L285.066 25.0273C285.095 25.8125 284.478 26.4644 283.693 26.4941C283.673 26.4941 283.658 26.4941 283.643 26.4941Z" fill="white"/>
<path d="M285.258 32.949C285.066 32.949 284.893 32.8305 284.824 32.6576C284.75 32.4848 284.789 32.2823 284.922 32.1489L285.806 31.2698L278.201 23.7037C278.018 23.5259 278.018 23.2295 278.201 23.0468L280.29 20.9627C280.463 20.7898 280.779 20.7898 280.952 20.9627L288.893 28.8597L288.226 29.5215L280.621 21.9553L279.193 23.3777L286.799 30.9389C286.987 31.1217 286.987 31.4229 286.799 31.6007L286.389 32.0107H289.298L289.303 27.9856H290.241L290.236 32.4749C290.236 32.7317 290.029 32.9391 289.767 32.9391L285.258 32.949Z" fill="white"/>
<path d="M280.601 36.5C280.478 36.5 280.359 36.4556 280.265 36.3617L277.075 33.196C276.941 33.0626 276.902 32.8601 276.971 32.6873C277.045 32.5095 277.218 32.3959 277.406 32.3959H278.655V23.7037C278.655 23.4469 278.863 23.2345 279.124 23.2345H282.083C282.339 23.2345 282.552 23.4469 282.552 23.7037V32.8651H281.613V24.1729H279.593V32.8651C279.593 33.1219 279.381 33.3293 279.124 33.3293H278.542L280.601 35.374L283.461 32.5342L284.127 33.196L280.932 36.3617C280.838 36.4556 280.72 36.5 280.601 36.5Z" fill="white"/>
<path d="M275.983 32.9391L271.474 32.9342C271.217 32.9342 271.005 32.7268 271.005 32.4699L271 27.9806C271 27.7929 271.114 27.6201 271.291 27.5509C271.464 27.4769 271.667 27.5164 271.8 27.6497L272.684 28.5288L280.29 20.9577C280.473 20.7799 280.769 20.7799 280.952 20.9577L283.046 23.0418C283.135 23.1307 283.184 23.2443 283.184 23.3727C283.184 23.4962 283.135 23.6147 283.046 23.7036L275.104 31.5958L274.442 30.934L282.048 23.3727L280.621 21.9504L273.015 29.5166C272.832 29.6993 272.536 29.6993 272.353 29.5166L271.938 29.1116L271.943 32.0008L275.988 32.0057" fill="white"/>
<path d="M291.407 19.5452C291.066 19.5452 290.745 19.4119 290.503 19.1748L286.098 14.7892C285.856 14.5522 285.722 14.2311 285.722 13.8953C285.722 13.5545 285.856 13.2384 286.093 12.9964L287.239 11.8556C287.723 11.3815 288.562 11.3815 289.046 11.8556L293.452 16.2412C293.95 16.7351 293.95 17.5401 293.452 18.034L292.306 19.1748C292.064 19.4119 291.748 19.5452 291.407 19.5452ZM288.142 12.4186C288.054 12.4186 287.97 12.4581 287.905 12.5174V12.5223L286.76 13.6582C286.695 13.7224 286.661 13.8064 286.661 13.8953C286.661 13.9842 286.695 14.0682 286.76 14.1274L291.165 18.513C291.293 18.6414 291.516 18.6365 291.644 18.513L292.79 17.3771C292.918 17.2438 292.918 17.0314 292.785 16.903L288.38 12.5223C288.315 12.4581 288.231 12.4186 288.142 12.4186Z" fill="white"/>
<path d="M286.742 27.1614L283.2 24.0131L282.413 24.8002L282.019 26.3743L284.381 29.5227L286.742 27.1614Z" fill="black"/>
<path d="M285.258 32.949C285.066 32.949 284.893 32.8305 284.824 32.6576C284.75 32.4848 284.789 32.2823 284.922 32.1489L285.806 31.2698L278.201 23.7037C278.018 23.5259 278.018 23.2295 278.201 23.0468L280.29 20.9627C280.463 20.7898 280.779 20.7898 280.952 20.9627L288.562 28.5338L289.441 27.6547C289.575 27.5213 289.777 27.4818 289.955 27.5559C290.128 27.625 290.241 27.7979 290.241 27.9856L290.236 32.4749C290.236 32.7317 290.029 32.9391 289.767 32.9391L285.258 32.949ZM279.193 23.3777L286.799 30.9389C286.987 31.1217 286.987 31.4229 286.799 31.6007L286.389 32.0107H289.298L289.303 29.1165L288.893 29.5215C288.71 29.7043 288.414 29.7043 288.226 29.5215L280.621 21.9553" fill="white"/>
<path d="M277.69 33.0646H279.264V24.0131H282.019L282.413 33.0646H283.2L280.445 36.213L277.69 33.0646Z" fill="black"/>
<path d="M280.601 36.5C280.478 36.5 280.359 36.4556 280.27 36.3617L277.075 33.196C276.941 33.0626 276.902 32.8601 276.971 32.6873C277.045 32.5095 277.218 32.3959 277.406 32.3959H278.655V23.7037C278.655 23.4469 278.863 23.2345 279.124 23.2345H282.083C282.339 23.2345 282.552 23.4469 282.552 23.7037V32.3959H283.791C283.984 32.3959 284.157 32.5095 284.226 32.6873C284.3 32.8601 284.261 33.0626 284.127 33.196L280.932 36.3617C280.838 36.4556 280.72 36.5 280.601 36.5ZM278.542 33.3293L280.601 35.374L282.66 33.3293H282.083C281.821 33.3293 281.613 33.1219 281.613 32.8651V24.1729H279.593V32.8651C279.593 33.1219 279.381 33.3293 279.124 33.3293" fill="white"/>
<path d="M282.413 21.3232L280.29 24.158C279.929 24.6371 280.028 25.3187 280.512 25.6742C280.991 26.0348 281.678 25.936 282.038 25.4569L283.362 23.6889C283.89 22.9974 284.483 22.7406 284.769 22.6665C285.406 22.4986 287.323 21.7825 288.35 21.1652C289.372 20.5429 289.901 19.1008 289.846 17.8611L286.789 14.8188L280.3 16.8339C279.509 17.1006 279.223 17.55 279.104 17.8167C278.986 18.0883 277.692 21.1306 277.692 21.1306C277.544 21.5109 277.46 21.9652 277.677 22.3505C277.894 22.7357 278.388 23.5061 278.388 23.5061L279.816 22.0838C279.816 22.0838 279.761 21.2985 279.944 20.8935C280.132 20.4935 280.329 19.8268 280.754 19.6736C281.174 19.5255 281.91 19.2884 281.91 19.2884C281.91 19.2884 281.845 20.128 281.994 20.5774C282.147 21.0269 282.379 21.2936 282.379 21.2936" fill="black"/>
<path d="M281.164 26.3607C280.828 26.3607 280.502 26.2521 280.231 26.0496C279.895 25.8026 279.677 25.4372 279.618 25.0272C279.564 24.6173 279.668 24.2074 279.919 23.8765L281.831 21.3232C281.737 21.1701 281.633 20.9725 281.549 20.7256C281.475 20.4935 281.441 20.2021 281.431 19.9403C281.248 19.9996 281.06 20.0638 280.912 20.1132C280.759 20.1675 280.576 20.6071 280.477 20.8392L280.374 21.0911C280.28 21.2886 280.265 21.7726 280.285 22.0541C280.295 22.1875 280.245 22.3208 280.152 22.4146L278.719 23.837C278.621 23.9358 278.477 23.9852 278.339 23.9704C278.196 23.9555 278.072 23.8765 277.993 23.758C277.993 23.758 277.49 22.9727 277.267 22.5826C277.015 22.1331 277.01 21.5849 277.257 20.9577C277.262 20.9478 278.556 17.9006 278.675 17.6339C278.927 17.061 279.435 16.6314 280.147 16.3894L286.646 14.3743C286.814 14.32 286.997 14.3645 287.12 14.4879L290.182 17.5351C290.266 17.6191 290.311 17.7278 290.315 17.8463C290.37 19.1057 289.851 20.8046 288.592 21.5602C287.525 22.2072 285.589 22.9332 284.888 23.1209C284.784 23.1456 284.241 23.3135 283.737 23.9704L282.413 25.7384C282.162 26.0693 281.801 26.2866 281.386 26.3459C281.312 26.3558 281.238 26.3607 281.164 26.3607ZM281.915 18.8242C282.018 18.8242 282.122 18.8587 282.201 18.9229C282.325 19.0217 282.394 19.1699 282.379 19.3279C282.359 19.6144 282.354 20.1675 282.443 20.4293C282.557 20.7799 282.735 20.9923 282.739 20.9923C282.922 21.1503 282.937 21.4071 282.789 21.6047L280.67 24.4346C280.566 24.5679 280.527 24.7309 280.552 24.8939C280.571 25.0569 280.66 25.205 280.794 25.2989C280.927 25.4026 281.09 25.4372 281.253 25.4223C281.416 25.3977 281.564 25.3088 281.663 25.1803L282.986 23.4073C283.663 22.5282 284.428 22.2714 284.651 22.2171C285.214 22.0689 287.11 21.3676 288.103 20.7651C288.947 20.2564 289.372 19.0563 289.382 18.0587L286.656 15.3522L280.438 17.2783C279.989 17.4314 279.677 17.6784 279.534 18.0043C279.416 18.276 278.127 21.3133 278.127 21.3133C277.993 21.6541 277.978 21.9306 278.087 22.1183C278.181 22.2912 278.334 22.5381 278.472 22.7604L279.342 21.901C279.337 21.5948 279.351 21.0664 279.519 20.7009L279.613 20.4836C279.796 20.0391 280.053 19.4267 280.596 19.2341C281.021 19.0859 281.767 18.8439 281.767 18.8439C281.816 18.8291 281.865 18.8242 281.915 18.8242Z" fill="white"/>
</g>
<defs>
<clipPath id="clip0_66_2048">
<rect width="312" height="61" fill="white"/>
</clipPath>
</defs>
</svg>
