<svg width="275" height="72" viewBox="0 0 275 72" fill="none" xmlns="http://www.w3.org/2000/svg">
<g clip-path="url(#clip0_26_20270)">
<path d="M24.6927 71.8125C11.0729 71.8125 0 60.8646 0 47.4063V0H250.297C263.911 0 274.99 10.9531 274.99 24.4063V71.8125" fill="white"/>
<path d="M24.6927 60.474C11.0729 60.474 0 49.526 0 36.0677V0H250.297C263.911 0 274.99 10.9479 274.99 24.4063V60.474" fill="white"/>
<path d="M250.297 5.67188H50.1094V36.0677C50.1094 46.401 58.6406 54.8073 69.1302 54.8073L269.323 54.8021V24.4115C269.323 14.0781 260.786 5.67188 250.297 5.67188Z" fill="white"/>
<path d="M267.432 52.9167H69.1302C59.6823 52.9167 52 45.3594 52 36.0677V7.5625L250.297 7.55729C259.745 7.55729 267.432 15.1198 267.432 24.4115V52.9167ZM250.297 5.67188H50.1094V36.0677C50.1094 46.401 58.6406 54.8073 69.1302 54.8073L269.318 54.8021V24.4115C269.318 14.0781 260.786 5.67188 250.297 5.67188Z" fill="#FCC42F"/>
<path d="M169.755 29.2969H165.505V33.5469H162.672V29.2969H158.417V26.4636H162.672V22.2084H165.505V26.4636H169.755" fill="#1C1C1B"/>
<path d="M212.063 54.8021L225.073 28.224L211.781 5.67188H250.297C260.786 5.67188 269.318 14.0781 269.318 24.4063V54.8021" fill="#FCC42F"/>
<path d="M250.297 7.55737H215.089L227.219 28.1459L215.094 52.9167H267.432V24.4063C267.432 15.1199 259.745 7.55737 250.297 7.55737Z" fill="#FCC42F"/>
<path d="M255.255 41.3438H254.052C253.953 41.3438 253.859 41.3543 253.766 41.3751C254.328 35.1147 255.198 25.4584 255.62 21.0834C255.661 20.6355 255.333 20.2397 254.891 20.198C254.432 20.1511 254.047 20.4845 254.005 20.9272C253.359 27.6459 251.651 46.8282 251.635 47.0209C251.604 47.349 251.286 47.6095 250.917 47.6095H237.823C237.453 47.6095 237.141 47.349 237.109 47.0209C237.089 46.8282 235.385 27.6459 234.74 20.9272C234.698 20.4845 234.307 20.1511 233.854 20.198C233.406 20.2397 233.083 20.6355 233.125 21.0834C233.542 25.4532 234.417 35.1095 234.974 41.3699C234.88 41.3543 234.786 41.3438 234.688 41.3438H233.49C232.708 41.3438 232.078 41.974 232.078 42.7501V47.823C232.078 48.599 232.708 49.2345 233.49 49.2345H234.688C235.271 49.2345 235.776 48.8751 235.984 48.3699C236.417 48.8959 237.078 49.2345 237.823 49.2345H250.917C251.661 49.2345 252.323 48.8959 252.755 48.3699C252.964 48.8751 253.469 49.2345 254.052 49.2345H255.255C256.031 49.2345 256.661 48.6043 256.661 47.8282V42.7553C256.661 41.9793 256.031 41.3438 255.255 41.3438Z" fill="#1C1C1B"/>
<path d="M239.318 24.8022V27.0938H239.99C240.38 27.0938 240.594 26.9167 240.594 26.3595V25.7084C240.594 25.0157 240.37 24.8022 239.839 24.8022H239.318ZM239.318 21.7657V23.7397H239.776C240.214 23.7397 240.479 23.547 240.479 22.948V22.5313C240.479 22.0001 240.297 21.7657 239.88 21.7657H239.318ZM241.651 22.4167V22.6824C241.651 23.448 241.417 23.9324 240.896 24.1772V24.198C241.521 24.4428 241.766 24.9949 241.766 25.7865V26.3907C241.766 27.5417 241.161 28.1615 239.99 28.1615H238.141V20.698H239.911C241.13 20.698 241.651 21.2657 241.651 22.4167Z" fill="#1C1C1B"/>
<path d="M243.807 25.797H244.937L244.38 22.0209H244.359L243.807 25.797ZM246.484 28.1615H245.302L245.099 26.8074H243.656L243.453 28.1615H242.38L243.573 20.698H245.286" fill="#1C1C1B"/>
<path d="M250.635 25.3802V26.3698C250.635 27.5677 250.036 28.2448 248.885 28.2448C247.734 28.2448 247.135 27.5677 247.135 26.3698V22.4896C247.135 21.2969 247.734 20.6146 248.885 20.6146C250.036 20.6146 250.635 21.2969 250.635 22.4896V23.2136H249.526V22.4167C249.526 21.8802 249.292 21.6823 248.917 21.6823C248.547 21.6823 248.307 21.8802 248.307 22.4167V26.448C248.307 26.9792 248.547 27.1719 248.917 27.1719C249.292 27.1719 249.526 26.9792 249.526 26.448V25.3802" fill="#1C1C1B"/>
<path d="M241.677 30.8907V36.2188H242.338C242.708 36.2188 242.932 36.0313 242.932 35.4949V31.6147C242.932 31.0834 242.708 30.8907 242.338 30.8907H241.677ZM240.505 29.823H242.359C243.531 29.823 244.104 30.474 244.104 31.6667V35.4428C244.104 36.6355 243.531 37.2865 242.359 37.2865H240.505" fill="#1C1C1B"/>
<path d="M246.24 32.9688H247.849V34.0365H246.24V36.2188H248.266V37.2865H245.068V29.823H248.266V30.8907H246.24" fill="#1C1C1B"/>
<path d="M239.135 38.9479H242.76V40.0156H241.536V46.4115H240.359V40.0156H239.135" fill="#1C1C1B"/>
<path d="M244.661 40.0156V42.3073H245.12C245.557 42.3073 245.823 42.1146 245.823 41.5209V40.7813C245.823 40.25 245.641 40.0156 245.224 40.0156H244.661ZM245.938 46.4115C245.875 46.2188 245.833 46.099 245.833 45.4948V44.3229C245.833 43.6302 245.599 43.375 245.068 43.375H244.661V46.4115H243.484V38.9479H245.255C246.474 38.9479 246.995 39.5156 246.995 40.6667V41.25C246.995 42.0209 246.75 42.5104 246.229 42.7552V42.7761C246.813 43.0209 247.005 43.5781 247.005 44.3542V45.5052C247.005 45.8698 247.016 46.1354 247.135 46.4115" fill="#1C1C1B"/>
<path d="M247.99 46.4115H249.161V38.9479H247.99V46.4115Z" fill="#1C1C1B"/>
<path d="M256.094 17.3021H232.646V15.3542C232.646 15.2865 232.677 15.2552 232.672 15.25H234.37C234.563 15.25 234.745 15.1823 234.891 15.0573L237.021 13.1927C237.115 13.1146 237.344 13.026 237.635 13.026H251.104C251.396 13.026 251.63 13.1146 251.724 13.1927L253.854 15.0573C254 15.1823 254.182 15.25 254.375 15.25H256.073C256.063 15.2552 256.094 15.2865 256.094 15.3542V17.3021ZM256.073 13.6667H254.672L252.766 12C252.359 11.6458 251.755 11.4375 251.104 11.4375H237.635C236.99 11.4375 236.385 11.6458 235.974 12L234.073 13.6667H232.672C231.781 13.6667 231.062 14.4219 231.062 15.3542V17.4948C231.062 17.7917 231.135 18.0885 231.281 18.3438C231.344 18.4583 231.427 18.5521 231.536 18.625C231.797 18.7969 232.094 18.8854 232.401 18.8854H256.344C256.646 18.8854 256.948 18.7969 257.208 18.625C257.313 18.5521 257.401 18.4583 257.464 18.3438C257.604 18.0885 257.682 17.7917 257.682 17.4948V15.3542C257.682 14.4219 256.958 13.6667 256.073 13.6667Z" fill="#1C1C1B"/>
<path d="M251.099 13.7605H237.641C237.271 13.7605 236.969 14.0626 236.969 14.4324C236.969 14.8022 237.271 15.1042 237.641 15.1042H251.099C251.469 15.1042 251.771 14.8022 251.771 14.4324C251.771 14.0626 251.469 13.7605 251.099 13.7605Z" fill="#1C1C1B"/>
<path d="M102.896 5.67188H50.1094V36.0677C50.1094 46.401 58.6406 54.8073 69.1302 54.8073H121.922V24.4115C121.922 14.0781 113.385 5.67188 102.896 5.67188Z" fill="#FCC42F"/>
<path d="M63.651 29.3646C58.8437 29.3646 54.9531 33.2552 54.9531 38.0573C54.9531 42.8594 58.8437 46.75 63.651 46.75C68.4531 46.75 72.3438 42.8594 72.3438 38.0573C72.3438 33.2552 68.4531 29.3646 63.651 29.3646Z" fill="white"/>
<path d="M69.3177 39.474H65.0677V43.724H62.2343V39.474H57.9791V36.6406H62.2343V32.3854H65.0677V36.6406H69.3177" fill="#1C1C1B"/>
<path d="M55.7812 26.6042V17.2031H58.2656V24.5208H61.8281V26.6042" fill="#1C1C1B"/>
<path d="M62.9375 26.6042V17.2031H69.0104V19.2865H65.4271V20.7604H68.4948V22.8438H65.4271V24.5208H69.1563V26.6042" fill="#1C1C1B"/>
<path d="M75.0833 26.6042V19.2865H72.5989V17.2031H80.0624V19.2865H77.5728V26.6042" fill="#1C1C1B"/>
<path d="M83.5468 21.4844H84.4427C85.4479 21.4844 85.9479 21.0677 85.9479 20.2396C85.9479 19.8333 85.8229 19.5521 85.5677 19.401C85.3073 19.2448 84.9375 19.1667 84.4427 19.1667H83.5468V21.4844ZM81.0573 26.6042V17.2031H84.6145C85.1198 17.2031 85.5989 17.25 86.0573 17.3438C86.5156 17.4427 86.9114 17.6042 87.2552 17.8385C87.5989 18.0677 87.8698 18.3802 88.0729 18.7708C88.276 19.1615 88.3802 19.651 88.3802 20.2396C88.3802 20.9115 88.2395 21.474 87.9687 21.9167C87.6927 22.3594 87.3229 22.7083 86.8593 22.9583L88.901 26.6042H86.1198L84.5052 23.4479H83.5468V26.6042" fill="#1C1C1B"/>
<path d="M89.8645 26.6042H92.3541V17.2031H89.8645V26.6042Z" fill="#1C1C1B"/>
<path d="M75.375 43.2761V33.8802H81.5104V35.9636H77.8646V37.7552H80.9844V39.8334H77.8646V43.2761" fill="#1C1C1B"/>
<path d="M84.9166 38.7084L84.7551 39.3594H86.4895L86.3333 38.7084C86.2135 38.2553 86.0989 37.7657 85.9843 37.2344C85.8697 36.7032 85.7551 36.2032 85.6353 35.7292H85.578C85.4739 36.2084 85.3645 36.7136 85.2551 37.2396C85.1458 37.7657 85.0312 38.2553 84.9166 38.7084ZM81.302 43.2813L84.1614 33.8751H87.1718L90.0364 43.2813H87.401L86.9374 41.2865H84.3072L83.8437 43.2813" fill="#1C1C1B"/>
<path d="M94.5625 43.4532C93.9635 43.4532 93.3958 43.3542 92.849 43.1563C92.3021 42.9584 91.8281 42.6615 91.4167 42.2605C91.0052 41.8594 90.6823 41.3594 90.4375 40.7553C90.1979 40.1511 90.0781 39.4532 90.0781 38.6511C90.0781 37.8594 90.2031 37.1615 90.4531 36.5469C90.7031 35.9324 91.0417 35.4167 91.4583 35.0001C91.8802 34.5782 92.3594 34.2605 92.9063 34.0365C93.4531 33.8178 94.0208 33.7032 94.6198 33.7032C95.2448 33.7032 95.8073 33.8282 96.2969 34.073C96.7917 34.3178 97.2031 34.6094 97.5417 34.948L96.2396 36.5417C96.0104 36.3386 95.7708 36.1719 95.526 36.0417C95.2812 35.9115 94.9948 35.8438 94.6771 35.8438C94.3958 35.8438 94.1354 35.9063 93.8906 36.0313C93.6458 36.1563 93.4271 36.3386 93.2396 36.5678C93.0521 36.8021 92.901 37.0834 92.7917 37.4219C92.6771 37.7605 92.625 38.1407 92.625 38.5626C92.625 39.4532 92.8073 40.1303 93.1823 40.6042C93.5521 41.0782 94.0417 41.3126 94.6458 41.3126C95.0156 41.3126 95.3385 41.2344 95.625 41.073C95.9115 40.9167 96.151 40.724 96.3542 40.5001L97.6563 42.0626C97.25 42.5261 96.7865 42.8751 96.2604 43.1042C95.7344 43.3386 95.1719 43.4532 94.5625 43.4532Z" fill="#1C1C1B"/>
<path d="M98.6145 43.2761H101.099V33.8802H98.6145V43.2761Z" fill="#1C1C1B"/>
<path d="M102.87 43.2761V33.8802H105.359V41.198H108.917V43.2761" fill="#1C1C1B"/>
<path d="M110.026 43.2761V33.8802H116.104V35.9636H112.516V37.4375H115.583V39.5209H112.516V41.198H116.245V43.2761" fill="#1C1C1B"/>
<path d="M28.401 25.75C26.7083 28.2396 28.1458 31.5156 29.8958 33.1771C31.4844 34.6875 32.7604 35.0417 32.9271 35.0833L33.7396 33.5313L36.0833 39.9375L29.4583 41.2865L30.3385 39.6563L29.4427 39.151C26.651 37.3333 26.0625 34.8646 25.8698 34.0938C25.5365 32.7656 25.0417 28.7969 28.401 25.75Z" fill="#1C1C1B"/>
<path d="M28.3698 25.8594C29.5729 28.6146 33.1093 29.1458 35.4479 28.5573C37.5156 28.0312 38.5 27.1771 38.6666 27.0208L38.6562 27.0052L37.7708 25.4688L44.4375 26.9271L42.0208 33.2448L41.1302 31.651L40.2604 32.125C37.2343 33.5156 34.8281 32.6979 34.0729 32.4479C32.776 32.0208 29.151 30.3229 28.3698 25.8594Z" fill="#1C1C1B"/>
<path d="M40.1562 19.1979C39.6926 22.4948 37.7083 24.0781 37.0885 24.5781C36.026 25.4427 32.6405 27.5729 28.4583 25.8229C31.4322 26.2969 33.7916 23.6094 34.552 21.3229C35.2395 19.276 35.0364 17.974 34.9999 17.776L34.9739 17.7708L33.2083 17.6979L38.0208 12.8594L42.0468 18.2969L40.2343 18.1875" fill="#1C1C1B"/>
<path fill-rule="evenodd" clip-rule="evenodd" d="M19.9323 16.4167C18.4114 16.4167 17.1823 15.1875 17.1823 13.6615C17.1823 12.1407 18.4114 10.9115 19.9323 10.9115C21.4531 10.9115 22.6875 12.1407 22.6875 13.6615C22.6875 15.1875 21.4531 16.4167 19.9323 16.4167Z" fill="#1C1C1B"/>
<path d="M15.6718 29.8021C15.9062 29.1563 16.2552 29.1979 16.2552 29.1979C16.2552 29.1979 16.5729 29.1302 16.75 29.7813L19.3229 38.8125C17.177 38.1927 15.2187 37.125 13.5573 35.7188L15.6718 29.8021ZM23.6979 5.67188C13.7552 5.67188 5.66663 13.7604 5.66663 23.7031C5.66663 33.6458 13.7552 41.7396 23.6979 41.7396C24.2291 41.7396 24.7552 41.7031 25.2708 41.6563L25.3958 43.4688L28.6927 40.276L25 37.4635L25.1406 39.3646C24.6666 39.4063 24.1875 39.4375 23.6979 39.4375C22.9323 39.4375 22.1823 39.3802 21.4479 39.2708L21.375 38.7969L19.6614 24.1979C19.427 21.4375 21 21 21.9739 21.4115L27.4427 23.6094C28.0677 23.8802 28.3698 23.3542 28.3698 23.3542C28.3698 23.3542 28.7239 22.8073 28.0885 22.401C28.0885 22.401 20.6354 17.4635 19.0468 17.1667C16.8802 16.7604 14.7395 18.5156 14.2604 20.8021L11.6145 33.7656C9.3385 31.0365 7.9635 27.5312 7.9635 23.7031C7.9635 15.0312 15.0208 7.96875 23.6979 7.96875C28.3333 7.96875 32.5052 9.98437 35.3854 13.1823L37 11.5469C33.7031 7.9375 28.9583 5.67188 23.6979 5.67188Z" fill="#1C1C1B"/>
<path d="M132.968 63.7201L132.927 63.8868C132.718 64.8868 133.072 66.2618 134.843 66.2618C136.281 66.2618 137.51 65.4284 137.843 63.9076C138.052 62.9284 137.531 62.1993 136.614 61.8451L135.885 61.5534C135.197 61.2618 135.135 61.1368 135.281 60.5326C135.427 59.7826 135.76 59.6993 136.26 59.6993C136.968 59.6993 136.968 59.8868 136.843 60.5326L136.76 60.8659H138.281L138.364 60.5326C138.531 59.7826 138.385 58.4493 136.572 58.4493C135.218 58.4493 133.989 59.3659 133.718 60.6576C133.489 61.6784 134.031 62.4076 134.989 62.8243L135.697 63.0951C136.302 63.2826 136.406 63.4076 136.26 64.1576C136.135 64.6993 135.864 65.0118 135.156 65.0118C134.364 65.0118 134.281 64.7618 134.447 63.8868L134.531 63.5326H133.01L132.968 63.7201Z" fill="#1C1C1B"/>
<path d="M142.554 63.3659L142.658 62.8034C142.992 61.3034 142.575 60.2201 141.075 60.2201C139.387 60.2201 138.575 61.9076 138.283 63.3243C137.762 65.8034 138.992 66.2618 139.867 66.2618C141.033 66.2618 142.096 65.3243 142.387 63.9284H140.992C140.867 64.4493 140.804 65.1368 140.033 65.1368C139.221 65.1368 139.512 64.4076 139.679 63.6784L139.7 63.5743H142.512L142.554 63.3659ZM139.887 62.6368L139.908 62.5326C140.054 61.8243 140.242 61.3451 140.929 61.3451C141.533 61.3451 141.45 61.6576 141.304 62.3451L141.283 62.4493H139.929L139.887 62.6368ZM140.742 60.0326H141.554L143.283 58.2201H141.554L140.387 60.0326H140.742Z" fill="#1C1C1B"/>
<path d="M142.33 67.8659H143.559L144.059 65.4909H143.767C143.83 65.7826 144.413 66.2618 144.997 66.2618C145.726 66.2618 146.955 65.5743 147.434 63.3034C147.83 61.4493 147.351 60.2201 146.122 60.2201C145.538 60.2201 144.934 60.5951 144.642 61.0118H144.955L145.101 60.3659H143.684L142.101 67.8659H142.33ZM144.497 63.1784C144.747 62.0326 144.892 61.4493 145.622 61.4493C146.372 61.4493 146.184 62.0326 145.913 63.2618C145.601 64.7409 145.413 65.0118 144.788 65.0118C144.038 65.0118 144.226 64.4701 144.497 63.1784Z" fill="#1C1C1B"/>
<path d="M152.119 61.7201C152.327 60.7826 151.452 60.2201 150.494 60.2201C149.077 60.2201 148.286 61.0326 147.994 62.3659H149.411C149.557 61.6576 149.577 61.3451 150.307 61.3451C150.869 61.3451 150.765 61.4493 150.682 61.9493C150.577 62.4076 150.494 62.3451 150.098 62.4493L149.202 62.6784C148.432 62.9076 147.661 63.3659 147.39 64.5534C147.182 65.5951 147.807 66.2618 148.682 66.2618C149.307 66.2618 149.911 65.9493 150.265 65.4701H149.973C149.932 65.8034 150.494 66.1784 150.973 66.1784C151.182 66.1784 151.369 66.1159 151.682 65.9701L151.932 64.8243C151.494 65.0534 151.557 64.9909 151.494 64.9909C151.327 64.9909 151.432 65.0118 151.473 64.8034L152.119 61.7201ZM150.244 63.9909C150.057 64.7826 149.848 65.0743 149.202 65.0743C148.744 65.0743 148.786 64.9076 148.89 64.4493C148.973 64.0534 148.994 63.9284 149.327 63.7826C149.682 63.6159 150.432 63.4493 150.327 63.5118L150.244 63.9909Z" fill="#1C1C1B"/>
<path d="M152.145 66.1159H153.374L154.103 62.6993C154.312 61.6993 154.749 61.6784 155.249 61.6784C155.416 61.6784 155.624 61.7201 155.832 61.7826L156.124 60.3451C155.853 60.2409 155.791 60.2201 155.666 60.2201C155.062 60.2201 154.437 60.6576 154.103 61.1993H154.416L154.603 60.3659H153.124L151.895 66.1159H152.145Z" fill="#1C1C1B"/>
<path d="M159.714 63.3659L159.818 62.8034C160.152 61.3034 159.735 60.2201 158.235 60.2201C156.547 60.2201 155.735 61.9076 155.443 63.3243C154.922 65.8034 156.152 66.2618 157.027 66.2618C158.193 66.2618 159.256 65.3243 159.547 63.9284H158.152C158.027 64.4493 157.964 65.1368 157.193 65.1368C156.381 65.1368 156.672 64.4076 156.839 63.6784L156.86 63.5743H159.672L159.714 63.3659ZM157.047 62.6368L157.068 62.5326C157.214 61.8243 157.402 61.3451 158.089 61.3451C158.693 61.3451 158.61 61.6576 158.464 62.3451L158.443 62.4493H157.089L157.047 62.6368Z" fill="#1C1C1B"/>
<path d="M159.594 66.1159H163.323L163.594 64.8242H161.49L164.281 61.5326L164.531 60.3659H160.719L160.448 61.6367H162.469L159.594 65.0117L159.344 66.1159H159.594Z" fill="#1C1C1B"/>
<path d="M166.377 66.1159H167.606L169.21 58.5951H167.752L166.147 66.1159H166.377Z" fill="#1C1C1B"/>
<path d="M173.034 63.3659L173.138 62.8034C173.472 61.3034 173.055 60.2201 171.555 60.2201C169.867 60.2201 169.055 61.9076 168.763 63.3243C168.242 65.8034 169.472 66.2618 170.347 66.2618C171.513 66.2618 172.576 65.3243 172.867 63.9284H171.472C171.347 64.4493 171.284 65.1368 170.513 65.1368C169.701 65.1368 169.992 64.4076 170.159 63.6784L170.18 63.5743H172.992L173.034 63.3659ZM170.367 62.6368L170.388 62.5326C170.534 61.8243 170.722 61.3451 171.409 61.3451C172.013 61.3451 171.93 61.6576 171.784 62.3451L171.763 62.4493H170.409L170.367 62.6368Z" fill="#1C1C1B"/>
<path d="M177.518 62.1159L177.581 61.8659C177.706 61.1993 177.393 60.2201 176.018 60.2201C174.914 60.2201 173.872 60.8659 173.664 61.8868C173.477 62.7409 173.935 63.3451 174.685 63.6159L175.497 63.9284C175.852 64.0743 175.81 64.1368 175.727 64.5326C175.622 65.0326 175.456 65.1368 174.872 65.1368C174.247 65.1368 174.289 64.9909 174.414 64.3659L174.497 64.0118H173.164L173.081 64.3868C172.852 65.4284 173.331 66.2618 174.685 66.2618C175.768 66.2618 176.914 65.5743 177.164 64.4284C177.331 63.5743 176.872 62.9493 176.122 62.6784L175.477 62.4493C174.956 62.2409 174.997 62.2618 175.081 61.8451C175.185 61.3451 175.393 61.3451 175.81 61.3451C176.372 61.3451 176.227 61.5534 176.143 61.9701L176.081 62.3034H177.477L177.518 62.1159Z" fill="#1C1C1B"/>
<path d="M184.324 63.3659L184.428 62.8034C184.762 61.3034 184.345 60.2201 182.845 60.2201C181.157 60.2201 180.345 61.9076 180.053 63.3243C179.532 65.8034 180.762 66.2618 181.637 66.2618C182.803 66.2618 183.866 65.3243 184.157 63.9284H182.762C182.637 64.4493 182.574 65.1368 181.803 65.1368C180.991 65.1368 181.282 64.4076 181.449 63.6784L181.47 63.5743H184.282L184.324 63.3659ZM181.657 62.6368L181.678 62.5326C181.824 61.8243 182.012 61.3451 182.699 61.3451C183.303 61.3451 183.22 61.6576 183.074 62.3451L183.053 62.4493H181.699L181.657 62.6368ZM182.512 60.0326H183.324L185.053 58.2201H183.324L182.157 60.0326H182.512Z" fill="#1C1C1B"/>
<path d="M184.517 66.1159H185.746L187.35 58.5951H185.892L184.287 66.1159H184.517Z" fill="#1C1C1B"/>
<path d="M191.174 63.3659L191.278 62.8034C191.612 61.3034 191.195 60.2201 189.695 60.2201C188.007 60.2201 187.195 61.9076 186.903 63.3243C186.382 65.8034 187.612 66.2618 188.487 66.2618C189.653 66.2618 190.716 65.3243 191.007 63.9284H189.612C189.487 64.4493 189.424 65.1368 188.653 65.1368C187.841 65.1368 188.132 64.4076 188.299 63.6784L188.32 63.5743H191.132L191.174 63.3659ZM188.507 62.6368L188.528 62.5326C188.674 61.8243 188.862 61.3451 189.549 61.3451C190.153 61.3451 190.07 61.6576 189.924 62.3451L189.903 62.4493H188.549L188.507 62.6368ZM189.362 60.0326H190.174L191.903 58.2201H190.174L189.007 60.0326H189.362Z" fill="#1C1C1B"/>
<path d="M191.367 66.1159H192.596L193.408 62.3243C193.554 61.6159 193.867 61.4493 194.304 61.4493C194.742 61.4493 194.7 61.5326 194.554 62.2409L193.721 66.1159H195.2L196.012 62.3243C196.158 61.6159 196.45 61.4493 196.887 61.4493C197.325 61.4493 197.283 61.5326 197.137 62.2409L196.304 66.1159H197.783L198.7 61.8451C198.908 60.8034 198.262 60.2201 197.492 60.2201C196.846 60.2201 196.242 60.5743 196.075 60.7826C196.075 60.7826 195.658 60.2201 194.887 60.2201C194.367 60.2201 193.658 60.5743 193.325 60.9909H193.637L193.762 60.3659H192.346L191.137 66.1159H191.367Z" fill="#1C1C1B"/>
<path d="M203.204 63.3659L203.308 62.8034C203.642 61.3034 203.225 60.2201 201.725 60.2201C200.037 60.2201 199.225 61.9076 198.933 63.3243C198.412 65.8034 199.642 66.2618 200.517 66.2618C201.683 66.2618 202.746 65.3243 203.037 63.9284H201.642C201.517 64.4493 201.454 65.1368 200.683 65.1368C199.871 65.1368 200.162 64.4076 200.329 63.6784L200.35 63.5743H203.162L203.204 63.3659ZM200.537 62.6368L200.558 62.5326C200.704 61.8243 200.892 61.3451 201.579 61.3451C202.183 61.3451 202.1 61.6576 201.954 62.3451L201.933 62.4493H200.579L200.537 62.6368Z" fill="#1C1C1B"/>
<path d="M203.355 66.1159H204.584L205.397 62.3243C205.542 61.6159 205.834 61.4493 206.292 61.4493C206.834 61.4493 206.772 61.5326 206.626 62.2409L205.813 66.1159H207.272L208.167 61.8659C208.397 60.7826 207.772 60.2201 206.959 60.2201C206.355 60.2201 205.647 60.5743 205.313 60.9909H205.605L205.751 60.3659H204.334L203.105 66.1159H203.355Z" fill="#1C1C1B"/>
<path d="M208.644 61.5326H209.144L208.477 64.6784C208.248 65.7826 208.769 66.1784 209.498 66.1784C209.852 66.1784 210.144 66.1368 210.561 66.0534L210.811 64.8659C210.457 64.9284 210.332 64.9284 210.165 64.9284C209.79 64.9284 209.894 64.9701 209.977 64.5534L210.623 61.5326H211.498L211.748 60.3659H210.873L211.207 58.8243H209.727L209.394 60.3659H208.665L208.415 61.5326H208.644Z" fill="#1C1C1B"/>
<path d="M215.278 62.1159L215.341 61.8659C215.466 61.1993 215.153 60.2201 213.778 60.2201C212.674 60.2201 211.632 60.8659 211.424 61.8868C211.237 62.7409 211.695 63.3451 212.445 63.6159L213.257 63.9284C213.612 64.0743 213.57 64.1368 213.487 64.5326C213.382 65.0326 213.216 65.1368 212.632 65.1368C212.007 65.1368 212.049 64.9909 212.174 64.3659L212.257 64.0118H210.924L210.841 64.3868C210.612 65.4284 211.091 66.2618 212.445 66.2618C213.528 66.2618 214.674 65.5743 214.924 64.4284C215.091 63.5743 214.632 62.9493 213.882 62.6784L213.237 62.4493C212.716 62.2409 212.757 62.2618 212.841 61.8451C212.945 61.3451 213.153 61.3451 213.57 61.3451C214.132 61.3451 213.987 61.5534 213.903 61.9701L213.841 62.3034H215.237L215.278 62.1159Z" fill="#1C1C1B"/>
<path d="M222.209 61.7201C222.417 60.7826 221.542 60.2201 220.584 60.2201C219.167 60.2201 218.376 61.0326 218.084 62.3659H219.501C219.647 61.6576 219.667 61.3451 220.397 61.3451C220.959 61.3451 220.855 61.4493 220.772 61.9493C220.667 62.4076 220.584 62.3451 220.188 62.4493L219.292 62.6784C218.522 62.9076 217.751 63.3659 217.48 64.5534C217.272 65.5951 217.897 66.2618 218.772 66.2618C219.397 66.2618 220.001 65.9493 220.355 65.4701H220.063C220.022 65.8034 220.584 66.1784 221.063 66.1784C221.272 66.1784 221.459 66.1159 221.772 65.9701L222.022 64.8243C221.584 65.0534 221.647 64.9909 221.584 64.9909C221.417 64.9909 221.522 65.0118 221.563 64.8034L222.209 61.7201ZM220.334 63.9909C220.147 64.7826 219.938 65.0743 219.292 65.0743C218.834 65.0743 218.876 64.9076 218.98 64.4493C219.063 64.0534 219.084 63.9284 219.417 63.7826C219.772 63.6159 220.522 63.4493 220.417 63.5118L220.334 63.9909Z" fill="#1C1C1B"/>
<path d="M223.153 66.1159H224.528L227.257 60.3659H225.716L223.966 64.5951H224.257L224.216 60.3659H222.653L222.966 66.1159H223.153Z" fill="#1C1C1B"/>
<path d="M230.918 61.7201C231.127 60.7826 230.252 60.2201 229.293 60.2201C227.877 60.2201 227.085 61.0326 226.793 62.3659H228.21C228.356 61.6576 228.377 61.3451 229.106 61.3451C229.668 61.3451 229.564 61.4493 229.481 61.9493C229.377 62.4076 229.293 62.3451 228.897 62.4493L228.002 62.6784C227.231 62.9076 226.46 63.3659 226.189 64.5534C225.981 65.5951 226.606 66.2618 227.481 66.2618C228.106 66.2618 228.71 65.9493 229.064 65.4701H228.772C228.731 65.8034 229.293 66.1784 229.772 66.1784C229.981 66.1784 230.168 66.1159 230.481 65.9701L230.731 64.8243C230.293 65.0534 230.356 64.9909 230.293 64.9909C230.127 64.9909 230.231 65.0118 230.272 64.8034L230.918 61.7201ZM229.043 63.9909C228.856 64.7826 228.647 65.0743 228.002 65.0743C227.543 65.0743 227.585 64.9076 227.689 64.4493C227.772 64.0534 227.793 63.9284 228.127 63.7826C228.481 63.6159 229.231 63.4493 229.127 63.5118L229.043 63.9909Z" fill="#1C1C1B"/>
<path d="M230.944 66.1159H232.173L232.986 62.3243C233.132 61.6159 233.423 61.4493 233.882 61.4493C234.423 61.4493 234.361 61.5326 234.215 62.2409L233.402 66.1159H234.861L235.757 61.8659C235.986 60.7826 235.361 60.2201 234.548 60.2201C233.944 60.2201 233.236 60.5743 232.902 60.9909H233.194L233.34 60.3659H231.923L230.694 66.1159H230.944Z" fill="#1C1C1B"/>
<path d="M236.233 61.5326H236.733L236.067 64.6784C235.837 65.7826 236.358 66.1784 237.087 66.1784C237.442 66.1784 237.733 66.1368 238.15 66.0534L238.4 64.8659C238.046 64.9284 237.921 64.9284 237.754 64.9284C237.379 64.9284 237.483 64.9701 237.567 64.5534L238.212 61.5326H239.087L239.337 60.3659H238.462L238.796 58.8243H237.317L236.983 60.3659H236.254L236.004 61.5326H236.233Z" fill="#1C1C1B"/>
<path d="M243.684 66.1159H244.851L246.455 58.5951H244.976L244.476 60.9909H244.767C244.705 60.6993 244.142 60.2201 243.559 60.2201C242.726 60.2201 241.622 60.7826 241.122 63.1576C240.705 65.0118 241.184 66.2618 242.455 66.2618C243.226 66.2618 243.726 65.7618 243.913 65.4493H243.58L243.434 66.1159H243.684ZM244.038 63.3034C243.788 64.4493 243.663 65.0118 242.913 65.0118C242.163 65.0118 242.372 64.4284 242.642 63.2201C242.934 61.7618 243.08 61.4493 243.684 61.4493C244.517 61.4493 244.309 62.0118 244.038 63.3034Z" fill="#1C1C1B"/>
<path d="M250.223 63.3659L250.327 62.8034C250.661 61.3034 250.244 60.2201 248.744 60.2201C247.057 60.2201 246.244 61.9076 245.952 63.3243C245.432 65.8034 246.661 66.2618 247.536 66.2618C248.702 66.2618 249.765 65.3243 250.057 63.9284H248.661C248.536 64.4493 248.473 65.1368 247.702 65.1368C246.89 65.1368 247.182 64.4076 247.348 63.6784L247.369 63.5743H250.182L250.223 63.3659ZM247.557 62.6368L247.577 62.5326C247.723 61.8243 247.911 61.3451 248.598 61.3451C249.202 61.3451 249.119 61.6576 248.973 62.3451L248.952 62.4493H247.598L247.557 62.6368Z" fill="#1C1C1B"/>
<path d="M253.253 61.5326H253.753L253.087 64.6784C252.857 65.7826 253.378 66.1784 254.107 66.1784C254.462 66.1784 254.753 66.1368 255.17 66.0534L255.42 64.8659C255.066 64.9284 254.941 64.9284 254.774 64.9284C254.399 64.9284 254.503 64.9701 254.587 64.5534L255.232 61.5326H256.107L256.357 60.3659H255.482L255.816 58.8243H254.337L254.003 60.3659H253.274L253.024 61.5326H253.253Z" fill="#1C1C1B"/>
<path d="M255.554 66.1159H256.783L257.512 62.6993C257.721 61.6993 258.158 61.6784 258.658 61.6784C258.825 61.6784 259.033 61.7201 259.242 61.7826L259.533 60.3451C259.262 60.2409 259.2 60.2201 259.075 60.2201C258.471 60.2201 257.846 60.6576 257.512 61.1993H257.825L258.012 60.3659H256.533L255.304 66.1159H255.554Z" fill="#1C1C1B"/>
<path d="M258.746 66.1159H259.975L261.204 60.3659H259.725L258.517 66.1159H258.746ZM260.058 59.9701H261.287L261.6 58.5118H260.121L259.829 59.9701H260.058Z" fill="#1C1C1B"/>
<path d="M265.403 63.3659L265.507 62.8034C265.841 61.3034 265.424 60.2201 263.924 60.2201C262.237 60.2201 261.424 61.9076 261.132 63.3243C260.612 65.8034 261.841 66.2618 262.716 66.2618C263.882 66.2618 264.945 65.3243 265.237 63.9284H263.841C263.716 64.4493 263.653 65.1368 262.882 65.1368C262.07 65.1368 262.362 64.4076 262.528 63.6784L262.549 63.5743H265.362L265.403 63.3659ZM262.737 62.6368L262.757 62.5326C262.903 61.8243 263.091 61.3451 263.778 61.3451C264.382 61.3451 264.299 61.6576 264.153 62.3451L264.132 62.4493H262.778L262.737 62.6368Z" fill="#1C1C1B"/>
<path d="M265.554 66.1159H266.783L267.512 62.6993C267.721 61.6993 268.158 61.6784 268.658 61.6784C268.825 61.6784 269.033 61.7201 269.242 61.7826L269.533 60.3451C269.262 60.2409 269.2 60.2201 269.075 60.2201C268.471 60.2201 267.846 60.6576 267.512 61.1993H267.825L268.012 60.3659H266.533L265.304 66.1159H265.554Z" fill="#1C1C1B"/>
<path d="M136.833 43.872H137.345C137.575 43.872 137.759 43.8027 137.897 43.664C138.041 43.5253 138.113 43.3093 138.113 43.016C138.113 42.728 138.052 42.5093 137.929 42.36C137.807 42.2107 137.601 42.136 137.313 42.136H136.833V43.872ZM135.681 41.288H137.697C137.991 41.288 138.236 41.3387 138.433 41.44C138.636 41.536 138.799 41.664 138.921 41.824C139.044 41.984 139.132 42.168 139.185 42.376C139.239 42.5787 139.265 42.7867 139.265 43C139.265 43.2933 139.22 43.5493 139.129 43.768C139.044 43.9867 138.921 44.1653 138.761 44.304C138.607 44.4427 138.417 44.5467 138.193 44.616C137.969 44.6853 137.721 44.72 137.449 44.72H136.833V47H135.681V41.288ZM140.862 44.144C140.862 44.528 140.87 44.856 140.886 45.128C140.907 45.3947 140.944 45.6133 140.998 45.784C141.056 45.9493 141.136 46.072 141.238 46.152C141.344 46.2267 141.483 46.264 141.654 46.264C141.824 46.264 141.96 46.2267 142.062 46.152C142.168 46.072 142.248 45.9493 142.302 45.784C142.36 45.6133 142.398 45.3947 142.414 45.128C142.435 44.856 142.446 44.528 142.446 44.144C142.446 43.76 142.435 43.4347 142.414 43.168C142.398 42.9013 142.36 42.6827 142.302 42.512C142.248 42.3413 142.168 42.2187 142.062 42.144C141.96 42.064 141.824 42.024 141.654 42.024C141.483 42.024 141.344 42.064 141.238 42.144C141.136 42.2187 141.056 42.3413 140.998 42.512C140.944 42.6827 140.907 42.9013 140.886 43.168C140.87 43.4347 140.862 43.76 140.862 44.144ZM139.71 44.144C139.71 43.712 139.728 43.3147 139.766 42.952C139.808 42.584 139.896 42.2693 140.03 42.008C140.168 41.7467 140.366 41.544 140.622 41.4C140.878 41.2507 141.222 41.176 141.654 41.176C142.086 41.176 142.43 41.2507 142.686 41.4C142.942 41.544 143.136 41.7467 143.27 42.008C143.408 42.2693 143.496 42.584 143.534 42.952C143.576 43.3147 143.598 43.712 143.598 44.144C143.598 44.5813 143.576 44.9813 143.534 45.344C143.496 45.7067 143.408 46.0187 143.27 46.28C143.136 46.5413 142.942 46.7413 142.686 46.88C142.43 47.0187 142.086 47.088 141.654 47.088C141.222 47.088 140.878 47.0187 140.622 46.88C140.366 46.7413 140.168 46.5413 140.03 46.28C139.896 46.0187 139.808 45.7067 139.766 45.344C139.728 44.9813 139.71 44.5813 139.71 44.144ZM147.619 41.288V42.232H146.371V47H145.219V42.232H143.971V41.288H147.619Z" fill="#1C1C1B"/>
<path d="M177.909 44.144C177.909 44.528 177.917 44.856 177.933 45.128C177.954 45.3947 177.991 45.6133 178.045 45.784C178.103 45.9493 178.183 46.072 178.285 46.152C178.391 46.2267 178.53 46.264 178.701 46.264C178.871 46.264 179.007 46.2267 179.109 46.152C179.215 46.072 179.295 45.9493 179.349 45.784C179.407 45.6133 179.445 45.3947 179.461 45.128C179.482 44.856 179.493 44.528 179.493 44.144C179.493 43.76 179.482 43.4347 179.461 43.168C179.445 42.9013 179.407 42.6827 179.349 42.512C179.295 42.3413 179.215 42.2187 179.109 42.144C179.007 42.064 178.871 42.024 178.701 42.024C178.53 42.024 178.391 42.064 178.285 42.144C178.183 42.2187 178.103 42.3413 178.045 42.512C177.991 42.6827 177.954 42.9013 177.933 43.168C177.917 43.4347 177.909 43.76 177.909 44.144ZM176.757 44.144C176.757 43.712 176.775 43.3147 176.813 42.952C176.855 42.584 176.943 42.2693 177.077 42.008C177.215 41.7467 177.413 41.544 177.669 41.4C177.925 41.2507 178.269 41.176 178.701 41.176C179.133 41.176 179.477 41.2507 179.733 41.4C179.989 41.544 180.183 41.7467 180.317 42.008C180.455 42.2693 180.543 42.584 180.581 42.952C180.623 43.3147 180.645 43.712 180.645 44.144C180.645 44.5813 180.623 44.9813 180.581 45.344C180.543 45.7067 180.455 46.0187 180.317 46.28C180.183 46.5413 179.989 46.7413 179.733 46.88C179.477 47.0187 179.133 47.088 178.701 47.088C178.269 47.088 177.925 47.0187 177.669 46.88C177.413 46.7413 177.215 46.5413 177.077 46.28C176.943 46.0187 176.855 45.7067 176.813 45.344C176.775 44.9813 176.757 44.5813 176.757 44.144ZM182.474 43.872H182.986C183.215 43.872 183.399 43.8027 183.538 43.664C183.682 43.5253 183.754 43.3093 183.754 43.016C183.754 42.728 183.693 42.5093 183.57 42.36C183.447 42.2107 183.242 42.136 182.954 42.136H182.474V43.872ZM181.322 41.288H183.338C183.631 41.288 183.877 41.3387 184.074 41.44C184.277 41.536 184.439 41.664 184.562 41.824C184.685 41.984 184.773 42.168 184.826 42.376C184.879 42.5787 184.906 42.7867 184.906 43C184.906 43.2933 184.861 43.5493 184.77 43.768C184.685 43.9867 184.562 44.1653 184.402 44.304C184.247 44.4427 184.058 44.5467 183.834 44.616C183.61 44.6853 183.362 44.72 183.09 44.72H182.474V47H181.322V41.288ZM188.662 41.288V42.232H186.622V43.576H188.542V44.52H186.622V46.056H188.742V47H185.47V41.288H188.662ZM189.322 41.288H191.45C191.93 41.288 192.303 41.4107 192.57 41.656C192.837 41.896 192.97 42.264 192.97 42.76C192.97 43.144 192.893 43.4587 192.738 43.704C192.583 43.944 192.343 44.0987 192.018 44.168V44.184C192.306 44.2267 192.517 44.32 192.65 44.464C192.783 44.608 192.866 44.84 192.898 45.16C192.909 45.2667 192.917 45.384 192.922 45.512C192.927 45.6347 192.933 45.7733 192.938 45.928C192.949 46.232 192.965 46.464 192.986 46.624C193.018 46.784 193.087 46.8933 193.194 46.952V47H191.946C191.887 46.92 191.85 46.8293 191.834 46.728C191.818 46.6213 191.807 46.512 191.802 46.4L191.77 45.304C191.759 45.08 191.703 44.904 191.602 44.776C191.501 44.648 191.33 44.584 191.09 44.584H190.474V47H189.322V41.288ZM190.474 43.784H190.954C191.231 43.784 191.445 43.72 191.594 43.592C191.743 43.4587 191.818 43.2373 191.818 42.928C191.818 42.4 191.551 42.136 191.018 42.136H190.474V43.784ZM196.207 43.216C196.207 42.8 196.157 42.4987 196.055 42.312C195.959 42.12 195.781 42.024 195.519 42.024C195.375 42.024 195.255 42.064 195.159 42.144C195.069 42.2187 194.997 42.344 194.943 42.52C194.89 42.6907 194.853 42.9173 194.831 43.2C194.81 43.4773 194.799 43.8187 194.799 44.224C194.799 44.656 194.813 45.0053 194.839 45.272C194.871 45.5387 194.917 45.7467 194.975 45.896C195.039 46.04 195.117 46.1387 195.207 46.192C195.303 46.24 195.413 46.264 195.535 46.264C195.637 46.264 195.73 46.248 195.815 46.216C195.906 46.1787 195.983 46.1093 196.047 46.008C196.111 45.9013 196.162 45.7547 196.199 45.568C196.237 45.376 196.255 45.1253 196.255 44.816H197.407C197.407 45.1253 197.383 45.4187 197.335 45.696C197.287 45.9733 197.197 46.216 197.063 46.424C196.935 46.632 196.751 46.7947 196.511 46.912C196.277 47.0293 195.97 47.088 195.591 47.088C195.159 47.088 194.815 47.0187 194.559 46.88C194.303 46.7413 194.106 46.5413 193.967 46.28C193.834 46.0187 193.746 45.7067 193.703 45.344C193.666 44.9813 193.647 44.5813 193.647 44.144C193.647 43.712 193.666 43.3147 193.703 42.952C193.746 42.584 193.834 42.2693 193.967 42.008C194.106 41.7467 194.303 41.544 194.559 41.4C194.815 41.2507 195.159 41.176 195.591 41.176C196.002 41.176 196.325 41.2427 196.559 41.376C196.799 41.5093 196.978 41.68 197.095 41.888C197.213 42.0907 197.285 42.312 197.311 42.552C197.343 42.7867 197.359 43.008 197.359 43.216H196.207ZM199.144 41.288V45.272C199.144 45.416 199.152 45.5493 199.168 45.672C199.189 45.7893 199.224 45.8933 199.272 45.984C199.325 46.0693 199.395 46.1387 199.48 46.192C199.571 46.24 199.683 46.264 199.816 46.264C199.955 46.264 200.067 46.24 200.152 46.192C200.237 46.1387 200.304 46.0693 200.352 45.984C200.405 45.8933 200.44 45.7893 200.456 45.672C200.477 45.5493 200.488 45.416 200.488 45.272V41.288H201.64V45.272C201.64 45.6347 201.589 45.936 201.488 46.176C201.387 46.4107 201.251 46.5973 201.08 46.736C200.909 46.8747 200.715 46.968 200.496 47.016C200.277 47.064 200.051 47.088 199.816 47.088C199.581 47.088 199.355 47.0667 199.136 47.024C198.917 46.9813 198.723 46.896 198.552 46.768C198.381 46.6347 198.245 46.448 198.144 46.208C198.043 45.968 197.992 45.656 197.992 45.272V41.288H199.144ZM202.369 47V41.288H203.521V46.056H205.561V47H202.369ZM209.264 41.288V42.232H207.224V43.576H209.144V44.52H207.224V46.056H209.344V47H206.072V41.288H209.264Z" fill="#1C1C1B"/>
<path d="M205.816 22.3451C205.721 22.4218 205.653 22.5256 205.621 22.643C204.854 25.4054 200.611 29.9643 193.953 30.9799C193.001 31.1288 192.04 31.2056 191.096 31.2056C185.675 31.2056 181.279 28.6598 179.74 26.1502C179.23 25.3196 179.094 24.5749 179.369 24.0242C179.861 22.9183 181.514 22.6926 183.843 22.6926C184.493 22.6926 185.179 22.7107 185.892 22.7287C186.673 22.7468 187.481 22.7694 188.302 22.7694C190.193 22.7694 191.697 22.652 193.006 22.4083C195.19 22.0788 197.05 21.1625 198.693 20.359C200.349 19.542 201.753 18.8469 203.08 18.9372C203.211 18.9462 203.351 18.9101 203.464 18.8334C205.134 17.7049 206.822 17.3303 207.495 18.0074C207.747 18.2556 207.784 18.6528 207.775 18.9462C207.729 20.0295 206.962 21.3611 205.816 22.3451ZM208.361 17.1407C207.273 16.0484 205.125 16.2876 202.949 17.7049C201.351 17.6733 199.812 18.4407 198.156 19.2577C196.589 20.025 194.82 20.8962 192.802 21.1986C191.543 21.4333 190.117 21.5416 188.302 21.5416C187.49 21.5416 186.691 21.5236 185.923 21.501C185.201 21.4829 184.502 21.4649 183.843 21.4649C181.581 21.4649 179.094 21.6274 178.264 23.5006C177.799 24.4124 177.952 25.5814 178.697 26.7911C180.363 29.5084 184.953 32.4288 191.096 32.4288C192.103 32.4288 193.127 32.3475 194.138 32.1896C200.634 31.2011 205.599 26.8543 206.75 23.153C208.09 21.9569 208.944 20.3771 208.998 18.9914C209.025 18.224 208.808 17.5831 208.361 17.1407Z" fill="#1C1C1B"/>
<path d="M181.852 24.3898C181.938 24.2725 182.055 24.1732 182.2 24.0919C182.493 23.9294 182.886 23.8527 183.287 23.8166C184.1 23.7489 184.962 23.8121 185.824 23.8707C187.553 24.0061 189.322 24.1686 191.096 24.0377C191.543 24.0061 191.981 23.952 192.423 23.8707C192.861 23.7895 193.294 23.7128 193.728 23.5909C194.585 23.3607 195.411 23.0492 196.215 22.7017C197.826 22.002 199.374 21.1851 200.882 20.3049C199.298 21.0406 197.713 21.7718 196.079 22.3541C195.267 22.643 194.436 22.9093 193.606 23.0944C193.19 23.1846 192.762 23.2478 192.337 23.302C191.918 23.3517 191.489 23.3787 191.065 23.3923C189.354 23.4464 187.639 23.2253 185.896 23.0583C185.021 22.977 184.14 22.8822 183.211 22.9544C182.75 22.9951 182.263 23.0718 181.78 23.3246C181.545 23.451 181.315 23.636 181.143 23.8707C180.972 24.1235 180.872 24.3221 180.796 24.6336C180.687 25.2068 180.836 25.7394 181.044 26.1818C181.261 26.6241 181.541 27.0123 181.847 27.3599C182.47 28.0595 183.202 28.6147 183.978 29.0796C185.54 30.0004 187.291 30.5511 189.065 30.7587C192.613 31.1695 196.296 30.2532 199.108 28.1588C196.097 29.9417 192.522 30.5421 189.16 30.0455C187.485 29.7837 185.851 29.2286 184.42 28.3484C183.712 27.9105 183.044 27.3915 182.511 26.7776C182.245 26.4752 182.01 26.1457 181.852 25.7981C181.694 25.4596 181.608 25.0985 181.667 24.8096C181.685 24.7013 181.775 24.4936 181.852 24.3898Z" fill="#1C1C1B"/>
<path d="M147.829 32.8944C147.829 32.901 147.832 32.9108 147.832 32.9174C147.832 32.9272 147.825 32.9338 147.825 32.9436C147.825 34.2312 145.443 35.6105 141.898 35.6105C138.353 35.6105 135.972 34.2312 135.972 32.9436C135.972 32.9108 135.959 32.8846 135.952 32.8551L134.612 21.411C136.211 22.4037 138.848 23.0459 141.898 23.0459C144.9 23.0459 147.498 22.4266 149.103 21.4569L147.829 32.8944ZM141.898 14.8912C146.567 14.8912 149.83 16.4376 149.899 17.8464C148.851 16.3131 145.692 15.2614 141.898 15.2614C138.046 15.2614 134.989 16.3 133.894 17.9119C133.894 17.9054 133.891 17.8988 133.891 17.8922C133.891 16.4703 137.181 14.8912 141.898 14.8912ZM141.898 20.8933C137.901 20.8933 134.94 19.7565 134.124 18.5475C134.838 16.9028 137.97 15.7692 141.898 15.7692C145.778 15.7692 149.142 16.9749 149.68 18.5344C148.877 19.7499 145.909 20.8933 141.898 20.8933ZM134.474 20.2184L134.455 20.0481C136.031 21.0997 138.747 21.7812 141.898 21.7812C144.998 21.7812 147.678 21.1194 149.267 20.0972C149.26 20.1169 149.25 20.1332 149.247 20.1562L149.234 20.2905C148.045 21.3062 145.358 22.1547 141.898 22.1547C138.353 22.1547 135.618 21.2636 134.474 20.2184ZM150.797 17.8922C150.797 15.7102 146.888 14 141.898 14C136.909 14 133 15.7102 133 17.8922C133 17.9742 133.016 18.0561 133.029 18.138C133.013 18.1838 133 18.2264 133 18.2756V19.1536C133 19.6713 133.226 20.1562 133.622 20.6017L135.094 33.1696C135.097 33.1828 135.103 33.1926 135.107 33.2057C135.359 35.0732 138.245 36.5016 141.898 36.5016C145.683 36.5016 148.654 34.9683 148.71 32.9993C148.71 32.996 148.713 32.9927 148.713 32.9927L150.083 20.7066C150.541 20.2348 150.797 19.7106 150.797 19.1536V18.2756C150.797 18.2264 150.784 18.1838 150.767 18.138C150.78 18.0561 150.797 17.9742 150.797 17.8922Z" fill="#1C1C1B"/>
</g>
<defs>
<clipPath id="clip0_26_20270">
<rect width="275" height="72" fill="white"/>
</clipPath>
</defs>
</svg>
