<svg width="222" height="61" viewBox="0 0 222 61" fill="none" xmlns="http://www.w3.org/2000/svg">
<g clip-path="url(#clip0_79_1169)">
<path d="M24.6979 60.4688C11.0781 60.4688 0 49.5208 0 36.0625V0H196.948C210.563 0 221.641 10.9479 221.641 24.4062V60.4688" fill="white"/>
<path d="M192.083 52.9113H69.1353C59.6874 52.9113 51.9999 45.354 51.9999 36.0623V7.55713H174.948C184.396 7.55713 192.083 15.1144 192.083 24.4061V52.9113ZM174.948 5.6665H50.1145V36.0623C50.1145 46.3957 58.6458 54.8019 69.1353 54.8019H193.969V24.4061C193.969 14.0728 185.437 5.6665 174.948 5.6665Z" fill="#333347"/>
<path d="M158.714 54.8019L171.724 28.2238L158.432 5.6665H196.948C207.437 5.6665 215.969 14.0728 215.969 24.4061V54.8019" fill="#333347"/>
<path d="M102.901 5.6665H50.1145V36.0623C50.1145 46.3957 58.6458 54.8019 69.1353 54.8019H121.927V24.4061C121.927 14.0728 113.391 5.6665 102.901 5.6665Z" fill="#333347"/>
<path d="M63.651 29.3594C58.8489 29.3594 54.9583 33.25 54.9583 38.0521C54.9583 42.8542 58.8489 46.7448 63.651 46.7448C68.4583 46.7448 72.3489 42.8542 72.3489 38.0521C72.3489 33.25 68.4583 29.3594 63.651 29.3594Z" fill="white"/>
<path d="M69.3229 39.4689H65.0729V43.7189H62.2344V39.4689H57.9844V36.6356H62.2344V32.3804H65.0729V36.6356H69.3229" fill="#1C1C1B"/>
<path d="M55.7864 26.5936V17.1978H58.2708V24.5155H61.828V26.5936" fill="white"/>
<path d="M62.9426 26.5936V17.1978H69.0155V19.2759H65.4322V20.755H68.4947V22.8384H65.4322V24.5155H69.1614V26.5936" fill="white"/>
<path d="M75.0885 26.5936V19.2759H72.6041V17.1978H80.0677V19.2759H77.5781V26.5936" fill="white"/>
<path d="M83.5521 21.4738H84.4479C85.4479 21.4738 85.9531 21.0623 85.9531 20.2342C85.9531 19.828 85.8229 19.5467 85.5677 19.3957C85.3125 19.2394 84.9375 19.1613 84.4479 19.1613H83.5521V21.4738ZM81.0625 26.5988V17.1978H84.6198C85.125 17.1978 85.6042 17.2446 86.0625 17.3384C86.5208 17.4373 86.9167 17.5988 87.2604 17.8332C87.6042 18.0623 87.875 18.3748 88.0781 18.7655C88.2813 19.1561 88.3802 19.6457 88.3802 20.2342C88.3802 20.9061 88.2448 21.4686 87.9688 21.9113C87.6979 22.354 87.3281 22.6978 86.8646 22.953L88.901 26.5988H86.125L84.5052 23.4425H83.5521V26.5988" fill="white"/>
<path d="M89.8698 26.5988H92.3593V17.1978H89.8698V26.5988Z" fill="white"/>
<path d="M75.3801 43.2759V33.8696H81.5103V35.953H77.8697V37.7498H80.9895V39.8332H77.8697V43.2759" fill="white"/>
<path d="M84.9218 38.703L84.7604 39.354H86.4948L86.3385 38.703C86.2239 38.2498 86.1041 37.7603 85.9895 37.229C85.875 36.6978 85.7604 36.1978 85.6406 35.7238H85.5833C85.4791 36.203 85.3698 36.7082 85.2604 37.2342C85.151 37.7603 85.0364 38.2498 84.9218 38.703ZM81.3073 43.2759L84.1666 33.8696H87.1718L90.0364 43.2759H87.4062L86.9427 41.2759H84.3125L83.8489 43.2759" fill="white"/>
<path d="M94.5624 43.4478C93.9687 43.4478 93.3958 43.3488 92.8541 43.1509C92.3072 42.953 91.8333 42.6509 91.4218 42.255C91.0103 41.854 90.6822 41.354 90.4426 40.7498C90.203 40.1457 90.0833 39.4478 90.0833 38.6457C90.0833 37.854 90.2083 37.1509 90.4583 36.5415C90.7083 35.9269 91.0416 35.4113 91.4635 34.9946C91.8801 34.5728 92.3645 34.2498 92.9114 34.0311C93.4583 33.8071 94.026 33.6978 94.6249 33.6978C95.2499 33.6978 95.8124 33.8228 96.302 34.0675C96.7968 34.3123 97.2083 34.604 97.5468 34.9425L96.2447 36.5311C96.0155 36.3332 95.776 36.1665 95.5312 36.0311C95.2812 35.9061 94.9999 35.8384 94.6822 35.8384C94.401 35.8384 94.1405 35.9009 93.8958 36.0259C93.651 36.1509 93.4322 36.3332 93.2447 36.5623C93.0572 36.7915 92.9062 37.078 92.7968 37.4165C92.6822 37.7498 92.6301 38.1353 92.6301 38.5571C92.6301 39.4478 92.8124 40.1248 93.1874 40.5988C93.5572 41.0675 94.0468 41.3071 94.651 41.3071C95.0208 41.3071 95.3437 41.229 95.6301 41.0675C95.9114 40.9061 96.1562 40.7186 96.3593 40.4946L97.6614 42.0571C97.2551 42.5207 96.7916 42.8696 96.2655 43.0988C95.7395 43.3332 95.1718 43.4478 94.5624 43.4478Z" fill="white"/>
<path d="M98.6198 43.2759H101.104V33.8696H98.6198V43.2759Z" fill="white"/>
<path d="M102.875 43.2759V33.8696H105.365V41.1925H108.922V43.2759" fill="white"/>
<path d="M110.031 43.2759V33.8696H116.109V35.953H112.521V37.4321H115.589V39.5155H112.521V41.1925H116.255V43.2759" fill="white"/>
<path d="M28.4062 25.7446C26.7135 28.2342 28.151 31.5103 29.8958 33.1717C31.4895 34.6821 32.7655 35.0363 32.9322 35.078L33.7447 33.5207L36.0885 39.9321L29.4635 41.2811L30.3437 39.6457L29.4478 39.1457C26.6562 37.328 26.0676 34.8592 25.8749 34.0884C25.5416 32.7603 25.0468 28.7863 28.4062 25.7446Z" fill="#333347"/>
<path d="M28.375 25.8488C29.5781 28.6092 33.1146 29.1405 35.4479 28.5519C37.5208 28.0259 38.5052 27.1717 38.6719 27.0155L38.6615 26.9998L37.776 25.4634L44.4427 26.9217L42.0313 33.2394L41.1354 31.6457L40.2656 32.1196C37.2396 33.5103 34.8333 32.6925 34.0781 32.4425C32.7813 32.0155 29.1562 30.3123 28.375 25.8488Z" fill="#333347"/>
<path d="M40.1613 19.1925C39.6978 22.4894 37.7134 24.0728 37.0936 24.5728C36.0311 25.4373 32.6457 27.5675 28.4634 25.8175C31.4373 26.2915 33.7967 23.604 34.5571 21.3175C35.2446 19.2655 35.0415 17.9686 34.9998 17.7707L34.979 17.7655L33.2134 17.6925L38.0259 12.854L42.0519 18.2863L40.2342 18.1821" fill="#333347"/>
<path fill-rule="evenodd" clip-rule="evenodd" d="M19.9375 16.4115C18.4167 16.4115 17.1875 15.1823 17.1875 13.6563C17.1875 12.1354 18.4167 10.9062 19.9375 10.9062C21.4583 10.9062 22.6927 12.1354 22.6927 13.6563C22.6927 15.1823 21.4583 16.4115 19.9375 16.4115Z" fill="#333347"/>
<path d="M15.6771 29.7967C15.9115 29.1509 16.2604 29.1925 16.2604 29.1925C16.2604 29.1925 16.5781 29.1248 16.7552 29.7707L19.3281 38.8071C17.1823 38.1821 15.224 37.1196 13.5573 35.7082L15.6771 29.7967ZM23.7031 5.6665C13.7604 5.6665 5.67188 13.755 5.67188 23.6978C5.67188 33.6405 13.7604 41.729 23.7031 41.729C24.2344 41.729 24.7552 41.6978 25.276 41.6509L25.3958 43.4634L28.6979 40.2707L25.0052 37.453L25.1458 39.354C24.6719 39.4009 24.1875 39.4321 23.7031 39.4321C22.9375 39.4321 22.1875 39.3748 21.4531 39.2655L21.3802 38.7863L19.6667 24.1873C19.4323 21.4321 21.0052 20.9946 21.9792 21.4061L27.4479 23.604C28.0729 23.8748 28.375 23.3488 28.375 23.3488C28.375 23.3488 28.7292 22.8019 28.0938 22.3957C28.0938 22.3957 20.6406 17.4582 19.0521 17.1561C16.8854 16.755 14.7396 18.5103 14.2656 20.7967L11.6198 33.7603C9.34375 31.0311 7.96875 27.5207 7.96875 23.6978C7.96875 15.0207 15.026 7.96338 23.7031 7.96338C28.3385 7.96338 32.5104 9.979 35.3906 13.1769L37.0052 11.5363C33.7083 7.93213 28.9635 5.6665 23.7031 5.6665Z" fill="#333347"/>
<path d="M130.992 24.324V24.576C130.992 24.776 131.008 24.96 131.04 25.128C131.072 25.288 131.132 25.424 131.22 25.536C131.308 25.648 131.424 25.736 131.568 25.8C131.72 25.864 131.908 25.896 132.132 25.896C132.396 25.896 132.632 25.812 132.84 25.644C133.056 25.468 133.164 25.2 133.164 24.84C133.164 24.648 133.136 24.484 133.08 24.348C133.032 24.204 132.948 24.076 132.828 23.964C132.708 23.852 132.548 23.752 132.348 23.664C132.156 23.568 131.916 23.472 131.628 23.376C131.244 23.248 130.912 23.108 130.632 22.956C130.352 22.804 130.116 22.628 129.924 22.428C129.74 22.22 129.604 21.984 129.516 21.72C129.428 21.448 129.384 21.136 129.384 20.784C129.384 19.936 129.62 19.304 130.092 18.888C130.564 18.472 131.212 18.264 132.036 18.264C132.42 18.264 132.772 18.308 133.092 18.396C133.42 18.476 133.7 18.612 133.932 18.804C134.172 18.988 134.356 19.228 134.484 19.524C134.62 19.812 134.688 20.16 134.688 20.568V20.808H133.032C133.032 20.4 132.96 20.088 132.816 19.872C132.672 19.648 132.432 19.536 132.096 19.536C131.904 19.536 131.744 19.564 131.616 19.62C131.488 19.676 131.384 19.752 131.304 19.848C131.232 19.936 131.18 20.04 131.148 20.16C131.124 20.28 131.112 20.404 131.112 20.532C131.112 20.796 131.168 21.02 131.28 21.204C131.392 21.38 131.632 21.544 132 21.696L133.332 22.272C133.66 22.416 133.928 22.568 134.136 22.728C134.344 22.88 134.508 23.048 134.628 23.232C134.756 23.408 134.844 23.604 134.892 23.82C134.94 24.036 134.964 24.276 134.964 24.54C134.964 25.444 134.7 26.104 134.172 26.52C133.652 26.928 132.924 27.132 131.988 27.132C131.012 27.132 130.312 26.92 129.888 26.496C129.472 26.072 129.264 25.464 129.264 24.672V24.324H130.992ZM135.907 27V18.432H137.635V27H135.907ZM141.004 17.928L139.828 16.2H141.484L142.132 17.928H141.004ZM143.704 18.432V19.848H140.644V21.864H143.524V23.28H140.644V25.584H143.824V27H138.916V18.432H143.704ZM148.498 20.976C148.498 20.816 148.478 20.652 148.438 20.484C148.406 20.316 148.35 20.164 148.27 20.028C148.19 19.884 148.086 19.768 147.958 19.68C147.838 19.584 147.69 19.536 147.514 19.536C147.098 19.536 146.798 19.768 146.614 20.232C146.43 20.696 146.338 21.464 146.338 22.536C146.338 23.048 146.354 23.512 146.386 23.928C146.418 24.344 146.474 24.7 146.554 24.996C146.642 25.284 146.762 25.508 146.914 25.668C147.074 25.82 147.278 25.896 147.526 25.896C147.63 25.896 147.742 25.868 147.862 25.812C147.99 25.756 148.106 25.672 148.21 25.56C148.322 25.448 148.414 25.308 148.486 25.14C148.558 24.964 148.594 24.76 148.594 24.528V23.652H147.454V22.38H150.25V27H148.978V26.208H148.954C148.746 26.544 148.494 26.784 148.198 26.928C147.91 27.064 147.562 27.132 147.154 27.132C146.626 27.132 146.194 27.04 145.858 26.856C145.53 26.672 145.27 26.388 145.078 26.004C144.894 25.62 144.77 25.148 144.706 24.588C144.642 24.02 144.61 23.364 144.61 22.62C144.61 21.9 144.654 21.268 144.742 20.724C144.838 20.18 144.998 19.728 145.222 19.368C145.446 19 145.742 18.724 146.11 18.54C146.478 18.356 146.938 18.264 147.49 18.264C148.434 18.264 149.114 18.5 149.53 18.972C149.946 19.436 150.154 20.104 150.154 20.976H148.498ZM156.15 18.432V19.848H153.09V21.864H155.97V23.28H153.09V25.584H156.27V27H151.362V18.432H156.15ZM133.176 38.772L132.348 34.92H132.324L131.496 38.772H133.176ZM133.404 33.432L135.672 42H133.872L133.476 40.188H131.196L130.8 42H129L131.268 33.432H133.404ZM137.888 33.432V39.408C137.888 39.624 137.9 39.824 137.924 40.008C137.956 40.184 138.008 40.34 138.08 40.476C138.16 40.604 138.264 40.708 138.392 40.788C138.528 40.86 138.696 40.896 138.896 40.896C139.104 40.896 139.272 40.86 139.4 40.788C139.528 40.708 139.628 40.604 139.7 40.476C139.78 40.34 139.832 40.184 139.856 40.008C139.888 39.824 139.904 39.624 139.904 39.408V33.432H141.632V39.408C141.632 39.952 141.556 40.404 141.404 40.764C141.252 41.116 141.048 41.396 140.792 41.604C140.536 41.812 140.244 41.952 139.916 42.024C139.588 42.096 139.248 42.132 138.896 42.132C138.544 42.132 138.204 42.1 137.876 42.036C137.548 41.972 137.256 41.844 137 41.652C136.744 41.452 136.54 41.172 136.388 40.812C136.236 40.452 136.16 39.984 136.16 39.408V33.432H137.888ZM147.741 33.432V34.848H145.869V42H144.141V34.848H142.269V33.432H147.741ZM150.039 37.716C150.039 38.292 150.051 38.784 150.075 39.192C150.107 39.592 150.163 39.92 150.243 40.176C150.331 40.424 150.451 40.608 150.603 40.728C150.763 40.84 150.971 40.896 151.227 40.896C151.483 40.896 151.687 40.84 151.839 40.728C151.999 40.608 152.119 40.424 152.199 40.176C152.287 39.92 152.343 39.592 152.367 39.192C152.399 38.784 152.415 38.292 152.415 37.716C152.415 37.14 152.399 36.652 152.367 36.252C152.343 35.852 152.287 35.524 152.199 35.268C152.119 35.012 151.999 34.828 151.839 34.716C151.687 34.596 151.483 34.536 151.227 34.536C150.971 34.536 150.763 34.596 150.603 34.716C150.451 34.828 150.331 35.012 150.243 35.268C150.163 35.524 150.107 35.852 150.075 36.252C150.051 36.652 150.039 37.14 150.039 37.716ZM148.311 37.716C148.311 37.068 148.339 36.472 148.395 35.928C148.459 35.376 148.591 34.904 148.791 34.512C148.999 34.12 149.295 33.816 149.679 33.6C150.063 33.376 150.579 33.264 151.227 33.264C151.875 33.264 152.391 33.376 152.775 33.6C153.159 33.816 153.451 34.12 153.651 34.512C153.859 34.904 153.991 35.376 154.047 35.928C154.111 36.472 154.143 37.068 154.143 37.716C154.143 38.372 154.111 38.972 154.047 39.516C153.991 40.06 153.859 40.528 153.651 40.92C153.451 41.312 153.159 41.612 152.775 41.82C152.391 42.028 151.875 42.132 151.227 42.132C150.579 42.132 150.063 42.028 149.679 41.82C149.295 41.612 148.999 41.312 148.791 40.92C148.591 40.528 148.459 40.06 148.395 39.516C148.339 38.972 148.311 38.372 148.311 37.716Z" fill="black"/>
<path d="M184.337 36.8405L178.602 36.8342C178.276 36.8342 178.006 36.5707 178.006 36.2444L178 30.5407C178 30.3023 178.144 30.0827 178.37 29.9948C178.59 29.9007 178.847 29.9509 179.016 30.1203L180.14 31.2372L189.803 21.6181C190.035 21.3923 190.411 21.3923 190.643 21.6181L193.304 24.2661C193.417 24.379 193.48 24.5233 193.48 24.6865C193.48 24.8433 193.417 24.9939 193.304 25.1069L183.641 34.7134L184.758 35.8303C184.927 35.9997 184.977 36.257 184.883 36.4766C184.795 36.6962 184.576 36.8405 184.337 36.8405ZM179.198 35.6483L182.894 35.6546L182.373 35.1338C182.141 34.9016 182.141 34.5252 182.373 34.293L192.036 24.6865L190.223 22.8794L180.56 32.4922C180.328 32.7243 179.951 32.7243 179.719 32.4922L179.192 31.9776" fill="white"/>
<path d="M196.473 28.2444C196.015 28.2444 195.575 28.0687 195.237 27.755C194.885 27.4287 194.684 26.9832 194.666 26.5001L194.578 23.7706L195.77 23.7329L195.858 26.4624C195.864 26.6256 195.933 26.7761 196.052 26.8891C196.171 27.002 196.341 27.046 196.498 27.0585C196.661 27.0522 196.811 26.9832 196.924 26.864C197.037 26.7448 197.094 26.5879 197.088 26.4248L196.956 22.7855L198.148 22.7478L198.28 26.3808C198.299 26.864 198.129 27.322 197.797 27.6734C197.464 28.0248 197.019 28.2256 196.535 28.2381C196.51 28.2444 196.491 28.2444 196.473 28.2444Z" fill="white"/>
<path d="M196.473 28.2444C196.015 28.2444 195.575 28.0687 195.237 27.755C194.885 27.4287 194.684 26.9832 194.666 26.5001L194.578 23.7706L195.77 23.7329L195.858 26.4624C195.864 26.6256 195.933 26.7761 196.052 26.8891C196.171 27.002 196.341 27.046 196.498 27.0585C196.661 27.0522 196.811 26.9832 196.924 26.864C197.037 26.7448 197.094 26.5879 197.088 26.4248L196.956 22.7855L198.148 22.7478L198.28 26.3808C198.299 26.864 198.129 27.322 197.797 27.6734C197.464 28.0248 197.019 28.2256 196.535 28.2381C196.51 28.2444 196.491 28.2444 196.473 28.2444Z" fill="white"/>
<path d="M194.063 28.6521C193.599 28.6521 193.166 28.4827 192.827 28.169C192.476 27.8364 192.269 27.3909 192.256 26.9078L192.168 24.1783L193.36 24.1406L193.448 26.8701C193.455 27.0395 193.524 27.1901 193.643 27.3031C193.762 27.416 193.919 27.485 194.082 27.4662C194.421 27.4537 194.691 27.1713 194.678 26.8325L194.546 23.1994L195.739 23.1555L195.87 26.7886C195.908 27.7862 195.124 28.6145 194.126 28.6521C194.101 28.6521 194.082 28.6521 194.063 28.6521Z" fill="white"/>
<path d="M196.115 36.8531C195.87 36.8531 195.651 36.7025 195.563 36.4829C195.469 36.2632 195.519 36.006 195.688 35.8366L196.811 34.7197L187.148 25.1069C186.916 24.881 186.916 24.5045 187.148 24.2723L189.803 21.6244C190.022 21.4048 190.424 21.4048 190.643 21.6244L200.733 31.6576L199.886 32.4984L190.223 22.8856L188.41 24.6927L198.073 34.2993C198.311 34.5314 198.311 34.9142 198.073 35.1401L197.552 35.6609H201.248L201.254 30.547H202.446L202.44 36.2507C202.44 36.577 202.176 36.8405 201.844 36.8405L196.115 36.8531Z" fill="white"/>
<path d="M190.198 41.3648C190.041 41.3648 189.891 41.3083 189.771 41.1891L185.718 37.167C185.548 36.9976 185.498 36.7403 185.586 36.5207C185.68 36.2948 185.9 36.1505 186.138 36.1505H187.726V25.1071C187.726 24.7808 187.989 24.511 188.322 24.511H192.08C192.407 24.511 192.677 24.7808 192.677 25.1071V36.7466H191.484V25.7032H188.918V36.7466C188.918 37.0729 188.648 37.3364 188.322 37.3364H187.581L190.198 39.9341L193.831 36.3262L194.678 37.167L190.618 41.1891C190.499 41.3083 190.349 41.3648 190.198 41.3648Z" fill="white"/>
<path d="M184.331 36.8405L178.602 36.8342C178.276 36.8342 178.006 36.5707 178.006 36.2444L178 30.5407C178 30.3023 178.144 30.0827 178.37 29.9948C178.59 29.9007 178.847 29.9509 179.016 30.1203L180.14 31.2372L189.803 21.6181C190.035 21.3923 190.411 21.3923 190.643 21.6181L193.304 24.2661C193.417 24.379 193.48 24.5233 193.48 24.6865C193.48 24.8433 193.417 24.9939 193.304 25.1069L183.214 35.1338L182.373 34.293L192.036 24.6865L190.223 22.8794L180.56 32.4922C180.328 32.7243 179.951 32.7243 179.719 32.4922L179.192 31.9776L179.198 35.6483L184.337 35.6546" fill="white"/>
<path d="M203.927 19.8237C203.494 19.8237 203.086 19.6543 202.779 19.3531L197.182 13.7812C196.874 13.48 196.705 13.0722 196.705 12.6455C196.705 12.2126 196.874 11.811 197.175 11.5035L198.631 10.0541C199.246 9.4517 200.313 9.4517 200.928 10.0541L206.525 15.626C207.158 16.2534 207.158 17.2762 206.525 17.9037L205.069 19.3531C204.762 19.6543 204.36 19.8237 203.927 19.8237ZM199.779 10.7694C199.666 10.7694 199.56 10.8196 199.478 10.8949V10.9012L198.023 12.3443C197.941 12.4259 197.897 12.5326 197.897 12.6455C197.897 12.7585 197.941 12.8651 198.023 12.9404L203.62 18.5123C203.783 18.6755 204.065 18.6692 204.228 18.5123L205.684 17.0692C205.847 16.8997 205.847 16.6299 205.678 16.4668L200.081 10.9012C199.999 10.8196 199.892 10.7694 199.779 10.7694Z" fill="white"/>
<path d="M198 29.5L193.5 25.5L192.5 26.5L192 28.5L195 32.5L198 29.5Z" fill="#333347"/>
<path d="M196.115 36.8531C195.87 36.8531 195.651 36.7025 195.563 36.4829C195.469 36.2632 195.519 36.006 195.688 35.8366L196.811 34.7197L187.148 25.1069C186.916 24.881 186.916 24.5045 187.148 24.2723L189.803 21.6244C190.022 21.4048 190.424 21.4048 190.643 21.6244L200.313 31.2435L201.43 30.1266C201.599 29.9572 201.856 29.907 202.082 30.0011C202.302 30.089 202.446 30.3086 202.446 30.547L202.44 36.2507C202.44 36.577 202.176 36.8405 201.844 36.8405L196.115 36.8531ZM188.41 24.6927L198.073 34.2993C198.311 34.5314 198.311 34.9142 198.073 35.1401L197.552 35.6609H201.248L201.254 31.9839L200.733 32.4984C200.501 32.7306 200.125 32.7306 199.886 32.4984L190.223 22.8856" fill="white"/>
<path d="M186.5 37.0002H188.5V25.5002H192L192.5 37.0002H193.5L190 41.0002L186.5 37.0002Z" fill="#333347"/>
<path d="M190.198 41.3648C190.041 41.3648 189.891 41.3083 189.778 41.1891L185.718 37.167C185.548 36.9976 185.498 36.7403 185.586 36.5207C185.68 36.2948 185.9 36.1505 186.138 36.1505H187.726V25.1071C187.726 24.7808 187.989 24.511 188.322 24.511H192.08C192.407 24.511 192.677 24.7808 192.677 25.1071V36.1505H194.251C194.496 36.1505 194.716 36.2948 194.804 36.5207C194.898 36.7403 194.848 36.9976 194.678 37.167L190.618 41.1891C190.499 41.3083 190.349 41.3648 190.198 41.3648ZM187.581 37.3364L190.198 39.9341L192.815 37.3364H192.08C191.748 37.3364 191.484 37.0729 191.484 36.7466V25.7032H188.918V36.7466C188.918 37.0729 188.648 37.3364 188.322 37.3364" fill="white"/>
<path d="M192.501 22.0826L189.803 25.6843C189.345 26.2929 189.47 27.1588 190.085 27.6106C190.694 28.0686 191.566 27.9431 192.024 27.3345L193.706 25.0882C194.377 24.2097 195.13 23.8834 195.494 23.7893C196.303 23.576 198.738 22.6661 200.043 21.8818C201.342 21.0912 202.013 19.259 201.944 17.684L198.06 13.8188L189.815 16.3789C188.811 16.7177 188.447 17.2887 188.297 17.6276C188.146 17.9727 186.502 21.8379 186.502 21.8379C186.314 22.321 186.207 22.8983 186.483 23.3877C186.759 23.8772 187.387 24.856 187.387 24.856L189.2 23.0489C189.2 23.0489 189.131 22.0512 189.363 21.5367C189.602 21.0284 189.853 20.1814 190.392 19.9869C190.926 19.7986 191.861 19.4974 191.861 19.4974C191.861 19.4974 191.779 20.5641 191.967 21.1351C192.162 21.7061 192.457 22.0449 192.457 22.0449" fill="#333347"/>
<path d="M190.913 28.4827C190.487 28.4827 190.072 28.3447 189.727 28.0874C189.301 27.7737 189.025 27.3094 188.949 26.7886C188.88 26.2678 189.012 25.747 189.332 25.3266L191.76 22.0826C191.641 21.8881 191.509 21.6371 191.403 21.3233C191.309 21.0284 191.265 20.6582 191.252 20.3257C191.02 20.401 190.781 20.4825 190.593 20.5453C190.399 20.6143 190.167 21.1728 190.041 21.4677L189.909 21.7877C189.79 22.0387 189.771 22.6536 189.796 23.0112C189.809 23.1806 189.746 23.3501 189.627 23.4693L187.807 25.2764C187.682 25.4019 187.5 25.4646 187.324 25.4458C187.142 25.427 186.985 25.3266 186.885 25.176C186.885 25.176 186.245 24.1783 185.963 23.6826C185.643 23.1116 185.636 22.4151 185.95 21.6183C185.956 21.6057 187.6 17.7342 187.751 17.3954C188.071 16.6675 188.717 16.1216 189.621 15.8142L197.878 13.2541C198.091 13.1851 198.324 13.2416 198.481 13.3984L202.371 17.2699C202.477 17.3766 202.534 17.5146 202.54 17.6652C202.609 19.2653 201.95 21.4237 200.35 22.3838C198.995 23.2057 196.535 24.1281 195.644 24.3666C195.513 24.3979 194.822 24.6113 194.182 25.4458L192.501 27.6921C192.181 28.1125 191.723 28.3886 191.196 28.4639C191.102 28.4765 191.007 28.4827 190.913 28.4827ZM191.867 18.9076C191.999 18.9076 192.131 18.9515 192.231 19.0331C192.388 19.1586 192.476 19.3468 192.457 19.5476C192.432 19.9115 192.425 20.6143 192.538 20.9469C192.683 21.3924 192.909 21.6622 192.915 21.6622C193.147 21.863 193.166 22.1892 192.978 22.4402L190.286 26.0356C190.154 26.205 190.104 26.4121 190.135 26.6192C190.16 26.8262 190.273 27.0145 190.443 27.1337C190.612 27.2655 190.819 27.3094 191.026 27.2906C191.233 27.2592 191.422 27.1462 191.547 26.9831L193.229 24.7305C194.088 23.6136 195.061 23.2873 195.343 23.2183C196.058 23.0301 198.468 22.1391 199.729 21.3735C200.802 20.7272 201.342 19.2025 201.354 17.935L197.891 14.4965L189.991 16.9436C189.42 17.1381 189.025 17.4519 188.843 17.866C188.692 18.2111 187.054 22.07 187.054 22.07C186.885 22.503 186.866 22.8544 187.004 23.0928C187.123 23.3124 187.318 23.6262 187.494 23.9085L188.598 22.8167C188.592 22.4277 188.61 21.7563 188.824 21.292L188.943 21.0159C189.175 20.4512 189.501 19.6731 190.192 19.4284C190.731 19.2402 191.679 18.9327 191.679 18.9327C191.742 18.9139 191.804 18.9076 191.867 18.9076Z" fill="white"/>
<path d="M176.369 44.7H177.881C178.373 44.7 178.742 44.832 178.988 45.096C179.234 45.36 179.357 45.747 179.357 46.257V49.443C179.357 49.953 179.234 50.34 178.988 50.604C178.742 50.868 178.373 51 177.881 51H176.369V44.7ZM177.863 50.1C178.025 50.1 178.148 50.052 178.232 49.956C178.322 49.86 178.367 49.704 178.367 49.488V46.212C178.367 45.996 178.322 45.84 178.232 45.744C178.148 45.648 178.025 45.6 177.863 45.6H177.359V50.1H177.863ZM180.025 44.7H182.725V45.6H181.015V47.265H182.374V48.165H181.015V50.1H182.725V51H180.025V44.7ZM181.465 43.242H182.545L181.582 44.277H180.835L181.465 43.242ZM184.69 51.09C184.216 51.09 183.853 50.955 183.601 50.685C183.355 50.415 183.232 50.034 183.232 49.542V46.158C183.232 45.666 183.355 45.285 183.601 45.015C183.853 44.745 184.216 44.61 184.69 44.61C185.164 44.61 185.524 44.745 185.77 45.015C186.022 45.285 186.148 45.666 186.148 46.158V46.824H185.212V46.095C185.212 45.705 185.047 45.51 184.717 45.51C184.387 45.51 184.222 45.705 184.222 46.095V49.614C184.222 49.998 184.387 50.19 184.717 50.19C185.047 50.19 185.212 49.998 185.212 49.614V48.651H186.148V49.542C186.148 50.034 186.022 50.415 185.77 50.685C185.524 50.955 185.164 51.09 184.69 51.09ZM186.74 44.7H187.73V47.265H188.792V44.7H189.782V51H188.792V48.165H187.73V51H186.74V44.7ZM190.519 44.7H193.219V45.6H191.509V47.265H192.868V48.165H191.509V50.1H193.219V51H190.519V44.7ZM190.699 43.242H191.779L192.409 44.277H191.662L190.699 43.242ZM194.563 45.6H193.528V44.7H196.588V45.6H195.553V51H194.563V45.6ZM197.067 44.7H199.767V45.6H198.057V47.265H199.416V48.165H198.057V50.1H199.767V51H197.067V44.7ZM200.337 44.7H201.804C202.314 44.7 202.686 44.82 202.92 45.06C203.154 45.294 203.271 45.657 203.271 46.149V46.536C203.271 47.19 203.055 47.604 202.623 47.778V47.796C202.863 47.868 203.031 48.015 203.127 48.237C203.229 48.459 203.28 48.756 203.28 49.128V50.235C203.28 50.415 203.286 50.562 203.298 50.676C203.31 50.784 203.34 50.892 203.388 51H202.38C202.344 50.898 202.32 50.802 202.308 50.712C202.296 50.622 202.29 50.46 202.29 50.226V49.074C202.29 48.786 202.242 48.585 202.146 48.471C202.056 48.357 201.897 48.3 201.669 48.3H201.327V51H200.337V44.7ZM201.687 47.4C201.885 47.4 202.032 47.349 202.128 47.247C202.23 47.145 202.281 46.974 202.281 46.734V46.248C202.281 46.02 202.239 45.855 202.155 45.753C202.077 45.651 201.951 45.6 201.777 45.6H201.327V47.4H201.687ZM203.967 44.7H204.957V51H203.967V44.7ZM205.698 44.7H208.398V45.6H206.688V47.265H208.047V48.165H206.688V50.1H208.398V51H205.698V44.7Z" fill="white"/>
</g>
<defs>
<clipPath id="clip0_79_1169">
<rect width="222" height="61" fill="white"/>
</clipPath>
</defs>
</svg>
