<svg width="227" height="61" viewBox="0 0 227 61" fill="none" xmlns="http://www.w3.org/2000/svg">
<g clip-path="url(#clip0_26_18110)">
<path d="M24.8542 60.7916C11.2344 60.7916 0.15625 49.8385 0.15625 36.3801V0.317627H201.323C214.938 0.317627 226.016 11.2655 226.016 24.7239L226.021 60.7916" fill="white"/>
<path d="M201.323 5.98438H50.2708V36.3802C50.2708 46.7135 58.802 55.1198 69.2916 55.1198H220.349V24.724C220.349 14.3958 211.812 5.98438 201.323 5.98438Z" fill="white"/>
<path d="M218.458 53.2292H69.2916C59.8437 53.2292 52.1562 45.6719 52.1562 36.3802V7.875H201.323C210.771 7.875 218.458 15.4323 218.458 24.724V53.2292ZM201.323 5.98438H50.2708V36.3802C50.2708 46.7135 58.802 55.1198 69.2916 55.1198H220.349V24.724C220.349 14.3958 211.812 5.98438 201.323 5.98438Z" fill="#FCC42F"/>
<path d="M163.089 55.1198L176.099 28.5417L162.807 5.98438H201.323C211.812 5.98438 220.349 14.3906 220.349 24.724V55.1198" fill="#FCC42F"/>
<path d="M201.323 7.875H166.115L178.245 28.4583L166.12 53.2292H218.458V24.724C218.458 15.4323 210.771 7.875 201.323 7.875Z" fill="#FCC42F"/>
<path d="M206.281 41.6615H205.078C204.979 41.6615 204.885 41.6719 204.792 41.6875C205.354 35.4323 206.224 25.7708 206.646 21.3958C206.687 20.9531 206.359 20.5573 205.917 20.5156C205.464 20.4635 205.073 20.7969 205.031 21.2448C204.385 27.9635 202.677 47.1458 202.661 47.3385C202.63 47.6615 202.312 47.9271 201.943 47.9271H188.854C188.479 47.9271 188.167 47.6615 188.135 47.3385C188.12 47.1458 186.411 27.9635 185.766 21.2448C185.724 20.7969 185.333 20.4635 184.88 20.5156C184.437 20.5573 184.109 20.9531 184.151 21.3958C184.573 25.7708 185.443 35.4271 186.005 41.6875C185.911 41.6667 185.812 41.6562 185.719 41.6562H184.516C183.74 41.6562 183.104 42.2917 183.104 43.0677V48.1406C183.104 48.9167 183.74 49.5469 184.516 49.5469H185.719C186.297 49.5469 186.802 49.1927 187.016 48.6823C187.443 49.2135 188.104 49.5469 188.854 49.5469H201.943C202.687 49.5469 203.349 49.2135 203.781 48.6875C203.995 49.1927 204.495 49.5521 205.078 49.5521H206.281C207.057 49.5521 207.687 48.9219 207.687 48.1406V43.0677C207.687 42.2917 207.057 41.6615 206.281 41.6615Z" fill="#1C1C1B"/>
<path d="M190.344 25.1198V27.4115H191.016C191.411 27.4115 191.625 27.2292 191.625 26.6771V26.026C191.625 25.3333 191.401 25.1198 190.865 25.1198H190.344ZM190.344 22.0833V24.0521H190.802C191.24 24.0521 191.505 23.8646 191.505 23.2656V22.849C191.505 22.3125 191.323 22.0833 190.906 22.0833H190.344ZM192.677 22.7344V23C192.677 23.7656 192.443 24.2448 191.922 24.4896V24.5104C192.547 24.7604 192.797 25.3125 192.797 26.099V26.7083C192.797 27.8594 192.187 28.4792 191.016 28.4792H189.172V21.0156H190.938C192.156 21.0156 192.677 21.5833 192.677 22.7344Z" fill="#1C1C1B"/>
<path d="M194.833 26.1146H195.964L195.411 22.3385H195.385L194.833 26.1146ZM197.51 28.4792H196.328L196.125 27.125H194.688L194.479 28.4792H193.406L194.599 21.0156H196.313" fill="#1C1C1B"/>
<path d="M201.661 25.6926V26.6874C201.661 27.8801 201.062 28.5624 199.911 28.5624C198.76 28.5624 198.161 27.8801 198.161 26.6874V22.8072C198.161 21.6093 198.76 20.927 199.911 20.927C201.062 20.927 201.661 21.6093 201.661 22.8072V23.5312H200.552V22.7291C200.552 22.1978 200.318 21.9947 199.943 21.9947C199.573 21.9947 199.338 22.1978 199.338 22.7291V26.7603C199.338 27.2916 199.573 27.4843 199.943 27.4843C200.318 27.4843 200.552 27.2916 200.552 26.7603V25.6926" fill="#1C1C1B"/>
<path d="M192.703 31.2083V36.5365H193.365C193.734 36.5365 193.958 36.3438 193.958 35.8125V31.9323C193.958 31.401 193.734 31.2083 193.365 31.2083H192.703ZM191.531 30.1406H193.385C194.557 30.1406 195.13 30.7917 195.13 31.9844V35.7604C195.13 36.9531 194.557 37.6042 193.385 37.6042H191.531" fill="#1C1C1B"/>
<path d="M197.266 33.2865H198.875V34.349H197.266V36.5365H199.292V37.6042H196.094V30.1406H199.292V31.2031H197.266" fill="#1C1C1B"/>
<path d="M190.161 39.2656H193.786V40.3281H192.562V46.7292H191.385V40.3281H190.161" fill="#1C1C1B"/>
<path d="M195.688 40.3281V42.625H196.146C196.583 42.625 196.849 42.4323 196.849 41.8333V41.099C196.849 40.5677 196.667 40.3281 196.25 40.3281H195.688ZM196.969 46.7292C196.901 46.5365 196.859 46.4167 196.859 45.8125V44.6354C196.859 43.9479 196.625 43.6875 196.094 43.6875H195.688V46.7292H194.516V39.2656H196.286C197.5 39.2656 198.021 39.8281 198.021 40.9792V41.5677C198.021 42.3333 197.776 42.8229 197.255 43.0729V43.0938C197.839 43.3385 198.031 43.8906 198.031 44.6719V45.8229C198.031 46.1823 198.042 46.4531 198.161 46.7292" fill="#1C1C1B"/>
<path d="M199.016 46.7292H200.188V39.2656H199.016V46.7292Z" fill="#1C1C1B"/>
<path d="M207.125 17.6197H183.672V15.6666C183.672 15.5989 183.703 15.5676 183.698 15.5676H185.396C185.589 15.5676 185.771 15.4999 185.917 15.3697L188.047 13.5103C188.141 13.427 188.37 13.3437 188.661 13.3437H202.13C202.422 13.3437 202.656 13.427 202.75 13.5103L204.88 15.3697C205.026 15.4999 205.208 15.5676 205.401 15.5676H207.099C207.089 15.5676 207.125 15.5989 207.125 15.6666V17.6197ZM207.099 13.9791H205.698L203.792 12.3176C203.385 11.9583 202.781 11.7551 202.13 11.7551H188.661C188.016 11.7551 187.411 11.9583 187 12.3176L185.094 13.9791H183.698C182.807 13.9791 182.089 14.7395 182.089 15.6666V17.8124C182.089 18.1093 182.161 18.401 182.307 18.6614C182.37 18.7708 182.458 18.8697 182.562 18.9374C182.823 19.1093 183.12 19.1978 183.427 19.1978H207.37C207.677 19.1978 207.974 19.1093 208.234 18.9374C208.339 18.8697 208.427 18.7708 208.49 18.6614C208.63 18.401 208.708 18.1093 208.708 17.8124V15.6666C208.708 14.7395 207.984 13.9791 207.099 13.9791Z" fill="#1C1C1B"/>
<path d="M202.125 14.0781H188.667C188.297 14.0781 187.995 14.3802 187.995 14.75C187.995 15.1198 188.297 15.4219 188.667 15.4219H202.125C202.495 15.4219 202.797 15.1198 202.797 14.75C202.797 14.3802 202.495 14.0781 202.125 14.0781Z" fill="#1C1C1B"/>
<path d="M103.057 5.98438H50.2708V36.3802C50.2708 46.7135 58.802 55.1198 69.2916 55.1198H122.083V24.724C122.083 14.3958 113.547 5.98438 103.057 5.98438Z" fill="#FCC42F"/>
<path d="M63.8072 29.677C59.0051 29.677 55.1145 33.5676 55.1145 38.3697C55.1145 43.1718 59.0051 47.0624 63.8072 47.0624C68.6145 47.0624 72.5051 43.1718 72.5051 38.3697C72.5051 33.5676 68.6145 29.677 63.8072 29.677Z" fill="white"/>
<path d="M69.4792 39.7865H65.2292V44.0417H62.3906V39.7865H58.1406V36.9531H62.3906V32.7031H65.2292V36.9531H69.4792" fill="#1C1C1B"/>
<path d="M55.9426 26.9167V17.5156H58.427V24.8333H61.9843V26.9167" fill="#1C1C1B"/>
<path d="M63.0989 26.9167V17.5156H69.1718V19.599H65.5885V21.0729H68.651V23.1563H65.5885V24.8333H69.3176V26.9167" fill="#1C1C1B"/>
<path d="M75.2448 26.9167V19.599H72.7604V17.5156H80.2239V19.599H77.7343V26.9167" fill="#1C1C1B"/>
<path d="M83.7083 21.7969H84.6042C85.6042 21.7969 86.1094 21.3802 86.1094 20.5521C86.1094 20.1458 85.9792 19.8698 85.724 19.7135C85.4688 19.5573 85.0938 19.4792 84.6042 19.4792H83.7083V21.7969ZM81.2188 26.9167V17.5156H84.776C85.2813 17.5156 85.7604 17.5625 86.2188 17.6563C86.6771 17.7552 87.0729 17.9219 87.4167 18.151C87.7604 18.3802 88.0313 18.6927 88.2344 19.0833C88.4375 19.474 88.5365 19.9635 88.5365 20.5521C88.5365 21.2292 88.401 21.7865 88.125 22.2292C87.8542 22.6719 87.4844 23.0208 87.0208 23.2708L89.0573 26.9167H86.2813L84.6615 23.7604H83.7083V26.9167" fill="#1C1C1B"/>
<path d="M90.026 26.9167H92.5156V17.5156H90.026V26.9167Z" fill="#1C1C1B"/>
<path d="M75.5364 43.5937V34.1926H81.6666V36.276H78.026V38.0676H81.1458V40.151H78.026V43.5937" fill="#1C1C1B"/>
<path d="M85.0781 39.0208L84.9166 39.6718H86.651L86.4948 39.0208C86.3802 38.5676 86.2604 38.078 86.1458 37.5468C86.0312 37.0155 85.9166 36.5155 85.7968 36.0416H85.7395C85.6354 36.526 85.526 37.0312 85.4166 37.552C85.3073 38.078 85.1927 38.5676 85.0781 39.0208ZM81.4635 43.5937L84.3229 34.1926H87.3281L90.1927 43.5937H87.5625L87.0989 41.5989H84.4687L84.0052 43.5937" fill="#1C1C1B"/>
<path d="M94.7187 43.7656C94.1249 43.7656 93.552 43.6667 93.0103 43.4688C92.4635 43.2708 91.9895 42.974 91.578 42.5729C91.1666 42.1719 90.8385 41.6719 90.5989 41.0677C90.3593 40.4688 90.2395 39.7656 90.2395 38.9635C90.2395 38.1771 90.3645 37.474 90.6145 36.8594C90.8645 36.25 91.1978 35.7344 91.6197 35.3125C92.0364 34.8958 92.5208 34.5729 93.0676 34.349C93.6145 34.1302 94.1822 34.0156 94.7812 34.0156C95.4062 34.0156 95.9687 34.1406 96.4583 34.3854C96.953 34.6354 97.3645 34.9271 97.703 35.2604L96.401 36.8542C96.1718 36.651 95.9322 36.4844 95.6874 36.3542C95.4374 36.224 95.1562 36.1563 94.8385 36.1563C94.5572 36.1563 94.2968 36.2188 94.052 36.349C93.8072 36.474 93.5885 36.651 93.401 36.8802C93.2135 37.1146 93.0624 37.401 92.953 37.7344C92.8385 38.0729 92.7864 38.4531 92.7864 38.875C92.7864 39.7656 92.9687 40.4479 93.3437 40.9167C93.7135 41.3906 94.203 41.625 94.8072 41.625C95.177 41.625 95.4999 41.5469 95.7864 41.3854C96.0676 41.2292 96.3124 41.0365 96.5155 40.8177L97.8176 42.375C97.4114 42.8438 96.9478 43.1875 96.4218 43.4167C95.8958 43.651 95.328 43.7656 94.7187 43.7656Z" fill="#1C1C1B"/>
<path d="M98.776 43.5937H101.26V34.1926H98.776V43.5937Z" fill="#1C1C1B"/>
<path d="M103.031 43.5937V34.1926H105.521V41.5103H109.078V43.5937" fill="#1C1C1B"/>
<path d="M110.188 43.5937V34.1926H116.266V36.276H112.677V37.7499H115.745V39.8333H112.677V41.5103H116.411V43.5937" fill="#1C1C1B"/>
<path d="M28.5624 26.0625C26.8697 28.5521 28.3072 31.8281 30.052 33.4896C31.6458 35 32.9218 35.3594 33.0885 35.401L33.901 33.8438L36.2447 40.2552L29.6197 41.599L30.4999 39.9688L29.6041 39.4635C26.8124 37.6458 26.2239 35.1771 26.0312 34.4063C25.6978 33.0781 25.203 29.1094 28.5624 26.0625Z" fill="#1C1C1B"/>
<path d="M28.5312 26.1718C29.7344 28.927 33.2708 29.4635 35.6042 28.8697C37.6771 28.3437 38.6615 27.4895 38.8281 27.3333L38.8177 27.3176L37.9323 25.7864L44.599 27.2395L42.1875 33.5572L41.2917 31.9687L40.4219 32.4374C37.3958 33.828 34.9896 33.0103 34.2344 32.7603C32.9375 32.3333 29.3125 30.6353 28.5312 26.1718Z" fill="#1C1C1B"/>
<path d="M40.3177 19.5156C39.8541 22.8125 37.8698 24.3958 37.25 24.8958C36.1875 25.7552 32.802 27.8854 28.6198 26.1354C31.5937 26.6094 33.9531 23.9271 34.7135 21.6406C35.401 19.5885 35.1979 18.2917 35.1562 18.0885H35.1354L33.3698 18.0104L38.1823 13.1719L42.2083 18.6094L40.3906 18.5052" fill="#1C1C1B"/>
<path fill-rule="evenodd" clip-rule="evenodd" d="M20.0938 16.7291C18.5729 16.7291 17.3438 15.4999 17.3438 13.9791C17.3438 12.4583 18.5729 11.2239 20.0938 11.2239C21.6146 11.2239 22.849 12.4583 22.849 13.9791C22.849 15.4999 21.6146 16.7291 20.0938 16.7291Z" fill="#1C1C1B"/>
<path d="M15.8333 30.1146C16.0677 29.4688 16.4167 29.5104 16.4167 29.5104C16.4167 29.5104 16.7344 29.4427 16.9115 30.0938L19.4844 39.125C17.3385 38.5052 15.3802 37.4375 13.7135 36.0313L15.8333 30.1146ZM23.8594 5.98438C13.9167 5.98438 5.82812 14.0729 5.82812 24.0208C5.82812 33.9583 13.9167 42.0521 23.8594 42.0521C24.3906 42.0521 24.9115 42.0156 25.4323 41.9688L25.5521 43.7813L28.8542 40.5885L25.1615 37.776L25.3021 39.6771C24.8281 39.7188 24.3438 39.75 23.8594 39.75C23.0938 39.75 22.3438 39.6927 21.6094 39.5885L21.5365 39.1094L19.8229 24.5104C19.5885 21.7552 21.1615 21.3125 22.1354 21.7292L27.6042 23.9219C28.2292 24.1927 28.5313 23.6719 28.5313 23.6719C28.5313 23.6719 28.8854 23.1198 28.25 22.7135C28.25 22.7135 20.7969 17.776 19.2083 17.4792C17.0417 17.0729 14.8958 18.8281 14.4219 21.1146L11.776 34.0833C9.5 31.349 8.125 27.8438 8.125 24.0208C8.125 15.3438 15.1823 8.28646 23.8594 8.28646C28.4948 8.28646 32.6667 10.3021 35.5469 13.4948L37.1615 11.8594C33.8646 8.25 29.1198 5.98438 23.8594 5.98438Z" fill="#1C1C1B"/>
<path d="M139.662 39.662V39.788C139.662 39.888 139.67 39.98 139.686 40.064C139.702 40.144 139.732 40.212 139.776 40.268C139.82 40.324 139.878 40.368 139.95 40.4C140.026 40.432 140.12 40.448 140.232 40.448C140.364 40.448 140.482 40.406 140.586 40.322C140.694 40.234 140.748 40.1 140.748 39.92C140.748 39.824 140.734 39.742 140.706 39.674C140.682 39.602 140.64 39.538 140.58 39.482C140.52 39.426 140.44 39.376 140.34 39.332C140.244 39.284 140.124 39.236 139.98 39.188C139.788 39.124 139.622 39.054 139.482 38.978C139.342 38.902 139.224 38.814 139.128 38.714C139.036 38.61 138.968 38.492 138.924 38.36C138.88 38.224 138.858 38.068 138.858 37.892C138.858 37.468 138.976 37.152 139.212 36.944C139.448 36.736 139.772 36.632 140.184 36.632C140.376 36.632 140.552 36.654 140.712 36.698C140.876 36.738 141.016 36.806 141.132 36.902C141.252 36.994 141.344 37.114 141.408 37.262C141.476 37.406 141.51 37.58 141.51 37.784V37.904H140.682C140.682 37.7 140.646 37.544 140.574 37.436C140.502 37.324 140.382 37.268 140.214 37.268C140.118 37.268 140.038 37.282 139.974 37.31C139.91 37.338 139.858 37.376 139.818 37.424C139.782 37.468 139.756 37.52 139.74 37.58C139.728 37.64 139.722 37.702 139.722 37.766C139.722 37.898 139.75 38.01 139.806 38.102C139.862 38.19 139.982 38.272 140.166 38.348L140.832 38.636C140.996 38.708 141.13 38.784 141.234 38.864C141.338 38.94 141.42 39.024 141.48 39.116C141.544 39.204 141.588 39.302 141.612 39.41C141.636 39.518 141.648 39.638 141.648 39.77C141.648 40.222 141.516 40.552 141.252 40.76C140.992 40.964 140.628 41.066 140.16 41.066C139.672 41.066 139.322 40.96 139.11 40.748C138.902 40.536 138.798 40.232 138.798 39.836V39.662H139.662ZM143.865 39.386L143.451 37.46H143.439L143.025 39.386H143.865ZM143.979 36.716L145.113 41H144.213L144.015 40.094H142.875L142.677 41H141.777L142.911 36.716H143.979ZM147.241 38.162C147.241 37.85 147.203 37.624 147.127 37.484C147.055 37.34 146.921 37.268 146.725 37.268C146.617 37.268 146.527 37.298 146.455 37.358C146.387 37.414 146.333 37.508 146.293 37.64C146.253 37.768 146.225 37.938 146.209 38.15C146.193 38.358 146.185 38.614 146.185 38.918C146.185 39.242 146.195 39.504 146.215 39.704C146.239 39.904 146.273 40.06 146.317 40.172C146.365 40.28 146.423 40.354 146.491 40.394C146.563 40.43 146.645 40.448 146.737 40.448C146.813 40.448 146.883 40.436 146.947 40.412C147.015 40.384 147.073 40.332 147.121 40.256C147.169 40.176 147.207 40.066 147.235 39.926C147.263 39.782 147.277 39.594 147.277 39.362H148.141C148.141 39.594 148.123 39.814 148.087 40.022C148.051 40.23 147.983 40.412 147.883 40.568C147.787 40.724 147.649 40.846 147.469 40.934C147.293 41.022 147.063 41.066 146.779 41.066C146.455 41.066 146.197 41.014 146.005 40.91C145.813 40.806 145.665 40.656 145.561 40.46C145.461 40.264 145.395 40.03 145.363 39.758C145.335 39.486 145.321 39.186 145.321 38.858C145.321 38.534 145.335 38.236 145.363 37.964C145.395 37.688 145.461 37.452 145.561 37.256C145.665 37.06 145.813 36.908 146.005 36.8C146.197 36.688 146.455 36.632 146.779 36.632C147.087 36.632 147.329 36.682 147.505 36.782C147.685 36.882 147.819 37.01 147.907 37.166C147.995 37.318 148.049 37.484 148.069 37.664C148.093 37.84 148.105 38.006 148.105 38.162H147.241ZM131.557 45.654H131.941C132.113 45.654 132.251 45.602 132.355 45.498C132.463 45.394 132.517 45.232 132.517 45.012C132.517 44.796 132.471 44.632 132.379 44.52C132.287 44.408 132.133 44.352 131.917 44.352H131.557V45.654ZM130.693 43.716H132.205C132.425 43.716 132.609 43.754 132.757 43.83C132.909 43.902 133.031 43.998 133.123 44.118C133.215 44.238 133.281 44.376 133.321 44.532C133.361 44.684 133.381 44.84 133.381 45C133.381 45.22 133.347 45.412 133.279 45.576C133.215 45.74 133.123 45.874 133.003 45.978C132.887 46.082 132.745 46.16 132.577 46.212C132.409 46.264 132.223 46.29 132.019 46.29H131.557V48H130.693V43.716ZM133.804 48V43.716H134.668V47.292H136.198V48H133.804ZM138.369 46.386L137.955 44.46H137.943L137.529 46.386H138.369ZM138.483 43.716L139.617 48H138.717L138.519 47.094H137.379L137.181 48H136.281L137.415 43.716H138.483ZM140.611 46.662V46.788C140.611 46.888 140.619 46.98 140.635 47.064C140.651 47.144 140.681 47.212 140.725 47.268C140.769 47.324 140.827 47.368 140.899 47.4C140.975 47.432 141.069 47.448 141.181 47.448C141.313 47.448 141.431 47.406 141.535 47.322C141.643 47.234 141.697 47.1 141.697 46.92C141.697 46.824 141.683 46.742 141.655 46.674C141.631 46.602 141.589 46.538 141.529 46.482C141.469 46.426 141.389 46.376 141.289 46.332C141.193 46.284 141.073 46.236 140.929 46.188C140.737 46.124 140.571 46.054 140.431 45.978C140.291 45.902 140.173 45.814 140.077 45.714C139.985 45.61 139.917 45.492 139.873 45.36C139.829 45.224 139.807 45.068 139.807 44.892C139.807 44.468 139.925 44.152 140.161 43.944C140.397 43.736 140.721 43.632 141.133 43.632C141.325 43.632 141.501 43.654 141.661 43.698C141.825 43.738 141.965 43.806 142.081 43.902C142.201 43.994 142.293 44.114 142.357 44.262C142.425 44.406 142.459 44.58 142.459 44.784V44.904H141.631C141.631 44.7 141.595 44.544 141.523 44.436C141.451 44.324 141.331 44.268 141.163 44.268C141.067 44.268 140.987 44.282 140.923 44.31C140.859 44.338 140.807 44.376 140.767 44.424C140.731 44.468 140.705 44.52 140.689 44.58C140.677 44.64 140.671 44.702 140.671 44.766C140.671 44.898 140.699 45.01 140.755 45.102C140.811 45.19 140.931 45.272 141.115 45.348L141.781 45.636C141.945 45.708 142.079 45.784 142.183 45.864C142.287 45.94 142.369 46.024 142.429 46.116C142.493 46.204 142.537 46.302 142.561 46.41C142.585 46.518 142.597 46.638 142.597 46.77C142.597 47.222 142.465 47.552 142.201 47.76C141.941 47.964 141.577 48.066 141.109 48.066C140.621 48.066 140.271 47.96 140.059 47.748C139.851 47.536 139.747 47.232 139.747 46.836V46.662H140.611ZM145.535 43.716V44.424H144.599V48H143.735V44.424H142.799V43.716H145.535ZM145.951 48V43.716H146.815V48H145.951ZM148.23 45.858C148.23 46.146 148.236 46.392 148.248 46.596C148.264 46.796 148.292 46.96 148.332 47.088C148.376 47.212 148.436 47.304 148.512 47.364C148.592 47.42 148.696 47.448 148.824 47.448C148.952 47.448 149.054 47.42 149.13 47.364C149.21 47.304 149.27 47.212 149.31 47.088C149.354 46.96 149.382 46.796 149.394 46.596C149.41 46.392 149.418 46.146 149.418 45.858C149.418 45.57 149.41 45.326 149.394 45.126C149.382 44.926 149.354 44.762 149.31 44.634C149.27 44.506 149.21 44.414 149.13 44.358C149.054 44.298 148.952 44.268 148.824 44.268C148.696 44.268 148.592 44.298 148.512 44.358C148.436 44.414 148.376 44.506 148.332 44.634C148.292 44.762 148.264 44.926 148.248 45.126C148.236 45.326 148.23 45.57 148.23 45.858ZM149.904 48.51L149.394 48C149.234 48.044 149.044 48.066 148.824 48.066C148.5 48.066 148.242 48.014 148.05 47.91C147.858 47.806 147.71 47.656 147.606 47.46C147.506 47.264 147.44 47.03 147.408 46.758C147.38 46.486 147.366 46.186 147.366 45.858C147.366 45.534 147.38 45.236 147.408 44.964C147.44 44.688 147.506 44.452 147.606 44.256C147.71 44.06 147.858 43.908 148.05 43.8C148.242 43.688 148.5 43.632 148.824 43.632C149.148 43.632 149.406 43.688 149.598 43.8C149.79 43.908 149.936 44.06 150.036 44.256C150.14 44.452 150.206 44.688 150.234 44.964C150.266 45.236 150.282 45.534 150.282 45.858C150.282 46.222 150.262 46.552 150.222 46.848C150.182 47.144 150.092 47.394 149.952 47.598L150.414 48.048L149.904 48.51ZM151.6 43.716V46.704C151.6 46.812 151.606 46.912 151.618 47.004C151.634 47.092 151.66 47.17 151.696 47.238C151.736 47.302 151.788 47.354 151.852 47.394C151.92 47.43 152.004 47.448 152.104 47.448C152.208 47.448 152.292 47.43 152.356 47.394C152.42 47.354 152.47 47.302 152.506 47.238C152.546 47.17 152.572 47.092 152.584 47.004C152.6 46.912 152.608 46.812 152.608 46.704V43.716H153.472V46.704C153.472 46.976 153.434 47.202 153.358 47.382C153.282 47.558 153.18 47.698 153.052 47.802C152.924 47.906 152.778 47.976 152.614 48.012C152.45 48.048 152.28 48.066 152.104 48.066C151.928 48.066 151.758 48.05 151.594 48.018C151.43 47.986 151.284 47.922 151.156 47.826C151.028 47.726 150.926 47.586 150.85 47.406C150.774 47.226 150.736 46.992 150.736 46.704V43.716H151.6ZM156.413 43.716V44.424H154.883V45.432H156.323V46.14H154.883V47.292H156.473V48H154.019V43.716H156.413Z" fill="#1C1C1B"/>
<path d="M148.368 32.4365C148.276 31.9953 148.108 31.2908 147.814 30.3708C147.886 29.2217 147.889 28.2846 147.893 27.3749C147.896 26.0514 147.899 24.8065 148.125 23.0623C148.142 22.9187 148.04 22.7853 147.893 22.7648C147.752 22.7477 147.616 22.8503 147.598 22.9973C147.369 24.7723 147.366 26.0343 147.363 27.3749C147.359 27.9016 147.359 28.4351 147.345 29.0165C147.164 28.5411 146.959 28.0281 146.72 27.4775C145.847 25.4802 145.936 22.6724 146.367 19.9843C146.371 19.9912 146.371 19.9946 146.374 19.9946C146.569 20.3092 146.962 20.682 147.715 20.6854C147.811 20.6854 147.91 20.6786 148.016 20.6649C149.134 20.5315 149.661 19.9399 149.904 19.4679C150.211 18.866 150.252 18.1067 150.153 17.3201C150.69 19.0814 151.179 21.2805 151.446 23.9242C152.092 30.3332 149.449 32.0193 148.368 32.4365ZM147.157 12.1491C147.174 12.1047 147.192 12.0568 147.205 12.0192L147.506 12.0568C147.455 12.2038 147.39 12.3817 147.321 12.58L147.304 12.6279C146.894 13.8044 146.265 15.7777 145.786 18.0144L145.772 18.076C145.075 21.366 144.709 25.193 145.868 27.8503C146.826 30.0391 147.256 31.6944 147.431 32.5118L136.997 31.691C136.976 31.691 136.952 31.691 136.928 31.691C136.925 31.691 136.367 31.6978 135.813 31.1438C135.116 30.4461 134.336 28.8079 134.582 24.9843C134.893 20.169 137.797 12.6792 138.474 10.9863L138.864 11.0581C138.819 11.1984 138.768 11.3625 138.71 11.5404C138.693 11.513 138.686 11.4993 138.686 11.4993C138.686 11.4993 138.125 12.6519 137.366 14.8748C136.959 16.0684 136.846 17.1765 137.451 17.8058C137.458 17.8195 137.465 17.8331 137.472 17.8468C137.657 18.1854 137.92 18.4658 138.258 18.6847C138.276 18.695 138.289 18.7018 138.306 18.7121C138.611 18.9002 138.966 19.0507 139.391 19.143C141.504 19.6184 143.125 19.3448 144.158 18.3701C144.192 18.3496 144.22 18.3222 144.247 18.2914C144.326 18.2128 144.397 18.1307 144.466 18.0418L144.497 18.0007C144.582 17.8913 144.671 17.7887 144.746 17.669C145.546 16.3557 146.692 13.3872 147.144 12.1833L147.157 12.1491ZM139.637 17.5972C139.541 17.7271 139.363 17.8947 138.932 17.8776C138.85 17.8742 138.775 17.8639 138.7 17.8537C138.652 17.8195 138.604 17.7818 138.563 17.7408L138.86 14.0506C138.939 13.8181 139.018 13.5821 139.096 13.3461C139.247 13.6915 139.401 14.0711 139.544 14.485C139.921 15.5896 140.075 17.0123 139.637 17.5972ZM141.018 15.511C141.453 16.7798 141.843 17.8913 142.588 18.2504C141.849 18.4966 140.991 18.4761 140.201 18.353C140.269 18.288 140.328 18.2196 140.379 18.1546C141.087 17.2073 140.865 15.4836 140.42 14.184C140.126 13.3187 139.78 12.58 139.517 12.0602C139.531 12.026 139.541 11.9884 139.551 11.9542C139.941 12.7921 140.468 13.9583 140.779 14.8235C140.861 15.0493 140.94 15.2818 141.018 15.511ZM146.99 18.4214C148.443 18.1273 148.768 17.3578 148.772 16.7353C148.775 16.2565 148.689 15.6614 148.536 14.9774C149.09 16.3591 149.565 18.0965 149.076 19.0438C148.871 19.4474 148.488 19.6731 147.906 19.7415C147.841 19.7518 147.776 19.7552 147.715 19.7552C147.363 19.7552 147.233 19.6184 147.157 19.4987C147.003 19.2593 146.962 18.8797 146.99 18.4214ZM147.845 16.7285C147.841 16.8619 147.841 17.2107 147.133 17.433C147.263 16.8174 147.465 16.1402 147.698 15.4802C147.793 15.9658 147.845 16.3899 147.845 16.7285ZM152.369 23.8318C151.535 15.5623 148.642 11.5677 148.522 11.4001C148.518 11.3967 148.518 11.3967 148.518 11.3967C148.515 11.3933 148.512 11.3899 148.508 11.3865C148.477 11.3488 148.44 11.3181 148.399 11.2907C148.389 11.2839 148.375 11.277 148.365 11.2702C148.313 11.2428 148.265 11.2223 148.211 11.2155L146.962 11.0479C146.743 11.0205 146.538 11.1436 146.463 11.3488C146.449 11.3933 144.9 15.6341 143.953 17.1833C143.881 17.303 143.799 17.4091 143.713 17.5082L143.488 17.4843C143.32 17.4672 143.18 17.4535 143.084 17.4467C142.653 17.4125 142.233 16.1915 141.897 15.21C141.815 14.9774 141.737 14.7415 141.651 14.5089C141.094 12.9631 139.931 10.593 139.883 10.4904C139.88 10.487 139.873 10.4836 139.869 10.4767C139.866 10.4699 139.866 10.4631 139.862 10.4562C139.852 10.4391 139.832 10.4289 139.821 10.4118C139.797 10.381 139.774 10.3536 139.746 10.3331C139.726 10.316 139.702 10.3057 139.681 10.2921C139.647 10.275 139.616 10.2613 139.579 10.2544C139.568 10.251 139.558 10.2408 139.548 10.2408L138.269 10.0082C138.053 9.96716 137.841 10.0834 137.759 10.2852C137.605 10.6546 134.018 19.3414 133.655 24.9228C133.44 28.2744 133.942 30.5863 135.16 31.8004C135.943 32.5836 136.73 32.628 136.949 32.6212L147.964 33.4865C147.975 33.4865 147.988 33.4865 148.002 33.4865C148.023 33.4865 148.047 33.4865 148.07 33.483C148.282 33.4488 153.255 32.5973 152.369 23.8318Z" fill="#1C1C1B"/>
</g>
<defs>
<clipPath id="clip0_26_18110">
<rect width="227" height="61" fill="white"/>
</clipPath>
</defs>
</svg>
