<svg width="372" height="57" viewBox="0 0 372 57" fill="none" xmlns="http://www.w3.org/2000/svg">
<g clip-path="url(#clip0_22_2453)">
<path d="M353.984 4.36979H69.7239C69.0989 1.19792 65.6198 0 61.3854 0C57.125 0 53.6302 1.00521 53.0364 4.36979H43.1823V38.1042C43.1823 48.2656 51.25 56.5312 61.1666 56.5312H371.969V22.7917C371.969 12.6354 363.901 4.36979 353.984 4.36979ZM119.479 54.4688H61.1666C52.3906 54.4688 45.2552 47.1302 45.2552 38.1042V6.42708H53.0416C53.6562 9.66146 57.1354 10.7969 61.3854 10.7969C65.6302 10.7969 69.1093 9.66146 69.7239 6.42708H119.927L133.115 31.0677" fill="#EC6A5D"/>
<path d="M58.5989 6.15623V8.11456H57.5729V3.11456H60.1614C60.6041 3.11456 60.6718 3.27081 60.6718 3.54685V3.98956H58.5989V5.28123H60.5052V5.79685C60.5052 6.02602 60.4062 6.15623 60.1302 6.15623" fill="white"/>
<path d="M63.3958 3.11456C64.7448 3.11456 65.3698 3.63019 65.3698 4.80206C65.3698 5.59373 64.9167 6.04685 64.4062 6.31248L65.4271 8.11456H64.6615C64.3646 8.11456 64.2031 8.02081 64.0625 7.7656L63.4219 6.5156H62.7135V8.11456H61.6875V3.7604C61.6875 3.35415 61.9167 3.11456 62.3385 3.11456H63.3958ZM62.7135 5.68227H63.3385C64.0312 5.68227 64.3021 5.34894 64.3021 4.80206C64.3021 4.21352 64.0365 3.98956 63.3542 3.98956H62.7135" fill="white"/>
<path d="M189.724 29.6615C188.255 29.6615 187.422 29.0781 187.422 26.8177C187.422 24.5365 188.255 23.9531 189.724 23.9531C191.188 23.9531 192.01 24.5365 192.01 26.8177C192.01 29.0781 191.188 29.6615 189.724 29.6615ZM189.724 24.4792C188.641 24.4792 188.062 24.849 188.062 26.8177C188.062 28.7708 188.641 29.1302 189.724 29.1302C190.792 29.1302 191.37 28.7708 191.37 26.8177C191.37 24.849 190.792 24.4792 189.724 24.4792Z" fill="white"/>
<path d="M193.234 27.6354V24.0573H193.557C193.766 24.0573 193.849 24.1563 193.849 24.4011V27.625C193.849 28.4688 194.219 29.1302 195.354 29.1302C196.495 29.1302 196.854 28.4688 196.854 27.625V24.4011C196.854 24.1563 196.943 24.0573 197.151 24.0573H197.469V27.6354C197.469 28.8021 196.891 29.6615 195.354 29.6615C193.818 29.6615 193.234 28.8021 193.234 27.6354Z" fill="white"/>
<path d="M255.948 29.6615C254.474 29.6615 253.646 29.0781 253.646 26.8177C253.646 24.5365 254.474 23.9531 255.948 23.9531C257.411 23.9531 258.234 24.5365 258.234 26.8177C258.234 29.0781 257.411 29.6615 255.948 29.6615ZM255.948 24.4792C254.865 24.4792 254.286 24.849 254.286 26.8177C254.286 28.7708 254.865 29.1302 255.948 29.1302C257.016 29.1302 257.589 28.7708 257.589 26.8177C257.589 24.849 257.016 24.4792 255.948 24.4792Z" fill="white"/>
<path d="M259.458 27.6354V24.0573H259.781C259.99 24.0573 260.073 24.1563 260.073 24.4011V27.625C260.073 28.4688 260.443 29.1302 261.578 29.1302C262.714 29.1302 263.078 28.4688 263.078 27.625V24.4011C263.078 24.1563 263.167 24.0573 263.375 24.0573H263.693V27.6354C263.693 28.8021 263.115 29.6615 261.578 29.6615C260.042 29.6615 259.458 28.8021 259.458 27.6354Z" fill="white"/>
<path d="M307.932 29.6615C306.458 29.6615 305.63 29.0781 305.63 26.8177C305.63 24.5365 306.458 23.9531 307.932 23.9531C309.396 23.9531 310.219 24.5365 310.219 26.8177C310.219 29.0781 309.396 29.6615 307.932 29.6615ZM307.932 24.4792C306.849 24.4792 306.271 24.849 306.271 26.8177C306.271 28.7708 306.849 29.1302 307.932 29.1302C309 29.1302 309.573 28.7708 309.573 26.8177C309.573 24.849 309 24.4792 307.932 24.4792Z" fill="white"/>
<path d="M311.443 27.6354V24.0573H311.766C311.974 24.0573 312.057 24.1563 312.057 24.4011V27.625C312.057 28.4688 312.422 29.1302 313.563 29.1302C314.698 29.1302 315.063 28.4688 315.063 27.625V24.4011C315.063 24.1563 315.151 24.0573 315.359 24.0573H315.677V27.6354C315.677 28.8021 315.094 29.6615 313.563 29.6615C312.026 29.6615 311.443 28.8021 311.443 27.6354Z" fill="white"/>
<path d="M22.0209 32.25C20.448 34.5469 21.7865 37.5729 23.4063 39.1042C24.8855 40.5 26.073 40.8281 26.224 40.8698L26.9792 39.4323L29.1563 45.349L23.0053 46.5938L23.823 45.0885L22.9896 44.6198C20.3959 42.9479 19.849 40.6615 19.6719 39.9531C19.3646 38.724 18.9011 35.0573 22.0209 32.25Z" fill="#EC6A5D"/>
<path d="M21.9948 32.3489C23.1093 34.8958 26.3958 35.3854 28.5625 34.8385C30.4843 34.3541 31.401 33.5625 31.552 33.4219L31.5468 33.4062L30.7239 31.9896L36.9166 33.3385L34.6718 39.1666L33.8437 37.6979L33.0364 38.1354C30.2239 39.4219 27.9895 38.6614 27.2916 38.4375C26.0833 38.0416 22.7187 36.4687 21.9948 32.3489Z" fill="#EC6A5D"/>
<path d="M32.9375 26.1979C32.5104 29.2448 30.6615 30.7031 30.0885 31.1667C29.1042 31.9635 25.9583 33.9323 22.0781 32.3125C24.8385 32.7552 27.026 30.2708 27.7344 28.1615C28.3698 26.2708 28.1875 25.0729 28.151 24.8854L28.1302 24.8802L26.4844 24.8125L30.9531 20.3438L34.6927 25.3646L33.0104 25.2656" fill="#EC6A5D"/>
<path d="M14.1614 23.6302C12.75 23.6302 11.6041 22.4896 11.6041 21.0886C11.6041 19.6823 12.75 18.5417 14.1614 18.5417C15.5729 18.5417 16.7187 19.6823 16.7187 21.0886C16.7187 22.4896 15.5729 23.6302 14.1614 23.6302Z" fill="#EC6A5D"/>
<path d="M17.6562 13.7083C8.42704 13.7083 0.916626 21.1771 0.916626 30.3594C0.916626 39.5416 8.42704 47.0104 17.6562 47.0104C18.151 47.0104 18.6354 46.9791 19.1198 46.9375L19.2291 48.6094L22.2916 45.6614L18.8645 43.0625L18.9948 44.8177C18.552 44.8594 18.1093 44.8854 17.6562 44.8854C16.9479 44.8854 16.25 44.8333 15.5677 44.7396L15.5 44.2969L13.9114 30.8125C13.6927 28.2708 15.151 27.8646 16.052 28.2448L21.1302 30.2708C21.7135 30.5208 21.9948 30.0364 21.9948 30.0364C21.9948 30.0364 22.3177 29.5312 21.7343 29.1562C21.7343 29.1562 14.8125 24.5989 13.3385 24.3229C11.3281 23.9479 9.33329 25.5677 8.89058 27.6823L6.43746 39.651C4.32288 37.1302 3.04683 33.8906 3.04683 30.3594C3.04683 22.3489 9.59892 15.8281 17.6562 15.8281C21.9583 15.8281 25.8333 17.6927 28.5052 20.6458L30.0052 19.1302C26.9427 15.8021 22.5416 13.7083 17.6562 13.7083ZM10.2031 35.9896C10.4218 35.3906 10.75 35.4323 10.75 35.4323C10.75 35.4323 11.0416 35.3698 11.2031 35.9687L13.5937 44.3125C11.5989 43.7396 9.78121 42.75 8.23954 41.4531" fill="#EC6A5D"/>
<path d="M58.4062 24.6667C57.5468 24.6667 57.1666 24.224 57.1666 23.4167V15.3386H60.5677C63.2656 15.3386 64.8333 16.7084 64.8333 19.8802C64.8333 22.8229 63.7916 24.6667 60.2291 24.6667H58.4062ZM59.0989 23.0521H60.2448C62.1614 23.0521 62.8541 22.1094 62.8541 19.9115C62.8541 17.5625 62.0104 16.9688 60.5364 16.9688H59.0989" fill="#EC6A5D"/>
<path d="M70.276 24.8542C67.5156 24.8542 66.1094 23.5417 66.1094 20.0208C66.1094 16.4792 67.5156 15.1562 70.276 15.1562C73.0208 15.1562 74.4323 16.4792 74.4323 20.0208C74.4323 23.5417 73.0208 24.8542 70.276 24.8542ZM70.276 16.8021C68.8177 16.8021 68.099 17.2708 68.099 20.0208C68.099 22.75 68.8177 23.2083 70.276 23.2083C71.7031 23.2083 72.4427 22.75 72.4427 20.0208C72.4427 17.2708 71.7031 16.8021 70.276 16.8021Z" fill="#EC6A5D"/>
<path d="M78.1615 24.6666H76.2448V16.375C76.2448 14.9375 77.7917 14.9114 78.3125 15.6875L82.0886 21.3437V16.1927C82.0886 15.5937 82.2865 15.3385 82.9011 15.3385H84.0052V23.526C84.0052 25.0521 82.349 25.1719 81.7188 24.2708L78.1615 18.9687" fill="#EC6A5D"/>
<path d="M88.3438 24.6666H86.4271V16.375C86.4271 14.9375 87.9792 14.9114 88.5 15.6875L92.2709 21.3437V16.1927C92.2709 15.5937 92.4688 15.3385 93.0834 15.3385H94.1875V23.526C94.1875 25.0521 92.5313 25.1719 91.9011 24.2708L88.3438 18.9687" fill="#EC6A5D"/>
<path d="M101.411 15.3333C102.24 15.3333 102.344 15.625 102.344 16.1458V16.9687H98.4219V19.2083H102.026V20.0625C102.026 20.4896 101.854 20.7344 101.318 20.7344H98.4219V23.0521H102.516V23.9219C102.516 24.4687 102.193 24.6666 101.563 24.6666H96.5052V15.3333" fill="#EC6A5D"/>
<path d="M111 15.3333V16.0521C111 16.5729 110.875 16.9687 110.458 17.5L106.182 23.0521H111.135V23.6302C111.135 24.2135 110.891 24.6666 110.172 24.6666H103.823V24.0885C103.823 23.4635 103.927 23.0677 104.328 22.5469L108.635 16.9687H103.958V16.4062C103.958 15.75 104.375 15.3333 105.172 15.3333" fill="#EC6A5D"/>
<path d="M81.4896 34.5938C79.8855 34.5938 78.974 33.9531 78.974 31.4844C78.974 28.9948 79.8855 28.3594 81.4896 28.3594C83.0834 28.3594 83.9792 28.9948 83.9792 31.4844C83.9792 33.9531 83.0834 34.5938 81.4896 34.5938ZM81.4896 28.9375C80.3073 28.9375 79.6771 29.3385 79.6771 31.4844C79.6771 33.625 80.3073 34.0156 81.4896 34.0156C82.6511 34.0156 83.2813 33.625 83.2813 31.4844C83.2813 29.3385 82.6511 28.9375 81.4896 28.9375Z" fill="#EC6A5D"/>
<path d="M85.3125 32.375V28.4739H85.6719C85.8958 28.4739 85.9844 28.5833 85.9844 28.8489V32.3698C85.9844 33.2864 86.3906 34.0156 87.6302 34.0156C88.8698 34.0156 89.2656 33.2864 89.2656 32.3698V28.8489C89.2656 28.5833 89.3646 28.4739 89.5938 28.4739H89.9375V32.375C89.9375 33.651 89.3073 34.5937 87.6302 34.5937C85.9583 34.5937 85.3125 33.651 85.3125 32.375Z" fill="#EC6A5D"/>
<path d="M58.1198 38.2188C60.6354 38.2188 61.802 39.1771 61.802 41.3594C61.802 42.8385 60.9583 43.6927 60.0104 44.1771L61.9062 47.5469H60.4843C59.9323 47.5469 59.625 47.3698 59.3645 46.8958L58.1666 44.5625H56.8489V47.5469H54.9323V39.4219C54.9323 38.6615 55.3593 38.2188 56.1458 38.2188H58.1198ZM56.8489 43.0052H58.0156C59.302 43.0052 59.8073 42.3802 59.8073 41.3594C59.8073 40.2604 59.3177 39.849 58.0468 39.849H56.8489" fill="#EC6A5D"/>
<path d="M68.5677 38.2188C69.3959 38.2188 69.5 38.5052 69.5 39.026V39.849H65.573V42.0885H69.1771V42.9427C69.1771 43.3698 69.0105 43.6146 68.474 43.6146H65.573V45.9323H69.6719V46.8021C69.6719 47.3542 69.349 47.5469 68.7188 47.5469H63.6615V38.2188" fill="#EC6A5D"/>
<path d="M77.4635 40.0312C76.9427 39.8646 76.1562 39.6823 75.1145 39.6823C73.6145 39.6823 72.7552 40.3854 72.7552 42.8541C72.7552 45.3229 73.6406 46.0885 75.2968 46.0885C76.3698 46.0885 77.0468 45.8906 77.5677 45.7187V46.7083C77.5677 47.4896 76.4166 47.7291 75.0573 47.7291C72.4635 47.7291 70.776 46.3906 70.776 42.8541C70.776 39.2708 72.3698 38.0364 75.2083 38.0364C76.5729 38.0364 77.4635 38.3229 77.4635 39.1771" fill="#EC6A5D"/>
<path d="M79.6719 38.2188C80.1927 38.2188 80.5156 38.4167 80.7136 38.8125L82.4948 42.3333L84.1511 38.8125C84.3334 38.401 84.5938 38.2188 85.099 38.2188H86.3125L83.3229 44.0417V47.5469H81.4063V44.0417L78.3542 38.2188" fill="#EC6A5D"/>
<path d="M93.8594 40.0312C93.3385 39.8646 92.5521 39.6823 91.5104 39.6823C90.0104 39.6823 89.151 40.3854 89.151 42.8541C89.151 45.3229 90.0365 46.0885 91.6927 46.0885C92.7708 46.0885 93.4427 45.8906 93.9635 45.7187V46.7083C93.9635 47.4896 92.8125 47.7291 91.4531 47.7291C88.8594 47.7291 87.1719 46.3906 87.1719 42.8541C87.1719 39.2708 88.7656 38.0364 91.6042 38.0364C92.9687 38.0364 93.8594 38.3229 93.8594 39.1771" fill="#EC6A5D"/>
<path d="M101.401 45.9323V46.7708C101.401 47.3229 101.036 47.5521 100.375 47.5521H96.9584C96.099 47.5521 95.6979 47.1094 95.6979 46.2708V38.2188H97.6146V45.9323" fill="#EC6A5D"/>
<path d="M107.615 38.2188C108.443 38.2188 108.552 38.5052 108.552 39.026V39.849H104.625V42.0885H108.229V42.9427C108.229 43.3698 108.063 43.6146 107.526 43.6146H104.625V45.9323H108.719V46.8021C108.719 47.3542 108.396 47.5469 107.771 47.5469H102.708V38.2188" fill="#EC6A5D"/>
<path d="M117.203 38.2188V38.9323C117.203 39.4531 117.078 39.849 116.667 40.3854L112.385 45.9323H117.339V46.5156C117.339 47.0937 117.094 47.5469 116.375 47.5469H110.026V46.9688C110.026 46.3438 110.135 45.9479 110.531 45.4271L114.839 39.849H110.167V39.2865C110.167 38.6302 110.578 38.2188 111.375 38.2188" fill="#EC6A5D"/>
<path d="M317.844 47.5417C317.339 47.5417 317.109 47.2812 317.109 46.8073V42.0469H319.115C320.703 42.0469 321.625 42.8542 321.625 44.724C321.625 46.4583 321.01 47.5417 318.917 47.5417H317.844ZM318.25 46.5938H318.927C320.052 46.5938 320.458 46.0365 320.458 44.7448C320.458 43.3594 319.964 43.0104 319.094 43.0104H318.25" fill="white"/>
<path d="M325.521 42.0469C326.01 42.0469 326.073 42.2187 326.073 42.526V43.0104H323.76V44.3281H325.885V44.8333C325.885 45.0833 325.781 45.2239 325.469 45.2239H323.76V46.5937H326.172V47.1041C326.172 47.4271 325.979 47.5416 325.615 47.5416H322.63V42.0469H325.521ZM325.604 39.9739L324.844 40.9896C324.672 41.2031 324.438 41.3125 324.12 41.3125H323.745L324.438 39.9739" fill="white"/>
<path d="M330.76 43.1146C330.458 43.0208 329.995 42.9115 329.38 42.9115C328.495 42.9115 327.99 43.3229 327.99 44.776C327.99 46.2344 328.516 46.6823 329.49 46.6823C330.125 46.6823 330.521 46.5625 330.828 46.4688V47.0521C330.828 47.5052 330.151 47.651 329.344 47.651C327.818 47.651 326.828 46.8594 326.828 44.776C326.828 42.6667 327.766 41.9375 329.438 41.9375C330.24 41.9375 330.76 42.1094 330.76 42.6146" fill="white"/>
<path d="M332.516 42.0469C332.891 42.0469 332.979 42.2031 332.979 42.5521V44.3125H335.37V42.5521C335.37 42.2031 335.49 42.0469 335.849 42.0469H336.5V47.5417H335.37V45.2604H332.979V47.5417H331.849V42.0469" fill="white"/>
<path d="M340.766 42.0469C341.255 42.0469 341.318 42.2187 341.318 42.526V43.0104H339.005V44.3281H341.13V44.8333C341.13 45.0833 341.031 45.2239 340.714 45.2239H339.005V46.5937H341.417V47.1041C341.417 47.4271 341.229 47.5416 340.859 47.5416H337.875V42.0469H340.766ZM339.521 39.9739L340.219 41.3125H339.849C339.573 41.3125 339.339 41.2396 339.198 41.0625L338.349 39.9739" fill="white"/>
<path d="M346.495 42.0469V42.4688C346.495 42.8177 346.323 43.0469 345.927 43.0469H344.76V47.5417H343.635V43.0469H341.911V42.6667C341.911 42.2708 342.089 42.0469 342.557 42.0469" fill="white"/>
<path d="M350.104 42.0469C350.589 42.0469 350.651 42.2187 350.651 42.526V43.0104H348.344V44.3281H350.464V44.8333C350.464 45.0833 350.365 45.224 350.052 45.224H348.344V46.5938H350.755V47.1042C350.755 47.4271 350.563 47.5417 350.193 47.5417H347.214V42.0469" fill="white"/>
<path d="M353.771 42.0469C355.255 42.0469 355.938 42.6146 355.938 43.8958C355.938 44.7708 355.443 45.2708 354.885 45.5573L356.005 47.5417H355.161C354.839 47.5417 354.656 47.4375 354.505 47.1562L353.797 45.7812H353.021V47.5417H351.896V42.7552C351.896 42.3073 352.146 42.0469 352.609 42.0469H353.771ZM353.021 44.8698H353.708C354.469 44.8698 354.766 44.5 354.766 43.8958C354.766 43.25 354.474 43.0104 353.729 43.0104H353.021" fill="white"/>
<path d="M357.109 47.5417H358.24V42.0469H357.109V47.5417Z" fill="white"/>
<path d="M362.495 42.0469C362.979 42.0469 363.042 42.2187 363.042 42.526V43.0104H360.729V44.3281H362.854V44.8333C362.854 45.0833 362.755 45.224 362.438 45.224H360.729V46.5938H363.141V47.1042C363.141 47.4271 362.953 47.5417 362.583 47.5417H359.604V42.0469" fill="white"/>
<path d="M343.13 21.474L343.203 23.7396C343.224 24.2969 343.688 24.724 344.245 24.7083C344.797 24.6927 345.234 24.2292 345.219 23.6771L345.104 20.6562" fill="#EC6A5D"/>
<path d="M344.208 25.2031C343.828 25.2031 343.464 25.0573 343.182 24.7969C342.891 24.526 342.724 24.1562 342.708 23.7552L342.635 21.4896L343.625 21.4583L343.698 23.724C343.703 23.8594 343.76 23.9844 343.859 24.0781C343.958 24.1719 344.099 24.2083 344.229 24.2188C344.365 24.2135 344.49 24.1562 344.583 24.0573C344.677 23.9583 344.724 23.8281 344.719 23.6927L344.609 20.6719L345.599 20.6406L345.708 23.6562C345.724 24.0573 345.583 24.4375 345.307 24.7292C345.031 25.0208 344.661 25.1875 344.26 25.1979C344.24 25.2031 344.224 25.2031 344.208 25.2031Z" fill="white"/>
<path d="M343.13 21.474L343.203 23.7396C343.224 24.2969 343.688 24.724 344.245 24.7083C344.797 24.6927 345.234 24.2292 345.219 23.6771L345.104 20.6562" fill="#EC6A5D"/>
<path d="M344.208 25.2031C343.828 25.2031 343.464 25.0573 343.182 24.7969C342.891 24.526 342.724 24.1562 342.708 23.7552L342.635 21.4896L343.625 21.4583L343.698 23.724C343.703 23.8594 343.76 23.9844 343.859 24.0781C343.958 24.1719 344.099 24.2083 344.229 24.2188C344.365 24.2135 344.49 24.1562 344.583 24.0573C344.677 23.9583 344.724 23.8281 344.719 23.6927L344.609 20.6719L345.599 20.6406L345.708 23.6562C345.724 24.0573 345.583 24.4375 345.307 24.7292C345.031 25.0208 344.661 25.1875 344.26 25.1979C344.24 25.2031 344.224 25.2031 344.208 25.2031Z" fill="white"/>
<path d="M341.13 21.8125L341.203 24.0834C341.224 24.6354 341.688 25.0677 342.24 25.0469C342.797 25.0313 343.234 24.5729 343.214 24.0156L343.104 20.9948" fill="#EC6A5D"/>
<path d="M342.208 25.5417C341.823 25.5417 341.464 25.4011 341.182 25.1406C340.891 24.8646 340.719 24.4948 340.708 24.0938L340.635 21.8281L341.625 21.7969L341.698 24.0625C341.703 24.2031 341.76 24.3281 341.859 24.4219C341.958 24.5156 342.089 24.5729 342.224 24.5573C342.505 24.5469 342.729 24.3125 342.719 24.0313L342.609 21.0156L343.599 20.9792L343.708 23.9948C343.74 24.8229 343.089 25.5104 342.26 25.5417C342.24 25.5417 342.224 25.5417 342.208 25.5417Z" fill="white"/>
<path d="M347.396 28.3854L339.021 20.0573L336.818 22.2552L345.188 30.5781L343.911 31.8542L348.667 31.849L348.672 27.1146" fill="#EC6A5D"/>
<path d="M343.911 32.3489C343.708 32.3489 343.526 32.2239 343.453 32.0416C343.375 31.8594 343.417 31.6458 343.557 31.5052L344.49 30.5781L336.469 22.5989C336.276 22.4114 336.276 22.0989 336.469 21.9062L338.672 19.7083C338.854 19.526 339.188 19.526 339.37 19.7083L347.745 28.0364L347.042 28.7344L339.021 20.7552L337.516 22.2552L345.536 30.2291C345.734 30.4219 345.734 30.7396 345.536 30.9271L345.104 31.3594H348.172L348.177 27.1146H349.167L349.161 31.8489C349.161 32.1198 348.943 32.3385 348.667 32.3385L343.911 32.3489Z" fill="white"/>
<path d="M347.396 28.3854L339.021 20.0573L336.818 22.2552L345.188 30.5781L343.911 31.8542L348.667 31.849L348.672 27.1146" fill="#EC6A5D"/>
<path d="M343.911 32.3489C343.708 32.3489 343.526 32.2239 343.453 32.0416C343.375 31.8594 343.417 31.6458 343.557 31.5052L344.49 30.5781L336.469 22.5989C336.276 22.4114 336.276 22.0989 336.469 21.9062L338.672 19.7083C338.854 19.526 339.188 19.526 339.37 19.7083L347.396 27.6927L348.323 26.7656C348.464 26.625 348.677 26.5833 348.865 26.6614C349.047 26.7344 349.167 26.9166 349.167 27.1146L349.161 31.8489C349.161 32.1198 348.943 32.3385 348.667 32.3385L343.911 32.3489ZM337.516 22.2552L345.536 30.2291C345.734 30.4219 345.734 30.7396 345.536 30.9271L345.104 31.3594H348.172L348.177 28.3073L347.745 28.7344C347.552 28.9271 347.24 28.9271 347.042 28.7344L339.021 20.7552" fill="white"/>
<path d="M340.563 32.2604V22.5989H337.443V32.2604H335.63L339 35.5989L342.365 32.2604" fill="#EC6A5D"/>
<path d="M339 36.0938C338.87 36.0938 338.745 36.0469 338.646 35.9479L335.281 32.6094C335.141 32.4688 335.099 32.2552 335.172 32.0729C335.25 31.8854 335.432 31.7656 335.63 31.7656H336.948V22.599C336.948 22.3281 337.167 22.1042 337.443 22.1042H340.563C340.833 22.1042 341.057 22.3281 341.057 22.599V32.2604H340.068V23.0938H337.938V32.2604C337.938 32.5313 337.714 32.75 337.443 32.75H336.828L339 34.9063L342.016 31.9115L342.719 32.6094L339.349 35.9479C339.25 36.0469 339.125 36.0938 339 36.0938Z" fill="white"/>
<path d="M340.563 32.2604V22.5989H337.443V32.2604H335.63L339 35.5989L342.365 32.2604" fill="#EC6A5D"/>
<path d="M339 36.0938C338.87 36.0938 338.745 36.0469 338.651 35.9479L335.281 32.6094C335.141 32.4688 335.099 32.2552 335.172 32.0729C335.25 31.8854 335.432 31.7656 335.63 31.7656H336.948V22.599C336.948 22.3281 337.167 22.1042 337.443 22.1042H340.563C340.833 22.1042 341.057 22.3281 341.057 22.599V31.7656H342.365C342.568 31.7656 342.75 31.8854 342.823 32.0729C342.901 32.2552 342.859 32.4688 342.719 32.6094L339.349 35.9479C339.25 36.0469 339.125 36.0938 339 36.0938ZM336.828 32.75L339 34.9063L341.172 32.75H340.563C340.287 32.75 340.068 32.5313 340.068 32.2604V23.0938H337.938V32.2604C337.938 32.5313 337.714 32.75 337.443 32.75" fill="white"/>
<path d="M332.854 30.5729L341.229 22.25L339.021 20.0521L330.651 28.3802L329.37 27.1094L329.375 31.8385L334.135 31.8489" fill="#EC6A5D"/>
<path d="M334.13 32.3385L329.375 32.3333C329.104 32.3333 328.88 32.1146 328.88 31.8438L328.875 27.1094C328.875 26.9115 328.995 26.7292 329.182 26.6562C329.365 26.5781 329.578 26.6198 329.719 26.7604L330.651 27.6875L338.672 19.7031C338.865 19.5156 339.177 19.5156 339.37 19.7031L341.578 21.901C341.672 21.9948 341.724 22.1146 341.724 22.25C341.724 22.3802 341.672 22.5052 341.578 22.599L333.203 30.9219L332.505 30.224L340.526 22.25L339.021 20.75L331 28.7292C330.807 28.9219 330.495 28.9219 330.302 28.7292L329.865 28.3021L329.87 31.349L334.135 31.3542" fill="white"/>
<path d="M332.854 30.5729L341.229 22.25L339.021 20.0521L330.651 28.3802L329.37 27.1094L329.375 31.8385L334.135 31.8489" fill="#EC6A5D"/>
<path d="M334.135 32.3385L329.375 32.3333C329.104 32.3333 328.88 32.1146 328.88 31.8438L328.875 27.1094C328.875 26.9115 328.995 26.7292 329.182 26.6562C329.365 26.5781 329.578 26.6198 329.719 26.7604L330.651 27.6875L338.672 19.7031C338.865 19.5156 339.177 19.5156 339.37 19.7031L341.578 21.901C341.672 21.9948 341.724 22.1146 341.724 22.25C341.724 22.3802 341.672 22.5052 341.578 22.599L333.557 30.5729L334.484 31.5C334.625 31.6406 334.667 31.8542 334.589 32.0365C334.516 32.2187 334.333 32.3385 334.135 32.3385ZM329.87 31.349L332.938 31.3542L332.505 30.9219C332.313 30.7292 332.313 30.4167 332.505 30.224L340.526 22.25L339.021 20.75L331 28.7292C330.807 28.9219 330.495 28.9219 330.302 28.7292L329.865 28.3021" fill="white"/>
<path d="M340.911 20.0886L338.672 23.0781C338.292 23.5834 338.396 24.3021 338.906 24.6771C339.411 25.0573 340.135 24.9531 340.516 24.4479L341.911 22.5834C342.469 21.8542 343.094 21.5834 343.396 21.5052C344.068 21.3281 346.089 20.5729 347.172 19.9219C348.25 19.2656 348.807 17.7448 348.75 16.4375L345.526 13.2292L338.682 15.3542C337.849 15.6354 337.547 16.1094 337.422 16.3906C337.297 16.6771 335.932 19.8854 335.932 19.8854C335.776 20.2865 335.688 20.7656 335.917 21.1719C336.146 21.5781 336.667 22.3906 336.667 22.3906L338.172 20.8906C338.172 20.8906 338.115 20.0625 338.307 19.6354C338.505 19.2136 338.714 18.5104 339.161 18.349C339.604 18.1927 340.38 17.9427 340.38 17.9427C340.38 17.9427 340.313 18.8281 340.469 19.3021C340.63 19.7761 340.875 20.0573 340.875 20.0573" fill="#EC6A5D"/>
<path d="M339.594 25.401C339.24 25.401 338.896 25.2865 338.609 25.0729C338.255 24.8125 338.026 24.4271 337.964 23.9948C337.906 23.5625 338.016 23.1302 338.281 22.7812L340.297 20.0885C340.198 19.9271 340.089 19.7187 340 19.4583C339.922 19.2135 339.885 18.9062 339.875 18.6302C339.682 18.6927 339.484 18.7604 339.328 18.8125C339.167 18.8698 338.974 19.3333 338.87 19.5781L338.76 19.8437C338.661 20.0521 338.646 20.5625 338.667 20.8594C338.677 21 338.625 21.1406 338.526 21.2396L337.016 22.7396C336.911 22.8437 336.76 22.8958 336.615 22.8802C336.464 22.8646 336.333 22.7812 336.25 22.6562C336.25 22.6562 335.719 21.8281 335.484 21.4167C335.219 20.9427 335.214 20.3646 335.474 19.7031C335.479 19.6927 336.844 16.4792 336.969 16.1979C337.234 15.5937 337.771 15.1406 338.521 14.8854L345.375 12.7604C345.552 12.7031 345.745 12.75 345.875 12.8802L349.104 16.0937C349.193 16.1823 349.24 16.2969 349.245 16.4219C349.302 17.75 348.755 19.5417 347.427 20.3385C346.302 21.0208 344.26 21.7865 343.521 21.9844C343.411 22.0104 342.839 22.1875 342.307 22.8802L340.911 24.7448C340.646 25.0937 340.266 25.3229 339.828 25.3854C339.75 25.3958 339.672 25.401 339.594 25.401ZM340.385 17.4531C340.495 17.4531 340.604 17.4896 340.688 17.5573C340.818 17.6615 340.891 17.8177 340.875 17.9844C340.854 18.2865 340.849 18.8698 340.943 19.1458C341.063 19.5156 341.25 19.7396 341.255 19.7396C341.448 19.9062 341.464 20.1771 341.307 20.3854L339.073 23.3698C338.964 23.5104 338.922 23.6823 338.948 23.8542C338.969 24.026 339.063 24.1823 339.203 24.2812C339.344 24.3906 339.516 24.4271 339.688 24.4115C339.859 24.3854 340.016 24.2917 340.12 24.1562L341.516 22.2865C342.229 21.3594 343.036 21.0885 343.271 21.0312C343.865 20.875 345.865 20.1354 346.911 19.5C347.802 18.9635 348.25 17.6979 348.26 16.6458L345.385 13.7917L338.828 15.8229C338.354 15.9844 338.026 16.2448 337.875 16.5885C337.75 16.875 336.391 20.0781 336.391 20.0781C336.25 20.4375 336.234 20.7292 336.349 20.9271C336.448 21.1094 336.609 21.3698 336.755 21.6042L337.672 20.6979C337.667 20.375 337.682 19.8177 337.859 19.4323L337.958 19.2031C338.151 18.7344 338.422 18.0885 338.995 17.8854C339.443 17.7292 340.229 17.474 340.229 17.474C340.281 17.4583 340.333 17.4531 340.385 17.4531Z" fill="white"/>
<path d="M350.396 18.2136C350.036 18.2136 349.698 18.0729 349.443 17.8229L344.797 13.1979C344.542 12.9479 344.401 12.6094 344.401 12.2552C344.401 11.8959 344.542 11.5625 344.792 11.3073L346 10.1042C346.51 9.60419 347.396 9.60419 347.906 10.1042L352.552 14.7292C353.078 15.25 353.078 16.099 352.552 16.6198L351.344 17.8229C351.089 18.0729 350.755 18.2136 350.396 18.2136ZM346.953 10.6979C346.859 10.6979 346.771 10.7396 346.703 10.8021V10.8073L345.495 12.0052C345.427 12.0729 345.391 12.1615 345.391 12.2552C345.391 12.349 345.427 12.4375 345.495 12.5L350.141 17.125C350.276 17.2604 350.51 17.2552 350.646 17.125L351.854 15.9271C351.99 15.7865 351.99 15.5625 351.849 15.4271L347.203 10.8073C347.135 10.7396 347.047 10.6979 346.953 10.6979Z" fill="white"/>
<path d="M209.135 43.9688L208.828 47.5417H207.656L208.135 42.5313C208.198 41.9115 209.208 41.7136 209.531 42.3542L210.807 44.974L212.062 42.3542C212.385 41.7136 213.427 41.9115 213.5 42.6198L213.958 47.5417H212.786L212.479 43.9688L211.396 46.2604C211.167 46.6979 210.438 46.6979 210.219 46.25" fill="white"/>
<path d="M216.104 47.5417H215V43.9792C215 42.7656 215.516 41.9375 217.172 41.9375C218.833 41.9375 219.365 42.7656 219.365 43.9792V47.5417H218.224V45.7188H216.104V47.5417ZM218.224 44.7969V43.9688C218.224 43.2708 217.964 42.9115 217.172 42.9115C216.375 42.9115 216.104 43.2708 216.104 43.9688V44.7969" fill="white"/>
<path d="M223.026 45.3542C222.708 45.3542 222.62 45.2187 222.62 44.9583V44.4271H225.005V46.9062C225.005 47.2396 224.875 47.3542 224.672 47.4167C224.198 47.5625 223.693 47.651 222.87 47.651C221.281 47.651 220.26 46.9167 220.26 44.776C220.26 42.7031 221.365 41.9375 223.089 41.9375C224.307 41.9375 224.802 42.1823 224.802 42.7292V43.1823C224.417 43.0521 223.964 42.9115 223.125 42.9115C221.995 42.9115 221.427 43.3958 221.427 44.776C221.427 46.25 221.995 46.6823 222.906 46.6823C223.432 46.6823 223.677 46.6198 223.865 46.5729V45.3542" fill="white"/>
<path d="M227.286 47.5417H226.182V43.9792C226.182 42.7656 226.698 41.9375 228.349 41.9375C230.01 41.9375 230.542 42.7656 230.542 43.9792V47.5417H229.406V45.7188H227.286V47.5417ZM229.406 44.7969V43.9688C229.406 43.2708 229.146 42.9115 228.349 42.9115C227.557 42.9115 227.286 43.2708 227.286 43.9688V44.7969" fill="white"/>
<path d="M234.938 43.1146C234.708 43.0469 234.214 42.9115 233.661 42.9115C233.021 42.9115 232.677 43.099 232.677 43.5365C232.677 44.4271 235.234 44.3385 235.234 46C235.234 47.0052 234.422 47.651 233.12 47.651C231.833 47.651 231.479 47.2917 231.479 46.8906V46.3958C231.901 46.5312 232.505 46.6823 233.177 46.6823C233.682 46.6823 233.979 46.4688 233.979 46.0885C233.979 45.2448 231.422 45.3802 231.422 43.6562C231.422 42.5052 232.307 41.9375 233.573 41.9375C234.323 41.9375 234.938 42.0937 234.938 42.6406" fill="white"/>
<path d="M236.349 47.5417H237.479V42.0469H236.349V47.5417Z" fill="white"/>
<path d="M240.036 47.5417H238.906V42.6563C238.906 41.8125 239.818 41.7969 240.125 42.2552L242.349 45.5886V42.5521C242.349 42.2031 242.464 42.0469 242.828 42.0469H243.474V46.8698C243.474 47.7708 242.5 47.8386 242.13 47.3125L240.036 44.1875" fill="white"/>
<path d="M242.646 36.0938H208.688C208.411 36.0938 208.193 35.875 208.193 35.599C208.193 35.3281 208.411 35.1094 208.688 35.1094H242.646C242.922 35.1094 243.141 35.3281 243.141 35.599C243.141 35.875 242.922 36.0938 242.646 36.0938Z" fill="white"/>
<path d="M241.245 35.599H240.255V24.4375H233.323V35.599H232.333V23.9427C232.333 23.6719 232.552 23.4479 232.828 23.4479H240.75C241.026 23.4479 241.245 23.6719 241.245 23.9427" fill="white"/>
<path d="M232.828 31.0834H210.583C210.307 31.0834 210.089 30.8646 210.089 30.5886V19.9271C210.089 19.6511 210.307 19.4323 210.583 19.4323H232.828C233.099 19.4323 233.323 19.6511 233.323 19.9271V30.5886C233.323 30.8646 233.099 31.0834 232.828 31.0834ZM211.078 30.099H232.333V20.4167H211.078" fill="white"/>
<path d="M241.245 35.599H240.255V16.6875C240.255 15.4375 239.229 14.4167 237.969 14.4167H213.365C212.104 14.4167 211.078 15.4375 211.078 16.6875V35.599H210.089V16.6875C210.089 14.8906 211.557 13.4323 213.365 13.4323H237.969C239.776 13.4323 241.245 14.8906 241.245 16.6875" fill="white"/>
<path d="M210.891 20.4167H240.427V19.4323H210.891V20.4167Z" fill="white"/>
<path d="M234.974 19.9271H235.964V13.9219H234.974V19.9271Z" fill="white"/>
<path d="M230.036 19.9271H231.026V13.9219H230.036V19.9271Z" fill="white"/>
<path d="M225.099 19.9271H226.094V13.9219H225.099V19.9271Z" fill="white"/>
<path d="M220.167 19.9271H221.156V13.9219H220.167V19.9271Z" fill="white"/>
<path d="M215.229 19.9271H216.219V13.9219H215.229V19.9271Z" fill="white"/>
<path d="M138.76 47.5417H137.661V43.9792C137.661 42.7656 138.172 41.9375 139.828 41.9375C141.484 41.9375 142.021 42.7656 142.021 43.9792V47.5417H140.88V45.7188H138.76V47.5417ZM140.88 44.7969V43.9688C140.88 43.2708 140.62 42.9115 139.828 42.9115C139.031 42.9115 138.76 43.2708 138.76 43.9688V44.7969" fill="white"/>
<path d="M146.411 43.1146C146.188 43.0469 145.688 42.9115 145.141 42.9115C144.5 42.9115 144.156 43.099 144.156 43.5365C144.156 44.4271 146.708 44.3385 146.708 46C146.708 47.0052 145.896 47.651 144.599 47.651C143.307 47.651 142.953 47.2917 142.953 46.8906V46.3958C143.38 46.5312 143.984 46.6823 144.651 46.6823C145.156 46.6823 145.453 46.4688 145.453 46.0885C145.453 45.2448 142.901 45.3802 142.901 43.6562C142.901 42.5052 143.786 41.9375 145.052 41.9375C145.797 41.9375 146.411 42.0937 146.411 42.6406" fill="white"/>
<path d="M150.76 43.1146C150.531 43.0469 150.036 42.9115 149.484 42.9115C148.844 42.9115 148.5 43.099 148.5 43.5365C148.5 44.4271 151.057 44.3385 151.057 46C151.057 47.0052 150.245 47.651 148.943 47.651C147.651 47.651 147.302 47.2917 147.302 46.8906V46.3958C147.724 46.5312 148.328 46.6823 149 46.6823C149.505 46.6823 149.802 46.4688 149.802 46.0885C149.802 45.2448 147.245 45.3802 147.245 43.6562C147.245 42.5052 148.13 41.9375 149.396 41.9375C150.146 41.9375 150.76 42.0937 150.76 42.6406" fill="white"/>
<path d="M154.255 47.651C152.63 47.651 151.802 46.8802 151.802 44.8073C151.802 42.7187 152.63 41.9375 154.255 41.9375C155.875 41.9375 156.703 42.7187 156.703 44.8073C156.703 46.8802 155.875 47.651 154.255 47.651ZM154.255 42.9115C153.401 42.9115 152.974 43.1875 152.974 44.8073C152.974 46.4115 153.401 46.6823 154.255 46.6823C155.099 46.6823 155.531 46.4115 155.531 44.8073C155.531 43.1875 155.099 42.9115 154.255 42.9115Z" fill="white"/>
<path d="M161.396 43.1146C161.089 43.0208 160.63 42.9115 160.016 42.9115C159.13 42.9115 158.625 43.3229 158.625 44.776C158.625 46.2344 159.146 46.6823 160.12 46.6823C160.755 46.6823 161.151 46.5625 161.458 46.4688V47.0521C161.458 47.5052 160.781 47.651 159.979 47.651C158.453 47.651 157.458 46.8594 157.458 44.776C157.458 42.6667 158.396 41.9375 160.068 41.9375C160.87 41.9375 161.396 42.1094 161.396 42.6146" fill="white"/>
<path d="M162.484 47.5417H163.615V42.0469H162.484V47.5417Z" fill="white"/>
<path d="M165.979 47.5417H164.875V43.9792C164.875 42.7656 165.391 41.9375 167.042 41.9375C168.703 41.9375 169.24 42.7656 169.24 43.9792V47.5417H168.099V45.7188H165.979V47.5417ZM168.099 44.7969V43.9688C168.099 43.2708 167.839 42.9115 167.042 42.9115C166.25 42.9115 165.979 43.2708 165.979 43.9688V44.7969" fill="white"/>
<path d="M174.292 42.0469V42.4688C174.292 42.8177 174.12 43.0469 173.724 43.0469H172.557V47.5417H171.427V43.0469H169.703V42.6667C169.703 42.2708 169.885 42.0469 170.354 42.0469" fill="white"/>
<path d="M175.078 47.5417H176.208V42.0469H175.078V47.5417Z" fill="white"/>
<path d="M179.734 47.651C178.109 47.651 177.276 46.8802 177.276 44.8073C177.276 42.7187 178.109 41.9375 179.734 41.9375C181.349 41.9375 182.182 42.7187 182.182 44.8073C182.182 46.8802 181.349 47.651 179.734 47.651ZM179.734 42.9115C178.875 42.9115 178.453 43.1875 178.453 44.8073C178.453 46.4115 178.875 46.6823 179.734 46.6823C180.573 46.6823 181.005 46.4115 181.005 44.8073C181.005 43.1875 180.573 42.9115 179.734 42.9115Z" fill="white"/>
<path d="M184.38 47.5417H183.25V42.6563C183.25 41.8125 184.161 41.7969 184.469 42.2552L186.693 45.5886V42.5521C186.693 42.2031 186.807 42.0469 187.172 42.0469H187.818V46.8698C187.818 47.7708 186.844 47.8386 186.474 47.3125L184.38 44.1875" fill="white"/>
<path d="M164.422 36.0938C164.38 36.0938 164.344 36.0885 164.302 36.0781L155.234 33.849L152.557 34.4531C152.411 34.4844 152.26 34.4531 152.141 34.3594C152.026 34.2656 151.953 34.125 151.953 33.9792L151.885 25.3906C151.885 25.2604 151.938 25.1354 152.026 25.0417C152.12 24.9479 152.245 24.8906 152.38 24.8906H166.297C167.547 24.8906 168.557 25.8698 168.594 27.1094C168.594 27.1406 168.599 27.25 168.583 27.401L173.38 24.8698C174.302 24.3594 175.698 24.3438 176.458 25.3229C177.208 26.2969 177.026 27.7031 176.047 28.4531L164.698 36.0104C164.615 36.0625 164.521 36.0938 164.422 36.0938ZM155.24 32.849C155.281 32.849 155.318 32.8542 155.359 32.8594L164.328 35.0729L175.469 27.6563C175.99 27.2552 176.094 26.4688 175.672 25.9219C175.276 25.4063 174.417 25.4219 173.854 25.7344L167.698 28.9844C167.333 29.2344 166.885 29.3594 166.349 29.3594H159.625C159.354 29.3594 159.13 29.1354 159.13 28.8646C159.13 28.5938 159.354 28.3698 159.625 28.3698H166.349C166.568 28.3698 166.75 28.3438 166.911 28.2865L167.167 28.151C167.208 28.1198 167.245 28.0885 167.281 28.0521C167.615 27.7031 167.604 27.151 167.604 27.1458C167.583 26.4323 167.01 25.8802 166.297 25.8802H152.88L152.938 33.3594L155.13 32.8594C155.167 32.8542 155.203 32.849 155.24 32.849Z" fill="white"/>
<path d="M151.531 35.3906H149.859C149.104 35.3906 148.495 34.7813 148.495 34.0365V25.5573C148.495 24.8073 149.104 24.1979 149.859 24.1979H151.531C152.281 24.1979 152.896 24.8073 152.896 25.5573V34.0365C152.896 34.7813 152.281 35.3906 151.531 35.3906ZM149.859 25.1823C149.651 25.1823 149.484 25.349 149.484 25.5573V34.0365C149.484 34.2396 149.651 34.4063 149.859 34.4063H151.531C151.74 34.4063 151.906 34.2396 151.906 34.0365V25.5573C151.906 25.349 151.74 25.1823 151.531 25.1823" fill="white"/>
<path d="M160.474 25.7917C158.76 24.6042 155.714 22.1459 154.573 19.0209C153.781 16.8386 153.875 14.8802 154.849 13.5052C155.625 12.4063 156.932 11.7448 158.339 11.7448C160.234 11.7448 161.458 13.4063 162.068 14.5365C162.682 13.4063 163.906 11.7448 165.802 11.7448C167.208 11.7448 168.516 12.4063 169.292 13.5052C170.26 14.8802 170.359 16.8386 169.568 19.0209C168.427 22.1406 165.38 24.599 163.667 25.7917L163.099 24.9844C164.719 23.8594 167.589 21.5469 168.635 18.6823C169.318 16.8177 169.26 15.1771 168.479 14.0729C167.891 13.2292 166.891 12.7292 165.802 12.7292C163.698 12.7292 162.547 15.849 162.536 15.875C162.464 16.0729 162.281 16.2031 162.068 16.2031C161.859 16.2031 161.672 16.0729 161.604 15.875C161.594 15.849 160.443 12.7292 158.339 12.7292C157.25 12.7292 156.25 13.2292 155.661 14.0729C154.88 15.1771 154.823 16.8177 155.505 18.6823C156.552 21.5521 159.422 23.8594 161.042 24.9844" fill="white"/>
<path d="M266.25 46.6563V47.1511C266.25 47.474 266.036 47.6094 265.646 47.6094H263.63C263.12 47.6094 262.885 47.349 262.885 46.8542V42.1042H264.016V46.6563" fill="white"/>
<path d="M267.099 47.6094H268.229V42.1042H267.099V47.6094Z" fill="white"/>
<path d="M269.604 42.1042C269.995 42.1042 270.156 42.2396 270.302 42.6042L271.703 46.1511L273.073 42.5729C273.208 42.2292 273.411 42.1042 273.724 42.1042H274.339L272.302 47.2969C272.104 47.8542 271.234 47.8594 271.016 47.2969L268.917 42.1042" fill="white"/>
<path d="M276.917 42.1042C278.401 42.1042 279.089 42.6719 279.089 43.9531C279.089 44.8281 278.594 45.3334 278.031 45.6198L279.151 47.6094H278.313C277.984 47.6094 277.807 47.5 277.651 47.2188L276.948 45.8438H276.167V47.6094H275.036V42.8125C275.036 42.3646 275.292 42.1042 275.75 42.1042H276.917ZM276.167 44.9271H276.854C277.615 44.9271 277.911 44.5573 277.911 43.9531C277.911 43.3073 277.625 43.0625 276.875 43.0625H276.167" fill="white"/>
<path d="M281.193 47.6094H280.089V44.0365C280.089 42.8229 280.604 41.9948 282.26 41.9948C283.922 41.9948 284.458 42.8229 284.458 44.0365V47.6094H283.318V45.7813H281.193V47.6094ZM283.318 44.8594V44.0261C283.318 43.3281 283.057 42.9688 282.26 42.9688C281.464 42.9688 281.193 43.3281 281.193 44.0261V44.8594" fill="white"/>
<path d="M285.729 47.6094H286.859V42.1042H285.729V47.6094Z" fill="white"/>
<path d="M291.427 43.1719C291.203 43.099 290.703 42.9688 290.151 42.9688C289.51 42.9688 289.167 43.1563 289.167 43.5938C289.167 44.4844 291.729 44.3959 291.729 46.0573C291.729 47.0677 290.911 47.7188 289.615 47.7188C288.318 47.7188 287.964 47.3542 287.964 46.9531V46.4584C288.391 46.5938 288.995 46.7448 289.667 46.7448C290.172 46.7448 290.469 46.5313 290.469 46.1511C290.469 45.3073 287.911 45.4375 287.911 43.7136C287.911 42.5625 288.797 41.9948 290.063 41.9948C290.813 41.9948 291.427 42.1459 291.427 42.6979" fill="white"/>
<path d="M294.938 47.7188C293.307 47.7188 292.474 46.9427 292.474 44.8646C292.474 42.7761 293.307 41.9948 294.938 41.9948C296.552 41.9948 297.385 42.7761 297.385 44.8646C297.385 46.9427 296.552 47.7188 294.938 47.7188ZM294.938 42.9688C294.073 42.9688 293.651 43.2448 293.651 44.8646C293.651 46.474 294.073 46.7448 294.938 46.7448C295.776 46.7448 296.208 46.474 296.208 44.8646C296.208 43.2448 295.776 42.9688 294.938 42.9688Z" fill="white"/>
<path d="M299.589 47.6093H298.458V42.7135C298.458 41.8698 299.37 41.8541 299.677 42.3125L301.906 45.6458V42.6041C301.906 42.2552 302.021 42.1041 302.385 42.1041H303.036V46.9323C303.036 47.8333 302.057 47.9062 301.688 47.375L299.589 44.2448" fill="white"/>
<path d="M278.078 36.1771C277.719 36.1771 277.354 36.1094 277.01 35.974C276.297 35.6875 275.734 35.1458 275.432 34.4427C275.13 33.7396 275.12 32.9636 275.401 32.2552C275.687 31.5417 276.234 30.9844 276.937 30.6823C278.396 30.0573 280.094 30.7292 280.719 32.1823C281.349 33.6302 280.672 35.3177 279.214 35.9427C278.849 36.099 278.464 36.1771 278.078 36.1771ZM278.073 31.4375C277.828 31.4375 277.573 31.4844 277.333 31.5886C276.87 31.7865 276.51 32.1511 276.328 32.6198C276.141 33.0833 276.146 33.5938 276.344 34.0521C276.542 34.5156 276.911 34.8698 277.375 35.0521C277.849 35.2448 278.359 35.2292 278.823 35.0365C279.776 34.6302 280.219 33.5208 279.807 32.5729C279.505 31.8646 278.807 31.4375 278.073 31.4375Z" fill="white"/>
<path d="M283.891 34.1146C283.698 34.1146 283.516 34.0052 283.432 33.8177L275.26 14.9114L272.547 16.0729C272.297 16.1771 272.005 16.0677 271.896 15.8125C271.786 15.5625 271.906 15.2708 272.156 15.1667L275.323 13.8125C275.573 13.7031 275.865 13.8177 275.974 14.0729L284.151 32.9739L293.469 28.9896C293.719 28.8802 294.016 28.9948 294.125 29.25C294.229 29.5 294.115 29.7864 293.865 29.8958L284.083 34.0781C284.021 34.1042 283.953 34.1146 283.891 34.1146Z" fill="white"/>
<path d="M285.297 30.2656C285.234 30.2656 285.172 30.25 285.109 30.2291C284.99 30.1823 284.891 30.0833 284.839 29.9635L281.458 22.151C281.349 21.8958 281.469 21.6094 281.719 21.5L290.177 17.8802C290.302 17.8281 290.438 17.8281 290.557 17.8802C290.682 17.9271 290.781 18.0208 290.833 18.1406L294.208 25.9583C294.318 26.2083 294.198 26.4948 293.948 26.6041L285.49 30.2239C285.427 30.25 285.359 30.2656 285.297 30.2656ZM282.568 22.2135L285.557 29.1198L293.104 25.8958L290.115 18.9844" fill="white"/>
<path d="M280.807 19.6667C280.745 19.6667 280.682 19.6563 280.62 19.6354C280.5 19.5834 280.401 19.4896 280.349 19.3698L278.505 15.1042C278.453 14.9844 278.453 14.849 278.5 14.7292C278.547 14.6094 278.646 14.5104 278.766 14.4583L285.609 11.5313C285.734 11.4792 285.87 11.474 285.99 11.5261C286.115 11.5729 286.208 11.6667 286.26 11.7865L288.109 16.0521C288.214 16.3021 288.099 16.5938 287.849 16.6979L281 19.6302C280.937 19.6563 280.87 19.6667 280.807 19.6667ZM279.615 15.1667L281.068 18.5261L287 15.9896L285.547 12.6302" fill="white"/>
</g>
<defs>
<clipPath id="clip0_22_2453">
<rect width="372" height="57" fill="white"/>
</clipPath>
</defs>
</svg>
