<svg width="270" height="61" viewBox="0 0 270 61" fill="none" xmlns="http://www.w3.org/2000/svg">
<path d="M24.6979 60.4688C11.0781 60.4688 0 49.5208 0 36.0625V0H234.948C248.563 0 259.641 10.9479 259.641 24.4062V60.4688" fill="white"/>
<path d="M222.083 52.9114H69.1353C59.6874 52.9114 51.9999 45.3541 51.9999 36.0625V7.55725H204.948C214.396 7.55725 222.083 15.1145 222.083 24.4062V52.9114ZM204.948 5.66663H50.1145V36.0625C50.1145 46.3958 58.6458 54.802 69.1353 54.802H223.969V24.4062C223.969 14.0729 215.437 5.66663 204.948 5.66663Z" fill="#333347"/>
<path d="M196.714 54.802L209.724 28.2239L196.432 5.66663H234.948C245.437 5.66663 253.969 14.0729 253.969 24.4062V54.802" fill="#333347"/>
<path d="M102.901 5.66663H50.1145V36.0625C50.1145 46.3958 58.6458 54.802 69.1353 54.802H121.927V24.4062C121.927 14.0729 113.391 5.66663 102.901 5.66663Z" fill="#333347"/>
<path d="M63.651 29.3594C58.8489 29.3594 54.9583 33.25 54.9583 38.0521C54.9583 42.8542 58.8489 46.7448 63.651 46.7448C68.4583 46.7448 72.3489 42.8542 72.3489 38.0521C72.3489 33.25 68.4583 29.3594 63.651 29.3594Z" fill="white"/>
<path d="M69.3229 39.4688H65.0729V43.7188H62.2344V39.4688H57.9844V36.6355H62.2344V32.3802H65.0729V36.6355H69.3229" fill="#1C1C1B"/>
<path d="M55.7864 26.5937V17.1979H58.2708V24.5156H61.828V26.5937" fill="white"/>
<path d="M62.9426 26.5937V17.1979H69.0155V19.276H65.4322V20.7552H68.4947V22.8385H65.4322V24.5156H69.1614V26.5937" fill="white"/>
<path d="M75.0885 26.5937V19.276H72.6041V17.1979H80.0677V19.276H77.5781V26.5937" fill="white"/>
<path d="M83.5521 21.4739H84.4479C85.4479 21.4739 85.9531 21.0625 85.9531 20.2343C85.9531 19.8281 85.8229 19.5468 85.5677 19.3958C85.3125 19.2395 84.9375 19.1614 84.4479 19.1614H83.5521V21.4739ZM81.0625 26.5989V17.1979H84.6198C85.125 17.1979 85.6042 17.2448 86.0625 17.3385C86.5208 17.4375 86.9167 17.5989 87.2604 17.8333C87.6042 18.0625 87.875 18.375 88.0781 18.7656C88.2813 19.1562 88.3802 19.6458 88.3802 20.2343C88.3802 20.9062 88.2448 21.4687 87.9688 21.9114C87.6979 22.3541 87.3281 22.6979 86.8646 22.9531L88.901 26.5989H86.125L84.5052 23.4427H83.5521V26.5989" fill="white"/>
<path d="M89.8698 26.5989H92.3593V17.1979H89.8698V26.5989Z" fill="white"/>
<path d="M75.3801 43.276V33.8698H81.5103V35.9531H77.8697V37.75H80.9895V39.8333H77.8697V43.276" fill="white"/>
<path d="M84.9218 38.7031L84.7604 39.3541H86.4948L86.3385 38.7031C86.2239 38.25 86.1041 37.7604 85.9895 37.2291C85.875 36.6979 85.7604 36.1979 85.6406 35.7239H85.5833C85.4791 36.2031 85.3698 36.7083 85.2604 37.2343C85.151 37.7604 85.0364 38.25 84.9218 38.7031ZM81.3073 43.276L84.1666 33.8698H87.1718L90.0364 43.276H87.4062L86.9427 41.276H84.3125L83.8489 43.276" fill="white"/>
<path d="M94.5624 43.4479C93.9687 43.4479 93.3958 43.3489 92.8541 43.151C92.3072 42.9531 91.8333 42.651 91.4218 42.2552C91.0103 41.8541 90.6822 41.3541 90.4426 40.75C90.203 40.1458 90.0833 39.4479 90.0833 38.6458C90.0833 37.8541 90.2083 37.151 90.4583 36.5416C90.7083 35.927 91.0416 35.4114 91.4635 34.9948C91.8801 34.5729 92.3645 34.25 92.9114 34.0312C93.4583 33.8073 94.026 33.6979 94.6249 33.6979C95.2499 33.6979 95.8124 33.8229 96.302 34.0677C96.7968 34.3125 97.2083 34.6041 97.5468 34.9427L96.2447 36.5312C96.0155 36.3333 95.776 36.1666 95.5312 36.0312C95.2812 35.9062 94.9999 35.8385 94.6822 35.8385C94.401 35.8385 94.1405 35.901 93.8958 36.026C93.651 36.151 93.4322 36.3333 93.2447 36.5625C93.0572 36.7916 92.9062 37.0781 92.7968 37.4166C92.6822 37.75 92.6301 38.1354 92.6301 38.5573C92.6301 39.4479 92.8124 40.125 93.1874 40.5989C93.5572 41.0677 94.0468 41.3073 94.651 41.3073C95.0208 41.3073 95.3437 41.2291 95.6301 41.0677C95.9114 40.9062 96.1562 40.7187 96.3593 40.4948L97.6614 42.0573C97.2551 42.5208 96.7916 42.8698 96.2655 43.0989C95.7395 43.3333 95.1718 43.4479 94.5624 43.4479Z" fill="white"/>
<path d="M98.6198 43.276H101.104V33.8698H98.6198V43.276Z" fill="white"/>
<path d="M102.875 43.276V33.8698H105.365V41.1927H108.922V43.276" fill="white"/>
<path d="M110.031 43.276V33.8698H116.109V35.9531H112.521V37.4323H115.589V39.5156H112.521V41.1927H116.255V43.276" fill="white"/>
<path d="M28.4062 25.7448C26.7135 28.2343 28.151 31.5104 29.8958 33.1718C31.4895 34.6823 32.7655 35.0364 32.9322 35.0781L33.7447 33.5208L36.0885 39.9323L29.4635 41.2812L30.3437 39.6458L29.4478 39.1458C26.6562 37.3281 26.0676 34.8593 25.8749 34.0885C25.5416 32.7604 25.0468 28.7864 28.4062 25.7448Z" fill="#333347"/>
<path d="M28.375 25.8489C29.5781 28.6093 33.1146 29.1406 35.4479 28.552C37.5208 28.026 38.5052 27.1718 38.6719 27.0156L38.6615 27L37.776 25.4635L44.4427 26.9218L42.0313 33.2395L41.1354 31.6458L40.2656 32.1198C37.2396 33.5104 34.8333 32.6927 34.0781 32.4427C32.7813 32.0156 29.1562 30.3125 28.375 25.8489Z" fill="#333347"/>
<path d="M40.1613 19.1927C39.6978 22.4895 37.7134 24.0729 37.0936 24.5729C36.0311 25.4375 32.6457 27.5677 28.4634 25.8177C31.4373 26.2916 33.7967 23.6041 34.5571 21.3177C35.2446 19.2656 35.0415 17.9687 34.9998 17.7708L34.979 17.7656L33.2134 17.6927L38.0259 12.8541L42.0519 18.2864L40.2342 18.1823" fill="#333347"/>
<path fill-rule="evenodd" clip-rule="evenodd" d="M19.9375 16.4115C18.4167 16.4115 17.1875 15.1823 17.1875 13.6563C17.1875 12.1354 18.4167 10.9062 19.9375 10.9062C21.4583 10.9062 22.6927 12.1354 22.6927 13.6563C22.6927 15.1823 21.4583 16.4115 19.9375 16.4115Z" fill="#333347"/>
<path d="M15.6771 29.7968C15.9115 29.151 16.2604 29.1927 16.2604 29.1927C16.2604 29.1927 16.5781 29.125 16.7552 29.7708L19.3281 38.8073C17.1823 38.1823 15.224 37.1198 13.5573 35.7083L15.6771 29.7968ZM23.7031 5.66663C13.7604 5.66663 5.67188 13.7552 5.67188 23.6979C5.67188 33.6406 13.7604 41.7291 23.7031 41.7291C24.2344 41.7291 24.7552 41.6979 25.276 41.651L25.3958 43.4635L28.6979 40.2708L25.0052 37.4531L25.1458 39.3541C24.6719 39.401 24.1875 39.4323 23.7031 39.4323C22.9375 39.4323 22.1875 39.375 21.4531 39.2656L21.3802 38.7864L19.6667 24.1875C19.4323 21.4323 21.0052 20.9948 21.9792 21.4062L27.4479 23.6041C28.0729 23.875 28.375 23.3489 28.375 23.3489C28.375 23.3489 28.7292 22.802 28.0938 22.3958C28.0938 22.3958 20.6406 17.4583 19.0521 17.1562C16.8854 16.7552 14.7396 18.5104 14.2656 20.7968L11.6198 33.7604C9.34375 31.0312 7.96875 27.5208 7.96875 23.6979C7.96875 15.0208 15.026 7.9635 23.7031 7.9635C28.3385 7.9635 32.5104 9.97913 35.3906 13.177L37.0052 11.5364C33.7083 7.93225 28.9635 5.66663 23.7031 5.66663Z" fill="#333347"/>
<path d="M131.148 22.716C131.148 23.292 131.16 23.784 131.184 24.192C131.216 24.592 131.272 24.92 131.352 25.176C131.44 25.424 131.56 25.608 131.712 25.728C131.872 25.84 132.08 25.896 132.336 25.896C132.592 25.896 132.796 25.84 132.948 25.728C133.108 25.608 133.228 25.424 133.308 25.176C133.396 24.92 133.452 24.592 133.476 24.192C133.508 23.784 133.524 23.292 133.524 22.716C133.524 22.14 133.508 21.652 133.476 21.252C133.452 20.852 133.396 20.524 133.308 20.268C133.228 20.012 133.108 19.828 132.948 19.716C132.796 19.596 132.592 19.536 132.336 19.536C132.08 19.536 131.872 19.596 131.712 19.716C131.56 19.828 131.44 20.012 131.352 20.268C131.272 20.524 131.216 20.852 131.184 21.252C131.16 21.652 131.148 22.14 131.148 22.716ZM129.42 22.716C129.42 22.068 129.448 21.472 129.504 20.928C129.568 20.376 129.7 19.904 129.9 19.512C130.108 19.12 130.404 18.816 130.788 18.6C131.172 18.376 131.688 18.264 132.336 18.264C132.984 18.264 133.5 18.376 133.884 18.6C134.268 18.816 134.56 19.12 134.76 19.512C134.968 19.904 135.1 20.376 135.156 20.928C135.22 21.472 135.252 22.068 135.252 22.716C135.252 23.372 135.22 23.972 135.156 24.516C135.1 25.06 134.968 25.528 134.76 25.92C134.56 26.312 134.268 26.612 133.884 26.82C133.5 27.028 132.984 27.132 132.336 27.132C131.688 27.132 131.172 27.028 130.788 26.82C130.404 26.612 130.108 26.312 129.9 25.92C129.7 25.528 129.568 25.06 129.504 24.516C129.448 23.972 129.42 23.372 129.42 22.716ZM137.996 25.728H138.668C139.084 25.728 139.42 25.636 139.676 25.452C139.932 25.268 140.06 24.928 140.06 24.432C140.06 24.184 140.024 23.98 139.952 23.82C139.888 23.652 139.796 23.52 139.676 23.424C139.564 23.32 139.428 23.248 139.268 23.208C139.108 23.168 138.932 23.148 138.74 23.148H137.996V25.728ZM137.996 21.948H138.488C138.968 21.948 139.316 21.864 139.532 21.696C139.756 21.52 139.868 21.228 139.868 20.82C139.868 20.412 139.768 20.124 139.568 19.956C139.368 19.788 139.052 19.704 138.62 19.704H137.996V21.948ZM136.268 18.432H139.16C139.512 18.432 139.836 18.468 140.132 18.54C140.436 18.612 140.696 18.732 140.912 18.9C141.128 19.068 141.296 19.292 141.416 19.572C141.536 19.852 141.596 20.196 141.596 20.604C141.596 21.068 141.488 21.468 141.272 21.804C141.056 22.132 140.732 22.356 140.3 22.476V22.5C140.78 22.564 141.16 22.768 141.44 23.112C141.72 23.456 141.86 23.916 141.86 24.492C141.86 24.828 141.816 25.148 141.728 25.452C141.64 25.756 141.488 26.024 141.272 26.256C141.064 26.48 140.788 26.66 140.444 26.796C140.108 26.932 139.688 27 139.184 27H136.268V18.432ZM147.364 18.432V24.6C147.364 25.512 147.152 26.164 146.728 26.556C146.304 26.94 145.656 27.132 144.784 27.132C144.328 27.132 143.952 27.072 143.656 26.952C143.368 26.824 143.136 26.648 142.96 26.424C142.792 26.192 142.676 25.924 142.612 25.62C142.548 25.316 142.516 24.996 142.516 24.66V24.288H144.1V24.552C144.1 25.008 144.148 25.348 144.244 25.572C144.348 25.788 144.556 25.896 144.868 25.896C145.18 25.896 145.384 25.788 145.48 25.572C145.584 25.348 145.636 25.008 145.636 24.552V18.432H147.364ZM153.279 18.432V19.848H150.219V21.864H153.099V23.28H150.219V25.584H153.399V27H148.491V18.432H153.279ZM159.284 18.432V19.848H157.412V27H155.684V19.848H153.812V18.432H159.284ZM161.426 24.324V24.576C161.426 24.776 161.442 24.96 161.474 25.128C161.506 25.288 161.566 25.424 161.654 25.536C161.742 25.648 161.858 25.736 162.002 25.8C162.154 25.864 162.342 25.896 162.566 25.896C162.83 25.896 163.066 25.812 163.274 25.644C163.49 25.468 163.598 25.2 163.598 24.84C163.598 24.648 163.57 24.484 163.514 24.348C163.466 24.204 163.382 24.076 163.262 23.964C163.142 23.852 162.982 23.752 162.782 23.664C162.59 23.568 162.35 23.472 162.062 23.376C161.678 23.248 161.346 23.108 161.066 22.956C160.786 22.804 160.55 22.628 160.358 22.428C160.174 22.22 160.038 21.984 159.95 21.72C159.862 21.448 159.818 21.136 159.818 20.784C159.818 19.936 160.054 19.304 160.526 18.888C160.998 18.472 161.646 18.264 162.47 18.264C162.854 18.264 163.206 18.308 163.526 18.396C163.854 18.476 164.134 18.612 164.366 18.804C164.606 18.988 164.79 19.228 164.918 19.524C165.054 19.812 165.122 20.16 165.122 20.568V20.808H163.466C163.466 20.4 163.394 20.088 163.25 19.872C163.106 19.648 162.866 19.536 162.53 19.536C162.338 19.536 162.178 19.564 162.05 19.62C161.922 19.676 161.818 19.752 161.738 19.848C161.666 19.936 161.614 20.04 161.582 20.16C161.558 20.28 161.546 20.404 161.546 20.532C161.546 20.796 161.602 21.02 161.714 21.204C161.826 21.38 162.066 21.544 162.434 21.696L163.766 22.272C164.094 22.416 164.362 22.568 164.57 22.728C164.778 22.88 164.942 23.048 165.062 23.232C165.19 23.408 165.278 23.604 165.326 23.82C165.374 24.036 165.398 24.276 165.398 24.54C165.398 25.444 165.134 26.104 164.606 26.52C164.086 26.928 163.358 27.132 162.422 27.132C161.446 27.132 160.746 26.92 160.322 26.496C159.906 26.072 159.698 25.464 159.698 24.672V24.324H161.426ZM173.927 18.432V19.848H170.867V21.864H173.747V23.28H170.867V25.584H174.047V27H169.139V18.432H173.927ZM176.908 18.432L178.996 24.3H179.02V18.432H180.604V27H178.636L176.524 21H176.5V27H174.916V18.432H176.908ZM133.26 36.324C133.26 35.7 133.184 35.248 133.032 34.968C132.888 34.68 132.62 34.536 132.228 34.536C132.012 34.536 131.832 34.596 131.688 34.716C131.552 34.828 131.444 35.016 131.364 35.28C131.284 35.536 131.228 35.876 131.196 36.3C131.164 36.716 131.148 37.228 131.148 37.836C131.148 38.484 131.168 39.008 131.208 39.408C131.256 39.808 131.324 40.12 131.412 40.344C131.508 40.56 131.624 40.708 131.76 40.788C131.904 40.86 132.068 40.896 132.252 40.896C132.404 40.896 132.544 40.872 132.672 40.824C132.808 40.768 132.924 40.664 133.02 40.512C133.116 40.352 133.192 40.132 133.248 39.852C133.304 39.564 133.332 39.188 133.332 38.724H135.06C135.06 39.188 135.024 39.628 134.952 40.044C134.88 40.46 134.744 40.824 134.544 41.136C134.352 41.448 134.076 41.692 133.716 41.868C133.364 42.044 132.904 42.132 132.336 42.132C131.688 42.132 131.172 42.028 130.788 41.82C130.404 41.612 130.108 41.312 129.9 40.92C129.7 40.528 129.568 40.06 129.504 39.516C129.448 38.972 129.42 38.372 129.42 37.716C129.42 37.068 129.448 36.472 129.504 35.928C129.568 35.376 129.7 34.904 129.9 34.512C130.108 34.12 130.404 33.816 130.788 33.6C131.172 33.376 131.688 33.264 132.336 33.264C132.952 33.264 133.436 33.364 133.788 33.564C134.148 33.764 134.416 34.02 134.592 34.332C134.768 34.636 134.876 34.968 134.916 35.328C134.964 35.68 134.988 36.012 134.988 36.324H133.26ZM137.665 33.432V39.408C137.665 39.624 137.677 39.824 137.701 40.008C137.733 40.184 137.785 40.34 137.857 40.476C137.937 40.604 138.041 40.708 138.169 40.788C138.305 40.86 138.473 40.896 138.673 40.896C138.881 40.896 139.049 40.86 139.177 40.788C139.305 40.708 139.405 40.604 139.477 40.476C139.557 40.34 139.609 40.184 139.633 40.008C139.665 39.824 139.681 39.624 139.681 39.408V33.432H141.409V39.408C141.409 39.952 141.333 40.404 141.181 40.764C141.029 41.116 140.825 41.396 140.569 41.604C140.313 41.812 140.021 41.952 139.693 42.024C139.365 42.096 139.025 42.132 138.673 42.132C138.321 42.132 137.981 42.1 137.653 42.036C137.325 41.972 137.033 41.844 136.777 41.652C136.521 41.452 136.317 41.172 136.165 40.812C136.013 40.452 135.937 39.984 135.937 39.408V33.432H137.665ZM142.586 42V33.432H144.314V42H142.586ZM145.596 33.432H148.788C149.508 33.432 150.068 33.616 150.468 33.984C150.868 34.344 151.068 34.896 151.068 35.64C151.068 36.216 150.952 36.688 150.72 37.056C150.488 37.416 150.128 37.648 149.64 37.752V37.776C150.072 37.84 150.388 37.98 150.588 38.196C150.788 38.412 150.912 38.76 150.96 39.24C150.976 39.4 150.988 39.576 150.996 39.768C151.004 39.952 151.012 40.16 151.02 40.392C151.036 40.848 151.06 41.196 151.092 41.436C151.14 41.676 151.244 41.84 151.404 41.928V42H149.532C149.444 41.88 149.388 41.744 149.364 41.592C149.34 41.432 149.324 41.268 149.316 41.1L149.268 39.456C149.252 39.12 149.168 38.856 149.016 38.664C148.864 38.472 148.608 38.376 148.248 38.376H147.324V42H145.596V33.432ZM147.324 37.176H148.044C148.46 37.176 148.78 37.08 149.004 36.888C149.228 36.688 149.34 36.356 149.34 35.892C149.34 35.1 148.94 34.704 148.14 34.704H147.324V37.176Z" fill="black"/>
<path fill-rule="evenodd" clip-rule="evenodd" d="M226.197 12.9917C225.489 12.7271 224.997 12.6406 224.67 12.6452C224.338 12.6499 224.233 12.7457 224.211 12.7697C224.191 12.7911 224.158 12.8426 224.156 12.9856C224.155 13.0935 224.173 13.2211 224.209 13.3514L228.625 17.6963H231.528C232.034 17.0728 233.172 15.8497 235.078 14.1794C235.602 13.7203 235.792 13.4037 235.848 13.2371C235.879 13.1441 235.868 13.1284 235.843 13.0951L235.839 13.0896C235.774 13.001 235.62 12.8791 235.352 12.7673C235.11 12.6663 234.831 12.5973 234.575 12.5601C234.389 12.5649 234.251 12.6081 234.006 12.6965L233.957 12.7142C233.87 12.7457 233.807 12.7781 233.743 12.811C233.611 12.8791 233.474 12.9492 233.116 13.0172C232.548 13.1251 232.141 13.1334 231.683 13.0237C231.386 12.9524 231.057 12.826 230.66 12.6733L230.66 12.6732L230.66 12.6732C230.522 12.6199 230.375 12.5634 230.218 12.505L230.215 12.5046C230.205 12.5034 230.171 12.4992 230.103 12.5017C230.005 12.5053 229.878 12.5207 229.721 12.5484C229.412 12.603 229.047 12.694 228.66 12.7904L228.637 12.7962C228.255 12.8913 227.848 12.9925 227.508 13.0468C227.338 13.0739 227.162 13.0935 226.999 13.0896C226.986 13.0893 226.969 13.0891 226.947 13.0889H226.947C226.777 13.0872 226.364 13.0832 226.197 12.9917ZM228.237 11.3164C227.706 11.4374 226.732 11.5442 226.732 11.5442C226.164 11.5236 225.749 11.4099 225.402 11.3145C225.125 11.2386 224.891 11.1743 224.654 11.1777C224.117 11.1852 223.651 11.3462 223.316 11.7135C222.98 12.0836 222.873 12.5579 222.868 12.9653C222.863 13.3667 222.954 13.7551 223.067 14.0649L223.126 14.2248L227.043 18.0789C225.564 18.4041 223.986 19.063 222.531 20.2082C219.761 22.3897 217.542 26.2534 217.227 32.6479C217.207 33.0641 217.184 33.4866 217.161 33.912C217.068 35.6616 216.972 37.462 217.008 39.0902C217.052 41.0844 217.292 43.0034 218.107 44.3151C219.572 46.6711 221.968 47.8112 224.268 48.348C226.56 48.883 228.85 48.8422 230.268 48.7579C231.563 48.7331 233.698 48.6558 235.887 48.1961C238.067 47.7382 240.413 46.8786 242.016 45.2058C243.305 43.8598 243.744 41.8774 243.878 39.7527C243.983 38.0805 243.904 36.1896 243.823 34.2644L243.823 34.2638C243.8 33.7301 243.778 33.1937 243.759 32.6587C243.548 26.6489 241.338 22.879 238.569 20.6473C236.772 19.1991 234.772 18.4248 233.001 18.0891C233.574 17.4656 234.506 16.5318 235.863 15.3427C236.456 14.8235 236.868 14.3043 237.051 13.7626C237.256 13.1522 237.144 12.5834 236.83 12.152C236.553 11.7717 236.15 11.5369 235.794 11.3889C235.425 11.2351 235.029 11.1428 234.687 11.097L234.649 11.092H234.611C234.197 11.092 233.898 11.1959 233.617 11.2976L233.57 11.3145C233.314 11.4071 233.037 11.5078 232.597 11.5912C232.212 11.6645 232.189 11.6582 232.042 11.6184L232.042 11.6184C232.013 11.6105 231.98 11.6013 231.937 11.5912C231.72 11.539 231.496 11.4529 231.141 11.3164C231.127 11.311 231.103 11.2985 231.069 11.2814C230.905 11.1967 230.523 11 230.086 11C229.442 11 228.825 11.163 228.453 11.2614L228.453 11.2614L228.453 11.2615L228.453 11.2615C228.367 11.2841 228.295 11.3034 228.237 11.3164ZM223.478 21.4108C221.129 23.2603 219.054 26.6676 218.756 32.7231C218.735 33.1559 218.712 33.5897 218.689 34.0222C218.596 35.7668 218.504 37.492 218.538 39.0565C218.582 41.0386 218.83 42.5793 219.407 43.5068C220.575 45.3858 222.528 46.37 224.616 46.8573C226.702 47.3443 228.827 47.3108 230.192 47.2289L230.207 47.228L230.223 47.2277C231.495 47.2037 233.521 47.1289 235.572 46.6981C237.641 46.2636 239.624 45.489 240.91 44.1468C241.806 43.2119 242.221 41.7042 242.35 39.6564C242.45 38.0726 242.375 36.2919 242.295 34.3813C242.272 33.835 242.249 33.2782 242.229 32.7124C242.032 27.0884 239.989 23.7575 237.609 21.8391C235.802 20.3832 233.757 19.7053 232.07 19.4905C233.467 20.9563 235.051 22.4306 235.916 22.9628L235.114 24.2664C234.751 23.9038 234.206 23.4291 233.577 22.8815L233.577 22.8815C232.672 22.0929 231.593 21.1533 230.636 20.1804C230.589 20.8038 230.548 21.5006 230.531 22.1621C230.516 22.7319 230.52 23.2613 230.55 23.6891C230.565 23.9031 230.586 24.0802 230.611 24.218C230.624 24.2864 230.636 24.3394 230.648 24.3787C230.659 24.4162 230.666 24.4328 230.667 24.4343L230.777 25.0318L229.298 25.119C229.12 24.7626 229.055 24.2519 229.023 23.7962C228.988 23.2997 228.985 22.7161 229.001 22.123C229.013 21.6509 229.036 21.1638 229.066 20.6965C227.822 21.8971 226.513 22.9378 225.548 23.7056L225.547 23.7058L225.547 23.7061C225.412 23.8133 225.284 23.9151 225.164 24.0113L224.362 22.7076C225.212 22.115 226.785 20.8255 228.179 19.4313C226.695 19.6286 225.007 20.2073 223.478 21.4108Z" fill="white"/>
</svg>
