<svg width="227" height="62" viewBox="0 0 227 62" fill="none" xmlns="http://www.w3.org/2000/svg">
<g clip-path="url(#clip0_19_293)">
<path d="M24.8542 61.9479C11.2344 61.9479 0.15625 50.9948 0.15625 37.5364V0.135376H201.323C214.938 0.135376 226.016 11.0833 226.016 24.5416V61.9479" fill="white"/>
<path d="M24.8542 60.6093C11.2344 60.6093 0.15625 49.6562 0.15625 36.1979V0.135376H201.323C214.938 0.135376 226.016 11.0833 226.016 24.5416V60.6093" fill="white"/>
<path d="M201.323 5.80725H50.2708V36.1979C50.2708 46.5312 58.802 54.9375 69.2916 54.9375H220.349V24.5416C220.349 14.2083 211.812 5.80725 201.323 5.80725Z" fill="white"/>
<path d="M218.458 53.0468H69.2916C59.8437 53.0468 52.1562 45.4895 52.1562 36.2031V7.69267H201.323C210.771 7.69267 218.458 15.2552 218.458 24.5416V53.0468ZM201.323 5.80725H50.2708V36.1979C50.2708 46.5312 58.802 54.9375 69.2916 54.9375H220.349V24.5416C220.349 14.2083 211.812 5.80725 201.323 5.80725Z" fill="#008A31"/>
<path d="M103.057 5.80725H50.2708V36.1979C50.2708 46.5312 58.802 54.9375 69.2916 54.9375H122.083V24.5416C122.083 14.2083 113.547 5.80725 103.057 5.80725Z" fill="#008A31"/>
<path d="M56.3281 26.651V17.25H58.8177V24.5677H62.375V26.651" fill="white"/>
<path d="M63.4895 26.651V17.25H69.5624V19.3333H65.9739V20.8073H69.0416V22.8906H65.9739V24.5677H69.7083V26.651" fill="white"/>
<path d="M75.6354 26.651V19.3333H73.151V17.25H80.6145V19.3333H78.125V26.651" fill="white"/>
<path d="M84.099 21.5313H84.9948C85.9948 21.5313 86.5 21.1198 86.5 20.2865C86.5 19.8854 86.3698 19.6042 86.1146 19.4479C85.8594 19.2969 85.4844 19.2188 84.9948 19.2188H84.099V21.5313ZM81.6094 26.651V17.25H85.1667C85.6719 17.25 86.151 17.3021 86.6094 17.3958C87.0677 17.4896 87.4635 17.6563 87.8073 17.8854C88.151 18.1198 88.4219 18.4271 88.625 18.8177C88.8281 19.2083 88.9271 19.6979 88.9271 20.2865C88.9271 20.9635 88.7917 21.5208 88.5156 21.9635C88.2448 22.4115 87.875 22.7552 87.4115 23.0052L89.4479 26.651H86.6719L85.0521 23.5H84.099V26.651" fill="white"/>
<path d="M90.4166 26.651H92.9062V17.25H90.4166V26.651Z" fill="white"/>
<path d="M75.927 43.3281V33.9271H82.0572V36.0104H78.4166V37.8021H81.5364V39.8854H78.4166V43.3281" fill="white"/>
<path d="M85.4635 38.7604L85.3072 39.4114H87.0416L86.8801 38.7604C86.7655 38.3073 86.651 37.8125 86.5364 37.2864C86.4218 36.7552 86.302 36.25 86.1874 35.7812H86.1301C86.026 36.2604 85.9166 36.7656 85.8072 37.2916C85.6926 37.8125 85.5833 38.3073 85.4635 38.7604ZM81.8489 43.3281L84.7135 33.9271H87.7187L90.5833 43.3281H87.953L87.4895 41.3333H84.8593L84.3958 43.3281" fill="white"/>
<path d="M95.1145 43.5052C94.5155 43.5052 93.9426 43.4062 93.401 43.2083C92.8541 43.0104 92.3749 42.7083 91.9687 42.3073C91.5572 41.9114 91.2291 41.4062 90.9895 40.8073C90.7499 40.2031 90.6301 39.5 90.6301 38.6979C90.6301 37.9114 90.7551 37.2083 91.0051 36.5937C91.2551 35.9844 91.5885 35.4687 92.0103 35.0469C92.427 34.6302 92.9114 34.3073 93.4583 34.0885C93.9999 33.8646 94.5728 33.7552 95.1718 33.7552C95.7968 33.7552 96.3593 33.875 96.8489 34.125C97.3385 34.3698 97.7551 34.6614 98.0937 35L96.7916 36.5885C96.5572 36.3854 96.3176 36.2187 96.0728 36.0885C95.828 35.9583 95.5468 35.8958 95.2291 35.8958C94.9478 35.8958 94.6874 35.9583 94.4374 36.0833C94.1926 36.2083 93.9791 36.3854 93.7916 36.6198C93.5989 36.8489 93.453 37.1354 93.3437 37.4739C93.2291 37.8073 93.177 38.1927 93.177 38.6146C93.177 39.5 93.3593 40.1823 93.7343 40.651C94.1041 41.125 94.5937 41.3646 95.1978 41.3646C95.5676 41.3646 95.8905 41.2812 96.177 41.125C96.4583 40.9635 96.703 40.776 96.9062 40.5521L98.2083 42.1146C97.802 42.5781 97.3385 42.9219 96.8124 43.1562C96.2864 43.3854 95.7187 43.5052 95.1145 43.5052Z" fill="white"/>
<path d="M99.1614 43.3281H101.651V33.9271H99.1614V43.3281Z" fill="white"/>
<path d="M103.422 43.3281V33.9271H105.911V41.2448H109.469V43.3281" fill="white"/>
<path d="M110.578 43.3281V33.9271H116.656V36.0104H113.068V37.4844H116.135V39.5677H113.068V41.2448H116.802V43.3281" fill="white"/>
<path d="M69.8697 39.526H65.6197V43.776H62.7812V39.526H58.5312V36.6875H62.7812V32.4375H65.6197V36.6875H69.8697V39.526ZM64.1978 29.4114C59.3958 29.4114 55.5051 33.3073 55.5051 38.1041C55.5051 42.9062 59.3958 46.8021 64.1978 46.8021C69.0051 46.8021 72.8958 42.9062 72.8958 38.1041C72.8958 33.3073 69.0051 29.4114 64.1978 29.4114Z" fill="white"/>
<path d="M163.089 54.9375L176.104 28.3593L162.807 5.80725H201.323C211.812 5.80725 220.349 14.2135 220.349 24.5416V54.9375" fill="#008A31"/>
<path d="M201.323 7.69788H166.115L178.245 28.2812L166.12 53.052H218.458V24.5416C218.458 15.2552 210.771 7.69788 201.323 7.69788Z" fill="#008A31"/>
<path d="M192.682 25.1927H196.307V26.2552H195.083V32.6562H193.906V26.2552H192.682" fill="white"/>
<path d="M198.208 26.2552V28.5521H198.667C199.104 28.5521 199.37 28.3594 199.37 27.7604V27.026C199.37 26.4896 199.187 26.2552 198.771 26.2552H198.208ZM199.484 32.6562C199.422 32.4635 199.38 32.3437 199.38 31.7396V30.5625C199.38 29.8698 199.146 29.6146 198.615 29.6146H198.208V32.6562H197.036V25.1927H198.802C200.021 25.1927 200.542 25.7552 200.542 26.9062V27.4948C200.542 28.2604 200.297 28.75 199.776 28.9948V29.0208C200.359 29.2656 200.552 29.8177 200.552 30.5989V31.75C200.552 32.1094 200.562 32.375 200.682 32.6562" fill="white"/>
<path d="M201.536 32.6562H202.708V25.1927H201.536V32.6562Z" fill="white"/>
<path d="M189.266 40.4062H189.292L190.177 34.3177H191.25L190.099 41.7812H188.354L187.198 34.3177H188.385" fill="white"/>
<path d="M193.182 37.4635H194.792V38.526H193.182V40.7135H195.208V41.7812H192.01V34.3177H195.208V35.3802H193.182" fill="white"/>
<path d="M197.323 35.3802V37.6771H197.781C198.219 37.6771 198.484 37.4844 198.484 36.8854V36.151C198.484 35.6198 198.302 35.3802 197.885 35.3802H197.323ZM198.599 41.7812C198.536 41.5885 198.495 41.4687 198.495 40.8646V39.6875C198.495 38.9948 198.26 38.7396 197.729 38.7396H197.323V41.7812H196.151V34.3177H197.917C199.135 34.3177 199.656 34.8802 199.656 36.0312V36.6198C199.656 37.3854 199.411 37.875 198.891 38.125V38.1458C199.474 38.3906 199.667 38.9427 199.667 39.7239V40.875C199.667 41.2344 199.677 41.5052 199.797 41.7812" fill="white"/>
<path d="M201.823 35.3802V37.6771H202.281C202.719 37.6771 202.984 37.4844 202.984 36.8854V36.151C202.984 35.6198 202.802 35.3802 202.385 35.3802H201.823ZM203.104 41.7812C203.036 41.5885 202.995 41.4687 202.995 40.8646V39.6875C202.995 38.9948 202.76 38.7396 202.229 38.7396H201.823V41.7812H200.651V34.3177H202.422C203.635 34.3177 204.156 34.8802 204.156 36.0312V36.6198C204.156 37.3854 203.911 37.875 203.391 38.125V38.1458C203.974 38.3906 204.167 38.9427 204.167 39.7239V40.875C204.167 41.2344 204.182 41.5052 204.297 41.7812" fill="white"/>
<path d="M206.323 37.4635H207.932V38.526H206.323V40.7135H208.349V41.7812H205.151V34.3177H208.349V35.3802H206.323" fill="white"/>
<path d="M197.974 17.5573C196.875 17.5573 195.984 18.4531 195.984 19.5468C195.984 20.6458 196.875 21.5364 197.974 21.5364C199.073 21.5364 199.964 20.6458 199.964 19.5468C199.964 18.4531 199.073 17.5573 197.974 17.5573ZM197.974 23.2083C195.958 23.2083 194.312 21.5677 194.312 19.5468C194.312 17.5312 195.958 15.8854 197.974 15.8854C199.995 15.8854 201.635 17.5312 201.635 19.5468C201.635 21.5677 199.995 23.2083 197.974 23.2083Z" fill="white"/>
<path d="M213.01 36.7395C213.01 41.7031 208.974 45.7448 204.01 45.7448H191.937C186.979 45.7448 182.937 41.7031 182.937 36.7395V22.1458C182.937 17.1823 186.979 13.1458 191.937 13.1458H204.01C208.974 13.1458 213.01 17.1823 213.01 22.1458V36.7395ZM204.01 11.5573H191.937C186.099 11.5573 181.349 16.3073 181.349 22.1458V36.7395C181.349 40.7031 183.562 44.125 186.792 45.9375C186.573 46.1041 186.417 46.3593 186.417 46.6562V48.4375C186.417 48.9427 186.828 49.3541 187.328 49.3541H208.62C209.12 49.3541 209.531 48.9427 209.531 48.4375V46.6562C209.531 46.3593 209.375 46.1041 209.156 45.9375C212.385 44.125 214.594 40.7031 214.594 36.7395V22.1458C214.594 16.3073 209.844 11.5573 204.01 11.5573Z" fill="white"/>
<path d="M28.5624 25.8802C26.8697 28.375 28.3072 31.6458 30.052 33.3073C31.6458 34.8177 32.9218 35.1771 33.0885 35.2187L33.901 33.6614L36.2447 40.0729L29.6197 41.4166L30.4999 39.7864L29.6041 39.2812C26.8124 37.4687 26.2239 34.9948 26.0312 34.2239C25.6978 32.8958 25.203 28.9271 28.5624 25.8802Z" fill="#1C1C1B"/>
<path d="M28.5312 25.9895C29.7344 28.75 33.2708 29.2812 35.6042 28.6875C37.6771 28.1614 38.6615 27.3073 38.8281 27.151L38.8177 27.1354L37.9323 25.6041L44.599 27.0625L42.1875 33.375L41.2917 31.7864L40.4219 32.2604C37.3958 33.651 34.9896 32.8281 34.2344 32.5833C32.9375 32.151 29.3125 30.4531 28.5312 25.9895Z" fill="#1C1C1B"/>
<path d="M40.3177 19.3281C39.8541 22.6302 37.8698 24.2135 37.25 24.7135C36.1875 25.5729 32.802 27.7031 28.6198 25.9531C31.5937 26.4323 33.9531 23.7448 34.7135 21.4583C35.401 19.4062 35.1979 18.1094 35.1562 17.9062H35.1354L33.3698 17.8281L38.1823 12.9896L42.2083 18.4271L40.3906 18.3229" fill="#1C1C1B"/>
<path fill-rule="evenodd" clip-rule="evenodd" d="M20.0938 16.5468C18.5729 16.5468 17.3438 15.3177 17.3438 13.7968C17.3438 12.276 18.5729 11.0416 20.0938 11.0416C21.6146 11.0416 22.849 12.276 22.849 13.7968C22.849 15.3177 21.6146 16.5468 20.0938 16.5468Z" fill="#1C1C1B"/>
<path d="M15.8333 29.9323C16.0677 29.2916 16.4167 29.3281 16.4167 29.3281C16.4167 29.3281 16.7344 29.2604 16.9115 29.9114L19.4844 38.9479C17.3385 38.3229 15.3802 37.2552 13.7135 35.8489L15.8333 29.9323ZM23.8594 5.80725C13.9167 5.80725 5.82812 13.8958 5.82812 23.8385C5.82812 33.7812 13.9167 41.8698 23.8594 41.8698C24.3906 41.8698 24.9115 41.8385 25.4323 41.7916L25.5521 43.5989L28.8542 40.4114L25.1615 37.5937L25.3021 39.4948C24.8281 39.5416 24.3438 39.5729 23.8594 39.5729C23.0938 39.5729 22.3438 39.5104 21.6094 39.4062L21.5365 38.927L19.8229 24.3281C19.5885 21.5729 21.1615 21.1354 22.1354 21.5468L27.6042 23.7395C28.2292 24.0156 28.5313 23.4895 28.5313 23.4895C28.5313 23.4895 28.8854 22.9375 28.25 22.5364C28.25 22.5364 20.7969 17.5937 19.2083 17.2968C17.0417 16.8958 14.8958 18.6458 14.4219 20.9323L11.776 33.901C9.5 31.1718 8.125 27.6614 8.125 23.8385C8.125 15.1614 15.1823 8.10413 23.8594 8.10413C28.4948 8.10413 32.6667 10.1198 35.5469 13.3177L37.1615 11.677C33.8646 8.07288 29.1198 5.80725 23.8594 5.80725Z" fill="#1C1C1B"/>
<path d="M129.447 40.364H129.783C129.991 40.364 130.159 40.318 130.287 40.226C130.415 40.134 130.479 39.964 130.479 39.716C130.479 39.592 130.461 39.49 130.425 39.41C130.393 39.326 130.347 39.26 130.287 39.212C130.231 39.16 130.163 39.124 130.083 39.104C130.003 39.084 129.915 39.074 129.819 39.074H129.447V40.364ZM129.447 38.474H129.693C129.933 38.474 130.107 38.432 130.215 38.348C130.327 38.26 130.383 38.114 130.383 37.91C130.383 37.706 130.333 37.562 130.233 37.478C130.133 37.394 129.975 37.352 129.759 37.352H129.447V38.474ZM128.583 36.716H130.029C130.205 36.716 130.367 36.734 130.515 36.77C130.667 36.806 130.797 36.866 130.905 36.95C131.013 37.034 131.097 37.146 131.157 37.286C131.217 37.426 131.247 37.598 131.247 37.802C131.247 38.034 131.193 38.234 131.085 38.402C130.977 38.566 130.815 38.678 130.599 38.738V38.75C130.839 38.782 131.029 38.884 131.169 39.056C131.309 39.228 131.379 39.458 131.379 39.746C131.379 39.914 131.357 40.074 131.313 40.226C131.269 40.378 131.193 40.512 131.085 40.628C130.981 40.74 130.843 40.83 130.671 40.898C130.503 40.966 130.293 41 130.041 41H128.583V36.716ZM132.691 38.858C132.691 39.146 132.697 39.392 132.709 39.596C132.725 39.796 132.753 39.96 132.793 40.088C132.837 40.212 132.897 40.304 132.973 40.364C133.053 40.42 133.157 40.448 133.285 40.448C133.413 40.448 133.515 40.42 133.591 40.364C133.671 40.304 133.731 40.212 133.771 40.088C133.815 39.96 133.843 39.796 133.855 39.596C133.871 39.392 133.879 39.146 133.879 38.858C133.879 38.57 133.871 38.326 133.855 38.126C133.843 37.926 133.815 37.762 133.771 37.634C133.731 37.506 133.671 37.414 133.591 37.358C133.515 37.298 133.413 37.268 133.285 37.268C133.157 37.268 133.053 37.298 132.973 37.358C132.897 37.414 132.837 37.506 132.793 37.634C132.753 37.762 132.725 37.926 132.709 38.126C132.697 38.326 132.691 38.57 132.691 38.858ZM131.827 38.858C131.827 38.534 131.841 38.236 131.869 37.964C131.901 37.688 131.967 37.452 132.067 37.256C132.171 37.06 132.319 36.908 132.511 36.8C132.703 36.688 132.961 36.632 133.285 36.632C133.609 36.632 133.867 36.688 134.059 36.8C134.251 36.908 134.397 37.06 134.497 37.256C134.601 37.452 134.667 37.688 134.695 37.964C134.727 38.236 134.743 38.534 134.743 38.858C134.743 39.186 134.727 39.486 134.695 39.758C134.667 40.03 134.601 40.264 134.497 40.46C134.397 40.656 134.251 40.806 134.059 40.91C133.867 41.014 133.609 41.066 133.285 41.066C132.961 41.066 132.703 41.014 132.511 40.91C132.319 40.806 132.171 40.656 132.067 40.46C131.967 40.264 131.901 40.03 131.869 39.758C131.841 39.486 131.827 39.186 131.827 38.858ZM136.061 36.716V39.704C136.061 39.812 136.067 39.912 136.079 40.004C136.095 40.092 136.121 40.17 136.157 40.238C136.197 40.302 136.249 40.354 136.313 40.394C136.381 40.43 136.465 40.448 136.565 40.448C136.669 40.448 136.753 40.43 136.817 40.394C136.881 40.354 136.931 40.302 136.967 40.238C137.007 40.17 137.033 40.092 137.045 40.004C137.061 39.912 137.069 39.812 137.069 39.704V36.716H137.933V39.704C137.933 39.976 137.895 40.202 137.819 40.382C137.743 40.558 137.641 40.698 137.513 40.802C137.385 40.906 137.239 40.976 137.075 41.012C136.911 41.048 136.741 41.066 136.565 41.066C136.389 41.066 136.219 41.05 136.055 41.018C135.891 40.986 135.745 40.922 135.617 40.826C135.489 40.726 135.387 40.586 135.311 40.406C135.235 40.226 135.197 39.992 135.197 39.704V36.716H136.061ZM140.988 36.716V37.424H140.052V41H139.188V37.424H138.252V36.716H140.988ZM143.757 36.716V37.424H142.227V38.432H143.667V39.14H142.227V40.292H143.817V41H141.363V36.716H143.757ZM144.293 41V36.716H145.157V41H144.293ZM145.798 41V36.716H146.662V40.292H148.192V41H145.798ZM148.575 41V36.716H149.439V40.292H150.969V41H148.575ZM153.747 36.716V37.424H152.217V38.432H153.657V39.14H152.217V40.292H153.807V41H151.353V36.716H153.747ZM158.077 36.716V37.424H156.547V38.432H157.987V39.14H156.547V40.292H158.137V41H155.683V36.716H158.077ZM159.567 36.716L160.611 39.65H160.623V36.716H161.415V41H160.431L159.375 38H159.363V41H158.571V36.716H159.567ZM138.164 43.716L138.77 46.884H138.788L139.424 43.716H140.318L139.334 48H138.224L137.24 43.716H138.164ZM143.027 43.716V44.424H141.497V45.432H142.937V46.14H141.497V47.292H143.087V48H140.633V43.716H143.027ZM143.522 43.716H145.118C145.478 43.716 145.758 43.808 145.958 43.992C146.158 44.172 146.258 44.448 146.258 44.82C146.258 45.108 146.2 45.344 146.084 45.528C145.968 45.708 145.788 45.824 145.544 45.876V45.888C145.76 45.92 145.918 45.99 146.018 46.098C146.118 46.206 146.18 46.38 146.204 46.62C146.212 46.7 146.218 46.788 146.222 46.884C146.226 46.976 146.23 47.08 146.234 47.196C146.242 47.424 146.254 47.598 146.27 47.718C146.294 47.838 146.346 47.92 146.426 47.964V48H145.49C145.446 47.94 145.418 47.872 145.406 47.796C145.394 47.716 145.386 47.634 145.382 47.55L145.358 46.728C145.35 46.56 145.308 46.428 145.232 46.332C145.156 46.236 145.028 46.188 144.848 46.188H144.386V48H143.522V43.716ZM144.386 45.588H144.746C144.954 45.588 145.114 45.54 145.226 45.444C145.338 45.344 145.394 45.178 145.394 44.946C145.394 44.55 145.194 44.352 144.794 44.352H144.386V45.588ZM146.856 43.716H148.452C148.812 43.716 149.092 43.808 149.292 43.992C149.492 44.172 149.592 44.448 149.592 44.82C149.592 45.108 149.534 45.344 149.418 45.528C149.302 45.708 149.122 45.824 148.878 45.876V45.888C149.094 45.92 149.252 45.99 149.352 46.098C149.452 46.206 149.514 46.38 149.538 46.62C149.546 46.7 149.552 46.788 149.556 46.884C149.56 46.976 149.564 47.08 149.568 47.196C149.576 47.424 149.588 47.598 149.604 47.718C149.628 47.838 149.68 47.92 149.76 47.964V48H148.824C148.78 47.94 148.752 47.872 148.74 47.796C148.728 47.716 148.72 47.634 148.716 47.55L148.692 46.728C148.684 46.56 148.642 46.428 148.566 46.332C148.49 46.236 148.362 46.188 148.182 46.188H147.72V48H146.856V43.716ZM147.72 45.588H148.08C148.288 45.588 148.448 45.54 148.56 45.444C148.672 45.344 148.728 45.178 148.728 44.946C148.728 44.55 148.528 44.352 148.128 44.352H147.72V45.588ZM152.584 43.716V44.424H151.054V45.432H152.494V46.14H151.054V47.292H152.644V48H150.19V43.716H152.584Z" fill="#1C1C1B"/>
<path d="M144.403 16.9245C144.602 16.8756 144.742 16.6996 144.742 16.4943V13.2714H145.745V16.491C145.745 16.6963 145.885 16.8756 146.088 16.9245C146.909 17.12 147.482 17.8532 147.482 18.7005V31.5173C147.482 31.8464 147.215 32.1104 146.889 32.1104H143.598C143.272 32.1104 143.005 31.8464 143.005 31.5173V18.7005C143.005 17.8565 143.582 17.1265 144.403 16.9245ZM144.608 11.7951H145.879V12.0949H144.608V11.7951ZM146.632 16.1652V12.8282C146.632 12.7793 146.625 12.7272 146.609 12.6815C146.71 12.5479 146.765 12.385 146.765 12.2155V11.7691C146.765 11.3454 146.423 11 146 11H144.487C144.067 11 143.722 11.3454 143.722 11.7691V12.2155C143.722 12.385 143.777 12.5479 143.878 12.6815C143.862 12.7272 143.855 12.7793 143.855 12.8282V16.1684C142.812 16.5725 142.118 17.573 142.118 18.7005V31.5173C142.118 32.3352 142.783 33 143.598 33H146.889C147.707 33 148.369 32.3352 148.369 31.5173V18.7005C148.369 17.5664 147.678 16.566 146.632 16.1652Z" fill="#1C1C1B"/>
<path d="M143.653 19.6749C143.855 19.6749 144.015 19.5152 144.015 19.3131C144.015 19.1144 143.855 18.9514 143.653 18.9514C143.454 18.9514 143.292 19.1144 143.292 19.3131C143.292 19.5152 143.454 19.6749 143.653 19.6749Z" fill="#1C1C1B"/>
<path d="M144.416 31.7063C144.706 31.6541 144.993 31.615 145.279 31.5987C145.566 31.5792 145.85 31.5792 146.136 31.6118C146.423 31.6411 146.704 31.703 147.003 31.7942C146.785 31.5694 146.501 31.413 146.195 31.3185C145.892 31.2272 145.569 31.1979 145.253 31.2207C144.941 31.2403 144.631 31.3119 144.338 31.4195C144.048 31.5303 143.771 31.6737 143.533 31.879C143.836 31.8171 144.126 31.7551 144.416 31.7063Z" fill="#1C1C1B"/>
<path d="M143.907 30.6732V20.4537C143.907 20.3136 143.793 20.1995 143.653 20.1995C143.513 20.1995 143.399 20.3136 143.399 20.4537V30.6732C143.399 30.8101 143.513 30.9242 143.653 30.9242C143.793 30.9242 143.907 30.8101 143.907 30.6732Z" fill="#1C1C1B"/>
</g>
<defs>
<clipPath id="clip0_19_293">
<rect width="227" height="62" fill="white"/>
</clipPath>
</defs>
</svg>
