<svg width="260" height="61" viewBox="0 0 260 61" fill="none" xmlns="http://www.w3.org/2000/svg">
<g clip-path="url(#clip0_66_3998)">
<path d="M24.6979 60.4688C11.0781 60.4688 0 49.5208 0 36.0625V0H234.948C248.563 0 259.641 10.9479 259.641 24.4062V60.4688" fill="white"/>
<path d="M222.083 52.9114H69.1353C59.6874 52.9114 51.9999 45.3541 51.9999 36.0625V7.55725H204.948C214.396 7.55725 222.083 15.1145 222.083 24.4062V52.9114ZM204.948 5.66663H50.1145V36.0625C50.1145 46.3958 58.6458 54.802 69.1353 54.802H223.969V24.4062C223.969 14.0729 215.437 5.66663 204.948 5.66663Z" fill="#6B5B4A"/>
<path d="M196.714 54.802L209.724 28.2239L196.432 5.66663H234.948C245.437 5.66663 253.969 14.0729 253.969 24.4062V54.802" fill="#6B5B4A"/>
<path d="M102.901 5.66663H50.1145V36.0625C50.1145 46.3958 58.6458 54.802 69.1353 54.802H121.927V24.4062C121.927 14.0729 113.391 5.66663 102.901 5.66663Z" fill="#6B5B4A"/>
<path d="M63.651 29.3594C58.8489 29.3594 54.9583 33.25 54.9583 38.0521C54.9583 42.8542 58.8489 46.7448 63.651 46.7448C68.4583 46.7448 72.3489 42.8542 72.3489 38.0521C72.3489 33.25 68.4583 29.3594 63.651 29.3594Z" fill="white"/>
<path d="M69.3229 39.4688H65.0729V43.7188H62.2344V39.4688H57.9844V36.6355H62.2344V32.3802H65.0729V36.6355H69.3229" fill="#1C1C1B"/>
<path d="M55.7864 26.5937V17.1979H58.2708V24.5156H61.828V26.5937" fill="white"/>
<path d="M62.9426 26.5937V17.1979H69.0155V19.276H65.4322V20.7552H68.4947V22.8385H65.4322V24.5156H69.1614V26.5937" fill="white"/>
<path d="M75.0885 26.5937V19.276H72.6041V17.1979H80.0677V19.276H77.5781V26.5937" fill="white"/>
<path d="M83.5521 21.4739H84.4479C85.4479 21.4739 85.9531 21.0625 85.9531 20.2343C85.9531 19.8281 85.8229 19.5468 85.5677 19.3958C85.3125 19.2395 84.9375 19.1614 84.4479 19.1614H83.5521V21.4739ZM81.0625 26.5989V17.1979H84.6198C85.125 17.1979 85.6042 17.2448 86.0625 17.3385C86.5208 17.4375 86.9167 17.5989 87.2604 17.8333C87.6042 18.0625 87.875 18.375 88.0781 18.7656C88.2813 19.1562 88.3802 19.6458 88.3802 20.2343C88.3802 20.9062 88.2448 21.4687 87.9688 21.9114C87.6979 22.3541 87.3281 22.6979 86.8646 22.9531L88.901 26.5989H86.125L84.5052 23.4427H83.5521V26.5989" fill="white"/>
<path d="M89.8698 26.5989H92.3593V17.1979H89.8698V26.5989Z" fill="white"/>
<path d="M75.3801 43.276V33.8698H81.5103V35.9531H77.8697V37.75H80.9895V39.8333H77.8697V43.276" fill="white"/>
<path d="M84.9218 38.7031L84.7604 39.3541H86.4948L86.3385 38.7031C86.2239 38.25 86.1041 37.7604 85.9895 37.2291C85.875 36.6979 85.7604 36.1979 85.6406 35.7239H85.5833C85.4791 36.2031 85.3698 36.7083 85.2604 37.2343C85.151 37.7604 85.0364 38.25 84.9218 38.7031ZM81.3073 43.276L84.1666 33.8698H87.1718L90.0364 43.276H87.4062L86.9427 41.276H84.3125L83.8489 43.276" fill="white"/>
<path d="M94.5624 43.4479C93.9687 43.4479 93.3958 43.3489 92.8541 43.151C92.3072 42.9531 91.8333 42.651 91.4218 42.2552C91.0103 41.8541 90.6822 41.3541 90.4426 40.75C90.203 40.1458 90.0833 39.4479 90.0833 38.6458C90.0833 37.8541 90.2083 37.151 90.4583 36.5416C90.7083 35.927 91.0416 35.4114 91.4635 34.9948C91.8801 34.5729 92.3645 34.25 92.9114 34.0312C93.4583 33.8073 94.026 33.6979 94.6249 33.6979C95.2499 33.6979 95.8124 33.8229 96.302 34.0677C96.7968 34.3125 97.2083 34.6041 97.5468 34.9427L96.2447 36.5312C96.0155 36.3333 95.776 36.1666 95.5312 36.0312C95.2812 35.9062 94.9999 35.8385 94.6822 35.8385C94.401 35.8385 94.1405 35.901 93.8958 36.026C93.651 36.151 93.4322 36.3333 93.2447 36.5625C93.0572 36.7916 92.9062 37.0781 92.7968 37.4166C92.6822 37.75 92.6301 38.1354 92.6301 38.5573C92.6301 39.4479 92.8124 40.125 93.1874 40.5989C93.5572 41.0677 94.0468 41.3073 94.651 41.3073C95.0208 41.3073 95.3437 41.2291 95.6301 41.0677C95.9114 40.9062 96.1562 40.7187 96.3593 40.4948L97.6614 42.0573C97.2551 42.5208 96.7916 42.8698 96.2655 43.0989C95.7395 43.3333 95.1718 43.4479 94.5624 43.4479Z" fill="white"/>
<path d="M98.6198 43.276H101.104V33.8698H98.6198V43.276Z" fill="white"/>
<path d="M102.875 43.276V33.8698H105.365V41.1927H108.922V43.276" fill="white"/>
<path d="M110.031 43.276V33.8698H116.109V35.9531H112.521V37.4323H115.589V39.5156H112.521V41.1927H116.255V43.276" fill="white"/>
<path d="M28.4062 25.7448C26.7135 28.2343 28.151 31.5104 29.8958 33.1718C31.4895 34.6823 32.7655 35.0364 32.9322 35.0781L33.7447 33.5208L36.0885 39.9323L29.4635 41.2812L30.3437 39.6458L29.4478 39.1458C26.6562 37.3281 26.0676 34.8593 25.8749 34.0885C25.5416 32.7604 25.0468 28.7864 28.4062 25.7448Z" fill="#6B5B4A"/>
<path d="M28.375 25.8489C29.5781 28.6093 33.1146 29.1406 35.4479 28.552C37.5208 28.026 38.5052 27.1718 38.6719 27.0156L38.6615 27L37.776 25.4635L44.4427 26.9218L42.0313 33.2395L41.1354 31.6458L40.2656 32.1198C37.2396 33.5104 34.8333 32.6927 34.0781 32.4427C32.7813 32.0156 29.1562 30.3125 28.375 25.8489Z" fill="#6B5B4A"/>
<path d="M40.1613 19.1927C39.6978 22.4895 37.7134 24.0729 37.0936 24.5729C36.0311 25.4375 32.6457 27.5677 28.4634 25.8177C31.4373 26.2916 33.7967 23.6041 34.5571 21.3177C35.2446 19.2656 35.0415 17.9687 34.9998 17.7708L34.979 17.7656L33.2134 17.6927L38.0259 12.8541L42.0519 18.2864L40.2342 18.1823" fill="#6B5B4A"/>
<path fill-rule="evenodd" clip-rule="evenodd" d="M19.9375 16.4115C18.4167 16.4115 17.1875 15.1823 17.1875 13.6563C17.1875 12.1354 18.4167 10.9062 19.9375 10.9062C21.4583 10.9062 22.6927 12.1354 22.6927 13.6563C22.6927 15.1823 21.4583 16.4115 19.9375 16.4115Z" fill="#6B5B4A"/>
<path d="M15.6771 29.7968C15.9115 29.151 16.2604 29.1927 16.2604 29.1927C16.2604 29.1927 16.5781 29.125 16.7552 29.7708L19.3281 38.8073C17.1823 38.1823 15.224 37.1198 13.5573 35.7083L15.6771 29.7968ZM23.7031 5.66663C13.7604 5.66663 5.67188 13.7552 5.67188 23.6979C5.67188 33.6406 13.7604 41.7291 23.7031 41.7291C24.2344 41.7291 24.7552 41.6979 25.276 41.651L25.3958 43.4635L28.6979 40.2708L25.0052 37.4531L25.1458 39.3541C24.6719 39.401 24.1875 39.4323 23.7031 39.4323C22.9375 39.4323 22.1875 39.375 21.4531 39.2656L21.3802 38.7864L19.6667 24.1875C19.4323 21.4323 21.0052 20.9948 21.9792 21.4062L27.4479 23.6041C28.0729 23.875 28.375 23.3489 28.375 23.3489C28.375 23.3489 28.7292 22.802 28.0938 22.3958C28.0938 22.3958 20.6406 17.4583 19.0521 17.1562C16.8854 16.7552 14.7396 18.5104 14.2656 20.7968L11.6198 33.7604C9.34375 31.0312 7.96875 27.5208 7.96875 23.6979C7.96875 15.0208 15.026 7.9635 23.7031 7.9635C28.3385 7.9635 32.5104 9.97913 35.3906 13.177L37.0052 11.5364C33.7083 7.93225 28.9635 5.66663 23.7031 5.66663Z" fill="#6B5B4A"/>
<path fill-rule="evenodd" clip-rule="evenodd" d="M225.184 13.5477C222.848 13.829 220.995 15.7189 220.697 18.1033L220.693 18.1036L220.569 18.8693C220.562 18.8856 220.558 18.9007 220.558 18.914C220.554 18.9403 220.549 18.9665 220.545 18.9927C220.517 19.164 220.489 19.3314 220.515 19.5044L220.513 21.0954C217.452 24.2948 216.633 27.1159 217.139 29.2647C217.309 29.9622 217.62 30.6156 218.051 31.1832C218.482 31.7508 219.024 32.2202 219.642 32.5614C219.922 32.7258 220.213 32.8682 220.513 32.9874L220.511 34.7847L220.513 34.8477C220.49 35.4096 220.562 35.9713 220.728 36.5076C220.955 37.0944 221.311 37.6198 221.769 38.0432C222.048 38.3281 222.352 38.5852 222.679 38.8111C223.03 39.056 223.399 39.2719 223.783 39.4567C225.887 40.4919 228.644 41.0038 231.334 41C234.024 40.9962 236.734 40.4594 238.81 39.4032C239.316 39.1492 239.791 38.8357 240.226 38.4692C240.646 38.115 241.01 37.6961 241.304 37.2276C241.888 36.2837 241.886 35.9049 241.883 35.0104L241.882 35.0005L241.886 20.0602C241.956 19.8477 241.995 19.6255 242 19.4012C242 19.1676 241.963 18.942 241.893 18.7249C241.348 16.0509 239.424 14.0935 236.857 13.6116C235.861 11.4138 233.535 10 231.006 10C228.502 10 226.195 11.3865 225.184 13.5477ZM231.245 22.4255C227.72 22.4255 224.58 21.643 222.551 20.4235C222.188 19.5805 222.237 18.5859 222.269 18.2929C222.501 16.5087 223.988 15.1323 225.789 15.1323C225.966 15.1323 226.14 15.1455 226.309 15.1711C226.711 13.1523 228.661 11.6207 231.006 11.6207C233.336 11.6207 235.276 13.1331 235.695 15.1331C235.723 15.1326 235.75 15.1323 235.778 15.1323C238.041 15.1323 240.03 16.9544 240.478 19.3712C240.47 19.8542 240.363 20.1051 240.276 20.2103C238.268 21.5511 234.971 22.4255 231.245 22.4255ZM218.668 28.8903C218.352 27.5052 218.811 25.6874 220.508 23.5283L220.506 31.2072L220.426 31.1594C219.996 30.9258 219.618 30.6036 219.315 30.2131C219.013 29.8226 218.793 29.3722 218.668 28.8903ZM240.224 21.9951C239.664 22.3566 239.068 22.6569 238.447 22.8909C236.551 23.6243 233.985 24.0942 231.196 24.0961C228.758 24.1265 226.334 23.6966 224.048 22.8278C223.386 22.5663 222.756 22.2272 222.17 21.8174L222.168 31.7898C222.702 31.8871 223.246 31.9179 223.787 31.8814C226.341 31.7229 229.114 30.128 230.476 26.6441C230.556 26.4477 230.709 26.2916 230.901 26.2096C231.093 26.1276 231.309 26.1262 231.502 26.2057C231.694 26.2853 231.849 26.4394 231.932 26.6348C232.015 26.8301 232.019 27.051 231.944 27.2496C230.321 31.3982 226.973 33.3025 223.876 33.505C223.304 33.5419 222.729 33.5188 222.16 33.4362L222.168 34.8458C222.149 35.212 222.187 35.579 222.282 35.9326C222.432 36.2819 222.655 36.5935 222.934 36.8456C223.143 37.0558 223.369 37.2457 223.612 37.4129C223.893 37.6103 224.188 37.7852 224.496 37.9363C226.369 38.8569 228.836 39.3249 231.323 39.3077C233.809 39.2905 236.236 38.834 238.073 37.8885C238.463 37.694 238.83 37.4543 239.167 37.1742C239.454 36.9324 239.703 36.6463 239.905 36.3261C240.166 35.9455 240.281 35.4797 240.228 35.0177C240.227 35.0076 240.227 34.9649 240.227 34.918C240.227 34.8501 240.226 34.7732 240.224 34.7732L240.224 21.9951Z" fill="white"/>
<path d="M219.562 50.9442C219.054 50.9442 218.665 50.7996 218.395 50.5102C218.132 50.2209 218 49.8126 218 49.2853V45.6589C218 45.1317 218.132 44.7234 218.395 44.434C218.665 44.1447 219.054 44 219.562 44C220.07 44 220.456 44.1447 220.72 44.434C220.99 44.7234 221.125 45.1317 221.125 45.6589V46.3726H220.122V45.5914C220.122 45.1734 219.945 44.9645 219.591 44.9645C219.238 44.9645 219.061 45.1734 219.061 45.5914V49.3625C219.061 49.774 219.238 49.9798 219.591 49.9798C219.945 49.9798 220.122 49.774 220.122 49.3625V48.3305H221.125V49.2853C221.125 49.8126 220.99 50.2209 220.72 50.5102C220.456 50.7996 220.07 50.9442 219.562 50.9442Z" fill="white"/>
<path d="M223.312 50.9442C222.791 50.9442 222.393 50.7963 222.116 50.5006C221.84 50.2048 221.701 49.7869 221.701 49.2468V45.6975C221.701 45.1574 221.84 44.7394 222.116 44.4437C222.393 44.1479 222.791 44 223.312 44C223.833 44 224.231 44.1479 224.508 44.4437C224.784 44.7394 224.923 45.1574 224.923 45.6975V49.2468C224.923 49.7869 224.784 50.2048 224.508 50.5006C224.231 50.7963 223.833 50.9442 223.312 50.9442ZM223.312 49.9798C223.679 49.9798 223.862 49.7579 223.862 49.3143V45.63C223.862 45.1863 223.679 44.9645 223.312 44.9645C222.946 44.9645 222.762 45.1863 222.762 45.63V49.3143C222.762 49.7579 222.946 49.9798 223.312 49.9798Z" fill="white"/>
<path d="M225.64 44.0964H227.154L227.83 48.9285H227.849L228.524 44.0964H230.038V50.8478H229.035V45.7361H229.016L228.244 50.8478H227.357L226.585 45.7361H226.566V50.8478H225.64V44.0964Z" fill="white"/>
<path d="M230.83 44.0964H232.392C232.92 44.0964 233.315 44.2379 233.579 44.5208C233.842 44.8037 233.974 45.2185 233.974 45.765V46.4305C233.974 46.977 233.842 47.3917 233.579 47.6747C233.315 47.9576 232.92 48.099 232.392 48.099H231.891V50.8478H230.83V44.0964ZM232.392 47.1345C232.566 47.1345 232.695 47.0863 232.778 46.9899C232.868 46.8934 232.913 46.7295 232.913 46.498V45.6975C232.913 45.466 232.868 45.302 232.778 45.2056C232.695 45.1091 232.566 45.0609 232.392 45.0609H231.891V47.1345H232.392Z" fill="white"/>
<path d="M236.084 50.9442C235.563 50.9442 235.164 50.7963 234.888 50.5006C234.611 50.2048 234.473 49.7869 234.473 49.2468V45.6975C234.473 45.1574 234.611 44.7394 234.888 44.4437C235.164 44.1479 235.563 44 236.084 44C236.605 44 237.003 44.1479 237.28 44.4437C237.556 44.7394 237.694 45.1574 237.694 45.6975V49.2468C237.694 49.7869 237.556 50.2048 237.28 50.5006C237.003 50.7963 236.605 50.9442 236.084 50.9442ZM236.084 49.9798C236.45 49.9798 236.634 49.7579 236.634 49.3143V45.63C236.634 45.1863 236.45 44.9645 236.084 44.9645C235.717 44.9645 235.534 45.1863 235.534 45.63V49.3143C235.534 49.7579 235.717 49.9798 236.084 49.9798Z" fill="white"/>
<path d="M239.791 50.9442C239.277 50.9442 238.888 50.7996 238.624 50.5102C238.361 50.2144 238.229 49.7933 238.229 49.2468V48.861H239.232V49.3239C239.232 49.7611 239.415 49.9798 239.782 49.9798C239.962 49.9798 240.097 49.9283 240.187 49.8254C240.283 49.7161 240.331 49.5425 240.331 49.3046C240.331 49.0217 240.267 48.7742 240.138 48.562C240.01 48.3434 239.772 48.083 239.425 47.7807C238.987 47.395 238.682 47.0477 238.508 46.7391C238.335 46.4241 238.248 46.0704 238.248 45.6782C238.248 45.1445 238.383 44.733 238.653 44.4437C238.923 44.1479 239.315 44 239.83 44C240.338 44 240.72 44.1479 240.977 44.4437C241.241 44.733 241.373 45.1509 241.373 45.6975V45.9772H240.37V45.63C240.37 45.3985 240.325 45.2313 240.235 45.1284C240.145 45.0191 240.013 44.9645 239.839 44.9645C239.486 44.9645 239.309 45.1799 239.309 45.6107C239.309 45.855 239.373 46.0833 239.502 46.2955C239.637 46.5076 239.878 46.7648 240.225 47.067C240.669 47.4528 240.974 47.8033 241.141 48.1183C241.309 48.4334 241.392 48.8031 241.392 49.2275C241.392 49.7804 241.254 50.2048 240.977 50.5006C240.707 50.7963 240.312 50.9442 239.791 50.9442Z" fill="white"/>
<path d="M242.83 45.0609H241.721V44.0964H245V45.0609H243.891V50.8478H242.83V45.0609Z" fill="white"/>
<path d="M131.904 24.2H133.56L132.384 25.928H131.256L131.904 24.2ZM134.388 26.432V27.848H131.328V29.864H134.208V31.28H131.328V33.584H134.508V35H129.6V26.432H134.388ZM137.105 30.308H137.873C138.217 30.308 138.493 30.204 138.701 29.996C138.917 29.788 139.025 29.464 139.025 29.024C139.025 28.592 138.933 28.264 138.749 28.04C138.565 27.816 138.257 27.704 137.825 27.704H137.105V30.308ZM135.377 26.432H138.401C138.841 26.432 139.209 26.508 139.505 26.66C139.809 26.804 140.053 26.996 140.237 27.236C140.421 27.476 140.553 27.752 140.633 28.064C140.713 28.368 140.753 28.68 140.753 29C140.753 29.44 140.685 29.824 140.549 30.152C140.421 30.48 140.237 30.748 139.997 30.956C139.765 31.164 139.481 31.32 139.145 31.424C138.809 31.528 138.437 31.58 138.029 31.58H137.105V35H135.377V26.432ZM141.6 35V26.432H143.328V33.584H146.388V35H141.6ZM148.775 26.432V32.408C148.775 32.624 148.787 32.824 148.811 33.008C148.843 33.184 148.895 33.34 148.967 33.476C149.047 33.604 149.151 33.708 149.279 33.788C149.415 33.86 149.583 33.896 149.783 33.896C149.991 33.896 150.159 33.86 150.287 33.788C150.415 33.708 150.515 33.604 150.587 33.476C150.667 33.34 150.719 33.184 150.743 33.008C150.775 32.824 150.791 32.624 150.791 32.408V26.432H152.519V32.408C152.519 32.952 152.443 33.404 152.291 33.764C152.139 34.116 151.935 34.396 151.679 34.604C151.423 34.812 151.131 34.952 150.803 35.024C150.475 35.096 150.135 35.132 149.783 35.132C149.431 35.132 149.091 35.1 148.763 35.036C148.435 34.972 148.143 34.844 147.887 34.652C147.631 34.452 147.427 34.172 147.275 33.812C147.123 33.452 147.047 32.984 147.047 32.408V26.432H148.775ZM157.272 29.324C157.272 28.7 157.196 28.248 157.044 27.968C156.9 27.68 156.632 27.536 156.24 27.536C156.024 27.536 155.844 27.596 155.7 27.716C155.564 27.828 155.456 28.016 155.376 28.28C155.296 28.536 155.24 28.876 155.208 29.3C155.176 29.716 155.16 30.228 155.16 30.836C155.16 31.484 155.18 32.008 155.22 32.408C155.268 32.808 155.336 33.12 155.424 33.344C155.52 33.56 155.636 33.708 155.772 33.788C155.916 33.86 156.08 33.896 156.264 33.896C156.416 33.896 156.556 33.872 156.684 33.824C156.82 33.768 156.936 33.664 157.032 33.512C157.128 33.352 157.204 33.132 157.26 32.852C157.316 32.564 157.344 32.188 157.344 31.724H159.072C159.072 32.188 159.036 32.628 158.964 33.044C158.892 33.46 158.756 33.824 158.556 34.136C158.364 34.448 158.088 34.692 157.728 34.868C157.376 35.044 156.916 35.132 156.348 35.132C155.7 35.132 155.184 35.028 154.8 34.82C154.416 34.612 154.12 34.312 153.912 33.92C153.712 33.528 153.58 33.06 153.516 32.516C153.46 31.972 153.432 31.372 153.432 30.716C153.432 30.068 153.46 29.472 153.516 28.928C153.58 28.376 153.712 27.904 153.912 27.512C154.12 27.12 154.416 26.816 154.8 26.6C155.184 26.376 155.7 26.264 156.348 26.264C156.964 26.264 157.448 26.364 157.8 26.564C158.16 26.764 158.428 27.02 158.604 27.332C158.78 27.636 158.888 27.968 158.928 28.328C158.976 28.68 159 29.012 159 29.324H157.272ZM160.057 26.432H161.785V29.708H163.801V26.432H165.529V35H163.801V31.196H161.785V35H160.057V26.432ZM168.345 26.432V32.408C168.345 32.624 168.357 32.824 168.381 33.008C168.413 33.184 168.465 33.34 168.537 33.476C168.617 33.604 168.721 33.708 168.849 33.788C168.985 33.86 169.153 33.896 169.353 33.896C169.561 33.896 169.729 33.86 169.857 33.788C169.985 33.708 170.085 33.604 170.157 33.476C170.237 33.34 170.289 33.184 170.313 33.008C170.345 32.824 170.361 32.624 170.361 32.408V26.432H172.089V32.408C172.089 32.952 172.013 33.404 171.861 33.764C171.709 34.116 171.505 34.396 171.249 34.604C170.993 34.812 170.701 34.952 170.373 35.024C170.045 35.096 169.705 35.132 169.353 35.132C169.001 35.132 168.661 35.1 168.333 35.036C168.005 34.972 167.713 34.844 167.457 34.652C167.201 34.452 166.997 34.172 166.845 33.812C166.693 33.452 166.617 32.984 166.617 32.408V26.432H168.345ZM173.182 26.432H176.374C177.094 26.432 177.654 26.616 178.054 26.984C178.454 27.344 178.654 27.896 178.654 28.64C178.654 29.216 178.538 29.688 178.306 30.056C178.074 30.416 177.714 30.648 177.226 30.752V30.776C177.658 30.84 177.974 30.98 178.174 31.196C178.374 31.412 178.498 31.76 178.546 32.24C178.562 32.4 178.574 32.576 178.582 32.768C178.59 32.952 178.598 33.16 178.606 33.392C178.622 33.848 178.646 34.196 178.678 34.436C178.726 34.676 178.83 34.84 178.99 34.928V35H177.118C177.03 34.88 176.974 34.744 176.95 34.592C176.926 34.432 176.91 34.268 176.902 34.1L176.854 32.456C176.838 32.12 176.754 31.856 176.602 31.664C176.45 31.472 176.194 31.376 175.834 31.376H174.91V35H173.182V26.432ZM174.91 30.176H175.63C176.046 30.176 176.366 30.08 176.59 29.888C176.814 29.688 176.926 29.356 176.926 28.892C176.926 28.1 176.526 27.704 175.726 27.704H174.91V30.176ZM184.638 26.432V27.848H181.578V29.864H184.458V31.28H181.578V33.584H184.758V35H179.85V26.432H184.638ZM187.019 32.324V32.576C187.019 32.776 187.035 32.96 187.067 33.128C187.099 33.288 187.159 33.424 187.247 33.536C187.335 33.648 187.451 33.736 187.595 33.8C187.747 33.864 187.935 33.896 188.159 33.896C188.423 33.896 188.659 33.812 188.867 33.644C189.083 33.468 189.191 33.2 189.191 32.84C189.191 32.648 189.163 32.484 189.107 32.348C189.059 32.204 188.975 32.076 188.855 31.964C188.735 31.852 188.575 31.752 188.375 31.664C188.183 31.568 187.943 31.472 187.655 31.376C187.271 31.248 186.939 31.108 186.659 30.956C186.379 30.804 186.143 30.628 185.951 30.428C185.767 30.22 185.631 29.984 185.543 29.72C185.455 29.448 185.411 29.136 185.411 28.784C185.411 27.936 185.647 27.304 186.119 26.888C186.591 26.472 187.239 26.264 188.063 26.264C188.447 26.264 188.799 26.308 189.119 26.396C189.447 26.476 189.727 26.612 189.959 26.804C190.199 26.988 190.383 27.228 190.511 27.524C190.647 27.812 190.715 28.16 190.715 28.568V28.808H189.059C189.059 28.4 188.987 28.088 188.843 27.872C188.699 27.648 188.459 27.536 188.123 27.536C187.931 27.536 187.771 27.564 187.643 27.62C187.515 27.676 187.411 27.752 187.331 27.848C187.259 27.936 187.207 28.04 187.175 28.16C187.151 28.28 187.139 28.404 187.139 28.532C187.139 28.796 187.195 29.02 187.307 29.204C187.419 29.38 187.659 29.544 188.027 29.696L189.359 30.272C189.687 30.416 189.955 30.568 190.163 30.728C190.371 30.88 190.535 31.048 190.655 31.232C190.783 31.408 190.871 31.604 190.919 31.82C190.967 32.036 190.991 32.276 190.991 32.54C190.991 33.444 190.727 34.104 190.199 34.52C189.679 34.928 188.951 35.132 188.015 35.132C187.039 35.132 186.339 34.92 185.915 34.496C185.499 34.072 185.291 33.464 185.291 32.672V32.324H187.019Z" fill="black"/>
</g>
<defs>
<clipPath id="clip0_66_3998">
<rect width="260" height="61" fill="white"/>
</clipPath>
</defs>
</svg>
