<svg width="270" height="61" viewBox="0 0 270 61" fill="none" xmlns="http://www.w3.org/2000/svg">
<path d="M24.6979 60.4688C11.0781 60.4688 0 49.5208 0 36.0625V0H234.948C248.563 0 259.641 10.9479 259.641 24.4062V60.4688" fill="white"/>
<path d="M222.083 52.9114H69.1353C59.6874 52.9114 51.9999 45.3541 51.9999 36.0625V7.55725H204.948C214.396 7.55725 222.083 15.1145 222.083 24.4062V52.9114ZM204.948 5.66663H50.1145V36.0625C50.1145 46.3958 58.6458 54.802 69.1353 54.802H223.969V24.4062C223.969 14.0729 215.437 5.66663 204.948 5.66663Z" fill="#333347"/>
<path d="M196.714 54.802L209.724 28.2239L196.432 5.66663H234.948C245.437 5.66663 253.969 14.0729 253.969 24.4062V54.802" fill="#333347"/>
<path d="M102.901 5.66663H50.1145V36.0625C50.1145 46.3958 58.6458 54.802 69.1353 54.802H121.927V24.4062C121.927 14.0729 113.391 5.66663 102.901 5.66663Z" fill="#333347"/>
<path d="M63.651 29.3594C58.8489 29.3594 54.9583 33.25 54.9583 38.0521C54.9583 42.8542 58.8489 46.7448 63.651 46.7448C68.4583 46.7448 72.3489 42.8542 72.3489 38.0521C72.3489 33.25 68.4583 29.3594 63.651 29.3594Z" fill="white"/>
<path d="M69.3229 39.4688H65.0729V43.7188H62.2344V39.4688H57.9844V36.6355H62.2344V32.3802H65.0729V36.6355H69.3229" fill="#1C1C1B"/>
<path d="M55.7864 26.5937V17.1979H58.2708V24.5156H61.828V26.5937" fill="white"/>
<path d="M62.9426 26.5937V17.1979H69.0155V19.276H65.4322V20.7552H68.4947V22.8385H65.4322V24.5156H69.1614V26.5937" fill="white"/>
<path d="M75.0885 26.5937V19.276H72.6041V17.1979H80.0677V19.276H77.5781V26.5937" fill="white"/>
<path d="M83.5521 21.4739H84.4479C85.4479 21.4739 85.9531 21.0625 85.9531 20.2343C85.9531 19.8281 85.8229 19.5468 85.5677 19.3958C85.3125 19.2395 84.9375 19.1614 84.4479 19.1614H83.5521V21.4739ZM81.0625 26.5989V17.1979H84.6198C85.125 17.1979 85.6042 17.2448 86.0625 17.3385C86.5208 17.4375 86.9167 17.5989 87.2604 17.8333C87.6042 18.0625 87.875 18.375 88.0781 18.7656C88.2813 19.1562 88.3802 19.6458 88.3802 20.2343C88.3802 20.9062 88.2448 21.4687 87.9688 21.9114C87.6979 22.3541 87.3281 22.6979 86.8646 22.9531L88.901 26.5989H86.125L84.5052 23.4427H83.5521V26.5989" fill="white"/>
<path d="M89.8698 26.5989H92.3593V17.1979H89.8698V26.5989Z" fill="white"/>
<path d="M75.3801 43.276V33.8698H81.5103V35.9531H77.8697V37.75H80.9895V39.8333H77.8697V43.276" fill="white"/>
<path d="M84.9218 38.7031L84.7604 39.3541H86.4948L86.3385 38.7031C86.2239 38.25 86.1041 37.7604 85.9895 37.2291C85.875 36.6979 85.7604 36.1979 85.6406 35.7239H85.5833C85.4791 36.2031 85.3698 36.7083 85.2604 37.2343C85.151 37.7604 85.0364 38.25 84.9218 38.7031ZM81.3073 43.276L84.1666 33.8698H87.1718L90.0364 43.276H87.4062L86.9427 41.276H84.3125L83.8489 43.276" fill="white"/>
<path d="M94.5624 43.4479C93.9687 43.4479 93.3958 43.3489 92.8541 43.151C92.3072 42.9531 91.8333 42.651 91.4218 42.2552C91.0103 41.8541 90.6822 41.3541 90.4426 40.75C90.203 40.1458 90.0833 39.4479 90.0833 38.6458C90.0833 37.8541 90.2083 37.151 90.4583 36.5416C90.7083 35.927 91.0416 35.4114 91.4635 34.9948C91.8801 34.5729 92.3645 34.25 92.9114 34.0312C93.4583 33.8073 94.026 33.6979 94.6249 33.6979C95.2499 33.6979 95.8124 33.8229 96.302 34.0677C96.7968 34.3125 97.2083 34.6041 97.5468 34.9427L96.2447 36.5312C96.0155 36.3333 95.776 36.1666 95.5312 36.0312C95.2812 35.9062 94.9999 35.8385 94.6822 35.8385C94.401 35.8385 94.1405 35.901 93.8958 36.026C93.651 36.151 93.4322 36.3333 93.2447 36.5625C93.0572 36.7916 92.9062 37.0781 92.7968 37.4166C92.6822 37.75 92.6301 38.1354 92.6301 38.5573C92.6301 39.4479 92.8124 40.125 93.1874 40.5989C93.5572 41.0677 94.0468 41.3073 94.651 41.3073C95.0208 41.3073 95.3437 41.2291 95.6301 41.0677C95.9114 40.9062 96.1562 40.7187 96.3593 40.4948L97.6614 42.0573C97.2551 42.5208 96.7916 42.8698 96.2655 43.0989C95.7395 43.3333 95.1718 43.4479 94.5624 43.4479Z" fill="white"/>
<path d="M98.6198 43.276H101.104V33.8698H98.6198V43.276Z" fill="white"/>
<path d="M102.875 43.276V33.8698H105.365V41.1927H108.922V43.276" fill="white"/>
<path d="M110.031 43.276V33.8698H116.109V35.9531H112.521V37.4323H115.589V39.5156H112.521V41.1927H116.255V43.276" fill="white"/>
<path d="M28.4062 25.7448C26.7135 28.2343 28.151 31.5104 29.8958 33.1718C31.4895 34.6823 32.7655 35.0364 32.9322 35.0781L33.7447 33.5208L36.0885 39.9323L29.4635 41.2812L30.3437 39.6458L29.4478 39.1458C26.6562 37.3281 26.0676 34.8593 25.8749 34.0885C25.5416 32.7604 25.0468 28.7864 28.4062 25.7448Z" fill="#333347"/>
<path d="M28.375 25.8489C29.5781 28.6093 33.1146 29.1406 35.4479 28.552C37.5208 28.026 38.5052 27.1718 38.6719 27.0156L38.6615 27L37.776 25.4635L44.4427 26.9218L42.0313 33.2395L41.1354 31.6458L40.2656 32.1198C37.2396 33.5104 34.8333 32.6927 34.0781 32.4427C32.7813 32.0156 29.1562 30.3125 28.375 25.8489Z" fill="#333347"/>
<path d="M40.1613 19.1927C39.6978 22.4895 37.7134 24.0729 37.0936 24.5729C36.0311 25.4375 32.6457 27.5677 28.4634 25.8177C31.4373 26.2916 33.7967 23.6041 34.5571 21.3177C35.2446 19.2656 35.0415 17.9687 34.9998 17.7708L34.979 17.7656L33.2134 17.6927L38.0259 12.8541L42.0519 18.2864L40.2342 18.1823" fill="#333347"/>
<path fill-rule="evenodd" clip-rule="evenodd" d="M19.9375 16.4115C18.4167 16.4115 17.1875 15.1823 17.1875 13.6563C17.1875 12.1354 18.4167 10.9062 19.9375 10.9062C21.4583 10.9062 22.6927 12.1354 22.6927 13.6563C22.6927 15.1823 21.4583 16.4115 19.9375 16.4115Z" fill="#333347"/>
<path d="M15.6771 29.7968C15.9115 29.151 16.2604 29.1927 16.2604 29.1927C16.2604 29.1927 16.5781 29.125 16.7552 29.7708L19.3281 38.8073C17.1823 38.1823 15.224 37.1198 13.5573 35.7083L15.6771 29.7968ZM23.7031 5.66663C13.7604 5.66663 5.67188 13.7552 5.67188 23.6979C5.67188 33.6406 13.7604 41.7291 23.7031 41.7291C24.2344 41.7291 24.7552 41.6979 25.276 41.651L25.3958 43.4635L28.6979 40.2708L25.0052 37.4531L25.1458 39.3541C24.6719 39.401 24.1875 39.4323 23.7031 39.4323C22.9375 39.4323 22.1875 39.375 21.4531 39.2656L21.3802 38.7864L19.6667 24.1875C19.4323 21.4323 21.0052 20.9948 21.9792 21.4062L27.4479 23.6041C28.0729 23.875 28.375 23.3489 28.375 23.3489C28.375 23.3489 28.7292 22.802 28.0938 22.3958C28.0938 22.3958 20.6406 17.4583 19.0521 17.1562C16.8854 16.7552 14.7396 18.5104 14.2656 20.7968L11.6198 33.7604C9.34375 31.0312 7.96875 27.5208 7.96875 23.6979C7.96875 15.0208 15.026 7.9635 23.7031 7.9635C28.3385 7.9635 32.5104 9.97913 35.3906 13.177L37.0052 11.5364C33.7083 7.93225 28.9635 5.66663 23.7031 5.66663Z" fill="#333347"/>
<path d="M129.53 20.86H131.67L132.69 25.9H132.71L133.74 20.86H135.87V28H134.55V22.3H134.53L133.26 28H132.14L130.87 22.3H130.85V28H129.53V20.86ZM139.882 25.31L139.192 22.1H139.172L138.482 25.31H139.882ZM140.072 20.86L141.962 28H140.462L140.132 26.49H138.232L137.902 28H136.402L138.292 20.86H140.072ZM143.619 25.77V25.98C143.619 26.1467 143.632 26.3 143.659 26.44C143.686 26.5733 143.736 26.6867 143.809 26.78C143.882 26.8733 143.979 26.9467 144.099 27C144.226 27.0533 144.382 27.08 144.569 27.08C144.789 27.08 144.986 27.01 145.159 26.87C145.339 26.7233 145.429 26.5 145.429 26.2C145.429 26.04 145.406 25.9033 145.359 25.79C145.319 25.67 145.249 25.5633 145.149 25.47C145.049 25.3767 144.916 25.2933 144.749 25.22C144.589 25.14 144.389 25.06 144.149 24.98C143.829 24.8733 143.552 24.7567 143.319 24.63C143.086 24.5033 142.889 24.3567 142.729 24.19C142.576 24.0167 142.462 23.82 142.389 23.6C142.316 23.3733 142.279 23.1133 142.279 22.82C142.279 22.1133 142.476 21.5867 142.869 21.24C143.262 20.8933 143.802 20.72 144.489 20.72C144.809 20.72 145.102 20.7567 145.369 20.83C145.642 20.8967 145.876 21.01 146.069 21.17C146.269 21.3233 146.422 21.5233 146.529 21.77C146.642 22.01 146.699 22.3 146.699 22.64V22.84H145.319C145.319 22.5 145.259 22.24 145.139 22.06C145.019 21.8733 144.819 21.78 144.539 21.78C144.379 21.78 144.246 21.8033 144.139 21.85C144.032 21.8967 143.946 21.96 143.879 22.04C143.819 22.1133 143.776 22.2 143.749 22.3C143.729 22.4 143.719 22.5033 143.719 22.61C143.719 22.83 143.766 23.0167 143.859 23.17C143.952 23.3167 144.152 23.4533 144.459 23.58L145.569 24.06C145.842 24.18 146.066 24.3067 146.239 24.44C146.412 24.5667 146.549 24.7067 146.649 24.86C146.756 25.0067 146.829 25.17 146.869 25.35C146.909 25.53 146.929 25.73 146.929 25.95C146.929 26.7033 146.709 27.2533 146.269 27.6C145.836 27.94 145.229 28.11 144.449 28.11C143.636 28.11 143.052 27.9333 142.699 27.58C142.352 27.2267 142.179 26.72 142.179 26.06V25.77H143.619ZM148.935 24.43C148.935 24.91 148.945 25.32 148.965 25.66C148.991 25.9933 149.038 26.2667 149.105 26.48C149.178 26.6867 149.278 26.84 149.405 26.94C149.538 27.0333 149.711 27.08 149.925 27.08C150.138 27.08 150.308 27.0333 150.435 26.94C150.568 26.84 150.668 26.6867 150.735 26.48C150.808 26.2667 150.855 25.9933 150.875 25.66C150.901 25.32 150.915 24.91 150.915 24.43C150.915 23.95 150.901 23.5433 150.875 23.21C150.855 22.8767 150.808 22.6033 150.735 22.39C150.668 22.1767 150.568 22.0233 150.435 21.93C150.308 21.83 150.138 21.78 149.925 21.78C149.711 21.78 149.538 21.83 149.405 21.93C149.278 22.0233 149.178 22.1767 149.105 22.39C149.038 22.6033 148.991 22.8767 148.965 23.21C148.945 23.5433 148.935 23.95 148.935 24.43ZM151.725 28.85L150.875 28C150.608 28.0733 150.291 28.11 149.925 28.11C149.385 28.11 148.955 28.0233 148.635 27.85C148.315 27.6767 148.068 27.4267 147.895 27.1C147.728 26.7733 147.618 26.3833 147.565 25.93C147.518 25.4767 147.495 24.9767 147.495 24.43C147.495 23.89 147.518 23.3933 147.565 22.94C147.618 22.48 147.728 22.0867 147.895 21.76C148.068 21.4333 148.315 21.18 148.635 21C148.955 20.8133 149.385 20.72 149.925 20.72C150.465 20.72 150.895 20.8133 151.215 21C151.535 21.18 151.778 21.4333 151.945 21.76C152.118 22.0867 152.228 22.48 152.275 22.94C152.328 23.3933 152.355 23.89 152.355 24.43C152.355 25.0367 152.321 25.5867 152.255 26.08C152.188 26.5733 152.038 26.99 151.805 27.33L152.575 28.08L151.725 28.85ZM154.551 20.86V25.84C154.551 26.02 154.561 26.1867 154.581 26.34C154.608 26.4867 154.651 26.6167 154.711 26.73C154.778 26.8367 154.865 26.9233 154.971 26.99C155.085 27.05 155.225 27.08 155.391 27.08C155.565 27.08 155.705 27.05 155.811 26.99C155.918 26.9233 156.001 26.8367 156.061 26.73C156.128 26.6167 156.171 26.4867 156.191 26.34C156.218 26.1867 156.231 26.02 156.231 25.84V20.86H157.671V25.84C157.671 26.2933 157.608 26.67 157.481 26.97C157.355 27.2633 157.185 27.4967 156.971 27.67C156.758 27.8433 156.515 27.96 156.241 28.02C155.968 28.08 155.685 28.11 155.391 28.11C155.098 28.11 154.815 28.0833 154.541 28.03C154.268 27.9767 154.025 27.87 153.811 27.71C153.598 27.5433 153.428 27.31 153.301 27.01C153.175 26.71 153.111 26.32 153.111 25.84V20.86H154.551ZM162.572 20.86V22.04H160.022V23.72H162.422V24.9H160.022V26.82H162.672V28H158.582V20.86H162.572ZM131.49 32.44L130.51 31H131.89L132.43 32.44H131.49ZM131.08 37.31H132.48L131.79 34.1H131.77L131.08 37.31ZM130.89 32.86H132.67L134.56 40H133.06L132.73 38.49H130.83L130.5 40H129L130.89 32.86ZM138.809 32.86V37.84C138.809 38.02 138.819 38.1867 138.839 38.34C138.866 38.4867 138.909 38.6167 138.969 38.73C139.036 38.8367 139.122 38.9233 139.229 38.99C139.342 39.05 139.482 39.08 139.649 39.08C139.822 39.08 139.962 39.05 140.069 38.99C140.176 38.9233 140.259 38.8367 140.319 38.73C140.386 38.6167 140.429 38.4867 140.449 38.34C140.476 38.1867 140.489 38.02 140.489 37.84V32.86H141.929V37.84C141.929 38.2933 141.866 38.67 141.739 38.97C141.612 39.2633 141.442 39.4967 141.229 39.67C141.016 39.8433 140.772 39.96 140.499 40.02C140.226 40.08 139.942 40.11 139.649 40.11C139.356 40.11 139.072 40.0833 138.799 40.03C138.526 39.9767 138.282 39.87 138.069 39.71C137.856 39.5433 137.686 39.31 137.559 39.01C137.432 38.71 137.369 38.32 137.369 37.84V32.86H138.809ZM144 37.77V37.98C144 38.1467 144.013 38.3 144.04 38.44C144.067 38.5733 144.117 38.6867 144.19 38.78C144.263 38.8733 144.36 38.9467 144.48 39C144.607 39.0533 144.763 39.08 144.95 39.08C145.17 39.08 145.367 39.01 145.54 38.87C145.72 38.7233 145.81 38.5 145.81 38.2C145.81 38.04 145.787 37.9033 145.74 37.79C145.7 37.67 145.63 37.5633 145.53 37.47C145.43 37.3767 145.297 37.2933 145.13 37.22C144.97 37.14 144.77 37.06 144.53 36.98C144.21 36.8733 143.933 36.7567 143.7 36.63C143.467 36.5033 143.27 36.3567 143.11 36.19C142.957 36.0167 142.843 35.82 142.77 35.6C142.697 35.3733 142.66 35.1133 142.66 34.82C142.66 34.1133 142.857 33.5867 143.25 33.24C143.643 32.8933 144.183 32.72 144.87 32.72C145.19 32.72 145.483 32.7567 145.75 32.83C146.023 32.8967 146.257 33.01 146.45 33.17C146.65 33.3233 146.803 33.5233 146.91 33.77C147.023 34.01 147.08 34.3 147.08 34.64V34.84H145.7C145.7 34.5 145.64 34.24 145.52 34.06C145.4 33.8733 145.2 33.78 144.92 33.78C144.76 33.78 144.627 33.8033 144.52 33.85C144.413 33.8967 144.327 33.96 144.26 34.04C144.2 34.1133 144.157 34.2 144.13 34.3C144.11 34.4 144.1 34.5033 144.1 34.61C144.1 34.83 144.147 35.0167 144.24 35.17C144.333 35.3167 144.533 35.4533 144.84 35.58L145.95 36.06C146.223 36.18 146.447 36.3067 146.62 36.44C146.793 36.5667 146.93 36.7067 147.03 36.86C147.137 37.0067 147.21 37.17 147.25 37.35C147.29 37.53 147.31 37.73 147.31 37.95C147.31 38.7033 147.09 39.2533 146.65 39.6C146.217 39.94 145.61 40.11 144.83 40.11C144.017 40.11 143.433 39.9333 143.08 39.58C142.733 39.2267 142.56 38.72 142.56 38.06V37.77H144ZM151.005 37.31L150.315 34.1H150.295L149.605 37.31H151.005ZM151.195 32.86L153.085 40H151.585L151.255 38.49H149.355L149.025 40H147.525L149.415 32.86H151.195ZM156.752 34.98C156.752 34.8467 156.735 34.71 156.702 34.57C156.675 34.43 156.629 34.3033 156.562 34.19C156.495 34.07 156.409 33.9733 156.302 33.9C156.202 33.82 156.079 33.78 155.932 33.78C155.585 33.78 155.335 33.9733 155.182 34.36C155.029 34.7467 154.952 35.3867 154.952 36.28C154.952 36.7067 154.965 37.0933 154.992 37.44C155.019 37.7867 155.065 38.0833 155.132 38.33C155.205 38.57 155.305 38.7567 155.432 38.89C155.565 39.0167 155.735 39.08 155.942 39.08C156.029 39.08 156.122 39.0567 156.222 39.01C156.329 38.9633 156.425 38.8933 156.512 38.8C156.605 38.7067 156.682 38.59 156.742 38.45C156.802 38.3033 156.832 38.1333 156.832 37.94V37.21H155.882V36.15H158.212V40H157.152V39.34H157.132C156.959 39.62 156.749 39.82 156.502 39.94C156.262 40.0533 155.972 40.11 155.632 40.11C155.192 40.11 154.832 40.0333 154.552 39.88C154.279 39.7267 154.062 39.49 153.902 39.17C153.749 38.85 153.645 38.4567 153.592 37.99C153.539 37.5167 153.512 36.97 153.512 36.35C153.512 35.75 153.549 35.2233 153.622 34.77C153.702 34.3167 153.835 33.94 154.022 33.64C154.209 33.3333 154.455 33.1033 154.762 32.95C155.069 32.7967 155.452 32.72 155.912 32.72C156.699 32.72 157.265 32.9167 157.612 33.31C157.959 33.6967 158.132 34.2533 158.132 34.98H156.752ZM163.129 32.86V34.04H160.579V35.72H162.979V36.9H160.579V38.82H163.229V40H159.139V32.86H163.129ZM167.705 32.86V37.84C167.705 38.02 167.715 38.1867 167.735 38.34C167.762 38.4867 167.805 38.6167 167.865 38.73C167.932 38.8367 168.019 38.9233 168.125 38.99C168.239 39.05 168.379 39.08 168.545 39.08C168.719 39.08 168.859 39.05 168.965 38.99C169.072 38.9233 169.155 38.8367 169.215 38.73C169.282 38.6167 169.325 38.4867 169.345 38.34C169.372 38.1867 169.385 38.02 169.385 37.84V32.86H170.825V37.84C170.825 38.2933 170.762 38.67 170.635 38.97C170.509 39.2633 170.339 39.4967 170.125 39.67C169.912 39.8433 169.669 39.96 169.395 40.02C169.122 40.08 168.839 40.11 168.545 40.11C168.252 40.11 167.969 40.0833 167.695 40.03C167.422 39.9767 167.179 39.87 166.965 39.71C166.752 39.5433 166.582 39.31 166.455 39.01C166.329 38.71 166.265 38.32 166.265 37.84V32.86H167.705ZM173.396 32.86L175.136 37.75H175.156V32.86H176.476V40H174.836L173.076 35H173.056V40H171.736V32.86H173.396ZM177.549 40V32.86H178.989V40H177.549ZM181.347 36.43C181.347 36.91 181.357 37.32 181.377 37.66C181.403 37.9933 181.45 38.2667 181.517 38.48C181.59 38.6867 181.69 38.84 181.817 38.94C181.95 39.0333 182.123 39.08 182.337 39.08C182.55 39.08 182.72 39.0333 182.847 38.94C182.98 38.84 183.08 38.6867 183.147 38.48C183.22 38.2667 183.267 37.9933 183.287 37.66C183.313 37.32 183.327 36.91 183.327 36.43C183.327 35.95 183.313 35.5433 183.287 35.21C183.267 34.8767 183.22 34.6033 183.147 34.39C183.08 34.1767 182.98 34.0233 182.847 33.93C182.72 33.83 182.55 33.78 182.337 33.78C182.123 33.78 181.95 33.83 181.817 33.93C181.69 34.0233 181.59 34.1767 181.517 34.39C181.45 34.6033 181.403 34.8767 181.377 35.21C181.357 35.5433 181.347 35.95 181.347 36.43ZM184.137 40.85L183.287 40C183.02 40.0733 182.703 40.11 182.337 40.11C181.797 40.11 181.367 40.0233 181.047 39.85C180.727 39.6767 180.48 39.4267 180.307 39.1C180.14 38.7733 180.03 38.3833 179.977 37.93C179.93 37.4767 179.907 36.9767 179.907 36.43C179.907 35.89 179.93 35.3933 179.977 34.94C180.03 34.48 180.14 34.0867 180.307 33.76C180.48 33.4333 180.727 33.18 181.047 33C181.367 32.8133 181.797 32.72 182.337 32.72C182.877 32.72 183.307 32.8133 183.627 33C183.947 33.18 184.19 33.4333 184.357 33.76C184.53 34.0867 184.64 34.48 184.687 34.94C184.74 35.3933 184.767 35.89 184.767 36.43C184.767 37.0367 184.733 37.5867 184.667 38.08C184.6 38.5733 184.45 38.99 184.217 39.33L184.987 40.08L184.137 40.85ZM186.963 32.86V37.84C186.963 38.02 186.973 38.1867 186.993 38.34C187.02 38.4867 187.063 38.6167 187.123 38.73C187.19 38.8367 187.277 38.9233 187.383 38.99C187.497 39.05 187.637 39.08 187.803 39.08C187.977 39.08 188.117 39.05 188.223 38.99C188.33 38.9233 188.413 38.8367 188.473 38.73C188.54 38.6167 188.583 38.4867 188.603 38.34C188.63 38.1867 188.643 38.02 188.643 37.84V32.86H190.083V37.84C190.083 38.2933 190.02 38.67 189.893 38.97C189.767 39.2633 189.597 39.4967 189.383 39.67C189.17 39.8433 188.927 39.96 188.653 40.02C188.38 40.08 188.097 40.11 187.803 40.11C187.51 40.11 187.227 40.0833 186.953 40.03C186.68 39.9767 186.437 39.87 186.223 39.71C186.01 39.5433 185.84 39.31 185.713 39.01C185.587 38.71 185.523 38.32 185.523 37.84V32.86H186.963ZM194.984 32.86V34.04H192.434V35.72H194.834V36.9H192.434V38.82H195.084V40H190.994V32.86H194.984Z" fill="black"/>
<path fill-rule="evenodd" clip-rule="evenodd" d="M226.197 12.9917C225.489 12.7271 224.997 12.6406 224.67 12.6452C224.338 12.6499 224.233 12.7457 224.211 12.7697C224.191 12.7911 224.158 12.8426 224.156 12.9856C224.155 13.0935 224.173 13.2211 224.209 13.3514L228.625 17.6963H231.528C232.034 17.0728 233.172 15.8497 235.078 14.1794C235.602 13.7203 235.792 13.4037 235.848 13.2371C235.879 13.1441 235.868 13.1284 235.843 13.0951L235.839 13.0896C235.774 13.001 235.62 12.8791 235.352 12.7673C235.11 12.6663 234.831 12.5973 234.575 12.5601C234.389 12.5649 234.251 12.6081 234.006 12.6965L233.957 12.7142C233.87 12.7457 233.807 12.7781 233.743 12.811C233.611 12.8791 233.474 12.9492 233.116 13.0172C232.548 13.1251 232.141 13.1334 231.683 13.0237C231.386 12.9524 231.057 12.826 230.66 12.6733L230.66 12.6732L230.66 12.6732C230.522 12.6199 230.375 12.5634 230.218 12.505L230.215 12.5046C230.205 12.5034 230.171 12.4992 230.103 12.5017C230.005 12.5053 229.878 12.5207 229.721 12.5484C229.412 12.603 229.047 12.694 228.66 12.7904L228.637 12.7962C228.255 12.8913 227.848 12.9925 227.508 13.0468C227.338 13.0739 227.162 13.0935 226.999 13.0896C226.986 13.0893 226.969 13.0891 226.947 13.0889H226.947C226.777 13.0872 226.364 13.0832 226.197 12.9917ZM228.237 11.3164C227.706 11.4374 226.732 11.5442 226.732 11.5442C226.164 11.5236 225.749 11.4099 225.402 11.3145C225.125 11.2386 224.891 11.1743 224.654 11.1777C224.117 11.1852 223.651 11.3462 223.316 11.7135C222.98 12.0836 222.873 12.5579 222.868 12.9653C222.863 13.3667 222.954 13.7551 223.067 14.0649L223.126 14.2248L227.043 18.0789C225.564 18.4041 223.986 19.063 222.531 20.2082C219.761 22.3897 217.542 26.2534 217.227 32.6479C217.207 33.0641 217.184 33.4866 217.161 33.912C217.068 35.6616 216.972 37.462 217.008 39.0902C217.052 41.0844 217.292 43.0034 218.107 44.3151C219.572 46.6711 221.968 47.8112 224.268 48.348C226.56 48.883 228.85 48.8422 230.268 48.7579C231.563 48.7331 233.698 48.6558 235.887 48.1961C238.067 47.7382 240.413 46.8786 242.016 45.2058C243.305 43.8598 243.744 41.8774 243.878 39.7527C243.983 38.0805 243.904 36.1896 243.823 34.2644L243.823 34.2638C243.8 33.7301 243.778 33.1937 243.759 32.6587C243.548 26.6489 241.338 22.879 238.569 20.6473C236.772 19.1991 234.772 18.4248 233.001 18.0891C233.574 17.4656 234.506 16.5318 235.863 15.3427C236.456 14.8235 236.868 14.3043 237.051 13.7626C237.256 13.1522 237.144 12.5834 236.83 12.152C236.553 11.7717 236.15 11.5369 235.794 11.3889C235.425 11.2351 235.029 11.1428 234.687 11.097L234.649 11.092H234.611C234.197 11.092 233.898 11.1959 233.617 11.2976L233.57 11.3145C233.314 11.4071 233.037 11.5078 232.597 11.5912C232.212 11.6645 232.189 11.6582 232.042 11.6184L232.042 11.6184C232.013 11.6105 231.98 11.6013 231.937 11.5912C231.72 11.539 231.496 11.4529 231.141 11.3164C231.127 11.311 231.103 11.2985 231.069 11.2814C230.905 11.1967 230.523 11 230.086 11C229.442 11 228.825 11.163 228.453 11.2614L228.453 11.2614L228.453 11.2615L228.453 11.2615C228.367 11.2841 228.295 11.3034 228.237 11.3164ZM223.478 21.4108C221.129 23.2603 219.054 26.6676 218.756 32.7231C218.735 33.1559 218.712 33.5897 218.689 34.0222C218.596 35.7668 218.504 37.492 218.538 39.0565C218.582 41.0386 218.83 42.5793 219.407 43.5068C220.575 45.3858 222.528 46.37 224.616 46.8573C226.702 47.3443 228.827 47.3108 230.192 47.2289L230.207 47.228L230.223 47.2277C231.495 47.2037 233.521 47.1289 235.572 46.6981C237.641 46.2636 239.624 45.489 240.91 44.1468C241.806 43.2119 242.221 41.7042 242.35 39.6564C242.45 38.0726 242.375 36.2919 242.295 34.3813C242.272 33.835 242.249 33.2782 242.229 32.7124C242.032 27.0884 239.989 23.7575 237.609 21.8391C235.802 20.3832 233.757 19.7053 232.07 19.4905C233.467 20.9563 235.051 22.4306 235.916 22.9628L235.114 24.2664C234.751 23.9038 234.206 23.4291 233.577 22.8815L233.577 22.8815C232.672 22.0929 231.593 21.1533 230.636 20.1804C230.589 20.8038 230.548 21.5006 230.531 22.1621C230.516 22.7319 230.52 23.2613 230.55 23.6891C230.565 23.9031 230.586 24.0802 230.611 24.218C230.624 24.2864 230.636 24.3394 230.648 24.3787C230.659 24.4162 230.666 24.4328 230.667 24.4343L230.777 25.0318L229.298 25.119C229.12 24.7626 229.055 24.2519 229.023 23.7962C228.988 23.2997 228.985 22.7161 229.001 22.123C229.013 21.6509 229.036 21.1638 229.066 20.6965C227.822 21.8971 226.513 22.9378 225.548 23.7056L225.547 23.7058L225.547 23.7061C225.412 23.8133 225.284 23.9151 225.164 24.0113L224.362 22.7076C225.212 22.115 226.785 20.8255 228.179 19.4313C226.695 19.6286 225.007 20.2073 223.478 21.4108Z" fill="white"/>
</svg>
