<svg width="332" height="61" viewBox="0 0 332 61" fill="none" xmlns="http://www.w3.org/2000/svg">
<g clip-path="url(#clip0_66_2724)">
<path d="M24.6979 60.4688C11.0781 60.4688 0 49.5208 0 36.0625V0H306.948C320.563 0 331.641 10.9479 331.641 24.4062V60.4688" fill="white"/>
<path d="M244.083 52.9114H69.1353C59.6874 52.9114 51.9999 45.3541 51.9999 36.0625V7.55725H226.948C236.396 7.55725 244.083 15.1145 244.083 24.4062V52.9114ZM227 6L50.1667 5.66663L50.1145 36.0625C50.1145 46.3958 58.6458 54.802 69.1353 54.802L245.969 55V24.4062C245.969 14.0729 237.49 6 227 6Z" fill="#010101"/>
<path d="M102.901 5.66663H50.1145V36.0625C50.1145 46.3958 58.6458 54.802 69.1353 54.802H121.927V24.4062C121.927 14.0729 113.391 5.66663 102.901 5.66663Z" fill="#010101"/>
<path d="M63.651 29.3594C58.8489 29.3594 54.9583 33.25 54.9583 38.0521C54.9583 42.8542 58.8489 46.7448 63.651 46.7448C68.4583 46.7448 72.3489 42.8542 72.3489 38.0521C72.3489 33.25 68.4583 29.3594 63.651 29.3594Z" fill="white"/>
<path d="M69.3229 39.4688H65.0729V43.7188H62.2344V39.4688H57.9844V36.6355H62.2344V32.3802H65.0729V36.6355H69.3229" fill="#1C1C1B"/>
<path d="M55.7864 26.5937V17.1979H58.2708V24.5156H61.828V26.5937" fill="white"/>
<path d="M62.9426 26.5937V17.1979H69.0155V19.276H65.4322V20.7552H68.4947V22.8385H65.4322V24.5156H69.1614V26.5937" fill="white"/>
<path d="M75.0885 26.5937V19.276H72.6041V17.1979H80.0677V19.276H77.5781V26.5937" fill="white"/>
<path d="M83.5521 21.4739H84.4479C85.4479 21.4739 85.9531 21.0625 85.9531 20.2343C85.9531 19.8281 85.8229 19.5468 85.5677 19.3958C85.3125 19.2395 84.9375 19.1614 84.4479 19.1614H83.5521V21.4739ZM81.0625 26.5989V17.1979H84.6198C85.125 17.1979 85.6042 17.2448 86.0625 17.3385C86.5208 17.4375 86.9167 17.5989 87.2604 17.8333C87.6042 18.0625 87.875 18.375 88.0781 18.7656C88.2813 19.1562 88.3802 19.6458 88.3802 20.2343C88.3802 20.9062 88.2448 21.4687 87.9688 21.9114C87.6979 22.3541 87.3281 22.6979 86.8646 22.9531L88.901 26.5989H86.125L84.5052 23.4427H83.5521V26.5989" fill="white"/>
<path d="M89.8698 26.5989H92.3593V17.1979H89.8698V26.5989Z" fill="white"/>
<path d="M75.3801 43.276V33.8698H81.5103V35.9531H77.8697V37.75H80.9895V39.8333H77.8697V43.276" fill="white"/>
<path d="M84.9218 38.7031L84.7604 39.3541H86.4948L86.3385 38.7031C86.2239 38.25 86.1041 37.7604 85.9895 37.2291C85.875 36.6979 85.7604 36.1979 85.6406 35.7239H85.5833C85.4791 36.2031 85.3698 36.7083 85.2604 37.2343C85.151 37.7604 85.0364 38.25 84.9218 38.7031ZM81.3073 43.276L84.1666 33.8698H87.1718L90.0364 43.276H87.4062L86.9427 41.276H84.3125L83.8489 43.276" fill="white"/>
<path d="M94.5624 43.4479C93.9687 43.4479 93.3958 43.3489 92.8541 43.151C92.3072 42.9531 91.8333 42.651 91.4218 42.2552C91.0103 41.8541 90.6822 41.3541 90.4426 40.75C90.203 40.1458 90.0833 39.4479 90.0833 38.6458C90.0833 37.8541 90.2083 37.151 90.4583 36.5416C90.7083 35.927 91.0416 35.4114 91.4635 34.9948C91.8801 34.5729 92.3645 34.25 92.9114 34.0312C93.4583 33.8073 94.026 33.6979 94.6249 33.6979C95.2499 33.6979 95.8124 33.8229 96.302 34.0677C96.7968 34.3125 97.2083 34.6041 97.5468 34.9427L96.2447 36.5312C96.0155 36.3333 95.776 36.1666 95.5312 36.0312C95.2812 35.9062 94.9999 35.8385 94.6822 35.8385C94.401 35.8385 94.1405 35.901 93.8958 36.026C93.651 36.151 93.4322 36.3333 93.2447 36.5625C93.0572 36.7916 92.9062 37.0781 92.7968 37.4166C92.6822 37.75 92.6301 38.1354 92.6301 38.5573C92.6301 39.4479 92.8124 40.125 93.1874 40.5989C93.5572 41.0677 94.0468 41.3073 94.651 41.3073C95.0208 41.3073 95.3437 41.2291 95.6301 41.0677C95.9114 40.9062 96.1562 40.7187 96.3593 40.4948L97.6614 42.0573C97.2551 42.5208 96.7916 42.8698 96.2655 43.0989C95.7395 43.3333 95.1718 43.4479 94.5624 43.4479Z" fill="white"/>
<path d="M98.6198 43.276H101.104V33.8698H98.6198V43.276Z" fill="white"/>
<path d="M102.875 43.276V33.8698H105.365V41.1927H108.922V43.276" fill="white"/>
<path d="M110.031 43.276V33.8698H116.109V35.9531H112.521V37.4323H115.589V39.5156H112.521V41.1927H116.255V43.276" fill="white"/>
<path fill-rule="evenodd" clip-rule="evenodd" d="M16.2604 29.1927C16.2604 29.1927 15.9115 29.151 15.6771 29.7968L13.5573 35.7083C15.224 37.1198 17.1823 38.1823 19.3281 38.8073L16.7552 29.7708C16.5781 29.125 16.2604 29.1927 16.2604 29.1927ZM5.67188 23.6979C5.67188 13.7552 13.7604 5.66663 23.7031 5.66663C28.9635 5.66663 33.7083 7.93225 37.0052 11.5364L35.3906 13.177C32.5104 9.97913 28.3385 7.9635 23.7031 7.9635C15.026 7.9635 7.96875 15.0208 7.96875 23.6979C7.96875 27.5208 9.34375 31.0312 11.6198 33.7604L14.2656 20.7968C14.7396 18.5104 16.8854 16.7552 19.0521 17.1562C20.6406 17.4583 28.0938 22.3958 28.0938 22.3958C28.7292 22.802 28.375 23.3489 28.375 23.3489C28.375 23.3489 28.0729 23.875 27.4479 23.6041L21.9792 21.4062C21.0052 20.9948 19.4323 21.4323 19.6667 24.1875L21.3802 38.7864L21.4531 39.2656C22.1875 39.375 22.9375 39.4323 23.7031 39.4323C24.1875 39.4323 24.6719 39.401 25.1458 39.3541L25.0052 37.4531L28.6979 40.2708L25.3958 43.4635L25.276 41.651C24.7552 41.6979 24.2344 41.7291 23.7031 41.7291C13.7604 41.7291 5.67188 33.6406 5.67188 23.6979ZM19.9375 16.4115C18.4167 16.4115 17.1875 15.1823 17.1875 13.6562C17.1875 12.1354 18.4167 10.9062 19.9375 10.9062C21.4583 10.9062 22.6927 12.1354 22.6927 13.6562C22.6927 15.1823 21.4583 16.4115 19.9375 16.4115ZM37.1046 24.564C37.7365 24.0543 39.7005 22.4703 40.1613 19.1927L40.2342 18.1823L42.0519 18.2864L38.0259 12.8541L33.2134 17.6927L34.979 17.7656L34.9998 17.7708C35.0415 17.9687 35.2446 19.2656 34.5571 21.3177C33.7967 23.6041 31.4373 26.2916 28.4634 25.8177C32.6457 27.5677 36.0311 25.4375 37.0936 24.5729L37.1046 24.564ZM28.375 25.8489C29.5781 28.6093 33.1146 29.1406 35.4479 28.552C37.5208 28.026 38.5052 27.1718 38.6719 27.0156L38.6615 27L37.776 25.4635L44.4427 26.9218L42.0312 33.2395L41.1354 31.6458L40.2656 32.1198C37.2654 33.4985 34.8744 32.7065 34.0978 32.4492L34.0781 32.4427C32.7812 32.0156 29.1562 30.3125 28.375 25.8489ZM28.4062 25.7448C26.7135 28.2343 28.151 31.5104 29.8958 33.1718C31.4895 34.6823 32.7655 35.0364 32.9322 35.0781L33.7447 33.5208L36.0885 39.9323L29.4635 41.2812L30.3437 39.6458L29.4478 39.1458C26.6887 37.3493 26.0817 34.9168 25.8818 34.1162L25.8749 34.0885C25.5416 32.7604 25.0468 28.7864 28.4062 25.7448Z" fill="#010101"/>
<path d="M131.84 19.216C131.84 18.8 131.789 18.4987 131.688 18.312C131.592 18.12 131.413 18.024 131.152 18.024C131.008 18.024 130.888 18.064 130.792 18.144C130.701 18.2187 130.629 18.344 130.576 18.52C130.523 18.6907 130.485 18.9173 130.464 19.2C130.443 19.4773 130.432 19.8187 130.432 20.224C130.432 20.656 130.445 21.0053 130.472 21.272C130.504 21.5387 130.549 21.7467 130.608 21.896C130.672 22.04 130.749 22.1387 130.84 22.192C130.936 22.24 131.045 22.264 131.168 22.264C131.269 22.264 131.363 22.248 131.448 22.216C131.539 22.1787 131.616 22.1093 131.68 22.008C131.744 21.9013 131.795 21.7547 131.832 21.568C131.869 21.376 131.888 21.1253 131.888 20.816H133.04C133.04 21.1253 133.016 21.4187 132.968 21.696C132.92 21.9733 132.829 22.216 132.696 22.424C132.568 22.632 132.384 22.7947 132.144 22.912C131.909 23.0293 131.603 23.088 131.224 23.088C130.792 23.088 130.448 23.0187 130.192 22.88C129.936 22.7413 129.739 22.5413 129.6 22.28C129.467 22.0187 129.379 21.7067 129.336 21.344C129.299 20.9813 129.28 20.5813 129.28 20.144C129.28 19.712 129.299 19.3147 129.336 18.952C129.379 18.584 129.467 18.2693 129.6 18.008C129.739 17.7467 129.936 17.544 130.192 17.4C130.448 17.2507 130.792 17.176 131.224 17.176C131.635 17.176 131.957 17.2427 132.192 17.376C132.432 17.5093 132.611 17.68 132.728 17.888C132.845 18.0907 132.917 18.312 132.944 18.552C132.976 18.7867 132.992 19.008 132.992 19.216H131.84ZM134.905 22.152H135.417C135.62 22.152 135.782 22.1173 135.905 22.048C136.028 21.9787 136.124 21.864 136.193 21.704C136.268 21.544 136.316 21.3333 136.337 21.072C136.364 20.8107 136.377 20.4853 136.377 20.096C136.377 19.7707 136.366 19.4853 136.345 19.24C136.324 18.9947 136.278 18.792 136.209 18.632C136.145 18.4667 136.046 18.344 135.913 18.264C135.785 18.1787 135.612 18.136 135.393 18.136H134.905V22.152ZM133.753 17.288H135.641C136.041 17.288 136.364 17.3547 136.609 17.488C136.854 17.616 137.044 17.8027 137.177 18.048C137.316 18.288 137.409 18.5787 137.457 18.92C137.505 19.2613 137.529 19.6427 137.529 20.064C137.529 20.5653 137.497 21.0027 137.433 21.376C137.374 21.744 137.27 22.048 137.121 22.288C136.972 22.528 136.772 22.7067 136.521 22.824C136.27 22.9413 135.953 23 135.569 23H133.753V17.288ZM139.675 17.176H140.571L138.763 23.088H137.891L139.675 17.176ZM142.155 22.152H142.667C142.87 22.152 143.032 22.1173 143.155 22.048C143.278 21.9787 143.374 21.864 143.443 21.704C143.518 21.544 143.566 21.3333 143.587 21.072C143.614 20.8107 143.627 20.4853 143.627 20.096C143.627 19.7707 143.616 19.4853 143.595 19.24C143.574 18.9947 143.528 18.792 143.459 18.632C143.395 18.4667 143.296 18.344 143.163 18.264C143.035 18.1787 142.862 18.136 142.643 18.136H142.155V22.152ZM141.003 17.288H142.891C143.291 17.288 143.614 17.3547 143.859 17.488C144.104 17.616 144.294 17.8027 144.427 18.048C144.566 18.288 144.659 18.5787 144.707 18.92C144.755 19.2613 144.779 19.6427 144.779 20.064C144.779 20.5653 144.747 21.0027 144.683 21.376C144.624 21.744 144.52 22.048 144.371 22.288C144.222 22.528 144.022 22.7067 143.771 22.824C143.52 22.9413 143.203 23 142.819 23H141.003V17.288ZM146.397 17.288L147.205 21.512H147.229L148.077 17.288H149.269L147.957 23H146.477L145.165 17.288H146.397ZM150.897 22.152H151.409C151.612 22.152 151.774 22.1173 151.897 22.048C152.02 21.9787 152.116 21.864 152.185 21.704C152.26 21.544 152.308 21.3333 152.329 21.072C152.356 20.8107 152.369 20.4853 152.369 20.096C152.369 19.7707 152.358 19.4853 152.337 19.24C152.316 18.9947 152.27 18.792 152.201 18.632C152.137 18.4667 152.038 18.344 151.905 18.264C151.777 18.1787 151.604 18.136 151.385 18.136H150.897V22.152ZM149.745 17.288H151.633C152.033 17.288 152.356 17.3547 152.601 17.488C152.846 17.616 153.036 17.8027 153.169 18.048C153.308 18.288 153.401 18.5787 153.449 18.92C153.497 19.2613 153.521 19.6427 153.521 20.064C153.521 20.5653 153.489 21.0027 153.425 21.376C153.366 21.744 153.262 22.048 153.113 22.288C152.964 22.528 152.764 22.7067 152.513 22.824C152.262 22.9413 151.945 23 151.561 23H149.745V17.288ZM155.371 21.752V22.792C155.371 22.9893 155.355 23.176 155.323 23.352C155.296 23.5333 155.243 23.688 155.163 23.816C155.083 23.9493 154.973 24.056 154.835 24.136C154.701 24.2213 154.528 24.2747 154.315 24.296V23.736C154.453 23.7093 154.557 23.6347 154.627 23.512C154.696 23.3893 154.731 23.2533 154.731 23.104V23H154.315V21.752H155.371ZM131.84 29.216C131.84 28.8 131.789 28.4987 131.688 28.312C131.592 28.12 131.413 28.024 131.152 28.024C131.008 28.024 130.888 28.064 130.792 28.144C130.701 28.2187 130.629 28.344 130.576 28.52C130.523 28.6907 130.485 28.9173 130.464 29.2C130.443 29.4773 130.432 29.8187 130.432 30.224C130.432 30.656 130.445 31.0053 130.472 31.272C130.504 31.5387 130.549 31.7467 130.608 31.896C130.672 32.04 130.749 32.1387 130.84 32.192C130.936 32.24 131.045 32.264 131.168 32.264C131.269 32.264 131.363 32.248 131.448 32.216C131.539 32.1787 131.616 32.1093 131.68 32.008C131.744 31.9013 131.795 31.7547 131.832 31.568C131.869 31.376 131.888 31.1253 131.888 30.816H133.04C133.04 31.1253 133.016 31.4187 132.968 31.696C132.92 31.9733 132.829 32.216 132.696 32.424C132.568 32.632 132.384 32.7947 132.144 32.912C131.909 33.0293 131.603 33.088 131.224 33.088C130.792 33.088 130.448 33.0187 130.192 32.88C129.936 32.7413 129.739 32.5413 129.6 32.28C129.467 32.0187 129.379 31.7067 129.336 31.344C129.299 30.9813 129.28 30.5813 129.28 30.144C129.28 29.712 129.299 29.3147 129.336 28.952C129.379 28.584 129.467 28.2693 129.6 28.008C129.739 27.7467 129.936 27.544 130.192 27.4C130.448 27.2507 130.792 27.176 131.224 27.176C131.635 27.176 131.957 27.2427 132.192 27.376C132.432 27.5093 132.611 27.68 132.728 27.888C132.845 28.0907 132.917 28.312 132.944 28.552C132.976 28.7867 132.992 29.008 132.992 29.216H131.84ZM136.081 30.848L135.529 28.28H135.513L134.961 30.848H136.081ZM136.233 27.288L137.745 33H136.545L136.281 31.792H134.761L134.497 33H133.297L134.809 27.288H136.233ZM139.07 31.216V31.384C139.07 31.5173 139.081 31.64 139.102 31.752C139.124 31.8587 139.164 31.9493 139.222 32.024C139.281 32.0987 139.358 32.1573 139.454 32.2C139.556 32.2427 139.681 32.264 139.83 32.264C140.006 32.264 140.164 32.208 140.302 32.096C140.446 31.9787 140.518 31.8 140.518 31.56C140.518 31.432 140.5 31.3227 140.462 31.232C140.43 31.136 140.374 31.0507 140.294 30.976C140.214 30.9013 140.108 30.8347 139.974 30.776C139.846 30.712 139.686 30.648 139.494 30.584C139.238 30.4987 139.017 30.4053 138.83 30.304C138.644 30.2027 138.486 30.0853 138.358 29.952C138.236 29.8133 138.145 29.656 138.086 29.48C138.028 29.2987 137.998 29.0907 137.998 28.856C137.998 28.2907 138.156 27.8693 138.47 27.592C138.785 27.3147 139.217 27.176 139.766 27.176C140.022 27.176 140.257 27.2053 140.47 27.264C140.689 27.3173 140.876 27.408 141.03 27.536C141.19 27.6587 141.313 27.8187 141.398 28.016C141.489 28.208 141.534 28.44 141.534 28.712V28.872H140.43C140.43 28.6 140.382 28.392 140.286 28.248C140.19 28.0987 140.03 28.024 139.806 28.024C139.678 28.024 139.572 28.0427 139.486 28.08C139.401 28.1173 139.332 28.168 139.278 28.232C139.23 28.2907 139.196 28.36 139.174 28.44C139.158 28.52 139.15 28.6027 139.15 28.688C139.15 28.864 139.188 29.0133 139.262 29.136C139.337 29.2533 139.497 29.3627 139.742 29.464L140.63 29.848C140.849 29.944 141.028 30.0453 141.166 30.152C141.305 30.2533 141.414 30.3653 141.494 30.488C141.58 30.6053 141.638 30.736 141.67 30.88C141.702 31.024 141.718 31.184 141.718 31.36C141.718 31.9627 141.542 32.4027 141.19 32.68C140.844 32.952 140.358 33.088 139.734 33.088C139.084 33.088 138.617 32.9467 138.334 32.664C138.057 32.3813 137.918 31.976 137.918 31.448V31.216H139.07ZM143.219 31.216V31.384C143.219 31.5173 143.229 31.64 143.251 31.752C143.272 31.8587 143.312 31.9493 143.371 32.024C143.429 32.0987 143.507 32.1573 143.603 32.2C143.704 32.2427 143.829 32.264 143.979 32.264C144.155 32.264 144.312 32.208 144.451 32.096C144.595 31.9787 144.667 31.8 144.667 31.56C144.667 31.432 144.648 31.3227 144.611 31.232C144.579 31.136 144.523 31.0507 144.443 30.976C144.363 30.9013 144.256 30.8347 144.123 30.776C143.995 30.712 143.835 30.648 143.643 30.584C143.387 30.4987 143.165 30.4053 142.979 30.304C142.792 30.2027 142.635 30.0853 142.507 29.952C142.384 29.8133 142.293 29.656 142.235 29.48C142.176 29.2987 142.147 29.0907 142.147 28.856C142.147 28.2907 142.304 27.8693 142.619 27.592C142.933 27.3147 143.365 27.176 143.915 27.176C144.171 27.176 144.405 27.2053 144.619 27.264C144.837 27.3173 145.024 27.408 145.179 27.536C145.339 27.6587 145.461 27.8187 145.547 28.016C145.637 28.208 145.683 28.44 145.683 28.712V28.872H144.579C144.579 28.6 144.531 28.392 144.435 28.248C144.339 28.0987 144.179 28.024 143.955 28.024C143.827 28.024 143.72 28.0427 143.635 28.08C143.549 28.1173 143.48 28.168 143.427 28.232C143.379 28.2907 143.344 28.36 143.323 28.44C143.307 28.52 143.299 28.6027 143.299 28.688C143.299 28.864 143.336 29.0133 143.411 29.136C143.485 29.2533 143.645 29.3627 143.891 29.464L144.779 29.848C144.997 29.944 145.176 30.0453 145.315 30.152C145.453 30.2533 145.563 30.3653 145.643 30.488C145.728 30.6053 145.787 30.736 145.819 30.88C145.851 31.024 145.867 31.184 145.867 31.36C145.867 31.9627 145.691 32.4027 145.339 32.68C144.992 32.952 144.507 33.088 143.883 33.088C143.232 33.088 142.765 32.9467 142.483 32.664C142.205 32.3813 142.067 31.976 142.067 31.448V31.216H143.219ZM149.631 27.288V28.232H147.591V29.576H149.511V30.52H147.591V32.056H149.711V33H146.439V27.288H149.631ZM153.635 27.288V28.232H152.387V33H151.235V28.232H149.987V27.288H153.635ZM157.478 27.288V28.232H156.23V33H155.078V28.232H153.83V27.288H157.478ZM161.17 27.288V28.232H159.13V29.576H161.05V30.52H159.13V32.056H161.25V33H157.978V27.288H161.17ZM131.368 37.288C131.203 37.592 131.061 37.888 130.944 38.176C130.827 38.4587 130.731 38.744 130.656 39.032C130.587 39.32 130.536 39.616 130.504 39.92C130.472 40.2187 130.456 40.5387 130.456 40.88C130.456 41.2213 130.472 41.544 130.504 41.848C130.536 42.1467 130.587 42.4373 130.656 42.72C130.731 42.9973 130.827 43.2773 130.944 43.56C131.061 43.848 131.203 44.144 131.368 44.448H130.52C130.12 43.8187 129.832 43.208 129.656 42.616C129.485 42.024 129.4 41.4453 129.4 40.88C129.4 40.3147 129.485 39.7333 129.656 39.136C129.832 38.5333 130.12 37.9173 130.52 37.288H131.368ZM134.151 40.848L133.599 38.28H133.583L133.031 40.848H134.151ZM134.303 37.288L135.815 43H134.615L134.351 41.792H132.831L132.567 43H131.367L132.879 37.288H134.303ZM136.912 37.288L137.72 41.512H137.744L138.592 37.288H139.784L138.472 43H136.992L135.68 37.288H136.912ZM143.397 37.288V38.232H141.357V39.576H143.277V40.52H141.357V42.056H143.477V43H140.205V37.288H143.397ZM146.496 39.216C146.496 38.8 146.446 38.4987 146.344 38.312C146.248 38.12 146.07 38.024 145.808 38.024C145.664 38.024 145.544 38.064 145.448 38.144C145.358 38.2187 145.286 38.344 145.232 38.52C145.179 38.6907 145.142 38.9173 145.12 39.2C145.099 39.4773 145.088 39.8187 145.088 40.224C145.088 40.656 145.102 41.0053 145.128 41.272C145.16 41.5387 145.206 41.7467 145.264 41.896C145.328 42.04 145.406 42.1387 145.496 42.192C145.592 42.24 145.702 42.264 145.824 42.264C145.926 42.264 146.019 42.248 146.104 42.216C146.195 42.1787 146.272 42.1093 146.336 42.008C146.4 41.9013 146.451 41.7547 146.488 41.568C146.526 41.376 146.544 41.1253 146.544 40.816H147.696C147.696 41.1253 147.672 41.4187 147.624 41.696C147.576 41.9733 147.486 42.216 147.352 42.424C147.224 42.632 147.04 42.7947 146.8 42.912C146.566 43.0293 146.259 43.088 145.88 43.088C145.448 43.088 145.104 43.0187 144.848 42.88C144.592 42.7413 144.395 42.5413 144.256 42.28C144.123 42.0187 144.035 41.7067 143.992 41.344C143.955 40.9813 143.936 40.5813 143.936 40.144C143.936 39.712 143.955 39.3147 143.992 38.952C144.035 38.584 144.123 38.2693 144.256 38.008C144.395 37.7467 144.592 37.544 144.848 37.4C145.104 37.2507 145.448 37.176 145.88 37.176C146.291 37.176 146.614 37.2427 146.848 37.376C147.088 37.5093 147.267 37.68 147.384 37.888C147.502 38.0907 147.574 38.312 147.6 38.552C147.632 38.7867 147.648 39.008 147.648 39.216H146.496ZM151.307 40.144C151.307 40.528 151.315 40.856 151.331 41.128C151.352 41.3947 151.39 41.6133 151.443 41.784C151.502 41.9493 151.582 42.072 151.683 42.152C151.79 42.2267 151.928 42.264 152.099 42.264C152.27 42.264 152.406 42.2267 152.507 42.152C152.614 42.072 152.694 41.9493 152.747 41.784C152.806 41.6133 152.843 41.3947 152.859 41.128C152.88 40.856 152.891 40.528 152.891 40.144C152.891 39.76 152.88 39.4347 152.859 39.168C152.843 38.9013 152.806 38.6827 152.747 38.512C152.694 38.3413 152.614 38.2187 152.507 38.144C152.406 38.064 152.27 38.024 152.099 38.024C151.928 38.024 151.79 38.064 151.683 38.144C151.582 38.2187 151.502 38.3413 151.443 38.512C151.39 38.6827 151.352 38.9013 151.331 39.168C151.315 39.4347 151.307 39.76 151.307 40.144ZM150.155 40.144C150.155 39.712 150.174 39.3147 150.211 38.952C150.254 38.584 150.342 38.2693 150.475 38.008C150.614 37.7467 150.811 37.544 151.067 37.4C151.323 37.2507 151.667 37.176 152.099 37.176C152.531 37.176 152.875 37.2507 153.131 37.4C153.387 37.544 153.582 37.7467 153.715 38.008C153.854 38.2693 153.942 38.584 153.979 38.952C154.022 39.3147 154.043 39.712 154.043 40.144C154.043 40.5813 154.022 40.9813 153.979 41.344C153.942 41.7067 153.854 42.0187 153.715 42.28C153.582 42.5413 153.387 42.7413 153.131 42.88C152.875 43.0187 152.531 43.088 152.099 43.088C151.667 43.088 151.323 43.0187 151.067 42.88C150.811 42.7413 150.614 42.5413 150.475 42.28C150.342 42.0187 150.254 41.7067 150.211 41.344C150.174 40.9813 150.155 40.5813 150.155 40.144ZM155.8 37.288V41.272C155.8 41.416 155.808 41.5493 155.824 41.672C155.846 41.7893 155.88 41.8933 155.928 41.984C155.982 42.0693 156.051 42.1387 156.136 42.192C156.227 42.24 156.339 42.264 156.472 42.264C156.611 42.264 156.723 42.24 156.808 42.192C156.894 42.1387 156.96 42.0693 157.008 41.984C157.062 41.8933 157.096 41.7893 157.112 41.672C157.134 41.5493 157.144 41.416 157.144 41.272V37.288H158.296V41.272C158.296 41.6347 158.246 41.936 158.144 42.176C158.043 42.4107 157.907 42.5973 157.736 42.736C157.566 42.8747 157.371 42.968 157.152 43.016C156.934 43.064 156.707 43.088 156.472 43.088C156.238 43.088 156.011 43.0667 155.792 43.024C155.574 42.9813 155.379 42.896 155.208 42.768C155.038 42.6347 154.902 42.448 154.8 42.208C154.699 41.968 154.648 41.656 154.648 41.272V37.288H155.8ZM161.875 41.216V41.384C161.875 41.5173 161.886 41.64 161.907 41.752C161.928 41.8587 161.968 41.9493 162.027 42.024C162.086 42.0987 162.163 42.1573 162.259 42.2C162.36 42.2427 162.486 42.264 162.635 42.264C162.811 42.264 162.968 42.208 163.107 42.096C163.251 41.9787 163.323 41.8 163.323 41.56C163.323 41.432 163.304 41.3227 163.267 41.232C163.235 41.136 163.179 41.0507 163.099 40.976C163.019 40.9013 162.912 40.8347 162.779 40.776C162.651 40.712 162.491 40.648 162.299 40.584C162.043 40.4987 161.822 40.4053 161.635 40.304C161.448 40.2027 161.291 40.0853 161.163 39.952C161.04 39.8133 160.95 39.656 160.891 39.48C160.832 39.2987 160.803 39.0907 160.803 38.856C160.803 38.2907 160.96 37.8693 161.275 37.592C161.59 37.3147 162.022 37.176 162.571 37.176C162.827 37.176 163.062 37.2053 163.275 37.264C163.494 37.3173 163.68 37.408 163.835 37.536C163.995 37.6587 164.118 37.8187 164.203 38.016C164.294 38.208 164.339 38.44 164.339 38.712V38.872H163.235C163.235 38.6 163.187 38.392 163.091 38.248C162.995 38.0987 162.835 38.024 162.611 38.024C162.483 38.024 162.376 38.0427 162.291 38.08C162.206 38.1173 162.136 38.168 162.083 38.232C162.035 38.2907 162 38.36 161.979 38.44C161.963 38.52 161.955 38.6027 161.955 38.688C161.955 38.864 161.992 39.0133 162.067 39.136C162.142 39.2533 162.302 39.3627 162.547 39.464L163.435 39.848C163.654 39.944 163.832 40.0453 163.971 40.152C164.11 40.2533 164.219 40.3653 164.299 40.488C164.384 40.6053 164.443 40.736 164.475 40.88C164.507 41.024 164.523 41.184 164.523 41.36C164.523 41.9627 164.347 42.4027 163.995 42.68C163.648 42.952 163.163 43.088 162.539 43.088C161.888 43.088 161.422 42.9467 161.139 42.664C160.862 42.3813 160.723 41.976 160.723 41.448V41.216H161.875ZM167.479 40.848L166.927 38.28H166.911L166.359 40.848H167.479ZM167.631 37.288L169.143 43H167.943L167.679 41.792H166.159L165.895 43H164.695L166.207 37.288H167.631ZM170.869 37.288L172.261 41.2H172.277V37.288H173.333V43H172.021L170.613 39H170.597V43H169.541V37.288H170.869ZM175.062 41.216V41.384C175.062 41.5173 175.073 41.64 175.094 41.752C175.116 41.8587 175.156 41.9493 175.214 42.024C175.273 42.0987 175.35 42.1573 175.446 42.2C175.548 42.2427 175.673 42.264 175.822 42.264C175.998 42.264 176.156 42.208 176.294 42.096C176.438 41.9787 176.51 41.8 176.51 41.56C176.51 41.432 176.492 41.3227 176.454 41.232C176.422 41.136 176.366 41.0507 176.286 40.976C176.206 40.9013 176.1 40.8347 175.966 40.776C175.838 40.712 175.678 40.648 175.486 40.584C175.23 40.4987 175.009 40.4053 174.822 40.304C174.636 40.2027 174.478 40.0853 174.35 39.952C174.228 39.8133 174.137 39.656 174.078 39.48C174.02 39.2987 173.99 39.0907 173.99 38.856C173.99 38.2907 174.148 37.8693 174.462 37.592C174.777 37.3147 175.209 37.176 175.758 37.176C176.014 37.176 176.249 37.2053 176.462 37.264C176.681 37.3173 176.868 37.408 177.022 37.536C177.182 37.6587 177.305 37.8187 177.39 38.016C177.481 38.208 177.526 38.44 177.526 38.712V38.872H176.422C176.422 38.6 176.374 38.392 176.278 38.248C176.182 38.0987 176.022 38.024 175.798 38.024C175.67 38.024 175.564 38.0427 175.478 38.08C175.393 38.1173 175.324 38.168 175.27 38.232C175.222 38.2907 175.188 38.36 175.166 38.44C175.15 38.52 175.142 38.6027 175.142 38.688C175.142 38.864 175.18 39.0133 175.254 39.136C175.329 39.2533 175.489 39.3627 175.734 39.464L176.622 39.848C176.841 39.944 177.02 40.0453 177.158 40.152C177.297 40.2533 177.406 40.3653 177.486 40.488C177.572 40.6053 177.63 40.736 177.662 40.88C177.694 41.024 177.71 41.184 177.71 41.36C177.71 41.9627 177.534 42.4027 177.182 42.68C176.836 42.952 176.35 43.088 175.726 43.088C175.076 43.088 174.609 42.9467 174.326 42.664C174.049 42.3813 173.91 41.976 173.91 41.448V41.216H175.062ZM181.357 42.152H181.805C182.082 42.152 182.306 42.0907 182.477 41.968C182.647 41.8453 182.733 41.6187 182.733 41.288C182.733 41.1227 182.709 40.9867 182.661 40.88C182.618 40.768 182.557 40.68 182.477 40.616C182.402 40.5467 182.311 40.4987 182.205 40.472C182.098 40.4453 181.981 40.432 181.853 40.432H181.357V42.152ZM181.357 39.632H181.685C182.005 39.632 182.237 39.576 182.381 39.464C182.53 39.3467 182.605 39.152 182.605 38.88C182.605 38.608 182.538 38.416 182.405 38.304C182.271 38.192 182.061 38.136 181.773 38.136H181.357V39.632ZM180.205 37.288H182.133C182.367 37.288 182.583 37.312 182.781 37.36C182.983 37.408 183.157 37.488 183.301 37.6C183.445 37.712 183.557 37.8613 183.637 38.048C183.717 38.2347 183.757 38.464 183.757 38.736C183.757 39.0453 183.685 39.312 183.541 39.536C183.397 39.7547 183.181 39.904 182.893 39.984V40C183.213 40.0427 183.466 40.1787 183.653 40.408C183.839 40.6373 183.933 40.944 183.933 41.328C183.933 41.552 183.903 41.7653 183.845 41.968C183.786 42.1707 183.685 42.3493 183.541 42.504C183.402 42.6533 183.218 42.7733 182.989 42.864C182.765 42.9547 182.485 43 182.149 43H180.205V37.288ZM185.682 40.144C185.682 40.528 185.69 40.856 185.706 41.128C185.727 41.3947 185.765 41.6133 185.818 41.784C185.877 41.9493 185.957 42.072 186.058 42.152C186.165 42.2267 186.303 42.264 186.474 42.264C186.645 42.264 186.781 42.2267 186.882 42.152C186.989 42.072 187.069 41.9493 187.122 41.784C187.181 41.6133 187.218 41.3947 187.234 41.128C187.255 40.856 187.266 40.528 187.266 40.144C187.266 39.76 187.255 39.4347 187.234 39.168C187.218 38.9013 187.181 38.6827 187.122 38.512C187.069 38.3413 186.989 38.2187 186.882 38.144C186.781 38.064 186.645 38.024 186.474 38.024C186.303 38.024 186.165 38.064 186.058 38.144C185.957 38.2187 185.877 38.3413 185.818 38.512C185.765 38.6827 185.727 38.9013 185.706 39.168C185.69 39.4347 185.682 39.76 185.682 40.144ZM184.53 40.144C184.53 39.712 184.549 39.3147 184.586 38.952C184.629 38.584 184.717 38.2693 184.85 38.008C184.989 37.7467 185.186 37.544 185.442 37.4C185.698 37.2507 186.042 37.176 186.474 37.176C186.906 37.176 187.25 37.2507 187.506 37.4C187.762 37.544 187.957 37.7467 188.09 38.008C188.229 38.2693 188.317 38.584 188.354 38.952C188.397 39.3147 188.418 39.712 188.418 40.144C188.418 40.5813 188.397 40.9813 188.354 41.344C188.317 41.7067 188.229 42.0187 188.09 42.28C187.957 42.5413 187.762 42.7413 187.506 42.88C187.25 43.0187 186.906 43.088 186.474 43.088C186.042 43.088 185.698 43.0187 185.442 42.88C185.186 42.7413 184.989 42.5413 184.85 42.28C184.717 42.0187 184.629 41.7067 184.586 41.344C184.549 40.9813 184.53 40.5813 184.53 40.144ZM189.151 35.8H190.303L190.927 36.952H190.079L189.711 36.272L189.327 36.952H188.551L189.151 35.8ZM189.151 43V37.288H190.303V43H189.151ZM194.502 37.288V38.232H193.254V43H192.102V38.232H190.854V37.288H194.502ZM195.058 43V37.288H196.21V43H195.058ZM200.256 37.288V38.232H198.216V39.576H200.136V40.52H198.216V42.056H200.336V43H197.064V37.288H200.256ZM200.916 37.288H203.044C203.524 37.288 203.897 37.4107 204.164 37.656C204.43 37.896 204.564 38.264 204.564 38.76C204.564 39.144 204.486 39.4587 204.332 39.704C204.177 39.944 203.937 40.0987 203.612 40.168V40.184C203.9 40.2267 204.11 40.32 204.244 40.464C204.377 40.608 204.46 40.84 204.492 41.16C204.502 41.2667 204.51 41.384 204.516 41.512C204.521 41.6347 204.526 41.7733 204.532 41.928C204.542 42.232 204.558 42.464 204.58 42.624C204.612 42.784 204.681 42.8933 204.788 42.952V43H203.54C203.481 42.92 203.444 42.8293 203.428 42.728C203.412 42.6213 203.401 42.512 203.396 42.4L203.364 41.304C203.353 41.08 203.297 40.904 203.196 40.776C203.094 40.648 202.924 40.584 202.684 40.584H202.068V43H200.916V37.288ZM202.068 39.784H202.548C202.825 39.784 203.038 39.72 203.188 39.592C203.337 39.4587 203.412 39.2373 203.412 38.928C203.412 38.4 203.145 38.136 202.612 38.136H202.068V39.784ZM205.809 37.288C206.209 37.9173 206.494 38.5333 206.665 39.136C206.841 39.7333 206.929 40.3147 206.929 40.88C206.929 41.4453 206.841 42.024 206.665 42.616C206.494 43.208 206.209 43.8187 205.809 44.448H204.961C205.126 44.144 205.268 43.848 205.385 43.56C205.502 43.2773 205.596 42.9973 205.665 42.72C205.74 42.4373 205.793 42.1467 205.825 41.848C205.857 41.544 205.873 41.2213 205.873 40.88C205.873 40.5387 205.857 40.2187 205.825 39.92C205.793 39.616 205.74 39.32 205.665 39.032C205.596 38.744 205.502 38.4587 205.385 38.176C205.268 37.888 205.126 37.592 204.961 37.288H205.809Z" fill="black"/>
<path d="M211 6H237V55H230H211L224.5 28.5L211 6Z" fill="#010101"/>
<path d="M237 6H308C317.941 6 326 14.0589 326 24V55H237V6Z" fill="black"/>
<rect x="237" y="8" width="31" height="31" fill="black"/>
<path fill-rule="evenodd" clip-rule="evenodd" d="M250.109 14.1063C249.715 13.9593 249.442 13.9112 249.26 13.9138C249.076 13.9164 249.017 13.9696 249.005 13.983C248.994 13.9948 248.976 14.0235 248.975 14.1029C248.974 14.1628 248.984 14.2337 249.004 14.3061L251.457 16.7194H253.07C253.35 16.3731 253.982 15.6937 255.041 14.766C255.332 14.5109 255.438 14.3351 255.469 14.2426C255.486 14.1909 255.48 14.1822 255.466 14.1637L255.464 14.1606C255.428 14.1114 255.342 14.0437 255.193 13.9816C255.059 13.9255 254.904 13.8872 254.762 13.8665C254.659 13.8692 254.582 13.8932 254.446 13.9423L254.419 13.9521C254.371 13.9696 254.335 13.9876 254.3 14.0059C254.226 14.0437 254.15 14.0826 253.951 14.1204C253.636 14.1804 253.41 14.185 253.155 14.124C252.99 14.0845 252.808 14.0142 252.587 13.9294C252.511 13.8998 252.429 13.8684 252.342 13.8359L252.34 13.8357C252.335 13.835 252.315 13.8327 252.278 13.8341C252.224 13.8361 252.153 13.8447 252.066 13.86C251.894 13.8904 251.691 13.9409 251.477 13.9945L251.464 13.9977C251.252 14.0505 251.026 14.1067 250.837 14.1369C250.742 14.1519 250.644 14.1628 250.554 14.1606L250.525 14.1602C250.431 14.1593 250.201 14.1571 250.109 14.1063ZM251.242 13.1757C250.947 13.2429 250.406 13.3023 250.406 13.3023C250.09 13.2908 249.86 13.2277 249.667 13.1747C249.513 13.1326 249.383 13.0968 249.251 13.0987C248.953 13.1029 248.694 13.1923 248.508 13.3963C248.321 13.6018 248.262 13.8653 248.259 14.0916C248.257 14.3145 248.307 14.5303 248.37 14.7023L248.402 14.7912L250.578 16.9319C249.757 17.1125 248.88 17.4785 248.072 18.1145C246.533 19.3262 245.301 21.4723 245.126 25.024C245.115 25.2552 245.102 25.4899 245.09 25.7262C245.038 26.698 244.984 27.698 245.004 28.6023C245.029 29.71 245.162 30.7759 245.615 31.5044C246.429 32.813 247.76 33.4463 249.037 33.7444C250.31 34.0416 251.582 34.019 252.369 33.9721C253.089 33.9584 254.275 33.9154 255.49 33.6601C256.701 33.4057 258.004 32.9283 258.895 31.9992C259.611 31.2516 259.855 30.1504 259.929 28.9703C259.987 28.0415 259.943 26.9912 259.898 25.9219L259.898 25.9218L259.898 25.9216C259.886 25.6252 259.873 25.3272 259.863 25.03C259.746 21.692 258.518 19.598 256.98 18.3585C255.982 17.5541 254.871 17.124 253.887 16.9376C254.206 16.5912 254.724 16.0726 255.477 15.4121C255.806 15.1237 256.036 14.8353 256.137 14.5344C256.251 14.1954 256.189 13.8795 256.014 13.6398C255.86 13.4286 255.636 13.2982 255.439 13.216C255.234 13.1306 255.014 13.0793 254.824 13.0539L254.803 13.0511H254.782C254.552 13.0511 254.386 13.1088 254.23 13.1653L254.204 13.1747C254.062 13.2261 253.907 13.282 253.663 13.3284C253.449 13.3691 253.436 13.3656 253.355 13.3435L253.355 13.3435L253.355 13.3435C253.339 13.3391 253.32 13.334 253.297 13.3284C253.176 13.2994 253.051 13.2515 252.854 13.1757C252.847 13.1727 252.833 13.1658 252.815 13.1563C252.723 13.1093 252.511 13 252.269 13C251.911 13 251.568 13.0906 251.362 13.1452C251.314 13.1578 251.273 13.1685 251.242 13.1757ZM248.598 18.7826C247.294 19.8098 246.141 21.7024 245.975 25.0658C245.964 25.3062 245.951 25.5471 245.938 25.7873L245.938 25.7873L245.938 25.7874C245.886 26.7564 245.835 27.7147 245.854 28.5836C245.879 29.6845 246.017 30.5403 246.337 31.0555C246.986 32.0991 248.071 32.6458 249.23 32.9165C250.389 33.1869 251.569 33.1684 252.327 33.1229L252.336 33.1224L252.345 33.1222C253.051 33.1089 254.176 33.0673 255.316 32.828C256.465 32.5867 257.566 32.1565 258.281 31.411C258.778 30.8917 259.009 30.0543 259.08 28.9168C259.136 28.0371 259.094 27.048 259.05 25.9868L259.05 25.9866C259.037 25.6833 259.024 25.3741 259.013 25.0598C258.903 21.9361 257.769 20.0859 256.447 19.0204C255.443 18.2117 254.307 17.8352 253.37 17.7159C254.146 18.5301 255.026 19.349 255.507 19.6446L255.061 20.3687C254.86 20.1673 254.557 19.9036 254.208 19.5994L254.208 19.5994C253.705 19.1614 253.106 18.6395 252.574 18.0991C252.548 18.4454 252.525 18.8325 252.515 19.1999C252.507 19.5164 252.509 19.8104 252.526 20.048C252.534 20.1669 252.546 20.2653 252.56 20.3418C252.567 20.3798 252.574 20.4092 252.581 20.4311C252.587 20.4519 252.591 20.4611 252.591 20.462L252.652 20.7938L251.831 20.8422C251.732 20.6443 251.696 20.3607 251.678 20.1075C251.659 19.8317 251.657 19.5076 251.666 19.1781C251.672 18.9159 251.685 18.6454 251.702 18.3858C251.011 19.0527 250.284 19.6307 249.748 20.0572C249.673 20.1168 249.601 20.1734 249.535 20.227L249.089 19.5029C249.561 19.1737 250.435 18.4574 251.209 17.6831C250.385 17.7926 249.447 18.1141 248.598 18.7826Z" fill="white"/>
<path d="M242.263 43.1H243.397C243.78 43.1 244.067 43.2027 244.258 43.408C244.449 43.6133 244.545 43.9143 244.545 44.311V44.794C244.545 45.1907 244.449 45.4917 244.258 45.697C244.067 45.9023 243.78 46.005 243.397 46.005H243.033V48H242.263V43.1ZM243.397 45.305C243.523 45.305 243.616 45.27 243.677 45.2C243.742 45.13 243.775 45.011 243.775 44.843V44.262C243.775 44.094 243.742 43.975 243.677 43.905C243.616 43.835 243.523 43.8 243.397 43.8H243.033V45.305H243.397ZM246.076 48.07C245.698 48.07 245.409 47.9627 245.208 47.748C245.008 47.5333 244.907 47.23 244.907 46.838V44.262C244.907 43.87 245.008 43.5667 245.208 43.352C245.409 43.1373 245.698 43.03 246.076 43.03C246.454 43.03 246.744 43.1373 246.944 43.352C247.145 43.5667 247.245 43.87 247.245 44.262V46.838C247.245 47.23 247.145 47.5333 246.944 47.748C246.744 47.9627 246.454 48.07 246.076 48.07ZM246.076 47.37C246.342 47.37 246.475 47.209 246.475 46.887V44.213C246.475 43.891 246.342 43.73 246.076 43.73C245.81 43.73 245.677 43.891 245.677 44.213V46.887C245.677 47.209 245.81 47.37 246.076 47.37ZM248.886 48.07C248.513 48.07 248.228 47.965 248.032 47.755C247.836 47.5403 247.738 47.2347 247.738 46.838V43.1H248.508V46.894C248.508 47.062 248.541 47.1833 248.606 47.258C248.676 47.3327 248.774 47.37 248.9 47.37C249.026 47.37 249.122 47.3327 249.187 47.258C249.257 47.1833 249.292 47.062 249.292 46.894V43.1H250.034V46.838C250.034 47.2347 249.936 47.5403 249.74 47.755C249.544 47.965 249.259 48.07 248.886 48.07ZM250.582 43.1H251.744C252.141 43.1 252.43 43.1933 252.612 43.38C252.794 43.562 252.885 43.8443 252.885 44.227V44.423C252.885 44.675 252.843 44.8803 252.759 45.039C252.68 45.1977 252.556 45.312 252.388 45.382V45.396C252.771 45.5267 252.962 45.8673 252.962 46.418V46.838C252.962 47.216 252.862 47.5053 252.661 47.706C252.465 47.902 252.176 48 251.793 48H250.582V43.1ZM251.653 45.095C251.807 45.095 251.922 45.0553 251.996 44.976C252.076 44.8967 252.115 44.7637 252.115 44.577V44.304C252.115 44.1267 252.083 43.9983 252.017 43.919C251.957 43.8397 251.859 43.8 251.723 43.8H251.352V45.095H251.653ZM251.793 47.3C251.929 47.3 252.029 47.265 252.094 47.195C252.16 47.1203 252.192 46.9943 252.192 46.817V46.39C252.192 46.166 252.153 46.012 252.073 45.928C251.999 45.8393 251.873 45.795 251.695 45.795H251.352V47.3H251.793ZM253.412 43.1H255.512V43.8H254.182V45.095H255.239V45.795H254.182V47.3H255.512V48H253.412V43.1ZM255.955 43.1H256.725V47.3H257.992V48H255.955V43.1ZM258.362 43.1H259.132V47.3H260.399V48H258.362V43.1ZM260.768 43.1H262.868V43.8H261.538V45.095H262.595V45.795H261.538V47.3H262.868V48H260.768V43.1Z" fill="white"/>
<path d="M275.59 31.07C275.212 31.07 274.923 30.9627 274.722 30.748C274.522 30.5333 274.421 30.23 274.421 29.838V27.262C274.421 26.87 274.522 26.5667 274.722 26.352C274.923 26.1373 275.212 26.03 275.59 26.03C275.968 26.03 276.258 26.1373 276.458 26.352C276.659 26.5667 276.759 26.87 276.759 27.262V29.838C276.759 30.23 276.659 30.5333 276.458 30.748C276.258 30.9627 275.968 31.07 275.59 31.07ZM275.59 30.37C275.856 30.37 275.989 30.209 275.989 29.887V27.213C275.989 26.891 275.856 26.73 275.59 26.73C275.324 26.73 275.191 26.891 275.191 27.213V29.887C275.191 30.209 275.324 30.37 275.59 30.37ZM278.4 31.07C278.027 31.07 277.742 30.965 277.546 30.755C277.35 30.5403 277.252 30.2347 277.252 29.838V26.1H278.022V29.894C278.022 30.062 278.055 30.1833 278.12 30.258C278.19 30.3327 278.288 30.37 278.414 30.37C278.54 30.37 278.636 30.3327 278.701 30.258C278.771 30.1833 278.806 30.062 278.806 29.894V26.1H279.548V29.838C279.548 30.2347 279.45 30.5403 279.254 30.755C279.058 30.965 278.773 31.07 278.4 31.07Z" fill="white"/>
<rect x="286" y="8" width="31" height="31" fill="black"/>
<path d="M289.11 43.1H290.286C290.668 43.1 290.955 43.2027 291.147 43.408C291.338 43.6133 291.434 43.9143 291.434 44.311V46.789C291.434 47.1857 291.338 47.4867 291.147 47.692C290.955 47.8973 290.668 48 290.286 48H289.11V43.1ZM290.272 47.3C290.398 47.3 290.493 47.2627 290.559 47.188C290.629 47.1133 290.664 46.992 290.664 46.824V44.276C290.664 44.108 290.629 43.9867 290.559 43.912C290.493 43.8373 290.398 43.8 290.272 43.8H289.88V47.3H290.272ZM291.954 43.1H294.054V43.8H292.724V45.095H293.781V45.795H292.724V47.3H294.054V48H291.954V43.1ZM293.074 41.966H293.914L293.165 42.771H292.584L293.074 41.966ZM295.581 48.07C295.213 48.07 294.93 47.965 294.734 47.755C294.543 47.545 294.447 47.2487 294.447 46.866V44.234C294.447 43.8513 294.543 43.555 294.734 43.345C294.93 43.135 295.213 43.03 295.581 43.03C295.95 43.03 296.23 43.135 296.421 43.345C296.617 43.555 296.715 43.8513 296.715 44.234V44.752H295.987V44.185C295.987 43.8817 295.859 43.73 295.602 43.73C295.346 43.73 295.217 43.8817 295.217 44.185V46.922C295.217 47.2207 295.346 47.37 295.602 47.37C295.859 47.37 295.987 47.2207 295.987 46.922V46.173H296.715V46.866C296.715 47.2487 296.617 47.545 296.421 47.755C296.23 47.965 295.95 48.07 295.581 48.07ZM297.176 43.1H297.946V45.095H298.772V43.1H299.542V48H298.772V45.795H297.946V48H297.176V43.1ZM300.116 43.1H302.216V43.8H300.886V45.095H301.943V45.795H300.886V47.3H302.216V48H300.116V43.1ZM300.256 41.966H301.096L301.586 42.771H301.005L300.256 41.966ZM303.261 43.8H302.456V43.1H304.836V43.8H304.031V48H303.261V43.8ZM305.208 43.1H307.308V43.8H305.978V45.095H307.035V45.795H305.978V47.3H307.308V48H305.208V43.1ZM307.751 43.1H308.892C309.289 43.1 309.578 43.1933 309.76 43.38C309.942 43.562 310.033 43.8443 310.033 44.227V44.528C310.033 45.0367 309.865 45.3587 309.529 45.494V45.508C309.716 45.564 309.847 45.6783 309.921 45.851C310.001 46.0237 310.04 46.2547 310.04 46.544V47.405C310.04 47.545 310.045 47.6593 310.054 47.748C310.064 47.832 310.087 47.916 310.124 48H309.34C309.312 47.9207 309.294 47.846 309.284 47.776C309.275 47.706 309.27 47.58 309.27 47.398V46.502C309.27 46.278 309.233 46.1217 309.158 46.033C309.088 45.9443 308.965 45.9 308.787 45.9H308.521V48H307.751V43.1ZM308.801 45.2C308.955 45.2 309.07 45.1603 309.144 45.081C309.224 45.0017 309.263 44.8687 309.263 44.682V44.304C309.263 44.1267 309.231 43.9983 309.165 43.919C309.105 43.8397 309.007 43.8 308.871 43.8H308.521V45.2H308.801ZM310.575 43.1H311.345V48H310.575V43.1ZM311.921 43.1H314.021V43.8H312.691V45.095H313.748V45.795H312.691V47.3H314.021V48H311.921V43.1Z" fill="white"/>
<path d="M295.988 32.4391L291.474 32.4342C291.217 32.4342 291.005 32.2268 291.005 31.9699L291 27.4806C291 27.2929 291.114 27.1201 291.291 27.0509C291.464 26.9769 291.667 27.0164 291.8 27.1497L292.684 28.0288L300.29 20.4577C300.473 20.2799 300.769 20.2799 300.952 20.4577L303.046 22.5418C303.135 22.6307 303.184 22.7443 303.184 22.8727C303.184 22.9962 303.135 23.1147 303.046 23.2036L295.44 30.7649L296.319 31.644C296.452 31.7773 296.492 31.9798 296.418 32.1527C296.349 32.3255 296.176 32.4391 295.988 32.4391ZM291.943 31.5008L294.852 31.5057L294.442 31.0958C294.26 30.913 294.26 30.6167 294.442 30.434L302.048 22.8727L300.621 21.4504L293.015 29.0166C292.832 29.1993 292.536 29.1993 292.353 29.0166L291.938 28.6116" fill="white"/>
<path d="M305.54 25.673C305.179 25.673 304.833 25.5347 304.567 25.2878C304.29 25.031 304.132 24.6803 304.117 24.3001L304.048 22.1517L304.987 22.1221L305.056 24.2704C305.061 24.3988 305.115 24.5174 305.209 24.6063C305.303 24.6952 305.436 24.7297 305.559 24.7396C305.688 24.7347 305.806 24.6803 305.895 24.5865C305.984 24.4927 306.029 24.3692 306.024 24.2408L305.92 21.3763L306.858 21.3467L306.962 24.2062C306.977 24.5865 306.844 24.947 306.582 25.2236C306.32 25.5002 305.969 25.6582 305.589 25.6681C305.569 25.673 305.555 25.673 305.54 25.673Z" fill="white"/>
<path d="M305.54 25.673C305.179 25.673 304.833 25.5347 304.567 25.2878C304.29 25.031 304.132 24.6803 304.117 24.3001L304.048 22.1517L304.987 22.1221L305.056 24.2704C305.061 24.3988 305.115 24.5174 305.209 24.6063C305.303 24.6952 305.436 24.7297 305.559 24.7396C305.688 24.7347 305.806 24.6803 305.895 24.5865C305.984 24.4927 306.029 24.3692 306.024 24.2408L305.92 21.3763L306.858 21.3467L306.962 24.2062C306.977 24.5865 306.844 24.947 306.582 25.2236C306.32 25.5002 305.969 25.6582 305.589 25.6681C305.569 25.673 305.555 25.673 305.54 25.673Z" fill="white"/>
<path d="M303.643 25.9941C303.278 25.9941 302.937 25.8607 302.67 25.6138C302.394 25.352 302.231 25.0014 302.221 24.6211L302.152 22.4727L303.09 22.4431L303.159 24.5915C303.164 24.7248 303.219 24.8433 303.312 24.9322C303.406 25.0211 303.53 25.0755 303.658 25.0607C303.925 25.0508 304.137 24.8285 304.127 24.5618L304.024 21.7023L304.962 21.6677L305.066 24.5273C305.095 25.3125 304.478 25.9644 303.693 25.9941C303.673 25.9941 303.658 25.9941 303.643 25.9941Z" fill="white"/>
<path d="M305.258 32.449C305.066 32.449 304.893 32.3305 304.824 32.1576C304.75 31.9848 304.789 31.7823 304.922 31.6489L305.806 30.7698L298.201 23.2037C298.018 23.0259 298.018 22.7295 298.201 22.5468L300.29 20.4627C300.463 20.2898 300.779 20.2898 300.952 20.4627L308.893 28.3597L308.226 29.0215L300.621 21.4553L299.193 22.8777L306.799 30.4389C306.987 30.6217 306.987 30.9229 306.799 31.1007L306.389 31.5107H309.298L309.303 27.4856H310.241L310.237 31.9749C310.237 32.2317 310.029 32.4391 309.767 32.4391L305.258 32.449Z" fill="white"/>
<path d="M300.601 36C300.478 36 300.359 35.9556 300.265 35.8617L297.075 32.696C296.941 32.5626 296.902 32.3601 296.971 32.1873C297.045 32.0095 297.218 31.8959 297.406 31.8959H298.655V23.2037C298.655 22.9469 298.863 22.7345 299.124 22.7345H302.083C302.339 22.7345 302.552 22.9469 302.552 23.2037V32.3651H301.613V23.6729H299.593V32.3651C299.593 32.6219 299.381 32.8293 299.124 32.8293H298.542L300.601 34.874L303.461 32.0342L304.127 32.696L300.932 35.8617C300.838 35.9556 300.72 36 300.601 36Z" fill="white"/>
<path d="M295.983 32.4391L291.474 32.4342C291.217 32.4342 291.005 32.2268 291.005 31.9699L291 27.4806C291 27.2929 291.114 27.1201 291.291 27.0509C291.464 26.9769 291.667 27.0164 291.8 27.1497L292.684 28.0288L300.29 20.4577C300.473 20.2799 300.769 20.2799 300.952 20.4577L303.046 22.5418C303.135 22.6307 303.184 22.7443 303.184 22.8727C303.184 22.9962 303.135 23.1147 303.046 23.2036L295.104 31.0958L294.442 30.434L302.048 22.8727L300.621 21.4504L293.015 29.0166C292.832 29.1993 292.536 29.1993 292.353 29.0166L291.938 28.6116L291.943 31.5008L295.988 31.5057" fill="white"/>
<path d="M311.407 19.0452C311.066 19.0452 310.745 18.9119 310.503 18.6748L306.098 14.2892C305.856 14.0522 305.722 13.7311 305.722 13.3953C305.722 13.0545 305.856 12.7384 306.093 12.4964L307.239 11.3556C307.723 10.8815 308.562 10.8815 309.046 11.3556L313.452 15.7412C313.95 16.2351 313.95 17.0401 313.452 17.534L312.306 18.6748C312.064 18.9119 311.748 19.0452 311.407 19.0452ZM308.142 11.9186C308.054 11.9186 307.97 11.9581 307.905 12.0174V12.0223L306.76 13.1582C306.695 13.2224 306.661 13.3064 306.661 13.3953C306.661 13.4842 306.695 13.5682 306.76 13.6274L311.165 18.013C311.293 18.1414 311.516 18.1365 311.644 18.013L312.79 16.8771C312.918 16.7438 312.918 16.5314 312.785 16.403L308.379 12.0223C308.315 11.9581 308.231 11.9186 308.142 11.9186Z" fill="white"/>
<path d="M306.742 26.6614L303.2 23.5131L302.413 24.3002L302.019 25.8743L304.381 29.0227L306.742 26.6614Z" fill="black"/>
<path d="M305.258 32.449C305.066 32.449 304.893 32.3305 304.824 32.1576C304.75 31.9848 304.789 31.7823 304.922 31.6489L305.806 30.7698L298.201 23.2037C298.018 23.0259 298.018 22.7295 298.201 22.5468L300.29 20.4627C300.463 20.2898 300.779 20.2898 300.952 20.4627L308.562 28.0338L309.441 27.1547C309.575 27.0213 309.777 26.9818 309.955 27.0559C310.128 27.125 310.241 27.2979 310.241 27.4856L310.237 31.9749C310.237 32.2317 310.029 32.4391 309.767 32.4391L305.258 32.449ZM299.193 22.8777L306.799 30.4389C306.987 30.6217 306.987 30.9229 306.799 31.1007L306.389 31.5107H309.298L309.303 28.6165L308.893 29.0215C308.71 29.2043 308.414 29.2043 308.226 29.0215L300.621 21.4553" fill="white"/>
<path d="M297.69 32.5646H299.264V23.5131H302.019L302.413 32.5646H303.2L300.445 35.713L297.69 32.5646Z" fill="black"/>
<path d="M300.601 36C300.478 36 300.359 35.9556 300.27 35.8617L297.075 32.696C296.941 32.5626 296.902 32.3601 296.971 32.1873C297.045 32.0095 297.218 31.8959 297.406 31.8959H298.655V23.2037C298.655 22.9469 298.863 22.7345 299.124 22.7345H302.083C302.339 22.7345 302.552 22.9469 302.552 23.2037V31.8959H303.791C303.984 31.8959 304.157 32.0095 304.226 32.1873C304.3 32.3601 304.261 32.5626 304.127 32.696L300.932 35.8617C300.838 35.9556 300.72 36 300.601 36ZM298.542 32.8293L300.601 34.874L302.66 32.8293H302.083C301.821 32.8293 301.613 32.6219 301.613 32.3651V23.6729H299.593V32.3651C299.593 32.6219 299.381 32.8293 299.124 32.8293" fill="white"/>
<path d="M302.413 20.8232L300.29 23.658C299.929 24.1371 300.028 24.8187 300.512 25.1742C300.991 25.5348 301.678 25.436 302.038 24.9569L303.362 23.1889C303.89 22.4974 304.483 22.2406 304.769 22.1665C305.406 21.9986 307.323 21.2825 308.35 20.6652C309.372 20.0429 309.901 18.6008 309.846 17.3611L306.789 14.3188L300.3 16.3339C299.509 16.6006 299.223 17.05 299.104 17.3167C298.986 17.5883 297.692 20.6306 297.692 20.6306C297.544 21.0109 297.46 21.4652 297.677 21.8505C297.894 22.2357 298.388 23.0061 298.388 23.0061L299.816 21.5838C299.816 21.5838 299.761 20.7985 299.944 20.3935C300.132 19.9935 300.329 19.3268 300.754 19.1736C301.174 19.0255 301.91 18.7884 301.91 18.7884C301.91 18.7884 301.845 19.628 301.994 20.0774C302.147 20.5269 302.379 20.7936 302.379 20.7936" fill="black"/>
<path d="M301.164 25.8607C300.828 25.8607 300.502 25.7521 300.23 25.5496C299.895 25.3026 299.677 24.9372 299.618 24.5272C299.564 24.1173 299.667 23.7074 299.919 23.3765L301.831 20.8232C301.737 20.6701 301.633 20.4725 301.549 20.2256C301.475 19.9935 301.44 19.7021 301.431 19.4403C301.248 19.4996 301.06 19.5638 300.912 19.6132C300.759 19.6675 300.576 20.1071 300.477 20.3392L300.374 20.5911C300.28 20.7886 300.265 21.2726 300.285 21.5541C300.295 21.6875 300.245 21.8208 300.151 21.9146L298.719 23.337C298.62 23.4358 298.477 23.4852 298.339 23.4704C298.196 23.4555 298.072 23.3765 297.993 23.258C297.993 23.258 297.489 22.4727 297.267 22.0826C297.015 21.6331 297.01 21.0849 297.257 20.4577C297.262 20.4478 298.556 17.4006 298.675 17.1339C298.927 16.561 299.435 16.1314 300.147 15.8894L306.646 13.8743C306.814 13.82 306.997 13.8645 307.12 13.9879L310.182 17.0351C310.266 17.1191 310.31 17.2278 310.315 17.3463C310.37 18.6057 309.851 20.3046 308.592 21.0602C307.525 21.7072 305.589 22.4332 304.888 22.6209C304.784 22.6456 304.241 22.8135 303.737 23.4704L302.413 25.2384C302.162 25.5693 301.801 25.7866 301.386 25.8459C301.312 25.8558 301.238 25.8607 301.164 25.8607ZM301.915 18.3242C302.018 18.3242 302.122 18.3587 302.201 18.4229C302.325 18.5217 302.394 18.6699 302.379 18.8279C302.359 19.1144 302.354 19.6675 302.443 19.9293C302.557 20.2799 302.734 20.4923 302.739 20.4923C302.922 20.6503 302.937 20.9071 302.789 21.1047L300.67 23.9346C300.566 24.0679 300.527 24.2309 300.552 24.3939C300.571 24.5569 300.66 24.705 300.794 24.7989C300.927 24.9026 301.09 24.9372 301.253 24.9223C301.416 24.8977 301.564 24.8088 301.663 24.6803L302.986 22.9073C303.663 22.0282 304.428 21.7714 304.651 21.7171C305.214 21.5689 307.11 20.8676 308.103 20.2651C308.947 19.7564 309.372 18.5563 309.382 17.5587L306.656 14.8522L300.438 16.7783C299.988 16.9314 299.677 17.1784 299.534 17.5043C299.416 17.776 298.127 20.8133 298.127 20.8133C297.993 21.1541 297.978 21.4306 298.087 21.6183C298.181 21.7912 298.334 22.0381 298.472 22.2604L299.342 21.401C299.337 21.0948 299.351 20.5664 299.519 20.2009L299.613 19.9836C299.796 19.5391 300.053 18.9267 300.596 18.7341C301.021 18.5859 301.766 18.3439 301.766 18.3439C301.816 18.3291 301.865 18.3242 301.915 18.3242Z" fill="white"/>
</g>
<defs>
<clipPath id="clip0_66_2724">
<rect width="332" height="61" fill="white"/>
</clipPath>
</defs>
</svg>
