<svg width="312" height="61" viewBox="0 0 312 61" fill="none" xmlns="http://www.w3.org/2000/svg">
<g clip-path="url(#clip0_66_1949)">
<path d="M24.6979 60.4688C11.0781 60.4688 0 49.5208 0 36.0625V0H286.948C300.563 0 311.641 10.9479 311.641 24.4062V60.4688" fill="white"/>
<path d="M244.083 52.9114H69.1353C59.6874 52.9114 51.9999 45.3541 51.9999 36.0625V7.55725H226.948C236.396 7.55725 244.083 15.1145 244.083 24.4062V52.9114ZM227 6L50.1667 5.66663L50.1145 36.0625C50.1145 46.3958 58.6458 54.802 69.1353 54.802L245.969 55V24.4062C245.969 14.0729 237.49 6 227 6Z" fill="#010101"/>
<path d="M102.901 5.66663H50.1145V36.0625C50.1145 46.3958 58.6458 54.802 69.1353 54.802H121.927V24.4062C121.927 14.0729 113.391 5.66663 102.901 5.66663Z" fill="#010101"/>
<path d="M63.651 29.3594C58.8489 29.3594 54.9583 33.25 54.9583 38.0521C54.9583 42.8542 58.8489 46.7448 63.651 46.7448C68.4583 46.7448 72.3489 42.8542 72.3489 38.0521C72.3489 33.25 68.4583 29.3594 63.651 29.3594Z" fill="white"/>
<path d="M69.3229 39.4688H65.0729V43.7188H62.2344V39.4688H57.9844V36.6355H62.2344V32.3802H65.0729V36.6355H69.3229" fill="#1C1C1B"/>
<path d="M55.7864 26.5937V17.1979H58.2708V24.5156H61.828V26.5937" fill="white"/>
<path d="M62.9426 26.5937V17.1979H69.0155V19.276H65.4322V20.7552H68.4947V22.8385H65.4322V24.5156H69.1614V26.5937" fill="white"/>
<path d="M75.0885 26.5937V19.276H72.6041V17.1979H80.0677V19.276H77.5781V26.5937" fill="white"/>
<path d="M83.5521 21.4739H84.4479C85.4479 21.4739 85.9531 21.0625 85.9531 20.2343C85.9531 19.8281 85.8229 19.5468 85.5677 19.3958C85.3125 19.2395 84.9375 19.1614 84.4479 19.1614H83.5521V21.4739ZM81.0625 26.5989V17.1979H84.6198C85.125 17.1979 85.6042 17.2448 86.0625 17.3385C86.5208 17.4375 86.9167 17.5989 87.2604 17.8333C87.6042 18.0625 87.875 18.375 88.0781 18.7656C88.2813 19.1562 88.3802 19.6458 88.3802 20.2343C88.3802 20.9062 88.2448 21.4687 87.9688 21.9114C87.6979 22.3541 87.3281 22.6979 86.8646 22.9531L88.901 26.5989H86.125L84.5052 23.4427H83.5521V26.5989" fill="white"/>
<path d="M89.8698 26.5989H92.3593V17.1979H89.8698V26.5989Z" fill="white"/>
<path d="M75.3801 43.276V33.8698H81.5103V35.9531H77.8697V37.75H80.9895V39.8333H77.8697V43.276" fill="white"/>
<path d="M84.9218 38.7031L84.7604 39.3541H86.4948L86.3385 38.7031C86.2239 38.25 86.1041 37.7604 85.9895 37.2291C85.875 36.6979 85.7604 36.1979 85.6406 35.7239H85.5833C85.4791 36.2031 85.3698 36.7083 85.2604 37.2343C85.151 37.7604 85.0364 38.25 84.9218 38.7031ZM81.3073 43.276L84.1666 33.8698H87.1718L90.0364 43.276H87.4062L86.9427 41.276H84.3125L83.8489 43.276" fill="white"/>
<path d="M94.5624 43.4479C93.9687 43.4479 93.3958 43.3489 92.8541 43.151C92.3072 42.9531 91.8333 42.651 91.4218 42.2552C91.0103 41.8541 90.6822 41.3541 90.4426 40.75C90.203 40.1458 90.0833 39.4479 90.0833 38.6458C90.0833 37.8541 90.2083 37.151 90.4583 36.5416C90.7083 35.927 91.0416 35.4114 91.4635 34.9948C91.8801 34.5729 92.3645 34.25 92.9114 34.0312C93.4583 33.8073 94.026 33.6979 94.6249 33.6979C95.2499 33.6979 95.8124 33.8229 96.302 34.0677C96.7968 34.3125 97.2083 34.6041 97.5468 34.9427L96.2447 36.5312C96.0155 36.3333 95.776 36.1666 95.5312 36.0312C95.2812 35.9062 94.9999 35.8385 94.6822 35.8385C94.401 35.8385 94.1405 35.901 93.8958 36.026C93.651 36.151 93.4322 36.3333 93.2447 36.5625C93.0572 36.7916 92.9062 37.0781 92.7968 37.4166C92.6822 37.75 92.6301 38.1354 92.6301 38.5573C92.6301 39.4479 92.8124 40.125 93.1874 40.5989C93.5572 41.0677 94.0468 41.3073 94.651 41.3073C95.0208 41.3073 95.3437 41.2291 95.6301 41.0677C95.9114 40.9062 96.1562 40.7187 96.3593 40.4948L97.6614 42.0573C97.2551 42.5208 96.7916 42.8698 96.2655 43.0989C95.7395 43.3333 95.1718 43.4479 94.5624 43.4479Z" fill="white"/>
<path d="M98.6198 43.276H101.104V33.8698H98.6198V43.276Z" fill="white"/>
<path d="M102.875 43.276V33.8698H105.365V41.1927H108.922V43.276" fill="white"/>
<path d="M110.031 43.276V33.8698H116.109V35.9531H112.521V37.4323H115.589V39.5156H112.521V41.1927H116.255V43.276" fill="white"/>
<path fill-rule="evenodd" clip-rule="evenodd" d="M16.2604 29.1927C16.2604 29.1927 15.9115 29.151 15.6771 29.7968L13.5573 35.7083C15.224 37.1198 17.1823 38.1823 19.3281 38.8073L16.7552 29.7708C16.5781 29.125 16.2604 29.1927 16.2604 29.1927ZM5.67188 23.6979C5.67188 13.7552 13.7604 5.66663 23.7031 5.66663C28.9635 5.66663 33.7083 7.93225 37.0052 11.5364L35.3906 13.177C32.5104 9.97913 28.3385 7.9635 23.7031 7.9635C15.026 7.9635 7.96875 15.0208 7.96875 23.6979C7.96875 27.5208 9.34375 31.0312 11.6198 33.7604L14.2656 20.7968C14.7396 18.5104 16.8854 16.7552 19.0521 17.1562C20.6406 17.4583 28.0938 22.3958 28.0938 22.3958C28.7292 22.802 28.375 23.3489 28.375 23.3489C28.375 23.3489 28.0729 23.875 27.4479 23.6041L21.9792 21.4062C21.0052 20.9948 19.4323 21.4323 19.6667 24.1875L21.3802 38.7864L21.4531 39.2656C22.1875 39.375 22.9375 39.4323 23.7031 39.4323C24.1875 39.4323 24.6719 39.401 25.1458 39.3541L25.0052 37.4531L28.6979 40.2708L25.3958 43.4635L25.276 41.651C24.7552 41.6979 24.2344 41.7291 23.7031 41.7291C13.7604 41.7291 5.67188 33.6406 5.67188 23.6979ZM19.9375 16.4115C18.4167 16.4115 17.1875 15.1823 17.1875 13.6562C17.1875 12.1354 18.4167 10.9062 19.9375 10.9062C21.4583 10.9062 22.6927 12.1354 22.6927 13.6562C22.6927 15.1823 21.4583 16.4115 19.9375 16.4115ZM37.1046 24.564C37.7365 24.0543 39.7005 22.4703 40.1613 19.1927L40.2342 18.1823L42.0519 18.2864L38.0259 12.8541L33.2134 17.6927L34.979 17.7656L34.9998 17.7708C35.0415 17.9687 35.2446 19.2656 34.5571 21.3177C33.7967 23.6041 31.4373 26.2916 28.4634 25.8177C32.6457 27.5677 36.0311 25.4375 37.0936 24.5729L37.1046 24.564ZM28.375 25.8489C29.5781 28.6093 33.1146 29.1406 35.4479 28.552C37.5208 28.026 38.5052 27.1718 38.6719 27.0156L38.6615 27L37.776 25.4635L44.4427 26.9218L42.0312 33.2395L41.1354 31.6458L40.2656 32.1198C37.2654 33.4985 34.8744 32.7065 34.0978 32.4492L34.0781 32.4427C32.7812 32.0156 29.1562 30.3125 28.375 25.8489ZM28.4062 25.7448C26.7135 28.2343 28.151 31.5104 29.8958 33.1718C31.4895 34.6823 32.7655 35.0364 32.9322 35.0781L33.7447 33.5208L36.0885 39.9323L29.4635 41.2812L30.3437 39.6458L29.4478 39.1458C26.6887 37.3493 26.0817 34.9168 25.8818 34.1162L25.8749 34.0885C25.5416 32.7604 25.0468 28.7864 28.4062 25.7448Z" fill="#010101"/>
<path d="M132.905 16.797C132.905 16.225 132.835 15.8107 132.696 15.554C132.564 15.29 132.318 15.158 131.959 15.158C131.761 15.158 131.596 15.213 131.464 15.323C131.339 15.4257 131.24 15.598 131.167 15.84C131.094 16.0747 131.042 16.3863 131.013 16.775C130.984 17.1563 130.969 17.6257 130.969 18.183C130.969 18.777 130.987 19.2573 131.024 19.624C131.068 19.9907 131.13 20.2767 131.211 20.482C131.299 20.68 131.405 20.8157 131.53 20.889C131.662 20.955 131.812 20.988 131.981 20.988C132.12 20.988 132.249 20.966 132.366 20.922C132.491 20.8707 132.597 20.7753 132.685 20.636C132.773 20.4893 132.843 20.2877 132.894 20.031C132.945 19.767 132.971 19.4223 132.971 18.997H134.555C134.555 19.4223 134.522 19.8257 134.456 20.207C134.39 20.5883 134.265 20.922 134.082 21.208C133.906 21.494 133.653 21.7177 133.323 21.879C133 22.0403 132.579 22.121 132.058 22.121C131.464 22.121 130.991 22.0257 130.639 21.835C130.287 21.6443 130.016 21.3693 129.825 21.01C129.642 20.6507 129.521 20.2217 129.462 19.723C129.411 19.2243 129.385 18.6743 129.385 18.073C129.385 17.479 129.411 16.9327 129.462 16.434C129.521 15.928 129.642 15.4953 129.825 15.136C130.016 14.7767 130.287 14.498 130.639 14.3C130.991 14.0947 131.464 13.992 132.058 13.992C132.623 13.992 133.066 14.0837 133.389 14.267C133.719 14.4503 133.965 14.685 134.126 14.971C134.287 15.2497 134.386 15.554 134.423 15.884C134.467 16.2067 134.489 16.511 134.489 16.797H132.905ZM135.458 14.146H138.384C139.044 14.146 139.558 14.3147 139.924 14.652C140.291 14.982 140.474 15.488 140.474 16.17C140.474 16.698 140.368 17.1307 140.155 17.468C139.943 17.798 139.613 18.0107 139.165 18.106V18.128C139.561 18.1867 139.851 18.315 140.034 18.513C140.218 18.711 140.331 19.03 140.375 19.47C140.39 19.6167 140.401 19.778 140.408 19.954C140.416 20.1227 140.423 20.3133 140.43 20.526C140.445 20.944 140.467 21.263 140.496 21.483C140.54 21.703 140.636 21.8533 140.782 21.934V22H139.066C138.986 21.89 138.934 21.7653 138.912 21.626C138.89 21.4793 138.876 21.329 138.868 21.175L138.824 19.668C138.81 19.36 138.733 19.118 138.593 18.942C138.454 18.766 138.219 18.678 137.889 18.678H137.042V22H135.458V14.146ZM137.042 17.578H137.702C138.084 17.578 138.377 17.49 138.582 17.314C138.788 17.1307 138.89 16.8263 138.89 16.401C138.89 15.675 138.524 15.312 137.79 15.312H137.042V17.578ZM142.99 18.073C142.99 18.601 143.001 19.052 143.023 19.426C143.052 19.7927 143.103 20.0933 143.177 20.328C143.257 20.5553 143.367 20.724 143.507 20.834C143.653 20.9367 143.844 20.988 144.079 20.988C144.313 20.988 144.5 20.9367 144.64 20.834C144.786 20.724 144.896 20.5553 144.97 20.328C145.05 20.0933 145.102 19.7927 145.124 19.426C145.153 19.052 145.168 18.601 145.168 18.073C145.168 17.545 145.153 17.0977 145.124 16.731C145.102 16.3643 145.05 16.0637 144.97 15.829C144.896 15.5943 144.786 15.4257 144.64 15.323C144.5 15.213 144.313 15.158 144.079 15.158C143.844 15.158 143.653 15.213 143.507 15.323C143.367 15.4257 143.257 15.5943 143.177 15.829C143.103 16.0637 143.052 16.3643 143.023 16.731C143.001 17.0977 142.99 17.545 142.99 18.073ZM141.406 18.073C141.406 17.479 141.431 16.9327 141.483 16.434C141.541 15.928 141.662 15.4953 141.846 15.136C142.036 14.7767 142.308 14.498 142.66 14.3C143.012 14.0947 143.485 13.992 144.079 13.992C144.673 13.992 145.146 14.0947 145.498 14.3C145.85 14.498 146.117 14.7767 146.301 15.136C146.491 15.4953 146.612 15.928 146.664 16.434C146.722 16.9327 146.752 17.479 146.752 18.073C146.752 18.6743 146.722 19.2243 146.664 19.723C146.612 20.2217 146.491 20.6507 146.301 21.01C146.117 21.3693 145.85 21.6443 145.498 21.835C145.146 22.0257 144.673 22.121 144.079 22.121C143.485 22.121 143.012 22.0257 142.66 21.835C142.308 21.6443 142.036 21.3693 141.846 21.01C141.662 20.6507 141.541 20.2217 141.483 19.723C141.431 19.2243 141.406 18.6743 141.406 18.073ZM147.76 22V14.146H149.344V22H147.76ZM151.795 19.547V19.778C151.795 19.9613 151.809 20.13 151.839 20.284C151.868 20.4307 151.923 20.5553 152.004 20.658C152.084 20.7607 152.191 20.8413 152.323 20.9C152.462 20.9587 152.634 20.988 152.84 20.988C153.082 20.988 153.298 20.911 153.489 20.757C153.687 20.5957 153.786 20.35 153.786 20.02C153.786 19.844 153.76 19.6937 153.709 19.569C153.665 19.437 153.588 19.3197 153.478 19.217C153.368 19.1143 153.221 19.0227 153.038 18.942C152.862 18.854 152.642 18.766 152.378 18.678C152.026 18.5607 151.721 18.4323 151.465 18.293C151.208 18.1537 150.992 17.9923 150.816 17.809C150.647 17.6183 150.522 17.402 150.442 17.16C150.361 16.9107 150.321 16.6247 150.321 16.302C150.321 15.5247 150.537 14.9453 150.97 14.564C151.402 14.1827 151.996 13.992 152.752 13.992C153.104 13.992 153.426 14.0323 153.72 14.113C154.02 14.1863 154.277 14.311 154.49 14.487C154.71 14.6557 154.878 14.8757 154.996 15.147C155.12 15.411 155.183 15.73 155.183 16.104V16.324H153.665C153.665 15.95 153.599 15.664 153.467 15.466C153.335 15.2607 153.115 15.158 152.807 15.158C152.631 15.158 152.484 15.1837 152.367 15.235C152.249 15.2863 152.154 15.356 152.081 15.444C152.015 15.5247 151.967 15.62 151.938 15.73C151.916 15.84 151.905 15.9537 151.905 16.071C151.905 16.313 151.956 16.5183 152.059 16.687C152.161 16.8483 152.381 16.9987 152.719 17.138L153.94 17.666C154.24 17.798 154.486 17.9373 154.677 18.084C154.867 18.2233 155.018 18.3773 155.128 18.546C155.245 18.7073 155.326 18.887 155.37 19.085C155.414 19.283 155.436 19.503 155.436 19.745C155.436 20.5737 155.194 21.1787 154.71 21.56C154.233 21.934 153.566 22.121 152.708 22.121C151.813 22.121 151.171 21.9267 150.783 21.538C150.401 21.1493 150.211 20.592 150.211 19.866V19.547H151.795ZM156.3 22V14.146H157.884V22H156.3ZM159.059 22V14.146H160.643V20.702H163.448V22H159.059ZM164.151 22V14.146H165.735V20.702H168.54V22H164.151ZM170.661 18.073C170.661 18.601 170.672 19.052 170.694 19.426C170.724 19.7927 170.775 20.0933 170.848 20.328C170.929 20.5553 171.039 20.724 171.178 20.834C171.325 20.9367 171.516 20.988 171.75 20.988C171.985 20.988 172.172 20.9367 172.311 20.834C172.458 20.724 172.568 20.5553 172.641 20.328C172.722 20.0933 172.773 19.7927 172.795 19.426C172.825 19.052 172.839 18.601 172.839 18.073C172.839 17.545 172.825 17.0977 172.795 16.731C172.773 16.3643 172.722 16.0637 172.641 15.829C172.568 15.5943 172.458 15.4257 172.311 15.323C172.172 15.213 171.985 15.158 171.75 15.158C171.516 15.158 171.325 15.213 171.178 15.323C171.039 15.4257 170.929 15.5943 170.848 15.829C170.775 16.0637 170.724 16.3643 170.694 16.731C170.672 17.0977 170.661 17.545 170.661 18.073ZM169.077 18.073C169.077 17.479 169.103 16.9327 169.154 16.434C169.213 15.928 169.334 15.4953 169.517 15.136C169.708 14.7767 169.979 14.498 170.331 14.3C170.683 14.0947 171.156 13.992 171.75 13.992C172.344 13.992 172.817 14.0947 173.169 14.3C173.521 14.498 173.789 14.7767 173.972 15.136C174.163 15.4953 174.284 15.928 174.335 16.434C174.394 16.9327 174.423 17.479 174.423 18.073C174.423 18.6743 174.394 19.2243 174.335 19.723C174.284 20.2217 174.163 20.6507 173.972 21.01C173.789 21.3693 173.521 21.6443 173.169 21.835C172.817 22.0257 172.344 22.121 171.75 22.121C171.156 22.121 170.683 22.0257 170.331 21.835C169.979 21.6443 169.708 21.3693 169.517 21.01C169.334 20.6507 169.213 20.2217 169.154 19.723C169.103 19.2243 169.077 18.6743 169.077 18.073ZM177.181 14.146L179.095 19.525H179.117V14.146H180.569V22H178.765L176.829 16.5H176.807V22H175.355V14.146H177.181ZM182.947 19.547V19.778C182.947 19.9613 182.962 20.13 182.991 20.284C183.02 20.4307 183.075 20.5553 183.156 20.658C183.237 20.7607 183.343 20.8413 183.475 20.9C183.614 20.9587 183.787 20.988 183.992 20.988C184.234 20.988 184.45 20.911 184.641 20.757C184.839 20.5957 184.938 20.35 184.938 20.02C184.938 19.844 184.912 19.6937 184.861 19.569C184.817 19.437 184.74 19.3197 184.63 19.217C184.52 19.1143 184.373 19.0227 184.19 18.942C184.014 18.854 183.794 18.766 183.53 18.678C183.178 18.5607 182.874 18.4323 182.617 18.293C182.36 18.1537 182.144 17.9923 181.968 17.809C181.799 17.6183 181.675 17.402 181.594 17.16C181.513 16.9107 181.473 16.6247 181.473 16.302C181.473 15.5247 181.689 14.9453 182.122 14.564C182.555 14.1827 183.149 13.992 183.904 13.992C184.256 13.992 184.579 14.0323 184.872 14.113C185.173 14.1863 185.429 14.311 185.642 14.487C185.862 14.6557 186.031 14.8757 186.148 15.147C186.273 15.411 186.335 15.73 186.335 16.104V16.324H184.817C184.817 15.95 184.751 15.664 184.619 15.466C184.487 15.2607 184.267 15.158 183.959 15.158C183.783 15.158 183.636 15.1837 183.519 15.235C183.402 15.2863 183.306 15.356 183.233 15.444C183.167 15.5247 183.119 15.62 183.09 15.73C183.068 15.84 183.057 15.9537 183.057 16.071C183.057 16.313 183.108 16.5183 183.211 16.687C183.314 16.8483 183.534 16.9987 183.871 17.138L185.092 17.666C185.393 17.798 185.638 17.9373 185.829 18.084C186.02 18.2233 186.17 18.3773 186.28 18.546C186.397 18.7073 186.478 18.887 186.522 19.085C186.566 19.283 186.588 19.503 186.588 19.745C186.588 20.5737 186.346 21.1787 185.862 21.56C185.385 21.934 184.718 22.121 183.86 22.121C182.965 22.121 182.324 21.9267 181.935 21.538C181.554 21.1493 181.363 20.592 181.363 19.866V19.547H182.947ZM131.134 30.699H131.838C132.153 30.699 132.406 30.6037 132.597 30.413C132.795 30.2223 132.894 29.9253 132.894 29.522C132.894 29.126 132.81 28.8253 132.641 28.62C132.472 28.4147 132.19 28.312 131.794 28.312H131.134V30.699ZM129.55 27.146H132.322C132.725 27.146 133.063 27.2157 133.334 27.355C133.613 27.487 133.836 27.663 134.005 27.883C134.174 28.103 134.295 28.356 134.368 28.642C134.441 28.9207 134.478 29.2067 134.478 29.5C134.478 29.9033 134.416 30.2553 134.291 30.556C134.174 30.8567 134.005 31.1023 133.785 31.293C133.572 31.4837 133.312 31.6267 133.004 31.722C132.696 31.8173 132.355 31.865 131.981 31.865H131.134V35H129.55V27.146ZM136.673 31.073C136.673 31.601 136.684 32.052 136.706 32.426C136.735 32.7927 136.787 33.0933 136.86 33.328C136.941 33.5553 137.051 33.724 137.19 33.834C137.337 33.9367 137.527 33.988 137.762 33.988C137.997 33.988 138.184 33.9367 138.323 33.834C138.47 33.724 138.58 33.5553 138.653 33.328C138.734 33.0933 138.785 32.7927 138.807 32.426C138.836 32.052 138.851 31.601 138.851 31.073C138.851 30.545 138.836 30.0977 138.807 29.731C138.785 29.3643 138.734 29.0637 138.653 28.829C138.58 28.5943 138.47 28.4257 138.323 28.323C138.184 28.213 137.997 28.158 137.762 28.158C137.527 28.158 137.337 28.213 137.19 28.323C137.051 28.4257 136.941 28.5943 136.86 28.829C136.787 29.0637 136.735 29.3643 136.706 29.731C136.684 30.0977 136.673 30.545 136.673 31.073ZM135.089 31.073C135.089 30.479 135.115 29.9327 135.166 29.434C135.225 28.928 135.346 28.4953 135.529 28.136C135.72 27.7767 135.991 27.498 136.343 27.3C136.695 27.0947 137.168 26.992 137.762 26.992C138.356 26.992 138.829 27.0947 139.181 27.3C139.533 27.498 139.801 27.7767 139.984 28.136C140.175 28.4953 140.296 28.928 140.347 29.434C140.406 29.9327 140.435 30.479 140.435 31.073C140.435 31.6743 140.406 32.2243 140.347 32.723C140.296 33.2217 140.175 33.6507 139.984 34.01C139.801 34.3693 139.533 34.6443 139.181 34.835C138.829 35.0257 138.356 35.121 137.762 35.121C137.168 35.121 136.695 35.0257 136.343 34.835C135.991 34.6443 135.72 34.3693 135.529 34.01C135.346 33.6507 135.225 33.2217 135.166 32.723C135.115 32.2243 135.089 31.6743 135.089 31.073ZM142.851 27.146V32.624C142.851 32.822 142.862 33.0053 142.884 33.174C142.914 33.3353 142.961 33.4783 143.027 33.603C143.101 33.7203 143.196 33.8157 143.313 33.889C143.438 33.955 143.592 33.988 143.775 33.988C143.966 33.988 144.12 33.955 144.237 33.889C144.355 33.8157 144.446 33.7203 144.512 33.603C144.586 33.4783 144.633 33.3353 144.655 33.174C144.685 33.0053 144.699 32.822 144.699 32.624V27.146H146.283V32.624C146.283 33.1227 146.214 33.537 146.074 33.867C145.935 34.1897 145.748 34.4463 145.513 34.637C145.279 34.8277 145.011 34.956 144.71 35.022C144.41 35.088 144.098 35.121 143.775 35.121C143.453 35.121 143.141 35.0917 142.84 35.033C142.54 34.9743 142.272 34.857 142.037 34.681C141.803 34.4977 141.616 34.241 141.476 33.911C141.337 33.581 141.267 33.152 141.267 32.624V27.146H142.851ZM147.285 27.146H150.211C150.871 27.146 151.385 27.3147 151.751 27.652C152.118 27.982 152.301 28.488 152.301 29.17C152.301 29.698 152.195 30.1307 151.982 30.468C151.77 30.798 151.44 31.0107 150.992 31.106V31.128C151.388 31.1867 151.678 31.315 151.861 31.513C152.045 31.711 152.158 32.03 152.202 32.47C152.217 32.6167 152.228 32.778 152.235 32.954C152.243 33.1227 152.25 33.3133 152.257 33.526C152.272 33.944 152.294 34.263 152.323 34.483C152.367 34.703 152.463 34.8533 152.609 34.934V35H150.893C150.813 34.89 150.761 34.7653 150.739 34.626C150.717 34.4793 150.703 34.329 150.695 34.175L150.651 32.668C150.637 32.36 150.56 32.118 150.42 31.942C150.281 31.766 150.046 31.678 149.716 31.678H148.869V35H147.285V27.146ZM148.869 30.578H149.529C149.911 30.578 150.204 30.49 150.409 30.314C150.615 30.1307 150.717 29.8263 150.717 29.401C150.717 28.675 150.351 28.312 149.617 28.312H148.869V30.578ZM157.624 30.699H158.328C158.644 30.699 158.897 30.6037 159.087 30.413C159.285 30.2223 159.384 29.9253 159.384 29.522C159.384 29.126 159.3 28.8253 159.131 28.62C158.963 28.4147 158.68 28.312 158.284 28.312H157.624V30.699ZM156.04 27.146H158.812C159.216 27.146 159.553 27.2157 159.824 27.355C160.103 27.487 160.327 27.663 160.495 27.883C160.664 28.103 160.785 28.356 160.858 28.642C160.932 28.9207 160.968 29.2067 160.968 29.5C160.968 29.9033 160.906 30.2553 160.781 30.556C160.664 30.8567 160.495 31.1023 160.275 31.293C160.063 31.4837 159.802 31.6267 159.494 31.722C159.186 31.8173 158.845 31.865 158.471 31.865H157.624V35H156.04V27.146ZM163.163 31.073C163.163 31.601 163.174 32.052 163.196 32.426C163.226 32.7927 163.277 33.0933 163.35 33.328C163.431 33.5553 163.541 33.724 163.68 33.834C163.827 33.9367 164.018 33.988 164.252 33.988C164.487 33.988 164.674 33.9367 164.813 33.834C164.96 33.724 165.07 33.5553 165.143 33.328C165.224 33.0933 165.275 32.7927 165.297 32.426C165.327 32.052 165.341 31.601 165.341 31.073C165.341 30.545 165.327 30.0977 165.297 29.731C165.275 29.3643 165.224 29.0637 165.143 28.829C165.07 28.5943 164.96 28.4257 164.813 28.323C164.674 28.213 164.487 28.158 164.252 28.158C164.018 28.158 163.827 28.213 163.68 28.323C163.541 28.4257 163.431 28.5943 163.35 28.829C163.277 29.0637 163.226 29.3643 163.196 29.731C163.174 30.0977 163.163 30.545 163.163 31.073ZM161.579 31.073C161.579 30.479 161.605 29.9327 161.656 29.434C161.715 28.928 161.836 28.4953 162.019 28.136C162.21 27.7767 162.481 27.498 162.833 27.3C163.185 27.0947 163.658 26.992 164.252 26.992C164.846 26.992 165.319 27.0947 165.671 27.3C166.023 27.498 166.291 27.7767 166.474 28.136C166.665 28.4953 166.786 28.928 166.837 29.434C166.896 29.9327 166.925 30.479 166.925 31.073C166.925 31.6743 166.896 32.2243 166.837 32.723C166.786 33.2217 166.665 33.6507 166.474 34.01C166.291 34.3693 166.023 34.6443 165.671 34.835C165.319 35.0257 164.846 35.121 164.252 35.121C163.658 35.121 163.185 35.0257 162.833 34.835C162.481 34.6443 162.21 34.3693 162.019 34.01C161.836 33.6507 161.715 33.2217 161.656 32.723C161.605 32.2243 161.579 31.6743 161.579 31.073ZM169.133 32.547V32.778C169.133 32.9613 169.147 33.13 169.177 33.284C169.206 33.4307 169.261 33.5553 169.342 33.658C169.422 33.7607 169.529 33.8413 169.661 33.9C169.8 33.9587 169.972 33.988 170.178 33.988C170.42 33.988 170.636 33.911 170.827 33.757C171.025 33.5957 171.124 33.35 171.124 33.02C171.124 32.844 171.098 32.6937 171.047 32.569C171.003 32.437 170.926 32.3197 170.816 32.217C170.706 32.1143 170.559 32.0227 170.376 31.942C170.2 31.854 169.98 31.766 169.716 31.678C169.364 31.5607 169.059 31.4323 168.803 31.293C168.546 31.1537 168.33 30.9923 168.154 30.809C167.985 30.6183 167.86 30.402 167.78 30.16C167.699 29.9107 167.659 29.6247 167.659 29.302C167.659 28.5247 167.875 27.9453 168.308 27.564C168.74 27.1827 169.334 26.992 170.09 26.992C170.442 26.992 170.764 27.0323 171.058 27.113C171.358 27.1863 171.615 27.311 171.828 27.487C172.048 27.6557 172.216 27.8757 172.334 28.147C172.458 28.411 172.521 28.73 172.521 29.104V29.324H171.003C171.003 28.95 170.937 28.664 170.805 28.466C170.673 28.2607 170.453 28.158 170.145 28.158C169.969 28.158 169.822 28.1837 169.705 28.235C169.587 28.2863 169.492 28.356 169.419 28.444C169.353 28.5247 169.305 28.62 169.276 28.73C169.254 28.84 169.243 28.9537 169.243 29.071C169.243 29.313 169.294 29.5183 169.397 29.687C169.499 29.8483 169.719 29.9987 170.057 30.138L171.278 30.666C171.578 30.798 171.824 30.9373 172.015 31.084C172.205 31.2233 172.356 31.3773 172.466 31.546C172.583 31.7073 172.664 31.887 172.708 32.085C172.752 32.283 172.774 32.503 172.774 32.745C172.774 33.5737 172.532 34.1787 172.048 34.56C171.571 34.934 170.904 35.121 170.046 35.121C169.151 35.121 168.509 34.9267 168.121 34.538C167.739 34.1493 167.549 33.592 167.549 32.866V32.547H169.133ZM177.95 27.146V28.444H175.145V30.292H177.785V31.59H175.145V33.702H178.06V35H173.561V27.146H177.95ZM183.16 33.834H183.864C184.143 33.834 184.367 33.7863 184.535 33.691C184.704 33.5957 184.836 33.438 184.931 33.218C185.034 32.998 185.1 32.7083 185.129 32.349C185.166 31.9897 185.184 31.5423 185.184 31.007C185.184 30.5597 185.17 30.1673 185.14 29.83C185.111 29.4927 185.049 29.214 184.953 28.994C184.865 28.7667 184.73 28.598 184.546 28.488C184.37 28.3707 184.132 28.312 183.831 28.312H183.16V33.834ZM181.576 27.146H184.172C184.722 27.146 185.166 27.2377 185.503 27.421C185.841 27.597 186.101 27.8537 186.284 28.191C186.475 28.521 186.603 28.9207 186.669 29.39C186.735 29.8593 186.768 30.3837 186.768 30.963C186.768 31.6523 186.724 32.2537 186.636 32.767C186.556 33.273 186.413 33.691 186.207 34.021C186.002 34.351 185.727 34.5967 185.382 34.758C185.038 34.9193 184.601 35 184.073 35H181.576V27.146ZM192.205 27.146V28.444H189.4V30.292H192.04V31.59H189.4V33.702H192.315V35H187.816V27.146H192.205ZM132.905 42.797C132.905 42.225 132.835 41.8107 132.696 41.554C132.564 41.29 132.318 41.158 131.959 41.158C131.761 41.158 131.596 41.213 131.464 41.323C131.339 41.4257 131.24 41.598 131.167 41.84C131.094 42.0747 131.042 42.3863 131.013 42.775C130.984 43.1563 130.969 43.6257 130.969 44.183C130.969 44.777 130.987 45.2573 131.024 45.624C131.068 45.9907 131.13 46.2767 131.211 46.482C131.299 46.68 131.405 46.8157 131.53 46.889C131.662 46.955 131.812 46.988 131.981 46.988C132.12 46.988 132.249 46.966 132.366 46.922C132.491 46.8707 132.597 46.7753 132.685 46.636C132.773 46.4893 132.843 46.2877 132.894 46.031C132.945 45.767 132.971 45.4223 132.971 44.997H134.555C134.555 45.4223 134.522 45.8257 134.456 46.207C134.39 46.5883 134.265 46.922 134.082 47.208C133.906 47.494 133.653 47.7177 133.323 47.879C133 48.0403 132.579 48.121 132.058 48.121C131.464 48.121 130.991 48.0257 130.639 47.835C130.287 47.6443 130.016 47.3693 129.825 47.01C129.642 46.6507 129.521 46.2217 129.462 45.723C129.411 45.2243 129.385 44.6743 129.385 44.073C129.385 43.479 129.411 42.9327 129.462 42.434C129.521 41.928 129.642 41.4953 129.825 41.136C130.016 40.7767 130.287 40.498 130.639 40.3C130.991 40.0947 131.464 39.992 132.058 39.992C132.623 39.992 133.066 40.0837 133.389 40.267C133.719 40.4503 133.965 40.685 134.126 40.971C134.287 41.2497 134.386 41.554 134.423 41.884C134.467 42.2067 134.489 42.511 134.489 42.797H132.905ZM138.736 45.041L137.977 41.51H137.955L137.196 45.041H138.736ZM138.945 40.146L141.024 48H139.374L139.011 46.339H136.921L136.558 48H134.908L136.987 40.146H138.945ZM141.571 40.146H144.497C145.157 40.146 145.67 40.3147 146.037 40.652C146.403 40.982 146.587 41.488 146.587 42.17C146.587 42.698 146.48 43.1307 146.268 43.468C146.055 43.798 145.725 44.0107 145.278 44.106V44.128C145.674 44.1867 145.963 44.315 146.147 44.513C146.33 44.711 146.444 45.03 146.488 45.47C146.502 45.6167 146.513 45.778 146.521 45.954C146.528 46.1227 146.535 46.3133 146.543 46.526C146.557 46.944 146.579 47.263 146.609 47.483C146.653 47.703 146.748 47.8533 146.895 47.934V48H145.179C145.098 47.89 145.047 47.7653 145.025 47.626C145.003 47.4793 144.988 47.329 144.981 47.175L144.937 45.668C144.922 45.36 144.845 45.118 144.706 44.942C144.566 44.766 144.332 44.678 144.002 44.678H143.155V48H141.571V40.146ZM143.155 43.578H143.815C144.196 43.578 144.489 43.49 144.695 43.314C144.9 43.1307 145.003 42.8263 145.003 42.401C145.003 41.675 144.636 41.312 143.903 41.312H143.155V43.578ZM147.683 40.146H150.609C151.269 40.146 151.782 40.3147 152.149 40.652C152.515 40.982 152.699 41.488 152.699 42.17C152.699 42.698 152.592 43.1307 152.38 43.468C152.167 43.798 151.837 44.0107 151.39 44.106V44.128C151.786 44.1867 152.075 44.315 152.259 44.513C152.442 44.711 152.556 45.03 152.6 45.47C152.614 45.6167 152.625 45.778 152.633 45.954C152.64 46.1227 152.647 46.3133 152.655 46.526C152.669 46.944 152.691 47.263 152.721 47.483C152.765 47.703 152.86 47.8533 153.007 47.934V48H151.291C151.21 47.89 151.159 47.7653 151.137 47.626C151.115 47.4793 151.1 47.329 151.093 47.175L151.049 45.668C151.034 45.36 150.957 45.118 150.818 44.942C150.678 44.766 150.444 44.678 150.114 44.678H149.267V48H147.683V40.146ZM149.267 43.578H149.927C150.308 43.578 150.601 43.49 150.807 43.314C151.012 43.1307 151.115 42.8263 151.115 42.401C151.115 41.675 150.748 41.312 150.015 41.312H149.267V43.578ZM158.184 40.146V41.444H155.379V43.292H158.019V44.59H155.379V46.702H158.294V48H153.795V40.146H158.184ZM159.091 48V40.146H160.675V46.702H163.48V48H159.091ZM167.461 45.041L166.702 41.51H166.68L165.921 45.041H167.461ZM167.67 40.146L169.749 48H168.099L167.736 46.339H165.646L165.283 48H163.633L165.712 40.146H167.67ZM173.782 42.478C173.782 42.3313 173.764 42.181 173.727 42.027C173.698 41.873 173.646 41.7337 173.573 41.609C173.5 41.477 173.404 41.3707 173.287 41.29C173.177 41.202 173.041 41.158 172.88 41.158C172.499 41.158 172.224 41.3707 172.055 41.796C171.886 42.2213 171.802 42.9253 171.802 43.908C171.802 44.3773 171.817 44.8027 171.846 45.184C171.875 45.5653 171.927 45.8917 172 46.163C172.081 46.427 172.191 46.6323 172.33 46.779C172.477 46.9183 172.664 46.988 172.891 46.988C172.986 46.988 173.089 46.9623 173.199 46.911C173.316 46.8597 173.423 46.7827 173.518 46.68C173.621 46.5773 173.705 46.449 173.771 46.295C173.837 46.1337 173.87 45.9467 173.87 45.734V44.931H172.825V43.765H175.388V48H174.222V47.274H174.2C174.009 47.582 173.778 47.802 173.507 47.934C173.243 48.0587 172.924 48.121 172.55 48.121C172.066 48.121 171.67 48.0367 171.362 47.868C171.061 47.6993 170.823 47.439 170.647 47.087C170.478 46.735 170.365 46.3023 170.306 45.789C170.247 45.2683 170.218 44.667 170.218 43.985C170.218 43.325 170.258 42.7457 170.339 42.247C170.427 41.7483 170.574 41.334 170.779 41.004C170.984 40.6667 171.256 40.4137 171.593 40.245C171.93 40.0763 172.352 39.992 172.858 39.992C173.723 39.992 174.347 40.2083 174.728 40.641C175.109 41.0663 175.3 41.6787 175.3 42.478H173.782ZM180.796 40.146V41.444H177.991V43.292H180.631V44.59H177.991V46.702H180.906V48H176.407V40.146H180.796Z" fill="black"/>
<path d="M191 6H217V55H210H191L204.5 28.5L191 6Z" fill="#010101"/>
<path d="M217 6H288C297.941 6 306 14.0589 306 24V55H217V6Z" fill="black"/>
<rect x="217" y="8" width="31" height="31" fill="black"/>
<path d="M219.881 43.1H220.924L221.722 48H220.952L220.812 47.027V47.041H219.937L219.797 48H219.083L219.881 43.1ZM220.721 46.376L220.378 43.954H220.364L220.028 46.376H220.721ZM223.076 48.07C222.703 48.07 222.42 47.965 222.229 47.755C222.038 47.5403 221.942 47.2347 221.942 46.838V46.558H222.67V46.894C222.67 47.2113 222.803 47.37 223.069 47.37C223.2 47.37 223.298 47.3327 223.363 47.258C223.433 47.1787 223.468 47.0527 223.468 46.88C223.468 46.6747 223.421 46.495 223.328 46.341C223.235 46.1823 223.062 45.9933 222.81 45.774C222.493 45.494 222.271 45.242 222.145 45.018C222.019 44.7893 221.956 44.5327 221.956 44.248C221.956 43.8607 222.054 43.562 222.25 43.352C222.446 43.1373 222.731 43.03 223.104 43.03C223.473 43.03 223.75 43.1373 223.937 43.352C224.128 43.562 224.224 43.8653 224.224 44.262V44.465H223.496V44.213C223.496 44.045 223.463 43.9237 223.398 43.849C223.333 43.7697 223.237 43.73 223.111 43.73C222.854 43.73 222.726 43.8863 222.726 44.199C222.726 44.3763 222.773 44.542 222.866 44.696C222.964 44.85 223.139 45.0367 223.391 45.256C223.713 45.536 223.935 45.7903 224.056 46.019C224.177 46.2477 224.238 46.516 224.238 46.824C224.238 47.2253 224.138 47.5333 223.937 47.748C223.741 47.9627 223.454 48.07 223.076 48.07ZM225.681 48.07C225.307 48.07 225.025 47.965 224.834 47.755C224.642 47.5403 224.547 47.2347 224.547 46.838V46.558H225.275V46.894C225.275 47.2113 225.408 47.37 225.674 47.37C225.804 47.37 225.902 47.3327 225.968 47.258C226.038 47.1787 226.073 47.0527 226.073 46.88C226.073 46.6747 226.026 46.495 225.933 46.341C225.839 46.1823 225.667 45.9933 225.415 45.774C225.097 45.494 224.876 45.242 224.75 45.018C224.624 44.7893 224.561 44.5327 224.561 44.248C224.561 43.8607 224.659 43.562 224.855 43.352C225.051 43.1373 225.335 43.03 225.709 43.03C226.077 43.03 226.355 43.1373 226.542 43.352C226.733 43.562 226.829 43.8653 226.829 44.262V44.465H226.101V44.213C226.101 44.045 226.068 43.9237 226.003 43.849C225.937 43.7697 225.842 43.73 225.716 43.73C225.459 43.73 225.331 43.8863 225.331 44.199C225.331 44.3763 225.377 44.542 225.471 44.696C225.569 44.85 225.744 45.0367 225.996 45.256C226.318 45.536 226.539 45.7903 226.661 46.019C226.782 46.2477 226.843 46.516 226.843 46.824C226.843 47.2253 226.742 47.5333 226.542 47.748C226.346 47.9627 226.059 48.07 225.681 48.07ZM228.397 48.07C228.019 48.07 227.73 47.9627 227.529 47.748C227.328 47.5333 227.228 47.23 227.228 46.838V44.262C227.228 43.87 227.328 43.5667 227.529 43.352C227.73 43.1373 228.019 43.03 228.397 43.03C228.775 43.03 229.064 43.1373 229.265 43.352C229.466 43.5667 229.566 43.87 229.566 44.262V46.838C229.566 47.23 229.466 47.5333 229.265 47.748C229.064 47.9627 228.775 48.07 228.397 48.07ZM228.397 47.37C228.663 47.37 228.796 47.209 228.796 46.887V44.213C228.796 43.891 228.663 43.73 228.397 43.73C228.131 43.73 227.998 43.891 227.998 44.213V46.887C227.998 47.209 228.131 47.37 228.397 47.37ZM231.172 48.07C230.803 48.07 230.521 47.965 230.325 47.755C230.133 47.545 230.038 47.2487 230.038 46.866V44.234C230.038 43.8513 230.133 43.555 230.325 43.345C230.521 43.135 230.803 43.03 231.172 43.03C231.54 43.03 231.82 43.135 232.012 43.345C232.208 43.555 232.306 43.8513 232.306 44.234V44.752H231.578V44.185C231.578 43.8817 231.449 43.73 231.193 43.73C230.936 43.73 230.808 43.8817 230.808 44.185V46.922C230.808 47.2207 230.936 47.37 231.193 47.37C231.449 47.37 231.578 47.2207 231.578 46.922V46.173H232.306V46.866C232.306 47.2487 232.208 47.545 232.012 47.755C231.82 47.965 231.54 48.07 231.172 48.07ZM232.766 43.1H233.536V48H232.766V43.1ZM234.708 43.1H235.751L236.549 48H235.779L235.639 47.027V47.041H234.764L234.624 48H233.91L234.708 43.1ZM235.548 46.376L235.205 43.954H235.191L234.855 46.376H235.548ZM237.203 43.8H236.398V43.1H238.778V43.8H237.973V48H237.203V43.8ZM239.151 43.1H239.921V48H239.151V43.1ZM241.611 48.07C241.233 48.07 240.944 47.9627 240.743 47.748C240.542 47.5333 240.442 47.23 240.442 46.838V44.262C240.442 43.87 240.542 43.5667 240.743 43.352C240.944 43.1373 241.233 43.03 241.611 43.03C241.989 43.03 242.278 43.1373 242.479 43.352C242.68 43.5667 242.78 43.87 242.78 44.262V46.838C242.78 47.23 242.68 47.5333 242.479 47.748C242.278 47.9627 241.989 48.07 241.611 48.07ZM241.611 47.37C241.877 47.37 242.01 47.209 242.01 46.887V44.213C242.01 43.891 241.877 43.73 241.611 43.73C241.345 43.73 241.212 43.891 241.212 44.213V46.887C241.212 47.209 241.345 47.37 241.611 47.37ZM243.301 43.1H244.267L245.016 46.033H245.03V43.1H245.716V48H244.925L244.001 44.423H243.987V48H243.301V43.1Z" fill="white"/>
<path d="M239.01 31.2217H232.203C232.051 31.2217 231.908 31.1627 231.79 31.0615L226.83 26.7763C226.72 26.6835 226.577 26.6329 226.433 26.6329H224.223V23.6636H229.276C229.951 23.6636 230.609 23.9336 231.081 24.4059L234.691 28.0247C234.852 28.185 234.936 28.3959 234.928 28.6236C234.928 28.6827 234.919 28.7333 234.911 28.7839C234.911 28.8008 234.902 28.8176 234.902 28.8261C234.86 28.9779 234.776 29.1129 234.649 29.2141C234.337 29.4925 233.823 29.4587 233.502 29.1382L230.811 26.4473C230.575 26.2111 230.187 26.2111 229.951 26.4473C229.706 26.6919 229.706 27.08 229.951 27.3162L232.642 30.007C233.418 30.7915 234.658 30.8421 235.459 30.1336C235.645 29.9733 235.796 29.7877 235.906 29.5768L239.061 29.5853C239.289 29.5853 239.5 29.6781 239.651 29.8468C239.812 30.0155 239.888 30.2264 239.871 30.4541C239.845 30.8759 239.457 31.2217 239.01 31.2217ZM239.061 28.3621L236.142 28.3537C236.083 27.9066 235.881 27.4764 235.56 27.1559L231.95 23.5371C231.241 22.837 230.271 22.4321 229.276 22.4321H223.616C223.278 22.4321 223 22.7104 223 23.0479V27.2402C223 27.5861 223.278 27.856 223.616 27.856H226.205L230.988 31.9894C231.326 32.2846 231.764 32.4449 232.203 32.4449H239.01C240.107 32.4449 241.026 31.6098 241.094 30.5385C241.128 29.9649 240.942 29.425 240.546 29.0032C240.166 28.5983 239.618 28.3621 239.061 28.3621Z" fill="white"/>
<path d="M232.878 17.7926C233.207 16.8647 233.856 16.2911 234.666 16.232C234.717 16.232 234.767 16.232 234.818 16.232C235.586 16.232 236.328 16.6875 236.716 17.4383C236.826 17.6323 237.037 17.7588 237.264 17.7588C237.492 17.7588 237.694 17.6323 237.804 17.4383C238.226 16.6454 239.036 16.173 239.854 16.232C240.664 16.2911 241.313 16.8647 241.642 17.7926C242.435 20.028 239.289 22.7273 237.264 24.001C235.24 22.7273 232.085 20.028 232.878 17.7926ZM236.952 25.2495C237.045 25.3085 237.155 25.3338 237.264 25.3338C237.374 25.3338 237.484 25.3085 237.576 25.2495C238.251 24.8446 244.156 21.2005 242.798 17.3792C242.309 15.9958 241.237 15.1101 239.947 15.0089C238.943 14.9414 237.956 15.3463 237.264 16.0971C236.573 15.3463 235.586 14.933 234.582 15.0089C233.283 15.1101 232.211 15.9958 231.722 17.3792C230.373 21.2005 236.269 24.8446 236.952 25.2495Z" fill="white"/>
<path d="M255.59 31.07C255.212 31.07 254.923 30.9627 254.722 30.748C254.522 30.5333 254.421 30.23 254.421 29.838V27.262C254.421 26.87 254.522 26.5667 254.722 26.352C254.923 26.1373 255.212 26.03 255.59 26.03C255.968 26.03 256.258 26.1373 256.458 26.352C256.659 26.5667 256.759 26.87 256.759 27.262V29.838C256.759 30.23 256.659 30.5333 256.458 30.748C256.258 30.9627 255.968 31.07 255.59 31.07ZM255.59 30.37C255.856 30.37 255.989 30.209 255.989 29.887V27.213C255.989 26.891 255.856 26.73 255.59 26.73C255.324 26.73 255.191 26.891 255.191 27.213V29.887C255.191 30.209 255.324 30.37 255.59 30.37ZM258.4 31.07C258.027 31.07 257.742 30.965 257.546 30.755C257.35 30.5403 257.252 30.2347 257.252 29.838V26.1H258.022V29.894C258.022 30.062 258.055 30.1833 258.12 30.258C258.19 30.3327 258.288 30.37 258.414 30.37C258.54 30.37 258.636 30.3327 258.701 30.258C258.771 30.1833 258.806 30.062 258.806 29.894V26.1H259.548V29.838C259.548 30.2347 259.45 30.5403 259.254 30.755C259.058 30.965 258.773 31.07 258.4 31.07Z" fill="white"/>
<rect x="266" y="8" width="31" height="31" fill="black"/>
<path fill-rule="evenodd" clip-rule="evenodd" d="M279.109 14.1063C278.715 13.9593 278.442 13.9112 278.26 13.9138C278.076 13.9164 278.017 13.9696 278.005 13.983C277.994 13.9948 277.976 14.0235 277.975 14.1029C277.974 14.1628 277.984 14.2337 278.004 14.3061L280.457 16.7194H282.07C282.35 16.3731 282.982 15.6937 284.041 14.766C284.332 14.5109 284.438 14.3351 284.469 14.2426C284.486 14.1909 284.48 14.1822 284.466 14.1637L284.464 14.1606C284.428 14.1114 284.342 14.0437 284.193 13.9816C284.059 13.9255 283.904 13.8872 283.762 13.8665C283.659 13.8692 283.582 13.8932 283.446 13.9423L283.419 13.9521C283.371 13.9696 283.335 13.9876 283.3 14.0059C283.226 14.0437 283.15 14.0826 282.951 14.1204C282.636 14.1804 282.41 14.185 282.155 14.124C281.99 14.0845 281.808 14.0142 281.587 13.9294C281.511 13.8998 281.429 13.8684 281.342 13.8359L281.34 13.8357C281.335 13.835 281.315 13.8327 281.278 13.8341C281.224 13.8361 281.153 13.8447 281.066 13.86C280.894 13.8904 280.691 13.9409 280.477 13.9945L280.464 13.9977C280.252 14.0505 280.026 14.1067 279.837 14.1369C279.742 14.1519 279.644 14.1628 279.554 14.1606L279.525 14.1602C279.431 14.1593 279.201 14.1571 279.109 14.1063ZM280.242 13.1757C279.947 13.2429 279.406 13.3023 279.406 13.3023C279.09 13.2908 278.86 13.2277 278.667 13.1747C278.513 13.1326 278.383 13.0968 278.251 13.0987C277.953 13.1029 277.694 13.1923 277.508 13.3963C277.321 13.6018 277.262 13.8653 277.259 14.0916C277.257 14.3145 277.307 14.5303 277.37 14.7023L277.402 14.7912L279.578 16.9319C278.757 17.1125 277.88 17.4785 277.072 18.1145C275.533 19.3262 274.301 21.4723 274.126 25.024C274.115 25.2552 274.102 25.4899 274.09 25.7262C274.038 26.698 273.984 27.698 274.004 28.6023C274.029 29.71 274.162 30.7759 274.615 31.5044C275.429 32.813 276.76 33.4463 278.037 33.7444C279.31 34.0416 280.582 34.019 281.369 33.9721C282.089 33.9584 283.275 33.9154 284.49 33.6601C285.701 33.4057 287.004 32.9283 287.895 31.9992C288.611 31.2516 288.855 30.1504 288.929 28.9703C288.987 28.0415 288.943 26.9912 288.898 25.9219L288.898 25.9218L288.898 25.9216C288.886 25.6252 288.873 25.3272 288.863 25.03C288.746 21.692 287.518 19.598 285.98 18.3585C284.982 17.5541 283.871 17.124 282.887 16.9376C283.206 16.5912 283.724 16.0726 284.477 15.4121C284.806 15.1237 285.036 14.8353 285.137 14.5344C285.251 14.1954 285.189 13.8795 285.014 13.6398C284.86 13.4286 284.636 13.2982 284.439 13.216C284.234 13.1306 284.014 13.0793 283.824 13.0539L283.803 13.0511H283.782C283.552 13.0511 283.386 13.1088 283.23 13.1653L283.204 13.1747C283.062 13.2261 282.907 13.282 282.663 13.3284C282.449 13.3691 282.436 13.3656 282.355 13.3435L282.355 13.3435L282.355 13.3435C282.339 13.3391 282.32 13.334 282.297 13.3284C282.176 13.2994 282.051 13.2515 281.854 13.1757C281.847 13.1727 281.833 13.1658 281.815 13.1563C281.723 13.1093 281.511 13 281.269 13C280.911 13 280.568 13.0906 280.362 13.1452C280.314 13.1578 280.273 13.1685 280.242 13.1757ZM277.598 18.7826C276.294 19.8098 275.141 21.7024 274.975 25.0658C274.964 25.3062 274.951 25.5471 274.938 25.7873L274.938 25.7873L274.938 25.7874C274.886 26.7564 274.835 27.7147 274.854 28.5836C274.879 29.6845 275.017 30.5403 275.337 31.0555C275.986 32.0991 277.071 32.6458 278.23 32.9165C279.389 33.1869 280.569 33.1684 281.327 33.1229L281.336 33.1224L281.345 33.1222C282.051 33.1089 283.176 33.0673 284.316 32.828C285.465 32.5867 286.566 32.1565 287.281 31.411C287.778 30.8917 288.009 30.0543 288.08 28.9168C288.136 28.0371 288.094 27.048 288.05 25.9868L288.05 25.9866C288.037 25.6833 288.024 25.3741 288.013 25.0598C287.903 21.9361 286.769 20.0859 285.447 19.0204C284.443 18.2117 283.307 17.8352 282.37 17.7159C283.146 18.5301 284.026 19.349 284.507 19.6446L284.061 20.3687C283.86 20.1673 283.557 19.9036 283.208 19.5994L283.208 19.5994C282.705 19.1614 282.106 18.6395 281.574 18.0991C281.548 18.4454 281.525 18.8325 281.515 19.1999C281.507 19.5164 281.509 19.8104 281.526 20.048C281.534 20.1669 281.546 20.2653 281.56 20.3418C281.567 20.3798 281.574 20.4092 281.581 20.4311C281.587 20.4519 281.591 20.4611 281.591 20.462L281.652 20.7938L280.831 20.8422C280.732 20.6443 280.696 20.3607 280.678 20.1075C280.659 19.8317 280.657 19.5076 280.666 19.1781C280.672 18.9159 280.685 18.6454 280.702 18.3858C280.011 19.0527 279.284 19.6307 278.748 20.0572C278.673 20.1168 278.601 20.1734 278.535 20.227L278.089 19.5029C278.561 19.1737 279.435 18.4574 280.209 17.6831C279.385 17.7926 278.447 18.1141 277.598 18.7826Z" fill="white"/>
<path d="M271.263 43.1H272.397C272.78 43.1 273.067 43.2027 273.258 43.408C273.449 43.6133 273.545 43.9143 273.545 44.311V44.794C273.545 45.1907 273.449 45.4917 273.258 45.697C273.067 45.9023 272.78 46.005 272.397 46.005H272.033V48H271.263V43.1ZM272.397 45.305C272.523 45.305 272.616 45.27 272.677 45.2C272.742 45.13 272.775 45.011 272.775 44.843V44.262C272.775 44.094 272.742 43.975 272.677 43.905C272.616 43.835 272.523 43.8 272.397 43.8H272.033V45.305H272.397ZM275.076 48.07C274.698 48.07 274.409 47.9627 274.208 47.748C274.008 47.5333 273.907 47.23 273.907 46.838V44.262C273.907 43.87 274.008 43.5667 274.208 43.352C274.409 43.1373 274.698 43.03 275.076 43.03C275.454 43.03 275.744 43.1373 275.944 43.352C276.145 43.5667 276.245 43.87 276.245 44.262V46.838C276.245 47.23 276.145 47.5333 275.944 47.748C275.744 47.9627 275.454 48.07 275.076 48.07ZM275.076 47.37C275.342 47.37 275.475 47.209 275.475 46.887V44.213C275.475 43.891 275.342 43.73 275.076 43.73C274.81 43.73 274.677 43.891 274.677 44.213V46.887C274.677 47.209 274.81 47.37 275.076 47.37ZM277.886 48.07C277.513 48.07 277.228 47.965 277.032 47.755C276.836 47.5403 276.738 47.2347 276.738 46.838V43.1H277.508V46.894C277.508 47.062 277.541 47.1833 277.606 47.258C277.676 47.3327 277.774 47.37 277.9 47.37C278.026 47.37 278.122 47.3327 278.187 47.258C278.257 47.1833 278.292 47.062 278.292 46.894V43.1H279.034V46.838C279.034 47.2347 278.936 47.5403 278.74 47.755C278.544 47.965 278.259 48.07 277.886 48.07ZM279.582 43.1H280.744C281.141 43.1 281.43 43.1933 281.612 43.38C281.794 43.562 281.885 43.8443 281.885 44.227V44.423C281.885 44.675 281.843 44.8803 281.759 45.039C281.68 45.1977 281.556 45.312 281.388 45.382V45.396C281.771 45.5267 281.962 45.8673 281.962 46.418V46.838C281.962 47.216 281.862 47.5053 281.661 47.706C281.465 47.902 281.176 48 280.793 48H279.582V43.1ZM280.653 45.095C280.807 45.095 280.922 45.0553 280.996 44.976C281.076 44.8967 281.115 44.7637 281.115 44.577V44.304C281.115 44.1267 281.083 43.9983 281.017 43.919C280.957 43.8397 280.859 43.8 280.723 43.8H280.352V45.095H280.653ZM280.793 47.3C280.929 47.3 281.029 47.265 281.094 47.195C281.16 47.1203 281.192 46.9943 281.192 46.817V46.39C281.192 46.166 281.153 46.012 281.073 45.928C280.999 45.8393 280.873 45.795 280.695 45.795H280.352V47.3H280.793ZM282.412 43.1H284.512V43.8H283.182V45.095H284.239V45.795H283.182V47.3H284.512V48H282.412V43.1ZM284.955 43.1H285.725V47.3H286.992V48H284.955V43.1ZM287.362 43.1H288.132V47.3H289.399V48H287.362V43.1ZM289.768 43.1H291.868V43.8H290.538V45.095H291.595V45.795H290.538V47.3H291.868V48H289.768V43.1Z" fill="white"/>
</g>
<defs>
<clipPath id="clip0_66_1949">
<rect width="312" height="61" fill="white"/>
</clipPath>
</defs>
</svg>
