<svg width="227" height="62" viewBox="0 0 227 62" fill="none" xmlns="http://www.w3.org/2000/svg">
<g clip-path="url(#clip0_9_8)">
<path d="M24.8542 61.9479C11.2344 61.9479 0.15625 50.9948 0.15625 37.5364V0.135376H201.323C214.938 0.135376 226.016 11.0833 226.016 24.5416V61.9479" fill="white"/>
<path d="M24.8542 60.6093C11.2344 60.6093 0.15625 49.6562 0.15625 36.1979V0.135376H201.323C214.938 0.135376 226.016 11.0833 226.016 24.5416V60.6093" fill="white"/>
<path d="M201.323 5.80725H50.2708V36.1979C50.2708 46.5312 58.802 54.9375 69.2916 54.9375H220.349V24.5416C220.349 14.2083 211.812 5.80725 201.323 5.80725Z" fill="white"/>
<path d="M218.458 53.0468H69.2916C59.8437 53.0468 52.1562 45.4895 52.1562 36.2031V7.69267H201.323C210.771 7.69267 218.458 15.2552 218.458 24.5416V53.0468ZM201.323 5.80725H50.2708V36.1979C50.2708 46.5312 58.802 54.9375 69.2916 54.9375H220.349V24.5416C220.349 14.2083 211.812 5.80725 201.323 5.80725Z" fill="#008A31"/>
<path d="M103.057 5.80725H50.2708V36.1979C50.2708 46.5312 58.802 54.9375 69.2916 54.9375H122.083V24.5416C122.083 14.2083 113.547 5.80725 103.057 5.80725Z" fill="#008A31"/>
<path d="M56.3281 26.651V17.25H58.8177V24.5677H62.375V26.651" fill="white"/>
<path d="M63.4895 26.651V17.25H69.5624V19.3333H65.9739V20.8073H69.0416V22.8906H65.9739V24.5677H69.7083V26.651" fill="white"/>
<path d="M75.6354 26.651V19.3333H73.151V17.25H80.6145V19.3333H78.125V26.651" fill="white"/>
<path d="M84.099 21.5312H84.9948C85.9948 21.5312 86.5 21.1198 86.5 20.2865C86.5 19.8854 86.3698 19.6042 86.1146 19.4479C85.8594 19.2969 85.4844 19.2188 84.9948 19.2188H84.099V21.5312ZM81.6094 26.651V17.25H85.1667C85.6719 17.25 86.151 17.3021 86.6094 17.3958C87.0677 17.4896 87.4635 17.6562 87.8073 17.8854C88.151 18.1198 88.4219 18.4271 88.625 18.8177C88.8281 19.2083 88.9271 19.6979 88.9271 20.2865C88.9271 20.9635 88.7917 21.5208 88.5156 21.9635C88.2448 22.4115 87.875 22.7552 87.4115 23.0052L89.4479 26.651H86.6719L85.0521 23.5H84.099V26.651" fill="white"/>
<path d="M90.4166 26.651H92.9062V17.25H90.4166V26.651Z" fill="white"/>
<path d="M75.927 43.3281V33.9271H82.0572V36.0104H78.4166V37.8021H81.5364V39.8854H78.4166V43.3281" fill="white"/>
<path d="M85.4635 38.7604L85.3072 39.4114H87.0416L86.8801 38.7604C86.7655 38.3073 86.651 37.8125 86.5364 37.2864C86.4218 36.7552 86.302 36.25 86.1874 35.7812H86.1301C86.026 36.2604 85.9166 36.7656 85.8072 37.2916C85.6926 37.8125 85.5833 38.3073 85.4635 38.7604ZM81.8489 43.3281L84.7135 33.9271H87.7187L90.5833 43.3281H87.953L87.4895 41.3333H84.8593L84.3958 43.3281" fill="white"/>
<path d="M95.1145 43.5052C94.5155 43.5052 93.9426 43.4062 93.401 43.2083C92.8541 43.0104 92.3749 42.7083 91.9687 42.3073C91.5572 41.9114 91.2291 41.4062 90.9895 40.8073C90.7499 40.2031 90.6301 39.5 90.6301 38.6979C90.6301 37.9114 90.7551 37.2083 91.0051 36.5937C91.2551 35.9844 91.5885 35.4687 92.0103 35.0469C92.427 34.6302 92.9114 34.3073 93.4583 34.0885C93.9999 33.8646 94.5728 33.7552 95.1718 33.7552C95.7968 33.7552 96.3593 33.875 96.8489 34.125C97.3385 34.3698 97.7551 34.6614 98.0937 35L96.7916 36.5885C96.5572 36.3854 96.3176 36.2187 96.0728 36.0885C95.828 35.9583 95.5468 35.8958 95.2291 35.8958C94.9478 35.8958 94.6874 35.9583 94.4374 36.0833C94.1926 36.2083 93.9791 36.3854 93.7916 36.6198C93.5989 36.8489 93.453 37.1354 93.3437 37.4739C93.2291 37.8073 93.177 38.1927 93.177 38.6146C93.177 39.5 93.3593 40.1823 93.7343 40.651C94.1041 41.125 94.5937 41.3646 95.1978 41.3646C95.5676 41.3646 95.8905 41.2812 96.177 41.125C96.4583 40.9635 96.703 40.776 96.9062 40.5521L98.2083 42.1146C97.802 42.5781 97.3385 42.9219 96.8124 43.1562C96.2864 43.3854 95.7187 43.5052 95.1145 43.5052Z" fill="white"/>
<path d="M99.1614 43.3281H101.651V33.9271H99.1614V43.3281Z" fill="white"/>
<path d="M103.422 43.3281V33.9271H105.911V41.2448H109.469V43.3281" fill="white"/>
<path d="M110.578 43.3281V33.9271H116.656V36.0104H113.068V37.4844H116.135V39.5677H113.068V41.2448H116.802V43.3281" fill="white"/>
<path d="M69.8697 39.526H65.6197V43.776H62.7812V39.526H58.5312V36.6875H62.7812V32.4375H65.6197V36.6875H69.8697V39.526ZM64.1978 29.4114C59.3958 29.4114 55.5051 33.3073 55.5051 38.1041C55.5051 42.9062 59.3958 46.8021 64.1978 46.8021C69.0051 46.8021 72.8958 42.9062 72.8958 38.1041C72.8958 33.3073 69.0051 29.4114 64.1978 29.4114Z" fill="white"/>
<path d="M163.089 54.9375L176.104 28.3593L162.807 5.80725H201.323C211.812 5.80725 220.349 14.2135 220.349 24.5416V54.9375" fill="#008A31"/>
<path d="M201.323 7.69788H166.115L178.245 28.2812L166.12 53.052H218.458V24.5416C218.458 15.2552 210.771 7.69788 201.323 7.69788Z" fill="#008A31"/>
<path d="M192.682 25.1927H196.307V26.2552H195.083V32.6562H193.906V26.2552H192.682" fill="white"/>
<path d="M198.208 26.2552V28.5521H198.667C199.104 28.5521 199.37 28.3594 199.37 27.7604V27.026C199.37 26.4896 199.187 26.2552 198.771 26.2552H198.208ZM199.484 32.6562C199.422 32.4635 199.38 32.3437 199.38 31.7396V30.5625C199.38 29.8698 199.146 29.6146 198.615 29.6146H198.208V32.6562H197.036V25.1927H198.802C200.021 25.1927 200.542 25.7552 200.542 26.9062V27.4948C200.542 28.2604 200.297 28.75 199.776 28.9948V29.0208C200.359 29.2656 200.552 29.8177 200.552 30.5989V31.75C200.552 32.1094 200.562 32.375 200.682 32.6562" fill="white"/>
<path d="M201.536 32.6562H202.708V25.1927H201.536V32.6562Z" fill="white"/>
<path d="M189.266 40.4062H189.292L190.177 34.3177H191.25L190.099 41.7812H188.354L187.198 34.3177H188.385" fill="white"/>
<path d="M193.182 37.4635H194.792V38.526H193.182V40.7135H195.208V41.7812H192.01V34.3177H195.208V35.3802H193.182" fill="white"/>
<path d="M197.323 35.3802V37.6771H197.781C198.219 37.6771 198.484 37.4844 198.484 36.8854V36.151C198.484 35.6198 198.302 35.3802 197.885 35.3802H197.323ZM198.599 41.7812C198.536 41.5885 198.495 41.4687 198.495 40.8646V39.6875C198.495 38.9948 198.26 38.7396 197.729 38.7396H197.323V41.7812H196.151V34.3177H197.917C199.135 34.3177 199.656 34.8802 199.656 36.0312V36.6198C199.656 37.3854 199.411 37.875 198.891 38.125V38.1458C199.474 38.3906 199.667 38.9427 199.667 39.7239V40.875C199.667 41.2344 199.677 41.5052 199.797 41.7812" fill="white"/>
<path d="M201.823 35.3802V37.6771H202.281C202.719 37.6771 202.984 37.4844 202.984 36.8854V36.151C202.984 35.6198 202.802 35.3802 202.385 35.3802H201.823ZM203.104 41.7812C203.036 41.5885 202.995 41.4687 202.995 40.8646V39.6875C202.995 38.9948 202.76 38.7396 202.229 38.7396H201.823V41.7812H200.651V34.3177H202.422C203.635 34.3177 204.156 34.8802 204.156 36.0312V36.6198C204.156 37.3854 203.911 37.875 203.391 38.125V38.1458C203.974 38.3906 204.167 38.9427 204.167 39.7239V40.875C204.167 41.2344 204.182 41.5052 204.297 41.7812" fill="white"/>
<path d="M206.323 37.4635H207.932V38.526H206.323V40.7135H208.349V41.7812H205.151V34.3177H208.349V35.3802H206.323" fill="white"/>
<path d="M197.974 17.5573C196.875 17.5573 195.984 18.4531 195.984 19.5468C195.984 20.6458 196.875 21.5364 197.974 21.5364C199.073 21.5364 199.964 20.6458 199.964 19.5468C199.964 18.4531 199.073 17.5573 197.974 17.5573ZM197.974 23.2083C195.958 23.2083 194.312 21.5677 194.312 19.5468C194.312 17.5312 195.958 15.8854 197.974 15.8854C199.995 15.8854 201.635 17.5312 201.635 19.5468C201.635 21.5677 199.995 23.2083 197.974 23.2083Z" fill="white"/>
<path d="M213.01 36.7395C213.01 41.7031 208.974 45.7448 204.01 45.7448H191.937C186.979 45.7448 182.937 41.7031 182.937 36.7395V22.1458C182.937 17.1823 186.979 13.1458 191.937 13.1458H204.01C208.974 13.1458 213.01 17.1823 213.01 22.1458V36.7395ZM204.01 11.5573H191.937C186.099 11.5573 181.349 16.3073 181.349 22.1458V36.7395C181.349 40.7031 183.562 44.125 186.792 45.9375C186.573 46.1041 186.417 46.3593 186.417 46.6562V48.4375C186.417 48.9427 186.828 49.3541 187.328 49.3541H208.62C209.12 49.3541 209.531 48.9427 209.531 48.4375V46.6562C209.531 46.3593 209.375 46.1041 209.156 45.9375C212.385 44.125 214.594 40.7031 214.594 36.7395V22.1458C214.594 16.3073 209.844 11.5573 204.01 11.5573Z" fill="white"/>
<path d="M28.5624 25.8802C26.8697 28.375 28.3072 31.6458 30.052 33.3073C31.6458 34.8177 32.9218 35.1771 33.0885 35.2187L33.901 33.6614L36.2447 40.0729L29.6197 41.4166L30.4999 39.7864L29.6041 39.2812C26.8124 37.4687 26.2239 34.9948 26.0312 34.2239C25.6978 32.8958 25.203 28.9271 28.5624 25.8802Z" fill="#1C1C1B"/>
<path d="M28.5312 25.9895C29.7344 28.75 33.2708 29.2812 35.6042 28.6875C37.6771 28.1614 38.6615 27.3073 38.8281 27.151L38.8177 27.1354L37.9323 25.6041L44.599 27.0625L42.1875 33.375L41.2917 31.7864L40.4219 32.2604C37.3958 33.651 34.9896 32.8281 34.2344 32.5833C32.9375 32.151 29.3125 30.4531 28.5312 25.9895Z" fill="#1C1C1B"/>
<path d="M40.3177 19.3281C39.8541 22.6302 37.8698 24.2135 37.25 24.7135C36.1875 25.5729 32.802 27.7031 28.6198 25.9531C31.5937 26.4323 33.9531 23.7448 34.7135 21.4583C35.401 19.4062 35.1979 18.1094 35.1562 17.9062H35.1354L33.3698 17.8281L38.1823 12.9896L42.2083 18.4271L40.3906 18.3229" fill="#1C1C1B"/>
<path fill-rule="evenodd" clip-rule="evenodd" d="M20.0938 16.5468C18.5729 16.5468 17.3438 15.3177 17.3438 13.7968C17.3438 12.276 18.5729 11.0416 20.0938 11.0416C21.6146 11.0416 22.849 12.276 22.849 13.7968C22.849 15.3177 21.6146 16.5468 20.0938 16.5468Z" fill="#1C1C1B"/>
<path d="M15.8333 29.9323C16.0677 29.2916 16.4167 29.3281 16.4167 29.3281C16.4167 29.3281 16.7344 29.2604 16.9115 29.9114L19.4844 38.9479C17.3385 38.3229 15.3802 37.2552 13.7135 35.8489L15.8333 29.9323ZM23.8594 5.80725C13.9167 5.80725 5.82812 13.8958 5.82812 23.8385C5.82812 33.7812 13.9167 41.8698 23.8594 41.8698C24.3906 41.8698 24.9115 41.8385 25.4323 41.7916L25.5521 43.5989L28.8542 40.4114L25.1615 37.5937L25.3021 39.4948C24.8281 39.5416 24.3438 39.5729 23.8594 39.5729C23.0938 39.5729 22.3438 39.5104 21.6094 39.4062L21.5365 38.927L19.8229 24.3281C19.5885 21.5729 21.1615 21.1354 22.1354 21.5468L27.6042 23.7395C28.2292 24.0156 28.5312 23.4895 28.5312 23.4895C28.5312 23.4895 28.8854 22.9375 28.25 22.5364C28.25 22.5364 20.7969 17.5937 19.2083 17.2968C17.0417 16.8958 14.8958 18.6458 14.4219 20.9323L11.776 33.901C9.5 31.1718 8.125 27.6614 8.125 23.8385C8.125 15.1614 15.1823 8.10413 23.8594 8.10413C28.4948 8.10413 32.6667 10.1198 35.5469 13.3177L37.1615 11.677C33.8646 8.07288 29.1198 5.80725 23.8594 5.80725Z" fill="#1C1C1B"/>
<path d="M135.54 38.263H135.988C136.189 38.263 136.35 38.2023 136.471 38.081C136.597 37.9597 136.66 37.7707 136.66 37.514C136.66 37.262 136.606 37.0707 136.499 36.94C136.392 36.8093 136.212 36.744 135.96 36.744H135.54V38.263ZM134.532 36.002H136.296C136.553 36.002 136.767 36.0463 136.94 36.135C137.117 36.219 137.26 36.331 137.367 36.471C137.474 36.611 137.551 36.772 137.598 36.954C137.645 37.1313 137.668 37.3133 137.668 37.5C137.668 37.7567 137.628 37.9807 137.549 38.172C137.474 38.3633 137.367 38.5197 137.227 38.641C137.092 38.7623 136.926 38.8533 136.73 38.914C136.534 38.9747 136.317 39.005 136.079 39.005H135.54V41H134.532V36.002ZM139.065 38.501C139.065 38.837 139.072 39.124 139.086 39.362C139.105 39.5953 139.137 39.7867 139.184 39.936C139.235 40.0807 139.305 40.188 139.394 40.258C139.487 40.3233 139.609 40.356 139.758 40.356C139.907 40.356 140.026 40.3233 140.115 40.258C140.208 40.188 140.278 40.0807 140.325 39.936C140.376 39.7867 140.409 39.5953 140.423 39.362C140.442 39.124 140.451 38.837 140.451 38.501C140.451 38.165 140.442 37.8803 140.423 37.647C140.409 37.4137 140.376 37.2223 140.325 37.073C140.278 36.9237 140.208 36.8163 140.115 36.751C140.026 36.681 139.907 36.646 139.758 36.646C139.609 36.646 139.487 36.681 139.394 36.751C139.305 36.8163 139.235 36.9237 139.184 37.073C139.137 37.2223 139.105 37.4137 139.086 37.647C139.072 37.8803 139.065 38.165 139.065 38.501ZM138.057 38.501C138.057 38.123 138.073 37.7753 138.106 37.458C138.143 37.136 138.22 36.8607 138.337 36.632C138.458 36.4033 138.631 36.226 138.855 36.1C139.079 35.9693 139.38 35.904 139.758 35.904C140.136 35.904 140.437 35.9693 140.661 36.1C140.885 36.226 141.055 36.4033 141.172 36.632C141.293 36.8607 141.37 37.136 141.403 37.458C141.44 37.7753 141.459 38.123 141.459 38.501C141.459 38.8837 141.44 39.2337 141.403 39.551C141.37 39.8683 141.293 40.1413 141.172 40.37C141.055 40.5987 140.885 40.7737 140.661 40.895C140.437 41.0163 140.136 41.077 139.758 41.077C139.38 41.077 139.079 41.0163 138.855 40.895C138.631 40.7737 138.458 40.5987 138.337 40.37C138.22 40.1413 138.143 39.8683 138.106 39.551C138.073 39.2337 138.057 38.8837 138.057 38.501ZM144.978 36.002V36.828H143.886V41H142.878V36.828H141.786V36.002H144.978ZM149.89 36.002V36.828H148.105V38.004H149.785V38.83H148.105V40.174H149.96V41H147.097V36.002H149.89ZM151.629 36.002L152.847 39.425H152.861V36.002H153.785V41H152.637L151.405 37.5H151.391V41H150.467V36.002H151.629ZM137.024 44.002L137.731 47.698H137.752L138.494 44.002H139.537L138.389 49H137.094L135.946 44.002H137.024ZM142.698 44.002V44.828H140.913V46.004H142.593V46.83H140.913V48.174H142.768V49H139.905V44.002H142.698ZM143.275 44.002H145.137C145.557 44.002 145.884 44.1093 146.117 44.324C146.351 44.534 146.467 44.856 146.467 45.29C146.467 45.626 146.4 45.9013 146.264 46.116C146.129 46.326 145.919 46.4613 145.634 46.522V46.536C145.886 46.5733 146.071 46.655 146.187 46.781C146.304 46.907 146.376 47.11 146.404 47.39C146.414 47.4833 146.421 47.586 146.425 47.698C146.43 47.8053 146.435 47.9267 146.439 48.062C146.449 48.328 146.463 48.531 146.481 48.671C146.509 48.811 146.57 48.9067 146.663 48.958V49H145.571C145.52 48.93 145.487 48.8507 145.473 48.762C145.459 48.6687 145.45 48.573 145.445 48.475L145.417 47.516C145.408 47.32 145.359 47.166 145.27 47.054C145.182 46.942 145.032 46.886 144.822 46.886H144.283V49H143.275V44.002ZM144.283 46.186H144.703C144.946 46.186 145.133 46.13 145.263 46.018C145.394 45.9013 145.459 45.7077 145.459 45.437C145.459 44.975 145.226 44.744 144.759 44.744H144.283V46.186ZM147.165 44.002H149.027C149.447 44.002 149.774 44.1093 150.007 44.324C150.24 44.534 150.357 44.856 150.357 45.29C150.357 45.626 150.289 45.9013 150.154 46.116C150.019 46.326 149.809 46.4613 149.524 46.522V46.536C149.776 46.5733 149.96 46.655 150.077 46.781C150.194 46.907 150.266 47.11 150.294 47.39C150.303 47.4833 150.31 47.586 150.315 47.698C150.32 47.8053 150.324 47.9267 150.329 48.062C150.338 48.328 150.352 48.531 150.371 48.671C150.399 48.811 150.46 48.9067 150.553 48.958V49H149.461C149.41 48.93 149.377 48.8507 149.363 48.762C149.349 48.6687 149.34 48.573 149.335 48.475L149.307 47.516C149.298 47.32 149.249 47.166 149.16 47.054C149.071 46.942 148.922 46.886 148.712 46.886H148.173V49H147.165V44.002ZM148.173 46.186H148.593C148.836 46.186 149.022 46.13 149.153 46.018C149.284 45.9013 149.349 45.7077 149.349 45.437C149.349 44.975 149.116 44.744 148.649 44.744H148.173V46.186ZM153.848 44.002V44.828H152.063V46.004H153.743V46.83H152.063V48.174H153.918V49H151.055V44.002H153.848Z" fill="#1C1C1B"/>
<path d="M144.063 28.2705C144.017 28.267 143.97 28.267 143.924 28.267C140.923 28.267 139.136 29.7587 138.374 30.396L138.342 30.4244C138.317 30.4422 138.31 30.4779 138.324 30.5099C138.335 30.5348 138.36 30.5491 138.388 30.5491C138.392 30.5491 138.399 30.5491 138.402 30.5491C138.683 30.4957 139.004 30.3746 139.371 30.2358C140.332 29.8726 141.646 29.3742 143.871 29.3742C143.942 29.3742 144.017 29.3742 144.091 29.3742C146.847 29.4169 148.289 29.9296 149.247 30.2678C149.425 30.3319 149.588 30.3888 149.741 30.4387C149.749 30.4387 149.756 30.4422 149.763 30.4422H149.766C149.806 30.4422 149.838 30.4102 149.838 30.3675C149.838 30.3426 149.823 30.3212 149.802 30.307C148.937 29.3884 146.918 28.3097 144.063 28.2705Z" fill="#1C1C1B"/>
<path d="M138.032 19.7901C138.246 19.7901 138.416 19.6014 138.416 19.3735C138.413 19.1421 138.238 18.957 138.025 18.9606C137.811 18.9641 137.64 19.1493 137.644 19.3807C137.644 19.6085 137.818 19.7936 138.032 19.7901Z" fill="#1C1C1B"/>
<path d="M152.469 27.7757C152.469 29.9652 150.493 31.8841 148.243 31.8841H139.908C137.658 31.8841 135.682 29.9652 135.682 27.7757L135.679 21.3068C135.679 18.9036 136.886 16.6144 137.704 15.8241C138.078 15.4609 138.452 15.2438 138.748 15.0693C139.175 14.8201 139.616 14.5602 139.616 14.0119C139.616 13.3319 139.139 13.1931 138.911 13.1254C138.805 13.0934 138.701 13.0649 138.591 12.9902C138.57 12.9759 138.555 12.9261 138.548 12.8833C138.52 12.6377 138.655 12.2924 138.794 12.1357C138.986 11.9684 140.435 11.9684 141.396 11.9684L143.725 11.9719L146.804 11.9684C146.815 11.9684 146.829 11.9684 146.84 11.9684C146.263 12.0681 145.69 12.1855 145.124 12.3173C144.487 12.4668 143.856 12.6341 143.223 12.8193C142.589 13.008 141.955 13.2038 141.3 13.4815C141.98 13.6915 142.674 13.7449 143.362 13.7307C144.049 13.7129 144.729 13.6203 145.394 13.4637C146.057 13.3106 146.705 13.0934 147.328 12.8121C147.812 12.5878 148.282 12.3315 148.72 12.0075C149.047 12.0325 149.286 12.0716 149.35 12.1357C149.489 12.2924 149.628 12.6377 149.595 12.8833C149.588 12.9261 149.578 12.9759 149.556 12.9902C149.446 13.0649 149.343 13.0934 149.232 13.1254C149.005 13.1931 148.531 13.3319 148.531 14.0119C148.531 14.5602 148.972 14.8201 149.396 15.0693C149.695 15.2438 150.065 15.4609 150.443 15.8241C151.258 16.6144 152.465 18.9036 152.465 21.3068L152.469 27.7757ZM151.116 15.1298C150.656 14.6848 150.211 14.4249 149.887 14.2362C149.781 14.1721 149.649 14.0974 149.571 14.0333C149.706 13.9941 149.891 13.93 150.09 13.7948C150.35 13.6203 150.51 13.3497 150.553 13.0044C150.624 12.4419 150.361 11.8153 150.065 11.4877C149.649 11.0249 148.901 11 146.804 11L144.483 11.0036L141.396 11C139.221 11 138.484 11.0392 138.078 11.4877C137.783 11.8153 137.519 12.4419 137.591 13.0044C137.633 13.3497 137.793 13.6203 138.053 13.7948C138.256 13.93 138.441 13.9941 138.58 14.0368C138.495 14.0974 138.363 14.1721 138.26 14.2362C137.936 14.4249 137.491 14.6848 137.032 15.1298C136.067 16.0626 134.714 18.5939 134.714 21.3068V27.7757C134.714 30.4778 137.142 32.8489 139.908 32.8489H148.243C151.009 32.8489 153.437 30.4778 153.437 27.7757L153.433 21.3068C153.433 18.5939 152.077 16.0626 151.116 15.1298Z" fill="#1C1C1B"/>
<path d="M138.028 20.4025C137.875 20.4025 137.754 20.5271 137.754 20.6802V28.9825C137.754 29.1356 137.879 29.2567 138.032 29.2567C138.185 29.2567 138.306 29.1356 138.306 28.9825V20.6802C138.306 20.5271 138.182 20.4025 138.028 20.4025Z" fill="#1C1C1B"/>
</g>
<defs>
<clipPath id="clip0_9_8">
<rect width="227" height="62" fill="white"/>
</clipPath>
</defs>
</svg>
