<svg width="332" height="61" viewBox="0 0 332 61" fill="none" xmlns="http://www.w3.org/2000/svg">
<g clip-path="url(#clip0_66_1078)">
<path d="M24.6979 60.4688C11.0781 60.4688 0 49.5208 0 36.0625V0H306.948C320.563 0 331.641 10.9479 331.641 24.4062V60.4688" fill="white"/>
<path d="M244.083 52.9114H69.1353C59.6874 52.9114 51.9999 45.3541 51.9999 36.0625V7.55725H226.948C236.396 7.55725 244.083 15.1145 244.083 24.4062V52.9114ZM227 6L50.1667 5.66663L50.1145 36.0625C50.1145 46.3958 58.6458 54.802 69.1353 54.802L245.969 55V24.4062C245.969 14.0729 237.49 6 227 6Z" fill="#010101"/>
<path d="M102.901 5.66663H50.1145V36.0625C50.1145 46.3958 58.6458 54.802 69.1353 54.802H121.927V24.4062C121.927 14.0729 113.391 5.66663 102.901 5.66663Z" fill="#010101"/>
<path d="M63.651 29.3594C58.8489 29.3594 54.9583 33.25 54.9583 38.0521C54.9583 42.8542 58.8489 46.7448 63.651 46.7448C68.4583 46.7448 72.3489 42.8542 72.3489 38.0521C72.3489 33.25 68.4583 29.3594 63.651 29.3594Z" fill="white"/>
<path d="M69.3229 39.4688H65.0729V43.7188H62.2344V39.4688H57.9844V36.6355H62.2344V32.3802H65.0729V36.6355H69.3229" fill="#1C1C1B"/>
<path d="M55.7864 26.5937V17.1979H58.2708V24.5156H61.828V26.5937" fill="white"/>
<path d="M62.9426 26.5937V17.1979H69.0155V19.276H65.4322V20.7552H68.4947V22.8385H65.4322V24.5156H69.1614V26.5937" fill="white"/>
<path d="M75.0885 26.5937V19.276H72.6041V17.1979H80.0677V19.276H77.5781V26.5937" fill="white"/>
<path d="M83.5521 21.4739H84.4479C85.4479 21.4739 85.9531 21.0625 85.9531 20.2343C85.9531 19.8281 85.8229 19.5468 85.5677 19.3958C85.3125 19.2395 84.9375 19.1614 84.4479 19.1614H83.5521V21.4739ZM81.0625 26.5989V17.1979H84.6198C85.125 17.1979 85.6042 17.2448 86.0625 17.3385C86.5208 17.4375 86.9167 17.5989 87.2604 17.8333C87.6042 18.0625 87.875 18.375 88.0781 18.7656C88.2813 19.1562 88.3802 19.6458 88.3802 20.2343C88.3802 20.9062 88.2448 21.4687 87.9688 21.9114C87.6979 22.3541 87.3281 22.6979 86.8646 22.9531L88.901 26.5989H86.125L84.5052 23.4427H83.5521V26.5989" fill="white"/>
<path d="M89.8698 26.5989H92.3593V17.1979H89.8698V26.5989Z" fill="white"/>
<path d="M75.3801 43.276V33.8698H81.5103V35.9531H77.8697V37.75H80.9895V39.8333H77.8697V43.276" fill="white"/>
<path d="M84.9218 38.7031L84.7604 39.3541H86.4948L86.3385 38.7031C86.2239 38.25 86.1041 37.7604 85.9895 37.2291C85.875 36.6979 85.7604 36.1979 85.6406 35.7239H85.5833C85.4791 36.2031 85.3698 36.7083 85.2604 37.2343C85.151 37.7604 85.0364 38.25 84.9218 38.7031ZM81.3073 43.276L84.1666 33.8698H87.1718L90.0364 43.276H87.4062L86.9427 41.276H84.3125L83.8489 43.276" fill="white"/>
<path d="M94.5624 43.4479C93.9687 43.4479 93.3958 43.3489 92.8541 43.151C92.3072 42.9531 91.8333 42.651 91.4218 42.2552C91.0103 41.8541 90.6822 41.3541 90.4426 40.75C90.203 40.1458 90.0833 39.4479 90.0833 38.6458C90.0833 37.8541 90.2083 37.151 90.4583 36.5416C90.7083 35.927 91.0416 35.4114 91.4635 34.9948C91.8801 34.5729 92.3645 34.25 92.9114 34.0312C93.4583 33.8073 94.026 33.6979 94.6249 33.6979C95.2499 33.6979 95.8124 33.8229 96.302 34.0677C96.7968 34.3125 97.2083 34.6041 97.5468 34.9427L96.2447 36.5312C96.0155 36.3333 95.776 36.1666 95.5312 36.0312C95.2812 35.9062 94.9999 35.8385 94.6822 35.8385C94.401 35.8385 94.1405 35.901 93.8958 36.026C93.651 36.151 93.4322 36.3333 93.2447 36.5625C93.0572 36.7916 92.9062 37.0781 92.7968 37.4166C92.6822 37.75 92.6301 38.1354 92.6301 38.5573C92.6301 39.4479 92.8124 40.125 93.1874 40.5989C93.5572 41.0677 94.0468 41.3073 94.651 41.3073C95.0208 41.3073 95.3437 41.2291 95.6301 41.0677C95.9114 40.9062 96.1562 40.7187 96.3593 40.4948L97.6614 42.0573C97.2551 42.5208 96.7916 42.8698 96.2655 43.0989C95.7395 43.3333 95.1718 43.4479 94.5624 43.4479Z" fill="white"/>
<path d="M98.6198 43.276H101.104V33.8698H98.6198V43.276Z" fill="white"/>
<path d="M102.875 43.276V33.8698H105.365V41.1927H108.922V43.276" fill="white"/>
<path d="M110.031 43.276V33.8698H116.109V35.9531H112.521V37.4323H115.589V39.5156H112.521V41.1927H116.255V43.276" fill="white"/>
<path fill-rule="evenodd" clip-rule="evenodd" d="M16.2604 29.1927C16.2604 29.1927 15.9115 29.151 15.6771 29.7968L13.5573 35.7083C15.224 37.1198 17.1823 38.1823 19.3281 38.8073L16.7552 29.7708C16.5781 29.125 16.2604 29.1927 16.2604 29.1927ZM5.67188 23.6979C5.67188 13.7552 13.7604 5.66663 23.7031 5.66663C28.9635 5.66663 33.7083 7.93225 37.0052 11.5364L35.3906 13.177C32.5104 9.97913 28.3385 7.9635 23.7031 7.9635C15.026 7.9635 7.96875 15.0208 7.96875 23.6979C7.96875 27.5208 9.34375 31.0312 11.6198 33.7604L14.2656 20.7968C14.7396 18.5104 16.8854 16.7552 19.0521 17.1562C20.6406 17.4583 28.0938 22.3958 28.0938 22.3958C28.7292 22.802 28.375 23.3489 28.375 23.3489C28.375 23.3489 28.0729 23.875 27.4479 23.6041L21.9792 21.4062C21.0052 20.9948 19.4323 21.4323 19.6667 24.1875L21.3802 38.7864L21.4531 39.2656C22.1875 39.375 22.9375 39.4323 23.7031 39.4323C24.1875 39.4323 24.6719 39.401 25.1458 39.3541L25.0052 37.4531L28.6979 40.2708L25.3958 43.4635L25.276 41.651C24.7552 41.6979 24.2344 41.7291 23.7031 41.7291C13.7604 41.7291 5.67188 33.6406 5.67188 23.6979ZM19.9375 16.4115C18.4167 16.4115 17.1875 15.1823 17.1875 13.6562C17.1875 12.1354 18.4167 10.9062 19.9375 10.9062C21.4583 10.9062 22.6927 12.1354 22.6927 13.6562C22.6927 15.1823 21.4583 16.4115 19.9375 16.4115ZM37.1046 24.564C37.7365 24.0543 39.7005 22.4703 40.1613 19.1927L40.2342 18.1823L42.0519 18.2864L38.0259 12.8541L33.2134 17.6927L34.979 17.7656L34.9998 17.7708C35.0415 17.9687 35.2446 19.2656 34.5571 21.3177C33.7967 23.6041 31.4373 26.2916 28.4634 25.8177C32.6457 27.5677 36.0311 25.4375 37.0936 24.5729L37.1046 24.564ZM28.375 25.8489C29.5781 28.6093 33.1146 29.1406 35.4479 28.552C37.5208 28.026 38.5052 27.1718 38.6719 27.0156L38.6615 27L37.776 25.4635L44.4427 26.9218L42.0312 33.2395L41.1354 31.6458L40.2656 32.1198C37.2654 33.4985 34.8744 32.7065 34.0978 32.4492L34.0781 32.4427C32.7812 32.0156 29.1562 30.3125 28.375 25.8489ZM28.4062 25.7448C26.7135 28.2343 28.151 31.5104 29.8958 33.1718C31.4895 34.6823 32.7655 35.0364 32.9322 35.0781L33.7447 33.5208L36.0885 39.9323L29.4635 41.2812L30.3437 39.6458L29.4478 39.1458C26.6887 37.3493 26.0817 34.9168 25.8818 34.1162L25.8749 34.0885C25.5416 32.7604 25.0468 28.7864 28.4062 25.7448Z" fill="#010101"/>
<path d="M131.328 25.728H132C132.416 25.728 132.752 25.636 133.008 25.452C133.264 25.268 133.392 24.928 133.392 24.432C133.392 24.184 133.356 23.98 133.284 23.82C133.22 23.652 133.128 23.52 133.008 23.424C132.896 23.32 132.76 23.248 132.6 23.208C132.44 23.168 132.264 23.148 132.072 23.148H131.328V25.728ZM131.328 21.948H131.82C132.3 21.948 132.648 21.864 132.864 21.696C133.088 21.52 133.2 21.228 133.2 20.82C133.2 20.412 133.1 20.124 132.9 19.956C132.7 19.788 132.384 19.704 131.952 19.704H131.328V21.948ZM129.6 18.432H132.492C132.844 18.432 133.168 18.468 133.464 18.54C133.768 18.612 134.028 18.732 134.244 18.9C134.46 19.068 134.628 19.292 134.748 19.572C134.868 19.852 134.928 20.196 134.928 20.604C134.928 21.068 134.82 21.468 134.604 21.804C134.388 22.132 134.064 22.356 133.632 22.476V22.5C134.112 22.564 134.492 22.768 134.772 23.112C135.052 23.456 135.192 23.916 135.192 24.492C135.192 24.828 135.148 25.148 135.06 25.452C134.972 25.756 134.82 26.024 134.604 26.256C134.396 26.48 134.12 26.66 133.776 26.796C133.44 26.932 133.02 27 132.516 27H129.6V18.432ZM136.352 27V18.432H138.08V27H136.352ZM143.79 18.432V24.6C143.79 25.512 143.578 26.164 143.154 26.556C142.73 26.94 142.082 27.132 141.21 27.132C140.754 27.132 140.378 27.072 140.082 26.952C139.794 26.824 139.562 26.648 139.386 26.424C139.218 26.192 139.102 25.924 139.038 25.62C138.974 25.316 138.942 24.996 138.942 24.66V24.288H140.526V24.552C140.526 25.008 140.574 25.348 140.67 25.572C140.774 25.788 140.982 25.896 141.294 25.896C141.606 25.896 141.81 25.788 141.906 25.572C142.01 25.348 142.062 25.008 142.062 24.552V18.432H143.79ZM146.464 22.716C146.464 23.292 146.476 23.784 146.5 24.192C146.532 24.592 146.588 24.92 146.668 25.176C146.756 25.424 146.876 25.608 147.028 25.728C147.188 25.84 147.396 25.896 147.652 25.896C147.908 25.896 148.112 25.84 148.264 25.728C148.424 25.608 148.544 25.424 148.624 25.176C148.712 24.92 148.768 24.592 148.792 24.192C148.824 23.784 148.84 23.292 148.84 22.716C148.84 22.14 148.824 21.652 148.792 21.252C148.768 20.852 148.712 20.524 148.624 20.268C148.544 20.012 148.424 19.828 148.264 19.716C148.112 19.596 147.908 19.536 147.652 19.536C147.396 19.536 147.188 19.596 147.028 19.716C146.876 19.828 146.756 20.012 146.668 20.268C146.588 20.524 146.532 20.852 146.5 21.252C146.476 21.652 146.464 22.14 146.464 22.716ZM144.736 22.716C144.736 22.068 144.764 21.472 144.82 20.928C144.884 20.376 145.016 19.904 145.216 19.512C145.424 19.12 145.72 18.816 146.104 18.6C146.488 18.376 147.004 18.264 147.652 18.264C148.3 18.264 148.816 18.376 149.2 18.6C149.584 18.816 149.876 19.12 150.076 19.512C150.284 19.904 150.416 20.376 150.472 20.928C150.536 21.472 150.568 22.068 150.568 22.716C150.568 23.372 150.536 23.972 150.472 24.516C150.416 25.06 150.284 25.528 150.076 25.92C149.876 26.312 149.584 26.612 149.2 26.82C148.816 27.028 148.3 27.132 147.652 27.132C147.004 27.132 146.488 27.028 146.104 26.82C145.72 26.612 145.424 26.312 145.216 25.92C145.016 25.528 144.884 25.06 144.82 24.516C144.764 23.972 144.736 23.372 144.736 22.716ZM153.204 18.432V24.408C153.204 24.624 153.216 24.824 153.24 25.008C153.272 25.184 153.324 25.34 153.396 25.476C153.476 25.604 153.58 25.708 153.708 25.788C153.844 25.86 154.012 25.896 154.212 25.896C154.42 25.896 154.588 25.86 154.716 25.788C154.844 25.708 154.944 25.604 155.016 25.476C155.096 25.34 155.148 25.184 155.172 25.008C155.204 24.824 155.22 24.624 155.22 24.408V18.432H156.948V24.408C156.948 24.952 156.872 25.404 156.72 25.764C156.568 26.116 156.364 26.396 156.108 26.604C155.852 26.812 155.56 26.952 155.232 27.024C154.904 27.096 154.564 27.132 154.212 27.132C153.86 27.132 153.52 27.1 153.192 27.036C152.864 26.972 152.572 26.844 152.316 26.652C152.06 26.452 151.856 26.172 151.704 25.812C151.552 25.452 151.476 24.984 151.476 24.408V18.432H153.204ZM160.924 18.432H165.712V19.848H162.652V21.864H165.532V23.28H162.652V27H160.924V18.432ZM169.41 23.772L168.582 19.92H168.558L167.73 23.772H169.41ZM169.638 18.432L171.906 27H170.106L169.71 25.188H167.43L167.034 27H165.234L167.502 18.432H169.638ZM174.494 18.432L176.582 24.3H176.606V18.432H178.19V27H176.222L174.11 21H174.086V27H172.502V18.432H174.494ZM184.409 18.432V19.848H182.537V27H180.809V19.848H178.937V18.432H184.409ZM188.078 23.772L187.25 19.92H187.226L186.398 23.772H188.078ZM188.306 18.432L190.574 27H188.774L188.378 25.188H186.098L185.702 27H183.902L186.17 18.432H188.306ZM191.254 27V18.432H192.982V27H191.254ZM195.656 24.324V24.576C195.656 24.776 195.672 24.96 195.704 25.128C195.736 25.288 195.796 25.424 195.884 25.536C195.972 25.648 196.088 25.736 196.232 25.8C196.384 25.864 196.572 25.896 196.796 25.896C197.06 25.896 197.296 25.812 197.504 25.644C197.72 25.468 197.828 25.2 197.828 24.84C197.828 24.648 197.8 24.484 197.744 24.348C197.696 24.204 197.612 24.076 197.492 23.964C197.372 23.852 197.212 23.752 197.012 23.664C196.82 23.568 196.58 23.472 196.292 23.376C195.908 23.248 195.576 23.108 195.296 22.956C195.016 22.804 194.78 22.628 194.588 22.428C194.404 22.22 194.268 21.984 194.18 21.72C194.092 21.448 194.048 21.136 194.048 20.784C194.048 19.936 194.284 19.304 194.756 18.888C195.228 18.472 195.876 18.264 196.7 18.264C197.084 18.264 197.436 18.308 197.756 18.396C198.084 18.476 198.364 18.612 198.596 18.804C198.836 18.988 199.02 19.228 199.148 19.524C199.284 19.812 199.352 20.16 199.352 20.568V20.808H197.696C197.696 20.4 197.624 20.088 197.48 19.872C197.336 19.648 197.096 19.536 196.76 19.536C196.568 19.536 196.408 19.564 196.28 19.62C196.152 19.676 196.048 19.752 195.968 19.848C195.896 19.936 195.844 20.04 195.812 20.16C195.788 20.28 195.776 20.404 195.776 20.532C195.776 20.796 195.832 21.02 195.944 21.204C196.056 21.38 196.296 21.544 196.664 21.696L197.996 22.272C198.324 22.416 198.592 22.568 198.8 22.728C199.008 22.88 199.172 23.048 199.292 23.232C199.42 23.408 199.508 23.604 199.556 23.82C199.604 24.036 199.628 24.276 199.628 24.54C199.628 25.444 199.364 26.104 198.836 26.52C198.316 26.928 197.588 27.132 196.652 27.132C195.676 27.132 194.976 26.92 194.552 26.496C194.136 26.072 193.928 25.464 193.928 24.672V24.324H195.656ZM200.571 27V18.432H202.299V27H200.571ZM208.368 18.432V19.848H205.308V21.864H208.188V23.28H205.308V25.584H208.488V27H203.58V18.432H208.368ZM132.552 33.432C132.304 33.888 132.092 34.332 131.916 34.764C131.74 35.188 131.596 35.616 131.484 36.048C131.38 36.48 131.304 36.924 131.256 37.38C131.208 37.828 131.184 38.308 131.184 38.82C131.184 39.332 131.208 39.816 131.256 40.272C131.304 40.72 131.38 41.156 131.484 41.58C131.596 41.996 131.74 42.416 131.916 42.84C132.092 43.272 132.304 43.716 132.552 44.172H131.28C130.68 43.228 130.248 42.312 129.984 41.424C129.728 40.536 129.6 39.668 129.6 38.82C129.6 37.972 129.728 37.1 129.984 36.204C130.248 35.3 130.68 34.376 131.28 33.432H132.552ZM136.727 38.772L135.899 34.92H135.875L135.047 38.772H136.727ZM136.955 33.432L139.223 42H137.423L137.027 40.188H134.747L134.351 42H132.551L134.819 33.432H136.955ZM143.479 36.324C143.479 35.7 143.403 35.248 143.251 34.968C143.107 34.68 142.839 34.536 142.447 34.536C142.231 34.536 142.051 34.596 141.907 34.716C141.771 34.828 141.663 35.016 141.583 35.28C141.503 35.536 141.447 35.876 141.415 36.3C141.383 36.716 141.367 37.228 141.367 37.836C141.367 38.484 141.387 39.008 141.427 39.408C141.475 39.808 141.543 40.12 141.631 40.344C141.727 40.56 141.843 40.708 141.979 40.788C142.123 40.86 142.287 40.896 142.471 40.896C142.623 40.896 142.763 40.872 142.891 40.824C143.027 40.768 143.143 40.664 143.239 40.512C143.335 40.352 143.411 40.132 143.467 39.852C143.523 39.564 143.551 39.188 143.551 38.724H145.279C145.279 39.188 145.243 39.628 145.171 40.044C145.099 40.46 144.963 40.824 144.763 41.136C144.571 41.448 144.295 41.692 143.935 41.868C143.583 42.044 143.123 42.132 142.555 42.132C141.907 42.132 141.391 42.028 141.007 41.82C140.623 41.612 140.327 41.312 140.119 40.92C139.919 40.528 139.787 40.06 139.723 39.516C139.667 38.972 139.639 38.372 139.639 37.716C139.639 37.068 139.667 36.472 139.723 35.928C139.787 35.376 139.919 34.904 140.119 34.512C140.327 34.12 140.623 33.816 141.007 33.6C141.391 33.376 141.907 33.264 142.555 33.264C143.171 33.264 143.655 33.364 144.007 33.564C144.367 33.764 144.635 34.02 144.811 34.332C144.987 34.636 145.095 34.968 145.135 35.328C145.183 35.68 145.207 36.012 145.207 36.324H143.479ZM149.924 36.324C149.924 35.7 149.848 35.248 149.696 34.968C149.552 34.68 149.284 34.536 148.892 34.536C148.676 34.536 148.496 34.596 148.352 34.716C148.216 34.828 148.108 35.016 148.028 35.28C147.948 35.536 147.892 35.876 147.86 36.3C147.828 36.716 147.812 37.228 147.812 37.836C147.812 38.484 147.832 39.008 147.872 39.408C147.92 39.808 147.988 40.12 148.076 40.344C148.172 40.56 148.288 40.708 148.424 40.788C148.568 40.86 148.732 40.896 148.916 40.896C149.068 40.896 149.208 40.872 149.336 40.824C149.472 40.768 149.588 40.664 149.684 40.512C149.78 40.352 149.856 40.132 149.912 39.852C149.968 39.564 149.996 39.188 149.996 38.724H151.724C151.724 39.188 151.688 39.628 151.616 40.044C151.544 40.46 151.408 40.824 151.208 41.136C151.016 41.448 150.74 41.692 150.38 41.868C150.028 42.044 149.568 42.132 149 42.132C148.352 42.132 147.836 42.028 147.452 41.82C147.068 41.612 146.772 41.312 146.564 40.92C146.364 40.528 146.232 40.06 146.168 39.516C146.112 38.972 146.084 38.372 146.084 37.716C146.084 37.068 146.112 36.472 146.168 35.928C146.232 35.376 146.364 34.904 146.564 34.512C146.772 34.12 147.068 33.816 147.452 33.6C147.836 33.376 148.352 33.264 149 33.264C149.616 33.264 150.1 33.364 150.452 33.564C150.812 33.764 151.08 34.02 151.256 34.332C151.432 34.636 151.54 34.968 151.58 35.328C151.628 35.68 151.652 36.012 151.652 36.324H149.924ZM157.497 33.432V34.848H154.437V36.864H157.317V38.28H154.437V40.584H157.617V42H152.709V33.432H157.497ZM159.879 39.324V39.576C159.879 39.776 159.895 39.96 159.927 40.128C159.959 40.288 160.019 40.424 160.107 40.536C160.195 40.648 160.311 40.736 160.455 40.8C160.607 40.864 160.795 40.896 161.019 40.896C161.283 40.896 161.519 40.812 161.727 40.644C161.943 40.468 162.051 40.2 162.051 39.84C162.051 39.648 162.023 39.484 161.967 39.348C161.919 39.204 161.835 39.076 161.715 38.964C161.595 38.852 161.435 38.752 161.235 38.664C161.043 38.568 160.803 38.472 160.515 38.376C160.131 38.248 159.799 38.108 159.519 37.956C159.239 37.804 159.003 37.628 158.811 37.428C158.627 37.22 158.491 36.984 158.403 36.72C158.315 36.448 158.271 36.136 158.271 35.784C158.271 34.936 158.507 34.304 158.979 33.888C159.451 33.472 160.099 33.264 160.923 33.264C161.307 33.264 161.659 33.308 161.979 33.396C162.307 33.476 162.587 33.612 162.819 33.804C163.059 33.988 163.243 34.228 163.371 34.524C163.507 34.812 163.575 35.16 163.575 35.568V35.808H161.919C161.919 35.4 161.847 35.088 161.703 34.872C161.559 34.648 161.319 34.536 160.983 34.536C160.791 34.536 160.631 34.564 160.503 34.62C160.375 34.676 160.271 34.752 160.191 34.848C160.119 34.936 160.067 35.04 160.035 35.16C160.011 35.28 159.999 35.404 159.999 35.532C159.999 35.796 160.055 36.02 160.167 36.204C160.279 36.38 160.519 36.544 160.887 36.696L162.219 37.272C162.547 37.416 162.815 37.568 163.023 37.728C163.231 37.88 163.395 38.048 163.515 38.232C163.643 38.408 163.731 38.604 163.779 38.82C163.827 39.036 163.851 39.276 163.851 39.54C163.851 40.444 163.587 41.104 163.059 41.52C162.539 41.928 161.811 42.132 160.875 42.132C159.899 42.132 159.199 41.92 158.775 41.496C158.359 41.072 158.151 40.464 158.151 39.672V39.324H159.879ZM166.101 39.324V39.576C166.101 39.776 166.117 39.96 166.149 40.128C166.181 40.288 166.241 40.424 166.329 40.536C166.417 40.648 166.533 40.736 166.677 40.8C166.829 40.864 167.017 40.896 167.241 40.896C167.505 40.896 167.741 40.812 167.949 40.644C168.165 40.468 168.273 40.2 168.273 39.84C168.273 39.648 168.245 39.484 168.189 39.348C168.141 39.204 168.057 39.076 167.937 38.964C167.817 38.852 167.657 38.752 167.457 38.664C167.265 38.568 167.025 38.472 166.737 38.376C166.353 38.248 166.021 38.108 165.741 37.956C165.461 37.804 165.225 37.628 165.033 37.428C164.849 37.22 164.713 36.984 164.625 36.72C164.537 36.448 164.493 36.136 164.493 35.784C164.493 34.936 164.729 34.304 165.201 33.888C165.673 33.472 166.321 33.264 167.145 33.264C167.529 33.264 167.881 33.308 168.201 33.396C168.529 33.476 168.809 33.612 169.041 33.804C169.281 33.988 169.465 34.228 169.593 34.524C169.729 34.812 169.797 35.16 169.797 35.568V35.808H168.141C168.141 35.4 168.069 35.088 167.925 34.872C167.781 34.648 167.541 34.536 167.205 34.536C167.013 34.536 166.853 34.564 166.725 34.62C166.597 34.676 166.493 34.752 166.413 34.848C166.341 34.936 166.289 35.04 166.257 35.16C166.233 35.28 166.221 35.404 166.221 35.532C166.221 35.796 166.277 36.02 166.389 36.204C166.501 36.38 166.741 36.544 167.109 36.696L168.441 37.272C168.769 37.416 169.037 37.568 169.245 37.728C169.453 37.88 169.617 38.048 169.737 38.232C169.865 38.408 169.953 38.604 170.001 38.82C170.049 39.036 170.073 39.276 170.073 39.54C170.073 40.444 169.809 41.104 169.281 41.52C168.761 41.928 168.033 42.132 167.097 42.132C166.121 42.132 165.421 41.92 164.997 41.496C164.581 41.072 164.373 40.464 164.373 39.672V39.324H166.101ZM172.48 37.716C172.48 38.292 172.492 38.784 172.516 39.192C172.548 39.592 172.604 39.92 172.684 40.176C172.772 40.424 172.892 40.608 173.044 40.728C173.204 40.84 173.412 40.896 173.668 40.896C173.924 40.896 174.128 40.84 174.28 40.728C174.44 40.608 174.56 40.424 174.64 40.176C174.728 39.92 174.784 39.592 174.808 39.192C174.84 38.784 174.856 38.292 174.856 37.716C174.856 37.14 174.84 36.652 174.808 36.252C174.784 35.852 174.728 35.524 174.64 35.268C174.56 35.012 174.44 34.828 174.28 34.716C174.128 34.596 173.924 34.536 173.668 34.536C173.412 34.536 173.204 34.596 173.044 34.716C172.892 34.828 172.772 35.012 172.684 35.268C172.604 35.524 172.548 35.852 172.516 36.252C172.492 36.652 172.48 37.14 172.48 37.716ZM170.752 37.716C170.752 37.068 170.78 36.472 170.836 35.928C170.9 35.376 171.032 34.904 171.232 34.512C171.44 34.12 171.736 33.816 172.12 33.6C172.504 33.376 173.02 33.264 173.668 33.264C174.316 33.264 174.832 33.376 175.216 33.6C175.6 33.816 175.892 34.12 176.092 34.512C176.3 34.904 176.432 35.376 176.488 35.928C176.552 36.472 176.584 37.068 176.584 37.716C176.584 38.372 176.552 38.972 176.488 39.516C176.432 40.06 176.3 40.528 176.092 40.92C175.892 41.312 175.6 41.612 175.216 41.82C174.832 42.028 174.316 42.132 173.668 42.132C173.02 42.132 172.504 42.028 172.12 41.82C171.736 41.612 171.44 41.312 171.232 40.92C171.032 40.528 170.9 40.06 170.836 39.516C170.78 38.972 170.752 38.372 170.752 37.716ZM177.684 42V33.432H179.412V42H177.684ZM180.694 33.432H183.886C184.606 33.432 185.166 33.616 185.566 33.984C185.966 34.344 186.166 34.896 186.166 35.64C186.166 36.216 186.05 36.688 185.818 37.056C185.586 37.416 185.226 37.648 184.738 37.752V37.776C185.17 37.84 185.486 37.98 185.686 38.196C185.886 38.412 186.01 38.76 186.058 39.24C186.074 39.4 186.086 39.576 186.094 39.768C186.102 39.952 186.11 40.16 186.118 40.392C186.134 40.848 186.158 41.196 186.19 41.436C186.238 41.676 186.342 41.84 186.502 41.928V42H184.63C184.542 41.88 184.486 41.744 184.462 41.592C184.438 41.432 184.422 41.268 184.414 41.1L184.366 39.456C184.35 39.12 184.266 38.856 184.114 38.664C183.962 38.472 183.706 38.376 183.346 38.376H182.422V42H180.694V33.432ZM182.422 37.176H183.142C183.558 37.176 183.878 37.08 184.102 36.888C184.326 36.688 184.438 36.356 184.438 35.892C184.438 35.1 184.038 34.704 183.238 34.704H182.422V37.176ZM192.15 33.432V34.848H189.09V36.864H191.97V38.28H189.09V40.584H192.27V42H187.362V33.432H192.15ZM194.531 39.324V39.576C194.531 39.776 194.547 39.96 194.579 40.128C194.611 40.288 194.671 40.424 194.759 40.536C194.847 40.648 194.963 40.736 195.107 40.8C195.259 40.864 195.447 40.896 195.671 40.896C195.935 40.896 196.171 40.812 196.379 40.644C196.595 40.468 196.703 40.2 196.703 39.84C196.703 39.648 196.675 39.484 196.619 39.348C196.571 39.204 196.487 39.076 196.367 38.964C196.247 38.852 196.087 38.752 195.887 38.664C195.695 38.568 195.455 38.472 195.167 38.376C194.783 38.248 194.451 38.108 194.171 37.956C193.891 37.804 193.655 37.628 193.463 37.428C193.279 37.22 193.143 36.984 193.055 36.72C192.967 36.448 192.923 36.136 192.923 35.784C192.923 34.936 193.159 34.304 193.631 33.888C194.103 33.472 194.751 33.264 195.575 33.264C195.959 33.264 196.311 33.308 196.631 33.396C196.959 33.476 197.239 33.612 197.471 33.804C197.711 33.988 197.895 34.228 198.023 34.524C198.159 34.812 198.227 35.16 198.227 35.568V35.808H196.571C196.571 35.4 196.499 35.088 196.355 34.872C196.211 34.648 195.971 34.536 195.635 34.536C195.443 34.536 195.283 34.564 195.155 34.62C195.027 34.676 194.923 34.752 194.843 34.848C194.771 34.936 194.719 35.04 194.687 35.16C194.663 35.28 194.651 35.404 194.651 35.532C194.651 35.796 194.707 36.02 194.819 36.204C194.931 36.38 195.171 36.544 195.539 36.696L196.871 37.272C197.199 37.416 197.467 37.568 197.675 37.728C197.883 37.88 198.047 38.048 198.167 38.232C198.295 38.408 198.383 38.604 198.431 38.82C198.479 39.036 198.503 39.276 198.503 39.54C198.503 40.444 198.239 41.104 197.711 41.52C197.191 41.928 196.463 42.132 195.527 42.132C194.551 42.132 193.851 41.92 193.427 41.496C193.011 41.072 192.803 40.464 192.803 39.672V39.324H194.531ZM200.034 33.432C200.634 34.376 201.062 35.3 201.318 36.204C201.582 37.1 201.714 37.972 201.714 38.82C201.714 39.668 201.582 40.536 201.318 41.424C201.062 42.312 200.634 43.228 200.034 44.172H198.762C199.01 43.716 199.222 43.272 199.398 42.84C199.574 42.416 199.714 41.996 199.818 41.58C199.93 41.156 200.01 40.72 200.058 40.272C200.106 39.816 200.13 39.332 200.13 38.82C200.13 38.308 200.106 37.828 200.058 37.38C200.01 36.924 199.93 36.48 199.818 36.048C199.714 35.616 199.574 35.188 199.398 34.764C199.222 34.332 199.01 33.888 198.762 33.432H200.034Z" fill="black"/>
<path d="M211 6H237V55H230H211L224.5 28.5L211 6Z" fill="#010101"/>
<path d="M237 6H308C317.941 6 326 14.0589 326 24V55H237V6Z" fill="black"/>
<rect x="237" y="8" width="31" height="31" fill="black"/>
<path d="M239.881 43.1H240.924L241.722 48H240.952L240.812 47.027V47.041H239.937L239.797 48H239.083L239.881 43.1ZM240.721 46.376L240.378 43.954H240.364L240.028 46.376H240.721ZM243.076 48.07C242.703 48.07 242.42 47.965 242.229 47.755C242.038 47.5403 241.942 47.2347 241.942 46.838V46.558H242.67V46.894C242.67 47.2113 242.803 47.37 243.069 47.37C243.2 47.37 243.298 47.3327 243.363 47.258C243.433 47.1787 243.468 47.0527 243.468 46.88C243.468 46.6747 243.421 46.495 243.328 46.341C243.235 46.1823 243.062 45.9933 242.81 45.774C242.493 45.494 242.271 45.242 242.145 45.018C242.019 44.7893 241.956 44.5327 241.956 44.248C241.956 43.8607 242.054 43.562 242.25 43.352C242.446 43.1373 242.731 43.03 243.104 43.03C243.473 43.03 243.75 43.1373 243.937 43.352C244.128 43.562 244.224 43.8653 244.224 44.262V44.465H243.496V44.213C243.496 44.045 243.463 43.9237 243.398 43.849C243.333 43.7697 243.237 43.73 243.111 43.73C242.854 43.73 242.726 43.8863 242.726 44.199C242.726 44.3763 242.773 44.542 242.866 44.696C242.964 44.85 243.139 45.0367 243.391 45.256C243.713 45.536 243.935 45.7903 244.056 46.019C244.177 46.2477 244.238 46.516 244.238 46.824C244.238 47.2253 244.138 47.5333 243.937 47.748C243.741 47.9627 243.454 48.07 243.076 48.07ZM245.681 48.07C245.307 48.07 245.025 47.965 244.834 47.755C244.642 47.5403 244.547 47.2347 244.547 46.838V46.558H245.275V46.894C245.275 47.2113 245.408 47.37 245.674 47.37C245.804 47.37 245.902 47.3327 245.968 47.258C246.038 47.1787 246.073 47.0527 246.073 46.88C246.073 46.6747 246.026 46.495 245.933 46.341C245.839 46.1823 245.667 45.9933 245.415 45.774C245.097 45.494 244.876 45.242 244.75 45.018C244.624 44.7893 244.561 44.5327 244.561 44.248C244.561 43.8607 244.659 43.562 244.855 43.352C245.051 43.1373 245.335 43.03 245.709 43.03C246.077 43.03 246.355 43.1373 246.542 43.352C246.733 43.562 246.829 43.8653 246.829 44.262V44.465H246.101V44.213C246.101 44.045 246.068 43.9237 246.003 43.849C245.937 43.7697 245.842 43.73 245.716 43.73C245.459 43.73 245.331 43.8863 245.331 44.199C245.331 44.3763 245.377 44.542 245.471 44.696C245.569 44.85 245.744 45.0367 245.996 45.256C246.318 45.536 246.539 45.7903 246.661 46.019C246.782 46.2477 246.843 46.516 246.843 46.824C246.843 47.2253 246.742 47.5333 246.542 47.748C246.346 47.9627 246.059 48.07 245.681 48.07ZM248.397 48.07C248.019 48.07 247.73 47.9627 247.529 47.748C247.328 47.5333 247.228 47.23 247.228 46.838V44.262C247.228 43.87 247.328 43.5667 247.529 43.352C247.73 43.1373 248.019 43.03 248.397 43.03C248.775 43.03 249.064 43.1373 249.265 43.352C249.466 43.5667 249.566 43.87 249.566 44.262V46.838C249.566 47.23 249.466 47.5333 249.265 47.748C249.064 47.9627 248.775 48.07 248.397 48.07ZM248.397 47.37C248.663 47.37 248.796 47.209 248.796 46.887V44.213C248.796 43.891 248.663 43.73 248.397 43.73C248.131 43.73 247.998 43.891 247.998 44.213V46.887C247.998 47.209 248.131 47.37 248.397 47.37ZM251.172 48.07C250.803 48.07 250.521 47.965 250.325 47.755C250.133 47.545 250.038 47.2487 250.038 46.866V44.234C250.038 43.8513 250.133 43.555 250.325 43.345C250.521 43.135 250.803 43.03 251.172 43.03C251.54 43.03 251.82 43.135 252.012 43.345C252.208 43.555 252.306 43.8513 252.306 44.234V44.752H251.578V44.185C251.578 43.8817 251.449 43.73 251.193 43.73C250.936 43.73 250.808 43.8817 250.808 44.185V46.922C250.808 47.2207 250.936 47.37 251.193 47.37C251.449 47.37 251.578 47.2207 251.578 46.922V46.173H252.306V46.866C252.306 47.2487 252.208 47.545 252.012 47.755C251.82 47.965 251.54 48.07 251.172 48.07ZM252.766 43.1H253.536V48H252.766V43.1ZM254.708 43.1H255.751L256.549 48H255.779L255.639 47.027V47.041H254.764L254.624 48H253.91L254.708 43.1ZM255.548 46.376L255.205 43.954H255.191L254.855 46.376H255.548ZM257.203 43.8H256.398V43.1H258.778V43.8H257.973V48H257.203V43.8ZM259.151 43.1H259.921V48H259.151V43.1ZM261.611 48.07C261.233 48.07 260.944 47.9627 260.743 47.748C260.542 47.5333 260.442 47.23 260.442 46.838V44.262C260.442 43.87 260.542 43.5667 260.743 43.352C260.944 43.1373 261.233 43.03 261.611 43.03C261.989 43.03 262.278 43.1373 262.479 43.352C262.68 43.5667 262.78 43.87 262.78 44.262V46.838C262.78 47.23 262.68 47.5333 262.479 47.748C262.278 47.9627 261.989 48.07 261.611 48.07ZM261.611 47.37C261.877 47.37 262.01 47.209 262.01 46.887V44.213C262.01 43.891 261.877 43.73 261.611 43.73C261.345 43.73 261.212 43.891 261.212 44.213V46.887C261.212 47.209 261.345 47.37 261.611 47.37ZM263.301 43.1H264.267L265.016 46.033H265.03V43.1H265.716V48H264.925L264.001 44.423H263.987V48H263.301V43.1Z" fill="white"/>
<path d="M259.01 31.2217H252.203C252.051 31.2217 251.908 31.1627 251.79 31.0615L246.83 26.7763C246.72 26.6835 246.577 26.6329 246.433 26.6329H244.223V23.6636H249.276C249.951 23.6636 250.609 23.9336 251.081 24.4059L254.691 28.0247C254.852 28.185 254.936 28.3959 254.928 28.6236C254.928 28.6827 254.919 28.7333 254.911 28.7839C254.911 28.8008 254.902 28.8176 254.902 28.8261C254.86 28.9779 254.776 29.1129 254.649 29.2141C254.337 29.4925 253.823 29.4587 253.502 29.1382L250.811 26.4473C250.575 26.2111 250.187 26.2111 249.951 26.4473C249.706 26.6919 249.706 27.08 249.951 27.3162L252.642 30.007C253.418 30.7915 254.658 30.8421 255.459 30.1336C255.645 29.9733 255.796 29.7877 255.906 29.5768L259.061 29.5853C259.289 29.5853 259.5 29.6781 259.651 29.8468C259.812 30.0155 259.888 30.2264 259.871 30.4541C259.845 30.8759 259.457 31.2217 259.01 31.2217ZM259.061 28.3621L256.142 28.3537C256.083 27.9066 255.881 27.4764 255.56 27.1559L251.95 23.5371C251.241 22.837 250.271 22.4321 249.276 22.4321H243.616C243.278 22.4321 243 22.7104 243 23.0479V27.2402C243 27.5861 243.278 27.856 243.616 27.856H246.205L250.988 31.9894C251.326 32.2846 251.764 32.4449 252.203 32.4449H259.01C260.107 32.4449 261.026 31.6098 261.094 30.5385C261.128 29.9649 260.942 29.425 260.546 29.0032C260.166 28.5983 259.618 28.3621 259.061 28.3621Z" fill="white"/>
<path d="M252.878 17.7926C253.207 16.8647 253.856 16.2911 254.666 16.232C254.717 16.232 254.767 16.232 254.818 16.232C255.586 16.232 256.328 16.6875 256.716 17.4383C256.826 17.6323 257.037 17.7588 257.264 17.7588C257.492 17.7588 257.694 17.6323 257.804 17.4383C258.226 16.6454 259.036 16.173 259.854 16.232C260.664 16.2911 261.313 16.8647 261.642 17.7926C262.435 20.028 259.289 22.7273 257.264 24.001C255.24 22.7273 252.085 20.028 252.878 17.7926ZM256.952 25.2495C257.045 25.3085 257.155 25.3338 257.264 25.3338C257.374 25.3338 257.484 25.3085 257.576 25.2495C258.251 24.8446 264.156 21.2005 262.798 17.3792C262.309 15.9958 261.237 15.1101 259.947 15.0089C258.943 14.9414 257.956 15.3463 257.264 16.0971C256.573 15.3463 255.586 14.933 254.582 15.0089C253.283 15.1101 252.211 15.9958 251.722 17.3792C250.373 21.2005 256.269 24.8446 256.952 25.2495Z" fill="white"/>
<path d="M275.59 31.07C275.212 31.07 274.923 30.9627 274.722 30.748C274.522 30.5333 274.421 30.23 274.421 29.838V27.262C274.421 26.87 274.522 26.5667 274.722 26.352C274.923 26.1373 275.212 26.03 275.59 26.03C275.968 26.03 276.258 26.1373 276.458 26.352C276.659 26.5667 276.759 26.87 276.759 27.262V29.838C276.759 30.23 276.659 30.5333 276.458 30.748C276.258 30.9627 275.968 31.07 275.59 31.07ZM275.59 30.37C275.856 30.37 275.989 30.209 275.989 29.887V27.213C275.989 26.891 275.856 26.73 275.59 26.73C275.324 26.73 275.191 26.891 275.191 27.213V29.887C275.191 30.209 275.324 30.37 275.59 30.37ZM278.4 31.07C278.027 31.07 277.742 30.965 277.546 30.755C277.35 30.5403 277.252 30.2347 277.252 29.838V26.1H278.022V29.894C278.022 30.062 278.055 30.1833 278.12 30.258C278.19 30.3327 278.288 30.37 278.414 30.37C278.54 30.37 278.636 30.3327 278.701 30.258C278.771 30.1833 278.806 30.062 278.806 29.894V26.1H279.548V29.838C279.548 30.2347 279.45 30.5403 279.254 30.755C279.058 30.965 278.773 31.07 278.4 31.07Z" fill="white"/>
<rect x="286" y="8" width="31" height="31" fill="black"/>
<path fill-rule="evenodd" clip-rule="evenodd" d="M299.109 14.1063C298.715 13.9593 298.442 13.9112 298.26 13.9138C298.076 13.9164 298.017 13.9696 298.005 13.983C297.994 13.9948 297.976 14.0235 297.975 14.1029C297.974 14.1628 297.984 14.2337 298.004 14.3061L300.457 16.7194H302.07C302.35 16.3731 302.982 15.6937 304.041 14.766C304.332 14.5109 304.438 14.3351 304.469 14.2426C304.486 14.1909 304.48 14.1822 304.466 14.1637L304.464 14.1606C304.428 14.1114 304.342 14.0437 304.193 13.9816C304.059 13.9255 303.904 13.8872 303.762 13.8665C303.659 13.8692 303.582 13.8932 303.446 13.9423L303.419 13.9521C303.371 13.9696 303.335 13.9876 303.3 14.0059C303.226 14.0437 303.15 14.0826 302.951 14.1204C302.636 14.1804 302.41 14.185 302.155 14.124C301.99 14.0845 301.808 14.0142 301.587 13.9294C301.511 13.8998 301.429 13.8684 301.342 13.8359L301.34 13.8357C301.335 13.835 301.315 13.8327 301.278 13.8341C301.224 13.8361 301.153 13.8447 301.066 13.86C300.894 13.8904 300.691 13.9409 300.477 13.9945L300.464 13.9977C300.252 14.0505 300.026 14.1067 299.837 14.1369C299.742 14.1519 299.644 14.1628 299.554 14.1606L299.525 14.1602C299.431 14.1593 299.201 14.1571 299.109 14.1063ZM300.242 13.1757C299.947 13.2429 299.406 13.3023 299.406 13.3023C299.09 13.2908 298.86 13.2277 298.667 13.1747C298.513 13.1326 298.383 13.0968 298.251 13.0987C297.953 13.1029 297.694 13.1923 297.508 13.3963C297.321 13.6018 297.262 13.8653 297.259 14.0916C297.257 14.3145 297.307 14.5303 297.37 14.7023L297.402 14.7912L299.578 16.9319C298.757 17.1125 297.88 17.4785 297.072 18.1145C295.533 19.3262 294.301 21.4723 294.126 25.024C294.115 25.2552 294.102 25.4899 294.09 25.7262C294.038 26.698 293.984 27.698 294.004 28.6023C294.029 29.71 294.162 30.7759 294.615 31.5044C295.429 32.813 296.76 33.4463 298.037 33.7444C299.31 34.0416 300.582 34.019 301.369 33.9721C302.089 33.9584 303.275 33.9154 304.49 33.6601C305.701 33.4057 307.004 32.9283 307.895 31.9992C308.611 31.2516 308.855 30.1504 308.929 28.9703C308.987 28.0415 308.943 26.9912 308.898 25.9219L308.898 25.9218L308.898 25.9216C308.886 25.6252 308.873 25.3272 308.863 25.03C308.746 21.692 307.518 19.598 305.98 18.3585C304.982 17.5541 303.871 17.124 302.887 16.9376C303.206 16.5912 303.724 16.0726 304.477 15.4121C304.806 15.1237 305.036 14.8353 305.137 14.5344C305.251 14.1954 305.189 13.8795 305.014 13.6398C304.86 13.4286 304.636 13.2982 304.439 13.216C304.234 13.1306 304.014 13.0793 303.824 13.0539L303.803 13.0511H303.782C303.552 13.0511 303.386 13.1088 303.23 13.1653L303.204 13.1747C303.062 13.2261 302.907 13.282 302.663 13.3284C302.449 13.3691 302.436 13.3656 302.355 13.3435L302.355 13.3435L302.355 13.3435C302.339 13.3391 302.32 13.334 302.297 13.3284C302.176 13.2994 302.051 13.2515 301.854 13.1757C301.847 13.1727 301.833 13.1658 301.815 13.1563C301.723 13.1093 301.511 13 301.269 13C300.911 13 300.568 13.0906 300.362 13.1452C300.314 13.1578 300.273 13.1685 300.242 13.1757ZM297.598 18.7826C296.294 19.8098 295.141 21.7024 294.975 25.0658C294.964 25.3062 294.951 25.5471 294.938 25.7873L294.938 25.7873L294.938 25.7874C294.886 26.7564 294.835 27.7147 294.854 28.5836C294.879 29.6845 295.017 30.5403 295.337 31.0555C295.986 32.0991 297.071 32.6458 298.23 32.9165C299.389 33.1869 300.569 33.1684 301.327 33.1229L301.336 33.1224L301.345 33.1222C302.051 33.1089 303.176 33.0673 304.316 32.828C305.465 32.5867 306.566 32.1565 307.281 31.411C307.778 30.8917 308.009 30.0543 308.08 28.9168C308.136 28.0371 308.094 27.048 308.05 25.9868L308.05 25.9866C308.037 25.6833 308.024 25.3741 308.013 25.0598C307.903 21.9361 306.769 20.0859 305.447 19.0204C304.443 18.2117 303.307 17.8352 302.37 17.7159C303.146 18.5301 304.026 19.349 304.507 19.6446L304.061 20.3687C303.86 20.1673 303.557 19.9036 303.208 19.5994L303.208 19.5994C302.705 19.1614 302.106 18.6395 301.574 18.0991C301.548 18.4454 301.525 18.8325 301.515 19.1999C301.507 19.5164 301.509 19.8104 301.526 20.048C301.534 20.1669 301.546 20.2653 301.56 20.3418C301.567 20.3798 301.574 20.4092 301.581 20.4311C301.587 20.4519 301.591 20.4611 301.591 20.462L301.652 20.7938L300.831 20.8422C300.732 20.6443 300.696 20.3607 300.678 20.1075C300.659 19.8317 300.657 19.5076 300.666 19.1781C300.672 18.9159 300.685 18.6454 300.702 18.3858C300.011 19.0527 299.284 19.6307 298.748 20.0572C298.673 20.1168 298.601 20.1734 298.535 20.227L298.089 19.5029C298.561 19.1737 299.435 18.4574 300.209 17.6831C299.385 17.7926 298.447 18.1141 297.598 18.7826Z" fill="white"/>
<path d="M291.263 43.1H292.397C292.78 43.1 293.067 43.2027 293.258 43.408C293.449 43.6133 293.545 43.9143 293.545 44.311V44.794C293.545 45.1907 293.449 45.4917 293.258 45.697C293.067 45.9023 292.78 46.005 292.397 46.005H292.033V48H291.263V43.1ZM292.397 45.305C292.523 45.305 292.616 45.27 292.677 45.2C292.742 45.13 292.775 45.011 292.775 44.843V44.262C292.775 44.094 292.742 43.975 292.677 43.905C292.616 43.835 292.523 43.8 292.397 43.8H292.033V45.305H292.397ZM295.076 48.07C294.698 48.07 294.409 47.9627 294.208 47.748C294.008 47.5333 293.907 47.23 293.907 46.838V44.262C293.907 43.87 294.008 43.5667 294.208 43.352C294.409 43.1373 294.698 43.03 295.076 43.03C295.454 43.03 295.744 43.1373 295.944 43.352C296.145 43.5667 296.245 43.87 296.245 44.262V46.838C296.245 47.23 296.145 47.5333 295.944 47.748C295.744 47.9627 295.454 48.07 295.076 48.07ZM295.076 47.37C295.342 47.37 295.475 47.209 295.475 46.887V44.213C295.475 43.891 295.342 43.73 295.076 43.73C294.81 43.73 294.677 43.891 294.677 44.213V46.887C294.677 47.209 294.81 47.37 295.076 47.37ZM297.886 48.07C297.513 48.07 297.228 47.965 297.032 47.755C296.836 47.5403 296.738 47.2347 296.738 46.838V43.1H297.508V46.894C297.508 47.062 297.541 47.1833 297.606 47.258C297.676 47.3327 297.774 47.37 297.9 47.37C298.026 47.37 298.122 47.3327 298.187 47.258C298.257 47.1833 298.292 47.062 298.292 46.894V43.1H299.034V46.838C299.034 47.2347 298.936 47.5403 298.74 47.755C298.544 47.965 298.259 48.07 297.886 48.07ZM299.582 43.1H300.744C301.141 43.1 301.43 43.1933 301.612 43.38C301.794 43.562 301.885 43.8443 301.885 44.227V44.423C301.885 44.675 301.843 44.8803 301.759 45.039C301.68 45.1977 301.556 45.312 301.388 45.382V45.396C301.771 45.5267 301.962 45.8673 301.962 46.418V46.838C301.962 47.216 301.862 47.5053 301.661 47.706C301.465 47.902 301.176 48 300.793 48H299.582V43.1ZM300.653 45.095C300.807 45.095 300.922 45.0553 300.996 44.976C301.076 44.8967 301.115 44.7637 301.115 44.577V44.304C301.115 44.1267 301.083 43.9983 301.017 43.919C300.957 43.8397 300.859 43.8 300.723 43.8H300.352V45.095H300.653ZM300.793 47.3C300.929 47.3 301.029 47.265 301.094 47.195C301.16 47.1203 301.192 46.9943 301.192 46.817V46.39C301.192 46.166 301.153 46.012 301.073 45.928C300.999 45.8393 300.873 45.795 300.695 45.795H300.352V47.3H300.793ZM302.412 43.1H304.512V43.8H303.182V45.095H304.239V45.795H303.182V47.3H304.512V48H302.412V43.1ZM304.955 43.1H305.725V47.3H306.992V48H304.955V43.1ZM307.362 43.1H308.132V47.3H309.399V48H307.362V43.1ZM309.768 43.1H311.868V43.8H310.538V45.095H311.595V45.795H310.538V47.3H311.868V48H309.768V43.1Z" fill="white"/>
</g>
<defs>
<clipPath id="clip0_66_1078">
<rect width="332" height="61" fill="white"/>
</clipPath>
</defs>
</svg>
