<svg width="353" height="71" viewBox="0 0 353 71" fill="none" xmlns="http://www.w3.org/2000/svg">
<g clip-path="url(#clip0_46_1090)">
<path d="M352.141 70.3698H83.5573C76.6354 70.3698 71 64.7396 71 57.8125V8.61462H339.589C346.51 8.61462 352.141 14.25 352.141 21.1719V70.3698ZM73.4844 11.099V57.8125C73.4844 63.3698 78.0052 67.8855 83.5573 67.8855H349.661V21.1719C349.661 15.6198 345.141 11.099 339.589 11.099" fill="#AC348E"/>
<path d="M154.109 69.276H88.448C71.0782 69.0052 72.1928 57.3385 72.2397 47.0781V10H154.109L163.724 37.1406C164.297 38.7552 164.297 40.5208 163.724 42.1354" fill="#AC348E"/>
<path d="M95.0209 8.33329C95.0209 12.1979 90.1772 15.3281 84.2084 15.3281C78.2397 15.3281 73.4011 12.1979 73.4011 8.33329C73.4011 4.46871 78.2397 1.3385 84.2084 1.3385C90.1772 1.3385 95.0209 4.46871 95.0209 8.33329Z" fill="white"/>
<path d="M84.2083 15.7448C78.0208 15.7448 72.9895 12.4219 72.9895 8.33337C72.9895 4.25004 78.0208 0.927124 84.2083 0.927124C90.3958 0.927124 95.4322 4.25004 95.4322 8.33337C95.4322 12.4219 90.3958 15.7448 84.2083 15.7448ZM84.2083 1.75525C78.4791 1.75525 73.8176 4.70837 73.8176 8.33337C73.8176 11.9636 78.4791 14.9167 84.2083 14.9167C89.9426 14.9167 94.6041 11.9636 94.6041 8.33337C94.6041 4.70837 89.9426 1.75525 84.2083 1.75525Z" fill="#AC348E"/>
<path d="M79.9688 5.85413H83.6094V6.66142H80.9688V8.18746H83.4531V8.99996H80.9688V11.427H79.9688" fill="#AC348E"/>
<path d="M89.0365 11.427H87.9688L87.2605 9.57288C87.198 9.401 87.099 9.28121 86.9688 9.2135C86.8386 9.14579 86.6667 9.10933 86.4584 9.10933H85.4532V11.427H84.448V5.85413H86.8386C87.4688 5.85413 87.948 5.98954 88.2761 6.27079C88.6042 6.54683 88.7709 6.94267 88.7709 7.45829C88.7709 7.82808 88.672 8.14579 88.474 8.401C88.2813 8.66142 88.0053 8.84371 87.6407 8.95308C87.9688 9.02079 88.2084 9.24996 88.3542 9.64058L89.0365 11.427ZM86.6928 8.32808C87.073 8.32808 87.3595 8.25517 87.5417 8.11975C87.724 7.97392 87.8178 7.76038 87.8178 7.47392C87.8178 7.19267 87.724 6.98433 87.5417 6.84371C87.3647 6.70308 87.0834 6.63538 86.6928 6.63538H85.4324V8.32808" fill="#AC348E"/>
<path d="M29.1546 5C36.5036 5.13542 43.3421 8.02083 48.988 13.7292C49.3578 14.1042 49.3838 14.3437 48.9828 14.7083C48.4151 15.2083 47.889 15.75 47.3838 16.3177C47.0609 16.6823 46.863 16.6719 46.5192 16.3125C43.8474 13.5052 40.6963 11.401 37.0453 10.0781C32.3369 8.36979 27.5348 8.0625 22.6598 9.25521C16.1703 10.8385 11.1026 14.4635 7.49318 20.0573C4.0661 25.3698 2.90464 31.2083 3.89943 37.4479C4.55568 41.5573 6.21714 45.25 8.7536 48.5469C8.82652 48.6458 8.89422 48.75 8.98277 48.8333C9.09735 48.9375 9.22756 49.026 9.35256 49.125C9.40985 48.9792 9.49839 48.8438 9.52443 48.6927C10.0557 46.1563 10.5765 43.6198 11.0973 41.0833C11.8265 37.5313 12.5609 33.974 13.2744 30.4167C13.5609 28.974 13.7953 27.5156 14.6546 26.2708C16.1807 24.0677 18.1911 22.6823 20.9567 23.1615C22.1651 23.3698 23.3369 24.0104 24.4151 24.651C28.0453 26.8073 31.6234 29.0469 35.2171 31.2656C35.9307 31.7083 36.1182 32.1771 35.8578 32.7188C35.5765 33.3021 35.0088 33.4583 34.2223 33.1458C31.5505 32.0833 28.8421 31.0938 26.2276 29.9115C23.9776 28.8958 22.2067 30.1823 22.0817 32.5365C22.0192 33.7083 22.1442 34.901 22.2744 36.0729C22.7432 40.2917 23.2588 44.5052 23.7536 48.7188C24.0921 51.5938 24.4411 54.4688 24.764 57.349C24.8213 57.8177 25.0192 58.0625 25.488 58.0677C27.0921 58.1042 28.7067 58.125 30.3161 58.1563C30.7015 58.1615 30.7901 57.9427 30.7588 57.599C30.7067 56.9688 30.6703 56.3385 30.6338 55.7083C30.6286 55.599 30.6911 55.4896 30.7171 55.3854C30.8109 55.4219 30.9151 55.4375 30.9932 55.4948C32.6494 56.75 34.3057 58.0104 35.9619 59.2708C36.238 59.4792 36.1911 59.6406 35.9671 59.8542C34.4984 61.2656 33.0296 62.6875 31.5609 64.099C31.4828 64.1771 31.363 64.2083 31.2588 64.2604C31.2276 64.1458 31.1755 64.0313 31.1651 63.9167C31.113 63.3698 31.0401 62.8177 31.0401 62.2708C31.0401 61.7656 30.8369 61.6563 30.3682 61.6927C26.9255 61.9792 23.5453 61.6042 20.264 60.5781C12.8526 58.2656 7.22756 53.7031 3.46193 46.9115C0.857766 42.2083 -0.324526 37.1146 0.0765158 31.7656C0.842141 21.5885 5.71193 13.8646 14.5036 8.69271C18.8005 6.16146 23.5088 5.03125 29.1546 5ZM21.5401 57.0625C21.4463 56.6979 21.3942 56.4792 21.3317 56.2656C20.4463 53.151 19.5609 50.0365 18.6703 46.9219C18.264 45.5104 17.863 44.099 17.4098 42.7083C17.3265 42.4427 16.9984 42.0938 16.7796 42.0885C16.5036 42.0833 16.2067 42.375 15.9567 42.5833C15.8421 42.6771 15.8057 42.8646 15.7484 43.0208C14.7015 45.9323 13.6703 48.8542 12.5973 51.7552C12.4203 52.2448 12.5453 52.4948 12.9098 52.7813C14.7484 54.2292 16.7328 55.4271 18.8942 56.3177C19.5869 56.6042 20.3057 56.8542 21.0192 57.0938C21.1651 57.1406 21.3526 57.0781 21.5401 57.0625Z" fill="#AC348E"/>
<path d="M36.9203 37.0104C41.764 36.8125 45.337 32.2395 46.1442 27.8281C46.3317 26.8125 46.363 25.7656 46.4411 24.7291C46.4828 24.2135 46.2484 23.9427 45.6859 23.9635C45.1963 23.9843 44.7067 23.9427 44.2172 23.9218C44.0765 23.9114 43.9463 23.8645 43.8109 23.8333C43.8838 23.7031 43.9307 23.5416 44.0349 23.4375C45.3995 22.0573 46.7692 20.6927 48.139 19.3177C49.014 18.4375 49.8995 17.5573 50.7692 16.6666C51.0088 16.4218 51.1495 16.401 51.3734 16.7031C53.2588 19.2656 55.1651 21.8125 57.0557 24.3698C57.1234 24.4635 57.1599 24.5833 57.2067 24.6875C57.0765 24.7187 56.9463 24.7812 56.8161 24.7812C56.2849 24.7656 55.7536 24.7604 55.2276 24.6979C54.7276 24.6406 54.5401 24.7916 54.514 25.3125C54.4151 27.427 53.8161 29.401 52.738 31.2239C49.712 36.3541 43.0349 38.9531 37.3474 37.2031C37.2015 37.1562 37.0609 37.0729 36.9203 37.0104Z" fill="#AC348E"/>
<path d="M35.3787 37.1041C33.4777 41.2083 35.561 45.6927 38.087 48.1979C39.3423 49.4427 40.7589 50.4635 42.3995 51.1614C42.9048 51.375 43.1808 51.2864 43.3943 50.7812C43.5766 50.3541 43.8058 49.9427 44.035 49.5312C44.1079 49.401 44.2433 49.3125 44.3475 49.2031C44.4152 49.3229 44.5037 49.4323 44.5506 49.5573C45.4725 52.0677 46.3891 54.5729 47.3058 57.0833C47.4777 57.5416 47.6183 58.0104 47.8162 58.4583C47.9933 58.8437 47.8891 59 47.4881 59.0833C45.5245 59.4687 43.5714 59.8698 41.6131 60.2656C40.5714 60.4739 39.535 60.6927 38.4933 60.8958C38.2798 60.9375 38.0558 60.927 37.837 60.9427C37.8995 60.7448 37.9464 60.5312 38.035 60.3437C38.2225 59.9583 38.3839 59.552 38.6443 59.2135C39.0766 58.6458 38.8214 58.3906 38.3006 58.1198C36.4725 57.1718 35.0037 55.8073 33.8318 54.1198C30.4048 49.2031 30.8891 42.0156 34.9412 37.6145C35.0923 37.4479 35.2329 37.276 35.3787 37.1041Z" fill="#AC348E"/>
<path d="M36.0974 37.651C36.9464 38.7396 37.9099 39.6563 39.1391 40.2656C42.1026 41.7188 45.1599 41.7917 48.2276 40.7083C49.3891 40.2969 50.4672 39.651 51.5766 39.099C52.0766 38.849 52.1755 38.5104 51.8266 38.0208C51.5193 37.5937 51.2797 37.1094 51.0245 36.6458C50.9776 36.5573 50.988 36.4323 50.9724 36.3229C51.0714 36.3229 51.1703 36.3125 51.2641 36.3333C54.4307 37.026 57.5922 37.724 60.7589 38.4063C61.1495 38.4896 61.1547 38.6406 61.0349 38.9531C59.8891 41.9167 58.7485 44.8854 57.6078 47.8542C57.5662 47.9583 57.488 48.0469 57.4255 48.1458C57.3422 48.0677 57.2276 48.0052 57.1755 47.9063C56.8891 47.4167 56.5922 46.9271 56.337 46.4115C56.1287 45.9844 55.8995 45.9323 55.4828 46.1719C53.1755 47.5156 50.6755 48.0156 48.0193 47.8333C42.5245 47.4479 37.4516 43.2187 36.1235 37.8802C36.1078 37.8073 36.1026 37.724 36.0974 37.651Z" fill="#AC348E"/>
<path d="M18.2224 17.5781C18.2224 15.1927 20.1703 13.2344 22.5401 13.2448C24.8891 13.2552 26.811 15.1875 26.8214 17.5521C26.8318 19.9375 24.8787 21.8958 22.5037 21.8854C20.1547 21.875 18.2276 19.9323 18.2224 17.5781Z" fill="#AC348E"/>
<path d="M294.213 56.503H292.725L292.035 54.7243C291.954 54.5282 291.771 54.4268 291.474 54.4268H290.966V56.503H289.587V51.1738H292.062C292.704 51.1738 293.185 51.3091 293.509 51.5864C293.834 51.8636 293.996 52.2626 293.996 52.7766C293.996 53.1351 293.901 53.4461 293.712 53.7031C293.516 53.9669 293.245 54.1495 292.901 54.2645C293.049 54.2915 293.185 54.3659 293.3 54.4741C293.421 54.5823 293.516 54.7311 293.584 54.9137L294.213 56.503ZM292.488 53.2433C292.623 53.1486 292.691 53.0066 292.691 52.8104C292.691 52.6076 292.623 52.4588 292.488 52.3709C292.36 52.2829 292.136 52.2356 291.832 52.2356H290.953V53.3785H291.832C292.136 53.3785 292.353 53.3312 292.488 53.2433Z" fill="#231F20"/>
<path d="M294.929 51.1738H298.723V52.2491H296.295V53.2568H298.568V54.3321H296.295V55.4209H298.723V56.503H294.929" fill="#231F20"/>
<path d="M304.823 51.1738L302.402 56.503H301.286L298.859 51.1738H300.319L301.855 54.7514L303.41 51.1738" fill="#231F20"/>
<path d="M305.128 51.1738H308.929V52.2491H306.501V53.2568H308.773V54.3321H306.501V55.4209H308.929V56.503H305.128" fill="#231F20"/>
<path d="M314.42 51.1738V56.503H313.378L310.957 53.48V56.503H309.652V51.1738H310.673L313.088 54.1833V51.1738" fill="#231F20"/>
<path d="M315.38 51.1738H317.558C318.146 51.1738 318.653 51.282 319.079 51.4917C319.505 51.7013 319.837 52.0124 320.06 52.4047C320.29 52.8104 320.405 53.2771 320.405 53.8316C320.405 54.3862 320.29 54.8596 320.067 55.2654C319.844 55.6644 319.519 55.9687 319.093 56.1851C318.66 56.3947 318.153 56.503 317.558 56.503H315.38V51.1738ZM317.463 55.3803C317.977 55.3803 318.369 55.2518 318.626 54.9948C318.883 54.7379 319.012 54.3456 319.012 53.8316C319.012 52.8104 318.491 52.2965 317.463 52.2965H316.787V55.3803" fill="#231F20"/>
<path d="M321.223 51.1738H325.024V52.2491H322.596V53.2568H324.868V54.3321H322.596V55.4209H325.024V56.503H321.223" fill="#231F20"/>
<path d="M326.323 55.9822C325.924 55.59 325.721 55.0151 325.721 54.2577V51.1738H327.094V54.3118C327.094 54.6905 327.175 54.9881 327.351 55.191C327.52 55.3938 327.77 55.4953 328.088 55.4953C328.399 55.4953 328.642 55.3938 328.811 55.191C328.98 54.9813 329.068 54.6905 329.068 54.3118V51.1738H330.448V54.2577C330.448 55.0016 330.245 55.5764 329.839 55.9755C329.434 56.3677 328.852 56.5706 328.088 56.5706C327.31 56.5706 326.722 56.3745 326.323 55.9822Z" fill="#231F20"/>
<path d="M336 56.503H334.512L333.822 54.7243C333.748 54.5282 333.559 54.4268 333.261 54.4268H332.754V56.503H331.374V51.1738H333.849C334.492 51.1738 334.972 51.3091 335.297 51.5864C335.621 51.8636 335.784 52.2626 335.784 52.7766C335.784 53.1351 335.689 53.4461 335.5 53.7031C335.303 53.9669 335.033 54.1495 334.688 54.2645C334.837 54.2915 334.972 54.3659 335.087 54.4741C335.209 54.5823 335.303 54.7311 335.371 54.9137L336 56.503ZM334.275 53.2433C334.411 53.1486 334.478 53.0066 334.478 52.8104C334.478 52.6076 334.411 52.4588 334.275 52.3709C334.147 52.2829 333.924 52.2356 333.619 52.2356H332.74V53.3785H333.619C333.924 53.3785 334.14 53.3312 334.275 53.2433Z" fill="#231F20"/>
<path d="M322.474 21.3429H302.855C302.517 21.3429 302.24 21.0657 302.24 20.7275C302.24 20.3826 302.517 20.1053 302.855 20.1053H322.474C322.812 20.1053 323.09 20.3826 323.09 20.7275C323.09 21.0657 322.812 21.3429 322.474 21.3429Z" fill="#231F20"/>
<path d="M325.754 28.9713H299.602C299.379 28.9713 299.156 28.8496 299.055 28.6602C298.94 28.4641 298.933 28.2274 299.048 28.0313L303.565 20.5448C303.741 20.254 304.127 20.1593 304.417 20.3352C304.708 20.5178 304.803 20.8965 304.627 21.1873L300.671 27.7337H324.659L320.709 21.1873C320.533 20.8965 320.628 20.5178 320.919 20.3352C321.203 20.1593 321.588 20.254 321.771 20.5448L326.282 28.0313C326.403 28.2274 326.403 28.4641 326.295 28.6602C326.187 28.8496 325.977 28.9713 325.754 28.9713Z" fill="#231F20"/>
<path d="M302.206 31.6157C300.421 31.6157 298.967 30.1617 298.967 28.3763C298.967 28.0314 299.251 27.7542 299.589 27.7542C299.934 27.7542 300.218 28.0314 300.218 28.3763C300.218 29.4719 301.111 30.3714 302.206 30.3714C303.302 30.3714 304.194 29.4719 304.194 28.3763C304.194 28.0314 304.472 27.7542 304.817 27.7542C305.168 27.7542 305.446 28.0314 305.446 28.3763C305.446 30.1617 303.992 31.6157 302.206 31.6157Z" fill="#231F20"/>
<path d="M307.434 31.6157C305.649 31.6157 304.195 30.1617 304.195 28.3763C304.195 28.0314 304.472 27.7542 304.817 27.7542C305.168 27.7542 305.446 28.0314 305.446 28.3763C305.446 29.4719 306.338 30.3714 307.434 30.3714C308.536 30.3714 309.429 29.4719 309.429 28.3763C309.429 28.0314 309.706 27.7542 310.051 27.7542C310.396 27.7542 310.68 28.0314 310.68 28.3763C310.68 30.1617 309.226 31.6157 307.434 31.6157Z" fill="#231F20"/>
<path d="M312.668 31.6157C310.883 31.6157 309.429 30.1617 309.429 28.3763C309.429 28.0314 309.706 27.7542 310.051 27.7542C310.396 27.7542 310.673 28.0314 310.673 28.3763C310.673 29.4719 311.566 30.3714 312.668 30.3714C313.764 30.3714 314.657 29.4719 314.657 28.3763C314.657 28.0314 314.934 27.7542 315.279 27.7542C315.624 27.7542 315.901 28.0314 315.901 28.3763C315.901 30.1617 314.454 31.6157 312.668 31.6157Z" fill="#231F20"/>
<path d="M317.896 31.6157C316.11 31.6157 314.656 30.1617 314.656 28.3763C314.656 28.0314 314.934 27.7542 315.279 27.7542C315.624 27.7542 315.901 28.0314 315.901 28.3763C315.901 29.4719 316.793 30.3714 317.896 30.3714C318.991 30.3714 319.884 29.4719 319.884 28.3763C319.884 28.0314 320.168 27.7542 320.513 27.7542C320.858 27.7542 321.135 28.0314 321.135 28.3763C321.135 30.1617 319.681 31.6157 317.896 31.6157Z" fill="#231F20"/>
<path d="M323.13 31.6157C321.338 31.6157 319.884 30.1617 319.884 28.3763C319.884 28.0314 320.168 27.7542 320.513 27.7542C320.858 27.7542 321.135 28.0314 321.135 28.3763C321.135 29.4719 322.028 30.3714 323.13 30.3714C324.226 30.3714 325.112 29.4719 325.112 28.3763C325.112 28.0314 325.396 27.7542 325.741 27.7542C326.086 27.7542 326.363 28.0314 326.363 28.3763C326.363 30.1617 324.909 31.6157 323.13 31.6157Z" fill="#231F20"/>
<path d="M323.299 45.3174H302.037C301.692 45.3174 301.408 45.0333 301.408 44.6884V30.9936C301.408 30.6487 301.692 30.3715 302.037 30.3715C302.375 30.3715 302.659 30.6487 302.659 30.9936V44.0662H322.67V31.0139C322.67 30.669 322.954 30.3917 323.299 30.3917C323.644 30.3917 323.922 30.669 323.922 31.0139V44.6884C323.922 45.0333 323.644 45.3174 323.299 45.3174Z" fill="#231F20"/>
<path d="M310.633 45.1821C310.288 45.1821 310.01 44.9048 310.01 44.5599V29.9995C310.01 29.6546 310.288 29.3773 310.633 29.3773C310.977 29.3773 311.255 29.6546 311.255 29.9995V44.5599C311.255 44.9048 310.977 45.1821 310.633 45.1821Z" fill="#231F20"/>
<path d="M308.354 38.9804C308.009 38.9804 307.725 38.7031 307.725 38.3582V33.8C307.725 33.4551 308.009 33.1779 308.354 33.1779C308.699 33.1779 308.976 33.4551 308.976 33.8V38.3582C308.976 38.7031 308.699 38.9804 308.354 38.9804Z" fill="#231F20"/>
<path d="M315.698 38.2231C315.536 38.2231 315.38 38.1622 315.258 38.0405C315.015 37.797 315.015 37.398 315.258 37.1546L319.309 33.1036C319.553 32.8602 319.952 32.8602 320.189 33.1036C320.439 33.3471 320.439 33.7393 320.189 33.9828L316.138 38.0405C316.016 38.1622 315.86 38.2231 315.698 38.2231Z" fill="#231F20"/>
<path d="M317.47 40.2521C317.314 40.2521 317.152 40.1912 317.03 40.0627C316.787 39.826 316.787 39.427 317.03 39.1836L319.438 36.776C319.681 36.5325 320.073 36.5325 320.317 36.776C320.56 37.0194 320.56 37.4185 320.317 37.6619L317.909 40.0627C317.794 40.1912 317.632 40.2521 317.47 40.2521Z" fill="#231F20"/>
<path d="M258.728 68H259.113V11.3544H258.728V68Z" fill="#AC348E"/>
<path d="M180.969 54.055C180.576 53.9536 180.258 53.8115 180.015 53.6289L180.455 52.6348C180.718 52.8039 180.989 52.9256 181.286 53.0135C181.577 53.1014 181.868 53.142 182.159 53.142C182.463 53.142 182.693 53.1014 182.849 53.0203C183.011 52.9391 183.092 52.8242 183.092 52.6754C183.092 52.5401 183.018 52.4319 182.876 52.3372C182.727 52.2561 182.456 52.1682 182.057 52.0803C181.557 51.9856 181.165 51.8571 180.881 51.7151C180.603 51.5663 180.407 51.3904 180.299 51.1943C180.184 50.9914 180.13 50.748 180.13 50.4639C180.13 50.1393 180.218 49.8485 180.407 49.5848C180.59 49.3278 180.847 49.1249 181.185 48.9761C181.516 48.8273 181.902 48.7529 182.328 48.7529C182.713 48.7529 183.085 48.807 183.444 48.9152C183.809 49.0234 184.093 49.1587 184.296 49.3345L183.863 50.3287C183.626 50.1664 183.376 50.0379 183.119 49.9567C182.862 49.8688 182.605 49.8215 182.341 49.8215C182.084 49.8215 181.888 49.8688 181.726 49.9702C181.57 50.0649 181.496 50.2002 181.496 50.3625C181.496 50.4504 181.523 50.5248 181.577 50.5857C181.631 50.6465 181.74 50.7074 181.888 50.7615C182.037 50.8224 182.26 50.8832 182.565 50.9441C183.045 51.0523 183.423 51.174 183.701 51.3228C183.978 51.4716 184.174 51.6407 184.289 51.8368C184.404 52.0329 184.458 52.2696 184.458 52.5469C184.458 53.0676 184.255 53.4734 183.856 53.771C183.451 54.0685 182.882 54.2173 182.145 54.2173C181.746 54.2173 181.354 54.1632 180.969 54.055Z" fill="#231F20"/>
<path d="M186.331 49.9566H184.742V48.8204H189.341V49.9566H187.752V54.1496H186.331" fill="#231F20"/>
<path d="M194.542 54.1496H193.047L192.364 52.3777C192.283 52.1748 192.094 52.0734 191.803 52.0734H191.289V54.1496H189.909V48.8204H192.384C193.027 48.8204 193.514 48.9557 193.838 49.233C194.163 49.5102 194.325 49.9093 194.325 50.4232C194.325 50.7817 194.224 51.0928 194.034 51.3565C193.838 51.6135 193.575 51.8029 193.223 51.9111C193.372 51.9381 193.507 52.0125 193.629 52.1207C193.744 52.2289 193.838 52.3777 193.913 52.5603L194.542 54.1496ZM192.81 50.8899C192.946 50.7952 193.013 50.6532 193.013 50.457C193.013 50.2542 192.946 50.1054 192.817 50.0175C192.682 49.9295 192.466 49.8822 192.161 49.8822H191.275V51.0251H192.161C192.459 51.0251 192.675 50.9778 192.81 50.8899Z" fill="#231F20"/>
<path d="M195.827 53.6288C195.428 53.2366 195.231 52.6617 195.231 51.9043V48.8204H196.597V51.9516C196.597 52.3371 196.685 52.6347 196.854 52.8376C197.024 53.0405 197.274 53.1419 197.592 53.1419C197.903 53.1419 198.146 53.0405 198.315 52.8308C198.484 52.6279 198.572 52.3304 198.572 51.9516V48.8204H199.952V51.9043C199.952 52.6482 199.749 53.2231 199.343 53.6221C198.937 54.0143 198.356 54.2104 197.592 54.2104C196.814 54.2104 196.226 54.0211 195.827 53.6288Z" fill="#231F20"/>
<path d="M202.014 53.8724C201.609 53.6492 201.291 53.3246 201.068 52.9121C200.844 52.4995 200.736 52.0194 200.736 51.4784C200.736 50.9373 200.844 50.4639 201.068 50.0514C201.291 49.6389 201.609 49.321 202.014 49.0911C202.427 48.8679 202.907 48.7529 203.462 48.7529C203.813 48.7529 204.151 48.807 204.483 48.9085C204.807 49.0167 205.071 49.1587 205.267 49.3345L204.841 50.3287C204.408 50.0176 203.962 49.862 203.495 49.862C203.069 49.862 202.738 49.9973 202.508 50.2678C202.278 50.5383 202.163 50.9441 202.163 51.4784C202.163 52.0126 202.278 52.4184 202.508 52.6957C202.738 52.9729 203.069 53.1082 203.495 53.1082C203.962 53.1082 204.408 52.9527 204.841 52.6348L205.267 53.6289C205.071 53.8115 204.807 53.9536 204.483 54.055C204.151 54.1632 203.813 54.2173 203.462 54.2173C202.907 54.2173 202.427 54.1023 202.014 53.8724Z" fill="#231F20"/>
<path d="M207.12 49.9566H205.538V48.8204H210.13V49.9566H208.547V54.1496H207.12" fill="#231F20"/>
<path d="M211.28 53.6288C210.881 53.2366 210.678 52.6617 210.678 51.9043V48.8204H212.051V51.9516C212.051 52.3371 212.132 52.6347 212.307 52.8376C212.477 53.0405 212.72 53.1419 213.045 53.1419C213.356 53.1419 213.599 53.0405 213.768 52.8308C213.937 52.6279 214.025 52.3304 214.025 51.9516V48.8204H215.405V51.9043C215.405 52.6482 215.202 53.2231 214.796 53.6221C214.39 54.0143 213.809 54.2104 213.045 54.2104C212.267 54.2104 211.679 54.0211 211.28 53.6288Z" fill="#231F20"/>
<path d="M220.957 54.1496H219.47L218.78 52.3777C218.699 52.1748 218.516 52.0734 218.218 52.0734H217.711V54.1496H216.325V48.8204H218.8C219.449 48.8204 219.929 48.9557 220.254 49.233C220.579 49.5102 220.741 49.9093 220.741 50.4232C220.741 50.7817 220.646 51.0928 220.45 51.3565C220.261 51.6135 219.99 51.8029 219.639 51.9111C219.794 51.9381 219.929 52.0125 220.044 52.1207C220.166 52.2289 220.261 52.3777 220.328 52.5603L220.957 54.1496ZM219.233 50.8899C219.361 50.7952 219.429 50.6532 219.429 50.457C219.429 50.2542 219.368 50.1054 219.233 50.0175C219.104 49.9295 218.881 49.8822 218.577 49.8822H217.698V51.0251H218.577C218.881 51.0251 219.098 50.9778 219.233 50.8899Z" fill="#231F20"/>
<path d="M221.667 48.8204H225.468V49.8957H223.04V50.8966H225.313V51.9787H223.04V53.0675H225.468V54.1428H221.667" fill="#231F20"/>
<path d="M177.56 56.3002H179.738C180.326 56.3002 180.833 56.4084 181.259 56.618C181.685 56.8344 182.017 57.1388 182.24 57.5378C182.47 57.9368 182.585 58.4102 182.585 58.958C182.585 59.5125 182.47 59.9859 182.247 60.3917C182.024 60.7907 181.699 61.1018 181.273 61.3114C180.84 61.5211 180.333 61.6293 179.738 61.6293H177.56V56.3002ZM179.643 60.5067C180.164 60.5067 180.549 60.3782 180.806 60.1212C181.063 59.8642 181.192 59.4787 181.192 58.958C181.192 57.9368 180.678 57.4228 179.643 57.4228H178.967V60.5067" fill="#231F20"/>
<path d="M183.403 56.3002H187.204V57.3755H184.776V58.3831H187.048V59.4584H184.776V60.554H187.204V61.6293H183.403" fill="#231F20"/>
<path d="M190.092 56.3002H192.635C193.236 56.3002 193.71 56.449 194.048 56.7398C194.379 57.0306 194.548 57.4296 194.548 57.9233C194.548 58.4169 194.379 58.816 194.034 59.1068C193.696 59.4043 193.23 59.5463 192.635 59.5463H191.505V61.6293H190.092V56.3002ZM192.445 58.5049C192.973 58.5049 193.236 58.3155 193.236 57.9435C193.236 57.7474 193.169 57.6054 193.047 57.5107C192.919 57.416 192.722 57.3619 192.445 57.3619H191.505V58.5049" fill="#231F20"/>
<path d="M199.85 61.6293H198.362L197.673 59.8574C197.592 59.6545 197.409 59.5531 197.111 59.5531H196.604V61.6293H195.218V56.3002H197.693C198.342 56.3002 198.822 56.4422 199.147 56.7195C199.472 56.9967 199.634 57.389 199.634 57.903C199.634 58.2614 199.539 58.5725 199.343 58.8362C199.154 59.0932 198.883 59.2826 198.532 59.3908C198.68 59.4178 198.816 59.4922 198.937 59.6004C199.059 59.7086 199.154 59.8574 199.221 60.04L199.85 61.6293ZM198.126 58.3696C198.254 58.2817 198.322 58.1329 198.322 57.9435C198.322 57.7339 198.261 57.5851 198.126 57.4972C197.991 57.4093 197.774 57.3619 197.47 57.3619H196.591V58.5116H197.47C197.774 58.5116 197.991 58.4643 198.126 58.3696Z" fill="#231F20"/>
<path d="M204.071 60.527H201.704L201.237 61.6293H199.83L202.319 56.3002H203.428L205.93 61.6293H204.544L204.071 60.527ZM203.617 59.4719L202.887 57.788L202.163 59.4719" fill="#231F20"/>
<path d="M206.735 57.4363H205.146V56.3002H209.745V57.4363H208.155V61.6293H206.735" fill="#231F20"/>
<path d="M210.312 61.6293H211.719V56.3002H210.312V61.6293Z" fill="#231F20"/>
<path d="M217.048 61.8728C217.211 62.0351 217.4 62.2041 217.61 62.38L216.67 63.0563C216.122 62.6978 215.689 62.2447 215.364 61.6969H215.216C214.668 61.6969 214.195 61.582 213.789 61.3655C213.39 61.1424 213.079 60.8245 212.862 60.412C212.646 59.9995 212.531 59.5125 212.531 58.958C212.531 58.4034 212.646 57.9233 212.862 57.5175C213.085 57.105 213.39 56.7871 213.796 56.5639C214.195 56.3475 214.668 56.2325 215.216 56.2325C215.757 56.2325 216.23 56.3475 216.629 56.5639C217.035 56.7871 217.339 57.105 217.556 57.5175C217.772 57.9233 217.88 58.4034 217.88 58.958C217.88 59.5125 217.772 59.9927 217.556 60.4052C217.339 60.8178 217.035 61.1356 216.643 61.352C216.751 61.5346 216.886 61.7105 217.048 61.8728ZM214.276 60.2023C214.506 60.4864 214.817 60.6284 215.216 60.6284C215.615 60.6284 215.926 60.4864 216.156 60.1956C216.379 59.9115 216.494 59.499 216.494 58.958C216.494 58.4169 216.379 58.0112 216.156 57.7271C215.926 57.4431 215.615 57.3078 215.216 57.3078C214.817 57.3078 214.506 57.4431 214.276 57.7204C214.052 58.0044 213.938 58.4169 213.938 58.958C213.938 59.5058 214.052 59.9251 214.276 60.2023Z" fill="#231F20"/>
<path d="M219.273 61.1086C218.874 60.7163 218.678 60.1415 218.678 59.384V56.3002H220.044V59.4381C220.044 59.8236 220.132 60.1144 220.301 60.3173C220.477 60.527 220.721 60.6284 221.039 60.6284C221.356 60.6284 221.6 60.527 221.769 60.3173C221.938 60.1077 222.019 59.8169 222.019 59.4381V56.3002H223.406V59.384C223.406 60.1347 223.203 60.7028 222.797 61.1018C222.391 61.5008 221.803 61.6969 221.039 61.6969C220.261 61.6969 219.672 61.5008 219.273 61.1086Z" fill="#231F20"/>
<path d="M224.325 56.3002H228.126V57.3755H225.698V58.3831H227.97V59.4584H225.698V60.554H228.126V61.6293H224.325" fill="#231F20"/>
<path d="M267.939 38.2975C267.939 41.5166 263.901 44.1271 258.924 44.1271C253.94 44.1271 249.902 41.5166 249.902 38.2975C249.902 35.0716 253.94 32.4612 258.924 32.4612C263.901 32.4612 267.939 35.0716 267.939 38.2975Z" fill="#AC348E"/>
<path d="M255.286 40.5902C254.961 40.4009 254.711 40.1236 254.535 39.7719C254.352 39.4203 254.264 39.0077 254.264 38.5276C254.264 38.0474 254.352 37.6416 254.528 37.2832C254.704 36.9315 254.954 36.661 255.279 36.4717C255.61 36.2891 255.996 36.1876 256.442 36.1876C256.882 36.1876 257.274 36.2891 257.598 36.4717C257.923 36.661 258.173 36.9315 258.349 37.2832C258.518 37.6416 258.606 38.0474 258.606 38.5276C258.606 39.0077 258.518 39.4203 258.342 39.7719C258.167 40.1236 257.916 40.4009 257.592 40.5902C257.267 40.7796 256.882 40.8743 256.442 40.8743C256.002 40.8743 255.617 40.7796 255.286 40.5902ZM257.429 39.7787C257.659 39.4879 257.781 39.0686 257.781 38.5276C257.781 37.9865 257.659 37.574 257.429 37.2832C257.193 36.9992 256.861 36.8504 256.442 36.8504C256.016 36.8504 255.685 36.9992 255.455 37.2832C255.218 37.5672 255.103 37.9798 255.103 38.5276C255.103 39.0686 255.218 39.4879 255.455 39.7787C255.685 40.0695 256.016 40.2115 256.442 40.2115C256.861 40.2115 257.193 40.0695 257.429 39.7787Z" fill="white"/>
<path d="M259.911 40.3873C259.593 40.0694 259.431 39.5893 259.431 38.9671V36.2484H260.243V39.0144C260.243 39.4067 260.337 39.7042 260.52 39.9071C260.702 40.11 260.973 40.2114 261.338 40.2114C261.697 40.2114 261.967 40.11 262.15 39.9071C262.339 39.6975 262.427 39.3999 262.427 39.0144V36.2484H263.245V38.9671C263.245 39.5893 263.083 40.0627 262.758 40.3873C262.434 40.7119 261.96 40.8742 261.338 40.8742C260.709 40.8742 260.236 40.7119 259.911 40.3873Z" fill="white"/>
<path d="M214.56 31.2642H212.544C212.544 31.2574 212.544 31.2439 212.544 31.2371C212.348 26.0635 208.176 21.9652 203.09 21.7826V19.7673C203.09 19.5712 202.928 19.4156 202.738 19.4156C202.542 19.4156 202.387 19.5712 202.387 19.7673V21.7826C202.38 21.7826 202.366 21.7826 202.36 21.7826C197.186 21.972 193.094 26.1447 192.905 31.2371H190.883C190.694 31.2371 190.538 31.3927 190.538 31.5888C190.538 31.7781 190.694 31.9337 190.883 31.9337H192.905C192.905 31.9472 192.905 31.954 192.905 31.9675C193.094 37.1343 197.267 41.2326 202.36 41.4152V43.4373C202.36 43.6334 202.515 43.789 202.711 43.789C202.901 43.789 203.056 43.6334 203.056 43.4373V41.422C203.07 41.422 203.076 41.422 203.09 41.422C208.257 41.2258 212.355 37.0532 212.538 31.9607H214.56C214.756 31.9607 214.911 31.8052 214.911 31.6158C214.911 31.4197 214.756 31.2642 214.56 31.2642ZM202.711 36.174C202.515 36.174 202.36 36.3363 202.36 36.5257V37.4657C201.007 37.3845 199.729 36.8435 198.721 35.9102C197.598 34.8688 196.942 33.4621 196.855 31.9337H197.795C197.991 31.9337 198.146 31.7781 198.146 31.5888C198.146 31.3927 197.991 31.2371 197.795 31.2371H196.855C197.037 28.2953 199.397 25.908 202.387 25.7389V26.6722C202.387 26.8683 202.542 27.0239 202.738 27.0239C202.928 27.0239 203.09 26.8683 203.09 26.6722V25.7389C204.442 25.8201 205.714 26.3543 206.722 27.2944C207.844 28.3358 208.5 29.7425 208.588 31.2642H207.648C207.459 31.2642 207.303 31.4197 207.303 31.6158C207.303 31.8052 207.459 31.9607 207.648 31.9607H208.588C208.412 34.9026 206.045 37.2966 203.056 37.4657V36.5257C203.056 36.3363 202.901 36.174 202.711 36.174ZM211.841 31.2642H209.291C209.204 29.5396 208.466 27.9504 207.202 26.7804C206.059 25.7186 204.618 25.1167 203.09 25.0356V22.4792C207.804 22.6686 211.665 26.4693 211.841 31.2642ZM202.387 22.4792V25.0356C199.012 25.2046 196.341 27.9166 196.158 31.2371H193.608C193.791 26.5234 197.592 22.6618 202.387 22.4792ZM193.602 31.9404V31.9337H196.158C196.246 33.6582 196.983 35.2475 198.248 36.4242C199.384 37.4792 200.824 38.0811 202.36 38.1623V40.7186C197.646 40.5293 193.784 36.7285 193.602 31.9404ZM203.063 40.7186H203.056V38.169C206.438 37.9932 209.109 35.2881 209.291 31.9607H211.841C211.652 36.6812 207.858 40.5428 203.063 40.7186Z" fill="#231F20"/>
<path d="M202.711 44.2352C202.271 44.2352 201.906 43.8768 201.906 43.4372V41.8412C196.902 41.4489 192.864 37.4048 192.479 32.3867H190.883C190.443 32.3867 190.085 32.0283 190.085 31.5887C190.085 31.1491 190.443 30.7907 190.883 30.7907H192.486C192.878 25.7794 196.922 21.742 201.933 21.3565V19.7673C201.933 19.3209 202.298 18.9692 202.738 18.9692C203.178 18.9692 203.536 19.3209 203.536 19.7673V21.3565C208.547 21.7488 212.585 25.793 212.963 30.8178H214.56C214.999 30.8178 215.364 31.1762 215.364 31.6158C215.364 32.0554 214.999 32.4138 214.56 32.4138H212.963C212.571 37.4251 208.527 41.4557 203.509 41.848V43.4372C203.509 43.8768 203.151 44.2352 202.711 44.2352ZM203.509 38.5815V40.2452C207.648 39.8664 210.975 36.5459 211.361 32.4138H209.697C209.332 35.66 206.762 38.2231 203.509 38.5815ZM194.082 32.3867C194.46 36.5188 197.774 39.8529 201.906 40.2384V38.5747C200.418 38.4057 199.052 37.7767 197.943 36.7488C196.699 35.5923 195.928 34.0572 195.738 32.3867H194.082ZM197.355 32.3867C197.531 33.6108 198.112 34.7334 199.025 35.5788C199.844 36.3362 200.831 36.8096 201.906 36.9719V36.5256C201.906 36.086 202.271 35.7343 202.711 35.7343C203.151 35.7343 203.509 36.086 203.509 36.5256V36.9719C205.869 36.627 207.743 34.7673 208.094 32.4138H207.648C207.208 32.4138 206.85 32.0554 206.85 31.6158C206.85 31.1762 207.208 30.8178 207.648 30.8178H208.094C207.912 29.5869 207.33 28.4643 206.417 27.6189C205.605 26.8682 204.618 26.3948 203.536 26.2325V26.6721C203.536 27.1117 203.178 27.4701 202.738 27.4701C202.298 27.4701 201.933 27.1117 201.933 26.6721V26.2325C199.573 26.5774 197.706 28.4305 197.355 30.7907H197.794C198.234 30.7907 198.592 31.1491 198.592 31.5887C198.592 32.0283 198.234 32.3867 197.794 32.3867H197.355ZM209.704 30.8178H211.367C210.989 26.6789 207.668 23.3516 203.536 22.9593V24.623C205.024 24.7921 206.39 25.4142 207.506 26.4489C208.75 27.5986 209.514 29.1406 209.704 30.8178ZM194.088 30.7907H195.745C196.117 27.5378 198.68 24.9814 201.933 24.623V22.9593C197.801 23.338 194.474 26.6586 194.088 30.7907Z" fill="#231F20"/>
<path d="M205.504 31.4941C205.477 30.757 205.159 30.0671 204.618 29.5599C204.07 29.0595 203.367 28.789 202.623 28.8228C201.088 28.8769 199.884 30.1686 199.945 31.7038C199.972 32.4477 200.283 33.1307 200.831 33.6379C201.352 34.1249 202.014 34.3818 202.718 34.3818C202.758 34.3818 202.792 34.3818 202.826 34.3818C203.57 34.3548 204.26 34.0369 204.76 33.4959C205.267 32.9481 205.531 32.238 205.504 31.4941ZM202.799 33.6785C202.244 33.7056 201.71 33.5027 201.304 33.1239C200.899 32.7452 200.662 32.2313 200.642 31.6767C200.601 30.5338 201.5 29.5667 202.643 29.5194C202.67 29.5194 202.697 29.5194 202.725 29.5194C203.252 29.5194 203.752 29.7155 204.138 30.0739C204.55 30.4526 204.78 30.9666 204.801 31.5212C204.828 32.0757 204.625 32.61 204.253 33.0157C203.867 33.4215 203.353 33.6582 202.799 33.6785Z" fill="#231F20"/>
<path d="M202.718 34.8348C201.9 34.8348 201.122 34.5237 200.527 33.9691C199.891 33.3875 199.526 32.5828 199.492 31.7171C199.431 29.9453 200.824 28.4371 202.603 28.3763C202.643 28.3695 202.691 28.3695 202.738 28.3695C203.543 28.3695 204.321 28.6738 204.923 29.2352C205.558 29.8235 205.923 30.6215 205.951 31.4804C205.984 32.3461 205.673 33.1644 205.092 33.8001C204.503 34.429 203.705 34.7942 202.84 34.828L202.718 34.8348ZM202.725 29.9655C201.764 29.9994 201.054 30.7636 201.095 31.663C201.102 32.1026 201.291 32.5016 201.609 32.7924C201.913 33.0832 202.305 33.2388 202.711 33.2388C202.731 33.2388 202.752 33.232 202.779 33.232C203.225 33.2185 203.624 33.0291 203.922 32.7113C204.212 32.3934 204.368 31.9741 204.354 31.5413C204.341 31.1085 204.158 30.7027 203.834 30.3984C203.529 30.1211 203.137 29.9655 202.725 29.9655Z" fill="#231F20"/>
<path d="M107.083 54.5417C107.052 54.5417 107.026 54.5417 106.995 54.5417C106.359 54.5261 105.714 54.3438 104.964 53.9688C104.193 53.5886 103.458 53.0677 102.708 52.3854C101.807 51.5625 101.047 50.6302 100.453 49.6146C100.104 49.0208 99.8594 48.4479 99.7031 47.8698C99.5729 47.3958 99.5208 46.974 99.5417 46.5729C99.5677 46.1042 99.6927 45.7188 99.9323 45.3906C100.141 45.099 102.109 43.2344 102.688 43.1406C102.781 43.125 102.839 43.0938 102.906 43.0365L107.453 39.1302L118.552 28.6198C119.917 27.3229 121.286 26.0261 122.646 24.7188C122.698 24.6719 122.75 24.6094 122.797 24.5365C123.516 23.4531 124.417 22.4271 125.563 21.4063C125.849 21.1511 126.172 21.1042 126.505 21.2708C126.693 21.3646 126.88 21.474 127.052 21.5886C127.292 21.5 127.583 21.5156 127.839 21.6615C128.036 21.7708 128.245 21.8958 128.422 22.0573C128.885 22.474 129.302 22.974 129.688 23.5781C129.932 23.9636 130.156 24.1875 130.464 24.3386C131.073 24.6458 131.589 25.0886 132.01 25.6458C132.38 26.1458 132.578 26.6511 132.604 27.1823C132.906 27.5052 133.167 27.7865 133.432 28.0625C133.495 28.1302 133.557 28.2136 133.615 28.3021C133.813 28.6354 133.802 28.8542 133.568 29.1719C132.979 29.9688 132.375 30.625 131.714 31.1719C131.521 31.3281 131.323 31.4844 131.125 31.6354C130.901 31.8073 130.677 31.974 130.464 32.1563C129.974 32.5677 129.542 32.9583 129.135 33.349C127.885 34.5365 126.641 35.7292 125.401 36.9219L114.286 47.599L110.641 51.3073C110.563 51.3854 110.547 51.4271 110.542 51.4844C110.484 52.1719 108.521 54.0938 108.042 54.3386C107.766 54.474 107.453 54.5417 107.083 54.5417ZM101.901 44.8125C101.406 45.2917 100.786 45.9219 100.698 46.0469C100.589 46.2292 100.536 46.4531 100.542 46.75C100.542 47.0573 100.599 47.3854 100.714 47.7552C100.922 48.4115 101.255 49.0677 101.734 49.7656C102.297 50.5833 102.974 51.3177 103.74 51.9583C104.479 52.5781 105.198 53.0208 105.932 53.3021C106.323 53.4531 106.646 53.5261 106.969 53.5417C107.219 53.5469 107.427 53.5208 107.594 53.4427C107.734 53.3542 108.448 52.6823 108.953 52.1563C108.719 52.1563 108.474 52.1458 108.214 52.099C107.625 51.9896 107.036 51.7708 106.417 51.4271C105.021 50.6406 103.849 49.5313 102.932 48.125C102.448 47.3698 102.135 46.6406 101.979 45.8906C101.901 45.4948 101.875 45.1406 101.901 44.8125ZM106.099 41.4896L103.307 44.0156C103.068 44.2344 102.938 44.5 102.917 44.8125C102.901 45.0365 102.906 45.2708 102.938 45.5104C102.984 45.9011 103.104 46.2969 103.313 46.724C104.146 48.4479 105.438 49.7761 107.146 50.6719C107.656 50.9427 108.135 51.0938 108.609 51.1406C109.099 51.1875 109.458 51.0729 109.771 50.7604C110.438 50.1042 111.12 49.4688 111.802 48.8281L112.365 48.3073C112.359 48.3073 112.349 48.3021 112.344 48.3021C111.74 48.2188 111.135 48.0052 110.505 47.6458C109.089 46.8542 107.927 45.7188 107.047 44.2813C106.609 43.5677 106.135 42.6354 106.099 41.4896ZM125.703 22.6563C125.052 23.2656 124.568 23.8021 124.172 24.3438L123.99 24.5938C123.62 25.1042 123.234 25.6354 122.708 26.0573L122.625 26.1354L108.62 39.4063C108.214 39.8021 107.802 40.1927 107.375 40.5729C107.214 40.7136 107.135 40.8646 107.12 41.0625C107.099 41.3281 107.104 41.5573 107.125 41.7604C107.177 42.2188 107.339 42.6927 107.62 43.2552C108.182 44.3698 109.01 45.3542 110.083 46.1823C110.698 46.6563 111.307 46.9844 111.948 47.1875C112.339 47.3125 112.693 47.3594 113.021 47.3333C113.109 47.3229 113.167 47.2969 113.234 47.2344C114.208 46.2917 115.182 45.3594 116.156 44.4219L128.708 32.3542C128.88 32.1823 129.052 32.0104 129.245 31.8542C129.625 31.5417 130.01 31.2396 130.401 30.9323L131.089 30.3906C131.521 30.0417 131.938 29.6198 132.375 29.0729C132.281 29.0365 132.193 29 132.104 28.9583L131.62 28.7865C129.573 30.6511 129.104 31.0104 128.729 31.2969L128.286 31.6458L127.635 30.9531L127.844 30.7448C128.135 30.4636 128.51 30.1458 128.911 29.8125C129.474 29.3438 130.099 28.8229 130.505 28.3594L129.688 27.5886C129.604 27.4896 129.526 27.3958 129.448 27.2917C129.385 27.2188 129.328 27.1406 129.266 27.0677C127.88 28.3021 127.214 28.9011 126.302 29.9219L126.104 30.1406L125.344 29.4948L125.552 29.2656C126.203 28.5313 126.885 27.9115 127.604 27.2552C127.911 26.974 128.224 26.6875 128.542 26.3854L128.448 26.3177C128.224 26.1511 128.005 25.9896 127.771 25.8438C127.5 25.6719 127.266 25.4583 127.036 25.1615C126.911 24.9948 126.807 24.8281 126.724 24.6563C126.328 24.9844 125.885 25.4583 125.458 25.9219C125.063 26.349 124.651 26.7865 124.281 27.1042L124.01 27.3386L123.505 26.5052L123.958 26.0156C124.646 25.2813 125.552 24.3073 126.286 23.7292C126.26 23.6927 126.229 23.6563 126.208 23.6146C126.052 23.3386 125.911 23.0573 125.766 22.7761L125.703 22.6563ZM102.698 43.7708L102.703 43.7813C102.708 43.7761 102.714 43.7656 102.719 43.7552C102.714 43.7604 102.708 43.7656 102.698 43.7708ZM126.719 22.4948C126.807 22.6615 126.906 22.8333 127.005 23.0052L127.068 23.1042C127.385 23.3438 127.552 23.6511 127.578 24C127.589 24.1563 127.646 24.3021 127.755 24.4531C127.917 24.6719 128.099 24.8854 128.339 25.0156C128.474 25.0886 128.604 25.1823 128.729 25.2708C129.245 25.6406 129.807 26.0833 130.25 26.6927C130.573 27.1302 130.995 27.5261 131.578 27.9323C131.672 27.9011 131.766 27.8854 131.854 27.8802C131.698 27.7292 131.542 27.5156 131.604 27.1771C131.609 27.1511 131.589 27.0729 131.578 27.0313C131.495 26.6927 131.354 26.4219 131.135 26.1563C130.771 25.7136 130.297 25.3542 129.682 25.0469C129.438 24.9219 129.25 24.7552 129.104 24.5156C128.797 24.0156 128.411 23.4427 127.911 22.9479C127.776 22.8125 127.609 22.6875 127.422 22.5677C127.438 22.5365 127.417 22.5521 127.37 22.5938L127.219 22.7344L126.719 22.4948ZM128.917 26.2969V26.3021L128.922 26.2969" fill="white"/>
</g>
<defs>
<clipPath id="clip0_46_1090">
<rect width="353" height="71" fill="white"/>
</clipPath>
</defs>
</svg>
