<svg width="240" height="55" viewBox="0 0 240 55" fill="none" xmlns="http://www.w3.org/2000/svg">
<g clip-path="url(#clip0_24_7054)">
<path d="M223.073 4.58333H64.8906C64.3073 1.57813 61.0469 0.4375 57.0729 0.4375C53.0781 0.4375 49.8021 1.39063 49.2448 4.58333H40V36.5781C40 46.2135 47.5677 54.0521 56.8646 54.0521H239.938V22.0573C239.938 12.4219 232.37 4.58333 223.073 4.58333ZM111.562 52.099H56.8646C48.6354 52.099 41.9427 45.1354 41.9427 36.5781V6.53646H49.25C49.8229 9.60417 53.0885 10.6771 57.0729 10.6771C61.0521 10.6771 64.3177 9.60417 64.8958 6.53646H111.984L124.354 29.901" fill="#EC6A5D"/>
<path d="M54.1042 6.27608V8.14067H53.1406V3.39587H55.5729C55.9844 3.39587 56.0469 3.54171 56.0469 3.80212V4.224H54.1042V5.44796H55.8958V5.93754C55.8958 6.15108 55.8021 6.27608 55.5417 6.27608" fill="white"/>
<path d="M58.6042 3.39587C59.8698 3.39587 60.4531 3.88025 60.4531 4.98962C60.4531 5.74483 60.0312 6.17712 59.5521 6.42712L60.5104 8.14067H59.7917C59.5156 8.14067 59.3594 8.04692 59.2292 7.80733L58.625 6.61983H57.9635V8.14067H57V4.00525C57 3.61983 57.2188 3.39587 57.6094 3.39587H58.6042ZM57.9635 5.82817H58.5521C59.1979 5.82817 59.4531 5.51046 59.4531 4.98962C59.4531 4.43233 59.2083 4.224 58.5677 4.224H57.9635" fill="white"/>
<path d="M19.7968 31.026C18.3229 33.2031 19.5781 36.0729 21.0989 37.526C22.4843 38.8489 23.5989 39.1614 23.7395 39.1979L24.4479 37.8385L26.4895 43.4479L20.7187 44.6302L21.4843 43.1979L20.7031 42.7604C18.276 41.1718 17.7604 39.0052 17.5937 38.3281C17.302 37.1666 16.8697 33.6875 19.7968 31.026Z" fill="#EC6A5D"/>
<path d="M19.7708 31.1198C20.8176 33.5312 23.901 34 25.9322 33.4792C27.7395 33.0208 28.5937 32.2708 28.7395 32.1354L28.7343 32.125L27.9583 30.7812L33.7655 32.0573L31.6614 37.5885L30.8853 36.1927L30.1249 36.6042C27.4895 37.8229 25.3958 37.1094 24.7395 36.8906C23.6093 36.5156 20.453 35.026 19.7708 31.1198Z" fill="#EC6A5D"/>
<path d="M30.0364 25.2865C29.6301 28.1771 27.901 29.5625 27.3645 30C26.4374 30.7552 23.4895 32.6198 19.8489 31.0885C22.4426 31.5052 24.4895 29.151 25.1562 27.1458C25.7551 25.3542 25.578 24.2135 25.5468 24.0417L25.526 24.0365L23.9843 23.9688L28.177 19.7344L31.6822 24.4948L30.1041 24.4062" fill="#EC6A5D"/>
<path d="M12.427 22.8489C11.0989 22.8489 10.026 21.7708 10.026 20.4375C10.026 19.1041 11.0989 18.026 12.427 18.026C13.75 18.026 14.8229 19.1041 14.8229 20.4375C14.8229 21.7708 13.75 22.8489 12.427 22.8489Z" fill="#EC6A5D"/>
<path d="M15.7031 13.4375C7.04687 13.4375 0 20.526 0 29.2344C0 37.9427 7.04687 45.026 15.7031 45.026C16.1667 45.026 16.625 44.9948 17.0729 44.9583L17.1823 46.5417L20.0521 43.75L16.8385 41.2812L16.9583 42.9479C16.5469 42.9844 16.125 43.0104 15.7031 43.0104C15.0365 43.0104 14.3854 42.9635 13.7448 42.8698L13.6823 42.4479L12.1875 29.6615C11.9844 27.25 13.3542 26.8646 14.2031 27.2292L18.9635 29.151C19.5104 29.3854 19.7708 28.9271 19.7708 28.9271C19.7708 28.9271 20.0781 28.4479 19.5312 28.0938C19.5312 28.0938 13.0365 23.7656 11.6562 23.5052C9.76562 23.151 7.89583 24.6875 7.48438 26.6927L5.18229 38.0469C3.19792 35.6562 2 32.5833 2 29.2344C2 21.6354 8.14583 15.4531 15.7031 15.4531C19.7396 15.4531 23.3698 17.2187 25.8802 20.0208L27.2865 18.5833C24.4167 15.4271 20.2865 13.4375 15.7031 13.4375ZM8.71354 34.5729C8.91667 34.0104 9.22396 34.0417 9.22396 34.0417C9.22396 34.0417 9.5 33.9844 9.65104 34.5521L11.8906 42.4688C10.026 41.9219 8.31771 40.9844 6.86979 39.7552" fill="#EC6A5D"/>
<path d="M183.182 28.7396C181.766 28.7396 180.969 28.1719 180.969 25.9688C180.969 23.75 181.766 23.1875 183.182 23.1875C184.589 23.1875 185.38 23.75 185.38 25.9688C185.38 28.1719 184.589 28.7396 183.182 28.7396ZM183.182 23.7031C182.141 23.7031 181.583 24.0573 181.583 25.9688C181.583 27.8698 182.141 28.224 183.182 28.224C184.208 28.224 184.76 27.8698 184.76 25.9688C184.76 24.0573 184.208 23.7031 183.182 23.7031Z" fill="white"/>
<path d="M186.552 26.7656V23.2916H186.865C187.062 23.2916 187.141 23.3854 187.141 23.6198V26.7552C187.141 27.5781 187.495 28.2239 188.588 28.2239C189.682 28.2239 190.031 27.5781 190.031 26.7552V23.6198C190.031 23.3854 190.12 23.2916 190.318 23.2916H190.62V26.7656C190.62 27.901 190.068 28.7395 188.588 28.7395C187.115 28.7395 186.552 27.901 186.552 26.7656Z" fill="white"/>
<path d="M220.781 14.2812L217.208 10.6823C216.51 9.98433 215.375 9.98433 214.677 10.6823L214.307 11.052C213.792 11.5729 213.661 12.3333 213.911 12.9791L208.078 14.8073C207.38 15.0468 206.88 15.4739 206.635 16.0416C206.521 16.3073 205.245 19.3385 205.24 19.3541C204.995 19.9739 205 20.5156 205.25 20.9583C205.385 21.1927 205.604 21.5573 205.771 21.8177L200.745 26.875L199.875 26C199.745 25.8698 199.547 25.8281 199.375 25.901C199.203 25.9739 199.089 26.1406 199.089 26.3281L199.094 30.7916C199.094 31.0468 199.302 31.2552 199.557 31.2552L203.99 31.2604C204.177 31.2604 204.344 31.1458 204.417 30.9739C204.49 30.7968 204.448 30.5989 204.318 30.4687L203.453 29.5989L206.615 26.4218V30.7239H205.385C205.203 30.7239 205.031 30.8333 204.964 31.0104C204.891 31.1823 204.927 31.3802 205.062 31.5156L208.203 34.6666C208.292 34.7552 208.406 34.802 208.526 34.802C208.646 34.802 208.766 34.7552 208.854 34.6666L211.995 31.5156C212.125 31.3802 212.167 31.1823 212.094 31.0104C212.021 30.8333 211.854 30.7239 211.667 30.7239H210.443V26.3802L213.646 29.5989L212.776 30.4739C212.646 30.6041 212.609 30.8073 212.677 30.9791C212.75 31.1562 212.922 31.2656 213.104 31.2656L217.542 31.2604C217.797 31.2604 218 31.052 218 30.7968L218.005 26.3385C218.005 26.1458 217.896 25.9791 217.724 25.9062C217.552 25.8333 217.349 25.8802 217.219 26.0104L216.354 26.875L213.906 24.4166C214.094 24.3437 214.266 24.2343 214.406 24.0833C214.667 23.8125 214.797 23.4531 214.786 23.0781L214.703 20.7812C215.312 20.5208 215.932 20.2291 216.385 19.9531C217.307 19.3854 217.823 18.3073 218.005 17.276C218.328 17.552 218.724 17.7187 219.151 17.7187C219.625 17.7187 220.078 17.5364 220.411 17.1927L220.781 16.8229C221.12 16.4843 221.307 16.0312 221.307 15.552C221.307 15.0729 221.12 14.6198 220.781 14.2812ZM209.521 20L208.875 19.3541C208.74 19.2187 208.552 19.2187 208.385 19.2864L208.411 19.2291C208.505 18.9948 208.687 18.5625 208.833 18.5104C208.979 18.4583 209.167 18.3958 209.344 18.3333C209.354 18.5989 209.385 18.8906 209.464 19.1198C209.542 19.3593 209.646 19.5625 209.734 19.7083L209.521 20ZM202.474 29.927L202.875 30.3281H200.016V27.4531L200.417 27.8593C200.599 28.0364 200.891 28.0364 201.068 27.8593L208.552 20.3385L208.964 20.7552L207.854 22.25C207.609 22.5781 207.505 22.9843 207.562 23.3906C207.594 23.5937 207.661 23.7864 207.76 23.9531L202.474 29.2708C202.385 29.3541 202.339 29.4739 202.339 29.5989C202.339 29.7239 202.385 29.8385 202.474 29.927ZM210.552 31.6458L208.526 33.6823L206.5 31.6458H207.073C207.328 31.6458 207.536 31.4427 207.536 31.1875V25.4948L208.458 24.5677C208.656 24.6562 208.865 24.7187 209.078 24.7187C209.156 24.7187 209.229 24.7135 209.302 24.7031C209.38 24.6927 209.448 24.651 209.521 24.625V31.1875C209.521 31.4427 209.729 31.6458 209.984 31.6458H210.552ZM216.677 27.8645L217.083 27.4583L217.078 30.3333L214.219 30.3385L214.625 29.927C214.802 29.75 214.802 29.4531 214.625 29.2708L210.443 25.0677V23.9218L211.156 22.9635L216.026 27.8645C216.208 28.0416 216.5 28.0416 216.677 27.8645ZM213.865 23.1093C213.87 23.2343 213.823 23.3593 213.734 23.4531C213.651 23.5416 213.531 23.5989 213.401 23.6041C213.151 23.6458 212.917 23.4062 212.906 23.1406L212.854 21.4635C213.089 21.3958 213.411 21.2864 213.792 21.1458L213.865 23.1093ZM215.906 19.1562C214.927 19.75 213.068 20.4531 212.51 20.5989C212.292 20.6562 211.536 20.9062 210.875 21.7864L209.573 23.5416C209.474 23.677 209.333 23.7604 209.172 23.7864C209.005 23.7968 208.849 23.7656 208.719 23.6666C208.589 23.5677 208.5 23.4218 208.479 23.2604C208.453 23.0989 208.495 22.9375 208.594 22.8073L210.682 19.9895C210.823 19.7968 210.812 19.5416 210.63 19.3854C210.625 19.3802 210.453 19.1718 210.339 18.8229C210.25 18.5625 210.255 18.0156 210.276 17.7291C210.286 17.5729 210.224 17.4218 210.104 17.3281C210.021 17.2604 209.922 17.2291 209.818 17.2291C209.771 17.2291 209.724 17.2343 209.677 17.25C209.677 17.25 208.937 17.4843 208.521 17.6354C207.99 17.8281 207.74 18.427 207.557 18.8698L207.464 19.0937C207.302 19.4583 207.281 19.9791 207.286 20.2864L206.437 21.1406C206.302 20.9218 206.151 20.6718 206.057 20.5052C205.948 20.3125 205.964 20.0416 206.094 19.7031C206.094 19.7031 207.365 16.6823 207.479 16.4166C207.62 16.0885 207.922 15.8437 208.37 15.6927L214.484 13.7708L216.521 15.8229L217.161 16.4687C217.151 17.4583 216.734 18.651 215.906 19.1562ZM220.13 16.1666L219.76 16.5364C219.432 16.8645 218.865 16.8645 218.536 16.5364L217.948 15.9427L214.958 12.9375C214.625 12.5937 214.625 12.0468 214.958 11.7083L215.328 11.3385C215.667 11 216.214 11 216.557 11.3385L220.13 14.9375C220.292 15.0989 220.385 15.3177 220.385 15.552C220.385 15.7864 220.292 16.0052 220.13 16.1666Z" fill="white"/>
<path d="M53.927 23.8385C53.1198 23.8385 52.7604 23.4167 52.7604 22.651V14.9844H55.9531C58.4843 14.9844 59.9479 16.2865 59.9479 19.2969C59.9479 22.0833 58.9739 23.8385 55.6354 23.8385H53.927ZM54.5729 22.3021H55.651C57.4479 22.3021 58.0937 21.4062 58.0937 19.3229C58.0937 17.0938 57.302 16.5312 55.9218 16.5312H54.5729" fill="#EC6A5D"/>
<path d="M65.0572 24.0104C62.4687 24.0104 61.1458 22.7656 61.1458 19.4219C61.1458 16.0677 62.4687 14.8125 65.0572 14.8125C67.6301 14.8125 68.9583 16.0677 68.9583 19.4219C68.9583 22.7656 67.6301 24.0104 65.0572 24.0104ZM65.0572 16.375C63.6926 16.375 63.0155 16.8177 63.0155 19.4219C63.0155 22.0104 63.6926 22.4479 65.0572 22.4479C66.3958 22.4479 67.0885 22.0104 67.0885 19.4219C67.0885 16.8177 66.3958 16.375 65.0572 16.375Z" fill="#EC6A5D"/>
<path d="M72.453 23.8385H70.6561V15.9687C70.6561 14.6093 72.1093 14.5781 72.5988 15.3177L76.1353 20.6822V15.7968C76.1353 15.2291 76.3228 14.9843 76.8957 14.9843H77.9322V22.7499C77.9322 24.1979 76.3801 24.3124 75.7915 23.4583L72.453 18.427" fill="#EC6A5D"/>
<path d="M82.0051 23.8385H80.2083V15.9687C80.2083 14.6093 81.6614 14.5781 82.151 15.3177L85.6874 20.6822V15.7968C85.6874 15.2291 85.8749 14.9843 86.4478 14.9843H87.4843V22.7499C87.4843 24.1979 85.9322 24.3124 85.3437 23.4583L82.0051 18.427" fill="#EC6A5D"/>
<path d="M94.2604 14.9844C95.0365 14.9844 95.1354 15.2604 95.1354 15.75V16.5312H91.4531V18.6562H94.8385V19.4688C94.8385 19.8698 94.6771 20.1042 94.1719 20.1042H91.4531V22.3021H95.2969V23.125C95.2969 23.6458 94.9948 23.8333 94.4062 23.8333H89.6562V14.9844" fill="#EC6A5D"/>
<path d="M103.25 14.9844V15.6615C103.25 16.1562 103.135 16.5312 102.745 17.0365L98.7343 22.3021H103.38V22.8542C103.38 23.401 103.151 23.8333 102.474 23.8333H96.5208V23.2865C96.5208 22.6927 96.6197 22.3177 96.9947 21.8229L101.036 16.5312H96.651V15.9948C96.651 15.375 97.0364 14.9844 97.7864 14.9844" fill="#EC6A5D"/>
<path d="M75.5728 33.2448C74.0676 33.2448 73.2186 32.6407 73.2186 30.2969C73.2186 27.9375 74.0676 27.3334 75.5728 27.3334C77.0728 27.3334 77.9113 27.9375 77.9113 30.2969C77.9113 32.6407 77.0728 33.2448 75.5728 33.2448ZM75.5728 27.8802C74.4634 27.8802 73.8749 28.2605 73.8749 30.2969C73.8749 32.3282 74.4634 32.698 75.5728 32.698C76.6665 32.698 77.2551 32.3282 77.2551 30.2969C77.2551 28.2605 76.6665 27.8802 75.5728 27.8802Z" fill="#EC6A5D"/>
<path d="M79.1614 31.1458V27.4479H79.4947C79.7083 27.4479 79.7916 27.5468 79.7916 27.802V31.1354C79.7916 32.0104 80.1718 32.6979 81.3333 32.6979C82.4999 32.6979 82.8697 32.0104 82.8697 31.1354V27.802C82.8697 27.5468 82.9635 27.4479 83.1718 27.4479H83.4999V31.1458C83.4999 32.3541 82.9062 33.25 81.3333 33.25C79.7655 33.25 79.1614 32.3541 79.1614 31.1458Z" fill="#EC6A5D"/>
<path d="M53.6562 36.6875C56.0156 36.6875 57.1093 37.5937 57.1093 39.6667C57.1093 41.0677 56.3177 41.875 55.427 42.3385L57.2083 45.5365H55.8698C55.3541 45.5365 55.0677 45.3646 54.8229 44.9167L53.7031 42.7031H52.4635V45.5365H50.6666V37.8281C50.6666 37.1042 51.0677 36.6875 51.802 36.6875H53.6562ZM52.4635 41.2292H53.5573C54.7656 41.2292 55.2395 40.6354 55.2395 39.6667C55.2395 38.625 54.7812 38.2344 53.5833 38.2344H52.4635" fill="#EC6A5D"/>
<path d="M63.453 36.6875C64.2291 36.6875 64.3333 36.9635 64.3333 37.4531V38.2344H60.6458V40.3594H64.0312V41.1719C64.0312 41.5729 63.8697 41.8073 63.3697 41.8073H60.6458V44.0052H64.4895V44.8281C64.4895 45.349 64.1874 45.5365 63.5989 45.5365H58.8489V36.6875" fill="#EC6A5D"/>
<path d="M71.7968 38.4062C71.3073 38.25 70.5729 38.0781 69.5937 38.0781C68.1875 38.0781 67.3802 38.7396 67.3802 41.0833C67.3802 43.4271 68.2135 44.151 69.7708 44.151C70.776 44.151 71.4062 43.9635 71.8958 43.8021V44.7396C71.8958 45.4792 70.8177 45.7083 69.5416 45.7083C67.1093 45.7083 65.526 44.4375 65.526 41.0833C65.526 37.6823 67.0208 36.5156 69.6823 36.5156C70.9635 36.5156 71.7968 36.7865 71.7968 37.5938" fill="#EC6A5D"/>
<path d="M73.8697 36.6875C74.3593 36.6875 74.6614 36.875 74.8489 37.25L76.5155 40.5885L78.0676 37.25C78.2395 36.8594 78.4843 36.6875 78.9583 36.6875H80.0989L77.2916 42.2083V45.5365H75.4947V42.2083L72.6301 36.6875" fill="#EC6A5D"/>
<path d="M87.1771 38.4062C86.6875 38.25 85.9531 38.0781 84.974 38.0781C83.5677 38.0781 82.7604 38.7396 82.7604 41.0833C82.7604 43.4271 83.5938 44.151 85.1458 44.151C86.1563 44.151 86.7865 43.9635 87.276 43.8021V44.7396C87.276 45.4792 86.1979 45.7083 84.9167 45.7083C82.4896 45.7083 80.9062 44.4375 80.9062 41.0833C80.9062 37.6823 82.401 36.5156 85.0625 36.5156C86.3385 36.5156 87.1771 36.7865 87.1771 37.5938" fill="#EC6A5D"/>
<path d="M94.2552 44.0052V44.7969C94.2552 45.3177 93.9062 45.5365 93.2864 45.5365H90.0833C89.276 45.5365 88.901 45.1146 88.901 44.3229V36.6875H90.7031V44.0052" fill="#EC6A5D"/>
<path d="M100.078 36.6875C100.854 36.6875 100.958 36.9635 100.958 37.4531V38.2344H97.276V40.3594H100.656V41.1719C100.656 41.5729 100.495 41.8073 99.9948 41.8073H97.276V44.0052H101.115V44.8281C101.115 45.349 100.812 45.5365 100.224 45.5365H95.4791V36.6875" fill="#EC6A5D"/>
<path d="M109.068 36.6875V37.3646C109.068 37.8542 108.953 38.2344 108.568 38.7396L104.552 44.0052H109.198V44.5521C109.198 45.1042 108.969 45.5365 108.292 45.5365H102.339V44.9844C102.339 44.3958 102.443 44.0208 102.812 43.526L106.854 38.2344H102.469V37.6979C102.469 37.0781 102.854 36.6875 103.604 36.6875" fill="#EC6A5D"/>
<path d="M128.771 45.5677H127.714V42.099C127.714 40.9219 128.208 40.1146 129.797 40.1146C131.396 40.1146 131.906 40.9219 131.906 42.099V45.5677H130.812V43.7917H128.771V45.5677ZM130.812 42.8959V42.0886C130.812 41.4115 130.562 41.0625 129.797 41.0625C129.031 41.0625 128.771 41.4115 128.771 42.0886V42.8959" fill="white"/>
<path d="M136.125 41.2605C135.906 41.1927 135.432 41.0625 134.901 41.0625C134.286 41.0625 133.953 41.2448 133.953 41.6719C133.953 42.5365 136.411 42.448 136.411 44.0625C136.411 45.0417 135.63 45.6719 134.38 45.6719C133.141 45.6719 132.802 45.3177 132.802 44.9271V44.448C133.208 44.5782 133.792 44.7292 134.432 44.7292C134.922 44.7292 135.208 44.5157 135.208 44.1511C135.208 43.3282 132.75 43.4636 132.75 41.7865C132.75 40.6667 133.599 40.1146 134.818 40.1146C135.536 40.1146 136.125 40.2657 136.125 40.7969" fill="white"/>
<path d="M140.302 41.2605C140.083 41.1927 139.609 41.0625 139.078 41.0625C138.458 41.0625 138.13 41.2448 138.13 41.6719C138.13 42.5365 140.588 42.448 140.588 44.0625C140.588 45.0417 139.807 45.6719 138.557 45.6719C137.318 45.6719 136.979 45.3177 136.979 44.9271V44.448C137.385 44.5782 137.963 44.7292 138.609 44.7292C139.094 44.7292 139.38 44.5157 139.38 44.1511C139.38 43.3282 136.927 43.4636 136.927 41.7865C136.927 40.6667 137.776 40.1146 138.99 40.1146C139.713 40.1146 140.302 40.2657 140.302 40.7969" fill="white"/>
<path d="M143.661 45.6719C142.099 45.6719 141.297 44.9167 141.297 42.9011C141.297 40.875 142.099 40.1146 143.661 40.1146C145.214 40.1146 146.016 40.875 146.016 42.9011C146.016 44.9167 145.214 45.6719 143.661 45.6719ZM143.661 41.0625C142.839 41.0625 142.427 41.3282 142.427 42.9011C142.427 44.4636 142.839 44.7292 143.661 44.7292C144.469 44.7292 144.885 44.4636 144.885 42.9011C144.885 41.3282 144.469 41.0625 143.661 41.0625Z" fill="white"/>
<path d="M150.521 41.2605C150.224 41.1667 149.781 41.0625 149.193 41.0625C148.339 41.0625 147.854 41.4636 147.854 42.875C147.854 44.2917 148.354 44.7292 149.297 44.7292C149.901 44.7292 150.286 44.6146 150.578 44.5157V45.0834C150.578 45.5313 149.927 45.6719 149.156 45.6719C147.687 45.6719 146.734 44.9011 146.734 42.875C146.734 40.823 147.635 40.1146 149.245 40.1146C150.016 40.1146 150.521 40.2813 150.521 40.7709" fill="white"/>
<path d="M151.562 45.5677H152.646V40.224H151.562V45.5677Z" fill="white"/>
<path d="M154.922 45.5677H153.865V42.099C153.865 40.9219 154.354 40.1146 155.943 40.1146C157.542 40.1146 158.057 40.9219 158.057 42.099V45.5677H156.958V43.7917H154.922V45.5677ZM156.958 42.8959V42.0886C156.958 41.4115 156.708 41.0625 155.943 41.0625C155.182 41.0625 154.922 41.4115 154.922 42.0886V42.8959" fill="white"/>
<path d="M162.906 40.224V40.6355C162.906 40.974 162.745 41.1927 162.365 41.1927H161.24V45.5677H160.156V41.1927H158.5V40.823C158.5 40.4375 158.672 40.224 159.125 40.224" fill="white"/>
<path d="M163.661 45.5677H164.75V40.224H163.661V45.5677Z" fill="white"/>
<path d="M168.135 45.6719C166.573 45.6719 165.771 44.9167 165.771 42.9011C165.771 40.875 166.573 40.1146 168.135 40.1146C169.687 40.1146 170.49 40.875 170.49 42.9011C170.49 44.9167 169.687 45.6719 168.135 45.6719ZM168.135 41.0625C167.312 41.0625 166.901 41.3282 166.901 42.9011C166.901 44.4636 167.312 44.7292 168.135 44.7292C168.943 44.7292 169.359 44.4636 169.359 42.9011C169.359 41.3282 168.943 41.0625 168.135 41.0625Z" fill="white"/>
<path d="M172.599 45.5677H171.51V40.8177C171.51 39.9948 172.391 39.9792 172.682 40.4219L174.818 43.6615V40.7083C174.818 40.3698 174.932 40.224 175.281 40.224H175.906V44.9115C175.906 45.7865 174.969 45.8542 174.609 45.3385L172.599 42.3021" fill="white"/>
<path d="M188.391 45.6042C187.906 45.6042 187.688 45.3542 187.688 44.8906V40.2656H189.615C191.146 40.2656 192.031 41.0469 192.031 42.8646C192.031 44.5469 191.437 45.6042 189.427 45.6042H188.391ZM188.781 44.6823H189.432C190.516 44.6823 190.906 44.1406 190.906 42.8802C190.906 41.5365 190.432 41.1979 189.599 41.1979H188.781" fill="white"/>
<path d="M195.771 40.2656C196.24 40.2656 196.302 40.427 196.302 40.7239V41.1979H194.078V42.4791H196.12V42.9687C196.12 43.2135 196.021 43.3541 195.719 43.3541H194.078V44.6823H196.396V45.177C196.396 45.4895 196.213 45.6041 195.854 45.6041H192.99V40.2656H195.771ZM195.849 38.2448L195.12 39.2343C194.953 39.4427 194.729 39.5468 194.427 39.5468H194.062L194.729 38.2448" fill="white"/>
<path d="M200.807 41.3021C200.51 41.2083 200.068 41.1042 199.479 41.1042C198.625 41.1042 198.141 41.5052 198.141 42.9167C198.141 44.3333 198.646 44.7708 199.583 44.7708C200.187 44.7708 200.573 44.6562 200.865 44.5625V45.125C200.865 45.5729 200.213 45.7135 199.443 45.7135C197.974 45.7135 197.021 44.9427 197.021 42.9167C197.021 40.8698 197.922 40.1562 199.531 40.1562C200.302 40.1562 200.807 40.3229 200.807 40.8125" fill="white"/>
<path d="M202.49 40.2656C202.844 40.2656 202.932 40.4115 202.932 40.75V42.4635H205.229V40.75C205.229 40.4115 205.344 40.2656 205.693 40.2656H206.318V45.6042H205.229V43.3906H202.932V45.6042H201.844V40.2656" fill="white"/>
<path d="M210.417 40.2656C210.885 40.2656 210.948 40.427 210.948 40.7239V41.1979H208.724V42.4791H210.766V42.9687C210.766 43.2135 210.667 43.3541 210.365 43.3541H208.724V44.6823H211.042V45.177C211.042 45.4895 210.859 45.6041 210.5 45.6041H207.635V40.2656H210.417ZM209.219 38.2448L209.885 39.5468H209.531C209.271 39.5468 209.047 39.4791 208.906 39.302L208.089 38.2448" fill="white"/>
<path d="M215.922 40.2656V40.6771C215.922 41.0156 215.755 41.2344 215.375 41.2344H214.255V45.6042H213.167V41.2344H211.51V40.8646C211.51 40.4792 211.682 40.2656 212.135 40.2656" fill="white"/>
<path d="M219.38 40.2656C219.849 40.2656 219.911 40.4271 219.911 40.724V41.1979H217.687V42.4792H219.729V42.9688C219.729 43.2135 219.635 43.3542 219.328 43.3542H217.687V44.6823H220.005V45.1771C220.005 45.4896 219.823 45.6042 219.469 45.6042H216.604V40.2656" fill="white"/>
<path d="M222.906 40.2656C224.333 40.2656 224.99 40.8125 224.99 42.0625C224.99 42.9115 224.516 43.401 223.974 43.6771L225.052 45.6042H224.245C223.932 45.6042 223.76 45.5052 223.609 45.2292L222.932 43.8958H222.187V45.6042H221.104V40.9531C221.104 40.5156 221.344 40.2656 221.786 40.2656H222.906ZM222.187 43.0052H222.849C223.573 43.0052 223.865 42.6458 223.865 42.0625C223.865 41.4323 223.583 41.1979 222.865 41.1979H222.187" fill="white"/>
<path d="M226.109 45.6042H227.193V40.2656H226.109V45.6042Z" fill="white"/>
<path d="M231.286 40.2656C231.755 40.2656 231.818 40.4271 231.818 40.724V41.1979H229.594V42.4792H231.63V42.9688C231.63 43.2135 231.536 43.3542 231.234 43.3542H229.594V44.6823H231.911V45.1771C231.911 45.4896 231.729 45.6042 231.37 45.6042H228.505V40.2656" fill="white"/>
<path d="M164.578 24.4688C163.875 23.5469 162.573 23.5677 161.714 24.0365L157.25 26.4271C157.266 26.2812 157.26 26.1771 157.26 26.151C157.224 24.9792 156.286 24.0625 155.12 24.0625H153.786C155.365 22.8021 157.323 20.8698 158.167 18.5312C158.906 16.4844 158.812 14.6406 157.906 13.3438C157.187 12.3073 155.969 11.6875 154.661 11.6875C152.896 11.6875 151.755 13.25 151.187 14.3125C150.615 13.25 149.474 11.6875 147.714 11.6875C146.401 11.6875 145.187 12.3021 144.464 13.3438C143.557 14.6406 143.469 16.4844 144.208 18.5312C145.052 20.875 147.01 22.8021 148.583 24.0625H142.417C142.089 23.6719 141.615 23.4115 141.068 23.4115H140.552C139.562 23.4115 138.76 24.2188 138.76 25.2083V32.1458C138.76 33.1406 139.562 33.9479 140.552 33.9479H141.068C141.745 33.9479 142.312 33.5573 142.615 32.9948L144.823 32.4896L153.266 34.5938C153.302 34.6042 153.339 34.6042 153.375 34.6042C153.469 34.6042 153.557 34.5781 153.63 34.526L164.198 27.4115C165.109 26.7083 165.281 25.3854 164.578 24.4688ZM145.073 18.2188C144.443 16.4583 144.495 14.9167 145.219 13.875C145.771 13.0833 146.703 12.6146 147.714 12.6146C149.672 12.6146 150.74 15.5469 150.75 15.5781C150.818 15.7604 150.99 15.8854 151.187 15.8854C151.38 15.8854 151.552 15.7604 151.62 15.5781C151.63 15.5469 152.698 12.6146 154.661 12.6146C155.672 12.6146 156.604 13.0833 157.151 13.875C157.88 14.9167 157.932 16.4583 157.297 18.2188C156.349 20.849 153.781 22.9792 152.26 24.0625H150.115C148.594 22.9844 146.026 20.8542 145.073 18.2188ZM141.068 33.0208H140.552C140.073 33.0208 139.682 32.6302 139.682 32.1458V25.2083C139.682 24.7292 140.073 24.3385 140.552 24.3385H141.068C141.323 24.3385 141.547 24.4531 141.703 24.625L141.771 32.6146C141.771 32.6198 141.776 32.625 141.776 32.625C141.615 32.8594 141.37 33.0208 141.068 33.0208ZM163.661 26.6615L153.286 33.6406L144.937 31.5625C144.901 31.5573 144.865 31.5521 144.828 31.5521C144.792 31.5521 144.76 31.5573 144.724 31.5625L142.859 31.9896V25.2083C142.859 25.1302 142.823 25.0677 142.818 24.9896H155.12C155.781 24.9896 156.318 25.5104 156.339 26.1875C156.339 26.1927 156.349 26.7083 156.036 27.0365C156 27.0729 155.964 27.1042 155.922 27.1354L155.708 27.25C155.557 27.3073 155.38 27.3385 155.172 27.3385H148.911V28.2656H155.172C155.661 28.2656 156.073 28.151 156.411 27.9271L162.156 24.8542C162.677 24.5625 163.474 24.5469 163.849 25.0312C164.24 25.5469 164.146 26.2865 163.661 26.6615Z" fill="white"/>
</g>
<defs>
<clipPath id="clip0_24_7054">
<rect width="240" height="55" fill="white"/>
</clipPath>
</defs>
</svg>
