<svg width="260" height="61" viewBox="0 0 260 61" fill="none" xmlns="http://www.w3.org/2000/svg">
<g clip-path="url(#clip0_66_2675)">
<path d="M24.6979 60.4688C11.0781 60.4688 0 49.5208 0 36.0625V0H234.948C248.563 0 259.641 10.9479 259.641 24.4062V60.4688" fill="white"/>
<path d="M222.083 52.9114H69.1353C59.6874 52.9114 51.9999 45.3541 51.9999 36.0625V7.55725H204.948C214.396 7.55725 222.083 15.1145 222.083 24.4062V52.9114ZM204.948 5.66663H50.1145V36.0625C50.1145 46.3958 58.6458 54.802 69.1353 54.802H223.969V24.4062C223.969 14.0729 215.437 5.66663 204.948 5.66663Z" fill="#333347"/>
<path d="M196.714 54.802L209.724 28.2239L196.432 5.66663H234.948C245.437 5.66663 253.969 14.0729 253.969 24.4062V54.802" fill="#333347"/>
<path d="M102.901 5.66663H50.1145V36.0625C50.1145 46.3958 58.6458 54.802 69.1353 54.802H121.927V24.4062C121.927 14.0729 113.391 5.66663 102.901 5.66663Z" fill="#333347"/>
<path d="M63.651 29.3594C58.8489 29.3594 54.9583 33.25 54.9583 38.0521C54.9583 42.8542 58.8489 46.7448 63.651 46.7448C68.4583 46.7448 72.3489 42.8542 72.3489 38.0521C72.3489 33.25 68.4583 29.3594 63.651 29.3594Z" fill="white"/>
<path d="M69.3229 39.4688H65.0729V43.7188H62.2344V39.4688H57.9844V36.6355H62.2344V32.3802H65.0729V36.6355H69.3229" fill="#1C1C1B"/>
<path d="M55.7864 26.5937V17.1979H58.2708V24.5156H61.828V26.5937" fill="white"/>
<path d="M62.9426 26.5937V17.1979H69.0155V19.276H65.4322V20.7552H68.4947V22.8385H65.4322V24.5156H69.1614V26.5937" fill="white"/>
<path d="M75.0885 26.5937V19.276H72.6041V17.1979H80.0677V19.276H77.5781V26.5937" fill="white"/>
<path d="M83.5521 21.4739H84.4479C85.4479 21.4739 85.9531 21.0625 85.9531 20.2343C85.9531 19.8281 85.8229 19.5468 85.5677 19.3958C85.3125 19.2395 84.9375 19.1614 84.4479 19.1614H83.5521V21.4739ZM81.0625 26.5989V17.1979H84.6198C85.125 17.1979 85.6042 17.2448 86.0625 17.3385C86.5208 17.4375 86.9167 17.5989 87.2604 17.8333C87.6042 18.0625 87.875 18.375 88.0781 18.7656C88.2813 19.1562 88.3802 19.6458 88.3802 20.2343C88.3802 20.9062 88.2448 21.4687 87.9688 21.9114C87.6979 22.3541 87.3281 22.6979 86.8646 22.9531L88.901 26.5989H86.125L84.5052 23.4427H83.5521V26.5989" fill="white"/>
<path d="M89.8698 26.5989H92.3593V17.1979H89.8698V26.5989Z" fill="white"/>
<path d="M75.3801 43.276V33.8698H81.5103V35.9531H77.8697V37.75H80.9895V39.8333H77.8697V43.276" fill="white"/>
<path d="M84.9218 38.7031L84.7604 39.3541H86.4948L86.3385 38.7031C86.2239 38.25 86.1041 37.7604 85.9895 37.2291C85.875 36.6979 85.7604 36.1979 85.6406 35.7239H85.5833C85.4791 36.2031 85.3698 36.7083 85.2604 37.2343C85.151 37.7604 85.0364 38.25 84.9218 38.7031ZM81.3073 43.276L84.1666 33.8698H87.1718L90.0364 43.276H87.4062L86.9427 41.276H84.3125L83.8489 43.276" fill="white"/>
<path d="M94.5624 43.4479C93.9687 43.4479 93.3958 43.3489 92.8541 43.151C92.3072 42.9531 91.8333 42.651 91.4218 42.2552C91.0103 41.8541 90.6822 41.3541 90.4426 40.75C90.203 40.1458 90.0833 39.4479 90.0833 38.6458C90.0833 37.8541 90.2083 37.151 90.4583 36.5416C90.7083 35.927 91.0416 35.4114 91.4635 34.9948C91.8801 34.5729 92.3645 34.25 92.9114 34.0312C93.4583 33.8073 94.026 33.6979 94.6249 33.6979C95.2499 33.6979 95.8124 33.8229 96.302 34.0677C96.7968 34.3125 97.2083 34.6041 97.5468 34.9427L96.2447 36.5312C96.0155 36.3333 95.776 36.1666 95.5312 36.0312C95.2812 35.9062 94.9999 35.8385 94.6822 35.8385C94.401 35.8385 94.1405 35.901 93.8958 36.026C93.651 36.151 93.4322 36.3333 93.2447 36.5625C93.0572 36.7916 92.9062 37.0781 92.7968 37.4166C92.6822 37.75 92.6301 38.1354 92.6301 38.5573C92.6301 39.4479 92.8124 40.125 93.1874 40.5989C93.5572 41.0677 94.0468 41.3073 94.651 41.3073C95.0208 41.3073 95.3437 41.2291 95.6301 41.0677C95.9114 40.9062 96.1562 40.7187 96.3593 40.4948L97.6614 42.0573C97.2551 42.5208 96.7916 42.8698 96.2655 43.0989C95.7395 43.3333 95.1718 43.4479 94.5624 43.4479Z" fill="white"/>
<path d="M98.6198 43.276H101.104V33.8698H98.6198V43.276Z" fill="white"/>
<path d="M102.875 43.276V33.8698H105.365V41.1927H108.922V43.276" fill="white"/>
<path d="M110.031 43.276V33.8698H116.109V35.9531H112.521V37.4323H115.589V39.5156H112.521V41.1927H116.255V43.276" fill="white"/>
<path d="M28.4062 25.7448C26.7135 28.2343 28.151 31.5104 29.8958 33.1718C31.4895 34.6823 32.7655 35.0364 32.9322 35.0781L33.7447 33.5208L36.0885 39.9323L29.4635 41.2812L30.3437 39.6458L29.4478 39.1458C26.6562 37.3281 26.0676 34.8593 25.8749 34.0885C25.5416 32.7604 25.0468 28.7864 28.4062 25.7448Z" fill="#333347"/>
<path d="M28.375 25.8489C29.5781 28.6093 33.1146 29.1406 35.4479 28.552C37.5208 28.026 38.5052 27.1718 38.6719 27.0156L38.6615 27L37.776 25.4635L44.4427 26.9218L42.0313 33.2395L41.1354 31.6458L40.2656 32.1198C37.2396 33.5104 34.8333 32.6927 34.0781 32.4427C32.7813 32.0156 29.1562 30.3125 28.375 25.8489Z" fill="#333347"/>
<path d="M40.1613 19.1927C39.6978 22.4895 37.7134 24.0729 37.0936 24.5729C36.0311 25.4375 32.6457 27.5677 28.4634 25.8177C31.4373 26.2916 33.7967 23.6041 34.5571 21.3177C35.2446 19.2656 35.0415 17.9687 34.9998 17.7708L34.979 17.7656L33.2134 17.6927L38.0259 12.8541L42.0519 18.2864L40.2342 18.1823" fill="#333347"/>
<path fill-rule="evenodd" clip-rule="evenodd" d="M19.9375 16.4115C18.4167 16.4115 17.1875 15.1823 17.1875 13.6563C17.1875 12.1354 18.4167 10.9062 19.9375 10.9062C21.4583 10.9062 22.6927 12.1354 22.6927 13.6563C22.6927 15.1823 21.4583 16.4115 19.9375 16.4115Z" fill="#333347"/>
<path d="M15.6771 29.7968C15.9115 29.151 16.2604 29.1927 16.2604 29.1927C16.2604 29.1927 16.5781 29.125 16.7552 29.7708L19.3281 38.8073C17.1823 38.1823 15.224 37.1198 13.5573 35.7083L15.6771 29.7968ZM23.7031 5.66663C13.7604 5.66663 5.67188 13.7552 5.67188 23.6979C5.67188 33.6406 13.7604 41.7291 23.7031 41.7291C24.2344 41.7291 24.7552 41.6979 25.276 41.651L25.3958 43.4635L28.6979 40.2708L25.0052 37.4531L25.1458 39.3541C24.6719 39.401 24.1875 39.4323 23.7031 39.4323C22.9375 39.4323 22.1875 39.375 21.4531 39.2656L21.3802 38.7864L19.6667 24.1875C19.4323 21.4323 21.0052 20.9948 21.9792 21.4062L27.4479 23.6041C28.0729 23.875 28.375 23.3489 28.375 23.3489C28.375 23.3489 28.7292 22.802 28.0938 22.3958C28.0938 22.3958 20.6406 17.4583 19.0521 17.1562C16.8854 16.7552 14.7396 18.5104 14.2656 20.7968L11.6198 33.7604C9.34375 31.0312 7.96875 27.5208 7.96875 23.6979C7.96875 15.0208 15.026 7.9635 23.7031 7.9635C28.3385 7.9635 32.5104 9.97913 35.3906 13.177L37.0052 11.5364C33.7083 7.93225 28.9635 5.66663 23.7031 5.66663Z" fill="#333347"/>
<path d="M133.26 21.324C133.26 20.7 133.184 20.248 133.032 19.968C132.888 19.68 132.62 19.536 132.228 19.536C132.012 19.536 131.832 19.596 131.688 19.716C131.552 19.828 131.444 20.016 131.364 20.28C131.284 20.536 131.228 20.876 131.196 21.3C131.164 21.716 131.148 22.228 131.148 22.836C131.148 23.484 131.168 24.008 131.208 24.408C131.256 24.808 131.324 25.12 131.412 25.344C131.508 25.56 131.624 25.708 131.76 25.788C131.904 25.86 132.068 25.896 132.252 25.896C132.404 25.896 132.544 25.872 132.672 25.824C132.808 25.768 132.924 25.664 133.02 25.512C133.116 25.352 133.192 25.132 133.248 24.852C133.304 24.564 133.332 24.188 133.332 23.724H135.06C135.06 24.188 135.024 24.628 134.952 25.044C134.88 25.46 134.744 25.824 134.544 26.136C134.352 26.448 134.076 26.692 133.716 26.868C133.364 27.044 132.904 27.132 132.336 27.132C131.688 27.132 131.172 27.028 130.788 26.82C130.404 26.612 130.108 26.312 129.9 25.92C129.7 25.528 129.568 25.06 129.504 24.516C129.448 23.972 129.42 23.372 129.42 22.716C129.42 22.068 129.448 21.472 129.504 20.928C129.568 20.376 129.7 19.904 129.9 19.512C130.108 19.12 130.404 18.816 130.788 18.6C131.172 18.376 131.688 18.264 132.336 18.264C132.952 18.264 133.436 18.364 133.788 18.564C134.148 18.764 134.416 19.02 134.592 19.332C134.768 19.636 134.876 19.968 134.916 20.328C134.964 20.68 134.988 21.012 134.988 21.324H133.26ZM139.621 23.772L138.793 19.92H138.769L137.941 23.772H139.621ZM139.849 18.432L142.117 27H140.317L139.921 25.188H137.641L137.245 27H135.445L137.713 18.432H139.849ZM144.261 22.716C144.261 23.292 144.273 23.784 144.297 24.192C144.329 24.592 144.385 24.92 144.465 25.176C144.553 25.424 144.673 25.608 144.825 25.728C144.985 25.84 145.193 25.896 145.449 25.896C145.705 25.896 145.909 25.84 146.061 25.728C146.221 25.608 146.341 25.424 146.421 25.176C146.509 24.92 146.565 24.592 146.589 24.192C146.621 23.784 146.637 23.292 146.637 22.716C146.637 22.14 146.621 21.652 146.589 21.252C146.565 20.852 146.509 20.524 146.421 20.268C146.341 20.012 146.221 19.828 146.061 19.716C145.909 19.596 145.705 19.536 145.449 19.536C145.193 19.536 144.985 19.596 144.825 19.716C144.673 19.828 144.553 20.012 144.465 20.268C144.385 20.524 144.329 20.852 144.297 21.252C144.273 21.652 144.261 22.14 144.261 22.716ZM142.533 22.716C142.533 22.068 142.561 21.472 142.617 20.928C142.681 20.376 142.813 19.904 143.013 19.512C143.221 19.12 143.517 18.816 143.901 18.6C144.285 18.376 144.801 18.264 145.449 18.264C146.097 18.264 146.613 18.376 146.997 18.6C147.381 18.816 147.673 19.12 147.873 19.512C148.081 19.904 148.213 20.376 148.269 20.928C148.333 21.472 148.365 22.068 148.365 22.716C148.365 23.372 148.333 23.972 148.269 24.516C148.213 25.06 148.081 25.528 147.873 25.92C147.673 26.312 147.381 26.612 146.997 26.82C146.613 27.028 146.097 27.132 145.449 27.132C144.801 27.132 144.285 27.028 143.901 26.82C143.517 26.612 143.221 26.312 143.013 25.92C142.813 25.528 142.681 25.06 142.617 24.516C142.561 23.972 142.533 23.372 142.533 22.716ZM151.001 18.432V24.408C151.001 24.624 151.013 24.824 151.037 25.008C151.069 25.184 151.121 25.34 151.193 25.476C151.273 25.604 151.377 25.708 151.505 25.788C151.641 25.86 151.809 25.896 152.009 25.896C152.217 25.896 152.385 25.86 152.513 25.788C152.641 25.708 152.741 25.604 152.813 25.476C152.893 25.34 152.945 25.184 152.969 25.008C153.001 24.824 153.017 24.624 153.017 24.408V18.432H154.745V24.408C154.745 24.952 154.669 25.404 154.517 25.764C154.365 26.116 154.161 26.396 153.905 26.604C153.649 26.812 153.357 26.952 153.029 27.024C152.701 27.096 152.361 27.132 152.009 27.132C151.657 27.132 151.317 27.1 150.989 27.036C150.661 26.972 150.369 26.844 150.113 26.652C149.857 26.452 149.653 26.172 149.501 25.812C149.349 25.452 149.273 24.984 149.273 24.408V18.432H151.001ZM160.854 18.432V19.848H158.982V27H157.254V19.848H155.382V18.432H160.854ZM165.264 21.324C165.264 20.7 165.188 20.248 165.036 19.968C164.892 19.68 164.624 19.536 164.232 19.536C164.016 19.536 163.836 19.596 163.692 19.716C163.556 19.828 163.448 20.016 163.368 20.28C163.288 20.536 163.232 20.876 163.2 21.3C163.168 21.716 163.152 22.228 163.152 22.836C163.152 23.484 163.172 24.008 163.212 24.408C163.26 24.808 163.328 25.12 163.416 25.344C163.512 25.56 163.628 25.708 163.764 25.788C163.908 25.86 164.072 25.896 164.256 25.896C164.408 25.896 164.548 25.872 164.676 25.824C164.812 25.768 164.928 25.664 165.024 25.512C165.12 25.352 165.196 25.132 165.252 24.852C165.308 24.564 165.336 24.188 165.336 23.724H167.064C167.064 24.188 167.028 24.628 166.956 25.044C166.884 25.46 166.748 25.824 166.548 26.136C166.356 26.448 166.08 26.692 165.72 26.868C165.368 27.044 164.908 27.132 164.34 27.132C163.692 27.132 163.176 27.028 162.792 26.82C162.408 26.612 162.112 26.312 161.904 25.92C161.704 25.528 161.572 25.06 161.508 24.516C161.452 23.972 161.424 23.372 161.424 22.716C161.424 22.068 161.452 21.472 161.508 20.928C161.572 20.376 161.704 19.904 161.904 19.512C162.112 19.12 162.408 18.816 162.792 18.6C163.176 18.376 163.692 18.264 164.34 18.264C164.956 18.264 165.44 18.364 165.792 18.564C166.152 18.764 166.42 19.02 166.596 19.332C166.772 19.636 166.88 19.968 166.92 20.328C166.968 20.68 166.992 21.012 166.992 21.324H165.264ZM168.049 18.432H169.777V21.708H171.793V18.432H173.521V27H171.793V23.196H169.777V27H168.049V18.432ZM176.265 22.716C176.265 23.292 176.277 23.784 176.301 24.192C176.333 24.592 176.389 24.92 176.469 25.176C176.557 25.424 176.677 25.608 176.829 25.728C176.989 25.84 177.197 25.896 177.453 25.896C177.709 25.896 177.913 25.84 178.065 25.728C178.225 25.608 178.345 25.424 178.425 25.176C178.513 24.92 178.569 24.592 178.593 24.192C178.625 23.784 178.641 23.292 178.641 22.716C178.641 22.14 178.625 21.652 178.593 21.252C178.569 20.852 178.513 20.524 178.425 20.268C178.345 20.012 178.225 19.828 178.065 19.716C177.913 19.596 177.709 19.536 177.453 19.536C177.197 19.536 176.989 19.596 176.829 19.716C176.677 19.828 176.557 20.012 176.469 20.268C176.389 20.524 176.333 20.852 176.301 21.252C176.277 21.652 176.265 22.14 176.265 22.716ZM174.537 22.716C174.537 22.068 174.565 21.472 174.621 20.928C174.685 20.376 174.817 19.904 175.017 19.512C175.225 19.12 175.521 18.816 175.905 18.6C176.289 18.376 176.805 18.264 177.453 18.264C178.101 18.264 178.617 18.376 179.001 18.6C179.385 18.816 179.677 19.12 179.877 19.512C180.085 19.904 180.217 20.376 180.273 20.928C180.337 21.472 180.369 22.068 180.369 22.716C180.369 23.372 180.337 23.972 180.273 24.516C180.217 25.06 180.085 25.528 179.877 25.92C179.677 26.312 179.385 26.612 179.001 26.82C178.617 27.028 178.101 27.132 177.453 27.132C176.805 27.132 176.289 27.028 175.905 26.82C175.521 26.612 175.225 26.312 175.017 25.92C174.817 25.528 174.685 25.06 174.621 24.516C174.565 23.972 174.537 23.372 174.537 22.716ZM183.005 18.432V24.408C183.005 24.624 183.017 24.824 183.041 25.008C183.073 25.184 183.125 25.34 183.197 25.476C183.277 25.604 183.381 25.708 183.509 25.788C183.645 25.86 183.813 25.896 184.013 25.896C184.221 25.896 184.389 25.86 184.517 25.788C184.645 25.708 184.745 25.604 184.817 25.476C184.897 25.34 184.949 25.184 184.973 25.008C185.005 24.824 185.021 24.624 185.021 24.408V18.432H186.749V24.408C186.749 24.952 186.673 25.404 186.521 25.764C186.369 26.116 186.165 26.396 185.909 26.604C185.653 26.812 185.361 26.952 185.033 27.024C184.705 27.096 184.365 27.132 184.013 27.132C183.661 27.132 183.321 27.1 182.993 27.036C182.665 26.972 182.373 26.844 182.117 26.652C181.861 26.452 181.657 26.172 181.505 25.812C181.353 25.452 181.277 24.984 181.277 24.408V18.432H183.005ZM191.502 21.324C191.502 20.7 191.426 20.248 191.274 19.968C191.13 19.68 190.862 19.536 190.47 19.536C190.254 19.536 190.074 19.596 189.93 19.716C189.794 19.828 189.686 20.016 189.606 20.28C189.526 20.536 189.47 20.876 189.438 21.3C189.406 21.716 189.39 22.228 189.39 22.836C189.39 23.484 189.41 24.008 189.45 24.408C189.498 24.808 189.566 25.12 189.654 25.344C189.75 25.56 189.866 25.708 190.002 25.788C190.146 25.86 190.31 25.896 190.494 25.896C190.646 25.896 190.786 25.872 190.914 25.824C191.05 25.768 191.166 25.664 191.262 25.512C191.358 25.352 191.434 25.132 191.49 24.852C191.546 24.564 191.574 24.188 191.574 23.724H193.302C193.302 24.188 193.266 24.628 193.194 25.044C193.122 25.46 192.986 25.824 192.786 26.136C192.594 26.448 192.318 26.692 191.958 26.868C191.606 27.044 191.146 27.132 190.578 27.132C189.93 27.132 189.414 27.028 189.03 26.82C188.646 26.612 188.35 26.312 188.142 25.92C187.942 25.528 187.81 25.06 187.746 24.516C187.69 23.972 187.662 23.372 187.662 22.716C187.662 22.068 187.69 21.472 187.746 20.928C187.81 20.376 187.942 19.904 188.142 19.512C188.35 19.12 188.646 18.816 189.03 18.6C189.414 18.376 189.93 18.264 190.578 18.264C191.194 18.264 191.678 18.364 192.03 18.564C192.39 18.764 192.658 19.02 192.834 19.332C193.01 19.636 193.118 19.968 193.158 20.328C193.206 20.68 193.23 21.012 193.23 21.324H191.502ZM132.552 33.432C132.304 33.888 132.092 34.332 131.916 34.764C131.74 35.188 131.596 35.616 131.484 36.048C131.38 36.48 131.304 36.924 131.256 37.38C131.208 37.828 131.184 38.308 131.184 38.82C131.184 39.332 131.208 39.816 131.256 40.272C131.304 40.72 131.38 41.156 131.484 41.58C131.596 41.996 131.74 42.416 131.916 42.84C132.092 43.272 132.304 43.716 132.552 44.172H131.28C130.68 43.228 130.248 42.312 129.984 41.424C129.728 40.536 129.6 39.668 129.6 38.82C129.6 37.972 129.728 37.1 129.984 36.204C130.248 35.3 130.68 34.376 131.28 33.432H132.552ZM133.151 33.432H134.879V36.708H136.895V33.432H138.623V42H136.895V38.196H134.879V42H133.151V33.432ZM141.367 37.716C141.367 38.292 141.379 38.784 141.403 39.192C141.435 39.592 141.491 39.92 141.571 40.176C141.659 40.424 141.779 40.608 141.931 40.728C142.091 40.84 142.299 40.896 142.555 40.896C142.811 40.896 143.015 40.84 143.167 40.728C143.327 40.608 143.447 40.424 143.527 40.176C143.615 39.92 143.671 39.592 143.695 39.192C143.727 38.784 143.743 38.292 143.743 37.716C143.743 37.14 143.727 36.652 143.695 36.252C143.671 35.852 143.615 35.524 143.527 35.268C143.447 35.012 143.327 34.828 143.167 34.716C143.015 34.596 142.811 34.536 142.555 34.536C142.299 34.536 142.091 34.596 141.931 34.716C141.779 34.828 141.659 35.012 141.571 35.268C141.491 35.524 141.435 35.852 141.403 36.252C141.379 36.652 141.367 37.14 141.367 37.716ZM139.639 37.716C139.639 37.068 139.667 36.472 139.723 35.928C139.787 35.376 139.919 34.904 140.119 34.512C140.327 34.12 140.623 33.816 141.007 33.6C141.391 33.376 141.907 33.264 142.555 33.264C143.203 33.264 143.719 33.376 144.103 33.6C144.487 33.816 144.779 34.12 144.979 34.512C145.187 34.904 145.319 35.376 145.375 35.928C145.439 36.472 145.471 37.068 145.471 37.716C145.471 38.372 145.439 38.972 145.375 39.516C145.319 40.06 145.187 40.528 144.979 40.92C144.779 41.312 144.487 41.612 144.103 41.82C143.719 42.028 143.203 42.132 142.555 42.132C141.907 42.132 141.391 42.028 141.007 41.82C140.623 41.612 140.327 41.312 140.119 40.92C139.919 40.528 139.787 40.06 139.723 39.516C139.667 38.972 139.639 38.372 139.639 37.716ZM146.487 33.432H149.679C150.399 33.432 150.959 33.616 151.359 33.984C151.759 34.344 151.959 34.896 151.959 35.64C151.959 36.216 151.843 36.688 151.611 37.056C151.379 37.416 151.019 37.648 150.531 37.752V37.776C150.963 37.84 151.279 37.98 151.479 38.196C151.679 38.412 151.803 38.76 151.851 39.24C151.867 39.4 151.879 39.576 151.887 39.768C151.895 39.952 151.903 40.16 151.911 40.392C151.927 40.848 151.951 41.196 151.983 41.436C152.031 41.676 152.135 41.84 152.295 41.928V42H150.423C150.335 41.88 150.279 41.744 150.255 41.592C150.231 41.432 150.215 41.268 150.207 41.1L150.159 39.456C150.143 39.12 150.059 38.856 149.907 38.664C149.755 38.472 149.499 38.376 149.139 38.376H148.215V42H146.487V33.432ZM148.215 37.176H148.935C149.351 37.176 149.671 37.08 149.895 36.888C150.119 36.688 150.231 36.356 150.231 35.892C150.231 35.1 149.831 34.704 149.031 34.704H148.215V37.176ZM154.547 39.324V39.576C154.547 39.776 154.563 39.96 154.595 40.128C154.627 40.288 154.687 40.424 154.775 40.536C154.863 40.648 154.979 40.736 155.123 40.8C155.275 40.864 155.463 40.896 155.687 40.896C155.951 40.896 156.187 40.812 156.395 40.644C156.611 40.468 156.719 40.2 156.719 39.84C156.719 39.648 156.691 39.484 156.635 39.348C156.587 39.204 156.503 39.076 156.383 38.964C156.263 38.852 156.103 38.752 155.903 38.664C155.711 38.568 155.471 38.472 155.183 38.376C154.799 38.248 154.467 38.108 154.187 37.956C153.907 37.804 153.671 37.628 153.479 37.428C153.295 37.22 153.159 36.984 153.071 36.72C152.983 36.448 152.939 36.136 152.939 35.784C152.939 34.936 153.175 34.304 153.647 33.888C154.119 33.472 154.767 33.264 155.591 33.264C155.975 33.264 156.327 33.308 156.647 33.396C156.975 33.476 157.255 33.612 157.487 33.804C157.727 33.988 157.911 34.228 158.039 34.524C158.175 34.812 158.243 35.16 158.243 35.568V35.808H156.587C156.587 35.4 156.515 35.088 156.371 34.872C156.227 34.648 155.987 34.536 155.651 34.536C155.459 34.536 155.299 34.564 155.171 34.62C155.043 34.676 154.939 34.752 154.859 34.848C154.787 34.936 154.735 35.04 154.703 35.16C154.679 35.28 154.667 35.404 154.667 35.532C154.667 35.796 154.723 36.02 154.835 36.204C154.947 36.38 155.187 36.544 155.555 36.696L156.887 37.272C157.215 37.416 157.483 37.568 157.691 37.728C157.899 37.88 158.063 38.048 158.183 38.232C158.311 38.408 158.399 38.604 158.447 38.82C158.495 39.036 158.519 39.276 158.519 39.54C158.519 40.444 158.255 41.104 157.727 41.52C157.207 41.928 156.479 42.132 155.543 42.132C154.567 42.132 153.867 41.92 153.443 41.496C153.027 41.072 152.819 40.464 152.819 39.672V39.324H154.547ZM163.988 37.308H164.756C165.1 37.308 165.376 37.204 165.584 36.996C165.8 36.788 165.908 36.464 165.908 36.024C165.908 35.592 165.816 35.264 165.632 35.04C165.448 34.816 165.14 34.704 164.708 34.704H163.988V37.308ZM162.26 33.432H165.284C165.724 33.432 166.092 33.508 166.388 33.66C166.692 33.804 166.936 33.996 167.12 34.236C167.304 34.476 167.436 34.752 167.516 35.064C167.596 35.368 167.636 35.68 167.636 36C167.636 36.44 167.568 36.824 167.432 37.152C167.304 37.48 167.12 37.748 166.88 37.956C166.648 38.164 166.364 38.32 166.028 38.424C165.692 38.528 165.32 38.58 164.912 38.58H163.988V42H162.26V33.432ZM170.475 33.432L172.563 39.3H172.587V33.432H174.171V42H172.203L170.091 36H170.067V42H168.483V33.432H170.475ZM180.161 33.432V34.848H177.101V36.864H179.981V38.28H177.101V40.584H180.281V42H175.373V33.432H180.161ZM182.771 33.432V39.408C182.771 39.624 182.783 39.824 182.807 40.008C182.839 40.184 182.891 40.34 182.963 40.476C183.043 40.604 183.147 40.708 183.275 40.788C183.411 40.86 183.579 40.896 183.779 40.896C183.987 40.896 184.155 40.86 184.283 40.788C184.411 40.708 184.511 40.604 184.583 40.476C184.663 40.34 184.715 40.184 184.739 40.008C184.771 39.824 184.787 39.624 184.787 39.408V33.432H186.515V39.408C186.515 39.952 186.439 40.404 186.287 40.764C186.135 41.116 185.931 41.396 185.675 41.604C185.419 41.812 185.127 41.952 184.799 42.024C184.471 42.096 184.131 42.132 183.779 42.132C183.427 42.132 183.087 42.1 182.759 42.036C182.431 41.972 182.139 41.844 181.883 41.652C181.627 41.452 181.423 41.172 181.271 40.812C181.119 40.452 181.043 39.984 181.043 39.408V33.432H182.771ZM189 39.324V39.576C189 39.776 189.016 39.96 189.048 40.128C189.08 40.288 189.14 40.424 189.228 40.536C189.316 40.648 189.432 40.736 189.576 40.8C189.728 40.864 189.916 40.896 190.14 40.896C190.404 40.896 190.64 40.812 190.848 40.644C191.064 40.468 191.172 40.2 191.172 39.84C191.172 39.648 191.144 39.484 191.088 39.348C191.04 39.204 190.956 39.076 190.836 38.964C190.716 38.852 190.556 38.752 190.356 38.664C190.164 38.568 189.924 38.472 189.636 38.376C189.252 38.248 188.92 38.108 188.64 37.956C188.36 37.804 188.124 37.628 187.932 37.428C187.748 37.22 187.612 36.984 187.524 36.72C187.436 36.448 187.392 36.136 187.392 35.784C187.392 34.936 187.628 34.304 188.1 33.888C188.572 33.472 189.22 33.264 190.044 33.264C190.428 33.264 190.78 33.308 191.1 33.396C191.428 33.476 191.708 33.612 191.94 33.804C192.18 33.988 192.364 34.228 192.492 34.524C192.628 34.812 192.696 35.16 192.696 35.568V35.808H191.04C191.04 35.4 190.968 35.088 190.824 34.872C190.68 34.648 190.44 34.536 190.104 34.536C189.912 34.536 189.752 34.564 189.624 34.62C189.496 34.676 189.392 34.752 189.312 34.848C189.24 34.936 189.188 35.04 189.156 35.16C189.132 35.28 189.12 35.404 189.12 35.532C189.12 35.796 189.176 36.02 189.288 36.204C189.4 36.38 189.64 36.544 190.008 36.696L191.34 37.272C191.668 37.416 191.936 37.568 192.144 37.728C192.352 37.88 192.516 38.048 192.636 38.232C192.764 38.408 192.852 38.604 192.9 38.82C192.948 39.036 192.972 39.276 192.972 39.54C192.972 40.444 192.708 41.104 192.18 41.52C191.66 41.928 190.932 42.132 189.996 42.132C189.02 42.132 188.32 41.92 187.896 41.496C187.48 41.072 187.272 40.464 187.272 39.672V39.324H189ZM194.502 33.432C195.102 34.376 195.53 35.3 195.786 36.204C196.05 37.1 196.182 37.972 196.182 38.82C196.182 39.668 196.05 40.536 195.786 41.424C195.53 42.312 195.102 43.228 194.502 44.172H193.23C193.478 43.716 193.69 43.272 193.866 42.84C194.042 42.416 194.182 41.996 194.286 41.58C194.398 41.156 194.478 40.72 194.526 40.272C194.574 39.816 194.598 39.332 194.598 38.82C194.598 38.308 194.574 37.828 194.526 37.38C194.478 36.924 194.398 36.48 194.286 36.048C194.182 35.616 194.042 35.188 193.866 34.764C193.69 34.332 193.478 33.888 193.23 33.432H194.502Z" fill="black"/>
<path d="M222.337 36.8405L216.602 36.8342C216.276 36.8342 216.006 36.5707 216.006 36.2444L216 30.5407C216 30.3023 216.144 30.0827 216.37 29.9948C216.59 29.9007 216.847 29.9509 217.016 30.1203L218.14 31.2372L227.803 21.6181C228.035 21.3923 228.411 21.3923 228.643 21.6181L231.304 24.2661C231.417 24.379 231.48 24.5233 231.48 24.6865C231.48 24.8433 231.417 24.9939 231.304 25.1069L221.641 34.7134L222.758 35.8303C222.927 35.9997 222.977 36.257 222.883 36.4766C222.795 36.6962 222.576 36.8405 222.337 36.8405ZM217.198 35.6483L220.894 35.6546L220.373 35.1338C220.141 34.9016 220.141 34.5252 220.373 34.293L230.036 24.6865L228.223 22.8794L218.56 32.4922C218.328 32.7243 217.951 32.7243 217.719 32.4922L217.192 31.9776" fill="white"/>
<path d="M234.473 28.2442C234.015 28.2442 233.575 28.0685 233.237 27.7547C232.885 27.4285 232.684 26.983 232.666 26.4998L232.578 23.7703L233.77 23.7327L233.858 26.4622C233.864 26.6253 233.933 26.7759 234.052 26.8888C234.171 27.0018 234.341 27.0457 234.498 27.0583C234.661 27.052 234.811 26.983 234.924 26.8637C235.037 26.7445 235.094 26.5877 235.088 26.4245L234.956 22.7852L236.148 22.7476L236.28 26.3806C236.299 26.8637 236.129 27.3218 235.797 27.6732C235.464 28.0246 235.019 28.2253 234.535 28.2379C234.51 28.2442 234.491 28.2442 234.473 28.2442Z" fill="white"/>
<path d="M234.473 28.2442C234.015 28.2442 233.575 28.0685 233.237 27.7547C232.885 27.4285 232.684 26.983 232.666 26.4998L232.578 23.7703L233.77 23.7327L233.858 26.4622C233.864 26.6253 233.933 26.7759 234.052 26.8888C234.171 27.0018 234.341 27.0457 234.498 27.0583C234.661 27.052 234.811 26.983 234.924 26.8637C235.037 26.7445 235.094 26.5877 235.088 26.4245L234.956 22.7852L236.148 22.7476L236.28 26.3806C236.299 26.8637 236.129 27.3218 235.797 27.6732C235.464 28.0246 235.019 28.2253 234.535 28.2379C234.51 28.2442 234.491 28.2442 234.473 28.2442Z" fill="white"/>
<path d="M232.063 28.6521C231.599 28.6521 231.166 28.4827 230.827 28.169C230.476 27.8364 230.269 27.3909 230.256 26.9078L230.168 24.1783L231.36 24.1406L231.448 26.8701C231.455 27.0395 231.524 27.1901 231.643 27.3031C231.762 27.416 231.919 27.485 232.082 27.4662C232.421 27.4537 232.691 27.1713 232.678 26.8325L232.546 23.1994L233.739 23.1555L233.87 26.7886C233.908 27.7862 233.124 28.6145 232.126 28.6521C232.101 28.6521 232.082 28.6521 232.063 28.6521Z" fill="white"/>
<path d="M234.115 36.8531C233.87 36.8531 233.651 36.7025 233.563 36.4829C233.469 36.2632 233.519 36.006 233.688 35.8366L234.811 34.7197L225.148 25.1069C224.916 24.881 224.916 24.5045 225.148 24.2723L227.803 21.6244C228.022 21.4048 228.424 21.4048 228.643 21.6244L238.733 31.6576L237.886 32.4984L228.223 22.8856L226.41 24.6927L236.073 34.2993C236.311 34.5314 236.311 34.9142 236.073 35.1401L235.552 35.6609H239.248L239.254 30.547H240.446L240.44 36.2507C240.44 36.577 240.176 36.8405 239.844 36.8405L234.115 36.8531Z" fill="white"/>
<path d="M228.198 41.3645C228.041 41.3645 227.891 41.308 227.771 41.1888L223.718 37.1668C223.548 36.9973 223.498 36.7401 223.586 36.5205C223.68 36.2946 223.9 36.1503 224.138 36.1503H225.726V25.1068C225.726 24.7806 225.989 24.5107 226.322 24.5107H230.08C230.407 24.5107 230.677 24.7806 230.677 25.1068V36.7464H229.484V25.7029H226.918V36.7464C226.918 37.0726 226.648 37.3362 226.322 37.3362H225.581L228.198 39.9339L231.831 36.326L232.678 37.1668L228.618 41.1888C228.499 41.308 228.349 41.3645 228.198 41.3645Z" fill="white"/>
<path d="M222.331 36.8405L216.602 36.8342C216.276 36.8342 216.006 36.5707 216.006 36.2444L216 30.5407C216 30.3023 216.144 30.0827 216.37 29.9948C216.59 29.9007 216.847 29.9509 217.016 30.1203L218.14 31.2372L227.803 21.6181C228.035 21.3923 228.411 21.3923 228.643 21.6181L231.304 24.2661C231.417 24.379 231.48 24.5233 231.48 24.6865C231.48 24.8433 231.417 24.9939 231.304 25.1069L221.214 35.1338L220.373 34.293L230.036 24.6865L228.223 22.8794L218.56 32.4922C218.328 32.7243 217.951 32.7243 217.719 32.4922L217.192 31.9776L217.198 35.6483L222.337 35.6546" fill="white"/>
<path d="M241.927 19.8236C241.494 19.8236 241.086 19.6542 240.779 19.353L235.182 13.7811C234.874 13.4799 234.705 13.0721 234.705 12.6454C234.705 12.2124 234.874 11.8109 235.175 11.5034L236.631 10.0539C237.246 9.45158 238.313 9.45158 238.928 10.0539L244.525 15.6259C245.158 16.2533 245.158 17.2761 244.525 17.9036L243.069 19.353C242.762 19.6542 242.36 19.8236 241.927 19.8236ZM237.779 10.7693C237.666 10.7693 237.56 10.8195 237.478 10.8948V10.901L236.023 12.3442C235.941 12.4258 235.897 12.5324 235.897 12.6454C235.897 12.7583 235.941 12.865 236.023 12.9403L241.62 18.5122C241.783 18.6754 242.065 18.6691 242.228 18.5122L243.684 17.069C243.847 16.8996 243.847 16.6298 243.678 16.4667L238.081 10.901C237.999 10.8195 237.892 10.7693 237.779 10.7693Z" fill="white"/>
<path d="M236 29.5L231.5 25.5L230.5 26.5L230 28.5L233 32.5L236 29.5Z" fill="#333347"/>
<path d="M234.115 36.8531C233.87 36.8531 233.651 36.7025 233.563 36.4829C233.469 36.2632 233.519 36.006 233.688 35.8366L234.811 34.7197L225.148 25.1069C224.916 24.881 224.916 24.5045 225.148 24.2723L227.803 21.6244C228.022 21.4048 228.424 21.4048 228.643 21.6244L238.313 31.2435L239.43 30.1266C239.599 29.9572 239.856 29.907 240.082 30.0011C240.302 30.089 240.446 30.3086 240.446 30.547L240.44 36.2507C240.44 36.577 240.176 36.8405 239.844 36.8405L234.115 36.8531ZM226.41 24.6927L236.073 34.2993C236.311 34.5314 236.311 34.9142 236.073 35.1401L235.552 35.6609H239.248L239.254 31.9839L238.733 32.4984C238.501 32.7306 238.125 32.7306 237.886 32.4984L228.223 22.8856" fill="white"/>
<path d="M224.5 37H226.5V25.5H230L230.5 37H231.5L228 41L224.5 37Z" fill="#333347"/>
<path d="M228.198 41.3645C228.041 41.3645 227.891 41.308 227.778 41.1888L223.718 37.1668C223.548 36.9973 223.498 36.7401 223.586 36.5205C223.68 36.2946 223.9 36.1503 224.138 36.1503H225.726V25.1068C225.726 24.7806 225.989 24.5107 226.322 24.5107H230.08C230.407 24.5107 230.677 24.7806 230.677 25.1068V36.1503H232.251C232.496 36.1503 232.716 36.2946 232.804 36.5205C232.898 36.7401 232.848 36.9973 232.678 37.1668L228.618 41.1888C228.499 41.308 228.349 41.3645 228.198 41.3645ZM225.581 37.3362L228.198 39.9339L230.815 37.3362H230.08C229.748 37.3362 229.484 37.0726 229.484 36.7464V25.7029H226.918V36.7464C226.918 37.0726 226.648 37.3362 226.322 37.3362" fill="white"/>
<path d="M230.501 22.0825L227.803 25.6841C227.345 26.2928 227.47 27.1587 228.085 27.6105C228.694 28.0685 229.566 27.943 230.024 27.3344L231.706 25.088C232.377 24.2096 233.13 23.8833 233.494 23.7892C234.303 23.5758 236.738 22.666 238.043 21.8817C239.342 21.0911 240.013 19.2589 239.944 17.6839L236.06 13.8187L227.815 16.3788C226.811 16.7176 226.447 17.2886 226.297 17.6275C226.146 17.9726 224.502 21.8378 224.502 21.8378C224.314 22.3209 224.207 22.8982 224.483 23.3876C224.759 23.877 225.387 24.8559 225.387 24.8559L227.2 23.0488C227.2 23.0488 227.131 22.0511 227.363 21.5366C227.602 21.0283 227.853 20.1812 228.392 19.9867C228.926 19.7985 229.861 19.4973 229.861 19.4973C229.861 19.4973 229.779 20.564 229.967 21.135C230.162 21.706 230.457 22.0448 230.457 22.0448" fill="#333347"/>
<path d="M228.913 28.4826C228.487 28.4826 228.072 28.3446 227.727 28.0873C227.301 27.7736 227.025 27.3093 226.949 26.7885C226.88 26.2677 227.012 25.7469 227.332 25.3265L229.76 22.0825C229.641 21.8879 229.509 21.637 229.403 21.3232C229.309 21.0283 229.265 20.6581 229.252 20.3255C229.02 20.4008 228.781 20.4824 228.593 20.5452C228.399 20.6142 228.167 21.1726 228.041 21.4675L227.909 21.7875C227.79 22.0385 227.771 22.6535 227.796 23.0111C227.809 23.1805 227.746 23.3499 227.627 23.4692L225.807 25.2763C225.682 25.4018 225.5 25.4645 225.324 25.4457C225.142 25.4269 224.985 25.3265 224.885 25.1759C224.885 25.1759 224.245 24.1782 223.963 23.6825C223.643 23.1115 223.636 22.415 223.95 21.6181C223.956 21.6056 225.6 17.7341 225.751 17.3953C226.071 16.6674 226.717 16.1215 227.621 15.8141L235.878 13.254C236.091 13.185 236.324 13.2414 236.481 13.3983L240.371 17.2698C240.477 17.3765 240.534 17.5145 240.54 17.6651C240.609 19.2651 239.95 21.4236 238.35 22.3836C236.995 23.2056 234.535 24.128 233.644 24.3664C233.513 24.3978 232.822 24.6112 232.182 25.4457L230.501 27.692C230.181 28.1124 229.723 28.3885 229.196 28.4638C229.102 28.4764 229.007 28.4826 228.913 28.4826ZM229.867 18.9075C229.999 18.9075 230.131 18.9514 230.231 19.033C230.388 19.1585 230.476 19.3467 230.457 19.5475C230.432 19.9114 230.425 20.6142 230.538 20.9467C230.683 21.3922 230.909 21.6621 230.915 21.6621C231.147 21.8628 231.166 22.1891 230.978 22.4401L228.286 26.0355C228.154 26.2049 228.104 26.412 228.135 26.619C228.16 26.8261 228.273 27.0144 228.443 27.1336C228.612 27.2653 228.819 27.3093 229.026 27.2904C229.233 27.2591 229.422 27.1461 229.547 26.983L231.229 24.7304C232.088 23.6135 233.061 23.2872 233.343 23.2182C234.058 23.0299 236.468 22.1389 237.729 21.3734C238.802 20.7271 239.342 19.2024 239.354 17.9349L235.891 14.4964L227.991 16.9435C227.42 17.138 227.025 17.4517 226.843 17.8659C226.692 18.211 225.054 22.0699 225.054 22.0699C224.885 22.5029 224.866 22.8542 225.004 23.0927C225.123 23.3123 225.318 23.626 225.494 23.9084L226.598 22.8166C226.592 22.4276 226.61 21.7562 226.824 21.2918L226.943 21.0158C227.175 20.451 227.501 19.673 228.192 19.4283C228.731 19.24 229.679 18.9326 229.679 18.9326C229.742 18.9137 229.804 18.9075 229.867 18.9075Z" fill="white"/>
<path d="M214.369 44.7H215.881C216.373 44.7 216.742 44.832 216.988 45.096C217.234 45.36 217.357 45.747 217.357 46.257V49.443C217.357 49.953 217.234 50.34 216.988 50.604C216.742 50.868 216.373 51 215.881 51H214.369V44.7ZM215.863 50.1C216.025 50.1 216.148 50.052 216.232 49.956C216.322 49.86 216.367 49.704 216.367 49.488V46.212C216.367 45.996 216.322 45.84 216.232 45.744C216.148 45.648 216.025 45.6 215.863 45.6H215.359V50.1H215.863ZM218.025 44.7H220.725V45.6H219.015V47.265H220.374V48.165H219.015V50.1H220.725V51H218.025V44.7ZM219.465 43.242H220.545L219.582 44.277H218.835L219.465 43.242ZM222.69 51.09C222.216 51.09 221.853 50.955 221.601 50.685C221.355 50.415 221.232 50.034 221.232 49.542V46.158C221.232 45.666 221.355 45.285 221.601 45.015C221.853 44.745 222.216 44.61 222.69 44.61C223.164 44.61 223.524 44.745 223.77 45.015C224.022 45.285 224.148 45.666 224.148 46.158V46.824H223.212V46.095C223.212 45.705 223.047 45.51 222.717 45.51C222.387 45.51 222.222 45.705 222.222 46.095V49.614C222.222 49.998 222.387 50.19 222.717 50.19C223.047 50.19 223.212 49.998 223.212 49.614V48.651H224.148V49.542C224.148 50.034 224.022 50.415 223.77 50.685C223.524 50.955 223.164 51.09 222.69 51.09ZM224.74 44.7H225.73V47.265H226.792V44.7H227.782V51H226.792V48.165H225.73V51H224.74V44.7ZM228.519 44.7H231.219V45.6H229.509V47.265H230.868V48.165H229.509V50.1H231.219V51H228.519V44.7ZM228.699 43.242H229.779L230.409 44.277H229.662L228.699 43.242ZM232.563 45.6H231.528V44.7H234.588V45.6H233.553V51H232.563V45.6ZM235.067 44.7H237.767V45.6H236.057V47.265H237.416V48.165H236.057V50.1H237.767V51H235.067V44.7ZM238.337 44.7H239.804C240.314 44.7 240.686 44.82 240.92 45.06C241.154 45.294 241.271 45.657 241.271 46.149V46.536C241.271 47.19 241.055 47.604 240.623 47.778V47.796C240.863 47.868 241.031 48.015 241.127 48.237C241.229 48.459 241.28 48.756 241.28 49.128V50.235C241.28 50.415 241.286 50.562 241.298 50.676C241.31 50.784 241.34 50.892 241.388 51H240.38C240.344 50.898 240.32 50.802 240.308 50.712C240.296 50.622 240.29 50.46 240.29 50.226V49.074C240.29 48.786 240.242 48.585 240.146 48.471C240.056 48.357 239.897 48.3 239.669 48.3H239.327V51H238.337V44.7ZM239.687 47.4C239.885 47.4 240.032 47.349 240.128 47.247C240.23 47.145 240.281 46.974 240.281 46.734V46.248C240.281 46.02 240.239 45.855 240.155 45.753C240.077 45.651 239.951 45.6 239.777 45.6H239.327V47.4H239.687ZM241.967 44.7H242.957V51H241.967V44.7ZM243.698 44.7H246.398V45.6H244.688V47.265H246.047V48.165H244.688V50.1H246.398V51H243.698V44.7Z" fill="white"/>
</g>
<defs>
<clipPath id="clip0_66_2675">
<rect width="260" height="61" fill="white"/>
</clipPath>
</defs>
</svg>
