<svg width="260" height="61" viewBox="0 0 260 61" fill="none" xmlns="http://www.w3.org/2000/svg">
<g clip-path="url(#clip0_66_4207)">
<path d="M24.6979 60.4688C11.0781 60.4688 0 49.5208 0 36.0625V0H234.948C248.563 0 259.641 10.9479 259.641 24.4062V60.4688" fill="white"/>
<path d="M222.083 52.9114H69.1353C59.6874 52.9114 51.9999 45.3541 51.9999 36.0625V7.55725H204.948C214.396 7.55725 222.083 15.1145 222.083 24.4062V52.9114ZM204.948 5.66663H50.1145V36.0625C50.1145 46.3958 58.6458 54.802 69.1353 54.802H223.969V24.4062C223.969 14.0729 215.437 5.66663 204.948 5.66663Z" fill="#6B5B4A"/>
<path d="M196.714 54.802L209.724 28.2239L196.432 5.66663H234.948C245.437 5.66663 253.969 14.0729 253.969 24.4062V54.802" fill="#6B5B4A"/>
<path d="M102.901 5.66663H50.1145V36.0625C50.1145 46.3958 58.6458 54.802 69.1353 54.802H121.927V24.4062C121.927 14.0729 113.391 5.66663 102.901 5.66663Z" fill="#6B5B4A"/>
<path d="M63.651 29.3594C58.8489 29.3594 54.9583 33.25 54.9583 38.0521C54.9583 42.8542 58.8489 46.7448 63.651 46.7448C68.4583 46.7448 72.3489 42.8542 72.3489 38.0521C72.3489 33.25 68.4583 29.3594 63.651 29.3594Z" fill="white"/>
<path d="M69.3229 39.4688H65.0729V43.7188H62.2344V39.4688H57.9844V36.6355H62.2344V32.3802H65.0729V36.6355H69.3229" fill="#1C1C1B"/>
<path d="M55.7864 26.5937V17.1979H58.2708V24.5156H61.828V26.5937" fill="white"/>
<path d="M62.9426 26.5937V17.1979H69.0155V19.276H65.4322V20.7552H68.4947V22.8385H65.4322V24.5156H69.1614V26.5937" fill="white"/>
<path d="M75.0885 26.5937V19.276H72.6041V17.1979H80.0677V19.276H77.5781V26.5937" fill="white"/>
<path d="M83.5521 21.4739H84.4479C85.4479 21.4739 85.9531 21.0625 85.9531 20.2343C85.9531 19.8281 85.8229 19.5468 85.5677 19.3958C85.3125 19.2395 84.9375 19.1614 84.4479 19.1614H83.5521V21.4739ZM81.0625 26.5989V17.1979H84.6198C85.125 17.1979 85.6042 17.2448 86.0625 17.3385C86.5208 17.4375 86.9167 17.5989 87.2604 17.8333C87.6042 18.0625 87.875 18.375 88.0781 18.7656C88.2813 19.1562 88.3802 19.6458 88.3802 20.2343C88.3802 20.9062 88.2448 21.4687 87.9688 21.9114C87.6979 22.3541 87.3281 22.6979 86.8646 22.9531L88.901 26.5989H86.125L84.5052 23.4427H83.5521V26.5989" fill="white"/>
<path d="M89.8698 26.5989H92.3593V17.1979H89.8698V26.5989Z" fill="white"/>
<path d="M75.3801 43.276V33.8698H81.5103V35.9531H77.8697V37.75H80.9895V39.8333H77.8697V43.276" fill="white"/>
<path d="M84.9218 38.7031L84.7604 39.3541H86.4948L86.3385 38.7031C86.2239 38.25 86.1041 37.7604 85.9895 37.2291C85.875 36.6979 85.7604 36.1979 85.6406 35.7239H85.5833C85.4791 36.2031 85.3698 36.7083 85.2604 37.2343C85.151 37.7604 85.0364 38.25 84.9218 38.7031ZM81.3073 43.276L84.1666 33.8698H87.1718L90.0364 43.276H87.4062L86.9427 41.276H84.3125L83.8489 43.276" fill="white"/>
<path d="M94.5624 43.4479C93.9687 43.4479 93.3958 43.3489 92.8541 43.151C92.3072 42.9531 91.8333 42.651 91.4218 42.2552C91.0103 41.8541 90.6822 41.3541 90.4426 40.75C90.203 40.1458 90.0833 39.4479 90.0833 38.6458C90.0833 37.8541 90.2083 37.151 90.4583 36.5416C90.7083 35.927 91.0416 35.4114 91.4635 34.9948C91.8801 34.5729 92.3645 34.25 92.9114 34.0312C93.4583 33.8073 94.026 33.6979 94.6249 33.6979C95.2499 33.6979 95.8124 33.8229 96.302 34.0677C96.7968 34.3125 97.2083 34.6041 97.5468 34.9427L96.2447 36.5312C96.0155 36.3333 95.776 36.1666 95.5312 36.0312C95.2812 35.9062 94.9999 35.8385 94.6822 35.8385C94.401 35.8385 94.1405 35.901 93.8958 36.026C93.651 36.151 93.4322 36.3333 93.2447 36.5625C93.0572 36.7916 92.9062 37.0781 92.7968 37.4166C92.6822 37.75 92.6301 38.1354 92.6301 38.5573C92.6301 39.4479 92.8124 40.125 93.1874 40.5989C93.5572 41.0677 94.0468 41.3073 94.651 41.3073C95.0208 41.3073 95.3437 41.2291 95.6301 41.0677C95.9114 40.9062 96.1562 40.7187 96.3593 40.4948L97.6614 42.0573C97.2551 42.5208 96.7916 42.8698 96.2655 43.0989C95.7395 43.3333 95.1718 43.4479 94.5624 43.4479Z" fill="white"/>
<path d="M98.6198 43.276H101.104V33.8698H98.6198V43.276Z" fill="white"/>
<path d="M102.875 43.276V33.8698H105.365V41.1927H108.922V43.276" fill="white"/>
<path d="M110.031 43.276V33.8698H116.109V35.9531H112.521V37.4323H115.589V39.5156H112.521V41.1927H116.255V43.276" fill="white"/>
<path d="M28.4062 25.7448C26.7135 28.2343 28.151 31.5104 29.8958 33.1718C31.4895 34.6823 32.7655 35.0364 32.9322 35.0781L33.7447 33.5208L36.0885 39.9323L29.4635 41.2812L30.3437 39.6458L29.4478 39.1458C26.6562 37.3281 26.0676 34.8593 25.8749 34.0885C25.5416 32.7604 25.0468 28.7864 28.4062 25.7448Z" fill="#6B5B4A"/>
<path d="M28.375 25.8489C29.5781 28.6093 33.1146 29.1406 35.4479 28.552C37.5208 28.026 38.5052 27.1718 38.6719 27.0156L38.6615 27L37.776 25.4635L44.4427 26.9218L42.0313 33.2395L41.1354 31.6458L40.2656 32.1198C37.2396 33.5104 34.8333 32.6927 34.0781 32.4427C32.7813 32.0156 29.1562 30.3125 28.375 25.8489Z" fill="#6B5B4A"/>
<path d="M40.1613 19.1927C39.6978 22.4895 37.7134 24.0729 37.0936 24.5729C36.0311 25.4375 32.6457 27.5677 28.4634 25.8177C31.4373 26.2916 33.7967 23.6041 34.5571 21.3177C35.2446 19.2656 35.0415 17.9687 34.9998 17.7708L34.979 17.7656L33.2134 17.6927L38.0259 12.8541L42.0519 18.2864L40.2342 18.1823" fill="#6B5B4A"/>
<path fill-rule="evenodd" clip-rule="evenodd" d="M19.9375 16.4115C18.4167 16.4115 17.1875 15.1823 17.1875 13.6563C17.1875 12.1354 18.4167 10.9062 19.9375 10.9062C21.4583 10.9062 22.6927 12.1354 22.6927 13.6563C22.6927 15.1823 21.4583 16.4115 19.9375 16.4115Z" fill="#6B5B4A"/>
<path d="M15.6771 29.7968C15.9115 29.151 16.2604 29.1927 16.2604 29.1927C16.2604 29.1927 16.5781 29.125 16.7552 29.7708L19.3281 38.8073C17.1823 38.1823 15.224 37.1198 13.5573 35.7083L15.6771 29.7968ZM23.7031 5.66663C13.7604 5.66663 5.67188 13.7552 5.67188 23.6979C5.67188 33.6406 13.7604 41.7291 23.7031 41.7291C24.2344 41.7291 24.7552 41.6979 25.276 41.651L25.3958 43.4635L28.6979 40.2708L25.0052 37.4531L25.1458 39.3541C24.6719 39.401 24.1875 39.4323 23.7031 39.4323C22.9375 39.4323 22.1875 39.375 21.4531 39.2656L21.3802 38.7864L19.6667 24.1875C19.4323 21.4323 21.0052 20.9948 21.9792 21.4062L27.4479 23.6041C28.0729 23.875 28.375 23.3489 28.375 23.3489C28.375 23.3489 28.7292 22.802 28.0938 22.3958C28.0938 22.3958 20.6406 17.4583 19.0521 17.1562C16.8854 16.7552 14.7396 18.5104 14.2656 20.7968L11.6198 33.7604C9.34375 31.0312 7.96875 27.5208 7.96875 23.6979C7.96875 15.0208 15.026 7.9635 23.7031 7.9635C28.3385 7.9635 32.5104 9.97913 35.3906 13.177L37.0052 11.5364C33.7083 7.93225 28.9635 5.66663 23.7031 5.66663Z" fill="#6B5B4A"/>
<path fill-rule="evenodd" clip-rule="evenodd" d="M225.184 13.5477C222.848 13.829 220.995 15.7189 220.697 18.1033L220.693 18.1036L220.569 18.8693C220.562 18.8856 220.558 18.9007 220.558 18.914C220.554 18.9403 220.549 18.9665 220.545 18.9927C220.517 19.164 220.489 19.3314 220.515 19.5044L220.513 21.0954C217.452 24.2948 216.633 27.1159 217.139 29.2647C217.309 29.9622 217.62 30.6156 218.051 31.1832C218.482 31.7508 219.024 32.2202 219.642 32.5614C219.922 32.7258 220.213 32.8682 220.513 32.9874L220.511 34.7847L220.513 34.8477C220.49 35.4096 220.562 35.9713 220.728 36.5076C220.955 37.0944 221.311 37.6198 221.769 38.0432C222.048 38.3281 222.352 38.5852 222.679 38.8111C223.03 39.056 223.399 39.2719 223.783 39.4567C225.887 40.4919 228.644 41.0038 231.334 41C234.024 40.9962 236.734 40.4594 238.81 39.4032C239.316 39.1492 239.791 38.8357 240.226 38.4692C240.646 38.115 241.01 37.6961 241.304 37.2276C241.888 36.2837 241.886 35.9049 241.883 35.0104L241.882 35.0005L241.886 20.0602C241.956 19.8477 241.995 19.6255 242 19.4012C242 19.1676 241.963 18.942 241.893 18.7249C241.348 16.0509 239.424 14.0935 236.857 13.6116C235.861 11.4138 233.535 10 231.006 10C228.502 10 226.195 11.3865 225.184 13.5477ZM231.245 22.4255C227.72 22.4255 224.58 21.643 222.551 20.4235C222.188 19.5805 222.237 18.5859 222.269 18.2929C222.501 16.5087 223.988 15.1323 225.789 15.1323C225.966 15.1323 226.14 15.1455 226.309 15.1711C226.711 13.1523 228.661 11.6207 231.006 11.6207C233.336 11.6207 235.276 13.1331 235.695 15.1331C235.723 15.1326 235.75 15.1323 235.778 15.1323C238.041 15.1323 240.03 16.9544 240.478 19.3712C240.47 19.8542 240.363 20.1051 240.276 20.2103C238.268 21.5511 234.971 22.4255 231.245 22.4255ZM218.668 28.8903C218.352 27.5052 218.811 25.6874 220.508 23.5283L220.506 31.2072L220.426 31.1594C219.996 30.9258 219.618 30.6036 219.315 30.2131C219.013 29.8226 218.793 29.3722 218.668 28.8903ZM240.224 21.9951C239.664 22.3566 239.068 22.6569 238.447 22.8909C236.551 23.6243 233.985 24.0942 231.196 24.0961C228.758 24.1265 226.334 23.6966 224.048 22.8278C223.386 22.5663 222.756 22.2272 222.17 21.8174L222.168 31.7898C222.702 31.8871 223.246 31.9179 223.787 31.8814C226.341 31.7229 229.114 30.128 230.476 26.6441C230.556 26.4477 230.709 26.2916 230.901 26.2096C231.093 26.1276 231.309 26.1262 231.502 26.2057C231.694 26.2853 231.849 26.4394 231.932 26.6348C232.015 26.8301 232.019 27.051 231.944 27.2496C230.321 31.3982 226.973 33.3025 223.876 33.505C223.304 33.5419 222.729 33.5188 222.16 33.4362L222.168 34.8458C222.149 35.212 222.187 35.579 222.282 35.9326C222.432 36.2819 222.655 36.5935 222.934 36.8456C223.143 37.0558 223.369 37.2457 223.612 37.4129C223.893 37.6103 224.188 37.7852 224.496 37.9363C226.369 38.8569 228.836 39.3249 231.323 39.3077C233.809 39.2905 236.236 38.834 238.073 37.8885C238.463 37.694 238.83 37.4543 239.167 37.1742C239.454 36.9324 239.703 36.6463 239.905 36.3261C240.166 35.9455 240.281 35.4797 240.228 35.0177C240.227 35.0076 240.227 34.9649 240.227 34.918C240.227 34.8501 240.226 34.7732 240.224 34.7732L240.224 21.9951Z" fill="white"/>
<path d="M219.562 50.9442C219.054 50.9442 218.665 50.7996 218.395 50.5102C218.132 50.2209 218 49.8126 218 49.2853V45.6589C218 45.1317 218.132 44.7234 218.395 44.434C218.665 44.1447 219.054 44 219.562 44C220.07 44 220.456 44.1447 220.72 44.434C220.99 44.7234 221.125 45.1317 221.125 45.6589V46.3726H220.122V45.5914C220.122 45.1734 219.945 44.9645 219.591 44.9645C219.238 44.9645 219.061 45.1734 219.061 45.5914V49.3625C219.061 49.774 219.238 49.9798 219.591 49.9798C219.945 49.9798 220.122 49.774 220.122 49.3625V48.3305H221.125V49.2853C221.125 49.8126 220.99 50.2209 220.72 50.5102C220.456 50.7996 220.07 50.9442 219.562 50.9442Z" fill="white"/>
<path d="M223.312 50.9442C222.791 50.9442 222.393 50.7963 222.116 50.5006C221.84 50.2048 221.701 49.7869 221.701 49.2468V45.6975C221.701 45.1574 221.84 44.7394 222.116 44.4437C222.393 44.1479 222.791 44 223.312 44C223.833 44 224.231 44.1479 224.508 44.4437C224.784 44.7394 224.923 45.1574 224.923 45.6975V49.2468C224.923 49.7869 224.784 50.2048 224.508 50.5006C224.231 50.7963 223.833 50.9442 223.312 50.9442ZM223.312 49.9798C223.679 49.9798 223.862 49.7579 223.862 49.3143V45.63C223.862 45.1863 223.679 44.9645 223.312 44.9645C222.946 44.9645 222.762 45.1863 222.762 45.63V49.3143C222.762 49.7579 222.946 49.9798 223.312 49.9798Z" fill="white"/>
<path d="M225.64 44.0964H227.154L227.83 48.9285H227.849L228.524 44.0964H230.038V50.8478H229.035V45.7361H229.016L228.244 50.8478H227.357L226.585 45.7361H226.566V50.8478H225.64V44.0964Z" fill="white"/>
<path d="M230.83 44.0964H232.392C232.92 44.0964 233.315 44.2379 233.579 44.5208C233.842 44.8037 233.974 45.2185 233.974 45.765V46.4305C233.974 46.977 233.842 47.3917 233.579 47.6747C233.315 47.9576 232.92 48.099 232.392 48.099H231.891V50.8478H230.83V44.0964ZM232.392 47.1345C232.566 47.1345 232.695 47.0863 232.778 46.9899C232.868 46.8934 232.913 46.7295 232.913 46.498V45.6975C232.913 45.466 232.868 45.302 232.778 45.2056C232.695 45.1091 232.566 45.0609 232.392 45.0609H231.891V47.1345H232.392Z" fill="white"/>
<path d="M236.084 50.9442C235.563 50.9442 235.164 50.7963 234.888 50.5006C234.611 50.2048 234.473 49.7869 234.473 49.2468V45.6975C234.473 45.1574 234.611 44.7394 234.888 44.4437C235.164 44.1479 235.563 44 236.084 44C236.605 44 237.003 44.1479 237.28 44.4437C237.556 44.7394 237.694 45.1574 237.694 45.6975V49.2468C237.694 49.7869 237.556 50.2048 237.28 50.5006C237.003 50.7963 236.605 50.9442 236.084 50.9442ZM236.084 49.9798C236.45 49.9798 236.634 49.7579 236.634 49.3143V45.63C236.634 45.1863 236.45 44.9645 236.084 44.9645C235.717 44.9645 235.534 45.1863 235.534 45.63V49.3143C235.534 49.7579 235.717 49.9798 236.084 49.9798Z" fill="white"/>
<path d="M239.791 50.9442C239.277 50.9442 238.888 50.7996 238.624 50.5102C238.361 50.2144 238.229 49.7933 238.229 49.2468V48.861H239.232V49.3239C239.232 49.7611 239.415 49.9798 239.782 49.9798C239.962 49.9798 240.097 49.9283 240.187 49.8254C240.283 49.7161 240.331 49.5425 240.331 49.3046C240.331 49.0217 240.267 48.7742 240.138 48.562C240.01 48.3434 239.772 48.083 239.425 47.7807C238.987 47.395 238.682 47.0477 238.508 46.7391C238.335 46.4241 238.248 46.0704 238.248 45.6782C238.248 45.1445 238.383 44.733 238.653 44.4437C238.923 44.1479 239.315 44 239.83 44C240.338 44 240.72 44.1479 240.977 44.4437C241.241 44.733 241.373 45.1509 241.373 45.6975V45.9772H240.37V45.63C240.37 45.3985 240.325 45.2313 240.235 45.1284C240.145 45.0191 240.013 44.9645 239.839 44.9645C239.486 44.9645 239.309 45.1799 239.309 45.6107C239.309 45.855 239.373 46.0833 239.502 46.2955C239.637 46.5076 239.878 46.7648 240.225 47.067C240.669 47.4528 240.974 47.8033 241.141 48.1183C241.309 48.4334 241.392 48.8031 241.392 49.2275C241.392 49.7804 241.254 50.2048 240.977 50.5006C240.707 50.7963 240.312 50.9442 239.791 50.9442Z" fill="white"/>
<path d="M242.83 45.0609H241.721V44.0964H245V45.0609H243.891V50.8478H242.83V45.0609Z" fill="white"/>
<path d="M129.6 26.432H134.388V27.848H131.328V29.864H134.208V31.28H131.328V35H129.6V26.432ZM135.239 35V26.432H136.967V35H135.239ZM138.248 35V26.432H139.976V33.584H143.036V35H138.248ZM147.694 26.432V27.848H145.822V35H144.094V27.848H142.222V26.432H147.694ZM148.444 26.432H151.636C152.356 26.432 152.916 26.616 153.316 26.984C153.716 27.344 153.916 27.896 153.916 28.64C153.916 29.216 153.8 29.688 153.568 30.056C153.336 30.416 152.976 30.648 152.488 30.752V30.776C152.92 30.84 153.236 30.98 153.436 31.196C153.636 31.412 153.76 31.76 153.808 32.24C153.824 32.4 153.836 32.576 153.844 32.768C153.852 32.952 153.86 33.16 153.868 33.392C153.884 33.848 153.908 34.196 153.94 34.436C153.988 34.676 154.092 34.84 154.252 34.928V35H152.38C152.292 34.88 152.236 34.744 152.212 34.592C152.188 34.432 152.172 34.268 152.164 34.1L152.116 32.456C152.1 32.12 152.016 31.856 151.864 31.664C151.712 31.472 151.456 31.376 151.096 31.376H150.172V35H148.444V26.432ZM150.172 30.176H150.892C151.308 30.176 151.628 30.08 151.852 29.888C152.076 29.688 152.188 29.356 152.188 28.892C152.188 28.1 151.788 27.704 150.988 27.704H150.172V30.176ZM159.9 26.432V27.848H156.84V29.864H159.72V31.28H156.84V33.584H160.02V35H155.112V26.432H159.9ZM166.16 25.928L164.984 24.2H166.64L167.288 25.928H166.16ZM165.668 31.772H167.348L166.52 27.92H166.496L165.668 31.772ZM165.44 26.432H167.576L169.844 35H168.044L167.648 33.188H165.368L164.972 35H163.172L165.44 26.432ZM176.983 29.324C176.983 28.7 176.907 28.248 176.755 27.968C176.611 27.68 176.343 27.536 175.951 27.536C175.735 27.536 175.555 27.596 175.411 27.716C175.275 27.828 175.167 28.016 175.087 28.28C175.007 28.536 174.951 28.876 174.919 29.3C174.887 29.716 174.871 30.228 174.871 30.836C174.871 31.484 174.891 32.008 174.931 32.408C174.979 32.808 175.047 33.12 175.135 33.344C175.231 33.56 175.347 33.708 175.483 33.788C175.627 33.86 175.791 33.896 175.975 33.896C176.127 33.896 176.267 33.872 176.395 33.824C176.531 33.768 176.647 33.664 176.743 33.512C176.839 33.352 176.915 33.132 176.971 32.852C177.027 32.564 177.055 32.188 177.055 31.724H178.783C178.783 32.188 178.747 32.628 178.675 33.044C178.603 33.46 178.467 33.824 178.267 34.136C178.075 34.448 177.799 34.692 177.439 34.868C177.087 35.044 176.627 35.132 176.059 35.132C175.411 35.132 174.895 35.028 174.511 34.82C174.127 34.612 173.831 34.312 173.623 33.92C173.423 33.528 173.291 33.06 173.227 32.516C173.171 31.972 173.143 31.372 173.143 30.716C173.143 30.068 173.171 29.472 173.227 28.928C173.291 28.376 173.423 27.904 173.623 27.512C173.831 27.12 174.127 26.816 174.511 26.6C174.895 26.376 175.411 26.264 176.059 26.264C176.675 26.264 177.159 26.364 177.511 26.564C177.871 26.764 178.139 27.02 178.315 27.332C178.491 27.636 178.599 27.968 178.639 28.328C178.687 28.68 178.711 29.012 178.711 29.324H176.983ZM183.344 31.772L182.516 27.92H182.492L181.664 31.772H183.344ZM183.572 26.432L185.84 35H184.04L183.644 33.188H181.364L180.968 35H179.168L181.436 26.432H183.572ZM186.436 26.432H191.224V27.848H188.164V29.864H191.044V31.28H188.164V35H186.436V26.432ZM194.295 24.2H195.951L194.775 25.928H193.647L194.295 24.2ZM196.779 26.432V27.848H193.719V29.864H196.599V31.28H193.719V33.584H196.899V35H191.991V26.432H196.779Z" fill="black"/>
</g>
<defs>
<clipPath id="clip0_66_4207">
<rect width="260" height="61" fill="white"/>
</clipPath>
</defs>
</svg>
