<svg width="250" height="61" viewBox="0 0 250 61" fill="none" xmlns="http://www.w3.org/2000/svg">
<g clip-path="url(#clip0_66_2641)">
<path d="M24.6979 60.4688C11.0781 60.4688 0 49.5208 0 36.0625V0H224.948C238.563 0 249.641 10.9479 249.641 24.4062V60.4688" fill="white"/>
<path d="M222.083 52.9114H69.1353C59.6874 52.9114 51.9999 45.3541 51.9999 36.0625V7.55725H204.948C214.396 7.55725 222.083 15.1145 222.083 24.4062V52.9114ZM204.948 5.66663H50.1145V36.0625C50.1145 46.3958 58.6458 54.802 69.1353 54.802H223.969V24.4062C223.969 14.0729 215.437 5.66663 204.948 5.66663Z" fill="#6B5B4A"/>
<path d="M186.714 54.802L199.724 28.2239L186.432 5.66663H224.948C235.437 5.66663 243.969 14.0729 243.969 24.4062V54.802" fill="#6B5B4A"/>
<path d="M102.901 5.66663H50.1145V36.0625C50.1145 46.3958 58.6458 54.802 69.1353 54.802H121.927V24.4062C121.927 14.0729 113.391 5.66663 102.901 5.66663Z" fill="#6B5B4A"/>
<path d="M63.651 29.3594C58.8489 29.3594 54.9583 33.25 54.9583 38.0521C54.9583 42.8542 58.8489 46.7448 63.651 46.7448C68.4583 46.7448 72.3489 42.8542 72.3489 38.0521C72.3489 33.25 68.4583 29.3594 63.651 29.3594Z" fill="white"/>
<path d="M69.3229 39.4688H65.0729V43.7188H62.2344V39.4688H57.9844V36.6355H62.2344V32.3802H65.0729V36.6355H69.3229" fill="#1C1C1B"/>
<path d="M55.7864 26.5937V17.1979H58.2708V24.5156H61.828V26.5937" fill="white"/>
<path d="M62.9426 26.5937V17.1979H69.0155V19.276H65.4322V20.7552H68.4947V22.8385H65.4322V24.5156H69.1614V26.5937" fill="white"/>
<path d="M75.0885 26.5937V19.276H72.6041V17.1979H80.0677V19.276H77.5781V26.5937" fill="white"/>
<path d="M83.5521 21.4739H84.4479C85.4479 21.4739 85.9531 21.0625 85.9531 20.2343C85.9531 19.8281 85.8229 19.5468 85.5677 19.3958C85.3125 19.2395 84.9375 19.1614 84.4479 19.1614H83.5521V21.4739ZM81.0625 26.5989V17.1979H84.6198C85.125 17.1979 85.6042 17.2448 86.0625 17.3385C86.5208 17.4375 86.9167 17.5989 87.2604 17.8333C87.6042 18.0625 87.875 18.375 88.0781 18.7656C88.2813 19.1562 88.3802 19.6458 88.3802 20.2343C88.3802 20.9062 88.2448 21.4687 87.9688 21.9114C87.6979 22.3541 87.3281 22.6979 86.8646 22.9531L88.901 26.5989H86.125L84.5052 23.4427H83.5521V26.5989" fill="white"/>
<path d="M89.8698 26.5989H92.3593V17.1979H89.8698V26.5989Z" fill="white"/>
<path d="M75.3801 43.276V33.8698H81.5103V35.9531H77.8697V37.75H80.9895V39.8333H77.8697V43.276" fill="white"/>
<path d="M84.9218 38.7031L84.7604 39.3541H86.4948L86.3385 38.7031C86.2239 38.25 86.1041 37.7604 85.9895 37.2291C85.875 36.6979 85.7604 36.1979 85.6406 35.7239H85.5833C85.4791 36.2031 85.3698 36.7083 85.2604 37.2343C85.151 37.7604 85.0364 38.25 84.9218 38.7031ZM81.3073 43.276L84.1666 33.8698H87.1718L90.0364 43.276H87.4062L86.9427 41.276H84.3125L83.8489 43.276" fill="white"/>
<path d="M94.5624 43.4479C93.9687 43.4479 93.3958 43.3489 92.8541 43.151C92.3072 42.9531 91.8333 42.651 91.4218 42.2552C91.0103 41.8541 90.6822 41.3541 90.4426 40.75C90.203 40.1458 90.0833 39.4479 90.0833 38.6458C90.0833 37.8541 90.2083 37.151 90.4583 36.5416C90.7083 35.927 91.0416 35.4114 91.4635 34.9948C91.8801 34.5729 92.3645 34.25 92.9114 34.0312C93.4583 33.8073 94.026 33.6979 94.6249 33.6979C95.2499 33.6979 95.8124 33.8229 96.302 34.0677C96.7968 34.3125 97.2083 34.6041 97.5468 34.9427L96.2447 36.5312C96.0155 36.3333 95.776 36.1666 95.5312 36.0312C95.2812 35.9062 94.9999 35.8385 94.6822 35.8385C94.401 35.8385 94.1405 35.901 93.8958 36.026C93.651 36.151 93.4322 36.3333 93.2447 36.5625C93.0572 36.7916 92.9062 37.0781 92.7968 37.4166C92.6822 37.75 92.6301 38.1354 92.6301 38.5573C92.6301 39.4479 92.8124 40.125 93.1874 40.5989C93.5572 41.0677 94.0468 41.3073 94.651 41.3073C95.0208 41.3073 95.3437 41.2291 95.6301 41.0677C95.9114 40.9062 96.1562 40.7187 96.3593 40.4948L97.6614 42.0573C97.2551 42.5208 96.7916 42.8698 96.2655 43.0989C95.7395 43.3333 95.1718 43.4479 94.5624 43.4479Z" fill="white"/>
<path d="M98.6198 43.276H101.104V33.8698H98.6198V43.276Z" fill="white"/>
<path d="M102.875 43.276V33.8698H105.365V41.1927H108.922V43.276" fill="white"/>
<path d="M110.031 43.276V33.8698H116.109V35.9531H112.521V37.4323H115.589V39.5156H112.521V41.1927H116.255V43.276" fill="white"/>
<path d="M28.4062 25.7448C26.7135 28.2343 28.151 31.5104 29.8958 33.1718C31.4895 34.6823 32.7655 35.0364 32.9322 35.0781L33.7447 33.5208L36.0885 39.9323L29.4635 41.2812L30.3437 39.6458L29.4478 39.1458C26.6562 37.3281 26.0676 34.8593 25.8749 34.0885C25.5416 32.7604 25.0468 28.7864 28.4062 25.7448Z" fill="#6B5B4A"/>
<path d="M28.375 25.8489C29.5781 28.6093 33.1146 29.1406 35.4479 28.552C37.5208 28.026 38.5052 27.1718 38.6719 27.0156L38.6615 27L37.776 25.4635L44.4427 26.9218L42.0313 33.2395L41.1354 31.6458L40.2656 32.1198C37.2396 33.5104 34.8333 32.6927 34.0781 32.4427C32.7813 32.0156 29.1562 30.3125 28.375 25.8489Z" fill="#6B5B4A"/>
<path d="M40.1613 19.1927C39.6978 22.4895 37.7134 24.0729 37.0936 24.5729C36.0311 25.4375 32.6457 27.5677 28.4634 25.8177C31.4373 26.2916 33.7967 23.6041 34.5571 21.3177C35.2446 19.2656 35.0415 17.9687 34.9998 17.7708L34.979 17.7656L33.2134 17.6927L38.0259 12.8541L42.0519 18.2864L40.2342 18.1823" fill="#6B5B4A"/>
<path fill-rule="evenodd" clip-rule="evenodd" d="M19.9375 16.4115C18.4167 16.4115 17.1875 15.1823 17.1875 13.6563C17.1875 12.1354 18.4167 10.9062 19.9375 10.9062C21.4583 10.9062 22.6927 12.1354 22.6927 13.6563C22.6927 15.1823 21.4583 16.4115 19.9375 16.4115Z" fill="#6B5B4A"/>
<path d="M15.6771 29.7968C15.9115 29.151 16.2604 29.1927 16.2604 29.1927C16.2604 29.1927 16.5781 29.125 16.7552 29.7708L19.3281 38.8073C17.1823 38.1823 15.224 37.1198 13.5573 35.7083L15.6771 29.7968ZM23.7031 5.66663C13.7604 5.66663 5.67188 13.7552 5.67188 23.6979C5.67188 33.6406 13.7604 41.7291 23.7031 41.7291C24.2344 41.7291 24.7552 41.6979 25.276 41.651L25.3958 43.4635L28.6979 40.2708L25.0052 37.4531L25.1458 39.3541C24.6719 39.401 24.1875 39.4323 23.7031 39.4323C22.9375 39.4323 22.1875 39.375 21.4531 39.2656L21.3802 38.7864L19.6667 24.1875C19.4323 21.4323 21.0052 20.9948 21.9792 21.4062L27.4479 23.6041C28.0729 23.875 28.375 23.3489 28.375 23.3489C28.375 23.3489 28.7292 22.802 28.0938 22.3958C28.0938 22.3958 20.6406 17.4583 19.0521 17.1562C16.8854 16.7552 14.7396 18.5104 14.2656 20.7968L11.6198 33.7604C9.34375 31.0312 7.96875 27.5208 7.96875 23.6979C7.96875 15.0208 15.026 7.9635 23.7031 7.9635C28.3385 7.9635 32.5104 9.97913 35.3906 13.177L37.0052 11.5364C33.7083 7.93225 28.9635 5.66663 23.7031 5.66663Z" fill="#6B5B4A"/>
<path fill-rule="evenodd" clip-rule="evenodd" d="M215.184 13.5477C212.848 13.829 210.995 15.7189 210.697 18.1033L210.693 18.1036L210.569 18.8693C210.562 18.8856 210.558 18.9007 210.558 18.914C210.554 18.9403 210.549 18.9665 210.545 18.9927C210.517 19.164 210.489 19.3314 210.515 19.5044L210.513 21.0954C207.452 24.2948 206.633 27.1159 207.139 29.2647C207.309 29.9622 207.62 30.6156 208.051 31.1832C208.482 31.7508 209.024 32.2202 209.642 32.5614C209.922 32.7258 210.213 32.8682 210.513 32.9874L210.511 34.7847L210.513 34.8477C210.49 35.4096 210.562 35.9713 210.728 36.5076C210.955 37.0944 211.311 37.6198 211.769 38.0432C212.048 38.3281 212.352 38.5852 212.679 38.8111C213.03 39.056 213.399 39.2719 213.783 39.4567C215.887 40.4919 218.644 41.0038 221.334 41C224.024 40.9962 226.734 40.4594 228.81 39.4032C229.316 39.1492 229.791 38.8357 230.226 38.4692C230.646 38.115 231.01 37.6961 231.304 37.2276C231.888 36.2837 231.886 35.9049 231.883 35.0104L231.882 35.0005L231.886 20.0602C231.956 19.8477 231.995 19.6255 232 19.4012C232 19.1676 231.963 18.942 231.893 18.7249C231.348 16.0509 229.424 14.0935 226.857 13.6116C225.861 11.4138 223.535 10 221.006 10C218.502 10 216.195 11.3865 215.184 13.5477ZM221.245 22.4255C217.72 22.4255 214.58 21.643 212.551 20.4235C212.188 19.5805 212.237 18.5859 212.269 18.2929C212.501 16.5087 213.988 15.1323 215.789 15.1323C215.966 15.1323 216.14 15.1455 216.309 15.1711C216.711 13.1523 218.661 11.6207 221.006 11.6207C223.336 11.6207 225.276 13.1331 225.695 15.1331C225.723 15.1326 225.75 15.1323 225.778 15.1323C228.041 15.1323 230.03 16.9544 230.478 19.3712C230.47 19.8542 230.363 20.1051 230.276 20.2103C228.268 21.5511 224.971 22.4255 221.245 22.4255ZM208.668 28.8903C208.352 27.5052 208.811 25.6874 210.508 23.5283L210.506 31.2072L210.426 31.1594C209.996 30.9258 209.618 30.6036 209.315 30.2131C209.013 29.8226 208.793 29.3722 208.668 28.8903ZM230.224 21.9951C229.664 22.3566 229.068 22.6569 228.447 22.8909C226.551 23.6243 223.985 24.0942 221.196 24.0961C218.758 24.1265 216.334 23.6966 214.048 22.8278C213.386 22.5663 212.756 22.2272 212.17 21.8174L212.168 31.7898C212.702 31.8871 213.246 31.9179 213.787 31.8814C216.341 31.7229 219.114 30.128 220.476 26.6441C220.556 26.4477 220.709 26.2916 220.901 26.2096C221.093 26.1276 221.309 26.1262 221.502 26.2057C221.694 26.2853 221.849 26.4394 221.932 26.6348C222.015 26.8301 222.019 27.051 221.944 27.2496C220.321 31.3982 216.973 33.3025 213.876 33.505C213.304 33.5419 212.729 33.5188 212.16 33.4362L212.168 34.8458C212.149 35.212 212.187 35.579 212.282 35.9326C212.432 36.2819 212.655 36.5935 212.934 36.8456C213.143 37.0558 213.369 37.2457 213.612 37.4129C213.893 37.6103 214.188 37.7852 214.496 37.9363C216.369 38.8569 218.836 39.3249 221.323 39.3077C223.809 39.2905 226.236 38.834 228.073 37.8885C228.463 37.694 228.83 37.4543 229.167 37.1742C229.454 36.9324 229.703 36.6463 229.905 36.3261C230.166 35.9455 230.281 35.4797 230.228 35.0177C230.227 35.0076 230.227 34.9649 230.227 34.918C230.227 34.8501 230.226 34.7732 230.224 34.7732L230.224 21.9951Z" fill="white"/>
<path d="M209.562 50.9442C209.054 50.9442 208.665 50.7996 208.395 50.5102C208.132 50.2209 208 49.8126 208 49.2853V45.6589C208 45.1317 208.132 44.7234 208.395 44.434C208.665 44.1447 209.054 44 209.562 44C210.07 44 210.456 44.1447 210.72 44.434C210.99 44.7234 211.125 45.1317 211.125 45.6589V46.3726H210.122V45.5914C210.122 45.1734 209.945 44.9645 209.591 44.9645C209.238 44.9645 209.061 45.1734 209.061 45.5914V49.3625C209.061 49.774 209.238 49.9798 209.591 49.9798C209.945 49.9798 210.122 49.774 210.122 49.3625V48.3305H211.125V49.2853C211.125 49.8126 210.99 50.2209 210.72 50.5102C210.456 50.7996 210.07 50.9442 209.562 50.9442Z" fill="white"/>
<path d="M213.312 50.9442C212.791 50.9442 212.393 50.7963 212.116 50.5006C211.84 50.2048 211.701 49.7869 211.701 49.2468V45.6975C211.701 45.1574 211.84 44.7394 212.116 44.4437C212.393 44.1479 212.791 44 213.312 44C213.833 44 214.231 44.1479 214.508 44.4437C214.784 44.7394 214.923 45.1574 214.923 45.6975V49.2468C214.923 49.7869 214.784 50.2048 214.508 50.5006C214.231 50.7963 213.833 50.9442 213.312 50.9442ZM213.312 49.9798C213.679 49.9798 213.862 49.7579 213.862 49.3143V45.63C213.862 45.1863 213.679 44.9645 213.312 44.9645C212.946 44.9645 212.762 45.1863 212.762 45.63V49.3143C212.762 49.7579 212.946 49.9798 213.312 49.9798Z" fill="white"/>
<path d="M215.64 44.0964H217.154L217.83 48.9285H217.849L218.524 44.0964H220.038V50.8478H219.035V45.7361H219.016L218.244 50.8478H217.357L216.585 45.7361H216.566V50.8478H215.64V44.0964Z" fill="white"/>
<path d="M220.83 44.0964H222.392C222.92 44.0964 223.315 44.2379 223.579 44.5208C223.842 44.8037 223.974 45.2185 223.974 45.765V46.4305C223.974 46.977 223.842 47.3917 223.579 47.6747C223.315 47.9576 222.92 48.099 222.392 48.099H221.891V50.8478H220.83V44.0964ZM222.392 47.1345C222.566 47.1345 222.695 47.0863 222.778 46.9899C222.868 46.8934 222.913 46.7295 222.913 46.498V45.6975C222.913 45.466 222.868 45.302 222.778 45.2056C222.695 45.1091 222.566 45.0609 222.392 45.0609H221.891V47.1345H222.392Z" fill="white"/>
<path d="M226.084 50.9442C225.563 50.9442 225.164 50.7963 224.888 50.5006C224.611 50.2048 224.473 49.7869 224.473 49.2468V45.6975C224.473 45.1574 224.611 44.7394 224.888 44.4437C225.164 44.1479 225.563 44 226.084 44C226.605 44 227.003 44.1479 227.28 44.4437C227.556 44.7394 227.694 45.1574 227.694 45.6975V49.2468C227.694 49.7869 227.556 50.2048 227.28 50.5006C227.003 50.7963 226.605 50.9442 226.084 50.9442ZM226.084 49.9798C226.45 49.9798 226.634 49.7579 226.634 49.3143V45.63C226.634 45.1863 226.45 44.9645 226.084 44.9645C225.717 44.9645 225.534 45.1863 225.534 45.63V49.3143C225.534 49.7579 225.717 49.9798 226.084 49.9798Z" fill="white"/>
<path d="M229.791 50.9442C229.277 50.9442 228.888 50.7996 228.624 50.5102C228.361 50.2144 228.229 49.7933 228.229 49.2468V48.861H229.232V49.3239C229.232 49.7611 229.415 49.9798 229.782 49.9798C229.962 49.9798 230.097 49.9283 230.187 49.8254C230.283 49.7161 230.331 49.5425 230.331 49.3046C230.331 49.0217 230.267 48.7742 230.138 48.562C230.01 48.3434 229.772 48.083 229.425 47.7807C228.987 47.395 228.682 47.0477 228.508 46.7391C228.335 46.4241 228.248 46.0704 228.248 45.6782C228.248 45.1445 228.383 44.733 228.653 44.4437C228.923 44.1479 229.315 44 229.83 44C230.338 44 230.72 44.1479 230.977 44.4437C231.241 44.733 231.373 45.1509 231.373 45.6975V45.9772H230.37V45.63C230.37 45.3985 230.325 45.2313 230.235 45.1284C230.145 45.0191 230.013 44.9645 229.839 44.9645C229.486 44.9645 229.309 45.1799 229.309 45.6107C229.309 45.855 229.373 46.0833 229.502 46.2955C229.637 46.5076 229.878 46.7648 230.225 47.067C230.669 47.4528 230.974 47.8033 231.141 48.1183C231.309 48.4334 231.392 48.8031 231.392 49.2275C231.392 49.7804 231.254 50.2048 230.977 50.5006C230.707 50.7963 230.312 50.9442 229.791 50.9442Z" fill="white"/>
<path d="M232.83 45.0609H231.721V44.0964H235V45.0609H233.891V50.8478H232.83V45.0609Z" fill="white"/>
<path d="M132.905 29.797C132.905 29.225 132.835 28.8107 132.696 28.554C132.564 28.29 132.318 28.158 131.959 28.158C131.761 28.158 131.596 28.213 131.464 28.323C131.339 28.4257 131.24 28.598 131.167 28.84C131.094 29.0747 131.042 29.3863 131.013 29.775C130.984 30.1563 130.969 30.6257 130.969 31.183C130.969 31.777 130.987 32.2573 131.024 32.624C131.068 32.9907 131.13 33.2767 131.211 33.482C131.299 33.68 131.405 33.8157 131.53 33.889C131.662 33.955 131.812 33.988 131.981 33.988C132.12 33.988 132.249 33.966 132.366 33.922C132.491 33.8707 132.597 33.7753 132.685 33.636C132.773 33.4893 132.843 33.2877 132.894 33.031C132.945 32.767 132.971 32.4223 132.971 31.997H134.555C134.555 32.4223 134.522 32.8257 134.456 33.207C134.39 33.5883 134.265 33.922 134.082 34.208C133.906 34.494 133.653 34.7177 133.323 34.879C133 35.0403 132.579 35.121 132.058 35.121C131.464 35.121 130.991 35.0257 130.639 34.835C130.287 34.6443 130.016 34.3693 129.825 34.01C129.642 33.6507 129.521 33.2217 129.462 32.723C129.411 32.2243 129.385 31.6743 129.385 31.073C129.385 30.479 129.411 29.9327 129.462 29.434C129.521 28.928 129.642 28.4953 129.825 28.136C130.016 27.7767 130.287 27.498 130.639 27.3C130.991 27.0947 131.464 26.992 132.058 26.992C132.623 26.992 133.066 27.0837 133.389 27.267C133.719 27.4503 133.965 27.685 134.126 27.971C134.287 28.2497 134.386 28.554 134.423 28.884C134.467 29.2067 134.489 29.511 134.489 29.797H132.905ZM138.736 32.041L137.977 28.51H137.955L137.196 32.041H138.736ZM138.945 27.146L141.024 35H139.374L139.011 33.339H136.921L136.558 35H134.908L136.987 27.146H138.945ZM141.571 27.146H145.96V28.444H143.155V30.292H145.795V31.59H143.155V35H141.571V27.146ZM148.774 25.1H150.292L149.214 26.684H148.18L148.774 25.1ZM151.051 27.146V28.444H148.246V30.292H150.886V31.59H148.246V33.702H151.161V35H146.662V27.146H151.051ZM157.307 27.146C157.079 27.564 156.885 27.971 156.724 28.367C156.562 28.7557 156.43 29.148 156.328 29.544C156.232 29.94 156.163 30.347 156.119 30.765C156.075 31.1757 156.053 31.6157 156.053 32.085C156.053 32.5543 156.075 32.998 156.119 33.416C156.163 33.8267 156.232 34.2263 156.328 34.615C156.43 34.9963 156.562 35.3813 156.724 35.77C156.885 36.166 157.079 36.573 157.307 36.991H156.141C155.591 36.1257 155.195 35.286 154.953 34.472C154.718 33.658 154.601 32.8623 154.601 32.085C154.601 31.3077 154.718 30.5083 154.953 29.687C155.195 28.8583 155.591 28.0113 156.141 27.146H157.307ZM157.889 27.146H160.243L161.365 32.69H161.387L162.52 27.146H164.863V35H163.411V28.73H163.389L161.992 35H160.76L159.363 28.73H159.341V35H157.889V27.146ZM169.276 32.041L168.517 28.51H168.495L167.736 32.041H169.276ZM169.485 27.146L171.564 35H169.914L169.551 33.339H167.461L167.098 35H165.448L167.527 27.146H169.485ZM172.111 27.146H175.037C175.697 27.146 176.21 27.3147 176.577 27.652C176.943 27.982 177.127 28.488 177.127 29.17C177.127 29.698 177.02 30.1307 176.808 30.468C176.595 30.798 176.265 31.0107 175.818 31.106V31.128C176.214 31.1867 176.503 31.315 176.687 31.513C176.87 31.711 176.984 32.03 177.028 32.47C177.042 32.6167 177.053 32.778 177.061 32.954C177.068 33.1227 177.075 33.3133 177.083 33.526C177.097 33.944 177.119 34.263 177.149 34.483C177.193 34.703 177.288 34.8533 177.435 34.934V35H175.719C175.638 34.89 175.587 34.7653 175.565 34.626C175.543 34.4793 175.528 34.329 175.521 34.175L175.477 32.668C175.462 32.36 175.385 32.118 175.246 31.942C175.106 31.766 174.872 31.678 174.542 31.678H173.695V35H172.111V27.146ZM173.695 30.578H174.355C174.736 30.578 175.029 30.49 175.235 30.314C175.44 30.1307 175.543 29.8263 175.543 29.401C175.543 28.675 175.176 28.312 174.443 28.312H173.695V30.578ZM181.578 29.797C181.578 29.225 181.508 28.8107 181.369 28.554C181.237 28.29 180.991 28.158 180.632 28.158C180.434 28.158 180.269 28.213 180.137 28.323C180.012 28.4257 179.913 28.598 179.84 28.84C179.767 29.0747 179.715 29.3863 179.686 29.775C179.657 30.1563 179.642 30.6257 179.642 31.183C179.642 31.777 179.66 32.2573 179.697 32.624C179.741 32.9907 179.803 33.2767 179.884 33.482C179.972 33.68 180.078 33.8157 180.203 33.889C180.335 33.955 180.485 33.988 180.654 33.988C180.793 33.988 180.922 33.966 181.039 33.922C181.164 33.8707 181.27 33.7753 181.358 33.636C181.446 33.4893 181.516 33.2877 181.567 33.031C181.618 32.767 181.644 32.4223 181.644 31.997H183.228C183.228 32.4223 183.195 32.8257 183.129 33.207C183.063 33.5883 182.938 33.922 182.755 34.208C182.579 34.494 182.326 34.7177 181.996 34.879C181.673 35.0403 181.252 35.121 180.731 35.121C180.137 35.121 179.664 35.0257 179.312 34.835C178.96 34.6443 178.689 34.3693 178.498 34.01C178.315 33.6507 178.194 33.2217 178.135 32.723C178.084 32.2243 178.058 31.6743 178.058 31.073C178.058 30.479 178.084 29.9327 178.135 29.434C178.194 28.928 178.315 28.4953 178.498 28.136C178.689 27.7767 178.96 27.498 179.312 27.3C179.664 27.0947 180.137 26.992 180.731 26.992C181.296 26.992 181.739 27.0837 182.062 27.267C182.392 27.4503 182.638 27.685 182.799 27.971C182.96 28.2497 183.059 28.554 183.096 28.884C183.14 29.2067 183.162 29.511 183.162 29.797H181.578ZM184.747 27.146C185.297 28.0113 185.689 28.8583 185.924 29.687C186.166 30.5083 186.287 31.3077 186.287 32.085C186.287 32.8623 186.166 33.658 185.924 34.472C185.689 35.286 185.297 36.1257 184.747 36.991H183.581C183.808 36.573 184.003 36.166 184.164 35.77C184.325 35.3813 184.454 34.9963 184.549 34.615C184.652 34.2263 184.725 33.8267 184.769 33.416C184.813 32.998 184.835 32.5543 184.835 32.085C184.835 31.6157 184.813 31.1757 184.769 30.765C184.725 30.347 184.652 29.94 184.549 29.544C184.454 29.148 184.325 28.7557 184.164 28.367C184.003 27.971 183.808 27.564 183.581 27.146H184.747Z" fill="black"/>
</g>
<defs>
<clipPath id="clip0_66_2641">
<rect width="250" height="61" fill="white"/>
</clipPath>
</defs>
</svg>
