<svg width="245" height="61" viewBox="0 0 245 61" fill="none" xmlns="http://www.w3.org/2000/svg">
<g clip-path="url(#clip0_66_2511)">
<path d="M24.6979 60.4688C11.0781 60.4688 0 49.5208 0 36.0625V0H219.948C233.563 0 244.641 10.9479 244.641 24.4062V60.4688" fill="white"/>
<path d="M222.083 52.9114H69.1353C59.6874 52.9114 51.9999 45.3541 51.9999 36.0625V7.55725H204.948C214.396 7.55725 222.083 15.1145 222.083 24.4062V52.9114ZM204.948 5.66663H50.1145V36.0625C50.1145 46.3958 58.6458 54.802 69.1353 54.802H223.969V24.4062C223.969 14.0729 215.437 5.66663 204.948 5.66663Z" fill="#333347"/>
<path d="M181.714 54.802L194.724 28.2239L181.432 5.66663H219.948C230.437 5.66663 238.969 14.0729 238.969 24.4062V54.802" fill="#333347"/>
<path d="M102.901 5.66663H50.1145V36.0625C50.1145 46.3958 58.6458 54.802 69.1353 54.802H121.927V24.4062C121.927 14.0729 113.391 5.66663 102.901 5.66663Z" fill="#333347"/>
<path d="M63.651 29.3594C58.8489 29.3594 54.9583 33.25 54.9583 38.0521C54.9583 42.8542 58.8489 46.7448 63.651 46.7448C68.4583 46.7448 72.3489 42.8542 72.3489 38.0521C72.3489 33.25 68.4583 29.3594 63.651 29.3594Z" fill="white"/>
<path d="M69.3229 39.4688H65.0729V43.7188H62.2344V39.4688H57.9844V36.6355H62.2344V32.3802H65.0729V36.6355H69.3229" fill="#1C1C1B"/>
<path d="M55.7864 26.5937V17.1979H58.2708V24.5156H61.828V26.5937" fill="white"/>
<path d="M62.9426 26.5937V17.1979H69.0155V19.276H65.4322V20.7552H68.4947V22.8385H65.4322V24.5156H69.1614V26.5937" fill="white"/>
<path d="M75.0885 26.5937V19.276H72.6041V17.1979H80.0677V19.276H77.5781V26.5937" fill="white"/>
<path d="M83.5521 21.4739H84.4479C85.4479 21.4739 85.9531 21.0625 85.9531 20.2343C85.9531 19.8281 85.8229 19.5468 85.5677 19.3958C85.3125 19.2395 84.9375 19.1614 84.4479 19.1614H83.5521V21.4739ZM81.0625 26.5989V17.1979H84.6198C85.125 17.1979 85.6042 17.2448 86.0625 17.3385C86.5208 17.4375 86.9167 17.5989 87.2604 17.8333C87.6042 18.0625 87.875 18.375 88.0781 18.7656C88.2813 19.1562 88.3802 19.6458 88.3802 20.2343C88.3802 20.9062 88.2448 21.4687 87.9688 21.9114C87.6979 22.3541 87.3281 22.6979 86.8646 22.9531L88.901 26.5989H86.125L84.5052 23.4427H83.5521V26.5989" fill="white"/>
<path d="M89.8698 26.5989H92.3593V17.1979H89.8698V26.5989Z" fill="white"/>
<path d="M75.3801 43.276V33.8698H81.5103V35.9531H77.8697V37.75H80.9895V39.8333H77.8697V43.276" fill="white"/>
<path d="M84.9218 38.7031L84.7604 39.3541H86.4948L86.3385 38.7031C86.2239 38.25 86.1041 37.7604 85.9895 37.2291C85.875 36.6979 85.7604 36.1979 85.6406 35.7239H85.5833C85.4791 36.2031 85.3698 36.7083 85.2604 37.2343C85.151 37.7604 85.0364 38.25 84.9218 38.7031ZM81.3073 43.276L84.1666 33.8698H87.1718L90.0364 43.276H87.4062L86.9427 41.276H84.3125L83.8489 43.276" fill="white"/>
<path d="M94.5624 43.4479C93.9687 43.4479 93.3958 43.3489 92.8541 43.151C92.3072 42.9531 91.8333 42.651 91.4218 42.2552C91.0103 41.8541 90.6822 41.3541 90.4426 40.75C90.203 40.1458 90.0833 39.4479 90.0833 38.6458C90.0833 37.8541 90.2083 37.151 90.4583 36.5416C90.7083 35.927 91.0416 35.4114 91.4635 34.9948C91.8801 34.5729 92.3645 34.25 92.9114 34.0312C93.4583 33.8073 94.026 33.6979 94.6249 33.6979C95.2499 33.6979 95.8124 33.8229 96.302 34.0677C96.7968 34.3125 97.2083 34.6041 97.5468 34.9427L96.2447 36.5312C96.0155 36.3333 95.776 36.1666 95.5312 36.0312C95.2812 35.9062 94.9999 35.8385 94.6822 35.8385C94.401 35.8385 94.1405 35.901 93.8958 36.026C93.651 36.151 93.4322 36.3333 93.2447 36.5625C93.0572 36.7916 92.9062 37.0781 92.7968 37.4166C92.6822 37.75 92.6301 38.1354 92.6301 38.5573C92.6301 39.4479 92.8124 40.125 93.1874 40.5989C93.5572 41.0677 94.0468 41.3073 94.651 41.3073C95.0208 41.3073 95.3437 41.2291 95.6301 41.0677C95.9114 40.9062 96.1562 40.7187 96.3593 40.4948L97.6614 42.0573C97.2551 42.5208 96.7916 42.8698 96.2655 43.0989C95.7395 43.3333 95.1718 43.4479 94.5624 43.4479Z" fill="white"/>
<path d="M98.6198 43.276H101.104V33.8698H98.6198V43.276Z" fill="white"/>
<path d="M102.875 43.276V33.8698H105.365V41.1927H108.922V43.276" fill="white"/>
<path d="M110.031 43.276V33.8698H116.109V35.9531H112.521V37.4323H115.589V39.5156H112.521V41.1927H116.255V43.276" fill="white"/>
<path d="M28.4062 25.7448C26.7135 28.2343 28.151 31.5104 29.8958 33.1718C31.4895 34.6823 32.7655 35.0364 32.9322 35.0781L33.7447 33.5208L36.0885 39.9323L29.4635 41.2812L30.3437 39.6458L29.4478 39.1458C26.6562 37.3281 26.0676 34.8593 25.8749 34.0885C25.5416 32.7604 25.0468 28.7864 28.4062 25.7448Z" fill="#333347"/>
<path d="M28.375 25.8489C29.5781 28.6093 33.1146 29.1406 35.4479 28.552C37.5208 28.026 38.5052 27.1718 38.6719 27.0156L38.6615 27L37.776 25.4635L44.4427 26.9218L42.0313 33.2395L41.1354 31.6458L40.2656 32.1198C37.2396 33.5104 34.8333 32.6927 34.0781 32.4427C32.7813 32.0156 29.1562 30.3125 28.375 25.8489Z" fill="#333347"/>
<path d="M40.1613 19.1927C39.6978 22.4895 37.7134 24.0729 37.0936 24.5729C36.0311 25.4375 32.6457 27.5677 28.4634 25.8177C31.4373 26.2916 33.7967 23.6041 34.5571 21.3177C35.2446 19.2656 35.0415 17.9687 34.9998 17.7708L34.979 17.7656L33.2134 17.6927L38.0259 12.8541L42.0519 18.2864L40.2342 18.1823" fill="#333347"/>
<path fill-rule="evenodd" clip-rule="evenodd" d="M19.9375 16.4115C18.4167 16.4115 17.1875 15.1823 17.1875 13.6563C17.1875 12.1354 18.4167 10.9062 19.9375 10.9062C21.4583 10.9062 22.6927 12.1354 22.6927 13.6563C22.6927 15.1823 21.4583 16.4115 19.9375 16.4115Z" fill="#333347"/>
<path d="M15.6771 29.7968C15.9115 29.151 16.2604 29.1927 16.2604 29.1927C16.2604 29.1927 16.5781 29.125 16.7552 29.7708L19.3281 38.8073C17.1823 38.1823 15.224 37.1198 13.5573 35.7083L15.6771 29.7968ZM23.7031 5.66663C13.7604 5.66663 5.67188 13.7552 5.67188 23.6979C5.67188 33.6406 13.7604 41.7291 23.7031 41.7291C24.2344 41.7291 24.7552 41.6979 25.276 41.651L25.3958 43.4635L28.6979 40.2708L25.0052 37.4531L25.1458 39.3541C24.6719 39.401 24.1875 39.4323 23.7031 39.4323C22.9375 39.4323 22.1875 39.375 21.4531 39.2656L21.3802 38.7864L19.6667 24.1875C19.4323 21.4323 21.0052 20.9948 21.9792 21.4062L27.4479 23.6041C28.0729 23.875 28.375 23.3489 28.375 23.3489C28.375 23.3489 28.7292 22.802 28.0938 22.3958C28.0938 22.3958 20.6406 17.4583 19.0521 17.1562C16.8854 16.7552 14.7396 18.5104 14.2656 20.7968L11.6198 33.7604C9.34375 31.0312 7.96875 27.5208 7.96875 23.6979C7.96875 15.0208 15.026 7.9635 23.7031 7.9635C28.3385 7.9635 32.5104 9.97913 35.3906 13.177L37.0052 11.5364C33.7083 7.93225 28.9635 5.66663 23.7031 5.66663Z" fill="#333347"/>
<path d="M131.328 25.728H132C132.416 25.728 132.752 25.636 133.008 25.452C133.264 25.268 133.392 24.928 133.392 24.432C133.392 24.184 133.356 23.98 133.284 23.82C133.22 23.652 133.128 23.52 133.008 23.424C132.896 23.32 132.76 23.248 132.6 23.208C132.44 23.168 132.264 23.148 132.072 23.148H131.328V25.728ZM131.328 21.948H131.82C132.3 21.948 132.648 21.864 132.864 21.696C133.088 21.52 133.2 21.228 133.2 20.82C133.2 20.412 133.1 20.124 132.9 19.956C132.7 19.788 132.384 19.704 131.952 19.704H131.328V21.948ZM129.6 18.432H132.492C132.844 18.432 133.168 18.468 133.464 18.54C133.768 18.612 134.028 18.732 134.244 18.9C134.46 19.068 134.628 19.292 134.748 19.572C134.868 19.852 134.928 20.196 134.928 20.604C134.928 21.068 134.82 21.468 134.604 21.804C134.388 22.132 134.064 22.356 133.632 22.476V22.5C134.112 22.564 134.492 22.768 134.772 23.112C135.052 23.456 135.192 23.916 135.192 24.492C135.192 24.828 135.148 25.148 135.06 25.452C134.972 25.756 134.82 26.024 134.604 26.256C134.396 26.48 134.12 26.66 133.776 26.796C133.44 26.932 133.02 27 132.516 27H129.6V18.432ZM136.268 18.432H139.46C140.18 18.432 140.74 18.616 141.14 18.984C141.54 19.344 141.74 19.896 141.74 20.64C141.74 21.216 141.624 21.688 141.392 22.056C141.16 22.416 140.8 22.648 140.312 22.752V22.776C140.744 22.84 141.06 22.98 141.26 23.196C141.46 23.412 141.584 23.76 141.632 24.24C141.648 24.4 141.66 24.576 141.668 24.768C141.676 24.952 141.684 25.16 141.692 25.392C141.708 25.848 141.732 26.196 141.764 26.436C141.812 26.676 141.916 26.84 142.076 26.928V27H140.204C140.116 26.88 140.06 26.744 140.036 26.592C140.012 26.432 139.996 26.268 139.988 26.1L139.94 24.456C139.924 24.12 139.84 23.856 139.688 23.664C139.536 23.472 139.28 23.376 138.92 23.376H137.996V27H136.268V18.432ZM137.996 22.176H138.716C139.132 22.176 139.452 22.08 139.676 21.888C139.9 21.688 140.012 21.356 140.012 20.892C140.012 20.1 139.612 19.704 138.812 19.704H137.996V22.176ZM144.484 22.716C144.484 23.292 144.496 23.784 144.52 24.192C144.552 24.592 144.608 24.92 144.688 25.176C144.776 25.424 144.896 25.608 145.048 25.728C145.208 25.84 145.416 25.896 145.672 25.896C145.928 25.896 146.132 25.84 146.284 25.728C146.444 25.608 146.564 25.424 146.644 25.176C146.732 24.92 146.788 24.592 146.812 24.192C146.844 23.784 146.86 23.292 146.86 22.716C146.86 22.14 146.844 21.652 146.812 21.252C146.788 20.852 146.732 20.524 146.644 20.268C146.564 20.012 146.444 19.828 146.284 19.716C146.132 19.596 145.928 19.536 145.672 19.536C145.416 19.536 145.208 19.596 145.048 19.716C144.896 19.828 144.776 20.012 144.688 20.268C144.608 20.524 144.552 20.852 144.52 21.252C144.496 21.652 144.484 22.14 144.484 22.716ZM142.756 22.716C142.756 22.068 142.784 21.472 142.84 20.928C142.904 20.376 143.036 19.904 143.236 19.512C143.444 19.12 143.74 18.816 144.124 18.6C144.508 18.376 145.024 18.264 145.672 18.264C146.32 18.264 146.836 18.376 147.22 18.6C147.604 18.816 147.896 19.12 148.096 19.512C148.304 19.904 148.436 20.376 148.492 20.928C148.556 21.472 148.588 22.068 148.588 22.716C148.588 23.372 148.556 23.972 148.492 24.516C148.436 25.06 148.304 25.528 148.096 25.92C147.896 26.312 147.604 26.612 147.22 26.82C146.836 27.028 146.32 27.132 145.672 27.132C145.024 27.132 144.508 27.028 144.124 26.82C143.74 26.612 143.444 26.312 143.236 25.92C143.036 25.528 142.904 25.06 142.84 24.516C142.784 23.972 142.756 23.372 142.756 22.716ZM150.996 24.324V24.576C150.996 24.776 151.012 24.96 151.044 25.128C151.076 25.288 151.136 25.424 151.224 25.536C151.312 25.648 151.428 25.736 151.572 25.8C151.724 25.864 151.912 25.896 152.136 25.896C152.4 25.896 152.636 25.812 152.844 25.644C153.06 25.468 153.168 25.2 153.168 24.84C153.168 24.648 153.14 24.484 153.084 24.348C153.036 24.204 152.952 24.076 152.832 23.964C152.712 23.852 152.552 23.752 152.352 23.664C152.16 23.568 151.92 23.472 151.632 23.376C151.248 23.248 150.916 23.108 150.636 22.956C150.356 22.804 150.12 22.628 149.928 22.428C149.744 22.22 149.608 21.984 149.52 21.72C149.432 21.448 149.388 21.136 149.388 20.784C149.388 19.936 149.624 19.304 150.096 18.888C150.568 18.472 151.216 18.264 152.04 18.264C152.424 18.264 152.776 18.308 153.096 18.396C153.424 18.476 153.704 18.612 153.936 18.804C154.176 18.988 154.36 19.228 154.488 19.524C154.624 19.812 154.692 20.16 154.692 20.568V20.808H153.036C153.036 20.4 152.964 20.088 152.82 19.872C152.676 19.648 152.436 19.536 152.1 19.536C151.908 19.536 151.748 19.564 151.62 19.62C151.492 19.676 151.388 19.752 151.308 19.848C151.236 19.936 151.184 20.04 151.152 20.16C151.128 20.28 151.116 20.404 151.116 20.532C151.116 20.796 151.172 21.02 151.284 21.204C151.396 21.38 151.636 21.544 152.004 21.696L153.336 22.272C153.664 22.416 153.932 22.568 154.14 22.728C154.348 22.88 154.512 23.048 154.632 23.232C154.76 23.408 154.848 23.604 154.896 23.82C154.944 24.036 154.968 24.276 154.968 24.54C154.968 25.444 154.704 26.104 154.176 26.52C153.656 26.928 152.928 27.132 151.992 27.132C151.016 27.132 150.316 26.92 149.892 26.496C149.476 26.072 149.268 25.464 149.268 24.672V24.324H150.996ZM157.219 24.324V24.576C157.219 24.776 157.235 24.96 157.267 25.128C157.299 25.288 157.359 25.424 157.447 25.536C157.535 25.648 157.651 25.736 157.795 25.8C157.947 25.864 158.135 25.896 158.359 25.896C158.623 25.896 158.859 25.812 159.067 25.644C159.283 25.468 159.391 25.2 159.391 24.84C159.391 24.648 159.363 24.484 159.307 24.348C159.259 24.204 159.175 24.076 159.055 23.964C158.935 23.852 158.775 23.752 158.575 23.664C158.383 23.568 158.143 23.472 157.855 23.376C157.471 23.248 157.139 23.108 156.859 22.956C156.579 22.804 156.343 22.628 156.151 22.428C155.967 22.22 155.831 21.984 155.743 21.72C155.655 21.448 155.611 21.136 155.611 20.784C155.611 19.936 155.847 19.304 156.319 18.888C156.791 18.472 157.439 18.264 158.263 18.264C158.647 18.264 158.999 18.308 159.319 18.396C159.647 18.476 159.927 18.612 160.159 18.804C160.399 18.988 160.583 19.228 160.711 19.524C160.847 19.812 160.915 20.16 160.915 20.568V20.808H159.259C159.259 20.4 159.187 20.088 159.043 19.872C158.899 19.648 158.659 19.536 158.323 19.536C158.131 19.536 157.971 19.564 157.843 19.62C157.715 19.676 157.611 19.752 157.531 19.848C157.459 19.936 157.407 20.04 157.375 20.16C157.351 20.28 157.339 20.404 157.339 20.532C157.339 20.796 157.395 21.02 157.507 21.204C157.619 21.38 157.859 21.544 158.227 21.696L159.559 22.272C159.887 22.416 160.155 22.568 160.363 22.728C160.571 22.88 160.735 23.048 160.855 23.232C160.983 23.408 161.071 23.604 161.119 23.82C161.167 24.036 161.191 24.276 161.191 24.54C161.191 25.444 160.927 26.104 160.399 26.52C159.879 26.928 159.151 27.132 158.215 27.132C157.239 27.132 156.539 26.92 156.115 26.496C155.699 26.072 155.491 25.464 155.491 24.672V24.324H157.219ZM166.837 18.432V19.848H163.777V21.864H166.657V23.28H163.777V25.584H166.957V27H162.049V18.432H166.837ZM131.988 32.928L130.812 31.2H132.468L133.116 32.928H131.988ZM131.496 38.772H133.176L132.348 34.92H132.324L131.496 38.772ZM131.268 33.432H133.404L135.672 42H133.872L133.476 40.188H131.196L130.8 42H129L131.268 33.432ZM140.963 40.728H141.731C142.035 40.728 142.279 40.676 142.463 40.572C142.647 40.468 142.791 40.296 142.895 40.056C143.007 39.816 143.079 39.5 143.111 39.108C143.151 38.716 143.171 38.228 143.171 37.644C143.171 37.156 143.155 36.728 143.123 36.36C143.091 35.992 143.023 35.688 142.919 35.448C142.823 35.2 142.675 35.016 142.475 34.896C142.283 34.768 142.023 34.704 141.695 34.704H140.963V40.728ZM139.235 33.432H142.067C142.667 33.432 143.151 33.532 143.519 33.732C143.887 33.924 144.171 34.204 144.371 34.572C144.579 34.932 144.719 35.368 144.791 35.88C144.863 36.392 144.899 36.964 144.899 37.596C144.899 38.348 144.851 39.004 144.755 39.564C144.667 40.116 144.511 40.572 144.287 40.932C144.063 41.292 143.763 41.56 143.387 41.736C143.011 41.912 142.535 42 141.959 42H139.235V33.432ZM150.829 33.432V34.848H147.769V36.864H150.649V38.28H147.769V40.584H150.949V42H146.041V33.432H150.829ZM153.811 33.432L155.899 39.3H155.923V33.432H157.507V42H155.539L153.427 36H153.403V42H151.819V33.432H153.811ZM163.725 33.432V34.848H161.853V42H160.125V34.848H158.253V33.432H163.725ZM165.867 39.324V39.576C165.867 39.776 165.883 39.96 165.915 40.128C165.947 40.288 166.007 40.424 166.095 40.536C166.183 40.648 166.299 40.736 166.443 40.8C166.595 40.864 166.783 40.896 167.007 40.896C167.271 40.896 167.507 40.812 167.715 40.644C167.931 40.468 168.039 40.2 168.039 39.84C168.039 39.648 168.011 39.484 167.955 39.348C167.907 39.204 167.823 39.076 167.703 38.964C167.583 38.852 167.423 38.752 167.223 38.664C167.031 38.568 166.791 38.472 166.503 38.376C166.119 38.248 165.787 38.108 165.507 37.956C165.227 37.804 164.991 37.628 164.799 37.428C164.615 37.22 164.479 36.984 164.391 36.72C164.303 36.448 164.259 36.136 164.259 35.784C164.259 34.936 164.495 34.304 164.967 33.888C165.439 33.472 166.087 33.264 166.911 33.264C167.295 33.264 167.647 33.308 167.967 33.396C168.295 33.476 168.575 33.612 168.807 33.804C169.047 33.988 169.231 34.228 169.359 34.524C169.495 34.812 169.563 35.16 169.563 35.568V35.808H167.907C167.907 35.4 167.835 35.088 167.691 34.872C167.547 34.648 167.307 34.536 166.971 34.536C166.779 34.536 166.619 34.564 166.491 34.62C166.363 34.676 166.259 34.752 166.179 34.848C166.107 34.936 166.055 35.04 166.023 35.16C165.999 35.28 165.987 35.404 165.987 35.532C165.987 35.796 166.043 36.02 166.155 36.204C166.267 36.38 166.507 36.544 166.875 36.696L168.207 37.272C168.535 37.416 168.803 37.568 169.011 37.728C169.219 37.88 169.383 38.048 169.503 38.232C169.631 38.408 169.719 38.604 169.767 38.82C169.815 39.036 169.839 39.276 169.839 39.54C169.839 40.444 169.575 41.104 169.047 41.52C168.527 41.928 167.799 42.132 166.863 42.132C165.887 42.132 165.187 41.92 164.763 41.496C164.347 41.072 164.139 40.464 164.139 39.672V39.324H165.867Z" fill="black"/>
<path fill-rule="evenodd" clip-rule="evenodd" d="M211.197 12.9917C210.489 12.7271 209.997 12.6406 209.67 12.6452C209.338 12.6499 209.233 12.7457 209.211 12.7697C209.191 12.7911 209.158 12.8426 209.156 12.9856C209.155 13.0935 209.173 13.2211 209.209 13.3514L213.625 17.6963H216.528C217.034 17.0728 218.172 15.8497 220.078 14.1794C220.602 13.7203 220.792 13.4037 220.848 13.2371C220.879 13.1441 220.868 13.1284 220.843 13.0951L220.839 13.0896C220.774 13.001 220.62 12.8791 220.352 12.7673C220.11 12.6663 219.831 12.5973 219.575 12.5601C219.389 12.5649 219.251 12.6081 219.006 12.6965L218.957 12.7142C218.87 12.7457 218.807 12.7781 218.743 12.811C218.611 12.8791 218.474 12.9492 218.116 13.0172C217.548 13.1251 217.141 13.1334 216.683 13.0237C216.386 12.9524 216.057 12.826 215.66 12.6733L215.66 12.6732L215.66 12.6732C215.522 12.6199 215.375 12.5634 215.218 12.505L215.215 12.5046C215.205 12.5034 215.171 12.4992 215.103 12.5017C215.005 12.5053 214.878 12.5207 214.721 12.5484C214.412 12.603 214.047 12.694 213.66 12.7904L213.637 12.7962C213.255 12.8913 212.848 12.9925 212.508 13.0468C212.338 13.0739 212.162 13.0935 211.999 13.0896C211.986 13.0893 211.969 13.0891 211.947 13.0889H211.947C211.777 13.0872 211.364 13.0832 211.197 12.9917ZM213.237 11.3164C212.706 11.4374 211.732 11.5442 211.732 11.5442C211.164 11.5236 210.749 11.4099 210.402 11.3145C210.125 11.2386 209.891 11.1743 209.654 11.1777C209.117 11.1852 208.651 11.3462 208.316 11.7135C207.98 12.0836 207.873 12.5579 207.868 12.9653C207.863 13.3667 207.954 13.7551 208.067 14.0649L208.126 14.2248L212.043 18.0789C210.564 18.4041 208.986 19.063 207.531 20.2082C204.761 22.3897 202.542 26.2534 202.227 32.6479C202.207 33.0641 202.184 33.4866 202.161 33.912C202.068 35.6616 201.972 37.462 202.008 39.0902C202.052 41.0844 202.292 43.0034 203.107 44.3151C204.572 46.6711 206.968 47.8112 209.268 48.348C211.56 48.883 213.85 48.8422 215.268 48.7579C216.563 48.7331 218.698 48.6558 220.887 48.1961C223.067 47.7382 225.413 46.8786 227.016 45.2058C228.305 43.8598 228.744 41.8774 228.878 39.7527C228.983 38.0805 228.904 36.1896 228.823 34.2644L228.823 34.2638C228.8 33.7301 228.778 33.1937 228.759 32.6587C228.548 26.6489 226.338 22.879 223.569 20.6473C221.772 19.1991 219.772 18.4248 218.001 18.0891C218.574 17.4656 219.506 16.5318 220.863 15.3427C221.456 14.8235 221.868 14.3043 222.051 13.7626C222.256 13.1522 222.144 12.5834 221.83 12.152C221.553 11.7717 221.15 11.5369 220.794 11.3889C220.425 11.2351 220.029 11.1428 219.687 11.097L219.649 11.092H219.611C219.197 11.092 218.898 11.1959 218.617 11.2976L218.57 11.3145C218.314 11.4071 218.037 11.5078 217.597 11.5912C217.212 11.6645 217.189 11.6582 217.042 11.6184L217.042 11.6184C217.013 11.6105 216.98 11.6013 216.937 11.5912C216.72 11.539 216.496 11.4529 216.141 11.3164C216.127 11.311 216.103 11.2985 216.069 11.2814C215.905 11.1967 215.523 11 215.086 11C214.442 11 213.825 11.163 213.453 11.2614L213.453 11.2614L213.453 11.2615L213.453 11.2615C213.367 11.2841 213.295 11.3034 213.237 11.3164ZM208.478 21.4108C206.129 23.2603 204.054 26.6676 203.756 32.7231C203.735 33.1559 203.712 33.5897 203.689 34.0222C203.596 35.7668 203.504 37.492 203.538 39.0565C203.582 41.0386 203.83 42.5793 204.407 43.5068C205.575 45.3858 207.528 46.37 209.616 46.8573C211.702 47.3443 213.827 47.3108 215.192 47.2289L215.207 47.228L215.223 47.2277C216.495 47.2037 218.521 47.1289 220.572 46.6981C222.641 46.2636 224.624 45.489 225.91 44.1468C226.806 43.2119 227.221 41.7042 227.35 39.6564C227.45 38.0726 227.375 36.2919 227.295 34.3813C227.272 33.835 227.249 33.2782 227.229 32.7124C227.032 27.0884 224.989 23.7575 222.609 21.8391C220.802 20.3832 218.757 19.7053 217.07 19.4905C218.467 20.9563 220.051 22.4306 220.916 22.9628L220.114 24.2664C219.751 23.9038 219.206 23.4291 218.577 22.8815L218.577 22.8815C217.672 22.0929 216.593 21.1533 215.636 20.1804C215.589 20.8038 215.548 21.5006 215.531 22.1621C215.516 22.7319 215.52 23.2613 215.55 23.6891C215.565 23.9031 215.586 24.0802 215.611 24.218C215.624 24.2864 215.636 24.3394 215.648 24.3787C215.659 24.4162 215.666 24.4328 215.667 24.4343L215.777 25.0318L214.298 25.119C214.12 24.7626 214.055 24.2519 214.023 23.7962C213.988 23.2997 213.985 22.7161 214.001 22.123C214.013 21.6509 214.036 21.1638 214.066 20.6965C212.822 21.8971 211.513 22.9378 210.548 23.7056L210.547 23.7058L210.547 23.7061C210.412 23.8133 210.284 23.9151 210.164 24.0113L209.362 22.7076C210.212 22.115 211.785 20.8255 213.179 19.4313C211.695 19.6286 210.007 20.2073 208.478 21.4108Z" fill="white"/>
</g>
<defs>
<clipPath id="clip0_66_2511">
<rect width="245" height="61" fill="white"/>
</clipPath>
</defs>
</svg>
