<svg width="270" height="61" viewBox="0 0 270 61" fill="none" xmlns="http://www.w3.org/2000/svg">
<path d="M24.6979 60.4688C11.0781 60.4688 0 49.5208 0 36.0625V0H234.948C248.563 0 259.641 10.9479 259.641 24.4062V60.4688" fill="white"/>
<path d="M222.083 52.9114H69.1353C59.6874 52.9114 51.9999 45.3541 51.9999 36.0625V7.55725H204.948C214.396 7.55725 222.083 15.1145 222.083 24.4062V52.9114ZM204.948 5.66663H50.1145V36.0625C50.1145 46.3958 58.6458 54.802 69.1353 54.802H223.969V24.4062C223.969 14.0729 215.437 5.66663 204.948 5.66663Z" fill="#629D5E"/>
<path d="M196.714 54.802L209.724 28.2239L196.432 5.66663H234.948C245.437 5.66663 253.969 14.0729 253.969 24.4062V54.802" fill="#629D5E"/>
<path d="M102.901 5.66663H50.1145V36.0625C50.1145 46.3958 58.6458 54.802 69.1353 54.802H121.927V24.4062C121.927 14.0729 113.391 5.66663 102.901 5.66663Z" fill="#629D5E"/>
<path d="M63.651 29.3594C58.8489 29.3594 54.9583 33.25 54.9583 38.0521C54.9583 42.8542 58.8489 46.7448 63.651 46.7448C68.4583 46.7448 72.3489 42.8542 72.3489 38.0521C72.3489 33.25 68.4583 29.3594 63.651 29.3594Z" fill="white"/>
<path d="M69.3229 39.4688H65.0729V43.7188H62.2344V39.4688H57.9844V36.6355H62.2344V32.3802H65.0729V36.6355H69.3229" fill="#1C1C1B"/>
<path d="M55.7864 26.5937V17.1979H58.2708V24.5156H61.828V26.5937" fill="#1C1C1B"/>
<path d="M62.9426 26.5937V17.1979H69.0155V19.276H65.4322V20.7552H68.4947V22.8385H65.4322V24.5156H69.1614V26.5937" fill="#1C1C1B"/>
<path d="M75.0885 26.5937V19.276H72.6041V17.1979H80.0677V19.276H77.5781V26.5937" fill="#1C1C1B"/>
<path d="M83.5521 21.4739H84.4479C85.4479 21.4739 85.9531 21.0625 85.9531 20.2343C85.9531 19.8281 85.8229 19.5468 85.5677 19.3958C85.3125 19.2395 84.9375 19.1614 84.4479 19.1614H83.5521V21.4739ZM81.0625 26.5989V17.1979H84.6198C85.125 17.1979 85.6042 17.2448 86.0625 17.3385C86.5208 17.4375 86.9167 17.5989 87.2604 17.8333C87.6042 18.0625 87.875 18.375 88.0781 18.7656C88.2813 19.1562 88.3802 19.6458 88.3802 20.2343C88.3802 20.9062 88.2448 21.4687 87.9688 21.9114C87.6979 22.3541 87.3281 22.6979 86.8646 22.9531L88.901 26.5989H86.125L84.5052 23.4427H83.5521V26.5989" fill="#1C1C1B"/>
<path d="M89.8698 26.5989H92.3593V17.1979H89.8698V26.5989Z" fill="#1C1C1B"/>
<path d="M75.3801 43.276V33.8698H81.5103V35.9531H77.8697V37.75H80.9895V39.8333H77.8697V43.276" fill="#1C1C1B"/>
<path d="M84.9218 38.7031L84.7604 39.3541H86.4948L86.3385 38.7031C86.2239 38.25 86.1041 37.7604 85.9895 37.2291C85.875 36.6979 85.7604 36.1979 85.6406 35.7239H85.5833C85.4791 36.2031 85.3698 36.7083 85.2604 37.2343C85.151 37.7604 85.0364 38.25 84.9218 38.7031ZM81.3073 43.276L84.1666 33.8698H87.1718L90.0364 43.276H87.4062L86.9427 41.276H84.3125L83.8489 43.276" fill="#1C1C1B"/>
<path d="M94.5624 43.4479C93.9687 43.4479 93.3958 43.3489 92.8541 43.151C92.3072 42.9531 91.8333 42.651 91.4218 42.2552C91.0103 41.8541 90.6822 41.3541 90.4426 40.75C90.203 40.1458 90.0833 39.4479 90.0833 38.6458C90.0833 37.8541 90.2083 37.151 90.4583 36.5416C90.7083 35.927 91.0416 35.4114 91.4635 34.9948C91.8801 34.5729 92.3645 34.25 92.9114 34.0312C93.4583 33.8073 94.026 33.6979 94.6249 33.6979C95.2499 33.6979 95.8124 33.8229 96.302 34.0677C96.7968 34.3125 97.2083 34.6041 97.5468 34.9427L96.2447 36.5312C96.0155 36.3333 95.776 36.1666 95.5312 36.0312C95.2812 35.9062 94.9999 35.8385 94.6822 35.8385C94.401 35.8385 94.1405 35.901 93.8958 36.026C93.651 36.151 93.4322 36.3333 93.2447 36.5625C93.0572 36.7916 92.9062 37.0781 92.7968 37.4166C92.6822 37.75 92.6301 38.1354 92.6301 38.5573C92.6301 39.4479 92.8124 40.125 93.1874 40.5989C93.5572 41.0677 94.0468 41.3073 94.651 41.3073C95.0208 41.3073 95.3437 41.2291 95.6301 41.0677C95.9114 40.9062 96.1562 40.7187 96.3593 40.4948L97.6614 42.0573C97.2551 42.5208 96.7916 42.8698 96.2655 43.0989C95.7395 43.3333 95.1718 43.4479 94.5624 43.4479Z" fill="#1C1C1B"/>
<path d="M98.6198 43.276H101.104V33.8698H98.6198V43.276Z" fill="#1C1C1B"/>
<path d="M102.875 43.276V33.8698H105.365V41.1927H108.922V43.276" fill="#1C1C1B"/>
<path d="M110.031 43.276V33.8698H116.109V35.9531H112.521V37.4323H115.589V39.5156H112.521V41.1927H116.255V43.276" fill="#1C1C1B"/>
<path d="M28.4062 25.7448C26.7135 28.2343 28.151 31.5104 29.8958 33.1718C31.4895 34.6823 32.7655 35.0364 32.9322 35.0781L33.7447 33.5208L36.0885 39.9323L29.4635 41.2812L30.3437 39.6458L29.4478 39.1458C26.6562 37.3281 26.0676 34.8593 25.8749 34.0885C25.5416 32.7604 25.0468 28.7864 28.4062 25.7448Z" fill="#629D5E"/>
<path d="M28.375 25.8489C29.5781 28.6093 33.1146 29.1406 35.4479 28.552C37.5208 28.026 38.5052 27.1718 38.6719 27.0156L38.6615 27L37.776 25.4635L44.4427 26.9218L42.0313 33.2395L41.1354 31.6458L40.2656 32.1198C37.2396 33.5104 34.8333 32.6927 34.0781 32.4427C32.7813 32.0156 29.1562 30.3125 28.375 25.8489Z" fill="#629D5E"/>
<path d="M40.1613 19.1927C39.6978 22.4895 37.7134 24.0729 37.0936 24.5729C36.0311 25.4375 32.6457 27.5677 28.4634 25.8177C31.4373 26.2916 33.7967 23.6041 34.5571 21.3177C35.2446 19.2656 35.0415 17.9687 34.9998 17.7708L34.979 17.7656L33.2134 17.6927L38.0259 12.8541L42.0519 18.2864L40.2342 18.1823" fill="#629D5E"/>
<path fill-rule="evenodd" clip-rule="evenodd" d="M19.9375 16.4115C18.4167 16.4115 17.1875 15.1823 17.1875 13.6563C17.1875 12.1354 18.4167 10.9062 19.9375 10.9062C21.4583 10.9062 22.6927 12.1354 22.6927 13.6563C22.6927 15.1823 21.4583 16.4115 19.9375 16.4115Z" fill="#629D5E"/>
<path d="M15.6771 29.7968C15.9115 29.151 16.2604 29.1927 16.2604 29.1927C16.2604 29.1927 16.5781 29.125 16.7552 29.7708L19.3281 38.8073C17.1823 38.1823 15.224 37.1198 13.5573 35.7083L15.6771 29.7968ZM23.7031 5.66663C13.7604 5.66663 5.67188 13.7552 5.67188 23.6979C5.67188 33.6406 13.7604 41.7291 23.7031 41.7291C24.2344 41.7291 24.7552 41.6979 25.276 41.651L25.3958 43.4635L28.6979 40.2708L25.0052 37.4531L25.1458 39.3541C24.6719 39.401 24.1875 39.4323 23.7031 39.4323C22.9375 39.4323 22.1875 39.375 21.4531 39.2656L21.3802 38.7864L19.6667 24.1875C19.4323 21.4323 21.0052 20.9948 21.9792 21.4062L27.4479 23.6041C28.0729 23.875 28.375 23.3489 28.375 23.3489C28.375 23.3489 28.7292 22.802 28.0938 22.3958C28.0938 22.3958 20.6406 17.4583 19.0521 17.1562C16.8854 16.7552 14.7396 18.5104 14.2656 20.7968L11.6198 33.7604C9.34375 31.0312 7.96875 27.5208 7.96875 23.6979C7.96875 15.0208 15.026 7.9635 23.7031 7.9635C28.3385 7.9635 32.5104 9.97913 35.3906 13.177L37.0052 11.5364C33.7083 7.93225 28.9635 5.66663 23.7031 5.66663Z" fill="#629D5E"/>
<path d="M131.328 33.728H132C132.416 33.728 132.752 33.636 133.008 33.452C133.264 33.268 133.392 32.928 133.392 32.432C133.392 32.184 133.356 31.98 133.284 31.82C133.22 31.652 133.128 31.52 133.008 31.424C132.896 31.32 132.76 31.248 132.6 31.208C132.44 31.168 132.264 31.148 132.072 31.148H131.328V33.728ZM131.328 29.948H131.82C132.3 29.948 132.648 29.864 132.864 29.696C133.088 29.52 133.2 29.228 133.2 28.82C133.2 28.412 133.1 28.124 132.9 27.956C132.7 27.788 132.384 27.704 131.952 27.704H131.328V29.948ZM129.6 26.432H132.492C132.844 26.432 133.168 26.468 133.464 26.54C133.768 26.612 134.028 26.732 134.244 26.9C134.46 27.068 134.628 27.292 134.748 27.572C134.868 27.852 134.928 28.196 134.928 28.604C134.928 29.068 134.82 29.468 134.604 29.804C134.388 30.132 134.064 30.356 133.632 30.476V30.5C134.112 30.564 134.492 30.768 134.772 31.112C135.052 31.456 135.192 31.916 135.192 32.492C135.192 32.828 135.148 33.148 135.06 33.452C134.972 33.756 134.82 34.024 134.604 34.256C134.396 34.48 134.12 34.66 133.776 34.796C133.44 34.932 133.02 35 132.516 35H129.6V26.432ZM136.268 26.432H139.46C140.18 26.432 140.74 26.616 141.14 26.984C141.54 27.344 141.74 27.896 141.74 28.64C141.74 29.216 141.624 29.688 141.392 30.056C141.16 30.416 140.8 30.648 140.312 30.752V30.776C140.744 30.84 141.06 30.98 141.26 31.196C141.46 31.412 141.584 31.76 141.632 32.24C141.648 32.4 141.66 32.576 141.668 32.768C141.676 32.952 141.684 33.16 141.692 33.392C141.708 33.848 141.732 34.196 141.764 34.436C141.812 34.676 141.916 34.84 142.076 34.928V35H140.204C140.116 34.88 140.06 34.744 140.036 34.592C140.012 34.432 139.996 34.268 139.988 34.1L139.94 32.456C139.924 32.12 139.84 31.856 139.688 31.664C139.536 31.472 139.28 31.376 138.92 31.376H137.996V35H136.268V26.432ZM137.996 30.176H138.716C139.132 30.176 139.452 30.08 139.676 29.888C139.9 29.688 140.012 29.356 140.012 28.892C140.012 28.1 139.612 27.704 138.812 27.704H137.996V30.176ZM146.512 31.772L145.684 27.92H145.66L144.832 31.772H146.512ZM146.74 26.432L149.008 35H147.208L146.812 33.188H144.532L144.136 35H142.336L144.604 26.432H146.74ZM151.596 26.432L153.684 32.3H153.708V26.432H155.292V35H153.324L151.212 29H151.188V35H149.604V26.432H151.596ZM160.155 29.324C160.155 28.7 160.079 28.248 159.927 27.968C159.783 27.68 159.515 27.536 159.123 27.536C158.907 27.536 158.727 27.596 158.583 27.716C158.447 27.828 158.339 28.016 158.259 28.28C158.179 28.536 158.123 28.876 158.091 29.3C158.059 29.716 158.043 30.228 158.043 30.836C158.043 31.484 158.063 32.008 158.103 32.408C158.151 32.808 158.219 33.12 158.307 33.344C158.403 33.56 158.519 33.708 158.655 33.788C158.799 33.86 158.963 33.896 159.147 33.896C159.299 33.896 159.439 33.872 159.567 33.824C159.703 33.768 159.819 33.664 159.915 33.512C160.011 33.352 160.087 33.132 160.143 32.852C160.199 32.564 160.227 32.188 160.227 31.724H161.955C161.955 32.188 161.919 32.628 161.847 33.044C161.775 33.46 161.639 33.824 161.439 34.136C161.247 34.448 160.971 34.692 160.611 34.868C160.259 35.044 159.799 35.132 159.231 35.132C158.583 35.132 158.067 35.028 157.683 34.82C157.299 34.612 157.003 34.312 156.795 33.92C156.595 33.528 156.463 33.06 156.399 32.516C156.343 31.972 156.315 31.372 156.315 30.716C156.315 30.068 156.343 29.472 156.399 28.928C156.463 28.376 156.595 27.904 156.795 27.512C157.003 27.12 157.299 26.816 157.683 26.6C158.067 26.376 158.583 26.264 159.231 26.264C159.847 26.264 160.331 26.364 160.683 26.564C161.043 26.764 161.311 27.02 161.487 27.332C161.663 27.636 161.771 27.968 161.811 28.328C161.859 28.68 161.883 29.012 161.883 29.324H160.155ZM162.94 26.432H164.668V29.708H166.684V26.432H168.412V35H166.684V31.196H164.668V35H162.94V26.432ZM173.184 31.772L172.356 27.92H172.332L171.504 31.772H173.184ZM173.412 26.432L175.68 35H173.88L173.484 33.188H171.204L170.808 35H169.008L171.276 26.432H173.412ZM180.08 28.976C180.08 28.816 180.06 28.652 180.02 28.484C179.988 28.316 179.932 28.164 179.852 28.028C179.772 27.884 179.668 27.768 179.54 27.68C179.42 27.584 179.272 27.536 179.096 27.536C178.68 27.536 178.38 27.768 178.196 28.232C178.012 28.696 177.92 29.464 177.92 30.536C177.92 31.048 177.936 31.512 177.968 31.928C178 32.344 178.056 32.7 178.136 32.996C178.224 33.284 178.344 33.508 178.496 33.668C178.656 33.82 178.86 33.896 179.108 33.896C179.212 33.896 179.324 33.868 179.444 33.812C179.572 33.756 179.688 33.672 179.792 33.56C179.904 33.448 179.996 33.308 180.068 33.14C180.14 32.964 180.176 32.76 180.176 32.528V31.652H179.036V30.38H181.832V35H180.56V34.208H180.536C180.328 34.544 180.076 34.784 179.78 34.928C179.492 35.064 179.144 35.132 178.736 35.132C178.208 35.132 177.776 35.04 177.44 34.856C177.112 34.672 176.852 34.388 176.66 34.004C176.476 33.62 176.352 33.148 176.288 32.588C176.224 32.02 176.192 31.364 176.192 30.62C176.192 29.9 176.236 29.268 176.324 28.724C176.42 28.18 176.58 27.728 176.804 27.368C177.028 27 177.324 26.724 177.692 26.54C178.06 26.356 178.52 26.264 179.072 26.264C180.016 26.264 180.696 26.5 181.112 26.972C181.528 27.436 181.736 28.104 181.736 28.976H180.08ZM187.732 26.432V27.848H184.672V29.864H187.552V31.28H184.672V33.584H187.852V35H182.944V26.432H187.732ZM190.113 32.324V32.576C190.113 32.776 190.129 32.96 190.161 33.128C190.193 33.288 190.253 33.424 190.341 33.536C190.429 33.648 190.545 33.736 190.689 33.8C190.841 33.864 191.029 33.896 191.253 33.896C191.517 33.896 191.753 33.812 191.961 33.644C192.177 33.468 192.285 33.2 192.285 32.84C192.285 32.648 192.257 32.484 192.201 32.348C192.153 32.204 192.069 32.076 191.949 31.964C191.829 31.852 191.669 31.752 191.469 31.664C191.277 31.568 191.037 31.472 190.749 31.376C190.365 31.248 190.033 31.108 189.753 30.956C189.473 30.804 189.237 30.628 189.045 30.428C188.861 30.22 188.725 29.984 188.637 29.72C188.549 29.448 188.505 29.136 188.505 28.784C188.505 27.936 188.741 27.304 189.213 26.888C189.685 26.472 190.333 26.264 191.157 26.264C191.541 26.264 191.893 26.308 192.213 26.396C192.541 26.476 192.821 26.612 193.053 26.804C193.293 26.988 193.477 27.228 193.605 27.524C193.741 27.812 193.809 28.16 193.809 28.568V28.808H192.153C192.153 28.4 192.081 28.088 191.937 27.872C191.793 27.648 191.553 27.536 191.217 27.536C191.025 27.536 190.865 27.564 190.737 27.62C190.609 27.676 190.505 27.752 190.425 27.848C190.353 27.936 190.301 28.04 190.269 28.16C190.245 28.28 190.233 28.404 190.233 28.532C190.233 28.796 190.289 29.02 190.401 29.204C190.513 29.38 190.753 29.544 191.121 29.696L192.453 30.272C192.781 30.416 193.049 30.568 193.257 30.728C193.465 30.88 193.629 31.048 193.749 31.232C193.877 31.408 193.965 31.604 194.013 31.82C194.061 32.036 194.085 32.276 194.085 32.54C194.085 33.444 193.821 34.104 193.293 34.52C192.773 34.928 192.045 35.132 191.109 35.132C190.133 35.132 189.433 34.92 189.009 34.496C188.593 34.072 188.385 33.464 188.385 32.672V32.324H190.113Z" fill="black"/>
<path d="M222.337 36.8405L216.602 36.8342C216.276 36.8342 216.006 36.5707 216.006 36.2444L216 30.5407C216 30.3023 216.144 30.0827 216.37 29.9948C216.59 29.9007 216.847 29.9509 217.016 30.1203L218.14 31.2372L227.803 21.6181C228.035 21.3923 228.411 21.3923 228.643 21.6181L231.304 24.2661C231.417 24.379 231.48 24.5233 231.48 24.6865C231.48 24.8433 231.417 24.9939 231.304 25.1069L221.641 34.7134L222.758 35.8303C222.927 35.9997 222.977 36.257 222.883 36.4766C222.795 36.6962 222.576 36.8405 222.337 36.8405ZM217.198 35.6483L220.894 35.6546L220.373 35.1338C220.141 34.9016 220.141 34.5252 220.373 34.293L230.036 24.6865L228.223 22.8794L218.56 32.4922C218.328 32.7243 217.951 32.7243 217.719 32.4922L217.192 31.9776" fill="black"/>
<path d="M234.473 28.2442C234.015 28.2442 233.575 28.0685 233.237 27.7548C232.885 27.4285 232.684 26.983 232.666 26.4998L232.578 23.7704L233.77 23.7327L233.858 26.4622C233.864 26.6253 233.933 26.7759 234.052 26.8889C234.171 27.0018 234.341 27.0457 234.498 27.0583C234.661 27.052 234.811 26.983 234.924 26.8638C235.037 26.7446 235.094 26.5877 235.088 26.4245L234.956 22.7852L236.148 22.7476L236.28 26.3806C236.299 26.8638 236.129 27.3218 235.797 27.6732C235.464 28.0246 235.019 28.2254 234.535 28.2379C234.51 28.2442 234.491 28.2442 234.473 28.2442Z" fill="black"/>
<path d="M234.473 28.2442C234.015 28.2442 233.575 28.0685 233.237 27.7548C232.885 27.4285 232.684 26.983 232.666 26.4998L232.578 23.7704L233.77 23.7327L233.858 26.4622C233.864 26.6253 233.933 26.7759 234.052 26.8889C234.171 27.0018 234.341 27.0457 234.498 27.0583C234.661 27.052 234.811 26.983 234.924 26.8638C235.037 26.7446 235.094 26.5877 235.088 26.4245L234.956 22.7852L236.148 22.7476L236.28 26.3806C236.299 26.8638 236.129 27.3218 235.797 27.6732C235.464 28.0246 235.019 28.2254 234.535 28.2379C234.51 28.2442 234.491 28.2442 234.473 28.2442Z" fill="black"/>
<path d="M232.063 28.6521C231.599 28.6521 231.166 28.4827 230.827 28.1689C230.476 27.8364 230.269 27.3909 230.256 26.9077L230.168 24.1782L231.36 24.1406L231.448 26.8701C231.455 27.0395 231.524 27.1901 231.643 27.303C231.762 27.416 231.919 27.485 232.082 27.4662C232.421 27.4536 232.691 27.1712 232.678 26.8324L232.546 23.1994L233.739 23.1555L233.87 26.7885C233.908 27.7862 233.124 28.6144 232.126 28.6521C232.101 28.6521 232.082 28.6521 232.063 28.6521Z" fill="black"/>
<path d="M234.115 36.853C233.87 36.853 233.651 36.7024 233.563 36.4828C233.469 36.2632 233.519 36.0059 233.688 35.8365L234.811 34.7196L225.148 25.1068C224.916 24.881 224.916 24.5045 225.148 24.2723L227.803 21.6244C228.022 21.4048 228.424 21.4048 228.643 21.6244L238.733 31.6576L237.886 32.4984L228.223 22.8856L226.41 24.6927L236.073 34.2992C236.311 34.5314 236.311 34.9142 236.073 35.14L235.552 35.6608H239.248L239.254 30.547H240.446L240.44 36.2507C240.44 36.5769 240.176 36.8405 239.844 36.8405L234.115 36.853Z" fill="black"/>
<path d="M228.198 41.3646C228.041 41.3646 227.891 41.3081 227.771 41.1889L223.718 37.1668C223.548 36.9974 223.498 36.7401 223.586 36.5205C223.68 36.2946 223.9 36.1503 224.138 36.1503H225.726V25.1069C225.726 24.7806 225.989 24.5108 226.322 24.5108H230.08C230.407 24.5108 230.677 24.7806 230.677 25.1069V36.7464H229.484V25.703H226.918V36.7464C226.918 37.0727 226.648 37.3362 226.322 37.3362H225.581L228.198 39.934L231.831 36.326L232.678 37.1668L228.618 41.1889C228.499 41.3081 228.349 41.3646 228.198 41.3646Z" fill="black"/>
<path d="M222.331 36.8405L216.602 36.8342C216.276 36.8342 216.006 36.5707 216.006 36.2444L216 30.5407C216 30.3023 216.144 30.0827 216.37 29.9948C216.59 29.9007 216.847 29.9509 217.016 30.1203L218.14 31.2372L227.803 21.6181C228.035 21.3923 228.411 21.3923 228.643 21.6181L231.304 24.2661C231.417 24.379 231.48 24.5233 231.48 24.6865C231.48 24.8433 231.417 24.9939 231.304 25.1069L221.214 35.1338L220.373 34.293L230.036 24.6865L228.223 22.8794L218.56 32.4922C218.328 32.7243 217.951 32.7243 217.719 32.4922L217.192 31.9776L217.198 35.6483L222.337 35.6546" fill="black"/>
<path d="M241.927 19.8236C241.494 19.8236 241.086 19.6542 240.779 19.353L235.182 13.7811C234.874 13.4799 234.705 13.0721 234.705 12.6454C234.705 12.2124 234.874 11.8109 235.175 11.5034L236.631 10.0539C237.246 9.45158 238.313 9.45158 238.928 10.0539L244.525 15.6259C245.158 16.2533 245.158 17.2761 244.525 17.9036L243.069 19.353C242.762 19.6542 242.36 19.8236 241.927 19.8236ZM237.779 10.7693C237.666 10.7693 237.56 10.8195 237.478 10.8948V10.901L236.023 12.3442C235.941 12.4258 235.897 12.5324 235.897 12.6454C235.897 12.7583 235.941 12.865 236.023 12.9403L241.62 18.5122C241.783 18.6754 242.065 18.6691 242.228 18.5122L243.684 17.069C243.847 16.8996 243.847 16.6298 243.678 16.4667L238.081 10.901C237.999 10.8195 237.892 10.7693 237.779 10.7693Z" fill="black"/>
<path d="M236 29.5L231.5 25.5L230.5 26.5L230 28.5L233 32.5L236 29.5Z" fill="#629D5E"/>
<path d="M234.115 36.853C233.87 36.853 233.651 36.7024 233.563 36.4828C233.469 36.2632 233.519 36.0059 233.688 35.8365L234.811 34.7196L225.148 25.1068C224.916 24.881 224.916 24.5045 225.148 24.2723L227.803 21.6244C228.022 21.4048 228.424 21.4048 228.643 21.6244L238.313 31.2435L239.43 30.1266C239.599 29.9572 239.856 29.907 240.082 30.0011C240.302 30.0889 240.446 30.3085 240.446 30.547L240.44 36.2507C240.44 36.5769 240.176 36.8405 239.844 36.8405L234.115 36.853ZM226.41 24.6927L236.073 34.2992C236.311 34.5314 236.311 34.9142 236.073 35.14L235.552 35.6608H239.248L239.254 31.9839L238.733 32.4984C238.501 32.7306 238.124 32.7306 237.886 32.4984L228.223 22.8856" fill="black"/>
<path d="M224.5 37H226.5V25.5H230L230.5 37H231.5L228 41L224.5 37Z" fill="#629D5E"/>
<path d="M228.198 41.3646C228.041 41.3646 227.891 41.3081 227.778 41.1889L223.718 37.1668C223.548 36.9974 223.498 36.7401 223.586 36.5205C223.68 36.2946 223.9 36.1503 224.138 36.1503H225.726V25.1069C225.726 24.7806 225.989 24.5108 226.322 24.5108H230.08C230.407 24.5108 230.677 24.7806 230.677 25.1069V36.1503H232.251C232.496 36.1503 232.716 36.2946 232.804 36.5205C232.898 36.7401 232.848 36.9974 232.678 37.1668L228.618 41.1889C228.499 41.3081 228.349 41.3646 228.198 41.3646ZM225.581 37.3362L228.198 39.934L230.815 37.3362H230.08C229.748 37.3362 229.484 37.0727 229.484 36.7464V25.703H226.918V36.7464C226.918 37.0727 226.648 37.3362 226.322 37.3362" fill="black"/>
<path d="M230.501 22.0825L227.803 25.6841C227.345 26.2928 227.47 27.1587 228.085 27.6105C228.694 28.0685 229.566 27.943 230.024 27.3344L231.706 25.088C232.377 24.2096 233.13 23.8833 233.494 23.7892C234.303 23.5758 236.738 22.666 238.043 21.8817C239.342 21.0911 240.013 19.2589 239.944 17.6839L236.06 13.8187L227.815 16.3788C226.811 16.7176 226.447 17.2886 226.297 17.6275C226.146 17.9726 224.502 21.8378 224.502 21.8378C224.314 22.3209 224.207 22.8982 224.483 23.3876C224.759 23.877 225.387 24.8559 225.387 24.8559L227.2 23.0488C227.2 23.0488 227.131 22.0511 227.363 21.5366C227.602 21.0283 227.853 20.1812 228.393 19.9867C228.926 19.7985 229.861 19.4973 229.861 19.4973C229.861 19.4973 229.779 20.564 229.967 21.135C230.162 21.706 230.457 22.0448 230.457 22.0448" fill="#629D5E"/>
<path d="M228.913 28.4826C228.487 28.4826 228.072 28.3446 227.727 28.0873C227.301 27.7736 227.025 27.3093 226.949 26.7885C226.88 26.2677 227.012 25.7469 227.332 25.3265L229.76 22.0825C229.641 21.8879 229.509 21.637 229.403 21.3232C229.309 21.0283 229.265 20.6581 229.252 20.3255C229.02 20.4008 228.782 20.4824 228.593 20.5452C228.399 20.6142 228.167 21.1726 228.041 21.4675L227.909 21.7875C227.79 22.0385 227.771 22.6535 227.796 23.0111C227.809 23.1805 227.746 23.3499 227.627 23.4692L225.807 25.2763C225.682 25.4018 225.5 25.4645 225.324 25.4457C225.142 25.4269 224.985 25.3265 224.885 25.1759C224.885 25.1759 224.245 24.1782 223.963 23.6825C223.643 23.1115 223.636 22.415 223.95 21.6181C223.956 21.6056 225.6 17.7341 225.751 17.3953C226.071 16.6674 226.717 16.1215 227.621 15.8141L235.878 13.254C236.092 13.185 236.324 13.2414 236.481 13.3983L240.371 17.2698C240.478 17.3765 240.534 17.5145 240.54 17.6651C240.609 19.2651 239.95 21.4236 238.35 22.3836C236.995 23.2056 234.535 24.128 233.644 24.3664C233.513 24.3978 232.822 24.6112 232.182 25.4457L230.501 27.692C230.181 28.1124 229.723 28.3885 229.196 28.4638C229.102 28.4764 229.007 28.4826 228.913 28.4826ZM229.867 18.9075C229.999 18.9075 230.131 18.9514 230.231 19.033C230.388 19.1585 230.476 19.3467 230.457 19.5475C230.432 19.9114 230.425 20.6142 230.538 20.9467C230.683 21.3922 230.909 21.6621 230.915 21.6621C231.147 21.8628 231.166 22.1891 230.978 22.4401L228.286 26.0355C228.154 26.2049 228.104 26.412 228.135 26.619C228.16 26.8261 228.273 27.0144 228.443 27.1336C228.612 27.2653 228.819 27.3093 229.026 27.2904C229.233 27.2591 229.422 27.1461 229.547 26.983L231.229 24.7304C232.088 23.6135 233.061 23.2872 233.343 23.2182C234.059 23.0299 236.468 22.1389 237.729 21.3734C238.802 20.7271 239.342 19.2024 239.354 17.9349L235.891 14.4964L227.991 16.9435C227.42 17.138 227.025 17.4517 226.843 17.8659C226.692 18.211 225.054 22.0699 225.054 22.0699C224.885 22.5029 224.866 22.8542 225.004 23.0927C225.123 23.3123 225.318 23.626 225.494 23.9084L226.598 22.8166C226.592 22.4276 226.61 21.7562 226.824 21.2918L226.943 21.0158C227.175 20.451 227.501 19.673 228.192 19.4283C228.731 19.24 229.679 18.9326 229.679 18.9326C229.742 18.9137 229.804 18.9075 229.867 18.9075Z" fill="black"/>
<path d="M214.369 44.7H215.881C216.373 44.7 216.742 44.832 216.988 45.096C217.234 45.36 217.357 45.747 217.357 46.257V49.443C217.357 49.953 217.234 50.34 216.988 50.604C216.742 50.868 216.373 51 215.881 51H214.369V44.7ZM215.863 50.1C216.025 50.1 216.148 50.052 216.232 49.956C216.322 49.86 216.367 49.704 216.367 49.488V46.212C216.367 45.996 216.322 45.84 216.232 45.744C216.148 45.648 216.025 45.6 215.863 45.6H215.359V50.1H215.863ZM218.025 44.7H220.725V45.6H219.015V47.265H220.374V48.165H219.015V50.1H220.725V51H218.025V44.7ZM219.465 43.242H220.545L219.582 44.277H218.835L219.465 43.242ZM222.69 51.09C222.216 51.09 221.853 50.955 221.601 50.685C221.355 50.415 221.232 50.034 221.232 49.542V46.158C221.232 45.666 221.355 45.285 221.601 45.015C221.853 44.745 222.216 44.61 222.69 44.61C223.164 44.61 223.524 44.745 223.77 45.015C224.022 45.285 224.148 45.666 224.148 46.158V46.824H223.212V46.095C223.212 45.705 223.047 45.51 222.717 45.51C222.387 45.51 222.222 45.705 222.222 46.095V49.614C222.222 49.998 222.387 50.19 222.717 50.19C223.047 50.19 223.212 49.998 223.212 49.614V48.651H224.148V49.542C224.148 50.034 224.022 50.415 223.77 50.685C223.524 50.955 223.164 51.09 222.69 51.09ZM224.74 44.7H225.73V47.265H226.792V44.7H227.782V51H226.792V48.165H225.73V51H224.74V44.7ZM228.519 44.7H231.219V45.6H229.509V47.265H230.868V48.165H229.509V50.1H231.219V51H228.519V44.7ZM228.699 43.242H229.779L230.409 44.277H229.662L228.699 43.242ZM232.563 45.6H231.528V44.7H234.588V45.6H233.553V51H232.563V45.6ZM235.067 44.7H237.767V45.6H236.057V47.265H237.416V48.165H236.057V50.1H237.767V51H235.067V44.7ZM238.337 44.7H239.804C240.314 44.7 240.686 44.82 240.92 45.06C241.154 45.294 241.271 45.657 241.271 46.149V46.536C241.271 47.19 241.055 47.604 240.623 47.778V47.796C240.863 47.868 241.031 48.015 241.127 48.237C241.229 48.459 241.28 48.756 241.28 49.128V50.235C241.28 50.415 241.286 50.562 241.298 50.676C241.31 50.784 241.34 50.892 241.388 51H240.38C240.344 50.898 240.32 50.802 240.308 50.712C240.296 50.622 240.29 50.46 240.29 50.226V49.074C240.29 48.786 240.242 48.585 240.146 48.471C240.056 48.357 239.897 48.3 239.669 48.3H239.327V51H238.337V44.7ZM239.687 47.4C239.885 47.4 240.032 47.349 240.128 47.247C240.23 47.145 240.281 46.974 240.281 46.734V46.248C240.281 46.02 240.239 45.855 240.155 45.753C240.077 45.651 239.951 45.6 239.777 45.6H239.327V47.4H239.687ZM241.967 44.7H242.957V51H241.967V44.7ZM243.698 44.7H246.398V45.6H244.688V47.265H246.047V48.165H244.688V50.1H246.398V51H243.698V44.7Z" fill="black"/>
</svg>
