<svg width="341" height="61" viewBox="0 0 341 61" fill="none" xmlns="http://www.w3.org/2000/svg">
<g clip-path="url(#clip0_66_2385)">
<path d="M24.6979 60.4688C11.0781 60.4688 0 49.5208 0 36.0625V0H315.948C329.563 0 340.641 10.9479 340.641 24.4062V60.4688" fill="white"/>
<path d="M244.083 52.9114H69.1353C59.6874 52.9114 51.9999 45.3541 51.9999 36.0625V7.55725H226.948C236.396 7.55725 244.083 15.1145 244.083 24.4062V52.9114ZM227 6L50.1667 5.66663L50.1145 36.0625C50.1145 46.3958 58.6458 54.802 69.1353 54.802L245.969 55V24.4062C245.969 14.0729 237.49 6 227 6Z" fill="#010101"/>
<path d="M102.901 5.66663H50.1145V36.0625C50.1145 46.3958 58.6458 54.802 69.1353 54.802H121.927V24.4062C121.927 14.0729 113.391 5.66663 102.901 5.66663Z" fill="#010101"/>
<path d="M63.651 29.3594C58.8489 29.3594 54.9583 33.25 54.9583 38.0521C54.9583 42.8542 58.8489 46.7448 63.651 46.7448C68.4583 46.7448 72.3489 42.8542 72.3489 38.0521C72.3489 33.25 68.4583 29.3594 63.651 29.3594Z" fill="white"/>
<path d="M69.3229 39.4688H65.0729V43.7188H62.2344V39.4688H57.9844V36.6355H62.2344V32.3802H65.0729V36.6355H69.3229" fill="#1C1C1B"/>
<path d="M55.7864 26.5937V17.1979H58.2708V24.5156H61.828V26.5937" fill="white"/>
<path d="M62.9426 26.5937V17.1979H69.0155V19.276H65.4322V20.7552H68.4947V22.8385H65.4322V24.5156H69.1614V26.5937" fill="white"/>
<path d="M75.0885 26.5937V19.276H72.6041V17.1979H80.0677V19.276H77.5781V26.5937" fill="white"/>
<path d="M83.5521 21.4739H84.4479C85.4479 21.4739 85.9531 21.0625 85.9531 20.2343C85.9531 19.8281 85.8229 19.5468 85.5677 19.3958C85.3125 19.2395 84.9375 19.1614 84.4479 19.1614H83.5521V21.4739ZM81.0625 26.5989V17.1979H84.6198C85.125 17.1979 85.6042 17.2448 86.0625 17.3385C86.5208 17.4375 86.9167 17.5989 87.2604 17.8333C87.6042 18.0625 87.875 18.375 88.0781 18.7656C88.2813 19.1562 88.3802 19.6458 88.3802 20.2343C88.3802 20.9062 88.2448 21.4687 87.9688 21.9114C87.6979 22.3541 87.3281 22.6979 86.8646 22.9531L88.901 26.5989H86.125L84.5052 23.4427H83.5521V26.5989" fill="white"/>
<path d="M89.8698 26.5989H92.3593V17.1979H89.8698V26.5989Z" fill="white"/>
<path d="M75.3801 43.276V33.8698H81.5103V35.9531H77.8697V37.75H80.9895V39.8333H77.8697V43.276" fill="white"/>
<path d="M84.9218 38.7031L84.7604 39.3541H86.4948L86.3385 38.7031C86.2239 38.25 86.1041 37.7604 85.9895 37.2291C85.875 36.6979 85.7604 36.1979 85.6406 35.7239H85.5833C85.4791 36.2031 85.3698 36.7083 85.2604 37.2343C85.151 37.7604 85.0364 38.25 84.9218 38.7031ZM81.3073 43.276L84.1666 33.8698H87.1718L90.0364 43.276H87.4062L86.9427 41.276H84.3125L83.8489 43.276" fill="white"/>
<path d="M94.5624 43.4479C93.9687 43.4479 93.3958 43.3489 92.8541 43.151C92.3072 42.9531 91.8333 42.651 91.4218 42.2552C91.0103 41.8541 90.6822 41.3541 90.4426 40.75C90.203 40.1458 90.0833 39.4479 90.0833 38.6458C90.0833 37.8541 90.2083 37.151 90.4583 36.5416C90.7083 35.927 91.0416 35.4114 91.4635 34.9948C91.8801 34.5729 92.3645 34.25 92.9114 34.0312C93.4583 33.8073 94.026 33.6979 94.6249 33.6979C95.2499 33.6979 95.8124 33.8229 96.302 34.0677C96.7968 34.3125 97.2083 34.6041 97.5468 34.9427L96.2447 36.5312C96.0155 36.3333 95.776 36.1666 95.5312 36.0312C95.2812 35.9062 94.9999 35.8385 94.6822 35.8385C94.401 35.8385 94.1405 35.901 93.8958 36.026C93.651 36.151 93.4322 36.3333 93.2447 36.5625C93.0572 36.7916 92.9062 37.0781 92.7968 37.4166C92.6822 37.75 92.6301 38.1354 92.6301 38.5573C92.6301 39.4479 92.8124 40.125 93.1874 40.5989C93.5572 41.0677 94.0468 41.3073 94.651 41.3073C95.0208 41.3073 95.3437 41.2291 95.6301 41.0677C95.9114 40.9062 96.1562 40.7187 96.3593 40.4948L97.6614 42.0573C97.2551 42.5208 96.7916 42.8698 96.2655 43.0989C95.7395 43.3333 95.1718 43.4479 94.5624 43.4479Z" fill="white"/>
<path d="M98.6198 43.276H101.104V33.8698H98.6198V43.276Z" fill="white"/>
<path d="M102.875 43.276V33.8698H105.365V41.1927H108.922V43.276" fill="white"/>
<path d="M110.031 43.276V33.8698H116.109V35.9531H112.521V37.4323H115.589V39.5156H112.521V41.1927H116.255V43.276" fill="white"/>
<path fill-rule="evenodd" clip-rule="evenodd" d="M16.2604 29.1927C16.2604 29.1927 15.9115 29.151 15.6771 29.7968L13.5573 35.7083C15.224 37.1198 17.1823 38.1823 19.3281 38.8073L16.7552 29.7708C16.5781 29.125 16.2604 29.1927 16.2604 29.1927ZM5.67188 23.6979C5.67188 13.7552 13.7604 5.66663 23.7031 5.66663C28.9635 5.66663 33.7083 7.93225 37.0052 11.5364L35.3906 13.177C32.5104 9.97913 28.3385 7.9635 23.7031 7.9635C15.026 7.9635 7.96875 15.0208 7.96875 23.6979C7.96875 27.5208 9.34375 31.0312 11.6198 33.7604L14.2656 20.7968C14.7396 18.5104 16.8854 16.7552 19.0521 17.1562C20.6406 17.4583 28.0938 22.3958 28.0938 22.3958C28.7292 22.802 28.375 23.3489 28.375 23.3489C28.375 23.3489 28.0729 23.875 27.4479 23.6041L21.9792 21.4062C21.0052 20.9948 19.4323 21.4323 19.6667 24.1875L21.3802 38.7864L21.4531 39.2656C22.1875 39.375 22.9375 39.4323 23.7031 39.4323C24.1875 39.4323 24.6719 39.401 25.1458 39.3541L25.0052 37.4531L28.6979 40.2708L25.3958 43.4635L25.276 41.651C24.7552 41.6979 24.2344 41.7291 23.7031 41.7291C13.7604 41.7291 5.67188 33.6406 5.67188 23.6979ZM19.9375 16.4115C18.4167 16.4115 17.1875 15.1823 17.1875 13.6562C17.1875 12.1354 18.4167 10.9062 19.9375 10.9062C21.4583 10.9062 22.6927 12.1354 22.6927 13.6562C22.6927 15.1823 21.4583 16.4115 19.9375 16.4115ZM37.1046 24.564C37.7365 24.0543 39.7005 22.4703 40.1613 19.1927L40.2342 18.1823L42.0519 18.2864L38.0259 12.8541L33.2134 17.6927L34.979 17.7656L34.9998 17.7708C35.0415 17.9687 35.2446 19.2656 34.5571 21.3177C33.7967 23.6041 31.4373 26.2916 28.4634 25.8177C32.6457 27.5677 36.0311 25.4375 37.0936 24.5729L37.1046 24.564ZM28.375 25.8489C29.5781 28.6093 33.1146 29.1406 35.4479 28.552C37.5208 28.026 38.5052 27.1718 38.6719 27.0156L38.6615 27L37.776 25.4635L44.4427 26.9218L42.0312 33.2395L41.1354 31.6458L40.2656 32.1198C37.2654 33.4985 34.8744 32.7065 34.0978 32.4492L34.0781 32.4427C32.7812 32.0156 29.1562 30.3125 28.375 25.8489ZM28.4062 25.7448C26.7135 28.2343 28.151 31.5104 29.8958 33.1718C31.4895 34.6823 32.7655 35.0364 32.9322 35.0781L33.7447 33.5208L36.0885 39.9323L29.4635 41.2812L30.3437 39.6458L29.4478 39.1458C26.6887 37.3493 26.0817 34.9168 25.8818 34.1162L25.8749 34.0885C25.5416 32.7604 25.0468 28.7864 28.4062 25.7448Z" fill="#010101"/>
<path d="M131.328 25.728H132C132.416 25.728 132.752 25.636 133.008 25.452C133.264 25.268 133.392 24.928 133.392 24.432C133.392 24.184 133.356 23.98 133.284 23.82C133.22 23.652 133.128 23.52 133.008 23.424C132.896 23.32 132.76 23.248 132.6 23.208C132.44 23.168 132.264 23.148 132.072 23.148H131.328V25.728ZM131.328 21.948H131.82C132.3 21.948 132.648 21.864 132.864 21.696C133.088 21.52 133.2 21.228 133.2 20.82C133.2 20.412 133.1 20.124 132.9 19.956C132.7 19.788 132.384 19.704 131.952 19.704H131.328V21.948ZM129.6 18.432H132.492C132.844 18.432 133.168 18.468 133.464 18.54C133.768 18.612 134.028 18.732 134.244 18.9C134.46 19.068 134.628 19.292 134.748 19.572C134.868 19.852 134.928 20.196 134.928 20.604C134.928 21.068 134.82 21.468 134.604 21.804C134.388 22.132 134.064 22.356 133.632 22.476V22.5C134.112 22.564 134.492 22.768 134.772 23.112C135.052 23.456 135.192 23.916 135.192 24.492C135.192 24.828 135.148 25.148 135.06 25.452C134.972 25.756 134.82 26.024 134.604 26.256C134.396 26.48 134.12 26.66 133.776 26.796C133.44 26.932 133.02 27 132.516 27H129.6V18.432ZM137.816 22.716C137.816 23.292 137.828 23.784 137.852 24.192C137.884 24.592 137.94 24.92 138.02 25.176C138.108 25.424 138.228 25.608 138.38 25.728C138.54 25.84 138.748 25.896 139.004 25.896C139.26 25.896 139.464 25.84 139.616 25.728C139.776 25.608 139.896 25.424 139.976 25.176C140.064 24.92 140.12 24.592 140.144 24.192C140.176 23.784 140.192 23.292 140.192 22.716C140.192 22.14 140.176 21.652 140.144 21.252C140.12 20.852 140.064 20.524 139.976 20.268C139.896 20.012 139.776 19.828 139.616 19.716C139.464 19.596 139.26 19.536 139.004 19.536C138.748 19.536 138.54 19.596 138.38 19.716C138.228 19.828 138.108 20.012 138.02 20.268C137.94 20.524 137.884 20.852 137.852 21.252C137.828 21.652 137.816 22.14 137.816 22.716ZM136.088 22.716C136.088 22.068 136.116 21.472 136.172 20.928C136.236 20.376 136.368 19.904 136.568 19.512C136.776 19.12 137.072 18.816 137.456 18.6C137.84 18.376 138.356 18.264 139.004 18.264C139.652 18.264 140.168 18.376 140.552 18.6C140.936 18.816 141.228 19.12 141.428 19.512C141.636 19.904 141.768 20.376 141.824 20.928C141.888 21.472 141.92 22.068 141.92 22.716C141.92 23.372 141.888 23.972 141.824 24.516C141.768 25.06 141.636 25.528 141.428 25.92C141.228 26.312 140.936 26.612 140.552 26.82C140.168 27.028 139.652 27.132 139.004 27.132C138.356 27.132 137.84 27.028 137.456 26.82C137.072 26.612 136.776 26.312 136.568 25.92C136.368 25.528 136.236 25.06 136.172 24.516C136.116 23.972 136.088 23.372 136.088 22.716ZM144.556 18.432V24.408C144.556 24.624 144.568 24.824 144.592 25.008C144.624 25.184 144.676 25.34 144.748 25.476C144.828 25.604 144.932 25.708 145.06 25.788C145.196 25.86 145.364 25.896 145.564 25.896C145.772 25.896 145.94 25.86 146.068 25.788C146.196 25.708 146.296 25.604 146.368 25.476C146.448 25.34 146.5 25.184 146.524 25.008C146.556 24.824 146.572 24.624 146.572 24.408V18.432H148.3V24.408C148.3 24.952 148.224 25.404 148.072 25.764C147.92 26.116 147.716 26.396 147.46 26.604C147.204 26.812 146.912 26.952 146.584 27.024C146.256 27.096 145.916 27.132 145.564 27.132C145.212 27.132 144.872 27.1 144.544 27.036C144.216 26.972 143.924 26.844 143.668 26.652C143.412 26.452 143.208 26.172 143.056 25.812C142.904 25.452 142.828 24.984 142.828 24.408V18.432H144.556ZM153.197 20.976C153.197 20.816 153.177 20.652 153.137 20.484C153.105 20.316 153.049 20.164 152.969 20.028C152.889 19.884 152.785 19.768 152.657 19.68C152.537 19.584 152.389 19.536 152.213 19.536C151.797 19.536 151.497 19.768 151.313 20.232C151.129 20.696 151.037 21.464 151.037 22.536C151.037 23.048 151.053 23.512 151.085 23.928C151.117 24.344 151.173 24.7 151.253 24.996C151.341 25.284 151.461 25.508 151.613 25.668C151.773 25.82 151.977 25.896 152.225 25.896C152.329 25.896 152.441 25.868 152.561 25.812C152.689 25.756 152.805 25.672 152.909 25.56C153.021 25.448 153.113 25.308 153.185 25.14C153.257 24.964 153.293 24.76 153.293 24.528V23.652H152.153V22.38H154.949V27H153.677V26.208H153.653C153.445 26.544 153.193 26.784 152.897 26.928C152.609 27.064 152.261 27.132 151.853 27.132C151.325 27.132 150.893 27.04 150.557 26.856C150.229 26.672 149.969 26.388 149.777 26.004C149.593 25.62 149.469 25.148 149.405 24.588C149.341 24.02 149.309 23.364 149.309 22.62C149.309 21.9 149.353 21.268 149.441 20.724C149.537 20.18 149.697 19.728 149.921 19.368C150.145 19 150.441 18.724 150.809 18.54C151.177 18.356 151.637 18.264 152.189 18.264C153.133 18.264 153.813 18.5 154.229 18.972C154.645 19.436 154.853 20.104 154.853 20.976H153.197ZM156.145 27V18.432H157.873V27H156.145ZM163.943 18.432V19.848H160.883V21.864H163.763V23.28H160.883V25.584H164.063V27H159.155V18.432H163.943ZM134.388 33.432V34.848H131.328V36.864H134.208V38.28H131.328V40.584H134.508V42H129.6V33.432H134.388ZM137.369 33.432L139.457 39.3H139.481V33.432H141.065V42H139.097L136.985 36H136.961V42H135.377V33.432H137.369ZM148.811 36.324C148.811 35.7 148.735 35.248 148.583 34.968C148.439 34.68 148.171 34.536 147.779 34.536C147.563 34.536 147.383 34.596 147.239 34.716C147.103 34.828 146.995 35.016 146.915 35.28C146.835 35.536 146.779 35.876 146.747 36.3C146.715 36.716 146.699 37.228 146.699 37.836C146.699 38.484 146.719 39.008 146.759 39.408C146.807 39.808 146.875 40.12 146.963 40.344C147.059 40.56 147.175 40.708 147.311 40.788C147.455 40.86 147.619 40.896 147.803 40.896C147.955 40.896 148.095 40.872 148.223 40.824C148.359 40.768 148.475 40.664 148.571 40.512C148.667 40.352 148.743 40.132 148.799 39.852C148.855 39.564 148.883 39.188 148.883 38.724H150.611C150.611 39.188 150.575 39.628 150.503 40.044C150.431 40.46 150.295 40.824 150.095 41.136C149.903 41.448 149.627 41.692 149.267 41.868C148.915 42.044 148.455 42.132 147.887 42.132C147.239 42.132 146.723 42.028 146.339 41.82C145.955 41.612 145.659 41.312 145.451 40.92C145.251 40.528 145.119 40.06 145.055 39.516C144.999 38.972 144.971 38.372 144.971 37.716C144.971 37.068 144.999 36.472 145.055 35.928C145.119 35.376 145.251 34.904 145.451 34.512C145.659 34.12 145.955 33.816 146.339 33.6C146.723 33.376 147.239 33.264 147.887 33.264C148.503 33.264 148.987 33.364 149.339 33.564C149.699 33.764 149.967 34.02 150.143 34.332C150.319 34.636 150.427 34.968 150.467 35.328C150.515 35.68 150.539 36.012 150.539 36.324H148.811ZM151.68 42V33.432H153.408V42H151.68ZM154.69 33.432H157.882C158.602 33.432 159.162 33.616 159.562 33.984C159.962 34.344 160.162 34.896 160.162 35.64C160.162 36.216 160.046 36.688 159.814 37.056C159.582 37.416 159.222 37.648 158.734 37.752V37.776C159.166 37.84 159.482 37.98 159.682 38.196C159.882 38.412 160.006 38.76 160.054 39.24C160.07 39.4 160.082 39.576 160.09 39.768C160.098 39.952 160.106 40.16 160.114 40.392C160.13 40.848 160.154 41.196 160.186 41.436C160.234 41.676 160.338 41.84 160.498 41.928V42H158.626C158.538 41.88 158.482 41.744 158.458 41.592C158.434 41.432 158.418 41.268 158.41 41.1L158.362 39.456C158.346 39.12 158.262 38.856 158.11 38.664C157.958 38.472 157.702 38.376 157.342 38.376H156.418V42H154.69V33.432ZM156.418 37.176H157.138C157.554 37.176 157.874 37.08 158.098 36.888C158.322 36.688 158.434 36.356 158.434 35.892C158.434 35.1 158.034 34.704 157.234 34.704H156.418V37.176ZM166.146 33.432V34.848H163.086V36.864H165.966V38.28H163.086V40.584H166.266V42H161.358V33.432H166.146Z" fill="black"/>
<path d="M171 6H197V55H190H171L184.5 28.5L171 6Z" fill="#010101"/>
<path d="M197 6H317C326.941 6 335 14.0589 335 24V55H197V6Z" fill="black"/>
<rect x="197" y="8" width="31" height="31" fill="black"/>
<path d="M199.881 43.1H200.924L201.722 48H200.952L200.812 47.027V47.041H199.937L199.797 48H199.083L199.881 43.1ZM200.721 46.376L200.378 43.954H200.364L200.028 46.376H200.721ZM203.076 48.07C202.703 48.07 202.42 47.965 202.229 47.755C202.038 47.5403 201.942 47.2347 201.942 46.838V46.558H202.67V46.894C202.67 47.2113 202.803 47.37 203.069 47.37C203.2 47.37 203.298 47.3327 203.363 47.258C203.433 47.1787 203.468 47.0527 203.468 46.88C203.468 46.6747 203.421 46.495 203.328 46.341C203.235 46.1823 203.062 45.9933 202.81 45.774C202.493 45.494 202.271 45.242 202.145 45.018C202.019 44.7893 201.956 44.5327 201.956 44.248C201.956 43.8607 202.054 43.562 202.25 43.352C202.446 43.1373 202.731 43.03 203.104 43.03C203.473 43.03 203.75 43.1373 203.937 43.352C204.128 43.562 204.224 43.8653 204.224 44.262V44.465H203.496V44.213C203.496 44.045 203.463 43.9237 203.398 43.849C203.333 43.7697 203.237 43.73 203.111 43.73C202.854 43.73 202.726 43.8863 202.726 44.199C202.726 44.3763 202.773 44.542 202.866 44.696C202.964 44.85 203.139 45.0367 203.391 45.256C203.713 45.536 203.935 45.7903 204.056 46.019C204.177 46.2477 204.238 46.516 204.238 46.824C204.238 47.2253 204.138 47.5333 203.937 47.748C203.741 47.9627 203.454 48.07 203.076 48.07ZM205.681 48.07C205.307 48.07 205.025 47.965 204.834 47.755C204.642 47.5403 204.547 47.2347 204.547 46.838V46.558H205.275V46.894C205.275 47.2113 205.408 47.37 205.674 47.37C205.804 47.37 205.902 47.3327 205.968 47.258C206.038 47.1787 206.073 47.0527 206.073 46.88C206.073 46.6747 206.026 46.495 205.933 46.341C205.839 46.1823 205.667 45.9933 205.415 45.774C205.097 45.494 204.876 45.242 204.75 45.018C204.624 44.7893 204.561 44.5327 204.561 44.248C204.561 43.8607 204.659 43.562 204.855 43.352C205.051 43.1373 205.335 43.03 205.709 43.03C206.077 43.03 206.355 43.1373 206.542 43.352C206.733 43.562 206.829 43.8653 206.829 44.262V44.465H206.101V44.213C206.101 44.045 206.068 43.9237 206.003 43.849C205.937 43.7697 205.842 43.73 205.716 43.73C205.459 43.73 205.331 43.8863 205.331 44.199C205.331 44.3763 205.377 44.542 205.471 44.696C205.569 44.85 205.744 45.0367 205.996 45.256C206.318 45.536 206.539 45.7903 206.661 46.019C206.782 46.2477 206.843 46.516 206.843 46.824C206.843 47.2253 206.742 47.5333 206.542 47.748C206.346 47.9627 206.059 48.07 205.681 48.07ZM208.397 48.07C208.019 48.07 207.73 47.9627 207.529 47.748C207.328 47.5333 207.228 47.23 207.228 46.838V44.262C207.228 43.87 207.328 43.5667 207.529 43.352C207.73 43.1373 208.019 43.03 208.397 43.03C208.775 43.03 209.064 43.1373 209.265 43.352C209.466 43.5667 209.566 43.87 209.566 44.262V46.838C209.566 47.23 209.466 47.5333 209.265 47.748C209.064 47.9627 208.775 48.07 208.397 48.07ZM208.397 47.37C208.663 47.37 208.796 47.209 208.796 46.887V44.213C208.796 43.891 208.663 43.73 208.397 43.73C208.131 43.73 207.998 43.891 207.998 44.213V46.887C207.998 47.209 208.131 47.37 208.397 47.37ZM211.172 48.07C210.803 48.07 210.521 47.965 210.325 47.755C210.133 47.545 210.038 47.2487 210.038 46.866V44.234C210.038 43.8513 210.133 43.555 210.325 43.345C210.521 43.135 210.803 43.03 211.172 43.03C211.54 43.03 211.82 43.135 212.012 43.345C212.208 43.555 212.306 43.8513 212.306 44.234V44.752H211.578V44.185C211.578 43.8817 211.449 43.73 211.193 43.73C210.936 43.73 210.808 43.8817 210.808 44.185V46.922C210.808 47.2207 210.936 47.37 211.193 47.37C211.449 47.37 211.578 47.2207 211.578 46.922V46.173H212.306V46.866C212.306 47.2487 212.208 47.545 212.012 47.755C211.82 47.965 211.54 48.07 211.172 48.07ZM212.766 43.1H213.536V48H212.766V43.1ZM214.708 43.1H215.751L216.549 48H215.779L215.639 47.027V47.041H214.764L214.624 48H213.91L214.708 43.1ZM215.548 46.376L215.205 43.954H215.191L214.855 46.376H215.548ZM217.203 43.8H216.398V43.1H218.778V43.8H217.973V48H217.203V43.8ZM219.151 43.1H219.921V48H219.151V43.1ZM221.611 48.07C221.233 48.07 220.944 47.9627 220.743 47.748C220.542 47.5333 220.442 47.23 220.442 46.838V44.262C220.442 43.87 220.542 43.5667 220.743 43.352C220.944 43.1373 221.233 43.03 221.611 43.03C221.989 43.03 222.278 43.1373 222.479 43.352C222.68 43.5667 222.78 43.87 222.78 44.262V46.838C222.78 47.23 222.68 47.5333 222.479 47.748C222.278 47.9627 221.989 48.07 221.611 48.07ZM221.611 47.37C221.877 47.37 222.01 47.209 222.01 46.887V44.213C222.01 43.891 221.877 43.73 221.611 43.73C221.345 43.73 221.212 43.891 221.212 44.213V46.887C221.212 47.209 221.345 47.37 221.611 47.37ZM223.301 43.1H224.267L225.016 46.033H225.03V43.1H225.716V48H224.925L224.001 44.423H223.987V48H223.301V43.1Z" fill="white"/>
<path d="M219.01 31.2217H212.203C212.051 31.2217 211.908 31.1627 211.79 31.0615L206.83 26.7763C206.72 26.6835 206.577 26.6329 206.433 26.6329H204.223V23.6636H209.276C209.951 23.6636 210.609 23.9336 211.081 24.4059L214.691 28.0247C214.852 28.185 214.936 28.3959 214.928 28.6236C214.928 28.6827 214.919 28.7333 214.911 28.7839C214.911 28.8008 214.902 28.8176 214.902 28.8261C214.86 28.9779 214.776 29.1129 214.649 29.2141C214.337 29.4925 213.823 29.4587 213.502 29.1382L210.811 26.4473C210.575 26.2111 210.187 26.2111 209.951 26.4473C209.706 26.6919 209.706 27.08 209.951 27.3162L212.642 30.007C213.418 30.7915 214.658 30.8421 215.459 30.1336C215.645 29.9733 215.796 29.7877 215.906 29.5768L219.061 29.5853C219.289 29.5853 219.5 29.6781 219.651 29.8468C219.812 30.0155 219.888 30.2264 219.871 30.4541C219.845 30.8759 219.457 31.2217 219.01 31.2217ZM219.061 28.3621L216.142 28.3537C216.083 27.9066 215.881 27.4764 215.56 27.1559L211.95 23.5371C211.241 22.837 210.271 22.4321 209.276 22.4321H203.616C203.278 22.4321 203 22.7104 203 23.0479V27.2402C203 27.5861 203.278 27.856 203.616 27.856H206.205L210.988 31.9894C211.326 32.2846 211.764 32.4449 212.203 32.4449H219.01C220.107 32.4449 221.026 31.6098 221.094 30.5385C221.128 29.9649 220.942 29.425 220.546 29.0032C220.166 28.5983 219.618 28.3621 219.061 28.3621Z" fill="white"/>
<path d="M212.878 17.7926C213.207 16.8647 213.856 16.2911 214.666 16.232C214.717 16.232 214.767 16.232 214.818 16.232C215.586 16.232 216.328 16.6875 216.716 17.4383C216.826 17.6323 217.037 17.7588 217.264 17.7588C217.492 17.7588 217.694 17.6323 217.804 17.4383C218.226 16.6454 219.036 16.173 219.854 16.232C220.664 16.2911 221.313 16.8647 221.642 17.7926C222.435 20.028 219.289 22.7273 217.264 24.001C215.24 22.7273 212.085 20.028 212.878 17.7926ZM216.952 25.2495C217.045 25.3085 217.155 25.3338 217.264 25.3338C217.374 25.3338 217.484 25.3085 217.576 25.2495C218.251 24.8446 224.156 21.2005 222.798 17.3792C222.309 15.9958 221.237 15.1101 219.947 15.0089C218.943 14.9414 217.956 15.3463 217.264 16.0971C216.573 15.3463 215.586 14.933 214.582 15.0089C213.283 15.1101 212.211 15.9958 211.722 17.3792C210.373 21.2005 216.269 24.8446 216.952 25.2495Z" fill="white"/>
<path d="M235.59 31.07C235.212 31.07 234.923 30.9627 234.722 30.748C234.522 30.5333 234.421 30.23 234.421 29.838V27.262C234.421 26.87 234.522 26.5667 234.722 26.352C234.923 26.1373 235.212 26.03 235.59 26.03C235.968 26.03 236.258 26.1373 236.458 26.352C236.659 26.5667 236.759 26.87 236.759 27.262V29.838C236.759 30.23 236.659 30.5333 236.458 30.748C236.258 30.9627 235.968 31.07 235.59 31.07ZM235.59 30.37C235.856 30.37 235.989 30.209 235.989 29.887V27.213C235.989 26.891 235.856 26.73 235.59 26.73C235.324 26.73 235.191 26.891 235.191 27.213V29.887C235.191 30.209 235.324 30.37 235.59 30.37ZM238.4 31.07C238.027 31.07 237.742 30.965 237.546 30.755C237.35 30.5403 237.252 30.2347 237.252 29.838V26.1H238.022V29.894C238.022 30.062 238.055 30.1833 238.12 30.258C238.19 30.3327 238.288 30.37 238.414 30.37C238.54 30.37 238.636 30.3327 238.701 30.258C238.771 30.1833 238.806 30.062 238.806 29.894V26.1H239.548V29.838C239.548 30.2347 239.45 30.5403 239.254 30.755C239.058 30.965 238.773 31.07 238.4 31.07Z" fill="white"/>
<rect x="246" y="8" width="31" height="31" fill="black"/>
<path fill-rule="evenodd" clip-rule="evenodd" d="M259.109 14.1063C258.715 13.9593 258.442 13.9112 258.26 13.9138C258.076 13.9164 258.017 13.9696 258.005 13.983C257.994 13.9948 257.976 14.0235 257.975 14.1029C257.974 14.1628 257.984 14.2337 258.004 14.3061L260.457 16.7194H262.07C262.35 16.3731 262.982 15.6937 264.041 14.766C264.332 14.5109 264.438 14.3351 264.469 14.2426C264.486 14.1909 264.48 14.1822 264.466 14.1637L264.464 14.1606C264.428 14.1114 264.342 14.0437 264.193 13.9816C264.059 13.9255 263.904 13.8872 263.762 13.8665C263.659 13.8692 263.582 13.8932 263.446 13.9423L263.419 13.9521C263.371 13.9696 263.335 13.9876 263.3 14.0059C263.226 14.0437 263.15 14.0826 262.951 14.1204C262.636 14.1804 262.41 14.185 262.155 14.124C261.99 14.0845 261.808 14.0142 261.587 13.9294C261.511 13.8998 261.429 13.8684 261.342 13.8359L261.34 13.8357C261.335 13.835 261.315 13.8327 261.278 13.8341C261.224 13.8361 261.153 13.8447 261.066 13.86C260.894 13.8904 260.691 13.9409 260.477 13.9945L260.464 13.9977C260.252 14.0505 260.026 14.1067 259.837 14.1369C259.742 14.1519 259.644 14.1628 259.554 14.1606L259.525 14.1602C259.431 14.1593 259.201 14.1571 259.109 14.1063ZM260.242 13.1757C259.947 13.2429 259.406 13.3023 259.406 13.3023C259.09 13.2908 258.86 13.2277 258.667 13.1747C258.513 13.1326 258.383 13.0968 258.251 13.0987C257.953 13.1029 257.694 13.1923 257.508 13.3963C257.321 13.6018 257.262 13.8653 257.259 14.0916C257.257 14.3145 257.307 14.5303 257.37 14.7023L257.402 14.7912L259.578 16.9319C258.757 17.1125 257.88 17.4785 257.072 18.1145C255.533 19.3262 254.301 21.4723 254.126 25.024C254.115 25.2552 254.102 25.4899 254.09 25.7262C254.038 26.698 253.984 27.698 254.004 28.6023C254.029 29.71 254.162 30.7759 254.615 31.5044C255.429 32.813 256.76 33.4463 258.037 33.7444C259.31 34.0416 260.582 34.019 261.369 33.9721C262.089 33.9584 263.275 33.9154 264.49 33.6601C265.701 33.4057 267.004 32.9283 267.895 31.9992C268.611 31.2516 268.855 30.1504 268.929 28.9703C268.987 28.0415 268.943 26.9912 268.898 25.9219L268.898 25.9218L268.898 25.9216C268.886 25.6252 268.873 25.3272 268.863 25.03C268.746 21.692 267.518 19.598 265.98 18.3585C264.982 17.5541 263.871 17.124 262.887 16.9376C263.206 16.5912 263.724 16.0726 264.477 15.4121C264.806 15.1237 265.036 14.8353 265.137 14.5344C265.251 14.1954 265.189 13.8795 265.014 13.6398C264.86 13.4286 264.636 13.2982 264.439 13.216C264.234 13.1306 264.014 13.0793 263.824 13.0539L263.803 13.0511H263.782C263.552 13.0511 263.386 13.1088 263.23 13.1653L263.204 13.1747C263.062 13.2261 262.907 13.282 262.663 13.3284C262.449 13.3691 262.436 13.3656 262.355 13.3435L262.355 13.3435L262.355 13.3435C262.339 13.3391 262.32 13.334 262.297 13.3284C262.176 13.2994 262.051 13.2515 261.854 13.1757C261.847 13.1727 261.833 13.1658 261.815 13.1563C261.723 13.1093 261.511 13 261.269 13C260.911 13 260.568 13.0906 260.362 13.1452C260.314 13.1578 260.273 13.1685 260.242 13.1757ZM257.598 18.7826C256.294 19.8098 255.141 21.7024 254.975 25.0658C254.964 25.3062 254.951 25.5471 254.938 25.7873L254.938 25.7873L254.938 25.7874C254.886 26.7564 254.835 27.7147 254.854 28.5836C254.879 29.6845 255.017 30.5403 255.337 31.0555C255.986 32.0991 257.071 32.6458 258.23 32.9165C259.389 33.1869 260.569 33.1684 261.327 33.1229L261.336 33.1224L261.345 33.1222C262.051 33.1089 263.176 33.0673 264.316 32.828C265.465 32.5867 266.566 32.1565 267.281 31.411C267.778 30.8917 268.009 30.0543 268.08 28.9168C268.136 28.0371 268.094 27.048 268.05 25.9868L268.05 25.9866C268.037 25.6833 268.024 25.3741 268.013 25.0598C267.903 21.9361 266.769 20.0859 265.447 19.0204C264.443 18.2117 263.307 17.8352 262.37 17.7159C263.146 18.5301 264.026 19.349 264.507 19.6446L264.061 20.3687C263.86 20.1673 263.557 19.9036 263.208 19.5994L263.208 19.5994C262.705 19.1614 262.106 18.6395 261.574 18.0991C261.548 18.4454 261.525 18.8325 261.515 19.1999C261.507 19.5164 261.509 19.8104 261.526 20.048C261.534 20.1669 261.546 20.2653 261.56 20.3418C261.567 20.3798 261.574 20.4092 261.581 20.4311C261.587 20.4519 261.591 20.4611 261.591 20.462L261.652 20.7938L260.831 20.8422C260.732 20.6443 260.696 20.3607 260.678 20.1075C260.659 19.8317 260.657 19.5076 260.666 19.1781C260.672 18.9159 260.685 18.6454 260.702 18.3858C260.011 19.0527 259.284 19.6307 258.748 20.0572C258.673 20.1168 258.601 20.1734 258.535 20.227L258.089 19.5029C258.561 19.1737 259.435 18.4574 260.209 17.6831C259.385 17.7926 258.447 18.1141 257.598 18.7826Z" fill="white"/>
<path d="M251.263 43.1H252.397C252.78 43.1 253.067 43.2027 253.258 43.408C253.449 43.6133 253.545 43.9143 253.545 44.311V44.794C253.545 45.1907 253.449 45.4917 253.258 45.697C253.067 45.9023 252.78 46.005 252.397 46.005H252.033V48H251.263V43.1ZM252.397 45.305C252.523 45.305 252.616 45.27 252.677 45.2C252.742 45.13 252.775 45.011 252.775 44.843V44.262C252.775 44.094 252.742 43.975 252.677 43.905C252.616 43.835 252.523 43.8 252.397 43.8H252.033V45.305H252.397ZM255.076 48.07C254.698 48.07 254.409 47.9627 254.208 47.748C254.008 47.5333 253.907 47.23 253.907 46.838V44.262C253.907 43.87 254.008 43.5667 254.208 43.352C254.409 43.1373 254.698 43.03 255.076 43.03C255.454 43.03 255.744 43.1373 255.944 43.352C256.145 43.5667 256.245 43.87 256.245 44.262V46.838C256.245 47.23 256.145 47.5333 255.944 47.748C255.744 47.9627 255.454 48.07 255.076 48.07ZM255.076 47.37C255.342 47.37 255.475 47.209 255.475 46.887V44.213C255.475 43.891 255.342 43.73 255.076 43.73C254.81 43.73 254.677 43.891 254.677 44.213V46.887C254.677 47.209 254.81 47.37 255.076 47.37ZM257.886 48.07C257.513 48.07 257.228 47.965 257.032 47.755C256.836 47.5403 256.738 47.2347 256.738 46.838V43.1H257.508V46.894C257.508 47.062 257.541 47.1833 257.606 47.258C257.676 47.3327 257.774 47.37 257.9 47.37C258.026 47.37 258.122 47.3327 258.187 47.258C258.257 47.1833 258.292 47.062 258.292 46.894V43.1H259.034V46.838C259.034 47.2347 258.936 47.5403 258.74 47.755C258.544 47.965 258.259 48.07 257.886 48.07ZM259.582 43.1H260.744C261.141 43.1 261.43 43.1933 261.612 43.38C261.794 43.562 261.885 43.8443 261.885 44.227V44.423C261.885 44.675 261.843 44.8803 261.759 45.039C261.68 45.1977 261.556 45.312 261.388 45.382V45.396C261.771 45.5267 261.962 45.8673 261.962 46.418V46.838C261.962 47.216 261.862 47.5053 261.661 47.706C261.465 47.902 261.176 48 260.793 48H259.582V43.1ZM260.653 45.095C260.807 45.095 260.922 45.0553 260.996 44.976C261.076 44.8967 261.115 44.7637 261.115 44.577V44.304C261.115 44.1267 261.083 43.9983 261.017 43.919C260.957 43.8397 260.859 43.8 260.723 43.8H260.352V45.095H260.653ZM260.793 47.3C260.929 47.3 261.029 47.265 261.094 47.195C261.16 47.1203 261.192 46.9943 261.192 46.817V46.39C261.192 46.166 261.153 46.012 261.073 45.928C260.999 45.8393 260.873 45.795 260.695 45.795H260.352V47.3H260.793ZM262.412 43.1H264.512V43.8H263.182V45.095H264.239V45.795H263.182V47.3H264.512V48H262.412V43.1ZM264.955 43.1H265.725V47.3H266.992V48H264.955V43.1ZM267.362 43.1H268.132V47.3H269.399V48H267.362V43.1ZM269.768 43.1H271.868V43.8H270.538V45.095H271.595V45.795H270.538V47.3H271.868V48H269.768V43.1Z" fill="white"/>
<path d="M284.59 31.07C284.212 31.07 283.923 30.9627 283.722 30.748C283.522 30.5333 283.421 30.23 283.421 29.838V27.262C283.421 26.87 283.522 26.5667 283.722 26.352C283.923 26.1373 284.212 26.03 284.59 26.03C284.968 26.03 285.258 26.1373 285.458 26.352C285.659 26.5667 285.759 26.87 285.759 27.262V29.838C285.759 30.23 285.659 30.5333 285.458 30.748C285.258 30.9627 284.968 31.07 284.59 31.07ZM284.59 30.37C284.856 30.37 284.989 30.209 284.989 29.887V27.213C284.989 26.891 284.856 26.73 284.59 26.73C284.324 26.73 284.191 26.891 284.191 27.213V29.887C284.191 30.209 284.324 30.37 284.59 30.37ZM287.4 31.07C287.027 31.07 286.742 30.965 286.546 30.755C286.35 30.5403 286.252 30.2347 286.252 29.838V26.1H287.022V29.894C287.022 30.062 287.055 30.1833 287.12 30.258C287.19 30.3327 287.288 30.37 287.414 30.37C287.54 30.37 287.636 30.3327 287.701 30.258C287.771 30.1833 287.806 30.062 287.806 29.894V26.1H288.548V29.838C288.548 30.2347 288.45 30.5403 288.254 30.755C288.058 30.965 287.773 31.07 287.4 31.07Z" fill="white"/>
<path d="M295 8H325C325.552 8 326 8.44772 326 9V39H295V8Z" fill="black"/>
<path d="M298.11 43.1H299.286C299.668 43.1 299.955 43.2027 300.147 43.408C300.338 43.6133 300.434 43.9143 300.434 44.311V46.789C300.434 47.1857 300.338 47.4867 300.147 47.692C299.955 47.8973 299.668 48 299.286 48H298.11V43.1ZM299.272 47.3C299.398 47.3 299.493 47.2627 299.559 47.188C299.629 47.1133 299.664 46.992 299.664 46.824V44.276C299.664 44.108 299.629 43.9867 299.559 43.912C299.493 43.8373 299.398 43.8 299.272 43.8H298.88V47.3H299.272ZM300.954 43.1H303.054V43.8H301.724V45.095H302.781V45.795H301.724V47.3H303.054V48H300.954V43.1ZM302.074 41.966H302.914L302.165 42.771H301.584L302.074 41.966ZM304.581 48.07C304.213 48.07 303.93 47.965 303.734 47.755C303.543 47.545 303.447 47.2487 303.447 46.866V44.234C303.447 43.8513 303.543 43.555 303.734 43.345C303.93 43.135 304.213 43.03 304.581 43.03C304.95 43.03 305.23 43.135 305.421 43.345C305.617 43.555 305.715 43.8513 305.715 44.234V44.752H304.987V44.185C304.987 43.8817 304.859 43.73 304.602 43.73C304.346 43.73 304.217 43.8817 304.217 44.185V46.922C304.217 47.2207 304.346 47.37 304.602 47.37C304.859 47.37 304.987 47.2207 304.987 46.922V46.173H305.715V46.866C305.715 47.2487 305.617 47.545 305.421 47.755C305.23 47.965 304.95 48.07 304.581 48.07ZM306.176 43.1H306.946V45.095H307.772V43.1H308.542V48H307.772V45.795H306.946V48H306.176V43.1ZM309.116 43.1H311.216V43.8H309.886V45.095H310.943V45.795H309.886V47.3H311.216V48H309.116V43.1ZM309.256 41.966H310.096L310.586 42.771H310.005L309.256 41.966ZM312.261 43.8H311.456V43.1H313.836V43.8H313.031V48H312.261V43.8ZM314.208 43.1H316.308V43.8H314.978V45.095H316.035V45.795H314.978V47.3H316.308V48H314.208V43.1ZM316.751 43.1H317.892C318.289 43.1 318.578 43.1933 318.76 43.38C318.942 43.562 319.033 43.8443 319.033 44.227V44.528C319.033 45.0367 318.865 45.3587 318.529 45.494V45.508C318.716 45.564 318.847 45.6783 318.921 45.851C319.001 46.0237 319.04 46.2547 319.04 46.544V47.405C319.04 47.545 319.045 47.6593 319.054 47.748C319.064 47.832 319.087 47.916 319.124 48H318.34C318.312 47.9207 318.294 47.846 318.284 47.776C318.275 47.706 318.27 47.58 318.27 47.398V46.502C318.27 46.278 318.233 46.1217 318.158 46.033C318.088 45.9443 317.965 45.9 317.787 45.9H317.521V48H316.751V43.1ZM317.801 45.2C317.955 45.2 318.07 45.1603 318.144 45.081C318.224 45.0017 318.263 44.8687 318.263 44.682V44.304C318.263 44.1267 318.231 43.9983 318.165 43.919C318.105 43.8397 318.007 43.8 317.871 43.8H317.521V45.2H317.801ZM319.575 43.1H320.345V48H319.575V43.1ZM320.921 43.1H323.021V43.8H321.691V45.095H322.748V45.795H321.691V47.3H323.021V48H320.921V43.1Z" fill="white"/>
<path d="M304.988 32.4391L300.474 32.4342C300.217 32.4342 300.005 32.2268 300.005 31.9699L300 27.4806C300 27.2929 300.114 27.1201 300.291 27.0509C300.464 26.9769 300.667 27.0164 300.8 27.1497L301.684 28.0288L309.29 20.4577C309.473 20.2799 309.769 20.2799 309.952 20.4577L312.046 22.5418C312.135 22.6307 312.184 22.7443 312.184 22.8727C312.184 22.9962 312.135 23.1147 312.046 23.2036L304.44 30.7649L305.319 31.644C305.452 31.7773 305.492 31.9798 305.418 32.1527C305.349 32.3255 305.176 32.4391 304.988 32.4391ZM300.943 31.5008L303.852 31.5057L303.442 31.0958C303.26 30.913 303.26 30.6167 303.442 30.434L311.048 22.8727L309.621 21.4504L302.015 29.0166C301.832 29.1993 301.536 29.1993 301.353 29.0166L300.938 28.6116" fill="white"/>
<path d="M314.54 25.673C314.179 25.673 313.833 25.5347 313.567 25.2878C313.29 25.031 313.132 24.6803 313.117 24.3001L313.048 22.1517L313.987 22.1221L314.056 24.2704C314.061 24.3988 314.115 24.5174 314.209 24.6063C314.303 24.6952 314.436 24.7297 314.559 24.7396C314.688 24.7347 314.806 24.6803 314.895 24.5865C314.984 24.4927 315.029 24.3692 315.024 24.2408L314.92 21.3763L315.858 21.3467L315.962 24.2062C315.977 24.5865 315.844 24.947 315.582 25.2236C315.32 25.5002 314.969 25.6582 314.589 25.6681C314.569 25.673 314.555 25.673 314.54 25.673Z" fill="white"/>
<path d="M314.54 25.673C314.179 25.673 313.833 25.5347 313.567 25.2878C313.29 25.031 313.132 24.6803 313.117 24.3001L313.048 22.1517L313.987 22.1221L314.056 24.2704C314.061 24.3988 314.115 24.5174 314.209 24.6063C314.303 24.6952 314.436 24.7297 314.559 24.7396C314.688 24.7347 314.806 24.6803 314.895 24.5865C314.984 24.4927 315.029 24.3692 315.024 24.2408L314.92 21.3763L315.858 21.3467L315.962 24.2062C315.977 24.5865 315.844 24.947 315.582 25.2236C315.32 25.5002 314.969 25.6582 314.589 25.6681C314.569 25.673 314.555 25.673 314.54 25.673Z" fill="white"/>
<path d="M312.643 25.9941C312.278 25.9941 311.937 25.8607 311.67 25.6138C311.394 25.352 311.231 25.0014 311.221 24.6211L311.152 22.4727L312.09 22.4431L312.159 24.5915C312.164 24.7248 312.219 24.8433 312.312 24.9322C312.406 25.0211 312.53 25.0755 312.658 25.0607C312.925 25.0508 313.137 24.8285 313.127 24.5618L313.024 21.7023L313.962 21.6677L314.066 24.5273C314.095 25.3125 313.478 25.9644 312.693 25.9941C312.673 25.9941 312.658 25.9941 312.643 25.9941Z" fill="white"/>
<path d="M314.258 32.449C314.066 32.449 313.893 32.3305 313.824 32.1576C313.75 31.9848 313.789 31.7823 313.922 31.6489L314.806 30.7698L307.201 23.2037C307.018 23.0259 307.018 22.7295 307.201 22.5468L309.29 20.4627C309.463 20.2898 309.779 20.2898 309.952 20.4627L317.893 28.3597L317.226 29.0215L309.621 21.4553L308.193 22.8777L315.799 30.4389C315.987 30.6217 315.987 30.9229 315.799 31.1007L315.389 31.5107H318.298L318.303 27.4856H319.241L319.236 31.9749C319.236 32.2317 319.029 32.4391 318.767 32.4391L314.258 32.449Z" fill="white"/>
<path d="M309.601 36C309.478 36 309.359 35.9556 309.265 35.8617L306.075 32.696C305.941 32.5626 305.902 32.3601 305.971 32.1873C306.045 32.0095 306.218 31.8959 306.406 31.8959H307.655V23.2037C307.655 22.9469 307.863 22.7345 308.124 22.7345H311.083C311.339 22.7345 311.552 22.9469 311.552 23.2037V32.3651H310.613V23.6729H308.593V32.3651C308.593 32.6219 308.381 32.8293 308.124 32.8293H307.542L309.601 34.874L312.461 32.0342L313.127 32.696L309.932 35.8617C309.838 35.9556 309.72 36 309.601 36Z" fill="white"/>
<path d="M304.983 32.4391L300.474 32.4342C300.217 32.4342 300.005 32.2268 300.005 31.9699L300 27.4806C300 27.2929 300.114 27.1201 300.291 27.0509C300.464 26.9769 300.667 27.0164 300.8 27.1497L301.684 28.0288L309.29 20.4577C309.473 20.2799 309.769 20.2799 309.952 20.4577L312.046 22.5418C312.135 22.6307 312.184 22.7443 312.184 22.8727C312.184 22.9962 312.135 23.1147 312.046 23.2036L304.104 31.0958L303.442 30.434L311.048 22.8727L309.621 21.4504L302.015 29.0166C301.832 29.1993 301.536 29.1993 301.353 29.0166L300.938 28.6116L300.943 31.5008L304.988 31.5057" fill="white"/>
<path d="M320.407 19.0452C320.066 19.0452 319.745 18.9119 319.503 18.6748L315.098 14.2892C314.856 14.0522 314.722 13.7311 314.722 13.3953C314.722 13.0545 314.856 12.7384 315.093 12.4964L316.239 11.3556C316.723 10.8815 317.562 10.8815 318.046 11.3556L322.452 15.7412C322.95 16.2351 322.95 17.0401 322.452 17.534L321.306 18.6748C321.064 18.9119 320.748 19.0452 320.407 19.0452ZM317.142 11.9186C317.054 11.9186 316.97 11.9581 316.905 12.0174V12.0223L315.76 13.1582C315.695 13.2224 315.661 13.3064 315.661 13.3953C315.661 13.4842 315.695 13.5682 315.76 13.6274L320.165 18.013C320.293 18.1414 320.516 18.1365 320.644 18.013L321.79 16.8771C321.918 16.7438 321.918 16.5314 321.785 16.403L317.379 12.0223C317.315 11.9581 317.231 11.9186 317.142 11.9186Z" fill="white"/>
<path d="M315.742 26.6614L312.2 23.5131L311.413 24.3002L311.019 25.8743L313.381 29.0227L315.742 26.6614Z" fill="black"/>
<path d="M314.258 32.449C314.066 32.449 313.893 32.3305 313.824 32.1576C313.75 31.9848 313.789 31.7823 313.922 31.6489L314.806 30.7698L307.201 23.2037C307.018 23.0259 307.018 22.7295 307.201 22.5468L309.29 20.4627C309.463 20.2898 309.779 20.2898 309.952 20.4627L317.562 28.0338L318.441 27.1547C318.575 27.0213 318.777 26.9818 318.955 27.0559C319.128 27.125 319.241 27.2979 319.241 27.4856L319.236 31.9749C319.236 32.2317 319.029 32.4391 318.767 32.4391L314.258 32.449ZM308.193 22.8777L315.799 30.4389C315.987 30.6217 315.987 30.9229 315.799 31.1007L315.389 31.5107H318.298L318.303 28.6165L317.893 29.0215C317.71 29.2043 317.414 29.2043 317.226 29.0215L309.621 21.4553" fill="white"/>
<path d="M306.69 32.5646H308.264V23.5131H311.019L311.413 32.5646H312.2L309.445 35.713L306.69 32.5646Z" fill="black"/>
<path d="M309.601 36C309.478 36 309.359 35.9556 309.27 35.8617L306.075 32.696C305.941 32.5626 305.902 32.3601 305.971 32.1873C306.045 32.0095 306.218 31.8959 306.406 31.8959H307.655V23.2037C307.655 22.9469 307.863 22.7345 308.124 22.7345H311.083C311.339 22.7345 311.552 22.9469 311.552 23.2037V31.8959H312.791C312.984 31.8959 313.157 32.0095 313.226 32.1873C313.3 32.3601 313.261 32.5626 313.127 32.696L309.932 35.8617C309.838 35.9556 309.72 36 309.601 36ZM307.542 32.8293L309.601 34.874L311.66 32.8293H311.083C310.821 32.8293 310.613 32.6219 310.613 32.3651V23.6729H308.593V32.3651C308.593 32.6219 308.381 32.8293 308.124 32.8293" fill="white"/>
<path d="M311.413 20.8232L309.29 23.658C308.929 24.1371 309.028 24.8187 309.512 25.1742C309.991 25.5348 310.678 25.436 311.038 24.9569L312.362 23.1889C312.89 22.4974 313.483 22.2406 313.769 22.1665C314.406 21.9986 316.323 21.2825 317.35 20.6652C318.372 20.0429 318.901 18.6008 318.846 17.3611L315.789 14.3188L309.3 16.3339C308.509 16.6006 308.223 17.05 308.104 17.3167C307.986 17.5883 306.692 20.6306 306.692 20.6306C306.544 21.0109 306.46 21.4652 306.677 21.8505C306.894 22.2357 307.388 23.0061 307.388 23.0061L308.816 21.5838C308.816 21.5838 308.761 20.7985 308.944 20.3935C309.132 19.9935 309.329 19.3268 309.754 19.1736C310.174 19.0255 310.91 18.7884 310.91 18.7884C310.91 18.7884 310.845 19.628 310.994 20.0774C311.147 20.5269 311.379 20.7936 311.379 20.7936" fill="black"/>
<path d="M310.164 25.8607C309.828 25.8607 309.502 25.7521 309.231 25.5496C308.895 25.3026 308.677 24.9372 308.618 24.5272C308.564 24.1173 308.668 23.7074 308.919 23.3765L310.831 20.8232C310.737 20.6701 310.633 20.4725 310.549 20.2256C310.475 19.9935 310.441 19.7021 310.431 19.4403C310.248 19.4996 310.06 19.5638 309.912 19.6132C309.759 19.6675 309.576 20.1071 309.477 20.3392L309.374 20.5911C309.28 20.7886 309.265 21.2726 309.285 21.5541C309.295 21.6875 309.245 21.8208 309.152 21.9146L307.719 23.337C307.621 23.4358 307.477 23.4852 307.339 23.4704C307.196 23.4555 307.072 23.3765 306.993 23.258C306.993 23.258 306.49 22.4727 306.267 22.0826C306.015 21.6331 306.01 21.0849 306.257 20.4577C306.262 20.4478 307.556 17.4006 307.675 17.1339C307.927 16.561 308.435 16.1314 309.147 15.8894L315.646 13.8743C315.814 13.82 315.997 13.8645 316.12 13.9879L319.182 17.0351C319.266 17.1191 319.311 17.2278 319.315 17.3463C319.37 18.6057 318.851 20.3046 317.592 21.0602C316.525 21.7072 314.589 22.4332 313.888 22.6209C313.784 22.6456 313.241 22.8135 312.737 23.4704L311.413 25.2384C311.162 25.5693 310.801 25.7866 310.386 25.8459C310.312 25.8558 310.238 25.8607 310.164 25.8607ZM310.915 18.3242C311.018 18.3242 311.122 18.3587 311.201 18.4229C311.325 18.5217 311.394 18.6699 311.379 18.8279C311.359 19.1144 311.354 19.6675 311.443 19.9293C311.557 20.2799 311.735 20.4923 311.739 20.4923C311.922 20.6503 311.937 20.9071 311.789 21.1047L309.67 23.9346C309.566 24.0679 309.527 24.2309 309.552 24.3939C309.571 24.5569 309.66 24.705 309.794 24.7989C309.927 24.9026 310.09 24.9372 310.253 24.9223C310.416 24.8977 310.564 24.8088 310.663 24.6803L311.986 22.9073C312.663 22.0282 313.428 21.7714 313.651 21.7171C314.214 21.5689 316.11 20.8676 317.103 20.2651C317.947 19.7564 318.372 18.5563 318.382 17.5587L315.656 14.8522L309.438 16.7783C308.989 16.9314 308.677 17.1784 308.534 17.5043C308.416 17.776 307.127 20.8133 307.127 20.8133C306.993 21.1541 306.978 21.4306 307.087 21.6183C307.181 21.7912 307.334 22.0381 307.472 22.2604L308.342 21.401C308.337 21.0948 308.351 20.5664 308.519 20.2009L308.613 19.9836C308.796 19.5391 309.053 18.9267 309.596 18.7341C310.021 18.5859 310.767 18.3439 310.767 18.3439C310.816 18.3291 310.865 18.3242 310.915 18.3242Z" fill="white"/>
</g>
<defs>
<clipPath id="clip0_66_2385">
<rect width="341" height="61" fill="white"/>
</clipPath>
</defs>
</svg>
