<svg width="332" height="61" viewBox="0 0 332 61" fill="none" xmlns="http://www.w3.org/2000/svg">
<g clip-path="url(#clip0_66_933)">
<path d="M24.6979 60.4688C11.0781 60.4688 0 49.5208 0 36.0625V0H306.948C320.563 0 331.641 10.9479 331.641 24.4062V60.4688" fill="white"/>
<path d="M244.083 52.9114H69.1353C59.6874 52.9114 51.9999 45.3541 51.9999 36.0625V7.55725H226.948C236.396 7.55725 244.083 15.1145 244.083 24.4062V52.9114ZM227 6L50.1667 5.66663L50.1145 36.0625C50.1145 46.3958 58.6458 54.802 69.1353 54.802L245.969 55V24.4062C245.969 14.0729 237.49 6 227 6Z" fill="#010101"/>
<path d="M102.901 5.66663H50.1145V36.0625C50.1145 46.3958 58.6458 54.802 69.1353 54.802H121.927V24.4062C121.927 14.0729 113.391 5.66663 102.901 5.66663Z" fill="#010101"/>
<path d="M63.651 29.3594C58.8489 29.3594 54.9583 33.25 54.9583 38.0521C54.9583 42.8542 58.8489 46.7448 63.651 46.7448C68.4583 46.7448 72.3489 42.8542 72.3489 38.0521C72.3489 33.25 68.4583 29.3594 63.651 29.3594Z" fill="white"/>
<path d="M69.3229 39.4688H65.0729V43.7188H62.2344V39.4688H57.9844V36.6355H62.2344V32.3802H65.0729V36.6355H69.3229" fill="#1C1C1B"/>
<path d="M55.7864 26.5937V17.1979H58.2708V24.5156H61.828V26.5937" fill="white"/>
<path d="M62.9426 26.5937V17.1979H69.0155V19.276H65.4322V20.7552H68.4947V22.8385H65.4322V24.5156H69.1614V26.5937" fill="white"/>
<path d="M75.0885 26.5937V19.276H72.6041V17.1979H80.0677V19.276H77.5781V26.5937" fill="white"/>
<path d="M83.5521 21.4739H84.4479C85.4479 21.4739 85.9531 21.0625 85.9531 20.2343C85.9531 19.8281 85.8229 19.5468 85.5677 19.3958C85.3125 19.2395 84.9375 19.1614 84.4479 19.1614H83.5521V21.4739ZM81.0625 26.5989V17.1979H84.6198C85.125 17.1979 85.6042 17.2448 86.0625 17.3385C86.5208 17.4375 86.9167 17.5989 87.2604 17.8333C87.6042 18.0625 87.875 18.375 88.0781 18.7656C88.2813 19.1562 88.3802 19.6458 88.3802 20.2343C88.3802 20.9062 88.2448 21.4687 87.9688 21.9114C87.6979 22.3541 87.3281 22.6979 86.8646 22.9531L88.901 26.5989H86.125L84.5052 23.4427H83.5521V26.5989" fill="white"/>
<path d="M89.8698 26.5989H92.3593V17.1979H89.8698V26.5989Z" fill="white"/>
<path d="M75.3801 43.276V33.8698H81.5103V35.9531H77.8697V37.75H80.9895V39.8333H77.8697V43.276" fill="white"/>
<path d="M84.9218 38.7031L84.7604 39.3541H86.4948L86.3385 38.7031C86.2239 38.25 86.1041 37.7604 85.9895 37.2291C85.875 36.6979 85.7604 36.1979 85.6406 35.7239H85.5833C85.4791 36.2031 85.3698 36.7083 85.2604 37.2343C85.151 37.7604 85.0364 38.25 84.9218 38.7031ZM81.3073 43.276L84.1666 33.8698H87.1718L90.0364 43.276H87.4062L86.9427 41.276H84.3125L83.8489 43.276" fill="white"/>
<path d="M94.5624 43.4479C93.9687 43.4479 93.3958 43.3489 92.8541 43.151C92.3072 42.9531 91.8333 42.651 91.4218 42.2552C91.0103 41.8541 90.6822 41.3541 90.4426 40.75C90.203 40.1458 90.0833 39.4479 90.0833 38.6458C90.0833 37.8541 90.2083 37.151 90.4583 36.5416C90.7083 35.927 91.0416 35.4114 91.4635 34.9948C91.8801 34.5729 92.3645 34.25 92.9114 34.0312C93.4583 33.8073 94.026 33.6979 94.6249 33.6979C95.2499 33.6979 95.8124 33.8229 96.302 34.0677C96.7968 34.3125 97.2083 34.6041 97.5468 34.9427L96.2447 36.5312C96.0155 36.3333 95.776 36.1666 95.5312 36.0312C95.2812 35.9062 94.9999 35.8385 94.6822 35.8385C94.401 35.8385 94.1405 35.901 93.8958 36.026C93.651 36.151 93.4322 36.3333 93.2447 36.5625C93.0572 36.7916 92.9062 37.0781 92.7968 37.4166C92.6822 37.75 92.6301 38.1354 92.6301 38.5573C92.6301 39.4479 92.8124 40.125 93.1874 40.5989C93.5572 41.0677 94.0468 41.3073 94.651 41.3073C95.0208 41.3073 95.3437 41.2291 95.6301 41.0677C95.9114 40.9062 96.1562 40.7187 96.3593 40.4948L97.6614 42.0573C97.2551 42.5208 96.7916 42.8698 96.2655 43.0989C95.7395 43.3333 95.1718 43.4479 94.5624 43.4479Z" fill="white"/>
<path d="M98.6198 43.276H101.104V33.8698H98.6198V43.276Z" fill="white"/>
<path d="M102.875 43.276V33.8698H105.365V41.1927H108.922V43.276" fill="white"/>
<path d="M110.031 43.276V33.8698H116.109V35.9531H112.521V37.4323H115.589V39.5156H112.521V41.1927H116.255V43.276" fill="white"/>
<path fill-rule="evenodd" clip-rule="evenodd" d="M16.2604 29.1927C16.2604 29.1927 15.9115 29.151 15.6771 29.7968L13.5573 35.7083C15.224 37.1198 17.1823 38.1823 19.3281 38.8073L16.7552 29.7708C16.5781 29.125 16.2604 29.1927 16.2604 29.1927ZM5.67188 23.6979C5.67188 13.7552 13.7604 5.66663 23.7031 5.66663C28.9635 5.66663 33.7083 7.93225 37.0052 11.5364L35.3906 13.177C32.5104 9.97913 28.3385 7.9635 23.7031 7.9635C15.026 7.9635 7.96875 15.0208 7.96875 23.6979C7.96875 27.5208 9.34375 31.0312 11.6198 33.7604L14.2656 20.7968C14.7396 18.5104 16.8854 16.7552 19.0521 17.1562C20.6406 17.4583 28.0938 22.3958 28.0938 22.3958C28.7292 22.802 28.375 23.3489 28.375 23.3489C28.375 23.3489 28.0729 23.875 27.4479 23.6041L21.9792 21.4062C21.0052 20.9948 19.4323 21.4323 19.6667 24.1875L21.3802 38.7864L21.4531 39.2656C22.1875 39.375 22.9375 39.4323 23.7031 39.4323C24.1875 39.4323 24.6719 39.401 25.1458 39.3541L25.0052 37.4531L28.6979 40.2708L25.3958 43.4635L25.276 41.651C24.7552 41.6979 24.2344 41.7291 23.7031 41.7291C13.7604 41.7291 5.67188 33.6406 5.67188 23.6979ZM19.9375 16.4115C18.4167 16.4115 17.1875 15.1823 17.1875 13.6562C17.1875 12.1354 18.4167 10.9062 19.9375 10.9062C21.4583 10.9062 22.6927 12.1354 22.6927 13.6562C22.6927 15.1823 21.4583 16.4115 19.9375 16.4115ZM37.1046 24.564C37.7365 24.0543 39.7005 22.4703 40.1613 19.1927L40.2342 18.1823L42.0519 18.2864L38.0259 12.8541L33.2134 17.6927L34.979 17.7656L34.9998 17.7708C35.0415 17.9687 35.2446 19.2656 34.5571 21.3177C33.7967 23.6041 31.4373 26.2916 28.4634 25.8177C32.6457 27.5677 36.0311 25.4375 37.0936 24.5729L37.1046 24.564ZM28.375 25.8489C29.5781 28.6093 33.1146 29.1406 35.4479 28.552C37.5208 28.026 38.5052 27.1718 38.6719 27.0156L38.6615 27L37.776 25.4635L44.4427 26.9218L42.0312 33.2395L41.1354 31.6458L40.2656 32.1198C37.2654 33.4985 34.8744 32.7065 34.0978 32.4492L34.0781 32.4427C32.7812 32.0156 29.1562 30.3125 28.375 25.8489ZM28.4062 25.7448C26.7135 28.2343 28.151 31.5104 29.8958 33.1718C31.4895 34.6823 32.7655 35.0364 32.9322 35.0781L33.7447 33.5208L36.0885 39.9323L29.4635 41.2812L30.3437 39.6458L29.4478 39.1458C26.6887 37.3493 26.0817 34.9168 25.8818 34.1162L25.8749 34.0885C25.5416 32.7604 25.0468 28.7864 28.4062 25.7448Z" fill="#010101"/>
<path d="M131.328 25.728H132C132.416 25.728 132.752 25.636 133.008 25.452C133.264 25.268 133.392 24.928 133.392 24.432C133.392 24.184 133.356 23.98 133.284 23.82C133.22 23.652 133.128 23.52 133.008 23.424C132.896 23.32 132.76 23.248 132.6 23.208C132.44 23.168 132.264 23.148 132.072 23.148H131.328V25.728ZM131.328 21.948H131.82C132.3 21.948 132.648 21.864 132.864 21.696C133.088 21.52 133.2 21.228 133.2 20.82C133.2 20.412 133.1 20.124 132.9 19.956C132.7 19.788 132.384 19.704 131.952 19.704H131.328V21.948ZM129.6 18.432H132.492C132.844 18.432 133.168 18.468 133.464 18.54C133.768 18.612 134.028 18.732 134.244 18.9C134.46 19.068 134.628 19.292 134.748 19.572C134.868 19.852 134.928 20.196 134.928 20.604C134.928 21.068 134.82 21.468 134.604 21.804C134.388 22.132 134.064 22.356 133.632 22.476V22.5C134.112 22.564 134.492 22.768 134.772 23.112C135.052 23.456 135.192 23.916 135.192 24.492C135.192 24.828 135.148 25.148 135.06 25.452C134.972 25.756 134.82 26.024 134.604 26.256C134.396 26.48 134.12 26.66 133.776 26.796C133.44 26.932 133.02 27 132.516 27H129.6V18.432ZM139.844 23.772L139.016 19.92H138.992L138.164 23.772H139.844ZM140.072 18.432L142.34 27H140.54L140.144 25.188H137.864L137.468 27H135.668L137.936 18.432H140.072ZM142.936 27V18.432H144.664V25.584H147.724V27H142.936ZM152.067 23.772L151.239 19.92H151.215L150.387 23.772H152.067ZM152.295 18.432L154.563 27H152.763L152.367 25.188H150.087L149.691 27H147.891L150.159 18.432H152.295ZM155.243 27V18.432H156.971V27H155.243ZM131.412 40.728H132.18C132.484 40.728 132.728 40.676 132.912 40.572C133.096 40.468 133.24 40.296 133.344 40.056C133.456 39.816 133.528 39.5 133.56 39.108C133.6 38.716 133.62 38.228 133.62 37.644C133.62 37.156 133.604 36.728 133.572 36.36C133.54 35.992 133.472 35.688 133.368 35.448C133.272 35.2 133.124 35.016 132.924 34.896C132.732 34.768 132.472 34.704 132.144 34.704H131.412V40.728ZM129.684 33.432H132.516C133.116 33.432 133.6 33.532 133.968 33.732C134.336 33.924 134.62 34.204 134.82 34.572C135.028 34.932 135.168 35.368 135.24 35.88C135.312 36.392 135.348 36.964 135.348 37.596C135.348 38.348 135.3 39.004 135.204 39.564C135.116 40.116 134.96 40.572 134.736 40.932C134.512 41.292 134.212 41.56 133.836 41.736C133.46 41.912 132.984 42 132.408 42H129.684V33.432ZM136.707 33.432H138.195V37.284H136.707V33.432ZM144.396 33.432V34.848H141.336V36.864H144.216V38.28H141.336V40.584H144.516V42H139.608V33.432H144.396ZM146.777 39.324V39.576C146.777 39.776 146.793 39.96 146.825 40.128C146.857 40.288 146.917 40.424 147.005 40.536C147.093 40.648 147.209 40.736 147.353 40.8C147.505 40.864 147.693 40.896 147.917 40.896C148.181 40.896 148.417 40.812 148.625 40.644C148.841 40.468 148.949 40.2 148.949 39.84C148.949 39.648 148.921 39.484 148.865 39.348C148.817 39.204 148.733 39.076 148.613 38.964C148.493 38.852 148.333 38.752 148.133 38.664C147.941 38.568 147.701 38.472 147.413 38.376C147.029 38.248 146.697 38.108 146.417 37.956C146.137 37.804 145.901 37.628 145.709 37.428C145.525 37.22 145.389 36.984 145.301 36.72C145.213 36.448 145.169 36.136 145.169 35.784C145.169 34.936 145.405 34.304 145.877 33.888C146.349 33.472 146.997 33.264 147.821 33.264C148.205 33.264 148.557 33.308 148.877 33.396C149.205 33.476 149.485 33.612 149.717 33.804C149.957 33.988 150.141 34.228 150.269 34.524C150.405 34.812 150.473 35.16 150.473 35.568V35.808H148.817C148.817 35.4 148.745 35.088 148.601 34.872C148.457 34.648 148.217 34.536 147.881 34.536C147.689 34.536 147.529 34.564 147.401 34.62C147.273 34.676 147.169 34.752 147.089 34.848C147.017 34.936 146.965 35.04 146.933 35.16C146.909 35.28 146.897 35.404 146.897 35.532C146.897 35.796 146.953 36.02 147.065 36.204C147.177 36.38 147.417 36.544 147.785 36.696L149.117 37.272C149.445 37.416 149.713 37.568 149.921 37.728C150.129 37.88 150.293 38.048 150.413 38.232C150.541 38.408 150.629 38.604 150.677 38.82C150.725 39.036 150.749 39.276 150.749 39.54C150.749 40.444 150.485 41.104 149.957 41.52C149.437 41.928 148.709 42.132 147.773 42.132C146.797 42.132 146.097 41.92 145.673 41.496C145.257 41.072 145.049 40.464 145.049 39.672V39.324H146.777ZM153 39.324V39.576C153 39.776 153.016 39.96 153.048 40.128C153.08 40.288 153.14 40.424 153.228 40.536C153.316 40.648 153.432 40.736 153.576 40.8C153.728 40.864 153.916 40.896 154.14 40.896C154.404 40.896 154.64 40.812 154.848 40.644C155.064 40.468 155.172 40.2 155.172 39.84C155.172 39.648 155.144 39.484 155.088 39.348C155.04 39.204 154.956 39.076 154.836 38.964C154.716 38.852 154.556 38.752 154.356 38.664C154.164 38.568 153.924 38.472 153.636 38.376C153.252 38.248 152.92 38.108 152.64 37.956C152.36 37.804 152.124 37.628 151.932 37.428C151.748 37.22 151.612 36.984 151.524 36.72C151.436 36.448 151.392 36.136 151.392 35.784C151.392 34.936 151.628 34.304 152.1 33.888C152.572 33.472 153.22 33.264 154.044 33.264C154.428 33.264 154.78 33.308 155.1 33.396C155.428 33.476 155.708 33.612 155.94 33.804C156.18 33.988 156.364 34.228 156.492 34.524C156.628 34.812 156.696 35.16 156.696 35.568V35.808H155.04C155.04 35.4 154.968 35.088 154.824 34.872C154.68 34.648 154.44 34.536 154.104 34.536C153.912 34.536 153.752 34.564 153.624 34.62C153.496 34.676 153.392 34.752 153.312 34.848C153.24 34.936 153.188 35.04 153.156 35.16C153.132 35.28 153.12 35.404 153.12 35.532C153.12 35.796 153.176 36.02 153.288 36.204C153.4 36.38 153.64 36.544 154.008 36.696L155.34 37.272C155.668 37.416 155.936 37.568 156.144 37.728C156.352 37.88 156.516 38.048 156.636 38.232C156.764 38.408 156.852 38.604 156.9 38.82C156.948 39.036 156.972 39.276 156.972 39.54C156.972 40.444 156.708 41.104 156.18 41.52C155.66 41.928 154.932 42.132 153.996 42.132C153.02 42.132 152.32 41.92 151.896 41.496C151.48 41.072 151.272 40.464 151.272 39.672V39.324H153ZM159.45 33.432V39.408C159.45 39.624 159.462 39.824 159.486 40.008C159.518 40.184 159.57 40.34 159.642 40.476C159.722 40.604 159.826 40.708 159.954 40.788C160.09 40.86 160.258 40.896 160.458 40.896C160.666 40.896 160.834 40.86 160.962 40.788C161.09 40.708 161.19 40.604 161.262 40.476C161.342 40.34 161.394 40.184 161.418 40.008C161.45 39.824 161.466 39.624 161.466 39.408V33.432H163.194V39.408C163.194 39.952 163.118 40.404 162.966 40.764C162.814 41.116 162.61 41.396 162.354 41.604C162.098 41.812 161.806 41.952 161.478 42.024C161.15 42.096 160.81 42.132 160.458 42.132C160.106 42.132 159.766 42.1 159.438 42.036C159.11 41.972 158.818 41.844 158.562 41.652C158.306 41.452 158.102 41.172 157.95 40.812C157.798 40.452 157.722 39.984 157.722 39.408V33.432H159.45ZM164.372 42V33.432H166.1V42H164.372ZM172.169 33.432V34.848H169.109V36.864H171.989V38.28H169.109V40.584H172.289V42H167.381V33.432H172.169ZM176.471 37.824V39.24H173.087V37.824H176.471ZM181.404 35.976C181.404 35.816 181.384 35.652 181.344 35.484C181.312 35.316 181.256 35.164 181.176 35.028C181.096 34.884 180.992 34.768 180.864 34.68C180.744 34.584 180.596 34.536 180.42 34.536C180.004 34.536 179.704 34.768 179.52 35.232C179.336 35.696 179.244 36.464 179.244 37.536C179.244 38.048 179.26 38.512 179.292 38.928C179.324 39.344 179.38 39.7 179.46 39.996C179.548 40.284 179.668 40.508 179.82 40.668C179.98 40.82 180.184 40.896 180.432 40.896C180.536 40.896 180.648 40.868 180.768 40.812C180.896 40.756 181.012 40.672 181.116 40.56C181.228 40.448 181.32 40.308 181.392 40.14C181.464 39.964 181.5 39.76 181.5 39.528V38.652H180.36V37.38H183.156V42H181.884V41.208H181.86C181.652 41.544 181.4 41.784 181.104 41.928C180.816 42.064 180.468 42.132 180.06 42.132C179.532 42.132 179.1 42.04 178.764 41.856C178.436 41.672 178.176 41.388 177.984 41.004C177.8 40.62 177.676 40.148 177.612 39.588C177.548 39.02 177.516 38.364 177.516 37.62C177.516 36.9 177.56 36.268 177.648 35.724C177.744 35.18 177.904 34.728 178.128 34.368C178.352 34 178.648 33.724 179.016 33.54C179.384 33.356 179.844 33.264 180.396 33.264C181.34 33.264 182.02 33.5 182.436 33.972C182.852 34.436 183.06 35.104 183.06 35.976H181.404ZM184.268 42V33.432H185.996V40.584H189.056V42H184.268ZM193.399 38.772L192.571 34.92H192.547L191.719 38.772H193.399ZM193.627 33.432L195.895 42H194.095L193.699 40.188H191.419L191.023 42H189.223L191.491 33.432H193.627ZM200.151 36.324C200.151 35.7 200.075 35.248 199.923 34.968C199.779 34.68 199.511 34.536 199.119 34.536C198.903 34.536 198.723 34.596 198.579 34.716C198.443 34.828 198.335 35.016 198.255 35.28C198.175 35.536 198.119 35.876 198.087 36.3C198.055 36.716 198.039 37.228 198.039 37.836C198.039 38.484 198.059 39.008 198.099 39.408C198.147 39.808 198.215 40.12 198.303 40.344C198.399 40.56 198.515 40.708 198.651 40.788C198.795 40.86 198.959 40.896 199.143 40.896C199.295 40.896 199.435 40.872 199.563 40.824C199.699 40.768 199.815 40.664 199.911 40.512C200.007 40.352 200.083 40.132 200.139 39.852C200.195 39.564 200.223 39.188 200.223 38.724H201.951C201.951 39.188 201.915 39.628 201.843 40.044C201.771 40.46 201.635 40.824 201.435 41.136C201.243 41.448 200.967 41.692 200.607 41.868C200.255 42.044 199.795 42.132 199.227 42.132C198.579 42.132 198.063 42.028 197.679 41.82C197.295 41.612 196.999 41.312 196.791 40.92C196.591 40.528 196.459 40.06 196.395 39.516C196.339 38.972 196.311 38.372 196.311 37.716C196.311 37.068 196.339 36.472 196.395 35.928C196.459 35.376 196.591 34.904 196.791 34.512C196.999 34.12 197.295 33.816 197.679 33.6C198.063 33.376 198.579 33.264 199.227 33.264C199.843 33.264 200.327 33.364 200.679 33.564C201.039 33.764 201.307 34.02 201.483 34.332C201.659 34.636 201.767 34.968 201.807 35.328C201.855 35.68 201.879 36.012 201.879 36.324H200.151ZM207.724 33.432V34.848H204.664V36.864H207.544V38.28H204.664V40.584H207.844V42H202.936V33.432H207.724Z" fill="black"/>
<path d="M211 6H237V55H230H211L224.5 28.5L211 6Z" fill="#010101"/>
<path d="M237 6H308C317.941 6 326 14.0589 326 24V55H237V6Z" fill="black"/>
<rect x="237" y="8" width="31" height="31" fill="black"/>
<path d="M240.11 43.1H241.286C241.668 43.1 241.955 43.2027 242.147 43.408C242.338 43.6133 242.434 43.9143 242.434 44.311V46.789C242.434 47.1857 242.338 47.4867 242.147 47.692C241.955 47.8973 241.668 48 241.286 48H240.11V43.1ZM241.272 47.3C241.398 47.3 241.493 47.2627 241.559 47.188C241.629 47.1133 241.664 46.992 241.664 46.824V44.276C241.664 44.108 241.629 43.9867 241.559 43.912C241.493 43.8373 241.398 43.8 241.272 43.8H240.88V47.3H241.272ZM242.954 43.1H245.054V43.8H243.724V45.095H244.781V45.795H243.724V47.3H245.054V48H242.954V43.1ZM244.074 41.966H244.914L244.165 42.771H243.584L244.074 41.966ZM246.581 48.07C246.213 48.07 245.93 47.965 245.734 47.755C245.543 47.545 245.447 47.2487 245.447 46.866V44.234C245.447 43.8513 245.543 43.555 245.734 43.345C245.93 43.135 246.213 43.03 246.581 43.03C246.95 43.03 247.23 43.135 247.421 43.345C247.617 43.555 247.715 43.8513 247.715 44.234V44.752H246.987V44.185C246.987 43.8817 246.859 43.73 246.602 43.73C246.346 43.73 246.217 43.8817 246.217 44.185V46.922C246.217 47.2207 246.346 47.37 246.602 47.37C246.859 47.37 246.987 47.2207 246.987 46.922V46.173H247.715V46.866C247.715 47.2487 247.617 47.545 247.421 47.755C247.23 47.965 246.95 48.07 246.581 48.07ZM248.176 43.1H248.946V45.095H249.772V43.1H250.542V48H249.772V45.795H248.946V48H248.176V43.1ZM251.116 43.1H253.216V43.8H251.886V45.095H252.943V45.795H251.886V47.3H253.216V48H251.116V43.1ZM251.256 41.966H252.096L252.586 42.771H252.005L251.256 41.966ZM254.261 43.8H253.456V43.1H255.836V43.8H255.031V48H254.261V43.8ZM256.208 43.1H258.308V43.8H256.978V45.095H258.035V45.795H256.978V47.3H258.308V48H256.208V43.1ZM258.751 43.1H259.892C260.289 43.1 260.578 43.1933 260.76 43.38C260.942 43.562 261.033 43.8443 261.033 44.227V44.528C261.033 45.0367 260.865 45.3587 260.529 45.494V45.508C260.716 45.564 260.847 45.6783 260.921 45.851C261.001 46.0237 261.04 46.2547 261.04 46.544V47.405C261.04 47.545 261.045 47.6593 261.054 47.748C261.064 47.832 261.087 47.916 261.124 48H260.34C260.312 47.9207 260.294 47.846 260.284 47.776C260.275 47.706 260.27 47.58 260.27 47.398V46.502C260.27 46.278 260.233 46.1217 260.158 46.033C260.088 45.9443 259.965 45.9 259.787 45.9H259.521V48H258.751V43.1ZM259.801 45.2C259.955 45.2 260.07 45.1603 260.144 45.081C260.224 45.0017 260.263 44.8687 260.263 44.682V44.304C260.263 44.1267 260.231 43.9983 260.165 43.919C260.105 43.8397 260.007 43.8 259.871 43.8H259.521V45.2H259.801ZM261.575 43.1H262.345V48H261.575V43.1ZM262.921 43.1H265.021V43.8H263.691V45.095H264.748V45.795H263.691V47.3H265.021V48H262.921V43.1Z" fill="white"/>
<path d="M246.988 32.4391L242.474 32.4342C242.217 32.4342 242.005 32.2268 242.005 31.97L242 27.4806C242 27.2929 242.114 27.1201 242.291 27.0509C242.464 26.9769 242.667 27.0164 242.8 27.1497L243.684 28.0288L251.29 20.4577C251.473 20.2799 251.769 20.2799 251.952 20.4577L254.046 22.5419C254.135 22.6308 254.184 22.7443 254.184 22.8728C254.184 22.9962 254.135 23.1148 254.046 23.2037L246.44 30.7649L247.319 31.644C247.452 31.7773 247.492 31.9798 247.418 32.1527C247.349 32.3255 247.176 32.4391 246.988 32.4391ZM242.943 31.5008L245.852 31.5057L245.442 31.0958C245.26 30.9131 245.26 30.6167 245.442 30.434L253.048 22.8728L251.621 21.4504L244.015 29.0166C243.832 29.1993 243.536 29.1993 243.353 29.0166L242.938 28.6116" fill="white"/>
<path d="M256.54 25.673C256.179 25.673 255.833 25.5347 255.567 25.2878C255.29 25.031 255.132 24.6803 255.117 24.3L255.048 22.1517L255.987 22.122L256.056 24.2704C256.061 24.3988 256.115 24.5173 256.209 24.6062C256.303 24.6951 256.436 24.7297 256.559 24.7396C256.688 24.7347 256.806 24.6803 256.895 24.5865C256.984 24.4927 257.029 24.3692 257.024 24.2408L256.92 21.3763L257.858 21.3467L257.962 24.2062C257.977 24.5865 257.844 24.947 257.582 25.2236C257.32 25.5002 256.969 25.6582 256.589 25.6681C256.569 25.673 256.555 25.673 256.54 25.673Z" fill="white"/>
<path d="M256.54 25.673C256.179 25.673 255.833 25.5347 255.567 25.2878C255.29 25.031 255.132 24.6803 255.117 24.3L255.048 22.1517L255.987 22.122L256.056 24.2704C256.061 24.3988 256.115 24.5173 256.209 24.6062C256.303 24.6951 256.436 24.7297 256.559 24.7396C256.688 24.7347 256.806 24.6803 256.895 24.5865C256.984 24.4927 257.029 24.3692 257.024 24.2408L256.92 21.3763L257.858 21.3467L257.962 24.2062C257.977 24.5865 257.844 24.947 257.582 25.2236C257.32 25.5002 256.969 25.6582 256.589 25.6681C256.569 25.673 256.555 25.673 256.54 25.673Z" fill="white"/>
<path d="M254.643 25.9941C254.278 25.9941 253.937 25.8607 253.67 25.6138C253.394 25.352 253.231 25.0014 253.221 24.6211L253.152 22.4727L254.09 22.4431L254.159 24.5915C254.164 24.7248 254.219 24.8433 254.312 24.9322C254.406 25.0211 254.53 25.0755 254.658 25.0606C254.925 25.0508 255.137 24.8285 255.127 24.5618L255.024 21.7023L255.962 21.6677L256.066 24.5273C256.095 25.3125 255.478 25.9644 254.693 25.9941C254.673 25.9941 254.658 25.9941 254.643 25.9941Z" fill="white"/>
<path d="M256.258 32.449C256.066 32.449 255.893 32.3305 255.824 32.1576C255.75 31.9848 255.789 31.7823 255.922 31.6489L256.806 30.7698L249.201 23.2037C249.018 23.0259 249.018 22.7295 249.201 22.5468L251.29 20.4627C251.463 20.2898 251.779 20.2898 251.952 20.4627L259.893 28.3597L259.226 29.0215L251.621 21.4553L250.193 22.8777L257.799 30.4389C257.987 30.6217 257.987 30.9229 257.799 31.1007L257.389 31.5107H260.298L260.303 27.4856H261.241L261.236 31.9749C261.236 32.2317 261.029 32.4391 260.767 32.4391L256.258 32.449Z" fill="white"/>
<path d="M251.601 36C251.478 36 251.359 35.9556 251.265 35.8617L248.075 32.696C247.941 32.5626 247.902 32.3601 247.971 32.1873C248.045 32.0095 248.218 31.8959 248.406 31.8959H249.655V23.2037C249.655 22.9469 249.863 22.7345 250.124 22.7345H253.083C253.339 22.7345 253.552 22.9469 253.552 23.2037V32.3651H252.613V23.6729H250.593V32.3651C250.593 32.6219 250.381 32.8293 250.124 32.8293H249.542L251.601 34.874L254.461 32.0342L255.127 32.696L251.932 35.8617C251.838 35.9556 251.72 36 251.601 36Z" fill="white"/>
<path d="M246.983 32.4391L242.474 32.4342C242.217 32.4342 242.005 32.2268 242.005 31.97L242 27.4806C242 27.2929 242.114 27.1201 242.291 27.0509C242.464 26.9769 242.667 27.0164 242.8 27.1497L243.684 28.0288L251.29 20.4577C251.473 20.2799 251.769 20.2799 251.952 20.4577L254.046 22.5419C254.135 22.6308 254.184 22.7443 254.184 22.8728C254.184 22.9962 254.135 23.1148 254.046 23.2037L246.104 31.0958L245.442 30.434L253.048 22.8728L251.621 21.4504L244.015 29.0166C243.832 29.1993 243.536 29.1993 243.353 29.0166L242.938 28.6116L242.943 31.5008L246.988 31.5057" fill="white"/>
<path d="M262.407 19.0452C262.066 19.0452 261.745 18.9119 261.503 18.6748L257.098 14.2892C256.856 14.0522 256.722 13.7311 256.722 13.3953C256.722 13.0545 256.856 12.7384 257.093 12.4964L258.239 11.3556C258.723 10.8815 259.562 10.8815 260.046 11.3556L264.452 15.7412C264.95 16.2351 264.95 17.0401 264.452 17.534L263.306 18.6748C263.064 18.9119 262.748 19.0452 262.407 19.0452ZM259.142 11.9186C259.054 11.9186 258.97 11.9581 258.905 12.0174V12.0223L257.76 13.1582C257.695 13.2224 257.661 13.3064 257.661 13.3953C257.661 13.4842 257.695 13.5682 257.76 13.6274L262.165 18.013C262.293 18.1414 262.516 18.1365 262.644 18.013L263.79 16.8771C263.918 16.7438 263.918 16.5314 263.785 16.403L259.38 12.0223C259.315 11.9581 259.231 11.9186 259.142 11.9186Z" fill="white"/>
<path d="M257.742 26.6615L254.2 23.5131L253.413 24.3002L253.019 25.8744L255.381 29.0228L257.742 26.6615Z" fill="black"/>
<path d="M256.258 32.449C256.066 32.449 255.893 32.3305 255.824 32.1576C255.75 31.9848 255.789 31.7823 255.922 31.6489L256.806 30.7698L249.201 23.2037C249.018 23.0259 249.018 22.7295 249.201 22.5468L251.29 20.4627C251.463 20.2898 251.779 20.2898 251.952 20.4627L259.562 28.0338L260.441 27.1547C260.575 27.0213 260.777 26.9818 260.955 27.0559C261.128 27.125 261.241 27.2979 261.241 27.4856L261.236 31.9749C261.236 32.2317 261.029 32.4391 260.767 32.4391L256.258 32.449ZM250.193 22.8777L257.799 30.4389C257.987 30.6217 257.987 30.9229 257.799 31.1007L257.389 31.5107H260.298L260.303 28.6165L259.893 29.0215C259.71 29.2043 259.414 29.2043 259.226 29.0215L251.621 21.4553" fill="white"/>
<path d="M248.69 32.5647H250.264V23.5131H253.019L253.413 32.5647H254.2L251.445 35.7131L248.69 32.5647Z" fill="black"/>
<path d="M251.601 36C251.478 36 251.359 35.9556 251.27 35.8617L248.075 32.696C247.941 32.5626 247.902 32.3601 247.971 32.1873C248.045 32.0095 248.218 31.8959 248.406 31.8959H249.655V23.2037C249.655 22.9469 249.863 22.7345 250.124 22.7345H253.083C253.339 22.7345 253.552 22.9469 253.552 23.2037V31.8959H254.791C254.984 31.8959 255.157 32.0095 255.226 32.1873C255.3 32.3601 255.261 32.5626 255.127 32.696L251.932 35.8617C251.838 35.9556 251.72 36 251.601 36ZM249.542 32.8293L251.601 34.874L253.66 32.8293H253.083C252.821 32.8293 252.613 32.6219 252.613 32.3651V23.6729H250.593V32.3651C250.593 32.6219 250.381 32.8293 250.124 32.8293" fill="white"/>
<path d="M253.413 20.8232L251.29 23.658C250.929 24.1371 251.028 24.8186 251.512 25.1742C251.991 25.5347 252.678 25.436 253.038 24.9569L254.362 23.1888C254.89 22.4974 255.483 22.2406 255.769 22.1665C256.406 21.9986 258.323 21.2825 259.35 20.6651C260.372 20.0428 260.901 18.6007 260.846 17.3611L257.789 14.3188L251.3 16.3338C250.509 16.6005 250.223 17.05 250.104 17.3166C249.986 17.5883 248.692 20.6306 248.692 20.6306C248.544 21.0108 248.46 21.4652 248.677 21.8504C248.894 22.2357 249.388 23.0061 249.388 23.0061L250.816 21.5837C250.816 21.5837 250.761 20.7985 250.944 20.3935C251.132 19.9935 251.329 19.3267 251.754 19.1736C252.174 19.0255 252.91 18.7884 252.91 18.7884C252.91 18.7884 252.845 19.628 252.994 20.0774C253.147 20.5268 253.379 20.7935 253.379 20.7935" fill="black"/>
<path d="M252.164 25.8607C251.828 25.8607 251.502 25.752 251.231 25.5496C250.895 25.3026 250.677 24.9371 250.618 24.5272C250.564 24.1173 250.668 23.7074 250.919 23.3765L252.831 20.8232C252.737 20.6701 252.633 20.4725 252.549 20.2256C252.475 19.9934 252.441 19.7021 252.431 19.4403C252.248 19.4996 252.06 19.5638 251.912 19.6132C251.759 19.6675 251.576 20.107 251.477 20.3392L251.374 20.591C251.28 20.7886 251.265 21.2726 251.285 21.5541C251.295 21.6874 251.245 21.8208 251.152 21.9146L249.719 23.337C249.621 23.4358 249.477 23.4852 249.339 23.4703C249.196 23.4555 249.072 23.3765 248.993 23.258C248.993 23.258 248.49 22.4727 248.267 22.0825C248.015 21.6331 248.01 21.0849 248.257 20.4577C248.262 20.4478 249.556 17.4006 249.675 17.1339C249.927 16.561 250.435 16.1313 251.147 15.8893L257.646 13.8743C257.814 13.82 257.997 13.8644 258.12 13.9879L261.182 17.0351C261.266 17.1191 261.311 17.2277 261.315 17.3463C261.37 18.6057 260.851 20.3046 259.592 21.0602C258.525 21.7072 256.589 22.4332 255.888 22.6209C255.784 22.6456 255.241 22.8135 254.737 23.4703L253.413 25.2384C253.162 25.5693 252.801 25.7866 252.386 25.8459C252.312 25.8558 252.238 25.8607 252.164 25.8607ZM252.915 18.3241C253.018 18.3241 253.122 18.3587 253.201 18.4229C253.325 18.5217 253.394 18.6699 253.379 18.8279C253.359 19.1143 253.354 19.6675 253.443 19.9292C253.557 20.2799 253.735 20.4923 253.739 20.4923C253.922 20.6503 253.937 20.9071 253.789 21.1047L251.67 23.9346C251.566 24.0679 251.527 24.2309 251.552 24.3939C251.571 24.5569 251.66 24.705 251.794 24.7989C251.927 24.9026 252.09 24.9371 252.253 24.9223C252.416 24.8976 252.564 24.8087 252.663 24.6803L253.986 22.9073C254.663 22.0282 255.428 21.7714 255.651 21.7171C256.214 21.5689 258.11 20.8676 259.103 20.2651C259.947 19.7564 260.372 18.5563 260.382 17.5586L257.656 14.8522L251.438 16.7783C250.989 16.9314 250.677 17.1784 250.534 17.5043C250.416 17.7759 249.127 20.8133 249.127 20.8133C248.993 21.1541 248.978 21.4306 249.087 21.6183C249.181 21.7912 249.334 22.0381 249.472 22.2603L250.342 21.401C250.337 21.0948 250.351 20.5663 250.519 20.2009L250.613 19.9836C250.796 19.5391 251.053 18.9267 251.596 18.7341C252.021 18.5859 252.767 18.3439 252.767 18.3439C252.816 18.3291 252.865 18.3241 252.915 18.3241Z" fill="white"/>
<path d="M275.59 31.07C275.212 31.07 274.923 30.9627 274.722 30.748C274.522 30.5333 274.421 30.23 274.421 29.838V27.262C274.421 26.87 274.522 26.5667 274.722 26.352C274.923 26.1373 275.212 26.03 275.59 26.03C275.968 26.03 276.258 26.1373 276.458 26.352C276.659 26.5667 276.759 26.87 276.759 27.262V29.838C276.759 30.23 276.659 30.5333 276.458 30.748C276.258 30.9627 275.968 31.07 275.59 31.07ZM275.59 30.37C275.856 30.37 275.989 30.209 275.989 29.887V27.213C275.989 26.891 275.856 26.73 275.59 26.73C275.324 26.73 275.191 26.891 275.191 27.213V29.887C275.191 30.209 275.324 30.37 275.59 30.37ZM278.4 31.07C278.027 31.07 277.742 30.965 277.546 30.755C277.35 30.5403 277.252 30.2347 277.252 29.838V26.1H278.022V29.894C278.022 30.062 278.055 30.1833 278.12 30.258C278.19 30.3327 278.288 30.37 278.414 30.37C278.54 30.37 278.636 30.3327 278.701 30.258C278.771 30.1833 278.806 30.062 278.806 29.894V26.1H279.548V29.838C279.548 30.2347 279.45 30.5403 279.254 30.755C279.058 30.965 278.773 31.07 278.4 31.07Z" fill="white"/>
<rect x="286" y="8" width="31" height="31" fill="black"/>
<path fill-rule="evenodd" clip-rule="evenodd" d="M299.109 14.1063C298.715 13.9593 298.442 13.9112 298.26 13.9138C298.076 13.9164 298.017 13.9696 298.005 13.983C297.994 13.9948 297.976 14.0235 297.975 14.1029C297.974 14.1628 297.984 14.2337 298.004 14.3061L300.457 16.7194H302.07C302.35 16.3731 302.982 15.6937 304.041 14.766C304.332 14.5109 304.438 14.3351 304.469 14.2426C304.486 14.1909 304.48 14.1822 304.466 14.1637L304.464 14.1606C304.428 14.1114 304.342 14.0437 304.193 13.9816C304.059 13.9255 303.904 13.8872 303.762 13.8665C303.659 13.8692 303.582 13.8932 303.446 13.9423L303.419 13.9521C303.371 13.9696 303.335 13.9876 303.3 14.0059C303.226 14.0437 303.15 14.0826 302.951 14.1204C302.636 14.1804 302.41 14.185 302.155 14.124C301.99 14.0845 301.808 14.0142 301.587 13.9294C301.511 13.8998 301.429 13.8684 301.342 13.8359L301.34 13.8357C301.335 13.835 301.315 13.8327 301.278 13.8341C301.224 13.8361 301.153 13.8447 301.066 13.86C300.894 13.8904 300.691 13.9409 300.477 13.9945L300.464 13.9977C300.252 14.0505 300.026 14.1067 299.837 14.1369C299.742 14.1519 299.644 14.1628 299.554 14.1606L299.525 14.1602C299.431 14.1593 299.201 14.1571 299.109 14.1063ZM300.242 13.1757C299.947 13.2429 299.406 13.3023 299.406 13.3023C299.09 13.2908 298.86 13.2277 298.667 13.1747C298.513 13.1326 298.383 13.0968 298.251 13.0987C297.953 13.1029 297.694 13.1923 297.508 13.3963C297.321 13.6018 297.262 13.8653 297.259 14.0916C297.257 14.3145 297.307 14.5303 297.37 14.7023L297.402 14.7912L299.578 16.9319C298.757 17.1125 297.88 17.4785 297.072 18.1145C295.533 19.3262 294.301 21.4723 294.126 25.024C294.115 25.2552 294.102 25.4899 294.09 25.7262C294.038 26.698 293.984 27.698 294.004 28.6023C294.029 29.71 294.162 30.7759 294.615 31.5044C295.429 32.813 296.76 33.4463 298.037 33.7444C299.31 34.0416 300.582 34.019 301.369 33.9721C302.089 33.9584 303.275 33.9154 304.49 33.6601C305.701 33.4057 307.004 32.9283 307.895 31.9992C308.611 31.2516 308.855 30.1504 308.929 28.9703C308.987 28.0415 308.943 26.9912 308.898 25.9219L308.898 25.9218L308.898 25.9216C308.886 25.6252 308.873 25.3272 308.863 25.03C308.746 21.692 307.518 19.598 305.98 18.3585C304.982 17.5541 303.871 17.124 302.887 16.9376C303.206 16.5912 303.724 16.0726 304.477 15.4121C304.806 15.1237 305.036 14.8353 305.137 14.5344C305.251 14.1954 305.189 13.8795 305.014 13.6398C304.86 13.4286 304.636 13.2982 304.439 13.216C304.234 13.1306 304.014 13.0793 303.824 13.0539L303.803 13.0511H303.782C303.552 13.0511 303.386 13.1088 303.23 13.1653L303.204 13.1747C303.062 13.2261 302.907 13.282 302.663 13.3284C302.449 13.3691 302.436 13.3656 302.355 13.3435L302.355 13.3435L302.355 13.3435C302.339 13.3391 302.32 13.334 302.297 13.3284C302.176 13.2994 302.051 13.2515 301.854 13.1757C301.847 13.1727 301.833 13.1658 301.815 13.1563C301.723 13.1093 301.511 13 301.269 13C300.911 13 300.568 13.0906 300.362 13.1452C300.314 13.1578 300.273 13.1685 300.242 13.1757ZM297.598 18.7826C296.294 19.8098 295.141 21.7024 294.975 25.0658C294.964 25.3062 294.951 25.5471 294.938 25.7873L294.938 25.7873L294.938 25.7874C294.886 26.7564 294.835 27.7147 294.854 28.5836C294.879 29.6845 295.017 30.5403 295.337 31.0555C295.986 32.0991 297.071 32.6458 298.23 32.9165C299.389 33.1869 300.569 33.1684 301.327 33.1229L301.336 33.1224L301.345 33.1222C302.051 33.1089 303.176 33.0673 304.316 32.828C305.465 32.5867 306.566 32.1565 307.281 31.411C307.778 30.8917 308.009 30.0543 308.08 28.9168C308.136 28.0371 308.094 27.048 308.05 25.9868L308.05 25.9866C308.037 25.6833 308.024 25.3741 308.013 25.0598C307.903 21.9361 306.769 20.0859 305.447 19.0204C304.443 18.2117 303.307 17.8352 302.37 17.7159C303.146 18.5301 304.026 19.349 304.507 19.6446L304.061 20.3687C303.86 20.1673 303.557 19.9036 303.208 19.5994L303.208 19.5994C302.705 19.1614 302.106 18.6395 301.574 18.0991C301.548 18.4454 301.525 18.8325 301.515 19.1999C301.507 19.5164 301.509 19.8104 301.526 20.048C301.534 20.1669 301.546 20.2653 301.56 20.3418C301.567 20.3798 301.574 20.4092 301.581 20.4311C301.587 20.4519 301.591 20.4611 301.591 20.462L301.652 20.7938L300.831 20.8422C300.732 20.6443 300.696 20.3607 300.678 20.1075C300.659 19.8317 300.657 19.5076 300.666 19.1781C300.672 18.9159 300.685 18.6454 300.702 18.3858C300.011 19.0527 299.284 19.6307 298.748 20.0572C298.673 20.1168 298.601 20.1734 298.535 20.227L298.089 19.5029C298.561 19.1737 299.435 18.4574 300.209 17.6831C299.385 17.7926 298.447 18.1141 297.598 18.7826Z" fill="white"/>
<path d="M291.263 43.1H292.397C292.78 43.1 293.067 43.2027 293.258 43.408C293.449 43.6133 293.545 43.9143 293.545 44.311V44.794C293.545 45.1907 293.449 45.4917 293.258 45.697C293.067 45.9023 292.78 46.005 292.397 46.005H292.033V48H291.263V43.1ZM292.397 45.305C292.523 45.305 292.616 45.27 292.677 45.2C292.742 45.13 292.775 45.011 292.775 44.843V44.262C292.775 44.094 292.742 43.975 292.677 43.905C292.616 43.835 292.523 43.8 292.397 43.8H292.033V45.305H292.397ZM295.076 48.07C294.698 48.07 294.409 47.9627 294.208 47.748C294.008 47.5333 293.907 47.23 293.907 46.838V44.262C293.907 43.87 294.008 43.5667 294.208 43.352C294.409 43.1373 294.698 43.03 295.076 43.03C295.454 43.03 295.744 43.1373 295.944 43.352C296.145 43.5667 296.245 43.87 296.245 44.262V46.838C296.245 47.23 296.145 47.5333 295.944 47.748C295.744 47.9627 295.454 48.07 295.076 48.07ZM295.076 47.37C295.342 47.37 295.475 47.209 295.475 46.887V44.213C295.475 43.891 295.342 43.73 295.076 43.73C294.81 43.73 294.677 43.891 294.677 44.213V46.887C294.677 47.209 294.81 47.37 295.076 47.37ZM297.886 48.07C297.513 48.07 297.228 47.965 297.032 47.755C296.836 47.5403 296.738 47.2347 296.738 46.838V43.1H297.508V46.894C297.508 47.062 297.541 47.1833 297.606 47.258C297.676 47.3327 297.774 47.37 297.9 47.37C298.026 47.37 298.122 47.3327 298.187 47.258C298.257 47.1833 298.292 47.062 298.292 46.894V43.1H299.034V46.838C299.034 47.2347 298.936 47.5403 298.74 47.755C298.544 47.965 298.259 48.07 297.886 48.07ZM299.582 43.1H300.744C301.141 43.1 301.43 43.1933 301.612 43.38C301.794 43.562 301.885 43.8443 301.885 44.227V44.423C301.885 44.675 301.843 44.8803 301.759 45.039C301.68 45.1977 301.556 45.312 301.388 45.382V45.396C301.771 45.5267 301.962 45.8673 301.962 46.418V46.838C301.962 47.216 301.862 47.5053 301.661 47.706C301.465 47.902 301.176 48 300.793 48H299.582V43.1ZM300.653 45.095C300.807 45.095 300.922 45.0553 300.996 44.976C301.076 44.8967 301.115 44.7637 301.115 44.577V44.304C301.115 44.1267 301.083 43.9983 301.017 43.919C300.957 43.8397 300.859 43.8 300.723 43.8H300.352V45.095H300.653ZM300.793 47.3C300.929 47.3 301.029 47.265 301.094 47.195C301.16 47.1203 301.192 46.9943 301.192 46.817V46.39C301.192 46.166 301.153 46.012 301.073 45.928C300.999 45.8393 300.873 45.795 300.695 45.795H300.352V47.3H300.793ZM302.412 43.1H304.512V43.8H303.182V45.095H304.239V45.795H303.182V47.3H304.512V48H302.412V43.1ZM304.955 43.1H305.725V47.3H306.992V48H304.955V43.1ZM307.362 43.1H308.132V47.3H309.399V48H307.362V43.1ZM309.768 43.1H311.868V43.8H310.538V45.095H311.595V45.795H310.538V47.3H311.868V48H309.768V43.1Z" fill="white"/>
</g>
<defs>
<clipPath id="clip0_66_933">
<rect width="332" height="61" fill="white"/>
</clipPath>
</defs>
</svg>
