<svg width="331" height="61" viewBox="0 0 331 61" fill="none" xmlns="http://www.w3.org/2000/svg">
<g clip-path="url(#clip0_66_733)">
<path d="M24.6979 60.4688C11.0781 60.4688 0 49.5208 0 36.0625V0H305.948C319.563 0 330.641 10.9479 330.641 24.4062V60.4688" fill="white"/>
<path d="M214.083 52.9114H69.1353C59.6874 52.9114 51.9999 45.3541 51.9999 36.0625V7.55725H196.948C206.396 7.55725 214.083 15.1145 214.083 24.4062V52.9114ZM197 6L50.1667 5.66663L50.1145 36.0625C50.1145 46.3958 58.6458 54.802 69.1353 54.802L215.969 55V24.4062C215.969 14.0729 207.49 6 197 6Z" fill="#010101"/>
<path d="M102.901 5.66663H50.1145V36.0625C50.1145 46.3958 58.6458 54.802 69.1353 54.802H121.927V24.4062C121.927 14.0729 113.391 5.66663 102.901 5.66663Z" fill="#010101"/>
<path d="M63.651 29.3594C58.8489 29.3594 54.9583 33.25 54.9583 38.0521C54.9583 42.8542 58.8489 46.7448 63.651 46.7448C68.4583 46.7448 72.3489 42.8542 72.3489 38.0521C72.3489 33.25 68.4583 29.3594 63.651 29.3594Z" fill="white"/>
<path d="M69.3229 39.4688H65.0729V43.7188H62.2344V39.4688H57.9844V36.6355H62.2344V32.3802H65.0729V36.6355H69.3229" fill="#1C1C1B"/>
<path d="M55.7864 26.5937V17.1979H58.2708V24.5156H61.828V26.5937" fill="white"/>
<path d="M62.9426 26.5937V17.1979H69.0155V19.276H65.4322V20.7552H68.4947V22.8385H65.4322V24.5156H69.1614V26.5937" fill="white"/>
<path d="M75.0885 26.5937V19.276H72.6041V17.1979H80.0677V19.276H77.5781V26.5937" fill="white"/>
<path d="M83.5521 21.4739H84.4479C85.4479 21.4739 85.9531 21.0625 85.9531 20.2343C85.9531 19.8281 85.8229 19.5468 85.5677 19.3958C85.3125 19.2395 84.9375 19.1614 84.4479 19.1614H83.5521V21.4739ZM81.0625 26.5989V17.1979H84.6198C85.125 17.1979 85.6042 17.2448 86.0625 17.3385C86.5208 17.4375 86.9167 17.5989 87.2604 17.8333C87.6042 18.0625 87.875 18.375 88.0781 18.7656C88.2813 19.1562 88.3802 19.6458 88.3802 20.2343C88.3802 20.9062 88.2448 21.4687 87.9688 21.9114C87.6979 22.3541 87.3281 22.6979 86.8646 22.9531L88.901 26.5989H86.125L84.5052 23.4427H83.5521V26.5989" fill="white"/>
<path d="M89.8698 26.5989H92.3593V17.1979H89.8698V26.5989Z" fill="white"/>
<path d="M75.3801 43.276V33.8698H81.5103V35.9531H77.8697V37.75H80.9895V39.8333H77.8697V43.276" fill="white"/>
<path d="M84.9218 38.7031L84.7604 39.3541H86.4948L86.3385 38.7031C86.2239 38.25 86.1041 37.7604 85.9895 37.2291C85.875 36.6979 85.7604 36.1979 85.6406 35.7239H85.5833C85.4791 36.2031 85.3698 36.7083 85.2604 37.2343C85.151 37.7604 85.0364 38.25 84.9218 38.7031ZM81.3073 43.276L84.1666 33.8698H87.1718L90.0364 43.276H87.4062L86.9427 41.276H84.3125L83.8489 43.276" fill="white"/>
<path d="M94.5624 43.4479C93.9687 43.4479 93.3958 43.3489 92.8541 43.151C92.3072 42.9531 91.8333 42.651 91.4218 42.2552C91.0103 41.8541 90.6822 41.3541 90.4426 40.75C90.203 40.1458 90.0833 39.4479 90.0833 38.6458C90.0833 37.8541 90.2083 37.151 90.4583 36.5416C90.7083 35.927 91.0416 35.4114 91.4635 34.9948C91.8801 34.5729 92.3645 34.25 92.9114 34.0312C93.4583 33.8073 94.026 33.6979 94.6249 33.6979C95.2499 33.6979 95.8124 33.8229 96.302 34.0677C96.7968 34.3125 97.2083 34.6041 97.5468 34.9427L96.2447 36.5312C96.0155 36.3333 95.776 36.1666 95.5312 36.0312C95.2812 35.9062 94.9999 35.8385 94.6822 35.8385C94.401 35.8385 94.1405 35.901 93.8958 36.026C93.651 36.151 93.4322 36.3333 93.2447 36.5625C93.0572 36.7916 92.9062 37.0781 92.7968 37.4166C92.6822 37.75 92.6301 38.1354 92.6301 38.5573C92.6301 39.4479 92.8124 40.125 93.1874 40.5989C93.5572 41.0677 94.0468 41.3073 94.651 41.3073C95.0208 41.3073 95.3437 41.2291 95.6301 41.0677C95.9114 40.9062 96.1562 40.7187 96.3593 40.4948L97.6614 42.0573C97.2551 42.5208 96.7916 42.8698 96.2655 43.0989C95.7395 43.3333 95.1718 43.4479 94.5624 43.4479Z" fill="white"/>
<path d="M98.6198 43.276H101.104V33.8698H98.6198V43.276Z" fill="white"/>
<path d="M102.875 43.276V33.8698H105.365V41.1927H108.922V43.276" fill="white"/>
<path d="M110.031 43.276V33.8698H116.109V35.9531H112.521V37.4323H115.589V39.5156H112.521V41.1927H116.255V43.276" fill="white"/>
<path fill-rule="evenodd" clip-rule="evenodd" d="M16.2604 29.1927C16.2604 29.1927 15.9115 29.151 15.6771 29.7968L13.5573 35.7083C15.224 37.1198 17.1823 38.1823 19.3281 38.8073L16.7552 29.7708C16.5781 29.125 16.2604 29.1927 16.2604 29.1927ZM5.67188 23.6979C5.67188 13.7552 13.7604 5.66663 23.7031 5.66663C28.9635 5.66663 33.7083 7.93225 37.0052 11.5364L35.3906 13.177C32.5104 9.97913 28.3385 7.9635 23.7031 7.9635C15.026 7.9635 7.96875 15.0208 7.96875 23.6979C7.96875 27.5208 9.34375 31.0312 11.6198 33.7604L14.2656 20.7968C14.7396 18.5104 16.8854 16.7552 19.0521 17.1562C20.6406 17.4583 28.0938 22.3958 28.0938 22.3958C28.7292 22.802 28.375 23.3489 28.375 23.3489C28.375 23.3489 28.0729 23.875 27.4479 23.6041L21.9792 21.4062C21.0052 20.9948 19.4323 21.4323 19.6667 24.1875L21.3802 38.7864L21.4531 39.2656C22.1875 39.375 22.9375 39.4323 23.7031 39.4323C24.1875 39.4323 24.6719 39.401 25.1458 39.3541L25.0052 37.4531L28.6979 40.2708L25.3958 43.4635L25.276 41.651C24.7552 41.6979 24.2344 41.7291 23.7031 41.7291C13.7604 41.7291 5.67188 33.6406 5.67188 23.6979ZM19.9375 16.4115C18.4167 16.4115 17.1875 15.1823 17.1875 13.6562C17.1875 12.1354 18.4167 10.9062 19.9375 10.9062C21.4583 10.9062 22.6927 12.1354 22.6927 13.6562C22.6927 15.1823 21.4583 16.4115 19.9375 16.4115ZM37.1046 24.564C37.7365 24.0543 39.7005 22.4703 40.1613 19.1927L40.2342 18.1823L42.0519 18.2864L38.0259 12.8541L33.2134 17.6927L34.979 17.7656L34.9998 17.7708C35.0415 17.9687 35.2446 19.2656 34.5571 21.3177C33.7967 23.6041 31.4373 26.2916 28.4634 25.8177C32.6457 27.5677 36.0311 25.4375 37.0936 24.5729L37.1046 24.564ZM28.375 25.8489C29.5781 28.6093 33.1146 29.1406 35.4479 28.552C37.5208 28.026 38.5052 27.1718 38.6719 27.0156L38.6615 27L37.776 25.4635L44.4427 26.9218L42.0312 33.2395L41.1354 31.6458L40.2656 32.1198C37.2654 33.4985 34.8744 32.7065 34.0978 32.4492L34.0781 32.4427C32.7812 32.0156 29.1562 30.3125 28.375 25.8489ZM28.4062 25.7448C26.7135 28.2343 28.151 31.5104 29.8958 33.1718C31.4895 34.6823 32.7655 35.0364 32.9322 35.0781L33.7447 33.5208L36.0885 39.9323L29.4635 41.2812L30.3437 39.6458L29.4478 39.1458C26.6887 37.3493 26.0817 34.9168 25.8818 34.1162L25.8749 34.0885C25.5416 32.7604 25.0468 28.7864 28.4062 25.7448Z" fill="#010101"/>
<path d="M131.328 33.728H132C132.416 33.728 132.752 33.636 133.008 33.452C133.264 33.268 133.392 32.928 133.392 32.432C133.392 32.184 133.356 31.98 133.284 31.82C133.22 31.652 133.128 31.52 133.008 31.424C132.896 31.32 132.76 31.248 132.6 31.208C132.44 31.168 132.264 31.148 132.072 31.148H131.328V33.728ZM131.328 29.948H131.82C132.3 29.948 132.648 29.864 132.864 29.696C133.088 29.52 133.2 29.228 133.2 28.82C133.2 28.412 133.1 28.124 132.9 27.956C132.7 27.788 132.384 27.704 131.952 27.704H131.328V29.948ZM129.6 26.432H132.492C132.844 26.432 133.168 26.468 133.464 26.54C133.768 26.612 134.028 26.732 134.244 26.9C134.46 27.068 134.628 27.292 134.748 27.572C134.868 27.852 134.928 28.196 134.928 28.604C134.928 29.068 134.82 29.468 134.604 29.804C134.388 30.132 134.064 30.356 133.632 30.476V30.5C134.112 30.564 134.492 30.768 134.772 31.112C135.052 31.456 135.192 31.916 135.192 32.492C135.192 32.828 135.148 33.148 135.06 33.452C134.972 33.756 134.82 34.024 134.604 34.256C134.396 34.48 134.12 34.66 133.776 34.796C133.44 34.932 133.02 35 132.516 35H129.6V26.432ZM139.844 31.772L139.016 27.92H138.992L138.164 31.772H139.844ZM140.072 26.432L142.34 35H140.54L140.144 33.188H137.864L137.468 35H135.668L137.936 26.432H140.072ZM142.936 35V26.432H144.664V33.584H147.724V35H142.936ZM152.067 31.772L151.239 27.92H151.215L150.387 31.772H152.067ZM152.295 26.432L154.563 35H152.763L152.367 33.188H150.087L149.691 35H147.891L150.159 26.432H152.295ZM155.243 35V26.432H156.971V35H155.243Z" fill="black"/>
<path d="M161 6H187V55H180H161L174.5 28.5L161 6Z" fill="#010101"/>
<path d="M187 6H307C316.941 6 325 14.0589 325 24V55H187V6Z" fill="black"/>
<rect x="187" y="8" width="31" height="31" fill="black"/>
<path d="M189.881 43.1H190.924L191.722 48H190.952L190.812 47.027V47.041H189.937L189.797 48H189.083L189.881 43.1ZM190.721 46.376L190.378 43.954H190.364L190.028 46.376H190.721ZM193.076 48.07C192.703 48.07 192.42 47.965 192.229 47.755C192.038 47.5403 191.942 47.2347 191.942 46.838V46.558H192.67V46.894C192.67 47.2113 192.803 47.37 193.069 47.37C193.2 47.37 193.298 47.3327 193.363 47.258C193.433 47.1787 193.468 47.0527 193.468 46.88C193.468 46.6747 193.421 46.495 193.328 46.341C193.235 46.1823 193.062 45.9933 192.81 45.774C192.493 45.494 192.271 45.242 192.145 45.018C192.019 44.7893 191.956 44.5327 191.956 44.248C191.956 43.8607 192.054 43.562 192.25 43.352C192.446 43.1373 192.731 43.03 193.104 43.03C193.473 43.03 193.75 43.1373 193.937 43.352C194.128 43.562 194.224 43.8653 194.224 44.262V44.465H193.496V44.213C193.496 44.045 193.463 43.9237 193.398 43.849C193.333 43.7697 193.237 43.73 193.111 43.73C192.854 43.73 192.726 43.8863 192.726 44.199C192.726 44.3763 192.773 44.542 192.866 44.696C192.964 44.85 193.139 45.0367 193.391 45.256C193.713 45.536 193.935 45.7903 194.056 46.019C194.177 46.2477 194.238 46.516 194.238 46.824C194.238 47.2253 194.138 47.5333 193.937 47.748C193.741 47.9627 193.454 48.07 193.076 48.07ZM195.681 48.07C195.307 48.07 195.025 47.965 194.834 47.755C194.642 47.5403 194.547 47.2347 194.547 46.838V46.558H195.275V46.894C195.275 47.2113 195.408 47.37 195.674 47.37C195.804 47.37 195.902 47.3327 195.968 47.258C196.038 47.1787 196.073 47.0527 196.073 46.88C196.073 46.6747 196.026 46.495 195.933 46.341C195.839 46.1823 195.667 45.9933 195.415 45.774C195.097 45.494 194.876 45.242 194.75 45.018C194.624 44.7893 194.561 44.5327 194.561 44.248C194.561 43.8607 194.659 43.562 194.855 43.352C195.051 43.1373 195.335 43.03 195.709 43.03C196.077 43.03 196.355 43.1373 196.542 43.352C196.733 43.562 196.829 43.8653 196.829 44.262V44.465H196.101V44.213C196.101 44.045 196.068 43.9237 196.003 43.849C195.937 43.7697 195.842 43.73 195.716 43.73C195.459 43.73 195.331 43.8863 195.331 44.199C195.331 44.3763 195.377 44.542 195.471 44.696C195.569 44.85 195.744 45.0367 195.996 45.256C196.318 45.536 196.539 45.7903 196.661 46.019C196.782 46.2477 196.843 46.516 196.843 46.824C196.843 47.2253 196.742 47.5333 196.542 47.748C196.346 47.9627 196.059 48.07 195.681 48.07ZM198.397 48.07C198.019 48.07 197.73 47.9627 197.529 47.748C197.328 47.5333 197.228 47.23 197.228 46.838V44.262C197.228 43.87 197.328 43.5667 197.529 43.352C197.73 43.1373 198.019 43.03 198.397 43.03C198.775 43.03 199.064 43.1373 199.265 43.352C199.466 43.5667 199.566 43.87 199.566 44.262V46.838C199.566 47.23 199.466 47.5333 199.265 47.748C199.064 47.9627 198.775 48.07 198.397 48.07ZM198.397 47.37C198.663 47.37 198.796 47.209 198.796 46.887V44.213C198.796 43.891 198.663 43.73 198.397 43.73C198.131 43.73 197.998 43.891 197.998 44.213V46.887C197.998 47.209 198.131 47.37 198.397 47.37ZM201.172 48.07C200.803 48.07 200.521 47.965 200.325 47.755C200.133 47.545 200.038 47.2487 200.038 46.866V44.234C200.038 43.8513 200.133 43.555 200.325 43.345C200.521 43.135 200.803 43.03 201.172 43.03C201.54 43.03 201.82 43.135 202.012 43.345C202.208 43.555 202.306 43.8513 202.306 44.234V44.752H201.578V44.185C201.578 43.8817 201.449 43.73 201.193 43.73C200.936 43.73 200.808 43.8817 200.808 44.185V46.922C200.808 47.2207 200.936 47.37 201.193 47.37C201.449 47.37 201.578 47.2207 201.578 46.922V46.173H202.306V46.866C202.306 47.2487 202.208 47.545 202.012 47.755C201.82 47.965 201.54 48.07 201.172 48.07ZM202.766 43.1H203.536V48H202.766V43.1ZM204.708 43.1H205.751L206.549 48H205.779L205.639 47.027V47.041H204.764L204.624 48H203.91L204.708 43.1ZM205.548 46.376L205.205 43.954H205.191L204.855 46.376H205.548ZM207.203 43.8H206.398V43.1H208.778V43.8H207.973V48H207.203V43.8ZM209.151 43.1H209.921V48H209.151V43.1ZM211.611 48.07C211.233 48.07 210.944 47.9627 210.743 47.748C210.542 47.5333 210.442 47.23 210.442 46.838V44.262C210.442 43.87 210.542 43.5667 210.743 43.352C210.944 43.1373 211.233 43.03 211.611 43.03C211.989 43.03 212.278 43.1373 212.479 43.352C212.68 43.5667 212.78 43.87 212.78 44.262V46.838C212.78 47.23 212.68 47.5333 212.479 47.748C212.278 47.9627 211.989 48.07 211.611 48.07ZM211.611 47.37C211.877 47.37 212.01 47.209 212.01 46.887V44.213C212.01 43.891 211.877 43.73 211.611 43.73C211.345 43.73 211.212 43.891 211.212 44.213V46.887C211.212 47.209 211.345 47.37 211.611 47.37ZM213.301 43.1H214.267L215.016 46.033H215.03V43.1H215.716V48H214.925L214.001 44.423H213.987V48H213.301V43.1Z" fill="white"/>
<path d="M209.01 31.2217H202.203C202.051 31.2217 201.908 31.1627 201.79 31.0614L196.83 26.7763C196.72 26.6835 196.577 26.6329 196.433 26.6329H194.223V23.6636H199.276C199.951 23.6636 200.609 23.9336 201.081 24.4059L204.691 28.0247C204.852 28.185 204.936 28.3959 204.928 28.6236C204.928 28.6827 204.919 28.7333 204.911 28.7839C204.911 28.8008 204.902 28.8176 204.902 28.8261C204.86 28.9779 204.776 29.1129 204.649 29.2141C204.337 29.4925 203.823 29.4587 203.502 29.1382L200.811 26.4473C200.575 26.2111 200.187 26.2111 199.951 26.4473C199.706 26.6919 199.706 27.0799 199.951 27.3161L202.642 30.007C203.418 30.7915 204.658 30.8421 205.459 30.1336C205.645 29.9733 205.796 29.7877 205.906 29.5768L209.061 29.5853C209.289 29.5853 209.5 29.678 209.651 29.8468C209.812 30.0155 209.888 30.2263 209.871 30.4541C209.845 30.8759 209.457 31.2217 209.01 31.2217ZM209.061 28.3621L206.142 28.3537C206.083 27.9066 205.881 27.4764 205.56 27.1559L201.95 23.5371C201.241 22.837 200.271 22.4321 199.276 22.4321H193.616C193.278 22.4321 193 22.7104 193 23.0478V27.2402C193 27.5861 193.278 27.856 193.616 27.856H196.205L200.988 31.9893C201.326 32.2846 201.764 32.4449 202.203 32.4449H209.01C210.107 32.4449 211.026 31.6097 211.094 30.5385C211.128 29.9648 210.942 29.425 210.546 29.0032C210.166 28.5983 209.618 28.3621 209.061 28.3621Z" fill="white"/>
<path d="M202.878 17.7926C203.207 16.8647 203.856 16.2911 204.666 16.232C204.717 16.232 204.767 16.232 204.818 16.232C205.586 16.232 206.328 16.6875 206.716 17.4383C206.826 17.6323 207.037 17.7588 207.264 17.7588C207.492 17.7588 207.694 17.6323 207.804 17.4383C208.226 16.6454 209.036 16.173 209.854 16.232C210.664 16.2911 211.313 16.8647 211.642 17.7926C212.435 20.028 209.289 22.7273 207.264 24.001C205.24 22.7273 202.085 20.028 202.878 17.7926ZM206.952 25.2495C207.045 25.3085 207.155 25.3338 207.264 25.3338C207.374 25.3338 207.484 25.3085 207.576 25.2495C208.251 24.8446 214.156 21.2005 212.798 17.3792C212.309 15.9958 211.237 15.1101 209.947 15.0089C208.943 14.9414 207.956 15.3463 207.264 16.0971C206.573 15.3463 205.586 14.933 204.582 15.0089C203.283 15.1101 202.211 15.9958 201.722 17.3792C200.373 21.2005 206.269 24.8446 206.952 25.2495Z" fill="white"/>
<path d="M225.59 31.07C225.212 31.07 224.923 30.9627 224.722 30.748C224.522 30.5333 224.421 30.23 224.421 29.838V27.262C224.421 26.87 224.522 26.5667 224.722 26.352C224.923 26.1373 225.212 26.03 225.59 26.03C225.968 26.03 226.258 26.1373 226.458 26.352C226.659 26.5667 226.759 26.87 226.759 27.262V29.838C226.759 30.23 226.659 30.5333 226.458 30.748C226.258 30.9627 225.968 31.07 225.59 31.07ZM225.59 30.37C225.856 30.37 225.989 30.209 225.989 29.887V27.213C225.989 26.891 225.856 26.73 225.59 26.73C225.324 26.73 225.191 26.891 225.191 27.213V29.887C225.191 30.209 225.324 30.37 225.59 30.37ZM228.4 31.07C228.027 31.07 227.742 30.965 227.546 30.755C227.35 30.5403 227.252 30.2347 227.252 29.838V26.1H228.022V29.894C228.022 30.062 228.055 30.1833 228.12 30.258C228.19 30.3327 228.288 30.37 228.414 30.37C228.54 30.37 228.636 30.3327 228.701 30.258C228.771 30.1833 228.806 30.062 228.806 29.894V26.1H229.548V29.838C229.548 30.2347 229.45 30.5403 229.254 30.755C229.058 30.965 228.773 31.07 228.4 31.07Z" fill="white"/>
<rect x="236" y="8" width="31" height="31" fill="black"/>
<path d="M239.11 43.1H240.286C240.668 43.1 240.955 43.2027 241.147 43.408C241.338 43.6133 241.434 43.9143 241.434 44.311V46.789C241.434 47.1857 241.338 47.4867 241.147 47.692C240.955 47.8973 240.668 48 240.286 48H239.11V43.1ZM240.272 47.3C240.398 47.3 240.493 47.2627 240.559 47.188C240.629 47.1133 240.664 46.992 240.664 46.824V44.276C240.664 44.108 240.629 43.9867 240.559 43.912C240.493 43.8373 240.398 43.8 240.272 43.8H239.88V47.3H240.272ZM241.954 43.1H244.054V43.8H242.724V45.095H243.781V45.795H242.724V47.3H244.054V48H241.954V43.1ZM243.074 41.966H243.914L243.165 42.771H242.584L243.074 41.966ZM245.581 48.07C245.213 48.07 244.93 47.965 244.734 47.755C244.543 47.545 244.447 47.2487 244.447 46.866V44.234C244.447 43.8513 244.543 43.555 244.734 43.345C244.93 43.135 245.213 43.03 245.581 43.03C245.95 43.03 246.23 43.135 246.421 43.345C246.617 43.555 246.715 43.8513 246.715 44.234V44.752H245.987V44.185C245.987 43.8817 245.859 43.73 245.602 43.73C245.346 43.73 245.217 43.8817 245.217 44.185V46.922C245.217 47.2207 245.346 47.37 245.602 47.37C245.859 47.37 245.987 47.2207 245.987 46.922V46.173H246.715V46.866C246.715 47.2487 246.617 47.545 246.421 47.755C246.23 47.965 245.95 48.07 245.581 48.07ZM247.176 43.1H247.946V45.095H248.772V43.1H249.542V48H248.772V45.795H247.946V48H247.176V43.1ZM250.116 43.1H252.216V43.8H250.886V45.095H251.943V45.795H250.886V47.3H252.216V48H250.116V43.1ZM250.256 41.966H251.096L251.586 42.771H251.005L250.256 41.966ZM253.261 43.8H252.456V43.1H254.836V43.8H254.031V48H253.261V43.8ZM255.208 43.1H257.308V43.8H255.978V45.095H257.035V45.795H255.978V47.3H257.308V48H255.208V43.1ZM257.751 43.1H258.892C259.289 43.1 259.578 43.1933 259.76 43.38C259.942 43.562 260.033 43.8443 260.033 44.227V44.528C260.033 45.0367 259.865 45.3587 259.529 45.494V45.508C259.716 45.564 259.847 45.6783 259.921 45.851C260.001 46.0237 260.04 46.2547 260.04 46.544V47.405C260.04 47.545 260.045 47.6593 260.054 47.748C260.064 47.832 260.087 47.916 260.124 48H259.34C259.312 47.9207 259.294 47.846 259.284 47.776C259.275 47.706 259.27 47.58 259.27 47.398V46.502C259.27 46.278 259.233 46.1217 259.158 46.033C259.088 45.9443 258.965 45.9 258.787 45.9H258.521V48H257.751V43.1ZM258.801 45.2C258.955 45.2 259.07 45.1603 259.144 45.081C259.224 45.0017 259.263 44.8687 259.263 44.682V44.304C259.263 44.1267 259.231 43.9983 259.165 43.919C259.105 43.8397 259.007 43.8 258.871 43.8H258.521V45.2H258.801ZM260.575 43.1H261.345V48H260.575V43.1ZM261.921 43.1H264.021V43.8H262.691V45.095H263.748V45.795H262.691V47.3H264.021V48H261.921V43.1Z" fill="white"/>
<path d="M245.988 32.4391L241.474 32.4342C241.217 32.4342 241.005 32.2268 241.005 31.97L241 27.4806C241 27.293 241.114 27.1201 241.291 27.051C241.464 26.9769 241.667 27.0164 241.8 27.1497L242.684 28.0288L250.29 20.4577C250.473 20.2799 250.769 20.2799 250.952 20.4577L253.046 22.5419C253.135 22.6308 253.184 22.7444 253.184 22.8728C253.184 22.9962 253.135 23.1148 253.046 23.2037L245.44 30.7649L246.319 31.644C246.452 31.7773 246.492 31.9798 246.418 32.1527C246.349 32.3255 246.176 32.4391 245.988 32.4391ZM241.943 31.5008L244.852 31.5057L244.442 31.0958C244.26 30.9131 244.26 30.6167 244.442 30.434L252.048 22.8728L250.621 21.4504L243.015 29.0166C242.832 29.1993 242.536 29.1993 242.353 29.0166L241.938 28.6116" fill="white"/>
<path d="M255.54 25.673C255.179 25.673 254.833 25.5347 254.567 25.2878C254.29 25.031 254.132 24.6803 254.117 24.3L254.048 22.1517L254.987 22.122L255.056 24.2704C255.061 24.3988 255.115 24.5173 255.209 24.6062C255.303 24.6951 255.436 24.7297 255.559 24.7396C255.688 24.7347 255.806 24.6803 255.895 24.5865C255.984 24.4927 256.029 24.3692 256.024 24.2408L255.92 21.3763L256.858 21.3467L256.962 24.2062C256.977 24.5865 256.844 24.947 256.582 25.2236C256.32 25.5002 255.969 25.6582 255.589 25.6681C255.569 25.673 255.555 25.673 255.54 25.673Z" fill="white"/>
<path d="M255.54 25.673C255.179 25.673 254.833 25.5347 254.567 25.2878C254.29 25.031 254.132 24.6803 254.117 24.3L254.048 22.1517L254.987 22.122L255.056 24.2704C255.061 24.3988 255.115 24.5173 255.209 24.6062C255.303 24.6951 255.436 24.7297 255.559 24.7396C255.688 24.7347 255.806 24.6803 255.895 24.5865C255.984 24.4927 256.029 24.3692 256.024 24.2408L255.92 21.3763L256.858 21.3467L256.962 24.2062C256.977 24.5865 256.844 24.947 256.582 25.2236C256.32 25.5002 255.969 25.6582 255.589 25.6681C255.569 25.673 255.555 25.673 255.54 25.673Z" fill="white"/>
<path d="M253.643 25.9941C253.278 25.9941 252.937 25.8607 252.67 25.6138C252.394 25.352 252.231 25.0014 252.221 24.6211L252.152 22.4727L253.09 22.4431L253.159 24.5915C253.164 24.7248 253.219 24.8433 253.312 24.9322C253.406 25.0211 253.53 25.0755 253.658 25.0606C253.925 25.0508 254.137 24.8285 254.127 24.5618L254.024 21.7023L254.962 21.6677L255.066 24.5273C255.095 25.3125 254.478 25.9644 253.693 25.9941C253.673 25.9941 253.658 25.9941 253.643 25.9941Z" fill="white"/>
<path d="M255.258 32.449C255.066 32.449 254.893 32.3305 254.824 32.1576C254.75 31.9848 254.789 31.7823 254.922 31.6489L255.806 30.7698L248.201 23.2037C248.018 23.0259 248.018 22.7295 248.201 22.5468L250.29 20.4627C250.463 20.2898 250.779 20.2898 250.952 20.4627L258.893 28.3597L258.226 29.0215L250.621 21.4553L249.193 22.8777L256.799 30.4389C256.987 30.6217 256.987 30.9229 256.799 31.1007L256.389 31.5107H259.298L259.303 27.4856H260.241L260.236 31.9749C260.236 32.2317 260.029 32.4391 259.767 32.4391L255.258 32.449Z" fill="white"/>
<path d="M250.601 36C250.478 36 250.359 35.9556 250.265 35.8617L247.075 32.696C246.941 32.5626 246.902 32.3601 246.971 32.1873C247.045 32.0095 247.218 31.8959 247.406 31.8959H248.655V23.2037C248.655 22.9469 248.863 22.7345 249.124 22.7345H252.083C252.339 22.7345 252.552 22.9469 252.552 23.2037V32.3651H251.613V23.6729H249.593V32.3651C249.593 32.6219 249.381 32.8293 249.124 32.8293H248.542L250.601 34.874L253.461 32.0342L254.127 32.696L250.932 35.8617C250.838 35.9556 250.72 36 250.601 36Z" fill="white"/>
<path d="M245.983 32.4391L241.474 32.4342C241.217 32.4342 241.005 32.2268 241.005 31.97L241 27.4806C241 27.293 241.114 27.1201 241.291 27.051C241.464 26.9769 241.667 27.0164 241.8 27.1497L242.684 28.0288L250.29 20.4577C250.473 20.2799 250.769 20.2799 250.952 20.4577L253.046 22.5419C253.135 22.6308 253.184 22.7444 253.184 22.8728C253.184 22.9962 253.135 23.1148 253.046 23.2037L245.104 31.0958L244.442 30.434L252.048 22.8728L250.621 21.4504L243.015 29.0166C242.832 29.1993 242.536 29.1993 242.353 29.0166L241.938 28.6116L241.943 31.5008L245.988 31.5057" fill="white"/>
<path d="M261.407 19.0452C261.066 19.0452 260.745 18.9119 260.503 18.6748L256.098 14.2892C255.856 14.0522 255.722 13.7311 255.722 13.3953C255.722 13.0545 255.856 12.7384 256.093 12.4964L257.239 11.3556C257.723 10.8815 258.562 10.8815 259.046 11.3556L263.452 15.7412C263.95 16.2351 263.95 17.0401 263.452 17.534L262.306 18.6748C262.064 18.9119 261.748 19.0452 261.407 19.0452ZM258.142 11.9186C258.054 11.9186 257.97 11.9581 257.905 12.0174V12.0223L256.76 13.1582C256.695 13.2224 256.661 13.3064 256.661 13.3953C256.661 13.4842 256.695 13.5682 256.76 13.6274L261.165 18.013C261.293 18.1414 261.516 18.1365 261.644 18.013L262.79 16.8771C262.918 16.7438 262.918 16.5314 262.785 16.403L258.38 12.0223C258.315 11.9581 258.231 11.9186 258.142 11.9186Z" fill="white"/>
<path d="M256.742 26.6615L253.2 23.5131L252.413 24.3002L252.019 25.8744L254.381 29.0228L256.742 26.6615Z" fill="black"/>
<path d="M255.258 32.449C255.066 32.449 254.893 32.3305 254.824 32.1576C254.75 31.9848 254.789 31.7823 254.922 31.6489L255.806 30.7698L248.201 23.2037C248.018 23.0259 248.018 22.7295 248.201 22.5468L250.29 20.4627C250.463 20.2898 250.779 20.2898 250.952 20.4627L258.562 28.0338L259.441 27.1547C259.575 27.0213 259.777 26.9818 259.955 27.0559C260.128 27.125 260.241 27.2979 260.241 27.4856L260.236 31.9749C260.236 32.2317 260.029 32.4391 259.767 32.4391L255.258 32.449ZM249.193 22.8777L256.799 30.4389C256.987 30.6217 256.987 30.9229 256.799 31.1007L256.389 31.5107H259.298L259.303 28.6165L258.893 29.0215C258.71 29.2043 258.414 29.2043 258.226 29.0215L250.621 21.4553" fill="white"/>
<path d="M247.69 32.5647H249.264V23.5131H252.019L252.413 32.5647H253.2L250.445 35.7131L247.69 32.5647Z" fill="black"/>
<path d="M250.601 36C250.478 36 250.359 35.9556 250.27 35.8617L247.075 32.696C246.941 32.5626 246.902 32.3601 246.971 32.1873C247.045 32.0095 247.218 31.8959 247.406 31.8959H248.655V23.2037C248.655 22.9469 248.863 22.7345 249.124 22.7345H252.083C252.339 22.7345 252.552 22.9469 252.552 23.2037V31.8959H253.791C253.984 31.8959 254.157 32.0095 254.226 32.1873C254.3 32.3601 254.261 32.5626 254.127 32.696L250.932 35.8617C250.838 35.9556 250.72 36 250.601 36ZM248.542 32.8293L250.601 34.874L252.66 32.8293H252.083C251.821 32.8293 251.613 32.6219 251.613 32.3651V23.6729H249.593V32.3651C249.593 32.6219 249.381 32.8293 249.124 32.8293" fill="white"/>
<path d="M252.413 20.8232L250.29 23.658C249.929 24.1371 250.028 24.8186 250.512 25.1742C250.991 25.5347 251.678 25.436 252.038 24.9569L253.362 23.1888C253.89 22.4974 254.483 22.2406 254.769 22.1665C255.406 21.9986 257.323 21.2825 258.35 20.6651C259.372 20.0428 259.901 18.6007 259.846 17.3611L256.789 14.3188L250.3 16.3338C249.509 16.6005 249.223 17.0499 249.104 17.3166C248.986 17.5883 247.692 20.6305 247.692 20.6305C247.544 21.0108 247.46 21.4652 247.677 21.8504C247.894 22.2356 248.388 23.0061 248.388 23.0061L249.816 21.5837C249.816 21.5837 249.761 20.7985 249.944 20.3935C250.132 19.9934 250.329 19.3267 250.754 19.1736C251.174 19.0254 251.91 18.7884 251.91 18.7884C251.91 18.7884 251.845 19.628 251.994 20.0774C252.147 20.5268 252.379 20.7935 252.379 20.7935" fill="black"/>
<path d="M251.164 25.8607C250.828 25.8607 250.502 25.752 250.231 25.5496C249.895 25.3026 249.677 24.9371 249.618 24.5272C249.564 24.1173 249.668 23.7074 249.919 23.3765L251.831 20.8232C251.737 20.6701 251.633 20.4725 251.549 20.2256C251.475 19.9935 251.441 19.7021 251.431 19.4403C251.248 19.4996 251.06 19.5638 250.912 19.6132C250.759 19.6675 250.576 20.107 250.477 20.3392L250.374 20.591C250.28 20.7886 250.265 21.2726 250.285 21.5541C250.295 21.6874 250.245 21.8208 250.152 21.9146L248.719 23.337C248.621 23.4358 248.477 23.4852 248.339 23.4703C248.196 23.4555 248.072 23.3765 247.993 23.258C247.993 23.258 247.49 22.4727 247.267 22.0825C247.015 21.6331 247.01 21.0849 247.257 20.4577C247.262 20.4478 248.556 17.4006 248.675 17.1339C248.927 16.561 249.435 16.1313 250.147 15.8893L256.646 13.8743C256.814 13.82 256.997 13.8644 257.12 13.9879L260.182 17.0351C260.266 17.1191 260.311 17.2277 260.315 17.3463C260.37 18.6057 259.851 20.3046 258.592 21.0602C257.525 21.7072 255.589 22.4332 254.888 22.6209C254.784 22.6456 254.241 22.8135 253.737 23.4703L252.413 25.2384C252.162 25.5693 251.801 25.7866 251.386 25.8459C251.312 25.8558 251.238 25.8607 251.164 25.8607ZM251.915 18.3241C252.018 18.3241 252.122 18.3587 252.201 18.4229C252.325 18.5217 252.394 18.6699 252.379 18.8279C252.359 19.1144 252.354 19.6675 252.443 19.9292C252.557 20.2799 252.735 20.4923 252.739 20.4923C252.922 20.6503 252.937 20.9071 252.789 21.1047L250.67 23.9346C250.566 24.0679 250.527 24.2309 250.552 24.3939C250.571 24.5569 250.66 24.705 250.794 24.7989C250.927 24.9026 251.09 24.9371 251.253 24.9223C251.416 24.8976 251.564 24.8087 251.663 24.6803L252.986 22.9073C253.663 22.0282 254.428 21.7714 254.651 21.7171C255.214 21.5689 257.11 20.8676 258.103 20.2651C258.947 19.7564 259.372 18.5563 259.382 17.5586L256.656 14.8522L250.438 16.7783C249.989 16.9314 249.677 17.1784 249.534 17.5043C249.416 17.7759 248.127 20.8133 248.127 20.8133C247.993 21.1541 247.978 21.4306 248.087 21.6183C248.181 21.7912 248.334 22.0381 248.472 22.2603L249.342 21.401C249.337 21.0948 249.351 20.5663 249.519 20.2009L249.613 19.9836C249.796 19.5391 250.053 18.9267 250.596 18.7341C251.021 18.5859 251.767 18.3439 251.767 18.3439C251.816 18.3291 251.865 18.3241 251.915 18.3241Z" fill="white"/>
<path d="M274.59 31.07C274.212 31.07 273.923 30.9627 273.722 30.748C273.522 30.5333 273.421 30.23 273.421 29.838V27.262C273.421 26.87 273.522 26.5667 273.722 26.352C273.923 26.1373 274.212 26.03 274.59 26.03C274.968 26.03 275.258 26.1373 275.458 26.352C275.659 26.5667 275.759 26.87 275.759 27.262V29.838C275.759 30.23 275.659 30.5333 275.458 30.748C275.258 30.9627 274.968 31.07 274.59 31.07ZM274.59 30.37C274.856 30.37 274.989 30.209 274.989 29.887V27.213C274.989 26.891 274.856 26.73 274.59 26.73C274.324 26.73 274.191 26.891 274.191 27.213V29.887C274.191 30.209 274.324 30.37 274.59 30.37ZM277.4 31.07C277.027 31.07 276.742 30.965 276.546 30.755C276.35 30.5403 276.252 30.2347 276.252 29.838V26.1H277.022V29.894C277.022 30.062 277.055 30.1833 277.12 30.258C277.19 30.3327 277.288 30.37 277.414 30.37C277.54 30.37 277.636 30.3327 277.701 30.258C277.771 30.1833 277.806 30.062 277.806 29.894V26.1H278.548V29.838C278.548 30.2347 278.45 30.5403 278.254 30.755C278.058 30.965 277.773 31.07 277.4 31.07Z" fill="white"/>
<rect x="285" y="8" width="31" height="31" fill="black"/>
<path fill-rule="evenodd" clip-rule="evenodd" d="M298.109 14.1063C297.715 13.9593 297.442 13.9112 297.26 13.9138C297.076 13.9164 297.017 13.9696 297.005 13.983C296.994 13.9948 296.976 14.0235 296.975 14.1029C296.974 14.1628 296.984 14.2337 297.004 14.3061L299.457 16.7194H301.07C301.35 16.3731 301.982 15.6937 303.041 14.766C303.332 14.5109 303.438 14.3351 303.469 14.2426C303.486 14.1909 303.48 14.1822 303.466 14.1637L303.464 14.1606C303.428 14.1114 303.342 14.0437 303.193 13.9816C303.059 13.9255 302.904 13.8872 302.762 13.8665C302.659 13.8692 302.582 13.8932 302.446 13.9423L302.419 13.9521C302.371 13.9696 302.335 13.9876 302.3 14.0059C302.226 14.0437 302.15 14.0826 301.951 14.1204C301.636 14.1804 301.41 14.185 301.155 14.124C300.99 14.0845 300.808 14.0142 300.587 13.9294C300.511 13.8998 300.429 13.8684 300.342 13.8359L300.34 13.8357C300.335 13.835 300.315 13.8327 300.278 13.8341C300.224 13.8361 300.153 13.8447 300.066 13.86C299.894 13.8904 299.691 13.9409 299.477 13.9945L299.464 13.9977C299.252 14.0505 299.026 14.1067 298.837 14.1369C298.742 14.1519 298.644 14.1628 298.554 14.1606L298.525 14.1602C298.431 14.1593 298.201 14.1571 298.109 14.1063ZM299.242 13.1757C298.947 13.2429 298.406 13.3023 298.406 13.3023C298.09 13.2908 297.86 13.2277 297.667 13.1747C297.513 13.1326 297.383 13.0968 297.251 13.0987C296.953 13.1029 296.694 13.1923 296.508 13.3963C296.321 13.6018 296.262 13.8653 296.259 14.0916C296.257 14.3145 296.307 14.5303 296.37 14.7023L296.402 14.7912L298.578 16.9319C297.757 17.1125 296.88 17.4785 296.072 18.1145C294.533 19.3262 293.301 21.4723 293.126 25.024C293.115 25.2552 293.102 25.4899 293.09 25.7262C293.038 26.698 292.984 27.698 293.004 28.6023C293.029 29.71 293.162 30.7759 293.615 31.5044C294.429 32.813 295.76 33.4463 297.037 33.7444C298.31 34.0416 299.582 34.019 300.369 33.9721C301.089 33.9584 302.275 33.9154 303.49 33.6601C304.701 33.4057 306.004 32.9283 306.895 31.9992C307.611 31.2516 307.855 30.1504 307.929 28.9703C307.987 28.0415 307.943 26.9912 307.898 25.9219L307.898 25.9218L307.898 25.9216C307.886 25.6252 307.873 25.3272 307.863 25.03C307.746 21.692 306.518 19.598 304.98 18.3585C303.982 17.5541 302.871 17.124 301.887 16.9376C302.206 16.5912 302.724 16.0726 303.477 15.4121C303.806 15.1237 304.036 14.8353 304.137 14.5344C304.251 14.1954 304.189 13.8795 304.014 13.6398C303.86 13.4286 303.636 13.2982 303.439 13.216C303.234 13.1306 303.014 13.0793 302.824 13.0539L302.803 13.0511H302.782C302.552 13.0511 302.386 13.1088 302.23 13.1653L302.204 13.1747C302.062 13.2261 301.907 13.282 301.663 13.3284C301.449 13.3691 301.436 13.3656 301.355 13.3435L301.355 13.3435L301.355 13.3435C301.339 13.3391 301.32 13.334 301.297 13.3284C301.176 13.2994 301.051 13.2515 300.854 13.1757C300.847 13.1727 300.833 13.1658 300.815 13.1563C300.723 13.1093 300.511 13 300.269 13C299.911 13 299.568 13.0906 299.362 13.1452C299.314 13.1578 299.273 13.1685 299.242 13.1757ZM296.598 18.7826C295.294 19.8098 294.141 21.7024 293.975 25.0658C293.964 25.3062 293.951 25.5471 293.938 25.7873L293.938 25.7873L293.938 25.7874C293.886 26.7564 293.835 27.7147 293.854 28.5836C293.879 29.6845 294.017 30.5403 294.337 31.0555C294.986 32.0991 296.071 32.6458 297.23 32.9165C298.389 33.1869 299.569 33.1684 300.327 33.1229L300.336 33.1224L300.345 33.1222C301.051 33.1089 302.176 33.0673 303.316 32.828C304.465 32.5867 305.566 32.1565 306.281 31.411C306.778 30.8917 307.009 30.0543 307.08 28.9168C307.136 28.0371 307.094 27.048 307.05 25.9868L307.05 25.9866C307.037 25.6833 307.024 25.3741 307.013 25.0598C306.903 21.9361 305.769 20.0859 304.447 19.0204C303.443 18.2117 302.307 17.8352 301.37 17.7159C302.146 18.5301 303.026 19.349 303.507 19.6446L303.061 20.3687C302.86 20.1673 302.557 19.9036 302.208 19.5994L302.208 19.5994C301.705 19.1614 301.106 18.6395 300.574 18.0991C300.548 18.4454 300.525 18.8325 300.515 19.1999C300.507 19.5164 300.509 19.8104 300.526 20.048C300.534 20.1669 300.546 20.2653 300.56 20.3418C300.567 20.3798 300.574 20.4092 300.581 20.4311C300.587 20.4519 300.591 20.4611 300.591 20.462L300.652 20.7938L299.831 20.8422C299.732 20.6443 299.696 20.3607 299.678 20.1075C299.659 19.8317 299.657 19.5076 299.666 19.1781C299.672 18.9159 299.685 18.6454 299.702 18.3858C299.011 19.0527 298.284 19.6307 297.748 20.0572C297.673 20.1168 297.601 20.1734 297.535 20.227L297.089 19.5029C297.561 19.1737 298.435 18.4574 299.209 17.6831C298.385 17.7926 297.447 18.1141 296.598 18.7826Z" fill="white"/>
<path d="M290.263 43.1H291.397C291.78 43.1 292.067 43.2027 292.258 43.408C292.449 43.6133 292.545 43.9143 292.545 44.311V44.794C292.545 45.1907 292.449 45.4917 292.258 45.697C292.067 45.9023 291.78 46.005 291.397 46.005H291.033V48H290.263V43.1ZM291.397 45.305C291.523 45.305 291.616 45.27 291.677 45.2C291.742 45.13 291.775 45.011 291.775 44.843V44.262C291.775 44.094 291.742 43.975 291.677 43.905C291.616 43.835 291.523 43.8 291.397 43.8H291.033V45.305H291.397ZM294.076 48.07C293.698 48.07 293.409 47.9627 293.208 47.748C293.008 47.5333 292.907 47.23 292.907 46.838V44.262C292.907 43.87 293.008 43.5667 293.208 43.352C293.409 43.1373 293.698 43.03 294.076 43.03C294.454 43.03 294.744 43.1373 294.944 43.352C295.145 43.5667 295.245 43.87 295.245 44.262V46.838C295.245 47.23 295.145 47.5333 294.944 47.748C294.744 47.9627 294.454 48.07 294.076 48.07ZM294.076 47.37C294.342 47.37 294.475 47.209 294.475 46.887V44.213C294.475 43.891 294.342 43.73 294.076 43.73C293.81 43.73 293.677 43.891 293.677 44.213V46.887C293.677 47.209 293.81 47.37 294.076 47.37ZM296.886 48.07C296.513 48.07 296.228 47.965 296.032 47.755C295.836 47.5403 295.738 47.2347 295.738 46.838V43.1H296.508V46.894C296.508 47.062 296.541 47.1833 296.606 47.258C296.676 47.3327 296.774 47.37 296.9 47.37C297.026 47.37 297.122 47.3327 297.187 47.258C297.257 47.1833 297.292 47.062 297.292 46.894V43.1H298.034V46.838C298.034 47.2347 297.936 47.5403 297.74 47.755C297.544 47.965 297.259 48.07 296.886 48.07ZM298.582 43.1H299.744C300.141 43.1 300.43 43.1933 300.612 43.38C300.794 43.562 300.885 43.8443 300.885 44.227V44.423C300.885 44.675 300.843 44.8803 300.759 45.039C300.68 45.1977 300.556 45.312 300.388 45.382V45.396C300.771 45.5267 300.962 45.8673 300.962 46.418V46.838C300.962 47.216 300.862 47.5053 300.661 47.706C300.465 47.902 300.176 48 299.793 48H298.582V43.1ZM299.653 45.095C299.807 45.095 299.922 45.0553 299.996 44.976C300.076 44.8967 300.115 44.7637 300.115 44.577V44.304C300.115 44.1267 300.083 43.9983 300.017 43.919C299.957 43.8397 299.859 43.8 299.723 43.8H299.352V45.095H299.653ZM299.793 47.3C299.929 47.3 300.029 47.265 300.094 47.195C300.16 47.1203 300.192 46.9943 300.192 46.817V46.39C300.192 46.166 300.153 46.012 300.073 45.928C299.999 45.8393 299.873 45.795 299.695 45.795H299.352V47.3H299.793ZM301.412 43.1H303.512V43.8H302.182V45.095H303.239V45.795H302.182V47.3H303.512V48H301.412V43.1ZM303.955 43.1H304.725V47.3H305.992V48H303.955V43.1ZM306.362 43.1H307.132V47.3H308.399V48H306.362V43.1ZM308.768 43.1H310.868V43.8H309.538V45.095H310.595V45.795H309.538V47.3H310.868V48H308.768V43.1Z" fill="white"/>
</g>
<defs>
<clipPath id="clip0_66_733">
<rect width="331" height="61" fill="white"/>
</clipPath>
</defs>
</svg>
