<svg width="270" height="61" viewBox="0 0 270 61" fill="none" xmlns="http://www.w3.org/2000/svg">
<path d="M24.6979 60.4688C11.0781 60.4688 0 49.5208 0 36.0625V0H234.948C248.563 0 259.641 10.9479 259.641 24.4062V60.4688" fill="white"/>
<path d="M222.083 52.9114H69.1353C59.6874 52.9114 51.9999 45.3541 51.9999 36.0625V7.55725H204.948C214.396 7.55725 222.083 15.1145 222.083 24.4062V52.9114ZM204.948 5.66663H50.1145V36.0625C50.1145 46.3958 58.6458 54.802 69.1353 54.802H223.969V24.4062C223.969 14.0729 215.437 5.66663 204.948 5.66663Z" fill="#333347"/>
<path d="M196.714 54.802L209.724 28.2239L196.432 5.66663H234.948C245.437 5.66663 253.969 14.0729 253.969 24.4062V54.802" fill="#333347"/>
<path d="M102.901 5.66663H50.1145V36.0625C50.1145 46.3958 58.6458 54.802 69.1353 54.802H121.927V24.4062C121.927 14.0729 113.391 5.66663 102.901 5.66663Z" fill="#333347"/>
<path d="M63.651 29.3594C58.8489 29.3594 54.9583 33.25 54.9583 38.0521C54.9583 42.8542 58.8489 46.7448 63.651 46.7448C68.4583 46.7448 72.3489 42.8542 72.3489 38.0521C72.3489 33.25 68.4583 29.3594 63.651 29.3594Z" fill="white"/>
<path d="M69.3229 39.4688H65.0729V43.7188H62.2344V39.4688H57.9844V36.6355H62.2344V32.3802H65.0729V36.6355H69.3229" fill="#1C1C1B"/>
<path d="M55.7864 26.5937V17.1979H58.2708V24.5156H61.828V26.5937" fill="white"/>
<path d="M62.9426 26.5937V17.1979H69.0155V19.276H65.4322V20.7552H68.4947V22.8385H65.4322V24.5156H69.1614V26.5937" fill="white"/>
<path d="M75.0885 26.5937V19.276H72.6041V17.1979H80.0677V19.276H77.5781V26.5937" fill="white"/>
<path d="M83.5521 21.4739H84.4479C85.4479 21.4739 85.9531 21.0625 85.9531 20.2343C85.9531 19.8281 85.8229 19.5468 85.5677 19.3958C85.3125 19.2395 84.9375 19.1614 84.4479 19.1614H83.5521V21.4739ZM81.0625 26.5989V17.1979H84.6198C85.125 17.1979 85.6042 17.2448 86.0625 17.3385C86.5208 17.4375 86.9167 17.5989 87.2604 17.8333C87.6042 18.0625 87.875 18.375 88.0781 18.7656C88.2813 19.1562 88.3802 19.6458 88.3802 20.2343C88.3802 20.9062 88.2448 21.4687 87.9688 21.9114C87.6979 22.3541 87.3281 22.6979 86.8646 22.9531L88.901 26.5989H86.125L84.5052 23.4427H83.5521V26.5989" fill="white"/>
<path d="M89.8698 26.5989H92.3593V17.1979H89.8698V26.5989Z" fill="white"/>
<path d="M75.3801 43.276V33.8698H81.5103V35.9531H77.8697V37.75H80.9895V39.8333H77.8697V43.276" fill="white"/>
<path d="M84.9218 38.7031L84.7604 39.3541H86.4948L86.3385 38.7031C86.2239 38.25 86.1041 37.7604 85.9895 37.2291C85.875 36.6979 85.7604 36.1979 85.6406 35.7239H85.5833C85.4791 36.2031 85.3698 36.7083 85.2604 37.2343C85.151 37.7604 85.0364 38.25 84.9218 38.7031ZM81.3073 43.276L84.1666 33.8698H87.1718L90.0364 43.276H87.4062L86.9427 41.276H84.3125L83.8489 43.276" fill="white"/>
<path d="M94.5624 43.4479C93.9687 43.4479 93.3958 43.3489 92.8541 43.151C92.3072 42.9531 91.8333 42.651 91.4218 42.2552C91.0103 41.8541 90.6822 41.3541 90.4426 40.75C90.203 40.1458 90.0833 39.4479 90.0833 38.6458C90.0833 37.8541 90.2083 37.151 90.4583 36.5416C90.7083 35.927 91.0416 35.4114 91.4635 34.9948C91.8801 34.5729 92.3645 34.25 92.9114 34.0312C93.4583 33.8073 94.026 33.6979 94.6249 33.6979C95.2499 33.6979 95.8124 33.8229 96.302 34.0677C96.7968 34.3125 97.2083 34.6041 97.5468 34.9427L96.2447 36.5312C96.0155 36.3333 95.776 36.1666 95.5312 36.0312C95.2812 35.9062 94.9999 35.8385 94.6822 35.8385C94.401 35.8385 94.1405 35.901 93.8958 36.026C93.651 36.151 93.4322 36.3333 93.2447 36.5625C93.0572 36.7916 92.9062 37.0781 92.7968 37.4166C92.6822 37.75 92.6301 38.1354 92.6301 38.5573C92.6301 39.4479 92.8124 40.125 93.1874 40.5989C93.5572 41.0677 94.0468 41.3073 94.651 41.3073C95.0208 41.3073 95.3437 41.2291 95.6301 41.0677C95.9114 40.9062 96.1562 40.7187 96.3593 40.4948L97.6614 42.0573C97.2551 42.5208 96.7916 42.8698 96.2655 43.0989C95.7395 43.3333 95.1718 43.4479 94.5624 43.4479Z" fill="white"/>
<path d="M98.6198 43.276H101.104V33.8698H98.6198V43.276Z" fill="white"/>
<path d="M102.875 43.276V33.8698H105.365V41.1927H108.922V43.276" fill="white"/>
<path d="M110.031 43.276V33.8698H116.109V35.9531H112.521V37.4323H115.589V39.5156H112.521V41.1927H116.255V43.276" fill="white"/>
<path d="M28.4062 25.7448C26.7135 28.2343 28.151 31.5104 29.8958 33.1718C31.4895 34.6823 32.7655 35.0364 32.9322 35.0781L33.7447 33.5208L36.0885 39.9323L29.4635 41.2812L30.3437 39.6458L29.4478 39.1458C26.6562 37.3281 26.0676 34.8593 25.8749 34.0885C25.5416 32.7604 25.0468 28.7864 28.4062 25.7448Z" fill="#333347"/>
<path d="M28.375 25.8489C29.5781 28.6093 33.1146 29.1406 35.4479 28.552C37.5208 28.026 38.5052 27.1718 38.6719 27.0156L38.6615 27L37.776 25.4635L44.4427 26.9218L42.0313 33.2395L41.1354 31.6458L40.2656 32.1198C37.2396 33.5104 34.8333 32.6927 34.0781 32.4427C32.7813 32.0156 29.1562 30.3125 28.375 25.8489Z" fill="#333347"/>
<path d="M40.1613 19.1927C39.6978 22.4895 37.7134 24.0729 37.0936 24.5729C36.0311 25.4375 32.6457 27.5677 28.4634 25.8177C31.4373 26.2916 33.7967 23.6041 34.5571 21.3177C35.2446 19.2656 35.0415 17.9687 34.9998 17.7708L34.979 17.7656L33.2134 17.6927L38.0259 12.8541L42.0519 18.2864L40.2342 18.1823" fill="#333347"/>
<path fill-rule="evenodd" clip-rule="evenodd" d="M19.9375 16.4115C18.4167 16.4115 17.1875 15.1823 17.1875 13.6563C17.1875 12.1354 18.4167 10.9062 19.9375 10.9062C21.4583 10.9062 22.6927 12.1354 22.6927 13.6563C22.6927 15.1823 21.4583 16.4115 19.9375 16.4115Z" fill="#333347"/>
<path d="M15.6771 29.7968C15.9115 29.151 16.2604 29.1927 16.2604 29.1927C16.2604 29.1927 16.5781 29.125 16.7552 29.7708L19.3281 38.8073C17.1823 38.1823 15.224 37.1198 13.5573 35.7083L15.6771 29.7968ZM23.7031 5.66663C13.7604 5.66663 5.67188 13.7552 5.67188 23.6979C5.67188 33.6406 13.7604 41.7291 23.7031 41.7291C24.2344 41.7291 24.7552 41.6979 25.276 41.651L25.3958 43.4635L28.6979 40.2708L25.0052 37.4531L25.1458 39.3541C24.6719 39.401 24.1875 39.4323 23.7031 39.4323C22.9375 39.4323 22.1875 39.375 21.4531 39.2656L21.3802 38.7864L19.6667 24.1875C19.4323 21.4323 21.0052 20.9948 21.9792 21.4062L27.4479 23.6041C28.0729 23.875 28.375 23.3489 28.375 23.3489C28.375 23.3489 28.7292 22.802 28.0938 22.3958C28.0938 22.3958 20.6406 17.4583 19.0521 17.1562C16.8854 16.7552 14.7396 18.5104 14.2656 20.7968L11.6198 33.7604C9.34375 31.0312 7.96875 27.5208 7.96875 23.6979C7.96875 15.0208 15.026 7.9635 23.7031 7.9635C28.3385 7.9635 32.5104 9.97913 35.3906 13.177L37.0052 11.5364C33.7083 7.93225 28.9635 5.66663 23.7031 5.66663Z" fill="#333347"/>
<path d="M131.328 25.728H132C132.416 25.728 132.752 25.636 133.008 25.452C133.264 25.268 133.392 24.928 133.392 24.432C133.392 24.184 133.356 23.98 133.284 23.82C133.22 23.652 133.128 23.52 133.008 23.424C132.896 23.32 132.76 23.248 132.6 23.208C132.44 23.168 132.264 23.148 132.072 23.148H131.328V25.728ZM131.328 21.948H131.82C132.3 21.948 132.648 21.864 132.864 21.696C133.088 21.52 133.2 21.228 133.2 20.82C133.2 20.412 133.1 20.124 132.9 19.956C132.7 19.788 132.384 19.704 131.952 19.704H131.328V21.948ZM129.6 18.432H132.492C132.844 18.432 133.168 18.468 133.464 18.54C133.768 18.612 134.028 18.732 134.244 18.9C134.46 19.068 134.628 19.292 134.748 19.572C134.868 19.852 134.928 20.196 134.928 20.604C134.928 21.068 134.82 21.468 134.604 21.804C134.388 22.132 134.064 22.356 133.632 22.476V22.5C134.112 22.564 134.492 22.768 134.772 23.112C135.052 23.456 135.192 23.916 135.192 24.492C135.192 24.828 135.148 25.148 135.06 25.452C134.972 25.756 134.82 26.024 134.604 26.256C134.396 26.48 134.12 26.66 133.776 26.796C133.44 26.932 133.02 27 132.516 27H129.6V18.432ZM139.844 23.772L139.016 19.92H138.992L138.164 23.772H139.844ZM140.072 18.432L142.34 27H140.54L140.144 25.188H137.864L137.468 27H135.668L137.936 18.432H140.072ZM142.936 18.432H146.128C146.848 18.432 147.408 18.616 147.808 18.984C148.208 19.344 148.408 19.896 148.408 20.64C148.408 21.216 148.292 21.688 148.06 22.056C147.828 22.416 147.468 22.648 146.98 22.752V22.776C147.412 22.84 147.728 22.98 147.928 23.196C148.128 23.412 148.252 23.76 148.3 24.24C148.316 24.4 148.328 24.576 148.336 24.768C148.344 24.952 148.352 25.16 148.36 25.392C148.376 25.848 148.4 26.196 148.432 26.436C148.48 26.676 148.584 26.84 148.744 26.928V27H146.872C146.784 26.88 146.728 26.744 146.704 26.592C146.68 26.432 146.664 26.268 146.656 26.1L146.608 24.456C146.592 24.12 146.508 23.856 146.356 23.664C146.204 23.472 145.948 23.376 145.588 23.376H144.664V27H142.936V18.432ZM144.664 22.176H145.384C145.8 22.176 146.12 22.08 146.344 21.888C146.568 21.688 146.68 21.356 146.68 20.892C146.68 20.1 146.28 19.704 145.48 19.704H144.664V22.176ZM151.332 25.728H152.004C152.42 25.728 152.756 25.636 153.012 25.452C153.268 25.268 153.396 24.928 153.396 24.432C153.396 24.184 153.36 23.98 153.288 23.82C153.224 23.652 153.132 23.52 153.012 23.424C152.9 23.32 152.764 23.248 152.604 23.208C152.444 23.168 152.268 23.148 152.076 23.148H151.332V25.728ZM151.332 21.948H151.824C152.304 21.948 152.652 21.864 152.868 21.696C153.092 21.52 153.204 21.228 153.204 20.82C153.204 20.412 153.104 20.124 152.904 19.956C152.704 19.788 152.388 19.704 151.956 19.704H151.332V21.948ZM149.604 18.432H152.496C152.848 18.432 153.172 18.468 153.468 18.54C153.772 18.612 154.032 18.732 154.248 18.9C154.464 19.068 154.632 19.292 154.752 19.572C154.872 19.852 154.932 20.196 154.932 20.604C154.932 21.068 154.824 21.468 154.608 21.804C154.392 22.132 154.068 22.356 153.636 22.476V22.5C154.116 22.564 154.496 22.768 154.776 23.112C155.056 23.456 155.196 23.916 155.196 24.492C155.196 24.828 155.152 25.148 155.064 25.452C154.976 25.756 154.824 26.024 154.608 26.256C154.4 26.48 154.124 26.66 153.78 26.796C153.444 26.932 153.024 27 152.52 27H149.604V18.432ZM161.06 18.432V19.848H158V21.864H160.88V23.28H158V25.584H161.18V27H156.272V18.432H161.06ZM165.709 21.324C165.709 20.7 165.633 20.248 165.481 19.968C165.337 19.68 165.069 19.536 164.677 19.536C164.461 19.536 164.281 19.596 164.137 19.716C164.001 19.828 163.893 20.016 163.813 20.28C163.733 20.536 163.677 20.876 163.645 21.3C163.613 21.716 163.597 22.228 163.597 22.836C163.597 23.484 163.617 24.008 163.657 24.408C163.705 24.808 163.773 25.12 163.861 25.344C163.957 25.56 164.073 25.708 164.209 25.788C164.353 25.86 164.517 25.896 164.701 25.896C164.853 25.896 164.993 25.872 165.121 25.824C165.257 25.768 165.373 25.664 165.469 25.512C165.565 25.352 165.641 25.132 165.697 24.852C165.753 24.564 165.781 24.188 165.781 23.724H167.509C167.509 24.188 167.473 24.628 167.401 25.044C167.329 25.46 167.193 25.824 166.993 26.136C166.801 26.448 166.525 26.692 166.165 26.868C165.813 27.044 165.353 27.132 164.785 27.132C164.137 27.132 163.621 27.028 163.237 26.82C162.853 26.612 162.557 26.312 162.349 25.92C162.149 25.528 162.017 25.06 161.953 24.516C161.897 23.972 161.869 23.372 161.869 22.716C161.869 22.068 161.897 21.472 161.953 20.928C162.017 20.376 162.149 19.904 162.349 19.512C162.557 19.12 162.853 18.816 163.237 18.6C163.621 18.376 164.137 18.264 164.785 18.264C165.401 18.264 165.885 18.364 166.237 18.564C166.597 18.764 166.865 19.02 167.041 19.332C167.217 19.636 167.325 19.968 167.365 20.328C167.413 20.68 167.437 21.012 167.437 21.324H165.709ZM170.115 18.432V24.408C170.115 24.624 170.127 24.824 170.151 25.008C170.183 25.184 170.235 25.34 170.307 25.476C170.387 25.604 170.491 25.708 170.619 25.788C170.755 25.86 170.923 25.896 171.123 25.896C171.331 25.896 171.499 25.86 171.627 25.788C171.755 25.708 171.855 25.604 171.927 25.476C172.007 25.34 172.059 25.184 172.083 25.008C172.115 24.824 172.131 24.624 172.131 24.408V18.432H173.859V24.408C173.859 24.952 173.783 25.404 173.631 25.764C173.479 26.116 173.275 26.396 173.019 26.604C172.763 26.812 172.471 26.952 172.143 27.024C171.815 27.096 171.475 27.132 171.123 27.132C170.771 27.132 170.431 27.1 170.103 27.036C169.775 26.972 169.483 26.844 169.227 26.652C168.971 26.452 168.767 26.172 168.615 25.812C168.463 25.452 168.387 24.984 168.387 24.408V18.432H170.115ZM179.74 18.432V19.848H176.68V21.864H179.56V23.28H176.68V25.584H179.86V27H174.952V18.432H179.74ZM134.028 33.432V39.6C134.028 40.512 133.816 41.164 133.392 41.556C132.968 41.94 132.32 42.132 131.448 42.132C130.992 42.132 130.616 42.072 130.32 41.952C130.032 41.824 129.8 41.648 129.624 41.424C129.456 41.192 129.34 40.924 129.276 40.62C129.212 40.316 129.18 39.996 129.18 39.66V39.288H130.764V39.552C130.764 40.008 130.812 40.348 130.908 40.572C131.012 40.788 131.22 40.896 131.532 40.896C131.844 40.896 132.048 40.788 132.144 40.572C132.248 40.348 132.3 40.008 132.3 39.552V33.432H134.028ZM139.943 33.432V34.848H136.883V36.864H139.763V38.28H136.883V40.584H140.063V42H135.155V33.432H139.943ZM145.948 33.432V34.848H144.076V42H142.348V34.848H140.476V33.432H145.948ZM149.617 38.772L148.789 34.92H148.765L147.937 38.772H149.617ZM149.845 33.432L152.113 42H150.313L149.917 40.188H147.637L147.241 42H145.441L147.709 33.432H149.845ZM154.437 40.728H155.109C155.525 40.728 155.861 40.636 156.117 40.452C156.373 40.268 156.501 39.928 156.501 39.432C156.501 39.184 156.465 38.98 156.393 38.82C156.329 38.652 156.237 38.52 156.117 38.424C156.005 38.32 155.869 38.248 155.709 38.208C155.549 38.168 155.373 38.148 155.181 38.148H154.437V40.728ZM154.437 36.948H154.929C155.409 36.948 155.757 36.864 155.973 36.696C156.197 36.52 156.309 36.228 156.309 35.82C156.309 35.412 156.209 35.124 156.009 34.956C155.809 34.788 155.493 34.704 155.061 34.704H154.437V36.948ZM152.709 33.432H155.601C155.953 33.432 156.277 33.468 156.573 33.54C156.877 33.612 157.137 33.732 157.353 33.9C157.569 34.068 157.737 34.292 157.857 34.572C157.977 34.852 158.037 35.196 158.037 35.604C158.037 36.068 157.929 36.468 157.713 36.804C157.497 37.132 157.173 37.356 156.741 37.476V37.5C157.221 37.564 157.601 37.768 157.881 38.112C158.161 38.456 158.301 38.916 158.301 39.492C158.301 39.828 158.257 40.148 158.169 40.452C158.081 40.756 157.929 41.024 157.713 41.256C157.505 41.48 157.229 41.66 156.885 41.796C156.549 41.932 156.129 42 155.625 42H152.709V33.432ZM159.377 42V33.432H161.105V40.584H164.165V42H159.377ZM169.72 33.432V34.848H166.66V36.864H169.54V38.28H166.66V40.584H169.84V42H164.932V33.432H169.72Z" fill="black"/>
<path d="M222.337 36.8405L216.602 36.8342C216.276 36.8342 216.006 36.5707 216.006 36.2444L216 30.5407C216 30.3023 216.144 30.0827 216.37 29.9948C216.59 29.9007 216.847 29.9509 217.016 30.1203L218.14 31.2372L227.803 21.6181C228.035 21.3923 228.411 21.3923 228.643 21.6181L231.304 24.2661C231.417 24.379 231.48 24.5233 231.48 24.6865C231.48 24.8433 231.417 24.9939 231.304 25.1069L221.641 34.7134L222.758 35.8303C222.927 35.9997 222.977 36.257 222.883 36.4766C222.795 36.6962 222.576 36.8405 222.337 36.8405ZM217.198 35.6483L220.894 35.6546L220.373 35.1338C220.141 34.9016 220.141 34.5252 220.373 34.293L230.036 24.6865L228.223 22.8794L218.56 32.4922C218.328 32.7243 217.951 32.7243 217.719 32.4922L217.192 31.9776" fill="white"/>
<path d="M234.473 28.2442C234.015 28.2442 233.575 28.0685 233.237 27.7548C232.885 27.4285 232.684 26.983 232.666 26.4998L232.578 23.7704L233.77 23.7327L233.858 26.4622C233.864 26.6253 233.933 26.7759 234.052 26.8889C234.171 27.0018 234.341 27.0457 234.498 27.0583C234.661 27.052 234.811 26.983 234.924 26.8638C235.037 26.7446 235.094 26.5877 235.088 26.4245L234.956 22.7852L236.148 22.7476L236.28 26.3806C236.299 26.8638 236.129 27.3218 235.797 27.6732C235.464 28.0246 235.019 28.2254 234.535 28.2379C234.51 28.2442 234.491 28.2442 234.473 28.2442Z" fill="white"/>
<path d="M234.473 28.2442C234.015 28.2442 233.575 28.0685 233.237 27.7548C232.885 27.4285 232.684 26.983 232.666 26.4998L232.578 23.7704L233.77 23.7327L233.858 26.4622C233.864 26.6253 233.933 26.7759 234.052 26.8889C234.171 27.0018 234.341 27.0457 234.498 27.0583C234.661 27.052 234.811 26.983 234.924 26.8638C235.037 26.7446 235.094 26.5877 235.088 26.4245L234.956 22.7852L236.148 22.7476L236.28 26.3806C236.299 26.8638 236.129 27.3218 235.797 27.6732C235.464 28.0246 235.019 28.2254 234.535 28.2379C234.51 28.2442 234.491 28.2442 234.473 28.2442Z" fill="white"/>
<path d="M232.063 28.6521C231.599 28.6521 231.166 28.4827 230.827 28.1689C230.476 27.8364 230.269 27.3909 230.256 26.9077L230.168 24.1782L231.36 24.1406L231.448 26.8701C231.455 27.0395 231.524 27.1901 231.643 27.303C231.762 27.416 231.919 27.485 232.082 27.4662C232.421 27.4536 232.691 27.1712 232.678 26.8324L232.546 23.1994L233.739 23.1555L233.87 26.7885C233.908 27.7862 233.124 28.6144 232.126 28.6521C232.101 28.6521 232.082 28.6521 232.063 28.6521Z" fill="white"/>
<path d="M234.115 36.853C233.87 36.853 233.651 36.7024 233.563 36.4828C233.469 36.2632 233.519 36.0059 233.688 35.8365L234.811 34.7196L225.148 25.1068C224.916 24.881 224.916 24.5045 225.148 24.2723L227.803 21.6244C228.022 21.4048 228.424 21.4048 228.643 21.6244L238.733 31.6576L237.886 32.4984L228.223 22.8856L226.41 24.6927L236.073 34.2992C236.311 34.5314 236.311 34.9142 236.073 35.14L235.552 35.6608H239.248L239.254 30.547H240.446L240.44 36.2507C240.44 36.5769 240.176 36.8405 239.844 36.8405L234.115 36.853Z" fill="white"/>
<path d="M228.198 41.3646C228.041 41.3646 227.891 41.3081 227.771 41.1889L223.718 37.1668C223.548 36.9974 223.498 36.7401 223.586 36.5205C223.68 36.2946 223.9 36.1503 224.138 36.1503H225.726V25.1069C225.726 24.7806 225.989 24.5108 226.322 24.5108H230.08C230.407 24.5108 230.677 24.7806 230.677 25.1069V36.7464H229.484V25.703H226.918V36.7464C226.918 37.0727 226.648 37.3362 226.322 37.3362H225.581L228.198 39.934L231.831 36.326L232.678 37.1668L228.618 41.1889C228.499 41.3081 228.349 41.3646 228.198 41.3646Z" fill="white"/>
<path d="M222.331 36.8405L216.602 36.8342C216.276 36.8342 216.006 36.5707 216.006 36.2444L216 30.5407C216 30.3023 216.144 30.0827 216.37 29.9948C216.59 29.9007 216.847 29.9509 217.016 30.1203L218.14 31.2372L227.803 21.6181C228.035 21.3923 228.411 21.3923 228.643 21.6181L231.304 24.2661C231.417 24.379 231.48 24.5233 231.48 24.6865C231.48 24.8433 231.417 24.9939 231.304 25.1069L221.214 35.1338L220.373 34.293L230.036 24.6865L228.223 22.8794L218.56 32.4922C218.328 32.7243 217.951 32.7243 217.719 32.4922L217.192 31.9776L217.198 35.6483L222.337 35.6546" fill="white"/>
<path d="M241.927 19.8236C241.494 19.8236 241.086 19.6542 240.779 19.353L235.182 13.7811C234.874 13.4799 234.705 13.0721 234.705 12.6454C234.705 12.2124 234.874 11.8109 235.175 11.5034L236.631 10.0539C237.246 9.45158 238.313 9.45158 238.928 10.0539L244.525 15.6259C245.158 16.2533 245.158 17.2761 244.525 17.9036L243.069 19.353C242.762 19.6542 242.36 19.8236 241.927 19.8236ZM237.779 10.7693C237.666 10.7693 237.56 10.8195 237.478 10.8948V10.901L236.023 12.3442C235.941 12.4258 235.897 12.5324 235.897 12.6454C235.897 12.7583 235.941 12.865 236.023 12.9403L241.62 18.5122C241.783 18.6754 242.065 18.6691 242.228 18.5122L243.684 17.069C243.847 16.8996 243.847 16.6298 243.678 16.4667L238.081 10.901C237.999 10.8195 237.892 10.7693 237.779 10.7693Z" fill="white"/>
<path d="M236 29.5L231.5 25.5L230.5 26.5L230 28.5L233 32.5L236 29.5Z" fill="#333347"/>
<path d="M234.115 36.853C233.87 36.853 233.651 36.7024 233.563 36.4828C233.469 36.2632 233.519 36.0059 233.688 35.8365L234.811 34.7196L225.148 25.1068C224.916 24.881 224.916 24.5045 225.148 24.2723L227.803 21.6244C228.022 21.4048 228.424 21.4048 228.643 21.6244L238.313 31.2435L239.43 30.1266C239.599 29.9572 239.856 29.907 240.082 30.0011C240.302 30.0889 240.446 30.3085 240.446 30.547L240.44 36.2507C240.44 36.5769 240.176 36.8405 239.844 36.8405L234.115 36.853ZM226.41 24.6927L236.073 34.2992C236.311 34.5314 236.311 34.9142 236.073 35.14L235.552 35.6608H239.248L239.254 31.9839L238.733 32.4984C238.501 32.7306 238.125 32.7306 237.886 32.4984L228.223 22.8856" fill="white"/>
<path d="M224.5 37H226.5V25.5H230L230.5 37H231.5L228 41L224.5 37Z" fill="#333347"/>
<path d="M228.198 41.3646C228.041 41.3646 227.891 41.3081 227.778 41.1889L223.718 37.1668C223.548 36.9974 223.498 36.7401 223.586 36.5205C223.68 36.2946 223.9 36.1503 224.138 36.1503H225.726V25.1069C225.726 24.7806 225.989 24.5108 226.322 24.5108H230.08C230.407 24.5108 230.677 24.7806 230.677 25.1069V36.1503H232.251C232.496 36.1503 232.716 36.2946 232.804 36.5205C232.898 36.7401 232.848 36.9974 232.678 37.1668L228.618 41.1889C228.499 41.3081 228.349 41.3646 228.198 41.3646ZM225.581 37.3362L228.198 39.934L230.815 37.3362H230.08C229.748 37.3362 229.484 37.0727 229.484 36.7464V25.703H226.918V36.7464C226.918 37.0727 226.648 37.3362 226.322 37.3362" fill="white"/>
<path d="M230.501 22.0825L227.803 25.6841C227.345 26.2928 227.47 27.1587 228.085 27.6105C228.694 28.0685 229.566 27.943 230.024 27.3344L231.706 25.088C232.377 24.2096 233.13 23.8833 233.494 23.7892C234.303 23.5758 236.738 22.666 238.043 21.8817C239.342 21.0911 240.013 19.2589 239.944 17.6839L236.06 13.8187L227.815 16.3788C226.811 16.7176 226.447 17.2886 226.297 17.6275C226.146 17.9726 224.502 21.8378 224.502 21.8378C224.314 22.3209 224.207 22.8982 224.483 23.3876C224.759 23.877 225.387 24.8559 225.387 24.8559L227.2 23.0488C227.2 23.0488 227.131 22.0511 227.363 21.5366C227.602 21.0283 227.853 20.1812 228.392 19.9867C228.926 19.7985 229.861 19.4973 229.861 19.4973C229.861 19.4973 229.779 20.564 229.967 21.135C230.162 21.706 230.457 22.0448 230.457 22.0448" fill="#333347"/>
<path d="M228.913 28.4826C228.487 28.4826 228.072 28.3446 227.727 28.0873C227.301 27.7736 227.025 27.3093 226.949 26.7885C226.88 26.2677 227.012 25.7469 227.332 25.3265L229.76 22.0825C229.641 21.8879 229.509 21.637 229.403 21.3232C229.309 21.0283 229.265 20.6581 229.252 20.3255C229.02 20.4008 228.781 20.4824 228.593 20.5452C228.399 20.6142 228.167 21.1726 228.041 21.4675L227.909 21.7875C227.79 22.0385 227.771 22.6535 227.796 23.0111C227.809 23.1805 227.746 23.3499 227.627 23.4692L225.807 25.2763C225.682 25.4018 225.5 25.4645 225.324 25.4457C225.142 25.4269 224.985 25.3265 224.885 25.1759C224.885 25.1759 224.245 24.1782 223.963 23.6825C223.643 23.1115 223.636 22.415 223.95 21.6181C223.956 21.6056 225.6 17.7341 225.751 17.3953C226.071 16.6674 226.717 16.1215 227.621 15.8141L235.878 13.254C236.091 13.185 236.324 13.2414 236.481 13.3983L240.371 17.2698C240.477 17.3765 240.534 17.5145 240.54 17.6651C240.609 19.2651 239.95 21.4236 238.35 22.3836C236.995 23.2056 234.535 24.128 233.644 24.3664C233.513 24.3978 232.822 24.6112 232.182 25.4457L230.501 27.692C230.181 28.1124 229.723 28.3885 229.196 28.4638C229.102 28.4764 229.007 28.4826 228.913 28.4826ZM229.867 18.9075C229.999 18.9075 230.131 18.9514 230.231 19.033C230.388 19.1585 230.476 19.3467 230.457 19.5475C230.432 19.9114 230.425 20.6142 230.538 20.9467C230.683 21.3922 230.909 21.6621 230.915 21.6621C231.147 21.8628 231.166 22.1891 230.978 22.4401L228.286 26.0355C228.154 26.2049 228.104 26.412 228.135 26.619C228.16 26.8261 228.273 27.0144 228.443 27.1336C228.612 27.2653 228.819 27.3093 229.026 27.2904C229.233 27.2591 229.422 27.1461 229.547 26.983L231.229 24.7304C232.088 23.6135 233.061 23.2872 233.343 23.2182C234.058 23.0299 236.468 22.1389 237.729 21.3734C238.802 20.7271 239.342 19.2024 239.354 17.9349L235.891 14.4964L227.991 16.9435C227.42 17.138 227.025 17.4517 226.843 17.8659C226.692 18.211 225.054 22.0699 225.054 22.0699C224.885 22.5029 224.866 22.8542 225.004 23.0927C225.123 23.3123 225.318 23.626 225.494 23.9084L226.598 22.8166C226.592 22.4276 226.61 21.7562 226.824 21.2918L226.943 21.0158C227.175 20.451 227.501 19.673 228.192 19.4283C228.731 19.24 229.679 18.9326 229.679 18.9326C229.742 18.9137 229.804 18.9075 229.867 18.9075Z" fill="white"/>
<path d="M214.369 44.7H215.881C216.373 44.7 216.742 44.832 216.988 45.096C217.234 45.36 217.357 45.747 217.357 46.257V49.443C217.357 49.953 217.234 50.34 216.988 50.604C216.742 50.868 216.373 51 215.881 51H214.369V44.7ZM215.863 50.1C216.025 50.1 216.148 50.052 216.232 49.956C216.322 49.86 216.367 49.704 216.367 49.488V46.212C216.367 45.996 216.322 45.84 216.232 45.744C216.148 45.648 216.025 45.6 215.863 45.6H215.359V50.1H215.863ZM218.025 44.7H220.725V45.6H219.015V47.265H220.374V48.165H219.015V50.1H220.725V51H218.025V44.7ZM219.465 43.242H220.545L219.582 44.277H218.835L219.465 43.242ZM222.69 51.09C222.216 51.09 221.853 50.955 221.601 50.685C221.355 50.415 221.232 50.034 221.232 49.542V46.158C221.232 45.666 221.355 45.285 221.601 45.015C221.853 44.745 222.216 44.61 222.69 44.61C223.164 44.61 223.524 44.745 223.77 45.015C224.022 45.285 224.148 45.666 224.148 46.158V46.824H223.212V46.095C223.212 45.705 223.047 45.51 222.717 45.51C222.387 45.51 222.222 45.705 222.222 46.095V49.614C222.222 49.998 222.387 50.19 222.717 50.19C223.047 50.19 223.212 49.998 223.212 49.614V48.651H224.148V49.542C224.148 50.034 224.022 50.415 223.77 50.685C223.524 50.955 223.164 51.09 222.69 51.09ZM224.74 44.7H225.73V47.265H226.792V44.7H227.782V51H226.792V48.165H225.73V51H224.74V44.7ZM228.519 44.7H231.219V45.6H229.509V47.265H230.868V48.165H229.509V50.1H231.219V51H228.519V44.7ZM228.699 43.242H229.779L230.409 44.277H229.662L228.699 43.242ZM232.563 45.6H231.528V44.7H234.588V45.6H233.553V51H232.563V45.6ZM235.067 44.7H237.767V45.6H236.057V47.265H237.416V48.165H236.057V50.1H237.767V51H235.067V44.7ZM238.337 44.7H239.804C240.314 44.7 240.686 44.82 240.92 45.06C241.154 45.294 241.271 45.657 241.271 46.149V46.536C241.271 47.19 241.055 47.604 240.623 47.778V47.796C240.863 47.868 241.031 48.015 241.127 48.237C241.229 48.459 241.28 48.756 241.28 49.128V50.235C241.28 50.415 241.286 50.562 241.298 50.676C241.31 50.784 241.34 50.892 241.388 51H240.38C240.344 50.898 240.32 50.802 240.308 50.712C240.296 50.622 240.29 50.46 240.29 50.226V49.074C240.29 48.786 240.242 48.585 240.146 48.471C240.056 48.357 239.897 48.3 239.669 48.3H239.327V51H238.337V44.7ZM239.687 47.4C239.885 47.4 240.032 47.349 240.128 47.247C240.23 47.145 240.281 46.974 240.281 46.734V46.248C240.281 46.02 240.239 45.855 240.155 45.753C240.077 45.651 239.951 45.6 239.777 45.6H239.327V47.4H239.687ZM241.967 44.7H242.957V51H241.967V44.7ZM243.698 44.7H246.398V45.6H244.688V47.265H246.047V48.165H244.688V50.1H246.398V51H243.698V44.7Z" fill="white"/>
</svg>
