<svg width="106" height="35" viewBox="0 0 106 35" fill="none" xmlns="http://www.w3.org/2000/svg">
<g clip-path="url(#clip0_46_2)">
<path d="M64.2917 32.8281H37.9375C32.3385 32.8281 27.7812 28.1927 27.7812 22.4896V3.63021H29.0781C29.7031 4.6875 31.3646 5.44271 33.3177 5.44271C35.276 5.44271 36.9323 4.6875 37.5573 3.63021H64.5208L71.599 18.2083L64.2917 32.8281ZM94.1042 2.26042H37.9479C37.5781 0.979167 35.6979 0 33.4271 0C31.1562 0 29.276 0.979167 28.9062 2.26042H26.4062V22.4896C26.4062 28.9479 31.6719 34.2031 38.1354 34.2031H105.833V13.9688C105.833 7.51563 100.344 2.26042 93.875 2.26042" fill="#1C1C1B"/>
<path d="M13.6406 14.2865C12.625 15.7812 13.4896 17.7448 14.5365 18.7448C15.4896 19.651 16.2552 19.8646 16.3594 19.8906L16.8437 18.9583L18.25 22.8021L14.276 23.6094L14.8021 22.6302L14.2656 22.3281C12.5937 21.2396 12.2344 19.7552 12.1198 19.2917C11.9219 18.5 11.625 16.1146 13.6406 14.2865Z" fill="#1C1C1B"/>
<path d="M13.6198 14.3542C14.3437 16.0052 16.4635 16.3281 17.8698 15.9688C19.1094 15.6563 19.6979 15.1406 19.8021 15.0521L19.7969 15.0417L19.2604 14.1198L23.2656 14.9948L21.8125 18.7865L21.2812 17.8281L20.7552 18.1146C18.9427 18.9479 17.4948 18.4583 17.0469 18.3073C16.2656 18.0521 14.0885 17.0313 13.6198 14.3542Z" fill="#1C1C1B"/>
<path d="M20.6927 10.3594C20.4167 12.3333 19.224 13.2865 18.8542 13.5833C18.2135 14.1042 16.1823 15.3802 13.6771 14.3333C15.4635 14.6146 16.875 13.0052 17.3333 11.6302C17.7448 10.401 17.6198 9.62499 17.599 9.5052L17.5833 9.49999L16.5208 9.45312L19.4115 6.55208L21.8281 9.81249L20.7396 9.74999" fill="#1C1C1B"/>
<path d="M8.5625 8.6875C7.52084 8.6875 6.70834 7.72916 6.95313 6.64583C7.08854 6.05208 7.57292 5.5625 8.17188 5.42708C9.25 5.18229 10.2135 5.99479 10.2135 7.03646C10.2135 7.94792 9.47396 8.6875 8.5625 8.6875Z" fill="#1C1C1B"/>
<path d="M10.8177 2.23958C4.85417 2.23958 0 7.09375 0 13.0625C0 19.026 4.85417 23.8802 10.8177 23.8802C11.1406 23.8802 11.4531 23.8594 11.7656 23.8333L11.8385 24.9167L13.8125 23.0052L11.599 21.3125L11.6823 22.4583C11.401 22.4792 11.1094 22.5 10.8177 22.5C10.3594 22.5 9.91146 22.4635 9.46875 22.401L9.42708 22.1146L8.39583 13.3542C8.25521 11.7031 9.19792 11.4375 9.78646 11.6875L13.0625 13.0052C13.4427 13.1667 13.6198 12.849 13.6198 12.849C13.6198 12.849 13.8333 12.5208 13.4531 12.276C13.4531 12.276 8.98438 9.3177 8.03125 9.13541C6.72917 8.89062 5.44271 9.94791 5.15625 11.3177L3.56771 19.099C1.94271 17.1458 1.08333 14.526 1.47396 11.7187C2.04687 7.58333 5.36458 4.27083 9.5 3.70833C12.8021 3.26041 15.8333 4.53124 17.8333 6.74999L18.8021 5.76562C16.8229 3.59895 13.974 2.23958 10.8177 2.23958ZM6 16.7187C6.14063 16.3333 6.35417 16.3542 6.35417 16.3542C6.35417 16.3542 6.54687 16.3177 6.65104 16.7031L8.19271 22.125C6.90625 21.75 5.72917 21.1094 4.73438 20.2656" fill="#1C1C1B"/>
<path d="M31.0781 4.02604V1.15625H33.0521V1.64583H31.6615V2.32292H32.8594V2.80729H31.6615V4.02604" fill="white"/>
<path d="M34.1146 2.36979H34.5417C34.8177 2.36979 34.9948 2.35937 35.0625 2.33333C35.1302 2.3125 35.1875 2.27083 35.224 2.21354C35.2656 2.15625 35.2865 2.08854 35.2865 2C35.2865 1.90104 35.2604 1.82292 35.2083 1.76562C35.1563 1.70833 35.0833 1.66667 34.9896 1.65104C34.9427 1.64583 34.8021 1.64583 34.5625 1.64583H34.1146V2.36979ZM33.5312 4.02604V1.15625H34.7552C35.0573 1.15625 35.2813 1.18229 35.4219 1.23437C35.5625 1.28646 35.6719 1.38021 35.7552 1.51042C35.8385 1.64062 35.8802 1.79167 35.8802 1.96354C35.8802 2.17708 35.8177 2.35417 35.6927 2.49479C35.5625 2.63542 35.375 2.72396 35.125 2.76042C35.25 2.83333 35.3542 2.91667 35.4323 3C35.5156 3.08854 35.625 3.24479 35.7656 3.46875L36.1146 4.02604H35.4219L35.0052 3.40625C34.8542 3.18229 34.75 3.04167 34.6979 2.97917C34.6406 2.92187 34.5833 2.88542 34.5208 2.86458C34.4583 2.83854 34.3646 2.82812 34.2292 2.82812H34.1146V4.02604" fill="white"/>
<path d="M95.099 14.5417L93.3542 15.2344C93.2552 15.2708 93.1875 15.3698 93.1875 15.474C93.1875 16.5625 92.6979 17.4271 91.7031 18.0625C91.6563 18.0885 91.4479 18.1771 91.0469 18.3385C91.0156 18.3438 90.9844 18.3542 90.9531 18.3698C90.5417 18.5313 89.9479 18.7552 89.1198 19.0625C88.5313 19.276 88.0261 19.6615 87.6563 20.1719L86.6042 21.6354C86.4896 21.7865 86.3229 21.8854 86.1302 21.9167C85.9427 21.9427 85.7552 21.8958 85.599 21.7812C85.4427 21.6615 85.349 21.4948 85.3177 21.3073C85.2917 21.1146 85.3386 20.9271 85.4531 20.7708L87.2656 18.3646C87.3333 18.276 87.3333 18.1563 87.2708 18.0625C86.7396 17.2969 86.9063 16.4844 86.9115 16.4792C86.9323 16.3906 86.9011 16.2917 86.8281 16.2292C86.7604 16.1719 86.6615 16.151 86.5729 16.1823L85.6615 16.5C85.4115 16.5885 85.2031 16.7552 85.0573 17L84.7604 17.6198C84.6458 17.8594 84.5781 18.1146 84.5677 18.3802L84.5417 18.8646L83.6875 19.7031L83.2396 19C83.1302 18.8073 83.1146 18.5729 83.1979 18.3698L84.3906 15.5C84.5469 15.1094 84.8646 14.8021 85.2552 14.6458L92.3021 11.901H95.099V14.5417ZM90.8906 21.1771C90.8906 21.3438 90.8281 21.5 90.7136 21.6198C90.5938 21.7396 90.4375 21.8073 90.2188 21.8073C89.8802 21.8073 89.6042 21.5365 89.599 21.1979L89.5469 19.4531C90.0938 19.25 90.5156 19.0938 90.8438 18.9688L90.8906 21.1771ZM87.9844 20.599L88.0729 20.474C88.3281 20.125 88.6563 19.849 89.0365 19.6615L89.0833 21.2083C89.0886 21.4115 89.1511 21.5938 89.2448 21.7552L87.9844 20.599ZM86.1875 18.9479L85.4688 18.2917C85.3698 18.1979 85.2136 18.2031 85.1146 18.2969L85.0938 18.3177C85.1146 18.151 85.1511 17.9948 85.224 17.8438L85.5052 17.2448C85.5833 17.125 85.6979 17.0313 85.8281 16.9844L86.3698 16.7969C86.3646 17.1458 86.4323 17.6667 86.7448 18.1979L86.1875 18.9479ZM92.6042 25.2031L93.1458 24.6615V27.5521H90.2448L90.7917 27.0104C90.8386 26.9635 90.8698 26.8958 90.8646 26.8229C90.8646 26.7552 90.8333 26.6875 90.7813 26.6406L86.9792 23.1458C86.9011 23.0781 86.7917 23.0573 86.7031 23.099C86.6042 23.1406 86.5469 23.2292 86.5469 23.3333V28.4427C86.5469 28.5885 86.6615 28.7031 86.8021 28.7031H87.5729L85.5261 30.7448L83.474 28.7031H84.2396C84.3854 28.7031 84.5 28.5885 84.5 28.4427V23.1094C84.5 23.0052 84.4375 22.9115 84.3438 22.8698C84.2448 22.8333 84.1354 22.8542 84.0625 22.9271L80.2865 26.6458C80.2344 26.6927 80.2083 26.7604 80.2083 26.8281C80.2083 26.8958 80.2344 26.9635 80.2813 27.0104L80.8281 27.5521H77.9323L77.9271 24.6615L78.4688 25.2031C78.5729 25.3021 78.7344 25.3073 78.8333 25.2031L84.9479 19.1875C84.9583 19.1771 84.9688 19.1667 84.9792 19.151L85.3021 18.8333L85.875 19.3594L85.0417 20.4635C84.8438 20.7292 84.7604 21.0521 84.8073 21.375C84.8542 21.7031 85.0261 21.9896 85.2917 22.1875C85.5052 22.349 85.7656 22.4375 86.0261 22.4375C86.0886 22.4375 86.1458 22.4323 86.2083 22.4219C86.5313 22.375 86.8229 22.2031 87.0208 21.9375L87.6823 21.0208L92.2448 25.2083C92.349 25.3073 92.5052 25.3021 92.6042 25.2031ZM95.3542 11.3906H92.2552C92.224 11.3906 92.1927 11.3958 92.1615 11.4063L85.0677 14.1719C84.5469 14.3698 84.125 14.7865 83.9115 15.3021L82.7188 18.1719C82.5781 18.5208 82.6042 18.9271 82.7969 19.2604L83.3125 20.0729L78.6563 24.6615L77.8542 23.8594C77.7813 23.7865 77.6667 23.7656 77.5729 23.8073C77.4792 23.8438 77.4115 23.9375 77.4115 24.0417L77.4167 27.8125C77.4167 27.9531 77.5313 28.0677 77.6719 28.0677H81.4479C81.5521 28.0677 81.6458 28.0052 81.6875 27.9062C81.724 27.8125 81.7031 27.6979 81.6302 27.625L80.8281 26.8281L83.9844 23.724V28.1875H82.8542C82.75 28.1875 82.6563 28.25 82.6146 28.3438C82.5781 28.4427 82.599 28.5521 82.6719 28.625L85.3386 31.2917C85.3906 31.3385 85.4531 31.3646 85.5261 31.3646C85.5938 31.3646 85.6563 31.3385 85.7031 31.2917L88.375 28.625C88.4479 28.5521 88.4688 28.4427 88.4323 28.3438C88.3906 28.25 88.2969 28.1875 88.1927 28.1875H87.0625V23.9167L90.2344 26.8385L89.4427 27.625C89.3698 27.6979 89.349 27.8125 89.3906 27.9062C89.4271 28.0052 89.5208 28.0677 89.625 28.0677H93.4011C93.5417 28.0677 93.6563 27.9531 93.6563 27.8125L93.6615 24.0417C93.6615 23.9375 93.599 23.8438 93.5 23.8073C93.4063 23.7656 93.2969 23.7865 93.2188 23.8594L92.4115 24.6667L89.7136 22.1875C89.8802 22.2708 90.0625 22.3177 90.2708 22.3177C90.5729 22.3177 90.8646 22.1979 91.0781 21.9792C91.2917 21.7604 91.4063 21.474 91.4011 21.1667L91.3542 18.7656C91.875 18.5625 91.9583 18.5104 92.0052 18.4792C93.3177 17.6406 93.6615 16.5104 93.6979 15.651L95.4479 14.9583C95.5469 14.9167 95.6146 14.8229 95.6146 14.7188V11.6458C95.6146 11.5052 95.5 11.3906 95.3542 11.3906Z" fill="white"/>
<path d="M76.8542 7.70313C76.8542 7.10938 76.5938 6.81251 76.0677 6.81251H75.7604V8.60938H76.0104C76.5729 8.60938 76.8542 8.3073 76.8542 7.70313ZM77.4635 7.68751C77.4635 8.14063 77.3333 8.48438 77.0729 8.72917C76.8125 8.96876 76.4427 9.08855 75.9531 9.08855H75.1719V6.33855H76.0417C76.4896 6.33855 76.8385 6.45834 77.0885 6.69271C77.3385 6.9323 77.4635 7.26042 77.4635 7.68751Z" fill="white"/>
<path d="M78.526 6.11979V6.06771C78.7396 5.81771 78.8854 5.625 78.9635 5.5H79.6094V5.53646C79.5469 5.60417 79.4323 5.70313 79.276 5.83333C79.1198 5.95833 78.9948 6.05729 78.9062 6.11979H78.526ZM79.6562 9.08854H78.0729V6.33854H79.6562V6.8125H78.6562V7.42187H79.5885V7.89583H78.6562V8.60937H79.6562" fill="white"/>
<path d="M81.4427 6.78125C81.2239 6.78125 81.0521 6.86458 80.9323 7.03125C80.8125 7.19792 80.75 7.42708 80.75 7.71875C80.75 8.33333 80.9792 8.64063 81.4427 8.64063C81.6354 8.64063 81.8698 8.59375 82.1458 8.49479V8.98438C81.9219 9.07813 81.6667 9.125 81.3906 9.125C80.9844 9.125 80.6823 9.00521 80.4687 8.76042C80.2552 8.52083 80.151 8.17188 80.151 7.71875C80.151 7.43229 80.2031 7.18229 80.3073 6.96354C80.4114 6.75 80.5625 6.58333 80.7552 6.46875C80.9531 6.35417 81.1823 6.29688 81.4427 6.29688C81.7083 6.29688 81.9792 6.36458 82.25 6.48958L82.0625 6.96354C81.9583 6.91667 81.8542 6.875 81.75 6.83854C81.6458 6.80208 81.5417 6.78125 81.4427 6.78125Z" fill="white"/>
<path d="M85.0313 9.08855H84.4479V7.90105H83.3542V9.08855H82.7708V6.33855H83.3542V7.41667H84.4479V6.33855H85.0313" fill="white"/>
<path d="M86.6146 6.11979C86.5365 6.0625 86.4167 5.97396 86.2656 5.84896C86.1094 5.72396 85.9896 5.625 85.9062 5.53646V5.5H86.5469C86.6302 5.625 86.776 5.81771 86.9896 6.06771V6.11979H86.6146ZM87.349 9.08854H85.7656V6.33854H87.349V6.8125H86.349V7.42187H87.2812V7.89583H86.349V8.60937H87.349" fill="white"/>
<path d="M89.0261 9.08855H88.4427V6.82292H87.6927V6.33855H89.7761V6.82292H89.0261" fill="white"/>
<path d="M91.8281 9.08855H90.2396V6.33855H91.8281V6.81771H90.8229V7.42188H91.7552V7.89584H90.8229V8.60938H91.8281" fill="white"/>
<path d="M93.0261 7.5573H93.2136C93.3958 7.5573 93.5365 7.52605 93.625 7.46876C93.7083 7.40626 93.7552 7.3073 93.7552 7.17709C93.7552 7.04688 93.7083 6.95313 93.6198 6.90105C93.5313 6.84376 93.3906 6.81771 93.2031 6.81771H93.0261V7.5573ZM93.0261 8.03126V9.08855H92.4427V6.33855H93.2448C93.6198 6.33855 93.8958 6.40626 94.0729 6.54167C94.2552 6.67709 94.3438 6.88542 94.3438 7.16146C94.3438 7.32292 94.3021 7.46876 94.2136 7.59376C94.125 7.71876 93.9948 7.81771 93.8333 7.89063C94.2448 8.51042 94.5156 8.90626 94.6406 9.08855H93.9948L93.3333 8.03126" fill="white"/>
<path d="M95.0312 9.08855H95.6146V6.33855H95.0312V9.08855Z" fill="white"/>
<path d="M97.9323 9.08855H96.3438V6.33855H97.9323V6.81771H96.9271V7.42188H97.8646V7.89584H96.9271V8.60938H97.9323" fill="white"/>
<path d="M35.0947 17.0093C34.9499 17.0093 34.8213 17.0378 34.709 17.0947C34.5983 17.1501 34.5047 17.2306 34.4282 17.3364C34.3534 17.4422 34.2964 17.57 34.2573 17.7197C34.2183 17.8695 34.1987 18.0379 34.1987 18.2251C34.1987 18.4774 34.2297 18.693 34.2915 18.8721C34.355 19.0495 34.4526 19.1854 34.5845 19.2798C34.7163 19.3726 34.8864 19.4189 35.0947 19.4189C35.2396 19.4189 35.3844 19.4027 35.5293 19.3701C35.6758 19.3376 35.8345 19.2912 36.0054 19.231V19.8657C35.8475 19.9308 35.6921 19.9772 35.5391 20.0049C35.3861 20.0342 35.2144 20.0488 35.0239 20.0488C34.6561 20.0488 34.3534 19.9731 34.1157 19.8218C33.8797 19.6688 33.7048 19.4556 33.5908 19.1821C33.4769 18.9071 33.4199 18.5864 33.4199 18.2202C33.4199 17.95 33.4565 17.7026 33.5298 17.478C33.603 17.2534 33.7104 17.0589 33.8521 16.8945C33.9937 16.7301 34.1686 16.6032 34.377 16.5137C34.5853 16.4242 34.8245 16.3794 35.0947 16.3794C35.2721 16.3794 35.4495 16.4022 35.627 16.4478C35.806 16.4917 35.9769 16.5527 36.1396 16.6309L35.8955 17.2461C35.762 17.1826 35.6278 17.1273 35.4927 17.0801C35.3576 17.0329 35.2249 17.0093 35.0947 17.0093ZM38.8228 20H36.7671V16.4307H38.8228V17.0508H37.5239V17.8345H38.7324V18.4546H37.5239V19.375H38.8228V20ZM42.0088 16.4307C42.4694 16.4307 42.8055 16.5299 43.0171 16.7285C43.2287 16.9255 43.3345 17.1973 43.3345 17.5439C43.3345 17.7002 43.3109 17.8499 43.2637 17.9932C43.2165 18.1348 43.1392 18.2609 43.0317 18.3716C42.9259 18.4823 42.7843 18.5701 42.6069 18.6353C42.4295 18.6987 42.2106 18.7305 41.9502 18.7305H41.6255V20H40.8687V16.4307H42.0088ZM41.9697 17.0508H41.6255V18.1104H41.8745C42.0161 18.1104 42.139 18.0916 42.2432 18.0542C42.3473 18.0168 42.4279 17.9582 42.4849 17.8784C42.5418 17.7987 42.5703 17.6961 42.5703 17.5708C42.5703 17.395 42.5215 17.2648 42.4238 17.1802C42.3262 17.0939 42.1748 17.0508 41.9697 17.0508ZM45.0483 16.4307C45.3722 16.4307 45.6392 16.4697 45.8491 16.5479C46.0607 16.626 46.2178 16.744 46.3203 16.9019C46.4229 17.0597 46.4741 17.2591 46.4741 17.5C46.4741 17.6628 46.4432 17.8052 46.3813 17.9272C46.3195 18.0493 46.2381 18.1527 46.1372 18.2373C46.0363 18.3219 45.9272 18.3911 45.8101 18.4448L46.8599 20H46.02L45.168 18.6304H44.7651V20H44.0083V16.4307H45.0483ZM44.9946 17.0508H44.7651V18.0151H45.0093C45.2599 18.0151 45.439 17.9736 45.5464 17.8906C45.6554 17.806 45.71 17.6823 45.71 17.5195C45.71 17.3503 45.6514 17.2298 45.5342 17.1582C45.4186 17.0866 45.2388 17.0508 44.9946 17.0508ZM50.5488 18.2104C50.5488 18.4855 50.5146 18.7362 50.4463 18.9624C50.3779 19.187 50.2738 19.3807 50.1338 19.5435C49.9954 19.7062 49.8197 19.8315 49.6064 19.9194C49.3932 20.0057 49.141 20.0488 48.8496 20.0488C48.5583 20.0488 48.306 20.0057 48.0928 19.9194C47.8796 19.8315 47.703 19.7062 47.563 19.5435C47.4246 19.3807 47.3213 19.1862 47.2529 18.96C47.1846 18.7337 47.1504 18.4823 47.1504 18.2056C47.1504 17.8361 47.2106 17.5146 47.3311 17.2412C47.4531 16.9661 47.6403 16.7529 47.8926 16.6016C48.1449 16.4502 48.4655 16.3745 48.8545 16.3745C49.2419 16.3745 49.5601 16.4502 49.8091 16.6016C50.0597 16.7529 50.2453 16.9661 50.3657 17.2412C50.4878 17.5163 50.5488 17.8394 50.5488 18.2104ZM47.9438 18.2104C47.9438 18.4595 47.9748 18.6743 48.0366 18.855C48.1001 19.034 48.1986 19.1724 48.332 19.27C48.4655 19.366 48.638 19.4141 48.8496 19.4141C49.0645 19.4141 49.2386 19.366 49.3721 19.27C49.5055 19.1724 49.6024 19.034 49.6626 18.855C49.7244 18.6743 49.7554 18.4595 49.7554 18.2104C49.7554 17.8361 49.6854 17.5415 49.5454 17.3267C49.4054 17.1118 49.1751 17.0044 48.8545 17.0044C48.6413 17.0044 48.4671 17.0532 48.332 17.1509C48.1986 17.2469 48.1001 17.3853 48.0366 17.5659C47.9748 17.745 47.9438 17.9598 47.9438 18.2104ZM54.25 18.1812C54.25 18.5832 54.1727 18.9193 54.0181 19.1895C53.8651 19.458 53.6429 19.6606 53.3516 19.7974C53.0602 19.9325 52.7095 20 52.2993 20H51.2886V16.4307H52.4092C52.7835 16.4307 53.1082 16.4974 53.3833 16.6309C53.6584 16.7627 53.8716 16.9588 54.0229 17.2192C54.1743 17.478 54.25 17.7987 54.25 18.1812ZM53.4639 18.2007C53.4639 17.937 53.4248 17.7205 53.3467 17.5513C53.2702 17.3804 53.1562 17.2542 53.0049 17.1729C52.8551 17.0915 52.6696 17.0508 52.4482 17.0508H52.0454V19.375H52.3701C52.7396 19.375 53.0138 19.2765 53.1929 19.0796C53.3735 18.8826 53.4639 18.5897 53.4639 18.2007ZM57.895 16.4307V18.7402C57.895 18.986 57.8405 19.2082 57.7314 19.4067C57.624 19.6037 57.4604 19.7599 57.2407 19.8755C57.0226 19.991 56.7476 20.0488 56.4155 20.0488C55.9435 20.0488 55.5838 19.9284 55.3364 19.6875C55.089 19.4466 54.9653 19.1276 54.9653 18.7305V16.4307H55.7197V18.6157C55.7197 18.9103 55.7799 19.117 55.9004 19.2358C56.0208 19.3547 56.1991 19.4141 56.4351 19.4141C56.6011 19.4141 56.7354 19.3856 56.8379 19.3286C56.9421 19.2716 57.0186 19.1838 57.0674 19.0649C57.1162 18.9461 57.1406 18.7948 57.1406 18.6108V16.4307H57.895ZM58.769 20V16.4307H59.5259V20H58.769ZM61.8013 20H61.0444V17.0605H60.0752V16.4307H62.7705V17.0605H61.8013V20Z" fill="black"/>
</g>
<defs>
<clipPath id="clip0_46_2">
<rect width="106" height="35" fill="white"/>
</clipPath>
</defs>
</svg>
