<svg width="250" height="61" viewBox="0 0 250 61" fill="none" xmlns="http://www.w3.org/2000/svg">
<g clip-path="url(#clip0_66_3279)">
<path d="M24.6979 60.4688C11.0781 60.4688 0 49.5208 0 36.0625V0H224.948C238.563 0 249.641 10.9479 249.641 24.4062V60.4688" fill="white"/>
<path d="M222.083 52.9114H69.1353C59.6874 52.9114 51.9999 45.3541 51.9999 36.0625V7.55725H204.948C214.396 7.55725 222.083 15.1145 222.083 24.4062V52.9114ZM204.948 5.66663H50.1145V36.0625C50.1145 46.3958 58.6458 54.802 69.1353 54.802H223.969V24.4062C223.969 14.0729 215.437 5.66663 204.948 5.66663Z" fill="#6B5B4A"/>
<path d="M186.714 54.802L199.724 28.2239L186.432 5.66663H224.948C235.437 5.66663 243.969 14.0729 243.969 24.4062V54.802" fill="#6B5B4A"/>
<path d="M102.901 5.66663H50.1145V36.0625C50.1145 46.3958 58.6458 54.802 69.1353 54.802H121.927V24.4062C121.927 14.0729 113.391 5.66663 102.901 5.66663Z" fill="#6B5B4A"/>
<path d="M63.651 29.3594C58.8489 29.3594 54.9583 33.25 54.9583 38.0521C54.9583 42.8542 58.8489 46.7448 63.651 46.7448C68.4583 46.7448 72.3489 42.8542 72.3489 38.0521C72.3489 33.25 68.4583 29.3594 63.651 29.3594Z" fill="white"/>
<path d="M69.3229 39.4688H65.0729V43.7188H62.2344V39.4688H57.9844V36.6355H62.2344V32.3802H65.0729V36.6355H69.3229" fill="#1C1C1B"/>
<path d="M55.7864 26.5937V17.1979H58.2708V24.5156H61.828V26.5937" fill="white"/>
<path d="M62.9426 26.5937V17.1979H69.0155V19.276H65.4322V20.7552H68.4947V22.8385H65.4322V24.5156H69.1614V26.5937" fill="white"/>
<path d="M75.0885 26.5937V19.276H72.6041V17.1979H80.0677V19.276H77.5781V26.5937" fill="white"/>
<path d="M83.5521 21.4739H84.4479C85.4479 21.4739 85.9531 21.0625 85.9531 20.2343C85.9531 19.8281 85.8229 19.5468 85.5677 19.3958C85.3125 19.2395 84.9375 19.1614 84.4479 19.1614H83.5521V21.4739ZM81.0625 26.5989V17.1979H84.6198C85.125 17.1979 85.6042 17.2448 86.0625 17.3385C86.5208 17.4375 86.9167 17.5989 87.2604 17.8333C87.6042 18.0625 87.875 18.375 88.0781 18.7656C88.2813 19.1562 88.3802 19.6458 88.3802 20.2343C88.3802 20.9062 88.2448 21.4687 87.9688 21.9114C87.6979 22.3541 87.3281 22.6979 86.8646 22.9531L88.901 26.5989H86.125L84.5052 23.4427H83.5521V26.5989" fill="white"/>
<path d="M89.8698 26.5989H92.3593V17.1979H89.8698V26.5989Z" fill="white"/>
<path d="M75.3801 43.276V33.8698H81.5103V35.9531H77.8697V37.75H80.9895V39.8333H77.8697V43.276" fill="white"/>
<path d="M84.9218 38.7031L84.7604 39.3541H86.4948L86.3385 38.7031C86.2239 38.25 86.1041 37.7604 85.9895 37.2291C85.875 36.6979 85.7604 36.1979 85.6406 35.7239H85.5833C85.4791 36.2031 85.3698 36.7083 85.2604 37.2343C85.151 37.7604 85.0364 38.25 84.9218 38.7031ZM81.3073 43.276L84.1666 33.8698H87.1718L90.0364 43.276H87.4062L86.9427 41.276H84.3125L83.8489 43.276" fill="white"/>
<path d="M94.5624 43.4479C93.9687 43.4479 93.3958 43.3489 92.8541 43.151C92.3072 42.9531 91.8333 42.651 91.4218 42.2552C91.0103 41.8541 90.6822 41.3541 90.4426 40.75C90.203 40.1458 90.0833 39.4479 90.0833 38.6458C90.0833 37.8541 90.2083 37.151 90.4583 36.5416C90.7083 35.927 91.0416 35.4114 91.4635 34.9948C91.8801 34.5729 92.3645 34.25 92.9114 34.0312C93.4583 33.8073 94.026 33.6979 94.6249 33.6979C95.2499 33.6979 95.8124 33.8229 96.302 34.0677C96.7968 34.3125 97.2083 34.6041 97.5468 34.9427L96.2447 36.5312C96.0155 36.3333 95.776 36.1666 95.5312 36.0312C95.2812 35.9062 94.9999 35.8385 94.6822 35.8385C94.401 35.8385 94.1405 35.901 93.8958 36.026C93.651 36.151 93.4322 36.3333 93.2447 36.5625C93.0572 36.7916 92.9062 37.0781 92.7968 37.4166C92.6822 37.75 92.6301 38.1354 92.6301 38.5573C92.6301 39.4479 92.8124 40.125 93.1874 40.5989C93.5572 41.0677 94.0468 41.3073 94.651 41.3073C95.0208 41.3073 95.3437 41.2291 95.6301 41.0677C95.9114 40.9062 96.1562 40.7187 96.3593 40.4948L97.6614 42.0573C97.2551 42.5208 96.7916 42.8698 96.2655 43.0989C95.7395 43.3333 95.1718 43.4479 94.5624 43.4479Z" fill="white"/>
<path d="M98.6198 43.276H101.104V33.8698H98.6198V43.276Z" fill="white"/>
<path d="M102.875 43.276V33.8698H105.365V41.1927H108.922V43.276" fill="white"/>
<path d="M110.031 43.276V33.8698H116.109V35.9531H112.521V37.4323H115.589V39.5156H112.521V41.1927H116.255V43.276" fill="white"/>
<path d="M28.4062 25.7448C26.7135 28.2343 28.151 31.5104 29.8958 33.1718C31.4895 34.6823 32.7655 35.0364 32.9322 35.0781L33.7447 33.5208L36.0885 39.9323L29.4635 41.2812L30.3437 39.6458L29.4478 39.1458C26.6562 37.3281 26.0676 34.8593 25.8749 34.0885C25.5416 32.7604 25.0468 28.7864 28.4062 25.7448Z" fill="#6B5B4A"/>
<path d="M28.375 25.8489C29.5781 28.6093 33.1146 29.1406 35.4479 28.552C37.5208 28.026 38.5052 27.1718 38.6719 27.0156L38.6615 27L37.776 25.4635L44.4427 26.9218L42.0313 33.2395L41.1354 31.6458L40.2656 32.1198C37.2396 33.5104 34.8333 32.6927 34.0781 32.4427C32.7813 32.0156 29.1562 30.3125 28.375 25.8489Z" fill="#6B5B4A"/>
<path d="M40.1613 19.1927C39.6978 22.4895 37.7134 24.0729 37.0936 24.5729C36.0311 25.4375 32.6457 27.5677 28.4634 25.8177C31.4373 26.2916 33.7967 23.6041 34.5571 21.3177C35.2446 19.2656 35.0415 17.9687 34.9998 17.7708L34.979 17.7656L33.2134 17.6927L38.0259 12.8541L42.0519 18.2864L40.2342 18.1823" fill="#6B5B4A"/>
<path fill-rule="evenodd" clip-rule="evenodd" d="M19.9375 16.4115C18.4167 16.4115 17.1875 15.1823 17.1875 13.6563C17.1875 12.1354 18.4167 10.9062 19.9375 10.9062C21.4583 10.9062 22.6927 12.1354 22.6927 13.6563C22.6927 15.1823 21.4583 16.4115 19.9375 16.4115Z" fill="#6B5B4A"/>
<path d="M15.6771 29.7968C15.9115 29.151 16.2604 29.1927 16.2604 29.1927C16.2604 29.1927 16.5781 29.125 16.7552 29.7708L19.3281 38.8073C17.1823 38.1823 15.224 37.1198 13.5573 35.7083L15.6771 29.7968ZM23.7031 5.66663C13.7604 5.66663 5.67188 13.7552 5.67188 23.6979C5.67188 33.6406 13.7604 41.7291 23.7031 41.7291C24.2344 41.7291 24.7552 41.6979 25.276 41.651L25.3958 43.4635L28.6979 40.2708L25.0052 37.4531L25.1458 39.3541C24.6719 39.401 24.1875 39.4323 23.7031 39.4323C22.9375 39.4323 22.1875 39.375 21.4531 39.2656L21.3802 38.7864L19.6667 24.1875C19.4323 21.4323 21.0052 20.9948 21.9792 21.4062L27.4479 23.6041C28.0729 23.875 28.375 23.3489 28.375 23.3489C28.375 23.3489 28.7292 22.802 28.0938 22.3958C28.0938 22.3958 20.6406 17.4583 19.0521 17.1562C16.8854 16.7552 14.7396 18.5104 14.2656 20.7968L11.6198 33.7604C9.34375 31.0312 7.96875 27.5208 7.96875 23.6979C7.96875 15.0208 15.026 7.9635 23.7031 7.9635C28.3385 7.9635 32.5104 9.97913 35.3906 13.177L37.0052 11.5364C33.7083 7.93225 28.9635 5.66663 23.7031 5.66663Z" fill="#6B5B4A"/>
<path fill-rule="evenodd" clip-rule="evenodd" d="M215.184 13.5477C212.848 13.829 210.995 15.7189 210.697 18.1033L210.693 18.1036L210.569 18.8693C210.562 18.8856 210.558 18.9007 210.558 18.914C210.554 18.9403 210.549 18.9665 210.545 18.9927C210.517 19.164 210.489 19.3314 210.515 19.5044L210.513 21.0954C207.452 24.2948 206.633 27.1159 207.139 29.2647C207.309 29.9622 207.62 30.6156 208.051 31.1832C208.482 31.7508 209.024 32.2202 209.642 32.5614C209.922 32.7258 210.213 32.8682 210.513 32.9874L210.511 34.7847L210.513 34.8477C210.49 35.4096 210.562 35.9713 210.728 36.5076C210.955 37.0944 211.311 37.6198 211.769 38.0432C212.048 38.3281 212.352 38.5852 212.679 38.8111C213.03 39.056 213.399 39.2719 213.783 39.4567C215.887 40.4919 218.644 41.0038 221.334 41C224.024 40.9962 226.734 40.4594 228.81 39.4032C229.316 39.1492 229.791 38.8357 230.226 38.4692C230.646 38.115 231.01 37.6961 231.304 37.2276C231.888 36.2837 231.886 35.9049 231.883 35.0104L231.882 35.0005L231.886 20.0602C231.956 19.8477 231.995 19.6255 232 19.4012C232 19.1676 231.963 18.942 231.893 18.7249C231.348 16.0509 229.424 14.0935 226.857 13.6116C225.861 11.4138 223.535 10 221.006 10C218.502 10 216.195 11.3865 215.184 13.5477ZM221.245 22.4255C217.72 22.4255 214.58 21.643 212.551 20.4235C212.188 19.5805 212.237 18.5859 212.269 18.2929C212.501 16.5087 213.988 15.1323 215.789 15.1323C215.966 15.1323 216.14 15.1455 216.309 15.1711C216.711 13.1523 218.661 11.6207 221.006 11.6207C223.336 11.6207 225.276 13.1331 225.695 15.1331C225.723 15.1326 225.75 15.1323 225.778 15.1323C228.041 15.1323 230.03 16.9544 230.478 19.3712C230.47 19.8542 230.363 20.1051 230.276 20.2103C228.268 21.5511 224.971 22.4255 221.245 22.4255ZM208.668 28.8903C208.352 27.5052 208.811 25.6874 210.508 23.5283L210.506 31.2072L210.426 31.1594C209.996 30.9258 209.618 30.6036 209.315 30.2131C209.013 29.8226 208.793 29.3722 208.668 28.8903ZM230.224 21.9951C229.664 22.3566 229.068 22.6569 228.447 22.8909C226.551 23.6243 223.985 24.0942 221.196 24.0961C218.758 24.1265 216.334 23.6966 214.048 22.8278C213.386 22.5663 212.756 22.2272 212.17 21.8174L212.168 31.7898C212.702 31.8871 213.246 31.9179 213.787 31.8814C216.341 31.7229 219.114 30.128 220.476 26.6441C220.556 26.4477 220.709 26.2916 220.901 26.2096C221.093 26.1276 221.309 26.1262 221.502 26.2057C221.694 26.2853 221.849 26.4394 221.932 26.6348C222.015 26.8301 222.019 27.051 221.944 27.2496C220.321 31.3982 216.973 33.3025 213.876 33.505C213.304 33.5419 212.729 33.5188 212.16 33.4362L212.168 34.8458C212.149 35.212 212.187 35.579 212.282 35.9326C212.432 36.2819 212.655 36.5935 212.934 36.8456C213.143 37.0558 213.369 37.2457 213.612 37.4129C213.893 37.6103 214.188 37.7852 214.496 37.9363C216.369 38.8569 218.836 39.3249 221.323 39.3077C223.809 39.2905 226.236 38.834 228.073 37.8885C228.463 37.694 228.83 37.4543 229.167 37.1742C229.454 36.9324 229.703 36.6463 229.905 36.3261C230.166 35.9455 230.281 35.4797 230.228 35.0177C230.227 35.0076 230.227 34.9649 230.227 34.918C230.227 34.8501 230.226 34.7732 230.224 34.7732L230.224 21.9951Z" fill="white"/>
<path d="M209.562 50.9442C209.054 50.9442 208.665 50.7996 208.395 50.5102C208.132 50.2209 208 49.8126 208 49.2853V45.6589C208 45.1317 208.132 44.7234 208.395 44.434C208.665 44.1447 209.054 44 209.562 44C210.07 44 210.456 44.1447 210.72 44.434C210.99 44.7234 211.125 45.1317 211.125 45.6589V46.3726H210.122V45.5914C210.122 45.1734 209.945 44.9645 209.591 44.9645C209.238 44.9645 209.061 45.1734 209.061 45.5914V49.3625C209.061 49.774 209.238 49.9798 209.591 49.9798C209.945 49.9798 210.122 49.774 210.122 49.3625V48.3305H211.125V49.2853C211.125 49.8126 210.99 50.2209 210.72 50.5102C210.456 50.7996 210.07 50.9442 209.562 50.9442Z" fill="white"/>
<path d="M213.312 50.9442C212.791 50.9442 212.393 50.7963 212.116 50.5006C211.84 50.2048 211.701 49.7869 211.701 49.2468V45.6975C211.701 45.1574 211.84 44.7394 212.116 44.4437C212.393 44.1479 212.791 44 213.312 44C213.833 44 214.231 44.1479 214.508 44.4437C214.784 44.7394 214.923 45.1574 214.923 45.6975V49.2468C214.923 49.7869 214.784 50.2048 214.508 50.5006C214.231 50.7963 213.833 50.9442 213.312 50.9442ZM213.312 49.9798C213.679 49.9798 213.862 49.7579 213.862 49.3143V45.63C213.862 45.1863 213.679 44.9645 213.312 44.9645C212.946 44.9645 212.762 45.1863 212.762 45.63V49.3143C212.762 49.7579 212.946 49.9798 213.312 49.9798Z" fill="white"/>
<path d="M215.64 44.0964H217.154L217.83 48.9285H217.849L218.524 44.0964H220.038V50.8478H219.035V45.7361H219.016L218.244 50.8478H217.357L216.585 45.7361H216.566V50.8478H215.64V44.0964Z" fill="white"/>
<path d="M220.83 44.0964H222.392C222.92 44.0964 223.315 44.2379 223.579 44.5208C223.842 44.8037 223.974 45.2185 223.974 45.765V46.4305C223.974 46.977 223.842 47.3917 223.579 47.6747C223.315 47.9576 222.92 48.099 222.392 48.099H221.891V50.8478H220.83V44.0964ZM222.392 47.1345C222.566 47.1345 222.695 47.0863 222.778 46.9899C222.868 46.8934 222.913 46.7295 222.913 46.498V45.6975C222.913 45.466 222.868 45.302 222.778 45.2056C222.695 45.1091 222.566 45.0609 222.392 45.0609H221.891V47.1345H222.392Z" fill="white"/>
<path d="M226.084 50.9442C225.563 50.9442 225.164 50.7963 224.888 50.5006C224.611 50.2048 224.473 49.7869 224.473 49.2468V45.6975C224.473 45.1574 224.611 44.7394 224.888 44.4437C225.164 44.1479 225.563 44 226.084 44C226.605 44 227.003 44.1479 227.28 44.4437C227.556 44.7394 227.694 45.1574 227.694 45.6975V49.2468C227.694 49.7869 227.556 50.2048 227.28 50.5006C227.003 50.7963 226.605 50.9442 226.084 50.9442ZM226.084 49.9798C226.45 49.9798 226.634 49.7579 226.634 49.3143V45.63C226.634 45.1863 226.45 44.9645 226.084 44.9645C225.717 44.9645 225.534 45.1863 225.534 45.63V49.3143C225.534 49.7579 225.717 49.9798 226.084 49.9798Z" fill="white"/>
<path d="M229.791 50.9442C229.277 50.9442 228.888 50.7996 228.624 50.5102C228.361 50.2144 228.229 49.7933 228.229 49.2468V48.861H229.232V49.3239C229.232 49.7611 229.415 49.9798 229.782 49.9798C229.962 49.9798 230.097 49.9283 230.187 49.8254C230.283 49.7161 230.331 49.5425 230.331 49.3046C230.331 49.0217 230.267 48.7742 230.138 48.562C230.01 48.3434 229.772 48.083 229.425 47.7807C228.987 47.395 228.682 47.0477 228.508 46.7391C228.335 46.4241 228.248 46.0704 228.248 45.6782C228.248 45.1445 228.383 44.733 228.653 44.4437C228.923 44.1479 229.315 44 229.83 44C230.338 44 230.72 44.1479 230.977 44.4437C231.241 44.733 231.373 45.1509 231.373 45.6975V45.9772H230.37V45.63C230.37 45.3985 230.325 45.2313 230.235 45.1284C230.145 45.0191 230.013 44.9645 229.839 44.9645C229.486 44.9645 229.309 45.1799 229.309 45.6107C229.309 45.855 229.373 46.0833 229.502 46.2955C229.637 46.5076 229.878 46.7648 230.225 47.067C230.669 47.4528 230.974 47.8033 231.141 48.1183C231.309 48.4334 231.392 48.8031 231.392 49.2275C231.392 49.7804 231.254 50.2048 230.977 50.5006C230.707 50.7963 230.312 50.9442 229.791 50.9442Z" fill="white"/>
<path d="M232.83 45.0609H231.721V44.0964H235V45.0609H233.891V50.8478H232.83V45.0609Z" fill="white"/>
<path d="M133.26 21.324C133.26 20.7 133.184 20.248 133.032 19.968C132.888 19.68 132.62 19.536 132.228 19.536C132.012 19.536 131.832 19.596 131.688 19.716C131.552 19.828 131.444 20.016 131.364 20.28C131.284 20.536 131.228 20.876 131.196 21.3C131.164 21.716 131.148 22.228 131.148 22.836C131.148 23.484 131.168 24.008 131.208 24.408C131.256 24.808 131.324 25.12 131.412 25.344C131.508 25.56 131.624 25.708 131.76 25.788C131.904 25.86 132.068 25.896 132.252 25.896C132.404 25.896 132.544 25.872 132.672 25.824C132.808 25.768 132.924 25.664 133.02 25.512C133.116 25.352 133.192 25.132 133.248 24.852C133.304 24.564 133.332 24.188 133.332 23.724H135.06C135.06 24.188 135.024 24.628 134.952 25.044C134.88 25.46 134.744 25.824 134.544 26.136C134.352 26.448 134.076 26.692 133.716 26.868C133.364 27.044 132.904 27.132 132.336 27.132C131.688 27.132 131.172 27.028 130.788 26.82C130.404 26.612 130.108 26.312 129.9 25.92C129.7 25.528 129.568 25.06 129.504 24.516C129.448 23.972 129.42 23.372 129.42 22.716C129.42 22.068 129.448 21.472 129.504 20.928C129.568 20.376 129.7 19.904 129.9 19.512C130.108 19.12 130.404 18.816 130.788 18.6C131.172 18.376 131.688 18.264 132.336 18.264C132.952 18.264 133.436 18.364 133.788 18.564C134.148 18.764 134.416 19.02 134.592 19.332C134.768 19.636 134.876 19.968 134.916 20.328C134.964 20.68 134.988 21.012 134.988 21.324H133.26ZM137.593 22.716C137.593 23.292 137.605 23.784 137.629 24.192C137.661 24.592 137.717 24.92 137.797 25.176C137.885 25.424 138.005 25.608 138.157 25.728C138.317 25.84 138.525 25.896 138.781 25.896C139.037 25.896 139.241 25.84 139.393 25.728C139.553 25.608 139.673 25.424 139.753 25.176C139.841 24.92 139.897 24.592 139.921 24.192C139.953 23.784 139.969 23.292 139.969 22.716C139.969 22.14 139.953 21.652 139.921 21.252C139.897 20.852 139.841 20.524 139.753 20.268C139.673 20.012 139.553 19.828 139.393 19.716C139.241 19.596 139.037 19.536 138.781 19.536C138.525 19.536 138.317 19.596 138.157 19.716C138.005 19.828 137.885 20.012 137.797 20.268C137.717 20.524 137.661 20.852 137.629 21.252C137.605 21.652 137.593 22.14 137.593 22.716ZM135.865 22.716C135.865 22.068 135.893 21.472 135.949 20.928C136.013 20.376 136.145 19.904 136.345 19.512C136.553 19.12 136.849 18.816 137.233 18.6C137.617 18.376 138.133 18.264 138.781 18.264C139.429 18.264 139.945 18.376 140.329 18.6C140.713 18.816 141.005 19.12 141.205 19.512C141.413 19.904 141.545 20.376 141.601 20.928C141.665 21.472 141.697 22.068 141.697 22.716C141.697 23.372 141.665 23.972 141.601 24.516C141.545 25.06 141.413 25.528 141.205 25.92C141.005 26.312 140.713 26.612 140.329 26.82C139.945 27.028 139.429 27.132 138.781 27.132C138.133 27.132 137.617 27.028 137.233 26.82C136.849 26.612 136.553 26.312 136.345 25.92C136.145 25.528 136.013 25.06 135.949 24.516C135.893 23.972 135.865 23.372 135.865 22.716ZM144.261 22.716C144.261 23.292 144.273 23.784 144.297 24.192C144.329 24.592 144.385 24.92 144.465 25.176C144.553 25.424 144.673 25.608 144.825 25.728C144.985 25.84 145.193 25.896 145.449 25.896C145.705 25.896 145.909 25.84 146.061 25.728C146.221 25.608 146.341 25.424 146.421 25.176C146.509 24.92 146.565 24.592 146.589 24.192C146.621 23.784 146.637 23.292 146.637 22.716C146.637 22.14 146.621 21.652 146.589 21.252C146.565 20.852 146.509 20.524 146.421 20.268C146.341 20.012 146.221 19.828 146.061 19.716C145.909 19.596 145.705 19.536 145.449 19.536C145.193 19.536 144.985 19.596 144.825 19.716C144.673 19.828 144.553 20.012 144.465 20.268C144.385 20.524 144.329 20.852 144.297 21.252C144.273 21.652 144.261 22.14 144.261 22.716ZM147.609 28.02L146.589 27C146.269 27.088 145.889 27.132 145.449 27.132C144.801 27.132 144.285 27.028 143.901 26.82C143.517 26.612 143.221 26.312 143.013 25.92C142.813 25.528 142.681 25.06 142.617 24.516C142.561 23.972 142.533 23.372 142.533 22.716C142.533 22.068 142.561 21.472 142.617 20.928C142.681 20.376 142.813 19.904 143.013 19.512C143.221 19.12 143.517 18.816 143.901 18.6C144.285 18.376 144.801 18.264 145.449 18.264C146.097 18.264 146.613 18.376 146.997 18.6C147.381 18.816 147.673 19.12 147.873 19.512C148.081 19.904 148.213 20.376 148.269 20.928C148.333 21.472 148.365 22.068 148.365 22.716C148.365 23.444 148.325 24.104 148.245 24.696C148.165 25.288 147.985 25.788 147.705 26.196L148.629 27.096L147.609 28.02ZM151.001 18.432V24.408C151.001 24.624 151.013 24.824 151.037 25.008C151.069 25.184 151.121 25.34 151.193 25.476C151.273 25.604 151.377 25.708 151.505 25.788C151.641 25.86 151.809 25.896 152.009 25.896C152.217 25.896 152.385 25.86 152.513 25.788C152.641 25.708 152.741 25.604 152.813 25.476C152.893 25.34 152.945 25.184 152.969 25.008C153.001 24.824 153.017 24.624 153.017 24.408V18.432H154.745V24.408C154.745 24.952 154.669 25.404 154.517 25.764C154.365 26.116 154.161 26.396 153.905 26.604C153.649 26.812 153.357 26.952 153.029 27.024C152.701 27.096 152.361 27.132 152.009 27.132C151.657 27.132 151.317 27.1 150.989 27.036C150.661 26.972 150.369 26.844 150.113 26.652C149.857 26.452 149.653 26.172 149.501 25.812C149.349 25.452 149.273 24.984 149.273 24.408V18.432H151.001ZM155.922 27V18.432H157.65V27H155.922ZM158.932 27V18.432H160.66V25.584H163.72V27H158.932ZM164.487 27V18.432H166.215V25.584H169.275V27H164.487ZM174.829 18.432V19.848H171.769V21.864H174.649V23.28H171.769V25.584H174.949V27H170.041V18.432H174.829ZM177.211 24.324V24.576C177.211 24.776 177.227 24.96 177.259 25.128C177.291 25.288 177.351 25.424 177.439 25.536C177.527 25.648 177.643 25.736 177.787 25.8C177.939 25.864 178.127 25.896 178.351 25.896C178.615 25.896 178.851 25.812 179.059 25.644C179.275 25.468 179.383 25.2 179.383 24.84C179.383 24.648 179.355 24.484 179.299 24.348C179.251 24.204 179.167 24.076 179.047 23.964C178.927 23.852 178.767 23.752 178.567 23.664C178.375 23.568 178.135 23.472 177.847 23.376C177.463 23.248 177.131 23.108 176.851 22.956C176.571 22.804 176.335 22.628 176.143 22.428C175.959 22.22 175.823 21.984 175.735 21.72C175.647 21.448 175.603 21.136 175.603 20.784C175.603 19.936 175.839 19.304 176.311 18.888C176.783 18.472 177.431 18.264 178.255 18.264C178.639 18.264 178.991 18.308 179.311 18.396C179.639 18.476 179.919 18.612 180.151 18.804C180.391 18.988 180.575 19.228 180.703 19.524C180.839 19.812 180.907 20.16 180.907 20.568V20.808H179.251C179.251 20.4 179.179 20.088 179.035 19.872C178.891 19.648 178.651 19.536 178.315 19.536C178.123 19.536 177.963 19.564 177.835 19.62C177.707 19.676 177.603 19.752 177.523 19.848C177.451 19.936 177.399 20.04 177.367 20.16C177.343 20.28 177.331 20.404 177.331 20.532C177.331 20.796 177.387 21.02 177.499 21.204C177.611 21.38 177.851 21.544 178.219 21.696L179.551 22.272C179.879 22.416 180.147 22.568 180.355 22.728C180.563 22.88 180.727 23.048 180.847 23.232C180.975 23.408 181.063 23.604 181.111 23.82C181.159 24.036 181.183 24.276 181.183 24.54C181.183 25.444 180.919 26.104 180.391 26.52C179.871 26.928 179.143 27.132 178.207 27.132C177.231 27.132 176.531 26.92 176.107 26.496C175.691 26.072 175.483 25.464 175.483 24.672V24.324H177.211ZM131.412 40.728H132.18C132.484 40.728 132.728 40.676 132.912 40.572C133.096 40.468 133.24 40.296 133.344 40.056C133.456 39.816 133.528 39.5 133.56 39.108C133.6 38.716 133.62 38.228 133.62 37.644C133.62 37.156 133.604 36.728 133.572 36.36C133.54 35.992 133.472 35.688 133.368 35.448C133.272 35.2 133.124 35.016 132.924 34.896C132.732 34.768 132.472 34.704 132.144 34.704H131.412V40.728ZM129.684 33.432H132.516C133.116 33.432 133.6 33.532 133.968 33.732C134.336 33.924 134.62 34.204 134.82 34.572C135.028 34.932 135.168 35.368 135.24 35.88C135.312 36.392 135.348 36.964 135.348 37.596C135.348 38.348 135.3 39.004 135.204 39.564C135.116 40.116 134.96 40.572 134.736 40.932C134.512 41.292 134.212 41.56 133.836 41.736C133.46 41.912 132.984 42 132.408 42H129.684V33.432ZM136.707 33.432H138.195V37.284H136.707V33.432ZM141.156 37.716C141.156 38.292 141.168 38.784 141.192 39.192C141.224 39.592 141.28 39.92 141.36 40.176C141.448 40.424 141.568 40.608 141.72 40.728C141.88 40.84 142.088 40.896 142.344 40.896C142.6 40.896 142.804 40.84 142.956 40.728C143.116 40.608 143.236 40.424 143.316 40.176C143.404 39.92 143.46 39.592 143.484 39.192C143.516 38.784 143.532 38.292 143.532 37.716C143.532 37.14 143.516 36.652 143.484 36.252C143.46 35.852 143.404 35.524 143.316 35.268C143.236 35.012 143.116 34.828 142.956 34.716C142.804 34.596 142.6 34.536 142.344 34.536C142.088 34.536 141.88 34.596 141.72 34.716C141.568 34.828 141.448 35.012 141.36 35.268C141.28 35.524 141.224 35.852 141.192 36.252C141.168 36.652 141.156 37.14 141.156 37.716ZM139.428 37.716C139.428 37.068 139.456 36.472 139.512 35.928C139.576 35.376 139.708 34.904 139.908 34.512C140.116 34.12 140.412 33.816 140.796 33.6C141.18 33.376 141.696 33.264 142.344 33.264C142.992 33.264 143.508 33.376 143.892 33.6C144.276 33.816 144.568 34.12 144.768 34.512C144.976 34.904 145.108 35.376 145.164 35.928C145.228 36.472 145.26 37.068 145.26 37.716C145.26 38.372 145.228 38.972 145.164 39.516C145.108 40.06 144.976 40.528 144.768 40.92C144.568 41.312 144.276 41.612 143.892 41.82C143.508 42.028 142.992 42.132 142.344 42.132C141.696 42.132 141.18 42.028 140.796 41.82C140.412 41.612 140.116 41.312 139.908 40.92C139.708 40.528 139.576 40.06 139.512 39.516C139.456 38.972 139.428 38.372 139.428 37.716ZM151.064 33.432V34.848H148.004V36.864H150.884V38.28H148.004V40.584H151.184V42H146.276V33.432H151.064ZM153.673 33.432V39.408C153.673 39.624 153.685 39.824 153.709 40.008C153.741 40.184 153.793 40.34 153.865 40.476C153.945 40.604 154.049 40.708 154.177 40.788C154.313 40.86 154.481 40.896 154.681 40.896C154.889 40.896 155.057 40.86 155.185 40.788C155.313 40.708 155.413 40.604 155.485 40.476C155.565 40.34 155.617 40.184 155.641 40.008C155.673 39.824 155.689 39.624 155.689 39.408V33.432H157.417V39.408C157.417 39.952 157.341 40.404 157.189 40.764C157.037 41.116 156.833 41.396 156.577 41.604C156.321 41.812 156.029 41.952 155.701 42.024C155.373 42.096 155.033 42.132 154.681 42.132C154.329 42.132 153.989 42.1 153.661 42.036C153.333 41.972 153.041 41.844 152.785 41.652C152.529 41.452 152.325 41.172 152.173 40.812C152.021 40.452 151.945 39.984 151.945 39.408V33.432H153.673ZM158.51 33.432H163.298V34.848H160.238V36.864H163.118V38.28H160.238V42H158.51V33.432ZM165.457 39.324V39.576C165.457 39.776 165.473 39.96 165.505 40.128C165.537 40.288 165.597 40.424 165.685 40.536C165.773 40.648 165.889 40.736 166.033 40.8C166.185 40.864 166.373 40.896 166.597 40.896C166.861 40.896 167.097 40.812 167.305 40.644C167.521 40.468 167.629 40.2 167.629 39.84C167.629 39.648 167.601 39.484 167.545 39.348C167.497 39.204 167.413 39.076 167.293 38.964C167.173 38.852 167.013 38.752 166.813 38.664C166.621 38.568 166.381 38.472 166.093 38.376C165.709 38.248 165.377 38.108 165.097 37.956C164.817 37.804 164.581 37.628 164.389 37.428C164.205 37.22 164.069 36.984 163.981 36.72C163.893 36.448 163.849 36.136 163.849 35.784C163.849 34.936 164.085 34.304 164.557 33.888C165.029 33.472 165.677 33.264 166.501 33.264C166.885 33.264 167.237 33.308 167.557 33.396C167.885 33.476 168.165 33.612 168.397 33.804C168.637 33.988 168.821 34.228 168.949 34.524C169.085 34.812 169.153 35.16 169.153 35.568V35.808H167.497C167.497 35.4 167.425 35.088 167.281 34.872C167.137 34.648 166.897 34.536 166.561 34.536C166.369 34.536 166.209 34.564 166.081 34.62C165.953 34.676 165.849 34.752 165.769 34.848C165.697 34.936 165.645 35.04 165.613 35.16C165.589 35.28 165.577 35.404 165.577 35.532C165.577 35.796 165.633 36.02 165.745 36.204C165.857 36.38 166.097 36.544 166.465 36.696L167.797 37.272C168.125 37.416 168.393 37.568 168.601 37.728C168.809 37.88 168.973 38.048 169.093 38.232C169.221 38.408 169.309 38.604 169.357 38.82C169.405 39.036 169.429 39.276 169.429 39.54C169.429 40.444 169.165 41.104 168.637 41.52C168.117 41.928 167.389 42.132 166.453 42.132C165.477 42.132 164.777 41.92 164.353 41.496C163.937 41.072 163.729 40.464 163.729 39.672V39.324H165.457Z" fill="black"/>
</g>
<defs>
<clipPath id="clip0_66_3279">
<rect width="250" height="61" fill="white"/>
</clipPath>
</defs>
</svg>
