<svg width="332" height="61" viewBox="0 0 332 61" fill="none" xmlns="http://www.w3.org/2000/svg">
<g clip-path="url(#clip0_66_3180)">
<path d="M24.6979 60.4688C11.0781 60.4688 0 49.5208 0 36.0625V0H306.948C320.563 0 331.641 10.9479 331.641 24.4062V60.4688" fill="white"/>
<path d="M244.083 52.9114H69.1353C59.6874 52.9114 51.9999 45.3541 51.9999 36.0625V7.55725H226.948C236.396 7.55725 244.083 15.1145 244.083 24.4062V52.9114ZM227 6L50.1667 5.66663L50.1145 36.0625C50.1145 46.3958 58.6458 54.802 69.1353 54.802L245.969 55V24.4062C245.969 14.0729 237.49 6 227 6Z" fill="#010101"/>
<path d="M102.901 5.66663H50.1145V36.0625C50.1145 46.3958 58.6458 54.802 69.1353 54.802H121.927V24.4062C121.927 14.0729 113.391 5.66663 102.901 5.66663Z" fill="#010101"/>
<path d="M63.651 29.3594C58.8489 29.3594 54.9583 33.25 54.9583 38.0521C54.9583 42.8542 58.8489 46.7448 63.651 46.7448C68.4583 46.7448 72.3489 42.8542 72.3489 38.0521C72.3489 33.25 68.4583 29.3594 63.651 29.3594Z" fill="white"/>
<path d="M69.3229 39.4688H65.0729V43.7188H62.2344V39.4688H57.9844V36.6355H62.2344V32.3802H65.0729V36.6355H69.3229" fill="#1C1C1B"/>
<path d="M55.7864 26.5937V17.1979H58.2708V24.5156H61.828V26.5937" fill="white"/>
<path d="M62.9426 26.5937V17.1979H69.0155V19.276H65.4322V20.7552H68.4947V22.8385H65.4322V24.5156H69.1614V26.5937" fill="white"/>
<path d="M75.0885 26.5937V19.276H72.6041V17.1979H80.0677V19.276H77.5781V26.5937" fill="white"/>
<path d="M83.5521 21.4739H84.4479C85.4479 21.4739 85.9531 21.0625 85.9531 20.2343C85.9531 19.8281 85.8229 19.5468 85.5677 19.3958C85.3125 19.2395 84.9375 19.1614 84.4479 19.1614H83.5521V21.4739ZM81.0625 26.5989V17.1979H84.6198C85.125 17.1979 85.6042 17.2448 86.0625 17.3385C86.5208 17.4375 86.9167 17.5989 87.2604 17.8333C87.6042 18.0625 87.875 18.375 88.0781 18.7656C88.2813 19.1562 88.3802 19.6458 88.3802 20.2343C88.3802 20.9062 88.2448 21.4687 87.9688 21.9114C87.6979 22.3541 87.3281 22.6979 86.8646 22.9531L88.901 26.5989H86.125L84.5052 23.4427H83.5521V26.5989" fill="white"/>
<path d="M89.8698 26.5989H92.3593V17.1979H89.8698V26.5989Z" fill="white"/>
<path d="M75.3801 43.276V33.8698H81.5103V35.9531H77.8697V37.75H80.9895V39.8333H77.8697V43.276" fill="white"/>
<path d="M84.9218 38.7031L84.7604 39.3541H86.4948L86.3385 38.7031C86.2239 38.25 86.1041 37.7604 85.9895 37.2291C85.875 36.6979 85.7604 36.1979 85.6406 35.7239H85.5833C85.4791 36.2031 85.3698 36.7083 85.2604 37.2343C85.151 37.7604 85.0364 38.25 84.9218 38.7031ZM81.3073 43.276L84.1666 33.8698H87.1718L90.0364 43.276H87.4062L86.9427 41.276H84.3125L83.8489 43.276" fill="white"/>
<path d="M94.5624 43.4479C93.9687 43.4479 93.3958 43.3489 92.8541 43.151C92.3072 42.9531 91.8333 42.651 91.4218 42.2552C91.0103 41.8541 90.6822 41.3541 90.4426 40.75C90.203 40.1458 90.0833 39.4479 90.0833 38.6458C90.0833 37.8541 90.2083 37.151 90.4583 36.5416C90.7083 35.927 91.0416 35.4114 91.4635 34.9948C91.8801 34.5729 92.3645 34.25 92.9114 34.0312C93.4583 33.8073 94.026 33.6979 94.6249 33.6979C95.2499 33.6979 95.8124 33.8229 96.302 34.0677C96.7968 34.3125 97.2083 34.6041 97.5468 34.9427L96.2447 36.5312C96.0155 36.3333 95.776 36.1666 95.5312 36.0312C95.2812 35.9062 94.9999 35.8385 94.6822 35.8385C94.401 35.8385 94.1405 35.901 93.8958 36.026C93.651 36.151 93.4322 36.3333 93.2447 36.5625C93.0572 36.7916 92.9062 37.0781 92.7968 37.4166C92.6822 37.75 92.6301 38.1354 92.6301 38.5573C92.6301 39.4479 92.8124 40.125 93.1874 40.5989C93.5572 41.0677 94.0468 41.3073 94.651 41.3073C95.0208 41.3073 95.3437 41.2291 95.6301 41.0677C95.9114 40.9062 96.1562 40.7187 96.3593 40.4948L97.6614 42.0573C97.2551 42.5208 96.7916 42.8698 96.2655 43.0989C95.7395 43.3333 95.1718 43.4479 94.5624 43.4479Z" fill="white"/>
<path d="M98.6198 43.276H101.104V33.8698H98.6198V43.276Z" fill="white"/>
<path d="M102.875 43.276V33.8698H105.365V41.1927H108.922V43.276" fill="white"/>
<path d="M110.031 43.276V33.8698H116.109V35.9531H112.521V37.4323H115.589V39.5156H112.521V41.1927H116.255V43.276" fill="white"/>
<path fill-rule="evenodd" clip-rule="evenodd" d="M16.2604 29.1927C16.2604 29.1927 15.9115 29.151 15.6771 29.7968L13.5573 35.7083C15.224 37.1198 17.1823 38.1823 19.3281 38.8073L16.7552 29.7708C16.5781 29.125 16.2604 29.1927 16.2604 29.1927ZM5.67188 23.6979C5.67188 13.7552 13.7604 5.66663 23.7031 5.66663C28.9635 5.66663 33.7083 7.93225 37.0052 11.5364L35.3906 13.177C32.5104 9.97913 28.3385 7.9635 23.7031 7.9635C15.026 7.9635 7.96875 15.0208 7.96875 23.6979C7.96875 27.5208 9.34375 31.0312 11.6198 33.7604L14.2656 20.7968C14.7396 18.5104 16.8854 16.7552 19.0521 17.1562C20.6406 17.4583 28.0938 22.3958 28.0938 22.3958C28.7292 22.802 28.375 23.3489 28.375 23.3489C28.375 23.3489 28.0729 23.875 27.4479 23.6041L21.9792 21.4062C21.0052 20.9948 19.4323 21.4323 19.6667 24.1875L21.3802 38.7864L21.4531 39.2656C22.1875 39.375 22.9375 39.4323 23.7031 39.4323C24.1875 39.4323 24.6719 39.401 25.1458 39.3541L25.0052 37.4531L28.6979 40.2708L25.3958 43.4635L25.276 41.651C24.7552 41.6979 24.2344 41.7291 23.7031 41.7291C13.7604 41.7291 5.67188 33.6406 5.67188 23.6979ZM19.9375 16.4115C18.4167 16.4115 17.1875 15.1823 17.1875 13.6562C17.1875 12.1354 18.4167 10.9062 19.9375 10.9062C21.4583 10.9062 22.6927 12.1354 22.6927 13.6562C22.6927 15.1823 21.4583 16.4115 19.9375 16.4115ZM37.1046 24.564C37.7365 24.0543 39.7005 22.4703 40.1613 19.1927L40.2342 18.1823L42.0519 18.2864L38.0259 12.8541L33.2134 17.6927L34.979 17.7656L34.9998 17.7708C35.0415 17.9687 35.2446 19.2656 34.5571 21.3177C33.7967 23.6041 31.4373 26.2916 28.4634 25.8177C32.6457 27.5677 36.0311 25.4375 37.0936 24.5729L37.1046 24.564ZM28.375 25.8489C29.5781 28.6093 33.1146 29.1406 35.4479 28.552C37.5208 28.026 38.5052 27.1718 38.6719 27.0156L38.6615 27L37.776 25.4635L44.4427 26.9218L42.0312 33.2395L41.1354 31.6458L40.2656 32.1198C37.2654 33.4985 34.8744 32.7065 34.0978 32.4492L34.0781 32.4427C32.7812 32.0156 29.1562 30.3125 28.375 25.8489ZM28.4062 25.7448C26.7135 28.2343 28.151 31.5104 29.8958 33.1718C31.4895 34.6823 32.7655 35.0364 32.9322 35.0781L33.7447 33.5208L36.0885 39.9323L29.4635 41.2812L30.3437 39.6458L29.4478 39.1458C26.6887 37.3493 26.0817 34.9168 25.8818 34.1162L25.8749 34.0885C25.5416 32.7604 25.0468 28.7864 28.4062 25.7448Z" fill="#010101"/>
<path d="M133.26 21.324C133.26 20.7 133.184 20.248 133.032 19.968C132.888 19.68 132.62 19.536 132.228 19.536C132.012 19.536 131.832 19.596 131.688 19.716C131.552 19.828 131.444 20.016 131.364 20.28C131.284 20.536 131.228 20.876 131.196 21.3C131.164 21.716 131.148 22.228 131.148 22.836C131.148 23.484 131.168 24.008 131.208 24.408C131.256 24.808 131.324 25.12 131.412 25.344C131.508 25.56 131.624 25.708 131.76 25.788C131.904 25.86 132.068 25.896 132.252 25.896C132.404 25.896 132.544 25.872 132.672 25.824C132.808 25.768 132.924 25.664 133.02 25.512C133.116 25.352 133.192 25.132 133.248 24.852C133.304 24.564 133.332 24.188 133.332 23.724H135.06C135.06 24.188 135.024 24.628 134.952 25.044C134.88 25.46 134.744 25.824 134.544 26.136C134.352 26.448 134.076 26.692 133.716 26.868C133.364 27.044 132.904 27.132 132.336 27.132C131.688 27.132 131.172 27.028 130.788 26.82C130.404 26.612 130.108 26.312 129.9 25.92C129.7 25.528 129.568 25.06 129.504 24.516C129.448 23.972 129.42 23.372 129.42 22.716C129.42 22.068 129.448 21.472 129.504 20.928C129.568 20.376 129.7 19.904 129.9 19.512C130.108 19.12 130.404 18.816 130.788 18.6C131.172 18.376 131.688 18.264 132.336 18.264C132.952 18.264 133.436 18.364 133.788 18.564C134.148 18.764 134.416 19.02 134.592 19.332C134.768 19.636 134.876 19.968 134.916 20.328C134.964 20.68 134.988 21.012 134.988 21.324H133.26ZM137.593 22.716C137.593 23.292 137.605 23.784 137.629 24.192C137.661 24.592 137.717 24.92 137.797 25.176C137.885 25.424 138.005 25.608 138.157 25.728C138.317 25.84 138.525 25.896 138.781 25.896C139.037 25.896 139.241 25.84 139.393 25.728C139.553 25.608 139.673 25.424 139.753 25.176C139.841 24.92 139.897 24.592 139.921 24.192C139.953 23.784 139.969 23.292 139.969 22.716C139.969 22.14 139.953 21.652 139.921 21.252C139.897 20.852 139.841 20.524 139.753 20.268C139.673 20.012 139.553 19.828 139.393 19.716C139.241 19.596 139.037 19.536 138.781 19.536C138.525 19.536 138.317 19.596 138.157 19.716C138.005 19.828 137.885 20.012 137.797 20.268C137.717 20.524 137.661 20.852 137.629 21.252C137.605 21.652 137.593 22.14 137.593 22.716ZM135.865 22.716C135.865 22.068 135.893 21.472 135.949 20.928C136.013 20.376 136.145 19.904 136.345 19.512C136.553 19.12 136.849 18.816 137.233 18.6C137.617 18.376 138.133 18.264 138.781 18.264C139.429 18.264 139.945 18.376 140.329 18.6C140.713 18.816 141.005 19.12 141.205 19.512C141.413 19.904 141.545 20.376 141.601 20.928C141.665 21.472 141.697 22.068 141.697 22.716C141.697 23.372 141.665 23.972 141.601 24.516C141.545 25.06 141.413 25.528 141.205 25.92C141.005 26.312 140.713 26.612 140.329 26.82C139.945 27.028 139.429 27.132 138.781 27.132C138.133 27.132 137.617 27.028 137.233 26.82C136.849 26.612 136.553 26.312 136.345 25.92C136.145 25.528 136.013 25.06 135.949 24.516C135.893 23.972 135.865 23.372 135.865 22.716ZM142.713 27V18.432H144.441V25.584H147.501V27H142.713ZM148.268 27V18.432H149.996V25.584H153.056V27H148.268ZM158.611 18.432V19.848H155.551V21.864H158.431V23.28H155.551V25.584H158.731V27H153.823V18.432H158.611ZM164.211 25.728H164.883C165.299 25.728 165.635 25.636 165.891 25.452C166.147 25.268 166.275 24.928 166.275 24.432C166.275 24.184 166.239 23.98 166.167 23.82C166.103 23.652 166.011 23.52 165.891 23.424C165.779 23.32 165.643 23.248 165.483 23.208C165.323 23.168 165.147 23.148 164.955 23.148H164.211V25.728ZM164.211 21.948H164.703C165.183 21.948 165.531 21.864 165.747 21.696C165.971 21.52 166.083 21.228 166.083 20.82C166.083 20.412 165.983 20.124 165.783 19.956C165.583 19.788 165.267 19.704 164.835 19.704H164.211V21.948ZM162.483 18.432H165.375C165.727 18.432 166.051 18.468 166.347 18.54C166.651 18.612 166.911 18.732 167.127 18.9C167.343 19.068 167.511 19.292 167.631 19.572C167.751 19.852 167.811 20.196 167.811 20.604C167.811 21.068 167.703 21.468 167.487 21.804C167.271 22.132 166.947 22.356 166.515 22.476V22.5C166.995 22.564 167.375 22.768 167.655 23.112C167.935 23.456 168.075 23.916 168.075 24.492C168.075 24.828 168.031 25.148 167.943 25.452C167.855 25.756 167.703 26.024 167.487 26.256C167.279 26.48 167.003 26.66 166.659 26.796C166.323 26.932 165.903 27 165.399 27H162.483V18.432ZM169.151 27V18.432H170.879V25.584H173.939V27H169.151ZM178.281 23.772L177.453 19.92H177.429L176.601 23.772H178.281ZM178.509 18.432L180.777 27H178.977L178.581 25.188H176.301L175.905 27H174.105L176.373 18.432H178.509ZM183.365 18.432L185.453 24.3H185.477V18.432H187.061V27H185.093L182.981 21H182.957V27H181.373V18.432H183.365ZM191.924 21.324C191.924 20.7 191.848 20.248 191.696 19.968C191.552 19.68 191.284 19.536 190.892 19.536C190.676 19.536 190.496 19.596 190.352 19.716C190.216 19.828 190.108 20.016 190.028 20.28C189.948 20.536 189.892 20.876 189.86 21.3C189.828 21.716 189.812 22.228 189.812 22.836C189.812 23.484 189.832 24.008 189.872 24.408C189.92 24.808 189.988 25.12 190.076 25.344C190.172 25.56 190.288 25.708 190.424 25.788C190.568 25.86 190.732 25.896 190.916 25.896C191.068 25.896 191.208 25.872 191.336 25.824C191.472 25.768 191.588 25.664 191.684 25.512C191.78 25.352 191.856 25.132 191.912 24.852C191.968 24.564 191.996 24.188 191.996 23.724H193.724C193.724 24.188 193.688 24.628 193.616 25.044C193.544 25.46 193.408 25.824 193.208 26.136C193.016 26.448 192.74 26.692 192.38 26.868C192.028 27.044 191.568 27.132 191 27.132C190.352 27.132 189.836 27.028 189.452 26.82C189.068 26.612 188.772 26.312 188.564 25.92C188.364 25.528 188.232 25.06 188.168 24.516C188.112 23.972 188.084 23.372 188.084 22.716C188.084 22.068 188.112 21.472 188.168 20.928C188.232 20.376 188.364 19.904 188.564 19.512C188.772 19.12 189.068 18.816 189.452 18.6C189.836 18.376 190.352 18.264 191 18.264C191.616 18.264 192.1 18.364 192.452 18.564C192.812 18.764 193.08 19.02 193.256 19.332C193.432 19.636 193.54 19.968 193.58 20.328C193.628 20.68 193.652 21.012 193.652 21.324H191.924ZM194.709 18.432H196.437V21.708H198.453V18.432H200.181V27H198.453V23.196H196.437V27H194.709V18.432ZM206.165 18.432V19.848H203.105V21.864H205.985V23.28H203.105V25.584H206.285V27H201.377V18.432H206.165ZM132.552 33.432C132.304 33.888 132.092 34.332 131.916 34.764C131.74 35.188 131.596 35.616 131.484 36.048C131.38 36.48 131.304 36.924 131.256 37.38C131.208 37.828 131.184 38.308 131.184 38.82C131.184 39.332 131.208 39.816 131.256 40.272C131.304 40.72 131.38 41.156 131.484 41.58C131.596 41.996 131.74 42.416 131.916 42.84C132.092 43.272 132.304 43.716 132.552 44.172H131.28C130.68 43.228 130.248 42.312 129.984 41.424C129.728 40.536 129.6 39.668 129.6 38.82C129.6 37.972 129.728 37.1 129.984 36.204C130.248 35.3 130.68 34.376 131.28 33.432H132.552ZM134.543 39.324V39.576C134.543 39.776 134.559 39.96 134.591 40.128C134.623 40.288 134.683 40.424 134.771 40.536C134.859 40.648 134.975 40.736 135.119 40.8C135.271 40.864 135.459 40.896 135.683 40.896C135.947 40.896 136.183 40.812 136.391 40.644C136.607 40.468 136.715 40.2 136.715 39.84C136.715 39.648 136.687 39.484 136.631 39.348C136.583 39.204 136.499 39.076 136.379 38.964C136.259 38.852 136.099 38.752 135.899 38.664C135.707 38.568 135.467 38.472 135.179 38.376C134.795 38.248 134.463 38.108 134.183 37.956C133.903 37.804 133.667 37.628 133.475 37.428C133.291 37.22 133.155 36.984 133.067 36.72C132.979 36.448 132.935 36.136 132.935 35.784C132.935 34.936 133.171 34.304 133.643 33.888C134.115 33.472 134.763 33.264 135.587 33.264C135.971 33.264 136.323 33.308 136.643 33.396C136.971 33.476 137.251 33.612 137.483 33.804C137.723 33.988 137.907 34.228 138.035 34.524C138.171 34.812 138.239 35.16 138.239 35.568V35.808H136.583C136.583 35.4 136.511 35.088 136.367 34.872C136.223 34.648 135.983 34.536 135.647 34.536C135.455 34.536 135.295 34.564 135.167 34.62C135.039 34.676 134.935 34.752 134.855 34.848C134.783 34.936 134.731 35.04 134.699 35.16C134.675 35.28 134.663 35.404 134.663 35.532C134.663 35.796 134.719 36.02 134.831 36.204C134.943 36.38 135.183 36.544 135.551 36.696L136.883 37.272C137.211 37.416 137.479 37.568 137.687 37.728C137.895 37.88 138.059 38.048 138.179 38.232C138.307 38.408 138.395 38.604 138.443 38.82C138.491 39.036 138.515 39.276 138.515 39.54C138.515 40.444 138.251 41.104 137.723 41.52C137.203 41.928 136.475 42.132 135.539 42.132C134.563 42.132 133.863 41.92 133.439 41.496C133.023 41.072 132.815 40.464 132.815 39.672V39.324H134.543ZM144.389 33.432V34.848H142.517V42H140.789V34.848H138.917V33.432H144.389ZM145.223 42V33.432H146.951V42H145.223ZM151.893 36.324C151.893 35.7 151.817 35.248 151.665 34.968C151.521 34.68 151.253 34.536 150.861 34.536C150.645 34.536 150.465 34.596 150.321 34.716C150.185 34.828 150.077 35.016 149.997 35.28C149.917 35.536 149.861 35.876 149.829 36.3C149.797 36.716 149.781 37.228 149.781 37.836C149.781 38.484 149.801 39.008 149.841 39.408C149.889 39.808 149.957 40.12 150.045 40.344C150.141 40.56 150.257 40.708 150.393 40.788C150.537 40.86 150.701 40.896 150.885 40.896C151.037 40.896 151.177 40.872 151.305 40.824C151.441 40.768 151.557 40.664 151.653 40.512C151.749 40.352 151.825 40.132 151.881 39.852C151.937 39.564 151.965 39.188 151.965 38.724H153.693C153.693 39.188 153.657 39.628 153.585 40.044C153.513 40.46 153.377 40.824 153.177 41.136C152.985 41.448 152.709 41.692 152.349 41.868C151.997 42.044 151.537 42.132 150.969 42.132C150.321 42.132 149.805 42.028 149.421 41.82C149.037 41.612 148.741 41.312 148.533 40.92C148.333 40.528 148.201 40.06 148.137 39.516C148.081 38.972 148.053 38.372 148.053 37.716C148.053 37.068 148.081 36.472 148.137 35.928C148.201 35.376 148.333 34.904 148.533 34.512C148.741 34.12 149.037 33.816 149.421 33.6C149.805 33.376 150.321 33.264 150.969 33.264C151.585 33.264 152.069 33.364 152.421 33.564C152.781 33.764 153.049 34.02 153.225 34.332C153.401 34.636 153.509 34.968 153.549 35.328C153.597 35.68 153.621 36.012 153.621 36.324H151.893ZM156.406 33.432V36.864H156.43L158.614 33.432H160.486L158.158 37.104L160.75 42H158.806L157.042 38.484L156.406 39.456V42H154.678V33.432H156.406ZM165.554 37.716C165.554 38.292 165.566 38.784 165.59 39.192C165.622 39.592 165.678 39.92 165.758 40.176C165.846 40.424 165.966 40.608 166.118 40.728C166.278 40.84 166.486 40.896 166.742 40.896C166.998 40.896 167.202 40.84 167.354 40.728C167.514 40.608 167.634 40.424 167.714 40.176C167.802 39.92 167.858 39.592 167.882 39.192C167.914 38.784 167.93 38.292 167.93 37.716C167.93 37.14 167.914 36.652 167.882 36.252C167.858 35.852 167.802 35.524 167.714 35.268C167.634 35.012 167.514 34.828 167.354 34.716C167.202 34.596 166.998 34.536 166.742 34.536C166.486 34.536 166.278 34.596 166.118 34.716C165.966 34.828 165.846 35.012 165.758 35.268C165.678 35.524 165.622 35.852 165.59 36.252C165.566 36.652 165.554 37.14 165.554 37.716ZM163.826 37.716C163.826 37.068 163.854 36.472 163.91 35.928C163.974 35.376 164.106 34.904 164.306 34.512C164.514 34.12 164.81 33.816 165.194 33.6C165.578 33.376 166.094 33.264 166.742 33.264C167.39 33.264 167.906 33.376 168.29 33.6C168.674 33.816 168.966 34.12 169.166 34.512C169.374 34.904 169.506 35.376 169.562 35.928C169.626 36.472 169.658 37.068 169.658 37.716C169.658 38.372 169.626 38.972 169.562 39.516C169.506 40.06 169.374 40.528 169.166 40.92C168.966 41.312 168.674 41.612 168.29 41.82C167.906 42.028 167.39 42.132 166.742 42.132C166.094 42.132 165.578 42.028 165.194 41.82C164.81 41.612 164.514 41.312 164.306 40.92C164.106 40.528 163.974 40.06 163.91 39.516C163.854 38.972 163.826 38.372 163.826 37.716ZM172.294 33.432V39.408C172.294 39.624 172.306 39.824 172.33 40.008C172.362 40.184 172.414 40.34 172.486 40.476C172.566 40.604 172.67 40.708 172.798 40.788C172.934 40.86 173.102 40.896 173.302 40.896C173.51 40.896 173.678 40.86 173.806 40.788C173.934 40.708 174.034 40.604 174.106 40.476C174.186 40.34 174.238 40.184 174.262 40.008C174.294 39.824 174.31 39.624 174.31 39.408V33.432H176.038V39.408C176.038 39.952 175.962 40.404 175.81 40.764C175.658 41.116 175.454 41.396 175.198 41.604C174.942 41.812 174.65 41.952 174.322 42.024C173.994 42.096 173.654 42.132 173.302 42.132C172.95 42.132 172.61 42.1 172.282 42.036C171.954 41.972 171.662 41.844 171.406 41.652C171.15 41.452 170.946 41.172 170.794 40.812C170.642 40.452 170.566 39.984 170.566 39.408V33.432H172.294ZM181.742 37.308H182.51C182.854 37.308 183.13 37.204 183.338 36.996C183.554 36.788 183.662 36.464 183.662 36.024C183.662 35.592 183.57 35.264 183.386 35.04C183.202 34.816 182.894 34.704 182.462 34.704H181.742V37.308ZM180.014 33.432H183.038C183.478 33.432 183.846 33.508 184.142 33.66C184.446 33.804 184.69 33.996 184.874 34.236C185.058 34.476 185.19 34.752 185.27 35.064C185.35 35.368 185.39 35.68 185.39 36C185.39 36.44 185.322 36.824 185.186 37.152C185.058 37.48 184.874 37.748 184.634 37.956C184.402 38.164 184.118 38.32 183.782 38.424C183.446 38.528 183.074 38.58 182.666 38.58H181.742V42H180.014V33.432ZM187.785 37.716C187.785 38.292 187.797 38.784 187.821 39.192C187.853 39.592 187.909 39.92 187.989 40.176C188.077 40.424 188.197 40.608 188.349 40.728C188.509 40.84 188.717 40.896 188.973 40.896C189.229 40.896 189.433 40.84 189.585 40.728C189.745 40.608 189.865 40.424 189.945 40.176C190.033 39.92 190.089 39.592 190.113 39.192C190.145 38.784 190.161 38.292 190.161 37.716C190.161 37.14 190.145 36.652 190.113 36.252C190.089 35.852 190.033 35.524 189.945 35.268C189.865 35.012 189.745 34.828 189.585 34.716C189.433 34.596 189.229 34.536 188.973 34.536C188.717 34.536 188.509 34.596 188.349 34.716C188.197 34.828 188.077 35.012 187.989 35.268C187.909 35.524 187.853 35.852 187.821 36.252C187.797 36.652 187.785 37.14 187.785 37.716ZM186.057 37.716C186.057 37.068 186.085 36.472 186.141 35.928C186.205 35.376 186.337 34.904 186.537 34.512C186.745 34.12 187.041 33.816 187.425 33.6C187.809 33.376 188.325 33.264 188.973 33.264C189.621 33.264 190.137 33.376 190.521 33.6C190.905 33.816 191.197 34.12 191.397 34.512C191.605 34.904 191.737 35.376 191.793 35.928C191.857 36.472 191.889 37.068 191.889 37.716C191.889 38.372 191.857 38.972 191.793 39.516C191.737 40.06 191.605 40.528 191.397 40.92C191.197 41.312 190.905 41.612 190.521 41.82C190.137 42.028 189.621 42.132 188.973 42.132C188.325 42.132 187.809 42.028 187.425 41.82C187.041 41.612 186.745 41.312 186.537 40.92C186.337 40.528 186.205 40.06 186.141 39.516C186.085 38.972 186.057 38.372 186.057 37.716ZM197.921 33.432V34.848H196.049V42H194.321V34.848H192.449V33.432H197.921ZM199.342 33.432C199.942 34.376 200.37 35.3 200.626 36.204C200.89 37.1 201.022 37.972 201.022 38.82C201.022 39.668 200.89 40.536 200.626 41.424C200.37 42.312 199.942 43.228 199.342 44.172H198.07C198.318 43.716 198.53 43.272 198.706 42.84C198.882 42.416 199.022 41.996 199.126 41.58C199.238 41.156 199.318 40.72 199.366 40.272C199.414 39.816 199.438 39.332 199.438 38.82C199.438 38.308 199.414 37.828 199.366 37.38C199.318 36.924 199.238 36.48 199.126 36.048C199.022 35.616 198.882 35.188 198.706 34.764C198.53 34.332 198.318 33.888 198.07 33.432H199.342Z" fill="black"/>
<path d="M211 6H237V55H230H211L224.5 28.5L211 6Z" fill="#010101"/>
<path d="M237 6H308C317.941 6 326 14.0589 326 24V55H237V6Z" fill="black"/>
<rect x="237" y="8" width="31" height="31" fill="black"/>
<path fill-rule="evenodd" clip-rule="evenodd" d="M250.109 14.1063C249.715 13.9593 249.442 13.9112 249.26 13.9138C249.076 13.9164 249.017 13.9696 249.005 13.983C248.994 13.9948 248.976 14.0235 248.975 14.1029C248.974 14.1628 248.984 14.2337 249.004 14.3061L251.457 16.7194H253.07C253.35 16.3731 253.982 15.6937 255.041 14.766C255.332 14.5109 255.438 14.3351 255.469 14.2426C255.486 14.1909 255.48 14.1822 255.466 14.1637L255.464 14.1606C255.428 14.1114 255.342 14.0437 255.193 13.9816C255.059 13.9255 254.904 13.8872 254.762 13.8665C254.659 13.8692 254.582 13.8932 254.446 13.9423L254.419 13.9521C254.371 13.9696 254.335 13.9876 254.3 14.0059C254.226 14.0437 254.15 14.0826 253.951 14.1204C253.636 14.1804 253.41 14.185 253.155 14.124C252.99 14.0845 252.808 14.0142 252.587 13.9294C252.511 13.8998 252.429 13.8684 252.342 13.8359L252.34 13.8357C252.335 13.835 252.315 13.8327 252.278 13.8341C252.224 13.8361 252.153 13.8447 252.066 13.86C251.894 13.8904 251.691 13.9409 251.477 13.9945L251.464 13.9977C251.252 14.0505 251.026 14.1067 250.837 14.1369C250.742 14.1519 250.644 14.1628 250.554 14.1606L250.525 14.1602C250.431 14.1593 250.201 14.1571 250.109 14.1063ZM251.242 13.1757C250.947 13.2429 250.406 13.3023 250.406 13.3023C250.09 13.2908 249.86 13.2277 249.667 13.1747C249.513 13.1326 249.383 13.0968 249.251 13.0987C248.953 13.1029 248.694 13.1923 248.508 13.3963C248.321 13.6018 248.262 13.8653 248.259 14.0916C248.257 14.3145 248.307 14.5303 248.37 14.7023L248.402 14.7912L250.578 16.9319C249.757 17.1125 248.88 17.4785 248.072 18.1145C246.533 19.3262 245.301 21.4723 245.126 25.024C245.115 25.2552 245.102 25.4899 245.09 25.7262C245.038 26.698 244.984 27.698 245.004 28.6023C245.029 29.71 245.162 30.7759 245.615 31.5044C246.429 32.813 247.76 33.4463 249.037 33.7444C250.31 34.0416 251.582 34.019 252.369 33.9721C253.089 33.9584 254.275 33.9154 255.49 33.6601C256.701 33.4057 258.004 32.9283 258.895 31.9992C259.611 31.2516 259.855 30.1504 259.929 28.9703C259.987 28.0415 259.943 26.9912 259.898 25.9219L259.898 25.9218L259.898 25.9216C259.886 25.6252 259.873 25.3272 259.863 25.03C259.746 21.692 258.518 19.598 256.98 18.3585C255.982 17.5541 254.871 17.124 253.887 16.9376C254.206 16.5912 254.724 16.0726 255.477 15.4121C255.806 15.1237 256.036 14.8353 256.137 14.5344C256.251 14.1954 256.189 13.8795 256.014 13.6398C255.86 13.4286 255.636 13.2982 255.439 13.216C255.234 13.1306 255.014 13.0793 254.824 13.0539L254.803 13.0511H254.782C254.552 13.0511 254.386 13.1088 254.23 13.1653L254.204 13.1747C254.062 13.2261 253.907 13.282 253.663 13.3284C253.449 13.3691 253.436 13.3656 253.355 13.3435L253.355 13.3435L253.355 13.3435C253.339 13.3391 253.32 13.334 253.297 13.3284C253.176 13.2994 253.051 13.2515 252.854 13.1757C252.847 13.1727 252.833 13.1658 252.815 13.1563C252.723 13.1093 252.511 13 252.269 13C251.911 13 251.568 13.0906 251.362 13.1452C251.314 13.1578 251.273 13.1685 251.242 13.1757ZM248.598 18.7826C247.294 19.8098 246.141 21.7024 245.975 25.0658C245.964 25.3062 245.951 25.5471 245.938 25.7873L245.938 25.7873L245.938 25.7874C245.886 26.7564 245.835 27.7147 245.854 28.5836C245.879 29.6845 246.017 30.5403 246.337 31.0555C246.986 32.0991 248.071 32.6458 249.23 32.9165C250.389 33.1869 251.569 33.1684 252.327 33.1229L252.336 33.1224L252.345 33.1222C253.051 33.1089 254.176 33.0673 255.316 32.828C256.465 32.5867 257.566 32.1565 258.281 31.411C258.778 30.8917 259.009 30.0543 259.08 28.9168C259.136 28.0371 259.094 27.048 259.05 25.9868L259.05 25.9866C259.037 25.6833 259.024 25.3741 259.013 25.0598C258.903 21.9361 257.769 20.0859 256.447 19.0204C255.443 18.2117 254.307 17.8352 253.37 17.7159C254.146 18.5301 255.026 19.349 255.507 19.6446L255.061 20.3687C254.86 20.1673 254.557 19.9036 254.208 19.5994L254.208 19.5994C253.705 19.1614 253.106 18.6395 252.574 18.0991C252.548 18.4454 252.525 18.8325 252.515 19.1999C252.507 19.5164 252.509 19.8104 252.526 20.048C252.534 20.1669 252.546 20.2653 252.56 20.3418C252.567 20.3798 252.574 20.4092 252.581 20.4311C252.587 20.4519 252.591 20.4611 252.591 20.462L252.652 20.7938L251.831 20.8422C251.732 20.6443 251.696 20.3607 251.678 20.1075C251.659 19.8317 251.657 19.5076 251.666 19.1781C251.672 18.9159 251.685 18.6454 251.702 18.3858C251.011 19.0527 250.284 19.6307 249.748 20.0572C249.673 20.1168 249.601 20.1734 249.535 20.227L249.089 19.5029C249.561 19.1737 250.435 18.4574 251.209 17.6831C250.385 17.7926 249.447 18.1141 248.598 18.7826Z" fill="white"/>
<path d="M242.263 43.1H243.397C243.78 43.1 244.067 43.2027 244.258 43.408C244.449 43.6133 244.545 43.9143 244.545 44.311V44.794C244.545 45.1907 244.449 45.4917 244.258 45.697C244.067 45.9023 243.78 46.005 243.397 46.005H243.033V48H242.263V43.1ZM243.397 45.305C243.523 45.305 243.616 45.27 243.677 45.2C243.742 45.13 243.775 45.011 243.775 44.843V44.262C243.775 44.094 243.742 43.975 243.677 43.905C243.616 43.835 243.523 43.8 243.397 43.8H243.033V45.305H243.397ZM246.076 48.07C245.698 48.07 245.409 47.9627 245.208 47.748C245.008 47.5333 244.907 47.23 244.907 46.838V44.262C244.907 43.87 245.008 43.5667 245.208 43.352C245.409 43.1373 245.698 43.03 246.076 43.03C246.454 43.03 246.744 43.1373 246.944 43.352C247.145 43.5667 247.245 43.87 247.245 44.262V46.838C247.245 47.23 247.145 47.5333 246.944 47.748C246.744 47.9627 246.454 48.07 246.076 48.07ZM246.076 47.37C246.342 47.37 246.475 47.209 246.475 46.887V44.213C246.475 43.891 246.342 43.73 246.076 43.73C245.81 43.73 245.677 43.891 245.677 44.213V46.887C245.677 47.209 245.81 47.37 246.076 47.37ZM248.886 48.07C248.513 48.07 248.228 47.965 248.032 47.755C247.836 47.5403 247.738 47.2347 247.738 46.838V43.1H248.508V46.894C248.508 47.062 248.541 47.1833 248.606 47.258C248.676 47.3327 248.774 47.37 248.9 47.37C249.026 47.37 249.122 47.3327 249.187 47.258C249.257 47.1833 249.292 47.062 249.292 46.894V43.1H250.034V46.838C250.034 47.2347 249.936 47.5403 249.74 47.755C249.544 47.965 249.259 48.07 248.886 48.07ZM250.582 43.1H251.744C252.141 43.1 252.43 43.1933 252.612 43.38C252.794 43.562 252.885 43.8443 252.885 44.227V44.423C252.885 44.675 252.843 44.8803 252.759 45.039C252.68 45.1977 252.556 45.312 252.388 45.382V45.396C252.771 45.5267 252.962 45.8673 252.962 46.418V46.838C252.962 47.216 252.862 47.5053 252.661 47.706C252.465 47.902 252.176 48 251.793 48H250.582V43.1ZM251.653 45.095C251.807 45.095 251.922 45.0553 251.996 44.976C252.076 44.8967 252.115 44.7637 252.115 44.577V44.304C252.115 44.1267 252.083 43.9983 252.017 43.919C251.957 43.8397 251.859 43.8 251.723 43.8H251.352V45.095H251.653ZM251.793 47.3C251.929 47.3 252.029 47.265 252.094 47.195C252.16 47.1203 252.192 46.9943 252.192 46.817V46.39C252.192 46.166 252.153 46.012 252.073 45.928C251.999 45.8393 251.873 45.795 251.695 45.795H251.352V47.3H251.793ZM253.412 43.1H255.512V43.8H254.182V45.095H255.239V45.795H254.182V47.3H255.512V48H253.412V43.1ZM255.955 43.1H256.725V47.3H257.992V48H255.955V43.1ZM258.362 43.1H259.132V47.3H260.399V48H258.362V43.1ZM260.768 43.1H262.868V43.8H261.538V45.095H262.595V45.795H261.538V47.3H262.868V48H260.768V43.1Z" fill="white"/>
<path d="M275.59 31.07C275.212 31.07 274.923 30.9627 274.722 30.748C274.522 30.5333 274.421 30.23 274.421 29.838V27.262C274.421 26.87 274.522 26.5667 274.722 26.352C274.923 26.1373 275.212 26.03 275.59 26.03C275.968 26.03 276.258 26.1373 276.458 26.352C276.659 26.5667 276.759 26.87 276.759 27.262V29.838C276.759 30.23 276.659 30.5333 276.458 30.748C276.258 30.9627 275.968 31.07 275.59 31.07ZM275.59 30.37C275.856 30.37 275.989 30.209 275.989 29.887V27.213C275.989 26.891 275.856 26.73 275.59 26.73C275.324 26.73 275.191 26.891 275.191 27.213V29.887C275.191 30.209 275.324 30.37 275.59 30.37ZM278.4 31.07C278.027 31.07 277.742 30.965 277.546 30.755C277.35 30.5403 277.252 30.2347 277.252 29.838V26.1H278.022V29.894C278.022 30.062 278.055 30.1833 278.12 30.258C278.19 30.3327 278.288 30.37 278.414 30.37C278.54 30.37 278.636 30.3327 278.701 30.258C278.771 30.1833 278.806 30.062 278.806 29.894V26.1H279.548V29.838C279.548 30.2347 279.45 30.5403 279.254 30.755C279.058 30.965 278.773 31.07 278.4 31.07Z" fill="white"/>
<rect x="286" y="8" width="31" height="31" fill="black"/>
<path d="M289.11 43.1H290.286C290.668 43.1 290.955 43.2027 291.147 43.408C291.338 43.6133 291.434 43.9143 291.434 44.311V46.789C291.434 47.1857 291.338 47.4867 291.147 47.692C290.955 47.8973 290.668 48 290.286 48H289.11V43.1ZM290.272 47.3C290.398 47.3 290.493 47.2627 290.559 47.188C290.629 47.1133 290.664 46.992 290.664 46.824V44.276C290.664 44.108 290.629 43.9867 290.559 43.912C290.493 43.8373 290.398 43.8 290.272 43.8H289.88V47.3H290.272ZM291.954 43.1H294.054V43.8H292.724V45.095H293.781V45.795H292.724V47.3H294.054V48H291.954V43.1ZM293.074 41.966H293.914L293.165 42.771H292.584L293.074 41.966ZM295.581 48.07C295.213 48.07 294.93 47.965 294.734 47.755C294.543 47.545 294.447 47.2487 294.447 46.866V44.234C294.447 43.8513 294.543 43.555 294.734 43.345C294.93 43.135 295.213 43.03 295.581 43.03C295.95 43.03 296.23 43.135 296.421 43.345C296.617 43.555 296.715 43.8513 296.715 44.234V44.752H295.987V44.185C295.987 43.8817 295.859 43.73 295.602 43.73C295.346 43.73 295.217 43.8817 295.217 44.185V46.922C295.217 47.2207 295.346 47.37 295.602 47.37C295.859 47.37 295.987 47.2207 295.987 46.922V46.173H296.715V46.866C296.715 47.2487 296.617 47.545 296.421 47.755C296.23 47.965 295.95 48.07 295.581 48.07ZM297.176 43.1H297.946V45.095H298.772V43.1H299.542V48H298.772V45.795H297.946V48H297.176V43.1ZM300.116 43.1H302.216V43.8H300.886V45.095H301.943V45.795H300.886V47.3H302.216V48H300.116V43.1ZM300.256 41.966H301.096L301.586 42.771H301.005L300.256 41.966ZM303.261 43.8H302.456V43.1H304.836V43.8H304.031V48H303.261V43.8ZM305.208 43.1H307.308V43.8H305.978V45.095H307.035V45.795H305.978V47.3H307.308V48H305.208V43.1ZM307.751 43.1H308.892C309.289 43.1 309.578 43.1933 309.76 43.38C309.942 43.562 310.033 43.8443 310.033 44.227V44.528C310.033 45.0367 309.865 45.3587 309.529 45.494V45.508C309.716 45.564 309.847 45.6783 309.921 45.851C310.001 46.0237 310.04 46.2547 310.04 46.544V47.405C310.04 47.545 310.045 47.6593 310.054 47.748C310.064 47.832 310.087 47.916 310.124 48H309.34C309.312 47.9207 309.294 47.846 309.284 47.776C309.275 47.706 309.27 47.58 309.27 47.398V46.502C309.27 46.278 309.233 46.1217 309.158 46.033C309.088 45.9443 308.965 45.9 308.787 45.9H308.521V48H307.751V43.1ZM308.801 45.2C308.955 45.2 309.07 45.1603 309.144 45.081C309.224 45.0017 309.263 44.8687 309.263 44.682V44.304C309.263 44.1267 309.231 43.9983 309.165 43.919C309.105 43.8397 309.007 43.8 308.871 43.8H308.521V45.2H308.801ZM310.575 43.1H311.345V48H310.575V43.1ZM311.921 43.1H314.021V43.8H312.691V45.095H313.748V45.795H312.691V47.3H314.021V48H311.921V43.1Z" fill="white"/>
<path d="M295.988 32.4391L291.474 32.4342C291.217 32.4342 291.005 32.2268 291.005 31.9699L291 27.4806C291 27.2929 291.114 27.1201 291.291 27.0509C291.464 26.9769 291.667 27.0164 291.8 27.1497L292.684 28.0288L300.29 20.4577C300.473 20.2799 300.769 20.2799 300.952 20.4577L303.046 22.5418C303.135 22.6307 303.184 22.7443 303.184 22.8727C303.184 22.9962 303.135 23.1147 303.046 23.2036L295.44 30.7649L296.319 31.644C296.452 31.7773 296.492 31.9798 296.418 32.1527C296.349 32.3255 296.176 32.4391 295.988 32.4391ZM291.943 31.5008L294.852 31.5057L294.442 31.0958C294.26 30.913 294.26 30.6167 294.442 30.434L302.048 22.8727L300.621 21.4504L293.015 29.0166C292.832 29.1993 292.536 29.1993 292.353 29.0166L291.938 28.6116" fill="white"/>
<path d="M305.54 25.673C305.179 25.673 304.833 25.5347 304.567 25.2878C304.29 25.031 304.132 24.6803 304.117 24.3001L304.048 22.1517L304.987 22.1221L305.056 24.2704C305.061 24.3988 305.115 24.5174 305.209 24.6063C305.303 24.6952 305.436 24.7297 305.559 24.7396C305.688 24.7347 305.806 24.6803 305.895 24.5865C305.984 24.4927 306.029 24.3692 306.024 24.2408L305.92 21.3763L306.858 21.3467L306.962 24.2062C306.977 24.5865 306.844 24.947 306.582 25.2236C306.32 25.5002 305.969 25.6582 305.589 25.6681C305.569 25.673 305.555 25.673 305.54 25.673Z" fill="white"/>
<path d="M305.54 25.673C305.179 25.673 304.833 25.5347 304.567 25.2878C304.29 25.031 304.132 24.6803 304.117 24.3001L304.048 22.1517L304.987 22.1221L305.056 24.2704C305.061 24.3988 305.115 24.5174 305.209 24.6063C305.303 24.6952 305.436 24.7297 305.559 24.7396C305.688 24.7347 305.806 24.6803 305.895 24.5865C305.984 24.4927 306.029 24.3692 306.024 24.2408L305.92 21.3763L306.858 21.3467L306.962 24.2062C306.977 24.5865 306.844 24.947 306.582 25.2236C306.32 25.5002 305.969 25.6582 305.589 25.6681C305.569 25.673 305.555 25.673 305.54 25.673Z" fill="white"/>
<path d="M303.643 25.9941C303.278 25.9941 302.937 25.8607 302.67 25.6138C302.394 25.352 302.231 25.0014 302.221 24.6211L302.152 22.4727L303.09 22.4431L303.159 24.5915C303.164 24.7248 303.219 24.8433 303.312 24.9322C303.406 25.0211 303.53 25.0755 303.658 25.0607C303.925 25.0508 304.137 24.8285 304.127 24.5618L304.024 21.7023L304.962 21.6677L305.066 24.5273C305.095 25.3125 304.478 25.9644 303.693 25.9941C303.673 25.9941 303.658 25.9941 303.643 25.9941Z" fill="white"/>
<path d="M305.258 32.449C305.066 32.449 304.893 32.3305 304.824 32.1576C304.75 31.9848 304.789 31.7823 304.922 31.6489L305.806 30.7698L298.201 23.2037C298.018 23.0259 298.018 22.7295 298.201 22.5468L300.29 20.4627C300.463 20.2898 300.779 20.2898 300.952 20.4627L308.893 28.3597L308.226 29.0215L300.621 21.4553L299.193 22.8777L306.799 30.4389C306.987 30.6217 306.987 30.9229 306.799 31.1007L306.389 31.5107H309.298L309.303 27.4856H310.241L310.237 31.9749C310.237 32.2317 310.029 32.4391 309.767 32.4391L305.258 32.449Z" fill="white"/>
<path d="M300.601 36C300.478 36 300.359 35.9556 300.265 35.8617L297.075 32.696C296.941 32.5626 296.902 32.3601 296.971 32.1873C297.045 32.0095 297.218 31.8959 297.406 31.8959H298.655V23.2037C298.655 22.9469 298.863 22.7345 299.124 22.7345H302.083C302.339 22.7345 302.552 22.9469 302.552 23.2037V32.3651H301.613V23.6729H299.593V32.3651C299.593 32.6219 299.381 32.8293 299.124 32.8293H298.542L300.601 34.874L303.461 32.0342L304.127 32.696L300.932 35.8617C300.838 35.9556 300.72 36 300.601 36Z" fill="white"/>
<path d="M295.983 32.4391L291.474 32.4342C291.217 32.4342 291.005 32.2268 291.005 31.9699L291 27.4806C291 27.2929 291.114 27.1201 291.291 27.0509C291.464 26.9769 291.667 27.0164 291.8 27.1497L292.684 28.0288L300.29 20.4577C300.473 20.2799 300.769 20.2799 300.952 20.4577L303.046 22.5418C303.135 22.6307 303.184 22.7443 303.184 22.8727C303.184 22.9962 303.135 23.1147 303.046 23.2036L295.104 31.0958L294.442 30.434L302.048 22.8727L300.621 21.4504L293.015 29.0166C292.832 29.1993 292.536 29.1993 292.353 29.0166L291.938 28.6116L291.943 31.5008L295.988 31.5057" fill="white"/>
<path d="M311.407 19.0452C311.066 19.0452 310.745 18.9119 310.503 18.6748L306.098 14.2892C305.856 14.0522 305.722 13.7311 305.722 13.3953C305.722 13.0545 305.856 12.7384 306.093 12.4964L307.239 11.3556C307.723 10.8815 308.562 10.8815 309.046 11.3556L313.452 15.7412C313.95 16.2351 313.95 17.0401 313.452 17.534L312.306 18.6748C312.064 18.9119 311.748 19.0452 311.407 19.0452ZM308.142 11.9186C308.054 11.9186 307.97 11.9581 307.905 12.0174V12.0223L306.76 13.1582C306.695 13.2224 306.661 13.3064 306.661 13.3953C306.661 13.4842 306.695 13.5682 306.76 13.6274L311.165 18.013C311.293 18.1414 311.516 18.1365 311.644 18.013L312.79 16.8771C312.918 16.7438 312.918 16.5314 312.785 16.403L308.379 12.0223C308.315 11.9581 308.231 11.9186 308.142 11.9186Z" fill="white"/>
<path d="M306.742 26.6614L303.2 23.5131L302.413 24.3002L302.019 25.8743L304.381 29.0227L306.742 26.6614Z" fill="black"/>
<path d="M305.258 32.449C305.066 32.449 304.893 32.3305 304.824 32.1576C304.75 31.9848 304.789 31.7823 304.922 31.6489L305.806 30.7698L298.201 23.2037C298.018 23.0259 298.018 22.7295 298.201 22.5468L300.29 20.4627C300.463 20.2898 300.779 20.2898 300.952 20.4627L308.562 28.0338L309.441 27.1547C309.575 27.0213 309.777 26.9818 309.955 27.0559C310.128 27.125 310.241 27.2979 310.241 27.4856L310.237 31.9749C310.237 32.2317 310.029 32.4391 309.767 32.4391L305.258 32.449ZM299.193 22.8777L306.799 30.4389C306.987 30.6217 306.987 30.9229 306.799 31.1007L306.389 31.5107H309.298L309.303 28.6165L308.893 29.0215C308.71 29.2043 308.414 29.2043 308.226 29.0215L300.621 21.4553" fill="white"/>
<path d="M297.69 32.5646H299.264V23.5131H302.019L302.413 32.5646H303.2L300.445 35.713L297.69 32.5646Z" fill="black"/>
<path d="M300.601 36C300.478 36 300.359 35.9556 300.27 35.8617L297.075 32.696C296.941 32.5626 296.902 32.3601 296.971 32.1873C297.045 32.0095 297.218 31.8959 297.406 31.8959H298.655V23.2037C298.655 22.9469 298.863 22.7345 299.124 22.7345H302.083C302.339 22.7345 302.552 22.9469 302.552 23.2037V31.8959H303.791C303.984 31.8959 304.157 32.0095 304.226 32.1873C304.3 32.3601 304.261 32.5626 304.127 32.696L300.932 35.8617C300.838 35.9556 300.72 36 300.601 36ZM298.542 32.8293L300.601 34.874L302.66 32.8293H302.083C301.821 32.8293 301.613 32.6219 301.613 32.3651V23.6729H299.593V32.3651C299.593 32.6219 299.381 32.8293 299.124 32.8293" fill="white"/>
<path d="M302.413 20.8232L300.29 23.658C299.929 24.1371 300.028 24.8187 300.512 25.1742C300.991 25.5348 301.678 25.436 302.038 24.9569L303.362 23.1889C303.89 22.4974 304.483 22.2406 304.769 22.1665C305.406 21.9986 307.323 21.2825 308.35 20.6652C309.372 20.0429 309.901 18.6008 309.846 17.3611L306.789 14.3188L300.3 16.3339C299.509 16.6006 299.223 17.05 299.104 17.3167C298.986 17.5883 297.692 20.6306 297.692 20.6306C297.544 21.0109 297.46 21.4652 297.677 21.8505C297.894 22.2357 298.388 23.0061 298.388 23.0061L299.816 21.5838C299.816 21.5838 299.761 20.7985 299.944 20.3935C300.132 19.9935 300.329 19.3268 300.754 19.1736C301.174 19.0255 301.91 18.7884 301.91 18.7884C301.91 18.7884 301.845 19.628 301.994 20.0774C302.147 20.5269 302.379 20.7936 302.379 20.7936" fill="black"/>
<path d="M301.164 25.8607C300.828 25.8607 300.502 25.7521 300.23 25.5496C299.895 25.3026 299.677 24.9372 299.618 24.5272C299.564 24.1173 299.667 23.7074 299.919 23.3765L301.831 20.8232C301.737 20.6701 301.633 20.4725 301.549 20.2256C301.475 19.9935 301.44 19.7021 301.431 19.4403C301.248 19.4996 301.06 19.5638 300.912 19.6132C300.759 19.6675 300.576 20.1071 300.477 20.3392L300.374 20.5911C300.28 20.7886 300.265 21.2726 300.285 21.5541C300.295 21.6875 300.245 21.8208 300.151 21.9146L298.719 23.337C298.62 23.4358 298.477 23.4852 298.339 23.4704C298.196 23.4555 298.072 23.3765 297.993 23.258C297.993 23.258 297.489 22.4727 297.267 22.0826C297.015 21.6331 297.01 21.0849 297.257 20.4577C297.262 20.4478 298.556 17.4006 298.675 17.1339C298.927 16.561 299.435 16.1314 300.147 15.8894L306.646 13.8743C306.814 13.82 306.997 13.8645 307.12 13.9879L310.182 17.0351C310.266 17.1191 310.31 17.2278 310.315 17.3463C310.37 18.6057 309.851 20.3046 308.592 21.0602C307.525 21.7072 305.589 22.4332 304.888 22.6209C304.784 22.6456 304.241 22.8135 303.737 23.4704L302.413 25.2384C302.162 25.5693 301.801 25.7866 301.386 25.8459C301.312 25.8558 301.238 25.8607 301.164 25.8607ZM301.915 18.3242C302.018 18.3242 302.122 18.3587 302.201 18.4229C302.325 18.5217 302.394 18.6699 302.379 18.8279C302.359 19.1144 302.354 19.6675 302.443 19.9293C302.557 20.2799 302.734 20.4923 302.739 20.4923C302.922 20.6503 302.937 20.9071 302.789 21.1047L300.67 23.9346C300.566 24.0679 300.527 24.2309 300.552 24.3939C300.571 24.5569 300.66 24.705 300.794 24.7989C300.927 24.9026 301.09 24.9372 301.253 24.9223C301.416 24.8977 301.564 24.8088 301.663 24.6803L302.986 22.9073C303.663 22.0282 304.428 21.7714 304.651 21.7171C305.214 21.5689 307.11 20.8676 308.103 20.2651C308.947 19.7564 309.372 18.5563 309.382 17.5587L306.656 14.8522L300.438 16.7783C299.988 16.9314 299.677 17.1784 299.534 17.5043C299.416 17.776 298.127 20.8133 298.127 20.8133C297.993 21.1541 297.978 21.4306 298.087 21.6183C298.181 21.7912 298.334 22.0381 298.472 22.2604L299.342 21.401C299.337 21.0948 299.351 20.5664 299.519 20.2009L299.613 19.9836C299.796 19.5391 300.053 18.9267 300.596 18.7341C301.021 18.5859 301.766 18.3439 301.766 18.3439C301.816 18.3291 301.865 18.3242 301.915 18.3242Z" fill="white"/>
</g>
<defs>
<clipPath id="clip0_66_3180">
<rect width="332" height="61" fill="white"/>
</clipPath>
</defs>
</svg>
