<svg width="292" height="61" viewBox="0 0 292 61" fill="none" xmlns="http://www.w3.org/2000/svg">
<g clip-path="url(#clip0_66_2982)">
<path d="M24.6979 60.4688C11.0781 60.4688 0 49.5208 0 36.0625V0H266.948C280.563 0 291.641 10.9479 291.641 24.4062V60.4688" fill="white"/>
<path d="M244.083 52.9114H69.1353C59.6874 52.9114 51.9999 45.3541 51.9999 36.0625V7.55725H226.948C236.396 7.55725 244.083 15.1145 244.083 24.4062V52.9114ZM227 6L50.1667 5.66663L50.1145 36.0625C50.1145 46.3958 58.6458 54.802 69.1353 54.802L245.969 55V24.4062C245.969 14.0729 237.49 6 227 6Z" fill="#010101"/>
<path d="M102.901 5.66663H50.1145V36.0625C50.1145 46.3958 58.6458 54.802 69.1353 54.802H121.927V24.4062C121.927 14.0729 113.391 5.66663 102.901 5.66663Z" fill="#010101"/>
<path d="M63.651 29.3594C58.8489 29.3594 54.9583 33.25 54.9583 38.0521C54.9583 42.8542 58.8489 46.7448 63.651 46.7448C68.4583 46.7448 72.3489 42.8542 72.3489 38.0521C72.3489 33.25 68.4583 29.3594 63.651 29.3594Z" fill="white"/>
<path d="M69.3229 39.4688H65.0729V43.7188H62.2344V39.4688H57.9844V36.6355H62.2344V32.3802H65.0729V36.6355H69.3229" fill="#1C1C1B"/>
<path d="M55.7864 26.5937V17.1979H58.2708V24.5156H61.828V26.5937" fill="white"/>
<path d="M62.9426 26.5937V17.1979H69.0155V19.276H65.4322V20.7552H68.4947V22.8385H65.4322V24.5156H69.1614V26.5937" fill="white"/>
<path d="M75.0885 26.5937V19.276H72.6041V17.1979H80.0677V19.276H77.5781V26.5937" fill="white"/>
<path d="M83.5521 21.4739H84.4479C85.4479 21.4739 85.9531 21.0625 85.9531 20.2343C85.9531 19.8281 85.8229 19.5468 85.5677 19.3958C85.3125 19.2395 84.9375 19.1614 84.4479 19.1614H83.5521V21.4739ZM81.0625 26.5989V17.1979H84.6198C85.125 17.1979 85.6042 17.2448 86.0625 17.3385C86.5208 17.4375 86.9167 17.5989 87.2604 17.8333C87.6042 18.0625 87.875 18.375 88.0781 18.7656C88.2813 19.1562 88.3802 19.6458 88.3802 20.2343C88.3802 20.9062 88.2448 21.4687 87.9688 21.9114C87.6979 22.3541 87.3281 22.6979 86.8646 22.9531L88.901 26.5989H86.125L84.5052 23.4427H83.5521V26.5989" fill="white"/>
<path d="M89.8698 26.5989H92.3593V17.1979H89.8698V26.5989Z" fill="white"/>
<path d="M75.3801 43.276V33.8698H81.5103V35.9531H77.8697V37.75H80.9895V39.8333H77.8697V43.276" fill="white"/>
<path d="M84.9218 38.7031L84.7604 39.3541H86.4948L86.3385 38.7031C86.2239 38.25 86.1041 37.7604 85.9895 37.2291C85.875 36.6979 85.7604 36.1979 85.6406 35.7239H85.5833C85.4791 36.2031 85.3698 36.7083 85.2604 37.2343C85.151 37.7604 85.0364 38.25 84.9218 38.7031ZM81.3073 43.276L84.1666 33.8698H87.1718L90.0364 43.276H87.4062L86.9427 41.276H84.3125L83.8489 43.276" fill="white"/>
<path d="M94.5624 43.4479C93.9687 43.4479 93.3958 43.3489 92.8541 43.151C92.3072 42.9531 91.8333 42.651 91.4218 42.2552C91.0103 41.8541 90.6822 41.3541 90.4426 40.75C90.203 40.1458 90.0833 39.4479 90.0833 38.6458C90.0833 37.8541 90.2083 37.151 90.4583 36.5416C90.7083 35.927 91.0416 35.4114 91.4635 34.9948C91.8801 34.5729 92.3645 34.25 92.9114 34.0312C93.4583 33.8073 94.026 33.6979 94.6249 33.6979C95.2499 33.6979 95.8124 33.8229 96.302 34.0677C96.7968 34.3125 97.2083 34.6041 97.5468 34.9427L96.2447 36.5312C96.0155 36.3333 95.776 36.1666 95.5312 36.0312C95.2812 35.9062 94.9999 35.8385 94.6822 35.8385C94.401 35.8385 94.1405 35.901 93.8958 36.026C93.651 36.151 93.4322 36.3333 93.2447 36.5625C93.0572 36.7916 92.9062 37.0781 92.7968 37.4166C92.6822 37.75 92.6301 38.1354 92.6301 38.5573C92.6301 39.4479 92.8124 40.125 93.1874 40.5989C93.5572 41.0677 94.0468 41.3073 94.651 41.3073C95.0208 41.3073 95.3437 41.2291 95.6301 41.0677C95.9114 40.9062 96.1562 40.7187 96.3593 40.4948L97.6614 42.0573C97.2551 42.5208 96.7916 42.8698 96.2655 43.0989C95.7395 43.3333 95.1718 43.4479 94.5624 43.4479Z" fill="white"/>
<path d="M98.6198 43.276H101.104V33.8698H98.6198V43.276Z" fill="white"/>
<path d="M102.875 43.276V33.8698H105.365V41.1927H108.922V43.276" fill="white"/>
<path d="M110.031 43.276V33.8698H116.109V35.9531H112.521V37.4323H115.589V39.5156H112.521V41.1927H116.255V43.276" fill="white"/>
<path fill-rule="evenodd" clip-rule="evenodd" d="M16.2604 29.1927C16.2604 29.1927 15.9115 29.151 15.6771 29.7968L13.5573 35.7083C15.224 37.1198 17.1823 38.1823 19.3281 38.8073L16.7552 29.7708C16.5781 29.125 16.2604 29.1927 16.2604 29.1927ZM5.67188 23.6979C5.67188 13.7552 13.7604 5.66663 23.7031 5.66663C28.9635 5.66663 33.7083 7.93225 37.0052 11.5364L35.3906 13.177C32.5104 9.97913 28.3385 7.9635 23.7031 7.9635C15.026 7.9635 7.96875 15.0208 7.96875 23.6979C7.96875 27.5208 9.34375 31.0312 11.6198 33.7604L14.2656 20.7968C14.7396 18.5104 16.8854 16.7552 19.0521 17.1562C20.6406 17.4583 28.0938 22.3958 28.0938 22.3958C28.7292 22.802 28.375 23.3489 28.375 23.3489C28.375 23.3489 28.0729 23.875 27.4479 23.6041L21.9792 21.4062C21.0052 20.9948 19.4323 21.4323 19.6667 24.1875L21.3802 38.7864L21.4531 39.2656C22.1875 39.375 22.9375 39.4323 23.7031 39.4323C24.1875 39.4323 24.6719 39.401 25.1458 39.3541L25.0052 37.4531L28.6979 40.2708L25.3958 43.4635L25.276 41.651C24.7552 41.6979 24.2344 41.7291 23.7031 41.7291C13.7604 41.7291 5.67188 33.6406 5.67188 23.6979ZM19.9375 16.4115C18.4167 16.4115 17.1875 15.1823 17.1875 13.6562C17.1875 12.1354 18.4167 10.9062 19.9375 10.9062C21.4583 10.9062 22.6927 12.1354 22.6927 13.6562C22.6927 15.1823 21.4583 16.4115 19.9375 16.4115ZM37.1046 24.564C37.7365 24.0543 39.7005 22.4703 40.1613 19.1927L40.2342 18.1823L42.0519 18.2864L38.0259 12.8541L33.2134 17.6927L34.979 17.7656L34.9998 17.7708C35.0415 17.9687 35.2446 19.2656 34.5571 21.3177C33.7967 23.6041 31.4373 26.2916 28.4634 25.8177C32.6457 27.5677 36.0311 25.4375 37.0936 24.5729L37.1046 24.564ZM28.375 25.8489C29.5781 28.6093 33.1146 29.1406 35.4479 28.552C37.5208 28.026 38.5052 27.1718 38.6719 27.0156L38.6615 27L37.776 25.4635L44.4427 26.9218L42.0312 33.2395L41.1354 31.6458L40.2656 32.1198C37.2654 33.4985 34.8744 32.7065 34.0978 32.4492L34.0781 32.4427C32.7812 32.0156 29.1562 30.3125 28.375 25.8489ZM28.4062 25.7448C26.7135 28.2343 28.151 31.5104 29.8958 33.1718C31.4895 34.6823 32.7655 35.0364 32.9322 35.0781L33.7447 33.5208L36.0885 39.9323L29.4635 41.2812L30.3437 39.6458L29.4478 39.1458C26.6887 37.3493 26.0817 34.9168 25.8818 34.1162L25.8749 34.0885C25.5416 32.7604 25.0468 28.7864 28.4062 25.7448Z" fill="#010101"/>
<path d="M133.26 29.324C133.26 28.7 133.184 28.248 133.032 27.968C132.888 27.68 132.62 27.536 132.228 27.536C132.012 27.536 131.832 27.596 131.688 27.716C131.552 27.828 131.444 28.016 131.364 28.28C131.284 28.536 131.228 28.876 131.196 29.3C131.164 29.716 131.148 30.228 131.148 30.836C131.148 31.484 131.168 32.008 131.208 32.408C131.256 32.808 131.324 33.12 131.412 33.344C131.508 33.56 131.624 33.708 131.76 33.788C131.904 33.86 132.068 33.896 132.252 33.896C132.404 33.896 132.544 33.872 132.672 33.824C132.808 33.768 132.924 33.664 133.02 33.512C133.116 33.352 133.192 33.132 133.248 32.852C133.304 32.564 133.332 32.188 133.332 31.724H135.06C135.06 32.188 135.024 32.628 134.952 33.044C134.88 33.46 134.744 33.824 134.544 34.136C134.352 34.448 134.076 34.692 133.716 34.868C133.364 35.044 132.904 35.132 132.336 35.132C131.688 35.132 131.172 35.028 130.788 34.82C130.404 34.612 130.108 34.312 129.9 33.92C129.7 33.528 129.568 33.06 129.504 32.516C129.448 31.972 129.42 31.372 129.42 30.716C129.42 30.068 129.448 29.472 129.504 28.928C129.568 28.376 129.7 27.904 129.9 27.512C130.108 27.12 130.404 26.816 130.788 26.6C131.172 26.376 131.688 26.264 132.336 26.264C132.952 26.264 133.436 26.364 133.788 26.564C134.148 26.764 134.416 27.02 134.592 27.332C134.768 27.636 134.876 27.968 134.916 28.328C134.964 28.68 134.988 29.012 134.988 29.324H133.26ZM136.129 35V26.432H137.857V35H136.129ZM140.531 32.324V32.576C140.531 32.776 140.547 32.96 140.579 33.128C140.611 33.288 140.671 33.424 140.759 33.536C140.847 33.648 140.963 33.736 141.107 33.8C141.259 33.864 141.447 33.896 141.671 33.896C141.935 33.896 142.171 33.812 142.379 33.644C142.595 33.468 142.703 33.2 142.703 32.84C142.703 32.648 142.675 32.484 142.619 32.348C142.571 32.204 142.487 32.076 142.367 31.964C142.247 31.852 142.087 31.752 141.887 31.664C141.695 31.568 141.455 31.472 141.167 31.376C140.783 31.248 140.451 31.108 140.171 30.956C139.891 30.804 139.655 30.628 139.463 30.428C139.279 30.22 139.143 29.984 139.055 29.72C138.967 29.448 138.923 29.136 138.923 28.784C138.923 27.936 139.159 27.304 139.631 26.888C140.103 26.472 140.751 26.264 141.575 26.264C141.959 26.264 142.311 26.308 142.631 26.396C142.959 26.476 143.239 26.612 143.471 26.804C143.711 26.988 143.895 27.228 144.023 27.524C144.159 27.812 144.227 28.16 144.227 28.568V28.808H142.571C142.571 28.4 142.499 28.088 142.355 27.872C142.211 27.648 141.971 27.536 141.635 27.536C141.443 27.536 141.283 27.564 141.155 27.62C141.027 27.676 140.923 27.752 140.843 27.848C140.771 27.936 140.719 28.04 140.687 28.16C140.663 28.28 140.651 28.404 140.651 28.532C140.651 28.796 140.707 29.02 140.819 29.204C140.931 29.38 141.171 29.544 141.539 29.696L142.871 30.272C143.199 30.416 143.467 30.568 143.675 30.728C143.883 30.88 144.047 31.048 144.167 31.232C144.295 31.408 144.383 31.604 144.431 31.82C144.479 32.036 144.503 32.276 144.503 32.54C144.503 33.444 144.239 34.104 143.711 34.52C143.191 34.928 142.463 35.132 141.527 35.132C140.551 35.132 139.851 34.92 139.427 34.496C139.011 34.072 138.803 33.464 138.803 32.672V32.324H140.531ZM150.15 26.432V27.848H147.09V29.864H149.97V31.28H147.09V33.584H150.27V35H145.362V26.432H150.15ZM154.715 31.772L153.887 27.92H153.863L153.035 31.772H154.715ZM154.943 26.432L157.211 35H155.411L155.015 33.188H152.735L152.339 35H150.539L152.807 26.432H154.943ZM159.427 26.432V32.408C159.427 32.624 159.439 32.824 159.463 33.008C159.495 33.184 159.547 33.34 159.619 33.476C159.699 33.604 159.803 33.708 159.931 33.788C160.067 33.86 160.235 33.896 160.435 33.896C160.643 33.896 160.811 33.86 160.939 33.788C161.067 33.708 161.167 33.604 161.239 33.476C161.319 33.34 161.371 33.184 161.395 33.008C161.427 32.824 161.443 32.624 161.443 32.408V26.432H163.171V32.408C163.171 32.952 163.095 33.404 162.943 33.764C162.791 34.116 162.587 34.396 162.331 34.604C162.075 34.812 161.783 34.952 161.455 35.024C161.127 35.096 160.787 35.132 160.435 35.132C160.083 35.132 159.743 35.1 159.415 35.036C159.087 34.972 158.795 34.844 158.539 34.652C158.283 34.452 158.079 34.172 157.927 33.812C157.775 33.452 157.699 32.984 157.699 32.408V26.432H159.427ZM163.904 26.432H165.812L166.916 29.204L168.008 26.432H169.892L167.9 30.668L170.036 35H168.092L166.856 32.096L165.632 35H163.736L165.872 30.668L163.904 26.432Z" fill="black"/>
<path d="M171 6H197V55H190H171L184.5 28.5L171 6Z" fill="#010101"/>
<path d="M197 6H268C277.941 6 286 14.0589 286 24V55H197V6Z" fill="black"/>
<rect x="197" y="8" width="31" height="31" fill="black"/>
<path fill-rule="evenodd" clip-rule="evenodd" d="M210.109 14.1063C209.715 13.9593 209.442 13.9112 209.26 13.9138C209.076 13.9164 209.017 13.9696 209.005 13.983C208.994 13.9948 208.976 14.0235 208.975 14.1029C208.974 14.1628 208.984 14.2337 209.004 14.3061L211.457 16.7194H213.07C213.35 16.3731 213.982 15.6937 215.041 14.766C215.332 14.5109 215.438 14.3351 215.469 14.2426C215.486 14.1909 215.48 14.1822 215.466 14.1637L215.464 14.1606C215.428 14.1114 215.342 14.0437 215.193 13.9816C215.059 13.9255 214.904 13.8872 214.762 13.8665C214.659 13.8692 214.582 13.8932 214.446 13.9423L214.419 13.9521C214.371 13.9696 214.335 13.9876 214.3 14.0059C214.226 14.0437 214.15 14.0826 213.951 14.1204C213.636 14.1804 213.41 14.185 213.155 14.124C212.99 14.0845 212.808 14.0142 212.587 13.9294C212.511 13.8998 212.429 13.8684 212.342 13.8359L212.34 13.8357C212.335 13.835 212.315 13.8327 212.278 13.8341C212.224 13.8361 212.153 13.8447 212.066 13.86C211.894 13.8904 211.691 13.9409 211.477 13.9945L211.464 13.9977C211.252 14.0505 211.026 14.1067 210.837 14.1369C210.742 14.1519 210.644 14.1628 210.554 14.1606L210.525 14.1602C210.431 14.1593 210.201 14.1571 210.109 14.1063ZM211.242 13.1757C210.947 13.2429 210.406 13.3023 210.406 13.3023C210.09 13.2908 209.86 13.2277 209.667 13.1747C209.513 13.1326 209.383 13.0968 209.251 13.0987C208.953 13.1029 208.694 13.1923 208.508 13.3963C208.321 13.6018 208.262 13.8653 208.259 14.0916C208.257 14.3145 208.307 14.5303 208.37 14.7023L208.402 14.7912L210.578 16.9319C209.757 17.1125 208.88 17.4785 208.072 18.1145C206.533 19.3262 205.301 21.4723 205.126 25.024C205.115 25.2552 205.102 25.4899 205.09 25.7262C205.038 26.698 204.984 27.698 205.004 28.6023C205.029 29.71 205.162 30.7759 205.615 31.5044C206.429 32.813 207.76 33.4463 209.037 33.7444C210.31 34.0416 211.582 34.019 212.369 33.9721C213.089 33.9584 214.275 33.9154 215.49 33.6601C216.701 33.4057 218.004 32.9283 218.895 31.9992C219.611 31.2516 219.855 30.1504 219.929 28.9703C219.987 28.0415 219.943 26.9912 219.898 25.9219L219.898 25.9218L219.898 25.9216C219.886 25.6252 219.873 25.3272 219.863 25.03C219.746 21.692 218.518 19.598 216.98 18.3585C215.982 17.5541 214.871 17.124 213.887 16.9376C214.206 16.5912 214.724 16.0726 215.477 15.4121C215.806 15.1237 216.036 14.8353 216.137 14.5344C216.251 14.1954 216.189 13.8795 216.014 13.6398C215.86 13.4286 215.636 13.2982 215.439 13.216C215.234 13.1306 215.014 13.0793 214.824 13.0539L214.803 13.0511H214.782C214.552 13.0511 214.386 13.1088 214.23 13.1653L214.204 13.1747C214.062 13.2261 213.907 13.282 213.663 13.3284C213.449 13.3691 213.436 13.3656 213.355 13.3435L213.355 13.3435L213.355 13.3435C213.339 13.3391 213.32 13.334 213.297 13.3284C213.176 13.2994 213.051 13.2515 212.854 13.1757C212.847 13.1727 212.833 13.1658 212.815 13.1563C212.723 13.1093 212.511 13 212.269 13C211.911 13 211.568 13.0906 211.362 13.1452C211.314 13.1578 211.273 13.1685 211.242 13.1757ZM208.598 18.7826C207.294 19.8098 206.141 21.7024 205.975 25.0658C205.964 25.3062 205.951 25.5471 205.938 25.7873L205.938 25.7873L205.938 25.7874C205.886 26.7564 205.835 27.7147 205.854 28.5836C205.879 29.6845 206.017 30.5403 206.337 31.0555C206.986 32.0991 208.071 32.6458 209.23 32.9165C210.389 33.1869 211.569 33.1684 212.327 33.1229L212.336 33.1224L212.345 33.1222C213.051 33.1089 214.176 33.0673 215.316 32.828C216.465 32.5867 217.566 32.1565 218.281 31.411C218.778 30.8917 219.009 30.0543 219.08 28.9168C219.136 28.0371 219.094 27.048 219.05 25.9868L219.05 25.9866C219.037 25.6833 219.024 25.3741 219.013 25.0598C218.903 21.9361 217.769 20.0859 216.447 19.0204C215.443 18.2117 214.307 17.8352 213.37 17.7159C214.146 18.5301 215.026 19.349 215.507 19.6446L215.061 20.3687C214.86 20.1673 214.557 19.9036 214.208 19.5994L214.208 19.5994C213.705 19.1614 213.106 18.6395 212.574 18.0991C212.548 18.4454 212.525 18.8325 212.515 19.1999C212.507 19.5164 212.509 19.8104 212.526 20.048C212.534 20.1669 212.546 20.2653 212.56 20.3418C212.567 20.3798 212.574 20.4092 212.581 20.4311C212.587 20.4519 212.591 20.4611 212.591 20.462L212.652 20.7938L211.831 20.8422C211.732 20.6443 211.696 20.3607 211.678 20.1075C211.659 19.8317 211.657 19.5076 211.666 19.1781C211.672 18.9159 211.685 18.6454 211.702 18.3858C211.011 19.0527 210.284 19.6307 209.748 20.0572C209.673 20.1168 209.601 20.1734 209.535 20.227L209.089 19.5029C209.561 19.1737 210.435 18.4574 211.209 17.6831C210.385 17.7926 209.447 18.1141 208.598 18.7826Z" fill="white"/>
<path d="M202.263 43.1H203.397C203.78 43.1 204.067 43.2027 204.258 43.408C204.449 43.6133 204.545 43.9143 204.545 44.311V44.794C204.545 45.1907 204.449 45.4917 204.258 45.697C204.067 45.9023 203.78 46.005 203.397 46.005H203.033V48H202.263V43.1ZM203.397 45.305C203.523 45.305 203.616 45.27 203.677 45.2C203.742 45.13 203.775 45.011 203.775 44.843V44.262C203.775 44.094 203.742 43.975 203.677 43.905C203.616 43.835 203.523 43.8 203.397 43.8H203.033V45.305H203.397ZM206.076 48.07C205.698 48.07 205.409 47.9627 205.208 47.748C205.008 47.5333 204.907 47.23 204.907 46.838V44.262C204.907 43.87 205.008 43.5667 205.208 43.352C205.409 43.1373 205.698 43.03 206.076 43.03C206.454 43.03 206.744 43.1373 206.944 43.352C207.145 43.5667 207.245 43.87 207.245 44.262V46.838C207.245 47.23 207.145 47.5333 206.944 47.748C206.744 47.9627 206.454 48.07 206.076 48.07ZM206.076 47.37C206.342 47.37 206.475 47.209 206.475 46.887V44.213C206.475 43.891 206.342 43.73 206.076 43.73C205.81 43.73 205.677 43.891 205.677 44.213V46.887C205.677 47.209 205.81 47.37 206.076 47.37ZM208.886 48.07C208.513 48.07 208.228 47.965 208.032 47.755C207.836 47.5403 207.738 47.2347 207.738 46.838V43.1H208.508V46.894C208.508 47.062 208.541 47.1833 208.606 47.258C208.676 47.3327 208.774 47.37 208.9 47.37C209.026 47.37 209.122 47.3327 209.187 47.258C209.257 47.1833 209.292 47.062 209.292 46.894V43.1H210.034V46.838C210.034 47.2347 209.936 47.5403 209.74 47.755C209.544 47.965 209.259 48.07 208.886 48.07ZM210.582 43.1H211.744C212.141 43.1 212.43 43.1933 212.612 43.38C212.794 43.562 212.885 43.8443 212.885 44.227V44.423C212.885 44.675 212.843 44.8803 212.759 45.039C212.68 45.1977 212.556 45.312 212.388 45.382V45.396C212.771 45.5267 212.962 45.8673 212.962 46.418V46.838C212.962 47.216 212.862 47.5053 212.661 47.706C212.465 47.902 212.176 48 211.793 48H210.582V43.1ZM211.653 45.095C211.807 45.095 211.922 45.0553 211.996 44.976C212.076 44.8967 212.115 44.7637 212.115 44.577V44.304C212.115 44.1267 212.083 43.9983 212.017 43.919C211.957 43.8397 211.859 43.8 211.723 43.8H211.352V45.095H211.653ZM211.793 47.3C211.929 47.3 212.029 47.265 212.094 47.195C212.16 47.1203 212.192 46.9943 212.192 46.817V46.39C212.192 46.166 212.153 46.012 212.073 45.928C211.999 45.8393 211.873 45.795 211.695 45.795H211.352V47.3H211.793ZM213.412 43.1H215.512V43.8H214.182V45.095H215.239V45.795H214.182V47.3H215.512V48H213.412V43.1ZM215.955 43.1H216.725V47.3H217.992V48H215.955V43.1ZM218.362 43.1H219.132V47.3H220.399V48H218.362V43.1ZM220.768 43.1H222.868V43.8H221.538V45.095H222.595V45.795H221.538V47.3H222.868V48H220.768V43.1Z" fill="white"/>
<path d="M235.59 31.07C235.212 31.07 234.923 30.9627 234.722 30.748C234.522 30.5333 234.421 30.23 234.421 29.838V27.262C234.421 26.87 234.522 26.5667 234.722 26.352C234.923 26.1373 235.212 26.03 235.59 26.03C235.968 26.03 236.258 26.1373 236.458 26.352C236.659 26.5667 236.759 26.87 236.759 27.262V29.838C236.759 30.23 236.659 30.5333 236.458 30.748C236.258 30.9627 235.968 31.07 235.59 31.07ZM235.59 30.37C235.856 30.37 235.989 30.209 235.989 29.887V27.213C235.989 26.891 235.856 26.73 235.59 26.73C235.324 26.73 235.191 26.891 235.191 27.213V29.887C235.191 30.209 235.324 30.37 235.59 30.37ZM238.4 31.07C238.027 31.07 237.742 30.965 237.546 30.755C237.35 30.5403 237.252 30.2347 237.252 29.838V26.1H238.022V29.894C238.022 30.062 238.055 30.1833 238.12 30.258C238.19 30.3327 238.288 30.37 238.414 30.37C238.54 30.37 238.636 30.3327 238.701 30.258C238.771 30.1833 238.806 30.062 238.806 29.894V26.1H239.548V29.838C239.548 30.2347 239.45 30.5403 239.254 30.755C239.058 30.965 238.773 31.07 238.4 31.07Z" fill="white"/>
<path d="M246 8H276C276.552 8 277 8.44772 277 9V39H246V8Z" fill="black"/>
<path d="M249.11 43.1H250.286C250.668 43.1 250.955 43.2027 251.147 43.408C251.338 43.6133 251.434 43.9143 251.434 44.311V46.789C251.434 47.1857 251.338 47.4867 251.147 47.692C250.955 47.8973 250.668 48 250.286 48H249.11V43.1ZM250.272 47.3C250.398 47.3 250.493 47.2627 250.559 47.188C250.629 47.1133 250.664 46.992 250.664 46.824V44.276C250.664 44.108 250.629 43.9867 250.559 43.912C250.493 43.8373 250.398 43.8 250.272 43.8H249.88V47.3H250.272ZM251.954 43.1H254.054V43.8H252.724V45.095H253.781V45.795H252.724V47.3H254.054V48H251.954V43.1ZM253.074 41.966H253.914L253.165 42.771H252.584L253.074 41.966ZM255.581 48.07C255.213 48.07 254.93 47.965 254.734 47.755C254.543 47.545 254.447 47.2487 254.447 46.866V44.234C254.447 43.8513 254.543 43.555 254.734 43.345C254.93 43.135 255.213 43.03 255.581 43.03C255.95 43.03 256.23 43.135 256.421 43.345C256.617 43.555 256.715 43.8513 256.715 44.234V44.752H255.987V44.185C255.987 43.8817 255.859 43.73 255.602 43.73C255.346 43.73 255.217 43.8817 255.217 44.185V46.922C255.217 47.2207 255.346 47.37 255.602 47.37C255.859 47.37 255.987 47.2207 255.987 46.922V46.173H256.715V46.866C256.715 47.2487 256.617 47.545 256.421 47.755C256.23 47.965 255.95 48.07 255.581 48.07ZM257.176 43.1H257.946V45.095H258.772V43.1H259.542V48H258.772V45.795H257.946V48H257.176V43.1ZM260.116 43.1H262.216V43.8H260.886V45.095H261.943V45.795H260.886V47.3H262.216V48H260.116V43.1ZM260.256 41.966H261.096L261.586 42.771H261.005L260.256 41.966ZM263.261 43.8H262.456V43.1H264.836V43.8H264.031V48H263.261V43.8ZM265.208 43.1H267.308V43.8H265.978V45.095H267.035V45.795H265.978V47.3H267.308V48H265.208V43.1ZM267.751 43.1H268.892C269.289 43.1 269.578 43.1933 269.76 43.38C269.942 43.562 270.033 43.8443 270.033 44.227V44.528C270.033 45.0367 269.865 45.3587 269.529 45.494V45.508C269.716 45.564 269.847 45.6783 269.921 45.851C270.001 46.0237 270.04 46.2547 270.04 46.544V47.405C270.04 47.545 270.045 47.6593 270.054 47.748C270.064 47.832 270.087 47.916 270.124 48H269.34C269.312 47.9207 269.294 47.846 269.284 47.776C269.275 47.706 269.27 47.58 269.27 47.398V46.502C269.27 46.278 269.233 46.1217 269.158 46.033C269.088 45.9443 268.965 45.9 268.787 45.9H268.521V48H267.751V43.1ZM268.801 45.2C268.955 45.2 269.07 45.1603 269.144 45.081C269.224 45.0017 269.263 44.8687 269.263 44.682V44.304C269.263 44.1267 269.231 43.9983 269.165 43.919C269.105 43.8397 269.007 43.8 268.871 43.8H268.521V45.2H268.801ZM270.575 43.1H271.345V48H270.575V43.1ZM271.921 43.1H274.021V43.8H272.691V45.095H273.748V45.795H272.691V47.3H274.021V48H271.921V43.1Z" fill="white"/>
<path d="M255.988 32.4391L251.474 32.4342C251.217 32.4342 251.005 32.2268 251.005 31.9699L251 27.4806C251 27.2929 251.114 27.1201 251.291 27.0509C251.464 26.9769 251.667 27.0164 251.8 27.1497L252.684 28.0288L260.29 20.4577C260.473 20.2799 260.769 20.2799 260.952 20.4577L263.046 22.5418C263.135 22.6307 263.184 22.7443 263.184 22.8727C263.184 22.9962 263.135 23.1147 263.046 23.2036L255.44 30.7649L256.319 31.644C256.452 31.7773 256.492 31.9798 256.418 32.1527C256.349 32.3255 256.176 32.4391 255.988 32.4391ZM251.943 31.5008L254.852 31.5057L254.442 31.0958C254.26 30.913 254.26 30.6167 254.442 30.434L262.048 22.8727L260.621 21.4504L253.015 29.0166C252.832 29.1993 252.536 29.1993 252.353 29.0166L251.938 28.6116" fill="white"/>
<path d="M265.54 25.673C265.179 25.673 264.833 25.5347 264.567 25.2878C264.29 25.031 264.132 24.6803 264.117 24.3001L264.048 22.1517L264.987 22.1221L265.056 24.2704C265.061 24.3988 265.115 24.5174 265.209 24.6063C265.303 24.6952 265.436 24.7297 265.559 24.7396C265.688 24.7347 265.806 24.6803 265.895 24.5865C265.984 24.4927 266.029 24.3692 266.024 24.2408L265.92 21.3763L266.858 21.3467L266.962 24.2062C266.977 24.5865 266.844 24.947 266.582 25.2236C266.32 25.5002 265.969 25.6582 265.589 25.6681C265.569 25.673 265.555 25.673 265.54 25.673Z" fill="white"/>
<path d="M265.54 25.673C265.179 25.673 264.833 25.5347 264.567 25.2878C264.29 25.031 264.132 24.6803 264.117 24.3001L264.048 22.1517L264.987 22.1221L265.056 24.2704C265.061 24.3988 265.115 24.5174 265.209 24.6063C265.303 24.6952 265.436 24.7297 265.559 24.7396C265.688 24.7347 265.806 24.6803 265.895 24.5865C265.984 24.4927 266.029 24.3692 266.024 24.2408L265.92 21.3763L266.858 21.3467L266.962 24.2062C266.977 24.5865 266.844 24.947 266.582 25.2236C266.32 25.5002 265.969 25.6582 265.589 25.6681C265.569 25.673 265.555 25.673 265.54 25.673Z" fill="white"/>
<path d="M263.643 25.9941C263.278 25.9941 262.937 25.8607 262.67 25.6138C262.394 25.352 262.231 25.0014 262.221 24.6211L262.152 22.4727L263.09 22.4431L263.159 24.5915C263.164 24.7248 263.219 24.8433 263.312 24.9322C263.406 25.0211 263.53 25.0755 263.658 25.0607C263.925 25.0508 264.137 24.8285 264.127 24.5618L264.024 21.7023L264.962 21.6677L265.066 24.5273C265.095 25.3125 264.478 25.9644 263.693 25.9941C263.673 25.9941 263.658 25.9941 263.643 25.9941Z" fill="white"/>
<path d="M265.258 32.449C265.066 32.449 264.893 32.3305 264.824 32.1576C264.75 31.9848 264.789 31.7823 264.922 31.6489L265.806 30.7698L258.201 23.2037C258.018 23.0259 258.018 22.7295 258.201 22.5468L260.29 20.4627C260.463 20.2898 260.779 20.2898 260.952 20.4627L268.893 28.3597L268.226 29.0215L260.621 21.4553L259.193 22.8777L266.799 30.4389C266.987 30.6217 266.987 30.9229 266.799 31.1007L266.389 31.5107H269.298L269.303 27.4856H270.241L270.236 31.9749C270.236 32.2317 270.029 32.4391 269.767 32.4391L265.258 32.449Z" fill="white"/>
<path d="M260.601 36C260.478 36 260.359 35.9556 260.265 35.8617L257.075 32.696C256.941 32.5626 256.902 32.3601 256.971 32.1873C257.045 32.0095 257.218 31.8959 257.406 31.8959H258.655V23.2037C258.655 22.9469 258.863 22.7345 259.124 22.7345H262.083C262.339 22.7345 262.552 22.9469 262.552 23.2037V32.3651H261.613V23.6729H259.593V32.3651C259.593 32.6219 259.381 32.8293 259.124 32.8293H258.542L260.601 34.874L263.461 32.0342L264.127 32.696L260.932 35.8617C260.838 35.9556 260.72 36 260.601 36Z" fill="white"/>
<path d="M255.983 32.4391L251.474 32.4342C251.217 32.4342 251.005 32.2268 251.005 31.9699L251 27.4806C251 27.2929 251.114 27.1201 251.291 27.0509C251.464 26.9769 251.667 27.0164 251.8 27.1497L252.684 28.0288L260.29 20.4577C260.473 20.2799 260.769 20.2799 260.952 20.4577L263.046 22.5418C263.135 22.6307 263.184 22.7443 263.184 22.8727C263.184 22.9962 263.135 23.1147 263.046 23.2036L255.104 31.0958L254.442 30.434L262.048 22.8727L260.621 21.4504L253.015 29.0166C252.832 29.1993 252.536 29.1993 252.353 29.0166L251.938 28.6116L251.943 31.5008L255.988 31.5057" fill="white"/>
<path d="M271.407 19.0452C271.066 19.0452 270.745 18.9119 270.503 18.6748L266.098 14.2892C265.856 14.0522 265.722 13.7311 265.722 13.3953C265.722 13.0545 265.856 12.7384 266.093 12.4964L267.239 11.3556C267.723 10.8815 268.562 10.8815 269.046 11.3556L273.452 15.7412C273.95 16.2351 273.95 17.0401 273.452 17.534L272.306 18.6748C272.064 18.9119 271.748 19.0452 271.407 19.0452ZM268.142 11.9186C268.054 11.9186 267.97 11.9581 267.905 12.0174V12.0223L266.76 13.1582C266.695 13.2224 266.661 13.3064 266.661 13.3953C266.661 13.4842 266.695 13.5682 266.76 13.6274L271.165 18.013C271.293 18.1414 271.516 18.1365 271.644 18.013L272.79 16.8771C272.918 16.7438 272.918 16.5314 272.785 16.403L268.379 12.0223C268.315 11.9581 268.231 11.9186 268.142 11.9186Z" fill="white"/>
<path d="M266.742 26.6614L263.2 23.5131L262.413 24.3002L262.019 25.8743L264.381 29.0227L266.742 26.6614Z" fill="black"/>
<path d="M265.258 32.449C265.066 32.449 264.893 32.3305 264.824 32.1576C264.75 31.9848 264.789 31.7823 264.922 31.6489L265.806 30.7698L258.201 23.2037C258.018 23.0259 258.018 22.7295 258.201 22.5468L260.29 20.4627C260.463 20.2898 260.779 20.2898 260.952 20.4627L268.562 28.0338L269.441 27.1547C269.575 27.0213 269.777 26.9818 269.955 27.0559C270.128 27.125 270.241 27.2979 270.241 27.4856L270.236 31.9749C270.236 32.2317 270.029 32.4391 269.767 32.4391L265.258 32.449ZM259.193 22.8777L266.799 30.4389C266.987 30.6217 266.987 30.9229 266.799 31.1007L266.389 31.5107H269.298L269.303 28.6165L268.893 29.0215C268.71 29.2043 268.414 29.2043 268.226 29.0215L260.621 21.4553" fill="white"/>
<path d="M257.69 32.5646H259.264V23.5131H262.019L262.413 32.5646H263.2L260.445 35.713L257.69 32.5646Z" fill="black"/>
<path d="M260.601 36C260.478 36 260.359 35.9556 260.27 35.8617L257.075 32.696C256.941 32.5626 256.902 32.3601 256.971 32.1873C257.045 32.0095 257.218 31.8959 257.406 31.8959H258.655V23.2037C258.655 22.9469 258.863 22.7345 259.124 22.7345H262.083C262.339 22.7345 262.552 22.9469 262.552 23.2037V31.8959H263.791C263.984 31.8959 264.157 32.0095 264.226 32.1873C264.3 32.3601 264.261 32.5626 264.127 32.696L260.932 35.8617C260.838 35.9556 260.72 36 260.601 36ZM258.542 32.8293L260.601 34.874L262.66 32.8293H262.083C261.821 32.8293 261.613 32.6219 261.613 32.3651V23.6729H259.593V32.3651C259.593 32.6219 259.381 32.8293 259.124 32.8293" fill="white"/>
<path d="M262.413 20.8231L260.29 23.6579C259.929 24.137 260.028 24.8185 260.512 25.1741C260.991 25.5347 261.678 25.4359 262.038 24.9568L263.362 23.1887C263.89 22.4973 264.483 22.2405 264.769 22.1664C265.406 21.9985 267.323 21.2824 268.35 20.665C269.372 20.0427 269.901 18.6006 269.846 17.361L266.789 14.3187L260.3 16.3337C259.509 16.6004 259.223 17.0499 259.104 17.3166C258.986 17.5882 257.692 20.6305 257.692 20.6305C257.544 21.0107 257.46 21.4651 257.677 21.8503C257.894 22.2356 258.388 23.006 258.388 23.006L259.816 21.5836C259.816 21.5836 259.761 20.7984 259.944 20.3934C260.132 19.9934 260.329 19.3266 260.754 19.1735C261.174 19.0254 261.91 18.7883 261.91 18.7883C261.91 18.7883 261.845 19.6279 261.994 20.0773C262.147 20.5267 262.379 20.7934 262.379 20.7934" fill="black"/>
<path d="M261.164 25.8607C260.828 25.8607 260.502 25.752 260.231 25.5495C259.895 25.3026 259.677 24.9371 259.618 24.5272C259.564 24.1173 259.668 23.7074 259.919 23.3765L261.831 20.8231C261.737 20.67 261.633 20.4725 261.549 20.2255C261.475 19.9934 261.441 19.702 261.431 19.4403C261.248 19.4995 261.06 19.5637 260.912 19.6131C260.759 19.6674 260.576 20.107 260.477 20.3391L260.374 20.591C260.28 20.7885 260.265 21.2725 260.285 21.5541C260.295 21.6874 260.245 21.8207 260.152 21.9146L258.719 23.3369C258.621 23.4357 258.477 23.4851 258.339 23.4703C258.196 23.4555 258.072 23.3765 257.993 23.2579C257.993 23.2579 257.49 22.4727 257.267 22.0825C257.015 21.6331 257.01 21.0849 257.257 20.4576C257.262 20.4478 258.556 17.4006 258.675 17.1339C258.927 16.561 259.435 16.1313 260.147 15.8893L266.646 13.8743C266.814 13.82 266.997 13.8644 267.12 13.9879L270.182 17.0351C270.266 17.119 270.311 17.2277 270.315 17.3462C270.37 18.6056 269.851 20.3045 268.592 21.0602C267.525 21.7072 265.589 22.4332 264.888 22.6208C264.784 22.6455 264.241 22.8134 263.737 23.4703L262.413 25.2384C262.162 25.5693 261.801 25.7866 261.386 25.8458C261.312 25.8557 261.238 25.8607 261.164 25.8607ZM261.915 18.3241C262.018 18.3241 262.122 18.3587 262.201 18.4229C262.325 18.5217 262.394 18.6698 262.379 18.8279C262.359 19.1143 262.354 19.6674 262.443 19.9292C262.557 20.2799 262.735 20.4922 262.739 20.4922C262.922 20.6503 262.937 20.9071 262.789 21.1046L260.67 23.9345C260.566 24.0679 260.527 24.2309 260.552 24.3938C260.571 24.5568 260.66 24.705 260.794 24.7988C260.927 24.9025 261.09 24.9371 261.253 24.9223C261.416 24.8976 261.564 24.8087 261.663 24.6803L262.986 22.9073C263.663 22.0282 264.428 21.7714 264.651 21.717C265.214 21.5689 267.11 20.8676 268.103 20.265C268.947 19.7563 269.372 18.5562 269.382 17.5586L266.656 14.8522L260.438 16.7783C259.989 16.9314 259.677 17.1783 259.534 17.5043C259.416 17.7759 258.127 20.8132 258.127 20.8132C257.993 21.154 257.978 21.4306 258.087 21.6183C258.181 21.7911 258.334 22.0381 258.472 22.2603L259.342 21.4009C259.337 21.0947 259.351 20.5663 259.519 20.2008L259.613 19.9835C259.796 19.539 260.053 18.9266 260.596 18.734C261.021 18.5859 261.767 18.3439 261.767 18.3439C261.816 18.329 261.865 18.3241 261.915 18.3241Z" fill="white"/>
</g>
<defs>
<clipPath id="clip0_66_2982">
<rect width="292" height="61" fill="white"/>
</clipPath>
</defs>
</svg>
