<svg width="106" height="35" viewBox="0 0 106 35" fill="none" xmlns="http://www.w3.org/2000/svg">
<g clip-path="url(#clip0_46_2)">
<path d="M64.2917 32.8281H37.9375C32.3385 32.8281 27.7813 28.1927 27.7813 22.4896V3.63021H29.0781C29.7031 4.6875 31.3646 5.44271 33.3177 5.44271C35.276 5.44271 36.9323 4.6875 37.5573 3.63021H64.5208L71.599 18.2083L64.2917 32.8281ZM94.1042 2.26042H37.9479C37.5781 0.979167 35.6979 0 33.4271 0C31.1563 0 29.276 0.979167 28.9063 2.26042H26.4062V22.4896C26.4062 28.9479 31.6719 34.2031 38.1354 34.2031H105.833V13.9688C105.833 7.51563 100.344 2.26042 93.875 2.26042" fill="#1C1C1B"/>
<path d="M13.6406 14.2865C12.625 15.7812 13.4896 17.7448 14.5365 18.7448C15.4896 19.651 16.2552 19.8646 16.3594 19.8906L16.8437 18.9583L18.25 22.8021L14.276 23.6094L14.8021 22.6302L14.2656 22.3281C12.5937 21.2396 12.2344 19.7552 12.1198 19.2917C11.9219 18.5 11.625 16.1146 13.6406 14.2865Z" fill="#1C1C1B"/>
<path d="M13.6198 14.3542C14.3437 16.0052 16.4635 16.3281 17.8698 15.9688C19.1094 15.6563 19.6979 15.1406 19.8021 15.0521L19.7969 15.0417L19.2604 14.1198L23.2656 14.9948L21.8125 18.7865L21.2812 17.8281L20.7552 18.1146C18.9427 18.9479 17.4948 18.4583 17.0469 18.3073C16.2656 18.0521 14.0885 17.0313 13.6198 14.3542Z" fill="#1C1C1B"/>
<path d="M20.6927 10.3594C20.4167 12.3333 19.224 13.2865 18.8542 13.5833C18.2135 14.1042 16.1823 15.3802 13.6771 14.3333C15.4635 14.6146 16.875 13.0052 17.3333 11.6302C17.7448 10.401 17.6198 9.62499 17.599 9.5052L17.5833 9.49999L16.5208 9.45312L19.4115 6.55208L21.8281 9.81249L20.7396 9.74999" fill="#1C1C1B"/>
<path d="M8.5625 8.6875C7.52084 8.6875 6.70834 7.72916 6.95313 6.64583C7.08854 6.05208 7.57292 5.5625 8.17188 5.42708C9.25 5.18229 10.2135 5.99479 10.2135 7.03646C10.2135 7.94792 9.47396 8.6875 8.5625 8.6875Z" fill="#1C1C1B"/>
<path d="M10.8177 2.23958C4.85417 2.23958 0 7.09375 0 13.0625C0 19.026 4.85417 23.8802 10.8177 23.8802C11.1406 23.8802 11.4531 23.8594 11.7656 23.8333L11.8385 24.9167L13.8125 23.0052L11.599 21.3125L11.6823 22.4583C11.401 22.4792 11.1094 22.5 10.8177 22.5C10.3594 22.5 9.91146 22.4635 9.46875 22.401L9.42708 22.1146L8.39583 13.3542C8.25521 11.7031 9.19792 11.4375 9.78646 11.6875L13.0625 13.0052C13.4427 13.1667 13.6198 12.849 13.6198 12.849C13.6198 12.849 13.8333 12.5208 13.4531 12.276C13.4531 12.276 8.98437 9.3177 8.03125 9.13541C6.72917 8.89062 5.44271 9.94791 5.15625 11.3177L3.56771 19.099C1.94271 17.1458 1.08333 14.526 1.47396 11.7187C2.04687 7.58333 5.36458 4.27083 9.5 3.70833C12.8021 3.26041 15.8333 4.53124 17.8333 6.74999L18.8021 5.76562C16.8229 3.59895 13.974 2.23958 10.8177 2.23958ZM6 16.7187C6.14063 16.3333 6.35417 16.3542 6.35417 16.3542C6.35417 16.3542 6.54687 16.3177 6.65104 16.7031L8.19271 22.125C6.90625 21.75 5.72917 21.1094 4.73437 20.2656" fill="#1C1C1B"/>
<path d="M31.0781 4.02604V1.15625H33.0521V1.64583H31.6615V2.32292H32.8594V2.80729H31.6615V4.02604" fill="white"/>
<path d="M34.1146 2.36979H34.5417C34.8177 2.36979 34.9948 2.35937 35.0625 2.33333C35.1302 2.3125 35.1875 2.27083 35.224 2.21354C35.2656 2.15625 35.2865 2.08854 35.2865 2C35.2865 1.90104 35.2604 1.82292 35.2083 1.76562C35.1563 1.70833 35.0833 1.66667 34.9896 1.65104C34.9427 1.64583 34.8021 1.64583 34.5625 1.64583H34.1146V2.36979ZM33.5312 4.02604V1.15625H34.7552C35.0573 1.15625 35.2813 1.18229 35.4219 1.23437C35.5625 1.28646 35.6719 1.38021 35.7552 1.51042C35.8385 1.64062 35.8802 1.79167 35.8802 1.96354C35.8802 2.17708 35.8177 2.35417 35.6927 2.49479C35.5625 2.63542 35.375 2.72396 35.125 2.76042C35.25 2.83333 35.3542 2.91667 35.4323 3C35.5156 3.08854 35.625 3.24479 35.7656 3.46875L36.1146 4.02604H35.4219L35.0052 3.40625C34.8542 3.18229 34.75 3.04167 34.6979 2.97917C34.6406 2.92187 34.5833 2.88542 34.5208 2.86458C34.4583 2.83854 34.3646 2.82812 34.2292 2.82812H34.1146V4.02604" fill="white"/>
<path d="M95.099 14.5417L93.3542 15.2344C93.2552 15.2708 93.1875 15.3698 93.1875 15.474C93.1875 16.5625 92.6979 17.4271 91.7031 18.0625C91.6563 18.0885 91.4479 18.1771 91.0469 18.3385C91.0156 18.3438 90.9844 18.3542 90.9531 18.3698C90.5417 18.5313 89.9479 18.7552 89.1198 19.0625C88.5313 19.276 88.0261 19.6615 87.6563 20.1719L86.6042 21.6354C86.4896 21.7865 86.3229 21.8854 86.1302 21.9167C85.9427 21.9427 85.7552 21.8958 85.599 21.7813C85.4427 21.6615 85.349 21.4948 85.3177 21.3073C85.2917 21.1146 85.3386 20.9271 85.4531 20.7708L87.2656 18.3646C87.3333 18.276 87.3333 18.1563 87.2708 18.0625C86.7396 17.2969 86.9063 16.4844 86.9115 16.4792C86.9323 16.3906 86.9011 16.2917 86.8281 16.2292C86.7604 16.1719 86.6615 16.151 86.5729 16.1823L85.6615 16.5C85.4115 16.5885 85.2031 16.7552 85.0573 17L84.7604 17.6198C84.6458 17.8594 84.5781 18.1146 84.5677 18.3802L84.5417 18.8646L83.6875 19.7031L83.2396 19C83.1302 18.8073 83.1146 18.5729 83.1979 18.3698L84.3906 15.5C84.5469 15.1094 84.8646 14.8021 85.2552 14.6458L92.3021 11.901H95.099V14.5417ZM90.8906 21.1771C90.8906 21.3438 90.8281 21.5 90.7136 21.6198C90.5938 21.7396 90.4375 21.8073 90.2188 21.8073C89.8802 21.8073 89.6042 21.5365 89.599 21.1979L89.5469 19.4531C90.0938 19.25 90.5156 19.0938 90.8438 18.9688L90.8906 21.1771ZM87.9844 20.599L88.0729 20.474C88.3281 20.125 88.6563 19.849 89.0365 19.6615L89.0833 21.2083C89.0886 21.4115 89.1511 21.5938 89.2448 21.7552L87.9844 20.599ZM86.1875 18.9479L85.4688 18.2917C85.3698 18.1979 85.2136 18.2031 85.1146 18.2969L85.0938 18.3177C85.1146 18.151 85.1511 17.9948 85.224 17.8438L85.5052 17.2448C85.5833 17.125 85.6979 17.0313 85.8281 16.9844L86.3698 16.7969C86.3646 17.1458 86.4323 17.6667 86.7448 18.1979L86.1875 18.9479ZM92.6042 25.2031L93.1458 24.6615V27.5521H90.2448L90.7917 27.0104C90.8386 26.9635 90.8698 26.8958 90.8646 26.8229C90.8646 26.7552 90.8333 26.6875 90.7813 26.6406L86.9792 23.1458C86.9011 23.0781 86.7917 23.0573 86.7031 23.099C86.6042 23.1406 86.5469 23.2292 86.5469 23.3333V28.4427C86.5469 28.5885 86.6615 28.7031 86.8021 28.7031H87.5729L85.5261 30.7448L83.474 28.7031H84.2396C84.3854 28.7031 84.5 28.5885 84.5 28.4427V23.1094C84.5 23.0052 84.4375 22.9115 84.3438 22.8698C84.2448 22.8333 84.1354 22.8542 84.0625 22.9271L80.2865 26.6458C80.2344 26.6927 80.2083 26.7604 80.2083 26.8281C80.2083 26.8958 80.2344 26.9635 80.2813 27.0104L80.8281 27.5521H77.9323L77.9271 24.6615L78.4688 25.2031C78.5729 25.3021 78.7344 25.3073 78.8333 25.2031L84.9479 19.1875C84.9583 19.1771 84.9688 19.1667 84.9792 19.151L85.3021 18.8333L85.875 19.3594L85.0417 20.4635C84.8438 20.7292 84.7604 21.0521 84.8073 21.375C84.8542 21.7031 85.0261 21.9896 85.2917 22.1875C85.5052 22.349 85.7656 22.4375 86.0261 22.4375C86.0886 22.4375 86.1458 22.4323 86.2083 22.4219C86.5313 22.375 86.8229 22.2031 87.0208 21.9375L87.6823 21.0208L92.2448 25.2083C92.349 25.3073 92.5052 25.3021 92.6042 25.2031ZM95.3542 11.3906H92.2552C92.224 11.3906 92.1927 11.3958 92.1615 11.4063L85.0677 14.1719C84.5469 14.3698 84.125 14.7865 83.9115 15.3021L82.7188 18.1719C82.5781 18.5208 82.6042 18.9271 82.7969 19.2604L83.3125 20.0729L78.6563 24.6615L77.8542 23.8594C77.7813 23.7865 77.6667 23.7656 77.5729 23.8073C77.4792 23.8438 77.4115 23.9375 77.4115 24.0417L77.4167 27.8125C77.4167 27.9531 77.5313 28.0677 77.6719 28.0677H81.4479C81.5521 28.0677 81.6458 28.0052 81.6875 27.9063C81.724 27.8125 81.7031 27.6979 81.6302 27.625L80.8281 26.8281L83.9844 23.724V28.1875H82.8542C82.75 28.1875 82.6563 28.25 82.6146 28.3438C82.5781 28.4427 82.599 28.5521 82.6719 28.625L85.3386 31.2917C85.3906 31.3385 85.4531 31.3646 85.5261 31.3646C85.5938 31.3646 85.6563 31.3385 85.7031 31.2917L88.375 28.625C88.4479 28.5521 88.4688 28.4427 88.4323 28.3438C88.3906 28.25 88.2969 28.1875 88.1927 28.1875H87.0625V23.9167L90.2344 26.8385L89.4427 27.625C89.3698 27.6979 89.349 27.8125 89.3906 27.9063C89.4271 28.0052 89.5208 28.0677 89.625 28.0677H93.4011C93.5417 28.0677 93.6563 27.9531 93.6563 27.8125L93.6615 24.0417C93.6615 23.9375 93.599 23.8438 93.5 23.8073C93.4063 23.7656 93.2969 23.7865 93.2188 23.8594L92.4115 24.6667L89.7136 22.1875C89.8802 22.2708 90.0625 22.3177 90.2708 22.3177C90.5729 22.3177 90.8646 22.1979 91.0781 21.9792C91.2917 21.7604 91.4063 21.474 91.4011 21.1667L91.3542 18.7656C91.875 18.5625 91.9583 18.5104 92.0052 18.4792C93.3177 17.6406 93.6615 16.5104 93.6979 15.651L95.4479 14.9583C95.5469 14.9167 95.6146 14.8229 95.6146 14.7188V11.6458C95.6146 11.5052 95.5 11.3906 95.3542 11.3906Z" fill="white"/>
<path d="M76.8542 7.70313C76.8542 7.10938 76.5938 6.81251 76.0677 6.81251H75.7604V8.60938H76.0104C76.5729 8.60938 76.8542 8.3073 76.8542 7.70313ZM77.4635 7.68751C77.4635 8.14063 77.3333 8.48438 77.0729 8.72917C76.8125 8.96876 76.4427 9.08855 75.9531 9.08855H75.1719V6.33855H76.0417C76.4896 6.33855 76.8385 6.45834 77.0885 6.69271C77.3385 6.9323 77.4635 7.26042 77.4635 7.68751Z" fill="white"/>
<path d="M78.526 6.11979V6.06771C78.7396 5.81771 78.8854 5.625 78.9635 5.5H79.6094V5.53646C79.5469 5.60417 79.4323 5.70313 79.276 5.83333C79.1198 5.95833 78.9948 6.05729 78.9062 6.11979H78.526ZM79.6562 9.08854H78.0729V6.33854H79.6562V6.8125H78.6562V7.42187H79.5885V7.89583H78.6562V8.60937H79.6562" fill="white"/>
<path d="M81.4427 6.78125C81.2239 6.78125 81.0521 6.86458 80.9323 7.03125C80.8125 7.19792 80.75 7.42708 80.75 7.71875C80.75 8.33333 80.9792 8.64063 81.4427 8.64063C81.6354 8.64063 81.8698 8.59375 82.1458 8.49479V8.98438C81.9219 9.07813 81.6667 9.125 81.3906 9.125C80.9844 9.125 80.6823 9.00521 80.4687 8.76042C80.2552 8.52083 80.151 8.17188 80.151 7.71875C80.151 7.43229 80.2031 7.18229 80.3073 6.96354C80.4114 6.75 80.5625 6.58333 80.7552 6.46875C80.9531 6.35417 81.1823 6.29688 81.4427 6.29688C81.7083 6.29688 81.9792 6.36458 82.25 6.48958L82.0625 6.96354C81.9583 6.91667 81.8542 6.875 81.75 6.83854C81.6458 6.80208 81.5417 6.78125 81.4427 6.78125Z" fill="white"/>
<path d="M85.0313 9.08855H84.4479V7.90105H83.3542V9.08855H82.7708V6.33855H83.3542V7.41667H84.4479V6.33855H85.0313" fill="white"/>
<path d="M86.6146 6.11979C86.5365 6.0625 86.4167 5.97396 86.2656 5.84896C86.1094 5.72396 85.9896 5.625 85.9063 5.53646V5.5H86.5469C86.6302 5.625 86.776 5.81771 86.9896 6.06771V6.11979H86.6146ZM87.349 9.08854H85.7656V6.33854H87.349V6.8125H86.349V7.42187H87.2813V7.89583H86.349V8.60937H87.349" fill="white"/>
<path d="M89.0261 9.08855H88.4427V6.82292H87.6927V6.33855H89.7761V6.82292H89.0261" fill="white"/>
<path d="M91.8281 9.08855H90.2396V6.33855H91.8281V6.81771H90.8229V7.42188H91.7552V7.89584H90.8229V8.60938H91.8281" fill="white"/>
<path d="M93.0261 7.5573H93.2136C93.3958 7.5573 93.5365 7.52605 93.625 7.46876C93.7083 7.40626 93.7552 7.3073 93.7552 7.17709C93.7552 7.04688 93.7083 6.95313 93.6198 6.90105C93.5313 6.84376 93.3906 6.81771 93.2031 6.81771H93.0261V7.5573ZM93.0261 8.03126V9.08855H92.4427V6.33855H93.2448C93.6198 6.33855 93.8958 6.40626 94.0729 6.54167C94.2552 6.67709 94.3438 6.88542 94.3438 7.16146C94.3438 7.32292 94.3021 7.46876 94.2136 7.59376C94.125 7.71876 93.9948 7.81771 93.8333 7.89063C94.2448 8.51042 94.5156 8.90626 94.6406 9.08855H93.9948L93.3333 8.03126" fill="white"/>
<path d="M95.0312 9.08855H95.6146V6.33855H95.0312V9.08855Z" fill="white"/>
<path d="M97.9323 9.08855H96.3438V6.33855H97.9323V6.81771H96.9271V7.42188H97.8646V7.89584H96.9271V8.60938H97.9323" fill="white"/>
<path d="M34.4453 13.0093C34.3005 13.0093 34.1719 13.0378 34.0596 13.0947C33.9489 13.1501 33.8553 13.2306 33.7788 13.3364C33.7039 13.4422 33.647 13.57 33.6079 13.7197C33.5688 13.8695 33.5493 14.0379 33.5493 14.2251C33.5493 14.4774 33.5802 14.693 33.6421 14.8721C33.7056 15.0495 33.8032 15.1854 33.9351 15.2798C34.0669 15.3726 34.237 15.4189 34.4453 15.4189C34.5902 15.4189 34.735 15.4027 34.8799 15.3701C35.0264 15.3376 35.1851 15.2912 35.356 15.231V15.8657C35.1981 15.9308 35.0426 15.9772 34.8896 16.0049C34.7367 16.0342 34.5649 16.0488 34.3745 16.0488C34.0067 16.0488 33.7039 15.9731 33.4663 15.8218C33.2303 15.6688 33.0553 15.4556 32.9414 15.1821C32.8275 14.9071 32.7705 14.5864 32.7705 14.2202C32.7705 13.95 32.8071 13.7026 32.8804 13.478C32.9536 13.2534 33.061 13.0589 33.2026 12.8945C33.3442 12.7301 33.5192 12.6032 33.7275 12.5137C33.9359 12.4242 34.1751 12.3794 34.4453 12.3794C34.6227 12.3794 34.8001 12.4022 34.9775 12.4478C35.1566 12.4917 35.3275 12.5527 35.4902 12.6309L35.2461 13.2461C35.1126 13.1826 34.9784 13.1273 34.8433 13.0801C34.7082 13.0329 34.5755 13.0093 34.4453 13.0093ZM38.1733 16H36.1177V12.4307H38.1733V13.0508H36.8745V13.8345H38.083V14.4546H36.8745V15.375H38.1733V16ZM41.3594 12.4307C41.82 12.4307 42.1561 12.5299 42.3677 12.7285C42.5793 12.9255 42.6851 13.1973 42.6851 13.5439C42.6851 13.7002 42.6615 13.8499 42.6143 13.9932C42.5671 14.1348 42.4897 14.2609 42.3823 14.3716C42.2765 14.4823 42.1349 14.5701 41.9575 14.6353C41.7801 14.6987 41.5612 14.7305 41.3008 14.7305H40.9761V16H40.2192V12.4307H41.3594ZM41.3203 13.0508H40.9761V14.1104H41.2251C41.3667 14.1104 41.4896 14.0916 41.5938 14.0542C41.6979 14.0168 41.7785 13.9582 41.8354 13.8784C41.8924 13.7987 41.9209 13.6961 41.9209 13.5708C41.9209 13.395 41.8721 13.2648 41.7744 13.1802C41.6768 13.0939 41.5254 13.0508 41.3203 13.0508ZM44.3989 12.4307C44.7228 12.4307 44.9897 12.4697 45.1997 12.5479C45.4113 12.626 45.5684 12.744 45.6709 12.9019C45.7734 13.0597 45.8247 13.2591 45.8247 13.5C45.8247 13.6628 45.7938 13.8052 45.7319 13.9272C45.6701 14.0493 45.5887 14.1527 45.4878 14.2373C45.3869 14.3219 45.2778 14.3911 45.1606 14.4448L46.2104 16H45.3706L44.5186 14.6304H44.1157V16H43.3589V12.4307H44.3989ZM44.3452 13.0508H44.1157V14.0151H44.3599C44.6105 14.0151 44.7896 13.9736 44.897 13.8906C45.006 13.806 45.0605 13.6823 45.0605 13.5195C45.0605 13.3503 45.002 13.2298 44.8848 13.1582C44.7692 13.0866 44.5894 13.0508 44.3452 13.0508ZM49.8994 14.2104C49.8994 14.4855 49.8652 14.7362 49.7969 14.9624C49.7285 15.187 49.6243 15.3807 49.4844 15.5435C49.346 15.7062 49.1702 15.8315 48.957 15.9194C48.7438 16.0057 48.4915 16.0488 48.2002 16.0488C47.9089 16.0488 47.6566 16.0057 47.4434 15.9194C47.2301 15.8315 47.0535 15.7062 46.9136 15.5435C46.7752 15.3807 46.6719 15.1862 46.6035 14.96C46.5352 14.7337 46.501 14.4823 46.501 14.2056C46.501 13.8361 46.5612 13.5146 46.6816 13.2412C46.8037 12.9661 46.9909 12.7529 47.2432 12.6016C47.4954 12.4502 47.8161 12.3745 48.2051 12.3745C48.5924 12.3745 48.9106 12.4502 49.1597 12.6016C49.4103 12.7529 49.5959 12.9661 49.7163 13.2412C49.8384 13.5163 49.8994 13.8394 49.8994 14.2104ZM47.2944 14.2104C47.2944 14.4595 47.3254 14.6743 47.3872 14.855C47.4507 15.034 47.5492 15.1724 47.6826 15.27C47.8161 15.366 47.9886 15.4141 48.2002 15.4141C48.415 15.4141 48.5892 15.366 48.7227 15.27C48.8561 15.1724 48.953 15.034 49.0132 14.855C49.075 14.6743 49.106 14.4595 49.106 14.2104C49.106 13.8361 49.036 13.5415 48.896 13.3267C48.756 13.1118 48.5257 13.0044 48.2051 13.0044C47.9919 13.0044 47.8177 13.0532 47.6826 13.1509C47.5492 13.2469 47.4507 13.3853 47.3872 13.5659C47.3254 13.745 47.2944 13.9598 47.2944 14.2104ZM53.6006 14.1812C53.6006 14.5832 53.5233 14.9193 53.3687 15.1895C53.2157 15.458 52.9935 15.6606 52.7021 15.7974C52.4108 15.9325 52.0601 16 51.6499 16H50.6392V12.4307H51.7598C52.1341 12.4307 52.4588 12.4974 52.7339 12.6309C53.009 12.7627 53.2222 12.9588 53.3735 13.2192C53.5249 13.478 53.6006 13.7987 53.6006 14.1812ZM52.8145 14.2007C52.8145 13.937 52.7754 13.7205 52.6973 13.5513C52.6208 13.3804 52.5068 13.2542 52.3555 13.1729C52.2057 13.0915 52.0202 13.0508 51.7988 13.0508H51.396V15.375H51.7207C52.0902 15.375 52.3644 15.2765 52.5435 15.0796C52.7241 14.8826 52.8145 14.5897 52.8145 14.2007ZM57.2456 12.4307V14.7402C57.2456 14.986 57.1911 15.2082 57.082 15.4067C56.9746 15.6037 56.811 15.7599 56.5913 15.8755C56.3732 15.991 56.0981 16.0488 55.7661 16.0488C55.2941 16.0488 54.9344 15.9284 54.687 15.6875C54.4396 15.4466 54.3159 15.1276 54.3159 14.7305V12.4307H55.0703V14.6157C55.0703 14.9103 55.1305 15.117 55.251 15.2358C55.3714 15.3547 55.5496 15.4141 55.7856 15.4141C55.9517 15.4141 56.0859 15.3856 56.1885 15.3286C56.2926 15.2716 56.3691 15.1838 56.418 15.0649C56.4668 14.9461 56.4912 14.7948 56.4912 14.6108V12.4307H57.2456ZM58.1196 16V12.4307H58.8765V16H58.1196ZM61.1519 16H60.395V13.0605H59.4258V12.4307H62.1211V13.0605H61.1519V16ZM46.6865 19.4307V21.7402C46.6865 21.986 46.632 22.2082 46.5229 22.4067C46.4155 22.6037 46.252 22.7599 46.0322 22.8755C45.8141 22.991 45.5391 23.0488 45.207 23.0488C44.735 23.0488 44.3753 22.9284 44.1279 22.6875C43.8805 22.4466 43.7568 22.1276 43.7568 21.7305V19.4307H44.5112V21.6157C44.5112 21.9103 44.5715 22.117 44.6919 22.2358C44.8123 22.3547 44.9906 22.4141 45.2266 22.4141C45.3926 22.4141 45.5269 22.3856 45.6294 22.3286C45.7336 22.2716 45.8101 22.1838 45.8589 22.0649C45.9077 21.9461 45.9321 21.7948 45.9321 21.6108V19.4307H46.6865ZM49.6675 22.0088C49.6675 22.2204 49.6162 22.4043 49.5137 22.5605C49.4111 22.7168 49.2614 22.8372 49.0645 22.9219C48.8691 23.0065 48.6315 23.0488 48.3516 23.0488C48.2279 23.0488 48.1066 23.0407 47.9878 23.0244C47.8706 23.0081 47.7575 22.9845 47.6484 22.9536C47.541 22.9211 47.4385 22.8812 47.3408 22.834V22.1309C47.5101 22.2057 47.6859 22.2733 47.8682 22.3335C48.0505 22.3937 48.2311 22.4238 48.4102 22.4238C48.5339 22.4238 48.6331 22.4076 48.708 22.375C48.7845 22.3424 48.8398 22.2977 48.874 22.2407C48.9082 22.1838 48.9253 22.1187 48.9253 22.0454C48.9253 21.9559 48.8952 21.8794 48.835 21.8159C48.7747 21.7524 48.6917 21.693 48.5859 21.6377C48.4818 21.5824 48.3638 21.5229 48.2319 21.4595C48.1489 21.4204 48.0586 21.3732 47.9609 21.3179C47.8633 21.2609 47.7705 21.1917 47.6826 21.1104C47.5947 21.029 47.5223 20.9305 47.4653 20.8149C47.41 20.6978 47.3823 20.5578 47.3823 20.395C47.3823 20.1818 47.4312 19.9995 47.5288 19.8481C47.6265 19.6968 47.7656 19.5812 47.9463 19.5015C48.1286 19.4201 48.3434 19.3794 48.5908 19.3794C48.7764 19.3794 48.953 19.4014 49.1206 19.4453C49.2899 19.4876 49.4665 19.5495 49.6504 19.6309L49.4062 20.2192C49.2419 20.1525 49.0946 20.1012 48.9644 20.0654C48.8341 20.028 48.7015 20.0093 48.5664 20.0093C48.472 20.0093 48.3914 20.0247 48.3247 20.0557C48.258 20.085 48.2075 20.1273 48.1733 20.1826C48.1392 20.2363 48.1221 20.299 48.1221 20.3706C48.1221 20.4552 48.1465 20.5269 48.1953 20.5854C48.2458 20.6424 48.3206 20.6978 48.4199 20.7515C48.5208 20.8052 48.6462 20.8678 48.7959 20.9395C48.9782 21.0257 49.1336 21.116 49.2622 21.2104C49.3924 21.3032 49.4925 21.4131 49.5625 21.54C49.6325 21.6654 49.6675 21.8216 49.6675 22.0088ZM52.3701 23H50.3145V19.4307H52.3701V20.0508H51.0713V20.8345H52.2798V21.4546H51.0713V22.375H52.3701V23ZM52.3286 18.3296V18.3809C52.2814 18.4264 52.2196 18.4826 52.1431 18.5493C52.0666 18.616 51.9844 18.686 51.8965 18.7593C51.8086 18.8309 51.7223 18.9001 51.6377 18.9668C51.5531 19.0319 51.479 19.0864 51.4155 19.1304H50.9199V19.0645C50.9736 19.0026 51.0355 18.9294 51.1055 18.8447C51.1771 18.7585 51.2479 18.6698 51.3179 18.5786C51.3879 18.4875 51.4465 18.4045 51.4937 18.3296H52.3286Z" fill="black"/>
</g>
<defs>
<clipPath id="clip0_46_2">
<rect width="106" height="35" fill="white"/>
</clipPath>
</defs>
</svg>
