<svg width="270" height="61" viewBox="0 0 270 61" fill="none" xmlns="http://www.w3.org/2000/svg">
<path d="M24.6979 60.4688C11.0781 60.4688 0 49.5208 0 36.0625V0H234.948C248.563 0 259.641 10.9479 259.641 24.4062V60.4688" fill="white"/>
<path d="M222.083 52.9114H69.1353C59.6874 52.9114 51.9999 45.3541 51.9999 36.0625V7.55725H204.948C214.396 7.55725 222.083 15.1145 222.083 24.4062V52.9114ZM204.948 5.66663H50.1145V36.0625C50.1145 46.3958 58.6458 54.802 69.1353 54.802H223.969V24.4062C223.969 14.0729 215.437 5.66663 204.948 5.66663Z" fill="#333347"/>
<path d="M196.714 54.802L209.724 28.2239L196.432 5.66663H234.948C245.437 5.66663 253.969 14.0729 253.969 24.4062V54.802" fill="#333347"/>
<path d="M102.901 5.66663H50.1145V36.0625C50.1145 46.3958 58.6458 54.802 69.1353 54.802H121.927V24.4062C121.927 14.0729 113.391 5.66663 102.901 5.66663Z" fill="#333347"/>
<path d="M63.651 29.3594C58.8489 29.3594 54.9583 33.25 54.9583 38.0521C54.9583 42.8542 58.8489 46.7448 63.651 46.7448C68.4583 46.7448 72.3489 42.8542 72.3489 38.0521C72.3489 33.25 68.4583 29.3594 63.651 29.3594Z" fill="white"/>
<path d="M69.3229 39.4688H65.0729V43.7188H62.2344V39.4688H57.9844V36.6355H62.2344V32.3802H65.0729V36.6355H69.3229" fill="#1C1C1B"/>
<path d="M55.7864 26.5937V17.1979H58.2708V24.5156H61.828V26.5937" fill="white"/>
<path d="M62.9426 26.5937V17.1979H69.0155V19.276H65.4322V20.7552H68.4947V22.8385H65.4322V24.5156H69.1614V26.5937" fill="white"/>
<path d="M75.0885 26.5937V19.276H72.6041V17.1979H80.0677V19.276H77.5781V26.5937" fill="white"/>
<path d="M83.5521 21.4739H84.4479C85.4479 21.4739 85.9531 21.0625 85.9531 20.2343C85.9531 19.8281 85.8229 19.5468 85.5677 19.3958C85.3125 19.2395 84.9375 19.1614 84.4479 19.1614H83.5521V21.4739ZM81.0625 26.5989V17.1979H84.6198C85.125 17.1979 85.6042 17.2448 86.0625 17.3385C86.5208 17.4375 86.9167 17.5989 87.2604 17.8333C87.6042 18.0625 87.875 18.375 88.0781 18.7656C88.2813 19.1562 88.3802 19.6458 88.3802 20.2343C88.3802 20.9062 88.2448 21.4687 87.9688 21.9114C87.6979 22.3541 87.3281 22.6979 86.8646 22.9531L88.901 26.5989H86.125L84.5052 23.4427H83.5521V26.5989" fill="white"/>
<path d="M89.8698 26.5989H92.3593V17.1979H89.8698V26.5989Z" fill="white"/>
<path d="M75.3801 43.276V33.8698H81.5103V35.9531H77.8697V37.75H80.9895V39.8333H77.8697V43.276" fill="white"/>
<path d="M84.9218 38.7031L84.7604 39.3541H86.4948L86.3385 38.7031C86.2239 38.25 86.1041 37.7604 85.9895 37.2291C85.875 36.6979 85.7604 36.1979 85.6406 35.7239H85.5833C85.4791 36.2031 85.3698 36.7083 85.2604 37.2343C85.151 37.7604 85.0364 38.25 84.9218 38.7031ZM81.3073 43.276L84.1666 33.8698H87.1718L90.0364 43.276H87.4062L86.9427 41.276H84.3125L83.8489 43.276" fill="white"/>
<path d="M94.5624 43.4479C93.9687 43.4479 93.3958 43.3489 92.8541 43.151C92.3072 42.9531 91.8333 42.651 91.4218 42.2552C91.0103 41.8541 90.6822 41.3541 90.4426 40.75C90.203 40.1458 90.0833 39.4479 90.0833 38.6458C90.0833 37.8541 90.2083 37.151 90.4583 36.5416C90.7083 35.927 91.0416 35.4114 91.4635 34.9948C91.8801 34.5729 92.3645 34.25 92.9114 34.0312C93.4583 33.8073 94.026 33.6979 94.6249 33.6979C95.2499 33.6979 95.8124 33.8229 96.302 34.0677C96.7968 34.3125 97.2083 34.6041 97.5468 34.9427L96.2447 36.5312C96.0155 36.3333 95.776 36.1666 95.5312 36.0312C95.2812 35.9062 94.9999 35.8385 94.6822 35.8385C94.401 35.8385 94.1405 35.901 93.8958 36.026C93.651 36.151 93.4322 36.3333 93.2447 36.5625C93.0572 36.7916 92.9062 37.0781 92.7968 37.4166C92.6822 37.75 92.6301 38.1354 92.6301 38.5573C92.6301 39.4479 92.8124 40.125 93.1874 40.5989C93.5572 41.0677 94.0468 41.3073 94.651 41.3073C95.0208 41.3073 95.3437 41.2291 95.6301 41.0677C95.9114 40.9062 96.1562 40.7187 96.3593 40.4948L97.6614 42.0573C97.2551 42.5208 96.7916 42.8698 96.2655 43.0989C95.7395 43.3333 95.1718 43.4479 94.5624 43.4479Z" fill="white"/>
<path d="M98.6198 43.276H101.104V33.8698H98.6198V43.276Z" fill="white"/>
<path d="M102.875 43.276V33.8698H105.365V41.1927H108.922V43.276" fill="white"/>
<path d="M110.031 43.276V33.8698H116.109V35.9531H112.521V37.4323H115.589V39.5156H112.521V41.1927H116.255V43.276" fill="white"/>
<path d="M28.4062 25.7448C26.7135 28.2343 28.151 31.5104 29.8958 33.1718C31.4895 34.6823 32.7655 35.0364 32.9322 35.0781L33.7447 33.5208L36.0885 39.9323L29.4635 41.2812L30.3437 39.6458L29.4478 39.1458C26.6562 37.3281 26.0676 34.8593 25.8749 34.0885C25.5416 32.7604 25.0468 28.7864 28.4062 25.7448Z" fill="#333347"/>
<path d="M28.375 25.8489C29.5781 28.6093 33.1146 29.1406 35.4479 28.552C37.5208 28.026 38.5052 27.1718 38.6719 27.0156L38.6615 27L37.776 25.4635L44.4427 26.9218L42.0313 33.2395L41.1354 31.6458L40.2656 32.1198C37.2396 33.5104 34.8333 32.6927 34.0781 32.4427C32.7813 32.0156 29.1562 30.3125 28.375 25.8489Z" fill="#333347"/>
<path d="M40.1613 19.1927C39.6978 22.4895 37.7134 24.0729 37.0936 24.5729C36.0311 25.4375 32.6457 27.5677 28.4634 25.8177C31.4373 26.2916 33.7967 23.6041 34.5571 21.3177C35.2446 19.2656 35.0415 17.9687 34.9998 17.7708L34.979 17.7656L33.2134 17.6927L38.0259 12.8541L42.0519 18.2864L40.2342 18.1823" fill="#333347"/>
<path fill-rule="evenodd" clip-rule="evenodd" d="M19.9375 16.4115C18.4167 16.4115 17.1875 15.1823 17.1875 13.6563C17.1875 12.1354 18.4167 10.9062 19.9375 10.9062C21.4583 10.9062 22.6927 12.1354 22.6927 13.6563C22.6927 15.1823 21.4583 16.4115 19.9375 16.4115Z" fill="#333347"/>
<path d="M15.6771 29.7968C15.9115 29.151 16.2604 29.1927 16.2604 29.1927C16.2604 29.1927 16.5781 29.125 16.7552 29.7708L19.3281 38.8073C17.1823 38.1823 15.224 37.1198 13.5573 35.7083L15.6771 29.7968ZM23.7031 5.66663C13.7604 5.66663 5.67188 13.7552 5.67188 23.6979C5.67188 33.6406 13.7604 41.7291 23.7031 41.7291C24.2344 41.7291 24.7552 41.6979 25.276 41.651L25.3958 43.4635L28.6979 40.2708L25.0052 37.4531L25.1458 39.3541C24.6719 39.401 24.1875 39.4323 23.7031 39.4323C22.9375 39.4323 22.1875 39.375 21.4531 39.2656L21.3802 38.7864L19.6667 24.1875C19.4323 21.4323 21.0052 20.9948 21.9792 21.4062L27.4479 23.6041C28.0729 23.875 28.375 23.3489 28.375 23.3489C28.375 23.3489 28.7292 22.802 28.0938 22.3958C28.0938 22.3958 20.6406 17.4583 19.0521 17.1562C16.8854 16.7552 14.7396 18.5104 14.2656 20.7968L11.6198 33.7604C9.34375 31.0312 7.96875 27.5208 7.96875 23.6979C7.96875 15.0208 15.026 7.9635 23.7031 7.9635C28.3385 7.9635 32.5104 9.97913 35.3906 13.177L37.0052 11.5364C33.7083 7.93225 28.9635 5.66663 23.7031 5.66663Z" fill="#333347"/>
<path d="M133.26 29.324C133.26 28.7 133.184 28.248 133.032 27.968C132.888 27.68 132.62 27.536 132.228 27.536C132.012 27.536 131.832 27.596 131.688 27.716C131.552 27.828 131.444 28.016 131.364 28.28C131.284 28.536 131.228 28.876 131.196 29.3C131.164 29.716 131.148 30.228 131.148 30.836C131.148 31.484 131.168 32.008 131.208 32.408C131.256 32.808 131.324 33.12 131.412 33.344C131.508 33.56 131.624 33.708 131.76 33.788C131.904 33.86 132.068 33.896 132.252 33.896C132.404 33.896 132.544 33.872 132.672 33.824C132.808 33.768 132.924 33.664 133.02 33.512C133.116 33.352 133.192 33.132 133.248 32.852C133.304 32.564 133.332 32.188 133.332 31.724H135.06C135.06 32.188 135.024 32.628 134.952 33.044C134.88 33.46 134.744 33.824 134.544 34.136C134.352 34.448 134.076 34.692 133.716 34.868C133.364 35.044 132.904 35.132 132.336 35.132C131.688 35.132 131.172 35.028 130.788 34.82C130.404 34.612 130.108 34.312 129.9 33.92C129.7 33.528 129.568 33.06 129.504 32.516C129.448 31.972 129.42 31.372 129.42 30.716C129.42 30.068 129.448 29.472 129.504 28.928C129.568 28.376 129.7 27.904 129.9 27.512C130.108 27.12 130.404 26.816 130.788 26.6C131.172 26.376 131.688 26.264 132.336 26.264C132.952 26.264 133.436 26.364 133.788 26.564C134.148 26.764 134.416 27.02 134.592 27.332C134.768 27.636 134.876 27.968 134.916 28.328C134.964 28.68 134.988 29.012 134.988 29.324H133.26ZM136.045 26.432H137.773V29.708H139.789V26.432H141.517V35H139.789V31.196H137.773V35H136.045V26.432ZM147.501 26.432V27.848H144.441V29.864H147.321V31.28H144.441V33.584H147.621V35H142.713V26.432H147.501ZM147.987 26.432H149.643L150.591 32.768H150.615L151.623 26.432H153.279L154.287 32.768H154.311L155.259 26.432H156.915L155.355 35H153.423L152.463 28.784H152.439L151.479 35H149.547L147.987 26.432ZM157.692 35V26.432H159.42V35H157.692ZM162.694 26.432L164.782 32.3H164.806V26.432H166.39V35H164.422L162.31 29H162.286V35H160.702V26.432H162.694ZM171.396 28.976C171.396 28.816 171.376 28.652 171.336 28.484C171.304 28.316 171.248 28.164 171.168 28.028C171.088 27.884 170.984 27.768 170.856 27.68C170.736 27.584 170.588 27.536 170.412 27.536C169.996 27.536 169.696 27.768 169.512 28.232C169.328 28.696 169.236 29.464 169.236 30.536C169.236 31.048 169.252 31.512 169.284 31.928C169.316 32.344 169.372 32.7 169.452 32.996C169.54 33.284 169.66 33.508 169.812 33.668C169.972 33.82 170.176 33.896 170.424 33.896C170.528 33.896 170.64 33.868 170.76 33.812C170.888 33.756 171.004 33.672 171.108 33.56C171.22 33.448 171.312 33.308 171.384 33.14C171.456 32.964 171.492 32.76 171.492 32.528V31.652H170.352V30.38H173.148V35H171.876V34.208H171.852C171.644 34.544 171.392 34.784 171.096 34.928C170.808 35.064 170.46 35.132 170.052 35.132C169.524 35.132 169.092 35.04 168.756 34.856C168.428 34.672 168.168 34.388 167.976 34.004C167.792 33.62 167.668 33.148 167.604 32.588C167.54 32.02 167.508 31.364 167.508 30.62C167.508 29.9 167.552 29.268 167.64 28.724C167.736 28.18 167.896 27.728 168.12 27.368C168.344 27 168.64 26.724 169.008 26.54C169.376 26.356 169.836 26.264 170.388 26.264C171.332 26.264 172.012 26.5 172.428 26.972C172.844 27.436 173.052 28.104 173.052 28.976H171.396ZM177.572 30.824V32.24H174.188V30.824H177.572ZM182.506 28.976C182.506 28.816 182.486 28.652 182.446 28.484C182.414 28.316 182.358 28.164 182.278 28.028C182.198 27.884 182.094 27.768 181.966 27.68C181.846 27.584 181.698 27.536 181.522 27.536C181.106 27.536 180.806 27.768 180.622 28.232C180.438 28.696 180.346 29.464 180.346 30.536C180.346 31.048 180.362 31.512 180.394 31.928C180.426 32.344 180.482 32.7 180.562 32.996C180.65 33.284 180.77 33.508 180.922 33.668C181.082 33.82 181.286 33.896 181.534 33.896C181.638 33.896 181.75 33.868 181.87 33.812C181.998 33.756 182.114 33.672 182.218 33.56C182.33 33.448 182.422 33.308 182.494 33.14C182.566 32.964 182.602 32.76 182.602 32.528V31.652H181.462V30.38H184.258V35H182.986V34.208H182.962C182.754 34.544 182.502 34.784 182.206 34.928C181.918 35.064 181.57 35.132 181.162 35.132C180.634 35.132 180.202 35.04 179.866 34.856C179.538 34.672 179.278 34.388 179.086 34.004C178.902 33.62 178.778 33.148 178.714 32.588C178.65 32.02 178.618 31.364 178.618 30.62C178.618 29.9 178.662 29.268 178.75 28.724C178.846 28.18 179.006 27.728 179.23 27.368C179.454 27 179.75 26.724 180.118 26.54C180.486 26.356 180.946 26.264 181.498 26.264C182.442 26.264 183.122 26.5 183.538 26.972C183.954 27.436 184.162 28.104 184.162 28.976H182.506ZM186.99 26.432V32.408C186.99 32.624 187.002 32.824 187.026 33.008C187.058 33.184 187.11 33.34 187.182 33.476C187.262 33.604 187.366 33.708 187.494 33.788C187.63 33.86 187.798 33.896 187.998 33.896C188.206 33.896 188.374 33.86 188.502 33.788C188.63 33.708 188.73 33.604 188.802 33.476C188.882 33.34 188.934 33.184 188.958 33.008C188.99 32.824 189.006 32.624 189.006 32.408V26.432H190.734V32.408C190.734 32.952 190.658 33.404 190.506 33.764C190.354 34.116 190.15 34.396 189.894 34.604C189.638 34.812 189.346 34.952 189.018 35.024C188.69 35.096 188.35 35.132 187.998 35.132C187.646 35.132 187.306 35.1 186.978 35.036C186.65 34.972 186.358 34.844 186.102 34.652C185.846 34.452 185.642 34.172 185.49 33.812C185.338 33.452 185.262 32.984 185.262 32.408V26.432H186.99ZM191.863 26.432H194.431L195.655 32.48H195.679L196.915 26.432H199.471V35H197.887V28.16H197.863L196.339 35H194.995L193.471 28.16H193.447V35H191.863V26.432Z" fill="black"/>
<path fill-rule="evenodd" clip-rule="evenodd" d="M226.197 12.9917C225.489 12.7271 224.997 12.6406 224.67 12.6452C224.338 12.6499 224.233 12.7457 224.211 12.7697C224.191 12.7911 224.158 12.8426 224.156 12.9856C224.155 13.0935 224.173 13.2211 224.209 13.3514L228.625 17.6963H231.528C232.034 17.0728 233.172 15.8497 235.078 14.1794C235.602 13.7203 235.792 13.4037 235.848 13.2371C235.879 13.1441 235.868 13.1284 235.843 13.0951L235.839 13.0896C235.774 13.001 235.62 12.8791 235.352 12.7673C235.11 12.6663 234.831 12.5973 234.575 12.5601C234.389 12.5649 234.251 12.6081 234.006 12.6965L233.957 12.7142C233.87 12.7457 233.807 12.7781 233.743 12.811C233.611 12.8791 233.474 12.9492 233.116 13.0172C232.548 13.1251 232.141 13.1334 231.683 13.0237C231.386 12.9524 231.057 12.826 230.66 12.6733L230.66 12.6732L230.66 12.6732C230.522 12.6199 230.375 12.5634 230.218 12.505L230.215 12.5046C230.205 12.5034 230.171 12.4992 230.103 12.5017C230.005 12.5053 229.878 12.5207 229.721 12.5484C229.412 12.603 229.047 12.694 228.66 12.7904L228.637 12.7962C228.255 12.8913 227.848 12.9925 227.508 13.0468C227.338 13.0739 227.162 13.0935 226.999 13.0896C226.986 13.0893 226.969 13.0891 226.947 13.0889H226.947C226.777 13.0872 226.364 13.0832 226.197 12.9917ZM228.237 11.3164C227.706 11.4374 226.732 11.5442 226.732 11.5442C226.164 11.5236 225.749 11.4099 225.402 11.3145C225.125 11.2386 224.891 11.1743 224.654 11.1777C224.117 11.1852 223.651 11.3462 223.316 11.7135C222.98 12.0836 222.873 12.5579 222.868 12.9653C222.863 13.3667 222.954 13.7551 223.067 14.0649L223.126 14.2248L227.043 18.0789C225.564 18.4041 223.986 19.063 222.531 20.2082C219.761 22.3897 217.542 26.2534 217.227 32.6479C217.207 33.0641 217.184 33.4866 217.161 33.912C217.068 35.6616 216.972 37.462 217.008 39.0902C217.052 41.0844 217.292 43.0034 218.107 44.3151C219.572 46.6711 221.968 47.8112 224.268 48.348C226.56 48.883 228.85 48.8422 230.268 48.7579C231.563 48.7331 233.698 48.6558 235.887 48.1961C238.067 47.7382 240.413 46.8786 242.016 45.2058C243.305 43.8598 243.744 41.8774 243.878 39.7527C243.983 38.0805 243.904 36.1896 243.823 34.2644L243.823 34.2638C243.8 33.7301 243.778 33.1937 243.759 32.6587C243.548 26.6489 241.338 22.879 238.569 20.6473C236.772 19.1991 234.772 18.4248 233.001 18.0891C233.574 17.4656 234.506 16.5318 235.863 15.3427C236.456 14.8235 236.868 14.3043 237.051 13.7626C237.256 13.1522 237.144 12.5834 236.83 12.152C236.553 11.7717 236.15 11.5369 235.794 11.3889C235.425 11.2351 235.029 11.1428 234.687 11.097L234.649 11.092H234.611C234.197 11.092 233.898 11.1959 233.617 11.2976L233.57 11.3145C233.314 11.4071 233.037 11.5078 232.597 11.5912C232.212 11.6645 232.189 11.6582 232.042 11.6184L232.042 11.6184C232.013 11.6105 231.98 11.6013 231.937 11.5912C231.72 11.539 231.496 11.4529 231.141 11.3164C231.127 11.311 231.103 11.2985 231.069 11.2814C230.905 11.1967 230.523 11 230.086 11C229.442 11 228.825 11.163 228.453 11.2614L228.453 11.2614L228.453 11.2615L228.453 11.2615C228.367 11.2841 228.295 11.3034 228.237 11.3164ZM223.478 21.4108C221.129 23.2603 219.054 26.6676 218.756 32.7231C218.735 33.1559 218.712 33.5897 218.689 34.0222C218.596 35.7668 218.504 37.492 218.538 39.0565C218.582 41.0386 218.83 42.5793 219.407 43.5068C220.575 45.3858 222.528 46.37 224.616 46.8573C226.702 47.3443 228.827 47.3108 230.192 47.2289L230.207 47.228L230.223 47.2277C231.495 47.2037 233.521 47.1289 235.572 46.6981C237.641 46.2636 239.624 45.489 240.91 44.1468C241.806 43.2119 242.221 41.7042 242.35 39.6564C242.45 38.0726 242.375 36.2919 242.295 34.3813C242.272 33.835 242.249 33.2782 242.229 32.7124C242.032 27.0884 239.989 23.7575 237.609 21.8391C235.802 20.3832 233.757 19.7053 232.07 19.4905C233.467 20.9563 235.051 22.4306 235.916 22.9628L235.114 24.2664C234.751 23.9038 234.206 23.4291 233.577 22.8815L233.577 22.8815C232.672 22.0929 231.593 21.1533 230.636 20.1804C230.589 20.8038 230.548 21.5006 230.531 22.1621C230.516 22.7319 230.52 23.2613 230.55 23.6891C230.565 23.9031 230.586 24.0802 230.611 24.218C230.624 24.2864 230.636 24.3394 230.648 24.3787C230.659 24.4162 230.666 24.4328 230.667 24.4343L230.777 25.0318L229.298 25.119C229.12 24.7626 229.055 24.2519 229.023 23.7962C228.988 23.2997 228.985 22.7161 229.001 22.123C229.013 21.6509 229.036 21.1638 229.066 20.6965C227.822 21.8971 226.513 22.9378 225.548 23.7056L225.547 23.7058L225.547 23.7061C225.412 23.8133 225.284 23.9151 225.164 24.0113L224.362 22.7076C225.212 22.115 226.785 20.8255 228.179 19.4313C226.695 19.6286 225.007 20.2073 223.478 21.4108Z" fill="white"/>
</svg>
