<svg width="255" height="61" viewBox="0 0 255 61" fill="none" xmlns="http://www.w3.org/2000/svg">
<g clip-path="url(#clip0_79_885)">
<path d="M24.6979 60.4688C11.0781 60.4688 0 49.5208 0 36.0625V0H229.948C243.563 0 254.641 10.9479 254.641 24.4062V60.4688" fill="white"/>
<path d="M222.083 52.9113H69.1353C59.6874 52.9113 51.9999 45.354 51.9999 36.0623V7.55713H204.948C214.396 7.55713 222.083 15.1144 222.083 24.4061V52.9113ZM204.948 5.6665H50.1145V36.0623C50.1145 46.3957 58.6458 54.8019 69.1353 54.8019H223.969V24.4061C223.969 14.0728 215.437 5.6665 204.948 5.6665Z" fill="#333347"/>
<path d="M191.714 54.8019L204.724 28.2238L191.432 5.6665H229.948C240.437 5.6665 248.969 14.0728 248.969 24.4061V54.8019" fill="#333347"/>
<path d="M102.901 5.6665H50.1145V36.0623C50.1145 46.3957 58.6458 54.8019 69.1353 54.8019H121.927V24.4061C121.927 14.0728 113.391 5.6665 102.901 5.6665Z" fill="#333347"/>
<path d="M63.651 29.3594C58.8489 29.3594 54.9583 33.25 54.9583 38.0521C54.9583 42.8542 58.8489 46.7448 63.651 46.7448C68.4583 46.7448 72.3489 42.8542 72.3489 38.0521C72.3489 33.25 68.4583 29.3594 63.651 29.3594Z" fill="white"/>
<path d="M69.3229 39.4689H65.0729V43.7189H62.2344V39.4689H57.9844V36.6356H62.2344V32.3804H65.0729V36.6356H69.3229" fill="#1C1C1B"/>
<path d="M55.7864 26.5936V17.1978H58.2708V24.5155H61.828V26.5936" fill="white"/>
<path d="M62.9426 26.5936V17.1978H69.0155V19.2759H65.4322V20.755H68.4947V22.8384H65.4322V24.5155H69.1614V26.5936" fill="white"/>
<path d="M75.0885 26.5936V19.2759H72.6041V17.1978H80.0677V19.2759H77.5781V26.5936" fill="white"/>
<path d="M83.5521 21.4738H84.4479C85.4479 21.4738 85.9531 21.0623 85.9531 20.2342C85.9531 19.828 85.8229 19.5467 85.5677 19.3957C85.3125 19.2394 84.9375 19.1613 84.4479 19.1613H83.5521V21.4738ZM81.0625 26.5988V17.1978H84.6198C85.125 17.1978 85.6042 17.2446 86.0625 17.3384C86.5208 17.4373 86.9167 17.5988 87.2604 17.8332C87.6042 18.0623 87.875 18.3748 88.0781 18.7655C88.2813 19.1561 88.3802 19.6457 88.3802 20.2342C88.3802 20.9061 88.2448 21.4686 87.9688 21.9113C87.6979 22.354 87.3281 22.6978 86.8646 22.953L88.901 26.5988H86.125L84.5052 23.4425H83.5521V26.5988" fill="white"/>
<path d="M89.8698 26.5988H92.3593V17.1978H89.8698V26.5988Z" fill="white"/>
<path d="M75.3801 43.2759V33.8696H81.5103V35.953H77.8697V37.7498H80.9895V39.8332H77.8697V43.2759" fill="white"/>
<path d="M84.9218 38.703L84.7604 39.354H86.4948L86.3385 38.703C86.2239 38.2498 86.1041 37.7603 85.9895 37.229C85.875 36.6978 85.7604 36.1978 85.6406 35.7238H85.5833C85.4791 36.203 85.3698 36.7082 85.2604 37.2342C85.151 37.7603 85.0364 38.2498 84.9218 38.703ZM81.3073 43.2759L84.1666 33.8696H87.1718L90.0364 43.2759H87.4062L86.9427 41.2759H84.3125L83.8489 43.2759" fill="white"/>
<path d="M94.5624 43.4478C93.9687 43.4478 93.3958 43.3488 92.8541 43.1509C92.3072 42.953 91.8333 42.6509 91.4218 42.255C91.0103 41.854 90.6822 41.354 90.4426 40.7498C90.203 40.1457 90.0833 39.4478 90.0833 38.6457C90.0833 37.854 90.2083 37.1509 90.4583 36.5415C90.7083 35.9269 91.0416 35.4113 91.4635 34.9946C91.8801 34.5728 92.3645 34.2498 92.9114 34.0311C93.4583 33.8071 94.026 33.6978 94.6249 33.6978C95.2499 33.6978 95.8124 33.8228 96.302 34.0675C96.7968 34.3123 97.2083 34.604 97.5468 34.9425L96.2447 36.5311C96.0155 36.3332 95.776 36.1665 95.5312 36.0311C95.2812 35.9061 94.9999 35.8384 94.6822 35.8384C94.401 35.8384 94.1405 35.9009 93.8958 36.0259C93.651 36.1509 93.4322 36.3332 93.2447 36.5623C93.0572 36.7915 92.9062 37.078 92.7968 37.4165C92.6822 37.7498 92.6301 38.1353 92.6301 38.5571C92.6301 39.4478 92.8124 40.1248 93.1874 40.5988C93.5572 41.0675 94.0468 41.3071 94.651 41.3071C95.0208 41.3071 95.3437 41.229 95.6301 41.0675C95.9114 40.9061 96.1562 40.7186 96.3593 40.4946L97.6614 42.0571C97.2551 42.5207 96.7916 42.8696 96.2655 43.0988C95.7395 43.3332 95.1718 43.4478 94.5624 43.4478Z" fill="white"/>
<path d="M98.6198 43.2759H101.104V33.8696H98.6198V43.2759Z" fill="white"/>
<path d="M102.875 43.2759V33.8696H105.365V41.1925H108.922V43.2759" fill="white"/>
<path d="M110.031 43.2759V33.8696H116.109V35.953H112.521V37.4321H115.589V39.5155H112.521V41.1925H116.255V43.2759" fill="white"/>
<path d="M28.4062 25.7446C26.7135 28.2342 28.151 31.5103 29.8958 33.1717C31.4895 34.6821 32.7655 35.0363 32.9322 35.078L33.7447 33.5207L36.0885 39.9321L29.4635 41.2811L30.3437 39.6457L29.4478 39.1457C26.6562 37.328 26.0676 34.8592 25.8749 34.0884C25.5416 32.7603 25.0468 28.7863 28.4062 25.7446Z" fill="#333347"/>
<path d="M28.375 25.8488C29.5781 28.6092 33.1146 29.1405 35.4479 28.5519C37.5208 28.0259 38.5052 27.1717 38.6719 27.0155L38.6615 26.9998L37.776 25.4634L44.4427 26.9217L42.0313 33.2394L41.1354 31.6457L40.2656 32.1196C37.2396 33.5103 34.8333 32.6925 34.0781 32.4425C32.7813 32.0155 29.1562 30.3123 28.375 25.8488Z" fill="#333347"/>
<path d="M40.1613 19.1925C39.6978 22.4894 37.7134 24.0728 37.0936 24.5728C36.0311 25.4373 32.6457 27.5675 28.4634 25.8175C31.4373 26.2915 33.7967 23.604 34.5571 21.3175C35.2446 19.2655 35.0415 17.9686 34.9998 17.7707L34.979 17.7655L33.2134 17.6925L38.0259 12.854L42.0519 18.2863L40.2342 18.1821" fill="#333347"/>
<path fill-rule="evenodd" clip-rule="evenodd" d="M19.9375 16.4115C18.4167 16.4115 17.1875 15.1823 17.1875 13.6563C17.1875 12.1354 18.4167 10.9062 19.9375 10.9062C21.4583 10.9062 22.6927 12.1354 22.6927 13.6563C22.6927 15.1823 21.4583 16.4115 19.9375 16.4115Z" fill="#333347"/>
<path d="M15.6771 29.7967C15.9115 29.1509 16.2604 29.1925 16.2604 29.1925C16.2604 29.1925 16.5781 29.1248 16.7552 29.7707L19.3281 38.8071C17.1823 38.1821 15.224 37.1196 13.5573 35.7082L15.6771 29.7967ZM23.7031 5.6665C13.7604 5.6665 5.67188 13.755 5.67188 23.6978C5.67188 33.6405 13.7604 41.729 23.7031 41.729C24.2344 41.729 24.7552 41.6978 25.276 41.6509L25.3958 43.4634L28.6979 40.2707L25.0052 37.453L25.1458 39.354C24.6719 39.4009 24.1875 39.4321 23.7031 39.4321C22.9375 39.4321 22.1875 39.3748 21.4531 39.2655L21.3802 38.7863L19.6667 24.1873C19.4323 21.4321 21.0052 20.9946 21.9792 21.4061L27.4479 23.604C28.0729 23.8748 28.375 23.3488 28.375 23.3488C28.375 23.3488 28.7292 22.8019 28.0938 22.3957C28.0938 22.3957 20.6406 17.4582 19.0521 17.1561C16.8854 16.755 14.7396 18.5103 14.2656 20.7967L11.6198 33.7603C9.34375 31.0311 7.96875 27.5207 7.96875 23.6978C7.96875 15.0207 15.026 7.96338 23.7031 7.96338C28.3385 7.96338 32.5104 9.979 35.3906 13.1769L37.0052 11.5363C33.7083 7.93213 28.9635 5.6665 23.7031 5.6665Z" fill="#333347"/>
<path d="M131.328 30.308H132.096C132.44 30.308 132.716 30.204 132.924 29.996C133.14 29.788 133.248 29.464 133.248 29.024C133.248 28.592 133.156 28.264 132.972 28.04C132.788 27.816 132.48 27.704 132.048 27.704H131.328V30.308ZM129.6 26.432H132.624C133.064 26.432 133.432 26.508 133.728 26.66C134.032 26.804 134.276 26.996 134.46 27.236C134.644 27.476 134.776 27.752 134.856 28.064C134.936 28.368 134.976 28.68 134.976 29C134.976 29.44 134.908 29.824 134.772 30.152C134.644 30.48 134.46 30.748 134.22 30.956C133.988 31.164 133.704 31.32 133.368 31.424C133.032 31.528 132.66 31.58 132.252 31.58H131.328V35H129.6V26.432ZM135.823 26.432H139.015C139.735 26.432 140.295 26.616 140.695 26.984C141.095 27.344 141.295 27.896 141.295 28.64C141.295 29.216 141.179 29.688 140.947 30.056C140.715 30.416 140.355 30.648 139.867 30.752V30.776C140.299 30.84 140.615 30.98 140.815 31.196C141.015 31.412 141.139 31.76 141.187 32.24C141.203 32.4 141.215 32.576 141.223 32.768C141.231 32.952 141.239 33.16 141.247 33.392C141.263 33.848 141.287 34.196 141.319 34.436C141.367 34.676 141.471 34.84 141.631 34.928V35H139.759C139.671 34.88 139.615 34.744 139.591 34.592C139.567 34.432 139.551 34.268 139.543 34.1L139.495 32.456C139.479 32.12 139.395 31.856 139.243 31.664C139.091 31.472 138.835 31.376 138.475 31.376H137.551V35H135.823V26.432ZM137.551 30.176H138.271C138.687 30.176 139.007 30.08 139.231 29.888C139.455 29.688 139.567 29.356 139.567 28.892C139.567 28.1 139.167 27.704 138.367 27.704H137.551V30.176ZM144.795 24.2H146.451L145.275 25.928H144.147L144.795 24.2ZM147.279 26.432V27.848H144.219V29.864H147.099V31.28H144.219V33.584H147.399V35H142.491V26.432H147.279ZM149.66 32.324V32.576C149.66 32.776 149.676 32.96 149.708 33.128C149.74 33.288 149.8 33.424 149.888 33.536C149.976 33.648 150.092 33.736 150.236 33.8C150.388 33.864 150.576 33.896 150.8 33.896C151.064 33.896 151.3 33.812 151.508 33.644C151.724 33.468 151.832 33.2 151.832 32.84C151.832 32.648 151.804 32.484 151.748 32.348C151.7 32.204 151.616 32.076 151.496 31.964C151.376 31.852 151.216 31.752 151.016 31.664C150.824 31.568 150.584 31.472 150.296 31.376C149.912 31.248 149.58 31.108 149.3 30.956C149.02 30.804 148.784 30.628 148.592 30.428C148.408 30.22 148.272 29.984 148.184 29.72C148.096 29.448 148.052 29.136 148.052 28.784C148.052 27.936 148.288 27.304 148.76 26.888C149.232 26.472 149.88 26.264 150.704 26.264C151.088 26.264 151.44 26.308 151.76 26.396C152.088 26.476 152.368 26.612 152.6 26.804C152.84 26.988 153.024 27.228 153.152 27.524C153.288 27.812 153.356 28.16 153.356 28.568V28.808H151.7C151.7 28.4 151.628 28.088 151.484 27.872C151.34 27.648 151.1 27.536 150.764 27.536C150.572 27.536 150.412 27.564 150.284 27.62C150.156 27.676 150.052 27.752 149.972 27.848C149.9 27.936 149.848 28.04 149.816 28.16C149.792 28.28 149.78 28.404 149.78 28.532C149.78 28.796 149.836 29.02 149.948 29.204C150.06 29.38 150.3 29.544 150.668 29.696L152 30.272C152.328 30.416 152.596 30.568 152.804 30.728C153.012 30.88 153.176 31.048 153.296 31.232C153.424 31.408 153.512 31.604 153.56 31.82C153.608 32.036 153.632 32.276 153.632 32.54C153.632 33.444 153.368 34.104 152.84 34.52C152.32 34.928 151.592 35.132 150.656 35.132C149.68 35.132 148.98 34.92 148.556 34.496C148.14 34.072 147.932 33.464 147.932 32.672V32.324H149.66ZM159.279 26.432V27.848H156.219V29.864H159.099V31.28H156.219V33.584H159.399V35H154.491V26.432H159.279ZM160.268 26.432H163.46C164.18 26.432 164.74 26.616 165.14 26.984C165.54 27.344 165.74 27.896 165.74 28.64C165.74 29.216 165.624 29.688 165.392 30.056C165.16 30.416 164.8 30.648 164.312 30.752V30.776C164.744 30.84 165.06 30.98 165.26 31.196C165.46 31.412 165.584 31.76 165.632 32.24C165.648 32.4 165.66 32.576 165.668 32.768C165.676 32.952 165.684 33.16 165.692 33.392C165.708 33.848 165.732 34.196 165.764 34.436C165.812 34.676 165.916 34.84 166.076 34.928V35H164.204C164.116 34.88 164.06 34.744 164.036 34.592C164.012 34.432 163.996 34.268 163.988 34.1L163.94 32.456C163.924 32.12 163.84 31.856 163.688 31.664C163.536 31.472 163.28 31.376 162.92 31.376H161.996V35H160.268V26.432ZM161.996 30.176H162.716C163.132 30.176 163.452 30.08 163.676 29.888C163.9 29.688 164.012 29.356 164.012 28.892C164.012 28.1 163.612 27.704 162.812 27.704H161.996V30.176ZM168.22 26.432L169.432 32.768H169.468L170.74 26.432H172.528L170.56 35H168.34L166.372 26.432H168.22ZM176.289 31.772L175.461 27.92H175.437L174.609 31.772H176.289ZM176.517 26.432L178.785 35H176.985L176.589 33.188H174.309L173.913 35H172.113L174.381 26.432H176.517ZM183.741 26.432V27.848H181.869V35H180.141V27.848H178.269V26.432H183.741ZM184.575 35V26.432H186.303V35H184.575ZM187.584 26.432H192.372V27.848H189.312V29.864H192.192V31.28H189.312V35H187.584V26.432Z" fill="black"/>
<path fill-rule="evenodd" clip-rule="evenodd" d="M221.197 12.9917C220.489 12.7271 219.997 12.6406 219.67 12.6452C219.338 12.6499 219.233 12.7457 219.211 12.7697C219.191 12.7911 219.158 12.8426 219.156 12.9856C219.155 13.0935 219.173 13.2211 219.209 13.3514L223.625 17.6963H226.528C227.034 17.0728 228.172 15.8497 230.078 14.1794C230.602 13.7203 230.792 13.4037 230.848 13.2371C230.879 13.1441 230.868 13.1284 230.843 13.0951L230.839 13.0896C230.774 13.001 230.62 12.8791 230.352 12.7673C230.11 12.6663 229.831 12.5973 229.575 12.5601C229.389 12.5649 229.251 12.6081 229.006 12.6965L228.957 12.7142C228.87 12.7457 228.807 12.7781 228.743 12.811C228.611 12.8791 228.474 12.9492 228.116 13.0172C227.548 13.1251 227.141 13.1334 226.683 13.0237C226.386 12.9524 226.057 12.826 225.66 12.6733L225.66 12.6732L225.66 12.6732C225.522 12.6199 225.375 12.5634 225.218 12.505L225.215 12.5046C225.205 12.5034 225.171 12.4992 225.103 12.5017C225.005 12.5053 224.878 12.5207 224.721 12.5484C224.412 12.603 224.047 12.694 223.66 12.7904L223.637 12.7962C223.255 12.8913 222.848 12.9925 222.508 13.0468C222.338 13.0739 222.162 13.0935 221.999 13.0896C221.986 13.0893 221.969 13.0891 221.947 13.0889H221.947C221.777 13.0872 221.364 13.0832 221.197 12.9917ZM223.237 11.3164C222.706 11.4374 221.732 11.5442 221.732 11.5442C221.164 11.5236 220.749 11.4099 220.402 11.3145C220.125 11.2386 219.891 11.1743 219.654 11.1777C219.117 11.1852 218.651 11.3462 218.316 11.7135C217.98 12.0836 217.873 12.5579 217.868 12.9653C217.863 13.3667 217.954 13.7551 218.067 14.0649L218.126 14.2248L222.043 18.0789C220.564 18.4041 218.986 19.063 217.531 20.2082C214.761 22.3897 212.542 26.2534 212.227 32.6479C212.207 33.0641 212.184 33.4866 212.161 33.912C212.068 35.6616 211.972 37.462 212.008 39.0902C212.052 41.0844 212.292 43.0034 213.107 44.3151C214.572 46.6711 216.968 47.8112 219.268 48.348C221.56 48.883 223.85 48.8422 225.268 48.7579C226.563 48.7331 228.698 48.6558 230.887 48.1961C233.067 47.7382 235.413 46.8786 237.016 45.2058C238.305 43.8598 238.744 41.8774 238.878 39.7527C238.983 38.0805 238.904 36.1896 238.823 34.2644L238.823 34.2638C238.8 33.7301 238.778 33.1937 238.759 32.6587C238.548 26.6489 236.338 22.879 233.569 20.6473C231.772 19.1991 229.772 18.4248 228.001 18.0891C228.574 17.4656 229.506 16.5318 230.863 15.3427C231.456 14.8235 231.868 14.3043 232.051 13.7626C232.256 13.1522 232.144 12.5834 231.83 12.152C231.553 11.7717 231.15 11.5369 230.794 11.3889C230.425 11.2351 230.029 11.1428 229.687 11.097L229.649 11.092H229.611C229.197 11.092 228.898 11.1959 228.617 11.2976L228.57 11.3145C228.314 11.4071 228.037 11.5078 227.597 11.5912C227.212 11.6645 227.189 11.6582 227.042 11.6184L227.042 11.6184C227.013 11.6105 226.98 11.6013 226.937 11.5912C226.72 11.539 226.496 11.4529 226.141 11.3164C226.127 11.311 226.103 11.2985 226.069 11.2814C225.905 11.1967 225.523 11 225.086 11C224.442 11 223.825 11.163 223.453 11.2614L223.453 11.2614L223.453 11.2615L223.453 11.2615C223.367 11.2841 223.295 11.3034 223.237 11.3164ZM218.478 21.4108C216.129 23.2603 214.054 26.6676 213.756 32.7231C213.735 33.1559 213.712 33.5897 213.689 34.0222C213.596 35.7668 213.504 37.492 213.538 39.0565C213.582 41.0386 213.83 42.5793 214.407 43.5068C215.575 45.3858 217.528 46.37 219.616 46.8573C221.702 47.3443 223.827 47.3108 225.192 47.2289L225.207 47.228L225.223 47.2277C226.495 47.2037 228.521 47.1289 230.572 46.6981C232.641 46.2636 234.624 45.489 235.91 44.1468C236.806 43.2119 237.221 41.7042 237.35 39.6564C237.45 38.0726 237.375 36.2919 237.295 34.3813C237.272 33.835 237.249 33.2782 237.229 32.7124C237.032 27.0884 234.989 23.7575 232.609 21.8391C230.802 20.3832 228.757 19.7053 227.07 19.4905C228.467 20.9563 230.051 22.4306 230.916 22.9628L230.114 24.2664C229.751 23.9038 229.206 23.4291 228.577 22.8815L228.577 22.8815C227.672 22.0929 226.593 21.1533 225.636 20.1804C225.589 20.8038 225.548 21.5006 225.531 22.1621C225.516 22.7319 225.52 23.2613 225.55 23.6891C225.565 23.9031 225.586 24.0802 225.611 24.218C225.624 24.2864 225.636 24.3394 225.648 24.3787C225.659 24.4162 225.666 24.4328 225.667 24.4343L225.777 25.0318L224.298 25.119C224.12 24.7626 224.055 24.2519 224.023 23.7962C223.988 23.2997 223.985 22.7161 224.001 22.123C224.013 21.6509 224.036 21.1638 224.066 20.6965C222.822 21.8971 221.513 22.9378 220.548 23.7056L220.547 23.7058L220.547 23.7061C220.412 23.8133 220.284 23.9151 220.164 24.0113L219.362 22.7076C220.212 22.115 221.785 20.8255 223.179 19.4313C221.695 19.6286 220.007 20.2073 218.478 21.4108Z" fill="white"/>
</g>
<defs>
<clipPath id="clip0_79_885">
<rect width="255" height="61" fill="white"/>
</clipPath>
</defs>
</svg>
