<svg width="260" height="61" viewBox="0 0 260 61" fill="none" xmlns="http://www.w3.org/2000/svg">
<g clip-path="url(#clip0_79_756)">
<path d="M24.6979 60.4688C11.0781 60.4688 0 49.5208 0 36.0625V0H234.948C248.563 0 259.641 10.9479 259.641 24.4062V60.4688" fill="white"/>
<path d="M222.083 52.9113H69.1353C59.6874 52.9113 51.9999 45.354 51.9999 36.0623V7.55713H204.948C214.396 7.55713 222.083 15.1144 222.083 24.4061V52.9113ZM204.948 5.6665H50.1145V36.0623C50.1145 46.3957 58.6458 54.8019 69.1353 54.8019H223.969V24.4061C223.969 14.0728 215.437 5.6665 204.948 5.6665Z" fill="#333347"/>
<path d="M196.714 54.8019L209.724 28.2238L196.432 5.6665H234.948C245.437 5.6665 253.969 14.0728 253.969 24.4061V54.8019" fill="#333347"/>
<path d="M102.901 5.6665H50.1145V36.0623C50.1145 46.3957 58.6458 54.8019 69.1353 54.8019H121.927V24.4061C121.927 14.0728 113.391 5.6665 102.901 5.6665Z" fill="#333347"/>
<path d="M63.651 29.3594C58.8489 29.3594 54.9583 33.25 54.9583 38.0521C54.9583 42.8542 58.8489 46.7448 63.651 46.7448C68.4583 46.7448 72.3489 42.8542 72.3489 38.0521C72.3489 33.25 68.4583 29.3594 63.651 29.3594Z" fill="white"/>
<path d="M69.3229 39.4689H65.0729V43.7189H62.2344V39.4689H57.9844V36.6356H62.2344V32.3804H65.0729V36.6356H69.3229" fill="#1C1C1B"/>
<path d="M55.7864 26.5936V17.1978H58.2708V24.5155H61.828V26.5936" fill="white"/>
<path d="M62.9426 26.5936V17.1978H69.0155V19.2759H65.4322V20.755H68.4947V22.8384H65.4322V24.5155H69.1614V26.5936" fill="white"/>
<path d="M75.0885 26.5936V19.2759H72.6041V17.1978H80.0677V19.2759H77.5781V26.5936" fill="white"/>
<path d="M83.5521 21.4738H84.4479C85.4479 21.4738 85.9531 21.0623 85.9531 20.2342C85.9531 19.828 85.8229 19.5467 85.5677 19.3957C85.3125 19.2394 84.9375 19.1613 84.4479 19.1613H83.5521V21.4738ZM81.0625 26.5988V17.1978H84.6198C85.125 17.1978 85.6042 17.2446 86.0625 17.3384C86.5208 17.4373 86.9167 17.5988 87.2604 17.8332C87.6042 18.0623 87.875 18.3748 88.0781 18.7655C88.2813 19.1561 88.3802 19.6457 88.3802 20.2342C88.3802 20.9061 88.2448 21.4686 87.9688 21.9113C87.6979 22.354 87.3281 22.6978 86.8646 22.953L88.901 26.5988H86.125L84.5052 23.4425H83.5521V26.5988" fill="white"/>
<path d="M89.8698 26.5988H92.3593V17.1978H89.8698V26.5988Z" fill="white"/>
<path d="M75.3801 43.2759V33.8696H81.5103V35.953H77.8697V37.7498H80.9895V39.8332H77.8697V43.2759" fill="white"/>
<path d="M84.9218 38.703L84.7604 39.354H86.4948L86.3385 38.703C86.2239 38.2498 86.1041 37.7603 85.9895 37.229C85.875 36.6978 85.7604 36.1978 85.6406 35.7238H85.5833C85.4791 36.203 85.3698 36.7082 85.2604 37.2342C85.151 37.7603 85.0364 38.2498 84.9218 38.703ZM81.3073 43.2759L84.1666 33.8696H87.1718L90.0364 43.2759H87.4062L86.9427 41.2759H84.3125L83.8489 43.2759" fill="white"/>
<path d="M94.5624 43.4478C93.9687 43.4478 93.3958 43.3488 92.8541 43.1509C92.3072 42.953 91.8333 42.6509 91.4218 42.255C91.0103 41.854 90.6822 41.354 90.4426 40.7498C90.203 40.1457 90.0833 39.4478 90.0833 38.6457C90.0833 37.854 90.2083 37.1509 90.4583 36.5415C90.7083 35.9269 91.0416 35.4113 91.4635 34.9946C91.8801 34.5728 92.3645 34.2498 92.9114 34.0311C93.4583 33.8071 94.026 33.6978 94.6249 33.6978C95.2499 33.6978 95.8124 33.8228 96.302 34.0675C96.7968 34.3123 97.2083 34.604 97.5468 34.9425L96.2447 36.5311C96.0155 36.3332 95.776 36.1665 95.5312 36.0311C95.2812 35.9061 94.9999 35.8384 94.6822 35.8384C94.401 35.8384 94.1405 35.9009 93.8958 36.0259C93.651 36.1509 93.4322 36.3332 93.2447 36.5623C93.0572 36.7915 92.9062 37.078 92.7968 37.4165C92.6822 37.7498 92.6301 38.1353 92.6301 38.5571C92.6301 39.4478 92.8124 40.1248 93.1874 40.5988C93.5572 41.0675 94.0468 41.3071 94.651 41.3071C95.0208 41.3071 95.3437 41.229 95.6301 41.0675C95.9114 40.9061 96.1562 40.7186 96.3593 40.4946L97.6614 42.0571C97.2551 42.5207 96.7916 42.8696 96.2655 43.0988C95.7395 43.3332 95.1718 43.4478 94.5624 43.4478Z" fill="white"/>
<path d="M98.6198 43.2759H101.104V33.8696H98.6198V43.2759Z" fill="white"/>
<path d="M102.875 43.2759V33.8696H105.365V41.1925H108.922V43.2759" fill="white"/>
<path d="M110.031 43.2759V33.8696H116.109V35.953H112.521V37.4321H115.589V39.5155H112.521V41.1925H116.255V43.2759" fill="white"/>
<path d="M28.4062 25.7446C26.7135 28.2342 28.151 31.5103 29.8958 33.1717C31.4895 34.6821 32.7655 35.0363 32.9322 35.078L33.7447 33.5207L36.0885 39.9321L29.4635 41.2811L30.3437 39.6457L29.4478 39.1457C26.6562 37.328 26.0676 34.8592 25.8749 34.0884C25.5416 32.7603 25.0468 28.7863 28.4062 25.7446Z" fill="#333347"/>
<path d="M28.375 25.8488C29.5781 28.6092 33.1146 29.1405 35.4479 28.5519C37.5208 28.0259 38.5052 27.1717 38.6719 27.0155L38.6615 26.9998L37.776 25.4634L44.4427 26.9217L42.0313 33.2394L41.1354 31.6457L40.2656 32.1196C37.2396 33.5103 34.8333 32.6925 34.0781 32.4425C32.7813 32.0155 29.1562 30.3123 28.375 25.8488Z" fill="#333347"/>
<path d="M40.1613 19.1925C39.6978 22.4894 37.7134 24.0728 37.0936 24.5728C36.0311 25.4373 32.6457 27.5675 28.4634 25.8175C31.4373 26.2915 33.7967 23.604 34.5571 21.3175C35.2446 19.2655 35.0415 17.9686 34.9998 17.7707L34.979 17.7655L33.2134 17.6925L38.0259 12.854L42.0519 18.2863L40.2342 18.1821" fill="#333347"/>
<path fill-rule="evenodd" clip-rule="evenodd" d="M19.9375 16.4115C18.4167 16.4115 17.1875 15.1823 17.1875 13.6563C17.1875 12.1354 18.4167 10.9062 19.9375 10.9062C21.4583 10.9062 22.6927 12.1354 22.6927 13.6563C22.6927 15.1823 21.4583 16.4115 19.9375 16.4115Z" fill="#333347"/>
<path d="M15.6771 29.7967C15.9115 29.1509 16.2604 29.1925 16.2604 29.1925C16.2604 29.1925 16.5781 29.1248 16.7552 29.7707L19.3281 38.8071C17.1823 38.1821 15.224 37.1196 13.5573 35.7082L15.6771 29.7967ZM23.7031 5.6665C13.7604 5.6665 5.67188 13.755 5.67188 23.6978C5.67188 33.6405 13.7604 41.729 23.7031 41.729C24.2344 41.729 24.7552 41.6978 25.276 41.6509L25.3958 43.4634L28.6979 40.2707L25.0052 37.453L25.1458 39.354C24.6719 39.4009 24.1875 39.4321 23.7031 39.4321C22.9375 39.4321 22.1875 39.3748 21.4531 39.2655L21.3802 38.7863L19.6667 24.1873C19.4323 21.4321 21.0052 20.9946 21.9792 21.4061L27.4479 23.604C28.0729 23.8748 28.375 23.3488 28.375 23.3488C28.375 23.3488 28.7292 22.8019 28.0938 22.3957C28.0938 22.3957 20.6406 17.4582 19.0521 17.1561C16.8854 16.755 14.7396 18.5103 14.2656 20.7967L11.6198 33.7603C9.34375 31.0311 7.96875 27.5207 7.96875 23.6978C7.96875 15.0207 15.026 7.96338 23.7031 7.96338C28.3385 7.96338 32.5104 9.979 35.3906 13.1769L37.0052 11.5363C33.7083 7.93213 28.9635 5.6665 23.7031 5.6665Z" fill="#333347"/>
<path d="M131.328 22.308H132.096C132.44 22.308 132.716 22.204 132.924 21.996C133.14 21.788 133.248 21.464 133.248 21.024C133.248 20.592 133.156 20.264 132.972 20.04C132.788 19.816 132.48 19.704 132.048 19.704H131.328V22.308ZM129.6 18.432H132.624C133.064 18.432 133.432 18.508 133.728 18.66C134.032 18.804 134.276 18.996 134.46 19.236C134.644 19.476 134.776 19.752 134.856 20.064C134.936 20.368 134.976 20.68 134.976 21C134.976 21.44 134.908 21.824 134.772 22.152C134.644 22.48 134.46 22.748 134.22 22.956C133.988 23.164 133.704 23.32 133.368 23.424C133.032 23.528 132.66 23.58 132.252 23.58H131.328V27H129.6V18.432ZM137.371 22.716C137.371 23.292 137.383 23.784 137.407 24.192C137.439 24.592 137.495 24.92 137.575 25.176C137.663 25.424 137.783 25.608 137.935 25.728C138.095 25.84 138.303 25.896 138.559 25.896C138.815 25.896 139.019 25.84 139.171 25.728C139.331 25.608 139.451 25.424 139.531 25.176C139.619 24.92 139.675 24.592 139.699 24.192C139.731 23.784 139.747 23.292 139.747 22.716C139.747 22.14 139.731 21.652 139.699 21.252C139.675 20.852 139.619 20.524 139.531 20.268C139.451 20.012 139.331 19.828 139.171 19.716C139.019 19.596 138.815 19.536 138.559 19.536C138.303 19.536 138.095 19.596 137.935 19.716C137.783 19.828 137.663 20.012 137.575 20.268C137.495 20.524 137.439 20.852 137.407 21.252C137.383 21.652 137.371 22.14 137.371 22.716ZM135.643 22.716C135.643 22.068 135.671 21.472 135.727 20.928C135.791 20.376 135.923 19.904 136.123 19.512C136.331 19.12 136.627 18.816 137.011 18.6C137.395 18.376 137.911 18.264 138.559 18.264C139.207 18.264 139.723 18.376 140.107 18.6C140.491 18.816 140.783 19.12 140.983 19.512C141.191 19.904 141.323 20.376 141.379 20.928C141.443 21.472 141.475 22.068 141.475 22.716C141.475 23.372 141.443 23.972 141.379 24.516C141.323 25.06 141.191 25.528 140.983 25.92C140.783 26.312 140.491 26.612 140.107 26.82C139.723 27.028 139.207 27.132 138.559 27.132C137.911 27.132 137.395 27.028 137.011 26.82C136.627 26.612 136.331 26.312 136.123 25.92C135.923 25.528 135.791 25.06 135.727 24.516C135.671 23.972 135.643 23.372 135.643 22.716ZM147.507 18.432V19.848H145.635V27H143.907V19.848H142.035V18.432H147.507ZM133.26 36.324C133.26 35.7 133.184 35.248 133.032 34.968C132.888 34.68 132.62 34.536 132.228 34.536C132.012 34.536 131.832 34.596 131.688 34.716C131.552 34.828 131.444 35.016 131.364 35.28C131.284 35.536 131.228 35.876 131.196 36.3C131.164 36.716 131.148 37.228 131.148 37.836C131.148 38.484 131.168 39.008 131.208 39.408C131.256 39.808 131.324 40.12 131.412 40.344C131.508 40.56 131.624 40.708 131.76 40.788C131.904 40.86 132.068 40.896 132.252 40.896C132.404 40.896 132.544 40.872 132.672 40.824C132.808 40.768 132.924 40.664 133.02 40.512C133.116 40.352 133.192 40.132 133.248 39.852C133.304 39.564 133.332 39.188 133.332 38.724H135.06C135.06 39.188 135.024 39.628 134.952 40.044C134.88 40.46 134.744 40.824 134.544 41.136C134.352 41.448 134.076 41.692 133.716 41.868C133.364 42.044 132.904 42.132 132.336 42.132C131.688 42.132 131.172 42.028 130.788 41.82C130.404 41.612 130.108 41.312 129.9 40.92C129.7 40.528 129.568 40.06 129.504 39.516C129.448 38.972 129.42 38.372 129.42 37.716C129.42 37.068 129.448 36.472 129.504 35.928C129.568 35.376 129.7 34.904 129.9 34.512C130.108 34.12 130.404 33.816 130.788 33.6C131.172 33.376 131.688 33.264 132.336 33.264C132.952 33.264 133.436 33.364 133.788 33.564C134.148 33.764 134.416 34.02 134.592 34.332C134.768 34.636 134.876 34.968 134.916 35.328C134.964 35.68 134.988 36.012 134.988 36.324H133.26ZM139.621 38.772L138.793 34.92H138.769L137.941 38.772H139.621ZM139.849 33.432L142.117 42H140.317L139.921 40.188H137.641L137.245 42H135.445L137.713 33.432H139.849ZM147.073 33.432V34.848H145.201V42H143.473V34.848H141.601V33.432H147.073ZM150.742 38.772L149.914 34.92H149.89L149.062 38.772H150.742ZM150.97 33.432L153.238 42H151.438L151.042 40.188H148.762L148.366 42H146.566L148.834 33.432H150.97ZM153.834 42V33.432H155.562V40.584H158.622V42H153.834ZM159.668 33.432L160.796 36.744H160.82L162.02 33.432H163.892L161.672 38.628V42H159.944V38.628L157.724 33.432H159.668ZM169.538 33.432V34.848H167.666V42H165.938V34.848H164.066V33.432H169.538ZM170.372 42V33.432H172.1V42H170.372ZM174.929 37.716C174.929 38.292 174.941 38.784 174.965 39.192C174.997 39.592 175.053 39.92 175.133 40.176C175.221 40.424 175.341 40.608 175.493 40.728C175.653 40.84 175.861 40.896 176.117 40.896C176.373 40.896 176.577 40.84 176.729 40.728C176.889 40.608 177.009 40.424 177.089 40.176C177.177 39.92 177.233 39.592 177.257 39.192C177.289 38.784 177.305 38.292 177.305 37.716C177.305 37.14 177.289 36.652 177.257 36.252C177.233 35.852 177.177 35.524 177.089 35.268C177.009 35.012 176.889 34.828 176.729 34.716C176.577 34.596 176.373 34.536 176.117 34.536C175.861 34.536 175.653 34.596 175.493 34.716C175.341 34.828 175.221 35.012 175.133 35.268C175.053 35.524 174.997 35.852 174.965 36.252C174.941 36.652 174.929 37.14 174.929 37.716ZM178.277 43.02L177.257 42C176.937 42.088 176.557 42.132 176.117 42.132C175.469 42.132 174.953 42.028 174.569 41.82C174.185 41.612 173.889 41.312 173.681 40.92C173.481 40.528 173.349 40.06 173.285 39.516C173.229 38.972 173.201 38.372 173.201 37.716C173.201 37.068 173.229 36.472 173.285 35.928C173.349 35.376 173.481 34.904 173.681 34.512C173.889 34.12 174.185 33.816 174.569 33.6C174.953 33.376 175.469 33.264 176.117 33.264C176.765 33.264 177.281 33.376 177.665 33.6C178.049 33.816 178.341 34.12 178.541 34.512C178.749 34.904 178.881 35.376 178.937 35.928C179.001 36.472 179.033 37.068 179.033 37.716C179.033 38.444 178.993 39.104 178.913 39.696C178.833 40.288 178.653 40.788 178.373 41.196L179.297 42.096L178.277 43.02ZM181.669 33.432V39.408C181.669 39.624 181.681 39.824 181.705 40.008C181.737 40.184 181.789 40.34 181.861 40.476C181.941 40.604 182.045 40.708 182.173 40.788C182.309 40.86 182.477 40.896 182.677 40.896C182.885 40.896 183.053 40.86 183.181 40.788C183.309 40.708 183.409 40.604 183.481 40.476C183.561 40.34 183.613 40.184 183.637 40.008C183.669 39.824 183.685 39.624 183.685 39.408V33.432H185.413V39.408C185.413 39.952 185.337 40.404 185.185 40.764C185.033 41.116 184.829 41.396 184.573 41.604C184.317 41.812 184.025 41.952 183.697 42.024C183.369 42.096 183.029 42.132 182.677 42.132C182.325 42.132 181.985 42.1 181.657 42.036C181.329 41.972 181.037 41.844 180.781 41.652C180.525 41.452 180.321 41.172 180.169 40.812C180.017 40.452 179.941 39.984 179.941 39.408V33.432H181.669ZM191.294 33.432V34.848H188.234V36.864H191.114V38.28H188.234V40.584H191.414V42H186.506V33.432H191.294Z" fill="black"/>
<path d="M222.337 36.8405L216.602 36.8342C216.276 36.8342 216.006 36.5707 216.006 36.2444L216 30.5407C216 30.3023 216.144 30.0827 216.37 29.9948C216.59 29.9007 216.847 29.9509 217.016 30.1203L218.14 31.2372L227.803 21.6181C228.035 21.3923 228.411 21.3923 228.643 21.6181L231.304 24.2661C231.417 24.379 231.48 24.5233 231.48 24.6865C231.48 24.8433 231.417 24.9939 231.304 25.1069L221.641 34.7134L222.758 35.8303C222.927 35.9997 222.977 36.257 222.883 36.4766C222.795 36.6962 222.576 36.8405 222.337 36.8405ZM217.198 35.6483L220.894 35.6546L220.373 35.1338C220.141 34.9016 220.141 34.5252 220.373 34.293L230.036 24.6865L228.223 22.8794L218.56 32.4922C218.328 32.7243 217.951 32.7243 217.719 32.4922L217.192 31.9776" fill="white"/>
<path d="M234.473 28.2444C234.015 28.2444 233.575 28.0687 233.237 27.755C232.885 27.4287 232.684 26.9832 232.666 26.5001L232.578 23.7706L233.77 23.7329L233.858 26.4624C233.864 26.6256 233.933 26.7761 234.052 26.8891C234.171 27.002 234.341 27.046 234.498 27.0585C234.661 27.0522 234.811 26.9832 234.924 26.864C235.037 26.7448 235.094 26.5879 235.088 26.4248L234.956 22.7855L236.148 22.7478L236.28 26.3808C236.299 26.864 236.129 27.322 235.797 27.6734C235.464 28.0248 235.019 28.2256 234.535 28.2381C234.51 28.2444 234.491 28.2444 234.473 28.2444Z" fill="white"/>
<path d="M234.473 28.2444C234.015 28.2444 233.575 28.0687 233.237 27.755C232.885 27.4287 232.684 26.9832 232.666 26.5001L232.578 23.7706L233.77 23.7329L233.858 26.4624C233.864 26.6256 233.933 26.7761 234.052 26.8891C234.171 27.002 234.341 27.046 234.498 27.0585C234.661 27.0522 234.811 26.9832 234.924 26.864C235.037 26.7448 235.094 26.5879 235.088 26.4248L234.956 22.7855L236.148 22.7478L236.28 26.3808C236.299 26.864 236.129 27.322 235.797 27.6734C235.464 28.0248 235.019 28.2256 234.535 28.2381C234.51 28.2444 234.491 28.2444 234.473 28.2444Z" fill="white"/>
<path d="M232.063 28.6521C231.599 28.6521 231.166 28.4827 230.827 28.169C230.476 27.8364 230.269 27.3909 230.256 26.9078L230.168 24.1783L231.36 24.1406L231.448 26.8701C231.455 27.0395 231.524 27.1901 231.643 27.3031C231.762 27.416 231.919 27.485 232.082 27.4662C232.421 27.4537 232.691 27.1713 232.678 26.8325L232.546 23.1994L233.739 23.1555L233.87 26.7886C233.908 27.7862 233.124 28.6145 232.126 28.6521C232.101 28.6521 232.082 28.6521 232.063 28.6521Z" fill="white"/>
<path d="M234.115 36.8531C233.87 36.8531 233.651 36.7025 233.563 36.4829C233.469 36.2632 233.519 36.006 233.688 35.8366L234.811 34.7197L225.148 25.1069C224.916 24.881 224.916 24.5045 225.148 24.2723L227.803 21.6244C228.022 21.4048 228.424 21.4048 228.643 21.6244L238.733 31.6576L237.886 32.4984L228.223 22.8856L226.41 24.6927L236.073 34.2993C236.311 34.5314 236.311 34.9142 236.073 35.1401L235.552 35.6609H239.248L239.254 30.547H240.446L240.44 36.2507C240.44 36.577 240.176 36.8405 239.844 36.8405L234.115 36.8531Z" fill="white"/>
<path d="M228.198 41.3648C228.041 41.3648 227.891 41.3083 227.771 41.1891L223.718 37.167C223.548 36.9976 223.498 36.7403 223.586 36.5207C223.68 36.2948 223.9 36.1505 224.138 36.1505H225.726V25.1071C225.726 24.7808 225.989 24.511 226.322 24.511H230.08C230.407 24.511 230.677 24.7808 230.677 25.1071V36.7466H229.484V25.7032H226.918V36.7466C226.918 37.0729 226.648 37.3364 226.322 37.3364H225.581L228.198 39.9341L231.831 36.3262L232.678 37.167L228.618 41.1891C228.499 41.3083 228.349 41.3648 228.198 41.3648Z" fill="white"/>
<path d="M222.331 36.8405L216.602 36.8342C216.276 36.8342 216.006 36.5707 216.006 36.2444L216 30.5407C216 30.3023 216.144 30.0827 216.37 29.9948C216.59 29.9007 216.847 29.9509 217.016 30.1203L218.14 31.2372L227.803 21.6181C228.035 21.3923 228.411 21.3923 228.643 21.6181L231.304 24.2661C231.417 24.379 231.48 24.5233 231.48 24.6865C231.48 24.8433 231.417 24.9939 231.304 25.1069L221.214 35.1338L220.373 34.293L230.036 24.6865L228.223 22.8794L218.56 32.4922C218.328 32.7243 217.951 32.7243 217.719 32.4922L217.192 31.9776L217.198 35.6483L222.337 35.6546" fill="white"/>
<path d="M241.927 19.8237C241.494 19.8237 241.086 19.6543 240.779 19.3531L235.182 13.7812C234.874 13.48 234.705 13.0722 234.705 12.6455C234.705 12.2126 234.874 11.811 235.175 11.5035L236.631 10.0541C237.246 9.4517 238.313 9.4517 238.928 10.0541L244.525 15.626C245.158 16.2534 245.158 17.2762 244.525 17.9037L243.069 19.3531C242.762 19.6543 242.36 19.8237 241.927 19.8237ZM237.779 10.7694C237.666 10.7694 237.56 10.8196 237.478 10.8949V10.9012L236.023 12.3443C235.941 12.4259 235.897 12.5326 235.897 12.6455C235.897 12.7585 235.941 12.8651 236.023 12.9404L241.62 18.5123C241.783 18.6755 242.065 18.6692 242.228 18.5123L243.684 17.0692C243.847 16.8997 243.847 16.6299 243.678 16.4668L238.081 10.9012C237.999 10.8196 237.892 10.7694 237.779 10.7694Z" fill="white"/>
<path d="M236 29.5L231.5 25.5L230.5 26.5L230 28.5L233 32.5L236 29.5Z" fill="#333347"/>
<path d="M234.115 36.8531C233.87 36.8531 233.651 36.7025 233.563 36.4829C233.469 36.2632 233.519 36.006 233.688 35.8366L234.811 34.7197L225.148 25.1069C224.916 24.881 224.916 24.5045 225.148 24.2723L227.803 21.6244C228.022 21.4048 228.424 21.4048 228.643 21.6244L238.313 31.2435L239.43 30.1266C239.599 29.9572 239.856 29.907 240.082 30.0011C240.302 30.089 240.446 30.3086 240.446 30.547L240.44 36.2507C240.44 36.577 240.176 36.8405 239.844 36.8405L234.115 36.8531ZM226.41 24.6927L236.073 34.2993C236.311 34.5314 236.311 34.9142 236.073 35.1401L235.552 35.6609H239.248L239.254 31.9839L238.733 32.4984C238.501 32.7306 238.124 32.7306 237.886 32.4984L228.223 22.8856" fill="white"/>
<path d="M224.5 37.0002H226.5V25.5002H230L230.5 37.0002H231.5L228 41.0002L224.5 37.0002Z" fill="#333347"/>
<path d="M228.198 41.3648C228.041 41.3648 227.891 41.3083 227.778 41.1891L223.718 37.167C223.548 36.9976 223.498 36.7403 223.586 36.5207C223.68 36.2948 223.9 36.1505 224.138 36.1505H225.726V25.1071C225.726 24.7808 225.989 24.511 226.322 24.511H230.08C230.407 24.511 230.677 24.7808 230.677 25.1071V36.1505H232.251C232.496 36.1505 232.716 36.2948 232.804 36.5207C232.898 36.7403 232.848 36.9976 232.678 37.167L228.618 41.1891C228.499 41.3083 228.349 41.3648 228.198 41.3648ZM225.581 37.3364L228.198 39.9341L230.815 37.3364H230.08C229.748 37.3364 229.484 37.0729 229.484 36.7466V25.7032H226.918V36.7466C226.918 37.0729 226.648 37.3364 226.322 37.3364" fill="white"/>
<path d="M230.501 22.0826L227.803 25.6843C227.345 26.2929 227.47 27.1588 228.085 27.6106C228.694 28.0686 229.566 27.9431 230.024 27.3345L231.706 25.0882C232.377 24.2097 233.13 23.8834 233.494 23.7893C234.303 23.576 236.738 22.6661 238.043 21.8818C239.342 21.0912 240.013 19.259 239.944 17.684L236.06 13.8188L227.815 16.3789C226.811 16.7177 226.447 17.2887 226.297 17.6276C226.146 17.9727 224.502 21.8379 224.502 21.8379C224.314 22.321 224.207 22.8983 224.483 23.3877C224.759 23.8772 225.387 24.856 225.387 24.856L227.2 23.0489C227.2 23.0489 227.131 22.0512 227.363 21.5367C227.602 21.0284 227.853 20.1814 228.393 19.9869C228.926 19.7986 229.861 19.4974 229.861 19.4974C229.861 19.4974 229.779 20.5641 229.967 21.1351C230.162 21.7061 230.457 22.0449 230.457 22.0449" fill="#333347"/>
<path d="M228.913 28.4827C228.487 28.4827 228.072 28.3447 227.727 28.0874C227.301 27.7737 227.025 27.3094 226.949 26.7886C226.88 26.2678 227.012 25.747 227.332 25.3266L229.76 22.0826C229.641 21.8881 229.509 21.6371 229.403 21.3233C229.309 21.0284 229.265 20.6582 229.252 20.3257C229.02 20.401 228.782 20.4825 228.593 20.5453C228.399 20.6143 228.167 21.1728 228.041 21.4677L227.909 21.7877C227.79 22.0387 227.771 22.6536 227.796 23.0112C227.809 23.1806 227.746 23.3501 227.627 23.4693L225.807 25.2764C225.682 25.4019 225.5 25.4646 225.324 25.4458C225.142 25.427 224.985 25.3266 224.885 25.176C224.885 25.176 224.245 24.1783 223.963 23.6826C223.643 23.1116 223.636 22.4151 223.95 21.6183C223.956 21.6057 225.6 17.7342 225.751 17.3954C226.071 16.6675 226.717 16.1216 227.621 15.8142L235.878 13.2541C236.092 13.1851 236.324 13.2416 236.481 13.3984L240.371 17.2699C240.478 17.3766 240.534 17.5146 240.54 17.6652C240.609 19.2653 239.95 21.4237 238.35 22.3838C236.995 23.2057 234.535 24.1281 233.644 24.3666C233.513 24.3979 232.822 24.6113 232.182 25.4458L230.501 27.6921C230.181 28.1125 229.723 28.3886 229.196 28.4639C229.102 28.4765 229.007 28.4827 228.913 28.4827ZM229.867 18.9076C229.999 18.9076 230.131 18.9515 230.231 19.0331C230.388 19.1586 230.476 19.3468 230.457 19.5476C230.432 19.9115 230.425 20.6143 230.538 20.9469C230.683 21.3924 230.909 21.6622 230.915 21.6622C231.147 21.863 231.166 22.1892 230.978 22.4402L228.286 26.0356C228.154 26.205 228.104 26.4121 228.135 26.6192C228.16 26.8262 228.273 27.0145 228.443 27.1337C228.612 27.2655 228.819 27.3094 229.026 27.2906C229.233 27.2592 229.422 27.1462 229.547 26.9831L231.229 24.7305C232.088 23.6136 233.061 23.2873 233.343 23.2183C234.059 23.0301 236.468 22.1391 237.729 21.3735C238.802 20.7272 239.342 19.2025 239.354 17.935L235.891 14.4965L227.991 16.9436C227.42 17.1381 227.025 17.4519 226.843 17.866C226.692 18.2111 225.054 22.07 225.054 22.07C224.885 22.503 224.866 22.8544 225.004 23.0928C225.123 23.3124 225.318 23.6262 225.494 23.9085L226.598 22.8167C226.592 22.4277 226.61 21.7563 226.824 21.292L226.943 21.0159C227.175 20.4512 227.501 19.6731 228.192 19.4284C228.731 19.2402 229.679 18.9327 229.679 18.9327C229.742 18.9139 229.804 18.9076 229.867 18.9076Z" fill="white"/>
<path d="M214.369 44.7H215.881C216.373 44.7 216.742 44.832 216.988 45.096C217.234 45.36 217.357 45.747 217.357 46.257V49.443C217.357 49.953 217.234 50.34 216.988 50.604C216.742 50.868 216.373 51 215.881 51H214.369V44.7ZM215.863 50.1C216.025 50.1 216.148 50.052 216.232 49.956C216.322 49.86 216.367 49.704 216.367 49.488V46.212C216.367 45.996 216.322 45.84 216.232 45.744C216.148 45.648 216.025 45.6 215.863 45.6H215.359V50.1H215.863ZM218.025 44.7H220.725V45.6H219.015V47.265H220.374V48.165H219.015V50.1H220.725V51H218.025V44.7ZM219.465 43.242H220.545L219.582 44.277H218.835L219.465 43.242ZM222.69 51.09C222.216 51.09 221.853 50.955 221.601 50.685C221.355 50.415 221.232 50.034 221.232 49.542V46.158C221.232 45.666 221.355 45.285 221.601 45.015C221.853 44.745 222.216 44.61 222.69 44.61C223.164 44.61 223.524 44.745 223.77 45.015C224.022 45.285 224.148 45.666 224.148 46.158V46.824H223.212V46.095C223.212 45.705 223.047 45.51 222.717 45.51C222.387 45.51 222.222 45.705 222.222 46.095V49.614C222.222 49.998 222.387 50.19 222.717 50.19C223.047 50.19 223.212 49.998 223.212 49.614V48.651H224.148V49.542C224.148 50.034 224.022 50.415 223.77 50.685C223.524 50.955 223.164 51.09 222.69 51.09ZM224.74 44.7H225.73V47.265H226.792V44.7H227.782V51H226.792V48.165H225.73V51H224.74V44.7ZM228.519 44.7H231.219V45.6H229.509V47.265H230.868V48.165H229.509V50.1H231.219V51H228.519V44.7ZM228.699 43.242H229.779L230.409 44.277H229.662L228.699 43.242ZM232.563 45.6H231.528V44.7H234.588V45.6H233.553V51H232.563V45.6ZM235.067 44.7H237.767V45.6H236.057V47.265H237.416V48.165H236.057V50.1H237.767V51H235.067V44.7ZM238.337 44.7H239.804C240.314 44.7 240.686 44.82 240.92 45.06C241.154 45.294 241.271 45.657 241.271 46.149V46.536C241.271 47.19 241.055 47.604 240.623 47.778V47.796C240.863 47.868 241.031 48.015 241.127 48.237C241.229 48.459 241.28 48.756 241.28 49.128V50.235C241.28 50.415 241.286 50.562 241.298 50.676C241.31 50.784 241.34 50.892 241.388 51H240.38C240.344 50.898 240.32 50.802 240.308 50.712C240.296 50.622 240.29 50.46 240.29 50.226V49.074C240.29 48.786 240.242 48.585 240.146 48.471C240.056 48.357 239.897 48.3 239.669 48.3H239.327V51H238.337V44.7ZM239.687 47.4C239.885 47.4 240.032 47.349 240.128 47.247C240.23 47.145 240.281 46.974 240.281 46.734V46.248C240.281 46.02 240.239 45.855 240.155 45.753C240.077 45.651 239.951 45.6 239.777 45.6H239.327V47.4H239.687ZM241.967 44.7H242.957V51H241.967V44.7ZM243.698 44.7H246.398V45.6H244.688V47.265H246.047V48.165H244.688V50.1H246.398V51H243.698V44.7Z" fill="white"/>
</g>
<defs>
<clipPath id="clip0_79_756">
<rect width="260" height="61" fill="white"/>
</clipPath>
</defs>
</svg>
