<svg width="312" height="61" viewBox="0 0 312 61" fill="none" xmlns="http://www.w3.org/2000/svg">
<g clip-path="url(#clip0_79_459)">
<path d="M24.6979 60.4688C11.0781 60.4688 0 49.5208 0 36.0625V0H286.948C300.563 0 311.641 10.9479 311.641 24.4062V60.4688" fill="white"/>
<path d="M244.083 52.9114H69.1353C59.6874 52.9114 51.9999 45.3541 51.9999 36.0625V7.55725H226.948C236.396 7.55725 244.083 15.1145 244.083 24.4062V52.9114ZM227 6L50.1667 5.66663L50.1145 36.0625C50.1145 46.3958 58.6458 54.802 69.1353 54.802L245.969 55V24.4062C245.969 14.0729 237.49 6 227 6Z" fill="#010101"/>
<path d="M102.901 5.66663H50.1145V36.0625C50.1145 46.3958 58.6458 54.802 69.1353 54.802H121.927V24.4062C121.927 14.0729 113.391 5.66663 102.901 5.66663Z" fill="#010101"/>
<path d="M63.651 29.3594C58.8489 29.3594 54.9583 33.25 54.9583 38.0521C54.9583 42.8542 58.8489 46.7448 63.651 46.7448C68.4583 46.7448 72.3489 42.8542 72.3489 38.0521C72.3489 33.25 68.4583 29.3594 63.651 29.3594Z" fill="white"/>
<path d="M69.3229 39.4688H65.0729V43.7188H62.2344V39.4688H57.9844V36.6355H62.2344V32.3802H65.0729V36.6355H69.3229" fill="#1C1C1B"/>
<path d="M55.7864 26.5937V17.1979H58.2708V24.5156H61.828V26.5937" fill="white"/>
<path d="M62.9426 26.5937V17.1979H69.0155V19.276H65.4322V20.7552H68.4947V22.8385H65.4322V24.5156H69.1614V26.5937" fill="white"/>
<path d="M75.0885 26.5937V19.276H72.6041V17.1979H80.0677V19.276H77.5781V26.5937" fill="white"/>
<path d="M83.5521 21.4739H84.4479C85.4479 21.4739 85.9531 21.0625 85.9531 20.2343C85.9531 19.8281 85.8229 19.5468 85.5677 19.3958C85.3125 19.2395 84.9375 19.1614 84.4479 19.1614H83.5521V21.4739ZM81.0625 26.5989V17.1979H84.6198C85.125 17.1979 85.6042 17.2448 86.0625 17.3385C86.5208 17.4375 86.9167 17.5989 87.2604 17.8333C87.6042 18.0625 87.875 18.375 88.0781 18.7656C88.2813 19.1562 88.3802 19.6458 88.3802 20.2343C88.3802 20.9062 88.2448 21.4687 87.9688 21.9114C87.6979 22.3541 87.3281 22.6979 86.8646 22.9531L88.901 26.5989H86.125L84.5052 23.4427H83.5521V26.5989" fill="white"/>
<path d="M89.8698 26.5989H92.3593V17.1979H89.8698V26.5989Z" fill="white"/>
<path d="M75.3801 43.276V33.8698H81.5103V35.9531H77.8697V37.75H80.9895V39.8333H77.8697V43.276" fill="white"/>
<path d="M84.9218 38.7031L84.7604 39.3541H86.4948L86.3385 38.7031C86.2239 38.25 86.1041 37.7604 85.9895 37.2291C85.875 36.6979 85.7604 36.1979 85.6406 35.7239H85.5833C85.4791 36.2031 85.3698 36.7083 85.2604 37.2343C85.151 37.7604 85.0364 38.25 84.9218 38.7031ZM81.3073 43.276L84.1666 33.8698H87.1718L90.0364 43.276H87.4062L86.9427 41.276H84.3125L83.8489 43.276" fill="white"/>
<path d="M94.5624 43.4479C93.9687 43.4479 93.3958 43.3489 92.8541 43.151C92.3072 42.9531 91.8333 42.651 91.4218 42.2552C91.0103 41.8541 90.6822 41.3541 90.4426 40.75C90.203 40.1458 90.0833 39.4479 90.0833 38.6458C90.0833 37.8541 90.2083 37.151 90.4583 36.5416C90.7083 35.927 91.0416 35.4114 91.4635 34.9948C91.8801 34.5729 92.3645 34.25 92.9114 34.0312C93.4583 33.8073 94.026 33.6979 94.6249 33.6979C95.2499 33.6979 95.8124 33.8229 96.302 34.0677C96.7968 34.3125 97.2083 34.6041 97.5468 34.9427L96.2447 36.5312C96.0155 36.3333 95.776 36.1666 95.5312 36.0312C95.2812 35.9062 94.9999 35.8385 94.6822 35.8385C94.401 35.8385 94.1405 35.901 93.8958 36.026C93.651 36.151 93.4322 36.3333 93.2447 36.5625C93.0572 36.7916 92.9062 37.0781 92.7968 37.4166C92.6822 37.75 92.6301 38.1354 92.6301 38.5573C92.6301 39.4479 92.8124 40.125 93.1874 40.5989C93.5572 41.0677 94.0468 41.3073 94.651 41.3073C95.0208 41.3073 95.3437 41.2291 95.6301 41.0677C95.9114 40.9062 96.1562 40.7187 96.3593 40.4948L97.6614 42.0573C97.2551 42.5208 96.7916 42.8698 96.2655 43.0989C95.7395 43.3333 95.1718 43.4479 94.5624 43.4479Z" fill="white"/>
<path d="M98.6198 43.276H101.104V33.8698H98.6198V43.276Z" fill="white"/>
<path d="M102.875 43.276V33.8698H105.365V41.1927H108.922V43.276" fill="white"/>
<path d="M110.031 43.276V33.8698H116.109V35.9531H112.521V37.4323H115.589V39.5156H112.521V41.1927H116.255V43.276" fill="white"/>
<path fill-rule="evenodd" clip-rule="evenodd" d="M16.2604 29.1927C16.2604 29.1927 15.9115 29.151 15.6771 29.7968L13.5573 35.7083C15.224 37.1198 17.1823 38.1823 19.3281 38.8073L16.7552 29.7708C16.5781 29.125 16.2604 29.1927 16.2604 29.1927ZM5.67188 23.6979C5.67188 13.7552 13.7604 5.66663 23.7031 5.66663C28.9635 5.66663 33.7083 7.93225 37.0052 11.5364L35.3906 13.177C32.5104 9.97913 28.3385 7.9635 23.7031 7.9635C15.026 7.9635 7.96875 15.0208 7.96875 23.6979C7.96875 27.5208 9.34375 31.0312 11.6198 33.7604L14.2656 20.7968C14.7396 18.5104 16.8854 16.7552 19.0521 17.1562C20.6406 17.4583 28.0938 22.3958 28.0938 22.3958C28.7292 22.802 28.375 23.3489 28.375 23.3489C28.375 23.3489 28.0729 23.875 27.4479 23.6041L21.9792 21.4062C21.0052 20.9948 19.4323 21.4323 19.6667 24.1875L21.3802 38.7864L21.4531 39.2656C22.1875 39.375 22.9375 39.4323 23.7031 39.4323C24.1875 39.4323 24.6719 39.401 25.1458 39.3541L25.0052 37.4531L28.6979 40.2708L25.3958 43.4635L25.276 41.651C24.7552 41.6979 24.2344 41.7291 23.7031 41.7291C13.7604 41.7291 5.67188 33.6406 5.67188 23.6979ZM19.9375 16.4115C18.4167 16.4115 17.1875 15.1823 17.1875 13.6562C17.1875 12.1354 18.4167 10.9062 19.9375 10.9062C21.4583 10.9062 22.6927 12.1354 22.6927 13.6562C22.6927 15.1823 21.4583 16.4115 19.9375 16.4115ZM37.1046 24.564C37.7365 24.0543 39.7005 22.4703 40.1613 19.1927L40.2342 18.1823L42.0519 18.2864L38.0259 12.8541L33.2134 17.6927L34.979 17.7656L34.9998 17.7708C35.0415 17.9687 35.2446 19.2656 34.5571 21.3177C33.7967 23.6041 31.4373 26.2916 28.4634 25.8177C32.6457 27.5677 36.0311 25.4375 37.0936 24.5729L37.1046 24.564ZM28.375 25.8489C29.5781 28.6093 33.1146 29.1406 35.4479 28.552C37.5208 28.026 38.5052 27.1718 38.6719 27.0156L38.6615 27L37.776 25.4635L44.4427 26.9218L42.0312 33.2395L41.1354 31.6458L40.2656 32.1198C37.2654 33.4985 34.8744 32.7065 34.0978 32.4492L34.0781 32.4427C32.7812 32.0156 29.1562 30.3125 28.375 25.8489ZM28.4062 25.7448C26.7135 28.2343 28.151 31.5104 29.8958 33.1718C31.4895 34.6823 32.7655 35.0364 32.9322 35.0781L33.7447 33.5208L36.0885 39.9323L29.4635 41.2812L30.3437 39.6458L29.4478 39.1458C26.6887 37.3493 26.0817 34.9168 25.8818 34.1162L25.8749 34.0885C25.5416 32.7604 25.0468 28.7864 28.4062 25.7448Z" fill="#010101"/>
<path d="M130.552 14.872H131.064C131.293 14.872 131.477 14.8027 131.616 14.664C131.76 14.5253 131.832 14.3093 131.832 14.016C131.832 13.728 131.771 13.5093 131.648 13.36C131.525 13.2107 131.32 13.136 131.032 13.136H130.552V14.872ZM129.4 12.288H131.416C131.709 12.288 131.955 12.3387 132.152 12.44C132.355 12.536 132.517 12.664 132.64 12.824C132.763 12.984 132.851 13.168 132.904 13.376C132.957 13.5787 132.984 13.7867 132.984 14C132.984 14.2933 132.939 14.5493 132.848 14.768C132.763 14.9867 132.64 15.1653 132.48 15.304C132.325 15.4427 132.136 15.5467 131.912 15.616C131.688 15.6853 131.44 15.72 131.168 15.72H130.552V18H129.4V12.288ZM135.636 15.848L135.084 13.28H135.068L134.516 15.848H135.636ZM135.788 12.288L137.3 18H136.1L135.836 16.792H134.316L134.052 18H132.852L134.364 12.288H135.788ZM138.849 14.872H139.361C139.59 14.872 139.774 14.8027 139.913 14.664C140.057 14.5253 140.129 14.3093 140.129 14.016C140.129 13.728 140.068 13.5093 139.945 13.36C139.822 13.2107 139.617 13.136 139.329 13.136H138.849V14.872ZM137.697 12.288H139.713C140.006 12.288 140.252 12.3387 140.449 12.44C140.652 12.536 140.814 12.664 140.937 12.824C141.06 12.984 141.148 13.168 141.201 13.376C141.254 13.5787 141.281 13.7867 141.281 14C141.281 14.2933 141.236 14.5493 141.145 14.768C141.06 14.9867 140.937 15.1653 140.777 15.304C140.622 15.4427 140.433 15.5467 140.209 15.616C139.985 15.6853 139.737 15.72 139.465 15.72H138.849V18H137.697V12.288ZM141.901 18V12.288H143.053V18H141.901ZM147.1 12.288V13.232H145.06V14.576H146.98V15.52H145.06V17.056H147.18V18H143.908V12.288H147.1ZM147.759 12.288H149.887C150.367 12.288 150.741 12.4107 151.007 12.656C151.274 12.896 151.407 13.264 151.407 13.76C151.407 14.144 151.33 14.4587 151.175 14.704C151.021 14.944 150.781 15.0987 150.455 15.168V15.184C150.743 15.2267 150.954 15.32 151.087 15.464C151.221 15.608 151.303 15.84 151.335 16.16C151.346 16.2667 151.354 16.384 151.359 16.512C151.365 16.6347 151.37 16.7733 151.375 16.928C151.386 17.232 151.402 17.464 151.423 17.624C151.455 17.784 151.525 17.8933 151.631 17.952V18H150.383C150.325 17.92 150.287 17.8293 150.271 17.728C150.255 17.6213 150.245 17.512 150.239 17.4L150.207 16.304C150.197 16.08 150.141 15.904 150.039 15.776C149.938 15.648 149.767 15.584 149.527 15.584H148.911V18H147.759V12.288ZM148.911 14.784H149.391C149.669 14.784 149.882 14.72 150.031 14.592C150.181 14.4587 150.255 14.2373 150.255 13.928C150.255 13.4 149.989 13.136 149.455 13.136H148.911V14.784ZM153.133 16.216V16.384C153.133 16.5173 153.143 16.64 153.165 16.752C153.186 16.8587 153.226 16.9493 153.285 17.024C153.343 17.0987 153.421 17.1573 153.517 17.2C153.618 17.2427 153.743 17.264 153.893 17.264C154.069 17.264 154.226 17.208 154.365 17.096C154.509 16.9787 154.581 16.8 154.581 16.56C154.581 16.432 154.562 16.3227 154.525 16.232C154.493 16.136 154.437 16.0507 154.357 15.976C154.277 15.9013 154.17 15.8347 154.037 15.776C153.909 15.712 153.749 15.648 153.557 15.584C153.301 15.4987 153.079 15.4053 152.893 15.304C152.706 15.2027 152.549 15.0853 152.421 14.952C152.298 14.8133 152.207 14.656 152.149 14.48C152.09 14.2987 152.061 14.0907 152.061 13.856C152.061 13.2907 152.218 12.8693 152.533 12.592C152.847 12.3147 153.279 12.176 153.829 12.176C154.085 12.176 154.319 12.2053 154.533 12.264C154.751 12.3173 154.938 12.408 155.093 12.536C155.253 12.6587 155.375 12.8187 155.461 13.016C155.551 13.208 155.597 13.44 155.597 13.712V13.872H154.493C154.493 13.6 154.445 13.392 154.349 13.248C154.253 13.0987 154.093 13.024 153.869 13.024C153.741 13.024 153.634 13.0427 153.549 13.08C153.463 13.1173 153.394 13.168 153.341 13.232C153.293 13.2907 153.258 13.36 153.237 13.44C153.221 13.52 153.213 13.6027 153.213 13.688C153.213 13.864 153.25 14.0133 153.325 14.136C153.399 14.2533 153.559 14.3627 153.805 14.464L154.693 14.848C154.911 14.944 155.09 15.0453 155.229 15.152C155.367 15.2533 155.477 15.3653 155.557 15.488C155.642 15.6053 155.701 15.736 155.733 15.88C155.765 16.024 155.781 16.184 155.781 16.36C155.781 16.9627 155.605 17.4027 155.253 17.68C154.906 17.952 154.421 18.088 153.797 18.088C153.146 18.088 152.679 17.9467 152.397 17.664C152.119 17.3813 151.981 16.976 151.981 16.448V16.216H153.133ZM130.552 24.872H131.064C131.293 24.872 131.477 24.8027 131.616 24.664C131.76 24.5253 131.832 24.3093 131.832 24.016C131.832 23.728 131.771 23.5093 131.648 23.36C131.525 23.2107 131.32 23.136 131.032 23.136H130.552V24.872ZM129.4 22.288H131.416C131.709 22.288 131.955 22.3387 132.152 22.44C132.355 22.536 132.517 22.664 132.64 22.824C132.763 22.984 132.851 23.168 132.904 23.376C132.957 23.5787 132.984 23.7867 132.984 24C132.984 24.2933 132.939 24.5493 132.848 24.768C132.763 24.9867 132.64 25.1653 132.48 25.304C132.325 25.4427 132.136 25.5467 131.912 25.616C131.688 25.6853 131.44 25.72 131.168 25.72H130.552V28H129.4V22.288ZM133.548 22.288H134.7V24.472H136.044V22.288H137.196V28H136.044V25.464H134.7V28H133.548V22.288ZM139.026 25.144C139.026 25.528 139.034 25.856 139.05 26.128C139.071 26.3947 139.108 26.6133 139.162 26.784C139.22 26.9493 139.3 27.072 139.402 27.152C139.508 27.2267 139.647 27.264 139.818 27.264C139.988 27.264 140.124 27.2267 140.226 27.152C140.332 27.072 140.412 26.9493 140.466 26.784C140.524 26.6133 140.562 26.3947 140.578 26.128C140.599 25.856 140.61 25.528 140.61 25.144C140.61 24.76 140.599 24.4347 140.578 24.168C140.562 23.9013 140.524 23.6827 140.466 23.512C140.412 23.3413 140.332 23.2187 140.226 23.144C140.124 23.064 139.988 23.024 139.818 23.024C139.647 23.024 139.508 23.064 139.402 23.144C139.3 23.2187 139.22 23.3413 139.162 23.512C139.108 23.6827 139.071 23.9013 139.05 24.168C139.034 24.4347 139.026 24.76 139.026 25.144ZM137.874 25.144C137.874 24.712 137.892 24.3147 137.93 23.952C137.972 23.584 138.06 23.2693 138.194 23.008C138.332 22.7467 138.53 22.544 138.786 22.4C139.042 22.2507 139.386 22.176 139.818 22.176C140.25 22.176 140.594 22.2507 140.85 22.4C141.106 22.544 141.3 22.7467 141.434 23.008C141.572 23.2693 141.66 23.584 141.698 23.952C141.74 24.3147 141.762 24.712 141.762 25.144C141.762 25.5813 141.74 25.9813 141.698 26.344C141.66 26.7067 141.572 27.0187 141.434 27.28C141.3 27.5413 141.106 27.7413 140.85 27.88C140.594 28.0187 140.25 28.088 139.818 28.088C139.386 28.088 139.042 28.0187 138.786 27.88C138.53 27.7413 138.332 27.5413 138.194 27.28C138.06 27.0187 137.972 26.7067 137.93 26.344C137.892 25.9813 137.874 25.5813 137.874 25.144ZM145.783 22.288V23.232H144.535V28H143.383V23.232H142.135V22.288H145.783ZM147.315 25.144C147.315 25.528 147.323 25.856 147.339 26.128C147.36 26.3947 147.397 26.6133 147.451 26.784C147.509 26.9493 147.589 27.072 147.691 27.152C147.797 27.2267 147.936 27.264 148.107 27.264C148.277 27.264 148.413 27.2267 148.515 27.152C148.621 27.072 148.701 26.9493 148.755 26.784C148.813 26.6133 148.851 26.3947 148.867 26.128C148.888 25.856 148.899 25.528 148.899 25.144C148.899 24.76 148.888 24.4347 148.867 24.168C148.851 23.9013 148.813 23.6827 148.755 23.512C148.701 23.3413 148.621 23.2187 148.515 23.144C148.413 23.064 148.277 23.024 148.107 23.024C147.936 23.024 147.797 23.064 147.691 23.144C147.589 23.2187 147.509 23.3413 147.451 23.512C147.397 23.6827 147.36 23.9013 147.339 24.168C147.323 24.4347 147.315 24.76 147.315 25.144ZM146.163 25.144C146.163 24.712 146.181 24.3147 146.219 23.952C146.261 23.584 146.349 23.2693 146.483 23.008C146.621 22.7467 146.819 22.544 147.075 22.4C147.331 22.2507 147.675 22.176 148.107 22.176C148.539 22.176 148.883 22.2507 149.139 22.4C149.395 22.544 149.589 22.7467 149.723 23.008C149.861 23.2693 149.949 23.584 149.987 23.952C150.029 24.3147 150.051 24.712 150.051 25.144C150.051 25.5813 150.029 25.9813 149.987 26.344C149.949 26.7067 149.861 27.0187 149.723 27.28C149.589 27.5413 149.395 27.7413 149.139 27.88C148.883 28.0187 148.539 28.088 148.107 28.088C147.675 28.088 147.331 28.0187 147.075 27.88C146.819 27.7413 146.621 27.5413 146.483 27.28C146.349 27.0187 146.261 26.7067 146.219 26.344C146.181 25.9813 146.163 25.5813 146.163 25.144ZM153.264 23.984C153.264 23.8773 153.251 23.768 153.224 23.656C153.203 23.544 153.165 23.4427 153.112 23.352C153.059 23.256 152.989 23.1787 152.904 23.12C152.824 23.056 152.725 23.024 152.608 23.024C152.331 23.024 152.131 23.1787 152.008 23.488C151.885 23.7973 151.824 24.3093 151.824 25.024C151.824 25.3653 151.835 25.6747 151.856 25.952C151.877 26.2293 151.915 26.4667 151.968 26.664C152.027 26.856 152.107 27.0053 152.208 27.112C152.315 27.2133 152.451 27.264 152.616 27.264C152.685 27.264 152.76 27.2453 152.84 27.208C152.925 27.1707 153.003 27.1147 153.072 27.04C153.147 26.9653 153.208 26.872 153.256 26.76C153.304 26.6427 153.328 26.5067 153.328 26.352V25.768H152.568V24.92H154.432V28H153.584V27.472H153.568C153.429 27.696 153.261 27.856 153.064 27.952C152.872 28.0427 152.64 28.088 152.368 28.088C152.016 28.088 151.728 28.0267 151.504 27.904C151.285 27.7813 151.112 27.592 150.984 27.336C150.861 27.08 150.779 26.7653 150.736 26.392C150.693 26.0133 150.672 25.576 150.672 25.08C150.672 24.6 150.701 24.1787 150.76 23.816C150.824 23.4533 150.931 23.152 151.08 22.912C151.229 22.6667 151.427 22.4827 151.672 22.36C151.917 22.2373 152.224 22.176 152.592 22.176C153.221 22.176 153.675 22.3333 153.952 22.648C154.229 22.9573 154.368 23.4027 154.368 23.984H153.264ZM155.173 22.288H157.301C157.781 22.288 158.155 22.4107 158.421 22.656C158.688 22.896 158.821 23.264 158.821 23.76C158.821 24.144 158.744 24.4587 158.589 24.704C158.435 24.944 158.195 25.0987 157.869 25.168V25.184C158.157 25.2267 158.368 25.32 158.501 25.464C158.635 25.608 158.717 25.84 158.749 26.16C158.76 26.2667 158.768 26.384 158.773 26.512C158.779 26.6347 158.784 26.7733 158.789 26.928C158.8 27.232 158.816 27.464 158.837 27.624C158.869 27.784 158.939 27.8933 159.045 27.952V28H157.797C157.739 27.92 157.701 27.8293 157.685 27.728C157.669 27.6213 157.659 27.512 157.653 27.4L157.621 26.304C157.611 26.08 157.555 25.904 157.453 25.776C157.352 25.648 157.181 25.584 156.941 25.584H156.325V28H155.173V22.288ZM156.325 24.784H156.805C157.083 24.784 157.296 24.72 157.445 24.592C157.595 24.4587 157.669 24.2373 157.669 23.928C157.669 23.4 157.403 23.136 156.869 23.136H156.325V24.784ZM162.003 25.848L161.451 23.28H161.435L160.883 25.848H162.003ZM162.155 22.288L163.667 28H162.467L162.203 26.792H160.683L160.419 28H159.219L160.731 22.288H162.155ZM165.216 24.872H165.728C165.957 24.872 166.141 24.8027 166.28 24.664C166.424 24.5253 166.496 24.3093 166.496 24.016C166.496 23.728 166.435 23.5093 166.312 23.36C166.189 23.2107 165.984 23.136 165.696 23.136H165.216V24.872ZM164.064 22.288H166.08C166.373 22.288 166.619 22.3387 166.816 22.44C167.019 22.536 167.181 22.664 167.304 22.824C167.427 22.984 167.515 23.168 167.568 23.376C167.621 23.5787 167.648 23.7867 167.648 24C167.648 24.2933 167.603 24.5493 167.512 24.768C167.427 24.9867 167.304 25.1653 167.144 25.304C166.989 25.4427 166.8 25.5467 166.576 25.616C166.352 25.6853 166.104 25.72 165.832 25.72H165.216V28H164.064V22.288ZM168.213 22.288H169.365V24.472H170.709V22.288H171.861V28H170.709V25.464H169.365V28H168.213V22.288ZM172.714 28V22.288H173.866V28H172.714ZM175.752 25.144C175.752 25.528 175.76 25.856 175.776 26.128C175.798 26.3947 175.835 26.6133 175.888 26.784C175.947 26.9493 176.027 27.072 176.128 27.152C176.235 27.2267 176.374 27.264 176.544 27.264C176.715 27.264 176.851 27.2267 176.952 27.152C177.059 27.072 177.139 26.9493 177.192 26.784C177.251 26.6133 177.288 26.3947 177.304 26.128C177.326 25.856 177.336 25.528 177.336 25.144C177.336 24.76 177.326 24.4347 177.304 24.168C177.288 23.9013 177.251 23.6827 177.192 23.512C177.139 23.3413 177.059 23.2187 176.952 23.144C176.851 23.064 176.715 23.024 176.544 23.024C176.374 23.024 176.235 23.064 176.128 23.144C176.027 23.2187 175.947 23.3413 175.888 23.512C175.835 23.6827 175.798 23.9013 175.776 24.168C175.76 24.4347 175.752 24.76 175.752 25.144ZM177.984 28.68L177.304 28C177.091 28.0587 176.838 28.088 176.544 28.088C176.112 28.088 175.768 28.0187 175.512 27.88C175.256 27.7413 175.059 27.5413 174.92 27.28C174.787 27.0187 174.699 26.7067 174.656 26.344C174.619 25.9813 174.6 25.5813 174.6 25.144C174.6 24.712 174.619 24.3147 174.656 23.952C174.699 23.584 174.787 23.2693 174.92 23.008C175.059 22.7467 175.256 22.544 175.512 22.4C175.768 22.2507 176.112 22.176 176.544 22.176C176.976 22.176 177.32 22.2507 177.576 22.4C177.832 22.544 178.027 22.7467 178.16 23.008C178.299 23.2693 178.387 23.584 178.424 23.952C178.467 24.3147 178.488 24.712 178.488 25.144C178.488 25.6293 178.462 26.0693 178.408 26.464C178.355 26.8587 178.235 27.192 178.048 27.464L178.664 28.064L177.984 28.68ZM180.246 22.288V26.272C180.246 26.416 180.254 26.5493 180.27 26.672C180.291 26.7893 180.326 26.8933 180.374 26.984C180.427 27.0693 180.496 27.1387 180.582 27.192C180.672 27.24 180.784 27.264 180.918 27.264C181.056 27.264 181.168 27.24 181.254 27.192C181.339 27.1387 181.406 27.0693 181.454 26.984C181.507 26.8933 181.542 26.7893 181.558 26.672C181.579 26.5493 181.59 26.416 181.59 26.272V22.288H182.742V26.272C182.742 26.6347 182.691 26.936 182.59 27.176C182.488 27.4107 182.352 27.5973 182.182 27.736C182.011 27.8747 181.816 27.968 181.598 28.016C181.379 28.064 181.152 28.088 180.918 28.088C180.683 28.088 180.456 28.0667 180.238 28.024C180.019 27.9813 179.824 27.896 179.654 27.768C179.483 27.6347 179.347 27.448 179.246 27.208C179.144 26.968 179.094 26.656 179.094 26.272V22.288H180.246ZM186.662 22.288V23.232H184.622V24.576H186.542V25.52H184.622V27.056H186.742V28H183.47V22.288H186.662ZM188.25 26.216V26.384C188.25 26.5173 188.261 26.64 188.282 26.752C188.303 26.8587 188.343 26.9493 188.402 27.024C188.461 27.0987 188.538 27.1573 188.634 27.2C188.735 27.2427 188.861 27.264 189.01 27.264C189.186 27.264 189.343 27.208 189.482 27.096C189.626 26.9787 189.698 26.8 189.698 26.56C189.698 26.432 189.679 26.3227 189.642 26.232C189.61 26.136 189.554 26.0507 189.474 25.976C189.394 25.9013 189.287 25.8347 189.154 25.776C189.026 25.712 188.866 25.648 188.674 25.584C188.418 25.4987 188.197 25.4053 188.01 25.304C187.823 25.2027 187.666 25.0853 187.538 24.952C187.415 24.8133 187.325 24.656 187.266 24.48C187.207 24.2987 187.178 24.0907 187.178 23.856C187.178 23.2907 187.335 22.8693 187.65 22.592C187.965 22.3147 188.397 22.176 188.946 22.176C189.202 22.176 189.437 22.2053 189.65 22.264C189.869 22.3173 190.055 22.408 190.21 22.536C190.37 22.6587 190.493 22.8187 190.578 23.016C190.669 23.208 190.714 23.44 190.714 23.712V23.872H189.61C189.61 23.6 189.562 23.392 189.466 23.248C189.37 23.0987 189.21 23.024 188.986 23.024C188.858 23.024 188.751 23.0427 188.666 23.08C188.581 23.1173 188.511 23.168 188.458 23.232C188.41 23.2907 188.375 23.36 188.354 23.44C188.338 23.52 188.33 23.6027 188.33 23.688C188.33 23.864 188.367 24.0133 188.442 24.136C188.517 24.2533 188.677 24.3627 188.922 24.464L189.81 24.848C190.029 24.944 190.207 25.0453 190.346 25.152C190.485 25.2533 190.594 25.3653 190.674 25.488C190.759 25.6053 190.818 25.736 190.85 25.88C190.882 26.024 190.898 26.184 190.898 26.36C190.898 26.9627 190.722 27.4027 190.37 27.68C190.023 27.952 189.538 28.088 188.914 28.088C188.263 28.088 187.797 27.9467 187.514 27.664C187.237 27.3813 187.098 26.976 187.098 26.448V26.216H188.25ZM131.368 32.288C131.203 32.592 131.061 32.888 130.944 33.176C130.827 33.4587 130.731 33.744 130.656 34.032C130.587 34.32 130.536 34.616 130.504 34.92C130.472 35.2187 130.456 35.5387 130.456 35.88C130.456 36.2213 130.472 36.544 130.504 36.848C130.536 37.1467 130.587 37.4373 130.656 37.72C130.731 37.9973 130.827 38.2773 130.944 38.56C131.061 38.848 131.203 39.144 131.368 39.448H130.52C130.12 38.8187 129.832 38.208 129.656 37.616C129.485 37.024 129.4 36.4453 129.4 35.88C129.4 35.3147 129.485 34.7333 129.656 34.136C129.832 33.5333 130.12 32.9173 130.52 32.288H131.368ZM134.151 35.848L133.599 33.28H133.583L133.031 35.848H134.151ZM134.303 32.288L135.815 38H134.615L134.351 36.792H132.831L132.567 38H131.367L132.879 32.288H134.303ZM136.213 32.288H138.341C138.821 32.288 139.194 32.4107 139.461 32.656C139.727 32.896 139.861 33.264 139.861 33.76C139.861 34.144 139.783 34.4587 139.629 34.704C139.474 34.944 139.234 35.0987 138.909 35.168V35.184C139.197 35.2267 139.407 35.32 139.541 35.464C139.674 35.608 139.757 35.84 139.789 36.16C139.799 36.2667 139.807 36.384 139.812 36.512C139.818 36.6347 139.823 36.7733 139.829 36.928C139.839 37.232 139.855 37.464 139.877 37.624C139.909 37.784 139.978 37.8933 140.085 37.952V38H138.837C138.778 37.92 138.741 37.8293 138.725 37.728C138.709 37.6213 138.698 37.512 138.693 37.4L138.661 36.304C138.65 36.08 138.594 35.904 138.493 35.776C138.391 35.648 138.221 35.584 137.981 35.584H137.365V38H136.213V32.288ZM137.365 34.784H137.845C138.122 34.784 138.335 34.72 138.485 34.592C138.634 34.4587 138.709 34.2373 138.709 33.928C138.709 33.4 138.442 33.136 137.909 33.136H137.365V34.784ZM143.194 33.984C143.194 33.8773 143.18 33.768 143.154 33.656C143.132 33.544 143.095 33.4427 143.042 33.352C142.988 33.256 142.919 33.1787 142.834 33.12C142.754 33.056 142.655 33.024 142.538 33.024C142.26 33.024 142.06 33.1787 141.938 33.488C141.815 33.7973 141.754 34.3093 141.754 35.024C141.754 35.3653 141.764 35.6747 141.786 35.952C141.807 36.2293 141.844 36.4667 141.898 36.664C141.956 36.856 142.036 37.0053 142.138 37.112C142.244 37.2133 142.38 37.264 142.546 37.264C142.615 37.264 142.69 37.2453 142.77 37.208C142.855 37.1707 142.932 37.1147 143.002 37.04C143.076 36.9653 143.138 36.872 143.186 36.76C143.234 36.6427 143.258 36.5067 143.258 36.352V35.768H142.498V34.92H144.362V38H143.514V37.472H143.498C143.359 37.696 143.191 37.856 142.994 37.952C142.802 38.0427 142.57 38.088 142.298 38.088C141.946 38.088 141.658 38.0267 141.434 37.904C141.215 37.7813 141.042 37.592 140.914 37.336C140.791 37.08 140.708 36.7653 140.666 36.392C140.623 36.0133 140.602 35.576 140.602 35.08C140.602 34.6 140.631 34.1787 140.69 33.816C140.754 33.4533 140.86 33.152 141.01 32.912C141.159 32.6667 141.356 32.4827 141.602 32.36C141.847 32.2373 142.154 32.176 142.522 32.176C143.151 32.176 143.604 32.3333 143.882 32.648C144.159 32.9573 144.298 33.4027 144.298 33.984H143.194ZM148.295 32.288V33.232H146.255V34.576H148.175V35.52H146.255V37.056H148.375V38H145.103V32.288H148.295ZM150.283 32.288L151.675 36.2H151.691V32.288H152.747V38H151.435L150.027 34H150.011V38H148.955V32.288H150.283ZM156.892 32.288V33.232H155.644V38H154.492V33.232H153.244V32.288H156.892ZM157.448 38V32.288H158.6V38H157.448ZM160.487 35.144C160.487 35.528 160.495 35.856 160.511 36.128C160.532 36.3947 160.569 36.6133 160.623 36.784C160.681 36.9493 160.761 37.072 160.863 37.152C160.969 37.2267 161.108 37.264 161.279 37.264C161.449 37.264 161.585 37.2267 161.687 37.152C161.793 37.072 161.873 36.9493 161.927 36.784C161.985 36.6133 162.023 36.3947 162.039 36.128C162.06 35.856 162.071 35.528 162.071 35.144C162.071 34.76 162.06 34.4347 162.039 34.168C162.023 33.9013 161.985 33.6827 161.927 33.512C161.873 33.3413 161.793 33.2187 161.687 33.144C161.585 33.064 161.449 33.024 161.279 33.024C161.108 33.024 160.969 33.064 160.863 33.144C160.761 33.2187 160.681 33.3413 160.623 33.512C160.569 33.6827 160.532 33.9013 160.511 34.168C160.495 34.4347 160.487 34.76 160.487 35.144ZM162.719 38.68L162.039 38C161.825 38.0587 161.572 38.088 161.279 38.088C160.847 38.088 160.503 38.0187 160.247 37.88C159.991 37.7413 159.793 37.5413 159.655 37.28C159.521 37.0187 159.433 36.7067 159.391 36.344C159.353 35.9813 159.335 35.5813 159.335 35.144C159.335 34.712 159.353 34.3147 159.391 33.952C159.433 33.584 159.521 33.2693 159.655 33.008C159.793 32.7467 159.991 32.544 160.247 32.4C160.503 32.2507 160.847 32.176 161.279 32.176C161.711 32.176 162.055 32.2507 162.311 32.4C162.567 32.544 162.761 32.7467 162.895 33.008C163.033 33.2693 163.121 33.584 163.159 33.952C163.201 34.3147 163.223 34.712 163.223 35.144C163.223 35.6293 163.196 36.0693 163.143 36.464C163.089 36.8587 162.969 37.192 162.783 37.464L163.399 38.064L162.719 38.68ZM164.98 32.288V36.272C164.98 36.416 164.988 36.5493 165.004 36.672C165.025 36.7893 165.06 36.8933 165.108 36.984C165.161 37.0693 165.231 37.1387 165.316 37.192C165.407 37.24 165.519 37.264 165.652 37.264C165.791 37.264 165.903 37.24 165.988 37.192C166.073 37.1387 166.14 37.0693 166.188 36.984C166.241 36.8933 166.276 36.7893 166.292 36.672C166.313 36.5493 166.324 36.416 166.324 36.272V32.288H167.476V36.272C167.476 36.6347 167.425 36.936 167.324 37.176C167.223 37.4107 167.087 37.5973 166.916 37.736C166.745 37.8747 166.551 37.968 166.332 38.016C166.113 38.064 165.887 38.088 165.652 38.088C165.417 38.088 165.191 38.0667 164.972 38.024C164.753 37.9813 164.559 37.896 164.388 37.768C164.217 37.6347 164.081 37.448 163.98 37.208C163.879 36.968 163.828 36.656 163.828 36.272V32.288H164.98ZM171.397 32.288V33.232H169.357V34.576H171.277V35.52H169.357V37.056H171.477V38H168.205V32.288H171.397ZM132.592 42.288V43.232H130.552V44.576H132.472V45.52H130.552V47.056H132.672V48H129.4V42.288H132.592ZM136.596 42.288V43.232H135.348V48H134.196V43.232H132.948V42.288H136.596ZM139.073 48V42.288H140.225V48H139.073ZM141.104 42.288H142.816L143.632 46.32H143.648L144.472 42.288H146.176V48H145.12V43.44H145.104L144.088 48H143.192L142.176 43.44H142.16V48H141.104V42.288ZM148.154 44.872H148.666C148.895 44.872 149.079 44.8027 149.218 44.664C149.362 44.5253 149.434 44.3093 149.434 44.016C149.434 43.728 149.372 43.5093 149.25 43.36C149.127 43.2107 148.922 43.136 148.634 43.136H148.154V44.872ZM147.002 42.288H149.018C149.311 42.288 149.556 42.3387 149.754 42.44C149.956 42.536 150.119 42.664 150.242 42.824C150.364 42.984 150.452 43.168 150.506 43.376C150.559 43.5787 150.586 43.7867 150.586 44C150.586 44.2933 150.54 44.5493 150.45 44.768C150.364 44.9867 150.242 45.1653 150.082 45.304C149.927 45.4427 149.738 45.5467 149.514 45.616C149.29 45.6853 149.042 45.72 148.77 45.72H148.154V48H147.002V42.288ZM151.15 42.288H153.278C153.758 42.288 154.131 42.4107 154.398 42.656C154.665 42.896 154.798 43.264 154.798 43.76C154.798 44.144 154.721 44.4587 154.566 44.704C154.411 44.944 154.171 45.0987 153.846 45.168V45.184C154.134 45.2267 154.345 45.32 154.478 45.464C154.611 45.608 154.694 45.84 154.726 46.16C154.737 46.2667 154.745 46.384 154.75 46.512C154.755 46.6347 154.761 46.7733 154.766 46.928C154.777 47.232 154.793 47.464 154.814 47.624C154.846 47.784 154.915 47.8933 155.022 47.952V48H153.774C153.715 47.92 153.678 47.8293 153.662 47.728C153.646 47.6213 153.635 47.512 153.63 47.4L153.598 46.304C153.587 46.08 153.531 45.904 153.43 45.776C153.329 45.648 153.158 45.584 152.918 45.584H152.302V48H151.15V42.288ZM152.302 44.784H152.782C153.059 44.784 153.273 44.72 153.422 44.592C153.571 44.4587 153.646 44.2373 153.646 43.928C153.646 43.4 153.379 43.136 152.846 43.136H152.302V44.784ZM155.651 48V42.288H156.803V48H155.651ZM157.682 42.288H159.394L160.21 46.32H160.226L161.05 42.288H162.754V48H161.698V43.44H161.682L160.666 48H159.77L158.754 43.44H158.738V48H157.682V42.288ZM165.964 45.848L165.412 43.28H165.396L164.844 45.848H165.964ZM166.116 42.288L167.628 48H166.428L166.164 46.792H164.644L164.38 48H163.18L164.692 42.288H166.116ZM169.353 42.288L170.745 46.2H170.761V42.288H171.817V48H170.505L169.097 44H169.081V48H168.025V42.288H169.353ZM175.963 42.288V43.232H174.715V48H173.563V43.232H172.315V42.288H175.963ZM179.655 42.288V43.232H177.615V44.576H179.535V45.52H177.615V47.056H179.735V48H176.463V42.288H179.655ZM180.762 42.288C181.162 42.9173 181.447 43.5333 181.618 44.136C181.794 44.7333 181.882 45.3147 181.882 45.88C181.882 46.4453 181.794 47.024 181.618 47.616C181.447 48.208 181.162 48.8187 180.762 49.448H179.914C180.079 49.144 180.221 48.848 180.338 48.56C180.455 48.2773 180.549 47.9973 180.618 47.72C180.693 47.4373 180.746 47.1467 180.778 46.848C180.81 46.544 180.826 46.2213 180.826 45.88C180.826 45.5387 180.81 45.2187 180.778 44.92C180.746 44.616 180.693 44.32 180.618 44.032C180.549 43.744 180.455 43.4587 180.338 43.176C180.221 42.888 180.079 42.592 179.914 42.288H180.762Z" fill="black"/>
<path d="M191 6H217V55H210H191L204.5 28.5L191 6Z" fill="#010101"/>
<path d="M217 6H288C297.941 6 306 14.0589 306 24V55H217V6Z" fill="black"/>
<rect x="217" y="8" width="31" height="31" fill="black"/>
<path fill-rule="evenodd" clip-rule="evenodd" d="M230.109 14.1063C229.715 13.9593 229.442 13.9112 229.26 13.9138C229.076 13.9164 229.017 13.9696 229.005 13.983C228.994 13.9948 228.976 14.0235 228.975 14.1029C228.974 14.1628 228.984 14.2337 229.004 14.3061L231.457 16.7194H233.07C233.35 16.3731 233.982 15.6937 235.041 14.766C235.332 14.5109 235.438 14.3351 235.469 14.2426C235.486 14.1909 235.48 14.1822 235.466 14.1637L235.464 14.1606C235.428 14.1114 235.342 14.0437 235.193 13.9816C235.059 13.9255 234.904 13.8872 234.762 13.8665C234.659 13.8692 234.582 13.8932 234.446 13.9423L234.419 13.9521C234.371 13.9696 234.335 13.9876 234.3 14.0059C234.226 14.0437 234.15 14.0826 233.951 14.1204C233.636 14.1804 233.41 14.185 233.155 14.124C232.99 14.0845 232.808 14.0142 232.587 13.9294C232.511 13.8998 232.429 13.8684 232.342 13.8359L232.34 13.8357C232.335 13.835 232.315 13.8327 232.278 13.8341C232.224 13.8361 232.153 13.8447 232.066 13.86C231.894 13.8904 231.691 13.9409 231.477 13.9945L231.464 13.9977C231.252 14.0505 231.026 14.1067 230.837 14.1369C230.742 14.1519 230.644 14.1628 230.554 14.1606L230.525 14.1602C230.431 14.1593 230.201 14.1571 230.109 14.1063ZM231.242 13.1757C230.947 13.2429 230.406 13.3023 230.406 13.3023C230.09 13.2908 229.86 13.2277 229.667 13.1747C229.513 13.1326 229.383 13.0968 229.251 13.0987C228.953 13.1029 228.694 13.1923 228.508 13.3963C228.321 13.6018 228.262 13.8653 228.259 14.0916C228.257 14.3145 228.307 14.5303 228.37 14.7023L228.402 14.7912L230.578 16.9319C229.757 17.1125 228.88 17.4785 228.072 18.1145C226.533 19.3262 225.301 21.4723 225.126 25.024C225.115 25.2552 225.102 25.4899 225.09 25.7262C225.038 26.698 224.984 27.698 225.004 28.6023C225.029 29.71 225.162 30.7759 225.615 31.5044C226.429 32.813 227.76 33.4463 229.037 33.7444C230.31 34.0416 231.582 34.019 232.369 33.9721C233.089 33.9584 234.275 33.9154 235.49 33.6601C236.701 33.4057 238.004 32.9283 238.895 31.9992C239.611 31.2516 239.855 30.1504 239.929 28.9703C239.987 28.0415 239.943 26.9912 239.898 25.9219L239.898 25.9218L239.898 25.9216C239.886 25.6252 239.873 25.3272 239.863 25.03C239.746 21.692 238.518 19.598 236.98 18.3585C235.982 17.5541 234.871 17.124 233.887 16.9376C234.206 16.5912 234.724 16.0726 235.477 15.4121C235.806 15.1237 236.036 14.8353 236.137 14.5344C236.251 14.1954 236.189 13.8795 236.014 13.6398C235.86 13.4286 235.636 13.2982 235.439 13.216C235.234 13.1306 235.014 13.0793 234.824 13.0539L234.803 13.0511H234.782C234.552 13.0511 234.386 13.1088 234.23 13.1653L234.204 13.1747C234.062 13.2261 233.907 13.282 233.663 13.3284C233.449 13.3691 233.436 13.3656 233.355 13.3435L233.355 13.3435L233.355 13.3435C233.339 13.3391 233.32 13.334 233.297 13.3284C233.176 13.2994 233.051 13.2515 232.854 13.1757C232.847 13.1727 232.833 13.1658 232.815 13.1563C232.723 13.1093 232.511 13 232.269 13C231.911 13 231.568 13.0906 231.362 13.1452C231.314 13.1578 231.273 13.1685 231.242 13.1757ZM228.598 18.7826C227.294 19.8098 226.141 21.7024 225.975 25.0658C225.964 25.3062 225.951 25.5471 225.938 25.7873L225.938 25.7873L225.938 25.7874C225.886 26.7564 225.835 27.7147 225.854 28.5836C225.879 29.6845 226.017 30.5403 226.337 31.0555C226.986 32.0991 228.071 32.6458 229.23 32.9165C230.389 33.1869 231.569 33.1684 232.327 33.1229L232.336 33.1224L232.345 33.1222C233.051 33.1089 234.176 33.0673 235.316 32.828C236.465 32.5867 237.566 32.1565 238.281 31.411C238.778 30.8917 239.009 30.0543 239.08 28.9168C239.136 28.0371 239.094 27.048 239.05 25.9868L239.05 25.9866C239.037 25.6833 239.024 25.3741 239.013 25.0598C238.903 21.9361 237.769 20.0859 236.447 19.0204C235.443 18.2117 234.307 17.8352 233.37 17.7159C234.146 18.5301 235.026 19.349 235.507 19.6446L235.061 20.3687C234.86 20.1673 234.557 19.9036 234.208 19.5994L234.208 19.5994C233.705 19.1614 233.106 18.6395 232.574 18.0991C232.548 18.4454 232.525 18.8325 232.515 19.1999C232.507 19.5164 232.509 19.8104 232.526 20.048C232.534 20.1669 232.546 20.2653 232.56 20.3418C232.567 20.3798 232.574 20.4092 232.581 20.4311C232.587 20.4519 232.591 20.4611 232.591 20.462L232.652 20.7938L231.831 20.8422C231.732 20.6443 231.696 20.3607 231.678 20.1075C231.659 19.8317 231.657 19.5076 231.666 19.1781C231.672 18.9159 231.685 18.6454 231.702 18.3858C231.011 19.0527 230.284 19.6307 229.748 20.0572C229.673 20.1168 229.601 20.1734 229.535 20.227L229.089 19.5029C229.561 19.1737 230.435 18.4574 231.209 17.6831C230.385 17.7926 229.447 18.1141 228.598 18.7826Z" fill="white"/>
<path d="M222.263 43.1H223.397C223.78 43.1 224.067 43.2027 224.258 43.408C224.449 43.6133 224.545 43.9143 224.545 44.311V44.794C224.545 45.1907 224.449 45.4917 224.258 45.697C224.067 45.9023 223.78 46.005 223.397 46.005H223.033V48H222.263V43.1ZM223.397 45.305C223.523 45.305 223.616 45.27 223.677 45.2C223.742 45.13 223.775 45.011 223.775 44.843V44.262C223.775 44.094 223.742 43.975 223.677 43.905C223.616 43.835 223.523 43.8 223.397 43.8H223.033V45.305H223.397ZM226.076 48.07C225.698 48.07 225.409 47.9627 225.208 47.748C225.008 47.5333 224.907 47.23 224.907 46.838V44.262C224.907 43.87 225.008 43.5667 225.208 43.352C225.409 43.1373 225.698 43.03 226.076 43.03C226.454 43.03 226.744 43.1373 226.944 43.352C227.145 43.5667 227.245 43.87 227.245 44.262V46.838C227.245 47.23 227.145 47.5333 226.944 47.748C226.744 47.9627 226.454 48.07 226.076 48.07ZM226.076 47.37C226.342 47.37 226.475 47.209 226.475 46.887V44.213C226.475 43.891 226.342 43.73 226.076 43.73C225.81 43.73 225.677 43.891 225.677 44.213V46.887C225.677 47.209 225.81 47.37 226.076 47.37ZM228.886 48.07C228.513 48.07 228.228 47.965 228.032 47.755C227.836 47.5403 227.738 47.2347 227.738 46.838V43.1H228.508V46.894C228.508 47.062 228.541 47.1833 228.606 47.258C228.676 47.3327 228.774 47.37 228.9 47.37C229.026 47.37 229.122 47.3327 229.187 47.258C229.257 47.1833 229.292 47.062 229.292 46.894V43.1H230.034V46.838C230.034 47.2347 229.936 47.5403 229.74 47.755C229.544 47.965 229.259 48.07 228.886 48.07ZM230.582 43.1H231.744C232.141 43.1 232.43 43.1933 232.612 43.38C232.794 43.562 232.885 43.8443 232.885 44.227V44.423C232.885 44.675 232.843 44.8803 232.759 45.039C232.68 45.1977 232.556 45.312 232.388 45.382V45.396C232.771 45.5267 232.962 45.8673 232.962 46.418V46.838C232.962 47.216 232.862 47.5053 232.661 47.706C232.465 47.902 232.176 48 231.793 48H230.582V43.1ZM231.653 45.095C231.807 45.095 231.922 45.0553 231.996 44.976C232.076 44.8967 232.115 44.7637 232.115 44.577V44.304C232.115 44.1267 232.083 43.9983 232.017 43.919C231.957 43.8397 231.859 43.8 231.723 43.8H231.352V45.095H231.653ZM231.793 47.3C231.929 47.3 232.029 47.265 232.094 47.195C232.16 47.1203 232.192 46.9943 232.192 46.817V46.39C232.192 46.166 232.153 46.012 232.073 45.928C231.999 45.8393 231.873 45.795 231.695 45.795H231.352V47.3H231.793ZM233.412 43.1H235.512V43.8H234.182V45.095H235.239V45.795H234.182V47.3H235.512V48H233.412V43.1ZM235.955 43.1H236.725V47.3H237.992V48H235.955V43.1ZM238.362 43.1H239.132V47.3H240.399V48H238.362V43.1ZM240.768 43.1H242.868V43.8H241.538V45.095H242.595V45.795H241.538V47.3H242.868V48H240.768V43.1Z" fill="white"/>
<path d="M255.59 31.07C255.212 31.07 254.923 30.9627 254.722 30.748C254.522 30.5333 254.421 30.23 254.421 29.838V27.262C254.421 26.87 254.522 26.5667 254.722 26.352C254.923 26.1373 255.212 26.03 255.59 26.03C255.968 26.03 256.258 26.1373 256.458 26.352C256.659 26.5667 256.759 26.87 256.759 27.262V29.838C256.759 30.23 256.659 30.5333 256.458 30.748C256.258 30.9627 255.968 31.07 255.59 31.07ZM255.59 30.37C255.856 30.37 255.989 30.209 255.989 29.887V27.213C255.989 26.891 255.856 26.73 255.59 26.73C255.324 26.73 255.191 26.891 255.191 27.213V29.887C255.191 30.209 255.324 30.37 255.59 30.37ZM258.4 31.07C258.027 31.07 257.742 30.965 257.546 30.755C257.35 30.5403 257.252 30.2347 257.252 29.838V26.1H258.022V29.894C258.022 30.062 258.055 30.1833 258.12 30.258C258.19 30.3327 258.288 30.37 258.414 30.37C258.54 30.37 258.636 30.3327 258.701 30.258C258.771 30.1833 258.806 30.062 258.806 29.894V26.1H259.548V29.838C259.548 30.2347 259.45 30.5403 259.254 30.755C259.058 30.965 258.773 31.07 258.4 31.07Z" fill="white"/>
<rect x="266" y="8" width="31" height="31" fill="black"/>
<path d="M269.11 43.1H270.286C270.668 43.1 270.955 43.2027 271.147 43.408C271.338 43.6133 271.434 43.9143 271.434 44.311V46.789C271.434 47.1857 271.338 47.4867 271.147 47.692C270.955 47.8973 270.668 48 270.286 48H269.11V43.1ZM270.272 47.3C270.398 47.3 270.493 47.2627 270.559 47.188C270.629 47.1133 270.664 46.992 270.664 46.824V44.276C270.664 44.108 270.629 43.9867 270.559 43.912C270.493 43.8373 270.398 43.8 270.272 43.8H269.88V47.3H270.272ZM271.954 43.1H274.054V43.8H272.724V45.095H273.781V45.795H272.724V47.3H274.054V48H271.954V43.1ZM273.074 41.966H273.914L273.165 42.771H272.584L273.074 41.966ZM275.581 48.07C275.213 48.07 274.93 47.965 274.734 47.755C274.543 47.545 274.447 47.2487 274.447 46.866V44.234C274.447 43.8513 274.543 43.555 274.734 43.345C274.93 43.135 275.213 43.03 275.581 43.03C275.95 43.03 276.23 43.135 276.421 43.345C276.617 43.555 276.715 43.8513 276.715 44.234V44.752H275.987V44.185C275.987 43.8817 275.859 43.73 275.602 43.73C275.346 43.73 275.217 43.8817 275.217 44.185V46.922C275.217 47.2207 275.346 47.37 275.602 47.37C275.859 47.37 275.987 47.2207 275.987 46.922V46.173H276.715V46.866C276.715 47.2487 276.617 47.545 276.421 47.755C276.23 47.965 275.95 48.07 275.581 48.07ZM277.176 43.1H277.946V45.095H278.772V43.1H279.542V48H278.772V45.795H277.946V48H277.176V43.1ZM280.116 43.1H282.216V43.8H280.886V45.095H281.943V45.795H280.886V47.3H282.216V48H280.116V43.1ZM280.256 41.966H281.096L281.586 42.771H281.005L280.256 41.966ZM283.261 43.8H282.456V43.1H284.836V43.8H284.031V48H283.261V43.8ZM285.208 43.1H287.308V43.8H285.978V45.095H287.035V45.795H285.978V47.3H287.308V48H285.208V43.1ZM287.751 43.1H288.892C289.289 43.1 289.578 43.1933 289.76 43.38C289.942 43.562 290.033 43.8443 290.033 44.227V44.528C290.033 45.0367 289.865 45.3587 289.529 45.494V45.508C289.716 45.564 289.847 45.6783 289.921 45.851C290.001 46.0237 290.04 46.2547 290.04 46.544V47.405C290.04 47.545 290.045 47.6593 290.054 47.748C290.064 47.832 290.087 47.916 290.124 48H289.34C289.312 47.9207 289.294 47.846 289.284 47.776C289.275 47.706 289.27 47.58 289.27 47.398V46.502C289.27 46.278 289.233 46.1217 289.158 46.033C289.088 45.9443 288.965 45.9 288.787 45.9H288.521V48H287.751V43.1ZM288.801 45.2C288.955 45.2 289.07 45.1603 289.144 45.081C289.224 45.0017 289.263 44.8687 289.263 44.682V44.304C289.263 44.1267 289.231 43.9983 289.165 43.919C289.105 43.8397 289.007 43.8 288.871 43.8H288.521V45.2H288.801ZM290.575 43.1H291.345V48H290.575V43.1ZM291.921 43.1H294.021V43.8H292.691V45.095H293.748V45.795H292.691V47.3H294.021V48H291.921V43.1Z" fill="white"/>
<path d="M275.988 32.4391L271.474 32.4342C271.217 32.4342 271.005 32.2268 271.005 31.9699L271 27.4806C271 27.2929 271.114 27.1201 271.291 27.0509C271.464 26.9769 271.667 27.0164 271.8 27.1497L272.684 28.0288L280.29 20.4577C280.473 20.2799 280.769 20.2799 280.952 20.4577L283.046 22.5418C283.135 22.6307 283.184 22.7443 283.184 22.8727C283.184 22.9962 283.135 23.1147 283.046 23.2036L275.44 30.7649L276.319 31.644C276.452 31.7773 276.492 31.9798 276.418 32.1527C276.349 32.3255 276.176 32.4391 275.988 32.4391ZM271.943 31.5008L274.852 31.5057L274.442 31.0958C274.26 30.913 274.26 30.6167 274.442 30.434L282.048 22.8727L280.621 21.4504L273.015 29.0166C272.832 29.1993 272.536 29.1993 272.353 29.0166L271.938 28.6116" fill="white"/>
<path d="M285.54 25.673C285.179 25.673 284.833 25.5347 284.567 25.2878C284.29 25.031 284.132 24.6803 284.117 24.3001L284.048 22.1517L284.987 22.1221L285.056 24.2704C285.061 24.3988 285.115 24.5174 285.209 24.6063C285.303 24.6952 285.436 24.7297 285.559 24.7396C285.688 24.7347 285.806 24.6803 285.895 24.5865C285.984 24.4927 286.029 24.3692 286.024 24.2408L285.92 21.3763L286.858 21.3467L286.962 24.2062C286.977 24.5865 286.844 24.947 286.582 25.2236C286.32 25.5002 285.969 25.6582 285.589 25.6681C285.569 25.673 285.555 25.673 285.54 25.673Z" fill="white"/>
<path d="M285.54 25.673C285.179 25.673 284.833 25.5347 284.567 25.2878C284.29 25.031 284.132 24.6803 284.117 24.3001L284.048 22.1517L284.987 22.1221L285.056 24.2704C285.061 24.3988 285.115 24.5174 285.209 24.6063C285.303 24.6952 285.436 24.7297 285.559 24.7396C285.688 24.7347 285.806 24.6803 285.895 24.5865C285.984 24.4927 286.029 24.3692 286.024 24.2408L285.92 21.3763L286.858 21.3467L286.962 24.2062C286.977 24.5865 286.844 24.947 286.582 25.2236C286.32 25.5002 285.969 25.6582 285.589 25.6681C285.569 25.673 285.555 25.673 285.54 25.673Z" fill="white"/>
<path d="M283.643 25.9941C283.278 25.9941 282.937 25.8607 282.67 25.6138C282.394 25.352 282.231 25.0014 282.221 24.6211L282.152 22.4727L283.09 22.4431L283.159 24.5915C283.164 24.7248 283.219 24.8433 283.312 24.9322C283.406 25.0211 283.53 25.0755 283.658 25.0607C283.925 25.0508 284.137 24.8285 284.127 24.5618L284.024 21.7023L284.962 21.6677L285.066 24.5273C285.095 25.3125 284.478 25.9644 283.693 25.9941C283.673 25.9941 283.658 25.9941 283.643 25.9941Z" fill="white"/>
<path d="M285.258 32.449C285.066 32.449 284.893 32.3305 284.824 32.1576C284.75 31.9848 284.789 31.7823 284.922 31.6489L285.806 30.7698L278.201 23.2037C278.018 23.0259 278.018 22.7295 278.201 22.5468L280.29 20.4627C280.463 20.2898 280.779 20.2898 280.952 20.4627L288.893 28.3597L288.226 29.0215L280.621 21.4553L279.193 22.8777L286.799 30.4389C286.987 30.6217 286.987 30.9229 286.799 31.1007L286.389 31.5107H289.298L289.303 27.4856H290.241L290.237 31.9749C290.237 32.2317 290.029 32.4391 289.767 32.4391L285.258 32.449Z" fill="white"/>
<path d="M280.601 36C280.478 36 280.359 35.9556 280.265 35.8617L277.075 32.696C276.941 32.5626 276.902 32.3601 276.971 32.1873C277.045 32.0095 277.218 31.8959 277.406 31.8959H278.655V23.2037C278.655 22.9469 278.863 22.7345 279.124 22.7345H282.083C282.339 22.7345 282.552 22.9469 282.552 23.2037V32.3651H281.613V23.6729H279.593V32.3651C279.593 32.6219 279.381 32.8293 279.124 32.8293H278.542L280.601 34.874L283.461 32.0342L284.127 32.696L280.932 35.8617C280.838 35.9556 280.72 36 280.601 36Z" fill="white"/>
<path d="M275.983 32.4391L271.474 32.4342C271.217 32.4342 271.005 32.2268 271.005 31.9699L271 27.4806C271 27.2929 271.114 27.1201 271.291 27.0509C271.464 26.9769 271.667 27.0164 271.8 27.1497L272.684 28.0288L280.29 20.4577C280.473 20.2799 280.769 20.2799 280.952 20.4577L283.046 22.5418C283.135 22.6307 283.184 22.7443 283.184 22.8727C283.184 22.9962 283.135 23.1147 283.046 23.2036L275.104 31.0958L274.442 30.434L282.048 22.8727L280.621 21.4504L273.015 29.0166C272.832 29.1993 272.536 29.1993 272.353 29.0166L271.938 28.6116L271.943 31.5008L275.988 31.5057" fill="white"/>
<path d="M291.407 19.0452C291.066 19.0452 290.745 18.9119 290.503 18.6748L286.098 14.2892C285.856 14.0522 285.722 13.7311 285.722 13.3953C285.722 13.0545 285.856 12.7384 286.093 12.4964L287.239 11.3556C287.723 10.8815 288.562 10.8815 289.046 11.3556L293.452 15.7412C293.95 16.2351 293.95 17.0401 293.452 17.534L292.306 18.6748C292.064 18.9119 291.748 19.0452 291.407 19.0452ZM288.142 11.9186C288.054 11.9186 287.97 11.9581 287.905 12.0174V12.0223L286.76 13.1582C286.695 13.2224 286.661 13.3064 286.661 13.3953C286.661 13.4842 286.695 13.5682 286.76 13.6274L291.165 18.013C291.293 18.1414 291.516 18.1365 291.644 18.013L292.79 16.8771C292.918 16.7438 292.918 16.5314 292.785 16.403L288.379 12.0223C288.315 11.9581 288.231 11.9186 288.142 11.9186Z" fill="white"/>
<path d="M286.742 26.6614L283.2 23.5131L282.413 24.3002L282.019 25.8743L284.381 29.0227L286.742 26.6614Z" fill="black"/>
<path d="M285.258 32.449C285.066 32.449 284.893 32.3305 284.824 32.1576C284.75 31.9848 284.789 31.7823 284.922 31.6489L285.806 30.7698L278.201 23.2037C278.018 23.0259 278.018 22.7295 278.201 22.5468L280.29 20.4627C280.463 20.2898 280.779 20.2898 280.952 20.4627L288.562 28.0338L289.441 27.1547C289.575 27.0213 289.777 26.9818 289.955 27.0559C290.128 27.125 290.241 27.2979 290.241 27.4856L290.237 31.9749C290.237 32.2317 290.029 32.4391 289.767 32.4391L285.258 32.449ZM279.193 22.8777L286.799 30.4389C286.987 30.6217 286.987 30.9229 286.799 31.1007L286.389 31.5107H289.298L289.303 28.6165L288.893 29.0215C288.71 29.2043 288.414 29.2043 288.226 29.0215L280.621 21.4553" fill="white"/>
<path d="M277.69 32.5646H279.264V23.5131H282.019L282.413 32.5646H283.2L280.445 35.713L277.69 32.5646Z" fill="black"/>
<path d="M280.601 36C280.478 36 280.359 35.9556 280.27 35.8617L277.075 32.696C276.941 32.5626 276.902 32.3601 276.971 32.1873C277.045 32.0095 277.218 31.8959 277.406 31.8959H278.655V23.2037C278.655 22.9469 278.863 22.7345 279.124 22.7345H282.083C282.339 22.7345 282.552 22.9469 282.552 23.2037V31.8959H283.791C283.984 31.8959 284.157 32.0095 284.226 32.1873C284.3 32.3601 284.261 32.5626 284.127 32.696L280.932 35.8617C280.838 35.9556 280.72 36 280.601 36ZM278.542 32.8293L280.601 34.874L282.66 32.8293H282.083C281.821 32.8293 281.613 32.6219 281.613 32.3651V23.6729H279.593V32.3651C279.593 32.6219 279.381 32.8293 279.124 32.8293" fill="white"/>
<path d="M282.413 20.8231L280.29 23.6579C279.929 24.137 280.028 24.8185 280.512 25.1741C280.991 25.5347 281.678 25.4359 282.038 24.9568L283.362 23.1887C283.89 22.4973 284.483 22.2405 284.769 22.1664C285.406 21.9985 287.323 21.2824 288.35 20.665C289.372 20.0427 289.901 18.6006 289.846 17.361L286.789 14.3187L280.3 16.3337C279.509 16.6004 279.223 17.0499 279.104 17.3166C278.986 17.5882 277.692 20.6305 277.692 20.6305C277.544 21.0107 277.46 21.4651 277.677 21.8503C277.894 22.2356 278.388 23.006 278.388 23.006L279.816 21.5836C279.816 21.5836 279.761 20.7984 279.944 20.3934C280.132 19.9934 280.329 19.3266 280.754 19.1735C281.174 19.0254 281.91 18.7883 281.91 18.7883C281.91 18.7883 281.845 19.6279 281.994 20.0773C282.147 20.5267 282.379 20.7934 282.379 20.7934" fill="black"/>
<path d="M281.164 25.8607C280.828 25.8607 280.502 25.752 280.23 25.5495C279.895 25.3026 279.677 24.9371 279.618 24.5272C279.564 24.1173 279.667 23.7074 279.919 23.3765L281.831 20.8231C281.737 20.67 281.633 20.4725 281.549 20.2255C281.475 19.9934 281.44 19.702 281.431 19.4403C281.248 19.4995 281.06 19.5637 280.912 19.6131C280.759 19.6674 280.576 20.107 280.477 20.3391L280.374 20.591C280.28 20.7885 280.265 21.2725 280.285 21.5541C280.295 21.6874 280.245 21.8207 280.151 21.9146L278.719 23.3369C278.62 23.4357 278.477 23.4851 278.339 23.4703C278.196 23.4555 278.072 23.3765 277.993 23.2579C277.993 23.2579 277.489 22.4727 277.267 22.0825C277.015 21.6331 277.01 21.0849 277.257 20.4576C277.262 20.4478 278.556 17.4006 278.675 17.1339C278.927 16.561 279.435 16.1313 280.147 15.8893L286.646 13.8743C286.814 13.82 286.997 13.8644 287.12 13.9879L290.182 17.0351C290.266 17.119 290.31 17.2277 290.315 17.3462C290.37 18.6056 289.851 20.3045 288.592 21.0602C287.525 21.7072 285.589 22.4332 284.888 22.6208C284.784 22.6455 284.241 22.8134 283.737 23.4703L282.413 25.2384C282.162 25.5693 281.801 25.7866 281.386 25.8458C281.312 25.8557 281.238 25.8607 281.164 25.8607ZM281.915 18.3241C282.018 18.3241 282.122 18.3587 282.201 18.4229C282.325 18.5217 282.394 18.6698 282.379 18.8279C282.359 19.1143 282.354 19.6674 282.443 19.9292C282.557 20.2799 282.734 20.4922 282.739 20.4922C282.922 20.6503 282.937 20.9071 282.789 21.1046L280.67 23.9345C280.566 24.0679 280.527 24.2309 280.552 24.3938C280.571 24.5568 280.66 24.705 280.794 24.7988C280.927 24.9025 281.09 24.9371 281.253 24.9223C281.416 24.8976 281.564 24.8087 281.663 24.6803L282.986 22.9073C283.663 22.0282 284.428 21.7714 284.651 21.717C285.214 21.5689 287.11 20.8676 288.103 20.265C288.947 19.7563 289.372 18.5562 289.382 17.5586L286.656 14.8522L280.438 16.7783C279.988 16.9314 279.677 17.1783 279.534 17.5043C279.416 17.7759 278.127 20.8132 278.127 20.8132C277.993 21.154 277.978 21.4306 278.087 21.6183C278.181 21.7911 278.334 22.0381 278.472 22.2603L279.342 21.4009C279.337 21.0947 279.351 20.5663 279.519 20.2008L279.613 19.9835C279.796 19.539 280.053 18.9266 280.596 18.734C281.021 18.5859 281.766 18.3439 281.766 18.3439C281.816 18.329 281.865 18.3241 281.915 18.3241Z" fill="white"/>
</g>
<defs>
<clipPath id="clip0_79_459">
<rect width="312" height="61" fill="white"/>
</clipPath>
</defs>
</svg>
