<svg width="250" height="61" viewBox="0 0 250 61" fill="none" xmlns="http://www.w3.org/2000/svg">
<g clip-path="url(#clip0_79_295)">
<path d="M24.6979 60.4688C11.0781 60.4688 0 49.5208 0 36.0625V0H224.948C238.563 0 249.641 10.9479 249.641 24.4062V60.4688" fill="white"/>
<path d="M222.083 52.9114H69.1353C59.6874 52.9114 51.9999 45.3541 51.9999 36.0625V7.55725H204.948C214.396 7.55725 222.083 15.1145 222.083 24.4062V52.9114ZM204.948 5.66663H50.1145V36.0625C50.1145 46.3958 58.6458 54.802 69.1353 54.802H223.969V24.4062C223.969 14.0729 215.437 5.66663 204.948 5.66663Z" fill="#6B5B4A"/>
<path d="M186.714 54.802L199.724 28.2239L186.432 5.66663H224.948C235.437 5.66663 243.969 14.0729 243.969 24.4062V54.802" fill="#6B5B4A"/>
<path d="M102.901 5.66663H50.1145V36.0625C50.1145 46.3958 58.6458 54.802 69.1353 54.802H121.927V24.4062C121.927 14.0729 113.391 5.66663 102.901 5.66663Z" fill="#6B5B4A"/>
<path d="M63.651 29.3594C58.8489 29.3594 54.9583 33.25 54.9583 38.0521C54.9583 42.8542 58.8489 46.7448 63.651 46.7448C68.4583 46.7448 72.3489 42.8542 72.3489 38.0521C72.3489 33.25 68.4583 29.3594 63.651 29.3594Z" fill="white"/>
<path d="M69.3229 39.4688H65.0729V43.7188H62.2344V39.4688H57.9844V36.6355H62.2344V32.3802H65.0729V36.6355H69.3229" fill="#1C1C1B"/>
<path d="M55.7864 26.5937V17.1979H58.2708V24.5156H61.828V26.5937" fill="white"/>
<path d="M62.9426 26.5937V17.1979H69.0155V19.276H65.4322V20.7552H68.4947V22.8385H65.4322V24.5156H69.1614V26.5937" fill="white"/>
<path d="M75.0885 26.5937V19.276H72.6041V17.1979H80.0677V19.276H77.5781V26.5937" fill="white"/>
<path d="M83.5521 21.4739H84.4479C85.4479 21.4739 85.9531 21.0625 85.9531 20.2343C85.9531 19.8281 85.8229 19.5468 85.5677 19.3958C85.3125 19.2395 84.9375 19.1614 84.4479 19.1614H83.5521V21.4739ZM81.0625 26.5989V17.1979H84.6198C85.125 17.1979 85.6042 17.2448 86.0625 17.3385C86.5208 17.4375 86.9167 17.5989 87.2604 17.8333C87.6042 18.0625 87.875 18.375 88.0781 18.7656C88.2813 19.1562 88.3802 19.6458 88.3802 20.2343C88.3802 20.9062 88.2448 21.4687 87.9688 21.9114C87.6979 22.3541 87.3281 22.6979 86.8646 22.9531L88.901 26.5989H86.125L84.5052 23.4427H83.5521V26.5989" fill="white"/>
<path d="M89.8698 26.5989H92.3593V17.1979H89.8698V26.5989Z" fill="white"/>
<path d="M75.3801 43.276V33.8698H81.5103V35.9531H77.8697V37.75H80.9895V39.8333H77.8697V43.276" fill="white"/>
<path d="M84.9218 38.7031L84.7604 39.3541H86.4948L86.3385 38.7031C86.2239 38.25 86.1041 37.7604 85.9895 37.2291C85.875 36.6979 85.7604 36.1979 85.6406 35.7239H85.5833C85.4791 36.2031 85.3698 36.7083 85.2604 37.2343C85.151 37.7604 85.0364 38.25 84.9218 38.7031ZM81.3073 43.276L84.1666 33.8698H87.1718L90.0364 43.276H87.4062L86.9427 41.276H84.3125L83.8489 43.276" fill="white"/>
<path d="M94.5624 43.4479C93.9687 43.4479 93.3958 43.3489 92.8541 43.151C92.3072 42.9531 91.8333 42.651 91.4218 42.2552C91.0103 41.8541 90.6822 41.3541 90.4426 40.75C90.203 40.1458 90.0833 39.4479 90.0833 38.6458C90.0833 37.8541 90.2083 37.151 90.4583 36.5416C90.7083 35.927 91.0416 35.4114 91.4635 34.9948C91.8801 34.5729 92.3645 34.25 92.9114 34.0312C93.4583 33.8073 94.026 33.6979 94.6249 33.6979C95.2499 33.6979 95.8124 33.8229 96.302 34.0677C96.7968 34.3125 97.2083 34.6041 97.5468 34.9427L96.2447 36.5312C96.0155 36.3333 95.776 36.1666 95.5312 36.0312C95.2812 35.9062 94.9999 35.8385 94.6822 35.8385C94.401 35.8385 94.1405 35.901 93.8958 36.026C93.651 36.151 93.4322 36.3333 93.2447 36.5625C93.0572 36.7916 92.9062 37.0781 92.7968 37.4166C92.6822 37.75 92.6301 38.1354 92.6301 38.5573C92.6301 39.4479 92.8124 40.125 93.1874 40.5989C93.5572 41.0677 94.0468 41.3073 94.651 41.3073C95.0208 41.3073 95.3437 41.2291 95.6301 41.0677C95.9114 40.9062 96.1562 40.7187 96.3593 40.4948L97.6614 42.0573C97.2551 42.5208 96.7916 42.8698 96.2655 43.0989C95.7395 43.3333 95.1718 43.4479 94.5624 43.4479Z" fill="white"/>
<path d="M98.6198 43.276H101.104V33.8698H98.6198V43.276Z" fill="white"/>
<path d="M102.875 43.276V33.8698H105.365V41.1927H108.922V43.276" fill="white"/>
<path d="M110.031 43.276V33.8698H116.109V35.9531H112.521V37.4323H115.589V39.5156H112.521V41.1927H116.255V43.276" fill="white"/>
<path d="M28.4062 25.7448C26.7135 28.2343 28.151 31.5104 29.8958 33.1718C31.4895 34.6823 32.7655 35.0364 32.9322 35.0781L33.7447 33.5208L36.0885 39.9323L29.4635 41.2812L30.3437 39.6458L29.4478 39.1458C26.6562 37.3281 26.0676 34.8593 25.8749 34.0885C25.5416 32.7604 25.0468 28.7864 28.4062 25.7448Z" fill="#6B5B4A"/>
<path d="M28.375 25.8489C29.5781 28.6093 33.1146 29.1406 35.4479 28.552C37.5208 28.026 38.5052 27.1718 38.6719 27.0156L38.6615 27L37.776 25.4635L44.4427 26.9218L42.0313 33.2395L41.1354 31.6458L40.2656 32.1198C37.2396 33.5104 34.8333 32.6927 34.0781 32.4427C32.7813 32.0156 29.1562 30.3125 28.375 25.8489Z" fill="#6B5B4A"/>
<path d="M40.1613 19.1927C39.6978 22.4895 37.7134 24.0729 37.0936 24.5729C36.0311 25.4375 32.6457 27.5677 28.4634 25.8177C31.4373 26.2916 33.7967 23.6041 34.5571 21.3177C35.2446 19.2656 35.0415 17.9687 34.9998 17.7708L34.979 17.7656L33.2134 17.6927L38.0259 12.8541L42.0519 18.2864L40.2342 18.1823" fill="#6B5B4A"/>
<path fill-rule="evenodd" clip-rule="evenodd" d="M19.9375 16.4115C18.4167 16.4115 17.1875 15.1823 17.1875 13.6563C17.1875 12.1354 18.4167 10.9062 19.9375 10.9062C21.4583 10.9062 22.6927 12.1354 22.6927 13.6563C22.6927 15.1823 21.4583 16.4115 19.9375 16.4115Z" fill="#6B5B4A"/>
<path d="M15.6771 29.7968C15.9115 29.151 16.2604 29.1927 16.2604 29.1927C16.2604 29.1927 16.5781 29.125 16.7552 29.7708L19.3281 38.8073C17.1823 38.1823 15.224 37.1198 13.5573 35.7083L15.6771 29.7968ZM23.7031 5.66663C13.7604 5.66663 5.67188 13.7552 5.67188 23.6979C5.67188 33.6406 13.7604 41.7291 23.7031 41.7291C24.2344 41.7291 24.7552 41.6979 25.276 41.651L25.3958 43.4635L28.6979 40.2708L25.0052 37.4531L25.1458 39.3541C24.6719 39.401 24.1875 39.4323 23.7031 39.4323C22.9375 39.4323 22.1875 39.375 21.4531 39.2656L21.3802 38.7864L19.6667 24.1875C19.4323 21.4323 21.0052 20.9948 21.9792 21.4062L27.4479 23.6041C28.0729 23.875 28.375 23.3489 28.375 23.3489C28.375 23.3489 28.7292 22.802 28.0938 22.3958C28.0938 22.3958 20.6406 17.4583 19.0521 17.1562C16.8854 16.7552 14.7396 18.5104 14.2656 20.7968L11.6198 33.7604C9.34375 31.0312 7.96875 27.5208 7.96875 23.6979C7.96875 15.0208 15.026 7.9635 23.7031 7.9635C28.3385 7.9635 32.5104 9.97913 35.3906 13.177L37.0052 11.5364C33.7083 7.93225 28.9635 5.66663 23.7031 5.66663Z" fill="#6B5B4A"/>
<path fill-rule="evenodd" clip-rule="evenodd" d="M215.184 13.5477C212.848 13.829 210.995 15.7189 210.697 18.1033L210.693 18.1036L210.569 18.8693C210.562 18.8856 210.558 18.9007 210.558 18.914C210.554 18.9403 210.549 18.9665 210.545 18.9927C210.517 19.164 210.489 19.3314 210.515 19.5044L210.513 21.0954C207.452 24.2948 206.633 27.1159 207.139 29.2647C207.309 29.9622 207.62 30.6156 208.051 31.1832C208.482 31.7508 209.024 32.2202 209.642 32.5614C209.922 32.7258 210.213 32.8682 210.513 32.9874L210.511 34.7847L210.513 34.8477C210.49 35.4096 210.562 35.9713 210.728 36.5076C210.955 37.0944 211.311 37.6198 211.769 38.0432C212.048 38.3281 212.352 38.5852 212.679 38.8111C213.03 39.056 213.399 39.2719 213.783 39.4567C215.887 40.4919 218.644 41.0038 221.334 41C224.024 40.9962 226.734 40.4594 228.81 39.4032C229.316 39.1492 229.791 38.8357 230.226 38.4692C230.646 38.115 231.01 37.6961 231.304 37.2276C231.888 36.2837 231.886 35.9049 231.883 35.0104L231.882 35.0005L231.886 20.0602C231.956 19.8477 231.995 19.6255 232 19.4012C232 19.1676 231.963 18.942 231.893 18.7249C231.348 16.0509 229.424 14.0935 226.857 13.6116C225.861 11.4138 223.535 10 221.006 10C218.502 10 216.195 11.3865 215.184 13.5477ZM221.245 22.4255C217.72 22.4255 214.58 21.643 212.551 20.4235C212.188 19.5805 212.237 18.5859 212.269 18.2929C212.501 16.5087 213.988 15.1323 215.789 15.1323C215.966 15.1323 216.14 15.1455 216.309 15.1711C216.711 13.1523 218.661 11.6207 221.006 11.6207C223.336 11.6207 225.276 13.1331 225.695 15.1331C225.723 15.1326 225.75 15.1323 225.778 15.1323C228.041 15.1323 230.03 16.9544 230.478 19.3712C230.47 19.8542 230.363 20.1051 230.276 20.2103C228.268 21.5511 224.971 22.4255 221.245 22.4255ZM208.668 28.8903C208.352 27.5052 208.811 25.6874 210.508 23.5283L210.506 31.2072L210.426 31.1594C209.996 30.9258 209.618 30.6036 209.315 30.2131C209.013 29.8226 208.793 29.3722 208.668 28.8903ZM230.224 21.9951C229.664 22.3566 229.068 22.6569 228.447 22.8909C226.551 23.6243 223.985 24.0942 221.196 24.0961C218.758 24.1265 216.334 23.6966 214.048 22.8278C213.386 22.5663 212.756 22.2272 212.17 21.8174L212.168 31.7898C212.702 31.8871 213.246 31.9179 213.787 31.8814C216.341 31.7229 219.114 30.128 220.476 26.6441C220.556 26.4477 220.709 26.2916 220.901 26.2096C221.093 26.1276 221.309 26.1262 221.502 26.2057C221.694 26.2853 221.849 26.4394 221.932 26.6348C222.015 26.8301 222.019 27.051 221.944 27.2496C220.321 31.3982 216.973 33.3025 213.876 33.505C213.304 33.5419 212.729 33.5188 212.16 33.4362L212.168 34.8458C212.149 35.212 212.187 35.579 212.282 35.9326C212.432 36.2819 212.655 36.5935 212.934 36.8456C213.143 37.0558 213.369 37.2457 213.612 37.4129C213.893 37.6103 214.188 37.7852 214.496 37.9363C216.369 38.8569 218.836 39.3249 221.323 39.3077C223.809 39.2905 226.236 38.834 228.073 37.8885C228.463 37.694 228.83 37.4543 229.167 37.1742C229.454 36.9324 229.703 36.6463 229.905 36.3261C230.166 35.9455 230.281 35.4797 230.228 35.0177C230.227 35.0076 230.227 34.9649 230.227 34.918C230.227 34.8501 230.226 34.7732 230.224 34.7732L230.224 21.9951Z" fill="white"/>
<path d="M209.562 50.9442C209.054 50.9442 208.665 50.7996 208.395 50.5102C208.132 50.2209 208 49.8126 208 49.2853V45.6589C208 45.1317 208.132 44.7234 208.395 44.434C208.665 44.1447 209.054 44 209.562 44C210.07 44 210.456 44.1447 210.72 44.434C210.99 44.7234 211.125 45.1317 211.125 45.6589V46.3726H210.122V45.5914C210.122 45.1734 209.945 44.9645 209.591 44.9645C209.238 44.9645 209.061 45.1734 209.061 45.5914V49.3625C209.061 49.774 209.238 49.9798 209.591 49.9798C209.945 49.9798 210.122 49.774 210.122 49.3625V48.3305H211.125V49.2853C211.125 49.8126 210.99 50.2209 210.72 50.5102C210.456 50.7996 210.07 50.9442 209.562 50.9442Z" fill="white"/>
<path d="M213.312 50.9442C212.791 50.9442 212.393 50.7963 212.116 50.5006C211.84 50.2048 211.701 49.7869 211.701 49.2468V45.6975C211.701 45.1574 211.84 44.7394 212.116 44.4437C212.393 44.1479 212.791 44 213.312 44C213.833 44 214.231 44.1479 214.508 44.4437C214.784 44.7394 214.923 45.1574 214.923 45.6975V49.2468C214.923 49.7869 214.784 50.2048 214.508 50.5006C214.231 50.7963 213.833 50.9442 213.312 50.9442ZM213.312 49.9798C213.679 49.9798 213.862 49.7579 213.862 49.3143V45.63C213.862 45.1863 213.679 44.9645 213.312 44.9645C212.946 44.9645 212.762 45.1863 212.762 45.63V49.3143C212.762 49.7579 212.946 49.9798 213.312 49.9798Z" fill="white"/>
<path d="M215.64 44.0964H217.154L217.83 48.9285H217.849L218.524 44.0964H220.038V50.8478H219.035V45.7361H219.016L218.244 50.8478H217.357L216.585 45.7361H216.566V50.8478H215.64V44.0964Z" fill="white"/>
<path d="M220.83 44.0964H222.392C222.92 44.0964 223.315 44.2379 223.579 44.5208C223.842 44.8037 223.974 45.2185 223.974 45.765V46.4305C223.974 46.977 223.842 47.3917 223.579 47.6747C223.315 47.9576 222.92 48.099 222.392 48.099H221.891V50.8478H220.83V44.0964ZM222.392 47.1345C222.566 47.1345 222.695 47.0863 222.778 46.9899C222.868 46.8934 222.913 46.7295 222.913 46.498V45.6975C222.913 45.466 222.868 45.302 222.778 45.2056C222.695 45.1091 222.566 45.0609 222.392 45.0609H221.891V47.1345H222.392Z" fill="white"/>
<path d="M226.084 50.9442C225.563 50.9442 225.164 50.7963 224.888 50.5006C224.611 50.2048 224.473 49.7869 224.473 49.2468V45.6975C224.473 45.1574 224.611 44.7394 224.888 44.4437C225.164 44.1479 225.563 44 226.084 44C226.605 44 227.003 44.1479 227.28 44.4437C227.556 44.7394 227.694 45.1574 227.694 45.6975V49.2468C227.694 49.7869 227.556 50.2048 227.28 50.5006C227.003 50.7963 226.605 50.9442 226.084 50.9442ZM226.084 49.9798C226.45 49.9798 226.634 49.7579 226.634 49.3143V45.63C226.634 45.1863 226.45 44.9645 226.084 44.9645C225.717 44.9645 225.534 45.1863 225.534 45.63V49.3143C225.534 49.7579 225.717 49.9798 226.084 49.9798Z" fill="white"/>
<path d="M229.791 50.9442C229.277 50.9442 228.888 50.7996 228.624 50.5102C228.361 50.2144 228.229 49.7933 228.229 49.2468V48.861H229.232V49.3239C229.232 49.7611 229.415 49.9798 229.782 49.9798C229.962 49.9798 230.097 49.9283 230.187 49.8254C230.283 49.7161 230.331 49.5425 230.331 49.3046C230.331 49.0217 230.267 48.7742 230.138 48.562C230.01 48.3434 229.772 48.083 229.425 47.7807C228.987 47.395 228.682 47.0477 228.508 46.7391C228.335 46.4241 228.248 46.0704 228.248 45.6782C228.248 45.1445 228.383 44.733 228.653 44.4437C228.923 44.1479 229.315 44 229.83 44C230.338 44 230.72 44.1479 230.977 44.4437C231.241 44.733 231.373 45.1509 231.373 45.6975V45.9772H230.37V45.63C230.37 45.3985 230.325 45.2313 230.235 45.1284C230.145 45.0191 230.013 44.9645 229.839 44.9645C229.486 44.9645 229.309 45.1799 229.309 45.6107C229.309 45.855 229.373 46.0833 229.502 46.2955C229.637 46.5076 229.878 46.7648 230.225 47.067C230.669 47.4528 230.974 47.8033 231.141 48.1183C231.309 48.4334 231.392 48.8031 231.392 49.2275C231.392 49.7804 231.254 50.2048 230.977 50.5006C230.707 50.7963 230.312 50.9442 229.791 50.9442Z" fill="white"/>
<path d="M232.83 45.0609H231.721V44.0964H235V45.0609H233.891V50.8478H232.83V45.0609Z" fill="white"/>
<path d="M129.636 18.432H132.204L133.428 24.48H133.452L134.688 18.432H137.244V27H135.66V20.16H135.636L134.112 27H132.768L131.244 20.16H131.22V27H129.636V18.432ZM142.059 23.772L141.231 19.92H141.207L140.379 23.772H142.059ZM142.287 18.432L144.555 27H142.755L142.359 25.188H140.079L139.683 27H137.883L140.151 18.432H142.287ZM146.771 18.432V24.408C146.771 24.624 146.783 24.824 146.807 25.008C146.839 25.184 146.891 25.34 146.963 25.476C147.043 25.604 147.147 25.708 147.275 25.788C147.411 25.86 147.579 25.896 147.779 25.896C147.987 25.896 148.155 25.86 148.283 25.788C148.411 25.708 148.511 25.604 148.583 25.476C148.663 25.34 148.715 25.184 148.739 25.008C148.771 24.824 148.787 24.624 148.787 24.408V18.432H150.515V24.408C150.515 24.952 150.439 25.404 150.287 25.764C150.135 26.116 149.931 26.396 149.675 26.604C149.419 26.812 149.127 26.952 148.799 27.024C148.471 27.096 148.131 27.132 147.779 27.132C147.427 27.132 147.087 27.1 146.759 27.036C146.431 26.972 146.139 26.844 145.883 26.652C145.627 26.452 145.423 26.172 145.271 25.812C145.119 25.452 145.043 24.984 145.043 24.408V18.432H146.771ZM152.892 18.432L154.104 24.768H154.14L155.412 18.432H157.2L155.232 27H153.012L151.044 18.432H152.892ZM160.961 23.772L160.133 19.92H160.109L159.281 23.772H160.961ZM161.189 18.432L163.457 27H161.657L161.261 25.188H158.981L158.585 27H156.785L159.053 18.432H161.189ZM164.137 27V18.432H165.865V27H164.137ZM168.539 24.324V24.576C168.539 24.776 168.555 24.96 168.587 25.128C168.619 25.288 168.679 25.424 168.767 25.536C168.855 25.648 168.971 25.736 169.115 25.8C169.267 25.864 169.455 25.896 169.679 25.896C169.943 25.896 170.179 25.812 170.387 25.644C170.603 25.468 170.711 25.2 170.711 24.84C170.711 24.648 170.683 24.484 170.627 24.348C170.579 24.204 170.495 24.076 170.375 23.964C170.255 23.852 170.095 23.752 169.895 23.664C169.703 23.568 169.463 23.472 169.175 23.376C168.791 23.248 168.459 23.108 168.179 22.956C167.899 22.804 167.663 22.628 167.471 22.428C167.287 22.22 167.151 21.984 167.063 21.72C166.975 21.448 166.931 21.136 166.931 20.784C166.931 19.936 167.167 19.304 167.639 18.888C168.111 18.472 168.759 18.264 169.583 18.264C169.967 18.264 170.319 18.308 170.639 18.396C170.967 18.476 171.247 18.612 171.479 18.804C171.719 18.988 171.903 19.228 172.031 19.524C172.167 19.812 172.235 20.16 172.235 20.568V20.808H170.579C170.579 20.4 170.507 20.088 170.363 19.872C170.219 19.648 169.979 19.536 169.643 19.536C169.451 19.536 169.291 19.564 169.163 19.62C169.035 19.676 168.931 19.752 168.851 19.848C168.779 19.936 168.727 20.04 168.695 20.16C168.671 20.28 168.659 20.404 168.659 20.532C168.659 20.796 168.715 21.02 168.827 21.204C168.939 21.38 169.179 21.544 169.547 21.696L170.879 22.272C171.207 22.416 171.475 22.568 171.683 22.728C171.891 22.88 172.055 23.048 172.175 23.232C172.303 23.408 172.391 23.604 172.439 23.82C172.487 24.036 172.511 24.276 172.511 24.54C172.511 25.444 172.247 26.104 171.719 26.52C171.199 26.928 170.471 27.132 169.535 27.132C168.559 27.132 167.859 26.92 167.435 26.496C167.019 26.072 166.811 25.464 166.811 24.672V24.324H168.539ZM178.158 18.432V19.848H175.098V21.864H177.978V23.28H175.098V25.584H178.278V27H173.37V18.432H178.158ZM180.539 24.324V24.576C180.539 24.776 180.555 24.96 180.587 25.128C180.619 25.288 180.679 25.424 180.767 25.536C180.855 25.648 180.971 25.736 181.115 25.8C181.267 25.864 181.455 25.896 181.679 25.896C181.943 25.896 182.179 25.812 182.387 25.644C182.603 25.468 182.711 25.2 182.711 24.84C182.711 24.648 182.683 24.484 182.627 24.348C182.579 24.204 182.495 24.076 182.375 23.964C182.255 23.852 182.095 23.752 181.895 23.664C181.703 23.568 181.463 23.472 181.175 23.376C180.791 23.248 180.459 23.108 180.179 22.956C179.899 22.804 179.663 22.628 179.471 22.428C179.287 22.22 179.151 21.984 179.063 21.72C178.975 21.448 178.931 21.136 178.931 20.784C178.931 19.936 179.167 19.304 179.639 18.888C180.111 18.472 180.759 18.264 181.583 18.264C181.967 18.264 182.319 18.308 182.639 18.396C182.967 18.476 183.247 18.612 183.479 18.804C183.719 18.988 183.903 19.228 184.031 19.524C184.167 19.812 184.235 20.16 184.235 20.568V20.808H182.579C182.579 20.4 182.507 20.088 182.363 19.872C182.219 19.648 181.979 19.536 181.643 19.536C181.451 19.536 181.291 19.564 181.163 19.62C181.035 19.676 180.931 19.752 180.851 19.848C180.779 19.936 180.727 20.04 180.695 20.16C180.671 20.28 180.659 20.404 180.659 20.532C180.659 20.796 180.715 21.02 180.827 21.204C180.939 21.38 181.179 21.544 181.547 21.696L182.879 22.272C183.207 22.416 183.475 22.568 183.683 22.728C183.891 22.88 184.055 23.048 184.175 23.232C184.303 23.408 184.391 23.604 184.439 23.82C184.487 24.036 184.511 24.276 184.511 24.54C184.511 25.444 184.247 26.104 183.719 26.52C183.199 26.928 182.471 27.132 181.535 27.132C180.559 27.132 179.859 26.92 179.435 26.496C179.019 26.072 178.811 25.464 178.811 24.672V24.324H180.539ZM129.6 33.432H131.328V36.708H133.344V33.432H135.072V42H133.344V38.196H131.328V42H129.6V33.432ZM141.056 33.432V34.848H137.996V36.864H140.876V38.28H137.996V40.584H141.176V42H136.268V33.432H141.056ZM142.045 33.432H145.237C145.957 33.432 146.517 33.616 146.917 33.984C147.317 34.344 147.517 34.896 147.517 35.64C147.517 36.216 147.401 36.688 147.169 37.056C146.937 37.416 146.577 37.648 146.089 37.752V37.776C146.521 37.84 146.837 37.98 147.037 38.196C147.237 38.412 147.361 38.76 147.409 39.24C147.425 39.4 147.437 39.576 147.445 39.768C147.453 39.952 147.461 40.16 147.469 40.392C147.485 40.848 147.509 41.196 147.541 41.436C147.589 41.676 147.693 41.84 147.853 41.928V42H145.981C145.893 41.88 145.837 41.744 145.813 41.592C145.789 41.432 145.773 41.268 145.765 41.1L145.717 39.456C145.701 39.12 145.617 38.856 145.465 38.664C145.313 38.472 145.057 38.376 144.697 38.376H143.773V42H142.045V33.432ZM143.773 37.176H144.493C144.909 37.176 145.229 37.08 145.453 36.888C145.677 36.688 145.789 36.356 145.789 35.892C145.789 35.1 145.389 34.704 144.589 34.704H143.773V37.176ZM150.441 40.728H151.113C151.529 40.728 151.865 40.636 152.121 40.452C152.377 40.268 152.505 39.928 152.505 39.432C152.505 39.184 152.469 38.98 152.397 38.82C152.333 38.652 152.241 38.52 152.121 38.424C152.009 38.32 151.873 38.248 151.713 38.208C151.553 38.168 151.377 38.148 151.185 38.148H150.441V40.728ZM150.441 36.948H150.933C151.413 36.948 151.761 36.864 151.977 36.696C152.201 36.52 152.313 36.228 152.313 35.82C152.313 35.412 152.213 35.124 152.013 34.956C151.813 34.788 151.497 34.704 151.065 34.704H150.441V36.948ZM148.713 33.432H151.605C151.957 33.432 152.281 33.468 152.577 33.54C152.881 33.612 153.141 33.732 153.357 33.9C153.573 34.068 153.741 34.292 153.861 34.572C153.981 34.852 154.041 35.196 154.041 35.604C154.041 36.068 153.933 36.468 153.717 36.804C153.501 37.132 153.177 37.356 152.745 37.476V37.5C153.225 37.564 153.605 37.768 153.885 38.112C154.165 38.456 154.305 38.916 154.305 39.492C154.305 39.828 154.261 40.148 154.173 40.452C154.085 40.756 153.933 41.024 153.717 41.256C153.509 41.48 153.233 41.66 152.889 41.796C152.553 41.932 152.133 42 151.629 42H148.713V33.432ZM160.169 33.432V34.848H157.109V36.864H159.989V38.28H157.109V40.584H160.289V42H155.381V33.432H160.169ZM162.551 39.324V39.576C162.551 39.776 162.567 39.96 162.599 40.128C162.631 40.288 162.691 40.424 162.779 40.536C162.867 40.648 162.983 40.736 163.127 40.8C163.279 40.864 163.467 40.896 163.691 40.896C163.955 40.896 164.191 40.812 164.399 40.644C164.615 40.468 164.723 40.2 164.723 39.84C164.723 39.648 164.695 39.484 164.639 39.348C164.591 39.204 164.507 39.076 164.387 38.964C164.267 38.852 164.107 38.752 163.907 38.664C163.715 38.568 163.475 38.472 163.187 38.376C162.803 38.248 162.471 38.108 162.191 37.956C161.911 37.804 161.675 37.628 161.483 37.428C161.299 37.22 161.163 36.984 161.075 36.72C160.987 36.448 160.943 36.136 160.943 35.784C160.943 34.936 161.179 34.304 161.651 33.888C162.123 33.472 162.771 33.264 163.595 33.264C163.979 33.264 164.331 33.308 164.651 33.396C164.979 33.476 165.259 33.612 165.491 33.804C165.731 33.988 165.915 34.228 166.043 34.524C166.179 34.812 166.247 35.16 166.247 35.568V35.808H164.591C164.591 35.4 164.519 35.088 164.375 34.872C164.231 34.648 163.991 34.536 163.655 34.536C163.463 34.536 163.303 34.564 163.175 34.62C163.047 34.676 162.943 34.752 162.863 34.848C162.791 34.936 162.739 35.04 162.707 35.16C162.683 35.28 162.671 35.404 162.671 35.532C162.671 35.796 162.727 36.02 162.839 36.204C162.951 36.38 163.191 36.544 163.559 36.696L164.891 37.272C165.219 37.416 165.487 37.568 165.695 37.728C165.903 37.88 166.067 38.048 166.187 38.232C166.315 38.408 166.403 38.604 166.451 38.82C166.499 39.036 166.523 39.276 166.523 39.54C166.523 40.444 166.259 41.104 165.731 41.52C165.211 41.928 164.483 42.132 163.547 42.132C162.571 42.132 161.871 41.92 161.447 41.496C161.031 41.072 160.823 40.464 160.823 39.672V39.324H162.551Z" fill="black"/>
</g>
<defs>
<clipPath id="clip0_79_295">
<rect width="250" height="61" fill="white"/>
</clipPath>
</defs>
</svg>
