<svg width="280" height="61" viewBox="0 0 280 61" fill="none" xmlns="http://www.w3.org/2000/svg">
<g clip-path="url(#clip0_79_164)">
<path d="M24.6979 60.4688C11.0781 60.4688 0 49.5208 0 36.0625V0H254.948C268.563 0 279.641 10.9479 279.641 24.4062V60.4688" fill="white"/>
<path d="M242.083 52.9114H69.1353C59.6874 52.9114 51.9999 45.3541 51.9999 36.0625V7.55725H224.948C234.396 7.55725 242.083 15.1145 242.083 24.4062V52.9114ZM224.948 5.66663H50.1145V36.0625C50.1145 46.3958 58.6458 54.802 69.1353 54.802H243.969V24.4062C243.969 14.0729 235.437 5.66663 224.948 5.66663Z" fill="#333347"/>
<path d="M216.714 54.802L229.724 28.2239L216.432 5.66663H254.948C265.437 5.66663 273.969 14.0729 273.969 24.4062V54.802" fill="#333347"/>
<path d="M102.901 5.66663H50.1145V36.0625C50.1145 46.3958 58.6458 54.802 69.1353 54.802H121.927V24.4062C121.927 14.0729 113.391 5.66663 102.901 5.66663Z" fill="#333347"/>
<path d="M63.651 29.3594C58.8489 29.3594 54.9583 33.25 54.9583 38.0521C54.9583 42.8542 58.8489 46.7448 63.651 46.7448C68.4583 46.7448 72.3489 42.8542 72.3489 38.0521C72.3489 33.25 68.4583 29.3594 63.651 29.3594Z" fill="white"/>
<path d="M69.3229 39.4688H65.0729V43.7188H62.2344V39.4688H57.9844V36.6355H62.2344V32.3802H65.0729V36.6355H69.3229" fill="#1C1C1B"/>
<path d="M55.7864 26.5937V17.1979H58.2708V24.5156H61.828V26.5937" fill="white"/>
<path d="M62.9426 26.5937V17.1979H69.0155V19.276H65.4322V20.7552H68.4947V22.8385H65.4322V24.5156H69.1614V26.5937" fill="white"/>
<path d="M75.0885 26.5937V19.276H72.6041V17.1979H80.0677V19.276H77.5781V26.5937" fill="white"/>
<path d="M83.5521 21.4739H84.4479C85.4479 21.4739 85.9531 21.0625 85.9531 20.2343C85.9531 19.8281 85.8229 19.5468 85.5677 19.3958C85.3125 19.2395 84.9375 19.1614 84.4479 19.1614H83.5521V21.4739ZM81.0625 26.5989V17.1979H84.6198C85.125 17.1979 85.6042 17.2448 86.0625 17.3385C86.5208 17.4375 86.9167 17.5989 87.2604 17.8333C87.6042 18.0625 87.875 18.375 88.0781 18.7656C88.2813 19.1562 88.3802 19.6458 88.3802 20.2343C88.3802 20.9062 88.2448 21.4687 87.9688 21.9114C87.6979 22.3541 87.3281 22.6979 86.8646 22.9531L88.901 26.5989H86.125L84.5052 23.4427H83.5521V26.5989" fill="white"/>
<path d="M89.8698 26.5989H92.3593V17.1979H89.8698V26.5989Z" fill="white"/>
<path d="M75.3801 43.276V33.8698H81.5103V35.9531H77.8697V37.75H80.9895V39.8333H77.8697V43.276" fill="white"/>
<path d="M84.9218 38.7031L84.7604 39.3541H86.4948L86.3385 38.7031C86.2239 38.25 86.1041 37.7604 85.9895 37.2291C85.875 36.6979 85.7604 36.1979 85.6406 35.7239H85.5833C85.4791 36.2031 85.3698 36.7083 85.2604 37.2343C85.151 37.7604 85.0364 38.25 84.9218 38.7031ZM81.3073 43.276L84.1666 33.8698H87.1718L90.0364 43.276H87.4062L86.9427 41.276H84.3125L83.8489 43.276" fill="white"/>
<path d="M94.5624 43.4479C93.9687 43.4479 93.3958 43.3489 92.8541 43.151C92.3072 42.9531 91.8333 42.651 91.4218 42.2552C91.0103 41.8541 90.6822 41.3541 90.4426 40.75C90.203 40.1458 90.0833 39.4479 90.0833 38.6458C90.0833 37.8541 90.2083 37.151 90.4583 36.5416C90.7083 35.927 91.0416 35.4114 91.4635 34.9948C91.8801 34.5729 92.3645 34.25 92.9114 34.0312C93.4583 33.8073 94.026 33.6979 94.6249 33.6979C95.2499 33.6979 95.8124 33.8229 96.302 34.0677C96.7968 34.3125 97.2083 34.6041 97.5468 34.9427L96.2447 36.5312C96.0155 36.3333 95.776 36.1666 95.5312 36.0312C95.2812 35.9062 94.9999 35.8385 94.6822 35.8385C94.401 35.8385 94.1405 35.901 93.8958 36.026C93.651 36.151 93.4322 36.3333 93.2447 36.5625C93.0572 36.7916 92.9062 37.0781 92.7968 37.4166C92.6822 37.75 92.6301 38.1354 92.6301 38.5573C92.6301 39.4479 92.8124 40.125 93.1874 40.5989C93.5572 41.0677 94.0468 41.3073 94.651 41.3073C95.0208 41.3073 95.3437 41.2291 95.6301 41.0677C95.9114 40.9062 96.1562 40.7187 96.3593 40.4948L97.6614 42.0573C97.2551 42.5208 96.7916 42.8698 96.2655 43.0989C95.7395 43.3333 95.1718 43.4479 94.5624 43.4479Z" fill="white"/>
<path d="M98.6198 43.276H101.104V33.8698H98.6198V43.276Z" fill="white"/>
<path d="M102.875 43.276V33.8698H105.365V41.1927H108.922V43.276" fill="white"/>
<path d="M110.031 43.276V33.8698H116.109V35.9531H112.521V37.4323H115.589V39.5156H112.521V41.1927H116.255V43.276" fill="white"/>
<path d="M28.4062 25.7448C26.7135 28.2343 28.151 31.5104 29.8958 33.1718C31.4895 34.6823 32.7655 35.0364 32.9322 35.0781L33.7447 33.5208L36.0885 39.9323L29.4635 41.2812L30.3437 39.6458L29.4478 39.1458C26.6562 37.3281 26.0676 34.8593 25.8749 34.0885C25.5416 32.7604 25.0468 28.7864 28.4062 25.7448Z" fill="#333347"/>
<path d="M28.375 25.8489C29.5781 28.6093 33.1146 29.1406 35.4479 28.552C37.5208 28.026 38.5052 27.1718 38.6719 27.0156L38.6615 27L37.776 25.4635L44.4427 26.9218L42.0313 33.2395L41.1354 31.6458L40.2656 32.1198C37.2396 33.5104 34.8333 32.6927 34.0781 32.4427C32.7813 32.0156 29.1562 30.3125 28.375 25.8489Z" fill="#333347"/>
<path d="M40.1613 19.1927C39.6978 22.4895 37.7134 24.0729 37.0936 24.5729C36.0311 25.4375 32.6457 27.5677 28.4634 25.8177C31.4373 26.2916 33.7967 23.6041 34.5571 21.3177C35.2446 19.2656 35.0415 17.9687 34.9998 17.7708L34.979 17.7656L33.2134 17.6927L38.0259 12.8541L42.0519 18.2864L40.2342 18.1823" fill="#333347"/>
<path fill-rule="evenodd" clip-rule="evenodd" d="M19.9375 16.4115C18.4167 16.4115 17.1875 15.1823 17.1875 13.6563C17.1875 12.1354 18.4167 10.9062 19.9375 10.9062C21.4583 10.9062 22.6927 12.1354 22.6927 13.6563C22.6927 15.1823 21.4583 16.4115 19.9375 16.4115Z" fill="#333347"/>
<path d="M15.6771 29.7968C15.9115 29.151 16.2604 29.1927 16.2604 29.1927C16.2604 29.1927 16.5781 29.125 16.7552 29.7708L19.3281 38.8073C17.1823 38.1823 15.224 37.1198 13.5573 35.7083L15.6771 29.7968ZM23.7031 5.66663C13.7604 5.66663 5.67188 13.7552 5.67188 23.6979C5.67188 33.6406 13.7604 41.7291 23.7031 41.7291C24.2344 41.7291 24.7552 41.6979 25.276 41.651L25.3958 43.4635L28.6979 40.2708L25.0052 37.4531L25.1458 39.3541C24.6719 39.401 24.1875 39.4323 23.7031 39.4323C22.9375 39.4323 22.1875 39.375 21.4531 39.2656L21.3802 38.7864L19.6667 24.1875C19.4323 21.4323 21.0052 20.9948 21.9792 21.4062L27.4479 23.6041C28.0729 23.875 28.375 23.3489 28.375 23.3489C28.375 23.3489 28.7292 22.802 28.0938 22.3958C28.0938 22.3958 20.6406 17.4583 19.0521 17.1562C16.8854 16.7552 14.7396 18.5104 14.2656 20.7968L11.6198 33.7604C9.34375 31.0312 7.96875 27.5208 7.96875 23.6979C7.96875 15.0208 15.026 7.9635 23.7031 7.9635C28.3385 7.9635 32.5104 9.97913 35.3906 13.177L37.0052 11.5364C33.7083 7.93225 28.9635 5.66663 23.7031 5.66663Z" fill="#333347"/>
<path d="M129.6 27V18.432H131.328V25.584H134.388V27H129.6ZM135.239 27V18.432H136.967V27H135.239ZM143.264 18.432V19.848H141.392V27H139.664V19.848H137.792V18.432H143.264ZM144.098 27V18.432H145.826V27H144.098ZM149.196 17.928L148.02 16.2H149.676L150.324 17.928H149.196ZM151.896 18.432V19.848H148.836V21.864H151.716V23.28H148.836V25.584H152.016V27H147.108V18.432H151.896ZM152.885 18.432H156.077C156.797 18.432 157.357 18.616 157.757 18.984C158.157 19.344 158.357 19.896 158.357 20.64C158.357 21.216 158.241 21.688 158.009 22.056C157.777 22.416 157.417 22.648 156.929 22.752V22.776C157.361 22.84 157.677 22.98 157.877 23.196C158.077 23.412 158.201 23.76 158.249 24.24C158.265 24.4 158.277 24.576 158.285 24.768C158.293 24.952 158.301 25.16 158.309 25.392C158.325 25.848 158.349 26.196 158.381 26.436C158.429 26.676 158.533 26.84 158.693 26.928V27H156.821C156.733 26.88 156.677 26.744 156.653 26.592C156.629 26.432 156.613 26.268 156.605 26.1L156.557 24.456C156.541 24.12 156.457 23.856 156.305 23.664C156.153 23.472 155.897 23.376 155.537 23.376H154.613V27H152.885V18.432ZM154.613 22.176H155.333C155.749 22.176 156.069 22.08 156.293 21.888C156.517 21.688 156.629 21.356 156.629 20.892C156.629 20.1 156.229 19.704 155.429 19.704H154.613V22.176ZM164.341 18.432V19.848H161.281V21.864H164.161V23.28H161.281V25.584H164.461V27H159.553V18.432H164.341ZM170.025 25.728H170.793C171.097 25.728 171.341 25.676 171.525 25.572C171.709 25.468 171.853 25.296 171.957 25.056C172.069 24.816 172.141 24.5 172.173 24.108C172.213 23.716 172.233 23.228 172.233 22.644C172.233 22.156 172.217 21.728 172.185 21.36C172.153 20.992 172.085 20.688 171.981 20.448C171.885 20.2 171.737 20.016 171.537 19.896C171.345 19.768 171.085 19.704 170.757 19.704H170.025V25.728ZM168.297 18.432H171.129C171.729 18.432 172.213 18.532 172.581 18.732C172.949 18.924 173.233 19.204 173.433 19.572C173.641 19.932 173.781 20.368 173.853 20.88C173.925 21.392 173.961 21.964 173.961 22.596C173.961 23.348 173.913 24.004 173.817 24.564C173.729 25.116 173.573 25.572 173.349 25.932C173.125 26.292 172.825 26.56 172.449 26.736C172.073 26.912 171.597 27 171.021 27H168.297V18.432ZM175.32 18.432H176.808V22.284H175.32V18.432ZM181.797 23.772L180.969 19.92H180.945L180.117 23.772H181.797ZM182.025 18.432L184.293 27H182.493L182.097 25.188H179.817L179.421 27H177.621L179.889 18.432H182.025ZM186.881 18.432L188.969 24.3H188.993V18.432H190.577V27H188.609L186.497 21H186.473V27H184.889V18.432H186.881ZM191.864 27V18.432H193.592V27H191.864ZM194.909 18.432H197.477L198.701 24.48H198.725L199.961 18.432H202.517V27H200.933V20.16H200.909L199.385 27H198.041L196.517 20.16H196.493V27H194.909V18.432ZM207.332 23.772L206.504 19.92H206.48L205.652 23.772H207.332ZM207.56 18.432L209.828 27H208.028L207.632 25.188H205.352L204.956 27H203.156L205.424 18.432H207.56ZM210.424 27V18.432H212.152V25.584H215.212V27H210.424ZM131.412 40.728H132.18C132.484 40.728 132.728 40.676 132.912 40.572C133.096 40.468 133.24 40.296 133.344 40.056C133.456 39.816 133.528 39.5 133.56 39.108C133.6 38.716 133.62 38.228 133.62 37.644C133.62 37.156 133.604 36.728 133.572 36.36C133.54 35.992 133.472 35.688 133.368 35.448C133.272 35.2 133.124 35.016 132.924 34.896C132.732 34.768 132.472 34.704 132.144 34.704H131.412V40.728ZM129.684 33.432H132.516C133.116 33.432 133.6 33.532 133.968 33.732C134.336 33.924 134.62 34.204 134.82 34.572C135.028 34.932 135.168 35.368 135.24 35.88C135.312 36.392 135.348 36.964 135.348 37.596C135.348 38.348 135.3 39.004 135.204 39.564C135.116 40.116 134.96 40.572 134.736 40.932C134.512 41.292 134.212 41.56 133.836 41.736C133.46 41.912 132.984 42 132.408 42H129.684V33.432ZM138.039 37.716C138.039 38.292 138.051 38.784 138.075 39.192C138.107 39.592 138.163 39.92 138.243 40.176C138.331 40.424 138.451 40.608 138.603 40.728C138.763 40.84 138.971 40.896 139.227 40.896C139.483 40.896 139.687 40.84 139.839 40.728C139.999 40.608 140.119 40.424 140.199 40.176C140.287 39.92 140.343 39.592 140.367 39.192C140.399 38.784 140.415 38.292 140.415 37.716C140.415 37.14 140.399 36.652 140.367 36.252C140.343 35.852 140.287 35.524 140.199 35.268C140.119 35.012 139.999 34.828 139.839 34.716C139.687 34.596 139.483 34.536 139.227 34.536C138.971 34.536 138.763 34.596 138.603 34.716C138.451 34.828 138.331 35.012 138.243 35.268C138.163 35.524 138.107 35.852 138.075 36.252C138.051 36.652 138.039 37.14 138.039 37.716ZM136.311 37.716C136.311 37.068 136.339 36.472 136.395 35.928C136.459 35.376 136.591 34.904 136.791 34.512C136.999 34.12 137.295 33.816 137.679 33.6C138.063 33.376 138.579 33.264 139.227 33.264C139.875 33.264 140.391 33.376 140.775 33.6C141.159 33.816 141.451 34.12 141.651 34.512C141.859 34.904 141.991 35.376 142.047 35.928C142.111 36.472 142.143 37.068 142.143 37.716C142.143 38.372 142.111 38.972 142.047 39.516C141.991 40.06 141.859 40.528 141.651 40.92C141.451 41.312 141.159 41.612 140.775 41.82C140.391 42.028 139.875 42.132 139.227 42.132C138.579 42.132 138.063 42.028 137.679 41.82C137.295 41.612 136.999 41.312 136.791 40.92C136.591 40.528 136.459 40.06 136.395 39.516C136.339 38.972 136.311 38.372 136.311 37.716ZM143.195 33.432H145.763L146.987 39.48H147.011L148.247 33.432H150.803V42H149.219V35.16H149.195L147.671 42H146.327L144.803 35.16H144.779V42H143.195V33.432ZM156.829 33.432V34.848H153.769V36.864H156.649V38.28H153.769V40.584H156.949V42H152.041V33.432H156.829ZM159.211 39.324V39.576C159.211 39.776 159.227 39.96 159.259 40.128C159.291 40.288 159.351 40.424 159.439 40.536C159.527 40.648 159.643 40.736 159.787 40.8C159.939 40.864 160.127 40.896 160.351 40.896C160.615 40.896 160.851 40.812 161.059 40.644C161.275 40.468 161.383 40.2 161.383 39.84C161.383 39.648 161.355 39.484 161.299 39.348C161.251 39.204 161.167 39.076 161.047 38.964C160.927 38.852 160.767 38.752 160.567 38.664C160.375 38.568 160.135 38.472 159.847 38.376C159.463 38.248 159.131 38.108 158.851 37.956C158.571 37.804 158.335 37.628 158.143 37.428C157.959 37.22 157.823 36.984 157.735 36.72C157.647 36.448 157.603 36.136 157.603 35.784C157.603 34.936 157.839 34.304 158.311 33.888C158.783 33.472 159.431 33.264 160.255 33.264C160.639 33.264 160.991 33.308 161.311 33.396C161.639 33.476 161.919 33.612 162.151 33.804C162.391 33.988 162.575 34.228 162.703 34.524C162.839 34.812 162.907 35.16 162.907 35.568V35.808H161.251C161.251 35.4 161.179 35.088 161.035 34.872C160.891 34.648 160.651 34.536 160.315 34.536C160.123 34.536 159.963 34.564 159.835 34.62C159.707 34.676 159.603 34.752 159.523 34.848C159.451 34.936 159.399 35.04 159.367 35.16C159.343 35.28 159.331 35.404 159.331 35.532C159.331 35.796 159.387 36.02 159.499 36.204C159.611 36.38 159.851 36.544 160.219 36.696L161.551 37.272C161.879 37.416 162.147 37.568 162.355 37.728C162.563 37.88 162.727 38.048 162.847 38.232C162.975 38.408 163.063 38.604 163.111 38.82C163.159 39.036 163.183 39.276 163.183 39.54C163.183 40.444 162.919 41.104 162.391 41.52C161.871 41.928 161.143 42.132 160.207 42.132C159.231 42.132 158.531 41.92 158.107 41.496C157.691 41.072 157.483 40.464 157.483 39.672V39.324H159.211ZM169.057 33.432V34.848H167.185V42H165.457V34.848H163.585V33.432H169.057ZM169.891 42V33.432H171.619V42H169.891ZM174.449 37.716C174.449 38.292 174.461 38.784 174.485 39.192C174.517 39.592 174.573 39.92 174.653 40.176C174.741 40.424 174.861 40.608 175.013 40.728C175.173 40.84 175.381 40.896 175.637 40.896C175.893 40.896 176.097 40.84 176.249 40.728C176.409 40.608 176.529 40.424 176.609 40.176C176.697 39.92 176.753 39.592 176.777 39.192C176.809 38.784 176.825 38.292 176.825 37.716C176.825 37.14 176.809 36.652 176.777 36.252C176.753 35.852 176.697 35.524 176.609 35.268C176.529 35.012 176.409 34.828 176.249 34.716C176.097 34.596 175.893 34.536 175.637 34.536C175.381 34.536 175.173 34.596 175.013 34.716C174.861 34.828 174.741 35.012 174.653 35.268C174.573 35.524 174.517 35.852 174.485 36.252C174.461 36.652 174.449 37.14 174.449 37.716ZM177.797 43.02L176.777 42C176.457 42.088 176.077 42.132 175.637 42.132C174.989 42.132 174.473 42.028 174.089 41.82C173.705 41.612 173.409 41.312 173.201 40.92C173.001 40.528 172.869 40.06 172.805 39.516C172.749 38.972 172.721 38.372 172.721 37.716C172.721 37.068 172.749 36.472 172.805 35.928C172.869 35.376 173.001 34.904 173.201 34.512C173.409 34.12 173.705 33.816 174.089 33.6C174.473 33.376 174.989 33.264 175.637 33.264C176.285 33.264 176.801 33.376 177.185 33.6C177.569 33.816 177.861 34.12 178.061 34.512C178.269 34.904 178.401 35.376 178.457 35.928C178.521 36.472 178.553 37.068 178.553 37.716C178.553 38.444 178.513 39.104 178.433 39.696C178.353 40.288 178.173 40.788 177.893 41.196L178.817 42.096L177.797 43.02ZM181.189 33.432V39.408C181.189 39.624 181.201 39.824 181.225 40.008C181.257 40.184 181.309 40.34 181.381 40.476C181.461 40.604 181.565 40.708 181.693 40.788C181.829 40.86 181.997 40.896 182.197 40.896C182.405 40.896 182.573 40.86 182.701 40.788C182.829 40.708 182.929 40.604 183.001 40.476C183.081 40.34 183.133 40.184 183.157 40.008C183.189 39.824 183.205 39.624 183.205 39.408V33.432H184.933V39.408C184.933 39.952 184.857 40.404 184.705 40.764C184.553 41.116 184.349 41.396 184.093 41.604C183.837 41.812 183.545 41.952 183.217 42.024C182.889 42.096 182.549 42.132 182.197 42.132C181.845 42.132 181.505 42.1 181.177 42.036C180.849 41.972 180.557 41.844 180.301 41.652C180.045 41.452 179.841 41.172 179.689 40.812C179.537 40.452 179.461 39.984 179.461 39.408V33.432H181.189ZM190.814 33.432V34.848H187.754V36.864H190.634V38.28H187.754V40.584H190.934V42H186.026V33.432H190.814Z" fill="black"/>
<path fill-rule="evenodd" clip-rule="evenodd" d="M246.197 12.9917C245.489 12.7271 244.997 12.6406 244.67 12.6452C244.338 12.6499 244.233 12.7457 244.211 12.7697C244.191 12.7911 244.158 12.8426 244.156 12.9856C244.155 13.0935 244.173 13.2211 244.209 13.3514L248.625 17.6963H251.528C252.034 17.0728 253.172 15.8497 255.078 14.1794C255.602 13.7203 255.792 13.4037 255.848 13.2371C255.879 13.1441 255.868 13.1284 255.843 13.0951L255.839 13.0896C255.774 13.001 255.62 12.8791 255.352 12.7673C255.11 12.6663 254.831 12.5973 254.575 12.5601C254.389 12.5649 254.251 12.6081 254.006 12.6965L253.957 12.7142C253.87 12.7457 253.807 12.7781 253.743 12.811C253.611 12.8791 253.474 12.9492 253.116 13.0172C252.548 13.1251 252.141 13.1334 251.683 13.0237C251.386 12.9524 251.057 12.826 250.66 12.6733L250.66 12.6732L250.66 12.6732C250.522 12.6199 250.375 12.5634 250.218 12.505L250.215 12.5046C250.205 12.5034 250.171 12.4992 250.103 12.5017C250.005 12.5053 249.878 12.5207 249.721 12.5484C249.412 12.603 249.047 12.694 248.66 12.7904L248.637 12.7962C248.255 12.8913 247.848 12.9925 247.508 13.0468C247.338 13.0739 247.162 13.0935 246.999 13.0896C246.986 13.0893 246.969 13.0891 246.947 13.0889H246.947C246.777 13.0872 246.364 13.0832 246.197 12.9917ZM248.237 11.3164C247.706 11.4374 246.732 11.5442 246.732 11.5442C246.164 11.5236 245.749 11.4099 245.402 11.3145C245.125 11.2386 244.891 11.1743 244.654 11.1777C244.117 11.1852 243.651 11.3462 243.316 11.7135C242.98 12.0836 242.873 12.5579 242.868 12.9653C242.863 13.3667 242.954 13.7551 243.067 14.0649L243.126 14.2248L247.043 18.0789C245.564 18.4041 243.986 19.063 242.531 20.2082C239.761 22.3897 237.542 26.2534 237.227 32.6479C237.207 33.0641 237.184 33.4866 237.161 33.912C237.068 35.6616 236.972 37.462 237.008 39.0902C237.052 41.0844 237.292 43.0034 238.107 44.3151C239.572 46.6711 241.968 47.8112 244.268 48.348C246.56 48.883 248.85 48.8422 250.268 48.7579C251.563 48.7331 253.698 48.6558 255.887 48.1961C258.067 47.7382 260.413 46.8786 262.016 45.2058C263.305 43.8598 263.744 41.8774 263.878 39.7527C263.983 38.0805 263.904 36.1896 263.823 34.2644L263.823 34.2638C263.8 33.7301 263.778 33.1937 263.759 32.6587C263.548 26.6489 261.338 22.879 258.569 20.6473C256.772 19.1991 254.772 18.4248 253.001 18.0891C253.574 17.4656 254.506 16.5318 255.863 15.3427C256.456 14.8235 256.868 14.3043 257.051 13.7626C257.256 13.1522 257.144 12.5834 256.83 12.152C256.553 11.7717 256.15 11.5369 255.794 11.3889C255.425 11.2351 255.029 11.1428 254.687 11.097L254.649 11.092H254.611C254.197 11.092 253.898 11.1959 253.617 11.2976L253.57 11.3145C253.314 11.4071 253.037 11.5078 252.597 11.5912C252.212 11.6645 252.189 11.6582 252.042 11.6184L252.042 11.6184C252.013 11.6105 251.98 11.6013 251.937 11.5912C251.72 11.539 251.496 11.4529 251.141 11.3164C251.127 11.311 251.103 11.2985 251.069 11.2814C250.905 11.1967 250.523 11 250.086 11C249.442 11 248.825 11.163 248.453 11.2614L248.453 11.2614L248.453 11.2615L248.453 11.2615C248.367 11.2841 248.295 11.3034 248.237 11.3164ZM243.478 21.4108C241.129 23.2603 239.054 26.6676 238.756 32.7231C238.735 33.1559 238.712 33.5897 238.689 34.0222C238.596 35.7668 238.504 37.492 238.538 39.0565C238.582 41.0386 238.83 42.5793 239.407 43.5068C240.575 45.3858 242.528 46.37 244.616 46.8573C246.702 47.3443 248.827 47.3108 250.192 47.2289L250.207 47.228L250.223 47.2277C251.495 47.2037 253.521 47.1289 255.572 46.6981C257.641 46.2636 259.624 45.489 260.91 44.1468C261.806 43.2119 262.221 41.7042 262.35 39.6564C262.45 38.0726 262.375 36.2919 262.295 34.3813C262.272 33.835 262.249 33.2782 262.229 32.7124C262.032 27.0884 259.989 23.7575 257.609 21.8391C255.802 20.3832 253.757 19.7053 252.07 19.4905C253.467 20.9563 255.051 22.4306 255.916 22.9628L255.114 24.2664C254.751 23.9038 254.206 23.4291 253.577 22.8815L253.577 22.8815C252.672 22.0929 251.593 21.1533 250.636 20.1804C250.589 20.8038 250.548 21.5006 250.531 22.1621C250.516 22.7319 250.52 23.2613 250.55 23.6891C250.565 23.9031 250.586 24.0802 250.611 24.218C250.624 24.2864 250.636 24.3394 250.648 24.3787C250.659 24.4162 250.666 24.4328 250.667 24.4343L250.777 25.0318L249.298 25.119C249.12 24.7626 249.055 24.2519 249.023 23.7962C248.988 23.2997 248.985 22.7161 249.001 22.123C249.013 21.6509 249.036 21.1638 249.066 20.6965C247.822 21.8971 246.513 22.9378 245.548 23.7056L245.547 23.7058L245.547 23.7061C245.412 23.8133 245.284 23.9151 245.164 24.0113L244.362 22.7076C245.212 22.115 246.785 20.8255 248.179 19.4313C246.695 19.6286 245.007 20.2073 243.478 21.4108Z" fill="white"/>
</g>
<defs>
<clipPath id="clip0_79_164">
<rect width="280" height="61" fill="white"/>
</clipPath>
</defs>
</svg>
