<svg width="292" height="61" viewBox="0 0 292 61" fill="none" xmlns="http://www.w3.org/2000/svg">
<g clip-path="url(#clip0_79_1798)">
<path d="M24.6979 60.4688C11.0781 60.4688 0 49.5208 0 36.0625V0H266.948C280.563 0 291.641 10.9479 291.641 24.4062V60.4688" fill="white"/>
<path d="M244.083 52.9113H69.1353C59.6874 52.9113 51.9999 45.354 51.9999 36.0623V7.55713H226.948C236.396 7.55713 244.083 15.1144 244.083 24.4061V52.9113ZM227 5.99988L50.1667 5.6665L50.1145 36.0623C50.1145 46.3957 58.6458 54.8019 69.1353 54.8019L245.969 54.9999V24.4061C245.969 14.0728 237.49 5.99988 227 5.99988Z" fill="#010101"/>
<path d="M102.901 5.6665H50.1145V36.0623C50.1145 46.3957 58.6458 54.8019 69.1353 54.8019H121.927V24.4061C121.927 14.0728 113.391 5.6665 102.901 5.6665Z" fill="#010101"/>
<path d="M63.651 29.3594C58.8489 29.3594 54.9583 33.25 54.9583 38.0521C54.9583 42.8542 58.8489 46.7448 63.651 46.7448C68.4583 46.7448 72.3489 42.8542 72.3489 38.0521C72.3489 33.25 68.4583 29.3594 63.651 29.3594Z" fill="white"/>
<path d="M69.3229 39.4687H65.0729V43.7187H62.2344V39.4687H57.9844V36.6353H62.2344V32.3801H65.0729V36.6353H69.3229" fill="#1C1C1B"/>
<path d="M55.7864 26.5936V17.1978H58.2708V24.5155H61.828V26.5936" fill="white"/>
<path d="M62.9426 26.5936V17.1978H69.0155V19.2759H65.4322V20.755H68.4947V22.8384H65.4322V24.5155H69.1614V26.5936" fill="white"/>
<path d="M75.0885 26.5936V19.2759H72.6041V17.1978H80.0677V19.2759H77.5781V26.5936" fill="white"/>
<path d="M83.5521 21.4738H84.4479C85.4479 21.4738 85.9531 21.0623 85.9531 20.2342C85.9531 19.828 85.8229 19.5467 85.5677 19.3957C85.3125 19.2394 84.9375 19.1613 84.4479 19.1613H83.5521V21.4738ZM81.0625 26.5988V17.1978H84.6198C85.125 17.1978 85.6042 17.2446 86.0625 17.3384C86.5208 17.4373 86.9167 17.5988 87.2604 17.8332C87.6042 18.0623 87.875 18.3748 88.0781 18.7655C88.2813 19.1561 88.3802 19.6457 88.3802 20.2342C88.3802 20.9061 88.2448 21.4686 87.9688 21.9113C87.6979 22.354 87.3281 22.6978 86.8646 22.953L88.901 26.5988H86.125L84.5052 23.4425H83.5521V26.5988" fill="white"/>
<path d="M89.8698 26.5988H92.3593V17.1978H89.8698V26.5988Z" fill="white"/>
<path d="M75.3801 43.2759V33.8696H81.5103V35.953H77.8697V37.7498H80.9895V39.8332H77.8697V43.2759" fill="white"/>
<path d="M84.9218 38.703L84.7604 39.354H86.4948L86.3385 38.703C86.2239 38.2498 86.1041 37.7603 85.9895 37.229C85.875 36.6978 85.7604 36.1978 85.6406 35.7238H85.5833C85.4791 36.203 85.3698 36.7082 85.2604 37.2342C85.151 37.7603 85.0364 38.2498 84.9218 38.703ZM81.3073 43.2759L84.1666 33.8696H87.1718L90.0364 43.2759H87.4062L86.9427 41.2759H84.3125L83.8489 43.2759" fill="white"/>
<path d="M94.5624 43.4478C93.9687 43.4478 93.3958 43.3488 92.8541 43.1509C92.3072 42.953 91.8333 42.6509 91.4218 42.255C91.0103 41.854 90.6822 41.354 90.4426 40.7498C90.203 40.1457 90.0833 39.4478 90.0833 38.6457C90.0833 37.854 90.2083 37.1509 90.4583 36.5415C90.7083 35.9269 91.0416 35.4113 91.4635 34.9946C91.8801 34.5728 92.3645 34.2498 92.9114 34.0311C93.4583 33.8071 94.026 33.6978 94.6249 33.6978C95.2499 33.6978 95.8124 33.8228 96.302 34.0675C96.7968 34.3123 97.2083 34.604 97.5468 34.9425L96.2447 36.5311C96.0155 36.3332 95.776 36.1665 95.5312 36.0311C95.2812 35.9061 94.9999 35.8384 94.6822 35.8384C94.401 35.8384 94.1405 35.9009 93.8958 36.0259C93.651 36.1509 93.4322 36.3332 93.2447 36.5623C93.0572 36.7915 92.9062 37.078 92.7968 37.4165C92.6822 37.7498 92.6301 38.1353 92.6301 38.5571C92.6301 39.4478 92.8124 40.1248 93.1874 40.5988C93.5572 41.0675 94.0468 41.3071 94.651 41.3071C95.0208 41.3071 95.3437 41.229 95.6301 41.0675C95.9114 40.9061 96.1562 40.7186 96.3593 40.4946L97.6614 42.0571C97.2551 42.5207 96.7916 42.8696 96.2655 43.0988C95.7395 43.3332 95.1718 43.4478 94.5624 43.4478Z" fill="white"/>
<path d="M98.6198 43.2759H101.104V33.8696H98.6198V43.2759Z" fill="white"/>
<path d="M102.875 43.2759V33.8696H105.365V41.1925H108.922V43.2759" fill="white"/>
<path d="M110.031 43.2759V33.8696H116.109V35.953H112.521V37.4321H115.589V39.5155H112.521V41.1925H116.255V43.2759" fill="white"/>
<path fill-rule="evenodd" clip-rule="evenodd" d="M16.2604 29.1925C16.2604 29.1925 15.9115 29.1509 15.6771 29.7967L13.5573 35.7082C15.224 37.1196 17.1823 38.1821 19.3281 38.8071L16.7552 29.7707C16.5781 29.1248 16.2604 29.1925 16.2604 29.1925ZM5.67188 23.6978C5.67188 13.755 13.7604 5.6665 23.7031 5.6665C28.9635 5.6665 33.7083 7.93213 37.0052 11.5363L35.3906 13.1769C32.5104 9.979 28.3385 7.96338 23.7031 7.96338C15.026 7.96338 7.96875 15.0207 7.96875 23.6978C7.96875 27.5207 9.34375 31.0311 11.6198 33.7603L14.2656 20.7967C14.7396 18.5103 16.8854 16.755 19.0521 17.1561C20.6406 17.4582 28.0938 22.3957 28.0938 22.3957C28.7292 22.8019 28.375 23.3488 28.375 23.3488C28.375 23.3488 28.0729 23.8748 27.4479 23.604L21.9792 21.4061C21.0052 20.9946 19.4323 21.4321 19.6667 24.1873L21.3802 38.7863L21.4531 39.2655C22.1875 39.3748 22.9375 39.4321 23.7031 39.4321C24.1875 39.4321 24.6719 39.4009 25.1458 39.354L25.0052 37.453L28.6979 40.2707L25.3958 43.4634L25.276 41.6509C24.7552 41.6978 24.2344 41.729 23.7031 41.729C13.7604 41.729 5.67188 33.6405 5.67188 23.6978ZM19.9375 16.4113C18.4167 16.4113 17.1875 15.1822 17.1875 13.6561C17.1875 12.1353 18.4167 10.9061 19.9375 10.9061C21.4583 10.9061 22.6927 12.1353 22.6927 13.6561C22.6927 15.1822 21.4583 16.4113 19.9375 16.4113ZM37.1046 24.5639C37.7365 24.0542 39.7005 22.4701 40.1613 19.1925L40.2342 18.1821L42.0519 18.2863L38.0259 12.854L33.2134 17.6925L34.979 17.7655L34.9998 17.7707C35.0415 17.9686 35.2446 19.2655 34.5571 21.3175C33.7967 23.604 31.4373 26.2915 28.4634 25.8175C32.6457 27.5675 36.0311 25.4373 37.0936 24.5728L37.1046 24.5639ZM28.375 25.8488C29.5781 28.6092 33.1146 29.1405 35.4479 28.5519C37.5208 28.0259 38.5052 27.1717 38.6719 27.0155L38.6615 26.9998L37.776 25.4634L44.4427 26.9217L42.0312 33.2394L41.1354 31.6457L40.2656 32.1196C37.2654 33.4984 34.8744 32.7063 34.0978 32.4491L34.0781 32.4425C32.7812 32.0155 29.1562 30.3123 28.375 25.8488ZM28.4062 25.7446C26.7135 28.2342 28.151 31.5103 29.8958 33.1717C31.4895 34.6821 32.7655 35.0363 32.9322 35.078L33.7447 33.5207L36.0885 39.9321L29.4635 41.2811L30.3437 39.6457L29.4478 39.1457C26.6887 37.3492 26.0817 34.9167 25.8818 34.116L25.8749 34.0884C25.5416 32.7603 25.0468 28.7863 28.4062 25.7446Z" fill="#010101"/>
<path d="M130.884 18.432L132.096 24.768H132.132L133.404 18.432H135.192L133.224 27H131.004L129.036 18.432H130.884ZM140.611 18.432V19.848H137.551V21.864H140.431V23.28H137.551V25.584H140.731V27H135.823V18.432H140.611ZM141.6 18.432H144.792C145.512 18.432 146.072 18.616 146.472 18.984C146.872 19.344 147.072 19.896 147.072 20.64C147.072 21.216 146.956 21.688 146.724 22.056C146.492 22.416 146.132 22.648 145.644 22.752V22.776C146.076 22.84 146.392 22.98 146.592 23.196C146.792 23.412 146.916 23.76 146.964 24.24C146.98 24.4 146.992 24.576 147 24.768C147.008 24.952 147.016 25.16 147.024 25.392C147.04 25.848 147.064 26.196 147.096 26.436C147.144 26.676 147.248 26.84 147.408 26.928V27H145.536C145.448 26.88 145.392 26.744 145.368 26.592C145.344 26.432 145.328 26.268 145.32 26.1L145.272 24.456C145.256 24.12 145.172 23.856 145.02 23.664C144.868 23.472 144.612 23.376 144.252 23.376H143.328V27H141.6V18.432ZM143.328 22.176H144.048C144.464 22.176 144.784 22.08 145.008 21.888C145.232 21.688 145.344 21.356 145.344 20.892C145.344 20.1 144.944 19.704 144.144 19.704H143.328V22.176ZM148.268 18.432H151.46C152.18 18.432 152.74 18.616 153.14 18.984C153.54 19.344 153.74 19.896 153.74 20.64C153.74 21.216 153.624 21.688 153.392 22.056C153.16 22.416 152.8 22.648 152.312 22.752V22.776C152.744 22.84 153.06 22.98 153.26 23.196C153.46 23.412 153.584 23.76 153.632 24.24C153.648 24.4 153.66 24.576 153.668 24.768C153.676 24.952 153.684 25.16 153.692 25.392C153.708 25.848 153.732 26.196 153.764 26.436C153.812 26.676 153.916 26.84 154.076 26.928V27H152.204C152.116 26.88 152.06 26.744 152.036 26.592C152.012 26.432 151.996 26.268 151.988 26.1L151.94 24.456C151.924 24.12 151.84 23.856 151.688 23.664C151.536 23.472 151.28 23.376 150.92 23.376H149.996V27H148.268V18.432ZM149.996 22.176H150.716C151.132 22.176 151.452 22.08 151.676 21.888C151.9 21.688 152.012 21.356 152.012 20.892C152.012 20.1 151.612 19.704 150.812 19.704H149.996V22.176ZM159.724 18.432V19.848H156.664V21.864H159.544V23.28H156.664V25.584H159.844V27H154.936V18.432H159.724ZM131.988 32.928L130.812 31.2H132.468L133.116 32.928H131.988ZM131.496 38.772H133.176L132.348 34.92H132.324L131.496 38.772ZM131.268 33.432H133.404L135.672 42H133.872L133.476 40.188H131.196L130.8 42H129L131.268 33.432ZM140.879 40.728H141.551C141.967 40.728 142.303 40.636 142.559 40.452C142.815 40.268 142.943 39.928 142.943 39.432C142.943 39.184 142.907 38.98 142.835 38.82C142.771 38.652 142.679 38.52 142.559 38.424C142.447 38.32 142.311 38.248 142.151 38.208C141.991 38.168 141.815 38.148 141.623 38.148H140.879V40.728ZM140.879 36.948H141.371C141.851 36.948 142.199 36.864 142.415 36.696C142.639 36.52 142.751 36.228 142.751 35.82C142.751 35.412 142.651 35.124 142.451 34.956C142.251 34.788 141.935 34.704 141.503 34.704H140.879V36.948ZM139.151 33.432H142.043C142.395 33.432 142.719 33.468 143.015 33.54C143.319 33.612 143.579 33.732 143.795 33.9C144.011 34.068 144.179 34.292 144.299 34.572C144.419 34.852 144.479 35.196 144.479 35.604C144.479 36.068 144.371 36.468 144.155 36.804C143.939 37.132 143.615 37.356 143.183 37.476V37.5C143.663 37.564 144.043 37.768 144.323 38.112C144.603 38.456 144.743 38.916 144.743 39.492C144.743 39.828 144.699 40.148 144.611 40.452C144.523 40.756 144.371 41.024 144.155 41.256C143.947 41.48 143.671 41.66 143.327 41.796C142.991 41.932 142.571 42 142.067 42H139.151V33.432ZM147.367 37.716C147.367 38.292 147.379 38.784 147.403 39.192C147.435 39.592 147.491 39.92 147.571 40.176C147.659 40.424 147.779 40.608 147.931 40.728C148.091 40.84 148.299 40.896 148.555 40.896C148.811 40.896 149.015 40.84 149.167 40.728C149.327 40.608 149.447 40.424 149.527 40.176C149.615 39.92 149.671 39.592 149.695 39.192C149.727 38.784 149.743 38.292 149.743 37.716C149.743 37.14 149.727 36.652 149.695 36.252C149.671 35.852 149.615 35.524 149.527 35.268C149.447 35.012 149.327 34.828 149.167 34.716C149.015 34.596 148.811 34.536 148.555 34.536C148.299 34.536 148.091 34.596 147.931 34.716C147.779 34.828 147.659 35.012 147.571 35.268C147.491 35.524 147.435 35.852 147.403 36.252C147.379 36.652 147.367 37.14 147.367 37.716ZM145.639 37.716C145.639 37.068 145.667 36.472 145.723 35.928C145.787 35.376 145.919 34.904 146.119 34.512C146.327 34.12 146.623 33.816 147.007 33.6C147.391 33.376 147.907 33.264 148.555 33.264C149.203 33.264 149.719 33.376 150.103 33.6C150.487 33.816 150.779 34.12 150.979 34.512C151.187 34.904 151.319 35.376 151.375 35.928C151.439 36.472 151.471 37.068 151.471 37.716C151.471 38.372 151.439 38.972 151.375 39.516C151.319 40.06 151.187 40.528 150.979 40.92C150.779 41.312 150.487 41.612 150.103 41.82C149.719 42.028 149.203 42.132 148.555 42.132C147.907 42.132 147.391 42.028 147.007 41.82C146.623 41.612 146.327 41.312 146.119 40.92C145.919 40.528 145.787 40.06 145.723 39.516C145.667 38.972 145.639 38.372 145.639 37.716ZM152.571 42V33.432H154.299V42H152.571ZM155.58 33.432H158.772C159.492 33.432 160.052 33.616 160.452 33.984C160.852 34.344 161.052 34.896 161.052 35.64C161.052 36.216 160.936 36.688 160.704 37.056C160.472 37.416 160.112 37.648 159.624 37.752V37.776C160.056 37.84 160.372 37.98 160.572 38.196C160.772 38.412 160.896 38.76 160.944 39.24C160.96 39.4 160.972 39.576 160.98 39.768C160.988 39.952 160.996 40.16 161.004 40.392C161.02 40.848 161.044 41.196 161.076 41.436C161.124 41.676 161.228 41.84 161.388 41.928V42H159.516C159.428 41.88 159.372 41.744 159.348 41.592C159.324 41.432 159.308 41.268 159.3 41.1L159.252 39.456C159.236 39.12 159.152 38.856 159 38.664C158.848 38.472 158.592 38.376 158.232 38.376H157.308V42H155.58V33.432ZM157.308 37.176H158.028C158.444 37.176 158.764 37.08 158.988 36.888C159.212 36.688 159.324 36.356 159.324 35.892C159.324 35.1 158.924 34.704 158.124 34.704H157.308V37.176ZM167.036 33.432V34.848H163.976V36.864H166.856V38.28H163.976V40.584H167.156V42H162.248V33.432H167.036Z" fill="black"/>
<path d="M171 6H197V55H190H171L184.5 28.5L171 6Z" fill="#010101"/>
<path d="M197 6H268C277.941 6 286 14.0589 286 24V55H197V6Z" fill="black"/>
<rect x="197" y="8" width="31" height="31" fill="black"/>
<path fill-rule="evenodd" clip-rule="evenodd" d="M210.109 14.1063C209.715 13.9593 209.442 13.9112 209.26 13.9138C209.076 13.9164 209.017 13.9696 209.005 13.983C208.994 13.9948 208.976 14.0235 208.975 14.1029C208.974 14.1628 208.984 14.2337 209.004 14.3061L211.457 16.7194H213.07C213.35 16.3731 213.982 15.6937 215.041 14.766C215.332 14.5109 215.438 14.3351 215.469 14.2426C215.486 14.1909 215.48 14.1822 215.466 14.1637L215.464 14.1606C215.428 14.1114 215.342 14.0437 215.193 13.9816C215.059 13.9255 214.904 13.8872 214.762 13.8665C214.659 13.8692 214.582 13.8932 214.446 13.9423L214.419 13.9521C214.371 13.9696 214.335 13.9876 214.3 14.0059C214.226 14.0437 214.15 14.0826 213.951 14.1204C213.636 14.1804 213.41 14.185 213.155 14.124C212.99 14.0845 212.808 14.0142 212.587 13.9294C212.511 13.8998 212.429 13.8684 212.342 13.8359L212.34 13.8357C212.335 13.835 212.315 13.8327 212.278 13.8341C212.224 13.8361 212.153 13.8447 212.066 13.86C211.894 13.8904 211.691 13.9409 211.477 13.9945L211.464 13.9977C211.252 14.0505 211.026 14.1067 210.837 14.1369C210.742 14.1519 210.644 14.1628 210.554 14.1606L210.525 14.1602C210.431 14.1593 210.201 14.1571 210.109 14.1063ZM211.242 13.1757C210.947 13.2429 210.406 13.3023 210.406 13.3023C210.09 13.2908 209.86 13.2277 209.667 13.1747C209.513 13.1326 209.383 13.0968 209.251 13.0987C208.953 13.1029 208.694 13.1923 208.508 13.3963C208.321 13.6018 208.262 13.8653 208.259 14.0916C208.257 14.3145 208.307 14.5303 208.37 14.7023L208.402 14.7912L210.578 16.9319C209.757 17.1125 208.88 17.4785 208.072 18.1145C206.533 19.3262 205.301 21.4723 205.126 25.024C205.115 25.2552 205.102 25.4899 205.09 25.7262C205.038 26.698 204.984 27.698 205.004 28.6023C205.029 29.71 205.162 30.7759 205.615 31.5044C206.429 32.813 207.76 33.4463 209.037 33.7444C210.31 34.0416 211.582 34.019 212.369 33.9721C213.089 33.9584 214.275 33.9154 215.49 33.6601C216.701 33.4057 218.004 32.9283 218.895 31.9992C219.611 31.2516 219.855 30.1504 219.929 28.9703C219.987 28.0415 219.943 26.9912 219.898 25.9219L219.898 25.9218L219.898 25.9216C219.886 25.6252 219.873 25.3272 219.863 25.03C219.746 21.692 218.518 19.598 216.98 18.3585C215.982 17.5541 214.871 17.124 213.887 16.9376C214.206 16.5912 214.724 16.0726 215.477 15.4121C215.806 15.1237 216.036 14.8353 216.137 14.5344C216.251 14.1954 216.189 13.8795 216.014 13.6398C215.86 13.4286 215.636 13.2982 215.439 13.216C215.234 13.1306 215.014 13.0793 214.824 13.0539L214.803 13.0511H214.782C214.552 13.0511 214.386 13.1088 214.23 13.1653L214.204 13.1747C214.062 13.2261 213.907 13.282 213.663 13.3284C213.449 13.3691 213.436 13.3656 213.355 13.3435L213.355 13.3435L213.355 13.3435C213.339 13.3391 213.32 13.334 213.297 13.3284C213.176 13.2994 213.051 13.2515 212.854 13.1757C212.847 13.1727 212.833 13.1658 212.815 13.1563C212.723 13.1093 212.511 13 212.269 13C211.911 13 211.568 13.0906 211.362 13.1452C211.314 13.1578 211.273 13.1685 211.242 13.1757ZM208.598 18.7826C207.294 19.8098 206.141 21.7024 205.975 25.0658C205.964 25.3062 205.951 25.5471 205.938 25.7873L205.938 25.7873L205.938 25.7874C205.886 26.7564 205.835 27.7147 205.854 28.5836C205.879 29.6845 206.017 30.5403 206.337 31.0555C206.986 32.0991 208.071 32.6458 209.23 32.9165C210.389 33.1869 211.569 33.1684 212.327 33.1229L212.336 33.1224L212.345 33.1222C213.051 33.1089 214.176 33.0673 215.316 32.828C216.465 32.5867 217.566 32.1565 218.281 31.411C218.778 30.8917 219.009 30.0543 219.08 28.9168C219.136 28.0371 219.094 27.048 219.05 25.9868L219.05 25.9866C219.037 25.6833 219.024 25.3741 219.013 25.0598C218.903 21.9361 217.769 20.0859 216.447 19.0204C215.443 18.2117 214.307 17.8352 213.37 17.7159C214.146 18.5301 215.026 19.349 215.507 19.6446L215.061 20.3687C214.86 20.1673 214.557 19.9036 214.208 19.5994L214.208 19.5994C213.705 19.1614 213.106 18.6395 212.574 18.0991C212.548 18.4454 212.525 18.8325 212.515 19.1999C212.507 19.5164 212.509 19.8104 212.526 20.048C212.534 20.1669 212.546 20.2653 212.56 20.3418C212.567 20.3798 212.574 20.4092 212.581 20.4311C212.587 20.4519 212.591 20.4611 212.591 20.462L212.652 20.7938L211.831 20.8422C211.732 20.6443 211.696 20.3607 211.678 20.1075C211.659 19.8317 211.657 19.5076 211.666 19.1781C211.672 18.9159 211.685 18.6454 211.702 18.3858C211.011 19.0527 210.284 19.6307 209.748 20.0572C209.673 20.1168 209.601 20.1734 209.535 20.227L209.089 19.5029C209.561 19.1737 210.435 18.4574 211.209 17.6831C210.385 17.7926 209.447 18.1141 208.598 18.7826Z" fill="white"/>
<path d="M202.263 43.1H203.397C203.78 43.1 204.067 43.2027 204.258 43.408C204.449 43.6133 204.545 43.9143 204.545 44.311V44.794C204.545 45.1907 204.449 45.4917 204.258 45.697C204.067 45.9023 203.78 46.005 203.397 46.005H203.033V48H202.263V43.1ZM203.397 45.305C203.523 45.305 203.616 45.27 203.677 45.2C203.742 45.13 203.775 45.011 203.775 44.843V44.262C203.775 44.094 203.742 43.975 203.677 43.905C203.616 43.835 203.523 43.8 203.397 43.8H203.033V45.305H203.397ZM206.076 48.07C205.698 48.07 205.409 47.9627 205.208 47.748C205.008 47.5333 204.907 47.23 204.907 46.838V44.262C204.907 43.87 205.008 43.5667 205.208 43.352C205.409 43.1373 205.698 43.03 206.076 43.03C206.454 43.03 206.744 43.1373 206.944 43.352C207.145 43.5667 207.245 43.87 207.245 44.262V46.838C207.245 47.23 207.145 47.5333 206.944 47.748C206.744 47.9627 206.454 48.07 206.076 48.07ZM206.076 47.37C206.342 47.37 206.475 47.209 206.475 46.887V44.213C206.475 43.891 206.342 43.73 206.076 43.73C205.81 43.73 205.677 43.891 205.677 44.213V46.887C205.677 47.209 205.81 47.37 206.076 47.37ZM208.886 48.07C208.513 48.07 208.228 47.965 208.032 47.755C207.836 47.5403 207.738 47.2347 207.738 46.838V43.1H208.508V46.894C208.508 47.062 208.541 47.1833 208.606 47.258C208.676 47.3327 208.774 47.37 208.9 47.37C209.026 47.37 209.122 47.3327 209.187 47.258C209.257 47.1833 209.292 47.062 209.292 46.894V43.1H210.034V46.838C210.034 47.2347 209.936 47.5403 209.74 47.755C209.544 47.965 209.259 48.07 208.886 48.07ZM210.582 43.1H211.744C212.141 43.1 212.43 43.1933 212.612 43.38C212.794 43.562 212.885 43.8443 212.885 44.227V44.423C212.885 44.675 212.843 44.8803 212.759 45.039C212.68 45.1977 212.556 45.312 212.388 45.382V45.396C212.771 45.5267 212.962 45.8673 212.962 46.418V46.838C212.962 47.216 212.862 47.5053 212.661 47.706C212.465 47.902 212.176 48 211.793 48H210.582V43.1ZM211.653 45.095C211.807 45.095 211.922 45.0553 211.996 44.976C212.076 44.8967 212.115 44.7637 212.115 44.577V44.304C212.115 44.1267 212.083 43.9983 212.017 43.919C211.957 43.8397 211.859 43.8 211.723 43.8H211.352V45.095H211.653ZM211.793 47.3C211.929 47.3 212.029 47.265 212.094 47.195C212.16 47.1203 212.192 46.9943 212.192 46.817V46.39C212.192 46.166 212.153 46.012 212.073 45.928C211.999 45.8393 211.873 45.795 211.695 45.795H211.352V47.3H211.793ZM213.412 43.1H215.512V43.8H214.182V45.095H215.239V45.795H214.182V47.3H215.512V48H213.412V43.1ZM215.955 43.1H216.725V47.3H217.992V48H215.955V43.1ZM218.362 43.1H219.132V47.3H220.399V48H218.362V43.1ZM220.768 43.1H222.868V43.8H221.538V45.095H222.595V45.795H221.538V47.3H222.868V48H220.768V43.1Z" fill="white"/>
<path d="M235.59 31.07C235.212 31.07 234.923 30.9627 234.722 30.748C234.522 30.5333 234.421 30.23 234.421 29.838V27.262C234.421 26.87 234.522 26.5667 234.722 26.352C234.923 26.1373 235.212 26.03 235.59 26.03C235.968 26.03 236.258 26.1373 236.458 26.352C236.659 26.5667 236.759 26.87 236.759 27.262V29.838C236.759 30.23 236.659 30.5333 236.458 30.748C236.258 30.9627 235.968 31.07 235.59 31.07ZM235.59 30.37C235.856 30.37 235.989 30.209 235.989 29.887V27.213C235.989 26.891 235.856 26.73 235.59 26.73C235.324 26.73 235.191 26.891 235.191 27.213V29.887C235.191 30.209 235.324 30.37 235.59 30.37ZM238.4 31.07C238.027 31.07 237.742 30.965 237.546 30.755C237.35 30.5403 237.252 30.2347 237.252 29.838V26.1H238.022V29.894C238.022 30.062 238.055 30.1833 238.12 30.258C238.19 30.3327 238.288 30.37 238.414 30.37C238.54 30.37 238.636 30.3327 238.701 30.258C238.771 30.1833 238.806 30.062 238.806 29.894V26.1H239.548V29.838C239.548 30.2347 239.45 30.5403 239.254 30.755C239.058 30.965 238.773 31.07 238.4 31.07Z" fill="white"/>
<path d="M246 8H276C276.552 8 277 8.44772 277 9V39H246V8Z" fill="black"/>
<path d="M249.11 43.1H250.286C250.668 43.1 250.955 43.2027 251.147 43.408C251.338 43.6133 251.434 43.9143 251.434 44.311V46.789C251.434 47.1857 251.338 47.4867 251.147 47.692C250.955 47.8973 250.668 48 250.286 48H249.11V43.1ZM250.272 47.3C250.398 47.3 250.493 47.2627 250.559 47.188C250.629 47.1133 250.664 46.992 250.664 46.824V44.276C250.664 44.108 250.629 43.9867 250.559 43.912C250.493 43.8373 250.398 43.8 250.272 43.8H249.88V47.3H250.272ZM251.954 43.1H254.054V43.8H252.724V45.095H253.781V45.795H252.724V47.3H254.054V48H251.954V43.1ZM253.074 41.966H253.914L253.165 42.771H252.584L253.074 41.966ZM255.581 48.07C255.213 48.07 254.93 47.965 254.734 47.755C254.543 47.545 254.447 47.2487 254.447 46.866V44.234C254.447 43.8513 254.543 43.555 254.734 43.345C254.93 43.135 255.213 43.03 255.581 43.03C255.95 43.03 256.23 43.135 256.421 43.345C256.617 43.555 256.715 43.8513 256.715 44.234V44.752H255.987V44.185C255.987 43.8817 255.859 43.73 255.602 43.73C255.346 43.73 255.217 43.8817 255.217 44.185V46.922C255.217 47.2207 255.346 47.37 255.602 47.37C255.859 47.37 255.987 47.2207 255.987 46.922V46.173H256.715V46.866C256.715 47.2487 256.617 47.545 256.421 47.755C256.23 47.965 255.95 48.07 255.581 48.07ZM257.176 43.1H257.946V45.095H258.772V43.1H259.542V48H258.772V45.795H257.946V48H257.176V43.1ZM260.116 43.1H262.216V43.8H260.886V45.095H261.943V45.795H260.886V47.3H262.216V48H260.116V43.1ZM260.256 41.966H261.096L261.586 42.771H261.005L260.256 41.966ZM263.261 43.8H262.456V43.1H264.836V43.8H264.031V48H263.261V43.8ZM265.208 43.1H267.308V43.8H265.978V45.095H267.035V45.795H265.978V47.3H267.308V48H265.208V43.1ZM267.751 43.1H268.892C269.289 43.1 269.578 43.1933 269.76 43.38C269.942 43.562 270.033 43.8443 270.033 44.227V44.528C270.033 45.0367 269.865 45.3587 269.529 45.494V45.508C269.716 45.564 269.847 45.6783 269.921 45.851C270.001 46.0237 270.04 46.2547 270.04 46.544V47.405C270.04 47.545 270.045 47.6593 270.054 47.748C270.064 47.832 270.087 47.916 270.124 48H269.34C269.312 47.9207 269.294 47.846 269.284 47.776C269.275 47.706 269.27 47.58 269.27 47.398V46.502C269.27 46.278 269.233 46.1217 269.158 46.033C269.088 45.9443 268.965 45.9 268.787 45.9H268.521V48H267.751V43.1ZM268.801 45.2C268.955 45.2 269.07 45.1603 269.144 45.081C269.224 45.0017 269.263 44.8687 269.263 44.682V44.304C269.263 44.1267 269.231 43.9983 269.165 43.919C269.105 43.8397 269.007 43.8 268.871 43.8H268.521V45.2H268.801ZM270.575 43.1H271.345V48H270.575V43.1ZM271.921 43.1H274.021V43.8H272.691V45.095H273.748V45.795H272.691V47.3H274.021V48H271.921V43.1Z" fill="white"/>
<path d="M255.988 32.4392L251.474 32.4343C251.217 32.4343 251.005 32.2269 251.005 31.9701L251 27.4807C251 27.2931 251.114 27.1202 251.291 27.0511C251.464 26.977 251.667 27.0165 251.8 27.1498L252.684 28.0289L260.29 20.4578C260.473 20.28 260.769 20.28 260.952 20.4578L263.046 22.542C263.135 22.6309 263.184 22.7445 263.184 22.8729C263.184 22.9963 263.135 23.1149 263.046 23.2038L255.44 30.765L256.319 31.6441C256.452 31.7774 256.492 31.9799 256.418 32.1528C256.349 32.3257 256.176 32.4392 255.988 32.4392ZM251.943 31.5009L254.852 31.5058L254.442 31.0959C254.26 30.9132 254.26 30.6168 254.442 30.4341L262.048 22.8729L260.621 21.4505L253.015 29.0167C252.832 29.1994 252.536 29.1994 252.353 29.0167L251.938 28.6117" fill="white"/>
<path d="M265.54 25.673C265.179 25.673 264.833 25.5347 264.567 25.2878C264.29 25.031 264.132 24.6803 264.117 24.3001L264.048 22.1517L264.987 22.1221L265.056 24.2704C265.061 24.3988 265.115 24.5174 265.209 24.6063C265.303 24.6952 265.436 24.7297 265.559 24.7396C265.688 24.7347 265.806 24.6803 265.895 24.5865C265.984 24.4927 266.029 24.3692 266.024 24.2408L265.92 21.3763L266.858 21.3467L266.962 24.2062C266.977 24.5865 266.844 24.947 266.582 25.2236C266.32 25.5002 265.969 25.6582 265.589 25.6681C265.569 25.673 265.555 25.673 265.54 25.673Z" fill="white"/>
<path d="M265.54 25.673C265.179 25.673 264.833 25.5347 264.567 25.2878C264.29 25.031 264.132 24.6803 264.117 24.3001L264.048 22.1517L264.987 22.1221L265.056 24.2704C265.061 24.3988 265.115 24.5174 265.209 24.6063C265.303 24.6952 265.436 24.7297 265.559 24.7396C265.688 24.7347 265.806 24.6803 265.895 24.5865C265.984 24.4927 266.029 24.3692 266.024 24.2408L265.92 21.3763L266.858 21.3467L266.962 24.2062C266.977 24.5865 266.844 24.947 266.582 25.2236C266.32 25.5002 265.969 25.6582 265.589 25.6681C265.569 25.673 265.555 25.673 265.54 25.673Z" fill="white"/>
<path d="M263.643 25.9941C263.278 25.9941 262.937 25.8607 262.67 25.6138C262.394 25.352 262.231 25.0014 262.221 24.6211L262.152 22.4727L263.09 22.4431L263.159 24.5915C263.164 24.7248 263.219 24.8433 263.312 24.9322C263.406 25.0211 263.53 25.0755 263.658 25.0607C263.925 25.0508 264.137 24.8285 264.127 24.5618L264.024 21.7023L264.962 21.6677L265.066 24.5273C265.095 25.3125 264.478 25.9644 263.693 25.9941C263.673 25.9941 263.658 25.9941 263.643 25.9941Z" fill="white"/>
<path d="M265.258 32.449C265.066 32.449 264.893 32.3305 264.824 32.1576C264.75 31.9848 264.789 31.7823 264.922 31.6489L265.806 30.7698L258.201 23.2037C258.018 23.0259 258.018 22.7295 258.201 22.5468L260.29 20.4627C260.463 20.2898 260.779 20.2898 260.952 20.4627L268.893 28.3597L268.226 29.0215L260.621 21.4553L259.193 22.8777L266.799 30.4389C266.987 30.6217 266.987 30.9229 266.799 31.1007L266.389 31.5107H269.298L269.303 27.4856H270.241L270.237 31.9749C270.237 32.2317 270.029 32.4391 269.767 32.4391L265.258 32.449Z" fill="white"/>
<path d="M260.601 36.0001C260.478 36.0001 260.359 35.9557 260.265 35.8618L257.075 32.6961C256.941 32.5628 256.902 32.3603 256.971 32.1874C257.045 32.0096 257.218 31.896 257.406 31.896H258.655V23.2038C258.655 22.947 258.863 22.7346 259.124 22.7346H262.083C262.339 22.7346 262.552 22.947 262.552 23.2038V32.3652H261.613V23.673H259.593V32.3652C259.593 32.622 259.381 32.8294 259.124 32.8294H258.542L260.601 34.8741L263.461 32.0343L264.127 32.6961L260.932 35.8618C260.838 35.9557 260.72 36.0001 260.601 36.0001Z" fill="white"/>
<path d="M255.983 32.4392L251.474 32.4343C251.217 32.4343 251.005 32.2269 251.005 31.9701L251 27.4807C251 27.2931 251.114 27.1202 251.291 27.0511C251.464 26.977 251.667 27.0165 251.8 27.1498L252.684 28.0289L260.29 20.4578C260.473 20.28 260.769 20.28 260.952 20.4578L263.046 22.542C263.135 22.6309 263.184 22.7445 263.184 22.8729C263.184 22.9963 263.135 23.1149 263.046 23.2038L255.104 31.0959L254.442 30.4341L262.048 22.8729L260.621 21.4505L253.015 29.0167C252.832 29.1994 252.536 29.1994 252.353 29.0167L251.938 28.6117L251.943 31.5009L255.988 31.5058" fill="white"/>
<path d="M271.407 19.0452C271.066 19.0452 270.745 18.9119 270.503 18.6748L266.098 14.2892C265.856 14.0522 265.722 13.7311 265.722 13.3953C265.722 13.0545 265.856 12.7384 266.093 12.4964L267.239 11.3556C267.723 10.8815 268.562 10.8815 269.046 11.3556L273.452 15.7412C273.95 16.2351 273.95 17.0401 273.452 17.534L272.306 18.6748C272.064 18.9119 271.748 19.0452 271.407 19.0452ZM268.142 11.9186C268.054 11.9186 267.97 11.9581 267.905 12.0174V12.0223L266.76 13.1582C266.695 13.2224 266.661 13.3064 266.661 13.3953C266.661 13.4842 266.695 13.5682 266.76 13.6274L271.165 18.013C271.293 18.1414 271.516 18.1365 271.644 18.013L272.79 16.8771C272.918 16.7438 272.918 16.5314 272.785 16.403L268.379 12.0223C268.315 11.9581 268.231 11.9186 268.142 11.9186Z" fill="white"/>
<path d="M266.742 26.6616L263.2 23.5132L262.413 24.3003L262.019 25.8745L264.381 29.0228L266.742 26.6616Z" fill="black"/>
<path d="M265.258 32.449C265.066 32.449 264.893 32.3305 264.824 32.1576C264.75 31.9848 264.789 31.7823 264.922 31.6489L265.806 30.7698L258.201 23.2037C258.018 23.0259 258.018 22.7295 258.201 22.5468L260.29 20.4627C260.463 20.2898 260.779 20.2898 260.952 20.4627L268.562 28.0338L269.441 27.1547C269.575 27.0213 269.777 26.9818 269.955 27.0559C270.128 27.125 270.241 27.2979 270.241 27.4856L270.237 31.9749C270.237 32.2317 270.029 32.4391 269.767 32.4391L265.258 32.449ZM259.193 22.8777L266.799 30.4389C266.987 30.6217 266.987 30.9229 266.799 31.1007L266.389 31.5107H269.298L269.303 28.6165L268.893 29.0215C268.71 29.2043 268.414 29.2043 268.226 29.0215L260.621 21.4553" fill="white"/>
<path d="M257.69 32.5648H259.264V23.5132H262.019L262.413 32.5648H263.2L260.445 35.7131L257.69 32.5648Z" fill="black"/>
<path d="M260.601 36.0001C260.478 36.0001 260.359 35.9557 260.27 35.8618L257.075 32.6961C256.941 32.5628 256.902 32.3603 256.971 32.1874C257.045 32.0096 257.218 31.896 257.406 31.896H258.655V23.2038C258.655 22.947 258.863 22.7346 259.124 22.7346H262.083C262.339 22.7346 262.552 22.947 262.552 23.2038V31.896H263.791C263.984 31.896 264.157 32.0096 264.226 32.1874C264.3 32.3603 264.261 32.5628 264.127 32.6961L260.932 35.8618C260.838 35.9557 260.72 36.0001 260.601 36.0001ZM258.542 32.8294L260.601 34.8741L262.66 32.8294H262.083C261.821 32.8294 261.613 32.622 261.613 32.3652V23.673H259.593V32.3652C259.593 32.622 259.381 32.8294 259.124 32.8294" fill="white"/>
<path d="M262.413 20.8232L260.29 23.658C259.929 24.1371 260.028 24.8187 260.512 25.1742C260.991 25.5348 261.678 25.436 262.038 24.9569L263.362 23.1889C263.89 22.4974 264.483 22.2406 264.769 22.1665C265.406 21.9986 267.323 21.2825 268.35 20.6652C269.372 20.0429 269.901 18.6008 269.846 17.3611L266.789 14.3188L260.3 16.3339C259.509 16.6006 259.223 17.05 259.104 17.3167C258.986 17.5883 257.692 20.6306 257.692 20.6306C257.544 21.0109 257.46 21.4652 257.677 21.8505C257.894 22.2357 258.388 23.0061 258.388 23.0061L259.816 21.5838C259.816 21.5838 259.761 20.7985 259.944 20.3935C260.132 19.9935 260.329 19.3268 260.754 19.1736C261.174 19.0255 261.91 18.7884 261.91 18.7884C261.91 18.7884 261.845 19.628 261.994 20.0774C262.147 20.5269 262.379 20.7936 262.379 20.7936" fill="black"/>
<path d="M261.164 25.8608C260.828 25.8608 260.502 25.7521 260.23 25.5496C259.895 25.3027 259.677 24.9372 259.618 24.5273C259.564 24.1174 259.667 23.7075 259.919 23.3766L261.831 20.8232C261.737 20.6701 261.633 20.4726 261.549 20.2256C261.475 19.9935 261.44 19.7021 261.431 19.4404C261.248 19.4996 261.06 19.5639 260.912 19.6132C260.759 19.6676 260.576 20.1071 260.477 20.3392L260.374 20.5911C260.28 20.7887 260.265 21.2727 260.285 21.5542C260.295 21.6875 260.245 21.8209 260.151 21.9147L258.719 23.3371C258.62 23.4358 258.477 23.4852 258.339 23.4704C258.196 23.4556 258.072 23.3766 257.993 23.258C257.993 23.258 257.489 22.4728 257.267 22.0826C257.015 21.6332 257.01 21.085 257.257 20.4578C257.262 20.4479 258.556 17.4007 258.675 17.134C258.927 16.5611 259.435 16.1314 260.147 15.8894L266.646 13.8744C266.814 13.8201 266.997 13.8645 267.12 13.988L270.182 17.0352C270.266 17.1192 270.31 17.2278 270.315 17.3463C270.37 18.6057 269.851 20.3047 268.592 21.0603C267.525 21.7073 265.589 22.4333 264.888 22.6209C264.784 22.6456 264.241 22.8136 263.737 23.4704L262.413 25.2385C262.162 25.5694 261.801 25.7867 261.386 25.846C261.312 25.8558 261.238 25.8608 261.164 25.8608ZM261.915 18.3242C262.018 18.3242 262.122 18.3588 262.201 18.423C262.325 18.5218 262.394 18.6699 262.379 18.828C262.359 19.1144 262.354 19.6676 262.443 19.9293C262.557 20.28 262.734 20.4923 262.739 20.4923C262.922 20.6504 262.937 20.9072 262.789 21.1047L260.67 23.9347C260.566 24.068 260.527 24.231 260.552 24.394C260.571 24.5569 260.66 24.7051 260.794 24.7989C260.927 24.9027 261.09 24.9372 261.253 24.9224C261.416 24.8977 261.564 24.8088 261.663 24.6804L262.986 22.9074C263.663 22.0283 264.428 21.7715 264.651 21.7172C265.214 21.569 267.11 20.8677 268.103 20.2652C268.947 19.7565 269.372 18.5563 269.382 17.5587L266.656 14.8523L260.438 16.7784C259.988 16.9315 259.677 17.1784 259.534 17.5044C259.416 17.776 258.127 20.8134 258.127 20.8134C257.993 21.1541 257.978 21.4307 258.087 21.6184C258.181 21.7912 258.334 22.0382 258.472 22.2604L259.342 21.4011C259.337 21.0949 259.351 20.5664 259.519 20.201L259.613 19.9836C259.796 19.5392 260.053 18.9268 260.596 18.7341C261.021 18.586 261.766 18.344 261.766 18.344C261.816 18.3292 261.865 18.3242 261.915 18.3242Z" fill="white"/>
</g>
<defs>
<clipPath id="clip0_79_1798">
<rect width="292" height="61" fill="white"/>
</clipPath>
</defs>
</svg>
