<svg width="322" height="61" viewBox="0 0 322 61" fill="none" xmlns="http://www.w3.org/2000/svg">
<g clip-path="url(#clip0_79_1996)">
<path d="M24.6979 60.4688C11.0781 60.4688 0 49.5208 0 36.0625V0H296.948C310.563 0 321.641 10.9479 321.641 24.4062V60.4688" fill="white"/>
<path d="M244.083 52.9113H69.1353C59.6874 52.9113 51.9999 45.354 51.9999 36.0623V7.55713H226.948C236.396 7.55713 244.083 15.1144 244.083 24.4061V52.9113ZM227 5.99988L50.1667 5.6665L50.1145 36.0623C50.1145 46.3957 58.6458 54.8019 69.1353 54.8019L245.969 54.9999V24.4061C245.969 14.0728 237.49 5.99988 227 5.99988Z" fill="#010101"/>
<path d="M102.901 5.6665H50.1145V36.0623C50.1145 46.3957 58.6458 54.8019 69.1353 54.8019H121.927V24.4061C121.927 14.0728 113.391 5.6665 102.901 5.6665Z" fill="#010101"/>
<path d="M63.651 29.3594C58.8489 29.3594 54.9583 33.25 54.9583 38.0521C54.9583 42.8542 58.8489 46.7448 63.651 46.7448C68.4583 46.7448 72.3489 42.8542 72.3489 38.0521C72.3489 33.25 68.4583 29.3594 63.651 29.3594Z" fill="white"/>
<path d="M69.3229 39.4687H65.0729V43.7187H62.2344V39.4687H57.9844V36.6353H62.2344V32.3801H65.0729V36.6353H69.3229" fill="#1C1C1B"/>
<path d="M55.7864 26.5936V17.1978H58.2708V24.5155H61.828V26.5936" fill="white"/>
<path d="M62.9426 26.5936V17.1978H69.0155V19.2759H65.4322V20.755H68.4947V22.8384H65.4322V24.5155H69.1614V26.5936" fill="white"/>
<path d="M75.0885 26.5936V19.2759H72.6041V17.1978H80.0677V19.2759H77.5781V26.5936" fill="white"/>
<path d="M83.5521 21.4738H84.4479C85.4479 21.4738 85.9531 21.0623 85.9531 20.2342C85.9531 19.828 85.8229 19.5467 85.5677 19.3957C85.3125 19.2394 84.9375 19.1613 84.4479 19.1613H83.5521V21.4738ZM81.0625 26.5988V17.1978H84.6198C85.125 17.1978 85.6042 17.2446 86.0625 17.3384C86.5208 17.4373 86.9167 17.5988 87.2604 17.8332C87.6042 18.0623 87.875 18.3748 88.0781 18.7655C88.2813 19.1561 88.3802 19.6457 88.3802 20.2342C88.3802 20.9061 88.2448 21.4686 87.9688 21.9113C87.6979 22.354 87.3281 22.6978 86.8646 22.953L88.901 26.5988H86.125L84.5052 23.4425H83.5521V26.5988" fill="white"/>
<path d="M89.8698 26.5988H92.3593V17.1978H89.8698V26.5988Z" fill="white"/>
<path d="M75.3801 43.2759V33.8696H81.5103V35.953H77.8697V37.7498H80.9895V39.8332H77.8697V43.2759" fill="white"/>
<path d="M84.9218 38.703L84.7604 39.354H86.4948L86.3385 38.703C86.2239 38.2498 86.1041 37.7603 85.9895 37.229C85.875 36.6978 85.7604 36.1978 85.6406 35.7238H85.5833C85.4791 36.203 85.3698 36.7082 85.2604 37.2342C85.151 37.7603 85.0364 38.2498 84.9218 38.703ZM81.3073 43.2759L84.1666 33.8696H87.1718L90.0364 43.2759H87.4062L86.9427 41.2759H84.3125L83.8489 43.2759" fill="white"/>
<path d="M94.5624 43.4478C93.9687 43.4478 93.3958 43.3488 92.8541 43.1509C92.3072 42.953 91.8333 42.6509 91.4218 42.255C91.0103 41.854 90.6822 41.354 90.4426 40.7498C90.203 40.1457 90.0833 39.4478 90.0833 38.6457C90.0833 37.854 90.2083 37.1509 90.4583 36.5415C90.7083 35.9269 91.0416 35.4113 91.4635 34.9946C91.8801 34.5728 92.3645 34.2498 92.9114 34.0311C93.4583 33.8071 94.026 33.6978 94.6249 33.6978C95.2499 33.6978 95.8124 33.8228 96.302 34.0675C96.7968 34.3123 97.2083 34.604 97.5468 34.9425L96.2447 36.5311C96.0155 36.3332 95.776 36.1665 95.5312 36.0311C95.2812 35.9061 94.9999 35.8384 94.6822 35.8384C94.401 35.8384 94.1405 35.9009 93.8958 36.0259C93.651 36.1509 93.4322 36.3332 93.2447 36.5623C93.0572 36.7915 92.9062 37.078 92.7968 37.4165C92.6822 37.7498 92.6301 38.1353 92.6301 38.5571C92.6301 39.4478 92.8124 40.1248 93.1874 40.5988C93.5572 41.0675 94.0468 41.3071 94.651 41.3071C95.0208 41.3071 95.3437 41.229 95.6301 41.0675C95.9114 40.9061 96.1562 40.7186 96.3593 40.4946L97.6614 42.0571C97.2551 42.5207 96.7916 42.8696 96.2655 43.0988C95.7395 43.3332 95.1718 43.4478 94.5624 43.4478Z" fill="white"/>
<path d="M98.6198 43.2759H101.104V33.8696H98.6198V43.2759Z" fill="white"/>
<path d="M102.875 43.2759V33.8696H105.365V41.1925H108.922V43.2759" fill="white"/>
<path d="M110.031 43.2759V33.8696H116.109V35.953H112.521V37.4321H115.589V39.5155H112.521V41.1925H116.255V43.2759" fill="white"/>
<path fill-rule="evenodd" clip-rule="evenodd" d="M16.2604 29.1925C16.2604 29.1925 15.9115 29.1509 15.6771 29.7967L13.5573 35.7082C15.224 37.1196 17.1823 38.1821 19.3281 38.8071L16.7552 29.7707C16.5781 29.1248 16.2604 29.1925 16.2604 29.1925ZM5.67188 23.6978C5.67188 13.755 13.7604 5.6665 23.7031 5.6665C28.9635 5.6665 33.7083 7.93213 37.0052 11.5363L35.3906 13.1769C32.5104 9.979 28.3385 7.96338 23.7031 7.96338C15.026 7.96338 7.96875 15.0207 7.96875 23.6978C7.96875 27.5207 9.34375 31.0311 11.6198 33.7603L14.2656 20.7967C14.7396 18.5103 16.8854 16.755 19.0521 17.1561C20.6406 17.4582 28.0938 22.3957 28.0938 22.3957C28.7292 22.8019 28.375 23.3488 28.375 23.3488C28.375 23.3488 28.0729 23.8748 27.4479 23.604L21.9792 21.4061C21.0052 20.9946 19.4323 21.4321 19.6667 24.1873L21.3802 38.7863L21.4531 39.2655C22.1875 39.3748 22.9375 39.4321 23.7031 39.4321C24.1875 39.4321 24.6719 39.4009 25.1458 39.354L25.0052 37.453L28.6979 40.2707L25.3958 43.4634L25.276 41.6509C24.7552 41.6978 24.2344 41.729 23.7031 41.729C13.7604 41.729 5.67188 33.6405 5.67188 23.6978ZM19.9375 16.4113C18.4167 16.4113 17.1875 15.1822 17.1875 13.6561C17.1875 12.1353 18.4167 10.9061 19.9375 10.9061C21.4583 10.9061 22.6927 12.1353 22.6927 13.6561C22.6927 15.1822 21.4583 16.4113 19.9375 16.4113ZM37.1046 24.5639C37.7365 24.0542 39.7005 22.4701 40.1613 19.1925L40.2342 18.1821L42.0519 18.2863L38.0259 12.854L33.2134 17.6925L34.979 17.7655L34.9998 17.7707C35.0415 17.9686 35.2446 19.2655 34.5571 21.3175C33.7967 23.604 31.4373 26.2915 28.4634 25.8175C32.6457 27.5675 36.0311 25.4373 37.0936 24.5728L37.1046 24.5639ZM28.375 25.8488C29.5781 28.6092 33.1146 29.1405 35.4479 28.5519C37.5208 28.0259 38.5052 27.1717 38.6719 27.0155L38.6615 26.9998L37.776 25.4634L44.4427 26.9217L42.0312 33.2394L41.1354 31.6457L40.2656 32.1196C37.2654 33.4984 34.8744 32.7063 34.0978 32.4491L34.0781 32.4425C32.7812 32.0155 29.1562 30.3123 28.375 25.8488ZM28.4062 25.7446C26.7135 28.2342 28.151 31.5103 29.8958 33.1717C31.4895 34.6821 32.7655 35.0363 32.9322 35.078L33.7447 33.5207L36.0885 39.9321L29.4635 41.2811L30.3437 39.6457L29.4478 39.1457C26.6887 37.3492 26.0817 34.9167 25.8818 34.116L25.8749 34.0884C25.5416 32.7603 25.0468 28.7863 28.4062 25.7446Z" fill="#010101"/>
<path d="M130.57 14.86L131.58 20.14H131.61L132.67 14.86H134.16L132.52 22H130.67L129.03 14.86H130.57ZM138.676 14.86V16.04H136.126V17.72H138.526V18.9H136.126V20.82H138.776V22H134.686V14.86H138.676ZM139.5 14.86H142.16C142.76 14.86 143.227 15.0133 143.56 15.32C143.893 15.62 144.06 16.08 144.06 16.7C144.06 17.18 143.963 17.5733 143.77 17.88C143.577 18.18 143.277 18.3733 142.87 18.46V18.48C143.23 18.5333 143.493 18.65 143.66 18.83C143.827 19.01 143.93 19.3 143.97 19.7C143.983 19.8333 143.993 19.98 144 20.14C144.007 20.2933 144.013 20.4667 144.02 20.66C144.033 21.04 144.053 21.33 144.08 21.53C144.12 21.73 144.207 21.8667 144.34 21.94V22H142.78C142.707 21.9 142.66 21.7867 142.64 21.66C142.62 21.5267 142.607 21.39 142.6 21.25L142.56 19.88C142.547 19.6 142.477 19.38 142.35 19.22C142.223 19.06 142.01 18.98 141.71 18.98H140.94V22H139.5V14.86ZM140.94 17.98H141.54C141.887 17.98 142.153 17.9 142.34 17.74C142.527 17.5733 142.62 17.2967 142.62 16.91C142.62 16.25 142.287 15.92 141.62 15.92H140.94V17.98ZM145.057 14.86H147.717C148.317 14.86 148.783 15.0133 149.117 15.32C149.45 15.62 149.617 16.08 149.617 16.7C149.617 17.18 149.52 17.5733 149.327 17.88C149.133 18.18 148.833 18.3733 148.427 18.46V18.48C148.787 18.5333 149.05 18.65 149.217 18.83C149.383 19.01 149.487 19.3 149.527 19.7C149.54 19.8333 149.55 19.98 149.557 20.14C149.563 20.2933 149.57 20.4667 149.577 20.66C149.59 21.04 149.61 21.33 149.637 21.53C149.677 21.73 149.763 21.8667 149.897 21.94V22H148.337C148.263 21.9 148.217 21.7867 148.197 21.66C148.177 21.5267 148.163 21.39 148.157 21.25L148.117 19.88C148.103 19.6 148.033 19.38 147.907 19.22C147.78 19.06 147.567 18.98 147.267 18.98H146.497V22H145.057V14.86ZM146.497 17.98H147.097C147.443 17.98 147.71 17.9 147.897 17.74C148.083 17.5733 148.177 17.2967 148.177 16.91C148.177 16.25 147.843 15.92 147.177 15.92H146.497V17.98ZM154.603 14.86V16.04H152.053V17.72H154.453V18.9H152.053V20.82H154.703V22H150.613V14.86H154.603ZM131.96 26.86C131.753 27.24 131.577 27.61 131.43 27.97C131.283 28.3233 131.163 28.68 131.07 29.04C130.983 29.4 130.92 29.77 130.88 30.15C130.84 30.5233 130.82 30.9233 130.82 31.35C130.82 31.7767 130.84 32.18 130.88 32.56C130.92 32.9333 130.983 33.2967 131.07 33.65C131.163 33.9967 131.283 34.3467 131.43 34.7C131.577 35.06 131.753 35.43 131.96 35.81H130.9C130.4 35.0233 130.04 34.26 129.82 33.52C129.607 32.78 129.5 32.0567 129.5 31.35C129.5 30.6433 129.607 29.9167 129.82 29.17C130.04 28.4167 130.4 27.6467 130.9 26.86H131.96ZM135.439 31.31L134.749 28.1H134.729L134.039 31.31H135.439ZM135.629 26.86L137.519 34H136.019L135.689 32.49H133.789L133.459 34H131.959L133.849 26.86H135.629ZM138.619 26.86L139.559 29.62H139.579L140.579 26.86H142.139L140.289 31.19V34H138.849V31.19L136.999 26.86H138.619ZM145.097 31.31L144.407 28.1H144.387L143.697 31.31H145.097ZM145.287 26.86L147.177 34H145.677L145.347 32.49H143.447L143.117 34H141.617L143.507 26.86H145.287ZM149.334 26.86L151.074 31.75H151.094V26.86H152.414V34H150.774L149.014 29H148.994V34H147.674V26.86H149.334ZM157.596 26.86V28.04H156.036V34H154.596V28.04H153.036V26.86H157.596ZM163.673 29.27C163.673 28.75 163.61 28.3733 163.483 28.14C163.363 27.9 163.14 27.78 162.813 27.78C162.633 27.78 162.483 27.83 162.363 27.93C162.25 28.0233 162.16 28.18 162.093 28.4C162.026 28.6133 161.98 28.8967 161.953 29.25C161.926 29.5967 161.913 30.0233 161.913 30.53C161.913 31.07 161.93 31.5067 161.963 31.84C162.003 32.1733 162.06 32.4333 162.133 32.62C162.213 32.8 162.31 32.9233 162.423 32.99C162.543 33.05 162.68 33.08 162.833 33.08C162.96 33.08 163.076 33.06 163.183 33.02C163.296 32.9733 163.393 32.8867 163.473 32.76C163.553 32.6267 163.616 32.4433 163.663 32.21C163.71 31.97 163.733 31.6567 163.733 31.27H165.173C165.173 31.6567 165.143 32.0233 165.083 32.37C165.023 32.7167 164.91 33.02 164.743 33.28C164.583 33.54 164.353 33.7433 164.053 33.89C163.76 34.0367 163.376 34.11 162.903 34.11C162.363 34.11 161.933 34.0233 161.613 33.85C161.293 33.6767 161.046 33.4267 160.873 33.1C160.706 32.7733 160.596 32.3833 160.543 31.93C160.496 31.4767 160.473 30.9767 160.473 30.43C160.473 29.89 160.496 29.3933 160.543 28.94C160.596 28.48 160.706 28.0867 160.873 27.76C161.046 27.4333 161.293 27.18 161.613 27C161.933 26.8133 162.363 26.72 162.903 26.72C163.416 26.72 163.82 26.8033 164.113 26.97C164.413 27.1367 164.636 27.35 164.783 27.61C164.93 27.8633 165.02 28.14 165.053 28.44C165.093 28.7333 165.113 29.01 165.113 29.27H163.673ZM167.284 30.43C167.284 30.91 167.294 31.32 167.314 31.66C167.341 31.9933 167.387 32.2667 167.454 32.48C167.527 32.6867 167.627 32.84 167.754 32.94C167.887 33.0333 168.061 33.08 168.274 33.08C168.487 33.08 168.657 33.0333 168.784 32.94C168.917 32.84 169.017 32.6867 169.084 32.48C169.157 32.2667 169.204 31.9933 169.224 31.66C169.251 31.32 169.264 30.91 169.264 30.43C169.264 29.95 169.251 29.5433 169.224 29.21C169.204 28.8767 169.157 28.6033 169.084 28.39C169.017 28.1767 168.917 28.0233 168.784 27.93C168.657 27.83 168.487 27.78 168.274 27.78C168.061 27.78 167.887 27.83 167.754 27.93C167.627 28.0233 167.527 28.1767 167.454 28.39C167.387 28.6033 167.341 28.8767 167.314 29.21C167.294 29.5433 167.284 29.95 167.284 30.43ZM165.844 30.43C165.844 29.89 165.867 29.3933 165.914 28.94C165.967 28.48 166.077 28.0867 166.244 27.76C166.417 27.4333 166.664 27.18 166.984 27C167.304 26.8133 167.734 26.72 168.274 26.72C168.814 26.72 169.244 26.8133 169.564 27C169.884 27.18 170.127 27.4333 170.294 27.76C170.467 28.0867 170.577 28.48 170.624 28.94C170.677 29.3933 170.704 29.89 170.704 30.43C170.704 30.9767 170.677 31.4767 170.624 31.93C170.577 32.3833 170.467 32.7733 170.294 33.1C170.127 33.4267 169.884 33.6767 169.564 33.85C169.244 34.0233 168.814 34.11 168.274 34.11C167.734 34.11 167.304 34.0233 166.984 33.85C166.664 33.6767 166.417 33.4267 166.244 33.1C166.077 32.7733 165.967 32.3833 165.914 31.93C165.867 31.4767 165.844 30.9767 165.844 30.43ZM173.211 26.86L174.951 31.75H174.971V26.86H176.291V34H174.651L172.891 29H172.871V34H171.551V26.86H173.211ZM181.473 26.86V28.04H179.913V34H178.473V28.04H176.913V26.86H181.473ZM186.088 26.86V28.04H183.538V29.72H185.938V30.9H183.538V32.82H186.188V34H182.098V26.86H186.088ZM188.572 26.86L190.312 31.75H190.332V26.86H191.652V34H190.012L188.252 29H188.232V34H186.912V26.86H188.572ZM194.004 26.86V31.84C194.004 32.02 194.014 32.1867 194.034 32.34C194.061 32.4867 194.104 32.6167 194.164 32.73C194.231 32.8367 194.318 32.9233 194.424 32.99C194.538 33.05 194.678 33.08 194.844 33.08C195.018 33.08 195.158 33.05 195.264 32.99C195.371 32.9233 195.454 32.8367 195.514 32.73C195.581 32.6167 195.624 32.4867 195.644 32.34C195.671 32.1867 195.684 32.02 195.684 31.84V26.86H197.124V31.84C197.124 32.2933 197.061 32.67 196.934 32.97C196.808 33.2633 196.638 33.4967 196.424 33.67C196.211 33.8433 195.968 33.96 195.694 34.02C195.421 34.08 195.138 34.11 194.844 34.11C194.551 34.11 194.268 34.0833 193.994 34.03C193.721 33.9767 193.478 33.87 193.264 33.71C193.051 33.5433 192.881 33.31 192.754 33.01C192.628 32.71 192.564 32.32 192.564 31.84V26.86H194.004ZM130.85 38.86V43.84C130.85 44.02 130.86 44.1867 130.88 44.34C130.907 44.4867 130.95 44.6167 131.01 44.73C131.077 44.8367 131.163 44.9233 131.27 44.99C131.383 45.05 131.523 45.08 131.69 45.08C131.863 45.08 132.003 45.05 132.11 44.99C132.217 44.9233 132.3 44.8367 132.36 44.73C132.427 44.6167 132.47 44.4867 132.49 44.34C132.517 44.1867 132.53 44.02 132.53 43.84V38.86H133.97V43.84C133.97 44.2933 133.907 44.67 133.78 44.97C133.653 45.2633 133.483 45.4967 133.27 45.67C133.057 45.8433 132.813 45.96 132.54 46.02C132.267 46.08 131.983 46.11 131.69 46.11C131.397 46.11 131.113 46.0833 130.84 46.03C130.567 45.9767 130.323 45.87 130.11 45.71C129.897 45.5433 129.727 45.31 129.6 45.01C129.473 44.71 129.41 44.32 129.41 43.84V38.86H130.85ZM136.541 38.86L138.281 43.75H138.301V38.86H139.621V46H137.981L136.221 41H136.201V46H134.881V38.86H136.541ZM144.613 38.86V40.04H142.063V41.72H144.463V42.9H142.063V44.82H144.713V46H140.623V38.86H144.613ZM149.28 44.94H149.84C150.187 44.94 150.467 44.8633 150.68 44.71C150.893 44.5567 151 44.2733 151 43.86C151 43.6533 150.97 43.4833 150.91 43.35C150.857 43.21 150.78 43.1 150.68 43.02C150.587 42.9333 150.473 42.8733 150.34 42.84C150.207 42.8067 150.06 42.79 149.9 42.79H149.28V44.94ZM149.28 41.79H149.69C150.09 41.79 150.38 41.72 150.56 41.58C150.747 41.4333 150.84 41.19 150.84 40.85C150.84 40.51 150.757 40.27 150.59 40.13C150.423 39.99 150.16 39.92 149.8 39.92H149.28V41.79ZM147.84 38.86H150.25C150.543 38.86 150.813 38.89 151.06 38.95C151.313 39.01 151.53 39.11 151.71 39.25C151.89 39.39 152.03 39.5767 152.13 39.81C152.23 40.0433 152.28 40.33 152.28 40.67C152.28 41.0567 152.19 41.39 152.01 41.67C151.83 41.9433 151.56 42.13 151.2 42.23V42.25C151.6 42.3033 151.917 42.4733 152.15 42.76C152.383 43.0467 152.5 43.43 152.5 43.91C152.5 44.19 152.463 44.4567 152.39 44.71C152.317 44.9633 152.19 45.1867 152.01 45.38C151.837 45.5667 151.607 45.7167 151.32 45.83C151.04 45.9433 150.69 46 150.27 46H147.84V38.86ZM154.686 42.43C154.686 42.91 154.696 43.32 154.716 43.66C154.743 43.9933 154.79 44.2667 154.856 44.48C154.93 44.6867 155.03 44.84 155.156 44.94C155.29 45.0333 155.463 45.08 155.676 45.08C155.89 45.08 156.06 45.0333 156.186 44.94C156.32 44.84 156.42 44.6867 156.486 44.48C156.56 44.2667 156.606 43.9933 156.626 43.66C156.653 43.32 156.666 42.91 156.666 42.43C156.666 41.95 156.653 41.5433 156.626 41.21C156.606 40.8767 156.56 40.6033 156.486 40.39C156.42 40.1767 156.32 40.0233 156.186 39.93C156.06 39.83 155.89 39.78 155.676 39.78C155.463 39.78 155.29 39.83 155.156 39.93C155.03 40.0233 154.93 40.1767 154.856 40.39C154.79 40.6033 154.743 40.8767 154.716 41.21C154.696 41.5433 154.686 41.95 154.686 42.43ZM153.246 42.43C153.246 41.89 153.27 41.3933 153.316 40.94C153.37 40.48 153.48 40.0867 153.646 39.76C153.82 39.4333 154.066 39.18 154.386 39C154.706 38.8133 155.136 38.72 155.676 38.72C156.216 38.72 156.646 38.8133 156.966 39C157.286 39.18 157.53 39.4333 157.696 39.76C157.87 40.0867 157.98 40.48 158.026 40.94C158.08 41.3933 158.106 41.89 158.106 42.43C158.106 42.9767 158.08 43.4767 158.026 43.93C157.98 44.3833 157.87 44.7733 157.696 45.1C157.53 45.4267 157.286 45.6767 156.966 45.85C156.646 46.0233 156.216 46.11 155.676 46.11C155.136 46.11 154.706 46.0233 154.386 45.85C154.066 45.6767 153.82 45.4267 153.646 45.1C153.48 44.7733 153.37 44.3833 153.316 43.93C153.27 43.4767 153.246 42.9767 153.246 42.43ZM160.303 38.86V43.84C160.303 44.02 160.313 44.1867 160.333 44.34C160.36 44.4867 160.403 44.6167 160.463 44.73C160.53 44.8367 160.616 44.9233 160.723 44.99C160.836 45.05 160.976 45.08 161.143 45.08C161.316 45.08 161.456 45.05 161.563 44.99C161.67 44.9233 161.753 44.8367 161.813 44.73C161.88 44.6167 161.923 44.4867 161.943 44.34C161.97 44.1867 161.983 44.02 161.983 43.84V38.86H163.423V43.84C163.423 44.2933 163.36 44.67 163.233 44.97C163.106 45.2633 162.936 45.4967 162.723 45.67C162.51 45.8433 162.266 45.96 161.993 46.02C161.72 46.08 161.436 46.11 161.143 46.11C160.85 46.11 160.566 46.0833 160.293 46.03C160.02 45.9767 159.776 45.87 159.563 45.71C159.35 45.5433 159.18 45.31 159.053 45.01C158.926 44.71 158.863 44.32 158.863 43.84V38.86H160.303ZM167.504 40.98C167.504 40.8467 167.487 40.71 167.454 40.57C167.427 40.43 167.381 40.3033 167.314 40.19C167.247 40.07 167.161 39.9733 167.054 39.9C166.954 39.82 166.831 39.78 166.684 39.78C166.337 39.78 166.087 39.9733 165.934 40.36C165.781 40.7467 165.704 41.3867 165.704 42.28C165.704 42.7067 165.717 43.0933 165.744 43.44C165.771 43.7867 165.817 44.0833 165.884 44.33C165.957 44.57 166.057 44.7567 166.184 44.89C166.317 45.0167 166.487 45.08 166.694 45.08C166.781 45.08 166.874 45.0567 166.974 45.01C167.081 44.9633 167.177 44.8933 167.264 44.8C167.357 44.7067 167.434 44.59 167.494 44.45C167.554 44.3033 167.584 44.1333 167.584 43.94V43.21H166.634V42.15H168.964V46H167.904V45.34H167.884C167.711 45.62 167.501 45.82 167.254 45.94C167.014 46.0533 166.724 46.11 166.384 46.11C165.944 46.11 165.584 46.0333 165.304 45.88C165.031 45.7267 164.814 45.49 164.654 45.17C164.501 44.85 164.397 44.4567 164.344 43.99C164.291 43.5167 164.264 42.97 164.264 42.35C164.264 41.75 164.301 41.2233 164.374 40.77C164.454 40.3167 164.587 39.94 164.774 39.64C164.961 39.3333 165.207 39.1033 165.514 38.95C165.821 38.7967 166.204 38.72 166.664 38.72C167.451 38.72 168.017 38.9167 168.364 39.31C168.711 39.6967 168.884 40.2533 168.884 40.98H167.504ZM169.961 46V38.86H171.401V46H169.961ZM176.459 38.86V40.04H173.909V41.72H176.309V42.9H173.909V44.82H176.559V46H172.469V38.86H176.459ZM177.843 38.86C178.343 39.6467 178.7 40.4167 178.913 41.17C179.133 41.9167 179.243 42.6433 179.243 43.35C179.243 44.0567 179.133 44.78 178.913 45.52C178.7 46.26 178.343 47.0233 177.843 47.81H176.783C176.99 47.43 177.167 47.06 177.313 46.7C177.46 46.3467 177.577 45.9967 177.663 45.65C177.757 45.2967 177.823 44.9333 177.863 44.56C177.903 44.18 177.923 43.7767 177.923 43.35C177.923 42.9233 177.903 42.5233 177.863 42.15C177.823 41.77 177.757 41.4 177.663 41.04C177.577 40.68 177.46 40.3233 177.313 39.97C177.167 39.61 176.99 39.24 176.783 38.86H177.843Z" fill="black"/>
<path d="M201 6H227V55H220H201L214.5 28.5L201 6Z" fill="#010101"/>
<path d="M227 6H298C307.941 6 316 14.0589 316 24V55H227V6Z" fill="black"/>
<rect x="227" y="8" width="31" height="31" fill="black"/>
<path fill-rule="evenodd" clip-rule="evenodd" d="M240.109 14.1063C239.715 13.9593 239.442 13.9112 239.26 13.9138C239.076 13.9164 239.017 13.9696 239.005 13.983C238.994 13.9948 238.976 14.0235 238.975 14.1029C238.974 14.1628 238.984 14.2337 239.004 14.3061L241.457 16.7194H243.07C243.35 16.3731 243.982 15.6937 245.041 14.766C245.332 14.5109 245.438 14.3351 245.469 14.2426C245.486 14.1909 245.48 14.1822 245.466 14.1637L245.464 14.1606C245.428 14.1114 245.342 14.0437 245.193 13.9816C245.059 13.9255 244.904 13.8872 244.762 13.8665C244.659 13.8692 244.582 13.8932 244.446 13.9423L244.419 13.9521C244.371 13.9696 244.335 13.9876 244.3 14.0059C244.226 14.0437 244.15 14.0826 243.951 14.1204C243.636 14.1804 243.41 14.185 243.155 14.124C242.99 14.0845 242.808 14.0142 242.587 13.9294C242.511 13.8998 242.429 13.8684 242.342 13.8359L242.34 13.8357C242.335 13.835 242.315 13.8327 242.278 13.8341C242.224 13.8361 242.153 13.8447 242.066 13.86C241.894 13.8904 241.691 13.9409 241.477 13.9945L241.464 13.9977C241.252 14.0505 241.026 14.1067 240.837 14.1369C240.742 14.1519 240.644 14.1628 240.554 14.1606L240.525 14.1602C240.431 14.1593 240.201 14.1571 240.109 14.1063ZM241.242 13.1757C240.947 13.2429 240.406 13.3023 240.406 13.3023C240.09 13.2908 239.86 13.2277 239.667 13.1747C239.513 13.1326 239.383 13.0968 239.251 13.0987C238.953 13.1029 238.694 13.1923 238.508 13.3963C238.321 13.6018 238.262 13.8653 238.259 14.0916C238.257 14.3145 238.307 14.5303 238.37 14.7023L238.402 14.7912L240.578 16.9319C239.757 17.1125 238.88 17.4785 238.072 18.1145C236.533 19.3262 235.301 21.4723 235.126 25.024C235.115 25.2552 235.102 25.4899 235.09 25.7262C235.038 26.698 234.984 27.698 235.004 28.6023C235.029 29.71 235.162 30.7759 235.615 31.5044C236.429 32.813 237.76 33.4463 239.037 33.7444C240.31 34.0416 241.582 34.019 242.369 33.9721C243.089 33.9584 244.275 33.9154 245.49 33.6601C246.701 33.4057 248.004 32.9283 248.895 31.9992C249.611 31.2516 249.855 30.1504 249.929 28.9703C249.987 28.0415 249.943 26.9912 249.898 25.9219L249.898 25.9218L249.898 25.9216C249.886 25.6252 249.873 25.3272 249.863 25.03C249.746 21.692 248.518 19.598 246.98 18.3585C245.982 17.5541 244.871 17.124 243.887 16.9376C244.206 16.5912 244.724 16.0726 245.477 15.4121C245.806 15.1237 246.036 14.8353 246.137 14.5344C246.251 14.1954 246.189 13.8795 246.014 13.6398C245.86 13.4286 245.636 13.2982 245.439 13.216C245.234 13.1306 245.014 13.0793 244.824 13.0539L244.803 13.0511H244.782C244.552 13.0511 244.386 13.1088 244.23 13.1653L244.204 13.1747C244.062 13.2261 243.907 13.282 243.663 13.3284C243.449 13.3691 243.436 13.3656 243.355 13.3435L243.355 13.3435L243.355 13.3435C243.339 13.3391 243.32 13.334 243.297 13.3284C243.176 13.2994 243.051 13.2515 242.854 13.1757C242.847 13.1727 242.833 13.1658 242.815 13.1563C242.723 13.1093 242.511 13 242.269 13C241.911 13 241.568 13.0906 241.362 13.1452C241.314 13.1578 241.273 13.1685 241.242 13.1757ZM238.598 18.7826C237.294 19.8098 236.141 21.7024 235.975 25.0658C235.964 25.3062 235.951 25.5471 235.938 25.7873L235.938 25.7873L235.938 25.7874C235.886 26.7564 235.835 27.7147 235.854 28.5836C235.879 29.6845 236.017 30.5403 236.337 31.0555C236.986 32.0991 238.071 32.6458 239.23 32.9165C240.389 33.1869 241.569 33.1684 242.327 33.1229L242.336 33.1224L242.345 33.1222C243.051 33.1089 244.176 33.0673 245.316 32.828C246.465 32.5867 247.566 32.1565 248.281 31.411C248.778 30.8917 249.009 30.0543 249.08 28.9168C249.136 28.0371 249.094 27.048 249.05 25.9868L249.05 25.9866C249.037 25.6833 249.024 25.3741 249.013 25.0598C248.903 21.9361 247.769 20.0859 246.447 19.0204C245.443 18.2117 244.307 17.8352 243.37 17.7159C244.146 18.5301 245.026 19.349 245.507 19.6446L245.061 20.3687C244.86 20.1673 244.557 19.9036 244.208 19.5994L244.208 19.5994C243.705 19.1614 243.106 18.6395 242.574 18.0991C242.548 18.4454 242.525 18.8325 242.515 19.1999C242.507 19.5164 242.509 19.8104 242.526 20.048C242.534 20.1669 242.546 20.2653 242.56 20.3418C242.567 20.3798 242.574 20.4092 242.581 20.4311C242.587 20.4519 242.591 20.4611 242.591 20.462L242.652 20.7938L241.831 20.8422C241.732 20.6443 241.696 20.3607 241.678 20.1075C241.659 19.8317 241.657 19.5076 241.666 19.1781C241.672 18.9159 241.685 18.6454 241.702 18.3858C241.011 19.0527 240.284 19.6307 239.748 20.0572C239.673 20.1168 239.601 20.1734 239.535 20.227L239.089 19.5029C239.561 19.1737 240.435 18.4574 241.209 17.6831C240.385 17.7926 239.447 18.1141 238.598 18.7826Z" fill="white"/>
<path d="M232.263 43.1H233.397C233.78 43.1 234.067 43.2027 234.258 43.408C234.449 43.6133 234.545 43.9143 234.545 44.311V44.794C234.545 45.1907 234.449 45.4917 234.258 45.697C234.067 45.9023 233.78 46.005 233.397 46.005H233.033V48H232.263V43.1ZM233.397 45.305C233.523 45.305 233.616 45.27 233.677 45.2C233.742 45.13 233.775 45.011 233.775 44.843V44.262C233.775 44.094 233.742 43.975 233.677 43.905C233.616 43.835 233.523 43.8 233.397 43.8H233.033V45.305H233.397ZM236.076 48.07C235.698 48.07 235.409 47.9627 235.208 47.748C235.008 47.5333 234.907 47.23 234.907 46.838V44.262C234.907 43.87 235.008 43.5667 235.208 43.352C235.409 43.1373 235.698 43.03 236.076 43.03C236.454 43.03 236.744 43.1373 236.944 43.352C237.145 43.5667 237.245 43.87 237.245 44.262V46.838C237.245 47.23 237.145 47.5333 236.944 47.748C236.744 47.9627 236.454 48.07 236.076 48.07ZM236.076 47.37C236.342 47.37 236.475 47.209 236.475 46.887V44.213C236.475 43.891 236.342 43.73 236.076 43.73C235.81 43.73 235.677 43.891 235.677 44.213V46.887C235.677 47.209 235.81 47.37 236.076 47.37ZM238.886 48.07C238.513 48.07 238.228 47.965 238.032 47.755C237.836 47.5403 237.738 47.2347 237.738 46.838V43.1H238.508V46.894C238.508 47.062 238.541 47.1833 238.606 47.258C238.676 47.3327 238.774 47.37 238.9 47.37C239.026 47.37 239.122 47.3327 239.187 47.258C239.257 47.1833 239.292 47.062 239.292 46.894V43.1H240.034V46.838C240.034 47.2347 239.936 47.5403 239.74 47.755C239.544 47.965 239.259 48.07 238.886 48.07ZM240.582 43.1H241.744C242.141 43.1 242.43 43.1933 242.612 43.38C242.794 43.562 242.885 43.8443 242.885 44.227V44.423C242.885 44.675 242.843 44.8803 242.759 45.039C242.68 45.1977 242.556 45.312 242.388 45.382V45.396C242.771 45.5267 242.962 45.8673 242.962 46.418V46.838C242.962 47.216 242.862 47.5053 242.661 47.706C242.465 47.902 242.176 48 241.793 48H240.582V43.1ZM241.653 45.095C241.807 45.095 241.922 45.0553 241.996 44.976C242.076 44.8967 242.115 44.7637 242.115 44.577V44.304C242.115 44.1267 242.083 43.9983 242.017 43.919C241.957 43.8397 241.859 43.8 241.723 43.8H241.352V45.095H241.653ZM241.793 47.3C241.929 47.3 242.029 47.265 242.094 47.195C242.16 47.1203 242.192 46.9943 242.192 46.817V46.39C242.192 46.166 242.153 46.012 242.073 45.928C241.999 45.8393 241.873 45.795 241.695 45.795H241.352V47.3H241.793ZM243.412 43.1H245.512V43.8H244.182V45.095H245.239V45.795H244.182V47.3H245.512V48H243.412V43.1ZM245.955 43.1H246.725V47.3H247.992V48H245.955V43.1ZM248.362 43.1H249.132V47.3H250.399V48H248.362V43.1ZM250.768 43.1H252.868V43.8H251.538V45.095H252.595V45.795H251.538V47.3H252.868V48H250.768V43.1Z" fill="white"/>
<path d="M265.59 31.07C265.212 31.07 264.923 30.9627 264.722 30.748C264.522 30.5333 264.421 30.23 264.421 29.838V27.262C264.421 26.87 264.522 26.5667 264.722 26.352C264.923 26.1373 265.212 26.03 265.59 26.03C265.968 26.03 266.258 26.1373 266.458 26.352C266.659 26.5667 266.759 26.87 266.759 27.262V29.838C266.759 30.23 266.659 30.5333 266.458 30.748C266.258 30.9627 265.968 31.07 265.59 31.07ZM265.59 30.37C265.856 30.37 265.989 30.209 265.989 29.887V27.213C265.989 26.891 265.856 26.73 265.59 26.73C265.324 26.73 265.191 26.891 265.191 27.213V29.887C265.191 30.209 265.324 30.37 265.59 30.37ZM268.4 31.07C268.027 31.07 267.742 30.965 267.546 30.755C267.35 30.5403 267.252 30.2347 267.252 29.838V26.1H268.022V29.894C268.022 30.062 268.055 30.1833 268.12 30.258C268.19 30.3327 268.288 30.37 268.414 30.37C268.54 30.37 268.636 30.3327 268.701 30.258C268.771 30.1833 268.806 30.062 268.806 29.894V26.1H269.548V29.838C269.548 30.2347 269.45 30.5403 269.254 30.755C269.058 30.965 268.773 31.07 268.4 31.07Z" fill="white"/>
<path d="M276 8H306C306.552 8 307 8.44772 307 9V39H276V8Z" fill="black"/>
<path d="M279.11 43.1H280.286C280.668 43.1 280.955 43.2027 281.147 43.408C281.338 43.6133 281.434 43.9143 281.434 44.311V46.789C281.434 47.1857 281.338 47.4867 281.147 47.692C280.955 47.8973 280.668 48 280.286 48H279.11V43.1ZM280.272 47.3C280.398 47.3 280.493 47.2627 280.559 47.188C280.629 47.1133 280.664 46.992 280.664 46.824V44.276C280.664 44.108 280.629 43.9867 280.559 43.912C280.493 43.8373 280.398 43.8 280.272 43.8H279.88V47.3H280.272ZM281.954 43.1H284.054V43.8H282.724V45.095H283.781V45.795H282.724V47.3H284.054V48H281.954V43.1ZM283.074 41.966H283.914L283.165 42.771H282.584L283.074 41.966ZM285.581 48.07C285.213 48.07 284.93 47.965 284.734 47.755C284.543 47.545 284.447 47.2487 284.447 46.866V44.234C284.447 43.8513 284.543 43.555 284.734 43.345C284.93 43.135 285.213 43.03 285.581 43.03C285.95 43.03 286.23 43.135 286.421 43.345C286.617 43.555 286.715 43.8513 286.715 44.234V44.752H285.987V44.185C285.987 43.8817 285.859 43.73 285.602 43.73C285.346 43.73 285.217 43.8817 285.217 44.185V46.922C285.217 47.2207 285.346 47.37 285.602 47.37C285.859 47.37 285.987 47.2207 285.987 46.922V46.173H286.715V46.866C286.715 47.2487 286.617 47.545 286.421 47.755C286.23 47.965 285.95 48.07 285.581 48.07ZM287.176 43.1H287.946V45.095H288.772V43.1H289.542V48H288.772V45.795H287.946V48H287.176V43.1ZM290.116 43.1H292.216V43.8H290.886V45.095H291.943V45.795H290.886V47.3H292.216V48H290.116V43.1ZM290.256 41.966H291.096L291.586 42.771H291.005L290.256 41.966ZM293.261 43.8H292.456V43.1H294.836V43.8H294.031V48H293.261V43.8ZM295.208 43.1H297.308V43.8H295.978V45.095H297.035V45.795H295.978V47.3H297.308V48H295.208V43.1ZM297.751 43.1H298.892C299.289 43.1 299.578 43.1933 299.76 43.38C299.942 43.562 300.033 43.8443 300.033 44.227V44.528C300.033 45.0367 299.865 45.3587 299.529 45.494V45.508C299.716 45.564 299.847 45.6783 299.921 45.851C300.001 46.0237 300.04 46.2547 300.04 46.544V47.405C300.04 47.545 300.045 47.6593 300.054 47.748C300.064 47.832 300.087 47.916 300.124 48H299.34C299.312 47.9207 299.294 47.846 299.284 47.776C299.275 47.706 299.27 47.58 299.27 47.398V46.502C299.27 46.278 299.233 46.1217 299.158 46.033C299.088 45.9443 298.965 45.9 298.787 45.9H298.521V48H297.751V43.1ZM298.801 45.2C298.955 45.2 299.07 45.1603 299.144 45.081C299.224 45.0017 299.263 44.8687 299.263 44.682V44.304C299.263 44.1267 299.231 43.9983 299.165 43.919C299.105 43.8397 299.007 43.8 298.871 43.8H298.521V45.2H298.801ZM300.575 43.1H301.345V48H300.575V43.1ZM301.921 43.1H304.021V43.8H302.691V45.095H303.748V45.795H302.691V47.3H304.021V48H301.921V43.1Z" fill="white"/>
<path d="M285.988 32.4392L281.474 32.4343C281.217 32.4343 281.005 32.2269 281.005 31.9701L281 27.4807C281 27.2931 281.114 27.1202 281.291 27.0511C281.464 26.977 281.667 27.0165 281.8 27.1498L282.684 28.0289L290.29 20.4578C290.473 20.28 290.769 20.28 290.952 20.4578L293.046 22.542C293.135 22.6309 293.184 22.7445 293.184 22.8729C293.184 22.9963 293.135 23.1149 293.046 23.2038L285.44 30.765L286.319 31.6441C286.452 31.7774 286.492 31.9799 286.418 32.1528C286.349 32.3257 286.176 32.4392 285.988 32.4392ZM281.943 31.5009L284.852 31.5058L284.442 31.0959C284.26 30.9132 284.26 30.6168 284.442 30.4341L292.048 22.8729L290.621 21.4505L283.015 29.0167C282.832 29.1994 282.536 29.1994 282.353 29.0167L281.938 28.6117" fill="white"/>
<path d="M295.54 25.673C295.179 25.673 294.833 25.5347 294.567 25.2878C294.29 25.031 294.132 24.6803 294.117 24.3001L294.048 22.1517L294.987 22.1221L295.056 24.2704C295.061 24.3988 295.115 24.5174 295.209 24.6063C295.303 24.6952 295.436 24.7297 295.559 24.7396C295.688 24.7347 295.806 24.6803 295.895 24.5865C295.984 24.4927 296.029 24.3692 296.024 24.2408L295.92 21.3763L296.858 21.3467L296.962 24.2062C296.977 24.5865 296.844 24.947 296.582 25.2236C296.32 25.5002 295.969 25.6582 295.589 25.6681C295.569 25.673 295.555 25.673 295.54 25.673Z" fill="white"/>
<path d="M295.54 25.673C295.179 25.673 294.833 25.5347 294.567 25.2878C294.29 25.031 294.132 24.6803 294.117 24.3001L294.048 22.1517L294.987 22.1221L295.056 24.2704C295.061 24.3988 295.115 24.5174 295.209 24.6063C295.303 24.6952 295.436 24.7297 295.559 24.7396C295.688 24.7347 295.806 24.6803 295.895 24.5865C295.984 24.4927 296.029 24.3692 296.024 24.2408L295.92 21.3763L296.858 21.3467L296.962 24.2062C296.977 24.5865 296.844 24.947 296.582 25.2236C296.32 25.5002 295.969 25.6582 295.589 25.6681C295.569 25.673 295.555 25.673 295.54 25.673Z" fill="white"/>
<path d="M293.643 25.9941C293.278 25.9941 292.937 25.8607 292.67 25.6138C292.394 25.352 292.231 25.0014 292.221 24.6211L292.152 22.4727L293.09 22.4431L293.159 24.5915C293.164 24.7248 293.219 24.8433 293.312 24.9322C293.406 25.0211 293.53 25.0755 293.658 25.0607C293.925 25.0508 294.137 24.8285 294.127 24.5618L294.024 21.7023L294.962 21.6677L295.066 24.5273C295.095 25.3125 294.478 25.9644 293.693 25.9941C293.673 25.9941 293.658 25.9941 293.643 25.9941Z" fill="white"/>
<path d="M295.258 32.449C295.066 32.449 294.893 32.3305 294.824 32.1576C294.75 31.9848 294.789 31.7823 294.922 31.6489L295.806 30.7698L288.201 23.2037C288.018 23.0259 288.018 22.7295 288.201 22.5468L290.29 20.4627C290.463 20.2898 290.779 20.2898 290.952 20.4627L298.893 28.3597L298.226 29.0215L290.621 21.4553L289.193 22.8777L296.799 30.4389C296.987 30.6217 296.987 30.9229 296.799 31.1007L296.389 31.5107H299.298L299.303 27.4856H300.241L300.237 31.9749C300.237 32.2317 300.029 32.4391 299.767 32.4391L295.258 32.449Z" fill="white"/>
<path d="M290.601 36.0001C290.478 36.0001 290.359 35.9557 290.265 35.8618L287.075 32.6961C286.941 32.5628 286.902 32.3603 286.971 32.1874C287.045 32.0096 287.218 31.896 287.406 31.896H288.655V23.2038C288.655 22.947 288.863 22.7346 289.124 22.7346H292.083C292.339 22.7346 292.552 22.947 292.552 23.2038V32.3652H291.613V23.673H289.593V32.3652C289.593 32.622 289.381 32.8294 289.124 32.8294H288.542L290.601 34.8741L293.461 32.0343L294.127 32.6961L290.932 35.8618C290.838 35.9557 290.72 36.0001 290.601 36.0001Z" fill="white"/>
<path d="M285.983 32.4392L281.474 32.4343C281.217 32.4343 281.005 32.2269 281.005 31.9701L281 27.4807C281 27.2931 281.114 27.1202 281.291 27.0511C281.464 26.977 281.667 27.0165 281.8 27.1498L282.684 28.0289L290.29 20.4578C290.473 20.28 290.769 20.28 290.952 20.4578L293.046 22.542C293.135 22.6309 293.184 22.7445 293.184 22.8729C293.184 22.9963 293.135 23.1149 293.046 23.2038L285.104 31.0959L284.442 30.4341L292.048 22.8729L290.621 21.4505L283.015 29.0167C282.832 29.1994 282.536 29.1994 282.353 29.0167L281.938 28.6117L281.943 31.5009L285.988 31.5058" fill="white"/>
<path d="M301.407 19.0452C301.066 19.0452 300.745 18.9119 300.503 18.6748L296.098 14.2892C295.856 14.0522 295.722 13.7311 295.722 13.3953C295.722 13.0545 295.856 12.7384 296.093 12.4964L297.239 11.3556C297.723 10.8815 298.562 10.8815 299.046 11.3556L303.452 15.7412C303.95 16.2351 303.95 17.0401 303.452 17.534L302.306 18.6748C302.064 18.9119 301.748 19.0452 301.407 19.0452ZM298.142 11.9186C298.054 11.9186 297.97 11.9581 297.905 12.0174V12.0223L296.76 13.1582C296.695 13.2224 296.661 13.3064 296.661 13.3953C296.661 13.4842 296.695 13.5682 296.76 13.6274L301.165 18.013C301.293 18.1414 301.516 18.1365 301.644 18.013L302.79 16.8771C302.918 16.7438 302.918 16.5314 302.785 16.403L298.379 12.0223C298.315 11.9581 298.231 11.9186 298.142 11.9186Z" fill="white"/>
<path d="M296.742 26.6616L293.2 23.5132L292.413 24.3003L292.019 25.8745L294.381 29.0228L296.742 26.6616Z" fill="black"/>
<path d="M295.258 32.449C295.066 32.449 294.893 32.3305 294.824 32.1576C294.75 31.9848 294.789 31.7823 294.922 31.6489L295.806 30.7698L288.201 23.2037C288.018 23.0259 288.018 22.7295 288.201 22.5468L290.29 20.4627C290.463 20.2898 290.779 20.2898 290.952 20.4627L298.562 28.0338L299.441 27.1547C299.575 27.0213 299.777 26.9818 299.955 27.0559C300.128 27.125 300.241 27.2979 300.241 27.4856L300.237 31.9749C300.237 32.2317 300.029 32.4391 299.767 32.4391L295.258 32.449ZM289.193 22.8777L296.799 30.4389C296.987 30.6217 296.987 30.9229 296.799 31.1007L296.389 31.5107H299.298L299.303 28.6165L298.893 29.0215C298.71 29.2043 298.414 29.2043 298.226 29.0215L290.621 21.4553" fill="white"/>
<path d="M287.69 32.5648H289.264V23.5132H292.019L292.413 32.5648H293.2L290.445 35.7131L287.69 32.5648Z" fill="black"/>
<path d="M290.601 36.0001C290.478 36.0001 290.359 35.9557 290.27 35.8618L287.075 32.6961C286.941 32.5628 286.902 32.3603 286.971 32.1874C287.045 32.0096 287.218 31.896 287.406 31.896H288.655V23.2038C288.655 22.947 288.863 22.7346 289.124 22.7346H292.083C292.339 22.7346 292.552 22.947 292.552 23.2038V31.896H293.791C293.984 31.896 294.157 32.0096 294.226 32.1874C294.3 32.3603 294.261 32.5628 294.127 32.6961L290.932 35.8618C290.838 35.9557 290.72 36.0001 290.601 36.0001ZM288.542 32.8294L290.601 34.8741L292.66 32.8294H292.083C291.821 32.8294 291.613 32.622 291.613 32.3652V23.673H289.593V32.3652C289.593 32.622 289.381 32.8294 289.124 32.8294" fill="white"/>
<path d="M292.413 20.8232L290.29 23.658C289.929 24.1371 290.028 24.8187 290.512 25.1742C290.991 25.5348 291.678 25.436 292.038 24.9569L293.362 23.1889C293.89 22.4974 294.483 22.2406 294.769 22.1665C295.406 21.9986 297.323 21.2825 298.35 20.6652C299.372 20.0429 299.901 18.6008 299.846 17.3611L296.789 14.3188L290.3 16.3339C289.509 16.6006 289.223 17.05 289.104 17.3167C288.986 17.5883 287.692 20.6306 287.692 20.6306C287.544 21.0109 287.46 21.4652 287.677 21.8505C287.894 22.2357 288.388 23.0061 288.388 23.0061L289.816 21.5838C289.816 21.5838 289.761 20.7985 289.944 20.3935C290.132 19.9935 290.329 19.3268 290.754 19.1736C291.174 19.0255 291.91 18.7884 291.91 18.7884C291.91 18.7884 291.845 19.628 291.994 20.0774C292.147 20.5269 292.379 20.7936 292.379 20.7936" fill="black"/>
<path d="M291.164 25.8608C290.828 25.8608 290.502 25.7521 290.23 25.5496C289.895 25.3027 289.677 24.9372 289.618 24.5273C289.564 24.1174 289.667 23.7075 289.919 23.3766L291.831 20.8232C291.737 20.6701 291.633 20.4726 291.549 20.2256C291.475 19.9935 291.44 19.7021 291.431 19.4404C291.248 19.4996 291.06 19.5639 290.912 19.6132C290.759 19.6676 290.576 20.1071 290.477 20.3392L290.374 20.5911C290.28 20.7887 290.265 21.2727 290.285 21.5542C290.295 21.6875 290.245 21.8209 290.151 21.9147L288.719 23.3371C288.62 23.4358 288.477 23.4852 288.339 23.4704C288.196 23.4556 288.072 23.3766 287.993 23.258C287.993 23.258 287.489 22.4728 287.267 22.0826C287.015 21.6332 287.01 21.085 287.257 20.4578C287.262 20.4479 288.556 17.4007 288.675 17.134C288.927 16.5611 289.435 16.1314 290.147 15.8894L296.646 13.8744C296.814 13.8201 296.997 13.8645 297.12 13.988L300.182 17.0352C300.266 17.1192 300.31 17.2278 300.315 17.3463C300.37 18.6057 299.851 20.3047 298.592 21.0603C297.525 21.7073 295.589 22.4333 294.888 22.6209C294.784 22.6456 294.241 22.8136 293.737 23.4704L292.413 25.2385C292.162 25.5694 291.801 25.7867 291.386 25.846C291.312 25.8558 291.238 25.8608 291.164 25.8608ZM291.915 18.3242C292.018 18.3242 292.122 18.3588 292.201 18.423C292.325 18.5218 292.394 18.6699 292.379 18.828C292.359 19.1144 292.354 19.6676 292.443 19.9293C292.557 20.28 292.734 20.4923 292.739 20.4923C292.922 20.6504 292.937 20.9072 292.789 21.1047L290.67 23.9347C290.566 24.068 290.527 24.231 290.552 24.394C290.571 24.5569 290.66 24.7051 290.794 24.7989C290.927 24.9027 291.09 24.9372 291.253 24.9224C291.416 24.8977 291.564 24.8088 291.663 24.6804L292.986 22.9074C293.663 22.0283 294.428 21.7715 294.651 21.7172C295.214 21.569 297.11 20.8677 298.103 20.2652C298.947 19.7565 299.372 18.5563 299.382 17.5587L296.656 14.8523L290.438 16.7784C289.988 16.9315 289.677 17.1784 289.534 17.5044C289.416 17.776 288.127 20.8134 288.127 20.8134C287.993 21.1541 287.978 21.4307 288.087 21.6184C288.181 21.7912 288.334 22.0382 288.472 22.2604L289.342 21.4011C289.337 21.0949 289.351 20.5664 289.519 20.201L289.613 19.9836C289.796 19.5392 290.053 18.9268 290.596 18.7341C291.021 18.586 291.766 18.344 291.766 18.344C291.816 18.3292 291.865 18.3242 291.915 18.3242Z" fill="white"/>
</g>
<defs>
<clipPath id="clip0_79_1996">
<rect width="322" height="61" fill="white"/>
</clipPath>
</defs>
</svg>
