<svg width="312" height="61" viewBox="0 0 312 61" fill="none" xmlns="http://www.w3.org/2000/svg">
<path d="M24.6979 60.4688C11.0781 60.4688 0 49.5208 0 36.0625V0H259.948C273.563 0 284.641 10.9479 284.641 24.4062V60.4688" fill="white"/>
<path d="M244.083 52.9114H69.1353C59.6874 52.9114 51.9999 45.3541 51.9999 36.0625V7.55725H226.948C236.396 7.55725 244.083 15.1145 244.083 24.4062V52.9114ZM227 6L50.1667 5.66663L50.1145 36.0625C50.1145 46.3958 58.6458 54.802 69.1353 54.802L245.969 55V24.4062C245.969 14.0729 237.49 6 227 6Z" fill="#010101"/>
<path d="M102.901 5.66663H50.1145V36.0625C50.1145 46.3958 58.6458 54.802 69.1353 54.802H121.927V24.4062C121.927 14.0729 113.391 5.66663 102.901 5.66663Z" fill="#010101"/>
<path d="M63.651 29.3594C58.8489 29.3594 54.9583 33.25 54.9583 38.0521C54.9583 42.8542 58.8489 46.7448 63.651 46.7448C68.4583 46.7448 72.3489 42.8542 72.3489 38.0521C72.3489 33.25 68.4583 29.3594 63.651 29.3594Z" fill="white"/>
<path d="M69.3229 39.4688H65.0729V43.7188H62.2344V39.4688H57.9844V36.6355H62.2344V32.3802H65.0729V36.6355H69.3229" fill="#1C1C1B"/>
<path d="M55.7864 26.5937V17.1979H58.2708V24.5156H61.828V26.5937" fill="white"/>
<path d="M62.9426 26.5937V17.1979H69.0155V19.276H65.4322V20.7552H68.4947V22.8385H65.4322V24.5156H69.1614V26.5937" fill="white"/>
<path d="M75.0885 26.5937V19.276H72.6041V17.1979H80.0677V19.276H77.5781V26.5937" fill="white"/>
<path d="M83.5521 21.4739H84.4479C85.4479 21.4739 85.9531 21.0625 85.9531 20.2343C85.9531 19.8281 85.8229 19.5468 85.5677 19.3958C85.3125 19.2395 84.9375 19.1614 84.4479 19.1614H83.5521V21.4739ZM81.0625 26.5989V17.1979H84.6198C85.125 17.1979 85.6042 17.2448 86.0625 17.3385C86.5208 17.4375 86.9167 17.5989 87.2604 17.8333C87.6042 18.0625 87.875 18.375 88.0781 18.7656C88.2813 19.1562 88.3802 19.6458 88.3802 20.2343C88.3802 20.9062 88.2448 21.4687 87.9688 21.9114C87.6979 22.3541 87.3281 22.6979 86.8646 22.9531L88.901 26.5989H86.125L84.5052 23.4427H83.5521V26.5989" fill="white"/>
<path d="M89.8698 26.5989H92.3593V17.1979H89.8698V26.5989Z" fill="white"/>
<path d="M75.3801 43.276V33.8698H81.5103V35.9531H77.8697V37.75H80.9895V39.8333H77.8697V43.276" fill="white"/>
<path d="M84.9218 38.7031L84.7604 39.3541H86.4948L86.3385 38.7031C86.2239 38.25 86.1041 37.7604 85.9895 37.2291C85.875 36.6979 85.7604 36.1979 85.6406 35.7239H85.5833C85.4791 36.2031 85.3698 36.7083 85.2604 37.2343C85.151 37.7604 85.0364 38.25 84.9218 38.7031ZM81.3073 43.276L84.1666 33.8698H87.1718L90.0364 43.276H87.4062L86.9427 41.276H84.3125L83.8489 43.276" fill="white"/>
<path d="M94.5624 43.4479C93.9687 43.4479 93.3958 43.3489 92.8541 43.151C92.3072 42.9531 91.8333 42.651 91.4218 42.2552C91.0103 41.8541 90.6822 41.3541 90.4426 40.75C90.203 40.1458 90.0833 39.4479 90.0833 38.6458C90.0833 37.8541 90.2083 37.151 90.4583 36.5416C90.7083 35.927 91.0416 35.4114 91.4635 34.9948C91.8801 34.5729 92.3645 34.25 92.9114 34.0312C93.4583 33.8073 94.026 33.6979 94.6249 33.6979C95.2499 33.6979 95.8124 33.8229 96.302 34.0677C96.7968 34.3125 97.2083 34.6041 97.5468 34.9427L96.2447 36.5312C96.0155 36.3333 95.776 36.1666 95.5312 36.0312C95.2812 35.9062 94.9999 35.8385 94.6822 35.8385C94.401 35.8385 94.1405 35.901 93.8958 36.026C93.651 36.151 93.4322 36.3333 93.2447 36.5625C93.0572 36.7916 92.9062 37.0781 92.7968 37.4166C92.6822 37.75 92.6301 38.1354 92.6301 38.5573C92.6301 39.4479 92.8124 40.125 93.1874 40.5989C93.5572 41.0677 94.0468 41.3073 94.651 41.3073C95.0208 41.3073 95.3437 41.2291 95.6301 41.0677C95.9114 40.9062 96.1562 40.7187 96.3593 40.4948L97.6614 42.0573C97.2551 42.5208 96.7916 42.8698 96.2655 43.0989C95.7395 43.3333 95.1718 43.4479 94.5624 43.4479Z" fill="white"/>
<path d="M98.6198 43.276H101.104V33.8698H98.6198V43.276Z" fill="white"/>
<path d="M102.875 43.276V33.8698H105.365V41.1927H108.922V43.276" fill="white"/>
<path d="M110.031 43.276V33.8698H116.109V35.9531H112.521V37.4323H115.589V39.5156H112.521V41.1927H116.255V43.276" fill="white"/>
<path fill-rule="evenodd" clip-rule="evenodd" d="M16.2604 29.1927C16.2604 29.1927 15.9115 29.151 15.6771 29.7968L13.5573 35.7083C15.224 37.1198 17.1823 38.1823 19.3281 38.8073L16.7552 29.7708C16.5781 29.125 16.2604 29.1927 16.2604 29.1927ZM5.67188 23.6979C5.67188 13.7552 13.7604 5.66663 23.7031 5.66663C28.9635 5.66663 33.7083 7.93225 37.0052 11.5364L35.3906 13.177C32.5104 9.97913 28.3385 7.9635 23.7031 7.9635C15.026 7.9635 7.96875 15.0208 7.96875 23.6979C7.96875 27.5208 9.34375 31.0312 11.6198 33.7604L14.2656 20.7968C14.7396 18.5104 16.8854 16.7552 19.0521 17.1562C20.6406 17.4583 28.0938 22.3958 28.0938 22.3958C28.7292 22.802 28.375 23.3489 28.375 23.3489C28.375 23.3489 28.0729 23.875 27.4479 23.6041L21.9792 21.4062C21.0052 20.9948 19.4323 21.4323 19.6667 24.1875L21.3802 38.7864L21.4531 39.2656C22.1875 39.375 22.9375 39.4323 23.7031 39.4323C24.1875 39.4323 24.6719 39.401 25.1458 39.3541L25.0052 37.4531L28.6979 40.2708L25.3958 43.4635L25.276 41.651C24.7552 41.6979 24.2344 41.7291 23.7031 41.7291C13.7604 41.7291 5.67188 33.6406 5.67188 23.6979ZM19.9375 16.4115C18.4167 16.4115 17.1875 15.1823 17.1875 13.6562C17.1875 12.1354 18.4167 10.9062 19.9375 10.9062C21.4583 10.9062 22.6927 12.1354 22.6927 13.6562C22.6927 15.1823 21.4583 16.4115 19.9375 16.4115ZM37.1046 24.564C37.7365 24.0543 39.7005 22.4703 40.1613 19.1927L40.2342 18.1823L42.0519 18.2864L38.0259 12.8541L33.2134 17.6927L34.979 17.7656L34.9998 17.7708C35.0415 17.9687 35.2446 19.2656 34.5571 21.3177C33.7967 23.6041 31.4373 26.2916 28.4634 25.8177C32.6457 27.5677 36.0311 25.4375 37.0936 24.5729L37.1046 24.564ZM28.375 25.8489C29.5781 28.6093 33.1146 29.1406 35.4479 28.552C37.5208 28.026 38.5052 27.1718 38.6719 27.0156L38.6615 27L37.776 25.4635L44.4427 26.9218L42.0312 33.2395L41.1354 31.6458L40.2656 32.1198C37.2654 33.4985 34.8744 32.7065 34.0978 32.4492L34.0781 32.4427C32.7812 32.0156 29.1562 30.3125 28.375 25.8489ZM28.4062 25.7448C26.7135 28.2343 28.151 31.5104 29.8958 33.1718C31.4895 34.6823 32.7655 35.0364 32.9322 35.0781L33.7447 33.5208L36.0885 39.9323L29.4635 41.2812L30.3437 39.6458L29.4478 39.1458C26.6887 37.3493 26.0817 34.9168 25.8818 34.1162L25.8749 34.0885C25.5416 32.7604 25.0468 28.7864 28.4062 25.7448Z" fill="#010101"/>
<path d="M133.148 27.146V28.444H131.432V35H129.848V28.444H128.132V27.146H133.148ZM138.224 27.146V28.444H135.419V30.292H138.059V31.59H135.419V33.702H138.334V35H133.835V27.146H138.224ZM139.131 27.146H142.057C142.717 27.146 143.23 27.3147 143.597 27.652C143.964 27.982 144.147 28.488 144.147 29.17C144.147 29.698 144.041 30.1307 143.828 30.468C143.615 30.798 143.285 31.0107 142.838 31.106V31.128C143.234 31.1867 143.524 31.315 143.707 31.513C143.89 31.711 144.004 32.03 144.048 32.47C144.063 32.6167 144.074 32.778 144.081 32.954C144.088 33.1227 144.096 33.3133 144.103 33.526C144.118 33.944 144.14 34.263 144.169 34.483C144.213 34.703 144.308 34.8533 144.455 34.934V35H142.739C142.658 34.89 142.607 34.7653 142.585 34.626C142.563 34.4793 142.548 34.329 142.541 34.175L142.497 32.668C142.482 32.36 142.405 32.118 142.266 31.942C142.127 31.766 141.892 31.678 141.562 31.678H140.715V35H139.131V27.146ZM140.715 30.578H141.375C141.756 30.578 142.05 30.49 142.255 30.314C142.46 30.1307 142.563 29.8263 142.563 29.401C142.563 28.675 142.196 28.312 141.463 28.312H140.715V30.578ZM145.243 27.146H148.169C148.829 27.146 149.343 27.3147 149.709 27.652C150.076 27.982 150.259 28.488 150.259 29.17C150.259 29.698 150.153 30.1307 149.94 30.468C149.728 30.798 149.398 31.0107 148.95 31.106V31.128C149.346 31.1867 149.636 31.315 149.819 31.513C150.003 31.711 150.116 32.03 150.16 32.47C150.175 32.6167 150.186 32.778 150.193 32.954C150.201 33.1227 150.208 33.3133 150.215 33.526C150.23 33.944 150.252 34.263 150.281 34.483C150.325 34.703 150.421 34.8533 150.567 34.934V35H148.851C148.771 34.89 148.719 34.7653 148.697 34.626C148.675 34.4793 148.661 34.329 148.653 34.175L148.609 32.668C148.595 32.36 148.518 32.118 148.378 31.942C148.239 31.766 148.004 31.678 147.674 31.678H146.827V35H145.243V27.146ZM146.827 30.578H147.487C147.869 30.578 148.162 30.49 148.367 30.314C148.573 30.1307 148.675 29.8263 148.675 29.401C148.675 28.675 148.309 28.312 147.575 28.312H146.827V30.578ZM155.745 27.146V28.444H152.94V30.292H155.58V31.59H152.94V33.702H155.855V35H151.356V27.146H155.745ZM159.93 32.041L159.171 28.51H159.149L158.39 32.041H159.93ZM160.139 27.146L162.218 35H160.568L160.205 33.339H158.115L157.752 35H156.102L158.181 27.146H160.139ZM164.249 27.146V32.624C164.249 32.822 164.26 33.0053 164.282 33.174C164.311 33.3353 164.359 33.4783 164.425 33.603C164.498 33.7203 164.594 33.8157 164.711 33.889C164.836 33.955 164.99 33.988 165.173 33.988C165.364 33.988 165.518 33.955 165.635 33.889C165.752 33.8157 165.844 33.7203 165.91 33.603C165.983 33.4783 166.031 33.3353 166.053 33.174C166.082 33.0053 166.097 32.822 166.097 32.624V27.146H167.681V32.624C167.681 33.1227 167.611 33.537 167.472 33.867C167.333 34.1897 167.146 34.4463 166.911 34.637C166.676 34.8277 166.409 34.956 166.108 35.022C165.807 35.088 165.496 35.121 165.173 35.121C164.85 35.121 164.539 35.0917 164.238 35.033C163.937 34.9743 163.67 34.857 163.435 34.681C163.2 34.4977 163.013 34.241 162.874 33.911C162.735 33.581 162.665 33.152 162.665 32.624V27.146H164.249Z" fill="black"/>
<path d="M164 6H190V55H183H164L177.5 28.5L164 6Z" fill="#010101"/>
<path d="M190 6H261C270.941 6 279 14.0589 279 24V55H190V6Z" fill="black"/>
<rect x="190" y="8" width="31" height="31" fill="black"/>
<path d="M192.881 43.1H193.924L194.722 48H193.952L193.812 47.027V47.041H192.937L192.797 48H192.083L192.881 43.1ZM193.721 46.376L193.378 43.954H193.364L193.028 46.376H193.721ZM196.076 48.07C195.703 48.07 195.42 47.965 195.229 47.755C195.038 47.5403 194.942 47.2347 194.942 46.838V46.558H195.67V46.894C195.67 47.2113 195.803 47.37 196.069 47.37C196.2 47.37 196.298 47.3327 196.363 47.258C196.433 47.1787 196.468 47.0527 196.468 46.88C196.468 46.6747 196.421 46.495 196.328 46.341C196.235 46.1823 196.062 45.9933 195.81 45.774C195.493 45.494 195.271 45.242 195.145 45.018C195.019 44.7893 194.956 44.5327 194.956 44.248C194.956 43.8607 195.054 43.562 195.25 43.352C195.446 43.1373 195.731 43.03 196.104 43.03C196.473 43.03 196.75 43.1373 196.937 43.352C197.128 43.562 197.224 43.8653 197.224 44.262V44.465H196.496V44.213C196.496 44.045 196.463 43.9237 196.398 43.849C196.333 43.7697 196.237 43.73 196.111 43.73C195.854 43.73 195.726 43.8863 195.726 44.199C195.726 44.3763 195.773 44.542 195.866 44.696C195.964 44.85 196.139 45.0367 196.391 45.256C196.713 45.536 196.935 45.7903 197.056 46.019C197.177 46.2477 197.238 46.516 197.238 46.824C197.238 47.2253 197.138 47.5333 196.937 47.748C196.741 47.9627 196.454 48.07 196.076 48.07ZM198.681 48.07C198.307 48.07 198.025 47.965 197.834 47.755C197.642 47.5403 197.547 47.2347 197.547 46.838V46.558H198.275V46.894C198.275 47.2113 198.408 47.37 198.674 47.37C198.804 47.37 198.902 47.3327 198.968 47.258C199.038 47.1787 199.073 47.0527 199.073 46.88C199.073 46.6747 199.026 46.495 198.933 46.341C198.839 46.1823 198.667 45.9933 198.415 45.774C198.097 45.494 197.876 45.242 197.75 45.018C197.624 44.7893 197.561 44.5327 197.561 44.248C197.561 43.8607 197.659 43.562 197.855 43.352C198.051 43.1373 198.335 43.03 198.709 43.03C199.077 43.03 199.355 43.1373 199.542 43.352C199.733 43.562 199.829 43.8653 199.829 44.262V44.465H199.101V44.213C199.101 44.045 199.068 43.9237 199.003 43.849C198.937 43.7697 198.842 43.73 198.716 43.73C198.459 43.73 198.331 43.8863 198.331 44.199C198.331 44.3763 198.377 44.542 198.471 44.696C198.569 44.85 198.744 45.0367 198.996 45.256C199.318 45.536 199.539 45.7903 199.661 46.019C199.782 46.2477 199.843 46.516 199.843 46.824C199.843 47.2253 199.742 47.5333 199.542 47.748C199.346 47.9627 199.059 48.07 198.681 48.07ZM201.397 48.07C201.019 48.07 200.73 47.9627 200.529 47.748C200.328 47.5333 200.228 47.23 200.228 46.838V44.262C200.228 43.87 200.328 43.5667 200.529 43.352C200.73 43.1373 201.019 43.03 201.397 43.03C201.775 43.03 202.064 43.1373 202.265 43.352C202.466 43.5667 202.566 43.87 202.566 44.262V46.838C202.566 47.23 202.466 47.5333 202.265 47.748C202.064 47.9627 201.775 48.07 201.397 48.07ZM201.397 47.37C201.663 47.37 201.796 47.209 201.796 46.887V44.213C201.796 43.891 201.663 43.73 201.397 43.73C201.131 43.73 200.998 43.891 200.998 44.213V46.887C200.998 47.209 201.131 47.37 201.397 47.37ZM204.172 48.07C203.803 48.07 203.521 47.965 203.325 47.755C203.133 47.545 203.038 47.2487 203.038 46.866V44.234C203.038 43.8513 203.133 43.555 203.325 43.345C203.521 43.135 203.803 43.03 204.172 43.03C204.54 43.03 204.82 43.135 205.012 43.345C205.208 43.555 205.306 43.8513 205.306 44.234V44.752H204.578V44.185C204.578 43.8817 204.449 43.73 204.193 43.73C203.936 43.73 203.808 43.8817 203.808 44.185V46.922C203.808 47.2207 203.936 47.37 204.193 47.37C204.449 47.37 204.578 47.2207 204.578 46.922V46.173H205.306V46.866C205.306 47.2487 205.208 47.545 205.012 47.755C204.82 47.965 204.54 48.07 204.172 48.07ZM205.766 43.1H206.536V48H205.766V43.1ZM207.708 43.1H208.751L209.549 48H208.779L208.639 47.027V47.041H207.764L207.624 48H206.91L207.708 43.1ZM208.548 46.376L208.205 43.954H208.191L207.855 46.376H208.548ZM210.203 43.8H209.398V43.1H211.778V43.8H210.973V48H210.203V43.8ZM212.151 43.1H212.921V48H212.151V43.1ZM214.611 48.07C214.233 48.07 213.944 47.9627 213.743 47.748C213.542 47.5333 213.442 47.23 213.442 46.838V44.262C213.442 43.87 213.542 43.5667 213.743 43.352C213.944 43.1373 214.233 43.03 214.611 43.03C214.989 43.03 215.278 43.1373 215.479 43.352C215.68 43.5667 215.78 43.87 215.78 44.262V46.838C215.78 47.23 215.68 47.5333 215.479 47.748C215.278 47.9627 214.989 48.07 214.611 48.07ZM214.611 47.37C214.877 47.37 215.01 47.209 215.01 46.887V44.213C215.01 43.891 214.877 43.73 214.611 43.73C214.345 43.73 214.212 43.891 214.212 44.213V46.887C214.212 47.209 214.345 47.37 214.611 47.37ZM216.301 43.1H217.267L218.016 46.033H218.03V43.1H218.716V48H217.925L217.001 44.423H216.987V48H216.301V43.1Z" fill="white"/>
<path d="M212.01 31.2217H205.203C205.051 31.2217 204.908 31.1626 204.79 31.0614L199.83 26.7762C199.72 26.6834 199.577 26.6328 199.433 26.6328H197.223V23.6636H202.276C202.951 23.6636 203.609 23.9335 204.081 24.4059L207.691 28.0247C207.852 28.1849 207.936 28.3958 207.928 28.6236C207.928 28.6826 207.919 28.7332 207.911 28.7838C207.911 28.8007 207.902 28.8176 207.902 28.826C207.86 28.9779 207.776 29.1128 207.649 29.2141C207.337 29.4924 206.823 29.4587 206.502 29.1381L203.811 26.4472C203.575 26.2111 203.187 26.2111 202.951 26.4472C202.706 26.6919 202.706 27.0799 202.951 27.3161L205.642 30.007C206.418 30.7915 207.658 30.8421 208.459 30.1335C208.645 29.9732 208.796 29.7877 208.906 29.5768L212.061 29.5852C212.289 29.5852 212.5 29.678 212.651 29.8467C212.812 30.0154 212.888 30.2263 212.871 30.4541C212.845 30.8758 212.457 31.2217 212.01 31.2217ZM212.061 28.3621L209.142 28.3536C209.083 27.9066 208.881 27.4764 208.56 27.1558L204.95 23.537C204.241 22.8369 203.271 22.432 202.276 22.432H196.616C196.278 22.432 196 22.7104 196 23.0478V27.2402C196 27.586 196.278 27.856 196.616 27.856H199.205L203.988 31.9893C204.326 32.2845 204.764 32.4448 205.203 32.4448H212.01C213.107 32.4448 214.026 31.6097 214.094 30.5384C214.128 29.9648 213.942 29.4249 213.546 29.0032C213.166 28.5983 212.618 28.3621 212.061 28.3621Z" fill="white"/>
<path d="M205.878 17.7926C206.207 16.8647 206.856 16.2911 207.666 16.232C207.717 16.232 207.767 16.232 207.818 16.232C208.586 16.232 209.328 16.6875 209.716 17.4383C209.826 17.6323 210.037 17.7588 210.264 17.7588C210.492 17.7588 210.694 17.6323 210.804 17.4383C211.226 16.6454 212.036 16.173 212.854 16.232C213.664 16.2911 214.313 16.8647 214.642 17.7926C215.435 20.028 212.289 22.7273 210.264 24.001C208.24 22.7273 205.085 20.028 205.878 17.7926ZM209.952 25.2495C210.045 25.3085 210.155 25.3338 210.264 25.3338C210.374 25.3338 210.484 25.3085 210.576 25.2495C211.251 24.8446 217.156 21.2005 215.798 17.3792C215.309 15.9958 214.237 15.1101 212.947 15.0089C211.943 14.9414 210.956 15.3463 210.264 16.0971C209.573 15.3463 208.586 14.933 207.582 15.0089C206.283 15.1101 205.211 15.9958 204.722 17.3792C203.373 21.2005 209.269 24.8446 209.952 25.2495Z" fill="white"/>
<path d="M228.59 31.07C228.212 31.07 227.923 30.9627 227.722 30.748C227.522 30.5333 227.421 30.23 227.421 29.838V27.262C227.421 26.87 227.522 26.5667 227.722 26.352C227.923 26.1373 228.212 26.03 228.59 26.03C228.968 26.03 229.258 26.1373 229.458 26.352C229.659 26.5667 229.759 26.87 229.759 27.262V29.838C229.759 30.23 229.659 30.5333 229.458 30.748C229.258 30.9627 228.968 31.07 228.59 31.07ZM228.59 30.37C228.856 30.37 228.989 30.209 228.989 29.887V27.213C228.989 26.891 228.856 26.73 228.59 26.73C228.324 26.73 228.191 26.891 228.191 27.213V29.887C228.191 30.209 228.324 30.37 228.59 30.37ZM231.4 31.07C231.027 31.07 230.742 30.965 230.546 30.755C230.35 30.5403 230.252 30.2347 230.252 29.838V26.1H231.022V29.894C231.022 30.062 231.055 30.1833 231.12 30.258C231.19 30.3327 231.288 30.37 231.414 30.37C231.54 30.37 231.636 30.3327 231.701 30.258C231.771 30.1833 231.806 30.062 231.806 29.894V26.1H232.548V29.838C232.548 30.2347 232.45 30.5403 232.254 30.755C232.058 30.965 231.773 31.07 231.4 31.07Z" fill="white"/>
<path d="M239 8H269C269.552 8 270 8.44772 270 9V39H239V8Z" fill="black"/>
<path fill-rule="evenodd" clip-rule="evenodd" d="M250.544 15.4033C248.961 15.5938 247.706 16.8741 247.504 18.4893L247.502 18.4895L247.417 19.0082C247.413 19.0193 247.411 19.0295 247.41 19.0385C247.407 19.0563 247.404 19.0741 247.402 19.0918C247.382 19.2079 247.363 19.3212 247.381 19.4384L247.38 20.5163C245.306 22.6835 244.752 24.5946 245.094 26.0503C245.21 26.5228 245.42 26.9654 245.712 27.3499C246.004 27.7344 246.371 28.0524 246.79 28.2835C246.979 28.3949 247.176 28.4914 247.38 28.5721L247.379 29.7896L247.38 29.8323C247.364 30.2129 247.413 30.5935 247.525 30.9567C247.679 31.3542 247.921 31.7102 248.23 31.997C248.419 32.19 248.626 32.3642 248.847 32.5172C249.085 32.6831 249.335 32.8293 249.595 32.9545C251.02 33.6558 252.888 34.0026 254.71 34C256.532 33.9974 258.368 33.6338 259.775 32.9183C260.117 32.7462 260.439 32.5339 260.734 32.2856C261.018 32.0456 261.265 31.7619 261.464 31.4445C261.859 30.8051 261.858 30.5484 261.856 29.9425L261.856 29.9358L261.858 19.815C261.906 19.671 261.932 19.5205 261.935 19.3686C261.935 19.2103 261.911 19.0575 261.863 18.9104C261.494 17.099 260.191 15.773 258.451 15.4466C257.777 13.9577 256.201 13 254.488 13C252.792 13 251.229 13.9393 250.544 15.4033ZM254.65 21.4173C252.262 21.4173 250.135 20.8872 248.76 20.0611C248.514 19.49 248.548 18.8163 248.569 18.6177C248.726 17.4091 249.734 16.4767 250.954 16.4767C251.074 16.4767 251.191 16.4857 251.306 16.503C251.578 15.1354 252.899 14.0979 254.488 14.0979C256.066 14.0979 257.381 15.1224 257.664 16.4773C257.683 16.4769 257.702 16.4767 257.721 16.4767C259.254 16.4767 260.601 17.7111 260.904 19.3482C260.899 19.6754 260.827 19.8454 260.768 19.9166C259.407 20.8249 257.174 21.4173 254.65 21.4173ZM246.13 25.7967C245.916 24.8583 246.227 23.6269 247.376 22.1643L247.375 27.3662L247.321 27.3338C247.029 27.1756 246.773 26.9573 246.568 26.6928C246.364 26.4282 246.214 26.1231 246.13 25.7967ZM260.733 21.1257C260.353 21.3706 259.949 21.574 259.528 21.7325C258.244 22.2294 256.506 22.5477 254.617 22.549C252.965 22.5696 251.323 22.2783 249.774 21.6898C249.326 21.5126 248.899 21.2829 248.502 21.0054L248.501 27.7608C248.863 27.8268 249.231 27.8476 249.598 27.8229C251.327 27.7155 253.206 26.6351 254.129 24.275C254.183 24.142 254.287 24.0363 254.417 23.9807C254.547 23.9251 254.693 23.9242 254.824 23.9781C254.954 24.032 255.059 24.1364 255.115 24.2687C255.171 24.401 255.174 24.5507 255.123 24.6852C254.024 27.4956 251.756 28.7856 249.658 28.9227C249.27 28.9477 248.881 28.9321 248.496 28.8761L248.501 29.831C248.488 30.0791 248.514 30.3277 248.578 30.5673C248.68 30.8039 248.831 31.0149 249.02 31.1858C249.161 31.3281 249.315 31.4568 249.479 31.57C249.669 31.7037 249.87 31.8222 250.078 31.9246C251.346 32.5482 253.018 32.8652 254.703 32.8536C256.387 32.8419 258.031 32.5327 259.276 31.8922C259.54 31.7605 259.788 31.5981 260.016 31.4083C260.211 31.2445 260.38 31.0507 260.516 30.8338C260.693 30.576 260.771 30.2604 260.735 29.9475C260.735 29.9406 260.734 29.9117 260.734 29.8799C260.734 29.8339 260.734 29.7819 260.733 29.7819L260.733 21.1257Z" fill="white"/>
<path d="M245.912 48.07C245.543 48.07 245.261 47.965 245.065 47.755C244.874 47.545 244.778 47.2487 244.778 46.866V44.234C244.778 43.8513 244.874 43.555 245.065 43.345C245.261 43.135 245.543 43.03 245.912 43.03C246.281 43.03 246.561 43.135 246.752 43.345C246.948 43.555 247.046 43.8513 247.046 44.234V44.752H246.318V44.185C246.318 43.8817 246.19 43.73 245.933 43.73C245.676 43.73 245.548 43.8817 245.548 44.185V46.922C245.548 47.2207 245.676 47.37 245.933 47.37C246.19 47.37 246.318 47.2207 246.318 46.922V46.173H247.046V46.866C247.046 47.2487 246.948 47.545 246.752 47.755C246.561 47.965 246.281 48.07 245.912 48.07ZM248.633 48.07C248.255 48.07 247.966 47.9627 247.765 47.748C247.565 47.5333 247.464 47.23 247.464 46.838V44.262C247.464 43.87 247.565 43.5667 247.765 43.352C247.966 43.1373 248.255 43.03 248.633 43.03C249.011 43.03 249.301 43.1373 249.501 43.352C249.702 43.5667 249.802 43.87 249.802 44.262V46.838C249.802 47.23 249.702 47.5333 249.501 47.748C249.301 47.9627 249.011 48.07 248.633 48.07ZM248.633 47.37C248.899 47.37 249.032 47.209 249.032 46.887V44.213C249.032 43.891 248.899 43.73 248.633 43.73C248.367 43.73 248.234 43.891 248.234 44.213V46.887C248.234 47.209 248.367 47.37 248.633 47.37ZM250.323 43.1H251.422L251.912 46.607H251.926L252.416 43.1H253.515V48H252.787V44.29H252.773L252.213 48H251.569L251.009 44.29H250.995V48H250.323V43.1ZM254.09 43.1H255.224C255.606 43.1 255.893 43.2027 256.085 43.408C256.276 43.6133 256.372 43.9143 256.372 44.311V44.794C256.372 45.1907 256.276 45.4917 256.085 45.697C255.893 45.9023 255.606 46.005 255.224 46.005H254.86V48H254.09V43.1ZM255.224 45.305C255.35 45.305 255.443 45.27 255.504 45.2C255.569 45.13 255.602 45.011 255.602 44.843V44.262C255.602 44.094 255.569 43.975 255.504 43.905C255.443 43.835 255.35 43.8 255.224 43.8H254.86V45.305H255.224ZM257.903 48.07C257.525 48.07 257.236 47.9627 257.035 47.748C256.834 47.5333 256.734 47.23 256.734 46.838V44.262C256.734 43.87 256.834 43.5667 257.035 43.352C257.236 43.1373 257.525 43.03 257.903 43.03C258.281 43.03 258.57 43.1373 258.771 43.352C258.972 43.5667 259.072 43.87 259.072 44.262V46.838C259.072 47.23 258.972 47.5333 258.771 47.748C258.57 47.9627 258.281 48.07 257.903 48.07ZM257.903 47.37C258.169 47.37 258.302 47.209 258.302 46.887V44.213C258.302 43.891 258.169 43.73 257.903 43.73C257.637 43.73 257.504 43.891 257.504 44.213V46.887C257.504 47.209 257.637 47.37 257.903 47.37ZM260.594 48.07C260.22 48.07 259.938 47.965 259.747 47.755C259.555 47.5403 259.46 47.2347 259.46 46.838V46.558H260.188V46.894C260.188 47.2113 260.321 47.37 260.587 47.37C260.717 47.37 260.815 47.3327 260.881 47.258C260.951 47.1787 260.986 47.0527 260.986 46.88C260.986 46.6747 260.939 46.495 260.846 46.341C260.752 46.1823 260.58 45.9933 260.328 45.774C260.01 45.494 259.789 45.242 259.663 45.018C259.537 44.7893 259.474 44.5327 259.474 44.248C259.474 43.8607 259.572 43.562 259.768 43.352C259.964 43.1373 260.248 43.03 260.622 43.03C260.99 43.03 261.268 43.1373 261.455 43.352C261.646 43.562 261.742 43.8653 261.742 44.262V44.465H261.014V44.213C261.014 44.045 260.981 43.9237 260.916 43.849C260.85 43.7697 260.755 43.73 260.629 43.73C260.372 43.73 260.244 43.8863 260.244 44.199C260.244 44.3763 260.29 44.542 260.384 44.696C260.482 44.85 260.657 45.0367 260.909 45.256C261.231 45.536 261.452 45.7903 261.574 46.019C261.695 46.2477 261.756 46.516 261.756 46.824C261.756 47.2253 261.655 47.5333 261.455 47.748C261.259 47.9627 260.972 48.07 260.594 48.07ZM262.799 43.8H261.994V43.1H264.374V43.8H263.569V48H262.799V43.8Z" fill="white"/>
</svg>
