<svg width="245" height="61" viewBox="0 0 245 61" fill="none" xmlns="http://www.w3.org/2000/svg">
<g clip-path="url(#clip0_79_1063)">
<path d="M24.6979 60.4688C11.0781 60.4688 0 49.5208 0 36.0625V0H219.948C233.563 0 244.641 10.9479 244.641 24.4062V60.4688" fill="white"/>
<path d="M222.083 52.9113H69.1353C59.6874 52.9113 51.9999 45.354 51.9999 36.0623V7.55713H204.948C214.396 7.55713 222.083 15.1144 222.083 24.4061V52.9113ZM204.948 5.6665H50.1145V36.0623C50.1145 46.3957 58.6458 54.8019 69.1353 54.8019H223.969V24.4061C223.969 14.0728 215.437 5.6665 204.948 5.6665Z" fill="#333347"/>
<path d="M181.714 54.8019L194.724 28.2238L181.432 5.6665H219.948C230.437 5.6665 238.969 14.0728 238.969 24.4061V54.8019" fill="#333347"/>
<path d="M102.901 5.6665H50.1145V36.0623C50.1145 46.3957 58.6458 54.8019 69.1353 54.8019H121.927V24.4061C121.927 14.0728 113.391 5.6665 102.901 5.6665Z" fill="#333347"/>
<path d="M63.651 29.3594C58.8489 29.3594 54.9583 33.25 54.9583 38.0521C54.9583 42.8542 58.8489 46.7448 63.651 46.7448C68.4583 46.7448 72.3489 42.8542 72.3489 38.0521C72.3489 33.25 68.4583 29.3594 63.651 29.3594Z" fill="white"/>
<path d="M69.3229 39.4689H65.0729V43.7189H62.2344V39.4689H57.9844V36.6356H62.2344V32.3804H65.0729V36.6356H69.3229" fill="#1C1C1B"/>
<path d="M55.7864 26.5936V17.1978H58.2708V24.5155H61.828V26.5936" fill="white"/>
<path d="M62.9426 26.5936V17.1978H69.0155V19.2759H65.4322V20.755H68.4947V22.8384H65.4322V24.5155H69.1614V26.5936" fill="white"/>
<path d="M75.0885 26.5936V19.2759H72.6041V17.1978H80.0677V19.2759H77.5781V26.5936" fill="white"/>
<path d="M83.5521 21.4738H84.4479C85.4479 21.4738 85.9531 21.0623 85.9531 20.2342C85.9531 19.828 85.8229 19.5467 85.5677 19.3957C85.3125 19.2394 84.9375 19.1613 84.4479 19.1613H83.5521V21.4738ZM81.0625 26.5988V17.1978H84.6198C85.125 17.1978 85.6042 17.2446 86.0625 17.3384C86.5208 17.4373 86.9167 17.5988 87.2604 17.8332C87.6042 18.0623 87.875 18.3748 88.0781 18.7655C88.2813 19.1561 88.3802 19.6457 88.3802 20.2342C88.3802 20.9061 88.2448 21.4686 87.9688 21.9113C87.6979 22.354 87.3281 22.6978 86.8646 22.953L88.901 26.5988H86.125L84.5052 23.4425H83.5521V26.5988" fill="white"/>
<path d="M89.8698 26.5988H92.3593V17.1978H89.8698V26.5988Z" fill="white"/>
<path d="M75.3801 43.2759V33.8696H81.5103V35.953H77.8697V37.7498H80.9895V39.8332H77.8697V43.2759" fill="white"/>
<path d="M84.9218 38.703L84.7604 39.354H86.4948L86.3385 38.703C86.2239 38.2498 86.1041 37.7603 85.9895 37.229C85.875 36.6978 85.7604 36.1978 85.6406 35.7238H85.5833C85.4791 36.203 85.3698 36.7082 85.2604 37.2342C85.151 37.7603 85.0364 38.2498 84.9218 38.703ZM81.3073 43.2759L84.1666 33.8696H87.1718L90.0364 43.2759H87.4062L86.9427 41.2759H84.3125L83.8489 43.2759" fill="white"/>
<path d="M94.5624 43.4478C93.9687 43.4478 93.3958 43.3488 92.8541 43.1509C92.3072 42.953 91.8333 42.6509 91.4218 42.255C91.0103 41.854 90.6822 41.354 90.4426 40.7498C90.203 40.1457 90.0833 39.4478 90.0833 38.6457C90.0833 37.854 90.2083 37.1509 90.4583 36.5415C90.7083 35.9269 91.0416 35.4113 91.4635 34.9946C91.8801 34.5728 92.3645 34.2498 92.9114 34.0311C93.4583 33.8071 94.026 33.6978 94.6249 33.6978C95.2499 33.6978 95.8124 33.8228 96.302 34.0675C96.7968 34.3123 97.2083 34.604 97.5468 34.9425L96.2447 36.5311C96.0155 36.3332 95.776 36.1665 95.5312 36.0311C95.2812 35.9061 94.9999 35.8384 94.6822 35.8384C94.401 35.8384 94.1405 35.9009 93.8958 36.0259C93.651 36.1509 93.4322 36.3332 93.2447 36.5623C93.0572 36.7915 92.9062 37.078 92.7968 37.4165C92.6822 37.7498 92.6301 38.1353 92.6301 38.5571C92.6301 39.4478 92.8124 40.1248 93.1874 40.5988C93.5572 41.0675 94.0468 41.3071 94.651 41.3071C95.0208 41.3071 95.3437 41.229 95.6301 41.0675C95.9114 40.9061 96.1562 40.7186 96.3593 40.4946L97.6614 42.0571C97.2551 42.5207 96.7916 42.8696 96.2655 43.0988C95.7395 43.3332 95.1718 43.4478 94.5624 43.4478Z" fill="white"/>
<path d="M98.6198 43.2759H101.104V33.8696H98.6198V43.2759Z" fill="white"/>
<path d="M102.875 43.2759V33.8696H105.365V41.1925H108.922V43.2759" fill="white"/>
<path d="M110.031 43.2759V33.8696H116.109V35.953H112.521V37.4321H115.589V39.5155H112.521V41.1925H116.255V43.2759" fill="white"/>
<path d="M28.4062 25.7446C26.7135 28.2342 28.151 31.5103 29.8958 33.1717C31.4895 34.6821 32.7655 35.0363 32.9322 35.078L33.7447 33.5207L36.0885 39.9321L29.4635 41.2811L30.3437 39.6457L29.4478 39.1457C26.6562 37.328 26.0676 34.8592 25.8749 34.0884C25.5416 32.7603 25.0468 28.7863 28.4062 25.7446Z" fill="#333347"/>
<path d="M28.375 25.8488C29.5781 28.6092 33.1146 29.1405 35.4479 28.5519C37.5208 28.0259 38.5052 27.1717 38.6719 27.0155L38.6615 26.9998L37.776 25.4634L44.4427 26.9217L42.0313 33.2394L41.1354 31.6457L40.2656 32.1196C37.2396 33.5103 34.8333 32.6925 34.0781 32.4425C32.7813 32.0155 29.1562 30.3123 28.375 25.8488Z" fill="#333347"/>
<path d="M40.1613 19.1925C39.6978 22.4894 37.7134 24.0728 37.0936 24.5728C36.0311 25.4373 32.6457 27.5675 28.4634 25.8175C31.4373 26.2915 33.7967 23.604 34.5571 21.3175C35.2446 19.2655 35.0415 17.9686 34.9998 17.7707L34.979 17.7655L33.2134 17.6925L38.0259 12.854L42.0519 18.2863L40.2342 18.1821" fill="#333347"/>
<path fill-rule="evenodd" clip-rule="evenodd" d="M19.9375 16.4115C18.4167 16.4115 17.1875 15.1823 17.1875 13.6563C17.1875 12.1354 18.4167 10.9062 19.9375 10.9062C21.4583 10.9062 22.6927 12.1354 22.6927 13.6563C22.6927 15.1823 21.4583 16.4115 19.9375 16.4115Z" fill="#333347"/>
<path d="M15.6771 29.7967C15.9115 29.1509 16.2604 29.1925 16.2604 29.1925C16.2604 29.1925 16.5781 29.1248 16.7552 29.7707L19.3281 38.8071C17.1823 38.1821 15.224 37.1196 13.5573 35.7082L15.6771 29.7967ZM23.7031 5.6665C13.7604 5.6665 5.67188 13.755 5.67188 23.6978C5.67188 33.6405 13.7604 41.729 23.7031 41.729C24.2344 41.729 24.7552 41.6978 25.276 41.6509L25.3958 43.4634L28.6979 40.2707L25.0052 37.453L25.1458 39.354C24.6719 39.4009 24.1875 39.4321 23.7031 39.4321C22.9375 39.4321 22.1875 39.3748 21.4531 39.2655L21.3802 38.7863L19.6667 24.1873C19.4323 21.4321 21.0052 20.9946 21.9792 21.4061L27.4479 23.604C28.0729 23.8748 28.375 23.3488 28.375 23.3488C28.375 23.3488 28.7292 22.8019 28.0938 22.3957C28.0938 22.3957 20.6406 17.4582 19.0521 17.1561C16.8854 16.755 14.7396 18.5103 14.2656 20.7967L11.6198 33.7603C9.34375 31.0311 7.96875 27.5207 7.96875 23.6978C7.96875 15.0207 15.026 7.96338 23.7031 7.96338C28.3385 7.96338 32.5104 9.979 35.3906 13.1769L37.0052 11.5363C33.7083 7.93213 28.9635 5.6665 23.7031 5.6665Z" fill="#333347"/>
<path d="M130.992 24.324V24.576C130.992 24.776 131.008 24.96 131.04 25.128C131.072 25.288 131.132 25.424 131.22 25.536C131.308 25.648 131.424 25.736 131.568 25.8C131.72 25.864 131.908 25.896 132.132 25.896C132.396 25.896 132.632 25.812 132.84 25.644C133.056 25.468 133.164 25.2 133.164 24.84C133.164 24.648 133.136 24.484 133.08 24.348C133.032 24.204 132.948 24.076 132.828 23.964C132.708 23.852 132.548 23.752 132.348 23.664C132.156 23.568 131.916 23.472 131.628 23.376C131.244 23.248 130.912 23.108 130.632 22.956C130.352 22.804 130.116 22.628 129.924 22.428C129.74 22.22 129.604 21.984 129.516 21.72C129.428 21.448 129.384 21.136 129.384 20.784C129.384 19.936 129.62 19.304 130.092 18.888C130.564 18.472 131.212 18.264 132.036 18.264C132.42 18.264 132.772 18.308 133.092 18.396C133.42 18.476 133.7 18.612 133.932 18.804C134.172 18.988 134.356 19.228 134.484 19.524C134.62 19.812 134.688 20.16 134.688 20.568V20.808H133.032C133.032 20.4 132.96 20.088 132.816 19.872C132.672 19.648 132.432 19.536 132.096 19.536C131.904 19.536 131.744 19.564 131.616 19.62C131.488 19.676 131.384 19.752 131.304 19.848C131.232 19.936 131.18 20.04 131.148 20.16C131.124 20.28 131.112 20.404 131.112 20.532C131.112 20.796 131.168 21.02 131.28 21.204C131.392 21.38 131.632 21.544 132 21.696L133.332 22.272C133.66 22.416 133.928 22.568 134.136 22.728C134.344 22.88 134.508 23.048 134.628 23.232C134.756 23.408 134.844 23.604 134.892 23.82C134.94 24.036 134.964 24.276 134.964 24.54C134.964 25.444 134.7 26.104 134.172 26.52C133.652 26.928 132.924 27.132 131.988 27.132C131.012 27.132 130.312 26.92 129.888 26.496C129.472 26.072 129.264 25.464 129.264 24.672V24.324H130.992ZM140.611 18.432V19.848H137.551V21.864H140.431V23.28H137.551V25.584H140.731V27H135.823V18.432H140.611ZM141.6 18.432H144.792C145.512 18.432 146.072 18.616 146.472 18.984C146.872 19.344 147.072 19.896 147.072 20.64C147.072 21.216 146.956 21.688 146.724 22.056C146.492 22.416 146.132 22.648 145.644 22.752V22.776C146.076 22.84 146.392 22.98 146.592 23.196C146.792 23.412 146.916 23.76 146.964 24.24C146.98 24.4 146.992 24.576 147 24.768C147.008 24.952 147.016 25.16 147.024 25.392C147.04 25.848 147.064 26.196 147.096 26.436C147.144 26.676 147.248 26.84 147.408 26.928V27H145.536C145.448 26.88 145.392 26.744 145.368 26.592C145.344 26.432 145.328 26.268 145.32 26.1L145.272 24.456C145.256 24.12 145.172 23.856 145.02 23.664C144.868 23.472 144.612 23.376 144.252 23.376H143.328V27H141.6V18.432ZM143.328 22.176H144.048C144.464 22.176 144.784 22.08 145.008 21.888C145.232 21.688 145.344 21.356 145.344 20.892C145.344 20.1 144.944 19.704 144.144 19.704H143.328V22.176ZM149.552 18.432L150.764 24.768H150.8L152.072 18.432H153.86L151.892 27H149.672L147.704 18.432H149.552ZM154.575 27V18.432H156.303V27H154.575ZM162.372 18.432V19.848H159.312V21.864H162.192V23.28H159.312V25.584H162.492V27H157.584V18.432H162.372ZM168.378 18.432V19.848H166.506V27H164.778V19.848H162.906V18.432H168.378ZM174.143 18.432V19.848H172.271V27H170.543V19.848H168.671V18.432H174.143ZM179.681 18.432V19.848H176.621V21.864H179.501V23.28H176.621V25.584H179.801V27H174.893V18.432H179.681ZM134.388 33.432V34.848H131.328V36.864H134.208V38.28H131.328V40.584H134.508V42H129.6V33.432H134.388ZM137.369 33.432L139.457 39.3H139.481V33.432H141.065V42H139.097L136.985 36H136.961V42H135.377V33.432H137.369ZM146.879 37.308H147.647C147.991 37.308 148.267 37.204 148.475 36.996C148.691 36.788 148.799 36.464 148.799 36.024C148.799 35.592 148.707 35.264 148.523 35.04C148.339 34.816 148.031 34.704 147.599 34.704H146.879V37.308ZM145.151 33.432H148.175C148.615 33.432 148.983 33.508 149.279 33.66C149.583 33.804 149.827 33.996 150.011 34.236C150.195 34.476 150.327 34.752 150.407 35.064C150.487 35.368 150.527 35.68 150.527 36C150.527 36.44 150.459 36.824 150.323 37.152C150.195 37.48 150.011 37.748 149.771 37.956C149.539 38.164 149.255 38.32 148.919 38.424C148.583 38.528 148.211 38.58 147.803 38.58H146.879V42H145.151V33.432ZM154.504 38.772L153.676 34.92H153.652L152.824 38.772H154.504ZM154.732 33.432L157 42H155.2L154.804 40.188H152.524L152.128 42H150.328L152.596 33.432H154.732ZM159.324 37.308H160.092C160.436 37.308 160.712 37.204 160.92 36.996C161.136 36.788 161.244 36.464 161.244 36.024C161.244 35.592 161.152 35.264 160.968 35.04C160.784 34.816 160.476 34.704 160.044 34.704H159.324V37.308ZM157.596 33.432H160.62C161.06 33.432 161.428 33.508 161.724 33.66C162.028 33.804 162.272 33.996 162.456 34.236C162.64 34.476 162.772 34.752 162.852 35.064C162.932 35.368 162.972 35.68 162.972 36C162.972 36.44 162.904 36.824 162.768 37.152C162.64 37.48 162.456 37.748 162.216 37.956C161.984 38.164 161.7 38.32 161.364 38.424C161.028 38.528 160.656 38.58 160.248 38.58H159.324V42H157.596V33.432ZM163.903 42V33.432H165.631V42H163.903ZM171.701 33.432V34.848H168.641V36.864H171.521V38.28H168.641V40.584H171.821V42H166.913V33.432H171.701ZM172.69 33.432H175.882C176.602 33.432 177.162 33.616 177.562 33.984C177.962 34.344 178.162 34.896 178.162 35.64C178.162 36.216 178.046 36.688 177.814 37.056C177.582 37.416 177.222 37.648 176.734 37.752V37.776C177.166 37.84 177.482 37.98 177.682 38.196C177.882 38.412 178.006 38.76 178.054 39.24C178.07 39.4 178.082 39.576 178.09 39.768C178.098 39.952 178.106 40.16 178.114 40.392C178.13 40.848 178.154 41.196 178.186 41.436C178.234 41.676 178.338 41.84 178.498 41.928V42H176.626C176.538 41.88 176.482 41.744 176.458 41.592C176.434 41.432 176.418 41.268 176.41 41.1L176.362 39.456C176.346 39.12 176.262 38.856 176.11 38.664C175.958 38.472 175.702 38.376 175.342 38.376H174.418V42H172.69V33.432ZM174.418 37.176H175.138C175.554 37.176 175.874 37.08 176.098 36.888C176.322 36.688 176.434 36.356 176.434 35.892C176.434 35.1 176.034 34.704 175.234 34.704H174.418V37.176Z" fill="black"/>
<path fill-rule="evenodd" clip-rule="evenodd" d="M211.197 12.9917C210.489 12.7271 209.997 12.6406 209.67 12.6452C209.338 12.6499 209.233 12.7457 209.211 12.7697C209.191 12.7911 209.158 12.8426 209.156 12.9856C209.155 13.0935 209.173 13.2211 209.209 13.3514L213.625 17.6963H216.528C217.034 17.0728 218.172 15.8497 220.078 14.1794C220.602 13.7203 220.792 13.4037 220.848 13.2371C220.879 13.1441 220.868 13.1284 220.843 13.0951L220.839 13.0896C220.774 13.001 220.62 12.8791 220.352 12.7673C220.11 12.6663 219.831 12.5973 219.575 12.5601C219.389 12.5649 219.251 12.6081 219.006 12.6965L218.957 12.7142C218.87 12.7457 218.807 12.7781 218.743 12.811C218.611 12.8791 218.474 12.9492 218.116 13.0172C217.548 13.1251 217.141 13.1334 216.683 13.0237C216.386 12.9524 216.057 12.826 215.66 12.6733L215.66 12.6732L215.66 12.6732C215.522 12.6199 215.375 12.5634 215.218 12.505L215.215 12.5046C215.205 12.5034 215.171 12.4992 215.103 12.5017C215.005 12.5053 214.878 12.5207 214.721 12.5484C214.412 12.603 214.047 12.694 213.66 12.7904L213.637 12.7962C213.255 12.8913 212.848 12.9925 212.508 13.0468C212.338 13.0739 212.162 13.0935 211.999 13.0896C211.986 13.0893 211.969 13.0891 211.947 13.0889H211.947C211.777 13.0872 211.364 13.0832 211.197 12.9917ZM213.237 11.3164C212.706 11.4374 211.732 11.5442 211.732 11.5442C211.164 11.5236 210.749 11.4099 210.402 11.3145C210.125 11.2386 209.891 11.1743 209.654 11.1777C209.117 11.1852 208.651 11.3462 208.316 11.7135C207.98 12.0836 207.873 12.5579 207.868 12.9653C207.863 13.3667 207.954 13.7551 208.067 14.0649L208.126 14.2248L212.043 18.0789C210.564 18.4041 208.986 19.063 207.531 20.2082C204.761 22.3897 202.542 26.2534 202.227 32.6479C202.207 33.0641 202.184 33.4866 202.161 33.912C202.068 35.6616 201.972 37.462 202.008 39.0902C202.052 41.0844 202.292 43.0034 203.107 44.3151C204.572 46.6711 206.968 47.8112 209.268 48.348C211.56 48.883 213.85 48.8422 215.268 48.7579C216.563 48.7331 218.698 48.6558 220.887 48.1961C223.067 47.7382 225.413 46.8786 227.016 45.2058C228.305 43.8598 228.744 41.8774 228.878 39.7527C228.983 38.0805 228.904 36.1896 228.823 34.2644L228.823 34.2638C228.8 33.7301 228.778 33.1937 228.759 32.6587C228.548 26.6489 226.338 22.879 223.569 20.6473C221.772 19.1991 219.772 18.4248 218.001 18.0891C218.574 17.4656 219.506 16.5318 220.863 15.3427C221.456 14.8235 221.868 14.3043 222.051 13.7626C222.256 13.1522 222.144 12.5834 221.83 12.152C221.553 11.7717 221.15 11.5369 220.794 11.3889C220.425 11.2351 220.029 11.1428 219.687 11.097L219.649 11.092H219.611C219.197 11.092 218.898 11.1959 218.617 11.2976L218.57 11.3145C218.314 11.4071 218.037 11.5078 217.597 11.5912C217.212 11.6645 217.189 11.6582 217.042 11.6184L217.042 11.6184C217.013 11.6105 216.98 11.6013 216.937 11.5912C216.72 11.539 216.496 11.4529 216.141 11.3164C216.127 11.311 216.103 11.2985 216.069 11.2814C215.905 11.1967 215.523 11 215.086 11C214.442 11 213.825 11.163 213.453 11.2614L213.453 11.2614L213.453 11.2615L213.453 11.2615C213.367 11.2841 213.295 11.3034 213.237 11.3164ZM208.478 21.4108C206.129 23.2603 204.054 26.6676 203.756 32.7231C203.735 33.1559 203.712 33.5897 203.689 34.0222C203.596 35.7668 203.504 37.492 203.538 39.0565C203.582 41.0386 203.83 42.5793 204.407 43.5068C205.575 45.3858 207.528 46.37 209.616 46.8573C211.702 47.3443 213.827 47.3108 215.192 47.2289L215.207 47.228L215.223 47.2277C216.495 47.2037 218.521 47.1289 220.572 46.6981C222.641 46.2636 224.624 45.489 225.91 44.1468C226.806 43.2119 227.221 41.7042 227.35 39.6564C227.45 38.0726 227.375 36.2919 227.295 34.3813C227.272 33.835 227.249 33.2782 227.229 32.7124C227.032 27.0884 224.989 23.7575 222.609 21.8391C220.802 20.3832 218.757 19.7053 217.07 19.4905C218.467 20.9563 220.051 22.4306 220.916 22.9628L220.114 24.2664C219.751 23.9038 219.206 23.4291 218.577 22.8815L218.577 22.8815C217.672 22.0929 216.593 21.1533 215.636 20.1804C215.589 20.8038 215.548 21.5006 215.531 22.1621C215.516 22.7319 215.52 23.2613 215.55 23.6891C215.565 23.9031 215.586 24.0802 215.611 24.218C215.624 24.2864 215.636 24.3394 215.648 24.3787C215.659 24.4162 215.666 24.4328 215.667 24.4343L215.777 25.0318L214.298 25.119C214.12 24.7626 214.055 24.2519 214.023 23.7962C213.988 23.2997 213.985 22.7161 214.001 22.123C214.013 21.6509 214.036 21.1638 214.066 20.6965C212.822 21.8971 211.513 22.9378 210.548 23.7056L210.547 23.7058L210.547 23.7061C210.412 23.8133 210.284 23.9151 210.164 24.0113L209.362 22.7076C210.212 22.115 211.785 20.8255 213.179 19.4313C211.695 19.6286 210.007 20.2073 208.478 21.4108Z" fill="white"/>
</g>
<defs>
<clipPath id="clip0_79_1063">
<rect width="245" height="61" fill="white"/>
</clipPath>
</defs>
</svg>
