<svg width="260" height="61" viewBox="0 0 260 61" fill="none" xmlns="http://www.w3.org/2000/svg">
<g clip-path="url(#clip0_79_915)">
<path d="M24.6979 60.4688C11.0781 60.4688 0 49.5208 0 36.0625V0H234.948C248.563 0 259.641 10.9479 259.641 24.4062V60.4688" fill="white"/>
<path d="M222.083 52.9113H69.1353C59.6874 52.9113 51.9999 45.354 51.9999 36.0623V7.55713H204.948C214.396 7.55713 222.083 15.1144 222.083 24.4061V52.9113ZM204.948 5.6665H50.1145V36.0623C50.1145 46.3957 58.6458 54.8019 69.1353 54.8019H223.969V24.4061C223.969 14.0728 215.437 5.6665 204.948 5.6665Z" fill="#333347"/>
<path d="M196.714 54.8019L209.724 28.2238L196.432 5.6665H234.948C245.437 5.6665 253.969 14.0728 253.969 24.4061V54.8019" fill="#333347"/>
<path d="M102.901 5.6665H50.1145V36.0623C50.1145 46.3957 58.6458 54.8019 69.1353 54.8019H121.927V24.4061C121.927 14.0728 113.391 5.6665 102.901 5.6665Z" fill="#333347"/>
<path d="M63.651 29.3594C58.8489 29.3594 54.9583 33.25 54.9583 38.0521C54.9583 42.8542 58.8489 46.7448 63.651 46.7448C68.4583 46.7448 72.3489 42.8542 72.3489 38.0521C72.3489 33.25 68.4583 29.3594 63.651 29.3594Z" fill="white"/>
<path d="M69.3229 39.4689H65.0729V43.7189H62.2344V39.4689H57.9844V36.6356H62.2344V32.3804H65.0729V36.6356H69.3229" fill="#1C1C1B"/>
<path d="M55.7864 26.5936V17.1978H58.2708V24.5155H61.828V26.5936" fill="white"/>
<path d="M62.9426 26.5936V17.1978H69.0155V19.2759H65.4322V20.755H68.4947V22.8384H65.4322V24.5155H69.1614V26.5936" fill="white"/>
<path d="M75.0885 26.5936V19.2759H72.6041V17.1978H80.0677V19.2759H77.5781V26.5936" fill="white"/>
<path d="M83.5521 21.4738H84.4479C85.4479 21.4738 85.9531 21.0623 85.9531 20.2342C85.9531 19.828 85.8229 19.5467 85.5677 19.3957C85.3125 19.2394 84.9375 19.1613 84.4479 19.1613H83.5521V21.4738ZM81.0625 26.5988V17.1978H84.6198C85.125 17.1978 85.6042 17.2446 86.0625 17.3384C86.5208 17.4373 86.9167 17.5988 87.2604 17.8332C87.6042 18.0623 87.875 18.3748 88.0781 18.7655C88.2813 19.1561 88.3802 19.6457 88.3802 20.2342C88.3802 20.9061 88.2448 21.4686 87.9688 21.9113C87.6979 22.354 87.3281 22.6978 86.8646 22.953L88.901 26.5988H86.125L84.5052 23.4425H83.5521V26.5988" fill="white"/>
<path d="M89.8698 26.5988H92.3593V17.1978H89.8698V26.5988Z" fill="white"/>
<path d="M75.3801 43.2759V33.8696H81.5103V35.953H77.8697V37.7498H80.9895V39.8332H77.8697V43.2759" fill="white"/>
<path d="M84.9218 38.703L84.7604 39.354H86.4948L86.3385 38.703C86.2239 38.2498 86.1041 37.7603 85.9895 37.229C85.875 36.6978 85.7604 36.1978 85.6406 35.7238H85.5833C85.4791 36.203 85.3698 36.7082 85.2604 37.2342C85.151 37.7603 85.0364 38.2498 84.9218 38.703ZM81.3073 43.2759L84.1666 33.8696H87.1718L90.0364 43.2759H87.4062L86.9427 41.2759H84.3125L83.8489 43.2759" fill="white"/>
<path d="M94.5624 43.4478C93.9687 43.4478 93.3958 43.3488 92.8541 43.1509C92.3072 42.953 91.8333 42.6509 91.4218 42.255C91.0103 41.854 90.6822 41.354 90.4426 40.7498C90.203 40.1457 90.0833 39.4478 90.0833 38.6457C90.0833 37.854 90.2083 37.1509 90.4583 36.5415C90.7083 35.9269 91.0416 35.4113 91.4635 34.9946C91.8801 34.5728 92.3645 34.2498 92.9114 34.0311C93.4583 33.8071 94.026 33.6978 94.6249 33.6978C95.2499 33.6978 95.8124 33.8228 96.302 34.0675C96.7968 34.3123 97.2083 34.604 97.5468 34.9425L96.2447 36.5311C96.0155 36.3332 95.776 36.1665 95.5312 36.0311C95.2812 35.9061 94.9999 35.8384 94.6822 35.8384C94.401 35.8384 94.1405 35.9009 93.8958 36.0259C93.651 36.1509 93.4322 36.3332 93.2447 36.5623C93.0572 36.7915 92.9062 37.078 92.7968 37.4165C92.6822 37.7498 92.6301 38.1353 92.6301 38.5571C92.6301 39.4478 92.8124 40.1248 93.1874 40.5988C93.5572 41.0675 94.0468 41.3071 94.651 41.3071C95.0208 41.3071 95.3437 41.229 95.6301 41.0675C95.9114 40.9061 96.1562 40.7186 96.3593 40.4946L97.6614 42.0571C97.2551 42.5207 96.7916 42.8696 96.2655 43.0988C95.7395 43.3332 95.1718 43.4478 94.5624 43.4478Z" fill="white"/>
<path d="M98.6198 43.2759H101.104V33.8696H98.6198V43.2759Z" fill="white"/>
<path d="M102.875 43.2759V33.8696H105.365V41.1925H108.922V43.2759" fill="white"/>
<path d="M110.031 43.2759V33.8696H116.109V35.953H112.521V37.4321H115.589V39.5155H112.521V41.1925H116.255V43.2759" fill="white"/>
<path d="M28.4062 25.7446C26.7135 28.2342 28.151 31.5103 29.8958 33.1717C31.4895 34.6821 32.7655 35.0363 32.9322 35.078L33.7447 33.5207L36.0885 39.9321L29.4635 41.2811L30.3437 39.6457L29.4478 39.1457C26.6562 37.328 26.0676 34.8592 25.8749 34.0884C25.5416 32.7603 25.0468 28.7863 28.4062 25.7446Z" fill="#333347"/>
<path d="M28.375 25.8488C29.5781 28.6092 33.1146 29.1405 35.4479 28.5519C37.5208 28.0259 38.5052 27.1717 38.6719 27.0155L38.6615 26.9998L37.776 25.4634L44.4427 26.9217L42.0313 33.2394L41.1354 31.6457L40.2656 32.1196C37.2396 33.5103 34.8333 32.6925 34.0781 32.4425C32.7813 32.0155 29.1562 30.3123 28.375 25.8488Z" fill="#333347"/>
<path d="M40.1613 19.1925C39.6978 22.4894 37.7134 24.0728 37.0936 24.5728C36.0311 25.4373 32.6457 27.5675 28.4634 25.8175C31.4373 26.2915 33.7967 23.604 34.5571 21.3175C35.2446 19.2655 35.0415 17.9686 34.9998 17.7707L34.979 17.7655L33.2134 17.6925L38.0259 12.854L42.0519 18.2863L40.2342 18.1821" fill="#333347"/>
<path fill-rule="evenodd" clip-rule="evenodd" d="M19.9375 16.4115C18.4167 16.4115 17.1875 15.1823 17.1875 13.6563C17.1875 12.1354 18.4167 10.9062 19.9375 10.9062C21.4583 10.9062 22.6927 12.1354 22.6927 13.6563C22.6927 15.1823 21.4583 16.4115 19.9375 16.4115Z" fill="#333347"/>
<path d="M15.6771 29.7967C15.9115 29.1509 16.2604 29.1925 16.2604 29.1925C16.2604 29.1925 16.5781 29.1248 16.7552 29.7707L19.3281 38.8071C17.1823 38.1821 15.224 37.1196 13.5573 35.7082L15.6771 29.7967ZM23.7031 5.6665C13.7604 5.6665 5.67188 13.755 5.67188 23.6978C5.67188 33.6405 13.7604 41.729 23.7031 41.729C24.2344 41.729 24.7552 41.6978 25.276 41.6509L25.3958 43.4634L28.6979 40.2707L25.0052 37.453L25.1458 39.354C24.6719 39.4009 24.1875 39.4321 23.7031 39.4321C22.9375 39.4321 22.1875 39.3748 21.4531 39.2655L21.3802 38.7863L19.6667 24.1873C19.4323 21.4321 21.0052 20.9946 21.9792 21.4061L27.4479 23.604C28.0729 23.8748 28.375 23.3488 28.375 23.3488C28.375 23.3488 28.7292 22.8019 28.0938 22.3957C28.0938 22.3957 20.6406 17.4582 19.0521 17.1561C16.8854 16.755 14.7396 18.5103 14.2656 20.7967L11.6198 33.7603C9.34375 31.0311 7.96875 27.5207 7.96875 23.6978C7.96875 15.0207 15.026 7.96338 23.7031 7.96338C28.3385 7.96338 32.5104 9.979 35.3906 13.1769L37.0052 11.5363C33.7083 7.93213 28.9635 5.6665 23.7031 5.6665Z" fill="#333347"/>
<path d="M130.94 24.09H131.58C131.867 24.09 132.097 24.0033 132.27 23.83C132.45 23.6567 132.54 23.3867 132.54 23.02C132.54 22.66 132.463 22.3867 132.31 22.2C132.157 22.0133 131.9 21.92 131.54 21.92H130.94V24.09ZM129.5 20.86H132.02C132.387 20.86 132.693 20.9233 132.94 21.05C133.193 21.17 133.397 21.33 133.55 21.53C133.703 21.73 133.813 21.96 133.88 22.22C133.947 22.4733 133.98 22.7333 133.98 23C133.98 23.3667 133.923 23.6867 133.81 23.96C133.703 24.2333 133.55 24.4567 133.35 24.63C133.157 24.8033 132.92 24.9333 132.64 25.02C132.36 25.1067 132.05 25.15 131.71 25.15H130.94V28H129.5V20.86ZM134.686 20.86H137.346C137.946 20.86 138.412 21.0133 138.746 21.32C139.079 21.62 139.246 22.08 139.246 22.7C139.246 23.18 139.149 23.5733 138.956 23.88C138.762 24.18 138.462 24.3733 138.056 24.46V24.48C138.416 24.5333 138.679 24.65 138.846 24.83C139.012 25.01 139.116 25.3 139.156 25.7C139.169 25.8333 139.179 25.98 139.186 26.14C139.192 26.2933 139.199 26.4667 139.206 26.66C139.219 27.04 139.239 27.33 139.266 27.53C139.306 27.73 139.392 27.8667 139.526 27.94V28H137.966C137.892 27.9 137.846 27.7867 137.826 27.66C137.806 27.5267 137.792 27.39 137.786 27.25L137.746 25.88C137.732 25.6 137.662 25.38 137.536 25.22C137.409 25.06 137.196 24.98 136.896 24.98H136.126V28H134.686V20.86ZM136.126 23.98H136.726C137.072 23.98 137.339 23.9 137.526 23.74C137.712 23.5733 137.806 23.2967 137.806 22.91C137.806 22.25 137.472 21.92 136.806 21.92H136.126V23.98ZM141.532 24.43C141.532 24.91 141.542 25.32 141.562 25.66C141.589 25.9933 141.636 26.2667 141.702 26.48C141.776 26.6867 141.876 26.84 142.002 26.94C142.136 27.0333 142.309 27.08 142.522 27.08C142.736 27.08 142.906 27.0333 143.032 26.94C143.166 26.84 143.266 26.6867 143.332 26.48C143.406 26.2667 143.452 25.9933 143.472 25.66C143.499 25.32 143.512 24.91 143.512 24.43C143.512 23.95 143.499 23.5433 143.472 23.21C143.452 22.8767 143.406 22.6033 143.332 22.39C143.266 22.1767 143.166 22.0233 143.032 21.93C142.906 21.83 142.736 21.78 142.522 21.78C142.309 21.78 142.136 21.83 142.002 21.93C141.876 22.0233 141.776 22.1767 141.702 22.39C141.636 22.6033 141.589 22.8767 141.562 23.21C141.542 23.5433 141.532 23.95 141.532 24.43ZM140.092 24.43C140.092 23.89 140.116 23.3933 140.162 22.94C140.216 22.48 140.326 22.0867 140.492 21.76C140.666 21.4333 140.912 21.18 141.232 21C141.552 20.8133 141.982 20.72 142.522 20.72C143.062 20.72 143.492 20.8133 143.812 21C144.132 21.18 144.376 21.4333 144.542 21.76C144.716 22.0867 144.826 22.48 144.872 22.94C144.926 23.3933 144.952 23.89 144.952 24.43C144.952 24.9767 144.926 25.4767 144.872 25.93C144.826 26.3833 144.716 26.7733 144.542 27.1C144.376 27.4267 144.132 27.6767 143.812 27.85C143.492 28.0233 143.062 28.11 142.522 28.11C141.982 28.11 141.552 28.0233 141.232 27.85C140.912 27.6767 140.666 27.4267 140.492 27.1C140.326 26.7733 140.216 26.3833 140.162 25.93C140.116 25.4767 140.092 24.9767 140.092 24.43ZM147.309 26.94H147.949C148.202 26.94 148.405 26.8967 148.559 26.81C148.712 26.7233 148.832 26.58 148.919 26.38C149.012 26.18 149.072 25.9167 149.099 25.59C149.132 25.2633 149.149 24.8567 149.149 24.37C149.149 23.9633 149.135 23.6067 149.109 23.3C149.082 22.9933 149.025 22.74 148.939 22.54C148.859 22.3333 148.735 22.18 148.569 22.08C148.409 21.9733 148.192 21.92 147.919 21.92H147.309V26.94ZM145.869 20.86H148.229C148.729 20.86 149.132 20.9433 149.439 21.11C149.745 21.27 149.982 21.5033 150.149 21.81C150.322 22.11 150.439 22.4733 150.499 22.9C150.559 23.3267 150.589 23.8033 150.589 24.33C150.589 24.9567 150.549 25.5033 150.469 25.97C150.395 26.43 150.265 26.81 150.079 27.11C149.892 27.41 149.642 27.6333 149.329 27.78C149.015 27.9267 148.619 28 148.139 28H145.869V20.86ZM152.891 20.86V25.84C152.891 26.02 152.901 26.1867 152.921 26.34C152.948 26.4867 152.991 26.6167 153.051 26.73C153.118 26.8367 153.204 26.9233 153.311 26.99C153.424 27.05 153.564 27.08 153.731 27.08C153.904 27.08 154.044 27.05 154.151 26.99C154.258 26.9233 154.341 26.8367 154.401 26.73C154.468 26.6167 154.511 26.4867 154.531 26.34C154.558 26.1867 154.571 26.02 154.571 25.84V20.86H156.011V25.84C156.011 26.2933 155.948 26.67 155.821 26.97C155.694 27.2633 155.524 27.4967 155.311 27.67C155.098 27.8433 154.854 27.96 154.581 28.02C154.308 28.08 154.024 28.11 153.731 28.11C153.438 28.11 153.154 28.0833 152.881 28.03C152.608 27.9767 152.364 27.87 152.151 27.71C151.938 27.5433 151.768 27.31 151.641 27.01C151.514 26.71 151.451 26.32 151.451 25.84V20.86H152.891ZM156.992 28V20.86H158.432V28H156.992ZM163.68 20.86V22.04H162.12V28H160.68V22.04H159.12V20.86H163.68ZM165.465 25.77V25.98C165.465 26.1467 165.478 26.3 165.505 26.44C165.531 26.5733 165.581 26.6867 165.655 26.78C165.728 26.8733 165.825 26.9467 165.945 27C166.071 27.0533 166.228 27.08 166.415 27.08C166.635 27.08 166.831 27.01 167.005 26.87C167.185 26.7233 167.275 26.5 167.275 26.2C167.275 26.04 167.251 25.9033 167.205 25.79C167.165 25.67 167.095 25.5633 166.995 25.47C166.895 25.3767 166.761 25.2933 166.595 25.22C166.435 25.14 166.235 25.06 165.995 24.98C165.675 24.8733 165.398 24.7567 165.165 24.63C164.931 24.5033 164.735 24.3567 164.575 24.19C164.421 24.0167 164.308 23.82 164.235 23.6C164.161 23.3733 164.125 23.1133 164.125 22.82C164.125 22.1133 164.321 21.5867 164.715 21.24C165.108 20.8933 165.648 20.72 166.335 20.72C166.655 20.72 166.948 20.7567 167.215 20.83C167.488 20.8967 167.721 21.01 167.915 21.17C168.115 21.3233 168.268 21.5233 168.375 21.77C168.488 22.01 168.545 22.3 168.545 22.64V22.84H167.165C167.165 22.5 167.105 22.24 166.985 22.06C166.865 21.8733 166.665 21.78 166.385 21.78C166.225 21.78 166.091 21.8033 165.985 21.85C165.878 21.8967 165.791 21.96 165.725 22.04C165.665 22.1133 165.621 22.2 165.595 22.3C165.575 22.4 165.565 22.5033 165.565 22.61C165.565 22.83 165.611 23.0167 165.705 23.17C165.798 23.3167 165.998 23.4533 166.305 23.58L167.415 24.06C167.688 24.18 167.911 24.3067 168.085 24.44C168.258 24.5667 168.395 24.7067 168.495 24.86C168.601 25.0067 168.675 25.17 168.715 25.35C168.755 25.53 168.775 25.73 168.775 25.95C168.775 26.7033 168.555 27.2533 168.115 27.6C167.681 27.94 167.075 28.11 166.295 28.11C165.481 28.11 164.898 27.9333 164.545 27.58C164.198 27.2267 164.025 26.72 164.025 26.06V25.77H165.465ZM130.94 36.09H131.58C131.867 36.09 132.097 36.0033 132.27 35.83C132.45 35.6567 132.54 35.3867 132.54 35.02C132.54 34.66 132.463 34.3867 132.31 34.2C132.157 34.0133 131.9 33.92 131.54 33.92H130.94V36.09ZM129.5 32.86H132.02C132.387 32.86 132.693 32.9233 132.94 33.05C133.193 33.17 133.397 33.33 133.55 33.53C133.703 33.73 133.813 33.96 133.88 34.22C133.947 34.4733 133.98 34.7333 133.98 35C133.98 35.3667 133.923 35.6867 133.81 35.96C133.703 36.2333 133.55 36.4567 133.35 36.63C133.157 36.8033 132.92 36.9333 132.64 37.02C132.36 37.1067 132.05 37.15 131.71 37.15H130.94V40H129.5V32.86ZM135.836 32.86L136.776 35.62H136.796L137.796 32.86H139.356L137.506 37.19V40H136.066V37.19L134.216 32.86H135.836ZM139.881 32.86H142.541C143.141 32.86 143.608 33.0133 143.941 33.32C144.274 33.62 144.441 34.08 144.441 34.7C144.441 35.18 144.344 35.5733 144.151 35.88C143.958 36.18 143.658 36.3733 143.251 36.46V36.48C143.611 36.5333 143.874 36.65 144.041 36.83C144.208 37.01 144.311 37.3 144.351 37.7C144.364 37.8333 144.374 37.98 144.381 38.14C144.388 38.2933 144.394 38.4667 144.401 38.66C144.414 39.04 144.434 39.33 144.461 39.53C144.501 39.73 144.588 39.8667 144.721 39.94V40H143.161C143.088 39.9 143.041 39.7867 143.021 39.66C143.001 39.5267 142.988 39.39 142.981 39.25L142.941 37.88C142.928 37.6 142.858 37.38 142.731 37.22C142.604 37.06 142.391 36.98 142.091 36.98H141.321V40H139.881V32.86ZM141.321 35.98H141.921C142.268 35.98 142.534 35.9 142.721 35.74C142.908 35.5733 143.001 35.2967 143.001 34.91C143.001 34.25 142.668 33.92 142.001 33.92H141.321V35.98ZM146.728 36.43C146.728 36.91 146.738 37.32 146.758 37.66C146.784 37.9933 146.831 38.2667 146.898 38.48C146.971 38.6867 147.071 38.84 147.198 38.94C147.331 39.0333 147.504 39.08 147.718 39.08C147.931 39.08 148.101 39.0333 148.228 38.94C148.361 38.84 148.461 38.6867 148.528 38.48C148.601 38.2667 148.648 37.9933 148.668 37.66C148.694 37.32 148.708 36.91 148.708 36.43C148.708 35.95 148.694 35.5433 148.668 35.21C148.648 34.8767 148.601 34.6033 148.528 34.39C148.461 34.1767 148.361 34.0233 148.228 33.93C148.101 33.83 147.931 33.78 147.718 33.78C147.504 33.78 147.331 33.83 147.198 33.93C147.071 34.0233 146.971 34.1767 146.898 34.39C146.831 34.6033 146.784 34.8767 146.758 35.21C146.738 35.5433 146.728 35.95 146.728 36.43ZM145.288 36.43C145.288 35.89 145.311 35.3933 145.358 34.94C145.411 34.48 145.521 34.0867 145.688 33.76C145.861 33.4333 146.108 33.18 146.428 33C146.748 32.8133 147.178 32.72 147.718 32.72C148.258 32.72 148.688 32.8133 149.008 33C149.328 33.18 149.571 33.4333 149.738 33.76C149.911 34.0867 150.021 34.48 150.068 34.94C150.121 35.3933 150.148 35.89 150.148 36.43C150.148 36.9767 150.121 37.4767 150.068 37.93C150.021 38.3833 149.911 38.7733 149.738 39.1C149.571 39.4267 149.328 39.6767 149.008 39.85C148.688 40.0233 148.258 40.11 147.718 40.11C147.178 40.11 146.748 40.0233 146.428 39.85C146.108 39.6767 145.861 39.4267 145.688 39.1C145.521 38.7733 145.411 38.3833 145.358 37.93C145.311 37.4767 145.288 36.9767 145.288 36.43ZM155.174 32.86V34.04H153.614V40H152.174V34.04H150.614V32.86H155.174ZM159.789 32.86V34.04H157.239V35.72H159.639V36.9H157.239V38.82H159.889V40H155.799V32.86H159.789ZM163.663 35.27C163.663 34.75 163.6 34.3733 163.473 34.14C163.353 33.9 163.13 33.78 162.803 33.78C162.623 33.78 162.473 33.83 162.353 33.93C162.24 34.0233 162.15 34.18 162.083 34.4C162.017 34.6133 161.97 34.8967 161.943 35.25C161.917 35.5967 161.903 36.0233 161.903 36.53C161.903 37.07 161.92 37.5067 161.953 37.84C161.993 38.1733 162.05 38.4333 162.123 38.62C162.203 38.8 162.3 38.9233 162.413 38.99C162.533 39.05 162.67 39.08 162.823 39.08C162.95 39.08 163.067 39.06 163.173 39.02C163.287 38.9733 163.383 38.8867 163.463 38.76C163.543 38.6267 163.607 38.4433 163.653 38.21C163.7 37.97 163.723 37.6567 163.723 37.27H165.163C165.163 37.6567 165.133 38.0233 165.073 38.37C165.013 38.7167 164.9 39.02 164.733 39.28C164.573 39.54 164.343 39.7433 164.043 39.89C163.75 40.0367 163.367 40.11 162.893 40.11C162.353 40.11 161.923 40.0233 161.603 39.85C161.283 39.6767 161.037 39.4267 160.863 39.1C160.697 38.7733 160.587 38.3833 160.533 37.93C160.487 37.4767 160.463 36.9767 160.463 36.43C160.463 35.89 160.487 35.3933 160.533 34.94C160.587 34.48 160.697 34.0867 160.863 33.76C161.037 33.4333 161.283 33.18 161.603 33C161.923 32.8133 162.353 32.72 162.893 32.72C163.407 32.72 163.81 32.8033 164.103 32.97C164.403 33.1367 164.627 33.35 164.773 33.61C164.92 33.8633 165.01 34.14 165.043 34.44C165.083 34.7333 165.103 35.01 165.103 35.27H163.663ZM165.984 32.86H167.424V35.59H169.104V32.86H170.544V40H169.104V36.83H167.424V40H165.984V32.86ZM173.201 32.86L174.941 37.75H174.961V32.86H176.281V40H174.641L172.881 35H172.861V40H171.541V32.86H173.201ZM177.353 40V32.86H178.793V40H177.353ZM181.151 36.43C181.151 36.91 181.161 37.32 181.181 37.66C181.208 37.9933 181.255 38.2667 181.321 38.48C181.395 38.6867 181.495 38.84 181.621 38.94C181.755 39.0333 181.928 39.08 182.141 39.08C182.355 39.08 182.525 39.0333 182.651 38.94C182.785 38.84 182.885 38.6867 182.951 38.48C183.025 38.2667 183.071 37.9933 183.091 37.66C183.118 37.32 183.131 36.91 183.131 36.43C183.131 35.95 183.118 35.5433 183.091 35.21C183.071 34.8767 183.025 34.6033 182.951 34.39C182.885 34.1767 182.785 34.0233 182.651 33.93C182.525 33.83 182.355 33.78 182.141 33.78C181.928 33.78 181.755 33.83 181.621 33.93C181.495 34.0233 181.395 34.1767 181.321 34.39C181.255 34.6033 181.208 34.8767 181.181 35.21C181.161 35.5433 181.151 35.95 181.151 36.43ZM183.941 40.85L183.091 40C182.825 40.0733 182.508 40.11 182.141 40.11C181.601 40.11 181.171 40.0233 180.851 39.85C180.531 39.6767 180.285 39.4267 180.111 39.1C179.945 38.7733 179.835 38.3833 179.781 37.93C179.735 37.4767 179.711 36.9767 179.711 36.43C179.711 35.89 179.735 35.3933 179.781 34.94C179.835 34.48 179.945 34.0867 180.111 33.76C180.285 33.4333 180.531 33.18 180.851 33C181.171 32.8133 181.601 32.72 182.141 32.72C182.681 32.72 183.111 32.8133 183.431 33C183.751 33.18 183.995 33.4333 184.161 33.76C184.335 34.0867 184.445 34.48 184.491 34.94C184.545 35.3933 184.571 35.89 184.571 36.43C184.571 37.0367 184.538 37.5867 184.471 38.08C184.405 38.5733 184.255 38.99 184.021 39.33L184.791 40.08L183.941 40.85ZM186.768 32.86V37.84C186.768 38.02 186.778 38.1867 186.798 38.34C186.825 38.4867 186.868 38.6167 186.928 38.73C186.995 38.8367 187.081 38.9233 187.188 38.99C187.301 39.05 187.441 39.08 187.608 39.08C187.781 39.08 187.921 39.05 188.028 38.99C188.135 38.9233 188.218 38.8367 188.278 38.73C188.345 38.6167 188.388 38.4867 188.408 38.34C188.435 38.1867 188.448 38.02 188.448 37.84V32.86H189.888V37.84C189.888 38.2933 189.825 38.67 189.698 38.97C189.571 39.2633 189.401 39.4967 189.188 39.67C188.975 39.8433 188.731 39.96 188.458 40.02C188.185 40.08 187.901 40.11 187.608 40.11C187.315 40.11 187.031 40.0833 186.758 40.03C186.485 39.9767 186.241 39.87 186.028 39.71C185.815 39.5433 185.645 39.31 185.518 39.01C185.391 38.71 185.328 38.32 185.328 37.84V32.86H186.768ZM194.789 32.86V34.04H192.239V35.72H194.639V36.9H192.239V38.82H194.889V40H190.799V32.86H194.789ZM196.773 37.77V37.98C196.773 38.1467 196.787 38.3 196.813 38.44C196.84 38.5733 196.89 38.6867 196.963 38.78C197.037 38.8733 197.133 38.9467 197.253 39C197.38 39.0533 197.537 39.08 197.723 39.08C197.943 39.08 198.14 39.01 198.313 38.87C198.493 38.7233 198.583 38.5 198.583 38.2C198.583 38.04 198.56 37.9033 198.513 37.79C198.473 37.67 198.403 37.5633 198.303 37.47C198.203 37.3767 198.07 37.2933 197.903 37.22C197.743 37.14 197.543 37.06 197.303 36.98C196.983 36.8733 196.707 36.7567 196.473 36.63C196.24 36.5033 196.043 36.3567 195.883 36.19C195.73 36.0167 195.617 35.82 195.543 35.6C195.47 35.3733 195.433 35.1133 195.433 34.82C195.433 34.1133 195.63 33.5867 196.023 33.24C196.417 32.8933 196.957 32.72 197.643 32.72C197.963 32.72 198.257 32.7567 198.523 32.83C198.797 32.8967 199.03 33.01 199.223 33.17C199.423 33.3233 199.577 33.5233 199.683 33.77C199.797 34.01 199.853 34.3 199.853 34.64V34.84H198.473C198.473 34.5 198.413 34.24 198.293 34.06C198.173 33.8733 197.973 33.78 197.693 33.78C197.533 33.78 197.4 33.8033 197.293 33.85C197.187 33.8967 197.1 33.96 197.033 34.04C196.973 34.1133 196.93 34.2 196.903 34.3C196.883 34.4 196.873 34.5033 196.873 34.61C196.873 34.83 196.92 35.0167 197.013 35.17C197.107 35.3167 197.307 35.4533 197.613 35.58L198.723 36.06C198.997 36.18 199.22 36.3067 199.393 36.44C199.567 36.5667 199.703 36.7067 199.803 36.86C199.91 37.0067 199.983 37.17 200.023 37.35C200.063 37.53 200.083 37.73 200.083 37.95C200.083 38.7033 199.863 39.2533 199.423 39.6C198.99 39.94 198.383 40.11 197.603 40.11C196.79 40.11 196.207 39.9333 195.853 39.58C195.507 39.2267 195.333 38.72 195.333 38.06V37.77H196.773Z" fill="black"/>
<path d="M222.337 36.8405L216.602 36.8342C216.276 36.8342 216.006 36.5707 216.006 36.2444L216 30.5407C216 30.3023 216.144 30.0827 216.37 29.9948C216.59 29.9007 216.847 29.9509 217.016 30.1203L218.14 31.2372L227.803 21.6181C228.035 21.3923 228.411 21.3923 228.643 21.6181L231.304 24.2661C231.417 24.379 231.48 24.5233 231.48 24.6865C231.48 24.8433 231.417 24.9939 231.304 25.1069L221.641 34.7134L222.758 35.8303C222.927 35.9997 222.977 36.257 222.883 36.4766C222.795 36.6962 222.576 36.8405 222.337 36.8405ZM217.198 35.6483L220.894 35.6546L220.373 35.1338C220.141 34.9016 220.141 34.5252 220.373 34.293L230.036 24.6865L228.223 22.8794L218.56 32.4922C218.328 32.7243 217.951 32.7243 217.719 32.4922L217.192 31.9776" fill="white"/>
<path d="M234.473 28.2444C234.015 28.2444 233.575 28.0687 233.237 27.755C232.885 27.4287 232.684 26.9832 232.666 26.5001L232.578 23.7706L233.77 23.7329L233.858 26.4624C233.864 26.6256 233.933 26.7761 234.052 26.8891C234.171 27.002 234.341 27.046 234.498 27.0585C234.661 27.0522 234.811 26.9832 234.924 26.864C235.037 26.7448 235.094 26.5879 235.088 26.4248L234.956 22.7855L236.148 22.7478L236.28 26.3808C236.299 26.864 236.129 27.322 235.797 27.6734C235.464 28.0248 235.019 28.2256 234.535 28.2381C234.51 28.2444 234.491 28.2444 234.473 28.2444Z" fill="white"/>
<path d="M234.473 28.2444C234.015 28.2444 233.575 28.0687 233.237 27.755C232.885 27.4287 232.684 26.9832 232.666 26.5001L232.578 23.7706L233.77 23.7329L233.858 26.4624C233.864 26.6256 233.933 26.7761 234.052 26.8891C234.171 27.002 234.341 27.046 234.498 27.0585C234.661 27.0522 234.811 26.9832 234.924 26.864C235.037 26.7448 235.094 26.5879 235.088 26.4248L234.956 22.7855L236.148 22.7478L236.28 26.3808C236.299 26.864 236.129 27.322 235.797 27.6734C235.464 28.0248 235.019 28.2256 234.535 28.2381C234.51 28.2444 234.491 28.2444 234.473 28.2444Z" fill="white"/>
<path d="M232.063 28.6521C231.599 28.6521 231.166 28.4827 230.827 28.169C230.476 27.8364 230.269 27.3909 230.256 26.9078L230.168 24.1783L231.36 24.1406L231.448 26.8701C231.455 27.0395 231.524 27.1901 231.643 27.3031C231.762 27.416 231.919 27.485 232.082 27.4662C232.421 27.4537 232.691 27.1713 232.678 26.8325L232.546 23.1994L233.739 23.1555L233.87 26.7886C233.908 27.7862 233.124 28.6145 232.126 28.6521C232.101 28.6521 232.082 28.6521 232.063 28.6521Z" fill="white"/>
<path d="M234.115 36.8531C233.87 36.8531 233.651 36.7025 233.563 36.4829C233.469 36.2632 233.519 36.006 233.688 35.8366L234.811 34.7197L225.148 25.1069C224.916 24.881 224.916 24.5045 225.148 24.2723L227.803 21.6244C228.022 21.4048 228.424 21.4048 228.643 21.6244L238.733 31.6576L237.886 32.4984L228.223 22.8856L226.41 24.6927L236.073 34.2993C236.311 34.5314 236.311 34.9142 236.073 35.1401L235.552 35.6609H239.248L239.254 30.547H240.446L240.44 36.2507C240.44 36.577 240.176 36.8405 239.844 36.8405L234.115 36.8531Z" fill="white"/>
<path d="M228.198 41.3648C228.041 41.3648 227.891 41.3083 227.771 41.1891L223.718 37.167C223.548 36.9976 223.498 36.7403 223.586 36.5207C223.68 36.2948 223.9 36.1505 224.138 36.1505H225.726V25.1071C225.726 24.7808 225.989 24.511 226.322 24.511H230.08C230.407 24.511 230.677 24.7808 230.677 25.1071V36.7466H229.484V25.7032H226.918V36.7466C226.918 37.0729 226.648 37.3364 226.322 37.3364H225.581L228.198 39.9341L231.831 36.3262L232.678 37.167L228.618 41.1891C228.499 41.3083 228.349 41.3648 228.198 41.3648Z" fill="white"/>
<path d="M222.331 36.8405L216.602 36.8342C216.276 36.8342 216.006 36.5707 216.006 36.2444L216 30.5407C216 30.3023 216.144 30.0827 216.37 29.9948C216.59 29.9007 216.847 29.9509 217.016 30.1203L218.14 31.2372L227.803 21.6181C228.035 21.3923 228.411 21.3923 228.643 21.6181L231.304 24.2661C231.417 24.379 231.48 24.5233 231.48 24.6865C231.48 24.8433 231.417 24.9939 231.304 25.1069L221.214 35.1338L220.373 34.293L230.036 24.6865L228.223 22.8794L218.56 32.4922C218.328 32.7243 217.951 32.7243 217.719 32.4922L217.192 31.9776L217.198 35.6483L222.337 35.6546" fill="white"/>
<path d="M241.927 19.8237C241.494 19.8237 241.086 19.6543 240.779 19.3531L235.182 13.7812C234.874 13.48 234.705 13.0722 234.705 12.6455C234.705 12.2126 234.874 11.811 235.175 11.5035L236.631 10.0541C237.246 9.4517 238.313 9.4517 238.928 10.0541L244.525 15.626C245.158 16.2534 245.158 17.2762 244.525 17.9037L243.069 19.3531C242.762 19.6543 242.36 19.8237 241.927 19.8237ZM237.779 10.7694C237.666 10.7694 237.56 10.8196 237.478 10.8949V10.9012L236.023 12.3443C235.941 12.4259 235.897 12.5326 235.897 12.6455C235.897 12.7585 235.941 12.8651 236.023 12.9404L241.62 18.5123C241.783 18.6755 242.065 18.6692 242.228 18.5123L243.684 17.0692C243.847 16.8997 243.847 16.6299 243.678 16.4668L238.081 10.9012C237.999 10.8196 237.892 10.7694 237.779 10.7694Z" fill="white"/>
<path d="M236 29.5L231.5 25.5L230.5 26.5L230 28.5L233 32.5L236 29.5Z" fill="#333347"/>
<path d="M234.115 36.8531C233.87 36.8531 233.651 36.7025 233.563 36.4829C233.469 36.2632 233.519 36.006 233.688 35.8366L234.811 34.7197L225.148 25.1069C224.916 24.881 224.916 24.5045 225.148 24.2723L227.803 21.6244C228.022 21.4048 228.424 21.4048 228.643 21.6244L238.313 31.2435L239.43 30.1266C239.599 29.9572 239.856 29.907 240.082 30.0011C240.302 30.089 240.446 30.3086 240.446 30.547L240.44 36.2507C240.44 36.577 240.176 36.8405 239.844 36.8405L234.115 36.8531ZM226.41 24.6927L236.073 34.2993C236.311 34.5314 236.311 34.9142 236.073 35.1401L235.552 35.6609H239.248L239.254 31.9839L238.733 32.4984C238.501 32.7306 238.124 32.7306 237.886 32.4984L228.223 22.8856" fill="white"/>
<path d="M224.5 37.0002H226.5V25.5002H230L230.5 37.0002H231.5L228 41.0002L224.5 37.0002Z" fill="#333347"/>
<path d="M228.198 41.3648C228.041 41.3648 227.891 41.3083 227.778 41.1891L223.718 37.167C223.548 36.9976 223.498 36.7403 223.586 36.5207C223.68 36.2948 223.9 36.1505 224.138 36.1505H225.726V25.1071C225.726 24.7808 225.989 24.511 226.322 24.511H230.08C230.407 24.511 230.677 24.7808 230.677 25.1071V36.1505H232.251C232.496 36.1505 232.716 36.2948 232.804 36.5207C232.898 36.7403 232.848 36.9976 232.678 37.167L228.618 41.1891C228.499 41.3083 228.349 41.3648 228.198 41.3648ZM225.581 37.3364L228.198 39.9341L230.815 37.3364H230.08C229.748 37.3364 229.484 37.0729 229.484 36.7466V25.7032H226.918V36.7466C226.918 37.0729 226.648 37.3364 226.322 37.3364" fill="white"/>
<path d="M230.501 22.0826L227.803 25.6843C227.345 26.2929 227.47 27.1588 228.085 27.6106C228.694 28.0686 229.566 27.9431 230.024 27.3345L231.706 25.0882C232.377 24.2097 233.13 23.8834 233.494 23.7893C234.303 23.576 236.738 22.6661 238.043 21.8818C239.342 21.0912 240.013 19.259 239.944 17.684L236.06 13.8188L227.815 16.3789C226.811 16.7177 226.447 17.2887 226.297 17.6276C226.146 17.9727 224.502 21.8379 224.502 21.8379C224.314 22.321 224.207 22.8983 224.483 23.3877C224.759 23.8772 225.387 24.856 225.387 24.856L227.2 23.0489C227.2 23.0489 227.131 22.0512 227.363 21.5367C227.602 21.0284 227.853 20.1814 228.393 19.9869C228.926 19.7986 229.861 19.4974 229.861 19.4974C229.861 19.4974 229.779 20.5641 229.967 21.1351C230.162 21.7061 230.457 22.0449 230.457 22.0449" fill="#333347"/>
<path d="M228.913 28.4827C228.487 28.4827 228.072 28.3447 227.727 28.0874C227.301 27.7737 227.025 27.3094 226.949 26.7886C226.88 26.2678 227.012 25.747 227.332 25.3266L229.76 22.0826C229.641 21.8881 229.509 21.6371 229.403 21.3233C229.309 21.0284 229.265 20.6582 229.252 20.3257C229.02 20.401 228.782 20.4825 228.593 20.5453C228.399 20.6143 228.167 21.1728 228.041 21.4677L227.909 21.7877C227.79 22.0387 227.771 22.6536 227.796 23.0112C227.809 23.1806 227.746 23.3501 227.627 23.4693L225.807 25.2764C225.682 25.4019 225.5 25.4646 225.324 25.4458C225.142 25.427 224.985 25.3266 224.885 25.176C224.885 25.176 224.245 24.1783 223.963 23.6826C223.643 23.1116 223.636 22.4151 223.95 21.6183C223.956 21.6057 225.6 17.7342 225.751 17.3954C226.071 16.6675 226.717 16.1216 227.621 15.8142L235.878 13.2541C236.092 13.1851 236.324 13.2416 236.481 13.3984L240.371 17.2699C240.478 17.3766 240.534 17.5146 240.54 17.6652C240.609 19.2653 239.95 21.4237 238.35 22.3838C236.995 23.2057 234.535 24.1281 233.644 24.3666C233.513 24.3979 232.822 24.6113 232.182 25.4458L230.501 27.6921C230.181 28.1125 229.723 28.3886 229.196 28.4639C229.102 28.4765 229.007 28.4827 228.913 28.4827ZM229.867 18.9076C229.999 18.9076 230.131 18.9515 230.231 19.0331C230.388 19.1586 230.476 19.3468 230.457 19.5476C230.432 19.9115 230.425 20.6143 230.538 20.9469C230.683 21.3924 230.909 21.6622 230.915 21.6622C231.147 21.863 231.166 22.1892 230.978 22.4402L228.286 26.0356C228.154 26.205 228.104 26.4121 228.135 26.6192C228.16 26.8262 228.273 27.0145 228.443 27.1337C228.612 27.2655 228.819 27.3094 229.026 27.2906C229.233 27.2592 229.422 27.1462 229.547 26.9831L231.229 24.7305C232.088 23.6136 233.061 23.2873 233.343 23.2183C234.059 23.0301 236.468 22.1391 237.729 21.3735C238.802 20.7272 239.342 19.2025 239.354 17.935L235.891 14.4965L227.991 16.9436C227.42 17.1381 227.025 17.4519 226.843 17.866C226.692 18.2111 225.054 22.07 225.054 22.07C224.885 22.503 224.866 22.8544 225.004 23.0928C225.123 23.3124 225.318 23.6262 225.494 23.9085L226.598 22.8167C226.592 22.4277 226.61 21.7563 226.824 21.292L226.943 21.0159C227.175 20.4512 227.501 19.6731 228.192 19.4284C228.731 19.2402 229.679 18.9327 229.679 18.9327C229.742 18.9139 229.804 18.9076 229.867 18.9076Z" fill="white"/>
<path d="M214.369 44.7H215.881C216.373 44.7 216.742 44.832 216.988 45.096C217.234 45.36 217.357 45.747 217.357 46.257V49.443C217.357 49.953 217.234 50.34 216.988 50.604C216.742 50.868 216.373 51 215.881 51H214.369V44.7ZM215.863 50.1C216.025 50.1 216.148 50.052 216.232 49.956C216.322 49.86 216.367 49.704 216.367 49.488V46.212C216.367 45.996 216.322 45.84 216.232 45.744C216.148 45.648 216.025 45.6 215.863 45.6H215.359V50.1H215.863ZM218.025 44.7H220.725V45.6H219.015V47.265H220.374V48.165H219.015V50.1H220.725V51H218.025V44.7ZM219.465 43.242H220.545L219.582 44.277H218.835L219.465 43.242ZM222.69 51.09C222.216 51.09 221.853 50.955 221.601 50.685C221.355 50.415 221.232 50.034 221.232 49.542V46.158C221.232 45.666 221.355 45.285 221.601 45.015C221.853 44.745 222.216 44.61 222.69 44.61C223.164 44.61 223.524 44.745 223.77 45.015C224.022 45.285 224.148 45.666 224.148 46.158V46.824H223.212V46.095C223.212 45.705 223.047 45.51 222.717 45.51C222.387 45.51 222.222 45.705 222.222 46.095V49.614C222.222 49.998 222.387 50.19 222.717 50.19C223.047 50.19 223.212 49.998 223.212 49.614V48.651H224.148V49.542C224.148 50.034 224.022 50.415 223.77 50.685C223.524 50.955 223.164 51.09 222.69 51.09ZM224.74 44.7H225.73V47.265H226.792V44.7H227.782V51H226.792V48.165H225.73V51H224.74V44.7ZM228.519 44.7H231.219V45.6H229.509V47.265H230.868V48.165H229.509V50.1H231.219V51H228.519V44.7ZM228.699 43.242H229.779L230.409 44.277H229.662L228.699 43.242ZM232.563 45.6H231.528V44.7H234.588V45.6H233.553V51H232.563V45.6ZM235.067 44.7H237.767V45.6H236.057V47.265H237.416V48.165H236.057V50.1H237.767V51H235.067V44.7ZM238.337 44.7H239.804C240.314 44.7 240.686 44.82 240.92 45.06C241.154 45.294 241.271 45.657 241.271 46.149V46.536C241.271 47.19 241.055 47.604 240.623 47.778V47.796C240.863 47.868 241.031 48.015 241.127 48.237C241.229 48.459 241.28 48.756 241.28 49.128V50.235C241.28 50.415 241.286 50.562 241.298 50.676C241.31 50.784 241.34 50.892 241.388 51H240.38C240.344 50.898 240.32 50.802 240.308 50.712C240.296 50.622 240.29 50.46 240.29 50.226V49.074C240.29 48.786 240.242 48.585 240.146 48.471C240.056 48.357 239.897 48.3 239.669 48.3H239.327V51H238.337V44.7ZM239.687 47.4C239.885 47.4 240.032 47.349 240.128 47.247C240.23 47.145 240.281 46.974 240.281 46.734V46.248C240.281 46.02 240.239 45.855 240.155 45.753C240.077 45.651 239.951 45.6 239.777 45.6H239.327V47.4H239.687ZM241.967 44.7H242.957V51H241.967V44.7ZM243.698 44.7H246.398V45.6H244.688V47.265H246.047V48.165H244.688V50.1H246.398V51H243.698V44.7Z" fill="white"/>
</g>
<defs>
<clipPath id="clip0_79_915">
<rect width="260" height="61" fill="white"/>
</clipPath>
</defs>
</svg>
