<svg width="50" height="50" viewBox="0 0 50 50" fill="none" xmlns="http://www.w3.org/2000/svg">
<g opacity="0.6" clip-path="url(#clip0_5735_33005)">
<path d="M28.0805 29.3617C15.8439 29.3617 6.25903 25.3216 6.25903 20.1609C6.25903 15.0001 15.8439 10.96 28.0805 10.96C40.3171 10.96 49.9019 15.0001 49.9019 20.1609C49.9019 25.3216 40.3171 29.3617 28.0805 29.3617ZM28.0805 12.7412C16.0983 12.7412 8.04475 16.576 8.04475 20.1564C8.04475 23.7367 16.0939 27.5716 28.0805 27.5716C40.0671 27.5716 48.1162 23.7367 48.1162 20.1564C48.1162 16.576 40.0671 12.7412 28.0805 12.7412Z" fill="#004241"/>
<path d="M49.0045 21.6296C49.0045 21.6296 49.7724 41.5984 28.076 41.5984C6.37953 41.5984 7.15185 21.6296 7.15185 21.6296" fill="#DFFDF7"/>
<path d="M28.0804 42.4911C21.1206 42.4911 15.6697 40.4911 11.8706 36.5403C5.99558 30.4331 6.25004 21.9554 6.26343 21.5938C6.28129 21.1028 6.70093 20.7188 7.192 20.7367C7.68308 20.7545 8.067 21.1697 8.04915 21.6653C8.04915 21.7456 7.82147 29.7679 13.1697 35.317C16.6206 38.8929 21.6384 40.7054 28.0849 40.7054C34.5313 40.7054 39.5625 38.8885 43.009 35.3036C48.3661 29.7367 48.1206 21.7456 48.1161 21.6653C48.0982 21.1742 48.4822 20.759 48.9732 20.7367C49.4643 20.7188 49.8795 21.1028 49.9018 21.5938C49.9152 21.951 50.1697 30.4331 44.2947 36.5403C40.4956 40.4867 35.0402 42.4911 28.0849 42.4911H28.0804Z" fill="#3F5753"/>
<path d="M10.4731 14.5982C10.4731 14.5982 12.9374 11.5581 14.7589 8.58485C16.8437 5.17413 18.991 5.95985 19.8258 8.58485C20.6606 11.2098 22.1696 14.4554 27.0714 14.5982C32.8749 14.7679 37.5133 12.0179 37.3303 7.37056C37.1606 3.15628 41.7767 7.48663 43.183 11.9866C43.4999 12.9956 44.0222 13.9241 44.6874 14.75C46.3169 16.7768 48.8928 20.5715 47.4062 22.7054C45.6115 25.2813 41.3705 27.5982 32.2142 28.2947C12.3437 29.8036 10.4865 20.5402 10.4865 20.5402" fill="#62BFB1"/>
<path d="M28 29.3527C11.5402 29.3527 9.67855 21.0938 9.59819 20.7143C9.49998 20.2322 9.81248 19.7589 10.2991 19.6652C10.7812 19.567 11.2544 19.8795 11.3482 20.3661C11.366 20.442 13.433 28.8259 32.1339 27.4063C39.7678 26.8259 44.6562 25.0714 46.6607 22.1964C47.491 21.0089 46.4866 18.4331 43.9777 15.3125C43.2143 14.3572 42.6562 13.3304 42.3169 12.2589C41.3527 9.16966 39.0759 6.78127 38.2723 6.57145C38.2366 6.68305 38.1919 6.9152 38.2098 7.34377C38.2902 9.31252 37.5982 11.0893 36.2187 12.4866C34.2143 14.5134 30.8616 15.6161 27.0357 15.5C21.7009 15.3438 19.9196 11.8706 18.9687 8.86162C18.6652 7.90627 18.1696 7.2768 17.6696 7.2143C17.0759 7.14287 16.2678 7.83037 15.5178 9.05805C13.6875 12.0491 11.2678 15.0447 11.1652 15.1697C10.8527 15.5536 10.2902 15.6116 9.91069 15.2991C9.52676 14.9866 9.46873 14.4241 9.78123 14.0447C9.80355 14.0134 12.2321 11.0134 13.9955 8.12502C15.4777 5.69645 16.9285 5.32591 17.8884 5.44198C19.125 5.59377 20.1428 6.64287 20.6741 8.32144C21.5402 11.0491 22.9152 13.5938 27.0937 13.7143C30.433 13.8081 33.2991 12.9063 34.9553 11.2277C35.9955 10.1786 36.491 8.89287 36.433 7.4152C36.3527 5.37055 37.308 4.89734 37.8839 4.79466C39.9196 4.44198 42.9643 8.31252 44.0312 11.7232C44.2991 12.5848 44.7544 13.4152 45.3794 14.192C47.5893 16.942 49.8571 20.7411 48.1339 23.2188C45.8035 26.5581 40.4687 28.567 32.2768 29.1875C30.7544 29.3036 29.3303 29.3572 28.0044 29.3572L28 29.3527Z" fill="#3F5753"/>
<path d="M16.3437 19.4598C11.2097 18.7857 9.42401 9.34815 7.73651 12.491C6.04901 15.6339 6.66955 20.9062 6.66955 20.9062C6.66955 20.9062 6.60258 25.5714 12.7187 25.5446C18.8347 25.5178 16.3437 19.4642 16.3437 19.4642" fill="#62BFB1"/>
<path d="M12.6695 26.433C10.357 26.433 8.56239 25.808 7.34364 24.5758C5.9106 23.1294 5.79007 21.3392 5.78114 20.9597C5.71864 20.3749 5.2231 15.2901 6.95078 12.0669C7.33471 11.3526 7.83025 10.9776 8.424 10.9597C9.50882 10.9196 10.2544 12.0847 11.2633 13.6919C12.482 15.6249 14.1472 18.2767 16.4597 18.5758C16.7767 18.616 17.049 18.8258 17.1695 19.1205C17.2231 19.2544 18.491 22.4017 17.0445 24.5714C16.2231 25.799 14.7722 26.4285 12.7231 26.4374H12.6695V26.433ZM8.54007 12.8794C8.54007 12.8794 8.53114 12.8972 8.52221 12.9106C6.99096 15.7633 7.549 20.7499 7.55793 20.799C7.56239 20.8392 7.56239 20.8749 7.56239 20.9151C7.56239 20.924 7.57578 22.2901 8.62935 23.3392C9.51328 24.2187 10.9061 24.6517 12.7142 24.6517C14.1294 24.6472 15.0847 24.2856 15.5535 23.5847C16.1874 22.6383 15.9285 21.116 15.6695 20.2455C12.8526 19.5714 11.0713 16.741 9.75435 14.6428C9.37043 14.0312 8.87043 13.2365 8.54007 12.8839V12.8794Z" fill="#3F5753"/>
<path d="M27.6651 19.9152C31.1958 19.9152 34.0579 17.4708 34.0579 14.4554C34.0579 11.4401 31.1958 8.99561 27.6651 8.99561C24.1344 8.99561 21.2722 11.4401 21.2722 14.4554C21.2722 17.4708 24.1344 19.9152 27.6651 19.9152Z" fill="#5BB5A7"/>
<path d="M27.6651 20.8081C23.6473 20.8081 20.3794 17.9599 20.3794 14.4555C20.3794 10.951 23.6473 8.10278 27.6651 8.10278C31.683 8.10278 34.9508 10.951 34.9508 14.4555C34.9508 17.9599 31.683 20.8081 27.6651 20.8081ZM27.6651 9.8885C24.6339 9.8885 22.1651 11.9376 22.1651 14.4555C22.1651 16.9733 24.6339 19.0224 27.6651 19.0224C30.6964 19.0224 33.1651 16.9733 33.1651 14.4555C33.1651 11.9376 30.6964 9.8885 27.6651 9.8885Z" fill="#3F5753"/>
<path d="M27.6651 17.6249C29.714 17.6249 31.375 16.2058 31.375 14.4553C31.375 12.7047 29.714 11.2856 27.6651 11.2856C25.6163 11.2856 23.9553 12.7047 23.9553 14.4553C23.9553 16.2058 25.6163 17.6249 27.6651 17.6249Z" fill="#DFFDF7"/>
<path d="M13.6518 20.9016C13.1384 17.9507 15.8482 15.0177 19.7009 14.3481C23.5536 13.6784 27.0937 15.5266 27.6071 18.4731C27.6071 18.4731 28.0848 21.0132 26.2857 23.4597" fill="#5BB5A7"/>
<path d="M26.2813 24.3526C26.0982 24.3526 25.9107 24.2946 25.7545 24.1785C25.3572 23.8884 25.2723 23.3259 25.5625 22.9285C27.1116 20.8169 26.7277 18.6562 26.7232 18.6339C26.5223 17.4776 25.7277 16.4866 24.4866 15.8392C23.1652 15.1517 21.5179 14.933 19.8482 15.2232C18.1786 15.5134 16.7009 16.2767 15.692 17.3705C14.7411 18.3973 14.3304 19.5982 14.5313 20.741C14.6161 21.2276 14.2902 21.6875 13.8036 21.7723C13.3214 21.8571 12.8572 21.5312 12.7723 21.0446C12.4732 19.3392 13.0491 17.6026 14.3839 16.1562C15.6563 14.7767 17.4911 13.8169 19.5491 13.4598C21.6027 13.1026 23.6518 13.3839 25.3214 14.2544C27.067 15.1651 28.192 16.6071 28.4866 18.3125C28.5089 18.4196 29.0089 21.2544 27.0089 23.9821C26.8348 24.2187 26.5625 24.3482 26.2902 24.3482L26.2813 24.3526Z" fill="#3F5753"/>
<path d="M20.8928 22.3662C23.3164 22.3662 25.2812 21.055 25.2812 19.4376C25.2812 17.8202 23.3164 16.509 20.8928 16.509C18.4691 16.509 16.5044 17.8202 16.5044 19.4376C16.5044 21.055 18.4691 22.3662 20.8928 22.3662Z" fill="#DFFDF7"/>
<path d="M41.7498 20.4554C41.7498 16.2366 38.1069 12.8125 33.6159 12.8125C29.1248 12.8125 25.4819 16.2321 25.4819 20.4554C25.4819 20.4554 26.0891 26.3348 34.4284 26.4866C42.7721 26.6384 41.7498 20.4554 41.7498 20.4554Z" fill="#DFFDF7"/>
<path d="M34.7231 27.3838C34.6204 27.3838 34.5133 27.3838 34.4106 27.3838C25.3794 27.2186 24.5981 20.6204 24.5892 20.5535C24.5892 20.5222 24.5847 20.491 24.5847 20.4642C24.5847 15.7588 28.6338 11.9285 33.6115 11.9285C38.5892 11.9285 42.6026 15.7231 42.6383 20.4017C42.6963 20.8704 42.8883 23.1606 41.2811 25.0222C39.924 26.5936 37.7186 27.3883 34.7231 27.3883V27.3838ZM26.3704 20.4017C26.4419 20.8972 27.299 25.4642 34.4419 25.5936C37.0311 25.6383 38.8704 25.0579 39.9151 23.8615C41.1338 22.4642 40.866 20.616 40.866 20.5936C40.857 20.549 40.857 20.4999 40.857 20.4508C40.857 16.7276 37.607 13.7008 33.616 13.7008C29.6249 13.7008 26.4061 16.7008 26.3749 20.3972L26.3704 20.4017Z" fill="#3F5753"/>
<path d="M33.4152 25.3973C35.7427 25.3973 37.6295 23.5105 37.6295 21.183C37.6295 18.8556 35.7427 16.9688 33.4152 16.9688C31.0877 16.9688 29.2009 18.8556 29.2009 21.183C29.2009 23.5105 31.0877 25.3973 33.4152 25.3973Z" fill="#6ED5C5"/>
<path d="M48.5447 24.9286C48.8349 22.6742 49.4018 19.5045 48.9197 15.1518C48.8884 15.0626 48.8616 14.9733 48.8304 14.8885C48.5358 14.0179 47.1117 13.5179 46.2367 13.7947C42.2858 15.0581 42.3617 19.9152 42.3617 19.9152C37.0893 19.9822 34.1518 25.1027 34.1518 25.1027C34.1518 25.1027 29.4152 21.7188 24.8438 21.826C23.2679 21.8617 22.4286 22.8751 21.9911 22.701C21.1652 22.3706 20.192 20.2947 16.4956 20.1563C10.0581 19.9152 10.8884 24.7724 10.8884 24.7724L13.6384 28.1652C17.4331 29.6965 22.7143 30.6474 28.5536 30.6474C36.6697 30.6474 43.7009 28.8126 47.1697 26.1295C47.1697 26.1295 47.7456 25.7277 48.5358 24.9242L48.5447 24.9286Z" fill="#6ED5C5"/>
<path d="M28.5581 31.5402C22.7947 31.5402 17.3796 30.6339 13.3126 28.9911C13.1742 28.9331 13.0492 28.8438 12.951 28.7232L10.201 25.3304C10.1028 25.2098 10.0403 25.0714 10.0135 24.9197C10.0001 24.8304 9.65634 22.7054 11.1028 21.0536C12.2278 19.7723 14.0537 19.1697 16.5358 19.2634C19.576 19.3795 21.009 20.692 21.8617 21.4777C21.9599 21.567 22.0805 21.6786 22.1787 21.7589C22.2367 21.7277 22.2992 21.6964 22.3528 21.6652C22.8885 21.3839 23.6921 20.9554 24.826 20.9286C28.5537 20.8438 32.3215 22.8839 33.9019 23.8661C34.951 22.4241 37.5403 19.4822 41.518 19.067C41.6921 17.4554 42.4778 14.0536 45.9644 12.942C47.2412 12.5313 49.2054 13.2188 49.6742 14.5982L49.7635 14.8661C49.7813 14.9241 49.7947 14.9866 49.8037 15.0491C50.2456 19.0268 49.8349 22.0491 49.5313 24.2589C49.4956 24.5313 49.4599 24.7902 49.4287 25.0402C49.4019 25.2322 49.3171 25.4152 49.1787 25.5536C48.4153 26.3259 47.826 26.7634 47.7055 26.8482C43.9465 29.7411 36.6117 31.5402 28.5581 31.5402ZM14.1921 27.4241C18.0313 28.9286 23.1206 29.7545 28.5581 29.7545C36.1296 29.7545 43.2233 28.0536 46.6296 25.4241C46.6429 25.4152 46.6519 25.4063 46.6653 25.3973C46.6653 25.3973 47.0938 25.0938 47.6965 24.5089C47.7188 24.3482 47.7412 24.1875 47.7635 24.0179C48.0492 21.9197 48.4421 19.0536 48.0403 15.3438L47.9822 15.1741C47.8706 14.8482 47.0001 14.4866 46.509 14.6429C43.2456 15.6875 43.2546 19.7277 43.259 19.9018C43.2635 20.3929 42.8706 20.7991 42.3751 20.808C37.6921 20.8661 34.9554 25.5 34.9287 25.5491C34.8037 25.7679 34.5894 25.9197 34.3438 25.9732C34.0983 26.0268 33.8394 25.9732 33.634 25.8304C33.5894 25.7991 29.0626 22.6116 24.8662 22.7188C24.1563 22.7366 23.6429 23.0089 23.1876 23.25C22.7367 23.4911 22.2278 23.7589 21.6608 23.5313C21.2903 23.3839 20.9912 23.1116 20.6519 22.7947C19.8929 22.0982 18.8528 21.1384 16.4644 21.0491C14.5447 20.9777 13.1965 21.375 12.4421 22.2322C11.7635 23.0045 11.7322 23.9955 11.7546 24.4152L14.1876 27.4197L14.1921 27.4241Z" fill="#3F5753"/>
<path d="M26.2812 30.4956H0.892822V44.3438H26.2812V30.4956Z" fill="#79E7D5"/>
<path d="M26.2813 45.2367H0.892857C0.401786 45.2367 0 44.8349 0 44.3439V30.4956C0 30.0001 0.401786 29.6028 0.892857 29.6028H26.2813C26.7723 29.6028 27.1741 30.0046 27.1741 30.4956V44.3439C27.1741 44.8349 26.7723 45.2367 26.2813 45.2367ZM1.78571 43.451H25.3884V31.3885H1.78571V43.451Z" fill="#3F5753"/>
<path d="M0.892822 30.4955C0.892822 30.4955 2.19193 23.7723 12.1339 22.5312L26.2812 30.4955H0.892822Z" fill="#6ED5C5"/>
<path d="M26.2813 31.3884H0.892908C0.625051 31.3884 0.375051 31.2679 0.205408 31.0626C0.0357656 30.8572 -0.0311986 30.5849 0.0179085 30.3259C0.0759442 30.0268 1.56255 22.9509 12.0268 21.6429C12.2143 21.6161 12.4108 21.6563 12.5759 21.7501L26.7233 29.7143C27.0759 29.9152 27.2501 30.3259 27.1474 30.7188C27.0447 31.1117 26.6876 31.384 26.2858 31.384L26.2813 31.3884ZM2.13844 29.6027H22.8751L11.9554 23.4554C5.32148 24.3751 2.93755 27.8259 2.13844 29.6027Z" fill="#3F5753"/>
<path d="M7.93307 41.6921C9.11407 41.6921 10.0715 40.7347 10.0715 39.5537C10.0715 38.3727 9.11407 37.4153 7.93307 37.4153C6.75207 37.4153 5.79468 38.3727 5.79468 39.5537C5.79468 40.7347 6.75207 41.6921 7.93307 41.6921Z" fill="#4F9D91"/>
<path d="M7.93311 42.585C6.26346 42.585 4.90186 41.2278 4.90186 39.5537C4.90186 37.8796 6.259 36.5225 7.93311 36.5225C9.60721 36.5225 10.9644 37.8796 10.9644 39.5537C10.9644 41.2278 9.60721 42.585 7.93311 42.585ZM7.93311 38.3126C7.24561 38.3126 6.68757 38.8707 6.68757 39.5582C6.68757 40.2457 7.24561 40.8037 7.93311 40.8037C8.62061 40.8037 9.17864 40.2457 9.17864 39.5582C9.17864 38.8707 8.62061 38.3126 7.93311 38.3126Z" fill="#3F5753"/>
<path d="M26.2813 36.192C25.8304 35.8393 25.2635 35.625 24.6474 35.625C23.1831 35.625 21.9956 36.8125 21.9956 38.2768C21.9956 39.7411 23.1831 40.9286 24.6474 40.9286C25.2635 40.9286 25.8304 40.7143 26.2813 40.3616V36.192Z" fill="#4F9D91"/>
<path d="M24.6474 41.8215C22.6921 41.8215 21.1028 40.2322 21.1028 38.2768C21.1028 36.3215 22.6921 34.7322 24.6474 34.7322C25.4465 34.7322 26.201 34.9956 26.8305 35.4866C27.0447 35.6563 27.1742 35.9152 27.1742 36.1875V40.3572C27.1742 40.6295 27.0492 40.8884 26.8305 41.0581C26.201 41.5536 25.4465 41.8125 24.6474 41.8125V41.8215ZM24.6474 36.5179C23.6787 36.5179 22.8885 37.3081 22.8885 38.2768C22.8885 39.2456 23.6787 40.0357 24.6474 40.0357C24.9064 40.0357 25.1564 39.9777 25.3885 39.8706V36.6831C25.1564 36.5759 24.9064 36.5179 24.6474 36.5179Z" fill="#3F5753"/>
<path d="M13.3973 32.0177C13.3973 33.1963 14.3526 34.1561 15.5357 34.1561C16.7187 34.1561 17.6696 33.2007 17.6696 32.0177C17.6696 31.4195 17.4241 30.8838 17.0268 30.4954H14.0357C13.6428 30.8838 13.3928 31.4195 13.3928 32.0177H13.3973Z" fill="#4F9D91"/>
<path d="M15.5356 35.0446C13.866 35.0446 12.5044 33.6874 12.5044 32.0133C12.5044 31.1964 12.8258 30.4285 13.4106 29.8526C13.5758 29.6874 13.8035 29.5981 14.0356 29.5981H17.0267C17.2589 29.5981 17.4865 29.6919 17.6517 29.8526C18.2365 30.4285 18.558 31.1964 18.558 32.0133C18.558 33.683 17.2008 35.0446 15.5312 35.0446H15.5356ZM14.4642 31.3839C14.3526 31.5714 14.2901 31.7901 14.2901 32.0133C14.2901 32.7008 14.8481 33.2589 15.5356 33.2589C16.2231 33.2589 16.7767 32.7008 16.7767 32.0133C16.7767 31.7901 16.7187 31.5714 16.6026 31.3839H14.4598H14.4642Z" fill="#3F5753"/>
<path d="M35.9599 22.8481C35.9599 22.8481 32.7769 25.4196 33.0715 30.1339L35.9599 22.8481Z" fill="#FFF4E8"/>
<path d="M33.0671 31.0268C32.5983 31.0268 32.2054 30.6607 32.1787 30.1875C31.8572 25.0714 35.2546 22.2678 35.3974 22.1518C35.7813 21.8393 36.3438 21.9018 36.6519 22.2857C36.9599 22.6696 36.9019 23.2277 36.5224 23.5402C36.4063 23.6384 33.701 25.9107 33.9599 30.0803C33.9912 30.5714 33.6162 30.9955 33.1251 31.0268C33.1072 31.0268 33.0894 31.0268 33.0671 31.0268Z" fill="#3F5753"/>
</g>
<defs>
<clipPath id="clip0_5735_33005">
<rect width="50" height="50" fill="white"/>
</clipPath>
</defs>
</svg>
