<svg width="50" height="50" viewBox="0 0 50 50" fill="none" xmlns="http://www.w3.org/2000/svg">
<g opacity="0.6">
<path d="M7.95117 7.91968L42.0538 7.91968C43.7771 7.91968 45.1788 9.32146 45.1788 11.0447V34.7411H4.82617L4.82617 11.0447C4.82617 9.32146 6.22796 7.91968 7.95117 7.91968Z" fill="#73E0CF"/>
<path d="M45.1742 35.6339H4.82596C4.33489 35.6339 3.93311 35.2321 3.93311 34.7411L3.93311 11.0491C3.93311 8.83482 5.73668 7.03125 7.95096 7.03125L42.0537 7.03125C44.2679 7.03125 46.0715 8.83482 46.0715 11.0491V34.7455C46.0715 35.2366 45.6697 35.6384 45.1787 35.6384L45.1742 35.6339ZM5.71436 33.8482H44.2813V11.0491C44.2813 9.81696 43.2813 8.81696 42.0492 8.81696L7.95096 8.81696C6.71882 8.81696 5.71882 9.81696 5.71882 11.0491L5.71882 33.8527L5.71436 33.8482Z" fill="#3F5753"/>
<path d="M2.25021 34.6384H47.7457C48.4957 34.6384 49.1029 35.2456 49.1029 35.9956V37.5045C49.1029 40.0268 47.0538 42.0804 44.527 42.0804H5.46896C2.94664 42.0804 0.893066 40.0313 0.893066 37.5045L0.893066 35.9956C0.893066 35.2456 1.50021 34.6384 2.25021 34.6384Z" fill="#E6ECEE"/>
<path d="M44.5313 42.9733H5.46875C2.45536 42.9733 0 40.5224 0 37.5045L0 35.9956C0 34.7545 1.00893 33.7456 2.25 33.7456H47.7455C48.9866 33.7456 49.9955 34.7545 49.9955 35.9956V37.5045C49.9955 40.5179 47.5447 42.9733 44.5268 42.9733H44.5313ZM2.25 35.5313C1.99107 35.5313 1.78571 35.7411 1.78571 35.9956V37.5045C1.78571 39.5358 3.4375 41.1876 5.46875 41.1876H44.5357C46.567 41.1876 48.2188 39.5358 48.2188 37.5045V35.9956C48.2188 35.7367 48.0089 35.5313 47.7545 35.5313H2.25Z" fill="#3F5753"/>
<path d="M21.1074 34.7412H28.8976V35.6742C28.8976 36.8216 27.969 37.7501 26.8217 37.7501H23.1878C22.0405 37.7501 21.1119 36.8216 21.1119 35.6742V34.7412H21.1074Z" fill="#BFC8D0"/>
<path d="M26.817 38.6474H23.1831C21.5447 38.6474 20.2144 37.3171 20.2144 35.6787V34.7456C20.2144 34.2546 20.6161 33.8528 21.1072 33.8528H28.8974C29.3885 33.8528 29.7902 34.2546 29.7902 34.7456V35.6787C29.7902 37.3171 28.4599 38.6474 26.8215 38.6474H26.817ZM22.0001 35.634V35.6742C22.0001 36.326 22.5313 36.8572 23.1831 36.8572H26.817C27.4688 36.8572 28.0001 36.326 28.0001 35.6742V35.634H21.9956H22.0001Z" fill="#3F5753"/>
<path d="M8.38379 28.8528V12.7724C8.38379 12.0403 8.97754 11.4465 9.70968 11.4465H35.3436C36.0758 11.4465 36.6695 12.0403 36.6695 12.7724C31.29 22.0358 21.8793 28.2367 11.2454 29.5269L9.90165 29.6876C8.89272 29.8439 8.38379 29.6296 8.38379 28.8483V28.8528Z" fill="#DFFDF7"/>
<path d="M25.991 16.7679H12.8973C12.4062 16.7679 12.0044 16.3661 12.0044 15.875C12.0044 15.384 12.4062 14.9822 12.8973 14.9822H25.991C26.4821 14.9822 26.8839 15.384 26.8839 15.875C26.8839 16.3661 26.4821 16.7679 25.991 16.7679Z" fill="#4F9D91"/>
<path d="M21.433 21.3348H12.8929C12.4018 21.3348 12 20.933 12 20.4419C12 19.9509 12.4018 19.5491 12.8929 19.5491H21.433C21.9241 19.5491 22.3259 19.9509 22.3259 20.4419C22.3259 20.933 21.9241 21.3348 21.433 21.3348Z" fill="#4F9D91"/>
</g>
</svg>
