<svg width="50" height="50" viewBox="0 0 50 50" fill="none" xmlns="http://www.w3.org/2000/svg">
<g opacity="0.6" clip-path="url(#clip0_5735_33370)">
<path d="M15.692 0.892822H34.3126C36.4376 0.892822 38.1652 2.6205 38.1652 4.7455V49.1071H11.8394V4.7455C11.8394 2.6205 13.567 0.892822 15.692 0.892822Z" fill="#DFFDF7"/>
<path d="M38.165 50H11.8391C11.3481 50 10.9463 49.5982 10.9463 49.1071V4.74554C10.9463 2.12946 13.0758 0 15.6918 0H34.3124C36.9284 0 39.0579 2.12946 39.0579 4.74554V49.1071C39.0579 49.5982 38.6561 50 38.165 50ZM12.732 48.2143H37.2722V4.74554C37.2722 3.11161 35.9418 1.78571 34.3124 1.78571H15.6918C14.0579 1.78571 12.732 3.11607 12.732 4.74554V48.2143Z" fill="#3F5753"/>
<path d="M21.4869 32.3213H16.3262V37.482H21.4869V32.3213Z" fill="#00C7B3"/>
<path d="M21.4867 38.3749H16.326C15.8349 38.3749 15.4331 37.9731 15.4331 37.482V32.3213C15.4331 31.8303 15.8349 31.4285 16.326 31.4285H21.4867C21.9777 31.4285 22.3795 31.8303 22.3795 32.3213V37.482C22.3795 37.9731 21.9777 38.3749 21.4867 38.3749ZM17.2188 36.5892H20.5938V33.2142H17.2188V36.5892Z" fill="#3F5753"/>
<path d="M33.3348 13.8392H16.3304C15.8393 13.8392 15.4375 13.4374 15.4375 12.9463C15.4375 12.4553 15.8393 12.0535 16.3304 12.0535H33.3348C33.8259 12.0535 34.2277 12.4553 34.2277 12.9463C34.2277 13.4374 33.8259 13.8392 33.3348 13.8392Z" fill="#3F5753"/>
<path d="M33.3348 34.692H30.5804C30.0893 34.692 29.6875 34.2902 29.6875 33.7991C29.6875 33.308 30.0893 32.9062 30.5804 32.9062H33.3348C33.8259 32.9062 34.2277 33.308 34.2277 33.7991C34.2277 34.2902 33.8259 34.692 33.3348 34.692Z" fill="#3F5753"/>
<path d="M33.3348 38.6517H30.5804C30.0893 38.6517 29.6875 38.2499 29.6875 37.7588C29.6875 37.2678 30.0893 36.866 30.5804 36.866H33.3348C33.8259 36.866 34.2277 37.2678 34.2277 37.7588C34.2277 38.2499 33.8259 38.6517 33.3348 38.6517Z" fill="#3F5753"/>
<path d="M33.3348 42.6072H30.5804C30.0893 42.6072 29.6875 42.2055 29.6875 41.7144C29.6875 41.2233 30.0893 40.8215 30.5804 40.8215H33.3348C33.8259 40.8215 34.2277 41.2233 34.2277 41.7144C34.2277 42.2055 33.8259 42.6072 33.3348 42.6072Z" fill="#3F5753"/>
<path d="M16.3258 42.6072H16.1829C15.6918 42.6072 15.29 42.2055 15.29 41.7144C15.29 41.2233 15.6918 40.8215 16.1829 40.8215H16.3258C16.8168 40.8215 17.2186 41.2233 17.2186 41.7144C17.2186 42.2055 16.8168 42.6072 16.3258 42.6072Z" fill="#3F5753"/>
<path d="M19.4732 42.6072H19.3304C18.8393 42.6072 18.4375 42.2055 18.4375 41.7144C18.4375 41.2233 18.8393 40.8215 19.3304 40.8215H19.4732C19.9643 40.8215 20.3661 41.2233 20.3661 41.7144C20.3661 42.2055 19.9643 42.6072 19.4732 42.6072Z" fill="#3F5753"/>
</g>
<defs>
<clipPath id="clip0_5735_33370">
<rect width="50" height="50" fill="white"/>
</clipPath>
</defs>
</svg>
