<svg width="50" height="50" viewBox="0 0 50 50" fill="none" xmlns="http://www.w3.org/2000/svg">
<g opacity="0.6" clip-path="url(#clip0_5735_33386)">
<path d="M35.7947 49.1072H39.692L37.6965 30.3483C38.1206 30.0402 38.3974 29.5447 38.3974 28.9822V26.9688C38.3974 25.5001 37.451 24.3081 36.2813 24.3081H13.7858C12.6161 24.3081 11.6697 25.5001 11.6697 26.9688V28.9822C11.6697 29.5179 11.9242 29.9867 12.3081 30.2947L10.3081 49.1027H14.2054L15.8617 37.3929V43.6786H18.3081L18.8885 30.6742H31.0313L31.6117 43.6786H34.0581L34.6742 41.2367L35.7858 49.1027L35.7947 49.1072Z" fill="#4F9D91"/>
<path d="M36.2813 24.3081H13.7858C12.8616 24.3081 12.0715 25.0536 11.7858 26.0983C11.6652 26.5358 11.9866 26.9733 12.442 26.9733H15.9643C16.1429 26.9733 16.317 27.0447 16.4465 27.1742L17.8572 28.5894C18.125 28.8572 18.5536 28.8572 18.8215 28.5894L20.2813 27.1295C20.4688 26.942 20.7456 26.8795 20.9956 26.9733L23.5 27.8885C23.6116 27.9286 23.7322 27.942 23.8483 27.9197L26.2456 27.509C26.2813 27.5045 26.3215 27.5001 26.3616 27.5001H31.4331C31.5804 27.5001 31.7277 27.451 31.8438 27.3617L33.8795 25.817C34 25.7277 34.1429 25.6786 34.2902 25.6786H36.259C37.134 25.6786 37.1831 24.3304 36.3081 24.317C36.2991 24.317 36.2902 24.317 36.2858 24.317L36.2813 24.3081Z" fill="#62A9A2"/>
<path d="M36.0402 0.901705L35.567 0.946348C28.4598 1.62492 21.3125 1.62492 14.2054 0.946348L13.7321 0.901705C12.4643 0.781169 11.375 1.93742 11.375 3.40617V7.9151C11.375 9.22313 12.2411 10.308 13.3705 10.4196L14.2054 10.4999C21.3125 11.1785 28.4598 11.1785 35.567 10.4999L36.4018 10.4196C37.5313 10.3124 38.3973 9.22313 38.3973 7.9151V3.40617C38.3973 1.93742 37.308 0.781169 36.0402 0.901705Z" fill="#4F9D91"/>
<path d="M38.3973 4.64278V3.40617C38.3973 1.93742 37.308 0.781169 36.0402 0.901705L35.567 0.946348C28.4598 1.62492 21.3125 1.62492 14.2054 0.946348L13.7321 0.901705C12.4643 0.781169 11.375 1.93742 11.375 3.40617L19.8527 6.52224C20.4241 6.73206 21.0402 6.70081 21.5982 6.43742L22.3571 6.07581C23.5045 5.5267 24.8304 6.01778 25.4866 7.23652C25.9509 8.09367 26.7679 8.61599 27.6429 8.61599H29.183C29.8929 8.61599 30.5982 8.43742 31.2411 8.09813L36.933 5.08028L38.3929 4.64278H38.3973Z" fill="#62A9A2"/>
<path d="M40.5804 49.0134L38.634 30.7009C39.0402 30.2456 39.2902 29.6429 39.2902 28.9866V26.9733C39.2902 25.0134 37.942 23.4197 36.2813 23.4197H34.1652L35.9822 11.3527L36.4866 11.3036C38.0849 11.1518 39.2902 9.692 39.2902 7.91075V3.40628C39.2902 2.3795 38.8795 1.41968 38.1652 0.772355C37.5447 0.205391 36.7545 -0.0624666 35.9554 0.0178906L35.4822 0.0625335C28.4509 0.736641 21.3215 0.736641 14.2902 0.0625335L13.817 0.0178906C13.0134 -0.0624666 12.2277 0.209855 11.6072 0.772355C10.8929 1.41968 10.4822 2.3795 10.4822 3.40628V7.91521C10.4822 9.69646 11.6875 11.1518 13.2858 11.3081L14.1116 11.3884L15.9241 23.4241H13.7813C12.1206 23.4241 10.7724 25.0179 10.7724 26.9777V28.9911C10.7724 29.6206 11 30.1965 11.3706 30.6429L9.41521 49.0179C9.38843 49.2679 9.46879 49.5224 9.63843 49.7099C9.80807 49.8974 10.0491 50.0045 10.3036 50.0045H14.2009C14.6474 50.0045 15.0224 49.6786 15.0849 49.2367L15.7456 44.567C15.7813 44.5715 15.8215 44.5804 15.8572 44.5804H18.3036C18.7813 44.5804 19.1741 44.2054 19.1965 43.7277L19.7411 31.5759H30.1741L30.7188 43.7277C30.7411 44.2054 31.134 44.5804 31.6116 44.5804H34.0581C34.1206 44.5804 34.1831 44.5715 34.2411 44.5625L34.9018 49.2411C34.9643 49.6831 35.3393 50.009 35.7858 50.009H39.6831C39.9375 50.009 40.1786 49.9018 40.3483 49.7143C40.5179 49.5268 40.5983 49.2768 40.5715 49.0224L40.5804 49.0134ZM19.9866 23.4152H17.7322L15.942 11.5358C17.0536 11.625 18.1697 11.7009 19.2813 11.7545L19.9822 23.4152H19.9866ZM25.9241 11.884C26.9554 11.875 27.9822 11.8527 29.0134 11.8125L28.317 23.4152H25.9286V11.884H25.9241ZM30.8081 11.7366C31.9241 11.6786 33.0402 11.5983 34.1518 11.509L32.3572 23.4197H30.1027L30.8081 11.7366ZM12.2724 7.91075V3.40628C12.2724 2.88396 12.4688 2.40182 12.8125 2.09378C12.9688 1.95093 13.2233 1.79021 13.5536 1.79021C13.5849 1.79021 13.6206 1.79021 13.6518 1.79468L14.125 1.83932C21.2679 2.52236 28.5134 2.52236 35.6563 1.83932L36.1295 1.79468C36.509 1.75896 36.7947 1.93753 36.9688 2.09378C37.3125 2.40628 37.509 2.88396 37.509 3.40628V7.91521C37.509 8.7545 36.9866 9.46432 36.3215 9.53129L35.4866 9.61164C28.4554 10.2858 21.3259 10.2858 14.2947 9.61164L13.4643 9.53129C12.7991 9.46879 12.2768 8.75896 12.2768 7.91521L12.2724 7.91075ZM24.1429 11.884V23.4152H21.7768L21.0804 11.8215C22.1027 11.8572 23.1206 11.8795 24.1429 11.884ZM13.4331 48.2099H11.3036L13.0759 31.5447C13.1697 31.5536 13.2634 31.5625 13.3616 31.5625H15.7902L13.4331 48.2099ZM17.4599 42.7813H16.759V37.4509L17.5938 31.5581H17.9599L17.4599 42.7768V42.7813ZM33.1697 42.7813H32.4688L31.9688 31.5625H32.4108L33.1697 36.9331V42.7813ZM32.2679 29.7768H13.3572C12.9197 29.7768 12.5581 29.4197 12.5581 28.9777V26.9643C12.5581 26.0045 13.1161 25.1965 13.7813 25.1965H16.9599H33.1161H36.2679C36.9331 25.1965 37.4911 26.0045 37.4911 26.9643V28.9777C37.4911 29.4152 37.134 29.7768 36.692 29.7768H32.25H32.2679ZM36.5715 48.2099L34.2143 31.5625H36.7099C36.7858 31.5625 36.8572 31.5581 36.9286 31.5536L38.7009 48.2099H36.5715Z" fill="#3F5753"/>
</g>
<defs>
<clipPath id="clip0_5735_33386">
<rect width="50" height="50" fill="white"/>
</clipPath>
</defs>
</svg>
