<svg width="50" height="50" viewBox="0 0 50 50" fill="none" xmlns="http://www.w3.org/2000/svg">
<g opacity="0.6" clip-path="url(#clip0_5735_33393)">
<path d="M19.3931 20.9374H14.6565C13.5405 20.9374 12.6387 19.8838 12.6387 18.5803V18.1294C12.6387 16.8303 13.5405 15.7722 14.6565 15.7722H15.8217C16.1163 15.7722 16.411 15.8258 16.6922 15.9285L18.3396 16.5311C18.5806 16.6204 18.8351 16.674 19.0896 16.6829L20.3485 16.7454C21.2994 16.7901 22.0494 17.7053 22.0494 18.8169V18.866C22.0494 20.0088 21.2547 20.9374 20.2726 20.9374H19.3931Z" fill="#5BB5A7"/>
<path d="M20.2724 21.8303H14.6563C13.0492 21.8303 11.7456 20.3749 11.7456 18.5803V18.1294C11.7456 16.3392 13.0536 14.8794 14.6563 14.8794H15.8215C16.2233 14.8794 16.6206 14.9508 17.0001 15.0892L18.6474 15.6919C18.8036 15.7499 18.9688 15.7812 19.134 15.7901L20.3929 15.8526C21.826 15.924 22.9465 17.2231 22.9465 18.8169V18.866C22.9465 20.4999 21.7501 21.8303 20.2769 21.8303H20.2724ZM14.6563 16.6651C14.0447 16.6651 13.5313 17.3348 13.5313 18.1294V18.5803C13.5313 19.3749 14.0492 20.0446 14.6563 20.0446H20.2724C20.7501 20.0446 21.1563 19.5044 21.1563 18.866V18.8169C21.1563 18.1919 20.7724 17.6606 20.3036 17.6383L19.0447 17.5758C18.701 17.558 18.3572 17.491 18.0313 17.3705L16.384 16.7678C16.201 16.7008 16.0135 16.6651 15.8215 16.6651H14.6563Z" fill="#004241"/>
<path d="M22.1071 40.0713C21.7097 40.0713 21.3481 39.8034 21.2455 39.4061L16.4776 21.165C16.3526 20.6873 16.6383 20.2007 17.116 20.0757C17.5937 19.9507 18.0803 20.2365 18.2053 20.7141L22.9731 38.9552C23.0981 39.4329 22.8124 39.9195 22.3347 40.0445C22.2588 40.0623 22.183 40.0757 22.1071 40.0757V40.0713Z" fill="#004241"/>
<path d="M28.5357 11.607H31.7545V14.8704H28.5357C27.7054 14.8704 27.0312 14.1963 27.0312 13.3659V13.107C27.0312 12.2766 27.7054 11.6025 28.5357 11.6025V11.607Z" fill="#5BB5A7"/>
<path d="M32.6471 15.7633H28.5355C27.2141 15.7633 26.1382 14.6874 26.1382 13.366V13.107C26.1382 11.7856 27.2141 10.7097 28.5355 10.7097H32.6471V15.7588V15.7633ZM28.5355 12.4999C28.2007 12.4999 27.9239 12.7722 27.9239 13.1115V13.3704C27.9239 13.7053 28.1962 13.982 28.5355 13.982H30.8614V12.5044H28.5355V12.4999Z" fill="#004241"/>
<path d="M22.1071 40.0713C21.9196 40.0713 21.7276 40.0132 21.5669 39.8882C21.1741 39.5891 21.1026 39.0266 21.4017 38.6382L32.8526 23.6829C33.1517 23.29 33.7142 23.2186 34.1026 23.5177C34.4955 23.8168 34.5669 24.3793 34.2678 24.7677L22.8169 39.7231C22.6428 39.9507 22.375 40.0713 22.1071 40.0713Z" fill="#004241"/>
<path d="M10.8347 38.4954C10.6651 38.4954 10.491 38.4462 10.3392 38.3436C9.92846 38.0668 9.82132 37.5132 10.0936 37.107L17.6561 25.8346C17.7767 25.6516 17.9597 25.5221 18.174 25.4686L32.8526 21.6561C33.3302 21.5311 33.8169 21.8168 33.9419 22.2945C34.0669 22.7721 33.7811 23.2587 33.3035 23.3837L18.9552 27.1114L11.5802 38.1025C11.4061 38.3614 11.1249 38.4998 10.8392 38.4998L10.8347 38.4954Z" fill="#004241"/>
<path d="M24.0849 44.6695C23.7411 44.6695 23.4152 44.473 23.2679 44.1382L20.4197 37.732C20.2188 37.2811 20.4197 36.7543 20.8706 36.5534C21.3215 36.3525 21.8483 36.5534 22.0492 37.0088L24.8974 43.415C25.0983 43.8659 24.8974 44.3927 24.4465 44.5936C24.3304 44.6471 24.2054 44.6695 24.0849 44.6695Z" fill="#004241"/>
<path d="M22.6563 45.799C22.2366 45.799 21.8661 45.5043 21.7813 45.0802C21.6875 44.5981 22 44.1249 22.4822 44.0311L25.6652 43.4017C26.1473 43.3034 26.6205 43.6204 26.7143 44.1025C26.808 44.5847 26.4955 45.0579 26.0134 45.1517L22.8304 45.7811C22.7723 45.7945 22.7143 45.799 22.6563 45.799Z" fill="#004241"/>
<path d="M39.7501 29.8838C34.6027 29.8838 30.4331 34.0534 30.4331 39.2008C30.4331 44.3481 34.6027 48.5177 39.7501 48.5177C44.8974 48.5177 49.067 44.3481 49.067 39.2008C49.067 34.0534 44.8974 29.8838 39.7501 29.8838ZM39.7501 44.9061C36.5983 44.9061 34.0402 42.3525 34.0402 39.1963C34.0402 36.04 36.5938 33.4909 39.7501 33.4909C42.9063 33.4909 45.4554 36.0445 45.4554 39.1963C45.4554 42.3481 42.9019 44.9061 39.7501 44.9061Z" fill="#73E0CF"/>
<path d="M39.7499 49.4062C34.1204 49.4062 29.54 44.8259 29.54 39.1964C29.54 33.5669 34.1204 28.9866 39.7499 28.9866C45.3793 28.9866 49.9597 33.5669 49.9597 39.1964C49.9597 44.8259 45.3793 49.4062 39.7499 49.4062ZM39.7499 30.7768C35.107 30.7768 31.3258 34.5535 31.3258 39.2009C31.3258 43.8482 35.1025 47.625 39.7499 47.625C44.3972 47.625 48.174 43.8482 48.174 39.2009C48.174 34.5535 44.3972 30.7768 39.7499 30.7768ZM39.7499 45.7991C36.1115 45.7991 33.1472 42.8392 33.1472 39.1964C33.1472 35.5535 36.107 32.5982 39.7499 32.5982C43.3927 32.5982 46.3525 35.558 46.3525 39.1964C46.3525 42.8348 43.3927 45.7991 39.7499 45.7991ZM39.7499 34.3839C37.0936 34.3839 34.9329 36.5446 34.9329 39.1964C34.9329 41.8482 37.0936 44.0134 39.7499 44.0134C42.4061 44.0134 44.5668 41.8526 44.5668 39.1964C44.5668 36.5401 42.4061 34.3839 39.7499 34.3839Z" fill="#004241"/>
<path d="M39.75 40.0937C39.4688 40.0937 39.1964 39.9643 39.0223 39.7188L37.7545 37.9375C37.4062 37.4464 37.125 36.9152 36.9196 36.3482L31.3929 20.2411C31.2723 19.8929 31.3795 19.5045 31.6607 19.2679L34.4687 16.9018C34.7991 16.625 34.9911 16.2143 34.9911 15.7812V14.317H32.2366C31.7455 14.317 31.3438 13.9152 31.3438 13.4241C31.3438 12.933 31.7455 12.5312 32.2366 12.5312H35.8839C36.375 12.5312 36.7768 12.933 36.7768 13.4241V15.7812C36.7768 16.7411 36.3571 17.6473 35.6205 18.2679L33.2813 20.2366L38.6027 35.75C38.75 36.1473 38.9554 36.5402 39.2098 36.8973L40.4777 38.6786C40.7634 39.0804 40.6696 39.6384 40.2679 39.9241C40.1116 40.0357 39.9286 40.0893 39.75 40.0893V40.0937Z" fill="#004241"/>
<path d="M10.21 29.8838C5.06717 29.8838 0.893066 34.0534 0.893066 39.2008C0.893066 44.3481 5.06271 48.5177 10.21 48.5177C15.3574 48.5177 19.527 44.3481 19.527 39.2008C19.527 34.0534 15.3574 29.8838 10.21 29.8838ZM10.21 44.9061C7.05825 44.9061 4.50021 42.3525 4.50021 39.1963C4.50021 36.04 7.05378 33.4909 10.21 33.4909C13.3663 33.4909 15.9199 36.0445 15.9199 39.1963C15.9199 42.3481 13.3663 44.9061 10.21 44.9061Z" fill="#73E0CF"/>
<path d="M10.2098 49.4061C4.58036 49.4061 0 44.8258 0 39.2008C0 33.5758 4.58036 28.991 10.2098 28.991C15.8393 28.991 20.4196 33.5713 20.4196 39.2008C20.4196 44.8302 15.8393 49.4106 10.2098 49.4106V49.4061ZM10.2098 30.7767C5.56696 30.7767 1.78571 34.5535 1.78571 39.2008C1.78571 43.8481 5.5625 47.6249 10.2098 47.6249C14.8571 47.6249 18.6339 43.8481 18.6339 39.2008C18.6339 34.5535 14.8571 30.7767 10.2098 30.7767ZM10.2098 45.799C6.57143 45.799 3.60714 42.8392 3.60714 39.1963C3.60714 35.5535 6.56696 32.5981 10.2098 32.5981C13.8527 32.5981 16.8125 35.5579 16.8125 39.1963C16.8125 42.8347 13.8527 45.799 10.2098 45.799ZM10.2098 34.3838C7.55357 34.3838 5.39286 36.5445 5.39286 39.1963C5.39286 41.8481 7.55357 44.0133 10.2098 44.0133C12.8661 44.0133 15.0268 41.8526 15.0268 39.1963C15.0268 36.5401 12.8661 34.3838 10.2098 34.3838Z" fill="#004241"/>
<path d="M10.3442 40.9864C11.3427 40.9864 12.1522 40.1769 12.1522 39.1784C12.1522 38.1798 11.3427 37.3704 10.3442 37.3704C9.34562 37.3704 8.53613 38.1798 8.53613 39.1784C8.53613 40.1769 9.34562 40.9864 10.3442 40.9864Z" fill="#5BB5A7"/>
<path d="M10.344 41.8793C8.85735 41.8793 7.64307 40.6695 7.64307 39.1784C7.64307 37.6874 8.85289 36.4775 10.344 36.4775C11.835 36.4775 13.0449 37.6874 13.0449 39.1784C13.0449 40.6695 11.835 41.8793 10.344 41.8793ZM10.344 38.2633C9.83949 38.2633 9.42878 38.674 9.42878 39.1784C9.42878 39.6829 9.83949 40.0936 10.344 40.0936C10.8484 40.0936 11.2591 39.6829 11.2591 39.1784C11.2591 38.674 10.8484 38.2633 10.344 38.2633Z" fill="#004241"/>
<path d="M21.7368 41.0669C23.2729 41.0669 24.5181 39.8217 24.5181 38.2856C24.5181 36.7496 23.2729 35.5044 21.7368 35.5044C20.2008 35.5044 18.9556 36.7496 18.9556 38.2856C18.9556 39.8217 20.2008 41.0669 21.7368 41.0669Z" fill="#5BB5A7"/>
<path d="M21.7366 41.9598C19.7098 41.9598 18.0625 40.3125 18.0625 38.2857C18.0625 36.2589 19.7098 34.6116 21.7366 34.6116C23.7634 34.6116 25.4107 36.2589 25.4107 38.2857C25.4107 40.3125 23.7634 41.9598 21.7366 41.9598ZM21.7366 36.3973C20.6964 36.3973 19.8482 37.2455 19.8482 38.2857C19.8482 39.3259 20.6964 40.1741 21.7366 40.1741C22.7768 40.1741 23.625 39.3259 23.625 38.2857C23.625 37.2455 22.7768 36.3973 21.7366 36.3973Z" fill="#004241"/>
</g>
<defs>
<clipPath id="clip0_5735_33393">
<rect width="50" height="50" fill="white"/>
</clipPath>
</defs>
</svg>
