<svg width="50" height="50" viewBox="0 0 50 50" fill="none" xmlns="http://www.w3.org/2000/svg">
<g opacity="0.6" clip-path="url(#clip0_5735_33422)">
<path d="M9.656 5.72335L3.9685 16.1653C3.4685 17.0805 4.13368 18.201 5.17832 18.201H16.5533C17.598 18.201 18.2587 17.085 17.7631 16.1653L12.0756 5.72335C11.5533 4.768 10.1828 4.768 9.66046 5.72335H9.656Z" fill="#6FD3C3"/>
<path d="M16.5534 19.0893H5.17842C4.37038 19.0893 3.6427 18.6741 3.22753 17.9777C2.81235 17.2813 2.79895 16.442 3.18735 15.7322L8.87485 5.29021C9.27217 4.56254 10.0356 4.10718 10.8659 4.10718C11.6963 4.10718 12.4597 4.56254 12.857 5.29021L18.5445 15.7322C18.9329 16.442 18.915 17.2813 18.5043 17.9777C18.0936 18.6741 17.3615 19.0893 16.5534 19.0893ZM10.4418 6.15182L4.75431 16.5938C4.63377 16.8125 4.72306 17 4.76324 17.0715C4.80342 17.1429 4.92842 17.3081 5.17842 17.3081H16.5534C16.8034 17.3081 16.9284 17.1429 16.9686 17.0715C17.0088 17 17.0981 16.8125 16.9775 16.5938L11.29 6.15182C11.165 5.92414 10.9507 5.90182 10.8659 5.90182C10.7811 5.90182 10.5668 5.92861 10.4418 6.15182Z" fill="#37635F"/>
<path d="M10.866 16.3392C10.6294 16.3392 10.4017 16.241 10.2321 16.0758C10.0669 15.9107 9.97314 15.6785 9.97314 15.4464C9.97314 15.3883 9.97314 15.3303 9.991 15.2723C9.99993 15.2142 10.0178 15.1562 10.0401 15.1026C10.0624 15.0491 10.0892 15 10.1249 14.9508C10.1562 14.9017 10.1919 14.8571 10.2321 14.8124C10.4419 14.6071 10.7499 14.5133 11.0401 14.5714C11.0981 14.5803 11.1517 14.5982 11.2053 14.6205C11.2589 14.6428 11.3124 14.6696 11.3615 14.7053C11.4106 14.7366 11.4553 14.7723 11.4955 14.8124C11.5356 14.8571 11.5758 14.9017 11.6071 14.9508C11.6383 15 11.6651 15.0491 11.6874 15.1026C11.7098 15.1562 11.7276 15.2142 11.741 15.2723C11.7499 15.3303 11.7589 15.3883 11.7589 15.4464C11.7589 15.6785 11.6606 15.9107 11.4955 16.0758C11.4553 16.116 11.4106 16.1562 11.3615 16.1874C11.3124 16.2187 11.2589 16.2455 11.2053 16.2678C11.1517 16.2901 11.0981 16.308 11.0401 16.3214C10.9821 16.3303 10.924 16.3392 10.866 16.3392Z" fill="#37635F"/>
<path d="M10.866 13.8616C10.3749 13.8616 9.97314 13.4598 9.97314 12.9687V9.19193C9.97314 8.70086 10.3749 8.29907 10.866 8.29907C11.3571 8.29907 11.7589 8.70086 11.7589 9.19193V12.9687C11.7589 13.4598 11.3571 13.8616 10.866 13.8616Z" fill="#37635F"/>
<path d="M44.8441 7.93747C46.3579 7.93747 47.5852 6.71025 47.5852 5.19639C47.5852 3.68254 46.3579 2.45532 44.8441 2.45532C43.3302 2.45532 42.103 3.68254 42.103 5.19639C42.103 6.71025 43.3302 7.93747 44.8441 7.93747Z" fill="#DFFDF7"/>
<path d="M44.8439 8.83036C42.8394 8.83036 41.21 7.20089 41.21 5.19643C41.21 3.19196 42.8394 1.5625 44.8439 1.5625C46.8484 1.5625 48.4778 3.19196 48.4778 5.19643C48.4778 7.20089 46.8484 8.83036 44.8439 8.83036ZM44.8439 3.34375C43.826 3.34375 42.9957 4.17411 42.9957 5.19196C42.9957 6.20982 43.826 7.04018 44.8439 7.04018C45.8617 7.04018 46.6921 6.20982 46.6921 5.19196C46.6921 4.17411 45.8617 3.34375 44.8439 3.34375Z" fill="#37635F"/>
<path d="M29.3124 25.5266C30.0356 24.9283 30.8392 24.531 31.6696 24.3123C31.6383 24.1203 31.6205 23.9283 31.6071 23.7364C28.1205 24.2855 24.4731 22.598 22.7544 19.1605C20.9955 15.6426 21.9642 11.2721 25.0446 8.83013C26.3526 7.79441 27.8437 7.21406 29.3526 7.04888C30.3347 6.94173 31.1963 6.31227 31.5892 5.40602C31.9821 4.49977 32.6963 3.76763 33.7097 3.35691C35.174 2.76316 36.8972 3.14709 37.9642 4.30781C38.5222 4.91048 38.8437 5.61584 38.9597 6.33906C39.1517 7.53102 39.8615 8.55781 40.9374 9.10691C41.9151 9.60691 42.7722 10.3658 43.3972 11.3658C44.8392 13.6828 44.5758 16.5712 42.9597 18.5801C42.5981 19.0266 42.5981 19.6471 42.9017 20.1337C42.9017 20.1337 42.9017 20.1382 42.9062 20.1426C44.6874 23.0087 43.8124 26.781 40.9419 28.5623C40.9374 28.5623 40.9329 28.5667 40.924 28.5712C40.0446 29.1158 39.424 29.9953 39.2856 31.0221C39.0535 32.7721 38.0713 34.406 36.4553 35.4105C33.4017 37.3078 29.3258 36.1917 27.7142 32.8658C26.5044 30.3703 27.174 27.2899 29.3124 25.5221V25.5266Z" fill="#DFFDF7"/>
<path d="M33.2278 37.232C32.576 37.232 31.9198 37.1427 31.2814 36.9552C29.3751 36.4061 27.7858 35.0579 26.9153 33.2633C25.5314 30.4061 26.2992 26.8615 28.7457 24.8392C28.826 24.7722 28.9108 24.7052 28.9957 24.6427C26.018 24.2231 23.3662 22.3749 21.9599 19.5624C20.0046 15.6517 21.0671 10.8481 24.4957 8.13381C25.8796 7.0356 27.5269 6.35703 29.259 6.16506C29.9287 6.08917 30.509 5.66506 30.7724 5.05346C31.2724 3.90614 32.1965 3.00881 33.3751 2.53114C35.1921 1.79453 37.2992 2.26774 38.6251 3.70524C39.2769 4.4106 39.6965 5.27667 39.8483 6.20078C40.0001 7.13381 40.5448 7.90614 41.3483 8.31239C42.5001 8.90167 43.4733 9.79453 44.1608 10.8972C45.759 13.4686 45.5582 16.7856 43.6608 19.1427C43.5358 19.299 43.5715 19.5177 43.6608 19.6651C45.7055 22.9552 44.6965 27.2856 41.4153 29.3258C40.7189 29.7588 40.2724 30.4151 40.1742 31.1472C39.8974 33.232 38.7144 35.0669 36.9287 36.1785C35.8082 36.8749 34.5224 37.232 33.2278 37.232ZM29.884 26.2142C28.0626 27.7186 27.4912 30.357 28.5224 32.482C29.1832 33.8436 30.3394 34.8258 31.7814 35.241C33.201 35.6517 34.7367 35.4418 35.9912 34.6606C37.3215 33.8347 38.201 32.4686 38.4108 30.9106C38.5805 29.6472 39.326 28.5222 40.4644 27.8169C42.9242 26.2901 43.6742 23.0624 42.1564 20.616C41.6385 19.7856 41.6876 18.7454 42.2724 18.0222C43.6965 16.2499 43.8483 13.7677 42.6474 11.8392C42.134 11.0133 41.4064 10.3436 40.5403 9.90167C39.2233 9.23203 38.3305 7.98203 38.0894 6.48203C37.9957 5.90167 37.7278 5.36149 37.3171 4.91506C36.509 4.0356 35.1653 3.73649 34.0537 4.18739C33.3126 4.48649 32.7278 5.04899 32.4198 5.76774C31.8974 6.96417 30.768 7.79453 29.4644 7.94185C28.0671 8.0981 26.7323 8.64721 25.6117 9.5356C22.8439 11.7276 21.9867 15.607 23.5671 18.7677C25.0492 21.7276 28.2278 23.3704 31.4823 22.8615C31.7323 22.8213 31.9867 22.8883 32.1787 23.049C32.3751 23.2052 32.4957 23.4418 32.509 23.6918C32.518 23.857 32.5358 24.0222 32.5626 24.1874C32.6296 24.6383 32.3483 25.0713 31.9064 25.1874C31.1698 25.3838 30.4867 25.732 29.8885 26.2276L29.884 26.2142Z" fill="#37635F"/>
<path d="M29.1498 29.657L31.6325 33.4582C32.1965 34.3216 31.9527 35.4833 31.0893 36.0472L12.0159 48.5047C10.8572 49.2615 9.30014 48.9348 8.54336 47.7761L6.75639 45.0401C5.99961 43.8814 6.32632 42.3243 7.485 41.5676L26.5584 29.11C27.4218 28.5461 28.5835 28.7898 29.1474 29.6532L29.1498 29.657Z" fill="#DFFDF7"/>
<path d="M10.652 49.8078C9.5404 49.8078 8.45111 49.2677 7.79933 48.2677L6.01361 45.5311C4.98683 43.9596 5.43326 41.848 7.00022 40.8257L26.0761 28.3659C27.3529 27.5311 29.0672 27.8927 29.902 29.1695L32.3842 32.973C32.7859 33.5891 32.9288 34.3302 32.777 35.0534C32.6252 35.7766 32.2011 36.3971 31.585 36.7989L12.5091 49.2587C11.9377 49.6337 11.2904 49.8123 10.6565 49.8123L10.652 49.8078ZM9.29486 47.29C9.78147 48.0355 10.7859 48.2453 11.5315 47.7587L30.6074 35.2989C30.8261 35.1561 30.9779 34.9373 31.0315 34.6828C31.085 34.4284 31.0359 34.165 30.8931 33.9462L28.4109 30.1427C28.1163 29.6918 27.5092 29.5623 27.0583 29.857L7.98236 42.3168C7.23683 42.8034 7.02701 43.8078 7.51361 44.5534L9.29933 47.29H9.29486Z" fill="#37635F"/>
<path d="M33.0329 34.783L28.5044 27.8496L9.90193 39.9996L14.4304 46.933L33.0329 34.783Z" fill="#6FD3C3"/>
<path d="M14.433 47.8212C14.1429 47.8212 13.8571 47.6784 13.683 47.415L9.15178 40.4819C9.02232 40.2855 8.97767 40.04 9.02678 39.8123C9.07589 39.5846 9.21428 39.3793 9.41071 39.2498L28.0089 27.1025C28.4196 26.8301 28.9732 26.9507 29.2455 27.3614L33.7768 34.2944C33.9062 34.4909 33.9509 34.7364 33.9018 34.9641C33.8527 35.1918 33.7143 35.3971 33.5179 35.5266L14.9196 47.6739C14.7678 47.7721 14.5982 47.8212 14.433 47.8212ZM11.1429 40.2543L14.6964 45.6918L31.8036 34.5176L28.25 29.0801L11.1429 40.2543Z" fill="#37635F"/>
<path d="M39.3484 19.4642C36.1118 19.4642 34.6877 17.3704 34.3842 16.2231C34.2592 15.7454 34.5404 15.2588 35.0181 15.1294C35.4913 15.0044 35.9779 15.2811 36.1074 15.7544C36.1699 15.9686 36.7949 17.8035 39.6163 17.6695C40.1118 17.6517 40.527 18.0267 40.5493 18.5222C40.5717 19.0133 40.1922 19.4329 39.6967 19.4552C39.5761 19.4597 39.46 19.4642 39.3484 19.4642Z" fill="#009081"/>
<path d="M16.3572 41.7678C16.0626 41.7678 15.7769 41.6249 15.6072 41.3615C15.3394 40.9464 15.4599 40.3928 15.8706 40.1249L26.0358 33.5535C26.451 33.2857 27.0045 33.4062 27.2724 33.8169C27.5403 34.2321 27.4197 34.7856 27.009 35.0535L16.8438 41.6249C16.692 41.7231 16.5269 41.7678 16.3617 41.7678H16.3572Z" fill="#37635F"/>
<path d="M26.6162 35.0623C26.576 35.0623 26.5358 35.0623 26.4956 35.0534L24.509 34.7811C24.0224 34.7141 23.6787 34.2632 23.7456 33.7766C23.8126 33.29 24.259 32.9463 24.7501 33.0132L26.7367 33.2855C27.2233 33.3525 27.5671 33.8034 27.5001 34.29C27.4376 34.7364 27.0537 35.0623 26.6162 35.0623Z" fill="#37635F"/>
<path d="M26.1695 36.9374C26.1026 36.9374 26.0311 36.9285 25.9642 36.9151C25.482 36.8035 25.1874 36.3213 25.299 35.8392L25.741 33.9642C25.8526 33.482 26.3347 33.1874 26.8168 33.299C27.299 33.4106 27.5936 33.8927 27.482 34.3749L27.0401 36.2499C26.9418 36.6606 26.5758 36.9374 26.1695 36.9374Z" fill="#37635F"/>
</g>
<defs>
<clipPath id="clip0_5735_33422">
<rect width="50" height="50" fill="white"/>
</clipPath>
</defs>
</svg>
