<svg width="50" height="50" viewBox="0 0 50 50" fill="none" xmlns="http://www.w3.org/2000/svg">
<g opacity="0.6">
<path d="M34.0761 3.35718L15.9243 3.35718C13.767 3.35718 12.0181 5.10607 12.0181 7.26343L12.0181 42.7411C12.0181 44.8985 13.767 46.6474 15.9243 46.6474H34.0761C36.2335 46.6474 37.9824 44.8985 37.9824 42.7411L37.9824 7.26343C37.9824 5.10607 36.2335 3.35718 34.0761 3.35718Z" fill="#8ED4EA"/>
<path d="M25.3077 38.1206H24.6872C23.4914 38.1206 22.522 39.09 22.522 40.2858L22.522 40.9063C22.522 42.1021 23.4914 43.0715 24.6872 43.0715H25.3077C26.5035 43.0715 27.4729 42.1021 27.4729 40.9063L27.4729 40.2858C27.4729 39.09 26.5035 38.1206 25.3077 38.1206Z" fill="#E9E5DC"/>
<path d="M25.3124 43.9645H24.6918C23.0043 43.9645 21.6338 42.5939 21.6338 40.9064L21.6338 40.2814C21.6338 38.5939 23.0043 37.2234 24.6918 37.2234H25.3124C26.9999 37.2234 28.3704 38.5939 28.3704 40.2814L28.3704 40.9064C28.3704 42.5939 26.9999 43.9645 25.3124 43.9645ZM24.6918 39.0136C23.9909 39.0136 23.4195 39.585 23.4195 40.2859L23.4195 40.9109C23.4195 41.6118 23.9909 42.1832 24.6918 42.1832H25.3124C26.0133 42.1832 26.5847 41.6118 26.5847 40.9109L26.5847 40.2859C26.5847 39.585 26.0133 39.0136 25.3124 39.0136H24.6918Z" fill="#004241"/>
<path d="M34.0759 47.5358H15.9241C13.2768 47.5358 11.125 45.384 11.125 42.7367L11.125 7.26346C11.125 4.61614 13.2768 2.46436 15.9241 2.46436L34.0759 2.46436C36.7232 2.46436 38.875 4.61614 38.875 7.26346L38.875 42.7412C38.875 45.3885 36.7232 47.5403 34.0759 47.5403L34.0759 47.5358ZM15.9241 4.25007C14.2634 4.25007 12.9107 5.60275 12.9107 7.26346L12.9107 42.7412C12.9107 44.4019 14.2634 45.7545 15.9241 45.7545H34.0759C35.7366 45.7545 37.0893 44.4019 37.0893 42.7412L37.0893 7.26346C37.0893 5.60275 35.7366 4.25007 34.0759 4.25007L15.9241 4.25007Z" fill="#004241"/>
<path d="M16.299 36.835C15.7232 36.835 15.2544 36.3662 15.2544 35.7904L15.2544 9.335C15.2544 7.89303 16.4241 6.72339 17.866 6.72339L33.9955 6.72339C34.5312 6.72339 34.8839 7.28142 34.6562 7.76803C33.3169 18.0359 31.2053 25.1386 16.4374 36.7725L16.299 36.8395L16.299 36.835Z" fill="#B7E7F1"/>
<path d="M31.0177 13.2947H20.1517C19.6606 13.2947 19.2588 12.893 19.2588 12.4019C19.2588 11.9108 19.6606 11.509 20.1517 11.509H31.0177C31.5088 11.509 31.9106 11.9108 31.9106 12.4019C31.9106 12.893 31.5088 13.2947 31.0177 13.2947Z" fill="#8ED4EA"/>
<path d="M25.5847 17.4822H20.1517C19.6606 17.4822 19.2588 17.0805 19.2588 16.5894C19.2588 16.0983 19.6606 15.6965 20.1517 15.6965H25.5847C26.0758 15.6965 26.4776 16.0983 26.4776 16.5894C26.4776 17.0805 26.0758 17.4822 25.5847 17.4822Z" fill="#8ED4EA"/>
</g>
</svg>
