<svg width="50" height="50" viewBox="0 0 50 50" fill="none" xmlns="http://www.w3.org/2000/svg">
<g opacity="0.6" clip-path="url(#clip0_5735_33465)">
<path d="M26.2321 12.6561C26.2321 12.6561 25.7142 0.642693 39.4017 4.16948C39.4017 4.16948 40.1517 15.7766 26.2321 12.6561Z" fill="#8BF8E7"/>
<path d="M30.5981 14.0803C29.2097 14.0803 27.6874 13.8972 26.0356 13.5267C25.6428 13.4374 25.3571 13.0981 25.3392 12.6919C25.3303 12.4776 25.1562 7.44634 28.7321 4.54902C31.2499 2.50884 34.9151 2.08919 39.6249 3.30348C39.9999 3.40169 40.2678 3.72312 40.2946 4.11152C40.3079 4.31241 40.5713 9.04902 37.1785 11.9553C35.5222 13.3704 33.3213 14.0803 30.6026 14.0803H30.5981ZM27.1428 11.9329C31.0892 12.7008 34.0669 12.2544 36.0044 10.6071C38.0669 8.85259 38.4463 6.10705 38.5044 4.87044C34.7097 4.00884 31.8079 4.36598 29.866 5.92848C27.6785 7.69187 27.2321 10.6115 27.1428 11.9329Z" fill="#37635F"/>
<path d="M42.2545 28.1518C42.2545 37.0938 34.8617 49.2991 26.7679 45.7277C25.8081 45.3036 24.942 44.8661 23.2367 45.7277C15.4331 49.6831 7.74561 37.0848 7.74561 28.1473C7.74561 21.2634 10.0492 16.1072 16.1965 16.1965C19.3304 16.2411 21.4554 18.134 25.0001 18.134C28.8483 18.134 31.0402 16.1965 34.3929 16.2679C40.1161 16.3929 42.2545 21.4911 42.2545 28.1473V28.1518Z" fill="#6ED5C5"/>
<path d="M25.3527 17.8215C25.2724 17.8215 25.192 17.8125 25.1072 17.7857C24.634 17.6518 24.3572 17.1563 24.4911 16.6831C24.5536 16.4643 25.9465 11.2098 21.0313 8.62949C20.5938 8.40181 20.4286 7.86163 20.6563 7.42413C20.884 6.98663 21.4242 6.82145 21.8617 7.04913C28.076 10.3125 26.2277 17.1072 26.2099 17.1741C26.0983 17.567 25.7411 17.8215 25.3527 17.8215Z" fill="#37635F"/>
<path d="M30.5981 14.0803C29.2097 14.0803 27.6874 13.8972 26.0356 13.5267C25.6428 13.4374 25.3571 13.0981 25.3392 12.6919C25.3303 12.4776 25.1562 7.44634 28.7321 4.54902C31.2499 2.50884 34.9151 2.08919 39.6249 3.30348C39.9999 3.40169 40.2678 3.72312 40.2946 4.11152C40.3079 4.31241 40.5713 9.04902 37.1785 11.9553C35.5222 13.3704 33.3213 14.0803 30.6026 14.0803H30.5981ZM27.1428 11.9329C31.0892 12.7008 34.0669 12.2544 36.0044 10.6071C38.0669 8.85259 38.4463 6.10705 38.5044 4.87044C34.7097 4.00884 31.8079 4.36598 29.866 5.92848C27.6785 7.69187 27.2321 10.6115 27.1428 11.9329Z" fill="#37635F"/>
<path d="M40.5536 19.9106C39.0268 20.3749 37.8929 22.0669 37.9777 24.174C38.1161 27.6785 36.4376 39.7321 25.0001 41.4106C13.6429 43.0803 8.90632 34.6562 8.83936 34.5446C11.2322 41.9419 17.1965 48.7946 23.2367 45.7321C24.9376 44.8705 25.8081 45.308 26.7679 45.7321C34.8617 49.3035 42.2545 37.0937 42.2545 28.1562C42.2545 24.9017 41.7411 22.0223 40.5492 19.9151L40.5536 19.9106Z" fill="#009081"/>
<path d="M16.2544 31.7901C15.8749 31.7901 15.5223 31.549 15.4017 31.165C13.4732 25.0847 15.4196 21.9909 15.5044 21.8615C15.7723 21.4463 16.3258 21.3302 16.741 21.5981C17.1517 21.8659 17.2678 22.4151 17.0089 22.8258C16.9732 22.8838 15.4687 25.4597 17.1071 30.6249C17.2544 31.0936 16.9955 31.5981 16.5267 31.7454C16.4374 31.7722 16.3482 31.7856 16.2589 31.7856L16.2544 31.7901Z" fill="white"/>
<path d="M20.2186 47.3704C18.7543 47.3704 17.2766 46.9239 15.8258 46.0355C10.8749 42.9954 6.85254 34.973 6.85254 28.1516C6.85254 23.2632 7.95522 19.6963 10.1338 17.5489C11.6784 16.0266 13.732 15.2855 16.2052 15.3079C17.8525 15.3302 19.232 15.8168 20.5668 16.2855C21.9731 16.7811 23.3034 17.2454 24.9954 17.2454C26.8124 17.2454 28.2722 16.7677 29.6829 16.3034C31.1249 15.8302 32.6115 15.3391 34.4061 15.3793C40.04 15.4998 43.1427 20.0355 43.1427 28.1516C43.1427 34.8525 39.3659 42.5623 34.549 45.7052C31.8927 47.4373 29.0758 47.723 26.4016 46.5445L26.3079 46.5043C25.4329 46.1159 24.9061 45.8838 23.6338 46.5266C22.5222 47.0891 21.3749 47.3704 20.2141 47.3704H20.2186ZM16.04 17.0936C14.1159 17.0936 12.5534 17.6739 11.3883 18.8213C9.58915 20.5936 8.63825 23.8213 8.63825 28.1516C8.63825 34.3168 12.357 41.8079 16.7633 44.5132C18.8347 45.7855 20.8749 45.9239 22.8347 44.9329C24.8615 43.9061 26.0668 44.4418 27.04 44.8704L27.1293 44.9105C29.2543 45.848 31.4284 45.6114 33.5802 44.2097C37.8704 41.4105 41.3615 34.2097 41.3615 28.1516C41.3615 23.2097 40.1472 17.29 34.3704 17.165C32.8793 17.1338 31.5981 17.5534 30.2409 17.9998C28.7677 18.482 27.1025 19.0311 24.9954 19.0311C22.8883 19.0311 21.4597 18.4909 19.9731 17.9686C18.7186 17.5266 17.5356 17.1114 16.1784 17.0936C16.1293 17.0936 16.0847 17.0936 16.0356 17.0936H16.04Z" fill="#37635F"/>
</g>
<defs>
<clipPath id="clip0_5735_33465">
<rect width="50" height="50" fill="white"/>
</clipPath>
</defs>
</svg>
