<svg width="50" height="50" viewBox="0 0 50 50" fill="none" xmlns="http://www.w3.org/2000/svg">
<g opacity="0.6" clip-path="url(#clip0_5735_33477)">
<path d="M18.9289 12.4373C18.9289 12.4373 12.4735 5.08015 5.33064 4.95068L3.88867 10.0444C3.88867 10.0444 8.99135 9.5355 16.978 17.8123L18.3039 19.1873L22.1922 14.7587L18.9289 12.4373Z" fill="#8BF8E7"/>
<path d="M18.3036 20.0803C18.0625 20.0803 17.8304 19.982 17.6608 19.8079L16.3349 18.4329C8.83041 10.6561 4.01344 10.9285 3.96433 10.9329C3.67416 10.9553 3.38398 10.8347 3.20094 10.607C3.01791 10.3794 2.94648 10.0803 3.02683 9.799L4.4688 4.70525C4.57594 4.32132 4.92862 4.05347 5.32594 4.05347H5.3438C12.4688 4.18293 18.75 10.9017 19.5268 11.7633L22.7099 14.0267C22.9152 14.174 23.0492 14.4017 23.0804 14.6517C23.1117 14.9017 23.0313 15.1561 22.8661 15.3436L18.9777 19.7722C18.8125 19.9597 18.5759 20.0713 18.3259 20.0758C18.317 20.0758 18.3125 20.0758 18.3036 20.0758V20.0803ZM5.04469 9.22757C7.11612 9.54007 11.6161 10.9731 17.6161 17.1919L18.2679 17.8704L20.8617 14.9151L18.4018 13.1651C18.3438 13.1249 18.2947 13.0803 18.25 13.0267C18.192 12.9597 12.384 6.43293 5.98666 5.87936L5.03576 9.22757H5.04469Z" fill="#37635F"/>
<path d="M17.3482 16.0625C17.3482 16.0625 11.7767 8.02229 13.3839 1.058L18.6741 0.892822C18.6741 0.892822 16.9419 5.72318 23.0401 15.4732L24.0535 17.0937L18.8169 19.7946L17.3571 16.0625H17.3482Z" fill="#6ED5C5"/>
<path d="M18.8126 20.6874C18.7054 20.6874 18.5983 20.6695 18.4956 20.6294C18.259 20.5401 18.0715 20.357 17.9778 20.1204L16.5536 16.4865C15.9063 15.5267 10.9063 7.80346 12.5135 0.861496C12.6028 0.468639 12.951 0.182925 13.3572 0.169532L18.6474 -0.000110609C18.942 -0.0135035 19.2233 0.129354 19.3974 0.365961C19.5715 0.607032 19.6161 0.915068 19.5179 1.19185C19.5045 1.22757 18.076 5.83917 23.7992 14.9999L24.8126 16.6204C24.9465 16.8302 24.9822 17.0892 24.9153 17.3302C24.8483 17.5713 24.6831 17.7722 24.4644 17.8883L19.2278 20.5847C19.0983 20.6517 18.9599 20.6829 18.817 20.6829L18.8126 20.6874ZM14.1206 1.92846C13.1072 8.26775 18.0313 15.482 18.0804 15.5579C18.1206 15.616 18.1519 15.674 18.1786 15.741L19.2813 18.549L22.7769 16.7454L22.2769 15.9463C17.6965 8.61596 17.3974 3.90167 17.5983 1.81685L14.1206 1.92846Z" fill="#37635F"/>
<path d="M42.9014 44.933L41.4372 46.0758C39.9639 47.2231 37.8389 46.9642 36.6916 45.491L36.1604 44.5758C33.205 39.5044 29.8166 34.6964 26.0309 30.2098L24.4595 28.3481L29.8166 24.1606L31.2363 26.1294C34.6738 30.8883 38.513 35.3392 42.7184 39.4374L43.4818 40.183C44.6291 41.6562 44.3702 43.7812 42.897 44.9285L42.9014 44.933Z" fill="#DFFDF7"/>
<path d="M39.357 47.683C38.0847 47.683 36.8257 47.1205 35.982 46.0402C35.9552 46.0089 35.9329 45.9732 35.915 45.9419L35.3838 45.0268C32.4641 40.0134 29.0847 35.2232 25.3436 30.7857L23.7722 28.9241C23.6159 28.7366 23.54 28.4955 23.5668 28.2545C23.5936 28.0134 23.7141 27.7902 23.9061 27.6428L29.2632 23.4553C29.4552 23.308 29.6963 23.2411 29.9373 23.2768C30.1784 23.3125 30.3927 23.442 30.5356 23.6384L31.9552 25.6071C35.3525 30.3125 39.1784 34.75 43.3347 38.7991L44.0981 39.5446C44.1248 39.5714 44.1516 39.6027 44.1784 39.6339C44.8793 40.5357 45.1918 41.6518 45.0534 42.7857C44.915 43.9196 44.3436 44.9286 43.4418 45.6339L41.9775 46.7768C41.1963 47.3839 40.2722 47.6786 39.3525 47.6786L39.357 47.683ZM37.4284 44.9866C38.2811 46.0268 39.8213 46.2053 40.8882 45.3705L42.3525 44.2277C42.8748 43.8169 43.2097 43.2321 43.29 42.5714C43.3704 41.9286 43.2007 41.2946 42.8168 40.7812L42.0981 40.0803C37.8704 35.9598 33.9731 31.4419 30.5177 26.6562L29.6382 25.4375L25.7409 28.4821L26.7141 29.6384C30.5222 34.1518 33.9597 39.0268 36.9329 44.1294L37.4329 44.9866H37.4284Z" fill="#37635F"/>
<path d="M24.4599 28.3482C24.4599 28.3482 15.3661 19.6607 7.28578 22.5625L5.62061 16.9062C5.62061 16.9062 19.7144 11.7276 29.817 24.1607L24.4599 28.3482Z" fill="#6ED5C5"/>
<path d="M24.4599 29.2409C24.2366 29.2409 24.0134 29.1561 23.8438 28.9954C23.7545 28.9106 15.0447 20.7231 7.58932 23.4016C7.35717 23.4865 7.10271 23.4686 6.88396 23.357C6.66521 23.2454 6.50003 23.049 6.43307 22.8124L4.76789 17.1561C4.63396 16.7052 4.87503 16.2275 5.317 16.0668C5.46432 16.0133 20.1295 10.8124 30.5134 23.5981C30.6652 23.7856 30.7366 24.0222 30.7098 24.2633C30.6831 24.4999 30.5625 24.7186 30.3706 24.8659L25.0134 29.0534C24.8527 29.1784 24.6563 29.2409 24.4643 29.2409H24.4599ZM10.7679 21.0847C13.4152 21.0847 16.317 21.924 19.3304 23.5847C21.7366 24.9106 23.6027 26.4106 24.4956 27.1829L28.5357 24.0266C20.2768 14.5579 9.70539 16.6516 6.72325 17.4954L7.88396 21.4418C8.8036 21.2008 9.76789 21.0847 10.7634 21.0847H10.7679Z" fill="#37635F"/>
<path d="M29.8486 24.1428C29.8486 24.1428 23.5495 14.6562 28.679 6.43747L23.9558 3.17407C23.9558 3.17407 14.8754 15.5134 24.4915 28.3259L29.8486 24.1384V24.1428Z" fill="#8BF8E7"/>
<path d="M24.4869 29.2186C24.4467 29.2186 24.4065 29.2186 24.3708 29.2097C24.1342 29.1784 23.9199 29.0534 23.7726 28.8615C13.8708 15.6695 23.1342 2.77217 23.2324 2.64271C23.5181 2.25432 24.0628 2.16503 24.4601 2.43735L29.1833 5.70074C29.5762 5.97307 29.6878 6.50431 29.4333 6.9061C27.4512 10.0802 27.0315 13.8391 28.1878 18.0802C29.0672 21.3123 30.5806 23.6204 30.594 23.6427C30.8529 24.0311 30.7681 24.5534 30.3976 24.8391L25.0404 29.0266C24.8842 29.1516 24.6878 29.2141 24.4913 29.2141L24.4869 29.2186ZM24.1878 4.42396C22.5137 7.11592 17.5271 16.7811 24.6654 27.0534L28.6699 23.924C28.1119 22.9463 27.1387 21.0356 26.4735 18.607C25.2726 14.232 25.6208 10.1338 27.4869 6.70074L24.1878 4.42396Z" fill="#37635F"/>
<path d="M41.4373 46.0757C41.4373 46.0757 39.9954 47.7944 40.7186 49.1069L41.4373 46.0757Z" fill="#8BF8E7"/>
<path d="M40.7186 49.9999C40.4017 49.9999 40.0981 49.8347 39.9374 49.5356C38.9508 47.741 40.5668 45.7231 40.7543 45.4999C41.0713 45.1204 41.6338 45.0713 42.0133 45.3883C42.3883 45.7052 42.4418 46.2677 42.1249 46.6427C41.7856 47.0535 41.1829 48.0936 41.4999 48.674C41.7365 49.107 41.5802 49.6472 41.1472 49.8883C41.0088 49.9642 40.8615 49.9999 40.7186 49.9999Z" fill="#37635F"/>
<path d="M42.3975 45.7944C42.3975 45.7944 42.1029 47.04 43.1207 48.2319L42.3975 45.7944Z" fill="#8BF8E7"/>
<path d="M43.1206 49.1248C42.8706 49.1248 42.6206 49.0177 42.442 48.8123C41.4063 47.6025 41.3795 46.2141 41.5268 45.5891C41.6385 45.1114 42.1206 44.8079 42.6027 44.9239C43.0804 45.0355 43.3751 45.5088 43.2679 45.9864C43.259 46.04 43.1161 46.8525 43.7992 47.6472C44.1206 48.0222 44.076 48.5847 43.701 48.9061C43.5313 49.0489 43.3259 49.1204 43.1206 49.1204V49.1248Z" fill="#37635F"/>
<path d="M42.9019 44.9329C42.9019 44.9329 44.8572 44.6248 46.1161 45.3927L42.9019 44.9329Z" fill="#8BF8E7"/>
<path d="M46.1119 46.2856C45.9511 46.2856 45.7904 46.2454 45.6476 46.1561C44.8574 45.6695 43.4958 45.7454 43.0404 45.8168C42.5583 45.8927 42.0985 45.5579 42.0226 45.0713C41.9467 44.5847 42.277 44.1293 42.7636 44.0535C42.9958 44.0177 45.0895 43.7186 46.5851 44.6338C47.0047 44.8927 47.1386 45.4418 46.8797 45.8615C46.7101 46.1383 46.4199 46.2901 46.1163 46.2901L46.1119 46.2856Z" fill="#37635F"/>
</g>
<defs>
<clipPath id="clip0_5735_33477">
<rect width="50" height="50" fill="white"/>
</clipPath>
</defs>
</svg>
