<svg width="50" height="50" viewBox="0 0 50 50" fill="none" xmlns="http://www.w3.org/2000/svg">
<g opacity="0.6" clip-path="url(#clip0_5735_33503)">
<path d="M44.0969 31.771L33.7354 23.6494L25.6138 34.011L35.9753 42.1326L44.0969 31.771Z" fill="#F2F7F8"/>
<path d="M35.982 43.0268C35.7856 43.0268 35.5892 42.9598 35.4329 42.8348L25.0713 34.7143C24.6829 34.4107 24.616 33.8482 24.9195 33.4598L33.0401 23.0982C33.3437 22.7098 33.9062 22.6428 34.2945 22.9464L44.6562 31.0669C44.8437 31.2143 44.9642 31.4285 44.991 31.6607C45.0178 31.8973 44.9553 32.1339 44.8079 32.3169L36.6874 42.6785C36.5401 42.866 36.3258 42.9866 36.0937 43.0134C36.0579 43.0134 36.0222 43.0178 35.9865 43.0178L35.982 43.0268ZM26.8749 33.8616L35.8303 40.8794L42.8481 31.9241L33.8928 24.9062L26.8749 33.8616Z" fill="#3F5753"/>
<path d="M19.287 8.99759L35.056 21.3576C35.829 21.9635 35.9642 23.0791 35.3583 23.8521L26.1048 35.6577C25.4989 36.4307 24.3833 36.5659 23.6103 35.96L7.84136 23.6C5.63483 21.8705 5.24745 18.674 6.97697 16.4675L12.1518 9.8655C13.8813 7.65897 17.0777 7.27158 19.2843 9.0011L19.287 8.99759Z" fill="#2EDDB8"/>
<path d="M24.7053 37.2276C24.1295 37.2276 23.5491 37.0446 23.0625 36.6607L7.29463 24.3035C6.04017 23.3169 5.24106 21.9062 5.04909 20.3214C4.85713 18.7366 5.29463 17.1741 6.27677 15.9151L11.4509 9.31245C12.4375 8.05799 13.8482 7.25888 15.433 7.06692C17.0178 6.87495 18.5803 7.31245 19.8393 8.2946L35.6071 20.6517C36.1696 21.0937 36.5268 21.7232 36.6116 22.433C36.6964 23.1428 36.5044 23.8392 36.0625 24.4017L26.8125 36.2053C26.2857 36.875 25.5 37.2276 24.7098 37.2276H24.7053ZM24.1652 35.2544C24.5491 35.5535 25.1027 35.4866 25.4062 35.1026L34.6562 23.2991C34.8036 23.1116 34.8661 22.8839 34.8393 22.6473C34.8125 22.4107 34.692 22.2053 34.5089 22.058L18.7411 9.70085C17.8616 9.00888 16.7634 8.70531 15.6518 8.83924C14.5402 8.97317 13.5491 9.5312 12.8571 10.4151L7.68302 17.0178C6.99106 17.8973 6.68749 18.9955 6.82142 20.1071C6.95534 21.2187 7.51338 22.2098 8.39731 22.9017L24.1652 35.2589V35.2544Z" fill="#3F5753"/>
<path d="M37.2544 32.933C37.0624 32.933 36.866 32.8705 36.7053 32.741L35.6338 31.9017C35.2454 31.5982 35.1785 31.0357 35.482 30.6473C35.7856 30.2589 36.3481 30.1919 36.7365 30.4955L37.8079 31.3348C38.1963 31.6383 38.2633 32.2008 37.9597 32.5892C37.7856 32.8124 37.5222 32.933 37.2544 32.933Z" fill="#3F5753"/>
<path d="M34.6118 36.308C34.4198 36.308 34.2234 36.2455 34.0627 36.116L32.9913 35.2767C32.6029 34.9731 32.5359 34.4107 32.8395 34.0223C33.143 33.6339 33.7055 33.5669 34.0939 33.8705L35.1654 34.7098C35.5538 35.0133 35.6207 35.5758 35.3171 35.9642C35.143 36.1874 34.8796 36.308 34.6118 36.308Z" fill="#3F5753"/>
<path d="M25.8702 14.1609L19.1872 8.92427C17.0309 7.23677 13.9148 7.61177 12.2273 9.76802L7.95947 15.2145C7.95947 15.2145 16.5354 24.5939 25.8702 14.1609Z" fill="#6FD3C3"/>
<path d="M16.5087 19.9778C11.1694 19.9778 7.4551 15.9867 7.29885 15.8171C7.00421 15.4956 6.98635 15.009 7.25421 14.6653L11.5221 9.21885C12.4864 7.98671 13.8703 7.20992 15.4239 7.01796C16.9774 6.83046 18.5087 7.25903 19.7364 8.21885L26.4194 13.4555C26.6158 13.6072 26.7364 13.8349 26.7587 14.0805C26.781 14.326 26.7006 14.5715 26.5355 14.7546C23.4506 18.201 20.098 19.9599 16.5667 19.9778C16.5489 19.9778 16.5265 19.9778 16.5087 19.9778ZM9.16046 15.1251C10.281 16.1162 13.0399 18.1921 16.5087 18.1921C16.531 18.1921 16.5489 18.1921 16.5712 18.1921C19.3346 18.1697 22.0131 16.8483 24.5533 14.259L18.6381 9.6251C17.7855 8.95546 16.7185 8.65635 15.6426 8.79028C14.5667 8.91974 13.6024 9.46438 12.9328 10.3171L9.16046 15.1296V15.1251Z" fill="#3F5753"/>
<path d="M30.7363 29.7544C30.7363 29.7544 21.964 21.2009 15.1426 29.3169L23.6069 35.9509C24.3837 36.5625 25.5086 36.4241 26.1203 35.6473L30.7363 29.7544Z" fill="#00C7B3"/>
<path d="M24.7053 37.2232C24.1249 37.2232 23.5446 37.0357 23.0535 36.6518L14.5892 30.0179C14.3972 29.8705 14.2767 29.6473 14.2499 29.4062C14.2231 29.1652 14.299 28.9241 14.4553 28.7411C16.4642 26.3482 18.8437 25.0714 21.5133 24.9375C26.7499 24.683 31.1696 28.933 31.3571 29.1116C31.683 29.4286 31.7187 29.942 31.4374 30.3036L26.8169 36.1964C26.2901 36.8705 25.4999 37.2232 24.7053 37.2232ZM16.4463 29.2054L24.1562 35.25C24.3437 35.3973 24.5803 35.4643 24.8169 35.433C25.0535 35.4062 25.2678 35.2857 25.4151 35.0982L29.5133 29.8705C28.2231 28.817 25.0312 26.5402 21.5981 26.7232C19.7053 26.817 17.9776 27.6518 16.4463 29.2054Z" fill="#3F5753"/>
</g>
<defs>
<clipPath id="clip0_5735_33503">
<rect width="50" height="50" fill="white"/>
</clipPath>
</defs>
</svg>
