<svg width="50" height="50" viewBox="0 0 50 50" fill="none" xmlns="http://www.w3.org/2000/svg">
<g opacity="0.6">
<path d="M17.8707 2.91086C15.6386 3.59836 8.61182 6.37069 6.08057 14.5984C6.08057 14.5984 14.2949 20.826 19.2725 27.2635C24.2502 33.701 40.4868 46.9421 45.8752 45.8707C45.8752 45.8707 49.6967 43.1787 44.9065 37.3126C40.1163 31.4466 37.71 16.3885 34.0315 12.3707C34.0315 12.3707 32.1609 10.0002 29.1341 12.6564C26.1118 15.3082 21.3975 12.1653 19.9645 10.4198C16.7502 6.49569 19.7904 5.10729 19.2993 3.61176C19.1074 3.02694 18.4556 2.73229 17.8707 2.91533V2.91086Z" fill="#73E0CF"/>
<path d="M45.2323 46.817C38.5001 46.817 22.9867 33.5224 18.5671 27.8081C13.7188 21.5357 5.6251 15.3706 5.54474 15.3081C5.24563 15.0804 5.12063 14.692 5.23224 14.3349C7.90188 5.66075 15.3796 2.74557 17.6117 2.05807C18.6742 1.73218 19.8126 2.29914 20.1519 3.33039C20.4242 4.14736 20.0983 4.86611 19.8126 5.50003C19.3394 6.54914 18.8483 7.63843 20.6608 9.85271C21.5403 10.9241 23.8394 12.5938 25.9867 12.7679C27.009 12.8527 27.8483 12.5938 28.5492 11.9822C29.7814 10.8974 31.0314 10.4107 32.2456 10.5179C33.6831 10.6474 34.5314 11.5759 34.7055 11.7857C36.576 13.8482 38.076 18.3661 39.6564 23.1474C41.3126 28.1429 43.1876 33.7991 45.5939 36.75C47.5715 39.1741 48.4376 41.4241 48.1608 43.4465C47.8751 45.5313 46.451 46.5581 46.3885 46.6027C46.2858 46.6741 46.1698 46.7232 46.0492 46.75C45.7948 46.7991 45.518 46.8259 45.2323 46.8259V46.817ZM7.12956 14.2768C9.01349 15.75 15.643 21.1072 19.9822 26.7188C25.2189 33.4911 40.6206 45.5536 45.4956 45.0268C45.7456 44.7902 46.2769 44.1786 46.4019 43.1652C46.5894 41.6831 45.8305 39.8572 44.2189 37.8795C41.6028 34.6786 39.7546 29.1027 37.9689 23.7099C36.4421 19.1027 35.0001 14.7456 33.3751 12.9732C33.3617 12.9554 33.3483 12.942 33.3349 12.9241C33.3215 12.9107 32.8528 12.3572 32.0626 12.2947C31.3528 12.2411 30.5715 12.5849 29.7278 13.3259C28.6608 14.2634 27.3528 14.6741 25.8439 14.5491C22.9956 14.3125 20.3081 12.2366 19.2814 10.9822C16.7635 7.91075 17.6206 6.01343 18.1876 4.76343C18.3528 4.39736 18.509 4.04914 18.4599 3.89289C18.4242 3.78575 18.2724 3.72771 18.1385 3.76789C16.1742 4.37503 9.69206 6.89289 7.12956 14.2813V14.2768Z" fill="#3F5753"/>
<path d="M27.8931 13.4063C24.9511 14.5135 21.219 11.9376 19.9734 10.4197C16.7591 6.49563 19.7993 5.10723 19.3082 3.6117C19.1163 3.03134 18.4645 2.73223 17.8797 2.9108C16.5493 3.32152 13.5136 4.4733 10.7368 7.08491L10.835 7.16527C10.835 7.16527 16.652 13.2456 12.7457 20.268C14.969 22.3394 17.3618 24.7858 19.277 27.2635C21.1163 29.643 24.4913 32.951 28.2904 36.1206L31.2502 35.3126C31.2502 35.3126 33.8618 29.7278 29.6207 24.326C25.6832 19.3081 26.6743 16.7412 27.8931 13.4019V13.4063Z" fill="#4F9D91"/>
<path d="M28.2902 37.0135C28.0848 37.0135 27.8794 36.942 27.7187 36.8081C23.8437 33.5759 20.4241 30.2099 18.5714 27.8126C16.9419 25.7009 14.7768 23.384 12.1384 20.9242C11.8393 20.6429 11.7678 20.1965 11.9687 19.8393C15.3928 13.6786 10.7009 8.33934 10.2232 7.82149L10.1652 7.77238C9.96873 7.6072 9.85266 7.37059 9.84819 7.11167C9.83927 6.8572 9.94194 6.61167 10.1294 6.43756C12.9732 3.76345 16.0446 2.54917 17.6205 2.06256C18.6785 1.73667 19.8169 2.30809 20.1607 3.33488C20.433 4.15184 20.1071 4.87059 19.8214 5.50452C19.3482 6.55363 18.8571 7.64292 20.6696 9.8572C21.866 11.317 25.2009 13.4733 27.5848 12.576C27.9107 12.451 28.2812 12.5313 28.5268 12.7768C28.7768 13.0224 28.8571 13.3885 28.7366 13.7188L28.7009 13.817C27.5178 17.0626 26.7366 19.2054 30.3303 23.7813C34.8527 29.5492 32.1785 35.4465 32.0625 35.6965C31.9509 35.9331 31.741 36.1117 31.4866 36.1786L28.5268 36.9867C28.4509 37.009 28.3705 37.0179 28.2902 37.0179V37.0135ZM13.8482 20.0804C16.3348 22.4331 18.3973 24.6652 19.9821 26.7188C21.7053 28.9509 24.875 32.076 28.5044 35.1385L30.5848 34.5715C31.0446 33.3126 32.2009 29.067 28.9152 24.884C25.2812 20.2501 25.5848 17.4376 26.5312 14.567C23.5893 14.6608 20.491 12.4688 19.2768 10.9867C16.7589 7.91524 17.616 6.01792 18.183 4.76792C18.3482 4.40184 18.5044 4.05363 18.4553 3.89738C18.4196 3.79024 18.2678 3.72774 18.1384 3.77238C17.0803 4.09827 14.4821 5.05363 11.9866 7.16524C13.3393 8.90631 16.7232 14.1518 13.8437 20.0849L13.8482 20.0804Z" fill="#3F5753"/>
<path d="M44.9063 37.308C44.6965 37.049 44.4911 36.7723 44.2858 36.4821C44.2858 36.4821 40.7144 37.8035 36.8929 34.5981C33.0715 31.3928 20.4331 28.6606 20.4331 28.6606C26.4019 35.433 40.8483 46.866 45.8751 45.866C45.8751 45.866 49.6965 43.174 44.9063 37.308Z" fill="#DFFDF7"/>
<path d="M45.2502 46.817C39.1163 46.817 25.3573 35.5938 19.7681 29.25C19.5136 28.9598 19.4734 28.5402 19.6698 28.2098C19.8663 27.875 20.2502 27.7054 20.6297 27.7902C21.1565 27.9018 33.527 30.6027 37.4734 33.9152C40.8574 36.7545 43.9511 35.6563 43.9824 35.6473C44.3663 35.5045 44.7949 35.6429 45.027 35.9777C45.2234 36.2589 45.4154 36.5179 45.6029 36.75C47.5806 39.1741 48.4466 41.4286 48.1699 43.4464C47.8841 45.5313 46.46 46.5581 46.3975 46.6027C46.2949 46.6741 46.1788 46.7232 46.0582 46.75C45.8082 46.7991 45.5404 46.8259 45.2547 46.8259L45.2502 46.817ZM23.1341 30.2232C29.8216 36.9509 41.3529 45.4777 45.4957 45.0223C45.7458 44.7857 46.277 44.1741 46.402 43.1607C46.5895 41.6786 45.8306 39.8527 44.219 37.875C44.1207 37.7545 44.0225 37.6295 43.9243 37.5C42.5984 37.7679 39.5315 37.9732 36.3261 35.2813C33.8082 33.1697 27.0404 31.2188 23.1386 30.2232H23.1341Z" fill="#3F5753"/>
<path d="M19.2723 27.2635C18.0803 25.7233 16.741 22.518 15.3348 21.0805C10.8705 16.5224 6.4196 13.6028 6.4196 13.6028C4.23656 13.6028 3.62049 15.6072 2.99103 16.5805C2.43299 17.4465 2.63388 18.6028 3.44192 19.2456C6.8437 21.9555 16.0491 28.6608 19.1785 32.5046C20.8482 34.5537 24.0669 37.7992 27.6428 40.393C31.2232 42.9823 35.1607 44.9198 38.2678 46.1296C44.4866 48.5537 45.875 45.8662 45.875 45.8662C40.4866 46.9376 24.25 33.701 19.2723 27.259V27.2635Z" fill="#DFFDF7"/>
<path d="M42.7723 48.0358C41.3973 48.0358 39.7857 47.6786 37.9464 46.9599C35.7232 46.0938 31.3571 44.1786 27.1205 41.1161C23.375 38.4018 20.1295 35.0849 18.4866 33.0715C16.058 30.0893 9.76338 25.2501 5.5982 22.0492C4.52231 21.2233 3.58481 20.5001 2.88838 19.9465C1.70981 19.009 1.43302 17.3572 2.24552 16.0983C2.34374 15.942 2.44195 15.759 2.55356 15.5626C3.12945 14.4956 4.09374 12.7144 6.4241 12.7144C6.5982 12.7144 6.76785 12.7635 6.91517 12.8617C7.0982 12.9822 11.4955 15.884 15.9777 20.4599C16.8661 21.3706 17.6786 22.8215 18.4598 24.2233C19.0045 25.1965 19.5134 26.1161 19.9821 26.7188C25.1071 33.3483 39.9687 45.0402 45.1696 45.0447C45.3616 45.0447 45.5402 45.0268 45.7053 44.9956C46.0402 44.9286 46.3884 45.0626 46.5937 45.3349C46.7991 45.6072 46.8304 45.9777 46.6741 46.2813C46.6205 46.384 46.1161 47.2902 44.6875 47.759C44.1161 47.9465 43.4777 48.0402 42.7768 48.0402L42.7723 48.0358ZM6.16963 14.509C5.16963 14.6117 4.70088 15.3394 4.12052 16.4108C3.99106 16.6519 3.86606 16.8751 3.74552 17.067C3.43302 17.5492 3.54463 18.1831 3.99999 18.5492C4.68749 19.0983 5.61606 19.8126 6.68302 20.634C10.9152 23.8885 17.3125 28.8036 19.8705 31.9465C21.442 33.8795 24.5625 37.0626 28.1652 39.6742C32.2411 42.6251 36.4464 44.4643 38.5893 45.3036C40.1786 45.9242 41.4018 46.1831 42.3348 46.2456C34.7946 43.6251 22.433 32.8215 18.5625 27.817C18.0134 27.1072 17.4687 26.134 16.8928 25.0983C16.1696 23.7992 15.4152 22.451 14.692 21.7144C10.9196 17.8661 7.12945 15.1786 6.1607 14.5179L6.16963 14.509Z" fill="#3F5753"/>
<path d="M31.8569 18.2097C31.4552 18.2097 31.0935 17.9374 30.9909 17.5312C30.8703 17.0535 31.165 16.5669 31.6427 16.4508L35.2052 15.5624C35.6828 15.4463 36.1694 15.7365 36.2855 16.2142C36.4016 16.6919 36.1114 17.1785 35.6337 17.2946L32.0712 18.183C31.9998 18.2008 31.9284 18.2097 31.8569 18.2097Z" fill="#3F5753"/>
<path d="M33.3213 21.9732C32.9195 21.9732 32.5579 21.7008 32.4552 21.2946C32.3347 20.8169 32.6293 20.3303 33.107 20.2142L36.6695 19.3258C37.1472 19.2053 37.6338 19.4999 37.7499 19.9776C37.8659 20.4553 37.5758 20.9419 37.0981 21.058L33.5356 21.9464C33.4642 21.9642 33.3927 21.9732 33.3213 21.9732Z" fill="#3F5753"/>
<path d="M34.6338 25.866C34.232 25.866 33.8704 25.5937 33.7677 25.1874C33.6472 24.7097 33.9418 24.2231 34.4195 24.1071L37.982 23.2187C38.4597 23.1026 38.9463 23.3928 39.0624 23.8705C39.1829 24.3481 38.8883 24.8347 38.4106 24.9508L34.8481 25.8392C34.7767 25.8571 34.7052 25.866 34.6338 25.866Z" fill="#3F5753"/>
<path d="M19.8974 20.607C21.4137 20.607 22.6429 19.3778 22.6429 17.8615C22.6429 16.3452 21.4137 15.116 19.8974 15.116C18.3811 15.116 17.1519 16.3452 17.1519 17.8615C17.1519 19.3778 18.3811 20.607 19.8974 20.607Z" fill="#DFFDF7"/>
<path d="M19.8972 21.4999C17.8927 21.4999 16.2588 19.8705 16.2588 17.8615C16.2588 15.8526 17.8883 14.2231 19.8972 14.2231C21.9061 14.2231 23.5356 15.8526 23.5356 17.8615C23.5356 19.8705 21.9061 21.4999 19.8972 21.4999ZM19.8972 16.0133C18.8749 16.0133 18.0445 16.8437 18.0445 17.866C18.0445 18.8883 18.8749 19.7187 19.8972 19.7187C20.9195 19.7187 21.7499 18.8883 21.7499 17.866C21.7499 16.8437 20.9195 16.0133 19.8972 16.0133Z" fill="#3F5753"/>
</g>
</svg>
