<svg width="50" height="50" viewBox="0 0 50 50" fill="none" xmlns="http://www.w3.org/2000/svg">
<g opacity="0.6">
<path d="M42.7324 6.02222H7.26367C4.81291 6.02222 2.82617 8.00895 2.82617 10.4597V36.232C2.82617 38.6828 4.81291 40.6695 7.26367 40.6695H42.7324C45.1832 40.6695 47.1699 38.6828 47.1699 36.232V10.4597C47.1699 8.00895 45.1832 6.02222 42.7324 6.02222Z" fill="#F6F6F6"/>
<path d="M20.0581 36.6741C27.3414 36.6741 33.2456 30.7698 33.2456 23.4866C33.2456 16.2033 27.3414 10.2991 20.0581 10.2991C12.7749 10.2991 6.87061 16.2033 6.87061 23.4866C6.87061 30.7698 12.7749 36.6741 20.0581 36.6741Z" fill="#62BFB1"/>
<path d="M42.4735 9.0445H32.9958C31.5449 9.0445 30.7235 10.7231 31.6297 11.8525C33.8351 14.607 35.0806 18.1695 34.8485 22.0266C34.4021 29.3883 28.4646 35.3838 21.1074 35.8883C12.4467 36.4865 5.23242 29.6383 5.23242 21.1025C5.23242 17.6204 6.43331 14.4195 8.44671 11.8927C9.36189 10.7409 8.5851 9.04004 7.11189 9.04004H7.0851C4.73242 9.04004 2.82617 10.9463 2.82617 13.299V36.3213C2.82617 38.7231 4.7726 40.665 7.16992 40.665H42.3083C44.661 40.665 46.5672 38.7588 46.5672 36.4061V13.1383C46.5672 10.8749 44.7324 9.04004 42.469 9.04004L42.4735 9.0445Z" fill="#BAFAEE"/>
<path d="M15.7189 40.7366H9.30371V43.9732H15.7189V40.7366Z" fill="#62BFB1"/>
<path d="M39.9376 40.7366H33.5225V43.9732H39.9376V40.7366Z" fill="#62BFB1"/>
<path d="M18.7995 21.1025C18.7995 21.1025 15.6968 13.607 20.0584 13.3481C24.42 13.0891 22.5361 17.049 22.1566 17.9909C21.7771 18.9329 21.3039 20.8124 21.3039 20.8124L18.7995 21.1025Z" fill="#BAFAEE"/>
<path d="M22.7325 22.116C22.7325 22.116 26.5674 19.7768 28.6522 21.1026C30.737 22.4285 31.1433 23.8884 30.3754 24.8571C29.6075 25.8259 27.9156 27.0312 26.7325 26.0982C25.5495 25.1651 22.8665 24.4598 22.2281 24.8571C21.5897 25.2544 22.7281 22.116 22.7281 22.116H22.7325Z" fill="#BAFAEE"/>
<path d="M17.4958 22.6338C17.4958 22.6338 15.3663 22.424 14.1387 21.7632C12.911 21.1025 10.6744 20.5356 10.3797 21.7632C10.0851 22.9909 9.96901 26.3034 12.527 26.299C15.0851 26.2945 18.1654 24.8525 18.1654 24.8525L17.4958 22.6293V22.6338Z" fill="#BAFAEE"/>
<path d="M19.2726 25.8839C19.2726 25.8839 18.8842 28.116 18.161 29.4241C17.4378 30.7321 17.7681 33.616 20.0538 33.683C22.3396 33.75 23.0449 31.7634 22.8797 29.7857C22.7146 27.808 22.2235 24.8616 22.2235 24.8616L19.2681 25.8884L19.2726 25.8839Z" fill="#BAFAEE"/>
<path d="M20.4736 26.3036C21.9899 26.3036 23.2191 25.0744 23.2191 23.558C23.2191 22.0417 21.9899 20.8125 20.4736 20.8125C18.9572 20.8125 17.728 22.0417 17.728 23.558C17.728 25.0744 18.9572 26.3036 20.4736 26.3036Z" fill="white"/>
<path d="M32.5323 23.3481C32.5322 16.5353 27.009 11.0124 20.1962 11.0124C13.3835 11.0125 7.86066 16.5353 7.86057 23.3481C7.86057 30.1609 13.3834 35.6841 20.1962 35.6842C27.0091 35.6842 32.5323 30.1609 32.5323 23.3481ZM34.5125 23.3481C34.5125 31.2546 28.1027 37.6644 20.1962 37.6644C12.2898 37.6643 5.88037 31.2545 5.88037 23.3481C5.88046 15.4417 12.2898 9.03232 20.1962 9.03223C28.1026 9.03223 34.5124 15.4416 34.5125 23.3481Z" fill="#3F5753"/>
<path d="M21.7418 23.3483C21.7417 22.4947 21.0498 21.8027 20.1962 21.8027C19.3426 21.8027 18.6506 22.4947 18.6506 23.3483C18.6506 24.2019 19.3426 24.8938 20.1962 24.8939C21.0498 24.8939 21.7418 24.2019 21.7418 23.3483ZM23.722 23.3483C23.722 25.2955 22.1434 26.8741 20.1962 26.8741C18.249 26.874 16.6704 25.2955 16.6704 23.3483C16.6704 21.4011 18.249 19.8225 20.1962 19.8225C22.1434 19.8225 23.7219 21.4011 23.722 23.3483Z" fill="#3F5753"/>
<path d="M19.3688 12.4885C20.4773 12.158 21.6985 12.3159 22.502 12.8235L22.5015 12.824C24.2876 13.949 24.5739 16.1076 23.5714 17.7068L23.5719 17.7073C23.1315 18.4129 22.7613 18.8987 22.4938 19.4714C22.2536 19.9856 22.1916 20.3948 22.3202 20.8086C22.4826 21.3307 22.1911 21.8858 21.669 22.0482C21.1469 22.2105 20.5918 21.9186 20.4295 21.3965C20.1029 20.3462 20.3379 19.4072 20.6992 18.6336C21.0333 17.9184 21.5689 17.1762 21.8919 16.6587L21.8933 16.6568C22.38 15.8816 22.2112 14.9805 21.4457 14.4987L21.4442 14.4977C21.1807 14.3313 20.5624 14.1992 19.9344 14.3865C19.3796 14.552 18.8339 14.9617 18.5972 15.8842C18.3413 16.8819 18.5591 18.024 18.9056 18.9981C19.0739 19.4711 19.2614 19.8736 19.4065 20.1569C19.4788 20.2979 19.54 20.4079 19.5815 20.4804C19.6022 20.5165 19.618 20.5436 19.6279 20.5601C19.6328 20.5683 19.6362 20.574 19.6381 20.577C19.6384 20.5777 19.6388 20.5781 19.639 20.5785C19.9284 21.0421 19.7873 21.6526 19.3238 21.9423C18.8602 22.2321 18.2494 22.0912 17.9595 21.6276L18.7988 21.1025C17.9594 21.6274 17.9592 21.6273 17.9591 21.6271V21.6266C17.9588 21.6262 17.9584 21.6256 17.9581 21.6252C17.9575 21.6242 17.9565 21.6231 17.9557 21.6218C17.954 21.6191 17.9523 21.6156 17.9499 21.6116C17.9449 21.6035 17.9382 21.5924 17.9301 21.5787C17.9137 21.5514 17.891 21.5134 17.8633 21.4651C17.8081 21.3687 17.7321 21.2314 17.6443 21.06C17.4693 20.7185 17.2434 20.235 17.0395 19.6619C16.6417 18.5434 16.2791 16.9529 16.6794 15.3926C17.0989 13.7573 18.1872 12.8409 19.3688 12.4885Z" fill="#3F5753"/>
<path d="M18.9781 24.9382C19.5002 24.7758 20.0552 25.0677 20.2176 25.5899C20.5453 26.6435 20.3027 27.5929 19.9411 28.3668C19.6039 29.0883 19.0699 29.8265 18.7537 30.3301C18.2672 31.1052 18.436 32.0059 19.2014 32.4877L19.2029 32.4887C19.4663 32.6551 20.0846 32.7876 20.7127 32.6004C21.2676 32.4349 21.8131 32.0249 22.0499 31.1022C22.3058 30.1046 22.0884 28.9628 21.7419 27.9888C21.5736 27.5156 21.3858 27.1128 21.2406 26.8295C21.1683 26.6885 21.1076 26.5785 21.0661 26.506C21.0454 26.47 21.0296 26.4433 21.0197 26.4267C21.0148 26.4186 21.0109 26.4129 21.009 26.4098L21.0085 26.4089L20.9592 26.3204C20.7374 25.8701 20.8885 25.3159 21.3233 25.0441C21.7869 24.7543 22.3976 24.8953 22.6876 25.3588L21.8493 25.8833C22.6725 25.3686 22.6876 25.3592 22.688 25.3593L22.6885 25.3598C22.6887 25.3601 22.6887 25.3608 22.689 25.3612C22.6896 25.3622 22.6906 25.3633 22.6914 25.3646C22.6931 25.3673 22.6952 25.3707 22.6977 25.3748C22.7027 25.3829 22.7093 25.394 22.7175 25.4076C22.7339 25.4349 22.7566 25.473 22.7842 25.5212C22.8395 25.6177 22.915 25.7551 23.0028 25.9264C23.1778 26.2679 23.4037 26.7518 23.6075 27.325C24.0054 28.4435 24.368 30.034 23.9677 31.5943C23.5482 33.2294 22.4599 34.1455 21.2783 34.4979C20.1698 34.8284 18.9486 34.6705 18.1451 34.1629V34.1624C16.3587 33.0367 16.0726 30.8764 17.0767 29.2771C17.506 28.5933 17.8782 28.1037 18.147 27.5285C18.3914 27.0056 18.4546 26.5884 18.3269 26.1778C18.1645 25.6557 18.456 25.1006 18.9781 24.9382Z" fill="#3F5753"/>
<path d="M17.1366 24.3296C17.6001 24.0404 18.2107 24.1814 18.5004 24.6448C18.7902 25.1085 18.6493 25.7192 18.1857 26.0091L17.6606 25.1699C18.1855 26.0094 18.1854 26.0095 18.1852 26.0096L18.1847 26.0101C18.1843 26.0103 18.1837 26.0103 18.1832 26.0106C18.1823 26.0112 18.1812 26.0122 18.1799 26.013C18.1772 26.0146 18.1738 26.0168 18.1697 26.0193C18.1616 26.0243 18.1504 26.0309 18.1368 26.0391C18.1095 26.0555 18.0714 26.0782 18.0232 26.1058C17.9268 26.1611 17.7894 26.2366 17.6181 26.3243C17.2766 26.4993 16.7931 26.7253 16.22 26.9291C15.1015 27.327 13.511 27.6896 11.9506 27.2893C10.3154 26.8698 9.39894 25.7815 9.04658 24.5999C8.71608 23.4914 8.87399 22.2701 9.38161 21.4667H9.3821C10.5077 19.6802 12.6685 19.3942 14.2678 20.3982C14.9516 20.8276 15.4412 21.1998 16.0164 21.4686C16.5393 21.7129 16.9561 21.7761 17.3667 21.6484C17.8888 21.4861 18.4438 21.7776 18.6063 22.2996C18.7686 22.8218 18.4767 23.3768 17.9546 23.5392C16.901 23.8668 15.952 23.6243 15.1781 23.2627C14.4566 22.9255 13.7185 22.3915 13.2149 22.0753C12.4397 21.5887 11.5386 21.7575 11.0568 22.523L11.0558 22.5244C10.8893 22.7879 10.7573 23.4062 10.9446 24.0343C11.1101 24.5892 11.5198 25.1347 12.4423 25.3715C13.44 25.6274 14.5821 25.41 15.5562 25.0635C16.0292 24.8952 16.4317 24.7073 16.715 24.5622C16.8559 24.49 16.966 24.4292 17.0384 24.3877C17.0746 24.3669 17.1017 24.3511 17.1182 24.3412C17.1265 24.3363 17.1321 24.3324 17.1351 24.3306C17.1357 24.3302 17.1362 24.3299 17.1366 24.3296Z" fill="#3F5753"/>
<path d="M24.1734 20.3567C25.2919 19.9588 26.8824 19.5962 28.4427 19.9965C30.0778 20.4161 30.9939 21.5044 31.3463 22.6859C31.6766 23.7938 31.5186 25.0137 31.0117 25.8172C29.8864 27.6053 27.7254 27.892 26.1255 26.8876C25.4417 26.4583 24.9521 26.0861 24.3769 25.8172C23.854 25.5729 23.4368 25.5097 23.0262 25.6374C22.504 25.7997 21.949 25.5083 21.7866 24.9862C21.6242 24.464 21.9161 23.909 22.4383 23.7466C23.4919 23.419 24.4413 23.6615 25.2152 24.0232C25.9367 24.3603 26.6749 24.8943 27.1785 25.2105C27.9536 25.6971 28.8543 25.5284 29.3361 24.7628L29.3371 24.7614C29.5035 24.4979 29.636 23.8796 29.4487 23.2516C29.2832 22.6966 28.8732 22.1511 27.9505 21.9144C26.9529 21.6584 25.8112 21.8763 24.8371 22.2228C24.364 22.3911 23.9612 22.5785 23.6778 22.7236C23.5368 22.7959 23.4269 22.8571 23.3544 22.8987C23.3183 22.9193 23.2916 22.9352 23.2751 22.9451C23.267 22.9499 23.2613 22.9534 23.2582 22.9552C23.2576 22.9556 23.2567 22.9555 23.2563 22.9557L23.2568 22.9562H23.2563L23.2558 22.9567H23.2553L23.1688 23.005C22.7185 23.2268 22.1643 23.0757 21.8925 22.641C21.6028 22.1774 21.7437 21.5666 22.2072 21.2767L22.6815 22.0347C22.2116 21.2832 22.2075 21.2764 22.2077 21.2762H22.2082C22.2085 21.276 22.2092 21.2755 22.2096 21.2752C22.2106 21.2746 22.2117 21.2736 22.213 21.2728C22.2156 21.2712 22.2192 21.2695 22.2232 21.267C22.2313 21.262 22.2424 21.2554 22.256 21.2472C22.2833 21.2308 22.3215 21.2081 22.3696 21.1805C22.4661 21.1252 22.6034 21.0493 22.7748 20.9615C23.1163 20.7865 23.6002 20.5606 24.1734 20.3567Z" fill="#3F5753"/>
<path d="M46.1796 10.5401C46.1796 8.59183 44.6002 7.01242 42.6519 7.01242H7.34385C5.39556 7.01245 3.81616 8.59185 3.81614 10.5401V36.1517C3.81614 38.1 5.39554 39.6794 7.34385 39.6794H42.6519C44.6002 39.6794 46.1796 38.1 46.1796 36.1517V10.5401ZM48.1598 36.1517C48.1598 39.1937 45.6939 41.6596 42.6519 41.6596H7.34385C4.30191 41.6596 1.83594 39.1936 1.83594 36.1517V10.5401C1.83596 7.49821 4.30192 5.03225 7.34385 5.03223H42.6519C45.6938 5.03223 48.1598 7.4982 48.1598 10.5401V36.1517Z" fill="#3F5753"/>
<path d="M42.8977 13.4966L42.9988 13.5019C43.4981 13.5525 43.8878 13.974 43.8878 14.4867C43.8878 14.9994 43.4981 15.4208 42.9988 15.4715L42.8977 15.4768H38.2504C37.7035 15.4768 37.2603 15.0335 37.2603 14.4867C37.2603 13.9399 37.7035 13.4966 38.2504 13.4966H42.8977Z" fill="#3F5753"/>
<path d="M42.8977 19.4028L42.9988 19.4081C43.4981 19.4588 43.8878 19.8803 43.8878 20.3929C43.8878 20.9056 43.4981 21.3271 42.9988 21.3777L42.8977 21.383H38.2504C37.7035 21.383 37.2603 20.9397 37.2603 20.3929C37.2603 19.8461 37.7035 19.4028 38.2504 19.4028H42.8977Z" fill="#3F5753"/>
<path d="M42.8977 25.3091L42.9988 25.3144C43.4981 25.365 43.8878 25.7865 43.8878 26.2992C43.8878 26.8119 43.4981 27.2333 42.9988 27.284L42.8977 27.2893H38.2504C37.7035 27.2893 37.2603 26.846 37.2603 26.2992C37.2603 25.7524 37.7035 25.3091 38.2504 25.3091H42.8977Z" fill="#3F5753"/>
<path d="M42.8977 31.2197L42.9988 31.225C43.4981 31.2757 43.8878 31.6971 43.8878 32.2098C43.8878 32.7225 43.4981 33.144 42.9988 33.1946L42.8977 33.1999H38.2504C37.7035 33.1999 37.2603 32.7566 37.2603 32.2098C37.2603 31.663 37.7035 31.2197 38.2504 31.2197H42.8977Z" fill="#3F5753"/>
<path d="M15.7187 39.6794C16.2655 39.6794 16.7088 40.1227 16.7088 40.6695V43.9729C16.7088 44.5198 16.2655 44.963 15.7187 44.963H9.33043C8.78361 44.963 8.34033 44.5198 8.34033 43.9729V40.6695C8.34033 40.1227 8.78361 39.6794 9.33043 39.6794H15.7187ZM10.3205 42.9828H14.7286V41.6596H10.3205V42.9828Z" fill="#3F5753"/>
<path d="M40.6694 39.6794C41.2162 39.6794 41.6595 40.1227 41.6595 40.6695V43.9729C41.6595 44.5198 41.2162 44.963 40.6694 44.963H34.2811C33.7343 44.963 33.291 44.5198 33.291 43.9729V40.6695C33.291 40.1227 33.7343 39.6794 34.2811 39.6794H40.6694ZM35.2712 42.9828H39.6793V41.6596H35.2712V42.9828Z" fill="#3F5753"/>
</g>
</svg>
