<svg width="50" height="50" viewBox="0 0 50 50" fill="none" xmlns="http://www.w3.org/2000/svg">
<g opacity="0.6" clip-path="url(#clip0_5735_33576)">
<path d="M46.875 0.892822H3.125V44.3035H46.875V0.892822Z" fill="#62A9A2"/>
<path d="M46.8748 45.1964H3.12479C2.63372 45.1964 2.23193 44.7946 2.23193 44.3036V0.892857C2.23193 0.401786 2.63372 0 3.12479 0H46.8748C47.3659 0 47.7677 0.401786 47.7677 0.892857V44.3036C47.7677 44.7946 47.3659 45.1964 46.8748 45.1964ZM4.01765 43.4107H45.9819V1.78571H4.01765V43.4107Z" fill="#3F5753"/>
<path d="M7.96429 44.3035H3.125V49.107H7.96429V44.3035Z" fill="#4F9D91"/>
<path d="M7.96408 49.9999H3.12479C2.63372 49.9999 2.23193 49.5981 2.23193 49.1071V44.3035C2.23193 43.8124 2.63372 43.4106 3.12479 43.4106H7.96408C8.45515 43.4106 8.85693 43.8124 8.85693 44.3035V49.1071C8.85693 49.5981 8.45515 49.9999 7.96408 49.9999ZM4.01765 48.2142H7.07122V45.1964H4.01765V48.2142Z" fill="#3F5753"/>
<path d="M46.8749 44.3035H42.0356V49.107H46.8749V44.3035Z" fill="#4F9D91"/>
<path d="M46.8747 49.9999H42.0354C41.5444 49.9999 41.1426 49.5981 41.1426 49.1071V44.3035C41.1426 43.8124 41.5444 43.4106 42.0354 43.4106H46.8747C47.3658 43.4106 47.7676 43.8124 47.7676 44.3035V49.1071C47.7676 49.5981 47.3658 49.9999 46.8747 49.9999ZM42.9283 48.2142H45.9819V45.1964H42.9283V48.2142Z" fill="#3F5753"/>
<path d="M24.9998 44.6875C24.5087 44.6875 24.1069 44.2857 24.1069 43.7946V0.892857C24.1069 0.401786 24.5087 0 24.9998 0C25.4909 0 25.8926 0.401786 25.8926 0.892857V43.7946C25.8926 44.2857 25.4909 44.6875 24.9998 44.6875Z" fill="#3F5753"/>
<path d="M46.8748 37.5223H3.12479C2.63372 37.5223 2.23193 37.1205 2.23193 36.6294C2.23193 36.1384 2.63372 35.7366 3.12479 35.7366H46.8748C47.3659 35.7366 47.7676 36.1384 47.7676 36.6294C47.7676 37.1205 47.3659 37.5223 46.8748 37.5223Z" fill="#3F5753"/>
<path d="M14.9909 41.0714H13.1873C12.6962 41.0714 12.2944 40.6696 12.2944 40.1785C12.2944 39.6874 12.6962 39.2856 13.1873 39.2856H14.9909C15.4819 39.2856 15.8837 39.6874 15.8837 40.1785C15.8837 40.6696 15.4819 41.0714 14.9909 41.0714Z" fill="#3F5753"/>
<path d="M37.7365 41.0714H35.9329C35.4418 41.0714 35.04 40.6696 35.04 40.1785C35.04 39.6874 35.4418 39.2856 35.9329 39.2856H37.7365C38.2275 39.2856 38.6293 39.6874 38.6293 40.1785C38.6293 40.6696 38.2275 41.0714 37.7365 41.0714Z" fill="#3F5753"/>
<path d="M46.8748 30.1741H3.12479C2.63372 30.1741 2.23193 29.7724 2.23193 29.2813C2.23193 28.7902 2.63372 28.3884 3.12479 28.3884H46.8748C47.3659 28.3884 47.7676 28.7902 47.7676 29.2813C47.7676 29.7724 47.3659 30.1741 46.8748 30.1741Z" fill="#3F5753"/>
<path d="M14.9909 33.7232H13.1873C12.6962 33.7232 12.2944 33.3214 12.2944 32.8304C12.2944 32.3393 12.6962 31.9375 13.1873 31.9375H14.9909C15.4819 31.9375 15.8837 32.3393 15.8837 32.8304C15.8837 33.3214 15.4819 33.7232 14.9909 33.7232Z" fill="#3F5753"/>
<path d="M37.7365 33.7232H35.9329C35.4418 33.7232 35.04 33.3214 35.04 32.8304C35.04 32.3393 35.4418 31.9375 35.9329 31.9375H37.7365C38.2275 31.9375 38.6293 32.3393 38.6293 32.8304C38.6293 33.3214 38.2275 33.7232 37.7365 33.7232Z" fill="#3F5753"/>
<path d="M31.1739 23.491H28.4685C27.9775 23.491 27.5757 23.0893 27.5757 22.5982C27.5757 22.1071 27.9775 21.7053 28.4685 21.7053H31.1739C31.665 21.7053 32.0668 22.1071 32.0668 22.5982C32.0668 23.0893 31.665 23.491 31.1739 23.491Z" fill="#3F5753"/>
<path d="M21.0621 23.491H18.3567C17.8657 23.491 17.4639 23.0893 17.4639 22.5982C17.4639 22.1071 17.8657 21.7053 18.3567 21.7053H21.0621C21.5532 21.7053 21.9549 22.1071 21.9549 22.5982C21.9549 23.0893 21.5532 23.491 21.0621 23.491Z" fill="#3F5753"/>
<path d="M6.29004 3.83039V26.3706H14.8213C16.2766 26.3706 16.6561 24.3706 15.299 23.8438C14.4508 23.5179 14.1829 22.4509 14.7811 21.7679L17.8972 18.2009C18.3168 17.7188 18.3258 17.009 17.924 16.5179L14.1338 11.9152C13.7856 11.4956 13.7409 10.9063 14.0133 10.4331L15.7722 7.40628C16.0088 7.00003 16.4418 6.7545 16.915 6.7545H20.5222C21.2499 6.7545 21.8391 6.16968 21.8391 5.44646V3.82593H6.29004V3.83039Z" fill="#4F9D91"/>
<path d="M28.4688 3.83032V13.4732L32.0937 11.3973C32.7857 11 33.0223 10.125 32.625 9.43746C32.2188 8.73657 32.4777 7.83925 33.1964 7.45532L35.3839 6.28568C35.7366 6.09818 36.1473 6.06246 36.5268 6.18746L39.1429 7.04461C39.5536 7.17854 40.0045 7.12496 40.3661 6.89729L42.2902 5.69639C42.7143 5.433 42.9687 4.97318 42.9687 4.47764V3.83032H28.4688Z" fill="#4F9D91"/>
</g>
<defs>
<clipPath id="clip0_5735_33576">
<rect width="50" height="50" fill="white"/>
</clipPath>
</defs>
</svg>
