<svg width="50" height="50" viewBox="0 0 50 50" fill="none" xmlns="http://www.w3.org/2000/svg">
<g opacity="0.6">
<path d="M36.4261 6.84887L22.0512 3.75567C15.1439 2.26935 7.64309 9.88388 5.30247 20.7613C2.96185 31.6388 6.6668 41.6646 13.5741 43.1509L27.949 46.2441C34.8563 47.7304 42.3571 40.1159 44.6977 29.2384C47.0383 18.361 43.3334 8.33519 36.4261 6.84887ZM26.9384 38.0851L21.9671 27.4524L27.3699 13.9867L32.4213 15.0737C33.0932 18.5067 33.0654 22.4669 32.1875 26.5465C31.2051 31.112 29.316 35.1022 26.9384 38.0851Z" fill="#30433F"/>
<path d="M27.7607 47.1197L13.3858 44.0265C6.00573 42.4384 1.98567 31.9189 4.42708 20.5731C6.86848 9.22724 14.8596 1.29229 22.2396 2.88033L36.6145 5.97353C43.9946 7.56157 48.0146 18.0811 45.5732 29.4269C43.1318 40.7728 35.1407 48.7077 27.7607 47.1197ZM21.8629 4.63123C15.4458 3.2504 8.41122 10.5714 6.17798 20.9498C3.94473 31.3283 7.34549 40.8948 13.7625 42.2756L28.1374 45.3688C34.5545 46.7496 41.5891 39.4286 43.8223 29.0502C46.0556 18.6717 42.6548 9.10525 36.2378 7.72443L21.8629 4.63123ZM26.7501 38.9606C26.4787 38.9022 26.2477 38.7197 26.1285 38.4651L21.1572 27.8324C21.0542 27.6088 21.0457 27.3505 21.1369 27.1182L26.5397 13.6525C26.7045 13.2483 27.1338 13.02 27.5583 13.1114L32.6097 14.1983C32.9599 14.2737 33.2298 14.5516 33.3011 14.9013C34.0213 18.5782 33.9381 22.6685 33.063 26.735C32.0797 31.3048 30.2046 35.4217 27.6425 38.6443C27.4484 38.8865 27.1462 39.0138 26.8385 38.9751C26.8123 38.9694 26.7816 38.9628 26.7554 38.9572L26.7501 38.9606ZM22.9441 27.4246L27.1157 36.3463C29.0622 33.5363 30.504 30.1139 31.3121 26.3582C32.1203 22.6025 32.2027 19.1121 31.6464 15.823L27.917 15.0205L22.9441 27.4246Z" fill="#37635F"/>
<path d="M43.7752 15.7947L38.4459 40.5612L26.6449 38.0218C29.0181 35.038 30.9116 31.0488 31.894 26.4833C32.7719 22.4037 32.7996 18.4434 32.1277 15.0105L43.7796 15.7957L43.7752 15.7947Z" fill="#516170"/>
<path d="M38.2575 41.4367L26.4565 38.8973C26.1545 38.8323 25.9082 38.6145 25.8018 38.3214C25.6954 38.0283 25.7511 37.7059 25.9452 37.4637C28.3372 34.4565 30.0936 30.5934 31.0186 26.2949C31.8427 22.4648 31.9233 18.6213 31.2479 15.183C31.1922 14.9099 31.2709 14.6292 31.454 14.4167C31.6362 14.2086 31.9074 14.0975 32.1873 14.1165L43.8391 14.9017C44.0962 14.9204 44.3384 15.0503 44.4952 15.2581C44.652 15.4659 44.7097 15.7302 44.655 15.9841L39.3258 40.7506C39.2221 41.2321 38.7434 41.5412 38.2619 41.4376L38.2575 41.4367ZM28.1946 37.4394L37.7545 39.4965L42.6778 16.6166L33.1973 15.978C33.6945 19.3505 33.5506 23.0201 32.7651 26.6707C31.8948 30.7153 30.3261 34.4081 28.1946 37.4394Z" fill="#37635F"/>
<path d="M21.9058 17.2218C20.9553 19.234 20.1913 21.4649 19.677 23.8549C17.3364 34.7323 21.0413 44.7581 27.9486 46.2444C34.8559 47.7307 42.3567 40.1162 44.6973 29.2387C47.038 18.3613 43.333 8.33549 36.4257 6.84918C33.0508 6.12297 29.5337 7.5691 26.5472 10.508M30.1762 35.8922C26.8976 35.1867 25.1411 30.4304 26.2516 25.2696C27.3621 20.1088 30.9196 16.4959 34.1981 17.2014C37.4767 17.9069 39.2332 22.6632 38.1227 27.824C37.0122 32.9848 33.4548 36.5977 30.1762 35.8922Z" fill="#53918C"/>
<path d="M27.7603 47.12C20.3802 45.5319 16.3602 35.0124 18.8016 23.6666C19.3187 21.2635 20.0924 18.966 21.0956 16.8369C21.3067 16.3877 21.8382 16.1952 22.2865 16.4107C22.7357 16.6219 22.9228 17.1568 22.7126 17.6016C21.7684 19.606 21.037 21.7706 20.5481 24.0424C18.3149 34.4209 21.7156 43.9873 28.1327 45.3681C34.5497 46.749 41.5843 39.428 43.8176 29.0495C46.0508 18.6711 42.6501 9.10462 36.233 7.72379C33.2784 7.08801 30.0579 8.30486 27.1703 11.1459C26.8167 11.4912 26.2538 11.4891 25.9041 11.1345C25.5589 10.7809 25.5619 10.2136 25.9155 9.86834C29.2504 6.58765 33.0467 5.20619 36.6098 5.97289C43.9898 7.56094 48.0099 18.0805 45.5685 29.4263C43.1271 40.7721 35.136 48.7071 27.7559 47.119L27.7603 47.12ZM29.9879 36.7678C26.1709 35.9465 24.1433 30.8111 25.3762 25.0813C26.6092 19.3515 30.5652 15.5038 34.3866 16.326C38.2079 17.1483 40.2312 22.2827 38.9982 28.0125C37.7653 33.7423 33.8092 37.5901 29.9879 36.7678ZM34.0098 18.0769C31.2653 17.4864 28.1152 20.8663 27.1271 25.4581C26.1391 30.0498 27.6201 34.4263 30.3646 35.0169C33.1092 35.6075 36.2593 32.2275 37.2473 27.6357C38.2354 23.044 36.7543 18.6675 34.0098 18.0769Z" fill="#37635F"/>
<path d="M23.5666 9.12012L18.6247 8.05671C18.1432 7.9531 17.834 7.47438 17.9376 6.99288C18.0412 6.51138 18.5199 6.2022 19.0014 6.30581L23.9433 7.36922C24.4248 7.47283 24.734 7.95155 24.6304 8.43305C24.5268 8.91454 24.0481 9.22373 23.5666 9.12012Z" fill="#37635F"/>
<path d="M19.3895 14.0833L13.257 12.7637C12.7755 12.6601 12.4663 12.1814 12.5699 11.6999C12.6735 11.2184 13.1523 10.9092 13.6338 11.0128L19.7663 12.3324C20.2478 12.4361 20.557 12.9148 20.4533 13.3963C20.3497 13.8778 19.871 14.187 19.3895 14.0833Z" fill="#37635F"/>
<path d="M15.974 20.3783L9.84146 19.0587C9.35997 18.9551 9.05078 18.4763 9.15439 17.9948C9.258 17.5133 9.73673 17.2042 10.2182 17.3078L16.3507 18.6274C16.8322 18.731 17.1414 19.2097 17.0378 19.6912C16.9342 20.1727 16.4555 20.4819 15.974 20.3783Z" fill="#37635F"/>
<path d="M14.5287 27.0934L8.39615 25.7738C7.91465 25.6701 7.60547 25.1914 7.70908 24.7099C7.81269 24.2284 8.29141 23.9192 8.77291 24.0229L14.9054 25.3425C15.3869 25.4461 15.6961 25.9248 15.5925 26.4063C15.4889 26.8878 15.0102 27.197 14.5287 27.0934Z" fill="#37635F"/>
<path d="M14.6981 34.1595L8.56558 32.8399C8.08409 32.7363 7.77491 32.2576 7.87851 31.7761C7.98212 31.2946 8.46085 30.9854 8.94234 31.089L15.0749 32.4086C15.5564 32.5122 15.8655 32.9909 15.7619 33.4724C15.6583 33.9539 15.1796 34.2631 14.6981 34.1595Z" fill="#37635F"/>
<path d="M15.9625 39.9915L11.861 39.109C11.3795 39.0053 11.0703 38.5266 11.1739 38.0451C11.2775 37.5636 11.7563 37.2544 12.2378 37.3581L16.3392 38.2406C16.8207 38.3442 17.1299 38.8229 17.0263 39.3044C16.9227 39.7859 16.444 40.0951 15.9625 39.9915Z" fill="#37635F"/>
</g>
</svg>
