<svg width="50" height="50" viewBox="0 0 50 50" fill="none" xmlns="http://www.w3.org/2000/svg">
<g opacity="0.6" clip-path="url(#clip0_5735_33617)">
<path d="M41.9955 2.9375H8.00886C7.17797 2.9375 6.50439 3.61107 6.50439 4.44196V45.558C6.50439 46.3889 7.17797 47.0625 8.00886 47.0625H41.9955C42.8264 47.0625 43.4999 46.3889 43.4999 45.558V4.44196C43.4999 3.61107 42.8264 2.9375 41.9955 2.9375Z" fill="#DFFDF7"/>
<path d="M41.9953 47.9554H8.00426C6.68283 47.9554 5.60693 46.8795 5.60693 45.5581V4.442C5.60693 3.12057 6.68283 2.04468 8.00426 2.04468H41.9909C43.3123 2.04468 44.3882 3.12057 44.3882 4.442V45.5625C44.3882 46.884 43.3123 47.9599 41.9909 47.9599L41.9953 47.9554ZM8.00426 3.83039C7.66943 3.83039 7.39265 4.10271 7.39265 4.442V45.5625C7.39265 45.8974 7.66497 46.1741 8.00426 46.1741H41.9909C42.3257 46.1741 42.6025 45.9018 42.6025 45.5625V4.442C42.6025 4.10718 42.3301 3.83039 41.9909 3.83039H8.00426Z" fill="#3F5753"/>
<path d="M6.50439 14.125V45.558C6.50439 46.3884 7.1785 47.0625 8.00886 47.0625H41.9955C42.8258 47.0625 43.4999 46.3884 43.4999 45.558V14.125H6.50439Z" fill="#DFFDF7"/>
<path d="M41.9953 47.9554H8.00426C6.68283 47.9554 5.60693 46.8795 5.60693 45.5581V14.125C5.60693 13.634 6.00872 13.2322 6.49979 13.2322H43.4953C43.9864 13.2322 44.3882 13.634 44.3882 14.125V45.5581C44.3882 46.8795 43.3123 47.9554 41.9909 47.9554H41.9953ZM7.39711 15.0179V45.5581C7.39711 45.8929 7.66943 46.1697 8.00872 46.1697H41.9953C42.3301 46.1697 42.6069 45.8974 42.6069 45.5581V15.0179H7.39711Z" fill="#3F5753"/>
<path d="M19.0666 42.6787H12.647C11.6648 42.6787 10.8657 41.8841 10.8657 40.8975V20.1162C10.8657 19.1341 11.6604 18.335 12.647 18.335H17.2586C17.6827 18.335 18.0711 18.5805 18.2541 18.9644L18.7809 20.076C19.0666 20.6787 19.6782 21.0671 20.3479 21.0671H29.9907C30.6157 21.0671 31.1961 20.7278 31.5041 20.1832L32.2273 18.9019C32.4238 18.5537 32.7898 18.3394 33.1916 18.3394H37.6738C38.6559 18.3394 39.455 19.1341 39.455 20.1207V22.2948C39.455 33.5537 30.3255 42.6832 19.0666 42.6832V42.6787Z" fill="#DFFDF7"/>
<path d="M39.4552 2.9375H29.4775V7.39286H39.4552V2.9375Z" fill="#DFFDF7"/>
<path d="M39.455 8.28575H29.4773C28.9863 8.28575 28.5845 7.88396 28.5845 7.39289V2.93753C28.5845 2.44646 28.9863 2.04468 29.4773 2.04468H39.455C39.9461 2.04468 40.3479 2.44646 40.3479 2.93753V7.39289C40.3479 7.88396 39.9461 8.28575 39.455 8.28575ZM30.3702 6.50004H38.5622V3.83039H30.3702V6.50004Z" fill="#3F5753"/>
<path d="M29.4775 19.6072H21.156C20.665 19.6072 20.2632 19.2055 20.2632 18.7144C20.2632 18.2233 20.665 17.8215 21.156 17.8215H29.4775C29.9685 17.8215 30.3703 18.2233 30.3703 18.7144C30.3703 19.2055 29.9685 19.6072 29.4775 19.6072Z" fill="#3F5753"/>
<path d="M10.8701 10.3214V7.08482C10.8701 6.48661 11.3567 6 11.9549 6H25.9683C26.4907 6 26.7674 6.61607 26.4237 7.00446C25.1603 8.41964 21.5353 10.8348 11.4817 10.9286C11.1469 10.9286 10.8701 10.6607 10.8701 10.3259V10.3214Z" fill="#DFFDF7"/>
<path d="M13.7361 18.7142L16.3566 25.8436C16.7271 26.8526 16.4727 27.991 15.7048 28.7454L15.5396 28.9061C14.5173 29.9106 12.8968 29.9642 11.8164 29.0267C10.9548 28.2767 10.6423 27.0713 11.0396 25.9999L13.7316 18.7097L13.7361 18.7142Z" fill="#5BB5A7"/>
<path d="M13.6112 30.5848C12.763 30.5848 11.9103 30.2946 11.2318 29.7008C10.0934 28.7142 9.68266 27.1026 10.205 25.6919L12.8969 18.4017C13.0264 18.049 13.3612 17.8169 13.7362 17.8169C14.1112 17.8169 14.4461 18.049 14.5755 18.4017L17.1961 25.5312C17.6871 26.866 17.3478 28.3794 16.3344 29.3749L16.1693 29.5356C15.4684 30.2276 14.5398 30.5758 13.6157 30.5758L13.6112 30.5848ZM13.7318 21.2946L11.8791 26.3124C11.6157 27.0312 11.8255 27.8526 12.4014 28.3526C13.1246 28.9821 14.2318 28.9464 14.9148 28.2723L15.08 28.1115C15.5978 27.6026 15.7675 26.8348 15.5175 26.1517L13.7318 21.2946Z" fill="#3F5753"/>
</g>
<defs>
<clipPath id="clip0_5735_33617">
<rect width="50" height="50" fill="white"/>
</clipPath>
</defs>
</svg>
