<svg width="50" height="50" viewBox="0 0 50 50" fill="none" xmlns="http://www.w3.org/2000/svg">
<g opacity="0.6" clip-path="url(#clip0_6257_347)">
<path d="M4.46423 22.8259L4.46423 9.84821C4.46423 7.70981 6.20084 5.97767 8.33477 5.97767L41.6607 5.97767C43.7991 5.97767 45.5312 7.71428 45.5312 9.84821V22.8259C45.5312 23.875 44.6785 24.7232 43.6339 24.7232L6.36602 24.7232C5.31691 24.7232 4.4687 23.8705 4.4687 22.8259H4.46423Z" fill="#DFFDF7"/>
<path d="M43.6384 25.6161H6.36159C4.82141 25.6161 3.57141 24.3661 3.57141 22.8259V9.84823C3.57141 7.21877 5.7098 5.08484 8.3348 5.08484H41.6607C44.2902 5.08484 46.4241 7.22323 46.4241 9.84823V22.8259C46.4241 24.3661 45.1741 25.6161 43.6339 25.6161H43.6384ZM8.3348 6.86609C6.69195 6.86609 5.35713 8.20091 5.35713 9.84377V22.8214C5.35713 23.375 5.80802 23.8259 6.36159 23.8259H43.6384C44.1919 23.8259 44.6428 23.375 44.6428 22.8214V9.84377C44.6428 8.20091 43.308 6.86609 41.6652 6.86609H8.3348Z" fill="#3F5753"/>
<path d="M8.19641 24.7232V20.1161C8.19641 18.7366 9.31695 17.6161 10.6964 17.6161H39.2991C40.6786 17.6161 41.7991 18.7366 41.7991 20.1161V24.7232L8.19641 24.7232Z" fill="#A5B6BC"/>
<path d="M41.8036 25.6161H8.19645C7.70537 25.6161 7.30359 25.2143 7.30359 24.7232V20.1161C7.30359 18.2455 8.82591 16.7232 10.6964 16.7232H39.2991C41.1697 16.7232 42.692 18.2455 42.692 20.1161V24.7232C42.692 25.2143 42.2902 25.6161 41.7991 25.6161H41.8036ZM9.0893 23.8303H40.9107V20.1161C40.9107 19.2277 40.1875 18.5089 39.3036 18.5089H10.6964C9.80805 18.5089 9.0893 19.2321 9.0893 20.1161V23.8303Z" fill="#3F5753"/>
<path d="M41.3392 21.9553H8.66068C8.16961 21.9553 7.76782 21.5535 7.76782 21.0625C7.76782 20.5714 8.16961 20.1696 8.66068 20.1696H41.3348C41.8259 20.1696 42.2276 20.5714 42.2276 21.0625C42.2276 21.5535 41.8259 21.9553 41.3348 21.9553H41.3392Z" fill="#3F5753"/>
<path d="M20.8036 15.0848C20.3126 15.0848 19.9108 14.683 19.9108 14.1919V12.6875C19.9108 12.1964 20.3126 11.7946 20.8036 11.7946C21.2947 11.7946 21.6965 12.1964 21.6965 12.6875V14.1919C21.6965 14.683 21.2947 15.0848 20.8036 15.0848Z" fill="#3F5753"/>
<path d="M25 15.0848C24.509 15.0848 24.1072 14.683 24.1072 14.1919V12.6875C24.1072 12.1964 24.509 11.7946 25 11.7946C25.4911 11.7946 25.8929 12.1964 25.8929 12.6875V14.1919C25.8929 14.683 25.4911 15.0848 25 15.0848Z" fill="#3F5753"/>
<path d="M29.1964 15.0848C28.7054 15.0848 28.3036 14.683 28.3036 14.1919V12.6875C28.3036 12.1964 28.7054 11.7946 29.1964 11.7946C29.6875 11.7946 30.0893 12.1964 30.0893 12.6875V14.1919C30.0893 14.683 29.6875 15.0848 29.1964 15.0848Z" fill="#3F5753"/>
<path d="M25 46.5893C24.509 46.5893 24.1072 46.1875 24.1072 45.6964V28.5402C24.1072 28.0491 24.509 27.6473 25 27.6473C25.4911 27.6473 25.8929 28.0491 25.8929 28.5402V45.6964C25.8929 46.1875 25.4911 46.5893 25 46.5893Z" fill="#3F5753"/>
<path d="M17.9553 43.2589C16.2187 43.2589 14.808 41.8482 14.808 40.1116C14.808 39.1116 15.2901 38.1607 16.0982 37.5714C16.4955 37.2813 17.0535 37.3661 17.3437 37.7634C17.6339 38.1607 17.5491 38.7188 17.1517 39.0089C16.7946 39.2679 16.5937 39.6697 16.5937 40.1116C16.5937 40.8616 17.2053 41.4732 17.9553 41.4732C19.0312 41.4732 19.9107 40.5982 19.9107 39.5179V28.5402C19.9107 28.0491 20.3124 27.6473 20.8035 27.6473C21.2946 27.6473 21.6964 28.0491 21.6964 28.5402V39.5179C21.6964 41.5804 20.0178 43.2589 17.9553 43.2589Z" fill="#3F5753"/>
<path d="M32.0447 43.2589C29.9822 43.2589 28.3036 41.5804 28.3036 39.5179V28.5402C28.3036 28.0491 28.7054 27.6473 29.1964 27.6473C29.6875 27.6473 30.0893 28.0491 30.0893 28.5402V39.5179C30.0893 40.5938 30.9643 41.4732 32.0447 41.4732C32.7947 41.4732 33.4063 40.8616 33.4063 40.1116C33.4063 39.5848 33.1116 39.1161 32.6384 38.8884C32.1964 38.6741 32.0089 38.1384 32.2277 37.6964C32.442 37.2545 32.9777 37.067 33.4197 37.2857C34.4956 37.8081 35.192 38.9197 35.192 40.1161C35.192 41.8527 33.7813 43.2634 32.0447 43.2634V43.2589Z" fill="#3F5753"/>
</g>
<defs>
<clipPath id="clip0_6257_347">
<rect width="50" height="50" fill="white"/>
</clipPath>
</defs>
</svg>
