<svg width="49" height="50" viewBox="0 0 49 50" fill="none" xmlns="http://www.w3.org/2000/svg">
<g opacity="0.6" clip-path="url(#clip0_5735_33657)">
<path d="M11.7946 26.317C11.7946 26.317 10.6875 31.4509 8.25893 33.4286C5.83036 35.4062 -1.29464 39.8393 3.05804 43.8125C3.05804 43.8125 10.6696 43.3661 14.8929 40.6429C19.1161 37.9196 29.375 26.3125 29.375 26.3125L33.5893 22.7366L26.7455 20.1429L11.7991 26.3125L11.7946 26.317Z" fill="#5BB5A7"/>
<path d="M3.05805 44.7098C3.05805 44.7098 3.09376 44.7098 3.11162 44.7098C3.43305 44.692 11.0045 44.2187 15.375 41.4018C19.558 38.7054 29.1741 27.8929 30 26.9598L34.1652 23.4241C34.4063 23.2187 34.5223 22.9018 34.4688 22.5937C34.4152 22.2812 34.2009 22.0223 33.9063 21.9107L27.0625 19.317C26.8482 19.2366 26.6161 19.2411 26.4063 19.3259L11.4554 25.4955C11.183 25.6071 10.9866 25.8437 10.9241 26.1339C10.9152 26.183 9.85269 30.9866 7.69644 32.7411C7.41519 32.9732 7.06251 33.2366 6.67858 33.5312C4.3884 35.2723 0.928585 37.9018 0.790193 40.9107C0.732157 42.2143 1.29019 43.4152 2.45537 44.4777C2.62055 44.6295 2.83483 44.7098 3.05805 44.7098ZM31.8527 23.0446L28.7946 25.6384C28.7634 25.6652 28.7321 25.6964 28.7009 25.7277C28.5982 25.8437 18.4777 37.2723 14.4063 39.8973C10.9598 42.1205 4.9643 42.7634 3.39287 42.8929C2.81251 42.2768 2.54466 41.6518 2.57591 40.9866C2.67412 38.8125 5.85716 36.3929 7.75894 34.9464C8.16519 34.6384 8.53126 34.3616 8.8259 34.1205C11.0402 32.3125 12.2098 28.3348 12.558 26.9687L26.7589 21.1116L31.8571 23.0446H31.8527Z" fill="#004241"/>
<path d="M42.4554 12.6071C39.5937 5.54464 32.9464 3.625 32.9464 3.625C32.9464 3.625 32.0312 8.29911 27.3929 10.8705C22.7545 13.4375 15.6741 11.6607 15.6741 11.6607C15.6741 11.6607 11.9152 21.1161 11.0268 25.4107L15.5937 30.8527C15.5937 30.8527 17.8348 27.4152 21.8661 24.6696C25.8973 21.9241 29.8259 23.0312 29.8259 23.0312" fill="#4F9D91"/>
<path d="M15.5937 31.7411C15.5937 31.7411 15.6295 31.7411 15.6473 31.7411C15.9286 31.7232 16.1875 31.5759 16.3437 31.3393C16.3661 31.308 18.5491 28.0089 22.3705 25.4062C25.9821 22.942 29.442 23.8527 29.5893 23.8929C30.0625 24.0223 30.5536 23.7455 30.6875 23.2723C30.817 22.7991 30.5446 22.308 30.0714 22.1741C29.8929 22.125 25.692 20.9866 21.3661 23.933C18.5045 25.8839 16.5268 28.1518 15.5491 29.4062L12 25.1741C12.8393 21.558 15.3884 14.8705 16.2366 12.6964C18.2634 13.0938 23.817 13.875 27.8348 11.6518C31.4866 9.62946 32.9955 6.42411 33.5491 4.79911C35.3482 5.56696 39.5714 7.83929 41.6384 12.942C41.8259 13.3973 42.3437 13.6205 42.7991 13.433C43.2545 13.2455 43.4777 12.7277 43.2902 12.2723C40.2946 4.89286 33.4866 2.84821 33.1964 2.76339C32.9554 2.69643 32.6964 2.72768 32.4821 2.85714C32.2679 2.98661 32.1205 3.20089 32.0714 3.44643C32.0625 3.48661 31.1607 7.75893 26.9598 10.0804C22.6786 12.4509 15.9598 10.8036 15.8929 10.7857C15.4554 10.6786 15.0089 10.9063 14.8437 11.3214C14.6875 11.7098 11.0491 20.9018 10.1518 25.2188C10.0982 25.4866 10.1652 25.7634 10.3438 25.9732L14.9107 31.4152C15.0804 31.6161 15.3304 31.7321 15.5937 31.7321V31.7411Z" fill="#004241"/>
<path d="M43.1473 13.0938L46.1964 16.7277C46.3839 16.9509 46.3527 17.2813 46.1295 17.4688L36.0848 25.8973C35.8616 26.0848 35.5312 26.0536 35.3437 25.8304L34.3214 24.6116C34.1339 24.3884 33.8036 24.3616 33.5804 24.5446C32.0268 25.8393 26.4018 30.6473 23.9643 34.4866C21.2812 38.7098 9.9375 46.192 4.92857 46.375C4.44643 46.3928 3.98661 46.1875 3.67858 45.817L2.70982 44.6652C2.44197 44.3482 2.6384 43.8616 3.04911 43.817C5.49107 43.5491 12.1205 42.0982 19.9955 34.3795C20.8437 33.5491 21.6071 32.6339 22.2813 31.6518C23.6696 29.6205 26.9063 25.3125 31.6563 21.442C36.875 17.192 40.7143 13.8929 42.0179 12.7634C42.2857 12.5313 42.692 12.5625 42.9196 12.8348L43.1384 13.0938H43.1473Z" fill="#73E0CF"/>
<path d="M4.87947 47.2723C4.91072 47.2723 4.93751 47.2723 4.96876 47.2723C10.2455 47.0804 21.933 39.3661 24.7277 34.9688C26.9598 31.4554 31.9866 27.0625 33.8795 25.4732L34.6652 26.4107C34.9062 26.7009 35.25 26.8795 35.6295 26.9107C36.0089 26.9464 36.375 26.8259 36.6652 26.5848L46.7054 18.1518C47.3036 17.6473 47.3839 16.75 46.8795 16.1518L43.6116 12.2545C43.3482 11.9375 42.9732 11.7455 42.5625 11.7143C42.1518 11.683 41.7545 11.8125 41.442 12.0804C40.0536 13.2812 36.2679 16.5357 31.1027 20.7411C26.3214 24.6339 23.067 28.9286 21.5536 31.1429C20.9107 32.0804 20.1786 32.9509 19.3795 33.7366C11.7188 41.2411 5.34376 42.6607 2.95983 42.9241C2.44197 42.9821 2.00001 43.317 1.80358 43.7991C1.60715 44.2812 1.69643 44.8348 2.03126 45.2321L3.00001 46.3839C3.46876 46.9464 4.15179 47.2589 4.87501 47.2589L4.87947 47.2723ZM33.9241 23.5357C33.6027 23.5357 33.2813 23.6429 33.0179 23.8616C31.3482 25.25 25.7143 30.0848 23.2188 34.0089C20.6741 38.0134 9.66518 45.3125 4.90179 45.4866C4.70536 45.4866 4.5 45.4062 4.36608 45.25L3.83483 44.6161C6.80358 44.1473 13.2009 42.2946 20.625 35.0223C21.5089 34.1562 22.3125 33.1964 23.0223 32.1607C24.4821 30.0268 27.6205 25.8884 32.2277 22.1384C37.1875 18.1027 40.8795 14.9375 42.4107 13.6116L42.4598 13.6696L45.2723 17.0223L35.7902 24.9777L35.0045 24.0402C34.7232 23.7054 34.3214 23.5357 33.9152 23.5357H33.9241Z" fill="#004241"/>
<path d="M18.1384 16.8705C18.5402 16.8705 18.9018 16.5982 19.0045 16.192C19.125 15.7143 18.8348 15.2277 18.3527 15.1116L14.7902 14.2232C14.3125 14.1071 13.8259 14.3973 13.7098 14.875C13.5893 15.3527 13.8795 15.8393 14.3616 15.9554L17.9241 16.8437C17.9955 16.8616 18.0714 16.8705 18.1429 16.8705H18.1384Z" fill="#004241"/>
<path d="M16.6741 20.6339C17.0759 20.6339 17.4375 20.3616 17.5402 19.9554C17.6607 19.4777 17.3705 18.9911 16.8884 18.875L13.3259 17.9866C12.8482 17.8661 12.3616 18.1607 12.2455 18.6384C12.125 19.1161 12.4152 19.6027 12.8973 19.7187L16.4598 20.6071C16.5312 20.625 16.6071 20.6339 16.6786 20.6339H16.6741Z" fill="#004241"/>
<path d="M15.3616 24.5268C15.7634 24.5268 16.125 24.2545 16.2277 23.8482C16.3482 23.3705 16.058 22.8839 15.5759 22.7679L12.0134 21.8795C11.5357 21.7589 11.0491 22.0536 10.933 22.5312C10.8125 23.0089 11.1027 23.4955 11.5848 23.6116L15.1473 24.5C15.2188 24.5179 15.2946 24.5268 15.3661 24.5268H15.3616Z" fill="#004241"/>
</g>
<defs>
<clipPath id="clip0_5735_33657">
<rect width="50" height="50" fill="white" transform="translate(-1)"/>
</clipPath>
</defs>
</svg>
