<svg width="50" height="50" viewBox="0 0 50 50" fill="none" xmlns="http://www.w3.org/2000/svg">
<g opacity="0.6" clip-path="url(#clip0_6257_365)">
<path d="M7.01337 47.6027V43.9241H3.33479V47.6027H7.01337Z" fill="#DFFDF7"/>
<path d="M7.01338 48.4911H3.33481C2.84374 48.4911 2.44196 48.0893 2.44196 47.5982V43.9197C2.44196 43.4286 2.84374 43.0268 3.33481 43.0268H7.01338C7.50446 43.0268 7.90624 43.4286 7.90624 43.9197V47.5982C7.90624 48.0893 7.50446 48.4911 7.01338 48.4911ZM4.22767 46.7054H6.12053V44.8125H4.22767V46.7054Z" fill="#3F5753"/>
<path d="M46.9152 47.5982V43.9197H43.2366V47.5982H46.9152Z" fill="#DFFDF7"/>
<path d="M46.9152 48.4911H43.2366C42.7455 48.4911 42.3438 48.0893 42.3438 47.5982V43.9197C42.3438 43.4286 42.7455 43.0268 43.2366 43.0268H46.9152C47.4062 43.0268 47.808 43.4286 47.808 43.9197V47.5982C47.808 48.0893 47.4062 48.4911 46.9152 48.4911ZM44.1295 46.7054H46.0223V44.8125H44.1295V46.7054Z" fill="#3F5753"/>
<path d="M44.9599 31.6071C44.9599 39.3973 35.9822 41.4152 24.9063 41.4152C13.8304 41.4152 4.85272 39.4018 4.85272 31.6071C4.85272 23.8125 7.33933 18.75 24.9063 18.75C42.4733 18.75 44.9599 23.817 44.9599 31.6071Z" fill="#6FD3C3"/>
<path d="M24.9018 42.3036C18.5179 42.3036 13.7679 41.6339 10.384 40.2544C6.1161 38.5178 3.95538 35.6071 3.95538 31.6027C3.95538 22.8928 7.38395 17.8527 24.9018 17.8527C42.4197 17.8527 45.8482 22.8928 45.8482 31.6027C45.8482 42.3036 30.0804 42.3036 24.9018 42.3036ZM24.9018 19.6384C7.15181 19.6384 5.7411 24.8259 5.7411 31.6027C5.7411 37.683 11.8304 40.5178 24.9018 40.5178C37.9732 40.5178 44.0625 37.6875 44.0625 31.6027C44.0625 24.8214 42.6518 19.6384 24.9018 19.6384Z" fill="#3F5753"/>
<path d="M32.6117 32.3884C32.6117 32.3884 31.6072 29.2857 32.6117 26.7009C32.6117 26.7009 35.1786 25.7901 38.6384 26.2366C42.0983 26.683 43.5179 27.2232 43.5179 27.2232L42.0625 32.3928H32.6117V32.3884Z" fill="#5BB5A7"/>
<path d="M42.0625 33.2812H32.6116C32.2232 33.2812 31.8795 33.0312 31.7634 32.6652C31.7188 32.5268 30.6741 29.2277 31.7813 26.3795C31.875 26.1384 32.0714 25.9464 32.3125 25.8616C32.4241 25.8214 35.1205 24.8839 38.7545 25.3527C42.2768 25.808 43.7768 26.3661 43.8393 26.3884C44.2723 26.5536 44.5089 27.0178 44.3839 27.4643L42.9286 32.6339C42.8214 33.0179 42.4688 33.2857 42.067 33.2857L42.0625 33.2812ZM33.2991 31.4955H41.3839L42.4152 27.8259C41.6831 27.6384 40.4197 27.3661 38.5179 27.1205C36.0714 26.8036 34.1072 27.2098 33.2991 27.4241C32.8482 28.9464 33.0982 30.6205 33.2947 31.4955H33.2991Z" fill="#3F5753"/>
<path d="M4.86163 25.9107C1.60717 25.3795 0.892883 27.4286 0.892883 29.2455C0.892883 30.3884 1.4777 31.3973 2.36163 31.9866L2.36163 43.9107H8.06253V29.1116C8.06253 27.3437 6.60717 26.192 4.86163 25.9107Z" fill="#8BF8E7"/>
<path d="M8.0625 44.8036H2.36161C1.87054 44.8036 1.46875 44.4018 1.46875 43.9107L1.46875 32.4286C0.540179 31.6384 0 30.4777 0 29.2455C0 27.7098 0.459821 26.5089 1.32589 25.7678C2.20536 25.0223 3.44196 24.7723 5.00446 25.0268C7.36607 25.4107 8.95536 27.0536 8.95536 29.1116V43.9107C8.95536 44.4018 8.55357 44.8036 8.0625 44.8036ZM3.25446 43.0178H7.16964L7.16964 29.1116C7.16964 27.6919 5.84821 26.9732 4.71429 26.7902C3.69196 26.625 2.94196 26.7366 2.48214 27.1294C1.90625 27.6205 1.78571 28.5491 1.78571 29.2455C1.78571 30.0491 2.1875 30.7991 2.85714 31.2455C3.10714 31.4107 3.25446 31.692 3.25446 31.9866L3.25446 43.0178Z" fill="#3F5753"/>
<path d="M45.1385 25.9107C48.3929 25.3795 49.1072 27.4286 49.1072 29.2455C49.1072 30.3884 48.5224 31.3973 47.6385 31.9866V43.9107H41.9376V29.1116C41.9376 27.3437 43.3929 26.192 45.1385 25.9107Z" fill="#8BF8E7"/>
<path d="M47.6384 44.8036H41.9375C41.4465 44.8036 41.0447 44.4018 41.0447 43.9107V29.1116C41.0447 27.0536 42.634 25.4152 44.9956 25.0268C46.5581 24.7723 47.7947 25.0223 48.6741 25.7678C49.5402 26.5044 50 27.7098 50 29.2455C50 30.4821 49.4599 31.6384 48.5313 32.4286V43.9107C48.5313 44.4018 48.1295 44.8036 47.6384 44.8036ZM42.8304 43.0178H46.7456V31.9866C46.7456 31.6875 46.8929 31.4107 47.1429 31.2455C47.8125 30.7991 48.2143 30.0491 48.2143 29.2455C48.2143 28.5491 48.0938 27.6205 47.5179 27.1294C47.0581 26.7366 46.3081 26.625 45.2857 26.7902C44.1518 26.9732 42.8304 27.6919 42.8304 29.1116V43.0178Z" fill="#3F5753"/>
<path d="M47.3616 40.2232H2.36163V43.9107H47.3616V40.2232Z" fill="#9FDECF"/>
<path d="M47.3616 44.8035H2.36161C1.87054 44.8035 1.46875 44.4018 1.46875 43.9107L1.46875 40.2232C1.46875 39.7321 1.87054 39.3303 2.36161 39.3303H47.3616C47.8527 39.3303 48.2545 39.7321 48.2545 40.2232V43.9107C48.2545 44.4018 47.8527 44.8035 47.3616 44.8035ZM3.25446 43.0178H46.4687V41.116H3.25446V43.0178Z" fill="#3F5753"/>
<path d="M5.09378 31.6027H20.0581C22.7054 31.6027 24.8572 33.7544 24.8572 36.4018V40.2277H5.09378C3.58485 40.2277 2.36163 39.0044 2.36163 37.4955V34.3348C2.36163 32.8259 3.58485 31.6027 5.09378 31.6027Z" fill="#8BF8E7"/>
<path d="M24.8616 41.116H5.09375C3.09375 41.116 1.46875 39.491 1.46875 37.491L1.46875 34.3303C1.46875 32.3303 3.09375 30.7053 5.09375 30.7053H20.058C23.1964 30.7053 25.75 33.2589 25.75 36.3973V40.2232C25.75 40.7143 25.3482 41.116 24.8571 41.116H24.8616ZM5.09375 32.491C4.08036 32.491 3.25446 33.3169 3.25446 34.3303V37.491C3.25446 38.5044 4.08036 39.3303 5.09375 39.3303H23.9687V36.3973C23.9687 34.241 22.2143 32.491 20.0625 32.491H5.09375Z" fill="#3F5753"/>
<path d="M29.6607 31.6027H44.625C46.1339 31.6027 47.3571 32.8259 47.3571 34.3348V37.4955C47.3571 39.0044 46.1339 40.2277 44.625 40.2277H24.8571V36.4018C24.8571 33.7544 27.0089 31.6027 29.6562 31.6027H29.6607Z" fill="#8BF8E7"/>
<path d="M44.6295 41.116H24.8616C24.3705 41.116 23.9688 40.7143 23.9688 40.2232V36.3973C23.9688 33.2589 26.5223 30.7053 29.6607 30.7053H44.625C46.625 30.7053 48.25 32.3303 48.25 34.3303V37.491C48.25 39.491 46.625 41.116 44.625 41.116H44.6295ZM25.7545 39.3303H44.6295C45.6429 39.3303 46.4687 38.5044 46.4687 37.491V34.3303C46.4687 33.3169 45.6429 32.491 44.6295 32.491H29.6652C27.5089 32.491 25.7589 34.2455 25.7589 36.3973V39.3303H25.7545Z" fill="#3F5753"/>
</g>
<defs>
<clipPath id="clip0_6257_365">
<rect width="50" height="50" fill="white"/>
</clipPath>
</defs>
</svg>
