<svg width="50" height="50" viewBox="0 0 50 50" fill="none" xmlns="http://www.w3.org/2000/svg">
<g opacity="0.6">
<path d="M3.05364 28.2278H46.5313C47.8394 28.2278 48.8974 29.2903 48.8974 30.5939V38.009C48.8974 43.3662 44.5492 47.7144 39.192 47.7144H10.3885C5.03132 47.7144 0.683105 43.3662 0.683105 38.009L0.683105 30.5939C0.683105 29.2858 1.74561 28.2278 3.04918 28.2278H3.05364Z" fill="#4F9D91"/>
<path d="M11.8082 39.3082C11.0671 39.3082 10.3216 39.0582 9.74566 38.5627L9.56709 38.4064C9.07602 37.9868 8.25459 37.9868 7.76352 38.4064C7.38852 38.7279 6.82602 38.6832 6.50459 38.3082C6.18316 37.9332 6.22781 37.3707 6.60281 37.0493C7.75906 36.0537 9.57602 36.0582 10.7323 37.0493L10.9108 37.2055C11.393 37.6162 12.2323 37.6162 12.7144 37.2055L12.7724 37.1564C13.9287 36.1654 15.7412 36.1654 16.9019 37.1564C17.3885 37.5761 18.2144 37.5761 18.7055 37.1564L18.8707 37.0136C20.0269 36.0225 21.8439 36.0225 23.0001 37.0136C23.3751 37.335 23.4153 37.8975 23.0939 38.2725C22.7725 38.6475 22.21 38.6877 21.835 38.3662C21.3483 37.9466 20.5225 37.9466 20.0314 38.3662L19.8662 38.5091C18.71 39.5002 16.8974 39.5002 15.7367 38.5091C15.2501 38.0895 14.4242 38.0895 13.9332 38.5091L13.8751 38.5582C13.2948 39.0537 12.5537 39.3037 11.8126 39.3037L11.8082 39.3082Z" fill="white"/>
<path d="M30.9777 44.4107C30.2366 44.4107 29.4911 44.1607 28.9152 43.6652L28.7321 43.5089C28.2411 43.0893 27.4196 43.0893 26.9286 43.5089C26.5536 43.8304 25.9911 43.7857 25.6696 43.4107C25.3482 43.0357 25.3928 42.4732 25.7678 42.1518C26.9241 41.1563 28.7411 41.1607 29.8973 42.1518L30.0759 42.308C30.567 42.7277 31.3928 42.7277 31.8795 42.308L31.9375 42.2589C33.0937 41.2679 34.9062 41.2634 36.067 42.2589C36.5536 42.6786 37.3795 42.6786 37.8705 42.2589L38.0357 42.1161C39.192 41.125 41.0045 41.1205 42.1652 42.1161C42.5402 42.4375 42.5803 43 42.2589 43.375C41.9375 43.75 41.375 43.7946 41 43.4732C40.5134 43.0536 39.6875 43.0536 39.1964 43.4732L39.0312 43.6161C37.875 44.6071 36.058 44.6116 34.9018 43.6161C34.4241 43.2054 33.5803 43.2054 33.0982 43.6161L33.0402 43.6652C32.4598 44.1607 31.7187 44.4107 30.9777 44.4107Z" fill="white"/>
<path d="M38.4242 32.6961H40.4599C42.1965 32.6961 43.8171 31.8166 44.7635 30.3613L48.8974 21.3657H2.82153L3.0135 28.772C3.10278 30.9639 4.90635 32.6961 7.10278 32.6961H35.2144" fill="#6ED5C5"/>
<path d="M5.21875 21.3661V16.442L9.18304 12.1965H24.2143V8.99561H32.4152L39.1786 15.759L40.933 21.3661" fill="#DFFDF7"/>
<path d="M40.4598 32.6962C42.1964 32.6962 43.817 31.8167 44.7634 30.3614L46.6473 26.2587L46.2634 26.0891C46.2634 26.0891 38.3705 24.2989 29.2812 27.5489C27.9866 28.0132 26.6161 28.2319 25.2366 28.2319H3L3.01339 28.7721C3.10268 30.9641 4.90625 32.6962 7.10268 32.6962H40.4598Z" fill="white"/>
<path d="M40.4598 33.5896H38.4241C37.933 33.5896 37.5312 33.1878 37.5312 32.6968C37.5312 32.2057 37.933 31.8039 38.4241 31.8039H40.4598C41.8795 31.8039 43.192 31.103 43.9821 29.9245L47.5089 22.2593H3.74106L3.9107 28.7503C3.98213 30.4602 5.38391 31.8084 7.10713 31.8084H35.2187C35.7098 31.8084 36.1116 32.2102 36.1116 32.7012C36.1116 33.1923 35.7098 33.5941 35.2187 33.5941H7.10266C4.41963 33.5941 2.23213 31.4914 2.12499 28.8128L1.93302 21.3932C1.92856 21.1521 2.01784 20.92 2.18749 20.7459C2.35713 20.5718 2.58481 20.478 2.82588 20.478H48.9018C49.2054 20.478 49.4911 20.6343 49.6518 20.8887C49.817 21.1432 49.8393 21.4691 49.7098 21.7414L45.5759 30.737C45.558 30.7771 45.5357 30.8128 45.5134 30.8486C44.3973 32.5673 42.5089 33.5896 40.4598 33.5896Z" fill="#37635F"/>
<path d="M25.2411 29.1206H3.01346C2.52239 29.1206 2.12061 28.7188 2.12061 28.2278C2.12061 27.7367 2.52239 27.3349 3.01346 27.3349H25.2367C26.5492 27.3349 27.8081 27.1206 28.9777 26.7054C38.2054 23.4063 46.1251 25.1429 46.4554 25.2188C46.9376 25.326 47.2367 25.8037 47.1295 26.2858C47.0224 26.7679 46.5447 27.0671 46.0626 26.9599C45.9867 26.9421 38.2992 25.2724 29.5804 28.3885C28.2144 28.8751 26.7545 29.1251 25.2367 29.1251L25.2411 29.1206Z" fill="#37635F"/>
<path d="M24.3303 12.5001V9.15186H32.366L37.9464 14.2858L39.0625 16.5179H27.2321L24.3303 12.5001Z" fill="white"/>
<path d="M40.9331 22.259C40.5536 22.259 40.2009 22.0134 40.0804 21.634L38.3884 16.2366L32.0447 9.89289H25.1027V12.2009C25.1027 12.692 24.7009 13.0938 24.2099 13.0938H9.567L6.11164 16.7947V21.3661C6.11164 21.8572 5.70986 22.259 5.21878 22.259C4.72771 22.259 4.32593 21.8572 4.32593 21.3661V16.442C4.32593 16.2143 4.41075 15.9956 4.567 15.8304L8.53128 11.5893C8.70093 11.4107 8.93753 11.3081 9.18307 11.3081H23.3215V9.00003C23.3215 8.50896 23.7232 8.10718 24.2143 8.10718H32.4197C32.6563 8.10718 32.884 8.20093 33.0491 8.37057L39.8081 15.1295C39.9107 15.2322 39.9866 15.3572 40.0268 15.4956L41.7813 21.1027C41.9286 21.5715 41.6652 22.0759 41.1965 22.2232C41.1072 22.25 41.0179 22.2634 40.9286 22.2634L40.9331 22.259Z" fill="#37635F"/>
<path fill-rule="evenodd" clip-rule="evenodd" d="M23.3757 12.5658L24.8386 11.5417L27.6971 15.6252H39.0625V17.4109H26.7673L23.3757 12.5658Z" fill="#37635F"/>
<path fill-rule="evenodd" clip-rule="evenodd" d="M28.125 12.2768C28.125 11.907 28.4248 11.6072 28.7946 11.6072H31.6964C32.0663 11.6072 32.3661 11.907 32.3661 12.2768C32.3661 12.6467 32.0663 12.9465 31.6964 12.9465H28.7946C28.4248 12.9465 28.125 12.6467 28.125 12.2768Z" fill="#53918C"/>
</g>
</svg>
