<svg width="50" height="50" viewBox="0 0 50 50" fill="none" xmlns="http://www.w3.org/2000/svg">
<g opacity="0.6">
<path d="M12.4643 20.1474C12.4643 20.1474 10.5982 15.5893 4.38391 16.6965C4.38391 16.6965 5.82588 21.7947 8.42409 21.3929" fill="#73E0CF"/>
<path d="M8.11604 22.3125C5.1339 22.3125 3.683 17.5134 3.52229 16.942C3.45533 16.7009 3.49104 16.4375 3.62497 16.2233C3.7589 16.009 3.97765 15.8616 4.22318 15.817C11.0669 14.5983 13.2634 19.759 13.2857 19.8125C13.4732 20.2679 13.2544 20.7902 12.7991 20.9777C12.3437 21.1652 11.8259 20.9465 11.6384 20.4956C11.5714 20.3393 10.1384 17.1116 5.58479 17.4465C6.16068 18.8929 7.19193 20.6875 8.28568 20.5179C8.77229 20.442 9.22765 20.7768 9.30354 21.2634C9.37943 21.75 9.04461 22.2054 8.55801 22.2813C8.40622 22.3036 8.2589 22.317 8.11604 22.317V22.3125Z" fill="#37635F"/>
<path d="M11.0178 20.9955C11.0178 20.9955 10.2767 15.6607 8.99994 14.0268Z" fill="#73E0CF"/>
<path d="M11.0178 21.8884C10.5803 21.8884 10.1964 21.567 10.1339 21.1206C9.85711 19.1474 9.11603 15.6295 8.29907 14.5804C7.9955 14.192 8.06693 13.6295 8.45532 13.3259C8.84371 13.0224 9.40621 13.0938 9.70978 13.4822C11.0892 15.2545 11.8259 20.3036 11.9062 20.875C11.9732 21.3616 11.6339 21.8125 11.1428 21.884C11.1026 21.8884 11.058 21.8929 11.0178 21.8929V21.8884Z" fill="#37635F"/>
<path d="M11.4822 18.1206C11.4822 18.1206 12.4643 9.37953 11.7679 6.31256Z" fill="#73E0CF"/>
<path d="M11.4822 19.0134C11.4509 19.0134 11.4152 19.0134 11.3795 19.009C10.8884 18.9554 10.5357 18.5134 10.5938 18.0224C10.6027 17.9375 11.5536 9.39735 10.8973 6.50896C10.7857 6.02682 11.0893 5.54914 11.5715 5.442C12.0491 5.33039 12.5313 5.63396 12.6384 6.1161C13.3616 9.29467 12.4107 17.8616 12.3706 18.2232C12.3215 18.6786 11.9331 19.0179 11.4866 19.0179L11.4822 19.0134Z" fill="#37635F"/>
<path d="M11.9509 21.3929C11.9509 21.3929 10.6161 17.4733 12.8393 15.5581C15.067 13.6429 17.5134 12.8438 17.5134 12.8438C17.5134 12.8438 18.9598 19.9018 14.942 21.2902" fill="#73E0CF"/>
<path d="M11.9509 22.2857C11.5804 22.2857 11.2322 22.0536 11.1072 21.6831C11.0447 21.5 9.60717 17.1652 12.259 14.884C14.5938 12.875 17.1295 12.0313 17.2366 11.9956C17.4777 11.9152 17.7411 11.942 17.9643 12.0715C18.1831 12.2009 18.3393 12.4152 18.3929 12.6652C18.4598 12.9866 19.942 20.509 15.2366 22.134C14.7723 22.2947 14.2634 22.0491 14.1027 21.5849C13.942 21.1206 14.1875 20.6116 14.6518 20.4509C17.0536 19.6206 16.9911 15.9554 16.7947 14.1027C15.9331 14.5 14.634 15.1965 13.4241 16.2366C11.7054 17.7143 12.7857 21.0715 12.7947 21.1027C12.9554 21.5715 12.7054 22.0759 12.2366 22.2366C12.1429 22.2679 12.0447 22.2857 11.9465 22.2857H11.9509Z" fill="#37635F"/>
<path d="M15.6295 21.3929H7.47321L7.87946 28.2232C7.91963 28.9331 8.50892 29.4911 9.22321 29.4911H13.8839C14.5982 29.4911 15.183 28.9375 15.2277 28.2232L15.6339 21.3929H15.6295Z" fill="#6ED5C5"/>
<path d="M13.8839 30.3839H9.22321C8.04017 30.3839 7.05803 29.4598 6.9866 28.2768L6.58035 21.4464C6.56696 21.2009 6.65178 20.9598 6.82142 20.7813C6.99107 20.6027 7.22321 20.5 7.47321 20.5H15.6295C15.875 20.5 16.1116 20.6027 16.2812 20.7813C16.4509 20.9598 16.5357 21.2009 16.5223 21.4464L16.1161 28.2768C16.0446 29.4598 15.0625 30.3839 13.8795 30.3839H13.8839ZM8.41964 22.2857L8.76785 28.1696C8.78125 28.4107 8.98214 28.5938 9.21875 28.5938H13.8795C14.1205 28.5938 14.317 28.4063 14.3304 28.1696L14.6786 22.2857H8.41518H8.41964Z" fill="#37635F"/>
<path d="M8.99554 14.0268C8.99554 14.0268 4.78572 14.4152 4.29911 11.9331C3.8125 9.45094 9.24554 11.4286 8.99554 14.0268Z" fill="#73E0CF"/>
<path d="M8.2991 14.9509C6.41517 14.9509 3.8616 14.3572 3.4241 12.1027C3.27232 11.3215 3.50446 10.6473 4.05803 10.2545C5.03571 9.55359 6.60714 10.009 7.64732 10.6161C9.1741 11.4956 10.0089 12.8036 9.88392 14.1161C9.84375 14.5447 9.50446 14.8795 9.07589 14.9197C8.83928 14.942 8.57589 14.9554 8.2991 14.9554V14.9509ZM5.16517 11.6875C5.16517 11.6875 5.16964 11.7322 5.1741 11.759C5.375 12.7857 6.82142 13.0625 7.85714 13.1295C7.6741 12.8527 7.39285 12.5804 7.03125 12.3304C6.25 11.7947 5.45982 11.6384 5.16517 11.6831V11.6875Z" fill="#37635F"/>
<path d="M12.116 10.6473C12.116 10.6473 16.125 6.29018 17.2589 8.98214C18.1339 11.0625 12.8616 11.8973 12.116 10.6473Z" fill="#73E0CF"/>
<path d="M13.866 12.1384C12.7857 12.1384 11.7857 11.8482 11.3482 11.1072C11.1473 10.7679 11.1919 10.3348 11.4598 10.0447C11.9464 9.51787 14.4687 6.89733 16.4553 7.24554C16.9687 7.33483 17.6651 7.64733 18.0803 8.6384C18.4464 9.50447 18.2857 10.7143 16.7321 11.4955C15.9687 11.8795 14.8794 12.1384 13.866 12.1384ZM13.7098 10.3438C14.4866 10.3661 15.5625 10.192 16.2053 9.73215C16.5089 9.5134 16.4687 9.41519 16.433 9.33037C16.308 9.03126 16.1919 9.0134 16.1428 9.00447C15.6517 8.91519 14.6384 9.54019 13.7098 10.3438Z" fill="#37635F"/>
<path d="M11.8258 6.45985C11.8258 6.45985 5.93746 7.07592 6.87049 4.3036C7.58924 2.16521 12.0982 5.02681 11.8258 6.45985Z" fill="#73E0CF"/>
<path d="M10.5089 7.41966C9.12497 7.41966 7.17855 7.20983 6.3214 6.14287C5.99551 5.73662 5.67855 5.04019 6.0223 4.02233C6.3214 3.12948 7.24105 2.33037 8.92408 2.77233C10.6339 3.21876 13.0178 4.98662 12.7053 6.62948C12.6339 7.01787 12.3125 7.31251 11.9196 7.35269C11.6919 7.37501 11.1607 7.42412 10.5089 7.42412V7.41966ZM8.0089 4.42858C7.76783 4.42858 7.74105 4.5134 7.71426 4.5893C7.61158 4.89287 7.68301 4.98662 7.71426 5.02233C8.02676 5.41519 9.1964 5.61608 10.4285 5.62948C9.86605 5.09823 8.93747 4.5134 8.15176 4.43751C8.09819 4.43305 8.04908 4.42858 8.0089 4.42858Z" fill="#37635F"/>
<path d="M8.4018 44.5759C7.3393 43.5134 7.15626 41.9688 7.99108 41.134L8.86162 40.2634L9.48215 39.7813C11.9509 37.8616 14.1563 35.6563 16.0804 33.192L16.5893 32.5402L17.8884 31.2411C18.192 30.9375 18.75 31.0045 19.1339 31.3884L21.5938 33.8483C21.9777 34.2322 22.0447 34.7902 21.7411 35.0938L20.4777 36.3572L19.7322 36.9375C17.3036 38.8349 15.1295 41.009 13.2322 43.4375L12.6429 44.192L11.8438 44.9911C11.0045 45.8304 9.4643 45.6474 8.4018 44.5804V44.5759Z" fill="#70EBD8"/>
<path d="M10.4956 46.3974C9.55806 46.3974 8.55359 45.9911 7.76788 45.2054C6.35716 43.7947 6.17413 41.6831 7.35716 40.5L8.2277 39.6295C8.25449 39.6027 8.28127 39.5804 8.31252 39.5536L8.93306 39.0715C11.3348 37.2009 13.5045 35.0402 15.375 32.6384L15.8839 31.9866C15.9063 31.9599 15.9286 31.9286 15.9554 31.9063L17.2545 30.6072C17.9063 29.9554 19.0313 30.0224 19.7634 30.7545L22.2232 33.2143C22.5491 33.5402 22.7589 33.9599 22.8125 34.3929C22.8706 34.8974 22.7143 35.384 22.375 35.7232L21.1116 36.9866C21.0848 37.0134 21.0581 37.0357 21.0313 37.0581L20.2857 37.6384C17.9197 39.4822 15.7857 41.6206 13.9375 43.9822L13.3482 44.7366C13.3259 44.7634 13.3036 44.7902 13.2768 44.817L12.4777 45.6161C11.9509 46.1429 11.2456 46.3974 10.5 46.3974H10.4956ZM9.45538 40.9286L8.62056 41.759C8.13841 42.2411 8.32591 43.2366 9.03127 43.942C9.73216 44.6429 10.7322 44.8304 11.2143 44.3527L11.9732 43.5938L12.5268 42.884C14.4643 40.4063 16.7009 38.1652 19.1831 36.2322L19.8839 35.6831L21.0179 34.5491C21.0179 34.5491 20.9866 34.5 20.9598 34.4732L18.5 32.0134C18.4732 31.9866 18.4464 31.9688 18.4241 31.9554L17.2545 33.125L16.7813 33.7322C14.8214 36.25 12.5491 38.5179 10.0268 40.4777L9.45091 40.9241L9.45538 40.9286Z" fill="#37635F"/>
<path d="M26.6358 28.1656L24.6628 26.1926L21.5219 29.3336L23.4949 31.3065L26.6358 28.1656Z" fill="#53918C"/>
<path d="M23.4955 32.2009C23.2678 32.2009 23.0402 32.1116 22.8661 31.9375L20.8928 29.9643C20.7232 29.7946 20.6295 29.5714 20.6295 29.3348C20.6295 29.0982 20.7232 28.8705 20.8928 28.7054L24.0357 25.5625C24.3839 25.2143 24.9509 25.2143 25.2991 25.5625L27.2723 27.5357C27.442 27.7053 27.5357 27.9286 27.5357 28.1652C27.5357 28.4018 27.442 28.6295 27.2723 28.7946L24.1295 31.933C23.9553 32.1071 23.7277 32.1964 23.5 32.1964L23.4955 32.2009ZM22.7857 29.3348L23.4955 30.0446L25.375 28.1652L24.6652 27.4553L22.7857 29.3348Z" fill="#37635F"/>
<path d="M21.7997 29.7455L23.195 31.1408C23.7632 31.709 23.76 32.6276 23.195 33.1927L21.9891 34.3985L18.5388 30.9482L19.7447 29.7424C20.3129 29.1742 21.2315 29.1773 21.7966 29.7424L21.7997 29.7455Z" fill="#53918C"/>
<path d="M21.9866 35.2947C21.7589 35.2947 21.5312 35.2054 21.3571 35.0313L17.9062 31.5804C17.558 31.2322 17.558 30.6652 17.9062 30.317L19.1116 29.1116C20.0268 28.1964 21.5134 28.1964 22.4286 29.1116L23.8214 30.5045C24.7366 31.4197 24.7366 32.9063 23.8214 33.8214L22.6161 35.0268C22.442 35.2009 22.2143 35.2902 21.9866 35.2902V35.2947ZM19.7991 30.9509L21.9866 33.1384L22.5625 32.5625C22.7812 32.3438 22.7812 31.9866 22.5625 31.7723L21.1696 30.3795C20.9509 30.1607 20.5937 30.1607 20.3795 30.3795L19.8036 30.9554L19.7991 30.9509Z" fill="#37635F"/>
<path d="M36.7634 28.9687C33.5179 32.2143 28.259 31.058 25.0134 27.8125C21.7679 24.5669 20.6161 19.308 23.8572 16.0625C27.1027 12.8169 39.8393 8.98212 41.8393 10.9821C43.8393 12.9821 40.0045 25.7232 36.759 28.9643L36.7634 28.9687Z" fill="#5BB5A7"/>
<path d="M32.0089 31.8036C29.2634 31.8036 26.4241 30.4866 24.3839 28.4464C22.6206 26.683 21.4331 24.3571 21.1206 22.0625C20.7723 19.5 21.5223 17.1428 23.2277 15.4375C26.4197 12.2455 39.8616 7.74552 42.4732 10.3571C44.0804 11.9643 42.9464 16.9375 42.125 19.7634C41.1607 23.0848 39.3438 27.6518 37.3929 29.6027C35.8527 31.1428 33.9509 31.8036 32.0045 31.8036H32.0089ZM39.7054 11.3214C38.4063 11.3214 36.3348 11.6116 33.567 12.4152C29.5268 13.5893 25.8795 15.308 24.4911 16.6964C22.817 18.3705 22.6964 20.4062 22.8884 21.8214C23.1473 23.7366 24.1518 25.692 25.6473 27.183C27.1384 28.6741 29.0938 29.6786 31.0089 29.942C32.4241 30.1339 34.4598 30.0134 36.1339 28.3393C37.5223 26.9509 39.2411 23.3036 40.4152 19.2634C41.7232 14.75 41.6697 12.0759 41.2143 11.6205C41.0357 11.442 40.5268 11.3259 39.7054 11.3259V11.3214Z" fill="#37635F"/>
<path d="M39.7991 13.1741L27.1563 25.817C26.942 26.0313 26.6563 26.0402 26.5982 25.8393C26.2321 24.5224 26.1652 19.8527 39.5447 12.6652C39.933 12.4554 40.1295 12.8438 39.7991 13.1741Z" fill="#53918C"/>
</g>
</svg>
