<svg width="50" height="50" viewBox="0 0 50 50" fill="none" xmlns="http://www.w3.org/2000/svg">
<g opacity="0.6" clip-path="url(#clip0_6257_437)">
<path d="M48.0134 0.892883H1.98663C1.38257 0.892883 0.892883 1.38257 0.892883 1.98663V31.2322C0.892883 31.8362 1.38257 32.3259 1.98663 32.3259H48.0134C48.6175 32.3259 49.1072 31.8362 49.1072 31.2322V1.98663C49.1072 1.38257 48.6175 0.892883 48.0134 0.892883Z" fill="#4F9D91"/>
<path d="M48.0134 36.1428H1.98663C1.38257 36.1428 0.892883 36.6325 0.892883 37.2366V44.4732C0.892883 45.0772 1.38257 45.5669 1.98663 45.5669H48.0134C48.6175 45.5669 49.1072 45.0772 49.1072 44.4732V37.2366C49.1072 36.6325 48.6175 36.1428 48.0134 36.1428Z" fill="#BAFAEE"/>
<path d="M48.0134 46.4598H1.98661C0.888393 46.4598 0 45.567 0 44.4732V37.2411C0 36.1428 0.892857 35.2545 1.98661 35.2545H48.0089C49.1071 35.2545 49.9955 36.1473 49.9955 37.2411V44.4732C49.9955 45.5714 49.1027 46.4598 48.0089 46.4598H48.0134ZM1.98661 37.0357C1.875 37.0357 1.78571 37.125 1.78571 37.2366V44.4687C1.78571 44.5803 1.875 44.6696 1.98661 44.6696H48.0089C48.1205 44.6696 48.2098 44.5803 48.2098 44.4687V37.2366C48.2098 37.125 48.1205 37.0357 48.0089 37.0357H1.98661Z" fill="#004241"/>
<path d="M3.57587 38.7902V43.9107L7.16962 42.808C7.85712 42.5982 8.09372 42.1339 7.70087 41.7678C7.29908 41.3928 7.55355 40.9196 8.26783 40.7143L10.4375 40.0937C10.7857 39.9955 11.1964 39.9732 11.5714 40.0402L14.1696 40.4955C14.5759 40.567 15.0223 40.5357 15.3839 40.4152L17.2902 39.7768C17.7098 39.6384 17.9643 39.3929 17.9643 39.1295V38.7857H3.57587V38.7902Z" fill="#5BB5A7"/>
<path d="M28.2232 38.7902V43.9107L31.817 42.808C32.5045 42.5982 32.7411 42.1339 32.3482 41.7678C31.9464 41.3928 32.2009 40.9196 32.9152 40.7143L35.0848 40.0937C35.433 39.9955 35.8437 39.9732 36.2187 40.0402L38.817 40.4955C39.2232 40.567 39.6696 40.5357 40.0312 40.4152L41.9375 39.7768C42.3571 39.6384 42.6116 39.3929 42.6116 39.1295V38.7857H28.2232V38.7902Z" fill="#5BB5A7"/>
<path d="M25.7277 46.4598C25.2366 46.4598 24.8348 46.058 24.8348 45.567V36.1429C24.8348 35.6518 25.2366 35.25 25.7277 35.25C26.2188 35.25 26.6206 35.6518 26.6206 36.1429V45.567C26.6206 46.058 26.2188 46.4598 25.7277 46.4598Z" fill="#004241"/>
<path d="M4.02234 27.6741V4.85716C4.02234 4.36162 4.42859 3.95984 4.92859 3.95984H41.8438C42.7768 3.95984 43.3616 4.9643 42.8929 5.76787C35.5045 18.3884 22.5714 26.8438 7.95984 28.5982L6.11162 28.8214C5.0402 29.0313 4.02234 28.7456 4.02234 27.6786V27.6741Z" fill="#73E0CF"/>
<path d="M2.78574 50C2.71877 50 2.65627 49.9911 2.58931 49.9777C2.10717 49.8705 1.80359 49.3928 1.9152 48.9107L2.70984 45.3705C2.81699 44.8884 3.29467 44.5893 3.77681 44.6964C4.25895 44.8036 4.56252 45.2812 4.45092 45.7634L3.65627 49.3036C3.56252 49.7187 3.19645 50 2.78574 50Z" fill="#004241"/>
<path d="M47.2322 50C46.8215 50 46.4554 49.7188 46.3616 49.3036L45.567 45.7634C45.4598 45.2813 45.7634 44.8036 46.2411 44.6964C46.7232 44.5893 47.2009 44.8929 47.3081 45.3706L48.1027 48.9107C48.2098 49.3929 47.9063 49.8706 47.4286 49.9777C47.3616 49.9911 47.2991 50 47.2322 50Z" fill="#004241"/>
<path d="M48.5045 25.6205C48.2455 25.6205 47.9866 25.5313 47.7768 25.3482L21.058 2.25893C20.5938 1.85715 20.5402 1.15179 20.942 0.683042C21.3438 0.218756 22.0491 0.165184 22.5179 0.56697L49.2321 23.6563C49.6964 24.058 49.75 24.7634 49.3482 25.2321C49.1295 25.4866 48.817 25.6205 48.5045 25.6205Z" fill="white"/>
<path d="M48.0134 33.2188H1.98661C0.888393 33.2188 0 32.3259 0 31.2321V1.98661C0 0.892857 0.892857 0 1.98661 0H48.0089C49.1071 0 49.9955 0.892857 49.9955 1.98661V31.2321C49.9955 32.3304 49.1027 33.2188 48.0089 33.2188H48.0134ZM1.98661 1.78571C1.875 1.78571 1.78571 1.875 1.78571 1.98661V31.2321C1.78571 31.3438 1.875 31.433 1.98661 31.433H48.0089C48.1205 31.433 48.2098 31.3438 48.2098 31.2321V1.98661C48.2098 1.875 48.1205 1.78571 48.0089 1.78571H1.98661Z" fill="#004241"/>
<path d="M18.8705 28.2188C20.6457 28.2188 22.0848 26.7897 22.0848 25.0268C22.0848 23.2639 20.6457 21.8348 18.8705 21.8348C17.0953 21.8348 15.6562 23.2639 15.6562 25.0268C15.6562 26.7897 17.0953 28.2188 18.8705 28.2188Z" fill="#4F9D91"/>
<path d="M19.3214 26.5313C21.0966 26.5313 22.5357 25.1022 22.5357 23.3393C22.5357 21.5764 21.0966 20.1473 19.3214 20.1473C17.5462 20.1473 16.1071 21.5764 16.1071 23.3393C16.1071 25.1022 17.5462 26.5313 19.3214 26.5313Z" fill="white"/>
<path d="M21.3839 20.8929L20.8125 21.0447C20.6875 21.0759 20.5893 21.1741 20.558 21.2991L20.3214 22.1741C20.2902 22.2991 20.3214 22.4286 20.4152 22.5179L21.058 23.1563C21.1473 23.2456 21.2812 23.2813 21.4062 23.25L22.2857 23.0179C22.3794 22.9911 22.4464 22.9241 22.4955 22.8438C22.3705 22.067 21.9643 21.3795 21.3839 20.8973V20.8929Z" fill="#004241"/>
<path d="M20.3616 24.3036C20.2723 24.2143 20.1384 24.1786 20.0134 24.2098L19.0446 24.4688C18.9196 24.5 18.8214 24.5982 18.7902 24.7232L18.5312 25.6875C18.5 25.8125 18.5313 25.942 18.625 26.0313L19.1161 26.5179C19.1875 26.5179 19.2545 26.5268 19.3259 26.5268C19.9286 26.5268 20.4911 26.3616 20.9732 26.0759L21.1696 25.3527C21.2009 25.2277 21.1696 25.0982 21.0759 25.009L20.3661 24.3036H20.3616Z" fill="#004241"/>
<path d="M16.3661 22.0893C16.3839 22.125 16.4018 22.1563 16.4331 22.1831L17.0938 22.8393C17.1831 22.9286 17.317 22.9643 17.442 22.9331L18.3482 22.692C18.4732 22.6607 18.5714 22.5625 18.6027 22.4375L18.8438 21.5402C18.875 21.4152 18.8438 21.2857 18.75 21.1964L18.0893 20.5402C18.0491 20.5 18.0045 20.4777 17.9554 20.4598C17.2456 20.7947 16.6786 21.3706 16.3661 22.0893Z" fill="#004241"/>
</g>
<defs>
<clipPath id="clip0_6257_437">
<rect width="50" height="50" fill="white"/>
</clipPath>
</defs>
</svg>
