<svg width="50" height="50" viewBox="0 0 50 50" fill="none" xmlns="http://www.w3.org/2000/svg">
<g opacity="0.6">
<path d="M18.8524 34.7219L15.6547 31.5241L6.4244 40.7544L9.62216 43.9521L18.8524 34.7219Z" fill="#BAFAEE"/>
<path d="M9.625 44.8437C9.39732 44.8437 9.16964 44.7544 8.99554 44.5803L5.79464 41.3839C5.625 41.2142 5.53125 40.991 5.53125 40.7544C5.53125 40.5178 5.625 40.2901 5.79464 40.125L15.0268 30.8928C15.375 30.5446 15.942 30.5446 16.2902 30.8928L19.4911 34.0892C19.6607 34.2589 19.7545 34.4821 19.7545 34.7187C19.7545 34.9553 19.6607 35.183 19.4911 35.3482L10.2589 44.5803C10.0848 44.7544 9.85714 44.8437 9.62946 44.8437H9.625ZM7.6875 40.7544L9.625 42.6919L17.5938 34.7232L15.6563 32.7857L7.6875 40.7544Z" fill="#37635F"/>
<path d="M35.0479 15.1633L35.3509 15.4663C35.9697 16.085 35.9697 17.0889 35.3509 17.7076L20.8458 32.2127L18.3046 29.6716L32.8098 15.1664C33.4285 14.5477 34.4323 14.5477 35.0511 15.1664L35.0479 15.1633Z" fill="#BEC9D2"/>
<path d="M20.8482 33.1071C20.6116 33.1071 20.3839 33.0133 20.2188 32.8437L17.6786 30.3035C17.3304 29.9553 17.3304 29.3883 17.6786 29.0401L32.183 14.5357C32.6518 14.0669 33.2723 13.8124 33.933 13.8124C34.5938 13.8124 35.2188 14.0714 35.683 14.5357L35.9866 14.8392C36.9509 15.8035 36.9509 17.3749 35.9866 18.3392L21.4822 32.8437C21.3125 33.0133 21.0893 33.1071 20.8527 33.1071H20.8482ZM19.567 29.6696L20.8482 30.9508L34.7232 17.0758C34.9911 16.808 34.9911 16.3705 34.7232 16.0982L34.4196 15.7946C34.1607 15.5357 33.7054 15.5357 33.442 15.7946L19.567 29.6696Z" fill="#37635F"/>
<path d="M30.9527 16.4061L34.1095 19.5628C34.7282 20.1815 34.7282 21.1854 34.1095 21.8041L19.6043 36.3093L14.2063 30.9113L28.7115 16.4061C29.3302 15.7874 30.334 15.7874 30.9527 16.4061Z" fill="#62BFB1"/>
<path d="M19.6027 37.2053C19.375 37.2053 19.1473 37.116 18.9732 36.9419L13.5759 31.5446C13.4063 31.3749 13.3125 31.1517 13.3125 30.9151C13.3125 30.6785 13.4063 30.4508 13.5759 30.2857L28.0804 15.7812C28.5491 15.3124 29.1696 15.058 29.8304 15.058C30.4911 15.058 31.1116 15.3169 31.5804 15.7812L34.7366 18.9374C35.7009 19.9017 35.7009 21.4732 34.7366 22.4374L20.2321 36.9419C20.058 37.116 19.8304 37.2053 19.6027 37.2053ZM15.4688 30.9151L19.6027 35.0491L33.4777 21.1741C33.7455 20.9062 33.7455 20.4687 33.4777 20.1964L30.3214 17.0401C30.0625 16.7812 29.6071 16.7812 29.3438 17.0401L15.4688 30.9151Z" fill="#37635F"/>
<path d="M32.625 18.7857C32.3973 18.7857 32.1696 18.6964 31.9955 18.5223C31.6473 18.1741 31.6473 17.6071 31.9955 17.2589L44.1786 5.07586C44.5268 4.72764 45.0938 4.72764 45.442 5.07586C45.7902 5.42407 45.7902 5.99104 45.442 6.33925L33.2589 18.5223C33.0848 18.6964 32.8571 18.7857 32.6295 18.7857H32.625Z" fill="#37635F"/>
<path d="M22.7277 40.3259C22.5 40.3259 22.2723 40.2366 22.0982 40.0625L10.7366 28.7009C10.3884 28.3527 10.3884 27.7857 10.7366 27.4375C11.0848 27.0893 11.6518 27.0893 12 27.4375L23.3616 38.7991C23.7098 39.1473 23.7098 39.7143 23.3616 40.0625C23.1875 40.2366 22.9598 40.3259 22.7322 40.3259H22.7277Z" fill="#37635F"/>
<path d="M11.1116 46.3303C10.8839 46.3303 10.6563 46.241 10.4821 46.0669L4.58929 40.1785C4.24107 39.8303 4.24107 39.2634 4.58929 38.9152C4.9375 38.5669 5.50446 38.5669 5.85268 38.9152L11.7455 44.8035C12.0938 45.1518 12.0938 45.7187 11.7455 46.0669C11.5714 46.241 11.3438 46.3303 11.1161 46.3303H11.1116Z" fill="#37635F"/>
<path d="M30.7768 26.0268C30.5491 26.0268 30.3214 25.9375 30.1473 25.7634L27.5893 23.2053C27.2411 22.8571 27.2411 22.2902 27.5893 21.9419C27.9375 21.5937 28.5045 21.5937 28.8527 21.9419L31.4107 24.5C31.7589 24.8482 31.7589 25.4152 31.4107 25.7634C31.2366 25.9375 31.0089 26.0268 30.7812 26.0268H30.7768Z" fill="#37635F"/>
<path d="M27.4152 29.3928C27.1875 29.3928 26.9598 29.3035 26.7857 29.1294L24.5893 26.933C24.2411 26.5848 24.2411 26.0178 24.5893 25.6696C24.9375 25.3214 25.5045 25.3214 25.8527 25.6696L28.0491 27.866C28.3973 28.2142 28.3973 28.7812 28.0491 29.1294C27.875 29.3035 27.6473 29.3928 27.4196 29.3928H27.4152Z" fill="#37635F"/>
<path d="M24.2902 32.5179C24.0625 32.5179 23.8348 32.4286 23.6607 32.2545L21.1027 29.6964C20.7544 29.3482 20.7544 28.7812 21.1027 28.433C21.4509 28.0848 22.0178 28.0848 22.366 28.433L24.9241 30.9911C25.2723 31.3393 25.2723 31.9063 24.9241 32.2545C24.75 32.4286 24.5223 32.5179 24.2946 32.5179H24.2902Z" fill="#37635F"/>
<path d="M30.3036 20.6115C30.0759 20.6115 29.8482 20.5223 29.6741 20.3482L29.2723 19.9464C28.9241 19.5982 28.9241 19.0312 29.2723 18.683C29.6205 18.3348 30.1875 18.3348 30.5357 18.683L30.9375 19.0848C31.2857 19.433 31.2857 19.9999 30.9375 20.3482C30.7634 20.5223 30.5357 20.6115 30.308 20.6115H30.3036Z" fill="white"/>
<path d="M18.2366 9.22763H14.317V5.30798H10.0581V9.22763H6.14288V13.4866H10.0581V17.4017H14.317V13.4866H18.2366V9.22763Z" fill="#73E0CF"/>
<path d="M14.317 18.2946H10.058C9.56696 18.2946 9.16518 17.8928 9.16518 17.4018V14.3794H6.14286C5.65179 14.3794 5.25 13.9777 5.25 13.4866V9.22765C5.25 8.73658 5.65179 8.3348 6.14286 8.3348H9.16518V5.31247C9.16518 4.8214 9.56696 4.41962 10.058 4.41962H14.317C14.808 4.41962 15.2098 4.8214 15.2098 5.31247V8.3348H18.2321C18.7232 8.3348 19.125 8.73658 19.125 9.22765V13.4866C19.125 13.9777 18.7232 14.3794 18.2321 14.3794H15.2098V17.4018C15.2098 17.8928 14.808 18.2946 14.317 18.2946ZM10.9509 16.5089H13.4241V13.4866C13.4241 12.9955 13.8259 12.5937 14.317 12.5937H17.3393V10.1205H14.317C13.8259 10.1205 13.4241 9.71872 13.4241 9.22765V6.20533H10.9509V9.22765C10.9509 9.71872 10.5491 10.1205 10.058 10.1205H7.03571V12.5937H10.058C10.5491 12.5937 10.9509 12.9955 10.9509 13.4866V16.5089Z" fill="#37635F"/>
</g>
</svg>
