<svg width="50" height="50" viewBox="0 0 50 50" fill="none" xmlns="http://www.w3.org/2000/svg">
<g opacity="0.6" clip-path="url(#clip0_6257_491)">
<path d="M11.7411 24.2813C9.48212 21.1652 7.31694 17.2143 6.08034 14.8304C5.58034 13.8706 6.27676 12.7277 7.35712 12.7277H12.5178" fill="#5BB5A7"/>
<path d="M11.7411 25.1741C11.4643 25.1741 11.192 25.0447 11.0178 24.8036C8.79463 21.7366 6.67409 17.9107 5.2857 15.2411C4.90623 14.5134 4.93302 13.6563 5.36159 12.9554C5.79016 12.2545 6.5357 11.8348 7.35713 11.8348H12.5178C13.0089 11.8348 13.4107 12.2366 13.4107 12.7277C13.4107 13.2188 13.0089 13.6206 12.5178 13.6206H7.35713C7.08034 13.6206 6.93749 13.8036 6.88838 13.8839C6.83927 13.9643 6.74106 14.1741 6.87052 14.4197C7.98213 16.5581 10.1919 20.6206 12.4643 23.7589C12.7545 24.1563 12.6652 24.7188 12.2634 25.0045C12.1071 25.1206 11.9196 25.1741 11.7411 25.1741Z" fill="#3F5753"/>
<path d="M24.3482 3.57593C18.0804 3.57593 12.8973 8.44646 12.5045 14.7009L10.5223 41.9599H38.1741L36.192 14.7009C35.7991 8.44646 30.6161 3.57593 24.3482 3.57593Z" fill="#5BB5A7"/>
<path d="M38.1741 42.8527H10.5223C10.2723 42.8527 10.0357 42.75 9.87054 42.567C9.7009 42.384 9.61608 42.1429 9.63393 41.8929L11.6161 14.6339C12.0357 7.93305 17.6295 2.67859 24.3482 2.67859C31.067 2.67859 36.6607 7.93305 37.0804 14.6429L39.0625 41.8929C39.0804 42.1384 38.9955 42.384 38.8259 42.567C38.6563 42.75 38.4196 42.8527 38.1741 42.8527ZM11.4821 41.067H37.2143L35.2991 14.7679C34.9375 8.99109 30.125 4.46877 24.3482 4.46877C18.5714 4.46877 13.7589 8.98663 13.3973 14.7589L11.4821 41.067Z" fill="#3F5753"/>
<path d="M10.4464 41.9598H38.2902C39.4866 41.9598 40.4598 42.9331 40.4598 44.1295V46.4241H8.27234V44.1295C8.27234 42.9331 9.24555 41.9598 10.442 41.9598H10.4464Z" fill="#6ED5C5"/>
<path d="M40.4553 47.317H8.27231C7.78124 47.317 7.37946 46.9152 7.37946 46.4241V44.1295C7.37946 42.442 8.75445 41.067 10.442 41.067H38.2857C39.9732 41.067 41.3482 42.442 41.3482 44.1295V46.4241C41.3482 46.9152 40.9464 47.317 40.4553 47.317ZM9.16517 45.5312H39.5625V44.1295C39.5625 43.4241 38.9911 42.8527 38.2857 42.8527H10.4464C9.74106 42.8527 9.16963 43.4241 9.16963 44.1295V45.5312H9.16517Z" fill="#3F5753"/>
<path d="M31.3973 18.3036C31.3973 16.8218 30.1961 15.6206 28.7143 15.6206C27.2325 15.6206 26.0312 16.8218 26.0312 18.3036V32.442C26.0312 33.9238 27.2325 35.1251 28.7143 35.1251C30.1961 35.1251 31.3973 33.9238 31.3973 32.442V18.3036Z" fill="#53918C"/>
<path d="M28.7143 36.0224C26.741 36.0224 25.1384 34.4197 25.1384 32.4465V18.3036C25.1384 16.3304 26.741 14.7277 28.7143 14.7277C30.6875 14.7277 32.2902 16.3304 32.2902 18.3036V32.4465C32.2902 34.4197 30.6875 36.0224 28.7143 36.0224ZM28.7143 16.5179C27.7277 16.5179 26.9241 17.3215 26.9241 18.3081V32.4509C26.9241 33.4375 27.7277 34.2411 28.7143 34.2411C29.7009 34.2411 30.5044 33.4375 30.5044 32.4509V18.3081C30.5044 17.3215 29.7009 16.5179 28.7143 16.5179Z" fill="#3F5753"/>
<path d="M38.6786 38.2099H42.4866C43.3706 38.2099 44.0848 37.4956 44.0848 36.6116C44.0848 35.7277 43.3706 35.0134 42.4866 35.0134H38.1741" fill="#70EBD8"/>
<path d="M42.4822 39.1027H38.6741C38.183 39.1027 37.7813 38.7009 37.7813 38.2098C37.7813 37.7188 38.183 37.317 38.6741 37.317H42.4822C42.8705 37.317 43.1875 37 43.1875 36.6116C43.1875 36.2232 42.8705 35.9063 42.4822 35.9063H38.1697C37.6786 35.9063 37.2768 35.5045 37.2768 35.0134C37.2768 34.5223 37.6786 34.1205 38.1697 34.1205H42.4822C43.8572 34.1205 44.9732 35.2366 44.9732 36.6116C44.9732 37.9866 43.8572 39.1027 42.4822 39.1027Z" fill="#3F5753"/>
<path d="M33.9821 9.69642H23.1919C22.7009 9.69642 22.2991 9.29463 22.2991 8.80356C22.2991 8.31249 22.7009 7.91071 23.1919 7.91071H33.9821C34.4732 7.91071 34.875 8.31249 34.875 8.80356C34.875 9.29463 34.4732 9.69642 33.9821 9.69642Z" fill="#3F5753"/>
<path d="M19.8125 9.69642H14.5134C14.0223 9.69642 13.6205 9.29463 13.6205 8.80356C13.6205 8.31249 14.0223 7.91071 14.5134 7.91071H19.8125C20.3036 7.91071 20.7054 8.31249 20.7054 8.80356C20.7054 9.29463 20.3036 9.69642 19.8125 9.69642Z" fill="#3F5753"/>
<path d="M28.7544 26.067H26.3794C25.8884 26.067 25.4866 25.6652 25.4866 25.1741C25.4866 24.683 25.8884 24.2812 26.3794 24.2812H28.7544C29.2455 24.2812 29.6473 24.683 29.6473 25.1741C29.6473 25.6652 29.2455 26.067 28.7544 26.067Z" fill="#3F5753"/>
<path d="M44.0848 27.4197C43.5937 27.4197 43.1919 27.0179 43.1919 26.5268V15.8393C43.1919 14.6161 42.1964 13.6206 40.9732 13.6206H36.1919C35.7009 13.6206 35.2991 13.2188 35.2991 12.7277C35.2991 12.2366 35.7009 11.8348 36.1919 11.8348H40.9732C43.183 11.8348 44.9776 13.6295 44.9776 15.8393V26.5268C44.9776 27.0179 44.5759 27.4197 44.0848 27.4197Z" fill="#3F5753"/>
</g>
<defs>
<clipPath id="clip0_6257_491">
<rect width="50" height="50" fill="white"/>
</clipPath>
</defs>
</svg>
