<svg width="50" height="50" viewBox="0 0 50 50" fill="none" xmlns="http://www.w3.org/2000/svg">
<g opacity="0.6">
<path d="M49.1071 28.5357C49.1071 27.5624 48.4687 26.7008 47.5357 26.4196L39.3705 23.9598L33.7857 13.9999C32.7857 11.9866 30.7366 10.7142 28.491 10.7142H14.7678C12.3973 10.7142 10.2544 12.1294 9.32586 14.3124L8.40621 16.2187L6.04461 21.1116L4.66961 23.9598C2.308 25.558 0.892822 28.2232 0.892822 31.0758L0.892822 38.6473H6.04907C6.04907 38.6741 6.04907 38.7053 6.04907 38.7321C6.04907 41.6741 8.433 44.058 11.375 44.058C14.3169 44.058 16.7009 41.6741 16.7009 38.7321C16.7009 38.7053 16.7009 38.6785 16.7009 38.6473H32.7946C32.7946 38.6741 32.7946 38.7053 32.7946 38.7321C32.7946 41.6741 35.1785 44.058 38.1205 44.058C41.0625 44.058 43.4464 41.6741 43.4464 38.7321C43.4464 38.7053 43.4464 38.6785 43.4464 38.6473H49.125V28.5357H49.1071Z" fill="white"/>
<path d="M34.2098 14.7634H15.2455C15.2455 14.7634 13.2232 14.4955 11.3705 18.5446C10.5045 20.433 9.55804 22.3928 8.78125 23.9598H39.3661L34.2098 14.7634Z" fill="#DFFDF7"/>
<path d="M27.9285 21.366C27.4375 21.366 27.0357 20.9642 27.0357 20.4731C27.0357 19.9821 27.4375 19.5803 27.9285 19.5803C28.7723 19.5803 29.4643 18.8928 29.4643 18.0446C29.4643 17.1964 28.7768 16.5089 27.9285 16.5089C27.0803 16.5089 26.3928 17.1964 26.3928 18.0446C26.3928 18.5356 25.991 18.9374 25.5 18.9374C25.0089 18.9374 24.6071 18.5356 24.6071 18.0446C24.6071 16.2142 26.0982 14.7231 27.9285 14.7231C29.7589 14.7231 31.25 16.2142 31.25 18.0446C31.25 19.8749 29.7589 21.366 27.9285 21.366Z" fill="#37635F"/>
<path d="M15.0402 21.366C13.2098 21.366 11.7188 19.8749 11.7188 18.0446C11.7188 16.2142 13.2098 14.7231 15.0402 14.7231C15.5312 14.7231 15.933 15.1249 15.933 15.616C15.933 16.1071 15.5312 16.5089 15.0402 16.5089C14.1964 16.5089 13.5045 17.1964 13.5045 18.0446C13.5045 18.8928 14.192 19.5803 15.0402 19.5803C15.5312 19.5803 15.933 19.9821 15.933 20.4731C15.933 20.9642 15.5312 21.366 15.0402 21.366Z" fill="#37635F"/>
<path d="M4.66962 24.8527C4.54016 24.8527 4.40623 24.8259 4.28123 24.7634C3.8348 24.5491 3.65177 24.0134 3.86605 23.5714L8.51784 13.9241C9.57141 11.4464 12.0268 9.82141 14.7634 9.82141H28.4866C31.0803 9.82141 33.4107 11.2634 34.5714 13.5803L40.1473 23.5223C40.3884 23.9509 40.2366 24.4955 39.8035 24.7366C39.375 24.9777 38.8303 24.8259 38.5893 24.3928L33.0044 14.433C33.0044 14.433 32.991 14.4062 32.9821 14.3928C32.1294 12.6741 30.4062 11.6027 28.4866 11.6027H14.7634C12.7455 11.6027 10.933 12.8036 10.1428 14.6562L5.47319 24.3393C5.32141 24.6562 4.99998 24.8437 4.66962 24.8437V24.8527Z" fill="#37635F"/>
<path d="M18.4151 24.8526C17.9241 24.8526 17.5223 24.4508 17.5223 23.9598V10.9865C17.5223 10.4955 17.9241 10.0937 18.4151 10.0937C18.9062 10.0937 19.308 10.4955 19.308 10.9865V23.9598C19.308 24.4508 18.9062 24.8526 18.4151 24.8526Z" fill="#37635F"/>
<path d="M11.3705 44.9464C7.94191 44.9464 5.15173 42.1562 5.15173 38.7277C5.15173 35.2991 7.94191 32.5089 11.3705 32.5089C14.7991 32.5089 17.5892 35.2991 17.5892 38.7277C17.5892 42.1562 14.7991 44.9464 11.3705 44.9464ZM11.3705 34.2946C8.92852 34.2946 6.93745 36.2812 6.93745 38.7277C6.93745 41.1741 8.92405 43.1607 11.3705 43.1607C13.8169 43.1607 15.8035 41.1741 15.8035 38.7277C15.8035 36.2812 13.8169 34.2946 11.3705 34.2946Z" fill="#37635F"/>
<path d="M45.2857 28.9508C45.1607 28.0892 45.3839 26.9196 45.6785 25.8616L39.366 23.9598H4.66961C2.308 25.558 0.892822 28.2232 0.892822 31.0758L0.892822 38.6473H6.04907C6.09372 35.7455 8.45532 33.4062 11.3705 33.4062C14.2857 33.4062 16.6473 35.7455 16.6919 38.6473H32.7857C32.8303 35.7455 35.1919 33.4062 38.1071 33.4062C41.0223 33.4062 43.3839 35.7455 43.4285 38.6473H49.1071V31.3214C47.2544 30.7455 45.4285 29.9375 45.2857 28.9553V28.9508Z" fill="#73E0CF"/>
<path d="M38.1071 44.9464C34.6785 44.9464 31.8884 42.1562 31.8884 38.7277C31.8884 35.2991 34.6785 32.5089 38.1071 32.5089C41.5357 32.5089 44.3259 35.2991 44.3259 38.7277C44.3259 42.1562 41.5357 44.9464 38.1071 44.9464ZM38.1071 34.2946C35.6652 34.2946 33.6741 36.2812 33.6741 38.7277C33.6741 41.1741 35.6607 43.1607 38.1071 43.1607C40.5535 43.1607 42.5402 41.1741 42.5402 38.7277C42.5402 36.2812 40.5535 34.2946 38.1071 34.2946Z" fill="#37635F"/>
<path d="M49.1072 39.5356H43.4286C42.942 39.5356 42.5447 39.1428 42.5357 38.6562C42.5 36.2499 40.5134 34.2946 38.1072 34.2946C35.7009 34.2946 33.7143 36.2499 33.6786 38.6562C33.6697 39.1428 33.2723 39.5356 32.7857 39.5356H16.692C16.2054 39.5356 15.808 39.1428 15.7991 38.6562C15.7634 36.2499 13.7768 34.2946 11.3705 34.2946C8.96429 34.2946 6.97768 36.2499 6.94197 38.6562C6.93304 39.1428 6.53572 39.5356 6.04911 39.5356H0.892857C0.401786 39.5356 0 39.1339 0 38.6428L0 31.0714C0 27.9196 1.55804 24.9821 4.16964 23.2142C4.31697 23.116 4.49107 23.0624 4.66964 23.0624H39.3661C39.4554 23.0624 39.5402 23.0758 39.625 23.0982L47.7902 25.558C49.1116 25.9553 49.9955 27.1473 49.9955 28.5267V38.6383C49.9955 39.1294 49.5938 39.5312 49.1027 39.5312L49.1072 39.5356ZM44.2455 37.7499H48.2143V28.5312C48.2143 27.9464 47.8393 27.4419 47.2768 27.2723L39.2366 24.8482H4.95536C2.96875 26.2946 1.78571 28.6026 1.78571 31.0714L1.78571 37.7499H5.23214C5.70536 34.7901 8.29464 32.5089 11.3705 32.5089C14.4464 32.5089 17.0357 34.7901 17.5089 37.7499H31.9732C32.4464 34.7901 35.0357 32.5089 38.1116 32.5089C41.1875 32.5089 43.7768 34.7901 44.25 37.7499H44.2455Z" fill="#37635F"/>
<path d="M38.1071 41.5312C36.5624 41.5312 35.308 40.2767 35.308 38.7321C35.308 37.1874 36.5624 35.933 38.1071 35.933C39.6517 35.933 40.9062 37.1874 40.9062 38.7321C40.9062 40.2767 39.6517 41.5312 38.1071 41.5312ZM38.1071 37.7142C37.5491 37.7142 37.0937 38.1696 37.0937 38.7276C37.0937 39.2857 37.5491 39.741 38.1071 39.741C38.6651 39.741 39.1205 39.2857 39.1205 38.7276C39.1205 38.1696 38.6651 37.7142 38.1071 37.7142Z" fill="#37635F"/>
<path d="M11.3705 41.5312C9.82587 41.5312 8.57141 40.2767 8.57141 38.7321C8.57141 37.1874 9.82587 35.933 11.3705 35.933C12.9152 35.933 14.1696 37.1874 14.1696 38.7321C14.1696 39.2232 13.7678 39.6249 13.2768 39.6249C12.7857 39.6249 12.3839 39.2232 12.3839 38.7321C12.3839 38.1741 11.9286 37.7187 11.3705 37.7187C10.8125 37.7187 10.3571 38.1741 10.3571 38.7321C10.3571 39.2901 10.8125 39.7455 11.3705 39.7455C11.8616 39.7455 12.2634 40.1473 12.2634 40.6383C12.2634 41.1294 11.8616 41.5312 11.3705 41.5312Z" fill="#37635F"/>
</g>
</svg>
