<svg width="50" height="50" viewBox="0 0 50 50" fill="none" xmlns="http://www.w3.org/2000/svg">
<g opacity="0.6" clip-path="url(#clip0_6257_530)">
<path d="M39.9152 42.9018V39.1876H34.2634V42.9152" fill="#DFFDF7"/>
<path d="M34.2634 43.8081C33.7723 43.8081 33.3705 43.4063 33.3705 42.9152V39.1875C33.3705 38.6965 33.7723 38.2947 34.2634 38.2947H39.9107C40.4018 38.2947 40.8036 38.6965 40.8036 39.1875V42.9018C40.8036 43.3929 40.4018 43.7947 39.9107 43.7947C39.4197 43.7947 39.0179 43.3929 39.0179 42.9018V40.0804H35.1563V42.9152C35.1563 43.4063 34.7545 43.8081 34.2634 43.8081Z" fill="#3F5753"/>
<path d="M15.2813 18.2901V15.2991H9.63397V18.2991" fill="#DFFDF7"/>
<path d="M9.63395 19.192C9.14287 19.192 8.74109 18.7902 8.74109 18.2991V15.3036C8.74109 14.8125 9.14287 14.4107 9.63395 14.4107H15.2813C15.7723 14.4107 16.1741 14.8125 16.1741 15.3036V18.2946C16.1741 18.7857 15.7723 19.1875 15.2813 19.1875C14.7902 19.1875 14.3884 18.7857 14.3884 18.2946V16.1964H10.5268V18.2991C10.5268 18.7902 10.125 19.192 9.63395 19.192Z" fill="#3F5753"/>
<path d="M23.5447 47.3795H46.1161V44.9866C46.1161 44.0849 45.384 43.3527 44.4822 43.3527H31.1563" fill="#5BB5A7"/>
<path d="M46.1161 48.2723H23.5447C23.0536 48.2723 22.6518 47.8706 22.6518 47.3795C22.6518 46.8884 23.0536 46.4866 23.5447 46.4866H45.2232V44.9866C45.2232 44.5759 44.8884 44.2456 44.4822 44.2456H31.1563C30.6652 44.2456 30.2634 43.8438 30.2634 43.3527C30.2634 42.8616 30.6652 42.4598 31.1563 42.4598H44.4822C45.875 42.4598 47.0089 43.5938 47.0089 44.9866V47.3795C47.0089 47.8706 46.6072 48.2723 46.1161 48.2723Z" fill="#3F5753"/>
<path d="M7.66071 35.6116V22.2232C7.66071 20.125 9.3616 18.4241 11.4598 18.4241H14.5357C17.4911 18.4241 20.2232 19.9956 21.7053 22.5491L30.2321 37.2143C30.8348 38.2456 31.1473 39.4197 31.1473 40.6161C31.1473 44.3527 28.1205 47.3795 24.3839 47.3795H12.9598" fill="#8BF8E7"/>
<path d="M24.3929 48.2723H12.9688C12.4777 48.2723 12.0759 47.8705 12.0759 47.3795C12.0759 46.8884 12.4777 46.4866 12.9688 46.4866H24.3929C27.6295 46.4866 30.2634 43.8527 30.2634 40.6161C30.2634 39.5804 29.9866 38.558 29.4688 37.6652L20.942 23C19.6206 20.7277 17.1697 19.317 14.5402 19.317H11.4643C9.86162 19.317 8.55805 20.6205 8.55805 22.2232V35.6116C8.55805 36.1027 8.15627 36.5045 7.6652 36.5045C7.17412 36.5045 6.77234 36.1027 6.77234 35.6116V22.2232C6.77234 19.6339 8.87502 17.5312 11.4643 17.5312H14.5402C17.7991 17.5312 20.8438 19.2812 22.4822 22.1027L31.0089 36.7679C31.6875 37.9375 32.0491 39.2679 32.0491 40.6161C32.0491 44.8393 28.6161 48.2723 24.3929 48.2723Z" fill="#3F5753"/>
<path d="M10.1965 48.0848C13.6828 48.0848 16.509 45.2586 16.509 41.7723C16.509 38.286 13.6828 35.4598 10.1965 35.4598C6.71018 35.4598 3.88397 38.286 3.88397 41.7723C3.88397 45.2586 6.71018 48.0848 10.1965 48.0848Z" fill="#5BB5A7"/>
<path d="M10.1964 48.9777C6.22323 48.9777 2.99109 45.7455 2.99109 41.7723C2.99109 37.7991 6.22323 34.567 10.1964 34.567C14.1697 34.567 17.4018 37.7991 17.4018 41.7723C17.4018 45.7455 14.1697 48.9777 10.1964 48.9777ZM10.1964 36.3527C7.20984 36.3527 4.7768 38.7857 4.7768 41.7723C4.7768 44.7589 7.20984 47.192 10.1964 47.192C13.1831 47.192 15.6161 44.7589 15.6161 41.7723C15.6161 38.7857 13.1831 36.3527 10.1964 36.3527Z" fill="#3F5753"/>
<path d="M10.1965 44.9286C9.7054 44.9286 9.30362 44.5268 9.30362 44.0357C9.30362 43.5447 9.7054 43.1429 10.1965 43.1429C10.9509 43.1429 11.567 42.5268 11.567 41.7723C11.567 41.0179 10.9509 40.4018 10.1965 40.4018C9.44201 40.4018 8.82594 41.0179 8.82594 41.7723C8.82594 42.2634 8.42415 42.6652 7.93308 42.6652C7.44201 42.6652 7.04022 42.2634 7.04022 41.7723C7.04022 40.0313 8.4554 38.6161 10.1965 38.6161C11.9375 38.6161 13.3527 40.0313 13.3527 41.7723C13.3527 43.5134 11.9375 44.9286 10.1965 44.9286Z" fill="#3F5753"/>
<path d="M35.5268 38.9554V10.9777C35.5268 7.7054 32.8616 5.04022 29.5893 5.04022H23.8304C18.3036 5.04022 13.8036 9.54022 13.8036 15.067H10.6786C10.6786 7.81701 16.5804 1.91522 23.8304 1.91522H29.5893C34.5848 1.91522 38.6518 5.98219 38.6518 10.9777V38.9554H35.5268Z" fill="#5BB5A7"/>
<path d="M38.6518 39.8482H35.5268C35.0357 39.8482 34.6339 39.4464 34.6339 38.9554V10.9777C34.6339 8.19645 32.3705 5.93305 29.5893 5.93305H23.8303C18.7946 5.93305 14.6964 10.0313 14.6964 15.067C14.6964 15.5581 14.2946 15.9598 13.8036 15.9598H10.6786C10.1875 15.9598 9.78571 15.5581 9.78571 15.067C9.78571 7.32145 16.0848 1.02234 23.8303 1.02234H29.5893C35.0803 1.02234 39.5446 5.48662 39.5446 10.9777V38.9554C39.5446 39.4464 39.1428 39.8482 38.6518 39.8482ZM36.4196 38.0625H37.7589V10.9777C37.7589 6.47323 34.0937 2.80805 29.5893 2.80805H23.8303C17.3705 2.80805 12.0625 7.83037 11.6027 14.1741H12.9464C13.4018 8.56698 18.1116 4.14734 23.8303 4.14734H29.5893C33.3571 4.14734 36.4196 7.20984 36.4196 10.9777V38.0625Z" fill="#3F5753"/>
<path d="M33.8393 7.45093C33.5804 7.45093 33.3259 7.33932 33.1518 7.12503C32.8393 6.74557 32.8929 6.18307 33.2723 5.86611L35.2098 4.26789C35.5893 3.95539 36.1518 4.00896 36.4688 4.38843C36.7813 4.76789 36.7277 5.33039 36.3482 5.64735L34.4107 7.24557C34.2456 7.38396 34.0447 7.45093 33.8438 7.45093H33.8393Z" fill="#3F5753"/>
<path d="M24.2992 42.2188H22.6518C22.1608 42.2188 21.759 41.817 21.759 41.3259C21.759 40.8348 22.1608 40.433 22.6518 40.433H24.2992C24.7902 40.433 25.192 40.8348 25.192 41.3259C25.192 41.817 24.7902 42.2188 24.2992 42.2188Z" fill="#3F5753"/>
<path d="M27.3125 42.2232C27.0759 42.2232 26.8482 42.125 26.6831 41.9598C26.5179 41.7946 26.4197 41.5625 26.4197 41.3303C26.4197 41.2723 26.4286 41.2098 26.4375 41.1518C26.4509 41.0982 26.4688 41.0402 26.4911 40.9866C26.5134 40.933 26.5402 40.8795 26.5715 40.8348C26.6027 40.7857 26.6429 40.7366 26.6831 40.6964C26.8884 40.4911 27.1965 40.3928 27.4866 40.4553C27.5447 40.4643 27.6027 40.4821 27.6563 40.5045C27.7099 40.5268 27.759 40.5536 27.8081 40.5848C27.8572 40.6205 27.9018 40.6562 27.9465 40.6964C28.1116 40.8616 28.2054 41.0937 28.2054 41.3303C28.2054 41.567 28.1116 41.7946 27.9465 41.9598C27.7768 42.125 27.5491 42.2232 27.3125 42.2232Z" fill="#3F5753"/>
<path d="M17.2723 32.9018C22.2723 37.442 29.0447 35.1607 29.0447 35.1607L21.7098 22.5491C20.2232 19.9956 17.4911 18.4241 14.5402 18.4241C14.5402 18.4241 12.2723 28.3616 17.2723 32.9018Z" fill="#6FD3C3"/>
<path d="M25.009 36.6384C22.5268 36.6384 19.3795 36.0223 16.6742 33.5625C11.3483 28.7277 13.5715 18.6518 13.6697 18.2277C13.7634 17.8214 14.125 17.5312 14.5402 17.5312C17.7992 17.5312 20.8438 19.2812 22.4822 22.1027L29.817 34.7143C29.9509 34.9464 29.9777 35.2277 29.8795 35.4777C29.7813 35.7277 29.5804 35.9241 29.3304 36.0089C29.1831 36.058 27.4063 36.6384 25.009 36.6384ZM15.2724 19.3571C14.8884 21.6563 14.067 28.7902 17.8706 32.2411C21.2768 35.3304 25.6652 34.9643 27.6742 34.5804L20.9375 23C19.7411 20.942 17.6161 19.5893 15.2724 19.3571Z" fill="#3F5753"/>
<path d="M21.5357 29.4955C21.2232 29.4955 20.9152 29.3304 20.7545 29.0357C20.7455 29.0179 19.7321 27.192 18.6429 25.3929C18.1116 24.5179 17.3973 24.0134 16.8884 23.7455C16.4509 23.5134 16.2857 22.9732 16.5179 22.5402C16.75 22.1027 17.2902 21.9375 17.7232 22.1697C18.4286 22.5447 19.4286 23.2455 20.1696 24.4688C21.2768 26.2991 22.3036 28.1518 22.3125 28.1697C22.5536 28.6027 22.3973 29.1429 21.9643 29.3839C21.8259 29.4598 21.6786 29.4955 21.5313 29.4955H21.5357Z" fill="white"/>
</g>
<defs>
<clipPath id="clip0_6257_530">
<rect width="50" height="50" fill="white"/>
</clipPath>
</defs>
</svg>
