<svg width="50" height="50" viewBox="0 0 50 50" fill="none" xmlns="http://www.w3.org/2000/svg">
<g opacity="0.6">
<path d="M8.00446 11.2902V40.9822C8.00446 42.6161 11.0759 43.8929 14.8616 43.8929C18.6473 43.8929 21.7187 42.6161 21.7187 40.9822V11.2902H8H8.00446Z" fill="#5BB5A7"/>
<path d="M14.8616 44.7813C11.009 44.7813 7.11163 43.4732 7.11163 40.9777V11.2902C7.11163 10.7991 7.51342 10.3973 8.00449 10.3973H21.7232C22.2143 10.3973 22.6161 10.7991 22.6161 11.2902V40.9822C22.6161 43.4777 18.7143 44.7857 14.8661 44.7857L14.8616 44.7813ZM8.89735 12.1831V40.9822C8.89735 41.7857 11.2768 43 14.8616 43C18.4465 43 20.8259 41.7857 20.8259 40.9822V12.1831H8.89288H8.89735Z" fill="#37635F"/>
<path d="M8.00446 12.5134V23.7768C8.00446 25.2322 11.0759 26.4107 14.8616 26.4107C18.6473 26.4107 21.7187 25.2322 21.7187 23.7768V12.5134H8H8.00446Z" fill="#00C7B3"/>
<path d="M14.8616 27.3036C11.009 27.3036 7.11163 26.0938 7.11163 23.7768V12.5134C7.11163 12.0223 7.51342 11.6205 8.00449 11.6205H21.7232C22.2143 11.6205 22.6161 12.0223 22.6161 12.5134V23.7768C22.6161 26.0938 18.7143 27.3036 14.8661 27.3036H14.8616ZM8.89735 13.4063V23.7768C8.89735 24.2813 10.9866 25.5179 14.8616 25.5179C18.7366 25.5179 20.8259 24.2813 20.8259 23.7768V13.4063H8.89288H8.89735Z" fill="#37635F"/>
<path d="M18.0134 8.95089C18.0134 8.91518 18.0223 8.87946 18.0223 8.83928C18.0223 7.89286 16.6071 7.125 14.8571 7.125C13.1071 7.125 11.692 7.89286 11.692 8.83928C11.692 8.875 11.6964 8.91518 11.7009 8.95089C9.50001 9.38839 7.99554 10.2723 7.99554 11.2902C7.99554 12.7455 11.067 13.9241 14.8527 13.9241C18.6384 13.9241 21.7098 12.7455 21.7098 11.2902C21.7098 10.2723 20.2054 9.39286 18.0045 8.95089H18.0134Z" fill="#AEC8CE"/>
<path d="M14.8616 14.817C11.009 14.817 7.11163 13.6072 7.11163 11.2902C7.11163 9.91967 8.48663 8.81699 10.9152 8.21431C11.3304 7.04913 12.8884 6.23663 14.8616 6.23663C16.8349 6.23663 18.3929 7.0536 18.8081 8.21431C21.2366 8.81699 22.6116 9.91967 22.6116 11.2902C22.6116 13.6072 18.7143 14.817 14.8616 14.817ZM14.8616 8.01788C13.3973 8.01788 12.5893 8.63395 12.5893 8.83931C12.6429 9.3036 12.3393 9.73663 11.8795 9.82592C9.76788 10.2456 8.89288 10.9866 8.89288 11.2902C8.89288 11.7947 10.9822 13.0313 14.8572 13.0313C18.7322 13.0313 20.8215 11.7947 20.8215 11.2902C20.8215 10.9866 19.9465 10.25 17.8349 9.82592C17.3795 9.73663 17.067 9.30806 17.1206 8.84378C17.1206 8.84378 17.1206 8.81253 17.1206 8.80806C17.1206 8.63395 16.317 8.01788 14.8482 8.01788H14.8616Z" fill="#37635F"/>
<path d="M16.5982 20.7947H13.1295C12.6384 20.7947 12.2366 20.3929 12.2366 19.9018C12.2366 19.4108 12.6384 19.009 13.1295 19.009H16.5982C17.0893 19.009 17.4911 19.4108 17.4911 19.9018C17.4911 20.3929 17.0893 20.7947 16.5982 20.7947Z" fill="#37635F"/>
<path d="M16.5982 38.3036H13.1295C12.6384 38.3036 12.2366 37.9018 12.2366 37.4107C12.2366 36.9197 12.6384 36.5179 13.1295 36.5179H16.5982C17.0893 36.5179 17.4911 36.9197 17.4911 37.4107C17.4911 37.9018 17.0893 38.3036 16.5982 38.3036Z" fill="#37635F"/>
<path d="M14.8616 22.5313C14.3705 22.5313 13.9688 22.1295 13.9688 21.6384V18.1697C13.9688 17.6786 14.3705 17.2768 14.8616 17.2768C15.3527 17.2768 15.7545 17.6786 15.7545 18.1697V21.6384C15.7545 22.1295 15.3527 22.5313 14.8616 22.5313Z" fill="#37635F"/>
<path d="M28.9063 7.33038L25.9733 17.4822H32.3974L29.9643 28.4866L42.0804 13.9152H35.8706L37.9911 7.33038H28.9063Z" fill="#00C7B3"/>
<path d="M29.9643 29.3795C29.8304 29.3795 29.6965 29.3482 29.5715 29.2902C29.2009 29.1071 29.0045 28.6964 29.0938 28.2946L31.2858 18.375H25.9733C25.692 18.375 25.4286 18.2411 25.259 18.0179C25.0893 17.7946 25.0358 17.5045 25.1161 17.2321L28.0492 7.08036C28.1608 6.69643 28.509 6.4375 28.9063 6.4375H37.9911C38.2768 6.4375 38.5447 6.57589 38.7143 6.80357C38.884 7.03125 38.9286 7.33036 38.8438 7.60268L37.0983 13.0223H42.0804C42.4286 13.0223 42.7411 13.2232 42.8884 13.5357C43.0358 13.8482 42.9867 14.2187 42.7679 14.4866L30.6563 29.058C30.4822 29.2679 30.2277 29.3795 29.9688 29.3795H29.9643ZM27.1608 16.5893H32.3974C32.6697 16.5893 32.9242 16.7098 33.0938 16.9241C33.2634 17.1339 33.3259 17.4107 33.2679 17.6741L31.6295 25.0848L40.1742 14.808H35.8706C35.5849 14.808 35.317 14.6696 35.1474 14.442C34.9777 14.2143 34.9331 13.9152 35.0179 13.6429L36.7634 8.22321H29.5759L27.1608 16.5893Z" fill="#37635F"/>
<path d="M42.0805 40.6474C42.0805 42.4375 38.8305 43.8929 34.826 43.8929C30.8215 43.8929 27.5715 42.442 27.5715 40.6474V36.9465H42.0805V40.6474Z" fill="#53918C"/>
<path d="M34.826 44.7813C30.1831 44.7813 26.6786 43.0045 26.6786 40.6429V36.942C26.6786 36.4509 27.0804 36.0491 27.5715 36.0491H42.0804C42.5715 36.0491 42.9733 36.4509 42.9733 36.942V40.6429C42.9733 43 39.4688 44.7813 34.826 44.7813ZM28.4644 37.8393V40.6473C28.4644 41.6072 30.942 43 34.826 43C38.7099 43 41.1876 41.6072 41.1876 40.6473V37.8393H28.4644Z" fill="#37635F"/>
<path d="M34.826 40.192C38.8325 40.192 42.0805 38.7389 42.0805 36.9465C42.0805 35.154 38.8325 33.7009 34.826 33.7009C30.8195 33.7009 27.5715 35.154 27.5715 36.9465C27.5715 38.7389 30.8195 40.192 34.826 40.192Z" fill="#AEC8CE"/>
<path d="M34.826 41.0804C30.1831 41.0804 26.6786 39.3036 26.6786 36.942C26.6786 34.5804 30.1831 32.8036 34.826 32.8036C39.4688 32.8036 42.9733 34.5804 42.9733 36.942C42.9733 39.3036 39.4688 41.0804 34.826 41.0804ZM34.826 34.5938C30.942 34.5938 28.4644 35.9866 28.4644 36.9464C28.4644 37.9063 30.942 39.2991 34.826 39.2991C38.7099 39.2991 41.1876 37.9063 41.1876 36.9464C41.1876 35.9866 38.7099 34.5938 34.826 34.5938Z" fill="#37635F"/>
<path d="M31.0804 37.2902C30.9018 37.2902 30.7277 37.2188 30.6027 37.0938C30.4822 36.9688 30.4108 36.7991 30.4108 36.6206C30.4108 36.442 30.4822 36.2723 30.6027 36.1473C30.8527 35.8973 31.3036 35.8973 31.5536 36.1473C31.6786 36.2723 31.7501 36.4464 31.7501 36.6206C31.7501 36.7947 31.6786 36.9688 31.5536 37.0938C31.4286 37.2188 31.2545 37.2902 31.0804 37.2902Z" fill="#CDE4E8"/>
<path d="M33.6831 36.6964C33.509 36.6964 33.3349 36.625 33.2099 36.5C33.0849 36.375 33.0134 36.2053 33.0134 36.0268C33.0134 35.8482 33.0849 35.6786 33.2099 35.5536C33.3661 35.3973 33.5938 35.3259 33.8125 35.3705C33.8572 35.3795 33.8974 35.3929 33.942 35.4107C33.9822 35.4241 34.0179 35.4464 34.0536 35.4687C34.0938 35.4955 34.125 35.5223 34.1563 35.5536C34.1875 35.5848 34.2143 35.6205 34.2411 35.6562C34.2634 35.692 34.2857 35.7321 34.3036 35.7723C34.317 35.8125 34.3304 35.8527 34.3393 35.8973C34.3482 35.9375 34.3527 35.9821 34.3527 36.0268C34.3527 36.2009 34.2813 36.375 34.1563 36.5C34.125 36.5312 34.0938 36.558 34.0536 36.5848C34.0179 36.6071 33.9822 36.6295 33.942 36.6429C33.8974 36.6607 33.8572 36.6741 33.8125 36.683C33.7724 36.692 33.7277 36.6964 33.6831 36.6964Z" fill="#CDE4E8"/>
<path d="M13.3215 10.9866C13.3215 10.9866 13.8572 11.3527 14.9063 11.3527C15.9554 11.3527 16.5938 10.9866 16.5938 10.9866" fill="#AEC8CE"/>
<path d="M14.9108 12.2455C13.6518 12.2455 12.9509 11.8125 12.8215 11.7232C12.4152 11.4464 12.3081 10.8884 12.5849 10.4821C12.8572 10.0804 13.4018 9.97322 13.8081 10.2366C13.8438 10.2589 14.2099 10.4598 14.9063 10.4598C15.6697 10.4598 16.1474 10.2143 16.1518 10.2098C16.5804 9.96429 17.125 10.1161 17.3706 10.5402C17.6161 10.9688 17.4643 11.5134 17.0402 11.7589C16.9554 11.808 16.1563 12.2411 14.9063 12.2411L14.9108 12.2455Z" fill="#37635F"/>
</g>
</svg>
