<svg width="50" height="50" viewBox="0 0 50 50" fill="none" xmlns="http://www.w3.org/2000/svg">
<g opacity="0.6">
<path d="M17.7411 4.50002C17.7411 4.50002 20.1607 2.67859 25 2.67859C29.8393 2.67859 32.2589 4.50002 32.2589 4.50002V11.3304H17.7411V4.50002Z" fill="#DFFDF7"/>
<path d="M32.259 12.2232H17.7411C17.25 12.2232 16.8482 11.8214 16.8482 11.3303V4.49999C16.8482 4.21874 16.9777 3.95535 17.2054 3.78571C17.3125 3.70535 19.9241 1.78571 25 1.78571C30.0759 1.78571 32.6875 3.70535 32.7947 3.78571C33.0179 3.95535 33.1518 4.21874 33.1518 4.49999V11.3303C33.1518 11.8214 32.75 12.2232 32.259 12.2232ZM18.634 10.4375H31.3661V4.99553C30.567 4.5491 28.4331 3.57142 25 3.57142C21.567 3.57142 19.4241 4.54017 18.634 4.99106V10.4375Z" fill="#3F5753"/>
<path d="M42.0447 11.6205L37.7991 10.3437C29.4509 7.83033 20.5447 7.83033 12.1964 10.3437L7.95091 11.6205C5.92413 12.2321 4.53574 14.0937 4.53574 16.2098L4.53574 44.0937C4.53574 45.875 5.9777 47.3169 7.75895 47.3169H42.2277C44.0089 47.3169 45.4509 45.875 45.4509 44.0937V16.2098C45.4509 14.0937 44.0625 12.2277 42.0357 11.6205H42.0447Z" fill="#BAFAEE"/>
<path d="M42.2321 48.2143H7.76787C5.50001 48.2143 3.65179 46.3661 3.65179 44.0982L3.65179 16.2143C3.65179 13.6875 5.27679 11.4955 7.7009 10.7679L11.9464 9.49107C20.4866 6.91964 29.5223 6.91964 38.0625 9.49107L42.308 10.7679C44.7277 11.4955 46.3571 13.683 46.3571 16.2143V44.0982C46.3571 46.3661 44.5089 48.2143 42.2411 48.2143H42.2321ZM25 9.34821C20.7813 9.34821 16.558 9.96428 12.4554 11.2009L8.20983 12.4777C6.54912 12.9777 5.43304 14.4777 5.43304 16.2143L5.43304 44.0982C5.43304 45.3839 6.47769 46.4286 7.7634 46.4286H42.2321C43.5179 46.4286 44.5625 45.3839 44.5625 44.0982V16.2143C44.5625 14.4777 43.4464 12.9777 41.7857 12.4777L37.5402 11.2009C33.4375 9.96875 29.2143 9.34821 24.9955 9.34821H25Z" fill="#3F5753"/>
<path d="M28.0357 19.5H21.9688V47.3214H28.0357V19.5Z" fill="#DFFDF7"/>
<path d="M28.0313 48.2143H21.9643C21.4732 48.2143 21.0714 47.8125 21.0714 47.3214V19.5C21.0714 19.0089 21.4732 18.6071 21.9643 18.6071H28.0313C28.5223 18.6071 28.9241 19.0089 28.9241 19.5V47.3214C28.9241 47.8125 28.5223 48.2143 28.0313 48.2143ZM22.8572 46.4285H27.1384V20.3928H22.8572V46.4285Z" fill="#3F5753"/>
<path d="M32.4732 31.6786H42.1295V42.2902C42.1295 43.0759 41.4911 43.7188 40.7009 43.7188H33.9018C33.1161 43.7188 32.4732 43.0804 32.4732 42.2902V31.6786Z" fill="#DFFDF7"/>
<path d="M40.7009 44.6116H33.9018C32.6205 44.6116 31.5804 43.5714 31.5804 42.2902V31.6786C31.5804 31.1875 31.9821 30.7857 32.4732 30.7857H42.1295C42.6205 30.7857 43.0223 31.1875 43.0223 31.6786V42.2902C43.0223 43.5714 41.9821 44.6116 40.7009 44.6116ZM33.3661 32.5714V42.2902C33.3661 42.5848 33.6071 42.8259 33.9018 42.8259H40.7009C40.9955 42.8259 41.2366 42.5848 41.2366 42.2902V32.5714H33.3661Z" fill="#3F5753"/>
<path d="M33.808 9.34823C28.2813 8.23216 22.5982 8.16966 17.0536 9.17412C18.0536 13.6161 20.2768 17.9197 24.9956 19.5C24.9956 19.5 30.4152 16.4152 33.8036 9.34823H33.808Z" fill="#21AB8E"/>
<path d="M25 20.3929C24.9063 20.3929 24.808 20.3795 24.7188 20.3482C20.3661 18.8929 17.5 15.2009 16.1875 9.37501C16.1339 9.1384 16.1786 8.8884 16.3125 8.68751C16.4464 8.48661 16.6563 8.34376 16.8973 8.30358C22.5714 7.27233 28.317 7.33037 33.9866 8.47769C34.2545 8.53126 34.4866 8.70983 34.6072 8.95537C34.7322 9.2009 34.7322 9.49108 34.6116 9.74108C31.1429 16.9777 25.6697 20.1518 25.4375 20.2813C25.3036 20.3571 25.1473 20.3973 24.9955 20.3973L25 20.3929ZM18.1518 9.89287C19.3482 14.3616 21.6116 17.2589 24.8929 18.5134C26.0179 17.7723 29.75 15.0536 32.4732 10.0045C27.7188 9.17412 22.9107 9.1384 18.1518 9.89287Z" fill="#3F5753"/>
<path d="M25 19.5L18.4063 24.5446C18.4063 24.5446 12.6831 20.1786 13.6384 9.9375L17.7456 4.5C17.7456 4.5 17.5313 13.4777 25.0045 19.5H25Z" fill="#DFFDF7"/>
<path d="M18.4063 25.4419C18.2143 25.4419 18.0268 25.3794 17.8661 25.2589C17.6161 25.0669 11.7589 20.4687 12.75 9.85712C12.7634 9.69194 12.8259 9.53569 12.9241 9.40176L17.0313 3.96426C17.2634 3.65623 17.6741 3.53123 18.0357 3.66069C18.4018 3.79016 18.6429 4.13837 18.6339 4.52676C18.6339 4.61158 18.5357 13.1518 25.558 18.8125C25.7723 18.9866 25.8929 19.2455 25.8929 19.5178C25.8929 19.7902 25.7589 20.0491 25.5402 20.2143L18.9464 25.2589C18.7857 25.3794 18.5938 25.4419 18.4063 25.4419ZM14.5045 10.2723C13.8661 17.9643 17.1696 22.0937 18.4554 23.3839L23.5804 19.4598C18.8929 15.2321 17.4643 9.95087 17.0313 6.91962L14.5045 10.2678V10.2723Z" fill="#3F5753"/>
<path d="M25 19.5L31.5938 24.5446C31.5938 24.5446 37.317 20.1786 36.3616 9.9375L32.2545 4.5C32.2545 4.5 32.4688 13.4777 24.9955 19.5H25Z" fill="#DFFDF7"/>
<path d="M31.5938 25.442C31.4018 25.442 31.2098 25.3795 31.0536 25.2589L24.4598 20.2143C24.2411 20.0491 24.1116 19.7902 24.1071 19.5179C24.1071 19.2455 24.2277 18.9822 24.442 18.8125C31.4911 13.1339 31.3705 4.61162 31.3661 4.5268C31.3571 4.13841 31.5982 3.79019 31.9643 3.66073C32.3304 3.53573 32.7366 3.66073 32.9688 3.9643L37.0759 9.4018C37.1741 9.53573 37.2366 9.69198 37.25 9.85715C38.2411 20.4688 32.3839 25.067 32.1339 25.2589C31.9732 25.3795 31.7813 25.442 31.5938 25.442ZM26.4196 19.4643L31.5491 23.3884C32.8438 22.1027 36.1429 18.0223 35.4955 10.2723L32.9688 6.92412C32.5357 9.95983 31.1116 15.2366 26.4196 19.4643Z" fill="#3F5753"/>
<path d="M25 25.942C24.5089 25.942 24.1071 25.5402 24.1071 25.0491C24.1071 24.558 24.5089 24.1518 25 24.1518C25.4911 24.1518 25.8929 24.5447 25.8929 25.0402V25.0491C25.8929 25.5402 25.4911 25.942 25 25.942Z" fill="#3F5753"/>
<path d="M25 35.0268C24.5089 35.0268 24.1071 34.625 24.1071 34.1339C24.1071 33.6428 24.5089 33.2366 25 33.2366C25.4911 33.2366 25.8929 33.6294 25.8929 34.125V34.1339C25.8929 34.625 25.4911 35.0268 25 35.0268Z" fill="#3F5753"/>
<path d="M25 44.1071C24.5089 44.1071 24.1071 43.7053 24.1071 43.2143C24.1071 42.7232 24.5089 42.317 25 42.317C25.4911 42.317 25.8929 42.7098 25.8929 43.2053V43.2143C25.8929 43.7053 25.4911 44.1071 25 44.1071Z" fill="#3F5753"/>
<path d="M26.9464 10.3928H23.3973C23.0102 10.3928 22.6964 10.7066 22.6964 11.0937V11.9687C22.6964 12.3558 23.0102 12.6696 23.3973 12.6696H26.9464C27.3335 12.6696 27.6473 12.3558 27.6473 11.9687V11.0937C27.6473 10.7066 27.3335 10.3928 26.9464 10.3928Z" fill="#8BF8E7"/>
</g>
</svg>
