<svg width="50" height="50" viewBox="0 0 50 50" fill="none" xmlns="http://www.w3.org/2000/svg">
<g opacity="0.6">
<path d="M29.8616 30.4821C29.8616 30.4821 35.8616 36.4643 41.3974 35.8527C46.1429 35.3259 45.3616 31.1205 42.8081 30.1518C40.2545 29.183 34.0447 30.8839 30.4018 27.1652" fill="#00C7B3"/>
<path d="M40.5893 36.7902C34.9911 36.7902 29.4777 31.3571 29.2366 31.1161C28.8884 30.7679 28.8884 30.2054 29.2366 29.8527C29.5848 29.5045 30.1473 29.5045 30.5 29.8527C30.5581 29.9107 36.2634 35.5223 41.3036 34.9688C42.8616 34.7946 43.8259 34.1563 43.9465 33.2143C44.0625 32.317 43.4241 31.3393 42.5 30.9911C41.7902 30.7232 40.5581 30.6964 39.25 30.6696C36.2232 30.6071 32.4554 30.5312 29.7768 27.7902C29.4331 27.4375 29.4375 26.8705 29.7902 26.5268C30.1429 26.183 30.7098 26.1875 31.0536 26.5402C33.2232 28.7589 36.5893 28.8259 39.2902 28.8839C40.8214 28.9152 42.1429 28.942 43.1384 29.3214C44.8304 29.9643 45.942 31.7321 45.7232 33.442C45.4956 35.2455 43.9197 36.4777 41.509 36.7455C41.2054 36.7768 40.9018 36.7946 40.6027 36.7946L40.5893 36.7902Z" fill="#37635F"/>
<path d="M31.8527 32.1875C32.5 36.0848 38.7634 39.6116 30.4375 42.2143C26.6652 43.3928 18.3795 38.4286 17.7366 34.5268C17.0893 30.6295 19.7277 26.942 23.625 26.2991C27.5223 25.6518 31.2098 28.2902 31.8527 32.1875Z" fill="#00C7B3"/>
<path d="M29.1563 43.2812C26.933 43.2812 24.2768 42.1652 22.2902 40.942C19.2188 39.0536 17.1875 36.7098 16.8482 34.6741C16.4955 32.5536 16.9911 30.4241 18.2455 28.6741C19.4955 26.9241 21.3527 25.7678 23.4732 25.4196C25.5938 25.067 27.7232 25.5625 29.4732 26.817C31.2232 28.0714 32.3795 29.9241 32.7277 32.0446C32.8884 33.0223 33.5179 34.058 34.125 35.058C35.0625 36.6071 36.0357 38.2054 35.4152 39.8393C34.9018 41.1964 33.4018 42.2232 30.6964 43.067C30.2188 43.2143 29.6964 43.2812 29.1518 43.2812H29.1563ZM24.808 27.0893C24.4643 27.0893 24.1161 27.1161 23.7723 27.1741C22.1205 27.4464 20.6786 28.3482 19.7009 29.7098C18.7232 31.0714 18.3438 32.7277 18.6161 34.3795C18.8616 35.8661 20.6741 37.8482 23.2322 39.4196C25.8795 41.0491 28.6652 41.8304 30.1741 41.3571C32.2232 40.7143 33.4643 39.9687 33.7545 39.2009C34.067 38.3795 33.3572 37.2098 32.6072 35.9732C31.9107 34.8304 31.1964 33.6429 30.9777 32.3259C30.7054 30.6741 29.8036 29.2321 28.442 28.2545C27.3661 27.4866 26.1072 27.0848 24.808 27.0848V27.0893Z" fill="#37635F"/>
<path d="M15.8527 27.0491C15.8527 27.0491 10.0179 37.567 9.84822 41.3795C9.67858 45.192 14.4822 45.2857 15.808 43.3973C17.1339 41.509 17.7902 31.7277 18.9911 29.2947" fill="#00C7B3"/>
<path d="M13.0625 45.4955C12.5402 45.4955 12.009 45.4152 11.5045 45.2411C9.82145 44.6697 8.8661 43.2098 8.95092 41.3348C9.12949 37.3572 14.8259 27.0491 15.067 26.6116C15.3081 26.1786 15.8482 26.0223 16.2813 26.2634C16.7143 26.5045 16.8661 27.0447 16.6295 27.4777C15.0357 30.3527 10.8661 38.4598 10.7366 41.4152C10.6875 42.5134 11.1384 43.2322 12.0804 43.5536C13.1473 43.9152 14.5715 43.5982 15.0715 42.8839C15.6518 42.0536 16.2009 38.6429 16.6384 35.8973C17.1116 32.9509 17.5581 30.1652 18.1831 28.8973C18.4018 28.4554 18.9375 28.2768 19.3795 28.4911C19.8215 28.7098 20.0045 29.2456 19.7857 29.6875C19.2768 30.7143 18.8125 33.6161 18.4018 36.1786C17.7456 40.2589 17.2947 42.817 16.5313 43.9063C15.8259 44.9107 14.4643 45.4955 13.0581 45.4955H13.0625Z" fill="#37635F"/>
<path d="M35.9375 1.78128C33.6786 1.06699 31.2857 2.00449 29.942 3.95539C29.1205 5.14289 29 6.23217 29.3795 7.24556C27.4107 6.47771 25.0134 6.12503 22.1295 6.25449C20.8304 6.31253 19.6205 6.62949 18.5134 7.13842C18.4509 6.53574 18.2187 5.92414 17.7589 5.31253C16.1964 3.23664 13.3036 2.53128 10.9866 3.70539C7.86606 5.29021 7.05803 9.19199 9.06249 11.8572C9.54017 12.4911 10.0536 12.9241 10.5893 13.1831C11.6786 13.7054 12.3214 14.8304 12.1161 16.0179C11.8795 17.4063 11.8616 18.8482 12.0937 20.2679C13.3571 27.884 21.4241 32.6741 29.0446 29.442C34.3482 27.192 37.1607 21.4241 36.0491 15.7768C36.0045 15.5581 35.9598 15.3438 35.9062 15.1295C35.5402 13.6027 36.2679 12.0893 37.6339 11.3215C38.067 11.0759 38.4732 10.7143 38.8304 10.2188C40.9464 7.29467 39.7366 2.98217 35.9241 1.78128H35.9375Z" fill="#00C7B3"/>
<path d="M24.1027 31.3527C21.9241 31.3527 19.7723 30.8125 17.8259 29.7411C14.2857 27.7947 11.875 24.3929 11.2188 20.4107C10.9732 18.9197 10.9777 17.3884 11.2411 15.8616C11.3705 15.0982 10.9554 14.3438 10.2098 13.9822C9.52679 13.6563 8.90625 13.1205 8.35268 12.3884C7.22322 10.8884 6.81697 8.97323 7.24107 7.14287C7.66518 5.31251 8.88393 3.76787 10.5848 2.9018C13.2634 1.54466 16.6518 2.34823 18.4732 4.76787C18.7545 5.1384 18.9732 5.52233 19.1295 5.91965C20.0804 5.5893 21.0759 5.39733 22.0893 5.35269C24.3884 5.25001 26.4643 5.44644 28.2813 5.93751C28.3214 5.10715 28.6295 4.27233 29.2054 3.44198C30.808 1.12055 33.6205 0.11162 36.2054 0.92412C38.25 1.56698 39.7946 3.06698 40.4464 5.03126C41.0848 6.95983 40.7545 9.09376 39.567 10.7411C39.1429 11.3259 38.6429 11.7857 38.0804 12.0982C37.0402 12.683 36.5179 13.817 36.7813 14.9197C36.8348 15.1429 36.8839 15.3705 36.9286 15.6027C38.1339 21.7366 34.9687 27.9018 29.3973 30.2634C27.683 30.9911 25.8839 31.3527 24.1027 31.3527ZM13.3795 4.03126C12.7009 4.03126 12.0179 4.18305 11.3929 4.50001C10.1473 5.13394 9.29018 6.2143 8.97768 7.54912C8.67411 8.86608 8.96429 10.2366 9.77232 11.317C10.1473 11.817 10.5536 12.1741 10.9732 12.375C12.4509 13.0804 13.2634 14.6072 12.9955 16.1652C12.7679 17.4911 12.7589 18.8214 12.9777 20.1161C13.5491 23.5536 15.6295 26.4911 18.6875 28.1741C21.7455 29.8571 25.3973 30.0179 28.7009 28.6161C33.5 26.5804 36.2232 21.2545 35.1786 15.942C35.1384 15.7366 35.0938 15.5313 35.0446 15.3304C34.5938 13.442 35.4598 11.5179 37.2054 10.5402C37.5402 10.3527 37.8482 10.067 38.1161 9.69197C38.9687 8.50894 39.2054 6.97769 38.7455 5.5893C38.2768 4.17412 37.1563 3.09376 35.6652 2.62501C33.8304 2.04466 31.8259 2.78126 30.6741 4.45537C30.0625 5.34376 29.9152 6.12948 30.2098 6.92412C30.3348 7.25448 30.25 7.62501 30 7.87501C29.75 8.12055 29.3795 8.2009 29.0491 8.07144C27.1563 7.33037 24.8393 7.01787 22.1652 7.1384C21.0268 7.19198 19.9241 7.45983 18.8884 7.94198C18.625 8.06251 18.3214 8.04912 18.0714 7.90626C17.8214 7.7634 17.6518 7.50894 17.625 7.21876C17.5804 6.75001 17.3884 6.29912 17.0446 5.84376C16.1652 4.67412 14.7723 4.0268 13.375 4.0268L13.3795 4.03126Z" fill="#37635F"/>
<path d="M39.2668 42.6691C40.7743 39.4465 39.7732 35.794 37.0307 34.5111C34.2883 33.2282 30.843 34.8006 29.3354 38.0233C27.8279 41.2459 28.829 44.8983 31.5715 46.1813C34.3139 47.4642 37.7592 45.8917 39.2668 42.6691Z" fill="#00C7B3"/>
<path d="M33.5893 47.5224C32.7723 47.5224 31.9598 47.3527 31.192 46.9956C29.625 46.2635 28.4911 44.8661 27.9956 43.0715C27.5179 41.326 27.7054 39.4018 28.5223 37.6518C29.3393 35.9018 30.7009 34.5224 32.3438 33.7724C34.0402 33.0001 35.8393 32.9777 37.4063 33.7099C40.5893 35.201 41.7857 39.3929 40.0759 43.0581C38.7768 45.8393 36.1652 47.5268 33.5893 47.5268V47.5224ZM35 34.9599C34.3706 34.9599 33.7232 35.1027 33.0893 35.3929C31.8259 35.9688 30.7813 37.0358 30.1429 38.4063C29.5045 39.7724 29.3527 41.2635 29.7188 42.5983C30.0714 43.884 30.8616 44.8706 31.9509 45.3795C34.2411 46.451 37.1652 45.0715 38.4598 42.2992C39.7545 39.5268 38.9464 36.3974 36.6518 35.326C36.1339 35.0849 35.5714 34.9643 35 34.9643V34.9599Z" fill="#37635F"/>
<path d="M24.2214 48.3906C27.2084 47.8956 29.1583 44.6489 28.5766 41.139C27.9949 37.6291 25.1019 35.185 22.1149 35.68C19.128 36.1751 17.1781 39.4217 17.7598 42.9316C18.3415 46.4416 21.2345 48.8856 24.2214 48.3906Z" fill="#00C7B3"/>
<path d="M23.4509 49.3482C20.3215 49.3482 17.4777 46.7188 16.875 43.0804C16.5581 41.1741 16.8973 39.2679 17.8304 37.7188C18.7902 36.1206 20.259 35.0848 21.9688 34.8036C23.6741 34.5223 25.4018 35.0268 26.8259 36.2322C28.2098 37.4018 29.1429 39.0938 29.4598 41C30.1206 44.9911 27.8348 48.7054 24.3661 49.2813C24.0581 49.3304 23.7545 49.3572 23.4509 49.3572V49.3482ZM22.884 36.509C22.6741 36.509 22.4643 36.5268 22.2545 36.5625C21.0715 36.759 20.0447 37.4956 19.3572 38.6384C18.6429 39.8259 18.384 41.2991 18.634 42.7902C19.134 45.8081 21.5715 47.9286 24.0715 47.5134C26.567 47.0982 28.192 44.3081 27.692 41.2857C27.4465 39.7991 26.7277 38.4866 25.6652 37.5893C24.8259 36.8795 23.8572 36.509 22.8795 36.509H22.884Z" fill="#37635F"/>
<path d="M11.8214 9.75895C11.8214 9.75895 11.4643 6.61162 14.9598 7.39287Z" fill="#00C7B3"/>
<path d="M11.8214 10.6518C11.375 10.6518 10.9866 10.317 10.9375 9.86163C10.9152 9.68306 10.7723 8.08931 11.8884 7.08931C12.6563 6.40181 13.7545 6.20985 15.1607 6.52235C15.6429 6.62949 15.9464 7.10717 15.8393 7.58931C15.7322 8.07145 15.2545 8.37503 14.7723 8.26788C14.2188 8.14288 13.4732 8.07145 13.0848 8.41967C12.6473 8.81253 12.7143 9.65628 12.7143 9.6652C12.7679 10.1563 12.4152 10.5982 11.9286 10.6518C11.8929 10.6518 11.8616 10.6563 11.8259 10.6563L11.8214 10.6518Z" fill="#37635F"/>
<path d="M36.6875 6.72771C36.6875 6.72771 36.009 3.63396 32.9509 5.50003Z" fill="#00C7B3"/>
<path d="M36.6875 7.62056C36.2768 7.62056 35.9107 7.33931 35.817 6.92413C35.8125 6.90181 35.6027 6.08485 35.0581 5.85717C34.5804 5.65627 33.9018 5.96431 33.4197 6.26342C33 6.52235 32.4509 6.38842 32.192 5.96877C31.9331 5.54913 32.067 5.00002 32.4866 4.7411C33.7143 3.9911 34.817 3.81699 35.7634 4.22324C37.1429 4.81252 37.5179 6.3661 37.5581 6.5402C37.6652 7.02235 37.3572 7.50002 36.875 7.6027C36.8125 7.6161 36.7456 7.62502 36.6831 7.62502L36.6875 7.62056Z" fill="#37635F"/>
<path d="M12.2098 35.1965C12.2098 35.1965 12.1786 35.1965 12.1607 35.1965L9.83929 35.0715C9.34822 35.0447 8.96875 34.625 8.99554 34.134C9.02232 33.6429 9.44197 33.2634 9.93304 33.2902L12.2545 33.4152C12.7455 33.442 13.125 33.8616 13.0982 34.3527C13.0714 34.8304 12.6786 35.1965 12.2054 35.1965H12.2098Z" fill="#37635F"/>
<path d="M42.7054 44.4598C42.6295 44.4598 42.5536 44.4509 42.4822 44.433L39.0491 43.5402C38.5714 43.4152 38.2857 42.9286 38.4107 42.4509C38.5357 41.9732 39.0223 41.6875 39.5 41.8125L42.9331 42.7054C43.4107 42.8304 43.6964 43.317 43.5714 43.7946C43.4688 44.1964 43.1027 44.4643 42.7098 44.4643L42.7054 44.4598Z" fill="#37635F"/>
<path d="M38.2366 20C38.2054 20 38.1741 20 38.1429 19.9956L36.183 19.7947C35.692 19.7456 35.3348 19.3081 35.3839 18.817C35.433 18.3259 35.875 17.9688 36.3616 18.0179L38.3214 18.2188C38.8125 18.2679 39.1697 18.7054 39.1205 19.1965C39.0759 19.6563 38.6875 20 38.2322 20H38.2366Z" fill="#37635F"/>
<path d="M5.15627 12.4286C4.79912 12.4286 4.45984 12.2143 4.32591 11.8572C4.14734 11.3973 4.37501 10.8795 4.83484 10.7009L7.86609 9.52235C8.32591 9.34378 8.84376 9.57146 9.02234 10.0313C9.20091 10.4911 8.97323 11.009 8.51341 11.1875L5.48216 12.3661C5.37501 12.4063 5.26787 12.4286 5.16073 12.4286H5.15627Z" fill="#37635F"/>
<path d="M25.2054 22.3661L23.0402 19.9107C22.8795 19.7277 22.9464 19.4375 23.1741 19.3438L23.567 19.1831C24.6295 18.75 25.8125 18.7143 26.9018 19.0759L27.4241 19.25C27.6697 19.3304 27.75 19.6429 27.5714 19.8304L25.2009 22.3616L25.2054 22.3661Z" fill="#6ED5C5"/>
<path d="M25.2054 23.2589H25.192C24.942 23.2589 24.7009 23.1473 24.5357 22.9554L22.3706 20.5C22.1027 20.1964 22 19.7813 22.0938 19.3884C22.1875 18.9955 22.4643 18.6697 22.8393 18.5179L23.2322 18.3571C24.4911 17.8438 25.8974 17.7991 27.1875 18.2322L27.7099 18.4063C28.1161 18.5402 28.4197 18.8705 28.5268 19.2857C28.634 19.7009 28.5224 20.1339 28.2277 20.4464L25.8572 22.9777C25.6875 23.1563 25.4509 23.2589 25.2054 23.2589ZM24.2232 19.9018L25.2277 21.0402L26.3438 19.8438C25.6473 19.6652 24.9107 19.6875 24.2232 19.8973V19.9018Z" fill="#37635F"/>
<path d="M15.9509 42.0715C14.5938 37.6027 10.0357 40.2233 10.0134 40.2322C9.91966 40.6563 9.86163 41.0402 9.84377 41.375C9.67413 45.1875 14.4777 45.2813 15.8036 43.3929C15.9107 43.2411 16.0089 43.0402 16.1072 42.7947C16.0759 42.5625 16.0268 42.3215 15.9509 42.067V42.0715Z" fill="#00C7B3"/>
<path d="M13.0625 45.4956C12.5402 45.4956 12.009 45.4152 11.5045 45.2411C9.82145 44.6697 8.8661 43.2098 8.95092 41.3348C8.96878 40.9643 9.02681 40.5402 9.13842 40.0402C9.19199 39.7947 9.34824 39.5804 9.56699 39.4554C9.83038 39.3036 12.2143 38 14.3438 38.8482C15.5179 39.3125 16.3438 40.3125 16.7991 41.8081C16.884 42.0938 16.9465 42.3795 16.9866 42.6786C17.0045 42.8304 16.9866 42.9822 16.9286 43.125C16.7991 43.4464 16.6697 43.7009 16.5313 43.9018C15.8259 44.9063 14.4643 45.4911 13.0581 45.4911L13.0625 45.4956ZM10.8081 40.8348C10.7723 41.0536 10.75 41.25 10.7411 41.4152C10.692 42.5134 11.1429 43.2322 12.0848 43.5536C13.1518 43.9152 14.5759 43.5982 15.0759 42.8839C15.0982 42.8527 15.134 42.7902 15.1875 42.6831C15.1652 42.5625 15.134 42.4509 15.1027 42.3348C14.8081 41.3706 14.3482 40.7723 13.6965 40.5134C12.75 40.1384 11.5 40.5268 10.8125 40.8393L10.8081 40.8348Z" fill="#37635F"/>
<path d="M42.808 30.1518C42.6563 30.0938 42.4911 30.0447 42.317 30.0045C41.6697 30.8706 41.1607 32.5492 41.8839 35.7813C46.0848 35.0313 45.2723 31.0849 42.8125 30.1518H42.808Z" fill="#00C7B3"/>
<path d="M41.8795 36.6741C41.4688 36.6741 41.1027 36.3884 41.0089 35.9777C40.3571 33.0625 40.5536 30.875 41.5982 29.4732C41.808 29.192 42.1697 29.0581 42.5134 29.1384C42.7411 29.192 42.942 29.25 43.125 29.3215C44.7857 29.9509 45.8795 31.6384 45.7232 33.3259C45.5625 35.0313 44.1875 36.2813 42.0402 36.6652C41.9866 36.6741 41.933 36.6786 41.8839 36.6786L41.8795 36.6741ZM42.7277 31.0938C42.3839 31.9375 42.3348 33.1697 42.5759 34.6741C43.4018 34.3572 43.8795 33.8348 43.9464 33.1563C44.0223 32.3572 43.5 31.4956 42.7277 31.0893V31.0938Z" fill="#37635F"/>
<path d="M28.9777 16.0045C29.2588 16.0045 29.4866 15.7766 29.4866 15.4956C29.4866 15.2145 29.2588 14.9866 28.9777 14.9866C28.6966 14.9866 28.4688 15.2145 28.4688 15.4956C28.4688 15.7766 28.6966 16.0045 28.9777 16.0045Z" fill="#00C7B3"/>
<path d="M28.9777 16.8973C28.2054 16.8973 27.5759 16.2679 27.5759 15.4955C27.5759 14.7232 28.2054 14.0938 28.9777 14.0938C29.75 14.0938 30.3795 14.7232 30.3795 15.4955C30.3795 16.2679 29.75 16.8973 28.9777 16.8973ZM28.9777 15.1116C28.7634 15.1116 28.5938 15.2857 28.5938 15.4955C28.5938 15.7054 28.7679 15.8795 28.9777 15.8795C29.1875 15.8795 29.3616 15.7054 29.3616 15.4955C29.3616 15.2857 29.1875 15.1116 28.9777 15.1116Z" fill="#37635F"/>
<path d="M20.3348 17.0224C20.6159 17.0224 20.8438 16.7945 20.8438 16.5134C20.8438 16.2324 20.6159 16.0045 20.3348 16.0045C20.0538 16.0045 19.8259 16.2324 19.8259 16.5134C19.8259 16.7945 20.0538 17.0224 20.3348 17.0224Z" fill="#00C7B3"/>
<path d="M20.3348 17.9107C19.5625 17.9107 18.933 17.2813 18.933 16.509C18.933 15.7366 19.5625 15.1072 20.3348 15.1072C21.1072 15.1072 21.7366 15.7366 21.7366 16.509C21.7366 17.2813 21.1072 17.9107 20.3348 17.9107ZM20.3348 16.125C20.1205 16.125 19.9509 16.2991 19.9509 16.509C19.9509 16.7188 20.125 16.8929 20.3348 16.8929C20.5447 16.8929 20.7188 16.7188 20.7188 16.509C20.7188 16.2991 20.5447 16.125 20.3348 16.125Z" fill="#37635F"/>
<path d="M28.5759 41.1429C28.4821 40.567 28.317 40.0223 28.1071 39.5134C27.0714 38.25 25.5714 37.558 24.0357 37.808C21.5714 38.2143 19.9687 40.9152 20.4509 43.8393C20.8393 46.1875 22.4598 47.9643 24.3616 48.3572C27.2634 47.7813 29.1429 44.5893 28.5714 41.1384L28.5759 41.1429Z" fill="#00C7B3"/>
<path d="M24.3661 49.2545C24.3036 49.2545 24.2455 49.25 24.183 49.2366C21.8661 48.7545 20.0134 46.6474 19.5714 43.9866C19.3036 42.3661 19.5848 40.7456 20.3705 39.4241C21.183 38.0536 22.433 37.1697 23.8884 36.9286C25.683 36.6295 27.5179 37.384 28.7946 38.9465C28.8482 39.0134 28.8973 39.0893 28.9286 39.1741C29.1741 39.7724 29.3527 40.384 29.4509 40.9956C30.1027 44.9375 27.9464 48.5581 24.5357 49.2366C24.4777 49.25 24.4196 49.2545 24.3616 49.2545H24.3661ZM24.6607 38.6518C24.5 38.6518 24.3438 38.6652 24.183 38.692C23.2545 38.8438 22.4464 39.4286 21.9063 40.3393C21.3348 41.2991 21.1339 42.4911 21.3348 43.6965C21.6429 45.5581 22.8527 47.0402 24.3705 47.4465C26.6875 46.8661 28.1696 44.1518 27.6964 41.2902C27.625 40.8527 27.5 40.4152 27.3348 39.9822C26.5938 39.1295 25.6295 38.6563 24.6652 38.6563L24.6607 38.6518Z" fill="#37635F"/>
<path d="M39.2723 42.6741C39.7322 41.6965 39.9554 40.6741 39.9688 39.6965C39.6295 38.884 39.0625 38.192 38.2857 37.7456C36.125 36.4956 33.1697 37.567 31.6875 40.1295C30.4152 42.3304 30.6473 44.9152 32.1027 46.3974C34.7455 47.2634 37.8572 45.6965 39.2723 42.6786V42.6741Z" fill="#00C7B3"/>
<path d="M33.6161 47.5268C33.0134 47.5268 32.4107 47.4331 31.8259 47.2411C31.692 47.1964 31.567 47.1206 31.4688 47.0179C29.692 45.2143 29.4643 42.1964 30.9197 39.6786C31.7411 38.2545 32.9866 37.1831 34.4331 36.6607C35.9331 36.1206 37.4598 36.2277 38.7366 36.9643C39.6518 37.4956 40.3661 38.317 40.7991 39.3438C40.8482 39.4598 40.8706 39.5804 40.8706 39.7054C40.8527 40.8572 40.5893 41.9777 40.0893 43.0491C38.7947 45.817 36.2143 47.5268 33.625 47.5268H33.6161ZM32.5938 45.6072C34.7947 46.1965 37.2857 44.8081 38.4643 42.2947C38.8304 41.5179 39.0313 40.7009 39.0714 39.8706C38.7902 39.2857 38.3661 38.817 37.8393 38.5134C37.0268 38.0447 36.0313 37.9822 35.0357 38.3438C33.9866 38.7232 33.0714 39.5134 32.4643 40.5714C31.4732 42.2902 31.5357 44.3661 32.5938 45.6072Z" fill="#37635F"/>
<path d="M25.2054 22.3661C25.2054 22.3661 25.2054 26.2098 20.8438 25Z" fill="#00C7B3"/>
<path d="M22.3973 26.1295C21.8482 26.1295 21.25 26.0402 20.6027 25.8617C20.1295 25.7277 19.8482 25.2367 19.9822 24.7634C20.1116 24.2902 20.6072 24.009 21.0804 24.1429C22.2009 24.4554 23.0402 24.4108 23.567 24.0134C24.2857 23.4733 24.3081 22.375 24.3081 22.3617C24.317 21.875 24.7143 21.4777 25.2009 21.4777H25.2054C25.6965 21.4777 26.0938 21.875 26.0938 22.3661C26.0938 22.4465 26.0759 24.3438 24.6518 25.4242C24.0357 25.8929 23.2813 26.125 22.3929 26.125L22.3973 26.1295Z" fill="#37635F"/>
<path d="M25.2054 22.3661C25.2054 22.3661 26.1786 25 28.4687 24.0938Z" fill="#00C7B3"/>
<path d="M27.5447 25.1741C27.1339 25.1741 26.7411 25.0893 26.3661 24.9241C25.0089 24.317 24.4286 22.8393 24.3661 22.6741C24.1964 22.2098 24.433 21.6964 24.8929 21.5268C25.3527 21.3572 25.8661 21.5893 26.0402 22.0491C26.1384 22.308 26.5223 23.0402 27.0982 23.2947C27.4018 23.4286 27.7411 23.4197 28.1384 23.2589C28.5982 23.0804 29.1161 23.3036 29.2991 23.7634C29.4822 24.2232 29.2545 24.7411 28.7947 24.9241C28.3705 25.0893 27.9509 25.1741 27.5402 25.1741H27.5447Z" fill="#37635F"/>
</g>
</svg>
