<svg width="50" height="50" viewBox="0 0 50 50" fill="none" xmlns="http://www.w3.org/2000/svg">
<g opacity="0.6" clip-path="url(#clip0_6257_682)">
<path d="M2.60715 42.7545L43.7321 42.7545V36.0804H2.60715V42.7545Z" fill="#9FDECF"/>
<path d="M43.7321 43.6473H2.61161C2.12054 43.6473 1.71875 43.2455 1.71875 42.7545L1.71875 36.0804C1.71875 35.5893 2.12054 35.1875 2.61161 35.1875H43.7366C44.2277 35.1875 44.6295 35.5893 44.6295 36.0804V42.7545C44.6295 43.2455 44.2277 43.6473 43.7366 43.6473H43.7321ZM3.5 41.8616H42.8393V36.9732H3.50446V41.8616H3.5Z" fill="#3F5753"/>
<path d="M2.60715 37.4197L43.7321 37.4197V31.067L2.60715 31.067V37.4197Z" fill="#6FD3C3"/>
<path d="M43.7321 38.3081H2.61161C2.12054 38.3081 1.71875 37.9063 1.71875 37.4152L1.71875 31.0625C1.71875 30.5715 2.12054 30.1697 2.61161 30.1697H43.7366C44.2277 30.1697 44.6295 30.5715 44.6295 31.0625V37.4152C44.6295 37.9063 44.2277 38.3081 43.7366 38.3081H43.7321ZM3.5 36.5224H42.8393V31.9554H3.50446V36.5224H3.5Z" fill="#3F5753"/>
<path d="M47.3928 18.759V49.1072H43.7277V18.759C43.7277 17.7456 44.5491 16.9241 45.5625 16.9241C46.5759 16.9241 47.3973 17.7456 47.3973 18.759H47.3928Z" fill="#5BB5A7"/>
<path d="M47.3884 50H43.7232C43.2321 50 42.8304 49.5982 42.8304 49.1071V18.7589C42.8304 17.2545 44.0536 16.0312 45.558 16.0312C47.0625 16.0312 48.2857 17.2545 48.2857 18.7589V49.1071C48.2857 49.5982 47.8839 50 47.3929 50H47.3884ZM44.6161 48.2143H46.4955V18.7589C46.4955 18.2411 46.0759 17.817 45.5536 17.817C45.0312 17.817 44.6116 18.2366 44.6116 18.7589V48.2143H44.6161Z" fill="#3F5753"/>
<path d="M6.27678 26.1027L6.27678 49.1072H2.61161L2.61161 26.1027C2.61161 25.0893 3.43304 24.2679 4.44643 24.2679C5.45982 24.2679 6.28125 25.0893 6.28125 26.1027H6.27678Z" fill="#5BB5A7"/>
<path d="M6.27679 50H2.61161C2.12054 50 1.71875 49.5982 1.71875 49.1071L1.71875 26.1027C1.71875 24.5982 2.94196 23.375 4.44643 23.375C5.95089 23.375 7.17411 24.5982 7.17411 26.1027L7.17411 49.1071C7.17411 49.5982 6.77232 50 6.28125 50H6.27679ZM3.50446 48.2143H5.38393L5.38393 26.1027C5.38393 25.5848 4.96429 25.1607 4.44196 25.1607C3.91964 25.1607 3.5 25.5804 3.5 26.1027L3.5 48.2143H3.50446Z" fill="#3F5753"/>
<path d="M43.7321 24.2678V31.0625H33.0803C33.0803 31.0625 32.9286 25.5714 43.7321 24.2678Z" fill="#5BB5A7"/>
<path d="M43.7321 31.9554H33.0803C32.5982 31.9554 32.2009 31.5714 32.1875 31.0893C32.1786 30.8303 32.1428 24.7679 43.625 23.3839C43.8795 23.3571 44.1339 23.433 44.3259 23.6027C44.5178 23.7723 44.625 24.0134 44.625 24.2723V31.067C44.625 31.558 44.2232 31.9598 43.7321 31.9598V31.9554ZM34.1607 30.1696H42.8393V25.2902C36.4241 26.2812 34.6473 28.8125 34.1607 30.1696Z" fill="#3F5753"/>
<path d="M30.4598 37.4197V28.8215C30.4598 28.1831 30.9822 27.6697 31.6295 27.6697H32.2455C33.8036 27.6697 34.4598 29.759 34.4598 30.3974L35.5536 36.2411C35.6697 36.8572 35.1875 37.4241 34.5536 37.4241H30.4598V29.3125H6.27679V37.4241H29.4866" fill="#8BF8E7"/>
<path d="M34.5491 38.3081H30.4554C30.2768 38.3081 30.1116 38.2545 29.9688 38.1652C29.8304 38.2545 29.6607 38.3081 29.4822 38.3081H6.2768C5.78573 38.3081 5.38394 37.9063 5.38394 37.4152V29.3036C5.38394 28.8125 5.78573 28.4107 6.2768 28.4107H29.6072C29.7991 27.4777 30.6295 26.7723 31.6295 26.7723H32.2455C34.3616 26.7723 35.2947 29.2098 35.3482 30.2947L36.4286 36.067C36.5313 36.6206 36.3839 37.1831 36.0268 37.6161C35.6607 38.0536 35.125 38.3036 34.5536 38.3036L34.5491 38.3081ZM7.16966 36.5223H29.4866C29.5134 36.5223 29.5402 36.5223 29.567 36.5223V30.192H7.16966V36.5179V36.5223ZM31.3527 36.5223H34.5536C34.6072 36.5223 34.6384 36.5 34.6518 36.4777C34.6831 36.442 34.6741 36.4063 34.6741 36.3973L33.5804 30.5536C33.5714 30.5 33.567 30.4464 33.567 30.3884C33.567 30.0893 33.1072 28.5536 32.2455 28.5536H31.6295C31.4777 28.5536 31.3527 28.6697 31.3527 28.8125V36.5179V36.5223Z" fill="#3F5753"/>
<path d="M24.5759 34.2544C24.2946 34.2544 24.0178 34.1205 23.8437 33.875C23.558 33.4732 23.6562 32.9152 24.058 32.6294C25.8527 31.3661 25.8973 29.3794 25.8973 29.2991C25.9018 28.8125 26.3036 28.4152 26.7902 28.4152C26.7902 28.4152 26.7902 28.4152 26.7946 28.4152C27.2857 28.4152 27.683 28.8125 27.683 29.3036C27.683 29.4241 27.6518 32.2812 25.0848 34.0893C24.9286 34.2009 24.75 34.25 24.5714 34.25L24.5759 34.2544Z" fill="#3F5753"/>
<path d="M10.1429 34.2545C9.66964 34.2545 9.27679 33.8839 9.25 33.4063C9.22768 32.9152 9.60268 32.4955 10.0982 32.4688C10.1696 32.4688 17.2366 32.0714 20.4821 28.6875C20.8214 28.3304 21.3884 28.3214 21.7455 28.6607C22.1027 29 22.1116 29.567 21.7723 29.9241C18.0313 33.8259 10.5045 34.2411 10.1875 34.2545C10.1741 34.2545 10.1563 34.2545 10.1429 34.2545Z" fill="#3F5753"/>
</g>
<defs>
<clipPath id="clip0_6257_682">
<rect width="50" height="50" fill="white"/>
</clipPath>
</defs>
</svg>
