<svg width="50" height="50" viewBox="0 0 50 50" fill="none" xmlns="http://www.w3.org/2000/svg">
<g opacity="0.6" clip-path="url(#clip0_6257_707)">
<path d="M22.9821 14.8616C21.692 13.7188 19.7187 13.8348 18.5759 15.125L14.8705 19.3036C13.7277 20.5938 13.8437 22.567 15.1339 23.7098L15.3839 23.933C18.3125 26.5313 20.067 30.1518 20.5357 34.0402C20.9241 37.2679 22.4955 40.3705 25.2143 42.6295C30.3839 46.933 38.1027 46.6295 42.9018 41.9152C48.4286 36.4911 48.1295 27.625 42.4375 22.5714C39.9911 20.4018 36.9687 19.3036 33.9375 19.2411C29.8884 19.1607 26.0178 17.5491 22.9911 14.8571L22.9821 14.8616Z" fill="#4F9D91"/>
<path d="M42.4286 22.5714C39.9821 20.4018 36.9598 19.3036 33.9286 19.2455C29.8795 19.1652 26.0089 17.5536 22.9821 14.8616C21.692 13.7188 19.7187 13.8348 18.5759 15.125L14.8705 19.3036C13.7277 20.5938 13.8437 22.567 15.1339 23.7098L15.3839 23.933C15.3839 23.933 18.5134 25.692 22.442 23.5491C26.3705 21.4063 30.8795 22.5179 30.4821 24.2545C30.4509 24.3973 30.3973 24.558 30.3303 24.7277C29.4866 26.8929 31.2455 29.1607 33.5357 28.7768L33.8348 28.7277C35.6428 28.4241 37.2902 29.817 37.2902 31.6473C37.2902 32.8125 37.9732 33.8705 39.0357 34.3482L40.2589 34.9018C41.1339 35.2946 41.7678 36.0938 41.9509 37.0357L42.9018 41.9241C48.4286 36.5 48.1295 27.6339 42.4375 22.5804L42.4286 22.5714Z" fill="#5BB5A7"/>
<path d="M32.4196 42.2545C32.3661 42.2545 32.3125 42.25 32.2589 42.2411C30.7411 41.9643 29.3393 41.3438 28.1027 40.4063C26.6339 39.2947 25.5134 37.8036 24.8571 36.0938C24.6786 35.6339 24.9107 35.1161 25.3705 34.942C25.8304 34.7634 26.3482 34.9955 26.5223 35.4554C27.058 36.8527 27.9777 38.0759 29.1786 38.9822C30.192 39.75 31.3393 40.2545 32.5804 40.4822C33.067 40.5714 33.3884 41.0357 33.2991 41.5223C33.2187 41.9509 32.8437 42.2545 32.4241 42.2545H32.4196Z" fill="#79E7D5"/>
<path d="M33.6429 46.5357C30.4375 46.5357 27.2232 45.4687 24.6339 43.3125C21.8438 40.9911 20.0714 37.7366 19.6429 34.1429C19.192 30.3616 17.4643 26.9732 14.7857 24.5937L14.5357 24.3705C12.8795 22.9018 12.7277 20.3571 14.1964 18.7054L17.9018 14.5268C18.6116 13.7232 19.5938 13.25 20.6652 13.183C21.7411 13.1205 22.7679 13.4777 23.567 14.1875C26.5045 16.7946 30.1875 18.2723 33.942 18.3437C37.2902 18.4107 40.5134 19.6741 43.0179 21.8973C45.933 24.4866 47.6607 28.2054 47.7589 32.1027C47.8572 36.0536 46.3527 39.7634 43.5134 42.5446C40.8214 45.1875 37.2322 46.5268 33.6384 46.5268L33.6429 46.5357ZM20.9107 14.9687C20.8661 14.9687 20.8214 14.9687 20.7768 14.9687C20.183 15.0045 19.6384 15.2679 19.2411 15.7143L15.5357 19.8929C14.7188 20.8125 14.8036 22.2232 15.7232 23.0402L15.9732 23.2634C18.9777 25.9286 20.9107 29.7187 21.4152 33.933C21.7902 37.0714 23.3393 39.9152 25.7768 41.942C30.5759 45.9375 37.8214 45.6429 42.2679 41.2768C44.7455 38.8437 46.0625 35.6027 45.9777 32.1518C45.8929 28.7455 44.3839 25.5 41.8393 23.2366C39.6518 21.2946 36.8348 20.192 33.9152 20.1339C29.7366 20.0491 25.6473 18.4152 22.3929 15.5268C21.9822 15.1607 21.4643 14.9643 20.9152 14.9643L20.9107 14.9687Z" fill="#3F5753"/>
<path d="M6.92409 5.39732C6.57142 5.7991 6.3482 6.27232 6.23659 6.75892C6.11606 7.30357 5.71427 7.75892 5.18749 7.94196C4.71427 8.10714 4.27677 8.38839 3.91517 8.78571C2.79463 10.0223 2.87052 11.9955 4.08481 13.1384C5.36606 14.3437 7.37945 14.2455 8.54016 12.9375L15.6161 19.2187C16.558 20.0536 18.0223 20.058 18.8839 19.1429C19.7768 18.1964 19.7053 16.7054 18.7366 15.8437L11.5893 9.5C12.75 8.19196 12.6071 6.17857 11.2589 5.0491C9.97766 3.97767 8.00892 4.13839 6.91517 5.39732H6.92409Z" fill="#BAFAEE"/>
<path d="M17.2411 20.7232C16.4554 20.7232 15.6607 20.4464 15.0268 19.8839L8.54464 14.1295C7.92411 14.5759 7.18304 14.8348 6.39732 14.8705C5.29911 14.9196 4.26786 14.5357 3.47322 13.7857C1.89732 12.3036 1.79464 9.79018 3.25447 8.18304C3.70089 7.69197 4.26786 7.31697 4.89286 7.09822C5.125 7.01786 5.3125 6.80804 5.36607 6.56697C5.50893 5.91965 5.8125 5.31251 6.25 4.81251C7.66964 3.17411 10.1786 2.97768 11.8393 4.36608C12.6786 5.06697 13.183 6.05358 13.2634 7.1384C13.3214 7.92411 13.1518 8.6875 12.7857 9.35715L19.3393 15.1741C19.9911 15.75 20.3705 16.5491 20.4107 17.4196C20.4509 18.2902 20.1429 19.1161 19.5446 19.75C18.9375 20.3973 18.0982 20.7232 17.2455 20.7232H17.2411ZM8.54911 12.0446C8.76786 12.0446 8.97768 12.125 9.14286 12.2679L16.2143 18.5491C16.817 19.0848 17.7277 19.0759 18.2411 18.5268C18.5045 18.2455 18.6384 17.8839 18.625 17.5C18.6071 17.1161 18.442 16.7634 18.1518 16.5089L11.0045 10.1652C10.6339 9.83929 10.6027 9.27233 10.9286 8.90626C11.3304 8.45536 11.5268 7.87501 11.4821 7.27233C11.4375 6.66965 11.1563 6.12501 10.692 5.73661C9.79018 4.97768 8.37054 5.09376 7.59822 5.98661C7.35268 6.26786 7.19197 6.59376 7.11161 6.95536C6.92411 7.80358 6.30357 8.50447 5.48214 8.79018C5.13839 8.91072 4.82589 9.11608 4.58036 9.3884C3.78572 10.2634 3.84375 11.683 4.70089 12.4911C5.14286 12.9063 5.71875 13.1161 6.32143 13.0938C6.92411 13.067 7.47768 12.8036 7.87947 12.3527C8.03572 12.1741 8.25893 12.067 8.49554 12.0536C8.51339 12.0536 8.53125 12.0536 8.54911 12.0536V12.0446Z" fill="#3F5753"/>
</g>
<defs>
<clipPath id="clip0_6257_707">
<rect width="50" height="50" fill="white"/>
</clipPath>
</defs>
</svg>
