<svg width="50" height="50" viewBox="0 0 50 50" fill="none" xmlns="http://www.w3.org/2000/svg">
<g opacity="0.6" clip-path="url(#clip0_6257_719)">
<path d="M38.5312 3.01788H4.54463C3.71373 3.01788 3.04016 3.69145 3.04016 4.52235V42.9018C3.04016 43.7327 3.71373 44.4063 4.54463 44.4063H38.5312C39.3621 44.4063 40.0357 43.7327 40.0357 42.9018V4.52235C40.0357 3.69145 39.3621 3.01788 38.5312 3.01788Z" fill="#DFFDF7"/>
<path d="M38.5312 45.3036H4.54463C3.2232 45.3036 2.14731 44.2277 2.14731 42.9062V4.52232C2.14731 3.20089 3.2232 2.125 4.54463 2.125H38.5312C39.8527 2.125 40.9286 3.20089 40.9286 4.52232V42.9062C40.9286 44.2277 39.8527 45.3036 38.5312 45.3036ZM4.54463 3.91071C4.20981 3.91071 3.93302 4.18304 3.93302 4.52232V42.9062C3.93302 43.2411 4.20534 43.5179 4.54463 43.5179H38.5312C38.8661 43.5179 39.1428 43.2455 39.1428 42.9062V4.52232C39.1428 4.1875 38.8705 3.91071 38.5312 3.91071H4.54463Z" fill="#3F5753"/>
<path d="M35.4955 14.3259H7.58035V33.9018H35.4955V14.3259Z" fill="#37635F"/>
<path d="M35.4955 34.7947H7.58036C7.08929 34.7947 6.6875 34.3929 6.6875 33.9018V14.3259C6.6875 13.8348 7.08929 13.433 7.58036 13.433H35.4955C35.9866 13.433 36.3884 13.8348 36.3884 14.3259V33.9018C36.3884 34.3929 35.9866 34.7947 35.4955 34.7947ZM8.47321 33.0089H34.6027V15.2188H8.47321V33.0089Z" fill="#3F5753"/>
<path d="M35.9955 6.52234H26.0178V10.9777H35.9955V6.52234Z" fill="#4F9D91"/>
<path d="M35.9911 11.8705H26.0134C25.5223 11.8705 25.1205 11.4687 25.1205 10.9777V6.52231C25.1205 6.03124 25.5223 5.62946 26.0134 5.62946H35.9911C36.4821 5.62946 36.8839 6.03124 36.8839 6.52231V10.9777C36.8839 11.4687 36.4821 11.8705 35.9911 11.8705ZM26.9062 10.0848H35.0982V7.41517H26.9062V10.0848Z" fill="#37635F"/>
<path d="M10.75 44.4107H4.32587V46.9821H10.75V44.4107Z" fill="#46605B"/>
<path d="M10.75 47.875H4.32587C3.8348 47.875 3.43301 47.4732 3.43301 46.9821V44.4107C3.43301 43.9196 3.8348 43.5178 4.32587 43.5178H10.75C11.241 43.5178 11.6428 43.9196 11.6428 44.4107V46.9821C11.6428 47.4732 11.241 47.875 10.75 47.875ZM5.21873 46.0892H9.85712V45.3035H5.21873V46.0892Z" fill="#3F5753"/>
<path d="M38.6071 44.4107H32.183V46.9821H38.6071V44.4107Z" fill="#46605B"/>
<path d="M38.6071 47.875H32.183C31.6919 47.875 31.2902 47.4732 31.2902 46.9821V44.4107C31.2902 43.9196 31.6919 43.5178 32.183 43.5178H38.6071C39.0982 43.5178 39.5 43.9196 39.5 44.4107V46.9821C39.5 47.4732 39.0982 47.875 38.6071 47.875ZM33.0759 46.0892H37.7143V45.3035H33.0759V46.0892Z" fill="#3F5753"/>
<path d="M9.31249 10.9777C10.5428 10.9777 11.5402 9.98033 11.5402 8.75002C11.5402 7.5197 10.5428 6.52234 9.31249 6.52234C8.08217 6.52234 7.08481 7.5197 7.08481 8.75002C7.08481 9.98033 8.08217 10.9777 9.31249 10.9777Z" fill="#DFFDF7"/>
<path d="M9.31249 11.8705C7.59374 11.8705 6.19196 10.4687 6.19196 8.74999C6.19196 7.03124 7.58928 5.62946 9.31249 5.62946C11.0357 5.62946 12.433 7.02678 12.433 8.74999C12.433 10.4732 11.0357 11.8705 9.31249 11.8705ZM9.31249 7.41517C8.57588 7.41517 7.97767 8.01338 7.97767 8.74999C7.97767 9.4866 8.57588 10.0848 9.31249 10.0848C10.0491 10.0848 10.6473 9.4866 10.6473 8.74999C10.6473 8.01338 10.0491 7.41517 9.31249 7.41517Z" fill="#3F5753"/>
<path d="M18.0937 10.9776C19.324 10.9776 20.3214 9.98027 20.3214 8.74996C20.3214 7.51964 19.324 6.52228 18.0937 6.52228C16.8634 6.52228 15.8661 7.51964 15.8661 8.74996C15.8661 9.98027 16.8634 10.9776 18.0937 10.9776Z" fill="#DFFDF7"/>
<path d="M18.0937 11.8661C17.2946 11.8661 16.4955 11.5625 15.8884 10.9553C14.6741 9.74105 14.6741 7.75891 15.8884 6.54463C17.1027 5.33034 19.0848 5.33034 20.2991 6.54463C20.8884 7.13391 21.2143 7.91963 21.2143 8.74998C21.2143 9.58034 20.8884 10.3661 20.2991 10.9553C19.6919 11.5625 18.8928 11.8661 18.0937 11.8661ZM18.0937 7.41516C17.75 7.41516 17.4107 7.54463 17.1518 7.80355C16.6339 8.32588 16.6339 9.16963 17.1518 9.69195C17.6741 10.2098 18.5178 10.2098 19.0402 9.69195C19.2902 9.44195 19.433 9.10713 19.433 8.74998C19.433 8.39284 19.2946 8.05802 19.0402 7.80802C18.7812 7.54909 18.4375 7.41963 18.0982 7.41963L18.0937 7.41516Z" fill="#3F5753"/>
<path d="M21.6786 30.8348C28.5 30.8348 34.192 28.3884 35.4955 25.1428V22.2991C35.25 21.6919 34.8527 21.116 34.3259 20.5759H9.03125C8.10267 21.5223 7.58035 22.5893 7.58035 23.7187C7.58035 27.6473 13.8929 30.8348 21.6786 30.8348Z" fill="#009081"/>
<path d="M21.6339 26.6072C26.4062 26.6072 30.3884 25.1563 31.2991 23.2322V21.5491C31.1294 21.192 30.8527 20.8482 30.4821 20.5268H12.7902C12.1428 21.0893 11.7768 21.7232 11.7768 22.3929C11.7768 24.7232 16.1919 26.6116 21.6384 26.6116L21.6339 26.6072Z" fill="#6ED5C5"/>
<path d="M35.4955 14.3259H7.58035V20.5759H35.4955V14.3259Z" fill="#DFFDF7"/>
<path d="M35.4955 21.4688H7.58036C7.08929 21.4688 6.6875 21.067 6.6875 20.5759V14.3259C6.6875 13.8348 7.08929 13.433 7.58036 13.433H35.4955C35.9866 13.433 36.3884 13.8348 36.3884 14.3259V20.5759C36.3884 21.067 35.9866 21.4688 35.4955 21.4688ZM8.47321 19.683H34.6027V15.2188H8.47321V19.683Z" fill="#3F5753"/>
<path d="M32.183 18.3348H11.5268C11.0357 18.3348 10.6339 17.9331 10.6339 17.442C10.6339 16.9509 11.0357 16.5491 11.5268 16.5491H32.183C32.6741 16.5491 33.0759 16.9509 33.0759 17.442C33.0759 17.9331 32.6741 18.3348 32.183 18.3348Z" fill="#3F5753"/>
<path d="M35.4955 34.7947H7.58036C7.08929 34.7947 6.6875 34.3929 6.6875 33.9018V14.3259C6.6875 13.8348 7.08929 13.433 7.58036 13.433H35.4955C35.9866 13.433 36.3884 13.8348 36.3884 14.3259V33.9018C36.3884 34.3929 35.9866 34.7947 35.4955 34.7947ZM8.47321 33.0089H34.6027V15.2188H8.47321V33.0089Z" fill="#3F5753"/>
</g>
<defs>
<clipPath id="clip0_6257_719">
<rect width="50" height="50" fill="white"/>
</clipPath>
</defs>
</svg>
