<svg width="50" height="50" viewBox="0 0 50 50" fill="none" xmlns="http://www.w3.org/2000/svg">
<g opacity="0.6">
<path d="M9.90625 9.98663V41.8036C9.90625 45.0491 16.2366 47.6831 24.0446 47.6831C31.8527 47.6831 38.183 45.0536 38.183 41.8036V34.4822C38.183 34.4822 39.6786 29.4777 45.7589 25.6652C45.8884 25.5849 46.0089 25.5045 46.125 25.4241C46.3705 25.2545 46.4196 24.9465 46.2366 24.7232L43.7946 21.7054L42.8973 21.6206C41.8661 22.4554 40.0268 22.8304 38.183 23V9.9911" fill="#79E7D5"/>
<path d="M46.2366 24.7188L43.7946 21.7009C43.4509 21.6607 43.2589 21.6429 42.9152 21.6027C41.8884 22.4465 40.0402 22.8259 38.1875 22.9956V9.98663H16.192V26.4018C16.192 27.2857 16.9063 28 17.7902 28C18.6741 28 19.3884 28.7143 19.3884 29.5982V35.6786C19.3884 36.1027 19.2188 36.5089 18.9196 36.8081L16.558 39.1697C15.933 39.7947 15.933 40.8081 16.558 41.4286L17.6563 42.5268C18.4107 43.2813 18.2277 44.5536 17.2857 45.0625L14.9821 46.3081C17.4375 47.1607 20.5982 47.6786 24.0491 47.6786C31.8571 47.6786 38.1875 45.0447 38.1875 41.7991V34.4777C38.1875 34.4777 39.683 29.4732 45.7634 25.6607C45.8929 25.5804 46.0134 25.5 46.1295 25.4197C46.375 25.25 46.4241 24.942 46.2411 24.7188H46.2366Z" fill="#6ED5C5"/>
<path d="M36.5045 27.9419C36.375 28.433 35.692 28.4732 35.4911 28.0044C35.0313 26.9375 34.5804 25.4375 34.7321 23.8794C35.0223 20.933 36.7634 23.5714 43.7946 21.6964C43.7946 21.6964 46.3795 24.1562 44.8393 24.0134C43.2991 23.8705 41.3036 25.3973 38.183 26.0268C37.192 26.2277 36.7277 27.1071 36.5089 27.9375L36.5045 27.9419Z" fill="#79E7D5"/>
<path d="M24.817 16.2411V21.7322C24.817 22.0625 24.9375 22.3795 25.1607 22.6206L26.067 23.6161C26.7054 24.3215 27.8571 24.1429 28.2545 23.2768L28.9509 21.7545C29.125 21.375 29.4643 21.0982 29.875 21.009L30.3929 20.8973C31 20.7634 31.4375 20.2277 31.4375 19.6027V18.4822C31.4375 18.134 31.2991 17.7991 31.058 17.5536L29.3884 15.8616" fill="#79E7D5"/>
<path d="M24.0446 15.8661C31.8531 15.8661 38.183 13.2338 38.183 9.98664C38.183 6.7395 31.8531 4.10718 24.0446 4.10718C16.2362 4.10718 9.90625 6.7395 9.90625 9.98664C9.90625 13.2338 16.2362 15.8661 24.0446 15.8661Z" fill="#5BB5A7"/>
<path d="M20.058 7.33485C21.2723 7.16967 22.6205 7.08038 24.0402 7.08038C29.4062 7.08038 33.7589 8.37949 33.7589 9.98217C33.7589 11.5848 29.4062 12.884 24.0402 12.884C18.6741 12.884 14.3214 11.5848 14.3214 9.98217C14.3214 9.2902 15.1339 8.65181 16.4955 8.15181" fill="#79E7D5"/>
<path fill-rule="evenodd" clip-rule="evenodd" d="M9.90625 9.09375C10.3994 9.09375 10.7991 9.4935 10.7991 9.98661V41.8036C10.7991 42.3032 11.039 42.8606 11.6433 43.4547C12.2507 44.0518 13.1755 44.6307 14.3903 45.136C16.8161 46.1449 20.2289 46.7902 24.0446 46.7902C27.8606 46.7902 31.2734 46.146 33.6991 45.1376C34.9139 44.6326 35.8386 44.0539 36.4459 43.4567C37.05 42.8626 37.2902 42.3046 37.2902 41.8036V34.4821C37.2902 34.3956 37.3028 34.3094 37.3276 34.2265L38.183 34.4821C37.3276 34.2265 37.3277 34.2261 37.3278 34.2257L37.3287 34.2225L37.3305 34.2168L37.3358 34.1997C37.3401 34.186 37.346 34.1675 37.3537 34.1445C37.3689 34.0984 37.391 34.0341 37.4206 33.953C37.4799 33.7909 37.5696 33.5617 37.6959 33.2777C37.9485 32.71 38.348 31.9221 38.9444 31.0134C40.1343 29.2005 42.1074 26.9078 45.2538 24.9281L43.3368 22.5589L43.1507 22.5413C42.5472 22.9452 41.819 23.2232 41.0758 23.4222C40.1899 23.6593 39.2146 23.8017 38.2648 23.8891C38.0149 23.9121 37.7668 23.8288 37.5813 23.6596C37.3958 23.4905 37.2902 23.251 37.2902 23V9.99107C37.2902 9.49796 37.6899 9.09821 38.183 9.09821C38.6761 9.09821 39.0759 9.49796 39.0759 9.99107V21.9991C39.6194 21.9229 40.1393 21.8243 40.614 21.6972C41.3775 21.4928 41.9587 21.2317 42.3355 20.9266C42.517 20.7796 42.7489 20.7097 42.9813 20.7316L43.8787 20.8165C44.1178 20.8391 44.3377 20.957 44.4887 21.1437L46.927 24.1571C46.9277 24.1579 46.9283 24.1587 46.929 24.1595C47.4608 24.8108 47.2801 25.7113 46.6325 26.1587C46.5083 26.2447 46.3758 26.3331 46.2316 26.4227C43.3165 28.2508 41.5112 30.357 40.4373 31.9933C39.8998 32.8122 39.5454 33.5138 39.3275 34.0035C39.2186 34.2483 39.144 34.4399 39.0977 34.5663C39.0896 34.5886 39.0823 34.6088 39.0759 34.627V41.8036C39.0759 42.9276 38.5247 43.9169 37.6979 44.73C36.8743 45.5399 35.7284 46.2279 34.3846 46.7865C31.6931 47.9054 28.0368 48.5759 24.0446 48.5759C20.0523 48.5759 16.396 47.9042 13.7046 46.7848C12.3608 46.2259 11.215 45.5378 10.3915 44.7282C9.56484 43.9156 9.0134 42.9268 9.0134 41.8036V9.98661C9.0134 9.4935 9.41314 9.09375 9.90625 9.09375Z" fill="#3F5753"/>
<path fill-rule="evenodd" clip-rule="evenodd" d="M11.6433 8.33474C11.0391 8.9288 10.7991 9.4865 10.7991 9.98662C10.7991 10.4867 11.0391 11.0444 11.6433 11.6385C12.2506 12.2356 13.1753 12.8144 14.3901 13.3196C16.8158 14.3283 20.2287 14.9732 24.0446 14.9732C27.8606 14.9732 31.2735 14.3283 33.6992 13.3196C34.914 12.8144 35.8387 12.2356 36.446 11.6385C37.0502 11.0444 37.2902 10.4867 37.2902 9.98662C37.2902 9.4865 37.0502 8.9288 36.446 8.33474C35.8387 7.73764 34.914 7.1588 33.6992 6.65362C31.2735 5.64491 27.8606 5.00001 24.0446 5.00001C20.2287 5.00001 16.8158 5.64491 14.3901 6.65362C13.1753 7.1588 12.2506 7.73764 11.6433 8.33474ZM13.7045 5.00479C16.3959 3.88556 20.0522 3.21429 24.0446 3.21429C28.0371 3.21429 31.6934 3.88556 34.3848 5.00479C35.7286 5.56359 36.8744 6.25167 37.6979 7.06139C38.5246 7.87414 39.0759 8.86316 39.0759 9.98662C39.0759 11.1101 38.5246 12.0991 37.6979 12.9118C36.8744 13.7216 35.7286 14.4096 34.3848 14.9684C31.6934 16.0877 28.0371 16.7589 24.0446 16.7589C20.0522 16.7589 16.3959 16.0877 13.7045 14.9684C12.3607 14.4096 11.2149 13.7216 10.3914 12.9118C9.56469 12.0991 9.0134 11.1101 9.0134 9.98662C9.0134 8.86316 9.56469 7.87414 10.3914 7.06139C11.2149 6.25167 12.3607 5.56359 13.7045 5.00479Z" fill="#3F5753"/>
<path fill-rule="evenodd" clip-rule="evenodd" d="M15.2634 13.7009C15.7565 13.7009 16.1563 14.1007 16.1563 14.5938V21.1786C16.1563 21.6717 15.7565 22.0715 15.2634 22.0715C14.7703 22.0715 14.3705 21.6717 14.3705 21.1786V14.5938C14.3705 14.1007 14.7703 13.7009 15.2634 13.7009Z" fill="#3F5753"/>
<path fill-rule="evenodd" clip-rule="evenodd" d="M15.2634 28.6741C15.7565 28.6741 16.1563 29.0739 16.1563 29.567V30.4866C16.1563 30.9797 15.7565 31.3795 15.2634 31.3795C14.7703 31.3795 14.3705 30.9797 14.3705 30.4866V29.567C14.3705 29.0739 14.7703 28.6741 15.2634 28.6741Z" fill="#3F5753"/>
<path fill-rule="evenodd" clip-rule="evenodd" d="M30.0402 36.3259C30.5333 36.3259 30.933 36.7257 30.933 37.2188V46.7099C30.933 47.203 30.5333 47.6027 30.0402 47.6027C29.5471 47.6027 29.1473 47.203 29.1473 46.7099V37.2188C29.1473 36.7257 29.5471 36.3259 30.0402 36.3259Z" fill="#3F5753"/>
<path fill-rule="evenodd" clip-rule="evenodd" d="M30.0402 31.634C30.5333 31.634 30.933 32.0337 30.933 32.5268V33.9554C30.933 34.4485 30.5333 34.8483 30.0402 34.8483C29.5471 34.8483 29.1473 34.4485 29.1473 33.9554V32.5268C29.1473 32.0337 29.5471 31.634 30.0402 31.634Z" fill="#3F5753"/>
<path fill-rule="evenodd" clip-rule="evenodd" d="M25.6741 15.4955C26.1672 15.4955 26.567 15.8953 26.567 16.3884V17.8839C26.567 18.377 26.1672 18.7768 25.6741 18.7768C25.181 18.7768 24.7812 18.377 24.7812 17.8839V16.3884C24.7812 15.8953 25.181 15.4955 25.6741 15.4955Z" fill="#3F5753"/>
<path fill-rule="evenodd" clip-rule="evenodd" d="M21.5446 44.3215C22.0377 44.3215 22.4375 44.7212 22.4375 45.2143V46.7099C22.4375 47.203 22.0377 47.6027 21.5446 47.6027C21.0515 47.6027 20.6518 47.203 20.6518 46.7099V45.2143C20.6518 44.7212 21.0515 44.3215 21.5446 44.3215Z" fill="#3F5753"/>
<path fill-rule="evenodd" clip-rule="evenodd" d="M34.4554 22.9955C34.4554 22.5024 34.8551 22.1027 35.3482 22.1027H38.183C38.6761 22.1027 39.0759 22.5024 39.0759 22.9955C39.0759 23.4886 38.6761 23.8884 38.183 23.8884H35.3482C34.8551 23.8884 34.4554 23.4886 34.4554 22.9955Z" fill="#3F5753"/>
<path fill-rule="evenodd" clip-rule="evenodd" d="M24.0402 7.97321C22.6569 7.97321 21.3491 8.06028 20.1784 8.21953C19.6898 8.286 19.2398 7.94378 19.1733 7.45517C19.1069 6.96656 19.4491 6.51658 19.9377 6.45011C21.1956 6.27901 22.5842 6.1875 24.0402 6.1875C26.7848 6.1875 29.3045 6.5186 31.1672 7.0747C32.0929 7.35104 32.9071 7.69773 33.5098 8.12313C34.0886 8.53162 34.6518 9.14654 34.6518 9.98214C34.6518 10.8177 34.0886 11.4327 33.5098 11.8412C32.9071 12.2666 32.0929 12.6132 31.1672 12.8896C29.3045 13.4457 26.7848 13.7768 24.0402 13.7768C21.2956 13.7768 18.7758 13.4457 16.9131 12.8896C15.9875 12.6132 15.1733 12.2666 14.5705 11.8412C13.9918 11.4327 13.4286 10.8177 13.4286 9.98214C13.4286 9.25926 13.8546 8.69893 14.329 8.3068C14.8106 7.90868 15.4579 7.58166 16.1878 7.31365C16.6507 7.14367 17.1637 7.38112 17.3337 7.84401C17.5037 8.3069 17.2662 8.81994 16.8033 8.98992C16.1715 9.22192 15.7318 9.46409 15.4667 9.68316C15.259 9.8549 15.2213 9.95664 15.2151 9.98147C15.2216 10.007 15.2695 10.1488 15.6002 10.3822C15.9813 10.6511 16.5906 10.9297 17.4239 11.1785C19.0791 11.6726 21.4187 11.9911 24.0402 11.9911C26.6617 11.9911 29.0013 11.6726 30.6564 11.1785C31.4897 10.9297 32.0991 10.6511 32.4801 10.3822C32.808 10.1508 32.858 10.0094 32.8651 9.98214C32.858 9.95484 32.808 9.81347 32.4801 9.58209C32.0991 9.31315 31.4897 9.03456 30.6564 8.78579C29.0013 8.29167 26.6617 7.97321 24.0402 7.97321ZM15.214 9.98745C15.2139 9.98745 15.214 9.98688 15.2142 9.98574C15.2141 9.98688 15.214 9.98745 15.214 9.98745Z" fill="#3F5753"/>
<path fill-rule="evenodd" clip-rule="evenodd" d="M27.9298 9.61772C28.1484 10.0598 27.9672 10.5953 27.5252 10.8138C26.9309 11.1076 25.8188 11.2947 24.1607 11.2947C23.1836 11.2947 22.2872 11.2356 21.677 11.1356C21.1904 11.0558 20.8606 10.5967 20.9403 10.11C21.0201 9.62343 21.4793 9.29362 21.9659 9.37339C22.445 9.45194 23.236 9.50895 24.1607 9.50895C25.7794 9.50895 26.5334 9.31207 26.7338 9.21303C27.1758 8.99449 27.7113 9.17568 27.9298 9.61772Z" fill="#3F5753"/>
</g>
</svg>
