<svg width="50" height="50" viewBox="0 0 50 50" fill="none" xmlns="http://www.w3.org/2000/svg">
<g opacity="0.6" clip-path="url(#clip0_6257_772)">
<path d="M24.25 11.6205C15.7946 11.6205 8.94197 14.3973 8.94197 17.817V40.8125C8.94197 44.2366 15.7946 47.0089 24.25 47.0089C32.7054 47.0089 39.558 44.2322 39.558 40.8125V17.817C39.558 14.3929 32.7054 11.6205 24.25 11.6205Z" fill="#A4B0BA"/>
<path d="M26.9955 42.6875C18.5402 42.6875 11.6875 39.9107 11.6875 36.4911V14.2812C9.95983 15.2857 8.94197 16.5045 8.94197 17.8214V40.817C8.94197 44.2411 15.7946 47.0134 24.25 47.0134C32.7054 47.0134 39.558 44.2366 39.558 40.817V40.0357C36.7902 41.6429 32.1964 42.6964 26.9911 42.6964L26.9955 42.6875Z" fill="#808F9B"/>
<path d="M39.558 23.3125C39.4687 23.3125 39.3795 23.317 39.2902 23.3348L25.9286 25.4687C24.9598 25.625 24.2545 26.375 24.2545 27.25V37.3214C24.2545 38.3214 25.1652 39.1339 26.2902 39.1339C27.4152 39.1339 28.3259 38.3214 28.3259 37.3214V32.7321C28.3259 31.7321 29.2366 30.9196 30.3616 30.9196H30.4241C31.5491 30.9196 32.4598 31.7321 32.4598 32.7321V33.7366C32.4598 34.7366 33.3705 35.5491 34.4955 35.5491H34.942C36.067 35.5491 36.9777 34.7366 36.9777 33.7366V30.375C36.9777 29.7188 37.375 29.1161 38.0178 28.7946L39.5536 28.0268V23.3125H39.558Z" fill="#73E0CF"/>
<path d="M26.2902 40.0313C24.6741 40.0313 23.3616 38.817 23.3616 37.3259V27.2813C23.3616 25.9375 24.3839 24.817 25.7902 24.5893L39.1518 22.4554C39.2723 22.4375 39.3884 22.4286 39.5089 22.4241C39.7634 22.4152 39.9955 22.5045 40.1696 22.6741C40.3437 22.8438 40.4509 23.0759 40.4509 23.317V28.0313C40.4509 28.3706 40.2589 28.6786 39.9554 28.8304L38.4196 29.5982C38.0848 29.7679 37.875 30.067 37.875 30.3795V33.7411C37.875 35.2322 36.5625 36.4465 34.9464 36.4465H34.5C32.8839 36.4465 31.5714 35.2322 31.5714 33.7411V32.7366C31.5714 32.2277 31.058 31.817 30.4286 31.817H30.3661C29.7366 31.817 29.2232 32.2277 29.2232 32.7366V37.3259C29.2232 38.817 27.9107 40.0313 26.2946 40.0313H26.2902ZM38.6652 24.3393L26.067 26.3527C25.5312 26.4375 25.1429 26.817 25.1429 27.2545V37.3259C25.1429 37.8348 25.6562 38.2456 26.2857 38.2456C26.9152 38.2456 27.4286 37.8348 27.4286 37.3259V32.7366C27.4286 31.2456 28.7411 30.0313 30.3571 30.0313H30.4196C32.0357 30.0313 33.3482 31.2456 33.3482 32.7366V33.7411C33.3482 34.25 33.8616 34.6607 34.4911 34.6607H34.9375C35.567 34.6607 36.0804 34.25 36.0804 33.7411V30.3795C36.0804 29.384 36.6696 28.4732 37.6161 28L38.6607 27.4777V24.3393H38.6652Z" fill="#37635F"/>
<path d="M15.933 23.5357L8.94643 19.3036V33.9331H11.2679C12.2723 33.9331 13.0893 33.2098 13.0893 32.3125V30.3438C13.0893 29.4509 13.9062 28.7232 14.9107 28.7232C15.9152 28.7232 16.7321 28 16.7321 27.1027V24.8706C16.7321 24.3348 16.433 23.8348 15.9375 23.5313L15.933 23.5357Z" fill="#73E0CF"/>
<path d="M11.2679 34.8214H8.94643C8.45536 34.8214 8.05357 34.4196 8.05357 33.9286V19.2991C8.05357 18.9777 8.22768 18.6786 8.50893 18.5223C8.79018 18.3661 9.13393 18.3705 9.41072 18.5357L16.3973 22.7679C17.1652 23.2321 17.625 24.0179 17.625 24.8705V27.1027C17.625 28.4866 16.4063 29.6161 14.9107 29.6161C14.4063 29.6161 13.9821 29.9509 13.9821 30.3437V32.3125C13.9821 33.6964 12.7634 34.8259 11.2679 34.8259V34.8214ZM9.83482 33.0357H11.2634C11.7679 33.0357 12.192 32.7009 12.192 32.308V30.3393C12.192 28.9554 13.4107 27.8259 14.9063 27.8259C15.4107 27.8259 15.8348 27.4911 15.8348 27.0982V24.8661C15.8348 24.6429 15.6964 24.4286 15.4688 24.2902L9.83482 20.8795V33.0312V33.0357Z" fill="#37635F"/>
<path d="M13.5179 14.4285C10.6964 15.5535 8.94643 17.116 8.94643 18.8437V22.991C11.7812 25.2499 17.5714 26.7991 24.2545 26.7991C30.9375 26.7991 36.7277 25.2499 39.5625 22.991V18.8437C39.5625 17.116 37.8125 15.5491 34.9911 14.4285C32.0491 13.4732 28.3214 12.9017 24.2545 12.9017C20.1875 12.9017 16.4598 13.4732 13.5179 14.4285Z" fill="#73E0CF"/>
<path d="M24.25 27.6919C17.5625 27.6919 11.4821 26.1607 8.38392 23.6919C8.16964 23.5223 8.0491 23.2634 8.0491 22.9955V18.8482C8.0491 16.7857 9.87053 14.9196 13.183 13.6027C13.2009 13.5937 13.2187 13.5893 13.2366 13.5848C16.4018 12.558 20.2098 12.0134 24.25 12.0134C28.2902 12.0134 32.0937 12.558 35.2634 13.5848C35.2812 13.5893 35.2991 13.5982 35.317 13.6027C38.6295 14.9241 40.4509 16.7857 40.4509 18.8482V22.9955C40.4509 23.2678 40.3259 23.5268 40.1161 23.6919C37.0179 26.1607 30.9375 27.6919 24.25 27.6919ZM9.83482 22.5491C12.7054 24.5982 18.2857 25.9062 24.25 25.9062C30.2143 25.9062 35.7946 24.5982 38.6652 22.5491V18.8437C38.6652 17.6027 37.1786 16.2678 34.683 15.2678C31.7411 14.3169 28.0357 13.7902 24.25 13.7902C20.4643 13.7902 16.7589 14.3125 13.817 15.2678C11.3214 16.2678 9.83482 17.6027 9.83482 18.8437V22.5491Z" fill="#37635F"/>
<path d="M39.558 17.8169C39.558 21.241 32.7053 24.0133 24.25 24.0133C18.9643 24.0133 14.308 22.9285 11.558 21.2812C9.90624 20.2901 8.94196 19.0982 8.94196 17.8169C8.94196 14.3928 15.7946 11.6205 24.25 11.6205C32.7053 11.6205 39.558 14.3973 39.558 17.8169Z" fill="#73E0CF"/>
<path d="M24.25 24.9107C19.0045 24.9107 14.0848 23.8437 11.0982 22.0535C8.58035 20.5446 8.0491 18.9196 8.0491 17.8214C8.0491 13.7812 15.0134 10.7321 24.25 10.7321C33.4866 10.7321 40.4509 13.7812 40.4509 17.8214C40.4509 21.8616 33.4866 24.9107 24.25 24.9107ZM24.25 12.5134C15.7545 12.5134 9.83482 15.308 9.83482 17.8169C9.83482 18.7143 10.6071 19.6741 12.0134 20.5178C14.7366 22.1473 19.308 23.125 24.25 23.125C32.7455 23.125 38.6652 20.3303 38.6652 17.8214C38.6652 15.3125 32.7455 12.5178 24.25 12.5178V12.5134Z" fill="#37635F"/>
<path d="M39.558 18.7098C39.067 18.7098 38.6652 18.308 38.6652 17.8169C38.6652 10.8794 32.1964 5.23658 24.25 5.23658C16.3036 5.23658 9.83482 10.8794 9.83482 17.8169C9.83482 18.308 9.43303 18.7098 8.94196 18.7098C8.45089 18.7098 8.0491 18.308 8.0491 17.8169C8.0491 9.8973 15.317 3.45087 24.25 3.45087C33.183 3.45087 40.4509 9.89283 40.4509 17.8169C40.4509 18.308 40.0491 18.7098 39.558 18.7098Z" fill="#37635F"/>
<path d="M26.7768 3.15173H21.7768C20.9903 3.15173 20.3527 3.78933 20.3527 4.57584V4.93745C20.3527 5.72396 20.9903 6.36156 21.7768 6.36156H26.7768C27.5633 6.36156 28.2009 5.72396 28.2009 4.93745V4.57584C28.2009 3.78933 27.5633 3.15173 26.7768 3.15173Z" fill="#8493A3"/>
<path d="M26.7768 7.25444H21.7768C20.5 7.25444 19.4598 6.21426 19.4598 4.93747V4.58033C19.4598 3.30355 20.5 2.26337 21.7768 2.26337H26.7768C28.0536 2.26337 29.0938 3.30355 29.0938 4.58033V4.93747C29.0938 6.21426 28.0536 7.25444 26.7768 7.25444ZM21.7813 4.04908C21.4866 4.04908 21.25 4.29015 21.25 4.58033V4.93747C21.25 5.23212 21.4911 5.46872 21.7813 5.46872H26.7813C27.0759 5.46872 27.3125 5.22765 27.3125 4.93747V4.58033C27.3125 4.28569 27.0714 4.04908 26.7813 4.04908H21.7813Z" fill="#37635F"/>
<path d="M14.2054 17.9598C13.9464 17.9598 13.6875 17.8482 13.5089 17.6295C13.2009 17.2455 13.2589 16.683 13.6429 16.375C15.5313 14.8482 19.5938 13.9018 24.25 13.9018C27.2277 13.9018 30.0491 14.2991 32.1875 15.0223C32.6563 15.1786 32.9063 15.6875 32.75 16.1518C32.5938 16.6205 32.0848 16.8705 31.6205 16.7143C29.6563 16.0536 27.0402 15.6875 24.25 15.6875C19.4732 15.6875 16.0446 16.7322 14.7679 17.7634C14.6027 17.8973 14.4063 17.9598 14.2054 17.9598Z" fill="white"/>
<path d="M24.25 47.9018C15.0134 47.9018 8.0491 44.8527 8.0491 40.8125V17.8169C8.0491 13.7768 15.0134 10.7277 24.25 10.7277C33.4866 10.7277 40.4509 13.7768 40.4509 17.8169V40.8125C40.4509 44.8527 33.4866 47.9018 24.25 47.9018ZM24.25 12.5134C15.7545 12.5134 9.83482 15.308 9.83482 17.8169V40.8125C9.83482 43.3214 15.7545 46.1161 24.25 46.1161C32.7455 46.1161 38.6652 43.3214 38.6652 40.8125V17.8169C38.6652 15.308 32.7455 12.5134 24.25 12.5134Z" fill="#37635F"/>
<path d="M8.94197 19.7366H7.49108C7.00001 19.7366 6.59822 19.3348 6.59822 18.8437C6.59822 18.3527 7.00001 17.9509 7.49108 17.9509H8.94197C9.43304 17.9509 9.83483 18.3527 9.83483 18.8437C9.83483 19.3348 9.43304 19.7366 8.94197 19.7366Z" fill="#37635F"/>
<path d="M41.0089 19.7366H39.558C39.067 19.7366 38.6652 19.3348 38.6652 18.8437C38.6652 18.3527 39.067 17.9509 39.558 17.9509H41.0089C41.5 17.9509 41.9018 18.3527 41.9018 18.8437C41.9018 19.3348 41.5 19.7366 41.0089 19.7366Z" fill="#37635F"/>
</g>
<defs>
<clipPath id="clip0_6257_772">
<rect width="50" height="50" fill="white"/>
</clipPath>
</defs>
</svg>
