<svg width="50" height="50" viewBox="0 0 50 50" fill="none" xmlns="http://www.w3.org/2000/svg">
<g opacity="0.6">
<path d="M25.7991 7.41077H31.3527V10.9509H25.7991C24.9688 10.9509 24.2946 10.2768 24.2946 9.44648V8.91523C24.2946 8.08487 24.9688 7.41077 25.7991 7.41077Z" fill="#70EBD8"/>
<path d="M31.3482 11.8438H25.7946C24.4732 11.8438 23.3973 10.7679 23.3973 9.44645V8.9152C23.3973 7.59378 24.4732 6.51788 25.7946 6.51788H31.3482C31.8393 6.51788 32.2411 6.91967 32.2411 7.41074V10.9509C32.2411 11.442 31.8393 11.8438 31.3482 11.8438ZM25.7946 8.3036C25.4598 8.3036 25.183 8.57592 25.183 8.9152V9.44645C25.183 9.78128 25.4554 10.0581 25.7946 10.0581H30.4554V8.3036H25.7946Z" fill="#3F5753"/>
<path d="M23.9063 43.442C23.4866 43.442 23.1161 43.1473 23.0313 42.7232C22.9375 42.2411 23.25 41.7679 23.7322 41.6741L27.183 40.9911C27.6652 40.8973 28.1384 41.2098 28.2322 41.692C28.3259 42.1741 28.0134 42.6473 27.5313 42.7411L24.0804 43.4241C24.0223 43.4375 23.9643 43.442 23.9063 43.442Z" fill="#3F5753"/>
<path d="M20.9643 39.7367C20.5893 39.7367 20.2411 39.5 20.1161 39.125C19.0491 35.9197 16.0089 33.7634 12.5625 33.7634C10.9598 33.7634 9.41072 34.2367 8.08929 35.1295C7.67857 35.4063 7.125 35.2992 6.84822 34.8884C6.57143 34.4777 6.67857 33.9242 7.08929 33.6474C8.70982 32.5536 10.6027 31.9733 12.5625 31.9733C16.7813 31.9733 20.5 34.6161 21.8125 38.5536C21.9688 39.0224 21.7143 39.5268 21.25 39.6831C21.1563 39.7143 21.0625 39.7277 20.9688 39.7277L20.9643 39.7367Z" fill="#3F5753"/>
<path d="M40.7634 37.3393C40.3527 37.3393 39.9866 37.058 39.8929 36.6384L34.1786 10.8839C34.0714 10.4107 33.6473 10.067 33.1607 10.067H31.8304C31.3393 10.067 30.9375 9.66518 30.9375 9.17411C30.9375 8.68304 31.3393 8.28125 31.8304 8.28125H33.1607C34.4955 8.28125 35.6295 9.19196 35.9197 10.4955L41.6339 36.25C41.7411 36.7321 41.4375 37.2098 40.9554 37.317C40.8884 37.3304 40.8259 37.3393 40.7589 37.3393H40.7634Z" fill="#3F5753"/>
<path d="M29.3438 43.683H16.2902V38.8214H34.3125L32.3973 41.9687C31.75 43.0312 30.5938 43.683 29.3482 43.683H29.3438Z" fill="#73E0CF"/>
<path d="M29.3438 44.5759H16.2902C15.7991 44.5759 15.3973 44.1741 15.3973 43.6831V38.8214C15.3973 38.3304 15.7991 37.9286 16.2902 37.9286H34.3125C34.6339 37.9286 34.933 38.1027 35.0893 38.3839C35.2455 38.6652 35.2411 39.0089 35.0714 39.2857L33.1563 42.4331C32.3527 43.7545 30.8929 44.5759 29.3438 44.5759ZM17.183 42.7902H29.3438C30.2723 42.7902 31.1473 42.2991 31.6295 41.5045L32.7188 39.7143H17.1786V42.7902H17.183Z" fill="#3F5753"/>
<path d="M36.0357 32.6384L33.6205 21.7545C33.3616 20.5893 34.1116 19.4375 35.2813 19.2054L36.8527 18.8929L40.1697 33.8304L38.6741 34.2366C37.5 34.5536 36.2991 33.8304 36.0357 32.6429V32.6384Z" fill="#73E0CF"/>
<path d="M38.1071 35.2009C37.5625 35.2009 37.0313 35.0536 36.5491 34.7634C35.8348 34.3304 35.3438 33.6474 35.1607 32.8304L32.7455 21.9465C32.567 21.1474 32.7143 20.3259 33.1652 19.6429C33.6116 18.9554 34.3036 18.4911 35.1071 18.3304L36.6786 18.0179C37.1518 17.9242 37.6205 18.2277 37.7232 18.7009L41.0402 33.6384C41.1429 34.1027 40.8616 34.567 40.4018 34.692L38.9063 35.0983C38.6429 35.1697 38.3705 35.2054 38.1071 35.2054V35.2009ZM36.1696 19.9331L35.4554 20.0759C35.125 20.1429 34.8438 20.3349 34.6607 20.6161C34.4777 20.8974 34.4152 21.2322 34.4911 21.5581L36.9063 32.442C36.9821 32.7768 37.183 33.0581 37.4732 33.2322C37.7679 33.4108 38.1071 33.4554 38.4375 33.3661L39.1116 33.1831L36.1696 19.9286V19.9331Z" fill="#3F5753"/>
<path d="M41.6786 36.3616C38.8884 36.3616 36.6295 38.625 36.6295 41.4107C36.6295 44.1965 38.8884 46.4599 41.6786 46.4599C44.4688 46.4599 46.7277 44.2009 46.7277 41.4107C46.7277 38.6206 44.4643 36.3616 41.6786 36.3616ZM41.6786 43.2009C40.692 43.2009 39.8929 42.4018 39.8929 41.4152C39.8929 40.4286 40.692 39.6295 41.6786 39.6295C42.6652 39.6295 43.4643 40.4286 43.4643 41.4152C43.4643 42.4018 42.6652 43.2009 41.6786 43.2009Z" fill="#62A9A2"/>
<path d="M41.6786 47.3527C38.4018 47.3527 35.7366 44.6875 35.7366 41.4107C35.7366 38.1339 38.4018 35.4688 41.6786 35.4688C44.9554 35.4688 47.6205 38.1339 47.6205 41.4107C47.6205 44.6875 44.9554 47.3527 41.6786 47.3527ZM41.6786 37.25C39.3839 37.25 37.5223 39.1161 37.5223 41.4063C37.5223 43.6964 39.3884 45.5625 41.6786 45.5625C43.9688 45.5625 45.8348 43.6964 45.8348 41.4063C45.8348 39.1161 43.9688 37.25 41.6786 37.25ZM41.6786 44.0893C40.2009 44.0893 39 42.8884 39 41.4107C39 39.933 40.2009 38.7321 41.6786 38.7321C43.1563 38.7321 44.3572 39.933 44.3572 41.4107C44.3572 42.8884 43.1563 44.0893 41.6786 44.0893ZM41.6786 40.5179C41.1875 40.5179 40.7857 40.9196 40.7857 41.4107C40.7857 41.9018 41.1875 42.3036 41.6786 42.3036C42.1697 42.3036 42.5714 41.9018 42.5714 41.4107C42.5714 40.9196 42.1697 40.5179 41.6786 40.5179Z" fill="#3F5753"/>
<path d="M12.7188 36.3616C9.92858 36.3616 7.66965 38.625 7.66965 41.4107C7.66965 44.1965 9.92858 46.4599 12.7188 46.4599C15.5089 46.4599 17.7679 44.2009 17.7679 41.4107C17.7679 38.6206 15.5045 36.3616 12.7188 36.3616ZM12.7188 43.2009C11.7322 43.2009 10.933 42.4018 10.933 41.4152C10.933 40.4286 11.7322 39.6295 12.7188 39.6295C13.7054 39.6295 14.5045 40.4286 14.5045 41.4152C14.5045 42.4018 13.7054 43.2009 12.7188 43.2009Z" fill="#62A9A2"/>
<path d="M12.7188 47.3527C9.44197 47.3527 6.77679 44.6875 6.77679 41.4107C6.77679 38.1339 9.44197 35.4688 12.7188 35.4688C15.9955 35.4688 18.6607 38.1339 18.6607 41.4107C18.6607 44.6875 15.9955 47.3527 12.7188 47.3527ZM12.7188 37.25C10.4241 37.25 8.56251 39.1161 8.56251 41.4063C8.56251 43.6964 10.4286 45.5625 12.7188 45.5625C15.0089 45.5625 16.875 43.6964 16.875 41.4063C16.875 39.1161 15.0089 37.25 12.7188 37.25ZM12.7188 44.0893C11.2411 44.0893 10.0402 42.8884 10.0402 41.4107C10.0402 39.933 11.2411 38.7321 12.7188 38.7321C14.1964 38.7321 15.3973 39.933 15.3973 41.4107C15.3973 42.8884 14.1964 44.0893 12.7188 44.0893ZM12.7188 40.5179C12.2277 40.5179 11.8259 40.9196 11.8259 41.4107C11.8259 41.9018 12.2277 42.3036 12.7188 42.3036C13.2098 42.3036 13.6116 41.9018 13.6116 41.4107C13.6116 40.9196 13.2098 40.5179 12.7188 40.5179Z" fill="#3F5753"/>
<path d="M37.1116 39.7143H26.7946C26.3036 39.7143 25.9018 39.3125 25.9018 38.8214C25.9018 38.3304 26.3036 37.9286 26.7946 37.9286H37.1116C37.6027 37.9286 38.0045 38.3304 38.0045 38.8214C38.0045 39.3125 37.6027 39.7143 37.1116 39.7143Z" fill="#3F5753"/>
</g>
</svg>
