<svg width="50" height="50" viewBox="0 0 50 50" fill="none" xmlns="http://www.w3.org/2000/svg">
<g opacity="0.6">
<path d="M21.3304 0.892883H26.3661C27.0759 0.892883 27.6518 1.46878 27.6518 2.1786V5.58931H20.0447V2.1786C20.0447 1.46878 20.6206 0.892883 21.3304 0.892883Z" fill="#5BB5A7"/>
<path d="M27.6563 6.48214H20.0491C19.5581 6.48214 19.1563 6.08036 19.1563 5.58929V2.17411C19.1518 0.977679 20.1295 0 21.3304 0H26.3661C27.5714 0 28.5491 0.977679 28.5491 2.17857V5.59375C28.5491 6.08482 28.1473 6.48661 27.6563 6.48661V6.48214ZM20.942 4.69643H26.7634V2.17411C26.7634 1.95536 26.5848 1.78125 26.3706 1.78125H21.3348C21.1161 1.78125 20.942 1.95536 20.942 2.17411V4.69643Z" fill="#3F5753"/>
<path d="M23.8482 5.54016C22.6697 5.54016 21.5402 6.0357 20.7456 6.90623L16.3393 11.7232C15.0268 13.1562 14.2322 14.9732 14.0536 16.8928C14.0089 17.3839 14.1697 17.875 14.4911 18.25C14.7813 18.5848 14.7857 19.0848 14.5 19.4241L14.2322 19.7455C14.0938 19.9107 14.0223 20.1161 14.0223 20.3303V27.1786C14.0223 27.433 14.1295 27.6741 14.3125 27.8437C14.6875 28.1875 14.7054 28.7768 14.3482 29.1428L14.2768 29.2187C14.1116 29.3884 14.0223 29.6161 14.0223 29.8527V32.7187C14.0223 32.9553 14.1161 33.183 14.2768 33.3527L14.4375 33.5223C14.7545 33.8527 14.7813 34.3661 14.4956 34.7232L14.2188 35.0669C14.0893 35.2277 14.0179 35.4286 14.0179 35.6339V44.9062C14.0179 47.2277 15.9018 49.1116 18.2232 49.1116H29.4688C31.7902 49.1116 33.6741 47.2277 33.6741 44.9062V35.6339C33.6741 35.4286 33.6027 35.2277 33.4732 35.0669L33.2098 34.7411C32.9197 34.375 32.9509 33.8527 33.2857 33.5223L33.4018 33.4107C33.5759 33.2411 33.6741 33.0044 33.6741 32.7634V29.8973C33.6741 29.6696 33.5893 29.4509 33.4331 29.2812L33.2411 29.0714C32.9331 28.7366 32.9197 28.2187 33.2143 27.8705L33.4598 27.5848C33.5982 27.4196 33.6741 27.2143 33.6741 27V20.4866C33.6741 20.2812 33.6027 20.0803 33.4732 19.9196L33.1473 19.5134C32.8839 19.183 32.8795 18.7143 33.1429 18.3839L33.2545 18.2411C33.5447 17.875 33.6786 17.4107 33.6384 16.9464C33.4732 15.0089 32.6697 13.1741 31.3482 11.7321L26.942 6.91516C26.1473 6.04463 25.0179 5.54909 23.8393 5.54909L23.8482 5.54016Z" fill="#DFFDF7"/>
<path d="M16.3438 11.7277C15.0313 13.1607 14.2366 14.9777 14.0581 16.8973C14.0134 17.3884 14.1741 17.8794 14.4955 18.2544C14.7857 18.5893 14.7902 19.0893 14.5045 19.4285L14.2366 19.75C14.0982 19.9152 14.0268 20.1205 14.0268 20.3348V27.183C14.0268 27.4375 14.1339 27.6785 14.317 27.8482C14.692 28.1919 14.7098 28.7812 14.3527 29.1473L14.2813 29.2232C14.1161 29.3928 14.0268 29.6205 14.0268 29.8571V32.7232C14.0268 32.9598 14.1206 33.1875 14.2813 33.3571L14.442 33.5268C14.7589 33.8571 14.7857 34.3705 14.5 34.7277L14.2232 35.0714C14.0938 35.2321 14.0223 35.433 14.0223 35.6384V44.9107C14.0223 47.2321 15.9063 49.1161 18.2277 49.1161H25.808C22.1741 48.4464 19.2143 47.4911 18.7902 45C18.0893 40.8839 20.0804 36.5312 18.7902 34.3348C17.5 32.1384 18.7902 29.0491 18.7902 29.0491C18.7902 29.0491 17.4241 24.9152 18.0045 23.1428C18.5848 21.3705 18.4063 20.1875 18.0357 17.3348C17.6652 14.4821 20.75 6.91962 20.75 6.91962L16.3438 11.7366V11.7277Z" fill="#5BB5A7"/>
<path d="M33.1563 19.9821H18.7902C18.2991 19.9821 17.8973 19.5803 17.8973 19.0893C17.8973 18.5982 18.2991 18.1964 18.7902 18.1964H33.1563C33.6473 18.1964 34.0491 18.5982 34.0491 19.0893C34.0491 19.5803 33.6473 19.9821 33.1563 19.9821Z" fill="#3F5753"/>
<path d="M33.2456 29.4152H21.567C21.0759 29.4152 20.6741 29.0134 20.6741 28.5223C20.6741 28.0312 21.0759 27.6295 21.567 27.6295H33.2456C33.7366 27.6295 34.1384 28.0312 34.1384 28.5223C34.1384 29.0134 33.7366 29.4152 33.2456 29.4152Z" fill="#3F5753"/>
<path d="M33.2188 35.2188H26.6473C26.1563 35.2188 25.7545 34.817 25.7545 34.3259C25.7545 33.8348 26.1563 33.433 26.6473 33.433H33.2188C33.7098 33.433 34.1116 33.8348 34.1116 34.3259C34.1116 34.817 33.7098 35.2188 33.2188 35.2188Z" fill="#3F5753"/>
<path d="M21.567 35.2188H14.4956C14.0045 35.2188 13.6027 34.817 13.6027 34.3259C13.6027 33.8348 14.0045 33.433 14.4956 33.433H21.567C22.0581 33.433 22.4598 33.8348 22.4598 34.3259C22.4598 34.817 22.0581 35.2188 21.567 35.2188Z" fill="#3F5753"/>
<path d="M17.7009 29.4152H14.3527C13.8616 29.4152 13.4598 29.0134 13.4598 28.5223C13.4598 28.0312 13.8616 27.6295 14.3527 27.6295H17.7009C18.192 27.6295 18.5938 28.0312 18.5938 28.5223C18.5938 29.0134 18.192 29.4152 17.7009 29.4152Z" fill="#3F5753"/>
<path d="M28.875 16.442C28.5759 16.442 28.2813 16.2902 28.1116 16.0179C26.9643 14.1518 23.2634 10.5402 23.2232 10.5C22.8706 10.1563 22.8616 9.5893 23.2054 9.23662C23.5491 8.88394 24.1161 8.87501 24.4688 9.21876C24.625 9.37501 28.3661 13.0268 29.6295 15.0804C29.8884 15.5 29.7589 16.0491 29.3348 16.308C29.1875 16.3973 29.0268 16.442 28.8661 16.442H28.875Z" fill="white"/>
<path d="M29.9331 26.3036C29.442 26.3036 29.0402 25.9018 29.0402 25.4107V21.808C29.0402 21.3169 29.442 20.9152 29.9331 20.9152C30.4241 20.9152 30.8259 21.3169 30.8259 21.808V25.4107C30.8259 25.9018 30.4241 26.3036 29.9331 26.3036Z" fill="white"/>
<path d="M27.2947 46.5H26.6473C26.1563 46.5 25.7545 46.0982 25.7545 45.6071C25.7545 45.1161 26.1563 44.7143 26.6473 44.7143H27.2947C28.2589 44.7143 29.0402 43.933 29.0402 42.9687V37.9643C29.0402 37.4732 29.442 37.0714 29.9331 37.0714C30.4241 37.0714 30.8259 37.4732 30.8259 37.9643V42.9687C30.8259 44.9152 29.2411 46.5 27.2947 46.5Z" fill="white"/>
<path d="M29.4732 50H18.2277C15.4152 50 13.1295 47.7143 13.1295 44.9018V35.6295C13.1295 35.2232 13.2679 34.8215 13.5268 34.5045L13.8036 34.1607L13.6384 33.9732C13.3125 33.6384 13.1295 33.192 13.1295 32.7188V29.8527C13.1295 29.384 13.308 28.9375 13.6384 28.5982L13.7098 28.5223C13.3438 28.1607 13.1295 27.6786 13.1295 27.1786V20.3304C13.1295 19.9107 13.2768 19.5 13.5491 19.1741L13.817 18.8527C13.3393 18.2768 13.1027 17.5402 13.1697 16.8125C13.3616 14.7054 14.2545 12.6831 15.6831 11.1206L20.0893 6.30359C21.0536 5.25002 22.4241 4.64734 23.8527 4.64734C25.2813 4.64734 26.6518 5.25002 27.6161 6.30359L32.0223 11.1206C33.4643 12.6964 34.3572 14.7322 34.5402 16.8616C34.5982 17.5581 34.3973 18.2411 33.9688 18.7857L33.8572 18.9286L34.1831 19.3527C34.4375 19.6697 34.5804 20.0714 34.5804 20.4777V26.9911C34.5804 27.4152 34.4286 27.8304 34.1563 28.1518L33.9152 28.4375L34.1072 28.6652C34.4152 29 34.5848 29.4331 34.5848 29.884V32.75C34.5848 33.2322 34.3884 33.7009 34.0447 34.0357L33.9286 34.1473L34.1875 34.4956C34.442 34.8125 34.5848 35.2143 34.5848 35.6206V44.8929C34.5848 47.7054 32.2991 49.9911 29.4866 49.9911L29.4732 50ZM23.8482 6.43305C22.9197 6.43305 22.0313 6.82591 21.4018 7.50895L16.9956 12.3259C15.8304 13.6027 15.0982 15.2545 14.942 16.9777C14.9197 17.2277 15 17.4777 15.1652 17.6697C15.7411 18.3393 15.75 19.3214 15.183 20L14.9152 20.3215V27.1786C15.2768 27.5223 15.4822 27.9732 15.4955 28.4643C15.5089 28.9554 15.3304 29.4152 14.9866 29.7679L14.9152 29.8438V32.7188L15.0759 32.8973C15.7054 33.5491 15.7545 34.5715 15.1875 35.2768L14.9107 35.6206V44.9018C14.9107 46.7277 16.3929 48.2143 18.2188 48.2143H29.4643C31.2902 48.2143 32.7768 46.7277 32.7768 44.9018V35.6295L32.5089 35.2947C31.9286 34.567 31.9911 33.5313 32.6563 32.8795L32.7723 32.7679V29.8929L32.5804 29.6741C31.9643 29.009 31.9464 27.9822 32.5313 27.2902L32.7723 27.0045V20.4822L32.4464 20.067C31.9197 19.4107 31.9152 18.4911 32.4375 17.8259L32.5491 17.6831C32.6964 17.4956 32.7679 17.2589 32.7456 17.0179C32.5938 15.2813 31.8661 13.6161 30.6875 12.3304L26.2813 7.51341C25.6563 6.83038 24.7634 6.43752 23.8348 6.43752L23.8482 6.43305Z" fill="#3F5753"/>
</g>
</svg>
