<svg width="50" height="50" viewBox="0 0 50 50" fill="none" xmlns="http://www.w3.org/2000/svg">
<g opacity="0.6" clip-path="url(#clip0_6257_843)">
<path d="M27.0714 17.0268V16.7768C27.0714 15.3393 25.9062 14.1741 24.4687 14.1741H23.4777C22.0402 14.1741 20.875 15.3393 20.875 16.7768V17.0268C18.5937 17.4777 16.8705 19.4911 16.8705 21.9063V40.4331C16.8705 42.9152 18.8839 44.9241 21.3616 44.9241H26.5714C29.0536 44.9241 31.0625 42.9107 31.0625 40.4331V21.9063C31.0625 19.4911 29.3437 17.4822 27.058 17.0268H27.0714Z" fill="#5BB5A7"/>
<path d="M22.6875 15.0357V14.7857C22.6875 14.6786 22.6964 14.5714 22.7098 14.4643C22.317 14.6652 21.9821 14.9643 21.7411 15.3259C22.0446 15.2009 22.3616 15.0982 22.6875 15.0313V15.0357Z" fill="#009081"/>
<path d="M28.3884 42.933H23.1786C20.6964 42.933 18.6875 40.9197 18.6875 38.442V19.9152C18.6875 19.2947 18.8036 18.7009 19.0089 18.1518C17.9598 19.0625 17.2991 20.4063 17.2991 21.9018V40.4286C17.2991 42.9107 19.3125 44.9197 21.7902 44.9197H27C28.9598 44.9197 30.625 43.6607 31.2366 41.9107C30.4598 42.5491 29.4687 42.9286 28.3884 42.9286V42.933Z" fill="#009081"/>
<path d="M26.5804 45.8169H21.3705C18.4018 45.8169 15.9866 43.4018 15.9866 40.433V21.9062C15.9866 19.3661 17.6295 17.1339 19.9866 16.3437V14.5C19.9866 13.0893 21.1339 11.9464 22.5402 11.9464H25.4062C26.817 11.9464 27.9598 13.0937 27.9598 14.5V16.3437C30.317 17.1339 31.9598 19.3661 31.9598 21.9062V40.433C31.9598 43.4018 29.5446 45.8169 26.5759 45.8169H26.5804ZM22.5446 13.7321C22.1205 13.7321 21.7768 14.0759 21.7768 14.5V17.0268C21.7768 17.4509 21.4777 17.8214 21.058 17.9018C19.1562 18.2768 17.7768 19.9598 17.7768 21.9018V40.4286C17.7768 42.4152 19.3929 44.0268 21.375 44.0268H26.5848C28.5714 44.0268 30.183 42.4107 30.183 40.4286V21.9018C30.183 19.9598 28.8036 18.2768 26.9018 17.9018C26.4821 17.8169 26.183 17.4509 26.183 17.0268V14.5C26.183 14.0759 25.8393 13.7321 25.4152 13.7321H22.5491H22.5446Z" fill="#37635F"/>
<path d="M20.942 9.85272H24.4955C25.875 9.85272 26.9955 10.9733 26.9955 12.3527V14.1072C26.9955 14.7054 26.5089 15.192 25.9107 15.192H22.0268C21.4286 15.192 20.942 14.7054 20.942 14.1072V9.85272Z" fill="#C6D1DB"/>
<path d="M25.9107 16.0848H22.0268C20.933 16.0848 20.0491 15.1964 20.0491 14.1072V9.8527C20.0491 9.36162 20.4509 8.95984 20.942 8.95984H24.4955C26.3661 8.95984 27.8884 10.4822 27.8884 12.3527V14.1072C27.8884 15.1964 27 16.0848 25.9107 16.0848ZM21.8348 10.7456V14.1072C21.8348 14.2143 21.9241 14.2991 22.0268 14.2991H25.9107C26.0179 14.2991 26.1027 14.2143 26.1027 14.1072V12.3527C26.1027 11.4643 25.3795 10.7456 24.4955 10.7456H21.8348Z" fill="#37635F"/>
<path d="M33.3125 8.88837H30.4866L32.4866 6.88837C33.1071 6.26783 33.1071 5.26337 32.4866 4.64283C31.8661 4.0223 30.8616 4.0223 30.2411 4.64283L25.5357 9.34819C25.4598 9.42408 25.3973 9.50444 25.3393 9.58926C25.3125 9.62944 25.2946 9.66962 25.2723 9.71426C25.2455 9.76337 25.2143 9.81247 25.192 9.86605C25.1696 9.91962 25.1562 9.97319 25.1429 10.0268C25.1295 10.0714 25.1116 10.116 25.1027 10.1607C25.0625 10.366 25.0625 10.5759 25.1027 10.7812C25.1116 10.8259 25.1295 10.8705 25.1429 10.9152C25.1607 10.9687 25.1696 11.0223 25.192 11.0759C25.2143 11.1294 25.2455 11.1741 25.2723 11.2232C25.2946 11.2634 25.3125 11.308 25.3393 11.3482C25.4554 11.5223 25.6027 11.6696 25.7768 11.7857C25.817 11.8125 25.8616 11.8303 25.9018 11.8527C25.9509 11.8794 26 11.9107 26.0491 11.933C26.1027 11.9553 26.1562 11.9687 26.2098 11.9821C26.2545 11.9955 26.2991 12.0134 26.3437 12.0223C26.4464 12.0446 26.5491 12.0535 26.6562 12.0535H33.3125C34.1875 12.0535 34.8973 11.3437 34.8973 10.4687C34.8973 9.59372 34.1875 8.8839 33.3125 8.8839V8.88837Z" fill="#6C7A8C"/>
<path d="M33.3125 12.9553H26.6563C26.4955 12.9553 26.3348 12.9375 26.1696 12.9062C26.1027 12.8928 26.0402 12.875 25.9732 12.8527C25.8571 12.8214 25.7813 12.7946 25.7054 12.7678C25.6339 12.7366 25.5625 12.7009 25.4955 12.6607L25.8884 11.8571L25.4509 12.6384C25.3884 12.6071 25.3304 12.5759 25.2723 12.5357C25 12.3527 24.7679 12.125 24.5848 11.8482C24.5491 11.7946 24.5134 11.7321 24.4866 11.6741L25.2634 11.2277L24.4643 11.6295C24.4241 11.558 24.3884 11.4911 24.3571 11.4152C24.3304 11.3482 24.308 11.2768 24.2857 11.2009L24.2679 11.1473C24.2455 11.0848 24.2277 11.0178 24.2143 10.9509C24.1518 10.6295 24.1518 10.3036 24.2143 9.98213C24.2277 9.91517 24.2455 9.84821 24.2679 9.78124C24.2991 9.66517 24.3214 9.58928 24.3527 9.51785C24.3839 9.44642 24.4196 9.37499 24.4598 9.30803L25.2634 9.69642L24.4821 9.26338C24.5134 9.20088 24.5446 9.14285 24.5848 9.08481C24.6741 8.95088 24.7768 8.82588 24.8929 8.70981L29.5982 4.00446C30.5625 3.03571 32.1384 3.03571 33.1027 4.00446C34.0714 4.97321 34.0714 6.54463 33.1027 7.50892L32.6295 7.98213H33.2991C34.6652 7.98213 35.7768 9.09374 35.7768 10.4598C35.7768 11.8259 34.6652 12.9375 33.2991 12.9375L33.3125 12.9553ZM31.3616 5.07588C31.1741 5.07588 31.0045 5.14731 30.8705 5.27678L26.1652 9.98213C26.1339 10.0134 26.1071 10.0491 26.0804 10.0893L26.0536 10.1473C26.0536 10.1473 26.0313 10.192 26.0268 10.192C26.0268 10.192 26 10.2723 26 10.2768L25.9732 10.3527C25.9598 10.4241 25.9598 10.5178 25.9732 10.6116L26.0089 10.7232C26.0089 10.7232 26.0446 10.7946 26.0491 10.7991L26.0848 10.8705C26.125 10.933 26.192 11 26.2679 11.0491L26.3259 11.0759C26.3259 11.0759 26.3705 11.1027 26.375 11.1027C26.375 11.1027 26.4509 11.125 26.4509 11.1295L26.5313 11.1562C26.5625 11.1652 26.6071 11.1696 26.6518 11.1696H33.308C33.692 11.1696 34 10.8571 34 10.4777C34 10.0982 33.6875 9.78571 33.308 9.78571H30.4821C30.1205 9.78571 29.7946 9.56696 29.6563 9.2366C29.5179 8.90178 29.5938 8.51785 29.8482 8.26338L31.8482 6.26338C32.1205 5.99106 32.1205 5.55356 31.8482 5.28124C31.7187 5.15178 31.5446 5.08035 31.3571 5.08035L31.3616 5.07588Z" fill="#37635F"/>
<path d="M20.942 9.85272H16.4598V12.9331H20.942V9.85272Z" fill="#6C7A8C"/>
<path d="M20.942 13.8215H16.4598C15.9687 13.8215 15.567 13.4197 15.567 12.9286V9.84824C15.567 9.35717 15.9687 8.95538 16.4598 8.95538H20.942C21.433 8.95538 21.8348 9.35717 21.8348 9.84824V12.9286C21.8348 13.4197 21.433 13.8215 20.942 13.8215ZM17.3527 12.0357H20.0491V10.7411H17.3527V12.0357Z" fill="#37635F"/>
<path d="M26.7232 38.2456H21.808C21.317 38.2456 20.9152 37.8438 20.9152 37.3527C20.9152 36.8616 21.317 36.4598 21.808 36.4598H26.7232C27.2143 36.4598 27.6161 36.8616 27.6161 37.3527C27.6161 37.8438 27.2143 38.2456 26.7232 38.2456Z" fill="white"/>
<path d="M26.7232 35.1741H21.808C21.317 35.1741 20.9152 34.7723 20.9152 34.2812C20.9152 33.7902 21.317 33.3884 21.808 33.3884H26.7232C27.2143 33.3884 27.6161 33.7902 27.6161 34.2812C27.6161 34.7723 27.2143 35.1741 26.7232 35.1741Z" fill="white"/>
<path d="M26.7232 22.8527H21.808C21.317 22.8527 20.9152 22.4509 20.9152 21.9598C20.9152 21.4687 21.317 21.067 21.808 21.067H26.7232C27.2143 21.067 27.6161 21.4687 27.6161 21.9598C27.6161 22.4509 27.2143 22.8527 26.7232 22.8527Z" fill="white"/>
<path d="M23.9196 41.3214H21.808C21.317 41.3214 20.9152 40.9196 20.9152 40.4286C20.9152 39.9375 21.317 39.5357 21.808 39.5357H23.9196C24.4107 39.5357 24.8125 39.9375 24.8125 40.4286C24.8125 40.9196 24.4107 41.3214 23.9196 41.3214Z" fill="white"/>
<path d="M26.4554 12.2767C27.2493 12.2767 27.8929 11.6331 27.8929 10.8392C27.8929 10.0453 27.2493 9.40173 26.4554 9.40173C25.6614 9.40173 25.0179 10.0453 25.0179 10.8392C25.0179 11.6331 25.6614 12.2767 26.4554 12.2767Z" fill="#5BB5A7"/>
<path d="M26.4554 13.1741C25.1696 13.1741 24.125 12.1294 24.125 10.8437C24.125 9.55801 25.1696 8.51337 26.4554 8.51337C27.7411 8.51337 28.7857 9.55801 28.7857 10.8437C28.7857 12.1294 27.7411 13.1741 26.4554 13.1741ZM26.4554 10.2946C26.1562 10.2946 25.9107 10.5402 25.9107 10.8393C25.9107 11.1384 26.1562 11.3839 26.4554 11.3839C26.7545 11.3839 27 11.1384 27 10.8393C27 10.5402 26.7545 10.2946 26.4554 10.2946Z" fill="#37635F"/>
<path d="M25.0937 31.7143C25.0937 31.7143 25.0625 31.7143 25.0491 31.7143L23.3571 31.683C22.6473 31.6696 22.0179 31.3571 21.625 30.8303C21.5 30.6652 21.4018 30.4821 21.3348 30.2857C21.067 29.5357 21.25 28.7232 21.8259 28.1027C21.8973 27.9464 21.9643 27.4821 21.9687 27.1071C21.9777 26.6161 22.3616 26.2277 22.875 26.2277C23.3661 26.2366 23.7634 26.6384 23.7545 27.1295C23.7455 27.7143 23.6562 28.7768 23.1429 29.308C22.9509 29.5045 22.9955 29.6295 23.0179 29.683C23.0268 29.7098 23.0402 29.7366 23.058 29.7589C23.1161 29.8348 23.2455 29.8884 23.3929 29.8928L25.0848 29.9241C25.2589 29.9241 25.4152 29.8482 25.5089 29.7053C25.692 29.4286 25.8125 29.1607 25.8437 28.9553C25.9152 28.5178 25.4598 27.8884 25.1875 27.6607C24.4866 27.0759 24.6161 25.8839 24.7545 25.2232C24.8571 24.7411 25.3259 24.433 25.8125 24.5312C26.2946 24.6339 26.6027 25.1071 26.5 25.5893C26.442 25.8616 26.4196 26.2143 26.442 26.3884C26.9866 26.8973 27.8036 28.0134 27.6071 29.2411C27.5313 29.7009 27.3304 30.1875 27 30.683C26.5759 31.3259 25.8705 31.7053 25.0937 31.7053V31.7143Z" fill="white"/>
</g>
<defs>
<clipPath id="clip0_6257_843">
<rect width="50" height="50" fill="white"/>
</clipPath>
</defs>
</svg>
