<svg width="50" height="50" viewBox="0 0 50 50" fill="none" xmlns="http://www.w3.org/2000/svg">
<g opacity="0.6" clip-path="url(#clip0_6257_870)">
<path d="M7.00447 23.2947H43C46.3705 23.2947 49.1116 26.0313 49.1116 29.4063V37.7545C49.1116 39.9777 47.308 41.7857 45.0804 41.7857H4.92411C2.7009 41.7857 0.89286 39.9822 0.89286 37.7545V29.4063C0.89286 26.0358 3.62947 23.2947 7.00447 23.2947Z" fill="#5BB5A7"/>
<path d="M7.00447 23.2947C3.62947 23.2947 0.89286 26.0313 0.89286 29.4063V37.7545C0.89286 38.6697 1.2009 39.509 1.71429 40.1831C12.317 40.009 35.1473 38.0179 46.9732 24.7724C45.9063 23.8572 44.5179 23.2991 43 23.2991H7.00447V23.2947Z" fill="#79E7D5"/>
<path d="M41.1205 28.8126H40.692C39.7649 28.8126 39.0134 29.5641 39.0134 30.4911V30.9197C39.0134 31.8468 39.7649 32.5983 40.692 32.5983H41.1205C42.0476 32.5983 42.7991 31.8468 42.7991 30.9197V30.4911C42.7991 29.5641 42.0476 28.8126 41.1205 28.8126Z" fill="#6FD3C3"/>
<path d="M41.125 33.4911H40.692C39.2768 33.4911 38.1205 32.3393 38.1205 30.9197V30.4867C38.1205 29.067 39.2723 27.9152 40.692 27.9152H41.125C42.5446 27.9152 43.6964 29.067 43.6964 30.4867V30.9197C43.6964 32.3349 42.5446 33.4911 41.125 33.4911ZM40.692 29.7054C40.2589 29.7054 39.9063 30.0581 39.9063 30.4911V30.9241C39.9063 31.3572 40.2589 31.7099 40.692 31.7099H41.125C41.558 31.7099 41.9107 31.3572 41.9107 30.9241V30.4911C41.9107 30.0581 41.558 29.7054 41.125 29.7054H40.692Z" fill="#3F5753"/>
<path d="M35.7589 29.7054H27.0357C26.5446 29.7054 26.1429 29.3036 26.1429 28.8125C26.1429 28.3215 26.5446 27.9197 27.0357 27.9197H35.7589C36.25 27.9197 36.6518 28.3215 36.6518 28.8125C36.6518 29.3036 36.25 29.7054 35.7589 29.7054Z" fill="#3F5753"/>
<path d="M35.7589 33.4331H27.0357C26.5446 33.4331 26.1429 33.0313 26.1429 32.5402C26.1429 32.0491 26.5446 31.6473 27.0357 31.6473H35.7589C36.25 31.6473 36.6518 32.0491 36.6518 32.5402C36.6518 33.0313 36.25 33.4331 35.7589 33.4331Z" fill="#3F5753"/>
<path d="M42.8036 37.5402H27.0402C26.5491 37.5402 26.1473 37.1384 26.1473 36.6474C26.1473 36.1563 26.5491 35.7545 27.0402 35.7545H42.8036C43.2946 35.7545 43.6964 36.1563 43.6964 36.6474C43.6964 37.1384 43.2946 37.5402 42.8036 37.5402Z" fill="#3F5753"/>
<path d="M11.9955 27.2992C15.0268 27.2992 17.0804 29.2009 17.0804 32C17.0804 33.9509 16.1027 35.1563 14.4866 35.1563C13.6696 35.1563 13.0848 34.8259 12.8661 34.2367H12.7366C12.4866 34.8572 12.0357 35.1742 11.3214 35.1742C10.0223 35.1742 9.16518 34.1161 9.16518 32.5358C9.16518 30.9554 9.97321 30.0224 11.183 30.0224C11.8661 30.0224 12.3839 30.3304 12.6295 30.8974H12.7679V30.8661C12.7679 30.3215 13.0625 30.0224 13.5937 30.0224C14.125 30.0224 14.4241 30.3215 14.4241 30.8661V33.1161C14.4241 33.5715 14.5982 33.8349 14.9107 33.8349C15.3839 33.8349 15.6741 33.192 15.6741 32.2143C15.6741 29.9688 14.2411 28.5358 11.9955 28.5358C9.75 28.5358 8.00447 30.1429 8.00447 32.5447C8.00447 34.9465 9.67411 36.5045 12.308 36.5045C12.6161 36.5045 12.8125 36.4911 12.9911 36.4777C13.1116 36.4733 13.2143 36.4643 13.3393 36.4643C13.7902 36.4643 13.9821 36.6875 13.9821 37.0268C13.9821 37.3259 13.8571 37.4822 13.5937 37.5938C13.3259 37.7054 12.9107 37.75 12.1295 37.75C8.81696 37.75 6.58929 35.6697 6.58929 32.5179C6.58929 29.3661 8.80357 27.2902 11.9911 27.2902L11.9955 27.2992ZM12.5937 32.6072C12.5937 31.875 12.2946 31.4375 11.8125 31.4375C11.3304 31.4375 11.0312 31.875 11.0312 32.6072C11.0312 33.3393 11.317 33.759 11.8125 33.759C12.308 33.759 12.5937 33.3349 12.5937 32.6072Z" fill="#3F5753"/>
<path d="M17.0759 20.0134C16.8929 20.0134 16.7054 19.9554 16.5446 19.8393C11.4777 16.1027 6.16071 19.7009 5.9375 19.8527C5.53125 20.1339 4.97767 20.0313 4.69642 19.6295C4.41517 19.2232 4.51339 18.6697 4.91517 18.3884C4.98214 18.3438 11.4911 13.8973 17.6027 18.4018C18 18.6964 18.0848 19.2545 17.7902 19.6518C17.6161 19.8884 17.3437 20.0134 17.0714 20.0134H17.0759Z" fill="#3F5753"/>
<path d="M17.9688 15.6964C17.7857 15.6964 17.5982 15.6384 17.4375 15.5223C11.5089 11.1518 5.30357 15.3572 5.04464 15.5357C4.63839 15.817 4.08482 15.7143 3.80357 15.3125C3.52232 14.9107 3.62054 14.3527 4.02232 14.0714C4.09821 14.0179 11.5268 8.94644 18.4955 14.0848C18.8929 14.375 18.9777 14.9375 18.683 15.3348C18.5089 15.5714 18.2366 15.6964 17.9643 15.6964H17.9688Z" fill="#3F5753"/>
<path d="M19.8259 11.8393C19.6429 11.8393 19.4554 11.7813 19.2946 11.6652C11.5804 5.98217 3.52679 11.442 3.1875 11.6786C2.78125 11.9598 2.22768 11.8616 1.94643 11.4554C1.66518 11.0491 1.7634 10.4956 2.16518 10.2143C2.25893 10.1473 11.5938 3.77235 20.3527 10.2277C20.75 10.5223 20.8348 11.0804 20.5402 11.4777C20.3661 11.7143 20.0938 11.8393 19.8214 11.8393H19.8259Z" fill="#3F5753"/>
<path d="M45.0759 42.6786H4.92411C2.20982 42.6786 0 40.4688 0 37.7545V29.4063C0 25.5447 3.14286 22.4018 7.00446 22.4018H43C46.8616 22.4018 50.0045 25.5447 50.0045 29.4063V37.7545C50.0045 40.4688 47.7947 42.6786 45.0804 42.6786H45.0759ZM7.00446 24.1875C4.12946 24.1875 1.78571 26.5268 1.78571 29.4063V37.7545C1.78571 39.4822 3.19196 40.8929 4.92411 40.8929H45.0804C46.808 40.8929 48.2188 39.4866 48.2188 37.7545V29.4063C48.2188 26.5313 45.8795 24.1875 43 24.1875H7.00446Z" fill="#3F5753"/>
</g>
<defs>
<clipPath id="clip0_6257_870">
<rect width="50" height="50" fill="white"/>
</clipPath>
</defs>
</svg>
