<svg width="50" height="50" viewBox="0 0 50 50" fill="none" xmlns="http://www.w3.org/2000/svg">
<g opacity="0.6">
<path d="M10.1429 6.28123L11.2857 11.25V44.3928C11.2857 44.3928 17.2232 46.0446 26.3259 45.7411C35.4286 45.4375 40.5045 42.8393 40.5045 42.8393L38.7187 39.7098L39.5402 32.2232V8.95088L39.1518 6.2857C39.1518 6.2857 31.7232 4.14284 24.1473 3.70534C16.5714 3.26784 10.1473 6.2857 10.1473 6.2857L10.1429 6.28123Z" fill="#73E0CF"/>
<path d="M15.0402 11.2544V16.6027C15.0402 17.6518 15.7098 18.5937 16.7143 18.9018C18.3571 19.4107 21.3036 19.6384 25.9955 19.6741C35.808 19.7544 37.6071 17.875 37.6071 17.875V9.82141L27.6339 11.1696L15.0402 11.2544Z" fill="#4F9D91"/>
<path d="M15.0402 22.8348V28.183C15.0402 29.2321 15.7098 30.1741 16.7143 30.4821C18.3571 30.991 21.3036 31.2187 25.9955 31.2544C35.808 31.3348 37.6071 29.4553 37.6071 29.4553V21.4017L27.6339 22.7499L15.0402 22.8348Z" fill="#4F9D91"/>
<path d="M15.0402 34.4196V39.7678C15.0402 40.8169 15.7098 41.7589 16.7143 42.0669C18.3571 42.5759 21.3036 42.8035 25.9955 42.8392C35.808 42.9196 37.6071 41.0401 37.6071 41.0401V32.9866L27.6339 34.3348L15.0402 34.4196Z" fill="#4F9D91"/>
<path fill-rule="evenodd" clip-rule="evenodd" d="M11.136 6.68075C10.393 7.11536 10.3571 7.39064 10.3571 7.40622C10.3571 7.42181 10.393 7.69709 11.136 8.1317C11.8165 8.52978 12.8607 8.9189 14.229 9.25744C16.9519 9.93111 20.7604 10.3571 25 10.3571C29.2396 10.3571 33.0481 9.93111 35.771 9.25744C37.1393 8.9189 38.1835 8.52978 38.864 8.1317C39.607 7.69709 39.6429 7.42181 39.6429 7.40622C39.6429 7.39064 39.607 7.11536 38.864 6.68075C38.1835 6.28267 37.1393 5.89355 35.771 5.55501C33.0481 4.88134 29.2396 4.45533 25 4.45533C20.7604 4.45533 16.9519 4.88134 14.229 5.55501C12.8607 5.89355 11.8165 6.28267 11.136 6.68075ZM13.8001 3.82156C16.7001 3.10406 20.6595 2.66962 25 2.66962C29.3405 2.66962 33.2999 3.10406 36.1998 3.82156C37.6429 4.1786 38.8739 4.61774 39.7657 5.13938C40.595 5.62449 41.4286 6.36038 41.4286 7.40622C41.4286 8.45207 40.595 9.18796 39.7657 9.67307C38.8739 10.1947 37.6429 10.6339 36.1998 10.9909C33.2999 11.7084 29.3405 12.1428 25 12.1428C20.6595 12.1428 16.7001 11.7084 13.8001 10.9909C12.3571 10.6339 11.1261 10.1947 10.2343 9.67307C9.40502 9.18796 8.57143 8.45207 8.57143 7.40622C8.57143 6.36038 9.40502 5.62449 10.2343 5.13938C11.1261 4.61774 12.3571 4.1786 13.8001 3.82156Z" fill="#3F5753"/>
<path fill-rule="evenodd" clip-rule="evenodd" d="M11.2857 8.92853C11.7788 8.92853 12.1786 9.32827 12.1786 9.82139V17.6205C12.1786 17.9677 11.9773 18.2835 11.6624 18.43C11.129 18.6783 10.773 18.9156 10.563 19.1203C10.3568 19.3213 10.3571 19.4222 10.3571 19.4284L10.3571 19.4285C10.3571 19.4449 10.3934 19.7205 11.136 20.155C11.8165 20.5531 12.8606 20.9421 14.2289 21.2805C16.9517 21.9539 20.7602 22.3794 25 22.3794C29.2396 22.3794 33.0481 21.9529 35.771 21.2789C37.1393 20.9402 38.1835 20.551 38.8641 20.153C39.6074 19.7183 39.6429 19.4433 39.6429 19.4285C39.6429 19.4268 39.6456 19.3257 39.4364 19.1214C39.2261 18.916 38.8699 18.6777 38.3376 18.43C38.0227 18.2835 37.8214 17.9677 37.8214 17.6205V9.82139C37.8214 9.32827 38.2212 8.92853 38.7143 8.92853C39.2074 8.92853 39.6071 9.32827 39.6071 9.82139V17.0721C40.0229 17.3015 40.3905 17.5571 40.6841 17.8439C41.0955 18.2456 41.4286 18.7784 41.4286 19.4285C41.4286 20.4741 40.5946 21.2097 39.7656 21.6944C38.874 22.2159 37.6431 22.6551 36.2 23.0123C33.3001 23.7301 29.3407 24.1651 25 24.1651C20.6594 24.1651 16.7001 23.7312 13.8001 23.014C12.3571 22.6571 11.126 22.218 10.2342 21.6962C9.40458 21.2108 8.57143 20.4746 8.57143 19.4285C8.57143 18.7769 8.90375 18.244 9.31649 17.8416C9.61017 17.5554 9.97774 17.3006 10.3929 17.0718V9.82139C10.3929 9.32827 10.7926 8.92853 11.2857 8.92853Z" fill="#3F5753"/>
<path fill-rule="evenodd" clip-rule="evenodd" d="M11.2857 20.3705C11.7788 20.3705 12.1786 20.7702 12.1786 21.2633V29.0624C12.1786 29.4097 11.9773 29.7254 11.6624 29.8719C11.129 30.1202 10.773 30.3575 10.563 30.5623C10.3568 30.7632 10.3571 30.8642 10.3571 30.8704L10.3571 30.8705C10.3571 30.8869 10.3934 31.1624 11.136 31.5969C11.8165 31.995 12.8606 32.3841 14.2289 32.7225C16.9517 33.3959 20.7602 33.8214 25 33.8214C29.2396 33.8214 33.0481 33.3948 35.771 32.7209C37.1393 32.3822 38.1835 31.993 38.8641 31.5949C39.6074 31.1602 39.6429 30.8852 39.6429 30.8705C39.6429 30.8688 39.6456 30.7677 39.4364 30.5634C39.2261 30.3579 38.8699 30.1197 38.3376 29.8719C38.0227 29.7254 37.8214 29.4097 37.8214 29.0624V21.2633C37.8214 20.7702 38.2212 20.3705 38.7143 20.3705C39.2074 20.3705 39.6071 20.7702 39.6071 21.2633V28.514C40.0229 28.7434 40.3905 28.9991 40.6841 29.2858C41.0955 29.6876 41.4286 30.2204 41.4286 30.8705C41.4286 31.916 40.5946 32.6516 39.7656 33.1364C38.874 33.6579 37.6431 34.0971 36.2 34.4543C33.3001 35.1721 29.3407 35.6071 25 35.6071C20.6594 35.6071 16.7001 35.1732 13.8001 34.456C12.3571 34.0991 11.126 33.66 10.2342 33.1382C9.40458 32.6528 8.57143 31.9166 8.57143 30.8705C8.57143 30.2189 8.90375 29.6859 9.31648 29.2836C9.61017 28.9973 9.97774 28.7425 10.3929 28.5138V21.2633C10.3929 20.7702 10.7926 20.3705 11.2857 20.3705Z" fill="#3F5753"/>
<path fill-rule="evenodd" clip-rule="evenodd" d="M11.2857 32.0938C11.7788 32.0938 12.1786 32.4935 12.1786 32.9866V40.7857C12.1786 41.133 11.9773 41.4487 11.6624 41.5952C11.129 41.8435 10.773 42.0808 10.563 42.2855C10.3568 42.4865 10.3571 42.5875 10.3571 42.5936L10.3571 42.5938C10.3571 42.6102 10.3934 42.8857 11.136 43.3202C11.8165 43.7183 12.8606 44.1073 14.2289 44.4458C16.9517 45.1192 20.7602 45.5446 25 45.5446C29.2396 45.5446 33.0481 45.1181 35.771 44.4441C37.1393 44.1054 38.1835 43.7162 38.8641 43.3182C39.6074 42.8835 39.6429 42.6085 39.6429 42.5938C39.6429 42.5921 39.6456 42.4909 39.4364 42.2866C39.2261 42.0812 38.8699 41.843 38.3376 41.5952C38.0227 41.4487 37.8214 41.133 37.8214 40.7857V32.9866C37.8214 32.4935 38.2212 32.0938 38.7143 32.0938C39.2074 32.0938 39.6071 32.4935 39.6071 32.9866V40.2373C40.0229 40.4667 40.3905 40.7224 40.6841 41.0091C41.0955 41.4109 41.4286 41.9436 41.4286 42.5938C41.4286 43.6393 40.5946 44.3749 39.7656 44.8597C38.874 45.3811 37.6431 45.8203 36.2 46.1775C33.3001 46.8953 29.3407 47.3304 25 47.3304C20.6594 47.3304 16.7001 46.8965 13.8001 46.1792C12.3571 45.8223 11.126 45.3833 10.2342 44.8615C9.40458 44.376 8.57143 43.6399 8.57143 42.5938C8.57143 41.9422 8.90375 41.4092 9.31648 41.0069C9.61017 40.7206 9.97774 40.4658 10.3929 40.2371V32.9866C10.3929 32.4935 10.7926 32.0938 11.2857 32.0938Z" fill="#3F5753"/>
<path fill-rule="evenodd" clip-rule="evenodd" d="M16.9688 7.50888C16.9688 7.01577 17.3685 6.61603 17.8616 6.61603H18.3839C18.877 6.61603 19.2768 7.01577 19.2768 7.50888C19.2768 8.002 18.877 8.40174 18.3839 8.40174H17.8616C17.3685 8.40174 16.9688 8.002 16.9688 7.50888Z" fill="#3F5753"/>
</g>
</svg>
