<svg width="50" height="50" viewBox="0 0 50 50" fill="none" xmlns="http://www.w3.org/2000/svg">
<g opacity="0.6" clip-path="url(#clip0_6257_898)">
<path d="M11.9821 13.4554C11.9821 13.4554 21.0803 5.42858 33.192 5.64733C45.3036 5.86608 48.0223 13.4554 48.0223 13.4554V9.54911C48.0223 9.54911 45.3036 1.96429 33.192 1.74108C21.0803 1.51787 11.9821 9.54911 11.9821 9.54911V13.4554Z" fill="#6FD3C3"/>
<path d="M48.0223 14.3482C47.6518 14.3482 47.3125 14.1161 47.183 13.7545C47.0804 13.4732 44.4687 6.74552 33.1786 6.54017C21.558 6.32588 12.6607 14.0446 12.5759 14.125C12.3125 14.3571 11.9375 14.4152 11.6161 14.2678C11.2946 14.125 11.0893 13.8036 11.0893 13.4553V9.54909C11.0893 9.29463 11.2009 9.04909 11.3929 8.87945C11.7768 8.54463 20.9152 0.629451 33.2098 0.848201C45.7946 1.07588 48.7455 8.9107 48.8661 9.24552C48.9018 9.34374 48.9196 9.44195 48.9196 9.54463V13.4509C48.9196 13.8839 48.6071 14.2545 48.1786 14.3303C48.125 14.3393 48.0759 14.3437 48.0268 14.3437L48.0223 14.3482ZM12.875 9.96874V11.6161C15.9777 9.33927 23.625 4.56695 33.2098 4.75892C41.0134 4.90177 45.1161 7.96874 47.1295 10.3571V9.7232C46.7098 8.73659 43.7455 2.83034 33.1741 2.63838C22.7589 2.45534 14.5268 8.63392 12.8705 9.96874H12.875Z" fill="#3F5753"/>
<path d="M42.4152 15.3125C42.4152 15.3125 45.8973 15.8125 48.0268 9.54907C48.0268 9.54907 52.7679 17.183 42.4152 24.4553" fill="#DFFDF7"/>
<path d="M42.4152 25.3482C42.1339 25.3482 41.8571 25.2143 41.683 24.9687C41.4018 24.5669 41.4955 24.0089 41.9018 23.7232C48.4643 19.1116 48.5982 14.4643 48 11.9375C45.6429 16.616 42.4375 16.2187 42.2857 16.1964C41.7991 16.125 41.4598 15.6741 41.5313 15.1875C41.6027 14.7053 42.0446 14.366 42.5268 14.4285C42.6786 14.4419 45.3616 14.616 47.1786 9.26337C47.2902 8.93747 47.5804 8.70087 47.9241 8.66515C48.2679 8.62497 48.6027 8.78569 48.7857 9.08033C48.8393 9.16515 53.8482 17.5223 42.9286 25.1875C42.7723 25.2991 42.5938 25.3482 42.4152 25.3482Z" fill="#3F5753"/>
<path d="M35.7768 9.66074L11.9821 9.54913C6.92857 9.54913 1.11607 15.1027 1.11607 20.1875C1.11607 25.2723 6.40179 31.1607 11.2589 31.6652C16.9732 28.7366 17.2589 24.0982 18.3839 20.2991C18.625 19.4911 22.7991 20.817 23.5848 20.817C24.3705 20.817 25.0759 21.3616 25.317 22.1697C26.442 25.9688 26.1518 31.7277 32.0625 31.7277C40.5759 31.7277 43.2366 24.6206 43.2366 19.5357C43.2366 14.9375 40.0848 9.65628 35.7768 9.65628V9.66074Z" fill="#C3D9E3"/>
<path d="M32.0625 32.6205C26.5893 32.6205 25.7098 28.2679 25 24.7679C24.8304 23.9286 24.6696 23.1339 24.4598 22.4196C24.3348 21.9955 23.9821 21.7098 23.5848 21.7098C23.2545 21.7098 22.7768 21.6071 21.8884 21.4063C21.1696 21.2455 19.7723 20.933 19.1339 20.9241C19.0089 21.3705 18.8929 21.8259 18.7723 22.3036C17.8795 25.8125 16.8705 29.7902 11.6696 32.4554C11.5179 32.5357 11.3438 32.567 11.1696 32.5491C5.84822 32 0.223221 25.6429 0.223221 20.1875C0.223221 14.7321 6.37501 8.65625 11.9821 8.65625L35.7768 8.76786C40.558 8.76786 44.1295 14.4554 44.1295 19.5357C44.1295 26.0491 40.3973 32.6205 32.0625 32.6205ZM19.1116 19.1429C19.9509 19.1429 21.0491 19.3884 22.2813 19.6652C22.7902 19.7768 23.4196 19.9196 23.5893 19.9241C24.7813 19.9241 25.8214 20.7232 26.1741 21.9152C26.4063 22.7054 26.5848 23.5759 26.7545 24.4152C27.5625 28.4107 28.3214 30.8348 32.0625 30.8348C35.5893 30.8348 38.2991 29.5491 40.1161 27.0179C41.5313 25.0446 42.3438 22.317 42.3438 19.5357C42.3438 15.3795 39.4732 10.5536 35.7768 10.5536L11.9821 10.442C7.3259 10.442 2.0134 15.6339 2.0134 20.1875C2.0134 24.7411 6.71429 30.1027 11.0982 30.7455C15.3705 28.4509 16.2232 25.1071 17.0446 21.8661C17.1964 21.2634 17.3571 20.6429 17.5313 20.0446C17.7277 19.375 18.2991 19.1429 19.1161 19.1429H19.1116Z" fill="#3F5753"/>
<path d="M32.7321 13.433L8.9375 13.3214C3.88392 13.3214 0.892853 17.4419 0.892853 22.5223C0.892853 27.6027 5.16071 31.7232 10.0446 31.7232C14.9286 31.7232 17.6875 28.9509 18.8125 25.1562C19.0536 24.3482 19.7545 23.8036 20.5446 23.8036C21.3304 23.8036 22.0357 24.3482 22.2768 25.1562C23.4018 28.9553 25.9911 31.7232 31.0446 31.7232C36.0982 31.7232 40.1964 27.6027 40.1964 22.5223C40.1964 17.9241 37.0446 13.4286 32.7366 13.4286L32.7321 13.433Z" fill="#BAFAEE"/>
<path d="M31.0446 32.6206C26.1473 32.6206 22.817 30.1295 21.4196 25.4107C21.2946 24.9866 20.942 24.7009 20.5446 24.7009C20.1473 24.7009 19.7946 24.9866 19.6696 25.4107C18.2902 30.058 14.875 32.6206 10.0446 32.6206C4.59821 32.6206 0 27.9955 0 22.5268C0 16.5804 3.67411 12.433 8.9375 12.433L32.7321 12.5447C37.7277 12.5447 41.0848 17.7098 41.0848 22.5313C41.0848 28.0982 36.5804 32.625 31.0402 32.625L31.0446 32.6206ZM20.5446 22.9152C21.7411 22.9152 22.7768 23.7143 23.1295 24.9063C24.3125 28.8973 26.9018 30.8348 31.0402 30.8348C35.5937 30.8348 39.2991 27.1072 39.2991 22.5268C39.2991 17.6205 35.9018 14.3259 32.7321 14.3259L8.9375 14.2143C5.37946 14.2143 1.78571 16.7857 1.78571 22.5223C1.78571 27.0268 5.56696 30.8304 10.0446 30.8304C15.1295 30.8304 17.1562 27.6072 17.9554 24.9018C18.308 23.7098 19.3482 22.9107 20.5402 22.9107L20.5446 22.9152Z" fill="#3F5753"/>
<path d="M11.9821 18.683H6.6875C6.19643 18.683 5.79465 18.2812 5.79465 17.7901C5.79465 17.2991 6.19643 16.8973 6.6875 16.8973H11.9821C12.4732 16.8973 12.875 17.2991 12.875 17.7901C12.875 18.2812 12.4732 18.683 11.9821 18.683Z" fill="#3F5753"/>
<path d="M9.62947 22.2277H6.6875C6.19643 22.2277 5.79465 21.8259 5.79465 21.3348C5.79465 20.8437 6.19643 20.442 6.6875 20.442H9.62947C10.1205 20.442 10.5223 20.8437 10.5223 21.3348C10.5223 21.8259 10.1205 22.2277 9.62947 22.2277Z" fill="#3F5753"/>
<path d="M47.1473 37.7679H32.3482V48.2634H34.3928C36.4821 48.2634 38.3527 47.3438 39.6339 45.8929C40.2812 45.1563 41.2366 44.7679 42.2143 44.7679H47.1473C48.2321 44.7679 49.1071 43.8884 49.1071 42.8081V39.7366C49.1071 38.6518 48.2277 37.7768 47.1473 37.7768V37.7679Z" fill="#BAFAEE"/>
<path d="M34.3884 49.1518H32.3437C31.8527 49.1518 31.4509 48.75 31.4509 48.2589V37.7634C31.4509 37.2723 31.8527 36.8705 32.3437 36.8705H47.1428C48.7187 36.8705 49.9955 38.1518 49.9955 39.7232V42.7947C49.9955 44.3705 48.7143 45.6473 47.1428 45.6473H42.2098C41.4553 45.6473 40.7589 45.9464 40.2991 46.4732C38.8036 48.1741 36.6473 49.1473 34.3884 49.1473V49.1518ZM33.2366 47.3661H34.3884C36.1339 47.3661 37.8036 46.6116 38.9598 45.2991C39.7589 44.3929 40.9464 43.8705 42.2143 43.8705H47.1473C47.7366 43.8705 48.2143 43.3929 48.2143 42.8036V39.7322C48.2143 39.1429 47.7366 38.6652 47.1473 38.6652H33.2411V47.375L33.2366 47.3661Z" fill="#3F5753"/>
<path d="M32.1339 37.7679H32.3437V48.2634H32.1339C30.0268 48.2634 28.317 46.5536 28.317 44.4465V41.5893C28.317 39.4822 30.0268 37.7723 32.1339 37.7723V37.7679Z" fill="#2EDDB8"/>
<path d="M32.3437 49.1518H32.1339C29.5357 49.1518 27.4241 47.0402 27.4241 44.442V41.5848C27.4241 38.9866 29.5357 36.875 32.1339 36.875H32.3437C32.8348 36.875 33.2366 37.2768 33.2366 37.7679V48.2634C33.2366 48.7545 32.8348 49.1562 32.3437 49.1562V49.1518ZM31.4509 38.7366C30.1652 39.0446 29.2098 40.2054 29.2098 41.5804V44.4375C29.2098 45.817 30.1696 46.9732 31.4509 47.2813V38.7321V38.7366Z" fill="#3F5753"/>
<path d="M36.6384 42.0402H35.8929C35.4018 42.0402 35 41.6384 35 41.1473C35 40.6562 35.4018 40.2545 35.8929 40.2545H36.6384C37.1295 40.2545 37.5312 40.6562 37.5312 41.1473C37.5312 41.6384 37.1295 42.0402 36.6384 42.0402Z" fill="#3F5753"/>
<path d="M19.7232 37.7679H4.91963V48.2634H6.96428C9.05356 48.2634 10.9241 47.3438 12.2053 45.8929C12.8527 45.1563 13.808 44.7679 14.7857 44.7679H19.7187C20.8036 44.7679 21.6786 43.8884 21.6786 42.8081V39.7366C21.6786 38.6518 20.7991 37.7768 19.7187 37.7768L19.7232 37.7679Z" fill="#BAFAEE"/>
<path d="M6.96428 49.1518H4.91964C4.42856 49.1518 4.02678 48.75 4.02678 48.2589V37.7634C4.02678 37.2723 4.42856 36.8705 4.91964 36.8705H19.7187C21.2946 36.8705 22.5714 38.1518 22.5714 39.7232V42.7947C22.5714 44.3705 21.2902 45.6473 19.7187 45.6473H14.7857C14.0312 45.6473 13.3348 45.9464 12.875 46.4732C11.3795 48.1741 9.22321 49.1473 6.96428 49.1473V49.1518ZM5.81249 47.3661H6.96428C8.70981 47.3661 10.3795 46.6116 11.5357 45.2991C12.3348 44.3929 13.5223 43.8705 14.7902 43.8705H19.7232C20.3125 43.8705 20.7902 43.3929 20.7902 42.8036V39.7322C20.7902 39.1429 20.3125 38.6652 19.7232 38.6652H5.81249V47.375V47.3661Z" fill="#3F5753"/>
<path d="M4.70982 37.7679H4.91964V48.2634H4.70982C2.60267 48.2634 0.892853 46.5536 0.892853 44.4465V41.5893C0.892853 39.4822 2.60267 37.7723 4.70982 37.7723V37.7679Z" fill="#6FD3C3"/>
<path d="M4.91964 49.1518H4.70982C2.11161 49.1518 0 47.0402 0 44.442V41.5848C0 38.9866 2.11161 36.875 4.70982 36.875H4.91964C5.41072 36.875 5.8125 37.2768 5.8125 37.7679V48.2634C5.8125 48.7545 5.41072 49.1562 4.91964 49.1562V49.1518ZM4.02679 38.7366C2.74107 39.0446 1.78571 40.2054 1.78571 41.5804V44.4375C1.78571 45.817 2.74554 46.9732 4.02679 47.2813V38.7321V38.7366Z" fill="#3F5753"/>
<path d="M9.12947 42.0402H8.38393C7.89286 42.0402 7.49107 41.6384 7.49107 41.1473C7.49107 40.6562 7.89286 40.2545 8.38393 40.2545H9.12947C9.62054 40.2545 10.0223 40.6562 10.0223 41.1473C10.0223 41.6384 9.62054 42.0402 9.12947 42.0402Z" fill="#3F5753"/>
</g>
<defs>
<clipPath id="clip0_6257_898">
<rect width="50" height="50" fill="white"/>
</clipPath>
</defs>
</svg>
