<svg width="50" height="50" viewBox="0 0 50 50" fill="none" xmlns="http://www.w3.org/2000/svg">
<g opacity="0.6">
<path d="M17.1965 24.8261L18.1697 27.2904L18.5224 28.1832L20.4153 30.4154L19.4153 34.3037L22.7412 36.3127L23.1251 41.1877C23.6162 42.4332 25.8305 42.7234 28.0715 41.8395C30.3126 40.9555 31.2099 39.1698 31.2412 37.9868L31.6787 33.9734L28.8126 31.8395L29.7769 27.8529L26.6965 25.1341L26.2456 23.9957L25.3126 21.6296L17.1965 24.8305V24.8261Z" fill="#DFFDF7"/>
<path d="M25.5581 43.2412C25.3037 43.2412 25.0581 43.2278 24.8215 43.1965C23.5492 43.0269 22.6519 42.4331 22.2903 41.5135C22.259 41.4331 22.2367 41.3439 22.2322 41.2546L21.884 36.8349L18.951 35.0626C18.6117 34.8573 18.451 34.4555 18.5492 34.076L19.4331 30.6385L17.8394 28.759C17.7769 28.6831 17.7278 28.5983 17.6876 28.509L16.3662 25.1519C16.1876 24.6921 16.4108 24.1742 16.8706 23.9957L24.9867 20.7948C25.4465 20.6117 25.9644 20.8394 26.1429 21.2992L27.4465 24.6028L30.3662 27.1832C30.6162 27.4019 30.7188 27.7412 30.6429 28.0626L29.8171 31.4733L32.2099 33.2546C32.4644 33.4421 32.5983 33.7546 32.5671 34.0671L32.1296 38.0492C32.0671 39.6474 30.8929 41.6832 28.3974 42.6698C27.4421 43.0448 26.4599 43.2412 25.5581 43.2412ZM24.0001 40.9465C24.1563 41.1787 24.5403 41.3573 25.0581 41.4242C25.8349 41.5269 26.8126 41.3751 27.7412 41.009C29.7546 40.2144 30.326 38.6698 30.3483 37.9599C30.3483 37.9376 30.3483 37.9108 30.3528 37.8885L30.7367 34.3796L28.2769 32.5537C27.9912 32.3394 27.8572 31.9778 27.9421 31.6296L28.7769 28.1653L26.0983 25.7992C25.9912 25.7055 25.9108 25.5894 25.8572 25.4555L24.8037 22.7814L18.3483 25.326L19.2903 27.7144L21.0894 29.8305C21.2769 30.0537 21.3438 30.3483 21.2724 30.6296L20.4376 33.8751L23.1965 35.5403C23.4421 35.6876 23.6028 35.9465 23.6251 36.2323L24.0001 40.9421V40.9465Z" fill="#37635F"/>
<path d="M11.2275 9.70089L17.1561 24.7321C17.6472 25.9777 19.8615 26.2679 22.1025 25.3839C24.3436 24.5 25.7633 22.7768 25.2722 21.5312L19.3436 6.5L11.2275 9.70089Z" fill="#5BB5A7"/>
<path d="M19.5937 26.7902C19.3392 26.7902 19.0937 26.7768 18.8571 26.7456C17.5847 26.5759 16.6874 25.9822 16.3258 25.0625L10.3972 10.0313C10.3124 9.81255 10.3124 9.56701 10.4106 9.34826C10.5088 9.12951 10.683 8.95987 10.9017 8.87505L19.0178 5.67415C19.4776 5.49112 19.9955 5.7188 20.174 6.17862L26.1026 21.2099C26.4642 22.125 26.2142 23.1786 25.4017 24.1652C24.7097 25.009 23.6517 25.7367 22.4285 26.2188C21.4731 26.5938 20.491 26.7902 19.5892 26.7902H19.5937ZM12.3883 10.2054L17.9865 24.4063C18.0981 24.6831 18.5088 24.8974 19.0892 24.9733C19.866 25.0759 20.8437 24.9242 21.7767 24.5581C22.7097 24.192 23.5267 23.634 24.0222 23.0313C24.3928 22.5804 24.5535 22.1429 24.4419 21.8661L18.8437 7.66522L12.3883 10.2099V10.2054Z" fill="#37635F"/>
<path d="M16.1721 10.3517C18.413 9.46806 19.8323 7.74395 19.3421 6.50077C18.8519 5.2576 16.6378 4.96613 14.3969 5.84976C12.156 6.73338 10.7367 8.4575 11.2269 9.70068C11.7171 10.9439 13.9312 11.2353 16.1721 10.3517Z" fill="#BAFAEE"/>
<path d="M13.6563 11.7634C12.0848 11.7634 10.8438 11.1563 10.4018 10.0268C9.70984 8.26789 11.2857 6.1161 14.0759 5.01789C16.8616 3.91968 19.4866 4.41521 20.1786 6.17414C20.8706 7.93307 19.2947 10.0849 16.5045 11.1831C15.5089 11.5759 14.5313 11.7634 13.6563 11.7634ZM16.9063 6.22771C16.2902 6.22771 15.5402 6.35718 14.7277 6.6786C12.7589 7.45539 11.8304 8.79468 12.0625 9.37503C12.2902 9.95539 13.8795 10.2991 15.8482 9.52235C17.817 8.74557 18.7456 7.40628 18.5134 6.82593C18.3795 6.48664 17.7768 6.22771 16.9063 6.22771Z" fill="#37635F"/>
<path d="M24.6874 34.1072C24.3124 34.1072 23.9642 33.8706 23.8392 33.4956C23.683 33.0269 23.933 32.5224 24.4017 32.3662L28.5223 30.9867C28.991 30.8304 29.4955 31.0804 29.6517 31.5492C29.808 32.0179 29.558 32.5224 29.0892 32.6787L24.9687 34.0581C24.8749 34.0894 24.7812 34.1028 24.6874 34.1028V34.1072Z" fill="#37635F"/>
<path d="M20.4108 31.308C20.0179 31.308 19.6608 31.0491 19.5492 30.6518C19.4197 30.1786 19.6965 29.683 20.1742 29.5536L23.4554 28.6473C23.9331 28.5178 24.4242 28.7946 24.5536 29.2723C24.6831 29.7455 24.4063 30.2411 23.9286 30.3705L20.6474 31.2768C20.567 31.2991 20.4867 31.308 20.4108 31.308Z" fill="#37635F"/>
<path d="M18.0982 18.1921C18.5938 18.1921 18.9956 17.7904 18.9956 17.2948C18.9956 16.7992 18.5938 16.3975 18.0982 16.3975C17.6027 16.3975 17.2009 16.7992 17.2009 17.2948C17.2009 17.7904 17.6027 18.1921 18.0982 18.1921Z" fill="#009081"/>
<path d="M18.9955 14.0134C19.491 14.0134 19.8928 13.6116 19.8928 13.1161C19.8928 12.6205 19.491 12.2188 18.9955 12.2188C18.4999 12.2188 18.0981 12.6205 18.0981 13.1161C18.0981 13.6116 18.4999 14.0134 18.9955 14.0134Z" fill="#009081"/>
<path d="M20.2323 22.009C20.7279 22.009 21.1296 21.6073 21.1296 21.1117C21.1296 20.6161 20.7279 20.2144 20.2323 20.2144C19.7367 20.2144 19.335 20.6161 19.335 21.1117C19.335 21.6073 19.7367 22.009 20.2323 22.009Z" fill="#009081"/>
<path d="M27.7322 37.3975C27.7322 37.3975 26.7054 38.268 23.6831 37.9466L27.7322 37.3975Z" fill="#30433F"/>
<path d="M24.9642 38.9107C24.5491 38.9107 24.0937 38.8884 23.5892 38.8348C23.0982 38.7813 22.7455 38.3438 22.7946 37.8527C22.8482 37.3616 23.2857 37.0045 23.7767 37.0581C26.2723 37.3259 27.1741 36.7009 27.1785 36.692C27.5535 36.375 28.1026 36.4286 28.4241 36.8036C28.7455 37.1786 28.683 37.7545 28.308 38.0715C28.1205 38.2277 27.1919 38.9063 24.9598 38.9063L24.9642 38.9107Z" fill="#37635F"/>
<path d="M36.8125 46.0983C36.8125 46.0983 37.183 42.0849 33.8169 41.634C33.8169 41.634 33.5669 37.7813 31.2366 37.9867C31.2366 37.9867 31.558 40.7456 28.0669 41.8394C24.5759 42.9331 22.9018 39.7099 22.9018 39.7099C22.9018 39.7099 20.8214 40.2679 20.4107 42.3483C20.4107 42.3483 15.9241 42.2679 15.9241 46.0983H36.8169H36.8125Z" fill="#53918C"/>
<path d="M36.8126 46.9912H15.9197C15.4286 46.9912 15.0269 46.5894 15.0269 46.0983C15.0269 44.826 15.442 43.7724 16.259 42.9689C17.3349 41.9108 18.8527 41.5894 19.7277 41.4956C20.4956 39.451 22.576 38.8751 22.6742 38.8483C23.076 38.7412 23.5045 38.9287 23.6965 39.2992C23.8349 39.5581 25.134 41.8215 27.8036 40.9867C30.4599 40.1519 30.3706 38.2858 30.3527 38.076C30.3304 37.8394 30.4063 37.5983 30.5581 37.4153C30.7099 37.2322 30.9286 37.1117 31.1652 37.0939C31.8974 37.0314 32.5804 37.2456 33.134 37.7233C34.1072 38.5581 34.4867 40.0224 34.6295 40.8885C37.3572 41.6653 37.8483 44.6162 37.7054 46.1742C37.6653 46.634 37.2769 46.9867 36.817 46.9867L36.8126 46.9912ZM16.9331 45.2055H35.9331C35.7724 42.8706 33.9286 42.5537 33.6965 42.5224C33.2769 42.4644 32.951 42.1206 32.9242 41.6965C32.8929 41.2189 32.6563 39.7546 32.0224 39.1385C31.7144 40.393 30.7322 41.9421 28.3304 42.6921C25.5402 43.5671 23.5402 42.1117 22.5581 40.826C22.0849 41.0983 21.4599 41.6162 21.2813 42.5224C21.1965 42.9421 20.8304 43.2412 20.4063 43.2412C20.4019 43.2412 20.3974 43.2412 20.3885 43.2412C20.3751 43.2412 18.5269 43.2323 17.5001 44.2501C17.2277 44.518 17.0402 44.8349 16.9286 45.2055H16.9331Z" fill="#37635F"/>
<path d="M14.5804 39.0804C14.3437 39.0804 14.1161 38.9822 13.9509 38.8171C13.7813 38.6519 13.6875 38.4197 13.6875 38.1876C13.6875 38.1296 13.692 38.0671 13.7054 38.0135C13.7188 37.9554 13.7321 37.8974 13.7545 37.8438C13.7768 37.7903 13.808 37.7367 13.8393 37.6921C13.8705 37.6429 13.9062 37.5938 13.9509 37.5537C14.1562 37.3483 14.4643 37.2546 14.7545 37.3126C14.8125 37.3215 14.8661 37.3394 14.9196 37.3617C14.9777 37.384 15.0268 37.4108 15.0759 37.4421C15.125 37.4778 15.1696 37.5135 15.2098 37.5537C15.3795 37.7188 15.4732 37.951 15.4732 38.1876C15.4732 38.4242 15.3795 38.6519 15.2098 38.8171C15.1696 38.8572 15.125 38.8974 15.0759 38.9287C15.0268 38.9599 14.9777 38.9867 14.9196 39.009C14.8661 39.0313 14.8125 39.0492 14.7545 39.0626C14.6964 39.0715 14.6384 39.0804 14.5804 39.0804Z" fill="#37635F"/>
<path d="M38.0135 36.6786C37.7769 36.6786 37.5492 36.5804 37.3795 36.4152C37.2144 36.25 37.1206 36.0179 37.1206 35.7858C37.1206 35.7277 37.1206 35.6652 37.1385 35.6116C37.1474 35.5536 37.1652 35.4956 37.1876 35.442C37.2099 35.3884 37.2367 35.3349 37.2724 35.2902C37.3036 35.2411 37.3394 35.192 37.3795 35.1518C37.7144 34.8215 38.3126 34.8215 38.6429 35.1518C38.8126 35.317 38.9063 35.5491 38.9063 35.7858C38.9063 36.0224 38.8126 36.25 38.6429 36.4152C38.6027 36.4554 38.5581 36.4956 38.509 36.5268C38.4599 36.5581 38.4063 36.5849 38.3527 36.6072C38.2992 36.6295 38.2456 36.6474 38.1876 36.6608C38.1295 36.6697 38.0715 36.6786 38.0135 36.6786Z" fill="#37635F"/>
<path d="M40.4019 41.9154C40.1653 41.9154 39.9376 41.8216 39.768 41.6564C39.7278 41.6118 39.6921 41.5672 39.6564 41.5181C39.6251 41.4689 39.5983 41.4198 39.576 41.3663C39.5537 41.3127 39.5358 41.2547 39.5269 41.1966C39.5135 41.1386 39.509 41.0806 39.509 41.0225C39.509 40.7904 39.6028 40.5582 39.768 40.3931C39.9778 40.1832 40.2858 40.0895 40.576 40.1475C40.634 40.1609 40.6876 40.1788 40.7412 40.2011C40.7947 40.2234 40.8483 40.2502 40.8974 40.2814C40.9465 40.3127 40.9912 40.3529 41.0314 40.3931C41.1965 40.5582 41.2947 40.7904 41.2947 41.0225C41.2947 41.0806 41.2903 41.1386 41.2769 41.1966C41.2635 41.2547 41.2456 41.3127 41.2233 41.3663C41.201 41.4198 41.1742 41.4689 41.143 41.5181C41.1117 41.5672 41.0715 41.6118 41.0314 41.6564C40.9912 41.6966 40.9465 41.7323 40.8974 41.7681C40.8483 41.7993 40.7947 41.8261 40.7412 41.8484C40.6876 41.8707 40.634 41.8886 40.576 41.8975C40.518 41.9109 40.4599 41.9154 40.4019 41.9154Z" fill="#37635F"/>
</g>
</svg>
