<svg width="50" height="50" viewBox="0 0 50 50" fill="none" xmlns="http://www.w3.org/2000/svg">
<g opacity="0.6">
<path d="M18.2366 9.22763H14.317V5.30798L10.058 5.30798V9.22763H6.14285L6.14285 13.4866H10.058V17.4017H14.317V13.4866H18.2366V9.22763Z" fill="#5BB5A7"/>
<path d="M14.317 18.2946H10.058C9.56696 18.2946 9.16518 17.8928 9.16518 17.4018V14.3794H6.14286C5.65179 14.3794 5.25 13.9777 5.25 13.4866L5.25 9.22765C5.25 8.73658 5.65179 8.3348 6.14286 8.3348H9.16518V5.31247C9.16518 4.8214 9.56696 4.41962 10.058 4.41962L14.317 4.41962C14.808 4.41962 15.2098 4.8214 15.2098 5.31247V8.3348H18.2321C18.7232 8.3348 19.125 8.73658 19.125 9.22765V13.4866C19.125 13.9777 18.7232 14.3794 18.2321 14.3794H15.2098V17.4018C15.2098 17.8928 14.808 18.2946 14.317 18.2946ZM10.9509 16.5089H13.4241V13.4866C13.4241 12.9955 13.8259 12.5937 14.317 12.5937H17.3393V10.1205H14.317C13.8259 10.1205 13.4241 9.71872 13.4241 9.22765V6.20533H10.9509V9.22765C10.9509 9.71872 10.5491 10.1205 10.058 10.1205H7.03571V12.5937H10.058C10.5491 12.5937 10.9509 12.9955 10.9509 13.4866V16.5089Z" fill="#3F5753"/>
<path d="M15.6295 44.9196C20.6124 44.9196 24.6518 40.8802 24.6518 35.8973C24.6518 30.9144 20.6124 26.875 15.6295 26.875C10.6466 26.875 6.60715 30.9144 6.60715 35.8973C6.60715 40.8802 10.6466 44.9196 15.6295 44.9196Z" fill="#BAFAEE"/>
<path d="M15.6295 45.8125C10.1607 45.8125 5.71429 41.366 5.71429 35.8973C5.71429 30.4285 10.1607 25.9821 15.6295 25.9821C21.0982 25.9821 25.5447 30.4285 25.5447 35.8973C25.5447 41.366 21.0982 45.8125 15.6295 45.8125ZM15.6295 27.7678C11.1473 27.7678 7.50001 31.4152 7.50001 35.8973C7.50001 40.3794 11.1473 44.0268 15.6295 44.0268C20.1116 44.0268 23.7589 40.3794 23.7589 35.8973C23.7589 31.4152 20.1116 27.7678 15.6295 27.7678Z" fill="#3F5753"/>
<path d="M18.5312 45.3348C18.1562 45.3348 17.808 45.0937 17.683 44.7187L12.0759 27.5625C11.9241 27.0937 12.1786 26.5893 12.6473 26.4375C13.1161 26.2857 13.6205 26.5402 13.7723 27.0089L19.3795 44.1652C19.5312 44.6339 19.2768 45.1384 18.808 45.2902C18.7143 45.3214 18.6205 45.3348 18.5312 45.3348Z" fill="#3F5753"/>
<path d="M17.4464 31.0223C17.4464 31.0223 19.8705 31.2009 20.9955 34.6339Z" fill="#EE706B"/>
<path d="M20.9955 35.5267C20.6205 35.5267 20.2723 35.2857 20.1473 34.9107C19.2411 32.1428 17.442 31.9196 17.3661 31.9107C16.8839 31.8571 16.5223 31.4285 16.5625 30.9419C16.6071 30.4553 17.0268 30.0892 17.5089 30.1294C17.6339 30.1383 20.5491 30.3973 21.8437 34.3526C21.9955 34.8214 21.7411 35.3258 21.2723 35.4776C21.1786 35.5089 21.0848 35.5223 20.9955 35.5223V35.5267Z" fill="white"/>
<path d="M37.6632 14.2914C36.2033 10.7703 32.1654 9.09941 28.6443 10.5593C25.1232 12.0193 23.4523 16.0572 24.9123 19.5783L32.1193 36.9603C33.5792 40.4814 37.6171 42.1523 41.1382 40.6924C44.6593 39.2325 46.3302 35.1946 44.8703 31.6735L37.6632 14.2914Z" fill="#BAFAEE"/>
<path d="M38.5045 42.1161C35.4464 42.1161 32.5357 40.3036 31.2946 37.308L24.0848 19.9241C22.4375 15.9553 24.3303 11.3839 28.2991 9.7366C30.2232 8.93749 32.3393 8.93749 34.2634 9.7366C36.1875 10.5312 37.6875 12.0312 38.4821 13.9553L45.692 31.3393C47.3393 35.308 45.4464 39.8795 41.4777 41.5268C40.5045 41.9286 39.4955 42.1205 38.5045 42.1205V42.1161ZM31.2857 10.9241C30.5045 10.9241 29.7277 11.0759 28.9821 11.3839C25.9241 12.6518 24.4643 16.1741 25.7321 19.2366L32.942 36.6205C34.2098 39.6786 37.7321 41.1384 40.7946 39.8705C43.8527 38.6027 45.3125 35.0803 44.0446 32.0178L36.8348 14.6339C36.2187 13.1518 35.067 11.9955 33.5803 11.3839C32.8393 11.0759 32.0625 10.9241 31.2812 10.9241H31.2857Z" fill="#3F5753"/>
<path d="M42.5714 37.2277C39.0491 38.6875 35.0134 37.0178 33.5536 33.4955L26.3438 16.1116C25.875 14.9821 25.7321 13.7991 25.8661 12.6607C24.3705 14.558 23.9196 17.1875 24.9107 19.5759L32.1205 36.9598C33.5804 40.4821 37.6161 42.1518 41.1384 40.692C43.5268 39.7009 45.0625 37.5223 45.3482 35.1205C44.6429 36.0178 43.7054 36.7545 42.5759 37.2232L42.5714 37.2277Z" fill="#73E0CF"/>
<path d="M38.5045 42.1161C35.4464 42.1161 32.5357 40.3036 31.2946 37.308L24.0848 19.9241C22.4375 15.9553 24.3303 11.3839 28.2991 9.7366C30.2232 8.93749 32.3393 8.93749 34.2634 9.7366C36.1875 10.5312 37.6875 12.0312 38.4821 13.9553L45.692 31.3393C47.3393 35.308 45.4464 39.8795 41.4777 41.5268C40.5045 41.9286 39.4955 42.1205 38.5045 42.1205V42.1161ZM31.2857 10.9241C30.5045 10.9241 29.7277 11.0759 28.9821 11.3839C25.9241 12.6518 24.4643 16.1741 25.7321 19.2366L32.942 36.6205C34.2098 39.6786 37.7321 41.1384 40.7946 39.8705C43.8527 38.6027 45.3125 35.0803 44.0446 32.0178L36.8348 14.6339C36.2187 13.1518 35.067 11.9955 33.5803 11.3839C32.8393 11.0759 32.0625 10.9241 31.2812 10.9241H31.2857Z" fill="#3F5753"/>
<path d="M28.5178 29.1652C28.1652 29.1652 27.8348 28.9598 27.6919 28.6161C27.5044 28.1607 27.7187 27.6384 28.1741 27.4509L40.9241 22.1652C41.3794 21.9777 41.9018 22.192 42.0893 22.6473C42.2768 23.1027 42.0625 23.625 41.6071 23.8125L28.8571 29.0982C28.7455 29.1429 28.6294 29.1652 28.5178 29.1652Z" fill="#3F5753"/>
<path d="M41.5357 36.4331C41.3884 36.4331 41.2366 36.3973 41.0982 36.317C40.6696 36.0759 40.5134 35.5313 40.7589 35.1027C40.8929 34.8661 40.9821 34.5759 41.0268 34.2456C41.0982 33.692 41 33.0938 40.75 32.5134L39.6071 29.884C39.4107 29.4331 39.6205 28.9063 40.0714 28.7098C40.5268 28.5134 41.0491 28.7188 41.2455 29.1741L42.3884 31.8036C42.7679 32.6786 42.9107 33.6027 42.7991 34.4777C42.7277 35.0357 42.567 35.5402 42.3214 35.9822C42.1563 36.2723 41.8527 36.4375 41.5402 36.4375L41.5357 36.4331Z" fill="white"/>
</g>
</svg>
