<svg width="50" height="50" viewBox="0 0 50 50" fill="none" xmlns="http://www.w3.org/2000/svg">
<g opacity="0.6">
<path d="M41.9955 2.9375L8.00892 2.9375C7.17803 2.9375 6.50446 3.61107 6.50446 4.44196L6.50446 45.558C6.50446 46.3889 7.17803 47.0625 8.00892 47.0625H41.9955C42.8264 47.0625 43.5 46.3889 43.5 45.558V4.44196C43.5 3.61107 42.8264 2.9375 41.9955 2.9375Z" fill="#DFFDF7"/>
<path d="M41.9955 47.9553H8.00447C6.68304 47.9553 5.60715 46.8794 5.60715 45.558L5.60715 4.44194C5.60715 3.12051 6.68304 2.04462 8.00447 2.04462L41.9911 2.04462C43.3125 2.04462 44.3884 3.12051 44.3884 4.44194V45.5625C44.3884 46.8839 43.3125 47.9598 41.9911 47.9598L41.9955 47.9553ZM8.00447 3.83033C7.66965 3.83033 7.39286 4.10265 7.39286 4.44194L7.39286 45.5625C7.39286 45.8973 7.66518 46.1741 8.00447 46.1741H41.9911C42.3259 46.1741 42.6027 45.9018 42.6027 45.5625V4.44194C42.6027 4.10712 42.3304 3.83033 41.9911 3.83033L8.00447 3.83033Z" fill="#3F5753"/>
<path d="M23.4643 2.9375H10.2188V9.99107H23.4643V2.9375Z" fill="#DFFDF7"/>
<path d="M23.4643 10.8839H10.2188C9.72768 10.8839 9.3259 10.4821 9.3259 9.99104V2.93747C9.3259 2.4464 9.72768 2.04462 10.2188 2.04462H23.4643C23.9554 2.04462 24.3571 2.4464 24.3571 2.93747V9.99104C24.3571 10.4821 23.9554 10.8839 23.4643 10.8839ZM11.1116 9.09819H22.5714V3.83033H11.1116V9.09819Z" fill="#3F5753"/>
<path d="M29.2634 9.99106C30.4937 9.99106 31.4911 8.9937 31.4911 7.76338C31.4911 6.53307 30.4937 5.53571 29.2634 5.53571C28.0331 5.53571 27.0357 6.53307 27.0357 7.76338C27.0357 8.9937 28.0331 9.99106 29.2634 9.99106Z" fill="#DFFDF7"/>
<path d="M29.2634 10.8839C27.5446 10.8839 26.1429 9.48657 26.1429 7.76336C26.1429 6.04014 27.5402 4.64282 29.2634 4.64282C30.9866 4.64282 32.3839 6.04014 32.3839 7.76336C32.3839 9.48657 30.9866 10.8839 29.2634 10.8839ZM29.2634 6.42854C28.5268 6.42854 27.9286 7.02675 27.9286 7.76336C27.9286 8.49997 28.5268 9.09818 29.2634 9.09818C30 9.09818 30.5982 8.49997 30.5982 7.76336C30.5982 7.02675 30 6.42854 29.2634 6.42854Z" fill="#3F5753"/>
<path d="M38.0447 9.991C39.275 9.991 40.2723 8.99363 40.2723 7.76332C40.2723 6.53301 39.275 5.53564 38.0447 5.53564C36.8144 5.53564 35.817 6.53301 35.817 7.76332C35.817 8.99363 36.8144 9.991 38.0447 9.991Z" fill="#DFFDF7"/>
<path d="M38.0447 10.8839C37.2455 10.8839 36.4464 10.5803 35.8393 9.97316C34.6205 8.75888 34.6205 6.77673 35.8393 5.56245C37.0536 4.34816 39.0357 4.34816 40.25 5.56245C41.4688 6.77673 41.4688 8.75888 40.25 9.97316C39.6429 10.5803 38.8438 10.8839 38.0447 10.8839ZM38.0447 6.43298C37.7009 6.43298 37.3616 6.56245 37.1027 6.82138C36.5804 7.3437 36.5804 8.18745 37.1027 8.70977C37.625 9.23209 38.4688 9.23209 38.9911 8.70977C39.5134 8.18745 39.5134 7.3437 38.9911 6.82138C38.7322 6.56245 38.3884 6.43298 38.0491 6.43298H38.0447Z" fill="#3F5753"/>
<path d="M6.70981 39.6294H12.3437C13.8928 39.6294 15.1518 40.8883 15.1518 42.4374V46.4598" fill="#DFFDF7"/>
<path d="M15.1518 47.3526C14.6607 47.3526 14.2589 46.9509 14.2589 46.4598V42.4375C14.2589 41.3794 13.4018 40.5223 12.3437 40.5223H6.70981C6.21874 40.5223 5.81696 40.1205 5.81696 39.6294C5.81696 39.1384 6.21874 38.7366 6.70981 38.7366H12.3437C14.3839 38.7366 16.0446 40.3973 16.0446 42.4375V46.4598C16.0446 46.9509 15.6428 47.3526 15.1518 47.3526Z" fill="#3F5753"/>
<path d="M25 40.6741C32.3227 40.6741 38.2589 34.7379 38.2589 27.4152C38.2589 20.0925 32.3227 14.1562 25 14.1562C17.6773 14.1562 11.7411 20.0925 11.7411 27.4152C11.7411 34.7379 17.6773 40.6741 25 40.6741Z" fill="#DFFDF7"/>
<path d="M25 41.5669C17.1964 41.5669 10.8482 35.2187 10.8482 27.4152C10.8482 19.6116 17.1964 13.2634 25 13.2634C32.8036 13.2634 39.1518 19.6116 39.1518 27.4152C39.1518 35.2187 32.8036 41.5669 25 41.5669ZM25 15.0491C18.183 15.0491 12.6339 20.5982 12.6339 27.4152C12.6339 34.2321 18.183 39.7812 25 39.7812C31.817 39.7812 37.3661 34.2321 37.3661 27.4152C37.3661 20.5982 31.817 15.0491 25 15.0491Z" fill="#3F5753"/>
<path d="M25 36.4866C30.01 36.4866 34.0714 32.4252 34.0714 27.4152C34.0714 22.4052 30.01 18.3438 25 18.3438C19.99 18.3438 15.9286 22.4052 15.9286 27.4152C15.9286 32.4252 19.99 36.4866 25 36.4866Z" fill="#5BB5A7"/>
<path d="M25 37.3794C19.5045 37.3794 15.0357 32.9107 15.0357 27.4152C15.0357 21.9196 19.5045 17.4509 25 17.4509C30.4955 17.4509 34.9643 21.9196 34.9643 27.4152C34.9643 32.9107 30.4955 37.3794 25 37.3794ZM25 19.2321C20.4911 19.2321 16.8214 22.9018 16.8214 27.4107C16.8214 31.9196 20.4911 35.5893 25 35.5893C29.5089 35.5893 33.1786 31.9196 33.1786 27.4107C33.1786 22.9018 29.5089 19.2321 25 19.2321Z" fill="#3F5753"/>
<path d="M29.7768 28.308C29.2857 28.308 28.8839 27.9062 28.8839 27.4151C28.8839 25.2723 27.1429 23.5312 25 23.5312C24.5089 23.5312 24.1071 23.1294 24.1071 22.6383C24.1071 22.1473 24.5089 21.7455 25 21.7455C28.125 21.7455 30.6696 24.2901 30.6696 27.4151C30.6696 27.9062 30.2679 28.308 29.7768 28.308Z" fill="white"/>
<path d="M26.4955 31.7142C23.3482 31.3035 20.8705 28.6696 20.6339 25.5089C20.5982 25.0134 20.6161 24.5312 20.6786 24.0625C20.7812 23.3303 19.8393 22.9732 19.4196 23.5803C18.5178 24.8839 18.0625 26.5134 18.2768 28.2634C18.6473 31.3169 21.1205 33.7812 24.1741 34.1428C25.9375 34.3526 27.5848 33.8794 28.8928 32.9598C29.4955 32.5357 29.1295 31.5937 28.3973 31.7053C27.7857 31.7991 27.1473 31.808 26.4955 31.7232V31.7142Z" fill="#6FD3C3"/>
</g>
</svg>
