<svg width="50" height="50" viewBox="0 0 50 50" fill="none" xmlns="http://www.w3.org/2000/svg">
<g opacity="0.6">
<path d="M35.8795 4.46429H13.9643V38.5982H35.8795V4.46429Z" fill="#BAFAEE"/>
<path d="M35.8795 39.4911H13.9643C13.4732 39.4911 13.0714 39.0893 13.0714 38.5982V4.46427C13.0714 3.9732 13.4732 3.57141 13.9643 3.57141H35.8795C36.3706 3.57141 36.7723 3.9732 36.7723 4.46427V38.5982C36.7723 39.0893 36.3706 39.4911 35.8795 39.4911ZM14.8572 37.7053H34.9866V5.35713H14.8572V37.7053Z" fill="#37635F"/>
<path d="M32.3081 8.05359H17.5357V35.0134H32.3081V8.05359Z" fill="#79E7D5"/>
<path d="M32.3125 35.9018H17.5357C17.0447 35.9018 16.6429 35.5 16.6429 35.0089V8.05356C16.6429 7.56249 17.0447 7.16071 17.5357 7.16071H32.3125C32.8036 7.16071 33.2054 7.56249 33.2054 8.05356V35.0134C33.2054 35.5045 32.8036 35.9062 32.3125 35.9062V35.9018ZM18.4286 34.1161H31.4197V8.94642H18.4286V34.1205V34.1161Z" fill="#37635F"/>
<path d="M24.9241 35.2187C24.433 35.2187 24.0312 34.817 24.0312 34.3259V8.05356C24.0312 7.56249 24.433 7.16071 24.9241 7.16071C25.4152 7.16071 25.817 7.56249 25.817 8.05356V34.3304C25.817 34.8214 25.4152 35.2232 24.9241 35.2232V35.2187Z" fill="#37635F"/>
<path d="M32.3125 17.9375H17.5357C17.0447 17.9375 16.6429 17.5357 16.6429 17.0447C16.6429 16.5536 17.0447 16.1518 17.5357 16.1518H32.3125C32.8036 16.1518 33.2054 16.5536 33.2054 17.0447C33.2054 17.5357 32.8036 17.9375 32.3125 17.9375Z" fill="#37635F"/>
<path d="M32.3125 26.9642H17.5357C17.0447 26.9642 16.6429 26.5625 16.6429 26.0714C16.6429 25.5803 17.0447 25.1785 17.5357 25.1785H32.3125C32.8036 25.1785 33.2054 25.5803 33.2054 26.0714C33.2054 26.5625 32.8036 26.9642 32.3125 26.9642Z" fill="#37635F"/>
<path d="M19.4375 10.5893V14.2589C19.4375 14.7366 19.9375 15.0446 20.3705 14.8393C21.3036 14.3928 22.6473 13.2946 22.9464 10.6339C22.9911 10.2544 22.6875 9.91962 22.3036 9.91962H20.1116C19.7411 9.91962 19.4375 10.2232 19.4375 10.5937V10.5893Z" fill="#EEEEEE"/>
<path d="M26.8705 10.5893V14.2589C26.8705 14.7366 27.3705 15.0446 27.8036 14.8393C28.7366 14.3928 30.0804 13.2946 30.3795 10.6339C30.4241 10.2544 30.1205 9.91962 29.7366 9.91962H27.5447C27.1741 9.91962 26.8705 10.2232 26.8705 10.5937V10.5893Z" fill="#EEEEEE"/>
<path d="M19.4509 19.5759V23.2455C19.4509 23.7232 19.9509 24.0312 20.3839 23.8259C21.317 23.3795 22.6607 22.2813 22.9598 19.6205C23.0045 19.2411 22.7009 18.9062 22.317 18.9062H20.125C19.7545 18.9062 19.4509 19.2098 19.4509 19.5804V19.5759Z" fill="#EEEEEE"/>
<path d="M26.8839 19.5759V23.2455C26.8839 23.7232 27.3839 24.0312 27.817 23.8259C28.75 23.3795 30.0938 22.2813 30.3929 19.6205C30.4375 19.2411 30.1339 18.9062 29.75 18.9062H27.558C27.1875 18.9062 26.8839 19.2098 26.8839 19.5804V19.5759Z" fill="#EEEEEE"/>
<path d="M19.4509 28.5268V32.1964C19.4509 32.6741 19.9509 32.9821 20.3839 32.7768C21.317 32.3303 22.6607 31.2321 22.9598 28.5714C23.0045 28.1919 22.7009 27.8571 22.317 27.8571H20.125C19.7545 27.8571 19.4509 28.1607 19.4509 28.5312V28.5268Z" fill="#EEEEEE"/>
<path d="M26.8839 28.5268V32.1964C26.8839 32.6741 27.3839 32.9821 27.817 32.7768C28.75 32.3303 30.0938 31.2321 30.3929 28.5714C30.4375 28.1919 30.1339 27.8571 29.75 27.8571H27.558C27.1875 27.8571 26.8839 28.1607 26.8839 28.5312V28.5268Z" fill="#EEEEEE"/>
<path d="M13.9643 31.6384H2.24554V38.5982H13.9643V31.6384Z" fill="#6ED5C5"/>
<path d="M13.9643 39.4911H2.24555C1.75448 39.4911 1.35269 39.0893 1.35269 38.5982V31.6384C1.35269 31.1473 1.75448 30.7455 2.24555 30.7455H13.9643C14.4554 30.7455 14.8572 31.1473 14.8572 31.6384V38.5982C14.8572 39.0893 14.4554 39.4911 13.9643 39.4911ZM3.13841 37.7054H13.0714V32.5313H3.13841V37.7054Z" fill="#37635F"/>
<path d="M19.1518 38.5759H7.43304V45.5357H19.1518V38.5759Z" fill="#6ED5C5"/>
<path d="M19.1518 46.4286H7.43305C6.94198 46.4286 6.54019 46.0268 6.54019 45.5357V38.5759C6.54019 38.0848 6.94198 37.683 7.43305 37.683H19.1518C19.6429 37.683 20.0447 38.0848 20.0447 38.5759V45.5357C20.0447 46.0268 19.6429 46.4286 19.1518 46.4286ZM8.32591 44.6429H18.2589V39.4688H8.32591V44.6429Z" fill="#37635F"/>
<path d="M30.8705 38.5759H19.1518V45.5357H30.8705V38.5759Z" fill="#4F9D91"/>
<path d="M30.875 46.4286H19.1563C18.6652 46.4286 18.2634 46.0268 18.2634 45.5357V38.5759C18.2634 38.0848 18.6652 37.683 19.1563 37.683H30.875C31.3661 37.683 31.7679 38.0848 31.7679 38.5759V45.5357C31.7679 46.0268 31.3661 46.4286 30.875 46.4286ZM20.0446 44.6429H29.9777V39.4688H20.0446V44.6429Z" fill="#37635F"/>
<path d="M42.5937 38.5759H30.875V45.5357H42.5937V38.5759Z" fill="#6ED5C5"/>
<path d="M42.5938 46.4286H30.875C30.3839 46.4286 29.9821 46.0268 29.9821 45.5357V38.5759C29.9821 38.0848 30.3839 37.683 30.875 37.683H42.5938C43.0848 37.683 43.4866 38.0848 43.4866 38.5759V45.5357C43.4866 46.0268 43.0848 46.4286 42.5938 46.4286ZM31.7679 44.6429H41.7009V39.4688H31.7679V44.6429Z" fill="#37635F"/>
<path d="M47.7768 31.6384H36.058V38.5982H47.7768V31.6384Z" fill="#4F9D91"/>
<path d="M47.7813 39.4911H36.0625C35.5714 39.4911 35.1696 39.0893 35.1696 38.5982V31.6384C35.1696 31.1473 35.5714 30.7455 36.0625 30.7455H47.7813C48.2723 30.7455 48.6741 31.1473 48.6741 31.6384V38.5982C48.6741 39.0893 48.2723 39.4911 47.7813 39.4911ZM36.9509 37.7054H46.8839V32.5313H36.9509V37.7054Z" fill="#37635F"/>
</g>
</svg>
