<svg width="50" height="50" viewBox="0 0 50 50" fill="none" xmlns="http://www.w3.org/2000/svg">
<g opacity="0.6">
<path d="M31.567 14.8036H11.6071V49.1072H31.567V14.8036Z" fill="#DFFDF7"/>
<path d="M31.567 50H11.6072C11.1161 50 10.7143 49.5982 10.7143 49.1071V14.8036C10.7143 14.3125 11.1161 13.9107 11.6072 13.9107H31.567C32.058 13.9107 32.4598 14.3125 32.4598 14.8036V49.1071C32.4598 49.5982 32.058 50 31.567 50ZM12.5 48.2143H30.6741V15.6964H12.5V48.2143Z" fill="#3F5753"/>
<path d="M17.3973 0.892883H32.6339C33.9375 0.892883 34.9956 1.95092 34.9956 3.25449V6.39735H15.0357V3.25449C15.0357 1.95092 16.0938 0.892883 17.3973 0.892883Z" fill="#BAFAEE"/>
<path d="M34.9956 7.29018H15.0357C14.5447 7.29018 14.1429 6.88839 14.1429 6.39732V3.25446C14.1429 1.45982 15.6027 0 17.3973 0H32.634C34.4286 0 35.8884 1.45982 35.8884 3.25446V6.39732C35.8884 6.88839 35.4866 7.29018 34.9956 7.29018ZM15.9286 5.50446H34.1027V3.25446C34.1027 2.44196 33.442 1.78571 32.634 1.78571H17.3973C16.5848 1.78571 15.9286 2.44643 15.9286 3.25446V5.50446Z" fill="#3F5753"/>
<path d="M34.9956 6.39728H15.0357L11.6072 14.8035H31.567L34.9956 6.39728Z" fill="#DFFDF7"/>
<path d="M31.567 15.6964H11.6072C11.3081 15.6964 11.0313 15.5491 10.8661 15.3035C10.7009 15.058 10.6697 14.7455 10.7813 14.4687L14.2098 6.06694C14.3482 5.73212 14.6741 5.51337 15.0357 5.51337H34.9956C35.2947 5.51337 35.5714 5.66069 35.7366 5.90622C35.9018 6.15176 35.9331 6.46426 35.8214 6.74105L32.3929 15.1428C32.2545 15.4777 31.9286 15.6964 31.567 15.6964ZM12.9331 13.9107H30.9643L33.6607 7.29462H15.6295L12.9286 13.9107H12.9331Z" fill="#3F5753"/>
<path d="M31.567 14.8036L34.9956 6.39734H34.9643L38.3929 14.8036V49.1072H31.567V14.8036Z" fill="#DFFDF7"/>
<path d="M38.3929 50H31.567C31.0759 50 30.6741 49.5982 30.6741 49.1071V14.8036C30.6741 14.6875 30.6965 14.5714 30.7411 14.4643L34.0804 6.27231C34.0982 6.13838 34.1473 6.01338 34.2232 5.89731C34.3884 5.65178 34.6652 5.50446 34.9643 5.50446C35.2634 5.50446 35.5536 5.65178 35.7188 5.89731C35.7902 5.99999 35.8348 6.11606 35.8616 6.2366L39.2188 14.4643C39.2634 14.5714 39.2857 14.6875 39.2857 14.8036V49.1071C39.2857 49.5982 38.884 50 38.3929 50ZM32.4598 48.2143H37.5V14.9777L34.9822 8.7991L32.4643 14.9777V48.2143H32.4598Z" fill="#3F5753"/>
<path d="M25 23.2321H16.4643C15.9732 23.2321 15.5714 22.8303 15.5714 22.3393C15.5714 21.8482 15.9732 21.4464 16.4643 21.4464H25C25.4911 21.4464 25.8929 21.8482 25.8929 22.3393C25.8929 22.8303 25.4911 23.2321 25 23.2321Z" fill="#3F5753"/>
<path d="M19.3304 26.75H16.4643C15.9732 26.75 15.5714 26.3482 15.5714 25.8572C15.5714 25.3661 15.9732 24.9643 16.4643 24.9643H19.3304C19.8214 24.9643 20.2232 25.3661 20.2232 25.8572C20.2232 26.3482 19.8214 26.75 19.3304 26.75Z" fill="#3F5753"/>
<path d="M17.2322 31.402C18.4822 34.2636 18.0893 34.9556 18.0893 34.9556C18.0893 34.9556 15.2232 35.2994 14.8527 36.902C14.8527 36.902 16.8304 37.9511 18.0893 37.5806" fill="white"/>
<path d="M17.4911 38.5493C16.1027 38.5493 14.6295 37.7904 14.433 37.6877C14.0759 37.5002 13.8929 37.094 13.9822 36.6967C14.3482 35.1118 16.1518 34.4601 17.2188 34.2056C17.1518 33.777 16.9598 33.0092 16.4107 31.7547C16.2143 31.3038 16.4197 30.777 16.8705 30.5806C17.3259 30.3842 17.8482 30.5895 18.0447 31.0404C19.2232 33.7458 19.1384 34.8976 18.8572 35.3931C18.7188 35.6386 18.4688 35.8038 18.1875 35.8395C17.5804 35.9154 16.7411 36.1565 16.2098 36.5092C16.8036 36.7101 17.4375 36.8351 17.8304 36.7234C18.3036 36.5851 18.7991 36.8574 18.9375 37.3261C19.0759 37.7993 18.808 38.2949 18.3304 38.4333C18.0625 38.5136 17.7723 38.5449 17.4822 38.5449L17.4911 38.5493Z" fill="#3F5753"/>
<path d="M26.442 9.67416C26.442 11.1474 24.6339 12.3438 22.4018 12.3438C20.1696 12.3438 18.3616 11.1474 18.3616 9.67416V7.00452H26.442V9.67416Z" fill="#5BB5A7"/>
<path d="M22.4018 13.2366C19.6339 13.2366 17.4688 11.6697 17.4688 9.67413V7.00449C17.4688 6.51342 17.8705 6.11163 18.3616 6.11163H26.442C26.933 6.11163 27.3348 6.51342 27.3348 7.00449V9.67413C27.3348 11.6741 25.1696 13.2366 22.4018 13.2366ZM19.2545 7.89735V9.67413C19.2545 10.5134 20.5446 11.4509 22.4018 11.4509C24.2589 11.4509 25.5491 10.5134 25.5491 9.67413V7.89735H19.2545Z" fill="#3F5753"/>
<path d="M22.4018 9.3438C24.6331 9.3438 26.442 8.14856 26.442 6.67416C26.442 5.19976 24.6331 4.00452 22.4018 4.00452C20.1705 4.00452 18.3616 5.19976 18.3616 6.67416C18.3616 8.14856 20.1705 9.3438 22.4018 9.3438Z" fill="#5BB5A7"/>
<path d="M22.4018 10.2366C19.6339 10.2366 17.4688 8.66967 17.4688 6.67413C17.4688 4.6786 19.6339 3.11163 22.4018 3.11163C25.1696 3.11163 27.3348 4.6786 27.3348 6.67413C27.3348 8.66967 25.1696 10.2366 22.4018 10.2366ZM22.4018 4.89735C20.5491 4.89735 19.2545 5.83485 19.2545 6.67413C19.2545 7.51342 20.5446 8.45092 22.4018 8.45092C24.2589 8.45092 25.5491 7.51342 25.5491 6.67413C25.5491 5.83485 24.2589 4.89735 22.4018 4.89735Z" fill="#3F5753"/>
<path d="M25.0134 37.5047C25.0134 37.5047 26.8527 37.4333 28.2813 36.8619C28.2813 36.8619 27.1072 34.6877 25.5625 34.8217" fill="white"/>
<path d="M25.0134 38.3976C24.5357 38.3976 24.1429 38.0226 24.1206 37.5404C24.1027 37.0493 24.4866 36.6342 24.9777 36.6118C24.9911 36.6118 25.8616 36.5717 26.817 36.3663C26.4598 35.9868 26.0357 35.6788 25.6384 35.7101C25.1429 35.7502 24.7143 35.3886 24.6741 34.8976C24.634 34.4065 24.9956 33.9734 25.4866 33.9333C27.5536 33.7547 28.9197 36.1654 29.067 36.4377C29.1875 36.6609 29.2099 36.9288 29.1206 37.1654C29.0313 37.402 28.8482 37.594 28.6116 37.6922C27.0581 38.3127 25.1295 38.3931 25.0447 38.3976C25.0313 38.3976 25.0223 38.3976 25.009 38.3976H25.0134Z" fill="#3F5753"/>
<path d="M18.0893 34.9556H25.0179V42.4556C25.0179 43.2681 24.3572 43.9288 23.5447 43.9288H19.567C18.7545 43.9288 18.0938 43.2681 18.0938 42.4556V34.9556H18.0893Z" fill="white"/>
<path d="M23.5402 44.8217H19.5625C18.259 44.8217 17.1965 43.7592 17.1965 42.4556V34.9556C17.1965 34.4645 17.5983 34.0627 18.0893 34.0627H25.0179C25.509 34.0627 25.9108 34.4645 25.9108 34.9556V42.4556C25.9108 43.7592 24.8483 44.8217 23.5447 44.8217H23.5402ZM18.9822 35.844V42.4511C18.9822 42.7726 19.2411 43.0315 19.5625 43.0315H23.5402C23.8617 43.0315 24.1206 42.7726 24.1206 42.4511V35.844H18.9777H18.9822Z" fill="#3F5753"/>
<path d="M24.9241 35.8663C24.5224 35.8663 24.1518 35.5851 24.0491 35.1788C23.9956 34.969 23.7768 33.7949 24.8304 31.0761C25.009 30.6163 25.5268 30.3886 25.9866 30.5672C26.4465 30.7458 26.6741 31.2636 26.4956 31.7235C25.6518 33.8886 25.7857 34.7592 25.7857 34.7681C25.9107 35.2458 25.6206 35.7145 25.1429 35.8395C25.0715 35.8574 24.9956 35.8663 24.9241 35.8663Z" fill="#3F5753"/>
<path d="M18.0893 40.152H25.0179V42.4556C25.0179 43.2681 24.3572 43.9288 23.5447 43.9288H19.567C18.7545 43.9288 18.0938 43.2681 18.0938 42.4556V40.152H18.0893Z" fill="#6ED5C5"/>
<path d="M23.5402 44.8217H19.5625C18.259 44.8217 17.1965 43.7592 17.1965 42.4556V40.152C17.1965 39.6609 17.5983 39.2592 18.0893 39.2592H25.0179C25.509 39.2592 25.9108 39.6609 25.9108 40.152V42.4556C25.9108 43.7592 24.8483 44.8217 23.5447 44.8217H23.5402ZM18.9822 41.0449V42.4556C18.9822 42.777 19.2411 43.0359 19.5625 43.0359H23.5402C23.8617 43.0359 24.1206 42.777 24.1206 42.4556V41.0449H18.9777H18.9822Z" fill="#3F5753"/>
</g>
</svg>
