<svg width="50" height="50" viewBox="0 0 50 50" fill="none" xmlns="http://www.w3.org/2000/svg">
<g opacity="0.6" clip-path="url(#clip0_5735_33134)">
<path d="M9.53128 6.9733C9.53128 6.9733 3.66521 8.97777 2.95093 45.893L7.67415 47.326C7.67415 47.326 11.6429 42.2635 11.4554 39.7233C11.2679 37.1831 15.7857 23.018 14.5447 13.701C13.3036 4.38402 9.53575 6.97777 9.53575 6.97777L9.53128 6.9733Z" fill="#5BB5A7"/>
<path d="M7.66977 48.2144C7.58495 48.2144 7.49566 48.201 7.41084 48.1742L2.68763 46.7411C2.3037 46.6251 2.04477 46.2679 2.0537 45.8706C2.72333 11.3974 7.7903 6.79025 9.11172 6.17865C9.64744 5.85275 10.7412 5.49561 11.8885 6.00454C13.6698 6.79472 14.8617 9.34383 15.4242 13.5804C16.2858 20.0492 14.4644 28.6742 13.259 34.3795C12.7412 36.8394 12.2903 38.9599 12.3439 39.6563C12.5492 42.4644 8.8037 47.3304 8.37959 47.8751C8.20548 48.0938 7.94655 48.2188 7.6787 48.2188L7.66977 48.2144ZM3.8528 45.2322L7.33495 46.2858C8.76798 44.3528 10.6653 41.2501 10.5582 39.7813C10.4912 38.8795 10.8394 37.1786 11.509 34.0045C12.6876 28.4153 14.4733 19.9733 13.6519 13.8081C13.009 8.97775 11.7099 7.884 11.1832 7.63847C10.5849 7.36168 10.0492 7.69204 10.0269 7.7099C9.93762 7.76793 9.93762 7.78579 9.86172 7.80365C9.40637 8.14293 4.55369 12.5492 3.85727 45.2278L3.8528 45.2322Z" fill="#004241"/>
<path d="M40.4734 6.97306C40.4734 6.97306 46.3395 8.97753 47.0537 45.8927L42.3305 47.3258C42.3305 47.3258 38.3618 42.2633 38.5493 39.7231C38.7368 37.1829 34.2189 23.0177 35.46 13.7007C36.7011 4.38377 40.4689 6.97752 40.4689 6.97752L40.4734 6.97306Z" fill="#5BB5A7"/>
<path d="M42.335 48.2142C42.0671 48.2142 41.8037 48.0937 41.6341 47.8704C41.2055 47.3258 37.46 42.4553 37.6698 39.6517C37.7189 38.9597 37.2725 36.8347 36.7546 34.3749C35.5493 28.6695 33.7278 20.0445 34.5894 13.5758C35.1519 9.34365 36.3439 6.79454 38.1252 5.9999C39.2725 5.49097 40.3662 5.84812 40.9019 6.17401C42.2278 6.78562 47.2903 11.3928 47.96 45.8704C47.9689 46.2722 47.71 46.6249 47.3261 46.741L42.6028 48.174C42.518 48.2008 42.4287 48.2142 42.3439 48.2142H42.335ZM39.3216 7.53561C39.1698 7.53561 39.0002 7.5624 38.8216 7.64722C38.2948 7.89276 36.9957 8.98651 36.3528 13.8169C35.5314 19.982 37.3171 28.424 38.4957 34.0133C39.1653 37.1874 39.5136 38.8838 39.4466 39.7901C39.3394 41.2588 41.2368 44.3615 42.6698 46.2945L46.1519 45.241C45.4243 11.1428 40.2412 7.84365 40.1877 7.82579C40.1162 7.79901 40.0448 7.76776 39.9823 7.72311C39.9555 7.70526 39.6877 7.54454 39.326 7.54454L39.3216 7.53561Z" fill="#004241"/>
<path d="M18.6875 2.67847C18.6875 2.67847 21.4062 4.25436 25.125 4.25436C28.8437 4.25436 31.9911 2.67847 31.9911 2.67847C31.9911 2.67847 38.8571 5.1115 41.1473 7.54454C41.1473 7.54454 38.1429 12.4106 38.1429 22.2811C38.1429 32.1517 40.2902 34.8749 38.5714 43.3169H11.9643C11.9643 43.3169 10.2455 35.3035 11.9643 26.1472C13.683 16.991 9.53125 6.97311 9.53125 6.97311C9.53125 6.97311 13.6786 3.1115 18.6875 2.67847Z" fill="#5BB5A7"/>
<path d="M38.576 44.2097H11.9643C11.5447 44.2097 11.1786 43.9151 11.0893 43.5043C11.0179 43.1695 9.35274 35.2097 11.0893 25.982C12.7367 17.1874 8.75006 7.41058 8.70988 7.31683C8.56702 6.97308 8.65184 6.57576 8.92417 6.3213C9.10274 6.15612 13.3617 2.24094 18.6161 1.79451C18.7992 1.78112 18.9822 1.8213 19.1385 1.91058C19.192 1.94183 21.7322 3.36594 25.1295 3.36594C28.5268 3.36594 31.567 1.90166 31.5983 1.88826C31.817 1.78112 32.067 1.76326 32.2947 1.84362C32.5849 1.9463 39.3929 4.37933 41.8036 6.93737C42.0804 7.23201 42.1251 7.67398 41.9152 8.01773C41.8885 8.06237 39.0447 12.8347 39.0447 22.2856C39.0447 26.1651 39.384 28.9374 39.6786 31.3838C40.1295 35.0847 40.5179 38.2767 39.4554 43.4999C39.3706 43.9151 39.0045 44.2142 38.5804 44.2142L38.576 44.2097ZM12.7054 42.424H37.8393C38.6697 37.9106 38.3304 35.1026 37.9018 31.5936C37.5983 29.0981 37.2545 26.2677 37.2545 22.2811C37.2545 14.1874 39.2233 9.37933 40.0447 7.72308C37.9108 5.91058 33.317 4.12487 32.0358 3.64273C31.0715 4.06683 28.317 5.14273 25.1295 5.14273C21.942 5.14273 19.3126 3.99987 18.509 3.58916C14.884 3.99541 11.7367 6.30344 10.5938 7.23201C11.4733 9.58023 14.3661 18.1829 12.8438 26.3034C11.4688 33.6293 12.3527 40.2856 12.7099 42.4151L12.7054 42.424Z" fill="#004241"/>
<path d="M10.2144 44.3615C10.143 44.3615 10.0715 44.3526 10.0001 44.3347L3.23226 42.6695C2.75458 42.5535 2.45993 42.0669 2.58047 41.5892C2.69654 41.1115 3.18315 40.8169 3.66083 40.9374L10.4287 42.6026C10.9064 42.7187 11.201 43.2053 11.0805 43.6829C10.9823 44.0892 10.6162 44.3615 10.2144 44.3615Z" fill="#004241"/>
<path d="M39.7681 43.9286C39.3618 43.9286 38.9958 43.6518 38.902 43.2411C38.7904 42.759 39.085 42.2813 39.5672 42.1652L46.0672 40.6295C46.5449 40.5134 47.027 40.8125 47.1431 41.2947C47.2547 41.7768 46.9601 42.2545 46.4779 42.3706L39.9779 43.9063C39.9109 43.9241 39.8395 43.9286 39.7725 43.9286H39.7681Z" fill="#004241"/>
<path d="M38.9421 42.2634H11.3171L11.3171 47.3215H38.9421L38.9421 42.2634Z" fill="#5BB5A7"/>
<path d="M38.9422 48.2144H11.3172C10.8261 48.2144 10.4243 47.8126 10.4243 47.3215L10.4243 42.2635C10.4243 41.7724 10.8261 41.3706 11.3172 41.3706H38.9422C39.4332 41.3706 39.835 41.7724 39.835 42.2635L39.835 47.3215C39.835 47.8126 39.4332 48.2144 38.9422 48.2144ZM12.21 46.4286H38.0493L38.0493 43.1563H12.21L12.21 46.4286Z" fill="#004241"/>
<path d="M25.1295 10.8124C31.9956 10.8124 31.9956 2.67847 31.9956 2.67847C31.9956 2.67847 28.8483 4.25436 25.1295 4.25436C21.4108 4.25436 18.692 2.67847 18.692 2.67847C18.692 2.67847 18.2635 10.8124 25.134 10.8124H25.1295Z" fill="#BAFAEE"/>
<path d="M25.1296 11.7053C23.0492 11.7053 21.3528 11.0312 20.0939 9.70532C17.5939 7.07139 17.7858 2.81246 17.7948 2.63389C17.8126 2.32139 17.9867 2.0446 18.259 1.89728C18.5314 1.74996 18.8617 1.75442 19.134 1.91067C19.1564 1.92407 21.7099 3.36603 25.1251 3.36603C28.5403 3.36603 31.5671 1.90174 31.5939 1.88389C31.8706 1.74549 32.201 1.76335 32.4644 1.92407C32.7278 2.08478 32.8885 2.37496 32.8885 2.68299C32.8885 5.80353 31.268 11.7098 25.1296 11.7098L25.1296 11.7053ZM19.643 4.09817C19.7814 5.3571 20.1921 7.21424 21.3974 8.4821C22.3037 9.43746 23.5626 9.9196 25.1296 9.9196C29.451 9.9196 30.6474 6.17407 30.9778 4.06692C29.6474 4.54907 27.509 5.14728 25.1296 5.14728C22.7501 5.14728 20.8707 4.58032 19.643 4.09817Z" fill="#004241"/>
<path d="M27.3839 6.25H23.2946C22.9076 6.25 22.5938 6.5638 22.5938 6.95089L22.5938 7.57589C22.5938 7.96299 22.9076 8.27679 23.2946 8.27679H27.3839C27.771 8.27679 28.0848 7.96299 28.0848 7.57589L28.0848 6.95089C28.0848 6.5638 27.771 6.25 27.3839 6.25Z" fill="#DFFDF7"/>
</g>
<defs>
<clipPath id="clip0_5735_33134">
<rect width="50" height="50" fill="white"/>
</clipPath>
</defs>
</svg>
