<svg width="50" height="50" viewBox="0 0 50 50" fill="none" xmlns="http://www.w3.org/2000/svg">
<g opacity="0.6" clip-path="url(#clip0_5735_33184)">
<path d="M18.25 10.6519H34.9821V17.0536C34.9821 20.2813 32.3616 22.8974 29.1384 22.8974H24.0938C20.8661 22.8974 18.25 20.2769 18.25 17.0536V10.6519Z" fill="#6ED5C5"/>
<path d="M21.491 10.6519H31.7454V14.6028C31.7454 17.0537 29.7544 19.0448 27.3035 19.0448H26.1606C23.5847 19.0448 21.491 16.951 21.491 14.3751V10.6475V10.6519Z" fill="#DFFDF7"/>
<path d="M29.1384 23.7947H24.0938C20.3795 23.7947 17.3572 20.7724 17.3572 17.0581V10.6563C17.3572 10.1652 17.759 9.76343 18.25 9.76343H34.9822C35.4732 9.76343 35.875 10.1652 35.875 10.6563V17.0581C35.875 20.7724 32.8527 23.7947 29.1384 23.7947ZM19.1429 11.5491V17.0581C19.1429 19.7902 21.3661 22.009 24.0938 22.009H29.1384C31.8706 22.009 34.0893 19.7857 34.0893 17.0581V11.5491H19.1429Z" fill="#3F5753"/>
<path d="M35.4865 38.6294H27.9017C27.4106 38.6294 27.0088 38.2276 27.0088 37.7365C27.0088 37.2454 27.4106 36.8437 27.9017 36.8437H35.4865C36.2678 36.8437 36.9999 36.5401 37.549 35.991L38.107 35.4329C39.174 34.366 39.2544 32.6829 38.2945 31.5133C37.7365 30.8392 36.9195 30.4508 36.0445 30.4508H31.7454C29.9553 30.4508 28.5178 29.8704 27.4686 28.7321C25.4329 26.5133 25.7142 22.9731 25.7276 22.8258C25.7722 22.3347 26.2053 21.9731 26.6963 22.0133C27.1874 22.0579 27.549 22.4865 27.5088 22.9776C27.5088 23.0267 27.2901 25.9017 28.7901 27.5312C29.4954 28.2946 30.4597 28.6696 31.7454 28.6696H36.0445C37.4553 28.6696 38.7767 29.2946 39.674 30.3838C41.2231 32.2633 41.0892 34.9776 39.3704 36.7008L38.8124 37.2588C37.924 38.1472 36.741 38.6383 35.4865 38.6383V38.6294Z" fill="#3F5753"/>
<path d="M27.9017 35.0491H10.1472V43.0446H27.9017V35.0491Z" fill="#5BB5A7"/>
<path d="M27.9017 43.9419H10.1473C9.65618 43.9419 9.25439 43.5401 9.25439 43.049V35.0535C9.25439 34.5624 9.65618 34.1606 10.1473 34.1606H27.9017C28.3928 34.1606 28.7946 34.5624 28.7946 35.0535V43.049C28.7946 43.5401 28.3928 43.9419 27.9017 43.9419ZM11.0401 42.1562H27.0089V35.9464H11.0401V42.1562Z" fill="#3F5753"/>
<path d="M24.8348 4.28125V10.6518H21.5803V4.28125C21.5803 3.38393 22.308 2.65625 23.2053 2.65625C24.1026 2.65625 24.8303 3.38393 24.8303 4.28125H24.8348Z" fill="#5BB5A7"/>
<path d="M24.8348 11.5447H21.5804C21.0893 11.5447 20.6875 11.1429 20.6875 10.6518V4.28128C20.6875 2.89289 21.817 1.76343 23.2054 1.76343C24.5938 1.76343 25.7232 2.89289 25.7232 4.28128V10.6518C25.7232 11.1429 25.3214 11.5447 24.8304 11.5447H24.8348ZM22.4732 9.75896H23.942V4.28128C23.942 3.87503 23.6116 3.54914 23.2098 3.54914C22.808 3.54914 22.4777 3.8795 22.4777 4.28128V9.75896H22.4732Z" fill="#3F5753"/>
<path d="M31.7454 4.28125V10.6518H28.491V4.28125C28.491 3.38393 29.2186 2.65625 30.116 2.65625C31.0133 2.65625 31.741 3.38393 31.741 4.28125H31.7454Z" fill="#5BB5A7"/>
<path d="M31.7455 11.5447H28.491C27.9999 11.5447 27.5981 11.1429 27.5981 10.6518V4.28128C27.5981 2.89289 28.7276 1.76343 30.116 1.76343C31.5044 1.76343 32.6339 2.89289 32.6339 4.28128V10.6518C32.6339 11.1429 32.2321 11.5447 31.741 11.5447H31.7455ZM29.3839 9.75896H30.8526V4.28128C30.8526 3.87503 30.5223 3.54914 30.1205 3.54914C29.7187 3.54914 29.3883 3.8795 29.3883 4.28128V9.75896H29.3839Z" fill="#3F5753"/>
<path d="M27.9017 43.0491H10.1472V47.3482H27.9017V43.0491Z" fill="#4F9D91"/>
<path d="M27.9017 48.2367H10.1473C9.65618 48.2367 9.25439 47.8349 9.25439 47.3438V43.0447C9.25439 42.5536 9.65618 42.1519 10.1473 42.1519H27.9017C28.3928 42.1519 28.7946 42.5536 28.7946 43.0447V47.3438C28.7946 47.8349 28.3928 48.2367 27.9017 48.2367ZM11.0401 46.451H27.0089V43.9376H11.0401V46.451Z" fill="#3F5753"/>
<path d="M14.2946 40.7635C15.2414 40.7635 16.0089 39.996 16.0089 39.0492C16.0089 38.1025 15.2414 37.335 14.2946 37.335C13.3478 37.335 12.5803 38.1025 12.5803 39.0492C12.5803 39.996 13.3478 40.7635 14.2946 40.7635Z" fill="#009081"/>
<path d="M39.8525 46.0894H27.9016C27.4106 46.0894 27.0088 45.6876 27.0088 45.1966C27.0088 44.7055 27.4106 44.3037 27.9016 44.3037H39.8525C40.3436 44.3037 40.7454 44.7055 40.7454 45.1966C40.7454 45.6876 40.3436 46.0894 39.8525 46.0894Z" fill="#3F5753"/>
</g>
<defs>
<clipPath id="clip0_5735_33184">
<rect width="50" height="50" fill="white"/>
</clipPath>
</defs>
</svg>
