<svg width="50" height="50" viewBox="0 0 50 50" fill="none" xmlns="http://www.w3.org/2000/svg">
<g opacity="0.6" clip-path="url(#clip0_5735_33206)">
<path d="M11.7413 24.2811C9.48237 21.165 7.31719 17.2141 6.08058 14.8302C5.58058 13.8704 6.27701 12.7275 7.35737 12.7275H12.5181" fill="#9FDECF"/>
<path d="M11.7412 25.174C11.4644 25.174 11.1921 25.0445 11.018 24.8035C8.79475 21.7365 6.67421 17.9106 5.28582 15.241C4.90636 14.5133 4.93314 13.6561 5.36171 12.9553C5.79029 12.2544 6.53582 11.8347 7.35725 11.8347H12.518C13.009 11.8347 13.4108 12.2365 13.4108 12.7276C13.4108 13.2186 13.009 13.6204 12.518 13.6204H7.35725C7.08046 13.6204 6.93761 13.8035 6.8885 13.8838C6.83939 13.9642 6.74118 14.174 6.87064 14.4195C7.98225 16.5579 10.1921 20.6204 12.4644 23.7588C12.7546 24.1561 12.6653 24.7186 12.2635 25.0044C12.1072 25.1204 11.9197 25.174 11.7412 25.174Z" fill="#3F5753"/>
<path d="M24.3481 3.57568C18.0803 3.57568 12.8972 8.44622 12.5044 14.7007L10.5222 41.9596H38.174L36.1919 14.7007C35.799 8.44622 30.616 3.57568 24.3481 3.57568Z" fill="#9FDECF"/>
<path d="M38.1741 42.8526H10.5223C10.2723 42.8526 10.0357 42.7499 9.87054 42.5669C9.7009 42.3838 9.61608 42.1427 9.63393 41.8927L11.6161 14.6338C12.0357 7.93293 17.6295 2.67847 24.3482 2.67847C31.067 2.67847 36.6607 7.93293 37.0804 14.6428L39.0625 41.8927C39.0804 42.1383 38.9955 42.3838 38.8259 42.5669C38.6563 42.7499 38.4196 42.8526 38.1741 42.8526ZM11.4821 41.0669H37.2143L35.2991 14.7678C34.9375 8.99097 30.125 4.46865 24.3482 4.46865C18.5714 4.46865 13.7589 8.9865 13.3973 14.7588L11.4821 41.0669Z" fill="#3F5753"/>
<path d="M10.4466 41.9597H38.2903C39.4867 41.9597 40.46 42.9329 40.46 44.1294V46.424H8.27246V44.1294C8.27246 42.9329 9.24567 41.9597 10.4421 41.9597H10.4466Z" fill="#76C1A8"/>
<path d="M40.4555 47.3169H8.2725C7.78142 47.3169 7.37964 46.9151 7.37964 46.424V44.1294C7.37964 42.4419 8.75464 41.0669 10.4421 41.0669H38.2859C39.9734 41.0669 41.3484 42.4419 41.3484 44.1294V46.424C41.3484 46.9151 40.9466 47.3169 40.4555 47.3169ZM9.16535 45.5312H39.5627V44.1294C39.5627 43.424 38.9912 42.8526 38.2859 42.8526H10.4466C9.74125 42.8526 9.16982 43.424 9.16982 44.1294V45.5312H9.16535Z" fill="#3F5753"/>
<path d="M31.3973 18.3034C31.3973 16.8216 30.1961 15.6204 28.7143 15.6204C27.2325 15.6204 26.0312 16.8216 26.0312 18.3034V32.4418C26.0312 33.9236 27.2325 35.1248 28.7143 35.1248C30.1961 35.1248 31.3973 33.9236 31.3973 32.4418V18.3034Z" fill="#6FD3C3"/>
<path d="M28.7143 36.0222C26.7411 36.0222 25.1384 34.4195 25.1384 32.4463V18.3034C25.1384 16.3302 26.7411 14.7275 28.7143 14.7275C30.6875 14.7275 32.2902 16.3302 32.2902 18.3034V32.4463C32.2902 34.4195 30.6875 36.0222 28.7143 36.0222ZM28.7143 16.5177C27.7277 16.5177 26.9241 17.3213 26.9241 18.3079V32.4508C26.9241 33.4374 27.7277 34.2409 28.7143 34.2409C29.7009 34.2409 30.5045 33.4374 30.5045 32.4508V18.3079C30.5045 17.3213 29.7009 16.5177 28.7143 16.5177Z" fill="#3F5753"/>
<path d="M38.6785 38.2096H42.4866C43.3705 38.2096 44.0848 37.4953 44.0848 36.6114C44.0848 35.7275 43.3705 35.0132 42.4866 35.0132H38.1741" fill="#8BF8E7"/>
<path d="M42.4822 39.1025H38.6742C38.1831 39.1025 37.7813 38.7007 37.7813 38.2096C37.7813 37.7186 38.1831 37.3168 38.6742 37.3168H42.4822C42.8706 37.3168 43.1876 36.9998 43.1876 36.6114C43.1876 36.223 42.8706 35.9061 42.4822 35.9061H38.1697C37.6786 35.9061 37.2769 35.5043 37.2769 35.0132C37.2769 34.5221 37.6786 34.1204 38.1697 34.1204H42.4822C43.8572 34.1204 44.9733 35.2364 44.9733 36.6114C44.9733 37.9864 43.8572 39.1025 42.4822 39.1025Z" fill="#3F5753"/>
<path d="M33.9824 9.69636H23.1922C22.7011 9.69636 22.2993 9.29457 22.2993 8.8035C22.2993 8.31243 22.7011 7.91064 23.1922 7.91064H33.9824C34.4734 7.91064 34.8752 8.31243 34.8752 8.8035C34.8752 9.29457 34.4734 9.69636 33.9824 9.69636Z" fill="#3F5753"/>
<path d="M19.8126 9.69636H14.5135C14.0224 9.69636 13.6206 9.29457 13.6206 8.8035C13.6206 8.31243 14.0224 7.91064 14.5135 7.91064H19.8126C20.3036 7.91064 20.7054 8.31243 20.7054 8.8035C20.7054 9.29457 20.3036 9.69636 19.8126 9.69636Z" fill="#3F5753"/>
<path d="M28.7547 26.067H26.3797C25.8886 26.067 25.4868 25.6652 25.4868 25.1741C25.4868 24.683 25.8886 24.2812 26.3797 24.2812H28.7547C29.2457 24.2812 29.6475 24.683 29.6475 25.1741C29.6475 25.6652 29.2457 26.067 28.7547 26.067Z" fill="#3F5753"/>
<path d="M44.085 27.4195C43.594 27.4195 43.1922 27.0177 43.1922 26.5267V15.8392C43.1922 14.616 42.1966 13.6204 40.9734 13.6204H36.1922C35.7011 13.6204 35.2993 13.2186 35.2993 12.7276C35.2993 12.2365 35.7011 11.8347 36.1922 11.8347H40.9734C43.1832 11.8347 44.9779 13.6294 44.9779 15.8392V26.5267C44.9779 27.0177 44.5761 27.4195 44.085 27.4195Z" fill="#3F5753"/>
</g>
<defs>
<clipPath id="clip0_5735_33206">
<rect width="50" height="50" fill="white"/>
</clipPath>
</defs>
</svg>
