<svg width="50" height="50" viewBox="0 0 50 50" fill="none" xmlns="http://www.w3.org/2000/svg">
<g opacity="0.6" clip-path="url(#clip0_5735_33255)">
<path d="M10.9912 16.5C13.4075 16.5 15.3662 14.5412 15.3662 12.125C15.3662 9.70875 13.4075 7.75 10.9912 7.75C8.57497 7.75 6.61621 9.70875 6.61621 12.125C6.61621 14.5412 8.57497 16.5 10.9912 16.5Z" fill="#79E7D5"/>
<path d="M10.991 17.3885C8.08922 17.3885 5.72314 15.0269 5.72314 12.1206C5.72314 9.21439 8.08475 6.85278 10.991 6.85278C13.8973 6.85278 16.2589 9.21439 16.2589 12.1206C16.2589 15.0269 13.8973 17.3885 10.991 17.3885ZM10.991 8.64296C9.07136 8.64296 7.50886 10.2055 7.50886 12.1251C7.50886 14.0447 9.07136 15.6072 10.991 15.6072C12.9106 15.6072 14.4731 14.0447 14.4731 12.1251C14.4731 10.2055 12.9106 8.64296 10.991 8.64296Z" fill="#37635F"/>
<path d="M21.4151 24.5491C21.183 24.5491 20.9508 24.4598 20.7767 24.2768C20.433 23.9241 20.4419 23.3572 20.7946 23.0134L35.8616 8.3661C36.2142 8.02235 36.7812 8.03128 37.125 8.38396C37.4687 8.73663 37.4598 9.3036 37.1071 9.64735L22.0401 24.2947C21.866 24.4643 21.6428 24.5491 21.4196 24.5491H21.4151Z" fill="#37635F"/>
<path d="M28.8214 32.1697C28.5892 32.1697 28.3571 32.0805 28.183 31.8974C27.8392 31.5447 27.8482 30.9778 28.2008 30.634L43.2678 15.9867C43.6205 15.643 44.1875 15.6519 44.5312 16.0046C44.875 16.3572 44.866 16.9242 44.5133 17.268L29.4464 31.9153C29.2723 32.0849 29.0491 32.1697 28.8258 32.1697H28.8214Z" fill="#37635F"/>
<path d="M26.3526 29.6295C26.1205 29.6295 25.8883 29.5402 25.7142 29.3571C25.3705 29.0045 25.3794 28.4375 25.7321 28.0937L40.7991 13.4464C41.1517 13.1027 41.7187 13.1116 42.0625 13.4643C42.4062 13.817 42.3973 14.3839 42.0446 14.7277L26.9776 29.375C26.8035 29.5446 26.5803 29.6295 26.3571 29.6295H26.3526Z" fill="#37635F"/>
<path d="M23.8839 27.0894C23.6517 27.0894 23.4196 27.0001 23.2455 26.8171C22.9017 26.4644 22.9107 25.8975 23.2634 25.5537L38.3303 10.9064C38.683 10.5626 39.25 10.5716 39.5937 10.9242C39.9375 11.2769 39.9285 11.8439 39.5758 12.1876L24.5089 26.835C24.3348 27.0046 24.1116 27.0894 23.8883 27.0894H23.8839Z" fill="#37635F"/>
<path d="M35.0177 31.9376C34.7856 31.9376 34.5535 31.8483 34.3794 31.6653L21.1874 18.0938C20.8436 17.7412 20.8526 17.1742 21.2052 16.8305C21.5579 16.4867 22.1249 16.4956 22.4686 16.8483L35.6606 30.4197C36.0044 30.7724 35.9954 31.3394 35.6427 31.6831C35.4686 31.8528 35.2454 31.9376 35.0222 31.9376H35.0177Z" fill="#37635F"/>
<path d="M43.4777 23.7098C43.2456 23.7098 43.0134 23.6205 42.8393 23.4375L29.6473 9.86606C29.3036 9.51338 29.3125 8.94642 29.6652 8.60267C30.0179 8.25892 30.5848 8.26785 30.9286 8.62053L44.1206 22.192C44.4643 22.5446 44.4554 23.1116 44.1027 23.4553C43.9286 23.625 43.7054 23.7098 43.4822 23.7098H43.4777Z" fill="#37635F"/>
<path d="M40.6608 26.451C40.4287 26.451 40.1965 26.3617 40.0224 26.1787L26.8305 12.6073C26.4867 12.2546 26.4956 11.6876 26.8483 11.3439C27.201 11.0001 27.768 11.0091 28.1117 11.3617L41.3037 24.9332C41.6474 25.2858 41.6385 25.8528 41.2858 26.1966C41.1117 26.3662 40.8885 26.451 40.6653 26.451H40.6608Z" fill="#37635F"/>
<path d="M37.839 29.192C37.6069 29.192 37.3747 29.1027 37.2006 28.9197L24.0087 15.3482C23.6649 14.9956 23.6739 14.4286 24.0265 14.0848C24.3792 13.7411 24.9462 13.75 25.2899 14.1027L38.4819 27.6741C38.8256 28.0268 38.8167 28.5938 38.464 28.9375C38.2899 29.1072 38.0667 29.192 37.8435 29.192H37.839Z" fill="#37635F"/>
<path d="M41.0983 28.8348C46.6117 23.4732 48.4153 16.2143 42.6385 10.4375C36.8617 4.66069 29.7189 6.09373 24.2055 11.4553C20.4823 15.0759 18.9599 20 19.7992 24.2991C20.0537 25.6161 19.826 26.9777 19.1296 28.1205C17.9108 30.1294 16.4376 31.9777 14.7501 33.6205L10.5269 37.7232L6.31261 41.8169C5.18761 42.9107 5.04922 44.7321 6.10725 45.8884C7.16529 47.0446 9.06261 47.1339 10.2189 46.0089L18.7099 37.7589C20.3751 36.1384 22.2412 34.7366 24.2546 33.5803L24.4331 33.4777C25.5849 32.8169 26.9421 32.6161 28.2367 32.8973C32.4867 33.8125 37.4019 32.4241 41.0939 28.8348H41.0983ZM25.1162 27.4732C21.5939 23.8527 22.1162 17.6339 26.2769 13.5893C30.4421 9.54462 34.8617 7.49105 40.1876 12.8214C45.5135 18.1518 43.1876 22.6607 39.0269 26.7053C34.8617 30.75 28.634 31.0937 25.1162 27.4732Z" fill="#73E0CF"/>
<path d="M8.22783 47.7143C8.19212 47.7143 8.15194 47.7143 8.11622 47.7143C7.0939 47.683 6.14747 47.25 5.45105 46.4955C4.0939 45.0134 4.20105 42.6295 5.69212 41.183L14.1252 32.9821C15.7546 31.3973 17.1832 29.6071 18.3618 27.6607C18.9377 26.7143 19.1341 25.5803 18.9198 24.4732C17.9957 19.7411 19.7859 14.5089 23.5805 10.817C30.0537 4.52678 37.5984 4.13838 43.268 9.80803C45.7859 12.3259 47.1073 15.3259 47.085 18.4821C47.0582 22.2321 45.1519 26.1384 41.7189 29.4732C37.96 33.1295 32.7234 34.7768 28.0493 33.7678C26.9555 33.5312 25.8305 33.7053 24.8752 34.25L24.6966 34.3527C22.7457 35.4687 20.9421 36.8303 19.3305 38.3973L10.8394 46.6473C10.1296 47.3348 9.20551 47.7098 8.22337 47.7098L8.22783 47.7143ZM34.3082 7.58928C31.1787 7.58928 27.9109 9.0982 24.8305 12.0937C21.46 15.3705 19.8707 19.9821 20.6787 24.125C20.9778 25.6696 20.701 27.2545 19.8975 28.5803C18.6385 30.6562 17.1162 32.567 15.3796 34.2545L6.94658 42.4553C6.14301 43.2366 6.06712 44.5045 6.77694 45.2812C7.14301 45.6786 7.63854 45.9062 8.17426 45.9241C8.71444 45.942 9.2189 45.7411 9.6073 45.3661L18.0984 37.1161C19.8171 35.4464 21.7412 33.9955 23.8216 32.8036L24.0002 32.7009C25.335 31.9375 26.9109 31.692 28.4377 32.0223C32.5314 32.9018 37.1475 31.433 40.4868 28.192C43.576 25.192 45.2903 21.7366 45.3127 18.4643C45.3305 15.7589 44.2234 13.2678 42.018 11.0625C39.6966 8.74106 37.0582 7.58481 34.3171 7.58481L34.3082 7.58928ZM31.2725 30.8705C28.6207 30.8705 26.2278 29.8973 24.4734 28.0937C20.6162 24.125 21.143 17.3303 25.6519 12.9464C28.2055 10.4643 30.4332 9.14731 32.6564 8.80356C35.4421 8.37499 38.1118 9.48213 40.8171 12.1875C43.0627 14.4286 44.1877 16.75 44.1743 19.0759C44.1564 21.7321 42.7144 24.3616 39.6475 27.3437C37.4778 29.4509 34.7189 30.6964 31.8752 30.8571C31.6698 30.8705 31.4689 30.875 31.268 30.875L31.2725 30.8705ZM33.835 10.5045C31.6877 10.5045 29.46 11.7411 26.9019 14.2232C23.0984 17.9196 22.585 23.5848 25.7591 26.8482C27.2814 28.4107 29.4198 29.1964 31.7859 29.0714C34.1966 28.9375 36.5493 27.8705 38.4109 26.0625C41.1162 23.433 42.3841 21.2098 42.3975 19.0625C42.4109 17.2053 41.4823 15.3705 39.5627 13.4509C37.6028 11.4911 35.7546 10.5089 33.835 10.5089V10.5045Z" fill="#37635F"/>
<path d="M20.6387 31.6874C21.4199 30.7722 22.0672 29.7499 22.4601 29.0713L20.6387 31.6874Z" fill="#EE706B"/>
<path d="M20.6385 32.5803C20.4331 32.5803 20.2278 32.5089 20.0581 32.366C19.6831 32.0446 19.6385 31.4821 19.9599 31.1071C20.6921 30.2499 21.3037 29.2812 21.6921 28.6205C21.9421 28.1964 22.4867 28.049 22.9153 28.299C23.3394 28.549 23.4867 29.0937 23.2367 29.5222C22.8126 30.2455 22.1385 31.308 21.3215 32.2678C21.1429 32.4731 20.8929 32.5803 20.6429 32.5803H20.6385Z" fill="#37635F"/>
<path d="M13.5984 34.741L12.1475 36.1517L6.86182 41.2901C5.45111 42.6606 5.06272 44.7231 6.11182 45.8883C7.19665 47.0936 9.29486 46.9106 10.7458 45.4999L17.5895 38.8481L13.5984 34.741Z" fill="#6ED5C5"/>
<path d="M8.02247 47.5804C7.97783 47.5804 7.93318 47.5804 7.88854 47.5804C6.91979 47.5491 6.05372 47.1607 5.44658 46.4866C4.08051 44.9732 4.42872 42.4063 6.23676 40.6473L12.9734 34.0982C13.143 33.933 13.3841 33.8527 13.6073 33.8438C13.8439 33.8438 14.0716 33.9464 14.2368 34.1161L18.2278 38.2232C18.5716 38.5759 18.5626 39.1429 18.21 39.4866L11.3662 46.1384C10.4198 47.058 9.20997 47.5759 8.01801 47.5759L8.02247 47.5804ZM13.5805 36L7.48229 41.9286C6.40193 42.9777 6.07604 44.5179 6.77247 45.2902C7.12961 45.683 7.60729 45.7813 7.94658 45.7946C8.68765 45.8214 9.49568 45.4688 10.1251 44.8616L16.3305 38.8304L13.5805 36.0045V36Z" fill="#37635F"/>
<path d="M13.7011 43.1919C13.344 43.1919 13.0092 42.9776 12.8708 42.6249L10.7235 37.1829C10.5404 36.7231 10.7681 36.2053 11.2279 36.0267C11.6878 35.8437 12.2056 36.0713 12.3842 36.5312L14.5315 41.9731C14.7145 42.4329 14.4869 42.9508 14.027 43.1294C13.9199 43.174 13.8083 43.1919 13.7011 43.1919Z" fill="#37635F"/>
<path d="M10.7456 46.3928C10.3929 46.3928 10.0536 46.1785 9.91522 45.8303L7.62058 40.0713C7.43755 39.6115 7.66076 39.0937 8.12058 38.9106C8.57594 38.7276 9.09826 38.9508 9.2813 39.4106L11.5759 45.1695C11.759 45.6294 11.5358 46.1472 11.0759 46.3303C10.9688 46.3749 10.8572 46.3928 10.7456 46.3928Z" fill="#37635F"/>
<path d="M7.85693 9.08032C7.85693 9.08032 8.00872 11.9732 10.5757 12.2455C13.1426 12.5178 13.915 13.058 14.281 15.0044" fill="#79E7D5"/>
<path d="M14.2768 15.8929C13.8572 15.8929 13.4822 15.5938 13.4018 15.1652C13.1384 13.7634 12.817 13.3795 10.4777 13.1295C7.84822 12.8483 7.0268 10.384 6.95983 9.12059C6.93305 8.62952 7.31251 8.20987 7.80358 8.18309C8.29912 8.16077 8.7143 8.5313 8.74108 9.02237C8.75447 9.24559 8.92858 11.1652 10.6652 11.3527C13.2589 11.6295 14.6652 12.2456 15.1518 14.8304C15.2411 15.317 14.9241 15.7813 14.442 15.8751C14.3839 15.884 14.3304 15.8929 14.2768 15.8929Z" fill="#37635F"/>
</g>
<defs>
<clipPath id="clip0_5735_33255">
<rect width="50" height="50" fill="white"/>
</clipPath>
</defs>
</svg>
