<svg width="50" height="50" viewBox="0 0 50 50" fill="none" xmlns="http://www.w3.org/2000/svg">
<g opacity="0.6" clip-path="url(#clip0_5735_33825)">
<path d="M39.915 42.9015V39.1873H34.2632V42.9149" fill="#DFFDF7"/>
<path d="M34.2632 43.8078C33.7721 43.8078 33.3704 43.406 33.3704 42.915V39.1873C33.3704 38.6962 33.7721 38.2944 34.2632 38.2944H39.9105C40.4016 38.2944 40.8034 38.6962 40.8034 39.1873V42.9016C40.8034 43.3926 40.4016 43.7944 39.9105 43.7944C39.4195 43.7944 39.0177 43.3926 39.0177 42.9016V40.0801H35.1561V42.915C35.1561 43.406 34.7543 43.8078 34.2632 43.8078Z" fill="#3F5753"/>
<path d="M15.2811 18.2901V15.2991H9.63379V18.2991" fill="#DFFDF7"/>
<path d="M9.63382 19.1919C9.14275 19.1919 8.74097 18.7901 8.74097 18.299V15.3035C8.74097 14.8124 9.14275 14.4106 9.63382 14.4106H15.2811C15.7722 14.4106 16.174 14.8124 16.174 15.3035V18.2946C16.174 18.7856 15.7722 19.1874 15.2811 19.1874C14.7901 19.1874 14.3883 18.7856 14.3883 18.2946V16.1964H10.5267V18.299C10.5267 18.7901 10.1249 19.1919 9.63382 19.1919Z" fill="#3F5753"/>
<path d="M23.5444 47.3793H46.1159V44.9865C46.1159 44.0847 45.3837 43.3525 44.4819 43.3525H31.156" fill="#5BB5A7"/>
<path d="M46.1159 48.2722H23.5445C23.0534 48.2722 22.6516 47.8704 22.6516 47.3794C22.6516 46.8883 23.0534 46.4865 23.5445 46.4865H45.223V44.9865C45.223 44.5758 44.8882 44.2454 44.482 44.2454H31.1561C30.665 44.2454 30.2632 43.8436 30.2632 43.3526C30.2632 42.8615 30.665 42.4597 31.1561 42.4597H44.482C45.8748 42.4597 47.0088 43.5936 47.0088 44.9865V47.3794C47.0088 47.8704 46.607 48.2722 46.1159 48.2722Z" fill="#3F5753"/>
<path d="M7.66064 35.6116V22.2232C7.66064 20.125 9.36154 18.4241 11.4598 18.4241H14.5356C17.491 18.4241 20.2231 19.9955 21.7053 22.5491L30.2321 37.2143C30.8348 38.2455 31.1473 39.4196 31.1473 40.616C31.1473 44.3526 28.1205 47.3794 24.3839 47.3794H12.9598" fill="#8BF8E7"/>
<path d="M24.3928 48.2723H12.9686C12.4776 48.2723 12.0758 47.8705 12.0758 47.3795C12.0758 46.8884 12.4776 46.4866 12.9686 46.4866H24.3928C27.6294 46.4866 30.2633 43.8527 30.2633 40.6161C30.2633 39.5804 29.9865 38.558 29.4686 37.6652L20.9419 23C19.6204 20.7277 17.1695 19.317 14.5401 19.317H11.4642C9.8615 19.317 8.55793 20.6205 8.55793 22.2232V35.6116C8.55793 36.1027 8.15615 36.5045 7.66507 36.5045C7.174 36.5045 6.77222 36.1027 6.77222 35.6116V22.2232C6.77222 19.6339 8.8749 17.5312 11.4642 17.5312H14.5401C17.799 17.5312 20.8436 19.2812 22.482 22.1027L31.0088 36.7679C31.6874 37.9375 32.049 39.2679 32.049 40.6161C32.049 44.8393 28.616 48.2723 24.3928 48.2723Z" fill="#3F5753"/>
<path d="M10.1963 48.0847C13.6826 48.0847 16.5088 45.2585 16.5088 41.7722C16.5088 38.2859 13.6826 35.4597 10.1963 35.4597C6.70999 35.4597 3.88379 38.2859 3.88379 41.7722C3.88379 45.2585 6.70999 48.0847 10.1963 48.0847Z" fill="#5BB5A7"/>
<path d="M10.1963 48.9776C6.22311 48.9776 2.99097 45.7455 2.99097 41.7723C2.99097 37.799 6.22311 34.5669 10.1963 34.5669C14.1695 34.5669 17.4017 37.799 17.4017 41.7723C17.4017 45.7455 14.1695 48.9776 10.1963 48.9776ZM10.1963 36.3526C7.20972 36.3526 4.77668 38.7856 4.77668 41.7723C4.77668 44.7589 7.20972 47.1919 10.1963 47.1919C13.1829 47.1919 15.616 44.7589 15.616 41.7723C15.616 38.7856 13.1829 36.3526 10.1963 36.3526Z" fill="#3F5753"/>
<path d="M10.1963 44.9285C9.70522 44.9285 9.30343 44.5267 9.30343 44.0356C9.30343 43.5445 9.70522 43.1428 10.1963 43.1428C10.9508 43.1428 11.5668 42.5267 11.5668 41.7722C11.5668 41.0178 10.9508 40.4017 10.1963 40.4017C9.44182 40.4017 8.82575 41.0178 8.82575 41.7722C8.82575 42.2633 8.42397 42.6651 7.9329 42.6651C7.44182 42.6651 7.04004 42.2633 7.04004 41.7722C7.04004 40.0311 8.45522 38.616 10.1963 38.616C11.9374 38.616 13.3525 40.0311 13.3525 41.7722C13.3525 43.5133 11.9374 44.9285 10.1963 44.9285Z" fill="#3F5753"/>
<path d="M35.5267 38.9552V10.9775C35.5267 7.70522 32.8615 5.04004 29.5892 5.04004H23.8303C18.3035 5.04004 13.8035 9.54004 13.8035 15.0668H10.6785C10.6785 7.81683 16.5803 1.91504 23.8303 1.91504H29.5892C34.5847 1.91504 38.6517 5.982 38.6517 10.9775V38.9552H35.5267Z" fill="#5BB5A7"/>
<path d="M38.6517 39.8481H35.5267C35.0356 39.8481 34.6339 39.4463 34.6339 38.9553V10.9776C34.6339 8.19632 32.3705 5.93293 29.5892 5.93293H23.8303C18.7946 5.93293 14.6964 10.0311 14.6964 15.0669C14.6964 15.5579 14.2946 15.9597 13.8035 15.9597H10.6785C10.1874 15.9597 9.78564 15.5579 9.78564 15.0669C9.78564 7.32132 16.0848 1.02222 23.8303 1.02222H29.5892C35.0803 1.02222 39.5446 5.4865 39.5446 10.9776V38.9553C39.5446 39.4463 39.1428 39.8481 38.6517 39.8481ZM36.4196 38.0624H37.7589V10.9776C37.7589 6.47311 34.0937 2.80793 29.5892 2.80793H23.8303C17.3705 2.80793 12.0624 7.83025 11.6026 14.174H12.9464C13.4017 8.56686 18.1115 4.14722 23.8303 4.14722H29.5892C33.3571 4.14722 36.4196 7.20972 36.4196 10.9776V38.0624Z" fill="#3F5753"/>
<path d="M33.8393 7.4508C33.5804 7.4508 33.3259 7.3392 33.1518 7.12491C32.8393 6.74545 32.8929 6.18295 33.2723 5.86598L35.2098 4.26777C35.5893 3.95527 36.1518 4.00884 36.4688 4.3883C36.7813 4.76777 36.7277 5.33027 36.3482 5.64723L34.4107 7.24545C34.2456 7.38384 34.0447 7.4508 33.8438 7.4508H33.8393Z" fill="#3F5753"/>
<path d="M24.299 42.2186H22.6516C22.1606 42.2186 21.7588 41.8168 21.7588 41.3257C21.7588 40.8346 22.1606 40.4329 22.6516 40.4329H24.299C24.79 40.4329 25.1918 40.8346 25.1918 41.3257C25.1918 41.8168 24.79 42.2186 24.299 42.2186Z" fill="#3F5753"/>
<path d="M27.3123 42.223C27.0757 42.223 26.848 42.1248 26.6828 41.9596C26.5176 41.7945 26.4194 41.5623 26.4194 41.3302C26.4194 41.2721 26.4284 41.2096 26.4373 41.1516C26.4507 41.098 26.4685 41.04 26.4909 40.9864C26.5132 40.9328 26.54 40.8793 26.5712 40.8346C26.6025 40.7855 26.6426 40.7364 26.6828 40.6962C26.8882 40.4909 27.1962 40.3927 27.4864 40.4552C27.5444 40.4641 27.6025 40.482 27.656 40.5043C27.7096 40.5266 27.7587 40.5534 27.8078 40.5846C27.8569 40.6203 27.9016 40.6561 27.9462 40.6962C28.1114 40.8614 28.2051 41.0936 28.2051 41.3302C28.2051 41.5668 28.1114 41.7945 27.9462 41.9596C27.7766 42.1248 27.5489 42.223 27.3123 42.223Z" fill="#3F5753"/>
<path d="M17.2723 32.9017C22.2723 37.4419 29.0447 35.1607 29.0447 35.1607L21.7098 22.5491C20.2232 19.9955 17.4911 18.4241 14.5402 18.4241C14.5402 18.4241 12.2723 28.3616 17.2723 32.9017Z" fill="#6FD3C3"/>
<path d="M25.0089 36.6384C22.5267 36.6384 19.3794 36.0223 16.674 33.5625C11.3481 28.7277 13.5714 18.6518 13.6696 18.2277C13.7633 17.8214 14.1249 17.5312 14.5401 17.5312C17.799 17.5312 20.8437 19.2812 22.4821 22.1027L29.8169 34.7143C29.9508 34.9464 29.9776 35.2277 29.8794 35.4777C29.7812 35.7277 29.5803 35.9241 29.3303 36.0089C29.183 36.058 27.4062 36.6384 25.0089 36.6384ZM15.2722 19.3571C14.8883 21.6563 14.0669 28.7902 17.8705 32.2411C21.2767 35.3304 25.6651 34.9643 27.674 34.5804L20.9374 23C19.741 20.942 17.616 19.5893 15.2722 19.3571Z" fill="#3F5753"/>
<path d="M21.5355 29.4954C21.223 29.4954 20.915 29.3302 20.7543 29.0356C20.7454 29.0177 19.732 27.1919 18.6427 25.3927C18.1114 24.5177 17.3971 24.0133 16.8882 23.7454C16.4507 23.5133 16.2855 22.9731 16.5177 22.5401C16.7498 22.1026 17.29 21.9374 17.723 22.1695C18.4284 22.5445 19.4284 23.2454 20.1695 24.4686C21.2766 26.299 22.3034 28.1517 22.3123 28.1695C22.5534 28.6026 22.3971 29.1427 21.9641 29.3838C21.8257 29.4597 21.6784 29.4954 21.5311 29.4954H21.5355Z" fill="white"/>
</g>
<defs>
<clipPath id="clip0_5735_33825">
<rect width="50" height="50" fill="white"/>
</clipPath>
</defs>
</svg>
