<svg width="49" height="50" viewBox="0 0 49 50" fill="none" xmlns="http://www.w3.org/2000/svg">
<g opacity="0.6">
<path d="M35.8795 4.46436H13.9644V38.5983H35.8795V4.46436Z" fill="#BAFAEE"/>
<path d="M35.8793 39.4912H13.9641C13.4731 39.4912 13.0713 39.0894 13.0713 38.5983V4.46439C13.0713 3.97332 13.4731 3.57153 13.9641 3.57153H35.8793C36.3704 3.57153 36.7722 3.97332 36.7722 4.46439V38.5983C36.7722 39.0894 36.3704 39.4912 35.8793 39.4912ZM14.857 37.7055H34.9865V5.35725H14.857V37.7055Z" fill="#37635F"/>
<path d="M32.308 8.05371H17.5356V35.0135H32.308V8.05371Z" fill="#79E7D5"/>
<path d="M32.3122 35.902H17.5354C17.0444 35.902 16.6426 35.5002 16.6426 35.0091V8.05375C16.6426 7.56267 17.0444 7.16089 17.5354 7.16089H32.3122C32.8033 7.16089 33.2051 7.56267 33.2051 8.05375V35.0136C33.2051 35.5046 32.8033 35.9064 32.3122 35.9064V35.902ZM18.4283 34.1163H31.4194V8.9466H18.4283V34.1207V34.1163Z" fill="#37635F"/>
<path d="M24.9241 35.2189C24.433 35.2189 24.0312 34.8171 24.0312 34.3261V8.05375C24.0312 7.56267 24.433 7.16089 24.9241 7.16089C25.4152 7.16089 25.817 7.56267 25.817 8.05375V34.3305C25.817 34.8216 25.4152 35.2234 24.9241 35.2234V35.2189Z" fill="#37635F"/>
<path d="M32.3122 17.9376H17.5354C17.0444 17.9376 16.6426 17.5358 16.6426 17.0447C16.6426 16.5536 17.0444 16.1519 17.5354 16.1519H32.3122C32.8033 16.1519 33.2051 16.5536 33.2051 17.0447C33.2051 17.5358 32.8033 17.9376 32.3122 17.9376Z" fill="#37635F"/>
<path d="M32.3122 26.9644H17.5354C17.0444 26.9644 16.6426 26.5626 16.6426 26.0716C16.6426 25.5805 17.0444 25.1787 17.5354 25.1787H32.3122C32.8033 25.1787 33.2051 25.5805 33.2051 26.0716C33.2051 26.5626 32.8033 26.9644 32.3122 26.9644Z" fill="#37635F"/>
<path d="M19.4375 10.5893V14.259C19.4375 14.7366 19.9375 15.0447 20.3705 14.8393C21.3036 14.3929 22.6473 13.2947 22.9464 10.634C22.9911 10.2545 22.6875 9.91968 22.3036 9.91968H20.1116C19.7411 9.91968 19.4375 10.2232 19.4375 10.5938V10.5893Z" fill="#EEEEEE"/>
<path d="M26.8706 10.5893V14.259C26.8706 14.7366 27.3706 15.0447 27.8036 14.8393C28.7367 14.3929 30.0804 13.2947 30.3795 10.634C30.4242 10.2545 30.1206 9.91968 29.7367 9.91968H27.5447C27.1742 9.91968 26.8706 10.2232 26.8706 10.5938V10.5893Z" fill="#EEEEEE"/>
<path d="M19.4507 19.5759V23.2455C19.4507 23.7232 19.9507 24.0312 20.3837 23.8259C21.3168 23.3795 22.6605 22.2813 22.9596 19.6205C23.0043 19.2411 22.7007 18.9062 22.3168 18.9062H20.1248C19.7543 18.9062 19.4507 19.2098 19.4507 19.5804V19.5759Z" fill="#EEEEEE"/>
<path d="M26.8838 19.5759V23.2455C26.8838 23.7232 27.3838 24.0312 27.8168 23.8259C28.7499 23.3795 30.0936 22.2813 30.3927 19.6205C30.4374 19.2411 30.1338 18.9062 29.7499 18.9062H27.5579C27.1874 18.9062 26.8838 19.2098 26.8838 19.5804V19.5759Z" fill="#EEEEEE"/>
<path d="M19.4507 28.5268V32.1965C19.4507 32.6741 19.9507 32.9822 20.3837 32.7768C21.3168 32.3304 22.6605 31.2322 22.9596 28.5715C23.0043 28.192 22.7007 27.8572 22.3168 27.8572H20.1248C19.7543 27.8572 19.4507 28.1607 19.4507 28.5313V28.5268Z" fill="#EEEEEE"/>
<path d="M26.8838 28.5268V32.1965C26.8838 32.6741 27.3838 32.9822 27.8168 32.7768C28.7499 32.3304 30.0936 31.2322 30.3927 28.5715C30.4374 28.192 30.1338 27.8572 29.7499 27.8572H27.5579C27.1874 27.8572 26.8838 28.1607 26.8838 28.5313V28.5268Z" fill="#EEEEEE"/>
<path d="M13.9644 31.6384H2.24561V38.5982H13.9644V31.6384Z" fill="#6ED5C5"/>
<path d="M13.9641 39.4911H2.2454C1.75432 39.4911 1.35254 39.0894 1.35254 38.5983V31.6385C1.35254 31.1474 1.75432 30.7456 2.2454 30.7456H13.9641C14.4552 30.7456 14.857 31.1474 14.857 31.6385V38.5983C14.857 39.0894 14.4552 39.4911 13.9641 39.4911ZM3.13825 37.7054H13.0713V32.5313H3.13825V37.7054Z" fill="#37635F"/>
<path d="M19.1519 38.5759H7.43311V45.5357H19.1519V38.5759Z" fill="#6ED5C5"/>
<path d="M19.1516 46.4286H7.4329C6.94182 46.4286 6.54004 46.0269 6.54004 45.5358V38.576C6.54004 38.0849 6.94182 37.6831 7.4329 37.6831H19.1516C19.6427 37.6831 20.0445 38.0849 20.0445 38.576V45.5358C20.0445 46.0269 19.6427 46.4286 19.1516 46.4286ZM8.32575 44.6429H18.2588V39.4688H8.32575V44.6429Z" fill="#37635F"/>
<path d="M30.8701 38.5759H19.1514V45.5357H30.8701V38.5759Z" fill="#4F9D91"/>
<path d="M30.8748 46.4286H19.156C18.665 46.4286 18.2632 46.0269 18.2632 45.5358V38.576C18.2632 38.0849 18.665 37.6831 19.156 37.6831H30.8748C31.3659 37.6831 31.7676 38.0849 31.7676 38.576V45.5358C31.7676 46.0269 31.3659 46.4286 30.8748 46.4286ZM20.0444 44.6429H29.9775V39.4688H20.0444V44.6429Z" fill="#37635F"/>
<path d="M42.5938 38.5759H30.875V45.5357H42.5938V38.5759Z" fill="#6ED5C5"/>
<path d="M42.5935 46.4286H30.8748C30.3837 46.4286 29.9819 46.0269 29.9819 45.5358V38.576C29.9819 38.0849 30.3837 37.6831 30.8748 37.6831H42.5935C43.0846 37.6831 43.4864 38.0849 43.4864 38.576V45.5358C43.4864 46.0269 43.0846 46.4286 42.5935 46.4286ZM31.7676 44.6429H41.7007V39.4688H31.7676V44.6429Z" fill="#37635F"/>
<path d="M47.7764 31.6384H36.0576V38.5982H47.7764V31.6384Z" fill="#4F9D91"/>
<path d="M47.781 39.4911H36.0623C35.5712 39.4911 35.1694 39.0894 35.1694 38.5983V31.6385C35.1694 31.1474 35.5712 30.7456 36.0623 30.7456H47.781C48.2721 30.7456 48.6739 31.1474 48.6739 31.6385V38.5983C48.6739 39.0894 48.2721 39.4911 47.781 39.4911ZM36.9507 37.7054H46.8837V32.5313H36.9507V37.7054Z" fill="#37635F"/>
</g>
</svg>
