<svg width="50" height="50" viewBox="0 0 50 50" fill="none" xmlns="http://www.w3.org/2000/svg">
<g opacity="0.6" clip-path="url(#clip0_5735_33660)">
<path d="M7.01343 47.6026V43.9241H3.33485V47.6026H7.01343Z" fill="#DFFDF7"/>
<path d="M7.01332 48.4911H3.33475C2.84368 48.4911 2.44189 48.0894 2.44189 47.5983V43.9197C2.44189 43.4286 2.84368 43.0269 3.33475 43.0269H7.01332C7.50439 43.0269 7.90618 43.4286 7.90618 43.9197V47.5983C7.90618 48.0894 7.50439 48.4911 7.01332 48.4911ZM4.22761 46.7054H6.12047V44.8126H4.22761V46.7054Z" fill="#3F5753"/>
<path d="M46.9153 47.5982V43.9197H43.2367V47.5982H46.9153Z" fill="#DFFDF7"/>
<path d="M46.9152 48.4911H43.2366C42.7455 48.4911 42.3438 48.0894 42.3438 47.5983V43.9197C42.3438 43.4286 42.7455 43.0269 43.2366 43.0269H46.9152C47.4062 43.0269 47.808 43.4286 47.808 43.9197V47.5983C47.808 48.0894 47.4062 48.4911 46.9152 48.4911ZM44.1295 46.7054H46.0223V44.8126H44.1295V46.7054Z" fill="#3F5753"/>
<path d="M44.9597 31.6071C44.9597 39.3973 35.982 41.4152 24.9061 41.4152C13.8302 41.4152 4.85254 39.4018 4.85254 31.6071C4.85254 23.8125 7.33915 18.75 24.9061 18.75C42.4731 18.75 44.9597 23.817 44.9597 31.6071Z" fill="#6FD3C3"/>
<path d="M24.9018 42.3037C18.5178 42.3037 13.7678 41.634 10.3839 40.2546C6.11604 38.518 3.95532 35.6072 3.95532 31.6028C3.95532 22.893 7.38389 17.8528 24.9018 17.8528C42.4196 17.8528 45.8482 22.893 45.8482 31.6028C45.8482 42.3037 30.0803 42.3037 24.9018 42.3037ZM24.9018 19.6385C7.15175 19.6385 5.74104 24.826 5.74104 31.6028C5.74104 37.6831 11.8303 40.518 24.9018 40.518C37.9732 40.518 44.0625 37.6876 44.0625 31.6028C44.0625 24.8215 42.6518 19.6385 24.9018 19.6385Z" fill="#3F5753"/>
<path d="M32.6115 32.3885C32.6115 32.3885 31.607 29.2858 32.6115 26.701C32.6115 26.701 35.1784 25.7903 38.6383 26.2367C42.0981 26.6831 43.5177 27.2233 43.5177 27.2233L42.0624 32.3929H32.6115V32.3885Z" fill="#5BB5A7"/>
<path d="M42.0624 33.2814H32.6115C32.2231 33.2814 31.8794 33.0314 31.7633 32.6654C31.7186 32.527 30.674 29.2279 31.7811 26.3796C31.8749 26.1386 32.0713 25.9466 32.3124 25.8618C32.424 25.8216 35.1204 24.8841 38.7544 25.3529C42.2767 25.8082 43.7767 26.3662 43.8392 26.3886C44.2722 26.5537 44.5088 27.018 44.3838 27.4645L42.9285 32.6341C42.8213 33.018 42.4686 33.2859 42.0669 33.2859L42.0624 33.2814ZM33.299 31.4957H41.3838L42.4151 27.8261C41.6829 27.6386 40.4195 27.3662 38.5177 27.1207C36.0713 26.8037 34.107 27.21 33.299 27.4243C32.8481 28.9466 33.0981 30.6207 33.2945 31.4957H33.299Z" fill="#3F5753"/>
<path d="M4.86157 25.9108C1.60711 25.3796 0.892822 27.4287 0.892822 29.2457C0.892822 30.3885 1.47764 31.3974 2.36157 31.9867L2.36157 43.9108H8.06246V29.1117C8.06246 27.3439 6.60711 26.1921 4.86157 25.9108Z" fill="#8BF8E7"/>
<path d="M8.0625 44.8036H2.36161C1.87054 44.8036 1.46875 44.4018 1.46875 43.9108L1.46875 32.4286C0.540179 31.6384 0 30.4777 0 29.2456C0 27.7099 0.459821 26.509 1.32589 25.7679C2.20536 25.0224 3.44196 24.7724 5.00446 25.0268C7.36607 25.4108 8.95536 27.0536 8.95536 29.1117V43.9108C8.95536 44.4018 8.55357 44.8036 8.0625 44.8036ZM3.25446 43.0179H7.16964L7.16964 29.1117C7.16964 27.692 5.84821 26.9733 4.71429 26.7902C3.69196 26.625 2.94196 26.7367 2.48214 27.1295C1.90625 27.6206 1.78571 28.5492 1.78571 29.2456C1.78571 30.0492 2.1875 30.7992 2.85714 31.2456C3.10714 31.4108 3.25446 31.692 3.25446 31.9867L3.25446 43.0179Z" fill="#3F5753"/>
<path d="M45.1384 25.9108C48.3929 25.3796 49.1071 27.4287 49.1071 29.2457C49.1071 30.3885 48.5223 31.3974 47.6384 31.9867V43.9108H41.9375V29.1117C41.9375 27.3439 43.3929 26.1921 45.1384 25.9108Z" fill="#8BF8E7"/>
<path d="M47.6384 44.8036H41.9375C41.4465 44.8036 41.0447 44.4018 41.0447 43.9108V29.1117C41.0447 27.0536 42.634 25.4152 44.9956 25.0268C46.5581 24.7724 47.7947 25.0224 48.6741 25.7679C49.5402 26.5045 50 27.7099 50 29.2456C50 30.4822 49.4599 31.6384 48.5313 32.4286V43.9108C48.5313 44.4018 48.1295 44.8036 47.6384 44.8036ZM42.8304 43.0179H46.7456V31.9867C46.7456 31.6875 46.8929 31.4108 47.1429 31.2456C47.8125 30.7992 48.2143 30.0492 48.2143 29.2456C48.2143 28.5492 48.0938 27.6206 47.5179 27.1295C47.0581 26.7367 46.3081 26.625 45.2857 26.7902C44.1518 26.9733 42.8304 27.692 42.8304 29.1117V43.0179Z" fill="#3F5753"/>
<path d="M47.3616 40.2234H2.36157V43.9109H47.3616V40.2234Z" fill="#9FDECF"/>
<path d="M47.3616 44.8038H2.36161C1.87054 44.8038 1.46875 44.402 1.46875 43.9109L1.46875 40.2234C1.46875 39.7324 1.87054 39.3306 2.36161 39.3306H47.3616C47.8527 39.3306 48.2545 39.7324 48.2545 40.2234V43.9109C48.2545 44.402 47.8527 44.8038 47.3616 44.8038ZM3.25446 43.0181H46.4687V41.1163H3.25446V43.0181Z" fill="#3F5753"/>
<path d="M5.09371 31.6028H20.058C22.7053 31.6028 24.8571 33.7546 24.8571 36.4019V40.2278H5.09371C3.58479 40.2278 2.36157 39.0046 2.36157 37.4956V34.3349C2.36157 32.826 3.58479 31.6028 5.09371 31.6028Z" fill="#8BF8E7"/>
<path d="M24.8616 41.1163H5.09375C3.09375 41.1163 1.46875 39.4913 1.46875 37.4913L1.46875 34.3306C1.46875 32.3306 3.09375 30.7056 5.09375 30.7056H20.058C23.1964 30.7056 25.75 33.2591 25.75 36.3975V40.2234C25.75 40.7145 25.3482 41.1163 24.8571 41.1163H24.8616ZM5.09375 32.4913C4.08036 32.4913 3.25446 33.3172 3.25446 34.3306V37.4913C3.25446 38.5047 4.08036 39.3306 5.09375 39.3306H23.9687V36.3975C23.9687 34.2413 22.2143 32.4913 20.0625 32.4913H5.09375Z" fill="#3F5753"/>
<path d="M29.6607 31.6028H44.625C46.134 31.6028 47.3572 32.826 47.3572 34.3349V37.4956C47.3572 39.0046 46.134 40.2278 44.625 40.2278H24.8572V36.4019C24.8572 33.7546 27.009 31.6028 29.6563 31.6028H29.6607Z" fill="#8BF8E7"/>
<path d="M44.6295 41.1163H24.8616C24.3705 41.1163 23.9688 40.7145 23.9688 40.2234V36.3975C23.9688 33.2591 26.5223 30.7056 29.6607 30.7056H44.625C46.625 30.7056 48.25 32.3306 48.25 34.3306V37.4913C48.25 39.4913 46.625 41.1163 44.625 41.1163H44.6295ZM25.7545 39.3306H44.6295C45.6429 39.3306 46.4687 38.5047 46.4687 37.4913V34.3306C46.4687 33.3172 45.6429 32.4913 44.6295 32.4913H29.6652C27.5089 32.4913 25.7589 34.2457 25.7589 36.3975V39.3306H25.7545Z" fill="#3F5753"/>
</g>
<defs>
<clipPath id="clip0_5735_33660">
<rect width="50" height="50" fill="white"/>
</clipPath>
</defs>
</svg>
