<svg width="50" height="50" viewBox="0 0 50 50" fill="none" xmlns="http://www.w3.org/2000/svg">
<g opacity="0.6">
<path d="M29.8618 30.482C29.8618 30.482 35.8618 36.4641 41.3975 35.8525C46.1431 35.3258 45.3618 31.1204 42.8082 30.1516C40.2547 29.1829 34.0449 30.8838 30.402 27.165" fill="#00C7B3"/>
<path d="M40.5894 36.7901C34.9912 36.7901 29.4778 31.3571 29.2367 31.116C28.8885 30.7678 28.8885 30.2053 29.2367 29.8526C29.585 29.5044 30.1475 29.5044 30.5001 29.8526C30.5582 29.9107 36.2635 35.5223 41.3037 34.9687C42.8617 34.7946 43.826 34.1562 43.9466 33.2142C44.0626 32.3169 43.4242 31.3392 42.5001 30.991C41.7903 30.7232 40.5582 30.6964 39.2501 30.6696C36.2234 30.6071 32.4555 30.5312 29.7769 27.7901C29.4332 27.4374 29.4376 26.8705 29.7903 26.5267C30.143 26.183 30.71 26.1874 31.0537 26.5401C33.2234 28.7589 36.5894 28.8258 39.2903 28.8839C40.8216 28.9151 42.143 28.9419 43.1385 29.3214C44.8305 29.9642 45.9421 31.7321 45.7234 33.4419C45.4957 35.2455 43.9198 36.4776 41.5091 36.7455C41.2055 36.7767 40.9019 36.7946 40.6028 36.7946L40.5894 36.7901Z" fill="#37635F"/>
<path d="M31.8524 32.1875C32.4997 36.0848 38.7631 39.6116 30.4372 42.2143C26.6649 43.3928 18.3792 38.4286 17.7364 34.5268C17.089 30.6295 19.7274 26.942 23.6247 26.2991C27.5221 25.6518 31.2096 28.2902 31.8524 32.1875Z" fill="#00C7B3"/>
<path d="M29.1561 43.2812C26.9329 43.2812 24.2767 42.1652 22.2901 40.942C19.2186 39.0536 17.1874 36.7098 16.8481 34.6741C16.4954 32.5536 16.991 30.4241 18.2454 28.6741C19.4954 26.9241 21.3526 25.7678 23.4731 25.4196C25.5936 25.067 27.7231 25.5625 29.4731 26.817C31.2231 28.0714 32.3794 29.9241 32.7276 32.0446C32.8883 33.0223 33.5177 34.058 34.1249 35.058C35.0624 36.6071 36.0356 38.2054 35.4151 39.8393C34.9017 41.1964 33.4017 42.2232 30.6963 43.067C30.2186 43.2143 29.6963 43.2812 29.1517 43.2812H29.1561ZM24.8079 27.0893C24.4642 27.0893 24.116 27.1161 23.7722 27.1741C22.1204 27.4464 20.6785 28.3482 19.7008 29.7098C18.7231 31.0714 18.3436 32.7277 18.616 34.3795C18.8615 35.8661 20.674 37.8482 23.232 39.4196C25.8794 41.0491 28.6651 41.8304 30.174 41.3571C32.2231 40.7143 33.4642 39.9687 33.7544 39.2009C34.0669 38.3795 33.357 37.2098 32.607 35.9732C31.9106 34.8304 31.1963 33.6429 30.9776 32.3259C30.7052 30.6741 29.8035 29.2321 28.4419 28.2545C27.366 27.4866 26.107 27.0848 24.8079 27.0848V27.0893Z" fill="#37635F"/>
<path d="M15.8526 27.0488C15.8526 27.0488 10.0178 37.5667 9.84813 41.3792C9.67849 45.1917 14.4821 45.2854 15.808 43.397C17.1338 41.5086 17.7901 31.7274 18.991 29.2944" fill="#00C7B3"/>
<path d="M13.0626 45.4954C12.5403 45.4954 12.009 45.415 11.5046 45.2409C9.82155 44.6695 8.86619 43.2097 8.95101 41.3346C9.12958 37.357 14.826 27.0489 15.0671 26.6114C15.3082 26.1784 15.8483 26.0222 16.2814 26.2632C16.7144 26.5043 16.8662 27.0445 16.6296 27.4775C15.0358 30.3525 10.8662 38.4597 10.7367 41.415C10.6876 42.5132 11.1385 43.232 12.0805 43.5534C13.1474 43.915 14.5715 43.598 15.0715 42.8838C15.6519 42.0534 16.201 38.6427 16.6385 35.8972C17.1117 32.9507 17.5582 30.165 18.1832 28.8972C18.4019 28.4552 18.9376 28.2766 19.3796 28.4909C19.8215 28.7097 20.0046 29.2454 19.7858 29.6873C19.2769 30.7141 18.8126 33.6159 18.4019 36.1784C17.7457 40.2588 17.2948 42.8168 16.5314 43.9061C15.826 44.9105 14.4644 45.4954 13.0582 45.4954H13.0626Z" fill="#37635F"/>
<path d="M35.9375 1.78104C33.6786 1.06675 31.2857 2.00425 29.942 3.95514C29.1205 5.14264 29 6.23193 29.3795 7.24532C27.4107 6.47746 25.0134 6.12478 22.1295 6.25425C20.8304 6.31228 19.6205 6.62925 18.5134 7.13818C18.4509 6.5355 18.2187 5.92389 17.7589 5.31228C16.1964 3.23639 13.3036 2.53104 10.9866 3.70514C7.86606 5.28996 7.05803 9.19175 9.06249 11.8569C9.54017 12.4909 10.0536 12.9239 10.5893 13.1828C11.6786 13.7051 12.3214 14.8301 12.1161 16.0176C11.8795 17.406 11.8616 18.848 12.0937 20.2676C13.3571 27.8837 21.4241 32.6739 29.0446 29.4417C34.3482 27.1917 37.1607 21.4239 36.0491 15.7766C36.0045 15.5578 35.9598 15.3435 35.9062 15.1292C35.5402 13.6025 36.2679 12.0891 37.6339 11.3212C38.067 11.0757 38.4732 10.7141 38.8304 10.2185C40.9464 7.29443 39.7366 2.98193 35.9241 1.78104H35.9375Z" fill="#00C7B3"/>
<path d="M24.1026 31.3526C21.924 31.3526 19.7722 30.8124 17.8258 29.741C14.2856 27.7945 11.8749 24.3927 11.2186 20.4106C10.9731 18.9195 10.9776 17.3883 11.241 15.8615C11.3704 15.0981 10.9552 14.3436 10.2097 13.982C9.52667 13.6561 8.90613 13.1204 8.35256 12.3883C7.22309 10.8883 6.81684 8.9731 7.24095 7.14275C7.66506 5.31239 8.88381 3.76775 10.5847 2.90168C13.2633 1.54453 16.6517 2.3481 18.4731 4.76775C18.7543 5.13828 18.9731 5.52221 19.1293 5.91953C20.0802 5.58918 21.0758 5.39721 22.0892 5.35257C24.3883 5.24989 26.4642 5.44632 28.2811 5.93739C28.3213 5.10703 28.6293 4.27221 29.2052 3.44185C30.8079 1.12043 33.6204 0.111498 36.2052 0.923998C38.2499 1.56685 39.7945 3.06685 40.4463 5.03114C41.0847 6.95971 40.7543 9.09364 39.5668 10.741C39.1427 11.3258 38.6427 11.7856 38.0802 12.0981C37.0401 12.6829 36.5177 13.8169 36.7811 14.9195C36.8347 15.1427 36.8838 15.3704 36.9285 15.6026C38.1338 21.7365 34.9686 27.9017 29.3972 30.2633C27.6829 30.991 25.8838 31.3526 24.1026 31.3526ZM13.3793 4.03114C12.7008 4.03114 12.0177 4.18293 11.3927 4.49989C10.1472 5.13382 9.29006 6.21417 8.97756 7.549C8.67399 8.86596 8.96416 10.2365 9.7722 11.3169C10.1472 11.8169 10.5535 12.174 10.9731 12.3749C12.4508 13.0802 13.2633 14.607 12.9954 16.1651C12.7677 17.491 12.7588 18.8213 12.9776 20.116C13.549 23.5535 15.6293 26.491 18.6874 28.174C21.7454 29.857 25.3972 30.0177 28.7008 28.616C33.4999 26.5802 36.2231 21.2544 35.1785 15.9419C35.1383 15.7365 35.0936 15.5311 35.0445 15.3302C34.5936 13.4419 35.4597 11.5177 37.2052 10.5401C37.5401 10.3526 37.8481 10.0669 38.1159 9.69185C38.9686 8.50882 39.2052 6.97757 38.7454 5.58918C38.2767 4.174 37.1561 3.09364 35.6651 2.62489C33.8302 2.04453 31.8258 2.78114 30.674 4.45525C30.0624 5.34364 29.9151 6.12935 30.2097 6.924C30.3347 7.25435 30.2499 7.62489 29.9999 7.87489C29.7499 8.12042 29.3793 8.20078 29.049 8.07132C27.1561 7.33025 24.8392 7.01775 22.1651 7.13828C21.0267 7.19185 19.924 7.45971 18.8883 7.94185C18.6249 8.06239 18.3213 8.049 18.0713 7.90614C17.8213 7.76328 17.6517 7.50882 17.6249 7.21864C17.5802 6.74989 17.3883 6.299 17.0445 5.84364C16.1651 4.674 14.7722 4.02668 13.3749 4.02668L13.3793 4.03114Z" fill="#37635F"/>
<path d="M39.2669 42.6689C40.7745 39.4463 39.7733 35.7938 37.0309 34.5109C34.2884 33.228 30.8431 34.8005 29.3356 38.0231C27.828 41.2457 28.8292 44.8982 31.5716 46.1811C34.3141 47.464 37.7594 45.8916 39.2669 42.6689Z" fill="#00C7B3"/>
<path d="M33.5895 47.5221C32.7726 47.5221 31.9601 47.3525 31.1922 46.9954C29.6252 46.2632 28.4913 44.8659 27.9958 43.0712C27.5181 41.3257 27.7056 39.4016 28.5226 37.6516C29.3395 35.9016 30.7011 34.5221 32.344 33.7721C34.0404 32.9998 35.8395 32.9775 37.4065 33.7096C40.5895 35.2007 41.7859 39.3927 40.0761 43.0579C38.777 45.8391 36.1654 47.5266 33.5895 47.5266V47.5221ZM35.0002 34.9596C34.3708 34.9596 33.7234 35.1025 33.0895 35.3927C31.8261 35.9686 30.7815 37.0355 30.1431 38.4061C29.5047 39.7721 29.3529 41.2632 29.719 42.598C30.0717 43.8837 30.8618 44.8704 31.9511 45.3793C34.2413 46.4507 37.1654 45.0712 38.4601 42.2989C39.7547 39.5266 38.9467 36.3971 36.652 35.3257C36.1342 35.0846 35.5717 34.9641 35.0002 34.9641V34.9596Z" fill="#37635F"/>
<path d="M24.2214 48.3904C27.2084 47.8954 29.1582 44.6487 28.5765 41.1388C27.9948 37.6289 25.1019 35.1848 22.1149 35.6799C19.128 36.1749 17.1781 39.4215 17.7598 42.9315C18.3415 46.4414 21.2345 48.8854 24.2214 48.3904Z" fill="#00C7B3"/>
<path d="M23.4509 49.3482C20.3214 49.3482 17.4777 46.7187 16.875 43.0803C16.558 41.1741 16.8973 39.2678 17.8303 37.7187C18.7902 36.1205 20.2589 35.0848 21.9687 34.8035C23.6741 34.5223 25.4018 35.0268 26.8259 36.2321C28.2098 37.4018 29.1428 39.0937 29.4598 41C30.1205 44.991 27.8348 48.7053 24.3661 49.2812C24.058 49.3303 23.7545 49.3571 23.4509 49.3571V49.3482ZM22.8839 36.5089C22.6741 36.5089 22.4643 36.5268 22.2545 36.5625C21.0714 36.7589 20.0446 37.4955 19.3571 38.6384C18.6428 39.8259 18.3839 41.2991 18.6339 42.7901C19.1339 45.808 21.5714 47.9285 24.0714 47.5134C26.567 47.0982 28.192 44.308 27.692 41.2857C27.4464 39.7991 26.7277 38.4866 25.6652 37.5893C24.8259 36.8794 23.8571 36.5089 22.8795 36.5089H22.8839Z" fill="#37635F"/>
<path d="M11.8218 9.75876C11.8218 9.75876 11.4647 6.61144 14.9602 7.39269L11.8218 9.75876Z" fill="#00C7B3"/>
<path d="M11.8217 10.6516C11.3753 10.6516 10.9869 10.3168 10.9378 9.86145C10.9154 9.68288 10.7726 8.08913 11.8886 7.08913C12.6565 6.40163 13.7547 6.20966 15.161 6.52216C15.6431 6.62931 15.9467 7.10699 15.8395 7.58913C15.7324 8.07127 15.2547 8.37484 14.7726 8.2677C14.219 8.1427 13.4735 8.07127 13.0851 8.41949C12.6476 8.81234 12.7145 9.65609 12.7145 9.66502C12.7681 10.1561 12.4154 10.5981 11.9288 10.6516C11.8931 10.6516 11.8619 10.6561 11.8261 10.6561L11.8217 10.6516Z" fill="#37635F"/>
<path d="M36.6878 6.72753C36.6878 6.72753 36.0092 3.63378 32.9512 5.49985L36.6878 6.72753Z" fill="#00C7B3"/>
<path d="M36.6877 7.62032C36.277 7.62032 35.9109 7.33907 35.8172 6.92389C35.8127 6.90157 35.6029 6.0846 35.0582 5.85692C34.5806 5.65603 33.902 5.96407 33.4198 6.26317C33.0002 6.5221 32.4511 6.38817 32.1922 5.96853C31.9332 5.54889 32.0672 4.99978 32.4868 4.74085C33.7145 3.99085 34.8172 3.81674 35.7636 4.22299C37.1431 4.81228 37.5181 6.36585 37.5582 6.53996C37.6654 7.0221 37.3573 7.49978 36.8752 7.60246C36.8127 7.61585 36.7457 7.62478 36.6832 7.62478L36.6877 7.62032Z" fill="#37635F"/>
<path d="M12.2098 35.1964C12.2098 35.1964 12.1785 35.1964 12.1607 35.1964L9.83923 35.0714C9.34816 35.0446 8.96869 34.625 8.99548 34.1339C9.02226 33.6428 9.4419 33.2634 9.93298 33.2902L12.2544 33.4152C12.7455 33.4419 13.1249 33.8616 13.0982 34.3527C13.0714 34.8303 12.6785 35.1964 12.2053 35.1964H12.2098Z" fill="#37635F"/>
<path d="M42.7053 44.4596C42.6295 44.4596 42.5536 44.4507 42.4821 44.4328L39.0491 43.54C38.5714 43.415 38.2857 42.9284 38.4107 42.4507C38.5357 41.973 39.0223 41.6873 39.5 41.8123L42.933 42.7052C43.4107 42.8302 43.6964 43.3168 43.5714 43.7945C43.4687 44.1962 43.1027 44.4641 42.7098 44.4641L42.7053 44.4596Z" fill="#37635F"/>
<path d="M38.2366 19.9998C38.2053 19.9998 38.1741 19.9998 38.1428 19.9954L36.183 19.7945C35.6919 19.7454 35.3348 19.3079 35.3839 18.8168C35.433 18.3257 35.875 17.9686 36.3616 18.0177L38.3214 18.2186C38.8125 18.2677 39.1696 18.7052 39.1205 19.1963C39.0759 19.6561 38.6875 19.9998 38.2321 19.9998H38.2366Z" fill="#37635F"/>
<path d="M5.15636 12.4285C4.79921 12.4285 4.45993 12.2143 4.326 11.8571C4.14743 11.3973 4.37511 10.8794 4.83493 10.7009L7.86618 9.52229C8.326 9.34372 8.84386 9.5714 9.02243 10.0312C9.201 10.491 8.97332 11.0089 8.5135 11.1875L5.48225 12.366C5.37511 12.4062 5.26796 12.4285 5.16082 12.4285H5.15636Z" fill="#37635F"/>
<path d="M25.2056 22.3659L23.0404 19.9105C22.8797 19.7275 22.9467 19.4373 23.1744 19.3435L23.5672 19.1828C24.6297 18.7498 25.8128 18.7141 26.902 19.0757L27.4244 19.2498C27.6699 19.3301 27.7503 19.6426 27.5717 19.8301L25.2011 22.3614L25.2056 22.3659Z" fill="#6ED5C5"/>
<path d="M25.2057 23.2588H25.1923C24.9423 23.2588 24.7012 23.1472 24.536 22.9552L22.3708 20.4999C22.103 20.1963 22.0003 19.7811 22.0941 19.3883C22.1878 18.9954 22.4646 18.6695 22.8396 18.5177L23.2324 18.357C24.4914 17.8436 25.8976 17.799 27.1878 18.232L27.7101 18.4061C28.1164 18.5401 28.4199 18.8704 28.5271 19.2856C28.6342 19.7008 28.5226 20.1338 28.228 20.4463L25.8574 22.9776C25.6878 23.1561 25.4512 23.2588 25.2057 23.2588ZM24.2235 19.9017L25.228 21.0401L26.3441 19.8436C25.6476 19.6651 24.911 19.6874 24.2235 19.8972V19.9017Z" fill="#37635F"/>
<path d="M15.9509 42.0713C14.5937 37.6025 10.0357 40.2231 10.0134 40.232C9.91963 40.6561 9.8616 41.04 9.84374 41.3749C9.6741 45.1874 14.4777 45.2811 15.8036 43.3927C15.9107 43.2409 16.0089 43.04 16.1071 42.7945C16.0759 42.5624 16.0268 42.3213 15.9509 42.0668V42.0713Z" fill="#00C7B3"/>
<path d="M13.0626 45.4954C12.5403 45.4954 12.009 45.415 11.5046 45.2409C9.82155 44.6695 8.86619 43.2097 8.95101 41.3347C8.96887 40.9641 9.0269 40.54 9.13851 40.04C9.19208 39.7945 9.34833 39.5802 9.56708 39.4552C9.83047 39.3034 12.2144 37.9998 14.3439 38.848C15.518 39.3123 16.3439 40.3123 16.7992 41.8079C16.884 42.0936 16.9465 42.3793 16.9867 42.6784C17.0046 42.8302 16.9867 42.982 16.9287 43.1248C16.7992 43.4463 16.6698 43.7007 16.5314 43.9016C15.826 44.9061 14.4644 45.4909 13.0582 45.4909L13.0626 45.4954ZM10.8082 40.8347C10.7724 41.0534 10.7501 41.2498 10.7412 41.415C10.6921 42.5132 11.143 43.232 12.0849 43.5534C13.1519 43.915 14.576 43.598 15.076 42.8838C15.0983 42.8525 15.134 42.79 15.1876 42.6829C15.1653 42.5623 15.134 42.4507 15.1028 42.3347C14.8082 41.3704 14.3483 40.7722 13.6965 40.5132C12.7501 40.1382 11.5001 40.5266 10.8126 40.8391L10.8082 40.8347Z" fill="#37635F"/>
<path d="M42.8079 30.1517C42.6561 30.0937 42.4909 30.0446 42.3168 30.0044C41.6695 30.8705 41.1605 32.549 41.8838 35.7812C46.0846 35.0312 45.2721 31.0848 42.8123 30.1517H42.8079Z" fill="#00C7B3"/>
<path d="M41.8795 36.674C41.4688 36.674 41.1027 36.3883 41.0089 35.9776C40.3571 33.0624 40.5536 30.8749 41.5982 29.4731C41.808 29.1919 42.1697 29.0579 42.5134 29.1383C42.7411 29.1919 42.942 29.2499 43.125 29.3213C44.7857 29.9508 45.8795 31.6383 45.7232 33.3258C45.5625 35.0312 44.1875 36.2812 42.0402 36.6651C41.9866 36.674 41.933 36.6785 41.8839 36.6785L41.8795 36.674ZM42.7277 31.0937C42.3839 31.9374 42.3348 33.1695 42.5759 34.674C43.4018 34.357 43.8795 33.8347 43.9464 33.1562C44.0223 32.357 43.5 31.4954 42.7277 31.0892V31.0937Z" fill="#37635F"/>
<path d="M28.9782 16.0044C29.2592 16.0044 29.4871 15.7766 29.4871 15.4955C29.4871 15.2144 29.2592 14.9866 28.9782 14.9866C28.6971 14.9866 28.4692 15.2144 28.4692 15.4955C28.4692 15.7766 28.6971 16.0044 28.9782 16.0044Z" fill="#00C7B3"/>
<path d="M28.978 16.8973C28.2056 16.8973 27.5762 16.2679 27.5762 15.4955C27.5762 14.7232 28.2056 14.0938 28.978 14.0938C29.7503 14.0938 30.3797 14.7232 30.3797 15.4955C30.3797 16.2679 29.7503 16.8973 28.978 16.8973ZM28.978 15.1116C28.7637 15.1116 28.594 15.2857 28.594 15.4955C28.594 15.7054 28.7681 15.8795 28.978 15.8795C29.1878 15.8795 29.3619 15.7054 29.3619 15.4955C29.3619 15.2857 29.1878 15.1116 28.978 15.1116Z" fill="#37635F"/>
<path d="M20.3351 17.022C20.6162 17.022 20.844 16.7942 20.844 16.5131C20.844 16.232 20.6162 16.0042 20.3351 16.0042C20.054 16.0042 19.8262 16.232 19.8262 16.5131C19.8262 16.7942 20.054 17.022 20.3351 17.022Z" fill="#00C7B3"/>
<path d="M20.3349 17.9105C19.5626 17.9105 18.9331 17.281 18.9331 16.5087C18.9331 15.7364 19.5626 15.1069 20.3349 15.1069C21.1072 15.1069 21.7367 15.7364 21.7367 16.5087C21.7367 17.281 21.1072 17.9105 20.3349 17.9105ZM20.3349 16.1248C20.1206 16.1248 19.951 16.2989 19.951 16.5087C19.951 16.7185 20.1251 16.8926 20.3349 16.8926C20.5447 16.8926 20.7188 16.7185 20.7188 16.5087C20.7188 16.2989 20.5447 16.1248 20.3349 16.1248Z" fill="#37635F"/>
<path d="M28.5759 41.1428C28.4821 40.5669 28.3169 40.0223 28.1071 39.5133C27.0714 38.25 25.5714 37.558 24.0357 37.808C21.5714 38.2142 19.9687 40.9151 20.4509 43.8392C20.8392 46.1875 22.4598 47.9642 24.3616 48.3571C27.2634 47.7812 29.1428 44.5892 28.5714 41.1383L28.5759 41.1428Z" fill="#00C7B3"/>
<path d="M24.366 49.2543C24.3035 49.2543 24.2454 49.2499 24.1829 49.2365C21.866 48.7543 20.0133 46.6472 19.5713 43.9865C19.3035 42.3659 19.5847 40.7454 20.3704 39.424C21.1829 38.0534 22.4329 37.1695 23.8883 36.9284C25.6829 36.6293 27.5177 37.3838 28.7945 38.9463C28.8481 39.0132 28.8972 39.0891 28.9285 39.174C29.174 39.7722 29.3526 40.3838 29.4508 40.9954C30.1026 44.9374 27.9463 48.5579 24.5356 49.2365C24.4776 49.2499 24.4195 49.2543 24.3615 49.2543H24.366ZM24.6606 38.6516C24.4999 38.6516 24.3436 38.665 24.1829 38.6918C23.2543 38.8436 22.4463 39.4284 21.9061 40.3391C21.3347 41.299 21.1338 42.4909 21.3347 43.6963C21.6427 45.5579 22.8526 47.04 24.3704 47.4463C26.6874 46.8659 28.1695 44.1516 27.6963 41.29C27.6249 40.8525 27.4999 40.415 27.3347 39.982C26.5936 39.1293 25.6293 38.6561 24.6651 38.6561L24.6606 38.6516Z" fill="#37635F"/>
<path d="M39.2724 42.674C39.7322 41.6963 39.9554 40.674 39.9688 39.6963C39.6295 38.8838 39.0625 38.1919 38.2858 37.7455C36.125 36.4955 33.1697 37.5669 31.6875 40.1294C30.4152 42.3303 30.6474 44.9151 32.1027 46.3972C34.7456 47.2633 37.8572 45.6963 39.2724 42.6785V42.674Z" fill="#00C7B3"/>
<path d="M33.6162 47.5267C33.0136 47.5267 32.4109 47.433 31.8261 47.241C31.6921 47.1964 31.5671 47.1205 31.4689 47.0178C29.6921 45.2142 29.4645 42.1964 30.9198 39.6785C31.7412 38.2544 32.9868 37.183 34.4332 36.6607C35.9332 36.1205 37.46 36.2276 38.7368 36.9642C39.652 37.4955 40.3662 38.3169 40.7993 39.3437C40.8484 39.4598 40.8707 39.5803 40.8707 39.7053C40.8529 40.8571 40.5895 41.9776 40.0895 43.0491C38.7948 45.8169 36.2145 47.5267 33.6252 47.5267H33.6162ZM32.5939 45.6071C34.7948 46.1964 37.2859 44.808 38.4645 42.2946C38.8305 41.5178 39.0314 40.7009 39.0716 39.8705C38.7903 39.2857 38.3662 38.8169 37.8395 38.5134C37.027 38.0446 36.0314 37.9821 35.0359 38.3437C33.9868 38.7232 33.0716 39.5134 32.4645 40.5714C31.4734 42.2901 31.5359 44.366 32.5939 45.6071Z" fill="#37635F"/>
<path d="M25.2054 22.366C25.2054 22.366 25.2054 26.2097 20.8438 24.9999L25.2054 22.366Z" fill="#00C7B3"/>
<path d="M22.3973 26.1293C21.8482 26.1293 21.25 26.04 20.6027 25.8615C20.1295 25.7275 19.8482 25.2365 19.9821 24.7633C20.1116 24.29 20.6071 24.0088 21.0804 24.1427C22.2009 24.4552 23.0402 24.4106 23.567 24.0133C24.2857 23.4731 24.308 22.3749 24.308 22.3615C24.317 21.8749 24.7143 21.4775 25.2009 21.4775H25.2053C25.6964 21.4775 26.0937 21.8749 26.0937 22.3659C26.0937 22.4463 26.0759 24.3436 24.6518 25.424C24.0357 25.8927 23.2812 26.1249 22.3929 26.1249L22.3973 26.1293Z" fill="#37635F"/>
<path d="M25.2051 22.366C25.2051 22.366 26.1783 24.9999 28.4685 24.0936L25.2051 22.366Z" fill="#00C7B3"/>
<path d="M27.5445 25.174C27.1338 25.174 26.741 25.0892 26.366 24.924C25.0088 24.3169 24.4285 22.8392 24.366 22.674C24.1963 22.2097 24.4329 21.6963 24.8927 21.5267C25.3526 21.357 25.866 21.5892 26.0401 22.049C26.1383 22.3079 26.5222 23.0401 27.0981 23.2945C27.4017 23.4285 27.741 23.4195 28.1383 23.2588C28.5981 23.0802 29.116 23.3035 29.299 23.7633C29.482 24.2231 29.2544 24.741 28.7945 24.924C28.3704 25.0892 27.9508 25.174 27.5401 25.174H27.5445Z" fill="#37635F"/>
</g>
</svg>
