<svg width="50" height="50" viewBox="0 0 50 50" fill="none" xmlns="http://www.w3.org/2000/svg">
<g opacity="0.6" clip-path="url(#clip0_5735_33160)">
<path d="M36.6341 10.4285C36.1877 7.28564 31.5359 4.81689 25.8618 4.81689C20.1877 4.81689 15.5404 7.29011 15.0895 10.4285H15.0493V10.924V39.0714C15.0493 42.4464 19.8886 45.183 25.8574 45.183C31.8261 45.183 36.6654 42.4464 36.6654 39.0714V10.4285H36.6252H36.6341Z" fill="#4F9D91"/>
<path d="M25.8662 46.0759C19.3037 46.0759 14.1653 43 14.1653 39.0714V10.4285C14.1653 10.2812 14.201 10.1473 14.2635 10.0268C14.9912 6.52675 19.9019 3.92407 25.8706 3.92407C31.8394 3.92407 36.7501 6.52675 37.4778 10.0268C37.5403 10.1473 37.576 10.2857 37.576 10.4285V39.0759C37.576 43.0044 32.4376 46.0803 25.8751 46.0803L25.8662 46.0759ZM15.951 10.6875V39.0714C15.951 41.8973 20.4912 44.2901 25.8662 44.2901C31.2412 44.2901 35.7814 41.9017 35.7814 39.0714V10.6875C35.768 10.6428 35.759 10.6026 35.7501 10.558C35.3706 7.88389 30.9331 5.70979 25.8662 5.70979C20.7992 5.70979 16.3617 7.88389 15.9822 10.558C15.9733 10.6026 15.9644 10.6473 15.951 10.6919V10.6875Z" fill="#004241"/>
<path d="M25.8661 15.9865C25.375 15.9865 24.9732 15.5848 24.9732 15.0937C24.9732 14.6026 25.375 14.2008 25.8661 14.2008C29.3036 14.2008 31.8706 12.8794 31.8706 11.6964C31.8706 10.5133 29.3036 9.19189 25.8661 9.19189C22.4286 9.19189 19.8616 10.5133 19.8616 11.6964C19.8616 12.2276 20.4286 12.8258 21.384 13.299C21.8259 13.5178 22.009 14.0535 21.7902 14.4955C21.5715 14.9374 21.0402 15.1205 20.5938 14.9017C18.9688 14.1026 18.0759 12.9642 18.0759 11.7008C18.0759 9.25439 21.4241 7.41064 25.8661 7.41064C30.3081 7.41064 33.6563 9.25439 33.6563 11.7008C33.6563 14.1473 30.3081 15.991 25.8661 15.991V15.9865Z" fill="#004241"/>
<path d="M22.1877 39.7008C23.307 39.7008 24.2145 38.7934 24.2145 37.674C24.2145 36.5546 23.307 35.6472 22.1877 35.6472C21.0683 35.6472 20.1609 36.5546 20.1609 37.674C20.1609 38.7934 21.0683 39.7008 22.1877 39.7008Z" fill="#73E0CF"/>
<path d="M22.1921 40.5937C20.5805 40.5937 19.2725 39.2856 19.2725 37.674C19.2725 36.0624 20.5805 34.7544 22.1921 34.7544C23.8037 34.7544 25.1117 36.0624 25.1117 37.674C25.1117 39.2856 23.8037 40.5937 22.1921 40.5937ZM22.1921 36.5401C21.5671 36.5401 21.0582 37.049 21.0582 37.674C21.0582 38.299 21.5671 38.808 22.1921 38.808C22.8171 38.808 23.326 38.299 23.326 37.674C23.326 37.049 22.8171 36.5401 22.1921 36.5401Z" fill="#004241"/>
<path d="M2.54907 22.531C3.46379 22.531 4.20532 21.7895 4.20532 20.8748C4.20532 19.96 3.46379 19.2185 2.54907 19.2185C1.63435 19.2185 0.892822 19.96 0.892822 20.8748C0.892822 21.7895 1.63435 22.531 2.54907 22.531Z" fill="#004241"/>
<path d="M2.54471 23.4284C2.02239 23.4284 1.51792 23.2677 1.08489 22.9641C0.526852 22.5713 0.156316 21.9865 0.0402445 21.3168C-0.0758269 20.6472 0.0759588 19.9686 0.464352 19.4106C0.857209 18.8525 1.44203 18.482 2.11167 18.3659C2.78132 18.2499 3.45989 18.4016 4.01792 18.79C4.57596 19.1829 4.94649 19.7677 5.06257 20.4374C5.30364 21.8213 4.37507 23.1472 2.98667 23.3882C2.83935 23.415 2.69203 23.4284 2.54471 23.4284ZM2.55364 20.1115C2.50899 20.1115 2.46435 20.1115 2.41971 20.1249C2.21882 20.1606 2.04471 20.2722 1.92417 20.4374C1.80364 20.6025 1.76346 20.8079 1.79471 21.0088C1.83042 21.2097 1.94203 21.3838 2.10721 21.5043C2.27685 21.6204 2.47774 21.665 2.67864 21.6338C3.09382 21.5624 3.3706 21.165 3.29917 20.7499C3.26346 20.549 3.15185 20.3749 2.98667 20.2543C2.85721 20.1606 2.70542 20.1159 2.54917 20.1159L2.55364 20.1115Z" fill="#004241"/>
<path d="M8.83935 21.4329C9.75408 21.4329 10.4956 20.6913 10.4956 19.7766C10.4956 18.8619 9.75408 18.1204 8.83935 18.1204C7.92463 18.1204 7.18311 18.8619 7.18311 19.7766C7.18311 20.6913 7.92463 21.4329 8.83935 21.4329Z" fill="#004241"/>
<path d="M8.83925 22.3303C7.62496 22.3303 6.5446 21.4553 6.33032 20.2187C6.08925 18.8347 7.01782 17.5089 8.40621 17.2678C9.07585 17.1517 9.75442 17.3035 10.3125 17.6919C10.8705 18.0847 11.241 18.6696 11.3571 19.3392C11.4732 20.0089 11.3214 20.6874 10.933 21.2455C10.5401 21.8035 9.95532 22.174 9.28567 22.2901C9.13835 22.3169 8.99103 22.3303 8.84817 22.3303H8.83925ZM8.83925 19.0133C8.7946 19.0133 8.74996 19.0133 8.70532 19.0267C8.29014 19.0981 8.01335 19.4955 8.08478 19.9106C8.15621 20.3258 8.558 20.6026 8.96871 20.5312C9.1696 20.4955 9.34371 20.3839 9.46425 20.2187C9.58478 20.0535 9.62496 19.8481 9.59371 19.6472C9.558 19.4464 9.44639 19.2722 9.28121 19.1517C9.15175 19.058 8.99996 19.0133 8.84371 19.0133H8.83925Z" fill="#004241"/>
<path d="M22.192 33.3571C22.1295 33.3571 22.0715 33.3526 22.0134 33.3392C21.9599 33.3259 21.9018 33.3125 21.8482 33.2901C21.7947 33.2678 21.7411 33.2366 21.692 33.2053C21.6429 33.1741 21.5982 33.1384 21.5581 33.0937C21.3929 32.9285 21.2947 32.7009 21.2947 32.4643C21.2947 32.2276 21.3929 31.9955 21.5581 31.8303C21.5982 31.7901 21.6429 31.7544 21.692 31.7232C21.7411 31.6875 21.7947 31.6607 21.8482 31.6384C21.9018 31.616 21.9599 31.5982 22.0134 31.5893C22.1295 31.5669 22.25 31.5669 22.3661 31.5893C22.4197 31.5982 22.4777 31.616 22.5313 31.6384C22.5849 31.6607 22.6384 31.6875 22.6831 31.7232C22.7322 31.7544 22.7813 31.7901 22.8215 31.8303C22.9866 32 23.0804 32.2276 23.0804 32.4643C23.0804 32.7009 22.9866 32.9285 22.8215 33.0937C22.7813 33.1384 22.7322 33.1741 22.6831 33.2053C22.6384 33.2366 22.5849 33.2678 22.5313 33.2901C22.4777 33.3125 22.4197 33.3259 22.3661 33.3392C22.3081 33.3526 22.25 33.3571 22.192 33.3571Z" fill="#004241"/>
<path d="M22.192 30.6474C21.9554 30.6474 21.7232 30.5492 21.5581 30.384C21.5179 30.3438 21.4777 30.2992 21.4465 30.2501C21.4152 30.201 21.3884 30.1474 21.3661 30.0938C21.3438 30.0402 21.3259 29.9867 21.3125 29.9286C21.3036 29.8706 21.2947 29.8126 21.2947 29.7545C21.2947 29.5179 21.3929 29.2858 21.5581 29.1206C21.5982 29.0804 21.6429 29.0447 21.692 29.009C21.7411 28.9777 21.7947 28.951 21.8482 28.9286C21.9018 28.9063 21.9599 28.8885 22.0134 28.8795C22.1295 28.8572 22.25 28.8572 22.3661 28.8795C22.4197 28.8885 22.4777 28.9063 22.5313 28.9286C22.5849 28.951 22.6384 28.9777 22.6831 29.009C22.7322 29.0447 22.7813 29.0804 22.8215 29.1206C22.9866 29.2858 23.0804 29.5179 23.0804 29.7545C23.0804 29.8126 23.0759 29.8706 23.0625 29.9286C23.0536 29.9867 23.0357 30.0402 23.0134 30.0938C22.9911 30.1474 22.9643 30.201 22.9331 30.2501C22.8974 30.2992 22.8616 30.3438 22.8215 30.384C22.7813 30.4242 22.7322 30.4644 22.6831 30.4956C22.6384 30.5269 22.5849 30.5536 22.5313 30.576C22.4777 30.5983 22.4197 30.6161 22.3661 30.6295C22.3081 30.6385 22.25 30.6474 22.192 30.6474Z" fill="#004241"/>
<path d="M4.18308 21.4822C3.75897 21.4822 3.3795 21.1741 3.30361 20.7411L1.942 12.9465C1.90183 12.7143 1.9554 12.4733 2.08933 12.2813C2.22325 12.0893 2.43308 11.9554 2.66522 11.9152L8.9554 10.817C9.18754 10.7768 9.42861 10.8304 9.62058 10.9643C9.81254 11.1027 9.94647 11.3081 9.98665 11.5402L11.3438 19.3349C11.4286 19.8215 11.1027 20.2813 10.6161 20.3661C10.1295 20.4554 9.66968 20.125 9.58486 19.6384L8.3795 12.7233L3.84825 13.5134L5.05361 20.4286C5.13843 20.9152 4.81254 21.375 4.32593 21.4599C4.27236 21.4688 4.22325 21.4733 4.16968 21.4733L4.18308 21.4822Z" fill="#004241"/>
<path d="M42.6741 29.8794C43.5888 29.8794 44.3303 29.1379 44.3303 28.2231C44.3303 27.3084 43.5888 26.5669 42.6741 26.5669C41.7594 26.5669 41.0178 27.3084 41.0178 28.2231C41.0178 29.1379 41.7594 29.8794 42.6741 29.8794Z" fill="#004241"/>
<path d="M42.6786 30.7767C42.6027 30.7767 42.5268 30.7767 42.4554 30.7678C41.7769 30.7097 41.1608 30.3883 40.7233 29.866C40.2858 29.3437 40.076 28.6829 40.134 28.0044C40.2545 26.6026 41.4867 25.5669 42.8974 25.6829C43.576 25.741 44.192 26.0624 44.6295 26.5847C45.067 27.1071 45.2769 27.7678 45.2188 28.4463C45.1608 29.1249 44.8393 29.741 44.317 30.1785C43.8527 30.5669 43.2813 30.7767 42.6831 30.7767H42.6786ZM42.6742 27.4597C42.2813 27.4597 41.9465 27.7588 41.9108 28.1562C41.8929 28.3615 41.9554 28.5579 42.0894 28.7142C42.2188 28.8704 42.4063 28.9642 42.6072 28.9821C42.8081 28.9999 43.009 28.9374 43.1652 28.8079C43.3215 28.6785 43.4152 28.491 43.4331 28.2901C43.451 28.0847 43.3885 27.8883 43.259 27.7321C43.1295 27.5758 42.942 27.4821 42.7411 27.4642C42.7188 27.4642 42.6965 27.4642 42.6742 27.4642V27.4597Z" fill="#004241"/>
<path d="M44.3261 29.2588C44.2993 29.2588 44.2725 29.2588 44.2457 29.2588C43.7547 29.2142 43.393 28.7811 43.4332 28.2901L44.1207 20.4061C44.1654 19.9151 44.585 19.5534 45.0895 19.5936C46.9779 19.7588 48.6163 20.9418 49.3618 22.6829L49.9288 23.9999C50.1252 24.4508 49.9154 24.9776 49.46 25.174C49.0047 25.3704 48.4823 25.1606 48.2859 24.7052L47.7189 23.3883C47.3529 22.5356 46.6564 21.8838 45.8082 21.5713L45.21 28.4463C45.1698 28.9106 44.7814 29.2633 44.3216 29.2633L44.3261 29.2588Z" fill="#004241"/>
</g>
<defs>
<clipPath id="clip0_5735_33160">
<rect width="50" height="50" fill="white"/>
</clipPath>
</defs>
</svg>
