<svg width="50" height="50" viewBox="0 0 50 50" fill="none" xmlns="http://www.w3.org/2000/svg">
<g opacity="0.6">
<path d="M34.2722 12.9422C34.0803 12.9422 33.9195 12.8038 33.8928 12.6163L33.3749 9.20557H28.2186L27.7008 12.6163C27.674 12.8038 27.5088 12.9422 27.3213 12.9422H23.9106C23.1383 12.9422 22.3838 13.1922 21.7633 13.6565L13.5847 19.777C12.6829 20.4511 12.1472 21.5181 12.1472 22.6431V41.2547C12.1472 43.2324 13.7499 44.835 15.7276 44.835H34.2722C36.2499 44.835 37.8526 43.2324 37.8526 41.2547V16.5225C37.8526 14.5449 36.2499 12.9422 34.2722 12.9422ZM24.3436 20.7413L19.6338 24.1207C18.8347 24.6966 17.7186 24.5091 17.1472 23.71C16.5758 22.9109 16.7588 21.7949 17.5579 21.2234L22.2678 17.844C23.0669 17.2681 24.1829 17.4556 24.7544 18.2547C25.3258 19.0538 25.1428 20.1699 24.3436 20.7413Z" fill="#3F5753"/>
<path d="M34.2723 45.7323H15.7276C13.2589 45.7323 11.2544 43.7234 11.2544 41.2591V22.6475C11.2544 21.2457 11.924 19.9064 13.049 19.0671L21.2276 12.9466C21.9955 12.3707 22.9508 12.0537 23.9106 12.0537H26.8839L27.3348 9.07607C27.4017 8.63857 27.7767 8.31714 28.2187 8.31714H33.3749C33.8169 8.31714 34.1919 8.63857 34.2589 9.07607L34.7142 12.0761C36.9776 12.2993 38.7499 14.21 38.7499 16.527V41.2591C38.7499 43.7279 36.741 45.7323 34.2767 45.7323H34.2723ZM23.9062 13.835C23.3303 13.835 22.7589 14.027 22.2946 14.3707L14.116 20.4912C13.4419 20.9957 13.0401 21.7993 13.0401 22.643V41.2546C13.0401 42.7368 14.2455 43.9421 15.7276 43.9421H34.2723C35.7544 43.9421 36.9598 42.7368 36.9598 41.2546V16.5225C36.9598 15.0404 35.7544 13.835 34.2723 13.835C33.6383 13.835 33.1071 13.3796 33.0089 12.7502L32.6071 10.0984H28.9821L28.5803 12.7502C28.4821 13.3796 27.9508 13.835 27.3169 13.835H23.9062ZM18.5937 25.3439C17.7589 25.3439 16.9374 24.9555 16.4151 24.2279C15.5535 23.027 15.8303 21.3529 17.0312 20.4912L21.741 17.1118C22.3214 16.6966 23.0312 16.5314 23.7365 16.6475C24.4419 16.7636 25.058 17.1475 25.4776 17.7279C25.8928 18.3082 26.058 19.018 25.9419 19.7234C25.8258 20.4287 25.4419 21.0448 24.8615 21.4645L20.1517 24.8439C19.6785 25.1832 19.1339 25.3439 18.5937 25.3439ZM23.299 18.402C23.116 18.402 22.933 18.46 22.7812 18.5671L18.0714 21.9466C17.674 22.2323 17.5803 22.7904 17.866 23.1877C18.1517 23.585 18.7098 23.6788 19.1071 23.393L23.8169 20.0136C24.0089 19.8752 24.1383 19.6698 24.1785 19.4332C24.2187 19.1966 24.1606 18.9645 24.0223 18.768C23.8839 18.5761 23.6785 18.4466 23.4419 18.4064C23.3928 18.3975 23.3437 18.393 23.2946 18.393L23.299 18.402Z" fill="#37635F"/>
<path d="M14.5713 29.1518V41.1919C14.5713 41.7544 15.0579 42.2098 15.6561 42.2098H28.2588C28.7811 42.2098 29.1784 41.7768 29.1025 41.2902C28.5981 38.1607 26.1472 28.1161 15.4106 28.3482C14.9463 28.3571 14.5713 28.7143 14.5713 29.1518Z" fill="#5BB5A7"/>
<path d="M28.2632 43.1027H15.6605C14.5713 43.1027 13.6829 42.2456 13.6829 41.192V29.1518C13.6829 28.2367 14.4507 27.4777 15.3971 27.4554C20.2989 27.3527 24.1516 29.2277 26.8302 33.0447C28.9239 36.0268 29.7096 39.4018 29.9909 41.1474C30.0668 41.6251 29.9284 42.1161 29.6114 42.4867C29.2766 42.8751 28.79 43.0983 28.2677 43.0983L28.2632 43.1027ZM15.4641 29.2411V41.192C15.4641 41.2456 15.5355 41.317 15.6561 41.317H28.2007C27.6963 38.3081 25.3659 29.2367 15.7632 29.2367C15.665 29.2367 15.5623 29.2367 15.4596 29.2367L15.4641 29.2411Z" fill="#37635F"/>
<path d="M28.3439 5.26782H33.4867C34.335 5.26782 35.0269 5.95979 35.0269 6.808V10.0625H26.8037V6.808C26.8037 5.95979 27.4957 5.26782 28.3439 5.26782Z" fill="#5BB5A7"/>
<path d="M35.0267 10.951H26.8035C26.3124 10.951 25.9106 10.5492 25.9106 10.0581V6.80364C25.9106 5.46436 26.9999 4.37061 28.3437 4.37061H33.4865C34.8258 4.37061 35.9196 5.45989 35.9196 6.80364V10.0581C35.9196 10.5492 35.5178 10.951 35.0267 10.951ZM27.6964 9.16525H34.1339V6.80364C34.1339 6.4465 33.8437 6.15632 33.4865 6.15632H28.3437C27.9865 6.15632 27.6964 6.4465 27.6964 6.80364V9.16525Z" fill="#37635F"/>
<path d="M28.2185 33.6115C28.2185 36.0311 26.2543 37.9954 23.8346 37.9954C21.415 37.9954 19.4507 36.0311 19.4507 33.6115C19.4507 31.1918 23.8346 25.3525 23.8346 25.3525C23.8346 25.3525 28.2185 31.1874 28.2185 33.6115Z" fill="#BAFAEE"/>
<path d="M23.8346 38.8884C20.9239 38.8884 18.5579 36.5223 18.5579 33.6116C18.5579 30.9687 22.6516 25.4375 23.1204 24.8169C23.4596 24.366 24.2096 24.366 24.5489 24.8169C25.0177 25.4375 29.1114 30.9687 29.1114 33.6116C29.1114 36.5223 26.7454 38.8884 23.8346 38.8884ZM23.8346 26.875C22.2632 29.1116 20.3436 32.2812 20.3436 33.6116C20.3436 35.5357 21.9105 37.1026 23.8346 37.1026C25.7588 37.1026 27.3257 35.5357 27.3257 33.6116C27.3257 32.2768 25.4061 29.1116 23.8346 26.875Z" fill="#37635F"/>
<path d="M33.951 22.2856H37.8528V25.9062H33.951C33.0269 25.9062 32.2725 25.1562 32.2725 24.2276V23.9642C32.2725 23.0401 33.0225 22.2856 33.951 22.2856Z" fill="#009081"/>
<path d="M37.8526 26.7991H33.9508C32.5356 26.7991 31.3794 25.6473 31.3794 24.2276V23.9643C31.3794 22.5491 32.5312 21.3928 33.9508 21.3928H37.8526C38.3437 21.3928 38.7455 21.7946 38.7455 22.2857V25.9018C38.7455 26.3928 38.3437 26.7946 37.8526 26.7946V26.7991ZM33.9508 23.1785C33.5178 23.1785 33.1651 23.5312 33.1651 23.9643V24.2276C33.1651 24.6607 33.5178 25.0134 33.9508 25.0134H36.9598V23.183H33.9508V23.1785Z" fill="#37635F"/>
<path d="M33.951 28.9197H37.8528V32.5402H33.951C33.0269 32.5402 32.2725 31.7902 32.2725 30.8616V30.5983C32.2725 29.6741 33.0225 28.9197 33.951 28.9197Z" fill="#009081"/>
<path d="M37.8526 33.4331H33.9508C32.5356 33.4331 31.3794 32.2813 31.3794 30.8617V30.5983C31.3794 29.1831 32.5312 28.0269 33.9508 28.0269H37.8526C38.3437 28.0269 38.7455 28.4286 38.7455 28.9197V32.5402C38.7455 33.0313 38.3437 33.4331 37.8526 33.4331ZM33.9508 29.8126C33.5178 29.8126 33.1651 30.1652 33.1651 30.5983V30.8617C33.1651 31.2947 33.5178 31.6474 33.9508 31.6474H36.9598V29.8126H33.9508Z" fill="#37635F"/>
<path d="M33.951 35.5537H37.8528V39.1742H33.951C33.0269 39.1742 32.2725 38.4242 32.2725 37.4957V37.2323C32.2725 36.3082 33.0225 35.5537 33.951 35.5537Z" fill="#009081"/>
<path d="M37.8526 40.0671H33.9508C32.5356 40.0671 31.3794 38.9154 31.3794 37.4957V37.2323C31.3794 35.8171 32.5312 34.6609 33.9508 34.6609H37.8526C38.3437 34.6609 38.7455 35.0627 38.7455 35.5537V39.1743C38.7455 39.6654 38.3437 40.0671 37.8526 40.0671ZM33.9508 36.4466C33.5178 36.4466 33.1651 36.7993 33.1651 37.2323V37.4957C33.1651 37.9287 33.5178 38.2814 33.9508 38.2814H36.9598V36.4466H33.9508Z" fill="#37635F"/>
<path d="M22.9062 34.9376C23.6631 34.9376 24.2767 34.324 24.2767 33.5671C24.2767 32.8101 23.6631 32.1965 22.9062 32.1965C22.1493 32.1965 21.5356 32.8101 21.5356 33.5671C21.5356 34.324 22.1493 34.9376 22.9062 34.9376Z" fill="#EEEEEE"/>
</g>
</svg>
