<svg width="50" height="50" viewBox="0 0 50 50" fill="none" xmlns="http://www.w3.org/2000/svg">
<g opacity="0.6" clip-path="url(#clip0_5735_33977)">
<path d="M2.60693 42.7544L43.7319 42.7544V36.0803H2.60693V42.7544Z" fill="#9FDECF"/>
<path d="M43.7321 43.6473H2.61161C2.12054 43.6473 1.71875 43.2455 1.71875 42.7545L1.71875 36.0804C1.71875 35.5893 2.12054 35.1875 2.61161 35.1875H43.7366C44.2277 35.1875 44.6295 35.5893 44.6295 36.0804V42.7545C44.6295 43.2455 44.2277 43.6473 43.7366 43.6473H43.7321ZM3.5 41.8616H42.8393V36.9732H3.50446V41.8616H3.5Z" fill="#3F5753"/>
<path d="M2.60693 37.4197L43.7319 37.4197V31.067L2.60693 31.067V37.4197Z" fill="#6FD3C3"/>
<path d="M43.7321 38.3081H2.61161C2.12054 38.3081 1.71875 37.9063 1.71875 37.4152L1.71875 31.0625C1.71875 30.5715 2.12054 30.1697 2.61161 30.1697H43.7366C44.2277 30.1697 44.6295 30.5715 44.6295 31.0625V37.4152C44.6295 37.9063 44.2277 38.3081 43.7366 38.3081H43.7321ZM3.5 36.5224H42.8393V31.9554H3.50446V36.5224H3.5Z" fill="#3F5753"/>
<path d="M47.393 18.7589V49.1071H43.7278V18.7589C43.7278 17.7455 44.5492 16.9241 45.5626 16.9241C46.576 16.9241 47.3975 17.7455 47.3975 18.7589H47.393Z" fill="#5BB5A7"/>
<path d="M47.3886 50H43.7234C43.2324 50 42.8306 49.5982 42.8306 49.1071V18.7589C42.8306 17.2545 44.0538 16.0312 45.5582 16.0312C47.0627 16.0312 48.2859 17.2545 48.2859 18.7589V49.1071C48.2859 49.5982 47.8841 50 47.3931 50H47.3886ZM44.6163 48.2143H46.4957V18.7589C46.4957 18.2411 46.0761 17.817 45.5538 17.817C45.0315 17.817 44.6118 18.2366 44.6118 18.7589V48.2143H44.6163Z" fill="#3F5753"/>
<path d="M6.27678 26.1026L6.27678 49.1071H2.61161L2.61161 26.1026C2.61161 25.0893 3.43304 24.2678 4.44643 24.2678C5.45982 24.2678 6.28125 25.0893 6.28125 26.1026H6.27678Z" fill="#5BB5A7"/>
<path d="M6.27679 50H2.61161C2.12054 50 1.71875 49.5982 1.71875 49.1071L1.71875 26.1027C1.71875 24.5982 2.94196 23.375 4.44643 23.375C5.95089 23.375 7.17411 24.5982 7.17411 26.1027L7.17411 49.1071C7.17411 49.5982 6.77232 50 6.28125 50H6.27679ZM3.50446 48.2143H5.38393L5.38393 26.1027C5.38393 25.5848 4.96429 25.1607 4.44196 25.1607C3.91964 25.1607 3.5 25.5804 3.5 26.1027L3.5 48.2143H3.50446Z" fill="#3F5753"/>
<path d="M43.7325 24.2678V31.0625H33.0807C33.0807 31.0625 32.9289 25.5714 43.7325 24.2678Z" fill="#5BB5A7"/>
<path d="M43.7322 31.9553H33.0804C32.5983 31.9553 32.201 31.5714 32.1876 31.0893C32.1786 30.8303 32.1429 24.7679 43.6251 23.3839C43.8795 23.3571 44.134 23.433 44.326 23.6027C44.5179 23.7723 44.6251 24.0134 44.6251 24.2723V31.067C44.6251 31.558 44.2233 31.9598 43.7322 31.9598V31.9553ZM34.1608 30.1696H42.8394V25.2902C36.4242 26.2812 34.6474 28.8125 34.1608 30.1696Z" fill="#3F5753"/>
<path d="M30.4599 37.4197V28.8215C30.4599 28.1831 30.9822 27.6697 31.6295 27.6697H32.2456C33.8036 27.6697 34.4599 29.759 34.4599 30.3974L35.5536 36.2411C35.6697 36.8572 35.1876 37.4241 34.5536 37.4241H30.4599V29.3125H6.27686V37.4241H29.4867" fill="#8BF8E7"/>
<path d="M34.549 38.3082H30.4552C30.2766 38.3082 30.1115 38.2546 29.9686 38.1653C29.8302 38.2546 29.6606 38.3082 29.482 38.3082H6.27665C5.78557 38.3082 5.38379 37.9064 5.38379 37.4153V29.3037C5.38379 28.8126 5.78557 28.4109 6.27665 28.4109H29.607C29.799 27.4778 30.6293 26.7725 31.6293 26.7725H32.2454C34.3615 26.7725 35.2945 29.21 35.3481 30.2948L36.4284 36.0671C36.5311 36.6207 36.3838 37.1832 36.0266 37.6162C35.6606 38.0537 35.1249 38.3037 34.5534 38.3037L34.549 38.3082ZM7.1695 36.5225H29.4865C29.5133 36.5225 29.54 36.5225 29.5668 36.5225V30.1921H7.1695V36.518V36.5225ZM31.3525 36.5225H34.5534C34.607 36.5225 34.6383 36.5001 34.6516 36.4778C34.6829 36.4421 34.674 36.4064 34.674 36.3975L33.5802 30.5537C33.5713 30.5001 33.5668 30.4466 33.5668 30.3885C33.5668 30.0894 33.107 28.5537 32.2454 28.5537H31.6293C31.4775 28.5537 31.3525 28.6698 31.3525 28.8126V36.518V36.5225Z" fill="#3F5753"/>
<path d="M24.5757 34.2546C24.2945 34.2546 24.0177 34.1206 23.8436 33.8751C23.5578 33.4733 23.6561 32.9153 24.0578 32.6296C25.8525 31.3662 25.8971 29.3796 25.8971 29.2992C25.9016 28.8126 26.3034 28.4153 26.79 28.4153C26.79 28.4153 26.79 28.4153 26.7945 28.4153C27.2855 28.4153 27.6828 28.8126 27.6828 29.3037C27.6828 29.4242 27.6516 32.2814 25.0846 34.0894C24.9284 34.201 24.7498 34.2501 24.5712 34.2501L24.5757 34.2546Z" fill="#3F5753"/>
<path d="M10.1428 34.2545C9.66961 34.2545 9.27676 33.884 9.24997 33.4063C9.22765 32.9152 9.60265 32.4956 10.0982 32.4688C10.1696 32.4688 17.2366 32.0715 20.4821 28.6876C20.8214 28.3304 21.3884 28.3215 21.7455 28.6608C22.1026 29.0001 22.1116 29.567 21.7723 29.9242C18.0312 33.826 10.5044 34.2411 10.1875 34.2545C10.1741 34.2545 10.1562 34.2545 10.1428 34.2545Z" fill="#3F5753"/>
</g>
<defs>
<clipPath id="clip0_5735_33977">
<rect width="50" height="50" fill="white"/>
</clipPath>
</defs>
</svg>
