<svg width="50" height="50" viewBox="0 0 50 50" fill="none" xmlns="http://www.w3.org/2000/svg">
<g opacity="0.6">
<path d="M43.1739 16.6517L31.04 4.51782L22.2007 13.3571L39.8793 31.0357L44.2989 26.616L42.9596 25.2767C40.6382 22.9553 40.7364 19.0982 43.1784 16.6562L43.1739 16.6517Z" fill="#53918C"/>
<path d="M39.8749 31.9286C39.6472 31.9286 39.4195 31.8393 39.2454 31.6652L21.5668 13.9866C21.2186 13.6384 21.2186 13.0715 21.5668 12.7232L30.4061 3.88396C30.7543 3.53575 31.3213 3.53575 31.6695 3.88396L43.8034 16.0179C43.9731 16.1875 44.0668 16.4108 44.0668 16.6474C44.0668 16.884 43.9731 17.1116 43.8034 17.2768C41.7141 19.3661 41.6159 22.6652 43.5847 24.634L44.924 25.9732C45.2722 26.3215 45.2722 26.8884 44.924 27.2366L40.5043 31.6563C40.3302 31.8304 40.1025 31.9197 39.8749 31.9197V31.9286ZM23.4597 13.3572L39.8749 29.7724L43.0311 26.6161L42.3213 25.9063C39.8615 23.4465 39.7543 19.4777 41.9463 16.692L31.0356 5.78129L23.4597 13.3572Z" fill="#37635F"/>
<path d="M27.487 18.646L32.5378 23.6967L11.4225 44.8121C10.5323 45.7023 9.08648 45.7023 8.19629 44.8121L6.36854 42.9843C5.47834 42.0941 5.47834 40.6484 6.36854 39.7582L27.4839 18.6428L27.487 18.646Z" fill="#70EBD8"/>
<path d="M9.81254 46.3705C9.00004 46.3705 8.18754 46.0624 7.57146 45.4419L5.74557 43.616C4.50896 42.3794 4.50896 40.366 5.74557 39.1294L26.8616 18.0133C27.1965 17.6785 27.7902 17.6785 28.125 18.0133L33.1742 23.0624C33.5224 23.4106 33.5224 23.9776 33.1742 24.3258L12.0581 45.4419C11.4375 46.0624 10.625 46.3705 9.817 46.3705H9.81254ZM27.4866 19.9106L7.0045 40.3928C6.46432 40.933 6.46432 41.8124 7.0045 42.3526L8.83039 44.1785C9.37057 44.7187 10.25 44.7187 10.7902 44.1785L31.2768 23.6919L27.4866 19.9017V19.9106Z" fill="#37635F"/>
<path d="M26.8392 11.6963L25.616 12.9196C25.4062 13.1294 25.3972 13.4642 25.5981 13.6651L36.5267 24.5937C36.7142 24.7812 37.0446 24.5714 36.9508 24.3169C36.5401 23.174 36.1026 21.4151 36.5356 19.9151C36.7455 19.1874 36.5713 18.4285 36.058 17.9106L29.7722 11.6249C28.9821 10.8347 27.6696 10.8705 26.8392 11.7008V11.6963Z" fill="#6FD3C3"/>
<path d="M7 9.30814C8.62234 9.30814 9.9375 8.64656 9.9375 7.83046C9.9375 7.01436 8.62234 6.35278 7 6.35278C5.37766 6.35278 4.0625 7.01436 4.0625 7.83046C4.0625 8.64656 5.37766 9.30814 7 9.30814Z" fill="#53918C"/>
<path d="M7.00003 10.201C4.78128 10.201 3.16968 9.2055 3.16968 7.8305C3.16968 6.4555 4.78128 5.45996 7.00003 5.45996C9.21878 5.45996 10.8304 6.4555 10.8304 7.8305C10.8304 9.2055 9.21878 10.201 7.00003 10.201ZM4.97325 7.8305C5.12503 8.02693 5.83039 8.41532 7.00003 8.41532C8.16968 8.41532 8.87503 8.02693 9.02682 7.8305C8.87503 7.63407 8.16968 7.24568 7.00003 7.24568C5.83039 7.24568 5.12503 7.63407 4.97325 7.8305Z" fill="#37635F"/>
<path d="M7.00003 20.2278C6.50896 20.2278 6.10718 19.826 6.10718 19.3349V9.30814C6.10718 8.81707 6.50896 8.41528 7.00003 8.41528C7.49111 8.41528 7.89289 8.81707 7.89289 9.30814V19.3349C7.89289 19.826 7.49111 20.2278 7.00003 20.2278Z" fill="#37635F"/>
<path d="M18.5423 17.8508C18.953 17.1456 18.1496 15.912 16.7477 15.0954C15.3459 14.2789 13.8764 14.1886 13.4657 14.8938C13.0549 15.599 13.8584 16.8326 15.2602 17.6492C16.6621 18.4657 18.1315 18.556 18.5423 17.8508Z" fill="#53918C"/>
<path d="M17.4285 19.2278C16.6472 19.2278 15.7321 18.9599 14.808 18.4242C14.0133 17.9599 13.3437 17.3572 12.933 16.7188C12.4062 15.9108 12.3214 15.0849 12.6919 14.4465C13.3839 13.259 15.2767 13.2099 17.1964 14.326C19.116 15.4421 20.0044 17.1162 19.3124 18.3037C18.9553 18.9197 18.2722 19.2278 17.4285 19.2278ZM14.2499 15.3528C14.2812 15.5983 14.6964 16.2903 15.7053 16.8796C16.7142 17.4688 17.5222 17.4867 17.7544 17.3929C17.7231 17.1474 17.308 16.4554 16.299 15.8662C15.2901 15.2769 14.4821 15.259 14.2499 15.3528Z" fill="#37635F"/>
<path d="M10.21 27.2099C10.0582 27.2099 9.90192 27.1697 9.76353 27.0894C9.33942 26.8394 9.1921 26.2947 9.4421 25.8706L14.4912 17.2054C14.7412 16.7769 15.2858 16.634 15.71 16.884C16.1341 17.134 16.2814 17.6786 16.0314 18.1028L10.9823 26.7679C10.8171 27.0536 10.518 27.2099 10.21 27.2099Z" fill="#37635F"/>
</g>
</svg>
