<svg width="50" height="50" viewBox="0 0 50 50" fill="none" xmlns="http://www.w3.org/2000/svg">
<g opacity="0.6" clip-path="url(#clip0_5735_34229)">
<path d="M18.2368 9.22775H14.3172V5.30811L10.0582 5.30811V9.22775H6.14307L6.14307 13.4867H10.0582V17.4019H14.3172V13.4867H18.2368V9.22775Z" fill="#5BB5A7"/>
<path d="M14.317 18.2947H10.058C9.56696 18.2947 9.16518 17.8929 9.16518 17.4018V14.3795H6.14286C5.65179 14.3795 5.25 13.9777 5.25 13.4866L5.25 9.22771C5.25 8.73664 5.65179 8.33486 6.14286 8.33486H9.16518V5.31253C9.16518 4.82146 9.56696 4.41968 10.058 4.41968L14.317 4.41968C14.808 4.41968 15.2098 4.82146 15.2098 5.31253V8.33486H18.2321C18.7232 8.33486 19.125 8.73664 19.125 9.22771V13.4866C19.125 13.9777 18.7232 14.3795 18.2321 14.3795H15.2098V17.4018C15.2098 17.8929 14.808 18.2947 14.317 18.2947ZM10.9509 16.509H13.4241V13.4866C13.4241 12.9956 13.8259 12.5938 14.317 12.5938H17.3393V10.1206H14.317C13.8259 10.1206 13.4241 9.71879 13.4241 9.22771V6.20539H10.9509V9.22771C10.9509 9.71879 10.5491 10.1206 10.058 10.1206H7.03571V12.5938H10.058C10.5491 12.5938 10.9509 12.9956 10.9509 13.4866V16.509Z" fill="#3F5753"/>
<path d="M15.6297 44.9196C20.6126 44.9196 24.6521 40.8802 24.6521 35.8973C24.6521 30.9144 20.6126 26.875 15.6297 26.875C10.6469 26.875 6.60742 30.9144 6.60742 35.8973C6.60742 40.8802 10.6469 44.9196 15.6297 44.9196Z" fill="#BAFAEE"/>
<path d="M15.6295 45.8125C10.1608 45.8125 5.71436 41.3661 5.71436 35.8974C5.71436 30.4286 10.1608 25.9822 15.6295 25.9822C21.0983 25.9822 25.5447 30.4286 25.5447 35.8974C25.5447 41.3661 21.0983 45.8125 15.6295 45.8125ZM15.6295 27.7679C11.1474 27.7679 7.50007 31.4152 7.50007 35.8974C7.50007 40.3795 11.1474 44.0268 15.6295 44.0268C20.1117 44.0268 23.759 40.3795 23.759 35.8974C23.759 31.4152 20.1117 27.7679 15.6295 27.7679Z" fill="#3F5753"/>
<path d="M18.5315 45.3348C18.1565 45.3348 17.8082 45.0937 17.6832 44.7187L12.0761 27.5624C11.9243 27.0937 12.1788 26.5892 12.6475 26.4374C13.1163 26.2856 13.6207 26.5401 13.7725 27.0089L19.3797 44.1651C19.5315 44.6339 19.277 45.1383 18.8082 45.2901C18.7145 45.3214 18.6207 45.3348 18.5315 45.3348Z" fill="#3F5753"/>
<path d="M17.4468 31.0222C17.4468 31.0222 19.8709 31.2008 20.9959 34.6338L17.4468 31.0222Z" fill="#EE706B"/>
<path d="M20.9957 35.5268C20.6207 35.5268 20.2724 35.2857 20.1474 34.9107C19.2412 32.1429 17.4421 31.9197 17.3662 31.9107C16.884 31.8572 16.5224 31.4286 16.5626 30.942C16.6073 30.4554 17.0269 30.0893 17.509 30.1295C17.634 30.1384 20.5492 30.3973 21.8439 34.3527C21.9957 34.8214 21.7412 35.3259 21.2724 35.4777C21.1787 35.5089 21.0849 35.5223 20.9957 35.5223V35.5268Z" fill="white"/>
<path d="M37.6635 14.2913C36.2035 10.7702 32.1656 9.09929 28.6445 10.5592C25.1235 12.0191 23.4525 16.057 24.9125 19.5781L32.1195 36.9602C33.5794 40.4813 37.6173 42.1522 41.1384 40.6923C44.6595 39.2324 46.3304 35.1945 44.8705 31.6734L37.6635 14.2913Z" fill="#BAFAEE"/>
<path d="M38.5047 42.116C35.4467 42.116 32.5359 40.3035 31.2949 37.308L24.0851 19.924C22.4377 15.9553 24.3306 11.3839 28.2993 9.73654C30.2234 8.93743 32.3395 8.93743 34.2636 9.73654C36.1877 10.5312 37.6877 12.0312 38.4824 13.9553L45.6922 31.3392C47.3395 35.308 45.4467 39.8794 41.4779 41.5267C40.5047 41.9285 39.4958 42.1205 38.5047 42.1205V42.116ZM31.2859 10.924C30.5047 10.924 29.7279 11.0758 28.9824 11.3839C25.9243 12.6517 24.4645 16.174 25.7324 19.2365L32.9422 36.6205C34.2101 39.6785 37.7324 41.1383 40.7949 39.8705C43.8529 38.6026 45.3127 35.0803 44.0449 32.0178L36.8351 14.6339C36.219 13.1517 35.0672 11.9955 33.5806 11.3839C32.8395 11.0758 32.0627 10.924 31.2815 10.924H31.2859Z" fill="#3F5753"/>
<path d="M42.5718 37.2276C39.0495 38.6874 35.0138 37.0178 33.5539 33.4955L26.3441 16.1115C25.8754 14.9821 25.7325 13.799 25.8664 12.6606C24.3709 14.558 23.92 17.1874 24.9111 19.5758L32.1209 36.9598C33.5807 40.4821 37.6164 42.1517 41.1388 40.6919C43.5272 39.7008 45.0629 37.5223 45.3486 35.1205C44.6432 36.0178 43.7057 36.7544 42.5763 37.2231L42.5718 37.2276Z" fill="#73E0CF"/>
<path d="M38.5047 42.116C35.4467 42.116 32.5359 40.3035 31.2949 37.308L24.0851 19.924C22.4377 15.9553 24.3306 11.3839 28.2993 9.73654C30.2234 8.93743 32.3395 8.93743 34.2636 9.73654C36.1877 10.5312 37.6877 12.0312 38.4824 13.9553L45.6922 31.3392C47.3395 35.308 45.4467 39.8794 41.4779 41.5267C40.5047 41.9285 39.4958 42.1205 38.5047 42.1205V42.116ZM31.2859 10.924C30.5047 10.924 29.7279 11.0758 28.9824 11.3839C25.9243 12.6517 24.4645 16.174 25.7324 19.2365L32.9422 36.6205C34.2101 39.6785 37.7324 41.1383 40.7949 39.8705C43.8529 38.6026 45.3127 35.0803 44.0449 32.0178L36.8351 14.6339C36.219 13.1517 35.0672 11.9955 33.5806 11.3839C32.8395 11.0758 32.0627 10.924 31.2815 10.924H31.2859Z" fill="#3F5753"/>
<path d="M28.5182 29.165C28.1656 29.165 27.8352 28.9596 27.6923 28.6159C27.5048 28.1605 27.7191 27.6382 28.1745 27.4507L40.9245 22.165C41.3798 21.9775 41.9022 22.1918 42.0897 22.6471C42.2772 23.1025 42.0629 23.6248 41.6075 23.8123L28.8575 29.098C28.7459 29.1427 28.6298 29.165 28.5182 29.165Z" fill="#3F5753"/>
<path d="M41.536 36.4329C41.3887 36.4329 41.2369 36.3972 41.0985 36.3168C40.6699 36.0757 40.5137 35.5311 40.7592 35.1025C40.8932 34.8659 40.9824 34.5757 41.0271 34.2454C41.0985 33.6918 41.0003 33.0936 40.7503 32.5132L39.6074 29.8838C39.411 29.4329 39.6208 28.9061 40.0717 28.7097C40.5271 28.5132 41.0494 28.7186 41.2458 29.174L42.3887 31.8034C42.7682 32.6784 42.911 33.6025 42.7994 34.4775C42.728 35.0356 42.5673 35.54 42.3217 35.982C42.1566 36.2722 41.853 36.4373 41.5405 36.4373L41.536 36.4329Z" fill="white"/>
</g>
<defs>
<clipPath id="clip0_5735_34229">
<rect width="50" height="50" fill="white"/>
</clipPath>
</defs>
</svg>
