<svg width="50" height="50" viewBox="0 0 50 50" fill="none" xmlns="http://www.w3.org/2000/svg">
<g opacity="0.6" clip-path="url(#clip0_5735_33307)">
<path d="M22.3842 43.4999H5.73242L12.3172 24.0356H28.9646L22.3842 43.4999Z" fill="#B5DCE5"/>
<path d="M22.384 44.3928H5.73225C5.44653 44.3928 5.17421 44.2544 5.00903 44.0223C4.83939 43.7901 4.79475 43.4866 4.8885 43.2143L11.4733 23.75C11.5939 23.3884 11.9376 23.1428 12.3171 23.1428H28.9644C29.2501 23.1428 29.5224 23.2812 29.6876 23.5134C29.8572 23.7455 29.9019 24.0491 29.8081 24.3214L23.2233 43.7857C23.1028 44.1473 22.759 44.3928 22.3796 44.3928H22.384ZM6.97778 42.6071H21.7412L27.7189 24.9285H12.9555L6.97778 42.6071Z" fill="#37635F"/>
<path d="M14.058 44.3927C13.9642 44.3927 13.866 44.3794 13.7723 44.3436C13.3035 44.1874 13.0535 43.6785 13.2142 43.2097L19.7991 23.7454C19.9553 23.2767 20.4642 23.0267 20.933 23.1874C21.4017 23.3436 21.6517 23.8526 21.491 24.3213L14.9062 43.7856C14.7812 44.1561 14.433 44.3927 14.0625 44.3927H14.058Z" fill="#37635F"/>
<path d="M25.6784 34.6429H9.03104C8.53997 34.6429 8.13818 34.2411 8.13818 33.75C8.13818 33.259 8.53997 32.8572 9.03104 32.8572H25.6784C26.1694 32.8572 26.5712 33.259 26.5712 33.75C26.5712 34.2411 26.1694 34.6429 25.6784 34.6429Z" fill="#37635F"/>
<path d="M22.384 44.3929H5.73221C5.24114 44.3929 4.83936 43.9911 4.83936 43.5C4.83936 43.009 5.24114 42.6072 5.73221 42.6072H22.3795C22.8706 42.6072 23.2724 43.009 23.2724 43.5C23.2724 43.9911 22.8706 44.3929 22.3795 44.3929H22.384Z" fill="#37635F"/>
<path d="M13.5359 26.7724L12.1966 30.7366C12.0225 31.2545 12.4734 31.5849 13.0359 31.3616C14.2546 30.8795 16.1698 29.692 17.4778 26.817C17.6653 26.4063 17.4466 26.0447 17.0136 26.0447H14.5448C14.1252 26.0447 13.6743 26.3706 13.5403 26.7724H13.5359Z" fill="#EEEEEE"/>
<path d="M21.9065 26.7724L20.5672 30.7366C20.3931 31.2545 20.844 31.5849 21.4065 31.3616C22.6252 30.8795 24.5404 29.692 25.8484 26.817C26.0359 26.4063 25.8172 26.0447 25.3842 26.0447H22.9154C22.4958 26.0447 22.0449 26.3706 21.9109 26.7724H21.9065Z" fill="#EEEEEE"/>
<path d="M10.2634 36.4821L8.92413 40.4464C8.75002 40.9642 9.20091 41.2946 9.76341 41.0714C10.9822 40.5892 12.8973 39.4017 14.2054 36.5267C14.3929 36.116 14.1741 35.7544 13.7411 35.7544H11.2723C10.8527 35.7544 10.4018 36.0803 10.2679 36.4821H10.2634Z" fill="#EEEEEE"/>
<path d="M18.6384 36.4821L17.2991 40.4464C17.125 40.9642 17.5759 41.2946 18.1384 41.0714C19.3572 40.5892 21.2723 39.4017 22.5804 36.5267C22.7679 36.116 22.5491 35.7544 22.1161 35.7544H19.6473C19.2277 35.7544 18.7768 36.0803 18.6429 36.4821H18.6384Z" fill="#EEEEEE"/>
<path d="M39.0316 43.4999H22.3843L28.9646 24.0356H45.612L39.0316 43.4999Z" fill="#B5DCE5"/>
<path d="M39.0314 44.3928H22.3841C22.0984 44.3928 21.8261 44.2544 21.6609 44.0223C21.4912 43.7901 21.4466 43.4866 21.5404 43.2143L28.1252 23.75C28.2457 23.3884 28.5895 23.1428 28.9689 23.1428H45.6162C45.902 23.1428 46.1743 23.2812 46.3395 23.5134C46.5091 23.7455 46.5537 24.0491 46.46 24.3214L39.8752 43.7857C39.7546 44.1473 39.4109 44.3928 39.0314 44.3928ZM23.6252 42.6071H38.3886L44.3662 24.9285H29.6029L23.6252 42.6071Z" fill="#37635F"/>
<path d="M40.1518 47.0758H8.64286C8.15179 47.0758 7.75 46.674 7.75 46.1829C7.75 45.6918 8.15179 45.2901 8.64286 45.2901H40.1473C40.4062 45.2901 40.6384 45.1249 40.7188 44.8793L46.9598 26.4329C47.1161 25.9642 47.625 25.7142 48.0938 25.8749C48.5625 26.0311 48.8125 26.5401 48.6518 27.0088L42.4107 45.4552C42.0804 46.4285 41.1741 47.0802 40.1473 47.0802L40.1518 47.0758Z" fill="#37635F"/>
<path d="M30.7055 44.3927C30.6117 44.3927 30.5135 44.3794 30.4197 44.3436C29.951 44.1874 29.701 43.6785 29.8617 43.2097L36.4465 23.7454C36.6028 23.2767 37.1117 23.0267 37.5805 23.1874C38.0492 23.3436 38.2992 23.8526 38.1385 24.3213L31.5537 43.7856C31.4287 44.1561 31.0805 44.3927 30.7099 44.3927H30.7055Z" fill="#37635F"/>
<path d="M42.3258 34.6429H25.6785C25.1874 34.6429 24.7856 34.2411 24.7856 33.75C24.7856 33.259 25.1874 32.8572 25.6785 32.8572H42.3258C42.8169 32.8572 43.2187 33.259 43.2187 33.75C43.2187 34.2411 42.8169 34.6429 42.3258 34.6429Z" fill="#37635F"/>
<path d="M39.0314 44.3929H22.3841C21.893 44.3929 21.4912 43.9911 21.4912 43.5C21.4912 43.009 21.893 42.6072 22.3841 42.6072H39.0314C39.5225 42.6072 39.9242 43.009 39.9242 43.5C39.9242 43.9911 39.5225 44.3929 39.0314 44.3929Z" fill="#37635F"/>
<path d="M30.1828 26.7724L28.8436 30.7366C28.6695 31.2545 29.1203 31.5849 29.6828 31.3616C30.9016 30.8795 32.8168 29.692 34.1248 26.817C34.3123 26.4063 34.0936 26.0447 33.6605 26.0447H31.1918C30.7721 26.0447 30.3212 26.3706 30.1873 26.7724H30.1828Z" fill="#EEEEEE"/>
<path d="M38.5578 26.7724L37.2186 30.7366C37.0445 31.2545 37.4953 31.5849 38.0578 31.3616C39.2766 30.8795 41.1918 29.692 42.4998 26.817C42.6873 26.4063 42.4686 26.0447 42.0355 26.0447H39.5668C39.1471 26.0447 38.6962 26.3706 38.5623 26.7724H38.5578Z" fill="#EEEEEE"/>
<path d="M26.9109 36.4821L25.5716 40.4464C25.3975 40.9642 25.8484 41.2946 26.4109 41.0714C27.6296 40.5892 29.5448 39.4017 30.8528 36.5267C31.0403 36.116 30.8216 35.7544 30.3886 35.7544H27.9198C27.5002 35.7544 27.0493 36.0803 26.9153 36.4821H26.9109Z" fill="#EEEEEE"/>
<path d="M35.2859 36.4821L33.9466 40.4464C33.7725 40.9642 34.2234 41.2946 34.7859 41.0714C36.0046 40.5892 37.9198 39.4017 39.2278 36.5267C39.4153 36.116 39.1966 35.7544 38.7636 35.7544H36.2948C35.8752 35.7544 35.4243 36.0803 35.2903 36.4821H35.2859Z" fill="#EEEEEE"/>
<path d="M12.1342 15.9508C14.8241 15.9508 17.0047 13.7702 17.0047 11.0803C17.0047 8.39033 14.8241 6.20972 12.1342 6.20972C9.44428 6.20972 7.26367 8.39033 7.26367 11.0803C7.26367 13.7702 9.44428 15.9508 12.1342 15.9508Z" fill="#73E0CF"/>
<path d="M12.134 16.8437C8.95543 16.8437 6.37061 14.2589 6.37061 11.0803C6.37061 7.90172 8.95543 5.31689 12.134 5.31689C15.3126 5.31689 17.8974 7.90172 17.8974 11.0803C17.8974 14.2589 15.3126 16.8437 12.134 16.8437ZM12.134 7.10261C9.94203 7.10261 8.15632 8.88832 8.15632 11.0803C8.15632 13.2723 9.94203 15.058 12.134 15.058C14.326 15.058 16.1117 13.2723 16.1117 11.0803C16.1117 8.88832 14.326 7.10261 12.134 7.10261Z" fill="#37635F"/>
<path d="M12.1341 20.817C11.643 20.817 11.2412 20.4152 11.2412 19.9241V18.5625C11.2412 18.0715 11.643 17.6697 12.1341 17.6697C12.6251 17.6697 13.0269 18.0715 13.0269 18.5625V19.9241C13.0269 20.4152 12.6251 20.817 12.1341 20.817Z" fill="#37635F"/>
<path d="M12.1341 4.49107C11.643 4.49107 11.2412 4.08929 11.2412 3.59821V2.23661C11.2412 1.74554 11.643 1.34375 12.1341 1.34375C12.6251 1.34375 13.0269 1.74554 13.0269 2.23661V3.59821C13.0269 4.08929 12.6251 4.49107 12.1341 4.49107Z" fill="#37635F"/>
<path d="M20.9776 11.9732H19.616C19.1249 11.9732 18.7231 11.5714 18.7231 11.0804C18.7231 10.5893 19.1249 10.1875 19.616 10.1875H20.9776C21.4687 10.1875 21.8705 10.5893 21.8705 11.0804C21.8705 11.5714 21.4687 11.9732 20.9776 11.9732Z" fill="#37635F"/>
<path d="M4.65193 11.9732H3.29032C2.79925 11.9732 2.39746 11.5714 2.39746 11.0804C2.39746 10.5893 2.79925 10.1875 3.29032 10.1875H4.65193C5.143 10.1875 5.54478 10.5893 5.54478 11.0804C5.54478 11.5714 5.143 11.9732 4.65193 11.9732Z" fill="#37635F"/>
<path d="M17.4243 6.68314C17.1966 6.68314 16.969 6.59385 16.7949 6.41975C16.4466 6.07153 16.4466 5.50457 16.7949 5.15635L17.7591 4.19207C18.1074 3.84385 18.6743 3.84385 19.0225 4.19207C19.3707 4.54028 19.3707 5.10725 19.0225 5.45546L18.0582 6.41975C17.8841 6.59385 17.6565 6.68314 17.4288 6.68314H17.4243Z" fill="#37635F"/>
<path d="M5.87939 18.2276C5.65172 18.2276 5.42404 18.1383 5.24993 17.9642C4.90172 17.616 4.90172 17.049 5.24993 16.7008L6.21422 15.7365C6.56243 15.3883 7.12939 15.3883 7.47761 15.7365C7.82582 16.0847 7.82582 16.6517 7.47761 16.9999L6.51332 17.9642C6.33922 18.1383 6.11154 18.2276 5.88386 18.2276H5.87939Z" fill="#37635F"/>
<path d="M6.84368 6.68314C6.616 6.68314 6.38832 6.59385 6.21422 6.41975L5.24993 5.45546C4.90172 5.10725 4.90172 4.54028 5.24993 4.19207C5.59814 3.84385 6.16511 3.84385 6.51332 4.19207L7.47761 5.15635C7.82582 5.50457 7.82582 6.07153 7.47761 6.41975C7.3035 6.59385 7.07582 6.68314 6.84814 6.68314H6.84368Z" fill="#37635F"/>
<path d="M18.3886 18.2276C18.1609 18.2276 17.9332 18.1383 17.7591 17.9642L16.7949 16.9999C16.4466 16.6517 16.4466 16.0847 16.7949 15.7365C17.1431 15.3883 17.71 15.3883 18.0582 15.7365L19.0225 16.7008C19.3707 17.049 19.3707 17.616 19.0225 17.9642C18.8484 18.1383 18.6207 18.2276 18.3931 18.2276H18.3886Z" fill="#37635F"/>
</g>
<defs>
<clipPath id="clip0_5735_33307">
<rect width="50" height="50" fill="white"/>
</clipPath>
</defs>
</svg>
