<svg width="50" height="50" viewBox="0 0 50 50" fill="none" xmlns="http://www.w3.org/2000/svg">
<g opacity="0.6" clip-path="url(#clip0_5735_34138)">
<path d="M27.0715 17.0268V16.7768C27.0715 15.3393 25.9063 14.1741 24.4688 14.1741H23.4777C22.0402 14.1741 20.8751 15.3393 20.8751 16.7768V17.0268C18.5938 17.4776 16.8706 19.491 16.8706 21.9062V40.433C16.8706 42.9151 18.884 44.9241 21.3617 44.9241H26.5715C29.0536 44.9241 31.0626 42.9107 31.0626 40.433V21.9062C31.0626 19.491 29.3438 17.4821 27.0581 17.0268H27.0715Z" fill="#5BB5A7"/>
<path d="M22.6876 15.0358V14.7858C22.6876 14.6786 22.6966 14.5715 22.71 14.4644C22.3171 14.6652 21.9823 14.9644 21.7412 15.326C22.0448 15.201 22.3617 15.0983 22.6876 15.0313V15.0358Z" fill="#009081"/>
<path d="M28.3886 42.9331H23.1788C20.6966 42.9331 18.6877 40.9197 18.6877 38.442V19.9152C18.6877 19.2947 18.8038 18.701 19.0091 18.1519C17.96 19.0626 17.2993 20.4063 17.2993 21.9019V40.4286C17.2993 42.9108 19.3127 44.9197 21.7904 44.9197H27.0002C28.96 44.9197 30.6252 43.6608 31.2368 41.9108C30.46 42.5492 29.469 42.9286 28.3886 42.9286V42.9331Z" fill="#009081"/>
<path d="M26.5806 45.8171H21.3707C18.402 45.8171 15.9868 43.4019 15.9868 40.4331V21.9064C15.9868 19.3662 17.6297 17.134 19.9868 16.3439V14.5001C19.9868 13.0894 21.1341 11.9465 22.5404 11.9465H25.4065C26.8172 11.9465 27.96 13.0939 27.96 14.5001V16.3439C30.3172 17.134 31.96 19.3662 31.96 21.9064V40.4331C31.96 43.4019 29.5449 45.8171 26.5761 45.8171H26.5806ZM22.5449 13.7322C22.1207 13.7322 21.777 14.076 21.777 14.5001V17.0269C21.777 17.451 21.4779 17.8215 21.0582 17.9019C19.1565 18.2769 17.777 19.9599 17.777 21.9019V40.4287C17.777 42.4153 19.3931 44.0269 21.3752 44.0269H26.585C28.5716 44.0269 30.1832 42.4108 30.1832 40.4287V21.9019C30.1832 19.9599 28.8038 18.2769 26.902 17.9019C26.4824 17.8171 26.1832 17.451 26.1832 17.0269V14.5001C26.1832 14.076 25.8395 13.7322 25.4154 13.7322H22.5493H22.5449Z" fill="#37635F"/>
<path d="M20.9424 9.85254H24.496C25.8754 9.85254 26.996 10.9731 26.996 12.3525V14.107C26.996 14.7052 26.5093 15.1918 25.9111 15.1918H22.0272C21.429 15.1918 20.9424 14.7052 20.9424 14.107V9.85254Z" fill="#C6D1DB"/>
<path d="M25.9109 16.0847H22.027C20.9332 16.0847 20.0493 15.1963 20.0493 14.107V9.85257C20.0493 9.3615 20.4511 8.95972 20.9422 8.95972H24.4957C26.3663 8.95972 27.8886 10.482 27.8886 12.3526V14.107C27.8886 15.1963 27.0002 16.0847 25.9109 16.0847ZM21.835 10.7454V14.107C21.835 14.2142 21.9243 14.299 22.027 14.299H25.9109C26.0181 14.299 26.1029 14.2142 26.1029 14.107V12.3526C26.1029 11.4642 25.3797 10.7454 24.4957 10.7454H21.835Z" fill="#37635F"/>
<path d="M33.3127 8.88843H30.4868L32.4868 6.88843C33.1073 6.26789 33.1073 5.26343 32.4868 4.64289C31.8663 4.02236 30.8618 4.02236 30.2413 4.64289L25.5359 9.34825C25.46 9.42414 25.3975 9.5045 25.3395 9.58932C25.3127 9.6295 25.2949 9.66968 25.2725 9.71432C25.2457 9.76343 25.2145 9.81254 25.1922 9.86611C25.1699 9.91968 25.1565 9.97325 25.1431 10.0268C25.1297 10.0715 25.1118 10.1161 25.1029 10.1607C25.0627 10.3661 25.0627 10.5759 25.1029 10.7813C25.1118 10.8259 25.1297 10.8706 25.1431 10.9152C25.1609 10.9688 25.1699 11.0224 25.1922 11.0759C25.2145 11.1295 25.2457 11.1741 25.2725 11.2232C25.2949 11.2634 25.3127 11.3081 25.3395 11.3482C25.4556 11.5224 25.6029 11.6697 25.777 11.7857C25.8172 11.8125 25.8618 11.8304 25.902 11.8527C25.9511 11.8795 26.0002 11.9107 26.0493 11.9331C26.1029 11.9554 26.1565 11.9688 26.21 11.9822C26.2547 11.9956 26.2993 12.0134 26.344 12.0224C26.4466 12.0447 26.5493 12.0536 26.6565 12.0536H33.3127C34.1877 12.0536 34.8975 11.3438 34.8975 10.4688C34.8975 9.59379 34.1877 8.88396 33.3127 8.88396V8.88843Z" fill="#6C7A8C"/>
<path d="M33.3126 12.9553H26.6563C26.4956 12.9553 26.3349 12.9374 26.1697 12.9062C26.1027 12.8928 26.0402 12.8749 25.9733 12.8526C25.8572 12.8214 25.7813 12.7946 25.7054 12.7678C25.634 12.7365 25.5626 12.7008 25.4956 12.6606L25.8885 11.8571L25.451 12.6383C25.3885 12.6071 25.3304 12.5758 25.2724 12.5356C25.0001 12.3526 24.7679 12.1249 24.5849 11.8481C24.5492 11.7946 24.5135 11.7321 24.4867 11.674L25.2635 11.2276L24.4644 11.6294C24.4242 11.558 24.3885 11.491 24.3572 11.4151C24.3304 11.3481 24.3081 11.2767 24.2858 11.2008L24.2679 11.1473C24.2456 11.0848 24.2277 11.0178 24.2144 10.9508C24.1519 10.6294 24.1519 10.3035 24.2144 9.98207C24.2277 9.91511 24.2456 9.84814 24.2679 9.78118C24.2992 9.66511 24.3215 9.58922 24.3527 9.51779C24.384 9.44636 24.4197 9.37493 24.4599 9.30797L25.2635 9.69636L24.4822 9.26332C24.5135 9.20082 24.5447 9.14279 24.5849 9.08475C24.6742 8.95082 24.7769 8.82582 24.8929 8.70975L29.5983 4.00439C30.5626 3.03564 32.1385 3.03564 33.1027 4.00439C34.0715 4.97314 34.0715 6.54457 33.1027 7.50886L32.6295 7.98207H33.2992C34.6652 7.98207 35.7769 9.09368 35.7769 10.4598C35.7769 11.8258 34.6652 12.9374 33.2992 12.9374L33.3126 12.9553ZM31.3617 5.07582C31.1742 5.07582 31.0045 5.14725 30.8706 5.27672L26.1652 9.98207C26.134 10.0133 26.1072 10.049 26.0804 10.0892L26.0536 10.1473C26.0536 10.1473 26.0313 10.1919 26.0269 10.1919C26.0269 10.1919 26.0001 10.2723 26.0001 10.2767L25.9733 10.3526C25.9599 10.424 25.9599 10.5178 25.9733 10.6115L26.009 10.7231C26.009 10.7231 26.0447 10.7946 26.0492 10.799L26.0849 10.8705C26.1251 10.933 26.192 10.9999 26.2679 11.049L26.326 11.0758C26.326 11.0758 26.3706 11.1026 26.3751 11.1026C26.3751 11.1026 26.451 11.1249 26.451 11.1294L26.5313 11.1562C26.5626 11.1651 26.6072 11.1696 26.6519 11.1696H33.3081C33.692 11.1696 34.0001 10.8571 34.0001 10.4776C34.0001 10.0981 33.6876 9.78564 33.3081 9.78564H30.4822C30.1206 9.78564 29.7947 9.56689 29.6563 9.23654C29.5179 8.90172 29.5938 8.51779 29.8483 8.26332L31.8483 6.26332C32.1206 5.991 32.1206 5.5535 31.8483 5.28118C31.7188 5.15172 31.5447 5.08029 31.3572 5.08029L31.3617 5.07582Z" fill="#37635F"/>
<path d="M20.9421 9.85254H16.46V12.9329H20.9421V9.85254Z" fill="#6C7A8C"/>
<path d="M20.9419 13.8214H16.4598C15.9687 13.8214 15.5669 13.4196 15.5669 12.9285V9.84818C15.5669 9.35711 15.9687 8.95532 16.4598 8.95532H20.9419C21.433 8.95532 21.8348 9.35711 21.8348 9.84818V12.9285C21.8348 13.4196 21.433 13.8214 20.9419 13.8214ZM17.3526 12.0357H20.049V10.741H17.3526V12.0357Z" fill="#37635F"/>
<path d="M26.7231 38.2454H21.8079C21.3168 38.2454 20.915 37.8436 20.915 37.3526C20.915 36.8615 21.3168 36.4597 21.8079 36.4597H26.7231C27.2141 36.4597 27.6159 36.8615 27.6159 37.3526C27.6159 37.8436 27.2141 38.2454 26.7231 38.2454Z" fill="white"/>
<path d="M26.7231 35.1741H21.8079C21.3168 35.1741 20.915 34.7724 20.915 34.2813C20.915 33.7902 21.3168 33.3884 21.8079 33.3884H26.7231C27.2141 33.3884 27.6159 33.7902 27.6159 34.2813C27.6159 34.7724 27.2141 35.1741 26.7231 35.1741Z" fill="white"/>
<path d="M26.7231 22.8526H21.8079C21.3168 22.8526 20.915 22.4508 20.915 21.9598C20.915 21.4687 21.3168 21.0669 21.8079 21.0669H26.7231C27.2141 21.0669 27.6159 21.4687 27.6159 21.9598C27.6159 22.4508 27.2141 22.8526 26.7231 22.8526Z" fill="white"/>
<path d="M23.9195 41.3214H21.8079C21.3168 41.3214 20.915 40.9196 20.915 40.4285C20.915 39.9374 21.3168 39.5356 21.8079 39.5356H23.9195C24.4106 39.5356 24.8124 39.9374 24.8124 40.4285C24.8124 40.9196 24.4106 41.3214 23.9195 41.3214Z" fill="white"/>
<path d="M26.4556 12.2769C27.2495 12.2769 27.8931 11.6333 27.8931 10.8394C27.8931 10.0454 27.2495 9.40186 26.4556 9.40186C25.6617 9.40186 25.0181 10.0454 25.0181 10.8394C25.0181 11.6333 25.6617 12.2769 26.4556 12.2769Z" fill="#5BB5A7"/>
<path d="M26.4554 13.1741C25.1696 13.1741 24.125 12.1295 24.125 10.8438C24.125 9.55807 25.1696 8.51343 26.4554 8.51343C27.7411 8.51343 28.7857 9.55807 28.7857 10.8438C28.7857 12.1295 27.7411 13.1741 26.4554 13.1741ZM26.4554 10.2947C26.1562 10.2947 25.9107 10.5402 25.9107 10.8393C25.9107 11.1384 26.1562 11.384 26.4554 11.384C26.7545 11.384 27 11.1384 27 10.8393C27 10.5402 26.7545 10.2947 26.4554 10.2947Z" fill="#37635F"/>
<path d="M25.0937 31.7142C25.0937 31.7142 25.0625 31.7142 25.0491 31.7142L23.3571 31.683C22.6473 31.6696 22.0178 31.3571 21.625 30.8303C21.5 30.6651 21.4017 30.4821 21.3348 30.2856C21.0669 29.5356 21.25 28.7231 21.8258 28.1026C21.8973 27.9464 21.9642 27.4821 21.9687 27.1071C21.9776 26.616 22.3616 26.2276 22.875 26.2276C23.366 26.2365 23.7633 26.6383 23.7544 27.1294C23.7455 27.7142 23.6562 28.7767 23.1428 29.308C22.9508 29.5044 22.9955 29.6294 23.0178 29.683C23.0267 29.7098 23.0401 29.7365 23.058 29.7589C23.116 29.8348 23.2455 29.8883 23.3928 29.8928L25.0848 29.924C25.2589 29.924 25.4151 29.8481 25.5089 29.7053C25.6919 29.4285 25.8125 29.1606 25.8437 28.9553C25.9151 28.5178 25.4598 27.8883 25.1875 27.6606C24.4866 27.0758 24.616 25.8839 24.7544 25.2231C24.8571 24.741 25.3258 24.433 25.8125 24.5312C26.2946 24.6339 26.6026 25.1071 26.5 25.5892C26.4419 25.8615 26.4196 26.2142 26.4419 26.3883C26.9866 26.8973 27.8035 28.0133 27.6071 29.241C27.5312 29.7008 27.3303 30.1874 27 30.683C26.5758 31.3258 25.8705 31.7053 25.0937 31.7053V31.7142Z" fill="white"/>
</g>
<defs>
<clipPath id="clip0_5735_34138">
<rect width="50" height="50" fill="white"/>
</clipPath>
</defs>
</svg>
