<svg width="50" height="50" viewBox="0 0 50 50" fill="none" xmlns="http://www.w3.org/2000/svg">
<g opacity="0.6">
<path d="M8.00446 11.29V40.982C8.00446 42.6159 11.0759 43.8927 14.8616 43.8927C18.6473 43.8927 21.7187 42.6159 21.7187 40.982V11.29H8H8.00446Z" fill="#5BB5A7"/>
<path d="M14.8616 44.7811C11.0089 44.7811 7.11157 43.4731 7.11157 40.9776V11.2901C7.11157 10.799 7.51336 10.3972 8.00443 10.3972H21.7232C22.2143 10.3972 22.616 10.799 22.616 11.2901V40.982C22.616 43.4776 18.7143 44.7856 14.866 44.7856L14.8616 44.7811ZM8.89729 12.1829V40.982C8.89729 41.7856 11.2768 42.9999 14.8616 42.9999C18.4464 42.9999 20.8259 41.7856 20.8259 40.982V12.1829H8.89282H8.89729Z" fill="#37635F"/>
<path d="M8.00446 12.5134V23.7768C8.00446 25.2322 11.0759 26.4107 14.8616 26.4107C18.6473 26.4107 21.7187 25.2322 21.7187 23.7768V12.5134H8H8.00446Z" fill="#00C7B3"/>
<path d="M14.8616 27.3036C11.0089 27.3036 7.11157 26.0938 7.11157 23.7769V12.5135C7.11157 12.0224 7.51336 11.6206 8.00443 11.6206H21.7232C22.2143 11.6206 22.616 12.0224 22.616 12.5135V23.7769C22.616 26.0938 18.7143 27.3036 14.866 27.3036H14.8616ZM8.89729 13.4063V23.7769C8.89729 24.2813 10.9866 25.5179 14.8616 25.5179C18.7366 25.5179 20.8259 24.2813 20.8259 23.7769V13.4063H8.89282H8.89729Z" fill="#37635F"/>
<path d="M18.0135 8.95089C18.0135 8.91518 18.0224 8.87946 18.0224 8.83928C18.0224 7.89286 16.6072 7.125 14.8572 7.125C13.1072 7.125 11.692 7.89286 11.692 8.83928C11.692 8.875 11.6965 8.91518 11.701 8.95089C9.50007 9.38839 7.99561 10.2723 7.99561 11.2902C7.99561 12.7455 11.067 13.9241 14.8527 13.9241C18.6385 13.9241 21.7099 12.7455 21.7099 11.2902C21.7099 10.2723 20.2054 9.39286 18.0045 8.95089H18.0135Z" fill="#AEC8CE"/>
<path d="M14.8616 14.8169C11.0089 14.8169 7.11157 13.6071 7.11157 11.2901C7.11157 9.91961 8.48657 8.81693 10.9151 8.21425C11.3303 7.04907 12.8884 6.23657 14.8616 6.23657C16.8348 6.23657 18.3928 7.05354 18.808 8.21425C21.2366 8.81693 22.6116 9.91961 22.6116 11.2901C22.6116 13.6071 18.7143 14.8169 14.8616 14.8169ZM14.8616 8.01782C13.3973 8.01782 12.5893 8.63389 12.5893 8.83925C12.6428 9.30354 12.3393 9.73657 11.8794 9.82586C9.76782 10.2455 8.89282 10.9866 8.89282 11.2901C8.89282 11.7946 10.9821 13.0312 14.8571 13.0312C18.7321 13.0312 20.8214 11.7946 20.8214 11.2901C20.8214 10.9866 19.9464 10.25 17.8348 9.82586C17.3794 9.73657 17.0669 9.308 17.1205 8.84372C17.1205 8.84372 17.1205 8.81247 17.1205 8.808C17.1205 8.63389 16.3169 8.01782 14.8482 8.01782H14.8616Z" fill="#37635F"/>
<path d="M16.5982 20.7945H13.1294C12.6384 20.7945 12.2366 20.3927 12.2366 19.9016C12.2366 19.4106 12.6384 19.0088 13.1294 19.0088H16.5982C17.0893 19.0088 17.491 19.4106 17.491 19.9016C17.491 20.3927 17.0893 20.7945 16.5982 20.7945Z" fill="#37635F"/>
<path d="M16.5982 38.3035H13.1294C12.6384 38.3035 12.2366 37.9018 12.2366 37.4107C12.2366 36.9196 12.6384 36.5178 13.1294 36.5178H16.5982C17.0893 36.5178 17.491 36.9196 17.491 37.4107C17.491 37.9018 17.0893 38.3035 16.5982 38.3035Z" fill="#37635F"/>
<path d="M14.8616 22.5313C14.3705 22.5313 13.9688 22.1295 13.9688 21.6385V18.1697C13.9688 17.6786 14.3705 17.2769 14.8616 17.2769C15.3527 17.2769 15.7545 17.6786 15.7545 18.1697V21.6385C15.7545 22.1295 15.3527 22.5313 14.8616 22.5313Z" fill="#37635F"/>
<path d="M28.9062 7.33032L25.9731 17.4821H32.3973L29.9642 28.4866L42.0803 13.9151H35.8705L37.991 7.33032H28.9062Z" fill="#00C7B3"/>
<path d="M29.9642 29.3795C29.8303 29.3795 29.6964 29.3482 29.5714 29.2902C29.2008 29.1071 29.0044 28.6964 29.0937 28.2946L31.2856 18.375H25.9731C25.6919 18.375 25.4285 18.2411 25.2589 18.0179C25.0892 17.7946 25.0356 17.5045 25.116 17.2321L28.049 7.08036C28.1606 6.69643 28.5089 6.4375 28.9062 6.4375H37.991C38.2767 6.4375 38.5446 6.57589 38.7142 6.80357C38.8839 7.03125 38.9285 7.33036 38.8437 7.60268L37.0981 13.0223H42.0803C42.4285 13.0223 42.741 13.2232 42.8883 13.5357C43.0356 13.8482 42.9865 14.2187 42.7678 14.4866L30.6562 29.058C30.4821 29.2679 30.2276 29.3795 29.9687 29.3795H29.9642ZM27.1606 16.5893H32.3973C32.6696 16.5893 32.924 16.7098 33.0937 16.9241C33.2633 17.1339 33.3258 17.4107 33.2678 17.6741L31.6294 25.0848L40.174 14.808H35.8705C35.5848 14.808 35.3169 14.6696 35.1473 14.442C34.9776 14.2143 34.933 13.9152 35.0178 13.6429L36.7633 8.22321H29.5758L27.1606 16.5893Z" fill="#37635F"/>
<path d="M42.0802 40.6472C42.0802 42.4374 38.8302 43.8927 34.8258 43.8927C30.8213 43.8927 27.5713 42.4418 27.5713 40.6472V36.9463H42.0802V40.6472Z" fill="#53918C"/>
<path d="M34.8258 44.7812C30.1829 44.7812 26.6785 43.0044 26.6785 40.6428V36.9419C26.6785 36.4509 27.0803 36.0491 27.5713 36.0491H42.0803C42.5713 36.0491 42.9731 36.4509 42.9731 36.9419V40.6428C42.9731 43 39.4686 44.7812 34.8258 44.7812ZM28.4642 37.8393V40.6473C28.4642 41.6071 30.9419 43 34.8258 43C38.7097 43 41.1874 41.6071 41.1874 40.6473V37.8393H28.4642Z" fill="#37635F"/>
<path d="M34.8258 40.1918C38.8323 40.1918 42.0802 38.7387 42.0802 36.9462C42.0802 35.1538 38.8323 33.7007 34.8258 33.7007C30.8192 33.7007 27.5713 35.1538 27.5713 36.9462C27.5713 38.7387 30.8192 40.1918 34.8258 40.1918Z" fill="#AEC8CE"/>
<path d="M34.8258 41.0802C30.1829 41.0802 26.6785 39.3035 26.6785 36.9419C26.6785 34.5803 30.1829 32.8035 34.8258 32.8035C39.4686 32.8035 42.9731 34.5803 42.9731 36.9419C42.9731 39.3035 39.4686 41.0802 34.8258 41.0802ZM34.8258 34.5936C30.9419 34.5936 28.4642 35.9865 28.4642 36.9463C28.4642 37.9061 30.9419 39.299 34.8258 39.299C38.7097 39.299 41.1874 37.9061 41.1874 36.9463C41.1874 35.9865 38.7097 34.5936 34.8258 34.5936Z" fill="#37635F"/>
<path d="M31.0803 37.2901C30.9017 37.2901 30.7276 37.2186 30.6026 37.0936C30.4821 36.9686 30.4106 36.799 30.4106 36.6204C30.4106 36.4419 30.4821 36.2722 30.6026 36.1472C30.8526 35.8972 31.3035 35.8972 31.5535 36.1472C31.6785 36.2722 31.7499 36.4463 31.7499 36.6204C31.7499 36.7945 31.6785 36.9686 31.5535 37.0936C31.4285 37.2186 31.2544 37.2901 31.0803 37.2901Z" fill="#CDE4E8"/>
<path d="M33.6831 36.6964C33.509 36.6964 33.3349 36.625 33.2099 36.5C33.0849 36.375 33.0134 36.2053 33.0134 36.0268C33.0134 35.8482 33.0849 35.6786 33.2099 35.5536C33.3661 35.3973 33.5938 35.3259 33.8125 35.3705C33.8572 35.3795 33.8974 35.3929 33.942 35.4107C33.9822 35.4241 34.0179 35.4464 34.0536 35.4687C34.0938 35.4955 34.125 35.5223 34.1563 35.5536C34.1875 35.5848 34.2143 35.6205 34.2411 35.6562C34.2634 35.692 34.2857 35.7321 34.3036 35.7723C34.317 35.8125 34.3304 35.8527 34.3393 35.8973C34.3482 35.9375 34.3527 35.9821 34.3527 36.0268C34.3527 36.2009 34.2813 36.375 34.1563 36.5C34.125 36.5312 34.0938 36.558 34.0536 36.5848C34.0179 36.6071 33.9822 36.6295 33.942 36.6429C33.8974 36.6607 33.8572 36.6741 33.8125 36.683C33.7724 36.692 33.7277 36.6964 33.6831 36.6964Z" fill="#CDE4E8"/>
<path d="M13.3213 10.9866C13.3213 10.9866 13.857 11.3526 14.9061 11.3526C15.9552 11.3526 16.5936 10.9866 16.5936 10.9866" fill="#AEC8CE"/>
<path d="M14.9107 12.2455C13.6518 12.2455 12.9509 11.8125 12.8214 11.7232C12.4152 11.4464 12.308 10.8884 12.5848 10.4821C12.8571 10.0804 13.4018 9.97322 13.808 10.2366C13.8437 10.2589 14.2098 10.4598 14.9062 10.4598C15.6696 10.4598 16.1473 10.2143 16.1518 10.2098C16.5803 9.96429 17.125 10.1161 17.3705 10.5402C17.616 10.9688 17.4643 11.5134 17.0402 11.7589C16.9553 11.808 16.1562 12.2411 14.9062 12.2411L14.9107 12.2455Z" fill="#37635F"/>
</g>
</svg>
