<svg width="50" height="50" viewBox="0 0 50 50" fill="none" xmlns="http://www.w3.org/2000/svg">
<g opacity="0.6" clip-path="url(#clip0_5735_34067)">
<path d="M24.2499 11.6206C15.7946 11.6206 8.94189 14.3974 8.94189 17.817V40.8126C8.94189 44.2367 15.7946 47.009 24.2499 47.009C32.7053 47.009 39.558 44.2322 39.558 40.8126V17.817C39.558 14.3929 32.7053 11.6206 24.2499 11.6206Z" fill="#A4B0BA"/>
<path d="M26.9955 42.6875C18.5401 42.6875 11.6874 39.9107 11.6874 36.4911V14.2812C9.95975 15.2857 8.94189 16.5045 8.94189 17.8214V40.817C8.94189 44.2411 15.7946 47.0134 24.2499 47.0134C32.7053 47.0134 39.558 44.2366 39.558 40.817V40.0357C36.7901 41.6429 32.1964 42.6964 26.991 42.6964L26.9955 42.6875Z" fill="#808F9B"/>
<path d="M39.5585 23.3125C39.4692 23.3125 39.3799 23.317 39.2906 23.3348L25.929 25.4687C24.9602 25.625 24.2549 26.375 24.2549 27.25V37.3214C24.2549 38.3214 25.1656 39.1339 26.2906 39.1339C27.4156 39.1339 28.3263 38.3214 28.3263 37.3214V32.7321C28.3263 31.7321 29.237 30.9196 30.362 30.9196H30.4245C31.5495 30.9196 32.4602 31.7321 32.4602 32.7321V33.7366C32.4602 34.7366 33.371 35.5491 34.496 35.5491H34.9424C36.0674 35.5491 36.9781 34.7366 36.9781 33.7366V30.375C36.9781 29.7188 37.3754 29.1161 38.0183 28.7946L39.554 28.0268V23.3125H39.5585Z" fill="#73E0CF"/>
<path d="M26.2904 40.0313C24.6743 40.0313 23.3618 38.8171 23.3618 37.326V27.2813C23.3618 25.9376 24.3841 24.8171 25.7904 24.5894L39.152 22.4554C39.2725 22.4376 39.3886 22.4287 39.5091 22.4242C39.7636 22.4153 39.9957 22.5046 40.1699 22.6742C40.344 22.8438 40.4511 23.076 40.4511 23.3171V28.0313C40.4511 28.3706 40.2591 28.6787 39.9556 28.8304L38.4199 29.5983C38.085 29.7679 37.8752 30.0671 37.8752 30.3796V33.7412C37.8752 35.2322 36.5627 36.4465 34.9466 36.4465H34.5002C32.8841 36.4465 31.5716 35.2322 31.5716 33.7412V32.7367C31.5716 32.2278 31.0582 31.817 30.4288 31.817H30.3663C29.7368 31.817 29.2234 32.2278 29.2234 32.7367V37.326C29.2234 38.8171 27.9109 40.0313 26.2949 40.0313H26.2904ZM38.6654 24.3394L26.0672 26.3528C25.5315 26.4376 25.1431 26.8171 25.1431 27.2546V37.326C25.1431 37.8349 25.6565 38.2456 26.2859 38.2456C26.9154 38.2456 27.4288 37.8349 27.4288 37.326V32.7367C27.4288 31.2456 28.7413 30.0313 30.3574 30.0313H30.4199C32.0359 30.0313 33.3484 31.2456 33.3484 32.7367V33.7412C33.3484 34.2501 33.8618 34.6608 34.4913 34.6608H34.9377C35.5672 34.6608 36.0806 34.2501 36.0806 33.7412V30.3796C36.0806 29.384 36.6699 28.4733 37.6163 28.0001L38.6609 27.4778V24.3394H38.6654Z" fill="#37635F"/>
<path d="M15.9334 23.5359L8.94678 19.3037V33.9332H11.2682C12.2727 33.9332 13.0896 33.21 13.0896 32.3126V30.3439C13.0896 29.451 13.9066 28.7234 14.9111 28.7234C15.9155 28.7234 16.7325 28.0001 16.7325 27.1028V24.8707C16.7325 24.335 16.4334 23.835 15.9378 23.5314L15.9334 23.5359Z" fill="#73E0CF"/>
<path d="M11.268 34.8215H8.94657C8.4555 34.8215 8.05371 34.4197 8.05371 33.9286V19.2992C8.05371 18.9777 8.22782 18.6786 8.50907 18.5224C8.79032 18.3661 9.13407 18.3706 9.41085 18.5358L16.3975 22.7679C17.1653 23.2322 17.6251 24.0179 17.6251 24.8706V27.1027C17.6251 28.4867 16.4064 29.6161 14.9109 29.6161C14.4064 29.6161 13.9823 29.951 13.9823 30.3438V32.3126C13.9823 33.6965 12.7635 34.826 11.268 34.826V34.8215ZM9.83496 33.0358H11.2635C11.768 33.0358 12.1921 32.701 12.1921 32.3081V30.3393C12.1921 28.9554 13.4109 27.826 14.9064 27.826C15.4109 27.826 15.835 27.4911 15.835 27.0983V24.8661C15.835 24.6429 15.6966 24.4286 15.4689 24.2902L9.83496 20.8795V33.0313V33.0358Z" fill="#37635F"/>
<path d="M13.5182 14.4286C10.6968 15.5536 8.94678 17.1161 8.94678 18.8438V22.9911C11.7816 25.2501 17.5718 26.7992 24.2548 26.7992C30.9378 26.7992 36.728 25.2501 39.5628 22.9911V18.8438C39.5628 17.1161 37.8128 15.5492 34.9914 14.4286C32.0495 13.4733 28.3218 12.9019 24.2548 12.9019C20.1878 12.9019 16.4602 13.4733 13.5182 14.4286Z" fill="#73E0CF"/>
<path d="M24.2502 27.692C17.5627 27.692 11.4824 26.1608 8.38414 23.692C8.16985 23.5224 8.04932 23.2634 8.04932 22.9956V18.8483C8.04932 16.7858 9.87074 14.9197 13.1832 13.6027C13.2011 13.5938 13.219 13.5893 13.2368 13.5849C16.402 12.5581 20.21 12.0134 24.2502 12.0134C28.2904 12.0134 32.094 12.5581 35.2636 13.5849C35.2815 13.5893 35.2993 13.5982 35.3172 13.6027C38.6297 14.9241 40.4511 16.7858 40.4511 18.8483V22.9956C40.4511 23.2679 40.3261 23.5268 40.1163 23.692C37.0181 26.1608 30.9377 27.692 24.2502 27.692ZM9.83503 22.5491C12.7056 24.5983 18.2859 25.9063 24.2502 25.9063C30.2145 25.9063 35.7949 24.5983 38.6654 22.5491V18.8438C38.6654 17.6027 37.1788 16.2679 34.6832 15.2679C31.7413 14.317 28.0359 13.7902 24.2502 13.7902C20.4645 13.7902 16.7591 14.3125 13.8172 15.2679C11.3216 16.2679 9.83503 17.6027 9.83503 18.8438V22.5491Z" fill="#37635F"/>
<path d="M39.5585 17.817C39.5585 21.2411 32.7058 24.0135 24.2504 24.0135C18.9647 24.0135 14.3085 22.9286 11.5585 21.2813C9.90667 20.2902 8.94238 19.0983 8.94238 17.817C8.94238 14.3929 15.7951 11.6206 24.2504 11.6206C32.7058 11.6206 39.5585 14.3974 39.5585 17.817Z" fill="#73E0CF"/>
<path d="M24.2502 24.9107C19.0047 24.9107 14.085 23.8438 11.0984 22.0536C8.58057 20.5447 8.04932 18.9197 8.04932 17.8215C8.04932 13.7813 15.0136 10.7322 24.2502 10.7322C33.4868 10.7322 40.4511 13.7813 40.4511 17.8215C40.4511 21.8616 33.4868 24.9107 24.2502 24.9107ZM24.2502 12.5134C15.7547 12.5134 9.83503 15.3081 9.83503 17.817C9.83503 18.7143 10.6074 19.6741 12.0136 20.5179C14.7368 22.1474 19.3082 23.125 24.2502 23.125C32.7457 23.125 38.6654 20.3304 38.6654 17.8215C38.6654 15.3125 32.7457 12.5179 24.2502 12.5179V12.5134Z" fill="#37635F"/>
<path d="M39.5582 18.7099C39.0672 18.7099 38.6654 18.3081 38.6654 17.817C38.6654 10.8795 32.1966 5.23664 24.2502 5.23664C16.3038 5.23664 9.83503 10.8795 9.83503 17.817C9.83503 18.3081 9.43324 18.7099 8.94217 18.7099C8.4511 18.7099 8.04932 18.3081 8.04932 17.817C8.04932 9.89736 15.3172 3.45093 24.2502 3.45093C33.1832 3.45093 40.4511 9.89289 40.4511 17.817C40.4511 18.3081 40.0493 18.7099 39.5582 18.7099Z" fill="#37635F"/>
<path d="M26.7771 3.15186H21.7771C20.9906 3.15186 20.353 3.78945 20.353 4.57596V4.93757C20.353 5.72408 20.9906 6.36168 21.7771 6.36168H26.7771C27.5636 6.36168 28.2012 5.72408 28.2012 4.93757V4.57596C28.2012 3.78945 27.5636 3.15186 26.7771 3.15186Z" fill="#8493A3"/>
<path d="M26.7769 7.2545H21.7769C20.5001 7.2545 19.46 6.21432 19.46 4.93754V4.58039C19.46 3.30361 20.5001 2.26343 21.7769 2.26343H26.7769C28.0537 2.26343 29.0939 3.30361 29.0939 4.58039V4.93754C29.0939 6.21432 28.0537 7.2545 26.7769 7.2545ZM21.7814 4.04914C21.4867 4.04914 21.2501 4.29021 21.2501 4.58039V4.93754C21.2501 5.23218 21.4912 5.46879 21.7814 5.46879H26.7814C27.076 5.46879 27.3126 5.22771 27.3126 4.93754V4.58039C27.3126 4.28575 27.0716 4.04914 26.7814 4.04914H21.7814Z" fill="#37635F"/>
<path d="M14.2055 17.9599C13.9465 17.9599 13.6876 17.8483 13.509 17.6295C13.201 17.2456 13.259 16.6831 13.643 16.3751C15.5313 14.8483 19.5938 13.9019 24.2501 13.9019C27.2278 13.9019 30.0492 14.2992 32.1876 15.0224C32.6563 15.1786 32.9063 15.6876 32.7501 16.1519C32.5938 16.6206 32.0849 16.8706 31.6206 16.7144C29.6563 16.0536 27.0403 15.6876 24.2501 15.6876C19.4733 15.6876 16.0447 16.7322 14.768 17.7635C14.6028 17.8974 14.4063 17.9599 14.2055 17.9599Z" fill="white"/>
<path d="M24.2502 47.9019C15.0136 47.9019 8.04932 44.8528 8.04932 40.8126V17.8171C8.04932 13.7769 15.0136 10.7278 24.2502 10.7278C33.4868 10.7278 40.4511 13.7769 40.4511 17.8171V40.8126C40.4511 44.8528 33.4868 47.9019 24.2502 47.9019ZM24.2502 12.5135C15.7547 12.5135 9.83503 15.3081 9.83503 17.8171V40.8126C9.83503 43.3215 15.7547 46.1162 24.2502 46.1162C32.7457 46.1162 38.6654 43.3215 38.6654 40.8126V17.8171C38.6654 15.3081 32.7457 12.5135 24.2502 12.5135Z" fill="#37635F"/>
<path d="M8.9419 19.7366H7.491C6.99993 19.7366 6.59814 19.3349 6.59814 18.8438C6.59814 18.3527 6.99993 17.9509 7.491 17.9509H8.9419C9.43297 17.9509 9.83475 18.3527 9.83475 18.8438C9.83475 19.3349 9.43297 19.7366 8.9419 19.7366Z" fill="#37635F"/>
<path d="M41.0088 19.7366H39.5579C39.0668 19.7366 38.665 19.3349 38.665 18.8438C38.665 18.3527 39.0668 17.9509 39.5579 17.9509H41.0088C41.4999 17.9509 41.9016 18.3527 41.9016 18.8438C41.9016 19.3349 41.4999 19.7366 41.0088 19.7366Z" fill="#37635F"/>
</g>
<defs>
<clipPath id="clip0_5735_34067">
<rect width="50" height="50" fill="white"/>
</clipPath>
</defs>
</svg>
