<svg width="50" height="50" viewBox="0 0 50 50" fill="none" xmlns="http://www.w3.org/2000/svg">
<g opacity="0.6">
<path d="M18.8523 34.7217L15.6545 31.5239L6.42427 40.7542L9.62204 43.952L18.8523 34.7217Z" fill="#BAFAEE"/>
<path d="M9.625 44.8436C9.39732 44.8436 9.16964 44.7544 8.99554 44.5803L5.79464 41.3838C5.625 41.2142 5.53125 40.991 5.53125 40.7544C5.53125 40.5178 5.625 40.2901 5.79464 40.1249L15.0268 30.8928C15.375 30.5445 15.942 30.5445 16.2902 30.8928L19.4911 34.0892C19.6607 34.2588 19.7545 34.482 19.7545 34.7186C19.7545 34.9553 19.6607 35.1829 19.4911 35.3481L10.2589 44.5803C10.0848 44.7544 9.85714 44.8436 9.62946 44.8436H9.625ZM7.6875 40.7544L9.625 42.6919L17.5938 34.7231L15.6563 32.7856L7.6875 40.7544Z" fill="#37635F"/>
<path d="M35.0479 15.1634L35.3509 15.4664C35.9697 16.0851 35.9697 17.089 35.3509 17.7077L20.8458 32.2129L18.3046 29.6717L32.8098 15.1665C33.4285 14.5478 34.4323 14.5478 35.0511 15.1665L35.0479 15.1634Z" fill="#BEC9D2"/>
<path d="M20.8483 33.1071C20.6117 33.1071 20.384 33.0134 20.2188 32.8437L17.6786 30.3036C17.3304 29.9554 17.3304 29.3884 17.6786 29.0402L32.1831 14.5357C32.6519 14.067 33.2724 13.8125 33.9331 13.8125C34.5938 13.8125 35.2188 14.0714 35.6831 14.5357L35.9867 14.8393C36.951 15.8036 36.951 17.375 35.9867 18.3393L21.4822 32.8437C21.3126 33.0134 21.0894 33.1071 20.8527 33.1071H20.8483ZM19.567 29.6696L20.8483 30.9509L34.7233 17.0759C34.9911 16.808 34.9911 16.3705 34.7233 16.0982L34.4197 15.7946C34.1608 15.5357 33.7054 15.5357 33.442 15.7946L19.567 29.6696Z" fill="#37635F"/>
<path d="M30.9527 16.4063L34.1094 19.563C34.7281 20.1817 34.7281 21.1856 34.1094 21.8043L19.6042 36.3094L14.2062 30.9114L28.7114 16.4063C29.3301 15.7876 30.334 15.7876 30.9527 16.4063Z" fill="#62BFB1"/>
<path d="M19.6027 37.2054C19.375 37.2054 19.1473 37.1161 18.9732 36.942L13.5759 31.5447C13.4063 31.3751 13.3125 31.1519 13.3125 30.9152C13.3125 30.6786 13.4063 30.451 13.5759 30.2858L28.0804 15.7813C28.5491 15.3126 29.1696 15.0581 29.8304 15.0581C30.4911 15.0581 31.1116 15.317 31.5804 15.7813L34.7366 18.9376C35.7009 19.9019 35.7009 21.4733 34.7366 22.4376L20.2321 36.942C20.058 37.1161 19.8304 37.2054 19.6027 37.2054ZM15.4688 30.9152L19.6027 35.0492L33.4777 21.1742C33.7455 20.9063 33.7455 20.4688 33.4777 20.1965L30.3214 17.0402C30.0625 16.7813 29.6071 16.7813 29.3438 17.0402L15.4688 30.9152Z" fill="#37635F"/>
<path d="M32.625 18.7857C32.3973 18.7857 32.1696 18.6964 31.9955 18.5223C31.6473 18.1741 31.6473 17.6071 31.9955 17.2589L44.1786 5.07586C44.5268 4.72764 45.0938 4.72764 45.442 5.07586C45.7902 5.42407 45.7902 5.99104 45.442 6.33925L33.2589 18.5223C33.0848 18.6964 32.8571 18.7857 32.6295 18.7857H32.625Z" fill="#37635F"/>
<path d="M22.7276 40.3258C22.4999 40.3258 22.2722 40.2365 22.0981 40.0624L10.7365 28.7008C10.3883 28.3526 10.3883 27.7856 10.7365 27.4374C11.0847 27.0892 11.6517 27.0892 11.9999 27.4374L23.3615 38.799C23.7097 39.1473 23.7097 39.7142 23.3615 40.0624C23.1874 40.2365 22.9597 40.3258 22.732 40.3258H22.7276Z" fill="#37635F"/>
<path d="M11.1116 46.3304C10.8839 46.3304 10.6563 46.2411 10.4821 46.067L4.58929 40.1786C4.24107 39.8304 4.24107 39.2634 4.58929 38.9152C4.9375 38.567 5.50446 38.567 5.85268 38.9152L11.7455 44.8036C12.0938 45.1518 12.0938 45.7188 11.7455 46.067C11.5714 46.2411 11.3438 46.3304 11.1161 46.3304H11.1116Z" fill="#37635F"/>
<path d="M30.7768 26.0266C30.5491 26.0266 30.3214 25.9374 30.1473 25.7633L27.5893 23.2052C27.2411 22.857 27.2411 22.29 27.5893 21.9418C27.9375 21.5936 28.5045 21.5936 28.8527 21.9418L31.4107 24.4999C31.7589 24.8481 31.7589 25.415 31.4107 25.7633C31.2366 25.9374 31.0089 26.0266 30.7812 26.0266H30.7768Z" fill="#37635F"/>
<path d="M27.4152 29.3928C27.1875 29.3928 26.9598 29.3035 26.7857 29.1294L24.5893 26.933C24.2411 26.5848 24.2411 26.0178 24.5893 25.6696C24.9375 25.3214 25.5045 25.3214 25.8527 25.6696L28.0491 27.866C28.3973 28.2142 28.3973 28.7812 28.0491 29.1294C27.875 29.3035 27.6473 29.3928 27.4196 29.3928H27.4152Z" fill="#37635F"/>
<path d="M24.2902 32.5179C24.0625 32.5179 23.8349 32.4286 23.6607 32.2545L21.1027 29.6964C20.7545 29.3482 20.7545 28.7812 21.1027 28.433C21.4509 28.0848 22.0179 28.0848 22.3661 28.433L24.9241 30.9911C25.2724 31.3393 25.2724 31.9062 24.9241 32.2545C24.75 32.4286 24.5224 32.5179 24.2947 32.5179H24.2902Z" fill="#37635F"/>
<path d="M30.3036 20.6116C30.076 20.6116 29.8483 20.5223 29.6742 20.3482L29.2724 19.9464C28.9242 19.5982 28.9242 19.0312 29.2724 18.683C29.6206 18.3348 30.1876 18.3348 30.5358 18.683L30.9376 19.0848C31.2858 19.433 31.2858 20 30.9376 20.3482C30.7635 20.5223 30.5358 20.6116 30.3081 20.6116H30.3036Z" fill="white"/>
<path d="M18.2366 9.22775H14.3169V5.30811H10.058V9.22775H6.14282V13.4867H10.058V17.4019H14.3169V13.4867H18.2366V9.22775Z" fill="#73E0CF"/>
<path d="M14.317 18.2947H10.058C9.56696 18.2947 9.16518 17.8929 9.16518 17.4018V14.3795H6.14286C5.65179 14.3795 5.25 13.9777 5.25 13.4866V9.22771C5.25 8.73664 5.65179 8.33486 6.14286 8.33486H9.16518V5.31253C9.16518 4.82146 9.56696 4.41968 10.058 4.41968H14.317C14.808 4.41968 15.2098 4.82146 15.2098 5.31253V8.33486H18.2321C18.7232 8.33486 19.125 8.73664 19.125 9.22771V13.4866C19.125 13.9777 18.7232 14.3795 18.2321 14.3795H15.2098V17.4018C15.2098 17.8929 14.808 18.2947 14.317 18.2947ZM10.9509 16.509H13.4241V13.4866C13.4241 12.9956 13.8259 12.5938 14.317 12.5938H17.3393V10.1206H14.317C13.8259 10.1206 13.4241 9.71879 13.4241 9.22771V6.20539H10.9509V9.22771C10.9509 9.71879 10.5491 10.1206 10.058 10.1206H7.03571V12.5938H10.058C10.5491 12.5938 10.9509 12.9956 10.9509 13.4866V16.509Z" fill="#37635F"/>
</g>
</svg>
