<svg width="50" height="50" viewBox="0 0 50 50" fill="none" xmlns="http://www.w3.org/2000/svg">
<g opacity="0.6" clip-path="url(#clip0_5735_33732)">
<path d="M48.0134 0.892822H1.98657C1.38251 0.892822 0.892822 1.38251 0.892822 1.98657V31.2321C0.892822 31.8362 1.38251 32.3259 1.98657 32.3259H48.0134C48.6174 32.3259 49.1071 31.8362 49.1071 31.2321V1.98657C49.1071 1.38251 48.6174 0.892822 48.0134 0.892822Z" fill="#4F9D91"/>
<path d="M48.0134 36.1428H1.98657C1.38251 36.1428 0.892822 36.6325 0.892822 37.2366V44.4732C0.892822 45.0772 1.38251 45.5669 1.98657 45.5669H48.0134C48.6174 45.5669 49.1071 45.0772 49.1071 44.4732V37.2366C49.1071 36.6325 48.6174 36.1428 48.0134 36.1428Z" fill="#BAFAEE"/>
<path d="M48.0134 46.4598H1.98661C0.888393 46.4598 0 45.5669 0 44.4731V37.241C0 36.1428 0.892857 35.2544 1.98661 35.2544H48.0089C49.1071 35.2544 49.9955 36.1473 49.9955 37.241V44.4731C49.9955 45.5714 49.1027 46.4598 48.0089 46.4598H48.0134ZM1.98661 37.0356C1.875 37.0356 1.78571 37.1249 1.78571 37.2365V44.4687C1.78571 44.5803 1.875 44.6696 1.98661 44.6696H48.0089C48.1205 44.6696 48.2098 44.5803 48.2098 44.4687V37.2365C48.2098 37.1249 48.1205 37.0356 48.0089 37.0356H1.98661Z" fill="#004241"/>
<path d="M3.57593 38.7901V43.9106L7.16968 42.808C7.85718 42.5981 8.09378 42.1339 7.70093 41.7678C7.29914 41.3928 7.55361 40.9196 8.26789 40.7142L10.4375 40.0937C10.7857 39.9955 11.1965 39.9731 11.5715 40.0401L14.1697 40.4955C14.5759 40.5669 15.0224 40.5356 15.384 40.4151L17.2902 39.7767C17.7099 39.6383 17.9643 39.3928 17.9643 39.1294V38.7856H3.57593V38.7901Z" fill="#5BB5A7"/>
<path d="M28.2231 38.7901V43.9106L31.8169 42.808C32.5044 42.5981 32.741 42.1339 32.3481 41.7678C31.9464 41.3928 32.2008 40.9196 32.9151 40.7142L35.0848 40.0937C35.433 39.9955 35.8437 39.9731 36.2187 40.0401L38.8169 40.4955C39.2231 40.5669 39.6696 40.5356 40.0312 40.4151L41.9374 39.7767C42.3571 39.6383 42.6115 39.3928 42.6115 39.1294V38.7856H28.2231V38.7901Z" fill="#5BB5A7"/>
<path d="M25.7276 46.4598C25.2365 46.4598 24.8347 46.058 24.8347 45.567V36.1429C24.8347 35.6518 25.2365 35.25 25.7276 35.25C26.2186 35.25 26.6204 35.6518 26.6204 36.1429V45.567C26.6204 46.058 26.2186 46.4598 25.7276 46.4598Z" fill="#004241"/>
<path d="M4.02222 27.674V4.85704C4.02222 4.3615 4.42847 3.95972 4.92847 3.95972H41.8437C42.7767 3.95972 43.3615 4.96418 42.8928 5.76775C35.5044 18.3883 22.5713 26.8436 7.95972 28.5981L6.1115 28.8213C5.04007 29.0311 4.02222 28.7454 4.02222 27.6785V27.674Z" fill="#73E0CF"/>
<path d="M2.78574 50.0001C2.71877 50.0001 2.65627 49.9912 2.58931 49.9778C2.10717 49.8706 1.80359 49.393 1.9152 48.9108L2.70984 45.3706C2.81699 44.8885 3.29467 44.5894 3.77681 44.6965C4.25895 44.8037 4.56252 45.2814 4.45092 45.7635L3.65627 49.3037C3.56252 49.7189 3.19645 50.0001 2.78574 50.0001Z" fill="#004241"/>
<path d="M47.2321 49.9999C46.8214 49.9999 46.4553 49.7186 46.3616 49.3035L45.5669 45.7633C45.4598 45.2811 45.7634 44.8035 46.241 44.6963C46.7232 44.5892 47.2009 44.8928 47.308 45.3704L48.1026 48.9106C48.2098 49.3928 47.9062 49.8704 47.4285 49.9776C47.3616 49.991 47.2991 49.9999 47.2321 49.9999Z" fill="#004241"/>
<path d="M48.5045 25.6205C48.2455 25.6205 47.9866 25.5313 47.7768 25.3482L21.058 2.25893C20.5938 1.85715 20.5402 1.15179 20.942 0.683042C21.3438 0.218756 22.0491 0.165184 22.5179 0.56697L49.2321 23.6563C49.6964 24.058 49.75 24.7634 49.3482 25.2321C49.1295 25.4866 48.817 25.6205 48.5045 25.6205Z" fill="white"/>
<path d="M48.0134 33.2188H1.98661C0.888393 33.2188 0 32.3259 0 31.2321V1.98661C0 0.892857 0.892857 0 1.98661 0H48.0089C49.1071 0 49.9955 0.892857 49.9955 1.98661V31.2321C49.9955 32.3304 49.1027 33.2188 48.0089 33.2188H48.0134ZM1.98661 1.78571C1.875 1.78571 1.78571 1.875 1.78571 1.98661V31.2321C1.78571 31.3438 1.875 31.433 1.98661 31.433H48.0089C48.1205 31.433 48.2098 31.3438 48.2098 31.2321V1.98661C48.2098 1.875 48.1205 1.78571 48.0089 1.78571H1.98661Z" fill="#004241"/>
<path d="M18.8705 28.2186C20.6457 28.2186 22.0848 26.7896 22.0848 25.0267C22.0848 23.2638 20.6457 21.8347 18.8705 21.8347C17.0953 21.8347 15.6562 23.2638 15.6562 25.0267C15.6562 26.7896 17.0953 28.2186 18.8705 28.2186Z" fill="#4F9D91"/>
<path d="M19.3215 26.5311C21.0967 26.5311 22.5357 25.1021 22.5357 23.3392C22.5357 21.5763 21.0967 20.1472 19.3215 20.1472C17.5463 20.1472 16.1072 21.5763 16.1072 23.3392C16.1072 25.1021 17.5463 26.5311 19.3215 26.5311Z" fill="white"/>
<path d="M21.384 20.8928L20.8126 21.0446C20.6876 21.0759 20.5894 21.1741 20.5581 21.2991L20.3215 22.1741C20.2903 22.2991 20.3215 22.4285 20.4153 22.5178L21.0581 23.1562C21.1474 23.2455 21.2814 23.2812 21.4064 23.25L22.2858 23.0178C22.3796 22.991 22.4465 22.9241 22.4956 22.8437C22.3706 22.0669 21.9644 21.3794 21.384 20.8973V20.8928Z" fill="#004241"/>
<path d="M20.3616 24.3036C20.2723 24.2143 20.1384 24.1786 20.0134 24.2098L19.0446 24.4688C18.9196 24.5 18.8214 24.5982 18.7902 24.7232L18.5312 25.6875C18.5 25.8125 18.5313 25.942 18.625 26.0313L19.1161 26.5179C19.1875 26.5179 19.2545 26.5268 19.3259 26.5268C19.9286 26.5268 20.4911 26.3616 20.9732 26.0759L21.1696 25.3527C21.2009 25.2277 21.1696 25.0982 21.0759 25.009L20.3661 24.3036H20.3616Z" fill="#004241"/>
<path d="M16.366 22.0892C16.3838 22.1249 16.4017 22.1561 16.4329 22.1829L17.0936 22.8392C17.1829 22.9285 17.3169 22.9642 17.4419 22.9329L18.3481 22.6919C18.4731 22.6606 18.5713 22.5624 18.6026 22.4374L18.8436 21.5401C18.8749 21.4151 18.8436 21.2856 18.7499 21.1963L18.0892 20.5401C18.049 20.4999 18.0044 20.4776 17.9553 20.4597C17.2454 20.7945 16.6785 21.3704 16.366 22.0892Z" fill="#004241"/>
</g>
<defs>
<clipPath id="clip0_5735_33732">
<rect width="50" height="50" fill="white"/>
</clipPath>
</defs>
</svg>
