<svg width="50" height="50" viewBox="0 0 50 50" fill="none" xmlns="http://www.w3.org/2000/svg">
<g opacity="0.6">
<path d="M12.4644 20.1472C12.4644 20.1472 10.5983 15.5892 4.38403 16.6963C4.38403 16.6963 5.826 21.7945 8.42421 21.3927" fill="#73E0CF"/>
<path d="M8.11616 22.3124C5.13402 22.3124 3.68313 17.5133 3.52241 16.9418C3.45545 16.7008 3.49116 16.4374 3.62509 16.2231C3.75902 16.0088 3.97777 15.8615 4.22331 15.8168C11.0671 14.5981 13.2635 19.7588 13.2858 19.8124C13.4733 20.2677 13.2546 20.79 12.7992 20.9775C12.3438 21.165 11.826 20.9463 11.6385 20.4954C11.5715 20.3391 10.1385 17.1115 5.58491 17.4463C6.16081 18.8927 7.19206 20.6874 8.28581 20.5177C8.77241 20.4418 9.22777 20.7766 9.30366 21.2633C9.37956 21.7499 9.04473 22.2052 8.55813 22.2811C8.40634 22.3034 8.25902 22.3168 8.11616 22.3168V22.3124Z" fill="#37635F"/>
<path d="M11.0179 20.9954C11.0179 20.9954 10.2768 15.6605 9 14.0266L11.0179 20.9954Z" fill="#73E0CF"/>
<path d="M11.0179 21.8883C10.5804 21.8883 10.1965 21.5669 10.134 21.1204C9.85723 19.1472 9.11616 15.6294 8.29919 14.5803C7.99562 14.1919 8.06705 13.6294 8.45544 13.3258C8.84384 13.0222 9.40634 13.0937 9.70991 13.4821C11.0894 15.2544 11.826 20.3035 11.9063 20.8749C11.9733 21.3615 11.634 21.8124 11.1429 21.8838C11.1028 21.8883 11.0581 21.8928 11.0179 21.8928V21.8883Z" fill="#37635F"/>
<path d="M11.4819 18.1203C11.4819 18.1203 12.4641 9.37922 11.7676 6.31226L11.4819 18.1203Z" fill="#73E0CF"/>
<path d="M11.482 19.0132C11.4508 19.0132 11.4151 19.0132 11.3794 19.0088C10.8883 18.9552 10.5356 18.5132 10.5937 18.0222C10.6026 17.9373 11.5535 9.39717 10.8972 6.50878C10.7856 6.02663 11.0892 5.54896 11.5713 5.44181C12.049 5.33021 12.5312 5.63378 12.6383 6.11592C13.3615 9.29449 12.4106 17.8615 12.3704 18.2231C12.3213 18.6784 11.9329 19.0177 11.4865 19.0177L11.482 19.0132Z" fill="#37635F"/>
<path d="M11.9508 21.3926C11.9508 21.3926 10.616 17.473 12.8392 15.5578C15.0669 13.6426 17.5133 12.8435 17.5133 12.8435C17.5133 12.8435 18.9598 19.9015 14.9419 21.2899" fill="#73E0CF"/>
<path d="M11.9508 22.2856C11.5803 22.2856 11.232 22.0534 11.107 21.6829C11.0445 21.4999 9.60704 17.165 12.2588 14.8838C14.5937 12.8749 17.1294 12.0311 17.2365 11.9954C17.4776 11.915 17.741 11.9418 17.9642 12.0713C18.1829 12.2007 18.3392 12.415 18.3928 12.665C18.4597 12.9865 19.9419 20.5088 15.2365 22.1338C14.7722 22.2945 14.2633 22.049 14.1026 21.5847C13.9419 21.1204 14.1874 20.6115 14.6517 20.4507C17.0535 19.6204 16.991 15.9552 16.7945 14.1025C15.9329 14.4999 14.6338 15.1963 13.424 16.2365C11.7053 17.7141 12.7856 21.0713 12.7945 21.1025C12.9553 21.5713 12.7053 22.0757 12.2365 22.2365C12.1428 22.2677 12.0445 22.2856 11.9463 22.2856H11.9508Z" fill="#37635F"/>
<path d="M15.6294 21.3926H7.47314L7.87939 28.2229C7.91957 28.9328 8.50886 29.4908 9.22314 29.4908H13.8839C14.5981 29.4908 15.183 28.9372 15.2276 28.2229L15.6339 21.3926H15.6294Z" fill="#6ED5C5"/>
<path d="M13.8838 30.3837H9.22309C8.04005 30.3837 7.05791 29.4596 6.98648 28.2765L6.58023 21.4462C6.56684 21.2006 6.65166 20.9596 6.8213 20.781C6.99095 20.6024 7.22309 20.4998 7.47309 20.4998H15.6293C15.8749 20.4998 16.1115 20.6024 16.2811 20.781C16.4508 20.9596 16.5356 21.2006 16.5222 21.4462L16.1159 28.2765C16.0445 29.4596 15.0624 30.3837 13.8793 30.3837H13.8838ZM8.41952 22.2855L8.76773 28.1694C8.78112 28.4105 8.98202 28.5935 9.21862 28.5935H13.8793C14.1204 28.5935 14.3168 28.406 14.3302 28.1694L14.6784 22.2855H8.41505H8.41952Z" fill="#37635F"/>
<path d="M8.9956 14.0264C8.9956 14.0264 4.78578 14.4148 4.29917 11.9327C3.81256 9.45051 9.2456 11.4282 8.9956 14.0264Z" fill="#73E0CF"/>
<path d="M8.29916 14.9506C6.41524 14.9506 3.86166 14.3569 3.42416 12.1024C3.27238 11.3211 3.50452 10.647 4.05809 10.2542C5.03577 9.55329 6.6072 10.0086 7.64738 10.6158C9.17416 11.4953 10.009 12.8033 9.88399 14.1158C9.84381 14.5444 9.50452 14.8792 9.07595 14.9194C8.83934 14.9417 8.57595 14.9551 8.29916 14.9551V14.9506ZM5.16523 11.6872C5.16523 11.6872 5.1697 11.7319 5.17416 11.7586C5.37506 12.7854 6.82149 13.0622 7.8572 13.1292C7.67416 12.8524 7.39291 12.5801 7.03131 12.3301C6.25006 11.7944 5.45988 11.6381 5.16523 11.6828V11.6872Z" fill="#37635F"/>
<path d="M12.1162 10.6472C12.1162 10.6472 16.1251 6.29006 17.2591 8.98202C18.1341 11.0624 12.8617 11.8972 12.1162 10.6472Z" fill="#73E0CF"/>
<path d="M13.8661 12.1382C12.7857 12.1382 11.7857 11.848 11.3482 11.107C11.1473 10.7677 11.192 10.3346 11.4598 10.0445C11.9465 9.51768 14.4688 6.89715 16.4554 7.24536C16.9688 7.33465 17.6652 7.64715 18.0804 8.63822C18.4465 9.50429 18.2857 10.7141 16.7322 11.4954C15.9688 11.8793 14.8795 12.1382 13.8661 12.1382ZM13.7098 10.3436C14.4866 10.3659 15.5625 10.1918 16.2054 9.73197C16.509 9.51322 16.4688 9.415 16.4331 9.33018C16.3081 9.03108 16.192 9.01322 16.1429 9.00429C15.6518 8.915 14.6384 9.54 13.7098 10.3436Z" fill="#37635F"/>
<path d="M11.8261 6.45973C11.8261 6.45973 5.9377 7.0758 6.87074 4.30348C7.58949 2.16508 12.0984 5.02669 11.8261 6.45973Z" fill="#73E0CF"/>
<path d="M10.509 7.41953C9.1251 7.41953 7.17867 7.20971 6.32152 6.14275C5.99563 5.7365 5.67867 5.04007 6.02242 4.02221C6.32152 3.12935 7.24117 2.33025 8.9242 2.77221C10.634 3.21864 13.018 4.9865 12.7055 6.62935C12.634 7.01775 12.3126 7.31239 11.9197 7.35257C11.6921 7.37489 11.1608 7.424 10.509 7.424V7.41953ZM8.00902 4.42846C7.76795 4.42846 7.74117 4.51328 7.71438 4.58918C7.6117 4.89275 7.68313 4.9865 7.71438 5.02221C8.02688 5.41507 9.19652 5.61596 10.4287 5.62935C9.86617 5.0981 8.9376 4.51328 8.15188 4.43739C8.09831 4.43293 8.0492 4.42846 8.00902 4.42846Z" fill="#37635F"/>
<path d="M8.40174 44.5757C7.33924 43.5132 7.1562 41.9686 7.99102 41.1338L8.86156 40.2632L9.48209 39.7811C11.9508 37.8615 14.1562 35.6561 16.0803 33.1918L16.5892 32.54L17.8883 31.2409C18.1919 30.9374 18.7499 31.0043 19.1339 31.3882L21.5937 33.8481C21.9776 34.232 22.0446 34.79 21.741 35.0936L20.4776 36.357L19.7321 36.9374C17.3035 38.8347 15.1294 41.0088 13.2321 43.4374L12.6428 44.1918L11.8437 44.9909C11.0044 45.8302 9.46424 45.6472 8.40174 44.5802V44.5757Z" fill="#70EBD8"/>
<path d="M10.4956 46.3973C9.55806 46.3973 8.55359 45.991 7.76788 45.2053C6.35716 43.7946 6.17413 41.683 7.35716 40.5L8.2277 39.6294C8.25449 39.6026 8.28127 39.5803 8.31252 39.5535L8.93306 39.0714C11.3348 37.2009 13.5045 35.0401 15.375 32.6384L15.8839 31.9866C15.9063 31.9598 15.9286 31.9285 15.9554 31.9062L17.2545 30.6071C17.9063 29.9553 19.0313 30.0223 19.7634 30.7544L22.2232 33.2143C22.5491 33.5401 22.7589 33.9598 22.8125 34.3928C22.8706 34.8973 22.7143 35.3839 22.375 35.7232L21.1116 36.9866C21.0848 37.0134 21.0581 37.0357 21.0313 37.058L20.2857 37.6384C17.9197 39.4821 15.7857 41.6205 13.9375 43.9821L13.3482 44.7366C13.3259 44.7634 13.3036 44.7901 13.2768 44.8169L12.4777 45.616C11.9509 46.1428 11.2456 46.3973 10.5 46.3973H10.4956ZM9.45538 40.9285L8.62056 41.7589C8.13841 42.241 8.32591 43.2366 9.03127 43.9419C9.73216 44.6428 10.7322 44.8303 11.2143 44.3526L11.9732 43.5937L12.5268 42.8839C14.4643 40.4062 16.7009 38.1651 19.1831 36.2321L19.8839 35.683L21.0179 34.5491C21.0179 34.5491 20.9866 34.5 20.9598 34.4732L18.5 32.0134C18.4732 31.9866 18.4464 31.9687 18.4241 31.9553L17.2545 33.125L16.7813 33.7321C14.8214 36.25 12.5491 38.5178 10.0268 40.4776L9.45091 40.9241L9.45538 40.9285Z" fill="#37635F"/>
<path d="M26.636 28.1656L24.6631 26.1926L21.5221 29.3336L23.4951 31.3065L26.636 28.1656Z" fill="#53918C"/>
<path d="M23.4957 32.2008C23.268 32.2008 23.0404 32.1115 22.8662 31.9374L20.893 29.9642C20.7234 29.7946 20.6296 29.5714 20.6296 29.3348C20.6296 29.0981 20.7234 28.8705 20.893 28.7053L24.0359 25.5624C24.3841 25.2142 24.9511 25.2142 25.2993 25.5624L27.2725 27.5356C27.4421 27.7053 27.5359 27.9285 27.5359 28.1651C27.5359 28.4017 27.4421 28.6294 27.2725 28.7946L24.1296 31.933C23.9555 32.1071 23.7279 32.1964 23.5002 32.1964L23.4957 32.2008ZM22.7859 29.3348L23.4957 30.0446L25.3752 28.1651L24.6654 27.4553L22.7859 29.3348Z" fill="#37635F"/>
<path d="M21.7998 29.7454L23.1951 31.1407C23.7633 31.7089 23.7602 32.6275 23.1951 33.1925L21.9892 34.3984L18.5389 30.9481L19.7448 29.7422C20.313 29.174 21.2316 29.1772 21.7967 29.7422L21.7998 29.7454Z" fill="#53918C"/>
<path d="M21.9868 35.2945C21.7591 35.2945 21.5314 35.2052 21.3573 35.0311L17.9064 31.5802C17.5582 31.232 17.5582 30.665 17.9064 30.3168L19.1118 29.1114C20.027 28.1963 21.5136 28.1963 22.4287 29.1114L23.8216 30.5043C24.7368 31.4195 24.7368 32.9061 23.8216 33.8213L22.6162 35.0266C22.4421 35.2007 22.2145 35.29 21.9868 35.29V35.2945ZM19.7993 30.9507L21.9868 33.1382L22.5627 32.5623C22.7814 32.3436 22.7814 31.9864 22.5627 31.7721L21.1698 30.3793C20.9511 30.1605 20.5939 30.1605 20.3796 30.3793L19.8037 30.9552L19.7993 30.9507Z" fill="#37635F"/>
<path d="M36.7633 28.9687C33.5178 32.2143 28.2588 31.058 25.0133 27.8125C21.7678 24.5669 20.616 19.308 23.857 16.0625C27.1026 12.8169 39.8392 8.98212 41.8392 10.9821C43.8392 12.9821 40.0044 25.7232 36.7588 28.9643L36.7633 28.9687Z" fill="#5BB5A7"/>
<path d="M32.0089 31.8036C29.2634 31.8036 26.4241 30.4866 24.3839 28.4464C22.6205 26.683 21.433 24.3571 21.1205 22.0625C20.7723 19.5 21.5223 17.1428 23.2276 15.4375C26.4196 12.2455 39.8616 7.74552 42.4732 10.3571C44.0803 11.9643 42.9464 16.9375 42.125 19.7634C41.1607 23.0848 39.3437 27.6518 37.3928 29.6027C35.8526 31.1428 33.9509 31.8036 32.0044 31.8036H32.0089ZM39.7053 11.3214C38.4062 11.3214 36.3348 11.6116 33.5669 12.4152C29.5267 13.5893 25.8794 15.308 24.491 16.6964C22.8169 18.3705 22.6964 20.4062 22.8884 21.8214C23.1473 23.7366 24.1517 25.692 25.6473 27.183C27.1384 28.6741 29.0937 29.6786 31.0089 29.942C32.4241 30.1339 34.4598 30.0134 36.1339 28.3393C37.5223 26.9509 39.241 23.3036 40.4151 19.2634C41.7232 14.75 41.6696 12.0759 41.2142 11.6205C41.0357 11.442 40.5267 11.3259 39.7053 11.3259V11.3214Z" fill="#37635F"/>
<path d="M39.7992 13.174L27.1564 25.8169C26.9421 26.0312 26.6564 26.0401 26.5983 25.8392C26.2323 24.5222 26.1653 19.8526 39.5448 12.6651C39.9332 12.4553 40.1296 12.8437 39.7992 13.174Z" fill="#53918C"/>
</g>
</svg>
