<svg width="50" height="50" viewBox="0 0 50 50" fill="none" xmlns="http://www.w3.org/2000/svg">
<g opacity="0.6" clip-path="url(#clip0_5735_33088)">
<path d="M14.4329 17.1875V39.5179C14.4329 41.4107 19.1471 42.9464 24.9641 42.9464C30.7811 42.9464 35.4954 41.4107 35.4954 39.5179V17.1875" fill="#5BB5A7"/>
<path d="M24.9598 43.8393C19.2856 43.8393 13.5356 42.3527 13.5356 39.5179V17.1875C13.5356 16.6965 13.9374 16.2947 14.4285 16.2947C14.9196 16.2947 15.3214 16.6965 15.3214 17.1875V39.5179C15.3214 40.4107 18.9821 42.0536 24.9598 42.0536C30.9374 42.0536 34.5981 40.4107 34.5981 39.5179V17.1875C34.5981 16.6965 34.9999 16.2947 35.491 16.2947C35.9821 16.2947 36.3839 16.6965 36.3839 17.1875V39.5179C36.3839 42.3572 30.6383 43.8393 24.9598 43.8393Z" fill="#3F5753"/>
<path d="M23.1609 30.0178C23.7457 30.049 24.3484 30.0669 24.96 30.0669C27.5002 30.0669 29.835 29.7723 31.652 29.2856" fill="#5BB5A7"/>
<path d="M24.9599 30.9597C24.3393 30.9597 23.7188 30.9419 23.1072 30.9062C22.6161 30.8794 22.2367 30.4553 22.2679 29.9642C22.2947 29.4731 22.7233 29.0981 23.2099 29.1249C23.7858 29.1562 24.3751 29.174 24.9599 29.174C27.3215 29.174 29.6161 28.9062 31.4197 28.424C31.8974 28.2946 32.384 28.5803 32.5134 29.0535C32.6429 29.5267 32.3572 30.0178 31.884 30.1472C29.9063 30.6785 27.509 30.9597 24.9599 30.9597Z" fill="#3F5753"/>
<path d="M23.1609 34.3035C23.7457 34.3348 24.3484 34.3526 24.96 34.3526C26.2323 34.3526 27.4511 34.2812 28.5761 34.1428" fill="#5BB5A7"/>
<path d="M24.9599 35.2454C24.3349 35.2454 23.7143 35.2276 23.1072 35.1963C22.6161 35.1695 22.2367 34.7454 22.2679 34.2544C22.2947 33.7633 22.7233 33.3927 23.2099 33.4151C24.9554 33.5133 26.8036 33.4597 28.4733 33.2633C28.9643 33.2008 29.4063 33.5535 29.4643 34.0445C29.5224 34.5356 29.1742 34.9776 28.6831 35.0356C27.4911 35.1785 26.2411 35.2499 24.9599 35.2499V35.2454Z" fill="#3F5753"/>
<path d="M30.9599 8.37936C27.6697 6.6115 22.3349 6.6115 19.0447 8.37936L14.2501 10.9553L11.3126 12.5356C8.02243 14.3035 8.02243 17.1695 11.3126 18.9419L19.0447 23.0981C22.3349 24.866 27.6697 24.866 30.9599 23.0981L38.6921 18.9419C41.9822 17.174 41.9822 14.3079 38.6921 12.5356L30.9599 8.37936Z" fill="#DFFDF7"/>
<path d="M25 25.3259C22.7054 25.3259 20.4063 24.8437 18.6206 23.8839L10.8884 19.7276C8.99557 18.7098 7.95093 17.2946 7.95093 15.7366C7.95093 14.1785 8.99557 12.7678 10.8884 11.75L18.6206 7.59371C22.1965 5.66961 27.8036 5.66961 31.384 7.59371L39.1161 11.75C41.009 12.7678 42.0536 14.183 42.0536 15.7366C42.0536 17.2901 41.009 18.7053 39.1161 19.7276L31.384 23.8839C29.5938 24.8437 27.2991 25.3259 25.0045 25.3259H25ZM25 7.933C22.9956 7.933 20.9911 8.34371 19.4643 9.16514L11.7322 13.3214C10.4643 14.0044 9.73218 14.8839 9.73218 15.7366C9.73218 16.5892 10.4599 17.4687 11.7322 18.1517L19.4643 22.308C22.5179 23.9464 27.4822 23.9464 30.5357 22.308L38.2679 18.1517C39.5357 17.4687 40.2679 16.5892 40.2679 15.7366C40.2679 14.8839 39.5402 14.0044 38.2679 13.3214L30.5357 9.16514C29.009 8.34371 27.0045 7.933 25 7.933Z" fill="#3F5753"/>
<path d="M24.9598 18.6428C29.8909 18.6428 33.8884 17.3416 33.8884 15.7366C33.8884 14.1315 29.8909 12.8303 24.9598 12.8303C20.0287 12.8303 16.0312 14.1315 16.0312 15.7366C16.0312 17.3416 20.0287 18.6428 24.9598 18.6428Z" fill="white"/>
<path d="M24.9599 19.5401C20.2277 19.5401 15.1384 18.3526 15.1384 15.741C15.1384 13.1294 20.2277 11.9419 24.9599 11.9419C29.692 11.9419 34.7813 13.1294 34.7813 15.741C34.7813 18.3526 29.6875 19.5401 24.9599 19.5401ZM24.9599 13.7231C19.7411 13.7231 16.9241 15.1517 16.9241 15.7365C16.9241 16.3214 19.7411 17.7499 24.9599 17.7499C30.1786 17.7499 32.9956 16.3214 32.9956 15.7365C32.9956 15.1517 30.1786 13.7231 24.9599 13.7231Z" fill="#3F5753"/>
</g>
<defs>
<clipPath id="clip0_5735_33088">
<rect width="50" height="50" fill="white"/>
</clipPath>
</defs>
</svg>
