<svg width="350" height="551" viewBox="0 0 350 551" fill="none" xmlns="http://www.w3.org/2000/svg">
<g clip-path="url(#clip0_298_6691)">
<path d="M299.772 73.6598C298.727 70.4359 294.218 70.0442 291.246 69.0309C287.255 67.7762 283.088 66.4393 279.082 65.6079C276.097 64.7872 272.906 64.5925 269.98 63.5766C265.056 61.7307 261.589 57.3747 256.544 55.7364C250.838 53.8508 244.289 54.8425 238.842 52.0697C234.781 49.913 229.605 46.7545 226.851 43.015C225.203 40.5359 225.368 36.5799 223.226 34.4704C219.712 32.2135 216.512 37.8908 212.883 37.0454C210.187 35.5553 210.774 30.622 208.204 28.4593C206.744 26.9634 204.742 26.0561 202.872 25.1506C198.648 23.0656 194.709 20.7098 191.452 17.1984C189.677 15.4364 188.238 12.9893 186.291 11.525C183.465 9.52056 179.228 10.343 177.036 7.3857C175.536 5.49744 175.199 2.73446 173.24 1.23639C168.84 -1.97351 155.223 1.6606 151.548 5.37444C147.539 9.29218 147.378 15.2842 146.96 20.5498C146.706 28.3865 145.654 33.1888 137.865 35.9882C130.974 39.1375 119.805 39.8039 115.624 46.4401C114.291 48.5048 113.575 51.06 112.198 53.0952C109.218 57.53 104.32 54.907 99.6644 53.5994C97.7391 52.9719 95.701 52.5321 93.8426 51.7813C90.3198 50.7122 89.2259 47.0506 87.5729 44.1867C86.0041 41.553 82.5661 41.1497 79.7706 40.6595C77.3679 40.2869 74.3819 39.7779 72.5919 40.129C69.2769 40.7631 69.0115 44.2912 69.2226 47.4095C69.636 52.7059 72.6256 57.2944 73.309 62.4681C73.5069 66.0052 73.8562 70.7493 72.6197 73.6765C71.8909 74.9408 70.3319 74.7969 69.0521 75.1713C67.4758 75.5039 65.9948 76.092 64.448 76.3237C61.1139 76.2117 60.2374 73.5956 55.7781 74.2846C53.6922 74.5345 51.5702 74.8707 49.7533 73.5043C47.1778 71.4802 44.0936 67.3478 40.4152 66.1584C36.4799 64.4289 32.3565 65.9757 28.4145 66.6835C24.6437 67.4732 20.8185 67.5579 16.9676 67.6818C10.1794 68.0795 -1.24989 71.278 0.11145 79.9405C0.51209 82.3028 3.77036 84.0388 3.22433 86.2689C2.7189 87.7801 0.646433 89.8245 1.17813 91.831C2.31169 95.458 5.37681 98.9172 8.44521 101.019C11.7002 102.965 15.7409 102.553 19.2568 103.77C21.346 104.469 23.1946 105.766 25.3082 106.591C26.9741 107.246 28.8668 107.641 30.4542 108.411C32.2985 109.368 33.8047 110.4 35.2908 111.747C36.6145 113.128 38.1025 114.937 40.0316 115.72C43.0469 117.322 47.9316 117.187 48.5263 121.296C48.7839 122.412 49.0595 123.961 49.5291 125.229C50.5501 128.173 53.5991 129.97 54.5878 132.903C55.3291 135.237 55.1515 137.814 55.7044 140.219C56.3779 143.538 58.4199 146.916 60.0971 150.03C61.3835 152.306 62.7786 154.568 64.6006 156.424C66.2805 158.136 68.4917 159.265 70.4463 160.586C75.6883 163.761 76.3054 168.964 75.142 174.531C74.4193 178.374 74.8584 181.792 74.3969 185.599C74.0983 188.197 73.3663 190.098 72.7018 192.981C71.5043 198.623 70.0638 204.511 68.9694 210.202C67.0907 221.176 66.1222 231.759 63.5414 242.53C62.6407 245.867 61.7182 248.682 59.7612 251.34C58.0828 253.716 55.7345 255.263 55.6605 258.142C55.719 260.284 57.6628 262.448 58.845 264.335C60.0174 266.086 60.836 268.002 62.1054 269.688C64.5624 273.23 69.5892 273.852 73.4338 275.278C77.4432 276.591 80.5136 279.946 84.1791 281.658C89.0283 283.329 93.9638 284.779 98.724 286.748C101.36 287.682 104.113 287.677 107.009 287.78C109.244 287.822 111.567 288.082 113.647 287.659C117.837 286.578 121.006 284.468 125.182 286.696C127.898 287.946 130.546 290.256 133.346 291.341C134.886 291.93 136.843 292.383 138.195 293.063C141.836 294.681 143.425 298.982 147.683 299.992C151.511 301.182 155.519 301.485 159.472 302.169C163.793 303.208 167.737 302.443 171.956 301.15C180.372 299.387 183.464 300.971 180.139 290.605C179.131 286.681 179.326 281.892 180.999 278.253C183.083 274.473 187.1 272.62 190.583 270.07C196.715 265.319 200.297 262.982 207.949 266.58C211.25 268.134 214.215 270.396 217.901 270.689C220.514 271.006 223.637 270.671 226.276 271.247C228.592 271.716 230.735 272.754 233.011 273.678C238.668 276.119 244.154 279.289 250.429 279.726C253.316 279.765 256.128 278.944 258.904 278.225C268.761 275.776 269.99 269.24 277.172 263.681C281.547 259.468 287.239 256.822 290.648 251.65C292.851 248.118 295.724 241.415 292.66 237.869C288.434 234.359 280.566 237.428 277.284 231.87C274.354 226.789 280.056 220.515 276.424 215.315C275.369 213.192 272.796 211.655 272.884 209.2C273.742 206.154 276.878 204.545 278.331 201.65C281.032 197.177 278.672 193 276.022 189.193C272.461 183.029 277.623 179.728 273.168 170.116C270.882 162.831 268.823 158.288 260.477 159.353C252.47 160.273 257.819 156.577 259.756 153.142C261.966 149.953 263.667 146.692 265.97 143.621C267.742 141.193 269.981 139.149 271.828 136.828C274.637 132.763 278.802 130.519 282.665 127.539C287.201 123.93 287.19 117.48 287.689 112.143C288.2 106.357 289.482 100.875 290.848 95.2642C291.63 92.011 292.387 88.7211 294.039 85.7787C295.874 81.9759 300.338 78.0731 299.777 73.681L299.772 73.6598Z" fill="#FDDFD8"/>
<path d="M160.599 240.338C142.865 239.102 121.234 206.796 117.077 200.332C109.78 188.983 103.786 176.991 99.7438 165.653C94.8591 151.951 92.781 139.282 93.5673 127.997C94.9379 108.325 104.445 89.4868 119.65 76.3131C134.722 63.2543 153.679 56.8148 173.055 58.1648C173.214 58.1759 173.37 58.1869 173.528 58.198C192.906 59.548 210.784 68.5531 223.901 83.5769C237.132 98.7319 243.934 118.707 242.564 138.378C241.777 149.664 237.962 161.922 231.225 174.814C225.649 185.482 218.05 196.527 209.249 206.754C204.236 212.58 178.333 241.574 160.599 240.338Z" fill="#4F9D91"/>
<path d="M165.876 164.609C148.271 163.383 134.946 148.062 136.173 130.458C137.4 112.852 152.72 99.5277 170.325 100.754C187.93 101.981 201.255 117.302 200.028 134.907C198.802 152.512 183.481 165.836 165.876 164.609Z" fill="#FAF8F3"/>
<path d="M79.7185 252.741C75.7509 253.244 69.5643 247.06 68.3645 245.816C66.2577 243.63 64.4106 241.246 63.0227 238.921C61.3455 236.111 60.3328 233.405 60.0128 230.881C59.4551 226.479 60.729 221.906 63.5084 218.334C66.2636 214.793 70.1656 212.543 74.5007 211.994C74.5359 211.989 74.5708 211.985 74.6063 211.98C78.9417 211.431 83.281 212.636 86.8327 215.378C90.4152 218.144 92.7898 222.255 93.3478 226.656C93.6678 229.181 93.3618 232.053 92.4387 235.193C91.6751 237.79 90.4809 240.56 88.9861 243.202C88.1344 244.707 83.6861 252.238 79.7185 252.741Z" fill="#4F9D91"/>
<path d="M77.5711 235.798C73.6325 236.297 70.022 233.499 69.5228 229.561C69.0233 225.622 71.8218 222.011 75.7605 221.512C79.6994 221.013 83.31 223.811 83.8091 227.75C84.3083 231.689 81.5098 235.299 77.5711 235.798Z" fill="#F0EFEB"/>
<path d="M260.15 84.0743C256.264 83.1282 252.691 75.1441 252.014 73.5534C250.826 70.76 249.951 67.8734 249.485 65.206C248.921 61.9823 248.94 59.0943 249.542 56.6211C250.591 52.3108 253.413 48.4934 257.284 46.1484C261.122 43.8236 265.57 43.114 269.815 44.1475C269.85 44.1562 269.884 44.1646 269.919 44.1729C274.165 45.2068 277.789 47.8811 280.128 51.7099C282.488 55.5721 283.239 60.2595 282.19 64.5698C281.588 67.0426 280.277 69.6166 278.295 72.2202C276.654 74.3747 274.55 76.5361 272.211 78.4704C270.879 79.5723 264.035 85.0204 260.15 84.0743Z" fill="#4F9D91"/>
<path d="M264.19 67.4808C260.332 66.5416 257.958 62.6391 258.897 58.7817C259.836 54.9239 263.739 52.55 267.596 53.4889C271.454 54.4281 273.828 58.3306 272.889 62.1883C271.95 66.0457 268.047 68.42 264.19 67.4808Z" fill="#F0EFEB"/>
<path d="M91.3866 63.6137C88.0089 63.994 82.8254 58.666 81.8205 57.5939C80.0561 55.7119 78.5148 53.6639 77.363 51.6715C75.9712 49.2634 75.1431 46.953 74.9009 44.8036C74.4794 41.0569 75.6163 37.186 78.0207 34.1836C80.4039 31.2074 83.7461 29.3416 87.4363 28.9263C87.4668 28.923 87.4964 28.9194 87.5265 28.9162C91.2171 28.5009 94.89 29.5765 97.8757 31.9487C100.887 34.3415 102.856 37.8628 103.278 41.6092C103.52 43.7587 103.226 46.1956 102.404 48.8527C101.724 51.0514 100.677 53.3908 99.375 55.6182C98.6337 56.8867 94.764 63.2336 91.3866 63.6137Z" fill="#4F9D91"/>
<path d="M89.763 49.1907C86.4101 49.5681 83.3751 47.1475 82.9977 43.7946C82.6204 40.4417 85.041 37.4068 88.3939 37.0294C91.7471 36.6521 94.782 39.0726 95.1594 42.4255C95.5367 45.7784 93.1159 48.8134 89.763 49.1907Z" fill="#F0EFEB"/>
<path d="M243.24 254.339C238.984 253.374 234.951 244.725 234.185 243.001C232.841 239.974 231.838 236.84 231.283 233.938C230.613 230.431 230.585 227.28 231.2 224.572C232.271 219.852 235.284 215.64 239.468 213.015C243.614 210.414 248.454 209.564 253.103 210.619C253.141 210.628 253.179 210.636 253.216 210.645C257.866 211.7 261.865 214.556 264.482 218.693C267.122 222.866 268.022 227.966 266.951 232.687C266.336 235.394 264.95 238.224 262.832 241.098C261.079 243.477 258.82 245.87 256.301 248.02C254.867 249.245 247.495 255.305 243.24 254.339Z" fill="#4F9D91"/>
<path d="M247.364 236.169C243.139 235.21 240.483 230.993 241.442 226.769C242.4 222.545 246.617 219.888 250.841 220.847C255.065 221.806 257.722 226.023 256.763 230.247C255.805 234.471 251.588 237.128 247.364 236.169Z" fill="#F0EFEB"/>
<path d="M321.088 338.088C321.524 336.984 321.702 335.794 321.608 334.61L321.258 330.223V329.842C321.258 327.196 321.827 324.581 322.927 322.175V322.175C324.41 318.927 324.92 315.318 324.393 311.786L322.714 300.527C322.513 299.179 321.99 297.899 321.189 296.796V296.796C320.064 295.247 319.497 293.364 319.579 291.452L319.729 287.952C319.763 287.155 319.701 286.357 319.543 285.576L318.687 281.335C318.55 280.653 318.073 280.09 317.423 279.842V279.842C316.747 279.585 315.986 279.706 315.424 280.162L315.358 280.216C314.833 280.642 314.535 281.287 314.553 281.963L314.744 289.237C314.801 291.418 312.867 293.117 310.712 292.779V292.779C309.423 292.578 308.128 293.112 307.356 294.164L306.825 294.888C306.276 295.636 305.529 296.216 304.667 296.561L299.117 298.785C298.579 299.001 298.167 299.448 297.995 300.001L297.972 300.075C297.753 300.78 297.127 301.282 296.391 301.343V301.343C295.909 301.383 295.464 301.613 295.153 301.983L294.804 302.398C294.286 303.015 294.027 303.809 294.081 304.612V304.612C294.132 305.377 293.9 306.135 293.429 306.74L291.549 309.152C291.431 309.303 291.353 309.483 291.324 309.673L291.268 310.033C291.164 310.704 291.805 311.247 292.449 311.034V311.034C292.791 310.921 293.167 311.021 293.408 311.288L294.046 311.995C294.986 313.036 294.819 314.662 293.687 315.492L293.416 315.691C292.569 316.311 292.164 317.369 292.38 318.396L292.56 319.254C292.742 320.118 293.295 320.858 294.073 321.277L297.03 322.868C297.729 323.245 297.764 324.235 297.092 324.658V324.658C296.895 324.782 296.746 324.969 296.668 325.189L295.832 327.548C295.355 328.894 296.642 330.196 297.993 329.736V329.736C298.995 329.394 300.062 330.036 300.231 331.081L300.443 332.392C300.523 332.89 300.469 333.401 300.285 333.872L299.442 336.032C299.002 337.159 299.694 338.408 300.882 338.632L301.917 338.828C303.232 339.076 303.586 340.791 302.478 341.54V341.54C302.1 341.796 301.859 342.21 301.824 342.665L301.798 342.991C301.746 343.666 302.011 344.327 302.514 344.778L304.095 346.196C304.799 346.828 305.633 347.297 306.538 347.572L312.083 349.255C312.803 349.473 313.403 349.978 313.742 350.65L313.899 350.961C314.091 351.342 314.412 351.642 314.805 351.809V351.809C315.734 352.204 316.806 351.76 317.183 350.824L320.446 342.737C320.608 342.336 320.348 341.89 319.919 341.833V341.833C319.33 341.755 319.134 341.001 319.611 340.646L320.069 340.306C320.202 340.207 320.305 340.072 320.367 339.917L321.088 338.088Z" fill="#FDDFD8"/>
<path d="M316.812 324.638C313.172 322.981 311.158 314.469 310.791 312.78C310.147 309.814 309.829 306.814 309.87 304.107C309.92 300.834 310.48 298.001 311.534 295.685C313.372 291.647 316.859 288.425 321.101 286.847C325.306 285.282 329.808 285.418 333.785 287.229C333.818 287.244 333.85 287.258 333.882 287.273C337.86 289.084 340.918 292.39 342.499 296.589C344.093 300.825 343.953 305.57 342.115 309.607C341.061 311.924 339.291 314.207 336.856 316.393C334.841 318.202 332.369 319.931 329.709 321.393C328.194 322.226 320.452 326.296 316.812 324.638Z" fill="#4F9D91"/>
<path d="M323.889 309.095C320.275 307.45 318.674 303.172 320.319 299.559C321.964 295.945 326.242 294.344 329.856 295.989C333.469 297.634 335.07 301.912 333.425 305.526C331.78 309.139 327.502 310.74 323.889 309.095Z" fill="#F0EFEB"/>
<path d="M66.2893 394.582C66.4028 393.233 67.5983 392.238 68.9453 392.371V392.371C69.5673 392.433 70.1891 392.252 70.6809 391.866L75.446 388.13C77.2012 386.754 79.2693 385.833 81.4664 385.449V385.449C83.0961 385.164 84.7642 385.18 86.3879 385.497L103.231 388.783C105.354 389.197 107.295 390.264 108.782 391.836L109.976 393.097C111.034 394.215 111.624 395.696 111.624 397.235V397.235C111.624 398.536 112.046 399.802 112.826 400.844L117.891 407.605C118.947 409.016 120.239 410.233 121.709 411.204L124.839 413.27C126.015 414.047 126.858 415.235 127.203 416.601V416.601C127.52 417.856 127.396 419.181 126.852 420.356L125.556 423.157C124.493 425.455 124.066 427.996 124.32 430.516L124.67 433.983C124.853 435.791 124.254 437.591 123.025 438.931V438.931C122.062 439.98 120.775 440.676 119.369 440.908L110.854 442.314C105.749 443.157 100.514 442.724 95.6163 441.054L84.5638 437.285C83.0156 436.757 81.5758 435.953 80.3142 434.912L79.2491 434.033C78.5043 433.418 77.6398 432.965 76.7105 432.702L75.0071 432.22C73.9542 431.922 73.1048 431.143 72.7174 430.119V430.119C72.4515 429.417 71.964 428.821 71.3288 428.42L70.706 428.028C69.3334 427.163 68.3988 425.749 68.14 424.148L67.6771 421.282C67.3507 419.262 66.5164 417.357 65.2523 415.748L62.0369 411.653C60.7479 410.012 60.2651 407.878 60.722 405.841L60.8486 405.277C61.1802 403.799 62.0979 402.519 63.3912 401.731L63.4901 401.671C64.9494 400.781 65.8966 399.249 66.0399 397.546L66.2893 394.582Z" fill="#FDDFD8"/>
<path d="M150.992 411.643C150.666 410.459 150.453 409.247 150.356 408.023L150.114 404.98C149.923 402.578 150.388 400.168 151.46 398.009L151.52 397.887C152.194 396.529 153.108 395.305 154.217 394.273L156.385 392.257C156.756 391.911 157.019 391.465 157.141 390.973L157.456 389.703C157.56 389.284 157.936 388.99 158.368 388.99H160.327C160.561 388.99 160.665 388.696 160.483 388.55V388.55C160.265 388.374 160.459 388.029 160.722 388.124L176.714 393.9C177.12 394.047 177.491 394.277 177.802 394.575L183.795 400.311C184.007 400.515 184.278 400.647 184.569 400.689L186.033 400.899C186.262 400.932 186.393 401.18 186.289 401.388V401.388C186.214 401.539 186.261 401.722 186.4 401.819L189.518 403.994C190.203 404.472 190.716 405.159 190.978 405.953L191.532 407.627C191.57 407.742 191.551 407.868 191.481 407.967L191.077 408.537C190.887 408.805 191.23 409.128 191.487 408.922V408.922C191.554 408.868 191.593 408.787 191.593 408.701V408.113C191.593 406.807 193.139 406.116 194.113 406.987L194.358 407.207C194.549 407.379 194.698 407.592 194.793 407.831L195.335 409.196C196.192 411.355 196.055 413.782 194.96 415.831L194.309 417.049L186.372 428.565C186.019 429.078 185.888 429.712 186.009 430.323V430.323C186.106 430.813 186.042 431.322 185.825 431.772L182.011 439.698C181.165 441.457 179.937 443.006 178.417 444.231L177.581 444.905C177.414 445.04 177.233 445.156 177.041 445.253L176.406 445.573C175.728 445.915 174.912 445.828 174.321 445.351L174.154 445.217C173.8 444.932 173.336 444.823 172.892 444.923L171.306 445.278C170.953 445.357 170.64 445.037 170.727 444.685V444.685C170.804 444.378 170.571 444.081 170.255 444.081H163.067L161.461 444.261C160.522 444.366 159.648 444.789 158.982 445.459V445.459C157.763 446.688 155.905 447.027 154.328 446.312V446.312C152.097 445.301 151.215 442.585 152.432 440.459L154.263 437.26C154.914 436.124 155.256 434.838 155.256 433.529V432.874C155.256 431.686 155.468 430.508 155.882 429.395L156.007 429.06C157.425 425.25 156.618 420.968 153.909 417.936V417.936C152.785 416.677 151.966 415.176 151.518 413.548L150.992 411.643Z" fill="#FDDFD8"/>
<path d="M222.135 411.69C221.601 410.61 221.513 409.363 221.89 408.218V408.218C222.37 406.76 222.091 405.159 221.145 403.951L217.961 399.881C216.834 398.441 216.268 396.641 216.368 394.815V394.815C216.485 392.684 217.498 390.702 219.157 389.36L220.07 388.621C221.102 387.786 222.321 387.212 223.622 386.948V386.948C225.622 386.544 227.702 386.895 229.458 387.934L242.9 395.889C244.097 396.598 245.157 397.515 246.029 398.598L248.753 401.981C250.728 404.434 254.185 405.105 256.936 403.57L261.031 401.284C261.589 400.973 262.291 401.132 262.66 401.654L262.749 401.78C263.211 402.435 262.873 403.35 262.096 403.547V403.547C261.486 403.701 261.116 404.318 261.267 404.929L261.363 405.319C261.542 406.044 261.177 406.794 260.496 407.101L260.043 407.304C259.198 407.684 258.204 407.465 257.598 406.764L257.313 406.434C256.721 405.749 255.688 405.668 254.995 406.252V406.252C254.514 406.658 254.305 407.302 254.456 407.913L254.566 408.359C254.766 409.168 255.38 409.817 256.175 410.068V410.068C257.99 410.642 258.517 412.983 257.097 414.251L255.768 415.437C255.073 416.057 254.954 417.101 255.491 417.862V417.862C255.942 418.501 256.748 418.783 257.499 418.566L257.771 418.488C259.302 418.045 260.791 419.305 260.606 420.889L260.587 421.059C260.438 422.338 261.371 423.488 262.653 423.606V423.606C263.509 423.685 264.249 424.236 264.569 425.033L270.549 439.908C271.607 442.537 271.675 445.461 270.741 448.137L270.677 448.323C270.33 449.316 269.835 450.252 269.208 451.097L266.961 454.129C266.409 454.874 265.535 455.314 264.608 455.314V455.314C263.622 455.314 262.703 454.819 262.161 453.996L261.725 453.334C261.281 452.661 261.281 451.788 261.725 451.115L262.803 449.479C263.526 448.382 262.434 446.996 261.198 447.443V447.443C260.667 447.635 260.071 447.48 259.701 447.052L259.148 446.412C258.439 445.592 257.262 445.36 256.294 445.849V445.849C255.623 446.189 254.831 446.189 254.16 445.849L251.246 444.375C249.854 443.671 248.299 443.349 246.742 443.441L245.131 443.537C243.966 443.607 242.839 443.979 241.862 444.619L239.393 446.236C238.326 446.934 236.923 446.832 235.968 445.987V445.987C235.281 445.378 234.931 444.473 235.032 443.56L235.082 443.099C235.164 442.358 234.906 441.619 234.382 441.088V441.088C233.656 440.354 233.462 439.246 233.894 438.309L234.981 435.953C235.353 435.147 235.947 434.463 236.693 433.982V433.982C238.264 432.971 240.286 432.993 241.834 434.037L243.212 434.966C243.918 435.443 244.837 435.465 245.566 435.023V435.023C246.717 434.324 246.967 432.759 246.091 431.736L243.61 428.84C243.444 428.646 243.353 428.4 243.353 428.145V428.145C243.353 427.29 242.391 426.786 241.682 427.264V427.264C241.449 427.421 241.163 427.482 240.887 427.431L236.878 426.693C234.9 426.329 233.058 425.432 231.551 424.099L228.125 421.065C226.532 419.654 225.227 417.947 224.284 416.039L222.135 411.69Z" fill="#FDDFD8"/>
<path d="M136.426 490.444C136.52 491.554 136.801 492.639 137.257 493.654V493.654C138.564 496.564 141.2 498.661 144.33 499.28L148.699 500.144C150.451 500.491 151.947 501.626 152.753 503.22L153.649 504.994C153.811 505.313 154.099 505.55 154.443 505.648V505.648C155.812 506.034 155.622 508.031 154.205 508.153L145.588 508.894C145.354 508.914 145.123 508.963 144.9 509.04L133.118 513.105C131.301 513.732 129.335 513.788 127.485 513.265L123.694 512.194C123.285 512.078 122.953 511.78 122.794 511.387L122.32 510.215C122.062 509.578 121.174 509.541 120.864 510.154V510.154C120.716 510.447 120.405 510.62 120.078 510.59L119.105 510.503C117.846 510.39 116.743 511.339 116.668 512.601L116.533 514.872C116.485 515.692 116.664 516.51 117.052 517.234L118.176 519.334C119.099 521.059 119.617 522.973 119.69 524.928L119.707 525.376C119.848 529.128 118.558 532.794 116.099 535.632L114.879 537.04C114.094 537.945 113.107 538.654 111.998 539.108L106.149 541.502C104.832 542.041 103.346 541.266 103.034 539.878V539.878C102.97 539.593 102.852 539.322 102.687 539.081L100.256 535.537C97.7011 531.813 96.2196 527.459 95.9732 522.95L95.8605 520.888C95.7251 518.411 95.2548 515.963 94.4624 513.612L93.0044 509.285C92.4699 507.699 92.3482 506.003 92.6508 504.357V504.357C92.8049 503.519 93.067 502.704 93.4305 501.934L94.4809 499.707C95.0158 498.573 95.9381 497.668 97.0817 497.154V497.154C98.3863 496.567 99.8736 496.537 101.201 497.07L109.639 500.461C110.021 500.615 110.369 500.843 110.662 501.132L113.605 504.044C113.806 504.243 113.737 504.583 113.474 504.687V504.687C113.116 504.829 113.155 505.348 113.531 505.433L115.926 505.98C116.443 506.098 116.973 505.849 117.212 505.376L117.388 505.029C117.668 504.474 118.238 504.123 118.861 504.123H118.901C119.532 504.123 120.112 503.777 120.412 503.221L122.089 500.111C122.486 499.375 123.102 498.78 123.852 498.409L124.373 498.151C125.073 497.805 125.592 497.177 125.799 496.424L125.914 496.009C126.247 494.802 125.552 493.55 124.351 493.193V493.193C123.546 492.955 122.936 492.296 122.758 491.476L122.278 489.26C122.099 488.432 122.093 487.577 122.26 486.747L122.28 486.649C122.553 485.3 123.24 484.071 124.245 483.131L124.848 482.568C127.218 480.354 130.832 480.149 133.437 482.082V482.082C134.986 483.231 135.967 484.991 136.129 486.913L136.426 490.444Z" fill="#FDDFD8"/>
<path d="M158.796 541.522C159.054 541.845 159.246 542.217 159.359 542.615V542.615C159.68 543.737 159.348 544.944 158.498 545.744L155.769 548.312C154.61 549.403 153.119 550.074 151.533 550.219L151.325 550.237C150.557 550.307 149.782 550.229 149.042 550.007V550.007C147.534 549.555 146.262 548.531 145.498 547.155L145.357 546.902C145.09 546.421 144.887 545.907 144.753 545.373V545.373C144.433 544.091 144.525 542.74 145.015 541.512L146.03 538.976C146.224 538.49 146.658 538.141 147.174 538.055V538.055C147.897 537.934 148.426 537.31 148.426 536.577V536.496C148.426 535.844 148.823 535.257 149.428 535.015L149.503 534.985C149.925 534.817 150.396 534.822 150.814 535.001L153.189 536.019C154.392 536.535 155.449 537.339 156.267 538.361L158.796 541.522Z" fill="#FDDFD8"/>
<path d="M223.213 508.686C223.944 508.726 223.674 503.58 223.15 503.068C221.548 501.501 219.847 502.126 217.788 503.981C217.641 504.113 217.476 504.224 217.299 504.31C216.92 504.493 216.58 504.678 216.325 504.871C215.1 505.795 217.659 506.499 219.144 506.884C221.166 507.409 222.356 508.476 222.974 508.641C223.068 508.666 223.115 508.681 223.213 508.686V508.686Z" fill="#FDDFD8"/>
<path d="M211.173 505.651C211.583 505.529 212.065 505.815 212.455 505.64C213.102 505.351 213.274 504.974 213.253 504.616C213.21 503.91 213.096 502.994 213.166 502.29V502.29C213.176 502.197 213.166 502.049 213.143 501.957C212.412 498.943 210.033 496.609 207.99 495.934C206.607 495.592 206.262 495.592 205.224 495.25C204.955 495.161 204.5 494.957 203.966 494.703C201.8 493.672 198.039 497.866 197.273 495.592V495.592C197.134 494.904 196.926 494.272 196.664 493.695C194.905 489.816 189.426 488.928 188.382 484.799C187.173 480.013 187.1 475.145 178.259 490.116V490.116C177.098 492.414 175.167 495.234 177.126 496.905C179.342 498.796 183.252 501.172 185.139 502.229C185.814 502.607 186.519 503.085 187.069 503.63C187.341 503.899 187.586 504.141 187.774 504.328C187.88 504.433 187.939 504.575 187.939 504.723V504.723C187.939 504.796 187.924 504.87 187.896 504.938C184.875 512.402 190.016 516.496 190.705 521.947C190.705 522.286 193.756 538.399 190.794 532.399C190.739 532.287 190.71 532.113 190.615 532.032V532.032C190.322 531.783 189.951 531.61 189.836 531.244C189.195 529.19 188.079 527.789 186.139 527.041C185.512 526.799 184.832 526.746 184.167 526.841C183.128 526.989 181.807 527.297 182.753 527.766C188.285 531.189 188.285 534.611 185.173 538.034C184.848 538.464 184.557 538.691 184.353 538.811C183.725 539.182 185.063 539.384 185.676 539.779C185.835 539.882 186.004 539.969 186.177 540.025C186.419 540.102 186.674 540.029 186.902 539.916L187.135 539.801C187.209 539.764 187.182 539.745 187.264 539.745V539.745C187.405 539.745 187.647 539.686 187.759 539.6C188.395 539.111 189.031 539.376 189.668 539.061V539.061C188.814 539.378 200.134 544.998 201.022 544.798C201.751 544.634 202.459 544.423 203.15 544.195C203.66 543.942 204.735 544.062 205.402 544.005C205.75 543.976 205.912 543.51 206.262 543.51V543.51C209.334 543.51 202.631 538.504 202.129 537.72C202.116 537.699 202.094 537.673 202.077 537.656V537.656C201.88 537.469 202.888 535.462 203.066 535.257C203.376 534.902 203.432 534.518 202.804 534.269C206.097 535.751 209.13 528.253 210.109 525.325C210.254 524.893 210.521 524.505 210.325 524.094V524.094C210.014 523.442 207.705 511.719 207.962 511.044C208.973 508.384 210.232 505.93 211.173 505.651Z" fill="#FDDFD8"/>
<path d="M89.8687 414.928C85.7167 415.456 79.2424 408.964 77.9868 407.658C75.782 405.364 73.8491 402.86 72.3966 400.419C70.6415 397.469 69.5817 394.629 69.2468 391.978C68.6632 387.358 69.9963 382.557 72.9049 378.807C75.7883 375.089 79.8716 372.727 84.4083 372.15C84.4451 372.146 84.4817 372.141 84.5189 372.136C89.0558 371.559 93.5969 372.825 97.3137 375.703C101.063 378.607 103.548 382.923 104.132 387.543C104.467 390.194 104.146 393.209 103.18 396.505C102.381 399.232 101.131 402.14 99.5672 404.914C98.6759 406.494 94.0208 414.4 89.8687 414.928Z" fill="#4F9D91"/>
<path d="M203.741 501.635C199.712 500.502 196.281 492 195.634 490.307C194.498 487.335 193.694 484.276 193.309 481.462C192.843 478.061 192.974 475.033 193.699 472.461C194.963 467.979 198.063 464.078 202.203 461.758C206.308 459.459 210.989 458.876 215.391 460.114C215.427 460.124 215.463 460.134 215.499 460.144C219.902 461.382 223.59 464.318 225.89 468.418C228.21 472.553 228.816 477.496 227.552 481.978C226.827 484.55 225.357 487.202 223.182 489.86C221.383 492.06 219.098 494.251 216.576 496.195C215.139 497.302 207.77 502.768 203.741 501.635Z" fill="#4F9D91"/>
<path d="M87.5864 396.676C83.6702 397.173 80.0803 394.39 79.584 390.474C79.0874 386.558 81.8699 382.968 85.7861 382.471C89.7026 381.975 93.2925 384.757 93.7888 388.674C94.2851 392.59 91.5026 396.18 87.5864 396.676Z" fill="#F0EFEB"/>
<path d="M208.755 483.938C204.956 482.868 202.735 478.907 203.804 475.107C204.874 471.307 208.836 469.086 212.636 470.156C216.436 471.226 218.657 475.188 217.587 478.988C216.517 482.787 212.555 485.008 208.755 483.938Z" fill="#F0EFEB"/>
</g>
<defs>
<clipPath id="clip0_298_6691">
<rect width="350" height="551" fill="white"/>
</clipPath>
</defs>
</svg>
