<svg width="62" height="62" viewBox="0 0 62 62" fill="none" xmlns="http://www.w3.org/2000/svg">
<g clip-path="url(#clip0_1367_355)">
<path d="M21.2354 16.6084L39.0939 13.8476L40.1502 20.6804C40.6828 24.1254 38.3175 27.3499 34.8773 27.8818L29.493 28.7141C26.048 29.2467 22.8235 26.8814 22.2916 23.4412L21.2354 16.6084Z" fill="#6ED5C5"/>
<path d="M24.6951 16.0731L35.6399 14.3812L36.2918 18.598C36.6962 21.2139 34.8996 23.6676 32.2837 24.072L31.0639 24.2605C28.3146 24.6855 25.7344 22.7963 25.3094 20.047L24.6943 16.0684L24.6951 16.0731Z" fill="#DFFDF7"/>
<path d="M35.0252 28.8386L29.641 29.671C25.6767 30.2838 21.9522 27.5567 21.3393 23.5924L20.2831 16.7596C20.202 16.2355 20.5646 15.7403 21.0887 15.6593L38.9473 12.8986C39.4714 12.8175 39.9666 13.1801 40.0476 13.7042L41.1039 20.537C41.7167 24.5013 38.9896 28.2258 35.0252 28.8386ZM22.3363 17.4179L23.2453 23.2977C23.6961 26.2138 26.435 28.2151 29.3464 27.765L34.7306 26.9327C37.6467 26.4819 39.648 23.7429 39.1979 20.8316L38.289 14.9518L22.3363 17.4179Z" fill="#3F5753"/>
<path d="M44.249 43.6254L36.1536 44.8769C35.6295 44.9579 35.1343 44.5953 35.0533 44.0712C34.9723 43.5471 35.3348 43.0519 35.859 42.9709L43.9544 41.7194C44.7882 41.5905 45.5196 41.1457 46.0151 40.4691L46.5186 39.7814C47.4813 38.4665 47.2894 36.6569 46.072 35.5669C45.3651 34.9395 44.4291 34.6598 43.4952 34.8041L38.9067 35.5135C36.996 35.8089 35.3659 35.4266 34.0584 34.3847C31.5195 32.3524 31.2356 28.5275 31.2256 28.3681C31.1922 27.8366 31.5947 27.3792 32.1255 27.341C32.657 27.3077 33.1136 27.7054 33.1518 28.2362C33.1599 28.2886 33.4008 31.3932 35.2706 32.8849C36.1494 33.5833 37.2405 33.8245 38.6128 33.6123L43.2013 32.903C44.707 32.6702 46.2205 33.1192 47.358 34.1338C49.3215 35.8842 49.6264 38.8033 48.0762 40.9261L47.5727 41.6138C46.7711 42.7086 45.5894 43.4279 44.2505 43.6349L44.249 43.6254Z" fill="#3F5753"/>
<path d="M35.563 41.0549L16.6133 43.9844L17.9325 52.5182L36.8823 49.5887L35.563 41.0549Z" fill="#5BB5A7"/>
<path d="M37.0303 50.5466L18.0805 53.476C17.5564 53.557 17.0613 53.1945 16.9802 52.6704L15.661 44.1366C15.58 43.6124 15.9425 43.1173 16.4666 43.0363L35.4164 40.1068C35.9405 40.0258 36.4356 40.3883 36.5167 40.9125L37.8359 49.4463C37.9169 49.9704 37.5544 50.4655 37.0303 50.5466ZM18.7388 51.4228L35.7826 48.788L34.758 42.1601L17.7142 44.7949L18.7388 51.4228Z" fill="#3F5753"/>
<path d="M27.2134 8.72183L28.2645 15.5212L24.7909 16.0582L23.7398 9.25881C23.5917 8.30108 24.2483 7.40435 25.2061 7.25629C26.1638 7.10824 27.0605 7.76484 27.2086 8.72257L27.2134 8.72183Z" fill="#5BB5A7"/>
<path d="M28.4115 16.4742L24.9379 17.0112C24.4138 17.0922 23.9187 16.7297 23.8377 16.2055L22.7865 9.40611C22.5575 7.92425 23.5766 6.53239 25.0585 6.30331C26.5403 6.07423 27.9322 7.09337 28.1613 8.57523L29.2124 15.3746C29.2934 15.8988 28.9309 16.3939 28.4067 16.4749L28.4115 16.4742ZM25.5963 14.9579L27.1639 14.7156L26.2601 8.86914C26.1931 8.43554 25.7867 8.14221 25.3579 8.2085C24.929 8.2748 24.6309 8.6819 24.6972 9.11074L25.601 14.9572L25.5963 14.9579Z" fill="#3F5753"/>
<path d="M34.5893 7.58219L35.6405 14.3816L32.1669 14.9186L31.1158 8.11916C30.9677 7.16143 31.6243 6.2647 32.5821 6.11664C33.5398 5.96859 34.4365 6.62519 34.5846 7.58292L34.5893 7.58219Z" fill="#5BB5A7"/>
<path d="M35.7875 15.3345L32.3139 15.8715C31.7898 15.9526 31.2947 15.59 31.2136 15.0659L30.1625 8.26647C29.9334 6.7846 30.9526 5.39274 32.4344 5.16366C33.9163 4.93458 35.3082 5.95372 35.5372 7.43559L36.5884 14.235C36.6694 14.7591 36.3068 15.2543 35.7827 15.3353L35.7875 15.3345ZM32.9722 13.8183L34.5399 13.5759L33.6361 7.72949C33.569 7.29589 33.1627 7.00256 32.7338 7.06886C32.305 7.13515 32.0069 7.54226 32.0732 7.97109L32.977 13.8175L32.9722 13.8183Z" fill="#3F5753"/>
<path d="M36.8823 49.594L17.9326 52.5234L18.642 57.112L37.5917 54.1825L36.8823 49.594Z" fill="#4F9D91"/>
<path d="M37.7387 55.1306L18.789 58.06C18.2648 58.1411 17.7697 57.7785 17.6887 57.2544L16.9794 52.6659C16.8983 52.1417 17.2609 51.6466 17.785 51.5656L36.7347 48.6361C37.2589 48.5551 37.754 48.9176 37.835 49.4418L38.5444 54.0303C38.6254 54.5544 38.2628 55.0496 37.7387 55.1306ZM19.4473 56.0068L36.4911 53.372L36.0764 50.6894L19.0326 53.3242L19.4473 56.0068Z" fill="#3F5753"/>
<path d="M21.9823 49.399C22.9928 49.2428 23.6854 48.297 23.5292 47.2865C23.3729 46.2759 22.4271 45.5834 21.4166 45.7396C20.4061 45.8958 19.7136 46.8416 19.8698 47.8522C20.026 48.8627 20.9718 49.5552 21.9823 49.399Z" fill="#009081"/>
<path d="M50.1398 50.8668L37.3843 52.8387C36.8602 52.9197 36.3651 52.5572 36.284 52.033C36.203 51.5089 36.5656 51.0138 37.0897 50.9328L49.8451 48.9609C50.3693 48.8799 50.8644 49.2424 50.9454 49.7665C51.0264 50.2907 50.6639 50.7858 50.1398 50.8668Z" fill="#3F5753"/>
</g>
<defs>
<clipPath id="clip0_1367_355">
<rect width="54" height="54" fill="white" transform="translate(0 8.25) rotate(-8.78781)"/>
</clipPath>
</defs>
</svg>
