<svg width="67" height="67" viewBox="0 0 67 67" fill="none" xmlns="http://www.w3.org/2000/svg">
<g clip-path="url(#clip0_1367_464)">
<path d="M62.6263 14.0339L16.9863 1.80469L4.85197 47.0907L50.492 59.3199L62.6263 14.0339Z" fill="#62A9A2"/>
<path d="M50.2426 60.2517L4.60261 48.0225C4.09032 47.8852 3.78349 47.3538 3.92075 46.8415L16.0551 1.55545C16.1924 1.04317 16.7238 0.736332 17.2361 0.873599L62.8761 13.1028C63.3884 13.2401 63.6952 13.7715 63.558 14.2838L51.4236 59.5698C51.2863 60.0821 50.7549 60.389 50.2426 60.2517ZM6.03318 46.4092L49.8103 58.1393L61.4455 14.7161L17.6684 2.98603L6.03318 46.4092Z" fill="#3F5753"/>
<path d="M9.8999 48.4435L4.85156 47.0908L3.50885 52.1019L8.55719 53.4546L9.8999 48.4435Z" fill="#4F9D91"/>
<path d="M8.30783 54.3864L3.25948 53.0337C2.7472 52.8964 2.44036 52.365 2.57763 51.8527L3.92035 46.8416C4.05761 46.3293 4.58906 46.0225 5.10135 46.1597L10.1497 47.5124C10.662 47.6497 10.9688 48.1811 10.8315 48.6934L9.48883 53.7045C9.35156 54.2168 8.82011 54.5236 8.30783 54.3864ZM4.69006 51.4204L7.87555 52.2739L8.71911 49.1257L5.53363 48.2722L4.69006 51.4204Z" fill="#3F5753"/>
<path d="M50.4917 59.3195L45.4434 57.9668L44.1006 62.9779L49.149 64.3306L50.4917 59.3195Z" fill="#4F9D91"/>
<path d="M48.8996 65.2624L43.8513 63.9097C43.339 63.7724 43.0322 63.2409 43.1694 62.7286L44.5121 57.7176C44.6494 57.2053 45.1809 56.8984 45.6931 57.0357L50.7415 58.3884C51.2538 58.5257 51.5606 59.0571 51.4233 59.5694L50.0806 64.5805C49.9434 65.0928 49.4119 65.3996 48.8996 65.2624ZM45.2819 62.2964L48.4673 63.1499L49.3109 60.0017L46.1254 59.1481L45.2819 62.2964Z" fill="#3F5753"/>
<path d="M27.5652 53.6058C27.0529 53.4686 26.7461 52.9371 26.8833 52.4248L38.8754 7.66971C39.0127 7.15742 39.5441 6.85059 40.0564 6.98786C40.5687 7.12512 40.8755 7.65657 40.7383 8.16886L28.7462 52.924C28.6089 53.4363 28.0775 53.7431 27.5652 53.6058Z" fill="#3F5753"/>
<path d="M52.3877 52.2459L6.74771 40.0167C6.23542 39.8795 5.92859 39.348 6.06585 38.8357C6.20312 38.3234 6.73457 38.0166 7.24686 38.1539L52.8868 50.3831C53.3991 50.5203 53.706 51.0518 53.5687 51.5641C53.4314 52.0764 52.9 52.3832 52.3877 52.2459Z" fill="#3F5753"/>
<path d="M18.1341 47.0365L16.2526 46.5324C15.7403 46.3951 15.4335 45.8636 15.5707 45.3514C15.708 44.8391 16.2395 44.5322 16.7517 44.6695L18.6332 45.1736C19.1455 45.3109 19.4523 45.8424 19.3151 46.3546C19.1778 46.8669 18.6464 47.1738 18.1341 47.0365Z" fill="#3F5753"/>
<path d="M41.8626 53.3939L39.9811 52.8898C39.4688 52.7525 39.162 52.2211 39.2993 51.7088C39.4365 51.1965 39.968 50.8897 40.4803 51.0269L42.3617 51.5311C42.874 51.6683 43.1809 52.1998 43.0436 52.7121C42.9063 53.2244 42.3749 53.5312 41.8626 53.3939Z" fill="#3F5753"/>
<path d="M54.4414 44.5809L8.80142 32.3517C8.28913 32.2144 7.9823 31.683 8.11957 31.1707C8.25683 30.6584 8.78828 30.3516 9.30057 30.4888L54.9406 42.718C55.4528 42.8553 55.7597 43.3867 55.6224 43.899C55.4851 44.4113 54.9537 44.7182 54.4414 44.5809Z" fill="#3F5753"/>
<path d="M20.1888 39.3705L18.3073 38.8663C17.795 38.7291 17.4882 38.1976 17.6254 37.6853C17.7627 37.173 18.2941 36.8662 18.8064 37.0035L20.6879 37.5076C21.2002 37.6449 21.507 38.1763 21.3698 38.6886C21.2325 39.2009 20.701 39.5077 20.1888 39.3705Z" fill="#3F5753"/>
<path d="M43.9163 45.7289L42.0348 45.2247C41.5225 45.0875 41.2157 44.556 41.353 44.0437C41.4902 43.5314 42.0217 43.2246 42.534 43.3619L44.4155 43.866C44.9277 44.0033 45.2346 44.5347 45.0973 45.047C44.96 45.5593 44.4286 45.8661 43.9163 45.7289Z" fill="#3F5753"/>
<path d="M39.9303 33.2202L37.1081 32.464C36.5958 32.3267 36.2889 31.7953 36.4262 31.283C36.5635 30.7707 37.0949 30.4639 37.6072 30.6011L40.4294 31.3574C40.9417 31.4946 41.2486 32.0261 41.1113 32.5384C40.974 33.0506 40.4426 33.3575 39.9303 33.2202Z" fill="#3F5753"/>
<path d="M29.3824 30.3931L26.5602 29.6368C26.0479 29.4996 25.7411 28.9681 25.8784 28.4558C26.0156 27.9436 26.5471 27.6367 27.0594 27.774L29.8816 28.5302C30.3939 28.6675 30.7007 29.1989 30.5634 29.7112C30.4262 30.2235 29.8947 30.5303 29.3824 30.3931Z" fill="#3F5753"/>
<path d="M19.4675 5.75466L13.167 29.2686L22.0668 31.6533C23.585 32.0601 24.5399 30.0797 23.2714 29.1508C22.4776 28.5738 22.4964 27.3858 23.3114 26.8405L27.5592 23.9905C28.1317 23.6048 28.3394 22.8668 28.0575 22.2422L25.3902 16.3813C25.1442 15.8462 25.2624 15.2189 25.6787 14.8014L28.3597 12.1355C28.7201 11.7779 29.2405 11.6428 29.7341 11.775L33.4971 12.7833C34.2562 12.9867 35.0344 12.5414 35.2366 11.7869L35.6896 10.0964L19.4688 5.75L19.4675 5.75466Z" fill="#4F9D91"/>
<path d="M42.6045 11.9541L39.9091 22.0135L44.2709 20.8612C45.1039 20.6402 45.5953 19.7935 45.373 18.9652C45.1451 18.1205 45.666 17.2568 46.5231 17.0572L49.1321 16.4485C49.5524 16.3515 49.9908 16.429 50.3518 16.6655L52.8412 18.2909C53.2323 18.5454 53.7176 18.6156 54.1585 18.4792L56.5014 17.7642C57.0174 17.608 57.4114 17.1994 57.5499 16.6825L57.7309 16.0072L42.6045 11.9541Z" fill="#4F9D91"/>
</g>
<defs>
<clipPath id="clip0_1367_464">
<rect width="54" height="54" fill="white" transform="translate(13.9766) rotate(15)"/>
</clipPath>
</defs>
</svg>
