<svg width="62" height="62" viewBox="0 0 62 62" fill="none" xmlns="http://www.w3.org/2000/svg">
<g clip-path="url(#clip0_1367_524)">
<path d="M43.9076 52.5717L44.5276 48.6085L38.4971 47.665L37.8748 51.6425" fill="#30433F"/>
<path d="M37.7257 52.5954C37.2017 52.5134 36.84 52.0177 36.922 51.4937L37.5443 47.5162C37.6263 46.9922 38.1221 46.6305 38.6461 46.7125L44.6719 47.6553C45.1958 47.7373 45.5575 48.233 45.4755 48.757L44.8555 52.7202C44.7735 53.2442 44.2777 53.6059 43.7537 53.5239C43.2297 53.4419 42.8681 52.9461 42.9501 52.4221L43.4211 49.4116L39.3007 48.767L38.8274 51.7918C38.7454 52.3158 38.2497 52.6774 37.7257 52.5954Z" fill="#3F5753"/>
<path d="M21.7316 22.1978L22.2309 19.0062L16.2051 18.0635L15.7043 21.2645" fill="#30433F"/>
<path d="M15.5549 22.2175C15.0309 22.1356 14.6693 21.6398 14.7513 21.1158L15.2513 17.9195C15.3333 17.3955 15.8291 17.0339 16.3531 17.1158L22.3789 18.0586C22.9029 18.1406 23.2645 18.6364 23.1825 19.1603L22.6832 22.3519C22.6012 22.8759 22.1055 23.2375 21.5815 23.1555C21.0575 23.0735 20.6958 22.5778 20.7778 22.0538L21.1281 19.8149L17.0077 19.1703L16.6567 21.4139C16.5747 21.9379 16.0789 22.2995 15.5549 22.2175Z" fill="#3F5753"/>
<path d="M25.692 54.617L49.7762 58.385L50.1757 55.8318C50.3262 54.8695 49.6672 53.9661 48.705 53.8156L34.486 51.591" fill="#62A9A2"/>
<path d="M49.6271 59.3379L25.5429 55.5699C25.0189 55.4879 24.6573 54.9921 24.7393 54.4681C24.8213 53.9441 25.317 53.5825 25.841 53.6645L48.9725 57.2834L49.2229 55.6829C49.2915 55.2446 48.9893 54.8363 48.5559 54.7684L34.3369 52.5439C33.8129 52.4619 33.4513 51.9661 33.5332 51.4421C33.6152 50.9181 34.111 50.5565 34.635 50.6385L48.854 52.863C50.3402 53.0956 51.3608 54.4948 51.1283 55.981L50.7288 58.5342C50.6469 59.0582 50.1511 59.4198 49.6271 59.3379Z" fill="#3F5753"/>
<path d="M10.7079 39.4087L12.9429 25.1231C13.2932 22.8842 15.392 21.3533 17.6309 21.7035L20.9129 22.217C24.0663 22.7104 26.7193 24.8432 27.8744 27.8154L34.5245 44.8868C34.9955 46.0878 35.1329 47.3928 34.9332 48.6694C34.3094 52.6564 30.5745 55.3808 26.5874 54.757L14.3977 52.8499" fill="#70EBD8"/>
<path d="M26.448 55.7116L14.2582 53.8045C13.7342 53.7225 13.3726 53.2267 13.4546 52.7028C13.5365 52.1788 14.0323 51.8171 14.5563 51.8991L26.7461 53.8062C30.1996 54.3465 33.4497 51.9758 33.9901 48.5223C34.163 47.4171 34.0383 46.2801 33.6348 45.2409L26.9847 28.1695C25.954 25.5242 23.5744 23.6098 20.7687 23.1709L17.4866 22.6574C15.7765 22.3899 14.168 23.5632 13.9005 25.2733L11.6654 39.559C11.5835 40.0829 11.0877 40.4446 10.5637 40.3626C10.0397 40.2806 9.67806 39.7848 9.76004 39.2609L11.9951 24.9752C12.4273 22.2123 15.0219 20.3198 17.7847 20.752L21.0668 21.2655C24.5441 21.8095 27.5007 24.1851 28.7779 27.4691L35.428 44.5406C35.9568 45.9019 36.1205 47.3818 35.8954 48.8204C35.1904 53.3266 30.9542 56.4166 26.448 55.7116Z" fill="#3F5753"/>
<path d="M11.3321 53.1411C15.052 53.7231 18.5394 51.1793 19.1214 47.4594C19.7034 43.7394 17.1596 40.252 13.4397 39.67C9.71972 39.088 6.2323 41.6318 5.65031 45.3518C5.06832 49.0717 7.61214 52.5591 11.3321 53.1411Z" fill="#62A9A2"/>
<path d="M11.183 54.094C6.94347 53.4307 4.03427 49.4424 4.69755 45.2029C5.36083 40.9634 9.34915 38.0542 13.5887 38.7175C17.8282 39.3808 20.7374 43.3691 20.0741 47.6086C19.4108 51.8481 15.4225 54.7573 11.183 54.094ZM13.2906 40.6229C10.1038 40.1243 7.10152 42.3142 6.60294 45.501C6.10437 48.6878 8.2943 51.69 11.4811 52.1886C14.6678 52.6872 17.6701 50.4973 18.1687 47.3105C18.6673 44.1237 16.4773 41.1215 13.2906 40.6229Z" fill="#3F5753"/>
<path d="M11.8589 49.7732C11.3349 49.6912 10.9733 49.1954 11.0553 48.6715C11.1372 48.1475 11.633 47.7858 12.157 47.8678C12.962 47.9938 13.7222 47.4392 13.8482 46.6342C13.9741 45.8292 13.4196 45.069 12.6146 44.943C11.8096 44.8171 11.0494 45.3716 10.9234 46.1766C10.8414 46.7006 10.3457 47.0622 9.82167 46.9803C9.29769 46.8983 8.93605 46.4025 9.01803 45.8785C9.30868 44.0208 11.0549 42.747 12.9127 43.0376C14.7705 43.3283 16.0442 45.0746 15.7536 46.9323C15.4629 48.7901 13.7167 50.0638 11.8589 49.7732Z" fill="#3F5753"/>
<path d="M39.8839 47.6277L44.5544 17.775C45.1007 14.2834 42.7018 10.9946 39.2101 10.4484L33.0653 9.48699C27.1681 8.56436 21.6153 12.6147 20.6926 18.5119L17.3582 17.9902C18.5685 10.2544 25.851 4.94226 33.5869 6.15255L39.7318 7.11393C45.0622 7.94787 48.7228 12.9663 47.8888 18.2967L43.2183 48.1494L39.8839 47.6277Z" fill="#62A9A2"/>
<path d="M43.0692 49.1023L39.7348 48.5806C39.2108 48.4986 38.8491 48.0029 38.9311 47.4789L43.6016 17.6261C44.0659 14.6585 42.0287 11.8655 39.061 11.4012L32.9161 10.4399C27.5429 9.59922 22.4859 13.288 21.6453 18.6612C21.5633 19.1852 21.0675 19.5468 20.5435 19.4648L17.2091 18.9431C16.6851 18.8612 16.3235 18.3654 16.4054 17.8414C17.6984 9.57674 25.4713 3.90702 33.7359 5.20004L39.8808 6.16142C45.7399 7.07808 49.7581 12.5868 48.8415 18.4459L44.171 48.2987C44.089 48.8226 43.5932 49.1843 43.0692 49.1023ZM40.9856 46.8243L42.4146 47.0479L46.9361 18.1478C47.688 13.3414 44.3891 8.81877 39.5827 8.06681L33.4378 7.10543C26.5451 6.02705 20.0429 10.4999 18.4932 17.192L19.927 17.4163C21.3489 11.5094 27.1122 7.57981 33.2142 8.53448L39.3591 9.49585C43.3795 10.1248 46.136 13.9038 45.507 17.9242L40.9856 46.8243Z" fill="#3F5753"/>
<path d="M43.3422 13.7308C43.066 13.6875 42.8131 13.526 42.6631 13.2683C42.393 12.8112 42.544 12.2199 43.0018 11.9451L45.336 10.5632C45.7931 10.2931 46.3843 10.4442 46.6592 10.902C46.9293 11.359 46.7782 11.9503 46.3204 12.2252L43.9863 13.607C43.7869 13.7271 43.5614 13.765 43.347 13.7315L43.3422 13.7308Z" fill="#3F5753"/>
<path d="M27.3586 49.2367L25.6009 48.9617C25.0769 48.8797 24.7153 48.3839 24.7972 47.8599C24.8792 47.3359 25.375 46.9743 25.899 47.0563L27.6567 47.3313C28.1807 47.4133 28.5423 47.909 28.4604 48.433C28.3784 48.957 27.8826 49.3186 27.3586 49.2367Z" fill="#3F5753"/>
<path d="M30.5734 49.7438C30.3209 49.7043 30.0944 49.5615 29.9457 49.3576C29.7971 49.1538 29.731 48.8897 29.7698 48.642C29.7795 48.5801 29.7994 48.5149 29.8186 48.4545C29.8419 48.3995 29.8706 48.3406 29.9034 48.2871C29.9361 48.2337 29.9736 48.181 30.0144 48.1386C30.056 48.0914 30.1071 48.0457 30.1566 48.0096C30.41 47.8247 30.7551 47.7714 31.0543 47.8865C31.1147 47.9057 31.1737 47.9344 31.2271 47.9672C31.2806 48 31.3285 48.0367 31.3757 48.0783C31.4221 48.1246 31.4638 48.1702 31.5047 48.2205C31.6534 48.4243 31.7147 48.6876 31.6752 48.9401C31.6357 49.1926 31.4976 49.4199 31.2938 49.5685C31.0852 49.7165 30.8259 49.7833 30.5734 49.7438Z" fill="#3F5753"/>
<path d="M21.416 38.1216C25.9932 43.8007 33.6002 42.4971 33.6002 42.4971L27.8791 27.8158C26.7192 24.8429 24.0663 22.7101 20.9176 22.2175C20.9176 22.2175 16.8388 32.4424 21.416 38.1216Z" fill="#53918C"/>
<path d="M29.0474 43.4006C26.3989 42.9862 23.1435 41.8034 20.6675 38.7271C15.7917 32.6792 19.846 22.2992 20.0216 21.863C20.1894 21.4452 20.6237 21.1959 21.0667 21.2652C24.5441 21.8093 27.5006 24.1848 28.7778 27.4689L34.4989 42.1501C34.603 42.4202 34.5846 42.7248 34.4381 42.9751C34.2916 43.2255 34.0444 43.4016 33.7635 43.4503C33.5981 43.4781 31.6054 43.8008 29.0474 43.4006ZM21.5431 23.3357C20.7497 25.7248 18.6823 33.1998 22.1647 37.5169C25.2835 41.3818 30.0271 41.7238 32.2348 41.6495L26.9798 28.1685C26.0468 25.7728 24.0052 23.9747 21.5431 23.3357Z" fill="#3F5753"/>
<path d="M26.5344 35.1992C26.2009 35.1471 25.8998 34.9194 25.7775 34.5782C25.771 34.5576 24.9945 32.4402 24.1325 30.3387C23.7117 29.3163 23.0338 28.6588 22.5355 28.2881C22.1074 27.9673 22.0213 27.3634 22.3413 26.9401C22.6621 26.512 23.266 26.4259 23.6893 26.7459C24.3793 27.2638 25.3294 28.1786 25.9159 29.6075C26.7917 31.7454 27.578 33.8936 27.5846 33.9142C27.7695 34.4165 27.5126 34.9668 27.0103 35.1517C26.85 35.2096 26.6868 35.2231 26.5296 35.1985L26.5344 35.1992Z" fill="white"/>
</g>
<defs>
<clipPath id="clip0_1367_524">
<rect width="54" height="54" fill="white" transform="translate(8.47949 0.131836) rotate(8.89193)"/>
</clipPath>
</defs>
</svg>
