<svg width="63" height="63" viewBox="0 0 63 63" fill="none" xmlns="http://www.w3.org/2000/svg">
<g clip-path="url(#clip0_1367_676)">
<path d="M8.43595 38.668L54.7074 30.6801C56.0995 30.4397 57.4207 31.3761 57.6602 32.7635L59.0226 40.6551C60.0068 46.3565 56.1781 51.783 50.4767 52.7672L19.8223 58.0592C14.1209 59.0434 8.69439 55.2147 7.71015 49.5133L6.34779 41.6216C6.10747 40.2295 7.04386 38.9083 8.4312 38.6688L8.43595 38.668Z" fill="#4F9D91"/>
<path d="M19.7885 48.8521C18.9998 48.9883 18.1605 48.8592 17.4565 48.4376L17.2378 48.3041C16.6381 47.9477 15.7638 48.0986 15.3183 48.6355C14.9783 49.0465 14.3714 49.1023 13.9604 48.7622C13.5495 48.4222 13.4936 47.8154 13.8337 47.4044C14.8813 46.1324 16.8159 45.8034 18.2285 46.6457L18.4472 46.7792C19.0358 47.1277 19.929 46.9735 20.3667 46.4478L20.4194 46.3849C21.4679 45.1177 23.3969 44.7847 24.8143 45.6262C25.4092 45.9834 26.2882 45.8317 26.7337 45.2948L26.8833 45.1125C27.9317 43.8453 29.8655 43.5115 31.2781 44.3538C31.7362 44.627 31.8823 45.2182 31.6092 45.6764C31.336 46.1345 30.7447 46.2806 30.2866 46.0074C29.6916 45.6502 28.8126 45.802 28.3671 46.3388L28.2175 46.5212C27.1691 47.7884 25.2401 48.1214 23.8227 47.2799C23.2278 46.9227 22.3488 47.0744 21.9033 47.6112L21.8505 47.6742C21.3239 48.3082 20.5812 48.7104 19.7925 48.8465L19.7885 48.8521Z" fill="white"/>
<path d="M41.1276 50.7603C40.3389 50.8965 39.4995 50.7674 38.7956 50.3458L38.5721 50.2131C37.9723 49.8567 37.0981 50.0077 36.6526 50.5445C36.3126 50.9555 35.7057 51.0113 35.2947 50.6713C34.8838 50.3312 34.8279 49.7244 35.168 49.3134C36.2156 48.0415 38.1501 47.7124 39.5628 48.5547L39.7815 48.6882C40.3813 49.0446 41.2602 48.8928 41.701 48.3568L41.7537 48.2939C42.8022 47.0267 44.7304 46.689 46.1486 47.5352C46.7435 47.8924 47.6225 47.7407 48.068 47.2039L48.2176 47.0215C49.266 45.7543 51.1942 45.4165 52.6124 46.2628C53.0705 46.536 53.2166 47.1272 52.9435 47.5854C52.6703 48.0435 52.0798 48.1944 51.6217 47.9212C51.0267 47.564 50.1477 47.7157 49.7022 48.2526L49.5527 48.435C48.5042 49.7021 46.5713 50.0407 45.1578 49.1936C44.574 48.8443 43.676 48.9993 43.2384 49.525L43.1856 49.5879C42.659 50.2219 41.9163 50.6241 41.1276 50.7603Z" fill="white"/>
<path d="M46.9008 36.9246L49.0673 36.5505C50.9155 36.2315 52.4786 34.9978 53.2185 33.275L55.9653 22.9419L6.92871 31.4072L8.49372 39.2541C8.99146 41.5705 11.2292 43.0826 13.5667 42.6791L43.4847 37.5143" fill="#6ED5C5"/>
<path d="M9.47981 30.9672L8.57513 25.7267L12.0141 20.48L28.0113 17.7184L27.4232 14.3118L36.1511 12.8051L44.5917 18.7605L47.489 24.4056" fill="#DFFDF7"/>
<path d="M49.0667 36.5508C50.9149 36.2318 52.478 34.9981 53.2178 33.2753L54.4691 28.5629L54.0293 28.4529C54.0293 28.4529 45.3004 27.9978 36.2241 33.1265C34.9316 33.8585 33.5132 34.3431 32.0451 34.5966L8.37958 38.682L8.49307 39.2544C8.99081 41.5708 11.2285 43.0829 13.5661 42.6794L49.0667 36.5508Z" fill="white"/>
<path d="M49.2309 37.5017L47.0644 37.8758C46.5417 37.966 46.0403 37.6122 45.9501 37.0896C45.8599 36.5669 46.2137 36.0655 46.7363 35.9753L48.9028 35.6013C50.4137 35.3405 51.6817 34.3534 52.3062 32.9539L54.6513 24.1482L8.07098 32.1895L9.4441 39.0665C9.83425 40.8731 11.5738 42.0504 13.4078 41.7338L43.3258 36.569C43.8484 36.4787 44.3498 36.8325 44.44 37.3551C44.5303 37.8778 44.1765 38.3792 43.6538 38.4694L13.7311 43.635C10.8756 44.128 8.16127 42.2921 7.55512 39.4611L5.98765 31.5999C5.9386 31.3442 5.99098 31.0807 6.13953 30.8643C6.28809 30.6478 6.51317 30.5062 6.76974 30.4619L55.8064 21.9966C56.1295 21.9408 56.4622 22.0546 56.68 22.2959C56.9026 22.5364 56.9862 22.8791 56.8985 23.1927L54.1516 33.5258C54.14 33.5719 54.1228 33.614 54.1056 33.6561C53.2336 35.6903 51.4117 37.1253 49.2309 37.5017Z" fill="#37635F"/>
<path d="M32.2133 35.5415L8.55731 39.6253C8.03468 39.7155 7.53326 39.3617 7.44304 38.8391C7.35281 38.3164 7.7066 37.815 8.22923 37.7248L31.8805 33.6418C33.2773 33.4007 34.5778 32.9413 35.7463 32.2846C44.9608 27.0781 53.7084 27.4713 54.0739 27.4914C54.6067 27.5168 55.0128 27.9702 54.9874 28.5031C54.9619 29.0359 54.5085 29.442 53.9757 29.4165C53.8916 29.4114 45.4034 29.0469 36.6969 33.9651C35.3324 34.7339 33.8247 35.2682 32.2094 35.5471L32.2133 35.5415Z" fill="#37635F"/>
<path d="M28.1903 18.0204L27.5752 14.457L36.1273 12.9807L43.0094 17.4192L44.6073 19.5898L32.0168 21.7633L28.1903 18.0204Z" fill="white"/>
<path d="M47.6532 25.356C47.2494 25.4257 46.8289 25.2292 46.6309 24.8475L43.8386 19.4142L35.9217 13.8283L28.5337 15.1038L28.9577 17.5601C29.048 18.0827 28.6942 18.5841 28.1715 18.6744L12.5878 21.3646L9.59032 25.9382L10.4302 30.8033C10.5204 31.326 10.1666 31.8274 9.64402 31.9176C9.12139 32.0078 8.61997 31.6541 8.52975 31.1314L7.62506 25.8909C7.58323 25.6486 7.63332 25.4002 7.76926 25.1957L11.2091 19.9538C11.3568 19.7326 11.5898 19.5798 11.8511 19.5347L26.898 16.9371L26.4739 14.4808C26.3837 13.9582 26.7375 13.4567 27.2601 13.3665L35.9927 11.859C36.2446 11.8155 36.5041 11.8735 36.711 12.0237L45.1461 17.9751C45.2742 18.0655 45.378 18.1846 45.4461 18.3245L48.3435 23.9696C48.5864 24.4414 48.3988 25.0267 47.927 25.2696C47.8369 25.3145 47.7443 25.3452 47.6493 25.3616L47.6532 25.356Z" fill="#37635F"/>
<path fill-rule="evenodd" clip-rule="evenodd" d="M27.1872 18.2656L28.5559 16.907L32.3483 20.7277L44.4441 18.6396L44.7722 20.54L31.6869 22.799L27.1872 18.2656Z" fill="#37635F"/>
<path fill-rule="evenodd" clip-rule="evenodd" d="M32.1875 17.0847C32.1195 16.6911 32.3835 16.317 32.7771 16.249L35.8654 15.7159C36.259 15.648 36.6331 15.912 36.7011 16.3056C36.769 16.6992 36.505 17.0733 36.1114 17.1413L33.0232 17.6744C32.6296 17.7423 32.2554 17.4783 32.1875 17.0847Z" fill="#53918C"/>
</g>
<defs>
<clipPath id="clip0_1367_676">
<rect width="54" height="54" fill="white" transform="translate(0 9.18652) rotate(-9.79454)"/>
</clipPath>
</defs>
</svg>
