<svg width="59" height="59" viewBox="0 0 59 59" fill="none" xmlns="http://www.w3.org/2000/svg">
<path d="M42.3375 5.26758H16.4775V45.5456H42.3375V5.26758Z" fill="#BAFAEE"/>
<path d="M42.3373 46.5991H16.4774C15.8979 46.5991 15.4238 46.1249 15.4238 45.5455V5.26744C15.4238 4.68797 15.8979 4.21387 16.4774 4.21387H42.3373C42.9168 4.21387 43.3909 4.68797 43.3909 5.26744V45.5455C43.3909 46.1249 42.9168 46.5991 42.3373 46.5991ZM17.531 44.4919H41.2837V6.32101H17.531V44.4919Z" fill="#37635F"/>
<path d="M38.1227 9.50293H20.6914V41.3155H38.1227V9.50293Z" fill="#79E7D5"/>
<path d="M38.1279 42.3637H20.6913C20.1118 42.3637 19.6377 41.8896 19.6377 41.3101V9.50279C19.6377 8.92333 20.1118 8.44922 20.6913 8.44922H38.1279C38.7073 8.44922 39.1814 8.92333 39.1814 9.50279V41.3154C39.1814 41.8949 38.7073 42.369 38.1279 42.369V42.3637ZM21.7448 40.2565H37.0743V10.5564H21.7448V40.2618V40.2565Z" fill="#37635F"/>
<path d="M29.41 41.5577C28.8306 41.5577 28.3564 41.0836 28.3564 40.5041V9.50279C28.3564 8.92333 28.8306 8.44922 29.41 8.44922C29.9895 8.44922 30.4636 8.92333 30.4636 9.50279V40.5094C30.4636 41.0889 29.9895 41.563 29.41 41.563V41.5577Z" fill="#37635F"/>
<path d="M38.1279 21.1657H20.6913C20.1118 21.1657 19.6377 20.6916 19.6377 20.1122C19.6377 19.5327 20.1118 19.0586 20.6913 19.0586H38.1279C38.7073 19.0586 39.1814 19.5327 39.1814 20.1122C39.1814 20.6916 38.7073 21.1657 38.1279 21.1657Z" fill="#37635F"/>
<path d="M38.1279 31.8171H20.6913C20.1118 31.8171 19.6377 31.343 19.6377 30.7635C19.6377 30.1841 20.1118 29.71 20.6913 29.71H38.1279C38.7073 29.71 39.1814 30.1841 39.1814 30.7635C39.1814 31.343 38.7073 31.8171 38.1279 31.8171Z" fill="#37635F"/>
<path d="M22.9355 12.4953V16.8254C22.9355 17.3891 23.5255 17.7526 24.0365 17.5103C25.1375 16.9835 26.7231 15.6876 27.0761 12.5479C27.1288 12.1002 26.7705 11.7051 26.3175 11.7051H23.731C23.2938 11.7051 22.9355 12.0633 22.9355 12.5005V12.4953Z" fill="#EEEEEE"/>
<path d="M31.707 12.4953V16.8254C31.707 17.3891 32.297 17.7526 32.808 17.5103C33.909 16.9835 35.4946 15.6876 35.8476 12.5479C35.9002 12.1002 35.542 11.7051 35.089 11.7051H32.5025C32.0652 11.7051 31.707 12.0633 31.707 12.5005V12.4953Z" fill="#EEEEEE"/>
<path d="M22.9512 23.0988V27.429C22.9512 27.9926 23.5412 28.3561 24.0522 28.1138C25.1531 27.587 26.7388 26.2911 27.0917 23.1515C27.1444 22.7037 26.7862 22.3086 26.3331 22.3086H23.7466C23.3094 22.3086 22.9512 22.6668 22.9512 23.104V23.0988Z" fill="#EEEEEE"/>
<path d="M31.7227 23.0988V27.429C31.7227 27.9926 32.3127 28.3561 32.8236 28.1138C33.9246 27.587 35.5102 26.2911 35.8632 23.1515C35.9159 22.7037 35.5577 22.3086 35.1046 22.3086H32.5181C32.0809 22.3086 31.7227 22.6668 31.7227 23.104V23.0988Z" fill="#EEEEEE"/>
<path d="M22.9512 33.6613V37.9915C22.9512 38.5551 23.5412 38.9186 24.0522 38.6763C25.1531 38.1495 26.7388 36.8536 27.0917 33.714C27.1444 33.2662 26.7862 32.8711 26.3331 32.8711H23.7466C23.3094 32.8711 22.9512 33.2293 22.9512 33.6665V33.6613Z" fill="#EEEEEE"/>
<path d="M31.7227 33.6613V37.9915C31.7227 38.5551 32.3127 38.9186 32.8236 38.6763C33.9246 38.1495 35.5102 36.8536 35.8632 33.714C35.9159 33.2662 35.5577 32.8711 35.1046 32.8711H32.5181C32.0809 32.8711 31.7227 33.2293 31.7227 33.6665V33.6613Z" fill="#EEEEEE"/>
<path d="M16.4775 37.333H2.64941V45.5456H16.4775V37.333Z" fill="#6ED5C5"/>
<path d="M16.4774 46.599H2.64927C2.06981 46.599 1.5957 46.1249 1.5957 45.5455V37.3329C1.5957 36.7534 2.06981 36.2793 2.64927 36.2793H16.4774C17.0569 36.2793 17.531 36.7534 17.531 37.3329V45.5455C17.531 46.1249 17.0569 46.599 16.4774 46.599ZM3.70285 44.4919H15.4238V38.3864H3.70285V44.4919Z" fill="#37635F"/>
<path d="M22.5986 45.5195H8.77051V53.7321H22.5986V45.5195Z" fill="#6ED5C5"/>
<path d="M22.5985 54.7856H8.77037C8.1909 54.7856 7.7168 54.3114 7.7168 53.732V45.5194C7.7168 44.9399 8.1909 44.4658 8.77037 44.4658H22.5985C23.178 44.4658 23.6521 44.9399 23.6521 45.5194V53.732C23.6521 54.3114 23.178 54.7856 22.5985 54.7856ZM9.82394 52.6784H21.5449V46.573H9.82394V52.6784Z" fill="#37635F"/>
<path d="M36.4268 45.5195H22.5986V53.7321H36.4268V45.5195Z" fill="#4F9D91"/>
<path d="M36.4325 54.7856H22.6044C22.0249 54.7856 21.5508 54.3114 21.5508 53.732V45.5194C21.5508 44.9399 22.0249 44.4658 22.6044 44.4658H36.4325C37.0119 44.4658 37.486 44.9399 37.486 45.5194V53.732C37.486 54.3114 37.0119 54.7856 36.4325 54.7856ZM23.6527 52.6784H35.3736V46.573H23.6527V52.6784Z" fill="#37635F"/>
<path d="M50.2607 45.5195H36.4326V53.7321H50.2607V45.5195Z" fill="#6ED5C5"/>
<path d="M50.2606 54.7856H36.4325C35.853 54.7856 35.3789 54.3114 35.3789 53.732V45.5194C35.3789 44.9399 35.853 44.4658 36.4325 44.4658H50.2606C50.8401 44.4658 51.3142 44.9399 51.3142 45.5194V53.732C51.3142 54.3114 50.8401 54.7856 50.2606 54.7856ZM37.486 52.6784H49.207V46.573H37.486V52.6784Z" fill="#37635F"/>
<path d="M56.376 37.333H42.5479V45.5456H56.376V37.333Z" fill="#4F9D91"/>
<path d="M56.3817 46.599H42.5536C41.9741 46.599 41.5 46.1249 41.5 45.5455V37.3329C41.5 36.7534 41.9741 36.2793 42.5536 36.2793H56.3817C56.9612 36.2793 57.4353 36.7534 57.4353 37.3329V45.5455C57.4353 46.1249 56.9612 46.599 56.3817 46.599ZM43.6019 44.4919H55.3229V38.3864H43.6019V44.4919Z" fill="#37635F"/>
</svg>
