<svg width="62" height="62" viewBox="0 0 62 62" fill="none" xmlns="http://www.w3.org/2000/svg">
<g clip-path="url(#clip0_1367_613)">
<path d="M46.6272 54.8041L50.7824 54.1323L45.4212 34.4764C45.8202 34.0748 46.0299 33.4988 45.9329 32.8991L45.5859 30.7525C45.3327 29.1866 44.1182 28.0789 42.8711 28.2805L18.8874 32.1583C17.6404 32.36 16.8368 33.7939 17.09 35.3598L17.4371 37.5064C17.5294 38.0776 17.8815 38.5335 18.344 38.7957L19.4538 59.1927L23.6089 58.5209L23.3562 45.7509L24.4397 52.4525L27.048 52.0307L25.4251 38.0659L38.3712 35.9727L41.2317 49.7375L43.84 49.3158L44.0758 46.606L46.6169 54.8009L46.6272 54.8041Z" fill="#4F9D91"/>
<path d="M42.8717 28.2809L18.888 32.1587C17.9028 32.318 17.1888 33.249 17.0643 34.412C17.0112 34.8992 17.4293 35.3103 17.9148 35.2318L21.6701 34.6246C21.8605 34.5938 22.0584 34.64 22.2188 34.7557L23.9668 36.0213C24.2985 36.2607 24.7555 36.1868 24.9949 35.8551L26.2996 34.047C26.4672 33.8148 26.7515 33.7005 27.0342 33.7573L29.8621 34.3013C29.988 34.3249 30.1189 34.3184 30.2388 34.2746L32.7239 33.4235C32.7612 33.4126 32.8032 33.4009 32.8461 33.3939L38.253 32.5197C38.4101 32.4943 38.5587 32.4166 38.667 32.3014L40.5712 30.3036C40.6843 30.1877 40.8281 30.1107 40.9852 30.0853L43.0842 29.7459C44.0171 29.5951 43.837 28.1492 42.9018 28.2858C42.8923 28.2873 42.8828 28.2888 42.878 28.2896L42.8717 28.2809Z" fill="#62A9A2"/>
<path d="M38.5796 3.36777L38.0828 3.49694C30.6225 5.44553 23.0023 6.67759 15.308 7.17926L14.7958 7.21324C13.4233 7.30328 12.4613 8.72379 12.7145 10.2897L13.4917 15.0969C13.7172 16.4915 14.8276 17.4988 16.051 17.4231L16.9549 17.3648C24.6492 16.8632 32.2693 15.6311 39.7297 13.6825L40.6059 13.4529C41.7916 13.144 42.5272 11.8334 42.3017 10.4388L41.5244 5.63159C41.2712 4.06567 39.9106 3.02071 38.5796 3.36777Z" fill="#4F9D91"/>
<path d="M41.7376 6.95L41.5244 5.63159C41.2712 4.06567 39.9106 3.02071 38.5796 3.36777L38.0828 3.49694C30.6225 5.44553 23.0023 6.67759 15.308 7.17926L14.7958 7.21324C13.4233 7.30328 12.4613 8.72379 12.7145 10.2897L22.2901 12.1505C22.9355 12.2757 23.587 12.1362 24.1365 11.7592L24.8833 11.2429C26.0119 10.4596 27.5101 10.7546 28.4199 11.9409C29.0626 12.7747 30.0237 13.1908 30.9566 13.0399L32.5986 12.7744C33.3554 12.6521 34.0767 12.3401 34.7036 11.8675L40.2519 7.66886L41.7328 6.95077L41.7376 6.95Z" fill="#62A9A2"/>
<path d="M51.7138 53.8796L46.4819 34.6911C46.8365 34.1356 46.9991 33.45 46.886 32.7503L46.5389 30.6037C46.2011 28.5143 44.489 27.0475 42.7184 27.3338L40.4623 27.6985L40.3194 14.5201L40.8488 14.3807C42.5265 13.9434 43.56 12.1792 43.2529 10.2802L42.4765 5.4777C42.2995 4.38299 41.6961 3.43047 40.823 2.86345C40.0637 2.36595 39.1751 2.21658 38.3369 2.44001L37.8401 2.56918C30.4599 4.49993 22.8588 5.72891 15.2462 6.22226L14.734 6.25623C13.8634 6.30908 13.0727 6.73486 12.508 7.44154C11.8581 8.25481 11.5856 9.34893 11.7626 10.4436L12.5399 15.2509C12.847 17.1499 14.3829 18.4938 16.1138 18.3849L17.0082 18.3282L21.0153 30.8477L18.7307 31.2171C16.9601 31.5033 15.7974 33.4349 16.1353 35.5244L16.4823 37.671C16.5909 38.3421 16.9329 38.9168 17.4049 39.3289L18.4876 59.2566C18.5022 59.5277 18.6317 59.7852 18.8449 59.9558C19.0581 60.1265 19.3336 60.1992 19.6049 60.1553L23.76 59.4835C24.236 59.4065 24.5796 58.9944 24.5701 58.5125L24.4695 53.42C24.5084 53.4186 24.5528 53.4212 24.5908 53.4151L27.1991 52.9933C27.7084 52.911 28.0626 52.4435 28.004 51.9303L26.49 38.8808L37.6132 37.0823L40.2886 49.9441C40.3948 50.4496 40.8782 50.7816 41.3875 50.6993L43.9958 50.2776C44.0624 50.2668 44.1275 50.2465 44.1879 50.227L45.6988 55.1012C45.8416 55.5616 46.2976 55.8444 46.7736 55.7675L50.9287 55.0956C51.2 55.0518 51.4385 54.896 51.5871 54.6668C51.7356 54.4377 51.7782 54.1573 51.7058 53.8906L51.7138 53.8796ZM25.345 30.1379L22.9414 30.5265L18.985 18.1697C20.1856 18.0733 21.3885 17.9618 22.5829 17.8273L25.3403 30.1386L25.345 30.1379ZM29.6876 16.8203C30.7855 16.633 31.8763 16.4322 32.9689 16.2116L34.2265 28.7019L31.6801 29.1136L29.6923 16.8195L29.6876 16.8203ZM34.8692 15.8213C36.0491 15.567 37.2251 15.289 38.3949 15.0022L38.5347 28.0102L36.1311 28.3988L34.8692 15.8213ZM14.4477 14.9375L13.6713 10.135C13.5812 9.57817 13.7075 9.03027 14.0209 8.64261C14.1629 8.46336 14.4065 8.24815 14.7587 8.19121C14.792 8.18582 14.8301 8.17966 14.8642 8.17903L15.3764 8.14506C23.1095 7.64199 30.8344 6.393 38.332 4.43349L38.8288 4.30432C39.2273 4.20083 39.5627 4.34197 39.7752 4.47854C40.1956 4.75246 40.4873 5.22788 40.5774 5.78475L41.3546 10.592C41.4993 11.4868 41.0648 12.3336 40.3671 12.5197L39.491 12.7492C32.1108 14.68 24.5096 15.909 16.897 16.4023L15.9979 16.4598C15.2779 16.5078 14.5987 15.8411 14.4533 14.9415L14.4477 14.9375ZM27.7885 17.1273L29.7762 29.4214L27.2536 29.8293L24.5126 17.5886C25.6087 17.4504 26.6977 17.2988 27.7885 17.1273ZM22.632 57.7025L20.3617 58.0696L19.3785 39.9964C19.48 39.9898 19.5815 39.9831 19.6862 39.9662L22.2754 39.5476L22.632 57.7025ZM25.9894 51.2207L25.2421 51.3415L24.3233 45.6585L24.1975 39.2319L24.5878 39.1688L25.9886 51.2159L25.9894 51.2207ZM42.7385 48.5126L41.9912 48.6334L39.5243 36.7587L39.9955 36.6825L41.7304 42.2775L42.7385 48.5126ZM39.5353 34.8033L19.3736 38.0631C18.9072 38.1385 18.4601 37.8201 18.3839 37.3489L18.0368 35.2023C17.8714 34.179 18.327 33.2213 19.0362 33.1066L22.4251 32.5587L39.6501 29.7737L43.0104 29.2304C43.7196 29.1157 44.4538 29.881 44.6193 30.9043L44.9664 33.0509C45.0418 33.5174 44.7233 33.9645 44.2521 34.0406L39.5163 34.8064L39.5353 34.8033ZM47.3011 53.7139L41.9184 36.3716L44.579 35.9414C44.6599 35.9283 44.7353 35.9113 44.8107 35.8942L49.5715 53.3468L47.3011 53.7139Z" fill="#3F5753"/>
</g>
<defs>
<clipPath id="clip0_1367_613">
<rect width="54" height="54" fill="white" transform="translate(0 8.61914) rotate(-9.18434)"/>
</clipPath>
</defs>
</svg>
