<svg width="54" height="54" viewBox="0 0 54 54" fill="none" xmlns="http://www.w3.org/2000/svg">
<path d="M19.2998 3.14334C16.8891 3.88584 9.30016 6.87995 6.56641 15.7658C6.56641 15.7658 15.4378 22.4917 20.8137 29.4442C26.1896 36.3967 43.7252 50.6971 49.5446 49.5399C49.5446 49.5399 53.6718 46.6326 48.4984 40.2973C43.325 33.9619 40.7262 17.6992 36.7534 13.3599C36.7534 13.3599 34.7332 10.7998 31.4643 13.6685C28.2002 16.5324 23.1087 13.1382 21.5611 11.253C18.0896 7.01495 21.373 5.51549 20.8427 3.90031C20.6353 3.2687 19.9314 2.95049 19.2998 3.14816V3.14334Z" fill="#73E0CF"/>
<path d="M48.85 50.5621C41.5793 50.5621 24.8248 36.2038 20.0516 30.0324C14.8156 23.2583 6.0743 16.5999 5.98752 16.5324C5.66448 16.2865 5.52948 15.8671 5.65002 15.4813C8.53323 6.11331 16.6091 2.96491 19.0198 2.22241C20.1673 1.87045 21.3968 2.48277 21.7632 3.59652C22.0573 4.47884 21.7054 5.25509 21.3968 5.93973C20.8857 7.07277 20.3554 8.2492 22.3129 10.6406C23.2627 11.7978 25.7457 13.601 28.0648 13.789C29.169 13.8806 30.0754 13.601 30.8323 12.9405C32.1631 11.7688 33.5131 11.2433 34.8245 11.359C36.377 11.4988 37.2931 12.5017 37.4811 12.7283C39.5013 14.9558 41.1213 19.8351 42.8281 24.9988C44.6168 30.394 46.6418 36.5028 49.2406 39.6897C51.3765 42.3078 52.3118 44.7378 52.0129 46.9219C51.7043 49.1735 50.1663 50.2824 50.0988 50.3306C49.9879 50.4078 49.8625 50.4608 49.7323 50.4897C49.4575 50.5428 49.1586 50.5717 48.85 50.5717V50.5621ZM7.69913 15.4187C9.73377 17.0097 16.8936 22.7955 21.58 28.856C27.2356 36.1701 43.8695 49.1976 49.1345 48.6287C49.4045 48.3731 49.9782 47.7126 50.1132 46.6181C50.3157 45.0174 49.4961 43.0455 47.7556 40.9096C44.9302 37.4526 42.9341 31.4306 41.0056 25.6063C39.3566 20.6306 37.7993 15.9249 36.0443 14.0108C36.0298 13.9915 36.0154 13.9771 36.0009 13.9578C35.9865 13.9433 35.4802 13.3455 34.6268 13.278C33.8602 13.2201 33.0165 13.5913 32.1052 14.3917C30.9529 15.4042 29.5402 15.8478 27.9106 15.7128C24.8345 15.4572 21.932 13.2153 20.8231 11.8605C18.1038 8.54331 19.0295 6.4942 19.6418 5.1442C19.8202 4.74884 19.9889 4.37277 19.9359 4.20402C19.8973 4.08831 19.7334 4.02563 19.5888 4.06902C17.4673 4.72473 10.4666 7.44402 7.69913 15.4235V15.4187Z" fill="#3F5753"/>
<path d="M30.1235 14.4776C26.9462 15.6734 22.9154 12.8914 21.5703 11.2521C18.0988 7.01407 21.3822 5.5146 20.8519 3.89942C20.6445 3.27264 19.9406 2.9496 19.309 3.14246C17.8722 3.58603 14.5937 4.82996 11.5947 7.65049L11.7008 7.73728C11.7008 7.73728 17.9831 14.3041 13.7644 21.8882C16.1654 24.1253 18.7497 26.7675 20.8181 29.4434C22.8045 32.0132 26.4495 35.5859 30.5526 39.0091L33.7492 38.1364C33.7492 38.1364 36.5697 32.1048 31.9894 26.2709C27.7369 20.8516 28.8072 18.0792 30.1235 14.4728V14.4776Z" fill="#4F9D91"/>
<path d="M30.5527 39.9738C30.3309 39.9738 30.1091 39.8967 29.9355 39.752C25.7505 36.2613 22.0573 32.626 20.0564 30.0369C18.2966 27.7563 15.9582 25.254 13.1087 22.5974C12.7857 22.2937 12.7086 21.8115 12.9255 21.4258C16.6236 14.7722 11.5562 9.0058 11.0403 8.44651L10.9777 8.39348C10.7655 8.21508 10.6402 7.95955 10.6353 7.6799C10.6257 7.40508 10.7366 7.1399 10.9391 6.95187C14.0103 4.06383 17.3275 2.75241 19.0295 2.22687C20.1721 1.87491 21.4016 2.49205 21.7728 3.60098C22.067 4.4833 21.715 5.25955 21.4064 5.94419C20.8953 7.07723 20.365 8.25365 22.3225 10.6451C23.6146 12.2217 27.2162 14.5504 29.7909 13.5813C30.1428 13.4463 30.543 13.5331 30.8082 13.7983C31.0782 14.0635 31.165 14.4588 31.0348 14.8156L30.9962 14.9217C29.7186 18.4269 28.8748 20.7412 32.7561 25.6831C37.6402 31.9124 34.7521 38.2815 34.6268 38.5515C34.5062 38.807 34.2796 38.9999 34.0048 39.0722L30.8082 39.9449C30.7262 39.969 30.6395 39.9787 30.5527 39.9787V39.9738ZM14.9553 21.6862C17.6409 24.227 19.8684 26.6378 21.58 28.8556C23.4411 31.2663 26.8643 34.6413 30.7841 37.9488L33.0309 37.3365C33.5275 35.9769 34.7762 31.3917 31.2277 26.874C27.303 21.8694 27.6309 18.8319 28.653 15.7317C25.4757 15.8329 22.1296 13.4656 20.8182 11.8649C18.0989 8.54776 19.0246 6.49865 19.637 5.14866C19.8153 4.7533 19.9841 4.37723 19.9311 4.20848C19.8925 4.09276 19.7286 4.02526 19.5887 4.07348C18.4461 4.42544 15.64 5.45723 12.9448 7.73776C14.4057 9.61812 18.0603 15.2833 14.9505 21.691L14.9553 21.6862Z" fill="#3F5753"/>
<path d="M48.4984 40.2932C48.2718 40.0136 48.0501 39.7146 47.8283 39.4012C47.8283 39.4012 43.9711 40.8284 39.844 37.3666C35.7168 33.9048 22.0674 30.9541 22.0674 30.9541C28.5136 38.2682 44.1158 50.6159 49.5447 49.5359C49.5447 49.5359 53.6718 46.6286 48.4984 40.2932Z" fill="#DFFDF7"/>
<path d="M48.87 50.5625C42.2454 50.5625 27.3857 38.4415 21.3493 31.5902C21.0745 31.2768 21.0311 30.8236 21.2432 30.4668C21.4554 30.1052 21.87 29.922 22.2798 30.0136C22.8488 30.1341 36.209 33.0511 40.4711 36.6286C44.1257 39.695 47.467 38.509 47.5007 38.4993C47.9154 38.345 48.3783 38.4945 48.629 38.8561C48.8411 39.1599 49.0484 39.4395 49.2509 39.6902C51.3868 42.3082 52.3222 44.7431 52.0233 46.9224C51.7147 49.174 50.1766 50.2829 50.1091 50.3311C49.9983 50.4082 49.8729 50.4613 49.7427 50.4902C49.4727 50.5432 49.1834 50.5722 48.8749 50.5722L48.87 50.5625ZM24.9847 32.6413C32.2072 39.9072 44.6609 49.1161 49.1352 48.6243C49.4052 48.3688 49.979 47.7083 50.114 46.6138C50.3165 45.0131 49.4968 43.0411 47.7563 40.9052C47.6502 40.775 47.5441 40.64 47.4381 40.5002C46.0061 40.7895 42.6938 41.0113 39.232 38.104C36.5127 35.8234 29.2034 33.7165 24.9895 32.6413H24.9847Z" fill="#3F5753"/>
<path d="M20.8134 29.444C19.5261 27.7806 18.0797 24.3188 16.5609 22.7663C11.7395 17.8436 6.93252 14.6904 6.93252 14.6904C4.57484 14.6904 3.90948 16.8553 3.22966 17.9063C2.62698 18.8417 2.84395 20.0904 3.71663 20.7847C7.39056 23.7113 17.3323 30.9531 20.7122 35.1044C22.5154 37.3174 25.9916 40.8226 29.8536 43.6238C33.7204 46.4203 37.9729 48.5128 41.3286 49.8194C48.0449 52.4374 49.5443 49.5349 49.5443 49.5349C43.7249 50.692 26.1893 36.3965 20.8134 29.4392V29.444Z" fill="#DFFDF7"/>
<path d="M46.1937 51.8786C44.7087 51.8786 42.9682 51.4929 40.9818 50.7166C38.5807 49.7813 33.8653 47.7129 29.2898 44.4054C25.2446 41.4739 21.7394 37.8916 19.9652 35.7172C17.3423 32.4964 10.5441 27.27 6.04569 23.8131C4.88372 22.9211 3.87122 22.14 3.11908 21.5422C1.84622 20.5297 1.54729 18.7457 2.42479 17.3861C2.53087 17.2173 2.63694 17.0197 2.75747 16.8075C3.37944 15.6552 4.42087 13.7314 6.93765 13.7314C7.12569 13.7314 7.3089 13.7845 7.46801 13.8906C7.66569 14.0207 12.4148 17.1547 17.2555 22.0966C18.215 23.0802 19.0925 24.6472 19.9362 26.1611C20.5244 27.2122 21.0741 28.2054 21.5803 28.8563C27.1153 36.0161 43.1659 48.6434 48.7828 48.6482C48.9902 48.6482 49.183 48.6289 49.3614 48.5952C49.723 48.5229 50.0991 48.6675 50.3209 48.9616C50.5427 49.2557 50.5764 49.6559 50.4077 49.9838C50.3498 50.0947 49.805 51.0734 48.2621 51.5797C47.645 51.7822 46.9555 51.8834 46.1986 51.8834L46.1937 51.8786ZM6.66283 15.6697C5.58283 15.7806 5.07658 16.5664 4.44979 17.7236C4.30997 17.9839 4.17497 18.225 4.04479 18.4323C3.70729 18.9531 3.82783 19.6377 4.31962 20.0331C5.06212 20.6261 6.06497 21.3975 7.21729 22.2847C11.788 25.7995 18.6971 31.1079 21.4598 34.5022C23.1569 36.5898 26.5271 40.0275 30.418 42.848C34.82 46.035 39.3618 48.0214 41.6761 48.9279C43.3925 49.598 44.7136 49.8777 45.7212 49.9452C37.5778 47.115 24.2273 35.4472 20.0471 30.0423C19.4541 29.2757 18.8659 28.2247 18.2439 27.1061C17.4628 25.7031 16.648 24.247 15.8669 23.4514C11.7928 19.2954 7.69944 16.3929 6.65319 15.6793L6.66283 15.6697Z" fill="#3F5753"/>
<path d="M34.405 19.666C33.971 19.666 33.5805 19.3719 33.4696 18.9331C33.3394 18.4172 33.6576 17.8917 34.1735 17.7664L38.021 16.8069C38.5369 16.6815 39.0625 16.9949 39.1878 17.5108C39.3132 18.0267 38.9998 18.5522 38.4839 18.6776L34.6364 19.6371C34.5592 19.6564 34.4821 19.666 34.405 19.666Z" fill="#3F5753"/>
<path d="M35.987 23.731C35.5531 23.731 35.1625 23.4369 35.0516 22.9982C34.9214 22.4823 35.2397 21.9568 35.7556 21.8314L39.6031 20.8719C40.1189 20.7418 40.6445 21.06 40.7698 21.5759C40.8952 22.0918 40.5818 22.6173 40.0659 22.7427L36.2184 23.7021C36.1413 23.7214 36.0641 23.731 35.987 23.731Z" fill="#3F5753"/>
<path d="M37.404 27.9355C36.97 27.9355 36.5795 27.6414 36.4686 27.2027C36.3384 26.6868 36.6567 26.1612 37.1725 26.0359L41.02 25.0764C41.5359 24.9511 42.0615 25.2645 42.1868 25.7804C42.317 26.2962 41.9988 26.8218 41.4829 26.9471L37.6354 27.9066C37.5583 27.9259 37.4811 27.9355 37.404 27.9355Z" fill="#3F5753"/>
<path d="M21.4886 22.2546C23.1262 22.2546 24.4538 20.927 24.4538 19.2894C24.4538 17.6518 23.1262 16.3242 21.4886 16.3242C19.851 16.3242 18.5234 17.6518 18.5234 19.2894C18.5234 20.927 19.851 22.2546 21.4886 22.2546Z" fill="#DFFDF7"/>
<path d="M21.489 23.2193C19.3242 23.2193 17.5596 21.4595 17.5596 19.2898C17.5596 17.1202 19.3194 15.3604 21.489 15.3604C23.6587 15.3604 25.4185 17.1202 25.4185 19.2898C25.4185 21.4595 23.6587 23.2193 21.489 23.2193ZM21.489 17.2937C20.3849 17.2937 19.4881 18.1905 19.4881 19.2946C19.4881 20.3987 20.3849 21.2955 21.489 21.2955C22.5931 21.2955 23.4899 20.3987 23.4899 19.2946C23.4899 18.1905 22.5931 17.2937 21.489 17.2937Z" fill="#3F5753"/>
</svg>
