<svg width="65" height="65" viewBox="0 0 65 65" fill="none" xmlns="http://www.w3.org/2000/svg">
<g clip-path="url(#clip0_1367_322)">
<path d="M12.1413 15.7345L14.4826 20.7183L22.053 55.7029C22.053 55.7029 28.6977 56.0902 38.2369 53.6906C47.776 51.2909 52.5405 47.3889 52.5405 47.3889L49.9407 44.4934L49.0977 36.4032L43.7819 11.8377L42.7632 9.11309C42.7632 9.11309 34.4324 8.54797 26.3355 9.81663C18.2387 11.0853 12.147 15.7382 12.147 15.7382L12.1413 15.7345Z" fill="#73E0CF"/>
<path d="M18.4465 19.8652L19.6681 25.5106C19.9077 26.618 20.8297 27.4594 21.9604 27.5551C23.8108 27.717 26.9729 27.2844 31.9338 26.2503C42.3099 24.0938 43.7797 21.699 43.7797 21.699L41.9401 13.1979L31.7207 16.899L18.4465 19.8652Z" fill="#4F9D91"/>
<path d="M21.092 32.0898L22.3136 37.7352C22.5532 38.8426 23.4753 39.684 24.6059 39.7797C26.4563 39.9416 29.6185 39.509 34.5793 38.4749C44.9554 36.3184 46.4252 33.9236 46.4252 33.9236L44.5856 25.4225L34.3662 29.1237L21.092 32.0898Z" fill="#4F9D91"/>
<path d="M23.7375 44.3183L24.9591 49.9637C25.1987 51.0711 26.1208 51.9125 27.2514 52.0082C29.1018 52.1702 32.264 51.7375 37.2248 50.7034C47.6009 48.5469 49.0707 46.1521 49.0707 46.1521L47.2311 37.651L37.0117 41.3522L23.7375 44.3183Z" fill="#4F9D91"/>
<path fill-rule="evenodd" clip-rule="evenodd" d="M13.2805 15.9295C12.5955 16.558 12.6205 16.8567 12.6241 16.8732C12.6277 16.8896 12.7284 17.172 13.6119 17.4611C14.4212 17.7258 15.6123 17.8981 17.134 17.9429C20.162 18.032 24.2795 17.6118 28.7547 16.6434C33.2299 15.675 37.1527 14.3554 39.873 13.0223C41.24 12.3524 42.2533 11.7032 42.8808 11.1275C43.5658 10.499 43.5407 10.2003 43.5372 10.1838C43.5336 10.1674 43.4329 9.88497 42.5494 9.59593C41.7401 9.33117 40.549 9.15894 39.0273 9.11413C35.9993 9.02497 31.8818 9.44523 27.4066 10.4136C22.9314 11.382 19.0086 12.7016 16.2883 14.0347C14.9212 14.7046 13.9079 15.3538 13.2805 15.9295ZM15.4396 12.3029C18.3369 10.8831 22.417 9.52013 26.9987 8.52868C31.5804 7.53723 35.859 7.09144 39.084 7.1864C40.6889 7.23365 42.0886 7.41602 43.149 7.76295C44.1352 8.08559 45.1832 8.67197 45.4221 9.77593C45.661 10.8799 44.9492 11.8471 44.1846 12.5486C43.3624 13.3029 42.1634 14.0476 40.7216 14.7541C37.8244 16.1739 33.7443 17.5369 29.1626 18.5283C24.5808 19.5198 20.3022 19.9656 17.0772 19.8706C15.4724 19.8233 14.0727 19.641 13.0123 19.294C12.026 18.9714 10.978 18.385 10.7391 17.2811C10.5003 16.1771 11.2121 15.2099 11.9767 14.5084C12.7988 13.7541 13.9979 13.0094 15.4396 12.3029Z" fill="#3F5753"/>
<path fill-rule="evenodd" clip-rule="evenodd" d="M13.952 18.2677C14.4725 18.1551 14.9858 18.4857 15.0984 19.0062L16.8799 27.2387C16.9592 27.6053 16.8188 27.9845 16.52 28.2111C16.0136 28.595 15.6921 28.9268 15.5171 29.1909C15.3454 29.4501 15.3688 29.5566 15.3702 29.5631L15.3702 29.5633C15.374 29.5806 15.4752 29.8631 16.3583 30.1522C17.1675 30.417 18.3585 30.5892 19.8801 30.6338C22.9081 30.7227 27.0254 30.3019 31.5008 29.3335C35.976 28.3651 39.8987 27.0449 42.6189 25.7115C43.9859 25.0415 44.9993 24.3921 45.6268 23.8165C46.3121 23.1879 46.2867 22.8895 46.2833 22.8739C46.2829 22.8721 46.2627 22.7647 45.9953 22.5969C45.7263 22.4281 45.296 22.258 44.6774 22.118C44.3116 22.0353 44.027 21.748 43.9477 21.3815L42.1662 13.149C42.0536 12.6284 42.3843 12.1152 42.9048 12.0025C43.4253 11.8899 43.9386 12.2206 44.0512 12.7411L45.7074 20.3947C46.1986 20.5419 46.645 20.7278 47.0205 20.9634C47.5465 21.2935 48.0198 21.7798 48.1683 22.466C48.4071 23.5697 47.6948 24.5366 46.9305 25.2377C46.1084 25.9918 44.9094 26.7366 43.4678 27.4432C40.5706 28.8633 36.4906 30.2269 31.9087 31.2184C27.327 32.2099 23.0485 32.6562 19.8236 32.5616C18.2188 32.5145 16.819 32.3322 15.7585 31.9851C14.7718 31.6622 13.7242 31.0754 13.4853 29.9712C13.3365 29.2834 13.5655 28.6449 13.9093 28.1259C14.1539 27.7566 14.4837 27.4037 14.8696 27.0675L13.2135 19.4141C13.1009 18.8936 13.4315 18.3803 13.952 18.2677Z" fill="#3F5753"/>
<path fill-rule="evenodd" clip-rule="evenodd" d="M16.5653 30.3458C17.0858 30.2332 17.5991 30.5638 17.7117 31.0844L19.4932 39.3169C19.5725 39.6834 19.4321 40.0627 19.1333 40.2892C18.6268 40.6731 18.3054 41.0049 18.1304 41.2691C17.9587 41.5283 17.9821 41.6348 17.9835 41.6413L17.9835 41.6414C17.9873 41.6587 18.0885 41.9413 18.9716 42.2303C19.7808 42.4951 20.9718 42.6673 22.4934 42.712C25.5213 42.8008 29.6387 42.38 34.1141 41.4116C38.5893 40.4432 42.512 39.123 45.2322 37.7896C46.5992 37.1196 47.6126 36.4702 48.2401 35.8946C48.9254 35.266 48.9 34.9676 48.8966 34.952C48.8962 34.9503 48.876 34.8429 48.6086 34.675C48.3396 34.5062 47.9092 34.3361 47.2907 34.1962C46.9249 34.1134 46.6403 33.8261 46.561 33.4596L44.7795 25.2271C44.6669 24.7066 44.9975 24.1933 45.5181 24.0807C46.0386 23.968 46.5518 24.2987 46.6645 24.8192L48.3207 32.4728C48.8119 32.62 49.2583 32.8059 49.6338 33.0415C50.1598 33.3716 50.6331 33.8579 50.7816 34.5442C51.0204 35.6478 50.308 36.6148 49.5438 37.3158C48.7217 38.0699 47.5227 38.8147 46.081 39.5214C43.1839 40.9414 39.1039 42.305 34.522 43.2965C29.9402 44.288 25.6618 44.7344 22.4368 44.6397C20.8321 44.5926 19.4323 44.4103 18.3718 44.0632C17.3851 43.7403 16.3375 43.1535 16.0986 42.0493C15.9497 41.3615 16.1788 40.723 16.5226 40.204C16.7672 39.8348 17.097 39.4819 17.4829 39.1456L15.8268 31.4922C15.7141 30.9717 16.0448 30.4585 16.5653 30.3458Z" fill="#3F5753"/>
<path fill-rule="evenodd" clip-rule="evenodd" d="M19.243 42.7208C19.7636 42.6082 20.2768 42.9388 20.3895 43.4594L22.1709 51.6919C22.2502 52.0584 22.1098 52.4377 21.811 52.6642C21.3046 53.0481 20.9831 53.3799 20.8081 53.6441C20.6364 53.9033 20.6598 54.0098 20.6612 54.0163L20.6613 54.0164C20.665 54.0337 20.7662 54.3163 21.6493 54.6053C22.4586 54.8701 23.6495 55.0423 25.1712 55.087C28.1991 55.1758 32.3164 54.755 36.7918 53.7866C41.267 52.8182 45.1898 51.498 47.91 50.1646C49.2769 49.4946 50.2903 48.8452 50.9178 48.2696C51.6031 47.641 51.5777 47.3426 51.5743 47.327C51.574 47.3253 51.5537 47.2179 51.2863 47.05C51.0173 46.8812 50.587 46.7111 49.9684 46.5712C49.6027 46.4884 49.318 46.2011 49.2387 45.8346L47.4573 37.6021C47.3446 37.0816 47.6753 36.5683 48.1958 36.4557C48.7163 36.343 49.2296 36.6737 49.3422 37.1942L50.9984 44.8478C51.4896 44.995 51.9361 45.1809 52.3115 45.4165C52.8375 45.7466 53.3108 46.2329 53.4593 46.9192C53.6981 48.0228 52.9858 48.9898 52.2215 49.6908C51.3994 50.4449 50.2004 51.1897 48.7588 51.8964C45.8617 53.3164 41.7817 54.68 37.1997 55.6715C32.618 56.663 28.3395 57.1094 25.1146 57.0147C23.5098 56.9676 22.1101 56.7853 21.0495 56.4382C20.0629 56.1153 19.0153 55.5285 18.7763 54.4243C18.6275 53.7365 18.8565 53.098 19.2003 52.579C19.4449 52.2098 19.7747 51.8569 20.1606 51.5206L18.5045 43.8672C18.3919 43.3467 18.7225 42.8335 19.243 42.7208Z" fill="#3F5753"/>
<path fill-rule="evenodd" clip-rule="evenodd" d="M19.6268 15.4718C19.5142 14.9513 19.8448 14.438 20.3653 14.3254L20.9167 14.206C21.4372 14.0934 21.9505 14.4241 22.0631 14.9446C22.1757 15.4651 21.8451 15.9784 21.3246 16.091L20.7732 16.2103C20.2527 16.3229 19.7394 15.9923 19.6268 15.4718Z" fill="#3F5753"/>
</g>
<defs>
<clipPath id="clip0_1367_322">
<rect width="54" height="54" fill="white" transform="translate(0 11.4209) rotate(-12.2101)"/>
</clipPath>
</defs>
</svg>
