<svg width="67" height="67" viewBox="0 0 67 67" fill="none" xmlns="http://www.w3.org/2000/svg">
<g clip-path="url(#clip0_1367_436)">
<path d="M31.2262 9.65304C31.2262 9.65304 34.2595 8.42928 39.3079 9.78198C44.3562 11.1347 46.3712 13.7111 46.3712 13.7111L44.462 20.8366L29.317 16.7785L31.2262 9.65304Z" fill="#DFFDF7"/>
<path d="M44.2126 21.7683L29.0676 17.7102C28.5553 17.573 28.2485 17.0415 28.3857 16.5292L30.295 9.40381C30.3736 9.11041 30.5823 8.87182 30.8672 8.7585C31.0015 8.70462 34.2625 7.43205 39.5577 8.85089C44.8528 10.2697 47.0407 13.0023 47.13 13.1161C47.3154 13.3554 47.3815 13.6677 47.3029 13.9611L45.3936 21.0865C45.2564 21.5988 44.7249 21.9056 44.2126 21.7683ZM30.4982 16.097L43.7803 19.6559L45.3015 13.9788C44.5927 13.2898 42.6398 11.6734 39.0585 10.7137C35.4772 9.75413 32.9709 10.1657 32.0206 10.4152L30.4982 16.097Z" fill="#3F5753"/>
<path d="M54.5892 23.8749L50.5172 21.3562C42.5109 16.4007 33.2199 13.9112 23.8085 14.1996L19.0227 14.3448C16.7374 14.4163 14.7686 15.9703 14.1771 18.1778L6.38288 47.2663C5.88498 49.1245 6.98617 51.0318 8.84437 51.5297L44.8022 61.1645C46.6603 61.6624 48.5677 60.5613 49.0656 58.7031L56.8598 29.6146C57.4513 27.4071 56.5246 25.0723 54.5799 23.8724L54.5892 23.8749Z" fill="#BAFAEE"/>
<path d="M44.5557 62.1022L8.60259 52.4686C6.23676 51.8347 4.82533 49.39 5.45925 47.0242L13.2535 17.9357C13.9598 15.2998 16.2677 13.4673 18.9999 13.3858L23.7858 13.2406C33.4137 12.9453 42.8397 15.471 51.03 20.5407L55.1021 23.0594C57.4229 24.4948 58.5113 27.2323 57.8037 29.8729L50.0095 58.9614C49.3755 61.3272 46.9309 62.7387 44.565 62.1047L44.5557 62.1022ZM37.4432 16.7404C33.0422 15.5611 28.4643 15.0233 23.8387 15.1665L19.0529 15.3118C17.1807 15.3691 15.5971 16.622 15.1117 18.4336L7.31745 47.5221C6.95806 48.8634 7.75583 50.2451 9.09708 50.6045L45.0549 60.2394C46.3961 60.5988 47.7779 59.801 48.1373 58.4598L55.9315 29.3712C56.417 27.5596 55.672 25.6828 54.0793 24.697L50.0072 22.1784C46.0717 19.7462 41.8395 17.9184 37.4385 16.7391L37.4432 16.7404Z" fill="#3F5753"/>
<path d="M37.7724 28.1793L31.4434 26.4834L23.6666 55.5067L29.9956 57.2026L37.7724 28.1793Z" fill="#DFFDF7"/>
<path d="M29.7414 58.1324L23.4123 56.4365C22.9001 56.2993 22.5932 55.7678 22.7305 55.2555L30.5073 26.2322C30.6445 25.7199 31.176 25.4131 31.6883 25.5504L38.0173 27.2462C38.5296 27.3835 38.8364 27.9149 38.6992 28.4272L30.9224 57.4505C30.7851 57.9628 30.2537 58.2697 29.7414 58.1324ZM24.8429 54.8232L29.3091 56.02L36.5867 28.8595L32.1205 27.6628L24.8429 54.8232Z" fill="#3F5753"/>
<path d="M38.998 42.124L49.0714 44.8232L46.1052 55.8932C45.8856 56.7129 45.0399 57.205 44.2156 56.9842L37.1228 55.0837C36.3032 54.864 35.811 54.0184 36.0318 53.1941L38.998 42.124Z" fill="#DFFDF7"/>
<path d="M43.9663 57.9159L36.8734 56.0154C35.5368 55.6573 34.7425 54.2814 35.1006 52.9448L38.0668 41.8748C38.2041 41.3625 38.7355 41.0557 39.2478 41.1929L49.3212 43.8921C49.8335 44.0294 50.1404 44.5608 50.0031 45.0731L47.0369 56.1431C46.6787 57.4797 45.3029 58.2741 43.9663 57.9159ZM39.6801 43.3054L36.9635 53.444C36.8811 53.7513 37.0652 54.0702 37.3726 54.1526L44.4654 56.0531C44.7728 56.1354 45.0917 55.9513 45.174 55.644L47.8907 45.5054L39.6801 43.3054Z" fill="#3F5753"/>
<path d="M46.6313 19.2019C41.1778 16.4928 35.2667 14.839 29.2018 14.337C29.0033 19.2504 30.1196 24.3613 34.6005 27.329C34.6005 27.329 41.1165 25.6258 46.6267 19.2007L46.6313 19.2019Z" fill="#21AB8E"/>
<path d="M34.356 28.2619C34.2582 28.2357 34.1594 28.1943 34.075 28.1367C29.9411 25.4018 27.9832 20.7492 28.2425 14.3047C28.2528 14.0429 28.3692 13.7946 28.5651 13.6225C28.761 13.4504 29.0198 13.36 29.2825 13.3854C35.49 13.8957 41.4675 15.5623 47.0614 18.3439C47.3258 18.4747 47.5181 18.7259 47.5752 19.0157C47.637 19.3068 47.5558 19.6095 47.3602 19.8366C41.7188 26.4162 35.1219 28.1976 34.8436 28.2677C34.6826 28.3095 34.5084 28.3077 34.3501 28.2653L34.356 28.2619ZM30.1469 15.394C30.1459 20.3903 31.6972 24.0454 34.7695 26.2713C36.1503 25.8127 40.8036 24.0197 45.0558 19.5137C40.3281 17.3184 35.3223 15.9372 30.1469 15.394Z" fill="#3F5753"/>
<path d="M34.6057 27.3305L26.317 30.7499C26.317 30.7499 21.567 24.5955 25.4263 14.179L31.2308 9.65467C31.2308 9.65467 28.4977 18.9603 34.6104 27.3317L34.6057 27.3305Z" fill="#DFFDF7"/>
<path d="M26.0661 31.6865C25.8659 31.6328 25.6878 31.5152 25.5538 31.3445C25.3466 31.0744 20.5218 24.6403 24.5219 13.8473C24.582 13.6787 24.6909 13.5332 24.8308 13.421L30.6353 8.8966C30.9636 8.64015 31.427 8.62455 31.768 8.86069C32.1137 9.09807 32.2678 9.52871 32.15 9.93139C32.1263 10.0199 29.6366 18.9015 35.38 26.7697C35.5549 27.0112 35.6082 27.315 35.5321 27.5991C35.456 27.8832 35.2439 28.1159 34.9695 28.2271L26.6808 31.6465C26.4795 31.7273 26.2617 31.7389 26.0661 31.6865ZM26.2361 14.7708C23.42 22.6167 25.712 27.8479 26.6926 29.5532L33.1359 26.8922C29.4277 21.1716 29.4136 15.2629 29.8092 11.9796L26.2373 14.7662L26.2361 14.7708Z" fill="#3F5753"/>
<path d="M34.6057 27.3309L40.0742 34.4366C40.0742 34.4366 47.2651 31.4817 49.1311 20.5311L46.3665 13.7107C46.3665 13.7107 44.0805 23.1361 34.6011 27.3296L34.6057 27.3309Z" fill="#DFFDF7"/>
<path d="M39.8234 35.3728C39.6232 35.3192 39.4404 35.2003 39.3111 35.0309L33.8426 27.9252C33.6606 27.6917 33.5979 27.3854 33.6693 27.1001C33.7455 26.816 33.9448 26.5749 34.2158 26.4579C43.1567 22.5044 45.4132 13.5802 45.4322 13.4905C45.5315 13.0828 45.8803 12.7869 46.2984 12.7542C46.7152 12.7261 47.1041 12.9701 47.2614 13.3517L50.026 20.1721C50.0911 20.3393 50.1126 20.5198 50.0804 20.6958C48.1481 32.0429 40.7526 35.2025 40.4381 35.3329C40.2368 35.4137 40.019 35.4252 39.8234 35.3728ZM36.0967 27.6906L40.3509 33.2181C42.0608 32.2387 46.643 28.9042 48.1341 20.6385L46.434 16.4394C45.1337 19.4852 42.1731 24.5918 36.0967 27.6906Z" fill="#3F5753"/>
<path d="M32.8051 34.0507C32.2928 33.9134 31.9859 33.382 32.1232 32.8697C32.2605 32.3574 32.7932 32.0459 33.3055 32.1832C33.8177 32.3204 34.1271 32.8426 33.9886 33.3595L33.9861 33.3688C33.8488 33.8811 33.3173 34.188 32.8051 34.0507Z" fill="#3F5753"/>
<path d="M30.266 43.5282C29.7537 43.391 29.4469 42.8595 29.5841 42.3472C29.7214 41.8349 30.2541 41.5234 30.7664 41.6607C31.2787 41.798 31.588 42.3201 31.4495 42.8371L31.447 42.8464C31.3097 43.3587 30.7783 43.6655 30.266 43.5282Z" fill="#3F5753"/>
<path d="M27.7279 53.0009C27.2156 52.8636 26.9088 52.3322 27.0461 51.8199C27.1833 51.3076 27.716 50.9961 28.2283 51.1334C28.7406 51.2706 29.0499 51.7928 28.9114 52.3097L28.9089 52.319C28.7716 52.8313 28.2402 53.1381 27.7279 53.0009Z" fill="#3F5753"/>
<path d="M39.1826 18.3745L35.4802 17.3824C35.0764 17.2742 34.6613 17.5139 34.5531 17.9177L34.3085 18.8305C34.2003 19.2343 34.44 19.6494 34.8438 19.7576L38.5462 20.7496C38.95 20.8578 39.3651 20.6182 39.4733 20.2144L39.7179 19.3016C39.8261 18.8978 39.5864 18.4827 39.1826 18.3745Z" fill="#8BF8E7"/>
</g>
<defs>
<clipPath id="clip0_1367_436">
<rect width="54" height="54" fill="white" transform="translate(13.9766) rotate(15)"/>
</clipPath>
</defs>
</svg>
