<svg width="59" height="59" viewBox="0 0 59 59" fill="none" xmlns="http://www.w3.org/2000/svg">
<path d="M20.293 29.2942L21.4414 32.2021L21.8575 33.2557L24.0911 35.8896L22.9111 40.4779L26.8356 42.8484L27.2887 48.6009C27.8681 50.0707 30.481 50.4131 33.1255 49.3701C35.7699 48.327 36.8288 46.2199 36.8657 44.8239L37.3819 40.0881L33.9999 37.5701L35.1378 32.8659L31.503 29.6577L30.9709 28.3144L29.8699 25.5225L20.293 29.2995V29.2942Z" fill="#DFFDF7"/>
<path d="M30.1593 51.0244C29.859 51.0244 29.5693 51.0086 29.2901 50.9717C27.7888 50.7715 26.7299 50.0709 26.3032 48.9857C26.2663 48.8909 26.24 48.7855 26.2347 48.6802L25.8238 43.465L22.3629 41.3737C21.9625 41.1313 21.7729 40.6572 21.8888 40.2095L22.9318 36.1532L21.0512 33.9355C20.9774 33.8459 20.9195 33.7458 20.8721 33.6405L19.3128 29.679C19.1021 29.1364 19.3655 28.5254 19.908 28.3147L29.485 24.5376C30.0276 24.3216 30.6387 24.5903 30.8494 25.1329L32.3876 29.0311L35.8328 32.0759C36.1278 32.334 36.2489 32.7344 36.1594 33.1137L35.1848 37.1383L38.0084 39.2402C38.3087 39.4614 38.4667 39.8302 38.4298 40.1989L37.9136 44.8979C37.8398 46.7838 36.4544 49.1859 33.5097 50.3501C32.3823 50.7926 31.2234 51.0244 30.1593 51.0244ZM28.3208 48.3167C28.5052 48.5906 28.9582 48.8013 29.5693 48.8804C30.4859 49.0015 31.6396 48.8224 32.7353 48.3905C35.1111 47.4528 35.7854 45.6301 35.8117 44.7925C35.8117 44.7662 35.8117 44.7346 35.817 44.7082L36.27 40.5677L33.3674 38.4131C33.0303 38.1603 32.8722 37.7336 32.9723 37.3227L33.9574 33.2348L30.7967 30.4429C30.6703 30.3322 30.5755 30.1953 30.5122 30.0372L29.269 26.8818L21.6517 29.8845L22.7632 32.7028L24.8862 35.1997C25.1074 35.4631 25.1864 35.8108 25.1022 36.1427L24.1171 39.9724L27.3726 41.9373C27.6623 42.1112 27.852 42.4167 27.8783 42.7538L28.3208 48.3114V48.3167Z" fill="#37635F"/>
<path d="M13.249 11.447L20.2447 29.1839C20.8242 30.6536 23.4371 30.996 26.0815 29.953C28.726 28.9099 30.4012 26.8765 29.8217 25.4068L22.826 7.66992L13.249 11.447Z" fill="#5BB5A7"/>
<path d="M23.1213 31.6128C22.821 31.6128 22.5313 31.597 22.2521 31.5601C20.7507 31.3599 19.6919 30.6593 19.2652 29.5741L12.2695 11.8372C12.1694 11.5791 12.1694 11.2894 12.2853 11.0312C12.4012 10.7731 12.6066 10.5729 12.8648 10.4729L22.4417 6.6958C22.9843 6.47982 23.5954 6.74848 23.8061 7.29107L30.8018 25.0279C31.2285 26.1079 30.9335 27.3511 29.9748 28.5153C29.1582 29.5109 27.9098 30.3696 26.4664 30.9385C25.339 31.381 24.1801 31.6128 23.116 31.6128H23.1213ZM14.619 12.0427L21.2248 28.7997C21.3565 29.1263 21.8412 29.3792 22.526 29.4687C23.4426 29.5899 24.5963 29.4108 25.6973 28.9788C26.7982 28.5469 27.7623 27.8884 28.347 27.1772C28.7842 26.6452 28.9739 26.1289 28.8422 25.8023L22.2363 9.04527L14.619 12.0479V12.0427Z" fill="#37635F"/>
<path d="M19.0838 12.2154C21.7281 11.1727 23.4028 9.13822 22.8244 7.67127C22.2459 6.20433 19.6334 5.86039 16.9891 6.90307C14.3448 7.94575 12.6701 9.98021 13.2485 11.4472C13.827 12.9141 16.4395 13.258 19.0838 12.2154Z" fill="#BAFAEE"/>
<path d="M16.1148 13.8807C14.2605 13.8807 12.796 13.1643 12.2745 11.8315C11.458 9.75596 13.3176 7.21686 16.61 5.92096C19.8971 4.62507 22.9946 5.2098 23.8111 7.28534C24.6277 9.36088 22.7681 11.9 19.4757 13.1959C18.301 13.6594 17.1473 13.8807 16.1148 13.8807ZM19.9498 7.34855C19.2228 7.34855 18.3378 7.50132 17.3791 7.88061C15.056 8.79721 13.9602 10.3776 14.2342 11.0624C14.5028 11.7472 16.3782 12.1528 18.7013 11.2362C21.0244 10.3196 22.1202 8.73927 21.8462 8.05445C21.6882 7.65409 20.977 7.34855 19.9498 7.34855Z" fill="#37635F"/>
<path d="M29.1319 40.2469C28.6894 40.2469 28.2785 39.9677 28.131 39.5252C27.9467 38.972 28.2417 38.3768 28.7948 38.1924L33.657 36.5646C34.2102 36.3803 34.8054 36.6753 34.9898 37.2284C35.1742 37.7815 34.8792 38.3768 34.326 38.5612L29.4638 40.1889C29.3532 40.2258 29.2426 40.2416 29.1319 40.2416V40.2469Z" fill="#37635F"/>
<path d="M24.0855 36.9438C23.6219 36.9438 23.2005 36.6383 23.0688 36.1694C22.916 35.611 23.2426 35.0263 23.8063 34.8735L27.6782 33.8042C28.2418 33.6514 28.8213 33.978 28.9741 34.5417C29.1268 35.1001 28.8002 35.6848 28.2366 35.8376L24.3647 36.9069C24.2699 36.9333 24.1751 36.9438 24.0855 36.9438Z" fill="#37635F"/>
<path d="M21.3567 21.4663C21.9415 21.4663 22.4155 20.9923 22.4155 20.4075C22.4155 19.8227 21.9415 19.3486 21.3567 19.3486C20.7719 19.3486 20.2979 19.8227 20.2979 20.4075C20.2979 20.9923 20.7719 21.4663 21.3567 21.4663Z" fill="#009081"/>
<path d="M22.4153 16.5356C23.0001 16.5356 23.4741 16.0616 23.4741 15.4768C23.4741 14.892 23.0001 14.418 22.4153 14.418C21.8305 14.418 21.3564 14.892 21.3564 15.4768C21.3564 16.0616 21.8305 16.5356 22.4153 16.5356Z" fill="#009081"/>
<path d="M23.8743 25.9702C24.459 25.9702 24.9331 25.4962 24.9331 24.9114C24.9331 24.3266 24.459 23.8525 23.8743 23.8525C23.2895 23.8525 22.8154 24.3266 22.8154 24.9114C22.8154 25.4962 23.2895 25.9702 23.8743 25.9702Z" fill="#009081"/>
<path d="M32.7242 44.1289C32.7242 44.1289 31.5126 45.1561 27.9463 44.7769L32.7242 44.1289Z" fill="#30433F"/>
<path d="M29.4581 45.9146C28.9682 45.9146 28.4309 45.8882 27.8356 45.825C27.2562 45.7618 26.84 45.2456 26.898 44.6661C26.9612 44.0866 27.4774 43.6652 28.0569 43.7284C31.0016 44.0445 32.0657 43.307 32.071 43.2965C32.5135 42.9224 33.1614 42.9856 33.5407 43.4281C33.92 43.8706 33.8463 44.5502 33.4038 44.9242C33.1825 45.1086 32.0868 45.9093 29.4529 45.9093L29.4581 45.9146Z" fill="#37635F"/>
<path d="M43.4393 54.3955C43.4393 54.3955 43.8766 49.6597 39.9046 49.1276C39.9046 49.1276 39.6096 44.5815 36.8598 44.8238C36.8598 44.8238 37.2391 48.0793 33.1196 49.37C29.0001 50.6606 27.0247 46.8572 27.0247 46.8572C27.0247 46.8572 24.5699 47.5157 24.0852 49.9705C24.0852 49.9705 18.791 49.8757 18.791 54.3955H43.4446H43.4393Z" fill="#53918C"/>
<path d="M43.4396 55.4492H18.786C18.2065 55.4492 17.7324 54.9751 17.7324 54.3956C17.7324 52.8943 18.2223 51.651 19.1863 50.7028C20.4559 49.4543 22.247 49.0751 23.2795 48.9644C24.1855 46.5518 26.6404 45.8722 26.7563 45.8406C27.2304 45.7142 27.7361 45.9354 27.9626 46.3726C28.1259 46.6782 29.6589 49.349 32.809 48.3639C35.9434 47.3788 35.838 45.1768 35.817 44.9293C35.7906 44.6501 35.8802 44.3656 36.0593 44.1496C36.2384 43.9336 36.4965 43.7914 36.7757 43.7703C37.6397 43.6966 38.4456 43.9494 39.0989 44.5131C40.2472 45.4982 40.695 47.226 40.8636 48.248C44.0822 49.1646 44.6617 52.6467 44.4931 54.4851C44.4457 55.0277 43.9874 55.4439 43.4448 55.4439L43.4396 55.4492ZM19.9818 53.342H42.4018C42.2122 50.5869 40.0365 50.2129 39.7626 50.176C39.2674 50.1076 38.8829 49.7019 38.8513 49.2015C38.8144 48.6378 38.5352 46.91 37.7872 46.183C37.4237 47.6633 36.2647 49.4912 33.4306 50.3762C30.1382 51.4087 27.7782 49.6914 26.6193 48.1743C26.0609 48.4956 25.3234 49.1067 25.1127 50.176C25.0126 50.6712 24.5806 51.0242 24.0802 51.0242C24.0749 51.0242 24.0697 51.0242 24.0591 51.0242C24.0433 51.0242 21.8624 51.0136 20.6508 52.2147C20.3295 52.5308 20.1082 52.9048 19.9765 53.342H19.9818Z" fill="#37635F"/>
<path d="M17.2049 46.1148C16.9257 46.1148 16.6571 45.9989 16.4622 45.804C16.262 45.6091 16.1514 45.3352 16.1514 45.0613C16.1514 44.9928 16.1566 44.919 16.1724 44.8558C16.1882 44.7873 16.204 44.7189 16.2304 44.6556C16.2567 44.5924 16.2936 44.5292 16.3305 44.4765C16.3673 44.4186 16.4095 44.3606 16.4622 44.3132C16.7045 44.0709 17.068 43.9603 17.4104 44.0288C17.4789 44.0393 17.5421 44.0604 17.6053 44.0867C17.6738 44.1131 17.7317 44.1447 17.7897 44.1815C17.8476 44.2237 17.9003 44.2658 17.9477 44.3132C18.1479 44.5081 18.2585 44.7821 18.2585 45.0613C18.2585 45.3405 18.1479 45.6091 17.9477 45.804C17.9003 45.8514 17.8476 45.8989 17.7897 45.9357C17.7317 45.9726 17.6738 46.0042 17.6053 46.0306C17.5421 46.0569 17.4789 46.078 17.4104 46.0938C17.3419 46.1043 17.2734 46.1148 17.2049 46.1148Z" fill="#37635F"/>
<path d="M44.8563 43.2805C44.5771 43.2805 44.3084 43.1646 44.1083 42.9697C43.9134 42.7748 43.8027 42.5009 43.8027 42.2269C43.8027 42.1584 43.8027 42.0847 43.8238 42.0215C43.8343 41.953 43.8554 41.8845 43.8818 41.8213C43.9081 41.7581 43.9397 41.6949 43.9818 41.6422C44.0187 41.5842 44.0609 41.5263 44.1083 41.4789C44.5034 41.0891 45.2092 41.0891 45.5991 41.4789C45.7992 41.6738 45.9099 41.9477 45.9099 42.2269C45.9099 42.5061 45.7992 42.7748 45.5991 42.9697C45.5517 43.0171 45.499 43.0645 45.441 43.1014C45.3831 43.1383 45.3199 43.1699 45.2567 43.1962C45.1934 43.2226 45.1302 43.2436 45.0618 43.2594C44.9933 43.27 44.9248 43.2805 44.8563 43.2805Z" fill="#37635F"/>
<path d="M47.6747 49.4595C47.3955 49.4595 47.1268 49.3489 46.9266 49.154C46.8792 49.1013 46.8371 49.0486 46.7949 48.9907C46.7581 48.9327 46.7265 48.8748 46.7001 48.8116C46.6738 48.7484 46.6527 48.6799 46.6422 48.6114C46.6264 48.5429 46.6211 48.4744 46.6211 48.406C46.6211 48.132 46.7317 47.8581 46.9266 47.6632C47.1742 47.4156 47.5377 47.305 47.8801 47.3735C47.9486 47.3893 48.0118 47.4103 48.075 47.4367C48.1382 47.463 48.2015 47.4946 48.2594 47.5315C48.3173 47.5684 48.37 47.6158 48.4174 47.6632C48.6123 47.8581 48.7282 48.132 48.7282 48.406C48.7282 48.4744 48.723 48.5429 48.7072 48.6114C48.6914 48.6799 48.6703 48.7484 48.6439 48.8116C48.6176 48.8748 48.586 48.9327 48.5491 48.9907C48.5123 49.0486 48.4648 49.1013 48.4174 49.154C48.37 49.2014 48.3173 49.2435 48.2594 49.2857C48.2015 49.3226 48.1382 49.3542 48.075 49.3805C48.0118 49.4069 47.9486 49.4279 47.8801 49.4385C47.8116 49.4543 47.7431 49.4595 47.6747 49.4595Z" fill="#37635F"/>
</svg>
