<svg width="64" height="64" viewBox="0 0 64 64" fill="none" xmlns="http://www.w3.org/2000/svg">
<g clip-path="url(#clip0_1367_650)">
<path d="M58.0682 30.4054C57.8611 29.375 57.0019 28.5985 55.9541 28.4992L46.7852 27.6318L38.7528 18.2741C37.2656 16.355 34.8253 15.4437 32.4476 15.9215L17.917 18.8411C15.4069 19.3454 13.4391 21.2997 12.9203 23.8088L12.3521 26.0228L10.8925 31.706L10.0426 35.0143C7.88202 37.209 6.95059 40.3321 7.55749 43.3526L9.1683 51.3695L14.6279 50.2725C14.6336 50.3009 14.6403 50.334 14.646 50.3624C15.2719 53.4774 18.3033 55.4944 21.4183 54.8685C24.5334 54.2426 26.5504 51.2113 25.9245 48.0962C25.9188 48.0678 25.9131 48.0395 25.9065 48.0064L42.9471 44.5825C42.9528 44.6108 42.9595 44.6439 42.9652 44.6723C43.5911 47.7873 46.6224 49.8044 49.7375 49.1785C52.8526 48.5526 54.8696 45.5212 54.2437 42.4061C54.238 42.3778 54.2323 42.3494 54.2256 42.3163L60.2383 41.1082L58.0871 30.4016L58.0682 30.4054Z" fill="white"/>
<path d="M39.364 18.9914L19.2839 23.0261C19.2839 23.0261 17.0856 23.1727 15.9853 27.8542C15.4701 30.038 14.8849 32.3144 14.3958 34.1389L46.7802 27.632L39.364 18.9914Z" fill="#DFFDF7"/>
<path d="M34.1176 27.3193C33.5977 27.4237 33.0867 27.0838 32.9823 26.5638C32.8778 26.0439 33.2177 25.533 33.7377 25.4285C34.6311 25.249 35.2175 24.3738 35.0371 23.4757C34.8566 22.5776 33.9824 21.9959 33.0843 22.1763C32.1861 22.3568 31.6045 23.231 31.7849 24.1291C31.8894 24.6491 31.5494 25.16 31.0295 25.2645C30.5095 25.369 29.9986 25.029 29.8941 24.509C29.5047 22.571 30.7663 20.675 32.7044 20.2856C34.6424 19.8962 36.5384 21.1577 36.9278 23.0958C37.3172 25.0338 36.0557 26.9299 34.1176 27.3193Z" fill="#37635F"/>
<path d="M20.4711 30.0615C18.5331 30.4509 16.6371 29.1893 16.2476 27.2512C15.8582 25.3132 17.1198 23.4172 19.0579 23.0277C19.5778 22.9233 20.0887 23.2632 20.1932 23.7832C20.2977 24.3031 19.9577 24.8141 19.4378 24.9185C18.5444 25.098 17.958 25.9732 18.1384 26.8713C18.3189 27.7694 19.1931 28.3511 20.0912 28.1707C20.6112 28.0662 21.1221 28.4061 21.2266 28.9261C21.331 29.4461 20.9911 29.957 20.4711 30.0615Z" fill="#37635F"/>
<path d="M10.2324 35.9591C10.0953 35.9866 9.94778 35.9867 9.80213 35.9471C9.28384 35.8152 8.97606 35.2869 9.10893 34.7734L11.982 23.5688C12.5704 20.7212 14.8245 18.4782 17.7221 17.896L32.2528 14.9764C34.9991 14.4246 37.7734 15.4556 39.4953 17.6619L47.5144 27.0026C47.8609 27.4051 47.816 28.0141 47.4088 28.3615C47.0063 28.7079 46.3973 28.663 46.0499 28.2558L38.0176 18.8981C38.0176 18.8981 37.9977 18.8726 37.9854 18.8604C36.7169 17.2219 34.6643 16.454 32.6317 16.8624L18.1011 19.782C15.9645 20.2113 14.3009 21.8685 13.8583 23.9983L10.974 35.2445C10.8807 35.6124 10.5803 35.8793 10.2305 35.9496L10.2324 35.9591Z" fill="#37635F"/>
<path d="M24.7865 33.035C24.2665 33.1395 23.7556 32.7995 23.6512 32.2796L20.8911 18.543C20.7867 18.0231 21.1266 17.5122 21.6466 17.4077C22.1665 17.3032 22.6774 17.6432 22.7819 18.1631L25.5419 31.8997C25.6464 32.4196 25.3065 32.9305 24.7865 33.035Z" fill="#37635F"/>
<path d="M21.6018 55.8101C17.9715 56.5396 14.4235 54.1788 13.6941 50.5485C12.9647 46.9182 15.3254 43.3703 18.9557 42.6408C22.586 41.9114 26.134 44.2722 26.8634 47.9025C27.5928 51.5328 25.2321 55.0807 21.6018 55.8101ZM19.3357 44.5316C16.75 45.0511 15.0644 47.5782 15.5849 50.1686C16.1054 52.759 18.6315 54.4398 21.2219 53.9194C23.8123 53.3989 25.4931 50.8727 24.9726 48.2824C24.4522 45.692 21.926 44.0111 19.3357 44.5316Z" fill="#37635F"/>
<path d="M54.1097 31.6576C53.794 30.7719 53.7815 29.4859 53.8684 28.303L46.7799 27.6323L10.042 35.0139C7.88143 37.2086 6.95 40.3316 7.5569 43.3522L9.16772 51.3691L14.6273 50.2721C14.0573 47.1901 16.0601 44.2107 19.1468 43.5905C22.2336 42.9703 25.2318 44.9448 25.8964 48.0078L42.9371 44.5839C42.367 41.5019 44.3699 38.5225 47.4566 37.9023C50.5433 37.2821 53.5415 39.2566 54.2062 42.3196L60.2188 41.1115L58.6603 33.3546C56.5761 33.139 54.4708 32.6719 54.1106 31.6623L54.1097 31.6576Z" fill="#73E0CF"/>
<path d="M49.9124 50.1217C46.2821 50.8511 42.7341 48.4903 42.0047 44.86C41.2752 41.2297 43.636 37.6818 47.2663 36.9524C50.8966 36.2229 54.4445 38.5837 55.174 42.214C55.9034 45.8443 53.5427 49.3922 49.9124 50.1217ZM47.6462 38.8431C45.0606 39.3627 43.375 41.8898 43.8955 44.4801C44.4159 47.0705 46.9421 48.7513 49.5324 48.2309C52.1228 47.7104 53.8037 45.1843 53.2832 42.5939C52.7627 40.0035 50.2366 38.3227 47.6462 38.8431Z" fill="#37635F"/>
<path d="M60.4084 42.0526L54.3957 43.2607C53.8805 43.3642 53.3762 43.0328 53.2632 42.5194C52.7135 39.9792 50.194 38.3315 47.6462 38.8434C45.0983 39.3553 43.4108 41.8484 43.8849 44.4038C43.979 44.9209 43.6419 45.4214 43.1267 45.525L26.086 48.9489C25.5707 49.0524 25.0665 48.721 24.9535 48.2076C24.4037 45.6674 21.8842 44.0196 19.3364 44.5316C16.7886 45.0435 15.1011 47.5365 15.5752 50.092C15.6693 50.6091 15.3321 51.1096 14.8169 51.2131L9.35727 52.3101C8.83731 52.4146 8.3264 52.0747 8.22193 51.5547L6.61112 43.5378C5.94058 40.2005 6.96534 36.7587 9.3545 34.3312C9.48959 34.1959 9.66254 34.1021 9.85162 34.0642L46.5895 26.6825C46.6841 26.6635 46.7767 26.6597 46.8713 26.6653L56.0402 27.5327C57.5239 27.6722 58.7135 28.7463 59.0069 30.2069L61.1582 40.9135C61.2626 41.4334 60.9227 41.9443 60.4027 42.0488L60.4084 42.0526ZM54.8808 41.1961L59.0831 40.3518L57.1218 30.5906C56.9974 29.9714 56.493 29.517 55.8613 29.4571L46.8324 28.6009L10.5341 35.8942C8.73829 37.8483 7.97668 40.5439 8.5019 43.1579L9.92276 50.2294L13.572 49.4962C13.4433 46.2615 15.6996 43.2952 18.9565 42.6408C22.2134 41.9864 25.4403 43.851 26.5711 46.8843L41.8864 43.807C41.7578 40.5724 44.0141 37.606 47.271 36.9517C50.5278 36.2973 53.7548 38.1619 54.8856 41.1952L54.8808 41.1961Z" fill="#37635F"/>
<path d="M49.1851 46.5049C47.5496 46.8336 45.9544 45.7722 45.6258 44.1367C45.2972 42.5011 46.3585 40.906 47.9941 40.5773C49.6296 40.2487 51.2248 41.3101 51.5534 42.9456C51.882 44.5812 50.8206 46.1763 49.1851 46.5049ZM48.373 42.4634C47.7822 42.5821 47.3969 43.1611 47.5156 43.752C47.6343 44.3429 48.2134 44.7282 48.8042 44.6094C49.3951 44.4907 49.7804 43.9117 49.6617 43.3208C49.5429 42.73 48.9639 42.3447 48.373 42.4634Z" fill="#37635F"/>
<path d="M20.8755 52.1934C19.24 52.522 17.6448 51.4607 17.3162 49.8251C16.9876 48.1896 18.049 46.5944 19.6845 46.2658C21.32 45.9372 22.9152 46.9986 23.2438 48.6341C23.3483 49.1541 23.0083 49.665 22.4884 49.7695C21.9684 49.8739 21.4575 49.534 21.353 49.014C21.2343 48.4232 20.6553 48.0379 20.0644 48.1566C19.4735 48.2753 19.0883 48.8544 19.207 49.4452C19.3257 50.0361 19.9047 50.4214 20.4956 50.3026C21.0156 50.1982 21.5265 50.5381 21.631 51.0581C21.7354 51.578 21.3955 52.0889 20.8755 52.1934Z" fill="#37635F"/>
</g>
<defs>
<clipPath id="clip0_1367_650">
<rect width="54" height="54" fill="white" transform="translate(0 10.6377) rotate(-11.361)"/>
</clipPath>
</defs>
</svg>
