<svg width="65" height="65" viewBox="0 0 65 65" fill="none" xmlns="http://www.w3.org/2000/svg">
<g clip-path="url(#clip0_1766_3192)">
<path d="M38.7725 38.2367C38.7725 38.2367 46.5455 44.5245 52.9678 43.1302C58.473 41.932 57.0422 37.0919 53.9268 36.2669C50.8114 35.442 43.7311 38.1971 39.0012 34.2777" fill="#00C7B3"/>
<path d="M52.1337 44.3295C45.5633 45.0136 38.4286 39.3108 38.1162 39.0573C37.665 38.6912 37.5962 38.031 37.9618 37.5745C38.3279 37.1233 38.9881 37.0546 39.4446 37.4202C39.5198 37.4812 46.9017 43.3701 52.7495 42.1044C54.5568 41.7097 55.6105 40.8426 55.6369 39.7224C55.6634 38.655 54.7947 37.5856 53.6676 37.2898C52.8018 37.0622 51.3524 37.1813 49.8139 37.3097C46.2539 37.6062 41.8224 37.9776 38.3438 35.0879C37.8972 34.7159 37.8332 34.05 38.2051 33.6034C38.577 33.1569 39.243 33.0929 39.6895 33.4648C42.5071 35.8037 46.4659 35.4709 49.6429 35.209C51.4438 35.0586 52.998 34.9285 54.2128 35.2522C56.2771 35.8 57.7978 37.739 57.75 39.7724C57.7032 41.917 56.0042 43.5557 53.2076 44.1647C52.8551 44.2385 52.501 44.2965 52.15 44.3331L52.1337 44.3295Z" fill="#37635F"/>
<path d="M41.3178 39.9947C42.5538 44.4897 50.3359 47.8636 40.8822 51.9356C36.5988 53.7799 26.2676 48.966 25.0363 44.4652C23.8003 39.9702 26.4463 35.3199 30.9418 34.0892C35.4368 32.8532 40.0871 35.4992 41.3178 39.9947Z" fill="#00C7B3"/>
<path d="M39.509 53.3444C36.8997 53.6161 33.6458 52.6308 31.1647 51.4379C27.3292 49.5969 24.6588 47.0944 24.0118 44.7466C23.3387 42.3009 23.6601 39.7411 24.9186 37.5339C26.1718 35.3273 28.2101 33.7433 30.6563 33.0755C33.102 32.4024 35.6618 32.7238 37.869 33.9822C40.0762 35.2407 41.6597 37.2738 42.3275 39.72C42.6356 40.8479 43.5009 41.9865 44.3357 43.086C45.6253 44.7895 46.9628 46.5463 46.4342 48.5398C45.9975 50.1954 44.3625 51.5838 41.2904 52.9047C40.7478 53.1359 40.143 53.2784 39.5037 53.3449L39.509 53.3444ZM32.427 34.8719C32.0236 34.9139 31.6181 34.9879 31.2218 35.0981C29.3164 35.6195 27.7343 36.8541 26.7532 38.5716C25.7721 40.2892 25.5292 42.2794 26.0506 44.1848C26.5205 45.8995 28.8899 48.0044 32.0842 49.5361C35.3904 51.125 38.7553 51.7015 40.4685 50.9618C42.7949 49.9569 44.1603 48.9302 44.4071 47.9935C44.6735 46.9913 43.6974 45.7053 42.6661 44.3456C41.7091 43.0893 40.7256 41.7829 40.308 40.264C39.7865 38.3586 38.5519 36.7765 36.8344 35.7954C35.4778 35.0257 33.9512 34.7079 32.4265 34.8667L32.427 34.8719Z" fill="#37635F"/>
<path d="M21.9117 35.919C21.9117 35.919 16.3489 48.9764 16.6157 53.4717C16.8825 57.967 22.5317 57.49 23.8571 55.1117C25.1824 52.7333 24.7574 41.1733 25.8695 38.171" fill="#00C7B3"/>
<path d="M20.8911 57.9098C20.278 57.9737 19.6447 57.9443 19.0314 57.8016C16.9862 57.3366 15.6866 55.74 15.557 53.529C15.2805 48.8388 20.7065 36.0446 20.936 35.5017C21.166 34.964 21.7809 34.7146 22.3186 34.9446C22.8563 35.1746 23.1004 35.79 22.8757 36.3272C21.3565 39.8962 17.4534 49.9207 17.6626 53.4051C17.7392 54.7001 18.3562 55.4885 19.5011 55.7507C20.7975 56.0447 22.4302 55.4986 22.9297 54.5992C23.5094 53.5537 23.7371 49.4836 23.915 46.2079C24.1104 42.6919 24.2939 39.3679 24.8725 37.8035C25.0752 37.2581 25.6821 36.983 26.227 37.1805C26.7725 37.3832 27.0528 37.9896 26.8501 38.5351C26.3782 39.8024 26.1879 43.2648 26.019 46.3225C25.7474 51.1916 25.5308 54.2489 24.768 55.6207C24.0629 56.8858 22.5363 57.7385 20.8858 57.9104L20.8911 57.9098Z" fill="#37635F"/>
<path d="M42.3956 3.80926C39.6571 3.24698 36.9633 4.63969 35.6246 7.09357C34.8056 8.58767 34.7973 9.88084 35.3665 11.0238C32.962 10.3632 30.1053 10.2423 26.7364 10.7466C25.2187 10.9735 23.8376 11.4933 22.6004 12.2259C22.4534 11.5262 22.1062 10.8368 21.4917 10.1752C19.4042 7.92973 15.9228 7.45539 13.347 9.11652C9.87821 11.3579 9.40666 16.036 12.0849 18.919C12.723 19.6047 13.3785 20.0502 14.0388 20.2886C15.3811 20.7685 16.2731 22.0103 16.1772 23.4291C16.0691 25.0875 16.2244 26.7821 16.6703 28.4199C19.0838 37.2041 29.137 41.8404 37.6859 37.1157C43.6355 33.8269 46.2316 26.7137 44.2369 20.2216C44.1577 19.9703 44.0792 19.7242 43.9901 19.4793C43.3739 17.7321 44.043 15.867 45.5524 14.7988C46.0307 14.4577 46.4633 13.9837 46.8219 13.3585C48.9481 9.66799 47.0012 4.75444 42.3799 3.8109L42.3956 3.80926Z" fill="#00C7B3"/>
<path d="M32.1196 39.962C29.5627 40.2282 26.9713 39.8572 24.5559 38.8375C20.1631 36.9857 16.9181 33.2878 15.6612 28.6943C15.1908 26.9743 15.009 25.1766 15.1315 23.3525C15.1902 22.4407 14.6107 21.606 13.6915 21.2727C12.85 20.9736 12.0563 20.4207 11.3171 19.6291C9.80822 18.0066 9.09738 15.8085 9.37147 13.6085C9.64555 11.4085 10.8872 9.44664 12.7776 8.22232C15.7555 6.30218 19.8305 6.83123 22.2639 9.44848C22.6393 9.84899 22.9429 10.2729 23.1749 10.7201C24.2505 10.2162 25.3955 9.8692 26.5794 9.69297C29.2652 9.29151 31.7256 9.26837 33.9181 9.62269C33.8638 8.64322 34.1233 7.62579 34.6977 6.58086C36.295 3.66046 39.4726 2.13263 42.6056 2.77036C45.0839 3.27499 47.0801 4.84672 48.0851 7.07247C49.07 9.25793 48.943 11.8028 47.7506 13.8813C47.3243 14.6195 46.7937 15.2203 46.1717 15.6558C45.0224 16.4693 44.5479 17.8639 44.9918 19.1259C45.0819 19.3813 45.1674 19.6426 45.2481 19.9096C47.4124 26.9614 44.451 34.584 38.2006 38.0365C36.2776 39.1 34.2102 39.7443 32.1196 39.962ZM16.1956 9.20642C15.3992 9.28934 14.6161 9.55095 13.9213 9.99933C12.5369 10.8956 11.6629 12.2683 11.4593 13.8731C11.2639 15.4558 11.772 17.0289 12.8524 18.1981C13.3536 18.7391 13.874 19.1087 14.3911 19.2931C16.2116 19.9404 17.3517 21.6331 17.2278 23.4944C17.1226 25.0783 17.2747 26.6408 17.6896 28.1336C18.7803 32.0982 21.5809 35.2916 25.3757 36.8932C29.1704 38.4948 33.476 38.2371 37.1819 36.1882C42.5657 33.2125 45.111 26.629 43.2357 20.5216C43.1635 20.2855 43.086 20.0499 43.0038 19.8202C42.2438 17.6589 43.0252 15.2949 44.9544 13.9341C45.3244 13.6731 45.651 13.3002 45.9196 12.8273C46.7758 11.3346 46.8663 9.50856 46.157 7.93526C45.4339 6.33161 43.9868 5.20057 42.1795 4.83263C39.9551 4.37571 37.6926 5.48518 36.5454 7.59075C35.9361 8.70816 35.8592 9.64832 36.3021 10.5449C36.4892 10.9174 36.4349 11.3626 36.1721 11.6866C35.9087 12.0053 35.4836 12.1449 35.0801 12.0333C32.7679 11.3949 30.0104 11.3113 26.8867 11.7795C25.5571 11.9815 24.2957 12.4306 23.1391 13.1231C22.8447 13.2967 22.4867 13.3181 22.1759 13.181C21.865 13.0439 21.6348 12.7659 21.5679 12.4286C21.4582 11.8839 21.1778 11.3782 20.7187 10.8858C19.5436 9.62049 17.8298 9.03097 16.1898 9.20172L16.1956 9.20642Z" fill="#37635F"/>
<path d="M51.3002 51.3901C52.6757 47.4236 51.0544 43.2592 47.679 42.0887C44.3035 40.9181 40.452 43.1846 39.0765 47.1511C37.701 51.1176 39.3223 55.2819 42.6978 56.4525C46.0733 57.6231 49.9247 55.3566 51.3002 51.3901Z" fill="#00C7B3"/>
<path d="M45.2305 57.7801C44.2717 57.8799 43.2974 57.7801 42.3525 57.4548C40.424 56.787 38.9224 55.2856 38.1215 53.2399C37.3476 51.2496 37.3325 48.9684 38.0775 46.8147C38.8225 44.661 40.2519 42.8756 42.0884 41.7946C43.9851 40.6808 46.0939 40.4348 48.0224 41.1026C51.9404 42.4636 53.8569 47.2373 52.298 51.7479C51.1132 55.1709 48.2543 57.4706 45.2311 57.7853L45.2305 57.7801ZM45.3511 42.8637C44.6123 42.9406 43.87 43.1874 43.1615 43.6054C41.7491 44.4357 40.6534 45.8156 40.0716 47.5021C39.4893 49.1834 39.4934 50.952 40.0861 52.4739C40.6572 53.9398 41.7051 55.0011 43.0458 55.4653C45.8646 56.443 49.1279 54.4666 50.3086 51.0547C51.4893 47.6427 50.1585 44.0685 47.3344 43.0915C46.6972 42.8718 46.0223 42.7991 45.3516 42.8689L45.3511 42.8637Z" fill="#37635F"/>
<path d="M34.3407 59.9446C37.7859 58.9986 39.6776 54.9499 38.566 50.9015C37.4544 46.8532 33.7604 44.3382 30.3152 45.2842C26.87 46.2302 24.9783 50.2789 26.0899 54.3273C27.2015 58.3756 30.8956 60.8906 34.3407 59.9446Z" fill="#00C7B3"/>
<path d="M33.5534 61.1622C29.8805 61.5446 26.2216 58.806 25.0696 54.6095C24.4647 52.4109 24.6299 50.1322 25.5357 48.2C26.4669 46.207 28.0641 44.8119 30.0365 44.2729C32.0036 43.7344 34.093 44.1154 35.9117 45.356C37.6789 46.5597 38.9807 48.4314 39.5856 50.63C40.8488 55.2334 38.62 59.872 34.6193 60.9718C34.2638 61.067 33.9108 61.1356 33.5545 61.1727L33.5534 61.1622ZM31.319 46.1626C31.0727 46.1882 30.8287 46.2348 30.5868 46.3024C29.2223 46.6775 28.1072 47.6675 27.44 49.0928C26.7468 50.5738 26.6229 52.3345 27.0985 54.054C28.0541 57.5348 31.1741 59.7257 34.0575 58.9329C36.9356 58.1407 38.5019 54.6674 37.5457 51.1813C37.0759 49.4666 36.0719 48.014 34.7152 47.0907C33.6435 46.3601 32.4612 46.0436 31.3137 46.1631L31.319 46.1626Z" fill="#37635F"/>
<path d="M15.0674 16.1192C15.0674 16.1192 14.2636 12.469 18.4617 12.9588L15.0674 16.1192Z" fill="#00C7B3"/>
<path d="M15.1765 17.1669C14.6525 17.2214 14.1558 16.8759 14.0425 16.3475C13.9945 16.1406 13.632 14.2876 14.8197 12.9775C15.6369 12.0768 16.9024 11.7173 18.591 11.9122C19.17 11.979 19.5846 12.5026 19.5178 13.0815C19.451 13.6605 18.9274 14.0752 18.3485 14.0083C17.6835 13.9293 16.7998 13.9366 16.3865 14.3927C15.921 14.9072 16.1027 15.8893 16.1038 15.8998C16.2267 16.4696 15.8668 17.0314 15.3022 17.1538C15.2603 17.1581 15.2242 17.1672 15.1822 17.1715L15.1765 17.1669Z" fill="#37635F"/>
<path d="M43.8801 9.5226C43.8801 9.5226 42.7057 5.97453 39.3446 8.53835L43.8801 9.5226Z" fill="#00C7B3"/>
<path d="M43.9897 10.5708C43.5077 10.621 43.0436 10.3356 42.8829 9.85978C42.8749 9.83412 42.5288 8.90093 41.8618 8.70027C41.2766 8.52286 40.5178 8.96731 39.9885 9.37728C39.5276 9.73245 38.8668 9.64237 38.5116 9.18149C38.1565 8.72062 38.2465 8.05979 38.7074 7.70462C40.0566 6.67435 41.3295 6.33526 42.49 6.6964C44.181 7.21945 44.8109 8.99698 44.8794 9.19642C45.064 9.74919 44.7609 10.3475 44.2076 10.5269C44.1359 10.5502 44.0584 10.5689 43.985 10.5765L43.9897 10.5708Z" fill="#37635F"/>
<path d="M18.6312 45.9269C18.6312 45.9269 18.5945 45.9308 18.5735 45.9329L15.8337 46.0699C15.2541 46.0985 14.7574 45.6524 14.7289 45.0727C14.7003 44.4931 15.1464 43.9965 15.7261 43.9679L18.4659 43.8309C19.0455 43.8023 19.5422 44.2485 19.5707 44.8281C19.5977 45.392 19.1813 45.8697 18.6259 45.9275L18.6312 45.9269Z" fill="#37635F"/>
<path d="M55.5543 53.0721C55.4652 53.0814 55.3751 53.0801 55.2891 53.0679L51.1508 52.4395C50.5749 52.3512 50.1801 51.815 50.2684 51.2391C50.3567 50.6632 50.8929 50.2684 51.4688 50.3567L55.6071 50.9851C56.183 51.0735 56.5778 51.6097 56.4895 52.1856C56.4181 52.6697 56.0212 53.0288 55.5601 53.0768L55.5543 53.0721Z" fill="#37635F"/>
<path d="M47.3207 24.9112C47.2841 24.915 47.2474 24.9188 47.2102 24.9174L44.8855 24.9211C44.3031 24.9235 43.8305 24.4537 43.8281 23.8713C43.8257 23.289 44.3008 22.8158 44.8779 22.814L47.2026 22.8103C47.785 22.8079 48.2576 23.2777 48.26 23.8601C48.2638 24.4052 47.8499 24.8561 47.3155 24.9118L47.3207 24.9112Z" fill="#37635F"/>
<path d="M7.57068 20.0668C7.15152 20.1105 6.72712 19.9004 6.5263 19.4976C6.26052 18.9798 6.46446 18.3442 6.98231 18.0784L10.3959 16.3247C10.9138 16.059 11.5494 16.2629 11.8152 16.7808C12.0809 17.2986 11.877 17.9342 11.3591 18.2L7.94553 19.9536C7.82469 20.0139 7.70167 20.0532 7.57592 20.0663L7.57068 20.0668Z" fill="#37635F"/>
<path d="M32.3163 29.2801L29.4751 26.663C29.2641 26.4678 29.3072 26.1191 29.563 25.9812L30.0044 25.7446C31.1985 25.1065 32.5826 24.92 33.9052 25.2113L34.5395 25.3518C34.8375 25.4161 34.97 25.7731 34.7834 26.015L32.3105 29.2755L32.3163 29.2801Z" fill="#6ED5C5"/>
<path d="M32.4252 30.3277L32.4095 30.3293C32.1161 30.3599 31.8195 30.2583 31.6022 30.0532L28.761 27.4361C28.4095 27.1125 28.2383 26.6378 28.3003 26.1652C28.3623 25.6927 28.6473 25.2764 29.0689 25.0524L29.5103 24.8158C30.9252 24.0594 32.5702 23.8352 34.1373 24.1857L34.7716 24.3263C35.2648 24.4338 35.6614 24.7844 35.8379 25.2586C36.0144 25.7328 35.9363 26.2547 35.6287 26.6574L33.1558 29.9179C32.9785 30.1482 32.7134 30.2977 32.4252 30.3277ZM30.8623 26.5076L32.1803 27.7209L33.344 26.1803C32.5048 26.0558 31.643 26.1721 30.8617 26.5023L30.8623 26.5076Z" fill="#37635F"/>
<path d="M23.862 53.5381C21.7231 48.4592 16.6938 52.0918 16.6686 52.105C16.6104 52.6142 16.5892 53.0719 16.6092 53.467C16.876 57.9623 22.5252 57.4853 23.8506 55.107C23.9578 54.9158 24.0485 54.668 24.1338 54.3678C24.0687 54.0992 23.9816 53.8222 23.8614 53.5329L23.862 53.5381Z" fill="#00C7B3"/>
<path d="M20.8907 57.9099C20.2777 57.9738 19.6444 57.9444 19.031 57.8017C16.9859 57.3367 15.6862 55.7401 15.5567 53.5291C15.5323 53.0921 15.5486 52.5872 15.6185 51.9867C15.6514 51.692 15.8086 51.4214 16.0501 51.248C16.3406 51.0377 18.9793 49.2164 21.5822 49.9517C23.0169 50.3531 24.1084 51.4259 24.8256 53.1255C24.9601 53.4504 25.0683 53.7781 25.152 54.1242C25.1915 54.3002 25.1891 54.4805 25.1385 54.6553C25.0258 55.0484 24.905 55.3628 24.7671 55.6155C24.062 56.8806 22.5354 57.7334 20.8849 57.9052L20.8907 57.9099ZM17.6752 52.7153C17.66 52.9764 17.6578 53.2097 17.6675 53.4047C17.7441 54.6996 18.3611 55.4881 19.506 55.7502C20.8024 56.0442 22.4351 55.4982 22.9346 54.5988C22.957 54.5593 22.9913 54.4816 23.0411 54.3493C23.0001 54.2106 22.9498 54.0834 22.8989 53.951C22.4353 52.8553 21.8225 52.2094 21.0259 51.9851C19.8693 51.6607 18.4497 52.2693 17.681 52.72L17.6752 52.7153Z" fill="#37635F"/>
<path d="M53.9266 36.2668C53.7414 36.2172 53.5415 36.1798 53.3323 36.1539C52.6784 37.2495 52.2862 39.2817 53.53 42.9868C58.3687 41.5932 56.9329 37.0607 53.9319 36.2662L53.9266 36.2668Z" fill="#00C7B3"/>
<path d="M53.6343 44.0355C53.1523 44.0857 52.6877 43.7951 52.5275 43.3245C51.4063 39.9828 51.3695 37.3914 52.4243 35.6185C52.6362 35.2628 53.0442 35.0614 53.4575 35.1137C53.7312 35.1488 53.9741 35.1923 54.1976 35.2538C56.2237 35.7896 57.7136 37.6365 57.7364 39.6362C57.7562 41.6573 56.2951 43.2924 53.8218 44.0054C53.7601 44.0224 53.6977 44.0342 53.6401 44.0402L53.6343 44.0355ZM53.9479 37.3825C53.6476 38.4147 53.7405 39.8668 54.2073 41.6031C55.1379 41.1302 55.6347 40.4588 55.6303 39.6542C55.6218 38.707 54.9034 37.7596 53.9474 37.3772L53.9479 37.3825Z" fill="#37635F"/>
<path d="M35.9658 21.3521C36.2957 21.3178 36.5353 21.0225 36.5009 20.6926C36.4666 20.3628 36.1713 20.1232 35.8414 20.1575C35.5116 20.1919 35.272 20.4871 35.3063 20.817C35.3407 21.1469 35.6359 21.3865 35.9658 21.3521Z" fill="#00C7B3"/>
<path d="M36.0747 22.4004C35.1683 22.4948 34.3526 21.8329 34.2582 20.9265C34.1638 20.02 34.8257 19.2043 35.7321 19.11C36.6386 19.0156 37.4543 19.6774 37.5486 20.5839C37.643 21.4903 36.9812 22.306 36.0747 22.4004ZM35.8565 20.3046C35.605 20.3307 35.4272 20.5558 35.4528 20.8021C35.4785 21.0483 35.7041 21.2314 35.9503 21.2058C36.1966 21.1801 36.3797 20.9545 36.354 20.7082C36.3284 20.462 36.1028 20.2789 35.8565 20.3046Z" fill="#37635F"/>
<path d="M25.9463 23.6041C26.2762 23.5698 26.5158 23.2745 26.4814 22.9446C26.4471 22.6147 26.1518 22.3751 25.8219 22.4095C25.492 22.4438 25.2525 22.7391 25.2868 23.069C25.3211 23.3989 25.6164 23.6385 25.9463 23.6041Z" fill="#00C7B3"/>
<path d="M26.0552 24.6465C25.1488 24.7408 24.3331 24.079 24.2387 23.1726C24.1443 22.2661 24.8062 21.4504 25.7126 21.356C26.619 21.2617 27.4347 21.9235 27.5291 22.83C27.6235 23.7364 26.9616 24.5521 26.0552 24.6465ZM25.837 22.5507C25.5855 22.5768 25.4077 22.8019 25.4333 23.0482C25.4589 23.2944 25.6846 23.4775 25.9308 23.4519C26.1771 23.4262 26.3601 23.2006 26.3345 22.9543C26.3089 22.7081 26.0832 22.525 25.837 22.5507Z" fill="#37635F"/>
<path d="M38.5658 50.9056C38.3854 50.2412 38.125 49.6221 37.8165 49.0504C36.4465 47.6942 34.6015 47.0654 32.8297 47.5465C29.9871 48.3244 28.4361 51.6902 29.3593 55.0632C30.1021 57.7717 32.2212 59.659 34.5012 59.8877C37.8366 58.8572 39.6524 54.8812 38.56 50.9009L38.5658 50.9056Z" fill="#00C7B3"/>
<path d="M34.6165 60.9401C34.5432 60.9477 34.4745 60.9496 34.3995 60.9415C31.6213 60.6587 29.1894 58.4121 28.3455 55.3433C27.8331 53.4741 27.9652 51.5378 28.7259 49.8909C29.512 48.1831 30.871 46.9929 32.5497 46.5321C34.6194 45.9617 36.865 46.623 38.5545 48.3008C38.6255 48.3729 38.6925 48.4559 38.7395 48.5517C39.1008 49.2238 39.3851 49.9198 39.5751 50.6256C40.8218 55.1724 38.7335 59.6852 34.8134 60.8984C34.747 60.9212 34.6794 60.9335 34.6113 60.9406L34.6165 60.9401ZM33.6667 48.4602C33.4781 48.4798 33.2963 48.5146 33.111 48.5657C32.0397 48.8573 31.1628 49.6424 30.6401 50.7773C30.0867 51.9736 29.9966 53.3971 30.3797 54.7873C30.9687 56.9345 32.5697 58.5262 34.4008 58.8175C37.0492 57.8532 38.4571 54.4865 37.552 51.1858C37.4147 50.681 37.2145 50.1828 36.9677 49.6948C35.9938 48.7846 34.8042 48.347 33.6725 48.4649L33.6667 48.4602Z" fill="#37635F"/>
<path d="M51.3074 51.3956C51.7276 50.1919 51.8646 48.9648 51.7609 47.8157C51.2634 46.9036 50.5134 46.1607 49.5472 45.7317C46.8585 44.5287 43.5209 46.1473 42.0945 49.3359C40.8702 52.0745 41.4585 55.0798 43.3477 56.6415C46.5553 57.335 50.0158 55.1157 51.3079 51.4008L51.3074 51.3956Z" fill="#00C7B3"/>
<path d="M45.2622 57.7823C44.5549 57.8559 43.8361 57.8196 43.1263 57.6657C42.9636 57.6297 42.8076 57.5559 42.6798 57.4474C40.3741 55.5477 39.7381 52.0336 41.1385 48.9007C41.9285 47.1289 43.2594 45.7192 44.8932 44.9294C46.5877 44.1121 48.3927 44.0513 49.9812 44.7598C51.1202 45.2715 52.0589 46.1483 52.6927 47.3004C52.7645 47.4307 52.8054 47.5694 52.8207 47.7161C52.9405 49.0701 52.7683 50.4174 52.3124 51.736C51.1311 55.1427 48.3116 57.4648 45.2727 57.7812L45.2622 57.7823ZM43.8278 55.6542C46.4829 56.0769 49.2369 54.143 50.313 51.0491C50.6477 50.0927 50.7836 49.1093 50.7293 48.1298C50.3278 47.4778 49.7727 46.9795 49.1174 46.6876C48.1065 46.2367 46.9305 46.285 45.8062 46.8311C44.6213 47.4046 43.6438 48.4439 43.0605 49.7598C42.1073 51.8982 42.4344 54.3269 43.8278 55.6542Z" fill="#37635F"/>
<path d="M32.3163 29.2805C32.3163 29.2805 32.786 33.7917 27.5191 32.9048L32.3163 29.2805Z" fill="#00C7B3"/>
<path d="M29.4803 34.0403C28.8359 34.1074 28.1229 34.0757 27.3413 33.9452C26.7696 33.8458 26.3795 33.3039 26.4788 32.7321C26.5729 32.1609 27.1201 31.7702 27.6919 31.8696C29.0452 32.0994 30.0248 31.9445 30.5945 31.4138C31.3721 30.692 31.2641 29.4003 31.2624 29.3846C31.2134 28.8124 31.6312 28.2975 32.2023 28.2381L32.2075 28.2375C32.7839 28.1775 33.2988 28.5953 33.3588 29.1716C33.3686 29.2659 33.5795 31.4949 32.0401 32.9369C31.3743 33.5623 30.5172 33.927 29.4745 34.0356L29.4803 34.0403Z" fill="#37635F"/>
<path d="M32.3164 29.2793C32.3164 29.2793 33.7805 32.2517 36.3576 30.9082L32.3164 29.2793Z" fill="#00C7B3"/>
<path d="M35.4047 32.2895C34.9227 32.3397 34.4512 32.2882 33.9909 32.1402C32.3239 31.5934 31.4622 29.9301 31.3687 29.7438C31.1128 29.2197 31.3278 28.5882 31.8467 28.3329C32.3657 28.0776 32.9966 28.2873 33.2571 28.8057C33.404 29.0976 33.9441 29.91 34.6511 30.1383C35.0238 30.2583 35.4209 30.2064 35.8675 29.9692C36.3854 29.7035 37.0205 29.9022 37.2915 30.4195C37.5625 30.9368 37.3585 31.5724 36.8412 31.8434C36.3637 32.0891 35.8815 32.2399 35.3995 32.2901L35.4047 32.2895Z" fill="#37635F"/>
</g>
<defs>
<clipPath id="clip0_1766_3192">
<rect width="59" height="59" fill="white" transform="translate(0 6.11035) rotate(-5.94422)"/>
</clipPath>
</defs>
</svg>
