<svg width="62" height="62" viewBox="0 0 62 62" fill="none" xmlns="http://www.w3.org/2000/svg">
<g clip-path="url(#clip0_1367_333)">
<path d="M30.4025 4.25768L35.7849 5.03744C36.5436 5.14736 37.07 5.85207 36.9601 6.61076L36.4319 10.2563L28.3011 9.07833L28.8292 5.43282C28.9391 4.67413 29.6439 4.14777 30.4025 4.25768Z" fill="#5BB5A7"/>
<path d="M36.2982 11.2114L28.1674 10.0334C27.6425 9.9574 27.2753 9.46574 27.3513 8.94086L27.8802 5.29058C28.0607 4.01109 29.257 3.1175 30.5406 3.30345L35.923 4.08321C37.2113 4.26986 38.1049 5.46623 37.9189 6.7498L37.3901 10.4001C37.3141 10.925 36.8224 11.2922 36.2975 11.2162L36.2982 11.2114ZM29.3982 8.26305L35.6204 9.16448L36.011 6.46851C36.0449 6.23471 35.881 6.02096 35.6519 5.98778L30.2695 5.20802C30.0357 5.17415 29.8227 5.33328 29.7888 5.56709L29.3982 8.26305Z" fill="#3F5753"/>
<path d="M32.3743 9.61497C31.1146 9.43247 29.8306 9.78723 28.8465 10.5946L23.391 15.0609C21.7662 16.3894 20.6356 18.2084 20.1474 20.2325C20.0237 20.7505 20.1194 21.3002 20.4049 21.7508C20.6632 22.1536 20.5906 22.6888 20.2326 23.0072L19.8966 23.3092C19.7231 23.4644 19.6149 23.6728 19.5818 23.9018L18.5213 31.2215C18.4819 31.4935 18.5591 31.7677 18.7285 31.9774C19.0761 32.4029 19.0039 33.0355 18.5655 33.3715L18.4774 33.4415C18.2746 33.5973 18.1439 33.8268 18.1073 34.0797L17.6635 37.1431C17.6268 37.396 17.6918 37.6538 17.8373 37.86L17.9828 38.0662C18.2704 38.4684 18.2195 39.0213 17.8589 39.3588L17.5098 39.6833C17.3465 39.8351 17.2391 40.0387 17.2073 40.2582L15.7715 50.1689C15.412 52.6501 17.1339 54.9555 19.6152 55.3149L31.6349 57.0563C34.1161 57.4157 36.4214 55.6938 36.7809 53.2126L38.2167 43.3019C38.2485 43.0824 38.2033 42.8567 38.0898 42.6648L37.8587 42.2757C37.6052 41.8395 37.7195 41.2861 38.1285 40.9848L38.2699 40.8835C38.4822 40.7291 38.6239 40.4914 38.6612 40.2338L39.105 37.1704C39.1402 36.9271 39.0835 36.6801 38.9427 36.4746L38.77 36.2206C38.4926 35.815 38.5585 35.2595 38.9274 34.9329L39.234 34.6655C39.4075 34.5104 39.5205 34.3027 39.5536 34.0736L40.5622 27.1118C40.594 26.8923 40.5488 26.6666 40.4353 26.4747L40.1499 25.9901C39.9195 25.5962 39.9873 25.0945 40.32 24.7821L40.4614 24.6467C40.8282 24.3004 41.0433 23.8249 41.0722 23.3224C41.1957 21.226 40.6209 19.1404 39.4318 17.3945L35.4681 11.5637C34.7536 10.5102 33.6231 9.80563 32.3634 9.62313L32.3743 9.61497Z" fill="#DFFDF7"/>
<path d="M23.3949 15.0659C21.7702 16.3943 20.6395 18.2133 20.1514 20.2375C20.0276 20.7554 20.1233 21.3052 20.4088 21.7558C20.6671 22.1586 20.5945 22.6937 20.2366 23.0121L19.9005 23.3142C19.727 23.4693 19.6189 23.6777 19.5857 23.9068L18.5253 31.2264C18.4859 31.4984 18.563 31.7727 18.7324 31.9823C19.08 32.4078 19.0078 33.0404 18.5694 33.3764L18.4813 33.4465C18.2785 33.6022 18.1478 33.8317 18.1112 34.0846L17.6674 37.148C17.6307 37.4009 17.6957 37.6588 17.8412 37.865L17.9867 38.0712C18.2743 38.4734 18.2235 39.0263 17.8628 39.3637L17.5137 39.6883C17.3505 39.84 17.243 40.0437 17.2112 40.2632L15.7754 50.1738C15.416 52.6551 17.1379 54.9604 19.6191 55.3199L27.7213 56.4937C23.9409 55.2152 20.9252 53.7358 20.8577 51.0075C20.7459 46.4996 23.548 42.1556 22.5091 39.6082C21.4703 37.0607 23.3276 33.9586 23.3276 33.9586C23.3276 33.9586 22.5076 29.3285 23.4024 27.5241C24.2971 25.7196 24.2894 24.4275 24.3351 21.321C24.3808 18.2146 28.849 10.6091 28.849 10.6091L23.3936 15.0754L23.3949 15.0659Z" fill="#5BB5A7"/>
<path d="M40.0866 26.4921L24.7315 24.2676C24.2066 24.1916 23.8394 23.6999 23.9155 23.175C23.9915 22.6501 24.4832 22.2829 25.008 22.359L40.3631 24.5835C40.888 24.6595 41.2552 25.1512 41.1792 25.6761C41.1031 26.201 40.6115 26.5682 40.0866 26.4921Z" fill="#3F5753"/>
<path d="M38.7219 36.5887L26.2393 34.7803C25.7145 34.7043 25.3472 34.2126 25.4233 33.6877C25.4993 33.1628 25.991 32.7956 26.5158 32.8717L38.9984 34.68C39.5233 34.7561 39.8905 35.2477 39.8145 35.7726C39.7384 36.2975 39.2468 36.6647 38.7219 36.5887Z" fill="#3F5753"/>
<path d="M37.7944 42.7871L30.7706 41.7696C30.2457 41.6935 29.8785 41.2019 29.9545 40.677C30.0306 40.1521 30.5222 39.7849 31.0471 39.8609L38.0709 40.8785C38.5958 40.9545 38.963 41.4462 38.887 41.9711C38.8109 42.4959 38.3193 42.8632 37.7944 42.7871Z" fill="#3F5753"/>
<path d="M25.3405 40.9827L17.7823 39.8877C17.2574 39.8117 16.8902 39.32 16.9662 38.7951C17.0423 38.2703 17.5339 37.903 18.0588 37.9791L25.6171 39.0741C26.1419 39.1501 26.5092 39.6418 26.4331 40.1666C26.3571 40.6915 25.8654 41.0587 25.3405 40.9827Z" fill="#3F5753"/>
<path d="M22.1071 34.1816L18.5284 33.6631C18.0035 33.5871 17.6363 33.0954 17.7123 32.5705C17.7884 32.0457 18.28 31.6784 18.8049 31.7545L22.3836 32.2729C22.9085 32.349 23.2757 32.8406 23.1997 33.3655C23.1236 33.8904 22.632 34.2576 22.1071 34.1816Z" fill="#3F5753"/>
<path d="M36.0588 22.0449C35.7391 21.9985 35.4477 21.7907 35.3085 21.4734C34.3712 19.3012 30.9748 14.8679 30.938 14.8187C30.6143 14.3967 30.6926 13.7893 31.1146 13.4656C31.5366 13.1418 32.144 13.2201 32.4677 13.6421C32.6105 13.8333 36.0437 18.3158 37.0761 20.7063C37.2878 21.195 37.0644 21.7618 36.571 21.9729C36.3997 22.0455 36.221 22.0684 36.0493 22.0435L36.0588 22.0449Z" fill="white"/>
<path d="M35.6629 32.7492C35.138 32.6731 34.7708 32.1815 34.8469 31.6566L35.4047 27.8059C35.4808 27.281 35.9724 26.9138 36.4973 26.9898C37.0222 27.0659 37.3894 27.5575 37.3134 28.0824L36.7555 31.9331C36.6795 32.458 36.1878 32.8252 35.6629 32.7492Z" fill="white"/>
<path d="M29.7155 53.9275L29.0236 53.8272C28.4988 53.7512 28.1315 53.2595 28.2076 52.7347C28.2836 52.2098 28.7753 51.8426 29.3001 51.9186L29.992 52.0188C31.0227 52.1681 31.9787 51.4541 32.128 50.4234L32.9029 45.0744C32.979 44.5496 33.4707 44.1823 33.9955 44.2584C34.5204 44.3344 34.8876 44.8261 34.8116 45.3509L34.0367 50.6999C33.7353 52.7803 31.7959 54.2289 29.7155 53.9275Z" fill="white"/>
<path d="M31.5018 58.0056L19.4821 56.2643C16.476 55.8288 14.3869 53.0318 14.8224 50.0257L16.2582 40.115C16.3211 39.6808 16.5312 39.2728 16.8571 38.9741L17.2061 38.6495L17.0586 38.4236C16.7621 38.0152 16.6356 37.5097 16.7089 37.0039L17.1527 33.9405C17.2253 33.4395 17.4853 32.99 17.8909 32.6785L17.979 32.6085C17.6437 32.1653 17.4894 31.6168 17.5668 31.0823L18.6272 23.7627C18.6922 23.3142 18.9132 22.898 19.2548 22.5918L19.5908 22.2897C19.1695 21.6002 19.0306 20.7763 19.2149 20.0089C19.7463 17.7864 21.0138 15.7631 22.7827 14.3143L28.2381 9.84797C29.432 8.87119 30.9902 8.43924 32.5171 8.66045C34.044 8.88166 35.4156 9.73805 36.2831 11.0135L40.2468 16.8443C41.544 18.752 42.1831 21.0661 42.049 23.3705C42.0032 24.1239 41.6827 24.8228 41.1403 25.3386L40.9989 25.474L41.2815 25.9778C41.5044 26.356 41.5949 26.8075 41.532 27.2417L40.5234 34.2035C40.4577 34.6568 40.2312 35.0771 39.8904 35.3785L39.5885 35.6465L39.7584 35.9196C40.0358 36.3252 40.1501 36.8143 40.0802 37.2962L39.6364 40.3596C39.5618 40.8749 39.2793 41.3455 38.86 41.6502L38.7186 41.7515L38.9415 42.1638C39.1644 42.542 39.2549 42.9935 39.192 43.4278L37.7562 53.3384C37.3207 56.3445 34.5237 58.4337 31.5175 57.9982L31.5018 58.0056ZM32.2358 10.5684C31.2433 10.4246 30.2329 10.707 29.4544 11.3395L23.9989 15.8058C22.5558 16.9901 21.5175 18.6422 21.0836 20.4599C21.0211 20.7236 21.0682 21.0033 21.2151 21.234C21.7269 22.0389 21.5844 23.0901 20.8733 23.7276L20.5372 24.0297L19.4754 31.3589C19.8087 31.7823 19.9584 32.296 19.8966 32.8229C19.8349 33.3499 19.5729 33.8137 19.1508 34.1375L19.0627 34.2075L18.6175 37.2804L18.7617 37.4962C19.3335 38.2903 19.2277 39.3906 18.5125 40.0567L18.1634 40.3813L16.7263 50.3015C16.4435 52.2531 17.7975 54.0715 19.7491 54.3543L31.7688 56.0956C33.7204 56.3783 35.5395 55.0196 35.8223 53.068L37.2581 43.1573L37.0236 42.758C36.516 41.8903 36.7432 40.793 37.5551 40.1994L37.6964 40.098L38.1416 37.0251L37.9703 36.7616C37.4148 35.9552 37.5547 34.855 38.2869 34.2059L38.5888 33.9379L39.5988 26.9666L39.3148 26.4723C38.8533 25.6893 38.991 24.7057 39.6522 24.0756L39.7937 23.9402C39.9802 23.7626 40.0931 23.5208 40.1066 23.2596C40.2133 21.38 39.6934 19.4875 38.6327 17.9308L34.669 12.0999C34.1068 11.273 33.2133 10.7149 32.2208 10.5711L32.2358 10.5684Z" fill="#3F5753"/>
</g>
<defs>
<clipPath id="clip0_1367_333">
<rect width="54" height="54" fill="white" transform="translate(7.74219) rotate(8.24327)"/>
</clipPath>
</defs>
</svg>
