<svg width="64" height="64" viewBox="0 0 64 64" fill="none" xmlns="http://www.w3.org/2000/svg">
<g clip-path="url(#clip0_1367_420)">
<path d="M22.646 48.0838L34.0171 50.2274C37.1489 50.8178 39.2097 53.8361 38.6193 56.9679C38.346 58.4177 36.9495 59.3712 35.4997 59.0979L18.0355 55.8057C16.5857 55.5323 15.6322 54.1358 15.9055 52.686C16.4959 49.5542 19.5142 47.4934 22.646 48.0838Z" fill="#37635F"/>
<path d="M35.3205 60.0506L17.8563 56.7584C15.8853 56.3868 14.5858 54.4835 14.9573 52.5125C15.6451 48.8643 19.1758 46.4536 22.824 47.1413L34.1952 49.2849C37.8434 49.9727 40.2541 53.5034 39.5664 57.1516C39.1948 59.1226 37.2915 60.4222 35.3205 60.0506ZM22.4668 49.0365C19.8609 48.5453 17.3438 50.2639 16.8525 52.8698C16.6783 53.7937 17.2897 54.689 18.2136 54.8632L35.6778 58.1554C36.6017 58.3296 37.497 57.7183 37.6712 56.7944C38.1624 54.1885 36.4438 51.6713 33.8379 51.1801L22.4668 49.0365Z" fill="#3F5753"/>
<path d="M32.1269 43.4387C32.4002 41.989 31.4466 40.5923 29.9969 40.319C28.5473 40.0458 27.1505 40.9994 26.8773 42.4491L25.5259 49.6176C25.2526 51.0673 26.2063 52.464 27.6559 52.7373C29.1056 53.0106 30.5023 52.0569 30.7756 50.6072L32.1269 43.4387Z" fill="#37635F"/>
<path d="M27.4767 53.69C25.5057 53.3184 24.2062 51.4151 24.5777 49.4441L25.9291 42.2756C26.3006 40.3046 28.204 39.005 30.175 39.3766C32.146 39.7481 33.4455 41.6515 33.074 43.6225L31.7226 50.791C31.351 52.762 29.4477 54.0616 27.4767 53.69ZM29.8177 41.2718C28.8938 41.0976 27.9984 41.7089 27.8243 42.6328L26.4729 49.8014C26.2987 50.7253 26.9101 51.6206 27.834 51.7948C28.7579 51.969 29.6532 51.3577 29.8274 50.4338L31.1788 43.2652C31.3529 42.3413 30.7416 41.4459 29.8177 41.2718Z" fill="#3F5753"/>
<path d="M57.9414 9.85396L15.0627 1.77078C12.7731 1.33916 10.5671 2.84536 10.1355 5.13499L4.80058 33.4349C4.36895 35.7245 5.87516 37.9305 8.16478 38.3622L51.0435 46.4453C53.3331 46.877 55.5391 45.3708 55.9707 43.0811L61.3056 14.7812C61.7373 12.4916 60.231 10.2856 57.9414 9.85396Z" fill="#73E0CF"/>
<path d="M50.8652 47.3932L7.98655 39.31C5.17693 38.7804 3.32374 36.0662 3.85338 33.2566L9.18828 4.95661C9.71704 2.15172 12.4321 0.293788 15.2418 0.823437L58.1205 8.90661C60.9301 9.43626 62.7833 12.1505 62.2536 14.9601L56.9187 43.26C56.3891 46.0697 53.6749 47.9229 50.8652 47.3932ZM14.8845 2.71863C13.122 2.38637 11.4157 3.55135 11.0835 5.31388L5.74857 33.6138C5.41632 35.3763 6.58129 37.0826 8.34382 37.4148L51.2225 45.498C52.985 45.8303 54.6913 44.6653 55.0235 42.9028L60.3584 14.6028C60.6907 12.8403 59.5257 11.1341 57.7632 10.8018L14.8845 2.71863Z" fill="#3F5753"/>
<path d="M10.2466 29.1679L14.2248 8.06493C14.4061 7.10312 15.3296 6.47257 16.2914 6.65388L49.9405 12.9972C50.9024 13.1785 51.5329 14.102 51.3516 15.0638C42.0001 25.8906 28.1081 31.7058 13.8321 30.7613L12.0294 30.6422C10.8738 30.5519 10.049 30.1904 10.2419 29.167L10.2466 29.1679Z" fill="#DFFDF7"/>
<path d="M50.8652 47.3932L7.98655 39.31C5.17693 38.7804 3.32374 36.0662 3.85338 33.2566L9.18828 4.95661C9.71704 2.15172 12.4321 0.293788 15.2418 0.823437L58.1205 8.90661C60.9301 9.43626 62.7833 12.1505 62.2536 14.9601L56.9187 43.26C56.3891 46.0697 53.6749 47.9229 50.8652 47.3932ZM14.8845 2.71863C13.122 2.38637 11.4157 3.55135 11.0835 5.31388L5.74857 33.6138C5.41632 35.3763 6.58129 37.0826 8.34382 37.4148L51.2225 45.498C52.985 45.8303 54.6913 44.6653 55.0235 42.9028L60.3584 14.6028C60.6907 12.8403 59.5257 11.1341 57.7632 10.8018L14.8845 2.71863Z" fill="#3F5753"/>
<path d="M36.8245 17.7956L19.6304 14.5543C19.1092 14.456 18.7632 13.9492 18.8614 13.4281C18.9597 12.9069 19.4665 12.5609 19.9876 12.6591L37.177 15.8995C37.6982 15.9978 38.0442 16.5046 37.946 17.0257C37.8477 17.5469 37.3409 17.893 36.8197 17.7947L36.8245 17.7956Z" fill="#4F9D91"/>
<path d="M29.7144 22.6666L18.5044 20.5533C17.9832 20.4551 17.6372 19.9483 17.7354 19.4271C17.8337 18.9059 18.3405 18.5599 18.8617 18.6581L30.0717 20.7714C30.5929 20.8696 30.9389 21.3764 30.8407 21.8976C30.7424 22.4188 30.2356 22.7648 29.7144 22.6666Z" fill="#4F9D91"/>
</g>
<defs>
<clipPath id="clip0_1367_420">
<rect width="54" height="54" fill="white" transform="translate(10.1035 0.100586) rotate(10.6757)"/>
</clipPath>
</defs>
</svg>
