<svg width="73" height="73" viewBox="0 0 73 73" fill="none" xmlns="http://www.w3.org/2000/svg">
<path d="M50.6672 25.5358C50.4489 25.4752 50.3099 25.2671 50.3386 25.0455L50.8267 21.0041L44.9642 19.3761L43.2985 23.0905C43.2089 23.2952 42.9774 23.4004 42.7642 23.3412L38.8863 22.2643C38.0082 22.0205 37.0715 22.0665 36.2193 22.3984L24.988 26.7751C23.7499 27.2568 22.8039 28.3008 22.4487 29.5799L16.5724 50.7408C15.9479 52.9893 17.2641 55.3176 19.5127 55.942L40.5975 61.7972C42.846 62.4216 45.1743 61.1054 45.7987 58.8569L53.6075 30.7371C54.2319 28.4885 52.9158 26.1603 50.6672 25.5358ZM36.9162 31.2684L30.4942 33.6237C29.4038 34.0262 28.1941 33.4606 27.7967 32.3716C27.3993 31.2827 27.9598 30.0715 29.0488 29.6741L35.4707 27.3188C36.5611 26.9163 37.7709 27.4819 38.1683 28.5709C38.5657 29.6599 38.0052 30.871 36.9162 31.2684Z" fill="#3F5753"/>
<path d="M40.3144 62.8174L19.2297 56.9622C16.4227 56.1828 14.778 53.2658 15.5561 50.4639L21.4324 29.303C21.875 27.7092 23.0592 26.3979 24.6033 25.7989L35.8346 21.4222C36.8895 21.0099 38.0758 20.9512 39.1671 21.2542L42.5476 22.193L44.0004 18.9498C44.2146 18.4735 44.7425 18.2265 45.245 18.366L51.1075 19.994C51.61 20.1336 51.9349 20.6174 51.8729 21.136L51.4434 24.6907C53.9464 25.6591 55.3582 28.3911 54.6266 31.0254L46.8178 59.1453C46.0383 61.9522 43.1213 63.5969 40.3195 62.8188L40.3144 62.8174ZM38.5996 23.278C37.9448 23.0962 37.2345 23.1341 36.5981 23.3783L25.3668 27.7549C24.4411 28.1157 23.7305 28.9024 23.4641 29.8618L17.5878 51.0227C17.1198 52.7078 18.1097 54.4589 19.7949 54.9268L40.8797 60.782C42.5648 61.25 44.3159 60.2601 44.7838 58.575L52.5926 30.4551C53.0606 28.77 52.0707 27.019 50.3856 26.551C49.6648 26.3508 49.2046 25.6654 49.2916 24.9187L49.6721 21.7768L45.5505 20.6323L44.2565 23.5204C43.946 24.2051 43.1983 24.5551 42.4775 24.3549L38.5996 23.278ZM28.9256 34.6861C27.9765 34.4225 27.1652 33.7215 26.8011 32.7293C26.2006 31.0918 27.0439 29.2758 28.6813 28.6754L35.1033 26.32C35.8942 26.0312 36.7534 26.0676 37.5187 26.4222C38.284 26.7769 38.8633 27.4079 39.1572 28.2003C39.446 28.9912 39.4097 29.8504 39.055 30.6158C38.7003 31.3811 38.0693 31.9603 37.2769 32.2542L30.855 34.6095C30.2098 34.8459 29.5398 34.8566 28.9256 34.6861ZM36.4673 28.2789C36.2592 28.2211 36.0328 28.2293 35.8264 28.3032L29.4044 30.6585C28.8625 30.8579 28.5797 31.4628 28.7791 32.0047C28.9785 32.5467 29.5834 32.8294 30.1253 32.63L36.5473 30.2747C36.8092 30.178 37.0213 29.9854 37.1417 29.7291C37.2621 29.4727 37.2694 29.1905 37.174 28.9234C37.0773 28.6615 36.8847 28.4494 36.6284 28.3291C36.5753 28.3034 36.5209 28.2828 36.4651 28.2673L36.4673 28.2789Z" fill="#37635F"/>
<path d="M23.1503 37.7453L19.3488 51.4347C19.1712 52.0742 19.5807 52.7456 20.2608 52.9345L34.5898 56.9136C35.1836 57.0785 35.7721 56.7116 35.8394 56.1344C36.254 52.417 36.6388 40.2226 24.3583 37.0966C23.8276 36.9602 23.2884 37.2479 23.1503 37.7453Z" fill="#5BB5A7"/>
<path d="M34.3126 57.9299L19.9836 53.9508C18.7452 53.6069 18.0057 52.3519 18.3384 51.154L22.1399 37.4646C22.4288 36.4241 23.5415 35.8036 24.6246 36.0771C30.2302 37.508 34.0186 40.8562 35.8589 46.0417C37.2979 50.0934 37.1256 54.1788 36.8943 56.2522C36.8297 56.8193 36.5173 57.334 36.04 57.6552C35.5367 57.991 34.9129 58.0912 34.3191 57.9263L34.3126 57.9299ZM24.1369 38.1285L20.3636 51.7164C20.3467 51.7773 20.4053 51.881 20.5424 51.9191L34.8053 55.8799C35.1818 52.2995 35.3964 41.2498 24.4784 38.2179C24.3667 38.1869 24.25 38.1544 24.1333 38.122L24.1369 38.1285Z" fill="#37635F"/>
<path d="M46.3498 14.9384L52.1971 16.5622C53.1615 16.83 53.7297 17.8353 53.4619 18.7997L52.4344 22.4999L43.0848 19.9035L44.1123 16.2033C44.3802 15.2389 45.3854 14.6706 46.3498 14.9384Z" fill="#5BB5A7"/>
<path d="M52.1543 23.5104L42.8047 20.914C42.2464 20.7589 41.9164 20.1753 42.0714 19.6169L43.099 15.9167C43.5219 14.394 45.1057 13.4943 46.6335 13.9186L52.4808 15.5424C54.0035 15.9652 54.9032 17.5491 54.4789 19.0769L53.4513 22.7771C53.2963 23.3354 52.7126 23.6654 52.1543 23.5104ZM44.3837 19.1656L51.7029 21.1981L52.4486 18.5131C52.5613 18.107 52.323 17.6854 51.917 17.5727L46.0697 15.9489C45.6636 15.8361 45.2421 16.0744 45.1293 16.4805L44.3837 19.1656Z" fill="#37635F"/>
<path d="M37.2587 47.1253C36.4947 49.8764 33.6411 51.4895 30.8901 50.7256C28.139 49.9616 26.5259 47.1081 27.2898 44.357C28.0538 41.6059 34.8819 36.351 34.8819 36.351C34.8819 36.351 38.024 44.3692 37.2587 47.1253Z" fill="#BAFAEE"/>
<path d="M30.6082 51.7408C27.2987 50.8218 25.3556 47.3846 26.2746 44.0752C27.1091 41.0703 33.51 36.074 34.2389 35.5164C34.767 35.1109 35.6197 35.3477 35.8631 35.9675C36.2002 36.821 39.1082 44.4025 38.2738 47.4073C37.3548 50.7167 33.9176 52.6598 30.6082 51.7408ZM34.4012 38.0819C31.9084 40.1287 28.725 43.1264 28.305 44.639C27.6975 46.8267 28.9843 49.103 31.172 49.7105C33.3596 50.318 35.636 49.0312 36.2435 46.8435C36.6649 45.3258 35.4817 41.121 34.4012 38.0819Z" fill="#37635F"/>
<path d="M47.3519 36.0573L51.7881 37.2893L50.645 41.4057L46.2087 40.1738C45.158 39.882 44.537 38.7911 44.8302 37.7353L44.9134 37.4358C45.2051 36.3852 46.2961 35.7641 47.3519 36.0573Z" fill="#009081"/>
<path d="M50.3629 42.4211L45.9267 41.1891C44.3176 40.7423 43.3667 39.0677 43.8149 37.4536L43.8981 37.1541C44.3449 35.5451 46.0195 34.5941 47.6336 35.0424L52.0698 36.2743C52.6282 36.4293 52.9581 37.013 52.8031 37.5714L51.6614 41.6827C51.5063 42.2411 50.9226 42.571 50.3643 42.416L50.3629 42.4211ZM47.0698 37.0727C46.5774 36.9359 46.0651 37.2256 45.9284 37.7179L45.8452 38.0174C45.7085 38.5098 45.9981 39.0221 46.4905 39.1588L49.9116 40.1088L50.4895 38.0278L47.0684 37.0777L47.0698 37.0727Z" fill="#37635F"/>
<path d="M45.2571 43.6003L49.6934 44.8322L48.5502 48.9487L44.114 47.7168C43.0633 47.425 42.4423 46.334 42.7355 45.2783L42.8186 44.9788C43.1104 43.9281 44.2014 43.3071 45.2571 43.6003Z" fill="#009081"/>
<path d="M48.2682 49.964L43.8319 48.7321C42.2229 48.2853 41.2719 46.6107 41.7202 44.9966L41.8033 44.6971C42.2502 43.0881 43.9248 42.1371 45.5389 42.5853L49.9751 43.8173C50.5334 43.9723 50.8634 44.556 50.7084 45.1143L49.5652 49.2308C49.4102 49.7891 48.8265 50.1191 48.2682 49.964ZM44.9751 44.6156C44.4827 44.4789 43.9704 44.7686 43.8337 45.2609L43.7505 45.5604C43.6138 46.0527 43.9034 46.5651 44.3958 46.7018L47.8168 47.6518L48.3961 45.5657L44.9751 44.6156Z" fill="#37635F"/>
<path d="M43.1634 51.1423L47.5996 52.3742L46.4565 56.4907L42.0202 55.2587C40.9696 54.967 40.3486 53.876 40.6417 52.8203L40.7249 52.5208C41.0167 51.4701 42.1076 50.8491 43.1634 51.1423Z" fill="#009081"/>
<path d="M46.1744 57.506L41.7382 56.2741C40.1292 55.8273 39.1782 54.1526 39.6264 52.5385L39.7096 52.2391C40.1564 50.6301 41.831 49.6791 43.4451 50.1273L47.8814 51.3593C48.4397 51.5143 48.7697 52.098 48.6146 52.6563L47.4715 56.7728C47.3164 57.3311 46.7328 57.6611 46.1744 57.506ZM42.8813 52.1576C42.389 52.0209 41.8766 52.3105 41.7399 52.8029L41.6567 53.1024C41.52 53.5947 41.8097 54.1071 42.302 54.2438L45.7231 55.1938L46.3024 53.1077L42.8813 52.1576Z" fill="#37635F"/>
<path d="M30.8002 46.9555C31.6608 47.1945 32.5522 46.6906 32.7912 45.83C33.0302 44.9694 32.5263 44.078 31.6657 43.839C30.8051 43.6 29.9137 44.1039 29.6747 44.9645C29.4357 45.8251 29.9396 46.7165 30.8002 46.9555Z" fill="#EEEEEE"/>
</svg>
