<svg width="59" height="59" viewBox="0 0 59 59" fill="none" xmlns="http://www.w3.org/2000/svg">
<g clip-path="url(#clip0_1367_487)">
<path d="M37.0255 18.6663L15.5381 16.9404L12.5719 53.8694L34.0593 55.5953L37.0255 18.6663Z" fill="#DFFDF7"/>
<path d="M33.9823 56.5568L12.4949 54.8309C11.9662 54.7884 11.5684 54.3211 11.6109 53.7925L14.5771 16.8635C14.6196 16.3349 15.0868 15.9371 15.6155 15.9795L37.1029 17.7055C37.6315 17.7479 38.0293 18.2152 37.9869 18.7439L35.0207 55.6728C34.9782 56.2014 34.5109 56.5992 33.9823 56.5568ZM13.6105 52.9857L33.1755 54.5572L35.9873 19.5506L16.4223 17.9791L13.6105 52.9857Z" fill="#3F5753"/>
<path d="M22.975 2.46592L39.3777 3.78342C40.781 3.89614 41.8285 5.12664 41.7158 6.52998L41.4441 9.91336L19.9567 8.18746L20.2284 4.80407C20.3411 3.40073 21.5716 2.35321 22.975 2.46592Z" fill="#BAFAEE"/>
<path d="M41.367 10.8749L19.8796 9.14895C19.351 9.10649 18.9532 8.63921 18.9957 8.11056L19.2674 4.72717C19.4226 2.79518 21.1204 1.34986 23.0524 1.50504L39.4551 2.82254C41.3871 2.97772 42.8324 4.6755 42.6772 6.60749L42.4054 9.99088C42.363 10.5195 41.8957 10.9173 41.367 10.8749ZM20.9952 7.30378L40.5603 8.87528L40.7548 6.45308C40.8251 5.5784 40.1705 4.81479 39.3007 4.74492L22.898 3.42742C22.0233 3.35717 21.2597 4.0117 21.1898 4.88158L20.9952 7.30378Z" fill="#3F5753"/>
<path d="M41.444 9.913L19.9566 8.18709L15.5387 16.9402L37.0261 18.6661L41.444 9.913Z" fill="#DFFDF7"/>
<path d="M36.9488 19.6277L15.4614 17.9018C15.1394 17.8759 14.8542 17.6934 14.6976 17.4148C14.541 17.1362 14.5344 16.7971 14.6785 16.5087L19.0959 7.76041C19.2739 7.41193 19.6436 7.20462 20.0329 7.23589L41.5203 8.96179C41.8423 8.98766 42.1275 9.17019 42.2841 9.4488C42.4407 9.72741 42.4473 10.0665 42.3032 10.3548L37.8858 19.1032C37.7078 19.4517 37.3381 19.659 36.9488 19.6277ZM17.0432 16.0941L36.4544 17.6532L39.9293 10.7639L20.5181 9.2048L17.0384 16.0937L17.0432 16.0941Z" fill="#3F5753"/>
<path d="M37.026 18.6658L41.4439 9.91268L41.4103 9.90997L44.3743 19.256L41.4081 56.185L34.0598 55.5947L37.026 18.6658Z" fill="#DFFDF7"/>
<path d="M41.3311 57.1465L33.9828 56.5562C33.4542 56.5138 33.0564 56.0465 33.0989 55.5179L36.0651 18.5889C36.0751 18.464 36.1092 18.3409 36.1665 18.2295L40.4697 9.69928C40.5005 9.55665 40.5642 9.42633 40.6559 9.30794C40.855 9.05789 41.1657 8.92323 41.4877 8.94909C41.8097 8.97496 42.1093 9.15864 42.2659 9.43725C42.3339 9.55397 42.3719 9.68278 42.3903 9.81486L45.293 18.9625C45.3318 19.0817 45.3458 19.2086 45.3357 19.3336L42.3695 56.2625C42.3271 56.7911 41.8598 57.1889 41.3311 57.1465ZM35.0984 54.7111L40.5244 55.1469L43.3983 19.3666L41.222 12.4974L37.9772 18.9311L35.1032 54.7115L35.0984 54.7111Z" fill="#3F5753"/>
<path d="M29.2272 27.1722L20.0382 26.4342C19.5096 26.3917 19.1118 25.9244 19.1542 25.3958C19.1967 24.8671 19.664 24.4693 20.1926 24.5118L29.3816 25.2499C29.9103 25.2923 30.3081 25.7596 30.2656 26.2882C30.2231 26.8169 29.7559 27.2147 29.2272 27.1722Z" fill="#3F5753"/>
<path d="M22.8199 30.4691L19.7345 30.2213C19.2059 30.1788 18.8081 29.7115 18.8505 29.1829C18.893 28.6542 19.3603 28.2564 19.8889 28.2989L22.9743 28.5467C23.503 28.5892 23.9008 29.0565 23.8583 29.5851C23.8159 30.1138 23.3486 30.5116 22.8199 30.4691Z" fill="#3F5753"/>
<path d="M20.1592 35.2956C21.2575 38.4843 20.7747 39.1953 20.7747 39.1953C20.7747 39.1953 17.6596 39.3175 17.1221 41.0108C17.1221 41.0108 19.1604 42.3112 20.5477 42.0211" fill="white"/>
<path d="M19.82 43.012C18.3253 42.892 16.805 41.9476 16.6024 41.82C16.2341 41.5873 16.0722 41.1341 16.2027 40.7141C16.7338 39.0397 18.7318 38.494 19.9024 38.3123C19.8674 37.8451 19.7271 37.0019 19.2445 35.6039C19.072 35.1016 19.3386 34.5522 19.841 34.3797C20.3482 34.2076 20.8927 34.4739 21.0652 34.9763C22.1 37.9906 21.9091 39.2232 21.5635 39.7323C21.3933 39.9847 21.1099 40.1409 20.804 40.155C20.1438 40.1842 19.2195 40.3712 18.6171 40.7049C19.2389 40.9725 19.9105 41.1619 20.3431 41.0757C20.8645 40.9677 21.3744 41.3037 21.4829 41.8203C21.5909 42.3417 21.2597 42.8519 20.7335 42.9596C20.4382 43.023 20.1231 43.0315 19.8107 43.0064L19.82 43.012Z" fill="#3F5753"/>
<path d="M31.9523 12.7006C31.8249 14.2866 29.7751 15.4182 27.3721 15.2252C24.9691 15.0322 23.1261 13.5879 23.2535 12.0019L23.4844 9.12793L32.1831 9.82663L31.9523 12.7006Z" fill="#5BB5A7"/>
<path d="M27.2951 16.1867C24.3154 15.9474 22.12 14.0733 22.2925 11.925L22.5234 9.05103C22.5658 8.52238 23.0331 8.12459 23.5618 8.16705L32.2605 8.86575C32.7892 8.90821 33.187 9.37549 33.1445 9.90414L32.9137 12.7781C32.7407 14.9312 30.2748 16.426 27.2951 16.1867ZM24.3686 10.1666L24.2149 12.0794C24.1423 12.9829 25.4502 14.1037 27.4495 14.2643C29.4488 14.4249 30.9187 13.5272 30.9913 12.6237L31.1449 10.7109L24.3686 10.1666Z" fill="#3F5753"/>
<path d="M27.6309 11.9957C30.033 12.1886 32.0836 11.0583 32.2111 9.4711C32.3386 7.88385 30.4946 6.44073 28.0925 6.24779C25.6904 6.05485 23.6398 7.18515 23.5123 8.7724C23.3848 10.3596 25.2288 11.8028 27.6309 11.9957Z" fill="#5BB5A7"/>
<path d="M27.5539 12.9572C24.5742 12.7179 22.3788 10.8438 22.5513 8.6955C22.7239 6.54724 25.1903 5.04757 28.1699 5.28691C31.1496 5.52624 33.345 7.40035 33.1725 9.54861C32.9999 11.6969 30.5335 13.1965 27.5539 12.9572ZM28.0155 7.20929C26.0211 7.04909 24.5463 7.94639 24.4737 8.84991C24.4011 9.75343 25.709 10.8742 27.7083 11.0348C29.7075 11.1954 31.1775 10.2977 31.2501 9.3942C31.3227 8.49068 30.0148 7.36987 28.0155 7.20929Z" fill="#3F5753"/>
<path d="M28.0077 42.5374C28.0077 42.5374 29.9939 42.6195 31.5813 42.1279C31.5813 42.1279 30.5053 39.6858 28.8309 39.6965" fill="white"/>
<path d="M27.9305 43.4988C27.4162 43.4575 27.0257 43.0199 27.0434 42.4989C27.0666 41.9687 27.5158 41.5549 28.0464 41.5734C28.0608 41.5745 29.0015 41.6065 30.0477 41.4681C29.696 41.0287 29.2661 40.6604 28.8357 40.6597C28.2987 40.6601 27.8686 40.2338 27.8679 39.7016C27.8671 39.1695 28.2938 38.7346 28.8259 38.7338C31.0665 38.7203 32.3287 41.4336 32.4637 41.7395C32.5742 41.9903 32.5751 42.2805 32.4585 42.5275C32.3419 42.7745 32.1283 42.9654 31.8651 43.0506C30.1389 43.5843 28.0558 43.5041 27.9641 43.5015C27.9497 43.5004 27.9401 43.4996 27.9257 43.4985L27.9305 43.4988Z" fill="#3F5753"/>
<path d="M20.7744 39.1943L28.2332 39.7934L27.5847 47.8674C27.5145 48.7421 26.7461 49.3963 25.8714 49.326L21.5893 48.9821C20.7146 48.9118 20.0604 48.1434 20.1307 47.2687L20.7792 39.1947L20.7744 39.1943Z" fill="white"/>
<path d="M25.7896 50.2871L21.5075 49.9432C20.1041 49.8305 19.0522 48.5948 19.1649 47.1914L19.8134 39.1174C19.8559 38.5888 20.3232 38.191 20.8518 38.2335L28.3107 38.8326C28.8393 38.875 29.2371 39.3423 29.1946 39.871L28.5461 47.945C28.4334 49.3483 27.1977 50.4002 25.7944 50.2875L25.7896 50.2871ZM21.659 40.2282L21.0877 47.341C21.0599 47.6871 21.3162 47.9882 21.6623 48.016L25.9444 48.3599C26.2904 48.3877 26.5915 48.1314 26.6193 47.7853L27.1906 40.6725L21.6542 40.2278L21.659 40.2282Z" fill="#3F5753"/>
<path d="M28.0538 40.7666C27.6213 40.7319 27.2467 40.3971 27.1713 39.9509C27.1317 39.7204 26.9978 38.4375 28.3671 35.6018C28.5991 35.1222 29.1762 34.9219 29.6558 35.1539C30.1354 35.3859 30.3357 35.963 30.1037 36.4426C29.0082 38.7005 29.0771 39.6493 29.0763 39.6589C29.1696 40.1839 28.8166 40.6635 28.2916 40.7567C28.2132 40.7698 28.1307 40.7728 28.0538 40.7666Z" fill="#3F5753"/>
<path d="M20.3252 44.7891L27.784 45.3882L27.5848 47.868C27.5146 48.7427 26.7462 49.3969 25.8715 49.3266L21.5894 48.9827C20.7147 48.9124 20.0606 48.144 20.1308 47.2693L20.33 44.7894L20.3252 44.7891Z" fill="#6ED5C5"/>
<path d="M25.7897 50.2877L21.5076 49.9438C20.1042 49.8311 19.0523 48.5954 19.165 47.192L19.3642 44.7122C19.4067 44.1835 19.8739 43.7857 20.4026 43.8282L27.8614 44.4273C28.3901 44.4698 28.7879 44.937 28.7454 45.4657L28.5462 47.9456C28.4335 49.3489 27.1978 50.4008 25.7945 50.2881L25.7897 50.2877ZM21.2094 45.8278L21.0874 47.3464C21.0596 47.6925 21.316 47.9936 21.662 48.0214L25.9441 48.3653C26.2901 48.3931 26.5912 48.1368 26.619 47.7908L26.741 46.2721L21.2046 45.8274L21.2094 45.8278Z" fill="#3F5753"/>
</g>
<defs>
<clipPath id="clip0_1367_487">
<rect width="54" height="54" fill="white" transform="translate(4.32324) rotate(4.59225)"/>
</clipPath>
</defs>
</svg>
