<svg width="61" height="61" viewBox="0 0 61 61" fill="none" xmlns="http://www.w3.org/2000/svg">
<g clip-path="url(#clip0_1367_554)">
<path d="M51.1416 8.60783L14.7029 4.19065C13.812 4.08266 13.0023 4.71729 12.8943 5.60813L7.55053 49.6908C7.44254 50.5816 8.07717 51.3913 8.96801 51.4993L45.4068 55.9165C46.2976 56.0245 47.1074 55.3899 47.2153 54.499L52.5591 10.4164C52.6671 9.52553 52.0325 8.71581 51.1416 8.60783Z" fill="#DFFDF7"/>
<path d="M45.2911 56.8735L8.8475 52.4557C7.43073 52.284 6.41704 50.9906 6.58878 49.5738L11.9326 5.49119C12.1043 4.07442 13.3977 3.06073 14.8144 3.23247L51.2532 7.64965C52.67 7.82139 53.6837 9.11474 53.5119 10.5315L48.1676 54.619C47.9958 56.0357 46.7025 57.0494 45.2857 56.8777L45.2911 56.8735ZM14.5823 5.14703C14.2234 5.10351 13.8912 5.35951 13.8471 5.72328L8.50276 49.8107C8.45924 50.1697 8.71524 50.5018 9.07901 50.5459L45.5178 54.9631C45.8768 55.0066 46.2089 54.7506 46.253 54.3869L51.5974 10.2994C51.6409 9.94045 51.3849 9.6083 51.0211 9.56421L14.5823 5.14703Z" fill="#3F5753"/>
<path d="M31.2735 6.19904L17.0723 4.47754L16.1555 12.04L30.3567 13.7615L31.2735 6.19904Z" fill="#DFFDF7"/>
<path d="M30.2411 14.7189L16.0399 12.9974C15.5134 12.9336 15.1348 12.4506 15.1987 11.9241L16.1154 4.36157C16.1792 3.83507 16.6622 3.45652 17.1887 3.52034L31.3899 5.24184C31.9164 5.30566 32.295 5.78866 32.2312 6.31516L31.3144 13.8777C31.2506 14.4042 30.7676 14.7827 30.2411 14.7189ZM17.2293 11.1989L29.5159 12.6883L30.2006 7.04035L17.9139 5.55094L17.2293 11.1989Z" fill="#3F5753"/>
<path d="M36.574 14.5156C37.8931 14.6755 39.092 13.7358 39.2519 12.4167C39.4118 11.0976 38.4721 9.89865 37.1531 9.73875C35.834 9.57884 34.635 10.5185 34.4751 11.8376C34.3152 13.1567 35.2549 14.3557 36.574 14.5156Z" fill="#DFFDF7"/>
<path d="M36.4584 15.4729C34.6156 15.2495 33.2943 13.5692 33.5183 11.7217C33.7422 9.87412 35.422 8.55758 37.2695 8.78155C39.1171 9.00551 40.4336 10.6853 40.2096 12.5328C39.9857 14.3804 38.3059 15.6969 36.4584 15.4729ZM37.0374 10.6961C36.2477 10.6004 35.5285 11.164 35.4328 11.9537C35.3371 12.7435 35.9007 13.4626 36.6905 13.5584C37.4802 13.6541 38.1993 13.0905 38.2951 12.3007C38.3908 11.511 37.8272 10.7918 37.0374 10.6961Z" fill="#3F5753"/>
<path d="M45.989 15.6562C47.3081 15.8161 48.5071 14.8764 48.667 13.5573C48.8269 12.2382 47.8872 11.0393 46.5681 10.8794C45.249 10.7195 44.0501 11.6592 43.8902 12.9783C43.7303 14.2973 44.67 15.4963 45.989 15.6562Z" fill="#DFFDF7"/>
<path d="M45.8734 16.6136C45.0166 16.5097 44.1993 16.0804 43.6273 15.3505C42.4784 13.8902 42.736 11.7651 44.2005 10.6216C45.6602 9.47751 47.7854 9.73513 48.9295 11.1948C50.0783 12.6551 49.8207 14.7803 48.3562 15.9238C47.6264 16.4958 46.7301 16.7175 45.8734 16.6136ZM46.4519 11.8416C46.0833 11.7969 45.7027 11.8916 45.3914 12.1356C44.7636 12.6277 44.6539 13.5323 45.146 14.1602C45.6381 14.7881 46.5428 14.8977 47.1707 14.4056C47.7985 13.9135 47.9082 13.0089 47.4161 12.381C47.1721 12.0697 46.8204 11.8862 46.4566 11.8421L46.4519 11.8416Z" fill="#3F5753"/>
<path d="M8.54102 43.3604L14.5814 44.0926C16.2423 44.2939 17.4285 45.8073 17.2271 47.4682L16.7044 51.7807" fill="#DFFDF7"/>
<path d="M16.5887 52.7381C16.0622 52.6742 15.6837 52.1913 15.7475 51.6648L16.2703 47.3522C16.4078 46.2178 15.6002 45.1875 14.4658 45.0499L8.42539 44.3177C7.89888 44.2539 7.52033 43.7709 7.58415 43.2444C7.64798 42.7179 8.13097 42.3393 8.65747 42.4032L14.6979 43.1354C16.8853 43.4005 18.45 45.3969 18.1848 47.5843L17.662 51.8968C17.5982 52.4233 17.1152 52.8019 16.5887 52.7381Z" fill="#3F5753"/>
<path d="M28.0152 46.8575C35.8662 47.8092 43.0023 42.2162 43.954 34.3652C44.9057 26.5141 39.3127 19.3781 31.4617 18.4264C23.6106 17.4746 16.4746 23.0677 15.5229 30.9187C14.5711 38.7698 20.1641 45.9058 28.0152 46.8575Z" fill="#DFFDF7"/>
<path d="M27.8996 47.8149C19.533 46.8007 13.5518 39.1693 14.566 30.8027C15.5802 22.4361 23.2115 16.4549 31.5781 17.4692C39.9447 18.4834 45.9259 26.1147 44.9117 34.4813C43.8975 42.8479 36.2662 48.8291 27.8996 47.8149ZM31.346 19.3837C24.0372 18.4977 17.3665 23.726 16.4805 31.0348C15.5946 38.3436 20.8228 45.0143 28.1317 45.9003C35.4405 46.7863 42.1112 41.558 42.9971 34.2492C43.8831 26.9404 38.6549 20.2697 31.346 19.3837Z" fill="#3F5753"/>
<path d="M28.5594 42.3682C33.9308 43.0193 38.8132 39.1927 39.4643 33.8212C40.1154 28.4498 36.2888 23.5674 30.9174 22.9163C25.5459 22.2652 20.6636 26.0918 20.0124 31.4633C19.3613 36.8347 23.1879 41.7171 28.5594 42.3682Z" fill="#5BB5A7"/>
<path d="M28.4437 43.3255C22.5517 42.6113 18.3413 37.2393 19.0555 31.3473C19.7698 25.4552 25.1418 21.2449 31.0338 21.9591C36.9259 22.6733 41.1362 28.0453 40.422 33.9374C39.7077 39.8294 34.3358 44.0398 28.4437 43.3255ZM30.8023 23.8689C25.968 23.2829 21.5567 26.7403 20.9707 31.5746C20.3847 36.4088 23.8421 40.8202 28.6764 41.4062C33.5106 41.9922 37.922 38.5347 38.508 33.7005C39.094 28.8662 35.6366 24.4549 30.8023 23.8689Z" fill="#3F5753"/>
<path d="M34.7444 34.2201C34.2178 34.1563 33.8393 33.6733 33.9031 33.1468C34.1816 30.8493 32.5412 28.7564 30.2437 28.4779C29.7172 28.414 29.3387 27.931 29.4025 27.4045C29.4663 26.878 29.9493 26.4995 30.4758 26.5633C33.8263 26.9695 36.2238 30.0284 35.8177 33.3789C35.7538 33.9054 35.2709 34.284 34.7444 34.2201Z" fill="white"/>
<path d="M30.7834 37.4458C27.4623 36.5964 25.1482 33.4504 25.3053 30.0309C25.3314 29.4949 25.4133 28.9803 25.5412 28.4859C25.7464 27.7143 24.7829 27.2089 24.2541 27.8053C23.1178 29.0858 22.4178 30.7736 22.4201 32.6777C22.4205 35.9998 24.7519 38.9633 27.9788 39.7479C29.8422 40.202 31.6698 39.9088 33.1918 39.0928C33.8931 38.7164 33.623 37.6589 32.8235 37.6834C32.1556 37.7044 31.47 37.631 30.7822 37.4554L30.7834 37.4458Z" fill="#6FD3C3"/>
</g>
<defs>
<clipPath id="clip0_1367_554">
<rect width="54" height="54" fill="white" transform="translate(6.49805) rotate(6.91178)"/>
</clipPath>
</defs>
</svg>
