<svg width="68" height="68" viewBox="0 0 68 68" fill="none" xmlns="http://www.w3.org/2000/svg">
<g clip-path="url(#clip0_1766_3045)">
<path d="M53.3022 20.63L37.0124 8.60273L28.2508 20.4694L51.9842 37.9927L56.365 32.0593L54.567 30.7318C51.4505 28.4308 50.8876 23.9128 53.3082 20.6345L53.3022 20.63Z" fill="#53918C"/>
<path d="M52.1363 39.0348C51.8706 39.0748 51.5893 39.0106 51.3555 38.838L27.6221 21.3148C27.1547 20.9696 27.0551 20.3081 27.4002 19.8406L36.1618 7.9739C36.507 7.50642 37.1686 7.40684 37.636 7.75199L53.9258 19.7793C54.1535 19.9475 54.3021 20.1914 54.3437 20.4675C54.3852 20.7436 54.3158 21.0258 54.1469 21.2483C52.076 24.0531 52.5408 27.92 55.1839 29.8714L56.9819 31.1989C57.4493 31.5441 57.5489 32.2057 57.2038 32.6731L52.823 38.6065C52.6504 38.8402 52.4004 38.9844 52.1347 39.0244L52.1363 39.0348ZM29.7203 20.2478L51.7576 36.5188L54.8861 32.2815L53.9332 31.5779C50.6309 29.1397 49.8088 24.5276 51.8772 20.8921L37.2296 10.0772L29.7203 20.2478Z" fill="#37635F"/>
<path d="M35.349 25.7121L42.1296 30.7185L21.1998 59.0658C20.3174 60.2609 18.6304 60.5148 17.4353 59.6324L14.9816 57.8207C13.7865 56.9384 13.5325 55.2513 14.4149 54.0563L35.3447 25.709L35.349 25.7121Z" fill="#70EBD8"/>
<path d="M19.5947 61.1675C18.6467 61.3102 17.6445 61.0935 16.8166 60.4777L14.3654 58.6678C12.7053 57.4421 12.3516 55.0927 13.5774 53.4326L34.5079 25.0843C34.8398 24.6348 35.5326 24.5306 35.9821 24.8624L42.7605 29.8672C43.228 30.2123 43.3276 30.8739 42.9824 31.3414L22.0519 59.6896C21.4368 60.5227 20.5428 61.0248 19.6 61.1668L19.5947 61.1675ZM35.5704 27.1885L15.2682 54.6857C14.7328 55.4109 14.8873 56.4371 15.6125 56.9725L18.0637 58.7823C18.7889 59.3178 19.8151 59.1633 20.3506 58.4381L40.6572 30.9349L35.5689 27.178L35.5704 27.1885Z" fill="#37635F"/>
<path d="M33.372 17.7165L32.1595 19.3586C31.9515 19.6403 31.9999 20.0326 32.2696 20.2317L46.9412 31.0642C47.1929 31.2501 47.5415 30.9472 47.3875 30.6668C46.7075 29.4054 45.888 27.4298 46.1299 25.6034C46.2469 24.7175 45.9104 23.8625 45.2204 23.3484L36.7819 17.1179C35.7211 16.3347 34.1958 16.6069 33.3728 17.7217L33.372 17.7165Z" fill="#6FD3C3"/>
<path d="M9.80219 18.414C11.6952 18.129 13.1136 17.1261 12.9703 16.1738C12.8269 15.2215 11.1761 14.6805 9.2831 14.9655C7.39007 15.2504 5.97167 16.2534 6.11501 17.2057C6.25835 18.158 7.90916 18.6989 9.80219 18.414Z" fill="#53918C"/>
<path d="M9.95943 19.4561C7.37047 19.8458 5.3151 18.9672 5.07359 17.3628C4.83208 15.7583 6.53774 14.3136 9.1267 13.9239C11.7157 13.5342 13.771 14.4128 14.0125 16.0172C14.254 17.6216 12.5484 19.0663 9.95943 19.4561ZM7.1781 17.046C7.38971 17.2485 8.28098 17.5778 9.64578 17.3724C11.0106 17.1669 11.7654 16.5899 11.908 16.334C11.6964 16.1315 10.8051 15.8021 9.44034 16.0076C8.07554 16.213 7.32071 16.7901 7.1781 17.046Z" fill="#37635F"/>
<path d="M11.7211 31.1559C11.1481 31.2422 10.6087 30.8439 10.5224 30.2709L8.76131 18.5711C8.67506 17.9981 9.07332 17.4587 9.64633 17.3725C10.2193 17.2862 10.7587 17.6845 10.845 18.2575L12.6061 29.9573C12.6924 30.5303 12.2941 31.0697 11.7211 31.1559Z" fill="#37635F"/>
<path d="M24.7721 26.3542C25.1276 25.4592 23.9734 24.1609 22.1942 23.4543C20.415 22.7477 18.6846 22.9005 18.3291 23.7955C17.9737 24.6905 19.1279 25.9888 20.9071 26.6954C22.6862 27.402 24.4167 27.2492 24.7721 26.3542Z" fill="#53918C"/>
<path d="M23.7141 28.157C22.8025 28.2942 21.6876 28.1424 20.5152 27.6796C19.5064 27.2774 18.6191 26.6918 18.0278 26.019C17.2712 25.1687 17.0271 24.2199 17.3474 23.4099C17.9462 21.9027 20.1463 21.513 22.5823 22.4781C25.0182 23.4432 26.3489 25.2406 25.75 26.7478C25.4415 27.5294 24.6986 28.0088 23.7141 28.157ZM19.3245 24.1937C19.4041 24.4747 20.0101 25.2092 21.2909 25.7196C22.5717 26.23 23.5177 26.1089 23.7721 25.9588C23.6925 25.6778 23.0865 24.9433 21.8057 24.4329C20.525 23.9225 19.579 24.0435 19.3245 24.1937Z" fill="#37635F"/>
<path d="M16.693 38.7392C16.5159 38.7658 16.3265 38.7464 16.1509 38.6769C15.6121 38.4597 15.3445 37.8501 15.5618 37.3113L19.9314 26.3135C20.1478 25.7695 20.7582 25.5071 21.297 25.7243C21.8358 25.9416 22.1034 26.5512 21.8861 27.09L17.5165 38.0878C17.374 38.4502 17.0524 38.6851 16.693 38.7392Z" fill="#37635F"/>
</g>
<defs>
<clipPath id="clip0_1766_3045">
<rect width="59" height="59" fill="white" transform="translate(0 8.78223) rotate(-8.56022)"/>
</clipPath>
</defs>
</svg>
