<svg width="65" height="65" viewBox="0 0 65 65" fill="none" xmlns="http://www.w3.org/2000/svg">
<g clip-path="url(#clip0_1367_599)">
<path d="M18.3926 10.236L54.3178 18.3535C56.1331 18.7637 57.2761 20.5741 56.866 22.3894L51.2255 47.3522L8.71624 37.747L14.3567 12.7842C14.7669 10.9689 16.5773 9.82586 18.3926 10.236Z" fill="#73E0CF"/>
<path d="M51.0079 48.2917L8.50333 38.6876C7.98601 38.5707 7.65839 38.0518 7.77528 37.5345L13.4147 12.5763C13.9418 10.2437 16.2711 8.77306 18.6037 9.30013L54.5289 17.4176C56.8615 17.9447 58.3322 20.274 57.8051 22.6066L52.1646 47.5694C52.0477 48.0867 51.5288 48.4144 51.0115 48.2975L51.0079 48.2917ZM9.86426 37.0179L50.4923 46.198L55.9193 22.1805C56.2125 20.8825 55.3971 19.591 54.0991 19.2977L18.1786 11.1813C16.8806 10.888 15.5892 11.7034 15.2959 13.0014L9.8679 37.0236L9.86426 37.0179Z" fill="#3F5753"/>
<path d="M6.02733 37.0252L53.9542 47.8546C54.7443 48.0331 55.2394 48.8172 55.0609 49.6073L54.7017 51.1968C54.1013 53.854 51.4539 55.5295 48.7921 54.9281L7.64667 45.631C4.98955 45.0306 3.31399 42.3832 3.91544 39.7214L4.27461 38.1318C4.45314 37.3417 5.23725 36.8467 6.02733 37.0252Z" fill="#E6ECEE"/>
<path d="M48.5838 55.8695L7.43368 46.5714C4.25924 45.8541 2.25605 42.6878 2.9744 39.5086L3.33357 37.9191C3.62898 36.6117 4.93199 35.789 6.23939 36.0844L54.1663 46.9138C55.4737 47.2092 56.2964 48.5122 56.001 49.8196L55.6418 51.4092C54.9245 54.5836 51.7582 56.5868 48.5791 55.8684L48.5838 55.8695ZM5.81433 37.9655C5.54156 37.9039 5.27529 38.0761 5.21472 38.3441L4.85554 39.9337C4.37204 42.0735 5.71893 44.2067 7.85873 44.6902L49.0135 53.9894C51.1533 54.4729 53.2866 53.126 53.7701 50.9862L54.1293 49.3967C54.1909 49.1239 54.0187 48.8576 53.7507 48.797L5.81433 37.9655Z" fill="#3F5753"/>
<path d="M25.8672 41.6221L34.0737 43.4764L33.8516 44.4593C33.5785 45.6679 32.3793 46.4251 31.1706 46.152L27.3425 45.287C26.1339 45.0139 25.3767 43.8147 25.6498 42.606L25.8719 41.6231L25.8672 41.6221Z" fill="#BFC8D0"/>
<path d="M30.952 47.0962L27.1238 46.2312C25.3979 45.8412 24.3131 44.1231 24.7031 42.3971L24.9252 41.4142C25.0421 40.8969 25.561 40.5693 26.0783 40.6862L34.2848 42.5405C34.8021 42.6574 35.1297 43.1763 35.0128 43.6936L34.7907 44.6765C34.4007 46.4024 32.6826 47.4872 30.9567 47.0972L30.952 47.0962ZM26.5948 42.7751L26.5853 42.8175C26.4301 43.5041 26.8633 44.1902 27.5499 44.3453L31.3781 45.2103C32.0647 45.3655 32.7508 44.9323 32.9059 44.2456L32.9155 44.2033L26.5901 42.7741L26.5948 42.7751Z" fill="#3F5753"/>
<path d="M13.8656 32.3902L17.6932 15.4505C17.8675 14.6792 18.6343 14.195 19.4055 14.3693L46.4094 20.471C47.1807 20.6453 47.6648 21.4121 47.4906 22.1834C39.6186 30.6613 28.229 34.9536 16.7196 33.7815L15.2658 33.6309C14.1658 33.5554 13.6807 33.2085 13.8666 32.3855L13.8656 32.3902Z" fill="#DFFDF7"/>
<path d="M35.2905 23.851L21.497 20.7343C20.9796 20.6174 20.652 20.0985 20.7689 19.5812C20.8858 19.0639 21.4047 18.7363 21.922 18.8532L35.7155 21.9699C36.2328 22.0868 36.5605 22.6057 36.4436 23.123C36.3267 23.6403 35.8078 23.9679 35.2905 23.851Z" fill="#4F9D91"/>
<path d="M29.4018 27.5767L20.4052 25.5439C19.8879 25.427 19.5602 24.9081 19.6771 24.3908C19.794 23.8735 20.3129 23.5458 20.8302 23.6627L29.8268 25.6956C30.3441 25.8124 30.6717 26.3313 30.5549 26.8487C30.438 27.366 29.9191 27.6936 29.4018 27.5767Z" fill="#4F9D91"/>
</g>
<defs>
<clipPath id="clip0_1367_599">
<rect width="54" height="54" fill="white" transform="translate(11.9014) rotate(12.7325)"/>
</clipPath>
</defs>
</svg>
