<svg width="67" height="67" viewBox="0 0 67 67" fill="none" xmlns="http://www.w3.org/2000/svg">
<path d="M11.222 20.1487L16.1421 54.838C16.4129 56.7469 20.2128 57.7297 24.6357 57.1023C29.0586 56.475 32.4354 54.4744 32.1646 52.5655L27.2445 17.8761L11.2168 20.1494L11.222 20.1487Z" fill="#5BB5A7"/>
<path d="M24.7833 58.1407C20.2821 58.7791 15.5121 57.8967 15.0986 54.9812L10.1792 20.297C10.0978 19.7233 10.5007 19.1873 11.0744 19.106L27.1021 16.8327C27.6758 16.7513 28.2118 17.1541 28.2932 17.7279L33.2133 52.4172C33.6268 55.3327 29.2851 57.5075 24.7892 58.1452L24.7833 58.1407ZM12.4134 21.0443L17.1856 54.6905C17.3188 55.6293 20.2999 56.6537 24.4881 56.0596C28.6763 55.4656 31.255 53.6527 31.1218 52.7138L26.3497 19.0676L12.4082 21.045L12.4134 21.0443Z" fill="#37635F"/>
<path d="M11.4251 21.5774L13.2915 34.7365C13.5327 36.4368 17.3164 37.3048 21.7393 36.6775C26.1621 36.0501 29.5552 34.1643 29.314 32.4639L27.4476 19.3048L11.4199 21.5781L11.4251 21.5774Z" fill="#00C7B3"/>
<path d="M21.8875 37.721C17.3864 38.3594 12.6327 37.5918 12.2487 34.8848L10.3823 21.7257C10.301 21.152 10.7038 20.616 11.2775 20.5347L27.3052 18.2614C27.8789 18.18 28.4149 18.5828 28.4963 19.1566L30.3627 32.3157C30.7466 35.0226 26.3886 37.0826 21.8927 37.7203L21.8875 37.721ZM12.6165 22.473L14.335 34.5889C14.4186 35.1783 17.0644 36.2768 21.5916 35.6347C26.1188 34.9926 28.3548 33.2017 28.2712 32.6123L26.5528 20.4963L12.6113 22.4737L12.6165 22.473Z" fill="#37635F"/>
<path d="M22.528 15.7574C22.5221 15.7156 22.5266 15.6724 22.5199 15.6255C22.3631 14.5198 20.5825 13.8572 18.5379 14.1472C16.4934 14.4372 14.9673 15.5688 15.1241 16.6745C15.13 16.7162 15.1419 16.7624 15.153 16.8034C12.6542 17.6792 11.043 18.9612 11.2117 20.1504C11.4528 21.8507 15.2365 22.7187 19.6594 22.0914C24.0823 21.464 27.4753 19.5782 27.2342 17.8778C27.0655 16.6887 25.1621 15.9105 22.5175 15.7588L22.528 15.7574Z" fill="#AEC8CE"/>
<path d="M19.818 23.1328C15.3169 23.7713 10.5631 23.0036 10.1792 20.2967C9.9521 18.6955 11.3758 17.1794 14.1133 16.0728C14.4052 14.6428 16.0909 13.4353 18.3962 13.1084C20.7015 12.7814 22.6571 13.4777 23.3345 14.7649C26.2717 15.0666 28.0609 16.1271 28.288 17.7283C28.6719 20.4352 24.3191 22.4944 19.818 23.1328ZM18.6913 15.1894C16.9806 15.432 16.1387 16.2857 16.1727 16.5256C16.3122 17.0592 16.0293 17.6154 15.5069 17.7959C13.1094 18.6361 12.2099 19.6469 12.2603 20.0015C12.3438 20.5909 14.9897 21.6894 19.5169 21.0473C24.0441 20.4052 26.2801 18.6143 26.1965 18.0249C26.1462 17.6702 25.0019 16.9546 22.4646 16.8091C21.9178 16.7802 21.4817 16.3313 21.4673 15.78C21.4673 15.78 21.4621 15.7435 21.4614 15.7383C21.4326 15.5348 20.3916 14.9482 18.6757 15.1916L18.6913 15.1894Z" fill="#37635F"/>
<path d="M22.8379 29.8284L18.7853 30.4032C18.2116 30.4845 17.6756 30.0817 17.5942 29.508C17.5129 28.9343 17.9157 28.3983 18.4894 28.3169L22.542 27.7421C23.1157 27.6607 23.6517 28.0636 23.7331 28.6373C23.8144 29.211 23.4116 29.747 22.8379 29.8284Z" fill="#37635F"/>
<path d="M25.7383 50.2844L21.6857 50.8592C21.112 50.9406 20.576 50.5378 20.4946 49.964C20.4133 49.3903 20.8161 48.8543 21.3898 48.7729L25.4424 48.1982C26.0161 48.1168 26.5521 48.5196 26.6335 49.0933C26.7148 49.6671 26.312 50.203 25.7383 50.2844Z" fill="#37635F"/>
<path d="M21.0964 32.1452C20.5227 32.2265 19.9867 31.8237 19.9054 31.25L19.3306 27.1974C19.2492 26.6237 19.652 26.0877 20.2257 26.0063C20.7995 25.925 21.3355 26.3278 21.4168 26.9015L21.9916 30.9541C22.073 31.5278 21.6702 32.0638 21.0964 32.1452Z" fill="#37635F"/>
<path d="M34.9863 12.0599L33.2418 24.4063L40.7471 23.3418L39.7281 36.6016L51.4688 17.5699L44.2138 18.5989L45.6001 10.5545L34.9863 12.0599Z" fill="#00C7B3"/>
<path d="M39.8758 37.6442C39.7194 37.6664 39.5577 37.6521 39.4021 37.605C38.9388 37.4525 38.6413 37.0052 38.679 36.521L39.5962 24.5686L33.3895 25.4489C33.0609 25.4956 32.731 25.3827 32.4959 25.1501C32.2607 24.9174 32.15 24.5872 32.1988 24.2558L33.9432 11.9093C34.01 11.4423 34.3739 11.0821 34.8381 11.0163L45.452 9.51085C45.7858 9.46351 46.1216 9.58081 46.3576 9.8187C46.5935 10.0566 46.6952 10.3986 46.6412 10.7308L45.5 17.3519L51.3207 16.5263C51.7275 16.4686 52.1259 16.6515 52.3498 16.9922C52.5737 17.3329 52.5777 17.774 52.3665 18.1231L40.631 37.154C40.4624 37.428 40.1836 37.6006 39.8811 37.6435L39.8758 37.6442ZM34.481 23.1659L40.599 22.2982C40.9171 22.253 41.2344 22.3517 41.4681 22.5739C41.701 22.791 41.8199 23.104 41.7958 23.4213L41.1096 32.3508L49.3895 18.9285L44.3616 19.6416C44.0278 19.6889 43.6919 19.5716 43.456 19.3337C43.2201 19.0959 43.1183 18.7538 43.1723 18.4216L44.3136 11.8005L35.9164 12.9916L34.481 23.1659Z" fill="#37635F"/>
<path d="M55.8981 48.8004C56.1948 50.8919 52.6389 53.1307 47.9605 53.7943C43.282 54.4579 39.2446 53.3013 38.9472 51.2046L38.334 46.8809L55.2849 44.4766L55.8981 48.8004Z" fill="#53918C"/>
<path d="M48.1081 54.8322C42.6838 55.6016 38.2951 54.1065 37.9038 51.3474L37.2905 47.0236C37.2092 46.4499 37.612 45.9139 38.1857 45.8325L55.1366 43.4283C55.7103 43.3469 56.2463 43.7498 56.3277 44.3235L56.9409 48.6473C57.3315 51.4011 53.5324 54.0629 48.1081 54.8322ZM39.5255 47.776L39.9908 51.0567C40.1498 52.1781 43.2753 53.3948 47.813 52.7512C52.3506 52.1076 55.0145 50.0697 54.8554 48.9484L54.3901 45.6677L39.5255 47.776Z" fill="#37635F"/>
<path d="M47.347 49.4713C52.0278 48.8074 55.5816 46.5716 55.2846 44.4774C54.9876 42.3833 50.9522 41.2238 46.2713 41.8877C41.5905 42.5516 38.0367 44.7875 38.3337 46.8816C38.6307 48.9758 42.6661 50.1352 47.347 49.4713Z" fill="#AEC8CE"/>
<path d="M47.4946 50.5092C42.0703 51.2786 37.6816 49.7834 37.2902 47.0244C36.8989 44.2653 40.6988 41.6087 46.1231 40.8394C51.5473 40.07 55.9361 41.5652 56.3274 44.3242C56.7187 47.0833 52.9189 49.7399 47.4946 50.5092ZM46.4197 42.9309C41.8821 43.5745 39.2182 45.6123 39.3773 46.7337C39.5363 47.855 42.6618 49.0718 47.1994 48.4282C51.737 47.7846 54.4009 45.7467 54.2419 44.6254C54.0828 43.504 50.9573 42.2873 46.4197 42.9309Z" fill="#37635F"/>
<path d="M42.4911 46.7011C42.2825 46.7307 42.0672 46.6761 41.9005 46.5508C41.7389 46.4247 41.6274 46.2384 41.5978 46.0297C41.5682 45.8211 41.6235 45.6111 41.7436 45.4451C41.9943 45.1116 42.5211 45.0368 42.8546 45.2875C43.0213 45.4128 43.1336 45.6044 43.1625 45.8078C43.1913 46.0112 43.1367 46.2265 43.0114 46.3932C42.8861 46.56 42.6945 46.6723 42.4911 46.7011Z" fill="#CDE4E8"/>
<path d="M45.4329 45.5764C45.2295 45.6053 45.0143 45.5507 44.8475 45.4254C44.6808 45.3 44.5692 45.1137 44.5396 44.9051C44.51 44.6964 44.5654 44.4864 44.6907 44.3197C44.8474 44.1112 45.1015 43.99 45.3645 44.0059C45.4181 44.009 45.4673 44.018 45.5224 44.0314C45.5716 44.0404 45.617 44.0606 45.6624 44.0807C45.7138 44.1054 45.7547 44.1315 45.7964 44.1628C45.8381 44.1942 45.8753 44.2314 45.9125 44.2687C45.9445 44.3068 45.9773 44.35 46.0048 44.394C46.0271 44.4387 46.0494 44.4834 46.0672 44.5341C46.0843 44.5796 46.0969 44.631 46.1043 44.6831C46.1332 44.8865 46.0786 45.1018 45.9533 45.2685C45.9219 45.3102 45.8898 45.3467 45.8473 45.3847C45.8093 45.4167 45.7713 45.4486 45.7266 45.471C45.6774 45.4992 45.6327 45.5215 45.582 45.5393C45.5365 45.5564 45.4851 45.569 45.4329 45.5764Z" fill="#CDE4E8"/>
<path d="M17.3838 18.9131C17.3838 18.9131 18.0703 19.252 19.296 19.0782C20.5217 18.9043 21.2069 18.3708 21.2069 18.3708" fill="#AEC8CE"/>
<path d="M19.4493 20.1207C17.9785 20.3293 17.0879 19.9395 16.9218 19.8566C16.4013 19.6006 16.1837 18.9664 16.4397 18.4459C16.6913 17.9314 17.3099 17.7159 17.8281 17.9563C17.8736 17.9765 18.3345 18.1505 19.1482 18.0351C20.0401 17.9086 20.5575 17.5426 20.5619 17.5367C21.0219 17.1788 21.6834 17.2659 22.0405 17.7207C22.3984 18.1807 22.3113 18.8422 21.8565 19.1993C21.7656 19.2707 20.9037 19.9091 19.4434 20.1162L19.4493 20.1207Z" fill="#37635F"/>
</svg>
