<svg width="59" height="59" viewBox="0 0 59 59" fill="none" xmlns="http://www.w3.org/2000/svg">
<path d="M42.8568 8.05837L25.9442 4.41912C17.8176 2.67042 8.99261 11.6292 6.23879 24.4269C3.48498 37.2245 7.84398 49.0202 15.9706 50.7689L32.8832 54.4082C41.0098 56.1569 49.8348 47.1981 52.5886 34.4004C55.3424 21.6027 50.9834 9.80707 42.8568 8.05837ZM31.6942 44.8088L25.8453 32.2992L32.2019 16.4563L38.1449 17.7351C38.9355 21.7741 38.9028 26.4335 37.87 31.2333C36.7141 36.6047 34.4915 41.2993 31.6942 44.8088Z" fill="#30433F"/>
<path d="M32.6613 55.4378L15.7488 51.7986C7.06591 49.9302 2.33618 37.5536 5.20857 24.2049C8.08096 10.8562 17.4828 1.52042 26.1656 3.3888L43.0781 7.02805C51.761 8.89643 56.4907 21.273 53.6183 34.6217C50.746 47.9705 41.3442 57.3062 32.6613 55.4378ZM25.7224 5.44879C18.1725 3.82421 9.89604 12.4376 7.26856 24.6482C4.64107 36.8588 8.64218 48.114 16.192 49.7386L33.1046 53.3778C40.6544 55.0024 48.9309 46.3891 51.5584 34.1785C54.1858 21.9679 50.1847 10.7126 42.6349 9.08804L25.7224 5.44879ZM31.4723 45.8384C31.153 45.7697 30.8813 45.555 30.741 45.2554L24.8921 32.7458C24.771 32.4826 24.7609 32.1787 24.8682 31.9054L31.2248 16.0626C31.4187 15.587 31.9237 15.3185 32.4233 15.426L38.3663 16.7048C38.7783 16.7935 39.0959 17.1205 39.1798 17.5319C40.0271 21.8579 39.9292 26.6702 38.8997 31.4546C37.7428 36.8312 35.5366 41.6748 32.5223 45.4663C32.2939 45.7512 31.9384 45.901 31.5764 45.8554C31.5455 45.8488 31.5094 45.841 31.4785 45.8344L31.4723 45.8384ZM26.9945 32.266L31.9024 42.7626C34.1926 39.4566 35.8889 35.43 36.8397 31.0113C37.7905 26.5926 37.8875 22.486 37.233 18.6163L32.8452 17.6721L26.9945 32.266Z" fill="#37635F"/>
<path d="M51.5035 18.5833L45.2334 47.7219L31.3491 44.7343C34.1413 41.2237 36.3691 36.5302 37.5249 31.1588C38.5577 26.359 38.5904 21.6996 37.7999 17.6606L51.5086 18.5845L51.5035 18.5833Z" fill="#516170"/>
<path d="M45.0117 48.7515L31.1273 45.7638C30.772 45.6874 30.4823 45.4311 30.3571 45.0862C30.2319 44.7414 30.2974 44.3621 30.5257 44.0771C33.3401 40.539 35.4065 35.994 36.4948 30.9367C37.4644 26.4305 37.5592 21.9084 36.7646 17.8632C36.699 17.5419 36.7917 17.2116 37.0071 16.9616C37.2214 16.7167 37.5405 16.586 37.8698 16.6084L51.5786 17.5322C51.881 17.5542 52.166 17.7071 52.3505 17.9515C52.535 18.196 52.6028 18.507 52.5385 18.8057L46.2685 47.9442C46.1466 48.5107 45.5833 48.8745 45.0168 48.7526L45.0117 48.7515ZM33.1722 44.0485L44.4198 46.4688L50.2122 19.5498L39.0582 18.7985C39.6431 22.7664 39.4738 27.0838 38.5496 31.3789C37.5257 36.1375 35.6801 40.4822 33.1722 44.0485Z" fill="#37635F"/>
<path d="M25.7731 20.2625C24.6548 22.6299 23.756 25.2546 23.1509 28.0665C20.3971 40.8642 24.7561 52.6599 32.8827 54.4086C41.0094 56.1573 49.8344 47.1985 52.5882 34.4008C55.342 21.6031 50.983 9.80747 42.8563 8.05877C38.8857 7.20436 34.7477 8.90578 31.234 12.3635M35.5036 42.2289C31.6462 41.3989 29.5796 35.8028 30.8862 29.731C32.1927 23.6592 36.3782 19.4084 40.2355 20.2385C44.0928 21.0685 46.1595 26.6645 44.8529 32.7364C43.5464 38.8082 39.3609 43.0589 35.5036 42.2289Z" fill="#53918C"/>
<path d="M32.6609 55.4382C23.978 53.5698 19.2483 41.1933 22.1207 27.8445C22.7291 25.0172 23.6394 22.3141 24.8196 19.8092C25.0681 19.2807 25.6934 19.0542 26.2208 19.3078C26.7493 19.5562 26.9695 20.1856 26.7221 20.7089C25.6112 23.0671 24.7507 25.6139 24.1755 28.2867C21.548 40.4973 25.5491 51.7525 33.099 53.3771C40.6489 55.0017 48.9253 46.3884 51.5528 34.1778C54.1803 21.9672 50.1792 10.7119 42.6293 9.08733C39.1531 8.33931 35.3641 9.77097 31.9668 13.1136C31.5507 13.5198 30.8884 13.5174 30.4771 13.1002C30.0709 12.6841 30.0744 12.0167 30.4905 11.6105C34.414 7.75063 38.8805 6.12529 43.0726 7.02734C51.7554 8.89573 56.4852 21.2723 53.6128 34.621C50.7404 47.9698 41.3386 57.3055 32.6557 55.4371L32.6609 55.4382ZM35.2817 43.2585C30.7909 42.2922 28.4053 36.2503 29.8559 29.509C31.3065 22.7677 35.961 18.2407 40.4569 19.2081C44.9528 20.1756 47.3333 26.2163 45.8827 32.9577C44.4321 39.699 39.7776 44.226 35.2817 43.2585ZM40.0136 21.2681C36.7846 20.5733 33.0784 24.55 31.9159 29.9523C30.7535 35.3546 32.4959 40.5037 35.725 41.1985C38.954 41.8934 42.6602 37.9167 43.8227 32.5144C44.9852 27.1121 43.2427 21.963 40.0136 21.2681Z" fill="#37635F"/>
<path d="M27.7272 10.73L21.9129 9.47889C21.3464 9.35699 20.9826 8.79376 21.1045 8.22726C21.2264 7.66076 21.7897 7.297 22.3562 7.4189L28.1705 8.67003C28.737 8.79193 29.1008 9.35516 28.9789 9.92166C28.857 10.4882 28.2937 10.8519 27.7272 10.73Z" fill="#37635F"/>
<path d="M22.8126 16.5695L15.5975 15.017C15.031 14.8951 14.6672 14.3318 14.7891 13.7653C14.911 13.1988 15.4742 12.8351 16.0407 12.957L23.2559 14.5095C23.8224 14.6314 24.1861 15.1947 24.0642 15.7612C23.9423 16.3277 23.3791 16.6914 22.8126 16.5695Z" fill="#37635F"/>
<path d="M18.794 23.9758L11.5789 22.4232C11.0124 22.3013 10.6487 21.7381 10.7706 21.1716C10.8925 20.6051 11.4557 20.2413 12.0222 20.3632L19.2373 21.9158C19.8038 22.0377 20.1676 22.6009 20.0457 23.1674C19.9238 23.7339 19.3605 24.0977 18.794 23.9758Z" fill="#37635F"/>
<path d="M17.0938 31.8762L9.87872 30.3236C9.31222 30.2017 8.94846 29.6385 9.07036 29.072C9.19226 28.5055 9.75549 28.1417 10.322 28.2636L17.5371 29.8162C18.1036 29.9381 18.4674 30.5013 18.3455 31.0678C18.2236 31.6343 17.6603 31.9981 17.0938 31.8762Z" fill="#37635F"/>
<path d="M17.2931 40.1896L10.0779 38.6371C9.51144 38.5152 9.14768 37.952 9.26958 37.3855C9.39148 36.819 9.95471 36.4552 10.5212 36.5771L17.7363 38.1297C18.3028 38.2516 18.6666 38.8148 18.5447 39.3813C18.4228 39.9478 17.8596 40.3115 17.2931 40.1896Z" fill="#37635F"/>
<path d="M18.7804 47.0514L13.9549 46.0131C13.3884 45.8912 13.0246 45.3279 13.1465 44.7614C13.2684 44.1949 13.8317 43.8312 14.3982 43.9531L19.2237 44.9914C19.7902 45.1133 20.1539 45.6766 20.032 46.2431C19.9101 46.8096 19.3469 47.1733 18.7804 47.0514Z" fill="#37635F"/>
</svg>
