<svg width="62" height="62" viewBox="0 0 62 62" fill="none" xmlns="http://www.w3.org/2000/svg">
<g clip-path="url(#clip0_1367_630)">
<path d="M16.9688 12.248L11.8897 46.2329C11.3716 49.6996 17.7128 53.5235 26.0529 54.77C34.3929 56.0164 41.5744 54.2183 42.0932 50.7469L43.2619 42.9266C43.2619 42.9266 45.6582 37.8198 52.7615 34.7182C52.9126 34.653 53.0542 34.5864 53.191 34.5191C53.4803 34.3771 53.582 34.056 53.4221 33.7883L51.2955 30.175L50.3506 29.9412C49.1158 30.6682 47.0913 30.7752 45.0949 30.6621L47.1715 16.7667" fill="#79E7D5"/>
<path d="M53.422 33.7838L51.2954 30.1705C50.9346 30.0727 50.7324 30.023 50.3717 29.9252C49.1402 30.6625 47.1055 30.7728 45.0995 30.6583L47.1762 16.7629L23.6819 13.2517L21.0615 30.7854C20.9204 31.7295 21.5693 32.6065 22.5135 32.7476C23.4576 32.8887 24.1066 33.7657 23.9655 34.7099L22.9948 41.2045C22.9271 41.6575 22.6811 42.0644 22.3138 42.3361L19.4143 44.4816C18.647 45.0495 18.4852 46.1319 19.0537 46.8945L20.0515 48.2428C20.7369 49.1691 20.3383 50.4989 19.2509 50.8922L16.5915 51.8549C19.0781 53.1576 22.3715 54.2153 26.0575 54.7662C34.3976 56.0126 41.5797 54.2097 42.0978 50.7431L43.2666 42.9228C43.2666 42.9228 45.6629 37.8161 52.7661 34.7144C52.9172 34.6492 53.0588 34.5827 53.1956 34.5153C53.485 34.3733 53.5866 34.0522 53.4267 33.7845L53.422 33.7838Z" fill="#6ED5C5"/>
<path d="M42.5121 35.6727C42.2954 36.1765 41.5594 36.1104 41.4197 35.5777C41.0988 34.3646 40.8567 32.6904 41.2675 31.0504C42.0478 27.9496 43.4863 31.0457 51.296 30.1653C51.296 30.1653 53.6643 33.2054 52.042 32.8069C50.4196 32.4085 48.0444 33.7207 44.6108 33.8949C43.5201 33.9513 42.8838 34.8166 42.5176 35.6686L42.5121 35.6727Z" fill="#79E7D5"/>
<path d="M31.8965 21.3096L31.0199 27.1748C30.9672 27.5277 31.0453 27.8855 31.2453 28.1786L32.0543 29.3867C32.6236 30.242 33.8824 30.2351 34.445 29.3735L35.4319 27.8586C35.6785 27.4811 36.0851 27.2396 36.538 27.2098L37.109 27.1732C37.7789 27.1271 38.3317 26.6247 38.4315 25.9571L38.6103 24.7602C38.6659 24.3883 38.5716 24.0086 38.3533 23.7078L36.8399 21.634" fill="#79E7D5"/>
<path d="M31.1319 20.7859C39.4723 22.0323 46.6538 20.2311 47.1722 16.7627C47.6905 13.2944 41.3494 9.4722 33.009 8.22571C24.6685 6.97923 17.487 8.78044 16.9687 12.2488C16.4503 15.7172 22.7914 19.5394 31.1319 20.7859Z" fill="#5BB5A7"/>
<path d="M28.2353 11.0362C29.5587 11.0536 31.013 11.1734 32.5294 11.4001C38.2611 12.2567 42.703 14.3391 42.4471 16.051C42.1913 17.7629 37.3347 18.4557 31.603 17.5991C25.8712 16.7425 21.4294 14.66 21.6852 12.9481C21.7957 12.209 22.7654 11.6568 24.2996 11.3401" fill="#79E7D5"/>
<path fill-rule="evenodd" clip-rule="evenodd" d="M17.1109 11.2949C17.6376 11.3736 18.0008 11.8644 17.9221 12.3911L12.843 46.376C12.7633 46.9096 12.9305 47.5434 13.4812 48.2744C14.0346 49.0091 14.93 49.7751 16.147 50.5087C18.5769 51.9736 22.1193 53.2077 26.195 53.8168C30.271 54.4259 34.0192 54.2826 36.7712 53.5928C38.1494 53.2473 39.2294 52.7767 39.9734 52.2358C40.7135 51.6977 41.0591 51.14 41.1391 50.6048L42.3079 42.7845C42.3217 42.6921 42.3489 42.6021 42.3886 42.5174L43.2616 42.9271C42.3886 42.5174 42.3888 42.517 42.389 42.5166L42.3905 42.5134L42.3933 42.5075L42.4017 42.4902C42.4085 42.4762 42.4178 42.4574 42.4296 42.434C42.4532 42.3872 42.4871 42.322 42.5317 42.2402C42.6209 42.0765 42.7533 41.846 42.9335 41.5628C43.2939 40.9968 43.8464 40.219 44.6285 39.3436C46.1889 37.5971 48.6625 35.4631 52.3393 33.8508L50.6698 31.0141L50.4738 30.9656C49.7647 31.3007 48.9425 31.4814 48.1169 31.5753C47.1329 31.6872 46.0684 31.6836 45.0399 31.6253C44.7693 31.61 44.5176 31.4814 44.3465 31.2711C44.1754 31.0608 44.1007 30.7882 44.1408 30.52L46.2175 16.6247C46.2962 16.098 46.787 15.7348 47.3137 15.8136C47.8404 15.8923 48.2036 16.3831 48.1249 16.9098L46.208 29.736C46.8007 29.7414 47.3717 29.7191 47.899 29.6591C48.7472 29.5626 49.4097 29.3765 49.8609 29.1107C50.0782 28.9828 50.337 28.945 50.5819 29.0056L51.5268 29.2395C51.7786 29.3018 51.9946 29.4629 52.1262 29.6864L54.2496 33.2943C54.2502 33.2953 54.2507 33.2963 54.2513 33.2972C54.7154 34.0778 54.3786 35.0108 53.6155 35.3853C53.4691 35.4573 53.3134 35.5306 53.145 35.6033C49.7396 37.0907 47.475 39.0522 46.0667 40.6285C45.3618 41.4174 44.8713 42.1102 44.5604 42.5985C44.405 42.8426 44.2947 43.0353 44.2251 43.163C44.2129 43.1855 44.2019 43.206 44.1921 43.2243L43.0465 50.8899C42.8671 52.0905 42.1205 53.0593 41.1075 53.7957C40.0985 54.5293 38.7646 55.0813 37.2401 55.4635C34.1866 56.2289 30.1741 56.3615 25.91 55.7242C21.6456 55.0869 17.8474 53.7857 15.1513 52.1604C13.8052 51.3489 12.6912 50.431 11.9407 49.4348C11.1875 48.4349 10.7563 47.2906 10.9356 46.0909L16.0147 12.106C16.0934 11.5793 16.5842 11.2162 17.1109 11.2949Z" fill="#3F5753"/>
<path fill-rule="evenodd" clip-rule="evenodd" d="M19.0874 10.7612C18.3472 11.2993 18.0018 11.8567 17.922 12.3909C17.8422 12.9251 18.0094 13.5591 18.56 14.2901C19.1134 15.0248 20.0087 15.7907 21.2256 16.5242C23.6556 17.9889 27.198 19.2226 31.274 19.8317C35.35 20.4409 39.0984 20.2968 41.8503 19.6066C43.2286 19.2609 44.3087 18.7903 45.0527 18.2494C45.7929 17.7113 46.1383 17.154 46.2181 16.6198C46.2979 16.0856 46.1307 15.4516 45.5801 14.7206C45.0267 13.9858 44.1314 13.2199 42.9145 12.4864C40.4845 11.0218 36.9421 9.78811 32.8661 9.17895C28.7901 8.56979 25.0417 8.71382 22.2898 9.40405C20.9115 9.74973 19.8314 10.2204 19.0874 10.7612ZM21.8206 7.53342C24.8741 6.76757 28.8867 6.63423 33.1511 7.27156C37.4156 7.90889 41.2139 9.20956 43.9101 10.8347C45.2561 11.6461 46.3702 12.564 47.1206 13.5603C47.8739 14.5604 48.3048 15.7048 48.1255 16.9048C47.9461 18.1048 47.1994 19.0732 46.1867 19.8094C45.1777 20.5428 43.844 21.0949 42.3195 21.4772C39.266 22.2431 35.2534 22.3764 30.989 21.7391C26.7245 21.1018 22.9262 19.8011 20.23 18.176C18.884 17.3646 17.7699 16.4467 17.0195 15.4504C16.2663 14.4503 15.8353 13.3058 16.0146 12.1058C16.194 10.9058 16.9407 9.93743 17.9534 9.20126C18.9624 8.46784 20.2961 7.91578 21.8206 7.53342Z" fill="#3F5753"/>
<path fill-rule="evenodd" clip-rule="evenodd" d="M22.0972 17.0712C22.624 17.15 22.9871 17.6408 22.9084 18.1675L21.8573 25.201C21.7785 25.7277 21.2877 26.0908 20.761 26.0121C20.2343 25.9334 19.8711 25.4426 19.9499 24.9159L21.001 17.8824C21.0797 17.3557 21.5705 16.9925 22.0972 17.0712Z" fill="#3F5753"/>
<path fill-rule="evenodd" clip-rule="evenodd" d="M19.7076 33.0644C20.2343 33.1431 20.5975 33.6339 20.5188 34.1606L20.372 35.1429C20.2932 35.6696 19.8024 36.0328 19.2757 35.9541C18.749 35.8754 18.3859 35.3846 18.4646 34.8579L18.6114 33.8756C18.6901 33.3489 19.1809 32.9857 19.7076 33.0644Z" fill="#3F5753"/>
<path fill-rule="evenodd" clip-rule="evenodd" d="M34.2691 43.5966C34.7958 43.6753 35.159 44.1661 35.0803 44.6929L33.5652 54.8306C33.4865 55.3573 32.9957 55.7205 32.469 55.6418C31.9423 55.5631 31.5791 55.0723 31.6578 54.5456L33.1729 44.4078C33.2516 43.8811 33.7424 43.5179 34.2691 43.5966Z" fill="#3F5753"/>
<path fill-rule="evenodd" clip-rule="evenodd" d="M35.0181 38.5849C35.5449 38.6636 35.908 39.1544 35.8293 39.6811L35.6013 41.207C35.5225 41.7338 35.0318 42.0969 34.505 42.0182C33.9783 41.9395 33.6152 41.4487 33.6939 40.922L33.9219 39.3961C34.0006 38.8694 34.4914 38.5062 35.0181 38.5849Z" fill="#3F5753"/>
<path fill-rule="evenodd" clip-rule="evenodd" d="M32.9312 20.6494C33.4579 20.7281 33.8211 21.2189 33.7424 21.7456L33.5037 23.343C33.4249 23.8697 32.9341 24.2329 32.4074 24.1542C31.8807 24.0755 31.5176 23.5847 31.5963 23.058L31.835 21.4605C31.9137 20.9338 32.4045 20.5706 32.9312 20.6494Z" fill="#3F5753"/>
<path fill-rule="evenodd" clip-rule="evenodd" d="M23.9185 50.7802C24.4452 50.8589 24.8084 51.3497 24.7297 51.8764L24.491 53.4739C24.4122 54.0006 23.9215 54.3638 23.3947 54.285C22.868 54.2063 22.5049 53.7155 22.5836 53.1888L22.8223 51.5914C22.901 51.0647 23.3918 50.7015 23.9185 50.7802Z" fill="#3F5753"/>
<path fill-rule="evenodd" clip-rule="evenodd" d="M41.1133 30.0621C41.192 29.5354 41.6828 29.1722 42.2096 29.2509L45.2375 29.7035C45.7642 29.7822 46.1274 30.273 46.0487 30.7997C45.97 31.3264 45.4792 31.6896 44.9525 31.6108L41.9245 31.1583C41.3978 31.0796 41.0346 30.5888 41.1133 30.0621Z" fill="#3F5753"/>
<path fill-rule="evenodd" clip-rule="evenodd" d="M32.3865 12.3543C30.909 12.1335 29.4982 12.0177 28.2223 12.0009C27.6897 11.9939 27.2637 11.5565 27.2707 11.024C27.2777 10.4915 27.7151 10.0655 28.2476 10.0725C29.6185 10.0905 31.1164 10.2145 32.6716 10.4469C35.6032 10.885 38.2418 11.6409 40.1426 12.5323C41.0872 12.9752 41.9015 13.4755 42.4774 14.0261C43.0305 14.5548 43.5339 15.3015 43.4005 16.1941C43.2671 17.0866 42.5674 17.6535 41.8839 17.9974C41.1722 18.3556 40.2472 18.596 39.2144 18.7434C37.136 19.04 34.3917 18.9914 31.4601 18.5533C28.5285 18.1152 25.8899 17.3593 23.989 16.4679C23.0444 16.025 22.2301 15.5247 21.6542 14.9741C21.1012 14.4454 20.5978 13.6987 20.7312 12.8061C20.8466 12.034 21.3911 11.5035 21.9604 11.1604C22.5384 10.812 23.282 10.566 24.1043 10.3963C24.6259 10.2886 25.136 10.6241 25.2437 11.1457C25.3513 11.6673 25.0158 12.1774 24.4942 12.285C23.7824 12.432 23.274 12.6204 22.9559 12.8121C22.7066 12.9624 22.6501 13.0651 22.6395 13.0906C22.6424 13.1189 22.671 13.278 22.9869 13.5801C23.351 13.9282 23.9574 14.323 24.8078 14.7218C26.4968 15.5138 28.945 16.2274 31.7451 16.6459C34.5452 17.0644 37.0951 17.0977 38.9419 16.8341C39.8717 16.7014 40.567 16.5011 41.017 16.2747C41.4041 16.0799 41.4801 15.9369 41.492 15.9088C41.4888 15.8785 41.458 15.7196 41.1447 15.4201C40.7806 15.072 40.1742 14.6771 39.3238 14.2784C37.6348 13.4864 35.1866 12.7728 32.3865 12.3543ZM22.6374 13.0968C22.6373 13.0968 22.6375 13.0962 22.6379 13.095C22.6376 13.0962 22.6374 13.0968 22.6374 13.0968Z" fill="#3F5753"/>
<path fill-rule="evenodd" clip-rule="evenodd" d="M36.279 14.7319C36.4418 15.239 36.1628 15.782 35.6558 15.9449C34.9741 16.1639 33.7564 16.1861 31.9853 15.9214C30.9416 15.7655 29.9935 15.5593 29.3577 15.355C28.8507 15.1921 28.5717 14.6491 28.7346 14.142C28.8975 13.635 29.4406 13.356 29.9476 13.5189C30.4468 13.6793 31.2827 13.8664 32.2704 14.0141C33.9994 14.2725 34.8362 14.1825 35.066 14.1087C35.573 13.9459 36.1161 14.2249 36.279 14.7319Z" fill="#3F5753"/>
</g>
<defs>
<clipPath id="clip0_1367_630">
<rect width="54" height="54" fill="white" transform="translate(7.98145) rotate(8.49996)"/>
</clipPath>
</defs>
</svg>
