<svg width="54" height="54" viewBox="0 0 54 54" fill="none" xmlns="http://www.w3.org/2000/svg">
<g clip-path="url(#clip0_1367_692)">
<path d="M20.4426 13.4322C20.4426 13.4322 13.4708 5.4865 5.75654 5.34668L4.19922 10.8479C4.19922 10.8479 9.71011 10.2983 18.3356 19.2372L19.7676 20.7222L23.9671 15.9394L20.4426 13.4322Z" fill="#8BF8E7"/>
<path d="M19.7676 21.6869C19.5073 21.6869 19.2566 21.5808 19.0733 21.3928L17.6414 19.9078C9.53656 11.5088 4.33424 11.8029 4.28121 11.8078C3.96781 11.8319 3.65442 11.7017 3.45674 11.4558C3.25906 11.2099 3.18192 10.8869 3.26871 10.5831L4.82603 5.08186C4.94174 4.66722 5.32264 4.37793 5.75174 4.37793H5.77103C13.466 4.51775 20.2498 11.774 21.0887 12.7045L24.5264 15.149C24.7482 15.3081 24.8928 15.554 24.9266 15.824C24.9603 16.094 24.8735 16.3688 24.6951 16.5713L20.4957 21.3542C20.3173 21.5567 20.0617 21.6772 19.7917 21.682C19.7821 21.682 19.7773 21.682 19.7676 21.682V21.6869ZM5.44799 9.96597C7.68514 10.3035 12.5451 11.8511 19.0251 18.5674L19.7291 19.3003L22.5303 16.1085L19.8737 14.2185C19.811 14.1751 19.758 14.1269 19.7098 14.069C19.6471 13.9967 13.3744 6.94775 6.46531 6.34989L5.43835 9.96597H5.44799Z" fill="#37635F"/>
<path d="M18.7355 17.3471C18.7355 17.3471 12.7183 8.66369 14.454 1.14226L20.1674 0.963867C20.1674 0.963867 18.2967 6.18065 24.8828 16.7107L25.9773 18.4608L20.3217 21.3778L18.7451 17.3471H18.7355Z" fill="#6ED5C5"/>
<path d="M20.3169 22.3425C20.2012 22.3425 20.0855 22.3232 19.9746 22.2798C19.7191 22.1833 19.5166 21.9857 19.4153 21.7301L17.8773 17.8055C17.1782 16.7689 11.7782 8.42782 13.5139 0.930494C13.6103 0.506209 13.9864 0.197637 14.4251 0.183173L20.1385 -4.13327e-05C20.4568 -0.0145056 20.7605 0.13978 20.9485 0.395316C21.1366 0.655673 21.1848 0.988351 21.0787 1.28728C21.0643 1.32585 19.5214 6.30638 25.7025 16.2L26.7969 17.9501C26.9416 18.1767 26.9802 18.4564 26.9078 18.7167C26.8355 18.9771 26.6571 19.1941 26.4209 19.3194L20.7653 22.2316C20.6255 22.3039 20.476 22.3376 20.3218 22.3376L20.3169 22.3425ZM15.2496 2.08282C14.1551 8.92924 19.4732 16.7207 19.5262 16.8026C19.5696 16.8653 19.6034 16.928 19.6323 17.0003L20.8232 20.033L24.5984 18.0851L24.0584 17.2221C19.1116 9.30531 18.7885 4.21389 19.0055 1.96228L15.2496 2.08282Z" fill="#37635F"/>
<path d="M46.3333 48.5279L44.7519 49.7621C43.1608 51.0013 40.8658 50.7216 39.6267 49.1305L39.053 48.1421C35.8612 42.665 32.2017 37.4723 28.1132 32.6268L26.416 30.6163L32.2017 26.0938L33.7349 28.22C37.4474 33.3596 41.5939 38.1666 46.1357 42.5927L46.9601 43.3979C48.1992 44.9889 47.9196 47.2839 46.3285 48.523L46.3333 48.5279Z" fill="#DFFDF7"/>
<path d="M42.5054 51.4978C41.1313 51.4978 39.7716 50.8903 38.8604 49.7236C38.8315 49.6898 38.8074 49.6512 38.7881 49.6175L38.2143 48.6291C35.0611 43.2146 31.4113 38.0412 27.3709 33.2487L25.6738 31.2382C25.505 31.0357 25.4231 30.7753 25.452 30.515C25.4809 30.2546 25.6111 30.0136 25.8184 29.8545L31.6041 25.332C31.8115 25.1728 32.0718 25.1005 32.3322 25.1391C32.5925 25.1777 32.824 25.3175 32.9783 25.5296L34.5115 27.6559C38.1806 32.7377 42.3125 37.5302 46.8013 41.9032L47.6257 42.7084C47.6547 42.7373 47.6836 42.7711 47.7125 42.8048C48.4695 43.7787 48.807 44.9841 48.6575 46.2087C48.5081 47.4334 47.8909 48.523 46.917 49.2848L45.3356 50.5191C44.4918 51.1748 43.4938 51.493 42.5006 51.493L42.5054 51.4978ZM40.4225 48.5857C41.3434 49.7091 43.0068 49.902 44.1591 49.0003L45.7406 47.7661C46.3047 47.3225 46.6663 46.6909 46.7531 45.9773C46.8399 45.283 46.6566 44.5984 46.242 44.0439L45.4658 43.287C40.8999 38.8368 36.6908 33.9575 32.959 28.7889L32.0091 27.4727L27.8 30.7609L28.8511 32.0096C32.9638 36.8841 36.6763 42.1491 39.8874 47.66L40.4274 48.5857H40.4225Z" fill="#37635F"/>
<path d="M26.4167 30.6159C26.4167 30.6159 16.5955 21.2334 7.86871 24.3674L6.07031 18.2586C6.07031 18.2586 21.2916 12.6658 32.2025 26.0934L26.4167 30.6159Z" fill="#6ED5C5"/>
<path d="M26.4166 31.5804C26.1755 31.5804 25.9344 31.4888 25.7512 31.3152C25.6548 31.2236 16.2482 22.3811 8.1964 25.274C7.94569 25.3656 7.67087 25.3463 7.43462 25.2258C7.19837 25.1052 7.01998 24.8931 6.94765 24.6375L5.14926 18.5288C5.00462 18.0418 5.26498 17.5259 5.7423 17.3524C5.9014 17.2945 21.7398 11.6775 32.9544 25.4861C33.1184 25.6886 33.1955 25.9442 33.1666 26.2045C33.1376 26.46 33.0075 26.6963 32.8001 26.8554L27.0144 31.3779C26.8409 31.5129 26.6287 31.5804 26.4214 31.5804H26.4166ZM11.6293 22.7717C14.4884 22.7717 17.6223 23.6781 20.8768 25.4717C23.4755 26.9036 25.4909 28.5236 26.4552 29.3577L30.8185 25.949C21.8989 15.7227 10.4818 17.984 7.26105 18.8952L8.51462 23.1574C9.50783 22.897 10.5493 22.7717 11.6244 22.7717H11.6293Z" fill="#37635F"/>
<path d="M32.236 26.075C32.236 26.075 25.433 15.8294 30.9728 6.95318L25.8718 3.42871C25.8718 3.42871 16.065 16.7551 26.4503 30.5926L32.236 26.0701V26.075Z" fill="#8BF8E7"/>
<path d="M26.4456 31.5565C26.4022 31.5565 26.3588 31.5565 26.3203 31.5469C26.0647 31.5132 25.8333 31.3782 25.6742 31.1708C14.9803 16.9235 24.9847 2.99441 25.0908 2.85458C25.3994 2.43512 25.9876 2.33869 26.4167 2.6328L31.5178 6.15726C31.9421 6.45137 32.0626 7.02512 31.7878 7.45905C29.6471 10.8871 29.1938 14.9467 30.4426 19.5271C31.3924 23.0178 33.0269 25.5105 33.0413 25.5346C33.321 25.954 33.2294 26.5182 32.8292 26.8267L27.0435 31.3492C26.8747 31.4842 26.6626 31.5517 26.4505 31.5517L26.4456 31.5565ZM26.1226 4.77833C24.3146 7.68566 18.929 18.124 26.6385 29.2182L30.9633 25.8383C30.3606 24.7824 29.3096 22.7189 28.5912 20.096C27.2942 15.371 27.6703 10.9449 29.6856 7.23726L26.1226 4.77833Z" fill="#37635F"/>
<path d="M44.7523 49.7617C44.7523 49.7617 43.195 51.618 43.976 53.0355L44.7523 49.7617Z" fill="#8BF8E7"/>
<path d="M43.9759 54C43.6336 54 43.3057 53.8216 43.1321 53.4986C42.0666 51.5604 43.812 49.3811 44.0145 49.14C44.3568 48.7302 44.9643 48.6772 45.3741 49.0195C45.7791 49.3618 45.837 49.9693 45.4946 50.3743C45.1282 50.8179 44.4773 51.9413 44.8196 52.5681C45.0752 53.0357 44.9064 53.6191 44.4388 53.8795C44.2893 53.9614 44.1302 54 43.9759 54Z" fill="#37635F"/>
<path d="M45.7889 49.458C45.7889 49.458 45.4707 50.8032 46.5699 52.0905L45.7889 49.458Z" fill="#8BF8E7"/>
<path d="M46.5697 53.0549C46.2997 53.0549 46.0297 52.9392 45.8368 52.7174C44.7183 51.4108 44.6893 49.9114 44.8484 49.2364C44.969 48.7205 45.4897 48.3926 46.0104 48.518C46.5263 48.6385 46.8445 49.1496 46.7288 49.6655C46.7192 49.7233 46.5649 50.6008 47.3026 51.459C47.6497 51.864 47.6015 52.4715 47.1965 52.8187C47.0133 52.973 46.7915 53.0501 46.5697 53.0501V53.0549Z" fill="#37635F"/>
<path d="M46.334 48.5278C46.334 48.5278 48.4458 48.1952 49.8054 49.0244L46.334 48.5278Z" fill="#8BF8E7"/>
<path d="M49.8002 49.9887C49.6266 49.9887 49.4531 49.9453 49.2988 49.8489C48.4454 49.3234 46.9749 49.4053 46.4831 49.4825C45.9624 49.5644 45.4657 49.2028 45.3838 48.6773C45.3018 48.1518 45.6586 47.66 46.1841 47.578C46.4349 47.5394 48.6961 47.2164 50.3113 48.2048C50.7645 48.4844 50.9091 49.0775 50.6295 49.5307C50.4463 49.8296 50.1329 49.9935 49.805 49.9935L49.8002 49.9887Z" fill="#37635F"/>
</g>
<defs>
<clipPath id="clip0_1367_692">
<rect width="54" height="54" fill="white"/>
</clipPath>
</defs>
</svg>
