<svg width="66" height="66" viewBox="0 0 66 66" fill="none" xmlns="http://www.w3.org/2000/svg">
<g clip-path="url(#clip0_1367_665)">
<path d="M30.7939 19.4617C30.7939 19.4617 27.1185 7.0062 42.3833 7.13315C42.3833 7.13315 46.1961 19.1024 30.7939 19.4617Z" fill="#8BF8E7"/>
<path d="M35.7407 19.8159C34.2856 20.1779 32.6424 20.3831 30.8147 20.4255C30.3796 20.4343 29.9917 20.1532 29.8671 19.7321C29.8018 19.5099 28.3074 14.2823 31.2995 10.3133C33.4064 7.51852 37.1382 6.12295 42.391 6.1674C42.8096 6.17255 43.1741 6.43957 43.3035 6.83964C43.3699 7.04669 44.8811 11.9422 42.0831 15.8728C40.7163 17.7879 38.5948 19.1057 35.7454 19.8147L35.7407 19.8159ZM31.5594 18.4664C35.8957 18.2421 38.9 16.9977 40.501 14.766C42.2051 12.3894 41.8868 9.41301 41.6252 8.10185C37.4236 8.18838 34.4755 9.31937 32.8477 11.4633C31.0149 13.8819 31.3084 17.0582 31.5594 18.4664Z" fill="#37635F"/>
<path d="M51.6266 31.5233C53.9584 40.8949 49.3931 55.6145 39.9792 53.9821C38.8627 53.7879 37.8409 53.5552 36.2783 54.9029C29.1312 61.0832 17.7891 49.8844 15.4585 40.5175C13.6634 33.3028 14.7331 27.2981 21.199 25.7887C24.4952 25.0182 27.2159 26.4479 30.9308 25.5236C34.9639 24.5201 36.7559 21.9179 40.2883 21.1185C46.3191 19.757 49.8897 24.5426 51.6254 31.5186L51.6266 31.5233Z" fill="#6ED5C5"/>
<path d="M31.2183 25.1046C31.1341 25.1255 31.0476 25.1371 30.9517 25.1312C30.4208 25.1142 30.0015 24.667 30.0185 24.1362C30.0269 23.8906 30.1165 18.0205 24.2923 16.5979C23.7744 16.4733 23.4604 15.9503 23.5849 15.4324C23.7095 14.9145 24.2325 14.6005 24.7504 14.7251C32.1143 16.5247 31.9491 24.1278 31.9478 24.2026C31.9333 24.6435 31.6254 25.0033 31.2183 25.1046Z" fill="#37635F"/>
<path d="M35.7407 19.8159C34.2856 20.1779 32.6424 20.3831 30.8147 20.4255C30.3796 20.4343 29.9917 20.1532 29.8671 19.7321C29.8018 19.5099 28.3074 14.2823 31.2995 10.3133C33.4064 7.51852 37.1382 6.12295 42.391 6.1674C42.8096 6.17255 43.1741 6.43957 43.3035 6.83964C43.3699 7.04669 44.8811 11.9422 42.0831 15.8728C40.7163 17.7879 38.5948 19.1057 35.7454 19.8147L35.7407 19.8159ZM31.5594 18.4664C35.8957 18.2421 38.9 16.9977 40.501 14.766C42.2051 12.3894 41.8868 9.41301 41.6252 8.10185C37.4236 8.18838 34.4755 9.31937 32.8477 11.4633C31.0149 13.8819 31.3084 17.0582 31.5594 18.4664Z" fill="#37635F"/>
<path d="M47.6941 23.3295C46.215 24.2142 45.4678 26.2832 46.1062 28.4695C47.1651 32.1062 48.5491 45.1766 36.9998 49.9184C25.5323 54.6298 18.3714 47.0361 18.2721 46.9366C22.7089 54.0654 30.7468 59.692 36.2785 54.9073C37.8365 53.5607 38.8629 53.7922 39.9794 53.9864C49.3934 55.6189 53.9575 40.8946 51.6269 31.5277C50.7782 28.1168 49.4893 25.2329 47.6906 23.3354L47.6941 23.3295Z" fill="#009081"/>
<path d="M25.3259 42.1162C24.9282 42.2152 24.4957 42.0545 24.2693 41.6835C20.6625 35.814 21.8957 32.064 21.9508 31.9062C22.1233 31.4012 22.6732 31.1352 23.1782 31.3077C23.6785 31.4813 23.9433 32.0265 23.779 32.5245C23.7567 32.5946 22.8517 35.6866 25.9157 40.6727C26.1924 41.1256 26.0525 41.7218 25.5997 41.9984C25.5131 42.0498 25.423 42.0871 25.3294 42.1104L25.3259 42.1162Z" fill="white"/>
<path d="M33.5431 57.412C32.0085 57.7938 30.3434 57.7113 28.5911 57.1585C22.6096 55.2633 16.302 47.9045 14.5232 40.7553C13.2485 35.632 13.474 31.6061 15.1973 28.7876C16.4191 26.7893 18.3781 25.4771 20.976 24.8556C22.7083 24.4494 24.2809 24.5997 25.8021 24.7429C27.4051 24.8955 28.9205 25.0352 30.6937 24.594C32.598 24.1201 34.0034 23.2388 35.3608 22.3844C36.7487 21.5124 38.1786 20.6101 40.07 20.1842C46.006 18.8414 50.4405 22.7859 52.557 31.2919C54.3043 38.3148 52.3566 47.3799 48.1277 51.9299C45.7956 54.4379 42.9178 55.4719 39.8078 54.934L39.6991 54.9164C38.6808 54.7375 38.0682 54.6316 36.9023 55.6371C35.884 56.5165 34.7549 57.1104 33.5384 57.4131L33.5431 57.412ZM21.2685 26.7702C19.252 27.2719 17.7657 28.2876 16.8438 29.7939C15.4204 32.1205 15.2655 35.7512 16.3947 40.2896C18.0024 46.751 23.8533 53.6323 29.1767 55.3186C31.6794 56.1119 33.8537 55.7249 35.6492 54.1752C37.5057 52.5705 38.9086 52.8177 40.0404 53.013L40.1444 53.0319C42.616 53.4603 44.8328 52.6453 46.7225 50.6151C50.4888 46.5628 52.2699 38.1055 50.6901 31.7564C49.4014 26.577 46.5851 20.6896 40.4982 22.065C38.9273 22.4211 37.694 23.195 36.388 24.0168C34.9698 24.9063 33.3678 25.916 31.1594 26.4655C28.951 27.0149 27.3129 26.8213 25.6187 26.6616C24.1887 26.5255 22.8406 26.3989 21.4136 26.7341C21.3621 26.7469 21.3153 26.7585 21.2639 26.7713L21.2685 26.7702Z" fill="#37635F"/>
</g>
<defs>
<clipPath id="clip0_1367_665">
<rect width="54" height="54" fill="white" transform="translate(0 13.0381) rotate(-13.9723)"/>
</clipPath>
</defs>
</svg>
