<svg width="61" height="61" viewBox="0 0 61 61" fill="none" xmlns="http://www.w3.org/2000/svg">
<g clip-path="url(#clip0_1367_620)">
<path d="M29.8701 19.3546C28.6624 17.9381 26.5346 17.765 25.1181 18.9727L20.5262 22.8835C19.1097 24.0912 18.9367 26.2189 20.1444 27.6355L20.3781 27.9118C23.1188 31.1315 24.4499 35.2677 24.3657 39.4967C24.295 43.007 25.5083 46.5618 28.0757 49.387C32.9564 54.768 41.2569 55.6057 47.0992 51.2867C53.8266 46.3181 54.8419 36.7912 49.5156 30.5296C47.226 27.8408 44.1591 26.2112 40.9268 25.6879C36.6086 24.9922 32.7119 22.6859 29.8803 19.3511L29.8701 19.3546Z" fill="#4F9D91"/>
<path d="M49.506 30.5282C47.2164 27.8395 44.1496 26.2099 40.9166 25.6914C36.5983 24.9957 32.7017 22.6893 29.8701 19.3546C28.6624 17.9381 26.5346 17.765 25.1181 18.9727L20.5262 22.8835C19.1097 24.0912 18.9367 26.2189 20.1444 27.6355L20.3781 27.9118C20.3781 27.9118 23.46 30.2642 27.9841 28.5641C32.5082 26.864 37.1629 28.7318 36.4765 30.5292C36.4216 30.6772 36.3401 30.841 36.2429 31.0124C35.0145 33.2009 36.5541 35.8911 39.0611 35.8254L39.3884 35.8179C41.3677 35.7655 42.9197 37.5032 42.6441 39.4607C42.4686 40.7068 43.0398 41.9411 44.1041 42.612L45.3289 43.3882C46.2055 43.9401 46.7632 44.8902 46.8171 45.9251L47.0979 51.2962C53.8253 46.3277 54.8405 36.8008 49.5142 30.5391L49.506 30.5282Z" fill="#5BB5A7"/>
<path d="M35.8378 50.0708C35.7805 50.0627 35.7239 50.0499 35.668 50.0323C34.0864 49.5077 32.6807 48.633 31.4994 47.4441C30.096 46.0341 29.1222 44.2708 28.6778 42.3434C28.5561 41.8247 28.8823 41.3059 29.4003 41.1889C29.919 41.0672 30.4378 41.3934 30.5548 41.9114C30.9173 43.4864 31.7166 44.9331 32.8644 46.0831C33.8326 47.0569 34.9836 47.7692 36.2766 48.1996C36.7835 48.3683 37.0574 48.9133 36.8886 49.4202C36.7381 49.8665 36.2914 50.1346 35.8426 50.0715L35.8378 50.0708Z" fill="#79E7D5"/>
<path d="M36.5014 54.8331C33.0735 54.3504 29.7966 52.7253 27.3522 50.0294C24.7178 47.1266 23.3125 43.3792 23.3953 39.4713C23.4825 35.3596 22.1451 31.4757 19.6389 28.5276L19.4051 28.2512C17.855 26.4311 18.0759 23.6869 19.8954 22.1415L24.4873 18.2307C25.3674 17.4782 26.489 17.1201 27.645 17.2098C28.805 17.305 29.8493 17.8415 30.597 18.721C33.3459 21.9515 37.0622 24.0865 41.0667 24.7282C44.6373 25.304 47.8941 27.1406 50.2378 29.8953C52.9655 33.1034 54.2532 37.3406 53.7713 41.5234C53.2814 45.7635 51.1138 49.5044 47.6585 52.0512C44.3816 54.4722 40.3413 55.364 36.498 54.8229L36.5014 54.8331ZM27.6386 19.1565C27.5909 19.1498 27.5431 19.1431 27.4954 19.1363C26.855 19.0851 26.2329 19.2848 25.7408 19.7024L21.1488 23.6132C20.1366 24.4737 20.0149 25.9951 20.8754 27.0073L21.1092 27.2837C23.9209 30.5864 25.4175 34.9309 25.3224 39.5138C25.2508 42.9266 26.4793 46.2012 28.7808 48.7358C33.3116 53.7315 41.1047 54.5075 46.5174 50.5077C49.5335 48.2788 51.43 45.011 51.8589 41.3077C52.2812 37.6521 51.1562 33.9539 48.7757 31.1501C46.7287 28.7439 43.8821 27.1404 40.7684 26.6387C36.3124 25.9188 32.1852 23.5556 29.1397 19.9765C28.7556 19.5231 28.2313 19.2351 27.6441 19.1524L27.6386 19.1565Z" fill="#3F5753"/>
<path d="M14.1216 6.81479C13.6839 7.19137 13.374 7.66384 13.1813 8.16743C12.9704 8.73175 12.4721 9.15823 11.8812 9.27465C11.3502 9.38004 10.84 9.61494 10.3935 9.9854C9.00888 11.1392 8.7929 13.2608 9.91942 14.6659C11.1081 16.1479 13.2762 16.3461 14.7145 15.122L21.3359 22.905C22.2176 23.9397 23.7829 24.1649 24.8421 23.316C25.9395 22.4382 26.0877 20.8329 25.1814 19.7655L18.493 11.9049C19.9313 10.6808 20.0817 8.50609 18.8099 7.09516C17.601 5.75638 15.4713 5.63179 14.1121 6.81345L14.1216 6.81479Z" fill="#BAFAEE"/>
<path d="M22.8472 24.7583C22.0069 24.6399 21.1987 24.2243 20.6055 23.5272L14.5397 16.397C13.8088 16.781 12.9773 16.9463 12.1316 16.8662C10.9498 16.7533 9.90471 16.1874 9.16782 15.2657C7.70567 13.4433 7.97435 10.7399 9.77757 9.24096C10.329 8.78301 10.9918 8.46735 11.6931 8.32752C11.9535 8.27654 12.1856 8.08038 12.2792 7.83063C12.5294 7.15987 12.9455 6.55627 13.4887 6.08743C15.2537 4.54903 17.9664 4.71677 19.5334 6.45167C20.3254 7.32763 20.7163 8.45872 20.6389 9.63098C20.5827 10.48 20.2863 11.2709 19.794 11.9319L25.9267 19.1397C26.537 19.8538 26.8225 20.7655 26.7344 21.7026C26.6463 22.6396 26.1925 23.4765 25.4573 24.0643C24.7105 24.6652 23.7638 24.8873 22.8519 24.7589L22.8472 24.7583ZM14.8584 14.1681C15.0924 14.201 15.3046 14.3185 15.4598 14.4962L22.0764 22.2785C22.6403 22.9422 23.6156 23.0698 24.2474 22.5599C24.5714 22.2988 24.7691 21.9322 24.8126 21.5196C24.8513 21.1063 24.7277 20.7043 24.4557 20.3884L17.7673 12.5278C17.4201 12.1235 17.4721 11.5124 17.8757 11.17C18.3733 10.7483 18.6708 10.1572 18.7138 9.50598C18.7568 8.85472 18.538 8.2299 18.1 7.74462C17.2499 6.79719 15.7142 6.70754 14.7537 7.5461C14.4488 7.80991 14.2279 8.13424 14.0875 8.50886C13.7592 9.38774 12.99 10.0439 12.0685 10.2257C11.6828 10.3029 11.3176 10.4754 11.014 10.7297C10.0324 11.5458 9.88072 13.0728 10.6757 14.066C11.0859 14.5766 11.6701 14.8877 12.318 14.9546C12.9666 15.0167 13.5983 14.8184 14.0959 14.3967C14.2899 14.2292 14.5447 14.1482 14.7998 14.1695C14.8189 14.1722 14.838 14.1749 14.8571 14.1776L14.8584 14.1681Z" fill="#3F5753"/>
</g>
<defs>
<clipPath id="clip0_1367_620">
<rect width="54" height="54" fill="white" transform="translate(7.5293) rotate(8.01502)"/>
</clipPath>
</defs>
</svg>
