<svg width="67" height="67" viewBox="0 0 67 67" fill="none" xmlns="http://www.w3.org/2000/svg">
<g clip-path="url(#clip0_1766_3138)">
<path d="M27.3309 45.3592L23.1035 42.1025L13.7034 54.3048L17.9308 57.5615L27.3309 45.3592Z" fill="#BAFAEE"/>
<path d="M18.0698 58.6042C17.8034 58.6388 17.5234 58.5689 17.2933 58.3915L13.0624 55.137C12.8381 54.9642 12.6945 54.7172 12.6586 54.4404C12.6227 54.1635 12.6979 53.8828 12.8713 53.6638L22.2734 41.459C22.628 40.9987 23.2914 40.9126 23.7518 41.2672L27.9826 44.5218C28.2069 44.6946 28.3505 44.9415 28.3864 45.2184C28.4223 45.4953 28.3472 45.7759 28.1737 45.995L18.7717 58.1998C18.5944 58.4299 18.3415 58.569 18.0751 58.6035L18.0698 58.6042ZM15.1819 54.1131L17.7432 56.0862L25.8586 45.5516L23.2973 43.5785L15.1819 54.1131Z" fill="#37635F"/>
<path d="M43.3132 20.013L43.7139 20.3217C44.5318 20.9518 44.6842 22.1265 44.0541 22.9444L29.2819 42.12L25.9226 39.5321L40.6947 20.3565C41.3248 19.5385 42.4995 19.3862 43.3174 20.0163L43.3132 20.013Z" fill="#BEC9D2"/>
<path d="M29.421 43.1661C29.1441 43.2021 28.8635 43.1269 28.6444 42.9535L25.2864 40.3665C24.826 40.0119 24.74 39.3485 25.0946 38.8881L39.866 19.7134C40.3434 19.0937 41.0309 18.7018 41.8041 18.6015C42.5772 18.5012 43.3479 18.7093 43.9617 19.1821L44.363 19.4913C45.6378 20.4733 45.8763 22.3122 44.8943 23.587L30.1229 42.7617C29.9501 42.986 29.7031 43.1296 29.4262 43.1655L29.421 43.1661ZM27.3999 39.3381L29.0937 40.6429L43.2241 22.3003C43.4969 21.9462 43.4305 21.4343 43.0757 21.1563L42.6744 20.8471C42.3321 20.5834 41.7992 20.6525 41.5303 20.9955L27.3999 39.3381Z" fill="#37635F"/>
<path d="M38.71 22.0895L42.8831 25.3043C43.7011 25.9344 43.8535 27.1091 43.2233 27.9271L28.4512 47.1027L21.3151 41.6054L36.0873 22.4297C36.7174 21.6118 37.892 21.4594 38.71 22.0895Z" fill="#62BFB1"/>
<path d="M28.5858 48.1514C28.3194 48.1859 28.0394 48.116 27.8092 47.9387L20.674 42.442C20.4498 42.2693 20.3062 42.0223 20.2703 41.7454C20.2344 41.4685 20.3095 41.1879 20.4829 40.9688L35.2544 21.7941C35.7317 21.1744 36.4193 20.7825 37.1924 20.6822C37.9656 20.5819 38.731 20.7907 39.35 21.2628L43.5226 24.4772C44.7973 25.4592 45.0359 27.2981 44.0538 28.5729L29.2824 47.7476C29.1051 47.9778 28.8522 48.1168 28.5858 48.1514ZM22.7935 41.4181L28.2585 45.6281L42.3889 27.2855C42.6617 26.9314 42.5952 26.4195 42.2405 26.1415L38.0679 22.9271C37.7256 22.6634 37.1928 22.7326 36.9239 23.0755L22.7935 41.4181Z" fill="#37635F"/>
<path d="M41.0281 24.6199C40.7617 24.6544 40.4817 24.5845 40.2515 24.4072C39.7912 24.0526 39.7052 23.3891 40.0598 22.9288L52.467 6.82293C52.8217 6.36259 53.4851 6.27653 53.9454 6.63116C54.4058 6.98578 54.4918 7.64924 54.1372 8.10957L41.73 24.2154C41.5527 24.4456 41.2998 24.5846 41.0333 24.6192L41.0281 24.6199Z" fill="#37635F"/>
<path d="M32.7163 51.3286C32.4499 51.3631 32.1699 51.2932 31.9397 51.1159L16.9198 39.5452C16.4595 39.1905 16.3734 38.5271 16.7281 38.0667C17.0827 37.6064 17.7461 37.5204 18.2065 37.875L33.2264 49.4457C33.6867 49.8003 33.7728 50.4638 33.4182 50.9241C33.2409 51.1543 32.988 51.2933 32.7215 51.3279L32.7163 51.3286Z" fill="#37635F"/>
<path d="M20.0349 60.1182C19.7684 60.1527 19.4884 60.0828 19.2583 59.9055L11.4687 53.9094C11.0083 53.5548 10.9223 52.8913 11.2769 52.431C11.6315 51.9707 12.295 51.8846 12.7553 52.2392L20.5449 58.2353C21.0053 58.5899 21.0913 59.2534 20.7367 59.7137C20.5594 59.9439 20.3065 60.0829 20.0401 60.1175L20.0349 60.1182Z" fill="#37635F"/>
<path d="M39.9648 33.3737C39.6984 33.4083 39.4184 33.3383 39.1882 33.161L35.8066 30.5559C35.3462 30.2013 35.2602 29.5378 35.6148 29.0775C35.9694 28.6172 36.6329 28.5311 37.0932 28.8857L40.4749 31.4908C40.9352 31.8455 41.0213 32.5089 40.6667 32.9692C40.4894 33.1994 40.2365 33.3385 39.97 33.373L39.9648 33.3737Z" fill="#37635F"/>
<path d="M36.5424 37.8228C36.276 37.8574 35.996 37.7875 35.7659 37.6101L32.8622 35.3733C32.4019 35.0187 32.3158 34.3552 32.6704 33.8949C33.0251 33.4345 33.6885 33.3485 34.1489 33.7031L37.0525 35.94C37.5129 36.2946 37.5989 36.958 37.2443 37.4184C37.067 37.6485 36.8141 37.7876 36.5477 37.8221L36.5424 37.8228Z" fill="#37635F"/>
<path d="M33.3594 41.9547C33.0929 41.9893 32.8129 41.9194 32.5828 41.7421L29.2011 39.137C28.7408 38.7823 28.6547 38.1189 29.0093 37.6585C29.3639 37.1982 30.0274 37.1121 30.4877 37.4668L33.8694 40.0719C34.3298 40.4265 34.4158 41.09 34.0612 41.5503C33.8839 41.7805 33.631 41.9195 33.3646 41.9541L33.3594 41.9547Z" fill="#37635F"/>
<path d="M38.5889 27.1094C38.3225 27.144 38.0425 27.074 37.8123 26.8967L37.2812 26.4875C36.8208 26.1329 36.7348 25.4695 37.0894 25.0091C37.444 24.5488 38.1075 24.4627 38.5678 24.8174L39.099 25.2265C39.5593 25.5812 39.6454 26.2446 39.2907 26.705C39.1134 26.9351 38.8606 27.0742 38.5941 27.1087L38.5889 27.1094Z" fill="white"/>
<path d="M22.7412 15.6202L18.1544 16.2151L17.5595 11.6284L12.5757 12.2748L13.1706 16.8616L8.58911 17.4559L9.23558 22.4397L13.8171 21.8454L14.4114 26.4269L19.3952 25.7804L18.8009 21.1989L23.3876 20.6039L22.7412 15.6202Z" fill="#73E0CF"/>
<path d="M19.5307 26.825L14.5469 27.4715C13.9723 27.546 13.4411 27.1369 13.3666 26.5622L12.9078 23.0255L9.37109 23.4843C8.79644 23.5588 8.26529 23.1496 8.19075 22.575L7.54427 17.5912C7.46973 17.0165 7.87891 16.4854 8.45356 16.4108L11.9903 15.9521L11.5315 12.4154C11.457 11.8407 11.8661 11.3096 12.4408 11.235L17.4246 10.5886C17.9992 10.514 18.5304 10.9232 18.6049 11.4978L19.0637 15.0346L22.6004 14.5758C23.175 14.5012 23.7062 14.9104 23.7807 15.4851L24.4272 20.4689C24.5018 21.0435 24.0926 21.5747 23.5179 21.6492L19.9812 22.108L20.44 25.6447C20.5145 26.2193 20.1053 26.7505 19.5307 26.825ZM15.3207 25.2463L18.2148 24.8709L17.7561 21.3342C17.6815 20.7596 18.0907 20.2284 18.6653 20.1539L22.2021 19.6951L21.8266 16.801L18.2899 17.2597C17.7153 17.3343 17.1841 16.9251 17.1096 16.3504L16.6508 12.8137L13.7567 13.1891L14.2154 16.7258C14.29 17.3005 13.8808 17.8316 13.3061 17.9062L9.76944 18.3649L10.1449 21.2591L13.6816 20.8003C14.2562 20.7258 14.7874 21.135 14.8619 21.7096L15.3207 25.2463Z" fill="#37635F"/>
</g>
<defs>
<clipPath id="clip0_1766_3138">
<rect width="59" height="59" fill="white" transform="translate(0 7.58984) rotate(-7.39085)"/>
</clipPath>
</defs>
</svg>
