<svg width="71" height="71" viewBox="0 0 71 71" fill="none" xmlns="http://www.w3.org/2000/svg">
<g clip-path="url(#clip0_1766_3064)">
<path d="M22.1163 26.4328C22.1163 26.4328 21.155 20.7011 13.7146 20.3577C13.7146 20.3577 14.0471 26.6008 17.1421 26.8147" fill="#73E0CF"/>
<path d="M16.5485 27.793C13.1163 27.0167 12.6957 21.1156 12.6595 20.4161C12.6451 20.1212 12.7548 19.8274 12.9647 19.6156C13.1746 19.4038 13.4648 19.2912 13.759 19.3038C21.9529 19.6826 23.1375 26.1939 23.1492 26.2614C23.2465 26.8343 22.8587 27.3785 22.2859 27.4758C21.713 27.573 21.1739 27.1865 21.0755 26.6187C21.0391 26.4214 20.2299 22.3336 14.9019 21.5336C15.1882 23.3482 15.908 25.6822 17.2109 25.7717C17.7908 25.811 18.2277 26.3149 18.1884 26.8947C18.149 27.4745 17.6452 27.9114 17.0653 27.8721C16.8848 27.8583 16.7118 27.8353 16.5474 27.7982L16.5485 27.793Z" fill="#37635F"/>
<path d="M20.231 27.0321C20.231 27.0321 20.7668 20.6992 19.7227 18.4863L20.231 27.0321Z" fill="#73E0CF"/>
<path d="M19.9986 28.0598C19.4951 27.9459 19.1369 27.476 19.1812 26.946C19.3762 24.6029 19.439 20.3612 18.7719 18.9411C18.5236 18.415 18.7522 17.7862 19.2782 17.5379C19.8043 17.2896 20.4331 17.5183 20.6814 18.0443C21.8077 20.4432 21.3412 26.4461 21.2849 27.1247C21.2353 27.7022 20.7274 28.1328 20.1436 28.0872C20.0962 28.0819 20.0437 28.0754 19.9975 28.0649L19.9986 28.0598Z" fill="#37635F"/>
<path d="M21.5132 23.8451C21.5132 23.8451 24.9189 14.0404 24.9158 10.3293L21.5132 23.8451Z" fill="#73E0CF"/>
<path d="M21.2809 24.8724C21.245 24.8643 21.2039 24.855 21.1639 24.8405C20.6127 24.6511 20.3218 24.0506 20.5164 23.5005C20.5488 23.4052 23.8663 13.8236 23.8629 10.3284C23.8599 9.74445 24.3337 9.2737 24.9165 9.27589C25.4953 9.27178 25.9712 9.74668 25.969 10.3295C25.9739 14.176 22.6495 23.7885 22.5091 24.1942C22.3341 24.7055 21.7987 24.9949 21.2849 24.8787L21.2809 24.8724Z" fill="#37635F"/>
<path d="M21.2017 27.7329C21.2017 27.7329 20.6857 22.8742 23.743 21.2487C26.8054 19.6243 29.8291 19.3414 29.8291 19.3414C29.8291 19.3414 29.6566 27.8413 24.6709 28.3933" fill="#73E0CF"/>
<path d="M20.9692 28.7603C20.5428 28.6638 20.2024 28.306 20.155 27.847C20.1307 27.6201 19.6046 22.2568 23.2505 20.3215C26.4606 18.6171 29.5987 18.3061 29.7313 18.2929C30.0297 18.2632 30.3259 18.3626 30.5491 18.5697C30.7671 18.7756 30.8912 19.0629 30.8878 19.3646C30.8812 19.752 30.6289 28.7954 24.7904 29.4409C24.2142 29.505 23.6923 29.0899 23.6282 28.5137C23.5641 27.9375 23.9792 27.4157 24.5554 27.3516C27.5358 27.0211 28.418 22.7865 28.6741 20.603C27.5791 20.836 25.9026 21.2994 24.2394 22.1817C21.8766 23.4349 22.2461 27.58 22.2483 27.6183C22.3112 28.1996 21.8922 28.7152 21.3108 28.7781C21.1948 28.7897 21.0771 28.7847 20.9641 28.7591L20.9692 28.7603Z" fill="#37635F"/>
<path d="M25.4351 28.6905L16.0479 26.5674L14.7374 34.5344C14.5989 35.3618 15.1319 36.1575 15.9539 36.3434L21.3181 37.5566C22.1402 37.7426 22.9574 37.2577 23.1947 36.4472L25.4403 28.6917L25.4351 28.6905Z" fill="#6ED5C5"/>
<path d="M21.0856 38.5839L15.7214 37.3707C14.3598 37.0627 13.47 35.7435 13.6958 34.3633L15.0062 26.3963C15.0547 26.1102 15.2151 25.8548 15.4568 25.6935C15.6985 25.5321 15.9924 25.4743 16.2802 25.5394L25.6674 27.6626C25.95 27.7265 26.1956 27.9062 26.3444 28.1559C26.4932 28.4056 26.528 28.7051 26.4487 28.9842L24.2031 36.7398C23.813 38.0828 22.442 38.8907 21.0804 38.5827L21.0856 38.5839ZM16.9046 27.841L15.7737 34.7036C15.7264 34.9846 15.91 35.2475 16.1823 35.3091L21.5464 36.5224C21.8239 36.5851 22.0988 36.4204 22.1758 36.1516L24.1082 29.4703L16.8995 27.8398L16.9046 27.841Z" fill="#37635F"/>
<path d="M19.7175 18.4851C19.7175 18.4851 14.7712 17.8362 14.8573 14.8528C14.9433 11.8693 20.6816 15.5598 19.7175 18.4851Z" fill="#73E0CF"/>
<path d="M18.6756 19.3673C16.5073 18.8769 13.7229 17.5288 13.8062 14.8202C13.8349 13.8815 14.2775 13.1661 15.0169 12.8581C16.3246 12.3059 18.0147 13.239 19.0538 14.2086C20.5821 15.6182 21.2024 17.341 20.7169 18.819C20.5591 19.3018 20.0814 19.5989 19.5777 19.5335C19.2996 19.4976 18.993 19.4445 18.6744 19.3724L18.6756 19.3673ZM15.9181 14.7956C15.9181 14.7956 15.9116 14.8481 15.9098 14.8801C15.8737 16.1142 17.4664 16.8092 18.641 17.1559C18.5024 16.7897 18.2496 16.4031 17.8985 16.0212C17.1388 15.2013 16.27 14.8158 15.9193 14.7904L15.9181 14.7956Z" fill="#37635F"/>
<path d="M24.1886 15.4075C24.1886 15.4075 29.9368 11.4363 30.5411 14.8297C31.0066 17.4518 24.7212 17.0402 24.1886 15.4075Z" fill="#73E0CF"/>
<path d="M25.8143 17.5794C24.5709 17.2982 23.4955 16.7039 23.1849 15.7371C23.042 15.2943 23.2061 14.8075 23.5899 14.5433C24.2871 14.0637 27.8723 11.7042 30.0681 12.6221C30.6357 12.8585 31.3559 13.3994 31.5758 14.6482C31.7716 15.7403 31.2717 17.0908 29.2803 17.5856C28.3018 17.8288 26.9807 17.8432 25.8143 17.5794ZM26.1017 15.4732C26.9899 15.7011 28.2735 15.7808 29.1331 15.4189C29.5394 15.2462 29.5187 15.1227 29.4997 15.0158C29.4337 14.639 29.3047 14.5882 29.2506 14.5651C28.7086 14.3346 27.3796 14.7901 26.1017 15.4732Z" fill="#37635F"/>
<path d="M24.9453 10.5126C24.9453 10.5126 18.0079 9.68887 19.8034 6.741C21.1872 4.46696 25.6318 8.93418 24.9453 10.5126Z" fill="#73E0CF"/>
<path d="M23.1794 11.275C21.5866 10.9147 19.401 10.1665 18.6922 8.71542C18.4229 8.16302 18.2393 7.27897 18.8999 6.19697C19.4766 5.24722 20.7431 4.56689 22.5651 5.51367C24.4167 6.47256 26.7003 9.12779 25.913 10.9373C25.7297 11.3657 25.283 11.6211 24.8204 11.5651C24.5526 11.5315 23.9284 11.4498 23.1782 11.2801L23.1794 11.275ZM21.0806 7.18167C20.8032 7.11891 20.7503 7.20957 20.6997 7.28994C20.5025 7.6126 20.5603 7.73909 20.587 7.78833C20.8444 8.32183 22.1382 8.85751 23.5529 9.19366C23.0438 8.43581 22.1273 7.52101 21.2427 7.22913C21.1822 7.21005 21.1269 7.19213 21.0806 7.18167Z" fill="#37635F"/>
<path d="M11.0818 53.4914C10.1355 51.9919 10.327 50.1665 11.5051 49.423L12.7336 48.6477L13.5733 48.2543C16.9144 46.6876 20.0267 44.7234 22.8827 42.3881L23.6381 41.7704L25.4714 40.6134C25.8998 40.343 26.5246 40.5654 26.8666 41.1072L29.0574 44.5786C29.3993 45.1204 29.3311 45.7801 28.9027 46.0504L27.1197 47.1756L26.1106 47.6495C22.8216 49.201 19.7534 51.1373 16.9376 53.4386L16.0629 54.1535L14.9352 54.8652C13.7508 55.6127 12.0258 55.0011 11.0807 53.4965L11.0818 53.4914Z" fill="#70EBD8"/>
<path d="M13.0171 56.1323C11.9382 55.8883 10.8878 55.1593 10.1881 54.0504C8.93165 52.0596 9.27065 49.5816 10.9402 48.528L12.1687 47.7527C12.2065 47.7288 12.2432 47.7101 12.2861 47.6874L13.1258 47.294C16.377 45.7664 19.4366 43.8443 22.2146 41.5669L22.97 40.9493C23.0027 40.9242 23.0365 40.8941 23.0732 40.8754L24.9065 39.7183C25.8263 39.1379 27.1037 39.5078 27.7558 40.541L29.9465 44.0124C30.2368 44.4723 30.369 45.0099 30.318 45.5222C30.2534 46.118 29.9469 46.6373 29.4681 46.9395L27.6852 48.0647C27.6474 48.0886 27.6107 48.1073 27.5741 48.126L26.565 48.5999C23.3619 50.106 20.3492 52.0117 17.6073 54.2486L16.7327 54.9635C16.7 54.9886 16.6674 55.0136 16.6296 55.0374L15.5018 55.7491C14.7584 56.2183 13.8803 56.3276 13.0223 56.1335L13.0171 56.1323ZM13.2435 49.5674L12.0666 50.3058C11.3861 50.7352 11.3428 51.9298 11.971 52.9252C12.5952 53.9144 13.6974 54.3905 14.3766 53.9662L15.4476 53.2903L16.2695 52.6174C19.1444 50.2701 22.302 48.273 25.6619 46.6944L26.6115 46.2448L28.2118 45.2349C28.2118 45.2349 28.1886 45.1703 28.1647 45.1325L25.974 41.6611C25.9501 41.6233 25.9239 41.5957 25.9017 41.5745L24.2511 42.6162L23.5484 43.1918C20.6374 45.5795 17.4318 47.5982 14.0186 49.1972L13.2396 49.5611L13.2435 49.5674Z" fill="#37635F"/>
<path d="M36.3392 39.3507L34.582 36.5664L30.1494 39.3638L31.9066 42.1481L36.3392 39.3507Z" fill="#53918C"/>
<path d="M31.6745 43.1772C31.4125 43.1179 31.1737 42.9559 31.0186 42.7102L29.2612 39.9255C29.1101 39.6861 29.0603 39.4048 29.1219 39.1325C29.1835 38.8602 29.3507 38.6225 29.5889 38.4766L34.0242 35.6775C34.5157 35.3674 35.1682 35.5149 35.4783 36.0064L37.2357 38.791C37.3868 39.0304 37.4366 39.3117 37.375 39.5841C37.3134 39.8564 37.1462 40.094 36.908 40.24L32.4738 43.0339C32.2281 43.189 31.9429 43.2325 31.6808 43.1732L31.6745 43.1772ZM31.6036 39.6938L32.2358 40.6955L34.8882 39.0216L34.256 38.0199L31.6036 39.6938Z" fill="#37635F"/>
<path d="M30.3618 39.9093L31.6045 41.8784C32.1106 42.6803 31.8678 43.7367 31.0704 44.2399L29.3686 45.3139L26.2957 40.4447L27.9975 39.3708C28.7994 38.8647 29.8558 39.1074 30.359 39.9049L30.3618 39.9093Z" fill="#53918C"/>
<path d="M29.1324 46.3449C28.8704 46.2857 28.6316 46.1237 28.4765 45.8779L25.4031 41.0079C25.093 40.5165 25.2406 39.864 25.732 39.5538L27.433 38.4803C28.7246 37.6652 30.4355 38.0522 31.2506 39.3438L32.4911 41.3094C33.3062 42.6009 32.9192 44.3119 31.6277 45.127L29.9266 46.2005C29.6809 46.3556 29.3956 46.3991 29.1336 46.3398L29.1324 46.3449ZM27.7455 40.7762L29.6937 43.8633L30.5065 43.3504C30.8152 43.1555 30.9081 42.7445 30.7121 42.4409L29.4716 40.4753C29.2768 40.1666 28.8658 40.0736 28.5622 40.2696L27.7495 40.7825L27.7455 40.7762Z" fill="#37635F"/>
<path d="M47.7866 42.9107C43.2063 45.8013 37.4547 43.1015 34.5641 38.5213C31.6736 33.9411 31.7169 27.5886 36.292 24.6969C40.8722 21.8064 56.5294 20.7082 58.3106 23.5307C60.0919 26.3532 52.3616 40.019 47.7826 42.9044L47.7866 42.9107Z" fill="#5BB5A7"/>
<path d="M41.5767 44.936C38.4168 44.2213 35.4918 41.9665 33.6748 39.0873C32.1043 36.5987 31.343 33.6127 31.5807 30.8904C31.8469 27.8505 33.3237 25.3328 35.7304 23.814C40.235 20.9711 56.8771 19.291 59.2031 22.9766C60.6344 25.2447 58.0348 30.6733 56.3538 33.7119C54.3794 37.2836 51.0994 42.0669 48.3462 43.8044C46.1726 45.1761 43.8118 45.4415 41.5716 44.9348L41.5767 44.936ZM55.7665 23.3659C54.2713 23.0278 51.8117 22.8225 48.4169 23.0269C43.4613 23.3265 38.8161 24.3552 36.8567 25.5918C34.4942 27.0828 33.8255 29.3944 33.6781 31.0731C33.4776 33.3447 34.1246 35.8567 35.4577 37.9621C36.7857 40.0664 38.7747 41.7314 40.9104 42.5331C42.4892 43.1224 44.8635 43.5136 47.2261 42.0226C49.1855 40.7861 52.1131 37.0357 54.5161 32.6913C57.1964 27.8372 57.8308 24.7456 57.4253 24.103C57.2662 23.851 56.7107 23.5849 55.7653 23.3711L55.7665 23.3659Z" fill="#37635F"/>
<path d="M55.3922 25.5227L37.5502 36.7827C37.2478 36.9736 36.9166 36.9095 36.9021 36.6632C36.8236 35.0521 37.9621 29.6603 55.2319 24.8708C55.7335 24.7304 55.8585 25.2285 55.3922 25.5227Z" fill="#53918C"/>
</g>
<defs>
<clipPath id="clip0_1766_3064">
<rect width="59" height="59" fill="white" transform="translate(13.0156) rotate(12.7443)"/>
</clipPath>
</defs>
</svg>
