<svg width="46" height="61" viewBox="0 0 46 61" fill="none" xmlns="http://www.w3.org/2000/svg">
<path fill-rule="evenodd" clip-rule="evenodd" d="M36.8989 39.8676C41.8783 35.736 45.0495 29.5007 45.0495 22.5248C45.0495 10.0847 34.9648 0 22.5248 0C10.0847 0 0 10.0847 0 22.5248C0 29.4966 3.1675 35.7287 8.14193 39.8604L13.1499 45.0701C17.3744 49.4648 20.6498 54.6816 22.7723 60.396C24.73 54.6859 27.8812 49.4582 32.0162 45.0605L36.8989 39.8676Z" fill="#009081"/>
<path d="M15.266 10.896C16.7158 10.3806 18.3969 10.7031 19.5573 11.8635C20.7181 13.0242 21.0404 14.7059 20.5244 16.156L33.275 28.9067L30.7809 31.4008L18.029 18.6506C16.5792 19.166 14.8981 18.8435 13.7377 17.6831C12.5769 16.5224 12.2546 14.8407 12.7706 13.3906L15.4004 16.0204C16.0892 16.7091 17.2058 16.7091 17.8946 16.0204C18.5833 15.3316 18.5833 14.215 17.8946 13.5262L15.266 10.896ZM27.4554 13.1105L31.1966 11.0321L32.8593 12.6949L30.7809 16.4361L28.7024 16.8517L26.2083 19.3459L24.5456 17.6831L27.0397 15.189L27.4554 13.1105ZM19.1416 22.2556L21.6357 24.7499L15.8161 30.5694C15.1274 31.2582 14.0107 31.2582 13.322 30.5694C12.6738 29.9212 12.6356 28.8939 13.2076 28.2011L13.322 28.0753L19.1416 22.2556Z" fill="white"/>
</svg>
