<svg width="46" height="61" viewBox="0 0 46 61" fill="none" xmlns="http://www.w3.org/2000/svg">
<mask id="path-1-inside-1_454_1049" fill="white">
<path fill-rule="evenodd" clip-rule="evenodd" d="M36.8989 39.8676C41.8783 35.736 45.0495 29.5007 45.0495 22.5248C45.0495 10.0847 34.9648 0 22.5248 0C10.0847 0 0 10.0847 0 22.5248C0 29.4966 3.1675 35.7287 8.14193 39.8604L13.1499 45.0701C17.3744 49.4648 20.6498 54.6816 22.7723 60.396C24.73 54.6859 27.8812 49.4582 32.0162 45.0605L36.8989 39.8676Z"/>
</mask>
<path fill-rule="evenodd" clip-rule="evenodd" d="M36.8989 39.8676C41.8783 35.736 45.0495 29.5007 45.0495 22.5248C45.0495 10.0847 34.9648 0 22.5248 0C10.0847 0 0 10.0847 0 22.5248C0 29.4966 3.1675 35.7287 8.14193 39.8604L13.1499 45.0701C17.3744 49.4648 20.6498 54.6816 22.7723 60.396C24.73 54.6859 27.8812 49.4582 32.0162 45.0605L36.8989 39.8676Z" fill="white"/>
<path d="M36.8989 39.8676L34.9832 37.5589L34.8404 37.6774L34.7133 37.8126L36.8989 39.8676ZM8.14193 39.8604L10.3047 37.7814L10.1881 37.6601L10.0587 37.5526L8.14193 39.8604ZM13.1499 45.0701L10.9871 47.1491L13.1499 45.0701ZM22.7723 60.396L19.96 61.4406L22.8853 69.3164L25.6101 61.369L22.7723 60.396ZM32.0162 45.0605L34.2018 47.1155L32.0162 45.0605ZM42.0495 22.5248C42.0495 28.5706 39.3052 33.9728 34.9832 37.5589L38.8145 42.1764C44.4514 37.4992 48.0495 30.4308 48.0495 22.5248H42.0495ZM22.5248 3C33.308 3 42.0495 11.7415 42.0495 22.5248H48.0495C48.0495 8.42782 36.6217 -3 22.5248 -3V3ZM3 22.5248C3 11.7415 11.7415 3 22.5248 3V-3C8.42782 -3 -3 8.42782 -3 22.5248H3ZM10.0587 37.5526C5.74112 33.9665 3 28.5671 3 22.5248H-3C-3 30.4262 0.593883 37.491 6.22512 42.1682L10.0587 37.5526ZM5.97915 41.9394L10.9871 47.1491L15.3127 42.9911L10.3047 37.7814L5.97915 41.9394ZM10.9871 47.1491C14.9265 51.2472 17.9808 56.1119 19.96 61.4406L25.5846 59.3515C23.3188 53.2513 19.8224 47.6824 15.3127 42.9911L10.9871 47.1491ZM25.6101 61.369C27.4297 56.0618 30.3586 51.2029 34.2018 47.1155L29.8306 43.0054C25.4039 47.7134 22.0303 53.3101 19.9344 59.4231L25.6101 61.369ZM34.2018 47.1155L39.0845 41.9227L34.7133 37.8126L29.8306 43.0054L34.2018 47.1155Z" fill="#A558A0" mask="url(#path-1-inside-1_454_1049)"/>
<path d="M30.4209 22.6303L32.0197 25.3984C33.0287 27.146 32.4299 29.3807 30.6823 30.3897C30.1268 30.7104 29.4968 30.8792 28.8554 30.8792L26.7026 30.8786V32.9671L21.4828 29.3133L26.7026 25.6594V27.7467L28.8554 27.7473C28.9471 27.7473 29.0371 27.7232 29.1164 27.6774C29.3383 27.5493 29.4305 27.2828 29.3471 27.0499L29.3074 26.9644L27.7087 24.1962L30.4209 22.6303ZM18.0762 19.7966L18.6307 26.1439L16.823 25.1003L15.7461 26.9644C15.7002 27.0437 15.6761 27.1337 15.6761 27.2254C15.6761 27.4817 15.8608 27.6947 16.1043 27.7389L16.1981 27.7473L19.3948 27.7469V30.8787L16.1981 30.8792C14.1801 30.8792 12.5443 29.2433 12.5443 27.2254C12.5443 26.584 12.7131 25.9539 13.0338 25.3984L14.1107 23.5344L12.302 22.4901L18.0762 19.7966ZM24.3537 13.0995C24.9092 13.4202 25.3704 13.8815 25.6911 14.4369L26.767 16.3016L28.5756 15.2573L28.0212 21.6047L22.2471 18.9112L24.0547 17.8675L22.9788 16.0028C22.9329 15.9235 22.8671 15.8576 22.7877 15.8118C22.5658 15.6837 22.2889 15.737 22.1289 15.9258L22.0747 16.0028L20.4767 18.7714L17.7645 17.2055L19.3624 14.4369C20.3714 12.6893 22.6061 12.0905 24.3537 13.0995Z" fill="#A558A0"/>
</svg>
