<svg width="46" height="61" fill="none" xmlns="http://www.w3.org/2000/svg"><mask id="a" fill="#fff"><path fill-rule="evenodd" clip-rule="evenodd" d="M36.899 39.868c4.98-4.132 8.15-10.367 8.15-17.343C45.05 10.085 34.966 0 22.526 0 10.085 0 0 10.085 0 22.525c0 6.972 3.167 13.204 8.142 17.335l5.008 5.21a44.446 44.446 0 0 1 9.622 15.326 42.517 42.517 0 0 1 9.244-15.336l4.883-5.192Z"/></mask><path fill-rule="evenodd" clip-rule="evenodd" d="M36.899 39.868c4.98-4.132 8.15-10.367 8.15-17.343C45.05 10.085 34.966 0 22.526 0 10.085 0 0 10.085 0 22.525c0 6.972 3.167 13.204 8.142 17.335l5.008 5.21a44.446 44.446 0 0 1 9.622 15.326 42.517 42.517 0 0 1 9.244-15.336l4.883-5.192Z" fill="#009081"/><path d="m36.899 39.868-1.916-2.31-.143.12-.127.135 2.186 2.055ZM8.142 39.86l2.163-2.079-.117-.12-.13-.108-1.916 2.307Zm5.008 5.21-2.163 2.08 2.163-2.08Zm9.622 15.326-2.812 1.045 2.925 7.875 2.725-7.947-2.838-.973Zm9.244-15.336 2.186 2.055-2.186-2.055ZM42.05 22.525c0 6.046-2.745 11.448-7.067 15.034l3.832 4.617C44.45 37.5 48.05 30.431 48.05 22.525h-6ZM22.525 3C33.308 3 42.05 11.742 42.05 22.525h6C48.05 8.428 36.621-3 22.525-3v6ZM3 22.525C3 11.742 11.742 3 22.525 3v-6C8.428-3-3 8.428-3 22.525h6Zm7.059 15.028C5.74 33.967 3 28.567 3 22.525h-6C-3 30.426.594 37.49 6.225 42.168l3.834-4.615Zm-4.08 4.386 5.008 5.21 4.326-4.158-5.008-5.21-4.326 4.158Zm5.008 5.21a41.446 41.446 0 0 1 8.973 14.292l5.625-2.09a47.445 47.445 0 0 0-10.272-16.36l-4.326 4.158ZM25.61 61.37a39.518 39.518 0 0 1 8.592-14.254l-4.371-4.11a45.519 45.519 0 0 0-9.897 16.418l5.676 1.946Zm8.592-14.254 4.883-5.192-4.372-4.11-4.882 5.192 4.37 4.11Z" fill="#37635F" mask="url(#a)"/></svg>
