<svg width="46" height="61" viewBox="0 0 46 61" fill="none" xmlns="http://www.w3.org/2000/svg">
<mask id="path-1-inside-1_1511_870" fill="white">
<path fill-rule="evenodd" clip-rule="evenodd" d="M36.8989 39.8676C41.8783 35.736 45.0495 29.5007 45.0495 22.5248C45.0495 10.0847 34.9648 0 22.5248 0C10.0847 0 0 10.0847 0 22.5248C0 29.4966 3.1675 35.7287 8.14193 39.8604L13.1499 45.0701C17.3744 49.4648 20.6498 54.6816 22.7723 60.396C24.73 54.6859 27.8812 49.4582 32.0162 45.0605L36.8989 39.8676Z"/>
</mask>
<path fill-rule="evenodd" clip-rule="evenodd" d="M36.8989 39.8676C41.8783 35.736 45.0495 29.5007 45.0495 22.5248C45.0495 10.0847 34.9648 0 22.5248 0C10.0847 0 0 10.0847 0 22.5248C0 29.4966 3.1675 35.7287 8.14193 39.8604L13.1499 45.0701C17.3744 49.4648 20.6498 54.6816 22.7723 60.396C24.73 54.6859 27.8812 49.4582 32.0162 45.0605L36.8989 39.8676Z" fill="white"/>
<path d="M36.8989 39.8676L34.9832 37.5589L34.8404 37.6774L34.7133 37.8126L36.8989 39.8676ZM8.14193 39.8604L10.3047 37.7814L10.1881 37.6601L10.0587 37.5526L8.14193 39.8604ZM13.1499 45.0701L10.9871 47.1491L13.1499 45.0701ZM22.7723 60.396L19.96 61.4406L22.8853 69.3164L25.6101 61.369L22.7723 60.396ZM32.0162 45.0605L34.2018 47.1155L32.0162 45.0605ZM42.0495 22.5248C42.0495 28.5706 39.3052 33.9728 34.9832 37.5589L38.8145 42.1764C44.4514 37.4992 48.0495 30.4308 48.0495 22.5248H42.0495ZM22.5248 3C33.308 3 42.0495 11.7415 42.0495 22.5248H48.0495C48.0495 8.42782 36.6217 -3 22.5248 -3V3ZM3 22.5248C3 11.7415 11.7415 3 22.5248 3V-3C8.42782 -3 -3 8.42782 -3 22.5248H3ZM10.0587 37.5526C5.74112 33.9665 3 28.5671 3 22.5248H-3C-3 30.4262 0.593883 37.491 6.22512 42.1682L10.0587 37.5526ZM5.97915 41.9394L10.9871 47.1491L15.3127 42.9911L10.3047 37.7814L5.97915 41.9394ZM10.9871 47.1491C14.9265 51.2472 17.9808 56.1119 19.96 61.4406L25.5846 59.3515C23.3188 53.2513 19.8224 47.6824 15.3127 42.9911L10.9871 47.1491ZM25.6101 61.369C27.4297 56.0618 30.3586 51.2029 34.2018 47.1155L29.8306 43.0054C25.4039 47.7134 22.0303 53.3101 19.9344 59.4231L25.6101 61.369ZM34.2018 47.1155L39.0845 41.9227L34.7133 37.8126L29.8306 43.0054L34.2018 47.1155Z" fill="currentColor" mask="url(#path-1-inside-1_1511_870)"/>
</svg>
