<svg width="35" height="47" viewBox="0 0 35 47" fill="none" xmlns="http://www.w3.org/2000/svg">
<mask id="path-1-inside-1_1_5" fill="white">
<path fill-rule="evenodd" clip-rule="evenodd" d="M28.6676 31.0249C32.5362 27.8096 35 22.9574 35 17.5287C35 7.84786 27.165 0 17.5 0C7.83502 0 0 7.84786 0 17.5287C0 22.9542 2.4609 27.804 6.32565 31.0192L10.2135 35.0704C13.4976 38.4924 16.0433 42.553 17.6923 47C19.2134 42.5563 21.6625 38.4872 24.877 35.0628L28.6676 31.0249Z"/>
</mask>
<path fill-rule="evenodd" clip-rule="evenodd" d="M28.6676 31.0249C32.5362 27.8096 35 22.9574 35 17.5287C35 7.84786 27.165 0 17.5 0C7.83502 0 0 7.84786 0 17.5287C0 22.9542 2.4609 27.804 6.32565 31.0192L10.2135 35.0704C13.4976 38.4924 16.0433 42.553 17.6923 47C19.2134 42.5563 21.6625 38.4872 24.877 35.0628L28.6676 31.0249Z" fill="white"/>
<path d="M28.6676 31.0249L26.7501 28.7177L26.6073 28.8363L26.4803 28.9716L28.6676 31.0249ZM6.32565 31.0192L8.49013 28.942L8.37364 28.8206L8.24432 28.713L6.32565 31.0192ZM10.2135 35.0704L8.04904 37.1476L8.04904 37.1476L10.2135 35.0704ZM17.6923 47L14.8795 48.0431L17.8054 55.9333L20.5306 47.9715L17.6923 47ZM24.877 35.0628L22.6898 33.0096L22.6898 33.0096L24.877 35.0628ZM32 17.5287C32 22.0291 29.9615 26.0486 26.7501 28.7177L30.5851 33.3321C35.1109 29.5706 38 23.8856 38 17.5287H32ZM17.5 3C25.5035 3 32 9.50008 32 17.5287H38C38 6.19564 28.8265 -3 17.5 -3V3ZM3 17.5287C3 9.50008 9.4965 3 17.5 3V-3C6.17353 -3 -3 6.19564 -3 17.5287H3ZM8.24432 28.713C5.03611 26.0439 3 22.0265 3 17.5287H-3C-3 23.8819 -0.114305 29.564 4.40698 33.3255L8.24432 28.713ZM4.16116 33.0965L8.04904 37.1476L12.378 32.9931L8.49013 28.942L4.16116 33.0965ZM8.04904 37.1476C11.0485 40.273 13.3734 43.9815 14.8795 48.0431L20.5051 45.9569C18.7131 41.1244 15.9468 36.7118 12.378 32.9931L8.04904 37.1476ZM20.5306 47.9715C21.9138 43.9306 24.141 40.2301 27.0643 37.1161L22.6898 33.0096C19.1839 36.7442 16.5129 41.1821 14.854 46.0285L20.5306 47.9715ZM27.0643 37.1161L30.8549 33.0781L26.4803 28.9716L22.6898 33.0096L27.0643 37.1161Z" fill="currentColor" mask="url(#path-1-inside-1_1_5)"/>
</svg>
