<svg width="36" height="47" viewBox="0 0 36 47" fill="none" xmlns="http://www.w3.org/2000/svg">
<mask id="path-1-inside-1_4_22" fill="white">
<path fill-rule="evenodd" clip-rule="evenodd" d="M28.7146 31.0249C32.5896 27.8096 35.0574 22.9573 35.0574 17.5287C35.0574 7.84786 27.2095 0 17.5287 0C7.84786 0 0 7.84786 0 17.5287C0 22.9542 2.46494 27.804 6.33602 31.0192L10.2332 35.0734C13.5207 38.4934 16.0696 42.553 17.7213 47C19.2448 42.5564 21.6971 38.4882 24.9149 35.0659L28.7146 31.0249Z"/>
</mask>
<path fill-rule="evenodd" clip-rule="evenodd" d="M28.7146 31.0249C32.5896 27.8096 35.0574 22.9573 35.0574 17.5287C35.0574 7.84786 27.2095 0 17.5287 0C7.84786 0 0 7.84786 0 17.5287C0 22.9542 2.46494 27.804 6.33602 31.0192L10.2332 35.0734C13.5207 38.4934 16.0696 42.553 17.7213 47C19.2448 42.5564 21.6971 38.4882 24.9149 35.0659L28.7146 31.0249Z" fill="#009081"/>
<path d="M28.7146 31.0249L26.7989 28.7161L26.6561 28.8346L26.529 28.9698L28.7146 31.0249ZM6.33602 31.0192L8.4988 28.9402L8.38223 28.8189L8.25283 28.7115L6.33602 31.0192ZM10.2332 35.0734L8.07041 37.1524L8.07042 37.1524L10.2332 35.0734ZM17.7213 47L14.909 48.0446L17.8343 55.9204L20.5591 47.973L17.7213 47ZM24.9149 35.0659L27.1005 37.121L27.1005 37.121L24.9149 35.0659ZM32.0574 17.5287C32.0574 22.0272 30.0164 26.0464 26.7989 28.7161L30.6302 33.3336C35.1627 29.5728 38.0574 23.8875 38.0574 17.5287H32.0574ZM17.5287 3C25.5527 3 32.0574 9.50471 32.0574 17.5287H38.0574C38.0574 6.19101 28.8664 -3 17.5287 -3V3ZM3 17.5287C3 9.50471 9.50471 3 17.5287 3V-3C6.19101 -3 -3 6.19101 -3 17.5287H3ZM8.25283 28.7115C5.03855 26.0417 3 22.0246 3 17.5287H-3C-3 23.8838 -0.108682 29.5662 4.4192 33.327L8.25283 28.7115ZM4.17323 33.0983L8.07041 37.1524L12.396 32.9944L8.4988 28.9402L4.17323 33.0983ZM8.07042 37.1524C11.0728 40.2758 13.4006 43.9833 14.909 48.0446L20.5336 45.9554C18.7386 41.1227 15.9686 36.711 12.396 32.9944L8.07042 37.1524ZM20.5591 47.973C21.9445 43.9323 24.1744 40.2329 27.1005 37.121L22.7293 33.0109C19.2197 36.7434 16.5451 41.1806 14.8835 46.027L20.5591 47.973ZM27.1005 37.121L30.9002 33.0799L26.529 28.9698L22.7293 33.0109L27.1005 37.121Z" fill="#37635F" mask="url(#path-1-inside-1_4_22)"/>
</svg>
