<svg width="447" height="71" viewBox="0 0 447 71" fill="none" xmlns="http://www.w3.org/2000/svg">
<g clip-path="url(#clip0_7_50094)">
<path d="M446.141 70.3698H83.5573C76.6354 70.3698 71 64.7396 71 57.8125V8.61462H433.589C440.51 8.61462 446.141 14.25 446.141 21.1719V70.3698ZM73.4844 11.099V57.8125C73.4844 63.3698 78.0052 67.8855 83.5573 67.8855H443.661V21.1719C443.661 15.6198 439.141 11.099 433.589 11.099" fill="#AC348E"/>
<path d="M163.109 69.276H88.448C71.0782 69.0052 72.1928 57.3385 72.2397 47.0781V10H163.109L172.724 37.1406C173.297 38.7552 173.297 40.5208 172.724 42.1354" fill="#AC348E"/>
<path d="M95.0209 8.33329C95.0209 12.1979 90.1772 15.3281 84.2084 15.3281C78.2397 15.3281 73.4011 12.1979 73.4011 8.33329C73.4011 4.46871 78.2397 1.3385 84.2084 1.3385C90.1772 1.3385 95.0209 4.46871 95.0209 8.33329Z" fill="white"/>
<path d="M84.2083 15.7448C78.0208 15.7448 72.9895 12.4219 72.9895 8.33337C72.9895 4.25004 78.0208 0.927124 84.2083 0.927124C90.3958 0.927124 95.4322 4.25004 95.4322 8.33337C95.4322 12.4219 90.3958 15.7448 84.2083 15.7448ZM84.2083 1.75525C78.4791 1.75525 73.8176 4.70837 73.8176 8.33337C73.8176 11.9636 78.4791 14.9167 84.2083 14.9167C89.9426 14.9167 94.6041 11.9636 94.6041 8.33337C94.6041 4.70837 89.9426 1.75525 84.2083 1.75525Z" fill="#AC348E"/>
<path d="M79.9688 5.85413H83.6094V6.66142H80.9688V8.18746H83.4531V8.99996H80.9688V11.427H79.9688" fill="#AC348E"/>
<path d="M89.0365 11.427H87.9688L87.2605 9.57288C87.198 9.401 87.099 9.28121 86.9688 9.2135C86.8386 9.14579 86.6667 9.10933 86.4584 9.10933H85.4532V11.427H84.448V5.85413H86.8386C87.4688 5.85413 87.948 5.98954 88.2761 6.27079C88.6042 6.54683 88.7709 6.94267 88.7709 7.45829C88.7709 7.82808 88.672 8.14579 88.474 8.401C88.2813 8.66142 88.0053 8.84371 87.6407 8.95308C87.9688 9.02079 88.2084 9.24996 88.3542 9.64058L89.0365 11.427ZM86.6928 8.32808C87.073 8.32808 87.3595 8.25517 87.5417 8.11975C87.724 7.97392 87.8178 7.76038 87.8178 7.47392C87.8178 7.19267 87.724 6.98433 87.5417 6.84371C87.3647 6.70308 87.0834 6.63538 86.6928 6.63538H85.4324V8.32808" fill="#AC348E"/>
<path d="M29.1546 5C36.5036 5.13542 43.3421 8.02083 48.988 13.7292C49.3578 14.1042 49.3838 14.3438 48.9828 14.7083C48.4151 15.2083 47.889 15.75 47.3838 16.3177C47.0609 16.6823 46.863 16.6719 46.5192 16.3125C43.8474 13.5052 40.6963 11.401 37.0453 10.0781C32.3369 8.36979 27.5348 8.0625 22.6598 9.25521C16.1703 10.8385 11.1026 14.4635 7.49318 20.0573C4.0661 25.3698 2.90464 31.2083 3.89943 37.4479C4.55568 41.5573 6.21714 45.25 8.7536 48.5469C8.82652 48.6458 8.89423 48.75 8.98277 48.8333C9.09735 48.9375 9.22756 49.026 9.35256 49.125C9.40985 48.9792 9.49839 48.8438 9.52443 48.6927C10.0557 46.1562 10.5765 43.6198 11.0973 41.0833C11.8265 37.5312 12.5609 33.974 13.2744 30.4167C13.5609 28.974 13.7953 27.5156 14.6546 26.2708C16.1807 24.0677 18.1911 22.6823 20.9567 23.1615C22.1651 23.3698 23.3369 24.0104 24.4151 24.651C28.0453 26.8073 31.6234 29.0469 35.2171 31.2656C35.9307 31.7083 36.1182 32.1771 35.8578 32.7188C35.5765 33.3021 35.0088 33.4583 34.2224 33.1458C31.5505 32.0833 28.8421 31.0938 26.2276 29.9115C23.9776 28.8958 22.2067 30.1823 22.0817 32.5365C22.0192 33.7083 22.1442 34.901 22.2744 36.0729C22.7432 40.2917 23.2588 44.5052 23.7536 48.7188C24.0921 51.5938 24.4411 54.4688 24.764 57.349C24.8213 57.8177 25.0192 58.0625 25.488 58.0677C27.0921 58.1042 28.7067 58.125 30.3161 58.1562C30.7015 58.1615 30.7901 57.9427 30.7588 57.599C30.7067 56.9688 30.6703 56.3385 30.6338 55.7083C30.6286 55.599 30.6911 55.4896 30.7171 55.3854C30.8109 55.4219 30.9151 55.4375 30.9932 55.4948C32.6494 56.75 34.3057 58.0104 35.9619 59.2708C36.238 59.4792 36.1911 59.6406 35.9671 59.8542C34.4984 61.2656 33.0296 62.6875 31.5609 64.099C31.4828 64.1771 31.363 64.2083 31.2588 64.2604C31.2276 64.1458 31.1755 64.0312 31.1651 63.9167C31.113 63.3698 31.0401 62.8177 31.0401 62.2708C31.0401 61.7656 30.8369 61.6562 30.3682 61.6927C26.9255 61.9792 23.5453 61.6042 20.264 60.5781C12.8526 58.2656 7.22756 53.7031 3.46193 46.9115C0.857766 42.2083 -0.324526 37.1146 0.0765158 31.7656C0.842141 21.5885 5.71193 13.8646 14.5036 8.69271C18.8005 6.16146 23.5088 5.03125 29.1546 5ZM21.5401 57.0625C21.4463 56.6979 21.3942 56.4792 21.3317 56.2656C20.4463 53.151 19.5609 50.0365 18.6703 46.9219C18.264 45.5104 17.863 44.099 17.4098 42.7083C17.3265 42.4427 16.9984 42.0938 16.7796 42.0885C16.5036 42.0833 16.2067 42.375 15.9567 42.5833C15.8421 42.6771 15.8057 42.8646 15.7484 43.0208C14.7015 45.9323 13.6703 48.8542 12.5973 51.7552C12.4203 52.2448 12.5453 52.4948 12.9098 52.7812C14.7484 54.2292 16.7328 55.4271 18.8942 56.3177C19.5869 56.6042 20.3057 56.8542 21.0192 57.0938C21.1651 57.1406 21.3526 57.0781 21.5401 57.0625Z" fill="#AC348E"/>
<path d="M36.9203 37.0104C41.764 36.8125 45.337 32.2395 46.1442 27.8281C46.3317 26.8125 46.363 25.7656 46.4411 24.7291C46.4828 24.2135 46.2484 23.9427 45.6859 23.9635C45.1963 23.9843 44.7067 23.9427 44.2172 23.9218C44.0765 23.9114 43.9463 23.8645 43.8109 23.8333C43.8838 23.7031 43.9307 23.5416 44.0349 23.4375C45.3995 22.0573 46.7692 20.6927 48.139 19.3177C49.014 18.4375 49.8995 17.5573 50.7692 16.6666C51.0088 16.4218 51.1495 16.401 51.3734 16.7031C53.2588 19.2656 55.1651 21.8125 57.0557 24.3698C57.1234 24.4635 57.1599 24.5833 57.2067 24.6875C57.0765 24.7187 56.9463 24.7812 56.8161 24.7812C56.2849 24.7656 55.7536 24.7604 55.2276 24.6979C54.7276 24.6406 54.5401 24.7916 54.514 25.3125C54.4151 27.427 53.8161 29.401 52.738 31.2239C49.712 36.3541 43.0349 38.9531 37.3474 37.2031C37.2015 37.1562 37.0609 37.0729 36.9203 37.0104Z" fill="#AC348E"/>
<path d="M35.3787 37.1041C33.4777 41.2083 35.561 45.6927 38.087 48.1979C39.3423 49.4427 40.7589 50.4635 42.3995 51.1614C42.9048 51.375 43.1808 51.2864 43.3943 50.7812C43.5766 50.3541 43.8058 49.9427 44.035 49.5312C44.1079 49.401 44.2433 49.3125 44.3475 49.2031C44.4152 49.3229 44.5037 49.4323 44.5506 49.5573C45.4725 52.0677 46.3891 54.5729 47.3058 57.0833C47.4777 57.5416 47.6183 58.0104 47.8162 58.4583C47.9933 58.8437 47.8891 59 47.4881 59.0833C45.5245 59.4687 43.5714 59.8698 41.6131 60.2656C40.5714 60.4739 39.535 60.6927 38.4933 60.8958C38.2798 60.9375 38.0558 60.927 37.837 60.9427C37.8995 60.7448 37.9464 60.5312 38.035 60.3437C38.2225 59.9583 38.3839 59.552 38.6443 59.2135C39.0766 58.6458 38.8214 58.3906 38.3006 58.1198C36.4725 57.1718 35.0037 55.8073 33.8318 54.1198C30.4048 49.2031 30.8891 42.0156 34.9412 37.6145C35.0923 37.4479 35.2329 37.276 35.3787 37.1041Z" fill="#AC348E"/>
<path d="M36.0974 37.651C36.9464 38.7396 37.9099 39.6563 39.1391 40.2656C42.1026 41.7188 45.1599 41.7917 48.2276 40.7083C49.3891 40.2969 50.4672 39.651 51.5766 39.099C52.0766 38.849 52.1755 38.5104 51.8266 38.0208C51.5193 37.5937 51.2797 37.1094 51.0245 36.6458C50.9776 36.5573 50.988 36.4323 50.9724 36.3229C51.0714 36.3229 51.1703 36.3125 51.2641 36.3333C54.4307 37.026 57.5922 37.724 60.7589 38.4062C61.1495 38.4896 61.1547 38.6406 61.0349 38.9531C59.8891 41.9167 58.7485 44.8854 57.6078 47.8542C57.5662 47.9583 57.488 48.0469 57.4255 48.1458C57.3422 48.0677 57.2276 48.0052 57.1755 47.9062C56.8891 47.4167 56.5922 46.9271 56.337 46.4115C56.1287 45.9844 55.8995 45.9323 55.4828 46.1719C53.1755 47.5156 50.6755 48.0156 48.0193 47.8333C42.5245 47.4479 37.4516 43.2187 36.1235 37.8802C36.1078 37.8073 36.1026 37.724 36.0974 37.651Z" fill="#AC348E"/>
<path d="M18.2224 17.5781C18.2224 15.1927 20.1703 13.2344 22.5401 13.2448C24.8891 13.2552 26.811 15.1875 26.8214 17.5521C26.8318 19.9375 24.8787 21.8958 22.5037 21.8854C20.1547 21.875 18.2276 19.9323 18.2224 17.5781Z" fill="#AC348E"/>
<path d="M89.0938 41.375H92.1406C91.5417 39.599 91.0391 38.1224 90.6328 36.9453C90.2943 37.9297 89.7812 39.4062 89.0938 41.375ZM85.0938 46L89.6641 34.625H91.6797L96.2891 46H94.0469L92.9453 43.2266H88.3516L87.2734 46H85.0938ZM97.875 46V34.625H99.9766C103.591 39.8646 105.516 42.6562 105.75 43V34.625H107.641V46H105.531C102.036 40.9531 100.096 38.1562 99.7109 37.6094V46H97.875ZM112.719 46V36.3281H109.211V34.625H118.266V36.3281H114.703V46H112.719ZM119.609 46V34.625H121.594V46H119.609ZM127.398 46L123.07 34.625H125.297C125.411 34.9479 125.854 36.2057 126.625 38.3984C127.401 40.5911 128.003 42.2578 128.43 43.3984C128.883 42.1536 129.94 39.2292 131.602 34.625H133.688L129.367 46H127.398ZM140.391 46.1797C138.615 46.1797 137.214 45.6458 136.188 44.5781C135.167 43.5052 134.656 42.0651 134.656 40.2578C134.656 38.4974 135.169 37.0833 136.195 36.0156C137.227 34.9479 138.633 34.4141 140.414 34.4141C142.138 34.4141 143.508 34.9479 144.523 36.0156C145.544 37.0781 146.055 38.4922 146.055 40.2578C146.055 42.0703 145.552 43.5104 144.547 44.5781C143.542 45.6458 142.156 46.1797 140.391 46.1797ZM140.344 44.4844C141.505 44.4844 142.388 44.1198 142.992 43.3906C143.596 42.6562 143.898 41.612 143.898 40.2578C143.898 38.9453 143.596 37.9271 142.992 37.2031C142.388 36.474 141.516 36.1094 140.375 36.1094C139.224 36.1094 138.339 36.474 137.719 37.2031C137.104 37.9271 136.797 38.9453 136.797 40.2578C136.797 41.6172 137.096 42.6615 137.695 43.3906C138.294 44.1198 139.177 44.4844 140.344 44.4844ZM148.375 46V34.625H150.359V44.2969H155.625V46H148.375Z" fill="white"/>
<path d="M261.908 68.795H262.314V10.2118H261.908V68.795Z" fill="#AC348E"/>
<path d="M271.435 39.5C271.435 42.8344 267.26 45.5384 262.111 45.5384C256.962 45.5384 252.78 42.8344 252.78 39.5C252.78 36.1656 256.962 33.4687 262.111 33.4687C267.26 33.4687 271.435 36.1656 271.435 39.5Z" fill="#AC348E"/>
<path d="M258.356 41.8747C258.02 41.6786 257.754 41.3984 257.572 41.0341C257.39 40.6698 257.299 40.2425 257.299 39.7452C257.299 39.2548 257.39 38.8275 257.572 38.4632C257.754 38.092 258.013 37.8188 258.349 37.6226C258.686 37.4265 259.085 37.3284 259.547 37.3284C260.01 37.3284 260.402 37.4265 260.745 37.6226C261.081 37.8188 261.341 38.092 261.516 38.4632C261.698 38.8275 261.789 39.2548 261.789 39.7452C261.789 40.2425 261.698 40.6698 261.516 41.0341C261.334 41.3984 261.074 41.6786 260.738 41.8747C260.402 42.0709 260.01 42.1689 259.547 42.1689C259.092 42.1689 258.693 42.0709 258.356 41.8747ZM260.57 41.0411C260.808 40.7399 260.934 40.3056 260.934 39.7452C260.934 39.1848 260.808 38.7575 260.57 38.4632C260.325 38.162 259.982 38.0149 259.547 38.0149C259.106 38.0149 258.77 38.162 258.525 38.4562C258.279 38.7575 258.16 39.1848 258.16 39.7452C258.16 40.3056 258.279 40.7399 258.525 41.0411C258.77 41.3353 259.106 41.4894 259.547 41.4894C259.982 41.4894 260.325 41.3353 260.57 41.0411Z" fill="white"/>
<path d="M263.141 41.6716C262.805 41.3353 262.637 40.845 262.637 40.2005V37.3915H263.477V40.2495C263.477 40.6558 263.575 40.9641 263.764 41.1742C263.953 41.3844 264.234 41.4894 264.612 41.4894C264.976 41.4894 265.263 41.3844 265.453 41.1672C265.642 40.9571 265.74 40.6488 265.74 40.2495V37.3915H266.58V40.2005C266.58 40.845 266.412 41.3283 266.076 41.6646C265.74 42.0008 265.256 42.1689 264.612 42.1689C263.96 42.1689 263.47 42.0078 263.141 41.6716Z" fill="white"/>
<path d="M358.949 68.9913H359.348V10.408H358.949V68.9913Z" fill="#AC348E"/>
<path d="M368.476 39.703C368.476 43.0304 364.301 45.7344 359.152 45.7344C353.996 45.7344 349.821 43.0304 349.821 39.703C349.821 36.3686 353.996 33.6647 359.152 33.6647C364.301 33.6647 368.476 36.3686 368.476 39.703Z" fill="#AC348E"/>
<path d="M355.397 42.0778C355.061 41.8746 354.795 41.6014 354.613 41.2302C354.431 40.8659 354.339 40.4386 354.339 39.9412C354.339 39.4509 354.431 39.0236 354.613 38.6593C354.788 38.295 355.054 38.0148 355.39 37.8187C355.726 37.6296 356.126 37.5315 356.588 37.5315C357.05 37.5315 357.443 37.6296 357.786 37.8187C358.122 38.0148 358.381 38.295 358.557 38.6593C358.739 39.0236 358.83 39.4509 358.83 39.9412C358.83 40.4386 358.739 40.8659 358.557 41.2302C358.374 41.6014 358.115 41.8746 357.779 42.0778C357.443 42.2739 357.05 42.372 356.588 42.372C356.133 42.372 355.733 42.2739 355.397 42.0778ZM357.611 41.2372C357.849 40.9359 357.975 40.5016 357.975 39.9412C357.975 39.3878 357.849 38.9605 357.611 38.6593C357.366 38.3581 357.022 38.211 356.588 38.211C356.147 38.211 355.811 38.3581 355.565 38.6593C355.32 38.9535 355.201 39.3808 355.201 39.9412C355.201 40.5016 355.32 40.9359 355.565 41.2372C355.811 41.5384 356.147 41.6855 356.588 41.6855C357.022 41.6855 357.366 41.5384 357.611 41.2372Z" fill="white"/>
<path d="M360.175 41.8677C359.845 41.5315 359.677 41.0481 359.677 40.4037V37.5876H360.518V40.4457C360.518 40.852 360.616 41.1602 360.805 41.3704C360.994 41.5805 361.281 41.6856 361.653 41.6856C362.024 41.6856 362.304 41.5805 362.493 41.3704C362.682 41.1532 362.781 40.852 362.781 40.4457V37.5876H363.621V40.4037C363.621 41.0411 363.453 41.5315 363.117 41.8677C362.781 42.204 362.297 42.3721 361.653 42.3721C361.001 42.3721 360.511 42.204 360.175 41.8677Z" fill="white"/>
<path d="M378.024 48.7606H380.272C380.882 48.7606 381.407 48.8657 381.841 49.0899C382.29 49.307 382.626 49.6222 382.857 50.0355C383.095 50.4488 383.214 50.9392 383.214 51.5066C383.214 52.074 383.095 52.5714 382.864 52.9847C382.633 53.405 382.297 53.7202 381.855 53.9374C381.414 54.1545 380.889 54.2666 380.272 54.2666H378.024V48.7606ZM380.167 53.1038C380.706 53.1038 381.113 52.9707 381.372 52.7115C381.645 52.4453 381.771 52.039 381.771 51.5066C381.771 50.4488 381.239 49.9165 380.167 49.9165H379.474V53.1038" fill="#231F20"/>
<path d="M384.062 48.7607H387.999V49.8745H385.477V50.9113H387.831V52.0251H385.477V53.1529H387.999V54.2667H384.062V48.7607ZM385.743 48.2844L386.549 47.0655H387.803L386.584 48.2844H385.743Z" fill="#231F20"/>
<path d="M389.925 53.9864C389.498 53.7482 389.176 53.419 388.945 52.9917C388.713 52.5643 388.601 52.067 388.601 51.5066C388.601 50.9462 388.713 50.4558 388.945 50.0285C389.176 49.6012 389.498 49.279 389.925 49.0408C390.353 48.8096 390.85 48.6906 391.424 48.6906C391.782 48.6906 392.132 48.7466 392.475 48.8517C392.811 48.9637 393.085 49.1109 393.288 49.293L392.846 50.3227C392.398 49.9935 391.936 49.8324 391.452 49.8324C391.011 49.8324 390.668 49.9725 390.43 50.2527C390.192 50.5399 390.079 50.9532 390.079 51.5066C390.079 52.06 390.192 52.4803 390.43 52.7675C390.668 53.0477 391.011 53.1948 391.452 53.1948C391.936 53.1948 392.398 53.0267 392.846 52.7044L393.288 53.7342C393.085 53.9163 392.811 54.0634 392.475 54.1755C392.132 54.2806 391.782 54.3366 391.424 54.3366C390.85 54.3366 390.353 54.2175 389.925 53.9864Z" fill="#231F20"/>
<path d="M399.123 48.7606V54.2666H397.701V52.039H395.473V54.2666H394.044V48.7606H395.473V50.9042H397.701V48.7606" fill="#231F20"/>
<path d="M400.11 48.7607H404.047V49.8745H401.525V50.9113H403.879V52.0251H401.525V53.1529H404.047V54.2667H400.11V48.7607ZM400.573 47.0655H401.834L402.632 48.2844H401.792L400.573 47.0655Z" fill="#231F20"/>
<path d="M406.156 49.9375H404.517V48.7606H409.266V49.9375H407.627V54.2666H406.156" fill="#231F20"/>
<path d="M409.855 48.7606H413.784V49.8744H411.27V50.9112H413.623V52.025H411.27V53.1528H413.784V54.2666H409.855" fill="#231F20"/>
<path d="M419.318 54.2666H417.777L417.07 52.4313C416.986 52.2281 416.79 52.123 416.488 52.123H415.963V54.2666H414.527V48.7606H417.091C417.756 48.7606 418.254 48.9007 418.59 49.1879C418.926 49.4751 419.094 49.8814 419.094 50.4138C419.094 50.7851 418.996 51.1073 418.793 51.3735C418.597 51.6467 418.317 51.8428 417.959 51.9549C418.114 51.9829 418.254 52.06 418.373 52.1721C418.499 52.2842 418.597 52.4383 418.667 52.6274L419.318 54.2666ZM417.532 50.8972C417.672 50.7991 417.742 50.652 417.742 50.4558C417.742 50.2457 417.672 50.0916 417.532 49.9935C417.399 49.9024 417.175 49.8604 416.86 49.8604H415.942V51.0373H416.86C417.168 51.0373 417.392 50.9952 417.532 50.8972Z" fill="#231F20"/>
<path d="M420.054 54.2666H421.511V48.7606H420.054V54.2666Z" fill="#231F20"/>
<path d="M422.499 48.7606H426.429V49.8744H423.914V50.9112H426.268V52.025H423.914V53.1528H426.429V54.2666H422.499" fill="#231F20"/>
<path d="M399.102 27.8366V27.885L399.157 27.8366" fill="#231F20"/>
<path d="M402.464 32.67L402.471 32.677L402.492 31.2059" fill="#231F20"/>
<path d="M402.464 39.3599V31.234L402.38 31.3391C402.121 31.6683 401.638 31.6473 401.252 31.6543C401.063 31.6543 400.692 31.4862 400.517 31.4021L399.102 33.1254V39.3599H397.168L398.941 41.1952L400.72 43.0235L402.492 41.1952L404.264 39.3599" fill="#231F20"/>
<path d="M398.633 28.3549L399.102 27.8926V27.8856" fill="#231F20"/>
<path d="M399.158 27.8366L399.851 27.1501L399.844 27.1431L399.158 27.8366Z" fill="#231F20"/>
<path d="M399.157 27.8366L399.102 27.885V27.8919L399.157 27.8366Z" fill="#231F20"/>
<path d="M411.179 34.0851L409.904 35.36L404.237 29.6929L403.886 29.3356L403.564 29.7419L402.759 31.0028L402.661 32.8662L407.529 37.7347L406.163 39.1077L408.713 39.1427L411.2 39.1847V35.353" fill="#231F20"/>
<path d="M401.869 27.3253L400.944 26.4006L400.769 26.2395L399.851 27.1502L399.158 27.8367L399.102 27.8927L398.632 28.355L397.694 29.2937H397.701L391.697 35.297L390.423 34.0221L390.401 35.4161V39.1148L392.895 39.0798L394.044 39.0587L395.445 39.0377L394.317 37.9099L394.072 37.6717L399.102 32.6351L400.223 31.2061C399.956 30.9609 399.907 30.5616 399.914 30.2184C399.921 29.9592 400.012 29.7 400.181 29.4758L400.272 29.3638L401.014 28.4111L401.54 27.7386L401.82 27.3743" fill="#231F20"/>
<path d="M401.007 31.2129L401.035 31.1919C401 31.1779 400.965 31.1639 400.937 31.1429" fill="#231F20"/>
<path d="M405.413 30.6105L404.145 29.2025L404.398 28.6981L404.412 28.6771L404.517 28.7822L404.419 28.6771C404.622 28.474 404.643 28.46 404.93 28.3549L405.133 28.2849L405.413 30.6105ZM404.496 29.1535L405.007 29.7209L404.888 28.6911C404.783 28.7332 404.748 28.7612 404.643 28.8733" fill="#231F20"/>
<path d="M406.527 31.1779C406.317 31.1779 406.114 31.1008 405.946 30.9678C405.749 30.8066 405.623 30.5755 405.588 30.3233V30.3163L405.343 28.2008L407.214 27.3812L407.459 30.0991C407.522 30.6245 407.151 31.1079 406.639 31.1709C406.604 31.1779 406.562 31.1779 406.527 31.1779ZM405.883 30.2883C405.904 30.4634 405.995 30.6245 406.128 30.7366C406.268 30.8487 406.436 30.8977 406.604 30.8767C406.954 30.8347 407.207 30.4984 407.165 30.1342L406.954 27.8155L405.665 28.3829" fill="#231F20"/>
<path d="M401.357 31.4231C401.203 31.4231 401.056 31.3881 400.909 31.3251C400.867 31.3111 400.832 31.29 400.797 31.269L400.769 31.248L400.398 30.8767C400.166 30.4775 400.202 29.9731 400.489 29.5948L402.814 26.5126C402.443 26.1483 402.345 25.714 402.282 25.3077C402.254 25.1046 402.261 24.6983 402.296 24.0959C401.224 24.4111 400.769 24.5582 400.699 24.6002C400.685 24.6072 400.678 24.6142 400.671 24.6212L400.678 24.6423L399.991 26.1904L399.956 26.7928L397.883 28.7192L397.82 28.474C397.729 28.1448 397.442 27.038 397.442 26.8629C397.442 26.6737 397.596 26.3305 397.624 26.2604C397.869 25.63 399.116 22.4427 399.284 22.2045C399.452 21.9733 399.606 21.7842 399.9 21.5951C400.166 21.4269 400.622 21.1677 400.643 21.1537L400.657 21.1467L409.385 17.5111H409.413C410.457 17.5111 411.55 17.9174 412.397 18.6319C413.301 19.3885 413.798 20.3622 413.798 21.3709V21.462L411.326 22.933C411.34 23.2412 411.326 23.4794 411.277 23.6475C411.241 23.7526 411.213 23.8577 411.185 23.9628C411.087 24.3691 410.989 24.7613 410.429 25.3217C409.735 26.0152 408.713 26.5897 408.061 26.8348C407.858 26.9049 407.459 27.052 407.003 27.2271L404.741 28.0747L404.482 28.1938L402.282 30.9538C402.051 31.255 401.708 31.4231 401.357 31.4231ZM400.958 31.0239C400.986 31.0379 401.007 31.0449 401.028 31.0589C401.385 31.213 401.806 31.1009 402.044 30.7717L404.299 27.9556L404.629 27.7945L406.898 26.9469C407.354 26.7788 407.753 26.6317 407.956 26.5546C408.601 26.3165 409.588 25.742 410.219 25.1116C410.723 24.6072 410.807 24.278 410.898 23.8927C410.926 23.7876 410.954 23.6756 410.989 23.5565C411.024 23.4584 411.052 23.2553 411.024 22.863L411.01 22.7719L413.504 21.2868C413.441 19.3324 411.305 17.8193 409.441 17.8053L400.783 21.4199C400.72 21.455 400.3 21.6931 400.054 21.8472C399.802 22.0013 399.683 22.1625 399.529 22.3796C399.41 22.5477 398.464 24.9225 397.897 26.3795C397.827 26.5266 397.743 26.7718 397.743 26.8629C397.743 26.9539 397.89 27.5564 398.044 28.1658L399.662 26.6597L399.697 26.1203L400.363 24.6212C400.363 24.5512 400.398 24.4601 400.524 24.355C400.566 24.327 400.657 24.257 402.415 23.7526L402.618 23.6966L402.604 23.9067C402.555 24.5792 402.548 25.0626 402.576 25.2587C402.646 25.735 402.751 26.0643 403.067 26.3515L403.214 26.4846L400.727 29.777C400.517 30.0502 400.482 30.4144 400.65 30.7086" fill="#231F20"/>
<path d="M298.544 48.9359V54.4418H297.276L297.269 51.92L296.226 54.4418H295.301L294.25 51.955V54.4418H292.989V48.9359H294.124L295.777 52.6976L297.409 48.9359" fill="#231F20"/>
<path d="M303.273 53.307H300.828L300.338 54.4418H298.88L301.458 48.9359H302.607L305.192 54.4418H303.756L303.273 53.307ZM302.803 52.2142L302.047 50.477L301.297 52.2142" fill="#231F20"/>
<path d="M310.25 51.3315V54.0985C309.956 54.2316 309.626 54.3367 309.262 54.4067C308.898 54.4768 308.527 54.5118 308.148 54.5118C307.546 54.5118 307.028 54.3997 306.586 54.1756C306.145 53.9444 305.809 53.6222 305.571 53.1948C305.332 52.7745 305.213 52.2632 305.213 51.6818C305.213 51.1143 305.332 50.617 305.571 50.1967C305.809 49.7694 306.145 49.4401 306.579 49.209C307.007 48.9778 307.518 48.8657 308.092 48.8657C308.492 48.8657 308.863 48.9148 309.22 49.0198C309.57 49.1249 309.858 49.265 310.082 49.4471L309.626 50.4769C309.374 50.3088 309.129 50.1897 308.891 50.1196C308.66 50.0426 308.408 50.0075 308.141 50.0075C307.651 50.0075 307.287 50.1406 307.042 50.4208C306.803 50.694 306.684 51.1143 306.684 51.6818C306.684 52.2702 306.81 52.7115 307.063 52.9917C307.308 53.2719 307.693 53.412 308.218 53.412C308.457 53.412 308.702 53.391 308.947 53.342V52.3192H307.987V51.3315" fill="#231F20"/>
<path d="M314.887 53.307H312.442L311.952 54.4418H310.502L313.073 48.9359H314.222L316.806 54.4418H315.377L314.887 53.307ZM314.418 52.2142L313.661 50.477L312.912 52.2142" fill="#231F20"/>
<path d="M317.808 54.3507C317.409 54.2456 317.08 54.0985 316.827 53.9094L317.283 52.8796C317.556 53.0477 317.836 53.1808 318.137 53.2719C318.446 53.363 318.747 53.405 319.048 53.405C319.356 53.405 319.594 53.363 319.763 53.2789C319.924 53.1948 320.008 53.0758 320.008 52.9216C320.008 52.7815 319.938 52.6695 319.784 52.5784C319.636 52.4873 319.356 52.3963 318.943 52.3122C318.418 52.2071 318.018 52.081 317.724 51.9269C317.437 51.7728 317.234 51.5977 317.122 51.3875C317.003 51.1844 316.946 50.9322 316.946 50.638C316.946 50.3018 317.038 50.0005 317.234 49.7273C317.423 49.4541 317.689 49.244 318.032 49.0899C318.383 48.9428 318.775 48.8657 319.216 48.8657C319.615 48.8657 320.001 48.9218 320.379 49.0338C320.75 49.1459 321.044 49.286 321.255 49.4682L320.806 50.4979C320.561 50.3298 320.309 50.1967 320.043 50.1056C319.77 50.0216 319.503 49.9725 319.237 49.9725C318.971 49.9725 318.761 50.0216 318.6 50.1266C318.439 50.2247 318.361 50.3578 318.361 50.5259C318.361 50.624 318.39 50.701 318.446 50.7641C318.502 50.8271 318.607 50.8832 318.761 50.9462C318.915 51.0023 319.153 51.0653 319.461 51.1354C319.959 51.2404 320.358 51.3735 320.638 51.5206C320.925 51.6747 321.128 51.8499 321.248 52.06C321.367 52.2632 321.423 52.5084 321.423 52.7886C321.423 53.3279 321.213 53.7482 320.799 54.0565C320.379 54.3577 319.791 54.5118 319.034 54.5118C318.621 54.5118 318.214 54.4628 317.808 54.3507Z" fill="#231F20"/>
<path d="M322.236 54.4418H323.693V48.9359H322.236V54.4418Z" fill="#231F20"/>
<path d="M329.612 48.9359V54.4418H328.533L326.039 51.3176V54.4418H324.68V48.9359H325.745L328.239 52.0461V48.9359" fill="#231F20"/>
<path d="M320.141 21.3568H302.439C302.131 21.3568 301.886 21.1046 301.886 20.7964C301.886 20.4882 302.131 20.236 302.439 20.236H320.141C320.449 20.236 320.694 20.4882 320.694 20.7964C320.694 21.1046 320.449 21.3568 320.141 21.3568Z" fill="#231F20"/>
<path d="M323.104 28.2359H299.504C299.301 28.2359 299.105 28.1308 299.007 27.9557C298.909 27.7805 298.895 27.5634 299 27.3882L303.084 20.6354C303.238 20.3692 303.588 20.2921 303.847 20.4462C304.106 20.6074 304.197 20.9506 304.036 21.2098L300.471 27.1221H322.116L318.551 21.2098C318.39 20.9506 318.474 20.6074 318.74 20.4462C318.992 20.2921 319.342 20.3692 319.503 20.6354L323.58 27.3882C323.685 27.5634 323.685 27.7805 323.587 27.9557C323.489 28.1308 323.3 28.2359 323.104 28.2359Z" fill="#231F20"/>
<path d="M301.858 30.6246C300.24 30.6246 298.93 29.3146 298.93 27.7035C298.93 27.3882 299.182 27.136 299.497 27.136C299.805 27.136 300.058 27.3882 300.058 27.7035C300.058 28.6912 300.863 29.4967 301.858 29.4967C302.839 29.4967 303.651 28.6912 303.651 27.7035C303.651 27.3882 303.903 27.136 304.211 27.136C304.52 27.136 304.772 27.3882 304.772 27.7035C304.772 29.3146 303.462 30.6246 301.858 30.6246Z" fill="#231F20"/>
<path d="M306.572 30.6246C304.961 30.6246 303.644 29.3146 303.644 27.7035C303.644 27.3882 303.903 27.136 304.211 27.136C304.52 27.136 304.772 27.3882 304.772 27.7035C304.772 28.6912 305.577 29.4967 306.572 29.4967C307.56 29.4967 308.365 28.6912 308.365 27.7035C308.365 27.3882 308.618 27.136 308.933 27.136C309.241 27.136 309.493 27.3882 309.493 27.7035C309.493 29.3146 308.183 30.6246 306.572 30.6246Z" fill="#231F20"/>
<path d="M311.294 30.6246C309.682 30.6246 308.365 29.3146 308.365 27.7035C308.365 27.3882 308.618 27.136 308.933 27.136C309.241 27.136 309.493 27.3882 309.493 27.7035C309.493 28.6912 310.299 29.4967 311.294 29.4967C312.281 29.4967 313.087 28.6912 313.087 27.7035C313.087 27.3882 313.339 27.136 313.647 27.136C313.963 27.136 314.215 27.3882 314.215 27.7035C314.215 29.3146 312.905 30.6246 311.294 30.6246Z" fill="#231F20"/>
<path d="M316.008 30.6246C314.397 30.6246 313.087 29.3146 313.087 27.7035C313.087 27.3882 313.339 27.136 313.647 27.136C313.962 27.136 314.214 27.3882 314.214 27.7035C314.214 28.6912 315.02 29.4967 316.008 29.4967C317.002 29.4967 317.808 28.6912 317.808 27.7035C317.808 27.3882 318.06 27.136 318.368 27.136C318.677 27.136 318.929 27.3882 318.929 27.7035C318.929 29.3146 317.619 30.6246 316.008 30.6246Z" fill="#231F20"/>
<path d="M320.729 30.6246C319.118 30.6246 317.808 29.3146 317.808 27.7035C317.808 27.3882 318.06 27.136 318.369 27.136C318.677 27.136 318.929 27.3882 318.929 27.7035C318.929 28.6912 319.735 29.4967 320.729 29.4967C321.717 29.4967 322.523 28.6912 322.523 27.7035C322.523 27.3882 322.775 27.136 323.09 27.136C323.398 27.136 323.65 27.3882 323.65 27.7035C323.65 29.3146 322.34 30.6246 320.729 30.6246Z" fill="#231F20"/>
<path d="M320.884 42.9816H301.697C301.388 42.9816 301.136 42.7294 301.136 42.4211V30.0642C301.136 29.749 301.388 29.4968 301.697 29.4968C302.012 29.4968 302.264 29.749 302.264 30.0642V41.8607H320.323V30.0782C320.323 29.77 320.575 29.5178 320.884 29.5178C321.192 29.5178 321.451 29.77 321.451 30.0782V42.4211C321.451 42.7294 321.192 42.9816 320.884 42.9816Z" fill="#231F20"/>
<path d="M309.458 42.8623C309.15 42.8623 308.891 42.6101 308.891 42.3019V29.1674C308.891 28.8522 309.15 28.6 309.458 28.6C309.767 28.6 310.019 28.8522 310.019 29.1674V42.3019C310.019 42.6101 309.767 42.8623 309.458 42.8623Z" fill="#231F20"/>
<path d="M307.399 37.2724C307.09 37.2724 306.838 37.0202 306.838 36.705V32.593C306.838 32.2848 307.09 32.0326 307.399 32.0326C307.707 32.0326 307.966 32.2848 307.966 32.593V36.705C307.966 37.0202 307.707 37.2724 307.399 37.2724Z" fill="#231F20"/>
<path d="M314.025 36.5859C313.885 36.5859 313.738 36.5299 313.633 36.4178C313.409 36.2006 313.409 35.8434 313.633 35.6262L317.283 31.9696C317.507 31.7454 317.864 31.7454 318.081 31.9696C318.298 32.1867 318.298 32.544 318.081 32.7611L314.425 36.4178C314.313 36.5299 314.172 36.5859 314.025 36.5859Z" fill="#231F20"/>
<path d="M315.63 38.4141C315.482 38.4141 315.335 38.3581 315.23 38.246C315.006 38.0288 315.006 37.6716 315.23 37.4544L317.402 35.2829C317.619 35.0587 317.976 35.0587 318.193 35.2829C318.418 35.5 318.418 35.8573 318.193 36.0744L316.029 38.246C315.917 38.3581 315.77 38.4141 315.63 38.4141Z" fill="#231F20"/>
<path d="M192.32 53.1318H189.875L189.385 54.2666H187.928L190.506 48.7606H191.647L194.232 54.2666H192.803L192.32 53.1318ZM191.843 52.039L191.094 50.2947L190.344 52.039" fill="#231F20"/>
<path d="M195.241 54.1755C194.842 54.0634 194.512 53.9163 194.26 53.7342L194.715 52.7044C194.982 52.8726 195.269 53.0057 195.57 53.0967C195.871 53.1878 196.179 53.2298 196.481 53.2298C196.789 53.2298 197.027 53.1878 197.195 53.1037C197.356 53.0197 197.44 52.8936 197.44 52.7395C197.44 52.5994 197.363 52.4873 197.216 52.4032C197.069 52.3122 196.782 52.2211 196.369 52.13C195.85 52.032 195.444 51.8989 195.157 51.7448C194.87 51.5976 194.666 51.4155 194.547 51.2124C194.435 51.0022 194.379 50.757 194.379 50.4628C194.379 50.1266 194.47 49.8254 194.659 49.5522C194.856 49.279 195.122 49.0688 195.465 48.9147C195.815 48.7606 196.208 48.6906 196.649 48.6906C197.048 48.6906 197.433 48.7466 197.805 48.8517C198.183 48.9708 198.47 49.1109 198.687 49.293L198.239 50.3227C197.994 50.1476 197.742 50.0215 197.468 49.9304C197.202 49.8394 196.936 49.7974 196.663 49.7974C196.404 49.7974 196.193 49.8464 196.032 49.9445C195.871 50.0495 195.787 50.1826 195.787 50.3507C195.787 50.4418 195.822 50.5189 195.878 50.5819C195.934 50.645 196.039 50.708 196.193 50.764C196.348 50.8271 196.579 50.8901 196.887 50.9532C197.391 51.0653 197.784 51.1914 198.071 51.3455C198.358 51.4996 198.561 51.6747 198.68 51.8779C198.799 52.088 198.855 52.3262 198.855 52.6134C198.855 53.1528 198.645 53.5661 198.232 53.8743C197.812 54.1825 197.223 54.3366 196.467 54.3366C196.053 54.3366 195.64 54.2806 195.241 54.1755Z" fill="#231F20"/>
<path d="M200.438 54.1755C200.039 54.0634 199.71 53.9163 199.458 53.7342L199.913 52.7044C200.186 52.8726 200.466 53.0057 200.768 53.0967C201.069 53.1878 201.377 53.2298 201.678 53.2298C201.987 53.2298 202.225 53.1878 202.393 53.1037C202.554 53.0197 202.638 52.8936 202.638 52.7395C202.638 52.5994 202.561 52.4873 202.414 52.4032C202.267 52.3122 201.987 52.2211 201.573 52.13C201.048 52.032 200.642 51.8989 200.361 51.7448C200.067 51.5976 199.864 51.4155 199.745 51.2124C199.633 51.0022 199.577 50.757 199.577 50.4628C199.577 50.1266 199.668 49.8254 199.864 49.5522C200.053 49.279 200.319 49.0688 200.663 48.9147C201.013 48.7606 201.405 48.6906 201.853 48.6906C202.246 48.6906 202.631 48.7466 203.002 48.8517C203.381 48.9708 203.675 49.1109 203.885 49.293L203.437 50.3227C203.198 50.1476 202.939 50.0215 202.673 49.9304C202.4 49.8394 202.134 49.7974 201.867 49.7974C201.601 49.7974 201.391 49.8464 201.23 49.9445C201.069 50.0495 200.992 50.1826 200.992 50.3507C200.992 50.4418 201.02 50.5189 201.076 50.5819C201.132 50.645 201.237 50.708 201.391 50.764C201.552 50.8271 201.783 50.8901 202.092 50.9532C202.589 51.0653 202.981 51.1914 203.268 51.3455C203.556 51.4996 203.759 51.6747 203.878 51.8779C203.997 52.088 204.053 52.3262 204.053 52.6134C204.053 53.1528 203.843 53.5661 203.43 53.8743C203.009 54.1825 202.421 54.3366 201.664 54.3366C201.251 54.3366 200.845 54.2806 200.438 54.1755Z" fill="#231F20"/>
<path d="M206.022 53.9934C205.601 53.7622 205.279 53.433 205.055 53.0057C204.831 52.5784 204.719 52.074 204.719 51.5066C204.719 50.9322 204.831 50.4348 205.062 50.0145C205.286 49.5872 205.608 49.265 206.022 49.0338C206.442 48.8026 206.932 48.6906 207.493 48.6906C208.053 48.6906 208.544 48.8026 208.957 49.0338C209.37 49.265 209.692 49.5872 209.909 50.0145C210.134 50.4348 210.246 50.9322 210.246 51.5066C210.246 52.074 210.134 52.5784 209.909 53.0057C209.692 53.433 209.37 53.7622 208.957 53.9934C208.544 54.2245 208.053 54.3366 207.493 54.3366C206.932 54.3366 206.442 54.2245 206.022 53.9934ZM208.459 52.7885C208.698 52.4943 208.817 52.067 208.817 51.5066C208.817 50.9462 208.698 50.5259 208.459 50.2317C208.228 49.9375 207.906 49.7974 207.493 49.7974C207.079 49.7974 206.757 49.9375 206.526 50.2317C206.295 50.5189 206.176 50.9462 206.176 51.5066C206.176 52.074 206.295 52.5013 206.526 52.7955C206.757 53.0827 207.079 53.2298 207.493 53.2298C207.906 53.2298 208.228 53.0827 208.459 52.7885Z" fill="#231F20"/>
<path d="M212.277 53.9864C211.85 53.7482 211.521 53.419 211.296 52.9917C211.065 52.5643 210.946 52.067 210.946 51.5066C210.946 50.9462 211.065 50.4558 211.296 50.0285C211.521 49.6012 211.85 49.279 212.277 49.0408C212.704 48.8096 213.202 48.6906 213.776 48.6906C214.133 48.6906 214.484 48.7466 214.82 48.8517C215.163 48.9637 215.429 49.1109 215.64 49.293L215.198 50.3227C214.75 49.9935 214.288 49.8324 213.804 49.8324C213.363 49.8324 213.02 49.9725 212.781 50.2527C212.543 50.5399 212.424 50.9532 212.424 51.5066C212.424 52.06 212.543 52.4803 212.781 52.7675C213.02 53.0477 213.363 53.1948 213.804 53.1948C214.288 53.1948 214.75 53.0267 215.198 52.7044L215.64 53.7342C215.429 53.9163 215.163 54.0634 214.82 54.1755C214.484 54.2806 214.133 54.3366 213.776 54.3366C213.202 54.3366 212.704 54.2175 212.277 53.9864Z" fill="#231F20"/>
<path d="M216.396 54.2666H217.853V48.7606H216.396V54.2666Z" fill="#231F20"/>
<path d="M222.561 53.1318H220.116L219.626 54.2666H218.168L220.746 48.7606H221.895L224.473 54.2666H223.044L222.561 53.1318ZM222.084 52.039L221.335 50.2947L220.585 52.039" fill="#231F20"/>
<path d="M225.314 49.9375H223.674V48.7606H228.424V49.9375H226.785V54.2666H225.314" fill="#231F20"/>
<path d="M229.012 54.2666H230.462V48.7606H229.012V54.2666Z" fill="#231F20"/>
<path d="M232.606 53.9934C232.192 53.7622 231.87 53.433 231.646 53.0057C231.422 52.5784 231.31 52.074 231.31 51.5066C231.31 50.9322 231.422 50.4348 231.646 50.0145C231.877 49.5872 232.199 49.265 232.613 49.0338C233.026 48.8026 233.516 48.6906 234.077 48.6906C234.637 48.6906 235.128 48.8026 235.548 49.0338C235.961 49.265 236.276 49.5872 236.501 50.0145C236.725 50.4348 236.837 50.9322 236.837 51.5066C236.837 52.074 236.725 52.5784 236.501 53.0057C236.276 53.433 235.961 53.7622 235.548 53.9934C235.128 54.2245 234.637 54.3366 234.077 54.3366C233.516 54.3366 233.026 54.2245 232.606 53.9934ZM235.051 52.7885C235.282 52.4943 235.401 52.067 235.401 51.5066C235.401 50.9462 235.282 50.5259 235.051 50.2317C234.819 49.9375 234.49 49.7974 234.077 49.7974C233.664 49.7974 233.341 49.9375 233.11 50.2317C232.879 50.5189 232.76 50.9462 232.76 51.5066C232.76 52.074 232.879 52.5013 233.11 52.7955C233.341 53.0827 233.664 53.2298 234.077 53.2298C234.49 53.2298 234.819 53.0827 235.051 52.7885Z" fill="#231F20"/>
<path d="M242.616 48.7606V54.2666H241.537L239.036 51.1423V54.2666H237.684V48.7606H238.742L241.243 51.8709V48.7606" fill="#231F20"/>
<path d="M214.183 19.4795C213.363 19.4795 212.543 19.7947 211.92 20.4182C210.673 21.6651 210.673 23.6965 211.92 24.9504L215.822 28.8452C215.969 29.0974 216.312 29.1325 216.508 28.9223L220.48 24.9504C221.734 23.6965 221.734 21.6651 220.48 20.4182C219.857 19.7947 219.037 19.4795 218.218 19.4795C217.503 19.4795 216.788 19.7177 216.2 20.194C215.619 19.7177 214.897 19.4795 214.183 19.4795ZM214.183 20.3481C214.778 20.3481 215.373 20.5793 215.836 21.0416L215.892 21.1047C216.067 21.2658 216.333 21.2658 216.508 21.1047L216.571 21.0416C217.489 20.117 218.946 20.117 219.871 21.0416C220.788 21.9593 220.788 23.4233 219.871 24.341L216.2 28.0116L212.529 24.341C211.612 23.4233 211.612 21.9593 212.529 21.0416C212.992 20.5793 213.587 20.3481 214.183 20.3481ZM224.62 28.7051C224.088 28.7051 223.562 28.9083 223.163 29.3076L220.648 31.8224C220.263 31.2059 219.59 30.7997 218.813 30.7997H211.85C209.966 30.7997 208.936 31.7944 208.067 32.663L206.197 34.5333L205.636 33.9659C205.552 33.8889 205.44 33.8398 205.328 33.8398C205.209 33.8398 205.097 33.8889 205.02 33.9659L202.407 36.5788C202.323 36.6559 202.281 36.768 202.281 36.887C202.281 37.0061 202.323 37.1112 202.407 37.1953L208.936 43.717C209.104 43.8921 209.377 43.8851 209.552 43.717L212.158 41.1111C212.326 40.936 212.326 40.6628 212.158 40.4946L211.598 39.9342L212.158 39.3668C212.592 38.9325 212.866 38.6243 213.594 38.6243H219.682C221.174 38.6243 222.421 37.8818 223.31 36.6068C224.326 35.1358 225.328 33.3005 226.126 32.1656C226.42 31.7383 226.617 31.248 226.638 30.7436C226.659 30.2393 226.476 29.7139 226.077 29.3076C225.678 28.9083 225.145 28.7051 224.62 28.7051ZM224.62 29.5668C224.921 29.5668 225.223 29.6859 225.461 29.924C225.692 30.1552 225.776 30.4144 225.769 30.7086C225.755 31.0098 225.629 31.3531 225.412 31.6683C224.557 32.8732 223.569 34.6945 222.596 36.1095C221.825 37.2163 220.9 37.7557 219.682 37.7557H213.594C212.578 37.7557 211.976 38.3161 211.542 38.7504L210.981 39.3178L206.813 35.1428L208.677 33.2794C209.545 32.4108 210.253 31.6683 211.85 31.6683H218.813C219.541 31.6683 220.116 32.2427 220.116 32.9712C220.116 33.6997 219.541 34.2742 218.813 34.2742H214.89C214.316 34.2742 214.316 35.1498 214.89 35.1498H218.813C220.011 35.1498 220.984 34.1691 220.984 32.9712C220.984 32.8872 220.984 32.8101 220.97 32.726L223.78 29.924C224.011 29.6859 224.319 29.5668 224.62 29.5668ZM205.328 34.8906L211.233 40.8029L209.237 42.7923L203.332 36.887" fill="#231F20"/>
<path d="M209.237 43.9832C209.09 43.9832 208.943 43.9272 208.838 43.8221L202.309 37.2934C202.204 37.1883 202.141 37.0412 202.141 36.8871C202.141 36.733 202.197 36.5859 202.309 36.4808L204.922 33.8749C205.132 33.6577 205.517 33.6577 205.734 33.8749L206.197 34.3372L207.962 32.565C208.768 31.7594 209.867 30.6596 211.85 30.6596H218.813C219.548 30.6596 220.235 31.0098 220.669 31.6053L223.065 29.2095C223.478 28.7962 224.032 28.5721 224.62 28.5721C225.208 28.5721 225.762 28.7962 226.175 29.2095C226.581 29.6228 226.792 30.1692 226.778 30.7506C226.757 31.255 226.567 31.7734 226.238 32.2427C225.846 32.7961 225.412 33.5106 224.949 34.2742C224.459 35.0868 223.948 35.9274 223.422 36.6839C222.483 38.0499 221.188 38.7644 219.681 38.7644H213.594C212.957 38.7644 212.711 39.0096 212.312 39.4089L211.794 39.9343L212.256 40.3966C212.361 40.5087 212.424 40.6488 212.424 40.8029C212.424 40.957 212.361 41.0971 212.256 41.2092L209.643 43.8151C209.538 43.9272 209.398 43.9832 209.244 43.9832H209.237ZM205.328 33.98C205.244 33.98 205.167 34.015 205.111 34.064L202.505 36.6769C202.449 36.733 202.414 36.81 202.414 36.8871C202.414 36.9641 202.449 37.0412 202.505 37.0972L209.034 43.6189C209.146 43.738 209.335 43.738 209.447 43.6189L212.06 41.0131C212.179 40.901 212.179 40.7118 212.06 40.5927L211.401 39.9343L212.116 39.2128C212.522 38.8065 212.845 38.4842 213.594 38.4842H219.681C221.089 38.4842 222.308 37.8117 223.191 36.5298C223.709 35.7733 224.221 34.9397 224.718 34.1271C225.18 33.3635 225.615 32.642 226.007 32.0886C226.315 31.6543 226.483 31.192 226.497 30.7436C226.518 30.2323 226.329 29.7629 225.979 29.4057C225.615 29.0484 225.131 28.8453 224.62 28.8453C224.102 28.8453 223.618 29.0484 223.261 29.4057L220.627 32.0466L220.529 31.8925C220.151 31.297 219.513 30.9328 218.813 30.9328H211.85C209.986 30.9328 208.971 31.9485 208.165 32.7611L206.197 34.7295L205.538 34.064C205.482 34.015 205.405 33.98 205.328 33.98ZM209.237 42.9955L203.136 36.8871L205.328 34.6945L211.43 40.8029L209.237 42.9955ZM203.528 36.8871L209.237 42.6032L211.037 40.8029L205.328 35.0868L203.528 36.8871ZM210.981 39.514L206.617 35.1498L208.634 33.1324C209.489 32.2707 210.232 31.5282 211.85 31.5282H218.813C219.618 31.5282 220.256 32.1657 220.256 32.9712C220.256 33.7838 219.618 34.4143 218.813 34.4143H214.89C214.659 34.4143 214.596 34.6034 214.596 34.7155C214.596 34.8206 214.659 35.0097 214.89 35.0097H218.813C219.934 35.0097 220.844 34.0991 220.844 32.9712C220.844 32.8942 220.844 32.8241 220.837 32.7471L220.823 32.684L223.681 29.826C224.186 29.3216 225.047 29.3216 225.559 29.826C225.804 30.0712 225.916 30.3584 225.902 30.7156C225.895 31.0519 225.755 31.4161 225.524 31.7454C225.096 32.3478 224.641 33.0973 224.158 33.8959C223.688 34.6735 223.191 35.4791 222.708 36.1936C221.902 37.3494 220.942 37.8958 219.681 37.8958H213.594C212.676 37.8958 212.123 38.3651 211.64 38.8485L210.981 39.514ZM207.009 35.1498L210.981 39.1217L211.444 38.6594C211.836 38.2671 212.48 37.6156 213.594 37.6156H219.681C220.844 37.6156 221.734 37.1112 222.476 36.0325C222.96 35.332 223.45 34.5264 223.92 33.7488C224.41 32.9502 224.865 32.1937 225.3 31.5842C225.496 31.297 225.615 30.9818 225.629 30.7086C225.636 30.4284 225.559 30.2183 225.363 30.0221C224.956 29.6158 224.277 29.6228 223.877 30.0221L221.117 32.7821C221.117 32.8452 221.125 32.9082 221.125 32.9712C221.125 34.2462 220.088 35.2899 218.813 35.2899H214.89C214.519 35.2899 214.316 34.9957 214.316 34.7155C214.316 34.4283 214.519 34.1411 214.89 34.1411H218.813C219.464 34.1411 219.976 33.6227 219.976 32.9712C219.976 32.3198 219.464 31.8084 218.813 31.8084H211.85C210.344 31.8084 209.671 32.4739 208.831 33.3215L207.009 35.1498ZM216.193 29.2025C216.172 29.2025 216.151 29.2025 216.13 29.1955C215.948 29.1745 215.794 29.0764 215.703 28.9223L211.822 25.0485C211.191 24.4181 210.841 23.5775 210.841 22.6878C210.841 21.7912 211.191 20.9506 211.822 20.3201C212.452 19.6897 213.293 19.3394 214.182 19.3394C214.911 19.3394 215.626 19.5846 216.2 20.0189C216.774 19.5846 217.489 19.3394 218.217 19.3394C219.114 19.3464 219.948 19.6897 220.578 20.3201C221.881 21.6231 221.881 23.7456 220.578 25.0485L216.606 29.0204C216.501 29.1325 216.354 29.2025 216.193 29.2025ZM214.182 19.6196C213.363 19.6196 212.592 19.9419 212.018 20.5163C211.437 21.0977 211.121 21.8682 211.121 22.6878C211.121 23.5004 211.437 24.271 212.018 24.8524L215.92 28.7542C215.99 28.8593 216.067 28.9083 216.158 28.9223C216.249 28.9293 216.347 28.9013 216.41 28.8313L220.382 24.8524C221.58 23.6545 221.58 21.7141 220.382 20.5163C219.808 19.9419 219.037 19.6196 218.217 19.6196C217.517 19.6196 216.83 19.8648 216.291 20.3061L216.2 20.3762L216.116 20.3061C215.569 19.8648 214.883 19.6196 214.182 19.6196ZM216.2 28.2078L212.431 24.4391C211.962 23.9698 211.703 23.3463 211.703 22.6878C211.703 22.0294 211.962 21.4129 212.431 20.9436C212.901 20.4672 213.524 20.208 214.182 20.208C214.834 20.208 215.457 20.4672 215.934 20.9436L215.99 20.9996C216.109 21.1187 216.291 21.1187 216.41 20.9996L216.466 20.9436C216.935 20.4672 217.559 20.208 218.217 20.208C218.876 20.208 219.492 20.4672 219.969 20.9436C220.949 21.9243 220.949 23.4584 219.969 24.4391L216.2 28.2078ZM214.182 20.4882C213.601 20.4882 213.048 20.7194 212.627 21.1327C211.759 22.0083 211.759 23.3743 212.627 24.243L216.2 27.8155L219.773 24.243C220.641 23.3743 220.641 22.0083 219.773 21.1327C219.352 20.7194 218.799 20.4882 218.217 20.4882C217.636 20.4882 217.083 20.7194 216.662 21.1327L216.606 21.1958C216.382 21.4199 216.018 21.4199 215.794 21.1958L215.731 21.1327C215.317 20.7194 214.764 20.4882 214.182 20.4882Z" fill="#231F20"/>
</g>
<defs>
<clipPath id="clip0_7_50094">
<rect width="447" height="71" fill="white"/>
</clipPath>
</defs>
</svg>
