<svg width="106" height="35" viewBox="0 0 106 35" fill="none" xmlns="http://www.w3.org/2000/svg">
<g clip-path="url(#clip0_8_74370)">
<path d="M13.6406 14.2865C12.625 15.7812 13.4896 17.7448 14.5365 18.7448C15.4896 19.651 16.2552 19.8646 16.3594 19.8906L16.8437 18.9583L18.25 22.8021L14.276 23.6094L14.8021 22.6302L14.2656 22.3281C12.5937 21.2396 12.2344 19.7552 12.1198 19.2917C11.9219 18.5 11.625 16.1146 13.6406 14.2865Z" fill="#1C1C1B"/>
<path d="M13.6198 14.3542C14.3437 16.0052 16.4635 16.3281 17.8698 15.9688C19.1094 15.6563 19.6979 15.1406 19.8021 15.0521L19.7969 15.0417L19.2604 14.1198L23.2656 14.9948L21.8125 18.7865L21.2812 17.8281L20.7552 18.1146C18.9427 18.9479 17.4948 18.4583 17.0469 18.3073C16.2656 18.0521 14.0885 17.0313 13.6198 14.3542Z" fill="#1C1C1B"/>
<path d="M20.6927 10.3594C20.4167 12.3333 19.224 13.2865 18.8542 13.5833C18.2136 14.1042 16.1823 15.3802 13.6771 14.3333C15.4636 14.6146 16.875 13.0052 17.3333 11.6302C17.7448 10.401 17.6198 9.62499 17.599 9.5052L17.5833 9.49999L16.5208 9.45312L19.4115 6.55208L21.8281 9.81249L20.7396 9.74999" fill="#1C1C1B"/>
<path d="M8.5625 8.6875C7.52084 8.6875 6.70834 7.72916 6.95313 6.64583C7.08854 6.05208 7.57292 5.5625 8.17188 5.42708C9.25 5.18229 10.2135 5.99479 10.2135 7.03646C10.2135 7.94792 9.47396 8.6875 8.5625 8.6875Z" fill="#1C1C1B"/>
<path d="M10.8177 2.23958C4.85417 2.23958 0 7.09375 0 13.0625C0 19.026 4.85417 23.8802 10.8177 23.8802C11.1406 23.8802 11.4531 23.8594 11.7656 23.8333L11.8385 24.9167L13.8125 23.0052L11.599 21.3125L11.6823 22.4583C11.401 22.4792 11.1094 22.5 10.8177 22.5C10.3594 22.5 9.91146 22.4635 9.46875 22.401L9.42708 22.1146L8.39583 13.3542C8.25521 11.7031 9.19792 11.4375 9.78646 11.6875L13.0625 13.0052C13.4427 13.1667 13.6198 12.849 13.6198 12.849C13.6198 12.849 13.8333 12.5208 13.4531 12.276C13.4531 12.276 8.98438 9.3177 8.03125 9.13541C6.72917 8.89062 5.44271 9.94791 5.15625 11.3177L3.56771 19.099C1.94271 17.1458 1.08333 14.526 1.47396 11.7187C2.04687 7.58333 5.36458 4.27083 9.5 3.70833C12.8021 3.26041 15.8333 4.53124 17.8333 6.74999L18.8021 5.76562C16.8229 3.59895 13.974 2.23958 10.8177 2.23958ZM6 16.7187C6.14063 16.3333 6.35417 16.3542 6.35417 16.3542C6.35417 16.3542 6.54687 16.3177 6.65104 16.7031L8.19271 22.125C6.90625 21.75 5.72917 21.1094 4.73438 20.2656" fill="#1C1C1B"/>
<path d="M61.9167 25.5C61.6771 25.0052 61.3281 24.5313 60.9636 24.0313C60.4375 23.3177 59.8438 22.5052 59.4844 21.4948C59.4323 21.3385 59.1771 21.3385 59.1198 21.4948C58.7656 22.5052 58.1667 23.3177 57.6406 24.0313C56.974 24.9375 56.4011 25.724 56.349 26.7188C56.3021 27.6042 56.5677 28.3698 57.1146 28.9479C57.6667 29.526 58.4636 29.8542 59.3021 29.8542C60.0521 29.8542 60.7656 29.5938 61.3073 29.1198C61.7761 28.7135 62.3177 27.9635 62.2552 26.7188C62.2344 26.3177 62.125 25.9219 61.9167 25.5Z" fill="#1C1C1B"/>
<path d="M50.5052 26.8073C50.4323 26.8854 50.3281 26.9271 50.2239 26.9271H39.8437C39.6614 26.9271 39.5156 26.7813 39.5156 26.599V20.2188H47.1094L48.7864 22.026C48.8854 22.1406 49.0416 22.1823 49.1875 22.1354L54.5469 20.3802L50.5052 26.8073ZM34.5729 19.9479C34.3021 19.875 34.1406 19.599 34.2083 19.3281L34.5625 17.9219C34.5937 17.7969 34.6719 17.6927 34.7812 17.6302C34.8906 17.5677 35.0156 17.5521 35.1406 17.5833L38.4062 18.4948C38.6041 18.5521 38.7448 18.7292 38.7448 18.9375V21.0573L34.5729 19.9479ZM58.8021 19.5625L57.9427 18.6823C57.8437 18.5781 57.6875 18.5417 57.5469 18.5885L55.3281 19.3125C55.3229 19.3125 55.3177 19.3177 55.3125 19.3177L49.1823 21.3229L47.5625 19.5729C47.4896 19.4948 47.3854 19.4479 47.2812 19.4479H43.9531V18.4219H44.8333C45.0469 18.4219 45.2187 18.25 45.2187 18.0365C45.2187 17.8229 45.0469 17.651 44.8333 17.651H42.375C42.1614 17.651 41.9896 17.8229 41.9896 18.0365C41.9896 18.25 42.1614 18.4219 42.375 18.4219H43.1823V19.4479H39.5156V18.9375C39.5156 18.3854 39.1458 17.901 38.6146 17.75L35.3489 16.8438C35.0208 16.75 34.6823 16.7969 34.3906 16.9635C34.0989 17.1354 33.8906 17.4063 33.8125 17.7344L33.4583 19.1354C33.2864 19.8177 33.6979 20.5104 34.375 20.6927L38.7448 21.8542V26.599C38.7448 27.2031 39.2344 27.6979 39.8437 27.6979H50.2239C50.5625 27.6979 50.8854 27.5521 51.1094 27.2917C51.1198 27.276 51.1354 27.2604 51.1406 27.2448L55.6927 20.0052L57.5573 19.3958L58.25 20.099C58.3958 20.2552 58.6406 20.2552 58.7916 20.1094C58.9479 19.9583 58.9531 19.7135 58.8021 19.5625Z" fill="#1C1C1B"/>
<path d="M36.7135 6.78125C36.4948 6.78125 36.3229 6.86458 36.2031 7.03125C36.0833 7.19792 36.026 7.42708 36.026 7.71875C36.026 8.33333 36.2552 8.64063 36.7135 8.64063C36.9115 8.64063 37.1458 8.59375 37.4167 8.49479V8.98438C37.1927 9.07813 36.9375 9.125 36.6615 9.125C36.2604 9.125 35.9531 9.00521 35.7396 8.76042C35.5313 8.52083 35.4219 8.17188 35.4219 7.71875C35.4219 7.43229 35.474 7.18229 35.5781 6.96354C35.6823 6.75 35.8333 6.58333 36.0313 6.46875C36.224 6.35417 36.4531 6.29688 36.7135 6.29688C36.9844 6.29688 37.25 6.36458 37.5208 6.48958L37.3333 6.96354C37.2292 6.91667 37.125 6.875 37.0208 6.83854C36.9167 6.80208 36.8177 6.78125 36.7135 6.78125Z" fill="#1C1C1B"/>
<path d="M39.6302 9.08855H38.0469V6.33855H39.6302V6.81771H38.6302V7.42188H39.5625V7.89584H38.6302V8.60938H39.6302" fill="#1C1C1B"/>
<path d="M41.3073 9.08855H40.7239V6.82292H39.9739V6.33855H42.0573V6.82292H41.3073" fill="#1C1C1B"/>
<path d="M43.5833 9.08855H43V6.82292H42.25V6.33855H44.3281V6.82292H43.5833" fill="#1C1C1B"/>
<path d="M46.3802 9.08855H44.7969V6.33855H46.3802V6.81771H45.3802V7.42188H46.3125V7.89584H45.3802V8.60938H46.3802" fill="#1C1C1B"/>
<path d="M50.2969 9.08855H49.7135V7.90105H48.6198V9.08855H48.0364V6.33855H48.6198V7.41667H49.7135V6.33855H50.2969" fill="#1C1C1B"/>
<path d="M53.2709 6.33855V8.1198C53.2709 8.32292 53.2292 8.50001 53.1354 8.65105C53.0469 8.8073 52.9115 8.92188 52.7448 9.00521C52.5677 9.08334 52.3646 9.12501 52.1302 9.12501C51.7761 9.12501 51.5 9.03646 51.3073 8.85417C51.1094 8.67188 51.0104 8.42709 51.0104 8.10938V6.33855H51.5938V8.02084C51.5938 8.23438 51.6354 8.39063 51.7188 8.48959C51.8073 8.58855 51.9479 8.63542 52.1459 8.63542C52.3386 8.63542 52.474 8.58855 52.5625 8.48959C52.6459 8.39063 52.6927 8.23438 52.6927 8.01563V6.33855" fill="#1C1C1B"/>
<path d="M53.9844 9.08855H54.5677V6.33855H53.9844V9.08855Z" fill="#1C1C1B"/>
<path d="M55.3021 9.08855V6.33855H55.8854V8.60938H57.0052V9.08855" fill="#1C1C1B"/>
<path d="M59.1094 9.08855H57.5208V6.33855H59.1094V6.81771H58.1094V7.42188H59.0416V7.89584H58.1094V8.60938H59.1094" fill="#1C1C1B"/>
<path d="M35.0208 10.4479V12.2292C35.0208 12.4323 34.9739 12.6094 34.8802 12.7656C34.7916 12.9167 34.6562 13.0365 34.4844 13.1146C34.3125 13.1979 34.1094 13.2396 33.875 13.2396C33.5208 13.2396 33.2448 13.1458 33.0521 12.9635C32.8541 12.7865 32.7552 12.5365 32.7552 12.2188V10.4479H33.3385V12.1302C33.3385 12.3438 33.3802 12.5 33.4687 12.599C33.5521 12.6979 33.6927 12.75 33.8906 12.75C34.0833 12.75 34.2187 12.6979 34.3073 12.599C34.3906 12.5 34.4375 12.3438 34.4375 12.1302V10.4479" fill="#1C1C1B"/>
<path d="M37.3594 12.4375C37.3594 12.6823 37.2708 12.8802 37.0938 13.026C36.9115 13.1667 36.6615 13.2396 36.3438 13.2396C36.0469 13.2396 35.7865 13.1823 35.5625 13.0729V12.5312C35.75 12.6146 35.9063 12.6719 36.0365 12.7031C36.1615 12.7396 36.2813 12.7552 36.3906 12.7552C36.5156 12.7552 36.6146 12.7292 36.6823 12.6823C36.75 12.6354 36.7865 12.5573 36.7865 12.4635C36.7865 12.4115 36.7708 12.3594 36.7396 12.3177C36.7083 12.276 36.6667 12.2396 36.6094 12.1979C36.5521 12.1615 36.4323 12.099 36.25 12.0104C36.0833 11.9323 35.9531 11.8594 35.875 11.7865C35.7865 11.7135 35.7188 11.625 35.6719 11.5312C35.6198 11.4323 35.5938 11.3229 35.5938 11.1927C35.5938 10.9479 35.6771 10.7552 35.8438 10.6198C36.0052 10.4792 36.2344 10.4115 36.526 10.4115C36.6719 10.4115 36.8073 10.4271 36.9375 10.4583C37.0677 10.4948 37.2031 10.5417 37.3438 10.6042L37.1562 11.0573C37.0104 10.9948 36.8906 10.9531 36.7917 10.9323C36.6979 10.9062 36.6042 10.8958 36.5104 10.8958C36.3958 10.8958 36.3125 10.9219 36.2552 10.974C36.1979 11.026 36.1667 11.0885 36.1667 11.1719C36.1667 11.224 36.1771 11.2708 36.2031 11.3073C36.224 11.349 36.2656 11.3802 36.3125 11.4167C36.3698 11.4531 36.4896 11.5208 36.6875 11.6094C36.9427 11.7344 37.1198 11.8594 37.2188 11.9792C37.3125 12.1042 37.3594 12.2552 37.3594 12.4375Z" fill="#1C1C1B"/>
<path d="M38.3489 10.2292V10.1771C38.5677 9.92708 38.7135 9.73958 38.7916 9.60938H39.4375V9.65104C39.375 9.71875 39.2604 9.8125 39.1041 9.94271C38.9479 10.0677 38.8229 10.1667 38.7344 10.2292H38.3489ZM39.4844 13.1979H37.8958V10.4479H39.4844V10.9271H38.4791V11.5313H39.4166V12.0104H38.4791V12.7188H39.4844" fill="#1C1C1B"/>
<path d="M41.6875 13.1979H40.0989V10.4479H41.6875V10.9271H40.6823V11.5313H41.6146V12.0104H40.6823V12.7188H41.6875" fill="#1C1C1B"/>
<path d="M43.8333 11.8177C43.8333 12.1302 43.8906 12.3594 44.0052 12.5156C44.125 12.6719 44.2969 12.75 44.5312 12.75C44.9948 12.75 45.2292 12.4375 45.2292 11.8177C45.2292 11.1979 45 10.8906 44.5365 10.8906C44.3021 10.8906 44.125 10.9688 44.0104 11.125C43.8906 11.2813 43.8333 11.5104 43.8333 11.8177ZM45.8438 11.8177C45.8438 12.276 45.7292 12.625 45.5052 12.8698C45.276 13.1146 44.9531 13.2396 44.5312 13.2396C44.1094 13.2396 43.7865 13.1146 43.5573 12.8698C43.3333 12.625 43.2188 12.276 43.2188 11.8177C43.2188 11.3594 43.3333 11.0104 43.5573 10.7656C43.7865 10.526 44.1094 10.4062 44.5365 10.4062C44.9583 10.4062 45.2813 10.526 45.5052 10.7708C45.7292 11.0156 45.8438 11.3646 45.8438 11.8177Z" fill="#1C1C1B"/>
<path d="M48.6979 10.4479V12.2292C48.6979 12.4323 48.6511 12.6094 48.5573 12.7656C48.4688 12.9167 48.3386 13.0365 48.1667 13.1146C47.9948 13.1979 47.7917 13.2396 47.5521 13.2396C47.1979 13.2396 46.9219 13.1458 46.7292 12.9635C46.5313 12.7865 46.4323 12.5365 46.4323 12.2188V10.4479H47.0156V12.1302C47.0156 12.3438 47.0573 12.5 47.1459 12.599C47.2292 12.6979 47.3698 12.75 47.5677 12.75C47.7604 12.75 47.9011 12.6979 47.9844 12.599C48.0729 12.5 48.1146 12.3438 48.1146 12.1302V10.4479" fill="#1C1C1B"/>
<path d="M52.8958 13.1979H52.1562L50.9531 11.1198H50.9375C50.9635 11.4844 50.974 11.75 50.974 11.9063V13.1979H50.4531V10.4479H51.1875L52.3854 12.5104H52.401C52.3802 12.151 52.3698 11.901 52.3698 11.75V10.4479H52.8958" fill="#1C1C1B"/>
<path d="M55.2187 13.1979H53.6302V10.4479H55.2187V10.9271H54.2135V11.5313H55.1458V12.0104H54.2135V12.7188H55.2187" fill="#1C1C1B"/>
<path d="M58.0729 10.4479V12.2292C58.0729 12.4323 58.026 12.6094 57.9375 12.7656C57.8438 12.9167 57.7135 13.0365 57.5417 13.1146C57.3698 13.1979 57.1667 13.2396 56.9323 13.2396C56.5781 13.2396 56.3021 13.1458 56.1042 12.9635C55.9115 12.7865 55.8125 12.5365 55.8125 12.2188V10.4479H56.3906V12.1302C56.3906 12.3438 56.4375 12.5 56.5208 12.599C56.6094 12.6979 56.75 12.75 56.9479 12.75C57.1354 12.75 57.276 12.6979 57.3594 12.599C57.4479 12.5 57.4896 12.3438 57.4896 12.1302V10.4479" fill="#1C1C1B"/>
<path d="M60.3594 10.4479H60.9479L60.0156 13.1979H59.375L58.4375 10.4479H59.0312L59.5469 12.0885C59.5781 12.1823 59.6094 12.2969 59.6406 12.4219C59.6719 12.5521 59.6875 12.6406 59.6979 12.6927C59.7083 12.5781 59.7552 12.375 59.8385 12.0885" fill="#1C1C1B"/>
<path d="M62.9219 13.1979H61.3333V10.4479H62.9219V10.9271H61.9166V11.5313H62.8541V12.0104H61.9166V12.7188H62.9219" fill="#1C1C1B"/>
<path d="M64.2917 32.8281H37.9375C32.3385 32.8281 27.7812 28.1927 27.7812 22.4896V3.63021H29.0781C29.7031 4.6875 31.3646 5.44271 33.3177 5.44271C35.276 5.44271 36.9323 4.6875 37.5573 3.63021H64.5208L71.599 18.2083L64.2917 32.8281ZM94.1042 2.26042H37.9479C37.5781 0.979167 35.6979 0 33.4271 0C31.1562 0 29.276 0.979167 28.9062 2.26042H26.4062V22.4896C26.4062 28.9479 31.6719 34.2031 38.1354 34.2031H105.833V13.9688C105.833 7.51563 100.344 2.26042 93.875 2.26042" fill="#1C1C1B"/>
<path d="M31.0781 4.02604V1.15625H33.0521V1.64583H31.6615V2.32292H32.8594V2.80729H31.6615V4.02604" fill="white"/>
<path d="M34.1146 2.36979H34.5417C34.8177 2.36979 34.9948 2.35937 35.0625 2.33333C35.1302 2.3125 35.1875 2.27083 35.224 2.21354C35.2656 2.15625 35.2865 2.08854 35.2865 2C35.2865 1.90104 35.2604 1.82292 35.2083 1.76562C35.1563 1.70833 35.0833 1.66667 34.9896 1.65104C34.9427 1.64583 34.8021 1.64583 34.5625 1.64583H34.1146V2.36979ZM33.5312 4.02604V1.15625H34.7552C35.0573 1.15625 35.2813 1.18229 35.4219 1.23437C35.5625 1.28646 35.6719 1.38021 35.7552 1.51042C35.8385 1.64062 35.8802 1.79167 35.8802 1.96354C35.8802 2.17708 35.8177 2.35417 35.6927 2.49479C35.5625 2.63542 35.375 2.72396 35.125 2.76042C35.25 2.83333 35.3542 2.91667 35.4323 3C35.5156 3.08854 35.625 3.24479 35.7656 3.46875L36.1146 4.02604H35.4219L35.0052 3.40625C34.8542 3.18229 34.75 3.04167 34.6979 2.97917C34.6406 2.92187 34.5833 2.88542 34.5208 2.86458C34.4583 2.83854 34.3646 2.82812 34.2292 2.82812H34.1146V4.02604" fill="white"/>
<path d="M95.099 14.5417L93.3542 15.2344C93.2552 15.2708 93.1875 15.3698 93.1875 15.474C93.1875 16.5625 92.6979 17.4271 91.7031 18.0625C91.6563 18.0885 91.4479 18.1771 91.0469 18.3385C91.0156 18.3438 90.9844 18.3542 90.9531 18.3698C90.5417 18.5313 89.9479 18.7552 89.1198 19.0625C88.5313 19.276 88.0261 19.6615 87.6563 20.1719L86.6042 21.6354C86.4896 21.7865 86.3229 21.8854 86.1302 21.9167C85.9427 21.9427 85.7552 21.8958 85.599 21.7812C85.4427 21.6615 85.349 21.4948 85.3177 21.3073C85.2917 21.1146 85.3386 20.9271 85.4531 20.7708L87.2656 18.3646C87.3333 18.276 87.3333 18.1563 87.2708 18.0625C86.7396 17.2969 86.9063 16.4844 86.9115 16.4792C86.9323 16.3906 86.9011 16.2917 86.8281 16.2292C86.7604 16.1719 86.6615 16.151 86.5729 16.1823L85.6615 16.5C85.4115 16.5885 85.2031 16.7552 85.0573 17L84.7604 17.6198C84.6458 17.8594 84.5781 18.1146 84.5677 18.3802L84.5417 18.8646L83.6875 19.7031L83.2396 19C83.1302 18.8073 83.1146 18.5729 83.1979 18.3698L84.3906 15.5C84.5469 15.1094 84.8646 14.8021 85.2552 14.6458L92.3021 11.901H95.099V14.5417ZM90.8906 21.1771C90.8906 21.3438 90.8281 21.5 90.7136 21.6198C90.5938 21.7396 90.4375 21.8073 90.2188 21.8073C89.8802 21.8073 89.6042 21.5365 89.599 21.1979L89.5469 19.4531C90.0938 19.25 90.5156 19.0938 90.8438 18.9688L90.8906 21.1771ZM87.9844 20.599L88.0729 20.474C88.3281 20.125 88.6563 19.849 89.0365 19.6615L89.0833 21.2083C89.0886 21.4115 89.1511 21.5938 89.2448 21.7552L87.9844 20.599ZM86.1875 18.9479L85.4688 18.2917C85.3698 18.1979 85.2136 18.2031 85.1146 18.2969L85.0938 18.3177C85.1146 18.151 85.1511 17.9948 85.224 17.8438L85.5052 17.2448C85.5833 17.125 85.6979 17.0313 85.8281 16.9844L86.3698 16.7969C86.3646 17.1458 86.4323 17.6667 86.7448 18.1979L86.1875 18.9479ZM92.6042 25.2031L93.1458 24.6615V27.5521H90.2448L90.7917 27.0104C90.8386 26.9635 90.8698 26.8958 90.8646 26.8229C90.8646 26.7552 90.8333 26.6875 90.7813 26.6406L86.9792 23.1458C86.9011 23.0781 86.7917 23.0573 86.7031 23.099C86.6042 23.1406 86.5469 23.2292 86.5469 23.3333V28.4427C86.5469 28.5885 86.6615 28.7031 86.8021 28.7031H87.5729L85.5261 30.7448L83.474 28.7031H84.2396C84.3854 28.7031 84.5 28.5885 84.5 28.4427V23.1094C84.5 23.0052 84.4375 22.9115 84.3438 22.8698C84.2448 22.8333 84.1354 22.8542 84.0625 22.9271L80.2865 26.6458C80.2344 26.6927 80.2083 26.7604 80.2083 26.8281C80.2083 26.8958 80.2344 26.9635 80.2813 27.0104L80.8281 27.5521H77.9323L77.9271 24.6615L78.4688 25.2031C78.5729 25.3021 78.7344 25.3073 78.8333 25.2031L84.9479 19.1875C84.9583 19.1771 84.9688 19.1667 84.9792 19.151L85.3021 18.8333L85.875 19.3594L85.0417 20.4635C84.8438 20.7292 84.7604 21.0521 84.8073 21.375C84.8542 21.7031 85.0261 21.9896 85.2917 22.1875C85.5052 22.349 85.7656 22.4375 86.0261 22.4375C86.0886 22.4375 86.1458 22.4323 86.2083 22.4219C86.5313 22.375 86.8229 22.2031 87.0208 21.9375L87.6823 21.0208L92.2448 25.2083C92.349 25.3073 92.5052 25.3021 92.6042 25.2031ZM95.3542 11.3906H92.2552C92.224 11.3906 92.1927 11.3958 92.1615 11.4063L85.0677 14.1719C84.5469 14.3698 84.125 14.7865 83.9115 15.3021L82.7188 18.1719C82.5781 18.5208 82.6042 18.9271 82.7969 19.2604L83.3125 20.0729L78.6563 24.6615L77.8542 23.8594C77.7813 23.7865 77.6667 23.7656 77.5729 23.8073C77.4792 23.8438 77.4115 23.9375 77.4115 24.0417L77.4167 27.8125C77.4167 27.9531 77.5313 28.0677 77.6719 28.0677H81.4479C81.5521 28.0677 81.6458 28.0052 81.6875 27.9062C81.724 27.8125 81.7031 27.6979 81.6302 27.625L80.8281 26.8281L83.9844 23.724V28.1875H82.8542C82.75 28.1875 82.6563 28.25 82.6146 28.3438C82.5781 28.4427 82.599 28.5521 82.6719 28.625L85.3386 31.2917C85.3906 31.3385 85.4531 31.3646 85.5261 31.3646C85.5938 31.3646 85.6563 31.3385 85.7031 31.2917L88.375 28.625C88.4479 28.5521 88.4688 28.4427 88.4323 28.3438C88.3906 28.25 88.2969 28.1875 88.1927 28.1875H87.0625V23.9167L90.2344 26.8385L89.4427 27.625C89.3698 27.6979 89.349 27.8125 89.3906 27.9062C89.4271 28.0052 89.5208 28.0677 89.625 28.0677H93.4011C93.5417 28.0677 93.6563 27.9531 93.6563 27.8125L93.6615 24.0417C93.6615 23.9375 93.599 23.8438 93.5 23.8073C93.4063 23.7656 93.2969 23.7865 93.2188 23.8594L92.4115 24.6667L89.7136 22.1875C89.8802 22.2708 90.0625 22.3177 90.2708 22.3177C90.5729 22.3177 90.8646 22.1979 91.0781 21.9792C91.2917 21.7604 91.4063 21.474 91.4011 21.1667L91.3542 18.7656C91.875 18.5625 91.9583 18.5104 92.0052 18.4792C93.3177 17.6406 93.6615 16.5104 93.6979 15.651L95.4479 14.9583C95.5469 14.9167 95.6146 14.8229 95.6146 14.7188V11.6458C95.6146 11.5052 95.5 11.3906 95.3542 11.3906Z" fill="white"/>
<path d="M76.8542 7.70313C76.8542 7.10938 76.5938 6.81251 76.0677 6.81251H75.7604V8.60938H76.0104C76.5729 8.60938 76.8542 8.3073 76.8542 7.70313ZM77.4635 7.68751C77.4635 8.14063 77.3333 8.48438 77.0729 8.72917C76.8125 8.96876 76.4427 9.08855 75.9531 9.08855H75.1719V6.33855H76.0417C76.4896 6.33855 76.8385 6.45834 77.0885 6.69271C77.3385 6.9323 77.4635 7.26042 77.4635 7.68751Z" fill="white"/>
<path d="M78.526 6.11979V6.06771C78.7396 5.81771 78.8854 5.625 78.9635 5.5H79.6094V5.53646C79.5469 5.60417 79.4323 5.70313 79.276 5.83333C79.1198 5.95833 78.9948 6.05729 78.9062 6.11979H78.526ZM79.6562 9.08854H78.0729V6.33854H79.6562V6.8125H78.6562V7.42187H79.5885V7.89583H78.6562V8.60937H79.6562" fill="white"/>
<path d="M81.4427 6.78125C81.2239 6.78125 81.0521 6.86458 80.9323 7.03125C80.8125 7.19792 80.75 7.42708 80.75 7.71875C80.75 8.33333 80.9792 8.64063 81.4427 8.64063C81.6354 8.64063 81.8698 8.59375 82.1458 8.49479V8.98438C81.9219 9.07813 81.6667 9.125 81.3906 9.125C80.9844 9.125 80.6823 9.00521 80.4687 8.76042C80.2552 8.52083 80.151 8.17188 80.151 7.71875C80.151 7.43229 80.2031 7.18229 80.3073 6.96354C80.4114 6.75 80.5625 6.58333 80.7552 6.46875C80.9531 6.35417 81.1823 6.29688 81.4427 6.29688C81.7083 6.29688 81.9792 6.36458 82.25 6.48958L82.0625 6.96354C81.9583 6.91667 81.8542 6.875 81.75 6.83854C81.6458 6.80208 81.5417 6.78125 81.4427 6.78125Z" fill="white"/>
<path d="M85.0313 9.08855H84.4479V7.90105H83.3542V9.08855H82.7708V6.33855H83.3542V7.41667H84.4479V6.33855H85.0313" fill="white"/>
<path d="M86.6146 6.11979C86.5365 6.0625 86.4167 5.97396 86.2656 5.84896C86.1094 5.72396 85.9896 5.625 85.9062 5.53646V5.5H86.5469C86.6302 5.625 86.776 5.81771 86.9896 6.06771V6.11979H86.6146ZM87.349 9.08854H85.7656V6.33854H87.349V6.8125H86.349V7.42187H87.2812V7.89583H86.349V8.60937H87.349" fill="white"/>
<path d="M89.0261 9.08855H88.4427V6.82292H87.6927V6.33855H89.7761V6.82292H89.0261" fill="white"/>
<path d="M91.8281 9.08855H90.2396V6.33855H91.8281V6.81771H90.8229V7.42188H91.7552V7.89584H90.8229V8.60938H91.8281" fill="white"/>
<path d="M93.0261 7.5573H93.2136C93.3958 7.5573 93.5365 7.52605 93.625 7.46876C93.7083 7.40626 93.7552 7.3073 93.7552 7.17709C93.7552 7.04688 93.7083 6.95313 93.6198 6.90105C93.5313 6.84376 93.3906 6.81771 93.2031 6.81771H93.0261V7.5573ZM93.0261 8.03126V9.08855H92.4427V6.33855H93.2448C93.6198 6.33855 93.8958 6.40626 94.0729 6.54167C94.2552 6.67709 94.3438 6.88542 94.3438 7.16146C94.3438 7.32292 94.3021 7.46876 94.2136 7.59376C94.125 7.71876 93.9948 7.81771 93.8333 7.89063C94.2448 8.51042 94.5156 8.90626 94.6406 9.08855H93.9948L93.3333 8.03126" fill="white"/>
<path d="M95.0312 9.08855H95.6146V6.33855H95.0312V9.08855Z" fill="white"/>
<path d="M97.9323 9.08855H96.3438V6.33855H97.9323V6.81771H96.9271V7.42188H97.8646V7.89584H96.9271V8.60938H97.9323" fill="white"/>
</g>
<defs>
<clipPath id="clip0_8_74370">
<rect width="106" height="35" fill="white"/>
</clipPath>
</defs>
</svg>
