<svg width="270" height="61" viewBox="0 0 270 61" fill="none" xmlns="http://www.w3.org/2000/svg">
<path d="M24.6979 60.4688C11.0781 60.4688 0 49.5208 0 36.0625V0H234.948C248.563 0 259.641 10.9479 259.641 24.4062V60.4688" fill="white"/>
<path d="M222.083 52.9114H69.1353C59.6874 52.9114 51.9999 45.3541 51.9999 36.0625V7.55725H204.948C214.396 7.55725 222.083 15.1145 222.083 24.4062V52.9114ZM204.948 5.66663H50.1145V36.0625C50.1145 46.3958 58.6458 54.802 69.1353 54.802H223.969V24.4062C223.969 14.0729 215.437 5.66663 204.948 5.66663Z" fill="#629D5E"/>
<path d="M196.714 54.802L209.724 28.2239L196.432 5.66663H234.948C245.437 5.66663 253.969 14.0729 253.969 24.4062V54.802" fill="#629D5E"/>
<path d="M102.901 5.66663H50.1145V36.0625C50.1145 46.3958 58.6458 54.802 69.1353 54.802H121.927V24.4062C121.927 14.0729 113.391 5.66663 102.901 5.66663Z" fill="#629D5E"/>
<path d="M63.651 29.3594C58.8489 29.3594 54.9583 33.25 54.9583 38.0521C54.9583 42.8542 58.8489 46.7448 63.651 46.7448C68.4583 46.7448 72.3489 42.8542 72.3489 38.0521C72.3489 33.25 68.4583 29.3594 63.651 29.3594Z" fill="white"/>
<path d="M69.3229 39.4688H65.0729V43.7188H62.2344V39.4688H57.9844V36.6355H62.2344V32.3802H65.0729V36.6355H69.3229" fill="#1C1C1B"/>
<path d="M55.7864 26.5937V17.1979H58.2708V24.5156H61.828V26.5937" fill="#1C1C1B"/>
<path d="M62.9426 26.5937V17.1979H69.0155V19.276H65.4322V20.7552H68.4947V22.8385H65.4322V24.5156H69.1614V26.5937" fill="#1C1C1B"/>
<path d="M75.0885 26.5937V19.276H72.6041V17.1979H80.0677V19.276H77.5781V26.5937" fill="#1C1C1B"/>
<path d="M83.5521 21.4739H84.4479C85.4479 21.4739 85.9531 21.0625 85.9531 20.2343C85.9531 19.8281 85.8229 19.5468 85.5677 19.3958C85.3125 19.2395 84.9375 19.1614 84.4479 19.1614H83.5521V21.4739ZM81.0625 26.5989V17.1979H84.6198C85.125 17.1979 85.6042 17.2448 86.0625 17.3385C86.5208 17.4375 86.9167 17.5989 87.2604 17.8333C87.6042 18.0625 87.875 18.375 88.0781 18.7656C88.2813 19.1562 88.3802 19.6458 88.3802 20.2343C88.3802 20.9062 88.2448 21.4687 87.9688 21.9114C87.6979 22.3541 87.3281 22.6979 86.8646 22.9531L88.901 26.5989H86.125L84.5052 23.4427H83.5521V26.5989" fill="#1C1C1B"/>
<path d="M89.8698 26.5989H92.3593V17.1979H89.8698V26.5989Z" fill="#1C1C1B"/>
<path d="M75.3801 43.276V33.8698H81.5103V35.9531H77.8697V37.75H80.9895V39.8333H77.8697V43.276" fill="#1C1C1B"/>
<path d="M84.9218 38.7031L84.7604 39.3541H86.4948L86.3385 38.7031C86.2239 38.25 86.1041 37.7604 85.9895 37.2291C85.875 36.6979 85.7604 36.1979 85.6406 35.7239H85.5833C85.4791 36.2031 85.3698 36.7083 85.2604 37.2343C85.151 37.7604 85.0364 38.25 84.9218 38.7031ZM81.3073 43.276L84.1666 33.8698H87.1718L90.0364 43.276H87.4062L86.9427 41.276H84.3125L83.8489 43.276" fill="#1C1C1B"/>
<path d="M94.5624 43.4479C93.9687 43.4479 93.3958 43.3489 92.8541 43.151C92.3072 42.9531 91.8333 42.651 91.4218 42.2552C91.0103 41.8541 90.6822 41.3541 90.4426 40.75C90.203 40.1458 90.0833 39.4479 90.0833 38.6458C90.0833 37.8541 90.2083 37.151 90.4583 36.5416C90.7083 35.927 91.0416 35.4114 91.4635 34.9948C91.8801 34.5729 92.3645 34.25 92.9114 34.0312C93.4583 33.8073 94.026 33.6979 94.6249 33.6979C95.2499 33.6979 95.8124 33.8229 96.302 34.0677C96.7968 34.3125 97.2083 34.6041 97.5468 34.9427L96.2447 36.5312C96.0155 36.3333 95.776 36.1666 95.5312 36.0312C95.2812 35.9062 94.9999 35.8385 94.6822 35.8385C94.401 35.8385 94.1405 35.901 93.8958 36.026C93.651 36.151 93.4322 36.3333 93.2447 36.5625C93.0572 36.7916 92.9062 37.0781 92.7968 37.4166C92.6822 37.75 92.6301 38.1354 92.6301 38.5573C92.6301 39.4479 92.8124 40.125 93.1874 40.5989C93.5572 41.0677 94.0468 41.3073 94.651 41.3073C95.0208 41.3073 95.3437 41.2291 95.6301 41.0677C95.9114 40.9062 96.1562 40.7187 96.3593 40.4948L97.6614 42.0573C97.2551 42.5208 96.7916 42.8698 96.2655 43.0989C95.7395 43.3333 95.1718 43.4479 94.5624 43.4479Z" fill="#1C1C1B"/>
<path d="M98.6198 43.276H101.104V33.8698H98.6198V43.276Z" fill="#1C1C1B"/>
<path d="M102.875 43.276V33.8698H105.365V41.1927H108.922V43.276" fill="#1C1C1B"/>
<path d="M110.031 43.276V33.8698H116.109V35.9531H112.521V37.4323H115.589V39.5156H112.521V41.1927H116.255V43.276" fill="#1C1C1B"/>
<path d="M28.4062 25.7448C26.7135 28.2343 28.151 31.5104 29.8958 33.1718C31.4895 34.6823 32.7655 35.0364 32.9322 35.0781L33.7447 33.5208L36.0885 39.9323L29.4635 41.2812L30.3437 39.6458L29.4478 39.1458C26.6562 37.3281 26.0676 34.8593 25.8749 34.0885C25.5416 32.7604 25.0468 28.7864 28.4062 25.7448Z" fill="#629D5E"/>
<path d="M28.375 25.8489C29.5781 28.6093 33.1146 29.1406 35.4479 28.552C37.5208 28.026 38.5052 27.1718 38.6719 27.0156L38.6615 27L37.776 25.4635L44.4427 26.9218L42.0313 33.2395L41.1354 31.6458L40.2656 32.1198C37.2396 33.5104 34.8333 32.6927 34.0781 32.4427C32.7813 32.0156 29.1562 30.3125 28.375 25.8489Z" fill="#629D5E"/>
<path d="M40.1613 19.1927C39.6978 22.4895 37.7134 24.0729 37.0936 24.5729C36.0311 25.4375 32.6457 27.5677 28.4634 25.8177C31.4373 26.2916 33.7967 23.6041 34.5571 21.3177C35.2446 19.2656 35.0415 17.9687 34.9998 17.7708L34.979 17.7656L33.2134 17.6927L38.0259 12.8541L42.0519 18.2864L40.2342 18.1823" fill="#629D5E"/>
<path fill-rule="evenodd" clip-rule="evenodd" d="M19.9375 16.4115C18.4167 16.4115 17.1875 15.1823 17.1875 13.6563C17.1875 12.1354 18.4167 10.9062 19.9375 10.9062C21.4583 10.9062 22.6927 12.1354 22.6927 13.6563C22.6927 15.1823 21.4583 16.4115 19.9375 16.4115Z" fill="#629D5E"/>
<path d="M15.6771 29.7968C15.9115 29.151 16.2604 29.1927 16.2604 29.1927C16.2604 29.1927 16.5781 29.125 16.7552 29.7708L19.3281 38.8073C17.1823 38.1823 15.224 37.1198 13.5573 35.7083L15.6771 29.7968ZM23.7031 5.66663C13.7604 5.66663 5.67188 13.7552 5.67188 23.6979C5.67188 33.6406 13.7604 41.7291 23.7031 41.7291C24.2344 41.7291 24.7552 41.6979 25.276 41.651L25.3958 43.4635L28.6979 40.2708L25.0052 37.4531L25.1458 39.3541C24.6719 39.401 24.1875 39.4323 23.7031 39.4323C22.9375 39.4323 22.1875 39.375 21.4531 39.2656L21.3802 38.7864L19.6667 24.1875C19.4323 21.4323 21.0052 20.9948 21.9792 21.4062L27.4479 23.6041C28.0729 23.875 28.375 23.3489 28.375 23.3489C28.375 23.3489 28.7292 22.802 28.0938 22.3958C28.0938 22.3958 20.6406 17.4583 19.0521 17.1562C16.8854 16.7552 14.7396 18.5104 14.2656 20.7968L11.6198 33.7604C9.34375 31.0312 7.96875 27.5208 7.96875 23.6979C7.96875 15.0208 15.026 7.9635 23.7031 7.9635C28.3385 7.9635 32.5104 9.97913 35.3906 13.177L37.0052 11.5364C33.7083 7.93225 28.9635 5.66663 23.7031 5.66663Z" fill="#629D5E"/>
<path d="M131.328 25.728H132C132.416 25.728 132.752 25.636 133.008 25.452C133.264 25.268 133.392 24.928 133.392 24.432C133.392 24.184 133.356 23.98 133.284 23.82C133.22 23.652 133.128 23.52 133.008 23.424C132.896 23.32 132.76 23.248 132.6 23.208C132.44 23.168 132.264 23.148 132.072 23.148H131.328V25.728ZM131.328 21.948H131.82C132.3 21.948 132.648 21.864 132.864 21.696C133.088 21.52 133.2 21.228 133.2 20.82C133.2 20.412 133.1 20.124 132.9 19.956C132.7 19.788 132.384 19.704 131.952 19.704H131.328V21.948ZM129.6 18.432H132.492C132.844 18.432 133.168 18.468 133.464 18.54C133.768 18.612 134.028 18.732 134.244 18.9C134.46 19.068 134.628 19.292 134.748 19.572C134.868 19.852 134.928 20.196 134.928 20.604C134.928 21.068 134.82 21.468 134.604 21.804C134.388 22.132 134.064 22.356 133.632 22.476V22.5C134.112 22.564 134.492 22.768 134.772 23.112C135.052 23.456 135.192 23.916 135.192 24.492C135.192 24.828 135.148 25.148 135.06 25.452C134.972 25.756 134.82 26.024 134.604 26.256C134.396 26.48 134.12 26.66 133.776 26.796C133.44 26.932 133.02 27 132.516 27H129.6V18.432ZM137.816 22.716C137.816 23.292 137.828 23.784 137.852 24.192C137.884 24.592 137.94 24.92 138.02 25.176C138.108 25.424 138.228 25.608 138.38 25.728C138.54 25.84 138.748 25.896 139.004 25.896C139.26 25.896 139.464 25.84 139.616 25.728C139.776 25.608 139.896 25.424 139.976 25.176C140.064 24.92 140.12 24.592 140.144 24.192C140.176 23.784 140.192 23.292 140.192 22.716C140.192 22.14 140.176 21.652 140.144 21.252C140.12 20.852 140.064 20.524 139.976 20.268C139.896 20.012 139.776 19.828 139.616 19.716C139.464 19.596 139.26 19.536 139.004 19.536C138.748 19.536 138.54 19.596 138.38 19.716C138.228 19.828 138.108 20.012 138.02 20.268C137.94 20.524 137.884 20.852 137.852 21.252C137.828 21.652 137.816 22.14 137.816 22.716ZM136.088 22.716C136.088 22.068 136.116 21.472 136.172 20.928C136.236 20.376 136.368 19.904 136.568 19.512C136.776 19.12 137.072 18.816 137.456 18.6C137.84 18.376 138.356 18.264 139.004 18.264C139.652 18.264 140.168 18.376 140.552 18.6C140.936 18.816 141.228 19.12 141.428 19.512C141.636 19.904 141.768 20.376 141.824 20.928C141.888 21.472 141.92 22.068 141.92 22.716C141.92 23.372 141.888 23.972 141.824 24.516C141.768 25.06 141.636 25.528 141.428 25.92C141.228 26.312 140.936 26.612 140.552 26.82C140.168 27.028 139.652 27.132 139.004 27.132C138.356 27.132 137.84 27.028 137.456 26.82C137.072 26.612 136.776 26.312 136.568 25.92C136.368 25.528 136.236 25.06 136.172 24.516C136.116 23.972 136.088 23.372 136.088 22.716ZM143.02 27V18.432H144.748V27H143.02ZM147.422 24.324V24.576C147.422 24.776 147.438 24.96 147.47 25.128C147.502 25.288 147.562 25.424 147.65 25.536C147.738 25.648 147.854 25.736 147.998 25.8C148.15 25.864 148.338 25.896 148.562 25.896C148.826 25.896 149.062 25.812 149.27 25.644C149.486 25.468 149.594 25.2 149.594 24.84C149.594 24.648 149.566 24.484 149.51 24.348C149.462 24.204 149.378 24.076 149.258 23.964C149.138 23.852 148.978 23.752 148.778 23.664C148.586 23.568 148.346 23.472 148.058 23.376C147.674 23.248 147.342 23.108 147.062 22.956C146.782 22.804 146.546 22.628 146.354 22.428C146.17 22.22 146.034 21.984 145.946 21.72C145.858 21.448 145.814 21.136 145.814 20.784C145.814 19.936 146.05 19.304 146.522 18.888C146.994 18.472 147.642 18.264 148.466 18.264C148.85 18.264 149.202 18.308 149.522 18.396C149.85 18.476 150.13 18.612 150.362 18.804C150.602 18.988 150.786 19.228 150.914 19.524C151.05 19.812 151.118 20.16 151.118 20.568V20.808H149.462C149.462 20.4 149.39 20.088 149.246 19.872C149.102 19.648 148.862 19.536 148.526 19.536C148.334 19.536 148.174 19.564 148.046 19.62C147.918 19.676 147.814 19.752 147.734 19.848C147.662 19.936 147.61 20.04 147.578 20.16C147.554 20.28 147.542 20.404 147.542 20.532C147.542 20.796 147.598 21.02 147.71 21.204C147.822 21.38 148.062 21.544 148.43 21.696L149.762 22.272C150.09 22.416 150.358 22.568 150.566 22.728C150.774 22.88 150.938 23.048 151.058 23.232C151.186 23.408 151.274 23.604 151.322 23.82C151.37 24.036 151.394 24.276 151.394 24.54C151.394 25.444 151.13 26.104 150.602 26.52C150.082 26.928 149.354 27.132 148.418 27.132C147.442 27.132 146.742 26.92 146.318 26.496C145.902 26.072 145.694 25.464 145.694 24.672V24.324H147.422ZM156.947 25.728H157.715C158.019 25.728 158.263 25.676 158.447 25.572C158.631 25.468 158.775 25.296 158.879 25.056C158.991 24.816 159.063 24.5 159.095 24.108C159.135 23.716 159.155 23.228 159.155 22.644C159.155 22.156 159.139 21.728 159.107 21.36C159.075 20.992 159.007 20.688 158.903 20.448C158.807 20.2 158.659 20.016 158.459 19.896C158.267 19.768 158.007 19.704 157.679 19.704H156.947V25.728ZM155.219 18.432H158.051C158.651 18.432 159.135 18.532 159.503 18.732C159.871 18.924 160.155 19.204 160.355 19.572C160.563 19.932 160.703 20.368 160.775 20.88C160.847 21.392 160.883 21.964 160.883 22.596C160.883 23.348 160.835 24.004 160.739 24.564C160.651 25.116 160.495 25.572 160.271 25.932C160.047 26.292 159.747 26.56 159.371 26.736C158.995 26.912 158.519 27 157.943 27H155.219V18.432ZM166.814 18.432V19.848H163.754V21.864H166.634V23.28H163.754V25.584H166.934V27H162.026V18.432H166.814ZM133.26 36.324C133.26 35.7 133.184 35.248 133.032 34.968C132.888 34.68 132.62 34.536 132.228 34.536C132.012 34.536 131.832 34.596 131.688 34.716C131.552 34.828 131.444 35.016 131.364 35.28C131.284 35.536 131.228 35.876 131.196 36.3C131.164 36.716 131.148 37.228 131.148 37.836C131.148 38.484 131.168 39.008 131.208 39.408C131.256 39.808 131.324 40.12 131.412 40.344C131.508 40.56 131.624 40.708 131.76 40.788C131.904 40.86 132.068 40.896 132.252 40.896C132.404 40.896 132.544 40.872 132.672 40.824C132.808 40.768 132.924 40.664 133.02 40.512C133.116 40.352 133.192 40.132 133.248 39.852C133.304 39.564 133.332 39.188 133.332 38.724H135.06C135.06 39.188 135.024 39.628 134.952 40.044C134.88 40.46 134.744 40.824 134.544 41.136C134.352 41.448 134.076 41.692 133.716 41.868C133.364 42.044 132.904 42.132 132.336 42.132C131.688 42.132 131.172 42.028 130.788 41.82C130.404 41.612 130.108 41.312 129.9 40.92C129.7 40.528 129.568 40.06 129.504 39.516C129.448 38.972 129.42 38.372 129.42 37.716C129.42 37.068 129.448 36.472 129.504 35.928C129.568 35.376 129.7 34.904 129.9 34.512C130.108 34.12 130.404 33.816 130.788 33.6C131.172 33.376 131.688 33.264 132.336 33.264C132.952 33.264 133.436 33.364 133.788 33.564C134.148 33.764 134.416 34.02 134.592 34.332C134.768 34.636 134.876 34.968 134.916 35.328C134.964 35.68 134.988 36.012 134.988 36.324H133.26ZM136.045 33.432H137.773V36.708H139.789V33.432H141.517V42H139.789V38.196H137.773V42H136.045V33.432ZM146.289 38.772L145.461 34.92H145.437L144.609 38.772H146.289ZM146.517 33.432L148.785 42H146.985L146.589 40.188H144.309L143.913 42H142.113L144.381 33.432H146.517ZM151.001 33.432V39.408C151.001 39.624 151.013 39.824 151.037 40.008C151.069 40.184 151.121 40.34 151.193 40.476C151.273 40.604 151.377 40.708 151.505 40.788C151.641 40.86 151.809 40.896 152.009 40.896C152.217 40.896 152.385 40.86 152.513 40.788C152.641 40.708 152.741 40.604 152.813 40.476C152.893 40.34 152.945 40.184 152.969 40.008C153.001 39.824 153.017 39.624 153.017 39.408V33.432H154.745V39.408C154.745 39.952 154.669 40.404 154.517 40.764C154.365 41.116 154.161 41.396 153.905 41.604C153.649 41.812 153.357 41.952 153.029 42.024C152.701 42.096 152.361 42.132 152.009 42.132C151.657 42.132 151.317 42.1 150.989 42.036C150.661 41.972 150.369 41.844 150.113 41.652C149.857 41.452 149.653 41.172 149.501 40.812C149.349 40.452 149.273 39.984 149.273 39.408V33.432H151.001ZM155.838 33.432H160.626V34.848H157.566V36.864H160.446V38.28H157.566V42H155.838V33.432ZM161.393 33.432H166.181V34.848H163.121V36.864H166.001V38.28H163.121V42H161.393V33.432ZM169.879 38.772L169.051 34.92H169.027L168.199 38.772H169.879ZM170.107 33.432L172.375 42H170.575L170.179 40.188H167.899L167.503 42H165.703L167.971 33.432H170.107ZM176.775 35.976C176.775 35.816 176.755 35.652 176.715 35.484C176.683 35.316 176.627 35.164 176.547 35.028C176.467 34.884 176.363 34.768 176.235 34.68C176.115 34.584 175.967 34.536 175.791 34.536C175.375 34.536 175.075 34.768 174.891 35.232C174.707 35.696 174.615 36.464 174.615 37.536C174.615 38.048 174.631 38.512 174.663 38.928C174.695 39.344 174.751 39.7 174.831 39.996C174.919 40.284 175.039 40.508 175.191 40.668C175.351 40.82 175.555 40.896 175.803 40.896C175.907 40.896 176.019 40.868 176.139 40.812C176.267 40.756 176.383 40.672 176.487 40.56C176.599 40.448 176.691 40.308 176.763 40.14C176.835 39.964 176.871 39.76 176.871 39.528V38.652H175.731V37.38H178.527V42H177.255V41.208H177.231C177.023 41.544 176.771 41.784 176.475 41.928C176.187 42.064 175.839 42.132 175.431 42.132C174.903 42.132 174.471 42.04 174.135 41.856C173.807 41.672 173.547 41.388 173.355 41.004C173.171 40.62 173.047 40.148 172.983 39.588C172.919 39.02 172.887 38.364 172.887 37.62C172.887 36.9 172.931 36.268 173.019 35.724C173.115 35.18 173.275 34.728 173.499 34.368C173.723 34 174.019 33.724 174.387 33.54C174.755 33.356 175.215 33.264 175.767 33.264C176.711 33.264 177.391 33.5 177.807 33.972C178.223 34.436 178.431 35.104 178.431 35.976H176.775ZM184.427 33.432V34.848H181.367V36.864H184.247V38.28H181.367V40.584H184.547V42H179.639V33.432H184.427Z" fill="black"/>
<path d="M222.337 36.8405L216.602 36.8342C216.276 36.8342 216.006 36.5707 216.006 36.2444L216 30.5407C216 30.3023 216.144 30.0827 216.37 29.9948C216.59 29.9007 216.847 29.9509 217.016 30.1203L218.14 31.2372L227.803 21.6181C228.035 21.3923 228.411 21.3923 228.643 21.6181L231.304 24.2661C231.417 24.379 231.48 24.5233 231.48 24.6865C231.48 24.8433 231.417 24.9939 231.304 25.1069L221.641 34.7134L222.758 35.8303C222.927 35.9997 222.977 36.257 222.883 36.4766C222.795 36.6962 222.576 36.8405 222.337 36.8405ZM217.198 35.6483L220.894 35.6546L220.373 35.1338C220.141 34.9016 220.141 34.5252 220.373 34.293L230.036 24.6865L228.223 22.8794L218.56 32.4922C218.328 32.7243 217.951 32.7243 217.719 32.4922L217.192 31.9776" fill="black"/>
<path d="M234.473 28.2442C234.015 28.2442 233.575 28.0685 233.237 27.7548C232.885 27.4285 232.684 26.983 232.666 26.4998L232.578 23.7704L233.77 23.7327L233.858 26.4622C233.864 26.6253 233.933 26.7759 234.052 26.8889C234.171 27.0018 234.341 27.0457 234.498 27.0583C234.661 27.052 234.811 26.983 234.924 26.8638C235.037 26.7446 235.094 26.5877 235.088 26.4245L234.956 22.7852L236.148 22.7476L236.28 26.3806C236.299 26.8638 236.129 27.3218 235.797 27.6732C235.464 28.0246 235.019 28.2254 234.535 28.2379C234.51 28.2442 234.491 28.2442 234.473 28.2442Z" fill="black"/>
<path d="M234.473 28.2442C234.015 28.2442 233.575 28.0685 233.237 27.7548C232.885 27.4285 232.684 26.983 232.666 26.4998L232.578 23.7704L233.77 23.7327L233.858 26.4622C233.864 26.6253 233.933 26.7759 234.052 26.8889C234.171 27.0018 234.341 27.0457 234.498 27.0583C234.661 27.052 234.811 26.983 234.924 26.8638C235.037 26.7446 235.094 26.5877 235.088 26.4245L234.956 22.7852L236.148 22.7476L236.28 26.3806C236.299 26.8638 236.129 27.3218 235.797 27.6732C235.464 28.0246 235.019 28.2254 234.535 28.2379C234.51 28.2442 234.491 28.2442 234.473 28.2442Z" fill="black"/>
<path d="M232.063 28.6521C231.599 28.6521 231.166 28.4827 230.827 28.1689C230.476 27.8364 230.269 27.3909 230.256 26.9077L230.168 24.1782L231.36 24.1406L231.448 26.8701C231.455 27.0395 231.524 27.1901 231.643 27.303C231.762 27.416 231.919 27.485 232.082 27.4662C232.421 27.4536 232.691 27.1712 232.678 26.8324L232.546 23.1994L233.739 23.1555L233.87 26.7885C233.908 27.7862 233.124 28.6144 232.126 28.6521C232.101 28.6521 232.082 28.6521 232.063 28.6521Z" fill="black"/>
<path d="M234.115 36.853C233.87 36.853 233.651 36.7024 233.563 36.4828C233.469 36.2632 233.519 36.0059 233.688 35.8365L234.811 34.7196L225.148 25.1068C224.916 24.881 224.916 24.5045 225.148 24.2723L227.803 21.6244C228.022 21.4048 228.424 21.4048 228.643 21.6244L238.733 31.6576L237.886 32.4984L228.223 22.8856L226.41 24.6927L236.073 34.2992C236.311 34.5314 236.311 34.9142 236.073 35.14L235.552 35.6608H239.248L239.254 30.547H240.446L240.44 36.2507C240.44 36.5769 240.176 36.8405 239.844 36.8405L234.115 36.853Z" fill="black"/>
<path d="M228.198 41.3646C228.041 41.3646 227.891 41.3081 227.771 41.1889L223.718 37.1668C223.548 36.9974 223.498 36.7401 223.586 36.5205C223.68 36.2946 223.9 36.1503 224.138 36.1503H225.726V25.1069C225.726 24.7806 225.989 24.5108 226.322 24.5108H230.08C230.407 24.5108 230.677 24.7806 230.677 25.1069V36.7464H229.484V25.703H226.918V36.7464C226.918 37.0727 226.648 37.3362 226.322 37.3362H225.581L228.198 39.934L231.831 36.326L232.678 37.1668L228.618 41.1889C228.499 41.3081 228.349 41.3646 228.198 41.3646Z" fill="black"/>
<path d="M222.331 36.8405L216.602 36.8342C216.276 36.8342 216.006 36.5707 216.006 36.2444L216 30.5407C216 30.3023 216.144 30.0827 216.37 29.9948C216.59 29.9007 216.847 29.9509 217.016 30.1203L218.14 31.2372L227.803 21.6181C228.035 21.3923 228.411 21.3923 228.643 21.6181L231.304 24.2661C231.417 24.379 231.48 24.5233 231.48 24.6865C231.48 24.8433 231.417 24.9939 231.304 25.1069L221.214 35.1338L220.373 34.293L230.036 24.6865L228.223 22.8794L218.56 32.4922C218.328 32.7243 217.951 32.7243 217.719 32.4922L217.192 31.9776L217.198 35.6483L222.337 35.6546" fill="black"/>
<path d="M241.927 19.8236C241.494 19.8236 241.086 19.6542 240.779 19.353L235.182 13.7811C234.874 13.4799 234.705 13.0721 234.705 12.6454C234.705 12.2124 234.874 11.8109 235.175 11.5034L236.631 10.0539C237.246 9.45158 238.313 9.45158 238.928 10.0539L244.525 15.6259C245.158 16.2533 245.158 17.2761 244.525 17.9036L243.069 19.353C242.762 19.6542 242.36 19.8236 241.927 19.8236ZM237.779 10.7693C237.666 10.7693 237.56 10.8195 237.478 10.8948V10.901L236.023 12.3442C235.941 12.4258 235.897 12.5324 235.897 12.6454C235.897 12.7583 235.941 12.865 236.023 12.9403L241.62 18.5122C241.783 18.6754 242.065 18.6691 242.228 18.5122L243.684 17.069C243.847 16.8996 243.847 16.6298 243.678 16.4667L238.081 10.901C237.999 10.8195 237.892 10.7693 237.779 10.7693Z" fill="black"/>
<path d="M236 29.5L231.5 25.5L230.5 26.5L230 28.5L233 32.5L236 29.5Z" fill="#629D5E"/>
<path d="M234.115 36.853C233.87 36.853 233.651 36.7024 233.563 36.4828C233.469 36.2632 233.519 36.0059 233.688 35.8365L234.811 34.7196L225.148 25.1068C224.916 24.881 224.916 24.5045 225.148 24.2723L227.803 21.6244C228.022 21.4048 228.424 21.4048 228.643 21.6244L238.313 31.2435L239.43 30.1266C239.599 29.9572 239.856 29.907 240.082 30.0011C240.302 30.0889 240.446 30.3085 240.446 30.547L240.44 36.2507C240.44 36.5769 240.176 36.8405 239.844 36.8405L234.115 36.853ZM226.41 24.6927L236.073 34.2992C236.311 34.5314 236.311 34.9142 236.073 35.14L235.552 35.6608H239.248L239.254 31.9839L238.733 32.4984C238.501 32.7306 238.125 32.7306 237.886 32.4984L228.223 22.8856" fill="black"/>
<path d="M224.5 37H226.5V25.5H230L230.5 37H231.5L228 41L224.5 37Z" fill="#629D5E"/>
<path d="M228.198 41.3646C228.041 41.3646 227.891 41.3081 227.778 41.1889L223.718 37.1668C223.548 36.9974 223.498 36.7401 223.586 36.5205C223.68 36.2946 223.9 36.1503 224.138 36.1503H225.726V25.1069C225.726 24.7806 225.989 24.5108 226.322 24.5108H230.08C230.407 24.5108 230.677 24.7806 230.677 25.1069V36.1503H232.251C232.496 36.1503 232.716 36.2946 232.804 36.5205C232.898 36.7401 232.848 36.9974 232.678 37.1668L228.618 41.1889C228.499 41.3081 228.349 41.3646 228.198 41.3646ZM225.581 37.3362L228.198 39.934L230.815 37.3362H230.08C229.748 37.3362 229.484 37.0727 229.484 36.7464V25.703H226.918V36.7464C226.918 37.0727 226.648 37.3362 226.322 37.3362" fill="black"/>
<path d="M230.501 22.0825L227.803 25.6841C227.345 26.2928 227.47 27.1587 228.085 27.6105C228.694 28.0685 229.566 27.943 230.024 27.3344L231.706 25.088C232.377 24.2096 233.13 23.8833 233.494 23.7892C234.303 23.5758 236.738 22.666 238.043 21.8817C239.342 21.0911 240.013 19.2589 239.944 17.6839L236.06 13.8187L227.815 16.3788C226.811 16.7176 226.447 17.2886 226.297 17.6275C226.146 17.9726 224.502 21.8378 224.502 21.8378C224.314 22.3209 224.207 22.8982 224.483 23.3876C224.759 23.877 225.387 24.8559 225.387 24.8559L227.2 23.0488C227.2 23.0488 227.131 22.0511 227.363 21.5366C227.602 21.0283 227.853 20.1812 228.392 19.9867C228.926 19.7985 229.861 19.4973 229.861 19.4973C229.861 19.4973 229.779 20.564 229.967 21.135C230.162 21.706 230.457 22.0448 230.457 22.0448" fill="#629D5E"/>
<path d="M228.913 28.4826C228.487 28.4826 228.072 28.3446 227.727 28.0873C227.301 27.7736 227.025 27.3093 226.949 26.7885C226.88 26.2677 227.012 25.7469 227.332 25.3265L229.76 22.0825C229.641 21.8879 229.509 21.637 229.403 21.3232C229.309 21.0283 229.265 20.6581 229.252 20.3255C229.02 20.4008 228.781 20.4824 228.593 20.5452C228.399 20.6142 228.167 21.1726 228.041 21.4675L227.909 21.7875C227.79 22.0385 227.771 22.6535 227.796 23.0111C227.809 23.1805 227.746 23.3499 227.627 23.4692L225.807 25.2763C225.682 25.4018 225.5 25.4645 225.324 25.4457C225.142 25.4269 224.985 25.3265 224.885 25.1759C224.885 25.1759 224.245 24.1782 223.963 23.6825C223.643 23.1115 223.636 22.415 223.95 21.6181C223.956 21.6056 225.6 17.7341 225.751 17.3953C226.071 16.6674 226.717 16.1215 227.621 15.8141L235.878 13.254C236.091 13.185 236.324 13.2414 236.481 13.3983L240.371 17.2698C240.477 17.3765 240.534 17.5145 240.54 17.6651C240.609 19.2651 239.95 21.4236 238.35 22.3836C236.995 23.2056 234.535 24.128 233.644 24.3664C233.513 24.3978 232.822 24.6112 232.182 25.4457L230.501 27.692C230.181 28.1124 229.723 28.3885 229.196 28.4638C229.102 28.4764 229.007 28.4826 228.913 28.4826ZM229.867 18.9075C229.999 18.9075 230.131 18.9514 230.231 19.033C230.388 19.1585 230.476 19.3467 230.457 19.5475C230.432 19.9114 230.425 20.6142 230.538 20.9467C230.683 21.3922 230.909 21.6621 230.915 21.6621C231.147 21.8628 231.166 22.1891 230.978 22.4401L228.286 26.0355C228.154 26.2049 228.104 26.412 228.135 26.619C228.16 26.8261 228.273 27.0144 228.443 27.1336C228.612 27.2653 228.819 27.3093 229.026 27.2904C229.233 27.2591 229.422 27.1461 229.547 26.983L231.229 24.7304C232.088 23.6135 233.061 23.2872 233.343 23.2182C234.058 23.0299 236.468 22.1389 237.729 21.3734C238.802 20.7271 239.342 19.2024 239.354 17.9349L235.891 14.4964L227.991 16.9435C227.42 17.138 227.025 17.4517 226.843 17.8659C226.692 18.211 225.054 22.0699 225.054 22.0699C224.885 22.5029 224.866 22.8542 225.004 23.0927C225.123 23.3123 225.318 23.626 225.494 23.9084L226.598 22.8166C226.592 22.4276 226.61 21.7562 226.824 21.2918L226.943 21.0158C227.175 20.451 227.501 19.673 228.192 19.4283C228.731 19.24 229.679 18.9326 229.679 18.9326C229.742 18.9137 229.804 18.9075 229.867 18.9075Z" fill="black"/>
<path d="M214.369 44.7H215.881C216.373 44.7 216.742 44.832 216.988 45.096C217.234 45.36 217.357 45.747 217.357 46.257V49.443C217.357 49.953 217.234 50.34 216.988 50.604C216.742 50.868 216.373 51 215.881 51H214.369V44.7ZM215.863 50.1C216.025 50.1 216.148 50.052 216.232 49.956C216.322 49.86 216.367 49.704 216.367 49.488V46.212C216.367 45.996 216.322 45.84 216.232 45.744C216.148 45.648 216.025 45.6 215.863 45.6H215.359V50.1H215.863ZM218.025 44.7H220.725V45.6H219.015V47.265H220.374V48.165H219.015V50.1H220.725V51H218.025V44.7ZM219.465 43.242H220.545L219.582 44.277H218.835L219.465 43.242ZM222.69 51.09C222.216 51.09 221.853 50.955 221.601 50.685C221.355 50.415 221.232 50.034 221.232 49.542V46.158C221.232 45.666 221.355 45.285 221.601 45.015C221.853 44.745 222.216 44.61 222.69 44.61C223.164 44.61 223.524 44.745 223.77 45.015C224.022 45.285 224.148 45.666 224.148 46.158V46.824H223.212V46.095C223.212 45.705 223.047 45.51 222.717 45.51C222.387 45.51 222.222 45.705 222.222 46.095V49.614C222.222 49.998 222.387 50.19 222.717 50.19C223.047 50.19 223.212 49.998 223.212 49.614V48.651H224.148V49.542C224.148 50.034 224.022 50.415 223.77 50.685C223.524 50.955 223.164 51.09 222.69 51.09ZM224.74 44.7H225.73V47.265H226.792V44.7H227.782V51H226.792V48.165H225.73V51H224.74V44.7ZM228.519 44.7H231.219V45.6H229.509V47.265H230.868V48.165H229.509V50.1H231.219V51H228.519V44.7ZM228.699 43.242H229.779L230.409 44.277H229.662L228.699 43.242ZM232.563 45.6H231.528V44.7H234.588V45.6H233.553V51H232.563V45.6ZM235.067 44.7H237.767V45.6H236.057V47.265H237.416V48.165H236.057V50.1H237.767V51H235.067V44.7ZM238.337 44.7H239.804C240.314 44.7 240.686 44.82 240.92 45.06C241.154 45.294 241.271 45.657 241.271 46.149V46.536C241.271 47.19 241.055 47.604 240.623 47.778V47.796C240.863 47.868 241.031 48.015 241.127 48.237C241.229 48.459 241.28 48.756 241.28 49.128V50.235C241.28 50.415 241.286 50.562 241.298 50.676C241.31 50.784 241.34 50.892 241.388 51H240.38C240.344 50.898 240.32 50.802 240.308 50.712C240.296 50.622 240.29 50.46 240.29 50.226V49.074C240.29 48.786 240.242 48.585 240.146 48.471C240.056 48.357 239.897 48.3 239.669 48.3H239.327V51H238.337V44.7ZM239.687 47.4C239.885 47.4 240.032 47.349 240.128 47.247C240.23 47.145 240.281 46.974 240.281 46.734V46.248C240.281 46.02 240.239 45.855 240.155 45.753C240.077 45.651 239.951 45.6 239.777 45.6H239.327V47.4H239.687ZM241.967 44.7H242.957V51H241.967V44.7ZM243.698 44.7H246.398V45.6H244.688V47.265H246.047V48.165H244.688V50.1H246.398V51H243.698V44.7Z" fill="black"/>
</svg>
