<svg width="227" height="73" viewBox="0 0 227 73" fill="none" xmlns="http://www.w3.org/2000/svg">
<g clip-path="url(#clip0_19_76)">
<path d="M24.8542 72.1249C11.2344 72.1249 0.15625 61.177 0.15625 47.7187V0.317627H201.323C214.938 0.317627 226.016 11.2655 226.016 24.7239L226.021 72.1249" fill="white"/>
<path d="M24.8542 60.7916C11.2344 60.7916 0.15625 49.8385 0.15625 36.3801V0.317627H201.323C214.938 0.317627 226.016 11.2655 226.016 24.7239L226.021 60.7916" fill="white"/>
<path d="M201.323 5.98438H50.2708V36.3802C50.2708 46.7135 58.802 55.1198 69.2916 55.1198H220.349V24.724C220.349 14.3958 211.812 5.98438 201.323 5.98438Z" fill="white"/>
<path d="M218.458 53.2292H69.2916C59.8437 53.2292 52.1562 45.6719 52.1562 36.3802V7.875H201.323C210.771 7.875 218.458 15.4323 218.458 24.724V53.2292ZM201.323 5.98438H50.2708V36.3802C50.2708 46.7135 58.802 55.1198 69.2916 55.1198H220.349V24.724C220.349 14.3958 211.812 5.98438 201.323 5.98438Z" fill="#FCC42F"/>
<path d="M163.089 55.1198L176.099 28.5417L162.807 5.98438H201.323C211.812 5.98438 220.349 14.3906 220.349 24.724V55.1198" fill="#FCC42F"/>
<path d="M201.323 7.875H166.115L178.245 28.4583L166.12 53.2292H218.458V24.724C218.458 15.4323 210.771 7.875 201.323 7.875Z" fill="#FCC42F"/>
<path d="M206.281 41.6615H205.078C204.979 41.6615 204.885 41.6719 204.792 41.6875C205.354 35.4323 206.224 25.7708 206.646 21.3958C206.687 20.9531 206.359 20.5573 205.917 20.5156C205.464 20.4635 205.073 20.7969 205.031 21.2448C204.385 27.9635 202.677 47.1458 202.661 47.3385C202.63 47.6615 202.312 47.9271 201.943 47.9271H188.854C188.479 47.9271 188.167 47.6615 188.135 47.3385C188.12 47.1458 186.411 27.9635 185.766 21.2448C185.724 20.7969 185.333 20.4635 184.88 20.5156C184.437 20.5573 184.109 20.9531 184.151 21.3958C184.573 25.7708 185.443 35.4271 186.005 41.6875C185.911 41.6667 185.812 41.6562 185.719 41.6562H184.516C183.74 41.6562 183.104 42.2917 183.104 43.0677V48.1406C183.104 48.9167 183.74 49.5469 184.516 49.5469H185.719C186.297 49.5469 186.802 49.1927 187.016 48.6823C187.443 49.2135 188.104 49.5469 188.854 49.5469H201.943C202.687 49.5469 203.349 49.2135 203.781 48.6875C203.995 49.1927 204.495 49.5521 205.078 49.5521H206.281C207.057 49.5521 207.687 48.9219 207.687 48.1406V43.0677C207.687 42.2917 207.057 41.6615 206.281 41.6615Z" fill="#1C1C1B"/>
<path d="M190.344 25.1198V27.4115H191.016C191.411 27.4115 191.625 27.2292 191.625 26.6771V26.026C191.625 25.3333 191.401 25.1198 190.865 25.1198H190.344ZM190.344 22.0833V24.0521H190.802C191.24 24.0521 191.505 23.8646 191.505 23.2656V22.849C191.505 22.3125 191.323 22.0833 190.906 22.0833H190.344ZM192.677 22.7344V23C192.677 23.7656 192.443 24.2448 191.922 24.4896V24.5104C192.547 24.7604 192.797 25.3125 192.797 26.099V26.7083C192.797 27.8594 192.187 28.4792 191.016 28.4792H189.172V21.0156H190.938C192.156 21.0156 192.677 21.5833 192.677 22.7344Z" fill="#1C1C1B"/>
<path d="M194.833 26.1146H195.964L195.411 22.3385H195.385L194.833 26.1146ZM197.51 28.4792H196.328L196.125 27.125H194.688L194.479 28.4792H193.406L194.599 21.0156H196.313" fill="#1C1C1B"/>
<path d="M201.661 25.6926V26.6874C201.661 27.8801 201.062 28.5624 199.911 28.5624C198.76 28.5624 198.161 27.8801 198.161 26.6874V22.8072C198.161 21.6093 198.76 20.927 199.911 20.927C201.062 20.927 201.661 21.6093 201.661 22.8072V23.5312H200.552V22.7291C200.552 22.1978 200.318 21.9947 199.943 21.9947C199.573 21.9947 199.338 22.1978 199.338 22.7291V26.7603C199.338 27.2916 199.573 27.4843 199.943 27.4843C200.318 27.4843 200.552 27.2916 200.552 26.7603V25.6926" fill="#1C1C1B"/>
<path d="M192.703 31.2083V36.5365H193.365C193.734 36.5365 193.958 36.3438 193.958 35.8125V31.9323C193.958 31.401 193.734 31.2083 193.365 31.2083H192.703ZM191.531 30.1406H193.385C194.557 30.1406 195.13 30.7917 195.13 31.9844V35.7604C195.13 36.9531 194.557 37.6042 193.385 37.6042H191.531" fill="#1C1C1B"/>
<path d="M197.266 33.2865H198.875V34.349H197.266V36.5365H199.292V37.6042H196.094V30.1406H199.292V31.2031H197.266" fill="#1C1C1B"/>
<path d="M190.161 39.2656H193.786V40.3281H192.562V46.7292H191.385V40.3281H190.161" fill="#1C1C1B"/>
<path d="M195.688 40.3281V42.625H196.146C196.583 42.625 196.849 42.4323 196.849 41.8333V41.099C196.849 40.5677 196.667 40.3281 196.25 40.3281H195.688ZM196.969 46.7292C196.901 46.5365 196.859 46.4167 196.859 45.8125V44.6354C196.859 43.9479 196.625 43.6875 196.094 43.6875H195.688V46.7292H194.516V39.2656H196.286C197.5 39.2656 198.021 39.8281 198.021 40.9792V41.5677C198.021 42.3333 197.776 42.8229 197.255 43.0729V43.0938C197.839 43.3385 198.031 43.8906 198.031 44.6719V45.8229C198.031 46.1823 198.042 46.4531 198.161 46.7292" fill="#1C1C1B"/>
<path d="M199.016 46.7292H200.188V39.2656H199.016V46.7292Z" fill="#1C1C1B"/>
<path d="M207.125 17.6197H183.672V15.6666C183.672 15.5989 183.703 15.5676 183.698 15.5676H185.396C185.589 15.5676 185.771 15.4999 185.917 15.3697L188.047 13.5103C188.141 13.427 188.37 13.3437 188.661 13.3437H202.13C202.422 13.3437 202.656 13.427 202.75 13.5103L204.88 15.3697C205.026 15.4999 205.208 15.5676 205.401 15.5676H207.099C207.089 15.5676 207.125 15.5989 207.125 15.6666V17.6197ZM207.099 13.9791H205.698L203.792 12.3176C203.385 11.9583 202.781 11.7551 202.13 11.7551H188.661C188.016 11.7551 187.411 11.9583 187 12.3176L185.094 13.9791H183.698C182.807 13.9791 182.089 14.7395 182.089 15.6666V17.8124C182.089 18.1093 182.161 18.401 182.307 18.6614C182.37 18.7708 182.458 18.8697 182.562 18.9374C182.823 19.1093 183.12 19.1978 183.427 19.1978H207.37C207.677 19.1978 207.974 19.1093 208.234 18.9374C208.339 18.8697 208.427 18.7708 208.49 18.6614C208.63 18.401 208.708 18.1093 208.708 17.8124V15.6666C208.708 14.7395 207.984 13.9791 207.099 13.9791Z" fill="#1C1C1B"/>
<path d="M202.125 14.0781H188.667C188.297 14.0781 187.995 14.3802 187.995 14.75C187.995 15.1198 188.297 15.4219 188.667 15.4219H202.125C202.495 15.4219 202.797 15.1198 202.797 14.75C202.797 14.3802 202.495 14.0781 202.125 14.0781Z" fill="#1C1C1B"/>
<path d="M103.057 5.98438H50.2708V36.3802C50.2708 46.7135 58.802 55.1198 69.2916 55.1198H122.083V24.724C122.083 14.3958 113.547 5.98438 103.057 5.98438Z" fill="#FCC42F"/>
<path d="M63.8072 29.677C59.0051 29.677 55.1145 33.5676 55.1145 38.3697C55.1145 43.1718 59.0051 47.0624 63.8072 47.0624C68.6145 47.0624 72.5051 43.1718 72.5051 38.3697C72.5051 33.5676 68.6145 29.677 63.8072 29.677Z" fill="white"/>
<path d="M69.4792 39.7865H65.2292V44.0417H62.3906V39.7865H58.1406V36.9531H62.3906V32.7031H65.2292V36.9531H69.4792" fill="#1C1C1B"/>
<path d="M55.9426 26.9167V17.5156H58.427V24.8333H61.9843V26.9167" fill="#1C1C1B"/>
<path d="M63.0989 26.9167V17.5156H69.1718V19.599H65.5885V21.0729H68.651V23.1563H65.5885V24.8333H69.3176V26.9167" fill="#1C1C1B"/>
<path d="M75.2448 26.9167V19.599H72.7604V17.5156H80.2239V19.599H77.7343V26.9167" fill="#1C1C1B"/>
<path d="M83.7083 21.7969H84.6042C85.6042 21.7969 86.1094 21.3802 86.1094 20.5521C86.1094 20.1458 85.9792 19.8698 85.724 19.7135C85.4688 19.5573 85.0938 19.4792 84.6042 19.4792H83.7083V21.7969ZM81.2188 26.9167V17.5156H84.776C85.2813 17.5156 85.7604 17.5625 86.2188 17.6563C86.6771 17.7552 87.0729 17.9219 87.4167 18.151C87.7604 18.3802 88.0313 18.6927 88.2344 19.0833C88.4375 19.474 88.5365 19.9635 88.5365 20.5521C88.5365 21.2292 88.401 21.7865 88.125 22.2292C87.8542 22.6719 87.4844 23.0208 87.0208 23.2708L89.0573 26.9167H86.2813L84.6615 23.7604H83.7083V26.9167" fill="#1C1C1B"/>
<path d="M90.026 26.9167H92.5156V17.5156H90.026V26.9167Z" fill="#1C1C1B"/>
<path d="M75.5364 43.5937V34.1926H81.6666V36.276H78.026V38.0676H81.1458V40.151H78.026V43.5937" fill="#1C1C1B"/>
<path d="M85.0781 39.0208L84.9166 39.6718H86.651L86.4948 39.0208C86.3802 38.5676 86.2604 38.078 86.1458 37.5468C86.0312 37.0155 85.9166 36.5155 85.7968 36.0416H85.7395C85.6354 36.526 85.526 37.0312 85.4166 37.552C85.3073 38.078 85.1927 38.5676 85.0781 39.0208ZM81.4635 43.5937L84.3229 34.1926H87.3281L90.1927 43.5937H87.5625L87.0989 41.5989H84.4687L84.0052 43.5937" fill="#1C1C1B"/>
<path d="M94.7187 43.7656C94.1249 43.7656 93.552 43.6667 93.0103 43.4688C92.4635 43.2708 91.9895 42.974 91.578 42.5729C91.1666 42.1719 90.8385 41.6719 90.5989 41.0677C90.3593 40.4688 90.2395 39.7656 90.2395 38.9635C90.2395 38.1771 90.3645 37.474 90.6145 36.8594C90.8645 36.25 91.1978 35.7344 91.6197 35.3125C92.0364 34.8958 92.5208 34.5729 93.0676 34.349C93.6145 34.1302 94.1822 34.0156 94.7812 34.0156C95.4062 34.0156 95.9687 34.1406 96.4583 34.3854C96.953 34.6354 97.3645 34.9271 97.703 35.2604L96.401 36.8542C96.1718 36.651 95.9322 36.4844 95.6874 36.3542C95.4374 36.224 95.1562 36.1563 94.8385 36.1563C94.5572 36.1563 94.2968 36.2188 94.052 36.349C93.8072 36.474 93.5885 36.651 93.401 36.8802C93.2135 37.1146 93.0624 37.401 92.953 37.7344C92.8385 38.0729 92.7864 38.4531 92.7864 38.875C92.7864 39.7656 92.9687 40.4479 93.3437 40.9167C93.7135 41.3906 94.203 41.625 94.8072 41.625C95.177 41.625 95.4999 41.5469 95.7864 41.3854C96.0676 41.2292 96.3124 41.0365 96.5155 40.8177L97.8176 42.375C97.4114 42.8438 96.9478 43.1875 96.4218 43.4167C95.8958 43.651 95.328 43.7656 94.7187 43.7656Z" fill="#1C1C1B"/>
<path d="M98.776 43.5937H101.26V34.1926H98.776V43.5937Z" fill="#1C1C1B"/>
<path d="M103.031 43.5937V34.1926H105.521V41.5103H109.078V43.5937" fill="#1C1C1B"/>
<path d="M110.188 43.5937V34.1926H116.266V36.276H112.677V37.7499H115.745V39.8333H112.677V41.5103H116.411V43.5937" fill="#1C1C1B"/>
<path d="M28.5624 26.0625C26.8697 28.5521 28.3072 31.8281 30.052 33.4896C31.6458 35 32.9218 35.3594 33.0885 35.401L33.901 33.8438L36.2447 40.2552L29.6197 41.599L30.4999 39.9688L29.6041 39.4635C26.8124 37.6458 26.2239 35.1771 26.0312 34.4063C25.6978 33.0781 25.203 29.1094 28.5624 26.0625Z" fill="#1C1C1B"/>
<path d="M28.5312 26.1718C29.7344 28.927 33.2708 29.4635 35.6042 28.8697C37.6771 28.3437 38.6615 27.4895 38.8281 27.3333L38.8177 27.3176L37.9323 25.7864L44.599 27.2395L42.1875 33.5572L41.2917 31.9687L40.4219 32.4374C37.3958 33.828 34.9896 33.0103 34.2344 32.7603C32.9375 32.3333 29.3125 30.6353 28.5312 26.1718Z" fill="#1C1C1B"/>
<path d="M40.3177 19.5156C39.8541 22.8125 37.8698 24.3958 37.25 24.8958C36.1875 25.7552 32.802 27.8854 28.6198 26.1354C31.5937 26.6094 33.9531 23.9271 34.7135 21.6406C35.401 19.5885 35.1979 18.2917 35.1562 18.0885H35.1354L33.3698 18.0104L38.1823 13.1719L42.2083 18.6094L40.3906 18.5052" fill="#1C1C1B"/>
<path fill-rule="evenodd" clip-rule="evenodd" d="M20.0938 16.7291C18.5729 16.7291 17.3438 15.4999 17.3438 13.9791C17.3438 12.4583 18.5729 11.2239 20.0938 11.2239C21.6146 11.2239 22.849 12.4583 22.849 13.9791C22.849 15.4999 21.6146 16.7291 20.0938 16.7291Z" fill="#1C1C1B"/>
<path d="M15.8333 30.1146C16.0677 29.4688 16.4167 29.5104 16.4167 29.5104C16.4167 29.5104 16.7344 29.4427 16.9115 30.0938L19.4844 39.125C17.3385 38.5052 15.3802 37.4375 13.7135 36.0313L15.8333 30.1146ZM23.8594 5.98438C13.9167 5.98438 5.82812 14.0729 5.82812 24.0208C5.82812 33.9583 13.9167 42.0521 23.8594 42.0521C24.3906 42.0521 24.9115 42.0156 25.4323 41.9688L25.5521 43.7813L28.8542 40.5885L25.1615 37.776L25.3021 39.6771C24.8281 39.7188 24.3438 39.75 23.8594 39.75C23.0938 39.75 22.3438 39.6927 21.6094 39.5885L21.5365 39.1094L19.8229 24.5104C19.5885 21.7552 21.1615 21.3125 22.1354 21.7292L27.6042 23.9219C28.2292 24.1927 28.5313 23.6719 28.5313 23.6719C28.5313 23.6719 28.8854 23.1198 28.25 22.7135C28.25 22.7135 20.7969 17.776 19.2083 17.4792C17.0417 17.0729 14.8958 18.8281 14.4219 21.1146L11.776 34.0833C9.5 31.349 8.125 27.8438 8.125 24.0208C8.125 15.3438 15.1823 8.28646 23.8594 8.28646C28.4948 8.28646 32.6667 10.3021 35.5469 13.4948L37.1615 11.8594C33.8646 8.25 29.1198 5.98438 23.8594 5.98438Z" fill="#1C1C1B"/>
<path d="M88.335 66.4306H92.3767L92.6683 65.0973H89.8975L91.2308 58.9098H89.6892L88.1058 66.4306H88.335Z" fill="#1C1C1B"/>
<path d="M97.4417 62.0348C97.65 61.0973 96.775 60.5348 95.8167 60.5348C94.4 60.5348 93.6084 61.3473 93.3167 62.6806H94.7334C94.8792 61.9723 94.9 61.6598 95.6292 61.6598C96.1917 61.6598 96.0875 61.764 96.0042 62.264C95.9 62.7223 95.8167 62.6598 95.4209 62.764L94.525 62.9931C93.7542 63.2223 92.9834 63.6806 92.7125 64.8681C92.5042 65.9098 93.1292 66.5765 94.0042 66.5765C94.6292 66.5765 95.2334 66.264 95.5875 65.7848H95.2959C95.2542 66.1181 95.8167 66.4931 96.2959 66.4931C96.5042 66.4931 96.6917 66.4306 97.0042 66.2848L97.2542 65.139C96.8167 65.3681 96.8792 65.3056 96.8167 65.3056C96.65 65.3056 96.7542 65.3265 96.7959 65.1181L97.4417 62.0348ZM95.5667 64.3056C95.3792 65.0973 95.1709 65.389 94.525 65.389C94.0667 65.389 94.1084 65.2223 94.2125 64.764C94.2959 64.3681 94.3167 64.2431 94.65 64.0973C95.0042 63.9306 95.7542 63.764 95.65 63.8265L95.5667 64.3056Z" fill="#1C1C1B"/>
<path d="M97.5092 66.4306H98.7384L99.9675 60.6806H98.4884L97.28 66.4306H97.5092ZM98.8217 60.2847H100.051L100.363 58.8264H98.8842L98.5925 60.2847H98.8217Z" fill="#1C1C1B"/>
<path d="M104.021 62.4306L104.083 62.1806C104.208 61.514 103.896 60.5348 102.521 60.5348C101.417 60.5348 100.375 61.1806 100.167 62.2015C99.9792 63.0556 100.438 63.6598 101.188 63.9306L102 64.2431C102.354 64.389 102.313 64.4515 102.229 64.8473C102.125 65.3473 101.958 65.4515 101.375 65.4515C100.75 65.4515 100.792 65.3056 100.917 64.6806L101 64.3265H99.6667L99.5834 64.7015C99.3542 65.7431 99.8334 66.5765 101.188 66.5765C102.271 66.5765 103.417 65.889 103.667 64.7431C103.833 63.889 103.375 63.264 102.625 62.9931L101.979 62.764C101.458 62.5556 101.5 62.5765 101.583 62.1598C101.688 61.6598 101.896 61.6598 102.313 61.6598C102.875 61.6598 102.729 61.8681 102.646 62.2848L102.583 62.6181H103.979L104.021 62.4306Z" fill="#1C1C1B"/>
<path d="M108.281 62.4306L108.343 62.1806C108.468 61.514 108.156 60.5348 106.781 60.5348C105.677 60.5348 104.635 61.1806 104.427 62.2015C104.239 63.0556 104.697 63.6598 105.447 63.9306L106.26 64.2431C106.614 64.389 106.572 64.4515 106.489 64.8473C106.385 65.3473 106.218 65.4515 105.635 65.4515C105.01 65.4515 105.052 65.3056 105.177 64.6806L105.26 64.3265H103.927L103.843 64.7015C103.614 65.7431 104.093 66.5765 105.447 66.5765C106.531 66.5765 107.677 65.889 107.927 64.7431C108.093 63.889 107.635 63.264 106.885 62.9931L106.239 62.764C105.718 62.5556 105.76 62.5765 105.843 62.1598C105.947 61.6598 106.156 61.6598 106.572 61.6598C107.135 61.6598 106.989 61.8681 106.906 62.2848L106.843 62.6181H108.239L108.281 62.4306Z" fill="#1C1C1B"/>
<path d="M112.687 63.6806L112.791 63.1181C113.124 61.6181 112.708 60.5348 111.208 60.5348C109.52 60.5348 108.708 62.2223 108.416 63.639C107.895 66.1181 109.124 66.5765 109.999 66.5765C111.166 66.5765 112.228 65.639 112.52 64.2431H111.124C110.999 64.764 110.937 65.4515 110.166 65.4515C109.353 65.4515 109.645 64.7223 109.812 63.9931L109.833 63.889H112.645L112.687 63.6806ZM110.02 62.9515L110.041 62.8473C110.187 62.139 110.374 61.6598 111.062 61.6598C111.666 61.6598 111.583 61.9723 111.437 62.6598L111.416 62.764H110.062L110.02 62.9515Z" fill="#1C1C1B"/>
<path d="M112.838 66.4306H114.067L114.796 63.014C115.004 62.014 115.442 61.9931 115.942 61.9931C116.108 61.9931 116.317 62.0348 116.525 62.0973L116.817 60.6598C116.546 60.5556 116.483 60.5348 116.358 60.5348C115.754 60.5348 115.129 60.9723 114.796 61.514H115.108L115.296 60.6806H113.817L112.588 66.4306H112.838Z" fill="#1C1C1B"/>
<path d="M118.429 66.4306H119.658L121.262 58.9098H119.804L118.2 66.4306H118.429Z" fill="#1C1C1B"/>
<path d="M125.087 63.6806L125.191 63.1181C125.524 61.6181 125.108 60.5348 123.608 60.5348C121.92 60.5348 121.108 62.2223 120.816 63.639C120.295 66.1181 121.524 66.5765 122.399 66.5765C123.566 66.5765 124.628 65.639 124.92 64.2431H123.524C123.399 64.764 123.337 65.4515 122.566 65.4515C121.753 65.4515 122.045 64.7223 122.212 63.9931L122.233 63.889H125.045L125.087 63.6806ZM122.42 62.9515L122.441 62.8473C122.587 62.139 122.774 61.6598 123.462 61.6598C124.066 61.6598 123.983 61.9723 123.837 62.6598L123.816 62.764H122.462L122.42 62.9515Z" fill="#1C1C1B"/>
<path d="M127.637 66.4306H128.804L128.95 65.764H128.658C128.679 65.9306 129.054 66.5765 129.825 66.5765C131.096 66.5765 131.992 65.3265 132.387 63.4723C132.887 61.0973 131.95 60.5348 131.117 60.5348C130.554 60.5348 129.908 60.889 129.637 61.3056H129.95L130.471 58.9098H128.992L127.387 66.4306H127.637ZM129.408 63.6181C129.679 62.3265 129.804 61.764 130.617 61.764C131.242 61.764 131.158 62.0765 130.867 63.5348C130.596 64.7431 130.471 65.3265 129.721 65.3265C128.971 65.3265 129.158 64.764 129.408 63.6181Z" fill="#1C1C1B"/>
<path d="M132.614 63.5556C132.26 65.2223 132.718 66.5765 134.198 66.5765C135.698 66.5765 136.656 65.2223 137.01 63.5556C137.364 61.889 136.968 60.5348 135.406 60.5348C133.843 60.5348 132.968 61.889 132.614 63.5556ZM134.073 63.5556C134.323 62.3681 134.448 61.7015 135.239 61.7015C136.031 61.7015 135.781 62.3681 135.531 63.5556C135.239 64.9306 135.177 65.389 134.385 65.389C133.593 65.389 133.781 64.9306 134.073 63.5556Z" fill="#1C1C1B"/>
<path d="M139.828 66.4307H140.994L142.223 60.6807H140.744L139.911 64.6182C139.786 65.2223 139.494 65.3265 139.036 65.3265C138.578 65.3265 138.557 65.3265 138.661 64.7223L139.536 60.6807H138.057L137.223 64.6182C136.932 66.014 137.578 66.5765 138.39 66.5765C138.994 66.5765 139.682 66.2223 140.015 65.8057H139.723L139.578 66.4307H139.828Z" fill="#1C1C1B"/>
<path d="M144.721 64.2849C144.533 65.0974 144.408 65.4099 143.825 65.3891C143.033 65.3891 143.262 64.7432 143.512 63.5557C143.762 62.3682 143.887 61.7016 144.679 61.7016C145.325 61.6807 145.117 62.1599 144.971 62.8474H146.429C146.617 61.9724 146.471 60.5141 144.846 60.5349C143.283 60.5349 142.408 61.8891 142.054 63.5557C141.7 65.2224 142.096 66.5766 143.637 66.5766C144.971 66.5766 145.783 65.5766 146.179 64.0974H144.762L144.721 64.2849Z" fill="#1C1C1B"/>
<path d="M146.266 66.4306H147.495L148.308 62.639C148.454 61.9306 148.745 61.764 149.204 61.764C149.745 61.764 149.683 61.8473 149.537 62.5556L148.725 66.4306H150.183L151.079 62.1806C151.308 61.0973 150.683 60.5348 149.87 60.5348C149.308 60.5348 148.641 60.8681 148.35 61.2223L148.579 61.3681L149.1 58.9098H147.62L146.016 66.4306H146.266Z" fill="#1C1C1B"/>
<path d="M151.243 63.5556C150.889 65.2223 151.347 66.5765 152.826 66.5765C154.326 66.5765 155.285 65.2223 155.639 63.5556C155.993 61.889 155.597 60.5348 154.035 60.5348C152.472 60.5348 151.597 61.889 151.243 63.5556ZM152.701 63.5556C152.951 62.3681 153.076 61.7015 153.868 61.7015C154.66 61.7015 154.41 62.3681 154.16 63.5556C153.868 64.9306 153.805 65.389 153.014 65.389C152.222 65.389 152.41 64.9306 152.701 63.5556Z" fill="#1C1C1B"/>
<path d="M155.706 66.4306H156.935L157.748 62.639C157.894 61.9306 158.185 61.764 158.644 61.764C159.185 61.764 159.123 61.8473 158.977 62.5556L158.165 66.4306H159.623L160.519 62.1806C160.748 61.0973 160.123 60.5348 159.31 60.5348C158.706 60.5348 157.998 60.889 157.665 61.3056H157.956L158.102 60.6806H156.685L155.456 66.4306H155.706Z" fill="#1C1C1B"/>
<path d="M167.25 62.4306L167.312 62.1806C167.437 61.514 167.125 60.5348 165.75 60.5348C164.645 60.5348 163.604 61.1806 163.395 62.2015C163.208 63.0556 163.666 63.6598 164.416 63.9306L165.229 64.2431C165.583 64.389 165.541 64.4515 165.458 64.8473C165.354 65.3473 165.187 65.4515 164.604 65.4515C163.979 65.4515 164.02 65.3056 164.145 64.6806L164.229 64.3265H162.895L162.812 64.7015C162.583 65.7431 163.062 66.5765 164.416 66.5765C165.5 66.5765 166.645 65.889 166.895 64.7431C167.062 63.889 166.604 63.264 165.854 62.9931L165.208 62.764C164.687 62.5556 164.729 62.5765 164.812 62.1598C164.916 61.6598 165.125 61.6598 165.541 61.6598C166.104 61.6598 165.958 61.8681 165.875 62.2848L165.812 62.6181H167.208L167.25 62.4306Z" fill="#1C1C1B"/>
<path d="M169.926 66.4307H171.093L172.322 60.6807H170.843L170.01 64.6182C169.885 65.2223 169.593 65.3265 169.135 65.3265C168.676 65.3265 168.655 65.3265 168.76 64.7223L169.635 60.6807H168.155L167.322 64.6182C167.03 66.014 167.676 66.5765 168.489 66.5765C169.093 66.5765 169.78 66.2223 170.114 65.8057H169.822L169.676 66.4307H169.926Z" fill="#1C1C1B"/>
<path d="M171.986 66.4306H173.215L173.945 63.014C174.153 62.014 174.59 61.9931 175.09 61.9931C175.257 61.9931 175.465 62.0348 175.674 62.0973L175.965 60.6598C175.695 60.5556 175.632 60.5348 175.507 60.5348C174.903 60.5348 174.278 60.9723 173.945 61.514H174.257L174.445 60.6806H172.965L171.736 66.4306H171.986Z" fill="#1C1C1B"/>
<path d="M177.578 66.4306H178.807L180.411 58.9098H178.953L177.349 66.4306H177.578Z" fill="#1C1C1B"/>
<path d="M184.36 62.0348C184.569 61.0973 183.694 60.5348 182.735 60.5348C181.319 60.5348 180.527 61.3473 180.235 62.6806H181.652C181.798 61.9723 181.819 61.6598 182.548 61.6598C183.11 61.6598 183.006 61.764 182.923 62.264C182.819 62.7223 182.735 62.6598 182.34 62.764L181.444 62.9931C180.673 63.2223 179.902 63.6806 179.631 64.8681C179.423 65.9098 180.048 66.5765 180.923 66.5765C181.548 66.5765 182.152 66.264 182.506 65.7848H182.215C182.173 66.1181 182.735 66.4931 183.215 66.4931C183.423 66.4931 183.61 66.4306 183.923 66.2848L184.173 65.139C183.735 65.3681 183.798 65.3056 183.735 65.3056C183.569 65.3056 183.673 65.3265 183.715 65.1181L184.36 62.0348ZM182.485 64.3056C182.298 65.0973 182.09 65.389 181.444 65.389C180.985 65.389 181.027 65.2223 181.131 64.764C181.215 64.3681 181.235 64.2431 181.569 64.0973C181.923 63.9306 182.673 63.764 182.569 63.8265L182.485 64.3056Z" fill="#1C1C1B"/>
<path d="M186.786 66.4306H187.953L188.099 65.764H187.807C187.828 65.9306 188.203 66.5765 188.974 66.5765C190.245 66.5765 191.14 65.3265 191.536 63.4723C192.036 61.0973 191.099 60.5348 190.265 60.5348C189.703 60.5348 189.057 60.889 188.786 61.3056H189.099L189.62 58.9098H188.14L186.536 66.4306H186.786ZM188.557 63.6181C188.828 62.3265 188.953 61.764 189.765 61.764C190.39 61.764 190.307 62.0765 190.015 63.5348C189.745 64.7431 189.62 65.3265 188.87 65.3265C188.12 65.3265 188.307 64.764 188.557 63.6181Z" fill="#1C1C1B"/>
<path d="M191.763 63.5556C191.409 65.2223 191.867 66.5765 193.346 66.5765C194.846 66.5765 195.805 65.2223 196.159 63.5556C196.513 61.889 196.117 60.5348 194.555 60.5348C192.992 60.5348 192.117 61.889 191.763 63.5556ZM193.221 63.5556C193.471 62.3681 193.596 61.7015 194.388 61.7015C195.18 61.7015 194.93 62.3681 194.68 63.5556C194.388 64.9306 194.325 65.389 193.534 65.389C192.742 65.389 192.93 64.9306 193.221 63.5556Z" fill="#1C1C1B"/>
<path d="M198.976 66.4307H200.143L201.372 60.6807H199.893L199.06 64.6182C198.935 65.2223 198.643 65.3265 198.185 65.3265C197.726 65.3265 197.705 65.3265 197.81 64.7223L198.685 60.6807H197.205L196.372 64.6182C196.08 66.014 196.726 66.5765 197.539 66.5765C198.143 66.5765 198.83 66.2223 199.164 65.8057H198.872L198.726 66.4307H198.976Z" fill="#1C1C1B"/>
<path d="M201.515 61.8472H202.015L201.349 64.9931C201.12 66.0972 201.64 66.4931 202.37 66.4931C202.724 66.4931 203.015 66.4514 203.432 66.3681L203.682 65.1806C203.328 65.2431 203.203 65.2431 203.036 65.2431C202.661 65.2431 202.765 65.2847 202.849 64.8681L203.495 61.8472H204.37L204.62 60.6806H203.745L204.078 59.1389H202.599L202.265 60.6806H201.536L201.286 61.8472H201.515Z" fill="#1C1C1B"/>
<path d="M208.295 63.6806L208.4 63.1181C208.733 61.6181 208.316 60.5348 206.816 60.5348C205.129 60.5348 204.316 62.2223 204.025 63.639C203.504 66.1181 204.733 66.5765 205.608 66.5765C206.775 66.5765 207.837 65.639 208.129 64.2431H206.733C206.608 64.764 206.545 65.4515 205.775 65.4515C204.962 65.4515 205.254 64.7223 205.42 63.9931L205.441 63.889H208.254L208.295 63.6806ZM205.629 62.9515L205.65 62.8473C205.795 62.139 205.983 61.6598 206.67 61.6598C207.275 61.6598 207.191 61.9723 207.045 62.6598L207.025 62.764H205.67L205.629 62.9515Z" fill="#1C1C1B"/>
<path d="M208.488 66.4306H209.717L210.946 60.6806H209.467L208.259 66.4306H208.488ZM209.8 60.2847H211.03L211.342 58.8264H209.863L209.571 60.2847H209.8Z" fill="#1C1C1B"/>
<path d="M210.708 66.4306H211.937L213.541 58.9098H212.083L210.479 66.4306H210.708Z" fill="#1C1C1B"/>
<path d="M212.928 66.4306H214.157L215.761 58.9098H214.303L212.699 66.4306H212.928Z" fill="#1C1C1B"/>
<path d="M219.585 63.6806L219.69 63.1181C220.023 61.6181 219.606 60.5348 218.106 60.5348C216.419 60.5348 215.606 62.2223 215.315 63.639C214.794 66.1181 216.023 66.5765 216.898 66.5765C218.065 66.5765 219.127 65.639 219.419 64.2431H218.023C217.898 64.764 217.835 65.4515 217.065 65.4515C216.252 65.4515 216.544 64.7223 216.71 63.9931L216.731 63.889H219.544L219.585 63.6806ZM216.919 62.9515L216.94 62.8473C217.085 62.139 217.273 61.6598 217.96 61.6598C218.565 61.6598 218.481 61.9723 218.335 62.6598L218.315 62.764H216.96L216.919 62.9515Z" fill="#1C1C1B"/>
<path d="M136.998 41.364H137.334C137.542 41.364 137.71 41.318 137.838 41.226C137.966 41.134 138.03 40.964 138.03 40.716C138.03 40.592 138.012 40.49 137.976 40.41C137.944 40.326 137.898 40.26 137.838 40.212C137.782 40.16 137.714 40.124 137.634 40.104C137.554 40.084 137.466 40.074 137.37 40.074H136.998V41.364ZM136.998 39.474H137.244C137.484 39.474 137.658 39.432 137.766 39.348C137.878 39.26 137.934 39.114 137.934 38.91C137.934 38.706 137.884 38.562 137.784 38.478C137.684 38.394 137.526 38.352 137.31 38.352H136.998V39.474ZM136.134 37.716H137.58C137.756 37.716 137.918 37.734 138.066 37.77C138.218 37.806 138.348 37.866 138.456 37.95C138.564 38.034 138.648 38.146 138.708 38.286C138.768 38.426 138.798 38.598 138.798 38.802C138.798 39.034 138.744 39.234 138.636 39.402C138.528 39.566 138.366 39.678 138.15 39.738V39.75C138.39 39.782 138.58 39.884 138.72 40.056C138.86 40.228 138.93 40.458 138.93 40.746C138.93 40.914 138.908 41.074 138.864 41.226C138.82 41.378 138.744 41.512 138.636 41.628C138.532 41.74 138.394 41.83 138.222 41.898C138.054 41.966 137.844 42 137.592 42H136.134V37.716ZM140.242 39.858C140.242 40.146 140.248 40.392 140.26 40.596C140.276 40.796 140.304 40.96 140.344 41.088C140.388 41.212 140.448 41.304 140.524 41.364C140.604 41.42 140.708 41.448 140.836 41.448C140.964 41.448 141.066 41.42 141.142 41.364C141.222 41.304 141.282 41.212 141.322 41.088C141.366 40.96 141.394 40.796 141.406 40.596C141.422 40.392 141.43 40.146 141.43 39.858C141.43 39.57 141.422 39.326 141.406 39.126C141.394 38.926 141.366 38.762 141.322 38.634C141.282 38.506 141.222 38.414 141.142 38.358C141.066 38.298 140.964 38.268 140.836 38.268C140.708 38.268 140.604 38.298 140.524 38.358C140.448 38.414 140.388 38.506 140.344 38.634C140.304 38.762 140.276 38.926 140.26 39.126C140.248 39.326 140.242 39.57 140.242 39.858ZM139.378 39.858C139.378 39.534 139.392 39.236 139.42 38.964C139.452 38.688 139.518 38.452 139.618 38.256C139.722 38.06 139.87 37.908 140.062 37.8C140.254 37.688 140.512 37.632 140.836 37.632C141.16 37.632 141.418 37.688 141.61 37.8C141.802 37.908 141.948 38.06 142.048 38.256C142.152 38.452 142.218 38.688 142.246 38.964C142.278 39.236 142.294 39.534 142.294 39.858C142.294 40.186 142.278 40.486 142.246 40.758C142.218 41.03 142.152 41.264 142.048 41.46C141.948 41.656 141.802 41.806 141.61 41.91C141.418 42.014 141.16 42.066 140.836 42.066C140.512 42.066 140.254 42.014 140.062 41.91C139.87 41.806 139.722 41.656 139.618 41.46C139.518 41.264 139.452 41.03 139.42 40.758C139.392 40.486 139.378 40.186 139.378 39.858ZM142.82 37.716H144.104L144.716 40.74H144.728L145.346 37.716H146.624V42H145.832V38.58H145.82L145.058 42H144.386L143.624 38.58H143.612V42H142.82V37.716ZM148.107 41.364H148.443C148.651 41.364 148.819 41.318 148.947 41.226C149.075 41.134 149.139 40.964 149.139 40.716C149.139 40.592 149.121 40.49 149.085 40.41C149.053 40.326 149.007 40.26 148.947 40.212C148.891 40.16 148.823 40.124 148.743 40.104C148.663 40.084 148.575 40.074 148.479 40.074H148.107V41.364ZM148.107 39.474H148.353C148.593 39.474 148.767 39.432 148.875 39.348C148.987 39.26 149.043 39.114 149.043 38.91C149.043 38.706 148.993 38.562 148.893 38.478C148.793 38.394 148.635 38.352 148.419 38.352H148.107V39.474ZM147.243 37.716H148.689C148.865 37.716 149.027 37.734 149.175 37.77C149.327 37.806 149.457 37.866 149.565 37.95C149.673 38.034 149.757 38.146 149.817 38.286C149.877 38.426 149.907 38.598 149.907 38.802C149.907 39.034 149.853 39.234 149.745 39.402C149.637 39.566 149.475 39.678 149.259 39.738V39.75C149.499 39.782 149.689 39.884 149.829 40.056C149.969 40.228 150.039 40.458 150.039 40.746C150.039 40.914 150.017 41.074 149.973 41.226C149.929 41.378 149.853 41.512 149.745 41.628C149.641 41.74 149.503 41.83 149.331 41.898C149.163 41.966 148.953 42 148.701 42H147.243V37.716ZM152.971 37.716V38.424H151.441V39.432H152.881V40.14H151.441V41.292H153.031V42H150.577V37.716H152.971ZM135.531 47.386L135.117 45.46H135.105L134.691 47.386H135.531ZM135.645 44.716L136.779 49H135.879L135.681 48.094H134.541L134.343 49H133.443L134.577 44.716H135.645ZM138.229 43.6H139.057L138.469 44.464H137.905L138.229 43.6ZM139.471 44.716V45.424H137.941V46.432H139.381V47.14H137.941V48.292H139.531V49H137.077V44.716H139.471ZM139.966 44.716H141.562C141.922 44.716 142.202 44.808 142.402 44.992C142.602 45.172 142.702 45.448 142.702 45.82C142.702 46.108 142.644 46.344 142.528 46.528C142.412 46.708 142.232 46.824 141.988 46.876V46.888C142.204 46.92 142.362 46.99 142.462 47.098C142.562 47.206 142.624 47.38 142.648 47.62C142.656 47.7 142.662 47.788 142.666 47.884C142.67 47.976 142.674 48.08 142.678 48.196C142.686 48.424 142.698 48.598 142.714 48.718C142.738 48.838 142.79 48.92 142.87 48.964V49H141.934C141.89 48.94 141.862 48.872 141.85 48.796C141.838 48.716 141.83 48.634 141.826 48.55L141.802 47.728C141.794 47.56 141.752 47.428 141.676 47.332C141.6 47.236 141.472 47.188 141.292 47.188H140.83V49H139.966V44.716ZM140.83 46.588H141.19C141.398 46.588 141.558 46.54 141.67 46.444C141.782 46.344 141.838 46.178 141.838 45.946C141.838 45.55 141.638 45.352 141.238 45.352H140.83V46.588ZM144.074 46.858C144.074 47.146 144.08 47.392 144.092 47.596C144.108 47.796 144.136 47.96 144.176 48.088C144.22 48.212 144.28 48.304 144.356 48.364C144.436 48.42 144.54 48.448 144.668 48.448C144.796 48.448 144.898 48.42 144.974 48.364C145.054 48.304 145.114 48.212 145.154 48.088C145.198 47.96 145.226 47.796 145.238 47.596C145.254 47.392 145.262 47.146 145.262 46.858C145.262 46.57 145.254 46.326 145.238 46.126C145.226 45.926 145.198 45.762 145.154 45.634C145.114 45.506 145.054 45.414 144.974 45.358C144.898 45.298 144.796 45.268 144.668 45.268C144.54 45.268 144.436 45.298 144.356 45.358C144.28 45.414 144.22 45.506 144.176 45.634C144.136 45.762 144.108 45.926 144.092 46.126C144.08 46.326 144.074 46.57 144.074 46.858ZM143.21 46.858C143.21 46.534 143.224 46.236 143.252 45.964C143.284 45.688 143.35 45.452 143.45 45.256C143.554 45.06 143.702 44.908 143.894 44.8C144.086 44.688 144.344 44.632 144.668 44.632C144.992 44.632 145.25 44.688 145.442 44.8C145.634 44.908 145.78 45.06 145.88 45.256C145.984 45.452 146.05 45.688 146.078 45.964C146.11 46.236 146.126 46.534 146.126 46.858C146.126 47.186 146.11 47.486 146.078 47.758C146.05 48.03 145.984 48.264 145.88 48.46C145.78 48.656 145.634 48.806 145.442 48.91C145.25 49.014 144.992 49.066 144.668 49.066C144.344 49.066 144.086 49.014 143.894 48.91C143.702 48.806 143.554 48.656 143.45 48.46C143.35 48.264 143.284 48.03 143.252 47.758C143.224 47.486 143.21 47.186 143.21 46.858ZM147.33 47.662V47.788C147.33 47.888 147.338 47.98 147.354 48.064C147.37 48.144 147.4 48.212 147.444 48.268C147.488 48.324 147.546 48.368 147.618 48.4C147.694 48.432 147.788 48.448 147.9 48.448C148.032 48.448 148.15 48.406 148.254 48.322C148.362 48.234 148.416 48.1 148.416 47.92C148.416 47.824 148.402 47.742 148.374 47.674C148.35 47.602 148.308 47.538 148.248 47.482C148.188 47.426 148.108 47.376 148.008 47.332C147.912 47.284 147.792 47.236 147.648 47.188C147.456 47.124 147.29 47.054 147.15 46.978C147.01 46.902 146.892 46.814 146.796 46.714C146.704 46.61 146.636 46.492 146.592 46.36C146.548 46.224 146.526 46.068 146.526 45.892C146.526 45.468 146.644 45.152 146.88 44.944C147.116 44.736 147.44 44.632 147.852 44.632C148.044 44.632 148.22 44.654 148.38 44.698C148.544 44.738 148.684 44.806 148.8 44.902C148.92 44.994 149.012 45.114 149.076 45.262C149.144 45.406 149.178 45.58 149.178 45.784V45.904H148.35C148.35 45.7 148.314 45.544 148.242 45.436C148.17 45.324 148.05 45.268 147.882 45.268C147.786 45.268 147.706 45.282 147.642 45.31C147.578 45.338 147.526 45.376 147.486 45.424C147.45 45.468 147.424 45.52 147.408 45.58C147.396 45.64 147.39 45.702 147.39 45.766C147.39 45.898 147.418 46.01 147.474 46.102C147.53 46.19 147.65 46.272 147.834 46.348L148.5 46.636C148.664 46.708 148.798 46.784 148.902 46.864C149.006 46.94 149.088 47.024 149.148 47.116C149.212 47.204 149.256 47.302 149.28 47.41C149.304 47.518 149.316 47.638 149.316 47.77C149.316 48.222 149.184 48.552 148.92 48.76C148.66 48.964 148.296 49.066 147.828 49.066C147.34 49.066 146.99 48.96 146.778 48.748C146.57 48.536 146.466 48.232 146.466 47.836V47.662H147.33ZM150.519 46.858C150.519 47.146 150.525 47.392 150.537 47.596C150.553 47.796 150.581 47.96 150.621 48.088C150.665 48.212 150.725 48.304 150.801 48.364C150.881 48.42 150.985 48.448 151.113 48.448C151.241 48.448 151.343 48.42 151.419 48.364C151.499 48.304 151.559 48.212 151.599 48.088C151.643 47.96 151.671 47.796 151.683 47.596C151.699 47.392 151.707 47.146 151.707 46.858C151.707 46.57 151.699 46.326 151.683 46.126C151.671 45.926 151.643 45.762 151.599 45.634C151.559 45.506 151.499 45.414 151.419 45.358C151.343 45.298 151.241 45.268 151.113 45.268C150.985 45.268 150.881 45.298 150.801 45.358C150.725 45.414 150.665 45.506 150.621 45.634C150.581 45.762 150.553 45.926 150.537 46.126C150.525 46.326 150.519 46.57 150.519 46.858ZM149.655 46.858C149.655 46.534 149.669 46.236 149.697 45.964C149.729 45.688 149.795 45.452 149.895 45.256C149.999 45.06 150.147 44.908 150.339 44.8C150.531 44.688 150.789 44.632 151.113 44.632C151.437 44.632 151.695 44.688 151.887 44.8C152.079 44.908 152.225 45.06 152.325 45.256C152.429 45.452 152.495 45.688 152.523 45.964C152.555 46.236 152.571 46.534 152.571 46.858C152.571 47.186 152.555 47.486 152.523 47.758C152.495 48.03 152.429 48.264 152.325 48.46C152.225 48.656 152.079 48.806 151.887 48.91C151.695 49.014 151.437 49.066 151.113 49.066C150.789 49.066 150.531 49.014 150.339 48.91C150.147 48.806 149.999 48.656 149.895 48.46C149.795 48.264 149.729 48.03 149.697 47.758C149.669 47.486 149.655 47.186 149.655 46.858ZM153.079 49V44.716H153.943V48.292H155.473V49H153.079Z" fill="#1C1C1B"/>
<path d="M143.83 15.0184C143.83 14.9958 143.846 14.9797 143.865 14.9797H145.205C145.228 14.9797 145.244 14.9958 145.244 15.0184V15.8108H143.83V15.0184ZM143.579 16.3101H145.495C145.634 16.3101 145.743 16.1973 145.743 16.0588V15.0184C145.743 14.722 145.505 14.4804 145.205 14.4804H143.865C143.569 14.4804 143.331 14.722 143.331 15.0184V16.0588C143.331 16.1973 143.44 16.3101 143.579 16.3101Z" fill="#1C1C1B"/>
<path d="M148.15 33.2507H141.024C141.018 33.2507 141.008 33.2507 141.002 33.2507C141.008 33.2475 141.018 33.2475 141.024 33.2475H141.105C141.305 33.2475 141.466 33.1122 141.517 32.9286L145.769 32.9543C145.908 32.9543 146.021 32.8448 146.021 32.7063C146.021 32.5678 145.911 32.455 145.773 32.455L141.54 32.4293V20.1434C141.54 19.9018 141.346 19.7053 141.105 19.7053H141.024H148.15H148.069C147.853 19.7053 147.683 19.8631 147.647 20.0693L143.907 20.0435H143.904C143.769 20.0435 143.656 20.153 143.656 20.2915C143.653 20.43 143.766 20.5428 143.904 20.5428L147.634 20.5686V32.8126C147.634 33.0542 147.828 33.2475 148.069 33.2475H148.15C148.156 33.2475 148.166 33.2475 148.172 33.2507C148.166 33.2507 148.156 33.2507 148.15 33.2507ZM147.386 18.8291H141.688L143.669 17.1669H145.405L147.386 18.8291ZM142.229 12.8762H146.845C147.251 12.8762 147.583 13.208 147.583 13.6139V18.3427L145.657 16.7256C145.611 16.6869 145.553 16.6676 145.495 16.6676H143.579C143.521 16.6676 143.463 16.6869 143.418 16.7256L141.491 18.3427V13.6139C141.491 13.208 141.823 12.8762 142.229 12.8762ZM148.507 32.426V20.5267C148.9 20.4043 149.171 20.0854 149.171 19.7053C149.171 19.309 148.875 18.9837 148.459 18.8742V13.6139C148.459 12.7248 147.734 12 146.845 12H142.229C141.34 12 140.615 12.7248 140.615 13.6139V18.8999C140.251 19.0352 140 19.3413 140 19.7053C140 20.0886 140.274 20.4043 140.667 20.5267V32.426C140.274 32.5484 140 32.8673 140 33.2507C140 33.7403 140.451 34.1236 141.024 34.1236H148.15C148.723 34.1236 149.171 33.7403 149.171 33.2507C149.171 32.8673 148.9 32.5484 148.507 32.426Z" fill="#1C1C1B"/>
<path d="M142.451 21.7991C142.313 21.7991 142.2 21.9119 142.2 22.0504V30.5513C142.2 30.6898 142.313 30.7993 142.451 30.7993C142.587 30.7993 142.699 30.6898 142.699 30.5513V22.0504C142.699 21.9119 142.587 21.7991 142.451 21.7991Z" fill="#1C1C1B"/>
</g>
<defs>
<clipPath id="clip0_19_76">
<rect width="227" height="73" fill="white"/>
</clipPath>
</defs>
</svg>
