<svg width="280" height="61" viewBox="0 0 280 61" fill="none" xmlns="http://www.w3.org/2000/svg">
<g clip-path="url(#clip0_66_2148)">
<path d="M24.6979 60.4688C11.0781 60.4688 0 49.5208 0 36.0625V0H254.948C268.562 0 279.641 10.9479 279.641 24.4062V60.4688" fill="white"/>
<path d="M242.083 52.9114H69.1353C59.6874 52.9114 51.9999 45.3541 51.9999 36.0625V7.55725H224.948C234.396 7.55725 242.083 15.1145 242.083 24.4062V52.9114ZM224.948 5.66663H50.1145V36.0625C50.1145 46.3958 58.6458 54.802 69.1353 54.802H243.969V24.4062C243.969 14.0729 235.437 5.66663 224.948 5.66663Z" fill="#010101"/>
<path d="M216.714 54.802L229.724 28.2239L216.432 5.66663H254.948C265.437 5.66663 273.969 14.0729 273.969 24.4062V54.802" fill="#010101"/>
<path d="M102.901 5.66663H50.1145V36.0625C50.1145 46.3958 58.6458 54.802 69.1353 54.802H121.927V24.4062C121.927 14.0729 113.391 5.66663 102.901 5.66663Z" fill="#010101"/>
<path d="M63.651 29.3594C58.8489 29.3594 54.9583 33.25 54.9583 38.0521C54.9583 42.8542 58.8489 46.7448 63.651 46.7448C68.4583 46.7448 72.3489 42.8542 72.3489 38.0521C72.3489 33.25 68.4583 29.3594 63.651 29.3594Z" fill="white"/>
<path d="M69.3229 39.4688H65.0729V43.7188H62.2344V39.4688H57.9844V36.6355H62.2344V32.3802H65.0729V36.6355H69.3229" fill="#1C1C1B"/>
<path d="M55.7864 26.5937V17.1979H58.2708V24.5156H61.828V26.5937" fill="white"/>
<path d="M62.9426 26.5937V17.1979H69.0155V19.276H65.4322V20.7552H68.4947V22.8385H65.4322V24.5156H69.1614V26.5937" fill="white"/>
<path d="M75.0885 26.5937V19.276H72.6041V17.1979H80.0677V19.276H77.5781V26.5937" fill="white"/>
<path d="M83.5521 21.4739H84.4479C85.4479 21.4739 85.9531 21.0625 85.9531 20.2343C85.9531 19.8281 85.8229 19.5468 85.5677 19.3958C85.3125 19.2395 84.9375 19.1614 84.4479 19.1614H83.5521V21.4739ZM81.0625 26.5989V17.1979H84.6198C85.125 17.1979 85.6042 17.2448 86.0625 17.3385C86.5208 17.4375 86.9167 17.5989 87.2604 17.8333C87.6042 18.0625 87.875 18.375 88.0781 18.7656C88.2813 19.1562 88.3802 19.6458 88.3802 20.2343C88.3802 20.9062 88.2448 21.4687 87.9688 21.9114C87.6979 22.3541 87.3281 22.6979 86.8646 22.9531L88.901 26.5989H86.125L84.5052 23.4427H83.5521V26.5989" fill="white"/>
<path d="M89.8698 26.5989H92.3593V17.1979H89.8698V26.5989Z" fill="white"/>
<path d="M75.3801 43.276V33.8698H81.5103V35.9531H77.8697V37.75H80.9895V39.8333H77.8697V43.276" fill="white"/>
<path d="M84.9218 38.7031L84.7604 39.3541H86.4948L86.3385 38.7031C86.2239 38.25 86.1041 37.7604 85.9895 37.2291C85.875 36.6979 85.7604 36.1979 85.6406 35.7239H85.5833C85.4791 36.2031 85.3698 36.7083 85.2604 37.2343C85.151 37.7604 85.0364 38.25 84.9218 38.7031ZM81.3073 43.276L84.1666 33.8698H87.1718L90.0364 43.276H87.4062L86.9427 41.276H84.3125L83.8489 43.276" fill="white"/>
<path d="M94.5624 43.4479C93.9687 43.4479 93.3958 43.3489 92.8541 43.151C92.3072 42.9531 91.8333 42.651 91.4218 42.2552C91.0103 41.8541 90.6822 41.3541 90.4426 40.75C90.203 40.1458 90.0833 39.4479 90.0833 38.6458C90.0833 37.8541 90.2083 37.151 90.4583 36.5416C90.7083 35.927 91.0416 35.4114 91.4635 34.9948C91.8801 34.5729 92.3645 34.25 92.9114 34.0312C93.4583 33.8073 94.026 33.6979 94.6249 33.6979C95.2499 33.6979 95.8124 33.8229 96.302 34.0677C96.7968 34.3125 97.2083 34.6041 97.5468 34.9427L96.2447 36.5312C96.0155 36.3333 95.776 36.1666 95.5312 36.0312C95.2812 35.9062 94.9999 35.8385 94.6822 35.8385C94.401 35.8385 94.1405 35.901 93.8958 36.026C93.651 36.151 93.4322 36.3333 93.2447 36.5625C93.0572 36.7916 92.9062 37.0781 92.7968 37.4166C92.6822 37.75 92.6301 38.1354 92.6301 38.5573C92.6301 39.4479 92.8124 40.125 93.1874 40.5989C93.5572 41.0677 94.0468 41.3073 94.651 41.3073C95.0208 41.3073 95.3437 41.2291 95.6301 41.0677C95.9114 40.9062 96.1562 40.7187 96.3593 40.4948L97.6614 42.0573C97.2551 42.5208 96.7916 42.8698 96.2655 43.0989C95.7395 43.3333 95.1718 43.4479 94.5624 43.4479Z" fill="white"/>
<path d="M98.6198 43.276H101.104V33.8698H98.6198V43.276Z" fill="white"/>
<path d="M102.875 43.276V33.8698H105.365V41.1927H108.922V43.276" fill="white"/>
<path d="M110.031 43.276V33.8698H116.109V35.9531H112.521V37.4323H115.589V39.5156H112.521V41.1927H116.255V43.276" fill="white"/>
<path d="M28.4062 25.7448C26.7135 28.2343 28.151 31.5104 29.8958 33.1718C31.4895 34.6823 32.7655 35.0364 32.9322 35.0781L33.7447 33.5208L36.0885 39.9323L29.4635 41.2812L30.3437 39.6458L29.4478 39.1458C26.6562 37.3281 26.0676 34.8593 25.8749 34.0885C25.5416 32.7604 25.0468 28.7864 28.4062 25.7448Z" fill="#010101"/>
<path d="M28.375 25.8489C29.5781 28.6093 33.1146 29.1406 35.4479 28.552C37.5208 28.026 38.5052 27.1718 38.6719 27.0156L38.6615 27L37.776 25.4635L44.4427 26.9218L42.0312 33.2395L41.1354 31.6458L40.2656 32.1198C37.2396 33.5104 34.8333 32.6927 34.0781 32.4427C32.7813 32.0156 29.1562 30.3125 28.375 25.8489Z" fill="#010101"/>
<path d="M40.1613 19.1927C39.6978 22.4895 37.7134 24.0729 37.0936 24.5729C36.0311 25.4375 32.6457 27.5677 28.4634 25.8177C31.4373 26.2916 33.7967 23.6041 34.5571 21.3177C35.2446 19.2656 35.0415 17.9687 34.9998 17.7708L34.979 17.7656L33.2134 17.6927L38.0259 12.8541L42.0519 18.2864L40.2342 18.1823" fill="#010101"/>
<path fill-rule="evenodd" clip-rule="evenodd" d="M19.9375 16.4115C18.4167 16.4115 17.1875 15.1823 17.1875 13.6562C17.1875 12.1354 18.4167 10.9062 19.9375 10.9062C21.4583 10.9062 22.6927 12.1354 22.6927 13.6562C22.6927 15.1823 21.4583 16.4115 19.9375 16.4115Z" fill="#010101"/>
<path d="M15.6771 29.7968C15.9115 29.151 16.2604 29.1927 16.2604 29.1927C16.2604 29.1927 16.5781 29.125 16.7552 29.7708L19.3281 38.8073C17.1823 38.1823 15.224 37.1198 13.5573 35.7083L15.6771 29.7968ZM23.7031 5.66663C13.7604 5.66663 5.67188 13.7552 5.67188 23.6979C5.67188 33.6406 13.7604 41.7291 23.7031 41.7291C24.2344 41.7291 24.7552 41.6979 25.276 41.651L25.3958 43.4635L28.6979 40.2708L25.0052 37.4531L25.1458 39.3541C24.6719 39.401 24.1875 39.4323 23.7031 39.4323C22.9375 39.4323 22.1875 39.375 21.4531 39.2656L21.3802 38.7864L19.6667 24.1875C19.4323 21.4323 21.0052 20.9948 21.9792 21.4062L27.4479 23.6041C28.0729 23.875 28.375 23.3489 28.375 23.3489C28.375 23.3489 28.7292 22.802 28.0938 22.3958C28.0938 22.3958 20.6406 17.4583 19.0521 17.1562C16.8854 16.7552 14.7396 18.5104 14.2656 20.7968L11.6198 33.7604C9.34375 31.0312 7.96875 27.5208 7.96875 23.6979C7.96875 15.0208 15.026 7.9635 23.7031 7.9635C28.3385 7.9635 32.5104 9.97913 35.3906 13.177L37.0052 11.5364C33.7083 7.93225 28.9635 5.66663 23.7031 5.66663Z" fill="#010101"/>
<path d="M131.328 33.728H132C132.416 33.728 132.752 33.636 133.008 33.452C133.264 33.268 133.392 32.928 133.392 32.432C133.392 32.184 133.356 31.98 133.284 31.82C133.22 31.652 133.128 31.52 133.008 31.424C132.896 31.32 132.76 31.248 132.6 31.208C132.44 31.168 132.264 31.148 132.072 31.148H131.328V33.728ZM131.328 29.948H131.82C132.3 29.948 132.648 29.864 132.864 29.696C133.088 29.52 133.2 29.228 133.2 28.82C133.2 28.412 133.1 28.124 132.9 27.956C132.7 27.788 132.384 27.704 131.952 27.704H131.328V29.948ZM129.6 26.432H132.492C132.844 26.432 133.168 26.468 133.464 26.54C133.768 26.612 134.028 26.732 134.244 26.9C134.46 27.068 134.628 27.292 134.748 27.572C134.868 27.852 134.928 28.196 134.928 28.604C134.928 29.068 134.82 29.468 134.604 29.804C134.388 30.132 134.064 30.356 133.632 30.476V30.5C134.112 30.564 134.492 30.768 134.772 31.112C135.052 31.456 135.192 31.916 135.192 32.492C135.192 32.828 135.148 33.148 135.06 33.452C134.972 33.756 134.82 34.024 134.604 34.256C134.396 34.48 134.12 34.66 133.776 34.796C133.44 34.932 133.02 35 132.516 35H129.6V26.432ZM137.816 30.716C137.816 31.292 137.828 31.784 137.852 32.192C137.884 32.592 137.94 32.92 138.02 33.176C138.108 33.424 138.228 33.608 138.38 33.728C138.54 33.84 138.748 33.896 139.004 33.896C139.26 33.896 139.464 33.84 139.616 33.728C139.776 33.608 139.896 33.424 139.976 33.176C140.064 32.92 140.12 32.592 140.144 32.192C140.176 31.784 140.192 31.292 140.192 30.716C140.192 30.14 140.176 29.652 140.144 29.252C140.12 28.852 140.064 28.524 139.976 28.268C139.896 28.012 139.776 27.828 139.616 27.716C139.464 27.596 139.26 27.536 139.004 27.536C138.748 27.536 138.54 27.596 138.38 27.716C138.228 27.828 138.108 28.012 138.02 28.268C137.94 28.524 137.884 28.852 137.852 29.252C137.828 29.652 137.816 30.14 137.816 30.716ZM136.088 30.716C136.088 30.068 136.116 29.472 136.172 28.928C136.236 28.376 136.368 27.904 136.568 27.512C136.776 27.12 137.072 26.816 137.456 26.6C137.84 26.376 138.356 26.264 139.004 26.264C139.652 26.264 140.168 26.376 140.552 26.6C140.936 26.816 141.228 27.12 141.428 27.512C141.636 27.904 141.768 28.376 141.824 28.928C141.888 29.472 141.92 30.068 141.92 30.716C141.92 31.372 141.888 31.972 141.824 32.516C141.768 33.06 141.636 33.528 141.428 33.92C141.228 34.312 140.936 34.612 140.552 34.82C140.168 35.028 139.652 35.132 139.004 35.132C138.356 35.132 137.84 35.028 137.456 34.82C137.072 34.612 136.776 34.312 136.568 33.92C136.368 33.528 136.236 33.06 136.172 32.516C136.116 31.972 136.088 31.372 136.088 30.716ZM144.556 26.432V32.408C144.556 32.624 144.568 32.824 144.592 33.008C144.624 33.184 144.676 33.34 144.748 33.476C144.828 33.604 144.932 33.708 145.06 33.788C145.196 33.86 145.364 33.896 145.564 33.896C145.772 33.896 145.94 33.86 146.068 33.788C146.196 33.708 146.296 33.604 146.368 33.476C146.448 33.34 146.5 33.184 146.524 33.008C146.556 32.824 146.572 32.624 146.572 32.408V26.432H148.3V32.408C148.3 32.952 148.224 33.404 148.072 33.764C147.92 34.116 147.716 34.396 147.46 34.604C147.204 34.812 146.912 34.952 146.584 35.024C146.256 35.096 145.916 35.132 145.564 35.132C145.212 35.132 144.872 35.1 144.544 35.036C144.216 34.972 143.924 34.844 143.668 34.652C143.412 34.452 143.208 34.172 143.056 33.812C142.904 33.452 142.828 32.984 142.828 32.408V26.432H144.556ZM153.053 29.324C153.053 28.7 152.977 28.248 152.825 27.968C152.681 27.68 152.413 27.536 152.021 27.536C151.805 27.536 151.625 27.596 151.481 27.716C151.345 27.828 151.237 28.016 151.157 28.28C151.077 28.536 151.021 28.876 150.989 29.3C150.957 29.716 150.941 30.228 150.941 30.836C150.941 31.484 150.961 32.008 151.001 32.408C151.049 32.808 151.117 33.12 151.205 33.344C151.301 33.56 151.417 33.708 151.553 33.788C151.697 33.86 151.861 33.896 152.045 33.896C152.197 33.896 152.337 33.872 152.465 33.824C152.601 33.768 152.717 33.664 152.813 33.512C152.909 33.352 152.985 33.132 153.041 32.852C153.097 32.564 153.125 32.188 153.125 31.724H154.853C154.853 32.188 154.817 32.628 154.745 33.044C154.673 33.46 154.537 33.824 154.337 34.136C154.145 34.448 153.869 34.692 153.509 34.868C153.157 35.044 152.697 35.132 152.129 35.132C151.481 35.132 150.965 35.028 150.581 34.82C150.197 34.612 149.901 34.312 149.693 33.92C149.493 33.528 149.361 33.06 149.297 32.516C149.241 31.972 149.213 31.372 149.213 30.716C149.213 30.068 149.241 29.472 149.297 28.928C149.361 28.376 149.493 27.904 149.693 27.512C149.901 27.12 150.197 26.816 150.581 26.6C150.965 26.376 151.481 26.264 152.129 26.264C152.745 26.264 153.229 26.364 153.581 26.564C153.941 26.764 154.209 27.02 154.385 27.332C154.561 27.636 154.669 27.968 154.709 28.328C154.757 28.68 154.781 29.012 154.781 29.324H153.053ZM155.838 26.432H157.566V29.708H159.582V26.432H161.31V35H159.582V31.196H157.566V35H155.838V26.432ZM164.054 30.716C164.054 31.292 164.066 31.784 164.09 32.192C164.122 32.592 164.178 32.92 164.258 33.176C164.346 33.424 164.466 33.608 164.618 33.728C164.778 33.84 164.986 33.896 165.242 33.896C165.498 33.896 165.702 33.84 165.854 33.728C166.014 33.608 166.134 33.424 166.214 33.176C166.302 32.92 166.358 32.592 166.382 32.192C166.414 31.784 166.43 31.292 166.43 30.716C166.43 30.14 166.414 29.652 166.382 29.252C166.358 28.852 166.302 28.524 166.214 28.268C166.134 28.012 166.014 27.828 165.854 27.716C165.702 27.596 165.498 27.536 165.242 27.536C164.986 27.536 164.778 27.596 164.618 27.716C164.466 27.828 164.346 28.012 164.258 28.268C164.178 28.524 164.122 28.852 164.09 29.252C164.066 29.652 164.054 30.14 164.054 30.716ZM162.326 30.716C162.326 30.068 162.354 29.472 162.41 28.928C162.474 28.376 162.606 27.904 162.806 27.512C163.014 27.12 163.31 26.816 163.694 26.6C164.078 26.376 164.594 26.264 165.242 26.264C165.89 26.264 166.406 26.376 166.79 26.6C167.174 26.816 167.466 27.12 167.666 27.512C167.874 27.904 168.006 28.376 168.062 28.928C168.126 29.472 168.158 30.068 168.158 30.716C168.158 31.372 168.126 31.972 168.062 32.516C168.006 33.06 167.874 33.528 167.666 33.92C167.466 34.312 167.174 34.612 166.79 34.82C166.406 35.028 165.89 35.132 165.242 35.132C164.594 35.132 164.078 35.028 163.694 34.82C163.31 34.612 163.014 34.312 162.806 33.92C162.606 33.528 162.474 33.06 162.41 32.516C162.354 31.972 162.326 31.372 162.326 30.716ZM171.166 26.432L173.254 32.3H173.278V26.432H174.862V35H172.894L170.782 29H170.758V35H169.174V26.432H171.166ZM183.736 26.432V27.848H180.676V29.864H183.556V31.28H180.676V33.584H183.856V35H178.948V26.432H183.736ZM186.717 26.432L188.805 32.3H188.829V26.432H190.413V35H188.445L186.333 29H186.309V35H184.725V26.432H186.717ZM194.498 35V26.432H196.226V33.584H199.286V35H194.498ZM200.137 35V26.432H201.865V35H200.137ZM205.235 25.928L204.059 24.2H205.715L206.363 25.928H205.235ZM207.935 26.432V27.848H204.875V29.864H207.755V31.28H204.875V33.584H208.055V35H203.147V26.432H207.935ZM212.728 28.976C212.728 28.816 212.708 28.652 212.668 28.484C212.636 28.316 212.58 28.164 212.5 28.028C212.42 27.884 212.316 27.768 212.188 27.68C212.068 27.584 211.92 27.536 211.744 27.536C211.328 27.536 211.028 27.768 210.844 28.232C210.66 28.696 210.568 29.464 210.568 30.536C210.568 31.048 210.584 31.512 210.616 31.928C210.648 32.344 210.704 32.7 210.784 32.996C210.872 33.284 210.992 33.508 211.144 33.668C211.304 33.82 211.508 33.896 211.756 33.896C211.86 33.896 211.972 33.868 212.092 33.812C212.22 33.756 212.336 33.672 212.44 33.56C212.552 33.448 212.644 33.308 212.716 33.14C212.788 32.964 212.824 32.76 212.824 32.528V31.652H211.684V30.38H214.48V35H213.208V34.208H213.184C212.976 34.544 212.724 34.784 212.428 34.928C212.14 35.064 211.792 35.132 211.384 35.132C210.856 35.132 210.424 35.04 210.088 34.856C209.76 34.672 209.5 34.388 209.308 34.004C209.124 33.62 209 33.148 208.936 32.588C208.872 32.02 208.84 31.364 208.84 30.62C208.84 29.9 208.884 29.268 208.972 28.724C209.068 28.18 209.228 27.728 209.452 27.368C209.676 27 209.972 26.724 210.34 26.54C210.708 26.356 211.168 26.264 211.72 26.264C212.664 26.264 213.344 26.5 213.76 26.972C214.176 27.436 214.384 28.104 214.384 28.976H212.728ZM220.38 26.432V27.848H217.32V29.864H220.2V31.28H217.32V33.584H220.5V35H215.592V26.432H220.38Z" fill="black"/>
<path d="M259.158 15.2235H239.834C239.498 15.2235 239.23 14.9482 239.23 14.6118C239.23 14.2753 239.498 14 239.834 14H259.158C259.495 14 259.762 14.2753 259.762 14.6118C259.762 14.9482 259.495 15.2235 259.158 15.2235Z" fill="white"/>
<path d="M262.393 22.7329H236.63C236.408 22.7329 236.194 22.6182 236.087 22.427C235.98 22.2358 235.965 21.9988 236.08 21.8076L240.538 14.4359C240.706 14.1453 241.088 14.0612 241.371 14.2294C241.654 14.4053 241.754 14.78 241.578 15.0629L237.685 21.517H261.315L257.422 15.0629C257.247 14.78 257.338 14.4053 257.629 14.2294C257.904 14.0612 258.287 14.1453 258.462 14.4359L262.913 21.8076C263.028 21.9988 263.028 22.2358 262.921 22.427C262.814 22.6182 262.607 22.7329 262.393 22.7329Z" fill="white"/>
<path d="M239.2 25.3404C237.433 25.3404 236.003 23.9105 236.003 22.1516C236.003 21.8075 236.278 21.5322 236.623 21.5322C236.959 21.5322 237.234 21.8075 237.234 22.1516C237.234 23.2299 238.114 24.1093 239.2 24.1093C240.27 24.1093 241.157 23.2299 241.157 22.1516C241.157 21.8075 241.433 21.5322 241.769 21.5322C242.106 21.5322 242.381 21.8075 242.381 22.1516C242.381 23.9105 240.951 25.3404 239.2 25.3404Z" fill="white"/>
<path d="M244.346 25.3404C242.587 25.3404 241.15 23.9105 241.15 22.1516C241.15 21.8075 241.432 21.5322 241.769 21.5322C242.105 21.5322 242.381 21.8075 242.381 22.1516C242.381 23.2299 243.26 24.1093 244.346 24.1093C245.424 24.1093 246.304 23.2299 246.304 22.1516C246.304 21.8075 246.579 21.5322 246.923 21.5322C247.26 21.5322 247.535 21.8075 247.535 22.1516C247.535 23.9105 246.105 25.3404 244.346 25.3404Z" fill="white"/>
<path d="M249.5 25.3404C247.741 25.3404 246.304 23.9105 246.304 22.1516C246.304 21.8075 246.579 21.5322 246.923 21.5322C247.26 21.5322 247.535 21.8075 247.535 22.1516C247.535 23.2299 248.414 24.1093 249.5 24.1093C250.578 24.1093 251.458 23.2299 251.458 22.1516C251.458 21.8075 251.733 21.5322 252.07 21.5322C252.414 21.5322 252.689 21.8075 252.689 22.1516C252.689 23.9105 251.259 25.3404 249.5 25.3404Z" fill="white"/>
<path d="M254.646 25.3404C252.888 25.3404 251.458 23.9105 251.458 22.1516C251.458 21.8075 251.733 21.5322 252.069 21.5322C252.413 21.5322 252.689 21.8075 252.689 22.1516C252.689 23.2299 253.568 24.1093 254.646 24.1093C255.732 24.1093 256.612 23.2299 256.612 22.1516C256.612 21.8075 256.887 21.5322 257.223 21.5322C257.56 21.5322 257.835 21.8075 257.835 22.1516C257.835 23.9105 256.405 25.3404 254.646 25.3404Z" fill="white"/>
<path d="M259.801 25.3404C258.042 25.3404 256.612 23.9105 256.612 22.1516C256.612 21.8075 256.887 21.5322 257.224 21.5322C257.56 21.5322 257.835 21.8075 257.835 22.1516C257.835 23.2299 258.715 24.1093 259.801 24.1093C260.879 24.1093 261.758 23.2299 261.758 22.1516C261.758 21.8075 262.034 21.5322 262.378 21.5322C262.714 21.5322 262.989 21.8075 262.989 22.1516C262.989 23.9105 261.559 25.3404 259.801 25.3404Z" fill="white"/>
<path d="M259.969 38.83H239.024C238.687 38.83 238.412 38.5547 238.412 38.2182V24.7288C238.412 24.3847 238.687 24.1094 239.024 24.1094C239.368 24.1094 239.643 24.3847 239.643 24.7288V37.6064H259.357V24.7441C259.357 24.4077 259.633 24.1324 259.969 24.1324C260.305 24.1324 260.588 24.4077 260.588 24.7441V38.2182C260.588 38.5547 260.305 38.83 259.969 38.83Z" fill="white"/>
<path d="M247.497 38.6999C247.16 38.6999 246.877 38.4246 246.877 38.0881V23.75C246.877 23.4058 247.16 23.1306 247.497 23.1306C247.833 23.1306 248.108 23.4058 248.108 23.75V38.0881C248.108 38.4246 247.833 38.6999 247.497 38.6999Z" fill="white"/>
<path d="M245.248 32.5976C244.912 32.5976 244.637 32.3223 244.637 31.9782V27.4894C244.637 27.1529 244.912 26.8776 245.248 26.8776C245.585 26.8776 245.868 27.1529 245.868 27.4894V31.9782C245.868 32.3223 245.585 32.5976 245.248 32.5976Z" fill="white"/>
<path d="M252.482 31.8481C252.329 31.8481 252.169 31.7869 252.054 31.6646C251.809 31.4275 251.809 31.0375 252.054 30.8005L256.038 26.8087C256.283 26.564 256.673 26.564 256.91 26.8087C257.147 27.0458 257.147 27.4358 256.91 27.6728L252.918 31.6646C252.796 31.7869 252.643 31.8481 252.482 31.8481Z" fill="white"/>
<path d="M254.234 33.8439C254.073 33.8439 253.912 33.7828 253.798 33.6604C253.553 33.4234 253.553 33.0334 253.798 32.7963L256.168 30.4257C256.405 30.181 256.795 30.181 257.032 30.4257C257.277 30.6628 257.277 31.0528 257.032 31.2898L254.669 33.6604C254.547 33.7828 254.386 33.8439 254.234 33.8439Z" fill="white"/>
<path d="M236.41 43H237.98L238.68 48.01H238.7L239.4 43H240.97V50H239.93V44.7H239.91L239.11 50H238.19L237.39 44.7H237.37V50H236.41V43ZM242.641 43H244.131L245.271 50H244.171L243.971 48.61V48.63H242.721L242.521 50H241.501L242.641 43ZM243.841 47.68L243.351 44.22H243.331L242.851 47.68H243.841ZM247.345 50.1C246.812 50.1 246.405 49.95 246.125 49.65C245.845 49.3433 245.705 48.9067 245.705 48.34V44.66C245.705 44.0933 245.845 43.66 246.125 43.36C246.405 43.0533 246.812 42.9 247.345 42.9C247.878 42.9 248.285 43.0533 248.565 43.36C248.845 43.66 248.985 44.0933 248.985 44.66V45.26H247.945V44.59C247.945 44.13 247.755 43.9 247.375 43.9C246.995 43.9 246.805 44.13 246.805 44.59V48.42C246.805 48.8733 246.995 49.1 247.375 49.1C247.755 49.1 247.945 48.8733 247.945 48.42V47.05H247.395V46.05H248.985V48.34C248.985 48.9067 248.845 49.3433 248.565 49.65C248.285 49.95 247.878 50.1 247.345 50.1ZM250.541 43H252.031L253.171 50H252.071L251.871 48.61V48.63H250.621L250.421 50H249.401L250.541 43ZM251.741 47.68L251.251 44.22H251.231L250.751 47.68H251.741ZM255.106 50.1C254.572 50.1 254.169 49.95 253.896 49.65C253.622 49.3433 253.486 48.9067 253.486 48.34V47.94H254.526V48.42C254.526 48.8733 254.716 49.1 255.096 49.1C255.282 49.1 255.422 49.0467 255.516 48.94C255.616 48.8267 255.666 48.6467 255.666 48.4C255.666 48.1067 255.599 47.85 255.466 47.63C255.332 47.4033 255.086 47.1333 254.726 46.82C254.272 46.42 253.956 46.06 253.776 45.74C253.596 45.4133 253.506 45.0467 253.506 44.64C253.506 44.0867 253.646 43.66 253.926 43.36C254.206 43.0533 254.612 42.9 255.146 42.9C255.672 42.9 256.069 43.0533 256.336 43.36C256.609 43.66 256.746 44.0933 256.746 44.66V44.95H255.706V44.59C255.706 44.35 255.659 44.1767 255.566 44.07C255.472 43.9567 255.336 43.9 255.156 43.9C254.789 43.9 254.606 44.1233 254.606 44.57C254.606 44.8233 254.672 45.06 254.806 45.28C254.946 45.5 255.196 45.7667 255.556 46.08C256.016 46.48 256.332 46.8433 256.506 47.17C256.679 47.4967 256.766 47.88 256.766 48.32C256.766 48.8933 256.622 49.3333 256.336 49.64C256.056 49.9467 255.646 50.1 255.106 50.1ZM257.396 43H258.496V50H257.396V43ZM259.32 43H260.7L261.77 47.19H261.79V43H262.77V50H261.64L260.32 44.89H260.3V50H259.32V43Z" fill="white"/>
</g>
<defs>
<clipPath id="clip0_66_2148">
<rect width="280" height="61" fill="white"/>
</clipPath>
</defs>
</svg>
