<svg width="312" height="61" viewBox="0 0 312 61" fill="none" xmlns="http://www.w3.org/2000/svg">
<g clip-path="url(#clip0_66_2186)">
<path d="M24.6979 60.4688C11.0781 60.4688 0 49.5208 0 36.0625V0H286.948C300.563 0 311.641 10.9479 311.641 24.4062V60.4688" fill="white"/>
<path d="M244.083 52.9114H69.1353C59.6874 52.9114 51.9999 45.3541 51.9999 36.0625V7.55725H226.948C236.396 7.55725 244.083 15.1145 244.083 24.4062V52.9114ZM227 6L50.1667 5.66663L50.1145 36.0625C50.1145 46.3958 58.6458 54.802 69.1353 54.802L245.969 55V24.4062C245.969 14.0729 237.49 6 227 6Z" fill="#010101"/>
<path d="M102.901 5.66663H50.1145V36.0625C50.1145 46.3958 58.6458 54.802 69.1353 54.802H121.927V24.4062C121.927 14.0729 113.391 5.66663 102.901 5.66663Z" fill="#010101"/>
<path d="M63.651 29.3594C58.8489 29.3594 54.9583 33.25 54.9583 38.0521C54.9583 42.8542 58.8489 46.7448 63.651 46.7448C68.4583 46.7448 72.3489 42.8542 72.3489 38.0521C72.3489 33.25 68.4583 29.3594 63.651 29.3594Z" fill="white"/>
<path d="M69.3229 39.4688H65.0729V43.7188H62.2344V39.4688H57.9844V36.6355H62.2344V32.3802H65.0729V36.6355H69.3229" fill="#1C1C1B"/>
<path d="M55.7864 26.5937V17.1979H58.2708V24.5156H61.828V26.5937" fill="white"/>
<path d="M62.9426 26.5937V17.1979H69.0155V19.276H65.4322V20.7552H68.4947V22.8385H65.4322V24.5156H69.1614V26.5937" fill="white"/>
<path d="M75.0885 26.5937V19.276H72.6041V17.1979H80.0677V19.276H77.5781V26.5937" fill="white"/>
<path d="M83.5521 21.4739H84.4479C85.4479 21.4739 85.9531 21.0625 85.9531 20.2343C85.9531 19.8281 85.8229 19.5468 85.5677 19.3958C85.3125 19.2395 84.9375 19.1614 84.4479 19.1614H83.5521V21.4739ZM81.0625 26.5989V17.1979H84.6198C85.125 17.1979 85.6042 17.2448 86.0625 17.3385C86.5208 17.4375 86.9167 17.5989 87.2604 17.8333C87.6042 18.0625 87.875 18.375 88.0781 18.7656C88.2813 19.1562 88.3802 19.6458 88.3802 20.2343C88.3802 20.9062 88.2448 21.4687 87.9688 21.9114C87.6979 22.3541 87.3281 22.6979 86.8646 22.9531L88.901 26.5989H86.125L84.5052 23.4427H83.5521V26.5989" fill="white"/>
<path d="M89.8698 26.5989H92.3593V17.1979H89.8698V26.5989Z" fill="white"/>
<path d="M75.3801 43.276V33.8698H81.5103V35.9531H77.8697V37.75H80.9895V39.8333H77.8697V43.276" fill="white"/>
<path d="M84.9218 38.7031L84.7604 39.3541H86.4948L86.3385 38.7031C86.2239 38.25 86.1041 37.7604 85.9895 37.2291C85.875 36.6979 85.7604 36.1979 85.6406 35.7239H85.5833C85.4791 36.2031 85.3698 36.7083 85.2604 37.2343C85.151 37.7604 85.0364 38.25 84.9218 38.7031ZM81.3073 43.276L84.1666 33.8698H87.1718L90.0364 43.276H87.4062L86.9427 41.276H84.3125L83.8489 43.276" fill="white"/>
<path d="M94.5624 43.4479C93.9687 43.4479 93.3958 43.3489 92.8541 43.151C92.3072 42.9531 91.8333 42.651 91.4218 42.2552C91.0103 41.8541 90.6822 41.3541 90.4426 40.75C90.203 40.1458 90.0833 39.4479 90.0833 38.6458C90.0833 37.8541 90.2083 37.151 90.4583 36.5416C90.7083 35.927 91.0416 35.4114 91.4635 34.9948C91.8801 34.5729 92.3645 34.25 92.9114 34.0312C93.4583 33.8073 94.026 33.6979 94.6249 33.6979C95.2499 33.6979 95.8124 33.8229 96.302 34.0677C96.7968 34.3125 97.2083 34.6041 97.5468 34.9427L96.2447 36.5312C96.0155 36.3333 95.776 36.1666 95.5312 36.0312C95.2812 35.9062 94.9999 35.8385 94.6822 35.8385C94.401 35.8385 94.1405 35.901 93.8958 36.026C93.651 36.151 93.4322 36.3333 93.2447 36.5625C93.0572 36.7916 92.9062 37.0781 92.7968 37.4166C92.6822 37.75 92.6301 38.1354 92.6301 38.5573C92.6301 39.4479 92.8124 40.125 93.1874 40.5989C93.5572 41.0677 94.0468 41.3073 94.651 41.3073C95.0208 41.3073 95.3437 41.2291 95.6301 41.0677C95.9114 40.9062 96.1562 40.7187 96.3593 40.4948L97.6614 42.0573C97.2551 42.5208 96.7916 42.8698 96.2655 43.0989C95.7395 43.3333 95.1718 43.4479 94.5624 43.4479Z" fill="white"/>
<path d="M98.6198 43.276H101.104V33.8698H98.6198V43.276Z" fill="white"/>
<path d="M102.875 43.276V33.8698H105.365V41.1927H108.922V43.276" fill="white"/>
<path d="M110.031 43.276V33.8698H116.109V35.9531H112.521V37.4323H115.589V39.5156H112.521V41.1927H116.255V43.276" fill="white"/>
<path fill-rule="evenodd" clip-rule="evenodd" d="M16.2604 29.1927C16.2604 29.1927 15.9115 29.151 15.6771 29.7968L13.5573 35.7083C15.224 37.1198 17.1823 38.1823 19.3281 38.8073L16.7552 29.7708C16.5781 29.125 16.2604 29.1927 16.2604 29.1927ZM5.67188 23.6979C5.67188 13.7552 13.7604 5.66663 23.7031 5.66663C28.9635 5.66663 33.7083 7.93225 37.0052 11.5364L35.3906 13.177C32.5104 9.97913 28.3385 7.9635 23.7031 7.9635C15.026 7.9635 7.96875 15.0208 7.96875 23.6979C7.96875 27.5208 9.34375 31.0312 11.6198 33.7604L14.2656 20.7968C14.7396 18.5104 16.8854 16.7552 19.0521 17.1562C20.6406 17.4583 28.0938 22.3958 28.0938 22.3958C28.7292 22.802 28.375 23.3489 28.375 23.3489C28.375 23.3489 28.0729 23.875 27.4479 23.6041L21.9792 21.4062C21.0052 20.9948 19.4323 21.4323 19.6667 24.1875L21.3802 38.7864L21.4531 39.2656C22.1875 39.375 22.9375 39.4323 23.7031 39.4323C24.1875 39.4323 24.6719 39.401 25.1458 39.3541L25.0052 37.4531L28.6979 40.2708L25.3958 43.4635L25.276 41.651C24.7552 41.6979 24.2344 41.7291 23.7031 41.7291C13.7604 41.7291 5.67188 33.6406 5.67188 23.6979ZM19.9375 16.4115C18.4167 16.4115 17.1875 15.1823 17.1875 13.6562C17.1875 12.1354 18.4167 10.9062 19.9375 10.9062C21.4583 10.9062 22.6927 12.1354 22.6927 13.6562C22.6927 15.1823 21.4583 16.4115 19.9375 16.4115ZM37.1046 24.564C37.7365 24.0543 39.7005 22.4703 40.1613 19.1927L40.2342 18.1823L42.0519 18.2864L38.0259 12.8541L33.2134 17.6927L34.979 17.7656L34.9998 17.7708C35.0415 17.9687 35.2446 19.2656 34.5571 21.3177C33.7967 23.6041 31.4373 26.2916 28.4634 25.8177C32.6457 27.5677 36.0311 25.4375 37.0936 24.5729L37.1046 24.564ZM28.375 25.8489C29.5781 28.6093 33.1146 29.1406 35.4479 28.552C37.5208 28.026 38.5052 27.1718 38.6719 27.0156L38.6615 27L37.776 25.4635L44.4427 26.9218L42.0312 33.2395L41.1354 31.6458L40.2656 32.1198C37.2654 33.4985 34.8744 32.7065 34.0978 32.4492L34.0781 32.4427C32.7812 32.0156 29.1562 30.3125 28.375 25.8489ZM28.4062 25.7448C26.7135 28.2343 28.151 31.5104 29.8958 33.1718C31.4895 34.6823 32.7655 35.0364 32.9322 35.0781L33.7447 33.5208L36.0885 39.9323L29.4635 41.2812L30.3437 39.6458L29.4478 39.1458C26.6887 37.3493 26.0817 34.9168 25.8818 34.1162L25.8749 34.0885C25.5416 32.7604 25.0468 28.7864 28.4062 25.7448Z" fill="#010101"/>
<path d="M131.328 25.728H132C132.416 25.728 132.752 25.636 133.008 25.452C133.264 25.268 133.392 24.928 133.392 24.432C133.392 24.184 133.356 23.98 133.284 23.82C133.22 23.652 133.128 23.52 133.008 23.424C132.896 23.32 132.76 23.248 132.6 23.208C132.44 23.168 132.264 23.148 132.072 23.148H131.328V25.728ZM131.328 21.948H131.82C132.3 21.948 132.648 21.864 132.864 21.696C133.088 21.52 133.2 21.228 133.2 20.82C133.2 20.412 133.1 20.124 132.9 19.956C132.7 19.788 132.384 19.704 131.952 19.704H131.328V21.948ZM129.6 18.432H132.492C132.844 18.432 133.168 18.468 133.464 18.54C133.768 18.612 134.028 18.732 134.244 18.9C134.46 19.068 134.628 19.292 134.748 19.572C134.868 19.852 134.928 20.196 134.928 20.604C134.928 21.068 134.82 21.468 134.604 21.804C134.388 22.132 134.064 22.356 133.632 22.476V22.5C134.112 22.564 134.492 22.768 134.772 23.112C135.052 23.456 135.192 23.916 135.192 24.492C135.192 24.828 135.148 25.148 135.06 25.452C134.972 25.756 134.82 26.024 134.604 26.256C134.396 26.48 134.12 26.66 133.776 26.796C133.44 26.932 133.02 27 132.516 27H129.6V18.432ZM137.816 22.716C137.816 23.292 137.828 23.784 137.852 24.192C137.884 24.592 137.94 24.92 138.02 25.176C138.108 25.424 138.228 25.608 138.38 25.728C138.54 25.84 138.748 25.896 139.004 25.896C139.26 25.896 139.464 25.84 139.616 25.728C139.776 25.608 139.896 25.424 139.976 25.176C140.064 24.92 140.12 24.592 140.144 24.192C140.176 23.784 140.192 23.292 140.192 22.716C140.192 22.14 140.176 21.652 140.144 21.252C140.12 20.852 140.064 20.524 139.976 20.268C139.896 20.012 139.776 19.828 139.616 19.716C139.464 19.596 139.26 19.536 139.004 19.536C138.748 19.536 138.54 19.596 138.38 19.716C138.228 19.828 138.108 20.012 138.02 20.268C137.94 20.524 137.884 20.852 137.852 21.252C137.828 21.652 137.816 22.14 137.816 22.716ZM136.088 22.716C136.088 22.068 136.116 21.472 136.172 20.928C136.236 20.376 136.368 19.904 136.568 19.512C136.776 19.12 137.072 18.816 137.456 18.6C137.84 18.376 138.356 18.264 139.004 18.264C139.652 18.264 140.168 18.376 140.552 18.6C140.936 18.816 141.228 19.12 141.428 19.512C141.636 19.904 141.768 20.376 141.824 20.928C141.888 21.472 141.92 22.068 141.92 22.716C141.92 23.372 141.888 23.972 141.824 24.516C141.768 25.06 141.636 25.528 141.428 25.92C141.228 26.312 140.936 26.612 140.552 26.82C140.168 27.028 139.652 27.132 139.004 27.132C138.356 27.132 137.84 27.028 137.456 26.82C137.072 26.612 136.776 26.312 136.568 25.92C136.368 25.528 136.236 25.06 136.172 24.516C136.116 23.972 136.088 23.372 136.088 22.716ZM144.556 18.432V24.408C144.556 24.624 144.568 24.824 144.592 25.008C144.624 25.184 144.676 25.34 144.748 25.476C144.828 25.604 144.932 25.708 145.06 25.788C145.196 25.86 145.364 25.896 145.564 25.896C145.772 25.896 145.94 25.86 146.068 25.788C146.196 25.708 146.296 25.604 146.368 25.476C146.448 25.34 146.5 25.184 146.524 25.008C146.556 24.824 146.572 24.624 146.572 24.408V18.432H148.3V24.408C148.3 24.952 148.224 25.404 148.072 25.764C147.92 26.116 147.716 26.396 147.46 26.604C147.204 26.812 146.912 26.952 146.584 27.024C146.256 27.096 145.916 27.132 145.564 27.132C145.212 27.132 144.872 27.1 144.544 27.036C144.216 26.972 143.924 26.844 143.668 26.652C143.412 26.452 143.208 26.172 143.056 25.812C142.904 25.452 142.828 24.984 142.828 24.408V18.432H144.556ZM153.197 20.976C153.197 20.816 153.177 20.652 153.137 20.484C153.105 20.316 153.049 20.164 152.969 20.028C152.889 19.884 152.785 19.768 152.657 19.68C152.537 19.584 152.389 19.536 152.213 19.536C151.797 19.536 151.497 19.768 151.313 20.232C151.129 20.696 151.037 21.464 151.037 22.536C151.037 23.048 151.053 23.512 151.085 23.928C151.117 24.344 151.173 24.7 151.253 24.996C151.341 25.284 151.461 25.508 151.613 25.668C151.773 25.82 151.977 25.896 152.225 25.896C152.329 25.896 152.441 25.868 152.561 25.812C152.689 25.756 152.805 25.672 152.909 25.56C153.021 25.448 153.113 25.308 153.185 25.14C153.257 24.964 153.293 24.76 153.293 24.528V23.652H152.153V22.38H154.949V27H153.677V26.208H153.653C153.445 26.544 153.193 26.784 152.897 26.928C152.609 27.064 152.261 27.132 151.853 27.132C151.325 27.132 150.893 27.04 150.557 26.856C150.229 26.672 149.969 26.388 149.777 26.004C149.593 25.62 149.469 25.148 149.405 24.588C149.341 24.02 149.309 23.364 149.309 22.62C149.309 21.9 149.353 21.268 149.441 20.724C149.537 20.18 149.697 19.728 149.921 19.368C150.145 19 150.441 18.724 150.809 18.54C151.177 18.356 151.637 18.264 152.189 18.264C153.133 18.264 153.813 18.5 154.229 18.972C154.645 19.436 154.853 20.104 154.853 20.976H153.197ZM156.145 27V18.432H157.873V27H156.145ZM163.943 18.432V19.848H160.883V21.864H163.763V23.28H160.883V25.584H164.063V27H159.155V18.432H163.943ZM166.324 24.324V24.576C166.324 24.776 166.34 24.96 166.372 25.128C166.404 25.288 166.464 25.424 166.552 25.536C166.64 25.648 166.756 25.736 166.9 25.8C167.052 25.864 167.24 25.896 167.464 25.896C167.728 25.896 167.964 25.812 168.172 25.644C168.388 25.468 168.496 25.2 168.496 24.84C168.496 24.648 168.468 24.484 168.412 24.348C168.364 24.204 168.28 24.076 168.16 23.964C168.04 23.852 167.88 23.752 167.68 23.664C167.488 23.568 167.248 23.472 166.96 23.376C166.576 23.248 166.244 23.108 165.964 22.956C165.684 22.804 165.448 22.628 165.256 22.428C165.072 22.22 164.936 21.984 164.848 21.72C164.76 21.448 164.716 21.136 164.716 20.784C164.716 19.936 164.952 19.304 165.424 18.888C165.896 18.472 166.544 18.264 167.368 18.264C167.752 18.264 168.104 18.308 168.424 18.396C168.752 18.476 169.032 18.612 169.264 18.804C169.504 18.988 169.688 19.228 169.816 19.524C169.952 19.812 170.02 20.16 170.02 20.568V20.808H168.364C168.364 20.4 168.292 20.088 168.148 19.872C168.004 19.648 167.764 19.536 167.428 19.536C167.236 19.536 167.076 19.564 166.948 19.62C166.82 19.676 166.716 19.752 166.636 19.848C166.564 19.936 166.512 20.04 166.48 20.16C166.456 20.28 166.444 20.404 166.444 20.532C166.444 20.796 166.5 21.02 166.612 21.204C166.724 21.38 166.964 21.544 167.332 21.696L168.664 22.272C168.992 22.416 169.26 22.568 169.468 22.728C169.676 22.88 169.84 23.048 169.96 23.232C170.088 23.408 170.176 23.604 170.224 23.82C170.272 24.036 170.296 24.276 170.296 24.54C170.296 25.444 170.032 26.104 169.504 26.52C168.984 26.928 168.256 27.132 167.32 27.132C166.344 27.132 165.644 26.92 165.22 26.496C164.804 26.072 164.596 25.464 164.596 24.672V24.324H166.324ZM131.412 40.728H132.18C132.484 40.728 132.728 40.676 132.912 40.572C133.096 40.468 133.24 40.296 133.344 40.056C133.456 39.816 133.528 39.5 133.56 39.108C133.6 38.716 133.62 38.228 133.62 37.644C133.62 37.156 133.604 36.728 133.572 36.36C133.54 35.992 133.472 35.688 133.368 35.448C133.272 35.2 133.124 35.016 132.924 34.896C132.732 34.768 132.472 34.704 132.144 34.704H131.412V40.728ZM129.684 33.432H132.516C133.116 33.432 133.6 33.532 133.968 33.732C134.336 33.924 134.62 34.204 134.82 34.572C135.028 34.932 135.168 35.368 135.24 35.88C135.312 36.392 135.348 36.964 135.348 37.596C135.348 38.348 135.3 39.004 135.204 39.564C135.116 40.116 134.96 40.572 134.736 40.932C134.512 41.292 134.212 41.56 133.836 41.736C133.46 41.912 132.984 42 132.408 42H129.684V33.432ZM141.279 33.432V34.848H138.219V36.864H141.099V38.28H138.219V40.584H141.399V42H136.491V33.432H141.279ZM145.187 33.432H147.755L148.979 39.48H149.003L150.239 33.432H152.795V42H151.211V35.16H151.187L149.663 42H148.319L146.795 35.16H146.771V42H145.187V33.432ZM155.582 37.716C155.582 38.292 155.594 38.784 155.618 39.192C155.65 39.592 155.706 39.92 155.786 40.176C155.874 40.424 155.994 40.608 156.146 40.728C156.306 40.84 156.514 40.896 156.77 40.896C157.026 40.896 157.23 40.84 157.382 40.728C157.542 40.608 157.662 40.424 157.742 40.176C157.83 39.92 157.886 39.592 157.91 39.192C157.942 38.784 157.958 38.292 157.958 37.716C157.958 37.14 157.942 36.652 157.91 36.252C157.886 35.852 157.83 35.524 157.742 35.268C157.662 35.012 157.542 34.828 157.382 34.716C157.23 34.596 157.026 34.536 156.77 34.536C156.514 34.536 156.306 34.596 156.146 34.716C155.994 34.828 155.874 35.012 155.786 35.268C155.706 35.524 155.65 35.852 155.618 36.252C155.594 36.652 155.582 37.14 155.582 37.716ZM153.854 37.716C153.854 37.068 153.882 36.472 153.938 35.928C154.002 35.376 154.134 34.904 154.334 34.512C154.542 34.12 154.838 33.816 155.222 33.6C155.606 33.376 156.122 33.264 156.77 33.264C157.418 33.264 157.934 33.376 158.318 33.6C158.702 33.816 158.994 34.12 159.194 34.512C159.402 34.904 159.534 35.376 159.59 35.928C159.654 36.472 159.686 37.068 159.686 37.716C159.686 38.372 159.654 38.972 159.59 39.516C159.534 40.06 159.402 40.528 159.194 40.92C158.994 41.312 158.702 41.612 158.318 41.82C157.934 42.028 157.418 42.132 156.77 42.132C156.122 42.132 155.606 42.028 155.222 41.82C154.838 41.612 154.542 41.312 154.334 40.92C154.134 40.528 154.002 40.06 153.938 39.516C153.882 38.972 153.854 38.372 153.854 37.716ZM165.718 33.432V34.848H163.846V42H162.118V34.848H160.246V33.432H165.718ZM171.255 33.432V34.848H168.195V36.864H171.075V38.28H168.195V40.584H171.375V42H166.467V33.432H171.255ZM173.865 33.432V39.408C173.865 39.624 173.877 39.824 173.901 40.008C173.933 40.184 173.985 40.34 174.057 40.476C174.137 40.604 174.241 40.708 174.369 40.788C174.505 40.86 174.673 40.896 174.873 40.896C175.081 40.896 175.249 40.86 175.377 40.788C175.505 40.708 175.605 40.604 175.677 40.476C175.757 40.34 175.809 40.184 175.833 40.008C175.865 39.824 175.881 39.624 175.881 39.408V33.432H177.609V39.408C177.609 39.952 177.533 40.404 177.381 40.764C177.229 41.116 177.025 41.396 176.769 41.604C176.513 41.812 176.221 41.952 175.893 42.024C175.565 42.096 175.225 42.132 174.873 42.132C174.521 42.132 174.181 42.1 173.853 42.036C173.525 41.972 173.233 41.844 172.977 41.652C172.721 41.452 172.517 41.172 172.365 40.812C172.213 40.452 172.137 39.984 172.137 39.408V33.432H173.865ZM178.702 33.432H181.894C182.614 33.432 183.174 33.616 183.574 33.984C183.974 34.344 184.174 34.896 184.174 35.64C184.174 36.216 184.058 36.688 183.826 37.056C183.594 37.416 183.234 37.648 182.746 37.752V37.776C183.178 37.84 183.494 37.98 183.694 38.196C183.894 38.412 184.018 38.76 184.066 39.24C184.082 39.4 184.094 39.576 184.102 39.768C184.11 39.952 184.118 40.16 184.126 40.392C184.142 40.848 184.166 41.196 184.198 41.436C184.246 41.676 184.35 41.84 184.51 41.928V42H182.638C182.55 41.88 182.494 41.744 182.47 41.592C182.446 41.432 182.43 41.268 182.422 41.1L182.374 39.456C182.358 39.12 182.274 38.856 182.122 38.664C181.97 38.472 181.714 38.376 181.354 38.376H180.43V42H178.702V33.432ZM180.43 37.176H181.15C181.566 37.176 181.886 37.08 182.11 36.888C182.334 36.688 182.446 36.356 182.446 35.892C182.446 35.1 182.046 34.704 181.246 34.704H180.43V37.176Z" fill="black"/>
<path d="M191 6H217V55H210H191L204.5 28.5L191 6Z" fill="#010101"/>
<path d="M217 6H288C297.941 6 306 14.0589 306 24V55H217V6Z" fill="black"/>
<rect x="217" y="8" width="31" height="31" fill="black"/>
<path fill-rule="evenodd" clip-rule="evenodd" d="M230.109 14.1063C229.715 13.9593 229.442 13.9112 229.26 13.9138C229.076 13.9164 229.017 13.9696 229.005 13.983C228.994 13.9948 228.976 14.0235 228.975 14.1029C228.974 14.1628 228.984 14.2337 229.004 14.3061L231.457 16.7194H233.07C233.35 16.3731 233.982 15.6937 235.041 14.766C235.332 14.5109 235.438 14.3351 235.469 14.2426C235.486 14.1909 235.48 14.1822 235.466 14.1637L235.464 14.1606C235.428 14.1114 235.342 14.0437 235.193 13.9816C235.059 13.9255 234.904 13.8872 234.762 13.8665C234.659 13.8692 234.582 13.8932 234.446 13.9423L234.419 13.9521C234.371 13.9696 234.335 13.9876 234.3 14.0059C234.226 14.0437 234.15 14.0826 233.951 14.1204C233.636 14.1804 233.41 14.185 233.155 14.124C232.99 14.0845 232.808 14.0142 232.587 13.9294C232.511 13.8998 232.429 13.8684 232.342 13.8359L232.34 13.8357C232.335 13.835 232.315 13.8327 232.278 13.8341C232.224 13.8361 232.153 13.8447 232.066 13.86C231.894 13.8904 231.691 13.9409 231.477 13.9945L231.464 13.9977C231.252 14.0505 231.026 14.1067 230.837 14.1369C230.742 14.1519 230.644 14.1628 230.554 14.1606L230.525 14.1602C230.431 14.1593 230.201 14.1571 230.109 14.1063ZM231.242 13.1757C230.947 13.2429 230.406 13.3023 230.406 13.3023C230.09 13.2908 229.86 13.2277 229.667 13.1747C229.513 13.1326 229.383 13.0968 229.251 13.0987C228.953 13.1029 228.694 13.1923 228.508 13.3963C228.321 13.6018 228.262 13.8653 228.259 14.0916C228.257 14.3145 228.307 14.5303 228.37 14.7023L228.402 14.7912L230.578 16.9319C229.757 17.1125 228.88 17.4785 228.072 18.1145C226.533 19.3262 225.301 21.4723 225.126 25.024C225.115 25.2552 225.102 25.4899 225.09 25.7262C225.038 26.698 224.984 27.698 225.004 28.6023C225.029 29.71 225.162 30.7759 225.615 31.5044C226.429 32.813 227.76 33.4463 229.037 33.7444C230.31 34.0416 231.582 34.019 232.369 33.9721C233.089 33.9584 234.275 33.9154 235.49 33.6601C236.701 33.4057 238.004 32.9283 238.895 31.9992C239.611 31.2516 239.855 30.1504 239.929 28.9703C239.987 28.0415 239.943 26.9912 239.898 25.9219L239.898 25.9218L239.898 25.9216C239.886 25.6252 239.873 25.3272 239.863 25.03C239.746 21.692 238.518 19.598 236.98 18.3585C235.982 17.5541 234.871 17.124 233.887 16.9376C234.206 16.5912 234.724 16.0726 235.477 15.4121C235.806 15.1237 236.036 14.8353 236.137 14.5344C236.251 14.1954 236.189 13.8795 236.014 13.6398C235.86 13.4286 235.636 13.2982 235.439 13.216C235.234 13.1306 235.014 13.0793 234.824 13.0539L234.803 13.0511H234.782C234.552 13.0511 234.386 13.1088 234.23 13.1653L234.204 13.1747C234.062 13.2261 233.907 13.282 233.663 13.3284C233.449 13.3691 233.436 13.3656 233.355 13.3435L233.355 13.3435L233.355 13.3435C233.339 13.3391 233.32 13.334 233.297 13.3284C233.176 13.2994 233.051 13.2515 232.854 13.1757C232.847 13.1727 232.833 13.1658 232.815 13.1563C232.723 13.1093 232.511 13 232.269 13C231.911 13 231.568 13.0906 231.362 13.1452C231.314 13.1578 231.273 13.1685 231.242 13.1757ZM228.598 18.7826C227.294 19.8098 226.141 21.7024 225.975 25.0658C225.964 25.3062 225.951 25.5471 225.938 25.7873L225.938 25.7873L225.938 25.7874C225.886 26.7564 225.835 27.7147 225.854 28.5836C225.879 29.6845 226.017 30.5403 226.337 31.0555C226.986 32.0991 228.071 32.6458 229.23 32.9165C230.389 33.1869 231.569 33.1684 232.327 33.1229L232.336 33.1224L232.345 33.1222C233.051 33.1089 234.176 33.0673 235.316 32.828C236.465 32.5867 237.566 32.1565 238.281 31.411C238.778 30.8917 239.009 30.0543 239.08 28.9168C239.136 28.0371 239.094 27.048 239.05 25.9868L239.05 25.9866C239.037 25.6833 239.024 25.3741 239.013 25.0598C238.903 21.9361 237.769 20.0859 236.447 19.0204C235.443 18.2117 234.307 17.8352 233.37 17.7159C234.146 18.5301 235.026 19.349 235.507 19.6446L235.061 20.3687C234.86 20.1673 234.557 19.9036 234.208 19.5994L234.208 19.5994C233.705 19.1614 233.106 18.6395 232.574 18.0991C232.548 18.4454 232.525 18.8325 232.515 19.1999C232.507 19.5164 232.509 19.8104 232.526 20.048C232.534 20.1669 232.546 20.2653 232.56 20.3418C232.567 20.3798 232.574 20.4092 232.581 20.4311C232.587 20.4519 232.591 20.4611 232.591 20.462L232.652 20.7938L231.831 20.8422C231.732 20.6443 231.696 20.3607 231.678 20.1075C231.659 19.8317 231.657 19.5076 231.666 19.1781C231.672 18.9159 231.685 18.6454 231.702 18.3858C231.011 19.0527 230.284 19.6307 229.748 20.0572C229.673 20.1168 229.601 20.1734 229.535 20.227L229.089 19.5029C229.561 19.1737 230.435 18.4574 231.209 17.6831C230.385 17.7926 229.447 18.1141 228.598 18.7826Z" fill="white"/>
<path d="M222.263 43.1H223.397C223.78 43.1 224.067 43.2027 224.258 43.408C224.449 43.6133 224.545 43.9143 224.545 44.311V44.794C224.545 45.1907 224.449 45.4917 224.258 45.697C224.067 45.9023 223.78 46.005 223.397 46.005H223.033V48H222.263V43.1ZM223.397 45.305C223.523 45.305 223.616 45.27 223.677 45.2C223.742 45.13 223.775 45.011 223.775 44.843V44.262C223.775 44.094 223.742 43.975 223.677 43.905C223.616 43.835 223.523 43.8 223.397 43.8H223.033V45.305H223.397ZM226.076 48.07C225.698 48.07 225.409 47.9627 225.208 47.748C225.008 47.5333 224.907 47.23 224.907 46.838V44.262C224.907 43.87 225.008 43.5667 225.208 43.352C225.409 43.1373 225.698 43.03 226.076 43.03C226.454 43.03 226.744 43.1373 226.944 43.352C227.145 43.5667 227.245 43.87 227.245 44.262V46.838C227.245 47.23 227.145 47.5333 226.944 47.748C226.744 47.9627 226.454 48.07 226.076 48.07ZM226.076 47.37C226.342 47.37 226.475 47.209 226.475 46.887V44.213C226.475 43.891 226.342 43.73 226.076 43.73C225.81 43.73 225.677 43.891 225.677 44.213V46.887C225.677 47.209 225.81 47.37 226.076 47.37ZM228.886 48.07C228.513 48.07 228.228 47.965 228.032 47.755C227.836 47.5403 227.738 47.2347 227.738 46.838V43.1H228.508V46.894C228.508 47.062 228.541 47.1833 228.606 47.258C228.676 47.3327 228.774 47.37 228.9 47.37C229.026 47.37 229.122 47.3327 229.187 47.258C229.257 47.1833 229.292 47.062 229.292 46.894V43.1H230.034V46.838C230.034 47.2347 229.936 47.5403 229.74 47.755C229.544 47.965 229.259 48.07 228.886 48.07ZM230.582 43.1H231.744C232.141 43.1 232.43 43.1933 232.612 43.38C232.794 43.562 232.885 43.8443 232.885 44.227V44.423C232.885 44.675 232.843 44.8803 232.759 45.039C232.68 45.1977 232.556 45.312 232.388 45.382V45.396C232.771 45.5267 232.962 45.8673 232.962 46.418V46.838C232.962 47.216 232.862 47.5053 232.661 47.706C232.465 47.902 232.176 48 231.793 48H230.582V43.1ZM231.653 45.095C231.807 45.095 231.922 45.0553 231.996 44.976C232.076 44.8967 232.115 44.7637 232.115 44.577V44.304C232.115 44.1267 232.083 43.9983 232.017 43.919C231.957 43.8397 231.859 43.8 231.723 43.8H231.352V45.095H231.653ZM231.793 47.3C231.929 47.3 232.029 47.265 232.094 47.195C232.16 47.1203 232.192 46.9943 232.192 46.817V46.39C232.192 46.166 232.153 46.012 232.073 45.928C231.999 45.8393 231.873 45.795 231.695 45.795H231.352V47.3H231.793ZM233.412 43.1H235.512V43.8H234.182V45.095H235.239V45.795H234.182V47.3H235.512V48H233.412V43.1ZM235.955 43.1H236.725V47.3H237.992V48H235.955V43.1ZM238.362 43.1H239.132V47.3H240.399V48H238.362V43.1ZM240.768 43.1H242.868V43.8H241.538V45.095H242.595V45.795H241.538V47.3H242.868V48H240.768V43.1Z" fill="white"/>
<path d="M255.59 31.07C255.212 31.07 254.923 30.9627 254.722 30.748C254.522 30.5333 254.421 30.23 254.421 29.838V27.262C254.421 26.87 254.522 26.5667 254.722 26.352C254.923 26.1373 255.212 26.03 255.59 26.03C255.968 26.03 256.258 26.1373 256.458 26.352C256.659 26.5667 256.759 26.87 256.759 27.262V29.838C256.759 30.23 256.659 30.5333 256.458 30.748C256.258 30.9627 255.968 31.07 255.59 31.07ZM255.59 30.37C255.856 30.37 255.989 30.209 255.989 29.887V27.213C255.989 26.891 255.856 26.73 255.59 26.73C255.324 26.73 255.191 26.891 255.191 27.213V29.887C255.191 30.209 255.324 30.37 255.59 30.37ZM258.4 31.07C258.027 31.07 257.742 30.965 257.546 30.755C257.35 30.5403 257.252 30.2347 257.252 29.838V26.1H258.022V29.894C258.022 30.062 258.055 30.1833 258.12 30.258C258.19 30.3327 258.288 30.37 258.414 30.37C258.54 30.37 258.636 30.3327 258.701 30.258C258.771 30.1833 258.806 30.062 258.806 29.894V26.1H259.548V29.838C259.548 30.2347 259.45 30.5403 259.254 30.755C259.058 30.965 258.773 31.07 258.4 31.07Z" fill="white"/>
<rect x="266" y="8" width="31" height="31" fill="black"/>
<path d="M269.11 43.1H270.286C270.668 43.1 270.955 43.2027 271.147 43.408C271.338 43.6133 271.434 43.9143 271.434 44.311V46.789C271.434 47.1857 271.338 47.4867 271.147 47.692C270.955 47.8973 270.668 48 270.286 48H269.11V43.1ZM270.272 47.3C270.398 47.3 270.493 47.2627 270.559 47.188C270.629 47.1133 270.664 46.992 270.664 46.824V44.276C270.664 44.108 270.629 43.9867 270.559 43.912C270.493 43.8373 270.398 43.8 270.272 43.8H269.88V47.3H270.272ZM271.954 43.1H274.054V43.8H272.724V45.095H273.781V45.795H272.724V47.3H274.054V48H271.954V43.1ZM273.074 41.966H273.914L273.165 42.771H272.584L273.074 41.966ZM275.581 48.07C275.213 48.07 274.93 47.965 274.734 47.755C274.543 47.545 274.447 47.2487 274.447 46.866V44.234C274.447 43.8513 274.543 43.555 274.734 43.345C274.93 43.135 275.213 43.03 275.581 43.03C275.95 43.03 276.23 43.135 276.421 43.345C276.617 43.555 276.715 43.8513 276.715 44.234V44.752H275.987V44.185C275.987 43.8817 275.859 43.73 275.602 43.73C275.346 43.73 275.217 43.8817 275.217 44.185V46.922C275.217 47.2207 275.346 47.37 275.602 47.37C275.859 47.37 275.987 47.2207 275.987 46.922V46.173H276.715V46.866C276.715 47.2487 276.617 47.545 276.421 47.755C276.23 47.965 275.95 48.07 275.581 48.07ZM277.176 43.1H277.946V45.095H278.772V43.1H279.542V48H278.772V45.795H277.946V48H277.176V43.1ZM280.116 43.1H282.216V43.8H280.886V45.095H281.943V45.795H280.886V47.3H282.216V48H280.116V43.1ZM280.256 41.966H281.096L281.586 42.771H281.005L280.256 41.966ZM283.261 43.8H282.456V43.1H284.836V43.8H284.031V48H283.261V43.8ZM285.208 43.1H287.308V43.8H285.978V45.095H287.035V45.795H285.978V47.3H287.308V48H285.208V43.1ZM287.751 43.1H288.892C289.289 43.1 289.578 43.1933 289.76 43.38C289.942 43.562 290.033 43.8443 290.033 44.227V44.528C290.033 45.0367 289.865 45.3587 289.529 45.494V45.508C289.716 45.564 289.847 45.6783 289.921 45.851C290.001 46.0237 290.04 46.2547 290.04 46.544V47.405C290.04 47.545 290.045 47.6593 290.054 47.748C290.064 47.832 290.087 47.916 290.124 48H289.34C289.312 47.9207 289.294 47.846 289.284 47.776C289.275 47.706 289.27 47.58 289.27 47.398V46.502C289.27 46.278 289.233 46.1217 289.158 46.033C289.088 45.9443 288.965 45.9 288.787 45.9H288.521V48H287.751V43.1ZM288.801 45.2C288.955 45.2 289.07 45.1603 289.144 45.081C289.224 45.0017 289.263 44.8687 289.263 44.682V44.304C289.263 44.1267 289.231 43.9983 289.165 43.919C289.105 43.8397 289.007 43.8 288.871 43.8H288.521V45.2H288.801ZM290.575 43.1H291.345V48H290.575V43.1ZM291.921 43.1H294.021V43.8H292.691V45.095H293.748V45.795H292.691V47.3H294.021V48H291.921V43.1Z" fill="white"/>
<path d="M275.988 32.4391L271.474 32.4342C271.217 32.4342 271.005 32.2268 271.005 31.9699L271 27.4806C271 27.2929 271.114 27.1201 271.291 27.0509C271.464 26.9769 271.667 27.0164 271.8 27.1497L272.684 28.0288L280.29 20.4577C280.473 20.2799 280.769 20.2799 280.952 20.4577L283.046 22.5418C283.135 22.6307 283.184 22.7443 283.184 22.8727C283.184 22.9962 283.135 23.1147 283.046 23.2036L275.44 30.7649L276.319 31.644C276.452 31.7773 276.492 31.9798 276.418 32.1527C276.349 32.3255 276.176 32.4391 275.988 32.4391ZM271.943 31.5008L274.852 31.5057L274.442 31.0958C274.26 30.913 274.26 30.6167 274.442 30.434L282.048 22.8727L280.621 21.4504L273.015 29.0166C272.832 29.1993 272.536 29.1993 272.353 29.0166L271.938 28.6116" fill="white"/>
<path d="M285.54 25.673C285.179 25.673 284.833 25.5347 284.567 25.2878C284.29 25.031 284.132 24.6803 284.117 24.3001L284.048 22.1517L284.987 22.1221L285.056 24.2704C285.061 24.3988 285.115 24.5174 285.209 24.6063C285.303 24.6952 285.436 24.7297 285.559 24.7396C285.688 24.7347 285.806 24.6803 285.895 24.5865C285.984 24.4927 286.029 24.3692 286.024 24.2408L285.92 21.3763L286.858 21.3467L286.962 24.2062C286.977 24.5865 286.844 24.947 286.582 25.2236C286.32 25.5002 285.969 25.6582 285.589 25.6681C285.569 25.673 285.555 25.673 285.54 25.673Z" fill="white"/>
<path d="M285.54 25.673C285.179 25.673 284.833 25.5347 284.567 25.2878C284.29 25.031 284.132 24.6803 284.117 24.3001L284.048 22.1517L284.987 22.1221L285.056 24.2704C285.061 24.3988 285.115 24.5174 285.209 24.6063C285.303 24.6952 285.436 24.7297 285.559 24.7396C285.688 24.7347 285.806 24.6803 285.895 24.5865C285.984 24.4927 286.029 24.3692 286.024 24.2408L285.92 21.3763L286.858 21.3467L286.962 24.2062C286.977 24.5865 286.844 24.947 286.582 25.2236C286.32 25.5002 285.969 25.6582 285.589 25.6681C285.569 25.673 285.555 25.673 285.54 25.673Z" fill="white"/>
<path d="M283.643 25.9941C283.278 25.9941 282.937 25.8607 282.67 25.6138C282.394 25.352 282.231 25.0014 282.221 24.6211L282.152 22.4727L283.09 22.4431L283.159 24.5915C283.164 24.7248 283.219 24.8433 283.312 24.9322C283.406 25.0211 283.53 25.0755 283.658 25.0607C283.925 25.0508 284.137 24.8285 284.127 24.5618L284.024 21.7023L284.962 21.6677L285.066 24.5273C285.095 25.3125 284.478 25.9644 283.693 25.9941C283.673 25.9941 283.658 25.9941 283.643 25.9941Z" fill="white"/>
<path d="M285.258 32.449C285.066 32.449 284.893 32.3305 284.824 32.1576C284.75 31.9848 284.789 31.7823 284.922 31.6489L285.806 30.7698L278.201 23.2037C278.018 23.0259 278.018 22.7295 278.201 22.5468L280.29 20.4627C280.463 20.2898 280.779 20.2898 280.952 20.4627L288.893 28.3597L288.226 29.0215L280.621 21.4553L279.193 22.8777L286.799 30.4389C286.987 30.6217 286.987 30.9229 286.799 31.1007L286.389 31.5107H289.298L289.303 27.4856H290.241L290.236 31.9749C290.236 32.2317 290.029 32.4391 289.767 32.4391L285.258 32.449Z" fill="white"/>
<path d="M280.601 36C280.478 36 280.359 35.9556 280.265 35.8617L277.075 32.696C276.941 32.5626 276.902 32.3601 276.971 32.1873C277.045 32.0095 277.218 31.8959 277.406 31.8959H278.655V23.2037C278.655 22.9469 278.863 22.7345 279.124 22.7345H282.083C282.339 22.7345 282.552 22.9469 282.552 23.2037V32.3651H281.613V23.6729H279.593V32.3651C279.593 32.6219 279.381 32.8293 279.124 32.8293H278.542L280.601 34.874L283.461 32.0342L284.127 32.696L280.932 35.8617C280.838 35.9556 280.72 36 280.601 36Z" fill="white"/>
<path d="M275.983 32.4391L271.474 32.4342C271.217 32.4342 271.005 32.2268 271.005 31.9699L271 27.4806C271 27.2929 271.114 27.1201 271.291 27.0509C271.464 26.9769 271.667 27.0164 271.8 27.1497L272.684 28.0288L280.29 20.4577C280.473 20.2799 280.769 20.2799 280.952 20.4577L283.046 22.5418C283.135 22.6307 283.184 22.7443 283.184 22.8727C283.184 22.9962 283.135 23.1147 283.046 23.2036L275.104 31.0958L274.442 30.434L282.048 22.8727L280.621 21.4504L273.015 29.0166C272.832 29.1993 272.536 29.1993 272.353 29.0166L271.938 28.6116L271.943 31.5008L275.988 31.5057" fill="white"/>
<path d="M291.407 19.0452C291.066 19.0452 290.745 18.9119 290.503 18.6748L286.098 14.2892C285.856 14.0522 285.722 13.7311 285.722 13.3953C285.722 13.0545 285.856 12.7384 286.093 12.4964L287.239 11.3556C287.723 10.8815 288.562 10.8815 289.046 11.3556L293.452 15.7412C293.95 16.2351 293.95 17.0401 293.452 17.534L292.306 18.6748C292.064 18.9119 291.748 19.0452 291.407 19.0452ZM288.142 11.9186C288.054 11.9186 287.97 11.9581 287.905 12.0174V12.0223L286.76 13.1582C286.695 13.2224 286.661 13.3064 286.661 13.3953C286.661 13.4842 286.695 13.5682 286.76 13.6274L291.165 18.013C291.293 18.1414 291.516 18.1365 291.644 18.013L292.79 16.8771C292.918 16.7438 292.918 16.5314 292.785 16.403L288.38 12.0223C288.315 11.9581 288.231 11.9186 288.142 11.9186Z" fill="white"/>
<path d="M286.742 26.6614L283.2 23.5131L282.413 24.3002L282.019 25.8743L284.381 29.0227L286.742 26.6614Z" fill="black"/>
<path d="M285.258 32.449C285.066 32.449 284.893 32.3305 284.824 32.1576C284.75 31.9848 284.789 31.7823 284.922 31.6489L285.806 30.7698L278.201 23.2037C278.018 23.0259 278.018 22.7295 278.201 22.5468L280.29 20.4627C280.463 20.2898 280.779 20.2898 280.952 20.4627L288.562 28.0338L289.441 27.1547C289.575 27.0213 289.777 26.9818 289.955 27.0559C290.128 27.125 290.241 27.2979 290.241 27.4856L290.236 31.9749C290.236 32.2317 290.029 32.4391 289.767 32.4391L285.258 32.449ZM279.193 22.8777L286.799 30.4389C286.987 30.6217 286.987 30.9229 286.799 31.1007L286.389 31.5107H289.298L289.303 28.6165L288.893 29.0215C288.71 29.2043 288.414 29.2043 288.226 29.0215L280.621 21.4553" fill="white"/>
<path d="M277.69 32.5646H279.264V23.5131H282.019L282.413 32.5646H283.2L280.445 35.713L277.69 32.5646Z" fill="black"/>
<path d="M280.601 36C280.478 36 280.359 35.9556 280.27 35.8617L277.075 32.696C276.941 32.5626 276.902 32.3601 276.971 32.1873C277.045 32.0095 277.218 31.8959 277.406 31.8959H278.655V23.2037C278.655 22.9469 278.863 22.7345 279.124 22.7345H282.083C282.339 22.7345 282.552 22.9469 282.552 23.2037V31.8959H283.791C283.984 31.8959 284.157 32.0095 284.226 32.1873C284.3 32.3601 284.261 32.5626 284.127 32.696L280.932 35.8617C280.838 35.9556 280.72 36 280.601 36ZM278.542 32.8293L280.601 34.874L282.66 32.8293H282.083C281.821 32.8293 281.613 32.6219 281.613 32.3651V23.6729H279.593V32.3651C279.593 32.6219 279.381 32.8293 279.124 32.8293" fill="white"/>
<path d="M282.413 20.8232L280.29 23.658C279.929 24.1371 280.028 24.8187 280.512 25.1742C280.991 25.5348 281.678 25.436 282.038 24.9569L283.362 23.1889C283.89 22.4974 284.483 22.2406 284.769 22.1665C285.406 21.9986 287.323 21.2825 288.35 20.6652C289.372 20.0429 289.901 18.6008 289.846 17.3611L286.789 14.3188L280.3 16.3339C279.509 16.6006 279.223 17.05 279.104 17.3167C278.986 17.5883 277.692 20.6306 277.692 20.6306C277.544 21.0109 277.46 21.4652 277.677 21.8505C277.894 22.2357 278.388 23.0061 278.388 23.0061L279.816 21.5838C279.816 21.5838 279.761 20.7985 279.944 20.3935C280.132 19.9935 280.329 19.3268 280.754 19.1736C281.174 19.0255 281.91 18.7884 281.91 18.7884C281.91 18.7884 281.845 19.628 281.994 20.0774C282.147 20.5269 282.379 20.7936 282.379 20.7936" fill="black"/>
<path d="M281.164 25.8607C280.828 25.8607 280.502 25.7521 280.231 25.5496C279.895 25.3026 279.677 24.9372 279.618 24.5272C279.564 24.1173 279.668 23.7074 279.919 23.3765L281.831 20.8232C281.737 20.6701 281.633 20.4725 281.549 20.2256C281.475 19.9935 281.441 19.7021 281.431 19.4403C281.248 19.4996 281.06 19.5638 280.912 19.6132C280.759 19.6675 280.576 20.1071 280.477 20.3392L280.374 20.5911C280.28 20.7886 280.265 21.2726 280.285 21.5541C280.295 21.6875 280.245 21.8208 280.152 21.9146L278.719 23.337C278.621 23.4358 278.477 23.4852 278.339 23.4704C278.196 23.4555 278.072 23.3765 277.993 23.258C277.993 23.258 277.49 22.4727 277.267 22.0826C277.015 21.6331 277.01 21.0849 277.257 20.4577C277.262 20.4478 278.556 17.4006 278.675 17.1339C278.927 16.561 279.435 16.1314 280.147 15.8894L286.646 13.8743C286.814 13.82 286.997 13.8645 287.12 13.9879L290.182 17.0351C290.266 17.1191 290.311 17.2278 290.315 17.3463C290.37 18.6057 289.851 20.3046 288.592 21.0602C287.525 21.7072 285.589 22.4332 284.888 22.6209C284.784 22.6456 284.241 22.8135 283.737 23.4704L282.413 25.2384C282.162 25.5693 281.801 25.7866 281.386 25.8459C281.312 25.8558 281.238 25.8607 281.164 25.8607ZM281.915 18.3242C282.018 18.3242 282.122 18.3587 282.201 18.4229C282.325 18.5217 282.394 18.6699 282.379 18.8279C282.359 19.1144 282.354 19.6675 282.443 19.9293C282.557 20.2799 282.735 20.4923 282.739 20.4923C282.922 20.6503 282.937 20.9071 282.789 21.1047L280.67 23.9346C280.566 24.0679 280.527 24.2309 280.552 24.3939C280.571 24.5569 280.66 24.705 280.794 24.7989C280.927 24.9026 281.09 24.9372 281.253 24.9223C281.416 24.8977 281.564 24.8088 281.663 24.6803L282.986 22.9073C283.663 22.0282 284.428 21.7714 284.651 21.7171C285.214 21.5689 287.11 20.8676 288.103 20.2651C288.947 19.7564 289.372 18.5563 289.382 17.5587L286.656 14.8522L280.438 16.7783C279.989 16.9314 279.677 17.1784 279.534 17.5043C279.416 17.776 278.127 20.8133 278.127 20.8133C277.993 21.1541 277.978 21.4306 278.087 21.6183C278.181 21.7912 278.334 22.0381 278.472 22.2604L279.342 21.401C279.337 21.0948 279.351 20.5664 279.519 20.2009L279.613 19.9836C279.796 19.5391 280.053 18.9267 280.596 18.7341C281.021 18.5859 281.767 18.3439 281.767 18.3439C281.816 18.3291 281.865 18.3242 281.915 18.3242Z" fill="white"/>
</g>
<defs>
<clipPath id="clip0_66_2186">
<rect width="312" height="61" fill="white"/>
</clipPath>
</defs>
</svg>
