<svg width="280" height="61" viewBox="0 0 280 61" fill="none" xmlns="http://www.w3.org/2000/svg">
<g clip-path="url(#clip0_66_2386)">
<path d="M24.6979 60.4688C11.0781 60.4688 0 49.5208 0 36.0625V0H254.948C268.563 0 279.641 10.9479 279.641 24.4062V60.4688" fill="white"/>
<path d="M242.083 52.9114H69.1353C59.6874 52.9114 51.9999 45.3541 51.9999 36.0625V7.55725H224.948C234.396 7.55725 242.083 15.1145 242.083 24.4062V52.9114ZM224.948 5.66663H50.1145V36.0625C50.1145 46.3958 58.6458 54.802 69.1353 54.802H243.969V24.4062C243.969 14.0729 235.437 5.66663 224.948 5.66663Z" fill="#010101"/>
<path d="M216.714 54.802L229.724 28.2239L216.432 5.66663H254.948C265.437 5.66663 273.969 14.0729 273.969 24.4062V54.802" fill="#010101"/>
<path d="M102.901 5.66663H50.1145V36.0625C50.1145 46.3958 58.6458 54.802 69.1353 54.802H121.927V24.4062C121.927 14.0729 113.391 5.66663 102.901 5.66663Z" fill="#010101"/>
<path d="M63.651 29.3594C58.8489 29.3594 54.9583 33.25 54.9583 38.0521C54.9583 42.8542 58.8489 46.7448 63.651 46.7448C68.4583 46.7448 72.3489 42.8542 72.3489 38.0521C72.3489 33.25 68.4583 29.3594 63.651 29.3594Z" fill="white"/>
<path d="M69.3229 39.4688H65.0729V43.7188H62.2344V39.4688H57.9844V36.6355H62.2344V32.3802H65.0729V36.6355H69.3229" fill="#1C1C1B"/>
<path d="M55.7864 26.5937V17.1979H58.2708V24.5156H61.828V26.5937" fill="white"/>
<path d="M62.9426 26.5937V17.1979H69.0155V19.276H65.4322V20.7552H68.4947V22.8385H65.4322V24.5156H69.1614V26.5937" fill="white"/>
<path d="M75.0885 26.5937V19.276H72.6041V17.1979H80.0677V19.276H77.5781V26.5937" fill="white"/>
<path d="M83.5521 21.4739H84.4479C85.4479 21.4739 85.9531 21.0625 85.9531 20.2343C85.9531 19.8281 85.8229 19.5468 85.5677 19.3958C85.3125 19.2395 84.9375 19.1614 84.4479 19.1614H83.5521V21.4739ZM81.0625 26.5989V17.1979H84.6198C85.125 17.1979 85.6042 17.2448 86.0625 17.3385C86.5208 17.4375 86.9167 17.5989 87.2604 17.8333C87.6042 18.0625 87.875 18.375 88.0781 18.7656C88.2813 19.1562 88.3802 19.6458 88.3802 20.2343C88.3802 20.9062 88.2448 21.4687 87.9688 21.9114C87.6979 22.3541 87.3281 22.6979 86.8646 22.9531L88.901 26.5989H86.125L84.5052 23.4427H83.5521V26.5989" fill="white"/>
<path d="M89.8698 26.5989H92.3593V17.1979H89.8698V26.5989Z" fill="white"/>
<path d="M75.3801 43.276V33.8698H81.5103V35.9531H77.8697V37.75H80.9895V39.8333H77.8697V43.276" fill="white"/>
<path d="M84.9218 38.7031L84.7604 39.3541H86.4948L86.3385 38.7031C86.2239 38.25 86.1041 37.7604 85.9895 37.2291C85.875 36.6979 85.7604 36.1979 85.6406 35.7239H85.5833C85.4791 36.2031 85.3698 36.7083 85.2604 37.2343C85.151 37.7604 85.0364 38.25 84.9218 38.7031ZM81.3073 43.276L84.1666 33.8698H87.1718L90.0364 43.276H87.4062L86.9427 41.276H84.3125L83.8489 43.276" fill="white"/>
<path d="M94.5624 43.4479C93.9687 43.4479 93.3958 43.3489 92.8541 43.151C92.3072 42.9531 91.8333 42.651 91.4218 42.2552C91.0103 41.8541 90.6822 41.3541 90.4426 40.75C90.203 40.1458 90.0833 39.4479 90.0833 38.6458C90.0833 37.8541 90.2083 37.151 90.4583 36.5416C90.7083 35.927 91.0416 35.4114 91.4635 34.9948C91.8801 34.5729 92.3645 34.25 92.9114 34.0312C93.4583 33.8073 94.026 33.6979 94.6249 33.6979C95.2499 33.6979 95.8124 33.8229 96.302 34.0677C96.7968 34.3125 97.2083 34.6041 97.5468 34.9427L96.2447 36.5312C96.0155 36.3333 95.776 36.1666 95.5312 36.0312C95.2812 35.9062 94.9999 35.8385 94.6822 35.8385C94.401 35.8385 94.1405 35.901 93.8958 36.026C93.651 36.151 93.4322 36.3333 93.2447 36.5625C93.0572 36.7916 92.9062 37.0781 92.7968 37.4166C92.6822 37.75 92.6301 38.1354 92.6301 38.5573C92.6301 39.4479 92.8124 40.125 93.1874 40.5989C93.5572 41.0677 94.0468 41.3073 94.651 41.3073C95.0208 41.3073 95.3437 41.2291 95.6301 41.0677C95.9114 40.9062 96.1562 40.7187 96.3593 40.4948L97.6614 42.0573C97.2551 42.5208 96.7916 42.8698 96.2655 43.0989C95.7395 43.3333 95.1718 43.4479 94.5624 43.4479Z" fill="white"/>
<path d="M98.6198 43.276H101.104V33.8698H98.6198V43.276Z" fill="white"/>
<path d="M102.875 43.276V33.8698H105.365V41.1927H108.922V43.276" fill="white"/>
<path d="M110.031 43.276V33.8698H116.109V35.9531H112.521V37.4323H115.589V39.5156H112.521V41.1927H116.255V43.276" fill="white"/>
<path d="M28.4062 25.7448C26.7135 28.2343 28.151 31.5104 29.8958 33.1718C31.4895 34.6823 32.7655 35.0364 32.9322 35.0781L33.7447 33.5208L36.0885 39.9323L29.4635 41.2812L30.3437 39.6458L29.4478 39.1458C26.6562 37.3281 26.0676 34.8593 25.8749 34.0885C25.5416 32.7604 25.0468 28.7864 28.4062 25.7448Z" fill="#010101"/>
<path d="M28.375 25.8489C29.5781 28.6093 33.1146 29.1406 35.4479 28.552C37.5208 28.026 38.5052 27.1718 38.6719 27.0156L38.6615 27L37.776 25.4635L44.4427 26.9218L42.0313 33.2395L41.1354 31.6458L40.2656 32.1198C37.2396 33.5104 34.8333 32.6927 34.0781 32.4427C32.7813 32.0156 29.1562 30.3125 28.375 25.8489Z" fill="#010101"/>
<path d="M40.1613 19.1927C39.6978 22.4895 37.7134 24.0729 37.0936 24.5729C36.0311 25.4375 32.6457 27.5677 28.4634 25.8177C31.4373 26.2916 33.7967 23.6041 34.5571 21.3177C35.2446 19.2656 35.0415 17.9687 34.9998 17.7708L34.979 17.7656L33.2134 17.6927L38.0259 12.8541L42.0519 18.2864L40.2342 18.1823" fill="#010101"/>
<path fill-rule="evenodd" clip-rule="evenodd" d="M19.9375 16.4115C18.4167 16.4115 17.1875 15.1823 17.1875 13.6563C17.1875 12.1354 18.4167 10.9062 19.9375 10.9062C21.4583 10.9062 22.6927 12.1354 22.6927 13.6563C22.6927 15.1823 21.4583 16.4115 19.9375 16.4115Z" fill="#010101"/>
<path d="M15.6771 29.7968C15.9115 29.151 16.2604 29.1927 16.2604 29.1927C16.2604 29.1927 16.5781 29.125 16.7552 29.7708L19.3281 38.8073C17.1823 38.1823 15.224 37.1198 13.5573 35.7083L15.6771 29.7968ZM23.7031 5.66663C13.7604 5.66663 5.67188 13.7552 5.67188 23.6979C5.67188 33.6406 13.7604 41.7291 23.7031 41.7291C24.2344 41.7291 24.7552 41.6979 25.276 41.651L25.3958 43.4635L28.6979 40.2708L25.0052 37.4531L25.1458 39.3541C24.6719 39.401 24.1875 39.4323 23.7031 39.4323C22.9375 39.4323 22.1875 39.375 21.4531 39.2656L21.3802 38.7864L19.6667 24.1875C19.4323 21.4323 21.0052 20.9948 21.9792 21.4062L27.4479 23.6041C28.0729 23.875 28.375 23.3489 28.375 23.3489C28.375 23.3489 28.7292 22.802 28.0938 22.3958C28.0938 22.3958 20.6406 17.4583 19.0521 17.1562C16.8854 16.7552 14.7396 18.5104 14.2656 20.7968L11.6198 33.7604C9.34375 31.0312 7.96875 27.5208 7.96875 23.6979C7.96875 15.0208 15.026 7.9635 23.7031 7.9635C28.3385 7.9635 32.5104 9.97913 35.3906 13.177L37.0052 11.5364C33.7083 7.93225 28.9635 5.66663 23.7031 5.66663Z" fill="#010101"/>
<path d="M130.94 26.94H131.5C131.847 26.94 132.127 26.8633 132.34 26.71C132.553 26.5567 132.66 26.2733 132.66 25.86C132.66 25.6533 132.63 25.4833 132.57 25.35C132.517 25.21 132.44 25.1 132.34 25.02C132.247 24.9333 132.133 24.8733 132 24.84C131.867 24.8067 131.72 24.79 131.56 24.79H130.94V26.94ZM130.94 23.79H131.35C131.75 23.79 132.04 23.72 132.22 23.58C132.407 23.4333 132.5 23.19 132.5 22.85C132.5 22.51 132.417 22.27 132.25 22.13C132.083 21.99 131.82 21.92 131.46 21.92H130.94V23.79ZM129.5 20.86H131.91C132.203 20.86 132.473 20.89 132.72 20.95C132.973 21.01 133.19 21.11 133.37 21.25C133.55 21.39 133.69 21.5767 133.79 21.81C133.89 22.0433 133.94 22.33 133.94 22.67C133.94 23.0567 133.85 23.39 133.67 23.67C133.49 23.9433 133.22 24.13 132.86 24.23V24.25C133.26 24.3033 133.577 24.4733 133.81 24.76C134.043 25.0467 134.16 25.43 134.16 25.91C134.16 26.19 134.123 26.4567 134.05 26.71C133.977 26.9633 133.85 27.1867 133.67 27.38C133.497 27.5667 133.267 27.7167 132.98 27.83C132.7 27.9433 132.35 28 131.93 28H129.5V20.86ZM136.347 24.43C136.347 24.91 136.357 25.32 136.377 25.66C136.403 25.9933 136.45 26.2667 136.517 26.48C136.59 26.6867 136.69 26.84 136.817 26.94C136.95 27.0333 137.123 27.08 137.337 27.08C137.55 27.08 137.72 27.0333 137.847 26.94C137.98 26.84 138.08 26.6867 138.147 26.48C138.22 26.2667 138.267 25.9933 138.287 25.66C138.313 25.32 138.327 24.91 138.327 24.43C138.327 23.95 138.313 23.5433 138.287 23.21C138.267 22.8767 138.22 22.6033 138.147 22.39C138.08 22.1767 137.98 22.0233 137.847 21.93C137.72 21.83 137.55 21.78 137.337 21.78C137.123 21.78 136.95 21.83 136.817 21.93C136.69 22.0233 136.59 22.1767 136.517 22.39C136.45 22.6033 136.403 22.8767 136.377 23.21C136.357 23.5433 136.347 23.95 136.347 24.43ZM134.907 24.43C134.907 23.89 134.93 23.3933 134.977 22.94C135.03 22.48 135.14 22.0867 135.307 21.76C135.48 21.4333 135.727 21.18 136.047 21C136.367 20.8133 136.797 20.72 137.337 20.72C137.877 20.72 138.307 20.8133 138.627 21C138.947 21.18 139.19 21.4333 139.357 21.76C139.53 22.0867 139.64 22.48 139.687 22.94C139.74 23.3933 139.767 23.89 139.767 24.43C139.767 24.9767 139.74 25.4767 139.687 25.93C139.64 26.3833 139.53 26.7733 139.357 27.1C139.19 27.4267 138.947 27.6767 138.627 27.85C138.307 28.0233 137.877 28.11 137.337 28.11C136.797 28.11 136.367 28.0233 136.047 27.85C135.727 27.6767 135.48 27.4267 135.307 27.1C135.14 26.7733 135.03 26.3833 134.977 25.93C134.93 25.4767 134.907 24.9767 134.907 24.43ZM141.963 20.86V25.84C141.963 26.02 141.973 26.1867 141.993 26.34C142.02 26.4867 142.063 26.6167 142.123 26.73C142.19 26.8367 142.277 26.9233 142.383 26.99C142.497 27.05 142.637 27.08 142.803 27.08C142.977 27.08 143.117 27.05 143.223 26.99C143.33 26.9233 143.413 26.8367 143.473 26.73C143.54 26.6167 143.583 26.4867 143.603 26.34C143.63 26.1867 143.643 26.02 143.643 25.84V20.86H145.083V25.84C145.083 26.2933 145.02 26.67 144.893 26.97C144.767 27.2633 144.597 27.4967 144.383 27.67C144.17 27.8433 143.927 27.96 143.653 28.02C143.38 28.08 143.097 28.11 142.803 28.11C142.51 28.11 142.227 28.0833 141.953 28.03C141.68 27.9767 141.437 27.87 141.223 27.71C141.01 27.5433 140.84 27.31 140.713 27.01C140.587 26.71 140.523 26.32 140.523 25.84V20.86H141.963ZM150.174 20.86V22.04H148.614V28H147.174V22.04H145.614V20.86H150.174ZM154.789 20.86V22.04H152.239V23.72H154.639V24.9H152.239V26.82H154.889V28H150.799V20.86H154.789ZM155.683 28V20.86H157.123V28H155.683ZM158.191 28V20.86H159.631V26.82H162.181V28H158.191ZM162.82 28V20.86H164.26V26.82H166.81V28H162.82ZM171.439 20.86V22.04H168.889V23.72H171.289V24.9H168.889V26.82H171.539V28H167.449V20.86H171.439ZM176.176 26.94H176.816C177.069 26.94 177.273 26.8967 177.426 26.81C177.579 26.7233 177.699 26.58 177.786 26.38C177.879 26.18 177.939 25.9167 177.966 25.59C177.999 25.2633 178.016 24.8567 178.016 24.37C178.016 23.9633 178.003 23.6067 177.976 23.3C177.949 22.9933 177.893 22.74 177.806 22.54C177.726 22.3333 177.603 22.18 177.436 22.08C177.276 21.9733 177.059 21.92 176.786 21.92H176.176V26.94ZM174.736 20.86H177.096C177.596 20.86 177.999 20.9433 178.306 21.11C178.613 21.27 178.849 21.5033 179.016 21.81C179.189 22.11 179.306 22.4733 179.366 22.9C179.426 23.3267 179.456 23.8033 179.456 24.33C179.456 24.9567 179.416 25.5033 179.336 25.97C179.263 26.43 179.133 26.81 178.946 27.11C178.759 27.41 178.509 27.6333 178.196 27.78C177.883 27.9267 177.486 28 177.006 28H174.736V20.86ZM184.398 20.86V22.04H181.848V23.72H184.248V24.9H181.848V26.82H184.498V28H180.408V20.86H184.398ZM190.795 22.98C190.795 22.8467 190.778 22.71 190.745 22.57C190.718 22.43 190.672 22.3033 190.605 22.19C190.538 22.07 190.452 21.9733 190.345 21.9C190.245 21.82 190.122 21.78 189.975 21.78C189.628 21.78 189.378 21.9733 189.225 22.36C189.072 22.7467 188.995 23.3867 188.995 24.28C188.995 24.7067 189.008 25.0933 189.035 25.44C189.062 25.7867 189.108 26.0833 189.175 26.33C189.248 26.57 189.348 26.7567 189.475 26.89C189.608 27.0167 189.778 27.08 189.985 27.08C190.072 27.08 190.165 27.0567 190.265 27.01C190.372 26.9633 190.468 26.8933 190.555 26.8C190.648 26.7067 190.725 26.59 190.785 26.45C190.845 26.3033 190.875 26.1333 190.875 25.94V25.21H189.925V24.15H192.255V28H191.195V27.34H191.175C191.002 27.62 190.792 27.82 190.545 27.94C190.305 28.0533 190.015 28.11 189.675 28.11C189.235 28.11 188.875 28.0333 188.595 27.88C188.322 27.7267 188.105 27.49 187.945 27.17C187.792 26.85 187.688 26.4567 187.635 25.99C187.582 25.5167 187.555 24.97 187.555 24.35C187.555 23.75 187.592 23.2233 187.665 22.77C187.745 22.3167 187.878 21.94 188.065 21.64C188.252 21.3333 188.498 21.1033 188.805 20.95C189.112 20.7967 189.495 20.72 189.955 20.72C190.742 20.72 191.308 20.9167 191.655 21.31C192.002 21.6967 192.175 22.2533 192.175 22.98H190.795ZM196.162 25.31L195.472 22.1H195.452L194.762 25.31H196.162ZM196.352 20.86L198.242 28H196.742L196.412 26.49H194.512L194.182 28H192.682L194.572 20.86H196.352ZM198.478 26.95L201.108 22.04H198.658V20.86H202.768V21.95L200.098 26.82H202.808V28H198.478V26.95ZM131.96 32.86C131.753 33.24 131.577 33.61 131.43 33.97C131.283 34.3233 131.163 34.68 131.07 35.04C130.983 35.4 130.92 35.77 130.88 36.15C130.84 36.5233 130.82 36.9233 130.82 37.35C130.82 37.7767 130.84 38.18 130.88 38.56C130.92 38.9333 130.983 39.2967 131.07 39.65C131.163 39.9967 131.283 40.3467 131.43 40.7C131.577 41.06 131.753 41.43 131.96 41.81H130.9C130.4 41.0233 130.04 40.26 129.82 39.52C129.607 38.78 129.5 38.0567 129.5 37.35C129.5 36.6433 129.607 35.9167 129.82 35.17C130.04 34.4167 130.4 33.6467 130.9 32.86H131.96ZM133.899 36.09H134.539C134.826 36.09 135.056 36.0033 135.229 35.83C135.409 35.6567 135.499 35.3867 135.499 35.02C135.499 34.66 135.422 34.3867 135.269 34.2C135.116 34.0133 134.859 33.92 134.499 33.92H133.899V36.09ZM132.459 32.86H134.979C135.346 32.86 135.652 32.9233 135.899 33.05C136.152 33.17 136.356 33.33 136.509 33.53C136.662 33.73 136.772 33.96 136.839 34.22C136.906 34.4733 136.939 34.7333 136.939 35C136.939 35.3667 136.882 35.6867 136.769 35.96C136.662 36.2333 136.509 36.4567 136.309 36.63C136.116 36.8033 135.879 36.9333 135.599 37.02C135.319 37.1067 135.009 37.15 134.669 37.15H133.899V40H132.459V32.86ZM138.935 36.43C138.935 36.91 138.945 37.32 138.965 37.66C138.991 37.9933 139.038 38.2667 139.105 38.48C139.178 38.6867 139.278 38.84 139.405 38.94C139.538 39.0333 139.711 39.08 139.925 39.08C140.138 39.08 140.308 39.0333 140.435 38.94C140.568 38.84 140.668 38.6867 140.735 38.48C140.808 38.2667 140.855 37.9933 140.875 37.66C140.901 37.32 140.915 36.91 140.915 36.43C140.915 35.95 140.901 35.5433 140.875 35.21C140.855 34.8767 140.808 34.6033 140.735 34.39C140.668 34.1767 140.568 34.0233 140.435 33.93C140.308 33.83 140.138 33.78 139.925 33.78C139.711 33.78 139.538 33.83 139.405 33.93C139.278 34.0233 139.178 34.1767 139.105 34.39C139.038 34.6033 138.991 34.8767 138.965 35.21C138.945 35.5433 138.935 35.95 138.935 36.43ZM137.495 36.43C137.495 35.89 137.518 35.3933 137.565 34.94C137.618 34.48 137.728 34.0867 137.895 33.76C138.068 33.4333 138.315 33.18 138.635 33C138.955 32.8133 139.385 32.72 139.925 32.72C140.465 32.72 140.895 32.8133 141.215 33C141.535 33.18 141.778 33.4333 141.945 33.76C142.118 34.0867 142.228 34.48 142.275 34.94C142.328 35.3933 142.355 35.89 142.355 36.43C142.355 36.9767 142.328 37.4767 142.275 37.93C142.228 38.3833 142.118 38.7733 141.945 39.1C141.778 39.4267 141.535 39.6767 141.215 39.85C140.895 40.0233 140.465 40.11 139.925 40.11C139.385 40.11 138.955 40.0233 138.635 39.85C138.315 39.6767 138.068 39.4267 137.895 39.1C137.728 38.7733 137.618 38.3833 137.565 37.93C137.518 37.4767 137.495 36.9767 137.495 36.43ZM144.551 32.86V37.84C144.551 38.02 144.561 38.1867 144.581 38.34C144.608 38.4867 144.651 38.6167 144.711 38.73C144.778 38.8367 144.865 38.9233 144.971 38.99C145.085 39.05 145.225 39.08 145.391 39.08C145.565 39.08 145.705 39.05 145.811 38.99C145.918 38.9233 146.001 38.8367 146.061 38.73C146.128 38.6167 146.171 38.4867 146.191 38.34C146.218 38.1867 146.231 38.02 146.231 37.84V32.86H147.671V37.84C147.671 38.2933 147.608 38.67 147.481 38.97C147.355 39.2633 147.185 39.4967 146.971 39.67C146.758 39.8433 146.515 39.96 146.241 40.02C145.968 40.08 145.685 40.11 145.391 40.11C145.098 40.11 144.815 40.0833 144.541 40.03C144.268 39.9767 144.025 39.87 143.811 39.71C143.598 39.5433 143.428 39.31 143.301 39.01C143.175 38.71 143.111 38.32 143.111 37.84V32.86H144.551ZM148.582 32.86H151.242C151.842 32.86 152.309 33.0133 152.642 33.32C152.975 33.62 153.142 34.08 153.142 34.7C153.142 35.18 153.045 35.5733 152.852 35.88C152.659 36.18 152.359 36.3733 151.952 36.46V36.48C152.312 36.5333 152.575 36.65 152.742 36.83C152.909 37.01 153.012 37.3 153.052 37.7C153.065 37.8333 153.075 37.98 153.082 38.14C153.089 38.2933 153.095 38.4667 153.102 38.66C153.115 39.04 153.135 39.33 153.162 39.53C153.202 39.73 153.289 39.8667 153.422 39.94V40H151.862C151.789 39.9 151.742 39.7867 151.722 39.66C151.702 39.5267 151.689 39.39 151.682 39.25L151.642 37.88C151.629 37.6 151.559 37.38 151.432 37.22C151.305 37.06 151.092 36.98 150.792 36.98H150.022V40H148.582V32.86ZM150.022 35.98H150.622C150.969 35.98 151.235 35.9 151.422 35.74C151.609 35.5733 151.702 35.2967 151.702 34.91C151.702 34.25 151.369 33.92 150.702 33.92H150.022V35.98ZM159.591 35.27C159.591 34.75 159.528 34.3733 159.401 34.14C159.281 33.9 159.058 33.78 158.731 33.78C158.551 33.78 158.401 33.83 158.281 33.93C158.168 34.0233 158.078 34.18 158.011 34.4C157.944 34.6133 157.898 34.8967 157.871 35.25C157.844 35.5967 157.831 36.0233 157.831 36.53C157.831 37.07 157.848 37.5067 157.881 37.84C157.921 38.1733 157.978 38.4333 158.051 38.62C158.131 38.8 158.228 38.9233 158.341 38.99C158.461 39.05 158.598 39.08 158.751 39.08C158.878 39.08 158.994 39.06 159.101 39.02C159.214 38.9733 159.311 38.8867 159.391 38.76C159.471 38.6267 159.534 38.4433 159.581 38.21C159.628 37.97 159.651 37.6567 159.651 37.27H161.091C161.091 37.6567 161.061 38.0233 161.001 38.37C160.941 38.7167 160.828 39.02 160.661 39.28C160.501 39.54 160.271 39.7433 159.971 39.89C159.678 40.0367 159.294 40.11 158.821 40.11C158.281 40.11 157.851 40.0233 157.531 39.85C157.211 39.6767 156.964 39.4267 156.791 39.1C156.624 38.7733 156.514 38.3833 156.461 37.93C156.414 37.4767 156.391 36.9767 156.391 36.43C156.391 35.89 156.414 35.3933 156.461 34.94C156.514 34.48 156.624 34.0867 156.791 33.76C156.964 33.4333 157.211 33.18 157.531 33C157.851 32.8133 158.281 32.72 158.821 32.72C159.334 32.72 159.738 32.8033 160.031 32.97C160.331 33.1367 160.554 33.35 160.701 33.61C160.848 33.8633 160.938 34.14 160.971 34.44C161.011 34.7333 161.031 35.01 161.031 35.27H159.591ZM163.262 32.86V37.84C163.262 38.02 163.272 38.1867 163.292 38.34C163.319 38.4867 163.362 38.6167 163.422 38.73C163.489 38.8367 163.575 38.9233 163.682 38.99C163.795 39.05 163.935 39.08 164.102 39.08C164.275 39.08 164.415 39.05 164.522 38.99C164.629 38.9233 164.712 38.8367 164.772 38.73C164.839 38.6167 164.882 38.4867 164.902 38.34C164.929 38.1867 164.942 38.02 164.942 37.84V32.86H166.382V37.84C166.382 38.2933 166.319 38.67 166.192 38.97C166.065 39.2633 165.895 39.4967 165.682 39.67C165.469 39.8433 165.225 39.96 164.952 40.02C164.679 40.08 164.395 40.11 164.102 40.11C163.809 40.11 163.525 40.0833 163.252 40.03C162.979 39.9767 162.735 39.87 162.522 39.71C162.309 39.5433 162.139 39.31 162.012 39.01C161.885 38.71 161.822 38.32 161.822 37.84V32.86H163.262ZM167.363 40V32.86H168.803V40H167.363ZM171.031 37.77V37.98C171.031 38.1467 171.044 38.3 171.071 38.44C171.098 38.5733 171.148 38.6867 171.221 38.78C171.294 38.8733 171.391 38.9467 171.511 39C171.638 39.0533 171.794 39.08 171.981 39.08C172.201 39.08 172.398 39.01 172.571 38.87C172.751 38.7233 172.841 38.5 172.841 38.2C172.841 38.04 172.818 37.9033 172.771 37.79C172.731 37.67 172.661 37.5633 172.561 37.47C172.461 37.3767 172.328 37.2933 172.161 37.22C172.001 37.14 171.801 37.06 171.561 36.98C171.241 36.8733 170.964 36.7567 170.731 36.63C170.498 36.5033 170.301 36.3567 170.141 36.19C169.988 36.0167 169.874 35.82 169.801 35.6C169.728 35.3733 169.691 35.1133 169.691 34.82C169.691 34.1133 169.888 33.5867 170.281 33.24C170.674 32.8933 171.214 32.72 171.901 32.72C172.221 32.72 172.514 32.7567 172.781 32.83C173.054 32.8967 173.288 33.01 173.481 33.17C173.681 33.3233 173.834 33.5233 173.941 33.77C174.054 34.01 174.111 34.3 174.111 34.64V34.84H172.731C172.731 34.5 172.671 34.24 172.551 34.06C172.431 33.8733 172.231 33.78 171.951 33.78C171.791 33.78 171.658 33.8033 171.551 33.85C171.444 33.8967 171.358 33.96 171.291 34.04C171.231 34.1133 171.188 34.2 171.161 34.3C171.141 34.4 171.131 34.5033 171.131 34.61C171.131 34.83 171.178 35.0167 171.271 35.17C171.364 35.3167 171.564 35.4533 171.871 35.58L172.981 36.06C173.254 36.18 173.478 36.3067 173.651 36.44C173.824 36.5667 173.961 36.7067 174.061 36.86C174.168 37.0067 174.241 37.17 174.281 37.35C174.321 37.53 174.341 37.73 174.341 37.95C174.341 38.7033 174.121 39.2533 173.681 39.6C173.248 39.94 172.641 40.11 171.861 40.11C171.048 40.11 170.464 39.9333 170.111 39.58C169.764 39.2267 169.591 38.72 169.591 38.06V37.77H171.031ZM176.217 37.77V37.98C176.217 38.1467 176.23 38.3 176.257 38.44C176.283 38.5733 176.333 38.6867 176.407 38.78C176.48 38.8733 176.577 38.9467 176.697 39C176.823 39.0533 176.98 39.08 177.167 39.08C177.387 39.08 177.583 39.01 177.757 38.87C177.937 38.7233 178.027 38.5 178.027 38.2C178.027 38.04 178.003 37.9033 177.957 37.79C177.917 37.67 177.847 37.5633 177.747 37.47C177.647 37.3767 177.513 37.2933 177.347 37.22C177.187 37.14 176.987 37.06 176.747 36.98C176.427 36.8733 176.15 36.7567 175.917 36.63C175.683 36.5033 175.487 36.3567 175.327 36.19C175.173 36.0167 175.06 35.82 174.987 35.6C174.913 35.3733 174.877 35.1133 174.877 34.82C174.877 34.1133 175.073 33.5867 175.467 33.24C175.86 32.8933 176.4 32.72 177.087 32.72C177.407 32.72 177.7 32.7567 177.967 32.83C178.24 32.8967 178.473 33.01 178.667 33.17C178.867 33.3233 179.02 33.5233 179.127 33.77C179.24 34.01 179.297 34.3 179.297 34.64V34.84H177.917C177.917 34.5 177.857 34.24 177.737 34.06C177.617 33.8733 177.417 33.78 177.137 33.78C176.977 33.78 176.843 33.8033 176.737 33.85C176.63 33.8967 176.543 33.96 176.477 34.04C176.417 34.1133 176.373 34.2 176.347 34.3C176.327 34.4 176.317 34.5033 176.317 34.61C176.317 34.83 176.363 35.0167 176.457 35.17C176.55 35.3167 176.75 35.4533 177.057 35.58L178.167 36.06C178.44 36.18 178.663 36.3067 178.837 36.44C179.01 36.5667 179.147 36.7067 179.247 36.86C179.353 37.0067 179.427 37.17 179.467 37.35C179.507 37.53 179.527 37.73 179.527 37.95C179.527 38.7033 179.307 39.2533 178.867 39.6C178.433 39.94 177.827 40.11 177.047 40.11C176.233 40.11 175.65 39.9333 175.297 39.58C174.95 39.2267 174.777 38.72 174.777 38.06V37.77H176.217ZM181.532 36.43C181.532 36.91 181.542 37.32 181.562 37.66C181.589 37.9933 181.636 38.2667 181.702 38.48C181.776 38.6867 181.876 38.84 182.002 38.94C182.136 39.0333 182.309 39.08 182.522 39.08C182.736 39.08 182.906 39.0333 183.032 38.94C183.166 38.84 183.266 38.6867 183.332 38.48C183.406 38.2667 183.452 37.9933 183.472 37.66C183.499 37.32 183.512 36.91 183.512 36.43C183.512 35.95 183.499 35.5433 183.472 35.21C183.452 34.8767 183.406 34.6033 183.332 34.39C183.266 34.1767 183.166 34.0233 183.032 33.93C182.906 33.83 182.736 33.78 182.522 33.78C182.309 33.78 182.136 33.83 182.002 33.93C181.876 34.0233 181.776 34.1767 181.702 34.39C181.636 34.6033 181.589 34.8767 181.562 35.21C181.542 35.5433 181.532 35.95 181.532 36.43ZM180.092 36.43C180.092 35.89 180.116 35.3933 180.162 34.94C180.216 34.48 180.326 34.0867 180.492 33.76C180.666 33.4333 180.912 33.18 181.232 33C181.552 32.8133 181.982 32.72 182.522 32.72C183.062 32.72 183.492 32.8133 183.812 33C184.132 33.18 184.376 33.4333 184.542 33.76C184.716 34.0867 184.826 34.48 184.872 34.94C184.926 35.3933 184.952 35.89 184.952 36.43C184.952 36.9767 184.926 37.4767 184.872 37.93C184.826 38.3833 184.716 38.7733 184.542 39.1C184.376 39.4267 184.132 39.6767 183.812 39.85C183.492 40.0233 183.062 40.11 182.522 40.11C181.982 40.11 181.552 40.0233 181.232 39.85C180.912 39.6767 180.666 39.4267 180.492 39.1C180.326 38.7733 180.216 38.3833 180.162 37.93C180.116 37.4767 180.092 36.9767 180.092 36.43ZM187.459 32.86L189.199 37.75H189.219V32.86H190.539V40H188.899L187.139 35H187.119V40H185.799V32.86H187.459ZM192.101 32.86C192.601 33.6467 192.958 34.4167 193.171 35.17C193.391 35.9167 193.501 36.6433 193.501 37.35C193.501 38.0567 193.391 38.78 193.171 39.52C192.958 40.26 192.601 41.0233 192.101 41.81H191.041C191.248 41.43 191.424 41.06 191.571 40.7C191.718 40.3467 191.834 39.9967 191.921 39.65C192.014 39.2967 192.081 38.9333 192.121 38.56C192.161 38.18 192.181 37.7767 192.181 37.35C192.181 36.9233 192.161 36.5233 192.121 36.15C192.081 35.77 192.014 35.4 191.921 35.04C191.834 34.68 191.718 34.3233 191.571 33.97C191.424 33.61 191.248 33.24 191.041 32.86H192.101Z" fill="black"/>
<path d="M259.158 15.2235H239.834C239.498 15.2235 239.23 14.9482 239.23 14.6118C239.23 14.2753 239.498 14 239.834 14H259.158C259.495 14 259.762 14.2753 259.762 14.6118C259.762 14.9482 259.495 15.2235 259.158 15.2235Z" fill="white"/>
<path d="M262.393 22.7329H236.63C236.408 22.7329 236.194 22.6182 236.087 22.427C235.98 22.2358 235.965 21.9988 236.08 21.8076L240.538 14.4359C240.706 14.1453 241.088 14.0612 241.371 14.2294C241.654 14.4053 241.754 14.78 241.578 15.0629L237.685 21.517H261.315L257.422 15.0629C257.247 14.78 257.338 14.4053 257.629 14.2294C257.904 14.0612 258.287 14.1453 258.462 14.4359L262.913 21.8076C263.028 21.9988 263.028 22.2358 262.921 22.427C262.814 22.6182 262.607 22.7329 262.393 22.7329Z" fill="white"/>
<path d="M239.2 25.3404C237.433 25.3404 236.003 23.9105 236.003 22.1516C236.003 21.8075 236.278 21.5322 236.623 21.5322C236.959 21.5322 237.234 21.8075 237.234 22.1516C237.234 23.2299 238.114 24.1093 239.2 24.1093C240.27 24.1093 241.157 23.2299 241.157 22.1516C241.157 21.8075 241.433 21.5322 241.769 21.5322C242.106 21.5322 242.381 21.8075 242.381 22.1516C242.381 23.9105 240.951 25.3404 239.2 25.3404Z" fill="white"/>
<path d="M244.346 25.3404C242.587 25.3404 241.15 23.9105 241.15 22.1516C241.15 21.8075 241.432 21.5322 241.769 21.5322C242.105 21.5322 242.381 21.8075 242.381 22.1516C242.381 23.2299 243.26 24.1093 244.346 24.1093C245.424 24.1093 246.304 23.2299 246.304 22.1516C246.304 21.8075 246.579 21.5322 246.923 21.5322C247.26 21.5322 247.535 21.8075 247.535 22.1516C247.535 23.9105 246.105 25.3404 244.346 25.3404Z" fill="white"/>
<path d="M249.5 25.3404C247.741 25.3404 246.304 23.9105 246.304 22.1516C246.304 21.8075 246.579 21.5322 246.923 21.5322C247.26 21.5322 247.535 21.8075 247.535 22.1516C247.535 23.2299 248.414 24.1093 249.5 24.1093C250.578 24.1093 251.458 23.2299 251.458 22.1516C251.458 21.8075 251.733 21.5322 252.07 21.5322C252.414 21.5322 252.689 21.8075 252.689 22.1516C252.689 23.9105 251.259 25.3404 249.5 25.3404Z" fill="white"/>
<path d="M254.646 25.3404C252.888 25.3404 251.458 23.9105 251.458 22.1516C251.458 21.8075 251.733 21.5322 252.069 21.5322C252.413 21.5322 252.689 21.8075 252.689 22.1516C252.689 23.2299 253.568 24.1093 254.646 24.1093C255.732 24.1093 256.612 23.2299 256.612 22.1516C256.612 21.8075 256.887 21.5322 257.223 21.5322C257.56 21.5322 257.835 21.8075 257.835 22.1516C257.835 23.9105 256.405 25.3404 254.646 25.3404Z" fill="white"/>
<path d="M259.801 25.3404C258.042 25.3404 256.612 23.9105 256.612 22.1516C256.612 21.8075 256.887 21.5322 257.224 21.5322C257.56 21.5322 257.835 21.8075 257.835 22.1516C257.835 23.2299 258.715 24.1093 259.801 24.1093C260.879 24.1093 261.758 23.2299 261.758 22.1516C261.758 21.8075 262.034 21.5322 262.378 21.5322C262.714 21.5322 262.989 21.8075 262.989 22.1516C262.989 23.9105 261.559 25.3404 259.801 25.3404Z" fill="white"/>
<path d="M259.969 38.83H239.024C238.687 38.83 238.412 38.5547 238.412 38.2182V24.7288C238.412 24.3847 238.687 24.1094 239.024 24.1094C239.368 24.1094 239.643 24.3847 239.643 24.7288V37.6064H259.357V24.7441C259.357 24.4077 259.633 24.1324 259.969 24.1324C260.305 24.1324 260.588 24.4077 260.588 24.7441V38.2182C260.588 38.5547 260.305 38.83 259.969 38.83Z" fill="white"/>
<path d="M247.497 38.6999C247.16 38.6999 246.877 38.4246 246.877 38.0881V23.75C246.877 23.4058 247.16 23.1306 247.497 23.1306C247.833 23.1306 248.108 23.4058 248.108 23.75V38.0881C248.108 38.4246 247.833 38.6999 247.497 38.6999Z" fill="white"/>
<path d="M245.248 32.5976C244.912 32.5976 244.637 32.3223 244.637 31.9782V27.4894C244.637 27.1529 244.912 26.8776 245.248 26.8776C245.585 26.8776 245.868 27.1529 245.868 27.4894V31.9782C245.868 32.3223 245.585 32.5976 245.248 32.5976Z" fill="white"/>
<path d="M252.482 31.8481C252.329 31.8481 252.169 31.7869 252.054 31.6646C251.809 31.4275 251.809 31.0375 252.054 30.8005L256.038 26.8087C256.283 26.564 256.673 26.564 256.91 26.8087C257.147 27.0458 257.147 27.4358 256.91 27.6728L252.918 31.6646C252.796 31.7869 252.643 31.8481 252.482 31.8481Z" fill="white"/>
<path d="M254.234 33.8439C254.073 33.8439 253.912 33.7828 253.798 33.6604C253.553 33.4234 253.553 33.0334 253.798 32.7963L256.168 30.4257C256.405 30.181 256.795 30.181 257.032 30.4257C257.277 30.6628 257.277 31.0528 257.032 31.2898L254.669 33.6604C254.547 33.7828 254.386 33.8439 254.234 33.8439Z" fill="white"/>
<path d="M236.41 43H237.98L238.68 48.01H238.7L239.4 43H240.97V50H239.93V44.7H239.91L239.11 50H238.19L237.39 44.7H237.37V50H236.41V43ZM242.641 43H244.131L245.271 50H244.171L243.971 48.61V48.63H242.721L242.521 50H241.501L242.641 43ZM243.841 47.68L243.351 44.22H243.331L242.851 47.68H243.841ZM247.345 50.1C246.812 50.1 246.405 49.95 246.125 49.65C245.845 49.3433 245.705 48.9067 245.705 48.34V44.66C245.705 44.0933 245.845 43.66 246.125 43.36C246.405 43.0533 246.812 42.9 247.345 42.9C247.878 42.9 248.285 43.0533 248.565 43.36C248.845 43.66 248.985 44.0933 248.985 44.66V45.26H247.945V44.59C247.945 44.13 247.755 43.9 247.375 43.9C246.995 43.9 246.805 44.13 246.805 44.59V48.42C246.805 48.8733 246.995 49.1 247.375 49.1C247.755 49.1 247.945 48.8733 247.945 48.42V47.05H247.395V46.05H248.985V48.34C248.985 48.9067 248.845 49.3433 248.565 49.65C248.285 49.95 247.878 50.1 247.345 50.1ZM250.541 43H252.031L253.171 50H252.071L251.871 48.61V48.63H250.621L250.421 50H249.401L250.541 43ZM251.741 47.68L251.251 44.22H251.231L250.751 47.68H251.741ZM255.106 50.1C254.572 50.1 254.169 49.95 253.896 49.65C253.622 49.3433 253.486 48.9067 253.486 48.34V47.94H254.526V48.42C254.526 48.8733 254.716 49.1 255.096 49.1C255.282 49.1 255.422 49.0467 255.516 48.94C255.616 48.8267 255.666 48.6467 255.666 48.4C255.666 48.1067 255.599 47.85 255.466 47.63C255.332 47.4033 255.086 47.1333 254.726 46.82C254.272 46.42 253.956 46.06 253.776 45.74C253.596 45.4133 253.506 45.0467 253.506 44.64C253.506 44.0867 253.646 43.66 253.926 43.36C254.206 43.0533 254.612 42.9 255.146 42.9C255.672 42.9 256.069 43.0533 256.336 43.36C256.609 43.66 256.746 44.0933 256.746 44.66V44.95H255.706V44.59C255.706 44.35 255.659 44.1767 255.566 44.07C255.472 43.9567 255.336 43.9 255.156 43.9C254.789 43.9 254.606 44.1233 254.606 44.57C254.606 44.8233 254.672 45.06 254.806 45.28C254.946 45.5 255.196 45.7667 255.556 46.08C256.016 46.48 256.332 46.8433 256.506 47.17C256.679 47.4967 256.766 47.88 256.766 48.32C256.766 48.8933 256.622 49.3333 256.336 49.64C256.056 49.9467 255.646 50.1 255.106 50.1ZM257.396 43H258.496V50H257.396V43ZM259.32 43H260.7L261.77 47.19H261.79V43H262.77V50H261.64L260.32 44.89H260.3V50H259.32V43Z" fill="white"/>
</g>
<defs>
<clipPath id="clip0_66_2386">
<rect width="280" height="61" fill="white"/>
</clipPath>
</defs>
</svg>
