<svg width="280" height="61" viewBox="0 0 280 61" fill="none" xmlns="http://www.w3.org/2000/svg">
<g clip-path="url(#clip0_66_2424)">
<path d="M24.6979 60.4688C11.0781 60.4688 0 49.5208 0 36.0625V0H254.948C268.563 0 279.641 10.9479 279.641 24.4062V60.4688" fill="white"/>
<path d="M242.083 52.9114H69.1353C59.6874 52.9114 51.9999 45.3541 51.9999 36.0625V7.55725H224.948C234.396 7.55725 242.083 15.1145 242.083 24.4062V52.9114ZM224.948 5.66663H50.1145V36.0625C50.1145 46.3958 58.6458 54.802 69.1353 54.802H243.969V24.4062C243.969 14.0729 235.437 5.66663 224.948 5.66663Z" fill="#010101"/>
<path d="M216.714 54.802L229.724 28.2239L216.432 5.66663H254.948C265.437 5.66663 273.969 14.0729 273.969 24.4062V54.802" fill="#010101"/>
<path d="M102.901 5.66663H50.1145V36.0625C50.1145 46.3958 58.6458 54.802 69.1353 54.802H121.927V24.4062C121.927 14.0729 113.391 5.66663 102.901 5.66663Z" fill="#010101"/>
<path d="M63.651 29.3594C58.8489 29.3594 54.9583 33.25 54.9583 38.0521C54.9583 42.8542 58.8489 46.7448 63.651 46.7448C68.4583 46.7448 72.3489 42.8542 72.3489 38.0521C72.3489 33.25 68.4583 29.3594 63.651 29.3594Z" fill="white"/>
<path d="M69.3229 39.4688H65.0729V43.7188H62.2344V39.4688H57.9844V36.6355H62.2344V32.3802H65.0729V36.6355H69.3229" fill="#1C1C1B"/>
<path d="M55.7864 26.5937V17.1979H58.2708V24.5156H61.828V26.5937" fill="white"/>
<path d="M62.9426 26.5937V17.1979H69.0155V19.276H65.4322V20.7552H68.4947V22.8385H65.4322V24.5156H69.1614V26.5937" fill="white"/>
<path d="M75.0885 26.5937V19.276H72.6041V17.1979H80.0677V19.276H77.5781V26.5937" fill="white"/>
<path d="M83.5521 21.4739H84.4479C85.4479 21.4739 85.9531 21.0625 85.9531 20.2343C85.9531 19.8281 85.8229 19.5468 85.5677 19.3958C85.3125 19.2395 84.9375 19.1614 84.4479 19.1614H83.5521V21.4739ZM81.0625 26.5989V17.1979H84.6198C85.125 17.1979 85.6042 17.2448 86.0625 17.3385C86.5208 17.4375 86.9167 17.5989 87.2604 17.8333C87.6042 18.0625 87.875 18.375 88.0781 18.7656C88.2813 19.1562 88.3802 19.6458 88.3802 20.2343C88.3802 20.9062 88.2448 21.4687 87.9688 21.9114C87.6979 22.3541 87.3281 22.6979 86.8646 22.9531L88.901 26.5989H86.125L84.5052 23.4427H83.5521V26.5989" fill="white"/>
<path d="M89.8698 26.5989H92.3593V17.1979H89.8698V26.5989Z" fill="white"/>
<path d="M75.3801 43.276V33.8698H81.5103V35.9531H77.8697V37.75H80.9895V39.8333H77.8697V43.276" fill="white"/>
<path d="M84.9218 38.7031L84.7604 39.3541H86.4948L86.3385 38.7031C86.2239 38.25 86.1041 37.7604 85.9895 37.2291C85.875 36.6979 85.7604 36.1979 85.6406 35.7239H85.5833C85.4791 36.2031 85.3698 36.7083 85.2604 37.2343C85.151 37.7604 85.0364 38.25 84.9218 38.7031ZM81.3073 43.276L84.1666 33.8698H87.1718L90.0364 43.276H87.4062L86.9427 41.276H84.3125L83.8489 43.276" fill="white"/>
<path d="M94.5624 43.4479C93.9687 43.4479 93.3958 43.3489 92.8541 43.151C92.3072 42.9531 91.8333 42.651 91.4218 42.2552C91.0103 41.8541 90.6822 41.3541 90.4426 40.75C90.203 40.1458 90.0833 39.4479 90.0833 38.6458C90.0833 37.8541 90.2083 37.151 90.4583 36.5416C90.7083 35.927 91.0416 35.4114 91.4635 34.9948C91.8801 34.5729 92.3645 34.25 92.9114 34.0312C93.4583 33.8073 94.026 33.6979 94.6249 33.6979C95.2499 33.6979 95.8124 33.8229 96.302 34.0677C96.7968 34.3125 97.2083 34.6041 97.5468 34.9427L96.2447 36.5312C96.0155 36.3333 95.776 36.1666 95.5312 36.0312C95.2812 35.9062 94.9999 35.8385 94.6822 35.8385C94.401 35.8385 94.1405 35.901 93.8958 36.026C93.651 36.151 93.4322 36.3333 93.2447 36.5625C93.0572 36.7916 92.9062 37.0781 92.7968 37.4166C92.6822 37.75 92.6301 38.1354 92.6301 38.5573C92.6301 39.4479 92.8124 40.125 93.1874 40.5989C93.5572 41.0677 94.0468 41.3073 94.651 41.3073C95.0208 41.3073 95.3437 41.2291 95.6301 41.0677C95.9114 40.9062 96.1562 40.7187 96.3593 40.4948L97.6614 42.0573C97.2551 42.5208 96.7916 42.8698 96.2655 43.0989C95.7395 43.3333 95.1718 43.4479 94.5624 43.4479Z" fill="white"/>
<path d="M98.6198 43.276H101.104V33.8698H98.6198V43.276Z" fill="white"/>
<path d="M102.875 43.276V33.8698H105.365V41.1927H108.922V43.276" fill="white"/>
<path d="M110.031 43.276V33.8698H116.109V35.9531H112.521V37.4323H115.589V39.5156H112.521V41.1927H116.255V43.276" fill="white"/>
<path d="M28.4062 25.7448C26.7135 28.2343 28.151 31.5104 29.8958 33.1718C31.4895 34.6823 32.7655 35.0364 32.9322 35.0781L33.7447 33.5208L36.0885 39.9323L29.4635 41.2812L30.3437 39.6458L29.4478 39.1458C26.6562 37.3281 26.0676 34.8593 25.8749 34.0885C25.5416 32.7604 25.0468 28.7864 28.4062 25.7448Z" fill="#010101"/>
<path d="M28.375 25.8489C29.5781 28.6093 33.1146 29.1406 35.4479 28.552C37.5208 28.026 38.5052 27.1718 38.6719 27.0156L38.6615 27L37.776 25.4635L44.4427 26.9218L42.0313 33.2395L41.1354 31.6458L40.2656 32.1198C37.2396 33.5104 34.8333 32.6927 34.0781 32.4427C32.7813 32.0156 29.1562 30.3125 28.375 25.8489Z" fill="#010101"/>
<path d="M40.1613 19.1927C39.6978 22.4895 37.7134 24.0729 37.0936 24.5729C36.0311 25.4375 32.6457 27.5677 28.4634 25.8177C31.4373 26.2916 33.7967 23.6041 34.5571 21.3177C35.2446 19.2656 35.0415 17.9687 34.9998 17.7708L34.979 17.7656L33.2134 17.6927L38.0259 12.8541L42.0519 18.2864L40.2342 18.1823" fill="#010101"/>
<path fill-rule="evenodd" clip-rule="evenodd" d="M19.9375 16.4115C18.4167 16.4115 17.1875 15.1823 17.1875 13.6563C17.1875 12.1354 18.4167 10.9062 19.9375 10.9062C21.4583 10.9062 22.6927 12.1354 22.6927 13.6563C22.6927 15.1823 21.4583 16.4115 19.9375 16.4115Z" fill="#010101"/>
<path d="M15.6771 29.7968C15.9115 29.151 16.2604 29.1927 16.2604 29.1927C16.2604 29.1927 16.5781 29.125 16.7552 29.7708L19.3281 38.8073C17.1823 38.1823 15.224 37.1198 13.5573 35.7083L15.6771 29.7968ZM23.7031 5.66663C13.7604 5.66663 5.67188 13.7552 5.67188 23.6979C5.67188 33.6406 13.7604 41.7291 23.7031 41.7291C24.2344 41.7291 24.7552 41.6979 25.276 41.651L25.3958 43.4635L28.6979 40.2708L25.0052 37.4531L25.1458 39.3541C24.6719 39.401 24.1875 39.4323 23.7031 39.4323C22.9375 39.4323 22.1875 39.375 21.4531 39.2656L21.3802 38.7864L19.6667 24.1875C19.4323 21.4323 21.0052 20.9948 21.9792 21.4062L27.4479 23.6041C28.0729 23.875 28.375 23.3489 28.375 23.3489C28.375 23.3489 28.7292 22.802 28.0938 22.3958C28.0938 22.3958 20.6406 17.4583 19.0521 17.1562C16.8854 16.7552 14.7396 18.5104 14.2656 20.7968L11.6198 33.7604C9.34375 31.0312 7.96875 27.5208 7.96875 23.6979C7.96875 15.0208 15.026 7.9635 23.7031 7.9635C28.3385 7.9635 32.5104 9.97913 35.3906 13.177L37.0052 11.5364C33.7083 7.93225 28.9635 5.66663 23.7031 5.66663Z" fill="#010101"/>
<path d="M130.94 32.94H131.5C131.847 32.94 132.127 32.8633 132.34 32.71C132.553 32.5567 132.66 32.2733 132.66 31.86C132.66 31.6533 132.63 31.4833 132.57 31.35C132.517 31.21 132.44 31.1 132.34 31.02C132.247 30.9333 132.133 30.8733 132 30.84C131.867 30.8067 131.72 30.79 131.56 30.79H130.94V32.94ZM130.94 29.79H131.35C131.75 29.79 132.04 29.72 132.22 29.58C132.407 29.4333 132.5 29.19 132.5 28.85C132.5 28.51 132.417 28.27 132.25 28.13C132.083 27.99 131.82 27.92 131.46 27.92H130.94V29.79ZM129.5 26.86H131.91C132.203 26.86 132.473 26.89 132.72 26.95C132.973 27.01 133.19 27.11 133.37 27.25C133.55 27.39 133.69 27.5767 133.79 27.81C133.89 28.0433 133.94 28.33 133.94 28.67C133.94 29.0567 133.85 29.39 133.67 29.67C133.49 29.9433 133.22 30.13 132.86 30.23V30.25C133.26 30.3033 133.577 30.4733 133.81 30.76C134.043 31.0467 134.16 31.43 134.16 31.91C134.16 32.19 134.123 32.4567 134.05 32.71C133.977 32.9633 133.85 33.1867 133.67 33.38C133.497 33.5667 133.267 33.7167 132.98 33.83C132.7 33.9433 132.35 34 131.93 34H129.5V26.86ZM136.347 30.43C136.347 30.91 136.357 31.32 136.377 31.66C136.403 31.9933 136.45 32.2667 136.517 32.48C136.59 32.6867 136.69 32.84 136.817 32.94C136.95 33.0333 137.123 33.08 137.337 33.08C137.55 33.08 137.72 33.0333 137.847 32.94C137.98 32.84 138.08 32.6867 138.147 32.48C138.22 32.2667 138.267 31.9933 138.287 31.66C138.313 31.32 138.327 30.91 138.327 30.43C138.327 29.95 138.313 29.5433 138.287 29.21C138.267 28.8767 138.22 28.6033 138.147 28.39C138.08 28.1767 137.98 28.0233 137.847 27.93C137.72 27.83 137.55 27.78 137.337 27.78C137.123 27.78 136.95 27.83 136.817 27.93C136.69 28.0233 136.59 28.1767 136.517 28.39C136.45 28.6033 136.403 28.8767 136.377 29.21C136.357 29.5433 136.347 29.95 136.347 30.43ZM134.907 30.43C134.907 29.89 134.93 29.3933 134.977 28.94C135.03 28.48 135.14 28.0867 135.307 27.76C135.48 27.4333 135.727 27.18 136.047 27C136.367 26.8133 136.797 26.72 137.337 26.72C137.877 26.72 138.307 26.8133 138.627 27C138.947 27.18 139.19 27.4333 139.357 27.76C139.53 28.0867 139.64 28.48 139.687 28.94C139.74 29.3933 139.767 29.89 139.767 30.43C139.767 30.9767 139.74 31.4767 139.687 31.93C139.64 32.3833 139.53 32.7733 139.357 33.1C139.19 33.4267 138.947 33.6767 138.627 33.85C138.307 34.0233 137.877 34.11 137.337 34.11C136.797 34.11 136.367 34.0233 136.047 33.85C135.727 33.6767 135.48 33.4267 135.307 33.1C135.14 32.7733 135.03 32.3833 134.977 31.93C134.93 31.4767 134.907 30.9767 134.907 30.43ZM141.963 26.86V31.84C141.963 32.02 141.973 32.1867 141.993 32.34C142.02 32.4867 142.063 32.6167 142.123 32.73C142.19 32.8367 142.277 32.9233 142.383 32.99C142.497 33.05 142.637 33.08 142.803 33.08C142.977 33.08 143.117 33.05 143.223 32.99C143.33 32.9233 143.413 32.8367 143.473 32.73C143.54 32.6167 143.583 32.4867 143.603 32.34C143.63 32.1867 143.643 32.02 143.643 31.84V26.86H145.083V31.84C145.083 32.2933 145.02 32.67 144.893 32.97C144.767 33.2633 144.597 33.4967 144.383 33.67C144.17 33.8433 143.927 33.96 143.653 34.02C143.38 34.08 143.097 34.11 142.803 34.11C142.51 34.11 142.227 34.0833 141.953 34.03C141.68 33.9767 141.437 33.87 141.223 33.71C141.01 33.5433 140.84 33.31 140.713 33.01C140.587 32.71 140.523 32.32 140.523 31.84V26.86H141.963ZM150.174 26.86V28.04H148.614V34H147.174V28.04H145.614V26.86H150.174ZM154.789 26.86V28.04H152.239V29.72H154.639V30.9H152.239V32.82H154.889V34H150.799V26.86H154.789ZM155.683 34V26.86H157.123V34H155.683ZM158.191 34V26.86H159.631V32.82H162.181V34H158.191ZM162.82 34V26.86H164.26V32.82H166.81V34H162.82ZM171.439 26.86V28.04H168.889V29.72H171.289V30.9H168.889V32.82H171.539V34H167.449V26.86H171.439ZM176.176 32.94H176.816C177.069 32.94 177.273 32.8967 177.426 32.81C177.579 32.7233 177.699 32.58 177.786 32.38C177.879 32.18 177.939 31.9167 177.966 31.59C177.999 31.2633 178.016 30.8567 178.016 30.37C178.016 29.9633 178.003 29.6067 177.976 29.3C177.949 28.9933 177.893 28.74 177.806 28.54C177.726 28.3333 177.603 28.18 177.436 28.08C177.276 27.9733 177.059 27.92 176.786 27.92H176.176V32.94ZM174.736 26.86H177.096C177.596 26.86 177.999 26.9433 178.306 27.11C178.613 27.27 178.849 27.5033 179.016 27.81C179.189 28.11 179.306 28.4733 179.366 28.9C179.426 29.3267 179.456 29.8033 179.456 30.33C179.456 30.9567 179.416 31.5033 179.336 31.97C179.263 32.43 179.133 32.81 178.946 33.11C178.759 33.41 178.509 33.6333 178.196 33.78C177.883 33.9267 177.486 34 177.006 34H174.736V26.86ZM184.398 26.86V28.04H181.848V29.72H184.248V30.9H181.848V32.82H184.498V34H180.408V26.86H184.398ZM189.065 30.09H189.705C189.992 30.09 190.222 30.0033 190.395 29.83C190.575 29.6567 190.665 29.3867 190.665 29.02C190.665 28.66 190.588 28.3867 190.435 28.2C190.282 28.0133 190.025 27.92 189.665 27.92H189.065V30.09ZM187.625 26.86H190.145C190.512 26.86 190.818 26.9233 191.065 27.05C191.318 27.17 191.522 27.33 191.675 27.53C191.828 27.73 191.938 27.96 192.005 28.22C192.072 28.4733 192.105 28.7333 192.105 29C192.105 29.3667 192.048 29.6867 191.935 29.96C191.828 30.2333 191.675 30.4567 191.475 30.63C191.282 30.8033 191.045 30.9333 190.765 31.02C190.485 31.1067 190.175 31.15 189.835 31.15H189.065V34H187.625V26.86ZM192.811 34V26.86H194.251V32.82H196.801V34H192.811ZM198.729 30.43C198.729 30.91 198.739 31.32 198.759 31.66C198.786 31.9933 198.833 32.2667 198.899 32.48C198.973 32.6867 199.073 32.84 199.199 32.94C199.333 33.0333 199.506 33.08 199.719 33.08C199.933 33.08 200.103 33.0333 200.229 32.94C200.363 32.84 200.463 32.6867 200.529 32.48C200.603 32.2667 200.649 31.9933 200.669 31.66C200.696 31.32 200.709 30.91 200.709 30.43C200.709 29.95 200.696 29.5433 200.669 29.21C200.649 28.8767 200.603 28.6033 200.529 28.39C200.463 28.1767 200.363 28.0233 200.229 27.93C200.103 27.83 199.933 27.78 199.719 27.78C199.506 27.78 199.333 27.83 199.199 27.93C199.073 28.0233 198.973 28.1767 198.899 28.39C198.833 28.6033 198.786 28.8767 198.759 29.21C198.739 29.5433 198.729 29.95 198.729 30.43ZM197.289 30.43C197.289 29.89 197.313 29.3933 197.359 28.94C197.413 28.48 197.523 28.0867 197.689 27.76C197.863 27.4333 198.109 27.18 198.429 27C198.749 26.8133 199.179 26.72 199.719 26.72C200.259 26.72 200.689 26.8133 201.009 27C201.329 27.18 201.573 27.4333 201.739 27.76C201.913 28.0867 202.023 28.48 202.069 28.94C202.123 29.3933 202.149 29.89 202.149 30.43C202.149 30.9767 202.123 31.4767 202.069 31.93C202.023 32.3833 201.913 32.7733 201.739 33.1C201.573 33.4267 201.329 33.6767 201.009 33.85C200.689 34.0233 200.259 34.11 199.719 34.11C199.179 34.11 198.749 34.0233 198.429 33.85C198.109 33.6767 197.863 33.4267 197.689 33.1C197.523 32.7733 197.413 32.3833 197.359 31.93C197.313 31.4767 197.289 30.9767 197.289 30.43ZM204.656 26.86L206.396 31.75H206.416V26.86H207.736V34H206.096L204.336 29H204.316V34H202.996V26.86H204.656ZM211.908 28.98C211.908 28.8467 211.892 28.71 211.858 28.57C211.832 28.43 211.785 28.3033 211.718 28.19C211.652 28.07 211.565 27.9733 211.458 27.9C211.358 27.82 211.235 27.78 211.088 27.78C210.742 27.78 210.492 27.9733 210.338 28.36C210.185 28.7467 210.108 29.3867 210.108 30.28C210.108 30.7067 210.122 31.0933 210.148 31.44C210.175 31.7867 210.222 32.0833 210.288 32.33C210.362 32.57 210.462 32.7567 210.588 32.89C210.722 33.0167 210.892 33.08 211.098 33.08C211.185 33.08 211.278 33.0567 211.378 33.01C211.485 32.9633 211.582 32.8933 211.668 32.8C211.762 32.7067 211.838 32.59 211.898 32.45C211.958 32.3033 211.988 32.1333 211.988 31.94V31.21H211.038V30.15H213.368V34H212.308V33.34H212.288C212.115 33.62 211.905 33.82 211.658 33.94C211.418 34.0533 211.128 34.11 210.788 34.11C210.348 34.11 209.988 34.0333 209.708 33.88C209.435 33.7267 209.218 33.49 209.058 33.17C208.905 32.85 208.802 32.4567 208.748 31.99C208.695 31.5167 208.668 30.97 208.668 30.35C208.668 29.75 208.705 29.2233 208.778 28.77C208.858 28.3167 208.992 27.94 209.178 27.64C209.365 27.3333 209.612 27.1033 209.918 26.95C210.225 26.7967 210.608 26.72 211.068 26.72C211.855 26.72 212.422 26.9167 212.768 27.31C213.115 27.6967 213.288 28.2533 213.288 28.98H211.908ZM216.215 25H217.595L216.615 26.44H215.675L216.215 25ZM218.285 26.86V28.04H215.735V29.72H218.135V30.9H215.735V32.82H218.385V34H214.295V26.86H218.285ZM223.099 26.86V28.04H220.549V29.72H222.949V30.9H220.549V32.82H223.199V34H219.109V26.86H223.099Z" fill="black"/>
<path d="M259.158 15.2235H239.834C239.498 15.2235 239.23 14.9482 239.23 14.6118C239.23 14.2753 239.498 14 239.834 14H259.158C259.495 14 259.762 14.2753 259.762 14.6118C259.762 14.9482 259.495 15.2235 259.158 15.2235Z" fill="white"/>
<path d="M262.393 22.7329H236.63C236.408 22.7329 236.194 22.6182 236.087 22.427C235.98 22.2358 235.965 21.9988 236.08 21.8076L240.538 14.4359C240.706 14.1453 241.088 14.0612 241.371 14.2294C241.654 14.4053 241.754 14.78 241.578 15.0629L237.685 21.517H261.315L257.422 15.0629C257.247 14.78 257.338 14.4053 257.629 14.2294C257.904 14.0612 258.287 14.1453 258.462 14.4359L262.913 21.8076C263.028 21.9988 263.028 22.2358 262.921 22.427C262.814 22.6182 262.607 22.7329 262.393 22.7329Z" fill="white"/>
<path d="M239.2 25.3404C237.433 25.3404 236.003 23.9105 236.003 22.1516C236.003 21.8075 236.278 21.5322 236.623 21.5322C236.959 21.5322 237.234 21.8075 237.234 22.1516C237.234 23.2299 238.114 24.1093 239.2 24.1093C240.27 24.1093 241.157 23.2299 241.157 22.1516C241.157 21.8075 241.433 21.5322 241.769 21.5322C242.106 21.5322 242.381 21.8075 242.381 22.1516C242.381 23.9105 240.951 25.3404 239.2 25.3404Z" fill="white"/>
<path d="M244.346 25.3404C242.587 25.3404 241.15 23.9105 241.15 22.1516C241.15 21.8075 241.432 21.5322 241.769 21.5322C242.105 21.5322 242.381 21.8075 242.381 22.1516C242.381 23.2299 243.26 24.1093 244.346 24.1093C245.424 24.1093 246.304 23.2299 246.304 22.1516C246.304 21.8075 246.579 21.5322 246.923 21.5322C247.26 21.5322 247.535 21.8075 247.535 22.1516C247.535 23.9105 246.105 25.3404 244.346 25.3404Z" fill="white"/>
<path d="M249.5 25.3404C247.741 25.3404 246.304 23.9105 246.304 22.1516C246.304 21.8075 246.579 21.5322 246.923 21.5322C247.26 21.5322 247.535 21.8075 247.535 22.1516C247.535 23.2299 248.414 24.1093 249.5 24.1093C250.578 24.1093 251.458 23.2299 251.458 22.1516C251.458 21.8075 251.733 21.5322 252.07 21.5322C252.414 21.5322 252.689 21.8075 252.689 22.1516C252.689 23.9105 251.259 25.3404 249.5 25.3404Z" fill="white"/>
<path d="M254.646 25.3404C252.888 25.3404 251.458 23.9105 251.458 22.1516C251.458 21.8075 251.733 21.5322 252.069 21.5322C252.413 21.5322 252.689 21.8075 252.689 22.1516C252.689 23.2299 253.568 24.1093 254.646 24.1093C255.732 24.1093 256.612 23.2299 256.612 22.1516C256.612 21.8075 256.887 21.5322 257.223 21.5322C257.56 21.5322 257.835 21.8075 257.835 22.1516C257.835 23.9105 256.405 25.3404 254.646 25.3404Z" fill="white"/>
<path d="M259.801 25.3404C258.042 25.3404 256.612 23.9105 256.612 22.1516C256.612 21.8075 256.887 21.5322 257.224 21.5322C257.56 21.5322 257.835 21.8075 257.835 22.1516C257.835 23.2299 258.715 24.1093 259.801 24.1093C260.879 24.1093 261.758 23.2299 261.758 22.1516C261.758 21.8075 262.034 21.5322 262.378 21.5322C262.714 21.5322 262.989 21.8075 262.989 22.1516C262.989 23.9105 261.559 25.3404 259.801 25.3404Z" fill="white"/>
<path d="M259.969 38.83H239.024C238.687 38.83 238.412 38.5547 238.412 38.2182V24.7288C238.412 24.3847 238.687 24.1094 239.024 24.1094C239.368 24.1094 239.643 24.3847 239.643 24.7288V37.6064H259.357V24.7441C259.357 24.4077 259.633 24.1324 259.969 24.1324C260.305 24.1324 260.588 24.4077 260.588 24.7441V38.2182C260.588 38.5547 260.305 38.83 259.969 38.83Z" fill="white"/>
<path d="M247.497 38.6999C247.16 38.6999 246.877 38.4246 246.877 38.0881V23.75C246.877 23.4058 247.16 23.1306 247.497 23.1306C247.833 23.1306 248.108 23.4058 248.108 23.75V38.0881C248.108 38.4246 247.833 38.6999 247.497 38.6999Z" fill="white"/>
<path d="M245.248 32.5976C244.912 32.5976 244.637 32.3223 244.637 31.9782V27.4894C244.637 27.1529 244.912 26.8776 245.248 26.8776C245.585 26.8776 245.868 27.1529 245.868 27.4894V31.9782C245.868 32.3223 245.585 32.5976 245.248 32.5976Z" fill="white"/>
<path d="M252.482 31.8481C252.329 31.8481 252.169 31.7869 252.054 31.6646C251.809 31.4275 251.809 31.0375 252.054 30.8005L256.038 26.8087C256.283 26.564 256.673 26.564 256.91 26.8087C257.147 27.0458 257.147 27.4358 256.91 27.6728L252.918 31.6646C252.796 31.7869 252.643 31.8481 252.482 31.8481Z" fill="white"/>
<path d="M254.234 33.8439C254.073 33.8439 253.912 33.7828 253.798 33.6604C253.553 33.4234 253.553 33.0334 253.798 32.7963L256.168 30.4257C256.405 30.181 256.795 30.181 257.032 30.4257C257.277 30.6628 257.277 31.0528 257.032 31.2898L254.669 33.6604C254.547 33.7828 254.386 33.8439 254.234 33.8439Z" fill="white"/>
<path d="M236.41 43H237.98L238.68 48.01H238.7L239.4 43H240.97V50H239.93V44.7H239.91L239.11 50H238.19L237.39 44.7H237.37V50H236.41V43ZM242.641 43H244.131L245.271 50H244.171L243.971 48.61V48.63H242.721L242.521 50H241.501L242.641 43ZM243.841 47.68L243.351 44.22H243.331L242.851 47.68H243.841ZM247.345 50.1C246.812 50.1 246.405 49.95 246.125 49.65C245.845 49.3433 245.705 48.9067 245.705 48.34V44.66C245.705 44.0933 245.845 43.66 246.125 43.36C246.405 43.0533 246.812 42.9 247.345 42.9C247.878 42.9 248.285 43.0533 248.565 43.36C248.845 43.66 248.985 44.0933 248.985 44.66V45.26H247.945V44.59C247.945 44.13 247.755 43.9 247.375 43.9C246.995 43.9 246.805 44.13 246.805 44.59V48.42C246.805 48.8733 246.995 49.1 247.375 49.1C247.755 49.1 247.945 48.8733 247.945 48.42V47.05H247.395V46.05H248.985V48.34C248.985 48.9067 248.845 49.3433 248.565 49.65C248.285 49.95 247.878 50.1 247.345 50.1ZM250.541 43H252.031L253.171 50H252.071L251.871 48.61V48.63H250.621L250.421 50H249.401L250.541 43ZM251.741 47.68L251.251 44.22H251.231L250.751 47.68H251.741ZM255.106 50.1C254.572 50.1 254.169 49.95 253.896 49.65C253.622 49.3433 253.486 48.9067 253.486 48.34V47.94H254.526V48.42C254.526 48.8733 254.716 49.1 255.096 49.1C255.282 49.1 255.422 49.0467 255.516 48.94C255.616 48.8267 255.666 48.6467 255.666 48.4C255.666 48.1067 255.599 47.85 255.466 47.63C255.332 47.4033 255.086 47.1333 254.726 46.82C254.272 46.42 253.956 46.06 253.776 45.74C253.596 45.4133 253.506 45.0467 253.506 44.64C253.506 44.0867 253.646 43.66 253.926 43.36C254.206 43.0533 254.612 42.9 255.146 42.9C255.672 42.9 256.069 43.0533 256.336 43.36C256.609 43.66 256.746 44.0933 256.746 44.66V44.95H255.706V44.59C255.706 44.35 255.659 44.1767 255.566 44.07C255.472 43.9567 255.336 43.9 255.156 43.9C254.789 43.9 254.606 44.1233 254.606 44.57C254.606 44.8233 254.672 45.06 254.806 45.28C254.946 45.5 255.196 45.7667 255.556 46.08C256.016 46.48 256.332 46.8433 256.506 47.17C256.679 47.4967 256.766 47.88 256.766 48.32C256.766 48.8933 256.622 49.3333 256.336 49.64C256.056 49.9467 255.646 50.1 255.106 50.1ZM257.396 43H258.496V50H257.396V43ZM259.32 43H260.7L261.77 47.19H261.79V43H262.77V50H261.64L260.32 44.89H260.3V50H259.32V43Z" fill="white"/>
</g>
<defs>
<clipPath id="clip0_66_2424">
<rect width="280" height="61" fill="white"/>
</clipPath>
</defs>
</svg>
