<svg width="227" height="61" viewBox="0 0 227 61" fill="none" xmlns="http://www.w3.org/2000/svg">
<g clip-path="url(#clip0_11_76)">
<path d="M24.8542 60.7916C11.2344 60.7916 0.15625 49.8385 0.15625 36.3801V0.317627H201.323C214.938 0.317627 226.016 11.2655 226.016 24.7239L226.021 60.7916" fill="white"/>
<path d="M201.323 5.98438H50.2708V36.3802C50.2708 46.7135 58.802 55.1198 69.2916 55.1198H220.349V24.724C220.349 14.3958 211.812 5.98438 201.323 5.98438Z" fill="white"/>
<path d="M218.458 53.2292H69.2916C59.8437 53.2292 52.1562 45.6719 52.1562 36.3802V7.875H201.323C210.771 7.875 218.458 15.4323 218.458 24.724V53.2292ZM201.323 5.98438H50.2708V36.3802C50.2708 46.7135 58.802 55.1198 69.2916 55.1198H220.349V24.724C220.349 14.3958 211.812 5.98438 201.323 5.98438Z" fill="#FCC42F"/>
<path d="M163.089 55.1198L176.099 28.5417L162.807 5.98438H201.323C211.812 5.98438 220.349 14.3906 220.349 24.724V55.1198" fill="#FCC42F"/>
<path d="M201.323 7.875H166.115L178.245 28.4583L166.12 53.2292H218.458V24.724C218.458 15.4323 210.771 7.875 201.323 7.875Z" fill="#FCC42F"/>
<path d="M206.281 41.6615H205.078C204.979 41.6615 204.885 41.6719 204.792 41.6875C205.354 35.4323 206.224 25.7708 206.646 21.3958C206.687 20.9531 206.359 20.5573 205.917 20.5156C205.464 20.4635 205.073 20.7969 205.031 21.2448C204.385 27.9635 202.677 47.1458 202.661 47.3385C202.63 47.6615 202.312 47.9271 201.943 47.9271H188.854C188.479 47.9271 188.167 47.6615 188.135 47.3385C188.12 47.1458 186.411 27.9635 185.766 21.2448C185.724 20.7969 185.333 20.4635 184.88 20.5156C184.437 20.5573 184.109 20.9531 184.151 21.3958C184.573 25.7708 185.443 35.4271 186.005 41.6875C185.911 41.6667 185.812 41.6562 185.719 41.6562H184.516C183.74 41.6562 183.104 42.2917 183.104 43.0677V48.1406C183.104 48.9167 183.74 49.5469 184.516 49.5469H185.719C186.297 49.5469 186.802 49.1927 187.016 48.6823C187.443 49.2135 188.104 49.5469 188.854 49.5469H201.943C202.687 49.5469 203.349 49.2135 203.781 48.6875C203.995 49.1927 204.495 49.5521 205.078 49.5521H206.281C207.057 49.5521 207.687 48.9219 207.687 48.1406V43.0677C207.687 42.2917 207.057 41.6615 206.281 41.6615Z" fill="#1C1C1B"/>
<path d="M190.344 25.1198V27.4115H191.016C191.411 27.4115 191.625 27.2292 191.625 26.6771V26.026C191.625 25.3333 191.401 25.1198 190.865 25.1198H190.344ZM190.344 22.0833V24.0521H190.802C191.24 24.0521 191.505 23.8646 191.505 23.2656V22.849C191.505 22.3125 191.323 22.0833 190.906 22.0833H190.344ZM192.677 22.7344V23C192.677 23.7656 192.443 24.2448 191.922 24.4896V24.5104C192.547 24.7604 192.797 25.3125 192.797 26.099V26.7083C192.797 27.8594 192.187 28.4792 191.016 28.4792H189.172V21.0156H190.938C192.156 21.0156 192.677 21.5833 192.677 22.7344Z" fill="#1C1C1B"/>
<path d="M194.833 26.1146H195.964L195.411 22.3385H195.385L194.833 26.1146ZM197.51 28.4792H196.328L196.125 27.125H194.688L194.479 28.4792H193.406L194.599 21.0156H196.313" fill="#1C1C1B"/>
<path d="M201.661 25.6926V26.6874C201.661 27.8801 201.062 28.5624 199.911 28.5624C198.76 28.5624 198.161 27.8801 198.161 26.6874V22.8072C198.161 21.6093 198.76 20.927 199.911 20.927C201.062 20.927 201.661 21.6093 201.661 22.8072V23.5312H200.552V22.7291C200.552 22.1978 200.318 21.9947 199.943 21.9947C199.573 21.9947 199.338 22.1978 199.338 22.7291V26.7603C199.338 27.2916 199.573 27.4843 199.943 27.4843C200.318 27.4843 200.552 27.2916 200.552 26.7603V25.6926" fill="#1C1C1B"/>
<path d="M192.703 31.2083V36.5365H193.365C193.734 36.5365 193.958 36.3438 193.958 35.8125V31.9323C193.958 31.401 193.734 31.2083 193.365 31.2083H192.703ZM191.531 30.1406H193.385C194.557 30.1406 195.13 30.7917 195.13 31.9844V35.7604C195.13 36.9531 194.557 37.6042 193.385 37.6042H191.531" fill="#1C1C1B"/>
<path d="M197.266 33.2865H198.875V34.349H197.266V36.5365H199.292V37.6042H196.094V30.1406H199.292V31.2031H197.266" fill="#1C1C1B"/>
<path d="M190.161 39.2656H193.786V40.3281H192.562V46.7292H191.385V40.3281H190.161" fill="#1C1C1B"/>
<path d="M195.688 40.3281V42.625H196.146C196.583 42.625 196.849 42.4323 196.849 41.8333V41.099C196.849 40.5677 196.667 40.3281 196.25 40.3281H195.688ZM196.969 46.7292C196.901 46.5365 196.859 46.4167 196.859 45.8125V44.6354C196.859 43.9479 196.625 43.6875 196.094 43.6875H195.688V46.7292H194.516V39.2656H196.286C197.5 39.2656 198.021 39.8281 198.021 40.9792V41.5677C198.021 42.3333 197.776 42.8229 197.255 43.0729V43.0938C197.839 43.3385 198.031 43.8906 198.031 44.6719V45.8229C198.031 46.1823 198.042 46.4531 198.161 46.7292" fill="#1C1C1B"/>
<path d="M199.016 46.7292H200.188V39.2656H199.016V46.7292Z" fill="#1C1C1B"/>
<path d="M207.125 17.6197H183.672V15.6666C183.672 15.5989 183.703 15.5676 183.698 15.5676H185.396C185.589 15.5676 185.771 15.4999 185.917 15.3697L188.047 13.5103C188.141 13.427 188.37 13.3437 188.661 13.3437H202.13C202.422 13.3437 202.656 13.427 202.75 13.5103L204.88 15.3697C205.026 15.4999 205.208 15.5676 205.401 15.5676H207.099C207.089 15.5676 207.125 15.5989 207.125 15.6666V17.6197ZM207.099 13.9791H205.698L203.792 12.3176C203.385 11.9583 202.781 11.7551 202.13 11.7551H188.661C188.016 11.7551 187.411 11.9583 187 12.3176L185.094 13.9791H183.698C182.807 13.9791 182.089 14.7395 182.089 15.6666V17.8124C182.089 18.1093 182.161 18.401 182.307 18.6614C182.37 18.7708 182.458 18.8697 182.562 18.9374C182.823 19.1093 183.12 19.1978 183.427 19.1978H207.37C207.677 19.1978 207.974 19.1093 208.234 18.9374C208.339 18.8697 208.427 18.7708 208.49 18.6614C208.63 18.401 208.708 18.1093 208.708 17.8124V15.6666C208.708 14.7395 207.984 13.9791 207.099 13.9791Z" fill="#1C1C1B"/>
<path d="M202.125 14.0781H188.667C188.297 14.0781 187.995 14.3802 187.995 14.75C187.995 15.1198 188.297 15.4219 188.667 15.4219H202.125C202.495 15.4219 202.797 15.1198 202.797 14.75C202.797 14.3802 202.495 14.0781 202.125 14.0781Z" fill="#1C1C1B"/>
<path d="M103.057 5.98438H50.2708V36.3802C50.2708 46.7135 58.802 55.1198 69.2916 55.1198H122.083V24.724C122.083 14.3958 113.547 5.98438 103.057 5.98438Z" fill="#FCC42F"/>
<path d="M63.8072 29.677C59.0051 29.677 55.1145 33.5676 55.1145 38.3697C55.1145 43.1718 59.0051 47.0624 63.8072 47.0624C68.6145 47.0624 72.5051 43.1718 72.5051 38.3697C72.5051 33.5676 68.6145 29.677 63.8072 29.677Z" fill="white"/>
<path d="M69.4792 39.7865H65.2292V44.0417H62.3906V39.7865H58.1406V36.9531H62.3906V32.7031H65.2292V36.9531H69.4792" fill="#1C1C1B"/>
<path d="M55.9426 26.9167V17.5156H58.427V24.8333H61.9843V26.9167" fill="#1C1C1B"/>
<path d="M63.0989 26.9167V17.5156H69.1718V19.599H65.5885V21.0729H68.651V23.1562H65.5885V24.8333H69.3176V26.9167" fill="#1C1C1B"/>
<path d="M75.2448 26.9167V19.599H72.7604V17.5156H80.2239V19.599H77.7343V26.9167" fill="#1C1C1B"/>
<path d="M83.7083 21.7969H84.6042C85.6042 21.7969 86.1094 21.3802 86.1094 20.5521C86.1094 20.1458 85.9792 19.8698 85.724 19.7135C85.4688 19.5573 85.0938 19.4792 84.6042 19.4792H83.7083V21.7969ZM81.2188 26.9167V17.5156H84.776C85.2813 17.5156 85.7604 17.5625 86.2188 17.6562C86.6771 17.7552 87.0729 17.9219 87.4167 18.151C87.7604 18.3802 88.0313 18.6927 88.2344 19.0833C88.4375 19.474 88.5365 19.9635 88.5365 20.5521C88.5365 21.2292 88.401 21.7865 88.125 22.2292C87.8542 22.6719 87.4844 23.0208 87.0208 23.2708L89.0573 26.9167H86.2812L84.6615 23.7604H83.7083V26.9167" fill="#1C1C1B"/>
<path d="M90.026 26.9167H92.5156V17.5156H90.026V26.9167Z" fill="#1C1C1B"/>
<path d="M75.5364 43.5937V34.1926H81.6666V36.276H78.026V38.0676H81.1458V40.151H78.026V43.5937" fill="#1C1C1B"/>
<path d="M85.0781 39.0208L84.9166 39.6718H86.651L86.4948 39.0208C86.3802 38.5676 86.2604 38.078 86.1458 37.5468C86.0312 37.0155 85.9166 36.5155 85.7968 36.0416H85.7395C85.6354 36.526 85.526 37.0312 85.4166 37.552C85.3073 38.078 85.1927 38.5676 85.0781 39.0208ZM81.4635 43.5937L84.3229 34.1926H87.3281L90.1927 43.5937H87.5625L87.0989 41.5989H84.4687L84.0052 43.5937" fill="#1C1C1B"/>
<path d="M94.7187 43.7656C94.1249 43.7656 93.552 43.6667 93.0103 43.4688C92.4635 43.2708 91.9895 42.974 91.578 42.5729C91.1666 42.1719 90.8385 41.6719 90.5989 41.0677C90.3593 40.4688 90.2395 39.7656 90.2395 38.9635C90.2395 38.1771 90.3645 37.474 90.6145 36.8594C90.8645 36.25 91.1978 35.7344 91.6197 35.3125C92.0364 34.8958 92.5208 34.5729 93.0676 34.349C93.6145 34.1302 94.1822 34.0156 94.7812 34.0156C95.4062 34.0156 95.9687 34.1406 96.4583 34.3854C96.953 34.6354 97.3645 34.9271 97.703 35.2604L96.401 36.8542C96.1718 36.651 95.9322 36.4844 95.6874 36.3542C95.4374 36.224 95.1562 36.1562 94.8385 36.1562C94.5572 36.1562 94.2968 36.2188 94.052 36.349C93.8072 36.474 93.5885 36.651 93.401 36.8802C93.2135 37.1146 93.0624 37.401 92.953 37.7344C92.8385 38.0729 92.7864 38.4531 92.7864 38.875C92.7864 39.7656 92.9687 40.4479 93.3437 40.9167C93.7135 41.3906 94.203 41.625 94.8072 41.625C95.177 41.625 95.4999 41.5469 95.7864 41.3854C96.0676 41.2292 96.3124 41.0365 96.5155 40.8177L97.8176 42.375C97.4114 42.8438 96.9478 43.1875 96.4218 43.4167C95.8958 43.651 95.328 43.7656 94.7187 43.7656Z" fill="#1C1C1B"/>
<path d="M98.776 43.5937H101.26V34.1926H98.776V43.5937Z" fill="#1C1C1B"/>
<path d="M103.031 43.5937V34.1926H105.521V41.5103H109.078V43.5937" fill="#1C1C1B"/>
<path d="M110.188 43.5937V34.1926H116.266V36.276H112.677V37.7499H115.745V39.8333H112.677V41.5103H116.411V43.5937" fill="#1C1C1B"/>
<path d="M28.5624 26.0625C26.8697 28.5521 28.3072 31.8281 30.052 33.4896C31.6458 35 32.9218 35.3594 33.0885 35.401L33.901 33.8438L36.2447 40.2552L29.6197 41.599L30.4999 39.9688L29.6041 39.4635C26.8124 37.6458 26.2239 35.1771 26.0312 34.4062C25.6978 33.0781 25.203 29.1094 28.5624 26.0625Z" fill="#1C1C1B"/>
<path d="M28.5312 26.1718C29.7344 28.927 33.2708 29.4635 35.6042 28.8697C37.6771 28.3437 38.6615 27.4895 38.8281 27.3333L38.8177 27.3176L37.9323 25.7864L44.599 27.2395L42.1875 33.5572L41.2917 31.9687L40.4219 32.4374C37.3958 33.828 34.9896 33.0103 34.2344 32.7603C32.9375 32.3333 29.3125 30.6353 28.5312 26.1718Z" fill="#1C1C1B"/>
<path d="M40.3177 19.5156C39.8541 22.8125 37.8698 24.3958 37.25 24.8958C36.1875 25.7552 32.802 27.8854 28.6198 26.1354C31.5937 26.6094 33.9531 23.9271 34.7135 21.6406C35.401 19.5885 35.1979 18.2917 35.1562 18.0885H35.1354L33.3698 18.0104L38.1823 13.1719L42.2083 18.6094L40.3906 18.5052" fill="#1C1C1B"/>
<path fill-rule="evenodd" clip-rule="evenodd" d="M20.0938 16.7291C18.5729 16.7291 17.3438 15.4999 17.3438 13.9791C17.3438 12.4583 18.5729 11.2239 20.0938 11.2239C21.6146 11.2239 22.849 12.4583 22.849 13.9791C22.849 15.4999 21.6146 16.7291 20.0938 16.7291Z" fill="#1C1C1B"/>
<path d="M15.8333 30.1146C16.0677 29.4688 16.4167 29.5104 16.4167 29.5104C16.4167 29.5104 16.7344 29.4427 16.9115 30.0938L19.4844 39.125C17.3385 38.5052 15.3802 37.4375 13.7135 36.0312L15.8333 30.1146ZM23.8594 5.98438C13.9167 5.98438 5.82812 14.0729 5.82812 24.0208C5.82812 33.9583 13.9167 42.0521 23.8594 42.0521C24.3906 42.0521 24.9115 42.0156 25.4323 41.9688L25.5521 43.7812L28.8542 40.5885L25.1615 37.776L25.3021 39.6771C24.8281 39.7188 24.3438 39.75 23.8594 39.75C23.0938 39.75 22.3438 39.6927 21.6094 39.5885L21.5365 39.1094L19.8229 24.5104C19.5885 21.7552 21.1615 21.3125 22.1354 21.7292L27.6042 23.9219C28.2292 24.1927 28.5312 23.6719 28.5312 23.6719C28.5312 23.6719 28.8854 23.1198 28.25 22.7135C28.25 22.7135 20.7969 17.776 19.2083 17.4792C17.0417 17.0729 14.8958 18.8281 14.4219 21.1146L11.776 34.0833C9.5 31.349 8.125 27.8438 8.125 24.0208C8.125 15.3438 15.1823 8.28646 23.8594 8.28646C28.4948 8.28646 32.6667 10.3021 35.5469 13.4948L37.1615 11.8594C33.8646 8.25 29.1198 5.98438 23.8594 5.98438Z" fill="#1C1C1B"/>
<path d="M130.583 39.152H131.031C131.309 39.152 131.533 39.0907 131.703 38.968C131.874 38.8453 131.959 38.6187 131.959 38.288C131.959 38.1227 131.935 37.9867 131.887 37.88C131.845 37.768 131.783 37.68 131.703 37.616C131.629 37.5467 131.538 37.4987 131.431 37.472C131.325 37.4453 131.207 37.432 131.079 37.432H130.583V39.152ZM130.583 36.632H130.911C131.231 36.632 131.463 36.576 131.607 36.464C131.757 36.3467 131.831 36.152 131.831 35.88C131.831 35.608 131.765 35.416 131.631 35.304C131.498 35.192 131.287 35.136 130.999 35.136H130.583V36.632ZM129.431 34.288H131.359C131.594 34.288 131.81 34.312 132.007 34.36C132.21 34.408 132.383 34.488 132.527 34.6C132.671 34.712 132.783 34.8613 132.863 35.048C132.943 35.2347 132.983 35.464 132.983 35.736C132.983 36.0453 132.911 36.312 132.767 36.536C132.623 36.7547 132.407 36.904 132.119 36.984V37C132.439 37.0427 132.693 37.1787 132.879 37.408C133.066 37.6373 133.159 37.944 133.159 38.328C133.159 38.552 133.13 38.7653 133.071 38.968C133.013 39.1707 132.911 39.3493 132.767 39.504C132.629 39.6533 132.445 39.7733 132.215 39.864C131.991 39.9547 131.711 40 131.375 40H129.431V34.288ZM134.909 37.144C134.909 37.528 134.917 37.856 134.933 38.128C134.954 38.3947 134.991 38.6133 135.045 38.784C135.103 38.9493 135.183 39.072 135.285 39.152C135.391 39.2267 135.53 39.264 135.701 39.264C135.871 39.264 136.007 39.2267 136.109 39.152C136.215 39.072 136.295 38.9493 136.349 38.784C136.407 38.6133 136.445 38.3947 136.461 38.128C136.482 37.856 136.493 37.528 136.493 37.144C136.493 36.76 136.482 36.4347 136.461 36.168C136.445 35.9013 136.407 35.6827 136.349 35.512C136.295 35.3413 136.215 35.2187 136.109 35.144C136.007 35.064 135.871 35.024 135.701 35.024C135.53 35.024 135.391 35.064 135.285 35.144C135.183 35.2187 135.103 35.3413 135.045 35.512C134.991 35.6827 134.954 35.9013 134.933 36.168C134.917 36.4347 134.909 36.76 134.909 37.144ZM133.757 37.144C133.757 36.712 133.775 36.3147 133.813 35.952C133.855 35.584 133.943 35.2693 134.077 35.008C134.215 34.7467 134.413 34.544 134.669 34.4C134.925 34.2507 135.269 34.176 135.701 34.176C136.133 34.176 136.477 34.2507 136.733 34.4C136.989 34.544 137.183 34.7467 137.317 35.008C137.455 35.2693 137.543 35.584 137.581 35.952C137.623 36.3147 137.645 36.712 137.645 37.144C137.645 37.5813 137.623 37.9813 137.581 38.344C137.543 38.7067 137.455 39.0187 137.317 39.28C137.183 39.5413 136.989 39.7413 136.733 39.88C136.477 40.0187 136.133 40.088 135.701 40.088C135.269 40.088 134.925 40.0187 134.669 39.88C134.413 39.7413 134.215 39.5413 134.077 39.28C133.943 39.0187 133.855 38.7067 133.813 38.344C133.775 37.9813 133.757 37.5813 133.757 37.144ZM138.378 32.8H139.53L140.154 33.952H139.306L138.938 33.272L138.554 33.952H137.778L138.378 32.8ZM138.378 40V34.288H139.53V40H138.378ZM143.728 34.288V35.232H142.48V40H141.328V35.232H140.08V34.288H143.728ZM147.42 34.288V35.232H145.38V36.576H147.3V37.52H145.38V39.056H147.5V40H144.228V34.288H147.42ZM153.194 34.288V35.232H151.154V36.576H153.074V37.52H151.154V39.056H153.274V40H150.002V34.288H153.194ZM155.181 34.288L156.573 38.2H156.589V34.288H157.645V40H156.333L154.925 36H154.909V40H153.853V34.288H155.181ZM128.575 46.872H129.087C129.317 46.872 129.501 46.8027 129.639 46.664C129.783 46.5253 129.855 46.3093 129.855 46.016C129.855 45.728 129.794 45.5093 129.671 45.36C129.549 45.2107 129.343 45.136 129.055 45.136H128.575V46.872ZM127.423 44.288H129.439C129.733 44.288 129.978 44.3387 130.175 44.44C130.378 44.536 130.541 44.664 130.663 44.824C130.786 44.984 130.874 45.168 130.927 45.376C130.981 45.5787 131.007 45.7867 131.007 46C131.007 46.2933 130.962 46.5493 130.871 46.768C130.786 46.9867 130.663 47.1653 130.503 47.304C130.349 47.4427 130.159 47.5467 129.935 47.616C129.711 47.6853 129.463 47.72 129.191 47.72H128.575V50H127.423V44.288ZM131.572 50V44.288H132.724V49.056H134.764V50H131.572ZM137.659 47.848L137.107 45.28H137.091L136.539 47.848H137.659ZM137.811 44.288L139.323 50H138.123L137.859 48.792H136.339L136.075 50H134.875L136.387 44.288H137.811ZM140.648 48.216V48.384C140.648 48.5173 140.659 48.64 140.68 48.752C140.702 48.8587 140.742 48.9493 140.8 49.024C140.859 49.0987 140.936 49.1573 141.032 49.2C141.134 49.2427 141.259 49.264 141.408 49.264C141.584 49.264 141.742 49.208 141.88 49.096C142.024 48.9787 142.096 48.8 142.096 48.56C142.096 48.432 142.078 48.3227 142.04 48.232C142.008 48.136 141.952 48.0507 141.872 47.976C141.792 47.9013 141.686 47.8347 141.552 47.776C141.424 47.712 141.264 47.648 141.072 47.584C140.816 47.4987 140.595 47.4053 140.408 47.304C140.222 47.2027 140.064 47.0853 139.936 46.952C139.814 46.8133 139.723 46.656 139.664 46.48C139.606 46.2987 139.576 46.0907 139.576 45.856C139.576 45.2907 139.734 44.8693 140.048 44.592C140.363 44.3147 140.795 44.176 141.344 44.176C141.6 44.176 141.835 44.2053 142.048 44.264C142.267 44.3173 142.454 44.408 142.608 44.536C142.768 44.6587 142.891 44.8187 142.976 45.016C143.067 45.208 143.112 45.44 143.112 45.712V45.872H142.008C142.008 45.6 141.96 45.392 141.864 45.248C141.768 45.0987 141.608 45.024 141.384 45.024C141.256 45.024 141.15 45.0427 141.064 45.08C140.979 45.1173 140.91 45.168 140.856 45.232C140.808 45.2907 140.774 45.36 140.752 45.44C140.736 45.52 140.728 45.6027 140.728 45.688C140.728 45.864 140.766 46.0133 140.84 46.136C140.915 46.2533 141.075 46.3627 141.32 46.464L142.208 46.848C142.427 46.944 142.606 47.0453 142.744 47.152C142.883 47.2533 142.992 47.3653 143.072 47.488C143.158 47.6053 143.216 47.736 143.248 47.88C143.28 48.024 143.296 48.184 143.296 48.36C143.296 48.9627 143.12 49.4027 142.768 49.68C142.422 49.952 141.936 50.088 141.312 50.088C140.662 50.088 140.195 49.9467 139.912 49.664C139.635 49.3813 139.496 48.976 139.496 48.448V48.216H140.648ZM147.213 44.288V45.232H145.965V50H144.813V45.232H143.565V44.288H147.213ZM147.769 50V44.288H148.921V50H147.769ZM150.807 47.144C150.807 47.528 150.815 47.856 150.831 48.128C150.852 48.3947 150.89 48.6133 150.943 48.784C151.002 48.9493 151.082 49.072 151.183 49.152C151.29 49.2267 151.428 49.264 151.599 49.264C151.77 49.264 151.906 49.2267 152.007 49.152C152.114 49.072 152.194 48.9493 152.247 48.784C152.306 48.6133 152.343 48.3947 152.359 48.128C152.38 47.856 152.391 47.528 152.391 47.144C152.391 46.76 152.38 46.4347 152.359 46.168C152.343 45.9013 152.306 45.6827 152.247 45.512C152.194 45.3413 152.114 45.2187 152.007 45.144C151.906 45.064 151.77 45.024 151.599 45.024C151.428 45.024 151.29 45.064 151.183 45.144C151.082 45.2187 151.002 45.3413 150.943 45.512C150.89 45.6827 150.852 45.9013 150.831 46.168C150.815 46.4347 150.807 46.76 150.807 47.144ZM153.039 50.68L152.359 50C152.146 50.0587 151.892 50.088 151.599 50.088C151.167 50.088 150.823 50.0187 150.567 49.88C150.311 49.7413 150.114 49.5413 149.975 49.28C149.842 49.0187 149.754 48.7067 149.711 48.344C149.674 47.9813 149.655 47.5813 149.655 47.144C149.655 46.712 149.674 46.3147 149.711 45.952C149.754 45.584 149.842 45.2693 149.975 45.008C150.114 44.7467 150.311 44.544 150.567 44.4C150.823 44.2507 151.167 44.176 151.599 44.176C152.031 44.176 152.375 44.2507 152.631 44.4C152.887 44.544 153.082 44.7467 153.215 45.008C153.354 45.2693 153.442 45.584 153.479 45.952C153.522 46.3147 153.543 46.712 153.543 47.144C153.543 47.6293 153.516 48.0693 153.463 48.464C153.41 48.8587 153.29 49.192 153.103 49.464L153.719 50.064L153.039 50.68ZM155.3 44.288V48.272C155.3 48.416 155.308 48.5493 155.324 48.672C155.346 48.7893 155.38 48.8933 155.428 48.984C155.482 49.0693 155.551 49.1387 155.636 49.192C155.727 49.24 155.839 49.264 155.972 49.264C156.111 49.264 156.223 49.24 156.308 49.192C156.394 49.1387 156.46 49.0693 156.508 48.984C156.562 48.8933 156.596 48.7893 156.612 48.672C156.634 48.5493 156.644 48.416 156.644 48.272V44.288H157.796V48.272C157.796 48.6347 157.746 48.936 157.644 49.176C157.543 49.4107 157.407 49.5973 157.236 49.736C157.066 49.8747 156.871 49.968 156.652 50.016C156.434 50.064 156.207 50.088 155.972 50.088C155.738 50.088 155.511 50.0667 155.292 50.024C155.074 49.9813 154.879 49.896 154.708 49.768C154.538 49.6347 154.402 49.448 154.3 49.208C154.199 48.968 154.148 48.656 154.148 48.272V44.288H155.3ZM161.717 44.288V45.232H159.677V46.576H161.597V47.52H159.677V49.056H161.797V50H158.525V44.288H161.717Z" fill="#1C1C1B"/>
<path d="M152.417 23.9042C152.209 23.9811 151.656 24.1312 150.444 24.1312C150.07 24.1312 149.744 24.1056 149.455 24.0616L150.041 22.0915C151.381 21.6777 152.443 21.3261 153.274 21.0258L152.417 23.9042ZM145.998 25.7827C145.225 25.7827 144.742 25.6839 144.449 25.5887L145.017 23.6881C145.833 23.4354 146.683 23.1608 147.496 22.8971C147.998 22.736 148.47 22.5822 148.898 22.4467L148.367 24.2337C148.356 24.2557 148.342 24.2703 148.338 24.2887C148.331 24.3106 148.334 24.3326 148.331 24.3546L147.972 25.5557C147.763 25.6326 147.21 25.7827 145.998 25.7827ZM140.912 27.5844C139.568 27.5844 139.092 27.2915 138.993 27.2256L138.085 23.992C138.238 24.0543 138.392 24.1129 138.542 24.1678C138.55 24.1678 138.553 24.1715 138.557 24.1751C138.561 24.1751 138.561 24.1751 138.561 24.1751C139.359 24.4644 140.143 24.6658 140.835 24.6658C141.472 24.6658 142.589 24.4022 143.874 24.0287L142.885 27.3537C142.677 27.4343 142.124 27.5844 140.912 27.5844ZM136.312 25.4788C134.972 25.4788 134.496 25.1895 134.397 25.1199L133.522 22.0073C133.914 22.1794 134.353 22.3625 134.847 22.5639C135.279 22.7396 135.756 22.9557 136.25 23.1864C136.466 23.2853 136.689 23.3878 136.913 23.4867L137.455 25.4239C137.165 25.4568 136.799 25.4788 136.312 25.4788ZM136.664 22.2819C136.155 22.0475 135.668 21.8242 135.225 21.6411C134.807 21.4726 134.25 21.2456 133.712 21.0075C133.756 20.9599 133.8 20.9123 133.837 20.8611C133.914 20.7585 134.148 20.4473 135.474 21.0991C136.887 21.7949 137.059 22.1757 137.22 22.5346C137.03 22.4503 136.847 22.3661 136.664 22.2819ZM134.393 15.6867L134.412 15.683L141.395 17.8253C141.424 17.8363 141.454 17.8399 141.479 17.8399C141.505 17.8399 141.527 17.8363 141.549 17.8326L144.819 17.016L145.368 19.1216C145.401 19.2498 145.515 19.334 145.643 19.334C145.665 19.334 145.69 19.3303 145.712 19.323L147.203 18.9349C147.276 18.9165 147.338 18.8689 147.375 18.803C147.415 18.7371 147.423 18.6639 147.404 18.5906L146.862 16.5033L149.968 15.727L150.455 17.5946C150.473 17.6678 150.521 17.7301 150.587 17.7704C150.63 17.796 150.682 17.807 150.729 17.807C150.755 17.807 150.777 17.807 150.803 17.7996L152.125 17.4554C152.198 17.4334 152.26 17.3895 152.3 17.3199C152.337 17.2577 152.348 17.1808 152.326 17.1075L151.846 15.2582L153.263 14.903L153.3 14.914L154.402 19.1436C154.432 19.2644 154.508 19.356 154.604 19.4219C153.282 20.0627 150.246 20.9892 149.107 21.3408C148.561 21.5092 147.902 21.7216 147.188 21.9523C144.951 22.6774 141.878 23.6734 140.835 23.6734C140.267 23.6734 139.59 23.4903 138.876 23.2303C138.751 23.1864 138.451 22.8605 138.118 22.1098C137.868 21.5385 137.524 21.0039 135.913 20.2092C134.507 19.5134 133.591 19.5318 133.042 20.2642C133.038 20.2678 132.804 20.5827 132.61 20.4839C132.603 20.4802 132.603 20.4802 132.599 20.4802C132.584 20.4729 132.57 20.4656 132.559 20.4582C132.65 20.3996 132.727 20.3154 132.767 20.2056L134.393 15.6867ZM146.785 18.4588L145.844 18.7042L145.379 16.9208L146.32 16.6754L146.785 18.4588ZM151.707 16.9757L150.934 17.1771L150.535 15.6537L151.312 15.4523L151.707 16.9757ZM145.687 13.0098L152.092 14.6101L141.49 17.2613L135.503 15.423L145.687 13.0098ZM156.145 19.107C156.065 18.4954 155.494 18.1658 155.135 18.0157L154.186 14.3757C154.139 14.1999 154.003 14.0644 153.824 14.0205L145.811 12.0137C145.734 11.9954 145.654 11.9954 145.577 12.0137L133.903 14.7785C133.741 14.8188 133.606 14.936 133.551 15.0971L132.255 18.6932C131.87 18.9202 131.163 19.4109 131.024 19.9785C130.9 20.4765 131.251 20.8794 132.148 21.3627C132.152 21.3627 132.156 21.3664 132.156 21.3664C132.159 21.3701 132.163 21.3701 132.167 21.3737C132.222 21.403 132.273 21.4323 132.332 21.4616L133.467 25.4971C133.478 25.5374 133.496 25.5777 133.518 25.6143C133.639 25.8157 134.192 26.4712 136.312 26.4712C136.854 26.4712 137.323 26.4456 137.726 26.3906L138.063 27.5991C138.074 27.6394 138.092 27.6796 138.114 27.7199C138.235 27.9213 138.788 28.5768 140.912 28.5768C142.907 28.5768 143.493 28.2033 143.654 28.0422C143.713 27.9836 143.757 27.914 143.779 27.8334L144.163 26.5408C144.577 26.6726 145.163 26.7751 145.998 26.7751C147.994 26.7751 148.583 26.4016 148.741 26.2442C148.803 26.1819 148.843 26.1123 148.865 26.0354L149.169 25.0247C149.543 25.0906 149.968 25.1272 150.444 25.1272C152.439 25.1272 153.025 24.7537 153.187 24.5926C153.241 24.534 153.289 24.4608 153.311 24.3839L154.446 20.5754C155.885 19.9675 156.208 19.5684 156.145 19.107Z" fill="#1C1C1B"/>
<path d="M139.396 22.9337C139.652 23.0106 140.011 23.1168 140.622 23.1168C141.351 23.1168 142.439 22.963 144.142 22.421C147.078 21.4872 152.659 19.7405 152.659 19.7405L152.487 19.1985C152.487 19.1985 146.906 20.9452 143.969 21.879C141.014 22.8202 140.066 22.5382 139.557 22.3881C139.407 22.3441 139.245 22.4283 139.202 22.5785C139.158 22.7286 139.245 22.8861 139.396 22.9337Z" fill="#1C1C1B"/>
</g>
<defs>
<clipPath id="clip0_11_76">
<rect width="227" height="61" fill="white"/>
</clipPath>
</defs>
</svg>
