<svg width="275" height="72" viewBox="0 0 275 72" fill="none" xmlns="http://www.w3.org/2000/svg">
<g clip-path="url(#clip0_47_1556)">
<path d="M24.6927 71.8125C11.0729 71.8125 0 60.8646 0 47.4063V0H250.297C263.911 0 274.99 10.9531 274.99 24.4063V71.8125" fill="white"/>
<path d="M24.6927 60.474C11.0729 60.474 0 49.526 0 36.0677V0H250.297C263.911 0 274.99 10.9479 274.99 24.4063V60.474" fill="white"/>
<path d="M250.297 5.67188H50.1094V36.0677C50.1094 46.401 58.6406 54.8073 69.1302 54.8073L269.323 54.8021V24.4115C269.323 14.0781 260.786 5.67188 250.297 5.67188Z" fill="white"/>
<path d="M267.432 52.9167H69.1302C59.6823 52.9167 52 45.3594 52 36.0677V7.5625L250.297 7.55729C259.745 7.55729 267.432 15.1198 267.432 24.4115V52.9167ZM250.297 5.67188H50.1094V36.0677C50.1094 46.401 58.6406 54.8073 69.1302 54.8073L269.318 54.8021V24.4115C269.318 14.0781 260.786 5.67188 250.297 5.67188Z" fill="#FCC42F"/>
<path d="M169.755 29.2969H165.505V33.5469H162.672V29.2969H158.417V26.4636H162.672V22.2084H165.505V26.4636H169.755" fill="#1C1C1B"/>
<path d="M212.063 54.8021L225.073 28.224L211.781 5.67188H250.297C260.786 5.67188 269.318 14.0781 269.318 24.4063V54.8021" fill="#FCC42F"/>
<path d="M250.297 7.55737H215.088L227.219 28.1459L215.094 52.9167H267.432V24.4063C267.432 15.1199 259.745 7.55737 250.297 7.55737Z" fill="#FCC42F"/>
<path d="M255.255 41.3438H254.052C253.953 41.3438 253.859 41.3543 253.766 41.3751C254.328 35.1147 255.198 25.4584 255.62 21.0834C255.661 20.6355 255.333 20.2397 254.891 20.198C254.432 20.1511 254.047 20.4845 254.005 20.9272C253.359 27.6459 251.651 46.8282 251.635 47.0209C251.604 47.349 251.286 47.6095 250.917 47.6095H237.823C237.453 47.6095 237.141 47.349 237.109 47.0209C237.089 46.8282 235.385 27.6459 234.74 20.9272C234.698 20.4845 234.307 20.1511 233.854 20.198C233.406 20.2397 233.083 20.6355 233.125 21.0834C233.542 25.4532 234.417 35.1095 234.974 41.3699C234.88 41.3543 234.786 41.3438 234.688 41.3438H233.49C232.708 41.3438 232.078 41.974 232.078 42.7501V47.823C232.078 48.599 232.708 49.2345 233.49 49.2345H234.688C235.271 49.2345 235.776 48.8751 235.984 48.3699C236.417 48.8959 237.078 49.2345 237.823 49.2345H250.917C251.661 49.2345 252.323 48.8959 252.755 48.3699C252.964 48.8751 253.469 49.2345 254.052 49.2345H255.255C256.031 49.2345 256.661 48.6043 256.661 47.8282V42.7553C256.661 41.9793 256.031 41.3438 255.255 41.3438Z" fill="#1C1C1B"/>
<path d="M239.318 24.8022V27.0938H239.99C240.38 27.0938 240.594 26.9167 240.594 26.3595V25.7084C240.594 25.0157 240.37 24.8022 239.839 24.8022H239.318ZM239.318 21.7657V23.7397H239.776C240.214 23.7397 240.479 23.547 240.479 22.948V22.5313C240.479 22.0001 240.297 21.7657 239.88 21.7657H239.318ZM241.651 22.4167V22.6824C241.651 23.448 241.417 23.9324 240.896 24.1772V24.198C241.521 24.4428 241.766 24.9949 241.766 25.7865V26.3907C241.766 27.5417 241.161 28.1615 239.99 28.1615H238.141V20.698H239.911C241.13 20.698 241.651 21.2657 241.651 22.4167Z" fill="#1C1C1B"/>
<path d="M243.807 25.797H244.937L244.38 22.0209H244.359L243.807 25.797ZM246.484 28.1615H245.302L245.099 26.8074H243.656L243.453 28.1615H242.38L243.573 20.698H245.286" fill="#1C1C1B"/>
<path d="M250.635 25.3802V26.3698C250.635 27.5677 250.036 28.2448 248.885 28.2448C247.734 28.2448 247.135 27.5677 247.135 26.3698V22.4896C247.135 21.2969 247.734 20.6146 248.885 20.6146C250.036 20.6146 250.635 21.2969 250.635 22.4896V23.2136H249.526V22.4167C249.526 21.8802 249.292 21.6823 248.917 21.6823C248.547 21.6823 248.307 21.8802 248.307 22.4167V26.448C248.307 26.9792 248.547 27.1719 248.917 27.1719C249.292 27.1719 249.526 26.9792 249.526 26.448V25.3802" fill="#1C1C1B"/>
<path d="M241.677 30.8907V36.2188H242.338C242.708 36.2188 242.932 36.0313 242.932 35.4949V31.6147C242.932 31.0834 242.708 30.8907 242.338 30.8907H241.677ZM240.505 29.823H242.359C243.531 29.823 244.104 30.474 244.104 31.6667V35.4428C244.104 36.6355 243.531 37.2865 242.359 37.2865H240.505" fill="#1C1C1B"/>
<path d="M246.24 32.9688H247.849V34.0365H246.24V36.2188H248.266V37.2865H245.068V29.823H248.266V30.8907H246.24" fill="#1C1C1B"/>
<path d="M239.135 38.9479H242.76V40.0156H241.536V46.4115H240.359V40.0156H239.135" fill="#1C1C1B"/>
<path d="M244.661 40.0156V42.3073H245.12C245.557 42.3073 245.823 42.1146 245.823 41.5209V40.7813C245.823 40.25 245.641 40.0156 245.224 40.0156H244.661ZM245.938 46.4115C245.875 46.2188 245.833 46.099 245.833 45.4948V44.3229C245.833 43.6302 245.599 43.375 245.068 43.375H244.661V46.4115H243.484V38.9479H245.255C246.474 38.9479 246.995 39.5156 246.995 40.6667V41.25C246.995 42.0209 246.75 42.5104 246.229 42.7552V42.7761C246.813 43.0209 247.005 43.5781 247.005 44.3542V45.5052C247.005 45.8698 247.016 46.1354 247.135 46.4115" fill="#1C1C1B"/>
<path d="M247.99 46.4115H249.161V38.9479H247.99V46.4115Z" fill="#1C1C1B"/>
<path d="M256.094 17.3021H232.646V15.3542C232.646 15.2865 232.677 15.2552 232.672 15.25H234.37C234.563 15.25 234.745 15.1823 234.891 15.0573L237.021 13.1927C237.115 13.1146 237.344 13.026 237.635 13.026H251.104C251.396 13.026 251.63 13.1146 251.724 13.1927L253.854 15.0573C254 15.1823 254.182 15.25 254.375 15.25H256.073C256.063 15.2552 256.094 15.2865 256.094 15.3542V17.3021ZM256.073 13.6667H254.672L252.766 12C252.359 11.6458 251.755 11.4375 251.104 11.4375H237.635C236.99 11.4375 236.385 11.6458 235.974 12L234.073 13.6667H232.672C231.781 13.6667 231.062 14.4219 231.062 15.3542V17.4948C231.062 17.7917 231.135 18.0885 231.281 18.3438C231.344 18.4583 231.427 18.5521 231.536 18.625C231.797 18.7969 232.094 18.8854 232.401 18.8854H256.344C256.646 18.8854 256.948 18.7969 257.208 18.625C257.313 18.5521 257.401 18.4583 257.464 18.3438C257.604 18.0885 257.682 17.7917 257.682 17.4948V15.3542C257.682 14.4219 256.958 13.6667 256.073 13.6667Z" fill="#1C1C1B"/>
<path d="M251.099 13.7605H237.641C237.271 13.7605 236.969 14.0626 236.969 14.4324C236.969 14.8022 237.271 15.1042 237.641 15.1042H251.099C251.469 15.1042 251.771 14.8022 251.771 14.4324C251.771 14.0626 251.469 13.7605 251.099 13.7605Z" fill="#1C1C1B"/>
<path d="M102.896 5.67188H50.1094V36.0677C50.1094 46.401 58.6406 54.8073 69.1302 54.8073H121.922V24.4115C121.922 14.0781 113.385 5.67188 102.896 5.67188Z" fill="#FCC42F"/>
<path d="M63.651 29.3646C58.8437 29.3646 54.9531 33.2552 54.9531 38.0573C54.9531 42.8594 58.8437 46.75 63.651 46.75C68.4531 46.75 72.3438 42.8594 72.3438 38.0573C72.3438 33.2552 68.4531 29.3646 63.651 29.3646Z" fill="white"/>
<path d="M69.3177 39.474H65.0677V43.724H62.2343V39.474H57.9791V36.6406H62.2343V32.3854H65.0677V36.6406H69.3177" fill="#1C1C1B"/>
<path d="M55.7812 26.6042V17.2031H58.2656V24.5208H61.8281V26.6042" fill="#1C1C1B"/>
<path d="M62.9375 26.6042V17.2031H69.0104V19.2865H65.4271V20.7604H68.4948V22.8438H65.4271V24.5208H69.1563V26.6042" fill="#1C1C1B"/>
<path d="M75.0833 26.6042V19.2865H72.5989V17.2031H80.0624V19.2865H77.5728V26.6042" fill="#1C1C1B"/>
<path d="M83.5468 21.4844H84.4427C85.4479 21.4844 85.9479 21.0677 85.9479 20.2396C85.9479 19.8333 85.8229 19.5521 85.5677 19.401C85.3073 19.2448 84.9375 19.1667 84.4427 19.1667H83.5468V21.4844ZM81.0573 26.6042V17.2031H84.6145C85.1198 17.2031 85.5989 17.25 86.0573 17.3438C86.5156 17.4427 86.9114 17.6042 87.2552 17.8385C87.5989 18.0677 87.8698 18.3802 88.0729 18.7708C88.276 19.1615 88.3802 19.651 88.3802 20.2396C88.3802 20.9115 88.2395 21.474 87.9687 21.9167C87.6927 22.3594 87.3229 22.7083 86.8593 22.9583L88.901 26.6042H86.1198L84.5052 23.4479H83.5468V26.6042" fill="#1C1C1B"/>
<path d="M89.8645 26.6042H92.3541V17.2031H89.8645V26.6042Z" fill="#1C1C1B"/>
<path d="M75.375 43.2761V33.8802H81.5104V35.9636H77.8646V37.7552H80.9844V39.8334H77.8646V43.2761" fill="#1C1C1B"/>
<path d="M84.9166 38.7084L84.7551 39.3594H86.4895L86.3333 38.7084C86.2135 38.2553 86.0989 37.7657 85.9843 37.2344C85.8697 36.7032 85.7551 36.2032 85.6353 35.7292H85.578C85.4739 36.2084 85.3645 36.7136 85.2551 37.2396C85.1458 37.7657 85.0312 38.2553 84.9166 38.7084ZM81.302 43.2813L84.1614 33.8751H87.1718L90.0364 43.2813H87.401L86.9374 41.2865H84.3072L83.8437 43.2813" fill="#1C1C1B"/>
<path d="M94.5625 43.4532C93.9635 43.4532 93.3958 43.3542 92.849 43.1563C92.3021 42.9584 91.8281 42.6615 91.4167 42.2605C91.0052 41.8594 90.6823 41.3594 90.4375 40.7553C90.1979 40.1511 90.0781 39.4532 90.0781 38.6511C90.0781 37.8594 90.2031 37.1615 90.4531 36.5469C90.7031 35.9324 91.0417 35.4167 91.4583 35.0001C91.8802 34.5782 92.3594 34.2605 92.9063 34.0365C93.4531 33.8178 94.0208 33.7032 94.6198 33.7032C95.2448 33.7032 95.8073 33.8282 96.2969 34.073C96.7917 34.3178 97.2031 34.6094 97.5417 34.948L96.2396 36.5417C96.0104 36.3386 95.7708 36.1719 95.526 36.0417C95.2812 35.9115 94.9948 35.8438 94.6771 35.8438C94.3958 35.8438 94.1354 35.9063 93.8906 36.0313C93.6458 36.1563 93.4271 36.3386 93.2396 36.5678C93.0521 36.8021 92.901 37.0834 92.7917 37.4219C92.6771 37.7605 92.625 38.1407 92.625 38.5626C92.625 39.4532 92.8073 40.1303 93.1823 40.6042C93.5521 41.0782 94.0417 41.3126 94.6458 41.3126C95.0156 41.3126 95.3385 41.2344 95.625 41.073C95.9115 40.9167 96.151 40.724 96.3542 40.5001L97.6563 42.0626C97.25 42.5261 96.7865 42.8751 96.2604 43.1042C95.7344 43.3386 95.1719 43.4532 94.5625 43.4532Z" fill="#1C1C1B"/>
<path d="M98.6145 43.2761H101.099V33.8802H98.6145V43.2761Z" fill="#1C1C1B"/>
<path d="M102.87 43.2761V33.8802H105.359V41.198H108.917V43.2761" fill="#1C1C1B"/>
<path d="M110.026 43.2761V33.8802H116.104V35.9636H112.516V37.4375H115.583V39.5209H112.516V41.198H116.245V43.2761" fill="#1C1C1B"/>
<path d="M28.401 25.75C26.7083 28.2396 28.1458 31.5156 29.8958 33.1771C31.4844 34.6875 32.7604 35.0417 32.9271 35.0833L33.7396 33.5313L36.0833 39.9375L29.4583 41.2865L30.3385 39.6563L29.4427 39.151C26.651 37.3333 26.0625 34.8646 25.8698 34.0938C25.5365 32.7656 25.0417 28.7969 28.401 25.75Z" fill="#1C1C1B"/>
<path d="M28.3698 25.8594C29.5729 28.6146 33.1093 29.1458 35.4479 28.5573C37.5156 28.0312 38.5 27.1771 38.6666 27.0208L38.6562 27.0052L37.7708 25.4688L44.4375 26.9271L42.0208 33.2448L41.1302 31.651L40.2604 32.125C37.2343 33.5156 34.8281 32.6979 34.0729 32.4479C32.776 32.0208 29.151 30.3229 28.3698 25.8594Z" fill="#1C1C1B"/>
<path d="M40.1562 19.1979C39.6926 22.4948 37.7083 24.0781 37.0885 24.5781C36.026 25.4427 32.6405 27.5729 28.4583 25.8229C31.4322 26.2969 33.7916 23.6094 34.552 21.3229C35.2395 19.276 35.0364 17.974 34.9999 17.776L34.9739 17.7708L33.2083 17.6979L38.0208 12.8594L42.0468 18.2969L40.2343 18.1875" fill="#1C1C1B"/>
<path fill-rule="evenodd" clip-rule="evenodd" d="M19.9323 16.4167C18.4114 16.4167 17.1823 15.1875 17.1823 13.6615C17.1823 12.1407 18.4114 10.9115 19.9323 10.9115C21.4531 10.9115 22.6875 12.1407 22.6875 13.6615C22.6875 15.1875 21.4531 16.4167 19.9323 16.4167Z" fill="#1C1C1B"/>
<path d="M15.6718 29.8021C15.9062 29.1563 16.2552 29.1979 16.2552 29.1979C16.2552 29.1979 16.5729 29.1302 16.75 29.7813L19.3229 38.8125C17.177 38.1927 15.2187 37.125 13.5573 35.7188L15.6718 29.8021ZM23.6979 5.67188C13.7552 5.67188 5.66663 13.7604 5.66663 23.7031C5.66663 33.6458 13.7552 41.7396 23.6979 41.7396C24.2291 41.7396 24.7552 41.7031 25.2708 41.6563L25.3958 43.4688L28.6927 40.276L25 37.4635L25.1406 39.3646C24.6666 39.4063 24.1875 39.4375 23.6979 39.4375C22.9323 39.4375 22.1823 39.3802 21.4479 39.2708L21.375 38.7969L19.6614 24.1979C19.427 21.4375 21 21 21.9739 21.4115L27.4427 23.6094C28.0677 23.8802 28.3698 23.3542 28.3698 23.3542C28.3698 23.3542 28.7239 22.8073 28.0885 22.401C28.0885 22.401 20.6354 17.4635 19.0468 17.1667C16.8802 16.7604 14.7395 18.5156 14.2604 20.8021L11.6145 33.7656C9.3385 31.0365 7.9635 27.5312 7.9635 23.7031C7.9635 15.0312 15.0208 7.96875 23.6979 7.96875C28.3333 7.96875 32.5052 9.98437 35.3854 13.1823L37 11.5469C33.7031 7.9375 28.9583 5.67188 23.6979 5.67188Z" fill="#1C1C1B"/>
<path d="M132.968 63.7201L132.927 63.8868C132.718 64.8868 133.072 66.2618 134.843 66.2618C136.281 66.2618 137.51 65.4284 137.843 63.9076C138.052 62.9284 137.531 62.1993 136.614 61.8451L135.885 61.5534C135.197 61.2618 135.135 61.1368 135.281 60.5326C135.427 59.7826 135.76 59.6993 136.26 59.6993C136.968 59.6993 136.968 59.8868 136.843 60.5326L136.76 60.8659H138.281L138.364 60.5326C138.531 59.7826 138.385 58.4493 136.572 58.4493C135.218 58.4493 133.989 59.3659 133.718 60.6576C133.489 61.6784 134.031 62.4076 134.989 62.8243L135.697 63.0951C136.302 63.2826 136.406 63.4076 136.26 64.1576C136.135 64.6993 135.864 65.0118 135.156 65.0118C134.364 65.0118 134.281 64.7618 134.447 63.8868L134.531 63.5326H133.01L132.968 63.7201Z" fill="#1C1C1B"/>
<path d="M142.554 63.3659L142.658 62.8034C142.992 61.3034 142.575 60.2201 141.075 60.2201C139.387 60.2201 138.575 61.9076 138.283 63.3243C137.762 65.8034 138.992 66.2618 139.867 66.2618C141.033 66.2618 142.096 65.3243 142.387 63.9284H140.992C140.867 64.4493 140.804 65.1368 140.033 65.1368C139.221 65.1368 139.512 64.4076 139.679 63.6784L139.7 63.5743H142.512L142.554 63.3659ZM139.887 62.6368L139.908 62.5326C140.054 61.8243 140.242 61.3451 140.929 61.3451C141.533 61.3451 141.45 61.6576 141.304 62.3451L141.283 62.4493H139.929L139.887 62.6368ZM140.742 60.0326H141.554L143.283 58.2201H141.554L140.387 60.0326H140.742Z" fill="#1C1C1B"/>
<path d="M142.33 67.8659H143.559L144.059 65.4909H143.767C143.83 65.7826 144.413 66.2618 144.997 66.2618C145.726 66.2618 146.955 65.5743 147.434 63.3034C147.83 61.4493 147.351 60.2201 146.122 60.2201C145.538 60.2201 144.934 60.5951 144.642 61.0118H144.955L145.101 60.3659H143.684L142.101 67.8659H142.33ZM144.497 63.1784C144.747 62.0326 144.892 61.4493 145.622 61.4493C146.372 61.4493 146.184 62.0326 145.913 63.2618C145.601 64.7409 145.413 65.0118 144.788 65.0118C144.038 65.0118 144.226 64.4701 144.497 63.1784Z" fill="#1C1C1B"/>
<path d="M152.119 61.7201C152.327 60.7826 151.452 60.2201 150.494 60.2201C149.077 60.2201 148.286 61.0326 147.994 62.3659H149.411C149.557 61.6576 149.577 61.3451 150.307 61.3451C150.869 61.3451 150.765 61.4493 150.682 61.9493C150.577 62.4076 150.494 62.3451 150.098 62.4493L149.202 62.6784C148.432 62.9076 147.661 63.3659 147.39 64.5534C147.182 65.5951 147.807 66.2618 148.682 66.2618C149.307 66.2618 149.911 65.9493 150.265 65.4701H149.973C149.932 65.8034 150.494 66.1784 150.973 66.1784C151.182 66.1784 151.369 66.1159 151.682 65.9701L151.932 64.8243C151.494 65.0534 151.557 64.9909 151.494 64.9909C151.327 64.9909 151.432 65.0118 151.473 64.8034L152.119 61.7201ZM150.244 63.9909C150.057 64.7826 149.848 65.0743 149.202 65.0743C148.744 65.0743 148.786 64.9076 148.89 64.4493C148.973 64.0534 148.994 63.9284 149.327 63.7826C149.682 63.6159 150.432 63.4493 150.327 63.5118L150.244 63.9909Z" fill="#1C1C1B"/>
<path d="M152.145 66.1159H153.374L154.103 62.6993C154.312 61.6993 154.749 61.6784 155.249 61.6784C155.416 61.6784 155.624 61.7201 155.832 61.7826L156.124 60.3451C155.853 60.2409 155.791 60.2201 155.666 60.2201C155.062 60.2201 154.437 60.6576 154.103 61.1993H154.416L154.603 60.3659H153.124L151.895 66.1159H152.145Z" fill="#1C1C1B"/>
<path d="M159.714 63.3659L159.818 62.8034C160.152 61.3034 159.735 60.2201 158.235 60.2201C156.547 60.2201 155.735 61.9076 155.443 63.3243C154.922 65.8034 156.152 66.2618 157.027 66.2618C158.193 66.2618 159.256 65.3243 159.547 63.9284H158.152C158.027 64.4493 157.964 65.1368 157.193 65.1368C156.381 65.1368 156.672 64.4076 156.839 63.6784L156.86 63.5743H159.672L159.714 63.3659ZM157.047 62.6368L157.068 62.5326C157.214 61.8243 157.402 61.3451 158.089 61.3451C158.693 61.3451 158.61 61.6576 158.464 62.3451L158.443 62.4493H157.089L157.047 62.6368Z" fill="#1C1C1B"/>
<path d="M159.594 66.1159H163.323L163.594 64.8242H161.49L164.281 61.5326L164.531 60.3659H160.719L160.448 61.6367H162.469L159.594 65.0117L159.344 66.1159H159.594Z" fill="#1C1C1B"/>
<path d="M166.377 66.1159H167.606L169.21 58.5951H167.752L166.147 66.1159H166.377Z" fill="#1C1C1B"/>
<path d="M173.034 63.3659L173.138 62.8034C173.472 61.3034 173.055 60.2201 171.555 60.2201C169.867 60.2201 169.055 61.9076 168.763 63.3243C168.242 65.8034 169.472 66.2618 170.347 66.2618C171.513 66.2618 172.576 65.3243 172.867 63.9284H171.472C171.347 64.4493 171.284 65.1368 170.513 65.1368C169.701 65.1368 169.992 64.4076 170.159 63.6784L170.18 63.5743H172.992L173.034 63.3659ZM170.367 62.6368L170.388 62.5326C170.534 61.8243 170.722 61.3451 171.409 61.3451C172.013 61.3451 171.93 61.6576 171.784 62.3451L171.763 62.4493H170.409L170.367 62.6368Z" fill="#1C1C1B"/>
<path d="M177.518 62.1159L177.581 61.8659C177.706 61.1993 177.393 60.2201 176.018 60.2201C174.914 60.2201 173.872 60.8659 173.664 61.8868C173.477 62.7409 173.935 63.3451 174.685 63.6159L175.497 63.9284C175.852 64.0743 175.81 64.1368 175.727 64.5326C175.622 65.0326 175.456 65.1368 174.872 65.1368C174.247 65.1368 174.289 64.9909 174.414 64.3659L174.497 64.0118H173.164L173.081 64.3868C172.852 65.4284 173.331 66.2618 174.685 66.2618C175.768 66.2618 176.914 65.5743 177.164 64.4284C177.331 63.5743 176.872 62.9493 176.122 62.6784L175.477 62.4493C174.956 62.2409 174.997 62.2618 175.081 61.8451C175.185 61.3451 175.393 61.3451 175.81 61.3451C176.372 61.3451 176.227 61.5534 176.143 61.9701L176.081 62.3034H177.477L177.518 62.1159Z" fill="#1C1C1B"/>
<path d="M184.324 63.3659L184.428 62.8034C184.762 61.3034 184.345 60.2201 182.845 60.2201C181.157 60.2201 180.345 61.9076 180.053 63.3243C179.532 65.8034 180.762 66.2618 181.637 66.2618C182.803 66.2618 183.866 65.3243 184.157 63.9284H182.762C182.637 64.4493 182.574 65.1368 181.803 65.1368C180.991 65.1368 181.282 64.4076 181.449 63.6784L181.47 63.5743H184.282L184.324 63.3659ZM181.657 62.6368L181.678 62.5326C181.824 61.8243 182.012 61.3451 182.699 61.3451C183.303 61.3451 183.22 61.6576 183.074 62.3451L183.053 62.4493H181.699L181.657 62.6368ZM182.512 60.0326H183.324L185.053 58.2201H183.324L182.157 60.0326H182.512Z" fill="#1C1C1B"/>
<path d="M184.517 66.1159H185.746L187.35 58.5951H185.892L184.287 66.1159H184.517Z" fill="#1C1C1B"/>
<path d="M191.174 63.3659L191.278 62.8034C191.612 61.3034 191.195 60.2201 189.695 60.2201C188.007 60.2201 187.195 61.9076 186.903 63.3243C186.382 65.8034 187.612 66.2618 188.487 66.2618C189.653 66.2618 190.716 65.3243 191.007 63.9284H189.612C189.487 64.4493 189.424 65.1368 188.653 65.1368C187.841 65.1368 188.132 64.4076 188.299 63.6784L188.32 63.5743H191.132L191.174 63.3659ZM188.507 62.6368L188.528 62.5326C188.674 61.8243 188.862 61.3451 189.549 61.3451C190.153 61.3451 190.07 61.6576 189.924 62.3451L189.903 62.4493H188.549L188.507 62.6368ZM189.362 60.0326H190.174L191.903 58.2201H190.174L189.007 60.0326H189.362Z" fill="#1C1C1B"/>
<path d="M191.367 66.1159H192.596L193.408 62.3243C193.554 61.6159 193.867 61.4493 194.304 61.4493C194.742 61.4493 194.7 61.5326 194.554 62.2409L193.721 66.1159H195.2L196.012 62.3243C196.158 61.6159 196.45 61.4493 196.887 61.4493C197.325 61.4493 197.283 61.5326 197.137 62.2409L196.304 66.1159H197.783L198.7 61.8451C198.908 60.8034 198.262 60.2201 197.492 60.2201C196.846 60.2201 196.242 60.5743 196.075 60.7826C196.075 60.7826 195.658 60.2201 194.887 60.2201C194.367 60.2201 193.658 60.5743 193.325 60.9909H193.637L193.762 60.3659H192.346L191.137 66.1159H191.367Z" fill="#1C1C1B"/>
<path d="M203.204 63.3659L203.308 62.8034C203.642 61.3034 203.225 60.2201 201.725 60.2201C200.037 60.2201 199.225 61.9076 198.933 63.3243C198.412 65.8034 199.642 66.2618 200.517 66.2618C201.683 66.2618 202.746 65.3243 203.037 63.9284H201.642C201.517 64.4493 201.454 65.1368 200.683 65.1368C199.871 65.1368 200.162 64.4076 200.329 63.6784L200.35 63.5743H203.162L203.204 63.3659ZM200.537 62.6368L200.558 62.5326C200.704 61.8243 200.892 61.3451 201.579 61.3451C202.183 61.3451 202.1 61.6576 201.954 62.3451L201.933 62.4493H200.579L200.537 62.6368Z" fill="#1C1C1B"/>
<path d="M203.355 66.1159H204.584L205.397 62.3243C205.542 61.6159 205.834 61.4493 206.292 61.4493C206.834 61.4493 206.772 61.5326 206.626 62.2409L205.813 66.1159H207.272L208.167 61.8659C208.397 60.7826 207.772 60.2201 206.959 60.2201C206.355 60.2201 205.647 60.5743 205.313 60.9909H205.605L205.751 60.3659H204.334L203.105 66.1159H203.355Z" fill="#1C1C1B"/>
<path d="M208.644 61.5326H209.144L208.477 64.6784C208.248 65.7826 208.769 66.1784 209.498 66.1784C209.852 66.1784 210.144 66.1368 210.561 66.0534L210.811 64.8659C210.457 64.9284 210.332 64.9284 210.165 64.9284C209.79 64.9284 209.894 64.9701 209.977 64.5534L210.623 61.5326H211.498L211.748 60.3659H210.873L211.207 58.8243H209.727L209.394 60.3659H208.665L208.415 61.5326H208.644Z" fill="#1C1C1B"/>
<path d="M215.278 62.1159L215.341 61.8659C215.466 61.1993 215.153 60.2201 213.778 60.2201C212.674 60.2201 211.632 60.8659 211.424 61.8868C211.237 62.7409 211.695 63.3451 212.445 63.6159L213.257 63.9284C213.612 64.0743 213.57 64.1368 213.487 64.5326C213.382 65.0326 213.216 65.1368 212.632 65.1368C212.007 65.1368 212.049 64.9909 212.174 64.3659L212.257 64.0118H210.924L210.841 64.3868C210.612 65.4284 211.091 66.2618 212.445 66.2618C213.528 66.2618 214.674 65.5743 214.924 64.4284C215.091 63.5743 214.632 62.9493 213.882 62.6784L213.237 62.4493C212.716 62.2409 212.757 62.2618 212.841 61.8451C212.945 61.3451 213.153 61.3451 213.57 61.3451C214.132 61.3451 213.987 61.5534 213.903 61.9701L213.841 62.3034H215.237L215.278 62.1159Z" fill="#1C1C1B"/>
<path d="M222.209 61.7201C222.417 60.7826 221.542 60.2201 220.584 60.2201C219.167 60.2201 218.376 61.0326 218.084 62.3659H219.501C219.646 61.6576 219.667 61.3451 220.396 61.3451C220.959 61.3451 220.855 61.4493 220.771 61.9493C220.667 62.4076 220.584 62.3451 220.188 62.4493L219.292 62.6784C218.521 62.9076 217.751 63.3659 217.48 64.5534C217.271 65.5951 217.896 66.2618 218.771 66.2618C219.396 66.2618 220.001 65.9493 220.355 65.4701H220.063C220.021 65.8034 220.584 66.1784 221.063 66.1784C221.271 66.1784 221.459 66.1159 221.771 65.9701L222.021 64.8243C221.584 65.0534 221.646 64.9909 221.584 64.9909C221.417 64.9909 221.521 65.0118 221.563 64.8034L222.209 61.7201ZM220.334 63.9909C220.146 64.7826 219.938 65.0743 219.292 65.0743C218.834 65.0743 218.876 64.9076 218.98 64.4493C219.063 64.0534 219.084 63.9284 219.417 63.7826C219.771 63.6159 220.521 63.4493 220.417 63.5118L220.334 63.9909Z" fill="#1C1C1B"/>
<path d="M223.153 66.1159H224.528L227.257 60.3659H225.716L223.966 64.5951H224.257L224.216 60.3659H222.653L222.966 66.1159H223.153Z" fill="#1C1C1B"/>
<path d="M230.918 61.7201C231.127 60.7826 230.252 60.2201 229.293 60.2201C227.877 60.2201 227.085 61.0326 226.793 62.3659H228.21C228.356 61.6576 228.377 61.3451 229.106 61.3451C229.668 61.3451 229.564 61.4493 229.481 61.9493C229.377 62.4076 229.293 62.3451 228.898 62.4493L228.002 62.6784C227.231 62.9076 226.46 63.3659 226.189 64.5534C225.981 65.5951 226.606 66.2618 227.481 66.2618C228.106 66.2618 228.71 65.9493 229.064 65.4701H228.773C228.731 65.8034 229.293 66.1784 229.773 66.1784C229.981 66.1784 230.168 66.1159 230.481 65.9701L230.731 64.8243C230.293 65.0534 230.356 64.9909 230.293 64.9909C230.127 64.9909 230.231 65.0118 230.273 64.8034L230.918 61.7201ZM229.043 63.9909C228.856 64.7826 228.648 65.0743 228.002 65.0743C227.543 65.0743 227.585 64.9076 227.689 64.4493C227.773 64.0534 227.793 63.9284 228.127 63.7826C228.481 63.6159 229.231 63.4493 229.127 63.5118L229.043 63.9909Z" fill="#1C1C1B"/>
<path d="M230.944 66.1159H232.173L232.986 62.3243C233.132 61.6159 233.423 61.4493 233.882 61.4493C234.423 61.4493 234.361 61.5326 234.215 62.2409L233.402 66.1159H234.861L235.757 61.8659C235.986 60.7826 235.361 60.2201 234.548 60.2201C233.944 60.2201 233.236 60.5743 232.902 60.9909H233.194L233.34 60.3659H231.923L230.694 66.1159H230.944Z" fill="#1C1C1B"/>
<path d="M236.233 61.5326H236.733L236.067 64.6784C235.837 65.7826 236.358 66.1784 237.087 66.1784C237.442 66.1784 237.733 66.1368 238.15 66.0534L238.4 64.8659C238.046 64.9284 237.921 64.9284 237.754 64.9284C237.379 64.9284 237.483 64.9701 237.567 64.5534L238.212 61.5326H239.087L239.337 60.3659H238.462L238.796 58.8243H237.317L236.983 60.3659H236.254L236.004 61.5326H236.233Z" fill="#1C1C1B"/>
<path d="M243.684 66.1159H244.851L246.455 58.5951H244.976L244.476 60.9909H244.767C244.705 60.6993 244.142 60.2201 243.559 60.2201C242.726 60.2201 241.622 60.7826 241.122 63.1576C240.705 65.0118 241.184 66.2618 242.455 66.2618C243.226 66.2618 243.726 65.7618 243.913 65.4493H243.58L243.434 66.1159H243.684ZM244.038 63.3034C243.788 64.4493 243.663 65.0118 242.913 65.0118C242.163 65.0118 242.372 64.4284 242.642 63.2201C242.934 61.7618 243.08 61.4493 243.684 61.4493C244.517 61.4493 244.309 62.0118 244.038 63.3034Z" fill="#1C1C1B"/>
<path d="M250.223 63.3659L250.327 62.8034C250.661 61.3034 250.244 60.2201 248.744 60.2201C247.057 60.2201 246.244 61.9076 245.952 63.3243C245.432 65.8034 246.661 66.2618 247.536 66.2618C248.702 66.2618 249.765 65.3243 250.057 63.9284H248.661C248.536 64.4493 248.473 65.1368 247.702 65.1368C246.89 65.1368 247.182 64.4076 247.348 63.6784L247.369 63.5743H250.182L250.223 63.3659ZM247.557 62.6368L247.577 62.5326C247.723 61.8243 247.911 61.3451 248.598 61.3451C249.202 61.3451 249.119 61.6576 248.973 62.3451L248.952 62.4493H247.598L247.557 62.6368Z" fill="#1C1C1B"/>
<path d="M253.253 61.5326H253.753L253.086 64.6784C252.857 65.7826 253.378 66.1784 254.107 66.1784C254.461 66.1784 254.753 66.1368 255.17 66.0534L255.42 64.8659C255.066 64.9284 254.941 64.9284 254.774 64.9284C254.399 64.9284 254.503 64.9701 254.586 64.5534L255.232 61.5326H256.107L256.357 60.3659H255.482L255.816 58.8243H254.336L254.003 60.3659H253.274L253.024 61.5326H253.253Z" fill="#1C1C1B"/>
<path d="M255.554 66.1159H256.783L257.513 62.6993C257.721 61.6993 258.158 61.6784 258.658 61.6784C258.825 61.6784 259.033 61.7201 259.242 61.7826L259.533 60.3451C259.263 60.2409 259.2 60.2201 259.075 60.2201C258.471 60.2201 257.846 60.6576 257.513 61.1993H257.825L258.013 60.3659H256.533L255.304 66.1159H255.554Z" fill="#1C1C1B"/>
<path d="M258.746 66.1159H259.975L261.204 60.3659H259.725L258.517 66.1159H258.746ZM260.058 59.9701H261.287L261.6 58.5118H260.121L259.829 59.9701H260.058Z" fill="#1C1C1B"/>
<path d="M265.403 63.3659L265.507 62.8034C265.841 61.3034 265.424 60.2201 263.924 60.2201C262.237 60.2201 261.424 61.9076 261.132 63.3243C260.612 65.8034 261.841 66.2618 262.716 66.2618C263.882 66.2618 264.945 65.3243 265.237 63.9284H263.841C263.716 64.4493 263.653 65.1368 262.882 65.1368C262.07 65.1368 262.362 64.4076 262.528 63.6784L262.549 63.5743H265.362L265.403 63.3659ZM262.737 62.6368L262.757 62.5326C262.903 61.8243 263.091 61.3451 263.778 61.3451C264.382 61.3451 264.299 61.6576 264.153 62.3451L264.132 62.4493H262.778L262.737 62.6368Z" fill="#1C1C1B"/>
<path d="M265.554 66.1159H266.783L267.513 62.6993C267.721 61.6993 268.158 61.6784 268.658 61.6784C268.825 61.6784 269.033 61.7201 269.242 61.7826L269.533 60.3451C269.263 60.2409 269.2 60.2201 269.075 60.2201C268.471 60.2201 267.846 60.6576 267.513 61.1993H267.825L268.013 60.3659H266.533L265.304 66.1159H265.554Z" fill="#1C1C1B"/>
<path d="M133.728 46.152H134.176C134.453 46.152 134.677 46.0907 134.848 45.968C135.018 45.8453 135.104 45.6187 135.104 45.288C135.104 45.1227 135.08 44.9867 135.032 44.88C134.989 44.768 134.928 44.68 134.848 44.616C134.773 44.5467 134.682 44.4987 134.576 44.472C134.469 44.4453 134.352 44.432 134.224 44.432H133.728V46.152ZM133.728 43.632H134.056C134.376 43.632 134.608 43.576 134.752 43.464C134.901 43.3467 134.976 43.152 134.976 42.88C134.976 42.608 134.909 42.416 134.776 42.304C134.642 42.192 134.432 42.136 134.144 42.136H133.728V43.632ZM132.576 41.288H134.504C134.738 41.288 134.954 41.312 135.152 41.36C135.354 41.408 135.528 41.488 135.672 41.6C135.816 41.712 135.928 41.8613 136.008 42.048C136.088 42.2347 136.128 42.464 136.128 42.736C136.128 43.0453 136.056 43.312 135.912 43.536C135.768 43.7547 135.552 43.904 135.264 43.984V44C135.584 44.0427 135.837 44.1787 136.024 44.408C136.21 44.6373 136.304 44.944 136.304 45.328C136.304 45.552 136.274 45.7653 136.216 45.968C136.157 46.1707 136.056 46.3493 135.912 46.504C135.773 46.6533 135.589 46.7733 135.36 46.864C135.136 46.9547 134.856 47 134.52 47H132.576V41.288ZM138.053 44.144C138.053 44.528 138.061 44.856 138.077 45.128C138.098 45.3947 138.136 45.6133 138.189 45.784C138.248 45.9493 138.328 46.072 138.429 46.152C138.536 46.2267 138.674 46.264 138.845 46.264C139.016 46.264 139.152 46.2267 139.253 46.152C139.36 46.072 139.44 45.9493 139.493 45.784C139.552 45.6133 139.589 45.3947 139.605 45.128C139.626 44.856 139.637 44.528 139.637 44.144C139.637 43.76 139.626 43.4347 139.605 43.168C139.589 42.9013 139.552 42.6827 139.493 42.512C139.44 42.3413 139.36 42.2187 139.253 42.144C139.152 42.064 139.016 42.024 138.845 42.024C138.674 42.024 138.536 42.064 138.429 42.144C138.328 42.2187 138.248 42.3413 138.189 42.512C138.136 42.6827 138.098 42.9013 138.077 43.168C138.061 43.4347 138.053 43.76 138.053 44.144ZM136.901 44.144C136.901 43.712 136.92 43.3147 136.957 42.952C137 42.584 137.088 42.2693 137.221 42.008C137.36 41.7467 137.557 41.544 137.813 41.4C138.069 41.2507 138.413 41.176 138.845 41.176C139.277 41.176 139.621 41.2507 139.877 41.4C140.133 41.544 140.328 41.7467 140.461 42.008C140.6 42.2693 140.688 42.584 140.725 42.952C140.768 43.3147 140.789 43.712 140.789 44.144C140.789 44.5813 140.768 44.9813 140.725 45.344C140.688 45.7067 140.6 46.0187 140.461 46.28C140.328 46.5413 140.133 46.7413 139.877 46.88C139.621 47.0187 139.277 47.088 138.845 47.088C138.413 47.088 138.069 47.0187 137.813 46.88C137.557 46.7413 137.36 46.5413 137.221 46.28C137.088 46.0187 137 45.7067 136.957 45.344C136.92 44.9813 136.901 44.5813 136.901 44.144ZM141.522 39.8H142.674L143.298 40.952H142.45L142.082 40.272L141.698 40.952H140.922L141.522 39.8ZM141.522 47V41.288H142.674V47H141.522ZM146.873 41.288V42.232H145.625V47H144.473V42.232H143.225V41.288H146.873ZM150.565 41.288V42.232H148.525V43.576H150.445V44.52H148.525V46.056H150.645V47H147.373V41.288H150.565Z" fill="#1C1C1B"/>
<path d="M183.181 41.288L184.573 45.2H184.589V41.288H185.645V47H184.333L182.925 43H182.909V47H181.853V41.288H183.181ZM187.479 44.144C187.479 44.528 187.487 44.856 187.503 45.128C187.524 45.3947 187.562 45.6133 187.615 45.784C187.674 45.9493 187.754 46.072 187.855 46.152C187.962 46.2267 188.1 46.264 188.271 46.264C188.442 46.264 188.578 46.2267 188.679 46.152C188.786 46.072 188.866 45.9493 188.919 45.784C188.978 45.6133 189.015 45.3947 189.031 45.128C189.052 44.856 189.063 44.528 189.063 44.144C189.063 43.76 189.052 43.4347 189.031 43.168C189.015 42.9013 188.978 42.6827 188.919 42.512C188.866 42.3413 188.786 42.2187 188.679 42.144C188.578 42.064 188.442 42.024 188.271 42.024C188.1 42.024 187.962 42.064 187.855 42.144C187.754 42.2187 187.674 42.3413 187.615 42.512C187.562 42.6827 187.524 42.9013 187.503 43.168C187.487 43.4347 187.479 43.76 187.479 44.144ZM186.327 44.144C186.327 43.712 186.346 43.3147 186.383 42.952C186.426 42.584 186.514 42.2693 186.647 42.008C186.786 41.7467 186.983 41.544 187.239 41.4C187.495 41.2507 187.839 41.176 188.271 41.176C188.703 41.176 189.047 41.2507 189.303 41.4C189.559 41.544 189.754 41.7467 189.887 42.008C190.026 42.2693 190.114 42.584 190.151 42.952C190.194 43.3147 190.215 43.712 190.215 44.144C190.215 44.5813 190.194 44.9813 190.151 45.344C190.114 45.7067 190.026 46.0187 189.887 46.28C189.754 46.5413 189.559 46.7413 189.303 46.88C189.047 47.0187 188.703 47.088 188.271 47.088C187.839 47.088 187.495 47.0187 187.239 46.88C186.983 46.7413 186.786 46.5413 186.647 46.28C186.514 46.0187 186.426 45.7067 186.383 45.344C186.346 44.9813 186.327 44.5813 186.327 44.144ZM194.236 41.288V42.232H192.988V47H191.836V42.232H190.588V41.288H194.236ZM194.792 47V41.288H195.944V47H194.792ZM199.238 43.216C199.238 42.8 199.188 42.4987 199.086 42.312C198.99 42.12 198.812 42.024 198.55 42.024C198.406 42.024 198.286 42.064 198.19 42.144C198.1 42.2187 198.028 42.344 197.974 42.52C197.921 42.6907 197.884 42.9173 197.862 43.2C197.841 43.4773 197.83 43.8187 197.83 44.224C197.83 44.656 197.844 45.0053 197.87 45.272C197.902 45.5387 197.948 45.7467 198.006 45.896C198.07 46.04 198.148 46.1387 198.238 46.192C198.334 46.24 198.444 46.264 198.566 46.264C198.668 46.264 198.761 46.248 198.846 46.216C198.937 46.1787 199.014 46.1093 199.078 46.008C199.142 45.9013 199.193 45.7547 199.23 45.568C199.268 45.376 199.286 45.1253 199.286 44.816H200.438C200.438 45.1253 200.414 45.4187 200.366 45.696C200.318 45.9733 200.228 46.216 200.094 46.424C199.966 46.632 199.782 46.7947 199.542 46.912C199.308 47.0293 199.001 47.088 198.622 47.088C198.19 47.088 197.846 47.0187 197.59 46.88C197.334 46.7413 197.137 46.5413 196.998 46.28C196.865 46.0187 196.777 45.7067 196.734 45.344C196.697 44.9813 196.678 44.5813 196.678 44.144C196.678 43.712 196.697 43.3147 196.734 42.952C196.777 42.584 196.865 42.2693 196.998 42.008C197.137 41.7467 197.334 41.544 197.59 41.4C197.846 41.2507 198.19 41.176 198.622 41.176C199.033 41.176 199.356 41.2427 199.59 41.376C199.83 41.5093 200.009 41.68 200.126 41.888C200.244 42.0907 200.316 42.312 200.342 42.552C200.374 42.7867 200.39 43.008 200.39 43.216H199.238ZM204.287 41.288V42.232H202.247V43.576H204.167V44.52H202.247V46.056H204.367V47H201.095V41.288H204.287Z" fill="#1C1C1B"/>
<path d="M141.667 17.5112L143.269 16.4562L149.428 18.1604L147.826 19.2154L141.667 17.5112ZM137.545 13.9107L132.33 17.366L132.881 15.8369L138.054 12.5866L137.545 13.9107ZM134.47 21.5943L132.262 18.6345L137.883 14.9144L139.783 17.5454L134.47 21.5943ZM142.171 23.6103L140.783 23.2729V18.327L146.737 19.9713L142.175 23.6103C142.175 23.6103 142.175 23.6103 142.171 23.6103ZM134.398 22.897L141.21 24.4688L139.553 26.6684L132.74 25.1009L134.398 22.897ZM135.602 22.0129L140.172 18.532V23.1234L135.602 22.0129ZM134.688 26.5958L139.647 27.7404C139.685 27.7447 139.724 27.749 139.762 27.749C139.924 27.749 140.074 27.6721 140.168 27.5482L141.556 25.7031L141.603 33.8865V36.0263L134.688 33.7755V26.5958ZM147.198 20.8298V30.8669L142.56 35.501V24.5371L147.198 20.8298ZM151.153 17.887C151.123 17.6906 150.978 17.5283 150.781 17.477L143.316 15.4098C143.175 15.3714 143.021 15.3927 142.897 15.4739L140.629 16.9688L138.511 14.0388L139.408 11.6897C139.489 11.4847 139.429 11.2498 139.258 11.1131C139.091 10.9764 138.844 10.9636 138.66 11.0747L132.271 15.1108C132.172 15.1706 132.1 15.2603 132.061 15.3714L131.028 18.2971C130.972 18.4594 131.002 18.6345 131.1 18.7712C131.109 18.784 131.113 18.8011 131.122 18.8139L133.65 22.1966L131.455 25.1137C131.348 25.2504 131.322 25.4298 131.382 25.5963C131.438 25.7544 131.579 25.8782 131.745 25.9167L133.727 26.3737V34.1342C133.727 34.3649 133.872 34.5699 134.082 34.6382L141.872 37.1752C141.889 37.1838 141.906 37.1923 141.923 37.2009C141.974 37.218 142.026 37.2265 142.077 37.2265H142.094C142.103 37.2265 142.107 37.2222 142.115 37.2222C142.12 37.2222 142.128 37.2222 142.132 37.2222C142.137 37.2222 142.145 37.218 142.15 37.218C142.197 37.2094 142.244 37.1966 142.286 37.1752C142.308 37.1667 142.325 37.1539 142.346 37.1411C142.355 37.1368 142.367 37.1325 142.376 37.1283C142.376 37.124 142.38 37.1197 142.38 37.1197C142.41 37.0984 142.44 37.0856 142.466 37.0599L148.044 31.3794C148.15 31.2726 148.21 31.1317 148.21 30.9907V20.1849L150.931 18.3953C151.097 18.2843 151.183 18.0835 151.153 17.887Z" fill="#1C1C1B"/>
<path d="M196.507 33.8046V33.8081L195.098 31.2164L202.335 30.0161L203.931 32.7389L196.507 33.8046ZM185.113 33.2522L194.627 31.3014L196.05 33.9143L187.057 36.0635L185.113 33.2522ZM186.409 30.3808C186.416 30.3667 186.416 30.3489 186.423 30.3348L195.367 28.7769L194.577 30.8482L185.188 32.7743L186.409 30.3808ZM184.487 28.5503L193.88 26.8862L195.246 28.3379L186.345 29.8887C186.321 29.8568 186.299 29.8285 186.267 29.8072L184.487 28.5503ZM185.577 25.8311C185.581 25.8205 185.577 25.8064 185.581 25.7957L194.701 24.121L193.795 26.4401L184.518 28.0865L185.577 25.8311ZM183.739 23.5368L193.249 21.7913L194.659 23.6678L185.503 25.3496C185.496 25.339 185.496 25.3284 185.492 25.3248L183.739 23.5368ZM184.727 19.4191L194.209 18.3003L193.175 21.3452L183.587 23.1049L184.727 19.4191ZM183.201 16.4132L192.903 15.5811L194.142 17.8506L184.678 18.9695L183.201 16.4132ZM202.901 16.4202L194.676 17.7905L194.627 17.794L193.373 15.5032L201.715 13.9595L202.901 16.4202ZM201.57 20.2512L193.678 21.2744L194.708 18.2401L194.74 18.2366L202.898 16.8805L201.57 20.2512ZM203.131 22.5455L195.161 23.5829L193.763 21.7205L201.602 20.7044C201.612 20.7221 201.612 20.7433 201.627 20.7575L203.131 22.5455ZM201.927 25.1514C201.896 25.2115 201.881 25.2753 201.874 25.339L194.312 26.3658L195.222 24.0325L203.142 23.0022L201.927 25.1514ZM203.471 26.9075L195.777 28.2458L194.429 26.8084L202.087 25.7674L203.471 26.9075ZM202.285 29.4673C202.267 29.4992 202.267 29.5346 202.257 29.57L195.098 30.7561L195.887 28.6884L203.574 27.3501L202.285 29.4673ZM205.054 32.8628L203.202 29.7046L204.696 27.2474C204.813 27.0562 204.771 26.8048 204.601 26.6632L202.905 25.2682L204.236 22.9102C204.332 22.7473 204.31 22.5384 204.19 22.3932L202.494 20.3822L203.914 16.7743C203.96 16.6575 203.956 16.5265 203.9 16.4132L202.381 13.2549C202.292 13.0708 202.09 12.9717 201.889 13.0071L192.864 14.6783L182.412 15.574C182.259 15.5847 182.121 15.6767 182.051 15.8148C181.98 15.9529 181.983 16.1157 182.061 16.2503L183.817 19.2952L182.578 23.3067C182.529 23.466 182.571 23.6395 182.688 23.7599L184.621 25.732L183.364 28.4122C183.272 28.6105 183.332 28.8477 183.513 28.9752L185.425 30.3206L184.086 32.9442C184.009 33.0929 184.023 33.2699 184.115 33.408L186.487 36.8353C186.575 36.9592 186.714 37.0301 186.862 37.0301C186.898 37.0301 186.933 37.0265 186.968 37.0159L196.677 34.6933L204.725 33.539C204.877 33.5178 205.004 33.4222 205.068 33.2876C205.135 33.1496 205.128 32.9902 205.054 32.8628Z" fill="#1C1C1B"/>
</g>
<defs>
<clipPath id="clip0_47_1556">
<rect width="275" height="72" fill="white"/>
</clipPath>
</defs>
</svg>
