<svg width="227" height="61" viewBox="0 0 227 61" fill="none" xmlns="http://www.w3.org/2000/svg">
<g clip-path="url(#clip0_17_2)">
<path d="M24.8542 60.7916C11.2344 60.7916 0.15625 49.8385 0.15625 36.3801V0.317627H201.323C214.938 0.317627 226.016 11.2655 226.016 24.7239L226.021 60.7916" fill="white"/>
<path d="M201.323 5.98438H50.2708V36.3802C50.2708 46.7135 58.802 55.1198 69.2916 55.1198H220.349V24.724C220.349 14.3958 211.812 5.98438 201.323 5.98438Z" fill="white"/>
<path d="M218.458 53.2292H69.2916C59.8437 53.2292 52.1562 45.6719 52.1562 36.3802V7.875H201.323C210.771 7.875 218.458 15.4323 218.458 24.724V53.2292ZM201.323 5.98438H50.2708V36.3802C50.2708 46.7135 58.802 55.1198 69.2916 55.1198H220.349V24.724C220.349 14.3958 211.812 5.98438 201.323 5.98438Z" fill="#FCC42F"/>
<path d="M163.089 55.1198L176.099 28.5417L162.807 5.98438H201.323C211.812 5.98438 220.349 14.3906 220.349 24.724V55.1198" fill="#FCC42F"/>
<path d="M201.323 7.875H166.115L178.245 28.4583L166.12 53.2292H218.458V24.724C218.458 15.4323 210.771 7.875 201.323 7.875Z" fill="#FCC42F"/>
<path d="M206.281 41.6615H205.078C204.979 41.6615 204.885 41.6719 204.792 41.6875C205.354 35.4323 206.224 25.7708 206.646 21.3958C206.687 20.9531 206.359 20.5573 205.917 20.5156C205.464 20.4635 205.073 20.7969 205.031 21.2448C204.385 27.9635 202.677 47.1458 202.661 47.3385C202.63 47.6615 202.312 47.9271 201.943 47.9271H188.854C188.479 47.9271 188.167 47.6615 188.135 47.3385C188.12 47.1458 186.411 27.9635 185.766 21.2448C185.724 20.7969 185.333 20.4635 184.88 20.5156C184.437 20.5573 184.109 20.9531 184.151 21.3958C184.573 25.7708 185.443 35.4271 186.005 41.6875C185.911 41.6667 185.812 41.6562 185.719 41.6562H184.516C183.74 41.6562 183.104 42.2917 183.104 43.0677V48.1406C183.104 48.9167 183.74 49.5469 184.516 49.5469H185.719C186.297 49.5469 186.802 49.1927 187.016 48.6823C187.443 49.2135 188.104 49.5469 188.854 49.5469H201.943C202.687 49.5469 203.349 49.2135 203.781 48.6875C203.995 49.1927 204.495 49.5521 205.078 49.5521H206.281C207.057 49.5521 207.687 48.9219 207.687 48.1406V43.0677C207.687 42.2917 207.057 41.6615 206.281 41.6615Z" fill="#1C1C1B"/>
<path d="M190.344 25.1198V27.4115H191.016C191.411 27.4115 191.625 27.2292 191.625 26.6771V26.026C191.625 25.3333 191.401 25.1198 190.865 25.1198H190.344ZM190.344 22.0833V24.0521H190.802C191.24 24.0521 191.505 23.8646 191.505 23.2656V22.849C191.505 22.3125 191.323 22.0833 190.906 22.0833H190.344ZM192.677 22.7344V23C192.677 23.7656 192.443 24.2448 191.922 24.4896V24.5104C192.547 24.7604 192.797 25.3125 192.797 26.099V26.7083C192.797 27.8594 192.187 28.4792 191.016 28.4792H189.172V21.0156H190.938C192.156 21.0156 192.677 21.5833 192.677 22.7344Z" fill="#1C1C1B"/>
<path d="M194.833 26.1146H195.964L195.411 22.3385H195.385L194.833 26.1146ZM197.51 28.4792H196.328L196.125 27.125H194.688L194.479 28.4792H193.406L194.599 21.0156H196.313" fill="#1C1C1B"/>
<path d="M201.661 25.6926V26.6874C201.661 27.8801 201.062 28.5624 199.911 28.5624C198.76 28.5624 198.161 27.8801 198.161 26.6874V22.8072C198.161 21.6093 198.76 20.927 199.911 20.927C201.062 20.927 201.661 21.6093 201.661 22.8072V23.5312H200.552V22.7291C200.552 22.1978 200.318 21.9947 199.943 21.9947C199.573 21.9947 199.338 22.1978 199.338 22.7291V26.7603C199.338 27.2916 199.573 27.4843 199.943 27.4843C200.318 27.4843 200.552 27.2916 200.552 26.7603V25.6926" fill="#1C1C1B"/>
<path d="M192.703 31.2083V36.5365H193.365C193.734 36.5365 193.958 36.3438 193.958 35.8125V31.9323C193.958 31.401 193.734 31.2083 193.365 31.2083H192.703ZM191.531 30.1406H193.385C194.557 30.1406 195.13 30.7917 195.13 31.9844V35.7604C195.13 36.9531 194.557 37.6042 193.385 37.6042H191.531" fill="#1C1C1B"/>
<path d="M197.266 33.2865H198.875V34.349H197.266V36.5365H199.292V37.6042H196.094V30.1406H199.292V31.2031H197.266" fill="#1C1C1B"/>
<path d="M190.161 39.2656H193.786V40.3281H192.562V46.7292H191.385V40.3281H190.161" fill="#1C1C1B"/>
<path d="M195.688 40.3281V42.625H196.146C196.583 42.625 196.849 42.4323 196.849 41.8333V41.099C196.849 40.5677 196.667 40.3281 196.25 40.3281H195.688ZM196.969 46.7292C196.901 46.5365 196.859 46.4167 196.859 45.8125V44.6354C196.859 43.9479 196.625 43.6875 196.094 43.6875H195.688V46.7292H194.516V39.2656H196.286C197.5 39.2656 198.021 39.8281 198.021 40.9792V41.5677C198.021 42.3333 197.776 42.8229 197.255 43.0729V43.0938C197.839 43.3385 198.031 43.8906 198.031 44.6719V45.8229C198.031 46.1823 198.042 46.4531 198.161 46.7292" fill="#1C1C1B"/>
<path d="M199.016 46.7292H200.188V39.2656H199.016V46.7292Z" fill="#1C1C1B"/>
<path d="M207.125 17.6197H183.672V15.6666C183.672 15.5989 183.703 15.5676 183.698 15.5676H185.396C185.589 15.5676 185.771 15.4999 185.917 15.3697L188.047 13.5103C188.141 13.427 188.37 13.3437 188.661 13.3437H202.13C202.422 13.3437 202.656 13.427 202.75 13.5103L204.88 15.3697C205.026 15.4999 205.208 15.5676 205.401 15.5676H207.099C207.089 15.5676 207.125 15.5989 207.125 15.6666V17.6197ZM207.099 13.9791H205.698L203.792 12.3176C203.385 11.9583 202.781 11.7551 202.13 11.7551H188.661C188.016 11.7551 187.411 11.9583 187 12.3176L185.094 13.9791H183.698C182.807 13.9791 182.089 14.7395 182.089 15.6666V17.8124C182.089 18.1093 182.161 18.401 182.307 18.6614C182.37 18.7708 182.458 18.8697 182.562 18.9374C182.823 19.1093 183.12 19.1978 183.427 19.1978H207.37C207.677 19.1978 207.974 19.1093 208.234 18.9374C208.339 18.8697 208.427 18.7708 208.49 18.6614C208.63 18.401 208.708 18.1093 208.708 17.8124V15.6666C208.708 14.7395 207.984 13.9791 207.099 13.9791Z" fill="#1C1C1B"/>
<path d="M202.125 14.0781H188.667C188.297 14.0781 187.995 14.3802 187.995 14.75C187.995 15.1198 188.297 15.4219 188.667 15.4219H202.125C202.495 15.4219 202.797 15.1198 202.797 14.75C202.797 14.3802 202.495 14.0781 202.125 14.0781Z" fill="#1C1C1B"/>
<path d="M103.057 5.98438H50.2708V36.3802C50.2708 46.7135 58.802 55.1198 69.2916 55.1198H122.083V24.724C122.083 14.3958 113.547 5.98438 103.057 5.98438Z" fill="#FCC42F"/>
<path d="M63.8072 29.677C59.0051 29.677 55.1145 33.5676 55.1145 38.3697C55.1145 43.1718 59.0051 47.0624 63.8072 47.0624C68.6145 47.0624 72.5051 43.1718 72.5051 38.3697C72.5051 33.5676 68.6145 29.677 63.8072 29.677Z" fill="white"/>
<path d="M69.4792 39.7865H65.2292V44.0417H62.3906V39.7865H58.1406V36.9531H62.3906V32.7031H65.2292V36.9531H69.4792" fill="#1C1C1B"/>
<path d="M55.9426 26.9167V17.5156H58.427V24.8333H61.9843V26.9167" fill="#1C1C1B"/>
<path d="M63.0989 26.9167V17.5156H69.1718V19.599H65.5885V21.0729H68.651V23.1562H65.5885V24.8333H69.3176V26.9167" fill="#1C1C1B"/>
<path d="M75.2448 26.9167V19.599H72.7604V17.5156H80.2239V19.599H77.7343V26.9167" fill="#1C1C1B"/>
<path d="M83.7083 21.7969H84.6042C85.6042 21.7969 86.1094 21.3802 86.1094 20.5521C86.1094 20.1458 85.9792 19.8698 85.724 19.7135C85.4688 19.5573 85.0938 19.4792 84.6042 19.4792H83.7083V21.7969ZM81.2188 26.9167V17.5156H84.776C85.2813 17.5156 85.7604 17.5625 86.2188 17.6562C86.6771 17.7552 87.0729 17.9219 87.4167 18.151C87.7604 18.3802 88.0313 18.6927 88.2344 19.0833C88.4375 19.474 88.5365 19.9635 88.5365 20.5521C88.5365 21.2292 88.401 21.7865 88.125 22.2292C87.8542 22.6719 87.4844 23.0208 87.0208 23.2708L89.0573 26.9167H86.2812L84.6615 23.7604H83.7083V26.9167" fill="#1C1C1B"/>
<path d="M90.026 26.9167H92.5156V17.5156H90.026V26.9167Z" fill="#1C1C1B"/>
<path d="M75.5364 43.5937V34.1926H81.6666V36.276H78.026V38.0676H81.1458V40.151H78.026V43.5937" fill="#1C1C1B"/>
<path d="M85.0781 39.0208L84.9166 39.6718H86.651L86.4948 39.0208C86.3802 38.5676 86.2604 38.078 86.1458 37.5468C86.0312 37.0155 85.9166 36.5155 85.7968 36.0416H85.7395C85.6354 36.526 85.526 37.0312 85.4166 37.552C85.3073 38.078 85.1927 38.5676 85.0781 39.0208ZM81.4635 43.5937L84.3229 34.1926H87.3281L90.1927 43.5937H87.5625L87.0989 41.5989H84.4687L84.0052 43.5937" fill="#1C1C1B"/>
<path d="M94.7187 43.7656C94.1249 43.7656 93.552 43.6667 93.0103 43.4688C92.4635 43.2708 91.9895 42.974 91.578 42.5729C91.1666 42.1719 90.8385 41.6719 90.5989 41.0677C90.3593 40.4688 90.2395 39.7656 90.2395 38.9635C90.2395 38.1771 90.3645 37.474 90.6145 36.8594C90.8645 36.25 91.1978 35.7344 91.6197 35.3125C92.0364 34.8958 92.5208 34.5729 93.0676 34.349C93.6145 34.1302 94.1822 34.0156 94.7812 34.0156C95.4062 34.0156 95.9687 34.1406 96.4583 34.3854C96.953 34.6354 97.3645 34.9271 97.703 35.2604L96.401 36.8542C96.1718 36.651 95.9322 36.4844 95.6874 36.3542C95.4374 36.224 95.1562 36.1562 94.8385 36.1562C94.5572 36.1562 94.2968 36.2188 94.052 36.349C93.8072 36.474 93.5885 36.651 93.401 36.8802C93.2135 37.1146 93.0624 37.401 92.953 37.7344C92.8385 38.0729 92.7864 38.4531 92.7864 38.875C92.7864 39.7656 92.9687 40.4479 93.3437 40.9167C93.7135 41.3906 94.203 41.625 94.8072 41.625C95.177 41.625 95.4999 41.5469 95.7864 41.3854C96.0676 41.2292 96.3124 41.0365 96.5155 40.8177L97.8176 42.375C97.4114 42.8438 96.9478 43.1875 96.4218 43.4167C95.8958 43.651 95.328 43.7656 94.7187 43.7656Z" fill="#1C1C1B"/>
<path d="M98.776 43.5937H101.26V34.1926H98.776V43.5937Z" fill="#1C1C1B"/>
<path d="M103.031 43.5937V34.1926H105.521V41.5103H109.078V43.5937" fill="#1C1C1B"/>
<path d="M110.188 43.5937V34.1926H116.266V36.276H112.677V37.7499H115.745V39.8333H112.677V41.5103H116.411V43.5937" fill="#1C1C1B"/>
<path d="M28.5624 26.0625C26.8697 28.5521 28.3072 31.8281 30.052 33.4896C31.6458 35 32.9218 35.3594 33.0885 35.401L33.901 33.8438L36.2447 40.2552L29.6197 41.599L30.4999 39.9688L29.6041 39.4635C26.8124 37.6458 26.2239 35.1771 26.0312 34.4062C25.6978 33.0781 25.203 29.1094 28.5624 26.0625Z" fill="#1C1C1B"/>
<path d="M28.5312 26.1718C29.7344 28.927 33.2708 29.4635 35.6042 28.8697C37.6771 28.3437 38.6615 27.4895 38.8281 27.3333L38.8177 27.3176L37.9323 25.7864L44.599 27.2395L42.1875 33.5572L41.2917 31.9687L40.4219 32.4374C37.3958 33.828 34.9896 33.0103 34.2344 32.7603C32.9375 32.3333 29.3125 30.6353 28.5312 26.1718Z" fill="#1C1C1B"/>
<path d="M40.3177 19.5156C39.8541 22.8125 37.8698 24.3958 37.25 24.8958C36.1875 25.7552 32.802 27.8854 28.6198 26.1354C31.5937 26.6094 33.9531 23.9271 34.7135 21.6406C35.401 19.5885 35.1979 18.2917 35.1562 18.0885H35.1354L33.3698 18.0104L38.1823 13.1719L42.2083 18.6094L40.3906 18.5052" fill="#1C1C1B"/>
<path fill-rule="evenodd" clip-rule="evenodd" d="M20.0938 16.7291C18.5729 16.7291 17.3438 15.4999 17.3438 13.9791C17.3438 12.4583 18.5729 11.2239 20.0938 11.2239C21.6146 11.2239 22.849 12.4583 22.849 13.9791C22.849 15.4999 21.6146 16.7291 20.0938 16.7291Z" fill="#1C1C1B"/>
<path d="M15.8333 30.1146C16.0677 29.4688 16.4167 29.5104 16.4167 29.5104C16.4167 29.5104 16.7344 29.4427 16.9115 30.0938L19.4844 39.125C17.3385 38.5052 15.3802 37.4375 13.7135 36.0312L15.8333 30.1146ZM23.8594 5.98438C13.9167 5.98438 5.82812 14.0729 5.82812 24.0208C5.82812 33.9583 13.9167 42.0521 23.8594 42.0521C24.3906 42.0521 24.9115 42.0156 25.4323 41.9688L25.5521 43.7812L28.8542 40.5885L25.1615 37.776L25.3021 39.6771C24.8281 39.7188 24.3438 39.75 23.8594 39.75C23.0938 39.75 22.3438 39.6927 21.6094 39.5885L21.5365 39.1094L19.8229 24.5104C19.5885 21.7552 21.1615 21.3125 22.1354 21.7292L27.6042 23.9219C28.2292 24.1927 28.5312 23.6719 28.5312 23.6719C28.5312 23.6719 28.8854 23.1198 28.25 22.7135C28.25 22.7135 20.7969 17.776 19.2083 17.4792C17.0417 17.0729 14.8958 18.8281 14.4219 21.1146L11.776 34.0833C9.5 31.349 8.125 27.8438 8.125 24.0208C8.125 15.3438 15.1823 8.28646 23.8594 8.28646C28.4948 8.28646 32.6667 10.3021 35.5469 13.4948L37.1615 11.8594C33.8646 8.25 29.1198 5.98438 23.8594 5.98438Z" fill="#1C1C1B"/>
<path d="M134.283 41.364H134.619C134.827 41.364 134.995 41.318 135.123 41.226C135.251 41.134 135.315 40.964 135.315 40.716C135.315 40.592 135.297 40.49 135.261 40.41C135.229 40.326 135.183 40.26 135.123 40.212C135.067 40.16 134.999 40.124 134.919 40.104C134.839 40.084 134.751 40.074 134.655 40.074H134.283V41.364ZM134.283 39.474H134.529C134.769 39.474 134.943 39.432 135.051 39.348C135.163 39.26 135.219 39.114 135.219 38.91C135.219 38.706 135.169 38.562 135.069 38.478C134.969 38.394 134.811 38.352 134.595 38.352H134.283V39.474ZM133.419 37.716H134.865C135.041 37.716 135.203 37.734 135.351 37.77C135.503 37.806 135.633 37.866 135.741 37.95C135.849 38.034 135.933 38.146 135.993 38.286C136.053 38.426 136.083 38.598 136.083 38.802C136.083 39.034 136.029 39.234 135.921 39.402C135.813 39.566 135.651 39.678 135.435 39.738V39.75C135.675 39.782 135.865 39.884 136.005 40.056C136.145 40.228 136.215 40.458 136.215 40.746C136.215 40.914 136.193 41.074 136.149 41.226C136.105 41.378 136.029 41.512 135.921 41.628C135.817 41.74 135.679 41.83 135.507 41.898C135.339 41.966 135.129 42 134.877 42H133.419V37.716ZM137.527 39.858C137.527 40.146 137.533 40.392 137.545 40.596C137.561 40.796 137.589 40.96 137.629 41.088C137.673 41.212 137.733 41.304 137.809 41.364C137.889 41.42 137.993 41.448 138.121 41.448C138.249 41.448 138.351 41.42 138.427 41.364C138.507 41.304 138.567 41.212 138.607 41.088C138.651 40.96 138.679 40.796 138.691 40.596C138.707 40.392 138.715 40.146 138.715 39.858C138.715 39.57 138.707 39.326 138.691 39.126C138.679 38.926 138.651 38.762 138.607 38.634C138.567 38.506 138.507 38.414 138.427 38.358C138.351 38.298 138.249 38.268 138.121 38.268C137.993 38.268 137.889 38.298 137.809 38.358C137.733 38.414 137.673 38.506 137.629 38.634C137.589 38.762 137.561 38.926 137.545 39.126C137.533 39.326 137.527 39.57 137.527 39.858ZM136.663 39.858C136.663 39.534 136.677 39.236 136.705 38.964C136.737 38.688 136.803 38.452 136.903 38.256C137.007 38.06 137.155 37.908 137.347 37.8C137.539 37.688 137.797 37.632 138.121 37.632C138.445 37.632 138.703 37.688 138.895 37.8C139.087 37.908 139.233 38.06 139.333 38.256C139.437 38.452 139.503 38.688 139.531 38.964C139.563 39.236 139.579 39.534 139.579 39.858C139.579 40.186 139.563 40.486 139.531 40.758C139.503 41.03 139.437 41.264 139.333 41.46C139.233 41.656 139.087 41.806 138.895 41.91C138.703 42.014 138.445 42.066 138.121 42.066C137.797 42.066 137.539 42.014 137.347 41.91C137.155 41.806 137.007 41.656 136.903 41.46C136.803 41.264 136.737 41.03 136.705 40.758C136.677 40.486 136.663 40.186 136.663 39.858ZM140.129 36.6H140.993L141.461 37.464H140.825L140.549 36.954L140.261 37.464H139.679L140.129 36.6ZM140.129 42V37.716H140.993V42H140.129ZM144.142 37.716V38.424H143.206V42H142.342V38.424H141.406V37.716H144.142ZM146.911 37.716V38.424H145.381V39.432H146.821V40.14H145.381V41.292H146.971V42H144.517V37.716H146.911ZM149.753 41.364H150.137C150.289 41.364 150.411 41.338 150.503 41.286C150.595 41.234 150.667 41.148 150.719 41.028C150.775 40.908 150.811 40.75 150.827 40.554C150.847 40.358 150.857 40.114 150.857 39.822C150.857 39.578 150.849 39.364 150.833 39.18C150.817 38.996 150.783 38.844 150.731 38.724C150.683 38.6 150.609 38.508 150.509 38.448C150.413 38.384 150.283 38.352 150.119 38.352H149.753V41.364ZM148.889 37.716H150.305C150.605 37.716 150.847 37.766 151.031 37.866C151.215 37.962 151.357 38.102 151.457 38.286C151.561 38.466 151.631 38.684 151.667 38.94C151.703 39.196 151.721 39.482 151.721 39.798C151.721 40.174 151.697 40.502 151.649 40.782C151.605 41.058 151.527 41.286 151.415 41.466C151.303 41.646 151.153 41.78 150.965 41.868C150.777 41.956 150.539 42 150.251 42H148.889V37.716ZM154.686 37.716V38.424H153.156V39.432H154.596V40.14H153.156V41.292H154.746V42H152.292V37.716H154.686ZM133.462 46.162C133.462 45.85 133.424 45.624 133.348 45.484C133.276 45.34 133.142 45.268 132.946 45.268C132.838 45.268 132.748 45.298 132.676 45.358C132.608 45.414 132.554 45.508 132.514 45.64C132.474 45.768 132.446 45.938 132.43 46.15C132.414 46.358 132.406 46.614 132.406 46.918C132.406 47.242 132.416 47.504 132.436 47.704C132.46 47.904 132.494 48.06 132.538 48.172C132.586 48.28 132.644 48.354 132.712 48.394C132.784 48.43 132.866 48.448 132.958 48.448C133.034 48.448 133.104 48.436 133.168 48.412C133.236 48.384 133.294 48.332 133.342 48.256C133.39 48.176 133.428 48.066 133.456 47.926C133.484 47.782 133.498 47.594 133.498 47.362H134.362C134.362 47.594 134.344 47.814 134.308 48.022C134.272 48.23 134.204 48.412 134.104 48.568C134.008 48.724 133.87 48.846 133.69 48.934C133.514 49.022 133.284 49.066 133 49.066C132.676 49.066 132.418 49.014 132.226 48.91C132.034 48.806 131.886 48.656 131.782 48.46C131.682 48.264 131.616 48.03 131.584 47.758C131.556 47.486 131.542 47.186 131.542 46.858C131.542 46.534 131.556 46.236 131.584 45.964C131.616 45.688 131.682 45.452 131.782 45.256C131.886 45.06 132.034 44.908 132.226 44.8C132.418 44.688 132.676 44.632 133 44.632C133.308 44.632 133.55 44.682 133.726 44.782C133.906 44.882 134.04 45.01 134.128 45.166C134.216 45.318 134.27 45.484 134.29 45.664C134.314 45.84 134.326 46.006 134.326 46.162H133.462ZM135.629 46.858C135.629 47.146 135.635 47.392 135.647 47.596C135.663 47.796 135.691 47.96 135.731 48.088C135.775 48.212 135.835 48.304 135.911 48.364C135.991 48.42 136.095 48.448 136.223 48.448C136.351 48.448 136.453 48.42 136.529 48.364C136.609 48.304 136.669 48.212 136.709 48.088C136.753 47.96 136.781 47.796 136.793 47.596C136.809 47.392 136.817 47.146 136.817 46.858C136.817 46.57 136.809 46.326 136.793 46.126C136.781 45.926 136.753 45.762 136.709 45.634C136.669 45.506 136.609 45.414 136.529 45.358C136.453 45.298 136.351 45.268 136.223 45.268C136.095 45.268 135.991 45.298 135.911 45.358C135.835 45.414 135.775 45.506 135.731 45.634C135.691 45.762 135.663 45.926 135.647 46.126C135.635 46.326 135.629 46.57 135.629 46.858ZM134.765 46.858C134.765 46.534 134.779 46.236 134.807 45.964C134.839 45.688 134.905 45.452 135.005 45.256C135.109 45.06 135.257 44.908 135.449 44.8C135.641 44.688 135.899 44.632 136.223 44.632C136.547 44.632 136.805 44.688 136.997 44.8C137.189 44.908 137.335 45.06 137.435 45.256C137.539 45.452 137.605 45.688 137.633 45.964C137.665 46.236 137.681 46.534 137.681 46.858C137.681 47.186 137.665 47.486 137.633 47.758C137.605 48.03 137.539 48.264 137.435 48.46C137.335 48.656 137.189 48.806 136.997 48.91C136.805 49.014 136.547 49.066 136.223 49.066C135.899 49.066 135.641 49.014 135.449 48.91C135.257 48.806 135.109 48.656 135.005 48.46C134.905 48.264 134.839 48.03 134.807 47.758C134.779 47.486 134.765 47.186 134.765 46.858ZM139.185 44.716L140.229 47.65H140.241V44.716H141.033V49H140.049L138.993 46H138.981V49H138.189V44.716H139.185ZM142.33 47.662V47.788C142.33 47.888 142.338 47.98 142.354 48.064C142.37 48.144 142.4 48.212 142.444 48.268C142.488 48.324 142.546 48.368 142.618 48.4C142.694 48.432 142.788 48.448 142.9 48.448C143.032 48.448 143.15 48.406 143.254 48.322C143.362 48.234 143.416 48.1 143.416 47.92C143.416 47.824 143.402 47.742 143.374 47.674C143.35 47.602 143.308 47.538 143.248 47.482C143.188 47.426 143.108 47.376 143.008 47.332C142.912 47.284 142.792 47.236 142.648 47.188C142.456 47.124 142.29 47.054 142.15 46.978C142.01 46.902 141.892 46.814 141.796 46.714C141.704 46.61 141.636 46.492 141.592 46.36C141.548 46.224 141.526 46.068 141.526 45.892C141.526 45.468 141.644 45.152 141.88 44.944C142.116 44.736 142.44 44.632 142.852 44.632C143.044 44.632 143.22 44.654 143.38 44.698C143.544 44.738 143.684 44.806 143.8 44.902C143.92 44.994 144.012 45.114 144.076 45.262C144.144 45.406 144.178 45.58 144.178 45.784V45.904H143.35C143.35 45.7 143.314 45.544 143.242 45.436C143.17 45.324 143.05 45.268 142.882 45.268C142.786 45.268 142.706 45.282 142.642 45.31C142.578 45.338 142.526 45.376 142.486 45.424C142.45 45.468 142.424 45.52 142.408 45.58C142.396 45.64 142.39 45.702 142.39 45.766C142.39 45.898 142.418 46.01 142.474 46.102C142.53 46.19 142.65 46.272 142.834 46.348L143.5 46.636C143.664 46.708 143.798 46.784 143.902 46.864C144.006 46.94 144.088 47.024 144.148 47.116C144.212 47.204 144.256 47.302 144.28 47.41C144.304 47.518 144.316 47.638 144.316 47.77C144.316 48.222 144.184 48.552 143.92 48.76C143.66 48.964 143.296 49.066 142.828 49.066C142.34 49.066 141.99 48.96 141.778 48.748C141.57 48.536 141.466 48.232 141.466 47.836V47.662H142.33ZM147.139 44.716V45.424H145.609V46.432H147.049V47.14H145.609V48.292H147.199V49H144.745V44.716H147.139ZM147.634 44.716H149.23C149.59 44.716 149.87 44.808 150.07 44.992C150.27 45.172 150.37 45.448 150.37 45.82C150.37 46.108 150.312 46.344 150.196 46.528C150.08 46.708 149.9 46.824 149.656 46.876V46.888C149.872 46.92 150.03 46.99 150.13 47.098C150.23 47.206 150.292 47.38 150.316 47.62C150.324 47.7 150.33 47.788 150.334 47.884C150.338 47.976 150.342 48.08 150.346 48.196C150.354 48.424 150.366 48.598 150.382 48.718C150.406 48.838 150.458 48.92 150.538 48.964V49H149.602C149.558 48.94 149.53 48.872 149.518 48.796C149.506 48.716 149.498 48.634 149.494 48.55L149.47 47.728C149.462 47.56 149.42 47.428 149.344 47.332C149.268 47.236 149.14 47.188 148.96 47.188H148.498V49H147.634V44.716ZM148.498 46.588H148.858C149.066 46.588 149.226 46.54 149.338 46.444C149.45 46.344 149.506 46.178 149.506 45.946C149.506 45.55 149.306 45.352 148.906 45.352H148.498V46.588ZM151.61 44.716L152.216 47.884H152.234L152.87 44.716H153.764L152.78 49H151.67L150.686 44.716H151.61ZM156.473 44.716V45.424H154.943V46.432H156.383V47.14H154.943V48.292H156.533V49H154.079V44.716H156.473Z" fill="#1C1C1B"/>
<path d="M145.874 18.0325L146.065 18.3164C146.144 18.4293 146.267 18.4977 146.4 18.5046L146.889 18.5353C147.409 18.8842 147.731 19.2981 147.786 19.7428C147.727 20.2798 147.266 20.8031 146.469 21.2307C145.514 21.7369 144.235 22.0277 142.86 22.0413L142.74 22.0448C140.503 22.0448 138.53 21.2581 138.006 20.2422C138.14 19.9343 138.369 19.6915 138.629 19.4931C138.927 19.2639 139.258 19.0826 139.597 18.9287C140.285 18.614 141.006 18.4156 141.752 18.3472C142.125 18.3096 142.498 18.2959 142.877 18.3096C143.253 18.313 143.626 18.3506 144.003 18.4019C144.372 18.4567 144.745 18.5319 145.104 18.6448C145.285 18.6995 145.463 18.7645 145.634 18.8466C145.805 18.9253 145.973 19.0211 146.106 19.1613C146.007 18.9937 145.853 18.8569 145.696 18.744C145.535 18.6277 145.357 18.5353 145.179 18.4498C144.824 18.2856 144.444 18.1659 144.061 18.077C143.678 17.9881 143.284 17.9402 142.894 17.9094C142.498 17.8889 142.104 17.8923 141.711 17.9333C141.317 17.9812 140.921 18.0496 140.544 18.1728C140.161 18.2959 139.799 18.4498 139.453 18.6448C139.108 18.8329 138.779 19.0655 138.496 19.3426C138.263 19.582 138.061 19.8762 137.986 20.1977C137.931 20.0848 137.9 19.9651 137.887 19.8454C137.941 19.3084 138.4 18.7816 139.204 18.3541C140.155 17.8444 141.437 17.5537 142.809 17.54H142.925C144.023 17.54 145.049 17.7247 145.874 18.0325ZM138.058 31.0509C138.345 31.3588 138.684 31.6085 139.046 31.8068C139.847 32.2378 140.729 32.4602 141.612 32.5799C142.498 32.6893 143.394 32.6962 144.276 32.5696C145.159 32.4465 146.028 32.1831 146.787 31.7384C145.945 31.9916 145.094 32.1318 144.239 32.1797C143.808 32.1968 143.387 32.2105 142.956 32.1865C142.525 32.1728 142.101 32.1421 141.677 32.0839C141.253 32.0326 140.835 31.9539 140.421 31.8513C140.011 31.7521 139.607 31.6187 139.221 31.4545C138.834 31.2835 138.465 31.0783 138.15 30.8012C138.14 30.791 138.133 30.7807 138.123 30.7739L138.03 22.4039C138.212 22.5578 138.407 22.6981 138.612 22.8178C139.364 23.2556 140.206 23.4916 141.051 23.6182C141.475 23.6729 141.902 23.7037 142.33 23.7037C142.758 23.6969 143.182 23.6729 143.602 23.6079C144.444 23.4848 145.275 23.2385 146.004 22.8144C145.2 23.0538 144.382 23.1872 143.565 23.2385C142.744 23.2864 141.923 23.2659 141.119 23.1462C140.715 23.0949 140.315 23.0128 139.925 22.9033C139.532 22.8007 139.152 22.657 138.786 22.4894C138.516 22.3595 138.263 22.1987 138.027 22.0174L138.02 21.5762C139.046 22.3971 140.76 22.917 142.747 22.917H142.87C144.382 22.8999 145.805 22.5749 146.879 22.0003C147.149 21.8566 147.385 21.6993 147.598 21.5351L147.7 30.791C147.704 30.9312 147.772 31.0612 147.885 31.1399L147.868 31.2048C147.533 32.2652 145.463 33.0553 142.946 33.0861H142.802C140.363 33.0861 138.417 32.3644 138.071 31.3588C138.054 31.2801 138.034 31.1946 138.02 31.1193C138.037 31.0988 138.044 31.0749 138.058 31.0509ZM147.297 17.7315C147.255 17.7076 147.211 17.7042 147.167 17.6939C146.951 17.5605 146.715 17.4408 146.462 17.3313L146.438 17.2971C146.411 17.2561 146.376 17.2219 146.335 17.1877L146.028 16.9619L146.065 16.5754C146.069 16.5241 146.065 16.4728 146.051 16.4249L145.952 16.0213L146.212 15.6895C146.257 15.6348 146.287 15.5664 146.298 15.4945L146.38 15.0328L146.944 14.5881C146.982 14.5607 147.013 14.5265 147.043 14.4821L147.447 13.8493L148.135 13.5517C148.186 13.5312 148.234 13.497 148.275 13.4593L148.805 12.9223L149.54 12.7581C149.595 12.7479 149.65 12.7239 149.701 12.6897L150.324 12.2587L151.076 12.2314C151.131 12.228 151.186 12.2177 151.237 12.1938L151.924 11.8962L152.66 12.0364L152.742 12.0467C152.78 12.0467 152.817 12.0398 152.855 12.0296L153.289 11.9167L153.676 12.1527C153.737 12.1869 153.806 12.2109 153.878 12.2143L154.298 12.2416L154.531 12.5871C154.558 12.6282 154.592 12.6658 154.633 12.6931L154.941 12.9223L154.904 13.3054C154.9 13.3533 154.904 13.4046 154.917 13.4559L155.017 13.863L154.753 14.1947C154.712 14.2529 154.681 14.3179 154.671 14.3897L154.589 14.8515L154.021 15.2961C153.984 15.3269 153.953 15.3611 153.925 15.4022L153.522 16.035L152.834 16.3291C152.783 16.3531 152.735 16.3839 152.694 16.4249L152.164 16.9619L151.422 17.1261C151.363 17.1398 151.312 17.1603 151.268 17.1945L150.649 17.6255L149.889 17.6529C149.835 17.6563 149.783 17.6665 149.732 17.6871L149.044 17.9881L148.306 17.8444L148.227 17.8376C148.189 17.8376 148.152 17.841 148.114 17.8512L147.676 17.9675L147.297 17.7315ZM155.923 13.8561L155.786 13.3157L155.841 12.7616C155.855 12.6076 155.79 12.4571 155.663 12.3648L155.215 12.033L154.907 11.5712C154.832 11.4583 154.705 11.3831 154.565 11.3763L154.042 11.3455L153.59 11.0684C153.491 11.0068 153.368 10.9863 153.248 11.0171L152.728 11.1573L151.959 11.0068L151.873 11C151.815 11 151.757 11.0103 151.699 11.0376L150.963 11.3557L150.163 11.3831C150.077 11.3865 149.995 11.4139 149.927 11.4618L149.27 11.9201L148.494 12.0911C148.408 12.1082 148.333 12.1493 148.275 12.2109L147.71 12.7787L146.975 13.0968C146.896 13.131 146.828 13.1891 146.777 13.2644L146.342 13.945L145.703 14.4479C145.62 14.5128 145.562 14.6086 145.542 14.7147L145.453 15.2346L145.125 15.6484C145.042 15.7579 145.012 15.8947 145.046 16.0281L145.183 16.5686L145.148 16.9072C144.468 16.7498 143.715 16.6643 142.922 16.6643H142.802C141.29 16.6814 139.864 17.0064 138.79 17.581C137.767 18.1283 137.151 18.8534 137.025 19.647C137.004 19.7017 136.997 19.7599 137.001 19.818C137.001 19.8385 137.008 19.8557 137.008 19.8728C137.008 19.907 137.001 19.9412 137.001 19.9754C137.001 20.1327 137.025 20.2832 137.134 20.5808L137.247 30.5481C137.121 30.702 137.121 30.897 137.121 30.9825C137.124 31.1364 137.192 31.4477 137.23 31.5948C137.719 33.0314 139.908 33.9583 142.802 33.9583H142.952C145.976 33.9241 148.234 32.9424 148.709 31.4477L148.75 31.2869C148.781 31.1433 148.795 30.9996 148.795 30.8559C148.791 30.5789 148.678 30.4352 148.569 30.36L148.459 20.5534C148.62 20.2456 148.675 20.0609 148.672 19.8454C148.672 19.8043 148.665 19.7667 148.661 19.7257C148.661 19.688 148.672 19.647 148.672 19.606C148.672 19.5307 148.644 19.4657 148.61 19.4007C148.552 19.1716 148.453 18.9526 148.312 18.7406L149.01 18.8774L149.092 18.8842C149.154 18.8842 149.212 18.8706 149.27 18.8466L150.006 18.5285L150.809 18.5011C150.891 18.4943 150.974 18.4704 151.042 18.4225L151.699 17.9641L152.479 17.7931C152.561 17.7726 152.636 17.7315 152.697 17.6734L153.258 17.1056L153.994 16.7875C154.076 16.7498 154.144 16.6951 154.189 16.6199L154.627 15.9392L155.263 15.4364C155.348 15.3714 155.407 15.2756 155.427 15.1662L155.516 14.6497L155.841 14.2358C155.926 14.1297 155.957 13.9895 155.923 13.8561Z" fill="#1C1C1B"/>
<path d="M148.709 17.41C148.213 17.3621 147.714 17.2595 147.327 17.0132C147.136 16.8935 146.978 16.7327 146.893 16.548C146.807 16.3599 146.787 16.1512 146.828 15.946C146.869 15.7374 146.965 15.539 147.084 15.3474C147.146 15.2517 147.214 15.1593 147.286 15.0738C147.365 14.978 147.437 14.8993 147.522 14.8138C147.854 14.482 148.244 14.1913 148.665 13.945C149.082 13.6953 149.527 13.4833 149.988 13.3088C150.45 13.131 150.929 12.9976 151.415 12.9018C151.9 12.8094 152.396 12.765 152.886 12.7992C153.368 12.8334 153.864 12.9497 154.226 13.2609C154.079 13.0796 153.871 12.9394 153.645 12.8402C153.416 12.7376 153.169 12.676 152.916 12.635C152.41 12.5597 151.887 12.5734 151.377 12.6452C150.351 12.7889 149.356 13.1481 148.47 13.668C148.032 13.9348 147.618 14.2426 147.266 14.612C146.927 14.978 146.612 15.4158 146.544 15.9187C146.51 16.1649 146.547 16.4283 146.674 16.6472C146.801 16.8661 147.002 17.0372 147.228 17.1535C147.683 17.3826 148.21 17.4339 148.709 17.41Z" fill="#1C1C1B"/>
</g>
<defs>
<clipPath id="clip0_17_2">
<rect width="227" height="61" fill="white"/>
</clipPath>
</defs>
</svg>
