<svg width="227" height="61" viewBox="0 0 227 61" fill="none" xmlns="http://www.w3.org/2000/svg">
<g clip-path="url(#clip0_19_414)">
<path d="M24.8542 60.7916C11.2344 60.7916 0.15625 49.8385 0.15625 36.3801V0.317627H201.323C214.938 0.317627 226.016 11.2655 226.016 24.7239L226.021 60.7916" fill="white"/>
<path d="M201.323 5.98438H50.2708V36.3802C50.2708 46.7135 58.802 55.1198 69.2916 55.1198H220.349V24.724C220.349 14.3958 211.812 5.98438 201.323 5.98438Z" fill="white"/>
<path d="M218.458 53.2292H69.2916C59.8437 53.2292 52.1562 45.6719 52.1562 36.3802V7.875H201.323C210.771 7.875 218.458 15.4323 218.458 24.724V53.2292ZM201.323 5.98438H50.2708V36.3802C50.2708 46.7135 58.802 55.1198 69.2916 55.1198H220.349V24.724C220.349 14.3958 211.812 5.98438 201.323 5.98438Z" fill="#FCC42F"/>
<path d="M163.089 55.1198L176.099 28.5417L162.807 5.98438H201.323C211.812 5.98438 220.349 14.3906 220.349 24.724V55.1198" fill="#FCC42F"/>
<path d="M201.323 7.875H166.115L178.245 28.4583L166.12 53.2292H218.458V24.724C218.458 15.4323 210.771 7.875 201.323 7.875Z" fill="#FCC42F"/>
<path d="M206.281 41.6615H205.078C204.979 41.6615 204.885 41.6719 204.792 41.6875C205.354 35.4323 206.224 25.7708 206.646 21.3958C206.687 20.9531 206.359 20.5573 205.917 20.5156C205.464 20.4635 205.073 20.7969 205.031 21.2448C204.385 27.9635 202.677 47.1458 202.661 47.3385C202.63 47.6615 202.312 47.9271 201.943 47.9271H188.854C188.479 47.9271 188.167 47.6615 188.135 47.3385C188.12 47.1458 186.411 27.9635 185.766 21.2448C185.724 20.7969 185.333 20.4635 184.88 20.5156C184.437 20.5573 184.109 20.9531 184.151 21.3958C184.573 25.7708 185.443 35.4271 186.005 41.6875C185.911 41.6667 185.812 41.6562 185.719 41.6562H184.516C183.74 41.6562 183.104 42.2917 183.104 43.0677V48.1406C183.104 48.9167 183.74 49.5469 184.516 49.5469H185.719C186.297 49.5469 186.802 49.1927 187.016 48.6823C187.443 49.2135 188.104 49.5469 188.854 49.5469H201.943C202.687 49.5469 203.349 49.2135 203.781 48.6875C203.995 49.1927 204.495 49.5521 205.078 49.5521H206.281C207.057 49.5521 207.687 48.9219 207.687 48.1406V43.0677C207.687 42.2917 207.057 41.6615 206.281 41.6615Z" fill="#1C1C1B"/>
<path d="M190.344 25.1198V27.4115H191.016C191.411 27.4115 191.625 27.2292 191.625 26.6771V26.026C191.625 25.3333 191.401 25.1198 190.865 25.1198H190.344ZM190.344 22.0833V24.0521H190.802C191.24 24.0521 191.505 23.8646 191.505 23.2656V22.849C191.505 22.3125 191.323 22.0833 190.906 22.0833H190.344ZM192.677 22.7344V23C192.677 23.7656 192.443 24.2448 191.922 24.4896V24.5104C192.547 24.7604 192.797 25.3125 192.797 26.099V26.7083C192.797 27.8594 192.187 28.4792 191.016 28.4792H189.172V21.0156H190.938C192.156 21.0156 192.677 21.5833 192.677 22.7344Z" fill="#1C1C1B"/>
<path d="M194.833 26.1146H195.964L195.411 22.3385H195.385L194.833 26.1146ZM197.51 28.4792H196.328L196.125 27.125H194.688L194.479 28.4792H193.406L194.599 21.0156H196.313" fill="#1C1C1B"/>
<path d="M201.661 25.6926V26.6874C201.661 27.8801 201.062 28.5624 199.911 28.5624C198.76 28.5624 198.161 27.8801 198.161 26.6874V22.8072C198.161 21.6093 198.76 20.927 199.911 20.927C201.062 20.927 201.661 21.6093 201.661 22.8072V23.5312H200.552V22.7291C200.552 22.1978 200.318 21.9947 199.943 21.9947C199.573 21.9947 199.338 22.1978 199.338 22.7291V26.7603C199.338 27.2916 199.573 27.4843 199.943 27.4843C200.318 27.4843 200.552 27.2916 200.552 26.7603V25.6926" fill="#1C1C1B"/>
<path d="M192.703 31.2083V36.5365H193.365C193.734 36.5365 193.958 36.3438 193.958 35.8125V31.9323C193.958 31.401 193.734 31.2083 193.365 31.2083H192.703ZM191.531 30.1406H193.385C194.557 30.1406 195.13 30.7917 195.13 31.9844V35.7604C195.13 36.9531 194.557 37.6042 193.385 37.6042H191.531" fill="#1C1C1B"/>
<path d="M197.266 33.2865H198.875V34.349H197.266V36.5365H199.292V37.6042H196.094V30.1406H199.292V31.2031H197.266" fill="#1C1C1B"/>
<path d="M190.161 39.2656H193.786V40.3281H192.562V46.7292H191.385V40.3281H190.161" fill="#1C1C1B"/>
<path d="M195.688 40.3281V42.625H196.146C196.583 42.625 196.849 42.4323 196.849 41.8333V41.099C196.849 40.5677 196.667 40.3281 196.25 40.3281H195.688ZM196.969 46.7292C196.901 46.5365 196.859 46.4167 196.859 45.8125V44.6354C196.859 43.9479 196.625 43.6875 196.094 43.6875H195.688V46.7292H194.516V39.2656H196.286C197.5 39.2656 198.021 39.8281 198.021 40.9792V41.5677C198.021 42.3333 197.776 42.8229 197.255 43.0729V43.0938C197.839 43.3385 198.031 43.8906 198.031 44.6719V45.8229C198.031 46.1823 198.042 46.4531 198.161 46.7292" fill="#1C1C1B"/>
<path d="M199.016 46.7292H200.188V39.2656H199.016V46.7292Z" fill="#1C1C1B"/>
<path d="M207.125 17.6197H183.672V15.6666C183.672 15.5989 183.703 15.5676 183.698 15.5676H185.396C185.589 15.5676 185.771 15.4999 185.917 15.3697L188.047 13.5103C188.141 13.427 188.37 13.3437 188.661 13.3437H202.13C202.422 13.3437 202.656 13.427 202.75 13.5103L204.88 15.3697C205.026 15.4999 205.208 15.5676 205.401 15.5676H207.099C207.089 15.5676 207.125 15.5989 207.125 15.6666V17.6197ZM207.099 13.9791H205.698L203.792 12.3176C203.385 11.9583 202.781 11.7551 202.13 11.7551H188.661C188.016 11.7551 187.411 11.9583 187 12.3176L185.094 13.9791H183.698C182.807 13.9791 182.089 14.7395 182.089 15.6666V17.8124C182.089 18.1093 182.161 18.401 182.307 18.6614C182.37 18.7708 182.458 18.8697 182.562 18.9374C182.823 19.1093 183.12 19.1978 183.427 19.1978H207.37C207.677 19.1978 207.974 19.1093 208.234 18.9374C208.339 18.8697 208.427 18.7708 208.49 18.6614C208.63 18.401 208.708 18.1093 208.708 17.8124V15.6666C208.708 14.7395 207.984 13.9791 207.099 13.9791Z" fill="#1C1C1B"/>
<path d="M202.125 14.0781H188.667C188.297 14.0781 187.995 14.3802 187.995 14.75C187.995 15.1198 188.297 15.4219 188.667 15.4219H202.125C202.495 15.4219 202.797 15.1198 202.797 14.75C202.797 14.3802 202.495 14.0781 202.125 14.0781Z" fill="#1C1C1B"/>
<path d="M103.057 5.98438H50.2708V36.3802C50.2708 46.7135 58.802 55.1198 69.2916 55.1198H122.083V24.724C122.083 14.3958 113.547 5.98438 103.057 5.98438Z" fill="#FCC42F"/>
<path d="M63.8072 29.677C59.0051 29.677 55.1145 33.5676 55.1145 38.3697C55.1145 43.1718 59.0051 47.0624 63.8072 47.0624C68.6145 47.0624 72.5051 43.1718 72.5051 38.3697C72.5051 33.5676 68.6145 29.677 63.8072 29.677Z" fill="white"/>
<path d="M69.4792 39.7865H65.2292V44.0417H62.3906V39.7865H58.1406V36.9531H62.3906V32.7031H65.2292V36.9531H69.4792" fill="#1C1C1B"/>
<path d="M55.9426 26.9167V17.5156H58.427V24.8333H61.9843V26.9167" fill="#1C1C1B"/>
<path d="M63.0989 26.9167V17.5156H69.1718V19.599H65.5885V21.0729H68.651V23.1562H65.5885V24.8333H69.3176V26.9167" fill="#1C1C1B"/>
<path d="M75.2448 26.9167V19.599H72.7604V17.5156H80.2239V19.599H77.7343V26.9167" fill="#1C1C1B"/>
<path d="M83.7083 21.7969H84.6042C85.6042 21.7969 86.1094 21.3802 86.1094 20.5521C86.1094 20.1458 85.9792 19.8698 85.724 19.7135C85.4688 19.5573 85.0938 19.4792 84.6042 19.4792H83.7083V21.7969ZM81.2188 26.9167V17.5156H84.776C85.2813 17.5156 85.7604 17.5625 86.2188 17.6562C86.6771 17.7552 87.0729 17.9219 87.4167 18.151C87.7604 18.3802 88.0313 18.6927 88.2344 19.0833C88.4375 19.474 88.5365 19.9635 88.5365 20.5521C88.5365 21.2292 88.401 21.7865 88.125 22.2292C87.8542 22.6719 87.4844 23.0208 87.0208 23.2708L89.0573 26.9167H86.2812L84.6615 23.7604H83.7083V26.9167" fill="#1C1C1B"/>
<path d="M90.026 26.9167H92.5156V17.5156H90.026V26.9167Z" fill="#1C1C1B"/>
<path d="M75.5364 43.5937V34.1926H81.6666V36.276H78.026V38.0676H81.1458V40.151H78.026V43.5937" fill="#1C1C1B"/>
<path d="M85.0781 39.0208L84.9166 39.6718H86.651L86.4948 39.0208C86.3802 38.5676 86.2604 38.078 86.1458 37.5468C86.0312 37.0155 85.9166 36.5155 85.7968 36.0416H85.7395C85.6354 36.526 85.526 37.0312 85.4166 37.552C85.3073 38.078 85.1927 38.5676 85.0781 39.0208ZM81.4635 43.5937L84.3229 34.1926H87.3281L90.1927 43.5937H87.5625L87.0989 41.5989H84.4687L84.0052 43.5937" fill="#1C1C1B"/>
<path d="M94.7187 43.7656C94.1249 43.7656 93.552 43.6667 93.0103 43.4688C92.4635 43.2708 91.9895 42.974 91.578 42.5729C91.1666 42.1719 90.8385 41.6719 90.5989 41.0677C90.3593 40.4688 90.2395 39.7656 90.2395 38.9635C90.2395 38.1771 90.3645 37.474 90.6145 36.8594C90.8645 36.25 91.1978 35.7344 91.6197 35.3125C92.0364 34.8958 92.5208 34.5729 93.0676 34.349C93.6145 34.1302 94.1822 34.0156 94.7812 34.0156C95.4062 34.0156 95.9687 34.1406 96.4583 34.3854C96.953 34.6354 97.3645 34.9271 97.703 35.2604L96.401 36.8542C96.1718 36.651 95.9322 36.4844 95.6874 36.3542C95.4374 36.224 95.1562 36.1562 94.8385 36.1562C94.5572 36.1562 94.2968 36.2188 94.052 36.349C93.8072 36.474 93.5885 36.651 93.401 36.8802C93.2135 37.1146 93.0624 37.401 92.953 37.7344C92.8385 38.0729 92.7864 38.4531 92.7864 38.875C92.7864 39.7656 92.9687 40.4479 93.3437 40.9167C93.7135 41.3906 94.203 41.625 94.8072 41.625C95.177 41.625 95.4999 41.5469 95.7864 41.3854C96.0676 41.2292 96.3124 41.0365 96.5155 40.8177L97.8176 42.375C97.4114 42.8438 96.9478 43.1875 96.4218 43.4167C95.8958 43.651 95.328 43.7656 94.7187 43.7656Z" fill="#1C1C1B"/>
<path d="M98.776 43.5937H101.26V34.1926H98.776V43.5937Z" fill="#1C1C1B"/>
<path d="M103.031 43.5937V34.1926H105.521V41.5103H109.078V43.5937" fill="#1C1C1B"/>
<path d="M110.188 43.5937V34.1926H116.266V36.276H112.677V37.7499H115.745V39.8333H112.677V41.5103H116.411V43.5937" fill="#1C1C1B"/>
<path d="M28.5624 26.0625C26.8697 28.5521 28.3072 31.8281 30.052 33.4896C31.6458 35 32.9218 35.3594 33.0885 35.401L33.901 33.8438L36.2447 40.2552L29.6197 41.599L30.4999 39.9688L29.6041 39.4635C26.8124 37.6458 26.2239 35.1771 26.0312 34.4062C25.6978 33.0781 25.203 29.1094 28.5624 26.0625Z" fill="#1C1C1B"/>
<path d="M28.5312 26.1718C29.7344 28.927 33.2708 29.4635 35.6042 28.8697C37.6771 28.3437 38.6615 27.4895 38.8281 27.3333L38.8177 27.3176L37.9323 25.7864L44.599 27.2395L42.1875 33.5572L41.2917 31.9687L40.4219 32.4374C37.3958 33.828 34.9896 33.0103 34.2344 32.7603C32.9375 32.3333 29.3125 30.6353 28.5312 26.1718Z" fill="#1C1C1B"/>
<path d="M40.3177 19.5156C39.8541 22.8125 37.8698 24.3958 37.25 24.8958C36.1875 25.7552 32.802 27.8854 28.6198 26.1354C31.5937 26.6094 33.9531 23.9271 34.7135 21.6406C35.401 19.5885 35.1979 18.2917 35.1562 18.0885H35.1354L33.3698 18.0104L38.1823 13.1719L42.2083 18.6094L40.3906 18.5052" fill="#1C1C1B"/>
<path fill-rule="evenodd" clip-rule="evenodd" d="M20.0938 16.7291C18.5729 16.7291 17.3438 15.4999 17.3438 13.9791C17.3438 12.4583 18.5729 11.2239 20.0938 11.2239C21.6146 11.2239 22.849 12.4583 22.849 13.9791C22.849 15.4999 21.6146 16.7291 20.0938 16.7291Z" fill="#1C1C1B"/>
<path d="M15.8333 30.1146C16.0677 29.4688 16.4167 29.5104 16.4167 29.5104C16.4167 29.5104 16.7344 29.4427 16.9115 30.0938L19.4844 39.125C17.3385 38.5052 15.3802 37.4375 13.7135 36.0312L15.8333 30.1146ZM23.8594 5.98438C13.9167 5.98438 5.82812 14.0729 5.82812 24.0208C5.82812 33.9583 13.9167 42.0521 23.8594 42.0521C24.3906 42.0521 24.9115 42.0156 25.4323 41.9688L25.5521 43.7812L28.8542 40.5885L25.1615 37.776L25.3021 39.6771C24.8281 39.7188 24.3438 39.75 23.8594 39.75C23.0938 39.75 22.3438 39.6927 21.6094 39.5885L21.5365 39.1094L19.8229 24.5104C19.5885 21.7552 21.1615 21.3125 22.1354 21.7292L27.6042 23.9219C28.2292 24.1927 28.5312 23.6719 28.5312 23.6719C28.5312 23.6719 28.8854 23.1198 28.25 22.7135C28.25 22.7135 20.7969 17.776 19.2083 17.4792C17.0417 17.0729 14.8958 18.8281 14.4219 21.1146L11.776 34.0833C9.5 31.349 8.125 27.8438 8.125 24.0208C8.125 15.3438 15.1823 8.28646 23.8594 8.28646C28.4948 8.28646 32.6667 10.3021 35.5469 13.4948L37.1615 11.8594C33.8646 8.25 29.1198 5.98438 23.8594 5.98438Z" fill="#1C1C1B"/>
<path d="M136.831 41.364H137.167C137.375 41.364 137.543 41.318 137.671 41.226C137.799 41.134 137.863 40.964 137.863 40.716C137.863 40.592 137.845 40.49 137.809 40.41C137.777 40.326 137.731 40.26 137.671 40.212C137.615 40.16 137.547 40.124 137.467 40.104C137.387 40.084 137.299 40.074 137.203 40.074H136.831V41.364ZM136.831 39.474H137.077C137.317 39.474 137.491 39.432 137.599 39.348C137.711 39.26 137.767 39.114 137.767 38.91C137.767 38.706 137.717 38.562 137.617 38.478C137.517 38.394 137.359 38.352 137.143 38.352H136.831V39.474ZM135.967 37.716H137.413C137.589 37.716 137.751 37.734 137.899 37.77C138.051 37.806 138.181 37.866 138.289 37.95C138.397 38.034 138.481 38.146 138.541 38.286C138.601 38.426 138.631 38.598 138.631 38.802C138.631 39.034 138.577 39.234 138.469 39.402C138.361 39.566 138.199 39.678 137.983 39.738V39.75C138.223 39.782 138.413 39.884 138.553 40.056C138.693 40.228 138.763 40.458 138.763 40.746C138.763 40.914 138.741 41.074 138.697 41.226C138.653 41.378 138.577 41.512 138.469 41.628C138.365 41.74 138.227 41.83 138.055 41.898C137.887 41.966 137.677 42 137.425 42H135.967V37.716ZM139.301 37.716H140.897C141.257 37.716 141.537 37.808 141.737 37.992C141.937 38.172 142.037 38.448 142.037 38.82C142.037 39.108 141.979 39.344 141.863 39.528C141.747 39.708 141.567 39.824 141.323 39.876V39.888C141.539 39.92 141.697 39.99 141.797 40.098C141.897 40.206 141.959 40.38 141.983 40.62C141.991 40.7 141.997 40.788 142.001 40.884C142.005 40.976 142.009 41.08 142.013 41.196C142.021 41.424 142.033 41.598 142.049 41.718C142.073 41.838 142.125 41.92 142.205 41.964V42H141.269C141.225 41.94 141.197 41.872 141.185 41.796C141.173 41.716 141.165 41.634 141.161 41.55L141.137 40.728C141.129 40.56 141.087 40.428 141.011 40.332C140.935 40.236 140.807 40.188 140.627 40.188H140.165V42H139.301V37.716ZM140.165 39.588H140.525C140.733 39.588 140.893 39.54 141.005 39.444C141.117 39.344 141.173 39.178 141.173 38.946C141.173 38.55 140.973 38.352 140.573 38.352H140.165V39.588ZM142.677 42V37.716H143.541V42H142.677ZM144.956 39.858C144.956 40.146 144.962 40.392 144.974 40.596C144.99 40.796 145.018 40.96 145.058 41.088C145.102 41.212 145.162 41.304 145.238 41.364C145.318 41.42 145.422 41.448 145.55 41.448C145.678 41.448 145.78 41.42 145.856 41.364C145.936 41.304 145.996 41.212 146.036 41.088C146.08 40.96 146.108 40.796 146.12 40.596C146.136 40.392 146.144 40.146 146.144 39.858C146.144 39.57 146.136 39.326 146.12 39.126C146.108 38.926 146.08 38.762 146.036 38.634C145.996 38.506 145.936 38.414 145.856 38.358C145.78 38.298 145.678 38.268 145.55 38.268C145.422 38.268 145.318 38.298 145.238 38.358C145.162 38.414 145.102 38.506 145.058 38.634C145.018 38.762 144.99 38.926 144.974 39.126C144.962 39.326 144.956 39.57 144.956 39.858ZM146.63 42.51L146.12 42C145.96 42.044 145.77 42.066 145.55 42.066C145.226 42.066 144.968 42.014 144.776 41.91C144.584 41.806 144.436 41.656 144.332 41.46C144.232 41.264 144.166 41.03 144.134 40.758C144.106 40.486 144.092 40.186 144.092 39.858C144.092 39.534 144.106 39.236 144.134 38.964C144.166 38.688 144.232 38.452 144.332 38.256C144.436 38.06 144.584 37.908 144.776 37.8C144.968 37.688 145.226 37.632 145.55 37.632C145.874 37.632 146.132 37.688 146.324 37.8C146.516 37.908 146.662 38.06 146.762 38.256C146.866 38.452 146.932 38.688 146.96 38.964C146.992 39.236 147.008 39.534 147.008 39.858C147.008 40.222 146.988 40.552 146.948 40.848C146.908 41.144 146.818 41.394 146.678 41.598L147.14 42.048L146.63 42.51ZM148.326 37.716V40.704C148.326 40.812 148.332 40.912 148.344 41.004C148.36 41.092 148.386 41.17 148.422 41.238C148.462 41.302 148.514 41.354 148.578 41.394C148.646 41.43 148.73 41.448 148.83 41.448C148.934 41.448 149.018 41.43 149.082 41.394C149.146 41.354 149.196 41.302 149.232 41.238C149.272 41.17 149.298 41.092 149.31 41.004C149.326 40.912 149.334 40.812 149.334 40.704V37.716H150.198V40.704C150.198 40.976 150.16 41.202 150.084 41.382C150.008 41.558 149.906 41.698 149.778 41.802C149.65 41.906 149.504 41.976 149.34 42.012C149.176 42.048 149.006 42.066 148.83 42.066C148.654 42.066 148.484 42.05 148.32 42.018C148.156 41.986 148.01 41.922 147.882 41.826C147.754 41.726 147.652 41.586 147.576 41.406C147.5 41.226 147.462 40.992 147.462 40.704V37.716H148.326ZM153.138 37.716V38.424H151.608V39.432H153.048V40.14H151.608V41.292H153.198V42H150.744V37.716H153.138ZM130.542 47.386L130.128 45.46H130.116L129.702 47.386H130.542ZM130.656 44.716L131.79 49H130.89L130.692 48.094H129.552L129.354 49H128.454L129.588 44.716H130.656ZM132.088 49V44.716H132.952V48.292H134.482V49H132.088ZM134.907 49V44.716H135.771V49H134.907ZM136.43 44.716H137.714L138.326 47.74H138.338L138.956 44.716H140.234V49H139.442V45.58H139.43L138.668 49H137.996L137.234 45.58H137.222V49H136.43V44.716ZM143.248 44.716V45.424H141.718V46.432H143.158V47.14H141.718V48.292H143.308V49H140.854V44.716H143.248ZM144.738 44.716L145.782 47.65H145.794V44.716H146.586V49H145.602L144.546 46H144.534V49H143.742V44.716H144.738ZM149.696 44.716V45.424H148.76V49H147.896V45.424H146.96V44.716H149.696ZM151.53 47.386L151.116 45.46H151.104L150.69 47.386H151.53ZM151.644 44.716L152.778 49H151.878L151.68 48.094H150.54L150.342 49H149.442L150.576 44.716H151.644ZM153.118 49V44.716H153.982V49H153.118ZM154.623 44.716H156.219C156.579 44.716 156.859 44.808 157.059 44.992C157.259 45.172 157.359 45.448 157.359 45.82C157.359 46.108 157.301 46.344 157.185 46.528C157.069 46.708 156.889 46.824 156.645 46.876V46.888C156.861 46.92 157.019 46.99 157.119 47.098C157.219 47.206 157.281 47.38 157.305 47.62C157.313 47.7 157.319 47.788 157.323 47.884C157.327 47.976 157.331 48.08 157.335 48.196C157.343 48.424 157.355 48.598 157.371 48.718C157.395 48.838 157.447 48.92 157.527 48.964V49H156.591C156.547 48.94 156.519 48.872 156.507 48.796C156.495 48.716 156.487 48.634 156.483 48.55L156.459 47.728C156.451 47.56 156.409 47.428 156.333 47.332C156.257 47.236 156.129 47.188 155.949 47.188H155.487V49H154.623V44.716ZM155.487 46.588H155.847C156.055 46.588 156.215 46.54 156.327 46.444C156.439 46.344 156.495 46.178 156.495 45.946C156.495 45.55 156.295 45.352 155.895 45.352H155.487V46.588ZM160.351 44.716V45.424H158.821V46.432H160.261V47.14H158.821V48.292H160.411V49H157.957V44.716H160.351Z" fill="#1C1C1B"/>
<path d="M142.185 31.5398V16.5411L150.05 15.1482V29.848L142.185 31.5398ZM138.768 16.113L139.733 18.3144C139.753 18.3586 139.787 18.396 139.828 18.4197L140.449 18.7561C140.483 18.7731 140.517 18.7832 140.555 18.7832C140.592 18.7832 140.633 18.7731 140.667 18.7493C140.731 18.7119 140.772 18.6406 140.772 18.5624V17.6452L141.418 16.9521V31.3699L138.768 29.9329V16.113ZM146.833 13.7792L148.022 14.2174L140.891 15.3928L139.729 14.8731L146.833 13.7792ZM140.772 16.1776L141.316 16.4222L140.772 17.0031V16.1776ZM140.334 15.9839V18.1955L140.103 18.0698L138.91 15.3453L140.334 15.9839ZM148.966 14.5605L141.852 15.8209L141.615 15.7156L148.857 14.5231L148.966 14.5605ZM150.807 14.6624C150.807 14.6251 150.797 14.5911 150.784 14.5537C150.78 14.5401 150.774 14.5299 150.767 14.5163C150.746 14.4756 150.719 14.4382 150.685 14.4076C150.682 14.4042 150.682 14.4008 150.678 14.3974H150.675C150.641 14.3703 150.604 14.3465 150.563 14.3329L147.003 13.025C146.941 13.0012 146.877 12.9944 146.812 13.0046L138.326 14.3125C138.275 14.3193 138.231 14.3397 138.19 14.3669C138.187 14.3669 138.18 14.3669 138.177 14.3703C138.17 14.3737 138.166 14.3839 138.16 14.3873C138.119 14.4178 138.085 14.4518 138.058 14.496C138.054 14.5028 138.051 14.5096 138.048 14.5129C138.027 14.5537 138.01 14.5945 138.003 14.642C138.003 14.6522 138.007 14.6624 138.007 14.676C138.007 14.6828 138 14.6862 138 14.693V30.1605C138 30.2998 138.078 30.4289 138.2 30.4968L141.618 32.3483C141.628 32.3517 141.635 32.3517 141.642 32.3551C141.693 32.3789 141.747 32.3959 141.801 32.3959C141.829 32.3959 141.856 32.3925 141.883 32.3891L150.512 30.5342C150.689 30.4968 150.814 30.3406 150.814 30.1605V14.693C150.814 14.6828 150.811 14.6726 150.807 14.6624Z" fill="#1C1C1B"/>
</g>
<defs>
<clipPath id="clip0_19_414">
<rect width="227" height="61" fill="white"/>
</clipPath>
</defs>
</svg>
