<svg width="227" height="61" viewBox="0 0 227 61" fill="none" xmlns="http://www.w3.org/2000/svg">
<g clip-path="url(#clip0_19_658)">
<path d="M24.8542 60.7916C11.2344 60.7916 0.15625 49.8385 0.15625 36.3801V0.317627H201.323C214.938 0.317627 226.016 11.2655 226.016 24.7239L226.021 60.7916" fill="white"/>
<path d="M201.323 5.98438H50.2708V36.3802C50.2708 46.7135 58.802 55.1198 69.2916 55.1198H220.349V24.724C220.349 14.3958 211.812 5.98438 201.323 5.98438Z" fill="white"/>
<path d="M218.458 53.2292H69.2916C59.8437 53.2292 52.1562 45.6719 52.1562 36.3802V7.875H201.323C210.771 7.875 218.458 15.4323 218.458 24.724V53.2292ZM201.323 5.98438H50.2708V36.3802C50.2708 46.7135 58.802 55.1198 69.2916 55.1198H220.349V24.724C220.349 14.3958 211.812 5.98438 201.323 5.98438Z" fill="#FCC42F"/>
<path d="M163.089 55.1198L176.099 28.5417L162.807 5.98438H201.323C211.812 5.98438 220.349 14.3906 220.349 24.724V55.1198" fill="#FCC42F"/>
<path d="M201.323 7.875H166.115L178.245 28.4583L166.12 53.2292H218.458V24.724C218.458 15.4323 210.771 7.875 201.323 7.875Z" fill="#FCC42F"/>
<path d="M206.281 41.6615H205.078C204.979 41.6615 204.885 41.6719 204.792 41.6875C205.354 35.4323 206.224 25.7708 206.646 21.3958C206.687 20.9531 206.359 20.5573 205.917 20.5156C205.463 20.4635 205.073 20.7969 205.031 21.2448C204.385 27.9635 202.677 47.1458 202.661 47.3385C202.63 47.6615 202.312 47.9271 201.943 47.9271H188.854C188.479 47.9271 188.167 47.6615 188.135 47.3385C188.12 47.1458 186.411 27.9635 185.765 21.2448C185.724 20.7969 185.333 20.4635 184.88 20.5156C184.437 20.5573 184.109 20.9531 184.151 21.3958C184.573 25.7708 185.443 35.4271 186.005 41.6875C185.911 41.6667 185.812 41.6562 185.719 41.6562H184.515C183.739 41.6562 183.104 42.2917 183.104 43.0677V48.1406C183.104 48.9167 183.739 49.5469 184.515 49.5469H185.719C186.297 49.5469 186.802 49.1927 187.015 48.6823C187.443 49.2135 188.104 49.5469 188.854 49.5469H201.943C202.687 49.5469 203.349 49.2135 203.781 48.6875C203.995 49.1927 204.495 49.5521 205.078 49.5521H206.281C207.057 49.5521 207.687 48.9219 207.687 48.1406V43.0677C207.687 42.2917 207.057 41.6615 206.281 41.6615Z" fill="#1C1C1B"/>
<path d="M190.344 25.1198V27.4115H191.016C191.411 27.4115 191.625 27.2292 191.625 26.6771V26.026C191.625 25.3333 191.401 25.1198 190.865 25.1198H190.344ZM190.344 22.0833V24.0521H190.802C191.24 24.0521 191.505 23.8646 191.505 23.2656V22.849C191.505 22.3125 191.323 22.0833 190.906 22.0833H190.344ZM192.677 22.7344V23C192.677 23.7656 192.443 24.2448 191.922 24.4896V24.5104C192.547 24.7604 192.797 25.3125 192.797 26.099V26.7083C192.797 27.8594 192.187 28.4792 191.016 28.4792H189.172V21.0156H190.938C192.156 21.0156 192.677 21.5833 192.677 22.7344Z" fill="#1C1C1B"/>
<path d="M194.833 26.1146H195.964L195.411 22.3385H195.385L194.833 26.1146ZM197.51 28.4792H196.328L196.125 27.125H194.688L194.479 28.4792H193.406L194.599 21.0156H196.313" fill="#1C1C1B"/>
<path d="M201.661 25.6926V26.6874C201.661 27.8801 201.062 28.5624 199.911 28.5624C198.76 28.5624 198.161 27.8801 198.161 26.6874V22.8072C198.161 21.6093 198.76 20.927 199.911 20.927C201.062 20.927 201.661 21.6093 201.661 22.8072V23.5312H200.552V22.7291C200.552 22.1978 200.318 21.9947 199.943 21.9947C199.573 21.9947 199.338 22.1978 199.338 22.7291V26.7603C199.338 27.2916 199.573 27.4843 199.943 27.4843C200.318 27.4843 200.552 27.2916 200.552 26.7603V25.6926" fill="#1C1C1B"/>
<path d="M192.703 31.2083V36.5365H193.365C193.734 36.5365 193.958 36.3438 193.958 35.8125V31.9323C193.958 31.401 193.734 31.2083 193.365 31.2083H192.703ZM191.531 30.1406H193.385C194.557 30.1406 195.13 30.7917 195.13 31.9844V35.7604C195.13 36.9531 194.557 37.6042 193.385 37.6042H191.531" fill="#1C1C1B"/>
<path d="M197.266 33.2865H198.875V34.349H197.266V36.5365H199.292V37.6042H196.094V30.1406H199.292V31.2031H197.266" fill="#1C1C1B"/>
<path d="M190.161 39.2656H193.786V40.3281H192.562V46.7292H191.385V40.3281H190.161" fill="#1C1C1B"/>
<path d="M195.688 40.3281V42.625H196.146C196.583 42.625 196.849 42.4323 196.849 41.8333V41.099C196.849 40.5677 196.667 40.3281 196.25 40.3281H195.688ZM196.969 46.7292C196.901 46.5365 196.859 46.4167 196.859 45.8125V44.6354C196.859 43.9479 196.625 43.6875 196.094 43.6875H195.688V46.7292H194.516V39.2656H196.286C197.5 39.2656 198.021 39.8281 198.021 40.9792V41.5677C198.021 42.3333 197.776 42.8229 197.255 43.0729V43.0938C197.839 43.3385 198.031 43.8906 198.031 44.6719V45.8229C198.031 46.1823 198.042 46.4531 198.161 46.7292" fill="#1C1C1B"/>
<path d="M199.016 46.7292H200.188V39.2656H199.016V46.7292Z" fill="#1C1C1B"/>
<path d="M207.125 17.6197H183.672V15.6666C183.672 15.5989 183.703 15.5676 183.698 15.5676H185.396C185.588 15.5676 185.771 15.4999 185.917 15.3697L188.047 13.5103C188.14 13.427 188.37 13.3437 188.661 13.3437H202.13C202.422 13.3437 202.656 13.427 202.75 13.5103L204.88 15.3697C205.026 15.4999 205.208 15.5676 205.401 15.5676H207.099C207.088 15.5676 207.125 15.5989 207.125 15.6666V17.6197ZM207.099 13.9791H205.698L203.792 12.3176C203.385 11.9583 202.781 11.7551 202.13 11.7551H188.661C188.015 11.7551 187.411 11.9583 187 12.3176L185.094 13.9791H183.698C182.807 13.9791 182.088 14.7395 182.088 15.6666V17.8124C182.088 18.1093 182.161 18.401 182.307 18.6614C182.37 18.7708 182.458 18.8697 182.562 18.9374C182.823 19.1093 183.12 19.1978 183.427 19.1978H207.37C207.677 19.1978 207.974 19.1093 208.234 18.9374C208.338 18.8697 208.427 18.7708 208.489 18.6614C208.63 18.401 208.708 18.1093 208.708 17.8124V15.6666C208.708 14.7395 207.984 13.9791 207.099 13.9791Z" fill="#1C1C1B"/>
<path d="M202.125 14.0781H188.667C188.297 14.0781 187.995 14.3802 187.995 14.75C187.995 15.1198 188.297 15.4219 188.667 15.4219H202.125C202.495 15.4219 202.797 15.1198 202.797 14.75C202.797 14.3802 202.495 14.0781 202.125 14.0781Z" fill="#1C1C1B"/>
<path d="M103.057 5.98438H50.2708V36.3802C50.2708 46.7135 58.802 55.1198 69.2916 55.1198H122.083V24.724C122.083 14.3958 113.547 5.98438 103.057 5.98438Z" fill="#FCC42F"/>
<path d="M63.8072 29.677C59.0051 29.677 55.1145 33.5676 55.1145 38.3697C55.1145 43.1718 59.0051 47.0624 63.8072 47.0624C68.6145 47.0624 72.5051 43.1718 72.5051 38.3697C72.5051 33.5676 68.6145 29.677 63.8072 29.677Z" fill="white"/>
<path d="M69.4792 39.7865H65.2292V44.0417H62.3906V39.7865H58.1406V36.9531H62.3906V32.7031H65.2292V36.9531H69.4792" fill="#1C1C1B"/>
<path d="M55.9426 26.9167V17.5156H58.427V24.8333H61.9843V26.9167" fill="#1C1C1B"/>
<path d="M63.0989 26.9167V17.5156H69.1718V19.599H65.5885V21.0729H68.651V23.1562H65.5885V24.8333H69.3176V26.9167" fill="#1C1C1B"/>
<path d="M75.2448 26.9167V19.599H72.7604V17.5156H80.2239V19.599H77.7343V26.9167" fill="#1C1C1B"/>
<path d="M83.7083 21.7969H84.6042C85.6042 21.7969 86.1094 21.3802 86.1094 20.5521C86.1094 20.1458 85.9792 19.8698 85.724 19.7135C85.4688 19.5573 85.0938 19.4792 84.6042 19.4792H83.7083V21.7969ZM81.2188 26.9167V17.5156H84.776C85.2813 17.5156 85.7604 17.5625 86.2188 17.6562C86.6771 17.7552 87.0729 17.9219 87.4167 18.151C87.7604 18.3802 88.0313 18.6927 88.2344 19.0833C88.4375 19.474 88.5365 19.9635 88.5365 20.5521C88.5365 21.2292 88.401 21.7865 88.125 22.2292C87.8542 22.6719 87.4844 23.0208 87.0208 23.2708L89.0573 26.9167H86.2812L84.6615 23.7604H83.7083V26.9167" fill="#1C1C1B"/>
<path d="M90.026 26.9167H92.5156V17.5156H90.026V26.9167Z" fill="#1C1C1B"/>
<path d="M75.5364 43.5937V34.1926H81.6666V36.276H78.026V38.0676H81.1458V40.151H78.026V43.5937" fill="#1C1C1B"/>
<path d="M85.0781 39.0208L84.9166 39.6718H86.651L86.4948 39.0208C86.3802 38.5676 86.2604 38.078 86.1458 37.5468C86.0312 37.0155 85.9166 36.5155 85.7968 36.0416H85.7395C85.6354 36.526 85.526 37.0312 85.4166 37.552C85.3073 38.078 85.1927 38.5676 85.0781 39.0208ZM81.4635 43.5937L84.3229 34.1926H87.3281L90.1927 43.5937H87.5625L87.0989 41.5989H84.4687L84.0052 43.5937" fill="#1C1C1B"/>
<path d="M94.7187 43.7656C94.1249 43.7656 93.552 43.6667 93.0103 43.4688C92.4635 43.2708 91.9895 42.974 91.578 42.5729C91.1666 42.1719 90.8385 41.6719 90.5989 41.0677C90.3593 40.4688 90.2395 39.7656 90.2395 38.9635C90.2395 38.1771 90.3645 37.474 90.6145 36.8594C90.8645 36.25 91.1978 35.7344 91.6197 35.3125C92.0364 34.8958 92.5208 34.5729 93.0676 34.349C93.6145 34.1302 94.1822 34.0156 94.7812 34.0156C95.4062 34.0156 95.9687 34.1406 96.4583 34.3854C96.953 34.6354 97.3645 34.9271 97.703 35.2604L96.401 36.8542C96.1718 36.651 95.9322 36.4844 95.6874 36.3542C95.4374 36.224 95.1562 36.1562 94.8385 36.1562C94.5572 36.1562 94.2968 36.2188 94.052 36.349C93.8072 36.474 93.5885 36.651 93.401 36.8802C93.2135 37.1146 93.0624 37.401 92.953 37.7344C92.8385 38.0729 92.7864 38.4531 92.7864 38.875C92.7864 39.7656 92.9687 40.4479 93.3437 40.9167C93.7135 41.3906 94.203 41.625 94.8072 41.625C95.177 41.625 95.4999 41.5469 95.7864 41.3854C96.0676 41.2292 96.3124 41.0365 96.5155 40.8177L97.8176 42.375C97.4114 42.8438 96.9478 43.1875 96.4218 43.4167C95.8958 43.651 95.328 43.7656 94.7187 43.7656Z" fill="#1C1C1B"/>
<path d="M98.776 43.5937H101.26V34.1926H98.776V43.5937Z" fill="#1C1C1B"/>
<path d="M103.031 43.5937V34.1926H105.521V41.5103H109.078V43.5937" fill="#1C1C1B"/>
<path d="M110.188 43.5937V34.1926H116.266V36.276H112.677V37.7499H115.745V39.8333H112.677V41.5103H116.411V43.5937" fill="#1C1C1B"/>
<path d="M28.5624 26.0625C26.8697 28.5521 28.3072 31.8281 30.052 33.4896C31.6458 35 32.9218 35.3594 33.0885 35.401L33.901 33.8438L36.2447 40.2552L29.6197 41.599L30.4999 39.9688L29.6041 39.4635C26.8124 37.6458 26.2239 35.1771 26.0312 34.4062C25.6978 33.0781 25.203 29.1094 28.5624 26.0625Z" fill="#1C1C1B"/>
<path d="M28.5312 26.1718C29.7344 28.927 33.2708 29.4635 35.6042 28.8697C37.6771 28.3437 38.6615 27.4895 38.8281 27.3333L38.8177 27.3176L37.9323 25.7864L44.599 27.2395L42.1875 33.5572L41.2917 31.9687L40.4219 32.4374C37.3958 33.828 34.9896 33.0103 34.2344 32.7603C32.9375 32.3333 29.3125 30.6353 28.5312 26.1718Z" fill="#1C1C1B"/>
<path d="M40.3177 19.5156C39.8541 22.8125 37.8698 24.3958 37.25 24.8958C36.1875 25.7552 32.802 27.8854 28.6198 26.1354C31.5937 26.6094 33.9531 23.9271 34.7135 21.6406C35.401 19.5885 35.1979 18.2917 35.1562 18.0885H35.1354L33.3698 18.0104L38.1823 13.1719L42.2083 18.6094L40.3906 18.5052" fill="#1C1C1B"/>
<path fill-rule="evenodd" clip-rule="evenodd" d="M20.0938 16.7291C18.5729 16.7291 17.3438 15.4999 17.3438 13.9791C17.3438 12.4583 18.5729 11.2239 20.0938 11.2239C21.6146 11.2239 22.849 12.4583 22.849 13.9791C22.849 15.4999 21.6146 16.7291 20.0938 16.7291Z" fill="#1C1C1B"/>
<path d="M15.8333 30.1146C16.0677 29.4688 16.4167 29.5104 16.4167 29.5104C16.4167 29.5104 16.7344 29.4427 16.9115 30.0938L19.4844 39.125C17.3385 38.5052 15.3802 37.4375 13.7135 36.0312L15.8333 30.1146ZM23.8594 5.98438C13.9167 5.98438 5.82812 14.0729 5.82812 24.0208C5.82812 33.9583 13.9167 42.0521 23.8594 42.0521C24.3906 42.0521 24.9115 42.0156 25.4323 41.9688L25.5521 43.7812L28.8542 40.5885L25.1615 37.776L25.3021 39.6771C24.8281 39.7188 24.3438 39.75 23.8594 39.75C23.0938 39.75 22.3438 39.6927 21.6094 39.5885L21.5365 39.1094L19.8229 24.5104C19.5885 21.7552 21.1615 21.3125 22.1354 21.7292L27.6042 23.9219C28.2292 24.1927 28.5312 23.6719 28.5312 23.6719C28.5312 23.6719 28.8854 23.1198 28.25 22.7135C28.25 22.7135 20.7969 17.776 19.2083 17.4792C17.0417 17.0729 14.8958 18.8281 14.4219 21.1146L11.776 34.0833C9.5 31.349 8.125 27.8438 8.125 24.0208C8.125 15.3438 15.1823 8.28646 23.8594 8.28646C28.4948 8.28646 32.6667 10.3021 35.5469 13.4948L37.1615 11.8594C33.8646 8.25 29.1198 5.98438 23.8594 5.98438Z" fill="#1C1C1B"/>
<path d="M133.875 43.216C133.875 42.8 133.824 42.4987 133.723 42.312C133.627 42.12 133.448 42.024 133.187 42.024C133.043 42.024 132.923 42.064 132.827 42.144C132.736 42.2187 132.664 42.344 132.611 42.52C132.558 42.6907 132.52 42.9173 132.499 43.2C132.478 43.4773 132.467 43.8187 132.467 44.224C132.467 44.656 132.48 45.0053 132.507 45.272C132.539 45.5387 132.584 45.7467 132.643 45.896C132.707 46.04 132.784 46.1387 132.875 46.192C132.971 46.24 133.08 46.264 133.203 46.264C133.304 46.264 133.398 46.248 133.483 46.216C133.574 46.1787 133.651 46.1093 133.715 46.008C133.779 45.9013 133.83 45.7547 133.867 45.568C133.904 45.376 133.923 45.1253 133.923 44.816H135.075C135.075 45.1253 135.051 45.4187 135.003 45.696C134.955 45.9733 134.864 46.216 134.731 46.424C134.603 46.632 134.419 46.7947 134.179 46.912C133.944 47.0293 133.638 47.088 133.259 47.088C132.827 47.088 132.483 47.0187 132.227 46.88C131.971 46.7413 131.774 46.5413 131.635 46.28C131.502 46.0187 131.414 45.7067 131.371 45.344C131.334 44.9813 131.315 44.5813 131.315 44.144C131.315 43.712 131.334 43.3147 131.371 42.952C131.414 42.584 131.502 42.2693 131.635 42.008C131.774 41.7467 131.971 41.544 132.227 41.4C132.483 41.2507 132.827 41.176 133.259 41.176C133.67 41.176 133.992 41.2427 134.227 41.376C134.467 41.5093 134.646 41.68 134.763 41.888C134.88 42.0907 134.952 42.312 134.979 42.552C135.011 42.7867 135.027 43.008 135.027 43.216H133.875ZM138.116 44.848L137.564 42.28H137.548L136.996 44.848H138.116ZM138.268 41.288L139.78 47H138.58L138.316 45.792H136.796L136.532 47H135.332L136.844 41.288H138.268ZM140.177 41.288H142.305C142.785 41.288 143.159 41.4107 143.425 41.656C143.692 41.896 143.825 42.264 143.825 42.76C143.825 43.144 143.748 43.4587 143.593 43.704C143.439 43.944 143.199 44.0987 142.873 44.168V44.184C143.161 44.2267 143.372 44.32 143.505 44.464C143.639 44.608 143.721 44.84 143.753 45.16C143.764 45.2667 143.772 45.384 143.777 45.512C143.783 45.6347 143.788 45.7733 143.793 45.928C143.804 46.232 143.82 46.464 143.841 46.624C143.873 46.784 143.943 46.8933 144.049 46.952V47H142.801C142.743 46.92 142.705 46.8293 142.689 46.728C142.673 46.6213 142.663 46.512 142.657 46.4L142.625 45.304C142.615 45.08 142.559 44.904 142.457 44.776C142.356 44.648 142.185 44.584 141.945 44.584H141.329V47H140.177V41.288ZM141.329 43.784H141.809C142.087 43.784 142.3 43.72 142.449 43.592C142.599 43.4587 142.673 43.2373 142.673 42.928C142.673 42.4 142.407 42.136 141.873 42.136H141.329V43.784ZM147.826 41.288V42.232H146.578V47H145.426V42.232H144.178V41.288H147.826ZM149.358 44.144C149.358 44.528 149.366 44.856 149.382 45.128C149.403 45.3947 149.44 45.6133 149.494 45.784C149.552 45.9493 149.632 46.072 149.734 46.152C149.84 46.2267 149.979 46.264 150.15 46.264C150.32 46.264 150.456 46.2267 150.558 46.152C150.664 46.072 150.744 45.9493 150.798 45.784C150.856 45.6133 150.894 45.3947 150.91 45.128C150.931 44.856 150.942 44.528 150.942 44.144C150.942 43.76 150.931 43.4347 150.91 43.168C150.894 42.9013 150.856 42.6827 150.798 42.512C150.744 42.3413 150.664 42.2187 150.558 42.144C150.456 42.064 150.32 42.024 150.15 42.024C149.979 42.024 149.84 42.064 149.734 42.144C149.632 42.2187 149.552 42.3413 149.494 42.512C149.44 42.6827 149.403 42.9013 149.382 43.168C149.366 43.4347 149.358 43.76 149.358 44.144ZM148.206 44.144C148.206 43.712 148.224 43.3147 148.262 42.952C148.304 42.584 148.392 42.2693 148.526 42.008C148.664 41.7467 148.862 41.544 149.118 41.4C149.374 41.2507 149.718 41.176 150.15 41.176C150.582 41.176 150.926 41.2507 151.182 41.4C151.438 41.544 151.632 41.7467 151.766 42.008C151.904 42.2693 151.992 42.584 152.03 42.952C152.072 43.3147 152.094 43.712 152.094 44.144C152.094 44.5813 152.072 44.9813 152.03 45.344C151.992 45.7067 151.904 46.0187 151.766 46.28C151.632 46.5413 151.438 46.7413 151.182 46.88C150.926 47.0187 150.582 47.088 150.15 47.088C149.718 47.088 149.374 47.0187 149.118 46.88C148.862 46.7413 148.664 46.5413 148.526 46.28C148.392 46.0187 148.304 45.7067 148.262 45.344C148.224 44.9813 148.206 44.5813 148.206 44.144ZM154.099 41.288L155.491 45.2H155.507V41.288H156.563V47H155.251L153.843 43H153.827V47H152.771V41.288H154.099Z" fill="#1C1C1B"/>
<path d="M145.55 18.2414L148.092 15.3591L155.896 17.4924L153.237 20.9008L145.55 18.2414ZM149.887 29.186L145.802 25.8661L153.48 22.4282L157.334 25.1297L149.887 29.186ZM145.194 35.3968L145.163 26.8423L149.469 30.3432C149.648 30.4905 149.921 30.5157 150.13 30.4021L152.589 29.064L152.646 30.8018L145.194 35.3968ZM139.114 30.4231C139.323 30.5283 139.588 30.4989 139.771 30.3516L143.968 26.8591L143.999 35.5062L136.49 31.7949L136.481 29.0682L139.114 30.4231ZM143.316 25.8871L139.327 29.2071L131.684 25.2643L135.534 22.5545L143.316 25.8871ZM144.303 25.0708L136.755 21.8391L144.264 19.1293L144.303 25.0708ZM145.02 24.9656L144.981 19.2471L152.211 21.7508L145.02 24.9656ZM135.812 20.9681L133.022 17.4798L140.818 15.2118L143.494 18.1994L135.812 20.9681ZM158.76 24.7299L154.206 21.5404L157.348 17.5135C157.465 17.362 157.495 17.1684 157.434 16.9917C157.374 16.815 157.226 16.6761 157.039 16.6256L148.048 14.1683C147.831 14.1093 147.588 14.1809 147.444 14.345L144.542 17.6397L141.452 14.1935C141.304 14.0294 141.057 13.9579 140.844 14.0252L131.871 16.6298C131.684 16.6845 131.54 16.8234 131.48 17.0001C131.423 17.1769 131.458 17.3746 131.575 17.5219L134.86 21.6245L130.237 24.8856C130.076 24.9992 129.985 25.1844 130.002 25.3821C130.015 25.5757 130.132 25.7482 130.311 25.8408L135.308 28.4202L135.316 32.1442C135.321 32.3588 135.443 32.5523 135.638 32.6491L144.32 36.9369C144.403 36.979 144.49 36.9832 144.572 37H144.594C144.616 37 144.633 36.9916 144.655 36.9874C144.707 36.9832 144.759 36.9748 144.807 36.9579C144.82 36.9537 144.829 36.9495 144.842 36.9453C144.872 36.9327 144.902 36.9243 144.928 36.9074L153.554 31.5845C153.728 31.4793 153.832 31.29 153.823 31.0922L153.737 28.3865L158.703 25.6851C158.877 25.5883 158.986 25.4158 158.999 25.2223C159.012 25.0287 158.921 24.8435 158.76 24.7299Z" fill="#1C1C1B"/>
</g>
<defs>
<clipPath id="clip0_19_658">
<rect width="227" height="61" fill="white"/>
</clipPath>
</defs>
</svg>
