<svg width="433" height="71" viewBox="0 0 433 71" fill="none" xmlns="http://www.w3.org/2000/svg">
<g clip-path="url(#clip0_26_19386)">
<path d="M432.141 70.3698H83.5573C76.6354 70.3698 71 64.7396 71 57.8125V8.61462H419.589C426.51 8.61462 432.141 14.25 432.141 21.1719V70.3698ZM73.4844 11.099V57.8125C73.4844 63.3698 78.0052 67.8855 83.5573 67.8855H429.661V21.1719C429.661 15.6198 425.141 11.099 419.589 11.099" fill="#AC348E"/>
<path d="M154.109 69.276H88.448C71.0782 69.0052 72.1928 57.3385 72.2397 47.0781V10H154.109L163.724 37.1406C164.297 38.7552 164.297 40.5208 163.724 42.1354" fill="#AC348E"/>
<path d="M95.0209 8.33329C95.0209 12.1979 90.1772 15.3281 84.2084 15.3281C78.2397 15.3281 73.4011 12.1979 73.4011 8.33329C73.4011 4.46871 78.2397 1.3385 84.2084 1.3385C90.1772 1.3385 95.0209 4.46871 95.0209 8.33329Z" fill="white"/>
<path d="M84.2083 15.7448C78.0208 15.7448 72.9895 12.4219 72.9895 8.33337C72.9895 4.25004 78.0208 0.927124 84.2083 0.927124C90.3958 0.927124 95.4322 4.25004 95.4322 8.33337C95.4322 12.4219 90.3958 15.7448 84.2083 15.7448ZM84.2083 1.75525C78.4791 1.75525 73.8176 4.70837 73.8176 8.33337C73.8176 11.9636 78.4791 14.9167 84.2083 14.9167C89.9426 14.9167 94.6041 11.9636 94.6041 8.33337C94.6041 4.70837 89.9426 1.75525 84.2083 1.75525Z" fill="#AC348E"/>
<path d="M79.9688 5.85413H83.6094V6.66142H80.9688V8.18746H83.4531V8.99996H80.9688V11.427H79.9688" fill="#AC348E"/>
<path d="M89.0365 11.427H87.9688L87.2605 9.57288C87.198 9.401 87.099 9.28121 86.9688 9.2135C86.8386 9.14579 86.6667 9.10933 86.4584 9.10933H85.4532V11.427H84.448V5.85413H86.8386C87.4688 5.85413 87.948 5.98954 88.2761 6.27079C88.6042 6.54683 88.7709 6.94267 88.7709 7.45829C88.7709 7.82808 88.672 8.14579 88.474 8.401C88.2813 8.66142 88.0053 8.84371 87.6407 8.95308C87.9688 9.02079 88.2084 9.24996 88.3542 9.64058L89.0365 11.427ZM86.6928 8.32808C87.073 8.32808 87.3595 8.25517 87.5417 8.11975C87.724 7.97392 87.8178 7.76038 87.8178 7.47392C87.8178 7.19267 87.724 6.98433 87.5417 6.84371C87.3647 6.70308 87.0834 6.63538 86.6928 6.63538H85.4324V8.32808" fill="#AC348E"/>
<path d="M29.1546 5C36.5036 5.13542 43.3421 8.02083 48.988 13.7292C49.3578 14.1042 49.3838 14.3438 48.9828 14.7083C48.4151 15.2083 47.889 15.75 47.3838 16.3177C47.0609 16.6823 46.863 16.6719 46.5192 16.3125C43.8474 13.5052 40.6963 11.401 37.0453 10.0781C32.3369 8.36979 27.5348 8.0625 22.6598 9.25521C16.1703 10.8385 11.1026 14.4635 7.49318 20.0573C4.0661 25.3698 2.90464 31.2083 3.89943 37.4479C4.55568 41.5573 6.21714 45.25 8.7536 48.5469C8.82652 48.6458 8.89423 48.75 8.98277 48.8333C9.09735 48.9375 9.22756 49.026 9.35256 49.125C9.40985 48.9792 9.49839 48.8438 9.52443 48.6927C10.0557 46.1562 10.5765 43.6198 11.0973 41.0833C11.8265 37.5312 12.5609 33.974 13.2744 30.4167C13.5609 28.974 13.7953 27.5156 14.6546 26.2708C16.1807 24.0677 18.1911 22.6823 20.9567 23.1615C22.1651 23.3698 23.3369 24.0104 24.4151 24.651C28.0453 26.8073 31.6234 29.0469 35.2171 31.2656C35.9307 31.7083 36.1182 32.1771 35.8578 32.7188C35.5765 33.3021 35.0088 33.4583 34.2224 33.1458C31.5505 32.0833 28.8421 31.0938 26.2276 29.9115C23.9776 28.8958 22.2067 30.1823 22.0817 32.5365C22.0192 33.7083 22.1442 34.901 22.2744 36.0729C22.7432 40.2917 23.2588 44.5052 23.7536 48.7188C24.0921 51.5938 24.4411 54.4688 24.764 57.349C24.8213 57.8177 25.0192 58.0625 25.488 58.0677C27.0921 58.1042 28.7067 58.125 30.3161 58.1562C30.7015 58.1615 30.7901 57.9427 30.7588 57.599C30.7067 56.9688 30.6703 56.3385 30.6338 55.7083C30.6286 55.599 30.6911 55.4896 30.7171 55.3854C30.8109 55.4219 30.9151 55.4375 30.9932 55.4948C32.6494 56.75 34.3057 58.0104 35.9619 59.2708C36.238 59.4792 36.1911 59.6406 35.9671 59.8542C34.4984 61.2656 33.0296 62.6875 31.5609 64.099C31.4828 64.1771 31.363 64.2083 31.2588 64.2604C31.2276 64.1458 31.1755 64.0312 31.1651 63.9167C31.113 63.3698 31.0401 62.8177 31.0401 62.2708C31.0401 61.7656 30.8369 61.6562 30.3682 61.6927C26.9255 61.9792 23.5453 61.6042 20.264 60.5781C12.8526 58.2656 7.22756 53.7031 3.46193 46.9115C0.857766 42.2083 -0.324526 37.1146 0.0765158 31.7656C0.842141 21.5885 5.71193 13.8646 14.5036 8.69271C18.8005 6.16146 23.5088 5.03125 29.1546 5ZM21.5401 57.0625C21.4463 56.6979 21.3942 56.4792 21.3317 56.2656C20.4463 53.151 19.5609 50.0365 18.6703 46.9219C18.264 45.5104 17.863 44.099 17.4098 42.7083C17.3265 42.4427 16.9984 42.0938 16.7796 42.0885C16.5036 42.0833 16.2067 42.375 15.9567 42.5833C15.8421 42.6771 15.8057 42.8646 15.7484 43.0208C14.7015 45.9323 13.6703 48.8542 12.5973 51.7552C12.4203 52.2448 12.5453 52.4948 12.9098 52.7812C14.7484 54.2292 16.7328 55.4271 18.8942 56.3177C19.5869 56.6042 20.3057 56.8542 21.0192 57.0938C21.1651 57.1406 21.3526 57.0781 21.5401 57.0625Z" fill="#AC348E"/>
<path d="M36.9203 37.0104C41.764 36.8125 45.337 32.2395 46.1442 27.8281C46.3317 26.8125 46.363 25.7656 46.4411 24.7291C46.4828 24.2135 46.2484 23.9427 45.6859 23.9635C45.1963 23.9843 44.7067 23.9427 44.2172 23.9218C44.0765 23.9114 43.9463 23.8645 43.8109 23.8333C43.8838 23.7031 43.9307 23.5416 44.0349 23.4375C45.3995 22.0573 46.7692 20.6927 48.139 19.3177C49.014 18.4375 49.8995 17.5573 50.7692 16.6666C51.0088 16.4218 51.1495 16.401 51.3734 16.7031C53.2588 19.2656 55.1651 21.8125 57.0557 24.3698C57.1234 24.4635 57.1599 24.5833 57.2067 24.6875C57.0765 24.7187 56.9463 24.7812 56.8161 24.7812C56.2849 24.7656 55.7536 24.7604 55.2276 24.6979C54.7276 24.6406 54.5401 24.7916 54.514 25.3125C54.4151 27.427 53.8161 29.401 52.738 31.2239C49.712 36.3541 43.0349 38.9531 37.3474 37.2031C37.2015 37.1562 37.0609 37.0729 36.9203 37.0104Z" fill="#AC348E"/>
<path d="M35.3787 37.1041C33.4777 41.2083 35.561 45.6927 38.087 48.1979C39.3423 49.4427 40.7589 50.4635 42.3995 51.1614C42.9048 51.375 43.1808 51.2864 43.3943 50.7812C43.5766 50.3541 43.8058 49.9427 44.035 49.5312C44.1079 49.401 44.2433 49.3125 44.3475 49.2031C44.4152 49.3229 44.5037 49.4323 44.5506 49.5573C45.4725 52.0677 46.3891 54.5729 47.3058 57.0833C47.4777 57.5416 47.6183 58.0104 47.8162 58.4583C47.9933 58.8437 47.8891 59 47.4881 59.0833C45.5245 59.4687 43.5714 59.8698 41.6131 60.2656C40.5714 60.4739 39.535 60.6927 38.4933 60.8958C38.2798 60.9375 38.0558 60.927 37.837 60.9427C37.8995 60.7448 37.9464 60.5312 38.035 60.3437C38.2225 59.9583 38.3839 59.552 38.6443 59.2135C39.0766 58.6458 38.8214 58.3906 38.3006 58.1198C36.4725 57.1718 35.0037 55.8073 33.8318 54.1198C30.4048 49.2031 30.8891 42.0156 34.9412 37.6145C35.0923 37.4479 35.2329 37.276 35.3787 37.1041Z" fill="#AC348E"/>
<path d="M36.0974 37.651C36.9464 38.7396 37.9099 39.6563 39.1391 40.2656C42.1026 41.7188 45.1599 41.7917 48.2276 40.7083C49.3891 40.2969 50.4672 39.651 51.5766 39.099C52.0766 38.849 52.1755 38.5104 51.8266 38.0208C51.5193 37.5937 51.2797 37.1094 51.0245 36.6458C50.9776 36.5573 50.988 36.4323 50.9724 36.3229C51.0714 36.3229 51.1703 36.3125 51.2641 36.3333C54.4307 37.026 57.5922 37.724 60.7589 38.4062C61.1495 38.4896 61.1547 38.6406 61.0349 38.9531C59.8891 41.9167 58.7485 44.8854 57.6078 47.8542C57.5662 47.9583 57.488 48.0469 57.4255 48.1458C57.3422 48.0677 57.2276 48.0052 57.1755 47.9062C56.8891 47.4167 56.5922 46.9271 56.337 46.4115C56.1287 45.9844 55.8995 45.9323 55.4828 46.1719C53.1755 47.5156 50.6755 48.0156 48.0193 47.8333C42.5245 47.4479 37.4516 43.2187 36.1235 37.8802C36.1078 37.8073 36.1026 37.724 36.0974 37.651Z" fill="#AC348E"/>
<path d="M18.2224 17.5781C18.2224 15.1927 20.1703 13.2344 22.5401 13.2448C24.8891 13.2552 26.811 15.1875 26.8214 17.5521C26.8318 19.9375 24.8787 21.8958 22.5037 21.8854C20.1547 21.875 18.2276 19.9323 18.2224 17.5781Z" fill="#AC348E"/>
<path d="M88.0771 36.1074C87.6084 36.1074 87.1624 36.0277 86.7393 35.8682C86.3161 35.7054 85.9385 35.4743 85.6064 35.1748C85.2744 34.8753 85.0091 34.4912 84.8105 34.0225C84.6152 33.5505 84.5176 33.0264 84.5176 32.4502C84.5176 31.9684 84.5827 31.5241 84.7129 31.1172C84.8464 30.707 85.0254 30.3604 85.25 30.0771C85.4746 29.7907 85.735 29.5465 86.0312 29.3447C86.3275 29.1429 86.64 28.9948 86.9688 28.9004C87.2975 28.806 87.6344 28.7588 87.9795 28.7588C88.9105 28.7588 89.7015 29.0143 90.3525 29.5254L89.8691 30.3896C89.3288 30.0153 88.7331 29.8281 88.082 29.8281C87.7793 29.8281 87.4912 29.8883 87.2178 30.0088C86.9476 30.1292 86.7083 30.2985 86.5 30.5166C86.2917 30.7347 86.1257 31.0098 86.002 31.3418C85.8783 31.6738 85.8164 32.0384 85.8164 32.4355C85.8164 33.2201 86.0378 33.8499 86.4805 34.3252C86.9232 34.8005 87.4831 35.0381 88.1602 35.0381C88.873 35.0381 89.5273 34.7988 90.123 34.3203L90.5381 35.3018C89.848 35.8389 89.0277 36.1074 88.0771 36.1074ZM91.9395 36V28.8906H93.1797V31.8154H96.5146V28.8906H97.7549V36H96.5391V32.8896H93.2041V36H91.9395ZM101.246 33.1094H103.15C102.776 31.9993 102.462 31.0765 102.208 30.3408C101.996 30.9561 101.676 31.8789 101.246 33.1094ZM98.7461 36L101.603 28.8906H102.862L105.743 36H104.342L103.653 34.2666H100.782L100.108 36H98.7461ZM109.493 36.1123C109.037 36.1123 108.637 36.057 108.292 35.9463C107.947 35.8356 107.669 35.6908 107.457 35.5117C107.249 35.3294 107.079 35.1048 106.949 34.8379C106.819 34.5677 106.729 34.2926 106.681 34.0127C106.632 33.7327 106.607 33.4202 106.607 33.0752V28.8906H107.848V33.1289C107.848 33.4219 107.875 33.6807 107.931 33.9053C107.986 34.1299 108.061 34.3138 108.155 34.457C108.253 34.6003 108.372 34.7174 108.512 34.8086C108.655 34.8997 108.805 34.9632 108.961 34.999C109.12 35.0348 109.296 35.0527 109.488 35.0527C109.736 35.0527 109.954 35.0218 110.143 34.96C110.335 34.8981 110.507 34.7972 110.66 34.6572C110.813 34.514 110.93 34.3138 111.012 34.0566C111.093 33.7995 111.134 33.4886 111.134 33.124V28.8906H112.374V33.0801C112.374 33.4219 112.351 33.7311 112.306 34.0078C112.26 34.2845 112.172 34.5579 112.042 34.8281C111.915 35.0983 111.747 35.3245 111.539 35.5068C111.331 35.6891 111.052 35.8356 110.704 35.9463C110.359 36.057 109.955 36.1123 109.493 36.1123ZM116.222 36.1123C115.733 36.1123 115.263 36.0407 114.811 35.8975C114.358 35.7542 114.002 35.5557 113.741 35.3018L114.269 34.4131C114.5 34.5921 114.799 34.7435 115.167 34.8672C115.538 34.9909 115.864 35.0527 116.144 35.0527C116.583 35.0527 116.907 34.9714 117.115 34.8086C117.327 34.6458 117.433 34.3984 117.433 34.0664C117.433 33.9362 117.423 33.832 117.403 33.7539C117.384 33.6725 117.34 33.5895 117.271 33.5049C117.203 33.417 117.101 33.3372 116.964 33.2656C116.83 33.1908 116.65 33.1126 116.422 33.0312C116.324 32.9987 116.158 32.945 115.924 32.8701C115.693 32.7952 115.523 32.7383 115.416 32.6992C114.83 32.4779 114.405 32.2174 114.142 31.918C113.878 31.6152 113.746 31.2067 113.746 30.6924C113.746 30.2757 113.855 29.9193 114.073 29.623C114.295 29.3268 114.588 29.1087 114.952 28.9688C115.317 28.8288 115.733 28.7588 116.202 28.7588C116.837 28.7588 117.33 28.8206 117.682 28.9443C118.033 29.068 118.365 29.2796 118.678 29.5791L118.043 30.3994C117.643 30.0186 117.088 29.8281 116.378 29.8281C115.991 29.8281 115.675 29.8949 115.431 30.0283C115.19 30.1618 115.069 30.3652 115.069 30.6387C115.069 30.7721 115.081 30.8828 115.104 30.9707C115.126 31.0553 115.174 31.14 115.245 31.2246C115.32 31.306 115.426 31.3825 115.562 31.4541C115.699 31.5225 115.882 31.5973 116.109 31.6787C116.191 31.708 116.36 31.765 116.617 31.8496C116.878 31.931 117.071 31.9961 117.198 32.0449C117.778 32.276 118.181 32.5413 118.409 32.8408C118.637 33.1403 118.751 33.557 118.751 34.0908C118.751 34.4456 118.681 34.7581 118.541 35.0283C118.401 35.2952 118.211 35.5052 117.97 35.6582C117.729 35.8112 117.462 35.9251 117.169 36C116.876 36.0749 116.56 36.1123 116.222 36.1123ZM122.354 36.1123C121.866 36.1123 121.396 36.0407 120.943 35.8975C120.491 35.7542 120.134 35.5557 119.874 35.3018L120.401 34.4131C120.632 34.5921 120.932 34.7435 121.3 34.8672C121.671 34.9909 121.996 35.0527 122.276 35.0527C122.716 35.0527 123.04 34.9714 123.248 34.8086C123.46 34.6458 123.565 34.3984 123.565 34.0664C123.565 33.9362 123.556 33.832 123.536 33.7539C123.517 33.6725 123.473 33.5895 123.404 33.5049C123.336 33.417 123.233 33.3372 123.097 33.2656C122.963 33.1908 122.783 33.1126 122.555 33.0312C122.457 32.9987 122.291 32.945 122.057 32.8701C121.826 32.7952 121.656 32.7383 121.549 32.6992C120.963 32.4779 120.538 32.2174 120.274 31.918C120.011 31.6152 119.879 31.2067 119.879 30.6924C119.879 30.2757 119.988 29.9193 120.206 29.623C120.427 29.3268 120.72 29.1087 121.085 28.9688C121.45 28.8288 121.866 28.7588 122.335 28.7588C122.97 28.7588 123.463 28.8206 123.814 28.9443C124.166 29.068 124.498 29.2796 124.811 29.5791L124.176 30.3994C123.775 30.0186 123.22 29.8281 122.511 29.8281C122.123 29.8281 121.808 29.8949 121.563 30.0283C121.323 30.1618 121.202 30.3652 121.202 30.6387C121.202 30.7721 121.214 30.8828 121.236 30.9707C121.259 31.0553 121.306 31.14 121.378 31.2246C121.453 31.306 121.559 31.3825 121.695 31.4541C121.832 31.5225 122.014 31.5973 122.242 31.6787C122.324 31.708 122.493 31.765 122.75 31.8496C123.01 31.931 123.204 31.9961 123.331 32.0449C123.91 32.276 124.314 32.5413 124.542 32.8408C124.77 33.1403 124.884 33.557 124.884 34.0908C124.884 34.4456 124.814 34.7581 124.674 35.0283C124.534 35.2952 124.343 35.5052 124.103 35.6582C123.862 35.8112 123.595 35.9251 123.302 36C123.009 36.0749 122.693 36.1123 122.354 36.1123ZM129.547 36.1123C128.437 36.1123 127.561 35.7786 126.92 35.1113C126.282 34.4408 125.963 33.5407 125.963 32.4111C125.963 31.3109 126.284 30.4271 126.925 29.7598C127.569 29.0924 128.448 28.7588 129.562 28.7588C130.639 28.7588 131.495 29.0924 132.13 29.7598C132.768 30.4238 133.087 31.3076 133.087 32.4111C133.087 33.5439 132.773 34.444 132.145 35.1113C131.516 35.7786 130.65 36.1123 129.547 36.1123ZM129.518 35.0527C130.243 35.0527 130.795 34.8249 131.173 34.3691C131.55 33.9102 131.739 33.2575 131.739 32.4111C131.739 31.5908 131.55 30.9544 131.173 30.502C130.795 30.0462 130.25 29.8184 129.537 29.8184C128.818 29.8184 128.264 30.0462 127.877 30.502C127.493 30.9544 127.301 31.5908 127.301 32.4111C127.301 33.2607 127.488 33.9134 127.862 34.3691C128.237 34.8249 128.788 35.0527 129.518 35.0527ZM134.537 36V28.8906H135.851C138.11 32.1654 139.312 33.9102 139.459 34.125V28.8906H140.641V36H139.322C137.138 32.8457 135.925 31.0977 135.685 30.7559V36H134.537ZM144.61 36.1123C144.122 36.1123 143.652 36.0407 143.199 35.8975C142.747 35.7542 142.39 35.5557 142.13 35.3018L142.657 34.4131C142.888 34.5921 143.188 34.7435 143.556 34.8672C143.927 34.9909 144.252 35.0527 144.532 35.0527C144.972 35.0527 145.296 34.9714 145.504 34.8086C145.715 34.6458 145.821 34.3984 145.821 34.0664C145.821 33.9362 145.812 33.832 145.792 33.7539C145.772 33.6725 145.729 33.5895 145.66 33.5049C145.592 33.417 145.489 33.3372 145.353 33.2656C145.219 33.1908 145.038 33.1126 144.811 33.0312C144.713 32.9987 144.547 32.945 144.312 32.8701C144.081 32.7952 143.912 32.7383 143.805 32.6992C143.219 32.4779 142.794 32.2174 142.53 31.918C142.267 31.6152 142.135 31.2067 142.135 30.6924C142.135 30.2757 142.244 29.9193 142.462 29.623C142.683 29.3268 142.976 29.1087 143.341 28.9688C143.705 28.8288 144.122 28.7588 144.591 28.7588C145.226 28.7588 145.719 28.8206 146.07 28.9443C146.422 29.068 146.754 29.2796 147.066 29.5791L146.432 30.3994C146.031 30.0186 145.476 29.8281 144.767 29.8281C144.379 29.8281 144.063 29.8949 143.819 30.0283C143.578 30.1618 143.458 30.3652 143.458 30.6387C143.458 30.7721 143.469 30.8828 143.492 30.9707C143.515 31.0553 143.562 31.14 143.634 31.2246C143.709 31.306 143.814 31.3825 143.951 31.4541C144.088 31.5225 144.27 31.5973 144.498 31.6787C144.579 31.708 144.749 31.765 145.006 31.8496C145.266 31.931 145.46 31.9961 145.587 32.0449C146.166 32.276 146.57 32.5413 146.798 32.8408C147.026 33.1403 147.14 33.557 147.14 34.0908C147.14 34.4456 147.07 34.7581 146.93 35.0283C146.79 35.2952 146.599 35.5052 146.358 35.6582C146.118 35.8112 145.851 35.9251 145.558 36C145.265 36.0749 144.949 36.1123 144.61 36.1123ZM84.9277 51V43.8906H86.9102C88.3327 43.8906 89.3955 44.1934 90.0986 44.7988C90.8018 45.401 91.1533 46.2686 91.1533 47.4014C91.1533 48.5765 90.8083 49.4701 90.1182 50.082C89.4313 50.694 88.4287 51 87.1104 51H84.9277ZM86.168 49.9355H87.1738C88.0332 49.9355 88.6924 49.7207 89.1514 49.291C89.6104 48.8613 89.8398 48.2298 89.8398 47.3965C89.8398 46.6055 89.6071 46.0016 89.1416 45.585C88.6794 45.165 87.973 44.9551 87.0225 44.9551H86.168V49.9355ZM92.2227 46.7715L92.7012 43.8906H94.0684L93.1113 46.7715H92.2227ZM95.6895 51V43.8906H100.177V44.9551H96.9297V46.8545H100.001V47.9238H96.9443V49.9355H100.318V51H95.6895ZM103.907 51.1123C103.419 51.1123 102.949 51.0407 102.496 50.8975C102.044 50.7542 101.687 50.5557 101.427 50.3018L101.954 49.4131C102.185 49.5921 102.485 49.7435 102.853 49.8672C103.224 49.9909 103.549 50.0527 103.829 50.0527C104.269 50.0527 104.592 49.9714 104.801 49.8086C105.012 49.6458 105.118 49.3984 105.118 49.0664C105.118 48.9362 105.108 48.832 105.089 48.7539C105.069 48.6725 105.025 48.5895 104.957 48.5049C104.889 48.417 104.786 48.3372 104.649 48.2656C104.516 48.1908 104.335 48.1126 104.107 48.0312C104.01 47.9987 103.844 47.945 103.609 47.8701C103.378 47.7952 103.209 47.7383 103.102 47.6992C102.516 47.4779 102.091 47.2174 101.827 46.918C101.563 46.6152 101.432 46.2067 101.432 45.6924C101.432 45.2757 101.541 44.9193 101.759 44.623C101.98 44.3268 102.273 44.1087 102.638 43.9688C103.002 43.8288 103.419 43.7588 103.888 43.7588C104.522 43.7588 105.016 43.8206 105.367 43.9443C105.719 44.068 106.051 44.2796 106.363 44.5791L105.729 45.3994C105.328 45.0186 104.773 44.8281 104.063 44.8281C103.676 44.8281 103.36 44.8949 103.116 45.0283C102.875 45.1618 102.755 45.3652 102.755 45.6387C102.755 45.7721 102.766 45.8828 102.789 45.9707C102.812 46.0553 102.859 46.14 102.931 46.2246C103.006 46.306 103.111 46.3825 103.248 46.4541C103.385 46.5225 103.567 46.5973 103.795 46.6787C103.876 46.708 104.046 46.765 104.303 46.8496C104.563 46.931 104.757 46.9961 104.884 47.0449C105.463 47.276 105.867 47.5413 106.095 47.8408C106.323 48.1403 106.437 48.557 106.437 49.0908C106.437 49.4456 106.367 49.7581 106.227 50.0283C106.087 50.2952 105.896 50.5052 105.655 50.6582C105.414 50.8112 105.147 50.9251 104.854 51C104.562 51.0749 104.246 51.1123 103.907 51.1123ZM111.075 51.1074C110.606 51.1074 110.16 51.0277 109.737 50.8682C109.314 50.7054 108.937 50.4743 108.604 50.1748C108.272 49.8753 108.007 49.4912 107.809 49.0225C107.613 48.5505 107.516 48.0264 107.516 47.4502C107.516 46.9684 107.581 46.5241 107.711 46.1172C107.844 45.707 108.023 45.3604 108.248 45.0771C108.473 44.7907 108.733 44.5465 109.029 44.3447C109.326 44.1429 109.638 43.9948 109.967 43.9004C110.296 43.806 110.632 43.7588 110.978 43.7588C111.909 43.7588 112.7 44.0143 113.351 44.5254L112.867 45.3896C112.327 45.0153 111.731 44.8281 111.08 44.8281C110.777 44.8281 110.489 44.8883 110.216 45.0088C109.946 45.1292 109.706 45.2985 109.498 45.5166C109.29 45.7347 109.124 46.0098 109 46.3418C108.876 46.6738 108.814 47.0384 108.814 47.4355C108.814 48.2201 109.036 48.8499 109.479 49.3252C109.921 49.8005 110.481 50.0381 111.158 50.0381C111.871 50.0381 112.525 49.7988 113.121 49.3203L113.536 50.3018C112.846 50.8389 112.026 51.1074 111.075 51.1074ZM116.568 48.1094H118.473C118.098 46.9993 117.784 46.0765 117.53 45.3408C117.319 45.9561 116.998 46.8789 116.568 48.1094ZM114.068 51L116.925 43.8906H118.185L121.065 51H119.664L118.976 49.2666H116.104L115.431 51H114.068ZM122.057 51V43.8906H123.297V49.9355H126.588V51H122.057ZM129.42 48.1094H131.324C130.95 46.9993 130.636 46.0765 130.382 45.3408C130.17 45.9561 129.85 46.8789 129.42 48.1094ZM126.92 51L129.776 43.8906H131.036L133.917 51H132.516L131.827 49.2666H128.956L128.282 51H126.92ZM134.908 51V43.8906H136.891C138.313 43.8906 139.376 44.1934 140.079 44.7988C140.782 45.401 141.134 46.2686 141.134 47.4014C141.134 48.5765 140.789 49.4701 140.099 50.082C139.412 50.694 138.409 51 137.091 51H134.908ZM136.148 49.9355H137.154C138.014 49.9355 138.673 49.7207 139.132 49.291C139.591 48.8613 139.82 48.2298 139.82 47.3965C139.82 46.6055 139.588 46.0016 139.122 45.585C138.66 45.165 137.953 44.9551 137.003 44.9551H136.148V49.9355ZM142.584 51V43.8906H147.071V44.9551H143.824V46.8545H146.896V47.9238H143.839V49.9355H147.213V51H142.584Z" fill="white"/>
<path d="M247.908 68.795H248.314V10.2118H247.908V68.795Z" fill="#AC348E"/>
<path d="M257.435 39.5C257.435 42.8344 253.26 45.5383 248.111 45.5383C242.962 45.5383 238.78 42.8344 238.78 39.5C238.78 36.1656 242.962 33.4686 248.111 33.4686C253.26 33.4686 257.435 36.1656 257.435 39.5Z" fill="#AC348E"/>
<path d="M244.356 41.8746C244.02 41.6785 243.754 41.3983 243.572 41.034C243.39 40.6698 243.299 40.2425 243.299 39.7451C243.299 39.2548 243.39 38.8275 243.572 38.4632C243.754 38.0919 244.013 37.8187 244.349 37.6226C244.686 37.4264 245.085 37.3284 245.547 37.3284C246.01 37.3284 246.402 37.4264 246.745 37.6226C247.081 37.8187 247.341 38.0919 247.516 38.4632C247.698 38.8275 247.789 39.2548 247.789 39.7451C247.789 40.2425 247.698 40.6698 247.516 41.034C247.334 41.3983 247.074 41.6785 246.738 41.8746C246.402 42.0708 246.01 42.1689 245.547 42.1689C245.092 42.1689 244.693 42.0708 244.356 41.8746ZM246.57 41.041C246.808 40.7398 246.934 40.3055 246.934 39.7451C246.934 39.1847 246.808 38.7574 246.57 38.4632C246.325 38.162 245.982 38.0149 245.547 38.0149C245.106 38.0149 244.77 38.162 244.525 38.4562C244.279 38.7574 244.16 39.1847 244.16 39.7451C244.16 40.3055 244.279 40.7398 244.525 41.041C244.77 41.3353 245.106 41.4894 245.547 41.4894C245.982 41.4894 246.325 41.3353 246.57 41.041Z" fill="white"/>
<path d="M249.141 41.6716C248.805 41.3353 248.637 40.845 248.637 40.2005V37.3915H249.477V40.2495C249.477 40.6558 249.575 40.9641 249.764 41.1742C249.953 41.3844 250.234 41.4894 250.612 41.4894C250.976 41.4894 251.263 41.3844 251.453 41.1672C251.642 40.9571 251.74 40.6488 251.74 40.2495V37.3915H252.58V40.2005C252.58 40.845 252.412 41.3283 252.076 41.6646C251.74 42.0008 251.256 42.1689 250.612 42.1689C249.96 42.1689 249.47 42.0078 249.141 41.6716Z" fill="white"/>
<path d="M344.949 68.9912H345.348V10.408H344.949V68.9912Z" fill="#AC348E"/>
<path d="M354.476 39.703C354.476 43.0304 350.301 45.7344 345.152 45.7344C339.996 45.7344 335.821 43.0304 335.821 39.703C335.821 36.3686 339.996 33.6647 345.152 33.6647C350.301 33.6647 354.476 36.3686 354.476 39.703Z" fill="#AC348E"/>
<path d="M341.397 42.0778C341.061 41.8746 340.795 41.6014 340.613 41.2302C340.431 40.8659 340.339 40.4386 340.339 39.9412C340.339 39.4509 340.431 39.0236 340.613 38.6593C340.788 38.295 341.054 38.0148 341.39 37.8187C341.726 37.6296 342.126 37.5315 342.588 37.5315C343.05 37.5315 343.443 37.6296 343.786 37.8187C344.122 38.0148 344.381 38.295 344.557 38.6593C344.739 39.0236 344.83 39.4509 344.83 39.9412C344.83 40.4386 344.739 40.8659 344.557 41.2302C344.374 41.6014 344.115 41.8746 343.779 42.0778C343.443 42.2739 343.05 42.372 342.588 42.372C342.133 42.372 341.733 42.2739 341.397 42.0778ZM343.611 41.2372C343.849 40.9359 343.975 40.5016 343.975 39.9412C343.975 39.3878 343.849 38.9605 343.611 38.6593C343.366 38.3581 343.022 38.211 342.588 38.211C342.147 38.211 341.811 38.3581 341.565 38.6593C341.32 38.9535 341.201 39.3808 341.201 39.9412C341.201 40.5016 341.32 40.9359 341.565 41.2372C341.811 41.5384 342.147 41.6855 342.588 41.6855C343.022 41.6855 343.366 41.5384 343.611 41.2372Z" fill="white"/>
<path d="M346.175 41.8677C345.845 41.5315 345.677 41.0481 345.677 40.4037V37.5876H346.518V40.4457C346.518 40.852 346.616 41.1602 346.805 41.3704C346.994 41.5805 347.281 41.6856 347.653 41.6856C348.024 41.6856 348.304 41.5805 348.493 41.3704C348.682 41.1532 348.781 40.852 348.781 40.4457V37.5876H349.621V40.4037C349.621 41.0411 349.453 41.5315 349.117 41.8677C348.781 42.204 348.297 42.3721 347.653 42.3721C347.001 42.3721 346.511 42.204 346.175 41.8677Z" fill="white"/>
<path d="M364.024 48.7606H366.272C366.882 48.7606 367.407 48.8657 367.841 49.0899C368.29 49.307 368.626 49.6222 368.857 50.0355C369.095 50.4488 369.214 50.9392 369.214 51.5066C369.214 52.074 369.095 52.5714 368.864 52.9847C368.633 53.405 368.297 53.7202 367.855 53.9374C367.414 54.1545 366.889 54.2666 366.272 54.2666H364.024V48.7606ZM366.167 53.1038C366.706 53.1038 367.113 52.9707 367.372 52.7115C367.645 52.4453 367.771 52.039 367.771 51.5066C367.771 50.4488 367.239 49.9165 366.167 49.9165H365.474V53.1038" fill="#231F20"/>
<path d="M370.062 48.7608H373.999V49.8746H371.477V50.9113H373.831V52.0251H371.477V53.1529H373.999V54.2667H370.062V48.7608ZM371.743 48.2844L372.549 47.0656H373.803L372.584 48.2844H371.743Z" fill="#231F20"/>
<path d="M375.925 53.9864C375.498 53.7482 375.176 53.419 374.945 52.9917C374.713 52.5643 374.601 52.067 374.601 51.5066C374.601 50.9462 374.713 50.4558 374.945 50.0285C375.176 49.6012 375.498 49.279 375.925 49.0408C376.353 48.8096 376.85 48.6906 377.424 48.6906C377.782 48.6906 378.132 48.7466 378.475 48.8517C378.811 48.9637 379.085 49.1109 379.288 49.293L378.846 50.3227C378.398 49.9935 377.936 49.8324 377.452 49.8324C377.011 49.8324 376.668 49.9725 376.43 50.2527C376.192 50.5399 376.079 50.9532 376.079 51.5066C376.079 52.06 376.192 52.4803 376.43 52.7675C376.668 53.0477 377.011 53.1948 377.452 53.1948C377.936 53.1948 378.398 53.0267 378.846 52.7044L379.288 53.7342C379.085 53.9163 378.811 54.0634 378.475 54.1755C378.132 54.2806 377.782 54.3366 377.424 54.3366C376.85 54.3366 376.353 54.2175 375.925 53.9864Z" fill="#231F20"/>
<path d="M385.123 48.7606V54.2666H383.701V52.039H381.473V54.2666H380.044V48.7606H381.473V50.9042H383.701V48.7606" fill="#231F20"/>
<path d="M386.11 48.7608H390.047V49.8746H387.525V50.9113H389.879V52.0251H387.525V53.1529H390.047V54.2667H386.11V48.7608ZM386.573 47.0656H387.834L388.632 48.2844H387.792L386.573 47.0656Z" fill="#231F20"/>
<path d="M392.156 49.9375H390.517V48.7606H395.266V49.9375H393.627V54.2666H392.156" fill="#231F20"/>
<path d="M395.855 48.7606H399.784V49.8744H397.27V50.9112H399.623V52.025H397.27V53.1528H399.784V54.2666H395.855" fill="#231F20"/>
<path d="M405.318 54.2666H403.777L403.07 52.4313C402.986 52.2281 402.79 52.123 402.488 52.123H401.963V54.2666H400.527V48.7606H403.091C403.756 48.7606 404.254 48.9007 404.59 49.1879C404.926 49.4751 405.094 49.8814 405.094 50.4138C405.094 50.7851 404.996 51.1073 404.793 51.3735C404.597 51.6467 404.317 51.8428 403.959 51.9549C404.114 51.9829 404.254 52.06 404.373 52.1721C404.499 52.2842 404.597 52.4383 404.667 52.6274L405.318 54.2666ZM403.532 50.8972C403.672 50.7991 403.742 50.652 403.742 50.4558C403.742 50.2457 403.672 50.0916 403.532 49.9935C403.399 49.9024 403.175 49.8604 402.86 49.8604H401.942V51.0373H402.86C403.168 51.0373 403.392 50.9952 403.532 50.8972Z" fill="#231F20"/>
<path d="M406.054 54.2666H407.511V48.7606H406.054V54.2666Z" fill="#231F20"/>
<path d="M408.499 48.7606H412.429V49.8744H409.914V50.9112H412.268V52.025H409.914V53.1528H412.429V54.2666H408.499" fill="#231F20"/>
<path d="M385.102 27.8367V27.8851L385.157 27.8367" fill="#231F20"/>
<path d="M388.464 32.67L388.471 32.677L388.492 31.2059" fill="#231F20"/>
<path d="M388.464 39.3599V31.234L388.38 31.3391C388.121 31.6683 387.638 31.6473 387.252 31.6543C387.063 31.6543 386.692 31.4862 386.517 31.4021L385.102 33.1254V39.3599H383.168L384.941 41.1952L386.72 43.0235L388.492 41.1952L390.264 39.3599" fill="#231F20"/>
<path d="M384.633 28.3548L385.102 27.8925V27.8855" fill="#231F20"/>
<path d="M385.158 27.8366L385.851 27.1501L385.844 27.1431L385.158 27.8366Z" fill="#231F20"/>
<path d="M385.157 27.8367L385.102 27.8851V27.892L385.157 27.8367Z" fill="#231F20"/>
<path d="M397.179 34.085L395.904 35.3599L390.237 29.6928L389.886 29.3356L389.564 29.7419L388.759 31.0028L388.661 32.8661L393.529 37.7346L392.163 39.1076L394.713 39.1426L397.2 39.1847V35.3529" fill="#231F20"/>
<path d="M387.869 27.3253L386.944 26.4006L386.769 26.2395L385.851 27.1502L385.158 27.8367L385.102 27.8927L384.632 28.355L383.694 29.2937H383.701L377.697 35.297L376.422 34.0221L376.401 35.4161V39.1148L378.895 39.0798L380.044 39.0587L381.445 39.0377L380.317 37.9099L380.072 37.6717L385.102 32.6351L386.223 31.2061C385.956 30.9609 385.907 30.5616 385.914 30.2184C385.921 29.9592 386.012 29.7 386.181 29.4758L386.272 29.3638L387.014 28.4111L387.539 27.7386L387.82 27.3743" fill="#231F20"/>
<path d="M387.007 31.2129L387.035 31.1919C387 31.1778 386.965 31.1638 386.937 31.1428" fill="#231F20"/>
<path d="M391.413 30.6106L390.145 29.2026L390.398 28.6982L390.412 28.6772L390.517 28.7823L390.419 28.6772C390.622 28.474 390.643 28.46 390.93 28.355L391.133 28.2849L391.413 30.6106ZM390.496 29.1535L391.007 29.7209L390.888 28.6912C390.783 28.7332 390.748 28.7613 390.643 28.8733" fill="#231F20"/>
<path d="M392.527 31.178C392.317 31.178 392.114 31.1009 391.946 30.9678C391.749 30.8067 391.623 30.5755 391.588 30.3233V30.3163L391.343 28.2008L393.214 27.3812L393.459 30.0992C393.522 30.6246 393.151 31.1079 392.639 31.171C392.604 31.178 392.562 31.178 392.527 31.178ZM391.883 30.2883C391.904 30.4635 391.995 30.6246 392.128 30.7366C392.268 30.8487 392.436 30.8978 392.604 30.8767C392.954 30.8347 393.207 30.4985 393.165 30.1342L392.954 27.8155L391.665 28.3829" fill="#231F20"/>
<path d="M387.357 31.4231C387.203 31.4231 387.056 31.3881 386.909 31.3251C386.867 31.3111 386.832 31.29 386.797 31.269L386.769 31.248L386.398 30.8767C386.166 30.4775 386.202 29.9731 386.489 29.5948L388.814 26.5126C388.443 26.1483 388.345 25.714 388.282 25.3077C388.254 25.1046 388.261 24.6983 388.296 24.0959C387.224 24.4111 386.769 24.5582 386.699 24.6002C386.685 24.6072 386.678 24.6142 386.671 24.6212L386.678 24.6423L385.991 26.1904L385.956 26.7928L383.883 28.7192L383.82 28.474C383.729 28.1448 383.442 27.038 383.442 26.8629C383.442 26.6737 383.596 26.3305 383.624 26.2604C383.869 25.63 385.116 22.4427 385.284 22.2045C385.452 21.9733 385.606 21.7842 385.9 21.5951C386.166 21.4269 386.622 21.1677 386.643 21.1537L386.657 21.1467L395.385 17.5111H395.413C396.457 17.5111 397.55 17.9174 398.397 18.6319C399.301 19.3885 399.798 20.3622 399.798 21.3709V21.462L397.326 22.933C397.34 23.2412 397.326 23.4794 397.277 23.6475C397.241 23.7526 397.213 23.8577 397.185 23.9628C397.087 24.3691 396.989 24.7613 396.429 25.3217C395.735 26.0152 394.713 26.5897 394.061 26.8348C393.858 26.9049 393.459 27.052 393.003 27.2271L390.741 28.0747L390.482 28.1938L388.282 30.9538C388.051 31.255 387.708 31.4231 387.357 31.4231ZM386.958 31.0239C386.986 31.0379 387.007 31.0449 387.028 31.0589C387.385 31.213 387.806 31.1009 388.044 30.7717L390.299 27.9556L390.629 27.7945L392.898 26.9469C393.354 26.7788 393.753 26.6317 393.956 26.5546C394.601 26.3165 395.588 25.742 396.219 25.1116C396.723 24.6072 396.807 24.278 396.898 23.8927C396.926 23.7876 396.954 23.6756 396.989 23.5565C397.024 23.4584 397.052 23.2553 397.024 22.863L397.01 22.7719L399.504 21.2868C399.441 19.3324 397.305 17.8193 395.441 17.8053L386.783 21.4199C386.72 21.455 386.3 21.6931 386.054 21.8472C385.802 22.0013 385.683 22.1625 385.529 22.3796C385.41 22.5477 384.464 24.9225 383.897 26.3795C383.827 26.5266 383.743 26.7718 383.743 26.8629C383.743 26.9539 383.89 27.5564 384.044 28.1658L385.662 26.6597L385.697 26.1203L386.363 24.6212C386.363 24.5512 386.398 24.4601 386.524 24.355C386.566 24.327 386.657 24.257 388.415 23.7526L388.618 23.6966L388.604 23.9067C388.555 24.5792 388.548 25.0626 388.576 25.2587C388.646 25.735 388.751 26.0643 389.067 26.3515L389.214 26.4846L386.727 29.777C386.517 30.0502 386.482 30.4144 386.65 30.7086" fill="#231F20"/>
<path d="M284.544 48.9358V54.4418H283.276L283.269 51.9199L282.226 54.4418H281.301L280.25 51.955V54.4418H278.989V48.9358H280.124L281.777 52.6975L283.409 48.9358" fill="#231F20"/>
<path d="M289.273 53.3069H286.828L286.338 54.4418H284.88L287.458 48.9358H288.607L291.192 54.4418H289.756L289.273 53.3069ZM288.803 52.2142L288.047 50.4769L287.297 52.2142" fill="#231F20"/>
<path d="M296.25 51.3315V54.0985C295.956 54.2316 295.626 54.3367 295.262 54.4067C294.898 54.4768 294.527 54.5118 294.148 54.5118C293.546 54.5118 293.028 54.3997 292.586 54.1756C292.145 53.9444 291.809 53.6222 291.571 53.1948C291.332 52.7745 291.213 52.2632 291.213 51.6818C291.213 51.1143 291.332 50.617 291.571 50.1967C291.809 49.7694 292.145 49.4401 292.579 49.209C293.007 48.9778 293.518 48.8657 294.092 48.8657C294.492 48.8657 294.863 48.9148 295.22 49.0198C295.57 49.1249 295.858 49.265 296.082 49.4471L295.626 50.4769C295.374 50.3088 295.129 50.1897 294.891 50.1196C294.66 50.0426 294.408 50.0075 294.141 50.0075C293.651 50.0075 293.287 50.1406 293.042 50.4208C292.803 50.694 292.684 51.1143 292.684 51.6818C292.684 52.2702 292.81 52.7115 293.063 52.9917C293.308 53.2719 293.693 53.412 294.218 53.412C294.457 53.412 294.702 53.391 294.947 53.342V52.3192H293.987V51.3315" fill="#231F20"/>
<path d="M300.887 53.3069H298.442L297.952 54.4418H296.502L299.073 48.9358H300.222L302.806 54.4418H301.377L300.887 53.3069ZM300.418 52.2142L299.661 50.4769L298.912 52.2142" fill="#231F20"/>
<path d="M303.808 54.3507C303.409 54.2456 303.08 54.0985 302.827 53.9094L303.283 52.8796C303.556 53.0477 303.836 53.1808 304.137 53.2719C304.446 53.363 304.747 53.405 305.048 53.405C305.356 53.405 305.594 53.363 305.763 53.2789C305.924 53.1948 306.008 53.0758 306.008 52.9216C306.008 52.7815 305.938 52.6695 305.784 52.5784C305.636 52.4873 305.356 52.3963 304.943 52.3122C304.418 52.2071 304.018 52.081 303.724 51.9269C303.437 51.7728 303.234 51.5977 303.122 51.3875C303.003 51.1844 302.946 50.9322 302.946 50.638C302.946 50.3018 303.038 50.0005 303.234 49.7273C303.423 49.4541 303.689 49.244 304.032 49.0899C304.383 48.9428 304.775 48.8657 305.216 48.8657C305.615 48.8657 306.001 48.9218 306.379 49.0338C306.75 49.1459 307.044 49.286 307.255 49.4682L306.806 50.4979C306.561 50.3298 306.309 50.1967 306.043 50.1056C305.77 50.0216 305.503 49.9725 305.237 49.9725C304.971 49.9725 304.761 50.0216 304.6 50.1266C304.439 50.2247 304.361 50.3578 304.361 50.5259C304.361 50.624 304.39 50.701 304.446 50.7641C304.502 50.8271 304.607 50.8832 304.761 50.9462C304.915 51.0023 305.153 51.0653 305.461 51.1354C305.959 51.2404 306.358 51.3735 306.638 51.5206C306.925 51.6747 307.128 51.8499 307.248 52.06C307.367 52.2632 307.423 52.5084 307.423 52.7886C307.423 53.3279 307.213 53.7482 306.799 54.0565C306.379 54.3577 305.791 54.5118 305.034 54.5118C304.621 54.5118 304.214 54.4628 303.808 54.3507Z" fill="#231F20"/>
<path d="M308.236 54.4418H309.693V48.9358H308.236V54.4418Z" fill="#231F20"/>
<path d="M315.612 48.9358V54.4418H314.533L312.039 51.3175V54.4418H310.68V48.9358H311.745L314.239 52.046V48.9358" fill="#231F20"/>
<path d="M306.141 21.3569H288.439C288.131 21.3569 287.886 21.1047 287.886 20.7965C287.886 20.4883 288.131 20.2361 288.439 20.2361H306.141C306.449 20.2361 306.694 20.4883 306.694 20.7965C306.694 21.1047 306.449 21.3569 306.141 21.3569Z" fill="#231F20"/>
<path d="M309.104 28.2359H285.504C285.301 28.2359 285.105 28.1308 285.007 27.9557C284.909 27.7805 284.895 27.5634 285 27.3882L289.084 20.6354C289.238 20.3692 289.588 20.2921 289.847 20.4462C290.106 20.6074 290.197 20.9506 290.036 21.2098L286.471 27.1221H308.116L304.551 21.2098C304.39 20.9506 304.474 20.6074 304.74 20.4462C304.992 20.2921 305.342 20.3692 305.503 20.6354L309.58 27.3882C309.685 27.5634 309.685 27.7805 309.587 27.9557C309.489 28.1308 309.3 28.2359 309.104 28.2359Z" fill="#231F20"/>
<path d="M287.858 30.6245C286.24 30.6245 284.93 29.3146 284.93 27.7034C284.93 27.3882 285.182 27.136 285.497 27.136C285.805 27.136 286.058 27.3882 286.058 27.7034C286.058 28.6911 286.863 29.4967 287.858 29.4967C288.839 29.4967 289.651 28.6911 289.651 27.7034C289.651 27.3882 289.903 27.136 290.211 27.136C290.52 27.136 290.772 27.3882 290.772 27.7034C290.772 29.3146 289.462 30.6245 287.858 30.6245Z" fill="#231F20"/>
<path d="M292.572 30.6245C290.961 30.6245 289.644 29.3146 289.644 27.7034C289.644 27.3882 289.903 27.136 290.211 27.136C290.52 27.136 290.772 27.3882 290.772 27.7034C290.772 28.6911 291.577 29.4967 292.572 29.4967C293.56 29.4967 294.365 28.6911 294.365 27.7034C294.365 27.3882 294.618 27.136 294.933 27.136C295.241 27.136 295.493 27.3882 295.493 27.7034C295.493 29.3146 294.183 30.6245 292.572 30.6245Z" fill="#231F20"/>
<path d="M297.294 30.6245C295.682 30.6245 294.365 29.3146 294.365 27.7034C294.365 27.3882 294.618 27.136 294.933 27.136C295.241 27.136 295.493 27.3882 295.493 27.7034C295.493 28.6911 296.299 29.4967 297.294 29.4967C298.281 29.4967 299.087 28.6911 299.087 27.7034C299.087 27.3882 299.339 27.136 299.647 27.136C299.963 27.136 300.215 27.3882 300.215 27.7034C300.215 29.3146 298.905 30.6245 297.294 30.6245Z" fill="#231F20"/>
<path d="M302.008 30.6245C300.397 30.6245 299.087 29.3146 299.087 27.7034C299.087 27.3882 299.339 27.136 299.647 27.136C299.962 27.136 300.214 27.3882 300.214 27.7034C300.214 28.6911 301.02 29.4967 302.008 29.4967C303.002 29.4967 303.808 28.6911 303.808 27.7034C303.808 27.3882 304.06 27.136 304.368 27.136C304.677 27.136 304.929 27.3882 304.929 27.7034C304.929 29.3146 303.619 30.6245 302.008 30.6245Z" fill="#231F20"/>
<path d="M306.729 30.6245C305.118 30.6245 303.808 29.3146 303.808 27.7034C303.808 27.3882 304.06 27.136 304.369 27.136C304.677 27.136 304.929 27.3882 304.929 27.7034C304.929 28.6911 305.735 29.4967 306.729 29.4967C307.717 29.4967 308.523 28.6911 308.523 27.7034C308.523 27.3882 308.775 27.136 309.09 27.136C309.398 27.136 309.65 27.3882 309.65 27.7034C309.65 29.3146 308.34 30.6245 306.729 30.6245Z" fill="#231F20"/>
<path d="M306.884 42.9816H287.697C287.388 42.9816 287.136 42.7294 287.136 42.4211V30.0642C287.136 29.749 287.388 29.4968 287.697 29.4968C288.012 29.4968 288.264 29.749 288.264 30.0642V41.8607H306.323V30.0782C306.323 29.77 306.575 29.5178 306.884 29.5178C307.192 29.5178 307.451 29.77 307.451 30.0782V42.4211C307.451 42.7294 307.192 42.9816 306.884 42.9816Z" fill="#231F20"/>
<path d="M295.458 42.8624C295.15 42.8624 294.891 42.6102 294.891 42.302V29.1675C294.891 28.8523 295.15 28.6001 295.458 28.6001C295.767 28.6001 296.019 28.8523 296.019 29.1675V42.302C296.019 42.6102 295.767 42.8624 295.458 42.8624Z" fill="#231F20"/>
<path d="M293.399 37.2724C293.09 37.2724 292.838 37.0202 292.838 36.705V32.593C292.838 32.2848 293.09 32.0326 293.399 32.0326C293.707 32.0326 293.966 32.2848 293.966 32.593V36.705C293.966 37.0202 293.707 37.2724 293.399 37.2724Z" fill="#231F20"/>
<path d="M300.025 36.5858C299.885 36.5858 299.738 36.5298 299.633 36.4177C299.409 36.2006 299.409 35.8433 299.633 35.6262L303.283 31.9695C303.507 31.7454 303.864 31.7454 304.081 31.9695C304.298 32.1867 304.298 32.5439 304.081 32.7611L300.425 36.4177C300.313 36.5298 300.172 36.5858 300.025 36.5858Z" fill="#231F20"/>
<path d="M301.63 38.4141C301.482 38.4141 301.335 38.3581 301.23 38.246C301.006 38.0288 301.006 37.6716 301.23 37.4544L303.402 35.2829C303.619 35.0587 303.976 35.0587 304.193 35.2829C304.418 35.5 304.418 35.8573 304.193 36.0744L302.029 38.246C301.917 38.3581 301.77 38.4141 301.63 38.4141Z" fill="#231F20"/>
<path d="M178.32 53.1318H175.875L175.385 54.2666H173.928L176.506 48.7606H177.647L180.232 54.2666H178.803L178.32 53.1318ZM177.843 52.039L177.094 50.2947L176.344 52.039" fill="#231F20"/>
<path d="M181.241 54.1755C180.842 54.0634 180.512 53.9163 180.26 53.7342L180.715 52.7044C180.982 52.8726 181.269 53.0057 181.57 53.0967C181.871 53.1878 182.179 53.2298 182.481 53.2298C182.789 53.2298 183.027 53.1878 183.195 53.1037C183.356 53.0197 183.44 52.8936 183.44 52.7395C183.44 52.5994 183.363 52.4873 183.216 52.4032C183.069 52.3122 182.782 52.2211 182.369 52.13C181.85 52.032 181.444 51.8989 181.157 51.7448C180.87 51.5976 180.666 51.4155 180.547 51.2124C180.435 51.0022 180.379 50.757 180.379 50.4628C180.379 50.1266 180.47 49.8254 180.659 49.5522C180.856 49.279 181.122 49.0688 181.465 48.9147C181.815 48.7606 182.208 48.6906 182.649 48.6906C183.048 48.6906 183.433 48.7466 183.805 48.8517C184.183 48.9708 184.47 49.1109 184.687 49.293L184.239 50.3227C183.994 50.1476 183.742 50.0215 183.468 49.9304C183.202 49.8394 182.936 49.7974 182.663 49.7974C182.404 49.7974 182.193 49.8464 182.032 49.9445C181.871 50.0495 181.787 50.1826 181.787 50.3507C181.787 50.4418 181.822 50.5189 181.878 50.5819C181.934 50.645 182.039 50.708 182.193 50.764C182.348 50.8271 182.579 50.8901 182.887 50.9532C183.391 51.0653 183.784 51.1914 184.071 51.3455C184.358 51.4996 184.561 51.6747 184.68 51.8779C184.799 52.088 184.855 52.3262 184.855 52.6134C184.855 53.1528 184.645 53.5661 184.232 53.8743C183.812 54.1825 183.223 54.3366 182.467 54.3366C182.053 54.3366 181.64 54.2806 181.241 54.1755Z" fill="#231F20"/>
<path d="M186.438 54.1755C186.039 54.0634 185.71 53.9163 185.458 53.7342L185.913 52.7044C186.186 52.8726 186.466 53.0057 186.768 53.0967C187.069 53.1878 187.377 53.2298 187.678 53.2298C187.987 53.2298 188.225 53.1878 188.393 53.1037C188.554 53.0197 188.638 52.8936 188.638 52.7395C188.638 52.5994 188.561 52.4873 188.414 52.4032C188.267 52.3122 187.987 52.2211 187.573 52.13C187.048 52.032 186.642 51.8989 186.361 51.7448C186.067 51.5976 185.864 51.4155 185.745 51.2124C185.633 51.0022 185.577 50.757 185.577 50.4628C185.577 50.1266 185.668 49.8254 185.864 49.5522C186.053 49.279 186.319 49.0688 186.663 48.9147C187.013 48.7606 187.405 48.6906 187.853 48.6906C188.246 48.6906 188.631 48.7466 189.002 48.8517C189.381 48.9708 189.675 49.1109 189.885 49.293L189.437 50.3227C189.198 50.1476 188.939 50.0215 188.673 49.9304C188.4 49.8394 188.134 49.7974 187.867 49.7974C187.601 49.7974 187.391 49.8464 187.23 49.9445C187.069 50.0495 186.992 50.1826 186.992 50.3507C186.992 50.4418 187.02 50.5189 187.076 50.5819C187.132 50.645 187.237 50.708 187.391 50.764C187.552 50.8271 187.783 50.8901 188.092 50.9532C188.589 51.0653 188.981 51.1914 189.268 51.3455C189.556 51.4996 189.759 51.6747 189.878 51.8779C189.997 52.088 190.053 52.3262 190.053 52.6134C190.053 53.1528 189.843 53.5661 189.43 53.8743C189.009 54.1825 188.421 54.3366 187.664 54.3366C187.251 54.3366 186.845 54.2806 186.438 54.1755Z" fill="#231F20"/>
<path d="M192.022 53.9934C191.601 53.7622 191.279 53.433 191.055 53.0057C190.831 52.5784 190.719 52.074 190.719 51.5066C190.719 50.9322 190.831 50.4348 191.062 50.0145C191.286 49.5872 191.608 49.265 192.022 49.0338C192.442 48.8026 192.932 48.6906 193.493 48.6906C194.053 48.6906 194.544 48.8026 194.957 49.0338C195.37 49.265 195.692 49.5872 195.909 50.0145C196.134 50.4348 196.246 50.9322 196.246 51.5066C196.246 52.074 196.134 52.5784 195.909 53.0057C195.692 53.433 195.37 53.7622 194.957 53.9934C194.544 54.2245 194.053 54.3366 193.493 54.3366C192.932 54.3366 192.442 54.2245 192.022 53.9934ZM194.459 52.7885C194.698 52.4943 194.817 52.067 194.817 51.5066C194.817 50.9462 194.698 50.5259 194.459 50.2317C194.228 49.9375 193.906 49.7974 193.493 49.7974C193.079 49.7974 192.757 49.9375 192.526 50.2317C192.295 50.5189 192.176 50.9462 192.176 51.5066C192.176 52.074 192.295 52.5013 192.526 52.7955C192.757 53.0827 193.079 53.2298 193.493 53.2298C193.906 53.2298 194.228 53.0827 194.459 52.7885Z" fill="#231F20"/>
<path d="M198.277 53.9864C197.85 53.7482 197.521 53.419 197.296 52.9917C197.065 52.5643 196.946 52.067 196.946 51.5066C196.946 50.9462 197.065 50.4558 197.296 50.0285C197.521 49.6012 197.85 49.279 198.277 49.0408C198.704 48.8096 199.202 48.6906 199.776 48.6906C200.133 48.6906 200.484 48.7466 200.82 48.8517C201.163 48.9637 201.429 49.1109 201.64 49.293L201.198 50.3227C200.75 49.9935 200.288 49.8324 199.804 49.8324C199.363 49.8324 199.02 49.9725 198.781 50.2527C198.543 50.5399 198.424 50.9532 198.424 51.5066C198.424 52.06 198.543 52.4803 198.781 52.7675C199.02 53.0477 199.363 53.1948 199.804 53.1948C200.288 53.1948 200.75 53.0267 201.198 52.7044L201.64 53.7342C201.429 53.9163 201.163 54.0634 200.82 54.1755C200.484 54.2806 200.133 54.3366 199.776 54.3366C199.202 54.3366 198.704 54.2175 198.277 53.9864Z" fill="#231F20"/>
<path d="M202.396 54.2666H203.853V48.7606H202.396V54.2666Z" fill="#231F20"/>
<path d="M208.561 53.1318H206.116L205.626 54.2666H204.168L206.746 48.7606H207.895L210.473 54.2666H209.044L208.561 53.1318ZM208.084 52.039L207.335 50.2947L206.585 52.039" fill="#231F20"/>
<path d="M211.314 49.9375H209.674V48.7606H214.424V49.9375H212.785V54.2666H211.314" fill="#231F20"/>
<path d="M215.012 54.2666H216.462V48.7606H215.012V54.2666Z" fill="#231F20"/>
<path d="M218.606 53.9934C218.192 53.7622 217.87 53.433 217.646 53.0057C217.422 52.5784 217.31 52.074 217.31 51.5066C217.31 50.9322 217.422 50.4348 217.646 50.0145C217.877 49.5872 218.199 49.265 218.613 49.0338C219.026 48.8026 219.516 48.6906 220.077 48.6906C220.637 48.6906 221.128 48.8026 221.548 49.0338C221.961 49.265 222.276 49.5872 222.501 50.0145C222.725 50.4348 222.837 50.9322 222.837 51.5066C222.837 52.074 222.725 52.5784 222.501 53.0057C222.276 53.433 221.961 53.7622 221.548 53.9934C221.128 54.2245 220.637 54.3366 220.077 54.3366C219.516 54.3366 219.026 54.2245 218.606 53.9934ZM221.051 52.7885C221.282 52.4943 221.401 52.067 221.401 51.5066C221.401 50.9462 221.282 50.5259 221.051 50.2317C220.819 49.9375 220.49 49.7974 220.077 49.7974C219.664 49.7974 219.341 49.9375 219.11 50.2317C218.879 50.5189 218.76 50.9462 218.76 51.5066C218.76 52.074 218.879 52.5013 219.11 52.7955C219.341 53.0827 219.664 53.2298 220.077 53.2298C220.49 53.2298 220.819 53.0827 221.051 52.7885Z" fill="#231F20"/>
<path d="M228.616 48.7606V54.2666H227.537L225.036 51.1423V54.2666H223.684V48.7606H224.742L227.243 51.8709V48.7606" fill="#231F20"/>
<path d="M200.183 19.4795C199.363 19.4795 198.543 19.7947 197.92 20.4182C196.673 21.6651 196.673 23.6965 197.92 24.9504L201.822 28.8452C201.969 29.0974 202.312 29.1325 202.508 28.9223L206.48 24.9504C207.734 23.6965 207.734 21.6651 206.48 20.4182C205.857 19.7947 205.037 19.4795 204.218 19.4795C203.503 19.4795 202.788 19.7177 202.2 20.194C201.619 19.7177 200.897 19.4795 200.183 19.4795ZM200.183 20.3481C200.778 20.3481 201.373 20.5793 201.836 21.0416L201.892 21.1047C202.067 21.2658 202.333 21.2658 202.508 21.1047L202.571 21.0416C203.489 20.117 204.946 20.117 205.871 21.0416C206.788 21.9593 206.788 23.4233 205.871 24.341L202.2 28.0116L198.529 24.341C197.612 23.4233 197.612 21.9593 198.529 21.0416C198.992 20.5793 199.587 20.3481 200.183 20.3481ZM210.62 28.7051C210.088 28.7051 209.562 28.9083 209.163 29.3076L206.648 31.8224C206.263 31.2059 205.59 30.7997 204.813 30.7997H197.85C195.966 30.7997 194.936 31.7944 194.067 32.663L192.197 34.5333L191.636 33.9659C191.552 33.8889 191.44 33.8398 191.328 33.8398C191.209 33.8398 191.097 33.8889 191.02 33.9659L188.407 36.5788C188.323 36.6559 188.281 36.768 188.281 36.887C188.281 37.0061 188.323 37.1112 188.407 37.1953L194.936 43.717C195.104 43.8921 195.377 43.8851 195.552 43.717L198.158 41.1111C198.326 40.936 198.326 40.6628 198.158 40.4946L197.598 39.9342L198.158 39.3668C198.592 38.9325 198.866 38.6243 199.594 38.6243H205.682C207.174 38.6243 208.421 37.8818 209.31 36.6068C210.326 35.1358 211.328 33.3005 212.126 32.1656C212.42 31.7383 212.617 31.248 212.638 30.7436C212.659 30.2393 212.476 29.7139 212.077 29.3076C211.678 28.9083 211.145 28.7051 210.62 28.7051ZM210.62 29.5668C210.921 29.5668 211.223 29.6859 211.461 29.924C211.692 30.1552 211.776 30.4144 211.769 30.7086C211.755 31.0098 211.629 31.3531 211.412 31.6683C210.557 32.8732 209.569 34.6945 208.596 36.1095C207.825 37.2163 206.9 37.7557 205.682 37.7557H199.594C198.578 37.7557 197.976 38.3161 197.542 38.7504L196.981 39.3178L192.813 35.1428L194.677 33.2794C195.545 32.4108 196.253 31.6683 197.85 31.6683H204.813C205.541 31.6683 206.116 32.2427 206.116 32.9712C206.116 33.6997 205.541 34.2742 204.813 34.2742H200.89C200.316 34.2742 200.316 35.1498 200.89 35.1498H204.813C206.011 35.1498 206.984 34.1691 206.984 32.9712C206.984 32.8872 206.984 32.8101 206.97 32.726L209.78 29.924C210.011 29.6859 210.319 29.5668 210.62 29.5668ZM191.328 34.8906L197.233 40.8029L195.237 42.7923L189.332 36.887" fill="#231F20"/>
<path d="M195.237 43.9833C195.09 43.9833 194.943 43.9272 194.838 43.8221L188.309 37.2934C188.204 37.1884 188.141 37.0412 188.141 36.8871C188.141 36.733 188.197 36.5859 188.309 36.4808L190.922 33.875C191.132 33.6578 191.517 33.6578 191.734 33.875L192.197 34.3373L193.962 32.565C194.768 31.7594 195.867 30.6596 197.85 30.6596H204.813C205.548 30.6596 206.235 31.0099 206.669 31.6053L209.065 29.2096C209.478 28.7963 210.032 28.5721 210.62 28.5721C211.208 28.5721 211.762 28.7963 212.175 29.2096C212.581 29.6229 212.792 30.1693 212.778 30.7507C212.757 31.2551 212.567 31.7734 212.238 32.2428C211.846 32.7962 211.412 33.5107 210.949 34.2743C210.459 35.0868 209.948 35.9274 209.422 36.684C208.483 38.05 207.188 38.7645 205.681 38.7645H199.594C198.957 38.7645 198.711 39.0097 198.312 39.409L197.794 39.9343L198.256 40.3967C198.361 40.5087 198.424 40.6488 198.424 40.803C198.424 40.9571 198.361 41.0972 198.256 41.2093L195.643 43.8151C195.538 43.9272 195.398 43.9833 195.244 43.9833H195.237ZM191.328 33.98C191.244 33.98 191.167 34.0151 191.111 34.0641L188.505 36.677C188.449 36.733 188.414 36.8101 188.414 36.8871C188.414 36.9642 188.449 37.0412 188.505 37.0973L195.034 43.619C195.146 43.7381 195.335 43.7381 195.447 43.619L198.06 41.0131C198.179 40.901 198.179 40.7119 198.06 40.5928L197.401 39.9343L198.116 39.2128C198.522 38.8065 198.845 38.4843 199.594 38.4843H205.681C207.089 38.4843 208.308 37.8118 209.191 36.5299C209.709 35.7733 210.221 34.9397 210.718 34.1271C211.18 33.3636 211.615 32.6421 212.007 32.0887C212.315 31.6544 212.483 31.192 212.497 30.7437C212.518 30.2323 212.329 29.763 211.979 29.4057C211.615 29.0485 211.131 28.8453 210.62 28.8453C210.102 28.8453 209.618 29.0485 209.261 29.4057L206.627 32.0466L206.529 31.8925C206.151 31.2971 205.513 30.9328 204.813 30.9328H197.85C195.986 30.9328 194.971 31.9486 194.165 32.7612L192.197 34.7296L191.538 34.0641C191.482 34.0151 191.405 33.98 191.328 33.98ZM195.237 42.9955L189.136 36.8871L191.328 34.6946L197.43 40.803L195.237 42.9955ZM189.528 36.8871L195.237 42.6033L197.037 40.803L191.328 35.0868L189.528 36.8871ZM196.981 39.514L192.617 35.1499L194.634 33.1324C195.489 32.2708 196.232 31.5283 197.85 31.5283H204.813C205.618 31.5283 206.256 32.1657 206.256 32.9713C206.256 33.7839 205.618 34.4144 204.813 34.4144H200.89C200.659 34.4144 200.596 34.6035 200.596 34.7156C200.596 34.8206 200.659 35.0098 200.89 35.0098H204.813C205.934 35.0098 206.844 34.0991 206.844 32.9713C206.844 32.8943 206.844 32.8242 206.837 32.7471L206.823 32.6841L209.681 29.826C210.186 29.3217 211.047 29.3217 211.559 29.826C211.804 30.0712 211.916 30.3584 211.902 30.7157C211.895 31.0519 211.755 31.4162 211.524 31.7454C211.096 32.3479 210.641 33.0974 210.158 33.896C209.688 34.6735 209.191 35.4791 208.708 36.1936C207.902 37.3495 206.942 37.8959 205.681 37.8959H199.594C198.676 37.8959 198.123 38.3652 197.64 38.8485L196.981 39.514ZM193.009 35.1499L196.981 39.1217L197.444 38.6594C197.836 38.2671 198.48 37.6157 199.594 37.6157H205.681C206.844 37.6157 207.734 37.1113 208.476 36.0325C208.96 35.332 209.45 34.5264 209.92 33.7489C210.41 32.9503 210.865 32.1937 211.3 31.5843C211.496 31.2971 211.615 30.9819 211.629 30.7087C211.636 30.4285 211.559 30.2183 211.363 30.0222C210.956 29.6159 210.277 29.6229 209.877 30.0222L207.117 32.7822C207.117 32.8452 207.125 32.9083 207.125 32.9713C207.125 34.2462 206.088 35.29 204.813 35.29H200.89C200.519 35.29 200.316 34.9958 200.316 34.7156C200.316 34.4284 200.519 34.1412 200.89 34.1412H204.813C205.464 34.1412 205.976 33.6228 205.976 32.9713C205.976 32.3198 205.464 31.8085 204.813 31.8085H197.85C196.344 31.8085 195.671 32.4739 194.831 33.3216L193.009 35.1499ZM202.193 29.2026C202.172 29.2026 202.151 29.2026 202.13 29.1956C201.948 29.1746 201.794 29.0765 201.703 28.9224L197.822 25.0486C197.191 24.4181 196.841 23.5775 196.841 22.6879C196.841 21.7912 197.191 20.9506 197.822 20.3202C198.452 19.6897 199.293 19.3395 200.182 19.3395C200.911 19.3395 201.626 19.5847 202.2 20.019C202.774 19.5847 203.489 19.3395 204.217 19.3395C205.114 19.3465 205.948 19.6897 206.578 20.3202C207.881 21.6231 207.881 23.7457 206.578 25.0486L202.606 29.0205C202.501 29.1325 202.354 29.2026 202.193 29.2026ZM200.182 19.6197C199.363 19.6197 198.592 19.9419 198.018 20.5163C197.437 21.0977 197.121 21.8683 197.121 22.6879C197.121 23.5005 197.437 24.271 198.018 24.8525L201.92 28.7543C201.99 28.8593 202.067 28.9084 202.158 28.9224C202.249 28.9294 202.347 28.9014 202.41 28.8313L206.382 24.8525C207.58 23.6546 207.58 21.7142 206.382 20.5163C205.808 19.9419 205.037 19.6197 204.217 19.6197C203.517 19.6197 202.83 19.8649 202.291 20.3062L202.2 20.3762L202.116 20.3062C201.569 19.8649 200.883 19.6197 200.182 19.6197ZM202.2 28.2079L198.431 24.4392C197.962 23.9698 197.703 23.3464 197.703 22.6879C197.703 22.0294 197.962 21.413 198.431 20.9436C198.901 20.4673 199.524 20.2081 200.182 20.2081C200.834 20.2081 201.457 20.4673 201.934 20.9436L201.99 20.9997C202.109 21.1188 202.291 21.1188 202.41 20.9997L202.466 20.9436C202.935 20.4673 203.559 20.2081 204.217 20.2081C204.876 20.2081 205.492 20.4673 205.969 20.9436C206.949 21.9243 206.949 23.4584 205.969 24.4392L202.2 28.2079ZM200.182 20.4883C199.601 20.4883 199.048 20.7195 198.627 21.1328C197.759 22.0084 197.759 23.3744 198.627 24.243L202.2 27.8156L205.773 24.243C206.641 23.3744 206.641 22.0084 205.773 21.1328C205.352 20.7195 204.799 20.4883 204.217 20.4883C203.636 20.4883 203.083 20.7195 202.662 21.1328L202.606 21.1958C202.382 21.42 202.018 21.42 201.794 21.1958L201.731 21.1328C201.317 20.7195 200.764 20.4883 200.182 20.4883Z" fill="#231F20"/>
</g>
<defs>
<clipPath id="clip0_26_19386">
<rect width="433" height="71" fill="white"/>
</clipPath>
</defs>
</svg>
