<svg width="270" height="61" viewBox="0 0 270 61" fill="none" xmlns="http://www.w3.org/2000/svg">
<path d="M24.6979 60.4688C11.0781 60.4688 0 49.5208 0 36.0625V0H234.948C248.563 0 259.641 10.9479 259.641 24.4062V60.4688" fill="white"/>
<path d="M222.083 52.9114H69.1353C59.6874 52.9114 51.9999 45.3541 51.9999 36.0625V7.55725H204.948C214.396 7.55725 222.083 15.1145 222.083 24.4062V52.9114ZM204.948 5.66663H50.1145V36.0625C50.1145 46.3958 58.6458 54.802 69.1353 54.802H223.969V24.4062C223.969 14.0729 215.437 5.66663 204.948 5.66663Z" fill="#333347"/>
<path d="M196.714 54.802L209.724 28.2239L196.432 5.66663H234.948C245.437 5.66663 253.969 14.0729 253.969 24.4062V54.802" fill="#333347"/>
<path d="M102.901 5.66663H50.1145V36.0625C50.1145 46.3958 58.6458 54.802 69.1353 54.802H121.927V24.4062C121.927 14.0729 113.391 5.66663 102.901 5.66663Z" fill="#333347"/>
<path d="M63.651 29.3594C58.8489 29.3594 54.9583 33.25 54.9583 38.0521C54.9583 42.8542 58.8489 46.7448 63.651 46.7448C68.4583 46.7448 72.3489 42.8542 72.3489 38.0521C72.3489 33.25 68.4583 29.3594 63.651 29.3594Z" fill="white"/>
<path d="M69.3229 39.4688H65.0729V43.7188H62.2344V39.4688H57.9844V36.6355H62.2344V32.3802H65.0729V36.6355H69.3229" fill="#1C1C1B"/>
<path d="M55.7864 26.5937V17.1979H58.2708V24.5156H61.828V26.5937" fill="white"/>
<path d="M62.9426 26.5937V17.1979H69.0155V19.276H65.4322V20.7552H68.4947V22.8385H65.4322V24.5156H69.1614V26.5937" fill="white"/>
<path d="M75.0885 26.5937V19.276H72.6041V17.1979H80.0677V19.276H77.5781V26.5937" fill="white"/>
<path d="M83.5521 21.4739H84.4479C85.4479 21.4739 85.9531 21.0625 85.9531 20.2343C85.9531 19.8281 85.8229 19.5468 85.5677 19.3958C85.3125 19.2395 84.9375 19.1614 84.4479 19.1614H83.5521V21.4739ZM81.0625 26.5989V17.1979H84.6198C85.125 17.1979 85.6042 17.2448 86.0625 17.3385C86.5208 17.4375 86.9167 17.5989 87.2604 17.8333C87.6042 18.0625 87.875 18.375 88.0781 18.7656C88.2813 19.1562 88.3802 19.6458 88.3802 20.2343C88.3802 20.9062 88.2448 21.4687 87.9688 21.9114C87.6979 22.3541 87.3281 22.6979 86.8646 22.9531L88.901 26.5989H86.125L84.5052 23.4427H83.5521V26.5989" fill="white"/>
<path d="M89.8698 26.5989H92.3593V17.1979H89.8698V26.5989Z" fill="white"/>
<path d="M75.3801 43.276V33.8698H81.5103V35.9531H77.8697V37.75H80.9895V39.8333H77.8697V43.276" fill="white"/>
<path d="M84.9218 38.7031L84.7604 39.3541H86.4948L86.3385 38.7031C86.2239 38.25 86.1041 37.7604 85.9895 37.2291C85.875 36.6979 85.7604 36.1979 85.6406 35.7239H85.5833C85.4791 36.2031 85.3698 36.7083 85.2604 37.2343C85.151 37.7604 85.0364 38.25 84.9218 38.7031ZM81.3073 43.276L84.1666 33.8698H87.1718L90.0364 43.276H87.4062L86.9427 41.276H84.3125L83.8489 43.276" fill="white"/>
<path d="M94.5624 43.4479C93.9687 43.4479 93.3958 43.3489 92.8541 43.151C92.3072 42.9531 91.8333 42.651 91.4218 42.2552C91.0103 41.8541 90.6822 41.3541 90.4426 40.75C90.203 40.1458 90.0833 39.4479 90.0833 38.6458C90.0833 37.8541 90.2083 37.151 90.4583 36.5416C90.7083 35.927 91.0416 35.4114 91.4635 34.9948C91.8801 34.5729 92.3645 34.25 92.9114 34.0312C93.4583 33.8073 94.026 33.6979 94.6249 33.6979C95.2499 33.6979 95.8124 33.8229 96.302 34.0677C96.7968 34.3125 97.2083 34.6041 97.5468 34.9427L96.2447 36.5312C96.0155 36.3333 95.776 36.1666 95.5312 36.0312C95.2812 35.9062 94.9999 35.8385 94.6822 35.8385C94.401 35.8385 94.1405 35.901 93.8958 36.026C93.651 36.151 93.4322 36.3333 93.2447 36.5625C93.0572 36.7916 92.9062 37.0781 92.7968 37.4166C92.6822 37.75 92.6301 38.1354 92.6301 38.5573C92.6301 39.4479 92.8124 40.125 93.1874 40.5989C93.5572 41.0677 94.0468 41.3073 94.651 41.3073C95.0208 41.3073 95.3437 41.2291 95.6301 41.0677C95.9114 40.9062 96.1562 40.7187 96.3593 40.4948L97.6614 42.0573C97.2551 42.5208 96.7916 42.8698 96.2655 43.0989C95.7395 43.3333 95.1718 43.4479 94.5624 43.4479Z" fill="white"/>
<path d="M98.6198 43.276H101.104V33.8698H98.6198V43.276Z" fill="white"/>
<path d="M102.875 43.276V33.8698H105.365V41.1927H108.922V43.276" fill="white"/>
<path d="M110.031 43.276V33.8698H116.109V35.9531H112.521V37.4323H115.589V39.5156H112.521V41.1927H116.255V43.276" fill="white"/>
<path d="M28.4062 25.7448C26.7135 28.2343 28.151 31.5104 29.8958 33.1718C31.4895 34.6823 32.7655 35.0364 32.9322 35.0781L33.7447 33.5208L36.0885 39.9323L29.4635 41.2812L30.3437 39.6458L29.4478 39.1458C26.6562 37.3281 26.0676 34.8593 25.8749 34.0885C25.5416 32.7604 25.0468 28.7864 28.4062 25.7448Z" fill="#333347"/>
<path d="M28.375 25.8489C29.5781 28.6093 33.1146 29.1406 35.4479 28.552C37.5208 28.026 38.5052 27.1718 38.6719 27.0156L38.6615 27L37.776 25.4635L44.4427 26.9218L42.0313 33.2395L41.1354 31.6458L40.2656 32.1198C37.2396 33.5104 34.8333 32.6927 34.0781 32.4427C32.7813 32.0156 29.1562 30.3125 28.375 25.8489Z" fill="#333347"/>
<path d="M40.1613 19.1927C39.6978 22.4895 37.7134 24.0729 37.0936 24.5729C36.0311 25.4375 32.6457 27.5677 28.4634 25.8177C31.4373 26.2916 33.7967 23.6041 34.5571 21.3177C35.2446 19.2656 35.0415 17.9687 34.9998 17.7708L34.979 17.7656L33.2134 17.6927L38.0259 12.8541L42.0519 18.2864L40.2342 18.1823" fill="#333347"/>
<path fill-rule="evenodd" clip-rule="evenodd" d="M19.9375 16.4115C18.4167 16.4115 17.1875 15.1823 17.1875 13.6563C17.1875 12.1354 18.4167 10.9062 19.9375 10.9062C21.4583 10.9062 22.6927 12.1354 22.6927 13.6563C22.6927 15.1823 21.4583 16.4115 19.9375 16.4115Z" fill="#333347"/>
<path d="M15.6771 29.7968C15.9115 29.151 16.2604 29.1927 16.2604 29.1927C16.2604 29.1927 16.5781 29.125 16.7552 29.7708L19.3281 38.8073C17.1823 38.1823 15.224 37.1198 13.5573 35.7083L15.6771 29.7968ZM23.7031 5.66663C13.7604 5.66663 5.67188 13.7552 5.67188 23.6979C5.67188 33.6406 13.7604 41.7291 23.7031 41.7291C24.2344 41.7291 24.7552 41.6979 25.276 41.651L25.3958 43.4635L28.6979 40.2708L25.0052 37.4531L25.1458 39.3541C24.6719 39.401 24.1875 39.4323 23.7031 39.4323C22.9375 39.4323 22.1875 39.375 21.4531 39.2656L21.3802 38.7864L19.6667 24.1875C19.4323 21.4323 21.0052 20.9948 21.9792 21.4062L27.4479 23.6041C28.0729 23.875 28.375 23.3489 28.375 23.3489C28.375 23.3489 28.7292 22.802 28.0938 22.3958C28.0938 22.3958 20.6406 17.4583 19.0521 17.1562C16.8854 16.7552 14.7396 18.5104 14.2656 20.7968L11.6198 33.7604C9.34375 31.0312 7.96875 27.5208 7.96875 23.6979C7.96875 15.0208 15.026 7.9635 23.7031 7.9635C28.3385 7.9635 32.5104 9.97913 35.3906 13.177L37.0052 11.5364C33.7083 7.93225 28.9635 5.66663 23.7031 5.66663Z" fill="#333347"/>
<path d="M132.905 22.797C132.905 22.225 132.835 21.8107 132.696 21.554C132.564 21.29 132.318 21.158 131.959 21.158C131.761 21.158 131.596 21.213 131.464 21.323C131.339 21.4257 131.24 21.598 131.167 21.84C131.094 22.0747 131.042 22.3863 131.013 22.775C130.984 23.1563 130.969 23.6257 130.969 24.183C130.969 24.777 130.987 25.2573 131.024 25.624C131.068 25.9907 131.13 26.2767 131.211 26.482C131.299 26.68 131.405 26.8157 131.53 26.889C131.662 26.955 131.812 26.988 131.981 26.988C132.12 26.988 132.249 26.966 132.366 26.922C132.491 26.8707 132.597 26.7753 132.685 26.636C132.773 26.4893 132.843 26.2877 132.894 26.031C132.945 25.767 132.971 25.4223 132.971 24.997H134.555C134.555 25.4223 134.522 25.8257 134.456 26.207C134.39 26.5883 134.265 26.922 134.082 27.208C133.906 27.494 133.653 27.7177 133.323 27.879C133 28.0403 132.579 28.121 132.058 28.121C131.464 28.121 130.991 28.0257 130.639 27.835C130.287 27.6443 130.016 27.3693 129.825 27.01C129.642 26.6507 129.521 26.2217 129.462 25.723C129.411 25.2243 129.385 24.6743 129.385 24.073C129.385 23.479 129.411 22.9327 129.462 22.434C129.521 21.928 129.642 21.4953 129.825 21.136C130.016 20.7767 130.287 20.498 130.639 20.3C130.991 20.0947 131.464 19.992 132.058 19.992C132.623 19.992 133.066 20.0837 133.389 20.267C133.719 20.4503 133.965 20.685 134.126 20.971C134.287 21.2497 134.386 21.554 134.423 21.884C134.467 22.2067 134.489 22.511 134.489 22.797H132.905ZM136.877 24.073C136.877 24.601 136.888 25.052 136.91 25.426C136.94 25.7927 136.991 26.0933 137.064 26.328C137.145 26.5553 137.255 26.724 137.394 26.834C137.541 26.9367 137.732 26.988 137.966 26.988C138.201 26.988 138.388 26.9367 138.527 26.834C138.674 26.724 138.784 26.5553 138.857 26.328C138.938 26.0933 138.989 25.7927 139.011 25.426C139.041 25.052 139.055 24.601 139.055 24.073C139.055 23.545 139.041 23.0977 139.011 22.731C138.989 22.3643 138.938 22.0637 138.857 21.829C138.784 21.5943 138.674 21.4257 138.527 21.323C138.388 21.213 138.201 21.158 137.966 21.158C137.732 21.158 137.541 21.213 137.394 21.323C137.255 21.4257 137.145 21.5943 137.064 21.829C136.991 22.0637 136.94 22.3643 136.91 22.731C136.888 23.0977 136.877 23.545 136.877 24.073ZM135.293 24.073C135.293 23.479 135.319 22.9327 135.37 22.434C135.429 21.928 135.55 21.4953 135.733 21.136C135.924 20.7767 136.195 20.498 136.547 20.3C136.899 20.0947 137.372 19.992 137.966 19.992C138.56 19.992 139.033 20.0947 139.385 20.3C139.737 20.498 140.005 20.7767 140.188 21.136C140.379 21.4953 140.5 21.928 140.551 22.434C140.61 22.9327 140.639 23.479 140.639 24.073C140.639 24.6743 140.61 25.2243 140.551 25.723C140.5 26.2217 140.379 26.6507 140.188 27.01C140.005 27.3693 139.737 27.6443 139.385 27.835C139.033 28.0257 138.56 28.121 137.966 28.121C137.372 28.121 136.899 28.0257 136.547 27.835C136.195 27.6443 135.924 27.3693 135.733 27.01C135.55 26.6507 135.429 26.2217 135.37 25.723C135.319 25.2243 135.293 24.6743 135.293 24.073ZM146.169 20.146V21.444H144.453V28H142.869V21.444H141.153V20.146H146.169ZM148.275 24.073C148.275 24.601 148.286 25.052 148.308 25.426C148.337 25.7927 148.388 26.0933 148.462 26.328C148.542 26.5553 148.652 26.724 148.792 26.834C148.938 26.9367 149.129 26.988 149.364 26.988C149.598 26.988 149.785 26.9367 149.925 26.834C150.071 26.724 150.181 26.5553 150.255 26.328C150.335 26.0933 150.387 25.7927 150.409 25.426C150.438 25.052 150.453 24.601 150.453 24.073C150.453 23.545 150.438 23.0977 150.409 22.731C150.387 22.3643 150.335 22.0637 150.255 21.829C150.181 21.5943 150.071 21.4257 149.925 21.323C149.785 21.213 149.598 21.158 149.364 21.158C149.129 21.158 148.938 21.213 148.792 21.323C148.652 21.4257 148.542 21.5943 148.462 21.829C148.388 22.0637 148.337 22.3643 148.308 22.731C148.286 23.0977 148.275 23.545 148.275 24.073ZM146.691 24.073C146.691 23.479 146.716 22.9327 146.768 22.434C146.826 21.928 146.947 21.4953 147.131 21.136C147.321 20.7767 147.593 20.498 147.945 20.3C148.297 20.0947 148.77 19.992 149.364 19.992C149.958 19.992 150.431 20.0947 150.783 20.3C151.135 20.498 151.402 20.7767 151.586 21.136C151.776 21.4953 151.897 21.928 151.949 22.434C152.007 22.9327 152.037 23.479 152.037 24.073C152.037 24.6743 152.007 25.2243 151.949 25.723C151.897 26.2217 151.776 26.6507 151.586 27.01C151.402 27.3693 151.135 27.6443 150.783 27.835C150.431 28.0257 149.958 28.121 149.364 28.121C148.77 28.121 148.297 28.0257 147.945 27.835C147.593 27.6443 147.321 27.3693 147.131 27.01C146.947 26.6507 146.826 26.2217 146.768 25.723C146.716 25.2243 146.691 24.6743 146.691 24.073ZM154.794 20.146L156.708 25.525H156.73V20.146H158.182V28H156.378L154.442 22.5H154.42V28H152.968V20.146H154.794ZM131.211 39.834H131.915C132.194 39.834 132.417 39.7863 132.586 39.691C132.755 39.5957 132.887 39.438 132.982 39.218C133.085 38.998 133.151 38.7083 133.18 38.349C133.217 37.9897 133.235 37.5423 133.235 37.007C133.235 36.5597 133.22 36.1673 133.191 35.83C133.162 35.4927 133.099 35.214 133.004 34.994C132.916 34.7667 132.78 34.598 132.597 34.488C132.421 34.3707 132.183 34.312 131.882 34.312H131.211V39.834ZM129.627 33.146H132.223C132.773 33.146 133.217 33.2377 133.554 33.421C133.891 33.597 134.152 33.8537 134.335 34.191C134.526 34.521 134.654 34.9207 134.72 35.39C134.786 35.8593 134.819 36.3837 134.819 36.963C134.819 37.6523 134.775 38.2537 134.687 38.767C134.606 39.273 134.463 39.691 134.258 40.021C134.053 40.351 133.778 40.5967 133.433 40.758C133.088 40.9193 132.652 41 132.124 41H129.627V33.146ZM137.978 31.1H139.496L138.418 32.684H137.384L137.978 31.1ZM140.255 33.146V34.444H137.45V36.292H140.09V37.59H137.45V39.702H140.365V41H135.866V33.146H140.255ZM141.195 33.146H143.549L144.671 38.69H144.693L145.826 33.146H148.169V41H146.717V34.73H146.695L145.298 41H144.066L142.669 34.73H142.647V41H141.195V33.146ZM152.583 38.041L151.824 34.51H151.802L151.043 38.041H152.583ZM152.792 33.146L154.871 41H153.221L152.858 39.339H150.768L150.405 41H148.755L150.834 33.146H152.792ZM156.944 37.073C156.944 37.601 156.955 38.052 156.977 38.426C157.006 38.7927 157.057 39.0933 157.131 39.328C157.211 39.5553 157.321 39.724 157.461 39.834C157.607 39.9367 157.798 39.988 158.033 39.988C158.267 39.988 158.454 39.9367 158.594 39.834C158.74 39.724 158.85 39.5553 158.924 39.328C159.004 39.0933 159.056 38.7927 159.078 38.426C159.107 38.052 159.122 37.601 159.122 37.073C159.122 36.545 159.107 36.0977 159.078 35.731C159.056 35.3643 159.004 35.0637 158.924 34.829C158.85 34.5943 158.74 34.4257 158.594 34.323C158.454 34.213 158.267 34.158 158.033 34.158C157.798 34.158 157.607 34.213 157.461 34.323C157.321 34.4257 157.211 34.5943 157.131 34.829C157.057 35.0637 157.006 35.3643 156.977 35.731C156.955 36.0977 156.944 36.545 156.944 37.073ZM160.013 41.935L159.078 41C158.784 41.0807 158.436 41.121 158.033 41.121C157.439 41.121 156.966 41.0257 156.614 40.835C156.262 40.6443 155.99 40.3693 155.8 40.01C155.616 39.6507 155.495 39.2217 155.437 38.723C155.385 38.2243 155.36 37.6743 155.36 37.073C155.36 36.479 155.385 35.9327 155.437 35.434C155.495 34.928 155.616 34.4953 155.8 34.136C155.99 33.7767 156.262 33.498 156.614 33.3C156.966 33.0947 157.439 32.992 158.033 32.992C158.627 32.992 159.1 33.0947 159.452 33.3C159.804 33.498 160.071 33.7767 160.255 34.136C160.445 34.4953 160.566 34.928 160.618 35.434C160.676 35.9327 160.706 36.479 160.706 37.073C160.706 37.7403 160.669 38.3453 160.596 38.888C160.522 39.4307 160.357 39.889 160.101 40.263L160.948 41.088L160.013 41.935ZM163.122 33.146V38.624C163.122 38.822 163.133 39.0053 163.155 39.174C163.184 39.3353 163.232 39.4783 163.298 39.603C163.371 39.7203 163.467 39.8157 163.584 39.889C163.709 39.955 163.863 39.988 164.046 39.988C164.237 39.988 164.391 39.955 164.508 39.889C164.625 39.8157 164.717 39.7203 164.783 39.603C164.856 39.4783 164.904 39.3353 164.926 39.174C164.955 39.0053 164.97 38.822 164.97 38.624V33.146H166.554V38.624C166.554 39.1227 166.484 39.537 166.345 39.867C166.206 40.1897 166.019 40.4463 165.784 40.637C165.549 40.8277 165.282 40.956 164.981 41.022C164.68 41.088 164.369 41.121 164.046 41.121C163.723 41.121 163.412 41.0917 163.111 41.033C162.81 40.9743 162.543 40.857 162.308 40.681C162.073 40.4977 161.886 40.241 161.747 39.911C161.608 39.581 161.538 39.152 161.538 38.624V33.146H163.122ZM167.633 41V33.146H169.217V41H167.633ZM170.392 41V33.146H171.976V39.702H174.781V41H170.392ZM175.484 41V33.146H177.068V39.702H179.873V41H175.484ZM183.853 38.041L183.094 34.51H183.072L182.313 38.041H183.853ZM184.062 33.146L186.141 41H184.491L184.128 39.339H182.038L181.675 41H180.025L182.104 33.146H184.062ZM188.514 33.146L190.428 38.525H190.45V33.146H191.902V41H190.098L188.162 35.5H188.14V41H186.688V33.146H188.514ZM197.602 33.146V34.444H195.886V41H194.302V34.444H192.586V33.146H197.602Z" fill="black"/>
<path fill-rule="evenodd" clip-rule="evenodd" d="M226.197 12.9917C225.489 12.7271 224.997 12.6406 224.67 12.6452C224.338 12.6499 224.233 12.7457 224.211 12.7697C224.191 12.7911 224.158 12.8426 224.156 12.9856C224.155 13.0935 224.173 13.2211 224.209 13.3514L228.625 17.6963H231.528C232.034 17.0728 233.172 15.8497 235.078 14.1794C235.602 13.7203 235.792 13.4037 235.848 13.2371C235.879 13.1441 235.868 13.1284 235.843 13.0951L235.839 13.0896C235.774 13.001 235.62 12.8791 235.352 12.7673C235.11 12.6663 234.831 12.5973 234.575 12.5601C234.389 12.5649 234.251 12.6081 234.006 12.6965L233.957 12.7142C233.87 12.7457 233.807 12.7781 233.743 12.811C233.611 12.8791 233.474 12.9492 233.116 13.0172C232.548 13.1251 232.141 13.1334 231.683 13.0237C231.386 12.9524 231.057 12.826 230.66 12.6733L230.66 12.6732L230.66 12.6732C230.522 12.6199 230.375 12.5634 230.218 12.505L230.215 12.5046C230.205 12.5034 230.171 12.4992 230.103 12.5017C230.005 12.5053 229.878 12.5207 229.721 12.5484C229.412 12.603 229.047 12.694 228.66 12.7904L228.637 12.7962C228.255 12.8913 227.848 12.9925 227.508 13.0468C227.338 13.0739 227.162 13.0935 226.999 13.0896C226.986 13.0893 226.969 13.0891 226.947 13.0889H226.947C226.777 13.0872 226.364 13.0832 226.197 12.9917ZM228.237 11.3164C227.706 11.4374 226.732 11.5442 226.732 11.5442C226.164 11.5236 225.749 11.4099 225.402 11.3145C225.125 11.2386 224.891 11.1743 224.654 11.1777C224.117 11.1852 223.651 11.3462 223.316 11.7135C222.98 12.0836 222.873 12.5579 222.868 12.9653C222.863 13.3667 222.954 13.7551 223.067 14.0649L223.126 14.2248L227.043 18.0789C225.564 18.4041 223.986 19.063 222.531 20.2082C219.761 22.3897 217.542 26.2534 217.227 32.6479C217.207 33.0641 217.184 33.4866 217.161 33.912C217.068 35.6616 216.972 37.462 217.008 39.0902C217.052 41.0844 217.292 43.0034 218.107 44.3151C219.572 46.6711 221.968 47.8112 224.268 48.348C226.56 48.883 228.85 48.8422 230.268 48.7579C231.563 48.7331 233.698 48.6558 235.887 48.1961C238.067 47.7382 240.413 46.8786 242.016 45.2058C243.305 43.8598 243.744 41.8774 243.878 39.7527C243.983 38.0805 243.904 36.1896 243.823 34.2644L243.823 34.2638C243.8 33.7301 243.778 33.1937 243.759 32.6587C243.548 26.6489 241.338 22.879 238.569 20.6473C236.772 19.1991 234.772 18.4248 233.001 18.0891C233.574 17.4656 234.506 16.5318 235.863 15.3427C236.456 14.8235 236.868 14.3043 237.051 13.7626C237.256 13.1522 237.144 12.5834 236.83 12.152C236.553 11.7717 236.15 11.5369 235.794 11.3889C235.425 11.2351 235.029 11.1428 234.687 11.097L234.649 11.092H234.611C234.197 11.092 233.898 11.1959 233.617 11.2976L233.57 11.3145C233.314 11.4071 233.037 11.5078 232.597 11.5912C232.212 11.6645 232.189 11.6582 232.042 11.6184L232.042 11.6184C232.013 11.6105 231.98 11.6013 231.937 11.5912C231.72 11.539 231.496 11.4529 231.141 11.3164C231.127 11.311 231.103 11.2985 231.069 11.2814C230.905 11.1967 230.523 11 230.086 11C229.442 11 228.825 11.163 228.453 11.2614L228.453 11.2614L228.453 11.2615L228.453 11.2615C228.367 11.2841 228.295 11.3034 228.237 11.3164ZM223.478 21.4108C221.129 23.2603 219.054 26.6676 218.756 32.7231C218.735 33.1559 218.712 33.5897 218.689 34.0222C218.596 35.7668 218.504 37.492 218.538 39.0565C218.582 41.0386 218.83 42.5793 219.407 43.5068C220.575 45.3858 222.528 46.37 224.616 46.8573C226.702 47.3443 228.827 47.3108 230.192 47.2289L230.207 47.228L230.223 47.2277C231.495 47.2037 233.521 47.1289 235.572 46.6981C237.641 46.2636 239.624 45.489 240.91 44.1468C241.806 43.2119 242.221 41.7042 242.35 39.6564C242.45 38.0726 242.375 36.2919 242.295 34.3813C242.272 33.835 242.249 33.2782 242.229 32.7124C242.032 27.0884 239.989 23.7575 237.609 21.8391C235.802 20.3832 233.757 19.7053 232.07 19.4905C233.467 20.9563 235.051 22.4306 235.916 22.9628L235.114 24.2664C234.751 23.9038 234.206 23.4291 233.577 22.8815L233.577 22.8815C232.672 22.0929 231.593 21.1533 230.636 20.1804C230.589 20.8038 230.548 21.5006 230.531 22.1621C230.516 22.7319 230.52 23.2613 230.55 23.6891C230.565 23.9031 230.586 24.0802 230.611 24.218C230.624 24.2864 230.636 24.3394 230.648 24.3787C230.659 24.4162 230.666 24.4328 230.667 24.4343L230.777 25.0318L229.298 25.119C229.12 24.7626 229.055 24.2519 229.023 23.7962C228.988 23.2997 228.985 22.7161 229.001 22.123C229.013 21.6509 229.036 21.1638 229.066 20.6965C227.822 21.8971 226.513 22.9378 225.548 23.7056L225.547 23.7058L225.547 23.7061C225.412 23.8133 225.284 23.9151 225.164 24.0113L224.362 22.7076C225.212 22.115 226.785 20.8255 228.179 19.4313C226.695 19.6286 225.007 20.2073 223.478 21.4108Z" fill="white"/>
</svg>
