<svg width="280" height="61" viewBox="0 0 280 61" fill="none" xmlns="http://www.w3.org/2000/svg">
<g clip-path="url(#clip0_66_3337)">
<path d="M24.6979 60.4688C11.0781 60.4688 0 49.5208 0 36.0625V0H254.948C268.563 0 279.641 10.9479 279.641 24.4062V60.4688" fill="white"/>
<path d="M242.083 52.9114H69.1353C59.6874 52.9114 51.9999 45.3541 51.9999 36.0625V7.55725H224.948C234.396 7.55725 242.083 15.1145 242.083 24.4062V52.9114ZM224.948 5.66663H50.1145V36.0625C50.1145 46.3958 58.6458 54.802 69.1353 54.802H243.969V24.4062C243.969 14.0729 235.437 5.66663 224.948 5.66663Z" fill="#333347"/>
<path d="M216.714 54.802L229.724 28.2239L216.432 5.66663H254.948C265.437 5.66663 273.969 14.0729 273.969 24.4062V54.802" fill="#333347"/>
<path d="M102.901 5.66663H50.1145V36.0625C50.1145 46.3958 58.6458 54.802 69.1353 54.802H121.927V24.4062C121.927 14.0729 113.391 5.66663 102.901 5.66663Z" fill="#333347"/>
<path d="M63.651 29.3594C58.8489 29.3594 54.9583 33.25 54.9583 38.0521C54.9583 42.8542 58.8489 46.7448 63.651 46.7448C68.4583 46.7448 72.3489 42.8542 72.3489 38.0521C72.3489 33.25 68.4583 29.3594 63.651 29.3594Z" fill="white"/>
<path d="M69.3229 39.4688H65.0729V43.7188H62.2344V39.4688H57.9844V36.6355H62.2344V32.3802H65.0729V36.6355H69.3229" fill="#1C1C1B"/>
<path d="M55.7864 26.5937V17.1979H58.2708V24.5156H61.828V26.5937" fill="white"/>
<path d="M62.9426 26.5937V17.1979H69.0155V19.276H65.4322V20.7552H68.4947V22.8385H65.4322V24.5156H69.1614V26.5937" fill="white"/>
<path d="M75.0885 26.5937V19.276H72.6041V17.1979H80.0677V19.276H77.5781V26.5937" fill="white"/>
<path d="M83.5521 21.4739H84.4479C85.4479 21.4739 85.9531 21.0625 85.9531 20.2343C85.9531 19.8281 85.8229 19.5468 85.5677 19.3958C85.3125 19.2395 84.9375 19.1614 84.4479 19.1614H83.5521V21.4739ZM81.0625 26.5989V17.1979H84.6198C85.125 17.1979 85.6042 17.2448 86.0625 17.3385C86.5208 17.4375 86.9167 17.5989 87.2604 17.8333C87.6042 18.0625 87.875 18.375 88.0781 18.7656C88.2813 19.1562 88.3802 19.6458 88.3802 20.2343C88.3802 20.9062 88.2448 21.4687 87.9688 21.9114C87.6979 22.3541 87.3281 22.6979 86.8646 22.9531L88.901 26.5989H86.125L84.5052 23.4427H83.5521V26.5989" fill="white"/>
<path d="M89.8698 26.5989H92.3593V17.1979H89.8698V26.5989Z" fill="white"/>
<path d="M75.3801 43.276V33.8698H81.5103V35.9531H77.8697V37.75H80.9895V39.8333H77.8697V43.276" fill="white"/>
<path d="M84.9218 38.7031L84.7604 39.3541H86.4948L86.3385 38.7031C86.2239 38.25 86.1041 37.7604 85.9895 37.2291C85.875 36.6979 85.7604 36.1979 85.6406 35.7239H85.5833C85.4791 36.2031 85.3698 36.7083 85.2604 37.2343C85.151 37.7604 85.0364 38.25 84.9218 38.7031ZM81.3073 43.276L84.1666 33.8698H87.1718L90.0364 43.276H87.4062L86.9427 41.276H84.3125L83.8489 43.276" fill="white"/>
<path d="M94.5624 43.4479C93.9687 43.4479 93.3958 43.3489 92.8541 43.151C92.3072 42.9531 91.8333 42.651 91.4218 42.2552C91.0103 41.8541 90.6822 41.3541 90.4426 40.75C90.203 40.1458 90.0833 39.4479 90.0833 38.6458C90.0833 37.8541 90.2083 37.151 90.4583 36.5416C90.7083 35.927 91.0416 35.4114 91.4635 34.9948C91.8801 34.5729 92.3645 34.25 92.9114 34.0312C93.4583 33.8073 94.026 33.6979 94.6249 33.6979C95.2499 33.6979 95.8124 33.8229 96.302 34.0677C96.7968 34.3125 97.2083 34.6041 97.5468 34.9427L96.2447 36.5312C96.0155 36.3333 95.776 36.1666 95.5312 36.0312C95.2812 35.9062 94.9999 35.8385 94.6822 35.8385C94.401 35.8385 94.1405 35.901 93.8958 36.026C93.651 36.151 93.4322 36.3333 93.2447 36.5625C93.0572 36.7916 92.9062 37.0781 92.7968 37.4166C92.6822 37.75 92.6301 38.1354 92.6301 38.5573C92.6301 39.4479 92.8124 40.125 93.1874 40.5989C93.5572 41.0677 94.0468 41.3073 94.651 41.3073C95.0208 41.3073 95.3437 41.2291 95.6301 41.0677C95.9114 40.9062 96.1562 40.7187 96.3593 40.4948L97.6614 42.0573C97.2551 42.5208 96.7916 42.8698 96.2655 43.0989C95.7395 43.3333 95.1718 43.4479 94.5624 43.4479Z" fill="white"/>
<path d="M98.6198 43.276H101.104V33.8698H98.6198V43.276Z" fill="white"/>
<path d="M102.875 43.276V33.8698H105.365V41.1927H108.922V43.276" fill="white"/>
<path d="M110.031 43.276V33.8698H116.109V35.9531H112.521V37.4323H115.589V39.5156H112.521V41.1927H116.255V43.276" fill="white"/>
<path d="M28.4062 25.7448C26.7135 28.2343 28.151 31.5104 29.8958 33.1718C31.4895 34.6823 32.7655 35.0364 32.9322 35.0781L33.7447 33.5208L36.0885 39.9323L29.4635 41.2812L30.3437 39.6458L29.4478 39.1458C26.6562 37.3281 26.0676 34.8593 25.8749 34.0885C25.5416 32.7604 25.0468 28.7864 28.4062 25.7448Z" fill="#333347"/>
<path d="M28.375 25.8489C29.5781 28.6093 33.1146 29.1406 35.4479 28.552C37.5208 28.026 38.5052 27.1718 38.6719 27.0156L38.6615 27L37.776 25.4635L44.4427 26.9218L42.0313 33.2395L41.1354 31.6458L40.2656 32.1198C37.2396 33.5104 34.8333 32.6927 34.0781 32.4427C32.7813 32.0156 29.1562 30.3125 28.375 25.8489Z" fill="#333347"/>
<path d="M40.1613 19.1927C39.6978 22.4895 37.7134 24.0729 37.0936 24.5729C36.0311 25.4375 32.6457 27.5677 28.4634 25.8177C31.4373 26.2916 33.7967 23.6041 34.5571 21.3177C35.2446 19.2656 35.0415 17.9687 34.9998 17.7708L34.979 17.7656L33.2134 17.6927L38.0259 12.8541L42.0519 18.2864L40.2342 18.1823" fill="#333347"/>
<path fill-rule="evenodd" clip-rule="evenodd" d="M19.9375 16.4115C18.4167 16.4115 17.1875 15.1823 17.1875 13.6563C17.1875 12.1354 18.4167 10.9062 19.9375 10.9062C21.4583 10.9062 22.6927 12.1354 22.6927 13.6563C22.6927 15.1823 21.4583 16.4115 19.9375 16.4115Z" fill="#333347"/>
<path d="M15.6771 29.7968C15.9115 29.151 16.2604 29.1927 16.2604 29.1927C16.2604 29.1927 16.5781 29.125 16.7552 29.7708L19.3281 38.8073C17.1823 38.1823 15.224 37.1198 13.5573 35.7083L15.6771 29.7968ZM23.7031 5.66663C13.7604 5.66663 5.67188 13.7552 5.67188 23.6979C5.67188 33.6406 13.7604 41.7291 23.7031 41.7291C24.2344 41.7291 24.7552 41.6979 25.276 41.651L25.3958 43.4635L28.6979 40.2708L25.0052 37.4531L25.1458 39.3541C24.6719 39.401 24.1875 39.4323 23.7031 39.4323C22.9375 39.4323 22.1875 39.375 21.4531 39.2656L21.3802 38.7864L19.6667 24.1875C19.4323 21.4323 21.0052 20.9948 21.9792 21.4062L27.4479 23.6041C28.0729 23.875 28.375 23.3489 28.375 23.3489C28.375 23.3489 28.7292 22.802 28.0938 22.3958C28.0938 22.3958 20.6406 17.4583 19.0521 17.1562C16.8854 16.7552 14.7396 18.5104 14.2656 20.7968L11.6198 33.7604C9.34375 31.0312 7.96875 27.5208 7.96875 23.6979C7.96875 15.0208 15.026 7.9635 23.7031 7.9635C28.3385 7.9635 32.5104 9.97913 35.3906 13.177L37.0052 11.5364C33.7083 7.93225 28.9635 5.66663 23.7031 5.66663Z" fill="#333347"/>
<path d="M133.26 21.324C133.26 20.7 133.184 20.248 133.032 19.968C132.888 19.68 132.62 19.536 132.228 19.536C132.012 19.536 131.832 19.596 131.688 19.716C131.552 19.828 131.444 20.016 131.364 20.28C131.284 20.536 131.228 20.876 131.196 21.3C131.164 21.716 131.148 22.228 131.148 22.836C131.148 23.484 131.168 24.008 131.208 24.408C131.256 24.808 131.324 25.12 131.412 25.344C131.508 25.56 131.624 25.708 131.76 25.788C131.904 25.86 132.068 25.896 132.252 25.896C132.404 25.896 132.544 25.872 132.672 25.824C132.808 25.768 132.924 25.664 133.02 25.512C133.116 25.352 133.192 25.132 133.248 24.852C133.304 24.564 133.332 24.188 133.332 23.724H135.06C135.06 24.188 135.024 24.628 134.952 25.044C134.88 25.46 134.744 25.824 134.544 26.136C134.352 26.448 134.076 26.692 133.716 26.868C133.364 27.044 132.904 27.132 132.336 27.132C131.688 27.132 131.172 27.028 130.788 26.82C130.404 26.612 130.108 26.312 129.9 25.92C129.7 25.528 129.568 25.06 129.504 24.516C129.448 23.972 129.42 23.372 129.42 22.716C129.42 22.068 129.448 21.472 129.504 20.928C129.568 20.376 129.7 19.904 129.9 19.512C130.108 19.12 130.404 18.816 130.788 18.6C131.172 18.376 131.688 18.264 132.336 18.264C132.952 18.264 133.436 18.364 133.788 18.564C134.148 18.764 134.416 19.02 134.592 19.332C134.768 19.636 134.876 19.968 134.916 20.328C134.964 20.68 134.988 21.012 134.988 21.324H133.26ZM137.593 22.716C137.593 23.292 137.605 23.784 137.629 24.192C137.661 24.592 137.717 24.92 137.797 25.176C137.885 25.424 138.005 25.608 138.157 25.728C138.317 25.84 138.525 25.896 138.781 25.896C139.037 25.896 139.241 25.84 139.393 25.728C139.553 25.608 139.673 25.424 139.753 25.176C139.841 24.92 139.897 24.592 139.921 24.192C139.953 23.784 139.969 23.292 139.969 22.716C139.969 22.14 139.953 21.652 139.921 21.252C139.897 20.852 139.841 20.524 139.753 20.268C139.673 20.012 139.553 19.828 139.393 19.716C139.241 19.596 139.037 19.536 138.781 19.536C138.525 19.536 138.317 19.596 138.157 19.716C138.005 19.828 137.885 20.012 137.797 20.268C137.717 20.524 137.661 20.852 137.629 21.252C137.605 21.652 137.593 22.14 137.593 22.716ZM135.865 22.716C135.865 22.068 135.893 21.472 135.949 20.928C136.013 20.376 136.145 19.904 136.345 19.512C136.553 19.12 136.849 18.816 137.233 18.6C137.617 18.376 138.133 18.264 138.781 18.264C139.429 18.264 139.945 18.376 140.329 18.6C140.713 18.816 141.005 19.12 141.205 19.512C141.413 19.904 141.545 20.376 141.601 20.928C141.665 21.472 141.697 22.068 141.697 22.716C141.697 23.372 141.665 23.972 141.601 24.516C141.545 25.06 141.413 25.528 141.205 25.92C141.005 26.312 140.713 26.612 140.329 26.82C139.945 27.028 139.429 27.132 138.781 27.132C138.133 27.132 137.617 27.028 137.233 26.82C136.849 26.612 136.553 26.312 136.345 25.92C136.145 25.528 136.013 25.06 135.949 24.516C135.893 23.972 135.865 23.372 135.865 22.716ZM144.333 18.432V24.408C144.333 24.624 144.345 24.824 144.369 25.008C144.401 25.184 144.453 25.34 144.525 25.476C144.605 25.604 144.709 25.708 144.837 25.788C144.973 25.86 145.141 25.896 145.341 25.896C145.549 25.896 145.717 25.86 145.845 25.788C145.973 25.708 146.073 25.604 146.145 25.476C146.225 25.34 146.277 25.184 146.301 25.008C146.333 24.824 146.349 24.624 146.349 24.408V18.432H148.077V24.408C148.077 24.952 148.001 25.404 147.849 25.764C147.697 26.116 147.493 26.396 147.237 26.604C146.981 26.812 146.689 26.952 146.361 27.024C146.033 27.096 145.693 27.132 145.341 27.132C144.989 27.132 144.649 27.1 144.321 27.036C143.993 26.972 143.701 26.844 143.445 26.652C143.189 26.452 142.985 26.172 142.833 25.812C142.681 25.452 142.605 24.984 142.605 24.408V18.432H144.333ZM152.83 21.324C152.83 20.7 152.754 20.248 152.602 19.968C152.458 19.68 152.19 19.536 151.798 19.536C151.582 19.536 151.402 19.596 151.258 19.716C151.122 19.828 151.014 20.016 150.934 20.28C150.854 20.536 150.798 20.876 150.766 21.3C150.734 21.716 150.718 22.228 150.718 22.836C150.718 23.484 150.738 24.008 150.778 24.408C150.826 24.808 150.894 25.12 150.982 25.344C151.078 25.56 151.194 25.708 151.33 25.788C151.474 25.86 151.638 25.896 151.822 25.896C151.974 25.896 152.114 25.872 152.242 25.824C152.378 25.768 152.494 25.664 152.59 25.512C152.686 25.352 152.762 25.132 152.818 24.852C152.874 24.564 152.902 24.188 152.902 23.724H154.63C154.63 24.188 154.594 24.628 154.522 25.044C154.45 25.46 154.314 25.824 154.114 26.136C153.922 26.448 153.646 26.692 153.286 26.868C152.934 27.044 152.474 27.132 151.906 27.132C151.258 27.132 150.742 27.028 150.358 26.82C149.974 26.612 149.678 26.312 149.47 25.92C149.27 25.528 149.138 25.06 149.074 24.516C149.018 23.972 148.99 23.372 148.99 22.716C148.99 22.068 149.018 21.472 149.074 20.928C149.138 20.376 149.27 19.904 149.47 19.512C149.678 19.12 149.974 18.816 150.358 18.6C150.742 18.376 151.258 18.264 151.906 18.264C152.522 18.264 153.006 18.364 153.358 18.564C153.718 18.764 153.986 19.02 154.162 19.332C154.338 19.636 154.446 19.968 154.486 20.328C154.534 20.68 154.558 21.012 154.558 21.324H152.83ZM155.616 18.432H157.344V21.708H159.36V18.432H161.088V27H159.36V23.196H157.344V27H155.616V18.432ZM167.072 18.432V19.848H164.012V21.864H166.892V23.28H164.012V25.584H167.192V27H162.284V18.432H167.072ZM171.373 22.824V24.24H167.989V22.824H171.373ZM176.162 21.324C176.162 20.7 176.086 20.248 175.934 19.968C175.79 19.68 175.522 19.536 175.13 19.536C174.914 19.536 174.734 19.596 174.59 19.716C174.454 19.828 174.346 20.016 174.266 20.28C174.186 20.536 174.13 20.876 174.098 21.3C174.066 21.716 174.05 22.228 174.05 22.836C174.05 23.484 174.07 24.008 174.11 24.408C174.158 24.808 174.226 25.12 174.314 25.344C174.41 25.56 174.526 25.708 174.662 25.788C174.806 25.86 174.97 25.896 175.154 25.896C175.306 25.896 175.446 25.872 175.574 25.824C175.71 25.768 175.826 25.664 175.922 25.512C176.018 25.352 176.094 25.132 176.15 24.852C176.206 24.564 176.234 24.188 176.234 23.724H177.962C177.962 24.188 177.926 24.628 177.854 25.044C177.782 25.46 177.646 25.824 177.446 26.136C177.254 26.448 176.978 26.692 176.618 26.868C176.266 27.044 175.806 27.132 175.238 27.132C174.59 27.132 174.074 27.028 173.69 26.82C173.306 26.612 173.01 26.312 172.802 25.92C172.602 25.528 172.47 25.06 172.406 24.516C172.35 23.972 172.322 23.372 172.322 22.716C172.322 22.068 172.35 21.472 172.406 20.928C172.47 20.376 172.602 19.904 172.802 19.512C173.01 19.12 173.306 18.816 173.69 18.6C174.074 18.376 174.59 18.264 175.238 18.264C175.854 18.264 176.338 18.364 176.69 18.564C177.05 18.764 177.318 19.02 177.494 19.332C177.67 19.636 177.778 19.968 177.818 20.328C177.866 20.68 177.89 21.012 177.89 21.324H176.162ZM180.568 18.432V24.408C180.568 24.624 180.58 24.824 180.604 25.008C180.636 25.184 180.688 25.34 180.76 25.476C180.84 25.604 180.944 25.708 181.072 25.788C181.208 25.86 181.376 25.896 181.576 25.896C181.784 25.896 181.952 25.86 182.08 25.788C182.208 25.708 182.308 25.604 182.38 25.476C182.46 25.34 182.512 25.184 182.536 25.008C182.568 24.824 182.584 24.624 182.584 24.408V18.432H184.312V24.408C184.312 24.952 184.236 25.404 184.084 25.764C183.932 26.116 183.728 26.396 183.472 26.604C183.216 26.812 182.924 26.952 182.596 27.024C182.268 27.096 181.928 27.132 181.576 27.132C181.224 27.132 180.884 27.1 180.556 27.036C180.228 26.972 179.936 26.844 179.68 26.652C179.424 26.452 179.22 26.172 179.068 25.812C178.916 25.452 178.84 24.984 178.84 24.408V18.432H180.568ZM185.405 27V18.432H187.133V25.584H190.193V27H185.405ZM192.507 22.716C192.507 23.292 192.519 23.784 192.543 24.192C192.575 24.592 192.631 24.92 192.711 25.176C192.799 25.424 192.919 25.608 193.071 25.728C193.231 25.84 193.439 25.896 193.695 25.896C193.951 25.896 194.155 25.84 194.307 25.728C194.467 25.608 194.587 25.424 194.667 25.176C194.755 24.92 194.811 24.592 194.835 24.192C194.867 23.784 194.883 23.292 194.883 22.716C194.883 22.14 194.867 21.652 194.835 21.252C194.811 20.852 194.755 20.524 194.667 20.268C194.587 20.012 194.467 19.828 194.307 19.716C194.155 19.596 193.951 19.536 193.695 19.536C193.439 19.536 193.231 19.596 193.071 19.716C192.919 19.828 192.799 20.012 192.711 20.268C192.631 20.524 192.575 20.852 192.543 21.252C192.519 21.652 192.507 22.14 192.507 22.716ZM190.779 22.716C190.779 22.068 190.807 21.472 190.863 20.928C190.927 20.376 191.059 19.904 191.259 19.512C191.467 19.12 191.763 18.816 192.147 18.6C192.531 18.376 193.047 18.264 193.695 18.264C194.343 18.264 194.859 18.376 195.243 18.6C195.627 18.816 195.919 19.12 196.119 19.512C196.327 19.904 196.459 20.376 196.515 20.928C196.579 21.472 196.611 22.068 196.611 22.716C196.611 23.372 196.579 23.972 196.515 24.516C196.459 25.06 196.327 25.528 196.119 25.92C195.919 26.312 195.627 26.612 195.243 26.82C194.859 27.028 194.343 27.132 193.695 27.132C193.047 27.132 192.531 27.028 192.147 26.82C191.763 26.612 191.467 26.312 191.259 25.92C191.059 25.528 190.927 25.06 190.863 24.516C190.807 23.972 190.779 23.372 190.779 22.716ZM202.643 18.432V19.848H200.771V27H199.043V19.848H197.171V18.432H202.643ZM208.409 18.432V19.848H206.537V27H204.809V19.848H202.937V18.432H208.409ZM213.947 18.432V19.848H210.887V21.864H213.767V23.28H210.887V25.584H214.067V27H209.159V18.432H213.947ZM135.435 33.432C135.187 33.888 134.975 34.332 134.799 34.764C134.623 35.188 134.479 35.616 134.367 36.048C134.263 36.48 134.187 36.924 134.139 37.38C134.091 37.828 134.067 38.308 134.067 38.82C134.067 39.332 134.091 39.816 134.139 40.272C134.187 40.72 134.263 41.156 134.367 41.58C134.479 41.996 134.623 42.416 134.799 42.84C134.975 43.272 135.187 43.716 135.435 44.172H134.163C133.563 43.228 133.131 42.312 132.867 41.424C132.611 40.536 132.483 39.668 132.483 38.82C132.483 37.972 132.611 37.1 132.867 36.204C133.131 35.3 133.563 34.376 134.163 33.432H135.435ZM136.034 42V33.432H137.762V40.584H140.822V42H136.034ZM145.164 38.772L144.336 34.92H144.312L143.484 38.772H145.164ZM145.392 33.432L147.66 42H145.86L145.464 40.188H143.184L142.788 42H140.988L143.256 33.432H145.392ZM150.248 33.432L152.336 39.3H152.36V33.432H153.944V42H151.976L149.864 36H149.84V42H148.256V33.432H150.248ZM158.951 35.976C158.951 35.816 158.931 35.652 158.891 35.484C158.859 35.316 158.803 35.164 158.723 35.028C158.643 34.884 158.539 34.768 158.411 34.68C158.291 34.584 158.143 34.536 157.967 34.536C157.551 34.536 157.251 34.768 157.067 35.232C156.883 35.696 156.791 36.464 156.791 37.536C156.791 38.048 156.807 38.512 156.839 38.928C156.871 39.344 156.927 39.7 157.007 39.996C157.095 40.284 157.215 40.508 157.367 40.668C157.527 40.82 157.731 40.896 157.979 40.896C158.083 40.896 158.195 40.868 158.315 40.812C158.443 40.756 158.559 40.672 158.663 40.56C158.775 40.448 158.867 40.308 158.939 40.14C159.011 39.964 159.047 39.76 159.047 39.528V38.652H157.907V37.38H160.703V42H159.431V41.208H159.407C159.199 41.544 158.947 41.784 158.651 41.928C158.363 42.064 158.015 42.132 157.607 42.132C157.079 42.132 156.647 42.04 156.311 41.856C155.983 41.672 155.723 41.388 155.531 41.004C155.347 40.62 155.223 40.148 155.159 39.588C155.095 39.02 155.063 38.364 155.063 37.62C155.063 36.9 155.107 36.268 155.195 35.724C155.291 35.18 155.451 34.728 155.675 34.368C155.899 34 156.195 33.724 156.563 33.54C156.931 33.356 157.391 33.264 157.943 33.264C158.887 33.264 159.567 33.5 159.983 33.972C160.399 34.436 160.607 35.104 160.607 35.976H158.951ZM166.603 33.432V34.848H163.543V36.864H166.423V38.28H163.543V40.584H166.723V42H161.815V33.432H166.603ZM168.264 33.432C168.864 34.376 169.292 35.3 169.548 36.204C169.812 37.1 169.944 37.972 169.944 38.82C169.944 39.668 169.812 40.536 169.548 41.424C169.292 42.312 168.864 43.228 168.264 44.172H166.992C167.24 43.716 167.452 43.272 167.628 42.84C167.804 42.416 167.944 41.996 168.048 41.58C168.16 41.156 168.24 40.72 168.288 40.272C168.336 39.816 168.36 39.332 168.36 38.82C168.36 38.308 168.336 37.828 168.288 37.38C168.24 36.924 168.16 36.48 168.048 36.048C167.944 35.616 167.804 35.188 167.628 34.764C167.452 34.332 167.24 33.888 166.992 33.432H168.264Z" fill="black"/>
<path fill-rule="evenodd" clip-rule="evenodd" d="M246.197 12.9917C245.489 12.7271 244.997 12.6406 244.67 12.6452C244.338 12.6499 244.233 12.7457 244.211 12.7697C244.191 12.7911 244.158 12.8426 244.156 12.9856C244.155 13.0935 244.173 13.2211 244.209 13.3514L248.625 17.6963H251.528C252.034 17.0728 253.172 15.8497 255.078 14.1794C255.602 13.7203 255.792 13.4037 255.848 13.2371C255.879 13.1441 255.868 13.1284 255.843 13.0951L255.839 13.0896C255.774 13.001 255.62 12.8791 255.352 12.7673C255.11 12.6663 254.831 12.5973 254.575 12.5601C254.389 12.5649 254.251 12.6081 254.006 12.6965L253.957 12.7142C253.87 12.7457 253.807 12.7781 253.743 12.811C253.611 12.8791 253.474 12.9492 253.116 13.0172C252.548 13.1251 252.141 13.1334 251.683 13.0237C251.386 12.9524 251.057 12.826 250.66 12.6733L250.66 12.6732L250.66 12.6732C250.522 12.6199 250.375 12.5634 250.218 12.505L250.215 12.5046C250.205 12.5034 250.171 12.4992 250.103 12.5017C250.005 12.5053 249.878 12.5207 249.721 12.5484C249.412 12.603 249.047 12.694 248.66 12.7904L248.637 12.7962C248.255 12.8913 247.848 12.9925 247.508 13.0468C247.338 13.0739 247.162 13.0935 246.999 13.0896C246.986 13.0893 246.969 13.0891 246.947 13.0889H246.947C246.777 13.0872 246.364 13.0832 246.197 12.9917ZM248.237 11.3164C247.706 11.4374 246.732 11.5442 246.732 11.5442C246.164 11.5236 245.749 11.4099 245.402 11.3145C245.125 11.2386 244.891 11.1743 244.654 11.1777C244.117 11.1852 243.651 11.3462 243.316 11.7135C242.98 12.0836 242.873 12.5579 242.868 12.9653C242.863 13.3667 242.954 13.7551 243.067 14.0649L243.126 14.2248L247.043 18.0789C245.564 18.4041 243.986 19.063 242.531 20.2082C239.761 22.3897 237.542 26.2534 237.227 32.6479C237.207 33.0641 237.184 33.4866 237.161 33.912C237.068 35.6616 236.972 37.462 237.008 39.0902C237.052 41.0844 237.292 43.0034 238.107 44.3151C239.572 46.6711 241.968 47.8112 244.268 48.348C246.56 48.883 248.85 48.8422 250.268 48.7579C251.563 48.7331 253.698 48.6558 255.887 48.1961C258.067 47.7382 260.413 46.8786 262.016 45.2058C263.305 43.8598 263.744 41.8774 263.878 39.7527C263.983 38.0805 263.904 36.1896 263.823 34.2644L263.823 34.2638C263.8 33.7301 263.778 33.1937 263.759 32.6587C263.548 26.6489 261.338 22.879 258.569 20.6473C256.772 19.1991 254.772 18.4248 253.001 18.0891C253.574 17.4656 254.506 16.5318 255.863 15.3427C256.456 14.8235 256.868 14.3043 257.051 13.7626C257.256 13.1522 257.144 12.5834 256.83 12.152C256.553 11.7717 256.15 11.5369 255.794 11.3889C255.425 11.2351 255.029 11.1428 254.687 11.097L254.649 11.092H254.611C254.197 11.092 253.898 11.1959 253.617 11.2976L253.57 11.3145C253.314 11.4071 253.037 11.5078 252.597 11.5912C252.212 11.6645 252.189 11.6582 252.042 11.6184L252.042 11.6184C252.013 11.6105 251.98 11.6013 251.937 11.5912C251.72 11.539 251.496 11.4529 251.141 11.3164C251.127 11.311 251.103 11.2985 251.069 11.2814C250.905 11.1967 250.523 11 250.086 11C249.442 11 248.825 11.163 248.453 11.2614L248.453 11.2614L248.453 11.2615L248.453 11.2615C248.367 11.2841 248.295 11.3034 248.237 11.3164ZM243.478 21.4108C241.129 23.2603 239.054 26.6676 238.756 32.7231C238.735 33.1559 238.712 33.5897 238.689 34.0222C238.596 35.7668 238.504 37.492 238.538 39.0565C238.582 41.0386 238.83 42.5793 239.407 43.5068C240.575 45.3858 242.528 46.37 244.616 46.8573C246.702 47.3443 248.827 47.3108 250.192 47.2289L250.207 47.228L250.223 47.2277C251.495 47.2037 253.521 47.1289 255.572 46.6981C257.641 46.2636 259.624 45.489 260.91 44.1468C261.806 43.2119 262.221 41.7042 262.35 39.6564C262.45 38.0726 262.375 36.2919 262.295 34.3813C262.272 33.835 262.249 33.2782 262.229 32.7124C262.032 27.0884 259.989 23.7575 257.609 21.8391C255.802 20.3832 253.757 19.7053 252.07 19.4905C253.467 20.9563 255.051 22.4306 255.916 22.9628L255.114 24.2664C254.751 23.9038 254.206 23.4291 253.577 22.8815L253.577 22.8815C252.672 22.0929 251.593 21.1533 250.636 20.1804C250.589 20.8038 250.548 21.5006 250.531 22.1621C250.516 22.7319 250.52 23.2613 250.55 23.6891C250.565 23.9031 250.586 24.0802 250.611 24.218C250.624 24.2864 250.636 24.3394 250.648 24.3787C250.659 24.4162 250.666 24.4328 250.667 24.4343L250.777 25.0318L249.298 25.119C249.12 24.7626 249.055 24.2519 249.023 23.7962C248.988 23.2997 248.985 22.7161 249.001 22.123C249.013 21.6509 249.036 21.1638 249.066 20.6965C247.822 21.8971 246.513 22.9378 245.548 23.7056L245.547 23.7058L245.547 23.7061C245.412 23.8133 245.284 23.9151 245.164 24.0113L244.362 22.7076C245.212 22.115 246.785 20.8255 248.179 19.4313C246.695 19.6286 245.007 20.2073 243.478 21.4108Z" fill="white"/>
</g>
<defs>
<clipPath id="clip0_66_3337">
<rect width="280" height="61" fill="white"/>
</clipPath>
</defs>
</svg>
