<svg width="245" height="61" viewBox="0 0 245 61" fill="none" xmlns="http://www.w3.org/2000/svg">
<g clip-path="url(#clip0_66_3437)">
<path d="M24.6979 60.4688C11.0781 60.4688 0 49.5208 0 36.0625V0H219.948C233.563 0 244.641 10.9479 244.641 24.4062V60.4688" fill="white"/>
<path d="M222.083 52.9114H69.1353C59.6874 52.9114 51.9999 45.3541 51.9999 36.0625V7.55725H204.948C214.396 7.55725 222.083 15.1145 222.083 24.4062V52.9114ZM204.948 5.66663H50.1145V36.0625C50.1145 46.3958 58.6458 54.802 69.1353 54.802H223.969V24.4062C223.969 14.0729 215.437 5.66663 204.948 5.66663Z" fill="#333347"/>
<path d="M181.714 54.802L194.724 28.2239L181.432 5.66663H219.948C230.437 5.66663 238.969 14.0729 238.969 24.4062V54.802" fill="#333347"/>
<path d="M102.901 5.66663H50.1145V36.0625C50.1145 46.3958 58.6458 54.802 69.1353 54.802H121.927V24.4062C121.927 14.0729 113.391 5.66663 102.901 5.66663Z" fill="#333347"/>
<path d="M63.651 29.3594C58.8489 29.3594 54.9583 33.25 54.9583 38.0521C54.9583 42.8542 58.8489 46.7448 63.651 46.7448C68.4583 46.7448 72.3489 42.8542 72.3489 38.0521C72.3489 33.25 68.4583 29.3594 63.651 29.3594Z" fill="white"/>
<path d="M69.3229 39.4688H65.0729V43.7188H62.2344V39.4688H57.9844V36.6355H62.2344V32.3802H65.0729V36.6355H69.3229" fill="#1C1C1B"/>
<path d="M55.7864 26.5937V17.1979H58.2708V24.5156H61.828V26.5937" fill="white"/>
<path d="M62.9426 26.5937V17.1979H69.0155V19.276H65.4322V20.7552H68.4947V22.8385H65.4322V24.5156H69.1614V26.5937" fill="white"/>
<path d="M75.0885 26.5937V19.276H72.6041V17.1979H80.0677V19.276H77.5781V26.5937" fill="white"/>
<path d="M83.5521 21.4739H84.4479C85.4479 21.4739 85.9531 21.0625 85.9531 20.2343C85.9531 19.8281 85.8229 19.5468 85.5677 19.3958C85.3125 19.2395 84.9375 19.1614 84.4479 19.1614H83.5521V21.4739ZM81.0625 26.5989V17.1979H84.6198C85.125 17.1979 85.6042 17.2448 86.0625 17.3385C86.5208 17.4375 86.9167 17.5989 87.2604 17.8333C87.6042 18.0625 87.875 18.375 88.0781 18.7656C88.2813 19.1562 88.3802 19.6458 88.3802 20.2343C88.3802 20.9062 88.2448 21.4687 87.9688 21.9114C87.6979 22.3541 87.3281 22.6979 86.8646 22.9531L88.901 26.5989H86.125L84.5052 23.4427H83.5521V26.5989" fill="white"/>
<path d="M89.8698 26.5989H92.3593V17.1979H89.8698V26.5989Z" fill="white"/>
<path d="M75.3801 43.276V33.8698H81.5103V35.9531H77.8697V37.75H80.9895V39.8333H77.8697V43.276" fill="white"/>
<path d="M84.9218 38.7031L84.7604 39.3541H86.4948L86.3385 38.7031C86.2239 38.25 86.1041 37.7604 85.9895 37.2291C85.875 36.6979 85.7604 36.1979 85.6406 35.7239H85.5833C85.4791 36.2031 85.3698 36.7083 85.2604 37.2343C85.151 37.7604 85.0364 38.25 84.9218 38.7031ZM81.3073 43.276L84.1666 33.8698H87.1718L90.0364 43.276H87.4062L86.9427 41.276H84.3125L83.8489 43.276" fill="white"/>
<path d="M94.5624 43.4479C93.9687 43.4479 93.3958 43.3489 92.8541 43.151C92.3072 42.9531 91.8333 42.651 91.4218 42.2552C91.0103 41.8541 90.6822 41.3541 90.4426 40.75C90.203 40.1458 90.0833 39.4479 90.0833 38.6458C90.0833 37.8541 90.2083 37.151 90.4583 36.5416C90.7083 35.927 91.0416 35.4114 91.4635 34.9948C91.8801 34.5729 92.3645 34.25 92.9114 34.0312C93.4583 33.8073 94.026 33.6979 94.6249 33.6979C95.2499 33.6979 95.8124 33.8229 96.302 34.0677C96.7968 34.3125 97.2083 34.6041 97.5468 34.9427L96.2447 36.5312C96.0155 36.3333 95.776 36.1666 95.5312 36.0312C95.2812 35.9062 94.9999 35.8385 94.6822 35.8385C94.401 35.8385 94.1405 35.901 93.8958 36.026C93.651 36.151 93.4322 36.3333 93.2447 36.5625C93.0572 36.7916 92.9062 37.0781 92.7968 37.4166C92.6822 37.75 92.6301 38.1354 92.6301 38.5573C92.6301 39.4479 92.8124 40.125 93.1874 40.5989C93.5572 41.0677 94.0468 41.3073 94.651 41.3073C95.0208 41.3073 95.3437 41.2291 95.6301 41.0677C95.9114 40.9062 96.1562 40.7187 96.3593 40.4948L97.6614 42.0573C97.2551 42.5208 96.7916 42.8698 96.2655 43.0989C95.7395 43.3333 95.1718 43.4479 94.5624 43.4479Z" fill="white"/>
<path d="M98.6198 43.276H101.104V33.8698H98.6198V43.276Z" fill="white"/>
<path d="M102.875 43.276V33.8698H105.365V41.1927H108.922V43.276" fill="white"/>
<path d="M110.031 43.276V33.8698H116.109V35.9531H112.521V37.4323H115.589V39.5156H112.521V41.1927H116.255V43.276" fill="white"/>
<path d="M28.4062 25.7448C26.7135 28.2343 28.151 31.5104 29.8958 33.1718C31.4895 34.6823 32.7655 35.0364 32.9322 35.0781L33.7447 33.5208L36.0885 39.9323L29.4635 41.2812L30.3437 39.6458L29.4478 39.1458C26.6562 37.3281 26.0676 34.8593 25.8749 34.0885C25.5416 32.7604 25.0468 28.7864 28.4062 25.7448Z" fill="#333347"/>
<path d="M28.375 25.8489C29.5781 28.6093 33.1146 29.1406 35.4479 28.552C37.5208 28.026 38.5052 27.1718 38.6719 27.0156L38.6615 27L37.776 25.4635L44.4427 26.9218L42.0313 33.2395L41.1354 31.6458L40.2656 32.1198C37.2396 33.5104 34.8333 32.6927 34.0781 32.4427C32.7813 32.0156 29.1562 30.3125 28.375 25.8489Z" fill="#333347"/>
<path d="M40.1613 19.1927C39.6978 22.4895 37.7134 24.0729 37.0936 24.5729C36.0311 25.4375 32.6457 27.5677 28.4634 25.8177C31.4373 26.2916 33.7967 23.6041 34.5571 21.3177C35.2446 19.2656 35.0415 17.9687 34.9998 17.7708L34.979 17.7656L33.2134 17.6927L38.0259 12.8541L42.0519 18.2864L40.2342 18.1823" fill="#333347"/>
<path fill-rule="evenodd" clip-rule="evenodd" d="M19.9375 16.4115C18.4167 16.4115 17.1875 15.1823 17.1875 13.6563C17.1875 12.1354 18.4167 10.9062 19.9375 10.9062C21.4583 10.9062 22.6927 12.1354 22.6927 13.6563C22.6927 15.1823 21.4583 16.4115 19.9375 16.4115Z" fill="#333347"/>
<path d="M15.6771 29.7968C15.9115 29.151 16.2604 29.1927 16.2604 29.1927C16.2604 29.1927 16.5781 29.125 16.7552 29.7708L19.3281 38.8073C17.1823 38.1823 15.224 37.1198 13.5573 35.7083L15.6771 29.7968ZM23.7031 5.66663C13.7604 5.66663 5.67188 13.7552 5.67188 23.6979C5.67188 33.6406 13.7604 41.7291 23.7031 41.7291C24.2344 41.7291 24.7552 41.6979 25.276 41.651L25.3958 43.4635L28.6979 40.2708L25.0052 37.4531L25.1458 39.3541C24.6719 39.401 24.1875 39.4323 23.7031 39.4323C22.9375 39.4323 22.1875 39.375 21.4531 39.2656L21.3802 38.7864L19.6667 24.1875C19.4323 21.4323 21.0052 20.9948 21.9792 21.4062L27.4479 23.6041C28.0729 23.875 28.375 23.3489 28.375 23.3489C28.375 23.3489 28.7292 22.802 28.0938 22.3958C28.0938 22.3958 20.6406 17.4583 19.0521 17.1562C16.8854 16.7552 14.7396 18.5104 14.2656 20.7968L11.6198 33.7604C9.34375 31.0312 7.96875 27.5208 7.96875 23.6979C7.96875 15.0208 15.026 7.9635 23.7031 7.9635C28.3385 7.9635 32.5104 9.97913 35.3906 13.177L37.0052 11.5364C33.7083 7.93225 28.9635 5.66663 23.7031 5.66663Z" fill="#333347"/>
<path d="M133.26 21.324C133.26 20.7 133.184 20.248 133.032 19.968C132.888 19.68 132.62 19.536 132.228 19.536C132.012 19.536 131.832 19.596 131.688 19.716C131.552 19.828 131.444 20.016 131.364 20.28C131.284 20.536 131.228 20.876 131.196 21.3C131.164 21.716 131.148 22.228 131.148 22.836C131.148 23.484 131.168 24.008 131.208 24.408C131.256 24.808 131.324 25.12 131.412 25.344C131.508 25.56 131.624 25.708 131.76 25.788C131.904 25.86 132.068 25.896 132.252 25.896C132.404 25.896 132.544 25.872 132.672 25.824C132.808 25.768 132.924 25.664 133.02 25.512C133.116 25.352 133.192 25.132 133.248 24.852C133.304 24.564 133.332 24.188 133.332 23.724H135.06C135.06 24.188 135.024 24.628 134.952 25.044C134.88 25.46 134.744 25.824 134.544 26.136C134.352 26.448 134.076 26.692 133.716 26.868C133.364 27.044 132.904 27.132 132.336 27.132C131.688 27.132 131.172 27.028 130.788 26.82C130.404 26.612 130.108 26.312 129.9 25.92C129.7 25.528 129.568 25.06 129.504 24.516C129.448 23.972 129.42 23.372 129.42 22.716C129.42 22.068 129.448 21.472 129.504 20.928C129.568 20.376 129.7 19.904 129.9 19.512C130.108 19.12 130.404 18.816 130.788 18.6C131.172 18.376 131.688 18.264 132.336 18.264C132.952 18.264 133.436 18.364 133.788 18.564C134.148 18.764 134.416 19.02 134.592 19.332C134.768 19.636 134.876 19.968 134.916 20.328C134.964 20.68 134.988 21.012 134.988 21.324H133.26ZM136.045 18.432H139.237C139.957 18.432 140.517 18.616 140.917 18.984C141.317 19.344 141.517 19.896 141.517 20.64C141.517 21.216 141.401 21.688 141.169 22.056C140.937 22.416 140.577 22.648 140.089 22.752V22.776C140.521 22.84 140.837 22.98 141.037 23.196C141.237 23.412 141.361 23.76 141.409 24.24C141.425 24.4 141.437 24.576 141.445 24.768C141.453 24.952 141.461 25.16 141.469 25.392C141.485 25.848 141.509 26.196 141.541 26.436C141.589 26.676 141.693 26.84 141.853 26.928V27H139.981C139.893 26.88 139.837 26.744 139.813 26.592C139.789 26.432 139.773 26.268 139.765 26.1L139.717 24.456C139.701 24.12 139.617 23.856 139.465 23.664C139.313 23.472 139.057 23.376 138.697 23.376H137.773V27H136.045V18.432ZM137.773 22.176H138.493C138.909 22.176 139.229 22.08 139.453 21.888C139.677 21.688 139.789 21.356 139.789 20.892C139.789 20.1 139.389 19.704 138.589 19.704H137.773V22.176ZM144.261 22.716C144.261 23.292 144.273 23.784 144.297 24.192C144.329 24.592 144.385 24.92 144.465 25.176C144.553 25.424 144.673 25.608 144.825 25.728C144.985 25.84 145.193 25.896 145.449 25.896C145.705 25.896 145.909 25.84 146.061 25.728C146.221 25.608 146.341 25.424 146.421 25.176C146.509 24.92 146.565 24.592 146.589 24.192C146.621 23.784 146.637 23.292 146.637 22.716C146.637 22.14 146.621 21.652 146.589 21.252C146.565 20.852 146.509 20.524 146.421 20.268C146.341 20.012 146.221 19.828 146.061 19.716C145.909 19.596 145.705 19.536 145.449 19.536C145.193 19.536 144.985 19.596 144.825 19.716C144.673 19.828 144.553 20.012 144.465 20.268C144.385 20.524 144.329 20.852 144.297 21.252C144.273 21.652 144.261 22.14 144.261 22.716ZM142.533 22.716C142.533 22.068 142.561 21.472 142.617 20.928C142.681 20.376 142.813 19.904 143.013 19.512C143.221 19.12 143.517 18.816 143.901 18.6C144.285 18.376 144.801 18.264 145.449 18.264C146.097 18.264 146.613 18.376 146.997 18.6C147.381 18.816 147.673 19.12 147.873 19.512C148.081 19.904 148.213 20.376 148.269 20.928C148.333 21.472 148.365 22.068 148.365 22.716C148.365 23.372 148.333 23.972 148.269 24.516C148.213 25.06 148.081 25.528 147.873 25.92C147.673 26.312 147.381 26.612 146.997 26.82C146.613 27.028 146.097 27.132 145.449 27.132C144.801 27.132 144.285 27.028 143.901 26.82C143.517 26.612 143.221 26.312 143.013 25.92C142.813 25.528 142.681 25.06 142.617 24.516C142.561 23.972 142.533 23.372 142.533 22.716ZM154.397 18.432V19.848H152.525V27H150.797V19.848H148.925V18.432H154.397ZM160.163 18.432V19.848H158.291V27H156.563V19.848H154.691V18.432H160.163ZM165.701 18.432V19.848H162.641V21.864H165.521V23.28H162.641V25.584H165.821V27H160.913V18.432H165.701ZM168.082 24.324V24.576C168.082 24.776 168.098 24.96 168.13 25.128C168.162 25.288 168.222 25.424 168.31 25.536C168.398 25.648 168.514 25.736 168.658 25.8C168.81 25.864 168.998 25.896 169.222 25.896C169.486 25.896 169.722 25.812 169.93 25.644C170.146 25.468 170.254 25.2 170.254 24.84C170.254 24.648 170.226 24.484 170.17 24.348C170.122 24.204 170.038 24.076 169.918 23.964C169.798 23.852 169.638 23.752 169.438 23.664C169.246 23.568 169.006 23.472 168.718 23.376C168.334 23.248 168.002 23.108 167.722 22.956C167.442 22.804 167.206 22.628 167.014 22.428C166.83 22.22 166.694 21.984 166.606 21.72C166.518 21.448 166.474 21.136 166.474 20.784C166.474 19.936 166.71 19.304 167.182 18.888C167.654 18.472 168.302 18.264 169.126 18.264C169.51 18.264 169.862 18.308 170.182 18.396C170.51 18.476 170.79 18.612 171.022 18.804C171.262 18.988 171.446 19.228 171.574 19.524C171.71 19.812 171.778 20.16 171.778 20.568V20.808H170.122C170.122 20.4 170.05 20.088 169.906 19.872C169.762 19.648 169.522 19.536 169.186 19.536C168.994 19.536 168.834 19.564 168.706 19.62C168.578 19.676 168.474 19.752 168.394 19.848C168.322 19.936 168.27 20.04 168.238 20.16C168.214 20.28 168.202 20.404 168.202 20.532C168.202 20.796 168.258 21.02 168.37 21.204C168.482 21.38 168.722 21.544 169.09 21.696L170.422 22.272C170.75 22.416 171.018 22.568 171.226 22.728C171.434 22.88 171.598 23.048 171.718 23.232C171.846 23.408 171.934 23.604 171.982 23.82C172.03 24.036 172.054 24.276 172.054 24.54C172.054 25.444 171.79 26.104 171.262 26.52C170.742 26.928 170.014 27.132 169.078 27.132C168.102 27.132 167.402 26.92 166.978 26.496C166.562 26.072 166.354 25.464 166.354 24.672V24.324H168.082ZM131.412 40.728H132.18C132.484 40.728 132.728 40.676 132.912 40.572C133.096 40.468 133.24 40.296 133.344 40.056C133.456 39.816 133.528 39.5 133.56 39.108C133.6 38.716 133.62 38.228 133.62 37.644C133.62 37.156 133.604 36.728 133.572 36.36C133.54 35.992 133.472 35.688 133.368 35.448C133.272 35.2 133.124 35.016 132.924 34.896C132.732 34.768 132.472 34.704 132.144 34.704H131.412V40.728ZM129.684 33.432H132.516C133.116 33.432 133.6 33.532 133.968 33.732C134.336 33.924 134.62 34.204 134.82 34.572C135.028 34.932 135.168 35.368 135.24 35.88C135.312 36.392 135.348 36.964 135.348 37.596C135.348 38.348 135.3 39.004 135.204 39.564C135.116 40.116 134.96 40.572 134.736 40.932C134.512 41.292 134.212 41.56 133.836 41.736C133.46 41.912 132.984 42 132.408 42H129.684V33.432ZM141.279 33.432V34.848H138.219V36.864H141.099V38.28H138.219V40.584H141.399V42H136.491V33.432H141.279ZM148.811 36.324C148.811 35.7 148.735 35.248 148.583 34.968C148.439 34.68 148.171 34.536 147.779 34.536C147.563 34.536 147.383 34.596 147.239 34.716C147.103 34.828 146.995 35.016 146.915 35.28C146.835 35.536 146.779 35.876 146.747 36.3C146.715 36.716 146.699 37.228 146.699 37.836C146.699 38.484 146.719 39.008 146.759 39.408C146.807 39.808 146.875 40.12 146.963 40.344C147.059 40.56 147.175 40.708 147.311 40.788C147.455 40.86 147.619 40.896 147.803 40.896C147.955 40.896 148.095 40.872 148.223 40.824C148.359 40.768 148.475 40.664 148.571 40.512C148.667 40.352 148.743 40.132 148.799 39.852C148.855 39.564 148.883 39.188 148.883 38.724H150.611C150.611 39.188 150.575 39.628 150.503 40.044C150.431 40.46 150.295 40.824 150.095 41.136C149.903 41.448 149.627 41.692 149.267 41.868C148.915 42.044 148.455 42.132 147.887 42.132C147.239 42.132 146.723 42.028 146.339 41.82C145.955 41.612 145.659 41.312 145.451 40.92C145.251 40.528 145.119 40.06 145.055 39.516C144.999 38.972 144.971 38.372 144.971 37.716C144.971 37.068 144.999 36.472 145.055 35.928C145.119 35.376 145.251 34.904 145.451 34.512C145.659 34.12 145.955 33.816 146.339 33.6C146.723 33.376 147.239 33.264 147.887 33.264C148.503 33.264 148.987 33.364 149.339 33.564C149.699 33.764 149.967 34.02 150.143 34.332C150.319 34.636 150.427 34.968 150.467 35.328C150.515 35.68 150.539 36.012 150.539 36.324H148.811ZM151.596 33.432H153.324V36.708H155.34V33.432H157.068V42H155.34V38.196H153.324V42H151.596V33.432ZM158.348 42V33.432H160.076V42H158.348ZM166.146 33.432V34.848H163.086V36.864H165.966V38.28H163.086V40.584H166.266V42H161.358V33.432H166.146ZM169.127 33.432L171.215 39.3H171.239V33.432H172.823V42H170.855L168.743 36H168.719V42H167.135V33.432H169.127Z" fill="black"/>
<path fill-rule="evenodd" clip-rule="evenodd" d="M211.197 12.9917C210.489 12.7271 209.997 12.6406 209.67 12.6452C209.338 12.6499 209.233 12.7457 209.211 12.7697C209.191 12.7911 209.158 12.8426 209.156 12.9856C209.155 13.0935 209.173 13.2211 209.209 13.3514L213.625 17.6963H216.528C217.034 17.0728 218.172 15.8497 220.078 14.1794C220.602 13.7203 220.792 13.4037 220.848 13.2371C220.879 13.1441 220.868 13.1284 220.843 13.0951L220.839 13.0896C220.774 13.001 220.62 12.8791 220.352 12.7673C220.11 12.6663 219.831 12.5973 219.575 12.5601C219.389 12.5649 219.251 12.6081 219.006 12.6965L218.957 12.7142C218.87 12.7457 218.807 12.7781 218.743 12.811C218.611 12.8791 218.474 12.9492 218.116 13.0172C217.548 13.1251 217.141 13.1334 216.683 13.0237C216.386 12.9524 216.057 12.826 215.66 12.6733L215.66 12.6732L215.66 12.6732C215.522 12.6199 215.375 12.5634 215.218 12.505L215.215 12.5046C215.205 12.5034 215.171 12.4992 215.103 12.5017C215.005 12.5053 214.878 12.5207 214.721 12.5484C214.412 12.603 214.047 12.694 213.66 12.7904L213.637 12.7962C213.255 12.8913 212.848 12.9925 212.508 13.0468C212.338 13.0739 212.162 13.0935 211.999 13.0896C211.986 13.0893 211.969 13.0891 211.947 13.0889H211.947C211.777 13.0872 211.364 13.0832 211.197 12.9917ZM213.237 11.3164C212.706 11.4374 211.732 11.5442 211.732 11.5442C211.164 11.5236 210.749 11.4099 210.402 11.3145C210.125 11.2386 209.891 11.1743 209.654 11.1777C209.117 11.1852 208.651 11.3462 208.316 11.7135C207.98 12.0836 207.873 12.5579 207.868 12.9653C207.863 13.3667 207.954 13.7551 208.067 14.0649L208.126 14.2248L212.043 18.0789C210.564 18.4041 208.986 19.063 207.531 20.2082C204.761 22.3897 202.542 26.2534 202.227 32.6479C202.207 33.0641 202.184 33.4866 202.161 33.912C202.068 35.6616 201.972 37.462 202.008 39.0902C202.052 41.0844 202.292 43.0034 203.107 44.3151C204.572 46.6711 206.968 47.8112 209.268 48.348C211.56 48.883 213.85 48.8422 215.268 48.7579C216.563 48.7331 218.698 48.6558 220.887 48.1961C223.067 47.7382 225.413 46.8786 227.016 45.2058C228.305 43.8598 228.744 41.8774 228.878 39.7527C228.983 38.0805 228.904 36.1896 228.823 34.2644L228.823 34.2638C228.8 33.7301 228.778 33.1937 228.759 32.6587C228.548 26.6489 226.338 22.879 223.569 20.6473C221.772 19.1991 219.772 18.4248 218.001 18.0891C218.574 17.4656 219.506 16.5318 220.863 15.3427C221.456 14.8235 221.868 14.3043 222.051 13.7626C222.256 13.1522 222.144 12.5834 221.83 12.152C221.553 11.7717 221.15 11.5369 220.794 11.3889C220.425 11.2351 220.029 11.1428 219.687 11.097L219.649 11.092H219.611C219.197 11.092 218.898 11.1959 218.617 11.2976L218.57 11.3145C218.314 11.4071 218.037 11.5078 217.597 11.5912C217.212 11.6645 217.189 11.6582 217.042 11.6184L217.042 11.6184C217.013 11.6105 216.98 11.6013 216.937 11.5912C216.72 11.539 216.496 11.4529 216.141 11.3164C216.127 11.311 216.103 11.2985 216.069 11.2814C215.905 11.1967 215.523 11 215.086 11C214.442 11 213.825 11.163 213.453 11.2614L213.453 11.2614L213.453 11.2615L213.453 11.2615C213.367 11.2841 213.295 11.3034 213.237 11.3164ZM208.478 21.4108C206.129 23.2603 204.054 26.6676 203.756 32.7231C203.735 33.1559 203.712 33.5897 203.689 34.0222C203.596 35.7668 203.504 37.492 203.538 39.0565C203.582 41.0386 203.83 42.5793 204.407 43.5068C205.575 45.3858 207.528 46.37 209.616 46.8573C211.702 47.3443 213.827 47.3108 215.192 47.2289L215.207 47.228L215.223 47.2277C216.495 47.2037 218.521 47.1289 220.572 46.6981C222.641 46.2636 224.624 45.489 225.91 44.1468C226.806 43.2119 227.221 41.7042 227.35 39.6564C227.45 38.0726 227.375 36.2919 227.295 34.3813C227.272 33.835 227.249 33.2782 227.229 32.7124C227.032 27.0884 224.989 23.7575 222.609 21.8391C220.802 20.3832 218.757 19.7053 217.07 19.4905C218.467 20.9563 220.051 22.4306 220.916 22.9628L220.114 24.2664C219.751 23.9038 219.206 23.4291 218.577 22.8815L218.577 22.8815C217.672 22.0929 216.593 21.1533 215.636 20.1804C215.589 20.8038 215.548 21.5006 215.531 22.1621C215.516 22.7319 215.52 23.2613 215.55 23.6891C215.565 23.9031 215.586 24.0802 215.611 24.218C215.624 24.2864 215.636 24.3394 215.648 24.3787C215.659 24.4162 215.666 24.4328 215.667 24.4343L215.777 25.0318L214.298 25.119C214.12 24.7626 214.055 24.2519 214.023 23.7962C213.988 23.2997 213.985 22.7161 214.001 22.123C214.013 21.6509 214.036 21.1638 214.066 20.6965C212.822 21.8971 211.513 22.9378 210.548 23.7056L210.547 23.7058L210.547 23.7061C210.412 23.8133 210.284 23.9151 210.164 24.0113L209.362 22.7076C210.212 22.115 211.785 20.8255 213.179 19.4313C211.695 19.6286 210.007 20.2073 208.478 21.4108Z" fill="white"/>
</g>
<defs>
<clipPath id="clip0_66_3437">
<rect width="245" height="61" fill="white"/>
</clipPath>
</defs>
</svg>
