<svg width="275" height="72" viewBox="0 0 275 72" fill="none" xmlns="http://www.w3.org/2000/svg">
<g clip-path="url(#clip0_22_414)">
<path d="M24.6927 71.8125C11.0729 71.8125 0 60.8646 0 47.4063V0H250.297C263.911 0 274.99 10.9531 274.99 24.4063V71.8125" fill="white"/>
<path d="M24.6927 60.474C11.0729 60.474 0 49.526 0 36.0677V0H250.297C263.911 0 274.99 10.9479 274.99 24.4063V60.474" fill="white"/>
<path d="M250.297 5.67188H50.1094V36.0677C50.1094 46.401 58.6406 54.8073 69.1302 54.8073L269.323 54.8021V24.4115C269.323 14.0781 260.786 5.67188 250.297 5.67188Z" fill="white"/>
<path d="M267.432 52.9167H69.1302C59.6823 52.9167 52 45.3594 52 36.0677V7.5625L250.297 7.55729C259.745 7.55729 267.432 15.1198 267.432 24.4115V52.9167ZM250.297 5.67188H50.1094V36.0677C50.1094 46.401 58.6406 54.8073 69.1302 54.8073L269.318 54.8021V24.4115C269.318 14.0781 260.786 5.67188 250.297 5.67188Z" fill="#FCC42F"/>
<path d="M171.755 29.2969H167.505V33.5469H164.672V29.2969H160.417V26.4636H164.672V22.2084H167.505V26.4636H171.755" fill="#1C1C1B"/>
<path d="M212.063 54.8021L225.073 28.224L211.781 5.67188H250.297C260.786 5.67188 269.318 14.0781 269.318 24.4063V54.8021" fill="#FCC42F"/>
<path d="M250.297 7.55737H215.089L227.219 28.1459L215.094 52.9167H267.432V24.4063C267.432 15.1199 259.745 7.55737 250.297 7.55737Z" fill="#FCC42F"/>
<path d="M255.255 41.3438H254.052C253.953 41.3438 253.859 41.3543 253.766 41.3751C254.328 35.1147 255.198 25.4584 255.62 21.0834C255.661 20.6355 255.333 20.2397 254.891 20.198C254.432 20.1511 254.047 20.4845 254.005 20.9272C253.359 27.6459 251.651 46.8282 251.635 47.0209C251.604 47.349 251.286 47.6095 250.917 47.6095H237.823C237.453 47.6095 237.141 47.349 237.109 47.0209C237.089 46.8282 235.385 27.6459 234.74 20.9272C234.698 20.4845 234.307 20.1511 233.854 20.198C233.406 20.2397 233.083 20.6355 233.125 21.0834C233.542 25.4532 234.417 35.1095 234.974 41.3699C234.88 41.3543 234.786 41.3438 234.688 41.3438H233.49C232.708 41.3438 232.078 41.974 232.078 42.7501V47.823C232.078 48.599 232.708 49.2345 233.49 49.2345H234.688C235.271 49.2345 235.776 48.8751 235.984 48.3699C236.417 48.8959 237.078 49.2345 237.823 49.2345H250.917C251.661 49.2345 252.323 48.8959 252.755 48.3699C252.964 48.8751 253.469 49.2345 254.052 49.2345H255.255C256.031 49.2345 256.661 48.6043 256.661 47.8282V42.7553C256.661 41.9793 256.031 41.3438 255.255 41.3438Z" fill="#1C1C1B"/>
<path d="M239.318 24.8022V27.0938H239.99C240.38 27.0938 240.594 26.9167 240.594 26.3595V25.7084C240.594 25.0157 240.37 24.8022 239.839 24.8022H239.318ZM239.318 21.7657V23.7397H239.776C240.214 23.7397 240.479 23.547 240.479 22.948V22.5313C240.479 22.0001 240.297 21.7657 239.88 21.7657H239.318ZM241.651 22.4167V22.6824C241.651 23.448 241.417 23.9324 240.896 24.1772V24.198C241.521 24.4428 241.766 24.9949 241.766 25.7865V26.3907C241.766 27.5417 241.161 28.1615 239.99 28.1615H238.141V20.698H239.911C241.13 20.698 241.651 21.2657 241.651 22.4167Z" fill="#1C1C1B"/>
<path d="M243.807 25.797H244.937L244.38 22.0209H244.359L243.807 25.797ZM246.484 28.1615H245.302L245.099 26.8074H243.656L243.453 28.1615H242.38L243.573 20.698H245.286" fill="#1C1C1B"/>
<path d="M250.635 25.3802V26.3698C250.635 27.5677 250.036 28.2448 248.885 28.2448C247.734 28.2448 247.135 27.5677 247.135 26.3698V22.4896C247.135 21.2969 247.734 20.6146 248.885 20.6146C250.036 20.6146 250.635 21.2969 250.635 22.4896V23.2136H249.526V22.4167C249.526 21.8802 249.292 21.6823 248.917 21.6823C248.547 21.6823 248.307 21.8802 248.307 22.4167V26.448C248.307 26.9792 248.547 27.1719 248.917 27.1719C249.292 27.1719 249.526 26.9792 249.526 26.448V25.3802" fill="#1C1C1B"/>
<path d="M241.677 30.8907V36.2188H242.338C242.708 36.2188 242.932 36.0313 242.932 35.4949V31.6147C242.932 31.0834 242.708 30.8907 242.338 30.8907H241.677ZM240.505 29.823H242.359C243.531 29.823 244.104 30.474 244.104 31.6667V35.4428C244.104 36.6355 243.531 37.2865 242.359 37.2865H240.505" fill="#1C1C1B"/>
<path d="M246.24 32.9688H247.849V34.0365H246.24V36.2188H248.266V37.2865H245.068V29.823H248.266V30.8907H246.24" fill="#1C1C1B"/>
<path d="M239.135 38.9479H242.76V40.0156H241.536V46.4115H240.359V40.0156H239.135" fill="#1C1C1B"/>
<path d="M244.661 40.0156V42.3073H245.12C245.557 42.3073 245.823 42.1146 245.823 41.5209V40.7813C245.823 40.25 245.641 40.0156 245.224 40.0156H244.661ZM245.938 46.4115C245.875 46.2188 245.833 46.099 245.833 45.4948V44.3229C245.833 43.6302 245.599 43.375 245.068 43.375H244.661V46.4115H243.484V38.9479H245.255C246.474 38.9479 246.995 39.5156 246.995 40.6667V41.25C246.995 42.0209 246.75 42.5104 246.229 42.7552V42.7761C246.813 43.0209 247.005 43.5781 247.005 44.3542V45.5052C247.005 45.8698 247.016 46.1354 247.135 46.4115" fill="#1C1C1B"/>
<path d="M247.99 46.4115H249.161V38.9479H247.99V46.4115Z" fill="#1C1C1B"/>
<path d="M256.094 17.3021H232.646V15.3542C232.646 15.2865 232.677 15.2552 232.672 15.25H234.37C234.563 15.25 234.745 15.1823 234.891 15.0573L237.021 13.1927C237.115 13.1146 237.344 13.026 237.635 13.026H251.104C251.396 13.026 251.63 13.1146 251.724 13.1927L253.854 15.0573C254 15.1823 254.182 15.25 254.375 15.25H256.073C256.063 15.2552 256.094 15.2865 256.094 15.3542V17.3021ZM256.073 13.6667H254.672L252.766 12C252.359 11.6458 251.755 11.4375 251.104 11.4375H237.635C236.99 11.4375 236.385 11.6458 235.974 12L234.073 13.6667H232.672C231.781 13.6667 231.062 14.4219 231.062 15.3542V17.4948C231.062 17.7917 231.135 18.0885 231.281 18.3438C231.344 18.4583 231.427 18.5521 231.536 18.625C231.797 18.7969 232.094 18.8854 232.401 18.8854H256.344C256.646 18.8854 256.948 18.7969 257.208 18.625C257.313 18.5521 257.401 18.4583 257.464 18.3438C257.604 18.0885 257.682 17.7917 257.682 17.4948V15.3542C257.682 14.4219 256.958 13.6667 256.073 13.6667Z" fill="#1C1C1B"/>
<path d="M251.099 13.7605H237.641C237.271 13.7605 236.969 14.0626 236.969 14.4324C236.969 14.8022 237.271 15.1042 237.641 15.1042H251.099C251.469 15.1042 251.771 14.8022 251.771 14.4324C251.771 14.0626 251.469 13.7605 251.099 13.7605Z" fill="#1C1C1B"/>
<path d="M102.896 5.67188H50.1094V36.0677C50.1094 46.401 58.6406 54.8073 69.1302 54.8073H121.922V24.4115C121.922 14.0781 113.385 5.67188 102.896 5.67188Z" fill="#FCC42F"/>
<path d="M63.651 29.3646C58.8437 29.3646 54.9531 33.2552 54.9531 38.0573C54.9531 42.8594 58.8437 46.75 63.651 46.75C68.4531 46.75 72.3438 42.8594 72.3438 38.0573C72.3438 33.2552 68.4531 29.3646 63.651 29.3646Z" fill="white"/>
<path d="M69.3177 39.474H65.0677V43.724H62.2343V39.474H57.9791V36.6406H62.2343V32.3854H65.0677V36.6406H69.3177" fill="#1C1C1B"/>
<path d="M55.7812 26.6042V17.2031H58.2656V24.5208H61.8281V26.6042" fill="#1C1C1B"/>
<path d="M62.9375 26.6042V17.2031H69.0104V19.2865H65.4271V20.7604H68.4948V22.8438H65.4271V24.5208H69.1563V26.6042" fill="#1C1C1B"/>
<path d="M75.0833 26.6042V19.2865H72.5989V17.2031H80.0624V19.2865H77.5728V26.6042" fill="#1C1C1B"/>
<path d="M83.5468 21.4844H84.4427C85.4479 21.4844 85.9479 21.0677 85.9479 20.2396C85.9479 19.8333 85.8229 19.5521 85.5677 19.401C85.3073 19.2448 84.9375 19.1667 84.4427 19.1667H83.5468V21.4844ZM81.0573 26.6042V17.2031H84.6145C85.1198 17.2031 85.5989 17.25 86.0573 17.3438C86.5156 17.4427 86.9114 17.6042 87.2552 17.8385C87.5989 18.0677 87.8698 18.3802 88.0729 18.7708C88.276 19.1615 88.3802 19.651 88.3802 20.2396C88.3802 20.9115 88.2395 21.474 87.9687 21.9167C87.6927 22.3594 87.3229 22.7083 86.8593 22.9583L88.901 26.6042H86.1198L84.5052 23.4479H83.5468V26.6042" fill="#1C1C1B"/>
<path d="M89.8645 26.6042H92.3541V17.2031H89.8645V26.6042Z" fill="#1C1C1B"/>
<path d="M75.375 43.2761V33.8802H81.5104V35.9636H77.8646V37.7552H80.9844V39.8334H77.8646V43.2761" fill="#1C1C1B"/>
<path d="M84.9166 38.7084L84.7551 39.3594H86.4895L86.3333 38.7084C86.2135 38.2553 86.0989 37.7657 85.9843 37.2344C85.8697 36.7032 85.7551 36.2032 85.6353 35.7292H85.578C85.4739 36.2084 85.3645 36.7136 85.2551 37.2396C85.1458 37.7657 85.0312 38.2553 84.9166 38.7084ZM81.302 43.2813L84.1614 33.8751H87.1718L90.0364 43.2813H87.401L86.9374 41.2865H84.3072L83.8437 43.2813" fill="#1C1C1B"/>
<path d="M94.5625 43.4532C93.9635 43.4532 93.3958 43.3542 92.849 43.1563C92.3021 42.9584 91.8281 42.6615 91.4167 42.2605C91.0052 41.8594 90.6823 41.3594 90.4375 40.7553C90.1979 40.1511 90.0781 39.4532 90.0781 38.6511C90.0781 37.8594 90.2031 37.1615 90.4531 36.5469C90.7031 35.9324 91.0417 35.4167 91.4583 35.0001C91.8802 34.5782 92.3594 34.2605 92.9063 34.0365C93.4531 33.8178 94.0208 33.7032 94.6198 33.7032C95.2448 33.7032 95.8073 33.8282 96.2969 34.073C96.7917 34.3178 97.2031 34.6094 97.5417 34.948L96.2396 36.5417C96.0104 36.3386 95.7708 36.1719 95.526 36.0417C95.2812 35.9115 94.9948 35.8438 94.6771 35.8438C94.3958 35.8438 94.1354 35.9063 93.8906 36.0313C93.6458 36.1563 93.4271 36.3386 93.2396 36.5678C93.0521 36.8021 92.901 37.0834 92.7917 37.4219C92.6771 37.7605 92.625 38.1407 92.625 38.5626C92.625 39.4532 92.8073 40.1303 93.1823 40.6042C93.5521 41.0782 94.0417 41.3126 94.6458 41.3126C95.0156 41.3126 95.3385 41.2344 95.625 41.073C95.9115 40.9167 96.151 40.724 96.3542 40.5001L97.6563 42.0626C97.25 42.5261 96.7865 42.8751 96.2604 43.1042C95.7344 43.3386 95.1719 43.4532 94.5625 43.4532Z" fill="#1C1C1B"/>
<path d="M98.6145 43.2761H101.099V33.8802H98.6145V43.2761Z" fill="#1C1C1B"/>
<path d="M102.87 43.2761V33.8802H105.359V41.198H108.917V43.2761" fill="#1C1C1B"/>
<path d="M110.026 43.2761V33.8802H116.104V35.9636H112.516V37.4375H115.583V39.5209H112.516V41.198H116.245V43.2761" fill="#1C1C1B"/>
<path d="M28.401 25.75C26.7083 28.2396 28.1458 31.5156 29.8958 33.1771C31.4844 34.6875 32.7604 35.0417 32.9271 35.0833L33.7396 33.5313L36.0833 39.9375L29.4583 41.2865L30.3385 39.6563L29.4427 39.151C26.651 37.3333 26.0625 34.8646 25.8698 34.0938C25.5365 32.7656 25.0417 28.7969 28.401 25.75Z" fill="#1C1C1B"/>
<path d="M28.3698 25.8594C29.5729 28.6146 33.1093 29.1458 35.4479 28.5573C37.5156 28.0312 38.5 27.1771 38.6666 27.0208L38.6562 27.0052L37.7708 25.4688L44.4375 26.9271L42.0208 33.2448L41.1302 31.651L40.2604 32.125C37.2343 33.5156 34.8281 32.6979 34.0729 32.4479C32.776 32.0208 29.151 30.3229 28.3698 25.8594Z" fill="#1C1C1B"/>
<path d="M40.1562 19.1979C39.6926 22.4948 37.7083 24.0781 37.0885 24.5781C36.026 25.4427 32.6405 27.5729 28.4583 25.8229C31.4322 26.2969 33.7916 23.6094 34.552 21.3229C35.2395 19.276 35.0364 17.974 34.9999 17.776L34.9739 17.7708L33.2083 17.6979L38.0208 12.8594L42.0468 18.2969L40.2343 18.1875" fill="#1C1C1B"/>
<path fill-rule="evenodd" clip-rule="evenodd" d="M19.9323 16.4167C18.4114 16.4167 17.1823 15.1875 17.1823 13.6615C17.1823 12.1407 18.4114 10.9115 19.9323 10.9115C21.4531 10.9115 22.6875 12.1407 22.6875 13.6615C22.6875 15.1875 21.4531 16.4167 19.9323 16.4167Z" fill="#1C1C1B"/>
<path d="M15.6718 29.8021C15.9062 29.1563 16.2552 29.1979 16.2552 29.1979C16.2552 29.1979 16.5729 29.1302 16.75 29.7813L19.3229 38.8125C17.177 38.1927 15.2187 37.125 13.5573 35.7188L15.6718 29.8021ZM23.6979 5.67188C13.7552 5.67188 5.66663 13.7604 5.66663 23.7031C5.66663 33.6458 13.7552 41.7396 23.6979 41.7396C24.2291 41.7396 24.7552 41.7031 25.2708 41.6563L25.3958 43.4688L28.6927 40.276L25 37.4635L25.1406 39.3646C24.6666 39.4063 24.1875 39.4375 23.6979 39.4375C22.9323 39.4375 22.1823 39.3802 21.4479 39.2708L21.375 38.7969L19.6614 24.1979C19.427 21.4375 21 21 21.9739 21.4115L27.4427 23.6094C28.0677 23.8802 28.3698 23.3542 28.3698 23.3542C28.3698 23.3542 28.7239 22.8073 28.0885 22.401C28.0885 22.401 20.6354 17.4635 19.0468 17.1667C16.8802 16.7604 14.7395 18.5156 14.2604 20.8021L11.6145 33.7656C9.3385 31.0365 7.9635 27.5312 7.9635 23.7031C7.9635 15.0312 15.0208 7.96875 23.6979 7.96875C28.3333 7.96875 32.5052 9.98437 35.3854 13.1823L37 11.5469C33.7031 7.9375 28.9583 5.67188 23.6979 5.67188Z" fill="#1C1C1B"/>
<path d="M132.968 63.7201L132.927 63.8868C132.718 64.8868 133.072 66.2618 134.843 66.2618C136.281 66.2618 137.51 65.4284 137.843 63.9076C138.052 62.9284 137.531 62.1993 136.614 61.8451L135.885 61.5534C135.197 61.2618 135.135 61.1368 135.281 60.5326C135.427 59.7826 135.76 59.6993 136.26 59.6993C136.968 59.6993 136.968 59.8868 136.843 60.5326L136.76 60.8659H138.281L138.364 60.5326C138.531 59.7826 138.385 58.4493 136.572 58.4493C135.218 58.4493 133.989 59.3659 133.718 60.6576C133.489 61.6784 134.031 62.4076 134.989 62.8243L135.697 63.0951C136.302 63.2826 136.406 63.4076 136.26 64.1576C136.135 64.6993 135.864 65.0118 135.156 65.0118C134.364 65.0118 134.281 64.7618 134.447 63.8868L134.531 63.5326H133.01L132.968 63.7201Z" fill="#1C1C1B"/>
<path d="M142.554 63.3659L142.658 62.8034C142.992 61.3034 142.575 60.2201 141.075 60.2201C139.387 60.2201 138.575 61.9076 138.283 63.3243C137.762 65.8034 138.992 66.2618 139.867 66.2618C141.033 66.2618 142.096 65.3243 142.387 63.9284H140.992C140.867 64.4493 140.804 65.1368 140.033 65.1368C139.221 65.1368 139.512 64.4076 139.679 63.6784L139.7 63.5743H142.512L142.554 63.3659ZM139.887 62.6368L139.908 62.5326C140.054 61.8243 140.242 61.3451 140.929 61.3451C141.533 61.3451 141.45 61.6576 141.304 62.3451L141.283 62.4493H139.929L139.887 62.6368ZM140.742 60.0326H141.554L143.283 58.2201H141.554L140.387 60.0326H140.742Z" fill="#1C1C1B"/>
<path d="M142.33 67.8659H143.559L144.059 65.4909H143.767C143.83 65.7826 144.413 66.2618 144.997 66.2618C145.726 66.2618 146.955 65.5743 147.434 63.3034C147.83 61.4493 147.351 60.2201 146.122 60.2201C145.538 60.2201 144.934 60.5951 144.642 61.0118H144.955L145.101 60.3659H143.684L142.101 67.8659H142.33ZM144.497 63.1784C144.747 62.0326 144.892 61.4493 145.622 61.4493C146.372 61.4493 146.184 62.0326 145.913 63.2618C145.601 64.7409 145.413 65.0118 144.788 65.0118C144.038 65.0118 144.226 64.4701 144.497 63.1784Z" fill="#1C1C1B"/>
<path d="M152.119 61.7201C152.327 60.7826 151.452 60.2201 150.494 60.2201C149.077 60.2201 148.286 61.0326 147.994 62.3659H149.411C149.557 61.6576 149.577 61.3451 150.307 61.3451C150.869 61.3451 150.765 61.4493 150.682 61.9493C150.577 62.4076 150.494 62.3451 150.098 62.4493L149.202 62.6784C148.432 62.9076 147.661 63.3659 147.39 64.5534C147.182 65.5951 147.807 66.2618 148.682 66.2618C149.307 66.2618 149.911 65.9493 150.265 65.4701H149.973C149.932 65.8034 150.494 66.1784 150.973 66.1784C151.182 66.1784 151.369 66.1159 151.682 65.9701L151.932 64.8243C151.494 65.0534 151.557 64.9909 151.494 64.9909C151.327 64.9909 151.432 65.0118 151.473 64.8034L152.119 61.7201ZM150.244 63.9909C150.057 64.7826 149.848 65.0743 149.202 65.0743C148.744 65.0743 148.786 64.9076 148.89 64.4493C148.973 64.0534 148.994 63.9284 149.327 63.7826C149.682 63.6159 150.432 63.4493 150.327 63.5118L150.244 63.9909Z" fill="#1C1C1B"/>
<path d="M152.145 66.1159H153.374L154.103 62.6993C154.312 61.6993 154.749 61.6784 155.249 61.6784C155.416 61.6784 155.624 61.7201 155.832 61.7826L156.124 60.3451C155.853 60.2409 155.791 60.2201 155.666 60.2201C155.062 60.2201 154.437 60.6576 154.103 61.1993H154.416L154.603 60.3659H153.124L151.895 66.1159H152.145Z" fill="#1C1C1B"/>
<path d="M159.714 63.3659L159.818 62.8034C160.152 61.3034 159.735 60.2201 158.235 60.2201C156.547 60.2201 155.735 61.9076 155.443 63.3243C154.922 65.8034 156.152 66.2618 157.027 66.2618C158.193 66.2618 159.256 65.3243 159.547 63.9284H158.152C158.027 64.4493 157.964 65.1368 157.193 65.1368C156.381 65.1368 156.672 64.4076 156.839 63.6784L156.86 63.5743H159.672L159.714 63.3659ZM157.047 62.6368L157.068 62.5326C157.214 61.8243 157.402 61.3451 158.089 61.3451C158.693 61.3451 158.61 61.6576 158.464 62.3451L158.443 62.4493H157.089L157.047 62.6368Z" fill="#1C1C1B"/>
<path d="M159.594 66.1159H163.323L163.594 64.8242H161.49L164.281 61.5326L164.531 60.3659H160.719L160.448 61.6367H162.469L159.594 65.0117L159.344 66.1159H159.594Z" fill="#1C1C1B"/>
<path d="M166.377 66.1159H167.606L169.21 58.5951H167.752L166.147 66.1159H166.377Z" fill="#1C1C1B"/>
<path d="M173.034 63.3659L173.138 62.8034C173.472 61.3034 173.055 60.2201 171.555 60.2201C169.867 60.2201 169.055 61.9076 168.763 63.3243C168.242 65.8034 169.472 66.2618 170.347 66.2618C171.513 66.2618 172.576 65.3243 172.867 63.9284H171.472C171.347 64.4493 171.284 65.1368 170.513 65.1368C169.701 65.1368 169.992 64.4076 170.159 63.6784L170.18 63.5743H172.992L173.034 63.3659ZM170.367 62.6368L170.388 62.5326C170.534 61.8243 170.722 61.3451 171.409 61.3451C172.013 61.3451 171.93 61.6576 171.784 62.3451L171.763 62.4493H170.409L170.367 62.6368Z" fill="#1C1C1B"/>
<path d="M177.518 62.1159L177.581 61.8659C177.706 61.1993 177.393 60.2201 176.018 60.2201C174.914 60.2201 173.872 60.8659 173.664 61.8868C173.477 62.7409 173.935 63.3451 174.685 63.6159L175.497 63.9284C175.852 64.0743 175.81 64.1368 175.727 64.5326C175.622 65.0326 175.456 65.1368 174.872 65.1368C174.247 65.1368 174.289 64.9909 174.414 64.3659L174.497 64.0118H173.164L173.081 64.3868C172.852 65.4284 173.331 66.2618 174.685 66.2618C175.768 66.2618 176.914 65.5743 177.164 64.4284C177.331 63.5743 176.872 62.9493 176.122 62.6784L175.477 62.4493C174.956 62.2409 174.997 62.2618 175.081 61.8451C175.185 61.3451 175.393 61.3451 175.81 61.3451C176.372 61.3451 176.227 61.5534 176.143 61.9701L176.081 62.3034H177.477L177.518 62.1159Z" fill="#1C1C1B"/>
<path d="M184.324 63.3659L184.428 62.8034C184.762 61.3034 184.345 60.2201 182.845 60.2201C181.157 60.2201 180.345 61.9076 180.053 63.3243C179.532 65.8034 180.762 66.2618 181.637 66.2618C182.803 66.2618 183.866 65.3243 184.157 63.9284H182.762C182.637 64.4493 182.574 65.1368 181.803 65.1368C180.991 65.1368 181.282 64.4076 181.449 63.6784L181.47 63.5743H184.282L184.324 63.3659ZM181.657 62.6368L181.678 62.5326C181.824 61.8243 182.012 61.3451 182.699 61.3451C183.303 61.3451 183.22 61.6576 183.074 62.3451L183.053 62.4493H181.699L181.657 62.6368ZM182.512 60.0326H183.324L185.053 58.2201H183.324L182.157 60.0326H182.512Z" fill="#1C1C1B"/>
<path d="M184.517 66.1159H185.746L187.35 58.5951H185.892L184.287 66.1159H184.517Z" fill="#1C1C1B"/>
<path d="M191.174 63.3659L191.278 62.8034C191.612 61.3034 191.195 60.2201 189.695 60.2201C188.007 60.2201 187.195 61.9076 186.903 63.3243C186.382 65.8034 187.612 66.2618 188.487 66.2618C189.653 66.2618 190.716 65.3243 191.007 63.9284H189.612C189.487 64.4493 189.424 65.1368 188.653 65.1368C187.841 65.1368 188.132 64.4076 188.299 63.6784L188.32 63.5743H191.132L191.174 63.3659ZM188.507 62.6368L188.528 62.5326C188.674 61.8243 188.862 61.3451 189.549 61.3451C190.153 61.3451 190.07 61.6576 189.924 62.3451L189.903 62.4493H188.549L188.507 62.6368ZM189.362 60.0326H190.174L191.903 58.2201H190.174L189.007 60.0326H189.362Z" fill="#1C1C1B"/>
<path d="M191.367 66.1159H192.596L193.408 62.3243C193.554 61.6159 193.867 61.4493 194.304 61.4493C194.742 61.4493 194.7 61.5326 194.554 62.2409L193.721 66.1159H195.2L196.012 62.3243C196.158 61.6159 196.45 61.4493 196.887 61.4493C197.325 61.4493 197.283 61.5326 197.137 62.2409L196.304 66.1159H197.783L198.7 61.8451C198.908 60.8034 198.262 60.2201 197.492 60.2201C196.846 60.2201 196.242 60.5743 196.075 60.7826C196.075 60.7826 195.658 60.2201 194.887 60.2201C194.367 60.2201 193.658 60.5743 193.325 60.9909H193.637L193.762 60.3659H192.346L191.137 66.1159H191.367Z" fill="#1C1C1B"/>
<path d="M203.204 63.3659L203.308 62.8034C203.642 61.3034 203.225 60.2201 201.725 60.2201C200.037 60.2201 199.225 61.9076 198.933 63.3243C198.412 65.8034 199.642 66.2618 200.517 66.2618C201.683 66.2618 202.746 65.3243 203.037 63.9284H201.642C201.517 64.4493 201.454 65.1368 200.683 65.1368C199.871 65.1368 200.162 64.4076 200.329 63.6784L200.35 63.5743H203.162L203.204 63.3659ZM200.537 62.6368L200.558 62.5326C200.704 61.8243 200.892 61.3451 201.579 61.3451C202.183 61.3451 202.1 61.6576 201.954 62.3451L201.933 62.4493H200.579L200.537 62.6368Z" fill="#1C1C1B"/>
<path d="M203.355 66.1159H204.584L205.397 62.3243C205.542 61.6159 205.834 61.4493 206.292 61.4493C206.834 61.4493 206.772 61.5326 206.626 62.2409L205.813 66.1159H207.272L208.167 61.8659C208.397 60.7826 207.772 60.2201 206.959 60.2201C206.355 60.2201 205.647 60.5743 205.313 60.9909H205.605L205.751 60.3659H204.334L203.105 66.1159H203.355Z" fill="#1C1C1B"/>
<path d="M208.644 61.5326H209.144L208.477 64.6784C208.248 65.7826 208.769 66.1784 209.498 66.1784C209.852 66.1784 210.144 66.1368 210.561 66.0534L210.811 64.8659C210.457 64.9284 210.332 64.9284 210.165 64.9284C209.79 64.9284 209.894 64.9701 209.977 64.5534L210.623 61.5326H211.498L211.748 60.3659H210.873L211.207 58.8243H209.727L209.394 60.3659H208.665L208.415 61.5326H208.644Z" fill="#1C1C1B"/>
<path d="M215.278 62.1159L215.341 61.8659C215.466 61.1993 215.153 60.2201 213.778 60.2201C212.674 60.2201 211.632 60.8659 211.424 61.8868C211.237 62.7409 211.695 63.3451 212.445 63.6159L213.257 63.9284C213.612 64.0743 213.57 64.1368 213.487 64.5326C213.382 65.0326 213.216 65.1368 212.632 65.1368C212.007 65.1368 212.049 64.9909 212.174 64.3659L212.257 64.0118H210.924L210.841 64.3868C210.612 65.4284 211.091 66.2618 212.445 66.2618C213.528 66.2618 214.674 65.5743 214.924 64.4284C215.091 63.5743 214.632 62.9493 213.882 62.6784L213.237 62.4493C212.716 62.2409 212.757 62.2618 212.841 61.8451C212.945 61.3451 213.153 61.3451 213.57 61.3451C214.132 61.3451 213.987 61.5534 213.903 61.9701L213.841 62.3034H215.237L215.278 62.1159Z" fill="#1C1C1B"/>
<path d="M222.209 61.7201C222.417 60.7826 221.542 60.2201 220.584 60.2201C219.167 60.2201 218.376 61.0326 218.084 62.3659H219.501C219.647 61.6576 219.667 61.3451 220.397 61.3451C220.959 61.3451 220.855 61.4493 220.772 61.9493C220.667 62.4076 220.584 62.3451 220.188 62.4493L219.292 62.6784C218.522 62.9076 217.751 63.3659 217.48 64.5534C217.272 65.5951 217.897 66.2618 218.772 66.2618C219.397 66.2618 220.001 65.9493 220.355 65.4701H220.063C220.022 65.8034 220.584 66.1784 221.063 66.1784C221.272 66.1784 221.459 66.1159 221.772 65.9701L222.022 64.8243C221.584 65.0534 221.647 64.9909 221.584 64.9909C221.417 64.9909 221.522 65.0118 221.563 64.8034L222.209 61.7201ZM220.334 63.9909C220.147 64.7826 219.938 65.0743 219.292 65.0743C218.834 65.0743 218.876 64.9076 218.98 64.4493C219.063 64.0534 219.084 63.9284 219.417 63.7826C219.772 63.6159 220.522 63.4493 220.417 63.5118L220.334 63.9909Z" fill="#1C1C1B"/>
<path d="M223.153 66.1159H224.528L227.257 60.3659H225.716L223.966 64.5951H224.257L224.216 60.3659H222.653L222.966 66.1159H223.153Z" fill="#1C1C1B"/>
<path d="M230.918 61.7201C231.127 60.7826 230.252 60.2201 229.293 60.2201C227.877 60.2201 227.085 61.0326 226.793 62.3659H228.21C228.356 61.6576 228.377 61.3451 229.106 61.3451C229.668 61.3451 229.564 61.4493 229.481 61.9493C229.377 62.4076 229.293 62.3451 228.897 62.4493L228.002 62.6784C227.231 62.9076 226.46 63.3659 226.189 64.5534C225.981 65.5951 226.606 66.2618 227.481 66.2618C228.106 66.2618 228.71 65.9493 229.064 65.4701H228.772C228.731 65.8034 229.293 66.1784 229.772 66.1784C229.981 66.1784 230.168 66.1159 230.481 65.9701L230.731 64.8243C230.293 65.0534 230.356 64.9909 230.293 64.9909C230.127 64.9909 230.231 65.0118 230.272 64.8034L230.918 61.7201ZM229.043 63.9909C228.856 64.7826 228.647 65.0743 228.002 65.0743C227.543 65.0743 227.585 64.9076 227.689 64.4493C227.772 64.0534 227.793 63.9284 228.127 63.7826C228.481 63.6159 229.231 63.4493 229.127 63.5118L229.043 63.9909Z" fill="#1C1C1B"/>
<path d="M230.944 66.1159H232.173L232.986 62.3243C233.132 61.6159 233.423 61.4493 233.882 61.4493C234.423 61.4493 234.361 61.5326 234.215 62.2409L233.402 66.1159H234.861L235.757 61.8659C235.986 60.7826 235.361 60.2201 234.548 60.2201C233.944 60.2201 233.236 60.5743 232.902 60.9909H233.194L233.34 60.3659H231.923L230.694 66.1159H230.944Z" fill="#1C1C1B"/>
<path d="M236.233 61.5326H236.733L236.067 64.6784C235.837 65.7826 236.358 66.1784 237.087 66.1784C237.442 66.1784 237.733 66.1368 238.15 66.0534L238.4 64.8659C238.046 64.9284 237.921 64.9284 237.754 64.9284C237.379 64.9284 237.483 64.9701 237.567 64.5534L238.212 61.5326H239.087L239.337 60.3659H238.462L238.796 58.8243H237.317L236.983 60.3659H236.254L236.004 61.5326H236.233Z" fill="#1C1C1B"/>
<path d="M243.684 66.1159H244.851L246.455 58.5951H244.976L244.476 60.9909H244.767C244.705 60.6993 244.142 60.2201 243.559 60.2201C242.726 60.2201 241.622 60.7826 241.122 63.1576C240.705 65.0118 241.184 66.2618 242.455 66.2618C243.226 66.2618 243.726 65.7618 243.913 65.4493H243.58L243.434 66.1159H243.684ZM244.038 63.3034C243.788 64.4493 243.663 65.0118 242.913 65.0118C242.163 65.0118 242.372 64.4284 242.642 63.2201C242.934 61.7618 243.08 61.4493 243.684 61.4493C244.517 61.4493 244.309 62.0118 244.038 63.3034Z" fill="#1C1C1B"/>
<path d="M250.223 63.3659L250.327 62.8034C250.661 61.3034 250.244 60.2201 248.744 60.2201C247.057 60.2201 246.244 61.9076 245.952 63.3243C245.432 65.8034 246.661 66.2618 247.536 66.2618C248.702 66.2618 249.765 65.3243 250.057 63.9284H248.661C248.536 64.4493 248.473 65.1368 247.702 65.1368C246.89 65.1368 247.182 64.4076 247.348 63.6784L247.369 63.5743H250.182L250.223 63.3659ZM247.557 62.6368L247.577 62.5326C247.723 61.8243 247.911 61.3451 248.598 61.3451C249.202 61.3451 249.119 61.6576 248.973 62.3451L248.952 62.4493H247.598L247.557 62.6368Z" fill="#1C1C1B"/>
<path d="M253.253 61.5326H253.753L253.087 64.6784C252.857 65.7826 253.378 66.1784 254.107 66.1784C254.462 66.1784 254.753 66.1368 255.17 66.0534L255.42 64.8659C255.066 64.9284 254.941 64.9284 254.774 64.9284C254.399 64.9284 254.503 64.9701 254.587 64.5534L255.232 61.5326H256.107L256.357 60.3659H255.482L255.816 58.8243H254.337L254.003 60.3659H253.274L253.024 61.5326H253.253Z" fill="#1C1C1B"/>
<path d="M255.554 66.1159H256.783L257.512 62.6993C257.721 61.6993 258.158 61.6784 258.658 61.6784C258.825 61.6784 259.033 61.7201 259.242 61.7826L259.533 60.3451C259.262 60.2409 259.2 60.2201 259.075 60.2201C258.471 60.2201 257.846 60.6576 257.512 61.1993H257.825L258.012 60.3659H256.533L255.304 66.1159H255.554Z" fill="#1C1C1B"/>
<path d="M258.746 66.1159H259.975L261.204 60.3659H259.725L258.517 66.1159H258.746ZM260.058 59.9701H261.287L261.6 58.5118H260.121L259.829 59.9701H260.058Z" fill="#1C1C1B"/>
<path d="M265.403 63.3659L265.507 62.8034C265.841 61.3034 265.424 60.2201 263.924 60.2201C262.237 60.2201 261.424 61.9076 261.132 63.3243C260.612 65.8034 261.841 66.2618 262.716 66.2618C263.882 66.2618 264.945 65.3243 265.237 63.9284H263.841C263.716 64.4493 263.653 65.1368 262.882 65.1368C262.07 65.1368 262.362 64.4076 262.528 63.6784L262.549 63.5743H265.362L265.403 63.3659ZM262.737 62.6368L262.757 62.5326C262.903 61.8243 263.091 61.3451 263.778 61.3451C264.382 61.3451 264.299 61.6576 264.153 62.3451L264.132 62.4493H262.778L262.737 62.6368Z" fill="#1C1C1B"/>
<path d="M265.554 66.1159H266.783L267.512 62.6993C267.721 61.6993 268.158 61.6784 268.658 61.6784C268.825 61.6784 269.033 61.7201 269.242 61.7826L269.533 60.3451C269.262 60.2409 269.2 60.2201 269.075 60.2201C268.471 60.2201 267.846 60.6576 267.512 61.1993H267.825L268.012 60.3659H266.533L265.304 66.1159H265.554Z" fill="#1C1C1B"/>
<path d="M132.958 43.872H133.47C133.7 43.872 133.884 43.8027 134.022 43.664C134.166 43.5253 134.238 43.3093 134.238 43.016C134.238 42.728 134.177 42.5093 134.054 42.36C133.932 42.2107 133.726 42.136 133.438 42.136H132.958V43.872ZM131.806 41.288H133.822C134.116 41.288 134.361 41.3387 134.558 41.44C134.761 41.536 134.924 41.664 135.046 41.824C135.169 41.984 135.257 42.168 135.31 42.376C135.364 42.5787 135.39 42.7867 135.39 43C135.39 43.2933 135.345 43.5493 135.254 43.768C135.169 43.9867 135.046 44.1653 134.886 44.304C134.732 44.4427 134.542 44.5467 134.318 44.616C134.094 44.6853 133.846 44.72 133.574 44.72H132.958V47H131.806V41.288ZM136.987 44.144C136.987 44.528 136.995 44.856 137.011 45.128C137.032 45.3947 137.069 45.6133 137.123 45.784C137.181 45.9493 137.261 46.072 137.363 46.152C137.469 46.2267 137.608 46.264 137.779 46.264C137.949 46.264 138.085 46.2267 138.187 46.152C138.293 46.072 138.373 45.9493 138.427 45.784C138.485 45.6133 138.523 45.3947 138.539 45.128C138.56 44.856 138.571 44.528 138.571 44.144C138.571 43.76 138.56 43.4347 138.539 43.168C138.523 42.9013 138.485 42.6827 138.427 42.512C138.373 42.3413 138.293 42.2187 138.187 42.144C138.085 42.064 137.949 42.024 137.779 42.024C137.608 42.024 137.469 42.064 137.363 42.144C137.261 42.2187 137.181 42.3413 137.123 42.512C137.069 42.6827 137.032 42.9013 137.011 43.168C136.995 43.4347 136.987 43.76 136.987 44.144ZM135.835 44.144C135.835 43.712 135.853 43.3147 135.891 42.952C135.933 42.584 136.021 42.2693 136.155 42.008C136.293 41.7467 136.491 41.544 136.747 41.4C137.003 41.2507 137.347 41.176 137.779 41.176C138.211 41.176 138.555 41.2507 138.811 41.4C139.067 41.544 139.261 41.7467 139.395 42.008C139.533 42.2693 139.621 42.584 139.659 42.952C139.701 43.3147 139.723 43.712 139.723 44.144C139.723 44.5813 139.701 44.9813 139.659 45.344C139.621 45.7067 139.533 46.0187 139.395 46.28C139.261 46.5413 139.067 46.7413 138.811 46.88C138.555 47.0187 138.211 47.088 137.779 47.088C137.347 47.088 137.003 47.0187 136.747 46.88C136.491 46.7413 136.293 46.5413 136.155 46.28C136.021 46.0187 135.933 45.7067 135.891 45.344C135.853 44.9813 135.835 44.5813 135.835 44.144ZM142.84 43.216C142.84 42.8 142.789 42.4987 142.688 42.312C142.592 42.12 142.413 42.024 142.152 42.024C142.008 42.024 141.888 42.064 141.792 42.144C141.701 42.2187 141.629 42.344 141.576 42.52C141.523 42.6907 141.485 42.9173 141.464 43.2C141.443 43.4773 141.432 43.8187 141.432 44.224C141.432 44.656 141.445 45.0053 141.472 45.272C141.504 45.5387 141.549 45.7467 141.608 45.896C141.672 46.04 141.749 46.1387 141.84 46.192C141.936 46.24 142.045 46.264 142.168 46.264C142.269 46.264 142.363 46.248 142.448 46.216C142.539 46.1787 142.616 46.1093 142.68 46.008C142.744 45.9013 142.795 45.7547 142.832 45.568C142.869 45.376 142.888 45.1253 142.888 44.816H144.04C144.04 45.1253 144.016 45.4187 143.968 45.696C143.92 45.9733 143.829 46.216 143.696 46.424C143.568 46.632 143.384 46.7947 143.144 46.912C142.909 47.0293 142.603 47.088 142.224 47.088C141.792 47.088 141.448 47.0187 141.192 46.88C140.936 46.7413 140.739 46.5413 140.6 46.28C140.467 46.0187 140.379 45.7067 140.336 45.344C140.299 44.9813 140.28 44.5813 140.28 44.144C140.28 43.712 140.299 43.3147 140.336 42.952C140.379 42.584 140.467 42.2693 140.6 42.008C140.739 41.7467 140.936 41.544 141.192 41.4C141.448 41.2507 141.792 41.176 142.224 41.176C142.635 41.176 142.957 41.2427 143.192 41.376C143.432 41.5093 143.611 41.68 143.728 41.888C143.845 42.0907 143.917 42.312 143.944 42.552C143.976 42.7867 143.992 43.008 143.992 43.216H142.84ZM144.697 41.288H145.849V43.472H147.193V41.288H148.345V47H147.193V44.464H145.849V47H144.697V41.288ZM152.334 41.288V42.232H150.294V43.576H152.214V44.52H150.294V46.056H152.414V47H149.142V41.288H152.334Z" fill="#1C1C1B"/>
<path d="M182.875 43.216C182.875 42.8 182.824 42.4987 182.723 42.312C182.627 42.12 182.448 42.024 182.187 42.024C182.043 42.024 181.923 42.064 181.827 42.144C181.736 42.2187 181.664 42.344 181.611 42.52C181.558 42.6907 181.52 42.9173 181.499 43.2C181.478 43.4773 181.467 43.8187 181.467 44.224C181.467 44.656 181.48 45.0053 181.507 45.272C181.539 45.5387 181.584 45.7467 181.643 45.896C181.707 46.04 181.784 46.1387 181.875 46.192C181.971 46.24 182.08 46.264 182.203 46.264C182.304 46.264 182.398 46.248 182.483 46.216C182.574 46.1787 182.651 46.1093 182.715 46.008C182.779 45.9013 182.83 45.7547 182.867 45.568C182.904 45.376 182.923 45.1253 182.923 44.816H184.075C184.075 45.1253 184.051 45.4187 184.003 45.696C183.955 45.9733 183.864 46.216 183.731 46.424C183.603 46.632 183.419 46.7947 183.179 46.912C182.944 47.0293 182.638 47.088 182.259 47.088C181.827 47.088 181.483 47.0187 181.227 46.88C180.971 46.7413 180.774 46.5413 180.635 46.28C180.502 46.0187 180.414 45.7067 180.371 45.344C180.334 44.9813 180.315 44.5813 180.315 44.144C180.315 43.712 180.334 43.3147 180.371 42.952C180.414 42.584 180.502 42.2693 180.635 42.008C180.774 41.7467 180.971 41.544 181.227 41.4C181.483 41.2507 181.827 41.176 182.259 41.176C182.67 41.176 182.992 41.2427 183.227 41.376C183.467 41.5093 183.646 41.68 183.763 41.888C183.88 42.0907 183.952 42.312 183.979 42.552C184.011 42.7867 184.027 43.008 184.027 43.216H182.875ZM187.116 44.848L186.564 42.28H186.548L185.996 44.848H187.116ZM187.268 41.288L188.78 47H187.58L187.316 45.792H185.796L185.532 47H184.332L185.844 41.288H187.268ZM189.177 41.288H191.305C191.785 41.288 192.159 41.4107 192.425 41.656C192.692 41.896 192.825 42.264 192.825 42.76C192.825 43.144 192.748 43.4587 192.593 43.704C192.439 43.944 192.199 44.0987 191.873 44.168V44.184C192.161 44.2267 192.372 44.32 192.505 44.464C192.639 44.608 192.721 44.84 192.753 45.16C192.764 45.2667 192.772 45.384 192.777 45.512C192.783 45.6347 192.788 45.7733 192.793 45.928C192.804 46.232 192.82 46.464 192.841 46.624C192.873 46.784 192.943 46.8933 193.049 46.952V47H191.801C191.743 46.92 191.705 46.8293 191.689 46.728C191.673 46.6213 191.663 46.512 191.657 46.4L191.625 45.304C191.615 45.08 191.559 44.904 191.457 44.776C191.356 44.648 191.185 44.584 190.945 44.584H190.329V47H189.177V41.288ZM190.329 43.784H190.809C191.087 43.784 191.3 43.72 191.449 43.592C191.599 43.4587 191.673 43.2373 191.673 42.928C191.673 42.4 191.407 42.136 190.873 42.136H190.329V43.784ZM196.826 41.288V42.232H195.578V47H194.426V42.232H193.178V41.288H196.826ZM198.358 44.144C198.358 44.528 198.366 44.856 198.382 45.128C198.403 45.3947 198.44 45.6133 198.494 45.784C198.552 45.9493 198.632 46.072 198.734 46.152C198.84 46.2267 198.979 46.264 199.15 46.264C199.32 46.264 199.456 46.2267 199.558 46.152C199.664 46.072 199.744 45.9493 199.798 45.784C199.856 45.6133 199.894 45.3947 199.91 45.128C199.931 44.856 199.942 44.528 199.942 44.144C199.942 43.76 199.931 43.4347 199.91 43.168C199.894 42.9013 199.856 42.6827 199.798 42.512C199.744 42.3413 199.664 42.2187 199.558 42.144C199.456 42.064 199.32 42.024 199.15 42.024C198.979 42.024 198.84 42.064 198.734 42.144C198.632 42.2187 198.552 42.3413 198.494 42.512C198.44 42.6827 198.403 42.9013 198.382 43.168C198.366 43.4347 198.358 43.76 198.358 44.144ZM197.206 44.144C197.206 43.712 197.224 43.3147 197.262 42.952C197.304 42.584 197.392 42.2693 197.526 42.008C197.664 41.7467 197.862 41.544 198.118 41.4C198.374 41.2507 198.718 41.176 199.15 41.176C199.582 41.176 199.926 41.2507 200.182 41.4C200.438 41.544 200.632 41.7467 200.766 42.008C200.904 42.2693 200.992 42.584 201.03 42.952C201.072 43.3147 201.094 43.712 201.094 44.144C201.094 44.5813 201.072 44.9813 201.03 45.344C200.992 45.7067 200.904 46.0187 200.766 46.28C200.632 46.5413 200.438 46.7413 200.182 46.88C199.926 47.0187 199.582 47.088 199.15 47.088C198.718 47.088 198.374 47.0187 198.118 46.88C197.862 46.7413 197.664 46.5413 197.526 46.28C197.392 46.0187 197.304 45.7067 197.262 45.344C197.224 44.9813 197.206 44.5813 197.206 44.144ZM203.099 41.288L204.491 45.2H204.507V41.288H205.563V47H204.251L202.843 43H202.827V47H201.771V41.288H203.099Z" fill="#1C1C1B"/>
<path d="M150.406 31.9226C146.89 33.0192 136.08 37.0882 136.08 37.0882C134.735 36.3745 131.889 34.4336 131.889 34.4336C129.792 28.7414 133.896 19.3372 133.56 18.2013C133.195 16.9741 133.195 14.1933 133.195 14.1933C133.7 14.2281 134.292 14.2455 134.94 14.2455C139.971 14.2455 148.583 13.2925 148.583 13.2925C148.583 13.2925 148.692 15.2073 148.683 15.7643C148.596 20.6732 151.712 21.896 151.707 26.0302C151.703 30.6214 150.406 31.9226 150.406 31.9226ZM151.42 20.795C150.659 19.372 149.936 18.0316 149.975 15.7861C149.989 15.1986 149.884 13.4187 149.871 13.2185C149.854 12.8617 149.688 12.5353 149.418 12.3046C149.179 12.1088 148.888 12 148.583 12C148.535 12 148.487 12.0044 148.439 12.0087C148.352 12.0174 139.84 12.9487 134.94 12.9487C134.296 12.9487 133.739 12.9356 133.286 12.9008C133.256 12.9008 133.225 12.8965 133.195 12.8965C132.869 12.8965 132.555 13.0227 132.311 13.2446C132.05 13.4883 131.902 13.8321 131.902 14.1933C131.902 14.4849 131.911 17.0307 132.285 18.4363C132.246 18.8019 131.968 19.8246 131.72 20.7341C130.723 24.3809 129.056 30.4865 130.68 34.8818C130.771 35.1342 130.941 35.3518 131.163 35.5041C131.28 35.5825 134.083 37.4929 135.471 38.2284C135.662 38.3285 135.867 38.3807 136.08 38.3807C136.232 38.3807 136.389 38.3546 136.533 38.298C136.642 38.2545 147.351 34.229 150.789 33.1585C150.989 33.0932 151.172 32.9844 151.32 32.8365C151.599 32.5536 152.996 30.9086 153 26.0302C153.004 23.7455 152.16 22.1789 151.42 20.795Z" fill="#1C1C1B"/>
<path d="M137.068 21.5044C137.042 21.426 136.955 21.3825 136.872 21.4043C136.794 21.4304 136.75 21.5131 136.768 21.5958C136.785 21.6567 138.469 27.6535 136.955 34.3553C136.937 34.4205 136.968 34.4902 137.029 34.525C137.09 34.5598 137.164 34.5511 137.216 34.5032C137.264 34.451 138.456 33.263 138.43 29.3811C138.426 29.2506 138.426 29.1244 138.421 28.9938C138.313 25.2817 137.081 21.5435 137.068 21.5044Z" fill="#1C1C1B"/>
<path d="M146.995 16.4563C146.947 16.4737 142.299 18.3841 136.907 17.0829C136.855 17.0699 136.798 17.1004 136.776 17.1656C136.755 17.2266 136.763 17.3005 136.807 17.3528C136.846 17.4006 137.86 18.5626 140.928 18.4015C141.033 18.3972 141.133 18.3885 141.237 18.3798C144.17 18.1448 147.055 16.7696 147.086 16.7566C147.147 16.7261 147.177 16.6347 147.151 16.5564C147.129 16.4737 147.06 16.4302 146.995 16.4563Z" fill="#1C1C1B"/>
<path d="M134.836 32.1011V32.1054L134.183 32.3535V32.9148C134.183 32.9671 134.039 33.0149 133.861 33.0149C133.682 33.0149 133.539 32.9671 133.539 32.9148V32.5362C133.117 32.5014 132.764 32.0227 132.738 31.4309C132.716 30.9 132.964 30.4561 133.317 30.3429L134.313 29.9556V29.96C134.387 29.9295 134.461 29.9077 134.544 29.9077C134.984 29.9077 135.362 30.4082 135.388 31.0218C135.41 31.544 135.175 31.9749 134.836 32.1011ZM134.544 29.4508C134.431 29.4508 134.322 29.4682 134.209 29.5117C134.187 29.5161 134.17 29.5204 134.148 29.5291L133.151 29.9121C133.143 29.9164 133.134 29.9208 133.125 29.9252C132.594 30.121 132.251 30.7389 132.281 31.4483C132.312 32.088 132.629 32.632 133.077 32.867V32.9148C133.077 33.0062 133.117 33.4719 133.861 33.4719C134.605 33.4719 134.644 33.0062 134.644 32.9148V32.6711L135.001 32.5319C135.027 32.5232 135.049 32.5101 135.071 32.4971C135.567 32.2751 135.876 31.6833 135.845 31.0044C135.806 30.134 135.236 29.4508 134.544 29.4508Z" fill="#1C1C1B"/>
<path d="M134.043 30.4996C133.939 30.4474 133.808 30.4822 133.743 30.5779C133.682 30.678 133.704 30.8086 133.795 30.8826C133.917 30.9783 134.009 31.1393 134.048 31.3177C134.078 31.4701 134.07 31.6224 134.017 31.7442C133.974 31.853 134.022 31.9792 134.122 32.0358C134.157 32.0532 134.196 32.0619 134.231 32.0619C134.309 32.0619 134.379 32.0271 134.422 31.9618C134.566 31.7486 134.618 31.4701 134.561 31.2046C134.496 30.8956 134.305 30.6302 134.043 30.4996Z" fill="#1C1C1B"/>
<path d="M190.037 32.7375C189.505 32.7375 189.051 32.1368 189.018 31.3981C188.986 30.6553 189.392 30.0547 189.919 30.0547C190.451 30.0547 190.906 30.6553 190.938 31.3981C190.971 32.1368 190.569 32.7375 190.037 32.7375ZM189.919 29.2754C189.509 29.2754 189.116 29.4499 188.811 29.7665C188.422 30.1724 188.215 30.7812 188.243 31.4306C188.292 32.5995 189.083 33.5167 190.037 33.5167C190.451 33.5167 190.845 33.3422 191.145 33.0297C191.535 32.6198 191.742 32.015 191.713 31.3616C191.665 30.1927 190.877 29.2754 189.919 29.2754Z" fill="#1C1C1B"/>
<path d="M198.26 27.1689L195.066 23.9909C195.074 23.9828 195.082 23.9788 195.09 23.9747L203.914 19.9891L206.795 22.2416L198.26 27.1689ZM194.794 36.6297V24.5429L197.846 27.5829C197.96 27.6925 198.11 27.7534 198.26 27.7534C198.357 27.7534 198.459 27.7249 198.552 27.6722L203.549 24.7865V31.0328L194.794 36.6297ZM202.932 19.7902L195.208 23.2807L195.204 17.6188L202.932 19.7902ZM197.4 14.2054L206.114 16.0481L203.715 19.4249C203.687 19.4046 203.658 19.3884 203.626 19.3803L195.115 16.9856L197.4 14.2054ZM185.621 19.7253L182.431 16.7015L191.653 14.6722L194.632 17.01L185.621 19.7253ZM194.546 23.4633C194.514 23.439 194.49 23.4065 194.449 23.3903L186.417 20.0946L194.619 17.6229L194.628 23.4796C194.599 23.4714 194.575 23.4674 194.546 23.4633ZM194.209 23.9463L190.82 27.5707L185.869 25.0665L182.204 23.2157L185.447 20.3259L194.209 23.926V23.9463ZM194.209 36.6663L185.869 32.4209V25.72L190.557 28.0902C190.638 28.1349 190.731 28.1552 190.82 28.1552C190.975 28.1552 191.133 28.0902 191.243 27.9685L194.209 24.8027V36.6663ZM207.546 21.296L205.192 19.429L207.096 16.7462C207.331 16.4134 207.384 15.9872 207.238 15.6097C207.088 15.2323 206.759 14.9522 206.365 14.867L197.647 13.0244C197.566 13.0081 197.485 13 197.4 13C197.042 13 196.697 13.1583 196.466 13.4383L194.729 15.5529L192.395 13.7224C192.184 13.556 191.92 13.4667 191.653 13.4667C191.567 13.4667 191.478 13.4749 191.393 13.4952L182.171 15.5204C181.733 15.6179 181.388 15.9466 181.266 16.3768C181.149 16.8071 181.274 17.2697 181.599 17.5782L184.083 19.9282L181.404 22.3147C181.104 22.5826 180.958 22.9763 181.011 23.374C181.059 23.7677 181.307 24.1127 181.66 24.2913L184.659 25.8092L184.663 32.4249C184.663 32.8754 184.919 33.2935 185.325 33.4964L193.958 37.8879C194.128 37.9772 194.315 38.0219 194.502 38.0219C194.729 38.0219 194.956 37.9569 195.155 37.8311L204.198 32.0475C204.547 31.8242 204.758 31.4427 204.758 31.0328L204.754 24.8108L207.4 23.2847C207.745 23.0859 207.968 22.7287 207.997 22.3309C208.025 21.9291 207.859 21.5436 207.546 21.296Z" fill="#1C1C1B"/>
</g>
<defs>
<clipPath id="clip0_22_414">
<rect width="275" height="72" fill="white"/>
</clipPath>
</defs>
</svg>
