<svg width="227" height="73" viewBox="0 0 227 73" fill="none" xmlns="http://www.w3.org/2000/svg">
<g clip-path="url(#clip0_22_560)">
<path d="M24.8542 72.1249C11.2344 72.1249 0.15625 61.177 0.15625 47.7187V0.317627H201.323C214.938 0.317627 226.016 11.2655 226.016 24.7239L226.021 72.1249" fill="white"/>
<path d="M24.8542 60.7916C11.2344 60.7916 0.15625 49.8385 0.15625 36.3801V0.317627H201.323C214.938 0.317627 226.016 11.2655 226.016 24.7239L226.021 60.7916" fill="white"/>
<path d="M201.323 5.98438H50.2708V36.3802C50.2708 46.7135 58.802 55.1198 69.2916 55.1198H220.349V24.724C220.349 14.3958 211.812 5.98438 201.323 5.98438Z" fill="white"/>
<path d="M218.458 53.2292H69.2916C59.8437 53.2292 52.1562 45.6719 52.1562 36.3802V7.875H201.323C210.771 7.875 218.458 15.4323 218.458 24.724V53.2292ZM201.323 5.98438H50.2708V36.3802C50.2708 46.7135 58.802 55.1198 69.2916 55.1198H220.349V24.724C220.349 14.3958 211.812 5.98438 201.323 5.98438Z" fill="#FCC42F"/>
<path d="M163.089 55.1198L176.099 28.5417L162.807 5.98438H201.323C211.812 5.98438 220.349 14.3906 220.349 24.724V55.1198" fill="#FCC42F"/>
<path d="M201.323 7.875H166.115L178.245 28.4583L166.12 53.2292H218.458V24.724C218.458 15.4323 210.771 7.875 201.323 7.875Z" fill="#FCC42F"/>
<path d="M206.281 41.6615H205.078C204.979 41.6615 204.885 41.6719 204.792 41.6875C205.354 35.4323 206.224 25.7708 206.646 21.3958C206.687 20.9531 206.359 20.5573 205.917 20.5156C205.463 20.4635 205.073 20.7969 205.031 21.2448C204.385 27.9635 202.677 47.1458 202.661 47.3385C202.63 47.6615 202.312 47.9271 201.943 47.9271H188.854C188.479 47.9271 188.167 47.6615 188.135 47.3385C188.12 47.1458 186.411 27.9635 185.765 21.2448C185.724 20.7969 185.333 20.4635 184.88 20.5156C184.437 20.5573 184.109 20.9531 184.151 21.3958C184.573 25.7708 185.443 35.4271 186.005 41.6875C185.911 41.6667 185.812 41.6562 185.719 41.6562H184.515C183.739 41.6562 183.104 42.2917 183.104 43.0677V48.1406C183.104 48.9167 183.739 49.5469 184.515 49.5469H185.719C186.297 49.5469 186.802 49.1927 187.015 48.6823C187.443 49.2135 188.104 49.5469 188.854 49.5469H201.943C202.687 49.5469 203.349 49.2135 203.781 48.6875C203.995 49.1927 204.495 49.5521 205.078 49.5521H206.281C207.057 49.5521 207.687 48.9219 207.687 48.1406V43.0677C207.687 42.2917 207.057 41.6615 206.281 41.6615Z" fill="#1C1C1B"/>
<path d="M190.344 25.1198V27.4115H191.016C191.411 27.4115 191.625 27.2292 191.625 26.6771V26.026C191.625 25.3333 191.401 25.1198 190.865 25.1198H190.344ZM190.344 22.0833V24.0521H190.802C191.24 24.0521 191.505 23.8646 191.505 23.2656V22.849C191.505 22.3125 191.323 22.0833 190.906 22.0833H190.344ZM192.677 22.7344V23C192.677 23.7656 192.443 24.2448 191.922 24.4896V24.5104C192.547 24.7604 192.797 25.3125 192.797 26.099V26.7083C192.797 27.8594 192.187 28.4792 191.016 28.4792H189.172V21.0156H190.938C192.156 21.0156 192.677 21.5833 192.677 22.7344Z" fill="#1C1C1B"/>
<path d="M194.833 26.1146H195.964L195.411 22.3385H195.385L194.833 26.1146ZM197.51 28.4792H196.328L196.125 27.125H194.688L194.479 28.4792H193.406L194.599 21.0156H196.313" fill="#1C1C1B"/>
<path d="M201.661 25.6926V26.6874C201.661 27.8801 201.062 28.5624 199.911 28.5624C198.76 28.5624 198.161 27.8801 198.161 26.6874V22.8072C198.161 21.6093 198.76 20.927 199.911 20.927C201.062 20.927 201.661 21.6093 201.661 22.8072V23.5312H200.552V22.7291C200.552 22.1978 200.318 21.9947 199.943 21.9947C199.573 21.9947 199.338 22.1978 199.338 22.7291V26.7603C199.338 27.2916 199.573 27.4843 199.943 27.4843C200.318 27.4843 200.552 27.2916 200.552 26.7603V25.6926" fill="#1C1C1B"/>
<path d="M192.703 31.2083V36.5365H193.365C193.734 36.5365 193.958 36.3438 193.958 35.8125V31.9323C193.958 31.401 193.734 31.2083 193.365 31.2083H192.703ZM191.531 30.1406H193.385C194.557 30.1406 195.13 30.7917 195.13 31.9844V35.7604C195.13 36.9531 194.557 37.6042 193.385 37.6042H191.531" fill="#1C1C1B"/>
<path d="M197.266 33.2865H198.875V34.349H197.266V36.5365H199.292V37.6042H196.094V30.1406H199.292V31.2031H197.266" fill="#1C1C1B"/>
<path d="M190.161 39.2656H193.786V40.3281H192.562V46.7292H191.385V40.3281H190.161" fill="#1C1C1B"/>
<path d="M195.688 40.3281V42.625H196.146C196.583 42.625 196.849 42.4323 196.849 41.8333V41.099C196.849 40.5677 196.667 40.3281 196.25 40.3281H195.688ZM196.969 46.7292C196.901 46.5365 196.859 46.4167 196.859 45.8125V44.6354C196.859 43.9479 196.625 43.6875 196.094 43.6875H195.688V46.7292H194.516V39.2656H196.286C197.5 39.2656 198.021 39.8281 198.021 40.9792V41.5677C198.021 42.3333 197.776 42.8229 197.255 43.0729V43.0938C197.839 43.3385 198.031 43.8906 198.031 44.6719V45.8229C198.031 46.1823 198.042 46.4531 198.161 46.7292" fill="#1C1C1B"/>
<path d="M199.016 46.7292H200.188V39.2656H199.016V46.7292Z" fill="#1C1C1B"/>
<path d="M207.125 17.6197H183.672V15.6666C183.672 15.5989 183.703 15.5676 183.698 15.5676H185.396C185.588 15.5676 185.771 15.4999 185.917 15.3697L188.047 13.5103C188.14 13.427 188.37 13.3437 188.661 13.3437H202.13C202.422 13.3437 202.656 13.427 202.75 13.5103L204.88 15.3697C205.026 15.4999 205.208 15.5676 205.401 15.5676H207.099C207.088 15.5676 207.125 15.5989 207.125 15.6666V17.6197ZM207.099 13.9791H205.698L203.792 12.3176C203.385 11.9583 202.781 11.7551 202.13 11.7551H188.661C188.015 11.7551 187.411 11.9583 187 12.3176L185.094 13.9791H183.698C182.807 13.9791 182.088 14.7395 182.088 15.6666V17.8124C182.088 18.1093 182.161 18.401 182.307 18.6614C182.37 18.7708 182.458 18.8697 182.562 18.9374C182.823 19.1093 183.12 19.1978 183.427 19.1978H207.37C207.677 19.1978 207.974 19.1093 208.234 18.9374C208.338 18.8697 208.427 18.7708 208.489 18.6614C208.63 18.401 208.708 18.1093 208.708 17.8124V15.6666C208.708 14.7395 207.984 13.9791 207.099 13.9791Z" fill="#1C1C1B"/>
<path d="M202.125 14.0781H188.667C188.297 14.0781 187.995 14.3802 187.995 14.75C187.995 15.1198 188.297 15.4219 188.667 15.4219H202.125C202.495 15.4219 202.797 15.1198 202.797 14.75C202.797 14.3802 202.495 14.0781 202.125 14.0781Z" fill="#1C1C1B"/>
<path d="M103.057 5.98438H50.2708V36.3802C50.2708 46.7135 58.802 55.1198 69.2916 55.1198H122.083V24.724C122.083 14.3958 113.547 5.98438 103.057 5.98438Z" fill="#FCC42F"/>
<path d="M63.8072 29.677C59.0051 29.677 55.1145 33.5676 55.1145 38.3697C55.1145 43.1718 59.0051 47.0624 63.8072 47.0624C68.6145 47.0624 72.5051 43.1718 72.5051 38.3697C72.5051 33.5676 68.6145 29.677 63.8072 29.677Z" fill="white"/>
<path d="M69.4792 39.7865H65.2292V44.0417H62.3906V39.7865H58.1406V36.9531H62.3906V32.7031H65.2292V36.9531H69.4792" fill="#1C1C1B"/>
<path d="M55.9426 26.9167V17.5156H58.427V24.8333H61.9843V26.9167" fill="#1C1C1B"/>
<path d="M63.0989 26.9167V17.5156H69.1718V19.599H65.5885V21.0729H68.651V23.1563H65.5885V24.8333H69.3176V26.9167" fill="#1C1C1B"/>
<path d="M75.2448 26.9167V19.599H72.7604V17.5156H80.2239V19.599H77.7343V26.9167" fill="#1C1C1B"/>
<path d="M83.7083 21.7969H84.6042C85.6042 21.7969 86.1094 21.3802 86.1094 20.5521C86.1094 20.1458 85.9792 19.8698 85.724 19.7135C85.4688 19.5573 85.0938 19.4792 84.6042 19.4792H83.7083V21.7969ZM81.2188 26.9167V17.5156H84.776C85.2813 17.5156 85.7604 17.5625 86.2188 17.6563C86.6771 17.7552 87.0729 17.9219 87.4167 18.151C87.7604 18.3802 88.0313 18.6927 88.2344 19.0833C88.4375 19.474 88.5365 19.9635 88.5365 20.5521C88.5365 21.2292 88.401 21.7865 88.125 22.2292C87.8542 22.6719 87.4844 23.0208 87.0208 23.2708L89.0573 26.9167H86.2813L84.6615 23.7604H83.7083V26.9167" fill="#1C1C1B"/>
<path d="M90.026 26.9167H92.5156V17.5156H90.026V26.9167Z" fill="#1C1C1B"/>
<path d="M75.5364 43.5937V34.1926H81.6666V36.276H78.026V38.0676H81.1458V40.151H78.026V43.5937" fill="#1C1C1B"/>
<path d="M85.0781 39.0208L84.9166 39.6718H86.651L86.4948 39.0208C86.3802 38.5676 86.2604 38.078 86.1458 37.5468C86.0312 37.0155 85.9166 36.5155 85.7968 36.0416H85.7395C85.6354 36.526 85.526 37.0312 85.4166 37.552C85.3073 38.078 85.1927 38.5676 85.0781 39.0208ZM81.4635 43.5937L84.3229 34.1926H87.3281L90.1927 43.5937H87.5625L87.0989 41.5989H84.4687L84.0052 43.5937" fill="#1C1C1B"/>
<path d="M94.7187 43.7656C94.1249 43.7656 93.552 43.6667 93.0103 43.4688C92.4635 43.2708 91.9895 42.974 91.578 42.5729C91.1666 42.1719 90.8385 41.6719 90.5989 41.0677C90.3593 40.4688 90.2395 39.7656 90.2395 38.9635C90.2395 38.1771 90.3645 37.474 90.6145 36.8594C90.8645 36.25 91.1978 35.7344 91.6197 35.3125C92.0364 34.8958 92.5208 34.5729 93.0676 34.349C93.6145 34.1302 94.1822 34.0156 94.7812 34.0156C95.4062 34.0156 95.9687 34.1406 96.4583 34.3854C96.953 34.6354 97.3645 34.9271 97.703 35.2604L96.401 36.8542C96.1718 36.651 95.9322 36.4844 95.6874 36.3542C95.4374 36.224 95.1562 36.1563 94.8385 36.1563C94.5572 36.1563 94.2968 36.2188 94.052 36.349C93.8072 36.474 93.5885 36.651 93.401 36.8802C93.2135 37.1146 93.0624 37.401 92.953 37.7344C92.8385 38.0729 92.7864 38.4531 92.7864 38.875C92.7864 39.7656 92.9687 40.4479 93.3437 40.9167C93.7135 41.3906 94.203 41.625 94.8072 41.625C95.177 41.625 95.4999 41.5469 95.7864 41.3854C96.0676 41.2292 96.3124 41.0365 96.5155 40.8177L97.8176 42.375C97.4114 42.8438 96.9478 43.1875 96.4218 43.4167C95.8958 43.651 95.328 43.7656 94.7187 43.7656Z" fill="#1C1C1B"/>
<path d="M98.776 43.5937H101.26V34.1926H98.776V43.5937Z" fill="#1C1C1B"/>
<path d="M103.031 43.5937V34.1926H105.521V41.5103H109.078V43.5937" fill="#1C1C1B"/>
<path d="M110.188 43.5937V34.1926H116.266V36.276H112.677V37.7499H115.745V39.8333H112.677V41.5103H116.411V43.5937" fill="#1C1C1B"/>
<path d="M28.5624 26.0625C26.8697 28.5521 28.3072 31.8281 30.052 33.4896C31.6458 35 32.9218 35.3594 33.0885 35.401L33.901 33.8438L36.2447 40.2552L29.6197 41.599L30.4999 39.9688L29.6041 39.4635C26.8124 37.6458 26.2239 35.1771 26.0312 34.4063C25.6978 33.0781 25.203 29.1094 28.5624 26.0625Z" fill="#1C1C1B"/>
<path d="M28.5312 26.1718C29.7344 28.927 33.2708 29.4635 35.6042 28.8697C37.6771 28.3437 38.6615 27.4895 38.8281 27.3333L38.8177 27.3176L37.9323 25.7864L44.599 27.2395L42.1875 33.5572L41.2917 31.9687L40.4219 32.4374C37.3958 33.828 34.9896 33.0103 34.2344 32.7603C32.9375 32.3333 29.3125 30.6353 28.5312 26.1718Z" fill="#1C1C1B"/>
<path d="M40.3177 19.5156C39.8541 22.8125 37.8698 24.3958 37.25 24.8958C36.1875 25.7552 32.802 27.8854 28.6198 26.1354C31.5937 26.6094 33.9531 23.9271 34.7135 21.6406C35.401 19.5885 35.1979 18.2917 35.1562 18.0885H35.1354L33.3698 18.0104L38.1823 13.1719L42.2083 18.6094L40.3906 18.5052" fill="#1C1C1B"/>
<path fill-rule="evenodd" clip-rule="evenodd" d="M20.0938 16.7291C18.5729 16.7291 17.3438 15.4999 17.3438 13.9791C17.3438 12.4583 18.5729 11.2239 20.0938 11.2239C21.6146 11.2239 22.849 12.4583 22.849 13.9791C22.849 15.4999 21.6146 16.7291 20.0938 16.7291Z" fill="#1C1C1B"/>
<path d="M15.8333 30.1146C16.0677 29.4688 16.4167 29.5104 16.4167 29.5104C16.4167 29.5104 16.7344 29.4427 16.9115 30.0938L19.4844 39.125C17.3385 38.5052 15.3802 37.4375 13.7135 36.0313L15.8333 30.1146ZM23.8594 5.98438C13.9167 5.98438 5.82812 14.0729 5.82812 24.0208C5.82812 33.9583 13.9167 42.0521 23.8594 42.0521C24.3906 42.0521 24.9115 42.0156 25.4323 41.9688L25.5521 43.7813L28.8542 40.5885L25.1615 37.776L25.3021 39.6771C24.8281 39.7188 24.3438 39.75 23.8594 39.75C23.0938 39.75 22.3438 39.6927 21.6094 39.5885L21.5365 39.1094L19.8229 24.5104C19.5885 21.7552 21.1615 21.3125 22.1354 21.7292L27.6042 23.9219C28.2292 24.1927 28.5313 23.6719 28.5313 23.6719C28.5313 23.6719 28.8854 23.1198 28.25 22.7135C28.25 22.7135 20.7969 17.776 19.2083 17.4792C17.0417 17.0729 14.8958 18.8281 14.4219 21.1146L11.776 34.0833C9.5 31.349 8.125 27.8438 8.125 24.0208C8.125 15.3438 15.1823 8.28646 23.8594 8.28646C28.4948 8.28646 32.6667 10.3021 35.5469 13.4948L37.1615 11.8594C33.8646 8.25 29.1198 5.98438 23.8594 5.98438Z" fill="#1C1C1B"/>
<path d="M139.462 40.574V41.636H138.058V47H136.762V41.636H135.358V40.574H139.462ZM141.239 40.574V45.056C141.239 45.218 141.248 45.368 141.266 45.506C141.29 45.638 141.329 45.755 141.383 45.857C141.443 45.953 141.521 46.031 141.617 46.091C141.719 46.145 141.845 46.172 141.995 46.172C142.151 46.172 142.277 46.145 142.373 46.091C142.469 46.031 142.544 45.953 142.598 45.857C142.658 45.755 142.697 45.638 142.715 45.506C142.739 45.368 142.751 45.218 142.751 45.056V40.574H144.047V45.056C144.047 45.464 143.99 45.803 143.876 46.073C143.762 46.337 143.609 46.547 143.417 46.703C143.225 46.859 143.006 46.964 142.76 47.018C142.514 47.072 142.259 47.099 141.995 47.099C141.731 47.099 141.476 47.075 141.23 47.027C140.984 46.979 140.765 46.883 140.573 46.739C140.381 46.589 140.228 46.379 140.114 46.109C140 45.839 139.943 45.488 139.943 45.056V40.574H141.239ZM146.163 46.046H146.667C146.979 46.046 147.231 45.977 147.423 45.839C147.615 45.701 147.711 45.446 147.711 45.074C147.711 44.888 147.684 44.735 147.63 44.615C147.582 44.489 147.513 44.39 147.423 44.318C147.339 44.24 147.237 44.186 147.117 44.156C146.997 44.126 146.865 44.111 146.721 44.111H146.163V46.046ZM146.163 43.211H146.532C146.892 43.211 147.153 43.148 147.315 43.022C147.483 42.89 147.567 42.671 147.567 42.365C147.567 42.059 147.492 41.843 147.342 41.717C147.192 41.591 146.955 41.528 146.631 41.528H146.163V43.211ZM144.867 40.574H147.036C147.3 40.574 147.543 40.601 147.765 40.655C147.993 40.709 148.188 40.799 148.35 40.925C148.512 41.051 148.638 41.219 148.728 41.429C148.818 41.639 148.863 41.897 148.863 42.203C148.863 42.551 148.782 42.851 148.62 43.103C148.458 43.349 148.215 43.517 147.891 43.607V43.625C148.251 43.673 148.536 43.826 148.746 44.084C148.956 44.342 149.061 44.687 149.061 45.119C149.061 45.371 149.028 45.611 148.962 45.839C148.896 46.067 148.782 46.268 148.62 46.442C148.464 46.61 148.257 46.745 147.999 46.847C147.747 46.949 147.432 47 147.054 47H144.867V40.574ZM153.458 40.574V41.636H151.163V43.148H153.323V44.21H151.163V45.938H153.548V47H149.867V40.574H153.458Z" fill="#1C1C1B"/>
<path d="M105.001 66L106.521 58.86H107.661L106.341 65.04H109.101L108.901 66H105.001ZM113.924 61.8L113.274 64.88C113.234 65.08 113.314 65.26 113.474 65.26C113.544 65.26 113.614 65.25 113.654 65.23L113.504 65.93C113.364 65.99 113.164 66.06 112.954 66.06C112.474 66.06 112.114 65.87 112.194 65.35H112.174C111.774 65.88 111.294 66.14 110.664 66.14C109.804 66.14 109.364 65.66 109.584 64.63C109.844 63.43 110.414 63.18 111.194 62.94L112.084 62.71C112.494 62.6 112.764 62.49 112.864 62.02C112.964 61.53 112.864 61.22 112.294 61.22C111.574 61.22 111.364 61.73 111.254 62.25H110.234C110.474 61.11 111.074 60.48 112.494 60.48C113.444 60.48 114.124 60.85 113.924 61.8ZM112.424 64.06L112.614 63.16C112.294 63.38 111.664 63.51 111.314 63.66C110.974 63.81 110.774 64.13 110.684 64.53C110.594 64.98 110.734 65.34 111.184 65.34C111.834 65.34 112.254 64.85 112.424 64.06ZM114.183 66L115.323 60.62H116.403L115.263 66H114.183ZM115.493 59.86L115.713 58.78H116.793L116.573 59.86H115.493ZM120.5 62.19H119.48L119.51 62.05C119.6 61.62 119.54 61.22 118.98 61.22C118.55 61.22 118.16 61.42 118.06 61.92C117.97 62.34 118.12 62.51 118.65 62.71L119.29 62.95C120.03 63.22 120.31 63.65 120.13 64.5C119.88 65.65 118.94 66.14 117.85 66.14C116.49 66.14 116.21 65.51 116.44 64.47L116.48 64.27H117.44L117.4 64.44C117.27 65.06 117.42 65.4 118.04 65.4C118.63 65.4 118.98 65.1 119.09 64.61C119.17 64.21 119.02 63.95 118.66 63.82L117.85 63.51C117.1 63.23 116.85 62.82 117.03 61.96C117.24 60.95 118.07 60.48 119.18 60.48C120.55 60.48 120.69 61.28 120.55 61.95L120.5 62.19ZM124.758 62.19H123.738L123.768 62.05C123.858 61.62 123.798 61.22 123.238 61.22C122.808 61.22 122.418 61.42 122.318 61.92C122.228 62.34 122.378 62.51 122.908 62.71L123.548 62.95C124.288 63.22 124.568 63.65 124.388 64.5C124.138 65.65 123.198 66.14 122.108 66.14C120.748 66.14 120.468 65.51 120.698 64.47L120.738 64.27H121.698L121.658 64.44C121.528 65.06 121.678 65.4 122.298 65.4C122.888 65.4 123.238 65.1 123.348 64.61C123.428 64.21 123.278 63.95 122.918 63.82L122.108 63.51C121.358 63.23 121.108 62.82 121.288 61.96C121.498 60.95 122.328 60.48 123.438 60.48C124.808 60.48 124.948 61.28 124.808 61.95L124.758 62.19ZM129.146 63.45H126.336L126.276 63.76C126.116 64.48 126.016 65.4 126.826 65.4C127.596 65.4 127.866 64.52 127.936 64.2H128.956C128.706 65.39 127.826 66.14 126.656 66.14C125.776 66.14 124.746 65.88 125.266 63.39C125.566 61.98 126.186 60.48 127.876 60.48C129.376 60.48 129.586 61.38 129.266 62.88L129.146 63.45ZM126.496 62.71H128.226L128.286 62.42C128.436 61.74 128.326 61.22 127.716 61.22C127.026 61.22 126.666 61.9 126.516 62.6L126.496 62.71ZM129.495 66L130.635 60.62H131.715L131.535 61.46H131.555C131.925 60.86 132.405 60.48 133.015 60.48C133.135 60.48 133.205 60.5 133.265 60.52L133.035 61.62C132.965 61.6 132.775 61.56 132.595 61.56C132.105 61.56 131.475 61.78 131.255 62.78L130.575 66H129.495ZM135.101 66L136.621 58.86H137.701L136.181 66H135.101ZM141.548 63.45H138.738L138.678 63.76C138.518 64.48 138.418 65.4 139.228 65.4C139.998 65.4 140.268 64.52 140.338 64.2H141.358C141.108 65.39 140.228 66.14 139.058 66.14C138.178 66.14 137.148 65.88 137.668 63.39C137.968 61.98 138.588 60.48 140.278 60.48C141.778 60.48 141.988 61.38 141.668 62.88L141.548 63.45ZM138.898 62.71H140.628L140.688 62.42C140.838 61.74 140.728 61.22 140.118 61.22C139.428 61.22 139.068 61.9 138.918 62.6L138.898 62.71ZM144.299 66L145.819 58.86H146.899L146.389 61.25H146.409C146.709 60.77 147.209 60.48 147.789 60.48C148.609 60.48 149.369 60.85 148.869 63.24C148.469 65.09 147.749 66.14 146.489 66.14C145.719 66.14 145.549 65.69 145.479 65.34H145.459L145.319 66H144.299ZM145.879 63.37C145.629 64.52 145.639 65.28 146.379 65.28C147.129 65.28 147.459 64.51 147.719 63.29C148.019 61.84 147.909 61.34 147.289 61.34C146.459 61.34 146.149 62.08 145.879 63.37ZM149.474 63.31C149.834 61.64 150.514 60.48 152.074 60.48C153.644 60.48 153.844 61.64 153.484 63.31C153.134 64.98 152.374 66.14 150.874 66.14C149.384 66.14 149.124 64.98 149.474 63.31ZM150.554 63.31C150.264 64.68 150.264 65.34 151.044 65.34C151.834 65.34 152.114 64.68 152.404 63.31C152.654 62.12 152.694 61.28 151.904 61.28C151.124 61.28 150.804 62.12 150.554 63.31ZM156.493 66L156.623 65.37H156.593C156.223 65.85 155.653 66.14 155.053 66.14C154.253 66.14 153.793 65.77 154.083 64.38L154.883 60.62H155.963L155.143 64.48C155.023 65.08 155.243 65.28 155.703 65.28C156.163 65.28 156.653 64.98 156.773 64.38L157.573 60.62H158.653L157.513 66H156.493ZM161.587 64.04H162.607C162.257 65.33 161.647 66.14 160.317 66.14C158.757 66.14 158.567 64.98 158.917 63.31C159.277 61.64 159.957 60.48 161.517 60.48C163.137 60.46 163.107 61.74 162.957 62.41H161.877C161.987 61.91 161.987 61.26 161.347 61.28C160.567 61.28 160.247 62.12 159.997 63.31C159.747 64.5 159.707 65.34 160.487 65.34C161.087 65.35 161.407 64.85 161.587 64.04ZM162.942 66L164.462 58.86H165.542L165.042 61.2L165.072 61.22C165.462 60.76 165.992 60.48 166.542 60.48C167.362 60.48 167.802 60.85 167.572 61.94L166.712 66H165.632L166.412 62.31C166.562 61.61 166.412 61.34 165.872 61.34C165.432 61.34 164.942 61.69 164.792 62.39L164.022 66H162.942ZM168.116 63.31C168.476 61.64 169.156 60.48 170.716 60.48C172.286 60.48 172.486 61.64 172.126 63.31C171.776 64.98 171.016 66.14 169.516 66.14C168.026 66.14 167.766 64.98 168.116 63.31ZM169.196 63.31C168.906 64.68 168.906 65.34 169.686 65.34C170.476 65.34 170.756 64.68 171.046 63.31C171.296 62.12 171.336 61.28 170.546 61.28C169.766 61.28 169.446 62.12 169.196 63.31ZM172.385 66L173.525 60.62H174.545L174.415 61.25H174.445C174.815 60.77 175.385 60.48 175.985 60.48C176.805 60.48 177.245 60.85 177.015 61.94L176.155 66H175.075L175.855 62.31C176.005 61.61 175.855 61.34 175.315 61.34C174.875 61.34 174.385 61.69 174.235 62.39L173.465 66H172.385ZM183.752 62.19H182.732L182.762 62.05C182.852 61.62 182.792 61.22 182.232 61.22C181.802 61.22 181.412 61.42 181.312 61.92C181.222 62.34 181.372 62.51 181.902 62.71L182.542 62.95C183.282 63.22 183.562 63.65 183.382 64.5C183.132 65.65 182.192 66.14 181.102 66.14C179.742 66.14 179.462 65.51 179.692 64.47L179.732 64.27H180.692L180.652 64.44C180.522 65.06 180.672 65.4 181.292 65.4C181.882 65.4 182.232 65.1 182.342 64.61C182.422 64.21 182.272 63.95 181.912 63.82L181.102 63.51C180.352 63.23 180.102 62.82 180.282 61.96C180.492 60.95 181.322 60.48 182.432 60.48C183.802 60.48 183.942 61.28 183.802 61.95L183.752 62.19ZM186.61 66L186.74 65.37H186.71C186.34 65.85 185.77 66.14 185.17 66.14C184.37 66.14 183.91 65.77 184.2 64.38L185 60.62H186.08L185.26 64.48C185.14 65.08 185.36 65.28 185.82 65.28C186.28 65.28 186.77 64.98 186.89 64.38L187.69 60.62H188.77L187.63 66H186.61ZM188.674 66L189.814 60.62H190.894L190.714 61.46H190.734C191.104 60.86 191.584 60.48 192.194 60.48C192.314 60.48 192.384 60.5 192.444 60.52L192.214 61.62C192.144 61.6 191.954 61.56 191.774 61.56C191.284 61.56 190.654 61.78 190.434 62.78L189.754 66H188.674ZM194.281 66L195.801 58.86H196.881L195.361 66H194.281ZM200.728 63.45H197.918L197.858 63.76C197.698 64.48 197.598 65.4 198.408 65.4C199.178 65.4 199.448 64.52 199.518 64.2H200.538C200.288 65.39 199.408 66.14 198.238 66.14C197.358 66.14 196.328 65.88 196.848 63.39C197.148 61.98 197.768 60.48 199.458 60.48C200.958 60.48 201.168 61.38 200.848 62.88L200.728 63.45ZM198.078 62.71H199.808L199.868 62.42C200.018 61.74 199.908 61.22 199.298 61.22C198.608 61.22 198.248 61.9 198.098 62.6L198.078 62.71ZM203.969 61.42L204.139 60.62H204.879L205.209 59.09H206.289L205.959 60.62H206.839L206.669 61.42H205.789L205.109 64.63C205.019 65.05 205.109 65.2 205.479 65.2C205.639 65.2 205.769 65.19 205.879 65.17L205.709 65.97C205.459 66.03 205.159 66.06 204.819 66.06C204.089 66.06 203.769 65.86 203.999 64.76L204.709 61.42H203.969ZM209.012 66L209.142 65.37H209.112C208.742 65.85 208.172 66.14 207.572 66.14C206.772 66.14 206.312 65.77 206.602 64.38L207.402 60.62H208.482L207.662 64.48C207.542 65.08 207.762 65.28 208.222 65.28C208.682 65.28 209.172 64.98 209.292 64.38L210.092 60.62H211.172L210.032 66H209.012ZM211.077 66L212.597 58.86H213.677L213.167 61.25H213.187C213.487 60.77 213.987 60.48 214.567 60.48C215.387 60.48 216.147 60.85 215.647 63.24C215.247 65.09 214.527 66.14 213.267 66.14C212.497 66.14 212.327 65.69 212.257 65.34H212.237L212.097 66H211.077ZM212.657 63.37C212.407 64.52 212.417 65.28 213.157 65.28C213.907 65.28 214.237 64.51 214.497 63.29C214.797 61.84 214.687 61.34 214.067 61.34C213.237 61.34 212.927 62.08 212.657 63.37ZM220.171 63.45H217.361L217.301 63.76C217.141 64.48 217.041 65.4 217.851 65.4C218.621 65.4 218.891 64.52 218.961 64.2H219.981C219.731 65.39 218.851 66.14 217.681 66.14C216.801 66.14 215.771 65.88 216.291 63.39C216.591 61.98 217.211 60.48 218.901 60.48C220.401 60.48 220.611 61.38 220.291 62.88L220.171 63.45ZM217.521 62.71H219.251L219.311 62.42C219.461 61.74 219.351 61.22 218.741 61.22C218.051 61.22 217.691 61.9 217.541 62.6L217.521 62.71Z" fill="black"/>
<path d="M146.965 30.0689H141.772L140.012 13.1352H148.729L146.965 30.0689ZM146.461 34.7498H142.28C142.043 34.7498 141.848 34.5553 141.848 34.3177V34.0332H146.893V34.3177C146.893 34.5553 146.698 34.7498 146.461 34.7498ZM142.993 33.4751V32.9314C142.993 32.6326 143.281 32.3877 143.634 32.3877H144.894C145.247 32.3877 145.535 32.6326 145.535 32.9314V33.4751H142.993ZM146.893 33.4751H146.093V32.9314C146.093 32.3229 145.557 31.8296 144.894 31.8296H143.634C142.975 31.8296 142.435 32.3229 142.435 32.9314V33.4751H141.848V31.0447H146.893V33.4751ZM148.761 12.5735H139.979V11.9758H148.761V12.5735ZM149.737 11.4897C149.737 11.2196 149.521 11 149.247 11H139.49C139.22 11 139 11.2196 139 11.4897V12.8543C139 12.8651 139.007 12.8723 139.007 12.8795C139.007 12.8903 139.004 12.8975 139.007 12.9047L140.847 30.6054C140.851 30.6342 140.862 30.6558 140.869 30.681V34.3177C140.869 35.0954 141.502 35.7291 142.28 35.7291H146.461C147.238 35.7291 147.872 35.0954 147.872 34.3177V30.681C147.879 30.6558 147.89 30.6342 147.894 30.6054L149.723 13.0308C149.723 13.0092 149.715 12.9875 149.715 12.9659C149.723 12.9299 149.737 12.8939 149.737 12.8543" fill="#1C1C1B"/>
</g>
<defs>
<clipPath id="clip0_22_560">
<rect width="227" height="73" fill="white"/>
</clipPath>
</defs>
</svg>
