<svg width="260" height="61" viewBox="0 0 260 61" fill="none" xmlns="http://www.w3.org/2000/svg">
<g clip-path="url(#clip0_66_3740)">
<path d="M24.6979 60.4688C11.0781 60.4688 0 49.5208 0 36.0625V0H234.948C248.563 0 259.641 10.9479 259.641 24.4062V60.4688" fill="white"/>
<path d="M222.083 52.9114H69.1353C59.6874 52.9114 51.9999 45.3541 51.9999 36.0625V7.55725H204.948C214.396 7.55725 222.083 15.1145 222.083 24.4062V52.9114ZM204.948 5.66663H50.1145V36.0625C50.1145 46.3958 58.6458 54.802 69.1353 54.802H223.969V24.4062C223.969 14.0729 215.437 5.66663 204.948 5.66663Z" fill="#6B5B4A"/>
<path d="M196.714 54.802L209.724 28.2239L196.432 5.66663H234.948C245.437 5.66663 253.969 14.0729 253.969 24.4062V54.802" fill="#6B5B4A"/>
<path d="M102.901 5.66663H50.1145V36.0625C50.1145 46.3958 58.6458 54.802 69.1353 54.802H121.927V24.4062C121.927 14.0729 113.391 5.66663 102.901 5.66663Z" fill="#6B5B4A"/>
<path d="M63.651 29.3594C58.8489 29.3594 54.9583 33.25 54.9583 38.0521C54.9583 42.8542 58.8489 46.7448 63.651 46.7448C68.4583 46.7448 72.3489 42.8542 72.3489 38.0521C72.3489 33.25 68.4583 29.3594 63.651 29.3594Z" fill="white"/>
<path d="M69.3229 39.4688H65.0729V43.7188H62.2344V39.4688H57.9844V36.6355H62.2344V32.3802H65.0729V36.6355H69.3229" fill="#1C1C1B"/>
<path d="M55.7864 26.5937V17.1979H58.2708V24.5156H61.828V26.5937" fill="white"/>
<path d="M62.9426 26.5937V17.1979H69.0155V19.276H65.4322V20.7552H68.4947V22.8385H65.4322V24.5156H69.1614V26.5937" fill="white"/>
<path d="M75.0885 26.5937V19.276H72.6041V17.1979H80.0677V19.276H77.5781V26.5937" fill="white"/>
<path d="M83.5521 21.4739H84.4479C85.4479 21.4739 85.9531 21.0625 85.9531 20.2343C85.9531 19.8281 85.8229 19.5468 85.5677 19.3958C85.3125 19.2395 84.9375 19.1614 84.4479 19.1614H83.5521V21.4739ZM81.0625 26.5989V17.1979H84.6198C85.125 17.1979 85.6042 17.2448 86.0625 17.3385C86.5208 17.4375 86.9167 17.5989 87.2604 17.8333C87.6042 18.0625 87.875 18.375 88.0781 18.7656C88.2813 19.1562 88.3802 19.6458 88.3802 20.2343C88.3802 20.9062 88.2448 21.4687 87.9688 21.9114C87.6979 22.3541 87.3281 22.6979 86.8646 22.9531L88.901 26.5989H86.125L84.5052 23.4427H83.5521V26.5989" fill="white"/>
<path d="M89.8698 26.5989H92.3593V17.1979H89.8698V26.5989Z" fill="white"/>
<path d="M75.3801 43.276V33.8698H81.5103V35.9531H77.8697V37.75H80.9895V39.8333H77.8697V43.276" fill="white"/>
<path d="M84.9218 38.7031L84.7604 39.3541H86.4948L86.3385 38.7031C86.2239 38.25 86.1041 37.7604 85.9895 37.2291C85.875 36.6979 85.7604 36.1979 85.6406 35.7239H85.5833C85.4791 36.2031 85.3698 36.7083 85.2604 37.2343C85.151 37.7604 85.0364 38.25 84.9218 38.7031ZM81.3073 43.276L84.1666 33.8698H87.1718L90.0364 43.276H87.4062L86.9427 41.276H84.3125L83.8489 43.276" fill="white"/>
<path d="M94.5624 43.4479C93.9687 43.4479 93.3958 43.3489 92.8541 43.151C92.3072 42.9531 91.8333 42.651 91.4218 42.2552C91.0103 41.8541 90.6822 41.3541 90.4426 40.75C90.203 40.1458 90.0833 39.4479 90.0833 38.6458C90.0833 37.8541 90.2083 37.151 90.4583 36.5416C90.7083 35.927 91.0416 35.4114 91.4635 34.9948C91.8801 34.5729 92.3645 34.25 92.9114 34.0312C93.4583 33.8073 94.026 33.6979 94.6249 33.6979C95.2499 33.6979 95.8124 33.8229 96.302 34.0677C96.7968 34.3125 97.2083 34.6041 97.5468 34.9427L96.2447 36.5312C96.0155 36.3333 95.776 36.1666 95.5312 36.0312C95.2812 35.9062 94.9999 35.8385 94.6822 35.8385C94.401 35.8385 94.1405 35.901 93.8958 36.026C93.651 36.151 93.4322 36.3333 93.2447 36.5625C93.0572 36.7916 92.9062 37.0781 92.7968 37.4166C92.6822 37.75 92.6301 38.1354 92.6301 38.5573C92.6301 39.4479 92.8124 40.125 93.1874 40.5989C93.5572 41.0677 94.0468 41.3073 94.651 41.3073C95.0208 41.3073 95.3437 41.2291 95.6301 41.0677C95.9114 40.9062 96.1562 40.7187 96.3593 40.4948L97.6614 42.0573C97.2551 42.5208 96.7916 42.8698 96.2655 43.0989C95.7395 43.3333 95.1718 43.4479 94.5624 43.4479Z" fill="white"/>
<path d="M98.6198 43.276H101.104V33.8698H98.6198V43.276Z" fill="white"/>
<path d="M102.875 43.276V33.8698H105.365V41.1927H108.922V43.276" fill="white"/>
<path d="M110.031 43.276V33.8698H116.109V35.9531H112.521V37.4323H115.589V39.5156H112.521V41.1927H116.255V43.276" fill="white"/>
<path d="M28.4062 25.7448C26.7135 28.2343 28.151 31.5104 29.8958 33.1718C31.4895 34.6823 32.7655 35.0364 32.9322 35.0781L33.7447 33.5208L36.0885 39.9323L29.4635 41.2812L30.3437 39.6458L29.4478 39.1458C26.6562 37.3281 26.0676 34.8593 25.8749 34.0885C25.5416 32.7604 25.0468 28.7864 28.4062 25.7448Z" fill="#6B5B4A"/>
<path d="M28.375 25.8489C29.5781 28.6093 33.1146 29.1406 35.4479 28.552C37.5208 28.026 38.5052 27.1718 38.6719 27.0156L38.6615 27L37.776 25.4635L44.4427 26.9218L42.0313 33.2395L41.1354 31.6458L40.2656 32.1198C37.2396 33.5104 34.8333 32.6927 34.0781 32.4427C32.7813 32.0156 29.1562 30.3125 28.375 25.8489Z" fill="#6B5B4A"/>
<path d="M40.1613 19.1927C39.6978 22.4895 37.7134 24.0729 37.0936 24.5729C36.0311 25.4375 32.6457 27.5677 28.4634 25.8177C31.4373 26.2916 33.7967 23.6041 34.5571 21.3177C35.2446 19.2656 35.0415 17.9687 34.9998 17.7708L34.979 17.7656L33.2134 17.6927L38.0259 12.8541L42.0519 18.2864L40.2342 18.1823" fill="#6B5B4A"/>
<path fill-rule="evenodd" clip-rule="evenodd" d="M19.9375 16.4115C18.4167 16.4115 17.1875 15.1823 17.1875 13.6563C17.1875 12.1354 18.4167 10.9062 19.9375 10.9062C21.4583 10.9062 22.6927 12.1354 22.6927 13.6563C22.6927 15.1823 21.4583 16.4115 19.9375 16.4115Z" fill="#6B5B4A"/>
<path d="M15.6771 29.7968C15.9115 29.151 16.2604 29.1927 16.2604 29.1927C16.2604 29.1927 16.5781 29.125 16.7552 29.7708L19.3281 38.8073C17.1823 38.1823 15.224 37.1198 13.5573 35.7083L15.6771 29.7968ZM23.7031 5.66663C13.7604 5.66663 5.67188 13.7552 5.67188 23.6979C5.67188 33.6406 13.7604 41.7291 23.7031 41.7291C24.2344 41.7291 24.7552 41.6979 25.276 41.651L25.3958 43.4635L28.6979 40.2708L25.0052 37.4531L25.1458 39.3541C24.6719 39.401 24.1875 39.4323 23.7031 39.4323C22.9375 39.4323 22.1875 39.375 21.4531 39.2656L21.3802 38.7864L19.6667 24.1875C19.4323 21.4323 21.0052 20.9948 21.9792 21.4062L27.4479 23.6041C28.0729 23.875 28.375 23.3489 28.375 23.3489C28.375 23.3489 28.7292 22.802 28.0938 22.3958C28.0938 22.3958 20.6406 17.4583 19.0521 17.1562C16.8854 16.7552 14.7396 18.5104 14.2656 20.7968L11.6198 33.7604C9.34375 31.0312 7.96875 27.5208 7.96875 23.6979C7.96875 15.0208 15.026 7.9635 23.7031 7.9635C28.3385 7.9635 32.5104 9.97913 35.3906 13.177L37.0052 11.5364C33.7083 7.93225 28.9635 5.66663 23.7031 5.66663Z" fill="#6B5B4A"/>
<path fill-rule="evenodd" clip-rule="evenodd" d="M225.184 13.5477C222.848 13.829 220.995 15.7189 220.697 18.1033L220.693 18.1036L220.569 18.8693C220.562 18.8856 220.558 18.9007 220.558 18.914C220.554 18.9403 220.549 18.9665 220.545 18.9927C220.517 19.164 220.489 19.3314 220.515 19.5044L220.513 21.0954C217.452 24.2948 216.633 27.1159 217.139 29.2647C217.309 29.9622 217.62 30.6156 218.051 31.1832C218.482 31.7508 219.024 32.2202 219.642 32.5614C219.922 32.7258 220.213 32.8682 220.513 32.9874L220.511 34.7847L220.513 34.8477C220.49 35.4096 220.562 35.9713 220.728 36.5076C220.955 37.0944 221.311 37.6198 221.769 38.0432C222.048 38.3281 222.352 38.5852 222.679 38.8111C223.03 39.056 223.399 39.2719 223.783 39.4567C225.887 40.4919 228.644 41.0038 231.334 41C234.024 40.9962 236.734 40.4594 238.81 39.4032C239.316 39.1492 239.791 38.8357 240.226 38.4692C240.646 38.115 241.01 37.6961 241.304 37.2276C241.888 36.2837 241.886 35.9049 241.883 35.0104L241.882 35.0005L241.886 20.0602C241.956 19.8477 241.995 19.6255 242 19.4012C242 19.1676 241.963 18.942 241.893 18.7249C241.348 16.0509 239.424 14.0935 236.857 13.6116C235.861 11.4138 233.535 10 231.006 10C228.502 10 226.195 11.3865 225.184 13.5477ZM231.245 22.4255C227.72 22.4255 224.58 21.643 222.551 20.4235C222.188 19.5805 222.237 18.5859 222.269 18.2929C222.501 16.5087 223.988 15.1323 225.789 15.1323C225.966 15.1323 226.14 15.1455 226.309 15.1711C226.711 13.1523 228.661 11.6207 231.006 11.6207C233.336 11.6207 235.276 13.1331 235.695 15.1331C235.723 15.1326 235.75 15.1323 235.778 15.1323C238.041 15.1323 240.03 16.9544 240.478 19.3712C240.47 19.8542 240.363 20.1051 240.276 20.2103C238.268 21.5511 234.971 22.4255 231.245 22.4255ZM218.668 28.8903C218.352 27.5052 218.811 25.6874 220.508 23.5283L220.506 31.2072L220.426 31.1594C219.996 30.9258 219.618 30.6036 219.315 30.2131C219.013 29.8226 218.793 29.3722 218.668 28.8903ZM240.224 21.9951C239.664 22.3566 239.068 22.6569 238.447 22.8909C236.551 23.6243 233.985 24.0942 231.196 24.0961C228.758 24.1265 226.334 23.6966 224.048 22.8278C223.386 22.5663 222.756 22.2272 222.17 21.8174L222.168 31.7898C222.702 31.8871 223.246 31.9179 223.787 31.8814C226.341 31.7229 229.114 30.128 230.476 26.6441C230.556 26.4477 230.709 26.2916 230.901 26.2096C231.093 26.1276 231.309 26.1262 231.502 26.2057C231.694 26.2853 231.849 26.4394 231.932 26.6348C232.015 26.8301 232.019 27.051 231.944 27.2496C230.321 31.3982 226.973 33.3025 223.876 33.505C223.304 33.5419 222.729 33.5188 222.16 33.4362L222.168 34.8458C222.149 35.212 222.187 35.579 222.282 35.9326C222.432 36.2819 222.655 36.5935 222.934 36.8456C223.143 37.0558 223.369 37.2457 223.612 37.4129C223.893 37.6103 224.188 37.7852 224.496 37.9363C226.369 38.8569 228.836 39.3249 231.323 39.3077C233.809 39.2905 236.236 38.834 238.073 37.8885C238.463 37.694 238.83 37.4543 239.167 37.1742C239.454 36.9324 239.703 36.6463 239.905 36.3261C240.166 35.9455 240.281 35.4797 240.228 35.0177C240.227 35.0076 240.227 34.9649 240.227 34.918C240.227 34.8501 240.226 34.7732 240.224 34.7732L240.224 21.9951Z" fill="white"/>
<path d="M219.562 50.9442C219.054 50.9442 218.665 50.7996 218.395 50.5102C218.132 50.2209 218 49.8126 218 49.2853V45.6589C218 45.1317 218.132 44.7234 218.395 44.434C218.665 44.1447 219.054 44 219.562 44C220.07 44 220.456 44.1447 220.72 44.434C220.99 44.7234 221.125 45.1317 221.125 45.6589V46.3726H220.122V45.5914C220.122 45.1734 219.945 44.9645 219.591 44.9645C219.238 44.9645 219.061 45.1734 219.061 45.5914V49.3625C219.061 49.774 219.238 49.9798 219.591 49.9798C219.945 49.9798 220.122 49.774 220.122 49.3625V48.3305H221.125V49.2853C221.125 49.8126 220.99 50.2209 220.72 50.5102C220.456 50.7996 220.07 50.9442 219.562 50.9442Z" fill="white"/>
<path d="M223.312 50.9442C222.791 50.9442 222.393 50.7963 222.116 50.5006C221.84 50.2048 221.701 49.7869 221.701 49.2468V45.6975C221.701 45.1574 221.84 44.7394 222.116 44.4437C222.393 44.1479 222.791 44 223.312 44C223.833 44 224.231 44.1479 224.508 44.4437C224.784 44.7394 224.923 45.1574 224.923 45.6975V49.2468C224.923 49.7869 224.784 50.2048 224.508 50.5006C224.231 50.7963 223.833 50.9442 223.312 50.9442ZM223.312 49.9798C223.679 49.9798 223.862 49.7579 223.862 49.3143V45.63C223.862 45.1863 223.679 44.9645 223.312 44.9645C222.946 44.9645 222.762 45.1863 222.762 45.63V49.3143C222.762 49.7579 222.946 49.9798 223.312 49.9798Z" fill="white"/>
<path d="M225.64 44.0964H227.154L227.83 48.9285H227.849L228.524 44.0964H230.038V50.8478H229.035V45.7361H229.016L228.244 50.8478H227.357L226.585 45.7361H226.566V50.8478H225.64V44.0964Z" fill="white"/>
<path d="M230.83 44.0964H232.392C232.92 44.0964 233.315 44.2379 233.579 44.5208C233.842 44.8037 233.974 45.2185 233.974 45.765V46.4305C233.974 46.977 233.842 47.3917 233.579 47.6747C233.315 47.9576 232.92 48.099 232.392 48.099H231.891V50.8478H230.83V44.0964ZM232.392 47.1345C232.566 47.1345 232.695 47.0863 232.778 46.9899C232.868 46.8934 232.913 46.7295 232.913 46.498V45.6975C232.913 45.466 232.868 45.302 232.778 45.2056C232.695 45.1091 232.566 45.0609 232.392 45.0609H231.891V47.1345H232.392Z" fill="white"/>
<path d="M236.084 50.9442C235.563 50.9442 235.164 50.7963 234.888 50.5006C234.611 50.2048 234.473 49.7869 234.473 49.2468V45.6975C234.473 45.1574 234.611 44.7394 234.888 44.4437C235.164 44.1479 235.563 44 236.084 44C236.605 44 237.003 44.1479 237.28 44.4437C237.556 44.7394 237.694 45.1574 237.694 45.6975V49.2468C237.694 49.7869 237.556 50.2048 237.28 50.5006C237.003 50.7963 236.605 50.9442 236.084 50.9442ZM236.084 49.9798C236.45 49.9798 236.634 49.7579 236.634 49.3143V45.63C236.634 45.1863 236.45 44.9645 236.084 44.9645C235.717 44.9645 235.534 45.1863 235.534 45.63V49.3143C235.534 49.7579 235.717 49.9798 236.084 49.9798Z" fill="white"/>
<path d="M239.791 50.9442C239.277 50.9442 238.888 50.7996 238.624 50.5102C238.361 50.2144 238.229 49.7933 238.229 49.2468V48.861H239.232V49.3239C239.232 49.7611 239.415 49.9798 239.782 49.9798C239.962 49.9798 240.097 49.9283 240.187 49.8254C240.283 49.7161 240.331 49.5425 240.331 49.3046C240.331 49.0217 240.267 48.7742 240.138 48.562C240.01 48.3434 239.772 48.083 239.425 47.7807C238.987 47.395 238.682 47.0477 238.508 46.7391C238.335 46.4241 238.248 46.0704 238.248 45.6782C238.248 45.1445 238.383 44.733 238.653 44.4437C238.923 44.1479 239.315 44 239.83 44C240.338 44 240.72 44.1479 240.977 44.4437C241.241 44.733 241.373 45.1509 241.373 45.6975V45.9772H240.37V45.63C240.37 45.3985 240.325 45.2313 240.235 45.1284C240.145 45.0191 240.013 44.9645 239.839 44.9645C239.486 44.9645 239.309 45.1799 239.309 45.6107C239.309 45.855 239.373 46.0833 239.502 46.2955C239.637 46.5076 239.878 46.7648 240.225 47.067C240.669 47.4528 240.974 47.8033 241.141 48.1183C241.309 48.4334 241.392 48.8031 241.392 49.2275C241.392 49.7804 241.254 50.2048 240.977 50.5006C240.707 50.7963 240.312 50.9442 239.791 50.9442Z" fill="white"/>
<path d="M242.83 45.0609H241.721V44.0964H245V45.0609H243.891V50.8478H242.83V45.0609Z" fill="white"/>
<path d="M130.608 22.152H131.12C131.323 22.152 131.485 22.1173 131.608 22.048C131.731 21.9787 131.827 21.864 131.896 21.704C131.971 21.544 132.019 21.3333 132.04 21.072C132.067 20.8107 132.08 20.4853 132.08 20.096C132.08 19.7707 132.069 19.4853 132.048 19.24C132.027 18.9947 131.981 18.792 131.912 18.632C131.848 18.4667 131.749 18.344 131.616 18.264C131.488 18.1787 131.315 18.136 131.096 18.136H130.608V22.152ZM129.456 17.288H131.344C131.744 17.288 132.067 17.3547 132.312 17.488C132.557 17.616 132.747 17.8027 132.88 18.048C133.019 18.288 133.112 18.5787 133.16 18.92C133.208 19.2613 133.232 19.6427 133.232 20.064C133.232 20.5653 133.2 21.0027 133.136 21.376C133.077 21.744 132.973 22.048 132.824 22.288C132.675 22.528 132.475 22.7067 132.224 22.824C131.973 22.9413 131.656 23 131.272 23H129.456V17.288ZM135.53 15.8H136.634L135.85 16.952H135.098L135.53 15.8ZM137.186 17.288V18.232H135.146V19.576H137.066V20.52H135.146V22.056H137.266V23H133.994V17.288H137.186ZM140.285 19.216C140.285 18.8 140.235 18.4987 140.133 18.312C140.037 18.12 139.859 18.024 139.597 18.024C139.453 18.024 139.333 18.064 139.237 18.144C139.147 18.2187 139.075 18.344 139.021 18.52C138.968 18.6907 138.931 18.9173 138.909 19.2C138.888 19.4773 138.877 19.8187 138.877 20.224C138.877 20.656 138.891 21.0053 138.917 21.272C138.949 21.5387 138.995 21.7467 139.053 21.896C139.117 22.04 139.195 22.1387 139.285 22.192C139.381 22.24 139.491 22.264 139.613 22.264C139.715 22.264 139.808 22.248 139.893 22.216C139.984 22.1787 140.061 22.1093 140.125 22.008C140.189 21.9013 140.24 21.7547 140.277 21.568C140.315 21.376 140.333 21.1253 140.333 20.816H141.485C141.485 21.1253 141.461 21.4187 141.413 21.696C141.365 21.9733 141.275 22.216 141.141 22.424C141.013 22.632 140.829 22.7947 140.589 22.912C140.355 23.0293 140.048 23.088 139.669 23.088C139.237 23.088 138.893 23.0187 138.637 22.88C138.381 22.7413 138.184 22.5413 138.045 22.28C137.912 22.0187 137.824 21.7067 137.781 21.344C137.744 20.9813 137.725 20.5813 137.725 20.144C137.725 19.712 137.744 19.3147 137.781 18.952C137.824 18.584 137.912 18.2693 138.045 18.008C138.184 17.7467 138.381 17.544 138.637 17.4C138.893 17.2507 139.237 17.176 139.669 17.176C140.08 17.176 140.403 17.2427 140.637 17.376C140.877 17.5093 141.056 17.68 141.173 17.888C141.291 18.0907 141.363 18.312 141.389 18.552C141.421 18.7867 141.437 19.008 141.437 19.216H140.285ZM142.142 17.288H143.294V19.472H144.638V17.288H145.79V23H144.638V20.464H143.294V23H142.142V17.288ZM149.78 17.288V18.232H147.74V19.576H149.66V20.52H147.74V22.056H149.86V23H146.588V17.288H149.78ZM153.783 17.288V18.232H152.535V23H151.383V18.232H150.135V17.288H153.783ZM155.211 21.216V21.384C155.211 21.5173 155.221 21.64 155.243 21.752C155.264 21.8587 155.304 21.9493 155.363 22.024C155.421 22.0987 155.499 22.1573 155.595 22.2C155.696 22.2427 155.821 22.264 155.971 22.264C156.147 22.264 156.304 22.208 156.443 22.096C156.587 21.9787 156.659 21.8 156.659 21.56C156.659 21.432 156.64 21.3227 156.603 21.232C156.571 21.136 156.515 21.0507 156.435 20.976C156.355 20.9013 156.248 20.8347 156.115 20.776C155.987 20.712 155.827 20.648 155.635 20.584C155.379 20.4987 155.157 20.4053 154.971 20.304C154.784 20.2027 154.627 20.0853 154.499 19.952C154.376 19.8133 154.285 19.656 154.227 19.48C154.168 19.2987 154.139 19.0907 154.139 18.856C154.139 18.2907 154.296 17.8693 154.611 17.592C154.925 17.3147 155.357 17.176 155.907 17.176C156.163 17.176 156.397 17.2053 156.611 17.264C156.829 17.3173 157.016 17.408 157.171 17.536C157.331 17.6587 157.453 17.8187 157.539 18.016C157.629 18.208 157.675 18.44 157.675 18.712V18.872H156.571C156.571 18.6 156.523 18.392 156.427 18.248C156.331 18.0987 156.171 18.024 155.947 18.024C155.819 18.024 155.712 18.0427 155.627 18.08C155.541 18.1173 155.472 18.168 155.419 18.232C155.371 18.2907 155.336 18.36 155.315 18.44C155.299 18.52 155.291 18.6027 155.291 18.688C155.291 18.864 155.328 19.0133 155.403 19.136C155.477 19.2533 155.637 19.3627 155.883 19.464L156.771 19.848C156.989 19.944 157.168 20.0453 157.307 20.152C157.445 20.2533 157.555 20.3653 157.635 20.488C157.72 20.6053 157.779 20.736 157.811 20.88C157.843 21.024 157.859 21.184 157.859 21.36C157.859 21.9627 157.683 22.4027 157.331 22.68C156.984 22.952 156.499 23.088 155.875 23.088C155.224 23.088 154.757 22.9467 154.475 22.664C154.197 22.3813 154.059 21.976 154.059 21.448V21.216H155.211ZM161.561 22.152H162.073C162.276 22.152 162.438 22.1173 162.561 22.048C162.684 21.9787 162.78 21.864 162.849 21.704C162.924 21.544 162.972 21.3333 162.993 21.072C163.02 20.8107 163.033 20.4853 163.033 20.096C163.033 19.7707 163.022 19.4853 163.001 19.24C162.98 18.9947 162.934 18.792 162.865 18.632C162.801 18.4667 162.702 18.344 162.569 18.264C162.441 18.1787 162.268 18.136 162.049 18.136H161.561V22.152ZM160.409 17.288H162.297C162.697 17.288 163.02 17.3547 163.265 17.488C163.51 17.616 163.7 17.8027 163.833 18.048C163.972 18.288 164.065 18.5787 164.113 18.92C164.161 19.2613 164.185 19.6427 164.185 20.064C164.185 20.5653 164.153 21.0027 164.089 21.376C164.03 21.744 163.926 22.048 163.777 22.288C163.628 22.528 163.428 22.7067 163.177 22.824C162.926 22.9413 162.609 23 162.225 23H160.409V17.288ZM168.139 17.288V18.232H166.099V19.576H168.019V20.52H166.099V22.056H168.219V23H164.947V17.288H168.139ZM130.552 29.872H131.064C131.293 29.872 131.477 29.8027 131.616 29.664C131.76 29.5253 131.832 29.3093 131.832 29.016C131.832 28.728 131.771 28.5093 131.648 28.36C131.525 28.2107 131.32 28.136 131.032 28.136H130.552V29.872ZM129.4 27.288H131.416C131.709 27.288 131.955 27.3387 132.152 27.44C132.355 27.536 132.517 27.664 132.64 27.824C132.763 27.984 132.851 28.168 132.904 28.376C132.957 28.5787 132.984 28.7867 132.984 29C132.984 29.2933 132.939 29.5493 132.848 29.768C132.763 29.9867 132.64 30.1653 132.48 30.304C132.325 30.4427 132.136 30.5467 131.912 30.616C131.688 30.6853 131.44 30.72 131.168 30.72H130.552V33H129.4V27.288ZM133.548 27.288H135.676C136.156 27.288 136.53 27.4107 136.796 27.656C137.063 27.896 137.196 28.264 137.196 28.76C137.196 29.144 137.119 29.4587 136.964 29.704C136.81 29.944 136.57 30.0987 136.244 30.168V30.184C136.532 30.2267 136.743 30.32 136.876 30.464C137.01 30.608 137.092 30.84 137.124 31.16C137.135 31.2667 137.143 31.384 137.148 31.512C137.154 31.6347 137.159 31.7733 137.164 31.928C137.175 32.232 137.191 32.464 137.212 32.624C137.244 32.784 137.314 32.8933 137.42 32.952V33H136.172C136.114 32.92 136.076 32.8293 136.06 32.728C136.044 32.6213 136.034 32.512 136.028 32.4L135.996 31.304C135.986 31.08 135.93 30.904 135.828 30.776C135.727 30.648 135.556 30.584 135.316 30.584H134.7V33H133.548V27.288ZM134.7 29.784H135.18C135.458 29.784 135.671 29.72 135.82 29.592C135.97 29.4587 136.044 29.2373 136.044 28.928C136.044 28.4 135.778 28.136 135.244 28.136H134.7V29.784ZM139.53 25.8H140.634L139.85 26.952H139.098L139.53 25.8ZM141.186 27.288V28.232H139.146V29.576H141.066V30.52H139.146V32.056H141.266V33H137.994V27.288H141.186ZM142.997 29.872H143.509C143.739 29.872 143.923 29.8027 144.061 29.664C144.205 29.5253 144.277 29.3093 144.277 29.016C144.277 28.728 144.216 28.5093 144.093 28.36C143.971 28.2107 143.765 28.136 143.477 28.136H142.997V29.872ZM141.845 27.288H143.861C144.155 27.288 144.4 27.3387 144.597 27.44C144.8 27.536 144.963 27.664 145.085 27.824C145.208 27.984 145.296 28.168 145.349 28.376C145.403 28.5787 145.429 28.7867 145.429 29C145.429 29.2933 145.384 29.5493 145.293 29.768C145.208 29.9867 145.085 30.1653 144.925 30.304C144.771 30.4427 144.581 30.5467 144.357 30.616C144.133 30.6853 143.885 30.72 143.613 30.72H142.997V33H141.845V27.288ZM148.081 30.848L147.529 28.28H147.513L146.961 30.848H148.081ZM148.233 27.288L149.745 33H148.545L148.281 31.792H146.761L146.497 33H145.297L146.809 27.288H148.233ZM150.142 27.288H152.27C152.75 27.288 153.124 27.4107 153.39 27.656C153.657 27.896 153.79 28.264 153.79 28.76C153.79 29.144 153.713 29.4587 153.558 29.704C153.404 29.944 153.164 30.0987 152.838 30.168V30.184C153.126 30.2267 153.337 30.32 153.47 30.464C153.604 30.608 153.686 30.84 153.718 31.16C153.729 31.2667 153.737 31.384 153.742 31.512C153.748 31.6347 153.753 31.7733 153.758 31.928C153.769 32.232 153.785 32.464 153.806 32.624C153.838 32.784 153.908 32.8933 154.014 32.952V33H152.766C152.708 32.92 152.67 32.8293 152.654 32.728C152.638 32.6213 152.628 32.512 152.622 32.4L152.59 31.304C152.58 31.08 152.524 30.904 152.422 30.776C152.321 30.648 152.15 30.584 151.91 30.584H151.294V33H150.142V27.288ZM151.294 29.784H151.774C152.052 29.784 152.265 29.72 152.414 29.592C152.564 29.4587 152.638 29.2373 152.638 28.928C152.638 28.4 152.372 28.136 151.838 28.136H151.294V29.784ZM156.972 30.848L156.42 28.28H156.404L155.852 30.848H156.972ZM157.124 27.288L158.636 33H157.436L157.172 31.792H155.652L155.388 33H154.188L155.7 27.288H157.124ZM161.939 27.288V28.232H160.691V33H159.539V28.232H158.291V27.288H161.939ZM162.495 33V27.288H163.647V33H162.495ZM165.534 30.144C165.534 30.528 165.542 30.856 165.558 31.128C165.579 31.3947 165.616 31.6133 165.67 31.784C165.728 31.9493 165.808 32.072 165.91 32.152C166.016 32.2267 166.155 32.264 166.326 32.264C166.496 32.264 166.632 32.2267 166.734 32.152C166.84 32.072 166.92 31.9493 166.974 31.784C167.032 31.6133 167.07 31.3947 167.086 31.128C167.107 30.856 167.118 30.528 167.118 30.144C167.118 29.76 167.107 29.4347 167.086 29.168C167.07 28.9013 167.032 28.6827 166.974 28.512C166.92 28.3413 166.84 28.2187 166.734 28.144C166.632 28.064 166.496 28.024 166.326 28.024C166.155 28.024 166.016 28.064 165.91 28.144C165.808 28.2187 165.728 28.3413 165.67 28.512C165.616 28.6827 165.579 28.9013 165.558 29.168C165.542 29.4347 165.534 29.76 165.534 30.144ZM164.382 30.144C164.382 29.712 164.4 29.3147 164.438 28.952C164.48 28.584 164.568 28.2693 164.702 28.008C164.84 27.7467 165.038 27.544 165.294 27.4C165.55 27.2507 165.894 27.176 166.326 27.176C166.758 27.176 167.102 27.2507 167.358 27.4C167.614 27.544 167.808 27.7467 167.942 28.008C168.08 28.2693 168.168 28.584 168.206 28.952C168.248 29.3147 168.27 29.712 168.27 30.144C168.27 30.5813 168.248 30.9813 168.206 31.344C168.168 31.7067 168.08 32.0187 167.942 32.28C167.808 32.5413 167.614 32.7413 167.358 32.88C167.102 33.0187 166.758 33.088 166.326 33.088C165.894 33.088 165.55 33.0187 165.294 32.88C165.038 32.7413 164.84 32.5413 164.702 32.28C164.568 32.0187 164.48 31.7067 164.438 31.344C164.4 30.9813 164.382 30.5813 164.382 30.144ZM170.275 27.288L171.667 31.2H171.683V27.288H172.739V33H171.427L170.019 29H170.003V33H168.947V27.288H170.275ZM132.592 37.288V38.232H130.552V39.576H132.472V40.52H130.552V42.056H132.672V43H129.4V37.288H132.592ZM136.596 37.288V38.232H135.348V43H134.196V38.232H132.948V37.288H136.596ZM139.017 37.288H141.145C141.625 37.288 141.999 37.4107 142.265 37.656C142.532 37.896 142.665 38.264 142.665 38.76C142.665 39.144 142.588 39.4587 142.433 39.704C142.279 39.944 142.039 40.0987 141.713 40.168V40.184C142.001 40.2267 142.212 40.32 142.345 40.464C142.479 40.608 142.561 40.84 142.593 41.16C142.604 41.2667 142.612 41.384 142.617 41.512C142.623 41.6347 142.628 41.7733 142.633 41.928C142.644 42.232 142.66 42.464 142.681 42.624C142.713 42.784 142.783 42.8933 142.889 42.952V43H141.641C141.583 42.92 141.545 42.8293 141.529 42.728C141.513 42.6213 141.503 42.512 141.497 42.4L141.465 41.304C141.455 41.08 141.399 40.904 141.297 40.776C141.196 40.648 141.025 40.584 140.785 40.584H140.169V43H139.017V37.288ZM140.169 39.784H140.649C140.927 39.784 141.14 39.72 141.289 39.592C141.439 39.4587 141.513 39.2373 141.513 38.928C141.513 38.4 141.247 38.136 140.713 38.136H140.169V39.784ZM146.655 37.288V38.232H144.615V39.576H146.535V40.52H144.615V42.056H146.735V43H143.463V37.288H146.655ZM148.242 41.216V41.384C148.242 41.5173 148.253 41.64 148.274 41.752C148.295 41.8587 148.335 41.9493 148.394 42.024C148.453 42.0987 148.53 42.1573 148.626 42.2C148.727 42.2427 148.853 42.264 149.002 42.264C149.178 42.264 149.335 42.208 149.474 42.096C149.618 41.9787 149.69 41.8 149.69 41.56C149.69 41.432 149.671 41.3227 149.634 41.232C149.602 41.136 149.546 41.0507 149.466 40.976C149.386 40.9013 149.279 40.8347 149.146 40.776C149.018 40.712 148.858 40.648 148.666 40.584C148.41 40.4987 148.189 40.4053 148.002 40.304C147.815 40.2027 147.658 40.0853 147.53 39.952C147.407 39.8133 147.317 39.656 147.258 39.48C147.199 39.2987 147.17 39.0907 147.17 38.856C147.17 38.2907 147.327 37.8693 147.642 37.592C147.957 37.3147 148.389 37.176 148.938 37.176C149.194 37.176 149.429 37.2053 149.642 37.264C149.861 37.3173 150.047 37.408 150.202 37.536C150.362 37.6587 150.485 37.8187 150.57 38.016C150.661 38.208 150.706 38.44 150.706 38.712V38.872H149.602C149.602 38.6 149.554 38.392 149.458 38.248C149.362 38.0987 149.202 38.024 148.978 38.024C148.85 38.024 148.743 38.0427 148.658 38.08C148.573 38.1173 148.503 38.168 148.45 38.232C148.402 38.2907 148.367 38.36 148.346 38.44C148.33 38.52 148.322 38.6027 148.322 38.688C148.322 38.864 148.359 39.0133 148.434 39.136C148.509 39.2533 148.669 39.3627 148.914 39.464L149.802 39.848C150.021 39.944 150.199 40.0453 150.338 40.152C150.477 40.2533 150.586 40.3653 150.666 40.488C150.751 40.6053 150.81 40.736 150.842 40.88C150.874 41.024 150.89 41.184 150.89 41.36C150.89 41.9627 150.714 42.4027 150.362 42.68C150.015 42.952 149.53 43.088 148.906 43.088C148.255 43.088 147.789 42.9467 147.506 42.664C147.229 42.3813 147.09 41.976 147.09 41.448V41.216H148.242ZM154.807 37.288V38.232H153.559V43H152.407V38.232H151.159V37.288H154.807ZM158.498 37.288V38.232H156.458V39.576H158.378V40.52H156.458V42.056H158.578V43H155.306V37.288H158.498ZM160.086 41.216V41.384C160.086 41.5173 160.096 41.64 160.118 41.752C160.139 41.8587 160.179 41.9493 160.238 42.024C160.296 42.0987 160.374 42.1573 160.47 42.2C160.571 42.2427 160.696 42.264 160.846 42.264C161.022 42.264 161.179 42.208 161.318 42.096C161.462 41.9787 161.534 41.8 161.534 41.56C161.534 41.432 161.515 41.3227 161.478 41.232C161.446 41.136 161.39 41.0507 161.31 40.976C161.23 40.9013 161.123 40.8347 160.99 40.776C160.862 40.712 160.702 40.648 160.51 40.584C160.254 40.4987 160.032 40.4053 159.846 40.304C159.659 40.2027 159.502 40.0853 159.374 39.952C159.251 39.8133 159.16 39.656 159.102 39.48C159.043 39.2987 159.014 39.0907 159.014 38.856C159.014 38.2907 159.171 37.8693 159.486 37.592C159.8 37.3147 160.232 37.176 160.782 37.176C161.038 37.176 161.272 37.2053 161.486 37.264C161.704 37.3173 161.891 37.408 162.046 37.536C162.206 37.6587 162.328 37.8187 162.414 38.016C162.504 38.208 162.55 38.44 162.55 38.712V38.872H161.446C161.446 38.6 161.398 38.392 161.302 38.248C161.206 38.0987 161.046 38.024 160.822 38.024C160.694 38.024 160.587 38.0427 160.502 38.08C160.416 38.1173 160.347 38.168 160.294 38.232C160.246 38.2907 160.211 38.36 160.19 38.44C160.174 38.52 160.166 38.6027 160.166 38.688C160.166 38.864 160.203 39.0133 160.278 39.136C160.352 39.2533 160.512 39.3627 160.758 39.464L161.646 39.848C161.864 39.944 162.043 40.0453 162.182 40.152C162.32 40.2533 162.43 40.3653 162.51 40.488C162.595 40.6053 162.654 40.736 162.686 40.88C162.718 41.024 162.734 41.184 162.734 41.36C162.734 41.9627 162.558 42.4027 162.206 42.68C161.859 42.952 161.374 43.088 160.75 43.088C160.099 43.088 159.632 42.9467 159.35 42.664C159.072 42.3813 158.934 41.976 158.934 41.448V41.216H160.086ZM166.436 42.152H166.948C167.151 42.152 167.313 42.1173 167.436 42.048C167.559 41.9787 167.655 41.864 167.724 41.704C167.799 41.544 167.847 41.3333 167.868 41.072C167.895 40.8107 167.908 40.4853 167.908 40.096C167.908 39.7707 167.897 39.4853 167.876 39.24C167.855 38.9947 167.809 38.792 167.74 38.632C167.676 38.4667 167.577 38.344 167.444 38.264C167.316 38.1787 167.143 38.136 166.924 38.136H166.436V42.152ZM165.284 37.288H167.172C167.572 37.288 167.895 37.3547 168.14 37.488C168.385 37.616 168.575 37.8027 168.708 38.048C168.847 38.288 168.94 38.5787 168.988 38.92C169.036 39.2613 169.06 39.6427 169.06 40.064C169.06 40.5653 169.028 41.0027 168.964 41.376C168.905 41.744 168.801 42.048 168.652 42.288C168.503 42.528 168.303 42.7067 168.052 42.824C167.801 42.9413 167.484 43 167.1 43H165.284V37.288ZM173.014 37.288V38.232H170.974V39.576H172.894V40.52H170.974V42.056H173.094V43H169.822V37.288H173.014ZM175.595 37.288H177.723C178.203 37.288 178.577 37.4107 178.843 37.656C179.11 37.896 179.243 38.264 179.243 38.76C179.243 39.144 179.166 39.4587 179.011 39.704C178.857 39.944 178.617 40.0987 178.291 40.168V40.184C178.579 40.2267 178.79 40.32 178.923 40.464C179.057 40.608 179.139 40.84 179.171 41.16C179.182 41.2667 179.19 41.384 179.195 41.512C179.201 41.6347 179.206 41.7733 179.211 41.928C179.222 42.232 179.238 42.464 179.259 42.624C179.291 42.784 179.361 42.8933 179.467 42.952V43H178.219C178.161 42.92 178.123 42.8293 178.107 42.728C178.091 42.6213 178.081 42.512 178.075 42.4L178.043 41.304C178.033 41.08 177.977 40.904 177.875 40.776C177.774 40.648 177.603 40.584 177.363 40.584H176.747V43H175.595V37.288ZM176.747 39.784H177.227C177.505 39.784 177.718 39.72 177.867 39.592C178.017 39.4587 178.091 39.2373 178.091 38.928C178.091 38.4 177.825 38.136 177.291 38.136H176.747V39.784ZM183.233 37.288V38.232H181.193V39.576H183.113V40.52H181.193V42.056H183.313V43H180.041V37.288H183.233ZM185.044 39.872H185.556C185.786 39.872 185.97 39.8027 186.108 39.664C186.252 39.5253 186.324 39.3093 186.324 39.016C186.324 38.728 186.263 38.5093 186.14 38.36C186.018 38.2107 185.812 38.136 185.524 38.136H185.044V39.872ZM183.892 37.288H185.908C186.202 37.288 186.447 37.3387 186.644 37.44C186.847 37.536 187.01 37.664 187.132 37.824C187.255 37.984 187.343 38.168 187.396 38.376C187.45 38.5787 187.476 38.7867 187.476 39C187.476 39.2933 187.431 39.5493 187.34 39.768C187.255 39.9867 187.132 40.1653 186.972 40.304C186.818 40.4427 186.628 40.5467 186.404 40.616C186.18 40.6853 185.932 40.72 185.66 40.72H185.044V43H183.892V37.288ZM190.128 40.848L189.576 38.28H189.56L189.008 40.848H190.128ZM190.28 37.288L191.792 43H190.592L190.328 41.792H188.808L188.544 43H187.344L188.856 37.288H190.28ZM193.117 41.216V41.384C193.117 41.5173 193.128 41.64 193.149 41.752C193.17 41.8587 193.21 41.9493 193.269 42.024C193.328 42.0987 193.405 42.1573 193.501 42.2C193.602 42.2427 193.728 42.264 193.877 42.264C194.053 42.264 194.21 42.208 194.349 42.096C194.493 41.9787 194.565 41.8 194.565 41.56C194.565 41.432 194.546 41.3227 194.509 41.232C194.477 41.136 194.421 41.0507 194.341 40.976C194.261 40.9013 194.154 40.8347 194.021 40.776C193.893 40.712 193.733 40.648 193.541 40.584C193.285 40.4987 193.064 40.4053 192.877 40.304C192.69 40.2027 192.533 40.0853 192.405 39.952C192.282 39.8133 192.192 39.656 192.133 39.48C192.074 39.2987 192.045 39.0907 192.045 38.856C192.045 38.2907 192.202 37.8693 192.517 37.592C192.832 37.3147 193.264 37.176 193.813 37.176C194.069 37.176 194.304 37.2053 194.517 37.264C194.736 37.3173 194.922 37.408 195.077 37.536C195.237 37.6587 195.36 37.8187 195.445 38.016C195.536 38.208 195.581 38.44 195.581 38.712V38.872H194.477C194.477 38.6 194.429 38.392 194.333 38.248C194.237 38.0987 194.077 38.024 193.853 38.024C193.725 38.024 193.618 38.0427 193.533 38.08C193.448 38.1173 193.378 38.168 193.325 38.232C193.277 38.2907 193.242 38.36 193.221 38.44C193.205 38.52 193.197 38.6027 193.197 38.688C193.197 38.864 193.234 39.0133 193.309 39.136C193.384 39.2533 193.544 39.3627 193.789 39.464L194.677 39.848C194.896 39.944 195.074 40.0453 195.213 40.152C195.352 40.2533 195.461 40.3653 195.541 40.488C195.626 40.6053 195.685 40.736 195.717 40.88C195.749 41.024 195.765 41.184 195.765 41.36C195.765 41.9627 195.589 42.4027 195.237 42.68C194.89 42.952 194.405 43.088 193.781 43.088C193.13 43.088 192.664 42.9467 192.381 42.664C192.104 42.3813 191.965 41.976 191.965 41.448V41.216H193.117Z" fill="black"/>
</g>
<defs>
<clipPath id="clip0_66_3740">
<rect width="260" height="61" fill="white"/>
</clipPath>
</defs>
</svg>
