<svg width="173" height="61" viewBox="0 0 173 61" fill="none" xmlns="http://www.w3.org/2000/svg">
<g clip-path="url(#clip0_111_103)">
<path d="M25.0104 60.5833C11.3958 60.5833 0.317688 49.6353 0.317688 36.177V0.114502L147.812 0.11971C161.427 0.11971 172.505 11.0676 172.505 24.526V60.5885" fill="white"/>
<path d="M147.812 5.78125H50.4271V36.1771C50.4271 46.5104 58.9635 54.9167 69.4531 54.9167H166.839V24.5208C166.839 14.1875 158.302 5.78125 147.812 5.78125Z" fill="white"/>
<path d="M164.948 53.026H69.4531C60.0052 53.026 52.3177 45.4688 52.3177 36.1771V7.67188H147.812C157.26 7.67188 164.948 15.2292 164.948 24.5208V53.026ZM147.812 5.78125H50.4271V36.1771C50.4271 46.5104 58.9635 54.9167 69.4531 54.9167H166.839V24.5208C166.839 14.1875 158.302 5.78125 147.812 5.78125Z" fill="#1D1D1B"/>
<path d="M28.7187 25.8594C27.026 28.349 28.4635 31.625 30.2083 33.2865C31.8021 34.7969 33.0781 35.151 33.2448 35.1927L34.0573 33.6406L36.401 40.0469L29.776 41.3958L30.6562 39.7604L29.7604 39.2604C26.9687 37.4427 26.3802 34.974 26.1875 34.2031C25.8541 32.875 25.3594 28.901 28.7187 25.8594Z" fill="#1D1D1B"/>
<path d="M28.6875 25.9635C29.8958 28.724 33.4271 29.2552 35.7656 28.6667C37.8333 28.1406 38.8177 27.2865 38.9844 27.1302L38.974 27.1146L38.0885 25.5781L44.7552 27.0365L42.3438 33.3542L41.4531 31.7604L40.5781 32.2344C37.5521 33.625 35.1458 32.8073 34.3958 32.5573C33.0938 32.1302 29.4688 30.4271 28.6875 25.9635Z" fill="#1D1D1B"/>
<path d="M40.474 19.3073C40.0156 22.6042 38.026 24.1875 37.4062 24.6875C36.3438 25.5521 32.9583 27.6823 28.7812 25.9323C31.75 26.4063 34.1094 23.7188 34.8698 21.4323C35.5521 19.3854 35.3542 18.0833 35.3177 17.8854L35.2969 17.8802L33.526 17.8073L38.3385 12.9688L42.3646 18.4062L40.5521 18.2969" fill="#1D1D1B"/>
<path fill-rule="evenodd" clip-rule="evenodd" d="M20.25 16.526C18.7344 16.526 17.5 15.2916 17.5 13.7708C17.5 12.2499 18.7344 11.0208 20.25 11.0208C21.7708 11.0208 23.0052 12.2499 23.0052 13.7708C23.0052 15.2916 21.7708 16.526 20.25 16.526Z" fill="#1D1D1B"/>
<path d="M15.9896 29.9115C16.224 29.2656 16.5781 29.3073 16.5781 29.3073C16.5781 29.3073 16.8906 29.2396 17.0677 29.8906L19.6406 38.9219C17.4948 38.2969 15.5365 37.2344 13.875 35.8229L15.9896 29.9115ZM24.0156 5.78125C14.0729 5.78125 5.98438 13.8698 5.98438 23.8125C5.98438 33.7552 14.0729 41.849 24.0156 41.849C24.5469 41.849 25.0729 41.8125 25.5938 41.7656L25.7135 43.5781L29.0104 40.3854L25.3177 37.5677L25.4583 39.4688C24.9844 39.5156 24.5052 39.5469 24.0156 39.5469C23.2552 39.5469 22.5052 39.4896 21.7656 39.3802L21.6927 38.901L19.9792 24.3021C19.7448 21.5469 21.3177 21.1094 22.2917 21.5208L27.7604 23.7188C28.3854 23.9896 28.6875 23.4635 28.6875 23.4635C28.6875 23.4635 29.0417 22.9167 28.4115 22.5104C28.4115 22.5104 20.9583 17.5729 19.3698 17.276C17.2031 16.8698 15.0573 18.625 14.5781 20.9115L11.9323 33.875C9.65625 31.1458 8.28646 27.6354 8.28646 23.8125C8.28646 15.1354 15.3438 8.07812 24.0156 8.07812C28.651 8.07812 32.8229 10.0938 35.7031 13.2917L37.3177 11.651C34.0208 8.04688 29.2813 5.78125 24.0156 5.78125Z" fill="#1D1D1B"/>
<path d="M75.9496 15.576V17.464H71.8696V20.152H75.7096V22.04H71.8696V25.112H76.1096V27H69.5656V15.576H75.9496ZM77.3168 15.576H80.7408L82.3728 23.64H82.4048L84.0528 15.576H87.4608V27H85.3488V17.88H85.3168L83.2848 27H81.4928L79.4608 17.88H79.4288V27H77.3168V15.576ZM91.4165 25.304H92.3125C92.8672 25.304 93.3152 25.1813 93.6565 24.936C93.9978 24.6907 94.1685 24.2373 94.1685 23.576C94.1685 23.2453 94.1205 22.9733 94.0245 22.76C93.9392 22.536 93.8165 22.36 93.6565 22.232C93.5072 22.0933 93.3258 21.9973 93.1125 21.944C92.8992 21.8907 92.6645 21.864 92.4085 21.864H91.4165V25.304ZM91.4165 20.264H92.0725C92.7125 20.264 93.1765 20.152 93.4645 19.928C93.7632 19.6933 93.9125 19.304 93.9125 18.76C93.9125 18.216 93.7792 17.832 93.5125 17.608C93.2458 17.384 92.8245 17.272 92.2485 17.272H91.4165V20.264ZM89.1125 15.576H92.9685C93.4378 15.576 93.8698 15.624 94.2645 15.72C94.6698 15.816 95.0165 15.976 95.3045 16.2C95.5925 16.424 95.8165 16.7227 95.9765 17.096C96.1365 17.4693 96.2165 17.928 96.2165 18.472C96.2165 19.0907 96.0725 19.624 95.7845 20.072C95.4965 20.5093 95.0645 20.808 94.4885 20.968V21C95.1285 21.0853 95.6352 21.3573 96.0085 21.816C96.3818 22.2747 96.5685 22.888 96.5685 23.656C96.5685 24.104 96.5098 24.5307 96.3925 24.936C96.2752 25.3413 96.0725 25.6987 95.7845 26.008C95.5072 26.3067 95.1392 26.5467 94.6805 26.728C94.2325 26.9093 93.6725 27 93.0005 27H89.1125V15.576ZM102.771 22.696L101.667 17.56H101.635L100.531 22.696H102.771ZM103.075 15.576L106.099 27H103.699L103.171 24.584H100.131L99.6031 27H97.2031L100.227 15.576H103.075ZM106.894 27V15.576H109.198V25.112H113.278V27H106.894ZM114.3 27V15.576H116.604V25.112H120.684V27H114.3ZM126.474 22.696L125.37 17.56H125.338L124.234 22.696H126.474ZM126.778 15.576L129.802 27H127.402L126.874 24.584H123.834L123.306 27H120.906L123.93 15.576H126.778ZM135.669 18.968C135.669 18.7547 135.642 18.536 135.589 18.312C135.546 18.088 135.472 17.8853 135.365 17.704C135.258 17.512 135.12 17.3573 134.949 17.24C134.789 17.112 134.592 17.048 134.357 17.048C133.802 17.048 133.402 17.3573 133.157 17.976C132.912 18.5947 132.789 19.6187 132.789 21.048C132.789 21.7307 132.81 22.3493 132.853 22.904C132.896 23.4587 132.97 23.9333 133.077 24.328C133.194 24.712 133.354 25.0107 133.557 25.224C133.77 25.4267 134.042 25.528 134.373 25.528C134.512 25.528 134.661 25.4907 134.821 25.416C134.992 25.3413 135.146 25.2293 135.285 25.08C135.434 24.9307 135.557 24.744 135.653 24.52C135.749 24.2853 135.797 24.0133 135.797 23.704V22.536H134.277V20.84H138.005V27H136.309V25.944H136.277C136 26.392 135.664 26.712 135.269 26.904C134.885 27.0853 134.421 27.176 133.877 27.176C133.173 27.176 132.597 27.0533 132.149 26.808C131.712 26.5627 131.365 26.184 131.109 25.672C130.864 25.16 130.698 24.5307 130.613 23.784C130.528 23.0267 130.485 22.152 130.485 21.16C130.485 20.2 130.544 19.3573 130.661 18.632C130.789 17.9067 131.002 17.304 131.301 16.824C131.6 16.3333 131.994 15.9653 132.485 15.72C132.976 15.4747 133.589 15.352 134.325 15.352C135.584 15.352 136.49 15.6667 137.045 16.296C137.6 16.9147 137.877 17.8053 137.877 18.968H135.669ZM145.872 15.576V17.464H141.792V20.152H145.632V22.04H141.792V25.112H146.032V27H139.488V15.576H145.872ZM59.9641 34.576H64.2201C65.1801 34.576 65.9267 34.8213 66.4601 35.312C66.9934 35.792 67.2601 36.528 67.2601 37.52C67.2601 38.288 67.1054 38.9173 66.7961 39.408C66.4867 39.888 66.0067 40.1973 65.3561 40.336V40.368C65.9321 40.4533 66.3534 40.64 66.6201 40.928C66.8867 41.216 67.0521 41.68 67.1161 42.32C67.1374 42.5333 67.1534 42.768 67.1641 43.024C67.1747 43.2693 67.1854 43.5467 67.1961 43.856C67.2174 44.464 67.2494 44.928 67.2921 45.248C67.3561 45.568 67.4947 45.7867 67.7081 45.904V46H65.2121C65.0947 45.84 65.0201 45.6587 64.9881 45.456C64.9561 45.2427 64.9347 45.024 64.9241 44.8L64.8601 42.608C64.8387 42.16 64.7267 41.808 64.5241 41.552C64.3214 41.296 63.9801 41.168 63.5001 41.168H62.2681V46H59.9641V34.576ZM62.2681 39.568H63.2281C63.7827 39.568 64.2094 39.44 64.5081 39.184C64.8067 38.9173 64.9561 38.4747 64.9561 37.856C64.9561 36.8 64.4227 36.272 63.3561 36.272H62.2681V39.568ZM71.9267 31.6H74.1347L72.5667 33.904H71.0627L71.9267 31.6ZM75.2387 34.576V36.464H71.1587V39.152H74.9987V41.04H71.1587V44.112H75.3987V46H68.8547V34.576H75.2387ZM82.9418 34.576V36.464H78.8618V39.152H82.7018V41.04H78.8618V44.112H83.1018V46H76.5578V34.576H82.9418ZM84.3089 34.576H87.7329L89.3649 42.64H89.3969L91.0449 34.576H94.4529V46H92.3409V36.88H92.3089L90.2769 46H88.4849L86.4529 36.88H86.4209V46H84.3089V34.576ZM98.4087 39.744H99.4327C99.8914 39.744 100.259 39.6053 100.537 39.328C100.825 39.0507 100.969 38.6187 100.969 38.032C100.969 37.456 100.846 37.0187 100.601 36.72C100.355 36.4213 99.9447 36.272 99.3687 36.272H98.4087V39.744ZM96.1047 34.576H100.137C100.723 34.576 101.214 34.6773 101.609 34.88C102.014 35.072 102.339 35.328 102.585 35.648C102.83 35.968 103.006 36.336 103.113 36.752C103.219 37.1573 103.273 37.5733 103.273 38C103.273 38.5867 103.182 39.0987 103.001 39.536C102.83 39.9733 102.585 40.3307 102.265 40.608C101.955 40.8853 101.577 41.0933 101.129 41.232C100.681 41.3707 100.185 41.44 99.6407 41.44H98.4087V46H96.1047V34.576ZM104.402 46V34.576H106.706V44.112H110.786V46H104.402ZM113.872 40.288C113.872 41.056 113.888 41.712 113.92 42.256C113.962 42.7893 114.037 43.2267 114.144 43.568C114.261 43.8987 114.421 44.144 114.624 44.304C114.837 44.4533 115.114 44.528 115.456 44.528C115.797 44.528 116.069 44.4533 116.272 44.304C116.485 44.144 116.645 43.8987 116.752 43.568C116.869 43.2267 116.944 42.7893 116.976 42.256C117.018 41.712 117.04 41.056 117.04 40.288C117.04 39.52 117.018 38.8693 116.976 38.336C116.944 37.8027 116.869 37.3653 116.752 37.024C116.645 36.6827 116.485 36.4373 116.272 36.288C116.069 36.128 115.797 36.048 115.456 36.048C115.114 36.048 114.837 36.128 114.624 36.288C114.421 36.4373 114.261 36.6827 114.144 37.024C114.037 37.3653 113.962 37.8027 113.92 38.336C113.888 38.8693 113.872 39.52 113.872 40.288ZM111.568 40.288C111.568 39.424 111.605 38.6293 111.68 37.904C111.765 37.168 111.941 36.5387 112.208 36.016C112.485 35.4933 112.88 35.088 113.392 34.8C113.904 34.5013 114.592 34.352 115.456 34.352C116.32 34.352 117.008 34.5013 117.52 34.8C118.032 35.088 118.421 35.4933 118.688 36.016C118.965 36.5387 119.141 37.168 119.216 37.904C119.301 38.6293 119.344 39.424 119.344 40.288C119.344 41.1627 119.301 41.9627 119.216 42.688C119.141 43.4133 118.965 44.0373 118.688 44.56C118.421 45.0827 118.032 45.4827 117.52 45.76C117.008 46.0373 116.32 46.176 115.456 46.176C114.592 46.176 113.904 46.0373 113.392 45.76C112.88 45.4827 112.485 45.0827 112.208 44.56C111.941 44.0373 111.765 43.4133 111.68 42.688C111.605 41.9627 111.568 41.1627 111.568 40.288ZM122.148 34.576L123.652 38.992H123.684L125.284 34.576H127.78L124.82 41.504V46H122.516V41.504L119.556 34.576H122.148ZM132.513 41.696L131.409 36.56H131.377L130.273 41.696H132.513ZM132.817 34.576L135.841 46H133.441L132.913 43.584H129.873L129.345 46H126.945L129.969 34.576H132.817ZM138.94 44.304H139.836C140.391 44.304 140.839 44.1813 141.18 43.936C141.521 43.6907 141.692 43.2373 141.692 42.576C141.692 42.2453 141.644 41.9733 141.548 41.76C141.463 41.536 141.34 41.36 141.18 41.232C141.031 41.0933 140.849 40.9973 140.636 40.944C140.423 40.8907 140.188 40.864 139.932 40.864H138.94V44.304ZM138.94 39.264H139.596C140.236 39.264 140.7 39.152 140.988 38.928C141.287 38.6933 141.436 38.304 141.436 37.76C141.436 37.216 141.303 36.832 141.036 36.608C140.769 36.384 140.348 36.272 139.772 36.272H138.94V39.264ZM136.636 34.576H140.492C140.961 34.576 141.393 34.624 141.788 34.72C142.193 34.816 142.54 34.976 142.828 35.2C143.116 35.424 143.34 35.7227 143.5 36.096C143.66 36.4693 143.74 36.928 143.74 37.472C143.74 38.0907 143.596 38.624 143.308 39.072C143.02 39.5093 142.588 39.808 142.012 39.968V40C142.652 40.0853 143.159 40.3573 143.532 40.816C143.905 41.2747 144.092 41.888 144.092 42.656C144.092 43.104 144.033 43.5307 143.916 43.936C143.799 44.3413 143.596 44.6987 143.308 45.008C143.031 45.3067 142.663 45.5467 142.204 45.728C141.756 45.9093 141.196 46 140.524 46H136.636V34.576ZM145.527 46V34.576H147.831V44.112H151.911V46H145.527ZM159.317 34.576V36.464H155.237V39.152H159.077V41.04H155.237V44.112H159.477V46H152.933V34.576H159.317Z" fill="#1C1C1B"/>
</g>
<defs>
<clipPath id="clip0_111_103">
<rect width="173" height="61" fill="white"/>
</clipPath>
</defs>
</svg>
