<svg width="227" height="61" viewBox="0 0 227 61" fill="none" xmlns="http://www.w3.org/2000/svg">
<g clip-path="url(#clip0_14_221)">
<path d="M24.8542 60.7916C11.2344 60.7916 0.15625 49.8385 0.15625 36.3801V0.317627H201.323C214.938 0.317627 226.016 11.2655 226.016 24.7239L226.021 60.7916" fill="white"/>
<path d="M201.323 5.98438H50.2708V36.3802C50.2708 46.7135 58.802 55.1198 69.2916 55.1198H220.349V24.724C220.349 14.3958 211.812 5.98438 201.323 5.98438Z" fill="white"/>
<path d="M218.458 53.2292H69.2916C59.8437 53.2292 52.1562 45.6719 52.1562 36.3802V7.875H201.323C210.771 7.875 218.458 15.4323 218.458 24.724V53.2292ZM201.323 5.98438H50.2708V36.3802C50.2708 46.7135 58.802 55.1198 69.2916 55.1198H220.349V24.724C220.349 14.3958 211.812 5.98438 201.323 5.98438Z" fill="#FCC42F"/>
<path d="M163.089 55.1198L176.099 28.5417L162.807 5.98438H201.323C211.812 5.98438 220.349 14.3906 220.349 24.724V55.1198" fill="#FCC42F"/>
<path d="M201.323 7.875H166.115L178.245 28.4583L166.12 53.2292H218.458V24.724C218.458 15.4323 210.771 7.875 201.323 7.875Z" fill="#FCC42F"/>
<path d="M206.281 41.6615H205.078C204.979 41.6615 204.885 41.6719 204.792 41.6875C205.354 35.4323 206.224 25.7708 206.646 21.3958C206.687 20.9531 206.359 20.5573 205.917 20.5156C205.464 20.4635 205.073 20.7969 205.031 21.2448C204.385 27.9635 202.677 47.1458 202.661 47.3385C202.63 47.6615 202.312 47.9271 201.943 47.9271H188.854C188.479 47.9271 188.167 47.6615 188.135 47.3385C188.12 47.1458 186.411 27.9635 185.766 21.2448C185.724 20.7969 185.333 20.4635 184.88 20.5156C184.437 20.5573 184.109 20.9531 184.151 21.3958C184.573 25.7708 185.443 35.4271 186.005 41.6875C185.911 41.6667 185.812 41.6562 185.719 41.6562H184.516C183.74 41.6562 183.104 42.2917 183.104 43.0677V48.1406C183.104 48.9167 183.74 49.5469 184.516 49.5469H185.719C186.297 49.5469 186.802 49.1927 187.016 48.6823C187.443 49.2135 188.104 49.5469 188.854 49.5469H201.943C202.687 49.5469 203.349 49.2135 203.781 48.6875C203.995 49.1927 204.495 49.5521 205.078 49.5521H206.281C207.057 49.5521 207.687 48.9219 207.687 48.1406V43.0677C207.687 42.2917 207.057 41.6615 206.281 41.6615Z" fill="#1C1C1B"/>
<path d="M190.344 25.1198V27.4115H191.016C191.411 27.4115 191.625 27.2292 191.625 26.6771V26.026C191.625 25.3333 191.401 25.1198 190.865 25.1198H190.344ZM190.344 22.0833V24.0521H190.802C191.24 24.0521 191.505 23.8646 191.505 23.2656V22.849C191.505 22.3125 191.323 22.0833 190.906 22.0833H190.344ZM192.677 22.7344V23C192.677 23.7656 192.443 24.2448 191.922 24.4896V24.5104C192.547 24.7604 192.797 25.3125 192.797 26.099V26.7083C192.797 27.8594 192.187 28.4792 191.016 28.4792H189.172V21.0156H190.938C192.156 21.0156 192.677 21.5833 192.677 22.7344Z" fill="#1C1C1B"/>
<path d="M194.833 26.1146H195.964L195.411 22.3385H195.385L194.833 26.1146ZM197.51 28.4792H196.328L196.125 27.125H194.688L194.479 28.4792H193.406L194.599 21.0156H196.313" fill="#1C1C1B"/>
<path d="M201.661 25.6926V26.6874C201.661 27.8801 201.062 28.5624 199.911 28.5624C198.76 28.5624 198.161 27.8801 198.161 26.6874V22.8072C198.161 21.6093 198.76 20.927 199.911 20.927C201.062 20.927 201.661 21.6093 201.661 22.8072V23.5312H200.552V22.7291C200.552 22.1978 200.318 21.9947 199.943 21.9947C199.573 21.9947 199.338 22.1978 199.338 22.7291V26.7603C199.338 27.2916 199.573 27.4843 199.943 27.4843C200.318 27.4843 200.552 27.2916 200.552 26.7603V25.6926" fill="#1C1C1B"/>
<path d="M192.703 31.2083V36.5365H193.365C193.734 36.5365 193.958 36.3438 193.958 35.8125V31.9323C193.958 31.401 193.734 31.2083 193.365 31.2083H192.703ZM191.531 30.1406H193.385C194.557 30.1406 195.13 30.7917 195.13 31.9844V35.7604C195.13 36.9531 194.557 37.6042 193.385 37.6042H191.531" fill="#1C1C1B"/>
<path d="M197.266 33.2865H198.875V34.349H197.266V36.5365H199.292V37.6042H196.094V30.1406H199.292V31.2031H197.266" fill="#1C1C1B"/>
<path d="M190.161 39.2656H193.786V40.3281H192.562V46.7292H191.385V40.3281H190.161" fill="#1C1C1B"/>
<path d="M195.688 40.3281V42.625H196.146C196.583 42.625 196.849 42.4323 196.849 41.8333V41.099C196.849 40.5677 196.667 40.3281 196.25 40.3281H195.688ZM196.969 46.7292C196.901 46.5365 196.859 46.4167 196.859 45.8125V44.6354C196.859 43.9479 196.625 43.6875 196.094 43.6875H195.688V46.7292H194.516V39.2656H196.286C197.5 39.2656 198.021 39.8281 198.021 40.9792V41.5677C198.021 42.3333 197.776 42.8229 197.255 43.0729V43.0938C197.839 43.3385 198.031 43.8906 198.031 44.6719V45.8229C198.031 46.1823 198.042 46.4531 198.161 46.7292" fill="#1C1C1B"/>
<path d="M199.016 46.7292H200.188V39.2656H199.016V46.7292Z" fill="#1C1C1B"/>
<path d="M207.125 17.6197H183.672V15.6666C183.672 15.5989 183.703 15.5676 183.698 15.5676H185.396C185.589 15.5676 185.771 15.4999 185.917 15.3697L188.047 13.5103C188.141 13.427 188.37 13.3437 188.661 13.3437H202.13C202.422 13.3437 202.656 13.427 202.75 13.5103L204.88 15.3697C205.026 15.4999 205.208 15.5676 205.401 15.5676H207.099C207.089 15.5676 207.125 15.5989 207.125 15.6666V17.6197ZM207.099 13.9791H205.698L203.792 12.3176C203.385 11.9583 202.781 11.7551 202.13 11.7551H188.661C188.016 11.7551 187.411 11.9583 187 12.3176L185.094 13.9791H183.698C182.807 13.9791 182.089 14.7395 182.089 15.6666V17.8124C182.089 18.1093 182.161 18.401 182.307 18.6614C182.37 18.7708 182.458 18.8697 182.562 18.9374C182.823 19.1093 183.12 19.1978 183.427 19.1978H207.37C207.677 19.1978 207.974 19.1093 208.234 18.9374C208.339 18.8697 208.427 18.7708 208.49 18.6614C208.63 18.401 208.708 18.1093 208.708 17.8124V15.6666C208.708 14.7395 207.984 13.9791 207.099 13.9791Z" fill="#1C1C1B"/>
<path d="M202.125 14.0781H188.667C188.297 14.0781 187.995 14.3802 187.995 14.75C187.995 15.1198 188.297 15.4219 188.667 15.4219H202.125C202.495 15.4219 202.797 15.1198 202.797 14.75C202.797 14.3802 202.495 14.0781 202.125 14.0781Z" fill="#1C1C1B"/>
<path d="M103.057 5.98438H50.2708V36.3802C50.2708 46.7135 58.802 55.1198 69.2916 55.1198H122.083V24.724C122.083 14.3958 113.547 5.98438 103.057 5.98438Z" fill="#FCC42F"/>
<path d="M63.8072 29.677C59.0051 29.677 55.1145 33.5676 55.1145 38.3697C55.1145 43.1718 59.0051 47.0624 63.8072 47.0624C68.6145 47.0624 72.5051 43.1718 72.5051 38.3697C72.5051 33.5676 68.6145 29.677 63.8072 29.677Z" fill="white"/>
<path d="M69.4792 39.7865H65.2292V44.0417H62.3906V39.7865H58.1406V36.9531H62.3906V32.7031H65.2292V36.9531H69.4792" fill="#1C1C1B"/>
<path d="M55.9426 26.9167V17.5156H58.427V24.8333H61.9843V26.9167" fill="#1C1C1B"/>
<path d="M63.0989 26.9167V17.5156H69.1718V19.599H65.5885V21.0729H68.651V23.1562H65.5885V24.8333H69.3176V26.9167" fill="#1C1C1B"/>
<path d="M75.2448 26.9167V19.599H72.7604V17.5156H80.2239V19.599H77.7343V26.9167" fill="#1C1C1B"/>
<path d="M83.7083 21.7969H84.6042C85.6042 21.7969 86.1094 21.3802 86.1094 20.5521C86.1094 20.1458 85.9792 19.8698 85.724 19.7135C85.4688 19.5573 85.0938 19.4792 84.6042 19.4792H83.7083V21.7969ZM81.2188 26.9167V17.5156H84.776C85.2813 17.5156 85.7604 17.5625 86.2188 17.6562C86.6771 17.7552 87.0729 17.9219 87.4167 18.151C87.7604 18.3802 88.0313 18.6927 88.2344 19.0833C88.4375 19.474 88.5365 19.9635 88.5365 20.5521C88.5365 21.2292 88.401 21.7865 88.125 22.2292C87.8542 22.6719 87.4844 23.0208 87.0208 23.2708L89.0573 26.9167H86.2812L84.6615 23.7604H83.7083V26.9167" fill="#1C1C1B"/>
<path d="M90.026 26.9167H92.5156V17.5156H90.026V26.9167Z" fill="#1C1C1B"/>
<path d="M75.5364 43.5937V34.1926H81.6666V36.276H78.026V38.0676H81.1458V40.151H78.026V43.5937" fill="#1C1C1B"/>
<path d="M85.0781 39.0208L84.9166 39.6718H86.651L86.4948 39.0208C86.3802 38.5676 86.2604 38.078 86.1458 37.5468C86.0312 37.0155 85.9166 36.5155 85.7968 36.0416H85.7395C85.6354 36.526 85.526 37.0312 85.4166 37.552C85.3073 38.078 85.1927 38.5676 85.0781 39.0208ZM81.4635 43.5937L84.3229 34.1926H87.3281L90.1927 43.5937H87.5625L87.0989 41.5989H84.4687L84.0052 43.5937" fill="#1C1C1B"/>
<path d="M94.7187 43.7656C94.1249 43.7656 93.552 43.6667 93.0103 43.4688C92.4635 43.2708 91.9895 42.974 91.578 42.5729C91.1666 42.1719 90.8385 41.6719 90.5989 41.0677C90.3593 40.4688 90.2395 39.7656 90.2395 38.9635C90.2395 38.1771 90.3645 37.474 90.6145 36.8594C90.8645 36.25 91.1978 35.7344 91.6197 35.3125C92.0364 34.8958 92.5208 34.5729 93.0676 34.349C93.6145 34.1302 94.1822 34.0156 94.7812 34.0156C95.4062 34.0156 95.9687 34.1406 96.4583 34.3854C96.953 34.6354 97.3645 34.9271 97.703 35.2604L96.401 36.8542C96.1718 36.651 95.9322 36.4844 95.6874 36.3542C95.4374 36.224 95.1562 36.1562 94.8385 36.1562C94.5572 36.1562 94.2968 36.2188 94.052 36.349C93.8072 36.474 93.5885 36.651 93.401 36.8802C93.2135 37.1146 93.0624 37.401 92.953 37.7344C92.8385 38.0729 92.7864 38.4531 92.7864 38.875C92.7864 39.7656 92.9687 40.4479 93.3437 40.9167C93.7135 41.3906 94.203 41.625 94.8072 41.625C95.177 41.625 95.4999 41.5469 95.7864 41.3854C96.0676 41.2292 96.3124 41.0365 96.5155 40.8177L97.8176 42.375C97.4114 42.8438 96.9478 43.1875 96.4218 43.4167C95.8958 43.651 95.328 43.7656 94.7187 43.7656Z" fill="#1C1C1B"/>
<path d="M98.776 43.5937H101.26V34.1926H98.776V43.5937Z" fill="#1C1C1B"/>
<path d="M103.031 43.5937V34.1926H105.521V41.5103H109.078V43.5937" fill="#1C1C1B"/>
<path d="M110.188 43.5937V34.1926H116.266V36.276H112.677V37.7499H115.745V39.8333H112.677V41.5103H116.411V43.5937" fill="#1C1C1B"/>
<path d="M28.5624 26.0625C26.8697 28.5521 28.3072 31.8281 30.052 33.4896C31.6458 35 32.9218 35.3594 33.0885 35.401L33.901 33.8438L36.2447 40.2552L29.6197 41.599L30.4999 39.9688L29.6041 39.4635C26.8124 37.6458 26.2239 35.1771 26.0312 34.4062C25.6978 33.0781 25.203 29.1094 28.5624 26.0625Z" fill="#1C1C1B"/>
<path d="M28.5312 26.1718C29.7344 28.927 33.2708 29.4635 35.6042 28.8697C37.6771 28.3437 38.6615 27.4895 38.8281 27.3333L38.8177 27.3176L37.9323 25.7864L44.599 27.2395L42.1875 33.5572L41.2917 31.9687L40.4219 32.4374C37.3958 33.828 34.9896 33.0103 34.2344 32.7603C32.9375 32.3333 29.3125 30.6353 28.5312 26.1718Z" fill="#1C1C1B"/>
<path d="M40.3177 19.5156C39.8541 22.8125 37.8698 24.3958 37.25 24.8958C36.1875 25.7552 32.802 27.8854 28.6198 26.1354C31.5937 26.6094 33.9531 23.9271 34.7135 21.6406C35.401 19.5885 35.1979 18.2917 35.1562 18.0885H35.1354L33.3698 18.0104L38.1823 13.1719L42.2083 18.6094L40.3906 18.5052" fill="#1C1C1B"/>
<path fill-rule="evenodd" clip-rule="evenodd" d="M20.0938 16.7291C18.5729 16.7291 17.3438 15.4999 17.3438 13.9791C17.3438 12.4583 18.5729 11.2239 20.0938 11.2239C21.6146 11.2239 22.849 12.4583 22.849 13.9791C22.849 15.4999 21.6146 16.7291 20.0938 16.7291Z" fill="#1C1C1B"/>
<path d="M15.8333 30.1146C16.0677 29.4688 16.4167 29.5104 16.4167 29.5104C16.4167 29.5104 16.7344 29.4427 16.9115 30.0938L19.4844 39.125C17.3385 38.5052 15.3802 37.4375 13.7135 36.0312L15.8333 30.1146ZM23.8594 5.98438C13.9167 5.98438 5.82812 14.0729 5.82812 24.0208C5.82812 33.9583 13.9167 42.0521 23.8594 42.0521C24.3906 42.0521 24.9115 42.0156 25.4323 41.9688L25.5521 43.7812L28.8542 40.5885L25.1615 37.776L25.3021 39.6771C24.8281 39.7188 24.3438 39.75 23.8594 39.75C23.0938 39.75 22.3438 39.6927 21.6094 39.5885L21.5365 39.1094L19.8229 24.5104C19.5885 21.7552 21.1615 21.3125 22.1354 21.7292L27.6042 23.9219C28.2292 24.1927 28.5312 23.6719 28.5312 23.6719C28.5312 23.6719 28.8854 23.1198 28.25 22.7135C28.25 22.7135 20.7969 17.776 19.2083 17.4792C17.0417 17.0729 14.8958 18.8281 14.4219 21.1146L11.776 34.0833C9.5 31.349 8.125 27.8438 8.125 24.0208C8.125 15.3438 15.1823 8.28646 23.8594 8.28646C28.4948 8.28646 32.6667 10.3021 35.5469 13.4948L37.1615 11.8594C33.8646 8.25 29.1198 5.98438 23.8594 5.98438Z" fill="#1C1C1B"/>
<path d="M131.515 34.6H132.343L131.755 35.464H131.191L131.515 34.6ZM132.757 35.716V36.424H131.227V37.432H132.667V38.14H131.227V39.292H132.817V40H130.363V35.716H132.757ZM133.251 40V35.716H134.115V39.292H135.645V40H133.251ZM137.181 34.6H138.009L137.421 35.464H136.857L137.181 34.6ZM138.423 35.716V36.424H136.893V37.432H138.333V38.14H136.893V39.292H138.483V40H136.029V35.716H138.423ZM138.935 35.716H140.219L140.831 38.74H140.843L141.461 35.716H142.739V40H141.947V36.58H141.935L141.173 40H140.501L139.739 36.58H139.727V40H138.935V35.716ZM145.753 35.716V36.424H144.223V37.432H145.663V38.14H144.223V39.292H145.813V40H143.359V35.716H145.753ZM147.243 35.716L148.287 38.65H148.299V35.716H149.091V40H148.107L147.051 37H147.039V40H146.247V35.716H147.243ZM152.201 35.716V36.424H151.265V40H150.401V36.424H149.465V35.716H152.201ZM154.051 35.716C153.927 35.944 153.821 36.166 153.733 36.382C153.645 36.594 153.573 36.808 153.517 37.024C153.465 37.24 153.427 37.462 153.403 37.69C153.379 37.914 153.367 38.154 153.367 38.41C153.367 38.666 153.379 38.908 153.403 39.136C153.427 39.36 153.465 39.578 153.517 39.79C153.573 39.998 153.645 40.208 153.733 40.42C153.821 40.636 153.927 40.858 154.051 41.086H153.415C153.115 40.614 152.899 40.156 152.767 39.712C152.639 39.268 152.575 38.834 152.575 38.41C152.575 37.986 152.639 37.55 152.767 37.102C152.899 36.65 153.115 36.188 153.415 35.716H154.051ZM155.047 38.662V38.788C155.047 38.888 155.055 38.98 155.071 39.064C155.087 39.144 155.117 39.212 155.161 39.268C155.205 39.324 155.263 39.368 155.335 39.4C155.411 39.432 155.505 39.448 155.617 39.448C155.749 39.448 155.867 39.406 155.971 39.322C156.079 39.234 156.133 39.1 156.133 38.92C156.133 38.824 156.119 38.742 156.091 38.674C156.067 38.602 156.025 38.538 155.965 38.482C155.905 38.426 155.825 38.376 155.725 38.332C155.629 38.284 155.509 38.236 155.365 38.188C155.173 38.124 155.007 38.054 154.867 37.978C154.727 37.902 154.609 37.814 154.513 37.714C154.421 37.61 154.353 37.492 154.309 37.36C154.265 37.224 154.243 37.068 154.243 36.892C154.243 36.468 154.361 36.152 154.597 35.944C154.833 35.736 155.157 35.632 155.569 35.632C155.761 35.632 155.937 35.654 156.097 35.698C156.261 35.738 156.401 35.806 156.517 35.902C156.637 35.994 156.729 36.114 156.793 36.262C156.861 36.406 156.895 36.58 156.895 36.784V36.904H156.067C156.067 36.7 156.031 36.544 155.959 36.436C155.887 36.324 155.767 36.268 155.599 36.268C155.503 36.268 155.423 36.282 155.359 36.31C155.295 36.338 155.243 36.376 155.203 36.424C155.167 36.468 155.141 36.52 155.125 36.58C155.113 36.64 155.107 36.702 155.107 36.766C155.107 36.898 155.135 37.01 155.191 37.102C155.247 37.19 155.367 37.272 155.551 37.348L156.217 37.636C156.381 37.708 156.515 37.784 156.619 37.864C156.723 37.94 156.805 38.024 156.865 38.116C156.929 38.204 156.973 38.302 156.997 38.41C157.021 38.518 157.033 38.638 157.033 38.77C157.033 39.222 156.901 39.552 156.637 39.76C156.377 39.964 156.013 40.066 155.545 40.066C155.057 40.066 154.707 39.96 154.495 39.748C154.287 39.536 154.183 39.232 154.183 38.836V38.662H155.047ZM157.798 35.716C158.098 36.188 158.312 36.65 158.44 37.102C158.572 37.55 158.638 37.986 158.638 38.41C158.638 38.834 158.572 39.268 158.44 39.712C158.312 40.156 158.098 40.614 157.798 41.086H157.162C157.286 40.858 157.392 40.636 157.48 40.42C157.568 40.208 157.638 39.998 157.69 39.79C157.746 39.578 157.786 39.36 157.81 39.136C157.834 38.908 157.846 38.666 157.846 38.41C157.846 38.154 157.834 37.914 157.81 37.69C157.786 37.462 157.746 37.24 157.69 37.024C157.638 36.808 157.568 36.594 157.48 36.382C157.392 36.166 157.286 35.944 157.162 35.716H157.798ZM128.649 46.364H129.033C129.185 46.364 129.307 46.338 129.399 46.286C129.491 46.234 129.563 46.148 129.615 46.028C129.671 45.908 129.707 45.75 129.723 45.554C129.743 45.358 129.753 45.114 129.753 44.822C129.753 44.578 129.745 44.364 129.729 44.18C129.713 43.996 129.679 43.844 129.627 43.724C129.579 43.6 129.505 43.508 129.405 43.448C129.309 43.384 129.179 43.352 129.015 43.352H128.649V46.364ZM127.785 42.716H129.201C129.501 42.716 129.743 42.766 129.927 42.866C130.111 42.962 130.253 43.102 130.353 43.286C130.457 43.466 130.527 43.684 130.563 43.94C130.599 44.196 130.617 44.482 130.617 44.798C130.617 45.174 130.593 45.502 130.545 45.782C130.501 46.058 130.423 46.286 130.311 46.466C130.199 46.646 130.049 46.78 129.861 46.868C129.673 46.956 129.435 47 129.147 47H127.785V42.716ZM132.065 43.496C132.065 43.656 132.053 43.804 132.029 43.94C132.009 44.072 131.969 44.188 131.909 44.288C131.849 44.384 131.767 44.464 131.663 44.528C131.563 44.588 131.433 44.626 131.273 44.642V44.222C131.377 44.202 131.455 44.146 131.507 44.054C131.559 43.962 131.585 43.86 131.585 43.748V43.652H131.273V42.716H132.065V43.496ZM135.141 42.716V43.424H133.611V44.432H135.051V45.14H133.611V46.292H135.201V47H132.747V42.716H135.141ZM135.654 42.716H136.938L137.55 45.74H137.562L138.18 42.716H139.458V47H138.666V43.58H138.654L137.892 47H137.22L136.458 43.58H136.446V47H135.654V42.716ZM140.941 46.364H141.277C141.485 46.364 141.653 46.318 141.781 46.226C141.909 46.134 141.973 45.964 141.973 45.716C141.973 45.592 141.955 45.49 141.919 45.41C141.887 45.326 141.841 45.26 141.781 45.212C141.725 45.16 141.657 45.124 141.577 45.104C141.497 45.084 141.409 45.074 141.313 45.074H140.941V46.364ZM140.941 44.474H141.187C141.427 44.474 141.601 44.432 141.709 44.348C141.821 44.26 141.877 44.114 141.877 43.91C141.877 43.706 141.827 43.562 141.727 43.478C141.627 43.394 141.469 43.352 141.253 43.352H140.941V44.474ZM140.077 42.716H141.523C141.699 42.716 141.861 42.734 142.009 42.77C142.161 42.806 142.291 42.866 142.399 42.95C142.507 43.034 142.591 43.146 142.651 43.286C142.711 43.426 142.741 43.598 142.741 43.802C142.741 44.034 142.687 44.234 142.579 44.402C142.471 44.566 142.309 44.678 142.093 44.738V44.75C142.333 44.782 142.523 44.884 142.663 45.056C142.803 45.228 142.873 45.458 142.873 45.746C142.873 45.914 142.851 46.074 142.807 46.226C142.763 46.378 142.687 46.512 142.579 46.628C142.475 46.74 142.337 46.83 142.165 46.898C141.997 46.966 141.787 47 141.535 47H140.077V42.716ZM145.199 45.386L144.785 43.46H144.773L144.359 45.386H145.199ZM145.313 42.716L146.447 47H145.547L145.349 46.094H144.209L144.011 47H143.111L144.245 42.716H145.313ZM146.745 47V42.716H147.609V46.292H149.139V47H146.745ZM149.523 47V42.716H150.387V46.292H151.917V47H149.523ZM154.088 45.386L153.674 43.46H153.662L153.248 45.386H154.088ZM154.202 42.716L155.336 47H154.436L154.238 46.094H153.098L152.9 47H152L153.134 42.716H154.202ZM157.536 43.988C157.536 43.908 157.526 43.826 157.506 43.742C157.49 43.658 157.462 43.582 157.422 43.514C157.382 43.442 157.33 43.384 157.266 43.34C157.206 43.292 157.132 43.268 157.044 43.268C156.836 43.268 156.686 43.384 156.594 43.616C156.502 43.848 156.456 44.232 156.456 44.768C156.456 45.024 156.464 45.256 156.48 45.464C156.496 45.672 156.524 45.85 156.564 45.998C156.608 46.142 156.668 46.254 156.744 46.334C156.824 46.41 156.926 46.448 157.05 46.448C157.102 46.448 157.158 46.434 157.218 46.406C157.282 46.378 157.34 46.336 157.392 46.28C157.448 46.224 157.494 46.154 157.53 46.07C157.566 45.982 157.584 45.88 157.584 45.764V45.326H157.014V44.69H158.412V47H157.776V46.604H157.764C157.66 46.772 157.534 46.892 157.386 46.964C157.242 47.032 157.068 47.066 156.864 47.066C156.6 47.066 156.384 47.02 156.216 46.928C156.052 46.836 155.922 46.694 155.826 46.502C155.734 46.31 155.672 46.074 155.64 45.794C155.608 45.51 155.592 45.182 155.592 44.81C155.592 44.45 155.614 44.134 155.658 43.862C155.706 43.59 155.786 43.364 155.898 43.184C156.01 43 156.158 42.862 156.342 42.77C156.526 42.678 156.756 42.632 157.032 42.632C157.504 42.632 157.844 42.75 158.052 42.986C158.26 43.218 158.364 43.552 158.364 43.988H157.536ZM161.362 42.716V43.424H159.832V44.432H161.272V45.14H159.832V46.292H161.422V47H158.968V42.716H161.362Z" fill="#1C1C1B"/>
<path d="M144.333 15.5038L146.349 13.1227L152.538 14.8851L150.429 17.7007L144.333 15.5038ZM147.772 24.545L144.533 21.8024L150.622 18.9625L153.679 21.1941L147.772 24.545ZM144.05 29.6756L144.026 22.6088L147.441 25.5009C147.583 25.6226 147.8 25.6434 147.965 25.5496L149.916 24.4442L149.96 25.8798L144.05 29.6756ZM139.229 25.5669C139.394 25.6538 139.604 25.6295 139.749 25.5079L143.078 22.6227L143.102 29.766L137.147 26.7001L137.14 24.4477L139.229 25.5669ZM142.561 21.8198L139.397 24.5624L133.335 21.3053L136.389 19.0667L142.561 21.8198ZM143.344 21.1454L137.357 18.4758L143.313 16.2372L143.344 21.1454ZM143.912 21.0585L143.881 16.3346L149.616 18.4028L143.912 21.0585ZM136.609 17.7563L134.397 14.8746L140.58 13.001L142.703 15.469L136.609 17.7563ZM154.809 20.8639L151.198 18.229L153.689 14.9024C153.782 14.7773 153.807 14.6174 153.758 14.4714C153.71 14.3254 153.593 14.2107 153.445 14.169L146.314 12.139C146.142 12.0903 145.949 12.1494 145.835 12.285L143.533 15.0067L141.083 12.1598C140.966 12.0243 140.769 11.9652 140.6 12.0208L133.484 14.1725C133.335 14.2177 133.222 14.3324 133.173 14.4784C133.129 14.6244 133.156 14.7877 133.249 14.9094L135.855 18.2985L132.188 20.9925C132.06 21.0863 131.988 21.2393 132.002 21.4026C132.012 21.5625 132.105 21.7051 132.246 21.7815L136.21 23.9123L136.217 26.9886C136.22 27.1659 136.316 27.3258 136.472 27.4058L143.357 30.9479C143.423 30.9826 143.492 30.9861 143.557 31H143.574C143.592 31 143.605 30.993 143.623 30.9896C143.664 30.9861 143.705 30.9791 143.743 30.9652C143.754 30.9618 143.761 30.9583 143.771 30.9548C143.795 30.9444 143.819 30.9374 143.84 30.9235L150.681 26.5263C150.819 26.4394 150.901 26.283 150.894 26.1196L150.826 23.8845L154.765 21.6529C154.903 21.573 154.989 21.4305 154.999 21.2706C155.009 21.1107 154.937 20.9577 154.809 20.8639Z" fill="#1C1C1B"/>
</g>
<defs>
<clipPath id="clip0_14_221">
<rect width="227" height="61" fill="white"/>
</clipPath>
</defs>
</svg>
