<svg width="302" height="61" viewBox="0 0 302 61" fill="none" xmlns="http://www.w3.org/2000/svg">
<g clip-path="url(#clip0_66_3869)">
<path d="M24.6979 60.4688C11.0781 60.4688 0 49.5208 0 36.0625V0H276.948C290.563 0 301.641 10.9479 301.641 24.4062V60.4688" fill="white"/>
<path d="M244.083 52.9114H69.1353C59.6874 52.9114 51.9999 45.3541 51.9999 36.0625V7.55725H226.948C236.396 7.55725 244.083 15.1145 244.083 24.4062V52.9114ZM227 6L50.1667 5.66663L50.1145 36.0625C50.1145 46.3958 58.6458 54.802 69.1353 54.802L245.969 55V24.4062C245.969 14.0729 237.49 6 227 6Z" fill="#010101"/>
<path d="M102.901 5.66663H50.1145V36.0625C50.1145 46.3958 58.6458 54.802 69.1353 54.802H121.927V24.4062C121.927 14.0729 113.391 5.66663 102.901 5.66663Z" fill="#010101"/>
<path d="M63.651 29.3594C58.8489 29.3594 54.9583 33.25 54.9583 38.0521C54.9583 42.8542 58.8489 46.7448 63.651 46.7448C68.4583 46.7448 72.3489 42.8542 72.3489 38.0521C72.3489 33.25 68.4583 29.3594 63.651 29.3594Z" fill="white"/>
<path d="M69.3229 39.4688H65.0729V43.7188H62.2344V39.4688H57.9844V36.6355H62.2344V32.3802H65.0729V36.6355H69.3229" fill="#1C1C1B"/>
<path d="M55.7864 26.5937V17.1979H58.2708V24.5156H61.828V26.5937" fill="white"/>
<path d="M62.9426 26.5937V17.1979H69.0155V19.276H65.4322V20.7552H68.4947V22.8385H65.4322V24.5156H69.1614V26.5937" fill="white"/>
<path d="M75.0885 26.5937V19.276H72.6041V17.1979H80.0677V19.276H77.5781V26.5937" fill="white"/>
<path d="M83.5521 21.4739H84.4479C85.4479 21.4739 85.9531 21.0625 85.9531 20.2343C85.9531 19.8281 85.8229 19.5468 85.5677 19.3958C85.3125 19.2395 84.9375 19.1614 84.4479 19.1614H83.5521V21.4739ZM81.0625 26.5989V17.1979H84.6198C85.125 17.1979 85.6042 17.2448 86.0625 17.3385C86.5208 17.4375 86.9167 17.5989 87.2604 17.8333C87.6042 18.0625 87.875 18.375 88.0781 18.7656C88.2813 19.1562 88.3802 19.6458 88.3802 20.2343C88.3802 20.9062 88.2448 21.4687 87.9688 21.9114C87.6979 22.3541 87.3281 22.6979 86.8646 22.9531L88.901 26.5989H86.125L84.5052 23.4427H83.5521V26.5989" fill="white"/>
<path d="M89.8698 26.5989H92.3593V17.1979H89.8698V26.5989Z" fill="white"/>
<path d="M75.3801 43.276V33.8698H81.5103V35.9531H77.8697V37.75H80.9895V39.8333H77.8697V43.276" fill="white"/>
<path d="M84.9218 38.7031L84.7604 39.3541H86.4948L86.3385 38.7031C86.2239 38.25 86.1041 37.7604 85.9895 37.2291C85.875 36.6979 85.7604 36.1979 85.6406 35.7239H85.5833C85.4791 36.2031 85.3698 36.7083 85.2604 37.2343C85.151 37.7604 85.0364 38.25 84.9218 38.7031ZM81.3073 43.276L84.1666 33.8698H87.1718L90.0364 43.276H87.4062L86.9427 41.276H84.3125L83.8489 43.276" fill="white"/>
<path d="M94.5624 43.4479C93.9687 43.4479 93.3958 43.3489 92.8541 43.151C92.3072 42.9531 91.8333 42.651 91.4218 42.2552C91.0103 41.8541 90.6822 41.3541 90.4426 40.75C90.203 40.1458 90.0833 39.4479 90.0833 38.6458C90.0833 37.8541 90.2083 37.151 90.4583 36.5416C90.7083 35.927 91.0416 35.4114 91.4635 34.9948C91.8801 34.5729 92.3645 34.25 92.9114 34.0312C93.4583 33.8073 94.026 33.6979 94.6249 33.6979C95.2499 33.6979 95.8124 33.8229 96.302 34.0677C96.7968 34.3125 97.2083 34.6041 97.5468 34.9427L96.2447 36.5312C96.0155 36.3333 95.776 36.1666 95.5312 36.0312C95.2812 35.9062 94.9999 35.8385 94.6822 35.8385C94.401 35.8385 94.1405 35.901 93.8958 36.026C93.651 36.151 93.4322 36.3333 93.2447 36.5625C93.0572 36.7916 92.9062 37.0781 92.7968 37.4166C92.6822 37.75 92.6301 38.1354 92.6301 38.5573C92.6301 39.4479 92.8124 40.125 93.1874 40.5989C93.5572 41.0677 94.0468 41.3073 94.651 41.3073C95.0208 41.3073 95.3437 41.2291 95.6301 41.0677C95.9114 40.9062 96.1562 40.7187 96.3593 40.4948L97.6614 42.0573C97.2551 42.5208 96.7916 42.8698 96.2655 43.0989C95.7395 43.3333 95.1718 43.4479 94.5624 43.4479Z" fill="white"/>
<path d="M98.6198 43.276H101.104V33.8698H98.6198V43.276Z" fill="white"/>
<path d="M102.875 43.276V33.8698H105.365V41.1927H108.922V43.276" fill="white"/>
<path d="M110.031 43.276V33.8698H116.109V35.9531H112.521V37.4323H115.589V39.5156H112.521V41.1927H116.255V43.276" fill="white"/>
<path fill-rule="evenodd" clip-rule="evenodd" d="M16.2604 29.1927C16.2604 29.1927 15.9115 29.151 15.6771 29.7968L13.5573 35.7083C15.224 37.1198 17.1823 38.1823 19.3281 38.8073L16.7552 29.7708C16.5781 29.125 16.2604 29.1927 16.2604 29.1927ZM5.67188 23.6979C5.67188 13.7552 13.7604 5.66663 23.7031 5.66663C28.9635 5.66663 33.7083 7.93225 37.0052 11.5364L35.3906 13.177C32.5104 9.97913 28.3385 7.9635 23.7031 7.9635C15.026 7.9635 7.96875 15.0208 7.96875 23.6979C7.96875 27.5208 9.34375 31.0312 11.6198 33.7604L14.2656 20.7968C14.7396 18.5104 16.8854 16.7552 19.0521 17.1562C20.6406 17.4583 28.0938 22.3958 28.0938 22.3958C28.7292 22.802 28.375 23.3489 28.375 23.3489C28.375 23.3489 28.0729 23.875 27.4479 23.6041L21.9792 21.4062C21.0052 20.9948 19.4323 21.4323 19.6667 24.1875L21.3802 38.7864L21.4531 39.2656C22.1875 39.375 22.9375 39.4323 23.7031 39.4323C24.1875 39.4323 24.6719 39.401 25.1458 39.3541L25.0052 37.4531L28.6979 40.2708L25.3958 43.4635L25.276 41.651C24.7552 41.6979 24.2344 41.7291 23.7031 41.7291C13.7604 41.7291 5.67188 33.6406 5.67188 23.6979ZM19.9375 16.4115C18.4167 16.4115 17.1875 15.1823 17.1875 13.6562C17.1875 12.1354 18.4167 10.9062 19.9375 10.9062C21.4583 10.9062 22.6927 12.1354 22.6927 13.6562C22.6927 15.1823 21.4583 16.4115 19.9375 16.4115ZM37.1046 24.564C37.7365 24.0543 39.7005 22.4703 40.1613 19.1927L40.2342 18.1823L42.0519 18.2864L38.0259 12.8541L33.2134 17.6927L34.979 17.7656L34.9998 17.7708C35.0415 17.9687 35.2446 19.2656 34.5571 21.3177C33.7967 23.6041 31.4373 26.2916 28.4634 25.8177C32.6457 27.5677 36.0311 25.4375 37.0936 24.5729L37.1046 24.564ZM28.375 25.8489C29.5781 28.6093 33.1146 29.1406 35.4479 28.552C37.5208 28.026 38.5052 27.1718 38.6719 27.0156L38.6615 27L37.776 25.4635L44.4427 26.9218L42.0312 33.2395L41.1354 31.6458L40.2656 32.1198C37.2654 33.4985 34.8744 32.7065 34.0978 32.4492L34.0781 32.4427C32.7812 32.0156 29.1562 30.3125 28.375 25.8489ZM28.4062 25.7448C26.7135 28.2343 28.151 31.5104 29.8958 33.1718C31.4895 34.6823 32.7655 35.0364 32.9322 35.0781L33.7447 33.5208L36.0885 39.9323L29.4635 41.2812L30.3437 39.6458L29.4478 39.1458C26.6887 37.3493 26.0817 34.9168 25.8818 34.1162L25.8749 34.0885C25.5416 32.7604 25.0468 28.7864 28.4062 25.7448Z" fill="#010101"/>
<path d="M133.939 27.146V28.444H131.134V30.292H133.774V31.59H131.134V33.702H134.049V35H129.55V27.146H133.939ZM136.672 27.146L138.586 32.525H138.608V27.146H140.06V35H138.256L136.32 29.5H136.298V35H134.846V27.146H136.672ZM145.221 27.146V32.8C145.221 33.636 145.027 34.2337 144.638 34.593C144.25 34.945 143.656 35.121 142.856 35.121C142.438 35.121 142.094 35.066 141.822 34.956C141.558 34.8387 141.346 34.6773 141.184 34.472C141.03 34.2593 140.924 34.0137 140.865 33.735C140.807 33.4563 140.777 33.163 140.777 32.855V32.514H142.229V32.756C142.229 33.174 142.273 33.4857 142.361 33.691C142.457 33.889 142.647 33.988 142.933 33.988C143.219 33.988 143.406 33.889 143.494 33.691C143.59 33.4857 143.637 33.174 143.637 32.756V27.146H145.221ZM147.673 31.073C147.673 31.601 147.684 32.052 147.706 32.426C147.735 32.7927 147.787 33.0933 147.86 33.328C147.941 33.5553 148.051 33.724 148.19 33.834C148.337 33.9367 148.527 33.988 148.762 33.988C148.997 33.988 149.184 33.9367 149.323 33.834C149.47 33.724 149.58 33.5553 149.653 33.328C149.734 33.0933 149.785 32.7927 149.807 32.426C149.836 32.052 149.851 31.601 149.851 31.073C149.851 30.545 149.836 30.0977 149.807 29.731C149.785 29.3643 149.734 29.0637 149.653 28.829C149.58 28.5943 149.47 28.4257 149.323 28.323C149.184 28.213 148.997 28.158 148.762 28.158C148.527 28.158 148.337 28.213 148.19 28.323C148.051 28.4257 147.941 28.5943 147.86 28.829C147.787 29.0637 147.735 29.3643 147.706 29.731C147.684 30.0977 147.673 30.545 147.673 31.073ZM146.089 31.073C146.089 30.479 146.115 29.9327 146.166 29.434C146.225 28.928 146.346 28.4953 146.529 28.136C146.72 27.7767 146.991 27.498 147.343 27.3C147.695 27.0947 148.168 26.992 148.762 26.992C149.356 26.992 149.829 27.0947 150.181 27.3C150.533 27.498 150.801 27.7767 150.984 28.136C151.175 28.4953 151.296 28.928 151.347 29.434C151.406 29.9327 151.435 30.479 151.435 31.073C151.435 31.6743 151.406 32.2243 151.347 32.723C151.296 33.2217 151.175 33.6507 150.984 34.01C150.801 34.3693 150.533 34.6443 150.181 34.835C149.829 35.0257 149.356 35.121 148.762 35.121C148.168 35.121 147.695 35.0257 147.343 34.835C146.991 34.6443 146.72 34.3693 146.529 34.01C146.346 33.6507 146.225 33.2217 146.166 32.723C146.115 32.2243 146.089 31.6743 146.089 31.073ZM152.366 35V27.146H153.95V33.702H156.755V35H152.366ZM157.535 35V27.146H159.119V35H157.535ZM161.471 27.146L162.582 32.954H162.615L163.781 27.146H165.42L163.616 35H161.581L159.777 27.146H161.471ZM170.387 27.146V28.444H167.582V30.292H170.222V31.59H167.582V33.702H170.497V35H165.998V27.146H170.387ZM172.779 27.146V32.624C172.779 32.822 172.79 33.0053 172.812 33.174C172.841 33.3353 172.889 33.4783 172.955 33.603C173.028 33.7203 173.124 33.8157 173.241 33.889C173.366 33.955 173.52 33.988 173.703 33.988C173.894 33.988 174.048 33.955 174.165 33.889C174.282 33.8157 174.374 33.7203 174.44 33.603C174.513 33.4783 174.561 33.3353 174.583 33.174C174.612 33.0053 174.627 32.822 174.627 32.624V27.146H176.211V32.624C176.211 33.1227 176.141 33.537 176.002 33.867C175.863 34.1897 175.676 34.4463 175.441 34.637C175.206 34.8277 174.939 34.956 174.638 35.022C174.337 35.088 174.026 35.121 173.703 35.121C173.38 35.121 173.069 35.0917 172.768 35.033C172.467 34.9743 172.2 34.857 171.965 34.681C171.73 34.4977 171.543 34.241 171.404 33.911C171.265 33.581 171.195 33.152 171.195 32.624V27.146H172.779ZM177.213 27.146H180.139C180.799 27.146 181.312 27.3147 181.679 27.652C182.046 27.982 182.229 28.488 182.229 29.17C182.229 29.698 182.123 30.1307 181.91 30.468C181.697 30.798 181.367 31.0107 180.92 31.106V31.128C181.316 31.1867 181.606 31.315 181.789 31.513C181.972 31.711 182.086 32.03 182.13 32.47C182.145 32.6167 182.156 32.778 182.163 32.954C182.17 33.1227 182.178 33.3133 182.185 33.526C182.2 33.944 182.222 34.263 182.251 34.483C182.295 34.703 182.39 34.8533 182.537 34.934V35H180.821C180.74 34.89 180.689 34.7653 180.667 34.626C180.645 34.4793 180.63 34.329 180.623 34.175L180.579 32.668C180.564 32.36 180.487 32.118 180.348 31.942C180.209 31.766 179.974 31.678 179.644 31.678H178.797V35H177.213V27.146ZM178.797 30.578H179.457C179.838 30.578 180.132 30.49 180.337 30.314C180.542 30.1307 180.645 29.8263 180.645 29.401C180.645 28.675 180.278 28.312 179.545 28.312H178.797V30.578ZM184.601 32.547V32.778C184.601 32.9613 184.616 33.13 184.645 33.284C184.675 33.4307 184.73 33.5553 184.81 33.658C184.891 33.7607 184.997 33.8413 185.129 33.9C185.269 33.9587 185.441 33.988 185.646 33.988C185.888 33.988 186.105 33.911 186.295 33.757C186.493 33.5957 186.592 33.35 186.592 33.02C186.592 32.844 186.567 32.6937 186.515 32.569C186.471 32.437 186.394 32.3197 186.284 32.217C186.174 32.1143 186.028 32.0227 185.844 31.942C185.668 31.854 185.448 31.766 185.184 31.678C184.832 31.5607 184.528 31.4323 184.271 31.293C184.015 31.1537 183.798 30.9923 183.622 30.809C183.454 30.6183 183.329 30.402 183.248 30.16C183.168 29.9107 183.127 29.6247 183.127 29.302C183.127 28.5247 183.344 27.9453 183.776 27.564C184.209 27.1827 184.803 26.992 185.558 26.992C185.91 26.992 186.233 27.0323 186.526 27.113C186.827 27.1863 187.084 27.311 187.296 27.487C187.516 27.6557 187.685 27.8757 187.802 28.147C187.927 28.411 187.989 28.73 187.989 29.104V29.324H186.471C186.471 28.95 186.405 28.664 186.273 28.466C186.141 28.2607 185.921 28.158 185.613 28.158C185.437 28.158 185.291 28.1837 185.173 28.235C185.056 28.2863 184.961 28.356 184.887 28.444C184.821 28.5247 184.774 28.62 184.744 28.73C184.722 28.84 184.711 28.9537 184.711 29.071C184.711 29.313 184.763 29.5183 184.865 29.687C184.968 29.8483 185.188 29.9987 185.525 30.138L186.746 30.666C187.047 30.798 187.293 30.9373 187.483 31.084C187.674 31.2233 187.824 31.3773 187.934 31.546C188.052 31.7073 188.132 31.887 188.176 32.085C188.22 32.283 188.242 32.503 188.242 32.745C188.242 33.5737 188 34.1787 187.516 34.56C187.04 34.934 186.372 35.121 185.514 35.121C184.62 35.121 183.978 34.9267 183.589 34.538C183.208 34.1493 183.017 33.592 183.017 32.866V32.547H184.601Z" fill="black"/>
<path d="M181 6H207V55H200H181L194.5 28.5L181 6Z" fill="#010101"/>
<path d="M207 6H278C287.941 6 296 14.0589 296 24V55H207V6Z" fill="black"/>
<rect x="207" y="8" width="31" height="31" fill="black"/>
<path d="M209.881 43.1H210.924L211.722 48H210.952L210.812 47.027V47.041H209.937L209.797 48H209.083L209.881 43.1ZM210.721 46.376L210.378 43.954H210.364L210.028 46.376H210.721ZM213.076 48.07C212.703 48.07 212.42 47.965 212.229 47.755C212.038 47.5403 211.942 47.2347 211.942 46.838V46.558H212.67V46.894C212.67 47.2113 212.803 47.37 213.069 47.37C213.2 47.37 213.298 47.3327 213.363 47.258C213.433 47.1787 213.468 47.0527 213.468 46.88C213.468 46.6747 213.421 46.495 213.328 46.341C213.235 46.1823 213.062 45.9933 212.81 45.774C212.493 45.494 212.271 45.242 212.145 45.018C212.019 44.7893 211.956 44.5327 211.956 44.248C211.956 43.8607 212.054 43.562 212.25 43.352C212.446 43.1373 212.731 43.03 213.104 43.03C213.473 43.03 213.75 43.1373 213.937 43.352C214.128 43.562 214.224 43.8653 214.224 44.262V44.465H213.496V44.213C213.496 44.045 213.463 43.9237 213.398 43.849C213.333 43.7697 213.237 43.73 213.111 43.73C212.854 43.73 212.726 43.8863 212.726 44.199C212.726 44.3763 212.773 44.542 212.866 44.696C212.964 44.85 213.139 45.0367 213.391 45.256C213.713 45.536 213.935 45.7903 214.056 46.019C214.177 46.2477 214.238 46.516 214.238 46.824C214.238 47.2253 214.138 47.5333 213.937 47.748C213.741 47.9627 213.454 48.07 213.076 48.07ZM215.681 48.07C215.307 48.07 215.025 47.965 214.834 47.755C214.642 47.5403 214.547 47.2347 214.547 46.838V46.558H215.275V46.894C215.275 47.2113 215.408 47.37 215.674 47.37C215.804 47.37 215.902 47.3327 215.968 47.258C216.038 47.1787 216.073 47.0527 216.073 46.88C216.073 46.6747 216.026 46.495 215.933 46.341C215.839 46.1823 215.667 45.9933 215.415 45.774C215.097 45.494 214.876 45.242 214.75 45.018C214.624 44.7893 214.561 44.5327 214.561 44.248C214.561 43.8607 214.659 43.562 214.855 43.352C215.051 43.1373 215.335 43.03 215.709 43.03C216.077 43.03 216.355 43.1373 216.542 43.352C216.733 43.562 216.829 43.8653 216.829 44.262V44.465H216.101V44.213C216.101 44.045 216.068 43.9237 216.003 43.849C215.937 43.7697 215.842 43.73 215.716 43.73C215.459 43.73 215.331 43.8863 215.331 44.199C215.331 44.3763 215.377 44.542 215.471 44.696C215.569 44.85 215.744 45.0367 215.996 45.256C216.318 45.536 216.539 45.7903 216.661 46.019C216.782 46.2477 216.843 46.516 216.843 46.824C216.843 47.2253 216.742 47.5333 216.542 47.748C216.346 47.9627 216.059 48.07 215.681 48.07ZM218.397 48.07C218.019 48.07 217.73 47.9627 217.529 47.748C217.328 47.5333 217.228 47.23 217.228 46.838V44.262C217.228 43.87 217.328 43.5667 217.529 43.352C217.73 43.1373 218.019 43.03 218.397 43.03C218.775 43.03 219.064 43.1373 219.265 43.352C219.466 43.5667 219.566 43.87 219.566 44.262V46.838C219.566 47.23 219.466 47.5333 219.265 47.748C219.064 47.9627 218.775 48.07 218.397 48.07ZM218.397 47.37C218.663 47.37 218.796 47.209 218.796 46.887V44.213C218.796 43.891 218.663 43.73 218.397 43.73C218.131 43.73 217.998 43.891 217.998 44.213V46.887C217.998 47.209 218.131 47.37 218.397 47.37ZM221.172 48.07C220.803 48.07 220.521 47.965 220.325 47.755C220.133 47.545 220.038 47.2487 220.038 46.866V44.234C220.038 43.8513 220.133 43.555 220.325 43.345C220.521 43.135 220.803 43.03 221.172 43.03C221.54 43.03 221.82 43.135 222.012 43.345C222.208 43.555 222.306 43.8513 222.306 44.234V44.752H221.578V44.185C221.578 43.8817 221.449 43.73 221.193 43.73C220.936 43.73 220.808 43.8817 220.808 44.185V46.922C220.808 47.2207 220.936 47.37 221.193 47.37C221.449 47.37 221.578 47.2207 221.578 46.922V46.173H222.306V46.866C222.306 47.2487 222.208 47.545 222.012 47.755C221.82 47.965 221.54 48.07 221.172 48.07ZM222.766 43.1H223.536V48H222.766V43.1ZM224.708 43.1H225.751L226.549 48H225.779L225.639 47.027V47.041H224.764L224.624 48H223.91L224.708 43.1ZM225.548 46.376L225.205 43.954H225.191L224.855 46.376H225.548ZM227.203 43.8H226.398V43.1H228.778V43.8H227.973V48H227.203V43.8ZM229.151 43.1H229.921V48H229.151V43.1ZM231.611 48.07C231.233 48.07 230.944 47.9627 230.743 47.748C230.542 47.5333 230.442 47.23 230.442 46.838V44.262C230.442 43.87 230.542 43.5667 230.743 43.352C230.944 43.1373 231.233 43.03 231.611 43.03C231.989 43.03 232.278 43.1373 232.479 43.352C232.68 43.5667 232.78 43.87 232.78 44.262V46.838C232.78 47.23 232.68 47.5333 232.479 47.748C232.278 47.9627 231.989 48.07 231.611 48.07ZM231.611 47.37C231.877 47.37 232.01 47.209 232.01 46.887V44.213C232.01 43.891 231.877 43.73 231.611 43.73C231.345 43.73 231.212 43.891 231.212 44.213V46.887C231.212 47.209 231.345 47.37 231.611 47.37ZM233.301 43.1H234.267L235.016 46.033H235.03V43.1H235.716V48H234.925L234.001 44.423H233.987V48H233.301V43.1Z" fill="white"/>
<path d="M229.01 31.2217H222.203C222.051 31.2217 221.908 31.1626 221.79 31.0614L216.83 26.7762C216.72 26.6834 216.577 26.6328 216.433 26.6328H214.223V23.6636H219.276C219.951 23.6636 220.609 23.9335 221.081 24.4059L224.691 28.0247C224.852 28.1849 224.936 28.3958 224.928 28.6236C224.928 28.6826 224.919 28.7332 224.911 28.7838C224.911 28.8007 224.902 28.8176 224.902 28.826C224.86 28.9779 224.776 29.1128 224.649 29.2141C224.337 29.4924 223.823 29.4587 223.502 29.1381L220.811 26.4472C220.575 26.2111 220.187 26.2111 219.951 26.4472C219.706 26.6919 219.706 27.0799 219.951 27.3161L222.642 30.007C223.418 30.7915 224.658 30.8421 225.459 30.1335C225.645 29.9732 225.796 29.7877 225.906 29.5768L229.061 29.5852C229.289 29.5852 229.5 29.678 229.651 29.8467C229.812 30.0154 229.888 30.2263 229.871 30.4541C229.845 30.8758 229.457 31.2217 229.01 31.2217ZM229.061 28.3621L226.142 28.3536C226.083 27.9066 225.881 27.4764 225.56 27.1558L221.95 23.537C221.241 22.8369 220.271 22.432 219.276 22.432H213.616C213.278 22.432 213 22.7104 213 23.0478V27.2402C213 27.586 213.278 27.856 213.616 27.856H216.205L220.988 31.9893C221.326 32.2845 221.764 32.4448 222.203 32.4448H229.01C230.107 32.4448 231.026 31.6097 231.094 30.5384C231.128 29.9648 230.942 29.4249 230.546 29.0032C230.166 28.5983 229.618 28.3621 229.061 28.3621Z" fill="white"/>
<path d="M222.878 17.7926C223.207 16.8647 223.856 16.2911 224.666 16.232C224.717 16.232 224.767 16.232 224.818 16.232C225.586 16.232 226.328 16.6875 226.716 17.4383C226.826 17.6323 227.037 17.7588 227.264 17.7588C227.492 17.7588 227.694 17.6323 227.804 17.4383C228.226 16.6454 229.036 16.173 229.854 16.232C230.664 16.2911 231.313 16.8647 231.642 17.7926C232.435 20.028 229.289 22.7273 227.264 24.001C225.24 22.7273 222.085 20.028 222.878 17.7926ZM226.952 25.2495C227.045 25.3085 227.155 25.3338 227.264 25.3338C227.374 25.3338 227.484 25.3085 227.576 25.2495C228.251 24.8446 234.156 21.2005 232.798 17.3792C232.309 15.9958 231.237 15.1101 229.947 15.0089C228.943 14.9414 227.956 15.3463 227.264 16.0971C226.573 15.3463 225.586 14.933 224.582 15.0089C223.283 15.1101 222.211 15.9958 221.722 17.3792C220.373 21.2005 226.269 24.8446 226.952 25.2495Z" fill="white"/>
<path d="M245.59 31.07C245.212 31.07 244.923 30.9627 244.722 30.748C244.522 30.5333 244.421 30.23 244.421 29.838V27.262C244.421 26.87 244.522 26.5667 244.722 26.352C244.923 26.1373 245.212 26.03 245.59 26.03C245.968 26.03 246.258 26.1373 246.458 26.352C246.659 26.5667 246.759 26.87 246.759 27.262V29.838C246.759 30.23 246.659 30.5333 246.458 30.748C246.258 30.9627 245.968 31.07 245.59 31.07ZM245.59 30.37C245.856 30.37 245.989 30.209 245.989 29.887V27.213C245.989 26.891 245.856 26.73 245.59 26.73C245.324 26.73 245.191 26.891 245.191 27.213V29.887C245.191 30.209 245.324 30.37 245.59 30.37ZM248.4 31.07C248.027 31.07 247.742 30.965 247.546 30.755C247.35 30.5403 247.252 30.2347 247.252 29.838V26.1H248.022V29.894C248.022 30.062 248.055 30.1833 248.12 30.258C248.19 30.3327 248.288 30.37 248.414 30.37C248.54 30.37 248.636 30.3327 248.701 30.258C248.771 30.1833 248.806 30.062 248.806 29.894V26.1H249.548V29.838C249.548 30.2347 249.45 30.5403 249.254 30.755C249.058 30.965 248.773 31.07 248.4 31.07Z" fill="white"/>
<rect x="256" y="8" width="31" height="31" fill="black"/>
<path d="M259.11 43.1H260.286C260.668 43.1 260.955 43.2027 261.147 43.408C261.338 43.6133 261.434 43.9143 261.434 44.311V46.789C261.434 47.1857 261.338 47.4867 261.147 47.692C260.955 47.8973 260.668 48 260.286 48H259.11V43.1ZM260.272 47.3C260.398 47.3 260.493 47.2627 260.559 47.188C260.629 47.1133 260.664 46.992 260.664 46.824V44.276C260.664 44.108 260.629 43.9867 260.559 43.912C260.493 43.8373 260.398 43.8 260.272 43.8H259.88V47.3H260.272ZM261.954 43.1H264.054V43.8H262.724V45.095H263.781V45.795H262.724V47.3H264.054V48H261.954V43.1ZM263.074 41.966H263.914L263.165 42.771H262.584L263.074 41.966ZM265.581 48.07C265.213 48.07 264.93 47.965 264.734 47.755C264.543 47.545 264.447 47.2487 264.447 46.866V44.234C264.447 43.8513 264.543 43.555 264.734 43.345C264.93 43.135 265.213 43.03 265.581 43.03C265.95 43.03 266.23 43.135 266.421 43.345C266.617 43.555 266.715 43.8513 266.715 44.234V44.752H265.987V44.185C265.987 43.8817 265.859 43.73 265.602 43.73C265.346 43.73 265.217 43.8817 265.217 44.185V46.922C265.217 47.2207 265.346 47.37 265.602 47.37C265.859 47.37 265.987 47.2207 265.987 46.922V46.173H266.715V46.866C266.715 47.2487 266.617 47.545 266.421 47.755C266.23 47.965 265.95 48.07 265.581 48.07ZM267.176 43.1H267.946V45.095H268.772V43.1H269.542V48H268.772V45.795H267.946V48H267.176V43.1ZM270.116 43.1H272.216V43.8H270.886V45.095H271.943V45.795H270.886V47.3H272.216V48H270.116V43.1ZM270.256 41.966H271.096L271.586 42.771H271.005L270.256 41.966ZM273.261 43.8H272.456V43.1H274.836V43.8H274.031V48H273.261V43.8ZM275.208 43.1H277.308V43.8H275.978V45.095H277.035V45.795H275.978V47.3H277.308V48H275.208V43.1ZM277.751 43.1H278.892C279.289 43.1 279.578 43.1933 279.76 43.38C279.942 43.562 280.033 43.8443 280.033 44.227V44.528C280.033 45.0367 279.865 45.3587 279.529 45.494V45.508C279.716 45.564 279.847 45.6783 279.921 45.851C280.001 46.0237 280.04 46.2547 280.04 46.544V47.405C280.04 47.545 280.045 47.6593 280.054 47.748C280.064 47.832 280.087 47.916 280.124 48H279.34C279.312 47.9207 279.294 47.846 279.284 47.776C279.275 47.706 279.27 47.58 279.27 47.398V46.502C279.27 46.278 279.233 46.1217 279.158 46.033C279.088 45.9443 278.965 45.9 278.787 45.9H278.521V48H277.751V43.1ZM278.801 45.2C278.955 45.2 279.07 45.1603 279.144 45.081C279.224 45.0017 279.263 44.8687 279.263 44.682V44.304C279.263 44.1267 279.231 43.9983 279.165 43.919C279.105 43.8397 279.007 43.8 278.871 43.8H278.521V45.2H278.801ZM280.575 43.1H281.345V48H280.575V43.1ZM281.921 43.1H284.021V43.8H282.691V45.095H283.748V45.795H282.691V47.3H284.021V48H281.921V43.1Z" fill="white"/>
<path d="M265.988 32.4391L261.474 32.4342C261.217 32.4342 261.005 32.2268 261.005 31.9699L261 27.4806C261 27.2929 261.114 27.1201 261.291 27.0509C261.464 26.9769 261.667 27.0164 261.8 27.1497L262.684 28.0288L270.29 20.4577C270.473 20.2799 270.769 20.2799 270.952 20.4577L273.046 22.5418C273.135 22.6307 273.184 22.7443 273.184 22.8727C273.184 22.9962 273.135 23.1147 273.046 23.2036L265.44 30.7649L266.319 31.644C266.452 31.7773 266.492 31.9798 266.418 32.1527C266.349 32.3255 266.176 32.4391 265.988 32.4391ZM261.943 31.5008L264.852 31.5057L264.442 31.0958C264.26 30.913 264.26 30.6167 264.442 30.434L272.048 22.8727L270.621 21.4504L263.015 29.0166C262.832 29.1993 262.536 29.1993 262.353 29.0166L261.938 28.6116" fill="white"/>
<path d="M275.54 25.673C275.179 25.673 274.833 25.5347 274.567 25.2878C274.29 25.031 274.132 24.6803 274.117 24.3001L274.048 22.1517L274.987 22.1221L275.056 24.2704C275.061 24.3988 275.115 24.5174 275.209 24.6063C275.303 24.6952 275.436 24.7297 275.559 24.7396C275.688 24.7347 275.806 24.6803 275.895 24.5865C275.984 24.4927 276.029 24.3692 276.024 24.2408L275.92 21.3763L276.858 21.3467L276.962 24.2062C276.977 24.5865 276.844 24.947 276.582 25.2236C276.32 25.5002 275.969 25.6582 275.589 25.6681C275.569 25.673 275.555 25.673 275.54 25.673Z" fill="white"/>
<path d="M275.54 25.673C275.179 25.673 274.833 25.5347 274.567 25.2878C274.29 25.031 274.132 24.6803 274.117 24.3001L274.048 22.1517L274.987 22.1221L275.056 24.2704C275.061 24.3988 275.115 24.5174 275.209 24.6063C275.303 24.6952 275.436 24.7297 275.559 24.7396C275.688 24.7347 275.806 24.6803 275.895 24.5865C275.984 24.4927 276.029 24.3692 276.024 24.2408L275.92 21.3763L276.858 21.3467L276.962 24.2062C276.977 24.5865 276.844 24.947 276.582 25.2236C276.32 25.5002 275.969 25.6582 275.589 25.6681C275.569 25.673 275.555 25.673 275.54 25.673Z" fill="white"/>
<path d="M273.643 25.9941C273.278 25.9941 272.937 25.8607 272.67 25.6138C272.394 25.352 272.231 25.0014 272.221 24.6211L272.152 22.4727L273.09 22.4431L273.159 24.5915C273.164 24.7248 273.219 24.8433 273.312 24.9322C273.406 25.0211 273.53 25.0755 273.658 25.0607C273.925 25.0508 274.137 24.8285 274.127 24.5618L274.024 21.7023L274.962 21.6677L275.066 24.5273C275.095 25.3125 274.478 25.9644 273.693 25.9941C273.673 25.9941 273.658 25.9941 273.643 25.9941Z" fill="white"/>
<path d="M275.258 32.449C275.066 32.449 274.893 32.3305 274.824 32.1576C274.75 31.9848 274.789 31.7823 274.922 31.6489L275.806 30.7698L268.201 23.2037C268.018 23.0259 268.018 22.7295 268.201 22.5468L270.29 20.4627C270.463 20.2898 270.779 20.2898 270.952 20.4627L278.893 28.3597L278.226 29.0215L270.621 21.4553L269.193 22.8777L276.799 30.4389C276.987 30.6217 276.987 30.9229 276.799 31.1007L276.389 31.5107H279.298L279.303 27.4856H280.241L280.236 31.9749C280.236 32.2317 280.029 32.4391 279.767 32.4391L275.258 32.449Z" fill="white"/>
<path d="M270.601 36C270.478 36 270.359 35.9556 270.265 35.8617L267.075 32.696C266.941 32.5626 266.902 32.3601 266.971 32.1873C267.045 32.0095 267.218 31.8959 267.406 31.8959H268.655V23.2037C268.655 22.9469 268.863 22.7345 269.124 22.7345H272.083C272.339 22.7345 272.552 22.9469 272.552 23.2037V32.3651H271.613V23.6729H269.593V32.3651C269.593 32.6219 269.381 32.8293 269.124 32.8293H268.542L270.601 34.874L273.461 32.0342L274.127 32.696L270.932 35.8617C270.838 35.9556 270.72 36 270.601 36Z" fill="white"/>
<path d="M265.983 32.4391L261.474 32.4342C261.217 32.4342 261.005 32.2268 261.005 31.9699L261 27.4806C261 27.2929 261.114 27.1201 261.291 27.0509C261.464 26.9769 261.667 27.0164 261.8 27.1497L262.684 28.0288L270.29 20.4577C270.473 20.2799 270.769 20.2799 270.952 20.4577L273.046 22.5418C273.135 22.6307 273.184 22.7443 273.184 22.8727C273.184 22.9962 273.135 23.1147 273.046 23.2036L265.104 31.0958L264.442 30.434L272.048 22.8727L270.621 21.4504L263.015 29.0166C262.832 29.1993 262.536 29.1993 262.353 29.0166L261.938 28.6116L261.943 31.5008L265.988 31.5057" fill="white"/>
<path d="M281.407 19.0452C281.066 19.0452 280.745 18.9119 280.503 18.6748L276.098 14.2892C275.856 14.0522 275.722 13.7311 275.722 13.3953C275.722 13.0545 275.856 12.7384 276.093 12.4964L277.239 11.3556C277.723 10.8815 278.562 10.8815 279.046 11.3556L283.452 15.7412C283.95 16.2351 283.95 17.0401 283.452 17.534L282.306 18.6748C282.064 18.9119 281.748 19.0452 281.407 19.0452ZM278.142 11.9186C278.054 11.9186 277.97 11.9581 277.905 12.0174V12.0223L276.76 13.1582C276.695 13.2224 276.661 13.3064 276.661 13.3953C276.661 13.4842 276.695 13.5682 276.76 13.6274L281.165 18.013C281.293 18.1414 281.516 18.1365 281.644 18.013L282.79 16.8771C282.918 16.7438 282.918 16.5314 282.785 16.403L278.38 12.0223C278.315 11.9581 278.231 11.9186 278.142 11.9186Z" fill="white"/>
<path d="M276.742 26.6614L273.2 23.5131L272.413 24.3002L272.019 25.8743L274.381 29.0227L276.742 26.6614Z" fill="black"/>
<path d="M275.258 32.449C275.066 32.449 274.893 32.3305 274.824 32.1576C274.75 31.9848 274.789 31.7823 274.922 31.6489L275.806 30.7698L268.201 23.2037C268.018 23.0259 268.018 22.7295 268.201 22.5468L270.29 20.4627C270.463 20.2898 270.779 20.2898 270.952 20.4627L278.562 28.0338L279.441 27.1547C279.575 27.0213 279.777 26.9818 279.955 27.0559C280.128 27.125 280.241 27.2979 280.241 27.4856L280.236 31.9749C280.236 32.2317 280.029 32.4391 279.767 32.4391L275.258 32.449ZM269.193 22.8777L276.799 30.4389C276.987 30.6217 276.987 30.9229 276.799 31.1007L276.389 31.5107H279.298L279.303 28.6165L278.893 29.0215C278.71 29.2043 278.414 29.2043 278.226 29.0215L270.621 21.4553" fill="white"/>
<path d="M267.69 32.5646H269.264V23.5131H272.019L272.413 32.5646H273.2L270.445 35.713L267.69 32.5646Z" fill="black"/>
<path d="M270.601 36C270.478 36 270.359 35.9556 270.27 35.8617L267.075 32.696C266.941 32.5626 266.902 32.3601 266.971 32.1873C267.045 32.0095 267.218 31.8959 267.406 31.8959H268.655V23.2037C268.655 22.9469 268.863 22.7345 269.124 22.7345H272.083C272.339 22.7345 272.552 22.9469 272.552 23.2037V31.8959H273.791C273.984 31.8959 274.157 32.0095 274.226 32.1873C274.3 32.3601 274.261 32.5626 274.127 32.696L270.932 35.8617C270.838 35.9556 270.72 36 270.601 36ZM268.542 32.8293L270.601 34.874L272.66 32.8293H272.083C271.821 32.8293 271.613 32.6219 271.613 32.3651V23.6729H269.593V32.3651C269.593 32.6219 269.381 32.8293 269.124 32.8293" fill="white"/>
<path d="M272.413 20.8231L270.29 23.6579C269.929 24.137 270.028 24.8185 270.512 25.1741C270.991 25.5347 271.678 25.4359 272.038 24.9568L273.362 23.1887C273.89 22.4973 274.483 22.2405 274.769 22.1664C275.406 21.9985 277.323 21.2824 278.35 20.665C279.372 20.0427 279.901 18.6006 279.846 17.361L276.789 14.3187L270.3 16.3337C269.509 16.6004 269.223 17.0499 269.104 17.3166C268.986 17.5882 267.692 20.6305 267.692 20.6305C267.544 21.0107 267.46 21.4651 267.677 21.8503C267.894 22.2356 268.388 23.006 268.388 23.006L269.816 21.5836C269.816 21.5836 269.761 20.7984 269.944 20.3934C270.132 19.9934 270.329 19.3266 270.754 19.1735C271.174 19.0254 271.91 18.7883 271.91 18.7883C271.91 18.7883 271.845 19.6279 271.994 20.0773C272.147 20.5267 272.379 20.7934 272.379 20.7934" fill="black"/>
<path d="M271.164 25.8607C270.828 25.8607 270.502 25.752 270.231 25.5495C269.895 25.3026 269.677 24.9371 269.618 24.5272C269.564 24.1173 269.668 23.7074 269.919 23.3765L271.831 20.8231C271.737 20.67 271.633 20.4725 271.549 20.2255C271.475 19.9934 271.441 19.702 271.431 19.4403C271.248 19.4995 271.06 19.5637 270.912 19.6131C270.759 19.6674 270.576 20.107 270.477 20.3391L270.374 20.591C270.28 20.7885 270.265 21.2725 270.285 21.5541C270.295 21.6874 270.245 21.8207 270.152 21.9146L268.719 23.3369C268.621 23.4357 268.477 23.4851 268.339 23.4703C268.196 23.4555 268.072 23.3765 267.993 23.2579C267.993 23.2579 267.49 22.4727 267.267 22.0825C267.015 21.6331 267.01 21.0849 267.257 20.4576C267.262 20.4478 268.556 17.4006 268.675 17.1339C268.927 16.561 269.435 16.1313 270.147 15.8893L276.646 13.8743C276.814 13.82 276.997 13.8644 277.12 13.9879L280.182 17.0351C280.266 17.119 280.311 17.2277 280.315 17.3462C280.37 18.6056 279.851 20.3045 278.592 21.0602C277.525 21.7072 275.589 22.4332 274.888 22.6208C274.784 22.6455 274.241 22.8134 273.737 23.4703L272.413 25.2384C272.162 25.5693 271.801 25.7866 271.386 25.8458C271.312 25.8557 271.238 25.8607 271.164 25.8607ZM271.915 18.3241C272.018 18.3241 272.122 18.3587 272.201 18.4229C272.325 18.5217 272.394 18.6698 272.379 18.8279C272.359 19.1143 272.354 19.6674 272.443 19.9292C272.557 20.2799 272.735 20.4922 272.739 20.4922C272.922 20.6503 272.937 20.9071 272.789 21.1046L270.67 23.9345C270.566 24.0679 270.527 24.2309 270.552 24.3938C270.571 24.5568 270.66 24.705 270.794 24.7988C270.927 24.9025 271.09 24.9371 271.253 24.9223C271.416 24.8976 271.564 24.8087 271.663 24.6803L272.986 22.9073C273.663 22.0282 274.428 21.7714 274.651 21.717C275.214 21.5689 277.11 20.8676 278.103 20.265C278.947 19.7563 279.372 18.5562 279.382 17.5586L276.656 14.8522L270.438 16.7783C269.989 16.9314 269.677 17.1783 269.534 17.5043C269.416 17.7759 268.127 20.8132 268.127 20.8132C267.993 21.154 267.978 21.4306 268.087 21.6183C268.181 21.7911 268.334 22.0381 268.472 22.2603L269.342 21.4009C269.337 21.0947 269.351 20.5663 269.519 20.2008L269.613 19.9835C269.796 19.539 270.053 18.9266 270.596 18.734C271.021 18.5859 271.767 18.3439 271.767 18.3439C271.816 18.329 271.865 18.3241 271.915 18.3241Z" fill="white"/>
</g>
<defs>
<clipPath id="clip0_66_3869">
<rect width="302" height="61" fill="white"/>
</clipPath>
</defs>
</svg>
