<svg width="280" height="61" viewBox="0 0 280 61" fill="none" xmlns="http://www.w3.org/2000/svg">
<g clip-path="url(#clip0_66_3968)">
<path d="M24.6979 60.4688C11.0781 60.4688 0 49.5208 0 36.0625V0H254.948C268.563 0 279.641 10.9479 279.641 24.4062V60.4688" fill="white"/>
<path d="M242.083 52.9114H69.1353C59.6874 52.9114 51.9999 45.3541 51.9999 36.0625V7.55725H224.948C234.396 7.55725 242.083 15.1145 242.083 24.4062V52.9114ZM224.948 5.66663H50.1145V36.0625C50.1145 46.3958 58.6458 54.802 69.1353 54.802H243.969V24.4062C243.969 14.0729 235.437 5.66663 224.948 5.66663Z" fill="#333347"/>
<path d="M216.714 54.802L229.724 28.2239L216.432 5.66663H254.948C265.437 5.66663 273.969 14.0729 273.969 24.4062V54.802" fill="#333347"/>
<path d="M102.901 5.66663H50.1145V36.0625C50.1145 46.3958 58.6458 54.802 69.1353 54.802H121.927V24.4062C121.927 14.0729 113.391 5.66663 102.901 5.66663Z" fill="#333347"/>
<path d="M63.651 29.3594C58.8489 29.3594 54.9583 33.25 54.9583 38.0521C54.9583 42.8542 58.8489 46.7448 63.651 46.7448C68.4583 46.7448 72.3489 42.8542 72.3489 38.0521C72.3489 33.25 68.4583 29.3594 63.651 29.3594Z" fill="white"/>
<path d="M69.3229 39.4688H65.0729V43.7188H62.2344V39.4688H57.9844V36.6355H62.2344V32.3802H65.0729V36.6355H69.3229" fill="#1C1C1B"/>
<path d="M55.7864 26.5937V17.1979H58.2708V24.5156H61.828V26.5937" fill="white"/>
<path d="M62.9426 26.5937V17.1979H69.0155V19.276H65.4322V20.7552H68.4947V22.8385H65.4322V24.5156H69.1614V26.5937" fill="white"/>
<path d="M75.0885 26.5937V19.276H72.6041V17.1979H80.0677V19.276H77.5781V26.5937" fill="white"/>
<path d="M83.5521 21.4739H84.4479C85.4479 21.4739 85.9531 21.0625 85.9531 20.2343C85.9531 19.8281 85.8229 19.5468 85.5677 19.3958C85.3125 19.2395 84.9375 19.1614 84.4479 19.1614H83.5521V21.4739ZM81.0625 26.5989V17.1979H84.6198C85.125 17.1979 85.6042 17.2448 86.0625 17.3385C86.5208 17.4375 86.9167 17.5989 87.2604 17.8333C87.6042 18.0625 87.875 18.375 88.0781 18.7656C88.2813 19.1562 88.3802 19.6458 88.3802 20.2343C88.3802 20.9062 88.2448 21.4687 87.9688 21.9114C87.6979 22.3541 87.3281 22.6979 86.8646 22.9531L88.901 26.5989H86.125L84.5052 23.4427H83.5521V26.5989" fill="white"/>
<path d="M89.8698 26.5989H92.3593V17.1979H89.8698V26.5989Z" fill="white"/>
<path d="M75.3801 43.276V33.8698H81.5103V35.9531H77.8697V37.75H80.9895V39.8333H77.8697V43.276" fill="white"/>
<path d="M84.9218 38.7031L84.7604 39.3541H86.4948L86.3385 38.7031C86.2239 38.25 86.1041 37.7604 85.9895 37.2291C85.875 36.6979 85.7604 36.1979 85.6406 35.7239H85.5833C85.4791 36.2031 85.3698 36.7083 85.2604 37.2343C85.151 37.7604 85.0364 38.25 84.9218 38.7031ZM81.3073 43.276L84.1666 33.8698H87.1718L90.0364 43.276H87.4062L86.9427 41.276H84.3125L83.8489 43.276" fill="white"/>
<path d="M94.5624 43.4479C93.9687 43.4479 93.3958 43.3489 92.8541 43.151C92.3072 42.9531 91.8333 42.651 91.4218 42.2552C91.0103 41.8541 90.6822 41.3541 90.4426 40.75C90.203 40.1458 90.0833 39.4479 90.0833 38.6458C90.0833 37.8541 90.2083 37.151 90.4583 36.5416C90.7083 35.927 91.0416 35.4114 91.4635 34.9948C91.8801 34.5729 92.3645 34.25 92.9114 34.0312C93.4583 33.8073 94.026 33.6979 94.6249 33.6979C95.2499 33.6979 95.8124 33.8229 96.302 34.0677C96.7968 34.3125 97.2083 34.6041 97.5468 34.9427L96.2447 36.5312C96.0155 36.3333 95.776 36.1666 95.5312 36.0312C95.2812 35.9062 94.9999 35.8385 94.6822 35.8385C94.401 35.8385 94.1405 35.901 93.8958 36.026C93.651 36.151 93.4322 36.3333 93.2447 36.5625C93.0572 36.7916 92.9062 37.0781 92.7968 37.4166C92.6822 37.75 92.6301 38.1354 92.6301 38.5573C92.6301 39.4479 92.8124 40.125 93.1874 40.5989C93.5572 41.0677 94.0468 41.3073 94.651 41.3073C95.0208 41.3073 95.3437 41.2291 95.6301 41.0677C95.9114 40.9062 96.1562 40.7187 96.3593 40.4948L97.6614 42.0573C97.2551 42.5208 96.7916 42.8698 96.2655 43.0989C95.7395 43.3333 95.1718 43.4479 94.5624 43.4479Z" fill="white"/>
<path d="M98.6198 43.276H101.104V33.8698H98.6198V43.276Z" fill="white"/>
<path d="M102.875 43.276V33.8698H105.365V41.1927H108.922V43.276" fill="white"/>
<path d="M110.031 43.276V33.8698H116.109V35.9531H112.521V37.4323H115.589V39.5156H112.521V41.1927H116.255V43.276" fill="white"/>
<path d="M28.4062 25.7448C26.7135 28.2343 28.151 31.5104 29.8958 33.1718C31.4895 34.6823 32.7655 35.0364 32.9322 35.0781L33.7447 33.5208L36.0885 39.9323L29.4635 41.2812L30.3437 39.6458L29.4478 39.1458C26.6562 37.3281 26.0676 34.8593 25.8749 34.0885C25.5416 32.7604 25.0468 28.7864 28.4062 25.7448Z" fill="#333347"/>
<path d="M28.375 25.8489C29.5781 28.6093 33.1146 29.1406 35.4479 28.552C37.5208 28.026 38.5052 27.1718 38.6719 27.0156L38.6615 27L37.776 25.4635L44.4427 26.9218L42.0313 33.2395L41.1354 31.6458L40.2656 32.1198C37.2396 33.5104 34.8333 32.6927 34.0781 32.4427C32.7813 32.0156 29.1562 30.3125 28.375 25.8489Z" fill="#333347"/>
<path d="M40.1613 19.1927C39.6978 22.4895 37.7134 24.0729 37.0936 24.5729C36.0311 25.4375 32.6457 27.5677 28.4634 25.8177C31.4373 26.2916 33.7967 23.6041 34.5571 21.3177C35.2446 19.2656 35.0415 17.9687 34.9998 17.7708L34.979 17.7656L33.2134 17.6927L38.0259 12.8541L42.0519 18.2864L40.2342 18.1823" fill="#333347"/>
<path fill-rule="evenodd" clip-rule="evenodd" d="M19.9375 16.4115C18.4167 16.4115 17.1875 15.1823 17.1875 13.6563C17.1875 12.1354 18.4167 10.9062 19.9375 10.9062C21.4583 10.9062 22.6927 12.1354 22.6927 13.6563C22.6927 15.1823 21.4583 16.4115 19.9375 16.4115Z" fill="#333347"/>
<path d="M15.6771 29.7968C15.9115 29.151 16.2604 29.1927 16.2604 29.1927C16.2604 29.1927 16.5781 29.125 16.7552 29.7708L19.3281 38.8073C17.1823 38.1823 15.224 37.1198 13.5573 35.7083L15.6771 29.7968ZM23.7031 5.66663C13.7604 5.66663 5.67188 13.7552 5.67188 23.6979C5.67188 33.6406 13.7604 41.7291 23.7031 41.7291C24.2344 41.7291 24.7552 41.6979 25.276 41.651L25.3958 43.4635L28.6979 40.2708L25.0052 37.4531L25.1458 39.3541C24.6719 39.401 24.1875 39.4323 23.7031 39.4323C22.9375 39.4323 22.1875 39.375 21.4531 39.2656L21.3802 38.7864L19.6667 24.1875C19.4323 21.4323 21.0052 20.9948 21.9792 21.4062L27.4479 23.6041C28.0729 23.875 28.375 23.3489 28.375 23.3489C28.375 23.3489 28.7292 22.802 28.0938 22.3958C28.0938 22.3958 20.6406 17.4583 19.0521 17.1562C16.8854 16.7552 14.7396 18.5104 14.2656 20.7968L11.6198 33.7604C9.34375 31.0312 7.96875 27.5208 7.96875 23.6979C7.96875 15.0208 15.026 7.9635 23.7031 7.9635C28.3385 7.9635 32.5104 9.97913 35.3906 13.177L37.0052 11.5364C33.7083 7.93225 28.9635 5.66663 23.7031 5.66663Z" fill="#333347"/>
<path d="M133.49 26.86V28.04H130.94V29.72H133.34V30.9H130.94V32.82H133.59V34H129.5V26.86H133.49ZM135.474 31.77V31.98C135.474 32.1467 135.488 32.3 135.514 32.44C135.541 32.5733 135.591 32.6867 135.664 32.78C135.738 32.8733 135.834 32.9467 135.954 33C136.081 33.0533 136.238 33.08 136.424 33.08C136.644 33.08 136.841 33.01 137.014 32.87C137.194 32.7233 137.284 32.5 137.284 32.2C137.284 32.04 137.261 31.9033 137.214 31.79C137.174 31.67 137.104 31.5633 137.004 31.47C136.904 31.3767 136.771 31.2933 136.604 31.22C136.444 31.14 136.244 31.06 136.004 30.98C135.684 30.8733 135.408 30.7567 135.174 30.63C134.941 30.5033 134.744 30.3567 134.584 30.19C134.431 30.0167 134.318 29.82 134.244 29.6C134.171 29.3733 134.134 29.1133 134.134 28.82C134.134 28.1133 134.331 27.5867 134.724 27.24C135.118 26.8933 135.658 26.72 136.344 26.72C136.664 26.72 136.958 26.7567 137.224 26.83C137.498 26.8967 137.731 27.01 137.924 27.17C138.124 27.3233 138.278 27.5233 138.384 27.77C138.498 28.01 138.554 28.3 138.554 28.64V28.84H137.174C137.174 28.5 137.114 28.24 136.994 28.06C136.874 27.8733 136.674 27.78 136.394 27.78C136.234 27.78 136.101 27.8033 135.994 27.85C135.888 27.8967 135.801 27.96 135.734 28.04C135.674 28.1133 135.631 28.2 135.604 28.3C135.584 28.4 135.574 28.5033 135.574 28.61C135.574 28.83 135.621 29.0167 135.714 29.17C135.808 29.3167 136.008 29.4533 136.314 29.58L137.424 30.06C137.698 30.18 137.921 30.3067 138.094 30.44C138.268 30.5667 138.404 30.7067 138.504 30.86C138.611 31.0067 138.684 31.17 138.724 31.35C138.764 31.53 138.784 31.73 138.784 31.95C138.784 32.7033 138.564 33.2533 138.124 33.6C137.691 33.94 137.084 34.11 136.304 34.11C135.491 34.11 134.908 33.9333 134.554 33.58C134.208 33.2267 134.034 32.72 134.034 32.06V31.77H135.474ZM140.66 31.77V31.98C140.66 32.1467 140.673 32.3 140.7 32.44C140.727 32.5733 140.777 32.6867 140.85 32.78C140.923 32.8733 141.02 32.9467 141.14 33C141.267 33.0533 141.423 33.08 141.61 33.08C141.83 33.08 142.027 33.01 142.2 32.87C142.38 32.7233 142.47 32.5 142.47 32.2C142.47 32.04 142.447 31.9033 142.4 31.79C142.36 31.67 142.29 31.5633 142.19 31.47C142.09 31.3767 141.957 31.2933 141.79 31.22C141.63 31.14 141.43 31.06 141.19 30.98C140.87 30.8733 140.593 30.7567 140.36 30.63C140.127 30.5033 139.93 30.3567 139.77 30.19C139.617 30.0167 139.503 29.82 139.43 29.6C139.357 29.3733 139.32 29.1133 139.32 28.82C139.32 28.1133 139.517 27.5867 139.91 27.24C140.303 26.8933 140.843 26.72 141.53 26.72C141.85 26.72 142.143 26.7567 142.41 26.83C142.683 26.8967 142.917 27.01 143.11 27.17C143.31 27.3233 143.463 27.5233 143.57 27.77C143.683 28.01 143.74 28.3 143.74 28.64V28.84H142.36C142.36 28.5 142.3 28.24 142.18 28.06C142.06 27.8733 141.86 27.78 141.58 27.78C141.42 27.78 141.287 27.8033 141.18 27.85C141.073 27.8967 140.987 27.96 140.92 28.04C140.86 28.1133 140.817 28.2 140.79 28.3C140.77 28.4 140.76 28.5033 140.76 28.61C140.76 28.83 140.807 29.0167 140.9 29.17C140.993 29.3167 141.193 29.4533 141.5 29.58L142.61 30.06C142.883 30.18 143.107 30.3067 143.28 30.44C143.453 30.5667 143.59 30.7067 143.69 30.86C143.797 31.0067 143.87 31.17 143.91 31.35C143.95 31.53 143.97 31.73 143.97 31.95C143.97 32.7033 143.75 33.2533 143.31 33.6C142.877 33.94 142.27 34.11 141.49 34.11C140.677 34.11 140.093 33.9333 139.74 33.58C139.393 33.2267 139.22 32.72 139.22 32.06V31.77H140.66ZM146.036 26.86V31.84C146.036 32.02 146.046 32.1867 146.066 32.34C146.092 32.4867 146.136 32.6167 146.196 32.73C146.262 32.8367 146.349 32.9233 146.456 32.99C146.569 33.05 146.709 33.08 146.876 33.08C147.049 33.08 147.189 33.05 147.296 32.99C147.402 32.9233 147.486 32.8367 147.546 32.73C147.612 32.6167 147.656 32.4867 147.676 32.34C147.702 32.1867 147.716 32.02 147.716 31.84V26.86H149.156V31.84C149.156 32.2933 149.092 32.67 148.966 32.97C148.839 33.2633 148.669 33.4967 148.456 33.67C148.242 33.8433 147.999 33.96 147.726 34.02C147.452 34.08 147.169 34.11 146.876 34.11C146.582 34.11 146.299 34.0833 146.026 34.03C145.752 33.9767 145.509 33.87 145.296 33.71C145.082 33.5433 144.912 33.31 144.786 33.01C144.659 32.71 144.596 32.32 144.596 31.84V26.86H146.036ZM150.136 34V26.86H151.576V34H150.136ZM156.635 26.86V28.04H154.085V29.72H156.485V30.9H154.085V32.82H156.735V34H152.645V26.86H156.635ZM160.219 30.52V31.7H157.399V30.52H160.219ZM165.34 26.86V28.04H163.78V34H162.34V28.04H160.78V26.86H165.34ZM167.255 30.43C167.255 30.91 167.265 31.32 167.285 31.66C167.312 31.9933 167.358 32.2667 167.425 32.48C167.498 32.6867 167.598 32.84 167.725 32.94C167.858 33.0333 168.032 33.08 168.245 33.08C168.458 33.08 168.628 33.0333 168.755 32.94C168.888 32.84 168.988 32.6867 169.055 32.48C169.128 32.2667 169.175 31.9933 169.195 31.66C169.222 31.32 169.235 30.91 169.235 30.43C169.235 29.95 169.222 29.5433 169.195 29.21C169.175 28.8767 169.128 28.6033 169.055 28.39C168.988 28.1767 168.888 28.0233 168.755 27.93C168.628 27.83 168.458 27.78 168.245 27.78C168.032 27.78 167.858 27.83 167.725 27.93C167.598 28.0233 167.498 28.1767 167.425 28.39C167.358 28.6033 167.312 28.8767 167.285 29.21C167.265 29.5433 167.255 29.95 167.255 30.43ZM165.815 30.43C165.815 29.89 165.838 29.3933 165.885 28.94C165.938 28.48 166.048 28.0867 166.215 27.76C166.388 27.4333 166.635 27.18 166.955 27C167.275 26.8133 167.705 26.72 168.245 26.72C168.785 26.72 169.215 26.8133 169.535 27C169.855 27.18 170.098 27.4333 170.265 27.76C170.438 28.0867 170.548 28.48 170.595 28.94C170.648 29.3933 170.675 29.89 170.675 30.43C170.675 30.9767 170.648 31.4767 170.595 31.93C170.548 32.3833 170.438 32.7733 170.265 33.1C170.098 33.4267 169.855 33.6767 169.535 33.85C169.215 34.0233 168.785 34.11 168.245 34.11C167.705 34.11 167.275 34.0233 166.955 33.85C166.635 33.6767 166.388 33.4267 166.215 33.1C166.048 32.7733 165.938 32.3833 165.885 31.93C165.838 31.4767 165.815 30.9767 165.815 30.43ZM172.871 26.86V31.84C172.871 32.02 172.881 32.1867 172.901 32.34C172.928 32.4867 172.971 32.6167 173.031 32.73C173.098 32.8367 173.185 32.9233 173.291 32.99C173.405 33.05 173.545 33.08 173.711 33.08C173.885 33.08 174.025 33.05 174.131 32.99C174.238 32.9233 174.321 32.8367 174.381 32.73C174.448 32.6167 174.491 32.4867 174.511 32.34C174.538 32.1867 174.551 32.02 174.551 31.84V26.86H175.991V31.84C175.991 32.2933 175.928 32.67 175.801 32.97C175.675 33.2633 175.505 33.4967 175.291 33.67C175.078 33.8433 174.835 33.96 174.561 34.02C174.288 34.08 174.005 34.11 173.711 34.11C173.418 34.11 173.135 34.0833 172.861 34.03C172.588 33.9767 172.345 33.87 172.131 33.71C171.918 33.5433 171.748 33.31 171.621 33.01C171.495 32.71 171.431 32.32 171.431 31.84V26.86H172.871ZM181.082 26.86V28.04H179.522V34H178.082V28.04H176.522V26.86H181.082ZM186.569 26.86C186.363 27.24 186.186 27.61 186.039 27.97C185.893 28.3233 185.773 28.68 185.679 29.04C185.593 29.4 185.529 29.77 185.489 30.15C185.449 30.5233 185.429 30.9233 185.429 31.35C185.429 31.7767 185.449 32.18 185.489 32.56C185.529 32.9333 185.593 33.2967 185.679 33.65C185.773 33.9967 185.893 34.3467 186.039 34.7C186.186 35.06 186.363 35.43 186.569 35.81H185.509C185.009 35.0233 184.649 34.26 184.429 33.52C184.216 32.78 184.109 32.0567 184.109 31.35C184.109 30.6433 184.216 29.9167 184.429 29.17C184.649 28.4167 185.009 27.6467 185.509 26.86H186.569ZM188.508 30.09H189.148C189.435 30.09 189.665 30.0033 189.838 29.83C190.018 29.6567 190.108 29.3867 190.108 29.02C190.108 28.66 190.032 28.3867 189.878 28.2C189.725 28.0133 189.468 27.92 189.108 27.92H188.508V30.09ZM187.068 26.86H189.588C189.955 26.86 190.262 26.9233 190.508 27.05C190.762 27.17 190.965 27.33 191.118 27.53C191.272 27.73 191.382 27.96 191.448 28.22C191.515 28.4733 191.548 28.7333 191.548 29C191.548 29.3667 191.492 29.6867 191.378 29.96C191.272 30.2333 191.118 30.4567 190.918 30.63C190.725 30.8033 190.488 30.9333 190.208 31.02C189.928 31.1067 189.618 31.15 189.278 31.15H188.508V34H187.068V26.86ZM194.863 31.31L194.173 28.1H194.153L193.463 31.31H194.863ZM195.053 26.86L196.943 34H195.443L195.113 32.49H193.213L192.883 34H191.383L193.273 26.86H195.053ZM198.879 30.09H199.519C199.806 30.09 200.036 30.0033 200.209 29.83C200.389 29.6567 200.479 29.3867 200.479 29.02C200.479 28.66 200.403 28.3867 200.249 28.2C200.096 28.0133 199.839 27.92 199.479 27.92H198.879V30.09ZM197.439 26.86H199.959C200.326 26.86 200.633 26.9233 200.879 27.05C201.133 27.17 201.336 27.33 201.489 27.53C201.643 27.73 201.753 27.96 201.819 28.22C201.886 28.4733 201.919 28.7333 201.919 29C201.919 29.3667 201.863 29.6867 201.749 29.96C201.643 30.2333 201.489 30.4567 201.289 30.63C201.096 30.8033 200.859 30.9333 200.579 31.02C200.299 31.1067 199.989 31.15 199.649 31.15H198.879V34H197.439V26.86ZM202.695 34V26.86H204.135V34H202.695ZM209.193 26.86V28.04H206.643V29.72H209.043V30.9H206.643V32.82H209.293V34H205.203V26.86H209.193ZM210.018 26.86H212.678C213.278 26.86 213.744 27.0133 214.078 27.32C214.411 27.62 214.578 28.08 214.578 28.7C214.578 29.18 214.481 29.5733 214.288 29.88C214.094 30.18 213.794 30.3733 213.388 30.46V30.48C213.748 30.5333 214.011 30.65 214.178 30.83C214.344 31.01 214.448 31.3 214.488 31.7C214.501 31.8333 214.511 31.98 214.518 32.14C214.524 32.2933 214.531 32.4667 214.538 32.66C214.551 33.04 214.571 33.33 214.598 33.53C214.638 33.73 214.724 33.8667 214.858 33.94V34H213.298C213.224 33.9 213.178 33.7867 213.158 33.66C213.138 33.5267 213.124 33.39 213.118 33.25L213.078 31.88C213.064 31.6 212.994 31.38 212.868 31.22C212.741 31.06 212.528 30.98 212.228 30.98H211.458V34H210.018V26.86ZM211.458 29.98H212.058C212.404 29.98 212.671 29.9 212.858 29.74C213.044 29.5733 213.138 29.2967 213.138 28.91C213.138 28.25 212.804 27.92 212.138 27.92H211.458V29.98ZM216.134 26.86C216.634 27.6467 216.991 28.4167 217.204 29.17C217.424 29.9167 217.534 30.6433 217.534 31.35C217.534 32.0567 217.424 32.78 217.204 33.52C216.991 34.26 216.634 35.0233 216.134 35.81H215.074C215.281 35.43 215.458 35.06 215.604 34.7C215.751 34.3467 215.868 33.9967 215.954 33.65C216.048 33.2967 216.114 32.9333 216.154 32.56C216.194 32.18 216.214 31.7767 216.214 31.35C216.214 30.9233 216.194 30.5233 216.154 30.15C216.114 29.77 216.048 29.4 215.954 29.04C215.868 28.68 215.751 28.3233 215.604 27.97C215.458 27.61 215.281 27.24 215.074 26.86H216.134Z" fill="black"/>
<path fill-rule="evenodd" clip-rule="evenodd" d="M246.197 12.9917C245.489 12.7271 244.997 12.6406 244.67 12.6452C244.338 12.6499 244.233 12.7457 244.211 12.7697C244.191 12.7911 244.158 12.8426 244.156 12.9856C244.155 13.0935 244.173 13.2211 244.209 13.3514L248.625 17.6963H251.528C252.034 17.0728 253.172 15.8497 255.078 14.1794C255.602 13.7203 255.792 13.4037 255.848 13.2371C255.879 13.1441 255.868 13.1284 255.843 13.0951L255.839 13.0896C255.774 13.001 255.62 12.8791 255.352 12.7673C255.11 12.6663 254.831 12.5973 254.575 12.5601C254.389 12.5649 254.251 12.6081 254.006 12.6965L253.957 12.7142C253.87 12.7457 253.807 12.7781 253.743 12.811C253.611 12.8791 253.474 12.9492 253.116 13.0172C252.548 13.1251 252.141 13.1334 251.683 13.0237C251.386 12.9524 251.057 12.826 250.66 12.6733L250.66 12.6732L250.66 12.6732C250.522 12.6199 250.375 12.5634 250.218 12.505L250.215 12.5046C250.205 12.5034 250.171 12.4992 250.103 12.5017C250.005 12.5053 249.878 12.5207 249.721 12.5484C249.412 12.603 249.047 12.694 248.66 12.7904L248.637 12.7962C248.255 12.8913 247.848 12.9925 247.508 13.0468C247.338 13.0739 247.162 13.0935 246.999 13.0896C246.986 13.0893 246.969 13.0891 246.947 13.0889H246.947C246.777 13.0872 246.364 13.0832 246.197 12.9917ZM248.237 11.3164C247.706 11.4374 246.732 11.5442 246.732 11.5442C246.164 11.5236 245.749 11.4099 245.402 11.3145C245.125 11.2386 244.891 11.1743 244.654 11.1777C244.117 11.1852 243.651 11.3462 243.316 11.7135C242.98 12.0836 242.873 12.5579 242.868 12.9653C242.863 13.3667 242.954 13.7551 243.067 14.0649L243.126 14.2248L247.043 18.0789C245.564 18.4041 243.986 19.063 242.531 20.2082C239.761 22.3897 237.542 26.2534 237.227 32.6479C237.207 33.0641 237.184 33.4866 237.161 33.912C237.068 35.6616 236.972 37.462 237.008 39.0902C237.052 41.0844 237.292 43.0034 238.107 44.3151C239.572 46.6711 241.968 47.8112 244.268 48.348C246.56 48.883 248.85 48.8422 250.268 48.7579C251.563 48.7331 253.698 48.6558 255.887 48.1961C258.067 47.7382 260.413 46.8786 262.016 45.2058C263.305 43.8598 263.744 41.8774 263.878 39.7527C263.983 38.0805 263.904 36.1896 263.823 34.2644L263.823 34.2638C263.8 33.7301 263.778 33.1937 263.759 32.6587C263.548 26.6489 261.338 22.879 258.569 20.6473C256.772 19.1991 254.772 18.4248 253.001 18.0891C253.574 17.4656 254.506 16.5318 255.863 15.3427C256.456 14.8235 256.868 14.3043 257.051 13.7626C257.256 13.1522 257.144 12.5834 256.83 12.152C256.553 11.7717 256.15 11.5369 255.794 11.3889C255.425 11.2351 255.029 11.1428 254.687 11.097L254.649 11.092H254.611C254.197 11.092 253.898 11.1959 253.617 11.2976L253.57 11.3145C253.314 11.4071 253.037 11.5078 252.597 11.5912C252.212 11.6645 252.189 11.6582 252.042 11.6184L252.042 11.6184C252.013 11.6105 251.98 11.6013 251.937 11.5912C251.72 11.539 251.496 11.4529 251.141 11.3164C251.127 11.311 251.103 11.2985 251.069 11.2814C250.905 11.1967 250.523 11 250.086 11C249.442 11 248.825 11.163 248.453 11.2614L248.453 11.2614L248.453 11.2615L248.453 11.2615C248.367 11.2841 248.295 11.3034 248.237 11.3164ZM243.478 21.4108C241.129 23.2603 239.054 26.6676 238.756 32.7231C238.735 33.1559 238.712 33.5897 238.689 34.0222C238.596 35.7668 238.504 37.492 238.538 39.0565C238.582 41.0386 238.83 42.5793 239.407 43.5068C240.575 45.3858 242.528 46.37 244.616 46.8573C246.702 47.3443 248.827 47.3108 250.192 47.2289L250.207 47.228L250.223 47.2277C251.495 47.2037 253.521 47.1289 255.572 46.6981C257.641 46.2636 259.624 45.489 260.91 44.1468C261.806 43.2119 262.221 41.7042 262.35 39.6564C262.45 38.0726 262.375 36.2919 262.295 34.3813C262.272 33.835 262.249 33.2782 262.229 32.7124C262.032 27.0884 259.989 23.7575 257.609 21.8391C255.802 20.3832 253.757 19.7053 252.07 19.4905C253.467 20.9563 255.051 22.4306 255.916 22.9628L255.114 24.2664C254.751 23.9038 254.206 23.4291 253.577 22.8815L253.577 22.8815C252.672 22.0929 251.593 21.1533 250.636 20.1804C250.589 20.8038 250.548 21.5006 250.531 22.1621C250.516 22.7319 250.52 23.2613 250.55 23.6891C250.565 23.9031 250.586 24.0802 250.611 24.218C250.624 24.2864 250.636 24.3394 250.648 24.3787C250.659 24.4162 250.666 24.4328 250.667 24.4343L250.777 25.0318L249.298 25.119C249.12 24.7626 249.055 24.2519 249.023 23.7962C248.988 23.2997 248.985 22.7161 249.001 22.123C249.013 21.6509 249.036 21.1638 249.066 20.6965C247.822 21.8971 246.513 22.9378 245.548 23.7056L245.547 23.7058L245.547 23.7061C245.412 23.8133 245.284 23.9151 245.164 24.0113L244.362 22.7076C245.212 22.115 246.785 20.8255 248.179 19.4313C246.695 19.6286 245.007 20.2073 243.478 21.4108Z" fill="white"/>
</g>
<defs>
<clipPath id="clip0_66_3968">
<rect width="280" height="61" fill="white"/>
</clipPath>
</defs>
</svg>
