<svg width="240" height="61" viewBox="0 0 240 61" fill="none" xmlns="http://www.w3.org/2000/svg">
<g clip-path="url(#clip0_66_4163)">
<path d="M24.6979 60.4688C11.0781 60.4688 0 49.5208 0 36.0625V0H214.948C228.563 0 239.641 10.9479 239.641 24.4062V60.4688" fill="white"/>
<path d="M222.083 52.9114H69.1353C59.6874 52.9114 51.9999 45.3541 51.9999 36.0625V7.55725H204.948C214.396 7.55725 222.083 15.1145 222.083 24.4062V52.9114ZM204.948 5.66663H50.1145V36.0625C50.1145 46.3958 58.6458 54.802 69.1353 54.802H223.969V24.4062C223.969 14.0729 215.437 5.66663 204.948 5.66663Z" fill="#629D5E"/>
<path d="M176.714 54.802L189.724 28.2239L176.432 5.66663H214.948C225.437 5.66663 233.969 14.0729 233.969 24.4062V54.802" fill="#629D5E"/>
<path d="M102.901 5.66663H50.1145V36.0625C50.1145 46.3958 58.6458 54.802 69.1353 54.802H121.927V24.4062C121.927 14.0729 113.391 5.66663 102.901 5.66663Z" fill="#629D5E"/>
<path d="M63.651 29.3594C58.8489 29.3594 54.9583 33.25 54.9583 38.0521C54.9583 42.8542 58.8489 46.7448 63.651 46.7448C68.4583 46.7448 72.3489 42.8542 72.3489 38.0521C72.3489 33.25 68.4583 29.3594 63.651 29.3594Z" fill="white"/>
<path d="M69.3229 39.4688H65.0729V43.7188H62.2344V39.4688H57.9844V36.6355H62.2344V32.3802H65.0729V36.6355H69.3229" fill="#1C1C1B"/>
<path d="M55.7864 26.5937V17.1979H58.2708V24.5156H61.828V26.5937" fill="#1C1C1B"/>
<path d="M62.9426 26.5937V17.1979H69.0155V19.276H65.4322V20.7552H68.4947V22.8385H65.4322V24.5156H69.1614V26.5937" fill="#1C1C1B"/>
<path d="M75.0885 26.5937V19.276H72.6041V17.1979H80.0677V19.276H77.5781V26.5937" fill="#1C1C1B"/>
<path d="M83.5521 21.4739H84.4479C85.4479 21.4739 85.9531 21.0625 85.9531 20.2343C85.9531 19.8281 85.8229 19.5468 85.5677 19.3958C85.3125 19.2395 84.9375 19.1614 84.4479 19.1614H83.5521V21.4739ZM81.0625 26.5989V17.1979H84.6198C85.125 17.1979 85.6042 17.2448 86.0625 17.3385C86.5208 17.4375 86.9167 17.5989 87.2604 17.8333C87.6042 18.0625 87.875 18.375 88.0781 18.7656C88.2813 19.1562 88.3802 19.6458 88.3802 20.2343C88.3802 20.9062 88.2448 21.4687 87.9688 21.9114C87.6979 22.3541 87.3281 22.6979 86.8646 22.9531L88.901 26.5989H86.125L84.5052 23.4427H83.5521V26.5989" fill="#1C1C1B"/>
<path d="M89.8698 26.5989H92.3593V17.1979H89.8698V26.5989Z" fill="#1C1C1B"/>
<path d="M75.3801 43.276V33.8698H81.5103V35.9531H77.8697V37.75H80.9895V39.8333H77.8697V43.276" fill="#1C1C1B"/>
<path d="M84.9218 38.7031L84.7604 39.3541H86.4948L86.3385 38.7031C86.2239 38.25 86.1041 37.7604 85.9895 37.2291C85.875 36.6979 85.7604 36.1979 85.6406 35.7239H85.5833C85.4791 36.2031 85.3698 36.7083 85.2604 37.2343C85.151 37.7604 85.0364 38.25 84.9218 38.7031ZM81.3073 43.276L84.1666 33.8698H87.1718L90.0364 43.276H87.4062L86.9427 41.276H84.3125L83.8489 43.276" fill="#1C1C1B"/>
<path d="M94.5624 43.4479C93.9687 43.4479 93.3958 43.3489 92.8541 43.151C92.3072 42.9531 91.8333 42.651 91.4218 42.2552C91.0103 41.8541 90.6822 41.3541 90.4426 40.75C90.203 40.1458 90.0833 39.4479 90.0833 38.6458C90.0833 37.8541 90.2083 37.151 90.4583 36.5416C90.7083 35.927 91.0416 35.4114 91.4635 34.9948C91.8801 34.5729 92.3645 34.25 92.9114 34.0312C93.4583 33.8073 94.026 33.6979 94.6249 33.6979C95.2499 33.6979 95.8124 33.8229 96.302 34.0677C96.7968 34.3125 97.2083 34.6041 97.5468 34.9427L96.2447 36.5312C96.0155 36.3333 95.776 36.1666 95.5312 36.0312C95.2812 35.9062 94.9999 35.8385 94.6822 35.8385C94.401 35.8385 94.1405 35.901 93.8958 36.026C93.651 36.151 93.4322 36.3333 93.2447 36.5625C93.0572 36.7916 92.9062 37.0781 92.7968 37.4166C92.6822 37.75 92.6301 38.1354 92.6301 38.5573C92.6301 39.4479 92.8124 40.125 93.1874 40.5989C93.5572 41.0677 94.0468 41.3073 94.651 41.3073C95.0208 41.3073 95.3437 41.2291 95.6301 41.0677C95.9114 40.9062 96.1562 40.7187 96.3593 40.4948L97.6614 42.0573C97.2551 42.5208 96.7916 42.8698 96.2655 43.0989C95.7395 43.3333 95.1718 43.4479 94.5624 43.4479Z" fill="#1C1C1B"/>
<path d="M98.6198 43.276H101.104V33.8698H98.6198V43.276Z" fill="#1C1C1B"/>
<path d="M102.875 43.276V33.8698H105.365V41.1927H108.922V43.276" fill="#1C1C1B"/>
<path d="M110.031 43.276V33.8698H116.109V35.9531H112.521V37.4323H115.589V39.5156H112.521V41.1927H116.255V43.276" fill="#1C1C1B"/>
<path d="M28.4062 25.7448C26.7135 28.2343 28.151 31.5104 29.8958 33.1718C31.4895 34.6823 32.7655 35.0364 32.9322 35.0781L33.7447 33.5208L36.0885 39.9323L29.4635 41.2812L30.3437 39.6458L29.4478 39.1458C26.6562 37.3281 26.0676 34.8593 25.8749 34.0885C25.5416 32.7604 25.0468 28.7864 28.4062 25.7448Z" fill="#629D5E"/>
<path d="M28.375 25.8489C29.5781 28.6093 33.1146 29.1406 35.4479 28.552C37.5208 28.026 38.5052 27.1718 38.6719 27.0156L38.6615 27L37.776 25.4635L44.4427 26.9218L42.0313 33.2395L41.1354 31.6458L40.2656 32.1198C37.2396 33.5104 34.8333 32.6927 34.0781 32.4427C32.7813 32.0156 29.1562 30.3125 28.375 25.8489Z" fill="#629D5E"/>
<path d="M40.1613 19.1927C39.6978 22.4895 37.7134 24.0729 37.0936 24.5729C36.0311 25.4375 32.6457 27.5677 28.4634 25.8177C31.4373 26.2916 33.7967 23.6041 34.5571 21.3177C35.2446 19.2656 35.0415 17.9687 34.9998 17.7708L34.979 17.7656L33.2134 17.6927L38.0259 12.8541L42.0519 18.2864L40.2342 18.1823" fill="#629D5E"/>
<path fill-rule="evenodd" clip-rule="evenodd" d="M19.9375 16.4115C18.4167 16.4115 17.1875 15.1823 17.1875 13.6563C17.1875 12.1354 18.4167 10.9062 19.9375 10.9062C21.4583 10.9062 22.6927 12.1354 22.6927 13.6563C22.6927 15.1823 21.4583 16.4115 19.9375 16.4115Z" fill="#629D5E"/>
<path d="M15.6771 29.7968C15.9115 29.151 16.2604 29.1927 16.2604 29.1927C16.2604 29.1927 16.5781 29.125 16.7552 29.7708L19.3281 38.8073C17.1823 38.1823 15.224 37.1198 13.5573 35.7083L15.6771 29.7968ZM23.7031 5.66663C13.7604 5.66663 5.67188 13.7552 5.67188 23.6979C5.67188 33.6406 13.7604 41.7291 23.7031 41.7291C24.2344 41.7291 24.7552 41.6979 25.276 41.651L25.3958 43.4635L28.6979 40.2708L25.0052 37.4531L25.1458 39.3541C24.6719 39.401 24.1875 39.4323 23.7031 39.4323C22.9375 39.4323 22.1875 39.375 21.4531 39.2656L21.3802 38.7864L19.6667 24.1875C19.4323 21.4323 21.0052 20.9948 21.9792 21.4062L27.4479 23.6041C28.0729 23.875 28.375 23.3489 28.375 23.3489C28.375 23.3489 28.7292 22.802 28.0938 22.3958C28.0938 22.3958 20.6406 17.4583 19.0521 17.1562C16.8854 16.7552 14.7396 18.5104 14.2656 20.7968L11.6198 33.7604C9.34375 31.0312 7.96875 27.5208 7.96875 23.6979C7.96875 15.0208 15.026 7.9635 23.7031 7.9635C28.3385 7.9635 32.5104 9.97913 35.3906 13.177L37.0052 11.5364C33.7083 7.93225 28.9635 5.66663 23.7031 5.66663Z" fill="#629D5E"/>
<path d="M129.6 18.432H134.388V19.848H131.328V21.864H134.208V23.28H131.328V27H129.6V18.432ZM139.943 18.432V19.848H136.883V21.864H139.763V23.28H136.883V25.584H140.063V27H135.155V18.432H139.943ZM142.552 18.432V24.408C142.552 24.624 142.564 24.824 142.588 25.008C142.62 25.184 142.672 25.34 142.744 25.476C142.824 25.604 142.928 25.708 143.056 25.788C143.192 25.86 143.36 25.896 143.56 25.896C143.768 25.896 143.936 25.86 144.064 25.788C144.192 25.708 144.292 25.604 144.364 25.476C144.444 25.34 144.496 25.184 144.52 25.008C144.552 24.824 144.568 24.624 144.568 24.408V18.432H146.296V24.408C146.296 24.952 146.22 25.404 146.068 25.764C145.916 26.116 145.712 26.396 145.456 26.604C145.2 26.812 144.908 26.952 144.58 27.024C144.252 27.096 143.912 27.132 143.56 27.132C143.208 27.132 142.868 27.1 142.54 27.036C142.212 26.972 141.92 26.844 141.664 26.652C141.408 26.452 141.204 26.172 141.052 25.812C140.9 25.452 140.824 24.984 140.824 24.408V18.432H142.552ZM147.473 27V18.432H149.201V27H147.473ZM150.483 27V18.432H152.211V25.584H155.271V27H150.483ZM156.038 27V18.432H157.766V25.584H160.826V27H156.038ZM166.38 18.432V19.848H163.32V21.864H166.2V23.28H163.32V25.584H166.5V27H161.592V18.432H166.38ZM168.762 24.324V24.576C168.762 24.776 168.778 24.96 168.81 25.128C168.842 25.288 168.902 25.424 168.99 25.536C169.078 25.648 169.194 25.736 169.338 25.8C169.49 25.864 169.678 25.896 169.902 25.896C170.166 25.896 170.402 25.812 170.61 25.644C170.826 25.468 170.934 25.2 170.934 24.84C170.934 24.648 170.906 24.484 170.85 24.348C170.802 24.204 170.718 24.076 170.598 23.964C170.478 23.852 170.318 23.752 170.118 23.664C169.926 23.568 169.686 23.472 169.398 23.376C169.014 23.248 168.682 23.108 168.402 22.956C168.122 22.804 167.886 22.628 167.694 22.428C167.51 22.22 167.374 21.984 167.286 21.72C167.198 21.448 167.154 21.136 167.154 20.784C167.154 19.936 167.39 19.304 167.862 18.888C168.334 18.472 168.982 18.264 169.806 18.264C170.19 18.264 170.542 18.308 170.862 18.396C171.19 18.476 171.47 18.612 171.702 18.804C171.942 18.988 172.126 19.228 172.254 19.524C172.39 19.812 172.458 20.16 172.458 20.568V20.808H170.802C170.802 20.4 170.73 20.088 170.586 19.872C170.442 19.648 170.202 19.536 169.866 19.536C169.674 19.536 169.514 19.564 169.386 19.62C169.258 19.676 169.154 19.752 169.074 19.848C169.002 19.936 168.95 20.04 168.918 20.16C168.894 20.28 168.882 20.404 168.882 20.532C168.882 20.796 168.938 21.02 169.05 21.204C169.162 21.38 169.402 21.544 169.77 21.696L171.102 22.272C171.43 22.416 171.698 22.568 171.906 22.728C172.114 22.88 172.278 23.048 172.398 23.232C172.526 23.408 172.614 23.604 172.662 23.82C172.71 24.036 172.734 24.276 172.734 24.54C172.734 25.444 172.47 26.104 171.942 26.52C171.422 26.928 170.694 27.132 169.758 27.132C168.782 27.132 168.082 26.92 167.658 26.496C167.242 26.072 167.034 25.464 167.034 24.672V24.324H168.762ZM129.636 33.432H132.204L133.428 39.48H133.452L134.688 33.432H137.244V42H135.66V35.16H135.636L134.112 42H132.768L131.244 35.16H131.22V42H129.636V33.432ZM140.031 37.716C140.031 38.292 140.043 38.784 140.067 39.192C140.099 39.592 140.155 39.92 140.235 40.176C140.323 40.424 140.443 40.608 140.595 40.728C140.755 40.84 140.963 40.896 141.219 40.896C141.475 40.896 141.679 40.84 141.831 40.728C141.991 40.608 142.111 40.424 142.191 40.176C142.279 39.92 142.335 39.592 142.359 39.192C142.391 38.784 142.407 38.292 142.407 37.716C142.407 37.14 142.391 36.652 142.359 36.252C142.335 35.852 142.279 35.524 142.191 35.268C142.111 35.012 141.991 34.828 141.831 34.716C141.679 34.596 141.475 34.536 141.219 34.536C140.963 34.536 140.755 34.596 140.595 34.716C140.443 34.828 140.323 35.012 140.235 35.268C140.155 35.524 140.099 35.852 140.067 36.252C140.043 36.652 140.031 37.14 140.031 37.716ZM138.303 37.716C138.303 37.068 138.331 36.472 138.387 35.928C138.451 35.376 138.583 34.904 138.783 34.512C138.991 34.12 139.287 33.816 139.671 33.6C140.055 33.376 140.571 33.264 141.219 33.264C141.867 33.264 142.383 33.376 142.767 33.6C143.151 33.816 143.443 34.12 143.643 34.512C143.851 34.904 143.983 35.376 144.039 35.928C144.103 36.472 144.135 37.068 144.135 37.716C144.135 38.372 144.103 38.972 144.039 39.516C143.983 40.06 143.851 40.528 143.643 40.92C143.443 41.312 143.151 41.612 142.767 41.82C142.383 42.028 141.867 42.132 141.219 42.132C140.571 42.132 140.055 42.028 139.671 41.82C139.287 41.612 138.991 41.312 138.783 40.92C138.583 40.528 138.451 40.06 138.387 39.516C138.331 38.972 138.303 38.372 138.303 37.716ZM145.151 33.432H148.343C149.063 33.432 149.623 33.616 150.023 33.984C150.423 34.344 150.623 34.896 150.623 35.64C150.623 36.216 150.507 36.688 150.275 37.056C150.043 37.416 149.683 37.648 149.195 37.752V37.776C149.627 37.84 149.943 37.98 150.143 38.196C150.343 38.412 150.467 38.76 150.515 39.24C150.531 39.4 150.543 39.576 150.551 39.768C150.559 39.952 150.567 40.16 150.575 40.392C150.591 40.848 150.615 41.196 150.647 41.436C150.695 41.676 150.799 41.84 150.959 41.928V42H149.087C148.999 41.88 148.943 41.744 148.919 41.592C148.895 41.432 148.879 41.268 148.871 41.1L148.823 39.456C148.807 39.12 148.723 38.856 148.571 38.664C148.419 38.472 148.163 38.376 147.803 38.376H146.879V42H145.151V33.432ZM146.879 37.176H147.599C148.015 37.176 148.335 37.08 148.559 36.888C148.783 36.688 148.895 36.356 148.895 35.892C148.895 35.1 148.495 34.704 147.695 34.704H146.879V37.176ZM156.624 33.432V34.848H154.752V42H153.024V34.848H151.152V33.432H156.624ZM162.161 33.432V34.848H159.101V36.864H161.981V38.28H159.101V40.584H162.281V42H157.373V33.432H162.161ZM164.543 39.324V39.576C164.543 39.776 164.559 39.96 164.591 40.128C164.623 40.288 164.683 40.424 164.771 40.536C164.859 40.648 164.975 40.736 165.119 40.8C165.271 40.864 165.459 40.896 165.683 40.896C165.947 40.896 166.183 40.812 166.391 40.644C166.607 40.468 166.715 40.2 166.715 39.84C166.715 39.648 166.687 39.484 166.631 39.348C166.583 39.204 166.499 39.076 166.379 38.964C166.259 38.852 166.099 38.752 165.899 38.664C165.707 38.568 165.467 38.472 165.179 38.376C164.795 38.248 164.463 38.108 164.183 37.956C163.903 37.804 163.667 37.628 163.475 37.428C163.291 37.22 163.155 36.984 163.067 36.72C162.979 36.448 162.935 36.136 162.935 35.784C162.935 34.936 163.171 34.304 163.643 33.888C164.115 33.472 164.763 33.264 165.587 33.264C165.971 33.264 166.323 33.308 166.643 33.396C166.971 33.476 167.251 33.612 167.483 33.804C167.723 33.988 167.907 34.228 168.035 34.524C168.171 34.812 168.239 35.16 168.239 35.568V35.808H166.583C166.583 35.4 166.511 35.088 166.367 34.872C166.223 34.648 165.983 34.536 165.647 34.536C165.455 34.536 165.295 34.564 165.167 34.62C165.039 34.676 164.935 34.752 164.855 34.848C164.783 34.936 164.731 35.04 164.699 35.16C164.675 35.28 164.663 35.404 164.663 35.532C164.663 35.796 164.719 36.02 164.831 36.204C164.943 36.38 165.183 36.544 165.551 36.696L166.883 37.272C167.211 37.416 167.479 37.568 167.687 37.728C167.895 37.88 168.059 38.048 168.179 38.232C168.307 38.408 168.395 38.604 168.443 38.82C168.491 39.036 168.515 39.276 168.515 39.54C168.515 40.444 168.251 41.104 167.723 41.52C167.203 41.928 166.475 42.132 165.539 42.132C164.563 42.132 163.863 41.92 163.439 41.496C163.023 41.072 162.815 40.464 162.815 39.672V39.324H164.543Z" fill="black"/>
<path d="M202.337 36.8405L196.602 36.8342C196.276 36.8342 196.006 36.5707 196.006 36.2444L196 30.5407C196 30.3023 196.144 30.0827 196.37 29.9948C196.59 29.9007 196.847 29.9509 197.016 30.1203L198.14 31.2372L207.803 21.6181C208.035 21.3923 208.411 21.3923 208.643 21.6181L211.304 24.2661C211.417 24.379 211.48 24.5233 211.48 24.6865C211.48 24.8433 211.417 24.9939 211.304 25.1069L201.641 34.7134L202.758 35.8303C202.927 35.9997 202.977 36.257 202.883 36.4766C202.795 36.6962 202.576 36.8405 202.337 36.8405ZM197.198 35.6483L200.894 35.6546L200.373 35.1338C200.141 34.9016 200.141 34.5252 200.373 34.293L210.036 24.6865L208.223 22.8794L198.56 32.4922C198.328 32.7243 197.951 32.7243 197.719 32.4922L197.192 31.9776" fill="black"/>
<path d="M214.473 28.2442C214.015 28.2442 213.575 28.0685 213.237 27.7547C212.885 27.4285 212.684 26.983 212.666 26.4998L212.578 23.7703L213.77 23.7327L213.858 26.4622C213.864 26.6253 213.933 26.7759 214.052 26.8888C214.171 27.0018 214.341 27.0457 214.498 27.0583C214.661 27.052 214.811 26.983 214.924 26.8637C215.037 26.7445 215.094 26.5877 215.088 26.4245L214.956 22.7852L216.148 22.7476L216.28 26.3806C216.299 26.8637 216.129 27.3218 215.797 27.6732C215.464 28.0246 215.019 28.2253 214.535 28.2379C214.51 28.2442 214.491 28.2442 214.473 28.2442Z" fill="black"/>
<path d="M214.473 28.2442C214.015 28.2442 213.575 28.0685 213.237 27.7547C212.885 27.4285 212.684 26.983 212.666 26.4998L212.578 23.7703L213.77 23.7327L213.858 26.4622C213.864 26.6253 213.933 26.7759 214.052 26.8888C214.171 27.0018 214.341 27.0457 214.498 27.0583C214.661 27.052 214.811 26.983 214.924 26.8637C215.037 26.7445 215.094 26.5877 215.088 26.4245L214.956 22.7852L216.148 22.7476L216.28 26.3806C216.299 26.8637 216.129 27.3218 215.797 27.6732C215.464 28.0246 215.019 28.2253 214.535 28.2379C214.51 28.2442 214.491 28.2442 214.473 28.2442Z" fill="black"/>
<path d="M212.063 28.6521C211.599 28.6521 211.166 28.4827 210.827 28.1689C210.476 27.8364 210.269 27.3909 210.256 26.9077L210.168 24.1782L211.36 24.1406L211.448 26.8701C211.455 27.0395 211.524 27.1901 211.643 27.303C211.762 27.416 211.919 27.485 212.082 27.4662C212.421 27.4536 212.691 27.1712 212.678 26.8324L212.546 23.1994L213.739 23.1555L213.87 26.7885C213.908 27.7862 213.124 28.6144 212.126 28.6521C212.101 28.6521 212.082 28.6521 212.063 28.6521Z" fill="black"/>
<path d="M214.115 36.8531C213.87 36.8531 213.651 36.7025 213.563 36.4829C213.469 36.2632 213.519 36.006 213.688 35.8366L214.811 34.7197L205.148 25.1069C204.916 24.881 204.916 24.5045 205.148 24.2723L207.803 21.6244C208.022 21.4048 208.424 21.4048 208.643 21.6244L218.733 31.6576L217.886 32.4984L208.223 22.8856L206.41 24.6927L216.073 34.2993C216.311 34.5314 216.311 34.9142 216.073 35.1401L215.552 35.6609H219.248L219.254 30.547H220.446L220.44 36.2507C220.44 36.577 220.176 36.8405 219.844 36.8405L214.115 36.8531Z" fill="black"/>
<path d="M208.198 41.3646C208.041 41.3646 207.891 41.3081 207.771 41.1889L203.718 37.1668C203.548 36.9974 203.498 36.7401 203.586 36.5205C203.68 36.2946 203.9 36.1503 204.138 36.1503H205.726V25.1069C205.726 24.7806 205.989 24.5108 206.322 24.5108H210.08C210.407 24.5108 210.677 24.7806 210.677 25.1069V36.7464H209.484V25.703H206.918V36.7464C206.918 37.0727 206.648 37.3362 206.322 37.3362H205.581L208.198 39.934L211.831 36.326L212.678 37.1668L208.618 41.1889C208.499 41.3081 208.349 41.3646 208.198 41.3646Z" fill="black"/>
<path d="M202.331 36.8405L196.602 36.8342C196.276 36.8342 196.006 36.5707 196.006 36.2444L196 30.5407C196 30.3023 196.144 30.0827 196.37 29.9948C196.59 29.9007 196.847 29.9509 197.016 30.1203L198.14 31.2372L207.803 21.6181C208.035 21.3923 208.411 21.3923 208.643 21.6181L211.304 24.2661C211.417 24.379 211.48 24.5233 211.48 24.6865C211.48 24.8433 211.417 24.9939 211.304 25.1069L201.214 35.1338L200.373 34.293L210.036 24.6865L208.223 22.8794L198.56 32.4922C198.328 32.7243 197.951 32.7243 197.719 32.4922L197.192 31.9776L197.198 35.6483L202.337 35.6546" fill="black"/>
<path d="M221.927 19.8236C221.494 19.8236 221.086 19.6542 220.779 19.353L215.182 13.7811C214.874 13.4799 214.705 13.0721 214.705 12.6454C214.705 12.2124 214.874 11.8109 215.175 11.5034L216.631 10.0539C217.246 9.45158 218.313 9.45158 218.928 10.0539L224.525 15.6259C225.158 16.2533 225.158 17.2761 224.525 17.9036L223.069 19.353C222.762 19.6542 222.36 19.8236 221.927 19.8236ZM217.779 10.7693C217.666 10.7693 217.56 10.8195 217.478 10.8948V10.901L216.023 12.3442C215.941 12.4258 215.897 12.5324 215.897 12.6454C215.897 12.7583 215.941 12.865 216.023 12.9403L221.62 18.5122C221.783 18.6754 222.065 18.6691 222.228 18.5122L223.684 17.069C223.847 16.8996 223.847 16.6298 223.678 16.4667L218.081 10.901C217.999 10.8195 217.892 10.7693 217.779 10.7693Z" fill="black"/>
<path d="M216 29.5L211.5 25.5L210.5 26.5L210 28.5L213 32.5L216 29.5Z" fill="#629D5E"/>
<path d="M214.115 36.8531C213.87 36.8531 213.651 36.7025 213.563 36.4829C213.469 36.2632 213.519 36.006 213.688 35.8366L214.811 34.7197L205.148 25.1069C204.916 24.881 204.916 24.5045 205.148 24.2723L207.803 21.6244C208.022 21.4048 208.424 21.4048 208.643 21.6244L218.313 31.2435L219.43 30.1266C219.599 29.9572 219.856 29.907 220.082 30.0011C220.302 30.089 220.446 30.3086 220.446 30.547L220.44 36.2507C220.44 36.577 220.176 36.8405 219.844 36.8405L214.115 36.8531ZM206.41 24.6927L216.073 34.2993C216.311 34.5314 216.311 34.9142 216.073 35.1401L215.552 35.6609H219.248L219.254 31.9839L218.733 32.4984C218.501 32.7306 218.124 32.7306 217.886 32.4984L208.223 22.8856" fill="black"/>
<path d="M204.5 37H206.5V25.5H210L210.5 37H211.5L208 41L204.5 37Z" fill="#629D5E"/>
<path d="M208.198 41.3646C208.041 41.3646 207.891 41.3081 207.778 41.1889L203.718 37.1668C203.548 36.9974 203.498 36.7401 203.586 36.5205C203.68 36.2946 203.9 36.1503 204.138 36.1503H205.726V25.1069C205.726 24.7806 205.989 24.5108 206.322 24.5108H210.08C210.407 24.5108 210.677 24.7806 210.677 25.1069V36.1503H212.251C212.496 36.1503 212.716 36.2946 212.804 36.5205C212.898 36.7401 212.848 36.9974 212.678 37.1668L208.618 41.1889C208.499 41.3081 208.349 41.3646 208.198 41.3646ZM205.581 37.3362L208.198 39.934L210.815 37.3362H210.08C209.748 37.3362 209.484 37.0727 209.484 36.7464V25.703H206.918V36.7464C206.918 37.0727 206.648 37.3362 206.322 37.3362" fill="black"/>
<path d="M210.501 22.0825L207.803 25.6841C207.345 26.2928 207.47 27.1587 208.085 27.6105C208.694 28.0685 209.566 27.943 210.024 27.3344L211.706 25.088C212.377 24.2096 213.13 23.8833 213.494 23.7892C214.303 23.5758 216.738 22.666 218.043 21.8817C219.342 21.0911 220.013 19.2589 219.944 17.6839L216.06 13.8187L207.815 16.3788C206.811 16.7176 206.447 17.2886 206.297 17.6275C206.146 17.9726 204.502 21.8378 204.502 21.8378C204.314 22.3209 204.207 22.8982 204.483 23.3876C204.759 23.877 205.387 24.8559 205.387 24.8559L207.2 23.0488C207.2 23.0488 207.131 22.0511 207.363 21.5366C207.602 21.0283 207.853 20.1812 208.393 19.9867C208.926 19.7985 209.861 19.4973 209.861 19.4973C209.861 19.4973 209.779 20.564 209.967 21.135C210.162 21.706 210.457 22.0448 210.457 22.0448" fill="#629D5E"/>
<path d="M208.913 28.4826C208.487 28.4826 208.072 28.3446 207.727 28.0873C207.301 27.7736 207.025 27.3093 206.949 26.7885C206.88 26.2677 207.012 25.7469 207.332 25.3265L209.76 22.0825C209.641 21.8879 209.509 21.637 209.403 21.3232C209.309 21.0283 209.265 20.6581 209.252 20.3255C209.02 20.4008 208.782 20.4824 208.593 20.5452C208.399 20.6142 208.167 21.1726 208.041 21.4675L207.909 21.7875C207.79 22.0385 207.771 22.6535 207.796 23.0111C207.809 23.1805 207.746 23.3499 207.627 23.4692L205.807 25.2763C205.682 25.4018 205.5 25.4645 205.324 25.4457C205.142 25.4269 204.985 25.3265 204.885 25.1759C204.885 25.1759 204.245 24.1782 203.963 23.6825C203.643 23.1115 203.636 22.415 203.95 21.6181C203.956 21.6056 205.6 17.7341 205.751 17.3953C206.071 16.6674 206.717 16.1215 207.621 15.8141L215.878 13.254C216.092 13.185 216.324 13.2414 216.481 13.3983L220.371 17.2698C220.478 17.3765 220.534 17.5145 220.54 17.6651C220.609 19.2651 219.95 21.4236 218.35 22.3836C216.995 23.2056 214.535 24.128 213.644 24.3664C213.513 24.3978 212.822 24.6112 212.182 25.4457L210.501 27.692C210.181 28.1124 209.723 28.3885 209.196 28.4638C209.102 28.4764 209.007 28.4826 208.913 28.4826ZM209.867 18.9075C209.999 18.9075 210.131 18.9514 210.231 19.033C210.388 19.1585 210.476 19.3467 210.457 19.5475C210.432 19.9114 210.425 20.6142 210.538 20.9467C210.683 21.3922 210.909 21.6621 210.915 21.6621C211.147 21.8628 211.166 22.1891 210.978 22.4401L208.286 26.0355C208.154 26.2049 208.104 26.412 208.135 26.619C208.16 26.8261 208.273 27.0144 208.443 27.1336C208.612 27.2653 208.819 27.3093 209.026 27.2904C209.233 27.2591 209.422 27.1461 209.547 26.983L211.229 24.7304C212.088 23.6135 213.061 23.2872 213.343 23.2182C214.059 23.0299 216.468 22.1389 217.729 21.3734C218.802 20.7271 219.342 19.2024 219.354 17.9349L215.891 14.4964L207.991 16.9435C207.42 17.138 207.025 17.4517 206.843 17.8659C206.692 18.211 205.054 22.0699 205.054 22.0699C204.885 22.5029 204.866 22.8542 205.004 23.0927C205.123 23.3123 205.318 23.626 205.494 23.9084L206.598 22.8166C206.592 22.4276 206.61 21.7562 206.824 21.2918L206.943 21.0158C207.175 20.451 207.501 19.673 208.192 19.4283C208.731 19.24 209.679 18.9326 209.679 18.9326C209.742 18.9137 209.804 18.9075 209.867 18.9075Z" fill="black"/>
<path d="M194.369 44.7H195.881C196.373 44.7 196.742 44.832 196.988 45.096C197.234 45.36 197.357 45.747 197.357 46.257V49.443C197.357 49.953 197.234 50.34 196.988 50.604C196.742 50.868 196.373 51 195.881 51H194.369V44.7ZM195.863 50.1C196.025 50.1 196.148 50.052 196.232 49.956C196.322 49.86 196.367 49.704 196.367 49.488V46.212C196.367 45.996 196.322 45.84 196.232 45.744C196.148 45.648 196.025 45.6 195.863 45.6H195.359V50.1H195.863ZM198.025 44.7H200.725V45.6H199.015V47.265H200.374V48.165H199.015V50.1H200.725V51H198.025V44.7ZM199.465 43.242H200.545L199.582 44.277H198.835L199.465 43.242ZM202.69 51.09C202.216 51.09 201.853 50.955 201.601 50.685C201.355 50.415 201.232 50.034 201.232 49.542V46.158C201.232 45.666 201.355 45.285 201.601 45.015C201.853 44.745 202.216 44.61 202.69 44.61C203.164 44.61 203.524 44.745 203.77 45.015C204.022 45.285 204.148 45.666 204.148 46.158V46.824H203.212V46.095C203.212 45.705 203.047 45.51 202.717 45.51C202.387 45.51 202.222 45.705 202.222 46.095V49.614C202.222 49.998 202.387 50.19 202.717 50.19C203.047 50.19 203.212 49.998 203.212 49.614V48.651H204.148V49.542C204.148 50.034 204.022 50.415 203.77 50.685C203.524 50.955 203.164 51.09 202.69 51.09ZM204.74 44.7H205.73V47.265H206.792V44.7H207.782V51H206.792V48.165H205.73V51H204.74V44.7ZM208.519 44.7H211.219V45.6H209.509V47.265H210.868V48.165H209.509V50.1H211.219V51H208.519V44.7ZM208.699 43.242H209.779L210.409 44.277H209.662L208.699 43.242ZM212.563 45.6H211.528V44.7H214.588V45.6H213.553V51H212.563V45.6ZM215.067 44.7H217.767V45.6H216.057V47.265H217.416V48.165H216.057V50.1H217.767V51H215.067V44.7ZM218.337 44.7H219.804C220.314 44.7 220.686 44.82 220.92 45.06C221.154 45.294 221.271 45.657 221.271 46.149V46.536C221.271 47.19 221.055 47.604 220.623 47.778V47.796C220.863 47.868 221.031 48.015 221.127 48.237C221.229 48.459 221.28 48.756 221.28 49.128V50.235C221.28 50.415 221.286 50.562 221.298 50.676C221.31 50.784 221.34 50.892 221.388 51H220.38C220.344 50.898 220.32 50.802 220.308 50.712C220.296 50.622 220.29 50.46 220.29 50.226V49.074C220.29 48.786 220.242 48.585 220.146 48.471C220.056 48.357 219.897 48.3 219.669 48.3H219.327V51H218.337V44.7ZM219.687 47.4C219.885 47.4 220.032 47.349 220.128 47.247C220.23 47.145 220.281 46.974 220.281 46.734V46.248C220.281 46.02 220.239 45.855 220.155 45.753C220.077 45.651 219.951 45.6 219.777 45.6H219.327V47.4H219.687ZM221.967 44.7H222.957V51H221.967V44.7ZM223.698 44.7H226.398V45.6H224.688V47.265H226.047V48.165H224.688V50.1H226.398V51H223.698V44.7Z" fill="black"/>
</g>
<defs>
<clipPath id="clip0_66_4163">
<rect width="240" height="61" fill="white"/>
</clipPath>
</defs>
</svg>
