<svg width="332" height="61" viewBox="0 0 332 61" fill="none" xmlns="http://www.w3.org/2000/svg">
<g clip-path="url(#clip0_72_4293)">
<path d="M24.6979 60.4688C11.0781 60.4688 0 49.5208 0 36.0625V0H306.948C320.563 0 331.641 10.9479 331.641 24.4062V60.4688" fill="white"/>
<path d="M244.083 52.9114H69.1353C59.6874 52.9114 51.9999 45.3541 51.9999 36.0625V7.55725H226.948C236.396 7.55725 244.083 15.1145 244.083 24.4062V52.9114ZM227 6L50.1667 5.66663L50.1145 36.0625C50.1145 46.3958 58.6458 54.802 69.1353 54.802L245.969 55V24.4062C245.969 14.0729 237.49 6 227 6Z" fill="#010101"/>
<path d="M102.901 5.66663H50.1145V36.0625C50.1145 46.3958 58.6458 54.802 69.1353 54.802H121.927V24.4062C121.927 14.0729 113.391 5.66663 102.901 5.66663Z" fill="#010101"/>
<path d="M63.651 29.3594C58.8489 29.3594 54.9583 33.25 54.9583 38.0521C54.9583 42.8542 58.8489 46.7448 63.651 46.7448C68.4583 46.7448 72.3489 42.8542 72.3489 38.0521C72.3489 33.25 68.4583 29.3594 63.651 29.3594Z" fill="white"/>
<path d="M69.3229 39.4688H65.0729V43.7188H62.2344V39.4688H57.9844V36.6355H62.2344V32.3802H65.0729V36.6355H69.3229" fill="#1C1C1B"/>
<path d="M55.7864 26.5937V17.1979H58.2708V24.5156H61.828V26.5937" fill="white"/>
<path d="M62.9426 26.5937V17.1979H69.0155V19.276H65.4322V20.7552H68.4947V22.8385H65.4322V24.5156H69.1614V26.5937" fill="white"/>
<path d="M75.0885 26.5937V19.276H72.6041V17.1979H80.0677V19.276H77.5781V26.5937" fill="white"/>
<path d="M83.5521 21.4739H84.4479C85.4479 21.4739 85.9531 21.0625 85.9531 20.2343C85.9531 19.8281 85.8229 19.5468 85.5677 19.3958C85.3125 19.2395 84.9375 19.1614 84.4479 19.1614H83.5521V21.4739ZM81.0625 26.5989V17.1979H84.6198C85.125 17.1979 85.6042 17.2448 86.0625 17.3385C86.5208 17.4375 86.9167 17.5989 87.2604 17.8333C87.6042 18.0625 87.875 18.375 88.0781 18.7656C88.2813 19.1562 88.3802 19.6458 88.3802 20.2343C88.3802 20.9062 88.2448 21.4687 87.9688 21.9114C87.6979 22.3541 87.3281 22.6979 86.8646 22.9531L88.901 26.5989H86.125L84.5052 23.4427H83.5521V26.5989" fill="white"/>
<path d="M89.8698 26.5989H92.3593V17.1979H89.8698V26.5989Z" fill="white"/>
<path d="M75.3801 43.276V33.8698H81.5103V35.9531H77.8697V37.75H80.9895V39.8333H77.8697V43.276" fill="white"/>
<path d="M84.9218 38.7031L84.7604 39.3541H86.4948L86.3385 38.7031C86.2239 38.25 86.1041 37.7604 85.9895 37.2291C85.875 36.6979 85.7604 36.1979 85.6406 35.7239H85.5833C85.4791 36.2031 85.3698 36.7083 85.2604 37.2343C85.151 37.7604 85.0364 38.25 84.9218 38.7031ZM81.3073 43.276L84.1666 33.8698H87.1718L90.0364 43.276H87.4062L86.9427 41.276H84.3125L83.8489 43.276" fill="white"/>
<path d="M94.5624 43.4479C93.9687 43.4479 93.3958 43.3489 92.8541 43.151C92.3072 42.9531 91.8333 42.651 91.4218 42.2552C91.0103 41.8541 90.6822 41.3541 90.4426 40.75C90.203 40.1458 90.0833 39.4479 90.0833 38.6458C90.0833 37.8541 90.2083 37.151 90.4583 36.5416C90.7083 35.927 91.0416 35.4114 91.4635 34.9948C91.8801 34.5729 92.3645 34.25 92.9114 34.0312C93.4583 33.8073 94.026 33.6979 94.6249 33.6979C95.2499 33.6979 95.8124 33.8229 96.302 34.0677C96.7968 34.3125 97.2083 34.6041 97.5468 34.9427L96.2447 36.5312C96.0155 36.3333 95.776 36.1666 95.5312 36.0312C95.2812 35.9062 94.9999 35.8385 94.6822 35.8385C94.401 35.8385 94.1405 35.901 93.8958 36.026C93.651 36.151 93.4322 36.3333 93.2447 36.5625C93.0572 36.7916 92.9062 37.0781 92.7968 37.4166C92.6822 37.75 92.6301 38.1354 92.6301 38.5573C92.6301 39.4479 92.8124 40.125 93.1874 40.5989C93.5572 41.0677 94.0468 41.3073 94.651 41.3073C95.0208 41.3073 95.3437 41.2291 95.6301 41.0677C95.9114 40.9062 96.1562 40.7187 96.3593 40.4948L97.6614 42.0573C97.2551 42.5208 96.7916 42.8698 96.2655 43.0989C95.7395 43.3333 95.1718 43.4479 94.5624 43.4479Z" fill="white"/>
<path d="M98.6198 43.276H101.104V33.8698H98.6198V43.276Z" fill="white"/>
<path d="M102.875 43.276V33.8698H105.365V41.1927H108.922V43.276" fill="white"/>
<path d="M110.031 43.276V33.8698H116.109V35.9531H112.521V37.4323H115.589V39.5156H112.521V41.1927H116.255V43.276" fill="white"/>
<path fill-rule="evenodd" clip-rule="evenodd" d="M16.2604 29.1927C16.2604 29.1927 15.9115 29.151 15.6771 29.7968L13.5573 35.7083C15.224 37.1198 17.1823 38.1823 19.3281 38.8073L16.7552 29.7708C16.5781 29.125 16.2604 29.1927 16.2604 29.1927ZM5.67188 23.6979C5.67188 13.7552 13.7604 5.66663 23.7031 5.66663C28.9635 5.66663 33.7083 7.93225 37.0052 11.5364L35.3906 13.177C32.5104 9.97913 28.3385 7.9635 23.7031 7.9635C15.026 7.9635 7.96875 15.0208 7.96875 23.6979C7.96875 27.5208 9.34375 31.0312 11.6198 33.7604L14.2656 20.7968C14.7396 18.5104 16.8854 16.7552 19.0521 17.1562C20.6406 17.4583 28.0938 22.3958 28.0938 22.3958C28.7292 22.802 28.375 23.3489 28.375 23.3489C28.375 23.3489 28.0729 23.875 27.4479 23.6041L21.9792 21.4062C21.0052 20.9948 19.4323 21.4323 19.6667 24.1875L21.3802 38.7864L21.4531 39.2656C22.1875 39.375 22.9375 39.4323 23.7031 39.4323C24.1875 39.4323 24.6719 39.401 25.1458 39.3541L25.0052 37.4531L28.6979 40.2708L25.3958 43.4635L25.276 41.651C24.7552 41.6979 24.2344 41.7291 23.7031 41.7291C13.7604 41.7291 5.67188 33.6406 5.67188 23.6979ZM19.9375 16.4115C18.4167 16.4115 17.1875 15.1823 17.1875 13.6562C17.1875 12.1354 18.4167 10.9062 19.9375 10.9062C21.4583 10.9062 22.6927 12.1354 22.6927 13.6562C22.6927 15.1823 21.4583 16.4115 19.9375 16.4115ZM37.1046 24.564C37.7365 24.0543 39.7005 22.4703 40.1613 19.1927L40.2342 18.1823L42.0519 18.2864L38.0259 12.8541L33.2134 17.6927L34.979 17.7656L34.9998 17.7708C35.0415 17.9687 35.2446 19.2656 34.5571 21.3177C33.7967 23.6041 31.4373 26.2916 28.4634 25.8177C32.6457 27.5677 36.0311 25.4375 37.0936 24.5729L37.1046 24.564ZM28.375 25.8489C29.5781 28.6093 33.1146 29.1406 35.4479 28.552C37.5208 28.026 38.5052 27.1718 38.6719 27.0156L38.6615 27L37.776 25.4635L44.4427 26.9218L42.0312 33.2395L41.1354 31.6458L40.2656 32.1198C37.2654 33.4985 34.8744 32.7065 34.0978 32.4492L34.0781 32.4427C32.7812 32.0156 29.1562 30.3125 28.375 25.8489ZM28.4062 25.7448C26.7135 28.2343 28.151 31.5104 29.8958 33.1718C31.4895 34.6823 32.7655 35.0364 32.9322 35.0781L33.7447 33.5208L36.0885 39.9323L29.4635 41.2812L30.3437 39.6458L29.4478 39.1458C26.6887 37.3493 26.0817 34.9168 25.8818 34.1162L25.8749 34.0885C25.5416 32.7604 25.0468 28.7864 28.4062 25.7448Z" fill="#010101"/>
<path d="M129.55 14.146H133.939V15.444H131.134V17.292H133.774V18.59H131.134V22H129.55V14.146ZM136.061 18.073C136.061 18.601 136.072 19.052 136.094 19.426C136.123 19.7927 136.174 20.0933 136.248 20.328C136.328 20.5553 136.438 20.724 136.578 20.834C136.724 20.9367 136.915 20.988 137.15 20.988C137.384 20.988 137.571 20.9367 137.711 20.834C137.857 20.724 137.967 20.5553 138.041 20.328C138.121 20.0933 138.173 19.7927 138.195 19.426C138.224 19.052 138.239 18.601 138.239 18.073C138.239 17.545 138.224 17.0977 138.195 16.731C138.173 16.3643 138.121 16.0637 138.041 15.829C137.967 15.5943 137.857 15.4257 137.711 15.323C137.571 15.213 137.384 15.158 137.15 15.158C136.915 15.158 136.724 15.213 136.578 15.323C136.438 15.4257 136.328 15.5943 136.248 15.829C136.174 16.0637 136.123 16.3643 136.094 16.731C136.072 17.0977 136.061 17.545 136.061 18.073ZM134.477 18.073C134.477 17.479 134.502 16.9327 134.554 16.434C134.612 15.928 134.733 15.4953 134.917 15.136C135.107 14.7767 135.379 14.498 135.731 14.3C136.083 14.0947 136.556 13.992 137.15 13.992C137.744 13.992 138.217 14.0947 138.569 14.3C138.921 14.498 139.188 14.7767 139.372 15.136C139.562 15.4953 139.683 15.928 139.735 16.434C139.793 16.9327 139.823 17.479 139.823 18.073C139.823 18.6743 139.793 19.2243 139.735 19.723C139.683 20.2217 139.562 20.6507 139.372 21.01C139.188 21.3693 138.921 21.6443 138.569 21.835C138.217 22.0257 137.744 22.121 137.15 22.121C136.556 22.121 136.083 22.0257 135.731 21.835C135.379 21.6443 135.107 21.3693 134.917 21.01C134.733 20.6507 134.612 20.2217 134.554 19.723C134.502 19.2243 134.477 18.6743 134.477 18.073ZM142.239 14.146V19.624C142.239 19.822 142.25 20.0053 142.272 20.174C142.301 20.3353 142.349 20.4783 142.415 20.603C142.488 20.7203 142.584 20.8157 142.701 20.889C142.826 20.955 142.98 20.988 143.163 20.988C143.354 20.988 143.508 20.955 143.625 20.889C143.742 20.8157 143.834 20.7203 143.9 20.603C143.973 20.4783 144.021 20.3353 144.043 20.174C144.072 20.0053 144.087 19.822 144.087 19.624V14.146H145.671V19.624C145.671 20.1227 145.601 20.537 145.462 20.867C145.323 21.1897 145.136 21.4463 144.901 21.637C144.666 21.8277 144.399 21.956 144.098 22.022C143.797 22.088 143.486 22.121 143.163 22.121C142.84 22.121 142.529 22.0917 142.228 22.033C141.927 21.9743 141.66 21.857 141.425 21.681C141.19 21.4977 141.003 21.241 140.864 20.911C140.725 20.581 140.655 20.152 140.655 19.624V14.146H142.239ZM146.673 14.146H149.599C150.259 14.146 150.772 14.3147 151.139 14.652C151.506 14.982 151.689 15.488 151.689 16.17C151.689 16.698 151.583 17.1307 151.37 17.468C151.157 17.798 150.827 18.0107 150.38 18.106V18.128C150.776 18.1867 151.066 18.315 151.249 18.513C151.432 18.711 151.546 19.03 151.59 19.47C151.605 19.6167 151.616 19.778 151.623 19.954C151.63 20.1227 151.638 20.3133 151.645 20.526C151.66 20.944 151.682 21.263 151.711 21.483C151.755 21.703 151.85 21.8533 151.997 21.934V22H150.281C150.2 21.89 150.149 21.7653 150.127 21.626C150.105 21.4793 150.09 21.329 150.083 21.175L150.039 19.668C150.024 19.36 149.947 19.118 149.808 18.942C149.669 18.766 149.434 18.678 149.104 18.678H148.257V22H146.673V14.146ZM148.257 17.578H148.917C149.298 17.578 149.592 17.49 149.797 17.314C150.002 17.1307 150.105 16.8263 150.105 16.401C150.105 15.675 149.738 15.312 149.005 15.312H148.257V17.578ZM154.611 14.146L156.525 19.525H156.547V14.146H157.999V22H156.195L154.259 16.5H154.237V22H152.785V14.146H154.611ZM159.179 22V14.146H160.763V22H159.179ZM166.536 14.146V15.444H164.82V22H163.236V15.444H161.52V14.146H166.536ZM168.708 14.146V19.624C168.708 19.822 168.719 20.0053 168.741 20.174C168.77 20.3353 168.818 20.4783 168.884 20.603C168.957 20.7203 169.053 20.8157 169.17 20.889C169.295 20.955 169.449 20.988 169.632 20.988C169.823 20.988 169.977 20.955 170.094 20.889C170.211 20.8157 170.303 20.7203 170.369 20.603C170.442 20.4783 170.49 20.3353 170.512 20.174C170.541 20.0053 170.556 19.822 170.556 19.624V14.146H172.14V19.624C172.14 20.1227 172.07 20.537 171.931 20.867C171.792 21.1897 171.605 21.4463 171.37 21.637C171.135 21.8277 170.868 21.956 170.567 22.022C170.266 22.088 169.955 22.121 169.632 22.121C169.309 22.121 168.998 22.0917 168.697 22.033C168.396 21.9743 168.129 21.857 167.894 21.681C167.659 21.4977 167.472 21.241 167.333 20.911C167.194 20.581 167.124 20.152 167.124 19.624V14.146H168.708ZM173.142 14.146H176.068C176.728 14.146 177.241 14.3147 177.608 14.652C177.974 14.982 178.158 15.488 178.158 16.17C178.158 16.698 178.051 17.1307 177.839 17.468C177.626 17.798 177.296 18.0107 176.849 18.106V18.128C177.245 18.1867 177.534 18.315 177.718 18.513C177.901 18.711 178.015 19.03 178.059 19.47C178.073 19.6167 178.084 19.778 178.092 19.954C178.099 20.1227 178.106 20.3133 178.114 20.526C178.128 20.944 178.15 21.263 178.18 21.483C178.224 21.703 178.319 21.8533 178.466 21.934V22H176.75C176.669 21.89 176.618 21.7653 176.596 21.626C176.574 21.4793 176.559 21.329 176.552 21.175L176.508 19.668C176.493 19.36 176.416 19.118 176.277 18.942C176.137 18.766 175.903 18.678 175.573 18.678H174.726V22H173.142V14.146ZM174.726 17.578H175.386C175.767 17.578 176.06 17.49 176.266 17.314C176.471 17.1307 176.574 16.8263 176.574 16.401C176.574 15.675 176.207 15.312 175.474 15.312H174.726V17.578ZM183.643 14.146V15.444H180.838V17.292H183.478V18.59H180.838V20.702H183.753V22H179.254V14.146H183.643ZM130.826 32.547V32.778C130.826 32.9613 130.841 33.13 130.87 33.284C130.899 33.4307 130.954 33.5553 131.035 33.658C131.116 33.7607 131.222 33.8413 131.354 33.9C131.493 33.9587 131.666 33.988 131.871 33.988C132.113 33.988 132.329 33.911 132.52 33.757C132.718 33.5957 132.817 33.35 132.817 33.02C132.817 32.844 132.791 32.6937 132.74 32.569C132.696 32.437 132.619 32.3197 132.509 32.217C132.399 32.1143 132.252 32.0227 132.069 31.942C131.893 31.854 131.673 31.766 131.409 31.678C131.057 31.5607 130.753 31.4323 130.496 31.293C130.239 31.1537 130.023 30.9923 129.847 30.809C129.678 30.6183 129.554 30.402 129.473 30.16C129.392 29.9107 129.352 29.6247 129.352 29.302C129.352 28.5247 129.568 27.9453 130.001 27.564C130.434 27.1827 131.028 26.992 131.783 26.992C132.135 26.992 132.458 27.0323 132.751 27.113C133.052 27.1863 133.308 27.311 133.521 27.487C133.741 27.6557 133.91 27.8757 134.027 28.147C134.152 28.411 134.214 28.73 134.214 29.104V29.324H132.696C132.696 28.95 132.63 28.664 132.498 28.466C132.366 28.2607 132.146 28.158 131.838 28.158C131.662 28.158 131.515 28.1837 131.398 28.235C131.281 28.2863 131.185 28.356 131.112 28.444C131.046 28.5247 130.998 28.62 130.969 28.73C130.947 28.84 130.936 28.9537 130.936 29.071C130.936 29.313 130.987 29.5183 131.09 29.687C131.193 29.8483 131.413 29.9987 131.75 30.138L132.971 30.666C133.272 30.798 133.517 30.9373 133.708 31.084C133.899 31.2233 134.049 31.3773 134.159 31.546C134.276 31.7073 134.357 31.887 134.401 32.085C134.445 32.283 134.467 32.503 134.467 32.745C134.467 33.5737 134.225 34.1787 133.741 34.56C133.264 34.934 132.597 35.121 131.739 35.121C130.844 35.121 130.203 34.9267 129.814 34.538C129.433 34.1493 129.242 33.592 129.242 32.866V32.547H130.826ZM138.609 29.797C138.609 29.225 138.539 28.8107 138.4 28.554C138.268 28.29 138.022 28.158 137.663 28.158C137.465 28.158 137.3 28.213 137.168 28.323C137.043 28.4257 136.944 28.598 136.871 28.84C136.798 29.0747 136.746 29.3863 136.717 29.775C136.688 30.1563 136.673 30.6257 136.673 31.183C136.673 31.777 136.691 32.2573 136.728 32.624C136.772 32.9907 136.834 33.2767 136.915 33.482C137.003 33.68 137.109 33.8157 137.234 33.889C137.366 33.955 137.516 33.988 137.685 33.988C137.824 33.988 137.953 33.966 138.07 33.922C138.195 33.8707 138.301 33.7753 138.389 33.636C138.477 33.4893 138.547 33.2877 138.598 33.031C138.649 32.767 138.675 32.4223 138.675 31.997H140.259C140.259 32.4223 140.226 32.8257 140.16 33.207C140.094 33.5883 139.969 33.922 139.786 34.208C139.61 34.494 139.357 34.7177 139.027 34.879C138.704 35.0403 138.283 35.121 137.762 35.121C137.168 35.121 136.695 35.0257 136.343 34.835C135.991 34.6443 135.72 34.3693 135.529 34.01C135.346 33.6507 135.225 33.2217 135.166 32.723C135.115 32.2243 135.089 31.6743 135.089 31.073C135.089 30.479 135.115 29.9327 135.166 29.434C135.225 28.928 135.346 28.4953 135.529 28.136C135.72 27.7767 135.991 27.498 136.343 27.3C136.695 27.0947 137.168 26.992 137.762 26.992C138.327 26.992 138.77 27.0837 139.093 27.267C139.423 27.4503 139.669 27.685 139.83 27.971C139.991 28.2497 140.09 28.554 140.127 28.884C140.171 29.2067 140.193 29.511 140.193 29.797H138.609ZM142.581 31.073C142.581 31.601 142.592 32.052 142.614 32.426C142.644 32.7927 142.695 33.0933 142.768 33.328C142.849 33.5553 142.959 33.724 143.098 33.834C143.245 33.9367 143.436 33.988 143.67 33.988C143.905 33.988 144.092 33.9367 144.231 33.834C144.378 33.724 144.488 33.5553 144.561 33.328C144.642 33.0933 144.693 32.7927 144.715 32.426C144.745 32.052 144.759 31.601 144.759 31.073C144.759 30.545 144.745 30.0977 144.715 29.731C144.693 29.3643 144.642 29.0637 144.561 28.829C144.488 28.5943 144.378 28.4257 144.231 28.323C144.092 28.213 143.905 28.158 143.67 28.158C143.436 28.158 143.245 28.213 143.098 28.323C142.959 28.4257 142.849 28.5943 142.768 28.829C142.695 29.0637 142.644 29.3643 142.614 29.731C142.592 30.0977 142.581 30.545 142.581 31.073ZM140.997 31.073C140.997 30.479 141.023 29.9327 141.074 29.434C141.133 28.928 141.254 28.4953 141.437 28.136C141.628 27.7767 141.899 27.498 142.251 27.3C142.603 27.0947 143.076 26.992 143.67 26.992C144.264 26.992 144.737 27.0947 145.089 27.3C145.441 27.498 145.709 27.7767 145.892 28.136C146.083 28.4953 146.204 28.928 146.255 29.434C146.314 29.9327 146.343 30.479 146.343 31.073C146.343 31.6743 146.314 32.2243 146.255 32.723C146.204 33.2217 146.083 33.6507 145.892 34.01C145.709 34.3693 145.441 34.6443 145.089 34.835C144.737 35.0257 144.264 35.121 143.67 35.121C143.076 35.121 142.603 35.0257 142.251 34.835C141.899 34.6443 141.628 34.3693 141.437 34.01C141.254 33.6507 141.133 33.2217 141.074 32.723C141.023 32.2243 140.997 31.6743 140.997 31.073ZM147.275 35V27.146H148.859V33.702H151.664V35H147.275ZM155.644 32.041L154.885 28.51H154.863L154.104 32.041H155.644ZM155.853 27.146L157.932 35H156.282L155.919 33.339H153.829L153.466 35H151.816L153.895 27.146H155.853ZM158.556 35V27.146H160.14V35H158.556ZM161.315 27.146H164.241C164.901 27.146 165.414 27.3147 165.781 27.652C166.147 27.982 166.331 28.488 166.331 29.17C166.331 29.698 166.224 30.1307 166.012 30.468C165.799 30.798 165.469 31.0107 165.022 31.106V31.128C165.418 31.1867 165.707 31.315 165.891 31.513C166.074 31.711 166.188 32.03 166.232 32.47C166.246 32.6167 166.257 32.778 166.265 32.954C166.272 33.1227 166.279 33.3133 166.287 33.526C166.301 33.944 166.323 34.263 166.353 34.483C166.397 34.703 166.492 34.8533 166.639 34.934V35H164.923C164.842 34.89 164.791 34.7653 164.769 34.626C164.747 34.4793 164.732 34.329 164.725 34.175L164.681 32.668C164.666 32.36 164.589 32.118 164.45 31.942C164.31 31.766 164.076 31.678 163.746 31.678H162.899V35H161.315V27.146ZM162.899 30.578H163.559C163.94 30.578 164.233 30.49 164.439 30.314C164.644 30.1307 164.747 29.8263 164.747 29.401C164.747 28.675 164.38 28.312 163.647 28.312H162.899V30.578ZM171.816 27.146V28.444H169.011V30.292H171.651V31.59H169.011V33.702H171.926V35H167.427V27.146H171.816ZM130.969 44.073C130.969 44.601 130.98 45.052 131.002 45.426C131.031 45.7927 131.083 46.0933 131.156 46.328C131.237 46.5553 131.347 46.724 131.486 46.834C131.633 46.9367 131.823 46.988 132.058 46.988C132.293 46.988 132.48 46.9367 132.619 46.834C132.766 46.724 132.876 46.5553 132.949 46.328C133.03 46.0933 133.081 45.7927 133.103 45.426C133.132 45.052 133.147 44.601 133.147 44.073C133.147 43.545 133.132 43.0977 133.103 42.731C133.081 42.3643 133.03 42.0637 132.949 41.829C132.876 41.5943 132.766 41.4257 132.619 41.323C132.48 41.213 132.293 41.158 132.058 41.158C131.823 41.158 131.633 41.213 131.486 41.323C131.347 41.4257 131.237 41.5943 131.156 41.829C131.083 42.0637 131.031 42.3643 131.002 42.731C130.98 43.0977 130.969 43.545 130.969 44.073ZM129.385 44.073C129.385 43.479 129.411 42.9327 129.462 42.434C129.521 41.928 129.642 41.4953 129.825 41.136C130.016 40.7767 130.287 40.498 130.639 40.3C130.991 40.0947 131.464 39.992 132.058 39.992C132.652 39.992 133.125 40.0947 133.477 40.3C133.829 40.498 134.097 40.7767 134.28 41.136C134.471 41.4953 134.592 41.928 134.643 42.434C134.702 42.9327 134.731 43.479 134.731 44.073C134.731 44.6743 134.702 45.2243 134.643 45.723C134.592 46.2217 134.471 46.6507 134.28 47.01C134.097 47.3693 133.829 47.6443 133.477 47.835C133.125 48.0257 132.652 48.121 132.058 48.121C131.464 48.121 130.991 48.0257 130.639 47.835C130.287 47.6443 130.016 47.3693 129.825 47.01C129.642 46.6507 129.521 46.2217 129.462 45.723C129.411 45.2243 129.385 44.6743 129.385 44.073ZM137.147 40.146V45.624C137.147 45.822 137.158 46.0053 137.18 46.174C137.21 46.3353 137.257 46.4783 137.323 46.603C137.397 46.7203 137.492 46.8157 137.609 46.889C137.734 46.955 137.888 46.988 138.071 46.988C138.262 46.988 138.416 46.955 138.533 46.889C138.651 46.8157 138.742 46.7203 138.808 46.603C138.882 46.4783 138.929 46.3353 138.951 46.174C138.981 46.0053 138.995 45.822 138.995 45.624V40.146H140.579V45.624C140.579 46.1227 140.51 46.537 140.37 46.867C140.231 47.1897 140.044 47.4463 139.809 47.637C139.575 47.8277 139.307 47.956 139.006 48.022C138.706 48.088 138.394 48.121 138.071 48.121C137.749 48.121 137.437 48.0917 137.136 48.033C136.836 47.9743 136.568 47.857 136.333 47.681C136.099 47.4977 135.912 47.241 135.772 46.911C135.633 46.581 135.563 46.152 135.563 45.624V40.146H137.147ZM145.885 46.834H146.589C146.867 46.834 147.091 46.7863 147.26 46.691C147.428 46.5957 147.56 46.438 147.656 46.218C147.758 45.998 147.824 45.7083 147.854 45.349C147.89 44.9897 147.909 44.5423 147.909 44.007C147.909 43.5597 147.894 43.1673 147.865 42.83C147.835 42.4927 147.773 42.214 147.678 41.994C147.59 41.7667 147.454 41.598 147.271 41.488C147.095 41.3707 146.856 41.312 146.556 41.312H145.885V46.834ZM144.301 40.146H146.897C147.447 40.146 147.89 40.2377 148.228 40.421C148.565 40.597 148.825 40.8537 149.009 41.191C149.199 41.521 149.328 41.9207 149.394 42.39C149.46 42.8593 149.493 43.3837 149.493 43.963C149.493 44.6523 149.449 45.2537 149.361 45.767C149.28 46.273 149.137 46.691 148.932 47.021C148.726 47.351 148.451 47.5967 148.107 47.758C147.762 47.9193 147.326 48 146.798 48H144.301V40.146ZM154.929 40.146V41.444H152.124V43.292H154.764V44.59H152.124V46.702H155.039V48H150.54V40.146H154.929ZM160.063 46.834H160.679C161.06 46.834 161.368 46.7497 161.603 46.581C161.837 46.4123 161.955 46.1007 161.955 45.646C161.955 45.4187 161.922 45.2317 161.856 45.085C161.797 44.931 161.713 44.81 161.603 44.722C161.5 44.6267 161.375 44.5607 161.229 44.524C161.082 44.4873 160.921 44.469 160.745 44.469H160.063V46.834ZM160.063 43.369H160.514C160.954 43.369 161.273 43.292 161.471 43.138C161.676 42.9767 161.779 42.709 161.779 42.335C161.779 41.961 161.687 41.697 161.504 41.543C161.32 41.389 161.031 41.312 160.635 41.312H160.063V43.369ZM158.479 40.146H161.13C161.452 40.146 161.749 40.179 162.021 40.245C162.299 40.311 162.538 40.421 162.736 40.575C162.934 40.729 163.088 40.9343 163.198 41.191C163.308 41.4477 163.363 41.763 163.363 42.137C163.363 42.5623 163.264 42.929 163.066 43.237C162.868 43.5377 162.571 43.743 162.175 43.853V43.875C162.615 43.9337 162.963 44.1207 163.22 44.436C163.476 44.7513 163.605 45.173 163.605 45.701C163.605 46.009 163.564 46.3023 163.484 46.581C163.403 46.8597 163.264 47.1053 163.066 47.318C162.875 47.5233 162.622 47.6883 162.307 47.813C161.999 47.9377 161.614 48 161.152 48H158.479V40.146ZM166.076 40.146V45.624C166.076 45.822 166.087 46.0053 166.109 46.174C166.138 46.3353 166.186 46.4783 166.252 46.603C166.325 46.7203 166.421 46.8157 166.538 46.889C166.663 46.955 166.817 46.988 167 46.988C167.191 46.988 167.345 46.955 167.462 46.889C167.579 46.8157 167.671 46.7203 167.737 46.603C167.81 46.4783 167.858 46.3353 167.88 46.174C167.909 46.0053 167.924 45.822 167.924 45.624V40.146H169.508V45.624C169.508 46.1227 169.438 46.537 169.299 46.867C169.16 47.1897 168.973 47.4463 168.738 47.637C168.503 47.8277 168.236 47.956 167.935 48.022C167.634 48.088 167.323 48.121 167 48.121C166.677 48.121 166.366 48.0917 166.065 48.033C165.764 47.9743 165.497 47.857 165.262 47.681C165.027 47.4977 164.84 47.241 164.701 46.911C164.562 46.581 164.492 46.152 164.492 45.624V40.146H166.076ZM170.51 40.146H173.436C174.096 40.146 174.609 40.3147 174.976 40.652C175.343 40.982 175.526 41.488 175.526 42.17C175.526 42.698 175.42 43.1307 175.207 43.468C174.994 43.798 174.664 44.0107 174.217 44.106V44.128C174.613 44.1867 174.903 44.315 175.086 44.513C175.269 44.711 175.383 45.03 175.427 45.47C175.442 45.6167 175.453 45.778 175.46 45.954C175.467 46.1227 175.475 46.3133 175.482 46.526C175.497 46.944 175.519 47.263 175.548 47.483C175.592 47.703 175.687 47.8533 175.834 47.934V48H174.118C174.037 47.89 173.986 47.7653 173.964 47.626C173.942 47.4793 173.927 47.329 173.92 47.175L173.876 45.668C173.861 45.36 173.784 45.118 173.645 44.942C173.506 44.766 173.271 44.678 172.941 44.678H172.094V48H170.51V40.146ZM172.094 43.578H172.754C173.135 43.578 173.429 43.49 173.634 43.314C173.839 43.1307 173.942 42.8263 173.942 42.401C173.942 41.675 173.575 41.312 172.842 41.312H172.094V43.578ZM181.011 40.146V41.444H178.206V43.292H180.846V44.59H178.206V46.702H181.121V48H176.622V40.146H181.011ZM185.196 45.041L184.437 41.51H184.415L183.656 45.041H185.196ZM185.405 40.146L187.484 48H185.834L185.471 46.339H183.381L183.018 48H181.368L183.447 40.146H185.405ZM189.515 40.146V45.624C189.515 45.822 189.526 46.0053 189.548 46.174C189.578 46.3353 189.625 46.4783 189.691 46.603C189.765 46.7203 189.86 46.8157 189.977 46.889C190.102 46.955 190.256 46.988 190.439 46.988C190.63 46.988 190.784 46.955 190.901 46.889C191.019 46.8157 191.11 46.7203 191.176 46.603C191.25 46.4783 191.297 46.3353 191.319 46.174C191.349 46.0053 191.363 45.822 191.363 45.624V40.146H192.947V45.624C192.947 46.1227 192.878 46.537 192.738 46.867C192.599 47.1897 192.412 47.4463 192.177 47.637C191.943 47.8277 191.675 47.956 191.374 48.022C191.074 48.088 190.762 48.121 190.439 48.121C190.117 48.121 189.805 48.0917 189.504 48.033C189.204 47.9743 188.936 47.857 188.701 47.681C188.467 47.4977 188.28 47.241 188.14 46.911C188.001 46.581 187.931 46.152 187.931 45.624V40.146H189.515Z" fill="black"/>
<path d="M211 6H237V55H230H211L224.5 28.5L211 6Z" fill="#010101"/>
<path d="M237 6H308C317.941 6 326 14.0589 326 24V55H237V6Z" fill="black"/>
<rect x="237" y="8" width="31" height="31" fill="black"/>
<path d="M239.881 43.1H240.924L241.722 48H240.952L240.812 47.027V47.041H239.937L239.797 48H239.083L239.881 43.1ZM240.721 46.376L240.378 43.954H240.364L240.028 46.376H240.721ZM243.076 48.07C242.703 48.07 242.42 47.965 242.229 47.755C242.038 47.5403 241.942 47.2347 241.942 46.838V46.558H242.67V46.894C242.67 47.2113 242.803 47.37 243.069 47.37C243.2 47.37 243.298 47.3327 243.363 47.258C243.433 47.1787 243.468 47.0527 243.468 46.88C243.468 46.6747 243.421 46.495 243.328 46.341C243.235 46.1823 243.062 45.9933 242.81 45.774C242.493 45.494 242.271 45.242 242.145 45.018C242.019 44.7893 241.956 44.5327 241.956 44.248C241.956 43.8607 242.054 43.562 242.25 43.352C242.446 43.1373 242.731 43.03 243.104 43.03C243.473 43.03 243.75 43.1373 243.937 43.352C244.128 43.562 244.224 43.8653 244.224 44.262V44.465H243.496V44.213C243.496 44.045 243.463 43.9237 243.398 43.849C243.333 43.7697 243.237 43.73 243.111 43.73C242.854 43.73 242.726 43.8863 242.726 44.199C242.726 44.3763 242.773 44.542 242.866 44.696C242.964 44.85 243.139 45.0367 243.391 45.256C243.713 45.536 243.935 45.7903 244.056 46.019C244.177 46.2477 244.238 46.516 244.238 46.824C244.238 47.2253 244.138 47.5333 243.937 47.748C243.741 47.9627 243.454 48.07 243.076 48.07ZM245.681 48.07C245.307 48.07 245.025 47.965 244.834 47.755C244.642 47.5403 244.547 47.2347 244.547 46.838V46.558H245.275V46.894C245.275 47.2113 245.408 47.37 245.674 47.37C245.804 47.37 245.902 47.3327 245.968 47.258C246.038 47.1787 246.073 47.0527 246.073 46.88C246.073 46.6747 246.026 46.495 245.933 46.341C245.839 46.1823 245.667 45.9933 245.415 45.774C245.097 45.494 244.876 45.242 244.75 45.018C244.624 44.7893 244.561 44.5327 244.561 44.248C244.561 43.8607 244.659 43.562 244.855 43.352C245.051 43.1373 245.335 43.03 245.709 43.03C246.077 43.03 246.355 43.1373 246.542 43.352C246.733 43.562 246.829 43.8653 246.829 44.262V44.465H246.101V44.213C246.101 44.045 246.068 43.9237 246.003 43.849C245.937 43.7697 245.842 43.73 245.716 43.73C245.459 43.73 245.331 43.8863 245.331 44.199C245.331 44.3763 245.377 44.542 245.471 44.696C245.569 44.85 245.744 45.0367 245.996 45.256C246.318 45.536 246.539 45.7903 246.661 46.019C246.782 46.2477 246.843 46.516 246.843 46.824C246.843 47.2253 246.742 47.5333 246.542 47.748C246.346 47.9627 246.059 48.07 245.681 48.07ZM248.397 48.07C248.019 48.07 247.73 47.9627 247.529 47.748C247.328 47.5333 247.228 47.23 247.228 46.838V44.262C247.228 43.87 247.328 43.5667 247.529 43.352C247.73 43.1373 248.019 43.03 248.397 43.03C248.775 43.03 249.064 43.1373 249.265 43.352C249.466 43.5667 249.566 43.87 249.566 44.262V46.838C249.566 47.23 249.466 47.5333 249.265 47.748C249.064 47.9627 248.775 48.07 248.397 48.07ZM248.397 47.37C248.663 47.37 248.796 47.209 248.796 46.887V44.213C248.796 43.891 248.663 43.73 248.397 43.73C248.131 43.73 247.998 43.891 247.998 44.213V46.887C247.998 47.209 248.131 47.37 248.397 47.37ZM251.172 48.07C250.803 48.07 250.521 47.965 250.325 47.755C250.133 47.545 250.038 47.2487 250.038 46.866V44.234C250.038 43.8513 250.133 43.555 250.325 43.345C250.521 43.135 250.803 43.03 251.172 43.03C251.54 43.03 251.82 43.135 252.012 43.345C252.208 43.555 252.306 43.8513 252.306 44.234V44.752H251.578V44.185C251.578 43.8817 251.449 43.73 251.193 43.73C250.936 43.73 250.808 43.8817 250.808 44.185V46.922C250.808 47.2207 250.936 47.37 251.193 47.37C251.449 47.37 251.578 47.2207 251.578 46.922V46.173H252.306V46.866C252.306 47.2487 252.208 47.545 252.012 47.755C251.82 47.965 251.54 48.07 251.172 48.07ZM252.766 43.1H253.536V48H252.766V43.1ZM254.708 43.1H255.751L256.549 48H255.779L255.639 47.027V47.041H254.764L254.624 48H253.91L254.708 43.1ZM255.548 46.376L255.205 43.954H255.191L254.855 46.376H255.548ZM257.203 43.8H256.398V43.1H258.778V43.8H257.973V48H257.203V43.8ZM259.151 43.1H259.921V48H259.151V43.1ZM261.611 48.07C261.233 48.07 260.944 47.9627 260.743 47.748C260.542 47.5333 260.442 47.23 260.442 46.838V44.262C260.442 43.87 260.542 43.5667 260.743 43.352C260.944 43.1373 261.233 43.03 261.611 43.03C261.989 43.03 262.278 43.1373 262.479 43.352C262.68 43.5667 262.78 43.87 262.78 44.262V46.838C262.78 47.23 262.68 47.5333 262.479 47.748C262.278 47.9627 261.989 48.07 261.611 48.07ZM261.611 47.37C261.877 47.37 262.01 47.209 262.01 46.887V44.213C262.01 43.891 261.877 43.73 261.611 43.73C261.345 43.73 261.212 43.891 261.212 44.213V46.887C261.212 47.209 261.345 47.37 261.611 47.37ZM263.301 43.1H264.267L265.016 46.033H265.03V43.1H265.716V48H264.925L264.001 44.423H263.987V48H263.301V43.1Z" fill="white"/>
<path d="M259.01 31.2217H252.203C252.051 31.2217 251.908 31.1627 251.79 31.0615L246.83 26.7763C246.72 26.6835 246.577 26.6329 246.433 26.6329H244.223V23.6636H249.276C249.951 23.6636 250.609 23.9336 251.081 24.4059L254.691 28.0247C254.852 28.185 254.936 28.3959 254.928 28.6236C254.928 28.6827 254.919 28.7333 254.911 28.7839C254.911 28.8008 254.902 28.8176 254.902 28.8261C254.86 28.9779 254.776 29.1129 254.649 29.2141C254.337 29.4925 253.823 29.4587 253.502 29.1382L250.811 26.4473C250.575 26.2111 250.187 26.2111 249.951 26.4473C249.706 26.6919 249.706 27.08 249.951 27.3162L252.642 30.007C253.418 30.7915 254.658 30.8421 255.459 30.1336C255.645 29.9733 255.796 29.7877 255.906 29.5768L259.061 29.5853C259.289 29.5853 259.5 29.6781 259.651 29.8468C259.812 30.0155 259.888 30.2264 259.871 30.4541C259.845 30.8759 259.457 31.2217 259.01 31.2217ZM259.061 28.3621L256.142 28.3537C256.083 27.9066 255.881 27.4764 255.56 27.1559L251.95 23.5371C251.241 22.837 250.271 22.4321 249.276 22.4321H243.616C243.278 22.4321 243 22.7104 243 23.0479V27.2402C243 27.5861 243.278 27.856 243.616 27.856H246.205L250.988 31.9894C251.326 32.2846 251.764 32.4449 252.203 32.4449H259.01C260.107 32.4449 261.026 31.6098 261.094 30.5385C261.128 29.9649 260.942 29.425 260.546 29.0032C260.166 28.5983 259.618 28.3621 259.061 28.3621Z" fill="white"/>
<path d="M252.878 17.7926C253.207 16.8647 253.856 16.2911 254.666 16.232C254.717 16.232 254.767 16.232 254.818 16.232C255.586 16.232 256.328 16.6875 256.716 17.4383C256.826 17.6323 257.036 17.7588 257.264 17.7588C257.492 17.7588 257.694 17.6323 257.804 17.4383C258.226 16.6454 259.036 16.173 259.854 16.232C260.664 16.2911 261.313 16.8647 261.642 17.7926C262.435 20.028 259.289 22.7273 257.264 24.001C255.24 22.7273 252.085 20.028 252.878 17.7926ZM256.952 25.2495C257.045 25.3085 257.155 25.3338 257.264 25.3338C257.374 25.3338 257.484 25.3085 257.576 25.2495C258.251 24.8446 264.156 21.2005 262.798 17.3792C262.309 15.9958 261.237 15.1101 259.947 15.0089C258.943 14.9414 257.956 15.3463 257.264 16.0971C256.572 15.3463 255.586 14.933 254.582 15.0089C253.283 15.1101 252.211 15.9958 251.722 17.3792C250.372 21.2005 256.269 24.8446 256.952 25.2495Z" fill="white"/>
<path d="M275.59 31.07C275.212 31.07 274.923 30.9627 274.722 30.748C274.522 30.5333 274.421 30.23 274.421 29.838V27.262C274.421 26.87 274.522 26.5667 274.722 26.352C274.923 26.1373 275.212 26.03 275.59 26.03C275.968 26.03 276.258 26.1373 276.458 26.352C276.659 26.5667 276.759 26.87 276.759 27.262V29.838C276.759 30.23 276.659 30.5333 276.458 30.748C276.258 30.9627 275.968 31.07 275.59 31.07ZM275.59 30.37C275.856 30.37 275.989 30.209 275.989 29.887V27.213C275.989 26.891 275.856 26.73 275.59 26.73C275.324 26.73 275.191 26.891 275.191 27.213V29.887C275.191 30.209 275.324 30.37 275.59 30.37ZM278.4 31.07C278.027 31.07 277.742 30.965 277.546 30.755C277.35 30.5403 277.252 30.2347 277.252 29.838V26.1H278.022V29.894C278.022 30.062 278.055 30.1833 278.12 30.258C278.19 30.3327 278.288 30.37 278.414 30.37C278.54 30.37 278.636 30.3327 278.701 30.258C278.771 30.1833 278.806 30.062 278.806 29.894V26.1H279.548V29.838C279.548 30.2347 279.45 30.5403 279.254 30.755C279.058 30.965 278.773 31.07 278.4 31.07Z" fill="white"/>
<rect x="286" y="8" width="31" height="31" fill="black"/>
<path fill-rule="evenodd" clip-rule="evenodd" d="M299.109 14.1063C298.715 13.9593 298.442 13.9112 298.26 13.9138C298.076 13.9164 298.017 13.9696 298.005 13.983C297.994 13.9948 297.976 14.0235 297.975 14.1029C297.974 14.1628 297.984 14.2337 298.004 14.3061L300.457 16.7194H302.07C302.35 16.3731 302.982 15.6937 304.041 14.766C304.332 14.5109 304.438 14.3351 304.469 14.2426C304.486 14.1909 304.48 14.1822 304.466 14.1637L304.464 14.1606C304.428 14.1114 304.342 14.0437 304.193 13.9816C304.059 13.9255 303.904 13.8872 303.762 13.8665C303.659 13.8692 303.582 13.8932 303.446 13.9423L303.419 13.9521C303.371 13.9696 303.335 13.9876 303.3 14.0059C303.226 14.0437 303.15 14.0826 302.951 14.1204C302.636 14.1804 302.41 14.185 302.155 14.124C301.99 14.0845 301.808 14.0142 301.587 13.9294C301.511 13.8998 301.429 13.8684 301.342 13.8359L301.34 13.8357C301.335 13.835 301.315 13.8327 301.278 13.8341C301.224 13.8361 301.153 13.8447 301.066 13.86C300.894 13.8904 300.691 13.9409 300.477 13.9945L300.464 13.9977C300.252 14.0505 300.026 14.1067 299.837 14.1369C299.742 14.1519 299.644 14.1628 299.554 14.1606L299.525 14.1602C299.431 14.1593 299.201 14.1571 299.109 14.1063ZM300.242 13.1757C299.947 13.2429 299.406 13.3023 299.406 13.3023C299.09 13.2908 298.86 13.2277 298.667 13.1747C298.513 13.1326 298.383 13.0968 298.251 13.0987C297.953 13.1029 297.694 13.1923 297.508 13.3963C297.321 13.6018 297.262 13.8653 297.259 14.0916C297.257 14.3145 297.307 14.5303 297.37 14.7023L297.402 14.7912L299.578 16.9319C298.757 17.1125 297.88 17.4785 297.072 18.1145C295.533 19.3262 294.301 21.4723 294.126 25.024C294.115 25.2552 294.102 25.4899 294.09 25.7262C294.038 26.698 293.984 27.698 294.004 28.6023C294.029 29.71 294.162 30.7759 294.615 31.5044C295.429 32.813 296.76 33.4463 298.037 33.7444C299.31 34.0416 300.582 34.019 301.369 33.9721C302.089 33.9584 303.275 33.9154 304.49 33.6601C305.701 33.4057 307.004 32.9283 307.895 31.9992C308.611 31.2516 308.855 30.1504 308.929 28.9703C308.987 28.0415 308.943 26.9912 308.898 25.9219L308.898 25.9218L308.898 25.9216C308.886 25.6252 308.873 25.3272 308.863 25.03C308.746 21.692 307.518 19.598 305.98 18.3585C304.982 17.5541 303.871 17.124 302.887 16.9376C303.206 16.5912 303.724 16.0726 304.477 15.4121C304.806 15.1237 305.036 14.8353 305.137 14.5344C305.251 14.1954 305.189 13.8795 305.014 13.6398C304.86 13.4286 304.636 13.2982 304.439 13.216C304.234 13.1306 304.014 13.0793 303.824 13.0539L303.803 13.0511H303.782C303.552 13.0511 303.386 13.1088 303.23 13.1653L303.204 13.1747C303.062 13.2261 302.907 13.282 302.663 13.3284C302.449 13.3691 302.436 13.3656 302.355 13.3435L302.355 13.3435L302.355 13.3435C302.339 13.3391 302.32 13.334 302.297 13.3284C302.176 13.2994 302.051 13.2515 301.854 13.1757C301.847 13.1727 301.833 13.1658 301.815 13.1563C301.723 13.1093 301.511 13 301.269 13C300.911 13 300.568 13.0906 300.362 13.1452C300.314 13.1578 300.273 13.1685 300.242 13.1757ZM297.598 18.7826C296.294 19.8098 295.141 21.7024 294.975 25.0658C294.964 25.3062 294.951 25.5471 294.938 25.7873L294.938 25.7873L294.938 25.7874C294.886 26.7564 294.835 27.7147 294.854 28.5836C294.879 29.6845 295.017 30.5403 295.337 31.0555C295.986 32.0991 297.071 32.6458 298.23 32.9165C299.389 33.1869 300.569 33.1684 301.327 33.1229L301.336 33.1224L301.345 33.1222C302.051 33.1089 303.176 33.0673 304.316 32.828C305.465 32.5867 306.566 32.1565 307.281 31.411C307.778 30.8917 308.009 30.0543 308.08 28.9168C308.136 28.0371 308.094 27.048 308.05 25.9868L308.05 25.9866C308.037 25.6833 308.024 25.3741 308.013 25.0598C307.903 21.9361 306.769 20.0859 305.447 19.0204C304.443 18.2117 303.307 17.8352 302.37 17.7159C303.146 18.5301 304.026 19.349 304.507 19.6446L304.061 20.3687C303.86 20.1673 303.557 19.9036 303.208 19.5994L303.208 19.5994C302.705 19.1614 302.106 18.6395 301.574 18.0991C301.548 18.4454 301.525 18.8325 301.515 19.1999C301.507 19.5164 301.509 19.8104 301.526 20.048C301.534 20.1669 301.546 20.2653 301.56 20.3418C301.567 20.3798 301.574 20.4092 301.581 20.4311C301.587 20.4519 301.591 20.4611 301.591 20.462L301.652 20.7938L300.831 20.8422C300.732 20.6443 300.696 20.3607 300.678 20.1075C300.659 19.8317 300.657 19.5076 300.666 19.1781C300.672 18.9159 300.685 18.6454 300.702 18.3858C300.011 19.0527 299.284 19.6307 298.748 20.0572C298.673 20.1168 298.601 20.1734 298.535 20.227L298.089 19.5029C298.561 19.1737 299.435 18.4574 300.209 17.6831C299.385 17.7926 298.447 18.1141 297.598 18.7826Z" fill="white"/>
<path d="M291.263 43.1H292.397C292.78 43.1 293.067 43.2027 293.258 43.408C293.449 43.6133 293.545 43.9143 293.545 44.311V44.794C293.545 45.1907 293.449 45.4917 293.258 45.697C293.067 45.9023 292.78 46.005 292.397 46.005H292.033V48H291.263V43.1ZM292.397 45.305C292.523 45.305 292.616 45.27 292.677 45.2C292.742 45.13 292.775 45.011 292.775 44.843V44.262C292.775 44.094 292.742 43.975 292.677 43.905C292.616 43.835 292.523 43.8 292.397 43.8H292.033V45.305H292.397ZM295.076 48.07C294.698 48.07 294.409 47.9627 294.208 47.748C294.008 47.5333 293.907 47.23 293.907 46.838V44.262C293.907 43.87 294.008 43.5667 294.208 43.352C294.409 43.1373 294.698 43.03 295.076 43.03C295.454 43.03 295.744 43.1373 295.944 43.352C296.145 43.5667 296.245 43.87 296.245 44.262V46.838C296.245 47.23 296.145 47.5333 295.944 47.748C295.744 47.9627 295.454 48.07 295.076 48.07ZM295.076 47.37C295.342 47.37 295.475 47.209 295.475 46.887V44.213C295.475 43.891 295.342 43.73 295.076 43.73C294.81 43.73 294.677 43.891 294.677 44.213V46.887C294.677 47.209 294.81 47.37 295.076 47.37ZM297.886 48.07C297.513 48.07 297.228 47.965 297.032 47.755C296.836 47.5403 296.738 47.2347 296.738 46.838V43.1H297.508V46.894C297.508 47.062 297.541 47.1833 297.606 47.258C297.676 47.3327 297.774 47.37 297.9 47.37C298.026 47.37 298.122 47.3327 298.187 47.258C298.257 47.1833 298.292 47.062 298.292 46.894V43.1H299.034V46.838C299.034 47.2347 298.936 47.5403 298.74 47.755C298.544 47.965 298.259 48.07 297.886 48.07ZM299.582 43.1H300.744C301.141 43.1 301.43 43.1933 301.612 43.38C301.794 43.562 301.885 43.8443 301.885 44.227V44.423C301.885 44.675 301.843 44.8803 301.759 45.039C301.68 45.1977 301.556 45.312 301.388 45.382V45.396C301.771 45.5267 301.962 45.8673 301.962 46.418V46.838C301.962 47.216 301.862 47.5053 301.661 47.706C301.465 47.902 301.176 48 300.793 48H299.582V43.1ZM300.653 45.095C300.807 45.095 300.922 45.0553 300.996 44.976C301.076 44.8967 301.115 44.7637 301.115 44.577V44.304C301.115 44.1267 301.083 43.9983 301.017 43.919C300.957 43.8397 300.859 43.8 300.723 43.8H300.352V45.095H300.653ZM300.793 47.3C300.929 47.3 301.029 47.265 301.094 47.195C301.16 47.1203 301.192 46.9943 301.192 46.817V46.39C301.192 46.166 301.153 46.012 301.073 45.928C300.999 45.8393 300.873 45.795 300.695 45.795H300.352V47.3H300.793ZM302.412 43.1H304.512V43.8H303.182V45.095H304.239V45.795H303.182V47.3H304.512V48H302.412V43.1ZM304.955 43.1H305.725V47.3H306.992V48H304.955V43.1ZM307.362 43.1H308.132V47.3H309.399V48H307.362V43.1ZM309.768 43.1H311.868V43.8H310.538V45.095H311.595V45.795H310.538V47.3H311.868V48H309.768V43.1Z" fill="white"/>
</g>
<defs>
<clipPath id="clip0_72_4293">
<rect width="332" height="61" fill="white"/>
</clipPath>
</defs>
</svg>
