<svg width="230" height="61" viewBox="0 0 230 61" fill="none" xmlns="http://www.w3.org/2000/svg">
<g clip-path="url(#clip0_72_4458)">
<path d="M24.6979 60.4688C11.0781 60.4688 0 49.5208 0 36.0625V0H204.948C218.563 0 229.641 10.9479 229.641 24.4062V60.4688" fill="white"/>
<path d="M222.083 52.9114H69.1353C59.6874 52.9114 51.9999 45.3541 51.9999 36.0625V7.55725H204.948C214.396 7.55725 222.083 15.1145 222.083 24.4062V52.9114ZM204.948 5.66663H50.1145V36.0625C50.1145 46.3958 58.6458 54.802 69.1353 54.802H223.969V24.4062C223.969 14.0729 215.437 5.66663 204.948 5.66663Z" fill="#6B5B4A"/>
<path d="M166.714 54.802L179.724 28.2239L166.432 5.66663H204.948C215.437 5.66663 223.969 14.0729 223.969 24.4062V54.802" fill="#6B5B4A"/>
<path d="M102.901 5.66663H50.1145V36.0625C50.1145 46.3958 58.6458 54.802 69.1353 54.802H121.927V24.4062C121.927 14.0729 113.391 5.66663 102.901 5.66663Z" fill="#6B5B4A"/>
<path d="M63.651 29.3594C58.8489 29.3594 54.9583 33.25 54.9583 38.0521C54.9583 42.8542 58.8489 46.7448 63.651 46.7448C68.4583 46.7448 72.3489 42.8542 72.3489 38.0521C72.3489 33.25 68.4583 29.3594 63.651 29.3594Z" fill="white"/>
<path d="M69.3229 39.4688H65.0729V43.7188H62.2344V39.4688H57.9844V36.6355H62.2344V32.3802H65.0729V36.6355H69.3229" fill="#1C1C1B"/>
<path d="M55.7864 26.5937V17.1979H58.2708V24.5156H61.828V26.5937" fill="white"/>
<path d="M62.9426 26.5937V17.1979H69.0155V19.276H65.4322V20.7552H68.4947V22.8385H65.4322V24.5156H69.1614V26.5937" fill="white"/>
<path d="M75.0885 26.5937V19.276H72.6041V17.1979H80.0677V19.276H77.5781V26.5937" fill="white"/>
<path d="M83.5521 21.4739H84.4479C85.4479 21.4739 85.9531 21.0625 85.9531 20.2343C85.9531 19.8281 85.8229 19.5468 85.5677 19.3958C85.3125 19.2395 84.9375 19.1614 84.4479 19.1614H83.5521V21.4739ZM81.0625 26.5989V17.1979H84.6198C85.125 17.1979 85.6042 17.2448 86.0625 17.3385C86.5208 17.4375 86.9167 17.5989 87.2604 17.8333C87.6042 18.0625 87.875 18.375 88.0781 18.7656C88.2813 19.1562 88.3802 19.6458 88.3802 20.2343C88.3802 20.9062 88.2448 21.4687 87.9688 21.9114C87.6979 22.3541 87.3281 22.6979 86.8646 22.9531L88.901 26.5989H86.125L84.5052 23.4427H83.5521V26.5989" fill="white"/>
<path d="M89.8698 26.5989H92.3593V17.1979H89.8698V26.5989Z" fill="white"/>
<path d="M75.3801 43.276V33.8698H81.5103V35.9531H77.8697V37.75H80.9895V39.8333H77.8697V43.276" fill="white"/>
<path d="M84.9218 38.7031L84.7604 39.3541H86.4948L86.3385 38.7031C86.2239 38.25 86.1041 37.7604 85.9895 37.2291C85.875 36.6979 85.7604 36.1979 85.6406 35.7239H85.5833C85.4791 36.2031 85.3698 36.7083 85.2604 37.2343C85.151 37.7604 85.0364 38.25 84.9218 38.7031ZM81.3073 43.276L84.1666 33.8698H87.1718L90.0364 43.276H87.4062L86.9427 41.276H84.3125L83.8489 43.276" fill="white"/>
<path d="M94.5624 43.4479C93.9687 43.4479 93.3958 43.3489 92.8541 43.151C92.3072 42.9531 91.8333 42.651 91.4218 42.2552C91.0103 41.8541 90.6822 41.3541 90.4426 40.75C90.203 40.1458 90.0833 39.4479 90.0833 38.6458C90.0833 37.8541 90.2083 37.151 90.4583 36.5416C90.7083 35.927 91.0416 35.4114 91.4635 34.9948C91.8801 34.5729 92.3645 34.25 92.9114 34.0312C93.4583 33.8073 94.026 33.6979 94.6249 33.6979C95.2499 33.6979 95.8124 33.8229 96.302 34.0677C96.7968 34.3125 97.2083 34.6041 97.5468 34.9427L96.2447 36.5312C96.0155 36.3333 95.776 36.1666 95.5312 36.0312C95.2812 35.9062 94.9999 35.8385 94.6822 35.8385C94.401 35.8385 94.1405 35.901 93.8958 36.026C93.651 36.151 93.4322 36.3333 93.2447 36.5625C93.0572 36.7916 92.9062 37.0781 92.7968 37.4166C92.6822 37.75 92.6301 38.1354 92.6301 38.5573C92.6301 39.4479 92.8124 40.125 93.1874 40.5989C93.5572 41.0677 94.0468 41.3073 94.651 41.3073C95.0208 41.3073 95.3437 41.2291 95.6301 41.0677C95.9114 40.9062 96.1562 40.7187 96.3593 40.4948L97.6614 42.0573C97.2551 42.5208 96.7916 42.8698 96.2655 43.0989C95.7395 43.3333 95.1718 43.4479 94.5624 43.4479Z" fill="white"/>
<path d="M98.6198 43.276H101.104V33.8698H98.6198V43.276Z" fill="white"/>
<path d="M102.875 43.276V33.8698H105.365V41.1927H108.922V43.276" fill="white"/>
<path d="M110.031 43.276V33.8698H116.109V35.9531H112.521V37.4323H115.589V39.5156H112.521V41.1927H116.255V43.276" fill="white"/>
<path d="M28.4062 25.7448C26.7135 28.2343 28.151 31.5104 29.8958 33.1718C31.4895 34.6823 32.7655 35.0364 32.9322 35.0781L33.7447 33.5208L36.0885 39.9323L29.4635 41.2812L30.3437 39.6458L29.4478 39.1458C26.6562 37.3281 26.0676 34.8593 25.8749 34.0885C25.5416 32.7604 25.0468 28.7864 28.4062 25.7448Z" fill="#6B5B4A"/>
<path d="M28.375 25.8489C29.5781 28.6093 33.1146 29.1406 35.4479 28.552C37.5208 28.026 38.5052 27.1718 38.6719 27.0156L38.6615 27L37.776 25.4635L44.4427 26.9218L42.0313 33.2395L41.1354 31.6458L40.2656 32.1198C37.2396 33.5104 34.8333 32.6927 34.0781 32.4427C32.7813 32.0156 29.1562 30.3125 28.375 25.8489Z" fill="#6B5B4A"/>
<path d="M40.1613 19.1927C39.6978 22.4895 37.7134 24.0729 37.0936 24.5729C36.0311 25.4375 32.6457 27.5677 28.4634 25.8177C31.4373 26.2916 33.7967 23.6041 34.5571 21.3177C35.2446 19.2656 35.0415 17.9687 34.9998 17.7708L34.979 17.7656L33.2134 17.6927L38.0259 12.8541L42.0519 18.2864L40.2342 18.1823" fill="#6B5B4A"/>
<path fill-rule="evenodd" clip-rule="evenodd" d="M19.9375 16.4115C18.4167 16.4115 17.1875 15.1823 17.1875 13.6563C17.1875 12.1354 18.4167 10.9062 19.9375 10.9062C21.4583 10.9062 22.6927 12.1354 22.6927 13.6563C22.6927 15.1823 21.4583 16.4115 19.9375 16.4115Z" fill="#6B5B4A"/>
<path d="M15.6771 29.7968C15.9115 29.151 16.2604 29.1927 16.2604 29.1927C16.2604 29.1927 16.5781 29.125 16.7552 29.7708L19.3281 38.8073C17.1823 38.1823 15.224 37.1198 13.5573 35.7083L15.6771 29.7968ZM23.7031 5.66663C13.7604 5.66663 5.67188 13.7552 5.67188 23.6979C5.67188 33.6406 13.7604 41.7291 23.7031 41.7291C24.2344 41.7291 24.7552 41.6979 25.276 41.651L25.3958 43.4635L28.6979 40.2708L25.0052 37.4531L25.1458 39.3541C24.6719 39.401 24.1875 39.4323 23.7031 39.4323C22.9375 39.4323 22.1875 39.375 21.4531 39.2656L21.3802 38.7864L19.6667 24.1875C19.4323 21.4323 21.0052 20.9948 21.9792 21.4062L27.4479 23.6041C28.0729 23.875 28.375 23.3489 28.375 23.3489C28.375 23.3489 28.7292 22.802 28.0938 22.3958C28.0938 22.3958 20.6406 17.4583 19.0521 17.1562C16.8854 16.7552 14.7396 18.5104 14.2656 20.7968L11.6198 33.7604C9.34375 31.0312 7.96875 27.5208 7.96875 23.6979C7.96875 15.0208 15.026 7.9635 23.7031 7.9635C28.3385 7.9635 32.5104 9.97913 35.3906 13.177L37.0052 11.5364C33.7083 7.93225 28.9635 5.66663 23.7031 5.66663Z" fill="#6B5B4A"/>
<path fill-rule="evenodd" clip-rule="evenodd" d="M195.184 13.5477C192.848 13.829 190.995 15.7189 190.697 18.1033L190.693 18.1036L190.569 18.8693C190.562 18.8856 190.558 18.9007 190.558 18.914C190.554 18.9403 190.549 18.9665 190.545 18.9927C190.517 19.164 190.489 19.3314 190.515 19.5044L190.513 21.0954C187.452 24.2948 186.633 27.1159 187.139 29.2647C187.309 29.9622 187.62 30.6156 188.051 31.1832C188.482 31.7508 189.024 32.2202 189.642 32.5614C189.922 32.7258 190.213 32.8682 190.513 32.9874L190.511 34.7847L190.513 34.8477C190.49 35.4096 190.562 35.9713 190.728 36.5076C190.955 37.0944 191.311 37.6198 191.769 38.0432C192.048 38.3281 192.352 38.5852 192.679 38.8111C193.03 39.056 193.399 39.2719 193.783 39.4567C195.887 40.4919 198.644 41.0038 201.334 41C204.024 40.9962 206.734 40.4594 208.81 39.4032C209.316 39.1492 209.791 38.8357 210.226 38.4692C210.646 38.115 211.01 37.6961 211.304 37.2276C211.888 36.2837 211.886 35.9049 211.883 35.0104L211.882 35.0005L211.886 20.0602C211.956 19.8477 211.995 19.6255 212 19.4012C212 19.1676 211.963 18.942 211.893 18.7249C211.348 16.0509 209.424 14.0935 206.857 13.6116C205.861 11.4138 203.535 10 201.006 10C198.502 10 196.195 11.3865 195.184 13.5477ZM201.245 22.4255C197.72 22.4255 194.58 21.643 192.551 20.4235C192.188 19.5805 192.237 18.5859 192.269 18.2929C192.501 16.5087 193.988 15.1323 195.789 15.1323C195.966 15.1323 196.14 15.1455 196.309 15.1711C196.711 13.1523 198.661 11.6207 201.006 11.6207C203.336 11.6207 205.276 13.1331 205.695 15.1331C205.723 15.1326 205.75 15.1323 205.778 15.1323C208.041 15.1323 210.03 16.9544 210.478 19.3712C210.47 19.8542 210.363 20.1051 210.276 20.2103C208.268 21.5511 204.971 22.4255 201.245 22.4255ZM188.668 28.8903C188.352 27.5052 188.811 25.6874 190.508 23.5283L190.506 31.2072L190.426 31.1594C189.996 30.9258 189.618 30.6036 189.315 30.2131C189.013 29.8226 188.793 29.3722 188.668 28.8903ZM210.224 21.9951C209.664 22.3566 209.068 22.6569 208.447 22.8909C206.551 23.6243 203.985 24.0942 201.196 24.0961C198.758 24.1265 196.334 23.6966 194.048 22.8278C193.386 22.5663 192.756 22.2272 192.17 21.8174L192.168 31.7898C192.702 31.8871 193.246 31.9179 193.787 31.8814C196.341 31.7229 199.114 30.128 200.476 26.6441C200.556 26.4477 200.709 26.2916 200.901 26.2096C201.093 26.1276 201.309 26.1262 201.502 26.2057C201.694 26.2853 201.849 26.4394 201.932 26.6348C202.015 26.8301 202.019 27.051 201.944 27.2496C200.321 31.3982 196.973 33.3025 193.876 33.505C193.304 33.5419 192.729 33.5188 192.16 33.4362L192.168 34.8458C192.149 35.212 192.187 35.579 192.282 35.9326C192.432 36.2819 192.655 36.5935 192.934 36.8456C193.143 37.0558 193.369 37.2457 193.612 37.4129C193.893 37.6103 194.188 37.7852 194.496 37.9363C196.369 38.8569 198.836 39.3249 201.323 39.3077C203.809 39.2905 206.236 38.834 208.073 37.8885C208.463 37.694 208.83 37.4543 209.167 37.1742C209.454 36.9324 209.703 36.6463 209.905 36.3261C210.166 35.9455 210.281 35.4797 210.228 35.0177C210.227 35.0076 210.227 34.9649 210.227 34.918C210.227 34.8501 210.226 34.7732 210.224 34.7732L210.224 21.9951Z" fill="white"/>
<path d="M189.562 50.9442C189.054 50.9442 188.665 50.7996 188.395 50.5102C188.132 50.2209 188 49.8126 188 49.2853V45.6589C188 45.1317 188.132 44.7234 188.395 44.434C188.665 44.1447 189.054 44 189.562 44C190.07 44 190.456 44.1447 190.72 44.434C190.99 44.7234 191.125 45.1317 191.125 45.6589V46.3726H190.122V45.5914C190.122 45.1734 189.945 44.9645 189.591 44.9645C189.238 44.9645 189.061 45.1734 189.061 45.5914V49.3625C189.061 49.774 189.238 49.9798 189.591 49.9798C189.945 49.9798 190.122 49.774 190.122 49.3625V48.3305H191.125V49.2853C191.125 49.8126 190.99 50.2209 190.72 50.5102C190.456 50.7996 190.07 50.9442 189.562 50.9442Z" fill="white"/>
<path d="M193.312 50.9442C192.791 50.9442 192.393 50.7963 192.116 50.5006C191.84 50.2048 191.701 49.7869 191.701 49.2468V45.6975C191.701 45.1574 191.84 44.7394 192.116 44.4437C192.393 44.1479 192.791 44 193.312 44C193.833 44 194.231 44.1479 194.508 44.4437C194.784 44.7394 194.923 45.1574 194.923 45.6975V49.2468C194.923 49.7869 194.784 50.2048 194.508 50.5006C194.231 50.7963 193.833 50.9442 193.312 50.9442ZM193.312 49.9798C193.679 49.9798 193.862 49.7579 193.862 49.3143V45.63C193.862 45.1863 193.679 44.9645 193.312 44.9645C192.946 44.9645 192.762 45.1863 192.762 45.63V49.3143C192.762 49.7579 192.946 49.9798 193.312 49.9798Z" fill="white"/>
<path d="M195.64 44.0964H197.154L197.83 48.9285H197.849L198.524 44.0964H200.038V50.8478H199.035V45.7361H199.016L198.244 50.8478H197.357L196.585 45.7361H196.566V50.8478H195.64V44.0964Z" fill="white"/>
<path d="M200.83 44.0964H202.392C202.92 44.0964 203.315 44.2379 203.579 44.5208C203.842 44.8037 203.974 45.2185 203.974 45.765V46.4305C203.974 46.977 203.842 47.3917 203.579 47.6747C203.315 47.9576 202.92 48.099 202.392 48.099H201.891V50.8478H200.83V44.0964ZM202.392 47.1345C202.566 47.1345 202.695 47.0863 202.778 46.9899C202.868 46.8934 202.913 46.7295 202.913 46.498V45.6975C202.913 45.466 202.868 45.302 202.778 45.2056C202.695 45.1091 202.566 45.0609 202.392 45.0609H201.891V47.1345H202.392Z" fill="white"/>
<path d="M206.084 50.9442C205.563 50.9442 205.164 50.7963 204.888 50.5006C204.611 50.2048 204.473 49.7869 204.473 49.2468V45.6975C204.473 45.1574 204.611 44.7394 204.888 44.4437C205.164 44.1479 205.563 44 206.084 44C206.605 44 207.003 44.1479 207.28 44.4437C207.556 44.7394 207.694 45.1574 207.694 45.6975V49.2468C207.694 49.7869 207.556 50.2048 207.28 50.5006C207.003 50.7963 206.605 50.9442 206.084 50.9442ZM206.084 49.9798C206.45 49.9798 206.634 49.7579 206.634 49.3143V45.63C206.634 45.1863 206.45 44.9645 206.084 44.9645C205.717 44.9645 205.534 45.1863 205.534 45.63V49.3143C205.534 49.7579 205.717 49.9798 206.084 49.9798Z" fill="white"/>
<path d="M209.791 50.9442C209.277 50.9442 208.888 50.7996 208.624 50.5102C208.361 50.2144 208.229 49.7933 208.229 49.2468V48.861H209.232V49.3239C209.232 49.7611 209.415 49.9798 209.782 49.9798C209.962 49.9798 210.097 49.9283 210.187 49.8254C210.283 49.7161 210.331 49.5425 210.331 49.3046C210.331 49.0217 210.267 48.7742 210.138 48.562C210.01 48.3434 209.772 48.083 209.425 47.7807C208.987 47.395 208.682 47.0477 208.508 46.7391C208.335 46.4241 208.248 46.0704 208.248 45.6782C208.248 45.1445 208.383 44.733 208.653 44.4437C208.923 44.1479 209.315 44 209.83 44C210.338 44 210.72 44.1479 210.977 44.4437C211.241 44.733 211.373 45.1509 211.373 45.6975V45.9772H210.37V45.63C210.37 45.3985 210.325 45.2313 210.235 45.1284C210.145 45.0191 210.013 44.9645 209.839 44.9645C209.486 44.9645 209.309 45.1799 209.309 45.6107C209.309 45.855 209.373 46.0833 209.502 46.2955C209.637 46.5076 209.878 46.7648 210.225 47.067C210.669 47.4528 210.974 47.8033 211.141 48.1183C211.309 48.4334 211.392 48.8031 211.392 49.2275C211.392 49.7804 211.254 50.2048 210.977 50.5006C210.707 50.7963 210.312 50.9442 209.791 50.9442Z" fill="white"/>
<path d="M212.83 45.0609H211.721V44.0964H215V45.0609H213.891V50.8478H212.83V45.0609Z" fill="white"/>
<path d="M129.6 18.432H134.388V19.848H131.328V21.864H134.208V23.28H131.328V27H129.6V18.432ZM135.155 18.432H138.347C139.067 18.432 139.627 18.616 140.027 18.984C140.427 19.344 140.627 19.896 140.627 20.64C140.627 21.216 140.511 21.688 140.279 22.056C140.047 22.416 139.687 22.648 139.199 22.752V22.776C139.631 22.84 139.947 22.98 140.147 23.196C140.347 23.412 140.471 23.76 140.519 24.24C140.535 24.4 140.547 24.576 140.555 24.768C140.563 24.952 140.571 25.16 140.579 25.392C140.595 25.848 140.619 26.196 140.651 26.436C140.699 26.676 140.803 26.84 140.963 26.928V27H139.091C139.003 26.88 138.947 26.744 138.923 26.592C138.899 26.432 138.883 26.268 138.875 26.1L138.827 24.456C138.811 24.12 138.727 23.856 138.575 23.664C138.423 23.472 138.167 23.376 137.807 23.376H136.883V27H135.155V18.432ZM136.883 22.176H137.603C138.019 22.176 138.339 22.08 138.563 21.888C138.787 21.688 138.899 21.356 138.899 20.892C138.899 20.1 138.499 19.704 137.699 19.704H136.883V22.176ZM143.677 18.432V24.408C143.677 24.624 143.689 24.824 143.713 25.008C143.745 25.184 143.797 25.34 143.869 25.476C143.949 25.604 144.053 25.708 144.181 25.788C144.317 25.86 144.485 25.896 144.685 25.896C144.893 25.896 145.061 25.86 145.189 25.788C145.317 25.708 145.417 25.604 145.489 25.476C145.569 25.34 145.621 25.184 145.645 25.008C145.677 24.824 145.693 24.624 145.693 24.408V18.432H147.421V24.408C147.421 24.952 147.345 25.404 147.193 25.764C147.041 26.116 146.837 26.396 146.581 26.604C146.325 26.812 146.033 26.952 145.705 27.024C145.377 27.096 145.037 27.132 144.685 27.132C144.333 27.132 143.993 27.1 143.665 27.036C143.337 26.972 143.045 26.844 142.789 26.652C142.533 26.452 142.329 26.172 142.177 25.812C142.025 25.452 141.949 24.984 141.949 24.408V18.432H143.677ZM148.598 27V18.432H150.326V27H148.598ZM156.624 18.432V19.848H154.752V27H153.024V19.848H151.152V18.432H156.624ZM158.765 24.324V24.576C158.765 24.776 158.781 24.96 158.813 25.128C158.845 25.288 158.905 25.424 158.993 25.536C159.081 25.648 159.197 25.736 159.341 25.8C159.493 25.864 159.681 25.896 159.905 25.896C160.169 25.896 160.405 25.812 160.613 25.644C160.829 25.468 160.937 25.2 160.937 24.84C160.937 24.648 160.909 24.484 160.853 24.348C160.805 24.204 160.721 24.076 160.601 23.964C160.481 23.852 160.321 23.752 160.121 23.664C159.929 23.568 159.689 23.472 159.401 23.376C159.017 23.248 158.685 23.108 158.405 22.956C158.125 22.804 157.889 22.628 157.697 22.428C157.513 22.22 157.377 21.984 157.289 21.72C157.201 21.448 157.157 21.136 157.157 20.784C157.157 19.936 157.393 19.304 157.865 18.888C158.337 18.472 158.985 18.264 159.809 18.264C160.193 18.264 160.545 18.308 160.865 18.396C161.193 18.476 161.473 18.612 161.705 18.804C161.945 18.988 162.129 19.228 162.257 19.524C162.393 19.812 162.461 20.16 162.461 20.568V20.808H160.805C160.805 20.4 160.733 20.088 160.589 19.872C160.445 19.648 160.205 19.536 159.869 19.536C159.677 19.536 159.517 19.564 159.389 19.62C159.261 19.676 159.157 19.752 159.077 19.848C159.005 19.936 158.953 20.04 158.921 20.16C158.897 20.28 158.885 20.404 158.885 20.532C158.885 20.796 158.941 21.02 159.053 21.204C159.165 21.38 159.405 21.544 159.773 21.696L161.105 22.272C161.433 22.416 161.701 22.568 161.909 22.728C162.117 22.88 162.281 23.048 162.401 23.232C162.529 23.408 162.617 23.604 162.665 23.82C162.713 24.036 162.737 24.276 162.737 24.54C162.737 25.444 162.473 26.104 161.945 26.52C161.425 26.928 160.697 27.132 159.761 27.132C158.785 27.132 158.085 26.92 157.661 26.496C157.245 26.072 157.037 25.464 157.037 24.672V24.324H158.765ZM133.176 38.772L132.348 34.92H132.324L131.496 38.772H133.176ZM133.404 33.432L135.672 42H133.872L133.476 40.188H131.196L130.8 42H129L131.268 33.432H133.404ZM137.996 40.728H138.668C139.084 40.728 139.42 40.636 139.676 40.452C139.932 40.268 140.06 39.928 140.06 39.432C140.06 39.184 140.024 38.98 139.952 38.82C139.888 38.652 139.796 38.52 139.676 38.424C139.564 38.32 139.428 38.248 139.268 38.208C139.108 38.168 138.932 38.148 138.74 38.148H137.996V40.728ZM137.996 36.948H138.488C138.968 36.948 139.316 36.864 139.532 36.696C139.756 36.52 139.868 36.228 139.868 35.82C139.868 35.412 139.768 35.124 139.568 34.956C139.368 34.788 139.052 34.704 138.62 34.704H137.996V36.948ZM136.268 33.432H139.16C139.512 33.432 139.836 33.468 140.132 33.54C140.436 33.612 140.696 33.732 140.912 33.9C141.128 34.068 141.296 34.292 141.416 34.572C141.536 34.852 141.596 35.196 141.596 35.604C141.596 36.068 141.488 36.468 141.272 36.804C141.056 37.132 140.732 37.356 140.3 37.476V37.5C140.78 37.564 141.16 37.768 141.44 38.112C141.72 38.456 141.86 38.916 141.86 39.492C141.86 39.828 141.816 40.148 141.728 40.452C141.64 40.756 141.488 41.024 141.272 41.256C141.064 41.48 140.788 41.66 140.444 41.796C140.108 41.932 139.688 42 139.184 42H136.268V33.432ZM143.02 31.2H144.748L145.684 32.928H144.412L143.86 31.908L143.284 32.928H142.12L143.02 31.2ZM143.02 42V33.432H144.748V42H143.02ZM146.066 33.432H148.634L149.858 39.48H149.882L151.118 33.432H153.674V42H152.09V35.16H152.066L150.542 42H149.198L147.674 35.16H147.65V42H146.066V33.432ZM157.217 31.2H158.873L157.697 32.928H156.569L157.217 31.2ZM159.701 33.432V34.848H156.641V36.864H159.521V38.28H156.641V40.584H159.821V42H154.913V33.432H159.701ZM162.082 39.324V39.576C162.082 39.776 162.098 39.96 162.13 40.128C162.162 40.288 162.222 40.424 162.31 40.536C162.398 40.648 162.514 40.736 162.658 40.8C162.81 40.864 162.998 40.896 163.222 40.896C163.486 40.896 163.722 40.812 163.93 40.644C164.146 40.468 164.254 40.2 164.254 39.84C164.254 39.648 164.226 39.484 164.17 39.348C164.122 39.204 164.038 39.076 163.918 38.964C163.798 38.852 163.638 38.752 163.438 38.664C163.246 38.568 163.006 38.472 162.718 38.376C162.334 38.248 162.002 38.108 161.722 37.956C161.442 37.804 161.206 37.628 161.014 37.428C160.83 37.22 160.694 36.984 160.606 36.72C160.518 36.448 160.474 36.136 160.474 35.784C160.474 34.936 160.71 34.304 161.182 33.888C161.654 33.472 162.302 33.264 163.126 33.264C163.51 33.264 163.862 33.308 164.182 33.396C164.51 33.476 164.79 33.612 165.022 33.804C165.262 33.988 165.446 34.228 165.574 34.524C165.71 34.812 165.778 35.16 165.778 35.568V35.808H164.122C164.122 35.4 164.05 35.088 163.906 34.872C163.762 34.648 163.522 34.536 163.186 34.536C162.994 34.536 162.834 34.564 162.706 34.62C162.578 34.676 162.474 34.752 162.394 34.848C162.322 34.936 162.27 35.04 162.238 35.16C162.214 35.28 162.202 35.404 162.202 35.532C162.202 35.796 162.258 36.02 162.37 36.204C162.482 36.38 162.722 36.544 163.09 36.696L164.422 37.272C164.75 37.416 165.018 37.568 165.226 37.728C165.434 37.88 165.598 38.048 165.718 38.232C165.846 38.408 165.934 38.604 165.982 38.82C166.03 39.036 166.054 39.276 166.054 39.54C166.054 40.444 165.79 41.104 165.262 41.52C164.742 41.928 164.014 42.132 163.078 42.132C162.102 42.132 161.402 41.92 160.978 41.496C160.562 41.072 160.354 40.464 160.354 39.672V39.324H162.082Z" fill="black"/>
</g>
<defs>
<clipPath id="clip0_72_4458">
<rect width="230" height="61" fill="white"/>
</clipPath>
</defs>
</svg>
