<svg width="270" height="61" viewBox="0 0 270 61" fill="none" xmlns="http://www.w3.org/2000/svg">
<path d="M24.6979 60.4688C11.0781 60.4688 0 49.5208 0 36.0625V0H234.948C248.563 0 259.641 10.9479 259.641 24.4062V60.4688" fill="white"/>
<path d="M222.083 52.9114H69.1353C59.6874 52.9114 51.9999 45.3541 51.9999 36.0625V7.55725H204.948C214.396 7.55725 222.083 15.1145 222.083 24.4062V52.9114ZM204.948 5.66663H50.1145V36.0625C50.1145 46.3958 58.6458 54.802 69.1353 54.802H223.969V24.4062C223.969 14.0729 215.437 5.66663 204.948 5.66663Z" fill="#333347"/>
<path d="M196.714 54.802L209.724 28.2239L196.432 5.66663H234.948C245.437 5.66663 253.969 14.0729 253.969 24.4062V54.802" fill="#333347"/>
<path d="M102.901 5.66663H50.1145V36.0625C50.1145 46.3958 58.6458 54.802 69.1353 54.802H121.927V24.4062C121.927 14.0729 113.391 5.66663 102.901 5.66663Z" fill="#333347"/>
<path d="M63.651 29.3594C58.8489 29.3594 54.9583 33.25 54.9583 38.0521C54.9583 42.8542 58.8489 46.7448 63.651 46.7448C68.4583 46.7448 72.3489 42.8542 72.3489 38.0521C72.3489 33.25 68.4583 29.3594 63.651 29.3594Z" fill="white"/>
<path d="M69.3229 39.4688H65.0729V43.7188H62.2344V39.4688H57.9844V36.6355H62.2344V32.3802H65.0729V36.6355H69.3229" fill="#1C1C1B"/>
<path d="M55.7864 26.5937V17.1979H58.2708V24.5156H61.828V26.5937" fill="white"/>
<path d="M62.9426 26.5937V17.1979H69.0155V19.276H65.4322V20.7552H68.4947V22.8385H65.4322V24.5156H69.1614V26.5937" fill="white"/>
<path d="M75.0885 26.5937V19.276H72.6041V17.1979H80.0677V19.276H77.5781V26.5937" fill="white"/>
<path d="M83.5521 21.4739H84.4479C85.4479 21.4739 85.9531 21.0625 85.9531 20.2343C85.9531 19.8281 85.8229 19.5468 85.5677 19.3958C85.3125 19.2395 84.9375 19.1614 84.4479 19.1614H83.5521V21.4739ZM81.0625 26.5989V17.1979H84.6198C85.125 17.1979 85.6042 17.2448 86.0625 17.3385C86.5208 17.4375 86.9167 17.5989 87.2604 17.8333C87.6042 18.0625 87.875 18.375 88.0781 18.7656C88.2813 19.1562 88.3802 19.6458 88.3802 20.2343C88.3802 20.9062 88.2448 21.4687 87.9688 21.9114C87.6979 22.3541 87.3281 22.6979 86.8646 22.9531L88.901 26.5989H86.125L84.5052 23.4427H83.5521V26.5989" fill="white"/>
<path d="M89.8698 26.5989H92.3593V17.1979H89.8698V26.5989Z" fill="white"/>
<path d="M75.3801 43.276V33.8698H81.5103V35.9531H77.8697V37.75H80.9895V39.8333H77.8697V43.276" fill="white"/>
<path d="M84.9218 38.7031L84.7604 39.3541H86.4948L86.3385 38.7031C86.2239 38.25 86.1041 37.7604 85.9895 37.2291C85.875 36.6979 85.7604 36.1979 85.6406 35.7239H85.5833C85.4791 36.2031 85.3698 36.7083 85.2604 37.2343C85.151 37.7604 85.0364 38.25 84.9218 38.7031ZM81.3073 43.276L84.1666 33.8698H87.1718L90.0364 43.276H87.4062L86.9427 41.276H84.3125L83.8489 43.276" fill="white"/>
<path d="M94.5624 43.4479C93.9687 43.4479 93.3958 43.3489 92.8541 43.151C92.3072 42.9531 91.8333 42.651 91.4218 42.2552C91.0103 41.8541 90.6822 41.3541 90.4426 40.75C90.203 40.1458 90.0833 39.4479 90.0833 38.6458C90.0833 37.8541 90.2083 37.151 90.4583 36.5416C90.7083 35.927 91.0416 35.4114 91.4635 34.9948C91.8801 34.5729 92.3645 34.25 92.9114 34.0312C93.4583 33.8073 94.026 33.6979 94.6249 33.6979C95.2499 33.6979 95.8124 33.8229 96.302 34.0677C96.7968 34.3125 97.2083 34.6041 97.5468 34.9427L96.2447 36.5312C96.0155 36.3333 95.776 36.1666 95.5312 36.0312C95.2812 35.9062 94.9999 35.8385 94.6822 35.8385C94.401 35.8385 94.1405 35.901 93.8958 36.026C93.651 36.151 93.4322 36.3333 93.2447 36.5625C93.0572 36.7916 92.9062 37.0781 92.7968 37.4166C92.6822 37.75 92.6301 38.1354 92.6301 38.5573C92.6301 39.4479 92.8124 40.125 93.1874 40.5989C93.5572 41.0677 94.0468 41.3073 94.651 41.3073C95.0208 41.3073 95.3437 41.2291 95.6301 41.0677C95.9114 40.9062 96.1562 40.7187 96.3593 40.4948L97.6614 42.0573C97.2551 42.5208 96.7916 42.8698 96.2655 43.0989C95.7395 43.3333 95.1718 43.4479 94.5624 43.4479Z" fill="white"/>
<path d="M98.6198 43.276H101.104V33.8698H98.6198V43.276Z" fill="white"/>
<path d="M102.875 43.276V33.8698H105.365V41.1927H108.922V43.276" fill="white"/>
<path d="M110.031 43.276V33.8698H116.109V35.9531H112.521V37.4323H115.589V39.5156H112.521V41.1927H116.255V43.276" fill="white"/>
<path d="M28.4062 25.7448C26.7135 28.2343 28.151 31.5104 29.8958 33.1718C31.4895 34.6823 32.7655 35.0364 32.9322 35.0781L33.7447 33.5208L36.0885 39.9323L29.4635 41.2812L30.3437 39.6458L29.4478 39.1458C26.6562 37.3281 26.0676 34.8593 25.8749 34.0885C25.5416 32.7604 25.0468 28.7864 28.4062 25.7448Z" fill="#333347"/>
<path d="M28.375 25.8489C29.5781 28.6093 33.1146 29.1406 35.4479 28.552C37.5208 28.026 38.5052 27.1718 38.6719 27.0156L38.6615 27L37.776 25.4635L44.4427 26.9218L42.0313 33.2395L41.1354 31.6458L40.2656 32.1198C37.2396 33.5104 34.8333 32.6927 34.0781 32.4427C32.7813 32.0156 29.1562 30.3125 28.375 25.8489Z" fill="#333347"/>
<path d="M40.1613 19.1927C39.6978 22.4895 37.7134 24.0729 37.0936 24.5729C36.0311 25.4375 32.6457 27.5677 28.4634 25.8177C31.4373 26.2916 33.7967 23.6041 34.5571 21.3177C35.2446 19.2656 35.0415 17.9687 34.9998 17.7708L34.979 17.7656L33.2134 17.6927L38.0259 12.8541L42.0519 18.2864L40.2342 18.1823" fill="#333347"/>
<path fill-rule="evenodd" clip-rule="evenodd" d="M19.9375 16.4115C18.4167 16.4115 17.1875 15.1823 17.1875 13.6563C17.1875 12.1354 18.4167 10.9062 19.9375 10.9062C21.4583 10.9062 22.6927 12.1354 22.6927 13.6563C22.6927 15.1823 21.4583 16.4115 19.9375 16.4115Z" fill="#333347"/>
<path d="M15.6771 29.7968C15.9115 29.151 16.2604 29.1927 16.2604 29.1927C16.2604 29.1927 16.5781 29.125 16.7552 29.7708L19.3281 38.8073C17.1823 38.1823 15.224 37.1198 13.5573 35.7083L15.6771 29.7968ZM23.7031 5.66663C13.7604 5.66663 5.67188 13.7552 5.67188 23.6979C5.67188 33.6406 13.7604 41.7291 23.7031 41.7291C24.2344 41.7291 24.7552 41.6979 25.276 41.651L25.3958 43.4635L28.6979 40.2708L25.0052 37.4531L25.1458 39.3541C24.6719 39.401 24.1875 39.4323 23.7031 39.4323C22.9375 39.4323 22.1875 39.375 21.4531 39.2656L21.3802 38.7864L19.6667 24.1875C19.4323 21.4323 21.0052 20.9948 21.9792 21.4062L27.4479 23.6041C28.0729 23.875 28.375 23.3489 28.375 23.3489C28.375 23.3489 28.7292 22.802 28.0938 22.3958C28.0938 22.3958 20.6406 17.4583 19.0521 17.1562C16.8854 16.7552 14.7396 18.5104 14.2656 20.7968L11.6198 33.7604C9.34375 31.0312 7.96875 27.5208 7.96875 23.6979C7.96875 15.0208 15.026 7.9635 23.7031 7.9635C28.3385 7.9635 32.5104 9.97913 35.3906 13.177L37.0052 11.5364C33.7083 7.93225 28.9635 5.66663 23.7031 5.66663Z" fill="#333347"/>
<path d="M133.404 20.976C133.404 20.816 133.384 20.652 133.344 20.484C133.312 20.316 133.256 20.164 133.176 20.028C133.096 19.884 132.992 19.768 132.864 19.68C132.744 19.584 132.596 19.536 132.42 19.536C132.004 19.536 131.704 19.768 131.52 20.232C131.336 20.696 131.244 21.464 131.244 22.536C131.244 23.048 131.26 23.512 131.292 23.928C131.324 24.344 131.38 24.7 131.46 24.996C131.548 25.284 131.668 25.508 131.82 25.668C131.98 25.82 132.184 25.896 132.432 25.896C132.536 25.896 132.648 25.868 132.768 25.812C132.896 25.756 133.012 25.672 133.116 25.56C133.228 25.448 133.32 25.308 133.392 25.14C133.464 24.964 133.5 24.76 133.5 24.528V23.652H132.36V22.38H135.156V27H133.884V26.208H133.86C133.652 26.544 133.4 26.784 133.104 26.928C132.816 27.064 132.468 27.132 132.06 27.132C131.532 27.132 131.1 27.04 130.764 26.856C130.436 26.672 130.176 26.388 129.984 26.004C129.8 25.62 129.676 25.148 129.612 24.588C129.548 24.02 129.516 23.364 129.516 22.62C129.516 21.9 129.56 21.268 129.648 20.724C129.744 20.18 129.904 19.728 130.128 19.368C130.352 19 130.648 18.724 131.016 18.54C131.384 18.356 131.844 18.264 132.396 18.264C133.34 18.264 134.02 18.5 134.436 18.972C134.852 19.436 135.06 20.104 135.06 20.976H133.404ZM139.844 23.772L139.016 19.92H138.992L138.164 23.772H139.844ZM140.072 18.432L142.34 27H140.54L140.144 25.188H137.864L137.468 27H135.668L137.936 18.432H140.072ZM144.928 18.432L147.016 24.3H147.04V18.432H148.624V27H146.656L144.544 21H144.52V27H142.936V18.432H144.928ZM154.843 18.432V19.848H152.971V27H151.243V19.848H149.371V18.432H154.843ZM156.984 24.324V24.576C156.984 24.776 157 24.96 157.032 25.128C157.064 25.288 157.124 25.424 157.212 25.536C157.3 25.648 157.416 25.736 157.56 25.8C157.712 25.864 157.9 25.896 158.124 25.896C158.388 25.896 158.624 25.812 158.832 25.644C159.048 25.468 159.156 25.2 159.156 24.84C159.156 24.648 159.128 24.484 159.072 24.348C159.024 24.204 158.94 24.076 158.82 23.964C158.7 23.852 158.54 23.752 158.34 23.664C158.148 23.568 157.908 23.472 157.62 23.376C157.236 23.248 156.904 23.108 156.624 22.956C156.344 22.804 156.108 22.628 155.916 22.428C155.732 22.22 155.596 21.984 155.508 21.72C155.42 21.448 155.376 21.136 155.376 20.784C155.376 19.936 155.612 19.304 156.084 18.888C156.556 18.472 157.204 18.264 158.028 18.264C158.412 18.264 158.764 18.308 159.084 18.396C159.412 18.476 159.692 18.612 159.924 18.804C160.164 18.988 160.348 19.228 160.476 19.524C160.612 19.812 160.68 20.16 160.68 20.568V20.808H159.024C159.024 20.4 158.952 20.088 158.808 19.872C158.664 19.648 158.424 19.536 158.088 19.536C157.896 19.536 157.736 19.564 157.608 19.62C157.48 19.676 157.376 19.752 157.296 19.848C157.224 19.936 157.172 20.04 157.14 20.16C157.116 20.28 157.104 20.404 157.104 20.532C157.104 20.796 157.16 21.02 157.272 21.204C157.384 21.38 157.624 21.544 157.992 21.696L159.324 22.272C159.652 22.416 159.92 22.568 160.128 22.728C160.336 22.88 160.5 23.048 160.62 23.232C160.748 23.408 160.836 23.604 160.884 23.82C160.932 24.036 160.956 24.276 160.956 24.54C160.956 25.444 160.692 26.104 160.164 26.52C159.644 26.928 158.916 27.132 157.98 27.132C157.004 27.132 156.304 26.92 155.88 26.496C155.464 26.072 155.256 25.464 155.256 24.672V24.324H156.984ZM129.636 33.432H132.204L133.428 39.48H133.452L134.688 33.432H137.244V42H135.66V35.16H135.636L134.112 42H132.768L131.244 35.16H131.22V42H129.636V33.432ZM140.787 31.2H142.443L141.267 32.928H140.139L140.787 31.2ZM143.271 33.432V34.848H140.211V36.864H143.091V38.28H140.211V40.584H143.391V42H138.483V33.432H143.271ZM146.072 40.728H146.84C147.144 40.728 147.388 40.676 147.572 40.572C147.756 40.468 147.9 40.296 148.004 40.056C148.116 39.816 148.188 39.5 148.22 39.108C148.26 38.716 148.28 38.228 148.28 37.644C148.28 37.156 148.264 36.728 148.232 36.36C148.2 35.992 148.132 35.688 148.028 35.448C147.932 35.2 147.784 35.016 147.584 34.896C147.392 34.768 147.132 34.704 146.804 34.704H146.072V40.728ZM144.344 33.432H147.176C147.776 33.432 148.26 33.532 148.628 33.732C148.996 33.924 149.28 34.204 149.48 34.572C149.688 34.932 149.828 35.368 149.9 35.88C149.972 36.392 150.008 36.964 150.008 37.596C150.008 38.348 149.96 39.004 149.864 39.564C149.776 40.116 149.62 40.572 149.396 40.932C149.172 41.292 148.872 41.56 148.496 41.736C148.12 41.912 147.644 42 147.068 42H144.344V33.432ZM151.235 42V33.432H152.963V42H151.235ZM157.905 36.324C157.905 35.7 157.829 35.248 157.677 34.968C157.533 34.68 157.265 34.536 156.873 34.536C156.657 34.536 156.477 34.596 156.333 34.716C156.197 34.828 156.089 35.016 156.009 35.28C155.929 35.536 155.873 35.876 155.841 36.3C155.809 36.716 155.793 37.228 155.793 37.836C155.793 38.484 155.813 39.008 155.853 39.408C155.901 39.808 155.969 40.12 156.057 40.344C156.153 40.56 156.269 40.708 156.405 40.788C156.549 40.86 156.713 40.896 156.897 40.896C157.049 40.896 157.189 40.872 157.317 40.824C157.453 40.768 157.569 40.664 157.665 40.512C157.761 40.352 157.837 40.132 157.893 39.852C157.949 39.564 157.977 39.188 157.977 38.724H159.705C159.705 39.188 159.669 39.628 159.597 40.044C159.525 40.46 159.389 40.824 159.189 41.136C158.997 41.448 158.721 41.692 158.361 41.868C158.009 42.044 157.549 42.132 156.981 42.132C156.333 42.132 155.817 42.028 155.433 41.82C155.049 41.612 154.753 41.312 154.545 40.92C154.345 40.528 154.213 40.06 154.149 39.516C154.093 38.972 154.065 38.372 154.065 37.716C154.065 37.068 154.093 36.472 154.149 35.928C154.213 35.376 154.345 34.904 154.545 34.512C154.753 34.12 155.049 33.816 155.433 33.6C155.817 33.376 156.333 33.264 156.981 33.264C157.597 33.264 158.081 33.364 158.433 33.564C158.793 33.764 159.061 34.02 159.237 34.332C159.413 34.636 159.521 34.968 159.561 35.328C159.609 35.68 159.633 36.012 159.633 36.324H157.905ZM164.266 38.772L163.438 34.92H163.414L162.586 38.772H164.266ZM164.494 33.432L166.762 42H164.962L164.566 40.188H162.286L161.89 42H160.09L162.358 33.432H164.494ZM168.978 33.432V39.408C168.978 39.624 168.99 39.824 169.014 40.008C169.046 40.184 169.098 40.34 169.17 40.476C169.25 40.604 169.354 40.708 169.482 40.788C169.618 40.86 169.786 40.896 169.986 40.896C170.194 40.896 170.362 40.86 170.49 40.788C170.618 40.708 170.718 40.604 170.79 40.476C170.87 40.34 170.922 40.184 170.946 40.008C170.978 39.824 170.994 39.624 170.994 39.408V33.432H172.722V39.408C172.722 39.952 172.646 40.404 172.494 40.764C172.342 41.116 172.138 41.396 171.882 41.604C171.626 41.812 171.334 41.952 171.006 42.024C170.678 42.096 170.338 42.132 169.986 42.132C169.634 42.132 169.294 42.1 168.966 42.036C168.638 41.972 168.346 41.844 168.09 41.652C167.834 41.452 167.63 41.172 167.478 40.812C167.326 40.452 167.25 39.984 167.25 39.408V33.432H168.978ZM173.455 33.432H175.363L176.467 36.204L177.559 33.432H179.443L177.451 37.668L179.587 42H177.643L176.407 39.096L175.183 42H173.287L175.423 37.668L173.455 33.432Z" fill="black"/>
<path fill-rule="evenodd" clip-rule="evenodd" d="M226.197 12.9917C225.489 12.7271 224.997 12.6406 224.67 12.6452C224.338 12.6499 224.233 12.7457 224.211 12.7697C224.191 12.7911 224.158 12.8426 224.156 12.9856C224.155 13.0935 224.173 13.2211 224.209 13.3514L228.625 17.6963H231.528C232.034 17.0728 233.172 15.8497 235.078 14.1794C235.602 13.7203 235.792 13.4037 235.848 13.2371C235.879 13.1441 235.868 13.1284 235.843 13.0951L235.839 13.0896C235.774 13.001 235.62 12.8791 235.352 12.7673C235.11 12.6663 234.831 12.5973 234.575 12.5601C234.389 12.5649 234.251 12.6081 234.006 12.6965L233.957 12.7142C233.87 12.7457 233.807 12.7781 233.743 12.811C233.611 12.8791 233.474 12.9492 233.116 13.0172C232.548 13.1251 232.141 13.1334 231.683 13.0237C231.386 12.9524 231.057 12.826 230.66 12.6733L230.66 12.6732L230.66 12.6732C230.522 12.6199 230.375 12.5634 230.218 12.505L230.215 12.5046C230.205 12.5034 230.171 12.4992 230.103 12.5017C230.005 12.5053 229.878 12.5207 229.721 12.5484C229.412 12.603 229.047 12.694 228.66 12.7904L228.637 12.7962C228.255 12.8913 227.848 12.9925 227.508 13.0468C227.338 13.0739 227.162 13.0935 226.999 13.0896C226.986 13.0893 226.969 13.0891 226.947 13.0889H226.947C226.777 13.0872 226.364 13.0832 226.197 12.9917ZM228.237 11.3164C227.706 11.4374 226.732 11.5442 226.732 11.5442C226.164 11.5236 225.749 11.4099 225.402 11.3145C225.125 11.2386 224.891 11.1743 224.654 11.1777C224.117 11.1852 223.651 11.3462 223.316 11.7135C222.98 12.0836 222.873 12.5579 222.868 12.9653C222.863 13.3667 222.954 13.7551 223.067 14.0649L223.126 14.2248L227.043 18.0789C225.564 18.4041 223.986 19.063 222.531 20.2082C219.761 22.3897 217.542 26.2534 217.227 32.6479C217.207 33.0641 217.184 33.4866 217.161 33.912C217.068 35.6616 216.972 37.462 217.008 39.0902C217.052 41.0844 217.292 43.0034 218.107 44.3151C219.572 46.6711 221.968 47.8112 224.268 48.348C226.56 48.883 228.85 48.8422 230.268 48.7579C231.563 48.7331 233.698 48.6558 235.887 48.1961C238.067 47.7382 240.413 46.8786 242.016 45.2058C243.305 43.8598 243.744 41.8774 243.878 39.7527C243.983 38.0805 243.904 36.1896 243.823 34.2644L243.823 34.2638C243.8 33.7301 243.778 33.1937 243.759 32.6587C243.548 26.6489 241.338 22.879 238.569 20.6473C236.772 19.1991 234.772 18.4248 233.001 18.0891C233.574 17.4656 234.506 16.5318 235.863 15.3427C236.456 14.8235 236.868 14.3043 237.051 13.7626C237.256 13.1522 237.144 12.5834 236.83 12.152C236.553 11.7717 236.15 11.5369 235.794 11.3889C235.425 11.2351 235.029 11.1428 234.687 11.097L234.649 11.092H234.611C234.197 11.092 233.898 11.1959 233.617 11.2976L233.57 11.3145C233.314 11.4071 233.037 11.5078 232.597 11.5912C232.212 11.6645 232.189 11.6582 232.042 11.6184L232.042 11.6184C232.013 11.6105 231.98 11.6013 231.937 11.5912C231.72 11.539 231.496 11.4529 231.141 11.3164C231.127 11.311 231.103 11.2985 231.069 11.2814C230.905 11.1967 230.523 11 230.086 11C229.442 11 228.825 11.163 228.453 11.2614L228.453 11.2614L228.453 11.2615L228.453 11.2615C228.367 11.2841 228.295 11.3034 228.237 11.3164ZM223.478 21.4108C221.129 23.2603 219.054 26.6676 218.756 32.7231C218.735 33.1559 218.712 33.5897 218.689 34.0222C218.596 35.7668 218.504 37.492 218.538 39.0565C218.582 41.0386 218.83 42.5793 219.407 43.5068C220.575 45.3858 222.528 46.37 224.616 46.8573C226.702 47.3443 228.827 47.3108 230.192 47.2289L230.207 47.228L230.223 47.2277C231.495 47.2037 233.521 47.1289 235.572 46.6981C237.641 46.2636 239.624 45.489 240.91 44.1468C241.806 43.2119 242.221 41.7042 242.35 39.6564C242.45 38.0726 242.375 36.2919 242.295 34.3813C242.272 33.835 242.249 33.2782 242.229 32.7124C242.032 27.0884 239.989 23.7575 237.609 21.8391C235.802 20.3832 233.757 19.7053 232.07 19.4905C233.467 20.9563 235.051 22.4306 235.916 22.9628L235.114 24.2664C234.751 23.9038 234.206 23.4291 233.577 22.8815L233.577 22.8815C232.672 22.0929 231.593 21.1533 230.636 20.1804C230.589 20.8038 230.548 21.5006 230.531 22.1621C230.516 22.7319 230.52 23.2613 230.55 23.6891C230.565 23.9031 230.586 24.0802 230.611 24.218C230.624 24.2864 230.636 24.3394 230.648 24.3787C230.659 24.4162 230.666 24.4328 230.667 24.4343L230.777 25.0318L229.298 25.119C229.12 24.7626 229.055 24.2519 229.023 23.7962C228.988 23.2997 228.985 22.7161 229.001 22.123C229.013 21.6509 229.036 21.1638 229.066 20.6965C227.822 21.8971 226.513 22.9378 225.548 23.7056L225.547 23.7058L225.547 23.7061C225.412 23.8133 225.284 23.9151 225.164 24.0113L224.362 22.7076C225.212 22.115 226.785 20.8255 228.179 19.4313C226.695 19.6286 225.007 20.2073 223.478 21.4108Z" fill="white"/>
</svg>
