<svg width="227" height="61" viewBox="0 0 227 61" fill="none" xmlns="http://www.w3.org/2000/svg">
<g clip-path="url(#clip0_22_1531)">
<path d="M24.8542 60.7916C11.2344 60.7916 0.15625 49.8385 0.15625 36.3801V0.317627H201.323C214.938 0.317627 226.016 11.2655 226.016 24.7239L226.021 60.7916" fill="white"/>
<path d="M201.323 5.98438H50.2708V36.3802C50.2708 46.7135 58.802 55.1198 69.2916 55.1198H220.349V24.724C220.349 14.3958 211.812 5.98438 201.323 5.98438Z" fill="white"/>
<path d="M218.458 53.2292H69.2916C59.8437 53.2292 52.1562 45.6719 52.1562 36.3802V7.875H201.323C210.771 7.875 218.458 15.4323 218.458 24.724V53.2292ZM201.323 5.98438H50.2708V36.3802C50.2708 46.7135 58.802 55.1198 69.2916 55.1198H220.349V24.724C220.349 14.3958 211.812 5.98438 201.323 5.98438Z" fill="#FCC42F"/>
<path d="M163.089 55.1198L176.099 28.5417L162.807 5.98438H201.323C211.812 5.98438 220.349 14.3906 220.349 24.724V55.1198" fill="#FCC42F"/>
<path d="M201.323 7.875H166.115L178.245 28.4583L166.12 53.2292H218.458V24.724C218.458 15.4323 210.771 7.875 201.323 7.875Z" fill="#FCC42F"/>
<path d="M206.281 41.6615H205.078C204.979 41.6615 204.885 41.6719 204.792 41.6875C205.354 35.4323 206.224 25.7708 206.646 21.3958C206.687 20.9531 206.359 20.5573 205.917 20.5156C205.464 20.4635 205.073 20.7969 205.031 21.2448C204.385 27.9635 202.677 47.1458 202.661 47.3385C202.63 47.6615 202.312 47.9271 201.943 47.9271H188.854C188.479 47.9271 188.167 47.6615 188.135 47.3385C188.12 47.1458 186.411 27.9635 185.766 21.2448C185.724 20.7969 185.333 20.4635 184.88 20.5156C184.437 20.5573 184.109 20.9531 184.151 21.3958C184.573 25.7708 185.443 35.4271 186.005 41.6875C185.911 41.6667 185.812 41.6562 185.719 41.6562H184.516C183.74 41.6562 183.104 42.2917 183.104 43.0677V48.1406C183.104 48.9167 183.74 49.5469 184.516 49.5469H185.719C186.297 49.5469 186.802 49.1927 187.016 48.6823C187.443 49.2135 188.104 49.5469 188.854 49.5469H201.943C202.687 49.5469 203.349 49.2135 203.781 48.6875C203.995 49.1927 204.495 49.5521 205.078 49.5521H206.281C207.057 49.5521 207.687 48.9219 207.687 48.1406V43.0677C207.687 42.2917 207.057 41.6615 206.281 41.6615Z" fill="#1C1C1B"/>
<path d="M190.344 25.1198V27.4115H191.016C191.411 27.4115 191.625 27.2292 191.625 26.6771V26.026C191.625 25.3333 191.401 25.1198 190.865 25.1198H190.344ZM190.344 22.0833V24.0521H190.802C191.24 24.0521 191.505 23.8646 191.505 23.2656V22.849C191.505 22.3125 191.323 22.0833 190.906 22.0833H190.344ZM192.677 22.7344V23C192.677 23.7656 192.443 24.2448 191.922 24.4896V24.5104C192.547 24.7604 192.797 25.3125 192.797 26.099V26.7083C192.797 27.8594 192.187 28.4792 191.016 28.4792H189.172V21.0156H190.938C192.156 21.0156 192.677 21.5833 192.677 22.7344Z" fill="#1C1C1B"/>
<path d="M194.833 26.1146H195.964L195.411 22.3385H195.385L194.833 26.1146ZM197.51 28.4792H196.328L196.125 27.125H194.688L194.479 28.4792H193.406L194.599 21.0156H196.313" fill="#1C1C1B"/>
<path d="M201.661 25.6926V26.6874C201.661 27.8801 201.062 28.5624 199.911 28.5624C198.76 28.5624 198.161 27.8801 198.161 26.6874V22.8072C198.161 21.6093 198.76 20.927 199.911 20.927C201.062 20.927 201.661 21.6093 201.661 22.8072V23.5312H200.552V22.7291C200.552 22.1978 200.318 21.9947 199.943 21.9947C199.573 21.9947 199.338 22.1978 199.338 22.7291V26.7603C199.338 27.2916 199.573 27.4843 199.943 27.4843C200.318 27.4843 200.552 27.2916 200.552 26.7603V25.6926" fill="#1C1C1B"/>
<path d="M192.703 31.2083V36.5365H193.365C193.734 36.5365 193.958 36.3438 193.958 35.8125V31.9323C193.958 31.401 193.734 31.2083 193.365 31.2083H192.703ZM191.531 30.1406H193.385C194.557 30.1406 195.13 30.7917 195.13 31.9844V35.7604C195.13 36.9531 194.557 37.6042 193.385 37.6042H191.531" fill="#1C1C1B"/>
<path d="M197.266 33.2865H198.875V34.349H197.266V36.5365H199.292V37.6042H196.094V30.1406H199.292V31.2031H197.266" fill="#1C1C1B"/>
<path d="M190.161 39.2656H193.786V40.3281H192.562V46.7292H191.385V40.3281H190.161" fill="#1C1C1B"/>
<path d="M195.688 40.3281V42.625H196.146C196.583 42.625 196.849 42.4323 196.849 41.8333V41.099C196.849 40.5677 196.667 40.3281 196.25 40.3281H195.688ZM196.969 46.7292C196.901 46.5365 196.859 46.4167 196.859 45.8125V44.6354C196.859 43.9479 196.625 43.6875 196.094 43.6875H195.688V46.7292H194.516V39.2656H196.286C197.5 39.2656 198.021 39.8281 198.021 40.9792V41.5677C198.021 42.3333 197.776 42.8229 197.255 43.0729V43.0938C197.839 43.3385 198.031 43.8906 198.031 44.6719V45.8229C198.031 46.1823 198.042 46.4531 198.161 46.7292" fill="#1C1C1B"/>
<path d="M199.016 46.7292H200.188V39.2656H199.016V46.7292Z" fill="#1C1C1B"/>
<path d="M207.125 17.6197H183.672V15.6666C183.672 15.5989 183.703 15.5676 183.698 15.5676H185.396C185.589 15.5676 185.771 15.4999 185.917 15.3697L188.047 13.5103C188.141 13.427 188.37 13.3437 188.661 13.3437H202.13C202.422 13.3437 202.656 13.427 202.75 13.5103L204.88 15.3697C205.026 15.4999 205.208 15.5676 205.401 15.5676H207.099C207.089 15.5676 207.125 15.5989 207.125 15.6666V17.6197ZM207.099 13.9791H205.698L203.792 12.3176C203.385 11.9583 202.781 11.7551 202.13 11.7551H188.661C188.016 11.7551 187.411 11.9583 187 12.3176L185.094 13.9791H183.698C182.807 13.9791 182.089 14.7395 182.089 15.6666V17.8124C182.089 18.1093 182.161 18.401 182.307 18.6614C182.37 18.7708 182.458 18.8697 182.562 18.9374C182.823 19.1093 183.12 19.1978 183.427 19.1978H207.37C207.677 19.1978 207.974 19.1093 208.234 18.9374C208.339 18.8697 208.427 18.7708 208.49 18.6614C208.63 18.401 208.708 18.1093 208.708 17.8124V15.6666C208.708 14.7395 207.984 13.9791 207.099 13.9791Z" fill="#1C1C1B"/>
<path d="M202.125 14.0781H188.667C188.297 14.0781 187.995 14.3802 187.995 14.75C187.995 15.1198 188.297 15.4219 188.667 15.4219H202.125C202.495 15.4219 202.797 15.1198 202.797 14.75C202.797 14.3802 202.495 14.0781 202.125 14.0781Z" fill="#1C1C1B"/>
<path d="M103.057 5.98438H50.2708V36.3802C50.2708 46.7135 58.802 55.1198 69.2916 55.1198H122.083V24.724C122.083 14.3958 113.547 5.98438 103.057 5.98438Z" fill="#FCC42F"/>
<path d="M63.8072 29.677C59.0051 29.677 55.1145 33.5676 55.1145 38.3697C55.1145 43.1718 59.0051 47.0624 63.8072 47.0624C68.6145 47.0624 72.5051 43.1718 72.5051 38.3697C72.5051 33.5676 68.6145 29.677 63.8072 29.677Z" fill="white"/>
<path d="M69.4792 39.7865H65.2292V44.0417H62.3906V39.7865H58.1406V36.9531H62.3906V32.7031H65.2292V36.9531H69.4792" fill="#1C1C1B"/>
<path d="M55.9426 26.9167V17.5156H58.427V24.8333H61.9843V26.9167" fill="#1C1C1B"/>
<path d="M63.0989 26.9167V17.5156H69.1718V19.599H65.5885V21.0729H68.651V23.1563H65.5885V24.8333H69.3176V26.9167" fill="#1C1C1B"/>
<path d="M75.2448 26.9167V19.599H72.7604V17.5156H80.2239V19.599H77.7343V26.9167" fill="#1C1C1B"/>
<path d="M83.7083 21.7969H84.6042C85.6042 21.7969 86.1094 21.3802 86.1094 20.5521C86.1094 20.1458 85.9792 19.8698 85.724 19.7135C85.4688 19.5573 85.0938 19.4792 84.6042 19.4792H83.7083V21.7969ZM81.2188 26.9167V17.5156H84.776C85.2813 17.5156 85.7604 17.5625 86.2188 17.6563C86.6771 17.7552 87.0729 17.9219 87.4167 18.151C87.7604 18.3802 88.0313 18.6927 88.2344 19.0833C88.4375 19.474 88.5365 19.9635 88.5365 20.5521C88.5365 21.2292 88.401 21.7865 88.125 22.2292C87.8542 22.6719 87.4844 23.0208 87.0208 23.2708L89.0573 26.9167H86.2813L84.6615 23.7604H83.7083V26.9167" fill="#1C1C1B"/>
<path d="M90.026 26.9167H92.5156V17.5156H90.026V26.9167Z" fill="#1C1C1B"/>
<path d="M75.5364 43.5937V34.1926H81.6666V36.276H78.026V38.0676H81.1458V40.151H78.026V43.5937" fill="#1C1C1B"/>
<path d="M85.0781 39.0208L84.9166 39.6718H86.651L86.4948 39.0208C86.3802 38.5676 86.2604 38.078 86.1458 37.5468C86.0312 37.0155 85.9166 36.5155 85.7968 36.0416H85.7395C85.6354 36.526 85.526 37.0312 85.4166 37.552C85.3073 38.078 85.1927 38.5676 85.0781 39.0208ZM81.4635 43.5937L84.3229 34.1926H87.3281L90.1927 43.5937H87.5625L87.0989 41.5989H84.4687L84.0052 43.5937" fill="#1C1C1B"/>
<path d="M94.7187 43.7656C94.1249 43.7656 93.552 43.6667 93.0103 43.4688C92.4635 43.2708 91.9895 42.974 91.578 42.5729C91.1666 42.1719 90.8385 41.6719 90.5989 41.0677C90.3593 40.4688 90.2395 39.7656 90.2395 38.9635C90.2395 38.1771 90.3645 37.474 90.6145 36.8594C90.8645 36.25 91.1978 35.7344 91.6197 35.3125C92.0364 34.8958 92.5208 34.5729 93.0676 34.349C93.6145 34.1302 94.1822 34.0156 94.7812 34.0156C95.4062 34.0156 95.9687 34.1406 96.4583 34.3854C96.953 34.6354 97.3645 34.9271 97.703 35.2604L96.401 36.8542C96.1718 36.651 95.9322 36.4844 95.6874 36.3542C95.4374 36.224 95.1562 36.1563 94.8385 36.1563C94.5572 36.1563 94.2968 36.2188 94.052 36.349C93.8072 36.474 93.5885 36.651 93.401 36.8802C93.2135 37.1146 93.0624 37.401 92.953 37.7344C92.8385 38.0729 92.7864 38.4531 92.7864 38.875C92.7864 39.7656 92.9687 40.4479 93.3437 40.9167C93.7135 41.3906 94.203 41.625 94.8072 41.625C95.177 41.625 95.4999 41.5469 95.7864 41.3854C96.0676 41.2292 96.3124 41.0365 96.5155 40.8177L97.8176 42.375C97.4114 42.8438 96.9478 43.1875 96.4218 43.4167C95.8958 43.651 95.328 43.7656 94.7187 43.7656Z" fill="#1C1C1B"/>
<path d="M98.776 43.5937H101.26V34.1926H98.776V43.5937Z" fill="#1C1C1B"/>
<path d="M103.031 43.5937V34.1926H105.521V41.5103H109.078V43.5937" fill="#1C1C1B"/>
<path d="M110.188 43.5937V34.1926H116.266V36.276H112.677V37.7499H115.745V39.8333H112.677V41.5103H116.411V43.5937" fill="#1C1C1B"/>
<path d="M28.5624 26.0625C26.8697 28.5521 28.3072 31.8281 30.052 33.4896C31.6458 35 32.9218 35.3594 33.0885 35.401L33.901 33.8438L36.2447 40.2552L29.6197 41.599L30.4999 39.9688L29.6041 39.4635C26.8124 37.6458 26.2239 35.1771 26.0312 34.4063C25.6978 33.0781 25.203 29.1094 28.5624 26.0625Z" fill="#1C1C1B"/>
<path d="M28.5312 26.1718C29.7344 28.927 33.2708 29.4635 35.6042 28.8697C37.6771 28.3437 38.6615 27.4895 38.8281 27.3333L38.8177 27.3176L37.9323 25.7864L44.599 27.2395L42.1875 33.5572L41.2917 31.9687L40.4219 32.4374C37.3958 33.828 34.9896 33.0103 34.2344 32.7603C32.9375 32.3333 29.3125 30.6353 28.5312 26.1718Z" fill="#1C1C1B"/>
<path d="M40.3177 19.5156C39.8541 22.8125 37.8698 24.3958 37.25 24.8958C36.1875 25.7552 32.802 27.8854 28.6198 26.1354C31.5937 26.6094 33.9531 23.9271 34.7135 21.6406C35.401 19.5885 35.1979 18.2917 35.1562 18.0885H35.1354L33.3698 18.0104L38.1823 13.1719L42.2083 18.6094L40.3906 18.5052" fill="#1C1C1B"/>
<path fill-rule="evenodd" clip-rule="evenodd" d="M20.0938 16.7291C18.5729 16.7291 17.3438 15.4999 17.3438 13.9791C17.3438 12.4583 18.5729 11.2239 20.0938 11.2239C21.6146 11.2239 22.849 12.4583 22.849 13.9791C22.849 15.4999 21.6146 16.7291 20.0938 16.7291Z" fill="#1C1C1B"/>
<path d="M15.8333 30.1146C16.0677 29.4688 16.4167 29.5104 16.4167 29.5104C16.4167 29.5104 16.7344 29.4427 16.9115 30.0938L19.4844 39.125C17.3385 38.5052 15.3802 37.4375 13.7135 36.0313L15.8333 30.1146ZM23.8594 5.98438C13.9167 5.98438 5.82812 14.0729 5.82812 24.0208C5.82812 33.9583 13.9167 42.0521 23.8594 42.0521C24.3906 42.0521 24.9115 42.0156 25.4323 41.9688L25.5521 43.7813L28.8542 40.5885L25.1615 37.776L25.3021 39.6771C24.8281 39.7188 24.3438 39.75 23.8594 39.75C23.0938 39.75 22.3438 39.6927 21.6094 39.5885L21.5365 39.1094L19.8229 24.5104C19.5885 21.7552 21.1615 21.3125 22.1354 21.7292L27.6042 23.9219C28.2292 24.1927 28.5313 23.6719 28.5313 23.6719C28.5313 23.6719 28.8854 23.1198 28.25 22.7135C28.25 22.7135 20.7969 17.776 19.2083 17.4792C17.0417 17.0729 14.8958 18.8281 14.4219 21.1146L11.776 34.0833C9.5 31.349 8.125 27.8438 8.125 24.0208C8.125 15.3438 15.1823 8.28646 23.8594 8.28646C28.4948 8.28646 32.6667 10.3021 35.5469 13.4948L37.1615 11.8594C33.8646 8.25 29.1198 5.98438 23.8594 5.98438Z" fill="#1C1C1B"/>
<path d="M130.595 37.988C130.595 37.908 130.585 37.826 130.565 37.742C130.549 37.658 130.521 37.582 130.481 37.514C130.441 37.442 130.389 37.384 130.325 37.34C130.265 37.292 130.191 37.268 130.103 37.268C129.895 37.268 129.745 37.384 129.653 37.616C129.561 37.848 129.515 38.232 129.515 38.768C129.515 39.024 129.523 39.256 129.539 39.464C129.555 39.672 129.583 39.85 129.623 39.998C129.667 40.142 129.727 40.254 129.803 40.334C129.883 40.41 129.985 40.448 130.109 40.448C130.161 40.448 130.217 40.434 130.277 40.406C130.341 40.378 130.399 40.336 130.451 40.28C130.507 40.224 130.553 40.154 130.589 40.07C130.625 39.982 130.643 39.88 130.643 39.764V39.326H130.073V38.69H131.471V41H130.835V40.604H130.823C130.719 40.772 130.593 40.892 130.445 40.964C130.301 41.032 130.127 41.066 129.923 41.066C129.659 41.066 129.443 41.02 129.275 40.928C129.111 40.836 128.981 40.694 128.885 40.502C128.793 40.31 128.731 40.074 128.699 39.794C128.667 39.51 128.651 39.182 128.651 38.81C128.651 38.45 128.673 38.134 128.717 37.862C128.765 37.59 128.845 37.364 128.957 37.184C129.069 37 129.217 36.862 129.401 36.77C129.585 36.678 129.815 36.632 130.091 36.632C130.563 36.632 130.903 36.75 131.111 36.986C131.319 37.218 131.423 37.552 131.423 37.988H130.595ZM132.801 38.858C132.801 39.146 132.807 39.392 132.819 39.596C132.835 39.796 132.863 39.96 132.903 40.088C132.947 40.212 133.007 40.304 133.083 40.364C133.163 40.42 133.267 40.448 133.395 40.448C133.523 40.448 133.625 40.42 133.701 40.364C133.781 40.304 133.841 40.212 133.881 40.088C133.925 39.96 133.953 39.796 133.965 39.596C133.981 39.392 133.989 39.146 133.989 38.858C133.989 38.57 133.981 38.326 133.965 38.126C133.953 37.926 133.925 37.762 133.881 37.634C133.841 37.506 133.781 37.414 133.701 37.358C133.625 37.298 133.523 37.268 133.395 37.268C133.267 37.268 133.163 37.298 133.083 37.358C133.007 37.414 132.947 37.506 132.903 37.634C132.863 37.762 132.835 37.926 132.819 38.126C132.807 38.326 132.801 38.57 132.801 38.858ZM131.937 38.858C131.937 38.534 131.951 38.236 131.979 37.964C132.011 37.688 132.077 37.452 132.177 37.256C132.281 37.06 132.429 36.908 132.621 36.8C132.813 36.688 133.071 36.632 133.395 36.632C133.719 36.632 133.977 36.688 134.169 36.8C134.361 36.908 134.507 37.06 134.607 37.256C134.711 37.452 134.777 37.688 134.805 37.964C134.837 38.236 134.853 38.534 134.853 38.858C134.853 39.186 134.837 39.486 134.805 39.758C134.777 40.03 134.711 40.264 134.607 40.46C134.507 40.656 134.361 40.806 134.169 40.91C133.977 41.014 133.719 41.066 133.395 41.066C133.071 41.066 132.813 41.014 132.621 40.91C132.429 40.806 132.281 40.656 132.177 40.46C132.077 40.264 132.011 40.03 131.979 39.758C131.951 39.486 131.937 39.186 131.937 38.858ZM136.225 40.364H136.561C136.769 40.364 136.937 40.318 137.065 40.226C137.193 40.134 137.257 39.964 137.257 39.716C137.257 39.592 137.239 39.49 137.203 39.41C137.171 39.326 137.125 39.26 137.065 39.212C137.009 39.16 136.941 39.124 136.861 39.104C136.781 39.084 136.693 39.074 136.597 39.074H136.225V40.364ZM136.225 38.474H136.471C136.711 38.474 136.885 38.432 136.993 38.348C137.105 38.26 137.161 38.114 137.161 37.91C137.161 37.706 137.111 37.562 137.011 37.478C136.911 37.394 136.753 37.352 136.537 37.352H136.225V38.474ZM135.361 36.716H136.807C136.983 36.716 137.145 36.734 137.293 36.77C137.445 36.806 137.575 36.866 137.683 36.95C137.791 37.034 137.875 37.146 137.935 37.286C137.995 37.426 138.025 37.598 138.025 37.802C138.025 38.034 137.971 38.234 137.863 38.402C137.755 38.566 137.593 38.678 137.377 38.738V38.75C137.617 38.782 137.807 38.884 137.947 39.056C138.087 39.228 138.157 39.458 138.157 39.746C138.157 39.914 138.135 40.074 138.091 40.226C138.047 40.378 137.971 40.512 137.863 40.628C137.759 40.74 137.621 40.83 137.449 40.898C137.281 40.966 137.071 41 136.819 41H135.361V36.716ZM141.089 36.716V37.424H139.559V38.432H140.999V39.14H139.559V40.292H141.149V41H138.695V36.716H141.089ZM141.583 41V36.716H142.447V40.292H143.977V41H141.583ZM146.755 36.716V37.424H145.225V38.432H146.665V39.14H145.225V40.292H146.815V41H144.361V36.716H146.755ZM149.757 36.716V37.424H148.821V41H147.957V37.424H147.021V36.716H149.757ZM153.967 36.716V37.424H152.437V38.432H153.877V39.14H152.437V40.292H154.027V41H151.573V36.716H153.967ZM155.458 36.716L156.502 39.65H156.514V36.716H157.306V41H156.322L155.266 38H155.254V41H154.462V36.716H155.458ZM135.406 45.162C135.406 44.85 135.368 44.624 135.292 44.484C135.22 44.34 135.086 44.268 134.89 44.268C134.782 44.268 134.692 44.298 134.62 44.358C134.552 44.414 134.498 44.508 134.458 44.64C134.418 44.768 134.39 44.938 134.374 45.15C134.358 45.358 134.35 45.614 134.35 45.918C134.35 46.242 134.36 46.504 134.38 46.704C134.404 46.904 134.438 47.06 134.482 47.172C134.53 47.28 134.588 47.354 134.656 47.394C134.728 47.43 134.81 47.448 134.902 47.448C134.978 47.448 135.048 47.436 135.112 47.412C135.18 47.384 135.238 47.332 135.286 47.256C135.334 47.176 135.372 47.066 135.4 46.926C135.428 46.782 135.442 46.594 135.442 46.362H136.306C136.306 46.594 136.288 46.814 136.252 47.022C136.216 47.23 136.148 47.412 136.048 47.568C135.952 47.724 135.814 47.846 135.634 47.934C135.458 48.022 135.228 48.066 134.944 48.066C134.62 48.066 134.362 48.014 134.17 47.91C133.978 47.806 133.83 47.656 133.726 47.46C133.626 47.264 133.56 47.03 133.528 46.758C133.5 46.486 133.486 46.186 133.486 45.858C133.486 45.534 133.5 45.236 133.528 44.964C133.56 44.688 133.626 44.452 133.726 44.256C133.83 44.06 133.978 43.908 134.17 43.8C134.362 43.688 134.62 43.632 134.944 43.632C135.252 43.632 135.494 43.682 135.67 43.782C135.85 43.882 135.984 44.01 136.072 44.166C136.16 44.318 136.214 44.484 136.234 44.664C136.258 44.84 136.27 45.006 136.27 45.162H135.406ZM138.587 46.386L138.173 44.46H138.161L137.747 46.386H138.587ZM138.701 43.716L139.835 48H138.935L138.737 47.094H137.597L137.399 48H136.499L137.633 43.716H138.701ZM140.133 43.716H141.729C142.089 43.716 142.369 43.808 142.569 43.992C142.769 44.172 142.869 44.448 142.869 44.82C142.869 45.108 142.811 45.344 142.695 45.528C142.579 45.708 142.399 45.824 142.155 45.876V45.888C142.371 45.92 142.529 45.99 142.629 46.098C142.729 46.206 142.791 46.38 142.815 46.62C142.823 46.7 142.829 46.788 142.833 46.884C142.837 46.976 142.841 47.08 142.845 47.196C142.853 47.424 142.865 47.598 142.881 47.718C142.905 47.838 142.957 47.92 143.037 47.964V48H142.101C142.057 47.94 142.029 47.872 142.017 47.796C142.005 47.716 141.997 47.634 141.993 47.55L141.969 46.728C141.961 46.56 141.919 46.428 141.843 46.332C141.767 46.236 141.639 46.188 141.459 46.188H140.997V48H140.133V43.716ZM140.997 45.588H141.357C141.565 45.588 141.725 45.54 141.837 45.444C141.949 45.344 142.005 45.178 142.005 44.946C142.005 44.55 141.805 44.352 141.405 44.352H140.997V45.588ZM145.87 43.716V44.424H144.934V48H144.07V44.424H143.134V43.716H145.87ZM147.018 45.858C147.018 46.146 147.024 46.392 147.036 46.596C147.052 46.796 147.08 46.96 147.12 47.088C147.164 47.212 147.224 47.304 147.3 47.364C147.38 47.42 147.484 47.448 147.612 47.448C147.74 47.448 147.842 47.42 147.918 47.364C147.998 47.304 148.058 47.212 148.098 47.088C148.142 46.96 148.17 46.796 148.182 46.596C148.198 46.392 148.206 46.146 148.206 45.858C148.206 45.57 148.198 45.326 148.182 45.126C148.17 44.926 148.142 44.762 148.098 44.634C148.058 44.506 147.998 44.414 147.918 44.358C147.842 44.298 147.74 44.268 147.612 44.268C147.484 44.268 147.38 44.298 147.3 44.358C147.224 44.414 147.164 44.506 147.12 44.634C147.08 44.762 147.052 44.926 147.036 45.126C147.024 45.326 147.018 45.57 147.018 45.858ZM146.154 45.858C146.154 45.534 146.168 45.236 146.196 44.964C146.228 44.688 146.294 44.452 146.394 44.256C146.498 44.06 146.646 43.908 146.838 43.8C147.03 43.688 147.288 43.632 147.612 43.632C147.936 43.632 148.194 43.688 148.386 43.8C148.578 43.908 148.724 44.06 148.824 44.256C148.928 44.452 148.994 44.688 149.022 44.964C149.054 45.236 149.07 45.534 149.07 45.858C149.07 46.186 149.054 46.486 149.022 46.758C148.994 47.03 148.928 47.264 148.824 47.46C148.724 47.656 148.578 47.806 148.386 47.91C148.194 48.014 147.936 48.066 147.612 48.066C147.288 48.066 147.03 48.014 146.838 47.91C146.646 47.806 146.498 47.656 146.394 47.46C146.294 47.264 146.228 47.03 146.196 46.758C146.168 46.486 146.154 46.186 146.154 45.858ZM150.574 43.716L151.618 46.65H151.63V43.716H152.422V48H151.438L150.382 45H150.37V48H149.578V43.716H150.574Z" fill="#1C1C1B"/>
<path d="M148.17 20.9235C147.503 21.5749 145.54 22.1621 142.944 22.1621C140.387 22.1621 138.448 21.5933 137.751 20.9541L137.087 16.3578C138.497 17.0612 140.772 17.4281 142.965 17.4281C145.145 17.4281 147.408 17.0642 148.821 16.367L148.17 20.9235ZM142.965 32.1713C140.604 32.1713 139.155 31.3364 139.155 30.737C139.155 30.7248 139.151 30.7156 139.148 30.7064C139.148 30.6942 139.151 30.685 139.151 30.6758L138.381 25.3211C139.31 25.9388 140.974 26.3333 142.959 26.3333C144.947 26.3333 146.613 25.9358 147.543 25.318L146.778 30.6758C146.778 30.685 146.781 30.6972 146.781 30.7064C146.781 30.7156 146.775 30.7248 146.775 30.737C146.775 31.3364 145.326 32.1713 142.965 32.1713ZM148.035 21.8654C147.366 22.5107 145.463 23.0856 142.956 23.0856C140.454 23.0856 138.561 22.5168 137.882 21.8746L137.846 21.6147C138.959 22.2844 140.989 22.6361 142.944 22.6361C144.913 22.6361 146.971 22.2783 148.075 21.5963L148.035 21.8654ZM138.249 24.419C139.222 25.0245 140.928 25.4098 142.959 25.4098C144.992 25.4098 146.702 25.0214 147.671 24.4159L147.644 24.6177C147.047 25.2691 145.289 25.8593 142.959 25.8593C140.635 25.8593 138.879 25.2722 138.28 24.6208L138.249 24.419ZM147.904 22.7859C147.255 23.4312 145.396 24.0122 142.94 24.0122C140.537 24.0122 138.708 23.4587 138.02 22.8287L137.98 22.5443C139.069 23.211 141.051 23.5596 142.956 23.5596C144.864 23.5596 146.852 23.208 147.94 22.5382L147.904 22.7859ZM138.115 23.4954C139.191 24.1437 141.099 24.4862 142.94 24.4862C144.803 24.4862 146.742 24.1315 147.806 23.4679L147.769 23.7492C147.096 24.3792 145.307 24.9327 142.959 24.9327C140.613 24.9327 138.827 24.3823 138.155 23.7554L138.115 23.4954ZM142.965 12.8287C146.959 12.8287 149.408 13.9266 149.408 14.7156C149.408 14.8716 149.307 15.0398 149.121 15.211C149.112 15.2171 149.103 15.2232 149.093 15.2324C148.32 15.9083 146.127 16.5963 142.965 16.5963C139.769 16.5963 137.567 15.896 136.812 15.211C136.803 15.2018 136.794 15.1927 136.784 15.1865C136.613 15.0245 136.521 14.8624 136.521 14.7156C136.521 13.9266 138.974 12.8287 142.965 12.8287ZM150.24 14.7156C150.24 12.9511 146.491 12 142.965 12C139.439 12 135.693 12.9511 135.693 14.7156C135.693 15.0826 135.864 15.4128 136.155 15.7095L138.329 30.7951C138.329 30.7982 138.332 30.7982 138.332 30.8012C138.399 32.0581 140.366 33 142.965 33C145.564 33 147.534 32.0581 147.598 30.8012C147.598 30.7982 147.601 30.7951 147.601 30.792L149.748 15.737C150.057 15.4343 150.24 15.0917 150.24 14.7156Z" fill="#1C1C1B"/>
</g>
<defs>
<clipPath id="clip0_22_1531">
<rect width="227" height="61" fill="white"/>
</clipPath>
</defs>
</svg>
