<svg width="245" height="61" viewBox="0 0 245 61" fill="none" xmlns="http://www.w3.org/2000/svg">
<g clip-path="url(#clip0_72_4585)">
<path d="M24.6979 60.4688C11.0781 60.4688 0 49.5208 0 36.0625V0H219.948C233.563 0 244.641 10.9479 244.641 24.4062V60.4688" fill="white"/>
<path d="M222.083 52.9113H69.1353C59.6874 52.9113 51.9999 45.354 51.9999 36.0623V7.55713H204.948C214.396 7.55713 222.083 15.1144 222.083 24.4061V52.9113ZM204.948 5.6665H50.1145V36.0623C50.1145 46.3957 58.6458 54.8019 69.1353 54.8019H223.969V24.4061C223.969 14.0728 215.437 5.6665 204.948 5.6665Z" fill="#333347"/>
<path d="M181.714 54.8019L194.724 28.2238L181.432 5.6665H219.948C230.437 5.6665 238.969 14.0728 238.969 24.4061V54.8019" fill="#333347"/>
<path d="M102.901 5.6665H50.1145V36.0623C50.1145 46.3957 58.6458 54.8019 69.1353 54.8019H121.927V24.4061C121.927 14.0728 113.391 5.6665 102.901 5.6665Z" fill="#333347"/>
<path d="M63.651 29.3594C58.8489 29.3594 54.9583 33.25 54.9583 38.0521C54.9583 42.8542 58.8489 46.7448 63.651 46.7448C68.4583 46.7448 72.3489 42.8542 72.3489 38.0521C72.3489 33.25 68.4583 29.3594 63.651 29.3594Z" fill="white"/>
<path d="M69.3229 39.4689H65.0729V43.7189H62.2344V39.4689H57.9844V36.6356H62.2344V32.3804H65.0729V36.6356H69.3229" fill="#1C1C1B"/>
<path d="M55.7864 26.5936V17.1978H58.2708V24.5155H61.828V26.5936" fill="white"/>
<path d="M62.9426 26.5936V17.1978H69.0155V19.2759H65.4322V20.755H68.4947V22.8384H65.4322V24.5155H69.1614V26.5936" fill="white"/>
<path d="M75.0885 26.5936V19.2759H72.6041V17.1978H80.0677V19.2759H77.5781V26.5936" fill="white"/>
<path d="M83.5521 21.4738H84.4479C85.4479 21.4738 85.9531 21.0623 85.9531 20.2342C85.9531 19.828 85.8229 19.5467 85.5677 19.3957C85.3125 19.2394 84.9375 19.1613 84.4479 19.1613H83.5521V21.4738ZM81.0625 26.5988V17.1978H84.6198C85.125 17.1978 85.6042 17.2446 86.0625 17.3384C86.5208 17.4373 86.9167 17.5988 87.2604 17.8332C87.6042 18.0623 87.875 18.3748 88.0781 18.7655C88.2813 19.1561 88.3802 19.6457 88.3802 20.2342C88.3802 20.9061 88.2448 21.4686 87.9688 21.9113C87.6979 22.354 87.3281 22.6978 86.8646 22.953L88.901 26.5988H86.125L84.5052 23.4425H83.5521V26.5988" fill="white"/>
<path d="M89.8698 26.5988H92.3593V17.1978H89.8698V26.5988Z" fill="white"/>
<path d="M75.3801 43.2759V33.8696H81.5103V35.953H77.8697V37.7498H80.9895V39.8332H77.8697V43.2759" fill="white"/>
<path d="M84.9218 38.703L84.7604 39.354H86.4948L86.3385 38.703C86.2239 38.2498 86.1041 37.7603 85.9895 37.229C85.875 36.6978 85.7604 36.1978 85.6406 35.7238H85.5833C85.4791 36.203 85.3698 36.7082 85.2604 37.2342C85.151 37.7603 85.0364 38.2498 84.9218 38.703ZM81.3073 43.2759L84.1666 33.8696H87.1718L90.0364 43.2759H87.4062L86.9427 41.2759H84.3125L83.8489 43.2759" fill="white"/>
<path d="M94.5624 43.4478C93.9687 43.4478 93.3958 43.3488 92.8541 43.1509C92.3072 42.953 91.8333 42.6509 91.4218 42.255C91.0103 41.854 90.6822 41.354 90.4426 40.7498C90.203 40.1457 90.0833 39.4478 90.0833 38.6457C90.0833 37.854 90.2083 37.1509 90.4583 36.5415C90.7083 35.9269 91.0416 35.4113 91.4635 34.9946C91.8801 34.5728 92.3645 34.2498 92.9114 34.0311C93.4583 33.8071 94.026 33.6978 94.6249 33.6978C95.2499 33.6978 95.8124 33.8228 96.302 34.0675C96.7968 34.3123 97.2083 34.604 97.5468 34.9425L96.2447 36.5311C96.0155 36.3332 95.776 36.1665 95.5312 36.0311C95.2812 35.9061 94.9999 35.8384 94.6822 35.8384C94.401 35.8384 94.1405 35.9009 93.8958 36.0259C93.651 36.1509 93.4322 36.3332 93.2447 36.5623C93.0572 36.7915 92.9062 37.078 92.7968 37.4165C92.6822 37.7498 92.6301 38.1353 92.6301 38.5571C92.6301 39.4478 92.8124 40.1248 93.1874 40.5988C93.5572 41.0675 94.0468 41.3071 94.651 41.3071C95.0208 41.3071 95.3437 41.229 95.6301 41.0675C95.9114 40.9061 96.1562 40.7186 96.3593 40.4946L97.6614 42.0571C97.2551 42.5207 96.7916 42.8696 96.2655 43.0988C95.7395 43.3332 95.1718 43.4478 94.5624 43.4478Z" fill="white"/>
<path d="M98.6198 43.2759H101.104V33.8696H98.6198V43.2759Z" fill="white"/>
<path d="M102.875 43.2759V33.8696H105.365V41.1925H108.922V43.2759" fill="white"/>
<path d="M110.031 43.2759V33.8696H116.109V35.953H112.521V37.4321H115.589V39.5155H112.521V41.1925H116.255V43.2759" fill="white"/>
<path d="M28.4062 25.7446C26.7135 28.2342 28.151 31.5103 29.8958 33.1717C31.4895 34.6821 32.7655 35.0363 32.9322 35.078L33.7447 33.5207L36.0885 39.9321L29.4635 41.2811L30.3437 39.6457L29.4478 39.1457C26.6562 37.328 26.0676 34.8592 25.8749 34.0884C25.5416 32.7603 25.0468 28.7863 28.4062 25.7446Z" fill="#333347"/>
<path d="M28.375 25.8488C29.5781 28.6092 33.1146 29.1405 35.4479 28.5519C37.5208 28.0259 38.5052 27.1717 38.6719 27.0155L38.6615 26.9998L37.776 25.4634L44.4427 26.9217L42.0313 33.2394L41.1354 31.6457L40.2656 32.1196C37.2396 33.5103 34.8333 32.6925 34.0781 32.4425C32.7813 32.0155 29.1562 30.3123 28.375 25.8488Z" fill="#333347"/>
<path d="M40.1613 19.1925C39.6978 22.4894 37.7134 24.0728 37.0936 24.5728C36.0311 25.4373 32.6457 27.5675 28.4634 25.8175C31.4373 26.2915 33.7967 23.604 34.5571 21.3175C35.2446 19.2655 35.0415 17.9686 34.9998 17.7707L34.979 17.7655L33.2134 17.6925L38.0259 12.854L42.0519 18.2863L40.2342 18.1821" fill="#333347"/>
<path fill-rule="evenodd" clip-rule="evenodd" d="M19.9375 16.4115C18.4167 16.4115 17.1875 15.1823 17.1875 13.6563C17.1875 12.1354 18.4167 10.9062 19.9375 10.9062C21.4583 10.9062 22.6927 12.1354 22.6927 13.6563C22.6927 15.1823 21.4583 16.4115 19.9375 16.4115Z" fill="#333347"/>
<path d="M15.6771 29.7967C15.9115 29.1509 16.2604 29.1925 16.2604 29.1925C16.2604 29.1925 16.5781 29.1248 16.7552 29.7707L19.3281 38.8071C17.1823 38.1821 15.224 37.1196 13.5573 35.7082L15.6771 29.7967ZM23.7031 5.6665C13.7604 5.6665 5.67188 13.755 5.67188 23.6978C5.67188 33.6405 13.7604 41.729 23.7031 41.729C24.2344 41.729 24.7552 41.6978 25.276 41.6509L25.3958 43.4634L28.6979 40.2707L25.0052 37.453L25.1458 39.354C24.6719 39.4009 24.1875 39.4321 23.7031 39.4321C22.9375 39.4321 22.1875 39.3748 21.4531 39.2655L21.3802 38.7863L19.6667 24.1873C19.4323 21.4321 21.0052 20.9946 21.9792 21.4061L27.4479 23.604C28.0729 23.8748 28.375 23.3488 28.375 23.3488C28.375 23.3488 28.7292 22.8019 28.0938 22.3957C28.0938 22.3957 20.6406 17.4582 19.0521 17.1561C16.8854 16.755 14.7396 18.5103 14.2656 20.7967L11.6198 33.7603C9.34375 31.0311 7.96875 27.5207 7.96875 23.6978C7.96875 15.0207 15.026 7.96338 23.7031 7.96338C28.3385 7.96338 32.5104 9.979 35.3906 13.1769L37.0052 11.5363C33.7083 7.93213 28.9635 5.6665 23.7031 5.6665Z" fill="#333347"/>
<path d="M129.6 26.432H131.328V29.708H133.344V26.432H135.072V35H133.344V31.196H131.328V35H129.6V26.432ZM139.844 31.772L139.016 27.92H138.992L138.164 31.772H139.844ZM140.072 26.432L142.34 35H140.54L140.144 33.188H137.864L137.468 35H135.668L137.936 26.432H140.072ZM142.936 35V26.432H144.664V33.584H147.724V35H142.936ZM150.039 30.716C150.039 31.292 150.051 31.784 150.075 32.192C150.107 32.592 150.163 32.92 150.243 33.176C150.331 33.424 150.451 33.608 150.603 33.728C150.763 33.84 150.971 33.896 151.227 33.896C151.483 33.896 151.687 33.84 151.839 33.728C151.999 33.608 152.119 33.424 152.199 33.176C152.287 32.92 152.343 32.592 152.367 32.192C152.399 31.784 152.415 31.292 152.415 30.716C152.415 30.14 152.399 29.652 152.367 29.252C152.343 28.852 152.287 28.524 152.199 28.268C152.119 28.012 151.999 27.828 151.839 27.716C151.687 27.596 151.483 27.536 151.227 27.536C150.971 27.536 150.763 27.596 150.603 27.716C150.451 27.828 150.331 28.012 150.243 28.268C150.163 28.524 150.107 28.852 150.075 29.252C150.051 29.652 150.039 30.14 150.039 30.716ZM148.311 30.716C148.311 30.068 148.339 29.472 148.395 28.928C148.459 28.376 148.591 27.904 148.791 27.512C148.999 27.12 149.295 26.816 149.679 26.6C150.063 26.376 150.579 26.264 151.227 26.264C151.875 26.264 152.391 26.376 152.775 26.6C153.159 26.816 153.451 27.12 153.651 27.512C153.859 27.904 153.991 28.376 154.047 28.928C154.111 29.472 154.143 30.068 154.143 30.716C154.143 31.372 154.111 31.972 154.047 32.516C153.991 33.06 153.859 33.528 153.651 33.92C153.451 34.312 153.159 34.612 152.775 34.82C152.391 35.028 151.875 35.132 151.227 35.132C150.579 35.132 150.063 35.028 149.679 34.82C149.295 34.612 148.999 34.312 148.791 33.92C148.591 33.528 148.459 33.06 148.395 32.516C148.339 31.972 148.311 31.372 148.311 30.716ZM158.963 28.976C158.963 28.816 158.943 28.652 158.903 28.484C158.871 28.316 158.815 28.164 158.735 28.028C158.655 27.884 158.551 27.768 158.423 27.68C158.303 27.584 158.155 27.536 157.979 27.536C157.563 27.536 157.263 27.768 157.079 28.232C156.895 28.696 156.803 29.464 156.803 30.536C156.803 31.048 156.819 31.512 156.851 31.928C156.883 32.344 156.939 32.7 157.019 32.996C157.107 33.284 157.227 33.508 157.379 33.668C157.539 33.82 157.743 33.896 157.991 33.896C158.095 33.896 158.207 33.868 158.327 33.812C158.455 33.756 158.571 33.672 158.675 33.56C158.787 33.448 158.879 33.308 158.951 33.14C159.023 32.964 159.059 32.76 159.059 32.528V31.652H157.919V30.38H160.715V35H159.443V34.208H159.419C159.211 34.544 158.959 34.784 158.663 34.928C158.375 35.064 158.027 35.132 157.619 35.132C157.091 35.132 156.659 35.04 156.323 34.856C155.995 34.672 155.735 34.388 155.543 34.004C155.359 33.62 155.235 33.148 155.171 32.588C155.107 32.02 155.075 31.364 155.075 30.62C155.075 29.9 155.119 29.268 155.207 28.724C155.303 28.18 155.463 27.728 155.687 27.368C155.911 27 156.207 26.724 156.575 26.54C156.943 26.356 157.403 26.264 157.955 26.264C158.899 26.264 159.579 26.5 159.995 26.972C160.411 27.436 160.619 28.104 160.619 28.976H158.963ZM163.915 25.928L162.739 24.2H164.395L165.043 25.928H163.915ZM166.615 26.432V27.848H163.555V29.864H166.435V31.28H163.555V33.584H166.735V35H161.827V26.432H166.615ZM169.596 26.432L171.684 32.3H171.708V26.432H173.292V35H171.324L169.212 29H169.188V35H167.604V26.432H169.596ZM179.283 26.432V27.848H176.223V29.864H179.103V31.28H176.223V33.584H179.403V35H174.495V26.432H179.283Z" fill="black"/>
<path fill-rule="evenodd" clip-rule="evenodd" d="M211.197 12.9917C210.489 12.7271 209.997 12.6406 209.67 12.6452C209.338 12.6499 209.233 12.7457 209.211 12.7697C209.191 12.7911 209.158 12.8426 209.156 12.9856C209.155 13.0935 209.173 13.2211 209.209 13.3514L213.625 17.6963H216.528C217.034 17.0728 218.172 15.8497 220.078 14.1794C220.602 13.7203 220.792 13.4037 220.848 13.2371C220.879 13.1441 220.868 13.1284 220.843 13.0951L220.839 13.0896C220.774 13.001 220.62 12.8791 220.352 12.7673C220.11 12.6663 219.831 12.5973 219.575 12.5601C219.389 12.5649 219.251 12.6081 219.006 12.6965L218.957 12.7142C218.87 12.7457 218.807 12.7781 218.743 12.811C218.611 12.8791 218.474 12.9492 218.116 13.0172C217.548 13.1251 217.141 13.1334 216.683 13.0237C216.386 12.9524 216.057 12.826 215.66 12.6733L215.66 12.6732L215.66 12.6732C215.522 12.6199 215.375 12.5634 215.218 12.505L215.215 12.5046C215.205 12.5034 215.171 12.4992 215.103 12.5017C215.005 12.5053 214.878 12.5207 214.721 12.5484C214.412 12.603 214.047 12.694 213.66 12.7904L213.637 12.7962C213.255 12.8913 212.848 12.9925 212.508 13.0468C212.338 13.0739 212.162 13.0935 211.999 13.0896C211.986 13.0893 211.969 13.0891 211.947 13.0889H211.947C211.777 13.0872 211.364 13.0832 211.197 12.9917ZM213.237 11.3164C212.706 11.4374 211.732 11.5442 211.732 11.5442C211.164 11.5236 210.749 11.4099 210.402 11.3145C210.125 11.2386 209.891 11.1743 209.654 11.1777C209.117 11.1852 208.651 11.3462 208.316 11.7135C207.98 12.0836 207.873 12.5579 207.868 12.9653C207.863 13.3667 207.954 13.7551 208.067 14.0649L208.126 14.2248L212.043 18.0789C210.564 18.4041 208.986 19.063 207.531 20.2082C204.761 22.3897 202.542 26.2534 202.227 32.6479C202.207 33.0641 202.184 33.4866 202.161 33.912C202.068 35.6616 201.972 37.462 202.008 39.0902C202.052 41.0844 202.292 43.0034 203.107 44.3151C204.572 46.6711 206.968 47.8112 209.268 48.348C211.56 48.883 213.85 48.8422 215.268 48.7579C216.563 48.7331 218.698 48.6558 220.887 48.1961C223.067 47.7382 225.413 46.8786 227.016 45.2058C228.305 43.8598 228.744 41.8774 228.878 39.7527C228.983 38.0805 228.904 36.1896 228.823 34.2644L228.823 34.2638C228.8 33.7301 228.778 33.1937 228.759 32.6587C228.548 26.6489 226.338 22.879 223.569 20.6473C221.772 19.1991 219.772 18.4248 218.001 18.0891C218.574 17.4656 219.506 16.5318 220.863 15.3427C221.456 14.8235 221.868 14.3043 222.051 13.7626C222.256 13.1522 222.144 12.5834 221.83 12.152C221.553 11.7717 221.15 11.5369 220.794 11.3889C220.425 11.2351 220.029 11.1428 219.687 11.097L219.649 11.092H219.611C219.197 11.092 218.898 11.1959 218.617 11.2976L218.57 11.3145C218.314 11.4071 218.037 11.5078 217.597 11.5912C217.212 11.6645 217.189 11.6582 217.042 11.6184L217.042 11.6184C217.013 11.6105 216.98 11.6013 216.937 11.5912C216.72 11.539 216.496 11.4529 216.141 11.3164C216.127 11.311 216.103 11.2985 216.069 11.2814C215.905 11.1967 215.523 11 215.086 11C214.442 11 213.825 11.163 213.453 11.2614L213.453 11.2614L213.453 11.2615L213.453 11.2615C213.367 11.2841 213.295 11.3034 213.237 11.3164ZM208.478 21.4108C206.129 23.2603 204.054 26.6676 203.756 32.7231C203.735 33.1559 203.712 33.5897 203.689 34.0222C203.596 35.7668 203.504 37.492 203.538 39.0565C203.582 41.0386 203.83 42.5793 204.407 43.5068C205.575 45.3858 207.528 46.37 209.616 46.8573C211.702 47.3443 213.827 47.3108 215.192 47.2289L215.207 47.228L215.223 47.2277C216.495 47.2037 218.521 47.1289 220.572 46.6981C222.641 46.2636 224.624 45.489 225.91 44.1468C226.806 43.2119 227.221 41.7042 227.35 39.6564C227.45 38.0726 227.375 36.2919 227.295 34.3813C227.272 33.835 227.249 33.2782 227.229 32.7124C227.032 27.0884 224.989 23.7575 222.609 21.8391C220.802 20.3832 218.757 19.7053 217.07 19.4905C218.467 20.9563 220.051 22.4306 220.916 22.9628L220.114 24.2664C219.751 23.9038 219.206 23.4291 218.577 22.8815L218.577 22.8815C217.672 22.0929 216.593 21.1533 215.636 20.1804C215.589 20.8038 215.548 21.5006 215.531 22.1621C215.516 22.7319 215.52 23.2613 215.55 23.6891C215.565 23.9031 215.586 24.0802 215.611 24.218C215.624 24.2864 215.636 24.3394 215.648 24.3787C215.659 24.4162 215.666 24.4328 215.667 24.4343L215.777 25.0318L214.298 25.119C214.12 24.7626 214.055 24.2519 214.023 23.7962C213.988 23.2997 213.985 22.7161 214.001 22.123C214.013 21.6509 214.036 21.1638 214.066 20.6965C212.822 21.8971 211.513 22.9378 210.548 23.7056L210.547 23.7058L210.547 23.7061C210.412 23.8133 210.284 23.9151 210.164 24.0113L209.362 22.7076C210.212 22.115 211.785 20.8255 213.179 19.4313C211.695 19.6286 210.007 20.2073 208.478 21.4108Z" fill="white"/>
</g>
<defs>
<clipPath id="clip0_72_4585">
<rect width="245" height="61" fill="white"/>
</clipPath>
</defs>
</svg>
