<svg width="240" height="61" viewBox="0 0 240 61" fill="none" xmlns="http://www.w3.org/2000/svg">
<g clip-path="url(#clip0_79_54)">
<path d="M24.6979 60.4688C11.0781 60.4688 0 49.5208 0 36.0625V0H214.948C228.563 0 239.641 10.9479 239.641 24.4062V60.4688" fill="white"/>
<path d="M222.083 52.9113H69.1353C59.6874 52.9113 51.9999 45.354 51.9999 36.0623V7.55713H204.948C214.396 7.55713 222.083 15.1144 222.083 24.4061V52.9113ZM204.948 5.6665H50.1145V36.0623C50.1145 46.3957 58.6458 54.8019 69.1353 54.8019H223.969V24.4061C223.969 14.0728 215.437 5.6665 204.948 5.6665Z" fill="#333347"/>
<path d="M176.714 54.8019L189.724 28.2238L176.432 5.6665H214.948C225.437 5.6665 233.969 14.0728 233.969 24.4061V54.8019" fill="#333347"/>
<path d="M102.901 5.6665H50.1145V36.0623C50.1145 46.3957 58.6458 54.8019 69.1353 54.8019H121.927V24.4061C121.927 14.0728 113.391 5.6665 102.901 5.6665Z" fill="#333347"/>
<path d="M63.651 29.3594C58.8489 29.3594 54.9583 33.25 54.9583 38.0521C54.9583 42.8542 58.8489 46.7448 63.651 46.7448C68.4583 46.7448 72.3489 42.8542 72.3489 38.0521C72.3489 33.25 68.4583 29.3594 63.651 29.3594Z" fill="white"/>
<path d="M69.3229 39.4689H65.0729V43.7189H62.2344V39.4689H57.9844V36.6356H62.2344V32.3804H65.0729V36.6356H69.3229" fill="#1C1C1B"/>
<path d="M55.7864 26.5936V17.1978H58.2708V24.5155H61.828V26.5936" fill="white"/>
<path d="M62.9426 26.5936V17.1978H69.0155V19.2759H65.4322V20.755H68.4947V22.8384H65.4322V24.5155H69.1614V26.5936" fill="white"/>
<path d="M75.0885 26.5936V19.2759H72.6041V17.1978H80.0677V19.2759H77.5781V26.5936" fill="white"/>
<path d="M83.5521 21.4738H84.4479C85.4479 21.4738 85.9531 21.0623 85.9531 20.2342C85.9531 19.828 85.8229 19.5467 85.5677 19.3957C85.3125 19.2394 84.9375 19.1613 84.4479 19.1613H83.5521V21.4738ZM81.0625 26.5988V17.1978H84.6198C85.125 17.1978 85.6042 17.2446 86.0625 17.3384C86.5208 17.4373 86.9167 17.5988 87.2604 17.8332C87.6042 18.0623 87.875 18.3748 88.0781 18.7655C88.2813 19.1561 88.3802 19.6457 88.3802 20.2342C88.3802 20.9061 88.2448 21.4686 87.9688 21.9113C87.6979 22.354 87.3281 22.6978 86.8646 22.953L88.901 26.5988H86.125L84.5052 23.4425H83.5521V26.5988" fill="white"/>
<path d="M89.8698 26.5988H92.3593V17.1978H89.8698V26.5988Z" fill="white"/>
<path d="M75.3801 43.2759V33.8696H81.5103V35.953H77.8697V37.7498H80.9895V39.8332H77.8697V43.2759" fill="white"/>
<path d="M84.9218 38.703L84.7604 39.354H86.4948L86.3385 38.703C86.2239 38.2498 86.1041 37.7603 85.9895 37.229C85.875 36.6978 85.7604 36.1978 85.6406 35.7238H85.5833C85.4791 36.203 85.3698 36.7082 85.2604 37.2342C85.151 37.7603 85.0364 38.2498 84.9218 38.703ZM81.3073 43.2759L84.1666 33.8696H87.1718L90.0364 43.2759H87.4062L86.9427 41.2759H84.3125L83.8489 43.2759" fill="white"/>
<path d="M94.5624 43.4478C93.9687 43.4478 93.3958 43.3488 92.8541 43.1509C92.3072 42.953 91.8333 42.6509 91.4218 42.255C91.0103 41.854 90.6822 41.354 90.4426 40.7498C90.203 40.1457 90.0833 39.4478 90.0833 38.6457C90.0833 37.854 90.2083 37.1509 90.4583 36.5415C90.7083 35.9269 91.0416 35.4113 91.4635 34.9946C91.8801 34.5728 92.3645 34.2498 92.9114 34.0311C93.4583 33.8071 94.026 33.6978 94.6249 33.6978C95.2499 33.6978 95.8124 33.8228 96.302 34.0675C96.7968 34.3123 97.2083 34.604 97.5468 34.9425L96.2447 36.5311C96.0155 36.3332 95.776 36.1665 95.5312 36.0311C95.2812 35.9061 94.9999 35.8384 94.6822 35.8384C94.401 35.8384 94.1405 35.9009 93.8958 36.0259C93.651 36.1509 93.4322 36.3332 93.2447 36.5623C93.0572 36.7915 92.9062 37.078 92.7968 37.4165C92.6822 37.7498 92.6301 38.1353 92.6301 38.5571C92.6301 39.4478 92.8124 40.1248 93.1874 40.5988C93.5572 41.0675 94.0468 41.3071 94.651 41.3071C95.0208 41.3071 95.3437 41.229 95.6301 41.0675C95.9114 40.9061 96.1562 40.7186 96.3593 40.4946L97.6614 42.0571C97.2551 42.5207 96.7916 42.8696 96.2655 43.0988C95.7395 43.3332 95.1718 43.4478 94.5624 43.4478Z" fill="white"/>
<path d="M98.6198 43.2759H101.104V33.8696H98.6198V43.2759Z" fill="white"/>
<path d="M102.875 43.2759V33.8696H105.365V41.1925H108.922V43.2759" fill="white"/>
<path d="M110.031 43.2759V33.8696H116.109V35.953H112.521V37.4321H115.589V39.5155H112.521V41.1925H116.255V43.2759" fill="white"/>
<path d="M28.4062 25.7446C26.7135 28.2342 28.151 31.5103 29.8958 33.1717C31.4895 34.6821 32.7655 35.0363 32.9322 35.078L33.7447 33.5207L36.0885 39.9321L29.4635 41.2811L30.3437 39.6457L29.4478 39.1457C26.6562 37.328 26.0676 34.8592 25.8749 34.0884C25.5416 32.7603 25.0468 28.7863 28.4062 25.7446Z" fill="#333347"/>
<path d="M28.375 25.8488C29.5781 28.6092 33.1146 29.1405 35.4479 28.5519C37.5208 28.0259 38.5052 27.1717 38.6719 27.0155L38.6615 26.9998L37.776 25.4634L44.4427 26.9217L42.0313 33.2394L41.1354 31.6457L40.2656 32.1196C37.2396 33.5103 34.8333 32.6925 34.0781 32.4425C32.7813 32.0155 29.1562 30.3123 28.375 25.8488Z" fill="#333347"/>
<path d="M40.1613 19.1925C39.6978 22.4894 37.7134 24.0728 37.0936 24.5728C36.0311 25.4373 32.6457 27.5675 28.4634 25.8175C31.4373 26.2915 33.7967 23.604 34.5571 21.3175C35.2446 19.2655 35.0415 17.9686 34.9998 17.7707L34.979 17.7655L33.2134 17.6925L38.0259 12.854L42.0519 18.2863L40.2342 18.1821" fill="#333347"/>
<path fill-rule="evenodd" clip-rule="evenodd" d="M19.9375 16.4115C18.4167 16.4115 17.1875 15.1823 17.1875 13.6563C17.1875 12.1354 18.4167 10.9062 19.9375 10.9062C21.4583 10.9062 22.6927 12.1354 22.6927 13.6563C22.6927 15.1823 21.4583 16.4115 19.9375 16.4115Z" fill="#333347"/>
<path d="M15.6771 29.7967C15.9115 29.1509 16.2604 29.1925 16.2604 29.1925C16.2604 29.1925 16.5781 29.1248 16.7552 29.7707L19.3281 38.8071C17.1823 38.1821 15.224 37.1196 13.5573 35.7082L15.6771 29.7967ZM23.7031 5.6665C13.7604 5.6665 5.67188 13.755 5.67188 23.6978C5.67188 33.6405 13.7604 41.729 23.7031 41.729C24.2344 41.729 24.7552 41.6978 25.276 41.6509L25.3958 43.4634L28.6979 40.2707L25.0052 37.453L25.1458 39.354C24.6719 39.4009 24.1875 39.4321 23.7031 39.4321C22.9375 39.4321 22.1875 39.3748 21.4531 39.2655L21.3802 38.7863L19.6667 24.1873C19.4323 21.4321 21.0052 20.9946 21.9792 21.4061L27.4479 23.604C28.0729 23.8748 28.375 23.3488 28.375 23.3488C28.375 23.3488 28.7292 22.8019 28.0938 22.3957C28.0938 22.3957 20.6406 17.4582 19.0521 17.1561C16.8854 16.755 14.7396 18.5103 14.2656 20.7967L11.6198 33.7603C9.34375 31.0311 7.96875 27.5207 7.96875 23.6978C7.96875 15.0207 15.026 7.96338 23.7031 7.96338C28.3385 7.96338 32.5104 9.979 35.3906 13.1769L37.0052 11.5363C33.7083 7.93213 28.9635 5.6665 23.7031 5.6665Z" fill="#333347"/>
<path d="M129.6 18.432H131.328V21.708H133.344V18.432H135.072V27H133.344V23.196H131.328V27H129.6V18.432ZM137.888 18.432V24.408C137.888 24.624 137.9 24.824 137.924 25.008C137.956 25.184 138.008 25.34 138.08 25.476C138.16 25.604 138.264 25.708 138.392 25.788C138.528 25.86 138.696 25.896 138.896 25.896C139.104 25.896 139.272 25.86 139.4 25.788C139.528 25.708 139.628 25.604 139.7 25.476C139.78 25.34 139.832 25.184 139.856 25.008C139.888 24.824 139.904 24.624 139.904 24.408V18.432H141.632V24.408C141.632 24.952 141.556 25.404 141.404 25.764C141.252 26.116 141.048 26.396 140.792 26.604C140.536 26.812 140.244 26.952 139.916 27.024C139.588 27.096 139.248 27.132 138.896 27.132C138.544 27.132 138.204 27.1 137.876 27.036C137.548 26.972 137.256 26.844 137 26.652C136.744 26.452 136.54 26.172 136.388 25.812C136.236 25.452 136.16 24.984 136.16 24.408V18.432H137.888ZM142.809 27V18.432H144.537V27H142.809ZM145.819 27V18.432H147.547V25.584H150.607V27H145.819ZM156.161 18.432V19.848H153.101V21.864H155.981V23.28H153.101V25.584H156.281V27H151.373V18.432H156.161ZM161.846 25.728H162.614C162.918 25.728 163.162 25.676 163.346 25.572C163.53 25.468 163.674 25.296 163.778 25.056C163.89 24.816 163.962 24.5 163.994 24.108C164.034 23.716 164.054 23.228 164.054 22.644C164.054 22.156 164.038 21.728 164.006 21.36C163.974 20.992 163.906 20.688 163.802 20.448C163.706 20.2 163.558 20.016 163.358 19.896C163.166 19.768 162.906 19.704 162.578 19.704H161.846V25.728ZM160.118 18.432H162.95C163.55 18.432 164.034 18.532 164.402 18.732C164.77 18.924 165.054 19.204 165.254 19.572C165.462 19.932 165.602 20.368 165.674 20.88C165.746 21.392 165.782 21.964 165.782 22.596C165.782 23.348 165.734 24.004 165.638 24.564C165.55 25.116 165.394 25.572 165.17 25.932C164.946 26.292 164.646 26.56 164.27 26.736C163.894 26.912 163.418 27 162.842 27H160.118V18.432ZM171.712 18.432V19.848H168.652V21.864H171.532V23.28H168.652V25.584H171.832V27H166.924V18.432H171.712ZM129.6 33.432H134.388V34.848H131.328V36.864H134.208V38.28H131.328V42H129.6V33.432ZM135.155 33.432H138.347C139.067 33.432 139.627 33.616 140.027 33.984C140.427 34.344 140.627 34.896 140.627 35.64C140.627 36.216 140.511 36.688 140.279 37.056C140.047 37.416 139.687 37.648 139.199 37.752V37.776C139.631 37.84 139.947 37.98 140.147 38.196C140.347 38.412 140.471 38.76 140.519 39.24C140.535 39.4 140.547 39.576 140.555 39.768C140.563 39.952 140.571 40.16 140.579 40.392C140.595 40.848 140.619 41.196 140.651 41.436C140.699 41.676 140.803 41.84 140.963 41.928V42H139.091C139.003 41.88 138.947 41.744 138.923 41.592C138.899 41.432 138.883 41.268 138.875 41.1L138.827 39.456C138.811 39.12 138.727 38.856 138.575 38.664C138.423 38.472 138.167 38.376 137.807 38.376H136.883V42H135.155V33.432ZM136.883 37.176H137.603C138.019 37.176 138.339 37.08 138.563 36.888C138.787 36.688 138.899 36.356 138.899 35.892C138.899 35.1 138.499 34.704 137.699 34.704H136.883V37.176ZM141.907 42V33.432H143.635V42H141.907ZM149.932 33.432V34.848H148.06V42H146.332V34.848H144.46V33.432H149.932ZM152.302 33.432V39.408C152.302 39.624 152.314 39.824 152.338 40.008C152.37 40.184 152.422 40.34 152.494 40.476C152.574 40.604 152.678 40.708 152.806 40.788C152.942 40.86 153.11 40.896 153.31 40.896C153.518 40.896 153.686 40.86 153.814 40.788C153.942 40.708 154.042 40.604 154.114 40.476C154.194 40.34 154.246 40.184 154.27 40.008C154.302 39.824 154.318 39.624 154.318 39.408V33.432H156.046V39.408C156.046 39.952 155.97 40.404 155.818 40.764C155.666 41.116 155.462 41.396 155.206 41.604C154.95 41.812 154.658 41.952 154.33 42.024C154.002 42.096 153.662 42.132 153.31 42.132C152.958 42.132 152.618 42.1 152.29 42.036C151.962 41.972 151.67 41.844 151.414 41.652C151.158 41.452 150.954 41.172 150.802 40.812C150.65 40.452 150.574 39.984 150.574 39.408V33.432H152.302ZM157.139 33.432H160.331C161.051 33.432 161.611 33.616 162.011 33.984C162.411 34.344 162.611 34.896 162.611 35.64C162.611 36.216 162.495 36.688 162.263 37.056C162.031 37.416 161.671 37.648 161.183 37.752V37.776C161.615 37.84 161.931 37.98 162.131 38.196C162.331 38.412 162.455 38.76 162.503 39.24C162.519 39.4 162.531 39.576 162.539 39.768C162.547 39.952 162.555 40.16 162.563 40.392C162.579 40.848 162.603 41.196 162.635 41.436C162.683 41.676 162.787 41.84 162.947 41.928V42H161.075C160.987 41.88 160.931 41.744 160.907 41.592C160.883 41.432 160.867 41.268 160.859 41.1L160.811 39.456C160.795 39.12 160.711 38.856 160.559 38.664C160.407 38.472 160.151 38.376 159.791 38.376H158.867V42H157.139V33.432ZM158.867 37.176H159.587C160.003 37.176 160.323 37.08 160.547 36.888C160.771 36.688 160.883 36.356 160.883 35.892C160.883 35.1 160.483 34.704 159.683 34.704H158.867V37.176ZM168.595 33.432V34.848H165.535V36.864H168.415V38.28H165.535V40.584H168.715V42H163.807V33.432H168.595Z" fill="black"/>
<path d="M194.369 44.7H195.881C196.373 44.7 196.742 44.832 196.988 45.096C197.234 45.36 197.357 45.747 197.357 46.257V49.443C197.357 49.953 197.234 50.34 196.988 50.604C196.742 50.868 196.373 51 195.881 51H194.369V44.7ZM195.863 50.1C196.025 50.1 196.148 50.052 196.232 49.956C196.322 49.86 196.367 49.704 196.367 49.488V46.212C196.367 45.996 196.322 45.84 196.232 45.744C196.148 45.648 196.025 45.6 195.863 45.6H195.359V50.1H195.863ZM198.025 44.7H200.725V45.6H199.015V47.265H200.374V48.165H199.015V50.1H200.725V51H198.025V44.7ZM199.465 43.242H200.545L199.582 44.277H198.835L199.465 43.242ZM202.69 51.09C202.216 51.09 201.853 50.955 201.601 50.685C201.355 50.415 201.232 50.034 201.232 49.542V46.158C201.232 45.666 201.355 45.285 201.601 45.015C201.853 44.745 202.216 44.61 202.69 44.61C203.164 44.61 203.524 44.745 203.77 45.015C204.022 45.285 204.148 45.666 204.148 46.158V46.824H203.212V46.095C203.212 45.705 203.047 45.51 202.717 45.51C202.387 45.51 202.222 45.705 202.222 46.095V49.614C202.222 49.998 202.387 50.19 202.717 50.19C203.047 50.19 203.212 49.998 203.212 49.614V48.651H204.148V49.542C204.148 50.034 204.022 50.415 203.77 50.685C203.524 50.955 203.164 51.09 202.69 51.09ZM204.74 44.7H205.73V47.265H206.792V44.7H207.782V51H206.792V48.165H205.73V51H204.74V44.7ZM208.519 44.7H211.219V45.6H209.509V47.265H210.868V48.165H209.509V50.1H211.219V51H208.519V44.7ZM208.699 43.242H209.779L210.409 44.277H209.662L208.699 43.242ZM212.563 45.6H211.528V44.7H214.588V45.6H213.553V51H212.563V45.6ZM215.067 44.7H217.767V45.6H216.057V47.265H217.416V48.165H216.057V50.1H217.767V51H215.067V44.7ZM218.337 44.7H219.804C220.314 44.7 220.686 44.82 220.92 45.06C221.154 45.294 221.271 45.657 221.271 46.149V46.536C221.271 47.19 221.055 47.604 220.623 47.778V47.796C220.863 47.868 221.031 48.015 221.127 48.237C221.229 48.459 221.28 48.756 221.28 49.128V50.235C221.28 50.415 221.286 50.562 221.298 50.676C221.31 50.784 221.34 50.892 221.388 51H220.38C220.344 50.898 220.32 50.802 220.308 50.712C220.296 50.622 220.29 50.46 220.29 50.226V49.074C220.29 48.786 220.242 48.585 220.146 48.471C220.056 48.357 219.897 48.3 219.669 48.3H219.327V51H218.337V44.7ZM219.687 47.4C219.885 47.4 220.032 47.349 220.128 47.247C220.23 47.145 220.281 46.974 220.281 46.734V46.248C220.281 46.02 220.239 45.855 220.155 45.753C220.077 45.651 219.951 45.6 219.777 45.6H219.327V47.4H219.687ZM221.967 44.7H222.957V51H221.967V44.7ZM223.698 44.7H226.398V45.6H224.688V47.265H226.047V48.165H224.688V50.1H226.398V51H223.698V44.7Z" fill="white"/>
<path d="M217.293 19.8255C217.293 20.2895 216.562 20.2895 216.562 20.7124V21.4269C216.562 21.8087 217.293 21.702 217.293 22.1043V23.3279C217.293 23.6851 216.562 23.5168 216.562 24.067V30.1438C216.562 30.6488 217.293 30.8172 217.293 31.2811V32.2296C217.293 32.5909 216.562 32.632 216.562 32.9276V33.5394C216.562 33.7078 217.293 34.0855 217.293 34.6973V37.3374C217.293 37.9287 217.272 38.7499 210.67 38.7499C204.063 38.7499 204.043 37.9287 204.043 37.3374V34.6973C204.043 34.0855 204.778 33.7078 204.778 33.5394V32.9276C204.778 32.632 204.043 32.5909 204.043 32.2296V31.2811C204.043 30.8172 204.778 30.6488 204.778 30.1438V24.067C204.778 23.5168 204.043 23.6851 204.043 23.3279V22.1043C204.043 21.702 204.778 21.8087 204.778 21.4269V20.7124C204.778 20.2895 204.043 20.2895 204.043 19.8255V18.1585C204.043 17.5262 204.975 17.1895 206.367 16.512C207.759 15.8387 209.742 15.038 209.742 14.6561V13.876H211.598V14.6561C211.598 15.038 213.581 15.8387 214.973 16.512C216.365 17.1895 217.293 17.5262 217.293 18.1585V19.8255ZM209.249 11.047H211.992V12.829H209.249V11.047ZM218.34 19.8255V18.1585C218.34 16.9514 217.244 16.4299 215.971 15.8304C215.798 15.7483 215.618 15.6621 215.429 15.5718C215.104 15.4157 214.751 15.2515 214.394 15.0873C213.836 14.8286 213.047 14.4673 212.645 14.2291V13.876C212.645 13.8021 212.637 13.7282 212.62 13.6584C212.875 13.4695 213.039 13.1698 213.039 12.829V11.047C213.039 10.4681 212.571 10 211.992 10H209.249C208.67 10 208.202 10.4681 208.202 11.047V12.829C208.202 13.2067 208.408 13.5393 208.711 13.72C208.703 13.7734 208.695 13.8226 208.695 13.876V14.2291C208.293 14.4673 207.504 14.8286 206.942 15.0873C206.589 15.2515 206.231 15.4157 205.911 15.5718C205.718 15.6621 205.537 15.7483 205.369 15.8304C204.096 16.4299 203 16.9514 203 18.1585V19.8255C203 20.4209 203.328 20.7863 203.604 20.9998C203.201 21.2708 203 21.6404 203 22.1043V23.3279C203 23.6851 203.131 24.1532 203.731 24.4694V29.9344C203.723 29.9426 203.71 29.9508 203.702 29.959C203.456 30.1766 203 30.5872 203 31.2811V32.2296C203 32.7716 203.296 33.1083 203.575 33.3177C203.304 33.6256 203 34.0855 203 34.6973V37.3374C203 39.2426 204.72 39.7969 210.67 39.7969C216.619 39.7969 218.34 39.2426 218.34 37.3374V34.6973C218.34 34.0855 218.036 33.6256 217.765 33.3177C218.044 33.1083 218.34 32.7716 218.34 32.2296V31.2811C218.34 30.5872 217.884 30.1766 217.638 29.959C217.629 29.9508 217.617 29.9426 217.609 29.9344V24.4694C218.204 24.1532 218.34 23.6851 218.34 23.3279V22.1043C218.34 21.6404 218.139 21.2708 217.736 20.9998C218.011 20.7863 218.34 20.4209 218.34 19.8255Z" fill="white"/>
<path d="M215.232 20.1499H215.227C215.223 20.1499 215.223 20.1499 215.219 20.1499C215.215 20.1499 215.211 20.1499 215.207 20.1499C215.133 20.1581 213.121 20.3634 210.666 20.3634C208.178 20.3634 206.149 20.154 206.129 20.1499C206.125 20.1499 206.116 20.1499 206.112 20.1499C206.038 20.1499 205.973 20.2033 205.956 20.2772C205.94 20.3552 205.981 20.4332 206.059 20.462C206.112 20.4784 207.418 20.9506 210.67 20.9506C213.84 20.9506 215.162 20.503 215.277 20.462C215.342 20.4414 215.388 20.3798 215.388 20.31C215.388 20.2238 215.318 20.1499 215.232 20.1499Z" fill="white"/>
<path d="M215.232 23.1885H215.227C215.223 23.1885 215.223 23.1885 215.219 23.1885C215.215 23.1885 215.211 23.1885 215.207 23.1885C215.133 23.1967 213.121 23.402 210.666 23.402C208.178 23.402 206.149 23.1926 206.129 23.1885C206.125 23.1885 206.116 23.1885 206.112 23.1885C206.038 23.1885 205.973 23.2377 205.956 23.3117C205.94 23.3938 205.981 23.4718 206.059 23.5005C206.112 23.517 207.418 23.9891 210.67 23.9891C213.84 23.9891 215.162 23.5416 215.277 23.5005C215.342 23.48 215.388 23.4184 215.388 23.3486C215.388 23.2624 215.318 23.1885 215.232 23.1885Z" fill="white"/>
<path d="M215.232 30.8706H215.227C215.223 30.8706 215.223 30.8706 215.219 30.8706C215.215 30.8706 215.211 30.8706 215.207 30.8706C215.133 30.8747 213.121 31.08 210.666 31.08C208.178 31.08 206.149 30.8706 206.129 30.8706C206.125 30.8706 206.116 30.8706 206.112 30.8706C206.038 30.8706 205.973 30.9199 205.956 30.9938C205.94 31.0718 205.981 31.1498 206.059 31.1786C206.112 31.1991 207.418 31.6672 210.67 31.6672C213.84 31.6672 215.162 31.2237 215.277 31.1827C215.342 31.158 215.388 31.1005 215.388 31.0266C215.388 30.9404 215.318 30.8706 215.232 30.8706Z" fill="white"/>
<path d="M215.232 33.9048H215.227C215.223 33.9048 215.223 33.9048 215.219 33.9048C215.215 33.9048 215.211 33.9089 215.207 33.9089C215.133 33.913 213.121 34.1183 210.666 34.1183C208.178 34.1183 206.149 33.9089 206.129 33.9089C206.125 33.9048 206.116 33.9048 206.112 33.9048C206.038 33.9048 205.973 33.9582 205.956 34.0321C205.94 34.1101 205.981 34.1881 206.059 34.2168C206.112 34.2374 207.418 34.7054 210.67 34.7054C213.84 34.7054 215.162 34.2579 215.277 34.2168C215.342 34.2004 215.388 34.1388 215.388 34.0649C215.388 33.9787 215.318 33.9048 215.232 33.9048Z" fill="white"/>
</g>
<defs>
<clipPath id="clip0_79_54">
<rect width="240" height="61" fill="white"/>
</clipPath>
</defs>
</svg>
