<svg width="312" height="61" viewBox="0 0 312 61" fill="none" xmlns="http://www.w3.org/2000/svg">
<g clip-path="url(#clip0_72_4758)">
<path d="M24.6979 60.4688C11.0781 60.4688 0 49.5208 0 36.0625V0H286.948C300.563 0 311.641 10.9479 311.641 24.4062V60.4688" fill="white"/>
<path d="M244.083 52.9114H69.1353C59.6874 52.9114 51.9999 45.3541 51.9999 36.0625V7.55725H226.948C236.396 7.55725 244.083 15.1145 244.083 24.4062V52.9114ZM227 6L50.1667 5.66663L50.1145 36.0625C50.1145 46.3958 58.6458 54.802 69.1353 54.802L245.969 55V24.4062C245.969 14.0729 237.49 6 227 6Z" fill="#010101"/>
<path d="M102.901 5.66663H50.1145V36.0625C50.1145 46.3958 58.6458 54.802 69.1353 54.802H121.927V24.4062C121.927 14.0729 113.391 5.66663 102.901 5.66663Z" fill="#010101"/>
<path d="M63.651 29.3594C58.8489 29.3594 54.9583 33.25 54.9583 38.0521C54.9583 42.8542 58.8489 46.7448 63.651 46.7448C68.4583 46.7448 72.3489 42.8542 72.3489 38.0521C72.3489 33.25 68.4583 29.3594 63.651 29.3594Z" fill="white"/>
<path d="M69.3229 39.4688H65.0729V43.7188H62.2344V39.4688H57.9844V36.6355H62.2344V32.3802H65.0729V36.6355H69.3229" fill="#1C1C1B"/>
<path d="M55.7864 26.5937V17.1979H58.2708V24.5156H61.828V26.5937" fill="white"/>
<path d="M62.9426 26.5937V17.1979H69.0155V19.276H65.4322V20.7552H68.4947V22.8385H65.4322V24.5156H69.1614V26.5937" fill="white"/>
<path d="M75.0885 26.5937V19.276H72.6041V17.1979H80.0677V19.276H77.5781V26.5937" fill="white"/>
<path d="M83.5521 21.4739H84.4479C85.4479 21.4739 85.9531 21.0625 85.9531 20.2343C85.9531 19.8281 85.8229 19.5468 85.5677 19.3958C85.3125 19.2395 84.9375 19.1614 84.4479 19.1614H83.5521V21.4739ZM81.0625 26.5989V17.1979H84.6198C85.125 17.1979 85.6042 17.2448 86.0625 17.3385C86.5208 17.4375 86.9167 17.5989 87.2604 17.8333C87.6042 18.0625 87.875 18.375 88.0781 18.7656C88.2813 19.1562 88.3802 19.6458 88.3802 20.2343C88.3802 20.9062 88.2448 21.4687 87.9688 21.9114C87.6979 22.3541 87.3281 22.6979 86.8646 22.9531L88.901 26.5989H86.125L84.5052 23.4427H83.5521V26.5989" fill="white"/>
<path d="M89.8698 26.5989H92.3593V17.1979H89.8698V26.5989Z" fill="white"/>
<path d="M75.3801 43.276V33.8698H81.5103V35.9531H77.8697V37.75H80.9895V39.8333H77.8697V43.276" fill="white"/>
<path d="M84.9218 38.7031L84.7604 39.3541H86.4948L86.3385 38.7031C86.2239 38.25 86.1041 37.7604 85.9895 37.2291C85.875 36.6979 85.7604 36.1979 85.6406 35.7239H85.5833C85.4791 36.2031 85.3698 36.7083 85.2604 37.2343C85.151 37.7604 85.0364 38.25 84.9218 38.7031ZM81.3073 43.276L84.1666 33.8698H87.1718L90.0364 43.276H87.4062L86.9427 41.276H84.3125L83.8489 43.276" fill="white"/>
<path d="M94.5624 43.4479C93.9687 43.4479 93.3958 43.3489 92.8541 43.151C92.3072 42.9531 91.8333 42.651 91.4218 42.2552C91.0103 41.8541 90.6822 41.3541 90.4426 40.75C90.203 40.1458 90.0833 39.4479 90.0833 38.6458C90.0833 37.8541 90.2083 37.151 90.4583 36.5416C90.7083 35.927 91.0416 35.4114 91.4635 34.9948C91.8801 34.5729 92.3645 34.25 92.9114 34.0312C93.4583 33.8073 94.026 33.6979 94.6249 33.6979C95.2499 33.6979 95.8124 33.8229 96.302 34.0677C96.7968 34.3125 97.2083 34.6041 97.5468 34.9427L96.2447 36.5312C96.0155 36.3333 95.776 36.1666 95.5312 36.0312C95.2812 35.9062 94.9999 35.8385 94.6822 35.8385C94.401 35.8385 94.1405 35.901 93.8958 36.026C93.651 36.151 93.4322 36.3333 93.2447 36.5625C93.0572 36.7916 92.9062 37.0781 92.7968 37.4166C92.6822 37.75 92.6301 38.1354 92.6301 38.5573C92.6301 39.4479 92.8124 40.125 93.1874 40.5989C93.5572 41.0677 94.0468 41.3073 94.651 41.3073C95.0208 41.3073 95.3437 41.2291 95.6301 41.0677C95.9114 40.9062 96.1562 40.7187 96.3593 40.4948L97.6614 42.0573C97.2551 42.5208 96.7916 42.8698 96.2655 43.0989C95.7395 43.3333 95.1718 43.4479 94.5624 43.4479Z" fill="white"/>
<path d="M98.6198 43.276H101.104V33.8698H98.6198V43.276Z" fill="white"/>
<path d="M102.875 43.276V33.8698H105.365V41.1927H108.922V43.276" fill="white"/>
<path d="M110.031 43.276V33.8698H116.109V35.9531H112.521V37.4323H115.589V39.5156H112.521V41.1927H116.255V43.276" fill="white"/>
<path fill-rule="evenodd" clip-rule="evenodd" d="M16.2604 29.1927C16.2604 29.1927 15.9115 29.151 15.6771 29.7968L13.5573 35.7083C15.224 37.1198 17.1823 38.1823 19.3281 38.8073L16.7552 29.7708C16.5781 29.125 16.2604 29.1927 16.2604 29.1927ZM5.67188 23.6979C5.67188 13.7552 13.7604 5.66663 23.7031 5.66663C28.9635 5.66663 33.7083 7.93225 37.0052 11.5364L35.3906 13.177C32.5104 9.97913 28.3385 7.9635 23.7031 7.9635C15.026 7.9635 7.96875 15.0208 7.96875 23.6979C7.96875 27.5208 9.34375 31.0312 11.6198 33.7604L14.2656 20.7968C14.7396 18.5104 16.8854 16.7552 19.0521 17.1562C20.6406 17.4583 28.0938 22.3958 28.0938 22.3958C28.7292 22.802 28.375 23.3489 28.375 23.3489C28.375 23.3489 28.0729 23.875 27.4479 23.6041L21.9792 21.4062C21.0052 20.9948 19.4323 21.4323 19.6667 24.1875L21.3802 38.7864L21.4531 39.2656C22.1875 39.375 22.9375 39.4323 23.7031 39.4323C24.1875 39.4323 24.6719 39.401 25.1458 39.3541L25.0052 37.4531L28.6979 40.2708L25.3958 43.4635L25.276 41.651C24.7552 41.6979 24.2344 41.7291 23.7031 41.7291C13.7604 41.7291 5.67188 33.6406 5.67188 23.6979ZM19.9375 16.4115C18.4167 16.4115 17.1875 15.1823 17.1875 13.6562C17.1875 12.1354 18.4167 10.9062 19.9375 10.9062C21.4583 10.9062 22.6927 12.1354 22.6927 13.6562C22.6927 15.1823 21.4583 16.4115 19.9375 16.4115ZM37.1046 24.564C37.7365 24.0543 39.7005 22.4703 40.1613 19.1927L40.2342 18.1823L42.0519 18.2864L38.0259 12.8541L33.2134 17.6927L34.979 17.7656L34.9998 17.7708C35.0415 17.9687 35.2446 19.2656 34.5571 21.3177C33.7967 23.6041 31.4373 26.2916 28.4634 25.8177C32.6457 27.5677 36.0311 25.4375 37.0936 24.5729L37.1046 24.564ZM28.375 25.8489C29.5781 28.6093 33.1146 29.1406 35.4479 28.552C37.5208 28.026 38.5052 27.1718 38.6719 27.0156L38.6615 27L37.776 25.4635L44.4427 26.9218L42.0312 33.2395L41.1354 31.6458L40.2656 32.1198C37.2654 33.4985 34.8744 32.7065 34.0978 32.4492L34.0781 32.4427C32.7812 32.0156 29.1562 30.3125 28.375 25.8489ZM28.4062 25.7448C26.7135 28.2343 28.151 31.5104 29.8958 33.1718C31.4895 34.6823 32.7655 35.0364 32.9322 35.0781L33.7447 33.5208L36.0885 39.9323L29.4635 41.2812L30.3437 39.6458L29.4478 39.1458C26.6887 37.3493 26.0817 34.9168 25.8818 34.1162L25.8749 34.0885C25.5416 32.7604 25.0468 28.7864 28.4062 25.7448Z" fill="#010101"/>
<path d="M134.028 26.432V32.6C134.028 33.512 133.816 34.164 133.392 34.556C132.968 34.94 132.32 35.132 131.448 35.132C130.992 35.132 130.616 35.072 130.32 34.952C130.032 34.824 129.8 34.648 129.624 34.424C129.456 34.192 129.34 33.924 129.276 33.62C129.212 33.316 129.18 32.996 129.18 32.66V32.288H130.764V32.552C130.764 33.008 130.812 33.348 130.908 33.572C131.012 33.788 131.22 33.896 131.532 33.896C131.844 33.896 132.048 33.788 132.144 33.572C132.248 33.348 132.3 33.008 132.3 32.552V26.432H134.028ZM139.943 26.432V27.848H136.883V29.864H139.763V31.28H136.883V33.584H140.063V35H135.155V26.432H139.943ZM142.552 26.432V32.408C142.552 32.624 142.564 32.824 142.588 33.008C142.62 33.184 142.672 33.34 142.744 33.476C142.824 33.604 142.928 33.708 143.056 33.788C143.192 33.86 143.36 33.896 143.56 33.896C143.768 33.896 143.936 33.86 144.064 33.788C144.192 33.708 144.292 33.604 144.364 33.476C144.444 33.34 144.496 33.184 144.52 33.008C144.552 32.824 144.568 32.624 144.568 32.408V26.432H146.296V32.408C146.296 32.952 146.22 33.404 146.068 33.764C145.916 34.116 145.712 34.396 145.456 34.604C145.2 34.812 144.908 34.952 144.58 35.024C144.252 35.096 143.912 35.132 143.56 35.132C143.208 35.132 142.868 35.1 142.54 35.036C142.212 34.972 141.92 34.844 141.664 34.652C141.408 34.452 141.204 34.172 141.052 33.812C140.9 33.452 140.824 32.984 140.824 32.408V26.432H142.552ZM151.111 26.432L152.323 32.768H152.359L153.631 26.432H155.419L153.451 35H151.231L149.263 26.432H151.111ZM156.133 35V26.432H157.861V35H156.133ZM160.955 33.728H161.723C162.027 33.728 162.271 33.676 162.455 33.572C162.639 33.468 162.783 33.296 162.887 33.056C162.999 32.816 163.071 32.5 163.103 32.108C163.143 31.716 163.163 31.228 163.163 30.644C163.163 30.156 163.147 29.728 163.115 29.36C163.083 28.992 163.015 28.688 162.911 28.448C162.815 28.2 162.667 28.016 162.467 27.896C162.275 27.768 162.015 27.704 161.687 27.704H160.955V33.728ZM159.227 26.432H162.059C162.659 26.432 163.143 26.532 163.511 26.732C163.879 26.924 164.163 27.204 164.363 27.572C164.571 27.932 164.711 28.368 164.783 28.88C164.855 29.392 164.891 29.964 164.891 30.596C164.891 31.348 164.843 32.004 164.747 32.564C164.659 33.116 164.503 33.572 164.279 33.932C164.055 34.292 163.755 34.56 163.379 34.736C163.003 34.912 162.527 35 161.951 35H159.227V26.432ZM168.338 24.2H169.994L168.818 25.928H167.69L168.338 24.2ZM170.822 26.432V27.848H167.762V29.864H170.642V31.28H167.762V33.584H170.942V35H166.034V26.432H170.822ZM173.359 30.716C173.359 31.292 173.371 31.784 173.395 32.192C173.427 32.592 173.483 32.92 173.563 33.176C173.651 33.424 173.771 33.608 173.923 33.728C174.083 33.84 174.291 33.896 174.547 33.896C174.803 33.896 175.007 33.84 175.159 33.728C175.319 33.608 175.439 33.424 175.519 33.176C175.607 32.92 175.663 32.592 175.687 32.192C175.719 31.784 175.735 31.292 175.735 30.716C175.735 30.14 175.719 29.652 175.687 29.252C175.663 28.852 175.607 28.524 175.519 28.268C175.439 28.012 175.319 27.828 175.159 27.716C175.007 27.596 174.803 27.536 174.547 27.536C174.291 27.536 174.083 27.596 173.923 27.716C173.771 27.828 173.651 28.012 173.563 28.268C173.483 28.524 173.427 28.852 173.395 29.252C173.371 29.652 173.359 30.14 173.359 30.716ZM171.631 30.716C171.631 30.068 171.659 29.472 171.715 28.928C171.779 28.376 171.911 27.904 172.111 27.512C172.319 27.12 172.615 26.816 172.999 26.6C173.383 26.376 173.899 26.264 174.547 26.264C175.195 26.264 175.711 26.376 176.095 26.6C176.479 26.816 176.771 27.12 176.971 27.512C177.179 27.904 177.311 28.376 177.367 28.928C177.431 29.472 177.463 30.068 177.463 30.716C177.463 31.372 177.431 31.972 177.367 32.516C177.311 33.06 177.179 33.528 176.971 33.92C176.771 34.312 176.479 34.612 176.095 34.82C175.711 35.028 175.195 35.132 174.547 35.132C173.899 35.132 173.383 35.028 172.999 34.82C172.615 34.612 172.319 34.312 172.111 33.92C171.911 33.528 171.779 33.06 171.715 32.516C171.659 31.972 171.631 31.372 171.631 30.716Z" fill="black"/>
<path d="M191 6H217V55H210H191L204.5 28.5L191 6Z" fill="#010101"/>
<path d="M217 6H288C297.941 6 306 14.0589 306 24V55H217V6Z" fill="black"/>
<rect x="217" y="8" width="31" height="31" fill="black"/>
<path d="M219.881 43.1H220.924L221.722 48H220.952L220.812 47.027V47.041H219.937L219.797 48H219.083L219.881 43.1ZM220.721 46.376L220.378 43.954H220.364L220.028 46.376H220.721ZM223.076 48.07C222.703 48.07 222.42 47.965 222.229 47.755C222.038 47.5403 221.942 47.2347 221.942 46.838V46.558H222.67V46.894C222.67 47.2113 222.803 47.37 223.069 47.37C223.2 47.37 223.298 47.3327 223.363 47.258C223.433 47.1787 223.468 47.0527 223.468 46.88C223.468 46.6747 223.421 46.495 223.328 46.341C223.235 46.1823 223.062 45.9933 222.81 45.774C222.493 45.494 222.271 45.242 222.145 45.018C222.019 44.7893 221.956 44.5327 221.956 44.248C221.956 43.8607 222.054 43.562 222.25 43.352C222.446 43.1373 222.731 43.03 223.104 43.03C223.473 43.03 223.75 43.1373 223.937 43.352C224.128 43.562 224.224 43.8653 224.224 44.262V44.465H223.496V44.213C223.496 44.045 223.463 43.9237 223.398 43.849C223.333 43.7697 223.237 43.73 223.111 43.73C222.854 43.73 222.726 43.8863 222.726 44.199C222.726 44.3763 222.773 44.542 222.866 44.696C222.964 44.85 223.139 45.0367 223.391 45.256C223.713 45.536 223.935 45.7903 224.056 46.019C224.177 46.2477 224.238 46.516 224.238 46.824C224.238 47.2253 224.138 47.5333 223.937 47.748C223.741 47.9627 223.454 48.07 223.076 48.07ZM225.681 48.07C225.307 48.07 225.025 47.965 224.834 47.755C224.642 47.5403 224.547 47.2347 224.547 46.838V46.558H225.275V46.894C225.275 47.2113 225.408 47.37 225.674 47.37C225.804 47.37 225.902 47.3327 225.968 47.258C226.038 47.1787 226.073 47.0527 226.073 46.88C226.073 46.6747 226.026 46.495 225.933 46.341C225.839 46.1823 225.667 45.9933 225.415 45.774C225.097 45.494 224.876 45.242 224.75 45.018C224.624 44.7893 224.561 44.5327 224.561 44.248C224.561 43.8607 224.659 43.562 224.855 43.352C225.051 43.1373 225.335 43.03 225.709 43.03C226.077 43.03 226.355 43.1373 226.542 43.352C226.733 43.562 226.829 43.8653 226.829 44.262V44.465H226.101V44.213C226.101 44.045 226.068 43.9237 226.003 43.849C225.937 43.7697 225.842 43.73 225.716 43.73C225.459 43.73 225.331 43.8863 225.331 44.199C225.331 44.3763 225.377 44.542 225.471 44.696C225.569 44.85 225.744 45.0367 225.996 45.256C226.318 45.536 226.539 45.7903 226.661 46.019C226.782 46.2477 226.843 46.516 226.843 46.824C226.843 47.2253 226.742 47.5333 226.542 47.748C226.346 47.9627 226.059 48.07 225.681 48.07ZM228.397 48.07C228.019 48.07 227.73 47.9627 227.529 47.748C227.328 47.5333 227.228 47.23 227.228 46.838V44.262C227.228 43.87 227.328 43.5667 227.529 43.352C227.73 43.1373 228.019 43.03 228.397 43.03C228.775 43.03 229.064 43.1373 229.265 43.352C229.466 43.5667 229.566 43.87 229.566 44.262V46.838C229.566 47.23 229.466 47.5333 229.265 47.748C229.064 47.9627 228.775 48.07 228.397 48.07ZM228.397 47.37C228.663 47.37 228.796 47.209 228.796 46.887V44.213C228.796 43.891 228.663 43.73 228.397 43.73C228.131 43.73 227.998 43.891 227.998 44.213V46.887C227.998 47.209 228.131 47.37 228.397 47.37ZM231.172 48.07C230.803 48.07 230.521 47.965 230.325 47.755C230.133 47.545 230.038 47.2487 230.038 46.866V44.234C230.038 43.8513 230.133 43.555 230.325 43.345C230.521 43.135 230.803 43.03 231.172 43.03C231.54 43.03 231.82 43.135 232.012 43.345C232.208 43.555 232.306 43.8513 232.306 44.234V44.752H231.578V44.185C231.578 43.8817 231.449 43.73 231.193 43.73C230.936 43.73 230.808 43.8817 230.808 44.185V46.922C230.808 47.2207 230.936 47.37 231.193 47.37C231.449 47.37 231.578 47.2207 231.578 46.922V46.173H232.306V46.866C232.306 47.2487 232.208 47.545 232.012 47.755C231.82 47.965 231.54 48.07 231.172 48.07ZM232.766 43.1H233.536V48H232.766V43.1ZM234.708 43.1H235.751L236.549 48H235.779L235.639 47.027V47.041H234.764L234.624 48H233.91L234.708 43.1ZM235.548 46.376L235.205 43.954H235.191L234.855 46.376H235.548ZM237.203 43.8H236.398V43.1H238.778V43.8H237.973V48H237.203V43.8ZM239.151 43.1H239.921V48H239.151V43.1ZM241.611 48.07C241.233 48.07 240.944 47.9627 240.743 47.748C240.542 47.5333 240.442 47.23 240.442 46.838V44.262C240.442 43.87 240.542 43.5667 240.743 43.352C240.944 43.1373 241.233 43.03 241.611 43.03C241.989 43.03 242.278 43.1373 242.479 43.352C242.68 43.5667 242.78 43.87 242.78 44.262V46.838C242.78 47.23 242.68 47.5333 242.479 47.748C242.278 47.9627 241.989 48.07 241.611 48.07ZM241.611 47.37C241.877 47.37 242.01 47.209 242.01 46.887V44.213C242.01 43.891 241.877 43.73 241.611 43.73C241.345 43.73 241.212 43.891 241.212 44.213V46.887C241.212 47.209 241.345 47.37 241.611 47.37ZM243.301 43.1H244.267L245.016 46.033H245.03V43.1H245.716V48H244.925L244.001 44.423H243.987V48H243.301V43.1Z" fill="white"/>
<path d="M239.01 31.2217H232.203C232.051 31.2217 231.908 31.1626 231.79 31.0614L226.83 26.7762C226.72 26.6834 226.577 26.6328 226.433 26.6328H224.223V23.6636H229.276C229.951 23.6636 230.609 23.9335 231.081 24.4059L234.691 28.0247C234.852 28.1849 234.936 28.3958 234.928 28.6236C234.928 28.6826 234.919 28.7332 234.911 28.7838C234.911 28.8007 234.902 28.8176 234.902 28.826C234.86 28.9779 234.776 29.1128 234.649 29.2141C234.337 29.4924 233.823 29.4587 233.502 29.1381L230.811 26.4472C230.575 26.2111 230.187 26.2111 229.951 26.4472C229.706 26.6919 229.706 27.0799 229.951 27.3161L232.642 30.007C233.418 30.7915 234.658 30.8421 235.459 30.1335C235.645 29.9732 235.796 29.7877 235.906 29.5768L239.061 29.5852C239.289 29.5852 239.5 29.678 239.651 29.8467C239.812 30.0154 239.888 30.2263 239.871 30.4541C239.845 30.8758 239.457 31.2217 239.01 31.2217ZM239.061 28.3621L236.142 28.3536C236.083 27.9066 235.881 27.4764 235.56 27.1558L231.95 23.537C231.241 22.8369 230.271 22.432 229.276 22.432H223.616C223.278 22.432 223 22.7104 223 23.0478V27.2402C223 27.586 223.278 27.856 223.616 27.856H226.205L230.988 31.9893C231.326 32.2845 231.764 32.4448 232.203 32.4448H239.01C240.107 32.4448 241.026 31.6097 241.094 30.5384C241.128 29.9648 240.942 29.4249 240.546 29.0032C240.166 28.5983 239.618 28.3621 239.061 28.3621Z" fill="white"/>
<path d="M232.878 17.7926C233.207 16.8647 233.856 16.2911 234.666 16.232C234.717 16.232 234.767 16.232 234.818 16.232C235.586 16.232 236.328 16.6875 236.716 17.4383C236.826 17.6323 237.037 17.7588 237.264 17.7588C237.492 17.7588 237.694 17.6323 237.804 17.4383C238.226 16.6454 239.036 16.173 239.854 16.232C240.664 16.2911 241.313 16.8647 241.642 17.7926C242.435 20.028 239.289 22.7273 237.264 24.001C235.24 22.7273 232.085 20.028 232.878 17.7926ZM236.952 25.2495C237.045 25.3085 237.155 25.3338 237.264 25.3338C237.374 25.3338 237.484 25.3085 237.576 25.2495C238.251 24.8446 244.156 21.2005 242.798 17.3792C242.309 15.9958 241.237 15.1101 239.947 15.0089C238.943 14.9414 237.956 15.3463 237.264 16.0971C236.573 15.3463 235.586 14.933 234.582 15.0089C233.283 15.1101 232.211 15.9958 231.722 17.3792C230.373 21.2005 236.269 24.8446 236.952 25.2495Z" fill="white"/>
<path d="M255.59 31.07C255.212 31.07 254.923 30.9627 254.722 30.748C254.522 30.5333 254.421 30.23 254.421 29.838V27.262C254.421 26.87 254.522 26.5667 254.722 26.352C254.923 26.1373 255.212 26.03 255.59 26.03C255.968 26.03 256.258 26.1373 256.458 26.352C256.659 26.5667 256.759 26.87 256.759 27.262V29.838C256.759 30.23 256.659 30.5333 256.458 30.748C256.258 30.9627 255.968 31.07 255.59 31.07ZM255.59 30.37C255.856 30.37 255.989 30.209 255.989 29.887V27.213C255.989 26.891 255.856 26.73 255.59 26.73C255.324 26.73 255.191 26.891 255.191 27.213V29.887C255.191 30.209 255.324 30.37 255.59 30.37ZM258.4 31.07C258.027 31.07 257.742 30.965 257.546 30.755C257.35 30.5403 257.252 30.2347 257.252 29.838V26.1H258.022V29.894C258.022 30.062 258.055 30.1833 258.12 30.258C258.19 30.3327 258.288 30.37 258.414 30.37C258.54 30.37 258.636 30.3327 258.701 30.258C258.771 30.1833 258.806 30.062 258.806 29.894V26.1H259.548V29.838C259.548 30.2347 259.45 30.5403 259.254 30.755C259.058 30.965 258.773 31.07 258.4 31.07Z" fill="white"/>
<rect x="266" y="8" width="31" height="31" fill="black"/>
<path fill-rule="evenodd" clip-rule="evenodd" d="M279.109 14.1063C278.715 13.9593 278.442 13.9112 278.26 13.9138C278.076 13.9164 278.017 13.9696 278.005 13.983C277.994 13.9948 277.976 14.0235 277.975 14.1029C277.974 14.1628 277.984 14.2337 278.004 14.3061L280.457 16.7194H282.07C282.35 16.3731 282.982 15.6937 284.041 14.766C284.332 14.5109 284.438 14.3351 284.469 14.2426C284.486 14.1909 284.48 14.1822 284.466 14.1637L284.464 14.1606C284.428 14.1114 284.342 14.0437 284.193 13.9816C284.059 13.9255 283.904 13.8872 283.762 13.8665C283.659 13.8692 283.582 13.8932 283.446 13.9423L283.419 13.9521C283.371 13.9696 283.335 13.9876 283.3 14.0059C283.226 14.0437 283.15 14.0826 282.951 14.1204C282.636 14.1804 282.41 14.185 282.155 14.124C281.99 14.0845 281.808 14.0142 281.587 13.9294C281.511 13.8998 281.429 13.8684 281.342 13.8359L281.34 13.8357C281.335 13.835 281.315 13.8327 281.278 13.8341C281.224 13.8361 281.153 13.8447 281.066 13.86C280.894 13.8904 280.691 13.9409 280.477 13.9945L280.464 13.9977C280.252 14.0505 280.026 14.1067 279.837 14.1369C279.742 14.1519 279.644 14.1628 279.554 14.1606L279.525 14.1602C279.431 14.1593 279.201 14.1571 279.109 14.1063ZM280.242 13.1757C279.947 13.2429 279.406 13.3023 279.406 13.3023C279.09 13.2908 278.86 13.2277 278.667 13.1747C278.513 13.1326 278.383 13.0968 278.251 13.0987C277.953 13.1029 277.694 13.1923 277.508 13.3963C277.321 13.6018 277.262 13.8653 277.259 14.0916C277.257 14.3145 277.307 14.5303 277.37 14.7023L277.402 14.7912L279.578 16.9319C278.757 17.1125 277.88 17.4785 277.072 18.1145C275.533 19.3262 274.301 21.4723 274.126 25.024C274.115 25.2552 274.102 25.4899 274.09 25.7262C274.038 26.698 273.984 27.698 274.004 28.6023C274.029 29.71 274.162 30.7759 274.615 31.5044C275.429 32.813 276.76 33.4463 278.037 33.7444C279.31 34.0416 280.582 34.019 281.369 33.9721C282.089 33.9584 283.275 33.9154 284.49 33.6601C285.701 33.4057 287.004 32.9283 287.895 31.9992C288.611 31.2516 288.855 30.1504 288.929 28.9703C288.987 28.0415 288.943 26.9912 288.898 25.9219L288.898 25.9218L288.898 25.9216C288.886 25.6252 288.873 25.3272 288.863 25.03C288.746 21.692 287.518 19.598 285.98 18.3585C284.982 17.5541 283.871 17.124 282.887 16.9376C283.206 16.5912 283.724 16.0726 284.477 15.4121C284.806 15.1237 285.036 14.8353 285.137 14.5344C285.251 14.1954 285.189 13.8795 285.014 13.6398C284.86 13.4286 284.636 13.2982 284.439 13.216C284.234 13.1306 284.014 13.0793 283.824 13.0539L283.803 13.0511H283.782C283.552 13.0511 283.386 13.1088 283.23 13.1653L283.204 13.1747C283.062 13.2261 282.907 13.282 282.663 13.3284C282.449 13.3691 282.436 13.3656 282.355 13.3435L282.355 13.3435L282.355 13.3435C282.339 13.3391 282.32 13.334 282.297 13.3284C282.176 13.2994 282.051 13.2515 281.854 13.1757C281.847 13.1727 281.833 13.1658 281.815 13.1563C281.723 13.1093 281.511 13 281.269 13C280.911 13 280.568 13.0906 280.362 13.1452C280.314 13.1578 280.273 13.1685 280.242 13.1757ZM277.598 18.7826C276.294 19.8098 275.141 21.7024 274.975 25.0658C274.964 25.3062 274.951 25.5471 274.938 25.7873L274.938 25.7873L274.938 25.7874C274.886 26.7564 274.835 27.7147 274.854 28.5836C274.879 29.6845 275.017 30.5403 275.337 31.0555C275.986 32.0991 277.071 32.6458 278.23 32.9165C279.389 33.1869 280.569 33.1684 281.327 33.1229L281.336 33.1224L281.345 33.1222C282.051 33.1089 283.176 33.0673 284.316 32.828C285.465 32.5867 286.566 32.1565 287.281 31.411C287.778 30.8917 288.009 30.0543 288.08 28.9168C288.136 28.0371 288.094 27.048 288.05 25.9868L288.05 25.9866C288.037 25.6833 288.024 25.3741 288.013 25.0598C287.903 21.9361 286.769 20.0859 285.447 19.0204C284.443 18.2117 283.307 17.8352 282.37 17.7159C283.146 18.5301 284.026 19.349 284.507 19.6446L284.061 20.3687C283.86 20.1673 283.557 19.9036 283.208 19.5994L283.208 19.5994C282.705 19.1614 282.106 18.6395 281.574 18.0991C281.548 18.4454 281.525 18.8325 281.515 19.1999C281.507 19.5164 281.509 19.8104 281.526 20.048C281.534 20.1669 281.546 20.2653 281.56 20.3418C281.567 20.3798 281.574 20.4092 281.581 20.4311C281.587 20.4519 281.591 20.4611 281.591 20.462L281.652 20.7938L280.831 20.8422C280.732 20.6443 280.696 20.3607 280.678 20.1075C280.659 19.8317 280.657 19.5076 280.666 19.1781C280.672 18.9159 280.685 18.6454 280.702 18.3858C280.011 19.0527 279.284 19.6307 278.748 20.0572C278.673 20.1168 278.601 20.1734 278.535 20.227L278.089 19.5029C278.561 19.1737 279.435 18.4574 280.209 17.6831C279.385 17.7926 278.447 18.1141 277.598 18.7826Z" fill="white"/>
<path d="M271.263 43.1H272.397C272.78 43.1 273.067 43.2027 273.258 43.408C273.449 43.6133 273.545 43.9143 273.545 44.311V44.794C273.545 45.1907 273.449 45.4917 273.258 45.697C273.067 45.9023 272.78 46.005 272.397 46.005H272.033V48H271.263V43.1ZM272.397 45.305C272.523 45.305 272.616 45.27 272.677 45.2C272.742 45.13 272.775 45.011 272.775 44.843V44.262C272.775 44.094 272.742 43.975 272.677 43.905C272.616 43.835 272.523 43.8 272.397 43.8H272.033V45.305H272.397ZM275.076 48.07C274.698 48.07 274.409 47.9627 274.208 47.748C274.008 47.5333 273.907 47.23 273.907 46.838V44.262C273.907 43.87 274.008 43.5667 274.208 43.352C274.409 43.1373 274.698 43.03 275.076 43.03C275.454 43.03 275.744 43.1373 275.944 43.352C276.145 43.5667 276.245 43.87 276.245 44.262V46.838C276.245 47.23 276.145 47.5333 275.944 47.748C275.744 47.9627 275.454 48.07 275.076 48.07ZM275.076 47.37C275.342 47.37 275.475 47.209 275.475 46.887V44.213C275.475 43.891 275.342 43.73 275.076 43.73C274.81 43.73 274.677 43.891 274.677 44.213V46.887C274.677 47.209 274.81 47.37 275.076 47.37ZM277.886 48.07C277.513 48.07 277.228 47.965 277.032 47.755C276.836 47.5403 276.738 47.2347 276.738 46.838V43.1H277.508V46.894C277.508 47.062 277.541 47.1833 277.606 47.258C277.676 47.3327 277.774 47.37 277.9 47.37C278.026 47.37 278.122 47.3327 278.187 47.258C278.257 47.1833 278.292 47.062 278.292 46.894V43.1H279.034V46.838C279.034 47.2347 278.936 47.5403 278.74 47.755C278.544 47.965 278.259 48.07 277.886 48.07ZM279.582 43.1H280.744C281.141 43.1 281.43 43.1933 281.612 43.38C281.794 43.562 281.885 43.8443 281.885 44.227V44.423C281.885 44.675 281.843 44.8803 281.759 45.039C281.68 45.1977 281.556 45.312 281.388 45.382V45.396C281.771 45.5267 281.962 45.8673 281.962 46.418V46.838C281.962 47.216 281.862 47.5053 281.661 47.706C281.465 47.902 281.176 48 280.793 48H279.582V43.1ZM280.653 45.095C280.807 45.095 280.922 45.0553 280.996 44.976C281.076 44.8967 281.115 44.7637 281.115 44.577V44.304C281.115 44.1267 281.083 43.9983 281.017 43.919C280.957 43.8397 280.859 43.8 280.723 43.8H280.352V45.095H280.653ZM280.793 47.3C280.929 47.3 281.029 47.265 281.094 47.195C281.16 47.1203 281.192 46.9943 281.192 46.817V46.39C281.192 46.166 281.153 46.012 281.073 45.928C280.999 45.8393 280.873 45.795 280.695 45.795H280.352V47.3H280.793ZM282.412 43.1H284.512V43.8H283.182V45.095H284.239V45.795H283.182V47.3H284.512V48H282.412V43.1ZM284.955 43.1H285.725V47.3H286.992V48H284.955V43.1ZM287.362 43.1H288.132V47.3H289.399V48H287.362V43.1ZM289.768 43.1H291.868V43.8H290.538V45.095H291.595V45.795H290.538V47.3H291.868V48H289.768V43.1Z" fill="white"/>
</g>
<defs>
<clipPath id="clip0_72_4758">
<rect width="312" height="61" fill="white"/>
</clipPath>
</defs>
</svg>
