<svg width="230" height="61" viewBox="0 0 230 61" fill="none" xmlns="http://www.w3.org/2000/svg">
<g clip-path="url(#clip0_22_2849)">
<path d="M24.6979 60.4688C11.0781 60.4688 0 49.5208 0 36.0625V0H204.948C218.563 0 229.641 10.9479 229.641 24.4063V60.4688" fill="white"/>
<path d="M204.948 5.66663H50.1145V36.0625C50.1145 46.3958 58.6458 54.802 69.1353 54.802H223.974V24.4062C223.974 14.0729 215.437 5.66663 204.948 5.66663Z" fill="white"/>
<path d="M222.083 52.9114H69.1353C59.6874 52.9114 51.9999 45.3541 51.9999 36.0625V7.55725H204.948C214.396 7.55725 222.083 15.1145 222.083 24.4062V52.9114ZM204.948 5.66663H50.1145V36.0625C50.1145 46.3958 58.6458 54.802 69.1353 54.802H223.969V24.4062C223.969 14.0729 215.437 5.66663 204.948 5.66663Z" fill="#FCC42F"/>
<path d="M166.714 54.802L179.724 28.2239L166.432 5.66663H204.948C215.437 5.66663 223.969 14.0729 223.969 24.4062V54.802" fill="#FCC42F"/>
<path d="M204.948 7.55725H169.74L181.87 28.1406L169.74 52.9114H222.083V24.4062C222.083 15.1145 214.396 7.55725 204.948 7.55725Z" fill="#FCC42F"/>
<path d="M209.906 41.3438H208.703C208.604 41.3438 208.51 41.3542 208.417 41.3698C208.979 35.1094 209.849 25.4532 210.266 21.0782C210.312 20.6303 209.984 20.2344 209.536 20.1928C209.083 20.1459 208.698 20.4792 208.656 20.9219C208.005 27.6407 206.302 46.823 206.286 47.0157C206.255 47.3438 205.937 47.6094 205.568 47.6094H192.474C192.104 47.6094 191.792 47.3438 191.76 47.0157C191.74 46.823 190.036 27.6407 189.391 20.9219C189.349 20.4792 188.958 20.1459 188.505 20.1928C188.057 20.2344 187.729 20.6303 187.776 21.0782C188.193 25.4532 189.062 35.1094 189.625 41.3698C189.531 41.349 189.437 41.3386 189.339 41.3386H188.141C187.359 41.3386 186.729 41.9688 186.729 42.7448V47.8178C186.729 48.599 187.359 49.2292 188.141 49.2292H189.339C189.922 49.2292 190.427 48.8698 190.635 48.3646C191.068 48.8959 191.729 49.2292 192.474 49.2292H205.568C206.312 49.2292 206.974 48.8959 207.406 48.3646C207.615 48.875 208.12 49.2344 208.703 49.2344H209.906C210.682 49.2344 211.312 48.599 211.312 47.823V42.75C211.312 41.974 210.682 41.3438 209.906 41.3438Z" fill="#1C1C1B"/>
<path d="M193.969 24.802V27.0937H194.641C195.031 27.0937 195.245 26.9114 195.245 26.3593V25.7083C195.245 25.0156 195.021 24.802 194.49 24.802H193.969ZM193.969 21.7604V23.7343H194.427C194.865 23.7343 195.13 23.5416 195.13 22.9479V22.5312C195.13 21.9948 194.948 21.7604 194.531 21.7604H193.969ZM196.302 22.4114V22.677C196.302 23.4479 196.068 23.927 195.547 24.1718V24.1927C196.172 24.4375 196.417 24.9948 196.417 25.7812V26.3906C196.417 27.5416 195.812 28.1562 194.641 28.1562H192.792V20.6979H194.562C195.776 20.6979 196.302 21.2604 196.302 22.4114Z" fill="#1C1C1B"/>
<path d="M198.458 25.7916H199.589L199.031 22.0156H199.01L198.458 25.7916ZM201.135 28.1562H199.948L199.75 26.802H198.307L198.104 28.1562H197.031L198.224 20.6979H199.938" fill="#1C1C1B"/>
<path d="M205.281 25.375V26.3646C205.281 27.5625 204.687 28.2448 203.536 28.2448C202.38 28.2448 201.786 27.5625 201.786 26.3646V22.4844C201.786 21.2917 202.38 20.6094 203.536 20.6094C204.687 20.6094 205.281 21.2917 205.281 22.4844V23.2083H204.172V22.4115C204.172 21.8802 203.937 21.6771 203.568 21.6771C203.193 21.6771 202.958 21.8802 202.958 22.4115V26.4427C202.958 26.974 203.193 27.1667 203.568 27.1667C203.937 27.1667 204.172 26.974 204.172 26.4427V25.375" fill="#1C1C1B"/>
<path d="M196.323 30.8855V36.2188H196.984C197.359 36.2188 197.583 36.0261 197.583 35.4896V31.6094C197.583 31.0782 197.359 30.8855 196.984 30.8855H196.323ZM195.151 29.8177H197.005C198.182 29.8177 198.755 30.4688 198.755 31.6667V35.4375C198.755 36.6355 198.182 37.2813 197.005 37.2813H195.151" fill="#1C1C1B"/>
<path d="M200.891 32.9635H202.5V34.0312H200.891V36.2187H202.917V37.2812H199.719V29.8229H202.917V30.8854H200.891" fill="#1C1C1B"/>
<path d="M193.786 38.9427H197.411V40.0105H196.187V46.4063H195.01V40.0105H193.786" fill="#1C1C1B"/>
<path d="M199.312 40.0105V42.3021H199.771C200.203 42.3021 200.474 42.1094 200.474 41.5157V40.7813C200.474 40.2448 200.292 40.0105 199.875 40.0105H199.312ZM200.589 46.4063C200.526 46.2136 200.484 46.099 200.484 45.4896V44.3177C200.484 43.625 200.25 43.3698 199.714 43.3698H199.312V46.4063H198.135V38.9427H199.906C201.125 38.9427 201.646 39.5105 201.646 40.6615V41.25C201.646 42.0157 201.396 42.5052 200.88 42.75V42.7709C201.464 43.0157 201.656 43.573 201.656 44.349V45.5C201.656 45.8646 201.667 46.1302 201.781 46.4063" fill="#1C1C1B"/>
<path d="M202.641 46.4063H203.813V38.9427H202.641V46.4063Z" fill="#1C1C1B"/>
<path d="M210.745 17.2969H187.297V15.349C187.297 15.2813 187.328 15.25 187.323 15.25H189.021C189.208 15.25 189.396 15.1771 189.542 15.0521L191.667 13.1927C191.76 13.1094 191.995 13.0208 192.286 13.0208H205.755C206.047 13.0208 206.281 13.1094 206.375 13.1927L208.5 15.0521C208.646 15.1771 208.833 15.25 209.026 15.25H210.719C210.714 15.25 210.745 15.2813 210.745 15.349V17.2969ZM210.719 13.6615H209.323L207.417 12C207.01 11.6406 206.406 11.4375 205.755 11.4375H192.286C191.641 11.4375 191.036 11.6406 190.625 12L188.719 13.6615H187.323C186.432 13.6615 185.714 14.4167 185.714 15.349V17.4896C185.714 17.7917 185.786 18.0833 185.932 18.3438C185.99 18.4531 186.078 18.5469 186.187 18.6198C186.443 18.7917 186.745 18.8802 187.052 18.8802H210.99C211.297 18.8802 211.599 18.7917 211.859 18.6198C211.964 18.5469 212.052 18.4531 212.109 18.3438C212.255 18.0833 212.328 17.7917 212.328 17.4896V15.349C212.328 14.4167 211.609 13.6615 210.719 13.6615Z" fill="#1C1C1B"/>
<path d="M205.75 13.7604H192.292C191.922 13.7604 191.62 14.0625 191.62 14.427C191.62 14.802 191.922 15.0989 192.292 15.0989H205.75C206.12 15.0989 206.422 14.802 206.422 14.427C206.422 14.0625 206.12 13.7604 205.75 13.7604Z" fill="#1C1C1B"/>
<path d="M102.901 5.66663H50.1145V36.0625C50.1145 46.3958 58.6458 54.802 69.1353 54.802H121.927V24.4062C121.927 14.0729 113.391 5.66663 102.901 5.66663Z" fill="#FCC42F"/>
<path d="M63.651 29.3594C58.8489 29.3594 54.9583 33.25 54.9583 38.0521C54.9583 42.8542 58.8489 46.7448 63.651 46.7448C68.4583 46.7448 72.3489 42.8542 72.3489 38.0521C72.3489 33.25 68.4583 29.3594 63.651 29.3594Z" fill="white"/>
<path d="M69.3229 39.4688H65.0729V43.7188H62.2344V39.4688H57.9844V36.6355H62.2344V32.3802H65.0729V36.6355H69.3229" fill="#1C1C1B"/>
<path d="M55.7864 26.5937V17.1979H58.2708V24.5156H61.828V26.5937" fill="#1C1C1B"/>
<path d="M62.9426 26.5937V17.1979H69.0155V19.276H65.4322V20.7552H68.4947V22.8385H65.4322V24.5156H69.1614V26.5937" fill="#1C1C1B"/>
<path d="M75.0885 26.5937V19.276H72.6041V17.1979H80.0677V19.276H77.5781V26.5937" fill="#1C1C1B"/>
<path d="M83.5521 21.4739H84.4479C85.4479 21.4739 85.9531 21.0625 85.9531 20.2343C85.9531 19.8281 85.8229 19.5468 85.5677 19.3958C85.3125 19.2395 84.9375 19.1614 84.4479 19.1614H83.5521V21.4739ZM81.0625 26.5989V17.1979H84.6198C85.125 17.1979 85.6042 17.2448 86.0625 17.3385C86.5208 17.4375 86.9167 17.5989 87.2604 17.8333C87.6042 18.0625 87.875 18.375 88.0781 18.7656C88.2813 19.1562 88.3802 19.6458 88.3802 20.2343C88.3802 20.9062 88.2448 21.4687 87.9688 21.9114C87.6979 22.3541 87.3281 22.6979 86.8646 22.9531L88.901 26.5989H86.125L84.5052 23.4427H83.5521V26.5989" fill="#1C1C1B"/>
<path d="M89.8698 26.5989H92.3593V17.1979H89.8698V26.5989Z" fill="#1C1C1B"/>
<path d="M75.3801 43.276V33.8698H81.5103V35.9531H77.8697V37.75H80.9895V39.8333H77.8697V43.276" fill="#1C1C1B"/>
<path d="M84.9218 38.7031L84.7604 39.3541H86.4948L86.3385 38.7031C86.2239 38.25 86.1041 37.7604 85.9895 37.2291C85.875 36.6979 85.7604 36.1979 85.6406 35.7239H85.5833C85.4791 36.2031 85.3698 36.7083 85.2604 37.2343C85.151 37.7604 85.0364 38.25 84.9218 38.7031ZM81.3073 43.276L84.1666 33.8698H87.1718L90.0364 43.276H87.4062L86.9427 41.276H84.3125L83.8489 43.276" fill="#1C1C1B"/>
<path d="M94.5624 43.4479C93.9687 43.4479 93.3958 43.3489 92.8541 43.151C92.3072 42.9531 91.8333 42.651 91.4218 42.2552C91.0103 41.8541 90.6822 41.3541 90.4426 40.75C90.203 40.1458 90.0833 39.4479 90.0833 38.6458C90.0833 37.8541 90.2083 37.151 90.4583 36.5416C90.7083 35.927 91.0416 35.4114 91.4635 34.9948C91.8801 34.5729 92.3645 34.25 92.9114 34.0312C93.4583 33.8073 94.026 33.6979 94.6249 33.6979C95.2499 33.6979 95.8124 33.8229 96.302 34.0677C96.7968 34.3125 97.2083 34.6041 97.5468 34.9427L96.2447 36.5312C96.0155 36.3333 95.776 36.1666 95.5312 36.0312C95.2812 35.9062 94.9999 35.8385 94.6822 35.8385C94.401 35.8385 94.1405 35.901 93.8958 36.026C93.651 36.151 93.4322 36.3333 93.2447 36.5625C93.0572 36.7916 92.9062 37.0781 92.7968 37.4166C92.6822 37.75 92.6301 38.1354 92.6301 38.5573C92.6301 39.4479 92.8124 40.125 93.1874 40.5989C93.5572 41.0677 94.0468 41.3073 94.651 41.3073C95.0208 41.3073 95.3437 41.2291 95.6301 41.0677C95.9114 40.9062 96.1562 40.7187 96.3593 40.4948L97.6614 42.0573C97.2551 42.5208 96.7916 42.8698 96.2655 43.0989C95.7395 43.3333 95.1718 43.4479 94.5624 43.4479Z" fill="#1C1C1B"/>
<path d="M98.6198 43.276H101.104V33.8698H98.6198V43.276Z" fill="#1C1C1B"/>
<path d="M102.875 43.276V33.8698H105.365V41.1927H108.922V43.276" fill="#1C1C1B"/>
<path d="M110.031 43.276V33.8698H116.109V35.9531H112.521V37.4323H115.589V39.5156H112.521V41.1927H116.255V43.276" fill="#1C1C1B"/>
<path d="M28.4062 25.7448C26.7135 28.2343 28.151 31.5104 29.8958 33.1718C31.4895 34.6823 32.7655 35.0364 32.9322 35.0781L33.7447 33.5208L36.0885 39.9323L29.4635 41.2812L30.3437 39.6458L29.4478 39.1458C26.6562 37.3281 26.0676 34.8593 25.8749 34.0885C25.5416 32.7604 25.0468 28.7864 28.4062 25.7448Z" fill="#1C1C1B"/>
<path d="M28.375 25.8489C29.5781 28.6093 33.1146 29.1406 35.4479 28.552C37.5208 28.026 38.5052 27.1718 38.6719 27.0156L38.6615 27L37.776 25.4635L44.4427 26.9218L42.0313 33.2395L41.1354 31.6458L40.2656 32.1198C37.2396 33.5104 34.8333 32.6927 34.0781 32.4427C32.7813 32.0156 29.1562 30.3125 28.375 25.8489Z" fill="#1C1C1B"/>
<path d="M40.1613 19.1927C39.6978 22.4895 37.7134 24.0729 37.0936 24.5729C36.0311 25.4375 32.6457 27.5677 28.4634 25.8177C31.4373 26.2916 33.7967 23.6041 34.5571 21.3177C35.2446 19.2656 35.0415 17.9687 34.9998 17.7708L34.979 17.7656L33.2134 17.6927L38.0259 12.8541L42.0519 18.2864L40.2342 18.1823" fill="#1C1C1B"/>
<path fill-rule="evenodd" clip-rule="evenodd" d="M19.9375 16.4115C18.4167 16.4115 17.1875 15.1823 17.1875 13.6563C17.1875 12.1354 18.4167 10.9062 19.9375 10.9062C21.4583 10.9062 22.6927 12.1354 22.6927 13.6563C22.6927 15.1823 21.4583 16.4115 19.9375 16.4115Z" fill="#1C1C1B"/>
<path d="M15.6771 29.7968C15.9115 29.151 16.2604 29.1927 16.2604 29.1927C16.2604 29.1927 16.5781 29.125 16.7552 29.7708L19.3281 38.8073C17.1823 38.1823 15.224 37.1198 13.5573 35.7083L15.6771 29.7968ZM23.7031 5.66663C13.7604 5.66663 5.67188 13.7552 5.67188 23.6979C5.67188 33.6406 13.7604 41.7291 23.7031 41.7291C24.2344 41.7291 24.7552 41.6979 25.276 41.651L25.3958 43.4635L28.6979 40.2708L25.0052 37.4531L25.1458 39.3541C24.6719 39.401 24.1875 39.4323 23.7031 39.4323C22.9375 39.4323 22.1875 39.375 21.4531 39.2656L21.3802 38.7864L19.6667 24.1875C19.4323 21.4323 21.0052 20.9948 21.9792 21.4062L27.4479 23.6041C28.0729 23.875 28.375 23.3489 28.375 23.3489C28.375 23.3489 28.7292 22.802 28.0938 22.3958C28.0938 22.3958 20.6406 17.4583 19.0521 17.1562C16.8854 16.7552 14.7396 18.5104 14.2656 20.7968L11.6198 33.7604C9.34375 31.0312 7.96875 27.5208 7.96875 23.6979C7.96875 15.0208 15.026 7.9635 23.7031 7.9635C28.3385 7.9635 32.5104 9.97913 35.3906 13.177L37.0052 11.5364C33.7083 7.93225 28.9635 5.66663 23.7031 5.66663Z" fill="#1C1C1B"/>
<path d="M134.532 41.288V45.4C134.532 46.008 134.39 46.4427 134.108 46.704C133.825 46.96 133.393 47.088 132.812 47.088C132.508 47.088 132.257 47.048 132.06 46.968C131.868 46.8827 131.713 46.7653 131.596 46.616C131.484 46.4613 131.406 46.2827 131.364 46.08C131.321 45.8773 131.3 45.664 131.3 45.44V45.192H132.356V45.368C132.356 45.672 132.388 45.8987 132.452 46.048C132.521 46.192 132.66 46.264 132.868 46.264C133.076 46.264 133.212 46.192 133.276 46.048C133.345 45.8987 133.38 45.672 133.38 45.368V41.288H134.532ZM136.315 44.144C136.315 44.528 136.323 44.856 136.339 45.128C136.36 45.3947 136.397 45.6133 136.451 45.784C136.509 45.9493 136.589 46.072 136.691 46.152C136.797 46.2267 136.936 46.264 137.107 46.264C137.277 46.264 137.413 46.2267 137.515 46.152C137.621 46.072 137.701 45.9493 137.755 45.784C137.813 45.6133 137.851 45.3947 137.867 45.128C137.888 44.856 137.899 44.528 137.899 44.144C137.899 43.76 137.888 43.4347 137.867 43.168C137.851 42.9013 137.813 42.6827 137.755 42.512C137.701 42.3413 137.621 42.2187 137.515 42.144C137.413 42.064 137.277 42.024 137.107 42.024C136.936 42.024 136.797 42.064 136.691 42.144C136.589 42.2187 136.509 42.3413 136.451 42.512C136.397 42.6827 136.36 42.9013 136.339 43.168C136.323 43.4347 136.315 43.76 136.315 44.144ZM135.163 44.144C135.163 43.712 135.181 43.3147 135.219 42.952C135.261 42.584 135.349 42.2693 135.483 42.008C135.621 41.7467 135.819 41.544 136.075 41.4C136.331 41.2507 136.675 41.176 137.107 41.176C137.539 41.176 137.883 41.2507 138.139 41.4C138.395 41.544 138.589 41.7467 138.723 42.008C138.861 42.2693 138.949 42.584 138.987 42.952C139.029 43.3147 139.051 43.712 139.051 44.144C139.051 44.5813 139.029 44.9813 138.987 45.344C138.949 45.7067 138.861 46.0187 138.723 46.28C138.589 46.5413 138.395 46.7413 138.139 46.88C137.883 47.0187 137.539 47.088 137.107 47.088C136.675 47.088 136.331 47.0187 136.075 46.88C135.819 46.7413 135.621 46.5413 135.483 46.28C135.349 46.0187 135.261 45.7067 135.219 45.344C135.181 44.9813 135.163 44.5813 135.163 44.144ZM140.808 41.288V45.272C140.808 45.416 140.816 45.5493 140.832 45.672C140.853 45.7893 140.888 45.8933 140.936 45.984C140.989 46.0693 141.059 46.1387 141.144 46.192C141.235 46.24 141.347 46.264 141.48 46.264C141.619 46.264 141.731 46.24 141.816 46.192C141.901 46.1387 141.968 46.0693 142.016 45.984C142.069 45.8933 142.104 45.7893 142.12 45.672C142.141 45.5493 142.152 45.416 142.152 45.272V41.288H143.304V45.272C143.304 45.6347 143.253 45.936 143.152 46.176C143.051 46.4107 142.915 46.5973 142.744 46.736C142.573 46.8747 142.379 46.968 142.16 47.016C141.941 47.064 141.715 47.088 141.48 47.088C141.245 47.088 141.019 47.0667 140.8 47.024C140.581 46.9813 140.387 46.896 140.216 46.768C140.045 46.6347 139.909 46.448 139.808 46.208C139.707 45.968 139.656 45.656 139.656 45.272V41.288H140.808ZM144.033 41.288H146.161C146.641 41.288 147.014 41.4107 147.281 41.656C147.547 41.896 147.681 42.264 147.681 42.76C147.681 43.144 147.603 43.4587 147.449 43.704C147.294 43.944 147.054 44.0987 146.729 44.168V44.184C147.017 44.2267 147.227 44.32 147.361 44.464C147.494 44.608 147.577 44.84 147.609 45.16C147.619 45.2667 147.627 45.384 147.633 45.512C147.638 45.6347 147.643 45.7733 147.649 45.928C147.659 46.232 147.675 46.464 147.697 46.624C147.729 46.784 147.798 46.8933 147.905 46.952V47H146.657C146.598 46.92 146.561 46.8293 146.545 46.728C146.529 46.6213 146.518 46.512 146.513 46.4L146.481 45.304C146.47 45.08 146.414 44.904 146.313 44.776C146.211 44.648 146.041 44.584 145.801 44.584H145.185V47H144.033V41.288ZM145.185 43.784H145.665C145.942 43.784 146.155 43.72 146.305 43.592C146.454 43.4587 146.529 43.2373 146.529 42.928C146.529 42.4 146.262 42.136 145.729 42.136H145.185V43.784ZM149.806 41.288L151.198 45.2H151.214V41.288H152.27V47H150.958L149.55 43H149.534V47H148.478V41.288H149.806ZM155.456 44.848L154.904 42.28H154.888L154.336 44.848H155.456ZM155.608 41.288L157.12 47H155.92L155.656 45.792H154.136L153.872 47H152.672L154.184 41.288H155.608ZM157.517 47V41.288H158.669V46.056H160.709V47H157.517Z" fill="#1C1C1B"/>
<path d="M158.842 28.7979L158.284 29.1416C157.446 29.6572 156.102 30.4854 154.732 31.3604C155.191 30.9176 155.649 30.4749 156.071 30.0843C157.508 28.7406 160.092 26.9072 161.342 26.0479C161.435 26.1676 161.555 26.2666 161.717 26.2979L162.8 26.527C161.451 27.2822 159.607 28.3291 158.842 28.7979ZM145.972 34.2718C144.951 33.9906 135.534 29.8656 133.826 28.9541C132.133 28.0531 131.237 27.0583 131.342 24.3708C131.441 21.7926 135.435 19.3395 136.753 18.5322L136.93 18.4229C137.946 17.7926 139.842 16.1624 140.628 15.4749C147.519 19.1156 155.305 19.5322 159.42 19.4489C158.722 20.3916 157.711 21.5635 157.191 22.1468C157.123 22.2093 157.039 22.2874 156.935 22.3812C156.039 23.2041 153.67 25.3916 151.461 26.7354C148.816 28.3447 147.539 30.0426 147.06 32.5947C146.899 33.4437 146.956 34.152 147.206 34.7145C147.039 34.6572 146.868 34.5895 146.696 34.527C146.425 34.4229 146.175 34.3343 145.972 34.2718ZM160.232 23.5947L159.894 23.9489C159.894 23.9489 159.894 23.9489 159.888 23.9489C159.42 24.3551 158.435 25.1989 157.055 26.3812C154.998 28.1312 152.789 31.027 151.664 32.9801C151.467 33.3239 151.263 33.6104 151.06 33.8656C150.769 34.0895 150.508 34.2979 150.305 34.4801C149.691 35.0322 148.998 35.1208 148.248 34.9906C148.154 34.9229 148.066 34.8447 147.987 34.7406C147.638 34.2926 147.55 33.6104 147.717 32.7197C148.092 30.7354 148.93 29.0583 151.805 27.3031C153.888 26.0374 156.066 24.0791 157.118 23.1208C157.227 23.2458 157.368 23.3447 157.539 23.3604L160.232 23.5947ZM155.618 29.5947C154.784 30.3708 153.821 31.3083 152.977 32.1468C154.149 30.3812 155.862 28.2666 157.482 26.8864C158.529 26.001 159.342 25.3031 159.883 24.8343C159.977 24.9437 160.097 25.0322 160.243 25.0583L161.284 25.277C160.217 26.0062 157.248 28.0687 155.618 29.5947ZM164.821 25.5843L163.227 25.251C163.336 25.0947 163.373 24.8916 163.316 24.6989C163.253 24.4593 163.055 24.277 162.81 24.2249L161.691 23.9958L162.154 23.5114C162.331 23.3239 162.388 23.0531 162.295 22.8135C162.206 22.5739 161.987 22.4072 161.727 22.3864L158.961 22.1416C159.779 21.1885 160.909 19.7926 161.274 19.027C161.373 18.8135 161.3 18.5687 161.17 18.3708C161.039 18.1781 160.763 18.0687 160.529 18.0791C157.112 18.251 148.347 18.2093 140.857 14.0791C140.612 13.9489 140.305 13.9801 140.092 14.1676C140.066 14.1937 137.409 16.5583 136.227 17.2874L136.055 17.3968C134.435 18.3916 130.138 21.027 130.008 24.3239C129.883 27.6676 131.191 29.0635 133.196 30.1312C135.003 31.0999 144.519 35.2562 145.612 35.5583C145.789 35.6051 145.993 35.6885 146.227 35.777C146.904 36.027 147.831 36.3812 148.816 36.3812C149.612 36.3812 150.435 36.152 151.196 35.4697C152.67 34.1468 157.258 31.3395 158.982 30.277L159.545 29.9333C160.758 29.1833 164.967 26.8447 165.008 26.8187C165.253 26.6833 165.383 26.4124 165.342 26.1364C165.3 25.8604 165.092 25.6416 164.821 25.5843Z" fill="#1C1C1B"/>
<path d="M135.138 21.9177L143.93 25.501C143.972 25.5166 144.013 25.5218 144.055 25.5218C144.185 25.5218 144.31 25.4437 144.362 25.3135C144.435 25.1468 144.352 24.9489 144.18 24.8812L135.394 21.2979C135.217 21.2302 135.029 21.3135 134.956 21.4802C134.888 21.652 134.972 21.85 135.138 21.9177Z" fill="#1C1C1B"/>
<path d="M137.519 20.2457L145.534 23.5218C145.571 23.5374 145.618 23.5426 145.659 23.5426C145.79 23.5426 145.915 23.4645 145.967 23.3395C146.034 23.1676 145.956 22.9697 145.784 22.902L137.774 19.626C137.597 19.5582 137.409 19.6364 137.336 19.8082C137.269 19.9801 137.347 20.1728 137.519 20.2457Z" fill="#1C1C1B"/>
<path d="M133.888 23.0686C133.717 22.9957 133.524 23.0739 133.451 23.2457C133.378 23.4176 133.461 23.6103 133.628 23.6832L145.857 28.8239C145.899 28.8395 145.946 28.8447 145.987 28.8447C146.118 28.8447 146.243 28.7718 146.295 28.6416C146.368 28.4749 146.29 28.277 146.118 28.2041" fill="#1C1C1B"/>
<path d="M132.946 25.2822C132.779 25.2145 132.581 25.2926 132.508 25.4645C132.435 25.6312 132.519 25.8291 132.685 25.8968L144.914 31.0322C144.956 31.053 145.003 31.0635 145.045 31.0635C145.175 31.0635 145.3 30.9853 145.352 30.8551C145.425 30.6885 145.342 30.4905 145.175 30.4228" fill="#1C1C1B"/>
<path d="M154.732 22.2197C154.753 22.2197 154.774 22.2197 154.795 22.2197C155.133 22.2197 155.425 21.9593 155.456 21.6156C155.487 21.2458 155.222 20.9229 154.852 20.8916C144.816 19.9802 140.842 17.2875 140.8 17.2614C140.503 17.0531 140.086 17.126 139.873 17.4229C139.665 17.725 139.737 18.1416 140.034 18.3499C140.206 18.4697 144.284 21.2718 154.732 22.2197Z" fill="#1C1C1B"/>
<path d="M148.644 23.0948L151.394 23.6573L148.378 26.4802L146.18 25.6833C147.092 24.7146 148.279 23.4593 148.644 23.0948ZM148.456 27.1937C148.54 27.1937 148.618 27.1625 148.68 27.1052L152.321 23.7041C152.409 23.6208 152.446 23.4906 152.415 23.3708C152.378 23.251 152.279 23.1573 152.159 23.1312L148.607 22.4073C148.55 22.3916 148.493 22.4021 148.435 22.4125C148.331 22.4489 148.284 22.4646 145.347 25.5948C145.274 25.6781 145.243 25.7927 145.269 25.9021C145.295 26.0114 145.373 26.1 145.477 26.1364L148.342 27.1781C148.378 27.1885 148.415 27.1937 148.456 27.1937Z" fill="#1C1C1B"/>
</g>
<defs>
<clipPath id="clip0_22_2849">
<rect width="230" height="61" fill="white"/>
</clipPath>
</defs>
</svg>
