<svg width="350" height="74" viewBox="0 0 350 74" fill="none" xmlns="http://www.w3.org/2000/svg">
<g clip-path="url(#clip0_8_51566)">
<g clip-path="url(#clip1_8_51566)">
<path d="M22.8125 34.1615C21.1146 36.651 22.5573 39.9271 24.3125 41.5885C25.9062 43.099 27.1927 43.4531 27.3594 43.4948L28.1719 41.9427L30.526 48.349L23.875 49.6979L24.7604 48.0625L23.8594 47.5625C21.0625 45.7448 20.4687 43.276 20.276 42.5052C19.9427 41.1771 19.4427 37.2031 22.8125 34.1615Z" fill="#231F20"/>
<path d="M22.7812 34.2708C23.9896 37.026 27.5417 37.5573 29.8854 36.9687C31.9635 36.4427 32.9531 35.5885 33.1198 35.4323L33.1094 35.4167L32.2188 33.8802L38.9115 35.3385L36.4844 41.6562L35.5938 40.0625L34.7135 40.5365C31.6771 41.9271 29.2656 41.1094 28.5104 40.8594C27.2031 40.4323 23.5677 38.7292 22.7812 34.2708Z" fill="#231F20"/>
<path d="M34.6094 27.6094C34.1458 30.9062 32.151 32.4896 31.5312 32.9896C30.4688 33.8542 27.0677 35.9844 22.875 34.2344C25.8594 34.7083 28.224 32.026 28.9896 29.7344C29.6771 27.6875 29.474 26.3854 29.4375 26.1875L29.4115 26.1823L27.6354 26.1094L32.4688 21.2708L36.5104 26.7083L34.6875 26.6042" fill="#231F20"/>
<path fill-rule="evenodd" clip-rule="evenodd" d="M14.3177 24.8281C12.7917 24.8281 11.5521 23.5938 11.5521 22.0781C11.5521 20.5521 12.7917 19.3229 14.3177 19.3229C15.8438 19.3229 17.0834 20.5521 17.0834 22.0781C17.0834 23.5938 15.8438 24.8281 14.3177 24.8281Z" fill="#231F20"/>
<path d="M10.0417 38.2135C10.276 37.5677 10.6302 37.6094 10.6302 37.6094C10.6302 37.6094 10.9427 37.5365 11.1198 38.1927L13.7031 47.224C11.5521 46.6042 9.58333 45.5365 7.91667 44.1302L10.0417 38.2135ZM18.099 14.0833C8.11979 14.0833 0 22.1719 0 32.1146C0 42.0573 8.11979 50.1458 18.099 50.1458C18.6302 50.1458 19.1563 50.1146 19.6771 50.0677L19.7969 51.8802L23.1094 48.6875L19.401 45.8698L19.5417 47.776C19.0677 47.8177 18.5833 47.849 18.099 47.849C17.3281 47.849 16.5781 47.7917 15.8385 47.6823L15.7656 47.2031L14.0469 32.6094C13.8073 29.8542 15.3906 29.4115 16.3646 29.8229L21.849 32.0208C22.4844 32.2917 22.7812 31.7656 22.7812 31.7656C22.7812 31.7656 23.1354 31.2188 22.5052 30.8125C22.5052 30.8125 15.026 25.875 13.4323 25.5781C11.2552 25.1719 9.10417 26.9271 8.625 29.2135L5.96875 42.1771C3.68229 39.4479 2.30729 35.9427 2.30729 32.1146C2.30729 23.4427 9.39062 16.3802 18.099 16.3802C22.7448 16.3802 26.9323 18.3958 29.8229 21.5937L31.4427 19.9583C28.1354 16.349 23.375 14.0833 18.099 14.0833Z" fill="#231F20"/>
<path d="M87.1094 13.7083V14.4844C87.1094 15.125 86.7969 15.5365 86.0677 15.5365H83.9375V23.7917H81.8698V15.5365H78.7084V14.8438C78.7084 14.1198 79.0417 13.7083 79.9011 13.7083" fill="#231F20"/>
<path d="M90.6093 18.8802H91.8698C93.2604 18.8802 93.802 18.2083 93.802 17.1042C93.802 15.9167 93.276 15.4688 91.901 15.4688H90.6093V18.8802ZM91.9843 13.7083C94.6979 13.7083 95.9531 14.7448 95.9531 17.1042C95.9531 18.6979 95.0416 19.625 94.0156 20.151L96.0677 23.7917H94.5312C93.9375 23.7917 93.6041 23.5938 93.3229 23.0833L92.0364 20.5625H90.6093V23.7917H88.5416V15.0104C88.5416 14.1875 89.0052 13.7083 89.8489 13.7083" fill="#231F20"/>
<path d="M98.0834 23.7917H100.146V13.7083H98.0834V23.7917Z" fill="#231F20"/>
<path d="M107.932 13.7083C108.828 13.7083 108.943 14.0208 108.943 14.5833V15.474H104.708V17.8958H108.594V18.8177C108.594 19.276 108.417 19.5417 107.839 19.5417H104.708V22.0469H109.125V22.9844C109.125 23.5781 108.781 23.7917 108.099 23.7917H102.641V13.7083" fill="#231F20"/>
<path d="M118.266 13.7083V14.4844C118.266 15.0417 118.13 15.474 117.687 16.0469L113.073 22.0469H118.417V22.6719C118.417 23.2969 118.151 23.7917 117.375 23.7917H110.526V23.1667C110.526 22.4896 110.641 22.0625 111.073 21.5052L115.719 15.474H110.677V14.8594C110.677 14.151 111.12 13.7083 111.979 13.7083" fill="#231F20"/>
<path d="M56.75 33H58.0104C59.3958 33 59.9427 32.3229 59.9427 31.2187C59.9427 30.0312 59.4167 29.5885 58.0417 29.5885H56.75V33ZM58.125 27.8229C60.8385 27.8229 62.0938 28.8646 62.0938 31.2187C62.0938 32.8177 61.1823 33.7396 60.1562 34.2708L62.2083 37.9115H60.6719C60.0781 37.9115 59.7448 37.7135 59.4635 37.2031L58.1771 34.6823H56.75V37.9115H54.6875V29.125C54.6875 28.3021 55.1458 27.8229 55.9896 27.8229" fill="#231F20"/>
<path d="M69.5312 24.0208L68.1406 25.8802C67.8281 26.276 67.3958 26.474 66.8177 26.474H66.125L67.3958 24.0208H69.5312ZM69.3802 27.8229C70.276 27.8229 70.3906 28.1406 70.3906 28.6979V29.5885H66.1562V32.0104H70.0416V32.9323C70.0416 33.3958 69.8593 33.6562 69.2812 33.6562H66.1562V36.1615H70.5729V37.1042C70.5729 37.6979 70.2239 37.9115 69.5468 37.9115H64.0885V27.8229" fill="#231F20"/>
<path d="M77.8125 27.8229C78.7032 27.8229 78.8177 28.1354 78.8177 28.6979V29.5885H74.5834V32.0104H78.4688V32.9323C78.4688 33.3958 78.2917 33.6615 77.7136 33.6615H74.5834V36.1615H79V37.1042C79 37.6927 78.6511 37.9115 77.974 37.9115H72.5209V27.8229" fill="#231F20"/>
<path d="M83.4114 31.3542L82.8489 37.9115H80.6979L81.5729 28.7135C81.6927 27.5781 83.5416 27.2135 84.1406 28.3854L86.4687 33.1979L88.7708 28.3854C89.3645 27.2135 91.2656 27.5781 91.401 28.8802L92.2395 37.9115H90.0937L89.5312 31.3542L87.5468 35.5521C87.1302 36.3594 85.7916 36.3594 85.3958 35.5365" fill="#231F20"/>
<path d="M96.5156 32.9323H97.6562C99.0781 32.9323 99.625 32.4375 99.625 31.1875C99.625 29.7865 99.0469 29.5052 97.6927 29.5052H96.5156V32.9323ZM97.8073 27.8229C100.453 27.8229 101.792 28.7448 101.792 31.1875C101.792 33.6615 100.042 34.6146 97.7917 34.6146H96.5156V37.9115H94.4531V29.125C94.4531 28.3021 94.9115 27.8229 95.7552 27.8229" fill="#231F20"/>
<path d="M109.875 36.1615V37.0729C109.875 37.6615 109.479 37.9115 108.766 37.9115H105.078C104.151 37.9115 103.724 37.4323 103.724 36.526V27.8229H105.786V36.1615" fill="#231F20"/>
<path d="M114.932 29.4063C113.359 29.4063 112.583 29.9167 112.583 32.8854C112.583 35.8333 113.359 36.3281 114.932 36.3281C116.469 36.3281 117.26 35.8333 117.26 32.8854C117.26 29.9167 116.469 29.4063 114.932 29.4063ZM114.932 38.1094C111.953 38.1094 110.432 36.6927 110.432 32.8854C110.432 29.0625 111.953 27.6302 114.932 27.6302C117.891 27.6302 119.411 29.0625 119.411 32.8854C119.411 36.6927 117.891 38.1094 114.932 38.1094Z" fill="#231F20"/>
<path d="M121.771 27.8229C122.333 27.8229 122.682 28.0417 122.896 28.4687L124.813 32.276L126.599 28.4687C126.797 28.0208 127.078 27.8229 127.625 27.8229H128.932L125.708 34.1198V37.9115H123.641V34.1198L120.349 27.8229" fill="#231F20"/>
<path d="M135.688 27.8229C136.583 27.8229 136.698 28.1354 136.698 28.6979V29.5885H132.464V32.0104H136.349V32.9323C136.349 33.3958 136.172 33.6615 135.589 33.6615H132.464V36.1615H136.88V37.1042C136.88 37.6927 136.531 37.9115 135.854 37.9115H130.396V27.8229" fill="#231F20"/>
<path d="M146.021 27.8229V28.599C146.021 29.1615 145.885 29.5885 145.443 30.1667L140.828 36.1615H146.172V36.7917C146.172 37.4167 145.906 37.9115 145.13 37.9115H138.281V37.2865C138.281 36.6094 138.396 36.1823 138.828 35.6198L143.474 29.5885H138.432V28.9792C138.432 28.2708 138.875 27.8229 139.74 27.8229" fill="#231F20"/>
<path d="M67.599 47.1146H68.8542C70.2448 47.1146 70.7865 46.4427 70.7865 45.3385C70.7865 44.151 70.2604 43.7031 68.8854 43.7031H67.599V47.1146ZM68.9688 41.9427C71.6823 41.9427 72.9375 42.9792 72.9375 45.3385C72.9375 46.9375 72.0313 47.8594 71.0052 48.3854L73.0521 52.026H71.5156C70.9219 52.026 70.5885 51.8281 70.3073 51.3177L69.0208 48.7969H67.599V52.026H65.5312V43.2448C65.5312 42.4219 65.9948 41.9427 66.8385 41.9427" fill="#231F20"/>
<path d="M80.2239 41.9427C81.1198 41.9427 81.2343 42.2552 81.2343 42.8177V43.7083H77V46.1302H80.8854V47.0521C80.8854 47.5104 80.7083 47.776 80.125 47.776H77V50.2812H81.4166V51.2187C81.4166 51.8125 81.0677 52.026 80.3906 52.026H74.9323V41.9427" fill="#231F20"/>
<path d="M89.8125 43.901C89.25 43.724 88.4062 43.526 87.2812 43.526C85.6614 43.526 84.7343 44.2813 84.7343 46.9531C84.7343 49.6198 85.6979 50.4479 87.4791 50.4479C88.6354 50.4479 89.3645 50.2292 89.927 50.0469V51.1198C89.927 51.9635 88.6875 52.224 87.2187 52.224C84.4218 52.224 82.6041 50.776 82.6041 46.9531C82.6041 43.0781 84.3229 41.7448 87.3802 41.7448C88.8541 41.7448 89.8125 42.0573 89.8125 42.9792" fill="#231F20"/>
<path d="M92.1875 41.9427C92.75 41.9427 93.099 42.1562 93.3125 42.5833L95.2292 46.3906L97.0208 42.5833C97.2188 42.1406 97.5 41.9427 98.0417 41.9427H99.349L96.125 48.2396V52.026H94.0573V48.2396L90.7656 41.9427" fill="#231F20"/>
<path d="M107.479 43.901C106.922 43.724 106.073 43.526 104.953 43.526C103.328 43.526 102.401 44.2813 102.401 46.9531C102.401 49.6198 103.365 50.4479 105.146 50.4479C106.307 50.4479 107.036 50.2292 107.599 50.0469V51.1198C107.599 51.9635 106.354 52.224 104.885 52.224C102.089 52.224 100.271 50.776 100.271 46.9531C100.271 43.0781 101.99 41.7448 105.047 41.7448C106.521 41.7448 107.479 42.0573 107.479 42.9792" fill="#231F20"/>
<path d="M115.615 50.2812V51.1875C115.615 51.7812 115.214 52.026 114.505 52.026H110.818C109.891 52.026 109.458 51.5521 109.458 50.6406V41.9427H111.526V50.2812" fill="#231F20"/>
<path d="M122.307 41.9427C123.198 41.9427 123.312 42.2552 123.312 42.8177V43.7083H119.083V46.1302H122.969V47.0521C122.969 47.5104 122.786 47.776 122.208 47.776H119.083V50.2812H123.495V51.2187C123.495 51.8125 123.151 52.026 122.469 52.026H117.016V41.9427" fill="#231F20"/>
<path d="M132.635 41.9427V42.7187C132.635 43.276 132.505 43.7083 132.057 44.2812L127.443 50.2812H132.786V50.9062C132.786 51.5312 132.521 52.026 131.745 52.026H124.896V51.401C124.896 50.724 125.01 50.2969 125.443 49.7396L130.089 43.7083H125.047V43.0937C125.047 42.3854 125.495 41.9427 126.354 41.9427" fill="#231F20"/>
<path d="M177.271 46.3021H176.583V48.1302H177.255C178 48.1302 178.292 47.7656 178.292 47.1771C178.292 46.5417 178.01 46.3021 177.271 46.3021Z" fill="#231F20"/>
<path d="M240.458 46.2031C239.677 46.2031 239.411 46.5573 239.411 47.2448V48.0573H241.495V47.2448C241.495 46.5573 241.24 46.2031 240.458 46.2031Z" fill="#231F20"/>
<path d="M264.599 46.3021H263.906V48.1302H264.583C265.323 48.1302 265.62 47.7656 265.62 47.1771C265.62 46.5417 265.333 46.3021 264.599 46.3021Z" fill="#231F20"/>
<path d="M185.839 46.9167C185.839 46.4792 185.599 46.2552 184.995 46.2552H184.198V47.599H185.005C185.536 47.599 185.839 47.3594 185.839 46.9167Z" fill="#231F20"/>
<path d="M168.292 23.2552H202.484V19.2292H168.292V23.2552Z" fill="#231F20"/>
<path d="M168.292 37.1719H188.568V29.125H168.292V37.1719Z" fill="#231F20"/>
<path d="M285.005 25.875C283.807 25.875 283.172 26.276 283.172 28.4479C283.172 30.6094 283.807 31.0052 285.005 31.0052C286.177 31.0052 286.812 30.6094 286.812 28.4479C286.812 26.276 286.177 25.875 285.005 25.875Z" fill="#231F20"/>
<path d="M295.036 46.3021H294.203V49.8229H294.87C295.979 49.8229 296.375 49.276 296.375 48.0052C296.375 46.6458 295.891 46.3021 295.036 46.3021Z" fill="#231F20"/>
<path d="M185.078 48.474H184.198V49.8594H185.016C185.714 49.8594 185.99 49.6406 185.99 49.1667C185.99 48.6823 185.714 48.474 185.078 48.474Z" fill="#231F20"/>
<path d="M255.047 37.1719H273.156L264.104 25.0052" fill="#231F20"/>
<path d="M237.344 25.8698L246.219 23.2083L240.719 20.4896" fill="#231F20"/>
<path d="M259.344 46.2031C258.5 46.2031 258.083 46.4792 258.083 48.0677C258.083 49.6458 258.5 49.9115 259.344 49.9115C260.167 49.9115 260.589 49.6458 260.589 48.0677C260.589 46.4792 260.167 46.2031 259.344 46.2031Z" fill="#231F20"/>
<path d="M248.62 22.4896L257.115 19.9427L252.094 17.9948" fill="#231F20"/>
<path d="M231.141 46.2552H230.51V48.0937H231.125C231.885 48.0937 232.177 47.8281 232.177 47.1562C232.177 46.4062 231.865 46.2552 231.141 46.2552Z" fill="#231F20"/>
<path d="M241.88 20.0781L247.297 22.75L250.901 18.0938" fill="#231F20"/>
<path d="M253.38 17.5469L258.349 19.474L261.734 15.7083" fill="#231F20"/>
<path d="M210.396 46.3021H209.703V48.1302H210.375C211.12 48.1302 211.411 47.7656 211.411 47.1771C211.411 46.5417 211.13 46.3021 210.396 46.3021Z" fill="#231F20"/>
<path d="M216.323 25.875C215.13 25.875 214.495 26.276 214.495 28.4479C214.495 30.6094 215.13 31.0052 216.323 31.0052C217.495 31.0052 218.13 30.6094 218.13 28.4479C218.13 26.276 217.495 25.875 216.323 25.875Z" fill="#231F20"/>
<path d="M259.854 19.1198L263.448 18.0417L262.786 15.8646" fill="#231F20"/>
<path d="M197.005 37.1719H202.484V29.125H197.005V37.1719Z" fill="#231F20"/>
<path d="M316.667 34.3646V26.9219C316.578 26.9479 316.505 27 316.417 27.0104C316.328 27.0208 316.245 27.0312 316.161 27.0312C315.911 27.0312 315.677 26.9583 315.448 26.8542L314.391 27.9062V34.3646C314.391 34.6562 314.156 34.8906 313.865 34.8906H313.208L315.526 37.1979L317.844 34.8906H317.193C316.901 34.8906 316.667 34.6562 316.667 34.3646Z" fill="#231F20"/>
<path d="M314.422 25.5208C314.359 25.0625 314.479 24.599 314.76 24.2292L316.026 22.526L315.552 22.0573L306.984 30.5937C306.781 30.7917 306.448 30.7917 306.24 30.5937L305.776 30.1302L305.781 33.3958H309.052L308.594 32.9375C308.495 32.8385 308.437 32.7083 308.437 32.5625C308.437 32.4271 308.495 32.2917 308.594 32.1927L314.646 26.1615C314.536 25.9687 314.458 25.7552 314.422 25.5208Z" fill="#231F20"/>
<path d="M315.927 20.9375L316.667 21.6719L316.911 21.3437C316.807 21.1771 316.693 20.9479 316.599 20.6719C316.51 20.4115 316.474 20.0833 316.464 19.7865C316.255 19.849 316.047 19.9271 315.88 19.9844C315.708 20.0469 315.505 20.5365 315.396 20.7969L315.365 20.8594C315.557 20.7865 315.771 20.7865 315.927 20.9375Z" fill="#231F20"/>
<path d="M320.547 25.2344C320.552 25.5365 320.823 25.8073 321.109 25.7656C321.255 25.7604 321.396 25.6927 321.49 25.5885C321.589 25.4844 321.641 25.349 321.635 25.2031L321.552 22.974C321.125 23.1302 320.75 23.2604 320.484 23.3333" fill="#231F20"/>
<path d="M320.089 22.3542C320.724 22.1875 322.859 21.3958 323.979 20.7188C324.927 20.1406 325.406 18.7865 325.417 17.6667L324.682 16.9375L322.349 14.6094L315.344 16.7865C314.839 16.9583 314.49 17.2344 314.328 17.6042C314.193 17.9063 312.74 21.3333 312.74 21.3333C312.589 21.7188 312.573 22.0313 312.698 22.2448C312.807 22.4375 312.979 22.7188 313.135 22.9688L314.109 21.9948C314.104 21.651 314.125 21.0573 314.307 20.6458L314.417 20.3906C314.63 19.8906 314.911 19.2083 315.521 18.9948C316 18.8229 316.844 18.5521 316.844 18.5521C316.896 18.5365 316.948 18.526 317.005 18.526C317.12 18.526 317.24 18.5677 317.333 18.6406C317.469 18.75 317.547 18.9167 317.531 19.0938C317.505 19.4167 317.5 20.0469 317.599 20.3385C317.729 20.7292 317.932 20.974 317.932 20.974C318.141 21.1563 318.156 21.4427 317.995 21.6615L315.604 24.8594C315.49 25.0104 315.443 25.1927 315.469 25.375C315.495 25.5625 315.594 25.724 315.745 25.8385C315.896 25.9479 316.078 25.9844 316.266 25.9688C316.448 25.9427 316.615 25.8438 316.724 25.6979L318.214 23.6979C318.974 22.7031 319.844 22.4167 320.089 22.3542Z" fill="#231F20"/>
<path d="M189.63 37.1719H195.938V29.125H189.63V37.1719Z" fill="#231F20"/>
<mask id="mask0_8_51566" style="mask-type:luminance" maskUnits="userSpaceOnUse" x="46" y="0" width="304" height="62">
<path d="M46.6666 -1.90735e-06H349.984V61.3333H46.6666V-1.90735e-06Z" fill="white"/>
</mask>
<g mask="url(#mask0_8_51566)">
<path d="M338.25 50.3281C338.25 50.6458 338.062 50.7604 337.698 50.7604H334.776V45.3542H337.609C338.088 45.3542 338.151 45.526 338.151 45.8229V46.3021H335.88V47.599H337.963V48.0938C337.963 48.3438 337.865 48.4844 337.557 48.4844H335.88V49.8229H338.25V50.3281ZM333.437 50.7604H332.328V45.3542H333.437V50.7604ZM330.422 50.7604C330.099 50.7604 329.922 50.6562 329.771 50.3802L329.083 49.0312H328.318V50.7604H327.213V46.0573C327.213 45.6146 327.463 45.3542 327.911 45.3542H329.057C330.51 45.3542 331.182 45.9115 331.182 47.1771C331.182 48.0312 330.693 48.526 330.146 48.8073L331.245 50.7604H330.422ZM326.38 33.9271C326.38 34.2188 326.141 34.4531 325.854 34.4531L320.771 34.4583C320.557 34.4583 320.365 34.3333 320.281 34.1354C320.198 33.9375 320.245 33.7083 320.396 33.5625L321.391 32.5677L317.719 28.9115V33.8385H319.125C319.338 33.8385 319.531 33.9688 319.615 34.1667C319.693 34.3594 319.646 34.5885 319.495 34.7396L315.901 38.3177C315.797 38.4167 315.661 38.4688 315.526 38.4688C315.391 38.4688 315.255 38.4167 315.151 38.3177L311.557 34.7396C311.406 34.5885 311.359 34.3594 311.443 34.1667C311.526 33.9688 311.719 33.8385 311.932 33.8385H313.338V28.9583L309.719 32.5625L310.703 33.5521C310.859 33.7031 310.901 33.9271 310.818 34.125C310.74 34.3229 310.547 34.4479 310.333 34.4479H305.255C304.958 34.4479 304.724 34.2135 304.724 33.9219L304.719 28.8594C304.719 28.6458 304.849 28.4531 305.047 28.375C305.24 28.2865 305.469 28.3385 305.62 28.4844L306.615 29.474L312.37 23.7396C312.182 23.4427 311.927 23.026 311.776 22.7604C311.49 22.2604 311.484 21.6458 311.76 20.9375C311.766 20.9271 313.229 17.4844 313.359 17.1823C313.641 16.5417 314.213 16.0573 315.016 15.7812L321.693 13.7083C321.411 12.974 321.557 12.1094 322.146 11.5208L322.568 11.099C323.365 10.3073 324.667 10.3073 325.469 11.099L329.562 15.1823C329.948 15.5677 330.161 16.0781 330.161 16.625C330.161 17.1719 329.948 17.6823 329.562 18.0677L329.141 18.4896C328.755 18.875 328.24 19.0885 327.693 19.0885C327.203 19.0885 326.75 18.8958 326.38 18.5833C326.172 19.7552 325.583 20.9792 324.526 21.6198C324.005 21.9323 323.297 22.2656 322.599 22.5573L322.693 25.1667C322.708 25.5938 322.557 26 322.266 26.3073C322.104 26.4792 321.906 26.6042 321.693 26.6875L324.49 29.4792L325.484 28.4896C325.635 28.3438 325.865 28.2969 326.057 28.3802C326.255 28.4583 326.385 28.651 326.385 28.8646L326.38 33.9271ZM326.094 50.3281C326.094 50.6458 325.906 50.7604 325.542 50.7604H322.62V45.3542H325.458C325.932 45.3542 325.995 45.526 325.995 45.8229V46.3021H323.729V47.599H325.812V48.0938C325.812 48.3438 325.713 48.4844 325.401 48.4844H323.729V49.8229H326.094V50.3281ZM321.917 45.7708C321.917 46.1146 321.75 46.3385 321.359 46.3385H320.213V50.7604H319.109V46.3385H317.417V45.9688C317.417 45.5781 317.594 45.3542 318.052 45.3542H321.917V45.7708ZM313.922 43.3177H315.078L315.755 44.6354H315.396C315.13 44.6354 314.901 44.5625 314.755 44.3854L313.922 43.3177ZM316.937 50.3281C316.937 50.6458 316.75 50.7604 316.385 50.7604H313.463V45.3542H316.297C316.776 45.3542 316.838 45.526 316.838 45.8229V46.3021H314.573V47.599H316.651V48.0938C316.651 48.3438 316.552 48.4844 316.245 48.4844H314.573V49.8229H316.937V50.3281ZM312.115 50.7604H311.005V48.5208H308.656V50.7604H307.547V45.3542H308.203C308.568 45.3542 308.656 45.5052 308.656 45.8542V47.5833H311.005V45.8542C311.005 45.5052 311.12 45.3542 311.474 45.3542H312.115V50.7604ZM306.547 50.276C306.547 50.724 305.88 50.8646 305.094 50.8646C303.594 50.8646 302.62 50.0885 302.62 48.0417C302.62 45.9688 303.542 45.25 305.182 45.25C305.969 45.25 306.484 45.4167 306.484 45.9115V46.4062C306.182 46.3125 305.729 46.2031 305.13 46.2031C304.26 46.2031 303.766 46.6094 303.766 48.0417C303.766 49.4688 304.276 49.9115 305.234 49.9115C305.854 49.9115 306.245 49.7969 306.547 49.7031V50.276ZM301.979 50.3281C301.979 50.6458 301.792 50.7604 301.432 50.7604H298.505V45.3542H301.344C301.818 45.3542 301.88 45.526 301.88 45.8229V46.3021H299.615V47.599H301.698V48.0938C301.698 48.3438 301.599 48.4844 301.286 48.4844H299.615V49.8229H301.979V50.3281ZM294.859 50.7604H293.807C293.312 50.7604 293.088 50.5052 293.088 50.0365V45.3542H295.057C296.615 45.3542 297.521 46.151 297.521 47.9896C297.521 49.6927 296.917 50.7604 294.859 50.7604ZM291.198 31.5885C289.505 31.5885 288.859 30.6354 288.859 29.349V25.4062H289.213C289.448 25.4062 289.536 25.5156 289.536 25.7812V29.3385C289.536 30.2708 289.943 31.0052 291.198 31.0052C292.448 31.0052 292.849 30.2708 292.849 29.3385V25.7812C292.849 25.5156 292.948 25.4062 293.177 25.4062H293.521V29.349C293.521 30.6354 292.885 31.5885 291.198 31.5885ZM285.005 31.5885C283.38 31.5885 282.469 30.9479 282.469 28.4479C282.469 25.9323 283.38 25.2865 285.005 25.2865C286.615 25.2865 287.516 25.9323 287.516 28.4479C287.516 30.9479 286.615 31.5885 285.005 31.5885ZM278.49 50.3281C278.49 50.6458 278.302 50.7604 277.937 50.7604H275.016V45.3542H277.854C278.328 45.3542 278.391 45.5208 278.391 45.8229V46.3021H276.125V47.599H278.208V48.0938C278.208 48.3385 278.109 48.4792 277.797 48.4792H276.125V49.8229H278.49V50.3281ZM274.693 37.9427C274.604 38.125 274.417 38.2396 274.219 38.2396H253.99C253.786 38.2396 253.604 38.125 253.51 37.9427C253.422 37.7656 253.437 37.5521 253.562 37.3906L263.672 23.7969C263.875 23.5208 264.328 23.5208 264.531 23.7969L274.646 37.3906C274.766 37.5521 274.786 37.7656 274.693 37.9427ZM272.745 50.7604L272.443 47.2448L271.38 49.4948C271.156 49.9323 270.437 49.9323 270.229 49.4896L269.161 47.2448L268.865 50.7604H267.713L268.182 45.8333C268.245 45.224 269.234 45.026 269.552 45.6562L270.802 48.2344L272.036 45.6562C272.354 45.026 273.375 45.224 273.443 45.9219L273.896 50.7604H272.745ZM266.01 50.7604C265.687 50.7604 265.51 50.6562 265.359 50.3802L264.672 49.026H263.906V50.7604H262.802V46.0521C262.802 45.6146 263.047 45.3542 263.5 45.3542H264.641C266.094 45.3542 266.771 45.9115 266.771 47.1771C266.771 48.0312 266.281 48.526 265.734 48.8073L266.833 50.7604H266.01ZM259.344 50.8646C257.745 50.8646 256.932 50.1042 256.932 48.0677C256.932 46.0156 257.745 45.25 259.344 45.25C260.927 45.25 261.745 46.0156 261.745 48.0677C261.745 50.1042 260.927 50.8646 259.344 50.8646ZM256.203 46.3021H253.969V47.6927H256.026V48.25C256.026 48.5 255.917 48.6406 255.62 48.6406H253.969V50.7604H252.859V45.3542H255.651C256.13 45.3542 256.203 45.5208 256.203 45.8229V46.3021ZM251.745 50.3281C251.745 50.6458 251.557 50.7604 251.193 50.7604H248.271V45.3542H251.104C251.583 45.3542 251.646 45.5208 251.646 45.8229V46.3021H249.375V47.599H251.458V48.0938C251.458 48.3385 251.365 48.4792 251.052 48.4792H249.375V49.8229H251.745V50.3281ZM247.526 23.7396L236.469 27.0521C236.427 27.0677 236.385 27.0729 236.344 27.0729C236.208 27.0729 236.078 27.0104 235.99 26.901C235.88 26.7552 235.87 26.5521 235.969 26.3958L239.62 20.5729L235.427 21.4948C235.187 21.5521 234.948 21.401 234.896 21.1615C234.844 20.9219 234.995 20.6875 235.234 20.6354L262.885 14.5521C262.896 14.5521 262.906 14.5469 262.917 14.5469C262.969 14.5365 263.026 14.5417 263.078 14.5521C263.141 14.5625 263.198 14.5885 263.255 14.6302C263.286 14.6562 263.318 14.6875 263.344 14.724C263.375 14.7656 263.396 14.8125 263.411 14.8594L264.422 18.2135C264.49 18.4479 264.359 18.6927 264.125 18.7604L247.578 23.724C247.562 23.7292 247.542 23.7344 247.526 23.7396ZM247.568 45.7708C247.568 46.1146 247.401 46.3385 247.01 46.3385H245.865V50.7604H244.76V46.3385H243.068V45.9635C243.068 45.5781 243.245 45.3542 243.703 45.3542H247.568V45.7708ZM242.615 50.7604H241.495V48.9688H239.411V50.7604H238.333V47.2552C238.333 46.0625 238.838 45.25 240.458 45.25C242.088 45.25 242.615 46.0625 242.615 47.2552V50.7604ZM237.672 50.3073C237.672 50.625 237.463 50.7604 237.078 50.7604H235.104C234.609 50.7604 234.375 50.5052 234.375 50.0156V45.3542H235.484V49.8229H237.672V50.3073ZM231.193 48.9948H230.51V50.7604H229.406V46.0521C229.406 45.6146 229.651 45.3542 230.104 45.3542H231.203C232.62 45.3542 233.338 45.849 233.338 47.1562C233.338 48.4792 232.401 48.9948 231.193 48.9948ZM224.844 29.349C224.844 30.6354 224.208 31.5885 222.516 31.5885C220.823 31.5885 220.182 30.6354 220.182 29.349V25.4062H220.536C220.766 25.4062 220.854 25.5156 220.854 25.7812V29.3385C220.854 30.2708 221.266 31.0052 222.516 31.0052C223.766 31.0052 224.167 30.2708 224.167 29.3385V25.7812C224.167 25.5156 224.266 25.4062 224.495 25.4062H224.844V29.349ZM216.323 31.5885C214.703 31.5885 213.786 30.9479 213.786 28.4479C213.786 25.9323 214.703 25.2865 216.323 25.2865C217.932 25.2865 218.838 25.9323 218.838 28.4479C218.838 30.9479 217.932 31.5885 216.323 31.5885ZM211.802 50.7604C211.484 50.7604 211.307 50.6562 211.156 50.3802L210.463 49.026H209.703V50.7604H208.594V46.0521C208.594 45.6146 208.844 45.3542 209.297 45.3542H210.437C211.891 45.3542 212.568 45.9115 212.568 47.1771C212.568 48.0312 212.078 48.526 211.531 48.8073L212.63 50.7604H211.802ZM207.271 48.8802C207.271 50.0729 206.687 50.8646 205.047 50.8646C203.437 50.8646 202.854 50.0729 202.854 48.8802V45.3542H203.505C203.87 45.3542 203.958 45.5052 203.958 45.849V48.8281C203.958 49.5052 204.281 49.9115 205.047 49.9115C205.849 49.9115 206.156 49.5052 206.156 48.8281V45.849C206.156 45.5052 206.255 45.3542 206.609 45.3542H207.271V48.8802ZM201.849 50.3281C201.849 50.6458 201.661 50.7604 201.297 50.7604H198.375V45.3542H201.208C201.687 45.3542 201.75 45.5208 201.75 45.8229V46.3021H199.484V47.599H201.562V48.0938C201.562 48.3385 201.469 48.4792 201.156 48.4792H199.484V49.8229H201.849V50.3281ZM197.672 45.7708C197.672 46.1146 197.505 46.3385 197.115 46.3385H195.969V50.7604H194.865V46.3385H193.172V45.9635C193.172 45.5781 193.349 45.3542 193.807 45.3542H197.672V45.7708ZM192.484 48.8802C192.484 50.0729 191.901 50.8646 190.26 50.8646C188.651 50.8646 188.062 50.0729 188.062 48.8802V45.3542H188.719C189.083 45.3542 189.172 45.5052 189.172 45.849V48.8281C189.172 49.5052 189.49 49.9115 190.26 49.9115C191.057 49.9115 191.37 49.5052 191.37 48.8281V45.849C191.37 45.5052 191.469 45.3542 191.823 45.3542H192.484V48.8802ZM184.979 50.7604H183.781C183.312 50.7604 183.088 50.5052 183.088 50.0521V45.3542H184.932C186.193 45.3542 186.979 45.7292 186.979 46.75C186.979 47.4479 186.646 47.7396 186.115 47.9271C186.609 48.0573 187.167 48.401 187.167 49.1719C187.167 50.3281 186.333 50.7604 184.979 50.7604ZM181.698 50.7604H180.588V45.3542H181.698V50.7604ZM178.682 50.7604C178.365 50.7604 178.187 50.6562 178.036 50.3802L177.344 49.026H176.583V50.7604H175.474V46.0521C175.474 45.6146 175.724 45.3542 176.177 45.3542H177.318C178.771 45.3542 179.448 45.9115 179.448 47.1771C179.448 48.0312 178.958 48.526 178.406 48.8073L179.505 50.7604H178.682ZM174.703 45.7708C174.703 46.1146 174.536 46.3385 174.146 46.3385H173V50.7604H171.896V46.3385H170.203V45.9635C170.203 45.5781 170.38 45.3542 170.838 45.3542H174.703V45.7708ZM167.755 50.8646C166.484 50.8646 166.141 50.5104 166.141 50.1146V49.6302C166.557 49.7604 167.151 49.9115 167.807 49.9115C168.302 49.9115 168.594 49.6979 168.594 49.3281C168.594 48.5 166.088 48.6302 166.088 46.9375C166.088 45.8073 166.958 45.25 168.198 45.25C168.932 45.25 169.536 45.401 169.536 45.9375V46.4062C169.312 46.3385 168.823 46.2031 168.286 46.2031C167.656 46.2031 167.318 46.3906 167.318 46.8229C167.318 47.6927 169.828 47.6094 169.828 49.2396C169.828 50.2292 169.031 50.8646 167.755 50.8646ZM165.536 37.1719H167.219V18.6979C167.219 18.401 167.458 18.1667 167.755 18.1667H203.016C203.312 18.1667 203.547 18.401 203.547 18.6979V37.1719H205.234V38.2396H165.536V37.1719ZM165.057 50.7604H163.948V45.3542H165.057V50.7604ZM160.234 50.7604H159.182C158.682 50.7604 158.463 50.5052 158.463 50.0365V45.3542H160.427C161.99 45.3542 162.896 46.151 162.896 47.9896C162.896 49.6875 162.292 50.7604 160.234 50.7604ZM139.979 58.625H66.2551C56.8333 58.625 49.1666 50.724 49.1666 41.0104V6.92187H57.5312C58.1926 10.401 61.9322 11.6198 66.4895 11.6198C71.052 11.6198 74.7916 10.401 75.453 6.92187H140.463L154.625 33.4375L139.979 58.625ZM62.3958 3.35417H65.1822C65.6562 3.35417 65.7239 3.52604 65.7239 3.82292V4.30208H63.5051V5.6875H65.552V6.24479C65.552 6.48958 65.4426 6.63021 65.1458 6.63021H63.5051V8.73958H62.3958V3.35417ZM66.8176 4.05208C66.8176 3.60937 67.0624 3.35417 67.5155 3.35417H68.6562C70.0989 3.35417 70.7708 3.91146 70.7708 5.16667C70.7708 6.02083 70.2864 6.51562 69.7395 6.79687L70.8333 8.73958H70.0155C69.6926 8.73958 69.5208 8.63542 69.3697 8.36458L68.6822 7.01562H67.9218V8.73958H66.8176V4.05208ZM264.818 21.3125C264.818 21.7031 264.495 22.0208 264.104 22.0208C263.708 22.0208 263.391 21.7031 263.391 21.3125C263.391 20.9219 263.708 20.599 264.104 20.599C264.495 20.599 264.818 20.9219 264.818 21.3125ZM300.281 43.3177H301.422L300.677 44.3177C300.51 44.526 300.281 44.6354 299.969 44.6354H299.594L300.281 43.3177ZM330.672 4.70833H75.4478C74.7812 1.29687 71.0416 0.00520706 66.4895 0.00520706C61.9166 0.00520706 58.1666 1.08333 57.526 4.70833H46.9426V41.0104C46.9426 51.9479 55.6041 60.8438 66.2551 60.8438H349.984V24.5365C349.984 13.599 341.318 4.70833 330.672 4.70833Z" fill="#231F20"/>
</g>
<path d="M324.12 30.5938L318.536 25.0312L317.719 26.125V27.4271L322.51 32.1979C322.714 32.401 322.714 32.7344 322.51 32.9427L322.047 33.4062L325.323 33.401V30.1354L324.865 30.5938C324.656 30.7969 324.323 30.7969 324.12 30.5938Z" fill="#231F20"/>
<path d="M329.01 46.3021H328.318V48.1302H328.995C329.74 48.1302 330.031 47.7656 330.031 47.1771C330.031 46.5417 329.745 46.3021 329.01 46.3021Z" fill="#231F20"/>
<path d="M69.625 5.16666C69.625 4.53646 69.3438 4.30208 68.6094 4.30208H67.9219V6.11979H68.5938C69.3333 6.11979 69.625 5.76042 69.625 5.16666Z" fill="#231F20"/>
<path d="M197.005 28.0573H202.484V24.3229H197.005V28.0573Z" fill="#231F20"/>
<path d="M326.313 17.0729L326.99 17.7448C327.365 18.1198 328.021 18.1198 328.396 17.7448L328.818 17.3281C329.005 17.1406 329.104 16.8906 329.104 16.625C329.104 16.3594 329.005 16.1146 328.818 15.9271L324.719 11.849C324.333 11.4583 323.703 11.4583 323.318 11.849L322.896 12.2656C322.51 12.651 322.51 13.2708 322.896 13.6615" fill="#231F20"/>
<path d="M189.63 28.0573H195.938V24.3229H189.63V28.0573Z" fill="#231F20"/>
<path d="M182.26 28.0573H188.568V24.3229H182.26V28.0573Z" fill="#231F20"/>
<path d="M160.411 46.3021H159.578V49.8229H160.245C161.349 49.8229 161.75 49.276 161.75 48.0052C161.75 46.6458 161.26 46.3021 160.411 46.3021Z" fill="#231F20"/>
<path d="M174.885 28.0573H181.193V24.3229H174.885V28.0573Z" fill="#231F20"/>
<path d="M168.292 28.0573H173.818V24.3229H168.292V28.0573Z" fill="#231F20"/>
</g>
</g>
<defs>
<clipPath id="clip0_8_51566">
<rect width="350" height="74" fill="white"/>
</clipPath>
<clipPath id="clip1_8_51566">
<rect width="349.987" height="73.7067" fill="white"/>
</clipPath>
</defs>
</svg>
