<svg width="255" height="61" viewBox="0 0 255 61" fill="none" xmlns="http://www.w3.org/2000/svg">
<g clip-path="url(#clip0_79_266)">
<path d="M24.6979 60.4688C11.0781 60.4688 0 49.5208 0 36.0625V0H229.948C243.563 0 254.641 10.9479 254.641 24.4062V60.4688" fill="white"/>
<path d="M222.083 52.9113H69.1353C59.6874 52.9113 51.9999 45.354 51.9999 36.0623V7.55713H204.948C214.396 7.55713 222.083 15.1144 222.083 24.4061V52.9113ZM204.948 5.6665H50.1145V36.0623C50.1145 46.3957 58.6458 54.8019 69.1353 54.8019H223.969V24.4061C223.969 14.0728 215.437 5.6665 204.948 5.6665Z" fill="#333347"/>
<path d="M191.714 54.8019L204.724 28.2238L191.432 5.6665H229.948C240.437 5.6665 248.969 14.0728 248.969 24.4061V54.8019" fill="#333347"/>
<path d="M102.901 5.6665H50.1145V36.0623C50.1145 46.3957 58.6458 54.8019 69.1353 54.8019H121.927V24.4061C121.927 14.0728 113.391 5.6665 102.901 5.6665Z" fill="#333347"/>
<path d="M63.651 29.3594C58.8489 29.3594 54.9583 33.25 54.9583 38.0521C54.9583 42.8542 58.8489 46.7448 63.651 46.7448C68.4583 46.7448 72.3489 42.8542 72.3489 38.0521C72.3489 33.25 68.4583 29.3594 63.651 29.3594Z" fill="white"/>
<path d="M69.3229 39.4689H65.0729V43.7189H62.2344V39.4689H57.9844V36.6356H62.2344V32.3804H65.0729V36.6356H69.3229" fill="#1C1C1B"/>
<path d="M55.7864 26.5936V17.1978H58.2708V24.5155H61.828V26.5936" fill="white"/>
<path d="M62.9426 26.5936V17.1978H69.0155V19.2759H65.4322V20.755H68.4947V22.8384H65.4322V24.5155H69.1614V26.5936" fill="white"/>
<path d="M75.0885 26.5936V19.2759H72.6041V17.1978H80.0677V19.2759H77.5781V26.5936" fill="white"/>
<path d="M83.5521 21.4738H84.4479C85.4479 21.4738 85.9531 21.0623 85.9531 20.2342C85.9531 19.828 85.8229 19.5467 85.5677 19.3957C85.3125 19.2394 84.9375 19.1613 84.4479 19.1613H83.5521V21.4738ZM81.0625 26.5988V17.1978H84.6198C85.125 17.1978 85.6042 17.2446 86.0625 17.3384C86.5208 17.4373 86.9167 17.5988 87.2604 17.8332C87.6042 18.0623 87.875 18.3748 88.0781 18.7655C88.2813 19.1561 88.3802 19.6457 88.3802 20.2342C88.3802 20.9061 88.2448 21.4686 87.9688 21.9113C87.6979 22.354 87.3281 22.6978 86.8646 22.953L88.901 26.5988H86.125L84.5052 23.4425H83.5521V26.5988" fill="white"/>
<path d="M89.8698 26.5988H92.3593V17.1978H89.8698V26.5988Z" fill="white"/>
<path d="M75.3801 43.2759V33.8696H81.5103V35.953H77.8697V37.7498H80.9895V39.8332H77.8697V43.2759" fill="white"/>
<path d="M84.9218 38.703L84.7604 39.354H86.4948L86.3385 38.703C86.2239 38.2498 86.1041 37.7603 85.9895 37.229C85.875 36.6978 85.7604 36.1978 85.6406 35.7238H85.5833C85.4791 36.203 85.3698 36.7082 85.2604 37.2342C85.151 37.7603 85.0364 38.2498 84.9218 38.703ZM81.3073 43.2759L84.1666 33.8696H87.1718L90.0364 43.2759H87.4062L86.9427 41.2759H84.3125L83.8489 43.2759" fill="white"/>
<path d="M94.5624 43.4478C93.9687 43.4478 93.3958 43.3488 92.8541 43.1509C92.3072 42.953 91.8333 42.6509 91.4218 42.255C91.0103 41.854 90.6822 41.354 90.4426 40.7498C90.203 40.1457 90.0833 39.4478 90.0833 38.6457C90.0833 37.854 90.2083 37.1509 90.4583 36.5415C90.7083 35.9269 91.0416 35.4113 91.4635 34.9946C91.8801 34.5728 92.3645 34.2498 92.9114 34.0311C93.4583 33.8071 94.026 33.6978 94.6249 33.6978C95.2499 33.6978 95.8124 33.8228 96.302 34.0675C96.7968 34.3123 97.2083 34.604 97.5468 34.9425L96.2447 36.5311C96.0155 36.3332 95.776 36.1665 95.5312 36.0311C95.2812 35.9061 94.9999 35.8384 94.6822 35.8384C94.401 35.8384 94.1405 35.9009 93.8958 36.0259C93.651 36.1509 93.4322 36.3332 93.2447 36.5623C93.0572 36.7915 92.9062 37.078 92.7968 37.4165C92.6822 37.7498 92.6301 38.1353 92.6301 38.5571C92.6301 39.4478 92.8124 40.1248 93.1874 40.5988C93.5572 41.0675 94.0468 41.3071 94.651 41.3071C95.0208 41.3071 95.3437 41.229 95.6301 41.0675C95.9114 40.9061 96.1562 40.7186 96.3593 40.4946L97.6614 42.0571C97.2551 42.5207 96.7916 42.8696 96.2655 43.0988C95.7395 43.3332 95.1718 43.4478 94.5624 43.4478Z" fill="white"/>
<path d="M98.6198 43.2759H101.104V33.8696H98.6198V43.2759Z" fill="white"/>
<path d="M102.875 43.2759V33.8696H105.365V41.1925H108.922V43.2759" fill="white"/>
<path d="M110.031 43.2759V33.8696H116.109V35.953H112.521V37.4321H115.589V39.5155H112.521V41.1925H116.255V43.2759" fill="white"/>
<path d="M28.4062 25.7446C26.7135 28.2342 28.151 31.5103 29.8958 33.1717C31.4895 34.6821 32.7655 35.0363 32.9322 35.078L33.7447 33.5207L36.0885 39.9321L29.4635 41.2811L30.3437 39.6457L29.4478 39.1457C26.6562 37.328 26.0676 34.8592 25.8749 34.0884C25.5416 32.7603 25.0468 28.7863 28.4062 25.7446Z" fill="#333347"/>
<path d="M28.375 25.8488C29.5781 28.6092 33.1146 29.1405 35.4479 28.5519C37.5208 28.0259 38.5052 27.1717 38.6719 27.0155L38.6615 26.9998L37.776 25.4634L44.4427 26.9217L42.0313 33.2394L41.1354 31.6457L40.2656 32.1196C37.2396 33.5103 34.8333 32.6925 34.0781 32.4425C32.7813 32.0155 29.1562 30.3123 28.375 25.8488Z" fill="#333347"/>
<path d="M40.1613 19.1925C39.6978 22.4894 37.7134 24.0728 37.0936 24.5728C36.0311 25.4373 32.6457 27.5675 28.4634 25.8175C31.4373 26.2915 33.7967 23.604 34.5571 21.3175C35.2446 19.2655 35.0415 17.9686 34.9998 17.7707L34.979 17.7655L33.2134 17.6925L38.0259 12.854L42.0519 18.2863L40.2342 18.1821" fill="#333347"/>
<path fill-rule="evenodd" clip-rule="evenodd" d="M19.9375 16.4115C18.4167 16.4115 17.1875 15.1823 17.1875 13.6563C17.1875 12.1354 18.4167 10.9062 19.9375 10.9062C21.4583 10.9062 22.6927 12.1354 22.6927 13.6563C22.6927 15.1823 21.4583 16.4115 19.9375 16.4115Z" fill="#333347"/>
<path d="M15.6771 29.7967C15.9115 29.1509 16.2604 29.1925 16.2604 29.1925C16.2604 29.1925 16.5781 29.1248 16.7552 29.7707L19.3281 38.8071C17.1823 38.1821 15.224 37.1196 13.5573 35.7082L15.6771 29.7967ZM23.7031 5.6665C13.7604 5.6665 5.67188 13.755 5.67188 23.6978C5.67188 33.6405 13.7604 41.729 23.7031 41.729C24.2344 41.729 24.7552 41.6978 25.276 41.6509L25.3958 43.4634L28.6979 40.2707L25.0052 37.453L25.1458 39.354C24.6719 39.4009 24.1875 39.4321 23.7031 39.4321C22.9375 39.4321 22.1875 39.3748 21.4531 39.2655L21.3802 38.7863L19.6667 24.1873C19.4323 21.4321 21.0052 20.9946 21.9792 21.4061L27.4479 23.604C28.0729 23.8748 28.375 23.3488 28.375 23.3488C28.375 23.3488 28.7292 22.8019 28.0938 22.3957C28.0938 22.3957 20.6406 17.4582 19.0521 17.1561C16.8854 16.755 14.7396 18.5103 14.2656 20.7967L11.6198 33.7603C9.34375 31.0311 7.96875 27.5207 7.96875 23.6978C7.96875 15.0207 15.026 7.96338 23.7031 7.96338C28.3385 7.96338 32.5104 9.979 35.3906 13.1769L37.0052 11.5363C33.7083 7.93213 28.9635 5.6665 23.7031 5.6665Z" fill="#333347"/>
<path d="M129.6 27V18.432H131.328V25.584H134.388V27H129.6ZM135.239 27V18.432H136.967V27H135.239ZM140.24 18.432L142.328 24.3H142.352V18.432H143.936V27H141.968L139.856 21H139.832V27H138.248V18.432H140.24ZM148.943 20.976C148.943 20.816 148.923 20.652 148.883 20.484C148.851 20.316 148.795 20.164 148.715 20.028C148.635 19.884 148.531 19.768 148.403 19.68C148.283 19.584 148.135 19.536 147.959 19.536C147.543 19.536 147.243 19.768 147.059 20.232C146.875 20.696 146.783 21.464 146.783 22.536C146.783 23.048 146.799 23.512 146.831 23.928C146.863 24.344 146.919 24.7 146.999 24.996C147.087 25.284 147.207 25.508 147.359 25.668C147.519 25.82 147.723 25.896 147.971 25.896C148.075 25.896 148.187 25.868 148.307 25.812C148.435 25.756 148.551 25.672 148.655 25.56C148.767 25.448 148.859 25.308 148.931 25.14C149.003 24.964 149.039 24.76 149.039 24.528V23.652H147.899V22.38H150.695V27H149.423V26.208H149.399C149.191 26.544 148.939 26.784 148.643 26.928C148.355 27.064 148.007 27.132 147.599 27.132C147.071 27.132 146.639 27.04 146.303 26.856C145.975 26.672 145.715 26.388 145.523 26.004C145.339 25.62 145.215 25.148 145.151 24.588C145.087 24.02 145.055 23.364 145.055 22.62C145.055 21.9 145.099 21.268 145.187 20.724C145.283 20.18 145.443 19.728 145.667 19.368C145.891 19 146.187 18.724 146.555 18.54C146.923 18.356 147.383 18.264 147.935 18.264C148.879 18.264 149.559 18.5 149.975 18.972C150.391 19.436 150.599 20.104 150.599 20.976H148.943ZM156.595 18.432V19.848H153.535V21.864H156.415V23.28H153.535V25.584H156.715V27H151.807V18.432H156.595ZM162.6 18.432V19.848H160.728V27H159V19.848H157.128V18.432H162.6ZM168.366 18.432V19.848H166.494V27H164.766V19.848H162.894V18.432H168.366ZM173.904 18.432V19.848H170.844V21.864H173.724V23.28H170.844V25.584H174.024V27H169.116V18.432H173.904ZM131.592 33.432L133.68 39.3H133.704V33.432H135.288V42H133.32L131.208 36H131.184V42H129.6V33.432H131.592ZM141.279 33.432V34.848H138.219V36.864H141.099V38.28H138.219V40.584H141.399V42H136.491V33.432H141.279ZM147.284 33.432V34.848H145.412V42H143.684V34.848H141.812V33.432H147.284ZM153.05 33.432V34.848H151.178V42H149.45V34.848H147.578V33.432H153.05ZM155.347 37.716C155.347 38.292 155.359 38.784 155.383 39.192C155.415 39.592 155.471 39.92 155.551 40.176C155.639 40.424 155.759 40.608 155.911 40.728C156.071 40.84 156.279 40.896 156.535 40.896C156.791 40.896 156.995 40.84 157.147 40.728C157.307 40.608 157.427 40.424 157.507 40.176C157.595 39.92 157.651 39.592 157.675 39.192C157.707 38.784 157.723 38.292 157.723 37.716C157.723 37.14 157.707 36.652 157.675 36.252C157.651 35.852 157.595 35.524 157.507 35.268C157.427 35.012 157.307 34.828 157.147 34.716C156.995 34.596 156.791 34.536 156.535 34.536C156.279 34.536 156.071 34.596 155.911 34.716C155.759 34.828 155.639 35.012 155.551 35.268C155.471 35.524 155.415 35.852 155.383 36.252C155.359 36.652 155.347 37.14 155.347 37.716ZM153.619 37.716C153.619 37.068 153.647 36.472 153.703 35.928C153.767 35.376 153.899 34.904 154.099 34.512C154.307 34.12 154.603 33.816 154.987 33.6C155.371 33.376 155.887 33.264 156.535 33.264C157.183 33.264 157.699 33.376 158.083 33.6C158.467 33.816 158.759 34.12 158.959 34.512C159.167 34.904 159.299 35.376 159.355 35.928C159.419 36.472 159.451 37.068 159.451 37.716C159.451 38.372 159.419 38.972 159.355 39.516C159.299 40.06 159.167 40.528 158.959 40.92C158.759 41.312 158.467 41.612 158.083 41.82C157.699 42.028 157.183 42.132 156.535 42.132C155.887 42.132 155.371 42.028 154.987 41.82C154.603 41.612 154.307 41.312 154.099 40.92C153.899 40.528 153.767 40.06 153.703 39.516C153.647 38.972 153.619 38.372 153.619 37.716ZM161.554 33.432L162.682 36.744H162.706L163.906 33.432H165.778L163.558 38.628V42H161.83V38.628L159.61 33.432H161.554ZM169.328 38.772L168.5 34.92H168.476L167.648 38.772H169.328ZM169.556 33.432L171.824 42H170.024L169.628 40.188H167.348L166.952 42H165.152L167.42 33.432H169.556ZM174.412 33.432L176.5 39.3H176.524V33.432H178.108V42H176.14L174.028 36H174.004V42H172.42V33.432H174.412ZM184.327 33.432V34.848H182.455V42H180.727V34.848H178.855V33.432H184.327ZM189.865 33.432V34.848H186.805V36.864H189.685V38.28H186.805V40.584H189.985V42H185.077V33.432H189.865Z" fill="black"/>
<path fill-rule="evenodd" clip-rule="evenodd" d="M221.197 12.9917C220.489 12.7271 219.997 12.6406 219.67 12.6452C219.338 12.6499 219.233 12.7457 219.211 12.7697C219.191 12.7911 219.158 12.8426 219.156 12.9856C219.155 13.0935 219.173 13.2211 219.209 13.3514L223.625 17.6963H226.528C227.034 17.0728 228.172 15.8497 230.078 14.1794C230.602 13.7203 230.792 13.4037 230.848 13.2371C230.879 13.1441 230.868 13.1284 230.843 13.0951L230.839 13.0896C230.774 13.001 230.62 12.8791 230.352 12.7673C230.11 12.6663 229.831 12.5973 229.575 12.5601C229.389 12.5649 229.251 12.6081 229.006 12.6965L228.957 12.7142C228.87 12.7457 228.807 12.7781 228.743 12.811C228.611 12.8791 228.474 12.9492 228.116 13.0172C227.548 13.1251 227.141 13.1334 226.683 13.0237C226.386 12.9524 226.057 12.826 225.66 12.6733L225.66 12.6732L225.66 12.6732C225.522 12.6199 225.375 12.5634 225.218 12.505L225.215 12.5046C225.205 12.5034 225.171 12.4992 225.103 12.5017C225.005 12.5053 224.878 12.5207 224.721 12.5484C224.412 12.603 224.047 12.694 223.66 12.7904L223.637 12.7962C223.255 12.8913 222.848 12.9925 222.508 13.0468C222.338 13.0739 222.162 13.0935 221.999 13.0896C221.986 13.0893 221.969 13.0891 221.947 13.0889H221.947C221.777 13.0872 221.364 13.0832 221.197 12.9917ZM223.237 11.3164C222.706 11.4374 221.732 11.5442 221.732 11.5442C221.164 11.5236 220.749 11.4099 220.402 11.3145C220.125 11.2386 219.891 11.1743 219.654 11.1777C219.117 11.1852 218.651 11.3462 218.316 11.7135C217.98 12.0836 217.873 12.5579 217.868 12.9653C217.863 13.3667 217.954 13.7551 218.067 14.0649L218.126 14.2248L222.043 18.0789C220.564 18.4041 218.986 19.063 217.531 20.2082C214.761 22.3897 212.542 26.2534 212.227 32.6479C212.207 33.0641 212.184 33.4866 212.161 33.912C212.068 35.6616 211.972 37.462 212.008 39.0902C212.052 41.0844 212.292 43.0034 213.107 44.3151C214.572 46.6711 216.968 47.8112 219.268 48.348C221.56 48.883 223.85 48.8422 225.268 48.7579C226.563 48.7331 228.698 48.6558 230.887 48.1961C233.067 47.7382 235.413 46.8786 237.016 45.2058C238.305 43.8598 238.744 41.8774 238.878 39.7527C238.983 38.0805 238.904 36.1896 238.823 34.2644L238.823 34.2638C238.8 33.7301 238.778 33.1937 238.759 32.6587C238.548 26.6489 236.338 22.879 233.569 20.6473C231.772 19.1991 229.772 18.4248 228.001 18.0891C228.574 17.4656 229.506 16.5318 230.863 15.3427C231.456 14.8235 231.868 14.3043 232.051 13.7626C232.256 13.1522 232.144 12.5834 231.83 12.152C231.553 11.7717 231.15 11.5369 230.794 11.3889C230.425 11.2351 230.029 11.1428 229.687 11.097L229.649 11.092H229.611C229.197 11.092 228.898 11.1959 228.617 11.2976L228.57 11.3145C228.314 11.4071 228.037 11.5078 227.597 11.5912C227.212 11.6645 227.189 11.6582 227.042 11.6184L227.042 11.6184C227.013 11.6105 226.98 11.6013 226.937 11.5912C226.72 11.539 226.496 11.4529 226.141 11.3164C226.127 11.311 226.103 11.2985 226.069 11.2814C225.905 11.1967 225.523 11 225.086 11C224.442 11 223.825 11.163 223.453 11.2614L223.453 11.2614L223.453 11.2615L223.453 11.2615C223.367 11.2841 223.295 11.3034 223.237 11.3164ZM218.478 21.4108C216.129 23.2603 214.054 26.6676 213.756 32.7231C213.735 33.1559 213.712 33.5897 213.689 34.0222C213.596 35.7668 213.504 37.492 213.538 39.0565C213.582 41.0386 213.83 42.5793 214.407 43.5068C215.575 45.3858 217.528 46.37 219.616 46.8573C221.702 47.3443 223.827 47.3108 225.192 47.2289L225.207 47.228L225.223 47.2277C226.495 47.2037 228.521 47.1289 230.572 46.6981C232.641 46.2636 234.624 45.489 235.91 44.1468C236.806 43.2119 237.221 41.7042 237.35 39.6564C237.45 38.0726 237.375 36.2919 237.295 34.3813C237.272 33.835 237.249 33.2782 237.229 32.7124C237.032 27.0884 234.989 23.7575 232.609 21.8391C230.802 20.3832 228.757 19.7053 227.07 19.4905C228.467 20.9563 230.051 22.4306 230.916 22.9628L230.114 24.2664C229.751 23.9038 229.206 23.4291 228.577 22.8815L228.577 22.8815C227.672 22.0929 226.593 21.1533 225.636 20.1804C225.589 20.8038 225.548 21.5006 225.531 22.1621C225.516 22.7319 225.52 23.2613 225.55 23.6891C225.565 23.9031 225.586 24.0802 225.611 24.218C225.624 24.2864 225.636 24.3394 225.648 24.3787C225.659 24.4162 225.666 24.4328 225.667 24.4343L225.777 25.0318L224.298 25.119C224.12 24.7626 224.055 24.2519 224.023 23.7962C223.988 23.2997 223.985 22.7161 224.001 22.123C224.013 21.6509 224.036 21.1638 224.066 20.6965C222.822 21.8971 221.513 22.9378 220.548 23.7056L220.547 23.7058L220.547 23.7061C220.412 23.8133 220.284 23.9151 220.164 24.0113L219.362 22.7076C220.212 22.115 221.785 20.8255 223.179 19.4313C221.695 19.6286 220.007 20.2073 218.478 21.4108Z" fill="white"/>
</g>
<defs>
<clipPath id="clip0_79_266">
<rect width="255" height="61" fill="white"/>
</clipPath>
</defs>
</svg>
