<svg width="270" height="61" viewBox="0 0 270 61" fill="none" xmlns="http://www.w3.org/2000/svg">
<path d="M24.6979 60.4688C11.0781 60.4688 0 49.5208 0 36.0625V0H234.948C248.563 0 259.641 10.9479 259.641 24.4062V60.4688" fill="white"/>
<path d="M222.083 52.9114H69.1353C59.6874 52.9114 51.9999 45.3541 51.9999 36.0625V7.55725H204.948C214.396 7.55725 222.083 15.1145 222.083 24.4062V52.9114ZM204.948 5.66663H50.1145V36.0625C50.1145 46.3958 58.6458 54.802 69.1353 54.802H223.969V24.4062C223.969 14.0729 215.437 5.66663 204.948 5.66663Z" fill="#333347"/>
<path d="M196.714 54.802L209.724 28.2239L196.432 5.66663H234.948C245.437 5.66663 253.969 14.0729 253.969 24.4062V54.802" fill="#333347"/>
<path d="M102.901 5.66663H50.1145V36.0625C50.1145 46.3958 58.6458 54.802 69.1353 54.802H121.927V24.4062C121.927 14.0729 113.391 5.66663 102.901 5.66663Z" fill="#333347"/>
<path d="M63.651 29.3594C58.8489 29.3594 54.9583 33.25 54.9583 38.0521C54.9583 42.8542 58.8489 46.7448 63.651 46.7448C68.4583 46.7448 72.3489 42.8542 72.3489 38.0521C72.3489 33.25 68.4583 29.3594 63.651 29.3594Z" fill="white"/>
<path d="M69.3229 39.4688H65.0729V43.7188H62.2344V39.4688H57.9844V36.6355H62.2344V32.3802H65.0729V36.6355H69.3229" fill="#1C1C1B"/>
<path d="M55.7864 26.5937V17.1979H58.2708V24.5156H61.828V26.5937" fill="white"/>
<path d="M62.9426 26.5937V17.1979H69.0155V19.276H65.4322V20.7552H68.4947V22.8385H65.4322V24.5156H69.1614V26.5937" fill="white"/>
<path d="M75.0885 26.5937V19.276H72.6041V17.1979H80.0677V19.276H77.5781V26.5937" fill="white"/>
<path d="M83.5521 21.4739H84.4479C85.4479 21.4739 85.9531 21.0625 85.9531 20.2343C85.9531 19.8281 85.8229 19.5468 85.5677 19.3958C85.3125 19.2395 84.9375 19.1614 84.4479 19.1614H83.5521V21.4739ZM81.0625 26.5989V17.1979H84.6198C85.125 17.1979 85.6042 17.2448 86.0625 17.3385C86.5208 17.4375 86.9167 17.5989 87.2604 17.8333C87.6042 18.0625 87.875 18.375 88.0781 18.7656C88.2813 19.1562 88.3802 19.6458 88.3802 20.2343C88.3802 20.9062 88.2448 21.4687 87.9688 21.9114C87.6979 22.3541 87.3281 22.6979 86.8646 22.9531L88.901 26.5989H86.125L84.5052 23.4427H83.5521V26.5989" fill="white"/>
<path d="M89.8698 26.5989H92.3593V17.1979H89.8698V26.5989Z" fill="white"/>
<path d="M75.3801 43.276V33.8698H81.5103V35.9531H77.8697V37.75H80.9895V39.8333H77.8697V43.276" fill="white"/>
<path d="M84.9218 38.7031L84.7604 39.3541H86.4948L86.3385 38.7031C86.2239 38.25 86.1041 37.7604 85.9895 37.2291C85.875 36.6979 85.7604 36.1979 85.6406 35.7239H85.5833C85.4791 36.2031 85.3698 36.7083 85.2604 37.2343C85.151 37.7604 85.0364 38.25 84.9218 38.7031ZM81.3073 43.276L84.1666 33.8698H87.1718L90.0364 43.276H87.4062L86.9427 41.276H84.3125L83.8489 43.276" fill="white"/>
<path d="M94.5624 43.4479C93.9687 43.4479 93.3958 43.3489 92.8541 43.151C92.3072 42.9531 91.8333 42.651 91.4218 42.2552C91.0103 41.8541 90.6822 41.3541 90.4426 40.75C90.203 40.1458 90.0833 39.4479 90.0833 38.6458C90.0833 37.8541 90.2083 37.151 90.4583 36.5416C90.7083 35.927 91.0416 35.4114 91.4635 34.9948C91.8801 34.5729 92.3645 34.25 92.9114 34.0312C93.4583 33.8073 94.026 33.6979 94.6249 33.6979C95.2499 33.6979 95.8124 33.8229 96.302 34.0677C96.7968 34.3125 97.2083 34.6041 97.5468 34.9427L96.2447 36.5312C96.0155 36.3333 95.776 36.1666 95.5312 36.0312C95.2812 35.9062 94.9999 35.8385 94.6822 35.8385C94.401 35.8385 94.1405 35.901 93.8958 36.026C93.651 36.151 93.4322 36.3333 93.2447 36.5625C93.0572 36.7916 92.9062 37.0781 92.7968 37.4166C92.6822 37.75 92.6301 38.1354 92.6301 38.5573C92.6301 39.4479 92.8124 40.125 93.1874 40.5989C93.5572 41.0677 94.0468 41.3073 94.651 41.3073C95.0208 41.3073 95.3437 41.2291 95.6301 41.0677C95.9114 40.9062 96.1562 40.7187 96.3593 40.4948L97.6614 42.0573C97.2551 42.5208 96.7916 42.8698 96.2655 43.0989C95.7395 43.3333 95.1718 43.4479 94.5624 43.4479Z" fill="white"/>
<path d="M98.6198 43.276H101.104V33.8698H98.6198V43.276Z" fill="white"/>
<path d="M102.875 43.276V33.8698H105.365V41.1927H108.922V43.276" fill="white"/>
<path d="M110.031 43.276V33.8698H116.109V35.9531H112.521V37.4323H115.589V39.5156H112.521V41.1927H116.255V43.276" fill="white"/>
<path d="M28.4062 25.7448C26.7135 28.2343 28.151 31.5104 29.8958 33.1718C31.4895 34.6823 32.7655 35.0364 32.9322 35.0781L33.7447 33.5208L36.0885 39.9323L29.4635 41.2812L30.3437 39.6458L29.4478 39.1458C26.6562 37.3281 26.0676 34.8593 25.8749 34.0885C25.5416 32.7604 25.0468 28.7864 28.4062 25.7448Z" fill="#333347"/>
<path d="M28.375 25.8489C29.5781 28.6093 33.1146 29.1406 35.4479 28.552C37.5208 28.026 38.5052 27.1718 38.6719 27.0156L38.6615 27L37.776 25.4635L44.4427 26.9218L42.0313 33.2395L41.1354 31.6458L40.2656 32.1198C37.2396 33.5104 34.8333 32.6927 34.0781 32.4427C32.7813 32.0156 29.1562 30.3125 28.375 25.8489Z" fill="#333347"/>
<path d="M40.1613 19.1927C39.6978 22.4895 37.7134 24.0729 37.0936 24.5729C36.0311 25.4375 32.6457 27.5677 28.4634 25.8177C31.4373 26.2916 33.7967 23.6041 34.5571 21.3177C35.2446 19.2656 35.0415 17.9687 34.9998 17.7708L34.979 17.7656L33.2134 17.6927L38.0259 12.8541L42.0519 18.2864L40.2342 18.1823" fill="#333347"/>
<path fill-rule="evenodd" clip-rule="evenodd" d="M19.9375 16.4115C18.4167 16.4115 17.1875 15.1823 17.1875 13.6563C17.1875 12.1354 18.4167 10.9062 19.9375 10.9062C21.4583 10.9062 22.6927 12.1354 22.6927 13.6563C22.6927 15.1823 21.4583 16.4115 19.9375 16.4115Z" fill="#333347"/>
<path d="M15.6771 29.7968C15.9115 29.151 16.2604 29.1927 16.2604 29.1927C16.2604 29.1927 16.5781 29.125 16.7552 29.7708L19.3281 38.8073C17.1823 38.1823 15.224 37.1198 13.5573 35.7083L15.6771 29.7968ZM23.7031 5.66663C13.7604 5.66663 5.67188 13.7552 5.67188 23.6979C5.67188 33.6406 13.7604 41.7291 23.7031 41.7291C24.2344 41.7291 24.7552 41.6979 25.276 41.651L25.3958 43.4635L28.6979 40.2708L25.0052 37.4531L25.1458 39.3541C24.6719 39.401 24.1875 39.4323 23.7031 39.4323C22.9375 39.4323 22.1875 39.375 21.4531 39.2656L21.3802 38.7864L19.6667 24.1875C19.4323 21.4323 21.0052 20.9948 21.9792 21.4062L27.4479 23.6041C28.0729 23.875 28.375 23.3489 28.375 23.3489C28.375 23.3489 28.7292 22.802 28.0938 22.3958C28.0938 22.3958 20.6406 17.4583 19.0521 17.1562C16.8854 16.7552 14.7396 18.5104 14.2656 20.7968L11.6198 33.7604C9.34375 31.0312 7.96875 27.5208 7.96875 23.6979C7.96875 15.0208 15.026 7.9635 23.7031 7.9635C28.3385 7.9635 32.5104 9.97913 35.3906 13.177L37.0052 11.5364C33.7083 7.93225 28.9635 5.66663 23.7031 5.66663Z" fill="#333347"/>
<path d="M129.55 28V20.146H131.134V26.702H133.939V28H129.55ZM134.719 28V20.146H136.303V28H134.719ZM139.304 20.146L141.218 25.525H141.24V20.146H142.692V28H140.888L138.952 22.5H138.93V28H137.478V20.146H139.304ZM147.281 22.478C147.281 22.3313 147.263 22.181 147.226 22.027C147.197 21.873 147.145 21.7337 147.072 21.609C146.999 21.477 146.903 21.3707 146.786 21.29C146.676 21.202 146.54 21.158 146.379 21.158C145.998 21.158 145.723 21.3707 145.554 21.796C145.385 22.2213 145.301 22.9253 145.301 23.908C145.301 24.3773 145.316 24.8027 145.345 25.184C145.374 25.5653 145.426 25.8917 145.499 26.163C145.58 26.427 145.69 26.6323 145.829 26.779C145.976 26.9183 146.163 26.988 146.39 26.988C146.485 26.988 146.588 26.9623 146.698 26.911C146.815 26.8597 146.922 26.7827 147.017 26.68C147.12 26.5773 147.204 26.449 147.27 26.295C147.336 26.1337 147.369 25.9467 147.369 25.734V24.931H146.324V23.765H148.887V28H147.721V27.274H147.699C147.508 27.582 147.277 27.802 147.006 27.934C146.742 28.0587 146.423 28.121 146.049 28.121C145.565 28.121 145.169 28.0367 144.861 27.868C144.56 27.6993 144.322 27.439 144.146 27.087C143.977 26.735 143.864 26.3023 143.805 25.789C143.746 25.2683 143.717 24.667 143.717 23.985C143.717 23.325 143.757 22.7457 143.838 22.247C143.926 21.7483 144.073 21.334 144.278 21.004C144.483 20.6667 144.755 20.4137 145.092 20.245C145.429 20.0763 145.851 19.992 146.357 19.992C147.222 19.992 147.846 20.2083 148.227 20.641C148.608 21.0663 148.799 21.6787 148.799 22.478H147.281ZM154.295 20.146V21.444H151.49V23.292H154.13V24.59H151.49V26.702H154.405V28H149.906V20.146H154.295ZM159.8 20.146V21.444H158.084V28H156.5V21.444H154.784V20.146H159.8ZM165.086 20.146V21.444H163.37V28H161.786V21.444H160.07V20.146H165.086ZM170.162 20.146V21.444H167.357V23.292H169.997V24.59H167.357V26.702H170.272V28H165.773V20.146H170.162ZM131.211 39.834H131.915C132.194 39.834 132.417 39.7863 132.586 39.691C132.755 39.5957 132.887 39.438 132.982 39.218C133.085 38.998 133.151 38.7083 133.18 38.349C133.217 37.9897 133.235 37.5423 133.235 37.007C133.235 36.5597 133.22 36.1673 133.191 35.83C133.162 35.4927 133.099 35.214 133.004 34.994C132.916 34.7667 132.78 34.598 132.597 34.488C132.421 34.3707 132.183 34.312 131.882 34.312H131.211V39.834ZM129.627 33.146H132.223C132.773 33.146 133.217 33.2377 133.554 33.421C133.891 33.597 134.152 33.8537 134.335 34.191C134.526 34.521 134.654 34.9207 134.72 35.39C134.786 35.8593 134.819 36.3837 134.819 36.963C134.819 37.6523 134.775 38.2537 134.687 38.767C134.606 39.273 134.463 39.691 134.258 40.021C134.053 40.351 133.778 40.5967 133.433 40.758C133.088 40.9193 132.652 41 132.124 41H129.627V33.146ZM137.978 31.1H139.496L138.418 32.684H137.384L137.978 31.1ZM140.255 33.146V34.444H137.45V36.292H140.09V37.59H137.45V39.702H140.365V41H135.866V33.146H140.255ZM142.438 38.547V38.778C142.438 38.9613 142.453 39.13 142.482 39.284C142.512 39.4307 142.567 39.5553 142.647 39.658C142.728 39.7607 142.834 39.8413 142.966 39.9C143.106 39.9587 143.278 39.988 143.483 39.988C143.725 39.988 143.942 39.911 144.132 39.757C144.33 39.5957 144.429 39.35 144.429 39.02C144.429 38.844 144.404 38.6937 144.352 38.569C144.308 38.437 144.231 38.3197 144.121 38.217C144.011 38.1143 143.865 38.0227 143.681 37.942C143.505 37.854 143.285 37.766 143.021 37.678C142.669 37.5607 142.365 37.4323 142.108 37.293C141.852 37.1537 141.635 36.9923 141.459 36.809C141.291 36.6183 141.166 36.402 141.085 36.16C141.005 35.9107 140.964 35.6247 140.964 35.302C140.964 34.5247 141.181 33.9453 141.613 33.564C142.046 33.1827 142.64 32.992 143.395 32.992C143.747 32.992 144.07 33.0323 144.363 33.113C144.664 33.1863 144.921 33.311 145.133 33.487C145.353 33.6557 145.522 33.8757 145.639 34.147C145.764 34.411 145.826 34.73 145.826 35.104V35.324H144.308C144.308 34.95 144.242 34.664 144.11 34.466C143.978 34.2607 143.758 34.158 143.45 34.158C143.274 34.158 143.128 34.1837 143.01 34.235C142.893 34.2863 142.798 34.356 142.724 34.444C142.658 34.5247 142.611 34.62 142.581 34.73C142.559 34.84 142.548 34.9537 142.548 35.071C142.548 35.313 142.6 35.5183 142.702 35.687C142.805 35.8483 143.025 35.9987 143.362 36.138L144.583 36.666C144.884 36.798 145.13 36.9373 145.32 37.084C145.511 37.2233 145.661 37.3773 145.771 37.546C145.889 37.7073 145.969 37.887 146.013 38.085C146.057 38.283 146.079 38.503 146.079 38.745C146.079 39.5737 145.837 40.1787 145.353 40.56C144.877 40.934 144.209 41.121 143.351 41.121C142.457 41.121 141.815 40.9267 141.426 40.538C141.045 40.1493 140.854 39.592 140.854 38.866V38.547H142.438ZM146.943 41V33.146H148.527V41H146.943ZM151.528 33.146L153.442 38.525H153.464V33.146H154.916V41H153.112L151.176 35.5H151.154V41H149.702V33.146H151.528ZM156.019 33.146H160.408V34.444H157.603V36.292H160.243V37.59H157.603V41H156.019V33.146ZM165.5 33.146V34.444H162.695V36.292H165.335V37.59H162.695V39.702H165.61V41H161.111V33.146H165.5ZM169.761 35.797C169.761 35.225 169.692 34.8107 169.552 34.554C169.42 34.29 169.175 34.158 168.815 34.158C168.617 34.158 168.452 34.213 168.32 34.323C168.196 34.4257 168.097 34.598 168.023 34.84C167.95 35.0747 167.899 35.3863 167.869 35.775C167.84 36.1563 167.825 36.6257 167.825 37.183C167.825 37.777 167.844 38.2573 167.88 38.624C167.924 38.9907 167.987 39.2767 168.067 39.482C168.155 39.68 168.262 39.8157 168.386 39.889C168.518 39.955 168.669 39.988 168.837 39.988C168.977 39.988 169.105 39.966 169.222 39.922C169.347 39.8707 169.453 39.7753 169.541 39.636C169.629 39.4893 169.699 39.2877 169.75 39.031C169.802 38.767 169.827 38.4223 169.827 37.997H171.411C171.411 38.4223 171.378 38.8257 171.312 39.207C171.246 39.5883 171.122 39.922 170.938 40.208C170.762 40.494 170.509 40.7177 170.179 40.879C169.857 41.0403 169.435 41.121 168.914 41.121C168.32 41.121 167.847 41.0257 167.495 40.835C167.143 40.6443 166.872 40.3693 166.681 40.01C166.498 39.6507 166.377 39.2217 166.318 38.723C166.267 38.2243 166.241 37.6743 166.241 37.073C166.241 36.479 166.267 35.9327 166.318 35.434C166.377 34.928 166.498 34.4953 166.681 34.136C166.872 33.7767 167.143 33.498 167.495 33.3C167.847 33.0947 168.32 32.992 168.914 32.992C169.479 32.992 169.923 33.0837 170.245 33.267C170.575 33.4503 170.821 33.685 170.982 33.971C171.144 34.2497 171.243 34.554 171.279 34.884C171.323 35.2067 171.345 35.511 171.345 35.797H169.761ZM176.913 33.146V34.444H175.197V41H173.613V34.444H171.897V33.146H176.913ZM180.276 38.041L179.517 34.51H179.495L178.736 38.041H180.276ZM180.485 33.146L182.564 41H180.914L180.551 39.339H178.461L178.098 41H176.448L178.527 33.146H180.485ZM184.937 33.146L186.851 38.525H186.873V33.146H188.325V41H186.521L184.585 35.5H184.563V41H183.111V33.146H184.937ZM194.025 33.146V34.444H192.309V41H190.725V34.444H189.009V33.146H194.025ZM199.101 33.146V34.444H196.296V36.292H198.936V37.59H196.296V39.702H199.211V41H194.712V33.146H199.101Z" fill="black"/>
<path fill-rule="evenodd" clip-rule="evenodd" d="M226.197 12.9917C225.489 12.7271 224.997 12.6406 224.67 12.6452C224.338 12.6499 224.233 12.7457 224.211 12.7697C224.191 12.7911 224.158 12.8426 224.156 12.9856C224.155 13.0935 224.173 13.2211 224.209 13.3514L228.625 17.6963H231.528C232.034 17.0728 233.172 15.8497 235.078 14.1794C235.602 13.7203 235.792 13.4037 235.848 13.2371C235.879 13.1441 235.868 13.1284 235.843 13.0951L235.839 13.0896C235.774 13.001 235.62 12.8791 235.352 12.7673C235.11 12.6663 234.831 12.5973 234.575 12.5601C234.389 12.5649 234.251 12.6081 234.006 12.6965L233.957 12.7142C233.87 12.7457 233.807 12.7781 233.743 12.811C233.611 12.8791 233.474 12.9492 233.116 13.0172C232.548 13.1251 232.141 13.1334 231.683 13.0237C231.386 12.9524 231.057 12.826 230.66 12.6733L230.66 12.6732L230.66 12.6732C230.522 12.6199 230.375 12.5634 230.218 12.505L230.215 12.5046C230.205 12.5034 230.171 12.4992 230.103 12.5017C230.005 12.5053 229.878 12.5207 229.721 12.5484C229.412 12.603 229.047 12.694 228.66 12.7904L228.637 12.7962C228.255 12.8913 227.848 12.9925 227.508 13.0468C227.338 13.0739 227.162 13.0935 226.999 13.0896C226.986 13.0893 226.969 13.0891 226.947 13.0889H226.947C226.777 13.0872 226.364 13.0832 226.197 12.9917ZM228.237 11.3164C227.706 11.4374 226.732 11.5442 226.732 11.5442C226.164 11.5236 225.749 11.4099 225.402 11.3145C225.125 11.2386 224.891 11.1743 224.654 11.1777C224.117 11.1852 223.651 11.3462 223.316 11.7135C222.98 12.0836 222.873 12.5579 222.868 12.9653C222.863 13.3667 222.954 13.7551 223.067 14.0649L223.126 14.2248L227.043 18.0789C225.564 18.4041 223.986 19.063 222.531 20.2082C219.761 22.3897 217.542 26.2534 217.227 32.6479C217.207 33.0641 217.184 33.4866 217.161 33.912C217.068 35.6616 216.972 37.462 217.008 39.0902C217.052 41.0844 217.292 43.0034 218.107 44.3151C219.572 46.6711 221.968 47.8112 224.268 48.348C226.56 48.883 228.85 48.8422 230.268 48.7579C231.563 48.7331 233.698 48.6558 235.887 48.1961C238.067 47.7382 240.413 46.8786 242.016 45.2058C243.305 43.8598 243.744 41.8774 243.878 39.7527C243.983 38.0805 243.904 36.1896 243.823 34.2644L243.823 34.2638C243.8 33.7301 243.778 33.1937 243.759 32.6587C243.548 26.6489 241.338 22.879 238.569 20.6473C236.772 19.1991 234.772 18.4248 233.001 18.0891C233.574 17.4656 234.506 16.5318 235.863 15.3427C236.456 14.8235 236.868 14.3043 237.051 13.7626C237.256 13.1522 237.144 12.5834 236.83 12.152C236.553 11.7717 236.15 11.5369 235.794 11.3889C235.425 11.2351 235.029 11.1428 234.687 11.097L234.649 11.092H234.611C234.197 11.092 233.898 11.1959 233.617 11.2976L233.57 11.3145C233.314 11.4071 233.037 11.5078 232.597 11.5912C232.212 11.6645 232.189 11.6582 232.042 11.6184L232.042 11.6184C232.013 11.6105 231.98 11.6013 231.937 11.5912C231.72 11.539 231.496 11.4529 231.141 11.3164C231.127 11.311 231.103 11.2985 231.069 11.2814C230.905 11.1967 230.523 11 230.086 11C229.442 11 228.825 11.163 228.453 11.2614L228.453 11.2614L228.453 11.2615L228.453 11.2615C228.367 11.2841 228.295 11.3034 228.237 11.3164ZM223.478 21.4108C221.129 23.2603 219.054 26.6676 218.756 32.7231C218.735 33.1559 218.712 33.5897 218.689 34.0222C218.596 35.7668 218.504 37.492 218.538 39.0565C218.582 41.0386 218.83 42.5793 219.407 43.5068C220.575 45.3858 222.528 46.37 224.616 46.8573C226.702 47.3443 228.827 47.3108 230.192 47.2289L230.207 47.228L230.223 47.2277C231.495 47.2037 233.521 47.1289 235.572 46.6981C237.641 46.2636 239.624 45.489 240.91 44.1468C241.806 43.2119 242.221 41.7042 242.35 39.6564C242.45 38.0726 242.375 36.2919 242.295 34.3813C242.272 33.835 242.249 33.2782 242.229 32.7124C242.032 27.0884 239.989 23.7575 237.609 21.8391C235.802 20.3832 233.757 19.7053 232.07 19.4905C233.467 20.9563 235.051 22.4306 235.916 22.9628L235.114 24.2664C234.751 23.9038 234.206 23.4291 233.577 22.8815L233.577 22.8815C232.672 22.0929 231.593 21.1533 230.636 20.1804C230.589 20.8038 230.548 21.5006 230.531 22.1621C230.516 22.7319 230.52 23.2613 230.55 23.6891C230.565 23.9031 230.586 24.0802 230.611 24.218C230.624 24.2864 230.636 24.3394 230.648 24.3787C230.659 24.4162 230.666 24.4328 230.667 24.4343L230.777 25.0318L229.298 25.119C229.12 24.7626 229.055 24.2519 229.023 23.7962C228.988 23.2997 228.985 22.7161 229.001 22.123C229.013 21.6509 229.036 21.1638 229.066 20.6965C227.822 21.8971 226.513 22.9378 225.548 23.7056L225.547 23.7058L225.547 23.7061C225.412 23.8133 225.284 23.9151 225.164 24.0113L224.362 22.7076C225.212 22.115 226.785 20.8255 228.179 19.4313C226.695 19.6286 225.007 20.2073 223.478 21.4108Z" fill="white"/>
</svg>
