<svg width="240" height="61" viewBox="0 0 240 61" fill="none" xmlns="http://www.w3.org/2000/svg">
<g clip-path="url(#clip0_79_106)">
<path d="M24.6979 60.4688C11.0781 60.4688 0 49.5208 0 36.0625V0H214.948C228.563 0 239.641 10.9479 239.641 24.4062V60.4688" fill="white"/>
<path d="M222.083 52.9114H69.1353C59.6874 52.9114 51.9999 45.3541 51.9999 36.0625V7.55725H204.948C214.396 7.55725 222.083 15.1145 222.083 24.4062V52.9114ZM204.948 5.66663H50.1145V36.0625C50.1145 46.3958 58.6458 54.802 69.1353 54.802H223.969V24.4062C223.969 14.0729 215.437 5.66663 204.948 5.66663Z" fill="#6B5B4A"/>
<path d="M176.714 54.802L189.724 28.2239L176.432 5.66663H214.948C225.437 5.66663 233.969 14.0729 233.969 24.4062V54.802" fill="#6B5B4A"/>
<path d="M102.901 5.66663H50.1145V36.0625C50.1145 46.3958 58.6458 54.802 69.1353 54.802H121.927V24.4062C121.927 14.0729 113.391 5.66663 102.901 5.66663Z" fill="#6B5B4A"/>
<path d="M63.651 29.3594C58.8489 29.3594 54.9583 33.25 54.9583 38.0521C54.9583 42.8542 58.8489 46.7448 63.651 46.7448C68.4583 46.7448 72.3489 42.8542 72.3489 38.0521C72.3489 33.25 68.4583 29.3594 63.651 29.3594Z" fill="white"/>
<path d="M69.3229 39.4688H65.0729V43.7188H62.2344V39.4688H57.9844V36.6355H62.2344V32.3802H65.0729V36.6355H69.3229" fill="#1C1C1B"/>
<path d="M55.7864 26.5937V17.1979H58.2708V24.5156H61.828V26.5937" fill="white"/>
<path d="M62.9426 26.5937V17.1979H69.0155V19.276H65.4322V20.7552H68.4947V22.8385H65.4322V24.5156H69.1614V26.5937" fill="white"/>
<path d="M75.0885 26.5937V19.276H72.6041V17.1979H80.0677V19.276H77.5781V26.5937" fill="white"/>
<path d="M83.5521 21.4739H84.4479C85.4479 21.4739 85.9531 21.0625 85.9531 20.2343C85.9531 19.8281 85.8229 19.5468 85.5677 19.3958C85.3125 19.2395 84.9375 19.1614 84.4479 19.1614H83.5521V21.4739ZM81.0625 26.5989V17.1979H84.6198C85.125 17.1979 85.6042 17.2448 86.0625 17.3385C86.5208 17.4375 86.9167 17.5989 87.2604 17.8333C87.6042 18.0625 87.875 18.375 88.0781 18.7656C88.2813 19.1562 88.3802 19.6458 88.3802 20.2343C88.3802 20.9062 88.2448 21.4687 87.9688 21.9114C87.6979 22.3541 87.3281 22.6979 86.8646 22.9531L88.901 26.5989H86.125L84.5052 23.4427H83.5521V26.5989" fill="white"/>
<path d="M89.8698 26.5989H92.3593V17.1979H89.8698V26.5989Z" fill="white"/>
<path d="M75.3801 43.276V33.8698H81.5103V35.9531H77.8697V37.75H80.9895V39.8333H77.8697V43.276" fill="white"/>
<path d="M84.9218 38.7031L84.7604 39.3541H86.4948L86.3385 38.7031C86.2239 38.25 86.1041 37.7604 85.9895 37.2291C85.875 36.6979 85.7604 36.1979 85.6406 35.7239H85.5833C85.4791 36.2031 85.3698 36.7083 85.2604 37.2343C85.151 37.7604 85.0364 38.25 84.9218 38.7031ZM81.3073 43.276L84.1666 33.8698H87.1718L90.0364 43.276H87.4062L86.9427 41.276H84.3125L83.8489 43.276" fill="white"/>
<path d="M94.5624 43.4479C93.9687 43.4479 93.3958 43.3489 92.8541 43.151C92.3072 42.9531 91.8333 42.651 91.4218 42.2552C91.0103 41.8541 90.6822 41.3541 90.4426 40.75C90.203 40.1458 90.0833 39.4479 90.0833 38.6458C90.0833 37.8541 90.2083 37.151 90.4583 36.5416C90.7083 35.927 91.0416 35.4114 91.4635 34.9948C91.8801 34.5729 92.3645 34.25 92.9114 34.0312C93.4583 33.8073 94.026 33.6979 94.6249 33.6979C95.2499 33.6979 95.8124 33.8229 96.302 34.0677C96.7968 34.3125 97.2083 34.6041 97.5468 34.9427L96.2447 36.5312C96.0155 36.3333 95.776 36.1666 95.5312 36.0312C95.2812 35.9062 94.9999 35.8385 94.6822 35.8385C94.401 35.8385 94.1405 35.901 93.8958 36.026C93.651 36.151 93.4322 36.3333 93.2447 36.5625C93.0572 36.7916 92.9062 37.0781 92.7968 37.4166C92.6822 37.75 92.6301 38.1354 92.6301 38.5573C92.6301 39.4479 92.8124 40.125 93.1874 40.5989C93.5572 41.0677 94.0468 41.3073 94.651 41.3073C95.0208 41.3073 95.3437 41.2291 95.6301 41.0677C95.9114 40.9062 96.1562 40.7187 96.3593 40.4948L97.6614 42.0573C97.2551 42.5208 96.7916 42.8698 96.2655 43.0989C95.7395 43.3333 95.1718 43.4479 94.5624 43.4479Z" fill="white"/>
<path d="M98.6198 43.276H101.104V33.8698H98.6198V43.276Z" fill="white"/>
<path d="M102.875 43.276V33.8698H105.365V41.1927H108.922V43.276" fill="white"/>
<path d="M110.031 43.276V33.8698H116.109V35.9531H112.521V37.4323H115.589V39.5156H112.521V41.1927H116.255V43.276" fill="white"/>
<path d="M28.4062 25.7448C26.7135 28.2343 28.151 31.5104 29.8958 33.1718C31.4895 34.6823 32.7655 35.0364 32.9322 35.0781L33.7447 33.5208L36.0885 39.9323L29.4635 41.2812L30.3437 39.6458L29.4478 39.1458C26.6562 37.3281 26.0676 34.8593 25.8749 34.0885C25.5416 32.7604 25.0468 28.7864 28.4062 25.7448Z" fill="#6B5B4A"/>
<path d="M28.375 25.8489C29.5781 28.6093 33.1146 29.1406 35.4479 28.552C37.5208 28.026 38.5052 27.1718 38.6719 27.0156L38.6615 27L37.776 25.4635L44.4427 26.9218L42.0313 33.2395L41.1354 31.6458L40.2656 32.1198C37.2396 33.5104 34.8333 32.6927 34.0781 32.4427C32.7813 32.0156 29.1562 30.3125 28.375 25.8489Z" fill="#6B5B4A"/>
<path d="M40.1613 19.1927C39.6978 22.4895 37.7134 24.0729 37.0936 24.5729C36.0311 25.4375 32.6457 27.5677 28.4634 25.8177C31.4373 26.2916 33.7967 23.6041 34.5571 21.3177C35.2446 19.2656 35.0415 17.9687 34.9998 17.7708L34.979 17.7656L33.2134 17.6927L38.0259 12.8541L42.0519 18.2864L40.2342 18.1823" fill="#6B5B4A"/>
<path fill-rule="evenodd" clip-rule="evenodd" d="M19.9375 16.4115C18.4167 16.4115 17.1875 15.1823 17.1875 13.6563C17.1875 12.1354 18.4167 10.9062 19.9375 10.9062C21.4583 10.9062 22.6927 12.1354 22.6927 13.6563C22.6927 15.1823 21.4583 16.4115 19.9375 16.4115Z" fill="#6B5B4A"/>
<path d="M15.6771 29.7968C15.9115 29.151 16.2604 29.1927 16.2604 29.1927C16.2604 29.1927 16.5781 29.125 16.7552 29.7708L19.3281 38.8073C17.1823 38.1823 15.224 37.1198 13.5573 35.7083L15.6771 29.7968ZM23.7031 5.66663C13.7604 5.66663 5.67188 13.7552 5.67188 23.6979C5.67188 33.6406 13.7604 41.7291 23.7031 41.7291C24.2344 41.7291 24.7552 41.6979 25.276 41.651L25.3958 43.4635L28.6979 40.2708L25.0052 37.4531L25.1458 39.3541C24.6719 39.401 24.1875 39.4323 23.7031 39.4323C22.9375 39.4323 22.1875 39.375 21.4531 39.2656L21.3802 38.7864L19.6667 24.1875C19.4323 21.4323 21.0052 20.9948 21.9792 21.4062L27.4479 23.6041C28.0729 23.875 28.375 23.3489 28.375 23.3489C28.375 23.3489 28.7292 22.802 28.0938 22.3958C28.0938 22.3958 20.6406 17.4583 19.0521 17.1562C16.8854 16.7552 14.7396 18.5104 14.2656 20.7968L11.6198 33.7604C9.34375 31.0312 7.96875 27.5208 7.96875 23.6979C7.96875 15.0208 15.026 7.9635 23.7031 7.9635C28.3385 7.9635 32.5104 9.97913 35.3906 13.177L37.0052 11.5364C33.7083 7.93225 28.9635 5.66663 23.7031 5.66663Z" fill="#6B5B4A"/>
<path fill-rule="evenodd" clip-rule="evenodd" d="M205.184 13.5477C202.848 13.829 200.995 15.7189 200.697 18.1033L200.693 18.1036L200.569 18.8693C200.562 18.8856 200.558 18.9007 200.558 18.914C200.554 18.9403 200.549 18.9665 200.545 18.9927C200.517 19.164 200.489 19.3314 200.515 19.5044L200.513 21.0954C197.452 24.2948 196.633 27.1159 197.139 29.2647C197.309 29.9622 197.62 30.6156 198.051 31.1832C198.482 31.7508 199.024 32.2202 199.642 32.5614C199.922 32.7258 200.213 32.8682 200.513 32.9874L200.511 34.7847L200.513 34.8477C200.49 35.4096 200.562 35.9713 200.728 36.5076C200.955 37.0944 201.311 37.6198 201.769 38.0432C202.048 38.3281 202.352 38.5852 202.679 38.8111C203.03 39.056 203.399 39.2719 203.783 39.4567C205.887 40.4919 208.644 41.0038 211.334 41C214.024 40.9962 216.734 40.4594 218.81 39.4032C219.316 39.1492 219.791 38.8357 220.226 38.4692C220.646 38.115 221.01 37.6961 221.304 37.2276C221.888 36.2837 221.886 35.9049 221.883 35.0104L221.882 35.0005L221.886 20.0602C221.956 19.8477 221.995 19.6255 222 19.4012C222 19.1676 221.963 18.942 221.893 18.7249C221.348 16.0509 219.424 14.0935 216.857 13.6116C215.861 11.4138 213.535 10 211.006 10C208.502 10 206.195 11.3865 205.184 13.5477ZM211.245 22.4255C207.72 22.4255 204.58 21.643 202.551 20.4235C202.188 19.5805 202.237 18.5859 202.269 18.2929C202.501 16.5087 203.988 15.1323 205.789 15.1323C205.966 15.1323 206.14 15.1455 206.309 15.1711C206.711 13.1523 208.661 11.6207 211.006 11.6207C213.336 11.6207 215.276 13.1331 215.695 15.1331C215.723 15.1326 215.75 15.1323 215.778 15.1323C218.041 15.1323 220.03 16.9544 220.478 19.3712C220.47 19.8542 220.363 20.1051 220.276 20.2103C218.268 21.5511 214.971 22.4255 211.245 22.4255ZM198.668 28.8903C198.352 27.5052 198.811 25.6874 200.508 23.5283L200.506 31.2072L200.426 31.1594C199.996 30.9258 199.618 30.6036 199.315 30.2131C199.013 29.8226 198.793 29.3722 198.668 28.8903ZM220.224 21.9951C219.664 22.3566 219.068 22.6569 218.447 22.8909C216.551 23.6243 213.985 24.0942 211.196 24.0961C208.758 24.1265 206.334 23.6966 204.048 22.8278C203.386 22.5663 202.756 22.2272 202.17 21.8174L202.168 31.7898C202.702 31.8871 203.246 31.9179 203.787 31.8814C206.341 31.7229 209.114 30.128 210.476 26.6441C210.556 26.4477 210.709 26.2916 210.901 26.2096C211.093 26.1276 211.309 26.1262 211.502 26.2057C211.694 26.2853 211.849 26.4394 211.932 26.6348C212.015 26.8301 212.019 27.051 211.944 27.2496C210.321 31.3982 206.973 33.3025 203.876 33.505C203.304 33.5419 202.729 33.5188 202.16 33.4362L202.168 34.8458C202.149 35.212 202.187 35.579 202.282 35.9326C202.432 36.2819 202.655 36.5935 202.934 36.8456C203.143 37.0558 203.369 37.2457 203.612 37.4129C203.893 37.6103 204.188 37.7852 204.496 37.9363C206.369 38.8569 208.836 39.3249 211.323 39.3077C213.809 39.2905 216.236 38.834 218.073 37.8885C218.463 37.694 218.83 37.4543 219.167 37.1742C219.454 36.9324 219.703 36.6463 219.905 36.3261C220.166 35.9455 220.281 35.4797 220.228 35.0177C220.227 35.0076 220.227 34.9649 220.227 34.918C220.227 34.8501 220.226 34.7732 220.224 34.7732L220.224 21.9951Z" fill="white"/>
<path d="M199.562 50.9442C199.054 50.9442 198.665 50.7996 198.395 50.5102C198.132 50.2209 198 49.8126 198 49.2853V45.6589C198 45.1317 198.132 44.7234 198.395 44.434C198.665 44.1447 199.054 44 199.562 44C200.07 44 200.456 44.1447 200.72 44.434C200.99 44.7234 201.125 45.1317 201.125 45.6589V46.3726H200.122V45.5914C200.122 45.1734 199.945 44.9645 199.591 44.9645C199.238 44.9645 199.061 45.1734 199.061 45.5914V49.3625C199.061 49.774 199.238 49.9798 199.591 49.9798C199.945 49.9798 200.122 49.774 200.122 49.3625V48.3305H201.125V49.2853C201.125 49.8126 200.99 50.2209 200.72 50.5102C200.456 50.7996 200.07 50.9442 199.562 50.9442Z" fill="white"/>
<path d="M203.312 50.9442C202.791 50.9442 202.393 50.7963 202.116 50.5006C201.84 50.2048 201.701 49.7869 201.701 49.2468V45.6975C201.701 45.1574 201.84 44.7394 202.116 44.4437C202.393 44.1479 202.791 44 203.312 44C203.833 44 204.231 44.1479 204.508 44.4437C204.784 44.7394 204.923 45.1574 204.923 45.6975V49.2468C204.923 49.7869 204.784 50.2048 204.508 50.5006C204.231 50.7963 203.833 50.9442 203.312 50.9442ZM203.312 49.9798C203.679 49.9798 203.862 49.7579 203.862 49.3143V45.63C203.862 45.1863 203.679 44.9645 203.312 44.9645C202.946 44.9645 202.762 45.1863 202.762 45.63V49.3143C202.762 49.7579 202.946 49.9798 203.312 49.9798Z" fill="white"/>
<path d="M205.64 44.0964H207.154L207.83 48.9285H207.849L208.524 44.0964H210.038V50.8478H209.035V45.7361H209.016L208.244 50.8478H207.357L206.585 45.7361H206.566V50.8478H205.64V44.0964Z" fill="white"/>
<path d="M210.83 44.0964H212.392C212.92 44.0964 213.315 44.2379 213.579 44.5208C213.842 44.8037 213.974 45.2185 213.974 45.765V46.4305C213.974 46.977 213.842 47.3917 213.579 47.6747C213.315 47.9576 212.92 48.099 212.392 48.099H211.891V50.8478H210.83V44.0964ZM212.392 47.1345C212.566 47.1345 212.695 47.0863 212.778 46.9899C212.868 46.8934 212.913 46.7295 212.913 46.498V45.6975C212.913 45.466 212.868 45.302 212.778 45.2056C212.695 45.1091 212.566 45.0609 212.392 45.0609H211.891V47.1345H212.392Z" fill="white"/>
<path d="M216.084 50.9442C215.563 50.9442 215.164 50.7963 214.888 50.5006C214.611 50.2048 214.473 49.7869 214.473 49.2468V45.6975C214.473 45.1574 214.611 44.7394 214.888 44.4437C215.164 44.1479 215.563 44 216.084 44C216.605 44 217.003 44.1479 217.28 44.4437C217.556 44.7394 217.694 45.1574 217.694 45.6975V49.2468C217.694 49.7869 217.556 50.2048 217.28 50.5006C217.003 50.7963 216.605 50.9442 216.084 50.9442ZM216.084 49.9798C216.45 49.9798 216.634 49.7579 216.634 49.3143V45.63C216.634 45.1863 216.45 44.9645 216.084 44.9645C215.717 44.9645 215.534 45.1863 215.534 45.63V49.3143C215.534 49.7579 215.717 49.9798 216.084 49.9798Z" fill="white"/>
<path d="M219.791 50.9442C219.277 50.9442 218.888 50.7996 218.624 50.5102C218.361 50.2144 218.229 49.7933 218.229 49.2468V48.861H219.232V49.3239C219.232 49.7611 219.415 49.9798 219.782 49.9798C219.962 49.9798 220.097 49.9283 220.187 49.8254C220.283 49.7161 220.331 49.5425 220.331 49.3046C220.331 49.0217 220.267 48.7742 220.138 48.562C220.01 48.3434 219.772 48.083 219.425 47.7807C218.987 47.395 218.682 47.0477 218.508 46.7391C218.335 46.4241 218.248 46.0704 218.248 45.6782C218.248 45.1445 218.383 44.733 218.653 44.4437C218.923 44.1479 219.315 44 219.83 44C220.338 44 220.72 44.1479 220.977 44.4437C221.241 44.733 221.373 45.1509 221.373 45.6975V45.9772H220.37V45.63C220.37 45.3985 220.325 45.2313 220.235 45.1284C220.145 45.0191 220.013 44.9645 219.839 44.9645C219.486 44.9645 219.309 45.1799 219.309 45.6107C219.309 45.855 219.373 46.0833 219.502 46.2955C219.637 46.5076 219.878 46.7648 220.225 47.067C220.669 47.4528 220.974 47.8033 221.141 48.1183C221.309 48.4334 221.392 48.8031 221.392 49.2275C221.392 49.7804 221.254 50.2048 220.977 50.5006C220.707 50.7963 220.312 50.9442 219.791 50.9442Z" fill="white"/>
<path d="M222.83 45.0609H221.721V44.0964H225V45.0609H223.891V50.8478H222.83V45.0609Z" fill="white"/>
<path d="M129.6 27V18.432H131.328V25.584H134.388V27H129.6ZM137.459 16.2H139.115L137.939 17.928H136.811L137.459 16.2ZM139.943 18.432V19.848H136.883V21.864H139.763V23.28H136.883V25.584H140.063V27H135.155V18.432H139.943ZM144.736 20.976C144.736 20.816 144.716 20.652 144.676 20.484C144.644 20.316 144.588 20.164 144.508 20.028C144.428 19.884 144.324 19.768 144.196 19.68C144.076 19.584 143.928 19.536 143.752 19.536C143.336 19.536 143.036 19.768 142.852 20.232C142.668 20.696 142.576 21.464 142.576 22.536C142.576 23.048 142.592 23.512 142.624 23.928C142.656 24.344 142.712 24.7 142.792 24.996C142.88 25.284 143 25.508 143.152 25.668C143.312 25.82 143.516 25.896 143.764 25.896C143.868 25.896 143.98 25.868 144.1 25.812C144.228 25.756 144.344 25.672 144.448 25.56C144.56 25.448 144.652 25.308 144.724 25.14C144.796 24.964 144.832 24.76 144.832 24.528V23.652H143.692V22.38H146.488V27H145.216V26.208H145.192C144.984 26.544 144.732 26.784 144.436 26.928C144.148 27.064 143.8 27.132 143.392 27.132C142.864 27.132 142.432 27.04 142.096 26.856C141.768 26.672 141.508 26.388 141.316 26.004C141.132 25.62 141.008 25.148 140.944 24.588C140.88 24.02 140.848 23.364 140.848 22.62C140.848 21.9 140.892 21.268 140.98 20.724C141.076 20.18 141.236 19.728 141.46 19.368C141.684 19 141.98 18.724 142.348 18.54C142.716 18.356 143.176 18.264 143.728 18.264C144.672 18.264 145.352 18.5 145.768 18.972C146.184 19.436 146.392 20.104 146.392 20.976H144.736ZM149.22 18.432V24.408C149.22 24.624 149.232 24.824 149.256 25.008C149.288 25.184 149.34 25.34 149.412 25.476C149.492 25.604 149.596 25.708 149.724 25.788C149.86 25.86 150.028 25.896 150.228 25.896C150.436 25.896 150.604 25.86 150.732 25.788C150.86 25.708 150.96 25.604 151.032 25.476C151.112 25.34 151.164 25.184 151.188 25.008C151.22 24.824 151.236 24.624 151.236 24.408V18.432H152.964V24.408C152.964 24.952 152.888 25.404 152.736 25.764C152.584 26.116 152.38 26.396 152.124 26.604C151.868 26.812 151.576 26.952 151.248 27.024C150.92 27.096 150.58 27.132 150.228 27.132C149.876 27.132 149.536 27.1 149.208 27.036C148.88 26.972 148.588 26.844 148.332 26.652C148.076 26.452 147.872 26.172 147.72 25.812C147.568 25.452 147.492 24.984 147.492 24.408V18.432H149.22ZM154.093 18.432H156.661L157.885 24.48H157.909L159.145 18.432H161.701V27H160.117V20.16H160.093L158.569 27H157.225L155.701 20.16H155.677V27H154.093V18.432ZM167.728 18.432V19.848H164.668V21.864H167.548V23.28H164.668V25.584H167.848V27H162.94V18.432H167.728ZM170.109 24.324V24.576C170.109 24.776 170.125 24.96 170.157 25.128C170.189 25.288 170.249 25.424 170.337 25.536C170.425 25.648 170.541 25.736 170.685 25.8C170.837 25.864 171.025 25.896 171.249 25.896C171.513 25.896 171.749 25.812 171.957 25.644C172.173 25.468 172.281 25.2 172.281 24.84C172.281 24.648 172.253 24.484 172.197 24.348C172.149 24.204 172.065 24.076 171.945 23.964C171.825 23.852 171.665 23.752 171.465 23.664C171.273 23.568 171.033 23.472 170.745 23.376C170.361 23.248 170.029 23.108 169.749 22.956C169.469 22.804 169.233 22.628 169.041 22.428C168.857 22.22 168.721 21.984 168.633 21.72C168.545 21.448 168.501 21.136 168.501 20.784C168.501 19.936 168.737 19.304 169.209 18.888C169.681 18.472 170.329 18.264 171.153 18.264C171.537 18.264 171.889 18.308 172.209 18.396C172.537 18.476 172.817 18.612 173.049 18.804C173.289 18.988 173.473 19.228 173.601 19.524C173.737 19.812 173.805 20.16 173.805 20.568V20.808H172.149C172.149 20.4 172.077 20.088 171.933 19.872C171.789 19.648 171.549 19.536 171.213 19.536C171.021 19.536 170.861 19.564 170.733 19.62C170.605 19.676 170.501 19.752 170.421 19.848C170.349 19.936 170.297 20.04 170.265 20.16C170.241 20.28 170.229 20.404 170.229 20.532C170.229 20.796 170.285 21.02 170.397 21.204C170.509 21.38 170.749 21.544 171.117 21.696L172.449 22.272C172.777 22.416 173.045 22.568 173.253 22.728C173.461 22.88 173.625 23.048 173.745 23.232C173.873 23.408 173.961 23.604 174.009 23.82C174.057 24.036 174.081 24.276 174.081 24.54C174.081 25.444 173.817 26.104 173.289 26.52C172.769 26.928 172.041 27.132 171.105 27.132C170.129 27.132 169.429 26.92 169.005 26.496C168.589 26.072 168.381 25.464 168.381 24.672V24.324H170.109ZM133.176 38.772L132.348 34.92H132.324L131.496 38.772H133.176ZM133.404 33.432L135.672 42H133.872L133.476 40.188H131.196L130.8 42H129L131.268 33.432H133.404ZM137.996 40.728H138.668C139.084 40.728 139.42 40.636 139.676 40.452C139.932 40.268 140.06 39.928 140.06 39.432C140.06 39.184 140.024 38.98 139.952 38.82C139.888 38.652 139.796 38.52 139.676 38.424C139.564 38.32 139.428 38.248 139.268 38.208C139.108 38.168 138.932 38.148 138.74 38.148H137.996V40.728ZM137.996 36.948H138.488C138.968 36.948 139.316 36.864 139.532 36.696C139.756 36.52 139.868 36.228 139.868 35.82C139.868 35.412 139.768 35.124 139.568 34.956C139.368 34.788 139.052 34.704 138.62 34.704H137.996V36.948ZM136.268 33.432H139.16C139.512 33.432 139.836 33.468 140.132 33.54C140.436 33.612 140.696 33.732 140.912 33.9C141.128 34.068 141.296 34.292 141.416 34.572C141.536 34.852 141.596 35.196 141.596 35.604C141.596 36.068 141.488 36.468 141.272 36.804C141.056 37.132 140.732 37.356 140.3 37.476V37.5C140.78 37.564 141.16 37.768 141.44 38.112C141.72 38.456 141.86 38.916 141.86 39.492C141.86 39.828 141.816 40.148 141.728 40.452C141.64 40.756 141.488 41.024 141.272 41.256C141.064 41.48 140.788 41.66 140.444 41.796C140.108 41.932 139.688 42 139.184 42H136.268V33.432ZM143.02 31.2H144.748L145.684 32.928H144.412L143.86 31.908L143.284 32.928H142.12L143.02 31.2ZM143.02 42V33.432H144.748V42H143.02ZM146.066 33.432H148.634L149.858 39.48H149.882L151.118 33.432H153.674V42H152.09V35.16H152.066L150.542 42H149.198L147.674 35.16H147.65V42H146.066V33.432ZM157.217 31.2H158.873L157.697 32.928H156.569L157.217 31.2ZM159.701 33.432V34.848H156.641V36.864H159.521V38.28H156.641V40.584H159.821V42H154.913V33.432H159.701ZM162.082 39.324V39.576C162.082 39.776 162.098 39.96 162.13 40.128C162.162 40.288 162.222 40.424 162.31 40.536C162.398 40.648 162.514 40.736 162.658 40.8C162.81 40.864 162.998 40.896 163.222 40.896C163.486 40.896 163.722 40.812 163.93 40.644C164.146 40.468 164.254 40.2 164.254 39.84C164.254 39.648 164.226 39.484 164.17 39.348C164.122 39.204 164.038 39.076 163.918 38.964C163.798 38.852 163.638 38.752 163.438 38.664C163.246 38.568 163.006 38.472 162.718 38.376C162.334 38.248 162.002 38.108 161.722 37.956C161.442 37.804 161.206 37.628 161.014 37.428C160.83 37.22 160.694 36.984 160.606 36.72C160.518 36.448 160.474 36.136 160.474 35.784C160.474 34.936 160.71 34.304 161.182 33.888C161.654 33.472 162.302 33.264 163.126 33.264C163.51 33.264 163.862 33.308 164.182 33.396C164.51 33.476 164.79 33.612 165.022 33.804C165.262 33.988 165.446 34.228 165.574 34.524C165.71 34.812 165.778 35.16 165.778 35.568V35.808H164.122C164.122 35.4 164.05 35.088 163.906 34.872C163.762 34.648 163.522 34.536 163.186 34.536C162.994 34.536 162.834 34.564 162.706 34.62C162.578 34.676 162.474 34.752 162.394 34.848C162.322 34.936 162.27 35.04 162.238 35.16C162.214 35.28 162.202 35.404 162.202 35.532C162.202 35.796 162.258 36.02 162.37 36.204C162.482 36.38 162.722 36.544 163.09 36.696L164.422 37.272C164.75 37.416 165.018 37.568 165.226 37.728C165.434 37.88 165.598 38.048 165.718 38.232C165.846 38.408 165.934 38.604 165.982 38.82C166.03 39.036 166.054 39.276 166.054 39.54C166.054 40.444 165.79 41.104 165.262 41.52C164.742 41.928 164.014 42.132 163.078 42.132C162.102 42.132 161.402 41.92 160.978 41.496C160.562 41.072 160.354 40.464 160.354 39.672V39.324H162.082Z" fill="black"/>
</g>
<defs>
<clipPath id="clip0_79_106">
<rect width="240" height="61" fill="white"/>
</clipPath>
</defs>
</svg>
