<svg width="230" height="61" viewBox="0 0 230 61" fill="none" xmlns="http://www.w3.org/2000/svg">
<g clip-path="url(#clip0_24_3356)">
<path d="M24.6979 60.4688C11.0781 60.4688 0 49.5208 0 36.0625V0H204.948C218.563 0 229.641 10.9479 229.641 24.4063V60.4688" fill="white"/>
<path d="M204.948 5.66663H50.1145V36.0625C50.1145 46.3958 58.6458 54.802 69.1353 54.802H223.974V24.4062C223.974 14.0729 215.437 5.66663 204.948 5.66663Z" fill="white"/>
<path d="M222.083 52.9114H69.1353C59.6874 52.9114 51.9999 45.3541 51.9999 36.0625V7.55725H204.948C214.396 7.55725 222.083 15.1145 222.083 24.4062V52.9114ZM204.948 5.66663H50.1145V36.0625C50.1145 46.3958 58.6458 54.802 69.1353 54.802H223.969V24.4062C223.969 14.0729 215.437 5.66663 204.948 5.66663Z" fill="#FCC42F"/>
<path d="M166.714 54.802L179.724 28.2239L166.432 5.66663H204.948C215.437 5.66663 223.969 14.0729 223.969 24.4062V54.802" fill="#FCC42F"/>
<path d="M204.948 7.55725H169.74L181.87 28.1406L169.74 52.9114H222.083V24.4062C222.083 15.1145 214.396 7.55725 204.948 7.55725Z" fill="#FCC42F"/>
<path d="M209.906 41.3438H208.703C208.604 41.3438 208.51 41.3542 208.417 41.3698C208.979 35.1094 209.849 25.4532 210.266 21.0782C210.312 20.6303 209.984 20.2344 209.536 20.1928C209.083 20.1459 208.698 20.4792 208.656 20.9219C208.005 27.6407 206.302 46.823 206.286 47.0157C206.255 47.3438 205.937 47.6094 205.568 47.6094H192.474C192.104 47.6094 191.792 47.3438 191.76 47.0157C191.74 46.823 190.036 27.6407 189.391 20.9219C189.349 20.4792 188.958 20.1459 188.505 20.1928C188.057 20.2344 187.729 20.6303 187.776 21.0782C188.193 25.4532 189.062 35.1094 189.625 41.3698C189.531 41.349 189.437 41.3386 189.339 41.3386H188.141C187.359 41.3386 186.729 41.9688 186.729 42.7448V47.8178C186.729 48.599 187.359 49.2292 188.141 49.2292H189.339C189.922 49.2292 190.427 48.8698 190.635 48.3646C191.068 48.8959 191.729 49.2292 192.474 49.2292H205.568C206.312 49.2292 206.974 48.8959 207.406 48.3646C207.615 48.875 208.12 49.2344 208.703 49.2344H209.906C210.682 49.2344 211.312 48.599 211.312 47.823V42.75C211.312 41.974 210.682 41.3438 209.906 41.3438Z" fill="#1C1C1B"/>
<path d="M193.969 24.802V27.0937H194.641C195.031 27.0937 195.245 26.9114 195.245 26.3593V25.7083C195.245 25.0156 195.021 24.802 194.49 24.802H193.969ZM193.969 21.7604V23.7343H194.427C194.865 23.7343 195.13 23.5416 195.13 22.9479V22.5312C195.13 21.9948 194.948 21.7604 194.531 21.7604H193.969ZM196.302 22.4114V22.677C196.302 23.4479 196.068 23.927 195.547 24.1718V24.1927C196.172 24.4375 196.417 24.9948 196.417 25.7812V26.3906C196.417 27.5416 195.812 28.1562 194.641 28.1562H192.792V20.6979H194.562C195.776 20.6979 196.302 21.2604 196.302 22.4114Z" fill="#1C1C1B"/>
<path d="M198.458 25.7916H199.589L199.031 22.0156H199.01L198.458 25.7916ZM201.135 28.1562H199.948L199.75 26.802H198.307L198.104 28.1562H197.031L198.224 20.6979H199.938" fill="#1C1C1B"/>
<path d="M205.281 25.375V26.3646C205.281 27.5625 204.687 28.2448 203.536 28.2448C202.38 28.2448 201.786 27.5625 201.786 26.3646V22.4844C201.786 21.2917 202.38 20.6094 203.536 20.6094C204.687 20.6094 205.281 21.2917 205.281 22.4844V23.2083H204.172V22.4115C204.172 21.8802 203.937 21.6771 203.568 21.6771C203.193 21.6771 202.958 21.8802 202.958 22.4115V26.4427C202.958 26.974 203.193 27.1667 203.568 27.1667C203.937 27.1667 204.172 26.974 204.172 26.4427V25.375" fill="#1C1C1B"/>
<path d="M196.323 30.8855V36.2188H196.984C197.359 36.2188 197.583 36.0261 197.583 35.4896V31.6094C197.583 31.0782 197.359 30.8855 196.984 30.8855H196.323ZM195.151 29.8177H197.005C198.182 29.8177 198.755 30.4688 198.755 31.6667V35.4375C198.755 36.6355 198.182 37.2813 197.005 37.2813H195.151" fill="#1C1C1B"/>
<path d="M200.891 32.9635H202.5V34.0312H200.891V36.2187H202.917V37.2812H199.719V29.8229H202.917V30.8854H200.891" fill="#1C1C1B"/>
<path d="M193.786 38.9427H197.411V40.0105H196.187V46.4063H195.01V40.0105H193.786" fill="#1C1C1B"/>
<path d="M199.312 40.0105V42.3021H199.771C200.203 42.3021 200.474 42.1094 200.474 41.5157V40.7813C200.474 40.2448 200.292 40.0105 199.875 40.0105H199.312ZM200.589 46.4063C200.526 46.2136 200.484 46.099 200.484 45.4896V44.3177C200.484 43.625 200.25 43.3698 199.714 43.3698H199.312V46.4063H198.135V38.9427H199.906C201.125 38.9427 201.646 39.5105 201.646 40.6615V41.25C201.646 42.0157 201.396 42.5052 200.88 42.75V42.7709C201.464 43.0157 201.656 43.573 201.656 44.349V45.5C201.656 45.8646 201.667 46.1302 201.781 46.4063" fill="#1C1C1B"/>
<path d="M202.641 46.4063H203.813V38.9427H202.641V46.4063Z" fill="#1C1C1B"/>
<path d="M210.745 17.2969H187.297V15.349C187.297 15.2813 187.328 15.25 187.323 15.25H189.021C189.208 15.25 189.396 15.1771 189.542 15.0521L191.667 13.1927C191.76 13.1094 191.995 13.0208 192.286 13.0208H205.755C206.047 13.0208 206.281 13.1094 206.375 13.1927L208.5 15.0521C208.646 15.1771 208.833 15.25 209.026 15.25H210.719C210.714 15.25 210.745 15.2813 210.745 15.349V17.2969ZM210.719 13.6615H209.323L207.417 12C207.01 11.6406 206.406 11.4375 205.755 11.4375H192.286C191.641 11.4375 191.036 11.6406 190.625 12L188.719 13.6615H187.323C186.432 13.6615 185.714 14.4167 185.714 15.349V17.4896C185.714 17.7917 185.786 18.0833 185.932 18.3438C185.99 18.4531 186.078 18.5469 186.187 18.6198C186.443 18.7917 186.745 18.8802 187.052 18.8802H210.99C211.297 18.8802 211.599 18.7917 211.859 18.6198C211.964 18.5469 212.052 18.4531 212.109 18.3438C212.255 18.0833 212.328 17.7917 212.328 17.4896V15.349C212.328 14.4167 211.609 13.6615 210.719 13.6615Z" fill="#1C1C1B"/>
<path d="M205.75 13.7604H192.292C191.922 13.7604 191.62 14.0625 191.62 14.427C191.62 14.802 191.922 15.0989 192.292 15.0989H205.75C206.12 15.0989 206.422 14.802 206.422 14.427C206.422 14.0625 206.12 13.7604 205.75 13.7604Z" fill="#1C1C1B"/>
<path d="M102.901 5.66663H50.1145V36.0625C50.1145 46.3958 58.6458 54.802 69.1353 54.802H121.927V24.4062C121.927 14.0729 113.391 5.66663 102.901 5.66663Z" fill="#FCC42F"/>
<path d="M63.651 29.3594C58.8489 29.3594 54.9583 33.25 54.9583 38.0521C54.9583 42.8542 58.8489 46.7448 63.651 46.7448C68.4583 46.7448 72.3489 42.8542 72.3489 38.0521C72.3489 33.25 68.4583 29.3594 63.651 29.3594Z" fill="white"/>
<path d="M69.3229 39.4688H65.0729V43.7188H62.2344V39.4688H57.9844V36.6355H62.2344V32.3802H65.0729V36.6355H69.3229" fill="#1C1C1B"/>
<path d="M55.7864 26.5937V17.1979H58.2708V24.5156H61.828V26.5937" fill="#1C1C1B"/>
<path d="M62.9426 26.5937V17.1979H69.0155V19.276H65.4322V20.7552H68.4947V22.8385H65.4322V24.5156H69.1614V26.5937" fill="#1C1C1B"/>
<path d="M75.0885 26.5937V19.276H72.6041V17.1979H80.0677V19.276H77.5781V26.5937" fill="#1C1C1B"/>
<path d="M83.5521 21.4739H84.4479C85.4479 21.4739 85.9531 21.0625 85.9531 20.2343C85.9531 19.8281 85.8229 19.5468 85.5677 19.3958C85.3125 19.2395 84.9375 19.1614 84.4479 19.1614H83.5521V21.4739ZM81.0625 26.5989V17.1979H84.6198C85.125 17.1979 85.6042 17.2448 86.0625 17.3385C86.5208 17.4375 86.9167 17.5989 87.2604 17.8333C87.6042 18.0625 87.875 18.375 88.0781 18.7656C88.2813 19.1562 88.3802 19.6458 88.3802 20.2343C88.3802 20.9062 88.2448 21.4687 87.9688 21.9114C87.6979 22.3541 87.3281 22.6979 86.8646 22.9531L88.901 26.5989H86.125L84.5052 23.4427H83.5521V26.5989" fill="#1C1C1B"/>
<path d="M89.8698 26.5989H92.3593V17.1979H89.8698V26.5989Z" fill="#1C1C1B"/>
<path d="M75.3801 43.276V33.8698H81.5103V35.9531H77.8697V37.75H80.9895V39.8333H77.8697V43.276" fill="#1C1C1B"/>
<path d="M84.9218 38.7031L84.7604 39.3541H86.4948L86.3385 38.7031C86.2239 38.25 86.1041 37.7604 85.9895 37.2291C85.875 36.6979 85.7604 36.1979 85.6406 35.7239H85.5833C85.4791 36.2031 85.3698 36.7083 85.2604 37.2343C85.151 37.7604 85.0364 38.25 84.9218 38.7031ZM81.3073 43.276L84.1666 33.8698H87.1718L90.0364 43.276H87.4062L86.9427 41.276H84.3125L83.8489 43.276" fill="#1C1C1B"/>
<path d="M94.5624 43.4479C93.9687 43.4479 93.3958 43.3489 92.8541 43.151C92.3072 42.9531 91.8333 42.651 91.4218 42.2552C91.0103 41.8541 90.6822 41.3541 90.4426 40.75C90.203 40.1458 90.0833 39.4479 90.0833 38.6458C90.0833 37.8541 90.2083 37.151 90.4583 36.5416C90.7083 35.927 91.0416 35.4114 91.4635 34.9948C91.8801 34.5729 92.3645 34.25 92.9114 34.0312C93.4583 33.8073 94.026 33.6979 94.6249 33.6979C95.2499 33.6979 95.8124 33.8229 96.302 34.0677C96.7968 34.3125 97.2083 34.6041 97.5468 34.9427L96.2447 36.5312C96.0155 36.3333 95.776 36.1666 95.5312 36.0312C95.2812 35.9062 94.9999 35.8385 94.6822 35.8385C94.401 35.8385 94.1405 35.901 93.8958 36.026C93.651 36.151 93.4322 36.3333 93.2447 36.5625C93.0572 36.7916 92.9062 37.0781 92.7968 37.4166C92.6822 37.75 92.6301 38.1354 92.6301 38.5573C92.6301 39.4479 92.8124 40.125 93.1874 40.5989C93.5572 41.0677 94.0468 41.3073 94.651 41.3073C95.0208 41.3073 95.3437 41.2291 95.6301 41.0677C95.9114 40.9062 96.1562 40.7187 96.3593 40.4948L97.6614 42.0573C97.2551 42.5208 96.7916 42.8698 96.2655 43.0989C95.7395 43.3333 95.1718 43.4479 94.5624 43.4479Z" fill="#1C1C1B"/>
<path d="M98.6198 43.276H101.104V33.8698H98.6198V43.276Z" fill="#1C1C1B"/>
<path d="M102.875 43.276V33.8698H105.365V41.1927H108.922V43.276" fill="#1C1C1B"/>
<path d="M110.031 43.276V33.8698H116.109V35.9531H112.521V37.4323H115.589V39.5156H112.521V41.1927H116.255V43.276" fill="#1C1C1B"/>
<path d="M28.4062 25.7448C26.7135 28.2343 28.151 31.5104 29.8958 33.1718C31.4895 34.6823 32.7655 35.0364 32.9322 35.0781L33.7447 33.5208L36.0885 39.9323L29.4635 41.2812L30.3437 39.6458L29.4478 39.1458C26.6562 37.3281 26.0676 34.8593 25.8749 34.0885C25.5416 32.7604 25.0468 28.7864 28.4062 25.7448Z" fill="#1C1C1B"/>
<path d="M28.375 25.8489C29.5781 28.6093 33.1146 29.1406 35.4479 28.552C37.5208 28.026 38.5052 27.1718 38.6719 27.0156L38.6615 27L37.776 25.4635L44.4427 26.9218L42.0313 33.2395L41.1354 31.6458L40.2656 32.1198C37.2396 33.5104 34.8333 32.6927 34.0781 32.4427C32.7813 32.0156 29.1562 30.3125 28.375 25.8489Z" fill="#1C1C1B"/>
<path d="M40.1613 19.1927C39.6978 22.4895 37.7134 24.0729 37.0936 24.5729C36.0311 25.4375 32.6457 27.5677 28.4634 25.8177C31.4373 26.2916 33.7967 23.6041 34.5571 21.3177C35.2446 19.2656 35.0415 17.9687 34.9998 17.7708L34.979 17.7656L33.2134 17.6927L38.0259 12.8541L42.0519 18.2864L40.2342 18.1823" fill="#1C1C1B"/>
<path fill-rule="evenodd" clip-rule="evenodd" d="M19.9375 16.4115C18.4167 16.4115 17.1875 15.1823 17.1875 13.6563C17.1875 12.1354 18.4167 10.9062 19.9375 10.9062C21.4583 10.9062 22.6927 12.1354 22.6927 13.6563C22.6927 15.1823 21.4583 16.4115 19.9375 16.4115Z" fill="#1C1C1B"/>
<path d="M15.6771 29.7968C15.9115 29.151 16.2604 29.1927 16.2604 29.1927C16.2604 29.1927 16.5781 29.125 16.7552 29.7708L19.3281 38.8073C17.1823 38.1823 15.224 37.1198 13.5573 35.7083L15.6771 29.7968ZM23.7031 5.66663C13.7604 5.66663 5.67188 13.7552 5.67188 23.6979C5.67188 33.6406 13.7604 41.7291 23.7031 41.7291C24.2344 41.7291 24.7552 41.6979 25.276 41.651L25.3958 43.4635L28.6979 40.2708L25.0052 37.4531L25.1458 39.3541C24.6719 39.401 24.1875 39.4323 23.7031 39.4323C22.9375 39.4323 22.1875 39.375 21.4531 39.2656L21.3802 38.7864L19.6667 24.1875C19.4323 21.4323 21.0052 20.9948 21.9792 21.4062L27.4479 23.6041C28.0729 23.875 28.375 23.3489 28.375 23.3489C28.375 23.3489 28.7292 22.802 28.0938 22.3958C28.0938 22.3958 20.6406 17.4583 19.0521 17.1562C16.8854 16.7552 14.7396 18.5104 14.2656 20.7968L11.6198 33.7604C9.34375 31.0312 7.96875 27.5208 7.96875 23.6979C7.96875 15.0208 15.026 7.9635 23.7031 7.9635C28.3385 7.9635 32.5104 9.97913 35.3906 13.177L37.0052 11.5364C33.7083 7.93225 28.9635 5.66663 23.7031 5.66663Z" fill="#1C1C1B"/>
<path d="M129.615 41.288H131.327L132.143 45.32H132.159L132.983 41.288H134.687V47H133.631V42.44H133.615L132.599 47H131.703L130.687 42.44H130.671V47H129.615V41.288ZM137.897 44.848L137.345 42.28H137.329L136.777 44.848H137.897ZM138.049 41.288L139.561 47H138.361L138.097 45.792H136.577L136.313 47H135.113L136.625 41.288H138.049ZM142.495 42.984C142.495 42.8773 142.481 42.768 142.455 42.656C142.433 42.544 142.396 42.4427 142.343 42.352C142.289 42.256 142.22 42.1787 142.135 42.12C142.055 42.056 141.956 42.024 141.839 42.024C141.561 42.024 141.361 42.1787 141.239 42.488C141.116 42.7973 141.055 43.3093 141.055 44.024C141.055 44.3653 141.065 44.6747 141.087 44.952C141.108 45.2293 141.145 45.4667 141.199 45.664C141.257 45.856 141.337 46.0053 141.439 46.112C141.545 46.2133 141.681 46.264 141.847 46.264C141.916 46.264 141.991 46.2453 142.071 46.208C142.156 46.1707 142.233 46.1147 142.303 46.04C142.377 45.9653 142.439 45.872 142.487 45.76C142.535 45.6427 142.559 45.5067 142.559 45.352V44.768H141.799V43.92H143.663V47H142.815V46.472H142.799C142.66 46.696 142.492 46.856 142.295 46.952C142.103 47.0427 141.871 47.088 141.599 47.088C141.247 47.088 140.959 47.0267 140.735 46.904C140.516 46.7813 140.343 46.592 140.215 46.336C140.092 46.08 140.009 45.7653 139.967 45.392C139.924 45.0133 139.903 44.576 139.903 44.08C139.903 43.6 139.932 43.1787 139.991 42.816C140.055 42.4533 140.161 42.152 140.311 41.912C140.46 41.6667 140.657 41.4827 140.903 41.36C141.148 41.2373 141.455 41.176 141.823 41.176C142.452 41.176 142.905 41.3333 143.183 41.648C143.46 41.9573 143.599 42.4027 143.599 42.984H142.495ZM146.788 44.848L146.236 42.28H146.22L145.668 44.848H146.788ZM146.94 41.288L148.452 47H147.252L146.988 45.792H145.468L145.204 47H144.004L145.516 41.288H146.94ZM148.641 46.16L150.745 42.232H148.785V41.288H152.073V42.16L149.937 46.056H152.105V47H148.641V46.16ZM152.757 47V41.288H153.909V47H152.757ZM156.091 41.288L157.483 45.2H157.499V41.288H158.555V47H157.243L155.835 43H155.819V47H154.763V41.288H156.091ZM162.549 41.288V42.232H160.509V43.576H162.429V44.52H160.509V46.056H162.629V47H159.357V41.288H162.549Z" fill="#1C1C1B"/>
<path d="M137.617 23.6903C137.48 23.759 137.424 23.9224 137.493 24.06C137.54 24.1588 137.635 24.2147 137.738 24.2147C137.776 24.2147 137.819 24.2061 137.858 24.1889C137.88 24.176 140.145 23.1013 143.49 23.3119C143.649 23.3334 143.774 23.2088 143.782 23.054C143.791 22.9035 143.679 22.7746 143.524 22.766C140.033 22.5381 137.716 23.643 137.617 23.6903Z" fill="#1C1C1B"/>
<path d="M137.867 24.7564C137.729 24.8252 137.673 24.9885 137.742 25.1261C137.789 25.2207 137.888 25.2809 137.987 25.2809C138.03 25.2809 138.073 25.268 138.112 25.2508C138.133 25.2379 140.455 24.1201 143.7 24.2792C143.709 24.2835 143.713 24.2835 143.713 24.2835C143.864 24.2835 143.984 24.1674 143.988 24.0212C143.997 23.8665 143.881 23.7418 143.731 23.7332C140.287 23.5655 137.966 24.7091 137.867 24.7564Z" fill="#1C1C1B"/>
<path d="M141.026 24.8166C140.876 24.8381 140.777 24.9843 140.803 25.1348C140.824 25.268 140.94 25.3626 141.074 25.3626C141.087 25.3626 141.104 25.3626 141.121 25.3583C141.83 25.2337 142.866 25.1821 143.967 25.1993C144.148 25.2079 144.246 25.0832 144.246 24.9284C144.251 24.778 144.13 24.6533 143.98 24.649C142.854 24.6275 141.77 24.6877 141.026 24.8166Z" fill="#1C1C1B"/>
<path d="M141.241 25.8269C141.091 25.8527 140.988 25.9945 141.013 26.145C141.035 26.2783 141.155 26.3728 141.284 26.3728C141.302 26.3728 141.314 26.3728 141.332 26.3685C142.26 26.2095 143.344 26.1665 144.225 26.2568C144.375 26.2654 144.509 26.1579 144.526 26.0074C144.539 25.857 144.427 25.7237 144.276 25.7065C143.348 25.6162 142.213 25.6592 141.241 25.8269Z" fill="#1C1C1B"/>
<path d="M141.452 26.8414C141.302 26.8672 141.203 27.0091 141.228 27.1595C141.25 27.2928 141.366 27.3874 141.499 27.3874C141.512 27.3874 141.529 27.3874 141.542 27.3831C142.265 27.2584 143.494 27.2068 144.444 27.3358C144.607 27.3616 144.732 27.2541 144.754 27.1036C144.775 26.9489 144.668 26.8113 144.517 26.7898C143.468 26.6479 142.191 26.7167 141.452 26.8414Z" fill="#1C1C1B"/>
<path d="M136.04 17.2116C136.074 17.2116 136.113 17.203 136.147 17.1859C136.173 17.1773 138.537 16.1541 141.762 16.7516C141.908 16.7731 142.054 16.6786 142.084 16.5281C142.11 16.3776 142.011 16.2358 141.861 16.2057C138.464 15.5866 136.031 16.6399 135.928 16.6829C135.786 16.7474 135.726 16.9064 135.786 17.0483C135.833 17.1515 135.932 17.2116 136.04 17.2116Z" fill="#1C1C1B"/>
<path d="M136.134 17.7619C136.001 17.8306 135.945 17.994 136.014 18.1316C136.065 18.2262 136.16 18.282 136.259 18.282C136.302 18.282 136.345 18.2734 136.384 18.252C136.405 18.2391 138.705 17.1041 141.998 17.7103C142.149 17.7361 142.29 17.6372 142.32 17.4867C142.346 17.3406 142.247 17.1944 142.097 17.1686C138.615 16.5323 136.233 17.7103 136.134 17.7619Z" fill="#1C1C1B"/>
<path d="M139.285 18.0155C139.131 18.0327 139.023 18.1702 139.04 18.3207C139.062 18.4755 139.191 18.583 139.35 18.5615C140.227 18.454 141.323 18.4798 142.213 18.6216C142.226 18.6216 142.239 18.6216 142.256 18.6216C142.385 18.6216 142.505 18.5271 142.527 18.3938C142.548 18.2433 142.45 18.1015 142.295 18.0757C141.366 17.9295 140.21 17.9037 139.285 18.0155Z" fill="#1C1C1B"/>
<path d="M139.449 18.9871C139.298 19.0086 139.195 19.1462 139.217 19.3009C139.238 19.4471 139.371 19.546 139.526 19.5331C140.339 19.417 141.456 19.4385 142.445 19.589C142.458 19.5933 142.471 19.5933 142.488 19.5933C142.621 19.5933 142.737 19.4944 142.759 19.3611C142.78 19.2106 142.677 19.0688 142.531 19.0473C141.491 18.8882 140.309 18.8667 139.449 18.9871Z" fill="#1C1C1B"/>
<path d="M139.668 19.9372C139.522 19.963 139.414 20.1006 139.436 20.251C139.462 20.4015 139.591 20.4961 139.75 20.4832C140.472 20.38 141.697 20.3585 142.647 20.5176C142.66 20.5176 142.677 20.5176 142.69 20.5176C142.823 20.5176 142.944 20.423 142.965 20.2897C142.991 20.1393 142.888 19.9974 142.738 19.9716C141.689 19.7953 140.412 19.834 139.668 19.9372Z" fill="#1C1C1B"/>
<path d="M134.75 30.6848C134.819 30.6719 136.512 30.3709 137.794 29.8035C140.326 28.6771 142.531 28.2988 144.715 28.6212C144.87 28.6341 145.003 28.5353 145.025 28.3848C145.046 28.2343 144.943 28.0968 144.792 28.0753C142.497 27.7399 140.201 28.1268 137.57 29.3005C136.353 29.8379 134.672 30.1388 134.655 30.1431C134.505 30.1689 134.406 30.3108 134.432 30.4612C134.453 30.5945 134.569 30.6891 134.703 30.6891C134.715 30.6891 134.733 30.6891 134.75 30.6848Z" fill="#1C1C1B"/>
<path d="M134.952 31.6391C135.025 31.6262 136.719 31.321 138 30.7535C140.532 29.6272 142.729 29.2489 144.917 29.5713C145.076 29.5885 145.209 29.4896 145.231 29.3391C145.252 29.1887 145.149 29.0468 144.999 29.0253C142.703 28.6943 140.407 29.0812 137.772 30.2505C136.556 30.7922 134.875 31.0931 134.857 31.0974C134.707 31.1232 134.608 31.2651 134.634 31.4156C134.655 31.5488 134.776 31.6434 134.905 31.6434C134.922 31.6434 134.935 31.6391 134.952 31.6391Z" fill="#1C1C1B"/>
<path d="M135.107 32.5936C135.124 32.5936 135.137 32.5936 135.154 32.5893C135.227 32.5764 136.921 32.2754 138.202 31.708C140.73 30.5816 142.931 30.2033 145.119 30.5257C145.274 30.5386 145.411 30.4398 145.433 30.2893C145.454 30.1388 145.351 30.0013 145.201 29.9798C142.905 29.6444 140.609 30.0357 137.978 31.205C136.758 31.7467 135.077 32.0433 135.059 32.0476C134.909 32.0734 134.81 32.2153 134.836 32.3657C134.862 32.499 134.978 32.5936 135.107 32.5936Z" fill="#1C1C1B"/>
<path d="M138.18 32.155C136.964 32.6967 135.279 32.9976 135.266 32.9976C135.115 33.0277 135.012 33.1696 135.038 33.32C135.064 33.4533 135.18 33.5436 135.313 33.5436C135.326 33.5436 135.343 33.5436 135.36 33.5393C135.429 33.5307 137.123 33.2255 138.404 32.658C140.936 31.5316 143.137 31.1533 145.321 31.4758C145.485 31.493 145.614 31.3941 145.635 31.2436C145.656 31.0931 145.553 30.9556 145.403 30.9298C143.111 30.5945 140.816 30.9857 138.18 32.155Z" fill="#1C1C1B"/>
<path d="M133.744 24.7048C135.008 24.4856 136.126 24.0772 136.65 23.8665L137.596 28.0839C136.422 28.6341 135.236 28.9179 134.728 29.021L133.744 24.7048ZM134.565 29.6143C134.634 29.6014 136.358 29.3134 138.034 28.4837C138.15 28.4278 138.211 28.2988 138.181 28.1784L137.114 23.428C137.097 23.3463 137.041 23.2775 136.968 23.2431C136.895 23.2045 136.809 23.2045 136.732 23.2345C136.719 23.2431 135.12 23.9482 133.374 24.2061C133.297 24.219 133.228 24.262 133.185 24.3222C133.142 24.3867 133.125 24.4641 133.142 24.5415L134.251 29.4037C134.277 29.5326 134.393 29.6186 134.518 29.6186C134.535 29.6186 134.548 29.6186 134.565 29.6143Z" fill="#1C1C1B"/>
<path d="M133.103 21.9621L132.377 18.6862C133.606 18.4541 134.638 17.9683 135.137 17.6975L135.967 21.0249C134.793 21.5709 133.611 21.8546 133.103 21.9621ZM136.551 21.1109L135.584 17.2117C135.562 17.1257 135.502 17.0569 135.421 17.0225C135.339 16.9881 135.244 16.9967 135.171 17.044C135.158 17.0569 133.735 17.9339 132.007 18.1875C131.93 18.2004 131.861 18.2434 131.818 18.3079C131.775 18.3681 131.762 18.4455 131.775 18.5229L132.622 22.3404C132.652 22.4694 132.764 22.5597 132.893 22.5597C132.906 22.5597 132.923 22.5554 132.936 22.5511C133.009 22.5425 134.728 22.2501 136.409 21.4204C136.525 21.3645 136.586 21.2356 136.551 21.1109Z" fill="#1C1C1B"/>
<path d="M146.349 22.5596C149.349 20.9389 152.058 20.754 152.088 20.7497C152.238 20.7454 152.354 20.6122 152.341 20.4617C152.333 20.3112 152.221 20.1952 152.053 20.2038C151.937 20.2081 149.199 20.3929 146.086 22.0738C145.953 22.1469 145.902 22.3146 145.975 22.4478C146.022 22.5381 146.116 22.594 146.215 22.594C146.258 22.594 146.306 22.5811 146.349 22.5596Z" fill="#1C1C1B"/>
<path d="M146.585 23.6172C149.564 21.9879 152.311 21.8374 152.337 21.8331C152.492 21.8288 152.608 21.6956 152.599 21.5451C152.591 21.3946 152.475 21.2657 152.311 21.2829C152.195 21.2915 149.418 21.4419 146.319 23.1314C146.185 23.2045 146.138 23.3722 146.211 23.5055C146.263 23.5957 146.357 23.6473 146.452 23.6473C146.499 23.6473 146.542 23.6387 146.585 23.6172Z" fill="#1C1C1B"/>
<path d="M152.535 22.8734C152.685 22.8734 152.81 22.7531 152.81 22.6026C152.814 22.4521 152.694 22.3275 152.544 22.3232C152.44 22.3189 149.672 22.2845 146.551 24.0815C146.417 24.1588 146.374 24.3265 146.452 24.4598C146.503 24.5458 146.594 24.5973 146.688 24.5973C146.736 24.5973 146.783 24.5844 146.826 24.5587C149.68 22.9121 152.281 22.8734 152.513 22.8734" fill="#1C1C1B"/>
<path d="M152.797 23.2948C152.758 23.2948 151.774 23.2432 150.36 23.5785C150.213 23.6129 150.123 23.7591 150.158 23.9095C150.188 24.0342 150.299 24.1202 150.424 24.1202C150.446 24.1202 150.467 24.1202 150.489 24.1116C151.821 23.7978 152.763 23.8451 152.771 23.8451C152.943 23.8623 153.051 23.7333 153.059 23.5828C153.068 23.4324 152.952 23.2991 152.797 23.2948Z" fill="#1C1C1B"/>
<path d="M150.618 24.5802C150.471 24.6146 150.377 24.765 150.411 24.9112C150.446 25.0402 150.557 25.1262 150.682 25.1262C150.704 25.1262 150.725 25.1219 150.747 25.1176C152.071 24.8037 153.016 24.8467 153.025 24.8467C153.167 24.8725 153.309 24.7349 153.317 24.5845C153.322 24.434 153.206 24.305 153.055 24.2964C153.012 24.2921 152.023 24.2492 150.618 24.5802Z" fill="#1C1C1B"/>
<path d="M144.371 16.3131C144.427 16.3819 144.509 16.4163 144.586 16.4163C144.651 16.4163 144.711 16.3991 144.758 16.3604C147.041 14.5548 150.626 14.241 150.665 14.241C150.815 14.2281 150.927 14.0948 150.914 13.9444C150.901 13.7939 150.772 13.6821 150.618 13.6907C150.467 13.7036 146.834 14.0217 144.418 15.9262C144.298 16.0208 144.277 16.1927 144.371 16.3131Z" fill="#1C1C1B"/>
<path d="M144.732 16.9494C144.608 17.0397 144.582 17.2116 144.672 17.3363C144.728 17.4094 144.81 17.4481 144.896 17.4481C144.951 17.4481 145.012 17.4309 145.059 17.3922C147.759 15.3931 150.888 15.2986 150.918 15.2986C151.073 15.2943 151.189 15.1696 151.189 15.0191C151.185 14.8687 151.047 14.7569 150.906 14.7483C150.772 14.7526 147.574 14.8472 144.732 16.9494Z" fill="#1C1C1B"/>
<path d="M151.155 15.7414C151.112 15.7414 150.059 15.7457 148.73 16.21C148.584 16.2573 148.511 16.4163 148.558 16.5582C148.601 16.6743 148.705 16.7431 148.821 16.7431C148.851 16.7431 148.881 16.7388 148.911 16.7302C150.145 16.3003 151.146 16.2917 151.155 16.2917C151.31 16.2917 151.43 16.167 151.43 16.0165C151.43 15.8661 151.31 15.7414 151.155 15.7414Z" fill="#1C1C1B"/>
<path d="M151.443 16.7387C151.4 16.7387 150.368 16.7215 149.001 17.1643C148.855 17.2116 148.778 17.3663 148.825 17.5125C148.864 17.6286 148.971 17.7017 149.087 17.7017C149.113 17.7017 149.143 17.6974 149.173 17.6888C150.437 17.2761 151.443 17.2975 151.434 17.289C151.572 17.289 151.71 17.1686 151.714 17.0181C151.718 16.8676 151.598 16.7387 151.443 16.7387Z" fill="#1C1C1B"/>
<path d="M149.109 18.4197C149.139 18.5443 149.251 18.626 149.371 18.626C149.397 18.626 149.418 18.6217 149.444 18.6174C150.764 18.2649 151.71 18.2821 151.714 18.2821C151.877 18.2778 151.993 18.166 151.998 18.0155C152.002 17.8608 151.882 17.7361 151.727 17.7318C151.688 17.7318 150.695 17.7146 149.302 18.0843C149.156 18.123 149.066 18.2735 149.109 18.4197Z" fill="#1C1C1B"/>
<path d="M147.552 27.5465C147.423 27.6282 147.385 27.7959 147.462 27.9248C147.514 28.0108 147.604 28.0581 147.699 28.0581C147.746 28.0581 147.798 28.0452 147.841 28.0151C149.723 26.8587 151.886 26.3342 154.667 26.3686C156.047 26.3815 157.905 25.9043 157.978 25.8828C158.128 25.8441 158.218 25.6936 158.175 25.5475C158.137 25.4013 157.995 25.311 157.84 25.354C157.823 25.3583 155.983 25.857 154.672 25.8183C151.796 25.7667 149.53 26.3342 147.552 27.5465Z" fill="#1C1C1B"/>
<path d="M154.852 26.8758C151.976 26.85 149.706 27.3917 147.733 28.6083C147.6 28.6857 147.561 28.8576 147.643 28.9866C147.694 29.0683 147.785 29.1156 147.875 29.1156C147.926 29.1156 147.974 29.1027 148.021 29.0769C149.848 27.9505 151.946 27.4261 154.599 27.4261C154.702 27.4261 154.805 27.4261 154.917 27.4261C156.31 27.4261 158.081 26.9661 158.158 26.9446C158.309 26.9059 158.395 26.7554 158.356 26.6093C158.317 26.4631 158.175 26.3728 158.021 26.4115C157.999 26.4158 156.202 26.8672 154.852 26.8758Z" fill="#1C1C1B"/>
<path d="M155.153 27.9334C152.26 27.9033 150.011 28.4493 148.034 29.6659C147.905 29.7476 147.866 29.9152 147.944 30.0442C147.995 30.1302 148.086 30.1775 148.18 30.1775C148.227 30.1775 148.279 30.1603 148.322 30.1345C150.209 28.9781 152.363 28.4622 155.149 28.4837C156.542 28.488 158.386 28.0237 158.463 28.0022C158.61 27.9635 158.7 27.813 158.661 27.6669C158.618 27.5207 158.476 27.4304 158.321 27.4734C158.304 27.4777 156.473 27.942 155.153 27.9334Z" fill="#1C1C1B"/>
<path d="M155.523 28.9953C155.501 28.9953 155.48 28.9953 155.458 28.9953C152.574 28.9437 150.317 29.5111 148.339 30.7278C148.21 30.8051 148.172 30.9728 148.249 31.1061C148.301 31.1878 148.391 31.235 148.485 31.235C148.533 31.235 148.584 31.2222 148.627 31.1964C150.51 30.0356 152.69 29.5025 155.45 29.5455C156.851 29.5584 158.691 29.0812 158.764 29.064C158.915 29.0253 159.001 28.8749 158.962 28.7244C158.923 28.5825 158.777 28.488 158.627 28.531C158.61 28.5353 156.847 28.9953 155.523 28.9953Z" fill="#1C1C1B"/>
<path d="M156.228 20.122L157.169 24.4512C156.666 24.5672 155.471 24.8166 154.173 24.8166L153.24 20.5949C153.803 20.5648 154.99 20.4574 156.228 20.122ZM152.685 20.165C152.634 20.2295 152.617 20.3155 152.634 20.3929L153.683 25.1476C153.709 25.2723 153.816 25.3626 153.945 25.3669C154.018 25.3669 154.091 25.3669 154.164 25.3669C155.944 25.3669 157.5 24.9327 157.569 24.9155C157.711 24.8768 157.793 24.7349 157.763 24.593L156.701 19.7179C156.684 19.6448 156.636 19.5804 156.572 19.5417C156.507 19.503 156.426 19.4901 156.353 19.5116C154.659 20.0232 152.913 20.0619 152.896 20.0619C152.814 20.0619 152.737 20.1005 152.685 20.165Z" fill="#1C1C1B"/>
<path d="M154.702 13.9229L155.488 17.1858C154.99 17.3148 153.799 17.5813 152.505 17.6071L151.783 14.2539C152.354 14.2711 153.489 14.2625 154.702 13.9229ZM152.316 18.1574C154.173 18.1574 155.828 17.663 155.901 17.6415C156.039 17.6028 156.12 17.4567 156.086 17.3148L155.166 13.5145C155.149 13.4414 155.102 13.3769 155.033 13.3382C154.968 13.2995 154.891 13.2952 154.813 13.3167C153.154 13.8498 151.482 13.6821 151.465 13.6821C151.391 13.6735 151.293 13.7079 151.232 13.7724C151.177 13.8369 151.151 13.9272 151.172 14.0131L152.015 17.9382C152.045 18.0757 152.191 18.1574 152.316 18.1574Z" fill="#1C1C1B"/>
<path d="M158.988 31.7337C158.235 31.8799 157.019 31.8713 155.721 31.8541C154.28 31.8412 152.784 31.8283 151.813 32.0432C150.875 32.2539 150.037 32.5204 149.345 32.7741C150.648 32.1206 152.655 31.3812 155.162 31.3382C158.21 31.2823 159.689 30.8825 160.411 30.53L160.608 31.2135C160.342 31.3425 159.792 31.5703 158.988 31.7337ZM139.427 35.0138C138.881 35.2718 138.37 35.5168 137.854 35.7017C136.757 36.1015 135.635 36.3208 135.137 36.411L135.059 35.8092C135.777 35.6802 137.144 35.3879 138.619 34.8032C140.652 33.9993 142.067 33.6468 143.49 33.5909C143.636 33.5866 143.795 33.5909 143.954 33.5909C143.941 33.5952 143.928 33.5952 143.915 33.5952C142.067 33.7671 140.661 34.4292 139.427 35.0138ZM131.216 17.5813C131.912 17.4738 133.099 17.2159 134.419 16.5796C136.53 15.5607 137.652 15.4533 139.251 15.3888C140.45 15.3458 142.209 15.5822 142.798 15.6639L146.77 32.7182C145.953 32.6107 144.539 32.4473 143.447 32.4946C141.891 32.5548 140.373 32.9245 138.215 33.78C136.861 34.3131 135.571 34.5968 134.887 34.7215L131.216 17.5813ZM150.927 13.1318C153.352 13.0802 155.084 12.603 155.953 12.2935L159.968 29.524C159.538 29.7432 158.291 30.1817 155.144 30.2376C151.383 30.3021 148.692 31.7767 147.57 32.5204L143.602 15.4705C144.246 15.0019 146.972 13.2135 150.927 13.1318ZM160.892 30.2204C160.965 30.1559 161.013 30.1001 161.038 30.0614C161.124 29.9367 161.154 29.7776 161.12 29.6272L156.881 11.4251C156.847 11.2617 156.735 11.1241 156.585 11.0554C156.434 10.9823 156.258 10.9823 156.112 11.0511C156.09 11.0597 154.151 11.9625 150.901 12.0312C146.624 12.1215 143.726 14.0131 142.957 14.5763C142.316 14.4817 140.519 14.2366 139.208 14.2882C137.518 14.3527 136.237 14.4817 133.937 15.5908C132.119 16.4678 130.541 16.5495 130.528 16.5495C130.365 16.5538 130.214 16.6312 130.115 16.7602C130.017 16.8891 129.978 17.0568 130.012 17.2159L133.924 35.4652C133.98 35.7232 134.204 35.8994 134.462 35.8994C134.479 35.8994 134.496 35.8994 134.513 35.8952L134.625 36.7593C134.638 36.8323 134.672 36.8968 134.733 36.9441C134.78 36.9785 134.84 37 134.9 37C134.913 37 134.926 36.9957 134.935 36.9957C134.999 36.9871 136.512 36.7765 138.043 36.2219C138.58 36.0241 139.105 35.7748 139.659 35.5125C140.915 34.9193 142.213 34.3045 143.967 34.1411C146.628 33.9047 147.415 34.1197 147.419 34.1197C147.492 34.1454 147.565 34.1368 147.634 34.1025C147.651 34.0939 149.491 33.1309 151.933 32.5806C152.844 32.3785 154.306 32.3914 155.716 32.4043C157.036 32.4215 158.283 32.4301 159.095 32.2711C160.368 32.0174 161.047 31.6047 161.077 31.5875C161.18 31.523 161.232 31.3941 161.197 31.278" fill="#1C1C1B"/>
</g>
<defs>
<clipPath id="clip0_24_3356">
<rect width="230" height="61" fill="white"/>
</clipPath>
</defs>
</svg>
