<svg width="227" height="61" viewBox="0 0 227 61" fill="none" xmlns="http://www.w3.org/2000/svg">
<g clip-path="url(#clip0_21_1594)">
<path d="M24.8542 60.7916C11.2344 60.7916 0.15625 49.8385 0.15625 36.3801V0.317627H201.323C214.938 0.317627 226.016 11.2655 226.016 24.7239L226.021 60.7916" fill="white"/>
<path d="M201.323 5.98438H50.2708V36.3802C50.2708 46.7135 58.802 55.1198 69.2916 55.1198H220.349V24.724C220.349 14.3958 211.812 5.98438 201.323 5.98438Z" fill="white"/>
<path d="M218.458 53.2292H69.2916C59.8437 53.2292 52.1562 45.6719 52.1562 36.3802V7.875H201.323C210.771 7.875 218.458 15.4323 218.458 24.724V53.2292ZM201.323 5.98438H50.2708V36.3802C50.2708 46.7135 58.802 55.1198 69.2916 55.1198H220.349V24.724C220.349 14.3958 211.812 5.98438 201.323 5.98438Z" fill="#FCC42F"/>
<path d="M162.281 55.1198L175.292 28.5417L162 5.98438H200.516C211.005 5.98438 219.542 14.3906 219.542 24.724V55.1198" fill="#FCC42F"/>
<path d="M203.208 7.875H168L180.13 28.4583L168.005 53.2292H220.344V24.724C220.344 15.4323 212.656 7.875 203.208 7.875Z" fill="#FCC42F"/>
<path d="M206.281 41.6615H205.078C204.979 41.6615 204.885 41.6719 204.792 41.6875C205.354 35.4323 206.224 25.7708 206.646 21.3958C206.687 20.9531 206.359 20.5573 205.917 20.5156C205.463 20.4635 205.073 20.7969 205.031 21.2448C204.385 27.9635 202.677 47.1458 202.661 47.3385C202.63 47.6615 202.312 47.9271 201.943 47.9271H188.854C188.479 47.9271 188.167 47.6615 188.135 47.3385C188.12 47.1458 186.411 27.9635 185.765 21.2448C185.724 20.7969 185.333 20.4635 184.88 20.5156C184.437 20.5573 184.109 20.9531 184.151 21.3958C184.573 25.7708 185.443 35.4271 186.005 41.6875C185.911 41.6667 185.812 41.6562 185.719 41.6562H184.515C183.739 41.6562 183.104 42.2917 183.104 43.0677V48.1406C183.104 48.9167 183.739 49.5469 184.515 49.5469H185.719C186.297 49.5469 186.802 49.1927 187.015 48.6823C187.443 49.2135 188.104 49.5469 188.854 49.5469H201.943C202.687 49.5469 203.349 49.2135 203.781 48.6875C203.995 49.1927 204.495 49.5521 205.078 49.5521H206.281C207.057 49.5521 207.687 48.9219 207.687 48.1406V43.0677C207.687 42.2917 207.057 41.6615 206.281 41.6615Z" fill="#1C1C1B"/>
<path d="M190.344 25.1198V27.4115H191.016C191.411 27.4115 191.625 27.2292 191.625 26.6771V26.026C191.625 25.3333 191.401 25.1198 190.865 25.1198H190.344ZM190.344 22.0833V24.0521H190.802C191.24 24.0521 191.505 23.8646 191.505 23.2656V22.849C191.505 22.3125 191.323 22.0833 190.906 22.0833H190.344ZM192.677 22.7344V23C192.677 23.7656 192.443 24.2448 191.922 24.4896V24.5104C192.547 24.7604 192.797 25.3125 192.797 26.099V26.7083C192.797 27.8594 192.187 28.4792 191.016 28.4792H189.172V21.0156H190.938C192.156 21.0156 192.677 21.5833 192.677 22.7344Z" fill="#1C1C1B"/>
<path d="M194.833 26.1146H195.964L195.411 22.3385H195.385L194.833 26.1146ZM197.51 28.4792H196.328L196.125 27.125H194.688L194.479 28.4792H193.406L194.599 21.0156H196.313" fill="#1C1C1B"/>
<path d="M201.661 25.6926V26.6874C201.661 27.8801 201.062 28.5624 199.911 28.5624C198.76 28.5624 198.161 27.8801 198.161 26.6874V22.8072C198.161 21.6093 198.76 20.927 199.911 20.927C201.062 20.927 201.661 21.6093 201.661 22.8072V23.5312H200.552V22.7291C200.552 22.1978 200.318 21.9947 199.943 21.9947C199.573 21.9947 199.338 22.1978 199.338 22.7291V26.7603C199.338 27.2916 199.573 27.4843 199.943 27.4843C200.318 27.4843 200.552 27.2916 200.552 26.7603V25.6926" fill="#1C1C1B"/>
<path d="M192.703 31.2083V36.5365H193.365C193.734 36.5365 193.958 36.3438 193.958 35.8125V31.9323C193.958 31.401 193.734 31.2083 193.365 31.2083H192.703ZM191.531 30.1406H193.385C194.557 30.1406 195.13 30.7917 195.13 31.9844V35.7604C195.13 36.9531 194.557 37.6042 193.385 37.6042H191.531" fill="#1C1C1B"/>
<path d="M197.266 33.2865H198.875V34.349H197.266V36.5365H199.292V37.6042H196.094V30.1406H199.292V31.2031H197.266" fill="#1C1C1B"/>
<path d="M190.161 39.2656H193.786V40.3281H192.562V46.7292H191.385V40.3281H190.161" fill="#1C1C1B"/>
<path d="M195.688 40.3281V42.625H196.146C196.583 42.625 196.849 42.4323 196.849 41.8333V41.099C196.849 40.5677 196.667 40.3281 196.25 40.3281H195.688ZM196.969 46.7292C196.901 46.5365 196.859 46.4167 196.859 45.8125V44.6354C196.859 43.9479 196.625 43.6875 196.094 43.6875H195.688V46.7292H194.516V39.2656H196.286C197.5 39.2656 198.021 39.8281 198.021 40.9792V41.5677C198.021 42.3333 197.776 42.8229 197.255 43.0729V43.0938C197.839 43.3385 198.031 43.8906 198.031 44.6719V45.8229C198.031 46.1823 198.042 46.4531 198.161 46.7292" fill="#1C1C1B"/>
<path d="M199.016 46.7292H200.188V39.2656H199.016V46.7292Z" fill="#1C1C1B"/>
<path d="M207.125 17.6197H183.672V15.6666C183.672 15.5989 183.703 15.5676 183.698 15.5676H185.396C185.588 15.5676 185.771 15.4999 185.917 15.3697L188.047 13.5103C188.14 13.427 188.37 13.3437 188.661 13.3437H202.13C202.422 13.3437 202.656 13.427 202.75 13.5103L204.88 15.3697C205.026 15.4999 205.208 15.5676 205.401 15.5676H207.099C207.088 15.5676 207.125 15.5989 207.125 15.6666V17.6197ZM207.099 13.9791H205.698L203.792 12.3176C203.385 11.9583 202.781 11.7551 202.13 11.7551H188.661C188.015 11.7551 187.411 11.9583 187 12.3176L185.094 13.9791H183.698C182.807 13.9791 182.088 14.7395 182.088 15.6666V17.8124C182.088 18.1093 182.161 18.401 182.307 18.6614C182.37 18.7708 182.458 18.8697 182.562 18.9374C182.823 19.1093 183.12 19.1978 183.427 19.1978H207.37C207.677 19.1978 207.974 19.1093 208.234 18.9374C208.338 18.8697 208.427 18.7708 208.489 18.6614C208.63 18.401 208.708 18.1093 208.708 17.8124V15.6666C208.708 14.7395 207.984 13.9791 207.099 13.9791Z" fill="#1C1C1B"/>
<path d="M202.125 14.0781H188.667C188.297 14.0781 187.995 14.3802 187.995 14.75C187.995 15.1198 188.297 15.4219 188.667 15.4219H202.125C202.495 15.4219 202.797 15.1198 202.797 14.75C202.797 14.3802 202.495 14.0781 202.125 14.0781Z" fill="#1C1C1B"/>
<path d="M103.057 5.98438H50.2708V36.3802C50.2708 46.7135 58.802 55.1198 69.2916 55.1198H122.083V24.724C122.083 14.3958 113.547 5.98438 103.057 5.98438Z" fill="#FCC42F"/>
<path d="M63.8072 29.677C59.0051 29.677 55.1145 33.5676 55.1145 38.3697C55.1145 43.1718 59.0051 47.0624 63.8072 47.0624C68.6145 47.0624 72.5051 43.1718 72.5051 38.3697C72.5051 33.5676 68.6145 29.677 63.8072 29.677Z" fill="white"/>
<path d="M69.4792 39.7865H65.2292V44.0417H62.3906V39.7865H58.1406V36.9531H62.3906V32.7031H65.2292V36.9531H69.4792" fill="#1C1C1B"/>
<path d="M55.9426 26.9167V17.5156H58.427V24.8333H61.9843V26.9167" fill="#1C1C1B"/>
<path d="M63.0989 26.9167V17.5156H69.1718V19.599H65.5885V21.0729H68.651V23.1563H65.5885V24.8333H69.3176V26.9167" fill="#1C1C1B"/>
<path d="M75.2448 26.9167V19.599H72.7604V17.5156H80.2239V19.599H77.7343V26.9167" fill="#1C1C1B"/>
<path d="M83.7083 21.7969H84.6042C85.6042 21.7969 86.1094 21.3802 86.1094 20.5521C86.1094 20.1458 85.9792 19.8698 85.724 19.7135C85.4688 19.5573 85.0938 19.4792 84.6042 19.4792H83.7083V21.7969ZM81.2188 26.9167V17.5156H84.776C85.2813 17.5156 85.7604 17.5625 86.2188 17.6563C86.6771 17.7552 87.0729 17.9219 87.4167 18.151C87.7604 18.3802 88.0313 18.6927 88.2344 19.0833C88.4375 19.474 88.5365 19.9635 88.5365 20.5521C88.5365 21.2292 88.401 21.7865 88.125 22.2292C87.8542 22.6719 87.4844 23.0208 87.0208 23.2708L89.0573 26.9167H86.2813L84.6615 23.7604H83.7083V26.9167" fill="#1C1C1B"/>
<path d="M90.026 26.9167H92.5156V17.5156H90.026V26.9167Z" fill="#1C1C1B"/>
<path d="M75.5364 43.5937V34.1926H81.6666V36.276H78.026V38.0676H81.1458V40.151H78.026V43.5937" fill="#1C1C1B"/>
<path d="M85.0781 39.0208L84.9166 39.6718H86.651L86.4948 39.0208C86.3802 38.5676 86.2604 38.078 86.1458 37.5468C86.0312 37.0155 85.9166 36.5155 85.7968 36.0416H85.7395C85.6354 36.526 85.526 37.0312 85.4166 37.552C85.3073 38.078 85.1927 38.5676 85.0781 39.0208ZM81.4635 43.5937L84.3229 34.1926H87.3281L90.1927 43.5937H87.5625L87.0989 41.5989H84.4687L84.0052 43.5937" fill="#1C1C1B"/>
<path d="M94.7187 43.7656C94.1249 43.7656 93.552 43.6667 93.0103 43.4688C92.4635 43.2708 91.9895 42.974 91.578 42.5729C91.1666 42.1719 90.8385 41.6719 90.5989 41.0677C90.3593 40.4688 90.2395 39.7656 90.2395 38.9635C90.2395 38.1771 90.3645 37.474 90.6145 36.8594C90.8645 36.25 91.1978 35.7344 91.6197 35.3125C92.0364 34.8958 92.5208 34.5729 93.0676 34.349C93.6145 34.1302 94.1822 34.0156 94.7812 34.0156C95.4062 34.0156 95.9687 34.1406 96.4583 34.3854C96.953 34.6354 97.3645 34.9271 97.703 35.2604L96.401 36.8542C96.1718 36.651 95.9322 36.4844 95.6874 36.3542C95.4374 36.224 95.1562 36.1563 94.8385 36.1563C94.5572 36.1563 94.2968 36.2188 94.052 36.349C93.8072 36.474 93.5885 36.651 93.401 36.8802C93.2135 37.1146 93.0624 37.401 92.953 37.7344C92.8385 38.0729 92.7864 38.4531 92.7864 38.875C92.7864 39.7656 92.9687 40.4479 93.3437 40.9167C93.7135 41.3906 94.203 41.625 94.8072 41.625C95.177 41.625 95.4999 41.5469 95.7864 41.3854C96.0676 41.2292 96.3124 41.0365 96.5155 40.8177L97.8176 42.375C97.4114 42.8438 96.9478 43.1875 96.4218 43.4167C95.8958 43.651 95.328 43.7656 94.7187 43.7656Z" fill="#1C1C1B"/>
<path d="M98.776 43.5937H101.26V34.1926H98.776V43.5937Z" fill="#1C1C1B"/>
<path d="M103.031 43.5937V34.1926H105.521V41.5103H109.078V43.5937" fill="#1C1C1B"/>
<path d="M110.188 43.5937V34.1926H116.266V36.276H112.677V37.7499H115.745V39.8333H112.677V41.5103H116.411V43.5937" fill="#1C1C1B"/>
<path d="M28.5624 26.0625C26.8697 28.5521 28.3072 31.8281 30.052 33.4896C31.6458 35 32.9218 35.3594 33.0885 35.401L33.901 33.8438L36.2447 40.2552L29.6197 41.599L30.4999 39.9688L29.6041 39.4635C26.8124 37.6458 26.2239 35.1771 26.0312 34.4063C25.6978 33.0781 25.203 29.1094 28.5624 26.0625Z" fill="#1C1C1B"/>
<path d="M28.5312 26.1718C29.7344 28.927 33.2708 29.4635 35.6042 28.8697C37.6771 28.3437 38.6615 27.4895 38.8281 27.3333L38.8177 27.3176L37.9323 25.7864L44.599 27.2395L42.1875 33.5572L41.2917 31.9687L40.4219 32.4374C37.3958 33.828 34.9896 33.0103 34.2344 32.7603C32.9375 32.3333 29.3125 30.6353 28.5312 26.1718Z" fill="#1C1C1B"/>
<path d="M40.3177 19.5156C39.8541 22.8125 37.8698 24.3958 37.25 24.8958C36.1875 25.7552 32.802 27.8854 28.6198 26.1354C31.5937 26.6094 33.9531 23.9271 34.7135 21.6406C35.401 19.5885 35.1979 18.2917 35.1562 18.0885H35.1354L33.3698 18.0104L38.1823 13.1719L42.2083 18.6094L40.3906 18.5052" fill="#1C1C1B"/>
<path fill-rule="evenodd" clip-rule="evenodd" d="M20.0938 16.7291C18.5729 16.7291 17.3438 15.4999 17.3438 13.9791C17.3438 12.4583 18.5729 11.2239 20.0938 11.2239C21.6146 11.2239 22.849 12.4583 22.849 13.9791C22.849 15.4999 21.6146 16.7291 20.0938 16.7291Z" fill="#1C1C1B"/>
<path d="M15.8333 30.1146C16.0677 29.4688 16.4167 29.5104 16.4167 29.5104C16.4167 29.5104 16.7344 29.4427 16.9115 30.0938L19.4844 39.125C17.3385 38.5052 15.3802 37.4375 13.7135 36.0313L15.8333 30.1146ZM23.8594 5.98438C13.9167 5.98438 5.82812 14.0729 5.82812 24.0208C5.82812 33.9583 13.9167 42.0521 23.8594 42.0521C24.3906 42.0521 24.9115 42.0156 25.4323 41.9688L25.5521 43.7813L28.8542 40.5885L25.1615 37.776L25.3021 39.6771C24.8281 39.7188 24.3438 39.75 23.8594 39.75C23.0938 39.75 22.3438 39.6927 21.6094 39.5885L21.5365 39.1094L19.8229 24.5104C19.5885 21.7552 21.1615 21.3125 22.1354 21.7292L27.6042 23.9219C28.2292 24.1927 28.5313 23.6719 28.5313 23.6719C28.5313 23.6719 28.8854 23.1198 28.25 22.7135C28.25 22.7135 20.7969 17.776 19.2083 17.4792C17.0417 17.0729 14.8958 18.8281 14.4219 21.1146L11.776 34.0833C9.5 31.349 8.125 27.8438 8.125 24.0208C8.125 15.3438 15.1823 8.28646 23.8594 8.28646C28.4948 8.28646 32.6667 10.3021 35.5469 13.4948L37.1615 11.8594C33.8646 8.25 29.1198 5.98438 23.8594 5.98438Z" fill="#1C1C1B"/>
<path d="M131.69 38.162C131.69 37.85 131.652 37.624 131.576 37.484C131.504 37.34 131.37 37.268 131.174 37.268C131.066 37.268 130.976 37.298 130.904 37.358C130.836 37.414 130.782 37.508 130.742 37.64C130.702 37.768 130.674 37.938 130.658 38.15C130.642 38.358 130.634 38.614 130.634 38.918C130.634 39.242 130.644 39.504 130.664 39.704C130.688 39.904 130.722 40.06 130.766 40.172C130.814 40.28 130.872 40.354 130.94 40.394C131.012 40.43 131.094 40.448 131.186 40.448C131.262 40.448 131.332 40.436 131.396 40.412C131.464 40.384 131.522 40.332 131.57 40.256C131.618 40.176 131.656 40.066 131.684 39.926C131.712 39.782 131.726 39.594 131.726 39.362H132.59C132.59 39.594 132.572 39.814 132.536 40.022C132.5 40.23 132.432 40.412 132.332 40.568C132.236 40.724 132.098 40.846 131.918 40.934C131.742 41.022 131.512 41.066 131.228 41.066C130.904 41.066 130.646 41.014 130.454 40.91C130.262 40.806 130.114 40.656 130.01 40.46C129.91 40.264 129.844 40.03 129.812 39.758C129.784 39.486 129.77 39.186 129.77 38.858C129.77 38.534 129.784 38.236 129.812 37.964C129.844 37.688 129.91 37.452 130.01 37.256C130.114 37.06 130.262 36.908 130.454 36.8C130.646 36.688 130.904 36.632 131.228 36.632C131.536 36.632 131.778 36.682 131.954 36.782C132.134 36.882 132.268 37.01 132.356 37.166C132.444 37.318 132.498 37.484 132.518 37.664C132.542 37.84 132.554 38.006 132.554 38.162H131.69ZM133.856 38.858C133.856 39.146 133.862 39.392 133.874 39.596C133.89 39.796 133.918 39.96 133.958 40.088C134.002 40.212 134.062 40.304 134.138 40.364C134.218 40.42 134.322 40.448 134.45 40.448C134.578 40.448 134.68 40.42 134.756 40.364C134.836 40.304 134.896 40.212 134.936 40.088C134.98 39.96 135.008 39.796 135.02 39.596C135.036 39.392 135.044 39.146 135.044 38.858C135.044 38.57 135.036 38.326 135.02 38.126C135.008 37.926 134.98 37.762 134.936 37.634C134.896 37.506 134.836 37.414 134.756 37.358C134.68 37.298 134.578 37.268 134.45 37.268C134.322 37.268 134.218 37.298 134.138 37.358C134.062 37.414 134.002 37.506 133.958 37.634C133.918 37.762 133.89 37.926 133.874 38.126C133.862 38.326 133.856 38.57 133.856 38.858ZM132.992 38.858C132.992 38.534 133.006 38.236 133.034 37.964C133.066 37.688 133.132 37.452 133.232 37.256C133.336 37.06 133.484 36.908 133.676 36.8C133.868 36.688 134.126 36.632 134.45 36.632C134.774 36.632 135.032 36.688 135.224 36.8C135.416 36.908 135.562 37.06 135.662 37.256C135.766 37.452 135.832 37.688 135.86 37.964C135.892 38.236 135.908 38.534 135.908 38.858C135.908 39.186 135.892 39.486 135.86 39.758C135.832 40.03 135.766 40.264 135.662 40.46C135.562 40.656 135.416 40.806 135.224 40.91C135.032 41.014 134.774 41.066 134.45 41.066C134.126 41.066 133.868 41.014 133.676 40.91C133.484 40.806 133.336 40.656 133.232 40.46C133.132 40.264 133.066 40.03 133.034 39.758C133.006 39.486 132.992 39.186 132.992 38.858ZM137.412 36.716L138.456 39.65H138.468V36.716H139.26V41H138.276L137.22 38H137.208V41H136.416V36.716H137.412ZM142.37 36.716V37.424H141.434V41H140.57V37.424H139.634V36.716H142.37ZM145.138 36.716V37.424H143.608V38.432H145.048V39.14H143.608V40.292H145.198V41H142.744V36.716H145.138ZM146.629 36.716L147.673 39.65H147.685V36.716H148.477V41H147.493L146.437 38H146.425V41H145.633V36.716H146.629ZM150.866 39.386L150.452 37.46H150.44L150.026 39.386H150.866ZM150.98 36.716L152.114 41H151.214L151.016 40.094H149.876L149.678 41H148.778L149.912 36.716H150.98ZM153.408 36.716L154.452 39.65H154.464V36.716H155.256V41H154.272L153.216 38H153.204V41H152.412V36.716H153.408ZM158.366 36.716V37.424H157.43V41H156.566V37.424H155.63V36.716H158.366ZM129.699 43.716V44.424H128.169V45.432H129.609V46.14H128.169V47.292H129.759V48H127.305V43.716H129.699ZM131.19 43.716L132.234 46.65H132.246V43.716H133.038V48H132.054L130.998 45H130.986V48H130.194V43.716H131.19ZM135.944 45.654H136.328C136.5 45.654 136.638 45.602 136.742 45.498C136.85 45.394 136.904 45.232 136.904 45.012C136.904 44.796 136.858 44.632 136.766 44.52C136.674 44.408 136.52 44.352 136.304 44.352H135.944V45.654ZM135.08 43.716H136.592C136.812 43.716 136.996 43.754 137.144 43.83C137.296 43.902 137.418 43.998 137.51 44.118C137.602 44.238 137.668 44.376 137.708 44.532C137.748 44.684 137.768 44.84 137.768 45C137.768 45.22 137.734 45.412 137.666 45.576C137.602 45.74 137.51 45.874 137.39 45.978C137.274 46.082 137.132 46.16 136.964 46.212C136.796 46.264 136.61 46.29 136.406 46.29H135.944V48H135.08V43.716ZM138.192 48V43.716H139.056V47.292H140.586V48H138.192ZM142.757 46.386L142.343 44.46H142.331L141.917 46.386H142.757ZM142.871 43.716L144.005 48H143.105L142.907 47.094H141.767L141.569 48H140.669L141.803 43.716H142.871ZM144.999 46.662V46.788C144.999 46.888 145.007 46.98 145.023 47.064C145.039 47.144 145.069 47.212 145.113 47.268C145.157 47.324 145.215 47.368 145.287 47.4C145.363 47.432 145.457 47.448 145.569 47.448C145.701 47.448 145.819 47.406 145.923 47.322C146.031 47.234 146.085 47.1 146.085 46.92C146.085 46.824 146.071 46.742 146.043 46.674C146.019 46.602 145.977 46.538 145.917 46.482C145.857 46.426 145.777 46.376 145.677 46.332C145.581 46.284 145.461 46.236 145.317 46.188C145.125 46.124 144.959 46.054 144.819 45.978C144.679 45.902 144.561 45.814 144.465 45.714C144.373 45.61 144.305 45.492 144.261 45.36C144.217 45.224 144.195 45.068 144.195 44.892C144.195 44.468 144.313 44.152 144.549 43.944C144.785 43.736 145.109 43.632 145.521 43.632C145.713 43.632 145.889 43.654 146.049 43.698C146.213 43.738 146.353 43.806 146.469 43.902C146.589 43.994 146.681 44.114 146.745 44.262C146.813 44.406 146.847 44.58 146.847 44.784V44.904H146.019C146.019 44.7 145.983 44.544 145.911 44.436C145.839 44.324 145.719 44.268 145.551 44.268C145.455 44.268 145.375 44.282 145.311 44.31C145.247 44.338 145.195 44.376 145.155 44.424C145.119 44.468 145.093 44.52 145.077 44.58C145.065 44.64 145.059 44.702 145.059 44.766C145.059 44.898 145.087 45.01 145.143 45.102C145.199 45.19 145.319 45.272 145.503 45.348L146.169 45.636C146.333 45.708 146.467 45.784 146.571 45.864C146.675 45.94 146.757 46.024 146.817 46.116C146.881 46.204 146.925 46.302 146.949 46.41C146.973 46.518 146.985 46.638 146.985 46.77C146.985 47.222 146.853 47.552 146.589 47.76C146.329 47.964 145.965 48.066 145.497 48.066C145.009 48.066 144.659 47.96 144.447 47.748C144.239 47.536 144.135 47.232 144.135 46.836V46.662H144.999ZM149.922 43.716V44.424H148.986V48H148.122V44.424H147.186V43.716H149.922ZM150.339 48V43.716H151.203V48H150.339ZM152.618 45.858C152.618 46.146 152.624 46.392 152.636 46.596C152.652 46.796 152.68 46.96 152.72 47.088C152.764 47.212 152.824 47.304 152.9 47.364C152.98 47.42 153.084 47.448 153.212 47.448C153.34 47.448 153.442 47.42 153.518 47.364C153.598 47.304 153.658 47.212 153.698 47.088C153.742 46.96 153.77 46.796 153.782 46.596C153.798 46.392 153.806 46.146 153.806 45.858C153.806 45.57 153.798 45.326 153.782 45.126C153.77 44.926 153.742 44.762 153.698 44.634C153.658 44.506 153.598 44.414 153.518 44.358C153.442 44.298 153.34 44.268 153.212 44.268C153.084 44.268 152.98 44.298 152.9 44.358C152.824 44.414 152.764 44.506 152.72 44.634C152.68 44.762 152.652 44.926 152.636 45.126C152.624 45.326 152.618 45.57 152.618 45.858ZM154.292 48.51L153.782 48C153.622 48.044 153.432 48.066 153.212 48.066C152.888 48.066 152.63 48.014 152.438 47.91C152.246 47.806 152.098 47.656 151.994 47.46C151.894 47.264 151.828 47.03 151.796 46.758C151.768 46.486 151.754 46.186 151.754 45.858C151.754 45.534 151.768 45.236 151.796 44.964C151.828 44.688 151.894 44.452 151.994 44.256C152.098 44.06 152.246 43.908 152.438 43.8C152.63 43.688 152.888 43.632 153.212 43.632C153.536 43.632 153.794 43.688 153.986 43.8C154.178 43.908 154.324 44.06 154.424 44.256C154.528 44.452 154.594 44.688 154.622 44.964C154.654 45.236 154.67 45.534 154.67 45.858C154.67 46.222 154.65 46.552 154.61 46.848C154.57 47.144 154.48 47.394 154.34 47.598L154.802 48.048L154.292 48.51ZM155.988 43.716V46.704C155.988 46.812 155.994 46.912 156.006 47.004C156.022 47.092 156.048 47.17 156.084 47.238C156.124 47.302 156.176 47.354 156.24 47.394C156.308 47.43 156.392 47.448 156.492 47.448C156.596 47.448 156.68 47.43 156.744 47.394C156.808 47.354 156.858 47.302 156.894 47.238C156.934 47.17 156.96 47.092 156.972 47.004C156.988 46.912 156.996 46.812 156.996 46.704V43.716H157.86V46.704C157.86 46.976 157.822 47.202 157.746 47.382C157.67 47.558 157.568 47.698 157.44 47.802C157.312 47.906 157.166 47.976 157.002 48.012C156.838 48.048 156.668 48.066 156.492 48.066C156.316 48.066 156.146 48.05 155.982 48.018C155.818 47.986 155.672 47.922 155.544 47.826C155.416 47.726 155.314 47.586 155.238 47.406C155.162 47.226 155.124 46.992 155.124 46.704V43.716H155.988ZM160.8 43.716V44.424H159.27V45.432H160.71V46.14H159.27V47.292H160.86V48H158.406V43.716H160.8Z" fill="#1C1C1B"/>
<path d="M152.487 24.93C151.38 23.8678 148.121 22.7889 144.458 22.7889C140.937 22.7889 137.784 23.7869 136.563 24.8101C136.061 24.4086 135.785 23.9793 135.785 23.5555C135.785 23.168 136.013 22.7721 136.44 22.3958C138.333 23.0705 141.394 23.0621 144.765 22.2313C146.292 21.8522 147.681 21.3559 148.877 20.7872C151.698 21.3698 153.418 22.4878 153.418 23.5555C153.418 24.0211 153.086 24.4951 152.487 24.93ZM136.858 25.0303C138.051 24.088 141.118 23.1457 144.458 23.1457C147.92 23.1457 151.087 24.1577 152.18 25.1335C150.711 26.0367 148.024 26.7309 144.6 26.7309C141.048 26.7309 138.286 25.9838 136.858 25.0303ZM153.418 28.0691C153.418 29.6024 149.875 31.2445 144.6 31.2445C139.328 31.2445 135.785 29.6024 135.785 28.0691V24.6456C137.101 26.0814 140.502 27.085 144.6 27.085C148.701 27.085 152.099 26.0814 153.418 24.6456V28.0691ZM135.264 20.5223L135.121 19.9508C136.747 21.0297 140.287 21.1886 144.266 20.2073C148.247 19.2232 151.308 17.439 152.242 15.7272L152.384 16.3015C152.752 17.7902 149.705 20.2324 144.583 21.4953C139.465 22.7582 135.632 22.0111 135.264 20.5223ZM134.784 18.582C134.416 17.0933 137.466 14.6511 142.584 13.3854C147.706 12.1253 151.536 12.8696 151.907 14.3584C152.272 15.8471 149.225 18.2893 144.104 19.5522C138.985 20.8151 135.152 20.0707 134.784 18.582ZM154.174 23.5555C154.174 22.1616 152.49 20.96 149.894 20.2631C152.158 18.9806 153.446 17.4473 153.12 16.1203L152.682 14.3472C152.679 14.3333 152.668 14.3249 152.665 14.311C152.657 14.2664 152.651 14.2218 152.64 14.1771C152.111 12.0361 147.614 11.367 142.403 12.6522C137.19 13.9374 133.521 16.6221 134.051 18.7632L134.528 20.7035C134.667 21.2667 135.085 21.7239 135.712 22.0752C135.272 22.5296 135.027 23.0286 135.027 23.5555V28.0691C135.027 30.2743 139.233 32 144.6 32C149.97 32 154.174 30.2743 154.174 28.0691V23.7563C154.174 23.7423 154.168 23.7284 154.168 23.7144C154.171 23.6698 154.174 23.6001 154.174 23.5555Z" fill="#1C1C1B"/>
</g>
<defs>
<clipPath id="clip0_21_1594">
<rect width="227" height="61" fill="white"/>
</clipPath>
</defs>
</svg>
