<svg width="295" height="55" viewBox="0 0 295 55" fill="none" xmlns="http://www.w3.org/2000/svg">
<g clip-path="url(#clip0_89_7)">
<path d="M277.719 4.58333H64.5364C63.953 1.57813 60.6926 0.4375 56.7187 0.4375C52.7239 0.4375 49.4478 1.39063 48.8905 4.58333H39.6458V36.5781C39.6458 46.2135 47.2135 54.0521 56.5103 54.0521H294.583V22.0573C294.583 12.4219 287.016 4.58333 277.719 4.58333ZM111.208 52.099H56.5103C48.2812 52.099 41.5885 45.1354 41.5885 36.5781V6.53646H48.8958C49.4687 9.60417 52.7343 10.6771 56.7187 10.6771C60.6978 10.6771 63.9635 9.60417 64.5416 6.53646H111.63L124 29.901" fill="#EC6A5D"/>
<path d="M54.1042 6.27608V8.14067H53.1406V3.39587H55.5729C55.9844 3.39587 56.0469 3.54171 56.0469 3.80212V4.224H54.1042V5.44796H55.8958V5.93754C55.8958 6.15108 55.8021 6.27608 55.5417 6.27608" fill="white"/>
<path d="M58.6042 3.39587C59.8698 3.39587 60.4531 3.88025 60.4531 4.98962C60.4531 5.74483 60.0313 6.17712 59.5521 6.42712L60.5104 8.14067H59.7917C59.5156 8.14067 59.3594 8.04692 59.2292 7.80733L58.625 6.61983H57.9635V8.14067H57V4.00525C57 3.61983 57.2188 3.39587 57.6094 3.39587H58.6042ZM57.9635 5.82817H58.5521C59.1979 5.82817 59.4531 5.51046 59.4531 4.98962C59.4531 4.43233 59.2083 4.224 58.5677 4.224H57.9635" fill="white"/>
<path d="M19.7968 31.026C18.3229 33.2031 19.5781 36.0729 21.0989 37.526C22.4843 38.8489 23.5989 39.1614 23.7395 39.1979L24.4479 37.8385L26.4895 43.4479L20.7187 44.6302L21.4843 43.1979L20.7031 42.7604C18.276 41.1718 17.7604 39.0052 17.5937 38.3281C17.302 37.1666 16.8697 33.6875 19.7968 31.026Z" fill="#EC6A5D"/>
<path d="M19.7708 31.1198C20.8176 33.5312 23.901 34 25.9322 33.4792C27.7395 33.0208 28.5937 32.2708 28.7395 32.1354L28.7343 32.125L27.9583 30.7812L33.7655 32.0573L31.6614 37.5885L30.8853 36.1927L30.1249 36.6042C27.4895 37.8229 25.3958 37.1094 24.7395 36.8906C23.6093 36.5156 20.453 35.026 19.7708 31.1198Z" fill="#EC6A5D"/>
<path d="M30.0364 25.2865C29.6301 28.1771 27.901 29.5625 27.3645 30C26.4374 30.7552 23.4895 32.6198 19.8489 31.0885C22.4426 31.5052 24.4895 29.151 25.1562 27.1458C25.7551 25.3542 25.578 24.2135 25.5468 24.0417L25.526 24.0365L23.9843 23.9688L28.177 19.7344L31.6822 24.4948L30.1041 24.4063" fill="#EC6A5D"/>
<path d="M12.427 22.8489C11.0989 22.8489 10.026 21.7708 10.026 20.4375C10.026 19.1041 11.0989 18.026 12.427 18.026C13.75 18.026 14.8229 19.1041 14.8229 20.4375C14.8229 21.7708 13.75 22.8489 12.427 22.8489Z" fill="#EC6A5D"/>
<path d="M15.7031 13.4375C7.04687 13.4375 0 20.526 0 29.2344C0 37.9427 7.04687 45.026 15.7031 45.026C16.1667 45.026 16.625 44.9948 17.0729 44.9583L17.1823 46.5417L20.0521 43.75L16.8385 41.2813L16.9583 42.9479C16.5469 42.9844 16.125 43.0104 15.7031 43.0104C15.0365 43.0104 14.3854 42.9635 13.7448 42.8698L13.6823 42.4479L12.1875 29.6615C11.9844 27.25 13.3542 26.8646 14.2031 27.2292L18.9635 29.151C19.5104 29.3854 19.7708 28.9271 19.7708 28.9271C19.7708 28.9271 20.0781 28.4479 19.5313 28.0938C19.5313 28.0938 13.0365 23.7656 11.6563 23.5052C9.76562 23.151 7.89583 24.6875 7.48438 26.6927L5.18229 38.0469C3.19792 35.6563 2 32.5833 2 29.2344C2 21.6354 8.14583 15.4531 15.7031 15.4531C19.7396 15.4531 23.3698 17.2187 25.8802 20.0208L27.2865 18.5833C24.4167 15.4271 20.2865 13.4375 15.7031 13.4375ZM8.71354 34.5729C8.91667 34.0104 9.22396 34.0417 9.22396 34.0417C9.22396 34.0417 9.5 33.9844 9.65104 34.5521L11.8906 42.4688C10.026 41.9219 8.31771 40.9844 6.86979 39.7552" fill="#EC6A5D"/>
<path d="M176 28.7396C174.588 28.7396 173.786 28.1719 173.786 25.9688C173.786 23.75 174.588 23.1875 176 23.1875C177.406 23.1875 178.198 23.75 178.198 25.9688C178.198 28.1719 177.406 28.7396 176 28.7396ZM176 23.7031C174.958 23.7031 174.406 24.0573 174.406 25.9688C174.406 27.8698 174.958 28.224 176 28.224C177.026 28.224 177.583 27.8698 177.583 25.9688C177.583 24.0573 177.026 23.7031 176 23.7031Z" fill="white"/>
<path d="M179.37 26.7656V23.2916H179.682C179.88 23.2916 179.958 23.3854 179.958 23.6198V26.7552C179.958 27.5781 180.318 28.2239 181.411 28.2239C182.505 28.2239 182.849 27.5781 182.849 26.7552V23.6198C182.849 23.3854 182.937 23.2916 183.135 23.2916H183.443V26.7656C183.443 27.901 182.885 28.7395 181.411 28.7395C179.932 28.7395 179.37 27.901 179.37 26.7656Z" fill="white"/>
<path d="M238.182 28.7396C236.766 28.7396 235.969 28.1719 235.969 25.9688C235.969 23.75 236.766 23.1875 238.182 23.1875C239.589 23.1875 240.38 23.75 240.38 25.9688C240.38 28.1719 239.589 28.7396 238.182 28.7396ZM238.182 23.7031C237.141 23.7031 236.583 24.0573 236.583 25.9688C236.583 27.8698 237.141 28.224 238.182 28.224C239.208 28.224 239.76 27.8698 239.76 25.9688C239.76 24.0573 239.208 23.7031 238.182 23.7031Z" fill="white"/>
<path d="M241.552 26.7656V23.2916H241.865C242.062 23.2916 242.141 23.3854 242.141 23.6198V26.7552C242.141 27.5781 242.495 28.2239 243.588 28.2239C244.682 28.2239 245.031 27.5781 245.031 26.7552V23.6198C245.031 23.3854 245.12 23.2916 245.318 23.2916H245.62V26.7656C245.62 27.901 245.068 28.7395 243.588 28.7395C242.115 28.7395 241.552 27.901 241.552 26.7656Z" fill="white"/>
<path d="M275.781 14.2812L272.208 10.6823C271.51 9.98433 270.375 9.98433 269.677 10.6823L269.307 11.052C268.792 11.5729 268.661 12.3333 268.911 12.9791L263.078 14.8073C262.38 15.0468 261.88 15.4739 261.635 16.0416C261.521 16.3073 260.245 19.3385 260.24 19.3541C259.995 19.9739 260 20.5156 260.25 20.9583C260.385 21.1927 260.604 21.5573 260.771 21.8177L255.745 26.875L254.875 26C254.745 25.8698 254.547 25.8281 254.375 25.901C254.203 25.9739 254.089 26.1406 254.089 26.3281L254.094 30.7916C254.094 31.0468 254.302 31.2552 254.557 31.2552L258.99 31.2604C259.177 31.2604 259.344 31.1458 259.417 30.9739C259.49 30.7968 259.448 30.5989 259.318 30.4687L258.453 29.5989L261.615 26.4218V30.7239H260.385C260.203 30.7239 260.031 30.8333 259.964 31.0104C259.891 31.1823 259.927 31.3802 260.062 31.5156L263.203 34.6666C263.292 34.7552 263.406 34.802 263.526 34.802C263.646 34.802 263.766 34.7552 263.854 34.6666L266.995 31.5156C267.125 31.3802 267.167 31.1823 267.094 31.0104C267.021 30.8333 266.854 30.7239 266.667 30.7239H265.443V26.3802L268.646 29.5989L267.776 30.4739C267.646 30.6041 267.609 30.8073 267.677 30.9791C267.75 31.1562 267.922 31.2656 268.104 31.2656L272.542 31.2604C272.797 31.2604 273 31.052 273 30.7968L273.005 26.3385C273.005 26.1458 272.896 25.9791 272.724 25.9062C272.552 25.8333 272.349 25.8802 272.219 26.0104L271.354 26.875L268.906 24.4166C269.094 24.3437 269.266 24.2343 269.406 24.0833C269.667 23.8125 269.797 23.4531 269.786 23.0781L269.703 20.7812C270.312 20.5208 270.932 20.2291 271.385 19.9531C272.307 19.3854 272.823 18.3073 273.005 17.276C273.328 17.552 273.724 17.7187 274.151 17.7187C274.625 17.7187 275.078 17.5364 275.411 17.1927L275.781 16.8229C276.12 16.4843 276.307 16.0312 276.307 15.552C276.307 15.0729 276.12 14.6198 275.781 14.2812ZM264.521 20L263.875 19.3541C263.74 19.2187 263.552 19.2187 263.385 19.2864L263.411 19.2291C263.505 18.9948 263.687 18.5625 263.833 18.5104C263.979 18.4583 264.167 18.3958 264.344 18.3333C264.354 18.5989 264.385 18.8906 264.464 19.1198C264.542 19.3593 264.646 19.5625 264.734 19.7083L264.521 20ZM257.474 29.927L257.875 30.3281H255.016V27.4531L255.417 27.8593C255.599 28.0364 255.891 28.0364 256.068 27.8593L263.552 20.3385L263.964 20.7552L262.854 22.25C262.609 22.5781 262.505 22.9843 262.562 23.3906C262.594 23.5937 262.661 23.7864 262.76 23.9531L257.474 29.2708C257.385 29.3541 257.339 29.4739 257.339 29.5989C257.339 29.7239 257.385 29.8385 257.474 29.927ZM265.552 31.6458L263.526 33.6823L261.5 31.6458H262.073C262.328 31.6458 262.536 31.4427 262.536 31.1875V25.4948L263.458 24.5677C263.656 24.6562 263.865 24.7187 264.078 24.7187C264.156 24.7187 264.229 24.7135 264.302 24.7031C264.38 24.6927 264.448 24.651 264.521 24.625V31.1875C264.521 31.4427 264.729 31.6458 264.984 31.6458H265.552ZM271.677 27.8645L272.083 27.4583L272.078 30.3333L269.219 30.3385L269.625 29.927C269.802 29.75 269.802 29.4531 269.625 29.2708L265.443 25.0677V23.9218L266.156 22.9635L271.026 27.8645C271.208 28.0416 271.5 28.0416 271.677 27.8645ZM268.865 23.1093C268.87 23.2343 268.823 23.3593 268.734 23.4531C268.651 23.5416 268.531 23.5989 268.401 23.6041C268.151 23.6458 267.917 23.4062 267.906 23.1406L267.854 21.4635C268.089 21.3958 268.411 21.2864 268.792 21.1458L268.865 23.1093ZM270.906 19.1562C269.927 19.75 268.068 20.4531 267.51 20.5989C267.292 20.6562 266.536 20.9062 265.875 21.7864L264.573 23.5416C264.474 23.677 264.333 23.7604 264.172 23.7864C264.005 23.7968 263.849 23.7656 263.719 23.6666C263.589 23.5677 263.5 23.4218 263.479 23.2604C263.453 23.0989 263.495 22.9375 263.594 22.8073L265.682 19.9895C265.823 19.7968 265.812 19.5416 265.63 19.3854C265.625 19.3802 265.453 19.1718 265.339 18.8229C265.25 18.5625 265.255 18.0156 265.276 17.7291C265.286 17.5729 265.224 17.4218 265.104 17.3281C265.021 17.2604 264.922 17.2291 264.818 17.2291C264.771 17.2291 264.724 17.2343 264.677 17.25C264.677 17.25 263.937 17.4843 263.521 17.6354C262.99 17.8281 262.74 18.427 262.557 18.8698L262.464 19.0937C262.302 19.4583 262.281 19.9791 262.286 20.2864L261.437 21.1406C261.302 20.9218 261.151 20.6718 261.057 20.5052C260.948 20.3125 260.964 20.0416 261.094 19.7031C261.094 19.7031 262.365 16.6823 262.479 16.4166C262.62 16.0885 262.922 15.8437 263.37 15.6927L269.484 13.7708L271.521 15.8229L272.161 16.4687C272.151 17.4583 271.734 18.651 270.906 19.1562ZM275.13 16.1666L274.76 16.5364C274.432 16.8645 273.865 16.8645 273.536 16.5364L272.948 15.9427L269.958 12.9375C269.625 12.5937 269.625 12.0468 269.958 11.7083L270.328 11.3385C270.667 11 271.214 11 271.557 11.3385L275.13 14.9375C275.292 15.0989 275.385 15.3177 275.385 15.552C275.385 15.7864 275.292 16.0052 275.13 16.1666Z" fill="white"/>
<path d="M224.917 33.6666V15.0052C224.917 13.1979 223.453 11.7291 221.661 11.7291H197.031C195.234 11.7291 193.776 13.1979 193.776 15.0052V33.6666H192.349V34.6198H226.338V33.6666H224.917ZM216.984 22.8229H223.969V33.6666H216.984V22.8229ZM194.724 18.7552H216.036V28.5989H194.724V18.7552ZM223.969 21.8698H216.984V18.7552H223.969V21.8698ZM216.51 17.802H214.687V12.6823H218.682V17.802H216.51ZM213.74 17.802H209.75V12.6823H213.74V17.802ZM208.802 17.802H204.807V12.6823H208.802V17.802ZM203.859 17.802H199.865V12.6823H203.859V17.802ZM223.969 15.0052V17.802H219.63V12.6823H221.661C222.932 12.6823 223.969 13.7239 223.969 15.0052ZM197.031 12.6823H198.922V17.802H194.724V15.0052C194.724 13.7239 195.76 12.6823 197.031 12.6823ZM194.724 29.552H216.036V33.6666H194.724" fill="white"/>
<path d="M53.927 23.8385C53.1198 23.8385 52.7604 23.4167 52.7604 22.651V14.9844H55.9531C58.4843 14.9844 59.9479 16.2865 59.9479 19.2969C59.9479 22.0833 58.9739 23.8385 55.6354 23.8385H53.927ZM54.5729 22.3021H55.651C57.4479 22.3021 58.0937 21.4063 58.0937 19.3229C58.0937 17.0938 57.302 16.5313 55.9218 16.5313H54.5729" fill="#EC6A5D"/>
<path d="M65.0572 24.0104C62.4687 24.0104 61.1458 22.7656 61.1458 19.4219C61.1458 16.0677 62.4687 14.8125 65.0572 14.8125C67.6301 14.8125 68.9583 16.0677 68.9583 19.4219C68.9583 22.7656 67.6301 24.0104 65.0572 24.0104ZM65.0572 16.375C63.6926 16.375 63.0155 16.8177 63.0155 19.4219C63.0155 22.0104 63.6926 22.4479 65.0572 22.4479C66.3958 22.4479 67.0885 22.0104 67.0885 19.4219C67.0885 16.8177 66.3958 16.375 65.0572 16.375Z" fill="#EC6A5D"/>
<path d="M72.453 23.8385H70.6561V15.9687C70.6561 14.6093 72.1093 14.5781 72.5988 15.3177L76.1353 20.6822V15.7968C76.1353 15.2291 76.3228 14.9843 76.8957 14.9843H77.9322V22.7499C77.9322 24.1979 76.3801 24.3124 75.7915 23.4583L72.453 18.427" fill="#EC6A5D"/>
<path d="M82.0051 23.8385H80.2083V15.9687C80.2083 14.6093 81.6614 14.5781 82.151 15.3177L85.6874 20.6822V15.7968C85.6874 15.2291 85.8749 14.9843 86.4478 14.9843H87.4843V22.7499C87.4843 24.1979 85.9322 24.3124 85.3437 23.4583L82.0051 18.427" fill="#EC6A5D"/>
<path d="M94.2604 14.9844C95.0365 14.9844 95.1354 15.2604 95.1354 15.75V16.5313H91.4531V18.6563H94.8385V19.4688C94.8385 19.8698 94.6771 20.1042 94.1719 20.1042H91.4531V22.3021H95.2969V23.125C95.2969 23.6458 94.9948 23.8333 94.4063 23.8333H89.6562V14.9844" fill="#EC6A5D"/>
<path d="M103.25 14.9844V15.6615C103.25 16.1562 103.135 16.5312 102.745 17.0365L98.7343 22.3021H103.38V22.8542C103.38 23.401 103.151 23.8333 102.474 23.8333H96.5208V23.2865C96.5208 22.6927 96.6197 22.3177 96.9947 21.8229L101.036 16.5313H96.651V15.9948C96.651 15.375 97.0364 14.9844 97.7864 14.9844" fill="#EC6A5D"/>
<path d="M75.5728 33.2448C74.0676 33.2448 73.2186 32.6407 73.2186 30.2969C73.2186 27.9375 74.0676 27.3334 75.5728 27.3334C77.0728 27.3334 77.9113 27.9375 77.9113 30.2969C77.9113 32.6407 77.0728 33.2448 75.5728 33.2448ZM75.5728 27.8802C74.4634 27.8802 73.8749 28.2605 73.8749 30.2969C73.8749 32.3282 74.4634 32.698 75.5728 32.698C76.6665 32.698 77.2551 32.3282 77.2551 30.2969C77.2551 28.2605 76.6665 27.8802 75.5728 27.8802Z" fill="#EC6A5D"/>
<path d="M79.1614 31.1458V27.4479H79.4947C79.7083 27.4479 79.7916 27.5468 79.7916 27.802V31.1354C79.7916 32.0104 80.1718 32.6979 81.3333 32.6979C82.4999 32.6979 82.8697 32.0104 82.8697 31.1354V27.802C82.8697 27.5468 82.9635 27.4479 83.1718 27.4479H83.4999V31.1458C83.4999 32.3541 82.9062 33.25 81.3333 33.25C79.7655 33.25 79.1614 32.3541 79.1614 31.1458Z" fill="#EC6A5D"/>
<path d="M53.6562 36.6875C56.0156 36.6875 57.1093 37.5937 57.1093 39.6667C57.1093 41.0677 56.3177 41.875 55.427 42.3385L57.2083 45.5365H55.8698C55.3541 45.5365 55.0677 45.3646 54.8229 44.9167L53.7031 42.7031H52.4635V45.5365H50.6666V37.8281C50.6666 37.1042 51.0677 36.6875 51.802 36.6875H53.6562ZM52.4635 41.2292H53.5573C54.7656 41.2292 55.2395 40.6354 55.2395 39.6667C55.2395 38.625 54.7812 38.2344 53.5833 38.2344H52.4635" fill="#EC6A5D"/>
<path d="M63.453 36.6875C64.2291 36.6875 64.3333 36.9635 64.3333 37.4531V38.2344H60.6458V40.3594H64.0312V41.1719C64.0312 41.5729 63.8697 41.8073 63.3697 41.8073H60.6458V44.0052H64.4895V44.8281C64.4895 45.349 64.1874 45.5365 63.5989 45.5365H58.8489V36.6875" fill="#EC6A5D"/>
<path d="M71.7968 38.4063C71.3073 38.25 70.5729 38.0781 69.5937 38.0781C68.1875 38.0781 67.3802 38.7396 67.3802 41.0833C67.3802 43.4271 68.2135 44.151 69.7708 44.151C70.776 44.151 71.4062 43.9635 71.8958 43.8021V44.7396C71.8958 45.4792 70.8177 45.7083 69.5416 45.7083C67.1093 45.7083 65.526 44.4375 65.526 41.0833C65.526 37.6823 67.0208 36.5156 69.6823 36.5156C70.9635 36.5156 71.7968 36.7865 71.7968 37.5938" fill="#EC6A5D"/>
<path d="M73.8697 36.6875C74.3593 36.6875 74.6614 36.875 74.8489 37.25L76.5155 40.5885L78.0676 37.25C78.2395 36.8594 78.4843 36.6875 78.9583 36.6875H80.0989L77.2916 42.2083V45.5365H75.4947V42.2083L72.6301 36.6875" fill="#EC6A5D"/>
<path d="M87.1771 38.4063C86.6875 38.25 85.9531 38.0781 84.974 38.0781C83.5677 38.0781 82.7604 38.7396 82.7604 41.0833C82.7604 43.4271 83.5938 44.151 85.1458 44.151C86.1563 44.151 86.7865 43.9635 87.276 43.8021V44.7396C87.276 45.4792 86.1979 45.7083 84.9167 45.7083C82.4896 45.7083 80.9062 44.4375 80.9062 41.0833C80.9062 37.6823 82.401 36.5156 85.0625 36.5156C86.3385 36.5156 87.1771 36.7865 87.1771 37.5938" fill="#EC6A5D"/>
<path d="M94.2552 44.0052V44.7969C94.2552 45.3177 93.9062 45.5365 93.2864 45.5365H90.0833C89.276 45.5365 88.901 45.1146 88.901 44.3229V36.6875H90.7031V44.0052" fill="#EC6A5D"/>
<path d="M100.078 36.6875C100.854 36.6875 100.958 36.9635 100.958 37.4531V38.2344H97.276V40.3594H100.656V41.1719C100.656 41.5729 100.495 41.8073 99.9948 41.8073H97.276V44.0052H101.115V44.8281C101.115 45.349 100.812 45.5365 100.224 45.5365H95.4791V36.6875" fill="#EC6A5D"/>
<path d="M109.068 36.6875V37.3646C109.068 37.8542 108.953 38.2344 108.568 38.7396L104.552 44.0052H109.198V44.5521C109.198 45.1042 108.969 45.5365 108.292 45.5365H102.339V44.9844C102.339 44.3958 102.443 44.0208 102.812 43.526L106.854 38.2344H102.469V37.6979C102.469 37.0781 102.854 36.6875 103.604 36.6875" fill="#EC6A5D"/>
<path d="M128.771 45.5677H127.714V42.099C127.714 40.9219 128.208 40.1146 129.797 40.1146C131.396 40.1146 131.906 40.9219 131.906 42.099V45.5677H130.812V43.7917H128.771V45.5677ZM130.812 42.8959V42.0886C130.812 41.4115 130.562 41.0625 129.797 41.0625C129.031 41.0625 128.771 41.4115 128.771 42.0886V42.8959" fill="white"/>
<path d="M136.125 41.2605C135.906 41.1927 135.432 41.0625 134.901 41.0625C134.286 41.0625 133.953 41.2448 133.953 41.6719C133.953 42.5365 136.411 42.448 136.411 44.0625C136.411 45.0417 135.63 45.6719 134.38 45.6719C133.141 45.6719 132.802 45.3177 132.802 44.9271V44.448C133.208 44.5782 133.792 44.7292 134.432 44.7292C134.922 44.7292 135.208 44.5157 135.208 44.1511C135.208 43.3282 132.75 43.4636 132.75 41.7865C132.75 40.6667 133.599 40.1146 134.818 40.1146C135.536 40.1146 136.125 40.2657 136.125 40.7969" fill="white"/>
<path d="M140.302 41.2605C140.083 41.1927 139.609 41.0625 139.078 41.0625C138.458 41.0625 138.13 41.2448 138.13 41.6719C138.13 42.5365 140.588 42.448 140.588 44.0625C140.588 45.0417 139.807 45.6719 138.557 45.6719C137.318 45.6719 136.979 45.3177 136.979 44.9271V44.448C137.385 44.5782 137.963 44.7292 138.609 44.7292C139.094 44.7292 139.38 44.5157 139.38 44.1511C139.38 43.3282 136.927 43.4636 136.927 41.7865C136.927 40.6667 137.776 40.1146 138.99 40.1146C139.713 40.1146 140.302 40.2657 140.302 40.7969" fill="white"/>
<path d="M143.661 45.6719C142.099 45.6719 141.297 44.9167 141.297 42.9011C141.297 40.875 142.099 40.1146 143.661 40.1146C145.214 40.1146 146.016 40.875 146.016 42.9011C146.016 44.9167 145.214 45.6719 143.661 45.6719ZM143.661 41.0625C142.839 41.0625 142.427 41.3282 142.427 42.9011C142.427 44.4636 142.839 44.7292 143.661 44.7292C144.469 44.7292 144.885 44.4636 144.885 42.9011C144.885 41.3282 144.469 41.0625 143.661 41.0625Z" fill="white"/>
<path d="M150.521 41.2605C150.224 41.1667 149.781 41.0625 149.193 41.0625C148.339 41.0625 147.854 41.4636 147.854 42.875C147.854 44.2917 148.354 44.7292 149.297 44.7292C149.901 44.7292 150.286 44.6146 150.578 44.5157V45.0834C150.578 45.5313 149.927 45.6719 149.156 45.6719C147.687 45.6719 146.734 44.9011 146.734 42.875C146.734 40.823 147.635 40.1146 149.245 40.1146C150.016 40.1146 150.521 40.2813 150.521 40.7709" fill="white"/>
<path d="M151.562 45.5677H152.646V40.224H151.562V45.5677Z" fill="white"/>
<path d="M154.922 45.5677H153.865V42.099C153.865 40.9219 154.354 40.1146 155.943 40.1146C157.542 40.1146 158.057 40.9219 158.057 42.099V45.5677H156.958V43.7917H154.922V45.5677ZM156.958 42.8959V42.0886C156.958 41.4115 156.708 41.0625 155.943 41.0625C155.182 41.0625 154.922 41.4115 154.922 42.0886V42.8959" fill="white"/>
<path d="M162.906 40.224V40.6355C162.906 40.974 162.745 41.1927 162.365 41.1927H161.24V45.5677H160.156V41.1927H158.5V40.823C158.5 40.4375 158.672 40.224 159.125 40.224" fill="white"/>
<path d="M163.661 45.5677H164.75V40.224H163.661V45.5677Z" fill="white"/>
<path d="M168.135 45.6719C166.573 45.6719 165.771 44.9167 165.771 42.9011C165.771 40.875 166.573 40.1146 168.135 40.1146C169.687 40.1146 170.49 40.875 170.49 42.9011C170.49 44.9167 169.687 45.6719 168.135 45.6719ZM168.135 41.0625C167.312 41.0625 166.901 41.3282 166.901 42.9011C166.901 44.4636 167.312 44.7292 168.135 44.7292C168.943 44.7292 169.359 44.4636 169.359 42.9011C169.359 41.3282 168.943 41.0625 168.135 41.0625Z" fill="white"/>
<path d="M172.599 45.5677H171.51V40.8177C171.51 39.9948 172.391 39.9792 172.682 40.4219L174.818 43.6615V40.7083C174.818 40.3698 174.932 40.224 175.281 40.224H175.906V44.9115C175.906 45.7865 174.969 45.8542 174.609 45.3385L172.599 42.3021" fill="white"/>
<path d="M193.469 42.1355L193.172 45.6094H192.047L192.505 40.7344C192.563 40.1355 193.536 39.9428 193.849 40.5626L195.073 43.1094L196.281 40.5626C196.594 39.9428 197.594 40.1355 197.661 40.823L198.104 45.6094H196.974L196.682 42.1355L195.635 44.3594C195.422 44.7865 194.719 44.7865 194.51 44.3542" fill="white"/>
<path d="M200.161 45.6042H199.104V42.1406C199.104 40.9635 199.599 40.1562 201.182 40.1562C202.781 40.1562 203.297 40.9635 203.297 42.1406V45.6042H202.203V43.8333H200.161V45.6042ZM202.203 42.9323V42.1302C202.203 41.4479 201.948 41.1042 201.182 41.1042C200.422 41.1042 200.161 41.4479 200.161 42.1302V42.9323" fill="white"/>
<path d="M206.812 43.474C206.505 43.474 206.422 43.3438 206.422 43.0938V42.5781H208.713V44.9844C208.713 45.3125 208.594 45.4219 208.391 45.4844C207.937 45.625 207.453 45.7083 206.661 45.7083C205.135 45.7083 204.156 44.9948 204.156 42.9167C204.156 40.901 205.213 40.1562 206.87 40.1562C208.042 40.1562 208.521 40.3958 208.521 40.9271V41.3646C208.151 41.2396 207.713 41.1042 206.906 41.1042C205.823 41.1042 205.276 41.5729 205.276 42.9167C205.276 44.349 205.823 44.7656 206.698 44.7656C207.203 44.7656 207.437 44.7083 207.62 44.6615V43.474" fill="white"/>
<path d="M210.901 45.6042H209.839V42.1406C209.839 40.9635 210.333 40.1562 211.922 40.1562C213.521 40.1562 214.036 40.9635 214.036 42.1406V45.6042H212.937V43.8333H210.901V45.6042ZM212.937 42.9323V42.1302C212.937 41.4479 212.687 41.1042 211.922 41.1042C211.161 41.1042 210.901 41.4479 210.901 42.1302V42.9323" fill="white"/>
<path d="M218.255 41.3021C218.036 41.2344 217.557 41.1042 217.026 41.1042C216.411 41.1042 216.083 41.2865 216.083 41.7135C216.083 42.5781 218.542 42.4896 218.542 44.1042C218.542 45.0833 217.76 45.7135 216.505 45.7135C215.266 45.7135 214.927 45.3646 214.927 44.9688V44.4896C215.333 44.6198 215.917 44.7708 216.557 44.7708C217.047 44.7708 217.333 44.5625 217.333 44.1927C217.333 43.3698 214.875 43.5052 214.875 41.8281C214.875 40.7083 215.724 40.1562 216.943 40.1562C217.661 40.1562 218.255 40.3073 218.255 40.8438" fill="white"/>
<path d="M219.609 45.6042H220.693V40.2656H219.609V45.6042Z" fill="white"/>
<path d="M223.151 45.6041H222.062V40.8593C222.062 40.0364 222.943 40.0208 223.234 40.4635L225.37 43.7031V40.75C225.37 40.4114 225.484 40.2656 225.833 40.2656H226.458V44.9531C226.458 45.8229 225.521 45.8958 225.161 45.3802L223.151 42.3437" fill="white"/>
<path d="M243.391 45.6042C242.906 45.6042 242.688 45.3542 242.688 44.8906V40.2656H244.615C246.146 40.2656 247.031 41.0469 247.031 42.8646C247.031 44.5469 246.437 45.6042 244.427 45.6042H243.391ZM243.781 44.6823H244.432C245.516 44.6823 245.906 44.1406 245.906 42.8802C245.906 41.5365 245.432 41.1979 244.599 41.1979H243.781" fill="white"/>
<path d="M250.771 40.2656C251.24 40.2656 251.302 40.427 251.302 40.7239V41.1979H249.078V42.4791H251.12V42.9687C251.12 43.2135 251.021 43.3541 250.719 43.3541H249.078V44.6823H251.396V45.177C251.396 45.4895 251.213 45.6041 250.854 45.6041H247.99V40.2656H250.771ZM250.849 38.2448L250.12 39.2343C249.953 39.4427 249.729 39.5468 249.427 39.5468H249.062L249.729 38.2448" fill="white"/>
<path d="M255.807 41.3021C255.51 41.2083 255.068 41.1042 254.479 41.1042C253.625 41.1042 253.141 41.5052 253.141 42.9167C253.141 44.3333 253.646 44.7708 254.583 44.7708C255.187 44.7708 255.573 44.6562 255.865 44.5625V45.125C255.865 45.5729 255.213 45.7135 254.443 45.7135C252.974 45.7135 252.021 44.9427 252.021 42.9167C252.021 40.8698 252.922 40.1562 254.531 40.1562C255.302 40.1562 255.807 40.3229 255.807 40.8125" fill="white"/>
<path d="M257.49 40.2656C257.844 40.2656 257.932 40.4115 257.932 40.75V42.4635H260.229V40.75C260.229 40.4115 260.344 40.2656 260.693 40.2656H261.318V45.6042H260.229V43.3906H257.932V45.6042H256.844V40.2656" fill="white"/>
<path d="M265.417 40.2656C265.885 40.2656 265.948 40.427 265.948 40.7239V41.1979H263.724V42.4791H265.766V42.9687C265.766 43.2135 265.667 43.3541 265.365 43.3541H263.724V44.6823H266.042V45.177C266.042 45.4895 265.859 45.6041 265.5 45.6041H262.635V40.2656H265.417ZM264.219 38.2448L264.885 39.5468H264.531C264.271 39.5468 264.047 39.4791 263.906 39.302L263.089 38.2448" fill="white"/>
<path d="M270.922 40.2656V40.6771C270.922 41.0156 270.755 41.2344 270.375 41.2344H269.255V45.6042H268.167V41.2344H266.51V40.8646C266.51 40.4792 266.682 40.2656 267.135 40.2656" fill="white"/>
<path d="M274.38 40.2656C274.849 40.2656 274.911 40.4271 274.911 40.724V41.1979H272.687V42.4792H274.729V42.9688C274.729 43.2135 274.635 43.3542 274.328 43.3542H272.687V44.6823H275.005V45.1771C275.005 45.4896 274.823 45.6042 274.469 45.6042H271.604V40.2656" fill="white"/>
<path d="M277.906 40.2656C279.333 40.2656 279.99 40.8125 279.99 42.0625C279.99 42.9115 279.516 43.401 278.974 43.6771L280.052 45.6042H279.245C278.932 45.6042 278.76 45.5052 278.609 45.2292L277.932 43.8958H277.187V45.6042H276.104V40.9531C276.104 40.5156 276.344 40.2656 276.786 40.2656H277.906ZM277.187 43.0052H277.849C278.573 43.0052 278.865 42.6458 278.865 42.0625C278.865 41.4323 278.583 41.1979 277.865 41.1979H277.187" fill="white"/>
<path d="M281.109 45.6042H282.193V40.2656H281.109V45.6042Z" fill="white"/>
<path d="M286.286 40.2656C286.755 40.2656 286.818 40.4271 286.818 40.724V41.1979H284.594V42.4792H286.63V42.9688C286.63 43.2135 286.536 43.3542 286.234 43.3542H284.594V44.6823H286.911V45.1771C286.911 45.4896 286.729 45.6042 286.37 45.6042H283.505V40.2656" fill="white"/>
<path d="M164.578 24.4688C163.875 23.5469 162.573 23.5677 161.714 24.0365L157.25 26.4271C157.266 26.2813 157.26 26.1771 157.26 26.151C157.224 24.9792 156.286 24.0625 155.12 24.0625H153.786C155.365 22.8021 157.323 20.8698 158.167 18.5313C158.906 16.4844 158.812 14.6406 157.906 13.3438C157.187 12.3073 155.969 11.6875 154.661 11.6875C152.896 11.6875 151.755 13.25 151.187 14.3125C150.615 13.25 149.474 11.6875 147.714 11.6875C146.401 11.6875 145.187 12.3021 144.464 13.3438C143.557 14.6406 143.469 16.4844 144.208 18.5313C145.052 20.875 147.01 22.8021 148.583 24.0625H142.417C142.089 23.6719 141.615 23.4115 141.068 23.4115H140.552C139.562 23.4115 138.76 24.2187 138.76 25.2083V32.1458C138.76 33.1406 139.562 33.9479 140.552 33.9479H141.068C141.745 33.9479 142.312 33.5573 142.615 32.9948L144.823 32.4896L153.266 34.5938C153.302 34.6042 153.339 34.6042 153.375 34.6042C153.469 34.6042 153.557 34.5781 153.63 34.526L164.198 27.4115C165.109 26.7083 165.281 25.3854 164.578 24.4688ZM145.073 18.2188C144.443 16.4583 144.495 14.9167 145.219 13.875C145.771 13.0833 146.703 12.6146 147.714 12.6146C149.672 12.6146 150.74 15.5469 150.75 15.5781C150.818 15.7604 150.99 15.8854 151.187 15.8854C151.38 15.8854 151.552 15.7604 151.62 15.5781C151.63 15.5469 152.698 12.6146 154.661 12.6146C155.672 12.6146 156.604 13.0833 157.151 13.875C157.88 14.9167 157.932 16.4583 157.297 18.2188C156.349 20.849 153.781 22.9792 152.26 24.0625H150.115C148.594 22.9844 146.026 20.8542 145.073 18.2188ZM141.068 33.0208H140.552C140.073 33.0208 139.682 32.6302 139.682 32.1458V25.2083C139.682 24.7292 140.073 24.3385 140.552 24.3385H141.068C141.323 24.3385 141.547 24.4531 141.703 24.625L141.771 32.6146C141.771 32.6198 141.776 32.625 141.776 32.625C141.615 32.8594 141.37 33.0208 141.068 33.0208ZM163.661 26.6615L153.286 33.6406L144.937 31.5625C144.901 31.5573 144.865 31.5521 144.828 31.5521C144.792 31.5521 144.76 31.5573 144.724 31.5625L142.859 31.9896V25.2083C142.859 25.1302 142.823 25.0677 142.818 24.9896H155.12C155.781 24.9896 156.318 25.5104 156.339 26.1875C156.339 26.1927 156.349 26.7083 156.036 27.0365C156 27.0729 155.964 27.1042 155.922 27.1354L155.708 27.25C155.557 27.3073 155.38 27.3385 155.172 27.3385H148.911V28.2656H155.172C155.661 28.2656 156.073 28.151 156.411 27.9271L162.156 24.8542C162.677 24.5625 163.474 24.5469 163.849 25.0313C164.24 25.5469 164.146 26.2865 163.661 26.6615Z" fill="white"/>
</g>
<defs>
<clipPath id="clip0_89_7">
<rect width="295" height="55" fill="white"/>
</clipPath>
</defs>
</svg>
