<svg width="270" height="61" viewBox="0 0 270 61" fill="none" xmlns="http://www.w3.org/2000/svg">
<path d="M24.6979 60.4688C11.0781 60.4688 0 49.5208 0 36.0625V0H234.948C248.563 0 259.641 10.9479 259.641 24.4062V60.4688" fill="white"/>
<path d="M222.083 52.9114H69.1353C59.6874 52.9114 51.9999 45.3541 51.9999 36.0625V7.55725H204.948C214.396 7.55725 222.083 15.1145 222.083 24.4062V52.9114ZM204.948 5.66663H50.1145V36.0625C50.1145 46.3958 58.6458 54.802 69.1353 54.802H223.969V24.4062C223.969 14.0729 215.437 5.66663 204.948 5.66663Z" fill="#333347"/>
<path d="M196.714 54.802L209.724 28.2239L196.432 5.66663H234.948C245.437 5.66663 253.969 14.0729 253.969 24.4062V54.802" fill="#333347"/>
<path d="M102.901 5.66663H50.1145V36.0625C50.1145 46.3958 58.6458 54.802 69.1353 54.802H121.927V24.4062C121.927 14.0729 113.391 5.66663 102.901 5.66663Z" fill="#333347"/>
<path d="M63.651 29.3594C58.8489 29.3594 54.9583 33.25 54.9583 38.0521C54.9583 42.8542 58.8489 46.7448 63.651 46.7448C68.4583 46.7448 72.3489 42.8542 72.3489 38.0521C72.3489 33.25 68.4583 29.3594 63.651 29.3594Z" fill="white"/>
<path d="M69.3229 39.4688H65.0729V43.7188H62.2344V39.4688H57.9844V36.6355H62.2344V32.3802H65.0729V36.6355H69.3229" fill="#1C1C1B"/>
<path d="M55.7864 26.5937V17.1979H58.2708V24.5156H61.828V26.5937" fill="white"/>
<path d="M62.9426 26.5937V17.1979H69.0155V19.276H65.4322V20.7552H68.4947V22.8385H65.4322V24.5156H69.1614V26.5937" fill="white"/>
<path d="M75.0885 26.5937V19.276H72.6041V17.1979H80.0677V19.276H77.5781V26.5937" fill="white"/>
<path d="M83.5521 21.4739H84.4479C85.4479 21.4739 85.9531 21.0625 85.9531 20.2343C85.9531 19.8281 85.8229 19.5468 85.5677 19.3958C85.3125 19.2395 84.9375 19.1614 84.4479 19.1614H83.5521V21.4739ZM81.0625 26.5989V17.1979H84.6198C85.125 17.1979 85.6042 17.2448 86.0625 17.3385C86.5208 17.4375 86.9167 17.5989 87.2604 17.8333C87.6042 18.0625 87.875 18.375 88.0781 18.7656C88.2813 19.1562 88.3802 19.6458 88.3802 20.2343C88.3802 20.9062 88.2448 21.4687 87.9688 21.9114C87.6979 22.3541 87.3281 22.6979 86.8646 22.9531L88.901 26.5989H86.125L84.5052 23.4427H83.5521V26.5989" fill="white"/>
<path d="M89.8698 26.5989H92.3593V17.1979H89.8698V26.5989Z" fill="white"/>
<path d="M75.3801 43.276V33.8698H81.5103V35.9531H77.8697V37.75H80.9895V39.8333H77.8697V43.276" fill="white"/>
<path d="M84.9218 38.7031L84.7604 39.3541H86.4948L86.3385 38.7031C86.2239 38.25 86.1041 37.7604 85.9895 37.2291C85.875 36.6979 85.7604 36.1979 85.6406 35.7239H85.5833C85.4791 36.2031 85.3698 36.7083 85.2604 37.2343C85.151 37.7604 85.0364 38.25 84.9218 38.7031ZM81.3073 43.276L84.1666 33.8698H87.1718L90.0364 43.276H87.4062L86.9427 41.276H84.3125L83.8489 43.276" fill="white"/>
<path d="M94.5624 43.4479C93.9687 43.4479 93.3958 43.3489 92.8541 43.151C92.3072 42.9531 91.8333 42.651 91.4218 42.2552C91.0103 41.8541 90.6822 41.3541 90.4426 40.75C90.203 40.1458 90.0833 39.4479 90.0833 38.6458C90.0833 37.8541 90.2083 37.151 90.4583 36.5416C90.7083 35.927 91.0416 35.4114 91.4635 34.9948C91.8801 34.5729 92.3645 34.25 92.9114 34.0312C93.4583 33.8073 94.026 33.6979 94.6249 33.6979C95.2499 33.6979 95.8124 33.8229 96.302 34.0677C96.7968 34.3125 97.2083 34.6041 97.5468 34.9427L96.2447 36.5312C96.0155 36.3333 95.776 36.1666 95.5312 36.0312C95.2812 35.9062 94.9999 35.8385 94.6822 35.8385C94.401 35.8385 94.1405 35.901 93.8958 36.026C93.651 36.151 93.4322 36.3333 93.2447 36.5625C93.0572 36.7916 92.9062 37.0781 92.7968 37.4166C92.6822 37.75 92.6301 38.1354 92.6301 38.5573C92.6301 39.4479 92.8124 40.125 93.1874 40.5989C93.5572 41.0677 94.0468 41.3073 94.651 41.3073C95.0208 41.3073 95.3437 41.2291 95.6301 41.0677C95.9114 40.9062 96.1562 40.7187 96.3593 40.4948L97.6614 42.0573C97.2551 42.5208 96.7916 42.8698 96.2655 43.0989C95.7395 43.3333 95.1718 43.4479 94.5624 43.4479Z" fill="white"/>
<path d="M98.6198 43.276H101.104V33.8698H98.6198V43.276Z" fill="white"/>
<path d="M102.875 43.276V33.8698H105.365V41.1927H108.922V43.276" fill="white"/>
<path d="M110.031 43.276V33.8698H116.109V35.9531H112.521V37.4323H115.589V39.5156H112.521V41.1927H116.255V43.276" fill="white"/>
<path d="M28.4062 25.7448C26.7135 28.2343 28.151 31.5104 29.8958 33.1718C31.4895 34.6823 32.7655 35.0364 32.9322 35.0781L33.7447 33.5208L36.0885 39.9323L29.4635 41.2812L30.3437 39.6458L29.4478 39.1458C26.6562 37.3281 26.0676 34.8593 25.8749 34.0885C25.5416 32.7604 25.0468 28.7864 28.4062 25.7448Z" fill="#333347"/>
<path d="M28.375 25.8489C29.5781 28.6093 33.1146 29.1406 35.4479 28.552C37.5208 28.026 38.5052 27.1718 38.6719 27.0156L38.6615 27L37.776 25.4635L44.4427 26.9218L42.0313 33.2395L41.1354 31.6458L40.2656 32.1198C37.2396 33.5104 34.8333 32.6927 34.0781 32.4427C32.7813 32.0156 29.1562 30.3125 28.375 25.8489Z" fill="#333347"/>
<path d="M40.1613 19.1927C39.6978 22.4895 37.7134 24.0729 37.0936 24.5729C36.0311 25.4375 32.6457 27.5677 28.4634 25.8177C31.4373 26.2916 33.7967 23.6041 34.5571 21.3177C35.2446 19.2656 35.0415 17.9687 34.9998 17.7708L34.979 17.7656L33.2134 17.6927L38.0259 12.8541L42.0519 18.2864L40.2342 18.1823" fill="#333347"/>
<path fill-rule="evenodd" clip-rule="evenodd" d="M19.9375 16.4115C18.4167 16.4115 17.1875 15.1823 17.1875 13.6563C17.1875 12.1354 18.4167 10.9062 19.9375 10.9062C21.4583 10.9062 22.6927 12.1354 22.6927 13.6563C22.6927 15.1823 21.4583 16.4115 19.9375 16.4115Z" fill="#333347"/>
<path d="M15.6771 29.7968C15.9115 29.151 16.2604 29.1927 16.2604 29.1927C16.2604 29.1927 16.5781 29.125 16.7552 29.7708L19.3281 38.8073C17.1823 38.1823 15.224 37.1198 13.5573 35.7083L15.6771 29.7968ZM23.7031 5.66663C13.7604 5.66663 5.67188 13.7552 5.67188 23.6979C5.67188 33.6406 13.7604 41.7291 23.7031 41.7291C24.2344 41.7291 24.7552 41.6979 25.276 41.651L25.3958 43.4635L28.6979 40.2708L25.0052 37.4531L25.1458 39.3541C24.6719 39.401 24.1875 39.4323 23.7031 39.4323C22.9375 39.4323 22.1875 39.375 21.4531 39.2656L21.3802 38.7864L19.6667 24.1875C19.4323 21.4323 21.0052 20.9948 21.9792 21.4062L27.4479 23.6041C28.0729 23.875 28.375 23.3489 28.375 23.3489C28.375 23.3489 28.7292 22.802 28.0938 22.3958C28.0938 22.3958 20.6406 17.4583 19.0521 17.1562C16.8854 16.7552 14.7396 18.5104 14.2656 20.7968L11.6198 33.7604C9.34375 31.0312 7.96875 27.5208 7.96875 23.6979C7.96875 15.0208 15.026 7.9635 23.7031 7.9635C28.3385 7.9635 32.5104 9.97913 35.3906 13.177L37.0052 11.5364C33.7083 7.93225 28.9635 5.66663 23.7031 5.66663Z" fill="#333347"/>
<path d="M129.636 18.432H132.204L133.428 24.48H133.452L134.688 18.432H137.244V27H135.66V20.16H135.636L134.112 27H132.768L131.244 20.16H131.22V27H129.636V18.432ZM140.031 22.716C140.031 23.292 140.043 23.784 140.067 24.192C140.099 24.592 140.155 24.92 140.235 25.176C140.323 25.424 140.443 25.608 140.595 25.728C140.755 25.84 140.963 25.896 141.219 25.896C141.475 25.896 141.679 25.84 141.831 25.728C141.991 25.608 142.111 25.424 142.191 25.176C142.279 24.92 142.335 24.592 142.359 24.192C142.391 23.784 142.407 23.292 142.407 22.716C142.407 22.14 142.391 21.652 142.359 21.252C142.335 20.852 142.279 20.524 142.191 20.268C142.111 20.012 141.991 19.828 141.831 19.716C141.679 19.596 141.475 19.536 141.219 19.536C140.963 19.536 140.755 19.596 140.595 19.716C140.443 19.828 140.323 20.012 140.235 20.268C140.155 20.524 140.099 20.852 140.067 21.252C140.043 21.652 140.031 22.14 140.031 22.716ZM138.303 22.716C138.303 22.068 138.331 21.472 138.387 20.928C138.451 20.376 138.583 19.904 138.783 19.512C138.991 19.12 139.287 18.816 139.671 18.6C140.055 18.376 140.571 18.264 141.219 18.264C141.867 18.264 142.383 18.376 142.767 18.6C143.151 18.816 143.443 19.12 143.643 19.512C143.851 19.904 143.983 20.376 144.039 20.928C144.103 21.472 144.135 22.068 144.135 22.716C144.135 23.372 144.103 23.972 144.039 24.516C143.983 25.06 143.851 25.528 143.643 25.92C143.443 26.312 143.151 26.612 142.767 26.82C142.383 27.028 141.867 27.132 141.219 27.132C140.571 27.132 140.055 27.028 139.671 26.82C139.287 26.612 138.991 26.312 138.783 25.92C138.583 25.528 138.451 25.06 138.387 24.516C138.331 23.972 138.303 23.372 138.303 22.716ZM146.771 18.432V24.408C146.771 24.624 146.783 24.824 146.807 25.008C146.839 25.184 146.891 25.34 146.963 25.476C147.043 25.604 147.147 25.708 147.275 25.788C147.411 25.86 147.579 25.896 147.779 25.896C147.987 25.896 148.155 25.86 148.283 25.788C148.411 25.708 148.511 25.604 148.583 25.476C148.663 25.34 148.715 25.184 148.739 25.008C148.771 24.824 148.787 24.624 148.787 24.408V18.432H150.515V24.408C150.515 24.952 150.439 25.404 150.287 25.764C150.135 26.116 149.931 26.396 149.675 26.604C149.419 26.812 149.127 26.952 148.799 27.024C148.471 27.096 148.131 27.132 147.779 27.132C147.427 27.132 147.087 27.1 146.759 27.036C146.431 26.972 146.139 26.844 145.883 26.652C145.627 26.452 145.423 26.172 145.271 25.812C145.119 25.452 145.043 24.984 145.043 24.408V18.432H146.771ZM155.268 21.324C155.268 20.7 155.192 20.248 155.04 19.968C154.896 19.68 154.628 19.536 154.236 19.536C154.02 19.536 153.84 19.596 153.696 19.716C153.56 19.828 153.452 20.016 153.372 20.28C153.292 20.536 153.236 20.876 153.204 21.3C153.172 21.716 153.156 22.228 153.156 22.836C153.156 23.484 153.176 24.008 153.216 24.408C153.264 24.808 153.332 25.12 153.42 25.344C153.516 25.56 153.632 25.708 153.768 25.788C153.912 25.86 154.076 25.896 154.26 25.896C154.412 25.896 154.552 25.872 154.68 25.824C154.816 25.768 154.932 25.664 155.028 25.512C155.124 25.352 155.2 25.132 155.256 24.852C155.312 24.564 155.34 24.188 155.34 23.724H157.068C157.068 24.188 157.032 24.628 156.96 25.044C156.888 25.46 156.752 25.824 156.552 26.136C156.36 26.448 156.084 26.692 155.724 26.868C155.372 27.044 154.912 27.132 154.344 27.132C153.696 27.132 153.18 27.028 152.796 26.82C152.412 26.612 152.116 26.312 151.908 25.92C151.708 25.528 151.576 25.06 151.512 24.516C151.456 23.972 151.428 23.372 151.428 22.716C151.428 22.068 151.456 21.472 151.512 20.928C151.576 20.376 151.708 19.904 151.908 19.512C152.116 19.12 152.412 18.816 152.796 18.6C153.18 18.376 153.696 18.264 154.344 18.264C154.96 18.264 155.444 18.364 155.796 18.564C156.156 18.764 156.424 19.02 156.6 19.332C156.776 19.636 156.884 19.968 156.924 20.328C156.972 20.68 156.996 21.012 156.996 21.324H155.268ZM158.053 18.432H159.781V21.708H161.797V18.432H163.525V27H161.797V23.196H159.781V27H158.053V18.432ZM166.269 22.716C166.269 23.292 166.281 23.784 166.305 24.192C166.337 24.592 166.393 24.92 166.473 25.176C166.561 25.424 166.681 25.608 166.833 25.728C166.993 25.84 167.201 25.896 167.457 25.896C167.713 25.896 167.917 25.84 168.069 25.728C168.229 25.608 168.349 25.424 168.429 25.176C168.517 24.92 168.573 24.592 168.597 24.192C168.629 23.784 168.645 23.292 168.645 22.716C168.645 22.14 168.629 21.652 168.597 21.252C168.573 20.852 168.517 20.524 168.429 20.268C168.349 20.012 168.229 19.828 168.069 19.716C167.917 19.596 167.713 19.536 167.457 19.536C167.201 19.536 166.993 19.596 166.833 19.716C166.681 19.828 166.561 20.012 166.473 20.268C166.393 20.524 166.337 20.852 166.305 21.252C166.281 21.652 166.269 22.14 166.269 22.716ZM164.541 22.716C164.541 22.068 164.569 21.472 164.625 20.928C164.689 20.376 164.821 19.904 165.021 19.512C165.229 19.12 165.525 18.816 165.909 18.6C166.293 18.376 166.809 18.264 167.457 18.264C168.105 18.264 168.621 18.376 169.005 18.6C169.389 18.816 169.681 19.12 169.881 19.512C170.089 19.904 170.221 20.376 170.277 20.928C170.341 21.472 170.373 22.068 170.373 22.716C170.373 23.372 170.341 23.972 170.277 24.516C170.221 25.06 170.089 25.528 169.881 25.92C169.681 26.312 169.389 26.612 169.005 26.82C168.621 27.028 168.105 27.132 167.457 27.132C166.809 27.132 166.293 27.028 165.909 26.82C165.525 26.612 165.229 26.312 165.021 25.92C164.821 25.528 164.689 25.06 164.625 24.516C164.569 23.972 164.541 23.372 164.541 22.716ZM171.473 27V18.432H173.201V27H171.473ZM174.483 18.432H177.675C178.395 18.432 178.955 18.616 179.355 18.984C179.755 19.344 179.955 19.896 179.955 20.64C179.955 21.216 179.839 21.688 179.607 22.056C179.375 22.416 179.015 22.648 178.527 22.752V22.776C178.959 22.84 179.275 22.98 179.475 23.196C179.675 23.412 179.799 23.76 179.847 24.24C179.863 24.4 179.875 24.576 179.883 24.768C179.891 24.952 179.899 25.16 179.907 25.392C179.923 25.848 179.947 26.196 179.979 26.436C180.027 26.676 180.131 26.84 180.291 26.928V27H178.419C178.331 26.88 178.275 26.744 178.251 26.592C178.227 26.432 178.211 26.268 178.203 26.1L178.155 24.456C178.139 24.12 178.055 23.856 177.903 23.664C177.751 23.472 177.495 23.376 177.135 23.376H176.211V27H174.483V18.432ZM176.211 22.176H176.931C177.347 22.176 177.667 22.08 177.891 21.888C178.115 21.688 178.227 21.356 178.227 20.892C178.227 20.1 177.827 19.704 177.027 19.704H176.211V22.176ZM134.388 33.432V34.848H131.328V36.864H134.208V38.28H131.328V40.584H134.508V42H129.6V33.432H134.388ZM137.369 33.432L139.457 39.3H139.481V33.432H141.065V42H139.097L136.985 36H136.961V42H135.377V33.432H137.369ZM146.879 37.308H147.647C147.991 37.308 148.267 37.204 148.475 36.996C148.691 36.788 148.799 36.464 148.799 36.024C148.799 35.592 148.707 35.264 148.523 35.04C148.339 34.816 148.031 34.704 147.599 34.704H146.879V37.308ZM145.151 33.432H148.175C148.615 33.432 148.983 33.508 149.279 33.66C149.583 33.804 149.827 33.996 150.011 34.236C150.195 34.476 150.327 34.752 150.407 35.064C150.487 35.368 150.527 35.68 150.527 36C150.527 36.44 150.459 36.824 150.323 37.152C150.195 37.48 150.011 37.748 149.771 37.956C149.539 38.164 149.255 38.32 148.919 38.424C148.583 38.528 148.211 38.58 147.803 38.58H146.879V42H145.151V33.432ZM154.504 38.772L153.676 34.92H153.652L152.824 38.772H154.504ZM154.732 33.432L157 42H155.2L154.804 40.188H152.524L152.128 42H150.328L152.596 33.432H154.732ZM159.324 37.308H160.092C160.436 37.308 160.712 37.204 160.92 36.996C161.136 36.788 161.244 36.464 161.244 36.024C161.244 35.592 161.152 35.264 160.968 35.04C160.784 34.816 160.476 34.704 160.044 34.704H159.324V37.308ZM157.596 33.432H160.62C161.06 33.432 161.428 33.508 161.724 33.66C162.028 33.804 162.272 33.996 162.456 34.236C162.64 34.476 162.772 34.752 162.852 35.064C162.932 35.368 162.972 35.68 162.972 36C162.972 36.44 162.904 36.824 162.768 37.152C162.64 37.48 162.456 37.748 162.216 37.956C161.984 38.164 161.7 38.32 161.364 38.424C161.028 38.528 160.656 38.58 160.248 38.58H159.324V42H157.596V33.432ZM163.903 42V33.432H165.631V42H163.903ZM171.701 33.432V34.848H168.641V36.864H171.521V38.28H168.641V40.584H171.821V42H166.913V33.432H171.701ZM172.69 33.432H175.882C176.602 33.432 177.162 33.616 177.562 33.984C177.962 34.344 178.162 34.896 178.162 35.64C178.162 36.216 178.046 36.688 177.814 37.056C177.582 37.416 177.222 37.648 176.734 37.752V37.776C177.166 37.84 177.482 37.98 177.682 38.196C177.882 38.412 178.006 38.76 178.054 39.24C178.07 39.4 178.082 39.576 178.09 39.768C178.098 39.952 178.106 40.16 178.114 40.392C178.13 40.848 178.154 41.196 178.186 41.436C178.234 41.676 178.338 41.84 178.498 41.928V42H176.626C176.538 41.88 176.482 41.744 176.458 41.592C176.434 41.432 176.418 41.268 176.41 41.1L176.362 39.456C176.346 39.12 176.262 38.856 176.11 38.664C175.958 38.472 175.702 38.376 175.342 38.376H174.418V42H172.69V33.432ZM174.418 37.176H175.138C175.554 37.176 175.874 37.08 176.098 36.888C176.322 36.688 176.434 36.356 176.434 35.892C176.434 35.1 176.034 34.704 175.234 34.704H174.418V37.176Z" fill="black"/>
<path fill-rule="evenodd" clip-rule="evenodd" d="M226.197 12.9917C225.489 12.7271 224.997 12.6406 224.67 12.6452C224.338 12.6499 224.233 12.7457 224.211 12.7697C224.191 12.7911 224.158 12.8426 224.156 12.9856C224.155 13.0935 224.173 13.2211 224.209 13.3514L228.625 17.6963H231.528C232.034 17.0728 233.172 15.8497 235.078 14.1794C235.602 13.7203 235.792 13.4037 235.848 13.2371C235.879 13.1441 235.868 13.1284 235.843 13.0951L235.839 13.0896C235.774 13.001 235.62 12.8791 235.352 12.7673C235.11 12.6663 234.831 12.5973 234.575 12.5601C234.389 12.5649 234.251 12.6081 234.006 12.6965L233.957 12.7142C233.87 12.7457 233.807 12.7781 233.743 12.811C233.611 12.8791 233.474 12.9492 233.116 13.0172C232.548 13.1251 232.141 13.1334 231.683 13.0237C231.386 12.9524 231.057 12.826 230.66 12.6733L230.66 12.6732L230.66 12.6732C230.522 12.6199 230.375 12.5634 230.218 12.505L230.215 12.5046C230.205 12.5034 230.171 12.4992 230.103 12.5017C230.005 12.5053 229.878 12.5207 229.721 12.5484C229.412 12.603 229.047 12.694 228.66 12.7904L228.637 12.7962C228.255 12.8913 227.848 12.9925 227.508 13.0468C227.338 13.0739 227.162 13.0935 226.999 13.0896C226.986 13.0893 226.969 13.0891 226.947 13.0889H226.947C226.777 13.0872 226.364 13.0832 226.197 12.9917ZM228.237 11.3164C227.706 11.4374 226.732 11.5442 226.732 11.5442C226.164 11.5236 225.749 11.4099 225.402 11.3145C225.125 11.2386 224.891 11.1743 224.654 11.1777C224.117 11.1852 223.651 11.3462 223.316 11.7135C222.98 12.0836 222.873 12.5579 222.868 12.9653C222.863 13.3667 222.954 13.7551 223.067 14.0649L223.126 14.2248L227.043 18.0789C225.564 18.4041 223.986 19.063 222.531 20.2082C219.761 22.3897 217.542 26.2534 217.227 32.6479C217.207 33.0641 217.184 33.4866 217.161 33.912C217.068 35.6616 216.972 37.462 217.008 39.0902C217.052 41.0844 217.292 43.0034 218.107 44.3151C219.572 46.6711 221.968 47.8112 224.268 48.348C226.56 48.883 228.85 48.8422 230.268 48.7579C231.563 48.7331 233.698 48.6558 235.887 48.1961C238.067 47.7382 240.413 46.8786 242.016 45.2058C243.305 43.8598 243.744 41.8774 243.878 39.7527C243.983 38.0805 243.904 36.1896 243.823 34.2644L243.823 34.2638C243.8 33.7301 243.778 33.1937 243.759 32.6587C243.548 26.6489 241.338 22.879 238.569 20.6473C236.772 19.1991 234.772 18.4248 233.001 18.0891C233.574 17.4656 234.506 16.5318 235.863 15.3427C236.456 14.8235 236.868 14.3043 237.051 13.7626C237.256 13.1522 237.144 12.5834 236.83 12.152C236.553 11.7717 236.15 11.5369 235.794 11.3889C235.425 11.2351 235.029 11.1428 234.687 11.097L234.649 11.092H234.611C234.197 11.092 233.898 11.1959 233.617 11.2976L233.57 11.3145C233.314 11.4071 233.037 11.5078 232.597 11.5912C232.212 11.6645 232.189 11.6582 232.042 11.6184L232.042 11.6184C232.013 11.6105 231.98 11.6013 231.937 11.5912C231.72 11.539 231.496 11.4529 231.141 11.3164C231.127 11.311 231.103 11.2985 231.069 11.2814C230.905 11.1967 230.523 11 230.086 11C229.442 11 228.825 11.163 228.453 11.2614L228.453 11.2614L228.453 11.2615L228.453 11.2615C228.367 11.2841 228.295 11.3034 228.237 11.3164ZM223.478 21.4108C221.129 23.2603 219.054 26.6676 218.756 32.7231C218.735 33.1559 218.712 33.5897 218.689 34.0222C218.596 35.7668 218.504 37.492 218.538 39.0565C218.582 41.0386 218.83 42.5793 219.407 43.5068C220.575 45.3858 222.528 46.37 224.616 46.8573C226.702 47.3443 228.827 47.3108 230.192 47.2289L230.207 47.228L230.223 47.2277C231.495 47.2037 233.521 47.1289 235.572 46.6981C237.641 46.2636 239.624 45.489 240.91 44.1468C241.806 43.2119 242.221 41.7042 242.35 39.6564C242.45 38.0726 242.375 36.2919 242.295 34.3813C242.272 33.835 242.249 33.2782 242.229 32.7124C242.032 27.0884 239.989 23.7575 237.609 21.8391C235.802 20.3832 233.757 19.7053 232.07 19.4905C233.467 20.9563 235.051 22.4306 235.916 22.9628L235.114 24.2664C234.751 23.9038 234.206 23.4291 233.577 22.8815L233.577 22.8815C232.672 22.0929 231.593 21.1533 230.636 20.1804C230.589 20.8038 230.548 21.5006 230.531 22.1621C230.516 22.7319 230.52 23.2613 230.55 23.6891C230.565 23.9031 230.586 24.0802 230.611 24.218C230.624 24.2864 230.636 24.3394 230.648 24.3787C230.659 24.4162 230.666 24.4328 230.667 24.4343L230.777 25.0318L229.298 25.119C229.12 24.7626 229.055 24.2519 229.023 23.7962C228.988 23.2997 228.985 22.7161 229.001 22.123C229.013 21.6509 229.036 21.1638 229.066 20.6965C227.822 21.8971 226.513 22.9378 225.548 23.7056L225.547 23.7058L225.547 23.7061C225.412 23.8133 225.284 23.9151 225.164 24.0113L224.362 22.7076C225.212 22.115 226.785 20.8255 228.179 19.4313C226.695 19.6286 225.007 20.2073 223.478 21.4108Z" fill="white"/>
</svg>
