<svg width="227" height="73" viewBox="0 0 227 73" fill="none" xmlns="http://www.w3.org/2000/svg">
<g clip-path="url(#clip0_24_7149)">
<path d="M24.8542 72.1249C11.2344 72.1249 0.15625 61.177 0.15625 47.7187V0.317627H201.323C214.938 0.317627 226.016 11.2655 226.016 24.7239L226.021 72.1249" fill="white"/>
<path d="M24.8542 60.7916C11.2344 60.7916 0.15625 49.8385 0.15625 36.3801V0.317627H201.323C214.938 0.317627 226.016 11.2655 226.016 24.7239L226.021 60.7916" fill="white"/>
<path d="M201.323 5.98438H50.2708V36.3802C50.2708 46.7135 58.802 55.1198 69.2916 55.1198H220.349V24.724C220.349 14.3958 211.812 5.98438 201.323 5.98438Z" fill="white"/>
<path d="M218.458 53.2292H69.2916C59.8437 53.2292 52.1562 45.6719 52.1562 36.3802V7.875H201.323C210.771 7.875 218.458 15.4323 218.458 24.724V53.2292ZM201.323 5.98438H50.2708V36.3802C50.2708 46.7135 58.802 55.1198 69.2916 55.1198H220.349V24.724C220.349 14.3958 211.812 5.98438 201.323 5.98438Z" fill="#FCC42F"/>
<path d="M163.089 55.1198L176.099 28.5417L162.807 5.98438H201.323C211.812 5.98438 220.349 14.3906 220.349 24.724V55.1198" fill="#FCC42F"/>
<path d="M201.323 7.875H166.115L178.245 28.4583L166.12 53.2292H218.458V24.724C218.458 15.4323 210.771 7.875 201.323 7.875Z" fill="#FCC42F"/>
<path d="M206.281 41.6615H205.078C204.979 41.6615 204.885 41.6719 204.792 41.6875C205.354 35.4323 206.224 25.7708 206.646 21.3958C206.687 20.9531 206.359 20.5573 205.917 20.5156C205.464 20.4635 205.073 20.7969 205.031 21.2448C204.385 27.9635 202.677 47.1458 202.661 47.3385C202.63 47.6615 202.312 47.9271 201.943 47.9271H188.854C188.479 47.9271 188.167 47.6615 188.135 47.3385C188.12 47.1458 186.411 27.9635 185.766 21.2448C185.724 20.7969 185.333 20.4635 184.88 20.5156C184.437 20.5573 184.109 20.9531 184.151 21.3958C184.573 25.7708 185.443 35.4271 186.005 41.6875C185.911 41.6667 185.812 41.6562 185.719 41.6562H184.516C183.74 41.6562 183.104 42.2917 183.104 43.0677V48.1406C183.104 48.9167 183.74 49.5469 184.516 49.5469H185.719C186.297 49.5469 186.802 49.1927 187.016 48.6823C187.443 49.2135 188.104 49.5469 188.854 49.5469H201.943C202.687 49.5469 203.349 49.2135 203.781 48.6875C203.995 49.1927 204.495 49.5521 205.078 49.5521H206.281C207.057 49.5521 207.687 48.9219 207.687 48.1406V43.0677C207.687 42.2917 207.057 41.6615 206.281 41.6615Z" fill="#1C1C1B"/>
<path d="M190.344 25.1198V27.4115H191.016C191.411 27.4115 191.625 27.2292 191.625 26.6771V26.026C191.625 25.3333 191.401 25.1198 190.865 25.1198H190.344ZM190.344 22.0833V24.0521H190.802C191.24 24.0521 191.505 23.8646 191.505 23.2656V22.849C191.505 22.3125 191.323 22.0833 190.906 22.0833H190.344ZM192.677 22.7344V23C192.677 23.7656 192.443 24.2448 191.922 24.4896V24.5104C192.547 24.7604 192.797 25.3125 192.797 26.099V26.7083C192.797 27.8594 192.187 28.4792 191.016 28.4792H189.172V21.0156H190.938C192.156 21.0156 192.677 21.5833 192.677 22.7344Z" fill="#1C1C1B"/>
<path d="M194.833 26.1146H195.964L195.411 22.3385H195.385L194.833 26.1146ZM197.51 28.4792H196.328L196.125 27.125H194.688L194.479 28.4792H193.406L194.599 21.0156H196.313" fill="#1C1C1B"/>
<path d="M201.661 25.6926V26.6874C201.661 27.8801 201.062 28.5624 199.911 28.5624C198.76 28.5624 198.161 27.8801 198.161 26.6874V22.8072C198.161 21.6093 198.76 20.927 199.911 20.927C201.062 20.927 201.661 21.6093 201.661 22.8072V23.5312H200.552V22.7291C200.552 22.1978 200.318 21.9947 199.943 21.9947C199.573 21.9947 199.338 22.1978 199.338 22.7291V26.7603C199.338 27.2916 199.573 27.4843 199.943 27.4843C200.318 27.4843 200.552 27.2916 200.552 26.7603V25.6926" fill="#1C1C1B"/>
<path d="M192.703 31.2083V36.5365H193.365C193.734 36.5365 193.958 36.3438 193.958 35.8125V31.9323C193.958 31.401 193.734 31.2083 193.365 31.2083H192.703ZM191.531 30.1406H193.385C194.557 30.1406 195.13 30.7917 195.13 31.9844V35.7604C195.13 36.9531 194.557 37.6042 193.385 37.6042H191.531" fill="#1C1C1B"/>
<path d="M197.266 33.2865H198.875V34.349H197.266V36.5365H199.292V37.6042H196.094V30.1406H199.292V31.2031H197.266" fill="#1C1C1B"/>
<path d="M190.161 39.2656H193.786V40.3281H192.562V46.7292H191.385V40.3281H190.161" fill="#1C1C1B"/>
<path d="M195.688 40.3281V42.625H196.146C196.583 42.625 196.849 42.4323 196.849 41.8333V41.099C196.849 40.5677 196.667 40.3281 196.25 40.3281H195.688ZM196.969 46.7292C196.901 46.5365 196.859 46.4167 196.859 45.8125V44.6354C196.859 43.9479 196.625 43.6875 196.094 43.6875H195.688V46.7292H194.516V39.2656H196.286C197.5 39.2656 198.021 39.8281 198.021 40.9792V41.5677C198.021 42.3333 197.776 42.8229 197.255 43.0729V43.0938C197.839 43.3385 198.031 43.8906 198.031 44.6719V45.8229C198.031 46.1823 198.042 46.4531 198.161 46.7292" fill="#1C1C1B"/>
<path d="M199.016 46.7292H200.188V39.2656H199.016V46.7292Z" fill="#1C1C1B"/>
<path d="M207.125 17.6197H183.672V15.6666C183.672 15.5989 183.703 15.5676 183.698 15.5676H185.396C185.589 15.5676 185.771 15.4999 185.917 15.3697L188.047 13.5103C188.141 13.427 188.37 13.3437 188.661 13.3437H202.13C202.422 13.3437 202.656 13.427 202.75 13.5103L204.88 15.3697C205.026 15.4999 205.208 15.5676 205.401 15.5676H207.099C207.089 15.5676 207.125 15.5989 207.125 15.6666V17.6197ZM207.099 13.9791H205.698L203.792 12.3176C203.385 11.9583 202.781 11.7551 202.13 11.7551H188.661C188.016 11.7551 187.411 11.9583 187 12.3176L185.094 13.9791H183.698C182.807 13.9791 182.089 14.7395 182.089 15.6666V17.8124C182.089 18.1093 182.161 18.401 182.307 18.6614C182.37 18.7708 182.458 18.8697 182.562 18.9374C182.823 19.1093 183.12 19.1978 183.427 19.1978H207.37C207.677 19.1978 207.974 19.1093 208.234 18.9374C208.339 18.8697 208.427 18.7708 208.49 18.6614C208.63 18.401 208.708 18.1093 208.708 17.8124V15.6666C208.708 14.7395 207.984 13.9791 207.099 13.9791Z" fill="#1C1C1B"/>
<path d="M202.125 14.0781H188.667C188.297 14.0781 187.995 14.3802 187.995 14.75C187.995 15.1198 188.297 15.4219 188.667 15.4219H202.125C202.495 15.4219 202.797 15.1198 202.797 14.75C202.797 14.3802 202.495 14.0781 202.125 14.0781Z" fill="#1C1C1B"/>
<path d="M103.057 5.98438H50.2708V36.3802C50.2708 46.7135 58.802 55.1198 69.2916 55.1198H122.083V24.724C122.083 14.3958 113.547 5.98438 103.057 5.98438Z" fill="#FCC42F"/>
<path d="M63.8072 29.677C59.0051 29.677 55.1145 33.5676 55.1145 38.3697C55.1145 43.1718 59.0051 47.0624 63.8072 47.0624C68.6145 47.0624 72.5051 43.1718 72.5051 38.3697C72.5051 33.5676 68.6145 29.677 63.8072 29.677Z" fill="white"/>
<path d="M69.4792 39.7865H65.2292V44.0417H62.3906V39.7865H58.1406V36.9531H62.3906V32.7031H65.2292V36.9531H69.4792" fill="#1C1C1B"/>
<path d="M55.9426 26.9167V17.5156H58.427V24.8333H61.9843V26.9167" fill="#1C1C1B"/>
<path d="M63.0989 26.9167V17.5156H69.1718V19.599H65.5885V21.0729H68.651V23.1563H65.5885V24.8333H69.3176V26.9167" fill="#1C1C1B"/>
<path d="M75.2448 26.9167V19.599H72.7604V17.5156H80.2239V19.599H77.7343V26.9167" fill="#1C1C1B"/>
<path d="M83.7083 21.7969H84.6042C85.6042 21.7969 86.1094 21.3802 86.1094 20.5521C86.1094 20.1458 85.9792 19.8698 85.724 19.7135C85.4688 19.5573 85.0938 19.4792 84.6042 19.4792H83.7083V21.7969ZM81.2188 26.9167V17.5156H84.776C85.2813 17.5156 85.7604 17.5625 86.2188 17.6563C86.6771 17.7552 87.0729 17.9219 87.4167 18.151C87.7604 18.3802 88.0313 18.6927 88.2344 19.0833C88.4375 19.474 88.5365 19.9635 88.5365 20.5521C88.5365 21.2292 88.401 21.7865 88.125 22.2292C87.8542 22.6719 87.4844 23.0208 87.0208 23.2708L89.0573 26.9167H86.2813L84.6615 23.7604H83.7083V26.9167" fill="#1C1C1B"/>
<path d="M90.026 26.9167H92.5156V17.5156H90.026V26.9167Z" fill="#1C1C1B"/>
<path d="M75.5364 43.5937V34.1926H81.6666V36.276H78.026V38.0676H81.1458V40.151H78.026V43.5937" fill="#1C1C1B"/>
<path d="M85.0781 39.0208L84.9166 39.6718H86.651L86.4948 39.0208C86.3802 38.5676 86.2604 38.078 86.1458 37.5468C86.0312 37.0155 85.9166 36.5155 85.7968 36.0416H85.7395C85.6354 36.526 85.526 37.0312 85.4166 37.552C85.3073 38.078 85.1927 38.5676 85.0781 39.0208ZM81.4635 43.5937L84.3229 34.1926H87.3281L90.1927 43.5937H87.5625L87.0989 41.5989H84.4687L84.0052 43.5937" fill="#1C1C1B"/>
<path d="M94.7187 43.7656C94.1249 43.7656 93.552 43.6667 93.0103 43.4688C92.4635 43.2708 91.9895 42.974 91.578 42.5729C91.1666 42.1719 90.8385 41.6719 90.5989 41.0677C90.3593 40.4688 90.2395 39.7656 90.2395 38.9635C90.2395 38.1771 90.3645 37.474 90.6145 36.8594C90.8645 36.25 91.1978 35.7344 91.6197 35.3125C92.0364 34.8958 92.5208 34.5729 93.0676 34.349C93.6145 34.1302 94.1822 34.0156 94.7812 34.0156C95.4062 34.0156 95.9687 34.1406 96.4583 34.3854C96.953 34.6354 97.3645 34.9271 97.703 35.2604L96.401 36.8542C96.1718 36.651 95.9322 36.4844 95.6874 36.3542C95.4374 36.224 95.1562 36.1563 94.8385 36.1563C94.5572 36.1563 94.2968 36.2188 94.052 36.349C93.8072 36.474 93.5885 36.651 93.401 36.8802C93.2135 37.1146 93.0624 37.401 92.953 37.7344C92.8385 38.0729 92.7864 38.4531 92.7864 38.875C92.7864 39.7656 92.9687 40.4479 93.3437 40.9167C93.7135 41.3906 94.203 41.625 94.8072 41.625C95.177 41.625 95.4999 41.5469 95.7864 41.3854C96.0676 41.2292 96.3124 41.0365 96.5155 40.8177L97.8176 42.375C97.4114 42.8438 96.9478 43.1875 96.4218 43.4167C95.8958 43.651 95.328 43.7656 94.7187 43.7656Z" fill="#1C1C1B"/>
<path d="M98.776 43.5937H101.26V34.1926H98.776V43.5937Z" fill="#1C1C1B"/>
<path d="M103.031 43.5937V34.1926H105.521V41.5103H109.078V43.5937" fill="#1C1C1B"/>
<path d="M110.188 43.5937V34.1926H116.266V36.276H112.677V37.7499H115.745V39.8333H112.677V41.5103H116.411V43.5937" fill="#1C1C1B"/>
<path d="M28.5624 26.0625C26.8697 28.5521 28.3072 31.8281 30.052 33.4896C31.6458 35 32.9218 35.3594 33.0885 35.401L33.901 33.8438L36.2447 40.2552L29.6197 41.599L30.4999 39.9688L29.6041 39.4635C26.8124 37.6458 26.2239 35.1771 26.0312 34.4063C25.6978 33.0781 25.203 29.1094 28.5624 26.0625Z" fill="#1C1C1B"/>
<path d="M28.5312 26.1718C29.7344 28.927 33.2708 29.4635 35.6042 28.8697C37.6771 28.3437 38.6615 27.4895 38.8281 27.3333L38.8177 27.3176L37.9323 25.7864L44.599 27.2395L42.1875 33.5572L41.2917 31.9687L40.4219 32.4374C37.3958 33.828 34.9896 33.0103 34.2344 32.7603C32.9375 32.3333 29.3125 30.6353 28.5312 26.1718Z" fill="#1C1C1B"/>
<path d="M40.3177 19.5156C39.8541 22.8125 37.8698 24.3958 37.25 24.8958C36.1875 25.7552 32.802 27.8854 28.6198 26.1354C31.5937 26.6094 33.9531 23.9271 34.7135 21.6406C35.401 19.5885 35.1979 18.2917 35.1562 18.0885H35.1354L33.3698 18.0104L38.1823 13.1719L42.2083 18.6094L40.3906 18.5052" fill="#1C1C1B"/>
<path fill-rule="evenodd" clip-rule="evenodd" d="M20.0938 16.7291C18.5729 16.7291 17.3438 15.4999 17.3438 13.9791C17.3438 12.4583 18.5729 11.2239 20.0938 11.2239C21.6146 11.2239 22.849 12.4583 22.849 13.9791C22.849 15.4999 21.6146 16.7291 20.0938 16.7291Z" fill="#1C1C1B"/>
<path d="M15.8333 30.1146C16.0677 29.4688 16.4167 29.5104 16.4167 29.5104C16.4167 29.5104 16.7344 29.4427 16.9115 30.0938L19.4844 39.125C17.3385 38.5052 15.3802 37.4375 13.7135 36.0313L15.8333 30.1146ZM23.8594 5.98438C13.9167 5.98438 5.82812 14.0729 5.82812 24.0208C5.82812 33.9583 13.9167 42.0521 23.8594 42.0521C24.3906 42.0521 24.9115 42.0156 25.4323 41.9688L25.5521 43.7813L28.8542 40.5885L25.1615 37.776L25.3021 39.6771C24.8281 39.7188 24.3438 39.75 23.8594 39.75C23.0938 39.75 22.3438 39.6927 21.6094 39.5885L21.5365 39.1094L19.8229 24.5104C19.5885 21.7552 21.1615 21.3125 22.1354 21.7292L27.6042 23.9219C28.2292 24.1927 28.5313 23.6719 28.5313 23.6719C28.5313 23.6719 28.8854 23.1198 28.25 22.7135C28.25 22.7135 20.7969 17.776 19.2083 17.4792C17.0417 17.0729 14.8958 18.8281 14.4219 21.1146L11.776 34.0833C9.5 31.349 8.125 27.8438 8.125 24.0208C8.125 15.3438 15.1823 8.28646 23.8594 8.28646C28.4948 8.28646 32.6667 10.3021 35.5469 13.4948L37.1615 11.8594C33.8646 8.25 29.1198 5.98438 23.8594 5.98438Z" fill="#1C1C1B"/>
<path d="M136.998 41.364H137.334C137.542 41.364 137.71 41.318 137.838 41.226C137.966 41.134 138.03 40.964 138.03 40.716C138.03 40.592 138.012 40.49 137.976 40.41C137.944 40.326 137.898 40.26 137.838 40.212C137.782 40.16 137.714 40.124 137.634 40.104C137.554 40.084 137.466 40.074 137.37 40.074H136.998V41.364ZM136.998 39.474H137.244C137.484 39.474 137.658 39.432 137.766 39.348C137.878 39.26 137.934 39.114 137.934 38.91C137.934 38.706 137.884 38.562 137.784 38.478C137.684 38.394 137.526 38.352 137.31 38.352H136.998V39.474ZM136.134 37.716H137.58C137.756 37.716 137.918 37.734 138.066 37.77C138.218 37.806 138.348 37.866 138.456 37.95C138.564 38.034 138.648 38.146 138.708 38.286C138.768 38.426 138.798 38.598 138.798 38.802C138.798 39.034 138.744 39.234 138.636 39.402C138.528 39.566 138.366 39.678 138.15 39.738V39.75C138.39 39.782 138.58 39.884 138.72 40.056C138.86 40.228 138.93 40.458 138.93 40.746C138.93 40.914 138.908 41.074 138.864 41.226C138.82 41.378 138.744 41.512 138.636 41.628C138.532 41.74 138.394 41.83 138.222 41.898C138.054 41.966 137.844 42 137.592 42H136.134V37.716ZM140.242 39.858C140.242 40.146 140.248 40.392 140.26 40.596C140.276 40.796 140.304 40.96 140.344 41.088C140.388 41.212 140.448 41.304 140.524 41.364C140.604 41.42 140.708 41.448 140.836 41.448C140.964 41.448 141.066 41.42 141.142 41.364C141.222 41.304 141.282 41.212 141.322 41.088C141.366 40.96 141.394 40.796 141.406 40.596C141.422 40.392 141.43 40.146 141.43 39.858C141.43 39.57 141.422 39.326 141.406 39.126C141.394 38.926 141.366 38.762 141.322 38.634C141.282 38.506 141.222 38.414 141.142 38.358C141.066 38.298 140.964 38.268 140.836 38.268C140.708 38.268 140.604 38.298 140.524 38.358C140.448 38.414 140.388 38.506 140.344 38.634C140.304 38.762 140.276 38.926 140.26 39.126C140.248 39.326 140.242 39.57 140.242 39.858ZM139.378 39.858C139.378 39.534 139.392 39.236 139.42 38.964C139.452 38.688 139.518 38.452 139.618 38.256C139.722 38.06 139.87 37.908 140.062 37.8C140.254 37.688 140.512 37.632 140.836 37.632C141.16 37.632 141.418 37.688 141.61 37.8C141.802 37.908 141.948 38.06 142.048 38.256C142.152 38.452 142.218 38.688 142.246 38.964C142.278 39.236 142.294 39.534 142.294 39.858C142.294 40.186 142.278 40.486 142.246 40.758C142.218 41.03 142.152 41.264 142.048 41.46C141.948 41.656 141.802 41.806 141.61 41.91C141.418 42.014 141.16 42.066 140.836 42.066C140.512 42.066 140.254 42.014 140.062 41.91C139.87 41.806 139.722 41.656 139.618 41.46C139.518 41.264 139.452 41.03 139.42 40.758C139.392 40.486 139.378 40.186 139.378 39.858ZM142.82 37.716H144.104L144.716 40.74H144.728L145.346 37.716H146.624V42H145.832V38.58H145.82L145.058 42H144.386L143.624 38.58H143.612V42H142.82V37.716ZM148.107 41.364H148.443C148.651 41.364 148.819 41.318 148.947 41.226C149.075 41.134 149.139 40.964 149.139 40.716C149.139 40.592 149.121 40.49 149.085 40.41C149.053 40.326 149.007 40.26 148.947 40.212C148.891 40.16 148.823 40.124 148.743 40.104C148.663 40.084 148.575 40.074 148.479 40.074H148.107V41.364ZM148.107 39.474H148.353C148.593 39.474 148.767 39.432 148.875 39.348C148.987 39.26 149.043 39.114 149.043 38.91C149.043 38.706 148.993 38.562 148.893 38.478C148.793 38.394 148.635 38.352 148.419 38.352H148.107V39.474ZM147.243 37.716H148.689C148.865 37.716 149.027 37.734 149.175 37.77C149.327 37.806 149.457 37.866 149.565 37.95C149.673 38.034 149.757 38.146 149.817 38.286C149.877 38.426 149.907 38.598 149.907 38.802C149.907 39.034 149.853 39.234 149.745 39.402C149.637 39.566 149.475 39.678 149.259 39.738V39.75C149.499 39.782 149.689 39.884 149.829 40.056C149.969 40.228 150.039 40.458 150.039 40.746C150.039 40.914 150.017 41.074 149.973 41.226C149.929 41.378 149.853 41.512 149.745 41.628C149.641 41.74 149.503 41.83 149.331 41.898C149.163 41.966 148.953 42 148.701 42H147.243V37.716ZM152.971 37.716V38.424H151.441V39.432H152.881V40.14H151.441V41.292H153.031V42H150.577V37.716H152.971ZM135.531 47.386L135.117 45.46H135.105L134.691 47.386H135.531ZM135.645 44.716L136.779 49H135.879L135.681 48.094H134.541L134.343 49H133.443L134.577 44.716H135.645ZM138.229 43.6H139.057L138.469 44.464H137.905L138.229 43.6ZM139.471 44.716V45.424H137.941V46.432H139.381V47.14H137.941V48.292H139.531V49H137.077V44.716H139.471ZM139.966 44.716H141.562C141.922 44.716 142.202 44.808 142.402 44.992C142.602 45.172 142.702 45.448 142.702 45.82C142.702 46.108 142.644 46.344 142.528 46.528C142.412 46.708 142.232 46.824 141.988 46.876V46.888C142.204 46.92 142.362 46.99 142.462 47.098C142.562 47.206 142.624 47.38 142.648 47.62C142.656 47.7 142.662 47.788 142.666 47.884C142.67 47.976 142.674 48.08 142.678 48.196C142.686 48.424 142.698 48.598 142.714 48.718C142.738 48.838 142.79 48.92 142.87 48.964V49H141.934C141.89 48.94 141.862 48.872 141.85 48.796C141.838 48.716 141.83 48.634 141.826 48.55L141.802 47.728C141.794 47.56 141.752 47.428 141.676 47.332C141.6 47.236 141.472 47.188 141.292 47.188H140.83V49H139.966V44.716ZM140.83 46.588H141.19C141.398 46.588 141.558 46.54 141.67 46.444C141.782 46.344 141.838 46.178 141.838 45.946C141.838 45.55 141.638 45.352 141.238 45.352H140.83V46.588ZM144.074 46.858C144.074 47.146 144.08 47.392 144.092 47.596C144.108 47.796 144.136 47.96 144.176 48.088C144.22 48.212 144.28 48.304 144.356 48.364C144.436 48.42 144.54 48.448 144.668 48.448C144.796 48.448 144.898 48.42 144.974 48.364C145.054 48.304 145.114 48.212 145.154 48.088C145.198 47.96 145.226 47.796 145.238 47.596C145.254 47.392 145.262 47.146 145.262 46.858C145.262 46.57 145.254 46.326 145.238 46.126C145.226 45.926 145.198 45.762 145.154 45.634C145.114 45.506 145.054 45.414 144.974 45.358C144.898 45.298 144.796 45.268 144.668 45.268C144.54 45.268 144.436 45.298 144.356 45.358C144.28 45.414 144.22 45.506 144.176 45.634C144.136 45.762 144.108 45.926 144.092 46.126C144.08 46.326 144.074 46.57 144.074 46.858ZM143.21 46.858C143.21 46.534 143.224 46.236 143.252 45.964C143.284 45.688 143.35 45.452 143.45 45.256C143.554 45.06 143.702 44.908 143.894 44.8C144.086 44.688 144.344 44.632 144.668 44.632C144.992 44.632 145.25 44.688 145.442 44.8C145.634 44.908 145.78 45.06 145.88 45.256C145.984 45.452 146.05 45.688 146.078 45.964C146.11 46.236 146.126 46.534 146.126 46.858C146.126 47.186 146.11 47.486 146.078 47.758C146.05 48.03 145.984 48.264 145.88 48.46C145.78 48.656 145.634 48.806 145.442 48.91C145.25 49.014 144.992 49.066 144.668 49.066C144.344 49.066 144.086 49.014 143.894 48.91C143.702 48.806 143.554 48.656 143.45 48.46C143.35 48.264 143.284 48.03 143.252 47.758C143.224 47.486 143.21 47.186 143.21 46.858ZM147.33 47.662V47.788C147.33 47.888 147.338 47.98 147.354 48.064C147.37 48.144 147.4 48.212 147.444 48.268C147.488 48.324 147.546 48.368 147.618 48.4C147.694 48.432 147.788 48.448 147.9 48.448C148.032 48.448 148.15 48.406 148.254 48.322C148.362 48.234 148.416 48.1 148.416 47.92C148.416 47.824 148.402 47.742 148.374 47.674C148.35 47.602 148.308 47.538 148.248 47.482C148.188 47.426 148.108 47.376 148.008 47.332C147.912 47.284 147.792 47.236 147.648 47.188C147.456 47.124 147.29 47.054 147.15 46.978C147.01 46.902 146.892 46.814 146.796 46.714C146.704 46.61 146.636 46.492 146.592 46.36C146.548 46.224 146.526 46.068 146.526 45.892C146.526 45.468 146.644 45.152 146.88 44.944C147.116 44.736 147.44 44.632 147.852 44.632C148.044 44.632 148.22 44.654 148.38 44.698C148.544 44.738 148.684 44.806 148.8 44.902C148.92 44.994 149.012 45.114 149.076 45.262C149.144 45.406 149.178 45.58 149.178 45.784V45.904H148.35C148.35 45.7 148.314 45.544 148.242 45.436C148.17 45.324 148.05 45.268 147.882 45.268C147.786 45.268 147.706 45.282 147.642 45.31C147.578 45.338 147.526 45.376 147.486 45.424C147.45 45.468 147.424 45.52 147.408 45.58C147.396 45.64 147.39 45.702 147.39 45.766C147.39 45.898 147.418 46.01 147.474 46.102C147.53 46.19 147.65 46.272 147.834 46.348L148.5 46.636C148.664 46.708 148.798 46.784 148.902 46.864C149.006 46.94 149.088 47.024 149.148 47.116C149.212 47.204 149.256 47.302 149.28 47.41C149.304 47.518 149.316 47.638 149.316 47.77C149.316 48.222 149.184 48.552 148.92 48.76C148.66 48.964 148.296 49.066 147.828 49.066C147.34 49.066 146.99 48.96 146.778 48.748C146.57 48.536 146.466 48.232 146.466 47.836V47.662H147.33ZM150.519 46.858C150.519 47.146 150.525 47.392 150.537 47.596C150.553 47.796 150.581 47.96 150.621 48.088C150.665 48.212 150.725 48.304 150.801 48.364C150.881 48.42 150.985 48.448 151.113 48.448C151.241 48.448 151.343 48.42 151.419 48.364C151.499 48.304 151.559 48.212 151.599 48.088C151.643 47.96 151.671 47.796 151.683 47.596C151.699 47.392 151.707 47.146 151.707 46.858C151.707 46.57 151.699 46.326 151.683 46.126C151.671 45.926 151.643 45.762 151.599 45.634C151.559 45.506 151.499 45.414 151.419 45.358C151.343 45.298 151.241 45.268 151.113 45.268C150.985 45.268 150.881 45.298 150.801 45.358C150.725 45.414 150.665 45.506 150.621 45.634C150.581 45.762 150.553 45.926 150.537 46.126C150.525 46.326 150.519 46.57 150.519 46.858ZM149.655 46.858C149.655 46.534 149.669 46.236 149.697 45.964C149.729 45.688 149.795 45.452 149.895 45.256C149.999 45.06 150.147 44.908 150.339 44.8C150.531 44.688 150.789 44.632 151.113 44.632C151.437 44.632 151.695 44.688 151.887 44.8C152.079 44.908 152.225 45.06 152.325 45.256C152.429 45.452 152.495 45.688 152.523 45.964C152.555 46.236 152.571 46.534 152.571 46.858C152.571 47.186 152.555 47.486 152.523 47.758C152.495 48.03 152.429 48.264 152.325 48.46C152.225 48.656 152.079 48.806 151.887 48.91C151.695 49.014 151.437 49.066 151.113 49.066C150.789 49.066 150.531 49.014 150.339 48.91C150.147 48.806 149.999 48.656 149.895 48.46C149.795 48.264 149.729 48.03 149.697 47.758C149.669 47.486 149.655 47.186 149.655 46.858ZM153.079 49V44.716H153.943V48.292H155.473V49H153.079Z" fill="#1C1C1B"/>
<path d="M144.144 14.1927C144.144 14.1684 144.162 14.1511 144.186 14.1511H145.626C145.651 14.1511 145.668 14.1684 145.668 14.1927V15.0445H144.144V14.1927ZM143.878 15.5813H145.935C146.083 15.5813 146.205 15.4601 146.205 15.3112V14.1927C146.205 13.8741 145.945 13.6144 145.626 13.6144H144.186C143.867 13.6144 143.608 13.8741 143.608 14.1927V15.3112C143.608 15.4601 143.729 15.5813 143.878 15.5813Z" fill="#1C1C1B"/>
<path d="M142.416 33.7439C142.458 33.6815 142.482 33.6088 142.492 33.5326L145.997 33.5534H146C146.146 33.5534 146.267 33.4357 146.267 33.2868C146.27 33.1379 146.149 33.0167 146 33.0167L142.503 32.9959V17.517H147.451V33.4738C147.451 33.5742 147.482 33.6677 147.538 33.7439H142.416ZM142.503 12.4613C142.503 12.1739 142.738 11.9384 143.026 11.9384H143.597V14.8576C143.597 15.0065 143.718 15.1277 143.864 15.1277H146.111C146.26 15.1277 146.381 15.0065 146.381 14.8576V11.9384H146.928C147.216 11.9384 147.451 12.1739 147.451 12.4613V16.5752H142.503V12.4613ZM144.134 11.9384H145.841V14.591H144.134V11.9384ZM148.393 33.0755V17.0461C148.393 17.0461 148.39 17.0461 148.39 17.0426V12.4613C148.39 11.6545 147.735 11 146.928 11H143.026C142.219 11 141.561 11.6545 141.561 12.4613V17.0461C141.561 17.0461 141.561 17.0461 141.561 17.0496V33.0755C141.225 33.2071 141 33.498 141 33.8443C141 34.3152 141.422 34.6823 141.966 34.6823H147.988C148.528 34.6823 148.954 34.3152 148.954 33.8443C148.954 33.498 148.726 33.2071 148.393 33.0755Z" fill="#1C1C1B"/>
<path d="M143.192 21.7486C143.043 21.7486 142.922 21.8663 142.922 22.0152V29.2041C142.922 29.353 143.043 29.4707 143.192 29.4707C143.337 29.4707 143.459 29.353 143.459 29.2041V22.0152C143.459 21.8663 143.337 21.7486 143.192 21.7486Z" fill="#1C1C1B"/>
<path d="M144.975 13.3443C144.757 13.3443 144.584 13.5174 144.584 13.7356C144.584 13.9503 144.757 14.1269 144.975 14.1269C145.19 14.1269 145.367 13.9503 145.367 13.7356C145.367 13.5174 145.19 13.3443 144.975 13.3443Z" fill="#1C1C1B"/>
<path d="M126.82 66L128.34 58.86H130.86C131.86 58.86 132.56 59.36 132.28 60.7C132.08 61.62 131.52 62.33 130.71 62.45V62.47C131.41 62.54 131.69 62.93 131.52 63.93C131.43 64.39 131.32 64.95 131.25 65.38C131.2 65.73 131.33 65.9 131.46 66H130.17C130.09 65.87 130.08 65.65 130.11 65.37C130.17 64.94 130.26 64.54 130.35 64.02C130.5 63.24 130.33 62.9 129.55 62.9H128.62L127.96 66H126.82ZM128.8 62.04H129.71C130.44 62.04 130.95 61.6 131.1 60.88C131.26 60.12 131.01 59.72 130.26 59.72H129.29L128.8 62.04ZM136.402 63.45H133.592L133.532 63.76C133.372 64.48 133.272 65.4 134.082 65.4C134.852 65.4 135.122 64.52 135.192 64.2H136.212C135.962 65.39 135.082 66.14 133.912 66.14C133.032 66.14 132.002 65.88 132.522 63.39C132.822 61.98 133.442 60.48 135.132 60.48C136.632 60.48 136.842 61.38 136.522 62.88L136.402 63.45ZM133.752 62.71H135.482L135.542 62.42C135.692 61.74 135.582 61.22 134.972 61.22C134.282 61.22 133.922 61.9 133.772 62.6L133.752 62.71ZM137.24 61.42L137.41 60.62H138.15L138.48 59.09H139.56L139.23 60.62H140.11L139.94 61.42H139.06L138.38 64.63C138.29 65.05 138.38 65.2 138.75 65.2C138.91 65.2 139.04 65.19 139.15 65.17L138.98 65.97C138.73 66.03 138.43 66.06 138.09 66.06C137.36 66.06 137.04 65.86 137.27 64.76L137.98 61.42H137.24ZM139.584 66L140.724 60.62H141.804L140.664 66H139.584ZM140.894 59.86L141.114 58.78H142.194L141.974 59.86H140.894ZM141.75 66L142.89 60.62H143.97L143.79 61.46H143.81C144.18 60.86 144.66 60.48 145.27 60.48C145.39 60.48 145.46 60.5 145.52 60.52L145.29 61.62C145.22 61.6 145.03 61.56 144.85 61.56C144.36 61.56 143.73 61.78 143.51 62.78L142.83 66H141.75ZM149.126 63.45H146.316L146.256 63.76C146.096 64.48 145.996 65.4 146.806 65.4C147.576 65.4 147.846 64.52 147.916 64.2H148.936C148.686 65.39 147.806 66.14 146.636 66.14C145.756 66.14 144.726 65.88 145.246 63.39C145.546 61.98 146.166 60.48 147.856 60.48C149.356 60.48 149.566 61.38 149.246 62.88L149.126 63.45ZM146.476 62.71H148.206L148.266 62.42C148.416 61.74 148.306 61.22 147.696 61.22C147.006 61.22 146.646 61.9 146.496 62.6L146.476 62.71ZM149.475 66L150.615 60.62H151.695L151.515 61.46H151.535C151.905 60.86 152.385 60.48 152.995 60.48C153.115 60.48 153.185 60.5 153.245 60.52L153.015 61.62C152.945 61.6 152.755 61.56 152.575 61.56C152.085 61.56 151.455 61.78 151.235 62.78L150.555 66H149.475ZM155.082 66L156.602 58.86H157.682L156.162 66H155.082ZM161.529 63.45H158.719L158.659 63.76C158.499 64.48 158.399 65.4 159.209 65.4C159.979 65.4 160.249 64.52 160.319 64.2H161.339C161.089 65.39 160.209 66.14 159.039 66.14C158.159 66.14 157.129 65.88 157.649 63.39C157.949 61.98 158.569 60.48 160.259 60.48C161.759 60.48 161.969 61.38 161.649 62.88L161.529 63.45ZM158.879 62.71H160.609L160.669 62.42C160.819 61.74 160.709 61.22 160.099 61.22C159.409 61.22 159.049 61.9 158.899 62.6L158.879 62.71ZM164.28 66L165.8 58.86H166.88L166.37 61.25H166.39C166.69 60.77 167.19 60.48 167.77 60.48C168.59 60.48 169.35 60.85 168.85 63.24C168.45 65.09 167.73 66.14 166.47 66.14C165.7 66.14 165.53 65.69 165.46 65.34H165.44L165.3 66H164.28ZM165.86 63.37C165.61 64.52 165.62 65.28 166.36 65.28C167.11 65.28 167.44 64.51 167.7 63.29C168 61.84 167.89 61.34 167.27 61.34C166.44 61.34 166.13 62.08 165.86 63.37ZM169.454 63.31C169.814 61.64 170.494 60.48 172.054 60.48C173.624 60.48 173.824 61.64 173.464 63.31C173.114 64.98 172.354 66.14 170.854 66.14C169.364 66.14 169.104 64.98 169.454 63.31ZM170.534 63.31C170.244 64.68 170.244 65.34 171.024 65.34C171.814 65.34 172.094 64.68 172.384 63.31C172.634 62.12 172.674 61.28 171.884 61.28C171.104 61.28 170.784 62.12 170.534 63.31ZM176.473 66L176.603 65.37H176.573C176.203 65.85 175.633 66.14 175.033 66.14C174.233 66.14 173.773 65.77 174.063 64.38L174.863 60.62H175.943L175.123 64.48C175.003 65.08 175.223 65.28 175.683 65.28C176.143 65.28 176.633 64.98 176.753 64.38L177.553 60.62H178.633L177.493 66H176.473ZM181.568 64.04H182.588C182.238 65.33 181.628 66.14 180.298 66.14C178.738 66.14 178.548 64.98 178.898 63.31C179.258 61.64 179.938 60.48 181.498 60.48C183.118 60.46 183.088 61.74 182.938 62.41H181.858C181.968 61.91 181.968 61.26 181.328 61.28C180.548 61.28 180.228 62.12 179.978 63.31C179.728 64.5 179.688 65.34 180.468 65.34C181.068 65.35 181.388 64.85 181.568 64.04ZM182.922 66L184.442 58.86H185.522L185.022 61.2L185.052 61.22C185.442 60.76 185.972 60.48 186.522 60.48C187.342 60.48 187.782 60.85 187.552 61.94L186.692 66H185.612L186.392 62.31C186.542 61.61 186.392 61.34 185.852 61.34C185.412 61.34 184.922 61.69 184.772 62.39L184.002 66H182.922ZM188.097 63.31C188.457 61.64 189.137 60.48 190.697 60.48C192.267 60.48 192.467 61.64 192.107 63.31C191.757 64.98 190.997 66.14 189.497 66.14C188.007 66.14 187.747 64.98 188.097 63.31ZM189.177 63.31C188.887 64.68 188.887 65.34 189.667 65.34C190.457 65.34 190.737 64.68 191.027 63.31C191.277 62.12 191.317 61.28 190.527 61.28C189.747 61.28 189.427 62.12 189.177 63.31ZM192.366 66L193.506 60.62H194.526L194.396 61.25H194.426C194.796 60.77 195.366 60.48 195.966 60.48C196.786 60.48 197.226 60.85 196.996 61.94L196.136 66H195.056L195.836 62.31C195.986 61.61 195.836 61.34 195.296 61.34C194.856 61.34 194.366 61.69 194.216 62.39L193.446 66H192.366ZM204.003 61.8L203.353 64.88C203.313 65.08 203.393 65.26 203.553 65.26C203.623 65.26 203.693 65.25 203.733 65.23L203.583 65.93C203.443 65.99 203.243 66.06 203.033 66.06C202.553 66.06 202.193 65.87 202.273 65.35H202.253C201.853 65.88 201.373 66.14 200.743 66.14C199.883 66.14 199.443 65.66 199.663 64.63C199.923 63.43 200.493 63.18 201.273 62.94L202.163 62.71C202.573 62.6 202.843 62.49 202.943 62.02C203.043 61.53 202.943 61.22 202.373 61.22C201.653 61.22 201.443 61.73 201.333 62.25H200.312C200.553 61.11 201.153 60.48 202.573 60.48C203.523 60.48 204.202 60.85 204.003 61.8ZM202.503 64.06L202.693 63.16C202.373 63.38 201.743 63.51 201.393 63.66C201.053 63.81 200.853 64.13 200.763 64.53C200.673 64.98 200.813 65.34 201.263 65.34C201.913 65.34 202.333 64.85 202.503 64.06ZM205.143 66L204.843 60.62H206.003L206.043 64.86H206.063L207.813 60.62H208.963L206.403 66H205.143ZM212.713 61.8L212.063 64.88C212.023 65.08 212.103 65.26 212.263 65.26C212.333 65.26 212.403 65.25 212.443 65.23L212.293 65.93C212.153 65.99 211.953 66.06 211.743 66.06C211.263 66.06 210.903 65.87 210.983 65.35H210.963C210.563 65.88 210.083 66.14 209.453 66.14C208.593 66.14 208.153 65.66 208.373 64.63C208.633 63.43 209.203 63.18 209.983 62.94L210.873 62.71C211.283 62.6 211.553 62.49 211.653 62.02C211.753 61.53 211.653 61.22 211.083 61.22C210.363 61.22 210.153 61.73 210.043 62.25H209.023C209.263 61.11 209.863 60.48 211.283 60.48C212.233 60.48 212.913 60.85 212.713 61.8ZM211.213 64.06L211.403 63.16C211.083 63.38 210.453 63.51 210.103 63.66C209.763 63.81 209.563 64.13 209.473 64.53C209.383 64.98 209.523 65.34 209.973 65.34C210.623 65.34 211.043 64.85 211.213 64.06ZM212.922 66L214.062 60.62H215.082L214.952 61.25H214.982C215.352 60.77 215.922 60.48 216.522 60.48C217.342 60.48 217.782 60.85 217.552 61.94L216.692 66H215.612L216.392 62.31C216.542 61.61 216.392 61.34 215.852 61.34C215.412 61.34 214.922 61.69 214.772 62.39L214.002 66H212.922ZM218.227 61.42L218.397 60.62H219.137L219.467 59.09H220.547L220.217 60.62H221.097L220.927 61.42H220.047L219.367 64.63C219.277 65.05 219.367 65.2 219.737 65.2C219.897 65.2 220.027 65.19 220.137 65.17L219.967 65.97C219.717 66.03 219.417 66.06 219.077 66.06C218.347 66.06 218.027 65.86 218.257 64.76L218.967 61.42H218.227Z" fill="black"/>
</g>
<defs>
<clipPath id="clip0_24_7149">
<rect width="227" height="73" fill="white"/>
</clipPath>
</defs>
</svg>
