<svg width="149" height="50" viewBox="0 0 149 50" fill="none" xmlns="http://www.w3.org/2000/svg">
<g clip-path="url(#clip0_79_326)">
<path d="M146.188 47.2448H63.0208C53.5729 47.2448 45.8854 39.6875 45.8854 30.3958V1.89062H129.052C138.5 1.89062 146.188 9.44792 146.188 18.7396V47.2448ZM129.052 0H44V30.3958C44 40.7292 52.5313 49.1354 63.0208 49.1354H148.078V18.7396C148.078 8.41146 139.542 0 129.052 0Z" fill="black"/>
<path d="M22.7343 20.0781C21.0416 22.5677 22.4791 25.8437 24.2239 27.5052C25.8176 29.0156 27.0937 29.375 27.2603 29.4167L28.0728 27.8594L30.4166 34.2708L23.7916 35.6146L24.6718 33.9844L23.776 33.4792C20.9843 31.6615 20.3958 29.1927 20.203 28.4219C19.8697 27.0937 19.3749 23.125 22.7343 20.0781Z" fill="#1C1C1B"/>
<path d="M22.7031 20.1874C23.9062 22.9426 27.4427 23.4791 29.776 22.8853C31.849 22.3593 32.8333 21.5051 33 21.3489L32.9896 21.3333L32.1042 19.802L38.7708 21.2551L36.3594 27.5728L35.4635 25.9843L34.5938 26.453C31.5677 27.8437 29.1615 27.026 28.4063 26.776C27.1094 26.3489 23.4844 24.651 22.7031 20.1874Z" fill="#1C1C1B"/>
<path d="M34.4894 13.5313C34.0259 16.8281 32.0415 18.4115 31.4217 18.9115C30.3592 19.7708 26.9738 21.901 22.7915 20.151C25.7655 20.625 28.1248 17.9427 28.8853 15.6563C29.5728 13.6042 29.3696 12.3073 29.328 12.1042H29.3071L27.5415 12.026L32.354 7.1875L36.38 12.625L34.5623 12.5208" fill="#1C1C1B"/>
<path fill-rule="evenodd" clip-rule="evenodd" d="M14.2656 10.7447C12.7448 10.7447 11.5156 9.51554 11.5156 7.99471C11.5156 6.47388 12.7448 5.2395 14.2656 5.2395C15.7865 5.2395 17.0208 6.47388 17.0208 7.99471C17.0208 9.51554 15.7865 10.7447 14.2656 10.7447Z" fill="#1C1C1B"/>
<path d="M10.0052 24.1302C10.2396 23.4844 10.5885 23.526 10.5885 23.526C10.5885 23.526 10.9062 23.4583 11.0833 24.1094L13.6563 33.1406C11.5104 32.5208 9.55208 31.4531 7.88542 30.0469L10.0052 24.1302ZM18.0313 0C8.08854 0 0 8.08854 0 18.0365C0 27.974 8.08854 36.0677 18.0313 36.0677C18.5625 36.0677 19.0833 36.0313 19.6042 35.9844L19.724 37.7969L23.026 34.6042L19.3333 31.7917L19.474 33.6927C19 33.7344 18.5156 33.7656 18.0313 33.7656C17.2656 33.7656 16.5156 33.7083 15.7813 33.6042L15.7083 33.125L13.9948 18.526C13.7604 15.7708 15.3333 15.3281 16.3073 15.7448L21.776 17.9375C22.401 18.2083 22.7031 17.6875 22.7031 17.6875C22.7031 17.6875 23.0573 17.1354 22.4219 16.7292C22.4219 16.7292 14.9688 11.7917 13.3802 11.4948C11.2135 11.0885 9.06771 12.8438 8.59375 15.1302L5.94792 28.099C3.67188 25.3646 2.29688 21.8594 2.29688 18.0365C2.29688 9.35938 9.35417 2.30208 18.0313 2.30208C22.6667 2.30208 26.8385 4.31771 29.7188 7.51042L31.3333 5.875C28.0365 2.26563 23.2917 0 18.0313 0Z" fill="#1C1C1B"/>
<path d="M129.052 1.89062H88.8438L100.974 22.474L88.849 47.2448H146.188V18.7396C146.188 9.44792 138.5 1.89062 129.052 1.89062Z" fill="black"/>
<path fill-rule="evenodd" clip-rule="evenodd" d="M127.721 36H119.279V23.7209H107V15.279H119.279V3H127.721V15.279H140V23.7209H127.721V36Z" fill="#94C256"/>
<path d="M106.552 41.872H107.064C107.293 41.872 107.477 41.8027 107.616 41.664C107.76 41.5253 107.832 41.3093 107.832 41.016C107.832 40.728 107.771 40.5093 107.648 40.36C107.525 40.2107 107.32 40.136 107.032 40.136H106.552V41.872ZM105.4 39.288H107.416C107.709 39.288 107.955 39.3387 108.152 39.44C108.355 39.536 108.517 39.664 108.64 39.824C108.763 39.984 108.851 40.168 108.904 40.376C108.957 40.5787 108.984 40.7867 108.984 41C108.984 41.2933 108.939 41.5493 108.848 41.768C108.763 41.9867 108.64 42.1653 108.48 42.304C108.325 42.4427 108.136 42.5467 107.912 42.616C107.688 42.6853 107.44 42.72 107.168 42.72H106.552V45H105.4V39.288ZM109.548 39.288H110.7V41.472H112.044V39.288H113.196V45H112.044V42.464H110.7V45H109.548V39.288ZM116.378 42.848L115.826 40.28H115.81L115.258 42.848H116.378ZM116.53 39.288L118.042 45H116.842L116.578 43.792H115.058L114.794 45H113.594L115.106 39.288H116.53ZM118.439 39.288H120.567C121.047 39.288 121.42 39.4107 121.687 39.656C121.954 39.896 122.087 40.264 122.087 40.76C122.087 41.144 122.01 41.4587 121.855 41.704C121.7 41.944 121.46 42.0987 121.135 42.168V42.184C121.423 42.2267 121.634 42.32 121.767 42.464C121.9 42.608 121.983 42.84 122.015 43.16C122.026 43.2667 122.034 43.384 122.039 43.512C122.044 43.6347 122.05 43.7733 122.055 43.928C122.066 44.232 122.082 44.464 122.103 44.624C122.135 44.784 122.204 44.8933 122.311 44.952V45H121.063C121.004 44.92 120.967 44.8293 120.951 44.728C120.935 44.6213 120.924 44.512 120.919 44.4L120.887 43.304C120.876 43.08 120.82 42.904 120.719 42.776C120.618 42.648 120.447 42.584 120.207 42.584H119.591V45H118.439V39.288ZM119.591 41.784H120.071C120.348 41.784 120.562 41.72 120.711 41.592C120.86 41.4587 120.935 41.2373 120.935 40.928C120.935 40.4 120.668 40.136 120.135 40.136H119.591V41.784ZM122.908 39.288H124.62L125.436 43.32H125.452L126.276 39.288H127.98V45H126.924V40.44H126.908L125.892 45H124.996L123.98 40.44H123.964V45H122.908V39.288ZM131.19 42.848L130.638 40.28H130.622L130.07 42.848H131.19ZM131.342 39.288L132.854 45H131.654L131.39 43.792H129.87L129.606 45H128.406L129.918 39.288H131.342ZM135.692 41.216C135.692 40.8 135.641 40.4987 135.54 40.312C135.444 40.12 135.265 40.024 135.004 40.024C134.86 40.024 134.74 40.064 134.644 40.144C134.553 40.2187 134.481 40.344 134.428 40.52C134.374 40.6907 134.337 40.9173 134.316 41.2C134.294 41.4773 134.284 41.8187 134.284 42.224C134.284 42.656 134.297 43.0053 134.324 43.272C134.356 43.5387 134.401 43.7467 134.46 43.896C134.524 44.04 134.601 44.1387 134.692 44.192C134.788 44.24 134.897 44.264 135.02 44.264C135.121 44.264 135.214 44.248 135.3 44.216C135.39 44.1787 135.468 44.1093 135.532 44.008C135.596 43.9013 135.646 43.7547 135.684 43.568C135.721 43.376 135.74 43.1253 135.74 42.816H136.892C136.892 43.1253 136.868 43.4187 136.82 43.696C136.772 43.9733 136.681 44.216 136.548 44.424C136.42 44.632 136.236 44.7947 135.996 44.912C135.761 45.0293 135.454 45.088 135.076 45.088C134.644 45.088 134.3 45.0187 134.044 44.88C133.788 44.7413 133.59 44.5413 133.452 44.28C133.318 44.0187 133.23 43.7067 133.188 43.344C133.15 42.9813 133.132 42.5813 133.132 42.144C133.132 41.712 133.15 41.3147 133.188 40.952C133.23 40.584 133.318 40.2693 133.452 40.008C133.59 39.7467 133.788 39.544 134.044 39.4C134.3 39.2507 134.644 39.176 135.076 39.176C135.486 39.176 135.809 39.2427 136.044 39.376C136.284 39.5093 136.462 39.68 136.58 39.888C136.697 40.0907 136.769 40.312 136.796 40.552C136.828 40.7867 136.844 41.008 136.844 41.216H135.692ZM137.604 45V39.288H138.756V45H137.604ZM142.803 39.288V40.232H140.763V41.576H142.683V42.52H140.763V44.056H142.883V45H139.611V39.288H142.803Z" fill="#94C256"/>
<path d="M53.391 30.002H54.889L55.603 33.53H55.617L56.338 30.002H57.829V35H56.905V31.01H56.891L56.002 35H55.218L54.329 31.01H54.315V35H53.391V30.002ZM59.8957 28.7H60.8617L60.1757 29.708H59.5177L59.8957 28.7ZM61.3447 30.002V30.828H59.5597V32.004H61.2397V32.83H59.5597V34.174H61.4147V35H58.5517V30.002H61.3447ZM62.9788 34.258H63.4268C63.6041 34.258 63.7464 34.2277 63.8538 34.167C63.9611 34.1063 64.0451 34.006 64.1058 33.866C64.1711 33.726 64.2131 33.5417 64.2318 33.313C64.2551 33.0843 64.2668 32.7997 64.2668 32.459C64.2668 32.1743 64.2574 31.9247 64.2388 31.71C64.2201 31.4953 64.1804 31.318 64.1198 31.178C64.0638 31.0333 63.9774 30.926 63.8608 30.856C63.7488 30.7813 63.5971 30.744 63.4058 30.744H62.9788V34.258ZM61.9708 30.002H63.6228C63.9728 30.002 64.2551 30.0603 64.4698 30.177C64.6844 30.289 64.8501 30.4523 64.9668 30.667C65.0881 30.877 65.1698 31.1313 65.2118 31.43C65.2538 31.7287 65.2748 32.0623 65.2748 32.431C65.2748 32.8697 65.2468 33.2523 65.1908 33.579C65.1394 33.901 65.0484 34.167 64.9178 34.377C64.7871 34.587 64.6121 34.7433 64.3928 34.846C64.1734 34.9487 63.8958 35 63.5598 35H61.9708V30.002ZM65.9903 35V30.002H66.9983V35H65.9903ZM69.881 31.689C69.881 31.325 69.8367 31.0613 69.748 30.898C69.664 30.73 69.5077 30.646 69.279 30.646C69.153 30.646 69.048 30.681 68.964 30.751C68.8847 30.8163 68.8217 30.926 68.775 31.08C68.7283 31.2293 68.6957 31.4277 68.677 31.675C68.6583 31.9177 68.649 32.2163 68.649 32.571C68.649 32.949 68.6607 33.2547 68.684 33.488C68.712 33.7213 68.7517 33.9033 68.803 34.034C68.859 34.16 68.9267 34.2463 69.006 34.293C69.09 34.335 69.1857 34.356 69.293 34.356C69.3817 34.356 69.4633 34.342 69.538 34.314C69.6173 34.2813 69.685 34.2207 69.741 34.132C69.797 34.0387 69.8413 33.9103 69.874 33.747C69.9067 33.579 69.923 33.3597 69.923 33.089H70.931C70.931 33.3597 70.91 33.6163 70.868 33.859C70.826 34.1017 70.7467 34.314 70.63 34.496C70.518 34.678 70.357 34.8203 70.147 34.923C69.9417 35.0257 69.6733 35.077 69.342 35.077C68.964 35.077 68.663 35.0163 68.439 34.895C68.215 34.7737 68.0423 34.5987 67.921 34.37C67.8043 34.1413 67.7273 33.8683 67.69 33.551C67.6573 33.2337 67.641 32.8837 67.641 32.501C67.641 32.123 67.6573 31.7753 67.69 31.458C67.7273 31.136 67.8043 30.8607 67.921 30.632C68.0423 30.4033 68.215 30.226 68.439 30.1C68.663 29.9693 68.964 29.904 69.342 29.904C69.7013 29.904 69.9837 29.9623 70.189 30.079C70.399 30.1957 70.5553 30.345 70.658 30.527C70.7607 30.7043 70.8237 30.898 70.847 31.108C70.875 31.3133 70.889 31.507 70.889 31.689H69.881ZM73.5918 33.117L73.1088 30.87H73.0948L72.6118 33.117H73.5918ZM73.7248 30.002L75.0478 35H73.9978L73.7668 33.943H72.4368L72.2058 35H71.1558L72.4788 30.002H73.7248ZM75.4164 30.002H76.9144L77.6284 33.53H77.6424L78.3634 30.002H79.8544V35H78.9304V31.01H78.9164L78.0274 35H77.2434L76.3544 31.01H76.3404V35H75.4164V30.002ZM83.3701 30.002V30.828H81.5851V32.004H83.2651V32.83H81.5851V34.174H83.4401V35H80.5771V30.002H83.3701ZM85.1092 30.002L86.3272 33.425H86.3412V30.002H87.2652V35H86.1172L84.8852 31.5H84.8712V35H83.9472V30.002H85.1092ZM90.8927 30.002V30.828H89.8007V35H88.7927V30.828H87.7007V30.002H90.8927ZM60.4246 38.002L61.6426 41.425H61.6566V38.002H62.5806V43H61.4326L60.2006 39.5H60.1866V43H59.2626V38.002H60.4246ZM64.1851 40.501C64.1851 40.837 64.1921 41.124 64.2061 41.362C64.2248 41.5953 64.2575 41.7867 64.3041 41.936C64.3555 42.0807 64.4255 42.188 64.5141 42.258C64.6075 42.3233 64.7288 42.356 64.8781 42.356C65.0275 42.356 65.1465 42.3233 65.2351 42.258C65.3285 42.188 65.3985 42.0807 65.4451 41.936C65.4965 41.7867 65.5291 41.5953 65.5431 41.362C65.5618 41.124 65.5711 40.837 65.5711 40.501C65.5711 40.165 65.5618 39.8803 65.5431 39.647C65.5291 39.4137 65.4965 39.2223 65.4451 39.073C65.3985 38.9237 65.3285 38.8163 65.2351 38.751C65.1465 38.681 65.0275 38.646 64.8781 38.646C64.7288 38.646 64.6075 38.681 64.5141 38.751C64.4255 38.8163 64.3555 38.9237 64.3041 39.073C64.2575 39.2223 64.2248 39.4137 64.2061 39.647C64.1921 39.8803 64.1851 40.165 64.1851 40.501ZM63.1771 40.501C63.1771 40.123 63.1935 39.7753 63.2261 39.458C63.2635 39.136 63.3405 38.8607 63.4571 38.632C63.5785 38.4033 63.7511 38.226 63.9751 38.1C64.1991 37.9693 64.5001 37.904 64.8781 37.904C65.2561 37.904 65.5571 37.9693 65.7811 38.1C66.0051 38.226 66.1755 38.4033 66.2921 38.632C66.4135 38.8607 66.4905 39.136 66.5231 39.458C66.5605 39.7753 66.5791 40.123 66.5791 40.501C66.5791 40.8837 66.5605 41.2337 66.5231 41.551C66.4905 41.8683 66.4135 42.1413 66.2921 42.37C66.1755 42.5987 66.0051 42.7737 65.7811 42.895C65.5571 43.0163 65.2561 43.077 64.8781 43.077C64.5001 43.077 64.1991 43.0163 63.9751 42.895C63.7511 42.7737 63.5785 42.5987 63.4571 42.37C63.3405 42.1413 63.2635 41.8683 63.2261 41.551C63.1935 41.2337 63.1771 40.8837 63.1771 40.501ZM68.3338 38.002L69.5518 41.425H69.5658V38.002H70.4898V43H69.3418L68.1098 39.5H68.0958V43H67.1718V38.002H68.3338ZM73.3622 38.002L74.0692 41.698H74.0902L74.8322 38.002H75.8752L74.7272 43H73.4322L72.2842 38.002H73.3622ZM76.2921 43V38.002H77.3001V43H76.2921ZM79.1048 42.258H79.5528C79.7301 42.258 79.8724 42.2277 79.9798 42.167C80.0871 42.1063 80.1711 42.006 80.2318 41.866C80.2971 41.726 80.3391 41.5417 80.3578 41.313C80.3811 41.0843 80.3928 40.7997 80.3928 40.459C80.3928 40.1743 80.3834 39.9247 80.3648 39.71C80.3461 39.4953 80.3064 39.318 80.2458 39.178C80.1898 39.0333 80.1034 38.926 79.9868 38.856C79.8748 38.7813 79.7231 38.744 79.5318 38.744H79.1048V42.258ZM78.0968 38.002H79.7488C80.0988 38.002 80.3811 38.0603 80.5958 38.177C80.8104 38.289 80.9761 38.4523 81.0928 38.667C81.2141 38.877 81.2958 39.1313 81.3378 39.43C81.3798 39.7287 81.4008 40.0623 81.4008 40.431C81.4008 40.8697 81.3728 41.2523 81.3168 41.579C81.2654 41.901 81.1744 42.167 81.0438 42.377C80.9131 42.587 80.7381 42.7433 80.5188 42.846C80.2994 42.9487 80.0218 43 79.6858 43H78.0968V38.002ZM84.8603 38.002V38.828H83.0753V40.004H84.7553V40.83H83.0753V42.174H84.9303V43H82.0673V38.002H84.8603Z" fill="black"/>
<path d="M72.3806 25.0448L60.0999 10.7583L69.1842 5.94152L81.3728 18.8363L72.3806 25.0448ZM82.4064 18.693C82.3757 18.5736 82.3075 18.4678 82.2461 18.4167L69.7164 5.15692C69.6413 5.09211 69.556 5.04776 69.4503 5.02388C69.3889 5.00682 69.3241 5 69.2217 5C69.1535 5.00341 69.0853 5.01365 69.017 5.03411C68.942 5.05117 68.8772 5.07846 68.8158 5.11257L59.4415 10.059C59.3664 10.0965 59.3016 10.1442 59.2505 10.1886C59.1822 10.2466 59.1277 10.3148 59.0935 10.3762C59.0356 10.4717 59.0049 10.5741 59.0014 10.6491C58.9912 10.7958 59.0356 10.9357 59.1345 11.0585L71.7631 25.7476C71.8348 25.8363 71.9303 25.9045 72.0497 25.9522C72.135 25.9829 72.2305 26 72.3328 26C72.4181 26 72.5239 25.9864 72.616 25.9557C72.7047 25.9284 72.7899 25.8908 72.882 25.8294L82.0721 19.4776C82.154 19.4264 82.2222 19.3616 82.2836 19.2831C82.345 19.2013 82.3859 19.116 82.4098 19.0239C82.4371 18.9113 82.4371 18.7953 82.4064 18.693Z" fill="#1C1C1B"/>
<path d="M71.0126 9.45864C71.0501 9.49958 71.0638 9.54393 71.074 9.59168C71.0774 9.60874 71.0843 9.62239 71.0877 9.63944C71.0945 9.70085 71.0774 9.77248 71.0433 9.84753C71.0024 9.94305 70.9342 10.042 70.8421 10.1341C70.7397 10.2398 70.6135 10.3319 70.4668 10.4138C70.3167 10.4991 70.1598 10.5639 69.9926 10.6083C69.9176 10.6287 69.8425 10.6424 69.7709 10.6526C69.6242 10.6731 69.5253 10.8095 69.5458 10.9528C69.5662 11.0858 69.6788 11.1814 69.8084 11.1814C69.8221 11.1814 69.8357 11.1779 69.846 11.1779C69.9415 11.1643 70.0336 11.1438 70.1291 11.1199C70.3372 11.062 70.5385 10.9801 70.7261 10.8777C70.883 10.7891 71.0229 10.6833 71.1457 10.5707C71.1184 10.6731 71.0843 10.7481 71.0467 10.7788C71.0399 10.7856 70.2963 11.4065 69.5662 11.4099C69.307 11.3997 69.1739 11.2905 68.7202 10.83C67.9561 10.0659 67.0896 9.10728 67.0248 8.9333C67.0419 8.61946 67.1306 8.19305 67.1647 8.118C67.2056 8.02931 67.2807 7.9372 67.3693 7.85192C67.4751 7.7564 67.6013 7.66771 67.7412 7.59266C67.8845 7.5142 68.038 7.45621 68.1949 7.41527C68.345 7.37434 68.4917 7.35387 68.6349 7.35387C68.7919 7.35387 68.8908 7.36751 68.9897 7.40163C69.0818 7.43233 69.1535 7.47326 69.2012 7.52443L71.0126 9.45864ZM68.6281 6.82512C68.4439 6.82512 68.2529 6.85241 68.0618 6.90358C67.864 6.95475 67.673 7.02979 67.4922 7.12531C67.3114 7.22424 67.1476 7.33681 67.0112 7.46644C66.8713 7.59607 66.7655 7.73593 66.6905 7.87921C66.5984 8.06001 66.5131 8.61264 66.4961 8.9026C66.4892 9.00835 66.4722 9.33242 68.345 11.2052C68.785 11.6521 69.0511 11.9182 69.5389 11.9387L69.6106 11.9421C70.4907 11.9318 71.3538 11.2155 71.3913 11.1814C71.7392 10.8846 71.8075 10.1375 71.5687 9.39042C71.5516 9.34607 71.5346 9.30513 71.5107 9.2642C71.5039 9.25397 71.497 9.24032 71.4868 9.23009C71.4595 9.18574 71.4356 9.13798 71.3981 9.10046L69.5867 7.16283C69.4775 7.04344 69.3309 6.95474 69.1535 6.89675C68.9965 6.84899 68.8157 6.8217 68.6281 6.82512Z" fill="#1C1C1B"/>
<path d="M67.2432 8.32943C67.1341 8.42836 67.1238 8.59552 67.2228 8.70468L68.734 10.3865C68.7851 10.4444 68.8568 10.4751 68.9284 10.4751C68.9932 10.4751 69.0546 10.4547 69.1058 10.4069C69.215 10.3114 69.2252 10.1408 69.1263 10.0351L67.6151 8.3499C67.5161 8.24074 67.3524 8.23392 67.2432 8.32943Z" fill="#1C1C1B"/>
<path d="M65.4046 13.8387C65.1454 13.825 65.0123 13.7193 64.5586 13.2588C63.7945 12.4946 62.928 11.5327 62.8632 11.3587C62.8802 11.0448 62.9655 10.6184 62.9996 10.5468C63.044 10.4547 63.119 10.3626 63.2111 10.2773C63.3135 10.1818 63.4397 10.0931 63.5796 10.018C63.7228 9.94298 63.8763 9.88158 64.0333 9.84064C64.1834 9.80312 64.33 9.78265 64.4733 9.77924C64.6302 9.78606 64.7292 9.7963 64.8281 9.83041C64.9202 9.8577 64.9918 9.89864 65.0396 9.94981L66.851 11.8874C66.8851 11.925 66.8988 11.9693 66.9124 12.0171C66.9158 12.0341 66.9226 12.0512 66.9261 12.0682C66.9295 12.1296 66.9158 12.2013 66.8817 12.2763C66.8442 12.3684 66.7725 12.4673 66.6804 12.5629C66.5781 12.6652 66.4519 12.7607 66.3052 12.8426C66.1585 12.9245 65.9982 12.9893 65.831 13.0336C65.756 13.0541 65.6843 13.0712 65.6093 13.0814C65.4626 13.1019 65.3637 13.2349 65.3841 13.3816C65.4046 13.5112 65.5172 13.6067 65.6468 13.6067C65.6605 13.6067 65.6741 13.6067 65.6877 13.6033C65.7799 13.5897 65.8754 13.5692 65.9709 13.5453C66.1756 13.4873 66.3802 13.4089 66.5645 13.3031C66.7214 13.2144 66.8612 13.1121 66.9806 12.9995C66.9568 13.1019 66.9226 13.1769 66.8851 13.2076C66.8749 13.2144 66.1346 13.8319 65.4046 13.8387ZM67.4139 11.8465C67.3968 11.7919 67.3763 11.7373 67.3491 11.6896C67.3388 11.6793 67.3354 11.6691 67.3252 11.6589C67.2979 11.6145 67.274 11.5668 67.2365 11.5258L65.4251 9.59162C65.3159 9.47222 65.1692 9.38012 64.9918 9.32554C64.8383 9.27437 64.6575 9.25731 64.4665 9.25049C64.2823 9.2539 64.0913 9.28119 63.9002 9.32895C63.699 9.38012 63.5113 9.45517 63.3305 9.55068C63.1497 9.64961 62.986 9.76218 62.8495 9.89181C62.7097 10.0214 62.6039 10.1613 62.5289 10.3046C62.4368 10.4854 62.3515 11.0414 62.3344 11.328C62.3276 11.4337 62.3106 11.7578 64.1834 13.6306C64.6234 14.0775 64.8895 14.347 65.3841 14.364L65.449 14.3674C66.3427 14.3606 67.1921 13.6408 67.2297 13.6101C67.5708 13.3134 67.6424 12.5833 67.4139 11.8465Z" fill="#1C1C1B"/>
<path d="M63.4532 10.7788C63.3577 10.6696 63.1871 10.6594 63.0814 10.7583C62.9722 10.8572 62.962 11.021 63.0609 11.1301L64.5687 12.8153C64.6233 12.8733 64.6949 12.9006 64.7666 12.9006C64.828 12.9006 64.8928 12.8801 64.9439 12.8324C65.0531 12.7368 65.0599 12.5697 64.9644 12.4605" fill="#1C1C1B"/>
<path d="M71.8688 11.7408C72.0189 11.7033 72.1655 11.6828 72.3088 11.6828C72.4384 11.6863 72.5613 11.6965 72.6636 11.7306C72.7523 11.7579 72.8273 11.8022 72.8717 11.85L74.6865 13.791C74.7206 13.8251 74.7343 13.8695 74.7445 13.9138C74.7513 13.9309 74.7547 13.9514 74.7615 13.9684C74.765 14.0332 74.7513 14.1015 74.7172 14.1765C74.6763 14.272 74.6046 14.3709 74.5125 14.4631C74.4136 14.5654 74.2874 14.6609 74.1407 14.7428C73.9906 14.8247 73.8337 14.8895 73.6665 14.9338C73.5915 14.9543 73.5164 14.9713 73.4448 14.9816C73.2981 15.002 73.1992 15.1351 73.2196 15.2818C73.2401 15.4148 73.3527 15.5069 73.4823 15.5069C73.4959 15.5069 73.5062 15.5069 73.5198 15.5069C73.6153 15.4933 73.7075 15.4728 73.803 15.4489C74.0111 15.3909 74.2123 15.3091 74.3999 15.2033C74.5603 15.1146 74.6967 15.0123 74.8161 14.8997C74.7922 15.002 74.7547 15.0771 74.7172 15.1078C74.7104 15.1146 73.9701 15.7355 73.2367 15.7389C72.9808 15.7286 72.8478 15.6195 72.3941 15.159C71.63 14.3948 70.7635 13.4363 70.6987 13.2589C70.7157 12.9484 70.801 12.522 70.8351 12.447C70.8795 12.3583 70.9545 12.2662 71.0432 12.1775C71.149 12.082 71.2752 11.9933 71.4151 11.9182C71.5583 11.8432 71.7118 11.7818 71.8688 11.7408ZM71.166 11.4509C70.9852 11.5498 70.8215 11.6624 70.6816 11.792C70.5452 11.9216 70.4394 12.0615 70.361 12.2082C70.2723 12.389 70.187 12.9416 70.1699 13.2282C70.1631 13.3339 70.1426 13.658 72.0189 15.5308C72.4589 15.9811 72.725 16.2506 73.2094 16.2676H73.2844C74.1782 16.2608 75.0276 15.541 75.0652 15.5103C75.4097 15.2135 75.4779 14.4699 75.2425 13.7262C75.2255 13.6819 75.2084 13.6375 75.188 13.5966C75.1777 13.5829 75.1709 13.5693 75.1607 13.5591C75.1334 13.5147 75.1095 13.467 75.072 13.4294L73.2606 11.4884C73.1514 11.3724 73.0047 11.2837 72.8273 11.2257C72.6704 11.1746 72.5033 11.1473 72.302 11.1507C72.1178 11.1541 71.9267 11.1814 71.7357 11.2291C71.5379 11.2837 71.3434 11.3588 71.166 11.4509Z" fill="#1C1C1B"/>
<path d="M70.9171 12.6584C70.8079 12.7573 70.7977 12.9245 70.8966 13.0337L72.4044 14.7154C72.459 14.7734 72.5306 14.8041 72.6022 14.8041C72.6671 14.8041 72.7285 14.7837 72.7796 14.7359C72.8888 14.6404 72.8956 14.4698 72.8001 14.3641L71.2889 12.6789C71.19 12.5697 71.0228 12.5629 70.9171 12.6584Z" fill="#1C1C1B"/>
<path d="M69.0751 18.1643C68.8192 18.154 68.6862 18.0483 68.2291 17.5878C67.4683 16.8236 66.5985 15.8616 66.5336 15.6877C66.5541 15.3909 66.636 14.9576 66.6735 14.8758C66.7179 14.7837 66.7895 14.6916 66.885 14.6063C66.9839 14.5108 67.1067 14.4255 67.25 14.347C67.3933 14.272 67.5468 14.2106 67.7071 14.1696C67.8538 14.1321 68.0005 14.1116 68.1438 14.1082C68.3075 14.1048 68.403 14.1253 68.502 14.156C68.5941 14.1867 68.6623 14.2276 68.7101 14.2788L70.5249 16.2164C70.559 16.2539 70.5692 16.2949 70.5829 16.3392C70.5897 16.3597 70.5931 16.3767 70.5999 16.3972C70.6033 16.4586 70.5897 16.5302 70.5556 16.6053C70.5146 16.7008 70.4464 16.7963 70.3543 16.8918C70.252 16.9942 70.1258 17.0863 69.9791 17.1682C69.829 17.2534 69.672 17.3183 69.5049 17.3626C69.4298 17.3831 69.3548 17.3967 69.2832 17.4104C69.1365 17.4308 69.0375 17.5639 69.058 17.7071C69.0751 17.8402 69.1911 17.9357 69.3207 17.9357C69.3309 17.9357 69.3446 17.9323 69.3582 17.9323C69.4503 17.9186 69.5458 17.8982 69.6413 17.8743C69.8494 17.8163 70.0507 17.7378 70.2349 17.6321C70.3952 17.5434 70.5317 17.4411 70.6545 17.3285C70.6306 17.4274 70.5965 17.5025 70.559 17.5366C70.3543 17.7106 69.6959 18.1609 69.0751 18.1643ZM71.0877 16.1857C71.0707 16.1277 71.0502 16.0697 71.0161 16.0151C71.0127 16.0049 71.0059 15.9947 70.999 15.9878C70.9718 15.9435 70.9479 15.8957 70.9104 15.8548L69.0989 13.9172C68.9864 13.7978 68.8431 13.7091 68.6657 13.6545C68.5122 13.6033 68.328 13.5795 68.1404 13.5795C67.9493 13.5829 67.7617 13.6068 67.5741 13.6579C67.3728 13.7091 67.1818 13.7841 67.0044 13.8797H67.001C66.8168 13.9786 66.6565 14.0946 66.52 14.2208C66.3835 14.347 66.2778 14.4869 66.2027 14.6336C66.1106 14.8109 66.0254 15.367 66.0083 15.657C66.0015 15.7627 65.981 16.0868 67.8572 17.9596C68.2973 18.4065 68.5634 18.676 69.0546 18.693L69.1228 18.6964C70.0098 18.6896 70.866 17.9698 70.9001 17.9357C71.2447 17.6457 71.3163 16.9191 71.0877 16.1857Z" fill="#1C1C1B"/>
<path d="M67.1271 15.1077C67.0282 14.9986 66.861 14.9883 66.7519 15.0873C66.6461 15.1828 66.6359 15.3499 66.7348 15.4591L68.2426 17.1409C68.2938 17.1989 68.3688 17.2296 68.4405 17.2296C68.5019 17.2296 68.5667 17.2091 68.6145 17.1613C68.7236 17.0658 68.7339 16.8987 68.6349 16.7895" fill="#1C1C1B"/>
<path d="M75.543 16.0696C75.6931 16.0321 75.8398 16.0117 75.9796 16.0082C76.1093 16.0082 76.2389 16.0253 76.3378 16.0594C76.4265 16.0867 76.4981 16.1276 76.5459 16.1788L78.3573 18.1164C78.3948 18.154 78.4085 18.2017 78.4221 18.2495C78.4255 18.2631 78.4289 18.2802 78.4358 18.2938C78.4392 18.3586 78.4255 18.4303 78.3914 18.5053C78.3505 18.6008 78.2788 18.6998 78.1901 18.7919C78.0844 18.8942 77.9582 18.9897 77.8115 19.0716C77.6648 19.1535 77.5045 19.2183 77.3407 19.2626C77.2657 19.2831 77.1906 19.3002 77.1156 19.3104C76.9723 19.3309 76.8734 19.4639 76.8939 19.6106C76.9109 19.7402 77.0269 19.8357 77.1531 19.8357C77.1668 19.8357 77.1804 19.8357 77.194 19.8323C77.2862 19.8187 77.3817 19.8016 77.4772 19.7743C77.6853 19.7197 77.8865 19.6379 78.0708 19.5321C78.2311 19.4434 78.3675 19.3411 78.4903 19.2285C78.4665 19.3309 78.4289 19.4059 78.3914 19.4366C78.1901 19.6106 77.5284 20.0643 76.9109 20.0677C76.6551 20.0575 76.522 19.9483 76.0649 19.4878C75.3008 18.7236 74.4343 17.7651 74.3695 17.5877C74.3865 17.2943 74.4718 16.8577 74.5094 16.7758C74.5537 16.6871 74.6253 16.595 74.7174 16.5063C74.8198 16.4142 74.9426 16.3255 75.0859 16.247C75.2291 16.172 75.3826 16.1106 75.543 16.0696ZM74.8368 15.7797C74.6526 15.882 74.4923 15.9946 74.3558 16.1208C74.216 16.2504 74.1102 16.3903 74.0352 16.537C73.9465 16.7144 73.8612 17.267 73.8407 17.557C73.8373 17.6627 73.8169 17.9868 75.6897 19.8596C76.1331 20.3065 76.3992 20.576 76.887 20.5965H76.9587C77.8422 20.5896 78.6984 19.8698 78.736 19.8391C79.0839 19.5389 79.1555 18.7919 78.9099 18.0414C78.8963 18.0004 78.8792 17.9595 78.8554 17.9186C78.8485 17.9083 78.8451 17.8981 78.8349 17.8879C78.8076 17.8435 78.7837 17.7958 78.7462 17.7548L76.9314 15.8172C76.8222 15.7012 76.6755 15.6125 76.5016 15.5545C76.3446 15.5034 76.1638 15.4829 75.9762 15.4795C75.792 15.4829 75.5976 15.5102 75.4065 15.558C75.2121 15.6091 75.0176 15.6842 74.8368 15.7797Z" fill="#1C1C1B"/>
<path d="M74.5878 16.9874C74.4787 17.0863 74.4718 17.2535 74.5673 17.3626L76.0786 19.0444C76.1297 19.1024 76.2048 19.1331 76.2764 19.1331C76.3378 19.1331 76.3992 19.1092 76.4538 19.0649C76.5596 18.966 76.5698 18.7988 76.4709 18.6896L74.9631 17.0079C74.8641 16.8987 74.697 16.8919 74.5878 16.9874Z" fill="#1C1C1B"/>
<path d="M72.7491 22.4932C72.4933 22.483 72.3603 22.3738 71.9031 21.9133C71.139 21.1492 70.2725 20.1906 70.2077 20.0166C70.2282 19.7199 70.3101 19.2832 70.3476 19.2013C70.3919 19.1126 70.4636 19.0205 70.5557 18.9353C70.658 18.8363 70.7842 18.751 70.9241 18.676C71.0708 18.5975 71.2209 18.5395 71.3778 18.4986C71.5279 18.4577 71.678 18.4372 71.8179 18.4372C71.9577 18.4372 72.0737 18.4508 72.176 18.485C72.2681 18.5122 72.3364 18.5532 72.3841 18.6078L74.1955 20.542C74.2331 20.5829 74.2467 20.6273 74.2569 20.6716C74.2638 20.6887 74.2672 20.7057 74.274 20.7228C74.2774 20.7876 74.2638 20.8592 74.2296 20.9309C74.1887 21.0264 74.1171 21.1287 74.025 21.2208C73.926 21.3198 73.7998 21.4153 73.6531 21.4971C73.503 21.5824 73.3427 21.6438 73.179 21.6916C73.1039 21.7121 73.0289 21.7257 72.9572 21.7359C72.8105 21.7564 72.7116 21.8894 72.7321 22.0361C72.7491 22.1658 72.8617 22.2613 72.9913 22.2613C73.005 22.2613 73.0186 22.2613 73.0289 22.2613C73.1244 22.2476 73.2199 22.2272 73.3154 22.2033C73.5235 22.1453 73.7248 22.0634 73.9124 21.9611C74.0693 21.869 74.2092 21.7666 74.3286 21.6541C74.3047 21.7564 74.2672 21.8314 74.2296 21.8622C74.2228 21.869 73.4792 22.4898 72.7491 22.4932ZM74.6936 20.3441C74.6868 20.3339 74.6799 20.3237 74.6731 20.3168C74.6458 20.2725 74.6219 20.2247 74.581 20.1838L72.773 18.2462C72.6604 18.1268 72.5172 18.0381 72.3398 17.9801C72.1829 17.9323 72.0021 17.9119 71.811 17.9084C71.6268 17.9084 71.4358 17.9357 71.2448 17.9869C71.0503 18.0381 70.8593 18.1097 70.6785 18.2086H70.6751C70.4943 18.3076 70.3305 18.4201 70.1941 18.5464C70.0576 18.676 69.9485 18.8159 69.8734 18.9625C69.7847 19.1399 69.6994 19.696 69.6824 19.9859C69.6756 20.0917 69.6551 20.4158 71.5279 22.2886C71.9714 22.7354 72.2374 23.0049 72.7219 23.022H72.7969C73.6873 23.0152 74.5367 22.2954 74.5742 22.2647C74.9221 21.9713 74.9904 21.2311 74.755 20.4908C74.7379 20.4396 74.7209 20.3919 74.6936 20.3441Z" fill="#1C1C1B"/>
<path d="M70.7977 19.4333C70.7022 19.3241 70.535 19.3173 70.4258 19.4162C70.3167 19.5117 70.3065 19.6789 70.4054 19.788L71.9166 21.4698C71.9678 21.5278 72.0428 21.5585 72.1144 21.5585C72.1759 21.5585 72.2407 21.5346 72.2884 21.4903C72.3976 21.3948 72.4078 21.2276 72.3089 21.1184" fill="#1C1C1B"/>
<path d="M63 10L62.5 11.5L64 13L65 14H66.5L67 13V11.5L66 10.5L64.5 9.5L63 10Z" fill="#1C1C1B"/>
<path d="M67 8V9L68 10.5L69.5 11.5H70.5L71.5 10.5V9.5L70 8L69 7H68L67 8Z" fill="#1C1C1B"/>
</g>
<defs>
<clipPath id="clip0_79_326">
<rect width="149" height="50" fill="white"/>
</clipPath>
</defs>
</svg>
