<svg width="104" height="51" viewBox="0 0 104 51" fill="none" xmlns="http://www.w3.org/2000/svg">
<g clip-path="url(#clip0_24_7053)">
<path d="M84.1979 0.791656H0.505188V31.2708C0.505188 41.6302 9.00519 50.0573 19.4583 50.0573H103.151V19.5833C103.151 9.21874 94.651 0.791656 84.1979 0.791656Z" fill="white"/>
<path d="M84.1979 0.791656H0.505188V31.2708C0.505188 41.6302 9.00519 50.0573 19.4583 50.0573H103.151V19.5833C103.151 9.21874 94.651 0.791656 84.1979 0.791656ZM101.266 48.1667H19.4583C10.0469 48.1667 2.3906 40.5885 2.3906 31.2708V2.68749H84.1979C93.6094 2.68749 101.266 10.2656 101.266 19.5833V48.1667Z" fill="#7C7B7B"/>
<path d="M43.2396 50.0573L56.2031 23.4114L42.9583 0.791656H84.1979C94.651 0.791656 103.151 9.21874 103.151 19.5833V50.0573H43.2396Z" fill="#7C7B7B"/>
<path d="M84.1979 2.6875H46.2552L58.3385 23.3281L46.2604 48.1667H101.266V19.5833C101.266 10.2656 93.6146 2.6875 84.1979 2.6875Z" fill="#7C7B7B"/>
<path d="M30.8021 32.2864C28.8073 32.5937 26.3229 31.2864 26.2969 31.276L23.6302 29.8542C23.6302 29.0937 24.1041 27.3333 25.5573 24.9114C26.3541 23.5833 27.2396 22.4167 28.0416 21.625C28.4375 21.2344 28.7239 21.026 28.9427 20.901L30.1771 21.5573C29.4062 22.526 28.6666 24.0417 29.0833 26.0937C29.1198 26.2656 29.276 26.3906 29.4479 26.3906C29.4687 26.3906 29.4948 26.3854 29.5208 26.3802C29.7239 26.3385 29.8489 26.1406 29.8073 25.9427C29.3958 23.9271 30.25 22.526 30.9896 21.7239L40.625 19.8385C40.5781 20.0989 40.5312 20.3646 40.5156 20.6875C40.4479 21.8958 40.5885 23.4531 40.9166 25.0573C41.2448 26.6614 41.7239 28.1406 42.2604 29.2292C42.3958 29.5052 42.5364 29.7396 42.6771 29.9531L30.8021 32.2864ZM10.5833 16.8958C11.1094 16.0156 11.6771 15.3073 12.2135 14.7396C12.4219 14.8385 12.6666 14.8489 12.8854 14.7292C13.2239 14.5469 13.3541 14.1458 13.2239 13.7969C13.7656 13.3646 14.1823 13.1406 14.3385 13.1354C14.3594 13.1458 14.3802 13.151 14.401 13.1562L14.5885 13.2552C14.5989 13.3437 14.6198 13.4323 14.6666 13.5104C14.8594 13.8698 15.3021 14.0052 15.6614 13.8281L16.8125 14.4427C16.5833 14.6771 16.5104 15.0364 16.6771 15.3437C16.875 15.7135 17.3385 15.8542 17.7083 15.651C17.9166 15.5364 18.0416 15.3385 18.0833 15.1198L23.2812 17.8854C23.276 18.0156 23.2916 18.1458 23.3594 18.2656C23.5625 18.6354 24.026 18.776 24.3958 18.5729C24.4219 18.5573 24.4375 18.5312 24.4635 18.5156L25.3802 19.0052C25.2656 19.2239 25.2448 19.4896 25.3698 19.7239C25.5729 20.0989 26.0364 20.2344 26.4062 20.0364C26.5416 19.9583 26.6354 19.8385 26.7031 19.7083L27.8594 20.3229C27.6666 20.3281 27.4791 20.4062 27.3385 20.5521C27.1094 20.7917 27.0677 21.1458 27.2135 21.4271C26.4791 22.2135 25.7083 23.2448 24.9948 24.4167C24.7708 24.2656 24.4739 24.2344 24.2187 24.3698C23.8489 24.5729 23.7083 25.0417 23.9114 25.4114C23.9896 25.5625 24.1198 25.6614 24.2604 25.7292C23.5469 27.0937 23.026 28.4635 22.9271 29.4792L21.8646 28.9114C21.8698 28.7812 21.8489 28.6562 21.7812 28.5364C21.5833 28.1614 21.1198 28.026 20.75 28.2292C20.7239 28.2396 20.7083 28.2656 20.6823 28.2812L19.5521 27.6771C19.8489 27.4531 19.9583 27.0417 19.7708 26.7031C19.5729 26.3281 19.1094 26.1927 18.7396 26.3958C18.4948 26.5312 18.3646 26.776 18.3541 27.0364L13.5312 24.4635C13.5416 24.3229 13.526 24.1771 13.4531 24.0417C13.2552 23.6719 12.7916 23.5312 12.4166 23.7344C12.4062 23.7396 12.401 23.7552 12.3906 23.7604C12.3437 23.7604 12.2969 23.7708 12.2552 23.7812L11.026 23.125C11.1875 22.8958 11.2239 22.5885 11.0781 22.3229C10.8802 21.9479 10.4114 21.8125 10.0469 22.0104C9.87498 22.1042 9.76039 22.2552 9.7031 22.4219L9.42185 22.276C9.38018 22.25 9.33331 22.25 9.29164 22.2344C9.26039 22.2083 9.23956 22.1719 9.2031 22.151C9.13018 22.0677 9.0781 21.8646 9.06768 21.5781C9.12498 21.5677 9.17706 21.5573 9.22914 21.5312C9.60414 21.3281 9.73956 20.8594 9.53643 20.4896C9.46352 20.3542 9.35414 20.2656 9.22914 20.1979C9.43227 19.2812 9.84373 18.1354 10.5833 16.8958ZM44.0677 19.9531C43.4531 18.7135 42.7969 18.1146 42.1094 18.0937C42.0729 18.0885 42.0364 18.0937 42 18.0885C41.9427 18.0937 41.8906 18.0729 41.8333 18.0833L41.8281 18.0885C41.8177 18.0885 41.8125 18.0885 41.8073 18.0885L30.8541 20.2344L14.9687 11.776C14.8489 11.7135 14.7239 11.6979 14.5989 11.7031C13.8281 11.6146 12.9166 12.1614 12.2291 12.7083C11.1666 13.5521 10.1354 14.7656 9.31768 16.125C8.41144 17.6354 7.79164 19.3854 7.65102 20.8229C7.64581 20.8594 7.63539 20.8958 7.6406 20.9323C7.54685 22.0521 7.74477 22.9739 8.38539 23.3854C8.43227 23.4167 8.48956 23.4114 8.54164 23.4323C8.59893 23.4948 8.65623 23.5521 8.72914 23.5885L25.6041 32.5937C25.7135 32.6458 27.9375 33.8177 30.1875 33.8177C30.4791 33.8177 30.7656 33.7969 31.0521 33.7552L44.5364 31.1094C44.651 31.0833 44.75 31.0312 44.8385 30.9635C46.5469 29.9844 45.5416 24.7552 45.4114 24.125C45.0833 22.5208 44.6094 21.0364 44.0677 19.9531Z" fill="#1D1D1B"/>
<path d="M19.7187 17.4844C20.0885 17.2812 20.2291 16.8125 20.026 16.4427C19.8281 16.0677 19.3594 15.9323 18.9896 16.1354C18.6198 16.3333 18.4844 16.8021 18.6875 17.1719C18.8854 17.5469 19.3489 17.6875 19.7187 17.4844Z" fill="#1D1D1B"/>
<path d="M21.7292 19.3177C22.099 19.1146 22.2344 18.6458 22.0365 18.276C21.8333 17.901 21.3698 17.7604 21 17.9635C20.6302 18.1667 20.4948 18.6354 20.6927 19.0052C20.8958 19.3802 21.3594 19.5156 21.7292 19.3177Z" fill="#1D1D1B"/>
<path d="M23.7396 21.1458C24.1094 20.9479 24.2448 20.4792 24.0469 20.1094C23.8438 19.7344 23.3802 19.5938 23.0104 19.7969C22.6406 20 22.5052 20.4636 22.7031 20.8386C22.9063 21.2136 23.3698 21.349 23.7396 21.1458Z" fill="#1D1D1B"/>
<path d="M25.75 22.9792C26.1198 22.776 26.2552 22.3125 26.0573 21.9375C25.8542 21.5677 25.3906 21.4271 25.0208 21.6302C24.651 21.8333 24.5156 22.2969 24.7135 22.6719C24.9167 23.0417 25.3802 23.1823 25.75 22.9792Z" fill="#1D1D1B"/>
<path d="M14.8958 16.5625C15.2656 16.3594 15.401 15.8906 15.2031 15.5208C15 15.1458 14.5365 15.0104 14.1667 15.2135C13.7969 15.4115 13.6615 15.8802 13.8646 16.25C14.0625 16.625 14.526 16.7604 14.8958 16.5625Z" fill="#1D1D1B"/>
<path d="M16.9062 18.3906C17.276 18.1927 17.4114 17.724 17.2135 17.3542C17.0104 16.9792 16.5469 16.8385 16.1771 17.0417C15.8073 17.2448 15.6719 17.7083 15.8698 18.0833C16.0729 18.4583 16.5364 18.5938 16.9062 18.3906Z" fill="#1D1D1B"/>
<path d="M18.9167 20.2239C19.2865 20.0208 19.4219 19.5573 19.224 19.1823C19.0208 18.8125 18.5573 18.6719 18.1875 18.875C17.8177 19.0781 17.6823 19.5417 17.8802 19.9167C18.0833 20.2917 18.5469 20.4271 18.9167 20.2239Z" fill="#1D1D1B"/>
<path d="M19.8906 21.75C20.0938 22.1198 20.5573 22.2604 20.9271 22.0573C21.2969 21.8542 21.4323 21.3906 21.2344 21.0156C21.0313 20.6458 20.5677 20.5052 20.1979 20.7083C19.8281 20.9115 19.6927 21.375 19.8906 21.75Z" fill="#1D1D1B"/>
<path d="M21.901 23.5833C22.1041 23.9531 22.5677 24.0938 22.9375 23.8906C23.3073 23.6875 23.4427 23.2188 23.2448 22.849C23.0416 22.474 22.5781 22.3385 22.2083 22.5365C21.8385 22.7448 21.6979 23.2083 21.901 23.5833Z" fill="#1D1D1B"/>
<path d="M12.2292 17.6771C12.5989 17.474 12.7396 17.0052 12.5364 16.6354C12.3385 16.2604 11.875 16.1198 11.5 16.3229C11.1354 16.526 10.9948 16.9948 11.1979 17.3646C11.3958 17.7396 11.8594 17.875 12.2292 17.6771Z" fill="#1D1D1B"/>
<path d="M14.2396 19.5052C14.6094 19.3073 14.75 18.8385 14.5469 18.4635C14.349 18.0937 13.8854 17.9531 13.5104 18.1562C13.1406 18.3594 13.0052 18.8229 13.2083 19.1979C13.4062 19.5729 13.8698 19.7083 14.2396 19.5052Z" fill="#1D1D1B"/>
<path d="M15.2187 21.0312C15.4166 21.401 15.8802 21.5417 16.25 21.3385C16.6198 21.1354 16.7604 20.6719 16.5573 20.2969C16.3541 19.9271 15.8906 19.7865 15.5208 19.9896C15.151 20.1927 15.0156 20.6562 15.2187 21.0312Z" fill="#1D1D1B"/>
<path d="M17.224 22.8646C17.4271 23.2344 17.8906 23.375 18.2604 23.1719C18.6302 22.9687 18.7656 22.5052 18.5677 22.1302C18.3646 21.7552 17.9011 21.6198 17.5313 21.8229C17.1615 22.026 17.0261 22.4896 17.224 22.8646Z" fill="#1D1D1B"/>
<path d="M19.5417 23.651C19.1719 23.8542 19.0365 24.3229 19.2344 24.6979C19.4375 25.0677 19.901 25.2083 20.2708 25.0052C20.6406 24.8021 20.7813 24.3333 20.5781 23.9635C20.375 23.5885 19.9115 23.4531 19.5417 23.651Z" fill="#1D1D1B"/>
<path d="M21.5521 25.4844C21.1823 25.6875 21.0469 26.1563 21.2448 26.5261C21.4479 26.9011 21.9114 27.0365 22.2812 26.8333C22.651 26.6354 22.7864 26.1667 22.5885 25.7969C22.3854 25.4219 21.9219 25.2813 21.5521 25.4844Z" fill="#1D1D1B"/>
<path d="M11.4271 20.4167C11.7969 20.2135 11.9323 19.75 11.7344 19.375C11.5312 19.0052 11.0677 18.8646 10.6979 19.0677C10.3281 19.2708 10.1927 19.7344 10.3958 20.1094C10.5937 20.4792 11.0573 20.6198 11.4271 20.4167Z" fill="#1D1D1B"/>
<path d="M12.401 21.9375C12.6042 22.3125 13.0677 22.4531 13.4375 22.25C13.8073 22.0469 13.9479 21.5781 13.7448 21.2083C13.5417 20.8333 13.0781 20.6979 12.7083 20.8958C12.3385 21.099 12.2031 21.5677 12.401 21.9375Z" fill="#1D1D1B"/>
<path d="M14.7188 22.7292C14.349 22.9323 14.2136 23.401 14.4115 23.7708C14.6146 24.1458 15.0781 24.2812 15.4479 24.0781C15.8177 23.8802 15.9531 23.4114 15.7552 23.0417C15.5521 22.6667 15.0886 22.5312 14.7188 22.7292Z" fill="#1D1D1B"/>
<path d="M16.7292 24.5625C16.3594 24.7656 16.224 25.2292 16.4219 25.6042C16.625 25.9792 17.0885 26.1146 17.4583 25.9114C17.8281 25.7083 17.9635 25.2448 17.7656 24.8698C17.5625 24.5 17.099 24.3594 16.7292 24.5625Z" fill="#1D1D1B"/>
<path d="M84.224 33.2448C84.2969 33.3437 84.4063 33.3906 84.5208 33.3906C84.599 33.3906 84.6771 33.3698 84.7448 33.3177C84.9115 33.1927 84.9427 32.9531 84.8177 32.7917L82.375 29.5469C82.25 29.3854 82.0156 29.349 81.8542 29.474C81.6875 29.599 81.6563 29.8385 81.7813 30.0052L84.224 33.2448Z" fill="white"/>
<path d="M78.4948 34.125C78.7031 34.125 78.8698 33.9583 78.8698 33.75V30.1406C78.8698 29.9323 78.7031 29.7656 78.4948 29.7656C78.2917 29.7656 78.125 29.9323 78.125 30.1406V33.75C78.125 33.9583 78.2917 34.125 78.4948 34.125Z" fill="white"/>
<path d="M85.0156 29.0625L89.5885 31.5677C89.6406 31.6042 89.7031 31.6146 89.7656 31.6146C89.8958 31.6146 90.026 31.5469 90.0937 31.4219C90.1927 31.2396 90.125 31.0104 89.9427 30.9062L85.375 28.401C85.1927 28.3021 84.9635 28.3698 84.8646 28.5521C84.7656 28.7344 84.8333 28.9635 85.0156 29.0625Z" fill="white"/>
<path d="M72.2656 33.3177C72.3333 33.3698 72.4115 33.3906 72.4896 33.3906C72.6042 33.3906 72.7136 33.3437 72.7865 33.2448L75.2292 30C75.3542 29.8385 75.3229 29.599 75.1563 29.474C74.9948 29.349 74.7604 29.3854 74.6354 29.5469L72.1927 32.7917C72.0677 32.9531 72.099 33.1927 72.2656 33.3177Z" fill="white"/>
<path d="M67.2448 31.6146C67.3073 31.6146 67.3698 31.599 67.4219 31.5677L71.9948 29.0573C72.1771 28.9583 72.2448 28.7344 72.1458 28.5521C72.0469 28.3646 71.8177 28.3021 71.6354 28.4011L67.0677 30.9115C66.8854 31.0104 66.8177 31.2396 66.9167 31.4167C66.9844 31.5469 67.1146 31.6146 67.2448 31.6146Z" fill="white"/>
<path d="M78.4896 23.8125C78.5364 23.7709 78.5729 23.7188 78.5937 23.6615C78.6094 23.6354 78.6146 23.6094 78.625 23.5781L78.6614 23.3906C78.7864 23.3854 78.9635 23.3906 79.1771 23.4219C79.3958 23.4531 79.5625 23.5 79.6771 23.5469L79.5989 23.9271C79.5833 24.0313 79.4948 24.2865 79.375 24.4011L78.2448 25.3334C78.1666 25.1979 78.0729 25.0573 77.9583 24.9167C77.8437 24.7761 77.7239 24.6459 77.6094 24.5417L78.4896 23.8125ZM79.1354 21.0834C79.2344 21.0573 79.4219 21.0313 79.6614 21.0677C79.901 21.1042 80.0677 21.1823 80.151 21.2344L79.7552 23.1823C79.5521 23.1146 79.3385 23.0781 79.2291 23.0625C79.0573 23.0365 78.8854 23.0209 78.7344 23.0261L79.1354 21.0834ZM76.7239 24.3281C76.3281 24.6563 76.75 25.3073 77.0364 25.6667C77.2031 25.8698 77.3802 26.0521 77.5416 26.1667C77.7239 26.3073 77.8802 26.3542 78 26.3542C78.0573 26.3542 78.1094 26.3438 78.1562 26.3229C78.1979 26.3073 78.2344 26.2865 78.2708 26.2604L79.8437 24.9584C79.8489 24.9531 79.8489 24.9479 79.8541 24.9479C80.1875 24.6459 80.2969 24.1354 80.3125 24.0781L80.8802 21.2865C80.8854 21.2709 80.8854 21.2604 80.8854 21.2448C80.8906 21.2344 80.8906 21.2188 80.8906 21.2031C80.9479 20.7604 80.3646 20.4375 79.7656 20.349C79.3437 20.2865 78.7239 20.3229 78.5156 20.6459C78.4896 20.6875 78.4687 20.7344 78.4583 20.7865L77.9375 23.3229L76.7291 24.3281C76.7239 24.3281 76.7239 24.3281 76.7239 24.3281Z" fill="white"/>
<path d="M90.6302 32.3594C87.4323 34.4062 83.0989 35.5312 78.4323 35.5312C73.7187 35.5312 69.3698 34.4635 66.1875 32.5312C64.6406 31.5885 63.4375 30.4792 62.6041 29.2448C61.8906 28.1719 61.4739 27.026 61.3646 25.8281C61.3646 25.8177 61.3646 25.8125 61.3646 25.8021C61.3333 25.3646 61.3802 24.9896 61.4166 24.7708C62.4427 19.7552 68.7969 15.7969 76.7187 15.2917C76.776 15.4167 76.8437 15.5364 76.9375 15.6406C76.9739 15.6875 77.0156 15.7187 77.0677 15.7396C76.9844 15.9375 76.9219 16.0989 76.875 16.2031C76.8646 16.2344 76.8541 16.2656 76.8541 16.2969C76.7812 16.5156 76.7448 16.7292 76.7396 16.9271C74.6302 17.1198 72.6823 17.6614 71.1354 18.5052C69.1041 19.6094 67.9791 21.0989 67.9791 22.7083C67.9791 24.3177 69.1041 25.8073 71.1354 26.9114C73.0989 27.9739 75.7031 28.5625 78.4687 28.5625C81.2291 28.5625 83.8333 27.9739 85.7969 26.9114C87.8333 25.8073 88.9531 24.3177 88.9531 22.7083C88.9531 21.0989 87.8333 19.6094 85.7969 18.5052C84.1875 17.6302 82.1406 17.0781 79.9323 16.9062C80.0625 16.5989 80.2031 16.2656 80.3385 15.9427C80.4323 15.7187 80.5208 15.5 80.5989 15.3281C81.3489 15.3906 82.0937 15.4792 82.8281 15.6042C82.8646 15.9792 83.0469 16.3021 83.3646 16.5364C83.6302 16.7292 83.9531 16.8281 84.276 16.8281C84.5937 16.8281 84.9062 16.7344 85.1562 16.5364C85.2448 16.4687 85.3646 16.3646 85.5 16.2239C87.4531 16.7917 89.2083 17.5781 90.7239 18.5729C92.2864 19.5989 93.5104 20.7864 94.3646 22.0989C94.7604 22.7135 95.0677 23.3385 95.2812 23.9792C95.2812 23.9792 95.4635 24.4687 95.4583 25.1302C95.3437 27.8802 93.6406 30.4375 90.6302 32.3594ZM77.5521 18.3906C77.7812 18.5052 78.026 18.5625 78.2656 18.5625C78.75 18.5625 79.2083 18.3385 79.4479 17.9375C79.4948 17.8594 79.5521 17.75 79.6146 17.6146C81.8229 17.75 83.8646 18.2812 85.4531 19.1458C87.2448 20.1146 88.2291 21.3802 88.2291 22.7083C88.2291 23.6198 87.7656 24.5 86.8958 25.276C86.6406 24.4739 85.7604 23.75 84.3489 23.2083C83.4948 22.8802 82.4896 22.6354 81.3958 22.4739L81.25 23.1875C82.3073 23.3385 83.2708 23.5781 84.0885 23.8906C85.4583 24.4167 86.2448 25.0989 86.2448 25.7604C86.2448 25.7708 86.2448 25.776 86.2448 25.7864C86.0052 25.9531 85.7396 26.1146 85.4531 26.2708C83.5937 27.276 81.1094 27.8333 78.4687 27.8333C75.8229 27.8333 73.3385 27.276 71.4791 26.2708C71.1823 26.1094 70.9062 25.9375 70.651 25.7604C70.651 25.0989 71.4375 24.4167 72.8073 23.8906C74.0312 23.4219 75.5885 23.125 77.2812 23.0312L77.4323 22.2917C75.5937 22.3802 73.8854 22.6979 72.5521 23.2083C71.151 23.7448 70.276 24.4583 70.0104 25.25C69.1614 24.4844 68.7083 23.6094 68.7083 22.7083C68.7083 21.3802 69.6927 20.1146 71.4791 19.1458C72.9583 18.3437 74.8281 17.8281 76.8594 17.651C76.9948 17.9687 77.2344 18.2292 77.5521 18.3906ZM82.0781 13.6042C82.4166 13.3437 83.5312 12.5417 84.4531 11.8802C84.0364 12.6198 83.5573 13.5 83.2239 14.1979C82.7135 14.1042 82.1927 14.026 81.6666 13.9687C81.8073 13.8333 81.9427 13.7083 82.0781 13.6042ZM97.1094 26.2292C97.0989 24.5208 96.5833 22.8646 95.5781 21.3073C94.6146 19.8177 93.25 18.4896 91.5104 17.3542C90.0416 16.3906 88.375 15.6094 86.5729 15.026C87.8125 13.5573 89.4427 11.4531 90.2239 10.3489C91.2344 8.93228 91.3385 6.64062 91.401 5.27603C91.4114 5.0677 91.4219 4.87499 91.4323 4.71353C91.1041 4.47395 90.8646 4.3802 90.7344 4.34895C90.7083 4.57291 90.6927 4.86978 90.6771 5.23957C90.6198 6.52603 90.5208 8.68228 89.6354 9.92707C89.0364 10.7708 87.9687 12.1667 86.9687 13.401C85.8594 14.7708 85.0156 15.7292 84.7187 15.9583C84.4687 16.151 84.0625 16.1458 83.7916 15.9479C83.6198 15.8229 83.4531 15.5833 83.6041 15.1562C83.9948 14.0312 85.8333 10.9427 85.9166 10.7969L85.9219 10.7917V10.7864C85.9271 10.776 85.9323 10.7708 85.9375 10.7604C85.9375 10.7552 85.9375 10.7552 85.9427 10.75C85.9479 10.7448 85.9479 10.7344 85.9479 10.7292C85.9531 10.7239 85.9531 10.7187 85.9583 10.7135C85.9583 10.7083 85.9583 10.7031 85.9583 10.6979C85.9635 10.6927 85.9635 10.6823 85.9635 10.6771C85.9635 10.6719 85.9687 10.6667 85.9687 10.6614C85.9687 10.6562 85.9687 10.651 85.9687 10.6406C85.9687 10.6354 85.9687 10.6302 85.9687 10.625C85.9739 10.6198 85.9739 10.6146 85.9739 10.6094C85.9739 10.6042 85.9739 10.5989 85.9739 10.5937C85.9739 10.5833 85.9687 10.5781 85.9687 10.5729C85.9687 10.5677 85.9687 10.5625 85.9687 10.5573C85.9687 10.5521 85.9687 10.5469 85.9687 10.5417C85.9635 10.5312 85.9635 10.526 85.9635 10.5208C85.9635 10.5156 85.9583 10.5104 85.9583 10.5052C85.9583 10.5 85.9531 10.4948 85.9531 10.4844C85.9531 10.4792 85.9479 10.4792 85.9479 10.4739C85.9427 10.4687 85.9427 10.4583 85.9375 10.4531C85.9375 10.4479 85.9323 10.4427 85.9323 10.4375C85.9271 10.4323 85.9271 10.4271 85.9219 10.4219C85.9219 10.4167 85.9166 10.4114 85.9114 10.401C85.9062 10.401 85.9062 10.3958 85.9062 10.3958V10.3906C85.901 10.3854 85.8958 10.3802 85.8854 10.3698C85.8854 10.3698 85.8854 10.3646 85.8802 10.3646C85.875 10.3594 85.8698 10.3542 85.8646 10.3489C85.8646 10.3437 85.8594 10.3385 85.8541 10.3385C85.8541 10.3333 85.8489 10.3333 85.8437 10.3281C85.8385 10.3229 85.8333 10.3177 85.8281 10.3125H85.8229C85.8125 10.3021 85.8073 10.2969 85.7969 10.2917C85.7916 10.2917 85.7916 10.2917 85.7916 10.2864C85.7812 10.2864 85.776 10.2812 85.7656 10.276C85.7604 10.276 85.7552 10.2708 85.7552 10.2708C85.7448 10.2656 85.7396 10.2656 85.7344 10.2656C85.7291 10.2604 85.7239 10.2604 85.7135 10.2552C85.7135 10.2552 85.7083 10.2552 85.7031 10.2552C85.6927 10.25 85.6875 10.25 85.6771 10.25C85.6771 10.25 85.6719 10.2448 85.6666 10.2448C85.6614 10.2448 85.651 10.2448 85.6458 10.2448C85.6406 10.2396 85.6354 10.2396 85.6302 10.2396C85.625 10.2396 85.6198 10.2396 85.6094 10.2396C85.6041 10.2396 85.5989 10.2396 85.5937 10.2396C85.5885 10.2396 85.5833 10.2396 85.5781 10.2396C85.5729 10.2448 85.5677 10.2448 85.5625 10.2448C85.5573 10.2448 85.5521 10.2448 85.5469 10.2448C85.5364 10.25 85.5312 10.25 85.526 10.25C85.5208 10.25 85.5156 10.2552 85.5104 10.2552C85.5052 10.2552 85.5 10.2604 85.4948 10.2604C85.4896 10.2604 85.4844 10.2656 85.4791 10.2656C85.4739 10.2708 85.4687 10.2708 85.4583 10.2708C85.4531 10.276 85.4479 10.2812 85.4427 10.2812C85.4375 10.2864 85.4323 10.2864 85.4323 10.2864C85.4219 10.2917 85.4166 10.2969 85.4062 10.3021C85.4062 10.3073 85.401 10.3073 85.401 10.3073C85.401 10.3073 85.3958 10.3073 85.3958 10.3125C85.2135 10.4375 82.25 12.5521 81.6354 13.026C81.1771 13.3802 80.6458 13.9739 80.3698 14.2969C80.2135 14.4739 80.0885 14.6823 79.9948 14.901C79.9114 15.0885 79.7969 15.3542 79.6719 15.6614C79.3854 16.3437 78.9948 17.276 78.8281 17.5625C78.6614 17.8385 78.2291 17.9167 77.875 17.7396C77.4271 17.5104 77.3385 16.9792 77.625 16.2864C77.8802 15.6667 78.4323 14.3177 78.6771 13.7187C78.7239 13.5885 78.7969 13.4739 78.8802 13.3698C79.2604 12.9167 80.2291 11.7656 81.1041 10.8177C81.2396 10.6667 81.2344 10.4375 81.0833 10.3021C80.9375 10.1667 80.7083 10.1719 80.5729 10.3229C79.6875 11.2812 78.7083 12.4427 78.3281 12.901C78.1927 13.0625 78.0833 13.2448 78.0052 13.4375C77.8594 13.7969 77.6094 14.4114 77.375 14.9844C77.2604 14.7292 77.2396 14.3489 77.3177 13.8906C77.3229 13.875 77.3229 13.8594 77.3229 13.8489C77.3229 13.8333 77.3854 12.6458 77.9635 11.4635C78.1927 10.9896 78.7187 10.4948 79.2812 9.96874C79.5573 9.70832 79.8437 9.43749 80.1041 9.15624C80.2448 9.01041 80.2344 8.78124 80.0937 8.64582C79.9427 8.5052 79.7187 8.51041 79.5781 8.66145C79.3333 8.92186 79.0573 9.18228 78.7864 9.43749C78.1771 10.0104 77.6041 10.5469 77.3125 11.1458C77.1094 11.5573 76.9635 11.9687 76.8594 12.3437C76.8385 12.2396 76.8229 12.1302 76.8125 12.0156C76.8177 11.8333 76.8698 10.2708 77.4062 9.16145C77.526 8.90624 77.8385 8.66145 78.2031 8.3802C78.5104 8.13541 78.8646 7.86457 79.1719 7.51561C79.3073 7.36978 79.2969 7.13541 79.1458 7.0052C79 6.86978 78.7708 6.8802 78.6354 7.03124C78.3958 7.29686 78.1198 7.52082 77.8437 7.73436C78.0312 7.27082 78.2812 6.73957 78.6094 6.28645C79.3281 5.29686 80.2656 4.95311 81.4583 4.51561C82.3385 4.1927 83.3333 3.82291 84.4635 3.1302C84.6146 3.03645 84.8125 2.86978 85.0156 2.6927L83.9114 2.60416C82.9166 3.1927 82.0104 3.53645 81.2135 3.82811C79.9583 4.29166 78.8698 4.68749 78.026 5.85936C77.1666 7.04166 76.7864 8.64582 76.7708 8.71353C76.7604 8.74999 76.7552 8.79166 76.7604 8.82812C76.7552 8.83332 76.7552 8.83853 76.75 8.84374C76.1198 10.1667 76.0885 11.9479 76.0885 12.026C76.0885 12.0364 76.0885 12.0469 76.0885 12.0625C76.1302 12.4948 76.2187 12.8646 76.3646 13.1614C76.4219 13.276 76.5312 13.3489 76.6458 13.3646C76.6146 13.5781 76.6041 13.7344 76.5989 13.7864C76.5989 13.8073 76.5937 13.8229 76.5937 13.8437C72.3646 14.1146 68.4375 15.3229 65.3854 17.3177C63.6614 18.4427 62.2969 19.7656 61.3437 21.2448C60.5469 22.4792 60.0625 23.7708 59.8906 25.1146C59.8437 25.4739 59.8229 25.8385 59.8229 26.1979C59.8229 26.2083 59.8229 26.2135 59.8229 26.2187C59.8229 26.2292 59.8229 26.2448 59.8229 26.2604V26.7135H59.8177V39.2344C60.25 39.6406 60.7344 40.0469 61.2656 40.4479V32.2083H61.2708V29.8437C62.2135 31.3333 63.6146 32.6667 65.4375 33.776C68.8437 35.8489 73.4583 36.9896 78.4323 36.9896C83.3698 36.9896 87.9791 35.7812 91.4062 33.5937C93.2916 32.3854 94.7291 30.9427 95.6614 29.3489V40.4479C96.1875 40.0469 96.6719 39.6406 97.1094 39.2344V32.875C97.1094 32.8698 97.1094 32.8698 97.1094 32.8646C97.1094 32.8542 97.1094 32.8437 97.1094 32.8333V26.2604C97.1094 26.25 97.1094 26.2396 97.1094 26.2292Z" fill="white"/>
<path d="M64.7292 39.6979C63.526 39.6979 62.9375 40.3594 62.9375 41.7187V45.4167C62.9375 46.7187 63.5 47.3281 64.7083 47.3281C65.7656 47.3281 66.2813 46.8489 66.2813 45.875V44.9739H65.151V45.5729C65.151 46.0885 64.9792 46.3542 64.6302 46.3542C64.3854 46.3542 64.125 46.2812 64.125 45.4323V41.8385C64.125 40.9219 64.2396 40.6719 64.6615 40.6719C64.8698 40.6719 65.151 40.7396 65.151 41.3437V41.9427H66.2813V41.1198C66.2813 40.2031 65.7292 39.6979 64.7292 39.6979Z" fill="white"/>
<path d="M67.0989 47.2656H70.0208V46.2292H68.2916V43.9375H69.9219V42.9062H68.2916V40.7969H70.0208V39.7604H67.0989V47.2656Z" fill="white"/>
<path d="M73.3802 45.1042L72.3333 39.7604H70.7812V47.2656H71.849V41.7812L72.8802 47.1927L72.8906 47.2656H74.5104V39.7604H73.3802V45.1042Z" fill="white"/>
<path d="M76.7708 40.7969H77.0833C77.8542 40.7969 77.9583 41.0677 77.9583 42.151V44.6667C77.9583 45.9375 77.8073 46.2292 77.1615 46.2292H76.7708V40.7969ZM77.2917 39.7604H75.5781V47.2656H77.1302C78.8646 47.2656 79.1458 46.5104 79.1458 44.7083V42.5312C79.1458 40.4687 79.0573 39.7604 77.2917 39.7604Z" fill="white"/>
<path d="M81.375 40.7969H81.7708C82.2969 40.7969 82.3646 40.7969 82.3646 41.8906C82.3646 42.9739 82.2604 43.0469 81.5469 43.0469H81.375V40.7969ZM83.5104 46.2396V44.651C83.5104 43.9948 83.3021 43.6354 82.8125 43.5C83.4427 43.2135 83.5521 42.7448 83.5521 41.8489C83.5521 40.2708 83.4219 39.7604 81.8385 39.7604H80.1875V47.2656H81.375V44.0781H81.6302C82.2188 44.0781 82.3229 44.1979 82.3229 44.8594V46.5156C82.3229 46.8177 82.3438 47.0156 82.4583 47.2187L82.4844 47.2656H83.5938L83.5729 47.1562C83.5104 46.8594 83.5104 46.5052 83.5104 46.2396Z" fill="white"/>
<path d="M84.5833 47.2656H85.7708V39.7604H84.5833V47.2656Z" fill="white"/>
<path d="M86.8125 47.2656H89.7344V46.2292H88V43.9375H89.6354V42.9062H88V40.7969H89.7344V39.7604H86.8125V47.2656Z" fill="white"/>
<path d="M91.6823 40.7969H92.0729C92.5989 40.7969 92.6667 40.7969 92.6667 41.8906C92.6667 42.9739 92.5677 43.0469 91.8542 43.0469H91.6823V40.7969ZM93.875 47.1562C93.8177 46.8594 93.8177 46.5052 93.8177 46.2396V44.651C93.8177 43.9948 93.6042 43.6354 93.1146 43.5C93.75 43.2135 93.8594 42.7448 93.8594 41.8489C93.8594 40.2708 93.7239 39.7604 92.1458 39.7604H90.4948V47.2656H91.6823V44.0781H91.9323C92.526 44.0781 92.625 44.1979 92.625 44.8594V46.5156C92.625 46.8177 92.651 47.0156 92.7604 47.2187L92.7864 47.2656H93.8958L93.875 47.1562Z" fill="white"/>
</g>
<defs>
<clipPath id="clip0_24_7053">
<rect width="104" height="51" fill="white"/>
</clipPath>
</defs>
</svg>
