<svg width="227" height="61" viewBox="0 0 227 61" fill="none" xmlns="http://www.w3.org/2000/svg">
<g clip-path="url(#clip0_26_20011)">
<path d="M24.8542 60.7916C11.2344 60.7916 0.15625 49.8385 0.15625 36.3801V0.317627H201.323C214.938 0.317627 226.016 11.2655 226.016 24.7239L226.021 60.7916" fill="white"/>
<path d="M201.323 5.98438H50.2708V36.3802C50.2708 46.7135 58.802 55.1198 69.2916 55.1198H220.349V24.724C220.349 14.3958 211.812 5.98438 201.323 5.98438Z" fill="white"/>
<path d="M218.458 53.2292H69.2916C59.8437 53.2292 52.1562 45.6719 52.1562 36.3802V7.875H201.323C210.771 7.875 218.458 15.4323 218.458 24.724V53.2292ZM201.323 5.98438H50.2708V36.3802C50.2708 46.7135 58.802 55.1198 69.2916 55.1198H220.349V24.724C220.349 14.3958 211.812 5.98438 201.323 5.98438Z" fill="#FCC42F"/>
<path d="M163.089 55.1198L176.099 28.5417L162.807 5.98438H201.323C211.812 5.98438 220.349 14.3906 220.349 24.724V55.1198" fill="#FCC42F"/>
<path d="M201.323 7.875H166.115L178.245 28.4583L166.12 53.2292H218.458V24.724C218.458 15.4323 210.771 7.875 201.323 7.875Z" fill="#FCC42F"/>
<path d="M206.281 41.6615H205.078C204.979 41.6615 204.885 41.6719 204.792 41.6875C205.354 35.4323 206.224 25.7708 206.646 21.3958C206.687 20.9531 206.359 20.5573 205.917 20.5156C205.464 20.4635 205.073 20.7969 205.031 21.2448C204.385 27.9635 202.677 47.1458 202.661 47.3385C202.63 47.6615 202.312 47.9271 201.943 47.9271H188.854C188.479 47.9271 188.167 47.6615 188.135 47.3385C188.12 47.1458 186.411 27.9635 185.766 21.2448C185.724 20.7969 185.333 20.4635 184.88 20.5156C184.437 20.5573 184.109 20.9531 184.151 21.3958C184.573 25.7708 185.443 35.4271 186.005 41.6875C185.911 41.6667 185.812 41.6562 185.719 41.6562H184.516C183.74 41.6562 183.104 42.2917 183.104 43.0677V48.1406C183.104 48.9167 183.74 49.5469 184.516 49.5469H185.719C186.297 49.5469 186.802 49.1927 187.016 48.6823C187.443 49.2135 188.104 49.5469 188.854 49.5469H201.943C202.687 49.5469 203.349 49.2135 203.781 48.6875C203.995 49.1927 204.495 49.5521 205.078 49.5521H206.281C207.057 49.5521 207.687 48.9219 207.687 48.1406V43.0677C207.687 42.2917 207.057 41.6615 206.281 41.6615Z" fill="#1C1C1B"/>
<path d="M190.344 25.1198V27.4115H191.016C191.411 27.4115 191.625 27.2292 191.625 26.6771V26.026C191.625 25.3333 191.401 25.1198 190.865 25.1198H190.344ZM190.344 22.0833V24.0521H190.802C191.24 24.0521 191.505 23.8646 191.505 23.2656V22.849C191.505 22.3125 191.323 22.0833 190.906 22.0833H190.344ZM192.677 22.7344V23C192.677 23.7656 192.443 24.2448 191.922 24.4896V24.5104C192.547 24.7604 192.797 25.3125 192.797 26.099V26.7083C192.797 27.8594 192.187 28.4792 191.016 28.4792H189.172V21.0156H190.938C192.156 21.0156 192.677 21.5833 192.677 22.7344Z" fill="#1C1C1B"/>
<path d="M194.833 26.1146H195.964L195.411 22.3385H195.385L194.833 26.1146ZM197.51 28.4792H196.328L196.125 27.125H194.688L194.479 28.4792H193.406L194.599 21.0156H196.313" fill="#1C1C1B"/>
<path d="M201.661 25.6926V26.6874C201.661 27.8801 201.062 28.5624 199.911 28.5624C198.76 28.5624 198.161 27.8801 198.161 26.6874V22.8072C198.161 21.6093 198.76 20.927 199.911 20.927C201.062 20.927 201.661 21.6093 201.661 22.8072V23.5312H200.552V22.7291C200.552 22.1978 200.318 21.9947 199.943 21.9947C199.573 21.9947 199.338 22.1978 199.338 22.7291V26.7603C199.338 27.2916 199.573 27.4843 199.943 27.4843C200.318 27.4843 200.552 27.2916 200.552 26.7603V25.6926" fill="#1C1C1B"/>
<path d="M192.703 31.2083V36.5365H193.365C193.734 36.5365 193.958 36.3438 193.958 35.8125V31.9323C193.958 31.401 193.734 31.2083 193.365 31.2083H192.703ZM191.531 30.1406H193.385C194.557 30.1406 195.13 30.7917 195.13 31.9844V35.7604C195.13 36.9531 194.557 37.6042 193.385 37.6042H191.531" fill="#1C1C1B"/>
<path d="M197.266 33.2865H198.875V34.349H197.266V36.5365H199.292V37.6042H196.094V30.1406H199.292V31.2031H197.266" fill="#1C1C1B"/>
<path d="M190.161 39.2656H193.786V40.3281H192.562V46.7292H191.385V40.3281H190.161" fill="#1C1C1B"/>
<path d="M195.688 40.3281V42.625H196.146C196.583 42.625 196.849 42.4323 196.849 41.8333V41.099C196.849 40.5677 196.667 40.3281 196.25 40.3281H195.688ZM196.969 46.7292C196.901 46.5365 196.859 46.4167 196.859 45.8125V44.6354C196.859 43.9479 196.625 43.6875 196.094 43.6875H195.688V46.7292H194.516V39.2656H196.286C197.5 39.2656 198.021 39.8281 198.021 40.9792V41.5677C198.021 42.3333 197.776 42.8229 197.255 43.0729V43.0938C197.839 43.3385 198.031 43.8906 198.031 44.6719V45.8229C198.031 46.1823 198.042 46.4531 198.161 46.7292" fill="#1C1C1B"/>
<path d="M199.016 46.7292H200.188V39.2656H199.016V46.7292Z" fill="#1C1C1B"/>
<path d="M207.125 17.6197H183.672V15.6666C183.672 15.5989 183.703 15.5676 183.698 15.5676H185.396C185.589 15.5676 185.771 15.4999 185.917 15.3697L188.047 13.5103C188.141 13.427 188.37 13.3437 188.661 13.3437H202.13C202.422 13.3437 202.656 13.427 202.75 13.5103L204.88 15.3697C205.026 15.4999 205.208 15.5676 205.401 15.5676H207.099C207.089 15.5676 207.125 15.5989 207.125 15.6666V17.6197ZM207.099 13.9791H205.698L203.792 12.3176C203.385 11.9583 202.781 11.7551 202.13 11.7551H188.661C188.016 11.7551 187.411 11.9583 187 12.3176L185.094 13.9791H183.698C182.807 13.9791 182.089 14.7395 182.089 15.6666V17.8124C182.089 18.1093 182.161 18.401 182.307 18.6614C182.37 18.7708 182.458 18.8697 182.562 18.9374C182.823 19.1093 183.12 19.1978 183.427 19.1978H207.37C207.677 19.1978 207.974 19.1093 208.234 18.9374C208.339 18.8697 208.427 18.7708 208.49 18.6614C208.63 18.401 208.708 18.1093 208.708 17.8124V15.6666C208.708 14.7395 207.984 13.9791 207.099 13.9791Z" fill="#1C1C1B"/>
<path d="M202.125 14.0781H188.667C188.297 14.0781 187.995 14.3802 187.995 14.75C187.995 15.1198 188.297 15.4219 188.667 15.4219H202.125C202.495 15.4219 202.797 15.1198 202.797 14.75C202.797 14.3802 202.495 14.0781 202.125 14.0781Z" fill="#1C1C1B"/>
<path d="M103.057 5.98438H50.2708V36.3802C50.2708 46.7135 58.802 55.1198 69.2916 55.1198H122.083V24.724C122.083 14.3958 113.547 5.98438 103.057 5.98438Z" fill="#FCC42F"/>
<path d="M63.8072 29.677C59.0051 29.677 55.1145 33.5676 55.1145 38.3697C55.1145 43.1718 59.0051 47.0624 63.8072 47.0624C68.6145 47.0624 72.5051 43.1718 72.5051 38.3697C72.5051 33.5676 68.6145 29.677 63.8072 29.677Z" fill="white"/>
<path d="M69.4792 39.7865H65.2292V44.0417H62.3906V39.7865H58.1406V36.9531H62.3906V32.7031H65.2292V36.9531H69.4792" fill="#1C1C1B"/>
<path d="M55.9426 26.9167V17.5156H58.427V24.8333H61.9843V26.9167" fill="#1C1C1B"/>
<path d="M63.0989 26.9167V17.5156H69.1718V19.599H65.5885V21.0729H68.651V23.1563H65.5885V24.8333H69.3176V26.9167" fill="#1C1C1B"/>
<path d="M75.2448 26.9167V19.599H72.7604V17.5156H80.2239V19.599H77.7343V26.9167" fill="#1C1C1B"/>
<path d="M83.7083 21.7969H84.6042C85.6042 21.7969 86.1094 21.3802 86.1094 20.5521C86.1094 20.1458 85.9792 19.8698 85.724 19.7135C85.4688 19.5573 85.0938 19.4792 84.6042 19.4792H83.7083V21.7969ZM81.2188 26.9167V17.5156H84.776C85.2813 17.5156 85.7604 17.5625 86.2188 17.6563C86.6771 17.7552 87.0729 17.9219 87.4167 18.151C87.7604 18.3802 88.0313 18.6927 88.2344 19.0833C88.4375 19.474 88.5365 19.9635 88.5365 20.5521C88.5365 21.2292 88.401 21.7865 88.125 22.2292C87.8542 22.6719 87.4844 23.0208 87.0208 23.2708L89.0573 26.9167H86.2813L84.6615 23.7604H83.7083V26.9167" fill="#1C1C1B"/>
<path d="M90.026 26.9167H92.5156V17.5156H90.026V26.9167Z" fill="#1C1C1B"/>
<path d="M75.5364 43.5937V34.1926H81.6666V36.276H78.026V38.0676H81.1458V40.151H78.026V43.5937" fill="#1C1C1B"/>
<path d="M85.0781 39.0208L84.9166 39.6718H86.651L86.4948 39.0208C86.3802 38.5676 86.2604 38.078 86.1458 37.5468C86.0312 37.0155 85.9166 36.5155 85.7968 36.0416H85.7395C85.6354 36.526 85.526 37.0312 85.4166 37.552C85.3073 38.078 85.1927 38.5676 85.0781 39.0208ZM81.4635 43.5937L84.3229 34.1926H87.3281L90.1927 43.5937H87.5625L87.0989 41.5989H84.4687L84.0052 43.5937" fill="#1C1C1B"/>
<path d="M94.7187 43.7656C94.1249 43.7656 93.552 43.6667 93.0103 43.4688C92.4635 43.2708 91.9895 42.974 91.578 42.5729C91.1666 42.1719 90.8385 41.6719 90.5989 41.0677C90.3593 40.4688 90.2395 39.7656 90.2395 38.9635C90.2395 38.1771 90.3645 37.474 90.6145 36.8594C90.8645 36.25 91.1978 35.7344 91.6197 35.3125C92.0364 34.8958 92.5208 34.5729 93.0676 34.349C93.6145 34.1302 94.1822 34.0156 94.7812 34.0156C95.4062 34.0156 95.9687 34.1406 96.4583 34.3854C96.953 34.6354 97.3645 34.9271 97.703 35.2604L96.401 36.8542C96.1718 36.651 95.9322 36.4844 95.6874 36.3542C95.4374 36.224 95.1562 36.1563 94.8385 36.1563C94.5572 36.1563 94.2968 36.2188 94.052 36.349C93.8072 36.474 93.5885 36.651 93.401 36.8802C93.2135 37.1146 93.0624 37.401 92.953 37.7344C92.8385 38.0729 92.7864 38.4531 92.7864 38.875C92.7864 39.7656 92.9687 40.4479 93.3437 40.9167C93.7135 41.3906 94.203 41.625 94.8072 41.625C95.177 41.625 95.4999 41.5469 95.7864 41.3854C96.0676 41.2292 96.3124 41.0365 96.5155 40.8177L97.8176 42.375C97.4114 42.8438 96.9478 43.1875 96.4218 43.4167C95.8958 43.651 95.328 43.7656 94.7187 43.7656Z" fill="#1C1C1B"/>
<path d="M98.776 43.5937H101.26V34.1926H98.776V43.5937Z" fill="#1C1C1B"/>
<path d="M103.031 43.5937V34.1926H105.521V41.5103H109.078V43.5937" fill="#1C1C1B"/>
<path d="M110.188 43.5937V34.1926H116.266V36.276H112.677V37.7499H115.745V39.8333H112.677V41.5103H116.411V43.5937" fill="#1C1C1B"/>
<path d="M28.5624 26.0625C26.8697 28.5521 28.3072 31.8281 30.052 33.4896C31.6458 35 32.9218 35.3594 33.0885 35.401L33.901 33.8438L36.2447 40.2552L29.6197 41.599L30.4999 39.9688L29.6041 39.4635C26.8124 37.6458 26.2239 35.1771 26.0312 34.4063C25.6978 33.0781 25.203 29.1094 28.5624 26.0625Z" fill="#1C1C1B"/>
<path d="M28.5312 26.1718C29.7344 28.927 33.2708 29.4635 35.6042 28.8697C37.6771 28.3437 38.6615 27.4895 38.8281 27.3333L38.8177 27.3176L37.9323 25.7864L44.599 27.2395L42.1875 33.5572L41.2917 31.9687L40.4219 32.4374C37.3958 33.828 34.9896 33.0103 34.2344 32.7603C32.9375 32.3333 29.3125 30.6353 28.5312 26.1718Z" fill="#1C1C1B"/>
<path d="M40.3177 19.5156C39.8541 22.8125 37.8698 24.3958 37.25 24.8958C36.1875 25.7552 32.802 27.8854 28.6198 26.1354C31.5937 26.6094 33.9531 23.9271 34.7135 21.6406C35.401 19.5885 35.1979 18.2917 35.1562 18.0885H35.1354L33.3698 18.0104L38.1823 13.1719L42.2083 18.6094L40.3906 18.5052" fill="#1C1C1B"/>
<path fill-rule="evenodd" clip-rule="evenodd" d="M20.0938 16.7291C18.5729 16.7291 17.3438 15.4999 17.3438 13.9791C17.3438 12.4583 18.5729 11.2239 20.0938 11.2239C21.6146 11.2239 22.849 12.4583 22.849 13.9791C22.849 15.4999 21.6146 16.7291 20.0938 16.7291Z" fill="#1C1C1B"/>
<path d="M15.8333 30.1146C16.0677 29.4688 16.4167 29.5104 16.4167 29.5104C16.4167 29.5104 16.7344 29.4427 16.9115 30.0938L19.4844 39.125C17.3385 38.5052 15.3802 37.4375 13.7135 36.0313L15.8333 30.1146ZM23.8594 5.98438C13.9167 5.98438 5.82812 14.0729 5.82812 24.0208C5.82812 33.9583 13.9167 42.0521 23.8594 42.0521C24.3906 42.0521 24.9115 42.0156 25.4323 41.9688L25.5521 43.7813L28.8542 40.5885L25.1615 37.776L25.3021 39.6771C24.8281 39.7188 24.3438 39.75 23.8594 39.75C23.0938 39.75 22.3438 39.6927 21.6094 39.5885L21.5365 39.1094L19.8229 24.5104C19.5885 21.7552 21.1615 21.3125 22.1354 21.7292L27.6042 23.9219C28.2292 24.1927 28.5313 23.6719 28.5313 23.6719C28.5313 23.6719 28.8854 23.1198 28.25 22.7135C28.25 22.7135 20.7969 17.776 19.2083 17.4792C17.0417 17.0729 14.8958 18.8281 14.4219 21.1146L11.776 34.0833C9.5 31.349 8.125 27.8438 8.125 24.0208C8.125 15.3438 15.1823 8.28646 23.8594 8.28646C28.4948 8.28646 32.6667 10.3021 35.5469 13.4948L37.1615 11.8594C33.8646 8.25 29.1198 5.98438 23.8594 5.98438Z" fill="#1C1C1B"/>
<path d="M129.022 30.787C129.022 31.219 129.031 31.588 129.049 31.894C129.073 32.194 129.115 32.44 129.175 32.632C129.241 32.818 129.331 32.956 129.445 33.046C129.565 33.13 129.721 33.172 129.913 33.172C130.105 33.172 130.258 33.13 130.372 33.046C130.492 32.956 130.582 32.818 130.642 32.632C130.708 32.44 130.75 32.194 130.768 31.894C130.792 31.588 130.804 31.219 130.804 30.787C130.804 30.355 130.792 29.989 130.768 29.689C130.75 29.389 130.708 29.143 130.642 28.951C130.582 28.759 130.492 28.621 130.372 28.537C130.258 28.447 130.105 28.402 129.913 28.402C129.721 28.402 129.565 28.447 129.445 28.537C129.331 28.621 129.241 28.759 129.175 28.951C129.115 29.143 129.073 29.389 129.049 29.689C129.031 29.989 129.022 30.355 129.022 30.787ZM127.726 30.787C127.726 30.301 127.747 29.854 127.789 29.446C127.837 29.032 127.936 28.678 128.086 28.384C128.242 28.09 128.464 27.862 128.752 27.7C129.04 27.532 129.427 27.448 129.913 27.448C130.399 27.448 130.786 27.532 131.074 27.7C131.362 27.862 131.581 28.09 131.731 28.384C131.887 28.678 131.986 29.032 132.028 29.446C132.076 29.854 132.1 30.301 132.1 30.787C132.1 31.279 132.076 31.729 132.028 32.137C131.986 32.545 131.887 32.896 131.731 33.19C131.581 33.484 131.362 33.709 131.074 33.865C130.786 34.021 130.399 34.099 129.913 34.099C129.427 34.099 129.04 34.021 128.752 33.865C128.464 33.709 128.242 33.484 128.086 33.19C127.936 32.896 127.837 32.545 127.789 32.137C127.747 31.729 127.726 31.279 127.726 30.787ZM134.158 30.481H134.734C134.992 30.481 135.199 30.403 135.355 30.247C135.517 30.091 135.598 29.848 135.598 29.518C135.598 29.194 135.529 28.948 135.391 28.78C135.253 28.612 135.022 28.528 134.698 28.528H134.158V30.481ZM132.862 27.574H135.13C135.46 27.574 135.736 27.631 135.958 27.745C136.186 27.853 136.369 27.997 136.507 28.177C136.645 28.357 136.744 28.564 136.804 28.798C136.864 29.026 136.894 29.26 136.894 29.5C136.894 29.83 136.843 30.118 136.741 30.364C136.645 30.61 136.507 30.811 136.327 30.967C136.153 31.123 135.94 31.24 135.688 31.318C135.436 31.396 135.157 31.435 134.851 31.435H134.158V34H132.862V27.574ZM141.12 27.574V28.636H138.825V30.148H140.985V31.21H138.825V32.938H141.21V34H137.529V27.574H141.12ZM141.862 27.574H144.256C144.796 27.574 145.216 27.712 145.516 27.988C145.816 28.258 145.966 28.672 145.966 29.23C145.966 29.662 145.879 30.016 145.705 30.292C145.531 30.562 145.261 30.736 144.895 30.814V30.832C145.219 30.88 145.456 30.985 145.606 31.147C145.756 31.309 145.849 31.57 145.885 31.93C145.897 32.05 145.906 32.182 145.912 32.326C145.918 32.464 145.924 32.62 145.93 32.794C145.942 33.136 145.96 33.397 145.984 33.577C146.02 33.757 146.098 33.88 146.218 33.946V34H144.814C144.748 33.91 144.706 33.808 144.688 33.694C144.67 33.574 144.658 33.451 144.652 33.325L144.616 32.092C144.604 31.84 144.541 31.642 144.427 31.498C144.313 31.354 144.121 31.282 143.851 31.282H143.158V34H141.862V27.574ZM143.158 30.382H143.698C144.01 30.382 144.25 30.31 144.418 30.166C144.586 30.016 144.67 29.767 144.67 29.419C144.67 28.825 144.37 28.528 143.77 28.528H143.158V30.382ZM149.608 29.743C149.608 29.275 149.551 28.936 149.437 28.726C149.329 28.51 149.128 28.402 148.834 28.402C148.672 28.402 148.537 28.447 148.429 28.537C148.327 28.621 148.246 28.762 148.186 28.96C148.126 29.152 148.084 29.407 148.06 29.725C148.036 30.037 148.024 30.421 148.024 30.877C148.024 31.363 148.039 31.756 148.069 32.056C148.105 32.356 148.156 32.59 148.222 32.758C148.294 32.92 148.381 33.031 148.483 33.091C148.591 33.145 148.714 33.172 148.852 33.172C148.966 33.172 149.071 33.154 149.167 33.118C149.269 33.076 149.356 32.998 149.428 32.884C149.5 32.764 149.557 32.599 149.599 32.389C149.641 32.173 149.662 31.891 149.662 31.543H150.958C150.958 31.891 150.931 32.221 150.877 32.533C150.823 32.845 150.721 33.118 150.571 33.352C150.427 33.586 150.22 33.769 149.95 33.901C149.686 34.033 149.341 34.099 148.915 34.099C148.429 34.099 148.042 34.021 147.754 33.865C147.466 33.709 147.244 33.484 147.088 33.19C146.938 32.896 146.839 32.545 146.791 32.137C146.749 31.729 146.728 31.279 146.728 30.787C146.728 30.301 146.749 29.854 146.791 29.446C146.839 29.032 146.938 28.678 147.088 28.384C147.244 28.09 147.466 27.862 147.754 27.7C148.042 27.532 148.429 27.448 148.915 27.448C149.377 27.448 149.74 27.523 150.004 27.673C150.274 27.823 150.475 28.015 150.607 28.249C150.739 28.477 150.82 28.726 150.85 28.996C150.886 29.26 150.904 29.509 150.904 29.743H149.608ZM152.912 27.574V32.056C152.912 32.218 152.921 32.368 152.939 32.506C152.963 32.638 153.002 32.755 153.056 32.857C153.116 32.953 153.194 33.031 153.29 33.091C153.392 33.145 153.518 33.172 153.668 33.172C153.824 33.172 153.95 33.145 154.046 33.091C154.142 33.031 154.217 32.953 154.271 32.857C154.331 32.755 154.37 32.638 154.388 32.506C154.412 32.368 154.424 32.218 154.424 32.056V27.574H155.72V32.056C155.72 32.464 155.663 32.803 155.549 33.073C155.435 33.337 155.282 33.547 155.09 33.703C154.898 33.859 154.679 33.964 154.433 34.018C154.187 34.072 153.932 34.099 153.668 34.099C153.404 34.099 153.149 34.075 152.903 34.027C152.657 33.979 152.438 33.883 152.246 33.739C152.054 33.589 151.901 33.379 151.787 33.109C151.673 32.839 151.616 32.488 151.616 32.056V27.574H152.912ZM156.54 34V27.574H157.836V32.938H160.131V34H156.54ZM164.297 27.574V28.636H162.002V30.148H164.162V31.21H162.002V32.938H164.387V34H160.706V27.574H164.297Z" fill="#1C1C1B"/>
</g>
<defs>
<clipPath id="clip0_26_20011">
<rect width="227" height="61" fill="white"/>
</clipPath>
</defs>
</svg>
