<svg width="227" height="61" viewBox="0 0 227 61" fill="none" xmlns="http://www.w3.org/2000/svg">
<g clip-path="url(#clip0_25_7447)">
<path d="M24.8542 60.7916C11.2344 60.7916 0.15625 49.8385 0.15625 36.3801V0.317627H201.323C214.938 0.317627 226.016 11.2655 226.016 24.7239L226.021 60.7916" fill="white"/>
<path d="M201.323 5.98438H50.2708V36.3802C50.2708 46.7135 58.802 55.1198 69.2916 55.1198H220.349V24.724C220.349 14.3958 211.812 5.98438 201.323 5.98438Z" fill="white"/>
<path d="M218.458 53.2292H69.2916C59.8437 53.2292 52.1562 45.6719 52.1562 36.3802V7.875H201.323C210.771 7.875 218.458 15.4323 218.458 24.724V53.2292ZM201.323 5.98438H50.2708V36.3802C50.2708 46.7135 58.802 55.1198 69.2916 55.1198H220.349V24.724C220.349 14.3958 211.812 5.98438 201.323 5.98438Z" fill="#FCC42F"/>
<path d="M163.089 55.1198L176.099 28.5417L162.807 5.98438H201.323C211.812 5.98438 220.349 14.3906 220.349 24.724V55.1198" fill="#FCC42F"/>
<path d="M201.323 7.875H166.115L178.245 28.4583L166.12 53.2292H218.458V24.724C218.458 15.4323 210.771 7.875 201.323 7.875Z" fill="#FCC42F"/>
<path d="M206.281 41.6615H205.078C204.979 41.6615 204.885 41.6719 204.792 41.6875C205.354 35.4323 206.224 25.7708 206.646 21.3958C206.687 20.9531 206.359 20.5573 205.917 20.5156C205.464 20.4635 205.073 20.7969 205.031 21.2448C204.385 27.9635 202.677 47.1458 202.661 47.3385C202.63 47.6615 202.312 47.9271 201.943 47.9271H188.854C188.479 47.9271 188.167 47.6615 188.135 47.3385C188.12 47.1458 186.411 27.9635 185.766 21.2448C185.724 20.7969 185.333 20.4635 184.88 20.5156C184.437 20.5573 184.109 20.9531 184.151 21.3958C184.573 25.7708 185.443 35.4271 186.005 41.6875C185.911 41.6667 185.812 41.6562 185.719 41.6562H184.516C183.74 41.6562 183.104 42.2917 183.104 43.0677V48.1406C183.104 48.9167 183.74 49.5469 184.516 49.5469H185.719C186.297 49.5469 186.802 49.1927 187.016 48.6823C187.443 49.2135 188.104 49.5469 188.854 49.5469H201.943C202.687 49.5469 203.349 49.2135 203.781 48.6875C203.995 49.1927 204.495 49.5521 205.078 49.5521H206.281C207.057 49.5521 207.687 48.9219 207.687 48.1406V43.0677C207.687 42.2917 207.057 41.6615 206.281 41.6615Z" fill="#1C1C1B"/>
<path d="M190.344 25.1198V27.4115H191.016C191.411 27.4115 191.625 27.2292 191.625 26.6771V26.026C191.625 25.3333 191.401 25.1198 190.865 25.1198H190.344ZM190.344 22.0833V24.0521H190.802C191.24 24.0521 191.505 23.8646 191.505 23.2656V22.849C191.505 22.3125 191.323 22.0833 190.906 22.0833H190.344ZM192.677 22.7344V23C192.677 23.7656 192.443 24.2448 191.922 24.4896V24.5104C192.547 24.7604 192.797 25.3125 192.797 26.099V26.7083C192.797 27.8594 192.187 28.4792 191.016 28.4792H189.172V21.0156H190.938C192.156 21.0156 192.677 21.5833 192.677 22.7344Z" fill="#1C1C1B"/>
<path d="M194.833 26.1146H195.964L195.411 22.3385H195.385L194.833 26.1146ZM197.51 28.4792H196.328L196.125 27.125H194.688L194.479 28.4792H193.406L194.599 21.0156H196.313" fill="#1C1C1B"/>
<path d="M201.661 25.6926V26.6874C201.661 27.8801 201.062 28.5624 199.911 28.5624C198.76 28.5624 198.161 27.8801 198.161 26.6874V22.8072C198.161 21.6093 198.76 20.927 199.911 20.927C201.062 20.927 201.661 21.6093 201.661 22.8072V23.5312H200.552V22.7291C200.552 22.1978 200.318 21.9947 199.943 21.9947C199.573 21.9947 199.338 22.1978 199.338 22.7291V26.7603C199.338 27.2916 199.573 27.4843 199.943 27.4843C200.318 27.4843 200.552 27.2916 200.552 26.7603V25.6926" fill="#1C1C1B"/>
<path d="M192.703 31.2083V36.5365H193.365C193.734 36.5365 193.958 36.3438 193.958 35.8125V31.9323C193.958 31.401 193.734 31.2083 193.365 31.2083H192.703ZM191.531 30.1406H193.385C194.557 30.1406 195.13 30.7917 195.13 31.9844V35.7604C195.13 36.9531 194.557 37.6042 193.385 37.6042H191.531" fill="#1C1C1B"/>
<path d="M197.266 33.2865H198.875V34.349H197.266V36.5365H199.292V37.6042H196.094V30.1406H199.292V31.2031H197.266" fill="#1C1C1B"/>
<path d="M190.161 39.2656H193.786V40.3281H192.562V46.7292H191.385V40.3281H190.161" fill="#1C1C1B"/>
<path d="M195.688 40.3281V42.625H196.146C196.583 42.625 196.849 42.4323 196.849 41.8333V41.099C196.849 40.5677 196.667 40.3281 196.25 40.3281H195.688ZM196.969 46.7292C196.901 46.5365 196.859 46.4167 196.859 45.8125V44.6354C196.859 43.9479 196.625 43.6875 196.094 43.6875H195.688V46.7292H194.516V39.2656H196.286C197.5 39.2656 198.021 39.8281 198.021 40.9792V41.5677C198.021 42.3333 197.776 42.8229 197.255 43.0729V43.0938C197.839 43.3385 198.031 43.8906 198.031 44.6719V45.8229C198.031 46.1823 198.042 46.4531 198.161 46.7292" fill="#1C1C1B"/>
<path d="M199.016 46.7292H200.188V39.2656H199.016V46.7292Z" fill="#1C1C1B"/>
<path d="M207.125 17.6197H183.672V15.6666C183.672 15.5989 183.703 15.5676 183.698 15.5676H185.396C185.589 15.5676 185.771 15.4999 185.917 15.3697L188.047 13.5103C188.141 13.427 188.37 13.3437 188.661 13.3437H202.13C202.422 13.3437 202.656 13.427 202.75 13.5103L204.88 15.3697C205.026 15.4999 205.208 15.5676 205.401 15.5676H207.099C207.089 15.5676 207.125 15.5989 207.125 15.6666V17.6197ZM207.099 13.9791H205.698L203.792 12.3176C203.385 11.9583 202.781 11.7551 202.13 11.7551H188.661C188.016 11.7551 187.411 11.9583 187 12.3176L185.094 13.9791H183.698C182.807 13.9791 182.089 14.7395 182.089 15.6666V17.8124C182.089 18.1093 182.161 18.401 182.307 18.6614C182.37 18.7708 182.458 18.8697 182.562 18.9374C182.823 19.1093 183.12 19.1978 183.427 19.1978H207.37C207.677 19.1978 207.974 19.1093 208.234 18.9374C208.339 18.8697 208.427 18.7708 208.49 18.6614C208.63 18.401 208.708 18.1093 208.708 17.8124V15.6666C208.708 14.7395 207.984 13.9791 207.099 13.9791Z" fill="#1C1C1B"/>
<path d="M202.125 14.0781H188.667C188.297 14.0781 187.995 14.3802 187.995 14.75C187.995 15.1198 188.297 15.4219 188.667 15.4219H202.125C202.495 15.4219 202.797 15.1198 202.797 14.75C202.797 14.3802 202.495 14.0781 202.125 14.0781Z" fill="#1C1C1B"/>
<path d="M103.057 5.98438H50.2708V36.3802C50.2708 46.7135 58.802 55.1198 69.2916 55.1198H122.083V24.724C122.083 14.3958 113.547 5.98438 103.057 5.98438Z" fill="#FCC42F"/>
<path d="M63.8072 29.677C59.0051 29.677 55.1145 33.5676 55.1145 38.3697C55.1145 43.1718 59.0051 47.0624 63.8072 47.0624C68.6145 47.0624 72.5051 43.1718 72.5051 38.3697C72.5051 33.5676 68.6145 29.677 63.8072 29.677Z" fill="white"/>
<path d="M69.4792 39.7865H65.2292V44.0417H62.3906V39.7865H58.1406V36.9531H62.3906V32.7031H65.2292V36.9531H69.4792" fill="#1C1C1B"/>
<path d="M55.9426 26.9167V17.5156H58.427V24.8333H61.9843V26.9167" fill="#1C1C1B"/>
<path d="M63.0989 26.9167V17.5156H69.1718V19.599H65.5885V21.0729H68.651V23.1563H65.5885V24.8333H69.3176V26.9167" fill="#1C1C1B"/>
<path d="M75.2448 26.9167V19.599H72.7604V17.5156H80.2239V19.599H77.7343V26.9167" fill="#1C1C1B"/>
<path d="M83.7083 21.7969H84.6042C85.6042 21.7969 86.1094 21.3802 86.1094 20.5521C86.1094 20.1458 85.9792 19.8698 85.724 19.7135C85.4688 19.5573 85.0938 19.4792 84.6042 19.4792H83.7083V21.7969ZM81.2188 26.9167V17.5156H84.776C85.2813 17.5156 85.7604 17.5625 86.2188 17.6563C86.6771 17.7552 87.0729 17.9219 87.4167 18.151C87.7604 18.3802 88.0313 18.6927 88.2344 19.0833C88.4375 19.474 88.5365 19.9635 88.5365 20.5521C88.5365 21.2292 88.401 21.7865 88.125 22.2292C87.8542 22.6719 87.4844 23.0208 87.0208 23.2708L89.0573 26.9167H86.2813L84.6615 23.7604H83.7083V26.9167" fill="#1C1C1B"/>
<path d="M90.026 26.9167H92.5156V17.5156H90.026V26.9167Z" fill="#1C1C1B"/>
<path d="M75.5364 43.5937V34.1926H81.6666V36.276H78.026V38.0676H81.1458V40.151H78.026V43.5937" fill="#1C1C1B"/>
<path d="M85.0781 39.0208L84.9166 39.6718H86.651L86.4948 39.0208C86.3802 38.5676 86.2604 38.078 86.1458 37.5468C86.0312 37.0155 85.9166 36.5155 85.7968 36.0416H85.7395C85.6354 36.526 85.526 37.0312 85.4166 37.552C85.3073 38.078 85.1927 38.5676 85.0781 39.0208ZM81.4635 43.5937L84.3229 34.1926H87.3281L90.1927 43.5937H87.5625L87.0989 41.5989H84.4687L84.0052 43.5937" fill="#1C1C1B"/>
<path d="M94.7187 43.7656C94.1249 43.7656 93.552 43.6667 93.0103 43.4688C92.4635 43.2708 91.9895 42.974 91.578 42.5729C91.1666 42.1719 90.8385 41.6719 90.5989 41.0677C90.3593 40.4688 90.2395 39.7656 90.2395 38.9635C90.2395 38.1771 90.3645 37.474 90.6145 36.8594C90.8645 36.25 91.1978 35.7344 91.6197 35.3125C92.0364 34.8958 92.5208 34.5729 93.0676 34.349C93.6145 34.1302 94.1822 34.0156 94.7812 34.0156C95.4062 34.0156 95.9687 34.1406 96.4583 34.3854C96.953 34.6354 97.3645 34.9271 97.703 35.2604L96.401 36.8542C96.1718 36.651 95.9322 36.4844 95.6874 36.3542C95.4374 36.224 95.1562 36.1563 94.8385 36.1563C94.5572 36.1563 94.2968 36.2188 94.052 36.349C93.8072 36.474 93.5885 36.651 93.401 36.8802C93.2135 37.1146 93.0624 37.401 92.953 37.7344C92.8385 38.0729 92.7864 38.4531 92.7864 38.875C92.7864 39.7656 92.9687 40.4479 93.3437 40.9167C93.7135 41.3906 94.203 41.625 94.8072 41.625C95.177 41.625 95.4999 41.5469 95.7864 41.3854C96.0676 41.2292 96.3124 41.0365 96.5155 40.8177L97.8176 42.375C97.4114 42.8438 96.9478 43.1875 96.4218 43.4167C95.8958 43.651 95.328 43.7656 94.7187 43.7656Z" fill="#1C1C1B"/>
<path d="M98.776 43.5937H101.26V34.1926H98.776V43.5937Z" fill="#1C1C1B"/>
<path d="M103.031 43.5937V34.1926H105.521V41.5103H109.078V43.5937" fill="#1C1C1B"/>
<path d="M110.188 43.5937V34.1926H116.266V36.276H112.677V37.7499H115.745V39.8333H112.677V41.5103H116.411V43.5937" fill="#1C1C1B"/>
<path d="M28.5624 26.0625C26.8697 28.5521 28.3072 31.8281 30.052 33.4896C31.6458 35 32.9218 35.3594 33.0885 35.401L33.901 33.8438L36.2447 40.2552L29.6197 41.599L30.4999 39.9688L29.6041 39.4635C26.8124 37.6458 26.2239 35.1771 26.0312 34.4063C25.6978 33.0781 25.203 29.1094 28.5624 26.0625Z" fill="#1C1C1B"/>
<path d="M28.5312 26.1718C29.7344 28.927 33.2708 29.4635 35.6042 28.8697C37.6771 28.3437 38.6615 27.4895 38.8281 27.3333L38.8177 27.3176L37.9323 25.7864L44.599 27.2395L42.1875 33.5572L41.2917 31.9687L40.4219 32.4374C37.3958 33.828 34.9896 33.0103 34.2344 32.7603C32.9375 32.3333 29.3125 30.6353 28.5312 26.1718Z" fill="#1C1C1B"/>
<path d="M40.3177 19.5156C39.8541 22.8125 37.8698 24.3958 37.25 24.8958C36.1875 25.7552 32.802 27.8854 28.6198 26.1354C31.5937 26.6094 33.9531 23.9271 34.7135 21.6406C35.401 19.5885 35.1979 18.2917 35.1562 18.0885H35.1354L33.3698 18.0104L38.1823 13.1719L42.2083 18.6094L40.3906 18.5052" fill="#1C1C1B"/>
<path fill-rule="evenodd" clip-rule="evenodd" d="M20.0938 16.7291C18.5729 16.7291 17.3438 15.4999 17.3438 13.9791C17.3438 12.4583 18.5729 11.2239 20.0938 11.2239C21.6146 11.2239 22.849 12.4583 22.849 13.9791C22.849 15.4999 21.6146 16.7291 20.0938 16.7291Z" fill="#1C1C1B"/>
<path d="M15.8333 30.1146C16.0677 29.4688 16.4167 29.5104 16.4167 29.5104C16.4167 29.5104 16.7344 29.4427 16.9115 30.0938L19.4844 39.125C17.3385 38.5052 15.3802 37.4375 13.7135 36.0313L15.8333 30.1146ZM23.8594 5.98438C13.9167 5.98438 5.82812 14.0729 5.82812 24.0208C5.82812 33.9583 13.9167 42.0521 23.8594 42.0521C24.3906 42.0521 24.9115 42.0156 25.4323 41.9688L25.5521 43.7813L28.8542 40.5885L25.1615 37.776L25.3021 39.6771C24.8281 39.7188 24.3438 39.75 23.8594 39.75C23.0938 39.75 22.3438 39.6927 21.6094 39.5885L21.5365 39.1094L19.8229 24.5104C19.5885 21.7552 21.1615 21.3125 22.1354 21.7292L27.6042 23.9219C28.2292 24.1927 28.5313 23.6719 28.5313 23.6719C28.5313 23.6719 28.8854 23.1198 28.25 22.7135C28.25 22.7135 20.7969 17.776 19.2083 17.4792C17.0417 17.0729 14.8958 18.8281 14.4219 21.1146L11.776 34.0833C9.5 31.349 8.125 27.8438 8.125 24.0208C8.125 15.3438 15.1823 8.28646 23.8594 8.28646C28.4948 8.28646 32.6667 10.3021 35.5469 13.4948L37.1615 11.8594C33.8646 8.25 29.1198 5.98438 23.8594 5.98438Z" fill="#1C1C1B"/>
<path d="M127.616 43.654H128C128.172 43.654 128.31 43.602 128.414 43.498C128.522 43.394 128.576 43.232 128.576 43.012C128.576 42.796 128.53 42.632 128.438 42.52C128.346 42.408 128.192 42.352 127.976 42.352H127.616V43.654ZM126.752 41.716H128.264C128.484 41.716 128.668 41.754 128.816 41.83C128.968 41.902 129.09 41.998 129.182 42.118C129.274 42.238 129.34 42.376 129.38 42.532C129.42 42.684 129.44 42.84 129.44 43C129.44 43.22 129.406 43.412 129.338 43.576C129.274 43.74 129.182 43.874 129.062 43.978C128.946 44.082 128.804 44.16 128.636 44.212C128.468 44.264 128.282 44.29 128.078 44.29H127.616V46H126.752V41.716ZM131.429 44.386L131.015 42.46H131.003L130.589 44.386H131.429ZM131.543 41.716L132.677 46H131.777L131.579 45.094H130.439L130.241 46H129.341L130.475 41.716H131.543ZM133.839 43.654H134.223C134.395 43.654 134.533 43.602 134.637 43.498C134.745 43.394 134.799 43.232 134.799 43.012C134.799 42.796 134.753 42.632 134.661 42.52C134.569 42.408 134.415 42.352 134.199 42.352H133.839V43.654ZM132.975 41.716H134.487C134.707 41.716 134.891 41.754 135.039 41.83C135.191 41.902 135.313 41.998 135.405 42.118C135.497 42.238 135.563 42.376 135.603 42.532C135.643 42.684 135.663 42.84 135.663 43C135.663 43.22 135.629 43.412 135.561 43.576C135.497 43.74 135.405 43.874 135.285 43.978C135.169 44.082 135.027 44.16 134.859 44.212C134.691 44.264 134.505 44.29 134.301 44.29H133.839V46H132.975V41.716ZM136.128 46V41.716H136.992V46H136.128ZM140.027 41.716V42.424H138.497V43.432H139.937V44.14H138.497V45.292H140.087V46H137.633V41.716H140.027ZM140.522 41.716H142.118C142.478 41.716 142.758 41.808 142.958 41.992C143.158 42.172 143.258 42.448 143.258 42.82C143.258 43.108 143.2 43.344 143.084 43.528C142.968 43.708 142.788 43.824 142.544 43.876V43.888C142.76 43.92 142.918 43.99 143.018 44.098C143.118 44.206 143.18 44.38 143.204 44.62C143.212 44.7 143.218 44.788 143.222 44.884C143.226 44.976 143.23 45.08 143.234 45.196C143.242 45.424 143.254 45.598 143.27 45.718C143.294 45.838 143.346 45.92 143.426 45.964V46H142.49C142.446 45.94 142.418 45.872 142.406 45.796C142.394 45.716 142.386 45.634 142.382 45.55L142.358 44.728C142.35 44.56 142.308 44.428 142.232 44.332C142.156 44.236 142.028 44.188 141.848 44.188H141.386V46H140.522V41.716ZM141.386 43.588H141.746C141.954 43.588 142.114 43.54 142.226 43.444C142.338 43.344 142.394 43.178 142.394 42.946C142.394 42.55 142.194 42.352 141.794 42.352H141.386V43.588ZM146.161 41.716V43.432H146.173L147.265 41.716H148.201L147.037 43.552L148.333 46H147.361L146.479 44.242L146.161 44.728V46H145.297V41.716H146.161ZM148.52 41.716H150.116C150.476 41.716 150.756 41.808 150.956 41.992C151.156 42.172 151.256 42.448 151.256 42.82C151.256 43.108 151.198 43.344 151.082 43.528C150.966 43.708 150.786 43.824 150.542 43.876V43.888C150.758 43.92 150.916 43.99 151.016 44.098C151.116 44.206 151.178 44.38 151.202 44.62C151.21 44.7 151.216 44.788 151.22 44.884C151.224 44.976 151.228 45.08 151.232 45.196C151.24 45.424 151.252 45.598 151.268 45.718C151.292 45.838 151.344 45.92 151.424 45.964V46H150.488C150.444 45.94 150.416 45.872 150.404 45.796C150.392 45.716 150.384 45.634 150.38 45.55L150.356 44.728C150.348 44.56 150.306 44.428 150.23 44.332C150.154 44.236 150.026 44.188 149.846 44.188H149.384V46H148.52V41.716ZM149.384 43.588H149.744C149.952 43.588 150.112 43.54 150.224 43.444C150.336 43.344 150.392 43.178 150.392 42.946C150.392 42.55 150.192 42.352 149.792 42.352H149.384V43.588ZM153.642 44.386L153.228 42.46H153.216L152.802 44.386H153.642ZM153.756 41.716L154.89 46H153.99L153.792 45.094H152.652L152.454 46H151.554L152.688 41.716H153.756ZM155.188 41.716H157.582V42.424H156.052V43.432H157.492V44.14H156.052V46H155.188V41.716ZM160.473 41.716V42.424H159.537V46H158.673V42.424H157.737V41.716H160.473Z" fill="#1C1C1B"/>
<path d="M138.56 35.8988C137.196 29.1539 137.185 22.05 138.516 15.3014C139.189 15.4211 139.862 15.4921 140.535 15.5407C141.249 15.5856 141.959 15.6117 142.673 15.6117C143.387 15.6155 144.098 15.5893 144.812 15.5407C145.522 15.4921 146.236 15.4211 146.95 15.2827C146.236 15.1444 145.522 15.0733 144.812 15.0247C144.098 14.9761 143.387 14.95 142.673 14.9537C141.959 14.95 141.249 14.9761 140.535 15.0247C139.865 15.0733 139.192 15.1406 138.523 15.264C138.568 15.0509 138.605 14.8415 138.65 14.6284C138.658 14.5873 138.661 14.5499 138.661 14.5125L138.624 13.0693L151.445 13.7647L151.407 15.264C151.407 15.3051 151.411 15.35 151.422 15.3874C151.62 16.2959 151.822 17.1783 152.024 18.0532C153.329 23.7475 154.454 28.6716 153.475 34.5864C152.585 34.4855 151.646 34.4331 150.678 34.4331C147.556 34.4331 144.543 34.9566 142.094 35.3865C140.703 35.6296 139.491 35.8389 138.56 35.8988ZM137.3 34.8108L136.829 34.2387C136.68 34.0518 136.396 33.9957 136.179 34.1153L135.394 34.549C134.62 29.7035 135.124 24.4691 136.885 18.9356C136.242 24.2036 136.381 29.5951 137.3 34.8108ZM153.034 17.8139C152.839 16.9652 152.641 16.0978 152.447 15.2453L152.495 13.2862C152.503 13.002 152.286 12.7702 152.005 12.7552L138.093 12C137.958 12 137.824 12.0561 137.73 12.1496C137.626 12.2505 137.57 12.3888 137.573 12.5347L137.615 14.1424C137.558 14.1947 137.514 14.2508 137.48 14.3256C134.294 21.893 133.289 29.0006 134.493 35.4501C134.522 35.6109 134.631 35.753 134.784 35.824C134.934 35.895 135.109 35.8876 135.255 35.809L136.302 35.2333L137.558 36.7624C137.656 36.8858 137.805 36.9531 137.958 36.9531C137.992 36.9531 138.022 36.9456 138.052 36.9382C138.082 36.9456 138.112 36.9531 138.142 36.9531H138.145C139.189 36.9456 140.606 36.6989 142.273 36.4073C144.666 35.9922 147.638 35.4725 150.678 35.4725C151.789 35.4725 152.847 35.5436 153.826 35.6782C154.107 35.7156 154.361 35.5286 154.413 35.2594C155.58 28.9183 154.402 23.7774 153.034 17.8139Z" fill="#1C1C1B"/>
</g>
<defs>
<clipPath id="clip0_25_7447">
<rect width="227" height="61" fill="white"/>
</clipPath>
</defs>
</svg>
