<svg width="230" height="61" viewBox="0 0 230 61" fill="none" xmlns="http://www.w3.org/2000/svg">
<g clip-path="url(#clip0_25_7273)">
<path d="M24.6979 60.4688C11.0781 60.4688 0 49.5208 0 36.0625V0H204.948C218.563 0 229.641 10.9479 229.641 24.4063V60.4688" fill="white"/>
<path d="M204.948 5.66663H50.1145V36.0625C50.1145 46.3958 58.6458 54.802 69.1353 54.802H223.974V24.4062C223.974 14.0729 215.437 5.66663 204.948 5.66663Z" fill="white"/>
<path d="M222.083 52.9114H69.1353C59.6874 52.9114 51.9999 45.3541 51.9999 36.0625V7.55725H204.948C214.396 7.55725 222.083 15.1145 222.083 24.4062V52.9114ZM204.948 5.66663H50.1145V36.0625C50.1145 46.3958 58.6458 54.802 69.1353 54.802H223.969V24.4062C223.969 14.0729 215.437 5.66663 204.948 5.66663Z" fill="#FCC42F"/>
<path d="M166.714 54.802L179.724 28.2239L166.432 5.66663H204.948C215.437 5.66663 223.969 14.0729 223.969 24.4062V54.802" fill="#FCC42F"/>
<path d="M204.948 7.55725H169.74L181.87 28.1406L169.74 52.9114H222.083V24.4062C222.083 15.1145 214.396 7.55725 204.948 7.55725Z" fill="#FCC42F"/>
<path d="M209.906 41.3438H208.703C208.604 41.3438 208.51 41.3542 208.417 41.3698C208.979 35.1094 209.849 25.4532 210.266 21.0782C210.312 20.6303 209.984 20.2344 209.536 20.1928C209.083 20.1459 208.698 20.4792 208.656 20.9219C208.005 27.6407 206.302 46.823 206.286 47.0157C206.255 47.3438 205.937 47.6094 205.568 47.6094H192.474C192.104 47.6094 191.792 47.3438 191.76 47.0157C191.74 46.823 190.036 27.6407 189.391 20.9219C189.349 20.4792 188.958 20.1459 188.505 20.1928C188.057 20.2344 187.729 20.6303 187.776 21.0782C188.193 25.4532 189.062 35.1094 189.625 41.3698C189.531 41.349 189.437 41.3386 189.339 41.3386H188.141C187.359 41.3386 186.729 41.9688 186.729 42.7448V47.8178C186.729 48.599 187.359 49.2292 188.141 49.2292H189.339C189.922 49.2292 190.427 48.8698 190.635 48.3646C191.068 48.8959 191.729 49.2292 192.474 49.2292H205.568C206.312 49.2292 206.974 48.8959 207.406 48.3646C207.615 48.875 208.12 49.2344 208.703 49.2344H209.906C210.682 49.2344 211.312 48.599 211.312 47.823V42.75C211.312 41.974 210.682 41.3438 209.906 41.3438Z" fill="#1C1C1B"/>
<path d="M193.969 24.802V27.0937H194.641C195.031 27.0937 195.245 26.9114 195.245 26.3593V25.7083C195.245 25.0156 195.021 24.802 194.49 24.802H193.969ZM193.969 21.7604V23.7343H194.427C194.865 23.7343 195.13 23.5416 195.13 22.9479V22.5312C195.13 21.9948 194.948 21.7604 194.531 21.7604H193.969ZM196.302 22.4114V22.677C196.302 23.4479 196.068 23.927 195.547 24.1718V24.1927C196.172 24.4375 196.417 24.9948 196.417 25.7812V26.3906C196.417 27.5416 195.812 28.1562 194.641 28.1562H192.792V20.6979H194.562C195.776 20.6979 196.302 21.2604 196.302 22.4114Z" fill="#1C1C1B"/>
<path d="M198.458 25.7916H199.589L199.031 22.0156H199.01L198.458 25.7916ZM201.135 28.1562H199.948L199.75 26.802H198.307L198.104 28.1562H197.031L198.224 20.6979H199.938" fill="#1C1C1B"/>
<path d="M205.281 25.375V26.3646C205.281 27.5625 204.687 28.2448 203.536 28.2448C202.38 28.2448 201.786 27.5625 201.786 26.3646V22.4844C201.786 21.2917 202.38 20.6094 203.536 20.6094C204.687 20.6094 205.281 21.2917 205.281 22.4844V23.2083H204.172V22.4115C204.172 21.8802 203.937 21.6771 203.568 21.6771C203.193 21.6771 202.958 21.8802 202.958 22.4115V26.4427C202.958 26.974 203.193 27.1667 203.568 27.1667C203.937 27.1667 204.172 26.974 204.172 26.4427V25.375" fill="#1C1C1B"/>
<path d="M196.323 30.8855V36.2188H196.984C197.359 36.2188 197.583 36.0261 197.583 35.4896V31.6094C197.583 31.0782 197.359 30.8855 196.984 30.8855H196.323ZM195.151 29.8177H197.005C198.182 29.8177 198.755 30.4688 198.755 31.6667V35.4375C198.755 36.6355 198.182 37.2813 197.005 37.2813H195.151" fill="#1C1C1B"/>
<path d="M200.891 32.9635H202.5V34.0312H200.891V36.2187H202.917V37.2812H199.719V29.8229H202.917V30.8854H200.891" fill="#1C1C1B"/>
<path d="M193.786 38.9427H197.411V40.0105H196.187V46.4063H195.01V40.0105H193.786" fill="#1C1C1B"/>
<path d="M199.312 40.0105V42.3021H199.771C200.203 42.3021 200.474 42.1094 200.474 41.5157V40.7813C200.474 40.2448 200.292 40.0105 199.875 40.0105H199.312ZM200.589 46.4063C200.526 46.2136 200.484 46.099 200.484 45.4896V44.3177C200.484 43.625 200.25 43.3698 199.714 43.3698H199.312V46.4063H198.135V38.9427H199.906C201.125 38.9427 201.646 39.5105 201.646 40.6615V41.25C201.646 42.0157 201.396 42.5052 200.88 42.75V42.7709C201.464 43.0157 201.656 43.573 201.656 44.349V45.5C201.656 45.8646 201.667 46.1302 201.781 46.4063" fill="#1C1C1B"/>
<path d="M202.641 46.4063H203.813V38.9427H202.641V46.4063Z" fill="#1C1C1B"/>
<path d="M210.745 17.2969H187.297V15.349C187.297 15.2813 187.328 15.25 187.323 15.25H189.021C189.208 15.25 189.396 15.1771 189.542 15.0521L191.667 13.1927C191.76 13.1094 191.995 13.0208 192.286 13.0208H205.755C206.047 13.0208 206.281 13.1094 206.375 13.1927L208.5 15.0521C208.646 15.1771 208.833 15.25 209.026 15.25H210.719C210.714 15.25 210.745 15.2813 210.745 15.349V17.2969ZM210.719 13.6615H209.323L207.417 12C207.01 11.6406 206.406 11.4375 205.755 11.4375H192.286C191.641 11.4375 191.036 11.6406 190.625 12L188.719 13.6615H187.323C186.432 13.6615 185.714 14.4167 185.714 15.349V17.4896C185.714 17.7917 185.786 18.0833 185.932 18.3438C185.99 18.4531 186.078 18.5469 186.187 18.6198C186.443 18.7917 186.745 18.8802 187.052 18.8802H210.99C211.297 18.8802 211.599 18.7917 211.859 18.6198C211.964 18.5469 212.052 18.4531 212.109 18.3438C212.255 18.0833 212.328 17.7917 212.328 17.4896V15.349C212.328 14.4167 211.609 13.6615 210.719 13.6615Z" fill="#1C1C1B"/>
<path d="M205.75 13.7604H192.292C191.922 13.7604 191.62 14.0625 191.62 14.427C191.62 14.802 191.922 15.0989 192.292 15.0989H205.75C206.12 15.0989 206.422 14.802 206.422 14.427C206.422 14.0625 206.12 13.7604 205.75 13.7604Z" fill="#1C1C1B"/>
<path d="M102.901 5.66663H50.1145V36.0625C50.1145 46.3958 58.6458 54.802 69.1353 54.802H121.927V24.4062C121.927 14.0729 113.391 5.66663 102.901 5.66663Z" fill="#FCC42F"/>
<path d="M63.651 29.3594C58.8489 29.3594 54.9583 33.25 54.9583 38.0521C54.9583 42.8542 58.8489 46.7448 63.651 46.7448C68.4583 46.7448 72.3489 42.8542 72.3489 38.0521C72.3489 33.25 68.4583 29.3594 63.651 29.3594Z" fill="white"/>
<path d="M69.3229 39.4688H65.0729V43.7188H62.2344V39.4688H57.9844V36.6355H62.2344V32.3802H65.0729V36.6355H69.3229" fill="#1C1C1B"/>
<path d="M55.7864 26.5937V17.1979H58.2708V24.5156H61.828V26.5937" fill="#1C1C1B"/>
<path d="M62.9426 26.5937V17.1979H69.0155V19.276H65.4322V20.7552H68.4947V22.8385H65.4322V24.5156H69.1614V26.5937" fill="#1C1C1B"/>
<path d="M75.0885 26.5937V19.276H72.6041V17.1979H80.0677V19.276H77.5781V26.5937" fill="#1C1C1B"/>
<path d="M83.5521 21.4739H84.4479C85.4479 21.4739 85.9531 21.0625 85.9531 20.2343C85.9531 19.8281 85.8229 19.5468 85.5677 19.3958C85.3125 19.2395 84.9375 19.1614 84.4479 19.1614H83.5521V21.4739ZM81.0625 26.5989V17.1979H84.6198C85.125 17.1979 85.6042 17.2448 86.0625 17.3385C86.5208 17.4375 86.9167 17.5989 87.2604 17.8333C87.6042 18.0625 87.875 18.375 88.0781 18.7656C88.2813 19.1562 88.3802 19.6458 88.3802 20.2343C88.3802 20.9062 88.2448 21.4687 87.9688 21.9114C87.6979 22.3541 87.3281 22.6979 86.8646 22.9531L88.901 26.5989H86.125L84.5052 23.4427H83.5521V26.5989" fill="#1C1C1B"/>
<path d="M89.8698 26.5989H92.3593V17.1979H89.8698V26.5989Z" fill="#1C1C1B"/>
<path d="M75.3801 43.276V33.8698H81.5103V35.9531H77.8697V37.75H80.9895V39.8333H77.8697V43.276" fill="#1C1C1B"/>
<path d="M84.9218 38.7031L84.7604 39.3541H86.4948L86.3385 38.7031C86.2239 38.25 86.1041 37.7604 85.9895 37.2291C85.875 36.6979 85.7604 36.1979 85.6406 35.7239H85.5833C85.4791 36.2031 85.3698 36.7083 85.2604 37.2343C85.151 37.7604 85.0364 38.25 84.9218 38.7031ZM81.3073 43.276L84.1666 33.8698H87.1718L90.0364 43.276H87.4062L86.9427 41.276H84.3125L83.8489 43.276" fill="#1C1C1B"/>
<path d="M94.5624 43.4479C93.9687 43.4479 93.3958 43.3489 92.8541 43.151C92.3072 42.9531 91.8333 42.651 91.4218 42.2552C91.0103 41.8541 90.6822 41.3541 90.4426 40.75C90.203 40.1458 90.0833 39.4479 90.0833 38.6458C90.0833 37.8541 90.2083 37.151 90.4583 36.5416C90.7083 35.927 91.0416 35.4114 91.4635 34.9948C91.8801 34.5729 92.3645 34.25 92.9114 34.0312C93.4583 33.8073 94.026 33.6979 94.6249 33.6979C95.2499 33.6979 95.8124 33.8229 96.302 34.0677C96.7968 34.3125 97.2083 34.6041 97.5468 34.9427L96.2447 36.5312C96.0155 36.3333 95.776 36.1666 95.5312 36.0312C95.2812 35.9062 94.9999 35.8385 94.6822 35.8385C94.401 35.8385 94.1405 35.901 93.8958 36.026C93.651 36.151 93.4322 36.3333 93.2447 36.5625C93.0572 36.7916 92.9062 37.0781 92.7968 37.4166C92.6822 37.75 92.6301 38.1354 92.6301 38.5573C92.6301 39.4479 92.8124 40.125 93.1874 40.5989C93.5572 41.0677 94.0468 41.3073 94.651 41.3073C95.0208 41.3073 95.3437 41.2291 95.6301 41.0677C95.9114 40.9062 96.1562 40.7187 96.3593 40.4948L97.6614 42.0573C97.2551 42.5208 96.7916 42.8698 96.2655 43.0989C95.7395 43.3333 95.1718 43.4479 94.5624 43.4479Z" fill="#1C1C1B"/>
<path d="M98.6198 43.276H101.104V33.8698H98.6198V43.276Z" fill="#1C1C1B"/>
<path d="M102.875 43.276V33.8698H105.365V41.1927H108.922V43.276" fill="#1C1C1B"/>
<path d="M110.031 43.276V33.8698H116.109V35.9531H112.521V37.4323H115.589V39.5156H112.521V41.1927H116.255V43.276" fill="#1C1C1B"/>
<path d="M28.4062 25.7448C26.7135 28.2343 28.151 31.5104 29.8958 33.1718C31.4895 34.6823 32.7655 35.0364 32.9322 35.0781L33.7447 33.5208L36.0885 39.9323L29.4635 41.2812L30.3437 39.6458L29.4478 39.1458C26.6562 37.3281 26.0676 34.8593 25.8749 34.0885C25.5416 32.7604 25.0468 28.7864 28.4062 25.7448Z" fill="#1C1C1B"/>
<path d="M28.375 25.8489C29.5781 28.6093 33.1146 29.1406 35.4479 28.552C37.5208 28.026 38.5052 27.1718 38.6719 27.0156L38.6615 27L37.776 25.4635L44.4427 26.9218L42.0313 33.2395L41.1354 31.6458L40.2656 32.1198C37.2396 33.5104 34.8333 32.6927 34.0781 32.4427C32.7813 32.0156 29.1562 30.3125 28.375 25.8489Z" fill="#1C1C1B"/>
<path d="M40.1613 19.1927C39.6978 22.4895 37.7134 24.0729 37.0936 24.5729C36.0311 25.4375 32.6457 27.5677 28.4634 25.8177C31.4373 26.2916 33.7967 23.6041 34.5571 21.3177C35.2446 19.2656 35.0415 17.9687 34.9998 17.7708L34.979 17.7656L33.2134 17.6927L38.0259 12.8541L42.0519 18.2864L40.2342 18.1823" fill="#1C1C1B"/>
<path fill-rule="evenodd" clip-rule="evenodd" d="M19.9375 16.4115C18.4167 16.4115 17.1875 15.1823 17.1875 13.6563C17.1875 12.1354 18.4167 10.9062 19.9375 10.9062C21.4583 10.9062 22.6927 12.1354 22.6927 13.6563C22.6927 15.1823 21.4583 16.4115 19.9375 16.4115Z" fill="#1C1C1B"/>
<path d="M15.6771 29.7968C15.9115 29.151 16.2604 29.1927 16.2604 29.1927C16.2604 29.1927 16.5781 29.125 16.7552 29.7708L19.3281 38.8073C17.1823 38.1823 15.224 37.1198 13.5573 35.7083L15.6771 29.7968ZM23.7031 5.66663C13.7604 5.66663 5.67188 13.7552 5.67188 23.6979C5.67188 33.6406 13.7604 41.7291 23.7031 41.7291C24.2344 41.7291 24.7552 41.6979 25.276 41.651L25.3958 43.4635L28.6979 40.2708L25.0052 37.4531L25.1458 39.3541C24.6719 39.401 24.1875 39.4323 23.7031 39.4323C22.9375 39.4323 22.1875 39.375 21.4531 39.2656L21.3802 38.7864L19.6667 24.1875C19.4323 21.4323 21.0052 20.9948 21.9792 21.4062L27.4479 23.6041C28.0729 23.875 28.375 23.3489 28.375 23.3489C28.375 23.3489 28.7292 22.802 28.0938 22.3958C28.0938 22.3958 20.6406 17.4583 19.0521 17.1562C16.8854 16.7552 14.7396 18.5104 14.2656 20.7968L11.6198 33.7604C9.34375 31.0312 7.96875 27.5208 7.96875 23.6979C7.96875 15.0208 15.026 7.9635 23.7031 7.9635C28.3385 7.9635 32.5104 9.97913 35.3906 13.177L37.0052 11.5364C33.7083 7.93225 28.9635 5.66663 23.7031 5.66663Z" fill="#1C1C1B"/>
<path d="M129.165 44.654H129.549C129.721 44.654 129.859 44.602 129.963 44.498C130.071 44.394 130.125 44.232 130.125 44.012C130.125 43.796 130.079 43.632 129.987 43.52C129.895 43.408 129.741 43.352 129.525 43.352H129.165V44.654ZM128.301 42.716H129.813C130.033 42.716 130.217 42.754 130.365 42.83C130.517 42.902 130.639 42.998 130.731 43.118C130.823 43.238 130.889 43.376 130.929 43.532C130.969 43.684 130.989 43.84 130.989 44C130.989 44.22 130.955 44.412 130.887 44.576C130.823 44.74 130.731 44.874 130.611 44.978C130.495 45.082 130.353 45.16 130.185 45.212C130.017 45.264 129.831 45.29 129.627 45.29H129.165V47H128.301V42.716ZM132.978 45.386L132.564 43.46H132.552L132.138 45.386H132.978ZM133.092 42.716L134.226 47H133.326L133.128 46.094H131.988L131.79 47H130.89L132.024 42.716H133.092ZM135.388 44.654H135.772C135.944 44.654 136.082 44.602 136.186 44.498C136.294 44.394 136.348 44.232 136.348 44.012C136.348 43.796 136.302 43.632 136.21 43.52C136.118 43.408 135.964 43.352 135.748 43.352H135.388V44.654ZM134.524 42.716H136.036C136.256 42.716 136.44 42.754 136.588 42.83C136.74 42.902 136.862 42.998 136.954 43.118C137.046 43.238 137.112 43.376 137.152 43.532C137.192 43.684 137.212 43.84 137.212 44C137.212 44.22 137.178 44.412 137.11 44.576C137.046 44.74 136.954 44.874 136.834 44.978C136.718 45.082 136.576 45.16 136.408 45.212C136.24 45.264 136.054 45.29 135.85 45.29H135.388V47H134.524V42.716ZM137.677 47V42.716H138.541V47H137.677ZM141.576 42.716V43.424H140.046V44.432H141.486V45.14H140.046V46.292H141.636V47H139.182V42.716H141.576ZM142.071 42.716H143.667C144.027 42.716 144.307 42.808 144.507 42.992C144.707 43.172 144.807 43.448 144.807 43.82C144.807 44.108 144.749 44.344 144.633 44.528C144.517 44.708 144.337 44.824 144.093 44.876V44.888C144.309 44.92 144.467 44.99 144.567 45.098C144.667 45.206 144.729 45.38 144.753 45.62C144.761 45.7 144.767 45.788 144.771 45.884C144.775 45.976 144.779 46.08 144.783 46.196C144.791 46.424 144.803 46.598 144.819 46.718C144.843 46.838 144.895 46.92 144.975 46.964V47H144.039C143.995 46.94 143.967 46.872 143.955 46.796C143.943 46.716 143.935 46.634 143.931 46.55L143.907 45.728C143.899 45.56 143.857 45.428 143.781 45.332C143.705 45.236 143.577 45.188 143.397 45.188H142.935V47H142.071V42.716ZM142.935 44.588H143.295C143.503 44.588 143.663 44.54 143.775 44.444C143.887 44.344 143.943 44.178 143.943 43.946C143.943 43.55 143.743 43.352 143.343 43.352H142.935V44.588ZM148.676 44.162C148.676 43.85 148.638 43.624 148.562 43.484C148.49 43.34 148.356 43.268 148.16 43.268C148.052 43.268 147.962 43.298 147.89 43.358C147.822 43.414 147.768 43.508 147.728 43.64C147.688 43.768 147.66 43.938 147.644 44.15C147.628 44.358 147.62 44.614 147.62 44.918C147.62 45.242 147.63 45.504 147.65 45.704C147.674 45.904 147.708 46.06 147.752 46.172C147.8 46.28 147.858 46.354 147.926 46.394C147.998 46.43 148.08 46.448 148.172 46.448C148.248 46.448 148.318 46.436 148.382 46.412C148.45 46.384 148.508 46.332 148.556 46.256C148.604 46.176 148.642 46.066 148.67 45.926C148.698 45.782 148.712 45.594 148.712 45.362H149.576C149.576 45.594 149.558 45.814 149.522 46.022C149.486 46.23 149.418 46.412 149.318 46.568C149.222 46.724 149.084 46.846 148.904 46.934C148.728 47.022 148.498 47.066 148.214 47.066C147.89 47.066 147.632 47.014 147.44 46.91C147.248 46.806 147.1 46.656 146.996 46.46C146.896 46.264 146.83 46.03 146.798 45.758C146.77 45.486 146.756 45.186 146.756 44.858C146.756 44.534 146.77 44.236 146.798 43.964C146.83 43.688 146.896 43.452 146.996 43.256C147.1 43.06 147.248 42.908 147.44 42.8C147.632 42.688 147.89 42.632 148.214 42.632C148.522 42.632 148.764 42.682 148.94 42.782C149.12 42.882 149.254 43.01 149.342 43.166C149.43 43.318 149.484 43.484 149.504 43.664C149.528 43.84 149.54 44.006 149.54 44.162H148.676ZM151.857 45.386L151.443 43.46H151.431L151.017 45.386H151.857ZM151.971 42.716L153.105 47H152.205L152.007 46.094H150.867L150.669 47H149.769L150.903 42.716H151.971ZM154.309 46.364H154.693C154.845 46.364 154.967 46.338 155.059 46.286C155.151 46.234 155.223 46.148 155.275 46.028C155.331 45.908 155.367 45.75 155.383 45.554C155.403 45.358 155.413 45.114 155.413 44.822C155.413 44.578 155.405 44.364 155.389 44.18C155.373 43.996 155.339 43.844 155.287 43.724C155.239 43.6 155.165 43.508 155.065 43.448C154.969 43.384 154.839 43.352 154.675 43.352H154.309V46.364ZM153.445 42.716H154.861C155.161 42.716 155.403 42.766 155.587 42.866C155.771 42.962 155.913 43.102 156.013 43.286C156.117 43.466 156.187 43.684 156.223 43.94C156.259 44.196 156.277 44.482 156.277 44.798C156.277 45.174 156.253 45.502 156.205 45.782C156.161 46.058 156.083 46.286 155.971 46.466C155.859 46.646 155.709 46.78 155.521 46.868C155.333 46.956 155.095 47 154.807 47H153.445V42.716ZM159.242 42.716V43.424H157.712V44.432H159.152V45.14H157.712V46.292H159.302V47H156.848V42.716H159.242ZM161.525 45.386L161.111 43.46H161.099L160.685 45.386H161.525ZM161.639 42.716L162.773 47H161.873L161.675 46.094H160.535L160.337 47H159.437L160.571 42.716H161.639ZM163.881 42.716V45.704C163.881 45.812 163.887 45.912 163.899 46.004C163.915 46.092 163.941 46.17 163.977 46.238C164.017 46.302 164.069 46.354 164.133 46.394C164.201 46.43 164.285 46.448 164.385 46.448C164.489 46.448 164.573 46.43 164.637 46.394C164.701 46.354 164.751 46.302 164.787 46.238C164.827 46.17 164.853 46.092 164.865 46.004C164.881 45.912 164.889 45.812 164.889 45.704V42.716H165.753V45.704C165.753 45.976 165.715 46.202 165.639 46.382C165.563 46.558 165.461 46.698 165.333 46.802C165.205 46.906 165.059 46.976 164.895 47.012C164.731 47.048 164.561 47.066 164.385 47.066C164.209 47.066 164.039 47.05 163.875 47.018C163.711 46.986 163.565 46.922 163.437 46.826C163.309 46.726 163.207 46.586 163.131 46.406C163.055 46.226 163.017 45.992 163.017 45.704V42.716H163.881Z" fill="#1C1C1B"/>
<path d="M147.12 34.9961C147.112 34.9961 147.104 35 147.096 34.9961C146.149 34.9961 145.231 35.284 144.955 35.3786L140.782 13.9019L140.755 13.9098C140.751 13.89 140.759 13.8703 140.755 13.8506C140.699 13.5667 140.439 13.3182 139.997 13.2157C140.372 13.1526 140.802 13.0974 141.311 13.058C141.792 13.0146 142.237 12.9988 142.663 12.9791C143.973 12.9278 145.219 12.8765 147.013 12.1983C147.798 16.0787 150.716 31.5849 151.197 34.1522C150.054 34.7831 149.624 34.9961 147.12 34.9961ZM143.491 36.9284C143.267 36.9482 142.864 36.8772 142.644 36.8101L138.262 14.8641C138.479 14.9588 138.739 15.014 139.031 15.014C139.268 15.014 139.524 14.9824 139.781 14.9154C140.057 14.8444 140.25 14.734 140.404 14.6078L144.54 35.8952C144.54 35.8992 144.537 35.9031 144.537 35.907C144.544 36.12 144.493 36.8298 143.491 36.9284ZM140.289 14.0005H140.285L140.289 14.0084C140.262 14.17 140.065 14.3633 139.666 14.4658C138.948 14.6472 138.42 14.5092 138.231 14.3002C138.148 14.2055 138.172 14.1385 138.179 14.1148C138.239 13.9531 138.562 13.7362 139.276 13.6416C139.883 13.5588 140.258 13.7362 140.297 13.9374C140.301 13.9571 140.289 13.9808 140.289 14.0005ZM147.877 11.3977C147.845 11.2518 147.747 11.1256 147.613 11.0586C147.482 10.9876 147.325 10.9797 147.183 11.0428C145.25 11.867 144.032 11.9143 142.62 11.9735C142.182 11.9892 141.725 12.009 141.228 12.0484C138.239 12.2968 137.403 12.9909 137.328 13.0737C137.063 13.2591 137.012 13.5154 137.004 13.5864C136.996 13.6416 137 13.6929 137.008 13.7441L141.697 37.2321C141.823 37.8867 143.164 37.934 143.511 37.934C143.555 37.934 143.586 37.9301 143.59 37.9301C144.927 37.8 145.412 36.9284 145.522 36.258C145.877 36.1555 146.493 36.0056 147.096 36.0056C147.1 36.0056 147.108 36.0056 147.116 36.0056C149.923 36.0056 150.495 35.6902 151.745 35.004L152.006 34.862C152.195 34.7555 152.297 34.5386 152.258 34.3257C152.223 34.1206 148.456 14.0793 147.877 11.3977Z" fill="#1C1C1B"/>
</g>
<defs>
<clipPath id="clip0_25_7273">
<rect width="230" height="61" fill="white"/>
</clipPath>
</defs>
</svg>
