<svg width="227" height="61" viewBox="0 0 227 61" fill="none" xmlns="http://www.w3.org/2000/svg">
<g clip-path="url(#clip0_25_7230)">
<path d="M24.8542 60.7916C11.2344 60.7916 0.15625 49.8385 0.15625 36.3801V0.317627H201.323C214.938 0.317627 226.016 11.2655 226.016 24.7239L226.021 60.7916" fill="white"/>
<path d="M201.323 5.98438H50.2708V36.3802C50.2708 46.7135 58.802 55.1198 69.2916 55.1198H220.349V24.724C220.349 14.3958 211.812 5.98438 201.323 5.98438Z" fill="white"/>
<path d="M218.458 53.2292H69.2916C59.8437 53.2292 52.1562 45.6719 52.1562 36.3802V7.875H201.323C210.771 7.875 218.458 15.4323 218.458 24.724V53.2292ZM201.323 5.98438H50.2708V36.3802C50.2708 46.7135 58.802 55.1198 69.2916 55.1198H220.349V24.724C220.349 14.3958 211.812 5.98438 201.323 5.98438Z" fill="#FCC42F"/>
<path d="M163.089 55.1198L176.099 28.5417L162.807 5.98438H201.323C211.812 5.98438 220.349 14.3906 220.349 24.724V55.1198" fill="#FCC42F"/>
<path d="M201.323 7.875H166.115L178.245 28.4583L166.12 53.2292H218.458V24.724C218.458 15.4323 210.771 7.875 201.323 7.875Z" fill="#FCC42F"/>
<path d="M206.281 41.6615H205.078C204.979 41.6615 204.885 41.6719 204.792 41.6875C205.354 35.4323 206.224 25.7708 206.646 21.3958C206.687 20.9531 206.359 20.5573 205.917 20.5156C205.464 20.4635 205.073 20.7969 205.031 21.2448C204.385 27.9635 202.677 47.1458 202.661 47.3385C202.63 47.6615 202.312 47.9271 201.943 47.9271H188.854C188.479 47.9271 188.167 47.6615 188.135 47.3385C188.12 47.1458 186.411 27.9635 185.766 21.2448C185.724 20.7969 185.333 20.4635 184.88 20.5156C184.437 20.5573 184.109 20.9531 184.151 21.3958C184.573 25.7708 185.443 35.4271 186.005 41.6875C185.911 41.6667 185.812 41.6562 185.719 41.6562H184.516C183.74 41.6562 183.104 42.2917 183.104 43.0677V48.1406C183.104 48.9167 183.74 49.5469 184.516 49.5469H185.719C186.297 49.5469 186.802 49.1927 187.016 48.6823C187.443 49.2135 188.104 49.5469 188.854 49.5469H201.943C202.687 49.5469 203.349 49.2135 203.781 48.6875C203.995 49.1927 204.495 49.5521 205.078 49.5521H206.281C207.057 49.5521 207.687 48.9219 207.687 48.1406V43.0677C207.687 42.2917 207.057 41.6615 206.281 41.6615Z" fill="#1C1C1B"/>
<path d="M190.344 25.1198V27.4115H191.016C191.411 27.4115 191.625 27.2292 191.625 26.6771V26.026C191.625 25.3333 191.401 25.1198 190.865 25.1198H190.344ZM190.344 22.0833V24.0521H190.802C191.24 24.0521 191.505 23.8646 191.505 23.2656V22.849C191.505 22.3125 191.323 22.0833 190.906 22.0833H190.344ZM192.677 22.7344V23C192.677 23.7656 192.443 24.2448 191.922 24.4896V24.5104C192.547 24.7604 192.797 25.3125 192.797 26.099V26.7083C192.797 27.8594 192.187 28.4792 191.016 28.4792H189.172V21.0156H190.938C192.156 21.0156 192.677 21.5833 192.677 22.7344Z" fill="#1C1C1B"/>
<path d="M194.833 26.1146H195.964L195.411 22.3385H195.385L194.833 26.1146ZM197.51 28.4792H196.328L196.125 27.125H194.688L194.479 28.4792H193.406L194.599 21.0156H196.313" fill="#1C1C1B"/>
<path d="M201.661 25.6926V26.6874C201.661 27.8801 201.062 28.5624 199.911 28.5624C198.76 28.5624 198.161 27.8801 198.161 26.6874V22.8072C198.161 21.6093 198.76 20.927 199.911 20.927C201.062 20.927 201.661 21.6093 201.661 22.8072V23.5312H200.552V22.7291C200.552 22.1978 200.318 21.9947 199.943 21.9947C199.573 21.9947 199.338 22.1978 199.338 22.7291V26.7603C199.338 27.2916 199.573 27.4843 199.943 27.4843C200.318 27.4843 200.552 27.2916 200.552 26.7603V25.6926" fill="#1C1C1B"/>
<path d="M192.703 31.2083V36.5365H193.365C193.734 36.5365 193.958 36.3438 193.958 35.8125V31.9323C193.958 31.401 193.734 31.2083 193.365 31.2083H192.703ZM191.531 30.1406H193.385C194.557 30.1406 195.13 30.7917 195.13 31.9844V35.7604C195.13 36.9531 194.557 37.6042 193.385 37.6042H191.531" fill="#1C1C1B"/>
<path d="M197.266 33.2865H198.875V34.349H197.266V36.5365H199.292V37.6042H196.094V30.1406H199.292V31.2031H197.266" fill="#1C1C1B"/>
<path d="M190.161 39.2656H193.786V40.3281H192.562V46.7292H191.385V40.3281H190.161" fill="#1C1C1B"/>
<path d="M195.688 40.3281V42.625H196.146C196.583 42.625 196.849 42.4323 196.849 41.8333V41.099C196.849 40.5677 196.667 40.3281 196.25 40.3281H195.688ZM196.969 46.7292C196.901 46.5365 196.859 46.4167 196.859 45.8125V44.6354C196.859 43.9479 196.625 43.6875 196.094 43.6875H195.688V46.7292H194.516V39.2656H196.286C197.5 39.2656 198.021 39.8281 198.021 40.9792V41.5677C198.021 42.3333 197.776 42.8229 197.255 43.0729V43.0938C197.839 43.3385 198.031 43.8906 198.031 44.6719V45.8229C198.031 46.1823 198.042 46.4531 198.161 46.7292" fill="#1C1C1B"/>
<path d="M199.016 46.7292H200.188V39.2656H199.016V46.7292Z" fill="#1C1C1B"/>
<path d="M207.125 17.6197H183.672V15.6666C183.672 15.5989 183.703 15.5676 183.698 15.5676H185.396C185.589 15.5676 185.771 15.4999 185.917 15.3697L188.047 13.5103C188.141 13.427 188.37 13.3437 188.661 13.3437H202.13C202.422 13.3437 202.656 13.427 202.75 13.5103L204.88 15.3697C205.026 15.4999 205.208 15.5676 205.401 15.5676H207.099C207.089 15.5676 207.125 15.5989 207.125 15.6666V17.6197ZM207.099 13.9791H205.698L203.792 12.3176C203.385 11.9583 202.781 11.7551 202.13 11.7551H188.661C188.016 11.7551 187.411 11.9583 187 12.3176L185.094 13.9791H183.698C182.807 13.9791 182.089 14.7395 182.089 15.6666V17.8124C182.089 18.1093 182.161 18.401 182.307 18.6614C182.37 18.7708 182.458 18.8697 182.562 18.9374C182.823 19.1093 183.12 19.1978 183.427 19.1978H207.37C207.677 19.1978 207.974 19.1093 208.234 18.9374C208.339 18.8697 208.427 18.7708 208.49 18.6614C208.63 18.401 208.708 18.1093 208.708 17.8124V15.6666C208.708 14.7395 207.984 13.9791 207.099 13.9791Z" fill="#1C1C1B"/>
<path d="M202.125 14.0781H188.667C188.297 14.0781 187.995 14.3802 187.995 14.75C187.995 15.1198 188.297 15.4219 188.667 15.4219H202.125C202.495 15.4219 202.797 15.1198 202.797 14.75C202.797 14.3802 202.495 14.0781 202.125 14.0781Z" fill="#1C1C1B"/>
<path d="M103.057 5.98438H50.2708V36.3802C50.2708 46.7135 58.802 55.1198 69.2916 55.1198H122.083V24.724C122.083 14.3958 113.547 5.98438 103.057 5.98438Z" fill="#FCC42F"/>
<path d="M63.8072 29.677C59.0051 29.677 55.1145 33.5676 55.1145 38.3697C55.1145 43.1718 59.0051 47.0624 63.8072 47.0624C68.6145 47.0624 72.5051 43.1718 72.5051 38.3697C72.5051 33.5676 68.6145 29.677 63.8072 29.677Z" fill="white"/>
<path d="M69.4792 39.7865H65.2292V44.0417H62.3906V39.7865H58.1406V36.9531H62.3906V32.7031H65.2292V36.9531H69.4792" fill="#1C1C1B"/>
<path d="M55.9426 26.9167V17.5156H58.427V24.8333H61.9843V26.9167" fill="#1C1C1B"/>
<path d="M63.0989 26.9167V17.5156H69.1718V19.599H65.5885V21.0729H68.651V23.1563H65.5885V24.8333H69.3176V26.9167" fill="#1C1C1B"/>
<path d="M75.2448 26.9167V19.599H72.7604V17.5156H80.2239V19.599H77.7343V26.9167" fill="#1C1C1B"/>
<path d="M83.7083 21.7969H84.6042C85.6042 21.7969 86.1094 21.3802 86.1094 20.5521C86.1094 20.1458 85.9792 19.8698 85.724 19.7135C85.4688 19.5573 85.0938 19.4792 84.6042 19.4792H83.7083V21.7969ZM81.2188 26.9167V17.5156H84.776C85.2813 17.5156 85.7604 17.5625 86.2188 17.6563C86.6771 17.7552 87.0729 17.9219 87.4167 18.151C87.7604 18.3802 88.0313 18.6927 88.2344 19.0833C88.4375 19.474 88.5365 19.9635 88.5365 20.5521C88.5365 21.2292 88.401 21.7865 88.125 22.2292C87.8542 22.6719 87.4844 23.0208 87.0208 23.2708L89.0573 26.9167H86.2813L84.6615 23.7604H83.7083V26.9167" fill="#1C1C1B"/>
<path d="M90.026 26.9167H92.5156V17.5156H90.026V26.9167Z" fill="#1C1C1B"/>
<path d="M75.5364 43.5937V34.1926H81.6666V36.276H78.026V38.0676H81.1458V40.151H78.026V43.5937" fill="#1C1C1B"/>
<path d="M85.0781 39.0208L84.9166 39.6718H86.651L86.4948 39.0208C86.3802 38.5676 86.2604 38.078 86.1458 37.5468C86.0312 37.0155 85.9166 36.5155 85.7968 36.0416H85.7395C85.6354 36.526 85.526 37.0312 85.4166 37.552C85.3073 38.078 85.1927 38.5676 85.0781 39.0208ZM81.4635 43.5937L84.3229 34.1926H87.3281L90.1927 43.5937H87.5625L87.0989 41.5989H84.4687L84.0052 43.5937" fill="#1C1C1B"/>
<path d="M94.7187 43.7656C94.1249 43.7656 93.552 43.6667 93.0103 43.4688C92.4635 43.2708 91.9895 42.974 91.578 42.5729C91.1666 42.1719 90.8385 41.6719 90.5989 41.0677C90.3593 40.4688 90.2395 39.7656 90.2395 38.9635C90.2395 38.1771 90.3645 37.474 90.6145 36.8594C90.8645 36.25 91.1978 35.7344 91.6197 35.3125C92.0364 34.8958 92.5208 34.5729 93.0676 34.349C93.6145 34.1302 94.1822 34.0156 94.7812 34.0156C95.4062 34.0156 95.9687 34.1406 96.4583 34.3854C96.953 34.6354 97.3645 34.9271 97.703 35.2604L96.401 36.8542C96.1718 36.651 95.9322 36.4844 95.6874 36.3542C95.4374 36.224 95.1562 36.1563 94.8385 36.1563C94.5572 36.1563 94.2968 36.2188 94.052 36.349C93.8072 36.474 93.5885 36.651 93.401 36.8802C93.2135 37.1146 93.0624 37.401 92.953 37.7344C92.8385 38.0729 92.7864 38.4531 92.7864 38.875C92.7864 39.7656 92.9687 40.4479 93.3437 40.9167C93.7135 41.3906 94.203 41.625 94.8072 41.625C95.177 41.625 95.4999 41.5469 95.7864 41.3854C96.0676 41.2292 96.3124 41.0365 96.5155 40.8177L97.8176 42.375C97.4114 42.8438 96.9478 43.1875 96.4218 43.4167C95.8958 43.651 95.328 43.7656 94.7187 43.7656Z" fill="#1C1C1B"/>
<path d="M98.776 43.5937H101.26V34.1926H98.776V43.5937Z" fill="#1C1C1B"/>
<path d="M103.031 43.5937V34.1926H105.521V41.5103H109.078V43.5937" fill="#1C1C1B"/>
<path d="M110.188 43.5937V34.1926H116.266V36.276H112.677V37.7499H115.745V39.8333H112.677V41.5103H116.411V43.5937" fill="#1C1C1B"/>
<path d="M28.5624 26.0625C26.8697 28.5521 28.3072 31.8281 30.052 33.4896C31.6458 35 32.9218 35.3594 33.0885 35.401L33.901 33.8438L36.2447 40.2552L29.6197 41.599L30.4999 39.9688L29.6041 39.4635C26.8124 37.6458 26.2239 35.1771 26.0312 34.4063C25.6978 33.0781 25.203 29.1094 28.5624 26.0625Z" fill="#1C1C1B"/>
<path d="M28.5312 26.1718C29.7344 28.927 33.2708 29.4635 35.6042 28.8697C37.6771 28.3437 38.6615 27.4895 38.8281 27.3333L38.8177 27.3176L37.9323 25.7864L44.599 27.2395L42.1875 33.5572L41.2917 31.9687L40.4219 32.4374C37.3958 33.828 34.9896 33.0103 34.2344 32.7603C32.9375 32.3333 29.3125 30.6353 28.5312 26.1718Z" fill="#1C1C1B"/>
<path d="M40.3177 19.5156C39.8541 22.8125 37.8698 24.3958 37.25 24.8958C36.1875 25.7552 32.802 27.8854 28.6198 26.1354C31.5937 26.6094 33.9531 23.9271 34.7135 21.6406C35.401 19.5885 35.1979 18.2917 35.1562 18.0885H35.1354L33.3698 18.0104L38.1823 13.1719L42.2083 18.6094L40.3906 18.5052" fill="#1C1C1B"/>
<path fill-rule="evenodd" clip-rule="evenodd" d="M20.0938 16.7291C18.5729 16.7291 17.3438 15.4999 17.3438 13.9791C17.3438 12.4583 18.5729 11.2239 20.0938 11.2239C21.6146 11.2239 22.849 12.4583 22.849 13.9791C22.849 15.4999 21.6146 16.7291 20.0938 16.7291Z" fill="#1C1C1B"/>
<path d="M15.8333 30.1146C16.0677 29.4688 16.4167 29.5104 16.4167 29.5104C16.4167 29.5104 16.7344 29.4427 16.9115 30.0938L19.4844 39.125C17.3385 38.5052 15.3802 37.4375 13.7135 36.0313L15.8333 30.1146ZM23.8594 5.98438C13.9167 5.98438 5.82812 14.0729 5.82812 24.0208C5.82812 33.9583 13.9167 42.0521 23.8594 42.0521C24.3906 42.0521 24.9115 42.0156 25.4323 41.9688L25.5521 43.7813L28.8542 40.5885L25.1615 37.776L25.3021 39.6771C24.8281 39.7188 24.3438 39.75 23.8594 39.75C23.0938 39.75 22.3438 39.6927 21.6094 39.5885L21.5365 39.1094L19.8229 24.5104C19.5885 21.7552 21.1615 21.3125 22.1354 21.7292L27.6042 23.9219C28.2292 24.1927 28.5313 23.6719 28.5313 23.6719C28.5313 23.6719 28.8854 23.1198 28.25 22.7135C28.25 22.7135 20.7969 17.776 19.2083 17.4792C17.0417 17.0729 14.8958 18.8281 14.4219 21.1146L11.776 34.0833C9.5 31.349 8.125 27.8438 8.125 24.0208C8.125 15.3438 15.1823 8.28646 23.8594 8.28646C28.4948 8.28646 32.6667 10.3021 35.5469 13.4948L37.1615 11.8594C33.8646 8.25 29.1198 5.98438 23.8594 5.98438Z" fill="#1C1C1B"/>
<path d="M129.608 44.117L129.125 41.87H129.111L128.628 44.117H129.608ZM129.741 41.002L131.064 46H130.014L129.783 44.943H128.453L128.222 46H127.172L128.495 41.002H129.741ZM131.412 46V41.002H132.42V45.174H134.205V46H131.412ZM135.597 41.002V44.488C135.597 44.614 135.604 44.7307 135.618 44.838C135.637 44.9407 135.667 45.0317 135.709 45.111C135.756 45.1857 135.817 45.2463 135.891 45.293C135.971 45.335 136.069 45.356 136.185 45.356C136.307 45.356 136.405 45.335 136.479 45.293C136.554 45.2463 136.612 45.1857 136.654 45.111C136.701 45.0317 136.731 44.9407 136.745 44.838C136.764 44.7307 136.773 44.614 136.773 44.488V41.002H137.781V44.488C137.781 44.8053 137.737 45.069 137.648 45.279C137.56 45.4843 137.441 45.6477 137.291 45.769C137.142 45.8903 136.972 45.972 136.78 46.014C136.589 46.056 136.391 46.077 136.185 46.077C135.98 46.077 135.782 46.0583 135.59 46.021C135.399 45.9837 135.229 45.909 135.079 45.797C134.93 45.6803 134.811 45.517 134.722 45.307C134.634 45.097 134.589 44.824 134.589 44.488V41.002H135.597ZM138.44 41.002H139.938L140.652 44.53H140.666L141.387 41.002H142.878V46H141.954V42.01H141.94L141.051 46H140.267L139.378 42.01H139.364V46H138.44V41.002ZM143.649 46V41.002H144.657V46H143.649ZM146.567 41.002L147.785 44.425H147.799V41.002H148.723V46H147.575L146.343 42.5H146.329V46H145.405V41.002H146.567ZM149.474 46V41.002H150.482V46H149.474ZM152.174 41.002V44.488C152.174 44.614 152.181 44.7307 152.195 44.838C152.214 44.9407 152.244 45.0317 152.286 45.111C152.333 45.1857 152.394 45.2463 152.468 45.293C152.548 45.335 152.646 45.356 152.762 45.356C152.884 45.356 152.982 45.335 153.056 45.293C153.131 45.2463 153.189 45.1857 153.231 45.111C153.278 45.0317 153.308 44.9407 153.322 44.838C153.341 44.7307 153.35 44.614 153.35 44.488V41.002H154.358V44.488C154.358 44.8053 154.314 45.069 154.225 45.279C154.137 45.4843 154.018 45.6477 153.868 45.769C153.719 45.8903 153.549 45.972 153.357 46.014C153.166 46.056 152.968 46.077 152.762 46.077C152.557 46.077 152.359 46.0583 152.167 46.021C151.976 45.9837 151.806 45.909 151.656 45.797C151.507 45.6803 151.388 45.517 151.299 45.307C151.211 45.097 151.166 44.824 151.166 44.488V41.002H152.174ZM155.017 41.002H156.515L157.229 44.53H157.243L157.964 41.002H159.455V46H158.531V42.01H158.517L157.628 46H156.844L155.955 42.01H155.941V46H155.017V41.002Z" fill="#1C1C1B"/>
<path d="M155.891 28.6991L154.974 30.3708L151.1 28.8214C151.076 28.8091 151.043 28.801 151.014 28.801L142.966 28.0304C142.908 28.0222 142.851 28.0385 142.798 28.0671L144.246 26.8112C144.478 26.6073 144.503 26.2608 144.303 26.0283C144.099 25.7959 143.748 25.7755 143.52 25.9753L139.912 29.1109C139.895 29.1231 139.891 29.1394 139.879 29.1517L136.56 28.6746C136.389 28.6501 136.23 28.7684 136.201 28.9437C136.181 29.115 136.299 29.2781 136.47 29.3025L139.524 29.7388L137.84 32.7806L137.404 33.437L134.803 33.5267L130.758 33.1598L130.297 31.9039L133.2 31.435C133.502 31.3861 133.706 31.1047 133.661 30.803C133.612 30.5013 133.327 30.2933 133.025 30.3423L130.326 30.7745L131.088 28.1935C131.096 28.1608 131.1 28.1323 131.108 28.1038L131.581 24.0997L135.545 23.9366L135.695 25.8245C135.708 25.9917 135.85 26.114 136.014 26.114C136.022 26.114 136.03 26.114 136.038 26.114C136.213 26.1017 136.344 25.9468 136.327 25.7755L136.168 23.7858L140.605 21.2822C140.756 21.1966 140.813 21.005 140.727 20.85C140.641 20.6992 140.446 20.6462 140.295 20.7318L135.744 23.2965L131.504 23.4718L130.546 21.8164L131.675 17.8287L136.372 18.004L136.707 20.0509C136.731 20.2058 136.866 20.3159 137.021 20.3159C137.037 20.3159 137.053 20.3159 137.07 20.3118C137.241 20.2833 137.359 20.1202 137.331 19.9489L137 17.951L140.164 17.4087L146.509 17.5922L146.407 22.061C146.403 22.3668 146.643 22.6196 146.949 22.6278H146.961C147.259 22.6278 147.508 22.3872 147.516 22.0855L147.569 19.6635C147.585 19.6635 147.597 19.6676 147.614 19.6676C147.765 19.6676 147.899 19.5575 147.924 19.4025L148.303 17.1437L152.629 17.7634L149.971 19.6839C149.852 19.7736 149.807 19.9326 149.869 20.0712L150.342 21.1354C150.391 21.2537 150.509 21.323 150.627 21.323C150.672 21.323 150.717 21.3149 150.757 21.2945C150.916 21.2252 150.99 21.0376 150.916 20.8786L150.55 20.0468L153.396 17.9877L155.422 22.5381L150.366 22.9417C150.191 22.954 150.06 23.1048 150.077 23.2802C150.089 23.4473 150.227 23.5737 150.391 23.5737C150.403 23.5737 150.411 23.5737 150.419 23.5697L155.577 23.1619L155.487 26.1058C155.487 26.1955 155.508 26.2893 155.548 26.3709L155.891 27.0599V28.6991ZM151.288 32.3728L150.664 30.962C150.537 30.6807 150.211 30.5543 149.93 30.6807C149.652 30.803 149.526 31.1292 149.648 31.4105L150.121 32.4747L148.017 32.9233L141.918 33.119L141.322 30.8764C141.277 30.7092 141.106 30.6073 140.939 30.6521C140.768 30.697 140.666 30.8682 140.711 31.0395L141.241 33.0293L139.174 32.6623L140.711 29.8815L142.672 28.1771C142.647 28.2179 142.627 28.2628 142.623 28.3158C142.607 28.487 142.733 28.642 142.908 28.6583L150.908 29.4248L154.798 30.9824L155.23 33.0048L151.288 32.3728ZM156.939 26.6807L156.6 25.9998L156.698 22.8153C156.698 22.7297 156.682 22.6482 156.649 22.5748L154.231 17.1355C154.15 16.9602 153.991 16.8378 153.803 16.8093L148.16 16.0061C148.05 15.9897 147.936 16.0061 147.834 16.0591L146.953 16.4994L140.144 16.2996C140.103 16.2996 140.071 16.3037 140.034 16.3119L136.564 16.9031L131.284 16.7033C131.011 16.6911 130.799 16.8623 130.729 17.107L129.42 21.743C129.38 21.8857 129.396 22.0406 129.473 22.167L130.489 23.9244L130.012 27.9243L129.017 31.3045C129.017 31.3127 129.017 31.3168 129.017 31.3208C129.013 31.3371 129.013 31.3535 129.009 31.3698C129 31.4187 128.996 31.4676 129.004 31.5206C129.004 31.5288 129 31.541 129.004 31.5492C129.004 31.5655 129.013 31.5777 129.017 31.594C129.021 31.6103 129.021 31.6307 129.029 31.6511L129.836 33.8651C129.91 34.069 130.093 34.2077 130.305 34.228L134.737 34.6317C134.754 34.6317 134.77 34.6358 134.786 34.6358C134.794 34.6358 134.803 34.6358 134.807 34.6358L137.73 34.5338C137.905 34.5257 138.073 34.436 138.17 34.2851L138.574 33.6817L141.64 34.224C141.681 34.228 141.722 34.2321 141.755 34.2321L148.099 34.0282C148.132 34.0282 148.168 34.0242 148.201 34.016L150.921 33.4329L155.854 34.224C155.887 34.228 155.915 34.228 155.948 34.2321C156.262 34.224 156.507 33.9834 156.507 33.6776C156.507 33.596 156.49 33.5186 156.458 33.4493L155.919 30.9416L156.931 29.1068C156.976 29.0253 157 28.9355 157 28.8418V26.9295C157 26.8438 156.98 26.7582 156.939 26.6807Z" fill="#1C1C1B"/>
<path d="M144.866 24.8255L140.071 23.0477C139.907 22.9866 139.728 23.0722 139.667 23.2353C139.606 23.3984 139.687 23.5819 139.854 23.643L143.418 24.9641L141.759 25.1598C141.587 25.1843 141.461 25.3393 141.481 25.5146C141.502 25.6736 141.636 25.7918 141.795 25.7918C141.808 25.7918 141.82 25.7918 141.832 25.7918L144.792 25.433C144.939 25.4167 145.053 25.3026 145.069 25.1598C145.086 25.0131 145 24.8744 144.866 24.8255Z" fill="#1C1C1B"/>
</g>
<defs>
<clipPath id="clip0_25_7230">
<rect width="227" height="61" fill="white"/>
</clipPath>
</defs>
</svg>
