<svg width="138" height="46" viewBox="0 0 138 46" fill="none" xmlns="http://www.w3.org/2000/svg">
<g clip-path="url(#clip0_109_716)">
<path d="M122.192 3.84032H35.4867V30.0936C35.4867 38.6696 42.4654 45.6483 51.0427 45.6483H137.747V19.395C137.747 10.8177 130.769 3.84032 122.192 3.84032ZM37.3214 30.0936V5.67232H81.6227L91.612 24.743L81.6227 43.815H51.0427C43.476 43.815 37.3214 37.659 37.3214 30.0936Z" fill="#BB2024"/>
<path d="M44.8202 21.9041L44.8149 22.0867L44.7949 22.2161L44.7602 22.3081L44.6909 22.3961L44.5096 22.5227C44.4189 22.5747 44.3082 22.6241 44.1789 22.6707C44.0482 22.7187 43.8989 22.7574 43.7309 22.7894C43.5642 22.8214 43.3816 22.8361 43.1869 22.8361C42.8056 22.8361 42.4629 22.7774 42.1562 22.6601C41.8496 22.5427 41.5882 22.3681 41.3736 22.1347C41.1589 21.9001 40.9936 21.6094 40.8789 21.2601C40.7642 20.9094 40.7069 20.5027 40.7069 20.0387C40.7069 19.5667 40.7709 19.1467 40.8962 18.7801C41.0229 18.4134 41.1989 18.1054 41.4256 17.8561C41.6509 17.6067 41.9242 17.4174 42.2402 17.2881C42.5562 17.1601 42.9042 17.0947 43.2856 17.0947C43.4402 17.0947 43.5896 17.1081 43.7336 17.1334C43.8762 17.1601 44.0096 17.1934 44.1309 17.2347C44.2536 17.2761 44.3616 17.3241 44.4589 17.3787L44.6642 17.5187L44.7429 17.6147L44.7776 17.7134L44.7976 17.8561L44.8029 18.0574L44.7949 18.2774L44.7642 18.4227L44.7122 18.5054L44.6442 18.5307L44.4802 18.4547L44.2256 18.2881C44.1216 18.2254 43.9962 18.1707 43.8522 18.1201C43.7069 18.0694 43.5336 18.0454 43.3336 18.0454C43.1122 18.0454 42.9162 18.0894 42.7429 18.1801C42.5696 18.2707 42.4216 18.4001 42.3002 18.5667C42.1789 18.7347 42.0856 18.9374 42.0229 19.1747C41.9589 19.4134 41.9282 19.6814 41.9282 19.9787C41.9282 20.3054 41.9629 20.5881 42.0296 20.8281C42.0962 21.0667 42.1936 21.2641 42.3176 21.4187C42.4416 21.5734 42.5922 21.6881 42.7682 21.7641C42.9456 21.8401 43.1429 21.8787 43.3629 21.8787C43.5642 21.8787 43.7376 21.8547 43.8829 21.8067C44.0296 21.7601 44.1562 21.7081 44.2602 21.6507L44.5176 21.4961L44.6736 21.4267L44.7429 21.4441L44.7856 21.5134L44.8109 21.6574L44.8202 21.9041Z" fill="#BB2024"/>
<path d="M49.1093 20.5718C49.1093 20.7038 49.0813 20.8011 49.0213 20.8638L48.7787 20.9584H46.4453C46.4453 21.1224 46.4653 21.2704 46.504 21.4038C46.5427 21.5371 46.604 21.6504 46.688 21.7424C46.7733 21.8358 46.8813 21.9064 47.0147 21.9558C47.148 22.0038 47.3067 22.0291 47.4933 22.0291C47.6827 22.0291 47.8493 22.0144 47.992 21.9878C48.1347 21.9611 48.26 21.9304 48.364 21.8971L48.624 21.8078L48.7907 21.7664L48.856 21.7811L48.8987 21.8358L48.9227 21.9451L48.9293 22.1238L48.924 22.2838L48.912 22.3984L48.8853 22.4784L48.8413 22.5398L48.688 22.6224C48.6053 22.6558 48.4987 22.6904 48.3707 22.7224C48.2413 22.7558 48.0933 22.7838 47.928 22.8091C47.7613 22.8331 47.584 22.8451 47.3947 22.8451C47.0533 22.8451 46.756 22.8024 46.4987 22.7158C46.2427 22.6304 46.028 22.4998 45.856 22.3251C45.684 22.1504 45.5547 21.9304 45.472 21.6638C45.3867 21.3971 45.344 21.0851 45.344 20.7264C45.344 20.3851 45.3893 20.0784 45.4773 19.8051C45.5667 19.5318 45.696 19.2984 45.864 19.1091C46.0333 18.9184 46.2387 18.7731 46.4827 18.6718C46.724 18.5718 46.996 18.5224 47.3 18.5224C47.6213 18.5224 47.896 18.5691 48.124 18.6638C48.352 18.7584 48.5373 18.8891 48.684 19.0571C48.8307 19.2251 48.9373 19.4224 49.0067 19.6518C49.0747 19.8811 49.1093 20.1304 49.1093 20.3998V20.5718ZM48.0613 20.2624C48.0693 19.9584 48.0093 19.7198 47.8787 19.5464C47.748 19.3731 47.5467 19.2864 47.2747 19.2864C47.1373 19.2864 47.0173 19.3131 46.916 19.3638L46.6627 19.5731L46.508 19.8824C46.4707 20.0011 46.4507 20.1278 46.4453 20.2624H48.0613Z" fill="#BB2024"/>
<path d="M52.2078 22.2221C52.2078 22.3488 52.2012 22.4448 52.1852 22.5128L52.1212 22.6541L52.0092 22.7274L51.8332 22.7834L51.6132 22.8194L51.3745 22.8328C51.1598 22.8328 50.9732 22.8048 50.8158 22.7501C50.6585 22.6968 50.5278 22.6128 50.4238 22.4994C50.3212 22.3861 50.2452 22.2434 50.1958 22.0714C50.1478 21.8994 50.1238 21.6968 50.1238 21.4621V19.4968H49.6638L49.5385 19.3968C49.5105 19.3288 49.4958 19.2168 49.4958 19.0594L49.5078 18.8488L49.5385 18.7128L49.5932 18.6421L49.6678 18.6208H50.1238V17.7661L50.1478 17.6888L50.2332 17.6301L50.4012 17.5954L50.6612 17.5848L50.9252 17.5954L51.0905 17.6301L51.1758 17.6888L51.2025 17.7661V18.6208H52.0358L52.1118 18.6421L52.1652 18.7128L52.1972 18.8488L52.2078 19.0594C52.2078 19.2168 52.1932 19.3288 52.1652 19.3968L52.0398 19.4968H51.2025V21.2981C51.2025 21.5074 51.2345 21.6648 51.3012 21.7688C51.3665 21.8728 51.4838 21.9261 51.6532 21.9261L51.8078 21.9101L51.9318 21.8768L52.0212 21.8421L52.0878 21.8274L52.1372 21.8421L52.1732 21.9021L52.1972 22.0248L52.2078 22.2221Z" fill="#BB2024"/>
<path d="M58.2461 22.6131L58.2034 22.7078L58.0687 22.7571C58.0074 22.7664 57.9154 22.7718 57.7954 22.7718C57.6661 22.7718 57.5727 22.7664 57.5141 22.7571L57.3887 22.7078L57.3527 22.6131V22.3078C57.1941 22.4771 57.0154 22.6091 56.8141 22.7038C56.6114 22.7984 56.3861 22.8451 56.1407 22.8451C55.9367 22.8451 55.7487 22.8184 55.5807 22.7651C55.4101 22.7131 55.2621 22.6344 55.1381 22.5291C55.0127 22.4251 54.9154 22.2944 54.8461 22.1411C54.7781 21.9851 54.7434 21.8051 54.7434 21.5984C54.7434 21.3758 54.7861 21.1811 54.8754 21.0171C54.9607 20.8518 55.0914 20.7158 55.2661 20.6078C55.4394 20.5011 55.6541 20.4211 55.9127 20.3691C56.1701 20.3184 56.4701 20.2918 56.8101 20.2918H57.1847V20.0598C57.1847 19.9398 57.1727 19.8344 57.1487 19.7451L57.0287 19.5184L56.8047 19.3851C56.7114 19.3571 56.5954 19.3424 56.4581 19.3424C56.2781 19.3424 56.1181 19.3624 55.9754 19.4024C55.8341 19.4424 55.7074 19.4878 55.5994 19.5358L55.3261 19.6691L55.1474 19.7291L55.0647 19.6998L55.0047 19.6131L54.9674 19.4758L54.9541 19.2958L54.9754 19.0851L55.0567 18.9451L55.2674 18.8078C55.3687 18.7571 55.4861 18.7104 55.6207 18.6678C55.7554 18.6251 55.9021 18.5904 56.0621 18.5624C56.2207 18.5358 56.3834 18.5224 56.5527 18.5224C56.8541 18.5224 57.1114 18.5518 57.3247 18.6104C57.5381 18.6691 57.7127 18.7584 57.8501 18.8811C57.9887 19.0024 58.0887 19.1598 58.1514 19.3518C58.2141 19.5438 58.2461 19.7704 58.2461 20.0344V22.6131ZM57.1847 20.9718H56.7714C56.5967 20.9718 56.4487 20.9838 56.3247 21.0104C56.2021 21.0358 56.1021 21.0744 56.0247 21.1264L55.8554 21.3131L55.8007 21.5651C55.8007 21.7251 55.8527 21.8504 55.9541 21.9424C56.0554 22.0344 56.1967 22.0798 56.3767 22.0798C56.5287 22.0798 56.6687 22.0411 56.7967 21.9638C56.9234 21.8864 57.0527 21.7731 57.1847 21.6251V20.9718Z" fill="#BB2024"/>
<path d="M63.1841 20.6277C63.1841 20.9691 63.1481 21.2757 63.0748 21.5491C63.0028 21.8237 62.8948 22.0557 62.7548 22.2477C62.6134 22.4397 62.4388 22.5877 62.2294 22.6904C62.0214 22.7944 61.7814 22.8451 61.5121 22.8451L61.2054 22.8131L60.9348 22.7144L60.6748 22.5491L60.4081 22.3171V24.1224L60.3814 24.1997L60.2948 24.2571L60.1281 24.2931L59.8668 24.3064L59.6041 24.2931L59.4401 24.2571L59.3508 24.1997L59.3254 24.1224V18.7664L59.3468 18.6917L59.4228 18.6384L59.5641 18.6064L59.7854 18.5944L60.0028 18.6064L60.1441 18.6384L60.2188 18.6917L60.2401 18.7664V19.2184L60.5694 18.9157L60.8974 18.6957L61.2441 18.5651C61.3628 18.5357 61.4894 18.5224 61.6241 18.5224C61.9054 18.5224 62.1441 18.5771 62.3414 18.6877C62.5401 18.7984 62.7014 18.9491 62.8254 19.1411C62.9508 19.3331 63.0414 19.5557 63.0988 19.8117C63.1561 20.0664 63.1841 20.3384 63.1841 20.6277ZM62.0588 20.7051C62.0588 20.5424 62.0468 20.3851 62.0228 20.2344C61.9974 20.0837 61.9561 19.9504 61.8974 19.8331L61.6654 19.5517C61.5694 19.4811 61.4494 19.4464 61.3054 19.4464L61.0934 19.4784L60.8788 19.5837L60.6534 19.7731L60.4081 20.0611V21.3237C60.5601 21.5157 60.7041 21.6637 60.8414 21.7691C60.9788 21.8731 61.1228 21.9251 61.2721 21.9251C61.4121 21.9251 61.5321 21.8904 61.6308 21.8184L61.8734 21.5371C61.9361 21.4211 61.9841 21.2891 62.0134 21.1437C62.0441 20.9971 62.0588 20.8517 62.0588 20.7051Z" fill="#BB2024"/>
<path d="M67.9072 20.6277C67.9072 20.9691 67.8712 21.2757 67.7979 21.5491C67.7246 21.8237 67.6179 22.0557 67.4779 22.2477C67.3366 22.4397 67.1619 22.5877 66.9526 22.6904C66.7446 22.7944 66.5046 22.8451 66.2352 22.8451L65.9286 22.8131L65.6579 22.7144L65.3979 22.5491L65.1312 22.3171V24.1224L65.1046 24.1997L65.0179 24.2571L64.8512 24.2931L64.5899 24.3064L64.3272 24.2931L64.1619 24.2571L64.0739 24.1997L64.0472 24.1224V18.7664L64.0699 18.6917L64.1459 18.6384L64.2872 18.6064L64.5072 18.5944L64.7259 18.6064L64.8672 18.6384L64.9419 18.6917L64.9632 18.7664V19.2184L65.2926 18.9157L65.6206 18.6957L65.9672 18.5651C66.0859 18.5357 66.2126 18.5224 66.3472 18.5224C66.6272 18.5224 66.8672 18.5771 67.0646 18.6877C67.2619 18.7984 67.4246 18.9491 67.5486 19.1411C67.6739 19.3331 67.7646 19.5557 67.8206 19.8117C67.8779 20.0664 67.9072 20.3384 67.9072 20.6277ZM66.7806 20.7051C66.7806 20.5424 66.7699 20.3851 66.7459 20.2344C66.7206 20.0837 66.6792 19.9504 66.6206 19.8331L66.3886 19.5517C66.2926 19.4811 66.1726 19.4464 66.0286 19.4464L65.8166 19.4784L65.6019 19.5837L65.3766 19.7731L65.1312 20.0611V21.3237C65.2832 21.5157 65.4272 21.6637 65.5646 21.7691C65.7019 21.8731 65.8459 21.9251 65.9952 21.9251C66.1352 21.9251 66.2552 21.8904 66.3539 21.8184L66.5966 21.5371C66.6592 21.4211 66.7072 21.2891 66.7366 21.1437C66.7672 20.9971 66.7806 20.8517 66.7806 20.7051Z" fill="#BB2024"/>
<path d="M72.0379 22.6131L71.9953 22.7078L71.8606 22.7571C71.7993 22.7664 71.7073 22.7718 71.5873 22.7718C71.4579 22.7718 71.3646 22.7664 71.3059 22.7571L71.1806 22.7078L71.1446 22.6131V22.3078C70.9859 22.4771 70.8073 22.6091 70.6059 22.7038C70.4033 22.7984 70.1779 22.8451 69.9326 22.8451C69.7286 22.8451 69.5406 22.8184 69.3713 22.7651C69.2006 22.7131 69.0526 22.6344 68.9286 22.5291C68.8033 22.4251 68.7059 22.2944 68.6379 22.1411C68.5686 21.9851 68.5339 21.8051 68.5339 21.5984C68.5339 21.3758 68.5779 21.1811 68.6659 21.0171C68.7526 20.8518 68.8833 20.7158 69.0579 20.6078C69.2313 20.5011 69.4459 20.4211 69.7046 20.3691C69.9619 20.3184 70.2619 20.2918 70.6019 20.2918H70.9766V20.0598C70.9766 19.9398 70.9646 19.8344 70.9406 19.7451L70.8206 19.5184L70.5966 19.3851C70.5033 19.3571 70.3873 19.3424 70.2499 19.3424C70.0699 19.3424 69.9086 19.3624 69.7673 19.4024C69.6259 19.4424 69.4993 19.4878 69.3899 19.5358L69.1179 19.6691L68.9379 19.7291L68.8553 19.6998L68.7953 19.6131L68.7579 19.4758L68.7446 19.2958L68.7673 19.0851L68.8486 18.9451L69.0593 18.8078C69.1593 18.7571 69.2779 18.7104 69.4126 18.6678C69.5473 18.6251 69.6939 18.5904 69.8526 18.5624C70.0126 18.5358 70.1753 18.5224 70.3446 18.5224C70.6459 18.5224 70.9033 18.5518 71.1166 18.6104C71.3299 18.6691 71.5046 18.7584 71.6419 18.8811C71.7806 19.0024 71.8806 19.1598 71.9433 19.3518C72.0059 19.5438 72.0379 19.7704 72.0379 20.0344V22.6131ZM70.9766 20.9718H70.5633C70.3886 20.9718 70.2406 20.9838 70.1166 21.0104C69.9939 21.0358 69.8939 21.0744 69.8153 21.1264L69.6473 21.3131L69.5926 21.5651C69.5926 21.7251 69.6446 21.8504 69.7459 21.9424C69.8473 22.0344 69.9873 22.0798 70.1686 22.0798C70.3206 22.0798 70.4606 22.0411 70.5886 21.9638C70.7153 21.8864 70.8446 21.7731 70.9766 21.6251V20.9718Z" fill="#BB2024"/>
<path d="M75.5791 19.1234L75.5711 19.3767L75.5445 19.5314L75.5005 19.6087L75.4285 19.63L75.3511 19.6154L75.2551 19.5834L75.1365 19.5514L74.9951 19.5354L74.8138 19.5727L74.6285 19.686L74.4258 19.8927C74.3565 19.978 74.2805 20.0847 74.1991 20.21V22.6007L74.1738 22.6754L74.0871 22.7287L73.9205 22.762L73.6578 22.7727L73.3965 22.762L73.2311 22.7287L73.1431 22.6754L73.1165 22.6007V18.7674L73.1378 18.6914L73.2151 18.638L73.3605 18.606L73.5805 18.5954L73.8085 18.606L73.9485 18.638L74.0191 18.6914L74.0405 18.7674V19.2434C74.1405 19.1007 74.2351 18.982 74.3245 18.8887L74.5778 18.6674L74.8191 18.554L75.0591 18.522L75.1791 18.5287L75.3125 18.55L75.4325 18.5847L75.5085 18.6247L75.5431 18.6727L75.5618 18.7434L75.5751 18.878L75.5791 19.1234Z" fill="#BB2024"/>
<path d="M79.6877 20.5718C79.6877 20.7038 79.6597 20.8011 79.601 20.8638L79.357 20.9584H77.0237C77.0237 21.1224 77.0437 21.2704 77.0824 21.4038C77.121 21.5371 77.1824 21.6504 77.2664 21.7424C77.3517 21.8358 77.4597 21.9064 77.593 21.9558C77.7264 22.0038 77.885 22.0291 78.0717 22.0291C78.261 22.0291 78.4264 22.0144 78.5704 21.9878C78.713 21.9611 78.8384 21.9304 78.9424 21.8971L79.2024 21.8078L79.369 21.7664L79.4344 21.7811L79.477 21.8358L79.501 21.9451L79.5077 22.1238L79.5024 22.2838L79.4904 22.3984L79.4637 22.4784L79.4197 22.5398L79.2664 22.6224C79.1837 22.6558 79.077 22.6904 78.949 22.7224C78.8197 22.7558 78.6717 22.7838 78.5064 22.8091C78.3397 22.8331 78.1624 22.8451 77.973 22.8451C77.6317 22.8451 77.3344 22.8024 77.077 22.7158C76.821 22.6304 76.6064 22.4998 76.4344 22.3251C76.2624 22.1504 76.133 21.9304 76.0504 21.6638C75.965 21.3971 75.9224 21.0851 75.9224 20.7264C75.9224 20.3851 75.9677 20.0784 76.0557 19.8051C76.145 19.5318 76.2744 19.2984 76.4424 19.1091C76.6117 18.9184 76.817 18.7731 77.061 18.6718C77.3024 18.5718 77.5744 18.5224 77.8784 18.5224C78.1997 18.5224 78.4744 18.5691 78.7024 18.6638C78.9304 18.7584 79.1157 18.8891 79.2624 19.0571C79.4077 19.2251 79.5157 19.4224 79.585 19.6518C79.653 19.8811 79.6877 20.1304 79.6877 20.3998V20.5718ZM78.6397 20.2624C78.6477 19.9584 78.5877 19.7198 78.457 19.5464C78.3264 19.3731 78.125 19.2864 77.853 19.2864C77.7157 19.2864 77.5957 19.3131 77.4944 19.3638L77.241 19.5731L77.0864 19.8824C77.049 20.0011 77.029 20.1278 77.0237 20.2624H78.6397Z" fill="#BB2024"/>
<path d="M81.7419 17.4688C81.7419 17.6862 81.6979 17.8368 81.6086 17.9195C81.5192 18.0035 81.3552 18.0448 81.1139 18.0448C80.8712 18.0448 80.7059 18.0048 80.6232 17.9248C80.5366 17.8448 80.4952 17.6995 80.4952 17.4902C80.4952 17.2728 80.5392 17.1208 80.6272 17.0368C80.7139 16.9528 80.8792 16.9102 81.1232 16.9102C81.3632 16.9102 81.5272 16.9515 81.6126 17.0328C81.6992 17.1142 81.7419 17.2595 81.7419 17.4688ZM81.6606 22.6008L81.6339 22.6755L81.5472 22.7288L81.3806 22.7608L81.1192 22.7715L80.8566 22.7608L80.6926 22.7288L80.6032 22.6755L80.5779 22.6008V18.7755L80.6032 18.6995L80.6926 18.6448L80.8566 18.6075L81.1192 18.5955L81.3806 18.6075L81.5472 18.6448L81.6339 18.6995L81.6606 18.7755V22.6008Z" fill="#BB2024"/>
<path d="M83.822 22.6003L83.7967 22.675L83.7087 22.7297L83.542 22.7617L83.2807 22.7723L83.018 22.7617L82.854 22.7297L82.7647 22.675L82.7394 22.6003V16.9483L82.7647 16.871L82.854 16.8137L83.018 16.7763L83.2807 16.7643L83.542 16.7763L83.7087 16.8137L83.7967 16.871L83.822 16.9483V22.6003Z" fill="#BB2024"/>
<path d="M43.6083 29.722C43.6083 29.9394 43.5683 30.1314 43.487 30.298C43.4043 30.4647 43.2883 30.6034 43.1403 30.7154C42.991 30.826 42.815 30.9114 42.611 30.9674C42.4083 31.0234 42.187 31.05 41.9496 31.05C41.8056 31.05 41.6696 31.0407 41.5403 31.018C41.4083 30.9967 41.2923 30.97 41.1883 30.9367L40.931 30.8354L40.7803 30.7394L40.707 30.598C40.6896 30.5327 40.6816 30.4367 40.6816 30.3114L40.6896 30.1114L40.7163 29.9914L40.759 29.9314L40.823 29.9154L40.9643 29.97L41.1936 30.0874C41.2843 30.13 41.391 30.17 41.5136 30.2074C41.6363 30.2447 41.7736 30.2634 41.9283 30.2634L42.1883 30.234L42.387 30.1474L42.5123 30.006L42.555 29.8074L42.4763 29.5874L42.2656 29.426L41.9696 29.2967L41.6296 29.1634L41.291 28.9954L40.9936 28.7647C40.9056 28.6727 40.835 28.562 40.783 28.434C40.7283 28.3047 40.703 28.15 40.703 27.97C40.703 27.786 40.739 27.618 40.811 27.4647C40.8816 27.3114 40.9856 27.1794 41.1203 27.0714C41.255 26.962 41.419 26.878 41.6123 26.818C41.8056 26.758 42.023 26.7274 42.263 26.7274C42.383 26.7274 42.5003 26.7354 42.6136 26.7527L42.9203 26.818L43.1523 26.902L43.2883 26.9794L43.3456 27.0434L43.3723 27.1207L43.3883 27.2327L43.3936 27.398L43.3883 27.5874L43.3656 27.7034L43.3243 27.7607L43.2643 27.7754L43.1443 27.7314L42.9403 27.634L42.6576 27.538C42.5496 27.5074 42.427 27.4927 42.2883 27.4927L42.035 27.522L41.859 27.6087L41.7563 27.7394L41.7216 27.9007L41.803 28.1247L42.0176 28.2834L42.3216 28.4127L42.6656 28.5434L43.0096 28.7087L43.3123 28.9394C43.4003 29.0314 43.4723 29.142 43.527 29.2687C43.5816 29.3967 43.6083 29.5474 43.6083 29.722Z" fill="#BB2024"/>
<path d="M47.9619 28.7774C47.9619 28.9081 47.9325 29.0054 47.8739 29.0694L47.6312 29.1641H45.2979C45.2979 29.3268 45.3165 29.4761 45.3565 29.6094C45.3952 29.7428 45.4565 29.8561 45.5405 29.9481C45.6259 30.0414 45.7339 30.1121 45.8672 30.1601C46.0005 30.2094 46.1592 30.2334 46.3459 30.2334C46.5352 30.2334 46.7005 30.2201 46.8445 30.1934C46.9872 30.1668 47.1125 30.1361 47.2165 30.1028L47.4765 30.0134L47.6432 29.9721L47.7085 29.9868L47.7512 30.0401L47.7752 30.1508L47.7819 30.3281L47.7765 30.4894L47.7645 30.6028L47.7379 30.6841L47.6939 30.7454L47.5405 30.8268C47.4579 30.8614 47.3512 30.8948 47.2232 30.9281C47.0939 30.9614 46.9459 30.9894 46.7805 31.0148C46.6139 31.0388 46.4365 31.0508 46.2472 31.0508C45.9059 31.0508 45.6085 31.0068 45.3512 30.9214C45.0952 30.8348 44.8805 30.7054 44.7085 30.5308C44.5365 30.3548 44.4072 30.1348 44.3245 29.8681C44.2392 29.6014 44.1965 29.2894 44.1965 28.9321C44.1965 28.5908 44.2419 28.2841 44.3299 28.0108C44.4192 27.7361 44.5485 27.5041 44.7165 27.3134C44.8859 27.1241 45.0912 26.9788 45.3339 26.8774C45.5765 26.7774 45.8485 26.7268 46.1525 26.7268C46.4739 26.7268 46.7485 26.7748 46.9765 26.8694C47.2045 26.9641 47.3899 27.0948 47.5365 27.2628C47.6819 27.4294 47.7899 27.6281 47.8592 27.8574C47.9272 28.0868 47.9619 28.3361 47.9619 28.6054V28.7774ZM46.9125 28.4681C46.9219 28.1641 46.8619 27.9254 46.7312 27.7521C46.6005 27.5788 46.3992 27.4921 46.1272 27.4921C45.9899 27.4921 45.8699 27.5188 45.7685 27.5694L45.5152 27.7788L45.3605 28.0881C45.3232 28.2068 45.3032 28.3334 45.2979 28.4681H46.9125Z" fill="#BB2024"/>
<path d="M53.3037 27.3291L53.2957 27.5824L53.2691 27.7371L53.2251 27.8144L53.1531 27.8357L53.0757 27.8211L52.9797 27.7891L52.8611 27.7571L52.7197 27.7411L52.5384 27.7784L52.3517 27.8917L52.1504 28.0984C52.0797 28.1837 52.0037 28.2904 51.9237 28.4157V30.8051L51.8984 30.8811L51.8104 30.9344L51.6451 30.9664L51.3824 30.9771L51.1211 30.9664L50.9557 30.9344L50.8664 30.8811L50.8411 30.8051V26.9717L50.8624 26.8971L50.9397 26.8437L51.0851 26.8117L51.3051 26.8011L51.5331 26.8117L51.6731 26.8437L51.7437 26.8971L51.7651 26.9717V27.4491C51.8651 27.3064 51.9597 27.1877 52.0491 27.0944L52.3024 26.8731L52.5424 26.7597L52.7837 26.7277L52.9037 26.7344L53.0371 26.7557L53.1571 26.7891L53.2331 26.8304L53.2677 26.8784L53.2864 26.9491L53.2997 27.0837L53.3037 27.3291Z" fill="#BB2024"/>
<path d="M57.4126 28.7774C57.4126 28.9081 57.3832 29.0054 57.3246 29.0694L57.0819 29.1641H54.7485C54.7485 29.3268 54.7686 29.4761 54.8072 29.6094C54.8459 29.7428 54.9072 29.8561 54.9912 29.9481C55.0766 30.0414 55.1846 30.1121 55.3179 30.1601C55.4512 30.2094 55.6099 30.2334 55.7966 30.2334C55.9859 30.2334 56.1525 30.2201 56.2952 30.1934C56.4379 30.1668 56.5632 30.1361 56.6672 30.1028L56.9272 30.0134L57.0939 29.9721L57.1592 29.9868L57.2019 30.0401L57.2259 30.1508L57.2326 30.3281L57.2272 30.4894L57.2152 30.6028L57.1886 30.6841L57.1446 30.7454L56.9912 30.8268C56.9086 30.8614 56.8019 30.8948 56.6739 30.9281C56.5446 30.9614 56.3966 30.9894 56.2312 31.0148C56.0646 31.0388 55.8872 31.0508 55.6979 31.0508C55.3565 31.0508 55.0592 31.0068 54.8019 30.9214C54.5459 30.8348 54.3312 30.7054 54.1592 30.5308C53.9872 30.3548 53.8579 30.1348 53.7752 29.8681C53.6899 29.6014 53.6472 29.2894 53.6472 28.9321C53.6472 28.5908 53.6926 28.2841 53.7806 28.0108C53.8699 27.7361 53.9992 27.5041 54.1672 27.3134C54.3365 27.1241 54.5419 26.9788 54.7846 26.8774C55.0272 26.7774 55.2992 26.7268 55.6032 26.7268C55.9246 26.7268 56.1992 26.7748 56.4272 26.8694C56.6552 26.9641 56.8406 27.0948 56.9872 27.2628C57.1326 27.4294 57.2406 27.6281 57.3099 27.8574C57.3779 28.0868 57.4126 28.3361 57.4126 28.6054V28.7774ZM56.3646 28.4681C56.3726 28.1641 56.3126 27.9254 56.1819 27.7521C56.0512 27.5788 55.8499 27.4921 55.5779 27.4921C55.4405 27.4921 55.3206 27.5188 55.2192 27.5694L54.9659 27.7788L54.8112 28.0881C54.7739 28.2068 54.7539 28.3334 54.7485 28.4681H56.3646Z" fill="#BB2024"/>
<path d="M61.2027 30.1949L61.1973 30.3829L61.18 30.5082L61.1547 30.5935L61.0867 30.6749L60.9107 30.7949L60.6267 30.9215C60.5213 30.9589 60.4067 30.9882 60.2813 31.0109C60.1573 31.0349 60.028 31.0455 59.896 31.0455C59.6013 31.0455 59.34 31.0002 59.112 30.9082C58.8853 30.8162 58.6933 30.6815 58.5387 30.5029C58.384 30.3242 58.2667 30.1042 58.1893 29.8469C58.108 29.5895 58.0693 29.2935 58.0693 28.9615C58.0693 28.5775 58.1173 28.2469 58.2147 27.9669C58.3093 27.6882 58.444 27.4562 58.616 27.2735C58.788 27.0895 58.9907 26.9535 59.2253 26.8655C59.4613 26.7762 59.7187 26.7322 60 26.7322L60.3373 26.7615L60.6467 26.8429L60.9053 26.9589L61.0653 27.0709L61.132 27.1509L61.1627 27.2349L61.18 27.3615L61.1853 27.5442C61.1853 27.7109 61.172 27.8269 61.1427 27.8935L61.0307 27.9949L60.876 27.9349L60.6827 27.8015L60.416 27.6682C60.3133 27.6282 60.1893 27.6082 60.0467 27.6082C59.7667 27.6082 59.5507 27.7162 59.4027 27.9335C59.2533 28.1495 59.1787 28.4669 59.1787 28.8842C59.1787 29.0909 59.1973 29.2722 59.2347 29.4295C59.272 29.5869 59.328 29.7189 59.4 29.8255L59.676 30.0642C59.7853 30.1175 59.9133 30.1429 60.06 30.1429C60.208 30.1429 60.3373 30.1215 60.4453 30.0775L60.7253 29.9282L60.928 29.7815L61.0653 29.7135L61.1293 29.7349L61.172 29.8149L61.1947 29.9629L61.2027 30.1949Z" fill="#BB2024"/>
<path d="M64.2069 30.9512L63.7429 32.3099L63.5323 32.4646C63.4176 32.4952 63.2496 32.5112 63.0296 32.5112L62.7549 32.4966L62.5989 32.4472L62.5443 32.3606L62.5696 32.2366L63.0816 30.9512L62.9803 30.8726L62.9136 30.7579L61.5936 27.2339L61.5376 27.0046L61.5896 26.8806L61.7643 26.8179C61.8456 26.8059 61.9536 26.8006 62.0883 26.8006C62.2109 26.8006 62.3083 26.8032 62.3803 26.8072L62.5483 26.8392L62.6389 26.9192L62.6989 27.0712L63.6016 29.6366H63.6136L64.4389 27.0192L64.5069 26.8712L64.6416 26.8179C64.7043 26.8059 64.8149 26.8006 64.9723 26.8006C65.0949 26.8006 65.1989 26.8059 65.2803 26.8179L65.4603 26.8819L65.5176 27.0086L65.4829 27.1966L64.2069 30.9512Z" fill="#BB2024"/>
<path d="M68.9429 30.1949L68.9376 30.3829L68.9202 30.5082L68.8949 30.5935L68.8269 30.6749L68.6509 30.7949L68.3669 30.9215C68.2616 30.9589 68.1469 30.9882 68.0216 31.0109C67.8976 31.0349 67.7682 31.0455 67.6362 31.0455C67.3416 31.0455 67.0802 31.0002 66.8522 30.9082C66.6256 30.8162 66.4336 30.6815 66.2789 30.5029C66.1242 30.3242 66.0069 30.1042 65.9282 29.8469C65.8482 29.5895 65.8096 29.2935 65.8096 28.9615C65.8096 28.5775 65.8576 28.2469 65.9549 27.9669C66.0496 27.6882 66.1842 27.4562 66.3562 27.2735C66.5282 27.0895 66.7309 26.9535 66.9656 26.8655C67.2016 26.7762 67.4589 26.7322 67.7402 26.7322L68.0776 26.7615L68.3869 26.8429L68.6456 26.9589L68.8056 27.0709L68.8722 27.1509L68.9029 27.2349L68.9202 27.3615L68.9256 27.5442C68.9256 27.7109 68.9109 27.8269 68.8829 27.8935L68.7709 27.9949L68.6162 27.9349L68.4229 27.8015L68.1562 27.6682C68.0536 27.6282 67.9296 27.6082 67.7869 27.6082C67.5056 27.6082 67.2909 27.7162 67.1429 27.9335C66.9936 28.1495 66.9189 28.4669 66.9189 28.8842C66.9189 29.0909 66.9376 29.2722 66.9749 29.4295C67.0122 29.5869 67.0682 29.7189 67.1402 29.8255L67.4162 30.0642C67.5256 30.1175 67.6536 30.1429 67.8002 30.1429C67.9482 30.1429 68.0776 30.1215 68.1856 30.0775L68.4656 29.9282L68.6682 29.7815L68.8056 29.7135L68.8696 29.7349L68.9109 29.8149L68.9349 29.9629L68.9429 30.1949Z" fill="#BB2024"/>
<path d="M70.8089 30.8052L70.7835 30.8812L70.6955 30.9345L70.5302 30.9665L70.2675 30.9772L70.0049 30.9665L69.8409 30.9345L69.7515 30.8812L69.7262 30.8052V25.1545L69.7515 25.0772L69.8409 25.0198L70.0049 24.9825L70.2675 24.9692L70.5302 24.9825L70.6955 25.0198L70.7835 25.0772L70.8089 25.1545V30.8052Z" fill="#BB2024"/>
<path d="M75.4287 28.7774C75.4287 28.9081 75.4007 29.0054 75.3407 29.0694L75.098 29.1641H72.7647C72.7647 29.3268 72.7847 29.4761 72.8233 29.6094C72.862 29.7428 72.9233 29.8561 73.0073 29.9481C73.0927 30.0414 73.2007 30.1121 73.334 30.1601C73.4673 30.2094 73.626 30.2334 73.8127 30.2334C74.002 30.2334 74.1687 30.2201 74.3113 30.1934C74.454 30.1668 74.5793 30.1361 74.6833 30.1028L74.9433 30.0134L75.11 29.9721L75.1753 29.9868L75.218 30.0401L75.242 30.1508L75.2487 30.3281L75.2433 30.4894L75.2313 30.6028L75.2047 30.6841L75.1607 30.7454L75.0073 30.8268C74.9247 30.8614 74.818 30.8948 74.69 30.9281C74.5607 30.9614 74.4127 30.9894 74.2473 31.0148C74.0807 31.0388 73.9033 31.0508 73.714 31.0508C73.3727 31.0508 73.0753 31.0068 72.818 30.9214C72.562 30.8348 72.3473 30.7054 72.1753 30.5308C72.0033 30.3548 71.874 30.1348 71.7913 29.8681C71.706 29.6014 71.6633 29.2894 71.6633 28.9321C71.6633 28.5908 71.7087 28.2841 71.7967 28.0108C71.886 27.7361 72.0153 27.5041 72.1833 27.3134C72.3527 27.1241 72.558 26.9788 72.802 26.8774C73.0433 26.7774 73.3153 26.7268 73.6193 26.7268C73.9407 26.7268 74.2153 26.7748 74.4433 26.8694C74.6713 26.9641 74.8567 27.0948 75.0033 27.2628C75.15 27.4294 75.2567 27.6281 75.326 27.8574C75.394 28.0868 75.4287 28.3361 75.4287 28.6054V28.7774ZM74.3807 28.4681C74.3887 28.1641 74.3287 27.9254 74.198 27.7521C74.0673 27.5788 73.866 27.4921 73.594 27.4921C73.4567 27.4921 73.3367 27.5188 73.2353 27.5694L72.982 27.7788L72.8273 28.0881C72.79 28.2068 72.77 28.3334 72.7647 28.4681H74.3807Z" fill="#BB2024"/>
<path d="M55.8522 4.7551C55.8522 7.2471 52.4496 9.26843 48.2536 9.26843C44.0562 9.26843 40.6536 7.2471 40.6536 4.7551C40.6536 2.2631 44.0562 0.241766 48.2536 0.241766C52.4496 0.241766 55.8522 2.2631 55.8522 4.7551Z" fill="#BB2024"/>
<path d="M47.757 2.6206L47.7464 2.81794L47.7157 2.9446L47.6664 3.01527L47.605 3.03794H45.953V4.3966H47.5037L47.5664 4.4166L47.6157 4.48327L47.645 4.6086L47.6557 4.80327L47.645 4.99927L47.6157 5.12727L47.5664 5.19927L47.5037 5.2206H45.953V7.10327L45.9304 7.1766L45.8464 7.22994L45.689 7.26327L45.4384 7.27527L45.1904 7.26327L45.033 7.22994L44.9477 7.1766L44.9224 7.10327V2.52327L45.0104 2.27527L45.2277 2.19927H47.605L47.6664 2.2206L47.7157 2.29127L47.7464 2.42194L47.757 2.6206Z" fill="white"/>
<path d="M52.1019 7.11866L52.0859 7.19066L52.0112 7.23999L51.8392 7.26666C51.7659 7.27199 51.6619 7.27466 51.5312 7.27466L51.2699 7.26666L51.1165 7.23732L51.0365 7.18266L50.9979 7.10266L50.5432 5.97466C50.4885 5.84666 50.4365 5.73332 50.3845 5.63466L50.2099 5.38666L49.9885 5.23599L49.7005 5.18532H49.3805V7.11066L49.3539 7.18132L49.2712 7.23199L49.1152 7.26266L48.8645 7.27466L48.6165 7.26266L48.4592 7.23199L48.3779 7.18132L48.3525 7.11066V2.52266L48.4419 2.27466L48.6579 2.19866H49.9659C50.0992 2.19866 50.2085 2.20132 50.2939 2.20666L50.5272 2.22666C50.7312 2.25466 50.9139 2.30399 51.0765 2.37466C51.2392 2.44532 51.3765 2.53732 51.4899 2.64932C51.6032 2.76266 51.6912 2.89732 51.7512 3.05199C51.8099 3.20666 51.8392 3.38532 51.8392 3.58532C51.8392 3.75466 51.8179 3.90799 51.7752 4.04666C51.7325 4.18666 51.6699 4.31066 51.5859 4.41999C51.5032 4.53066 51.4005 4.62399 51.2779 4.70532C51.1552 4.78666 51.0165 4.85199 50.8605 4.90132L51.0739 5.03332L51.2592 5.22266L51.4259 5.47732L51.5792 5.79866L52.0045 6.79466L52.0819 7.01066L52.1019 7.11866ZM50.7779 3.69066C50.7779 3.52399 50.7405 3.38266 50.6645 3.26932C50.5885 3.15466 50.4659 3.07332 50.2939 3.02666L50.1165 2.99466L49.8419 2.98399H49.3805V4.41732H49.9032C50.0485 4.41732 50.1765 4.39866 50.2859 4.36399L50.5592 4.21599L50.7232 3.98666L50.7779 3.69066Z" fill="white"/>
<path d="M18.3475 15.9545C17.0235 17.9052 18.1488 20.4679 19.5168 21.7679C20.7621 22.9505 21.7621 23.2305 21.8928 23.2625L22.5275 22.0452L24.3648 27.0625L19.1768 28.1172L19.8661 26.8399L19.1635 26.4452C16.9795 25.0239 16.5168 23.0892 16.3661 22.4852C16.1061 21.4465 15.7181 18.3372 18.3475 15.9545Z" fill="#BB2024"/>
<path d="M18.3237 16.0381C19.2677 18.1981 22.0344 18.6141 23.8637 18.1515C25.4851 17.7395 26.2557 17.0701 26.3851 16.9488L26.3797 16.9368L25.6851 15.7355L30.9051 16.8755L29.0144 21.8208L28.3157 20.5755L27.6331 20.9448C25.2651 22.0341 23.3811 21.3928 22.7904 21.1981C21.7731 20.8635 18.9357 19.5328 18.3237 16.0381Z" fill="#BB2024"/>
<path d="M27.5514 10.8254C27.1901 13.4068 25.6341 14.6468 25.1514 15.0374C24.3181 15.7134 21.6674 17.3814 18.3954 16.0108C20.7234 16.3828 22.5674 14.2801 23.1661 12.4894C23.7007 10.8841 23.5434 9.86944 23.5141 9.71211L23.4967 9.70944L22.1101 9.64944L25.8807 5.86278L29.0314 10.1174L27.6114 10.0361L27.5514 10.8254Z" fill="#BB2024"/>
<path d="M11.72 8.64722C10.5293 8.64722 9.56396 7.68322 9.56396 6.49255C9.56396 5.30188 10.5293 4.33655 11.72 4.33655C12.9106 4.33655 13.876 5.30188 13.876 6.49255C13.876 7.68322 12.9106 8.64722 11.72 8.64722Z" fill="#BB2024"/>
<path d="M14.6676 0.235984C6.88363 0.235984 0.550293 6.56932 0.550293 14.3533C0.550293 22.1373 6.88363 28.4707 14.6676 28.4707C15.0836 28.4707 15.4943 28.444 15.901 28.4067L15.9956 29.8253L18.577 27.3267L15.6863 25.1227L15.7956 26.6107C15.4236 26.6453 15.049 26.6707 14.6676 26.6707C14.069 26.6707 13.4823 26.624 12.9063 26.5413L12.8476 26.1667L11.5076 14.7373C11.3236 12.58 12.5556 12.236 13.317 12.5587L17.597 14.2787C18.089 14.4907 18.3236 14.0787 18.3236 14.0787C18.3236 14.0787 18.601 13.6507 18.1063 13.3333C18.1063 13.3333 12.2703 9.46665 11.0276 9.23465C9.33029 8.91598 7.65163 10.2907 7.27696 12.0813L5.20763 22.2307C3.42496 20.0933 2.35029 17.3467 2.35029 14.3533C2.35029 7.56132 7.87563 2.03598 14.6676 2.03598C18.2956 2.03598 21.561 3.61332 23.817 6.11598L25.0823 4.83465C22.4996 2.01065 18.7863 0.235984 14.6676 0.235984ZM8.38229 19.1253C8.56629 18.62 8.84096 18.6533 8.84096 18.6533C8.84096 18.6533 9.08896 18.6 9.22629 19.1093L11.2423 26.1813C9.56096 25.6933 8.02763 24.8587 6.72496 23.7573L8.38229 19.1253Z" fill="#BB2024"/>
<path d="M120.332 33.7509L120.331 33.7429L120.319 33.6869L120.304 33.6309L120.303 33.6229L118.286 29.5162H118.571C118.731 29.5162 118.86 29.3855 118.86 29.2269C118.86 29.0669 118.731 28.9375 118.571 28.9375H117.822H107.543H106.794C106.634 28.9375 106.504 29.0669 106.504 29.2269C106.504 29.3855 106.634 29.5162 106.794 29.5162H107.079L105.062 33.6229L105.06 33.6309L105.046 33.6869L105.034 33.7429L105.032 33.7509C105.032 34.6229 105.671 35.3442 106.504 35.4842V42.7069C106.504 42.8655 106.634 42.9962 106.794 42.9962H118.571C118.731 42.9962 118.86 42.8655 118.86 42.7069V35.4842C119.694 35.3442 120.332 34.6229 120.332 33.7509ZM117.64 29.5162L119.579 33.4615H105.786L107.723 29.5162H117.64ZM116.77 34.0402C116.639 34.5522 116.178 34.9335 115.627 34.9335C115.075 34.9335 114.614 34.5522 114.484 34.0402H116.77ZM113.824 34.0402C113.695 34.5522 113.234 34.9335 112.682 34.9335C112.131 34.9335 111.67 34.5522 111.539 34.0402H113.824ZM110.88 34.0402C110.751 34.5522 110.29 34.9335 109.738 34.9335C109.187 34.9335 108.726 34.5522 108.595 34.0402H110.88ZM105.651 34.0402H107.936C107.807 34.5522 107.346 34.9335 106.794 34.9335C106.242 34.9335 105.78 34.5522 105.651 34.0402ZM107.083 35.4842C107.578 35.4015 108.002 35.1162 108.266 34.7135C108.58 35.1935 109.122 35.5122 109.738 35.5122C110.195 35.5122 110.607 35.3335 110.92 35.0469V42.4162H107.083V35.4842ZM111.499 42.4162V35.0469C111.812 35.3335 112.226 35.5122 112.682 35.5122C113.298 35.5122 113.839 35.1935 114.155 34.7135C114.47 35.1935 115.011 35.5122 115.627 35.5122C116.243 35.5122 116.783 35.1935 117.099 34.7135C117.363 35.1162 117.787 35.4015 118.282 35.4842V42.4162H111.499ZM118.571 34.9335C118.019 34.9335 117.558 34.5522 117.428 34.0402H119.714C119.583 34.5522 119.123 34.9335 118.571 34.9335Z" fill="white"/>
<path d="M110.028 36.237C109.868 36.237 109.739 36.3677 109.739 36.5263V39.1437C109.739 39.3037 109.868 39.4343 110.028 39.4343C110.188 39.4343 110.317 39.3037 110.317 39.1437V36.5263C110.317 36.3677 110.188 36.237 110.028 36.237Z" fill="white"/>
<path d="M116.525 35.9598L113.857 38.6278V39.0371L114.061 39.1224L114.265 39.0371L116.935 36.3691V35.9598H116.525Z" fill="white"/>
<path d="M116.525 37.9819L114.969 39.5379V39.9473L115.173 40.0326L115.377 39.9473L116.934 38.3913V37.9819H116.525Z" fill="white"/>
<path d="M99.8121 12.4263L99.8655 12.6303L99.8361 12.7423L99.6975 12.7903L99.4215 12.7983C99.2988 12.7983 99.2041 12.797 99.1361 12.793L98.9814 12.7717L98.9054 12.7277L98.8695 12.6517L98.5588 11.721H96.8174L96.5241 12.6263L96.4855 12.7117L96.4108 12.765L96.2641 12.7917L96.0161 12.7983L95.7575 12.7877L95.6294 12.7357L95.6028 12.6197L95.6575 12.4197L97.0854 8.30767L97.1361 8.20901L97.2281 8.15167L97.4015 8.12767C97.4761 8.12234 97.5734 8.12101 97.6948 8.12101C97.8348 8.12101 97.9481 8.12234 98.0308 8.12767L98.2268 8.15167L98.3268 8.21167L98.3801 8.31834L99.8121 12.4263ZM98.0175 7.62367L98.0655 7.71034L98.0428 7.76901L97.9388 7.80234L97.7455 7.81301L97.5588 7.80634L97.4295 7.78367L97.3375 7.74367L97.2655 7.68767L96.4695 6.97167L96.4001 6.88234L96.4188 6.80501L96.5428 6.75034L96.8001 6.72901L97.0201 6.73301L97.1708 6.75701L97.2788 6.80767L97.3721 6.89301L98.0175 7.62367ZM97.6841 9.02767H97.6801L97.0255 10.997H98.3401L97.6841 9.02767Z" fill="white"/>
<path d="M105.969 10.3923C105.969 10.8176 105.913 11.1803 105.802 11.4829C105.692 11.7843 105.532 12.0309 105.325 12.2216C105.117 12.4136 104.865 12.5536 104.566 12.6429C104.27 12.7336 103.916 12.7776 103.505 12.7776H102.4L102.2 12.7069L102.12 12.4803V8.44025L102.2 8.21359L102.4 8.14292H103.588C104.001 8.14292 104.35 8.19225 104.638 8.28825C104.926 8.38559 105.168 8.52825 105.366 8.71759C105.562 8.90825 105.713 9.14292 105.816 9.42159C105.917 9.70159 105.969 10.0243 105.969 10.3923ZM104.994 10.4243C104.994 10.2043 104.969 10.0003 104.917 9.81225C104.866 9.62425 104.784 9.46025 104.672 9.32159C104.558 9.18292 104.412 9.07492 104.234 8.99759C104.057 8.92025 103.824 8.88159 103.534 8.88159H103.058V12.0323H103.548C103.806 12.0323 104.024 11.9989 104.2 11.9323C104.376 11.8656 104.524 11.7643 104.642 11.6296C104.76 11.4949 104.849 11.3269 104.908 11.1269C104.966 10.9256 104.994 10.6923 104.994 10.4243Z" fill="white"/>
<path d="M109.49 12.4085L109.482 12.5832L109.454 12.6952L109.41 12.7578L109.352 12.7778H107.024L106.824 12.7072L106.744 12.4805V8.4405L106.824 8.21383L107.024 8.14317H109.337L109.394 8.1605L109.437 8.22317L109.464 8.33783L109.473 8.51517L109.464 8.68583L109.437 8.79783L109.394 8.8605L109.337 8.8805H107.682V10.0125H109.082L109.141 10.0325L109.186 10.0925L109.213 10.2045L109.222 10.3738L109.213 10.5458L109.186 10.6552L109.141 10.7152L109.082 10.7325H107.682V12.0392H109.352L109.41 12.0592L109.454 12.1218L109.482 12.2338L109.49 12.4085ZM108.388 6.89383L108.48 6.80716L108.586 6.7565L108.738 6.73383L108.961 6.7285L109.217 6.74983L109.341 6.8045L109.358 6.88183L109.29 6.9725L108.494 7.6885L108.421 7.74317L108.33 7.78317L108.201 7.80583L108.014 7.81383L107.82 7.80317L107.716 7.76983L107.693 7.70983L107.742 7.62317L108.388 6.89383Z" fill="white"/>
<path d="M113.496 9.55046C113.496 9.81046 113.455 10.0411 113.375 10.2411C113.292 10.4425 113.173 10.6118 113.019 10.7491C112.864 10.8851 112.673 10.9905 112.448 11.0611C112.223 11.1331 111.956 11.1691 111.651 11.1691H111.264V12.6478L111.241 12.7131L111.164 12.7598L111.02 12.7878L110.791 12.7985L110.564 12.7878L110.419 12.7598L110.344 12.7131L110.323 12.6478V8.4798L110.411 8.2278L110.641 8.14246H111.733L112.047 8.15579C112.145 8.16379 112.264 8.18113 112.403 8.20913C112.541 8.23713 112.683 8.2878 112.824 8.36113C112.967 8.4358 113.088 8.52913 113.188 8.64246C113.288 8.75579 113.364 8.88913 113.417 9.0398C113.469 9.1918 113.496 9.36246 113.496 9.55046ZM112.511 9.61846C112.511 9.45579 112.481 9.32246 112.424 9.21713L112.213 8.98513L111.951 8.88913L111.665 8.87046H111.264V10.4425H111.687C111.837 10.4425 111.963 10.4225 112.065 10.3811L112.315 10.2118L112.46 9.94913L112.511 9.61846Z" fill="white"/>
<path d="M118.395 10.4064C118.395 10.7904 118.347 11.1344 118.252 11.4384C118.156 11.7411 118.014 11.9984 117.824 12.2104C117.636 12.4211 117.402 12.5824 117.124 12.6931C116.847 12.8051 116.526 12.8597 116.16 12.8597C115.799 12.8597 115.484 12.8117 115.216 12.7184C114.947 12.6237 114.723 12.4797 114.544 12.2864C114.366 12.0931 114.231 11.8477 114.142 11.5491C114.051 11.2504 114.007 10.8971 114.007 10.4891C114.007 10.1144 114.055 9.77707 114.151 9.47707C114.247 9.17707 114.388 8.92241 114.578 8.71307C114.764 8.50241 114.999 8.34107 115.276 8.22907C115.554 8.11707 115.878 8.06107 116.246 8.06107C116.598 8.06107 116.907 8.10774 117.175 8.19974C117.444 8.29307 117.667 8.43707 117.848 8.63041C118.028 8.82374 118.164 9.06774 118.256 9.36241C118.348 9.65707 118.395 10.0051 118.395 10.4064ZM117.407 10.4571C117.407 10.2131 117.387 9.99174 117.35 9.79174C117.311 9.59307 117.244 9.42241 117.154 9.28107C117.062 9.13841 116.94 9.02774 116.787 8.95041C116.634 8.87307 116.443 8.83441 116.214 8.83441C115.982 8.83441 115.788 8.87841 115.634 8.96507C115.479 9.05174 115.352 9.16907 115.258 9.31441C115.162 9.45974 115.095 9.63041 115.055 9.82507C115.016 10.0184 114.996 10.2251 114.996 10.4424C114.996 10.6944 115.014 10.9224 115.052 11.1237C115.091 11.3264 115.156 11.4984 115.247 11.6424C115.336 11.7851 115.459 11.8944 115.612 11.9691C115.764 12.0451 115.956 12.0824 116.188 12.0824C116.419 12.0824 116.614 12.0397 116.77 11.9531C116.924 11.8677 117.048 11.7504 117.144 11.6024C117.24 11.4544 117.308 11.2811 117.347 11.0851C117.387 10.8877 117.407 10.6784 117.407 10.4571Z" fill="white"/>
<path d="M121.934 11.3879C121.934 11.6319 121.888 11.8452 121.798 12.0292C121.707 12.2132 121.584 12.3665 121.43 12.4892C121.274 12.6119 121.092 12.7039 120.884 12.7665C120.678 12.8292 120.455 12.8599 120.219 12.8599C120.058 12.8599 119.91 12.8465 119.772 12.8199C119.635 12.7945 119.514 12.7625 119.41 12.7252L119.146 12.6092L118.994 12.5012L118.927 12.3679L118.908 12.1145L118.915 11.9292L118.938 11.8065L118.982 11.7399L119.044 11.7212L119.184 11.7799L119.419 11.9105C119.515 11.9585 119.628 12.0025 119.762 12.0412C119.894 12.0812 120.047 12.0999 120.222 12.0999L120.53 12.0599L120.76 11.9425L120.907 11.7572L120.956 11.5092L120.871 11.2385L120.646 11.0385L120.334 10.8732C120.216 10.8225 120.095 10.7679 119.971 10.7105C119.847 10.6532 119.726 10.5879 119.61 10.5159L119.296 10.2545C119.204 10.1532 119.13 10.0332 119.072 9.89453C119.015 9.75586 118.987 9.59053 118.987 9.3972C118.987 9.17453 119.027 8.97986 119.11 8.81053C119.191 8.64253 119.303 8.50253 119.443 8.39186C119.583 8.2812 119.747 8.19853 119.936 8.14253C120.127 8.08786 120.327 8.0612 120.542 8.0612L120.871 8.0852L121.179 8.15453L121.432 8.25053L121.579 8.33986L121.627 8.4012L121.648 8.46653L121.662 8.57186L121.666 8.72653L121.66 8.90253L121.642 9.0212L121.606 9.0892L121.544 9.11053L121.418 9.05986L121.207 8.95053L120.916 8.84386C120.806 8.81053 120.686 8.79453 120.555 8.79453L120.286 8.83186L120.094 8.9372L119.979 9.09586L119.942 9.2932L120.027 9.55986L120.252 9.75986L120.572 9.9252C120.691 9.97586 120.814 10.0305 120.938 10.0879C121.063 10.1452 121.184 10.2105 121.303 10.2839L121.623 10.5439C121.716 10.6452 121.79 10.7652 121.847 10.9025C121.904 11.0399 121.934 11.2012 121.934 11.3879Z" fill="white"/>
<path d="M125.4 12.4085L125.392 12.5832L125.364 12.6952L125.32 12.7578L125.261 12.7778H122.933L122.733 12.7072L122.653 12.4805V8.4405L122.733 8.21383L122.933 8.14317H125.247L125.304 8.1605L125.347 8.22317L125.373 8.33783L125.383 8.51517L125.373 8.68583L125.347 8.79783L125.304 8.8605L125.247 8.8805H123.592V10.0125H124.992L125.051 10.0325L125.096 10.0925L125.123 10.2045L125.132 10.3738L125.123 10.5458L125.096 10.6552L125.051 10.7152L124.992 10.7325H123.592V12.0392H125.261L125.32 12.0592L125.364 12.1218L125.392 12.2338L125.4 12.4085Z" fill="white"/>
<path d="M129.671 12.6557L129.656 12.721L129.588 12.7663L129.429 12.7917L129.148 12.7983L128.907 12.7917L128.765 12.765L128.692 12.7143L128.656 12.641L128.241 11.6063L128.095 11.2943L127.935 11.0663L127.732 10.929L127.468 10.8823H127.173V12.649L127.151 12.713L127.073 12.7597L126.931 12.7877L126.701 12.7983L126.473 12.7877L126.328 12.7597L126.255 12.713L126.232 12.649V8.44101L126.313 8.21301L126.512 8.14367H127.711C127.832 8.14367 127.933 8.14501 128.012 8.15034L128.227 8.16767C128.413 8.19434 128.58 8.23967 128.729 8.30367C128.879 8.36901 129.005 8.45301 129.109 8.55701C129.213 8.65967 129.292 8.78367 129.348 8.92501C129.403 9.06767 129.429 9.23034 129.429 9.41434C129.429 9.57034 129.409 9.71167 129.371 9.83967C129.331 9.96634 129.273 10.081 129.197 10.181L128.915 10.4423C128.803 10.5157 128.675 10.5757 128.532 10.621L128.727 10.7437L128.899 10.917L129.051 11.1503L129.191 11.445L129.58 12.3583L129.652 12.557L129.671 12.6557ZM128.456 9.51167C128.456 9.35834 128.421 9.23034 128.352 9.12501C128.283 9.01967 128.169 8.94501 128.012 8.90234L127.848 8.87434L127.596 8.86234H127.173V10.177H127.653C127.787 10.177 127.904 10.161 128.004 10.129L128.255 9.99301L128.405 9.78367L128.456 9.51167Z" fill="white"/>
<path d="M95.7866 19.0097L95.7786 19.1844L95.7506 19.2964L95.7066 19.359L95.6479 19.379H93.3199L93.1199 19.3084L93.0399 19.0817V15.0417L93.1199 14.815L93.3199 14.7444H95.6333L95.6906 14.7617L95.7333 14.8244L95.7599 14.939L95.7693 15.1164L95.7599 15.287L95.7333 15.4004L95.6906 15.4617L95.6333 15.4817H93.9786V16.6137H95.3786L95.4373 16.6337L95.4826 16.6937L95.5093 16.8057L95.5186 16.975L95.5093 17.147L95.4826 17.2564L95.4373 17.3164L95.3786 17.3337H93.9786V18.6404H95.6479L95.7066 18.6604L95.7506 18.723L95.7786 18.835L95.7866 19.0097Z" fill="white"/>
<path d="M100.44 19.0491L100.412 19.1958L100.333 19.3038L100.218 19.3651L100.086 19.3851H99.685L99.4663 19.3611L99.2996 19.2691L99.1503 19.0904L98.9903 18.7984L97.837 16.6318C97.769 16.5024 97.701 16.3638 97.6316 16.2144C97.5636 16.0651 97.4996 15.9198 97.445 15.7798H97.4383C97.449 15.9504 97.4556 16.1224 97.4596 16.2931C97.4636 16.4638 97.4676 16.6398 97.4676 16.8211V19.2464L97.4476 19.3104L97.3796 19.3584L97.249 19.3891L97.037 19.3998L96.829 19.3891L96.701 19.3584L96.6356 19.3104L96.6183 19.2464V15.0811L96.717 14.8291L96.9583 14.7438H97.4636L97.693 14.7678L97.8596 14.8438L97.997 14.9931L98.1303 15.2278L99.033 16.9211L99.1876 17.2238L99.337 17.5224L99.477 17.8131L99.609 18.0998H99.613C99.6063 17.9331 99.5996 17.7584 99.5956 17.5771C99.593 17.3958 99.5916 17.2224 99.5916 17.0571V14.8838L99.613 14.8198L99.685 14.7691L99.817 14.7384L100.029 14.7304L100.232 14.7384L100.36 14.7691L100.422 14.8198L100.44 14.8838V19.0491Z" fill="white"/>
<path d="M108.51 19.2495L108.49 19.3135L108.418 19.3601L108.281 19.3895L108.062 19.4001L107.848 19.3895L107.71 19.3601L107.64 19.3135L107.618 19.2495V15.4788H107.61L106.268 19.2455L106.221 19.3228L106.133 19.3708L105.992 19.3935L105.784 19.4001L105.577 19.3908L105.434 19.3628L105.348 19.3135L105.304 19.2455L104.008 15.4788H104.001V19.2495L103.981 19.3135L103.908 19.3601L103.77 19.3895L103.554 19.4001L103.338 19.3895L103.2 19.3601L103.128 19.3135L103.109 19.2495V15.1201C103.109 14.9988 103.141 14.9055 103.205 14.8401L103.464 14.7441H104.08L104.364 14.7708L104.566 14.8601L104.71 15.0255L104.81 15.2775L105.813 18.0388H105.828L106.866 15.2855L106.968 15.0308L107.097 14.8628L107.272 14.7708L107.504 14.7441H108.138L108.304 14.7695L108.418 14.8428L108.486 14.9601L108.51 15.1201V19.2495Z" fill="white"/>
<path d="M113.317 19.0275L113.37 19.2315L113.341 19.3435L113.202 19.3915L112.926 19.3995C112.803 19.3995 112.71 19.3982 112.641 19.3942L112.486 19.3729L112.41 19.3289L112.374 19.2529L112.063 18.3222H110.323L110.029 19.2275L109.99 19.3129L109.915 19.3662L109.769 19.3929L109.521 19.3995L109.263 19.3889L109.134 19.3369L109.107 19.2209L109.162 19.0209L110.59 14.9089L110.641 14.8102L110.733 14.7529L110.906 14.7289C110.981 14.7235 111.078 14.7222 111.199 14.7222C111.339 14.7222 111.453 14.7235 111.537 14.7289L111.731 14.7529L111.831 14.8129L111.885 14.9195L113.317 19.0275ZM111.19 15.6289H111.185L110.53 17.5982H111.845L111.19 15.6289Z" fill="white"/>
<path d="M117.683 15.4641L117.672 15.6427L117.648 15.7627L117.608 15.8254L117.554 15.8441L117.404 15.7787L117.127 15.6401C117.012 15.5894 116.876 15.5427 116.718 15.5001C116.559 15.4574 116.374 15.4361 116.164 15.4361C115.939 15.4361 115.736 15.4734 115.555 15.5521C115.374 15.6294 115.219 15.7387 115.09 15.8814C114.962 16.0241 114.86 16.1934 114.792 16.3934C114.723 16.5934 114.69 16.8134 114.69 17.0547C114.69 17.3187 114.723 17.5521 114.794 17.7534C114.864 17.9561 114.963 18.1254 115.09 18.2614C115.216 18.3974 115.368 18.5001 115.546 18.5694C115.723 18.6387 115.92 18.6734 116.136 18.6734L116.447 18.6374L116.734 18.5294V17.4547H115.856L115.756 17.3747C115.732 17.3214 115.72 17.2294 115.72 17.1001L115.73 16.9321L115.756 16.8227L115.799 16.7627L115.856 16.7427H117.42L117.523 16.7627L117.602 16.8214L117.655 16.9161L117.671 17.0441V18.8881L117.635 19.0761L117.479 19.2027L117.191 19.3001C117.078 19.3334 116.958 19.3614 116.835 19.3854C116.712 19.4094 116.588 19.4267 116.463 19.4401C116.338 19.4521 116.212 19.4574 116.086 19.4574C115.715 19.4574 115.384 19.4041 115.091 19.2987C114.799 19.1921 114.551 19.0374 114.348 18.8361C114.144 18.6347 113.99 18.3881 113.883 18.0974C113.775 17.8081 113.722 17.4787 113.722 17.1121C113.722 16.7321 113.779 16.3907 113.894 16.0894C114.008 15.7867 114.171 15.5307 114.38 15.3187C114.59 15.1081 114.843 14.9467 115.142 14.8334C115.438 14.7214 115.771 14.6654 116.136 14.6654C116.336 14.6654 116.518 14.6787 116.683 14.7067C116.848 14.7347 116.991 14.7667 117.114 14.8067C117.238 14.8454 117.339 14.8894 117.42 14.9347L117.591 15.0521L117.662 15.1934L117.683 15.4641Z" fill="white"/>
<path d="M122.436 19.0275L122.489 19.2315L122.46 19.3435L122.321 19.3915L122.045 19.3995C121.923 19.3995 121.828 19.3982 121.76 19.3942L121.605 19.3729L121.529 19.3289L121.493 19.2529L121.183 18.3222H119.443L119.148 19.2275L119.109 19.3129L119.035 19.3662L118.888 19.3929L118.64 19.3995L118.381 19.3889L118.253 19.3369L118.227 19.2209L118.281 19.0209L119.709 14.9089L119.76 14.8102L119.852 14.7529L120.025 14.7289C120.1 14.7235 120.197 14.7222 120.319 14.7222C120.459 14.7222 120.572 14.7235 120.656 14.7289L120.851 14.7529L120.951 14.8129L121.004 14.9195L122.436 19.0275ZM120.308 15.6289H120.304L119.649 17.5982H120.964L120.308 15.6289Z" fill="white"/>
<path d="M125.831 17.9889C125.831 18.2329 125.786 18.4463 125.695 18.6303C125.605 18.8143 125.482 18.9676 125.327 19.0903C125.171 19.2129 124.99 19.3049 124.783 19.3676C124.575 19.4303 124.353 19.4609 124.117 19.4609C123.957 19.4609 123.807 19.4476 123.67 19.4209C123.533 19.3956 123.411 19.3636 123.307 19.3263L123.043 19.2103L122.891 19.1023L122.825 18.9689L122.806 18.7156L122.813 18.5303L122.835 18.4076L122.879 18.3409L122.942 18.3223L123.082 18.3809L123.317 18.5116C123.413 18.5596 123.526 18.6036 123.659 18.6423C123.791 18.6823 123.945 18.7009 124.119 18.7009L124.427 18.6609L124.658 18.5436L124.805 18.3583L124.854 18.1103L124.769 17.8396L124.543 17.6396L124.231 17.4743C124.114 17.4236 123.993 17.3689 123.869 17.3116C123.745 17.2543 123.623 17.1903 123.507 17.1169L123.194 16.8556C123.102 16.7543 123.027 16.6343 122.97 16.4956C122.913 16.3569 122.885 16.1916 122.885 15.9983C122.885 15.7756 122.925 15.5809 123.007 15.4116C123.09 15.2436 123.201 15.1036 123.341 14.9929C123.481 14.8823 123.645 14.7996 123.834 14.7436C124.025 14.6889 124.226 14.6623 124.439 14.6623L124.769 14.6863L125.077 14.7556L125.33 14.8516L125.478 14.9409L125.525 15.0023L125.546 15.0676L125.559 15.1729L125.563 15.3276L125.558 15.5036L125.539 15.6223L125.503 15.6903L125.442 15.7116L125.315 15.6609L125.105 15.5516L124.814 15.4449C124.703 15.4116 124.583 15.3956 124.453 15.3956L124.183 15.4329L123.991 15.5383L123.877 15.6969L123.841 15.8943L123.925 16.1609L124.15 16.3609L124.47 16.5263C124.589 16.5769 124.711 16.6316 124.835 16.6889C124.961 16.7463 125.082 16.8116 125.201 16.8849L125.521 17.1449C125.614 17.2463 125.689 17.3663 125.745 17.5036C125.802 17.6409 125.831 17.8023 125.831 17.9889Z" fill="white"/>
<path d="M127.497 19.2495L127.473 19.3135L127.397 19.3601L127.253 19.3895L127.025 19.4001L126.797 19.3895L126.652 19.3601L126.575 19.3135L126.552 19.2495V14.8735L126.575 14.8081L126.653 14.7615L126.799 14.7335L127.025 14.7228L127.253 14.7335L127.397 14.7615L127.473 14.8081L127.497 14.8735V19.2495Z" fill="white"/>
<path d="M132.328 19.0491L132.3 19.1958L132.221 19.3038L132.108 19.3651L131.975 19.3851H131.573L131.355 19.3611L131.188 19.2691L131.039 19.0904L130.879 18.7984L129.725 16.6318C129.657 16.5024 129.589 16.3638 129.52 16.2144C129.452 16.0651 129.388 15.9198 129.335 15.7798H129.327C129.337 15.9504 129.344 16.1224 129.348 16.2931C129.352 16.4638 129.356 16.6398 129.356 16.8211V19.2464L129.335 19.3104L129.268 19.3584L129.137 19.3891L128.925 19.3998L128.719 19.3891L128.589 19.3584L128.524 19.3104L128.508 19.2464V15.0811L128.605 14.8291L128.847 14.7438H129.352L129.581 14.7678L129.748 14.8438L129.885 14.9931L130.019 15.2278L130.921 16.9211L131.076 17.2238L131.225 17.5224L131.365 17.8131L131.497 18.0998H131.501C131.495 17.9331 131.488 17.7584 131.484 17.5771C131.481 17.3958 131.48 17.2224 131.48 17.0571V14.8838L131.501 14.8198L131.573 14.7691L131.705 14.7384L131.917 14.7304L132.12 14.7384L132.248 14.7691L132.311 14.8198L132.328 14.8838V19.0491Z" fill="white"/>
<path d="M99.2678 24.59C99.2678 24.834 99.2224 25.0473 99.1318 25.2313C99.0411 25.4153 98.9184 25.5687 98.7638 25.6913C98.6078 25.814 98.4251 25.906 98.2184 25.9687C98.0104 26.0313 97.7891 26.062 97.5518 26.062C97.3931 26.062 97.2438 26.0487 97.1064 26.022C96.9691 25.9967 96.8478 25.9647 96.7438 25.9287L96.4798 25.8113L96.3278 25.7033L96.2611 25.57L96.2424 25.3167L96.2478 25.1313L96.2718 25.0087L96.3158 24.942L96.3771 24.9233L96.5184 24.982L96.7531 25.1127C96.8491 25.1607 96.9624 25.2047 97.0958 25.2433C97.2278 25.2833 97.3811 25.302 97.5558 25.302L97.8638 25.262L98.0944 25.1447L98.2398 24.9593L98.2904 24.7113L98.2051 24.4407L97.9798 24.2407L97.6664 24.0753C97.5504 24.0247 97.4291 23.97 97.3051 23.9127C97.1811 23.8553 97.0598 23.7913 96.9438 23.718L96.6304 23.4567C96.5384 23.3553 96.4624 23.2353 96.4051 23.0967C96.3478 22.958 96.3198 22.7927 96.3198 22.5993C96.3198 22.3767 96.3611 22.182 96.4438 22.0127C96.5251 21.8447 96.6371 21.7047 96.7771 21.594C96.9171 21.4833 97.0811 21.4007 97.2704 21.3447C97.4611 21.29 97.6624 21.2633 97.8758 21.2633L98.2051 21.2873L98.5118 21.3567L98.7664 21.4527L98.9131 21.542L98.9611 21.6033L98.9824 21.6687L98.9958 21.774L98.9984 21.9287L98.9944 22.1047L98.9758 22.2233L98.9398 22.2913L98.8784 22.3127L98.7518 22.262L98.5398 22.1527L98.2504 22.046C98.1398 22.0127 98.0198 21.9967 97.8891 21.9967L97.6198 22.034L97.4278 22.1393L97.3131 22.298L97.2771 22.4953L97.3611 22.762L97.5864 22.962L97.9064 23.1273C98.0251 23.178 98.1478 23.2327 98.2718 23.29C98.3971 23.3473 98.5184 23.4127 98.6371 23.486L98.9558 23.746C99.0504 23.8473 99.1238 23.9673 99.1811 24.1047C99.2384 24.242 99.2678 24.4033 99.2678 24.59Z" fill="white"/>
<path d="M103.161 22.7529C103.161 23.0129 103.12 23.2435 103.039 23.4435C102.957 23.6449 102.839 23.8142 102.684 23.9515C102.529 24.0875 102.339 24.1929 102.112 24.2635C101.888 24.3355 101.621 24.3715 101.316 24.3715H100.929V25.8502L100.907 25.9155L100.829 25.9622L100.685 25.9902L100.456 26.0009L100.229 25.9902L100.084 25.9622L100.009 25.9155L99.9867 25.8502V21.6822L100.076 21.4302L100.307 21.3449H101.399L101.712 21.3582C101.811 21.3662 101.929 21.3835 102.068 21.4115C102.207 21.4395 102.348 21.4902 102.489 21.5635C102.631 21.6382 102.752 21.7315 102.852 21.8449C102.952 21.9582 103.029 22.0915 103.081 22.2422C103.135 22.3942 103.161 22.5649 103.161 22.7529ZM102.176 22.8209C102.176 22.6582 102.147 22.5249 102.089 22.4195L101.877 22.1875L101.616 22.0915L101.331 22.0729H100.929V23.6449H101.352C101.503 23.6449 101.628 23.6249 101.731 23.5835L101.977 23.4142L102.125 23.1515L102.176 22.8209Z" fill="white"/>
<path d="M106.638 25.6108L106.63 25.7854L106.602 25.8974L106.558 25.9601L106.498 25.9801H104.171L103.973 25.9094L103.89 25.6828V21.6428L103.973 21.4161L104.171 21.3454H106.483L106.541 21.3628L106.583 21.4254L106.611 21.5401L106.621 21.7174L106.611 21.8881L106.583 22.0014L106.541 22.0628L106.483 22.0828H104.83V23.2148H106.23L106.289 23.2348L106.334 23.2948L106.361 23.4068L106.369 23.5761L106.361 23.7481L106.334 23.8588L106.289 23.9174L106.23 23.9348H104.83V25.2414H106.498L106.558 25.2614L106.602 25.3241L106.63 25.4361L106.638 25.6108ZM105.535 20.0948L105.626 20.0094L105.734 19.9588L105.886 19.9361L106.109 19.9308L106.365 19.9521L106.489 20.0068L106.506 20.0841L106.438 20.1748L105.642 20.8908L105.57 20.9454L105.478 20.9854L105.349 21.0081L105.162 21.0161L104.967 21.0054L104.863 20.9721L104.841 20.9121L104.89 20.8268L105.535 20.0948Z" fill="white"/>
<path d="M110.675 25.2776L110.67 25.4296L110.654 25.5376L110.624 25.6149L110.567 25.6869L110.416 25.7936L110.139 25.9163C110.031 25.9563 109.907 25.9896 109.767 26.0149C109.628 26.0416 109.476 26.0549 109.314 26.0549C108.996 26.0549 108.71 26.0056 108.455 25.9083C108.199 25.8096 107.982 25.6643 107.803 25.4696C107.624 25.2749 107.486 25.0323 107.392 24.7403C107.295 24.4496 107.248 24.1096 107.248 23.7229C107.248 23.3296 107.3 22.9803 107.406 22.6736C107.511 22.3683 107.656 22.1123 107.846 21.9043C108.035 21.6963 108.262 21.5389 108.524 21.4309C108.788 21.3243 109.079 21.2696 109.398 21.2696C109.526 21.2696 109.65 21.2803 109.77 21.3029L110.1 21.3869L110.374 21.5069L110.544 21.6229L110.611 21.7029L110.639 21.7856L110.655 21.9043L110.66 22.0723L110.654 22.2549L110.63 22.3763L110.586 22.4443L110.528 22.4669L110.391 22.4043L110.179 22.2643C110.092 22.2123 109.987 22.1669 109.867 22.1243C109.747 22.0829 109.603 22.0616 109.436 22.0616C109.252 22.0616 109.088 22.0989 108.943 22.1749C108.799 22.2496 108.676 22.3563 108.575 22.4976C108.474 22.6363 108.396 22.8056 108.343 23.0043C108.291 23.2016 108.266 23.4243 108.266 23.6736C108.266 23.9456 108.292 24.1816 108.348 24.3803C108.404 24.5803 108.484 24.7443 108.59 24.8736C108.692 25.0016 108.819 25.0976 108.964 25.1616C109.112 25.2243 109.276 25.2563 109.46 25.2563C109.628 25.2563 109.772 25.2363 109.894 25.1976C110.016 25.1576 110.12 25.1149 110.208 25.0669L110.423 24.9376L110.554 24.8803L110.611 24.8949L110.647 24.9523L110.668 25.0709L110.675 25.2776Z" fill="white"/>
<path d="M112.297 25.8508L112.274 25.9148L112.197 25.9615L112.053 25.9908L111.823 26.0015L111.598 25.9908L111.451 25.9615L111.375 25.9148L111.351 25.8508V21.4748L111.375 21.4095L111.454 21.3628L111.599 21.3348L111.823 21.3241L112.053 21.3348L112.197 21.3628L112.274 21.4095L112.297 21.4748V25.8508Z" fill="white"/>
<path d="M117.103 25.6286L117.157 25.8326L117.128 25.9446L116.988 25.9926L116.713 26.0006C116.591 26.0006 116.497 25.9993 116.428 25.9953L116.272 25.9739L116.197 25.9299L116.161 25.8539L115.851 24.9233H114.109L113.816 25.8286L113.777 25.9139L113.703 25.9673L113.556 25.9939L113.307 26.0006L113.048 25.9899L112.92 25.9379L112.895 25.8219L112.948 25.6219L114.377 21.5099L114.428 21.4113L114.52 21.3539L114.693 21.3299C114.768 21.3246 114.865 21.3233 114.987 21.3233C115.127 21.3233 115.24 21.3246 115.324 21.3299L115.519 21.3539L115.619 21.4139L115.671 21.5206L117.103 25.6286ZM114.977 22.2299H114.972L114.317 24.1993H115.632L114.977 22.2299Z" fill="white"/>
<path d="M120.299 25.5857L120.291 25.7657L120.263 25.8883L120.219 25.9577L120.156 25.979H118.032L117.834 25.9097L117.752 25.6817V21.4737L117.776 21.4097L117.852 21.363L117.998 21.335L118.224 21.3243L118.454 21.335L118.598 21.363L118.675 21.4097L118.698 21.4737V25.203H120.156L120.219 25.2217L120.263 25.2857L120.291 25.4057L120.299 25.5857Z" fill="white"/>
<path d="M121.799 25.8508L121.776 25.9148L121.699 25.9615L121.555 25.9908L121.326 26.0015L121.1 25.9908L120.954 25.9615L120.878 25.9148L120.854 25.8508V21.4748L120.878 21.4095L120.956 21.3628L121.102 21.3348L121.326 21.3241L121.555 21.3348L121.699 21.3628L121.776 21.4095L121.799 21.4748V25.8508Z" fill="white"/>
<path d="M125.556 24.59C125.556 24.834 125.511 25.0473 125.42 25.2313C125.33 25.4153 125.207 25.5687 125.052 25.6913C124.896 25.814 124.714 25.906 124.508 25.9687C124.299 26.0313 124.078 26.062 123.84 26.062C123.682 26.062 123.532 26.0487 123.395 26.022C123.258 25.9967 123.136 25.9647 123.032 25.9287L122.768 25.8113L122.616 25.7033L122.55 25.57L122.531 25.3167L122.536 25.1313L122.56 25.0087L122.604 24.942L122.666 24.9233L122.807 24.982L123.042 25.1127C123.138 25.1607 123.251 25.2047 123.384 25.2433C123.516 25.2833 123.67 25.302 123.844 25.302L124.152 25.262L124.383 25.1447L124.528 24.9593L124.579 24.7113L124.494 24.4407L124.268 24.2407L123.955 24.0753C123.839 24.0247 123.718 23.97 123.594 23.9127C123.47 23.8553 123.348 23.7913 123.232 23.718L122.919 23.4567C122.827 23.3553 122.751 23.2353 122.694 23.0967C122.636 22.958 122.608 22.7927 122.608 22.5993C122.608 22.3767 122.65 22.182 122.732 22.0127C122.815 21.8447 122.926 21.7047 123.066 21.594C123.206 21.4833 123.37 21.4007 123.559 21.3447C123.75 21.29 123.951 21.2633 124.164 21.2633L124.494 21.2873L124.8 21.3567L125.055 21.4527L125.202 21.542L125.25 21.6033L125.271 21.6687L125.284 21.774L125.287 21.9287L125.283 22.1047L125.264 22.2233L125.228 22.2913L125.167 22.3127L125.04 22.262L124.828 22.1527L124.539 22.046C124.428 22.0127 124.308 21.9967 124.178 21.9967L123.908 22.034L123.716 22.1393L123.602 22.298L123.566 22.4953L123.65 22.762L123.875 22.962L124.195 23.1273C124.314 23.178 124.436 23.2327 124.56 23.29C124.686 23.3473 124.807 23.4127 124.926 23.486L125.244 23.746C125.339 23.8473 125.414 23.9673 125.471 24.1047C125.527 24.242 125.556 24.4033 125.556 24.59Z" fill="white"/>
<path d="M129.023 25.6108L129.015 25.7854L128.987 25.8974L128.943 25.9601L128.883 25.9801H126.556L126.356 25.9094L126.275 25.6828V21.6428L126.356 21.4161L126.556 21.3454H128.868L128.926 21.3628L128.968 21.4254L128.996 21.5401L129.006 21.7174L128.996 21.8881L128.968 22.0014L128.926 22.0628L128.868 22.0828H127.215V23.2148H128.615L128.674 23.2348L128.719 23.2948L128.746 23.4068L128.754 23.5761L128.746 23.7481L128.719 23.8588L128.674 23.9174L128.615 23.9348H127.215V25.2414H128.883L128.943 25.2614L128.987 25.3241L129.015 25.4361L129.023 25.6108ZM127.92 20.0948L128.011 20.0094L128.119 19.9588L128.271 19.9361L128.492 19.9308L128.75 19.9521L128.874 20.0068L128.891 20.0841L128.822 20.1748L128.027 20.8908L127.954 20.9454L127.863 20.9854L127.734 21.0081L127.547 21.0161L127.352 21.0054L127.248 20.9721L127.226 20.9121L127.275 20.8268L127.92 20.0948Z" fill="white"/>
</g>
<defs>
<clipPath id="clip0_109_716">
<rect width="138" height="46" fill="white"/>
</clipPath>
</defs>
</svg>
