<svg width="217" height="54" viewBox="0 0 217 54" fill="none" xmlns="http://www.w3.org/2000/svg">
<g clip-path="url(#clip0_25_7707)">
<path d="M46.1615 35.2137V6.41163H101.365L113.146 28.9064L101.365 51.396H62.3438C53.4219 51.396 46.1615 44.1408 46.1615 35.2137ZM198.078 4.25L44 4.25017V35.2137C44 45.3283 52.2292 53.5575 62.3438 53.5575L216.422 53.5573V22.599C216.422 12.4792 208.193 4.25 198.078 4.25Z" fill="#32AB52"/>
<path d="M147.641 33.3853C146.589 33.3853 145.703 32.6562 145.458 31.677H149.823C149.578 32.6562 148.698 33.3853 147.641 33.3853ZM134.125 47.6822V33.5989C134.724 34.1458 135.516 34.4895 136.385 34.4895C137.568 34.4895 138.599 33.8801 139.203 32.9635C139.802 33.8801 140.833 34.4895 142.016 34.4895C143.193 34.4895 144.224 33.8801 144.828 32.9635C145.333 33.7343 146.146 34.276 147.089 34.4322V47.6822H134.125ZM125.687 34.4322C126.63 34.276 127.443 33.7343 127.948 32.9635C128.547 33.8801 129.583 34.4895 130.76 34.4895C131.635 34.4895 132.422 34.1458 133.021 33.5989V47.6822H125.687V34.4322ZM122.948 31.677H127.318C127.068 32.6562 126.187 33.3853 125.135 33.3853C124.078 33.3853 123.198 32.6562 122.948 31.677ZM132.943 31.677C132.698 32.6562 131.812 33.3853 130.76 33.3853C129.703 33.3853 128.828 32.6562 128.578 31.677H132.943ZM138.573 31.677C138.323 32.6562 137.443 33.3853 136.385 33.3853C135.333 33.3853 134.453 32.6562 134.203 31.677H138.573ZM144.198 31.677C143.948 32.6562 143.068 33.3853 142.016 33.3853C140.958 33.3853 140.078 32.6562 139.828 31.677H144.198ZM145.865 23.0312L149.568 30.5728H123.208L126.911 23.0312H145.865ZM151.01 31.1249C151.01 31.1197 151 31.1145 151 31.1093C151 31.0728 150.99 31.0364 150.979 30.9999C150.974 30.9635 150.969 30.927 150.953 30.8958C150.953 30.8905 150.953 30.8853 150.948 30.8801L147.094 23.0312H147.641C147.948 23.0312 148.193 22.7812 148.193 22.4791C148.193 22.1718 147.948 21.927 147.641 21.927H125.135C124.828 21.927 124.583 22.1718 124.583 22.4791C124.583 22.7812 124.828 23.0312 125.135 23.0312H125.682L121.823 30.8801C121.823 30.8853 121.823 30.8905 121.823 30.8958C121.807 30.927 121.802 30.9635 121.792 30.9999C121.786 31.0364 121.771 31.0728 121.771 31.1093C121.771 31.1145 121.771 31.1197 121.771 31.1249C121.771 32.7916 122.99 34.1666 124.583 34.4322V48.2395C124.583 48.5416 124.828 48.7916 125.135 48.7916H147.641C147.948 48.7916 148.193 48.5416 148.193 48.2395V34.4322C149.786 34.1666 151.01 32.7916 151.01 31.1249Z" fill="white"/>
<path d="M131.63 35.875C131.328 35.875 131.078 36.125 131.078 36.4271V41.4323C131.078 41.7344 131.328 41.9844 131.63 41.9844C131.938 41.9844 132.188 41.7344 132.188 41.4323V36.4271C132.188 36.125 131.938 35.875 131.63 35.875Z" fill="white"/>
<path d="M143.734 35.3437L138.635 40.4427C138.417 40.6615 138.417 41.0104 138.635 41.224C138.74 41.3333 138.88 41.3854 139.026 41.3854C139.167 41.3854 139.307 41.3333 139.417 41.224L144.516 36.125C144.729 35.9115 144.729 35.5625 144.516 35.3437C144.297 35.1302 143.948 35.1302 143.734 35.3437Z" fill="white"/>
<path d="M143.734 39.2083L140.755 42.1822C140.542 42.401 140.542 42.7499 140.755 42.9635C140.865 43.0728 141.005 43.1249 141.146 43.1249C141.292 43.1249 141.432 43.0728 141.536 42.9635L144.516 39.9895C144.729 39.776 144.729 39.427 144.516 39.2083C144.297 38.9947 143.948 38.9947 143.734 39.2083Z" fill="white"/>
<path d="M188.854 34.7657C188.854 35.1511 188.542 35.4636 188.156 35.4636H187.62L187.26 35.1042L188.078 34.3907L188.854 34.0625V34.7657ZM190.26 43.5886L190.63 43.2188C190.844 43.0052 190.844 42.6563 190.63 42.4375L185.24 37.0469V36.8802L186.427 35.8386L191.828 41.2396C191.938 41.349 192.078 41.4011 192.219 41.4011C192.359 41.4011 192.5 41.349 192.609 41.2396L192.979 40.8698V43.5886H190.26ZM183.281 47.4532L181.365 45.5365H181.88C182.188 45.5365 182.438 45.2865 182.438 44.9844V37.5L182.776 37.1615C182.885 37.2969 182.995 37.4375 183.146 37.5469L183.516 37.8177C183.609 37.8907 183.724 37.9271 183.844 37.9271C183.943 37.9271 184.042 37.875 184.13 37.8177V44.9844C184.13 45.2865 184.38 45.5365 184.682 45.5365H185.203L183.281 47.4532ZM175.938 43.2188L176.307 43.5886H173.589V40.8698L173.958 41.2396C174.062 41.349 174.203 41.4011 174.349 41.4011C174.49 41.4011 174.63 41.349 174.74 41.2396L183.281 32.6927L183.724 33.1355L183.359 33.5469C183.328 33.5834 183.297 33.625 183.276 33.6719L182.557 35.1146C182.417 35.4011 182.375 35.698 182.38 35.9948L181.516 36.8594C181.5 36.875 181.49 36.8854 181.479 36.8959L175.938 42.4375C175.719 42.6563 175.719 43.0052 175.938 43.2188ZM183.844 30.1875L184.88 30.1615L185.734 30.8907L184.464 32.3125L183.677 31.5209C183.542 31.3907 183.37 31.349 183.198 31.375L183.844 30.1875ZM197.615 26.5209C197.453 26.2604 197.109 26.1771 196.854 26.3386L194.719 27.6563C194.63 27.7084 194.557 27.7865 194.516 27.875L193.693 29.474C193.125 30.5834 192.182 31.4584 191.036 31.9427L187.562 33.4063C187.51 33.4323 187.458 33.4584 187.411 33.5L183.812 36.6667L183.802 36.6563C183.474 36.4115 183.365 35.974 183.547 35.6094L184.234 34.2292L186.932 31.2084C187.031 31.099 187.083 30.9532 187.073 30.8021C187.062 30.6563 186.995 30.5157 186.88 30.4219L185.443 29.1823C185.339 29.0938 185.198 29.0521 185.068 29.0469L183.495 29.0938C183.297 29.099 183.115 29.2084 183.021 29.3802L181.562 32.0782C181.469 32.2552 181.474 32.4636 181.578 32.6302L181.656 32.7605L180.849 33.5625L180.214 32.6355C180.057 32.4011 180.026 32.1146 180.115 31.849L181.552 27.6875C181.641 27.4375 181.833 27.2344 182.089 27.1407L192.828 22.9948C193.109 22.8855 193.255 22.5625 193.141 22.2813C193.031 21.9948 192.714 21.8542 192.427 21.9636L181.693 26.1094C181.135 26.3229 180.703 26.7657 180.51 27.3282L179.073 31.4896C178.87 32.0782 178.948 32.7188 179.297 33.25L180.052 34.3594L174.349 40.0677L173.427 39.1459C173.422 39.1407 173.411 39.1355 173.406 39.1302C173.359 39.0886 173.307 39.0521 173.25 39.0261C173.115 38.974 172.958 38.974 172.823 39.0261C172.76 39.0521 172.708 39.0938 172.661 39.1355C172.656 39.1407 172.651 39.1407 172.646 39.1459C172.594 39.198 172.552 39.2605 172.526 39.3282C172.495 39.3907 172.484 39.4636 172.484 39.5365V44.1407C172.484 44.4427 172.729 44.6927 173.036 44.6927H177.641C177.714 44.6927 177.781 44.6771 177.849 44.6511C177.911 44.625 177.969 44.5834 178.016 44.5417C178.021 44.5365 178.026 44.5365 178.031 44.5313C178.083 44.4792 178.12 44.4167 178.151 44.349C178.203 44.2136 178.203 44.0625 178.151 43.9271C178.12 43.8594 178.083 43.8021 178.031 43.75L177.109 42.8282L181.328 38.6094V44.4323H180.031C179.958 44.4323 179.885 44.4427 179.818 44.474C179.755 44.4948 179.708 44.5365 179.661 44.5782C179.651 44.5834 179.646 44.5834 179.635 44.5938C179.589 44.6459 179.547 44.7032 179.521 44.7709C179.464 44.9063 179.464 45.0573 179.521 45.1927C179.547 45.2605 179.589 45.323 179.635 45.375L182.891 48.625C183 48.7344 183.141 48.7865 183.281 48.7865C183.427 48.7865 183.568 48.7344 183.677 48.625L186.927 45.375C186.979 45.323 187.021 45.2605 187.047 45.1927C187.104 45.0573 187.104 44.9063 187.047 44.7709C187.021 44.7032 186.979 44.6459 186.927 44.5938C186.922 44.5834 186.911 44.5834 186.906 44.5782C186.859 44.5365 186.807 44.4948 186.75 44.474C186.682 44.4427 186.609 44.4323 186.536 44.4323H185.24V38.6094L189.458 42.8282L188.536 43.75C188.484 43.8021 188.443 43.8594 188.417 43.9271C188.359 44.0625 188.359 44.2136 188.417 44.349C188.443 44.4167 188.484 44.4792 188.536 44.5313C188.542 44.5365 188.547 44.5365 188.552 44.5417C188.599 44.5834 188.656 44.625 188.714 44.6511C188.781 44.6771 188.854 44.6927 188.927 44.6927H193.531C193.833 44.6927 194.083 44.4427 194.083 44.1407V39.5365C194.083 39.4636 194.068 39.3907 194.042 39.3282C194.016 39.2605 193.974 39.198 193.922 39.1459C193.917 39.1407 193.906 39.1355 193.901 39.1302C193.854 39.0886 193.802 39.0521 193.745 39.0261C193.609 38.974 193.458 38.974 193.318 39.0261C193.26 39.0521 193.203 39.0938 193.156 39.1355C193.151 39.1407 193.146 39.1407 193.141 39.1459L192.219 40.0677L188.646 36.4948C189.401 36.2761 189.964 35.5886 189.964 34.7657V33.5938L191.464 32.9584C192.849 32.3802 193.99 31.3177 194.677 29.9792L195.427 28.5157L197.432 27.2813C197.693 27.1198 197.776 26.7813 197.615 26.5209Z" fill="white"/>
<path d="M124.7 12.2362C124.727 12.3091 124.742 12.3716 124.742 12.4237C124.742 12.4654 124.727 12.5018 124.7 12.5279C124.685 12.5435 124.643 12.5487 124.575 12.5487C124.518 12.5591 124.44 12.5695 124.346 12.5695C124.232 12.5695 124.143 12.5591 124.075 12.5487C124.018 12.5487 123.966 12.5487 123.93 12.5487C123.898 12.5383 123.878 12.5227 123.867 12.507C123.852 12.4966 123.846 12.4758 123.846 12.4445L123.555 11.5904H121.971L121.7 12.4029C121.7 12.4445 121.69 12.481 121.68 12.507C121.664 12.5227 121.633 12.5383 121.596 12.5487C121.565 12.5487 121.523 12.5487 121.471 12.5487C121.414 12.5591 121.336 12.5695 121.242 12.5695C121.143 12.5695 121.065 12.5591 121.013 12.5487C120.956 12.5487 120.914 12.5383 120.888 12.507C120.872 12.481 120.867 12.4445 120.867 12.4029C120.878 12.3664 120.893 12.2987 120.909 12.2154L122.221 8.48621C122.232 8.44975 122.247 8.4185 122.263 8.40287C122.273 8.37683 122.305 8.356 122.346 8.34037C122.383 8.32996 122.435 8.31954 122.492 8.31954C122.56 8.31954 122.648 8.31954 122.763 8.31954C122.898 8.31954 123.003 8.31954 123.075 8.31954C123.143 8.31954 123.2 8.32996 123.242 8.34037C123.294 8.356 123.331 8.37683 123.346 8.40287C123.357 8.4185 123.372 8.44975 123.388 8.48621L124.7 12.2362ZM122.763 9.13204L122.159 10.9237H123.346L122.763 9.13204ZM122.596 7.86121C122.607 7.89246 122.617 7.9185 122.617 7.94454C122.628 7.96016 122.622 7.97579 122.596 7.98621C122.581 8.00183 122.549 8.01746 122.513 8.02787C122.471 8.02787 122.414 8.02787 122.346 8.02787C122.273 8.02787 122.211 8.02787 122.159 8.02787C122.117 8.02787 122.081 8.02266 122.055 8.00704C122.023 7.99662 121.997 7.981 121.971 7.96537C121.94 7.95496 121.919 7.93933 121.909 7.92371L121.18 7.27787C121.148 7.25183 121.128 7.22579 121.117 7.19454C121.102 7.1685 121.102 7.14766 121.117 7.13204C121.143 7.106 121.185 7.08516 121.242 7.06954C121.294 7.05912 121.378 7.04871 121.492 7.04871C121.56 7.04871 121.622 7.05912 121.68 7.06954C121.732 7.06954 121.784 7.07996 121.825 7.09037C121.862 7.09037 121.898 7.106 121.93 7.13204C121.956 7.14766 121.982 7.1685 122.013 7.19454L122.596 7.86121Z" fill="white"/>
<path d="M130.287 10.382C130.287 10.7726 130.23 11.106 130.121 11.382C130.022 11.6476 129.876 11.8716 129.683 12.0487C129.501 12.2153 129.272 12.3455 128.996 12.4237C128.73 12.507 128.418 12.5487 128.058 12.5487H127.037C126.965 12.5487 126.902 12.5278 126.85 12.4862C126.808 12.4497 126.787 12.3768 126.787 12.2778V8.61117C126.787 8.51741 126.808 8.4445 126.85 8.40283C126.902 8.36637 126.965 8.34033 127.037 8.34033H128.121C128.491 8.34033 128.814 8.38721 129.079 8.46533C129.34 8.54867 129.564 8.68408 129.746 8.86117C129.923 9.02783 130.058 9.24658 130.142 9.507C130.235 9.757 130.287 10.0539 130.287 10.382ZM129.412 10.4028C129.412 10.2101 129.381 10.0278 129.329 9.86117C129.287 9.68408 129.209 9.52783 129.1 9.40283C129.001 9.28304 128.866 9.18408 128.704 9.11117C128.548 9.04346 128.34 9.007 128.079 9.007H127.642V11.8612H128.079C128.314 11.8612 128.506 11.8351 128.662 11.7778C128.824 11.7257 128.965 11.632 129.079 11.507C129.189 11.3872 129.272 11.231 129.329 11.0487C129.381 10.8716 129.412 10.6528 129.412 10.4028Z" fill="white"/>
<path d="M133.486 12.2154C133.486 12.2727 133.476 12.33 133.466 12.382C133.466 12.4237 133.455 12.4602 133.445 12.4862C133.445 12.5018 133.429 12.5175 133.403 12.5279C133.387 12.5435 133.372 12.5487 133.361 12.5487H131.236C131.164 12.5487 131.101 12.5279 131.049 12.4862C131.007 12.4497 130.986 12.3768 130.986 12.2779V8.61121C130.986 8.51746 131.007 8.44454 131.049 8.40287C131.101 8.36641 131.164 8.34037 131.236 8.34037H133.341C133.367 8.34037 133.387 8.35079 133.403 8.36121C133.414 8.36121 133.424 8.37683 133.424 8.40287C133.434 8.43412 133.445 8.47058 133.445 8.50704C133.455 8.54871 133.466 8.606 133.466 8.67371C133.466 8.731 133.455 8.78829 133.445 8.84037C133.445 8.88204 133.434 8.9185 133.424 8.94454C133.424 8.96016 133.414 8.97579 133.403 8.98621C133.387 9.00183 133.367 9.00704 133.341 9.00704H131.841V10.0279H133.111C133.122 10.0279 133.137 10.0383 133.153 10.0487C133.179 10.0643 133.195 10.0852 133.195 10.1112C133.205 10.1425 133.216 10.1789 133.216 10.2154C133.226 10.257 133.236 10.3091 133.236 10.3612C133.236 10.4341 133.226 10.4914 133.216 10.5279C133.216 10.5695 133.205 10.606 133.195 10.632C133.195 10.6477 133.179 10.6633 133.153 10.6737C133.137 10.6893 133.122 10.6945 133.111 10.6945H131.841V11.882H133.361C133.372 11.882 133.387 11.8925 133.403 11.9029C133.429 11.9185 133.445 11.9393 133.445 11.9654C133.455 11.981 133.466 12.0122 133.466 12.0487C133.476 12.0904 133.486 12.1477 133.486 12.2154ZM132.82 7.19454C132.846 7.1685 132.872 7.14766 132.903 7.13204C132.929 7.106 132.966 7.09037 133.007 7.09037C133.044 7.07996 133.096 7.06954 133.153 7.06954C133.205 7.05912 133.268 7.04871 133.341 7.04871C133.45 7.04871 133.533 7.05912 133.591 7.06954C133.643 7.08516 133.679 7.106 133.695 7.13204C133.721 7.14766 133.726 7.1685 133.716 7.19454C133.7 7.22579 133.679 7.25183 133.653 7.27787L132.924 7.92371C132.908 7.93933 132.887 7.95496 132.861 7.96537C132.83 7.981 132.804 7.99662 132.778 8.00704C132.747 8.02266 132.705 8.02787 132.653 8.02787C132.611 8.02787 132.554 8.02787 132.486 8.02787C132.414 8.02787 132.351 8.02787 132.299 8.02787C132.257 8.01746 132.226 8.00183 132.216 7.98621C132.2 7.97579 132.195 7.96016 132.195 7.94454C132.195 7.9185 132.205 7.89246 132.236 7.86121L132.82 7.19454Z" fill="white"/>
<path d="M137.114 9.61117C137.114 9.85075 137.078 10.0591 137.01 10.2362C136.937 10.4185 136.833 10.5747 136.697 10.6945C136.557 10.8195 136.38 10.9185 136.177 10.9862C135.968 11.0591 135.723 11.0903 135.447 11.0903H135.093V12.4237C135.093 12.4549 135.083 12.4757 135.072 12.4862C135.057 12.5018 135.025 12.5174 134.989 12.5278C134.958 12.5435 134.916 12.5487 134.864 12.5487C134.822 12.5591 134.755 12.5695 134.677 12.5695C134.593 12.5695 134.52 12.5591 134.468 12.5487C134.411 12.5487 134.359 12.5435 134.322 12.5278C134.291 12.5174 134.27 12.5018 134.26 12.4862C134.244 12.4757 134.239 12.4549 134.239 12.4237V8.632C134.239 8.53825 134.265 8.46533 134.322 8.42367C134.374 8.37158 134.447 8.34033 134.531 8.34033H135.531C135.624 8.34033 135.718 8.35075 135.802 8.36117C135.895 8.36117 136.01 8.37679 136.135 8.40283C136.255 8.41846 136.385 8.46012 136.51 8.52783C136.63 8.60075 136.744 8.68929 136.843 8.79867C136.937 8.89762 137.01 9.01741 137.052 9.15283C137.088 9.29346 137.114 9.44971 137.114 9.61117ZM136.239 9.67367C136.239 9.53825 136.208 9.41846 136.156 9.3195C136.098 9.22575 136.025 9.15283 135.947 9.11117C135.874 9.05908 135.796 9.02783 135.718 9.02783C135.635 9.01741 135.546 9.007 135.468 9.007H135.093V10.4237H135.489C135.609 10.4237 135.723 10.4132 135.822 10.382C135.916 10.3455 135.994 10.2882 136.052 10.2153C136.104 10.1476 136.145 10.0695 136.177 9.98617C136.213 9.89241 136.239 9.78825 136.239 9.67367Z" fill="white"/>
<path d="M141.577 10.4029C141.577 10.7519 141.524 11.0644 141.431 11.3404C141.347 11.606 141.217 11.8352 141.056 12.0279C140.889 12.2258 140.67 12.3769 140.41 12.4862C140.16 12.58 139.863 12.6321 139.535 12.6321C139.212 12.6321 138.925 12.5852 138.681 12.5071C138.441 12.4133 138.238 12.2779 138.077 12.1112C137.91 11.9342 137.78 11.7102 137.702 11.4446C137.629 11.1685 137.597 10.8404 137.597 10.4654C137.597 10.1373 137.639 9.83 137.722 9.54875C137.8 9.27271 137.931 9.04354 138.097 8.86125C138.274 8.66854 138.493 8.52271 138.743 8.42375C138.988 8.31437 139.285 8.25708 139.618 8.25708C139.936 8.25708 140.212 8.30395 140.452 8.38208C140.696 8.46541 140.91 8.60083 141.077 8.77791C141.238 8.96021 141.368 9.18416 141.452 9.44458C141.53 9.71021 141.577 10.0331 141.577 10.4029ZM140.681 10.4446C140.681 10.2258 140.655 10.0227 140.618 9.84041C140.587 9.66333 140.53 9.50708 140.452 9.38208C140.368 9.24666 140.254 9.1425 140.118 9.06958C139.978 9.00187 139.8 8.96541 139.597 8.96541C139.389 8.96541 139.207 9.01229 139.056 9.09041C138.915 9.16333 138.8 9.2675 138.722 9.40291C138.639 9.52791 138.571 9.68416 138.535 9.86125C138.504 10.0435 138.493 10.231 138.493 10.4237C138.493 10.6633 138.504 10.8717 138.535 11.0487C138.571 11.231 138.639 11.3925 138.722 11.5279C138.8 11.6529 138.915 11.7519 139.056 11.8196C139.191 11.8925 139.368 11.9237 139.577 11.9237C139.78 11.9237 139.957 11.8821 140.097 11.7987C140.233 11.7206 140.347 11.6112 140.431 11.4862C140.524 11.3508 140.587 11.1894 140.618 11.0071C140.655 10.83 140.681 10.6425 140.681 10.4446Z" fill="white"/>
<path d="M144.79 11.2779C144.79 11.5019 144.744 11.6998 144.665 11.8612C144.582 12.0279 144.467 12.1685 144.332 12.2779C144.191 12.3925 144.025 12.481 143.832 12.5487C143.65 12.6008 143.447 12.6321 143.228 12.6321C143.087 12.6321 142.952 12.6165 142.832 12.5904C142.707 12.5592 142.592 12.5383 142.499 12.5071C142.4 12.4706 142.316 12.4342 142.249 12.4029C142.191 12.3665 142.15 12.33 142.124 12.2987C142.092 12.2727 142.072 12.231 142.061 12.1737C142.046 12.1217 142.04 12.0435 142.04 11.9446C142.04 11.8769 142.04 11.8196 142.04 11.7779C142.04 11.7415 142.046 11.705 142.061 11.6737C142.072 11.6477 142.087 11.6269 142.103 11.6112C142.113 11.6008 142.134 11.5904 142.165 11.5904C142.191 11.5904 142.233 11.6165 142.29 11.6529C142.342 11.6842 142.415 11.7206 142.499 11.7571C142.577 11.7987 142.686 11.8456 142.811 11.8821C142.931 11.9133 143.072 11.9237 143.228 11.9237C143.337 11.9237 143.436 11.9185 143.52 11.9029C143.598 11.8769 143.671 11.8404 143.728 11.7987C143.78 11.7467 143.822 11.6894 143.853 11.6321C143.879 11.5644 143.895 11.4862 143.895 11.4029C143.895 11.3092 143.863 11.2258 143.811 11.1529C143.77 11.0852 143.702 11.0227 143.624 10.9654C143.54 10.9133 143.441 10.8612 143.332 10.8196C143.217 10.7831 143.108 10.731 142.999 10.6737C142.884 10.6217 142.775 10.5644 142.665 10.5071C142.566 10.4394 142.473 10.356 142.395 10.2571C142.311 10.1633 142.238 10.0487 142.186 9.92375C142.129 9.80395 142.103 9.64771 142.103 9.46541C142.103 9.27271 142.134 9.10083 142.207 8.94458C142.285 8.79354 142.395 8.66854 142.52 8.56958C142.639 8.46021 142.79 8.38208 142.957 8.34041C143.134 8.28833 143.322 8.25708 143.52 8.25708C143.613 8.25708 143.712 8.2675 143.811 8.27791C143.921 8.29354 144.02 8.31437 144.103 8.34041C144.181 8.37166 144.259 8.40812 144.332 8.44458C144.4 8.47583 144.441 8.50187 144.457 8.52791C144.483 8.54354 144.499 8.55916 144.499 8.56958C144.509 8.58521 144.52 8.60604 144.52 8.63208C144.53 8.66333 144.54 8.69979 144.54 8.73625C144.54 8.7675 144.54 8.80916 144.54 8.86125C144.54 8.93416 144.54 8.99145 144.54 9.02791C144.54 9.06958 144.53 9.10604 144.52 9.13208C144.52 9.16333 144.509 9.18416 144.499 9.19458C144.483 9.21021 144.462 9.21541 144.436 9.21541C144.405 9.21541 144.363 9.205 144.311 9.17375C144.27 9.14771 144.202 9.11125 144.124 9.06958C144.051 9.03312 143.962 8.99666 143.853 8.96541C143.754 8.93937 143.65 8.92375 143.54 8.92375C143.441 8.92375 143.358 8.93937 143.29 8.96541C143.217 8.99666 143.155 9.03312 143.103 9.06958C143.061 9.10083 143.025 9.1425 142.999 9.19458C142.983 9.25187 142.978 9.31437 142.978 9.38208C142.978 9.48104 142.999 9.56437 143.04 9.63208C143.092 9.705 143.165 9.7675 143.249 9.81958C143.342 9.86125 143.441 9.91333 143.54 9.96541C143.65 10.0071 143.759 10.0592 143.874 10.1112C143.994 10.1529 144.108 10.2102 144.207 10.2779C144.316 10.3508 144.415 10.4342 144.499 10.5279C144.577 10.6112 144.65 10.7206 144.707 10.8404C144.759 10.9654 144.79 11.1165 144.79 11.2779Z" fill="white"/>
<path d="M147.943 12.2153C147.943 12.2726 147.933 12.3299 147.922 12.382C147.922 12.4237 147.912 12.4601 147.901 12.4862C147.901 12.5018 147.886 12.5174 147.86 12.5278C147.844 12.5435 147.828 12.5487 147.818 12.5487H145.693C145.62 12.5487 145.558 12.5278 145.505 12.4862C145.464 12.4497 145.443 12.3768 145.443 12.2778V8.61117C145.443 8.51741 145.464 8.4445 145.505 8.40283C145.558 8.36637 145.62 8.34033 145.693 8.34033H147.797C147.823 8.34033 147.844 8.35075 147.86 8.36117C147.87 8.36117 147.88 8.37679 147.88 8.40283C147.891 8.43408 147.901 8.47054 147.901 8.507C147.912 8.54867 147.922 8.60596 147.922 8.67367C147.922 8.73096 147.912 8.78825 147.901 8.84033C147.901 8.882 147.891 8.91846 147.88 8.9445C147.88 8.96012 147.87 8.97575 147.86 8.98617C147.844 9.00179 147.823 9.007 147.797 9.007H146.297V10.0278H147.568C147.578 10.0278 147.594 10.0382 147.61 10.0487C147.636 10.0643 147.651 10.0851 147.651 10.1112C147.662 10.1424 147.672 10.1789 147.672 10.2153C147.683 10.257 147.693 10.3091 147.693 10.3612C147.693 10.4341 147.683 10.4914 147.672 10.5278C147.672 10.5695 147.662 10.606 147.651 10.632C147.651 10.6476 147.636 10.6632 147.61 10.6737C147.594 10.6893 147.578 10.6945 147.568 10.6945H146.297V11.882H147.818C147.828 11.882 147.844 11.8924 147.86 11.9028C147.886 11.9185 147.901 11.9393 147.901 11.9653C147.912 11.981 147.922 12.0122 147.922 12.0487C147.933 12.0903 147.943 12.1476 147.943 12.2153Z" fill="white"/>
<path d="M151.821 12.4445C151.821 12.4601 151.81 12.481 151.8 12.507C151.8 12.5226 151.774 12.5382 151.737 12.5487C151.706 12.5487 151.659 12.5487 151.591 12.5487C151.534 12.5591 151.451 12.5695 151.341 12.5695C151.258 12.5695 151.185 12.5591 151.133 12.5487C151.076 12.5487 151.024 12.5487 150.987 12.5487C150.956 12.5382 150.935 12.5226 150.925 12.507C150.909 12.481 150.904 12.4549 150.904 12.4237L150.529 11.4862C150.472 11.3768 150.42 11.2778 150.383 11.1945C150.341 11.1164 150.289 11.0435 150.237 10.9862C150.196 10.9341 150.138 10.8924 150.071 10.8612C149.998 10.8351 149.914 10.8195 149.821 10.8195H149.55V12.4237C149.55 12.4549 149.539 12.4757 149.529 12.4862C149.513 12.5018 149.482 12.5174 149.446 12.5278C149.414 12.5435 149.373 12.5487 149.321 12.5487C149.279 12.5591 149.211 12.5695 149.133 12.5695C149.05 12.5695 148.977 12.5591 148.925 12.5487C148.867 12.5487 148.815 12.5435 148.779 12.5278C148.748 12.5174 148.727 12.5018 148.716 12.4862C148.701 12.4757 148.696 12.4549 148.696 12.4237V8.61117C148.696 8.51741 148.716 8.4445 148.758 8.40283C148.81 8.36637 148.873 8.34033 148.946 8.34033H150.05C150.159 8.34033 150.248 8.34033 150.321 8.34033C150.388 8.34033 150.451 8.35075 150.508 8.36117C150.67 8.39241 150.826 8.43408 150.966 8.48617C151.102 8.54346 151.216 8.62158 151.3 8.71533C151.393 8.81429 151.472 8.92887 151.529 9.04867C151.581 9.17367 151.612 9.32471 151.612 9.48617C151.612 9.62679 151.586 9.76221 151.55 9.882C151.508 9.99658 151.451 10.1007 151.383 10.1945C151.31 10.2778 151.227 10.356 151.133 10.4237C151.034 10.4966 150.914 10.5539 150.779 10.5903C150.847 10.6216 150.909 10.658 150.966 10.6945C151.018 10.7362 151.071 10.7935 151.112 10.8612C151.164 10.9185 151.216 10.9914 151.258 11.0695C151.295 11.1528 151.341 11.2466 151.383 11.3403L151.737 12.1737C151.763 12.257 151.784 12.3247 151.8 12.3612C151.81 12.3924 151.821 12.4185 151.821 12.4445ZM150.716 9.5695C150.716 9.43408 150.68 9.3195 150.612 9.23617C150.555 9.14241 150.456 9.0695 150.321 9.02783C150.279 9.01741 150.227 9.007 150.175 9.007C150.117 8.99658 150.039 8.98617 149.946 8.98617H149.55V10.1945H149.987C150.107 10.1945 150.216 10.1841 150.3 10.1528C150.393 10.1164 150.472 10.0695 150.529 10.0278C150.597 9.97575 150.643 9.91325 150.675 9.84033C150.701 9.76221 150.716 9.66846 150.716 9.5695Z" fill="white"/>
<path d="M121.036 18.3269C121.036 18.3842 121.026 18.4415 121.016 18.4936C121.016 18.5352 121.005 18.5717 120.995 18.5977C120.995 18.6134 120.979 18.629 120.953 18.6394C120.937 18.655 120.922 18.6602 120.911 18.6602H118.786C118.713 18.6602 118.651 18.6394 118.599 18.5977C118.557 18.5613 118.536 18.4884 118.536 18.3894V14.7227C118.536 14.629 118.557 14.5561 118.599 14.5144C118.651 14.4779 118.713 14.4519 118.786 14.4519H120.891C120.917 14.4519 120.937 14.4623 120.953 14.4727C120.963 14.4727 120.974 14.4884 120.974 14.5144C120.984 14.5457 120.995 14.5821 120.995 14.6186C121.005 14.6602 121.016 14.7175 121.016 14.7852C121.016 14.8425 121.005 14.8998 120.995 14.9519C120.995 14.9936 120.984 15.03 120.974 15.0561C120.974 15.0717 120.963 15.0873 120.953 15.0977C120.937 15.1134 120.917 15.1186 120.891 15.1186H119.391V16.1394H120.661C120.672 16.1394 120.687 16.1498 120.703 16.1602C120.729 16.1759 120.745 16.1967 120.745 16.2227C120.755 16.254 120.766 16.2904 120.766 16.3269C120.776 16.3686 120.786 16.4207 120.786 16.4727C120.786 16.5457 120.776 16.6029 120.766 16.6394C120.766 16.6811 120.755 16.7175 120.745 16.7436C120.745 16.7592 120.729 16.7748 120.703 16.7852C120.687 16.8009 120.672 16.8061 120.661 16.8061H119.391V17.9936H120.911C120.922 17.9936 120.937 18.004 120.953 18.0144C120.979 18.03 120.995 18.0509 120.995 18.0769C121.005 18.0925 121.016 18.1238 121.016 18.1602C121.026 18.2019 121.036 18.2592 121.036 18.3269Z" fill="white"/>
<path d="M125.268 18.3685C125.268 18.4102 125.252 18.4571 125.226 18.4935C125.211 18.5352 125.19 18.5717 125.164 18.5977C125.133 18.6289 125.096 18.6498 125.06 18.6602C125.018 18.6602 124.971 18.6602 124.935 18.6602H124.581C124.497 18.6602 124.424 18.655 124.372 18.6394C124.315 18.6289 124.263 18.5977 124.226 18.556C124.185 18.5196 124.133 18.4623 124.081 18.3894C124.039 18.3217 123.987 18.2383 123.935 18.1394L122.893 16.1602C122.836 16.0508 122.773 15.9258 122.706 15.7852C122.648 15.6498 122.591 15.5144 122.539 15.3894C122.539 15.5456 122.539 15.7071 122.539 15.8685C122.549 16.0248 122.56 16.1758 122.56 16.3269V18.5352C122.56 18.5664 122.549 18.5873 122.539 18.5977C122.523 18.6133 122.502 18.6289 122.476 18.6394C122.445 18.655 122.404 18.6602 122.351 18.6602C122.31 18.6706 122.242 18.681 122.164 18.681C122.091 18.681 122.029 18.6706 121.976 18.6602C121.935 18.6602 121.898 18.655 121.872 18.6394C121.841 18.6289 121.82 18.6133 121.81 18.5977C121.794 18.5873 121.789 18.5664 121.789 18.5352V14.7435C121.789 14.6498 121.815 14.5769 121.872 14.5352C121.94 14.4831 122.018 14.4519 122.101 14.4519H122.56C122.638 14.4519 122.711 14.4623 122.768 14.4727C122.82 14.4883 122.872 14.5196 122.914 14.556C122.95 14.5873 122.997 14.6289 123.039 14.681C123.075 14.7383 123.122 14.8112 123.164 14.8894L123.976 16.431C124.029 16.53 124.081 16.6237 124.122 16.7019C124.174 16.7852 124.226 16.8789 124.268 16.9727C124.305 17.056 124.351 17.1498 124.393 17.2435C124.43 17.3269 124.476 17.4154 124.518 17.4935C124.502 17.3425 124.497 17.1914 124.497 17.0352C124.497 16.8737 124.497 16.7123 124.497 16.556V14.5769C124.497 14.5508 124.502 14.53 124.518 14.5144C124.529 14.5039 124.549 14.4883 124.581 14.4727C124.607 14.4623 124.643 14.4519 124.685 14.4519C124.737 14.4414 124.81 14.431 124.893 14.431C124.961 14.431 125.018 14.4414 125.06 14.4519C125.112 14.4519 125.154 14.4623 125.185 14.4727C125.211 14.4883 125.232 14.5039 125.247 14.5144C125.258 14.53 125.268 14.5508 125.268 14.5769V18.3685Z" fill="white"/>
<path d="M132.604 18.5352C132.604 18.5665 132.594 18.5873 132.583 18.5977C132.568 18.6134 132.536 18.629 132.5 18.6394C132.469 18.655 132.427 18.6602 132.375 18.6602C132.333 18.6707 132.266 18.6811 132.188 18.6811C132.115 18.6811 132.052 18.6707 132 18.6602C131.943 18.6602 131.901 18.655 131.875 18.6394C131.844 18.629 131.823 18.6134 131.812 18.5977C131.797 18.5873 131.792 18.5665 131.792 18.5352V15.1186H131.771L130.562 18.5352C130.547 18.5665 130.526 18.5925 130.5 18.6186C130.484 18.6342 130.464 18.6498 130.438 18.6602C130.406 18.6602 130.365 18.6602 130.312 18.6602C130.255 18.6707 130.193 18.6811 130.125 18.6811C130.042 18.6811 129.969 18.6707 129.917 18.6602C129.875 18.6602 129.828 18.655 129.792 18.6394C129.76 18.629 129.734 18.6134 129.708 18.5977C129.693 18.5873 129.688 18.5665 129.688 18.5352L128.5 15.1186V18.5352C128.5 18.5665 128.49 18.5873 128.479 18.5977C128.464 18.6134 128.443 18.629 128.417 18.6394C128.385 18.655 128.344 18.6602 128.292 18.6602C128.234 18.6707 128.161 18.6811 128.083 18.6811C128.01 18.6811 127.948 18.6707 127.896 18.6602C127.839 18.6602 127.797 18.655 127.771 18.6394C127.74 18.629 127.719 18.6134 127.708 18.5977C127.693 18.5873 127.688 18.5665 127.688 18.5352V14.7852C127.688 14.6759 127.714 14.5925 127.771 14.5352C127.823 14.4832 127.906 14.4519 128.021 14.4519H128.562C128.672 14.4519 128.76 14.4623 128.833 14.4727C128.901 14.4884 128.958 14.5196 129 14.5561C129.052 14.5977 129.094 14.655 129.125 14.7227C129.161 14.78 129.198 14.8529 129.229 14.9311L130.146 17.4519H130.167L131.104 14.9311C131.13 14.8529 131.156 14.78 131.188 14.7227C131.224 14.655 131.271 14.5977 131.312 14.5561C131.349 14.5196 131.401 14.4884 131.458 14.4727C131.526 14.4623 131.604 14.4519 131.688 14.4519H132.25C132.318 14.4519 132.375 14.4623 132.417 14.4727C132.453 14.4884 132.49 14.5092 132.521 14.5352C132.547 14.5665 132.568 14.6029 132.583 14.6394C132.594 14.6811 132.604 14.7332 132.604 14.7852V18.5352Z" fill="white"/>
<path d="M136.971 18.3477C136.997 18.4206 137.013 18.4831 137.013 18.5352C137.013 18.5769 136.997 18.6133 136.971 18.6394C136.956 18.655 136.914 18.6602 136.846 18.6602C136.789 18.6706 136.711 18.681 136.617 18.681C136.502 18.681 136.414 18.6706 136.346 18.6602C136.289 18.6602 136.237 18.6602 136.2 18.6602C136.169 18.6498 136.148 18.6342 136.138 18.6185C136.122 18.6081 136.117 18.5873 136.117 18.556L135.825 17.7019H134.242L133.971 18.5144C133.971 18.556 133.961 18.5925 133.95 18.6185C133.935 18.6342 133.903 18.6498 133.867 18.6602C133.836 18.6602 133.794 18.6602 133.742 18.6602C133.685 18.6706 133.607 18.681 133.513 18.681C133.414 18.681 133.336 18.6706 133.284 18.6602C133.226 18.6602 133.185 18.6498 133.159 18.6185C133.143 18.5925 133.138 18.556 133.138 18.5144C133.148 18.4779 133.164 18.4102 133.179 18.3269L134.492 14.5977C134.502 14.5612 134.518 14.53 134.534 14.5144C134.544 14.4883 134.575 14.4675 134.617 14.4519C134.653 14.4414 134.706 14.431 134.763 14.431C134.831 14.431 134.919 14.431 135.034 14.431C135.169 14.431 135.273 14.431 135.346 14.431C135.414 14.431 135.471 14.4414 135.513 14.4519C135.565 14.4675 135.601 14.4883 135.617 14.5144C135.627 14.53 135.643 14.5612 135.659 14.5977L136.971 18.3477ZM135.034 15.2435L134.429 17.0352H135.617L135.034 15.2435Z" fill="white"/>
<path d="M140.927 15.0977C140.927 15.1706 140.916 15.2279 140.906 15.2644C140.906 15.306 140.896 15.3425 140.885 15.3685C140.885 15.3998 140.875 15.4206 140.864 15.431C140.849 15.4467 140.833 15.4519 140.823 15.4519C140.791 15.4519 140.745 15.431 140.677 15.3894C140.62 15.3529 140.536 15.306 140.427 15.2644C140.328 15.2279 140.203 15.181 140.052 15.1394C139.911 15.1029 139.745 15.0769 139.552 15.0769C139.343 15.0769 139.151 15.1133 138.989 15.181C138.833 15.2539 138.692 15.3581 138.573 15.4935C138.458 15.6185 138.37 15.7748 138.302 15.9519C138.245 16.1342 138.218 16.3373 138.218 16.556C138.218 16.7956 138.245 17.0039 138.302 17.181C138.37 17.3633 138.458 17.5196 138.573 17.6394C138.682 17.7644 138.823 17.8633 138.989 17.931C139.151 17.9883 139.333 18.0144 139.531 18.0144C139.625 18.0144 139.718 18.0092 139.802 17.9935C139.896 17.9675 139.989 17.931 140.073 17.8894V16.9102H139.281C139.239 16.9102 139.203 16.8894 139.177 16.8477C139.161 16.7956 139.156 16.7123 139.156 16.5977C139.156 16.53 139.156 16.4727 139.156 16.431C139.156 16.3946 139.161 16.3633 139.177 16.3477C139.187 16.3217 139.203 16.3008 139.218 16.2852C139.229 16.2748 139.25 16.2644 139.281 16.2644H140.698C140.724 16.2644 140.75 16.2748 140.781 16.2852C140.807 16.3008 140.828 16.3217 140.843 16.3477C140.87 16.3633 140.89 16.3946 140.906 16.431C140.916 16.4623 140.927 16.4987 140.927 16.5352V18.2227C140.927 18.28 140.911 18.3373 140.885 18.3894C140.854 18.431 140.807 18.4675 140.739 18.4935C140.666 18.5248 140.578 18.5612 140.468 18.5977C140.37 18.6289 140.265 18.6498 140.156 18.6602C140.041 18.6862 139.932 18.7019 139.823 18.7019C139.708 18.7123 139.599 18.7227 139.489 18.7227C139.14 18.7227 138.833 18.6758 138.573 18.5977C138.307 18.5039 138.078 18.3633 137.885 18.181C137.703 17.9883 137.562 17.7592 137.468 17.4935C137.37 17.2331 137.323 16.931 137.323 16.5977C137.323 16.2539 137.37 15.9467 137.468 15.681C137.578 15.405 137.729 15.1706 137.927 14.9727C138.12 14.78 138.349 14.6342 138.614 14.5352C138.89 14.4258 139.198 14.3685 139.531 14.3685C139.708 14.3685 139.87 14.3842 140.01 14.4102C140.161 14.4414 140.291 14.4779 140.406 14.5144C140.526 14.5456 140.625 14.5821 140.698 14.6185C140.765 14.6602 140.812 14.6967 140.843 14.7227C140.87 14.7539 140.89 14.7956 140.906 14.8477C140.916 14.905 140.927 14.9883 140.927 15.0977Z" fill="white"/>
<path d="M145.256 18.3477C145.282 18.4206 145.297 18.4831 145.297 18.5352C145.297 18.5769 145.282 18.6133 145.256 18.6394C145.24 18.655 145.199 18.6602 145.131 18.6602C145.074 18.6706 144.995 18.681 144.902 18.681C144.787 18.681 144.699 18.6706 144.631 18.6602C144.574 18.6602 144.521 18.6602 144.485 18.6602C144.454 18.6498 144.433 18.6342 144.422 18.6185C144.407 18.6081 144.402 18.5873 144.402 18.556L144.11 17.7019H142.527L142.256 18.5144C142.256 18.556 142.245 18.5925 142.235 18.6185C142.219 18.6342 142.188 18.6498 142.152 18.6602C142.12 18.6602 142.079 18.6602 142.027 18.6602C141.969 18.6706 141.891 18.681 141.797 18.681C141.699 18.681 141.62 18.6706 141.568 18.6602C141.511 18.6602 141.469 18.6498 141.443 18.6185C141.428 18.5925 141.422 18.556 141.422 18.5144C141.433 18.4779 141.449 18.4102 141.464 18.3269L142.777 14.5977C142.787 14.5612 142.803 14.53 142.818 14.5144C142.829 14.4883 142.86 14.4675 142.902 14.4519C142.938 14.4414 142.99 14.431 143.047 14.431C143.115 14.431 143.204 14.431 143.318 14.431C143.454 14.431 143.558 14.431 143.631 14.431C143.699 14.431 143.756 14.4414 143.797 14.4519C143.85 14.4675 143.886 14.4883 143.902 14.5144C143.912 14.53 143.928 14.5612 143.943 14.5977L145.256 18.3477ZM143.318 15.2435L142.714 17.0352H143.902L143.318 15.2435Z" fill="white"/>
<path d="M148.337 17.3894C148.337 17.6133 148.29 17.8112 148.212 17.9727C148.128 18.1394 148.014 18.28 147.878 18.3894C147.738 18.5039 147.571 18.5925 147.378 18.6602C147.196 18.7123 146.993 18.7435 146.774 18.7435C146.633 18.7435 146.498 18.7279 146.378 18.7019C146.253 18.6706 146.139 18.6498 146.045 18.6185C145.946 18.5821 145.863 18.5456 145.795 18.5144C145.738 18.4779 145.696 18.4414 145.67 18.4102C145.639 18.3842 145.618 18.3425 145.607 18.2852C145.592 18.2331 145.587 18.155 145.587 18.056C145.587 17.9883 145.587 17.931 145.587 17.8894C145.587 17.8529 145.592 17.8164 145.607 17.7852C145.618 17.7592 145.633 17.7383 145.649 17.7227C145.659 17.7123 145.68 17.7019 145.712 17.7019C145.738 17.7019 145.779 17.7279 145.837 17.7644C145.889 17.7956 145.962 17.8321 146.045 17.8685C146.123 17.9102 146.232 17.9571 146.357 17.9935C146.477 18.0248 146.618 18.0352 146.774 18.0352C146.883 18.0352 146.982 18.03 147.066 18.0144C147.144 17.9883 147.217 17.9519 147.274 17.9102C147.326 17.8581 147.368 17.8008 147.399 17.7435C147.425 17.6758 147.441 17.5977 147.441 17.5144C147.441 17.4206 147.409 17.3373 147.357 17.2644C147.316 17.1967 147.248 17.1342 147.17 17.0769C147.087 17.0248 146.988 16.9727 146.878 16.931C146.764 16.8946 146.654 16.8425 146.545 16.7852C146.43 16.7331 146.321 16.6758 146.212 16.6185C146.113 16.5508 146.019 16.4675 145.941 16.3685C145.857 16.2748 145.784 16.1602 145.732 16.0352C145.675 15.9154 145.649 15.7592 145.649 15.5769C145.649 15.3842 145.68 15.2123 145.753 15.056C145.831 14.905 145.941 14.78 146.066 14.681C146.186 14.5717 146.337 14.4935 146.503 14.4519C146.68 14.3998 146.868 14.3685 147.066 14.3685C147.159 14.3685 147.258 14.3789 147.357 14.3894C147.467 14.405 147.566 14.4258 147.649 14.4519C147.727 14.4831 147.805 14.5196 147.878 14.556C147.946 14.5873 147.988 14.6133 148.003 14.6394C148.029 14.655 148.045 14.6706 148.045 14.681C148.055 14.6967 148.066 14.7175 148.066 14.7435C148.076 14.7748 148.087 14.8112 148.087 14.8477C148.087 14.8789 148.087 14.9206 148.087 14.9727C148.087 15.0456 148.087 15.1029 148.087 15.1394C148.087 15.181 148.076 15.2175 148.066 15.2435C148.066 15.2748 148.055 15.2956 148.045 15.306C148.029 15.3217 148.008 15.3269 147.982 15.3269C147.951 15.3269 147.909 15.3164 147.857 15.2852C147.816 15.2592 147.748 15.2227 147.67 15.181C147.597 15.1446 147.508 15.1081 147.399 15.0769C147.3 15.0508 147.196 15.0352 147.087 15.0352C146.988 15.0352 146.904 15.0508 146.837 15.0769C146.764 15.1081 146.701 15.1446 146.649 15.181C146.607 15.2123 146.571 15.2539 146.545 15.306C146.529 15.3633 146.524 15.4258 146.524 15.4935C146.524 15.5925 146.545 15.6758 146.587 15.7435C146.639 15.8164 146.712 15.8789 146.795 15.931C146.889 15.9727 146.988 16.0248 147.087 16.0769C147.196 16.1185 147.305 16.1706 147.42 16.2227C147.54 16.2644 147.654 16.3217 147.753 16.3894C147.863 16.4623 147.962 16.5456 148.045 16.6394C148.123 16.7227 148.196 16.8321 148.253 16.9519C148.305 17.0769 148.337 17.2279 148.337 17.3894Z" fill="white"/>
<path d="M149.843 18.5352C149.843 18.5664 149.833 18.5873 149.822 18.5977C149.807 18.6133 149.786 18.6289 149.76 18.6394C149.729 18.655 149.687 18.6602 149.635 18.6602C149.578 18.6706 149.505 18.681 149.427 18.681C149.343 18.681 149.27 18.6706 149.218 18.6602C149.161 18.6602 149.109 18.655 149.072 18.6394C149.041 18.6289 149.02 18.6133 149.01 18.5977C148.994 18.5873 148.989 18.5664 148.989 18.5352V14.556C148.989 14.5456 148.994 14.53 149.01 14.5144C149.02 14.4883 149.041 14.4727 149.072 14.4727C149.109 14.4623 149.161 14.4519 149.218 14.4519C149.27 14.4414 149.343 14.431 149.427 14.431C149.505 14.431 149.578 14.4414 149.635 14.4519C149.687 14.4519 149.729 14.4623 149.76 14.4727C149.786 14.4727 149.807 14.4883 149.822 14.5144C149.833 14.53 149.843 14.5456 149.843 14.556V18.5352Z" fill="white"/>
<path d="M154.248 18.3685C154.248 18.4102 154.232 18.4571 154.206 18.4935C154.191 18.5352 154.17 18.5717 154.144 18.5977C154.112 18.6289 154.076 18.6498 154.04 18.6602C153.998 18.6602 153.951 18.6602 153.915 18.6602H153.56C153.477 18.6602 153.404 18.655 153.352 18.6394C153.295 18.6289 153.243 18.5977 153.206 18.556C153.165 18.5196 153.112 18.4623 153.06 18.3894C153.019 18.3217 152.967 18.2383 152.915 18.1394L151.873 16.1602C151.816 16.0508 151.753 15.9258 151.685 15.7852C151.628 15.6498 151.571 15.5144 151.519 15.3894C151.519 15.5456 151.519 15.7071 151.519 15.8685C151.529 16.0248 151.54 16.1758 151.54 16.3269V18.5352C151.54 18.5664 151.529 18.5873 151.519 18.5977C151.503 18.6133 151.482 18.6289 151.456 18.6394C151.425 18.655 151.383 18.6602 151.331 18.6602C151.29 18.6706 151.222 18.681 151.144 18.681C151.071 18.681 151.008 18.6706 150.956 18.6602C150.915 18.6602 150.878 18.655 150.852 18.6394C150.821 18.6289 150.8 18.6133 150.79 18.5977C150.774 18.5873 150.769 18.5664 150.769 18.5352V14.7435C150.769 14.6498 150.795 14.5769 150.852 14.5352C150.92 14.4831 150.998 14.4519 151.081 14.4519H151.54C151.618 14.4519 151.691 14.4623 151.748 14.4727C151.8 14.4883 151.852 14.5196 151.894 14.556C151.93 14.5873 151.977 14.6289 152.019 14.681C152.055 14.7383 152.102 14.8112 152.144 14.8894L152.956 16.431C153.008 16.53 153.06 16.6237 153.102 16.7019C153.154 16.7852 153.206 16.8789 153.248 16.9727C153.284 17.056 153.331 17.1498 153.373 17.2435C153.409 17.3269 153.456 17.4154 153.498 17.4935C153.482 17.3425 153.477 17.1914 153.477 17.0352C153.477 16.8737 153.477 16.7123 153.477 16.556V14.5769C153.477 14.5508 153.482 14.53 153.498 14.5144C153.508 14.5039 153.529 14.4883 153.56 14.4727C153.586 14.4623 153.623 14.4519 153.665 14.4519C153.717 14.4414 153.79 14.431 153.873 14.431C153.941 14.431 153.998 14.4414 154.04 14.4519C154.092 14.4519 154.133 14.4623 154.165 14.4727C154.191 14.4883 154.211 14.5039 154.227 14.5144C154.237 14.53 154.248 14.5508 154.248 14.5769V18.3685Z" fill="white"/>
<path d="M172.196 12.2362C172.222 12.3091 172.237 12.3716 172.237 12.4237C172.237 12.4654 172.222 12.5018 172.196 12.5279C172.18 12.5435 172.138 12.5487 172.071 12.5487C172.013 12.5591 171.935 12.5695 171.842 12.5695C171.727 12.5695 171.638 12.5591 171.571 12.5487C171.513 12.5487 171.461 12.5487 171.425 12.5487C171.394 12.5383 171.373 12.5227 171.362 12.507C171.347 12.4966 171.342 12.4758 171.342 12.4445L171.05 11.5904H169.467L169.196 12.4029C169.196 12.4445 169.185 12.481 169.175 12.507C169.159 12.5227 169.128 12.5383 169.092 12.5487C169.06 12.5487 169.019 12.5487 168.967 12.5487C168.909 12.5591 168.831 12.5695 168.737 12.5695C168.638 12.5695 168.56 12.5591 168.508 12.5487C168.451 12.5487 168.409 12.5383 168.383 12.507C168.368 12.481 168.362 12.4445 168.362 12.4029C168.373 12.3664 168.388 12.2987 168.404 12.2154L169.717 8.48621C169.727 8.44975 169.743 8.4185 169.758 8.40287C169.769 8.37683 169.8 8.356 169.842 8.34037C169.878 8.32996 169.93 8.31954 169.987 8.31954C170.055 8.31954 170.144 8.31954 170.258 8.31954C170.394 8.31954 170.498 8.31954 170.571 8.31954C170.638 8.31954 170.696 8.32996 170.737 8.34037C170.79 8.356 170.826 8.37683 170.842 8.40287C170.852 8.4185 170.868 8.44975 170.883 8.48621L172.196 12.2362ZM170.258 9.13204L169.654 10.9237H170.842L170.258 9.13204ZM170.092 7.86121C170.102 7.89246 170.112 7.9185 170.112 7.94454C170.123 7.96016 170.118 7.97579 170.092 7.98621C170.076 8.00183 170.045 8.01746 170.008 8.02787C169.967 8.02787 169.909 8.02787 169.842 8.02787C169.769 8.02787 169.706 8.02787 169.654 8.02787C169.612 8.02787 169.576 8.02266 169.55 8.00704C169.519 7.99662 169.493 7.981 169.467 7.96537C169.435 7.95496 169.415 7.93933 169.404 7.92371L168.675 7.27787C168.644 7.25183 168.623 7.22579 168.612 7.19454C168.597 7.1685 168.597 7.14766 168.612 7.13204C168.638 7.106 168.68 7.08516 168.737 7.06954C168.79 7.05912 168.873 7.04871 168.987 7.04871C169.055 7.04871 169.118 7.05912 169.175 7.06954C169.227 7.06954 169.279 7.07996 169.321 7.09037C169.357 7.09037 169.394 7.106 169.425 7.13204C169.451 7.14766 169.477 7.1685 169.508 7.19454L170.092 7.86121Z" fill="white"/>
<path d="M177.783 10.382C177.783 10.7726 177.725 11.106 177.616 11.382C177.517 11.6476 177.371 11.8716 177.179 12.0487C176.996 12.2153 176.767 12.3455 176.491 12.4237C176.225 12.507 175.913 12.5487 175.554 12.5487H174.533C174.46 12.5487 174.397 12.5278 174.345 12.4862C174.304 12.4497 174.283 12.3768 174.283 12.2778V8.61117C174.283 8.51741 174.304 8.4445 174.345 8.40283C174.397 8.36637 174.46 8.34033 174.533 8.34033H175.616C175.986 8.34033 176.309 8.38721 176.574 8.46533C176.835 8.54867 177.059 8.68408 177.241 8.86117C177.418 9.02783 177.554 9.24658 177.637 9.507C177.731 9.757 177.783 10.0539 177.783 10.382ZM176.908 10.4028C176.908 10.2101 176.877 10.0278 176.824 9.86117C176.783 9.68408 176.705 9.52783 176.595 9.40283C176.496 9.28304 176.361 9.18408 176.199 9.11117C176.043 9.04346 175.835 9.007 175.574 9.007H175.137V11.8612H175.574C175.809 11.8612 176.002 11.8351 176.158 11.7778C176.319 11.7257 176.46 11.632 176.574 11.507C176.684 11.3872 176.767 11.231 176.824 11.0487C176.877 10.8716 176.908 10.6528 176.908 10.4028Z" fill="white"/>
<path d="M180.982 12.2154C180.982 12.2727 180.971 12.33 180.961 12.382C180.961 12.4237 180.951 12.4602 180.94 12.4862C180.94 12.5018 180.924 12.5175 180.898 12.5279C180.883 12.5435 180.867 12.5487 180.857 12.5487H178.732C178.659 12.5487 178.596 12.5279 178.544 12.4862C178.503 12.4497 178.482 12.3768 178.482 12.2779V8.61121C178.482 8.51746 178.503 8.44454 178.544 8.40287C178.596 8.36641 178.659 8.34037 178.732 8.34037H180.836C180.862 8.34037 180.883 8.35079 180.898 8.36121C180.909 8.36121 180.919 8.37683 180.919 8.40287C180.93 8.43412 180.94 8.47058 180.94 8.50704C180.951 8.54871 180.961 8.606 180.961 8.67371C180.961 8.731 180.951 8.78829 180.94 8.84037C180.94 8.88204 180.93 8.9185 180.919 8.94454C180.919 8.96016 180.909 8.97579 180.898 8.98621C180.883 9.00183 180.862 9.00704 180.836 9.00704H179.336V10.0279H180.607C180.617 10.0279 180.633 10.0383 180.648 10.0487C180.674 10.0643 180.69 10.0852 180.69 10.1112C180.701 10.1425 180.711 10.1789 180.711 10.2154C180.721 10.257 180.732 10.3091 180.732 10.3612C180.732 10.4341 180.721 10.4914 180.711 10.5279C180.711 10.5695 180.701 10.606 180.69 10.632C180.69 10.6477 180.674 10.6633 180.648 10.6737C180.633 10.6893 180.617 10.6945 180.607 10.6945H179.336V11.882H180.857C180.867 11.882 180.883 11.8925 180.898 11.9029C180.924 11.9185 180.94 11.9393 180.94 11.9654C180.951 11.981 180.961 12.0122 180.961 12.0487C180.971 12.0904 180.982 12.1477 180.982 12.2154ZM180.315 7.19454C180.341 7.1685 180.367 7.14766 180.398 7.13204C180.424 7.106 180.461 7.09037 180.503 7.09037C180.539 7.07996 180.591 7.06954 180.648 7.06954C180.701 7.05912 180.763 7.04871 180.836 7.04871C180.945 7.04871 181.029 7.05912 181.086 7.06954C181.138 7.08516 181.174 7.106 181.19 7.13204C181.216 7.14766 181.221 7.1685 181.211 7.19454C181.195 7.22579 181.174 7.25183 181.148 7.27787L180.419 7.92371C180.404 7.93933 180.383 7.95496 180.357 7.96537C180.326 7.981 180.299 7.99662 180.273 8.00704C180.242 8.02266 180.201 8.02787 180.148 8.02787C180.107 8.02787 180.049 8.02787 179.982 8.02787C179.909 8.02787 179.846 8.02787 179.794 8.02787C179.753 8.01746 179.721 8.00183 179.711 7.98621C179.695 7.97579 179.69 7.96016 179.69 7.94454C179.69 7.9185 179.701 7.89246 179.732 7.86121L180.315 7.19454Z" fill="white"/>
<path d="M184.609 9.61117C184.609 9.85075 184.573 10.0591 184.505 10.2362C184.432 10.4185 184.328 10.5747 184.193 10.6945C184.052 10.8195 183.875 10.9185 183.672 10.9862C183.463 11.0591 183.219 11.0903 182.943 11.0903H182.588V12.4237C182.588 12.4549 182.578 12.4757 182.568 12.4862C182.552 12.5018 182.521 12.5174 182.484 12.5278C182.453 12.5435 182.411 12.5487 182.359 12.5487C182.318 12.5591 182.25 12.5695 182.172 12.5695C182.088 12.5695 182.016 12.5591 181.963 12.5487C181.906 12.5487 181.854 12.5435 181.818 12.5278C181.786 12.5174 181.766 12.5018 181.755 12.4862C181.74 12.4757 181.734 12.4549 181.734 12.4237V8.632C181.734 8.53825 181.76 8.46533 181.818 8.42367C181.87 8.37158 181.943 8.34033 182.026 8.34033H183.026C183.12 8.34033 183.213 8.35075 183.297 8.36117C183.391 8.36117 183.505 8.37679 183.63 8.40283C183.75 8.41846 183.88 8.46012 184.005 8.52783C184.125 8.60075 184.24 8.68929 184.338 8.79867C184.432 8.89762 184.505 9.01741 184.547 9.15283C184.583 9.29346 184.609 9.44971 184.609 9.61117ZM183.734 9.67367C183.734 9.53825 183.703 9.41846 183.651 9.3195C183.594 9.22575 183.521 9.15283 183.443 9.11117C183.37 9.05908 183.292 9.02783 183.213 9.02783C183.13 9.01741 183.042 9.007 182.963 9.007H182.588V10.4237H182.984C183.104 10.4237 183.219 10.4132 183.318 10.382C183.411 10.3455 183.49 10.2882 183.547 10.2153C183.599 10.1476 183.641 10.0695 183.672 9.98617C183.708 9.89241 183.734 9.78825 183.734 9.67367Z" fill="white"/>
<path d="M189.072 10.4029C189.072 10.7519 189.02 11.0644 188.926 11.3404C188.843 11.606 188.712 11.8352 188.551 12.0279C188.384 12.2258 188.166 12.3769 187.905 12.4862C187.655 12.58 187.358 12.6321 187.03 12.6321C186.707 12.6321 186.421 12.5852 186.176 12.5071C185.936 12.4133 185.733 12.2779 185.572 12.1112C185.405 11.9342 185.275 11.7102 185.197 11.4446C185.124 11.1685 185.093 10.8404 185.093 10.4654C185.093 10.1373 185.134 9.83 185.218 9.54875C185.296 9.27271 185.426 9.04354 185.593 8.86125C185.77 8.66854 185.988 8.52271 186.238 8.42375C186.483 8.31437 186.78 8.25708 187.113 8.25708C187.431 8.25708 187.707 8.30395 187.947 8.38208C188.192 8.46541 188.405 8.60083 188.572 8.77791C188.733 8.96021 188.863 9.18416 188.947 9.44458C189.025 9.71021 189.072 10.0331 189.072 10.4029ZM188.176 10.4446C188.176 10.2258 188.15 10.0227 188.113 9.84041C188.082 9.66333 188.025 9.50708 187.947 9.38208C187.863 9.24666 187.749 9.1425 187.613 9.06958C187.473 9.00187 187.296 8.96541 187.093 8.96541C186.884 8.96541 186.702 9.01229 186.551 9.09041C186.41 9.16333 186.296 9.2675 186.218 9.40291C186.134 9.52791 186.067 9.68416 186.03 9.86125C185.999 10.0435 185.988 10.231 185.988 10.4237C185.988 10.6633 185.999 10.8717 186.03 11.0487C186.067 11.231 186.134 11.3925 186.218 11.5279C186.296 11.6529 186.41 11.7519 186.551 11.8196C186.686 11.8925 186.863 11.9237 187.072 11.9237C187.275 11.9237 187.452 11.8821 187.593 11.7987C187.728 11.7206 187.843 11.6112 187.926 11.4862C188.02 11.3508 188.082 11.1894 188.113 11.0071C188.15 10.83 188.176 10.6425 188.176 10.4446Z" fill="white"/>
<path d="M192.286 11.2779C192.286 11.5019 192.239 11.6998 192.161 11.8612C192.077 12.0279 191.963 12.1685 191.827 12.2779C191.687 12.3925 191.52 12.481 191.327 12.5487C191.145 12.6008 190.942 12.6321 190.723 12.6321C190.583 12.6321 190.447 12.6165 190.327 12.5904C190.202 12.5592 190.088 12.5383 189.994 12.5071C189.895 12.4706 189.812 12.4342 189.744 12.4029C189.687 12.3665 189.645 12.33 189.619 12.2987C189.588 12.2727 189.567 12.231 189.557 12.1737C189.541 12.1217 189.536 12.0435 189.536 11.9446C189.536 11.8769 189.536 11.8196 189.536 11.7779C189.536 11.7415 189.541 11.705 189.557 11.6737C189.567 11.6477 189.583 11.6269 189.598 11.6112C189.609 11.6008 189.629 11.5904 189.661 11.5904C189.687 11.5904 189.728 11.6165 189.786 11.6529C189.838 11.6842 189.911 11.7206 189.994 11.7571C190.072 11.7987 190.182 11.8456 190.307 11.8821C190.426 11.9133 190.567 11.9237 190.723 11.9237C190.833 11.9237 190.932 11.9185 191.015 11.9029C191.093 11.8769 191.166 11.8404 191.223 11.7987C191.275 11.7467 191.317 11.6894 191.348 11.6321C191.374 11.5644 191.39 11.4862 191.39 11.4029C191.39 11.3092 191.359 11.2258 191.307 11.1529C191.265 11.0852 191.197 11.0227 191.119 10.9654C191.036 10.9133 190.937 10.8612 190.827 10.8196C190.713 10.7831 190.603 10.731 190.494 10.6737C190.379 10.6217 190.27 10.5644 190.161 10.5071C190.062 10.4394 189.968 10.356 189.89 10.2571C189.807 10.1633 189.734 10.0487 189.682 9.92375C189.624 9.80395 189.598 9.64771 189.598 9.46541C189.598 9.27271 189.629 9.10083 189.702 8.94458C189.78 8.79354 189.89 8.66854 190.015 8.56958C190.135 8.46021 190.286 8.38208 190.452 8.34041C190.629 8.28833 190.817 8.25708 191.015 8.25708C191.109 8.25708 191.208 8.2675 191.307 8.27791C191.416 8.29354 191.515 8.31437 191.598 8.34041C191.676 8.37166 191.754 8.40812 191.827 8.44458C191.895 8.47583 191.937 8.50187 191.952 8.52791C191.978 8.54354 191.994 8.55916 191.994 8.56958C192.004 8.58521 192.015 8.60604 192.015 8.63208C192.025 8.66333 192.036 8.69979 192.036 8.73625C192.036 8.7675 192.036 8.80916 192.036 8.86125C192.036 8.93416 192.036 8.99145 192.036 9.02791C192.036 9.06958 192.025 9.10604 192.015 9.13208C192.015 9.16333 192.004 9.18416 191.994 9.19458C191.978 9.21021 191.958 9.21541 191.932 9.21541C191.9 9.21541 191.859 9.205 191.807 9.17375C191.765 9.14771 191.697 9.11125 191.619 9.06958C191.546 9.03312 191.458 8.99666 191.348 8.96541C191.249 8.93937 191.145 8.92375 191.036 8.92375C190.937 8.92375 190.853 8.93937 190.786 8.96541C190.713 8.99666 190.65 9.03312 190.598 9.06958C190.557 9.10083 190.52 9.1425 190.494 9.19458C190.478 9.25187 190.473 9.31437 190.473 9.38208C190.473 9.48104 190.494 9.56437 190.536 9.63208C190.588 9.705 190.661 9.7675 190.744 9.81958C190.838 9.86125 190.937 9.91333 191.036 9.96541C191.145 10.0071 191.254 10.0592 191.369 10.1112C191.489 10.1529 191.603 10.2102 191.702 10.2779C191.812 10.3508 191.911 10.4342 191.994 10.5279C192.072 10.6112 192.145 10.7206 192.202 10.8404C192.254 10.9654 192.286 11.1165 192.286 11.2779Z" fill="white"/>
<path d="M195.438 12.2153C195.438 12.2726 195.428 12.3299 195.417 12.382C195.417 12.4237 195.407 12.4601 195.397 12.4862C195.397 12.5018 195.381 12.5174 195.355 12.5278C195.339 12.5435 195.324 12.5487 195.313 12.5487H193.188C193.115 12.5487 193.053 12.5278 193.001 12.4862C192.959 12.4497 192.938 12.3768 192.938 12.2778V8.61117C192.938 8.51741 192.959 8.4445 193.001 8.40283C193.053 8.36637 193.115 8.34033 193.188 8.34033H195.292C195.319 8.34033 195.339 8.35075 195.355 8.36117C195.365 8.36117 195.376 8.37679 195.376 8.40283C195.386 8.43408 195.397 8.47054 195.397 8.507C195.407 8.54867 195.417 8.60596 195.417 8.67367C195.417 8.73096 195.407 8.78825 195.397 8.84033C195.397 8.882 195.386 8.91846 195.376 8.9445C195.376 8.96012 195.365 8.97575 195.355 8.98617C195.339 9.00179 195.319 9.007 195.292 9.007H193.792V10.0278H195.063C195.074 10.0278 195.089 10.0382 195.105 10.0487C195.131 10.0643 195.147 10.0851 195.147 10.1112C195.157 10.1424 195.167 10.1789 195.167 10.2153C195.178 10.257 195.188 10.3091 195.188 10.3612C195.188 10.4341 195.178 10.4914 195.167 10.5278C195.167 10.5695 195.157 10.606 195.147 10.632C195.147 10.6476 195.131 10.6632 195.105 10.6737C195.089 10.6893 195.074 10.6945 195.063 10.6945H193.792V11.882H195.313C195.324 11.882 195.339 11.8924 195.355 11.9028C195.381 11.9185 195.397 11.9393 195.397 11.9653C195.407 11.981 195.417 12.0122 195.417 12.0487C195.428 12.0903 195.438 12.1476 195.438 12.2153Z" fill="white"/>
<path d="M199.316 12.4445C199.316 12.4601 199.305 12.481 199.295 12.507C199.295 12.5226 199.269 12.5382 199.232 12.5487C199.201 12.5487 199.154 12.5487 199.087 12.5487C199.029 12.5591 198.946 12.5695 198.837 12.5695C198.753 12.5695 198.68 12.5591 198.628 12.5487C198.571 12.5487 198.519 12.5487 198.482 12.5487C198.451 12.5382 198.43 12.5226 198.42 12.507C198.404 12.481 198.399 12.4549 198.399 12.4237L198.024 11.4862C197.967 11.3768 197.915 11.2778 197.878 11.1945C197.837 11.1164 197.785 11.0435 197.732 10.9862C197.691 10.9341 197.634 10.8924 197.566 10.8612C197.493 10.8351 197.41 10.8195 197.316 10.8195H197.045V12.4237C197.045 12.4549 197.035 12.4757 197.024 12.4862C197.009 12.5018 196.977 12.5174 196.941 12.5278C196.91 12.5435 196.868 12.5487 196.816 12.5487C196.774 12.5591 196.706 12.5695 196.628 12.5695C196.545 12.5695 196.472 12.5591 196.42 12.5487C196.363 12.5487 196.311 12.5435 196.274 12.5278C196.243 12.5174 196.222 12.5018 196.212 12.4862C196.196 12.4757 196.191 12.4549 196.191 12.4237V8.61117C196.191 8.51741 196.212 8.4445 196.253 8.40283C196.305 8.36637 196.368 8.34033 196.441 8.34033H197.545C197.654 8.34033 197.743 8.34033 197.816 8.34033C197.884 8.34033 197.946 8.35075 198.003 8.36117C198.165 8.39241 198.321 8.43408 198.462 8.48617C198.597 8.54346 198.712 8.62158 198.795 8.71533C198.889 8.81429 198.967 8.92887 199.024 9.04867C199.076 9.17367 199.107 9.32471 199.107 9.48617C199.107 9.62679 199.081 9.76221 199.045 9.882C199.003 9.99658 198.946 10.1007 198.878 10.1945C198.805 10.2778 198.722 10.356 198.628 10.4237C198.529 10.4966 198.41 10.5539 198.274 10.5903C198.342 10.6216 198.404 10.658 198.462 10.6945C198.514 10.7362 198.566 10.7935 198.607 10.8612C198.66 10.9185 198.712 10.9914 198.753 11.0695C198.79 11.1528 198.837 11.2466 198.878 11.3403L199.232 12.1737C199.259 12.257 199.279 12.3247 199.295 12.3612C199.305 12.3924 199.316 12.4185 199.316 12.4445ZM198.212 9.5695C198.212 9.43408 198.175 9.3195 198.107 9.23617C198.05 9.14241 197.951 9.0695 197.816 9.02783C197.774 9.01741 197.722 9.007 197.67 9.007C197.613 8.99658 197.535 8.98617 197.441 8.98617H197.045V10.1945H197.482C197.602 10.1945 197.712 10.1841 197.795 10.1528C197.889 10.1164 197.967 10.0695 198.024 10.0278C198.092 9.97575 198.139 9.91325 198.17 9.84033C198.196 9.76221 198.212 9.66846 198.212 9.5695Z" fill="white"/>
<path d="M165.386 18.3269C165.386 18.3842 165.375 18.4415 165.365 18.4936C165.365 18.5352 165.355 18.5717 165.344 18.5977C165.344 18.6134 165.329 18.629 165.303 18.6394C165.287 18.655 165.271 18.6602 165.261 18.6602H163.136C163.063 18.6602 163 18.6394 162.948 18.5977C162.907 18.5613 162.886 18.4884 162.886 18.3894V14.7227C162.886 14.629 162.907 14.5561 162.948 14.5144C163 14.4779 163.063 14.4519 163.136 14.4519H165.24C165.266 14.4519 165.287 14.4623 165.303 14.4727C165.313 14.4727 165.323 14.4884 165.323 14.5144C165.334 14.5457 165.344 14.5821 165.344 14.6186C165.355 14.6602 165.365 14.7175 165.365 14.7852C165.365 14.8425 165.355 14.8998 165.344 14.9519C165.344 14.9936 165.334 15.03 165.323 15.0561C165.323 15.0717 165.313 15.0873 165.303 15.0977C165.287 15.1134 165.266 15.1186 165.24 15.1186H163.74V16.1394H165.011C165.021 16.1394 165.037 16.1498 165.053 16.1602C165.079 16.1759 165.094 16.1967 165.094 16.2227C165.105 16.254 165.115 16.2904 165.115 16.3269C165.125 16.3686 165.136 16.4207 165.136 16.4727C165.136 16.5457 165.125 16.6029 165.115 16.6394C165.115 16.6811 165.105 16.7175 165.094 16.7436C165.094 16.7592 165.079 16.7748 165.053 16.7852C165.037 16.8009 165.021 16.8061 165.011 16.8061H163.74V17.9936H165.261C165.271 17.9936 165.287 18.004 165.303 18.0144C165.329 18.03 165.344 18.0509 165.344 18.0769C165.355 18.0925 165.365 18.1238 165.365 18.1602C165.375 18.2019 165.386 18.2592 165.386 18.3269Z" fill="white"/>
<path d="M169.618 18.3685C169.618 18.4102 169.602 18.4571 169.576 18.4935C169.56 18.5352 169.539 18.5717 169.513 18.5977C169.482 18.6289 169.446 18.6498 169.409 18.6602C169.368 18.6602 169.321 18.6602 169.284 18.6602H168.93C168.847 18.6602 168.774 18.655 168.722 18.6394C168.664 18.6289 168.612 18.5977 168.576 18.556C168.534 18.5196 168.482 18.4623 168.43 18.3894C168.388 18.3217 168.336 18.2383 168.284 18.1394L167.243 16.1602C167.185 16.0508 167.123 15.9258 167.055 15.7852C166.998 15.6498 166.941 15.5144 166.888 15.3894C166.888 15.5456 166.888 15.7071 166.888 15.8685C166.899 16.0248 166.909 16.1758 166.909 16.3269V18.5352C166.909 18.5664 166.899 18.5873 166.888 18.5977C166.873 18.6133 166.852 18.6289 166.826 18.6394C166.795 18.655 166.753 18.6602 166.701 18.6602C166.659 18.6706 166.592 18.681 166.513 18.681C166.441 18.681 166.378 18.6706 166.326 18.6602C166.284 18.6602 166.248 18.655 166.222 18.6394C166.191 18.6289 166.17 18.6133 166.159 18.5977C166.144 18.5873 166.138 18.5664 166.138 18.5352V14.7435C166.138 14.6498 166.164 14.5769 166.222 14.5352C166.289 14.4831 166.368 14.4519 166.451 14.4519H166.909C166.987 14.4519 167.06 14.4623 167.118 14.4727C167.17 14.4883 167.222 14.5196 167.263 14.556C167.3 14.5873 167.347 14.6289 167.388 14.681C167.425 14.7383 167.472 14.8112 167.513 14.8894L168.326 16.431C168.378 16.53 168.43 16.6237 168.472 16.7019C168.524 16.7852 168.576 16.8789 168.618 16.9727C168.654 17.056 168.701 17.1498 168.743 17.2435C168.779 17.3269 168.826 17.4154 168.868 17.4935C168.852 17.3425 168.847 17.1914 168.847 17.0352C168.847 16.8737 168.847 16.7123 168.847 16.556V14.5769C168.847 14.5508 168.852 14.53 168.868 14.5144C168.878 14.5039 168.899 14.4883 168.93 14.4727C168.956 14.4623 168.993 14.4519 169.034 14.4519C169.086 14.4414 169.159 14.431 169.243 14.431C169.31 14.431 169.368 14.4414 169.409 14.4519C169.461 14.4519 169.503 14.4623 169.534 14.4727C169.56 14.4883 169.581 14.5039 169.597 14.5144C169.607 14.53 169.618 14.5508 169.618 14.5769V18.3685Z" fill="white"/>
<path d="M175.537 16.4936C175.537 16.8842 175.48 17.2175 175.37 17.4936C175.271 17.7592 175.126 17.9832 174.933 18.1602C174.751 18.3269 174.521 18.4571 174.245 18.5352C173.98 18.6186 173.667 18.6602 173.308 18.6602H172.287C172.214 18.6602 172.152 18.6394 172.099 18.5977C172.058 18.5613 172.037 18.4884 172.037 18.3894V14.7227C172.037 14.629 172.058 14.5561 172.099 14.5144C172.152 14.4779 172.214 14.4519 172.287 14.4519H173.37C173.74 14.4519 174.063 14.4988 174.329 14.5769C174.589 14.6602 174.813 14.7957 174.995 14.9727C175.172 15.1394 175.308 15.3582 175.391 15.6186C175.485 15.8686 175.537 16.1654 175.537 16.4936ZM174.662 16.5144C174.662 16.3217 174.631 16.1394 174.579 15.9727C174.537 15.7957 174.459 15.6394 174.349 15.5144C174.251 15.3946 174.115 15.2957 173.954 15.2227C173.797 15.155 173.589 15.1186 173.329 15.1186H172.891V17.9727H173.329C173.563 17.9727 173.756 17.9467 173.912 17.8894C174.073 17.8373 174.214 17.7436 174.329 17.6186C174.438 17.4988 174.521 17.3425 174.579 17.1602C174.631 16.9832 174.662 16.7644 174.662 16.5144Z" fill="white"/>
<path d="M178.736 18.3268C178.736 18.3841 178.726 18.4414 178.715 18.4935C178.715 18.5352 178.705 18.5716 178.694 18.5977C178.694 18.6133 178.679 18.6289 178.653 18.6393C178.637 18.6549 178.621 18.6602 178.611 18.6602H176.486C176.413 18.6602 176.351 18.6393 176.298 18.5977C176.257 18.5612 176.236 18.4883 176.236 18.3893V14.7227C176.236 14.6289 176.257 14.556 176.298 14.5143C176.351 14.4779 176.413 14.4518 176.486 14.4518H178.59C178.616 14.4518 178.637 14.4622 178.653 14.4727C178.663 14.4727 178.673 14.4883 178.673 14.5143C178.684 14.5456 178.694 14.582 178.694 14.6185C178.705 14.6602 178.715 14.7174 178.715 14.7852C178.715 14.8424 178.705 14.8997 178.694 14.9518C178.694 14.9935 178.684 15.0299 178.673 15.056C178.673 15.0716 178.663 15.0872 178.653 15.0977C178.637 15.1133 178.616 15.1185 178.59 15.1185H177.09V16.1393H178.361C178.371 16.1393 178.387 16.1497 178.403 16.1602C178.429 16.1758 178.444 16.1966 178.444 16.2227C178.455 16.2539 178.465 16.2904 178.465 16.3268C178.476 16.3685 178.486 16.4206 178.486 16.4727C178.486 16.5456 178.476 16.6029 178.465 16.6393C178.465 16.681 178.455 16.7174 178.444 16.7435C178.444 16.7591 178.429 16.7747 178.403 16.7852C178.387 16.8008 178.371 16.806 178.361 16.806H177.09V17.9935H178.611C178.621 17.9935 178.637 18.0039 178.653 18.0143C178.679 18.0299 178.694 18.0508 178.694 18.0768C178.705 18.0924 178.715 18.1237 178.715 18.1602C178.726 18.2018 178.736 18.2591 178.736 18.3268ZM178.069 13.306C178.095 13.2799 178.121 13.2591 178.153 13.2435C178.179 13.2174 178.215 13.2018 178.257 13.2018C178.293 13.1914 178.345 13.181 178.403 13.181C178.455 13.1706 178.517 13.1602 178.59 13.1602C178.7 13.1602 178.783 13.1706 178.84 13.181C178.892 13.1966 178.929 13.2174 178.944 13.2435C178.97 13.2591 178.976 13.2799 178.965 13.306C178.95 13.3372 178.929 13.3633 178.903 13.3893L178.173 14.0352C178.158 14.0508 178.137 14.0664 178.111 14.0768C178.08 14.0924 178.054 14.1081 178.028 14.1185C177.996 14.1341 177.955 14.1393 177.903 14.1393C177.861 14.1393 177.804 14.1393 177.736 14.1393C177.663 14.1393 177.601 14.1393 177.548 14.1393C177.507 14.1289 177.476 14.1133 177.465 14.0977C177.45 14.0872 177.444 14.0716 177.444 14.056C177.444 14.0299 177.455 14.0039 177.486 13.9727L178.069 13.306Z" fill="white"/>
<path d="M182.405 18.0144C182.405 18.0717 182.395 18.1238 182.384 18.1602C182.384 18.2019 182.374 18.2384 182.364 18.2644C182.364 18.2957 182.353 18.3165 182.343 18.3269C182.343 18.3425 182.327 18.3634 182.301 18.3894C182.27 18.4207 182.223 18.4571 182.155 18.4936C182.098 18.5352 182.015 18.5821 181.905 18.6186C181.806 18.6498 181.692 18.6654 181.572 18.6811C181.447 18.7071 181.311 18.7227 181.176 18.7227C180.884 18.7227 180.619 18.6759 180.384 18.5977C180.145 18.504 179.942 18.3686 179.78 18.2019C179.624 18.0248 179.499 17.8009 179.405 17.5352C179.322 17.2748 179.28 16.9675 179.28 16.6186C179.28 16.2592 179.327 15.9415 179.426 15.6602C179.52 15.3842 179.655 15.155 179.822 14.9727C179.999 14.78 180.207 14.6342 180.447 14.5352C180.681 14.4415 180.947 14.3894 181.239 14.3894C181.358 14.3894 181.473 14.3998 181.572 14.4102C181.681 14.4259 181.78 14.4571 181.864 14.4936C181.957 14.5248 182.041 14.5613 182.114 14.5977C182.192 14.6394 182.249 14.6759 182.28 14.7019C182.306 14.7332 182.327 14.7592 182.343 14.7852C182.353 14.8009 182.364 14.8217 182.364 14.8477C182.374 14.879 182.384 14.9154 182.384 14.9519C182.384 14.9936 182.384 15.0509 182.384 15.1186C182.384 15.1759 182.384 15.2332 182.384 15.2852C182.384 15.3269 182.374 15.3634 182.364 15.3894C182.348 15.4207 182.332 15.4415 182.322 15.4519C182.306 15.4675 182.285 15.4727 182.259 15.4727C182.228 15.4727 182.186 15.4519 182.134 15.4102C182.093 15.3738 182.025 15.3269 181.947 15.2852C181.874 15.2488 181.785 15.2019 181.676 15.1602C181.561 15.1238 181.431 15.0977 181.28 15.0977C181.114 15.0977 180.957 15.1342 180.822 15.2019C180.697 15.2748 180.582 15.3738 180.489 15.4936C180.405 15.6186 180.332 15.7748 180.28 15.9519C180.239 16.1342 180.218 16.3373 180.218 16.5561C180.218 16.8061 180.239 17.0248 180.28 17.2019C180.332 17.3842 180.41 17.5404 180.509 17.6602C180.603 17.7748 180.718 17.8582 180.843 17.9102C180.978 17.9675 181.134 17.9936 181.301 17.9936C181.452 17.9936 181.582 17.9832 181.697 17.9519C181.806 17.9154 181.895 17.8686 181.968 17.8269C182.046 17.7904 182.119 17.754 182.176 17.7227C182.228 17.6863 182.27 17.6602 182.301 17.6602C182.311 17.6602 182.327 17.6707 182.343 17.6811C182.353 17.6811 182.364 17.6967 182.364 17.7227C182.374 17.754 182.384 17.7957 182.384 17.8477C182.395 17.8894 182.405 17.9467 182.405 18.0144Z" fill="white"/>
<path d="M186.306 18.5352C186.306 18.5664 186.296 18.5873 186.285 18.5977C186.27 18.6133 186.238 18.6289 186.202 18.6394C186.171 18.655 186.129 18.6602 186.077 18.6602C186.02 18.6706 185.947 18.681 185.869 18.681C185.785 18.681 185.712 18.6706 185.66 18.6602C185.603 18.6602 185.561 18.655 185.535 18.6394C185.504 18.6289 185.483 18.6133 185.473 18.5977C185.457 18.5873 185.452 18.5664 185.452 18.5352V16.8477H183.869V18.5352C183.869 18.5664 183.858 18.5873 183.848 18.5977C183.832 18.6133 183.811 18.6289 183.785 18.6394C183.754 18.655 183.712 18.6602 183.66 18.6602C183.603 18.6706 183.53 18.681 183.452 18.681C183.369 18.681 183.296 18.6706 183.244 18.6602C183.186 18.6602 183.134 18.655 183.098 18.6394C183.066 18.6289 183.046 18.6133 183.035 18.5977C183.02 18.5873 183.014 18.5664 183.014 18.5352V14.556C183.014 14.5456 183.02 14.53 183.035 14.5144C183.046 14.4883 183.066 14.4727 183.098 14.4727C183.134 14.4623 183.186 14.4519 183.244 14.4519C183.296 14.4414 183.369 14.431 183.452 14.431C183.53 14.431 183.603 14.4414 183.66 14.4519C183.712 14.4519 183.754 14.4623 183.785 14.4727C183.811 14.4727 183.832 14.4883 183.848 14.5144C183.858 14.53 183.869 14.5456 183.869 14.556V16.1185H185.452V14.556C185.452 14.5456 185.457 14.53 185.473 14.5144C185.483 14.4883 185.504 14.4727 185.535 14.4727C185.561 14.4623 185.603 14.4519 185.66 14.4519C185.712 14.4414 185.785 14.431 185.869 14.431C185.947 14.431 186.02 14.4414 186.077 14.4519C186.129 14.4519 186.171 14.4623 186.202 14.4727C186.238 14.4727 186.27 14.4883 186.285 14.5144C186.296 14.53 186.306 14.5456 186.306 14.556V18.5352Z" fill="white"/>
<path d="M189.72 18.3268C189.72 18.3841 189.71 18.4414 189.699 18.4935C189.699 18.5352 189.689 18.5716 189.678 18.5977C189.678 18.6133 189.663 18.6289 189.637 18.6393C189.621 18.6549 189.605 18.6602 189.595 18.6602H187.47C187.397 18.6602 187.335 18.6393 187.283 18.5977C187.241 18.5612 187.22 18.4883 187.22 18.3893V14.7227C187.22 14.6289 187.241 14.556 187.283 14.5143C187.335 14.4779 187.397 14.4518 187.47 14.4518H189.574C189.6 14.4518 189.621 14.4622 189.637 14.4727C189.647 14.4727 189.658 14.4883 189.658 14.5143C189.668 14.5456 189.678 14.582 189.678 14.6185C189.689 14.6602 189.699 14.7174 189.699 14.7852C189.699 14.8424 189.689 14.8997 189.678 14.9518C189.678 14.9935 189.668 15.0299 189.658 15.056C189.658 15.0716 189.647 15.0872 189.637 15.0977C189.621 15.1133 189.6 15.1185 189.574 15.1185H188.074V16.1393H189.345C189.355 16.1393 189.371 16.1497 189.387 16.1602C189.413 16.1758 189.428 16.1966 189.428 16.2227C189.439 16.2539 189.449 16.2904 189.449 16.3268C189.46 16.3685 189.47 16.4206 189.47 16.4727C189.47 16.5456 189.46 16.6029 189.449 16.6393C189.449 16.681 189.439 16.7174 189.428 16.7435C189.428 16.7591 189.413 16.7747 189.387 16.7852C189.371 16.8008 189.355 16.806 189.345 16.806H188.074V17.9935H189.595C189.605 17.9935 189.621 18.0039 189.637 18.0143C189.663 18.0299 189.678 18.0508 189.678 18.0768C189.689 18.0924 189.699 18.1237 189.699 18.1602C189.71 18.2018 189.72 18.2591 189.72 18.3268ZM188.574 13.9727C188.585 14.0039 188.595 14.0299 188.595 14.056C188.605 14.0716 188.6 14.0872 188.574 14.0977C188.559 14.1133 188.527 14.1289 188.491 14.1393C188.449 14.1393 188.392 14.1393 188.324 14.1393C188.251 14.1393 188.189 14.1393 188.137 14.1393C188.095 14.1393 188.059 14.1341 188.033 14.1185C188.001 14.1081 187.975 14.0924 187.949 14.0768C187.918 14.0664 187.897 14.0508 187.887 14.0352L187.158 13.3893C187.126 13.3633 187.105 13.3372 187.095 13.306C187.079 13.2799 187.079 13.2591 187.095 13.2435C187.121 13.2174 187.163 13.1966 187.22 13.181C187.272 13.1706 187.355 13.1602 187.47 13.1602C187.538 13.1602 187.6 13.1706 187.658 13.181C187.71 13.181 187.762 13.1914 187.803 13.2018C187.84 13.2018 187.876 13.2174 187.908 13.2435C187.934 13.2591 187.96 13.2799 187.991 13.306L188.574 13.9727Z" fill="white"/>
<path d="M193.285 14.8061C193.285 14.8634 193.275 14.9207 193.264 14.9727C193.264 15.0144 193.254 15.0509 193.243 15.0769C193.228 15.1082 193.212 15.129 193.202 15.1394C193.186 15.1394 193.165 15.1394 193.139 15.1394H192.098V18.5352C192.098 18.5665 192.087 18.5873 192.077 18.5977C192.061 18.6134 192.03 18.629 191.993 18.6394C191.962 18.655 191.92 18.6602 191.868 18.6602C191.811 18.6707 191.738 18.6811 191.66 18.6811C191.577 18.6811 191.504 18.6707 191.452 18.6602C191.394 18.6602 191.353 18.655 191.327 18.6394C191.295 18.629 191.275 18.6134 191.264 18.5977C191.249 18.5873 191.243 18.5665 191.243 18.5352V15.1394H190.181C190.15 15.1394 190.129 15.1394 190.118 15.1394C190.103 15.129 190.087 15.1082 190.077 15.0769C190.077 15.0509 190.066 15.0144 190.056 14.9727C190.056 14.9207 190.056 14.8634 190.056 14.8061C190.056 14.7384 190.056 14.6811 190.056 14.6394C190.066 14.5873 190.077 14.5509 190.077 14.5352C190.087 14.5092 190.103 14.4884 190.118 14.4727C190.129 14.4623 190.15 14.4519 190.181 14.4519H193.139C193.165 14.4519 193.186 14.4623 193.202 14.4727C193.212 14.4884 193.228 14.5092 193.243 14.5352C193.254 14.5509 193.264 14.5873 193.264 14.6394C193.275 14.6811 193.285 14.7384 193.285 14.8061Z" fill="white"/>
<path d="M196.272 18.3269C196.272 18.3842 196.261 18.4415 196.251 18.4936C196.251 18.5352 196.241 18.5717 196.23 18.5977C196.23 18.6134 196.214 18.629 196.188 18.6394C196.173 18.655 196.157 18.6602 196.147 18.6602H194.022C193.949 18.6602 193.886 18.6394 193.834 18.5977C193.793 18.5613 193.772 18.4884 193.772 18.3894V14.7227C193.772 14.629 193.793 14.5561 193.834 14.5144C193.886 14.4779 193.949 14.4519 194.022 14.4519H196.126C196.152 14.4519 196.173 14.4623 196.188 14.4727C196.199 14.4727 196.209 14.4884 196.209 14.5144C196.22 14.5457 196.23 14.5821 196.23 14.6186C196.241 14.6602 196.251 14.7175 196.251 14.7852C196.251 14.8425 196.241 14.8998 196.23 14.9519C196.23 14.9936 196.22 15.03 196.209 15.0561C196.209 15.0717 196.199 15.0873 196.188 15.0977C196.173 15.1134 196.152 15.1186 196.126 15.1186H194.626V16.1394H195.897C195.907 16.1394 195.923 16.1498 195.938 16.1602C195.964 16.1759 195.98 16.1967 195.98 16.2227C195.991 16.254 196.001 16.2904 196.001 16.3269C196.011 16.3686 196.022 16.4207 196.022 16.4727C196.022 16.5457 196.011 16.6029 196.001 16.6394C196.001 16.6811 195.991 16.7175 195.98 16.7436C195.98 16.7592 195.964 16.7748 195.938 16.7852C195.923 16.8009 195.907 16.8061 195.897 16.8061H194.626V17.9936H196.147C196.157 17.9936 196.173 18.004 196.188 18.0144C196.214 18.03 196.23 18.0509 196.23 18.0769C196.241 18.0925 196.251 18.1238 196.251 18.1602C196.261 18.2019 196.272 18.2592 196.272 18.3269Z" fill="white"/>
<path d="M200.149 18.5561C200.149 18.5717 200.139 18.5925 200.129 18.6186C200.129 18.6342 200.102 18.6498 200.066 18.6602C200.035 18.6602 199.988 18.6602 199.92 18.6602C199.863 18.6707 199.78 18.6811 199.67 18.6811C199.587 18.6811 199.514 18.6707 199.462 18.6602C199.405 18.6602 199.352 18.6602 199.316 18.6602C199.285 18.6498 199.264 18.6342 199.254 18.6186C199.238 18.5925 199.233 18.5665 199.233 18.5352L198.858 17.5977C198.8 17.4884 198.748 17.3894 198.712 17.3061C198.67 17.2279 198.618 17.155 198.566 17.0977C198.524 17.0457 198.467 17.004 198.399 16.9727C198.326 16.9467 198.243 16.9311 198.149 16.9311H197.879V18.5352C197.879 18.5665 197.868 18.5873 197.858 18.5977C197.842 18.6134 197.811 18.629 197.774 18.6394C197.743 18.655 197.701 18.6602 197.649 18.6602C197.608 18.6707 197.54 18.6811 197.462 18.6811C197.379 18.6811 197.306 18.6707 197.254 18.6602C197.196 18.6602 197.144 18.655 197.108 18.6394C197.076 18.629 197.056 18.6134 197.045 18.5977C197.03 18.5873 197.024 18.5665 197.024 18.5352V14.7227C197.024 14.629 197.045 14.5561 197.087 14.5144C197.139 14.4779 197.201 14.4519 197.274 14.4519H198.379C198.488 14.4519 198.576 14.4519 198.649 14.4519C198.717 14.4519 198.78 14.4623 198.837 14.4727C198.998 14.504 199.155 14.5457 199.295 14.5977C199.431 14.655 199.545 14.7332 199.629 14.8269C199.722 14.9259 199.8 15.0404 199.858 15.1602C199.91 15.2852 199.941 15.4363 199.941 15.5977C199.941 15.7384 199.915 15.8738 199.879 15.9936C199.837 16.1082 199.78 16.2123 199.712 16.3061C199.639 16.3894 199.556 16.4675 199.462 16.5352C199.363 16.6082 199.243 16.6654 199.108 16.7019C199.175 16.7332 199.238 16.7696 199.295 16.8061C199.347 16.8477 199.399 16.905 199.441 16.9727C199.493 17.03 199.545 17.1029 199.587 17.1811C199.623 17.2644 199.67 17.3582 199.712 17.4519L200.066 18.2852C200.092 18.3686 200.113 18.4363 200.129 18.4727C200.139 18.504 200.149 18.53 200.149 18.5561ZM199.045 15.6811C199.045 15.5457 199.009 15.4311 198.941 15.3477C198.884 15.254 198.785 15.1811 198.649 15.1394C198.608 15.129 198.556 15.1186 198.504 15.1186C198.446 15.1082 198.368 15.0977 198.274 15.0977H197.879V16.3061H198.316C198.436 16.3061 198.545 16.2957 198.629 16.2644C198.722 16.2279 198.8 16.1811 198.858 16.1394C198.925 16.0873 198.972 16.0248 199.004 15.9519C199.03 15.8738 199.045 15.78 199.045 15.6811Z" fill="white"/>
<path d="M201.631 18.5352C201.631 18.5664 201.62 18.5873 201.61 18.5977C201.594 18.6133 201.574 18.6289 201.548 18.6394C201.516 18.655 201.475 18.6602 201.423 18.6602C201.365 18.6706 201.292 18.681 201.214 18.681C201.131 18.681 201.058 18.6706 201.006 18.6602C200.949 18.6602 200.897 18.655 200.86 18.6394C200.829 18.6289 200.808 18.6133 200.798 18.5977C200.782 18.5873 200.777 18.5664 200.777 18.5352V14.556C200.777 14.5456 200.782 14.53 200.798 14.5144C200.808 14.4883 200.829 14.4727 200.86 14.4727C200.897 14.4623 200.949 14.4519 201.006 14.4519C201.058 14.4414 201.131 14.431 201.214 14.431C201.292 14.431 201.365 14.4414 201.423 14.4519C201.475 14.4519 201.516 14.4623 201.548 14.4727C201.574 14.4727 201.594 14.4883 201.61 14.5144C201.62 14.53 201.631 14.5456 201.631 14.556V18.5352Z" fill="white"/>
<path d="M205.056 18.3269C205.056 18.3842 205.046 18.4415 205.036 18.4936C205.036 18.5352 205.025 18.5717 205.015 18.5977C205.015 18.6134 204.999 18.629 204.973 18.6394C204.957 18.655 204.942 18.6602 204.931 18.6602H202.806C202.733 18.6602 202.671 18.6394 202.619 18.5977C202.577 18.5613 202.556 18.4884 202.556 18.3894V14.7227C202.556 14.629 202.577 14.5561 202.619 14.5144C202.671 14.4779 202.733 14.4519 202.806 14.4519H204.911C204.937 14.4519 204.957 14.4623 204.973 14.4727C204.983 14.4727 204.994 14.4884 204.994 14.5144C205.004 14.5457 205.015 14.5821 205.015 14.6186C205.025 14.6602 205.036 14.7175 205.036 14.7852C205.036 14.8425 205.025 14.8998 205.015 14.9519C205.015 14.9936 205.004 15.03 204.994 15.0561C204.994 15.0717 204.983 15.0873 204.973 15.0977C204.957 15.1134 204.937 15.1186 204.911 15.1186H203.411V16.1394H204.681C204.692 16.1394 204.707 16.1498 204.723 16.1602C204.749 16.1759 204.765 16.1967 204.765 16.2227C204.775 16.254 204.786 16.2904 204.786 16.3269C204.796 16.3686 204.806 16.4207 204.806 16.4727C204.806 16.5457 204.796 16.6029 204.786 16.6394C204.786 16.6811 204.775 16.7175 204.765 16.7436C204.765 16.7592 204.749 16.7748 204.723 16.7852C204.707 16.8009 204.692 16.8061 204.681 16.8061H203.411V17.9936H204.931C204.942 17.9936 204.957 18.004 204.973 18.0144C204.999 18.03 205.015 18.0509 205.015 18.0769C205.025 18.0925 205.036 18.1238 205.036 18.1602C205.046 18.2019 205.056 18.2592 205.056 18.3269Z" fill="white"/>
<path d="M161.325 34.6695C161.325 35.0185 161.273 35.331 161.18 35.607C161.096 35.8726 160.966 36.1018 160.805 36.2945C160.638 36.4924 160.419 36.6435 160.159 36.7528C159.909 36.8466 159.612 36.8987 159.284 36.8987C158.961 36.8987 158.674 36.8518 158.43 36.7737C158.19 36.6799 157.987 36.5445 157.825 36.3778C157.659 36.2008 157.529 35.9768 157.45 35.7112C157.378 35.4351 157.346 35.107 157.346 34.732C157.346 34.4039 157.388 34.0966 157.471 33.8153C157.549 33.5393 157.68 33.3101 157.846 33.1278C158.023 32.9351 158.242 32.7893 158.492 32.6903C158.737 32.581 159.034 32.5237 159.367 32.5237C159.685 32.5237 159.961 32.5706 160.2 32.6487C160.445 32.732 160.659 32.8674 160.825 33.0445C160.987 33.2268 161.117 33.4508 161.2 33.7112C161.279 33.9768 161.325 34.2997 161.325 34.6695ZM160.43 34.7112C160.43 34.4924 160.404 34.2893 160.367 34.107C160.336 33.9299 160.279 33.7737 160.2 33.6487C160.117 33.5133 160.003 33.4091 159.867 33.3362C159.726 33.2685 159.549 33.232 159.346 33.232C159.138 33.232 158.956 33.2789 158.805 33.357C158.664 33.4299 158.549 33.5341 158.471 33.6695C158.388 33.7945 158.32 33.9508 158.284 34.1278C158.253 34.3101 158.242 34.4976 158.242 34.6903C158.242 34.9299 158.253 35.1383 158.284 35.3153C158.32 35.4976 158.388 35.6591 158.471 35.7945C158.549 35.9195 158.664 36.0185 158.805 36.0862C158.94 36.1591 159.117 36.1903 159.325 36.1903C159.529 36.1903 159.706 36.1487 159.846 36.0653C159.982 35.9872 160.096 35.8778 160.18 35.7528C160.273 35.6174 160.336 35.456 160.367 35.2737C160.404 35.0966 160.43 34.9091 160.43 34.7112Z" fill="white"/>
<path d="M165.477 35.2528C165.477 35.5028 165.43 35.7372 165.352 35.9403C165.279 36.1487 165.17 36.3258 165.018 36.4612C164.878 36.6018 164.696 36.7164 164.477 36.7945C164.268 36.8622 164.013 36.8987 163.727 36.8987C163.461 36.8987 163.222 36.8622 163.018 36.7945C162.81 36.7268 162.628 36.6278 162.477 36.5028C162.336 36.3674 162.222 36.2008 162.143 36.0028C162.071 35.7997 162.039 35.5549 162.039 35.2737V32.7112C162.039 32.7008 162.045 32.6851 162.06 32.6695C162.071 32.6435 162.091 32.6278 162.123 32.6278C162.159 32.6174 162.206 32.607 162.248 32.607C162.3 32.5966 162.378 32.5862 162.477 32.5862C162.545 32.5862 162.607 32.5966 162.664 32.607C162.716 32.607 162.758 32.6174 162.789 32.6278C162.826 32.6278 162.857 32.6435 162.873 32.6695C162.883 32.6851 162.893 32.7008 162.893 32.7112V35.2112C162.893 35.3778 162.914 35.5289 162.956 35.6487C162.992 35.7633 163.05 35.8622 163.123 35.9403C163.201 36.0237 163.295 36.0914 163.393 36.1278C163.503 36.1695 163.628 36.1903 163.768 36.1903C163.904 36.1903 164.024 36.1695 164.123 36.1278C164.232 36.0914 164.321 36.0237 164.393 35.9403C164.472 35.8622 164.529 35.7633 164.56 35.6487C164.597 35.5393 164.623 35.4091 164.623 35.2528V32.7112C164.623 32.7008 164.628 32.6851 164.643 32.6695C164.654 32.6435 164.675 32.6278 164.706 32.6278C164.742 32.6174 164.795 32.607 164.852 32.607C164.904 32.5966 164.977 32.5862 165.06 32.5862C165.138 32.5862 165.206 32.5966 165.248 32.607C165.3 32.607 165.341 32.6174 165.373 32.6278C165.409 32.6278 165.44 32.6435 165.456 32.6695C165.466 32.6851 165.477 32.7008 165.477 32.7112V35.2528Z" fill="white"/>
<path d="M69.5677 5.33329C69.5677 8.27079 65.5573 10.6562 60.6042 10.6562C55.6563 10.6562 51.6406 8.27079 51.6406 5.33329C51.6406 2.39058 55.6563 0.010376 60.6042 0.010376C65.5573 0.010376 69.5677 2.39058 69.5677 5.33329Z" fill="#32AB52"/>
<path d="M59.9891 2.87817C59.9891 2.96151 59.9787 3.03963 59.9682 3.10734C59.9682 3.16463 59.9526 3.21672 59.9266 3.25317C59.9109 3.28442 59.8901 3.31047 59.8641 3.33651C59.8484 3.35213 59.8276 3.35734 59.8016 3.35734H57.8849V4.94067H59.6766C59.7026 4.94067 59.7234 4.95109 59.7391 4.96151C59.7651 4.97713 59.7859 5.00838 59.8016 5.04484C59.8276 5.08651 59.8432 5.13859 59.8432 5.19067C59.8537 5.24797 59.8641 5.32609 59.8641 5.41984C59.8641 5.50317 59.8537 5.5813 59.8432 5.64901C59.8432 5.7063 59.8276 5.75838 59.8016 5.79484C59.7859 5.83651 59.7651 5.86776 59.7391 5.87817C59.7234 5.8938 59.7026 5.89901 59.6766 5.89901H57.8849V8.10734C57.8849 8.13859 57.8693 8.16463 57.8432 8.19067C57.8276 8.22192 57.7912 8.24276 57.7391 8.25317C57.6974 8.2688 57.6297 8.27401 57.5516 8.27401C57.4787 8.28442 57.3901 8.29484 57.2807 8.29484C57.1557 8.29484 57.0464 8.28442 56.9682 8.27401C56.8953 8.27401 56.838 8.2688 56.8016 8.25317C56.7599 8.24276 56.7234 8.22192 56.6974 8.19067C56.6818 8.16463 56.6766 8.13859 56.6766 8.10734V2.75317C56.6766 2.61776 56.7078 2.5188 56.7807 2.46151C56.8484 2.40942 56.9318 2.37817 57.0307 2.37817H59.8016C59.8276 2.37817 59.8484 2.38859 59.8641 2.39901C59.8901 2.41463 59.9109 2.44588 59.9266 2.48234C59.9526 2.52401 59.9682 2.5813 59.9682 2.64901C59.9787 2.7063 59.9891 2.78442 59.9891 2.87817Z" fill="white"/>
<path d="M65.0975 8.12817C65.0975 8.15942 65.0871 8.18547 65.0766 8.21151C65.061 8.22713 65.0298 8.24276 64.9933 8.25317C64.9516 8.2688 64.8787 8.27401 64.785 8.27401C64.7016 8.28442 64.5818 8.29484 64.4308 8.29484C64.3058 8.29484 64.1964 8.28442 64.1183 8.27401C64.0454 8.27401 63.9829 8.2688 63.9308 8.25317C63.8891 8.24276 63.8579 8.22192 63.8475 8.19067C63.8318 8.16463 63.8162 8.13859 63.8058 8.10734L63.285 6.77401C63.2121 6.63859 63.1443 6.51359 63.0766 6.39901C63.0193 6.27922 62.9568 6.18026 62.8891 6.10734C62.8162 6.02922 62.7329 5.96151 62.6391 5.91984C62.5402 5.88338 62.4204 5.85734 62.285 5.85734H61.91V8.10734C61.91 8.13859 61.8996 8.16463 61.8891 8.19067C61.8735 8.22192 61.8371 8.24276 61.785 8.25317C61.7433 8.2688 61.6756 8.27401 61.5975 8.27401C61.5246 8.28442 61.436 8.29484 61.3266 8.29484C61.2016 8.29484 61.0923 8.28442 61.0141 8.27401C60.9412 8.27401 60.8787 8.2688 60.8266 8.25317C60.785 8.24276 60.7537 8.22192 60.7433 8.19067C60.7277 8.16463 60.7225 8.13859 60.7225 8.10734V2.75317C60.7225 2.61776 60.7537 2.5188 60.8266 2.46151C60.8943 2.40942 60.9777 2.37817 61.0766 2.37817H62.5975C62.7485 2.37817 62.8735 2.38859 62.9725 2.39901C63.0818 2.39901 63.1808 2.39901 63.2641 2.39901C63.4985 2.44067 63.7068 2.50838 63.8891 2.58651C64.0818 2.66984 64.2433 2.78442 64.3683 2.91984C64.5037 3.04484 64.6079 3.20109 64.6808 3.37817C64.7485 3.56047 64.785 3.7688 64.785 4.00317C64.785 4.20109 64.7537 4.38338 64.7016 4.54484C64.66 4.70109 64.5871 4.84692 64.4933 4.98234C64.3943 5.10734 64.2693 5.22192 64.1183 5.31567C63.9777 5.39901 63.8162 5.47192 63.6391 5.52401C63.7329 5.56567 63.8162 5.62297 63.8891 5.69067C63.9673 5.74797 64.0454 5.82609 64.1183 5.91984C64.186 6.00317 64.2485 6.10213 64.3058 6.21151C64.3579 6.32609 64.4204 6.45109 64.4933 6.58651L64.9725 7.73234C65.0246 7.85734 65.061 7.95109 65.0766 8.00317C65.0871 8.04484 65.0975 8.09172 65.0975 8.12817ZM63.5558 4.10734C63.5558 3.91463 63.5037 3.75317 63.41 3.62817C63.3266 3.49276 63.186 3.3938 62.9933 3.33651C62.9204 3.32609 62.8423 3.31567 62.7641 3.31567C62.6912 3.30526 62.5871 3.29484 62.4516 3.29484H61.91V4.96151H62.535C62.6964 4.96151 62.8475 4.94067 62.9725 4.89901C63.0923 4.86255 63.2016 4.80526 63.285 4.73234C63.3787 4.66463 63.4516 4.5813 63.4933 4.48234C63.5298 4.37297 63.5558 4.24797 63.5558 4.10734Z" fill="white"/>
<path d="M22.677 20.026C20.9895 22.5104 22.4218 25.776 24.1666 27.4323C25.75 28.9427 27.026 29.2968 27.1927 29.3385L28.0052 27.7864L30.3437 34.177L23.7343 35.5208L24.6093 33.8958L23.7135 33.3906C20.9323 31.5833 20.3437 29.1145 20.151 28.3489C19.8229 27.026 19.3281 23.0625 22.677 20.026Z" fill="#32AB52"/>
<path d="M22.6458 20.1354C23.8489 22.8854 27.375 23.4167 29.7031 22.8281C31.7708 22.3021 32.75 21.4479 32.9166 21.2969L32.9062 21.276L32.026 19.75L38.6771 21.2031L36.2656 27.5L35.375 25.9167L34.5052 26.3854C31.4896 27.776 29.0885 26.9583 28.3385 26.7083C27.0416 26.2812 23.4271 24.5885 22.6458 20.1354Z" fill="#32AB52"/>
<path d="M34.401 13.4948C33.9427 16.7813 31.9583 18.3594 31.3437 18.8594C30.2812 19.7188 26.9062 21.8438 22.7396 20.099C25.7031 20.5729 28.0521 17.8958 28.8125 15.6146C29.4948 13.5677 29.2969 12.276 29.2604 12.0729H29.2344L27.4687 11.9948L32.2708 7.17188L36.2864 12.5938L34.4791 12.4844" fill="#32AB52"/>
<path fill-rule="evenodd" clip-rule="evenodd" d="M14.2344 10.7187C12.7135 10.7187 11.4844 9.4895 11.4844 7.97388C11.4844 6.45304 12.7135 5.22388 14.2344 5.22388C15.75 5.22388 16.9792 6.45304 16.9792 7.97388C16.9792 9.4895 15.75 10.7187 14.2344 10.7187Z" fill="#32AB52"/>
<path d="M9.97917 24.0677C10.2135 23.4271 10.5677 23.4635 10.5677 23.4635C10.5677 23.4635 10.8802 23.3958 11.0521 24.0469L13.6198 33.0573C11.4844 32.4375 9.52604 31.3698 7.86979 29.9688L9.97917 24.0677ZM17.9896 0C8.07292 0 0 8.06771 0 17.9896C0 27.901 8.07292 35.974 17.9896 35.974C18.5208 35.974 19.0417 35.9375 19.5573 35.8906L19.6771 37.6979L22.9688 34.5156L19.2865 31.7083L19.4271 33.6042C18.9479 33.651 18.474 33.6771 17.9896 33.6771C17.224 33.6771 16.4792 33.6198 15.7448 33.5156L15.6719 33.0365L13.9583 18.4792C13.7292 15.7292 15.2969 15.2917 16.2656 15.7031L21.7188 17.8906C22.349 18.1615 22.6458 17.6406 22.6458 17.6406C22.6458 17.6406 23 17.0938 22.3698 16.6875C22.3698 16.6875 14.9323 11.7604 13.349 11.4635C11.1875 11.0625 9.04688 12.8125 8.57292 15.0938L5.93229 28.0208C3.66146 25.3021 2.29687 21.8021 2.29687 17.9896C2.29687 9.33333 9.33333 2.29167 17.9896 2.29167C22.6094 2.29167 26.7708 4.30208 29.6458 7.49479L31.2552 5.85938C27.9635 2.26042 23.2344 0 17.9896 0Z" fill="#32AB52"/>
<path d="M54.7188 27V21.2891H55.9297V26H58.2461V27H54.7188ZM60.9492 22.5508C61.3529 22.5508 61.7005 22.6289 61.9922 22.7852C62.2839 22.9388 62.5091 23.1628 62.668 23.457C62.8268 23.7513 62.9062 24.1107 62.9062 24.5352V25.1133H60.0898C60.1029 25.4492 60.2031 25.7135 60.3906 25.9062C60.5807 26.0964 60.8438 26.1914 61.1797 26.1914C61.4583 26.1914 61.7135 26.1628 61.9453 26.1055C62.1771 26.0482 62.4154 25.9622 62.6602 25.8477V26.7695C62.444 26.8763 62.2174 26.9544 61.9805 27.0039C61.7461 27.0534 61.4609 27.0781 61.125 27.0781C60.6875 27.0781 60.2995 26.9974 59.9609 26.8359C59.625 26.6745 59.3607 26.4284 59.168 26.0977C58.9779 25.7669 58.8828 25.3503 58.8828 24.8477C58.8828 24.3372 58.9688 23.9128 59.1406 23.5742C59.3151 23.2331 59.5573 22.9779 59.8672 22.8086C60.1771 22.6367 60.5378 22.5508 60.9492 22.5508ZM60.957 23.3984C60.7253 23.3984 60.5326 23.4727 60.3789 23.6211C60.2279 23.7695 60.1406 24.0026 60.1172 24.3203H61.7891C61.7865 24.1432 61.7539 23.9857 61.6914 23.8477C61.6315 23.7096 61.5404 23.6003 61.418 23.5195C61.2982 23.4388 61.1445 23.3984 60.957 23.3984ZM66.9219 25.7031C66.9219 26 66.8516 26.2513 66.7109 26.457C66.5729 26.6602 66.3659 26.8151 66.0898 26.9219C65.8138 27.026 65.4701 27.0781 65.0586 27.0781C64.7539 27.0781 64.4922 27.0586 64.2734 27.0195C64.0573 26.9805 63.8385 26.9154 63.6172 26.8242V25.8398C63.8542 25.9466 64.1081 26.0352 64.3789 26.1055C64.6523 26.1732 64.8919 26.207 65.0977 26.207C65.3294 26.207 65.4948 26.1732 65.5938 26.1055C65.6953 26.0352 65.7461 25.944 65.7461 25.832C65.7461 25.7591 65.7253 25.694 65.6836 25.6367C65.6445 25.5768 65.5586 25.5104 65.4258 25.4375C65.293 25.362 65.0846 25.2643 64.8008 25.1445C64.5273 25.0299 64.3021 24.9141 64.125 24.7969C63.9505 24.6797 63.8203 24.5417 63.7344 24.3828C63.651 24.2214 63.6094 24.0169 63.6094 23.7695C63.6094 23.3659 63.7656 23.0625 64.0781 22.8594C64.3932 22.6536 64.8138 22.5508 65.3398 22.5508C65.6107 22.5508 65.8685 22.5781 66.1133 22.6328C66.3607 22.6875 66.6146 22.7747 66.875 22.8945L66.5156 23.7539C66.2995 23.6602 66.0951 23.5833 65.9023 23.5234C65.7122 23.4635 65.5182 23.4336 65.3203 23.4336C65.1458 23.4336 65.0143 23.457 64.9258 23.5039C64.8372 23.5508 64.793 23.6224 64.793 23.7188C64.793 23.7891 64.8151 23.8516 64.8594 23.9062C64.9062 23.9609 64.9948 24.0221 65.125 24.0898C65.2578 24.1549 65.4518 24.2396 65.707 24.3438C65.9544 24.4453 66.1693 24.5521 66.3516 24.6641C66.5339 24.7734 66.6745 24.9102 66.7734 25.0742C66.8724 25.2357 66.9219 25.4453 66.9219 25.7031ZM72.3594 22.5508C72.8516 22.5508 73.2487 22.7422 73.5508 23.125C73.8555 23.5078 74.0078 24.069 74.0078 24.8086C74.0078 25.3034 73.9362 25.7201 73.793 26.0586C73.6497 26.3945 73.4518 26.6484 73.1992 26.8203C72.9466 26.9922 72.6562 27.0781 72.3281 27.0781C72.1172 27.0781 71.9362 27.0521 71.7852 27C71.6341 26.9453 71.5052 26.8763 71.3984 26.793C71.2917 26.707 71.1992 26.6159 71.1211 26.5195H71.0586C71.0794 26.6237 71.0951 26.7305 71.1055 26.8398C71.1159 26.9492 71.1211 27.056 71.1211 27.1602V28.9219H69.9297V22.6328H70.8984L71.0664 23.1992H71.1211C71.1992 23.082 71.2943 22.974 71.4062 22.875C71.5182 22.776 71.6523 22.6979 71.8086 22.6406C71.9674 22.5807 72.151 22.5508 72.3594 22.5508ZM71.9766 23.5039C71.7682 23.5039 71.6029 23.5469 71.4805 23.6328C71.3581 23.7188 71.2682 23.8477 71.2109 24.0195C71.1562 24.1914 71.1263 24.4089 71.1211 24.6719V24.8008C71.1211 25.082 71.1471 25.3203 71.1992 25.5156C71.2539 25.7109 71.3438 25.8594 71.4688 25.9609C71.5964 26.0625 71.7708 26.1133 71.9922 26.1133C72.1745 26.1133 72.3242 26.0625 72.4414 25.9609C72.5586 25.8594 72.6458 25.7109 72.7031 25.5156C72.763 25.3177 72.793 25.0768 72.793 24.793C72.793 24.3659 72.7266 24.0443 72.5938 23.8281C72.4609 23.612 72.2552 23.5039 71.9766 23.5039ZM76.1836 22.6328V27H74.9922V22.6328H76.1836ZM75.5898 20.9219C75.7669 20.9219 75.9193 20.9635 76.0469 21.0469C76.1745 21.1276 76.2383 21.2799 76.2383 21.5039C76.2383 21.7253 76.1745 21.8789 76.0469 21.9648C75.9193 22.0482 75.7669 22.0898 75.5898 22.0898C75.4102 22.0898 75.2565 22.0482 75.1289 21.9648C75.0039 21.8789 74.9414 21.7253 74.9414 21.5039C74.9414 21.2799 75.0039 21.1276 75.1289 21.0469C75.2565 20.9635 75.4102 20.9219 75.5898 20.9219ZM78.6289 27H77.4375V20.9219H78.6289V27ZM81.6836 22.5508C82.0872 22.5508 82.4349 22.6289 82.7266 22.7852C83.0182 22.9388 83.2435 23.1628 83.4023 23.457C83.5612 23.7513 83.6406 24.1107 83.6406 24.5352V25.1133H80.8242C80.8372 25.4492 80.9375 25.7135 81.125 25.9062C81.3151 26.0964 81.5781 26.1914 81.9141 26.1914C82.1927 26.1914 82.4479 26.1628 82.6797 26.1055C82.9115 26.0482 83.1497 25.9622 83.3945 25.8477V26.7695C83.1784 26.8763 82.9518 26.9544 82.7148 27.0039C82.4805 27.0534 82.1953 27.0781 81.8594 27.0781C81.4219 27.0781 81.0339 26.9974 80.6953 26.8359C80.3594 26.6745 80.0951 26.4284 79.9023 26.0977C79.7122 25.7669 79.6172 25.3503 79.6172 24.8477C79.6172 24.3372 79.7031 23.9128 79.875 23.5742C80.0495 23.2331 80.2917 22.9779 80.6016 22.8086C80.9115 22.6367 81.2721 22.5508 81.6836 22.5508ZM81.6914 23.3984C81.4596 23.3984 81.2669 23.4727 81.1133 23.6211C80.9622 23.7695 80.875 24.0026 80.8516 24.3203H82.5234C82.5208 24.1432 82.4883 23.9857 82.4258 23.8477C82.3659 23.7096 82.2747 23.6003 82.1523 23.5195C82.0326 23.4388 81.8789 23.3984 81.6914 23.3984ZM87.6562 25.7031C87.6562 26 87.5859 26.2513 87.4453 26.457C87.3073 26.6602 87.1003 26.8151 86.8242 26.9219C86.5482 27.026 86.2044 27.0781 85.793 27.0781C85.4883 27.0781 85.2266 27.0586 85.0078 27.0195C84.7917 26.9805 84.5729 26.9154 84.3516 26.8242V25.8398C84.5885 25.9466 84.8424 26.0352 85.1133 26.1055C85.3867 26.1732 85.6263 26.207 85.832 26.207C86.0638 26.207 86.2292 26.1732 86.3281 26.1055C86.4297 26.0352 86.4805 25.944 86.4805 25.832C86.4805 25.7591 86.4596 25.694 86.418 25.6367C86.3789 25.5768 86.293 25.5104 86.1602 25.4375C86.0273 25.362 85.819 25.2643 85.5352 25.1445C85.2617 25.0299 85.0365 24.9141 84.8594 24.7969C84.6849 24.6797 84.5547 24.5417 84.4688 24.3828C84.3854 24.2214 84.3438 24.0169 84.3438 23.7695C84.3438 23.3659 84.5 23.0625 84.8125 22.8594C85.1276 22.6536 85.5482 22.5508 86.0742 22.5508C86.3451 22.5508 86.6029 22.5781 86.8477 22.6328C87.0951 22.6875 87.349 22.7747 87.6094 22.8945L87.25 23.7539C87.0339 23.6602 86.8294 23.5833 86.6367 23.5234C86.4466 23.4635 86.2526 23.4336 86.0547 23.4336C85.8802 23.4336 85.7487 23.457 85.6602 23.5039C85.5716 23.5508 85.5273 23.6224 85.5273 23.7188C85.5273 23.7891 85.5495 23.8516 85.5938 23.9062C85.6406 23.9609 85.7292 24.0221 85.8594 24.0898C85.9922 24.1549 86.1862 24.2396 86.4414 24.3438C86.6888 24.4453 86.9036 24.5521 87.0859 24.6641C87.2682 24.7734 87.4089 24.9102 87.5078 25.0742C87.6068 25.2357 87.6562 25.4453 87.6562 25.7031ZM57.6719 36.7031C57.6719 37 57.6016 37.2513 57.4609 37.457C57.3229 37.6602 57.1159 37.8151 56.8398 37.9219C56.5638 38.026 56.2201 38.0781 55.8086 38.0781C55.5039 38.0781 55.2422 38.0586 55.0234 38.0195C54.8073 37.9805 54.5885 37.9154 54.3672 37.8242V36.8398C54.6042 36.9466 54.8581 37.0352 55.1289 37.1055C55.4023 37.1732 55.6419 37.207 55.8477 37.207C56.0794 37.207 56.2448 37.1732 56.3438 37.1055C56.4453 37.0352 56.4961 36.944 56.4961 36.832C56.4961 36.7591 56.4753 36.694 56.4336 36.6367C56.3945 36.5768 56.3086 36.5104 56.1758 36.4375C56.043 36.362 55.8346 36.2643 55.5508 36.1445C55.2773 36.0299 55.0521 35.9141 54.875 35.7969C54.7005 35.6797 54.5703 35.5417 54.4844 35.3828C54.401 35.2214 54.3594 35.0169 54.3594 34.7695C54.3594 34.3659 54.5156 34.0625 54.8281 33.8594C55.1432 33.6536 55.5638 33.5508 56.0898 33.5508C56.3607 33.5508 56.6185 33.5781 56.8633 33.6328C57.1107 33.6875 57.3646 33.7747 57.625 33.8945L57.2656 34.7539C57.0495 34.6602 56.8451 34.5833 56.6523 34.5234C56.4622 34.4635 56.2682 34.4336 56.0703 34.4336C55.8958 34.4336 55.7643 34.457 55.6758 34.5039C55.5872 34.5508 55.543 34.6224 55.543 34.7188C55.543 34.7891 55.5651 34.8516 55.6094 34.9062C55.6562 34.9609 55.7448 35.0221 55.875 35.0898C56.0078 35.1549 56.2018 35.2396 56.457 35.3438C56.7044 35.4453 56.9193 35.5521 57.1016 35.6641C57.2839 35.7734 57.4245 35.9102 57.5234 36.0742C57.6224 36.2357 57.6719 36.4453 57.6719 36.7031ZM60.4023 33.5508C60.806 33.5508 61.1536 33.6289 61.4453 33.7852C61.737 33.9388 61.9622 34.1628 62.1211 34.457C62.2799 34.7513 62.3594 35.1107 62.3594 35.5352V36.1133H59.543C59.556 36.4492 59.6562 36.7135 59.8438 36.9062C60.0339 37.0964 60.2969 37.1914 60.6328 37.1914C60.9115 37.1914 61.1667 37.1628 61.3984 37.1055C61.6302 37.0482 61.8685 36.9622 62.1133 36.8477V37.7695C61.8971 37.8763 61.6706 37.9544 61.4336 38.0039C61.1992 38.0534 60.9141 38.0781 60.5781 38.0781C60.1406 38.0781 59.7526 37.9974 59.4141 37.8359C59.0781 37.6745 58.8138 37.4284 58.6211 37.0977C58.431 36.7669 58.3359 36.3503 58.3359 35.8477C58.3359 35.3372 58.4219 34.9128 58.5938 34.5742C58.7682 34.2331 59.0104 33.9779 59.3203 33.8086C59.6302 33.6367 59.9909 33.5508 60.4023 33.5508ZM60.4102 34.3984C60.1784 34.3984 59.9857 34.4727 59.832 34.6211C59.681 34.7695 59.5938 35.0026 59.5703 35.3203H61.2422C61.2396 35.1432 61.207 34.9857 61.1445 34.8477C61.0846 34.7096 60.9935 34.6003 60.8711 34.5195C60.7513 34.4388 60.5977 34.3984 60.4102 34.3984ZM67.8438 33.5508C67.9036 33.5508 67.9727 33.5547 68.0508 33.5625C68.1315 33.5677 68.1966 33.5755 68.2461 33.5859L68.1562 34.7031C68.1172 34.6901 68.0612 34.681 67.9883 34.6758C67.918 34.668 67.8568 34.6641 67.8047 34.6641C67.651 34.6641 67.5013 34.6836 67.3555 34.7227C67.2122 34.7617 67.0833 34.8255 66.9688 34.9141C66.8542 35 66.763 35.1146 66.6953 35.2578C66.6302 35.3984 66.5977 35.5716 66.5977 35.7773V38H65.4062V33.6328H66.3086L66.4844 34.3672H66.543C66.6289 34.2188 66.7357 34.0833 66.8633 33.9609C66.9935 33.8359 67.1406 33.737 67.3047 33.6641C67.4714 33.5885 67.651 33.5508 67.8438 33.5508ZM70.8398 33.5508C71.2435 33.5508 71.5911 33.6289 71.8828 33.7852C72.1745 33.9388 72.3997 34.1628 72.5586 34.457C72.7174 34.7513 72.7969 35.1107 72.7969 35.5352V36.1133H69.9805C69.9935 36.4492 70.0938 36.7135 70.2812 36.9062C70.4714 37.0964 70.7344 37.1914 71.0703 37.1914C71.349 37.1914 71.6042 37.1628 71.8359 37.1055C72.0677 37.0482 72.306 36.9622 72.5508 36.8477V37.7695C72.3346 37.8763 72.1081 37.9544 71.8711 38.0039C71.6367 38.0534 71.3516 38.0781 71.0156 38.0781C70.5781 38.0781 70.1901 37.9974 69.8516 37.8359C69.5156 37.6745 69.2513 37.4284 69.0586 37.0977C68.8685 36.7669 68.7734 36.3503 68.7734 35.8477C68.7734 35.3372 68.8594 34.9128 69.0312 34.5742C69.2057 34.2331 69.4479 33.9779 69.7578 33.8086C70.0677 33.6367 70.4284 33.5508 70.8398 33.5508ZM70.8477 34.3984C70.6159 34.3984 70.4232 34.4727 70.2695 34.6211C70.1185 34.7695 70.0312 35.0026 70.0078 35.3203H71.6797C71.6771 35.1432 71.6445 34.9857 71.582 34.8477C71.5221 34.7096 71.431 34.6003 71.3086 34.5195C71.1888 34.4388 71.0352 34.3984 70.8477 34.3984ZM75.5391 38.0781C75.1068 38.0781 74.7383 38 74.4336 37.8438C74.1289 37.6849 73.8971 37.4401 73.7383 37.1094C73.5794 36.7786 73.5 36.3555 73.5 35.8398C73.5 35.306 73.5898 34.8711 73.7695 34.5352C73.9518 34.1966 74.2031 33.9479 74.5234 33.7891C74.8464 33.6302 75.2201 33.5508 75.6445 33.5508C75.9466 33.5508 76.207 33.5807 76.4258 33.6406C76.6471 33.6979 76.8398 33.7669 77.0039 33.8477L76.6523 34.7695C76.4648 34.694 76.2904 34.6328 76.1289 34.5859C75.9674 34.5365 75.806 34.5117 75.6445 34.5117C75.4362 34.5117 75.263 34.5612 75.125 34.6602C74.987 34.7565 74.8841 34.9023 74.8164 35.0977C74.7487 35.293 74.7148 35.5378 74.7148 35.832C74.7148 36.1211 74.7513 36.3607 74.8242 36.5508C74.8971 36.7409 75.0026 36.8828 75.1406 36.9766C75.2786 37.0677 75.4466 37.1133 75.6445 37.1133C75.8919 37.1133 76.112 37.0807 76.3047 37.0156C76.4974 36.9479 76.6849 36.8542 76.8672 36.7344V37.7539C76.6849 37.8685 76.4935 37.9505 76.293 38C76.0951 38.0521 75.8438 38.0781 75.5391 38.0781ZM77.2578 33.6328H78.5625L79.3867 36.0898C79.4128 36.168 79.4349 36.2474 79.4531 36.3281C79.4714 36.4089 79.487 36.4922 79.5 36.5781C79.513 36.6641 79.5234 36.7539 79.5312 36.8477H79.5547C79.5703 36.707 79.5911 36.5755 79.6172 36.4531C79.6458 36.3307 79.681 36.2096 79.7227 36.0898L80.5312 33.6328H81.8086L79.9609 38.5586C79.849 38.8607 79.7031 39.112 79.5234 39.3125C79.3438 39.5156 79.1367 39.668 78.9023 39.7695C78.6706 39.8711 78.4154 39.9219 78.1367 39.9219C78.0013 39.9219 77.8841 39.9141 77.7852 39.8984C77.6862 39.8854 77.6016 39.8711 77.5312 39.8555V38.9102C77.5859 38.9232 77.6549 38.9349 77.7383 38.9453C77.8216 38.9557 77.9089 38.9609 78 38.9609C78.1667 38.9609 78.3099 38.9258 78.4297 38.8555C78.5495 38.7852 78.6497 38.6901 78.7305 38.5703C78.8112 38.4531 78.875 38.3242 78.9219 38.1836L78.9922 37.9688L77.2578 33.6328ZM84.2109 38.0781C83.7786 38.0781 83.4102 38 83.1055 37.8438C82.8008 37.6849 82.569 37.4401 82.4102 37.1094C82.2513 36.7786 82.1719 36.3555 82.1719 35.8398C82.1719 35.306 82.2617 34.8711 82.4414 34.5352C82.6237 34.1966 82.875 33.9479 83.1953 33.7891C83.5182 33.6302 83.8919 33.5508 84.3164 33.5508C84.6185 33.5508 84.8789 33.5807 85.0977 33.6406C85.319 33.6979 85.5117 33.7669 85.6758 33.8477L85.3242 34.7695C85.1367 34.694 84.9622 34.6328 84.8008 34.5859C84.6393 34.5365 84.4779 34.5117 84.3164 34.5117C84.1081 34.5117 83.9349 34.5612 83.7969 34.6602C83.6589 34.7565 83.556 34.9023 83.4883 35.0977C83.4206 35.293 83.3867 35.5378 83.3867 35.832C83.3867 36.1211 83.4232 36.3607 83.4961 36.5508C83.569 36.7409 83.6745 36.8828 83.8125 36.9766C83.9505 37.0677 84.1185 37.1133 84.3164 37.1133C84.5638 37.1133 84.7839 37.0807 84.9766 37.0156C85.1693 36.9479 85.3568 36.8542 85.5391 36.7344V37.7539C85.3568 37.8685 85.1654 37.9505 84.9648 38C84.7669 38.0521 84.5156 38.0781 84.2109 38.0781ZM87.7461 38H86.5547V31.9219H87.7461V38ZM90.8008 33.5508C91.2044 33.5508 91.5521 33.6289 91.8438 33.7852C92.1354 33.9388 92.3607 34.1628 92.5195 34.457C92.6784 34.7513 92.7578 35.1107 92.7578 35.5352V36.1133H89.9414C89.9544 36.4492 90.0547 36.7135 90.2422 36.9062C90.4323 37.0964 90.6953 37.1914 91.0312 37.1914C91.3099 37.1914 91.5651 37.1628 91.7969 37.1055C92.0286 37.0482 92.2669 36.9622 92.5117 36.8477V37.7695C92.2956 37.8763 92.069 37.9544 91.832 38.0039C91.5977 38.0534 91.3125 38.0781 90.9766 38.0781C90.5391 38.0781 90.151 37.9974 89.8125 37.8359C89.4766 37.6745 89.2122 37.4284 89.0195 37.0977C88.8294 36.7669 88.7344 36.3503 88.7344 35.8477C88.7344 35.3372 88.8203 34.9128 88.9922 34.5742C89.1667 34.2331 89.4089 33.9779 89.7188 33.8086C90.0286 33.6367 90.3893 33.5508 90.8008 33.5508ZM90.8086 34.3984C90.5768 34.3984 90.3841 34.4727 90.2305 34.6211C90.0794 34.7695 89.9922 35.0026 89.9688 35.3203H91.6406C91.638 35.1432 91.6055 34.9857 91.543 34.8477C91.4831 34.7096 91.3919 34.6003 91.2695 34.5195C91.1497 34.4388 90.9961 34.3984 90.8086 34.3984ZM96.207 33.5508C96.6732 33.5508 97.0482 33.6784 97.332 33.9336C97.6159 34.1862 97.7578 34.5924 97.7578 35.1523V38H96.5664V35.4492C96.5664 35.1367 96.5091 34.901 96.3945 34.7422C96.2826 34.5833 96.1055 34.5039 95.8633 34.5039C95.4987 34.5039 95.25 34.6276 95.1172 34.875C94.9844 35.1224 94.918 35.4792 94.918 35.9453V38H93.7266V33.6328H94.6367L94.7969 34.1914H94.8633C94.957 34.0404 95.0729 33.918 95.2109 33.8242C95.3516 33.7305 95.5065 33.6615 95.6758 33.6172C95.8477 33.5729 96.0247 33.5508 96.207 33.5508ZM100.824 37.1289C100.954 37.1289 101.081 37.1159 101.203 37.0898C101.328 37.0638 101.452 37.0312 101.574 36.9922V37.8789C101.447 37.9362 101.288 37.9831 101.098 38.0195C100.91 38.0586 100.704 38.0781 100.48 38.0781C100.22 38.0781 99.9857 38.0365 99.7773 37.9531C99.5716 37.8672 99.4089 37.7201 99.2891 37.5117C99.1719 37.3008 99.1133 37.0078 99.1133 36.6328V34.5273H98.543V34.0234L99.1992 33.625L99.543 32.7031H100.305V33.6328H101.527V34.5273H100.305V36.6328C100.305 36.7995 100.352 36.9245 100.445 37.0078C100.542 37.0885 100.668 37.1289 100.824 37.1289Z" fill="#32AB52"/>
</g>
<defs>
<clipPath id="clip0_25_7707">
<rect width="217" height="54" fill="white"/>
</clipPath>
</defs>
</svg>
