<svg width="227" height="61" viewBox="0 0 227 61" fill="none" xmlns="http://www.w3.org/2000/svg">
<g clip-path="url(#clip0_26_7854)">
<path d="M24.8542 60.7916C11.2344 60.7916 0.15625 49.8385 0.15625 36.3801V0.317627H201.323C214.938 0.317627 226.016 11.2655 226.016 24.7239L226.021 60.7916" fill="white"/>
<path d="M201.323 5.98438H50.2708V36.3802C50.2708 46.7135 58.802 55.1198 69.2916 55.1198H220.349V24.724C220.349 14.3958 211.812 5.98438 201.323 5.98438Z" fill="white"/>
<path d="M218.458 53.2292H69.2916C59.8437 53.2292 52.1562 45.6719 52.1562 36.3802V7.875H201.323C210.771 7.875 218.458 15.4323 218.458 24.724V53.2292ZM201.323 5.98438H50.2708V36.3802C50.2708 46.7135 58.802 55.1198 69.2916 55.1198H220.349V24.724C220.349 14.3958 211.812 5.98438 201.323 5.98438Z" fill="#FCC42F"/>
<path d="M163.089 55.1198L176.099 28.5417L162.807 5.98438H201.323C211.812 5.98438 220.349 14.3906 220.349 24.724V55.1198" fill="#FCC42F"/>
<path d="M201.323 7.875H166.115L178.245 28.4583L166.12 53.2292H218.458V24.724C218.458 15.4323 210.771 7.875 201.323 7.875Z" fill="#FCC42F"/>
<path d="M206.281 41.6615H205.078C204.979 41.6615 204.885 41.6719 204.792 41.6875C205.354 35.4323 206.224 25.7708 206.646 21.3958C206.687 20.9531 206.359 20.5573 205.917 20.5156C205.464 20.4635 205.073 20.7969 205.031 21.2448C204.385 27.9635 202.677 47.1458 202.661 47.3385C202.63 47.6615 202.312 47.9271 201.943 47.9271H188.854C188.479 47.9271 188.167 47.6615 188.135 47.3385C188.12 47.1458 186.411 27.9635 185.766 21.2448C185.724 20.7969 185.333 20.4635 184.88 20.5156C184.437 20.5573 184.109 20.9531 184.151 21.3958C184.573 25.7708 185.443 35.4271 186.005 41.6875C185.911 41.6667 185.812 41.6562 185.719 41.6562H184.516C183.74 41.6562 183.104 42.2917 183.104 43.0677V48.1406C183.104 48.9167 183.74 49.5469 184.516 49.5469H185.719C186.297 49.5469 186.802 49.1927 187.016 48.6823C187.443 49.2135 188.104 49.5469 188.854 49.5469H201.943C202.687 49.5469 203.349 49.2135 203.781 48.6875C203.995 49.1927 204.495 49.5521 205.078 49.5521H206.281C207.057 49.5521 207.687 48.9219 207.687 48.1406V43.0677C207.687 42.2917 207.057 41.6615 206.281 41.6615Z" fill="#1C1C1B"/>
<path d="M190.344 25.1198V27.4115H191.016C191.411 27.4115 191.625 27.2292 191.625 26.6771V26.026C191.625 25.3333 191.401 25.1198 190.865 25.1198H190.344ZM190.344 22.0833V24.0521H190.802C191.24 24.0521 191.505 23.8646 191.505 23.2656V22.849C191.505 22.3125 191.323 22.0833 190.906 22.0833H190.344ZM192.677 22.7344V23C192.677 23.7656 192.443 24.2448 191.922 24.4896V24.5104C192.547 24.7604 192.797 25.3125 192.797 26.099V26.7083C192.797 27.8594 192.187 28.4792 191.016 28.4792H189.172V21.0156H190.938C192.156 21.0156 192.677 21.5833 192.677 22.7344Z" fill="#1C1C1B"/>
<path d="M194.833 26.1146H195.964L195.411 22.3385H195.385L194.833 26.1146ZM197.51 28.4792H196.328L196.125 27.125H194.688L194.479 28.4792H193.406L194.599 21.0156H196.313" fill="#1C1C1B"/>
<path d="M201.661 25.6926V26.6874C201.661 27.8801 201.062 28.5624 199.911 28.5624C198.76 28.5624 198.161 27.8801 198.161 26.6874V22.8072C198.161 21.6093 198.76 20.927 199.911 20.927C201.062 20.927 201.661 21.6093 201.661 22.8072V23.5312H200.552V22.7291C200.552 22.1978 200.318 21.9947 199.943 21.9947C199.573 21.9947 199.338 22.1978 199.338 22.7291V26.7603C199.338 27.2916 199.573 27.4843 199.943 27.4843C200.318 27.4843 200.552 27.2916 200.552 26.7603V25.6926" fill="#1C1C1B"/>
<path d="M192.703 31.2083V36.5365H193.365C193.734 36.5365 193.958 36.3438 193.958 35.8125V31.9323C193.958 31.401 193.734 31.2083 193.365 31.2083H192.703ZM191.531 30.1406H193.385C194.557 30.1406 195.13 30.7917 195.13 31.9844V35.7604C195.13 36.9531 194.557 37.6042 193.385 37.6042H191.531" fill="#1C1C1B"/>
<path d="M197.266 33.2865H198.875V34.349H197.266V36.5365H199.292V37.6042H196.094V30.1406H199.292V31.2031H197.266" fill="#1C1C1B"/>
<path d="M190.161 39.2656H193.786V40.3281H192.562V46.7292H191.385V40.3281H190.161" fill="#1C1C1B"/>
<path d="M195.688 40.3281V42.625H196.146C196.583 42.625 196.849 42.4323 196.849 41.8333V41.099C196.849 40.5677 196.667 40.3281 196.25 40.3281H195.688ZM196.969 46.7292C196.901 46.5365 196.859 46.4167 196.859 45.8125V44.6354C196.859 43.9479 196.625 43.6875 196.094 43.6875H195.688V46.7292H194.516V39.2656H196.286C197.5 39.2656 198.021 39.8281 198.021 40.9792V41.5677C198.021 42.3333 197.776 42.8229 197.255 43.0729V43.0938C197.839 43.3385 198.031 43.8906 198.031 44.6719V45.8229C198.031 46.1823 198.042 46.4531 198.161 46.7292" fill="#1C1C1B"/>
<path d="M199.016 46.7292H200.188V39.2656H199.016V46.7292Z" fill="#1C1C1B"/>
<path d="M207.125 17.6197H183.672V15.6666C183.672 15.5989 183.703 15.5676 183.698 15.5676H185.396C185.589 15.5676 185.771 15.4999 185.917 15.3697L188.047 13.5103C188.141 13.427 188.37 13.3437 188.661 13.3437H202.13C202.422 13.3437 202.656 13.427 202.75 13.5103L204.88 15.3697C205.026 15.4999 205.208 15.5676 205.401 15.5676H207.099C207.089 15.5676 207.125 15.5989 207.125 15.6666V17.6197ZM207.099 13.9791H205.698L203.792 12.3176C203.385 11.9583 202.781 11.7551 202.13 11.7551H188.661C188.016 11.7551 187.411 11.9583 187 12.3176L185.094 13.9791H183.698C182.807 13.9791 182.089 14.7395 182.089 15.6666V17.8124C182.089 18.1093 182.161 18.401 182.307 18.6614C182.37 18.7708 182.458 18.8697 182.562 18.9374C182.823 19.1093 183.12 19.1978 183.427 19.1978H207.37C207.677 19.1978 207.974 19.1093 208.234 18.9374C208.339 18.8697 208.427 18.7708 208.49 18.6614C208.63 18.401 208.708 18.1093 208.708 17.8124V15.6666C208.708 14.7395 207.984 13.9791 207.099 13.9791Z" fill="#1C1C1B"/>
<path d="M202.125 14.0781H188.667C188.297 14.0781 187.995 14.3802 187.995 14.75C187.995 15.1198 188.297 15.4219 188.667 15.4219H202.125C202.495 15.4219 202.797 15.1198 202.797 14.75C202.797 14.3802 202.495 14.0781 202.125 14.0781Z" fill="#1C1C1B"/>
<path d="M103.057 5.98438H50.2708V36.3802C50.2708 46.7135 58.802 55.1198 69.2916 55.1198H122.083V24.724C122.083 14.3958 113.547 5.98438 103.057 5.98438Z" fill="#FCC42F"/>
<path d="M63.8072 29.677C59.0051 29.677 55.1145 33.5676 55.1145 38.3697C55.1145 43.1718 59.0051 47.0624 63.8072 47.0624C68.6145 47.0624 72.5051 43.1718 72.5051 38.3697C72.5051 33.5676 68.6145 29.677 63.8072 29.677Z" fill="white"/>
<path d="M69.4792 39.7865H65.2292V44.0417H62.3906V39.7865H58.1406V36.9531H62.3906V32.7031H65.2292V36.9531H69.4792" fill="#1C1C1B"/>
<path d="M55.9426 26.9167V17.5156H58.427V24.8333H61.9843V26.9167" fill="#1C1C1B"/>
<path d="M63.0989 26.9167V17.5156H69.1718V19.599H65.5885V21.0729H68.651V23.1563H65.5885V24.8333H69.3176V26.9167" fill="#1C1C1B"/>
<path d="M75.2448 26.9167V19.599H72.7604V17.5156H80.2239V19.599H77.7343V26.9167" fill="#1C1C1B"/>
<path d="M83.7083 21.7969H84.6042C85.6042 21.7969 86.1094 21.3802 86.1094 20.5521C86.1094 20.1458 85.9792 19.8698 85.724 19.7135C85.4688 19.5573 85.0938 19.4792 84.6042 19.4792H83.7083V21.7969ZM81.2188 26.9167V17.5156H84.776C85.2813 17.5156 85.7604 17.5625 86.2188 17.6563C86.6771 17.7552 87.0729 17.9219 87.4167 18.151C87.7604 18.3802 88.0313 18.6927 88.2344 19.0833C88.4375 19.474 88.5365 19.9635 88.5365 20.5521C88.5365 21.2292 88.401 21.7865 88.125 22.2292C87.8542 22.6719 87.4844 23.0208 87.0208 23.2708L89.0573 26.9167H86.2813L84.6615 23.7604H83.7083V26.9167" fill="#1C1C1B"/>
<path d="M90.026 26.9167H92.5156V17.5156H90.026V26.9167Z" fill="#1C1C1B"/>
<path d="M75.5364 43.5937V34.1926H81.6666V36.276H78.026V38.0676H81.1458V40.151H78.026V43.5937" fill="#1C1C1B"/>
<path d="M85.0781 39.0208L84.9166 39.6718H86.651L86.4948 39.0208C86.3802 38.5676 86.2604 38.078 86.1458 37.5468C86.0312 37.0155 85.9166 36.5155 85.7968 36.0416H85.7395C85.6354 36.526 85.526 37.0312 85.4166 37.552C85.3073 38.078 85.1927 38.5676 85.0781 39.0208ZM81.4635 43.5937L84.3229 34.1926H87.3281L90.1927 43.5937H87.5625L87.0989 41.5989H84.4687L84.0052 43.5937" fill="#1C1C1B"/>
<path d="M94.7187 43.7656C94.1249 43.7656 93.552 43.6667 93.0103 43.4688C92.4635 43.2708 91.9895 42.974 91.578 42.5729C91.1666 42.1719 90.8385 41.6719 90.5989 41.0677C90.3593 40.4688 90.2395 39.7656 90.2395 38.9635C90.2395 38.1771 90.3645 37.474 90.6145 36.8594C90.8645 36.25 91.1978 35.7344 91.6197 35.3125C92.0364 34.8958 92.5208 34.5729 93.0676 34.349C93.6145 34.1302 94.1822 34.0156 94.7812 34.0156C95.4062 34.0156 95.9687 34.1406 96.4583 34.3854C96.953 34.6354 97.3645 34.9271 97.703 35.2604L96.401 36.8542C96.1718 36.651 95.9322 36.4844 95.6874 36.3542C95.4374 36.224 95.1562 36.1563 94.8385 36.1563C94.5572 36.1563 94.2968 36.2188 94.052 36.349C93.8072 36.474 93.5885 36.651 93.401 36.8802C93.2135 37.1146 93.0624 37.401 92.953 37.7344C92.8385 38.0729 92.7864 38.4531 92.7864 38.875C92.7864 39.7656 92.9687 40.4479 93.3437 40.9167C93.7135 41.3906 94.203 41.625 94.8072 41.625C95.177 41.625 95.4999 41.5469 95.7864 41.3854C96.0676 41.2292 96.3124 41.0365 96.5155 40.8177L97.8176 42.375C97.4114 42.8438 96.9478 43.1875 96.4218 43.4167C95.8958 43.651 95.328 43.7656 94.7187 43.7656Z" fill="#1C1C1B"/>
<path d="M98.776 43.5937H101.26V34.1926H98.776V43.5937Z" fill="#1C1C1B"/>
<path d="M103.031 43.5937V34.1926H105.521V41.5103H109.078V43.5937" fill="#1C1C1B"/>
<path d="M110.188 43.5937V34.1926H116.266V36.276H112.677V37.7499H115.745V39.8333H112.677V41.5103H116.411V43.5937" fill="#1C1C1B"/>
<path d="M28.5624 26.0625C26.8697 28.5521 28.3072 31.8281 30.052 33.4896C31.6458 35 32.9218 35.3594 33.0885 35.401L33.901 33.8438L36.2447 40.2552L29.6197 41.599L30.4999 39.9688L29.6041 39.4635C26.8124 37.6458 26.2239 35.1771 26.0312 34.4063C25.6978 33.0781 25.203 29.1094 28.5624 26.0625Z" fill="#1C1C1B"/>
<path d="M28.5312 26.1718C29.7344 28.927 33.2708 29.4635 35.6042 28.8697C37.6771 28.3437 38.6615 27.4895 38.8281 27.3333L38.8177 27.3176L37.9323 25.7864L44.599 27.2395L42.1875 33.5572L41.2917 31.9687L40.4219 32.4374C37.3958 33.828 34.9896 33.0103 34.2344 32.7603C32.9375 32.3333 29.3125 30.6353 28.5312 26.1718Z" fill="#1C1C1B"/>
<path d="M40.3177 19.5156C39.8541 22.8125 37.8698 24.3958 37.25 24.8958C36.1875 25.7552 32.802 27.8854 28.6198 26.1354C31.5937 26.6094 33.9531 23.9271 34.7135 21.6406C35.401 19.5885 35.1979 18.2917 35.1562 18.0885H35.1354L33.3698 18.0104L38.1823 13.1719L42.2083 18.6094L40.3906 18.5052" fill="#1C1C1B"/>
<path fill-rule="evenodd" clip-rule="evenodd" d="M20.0938 16.7291C18.5729 16.7291 17.3438 15.4999 17.3438 13.9791C17.3438 12.4583 18.5729 11.2239 20.0938 11.2239C21.6146 11.2239 22.849 12.4583 22.849 13.9791C22.849 15.4999 21.6146 16.7291 20.0938 16.7291Z" fill="#1C1C1B"/>
<path d="M15.8333 30.1146C16.0677 29.4688 16.4167 29.5104 16.4167 29.5104C16.4167 29.5104 16.7344 29.4427 16.9115 30.0938L19.4844 39.125C17.3385 38.5052 15.3802 37.4375 13.7135 36.0313L15.8333 30.1146ZM23.8594 5.98438C13.9167 5.98438 5.82812 14.0729 5.82812 24.0208C5.82812 33.9583 13.9167 42.0521 23.8594 42.0521C24.3906 42.0521 24.9115 42.0156 25.4323 41.9688L25.5521 43.7813L28.8542 40.5885L25.1615 37.776L25.3021 39.6771C24.8281 39.7188 24.3438 39.75 23.8594 39.75C23.0938 39.75 22.3438 39.6927 21.6094 39.5885L21.5365 39.1094L19.8229 24.5104C19.5885 21.7552 21.1615 21.3125 22.1354 21.7292L27.6042 23.9219C28.2292 24.1927 28.5313 23.6719 28.5313 23.6719C28.5313 23.6719 28.8854 23.1198 28.25 22.7135C28.25 22.7135 20.7969 17.776 19.2083 17.4792C17.0417 17.0729 14.8958 18.8281 14.4219 21.1146L11.776 34.0833C9.5 31.349 8.125 27.8438 8.125 24.0208C8.125 15.3438 15.1823 8.28646 23.8594 8.28646C28.4948 8.28646 32.6667 10.3021 35.5469 13.4948L37.1615 11.8594C33.8646 8.25 29.1198 5.98438 23.8594 5.98438Z" fill="#1C1C1B"/>
<path d="M132.392 38.654H132.776C132.948 38.654 133.086 38.602 133.19 38.498C133.298 38.394 133.352 38.232 133.352 38.012C133.352 37.796 133.306 37.632 133.214 37.52C133.122 37.408 132.968 37.352 132.752 37.352H132.392V38.654ZM131.528 36.716H133.04C133.26 36.716 133.444 36.754 133.592 36.83C133.744 36.902 133.866 36.998 133.958 37.118C134.05 37.238 134.116 37.376 134.156 37.532C134.196 37.684 134.216 37.84 134.216 38C134.216 38.22 134.182 38.412 134.114 38.576C134.05 38.74 133.958 38.874 133.838 38.978C133.722 39.082 133.58 39.16 133.412 39.212C133.244 39.264 133.058 39.29 132.854 39.29H132.392V41H131.528V36.716ZM135.413 38.858C135.413 39.146 135.419 39.392 135.431 39.596C135.447 39.796 135.475 39.96 135.515 40.088C135.559 40.212 135.619 40.304 135.695 40.364C135.775 40.42 135.879 40.448 136.007 40.448C136.135 40.448 136.237 40.42 136.313 40.364C136.393 40.304 136.453 40.212 136.493 40.088C136.537 39.96 136.565 39.796 136.577 39.596C136.593 39.392 136.601 39.146 136.601 38.858C136.601 38.57 136.593 38.326 136.577 38.126C136.565 37.926 136.537 37.762 136.493 37.634C136.453 37.506 136.393 37.414 136.313 37.358C136.237 37.298 136.135 37.268 136.007 37.268C135.879 37.268 135.775 37.298 135.695 37.358C135.619 37.414 135.559 37.506 135.515 37.634C135.475 37.762 135.447 37.926 135.431 38.126C135.419 38.326 135.413 38.57 135.413 38.858ZM134.549 38.858C134.549 38.534 134.563 38.236 134.591 37.964C134.623 37.688 134.689 37.452 134.789 37.256C134.893 37.06 135.041 36.908 135.233 36.8C135.425 36.688 135.683 36.632 136.007 36.632C136.331 36.632 136.589 36.688 136.781 36.8C136.973 36.908 137.119 37.06 137.219 37.256C137.323 37.452 137.389 37.688 137.417 37.964C137.449 38.236 137.465 38.534 137.465 38.858C137.465 39.186 137.449 39.486 137.417 39.758C137.389 40.03 137.323 40.264 137.219 40.46C137.119 40.656 136.973 40.806 136.781 40.91C136.589 41.014 136.331 41.066 136.007 41.066C135.683 41.066 135.425 41.014 135.233 40.91C135.041 40.806 134.893 40.656 134.789 40.46C134.689 40.264 134.623 40.03 134.591 39.758C134.563 39.486 134.549 39.186 134.549 38.858ZM139.803 38.162C139.803 37.85 139.765 37.624 139.689 37.484C139.617 37.34 139.483 37.268 139.287 37.268C139.179 37.268 139.089 37.298 139.017 37.358C138.949 37.414 138.895 37.508 138.855 37.64C138.815 37.768 138.787 37.938 138.771 38.15C138.755 38.358 138.747 38.614 138.747 38.918C138.747 39.242 138.757 39.504 138.777 39.704C138.801 39.904 138.835 40.06 138.879 40.172C138.927 40.28 138.985 40.354 139.053 40.394C139.125 40.43 139.207 40.448 139.299 40.448C139.375 40.448 139.445 40.436 139.509 40.412C139.577 40.384 139.635 40.332 139.683 40.256C139.731 40.176 139.769 40.066 139.797 39.926C139.825 39.782 139.839 39.594 139.839 39.362H140.703C140.703 39.594 140.685 39.814 140.649 40.022C140.613 40.23 140.545 40.412 140.445 40.568C140.349 40.724 140.211 40.846 140.031 40.934C139.855 41.022 139.625 41.066 139.341 41.066C139.017 41.066 138.759 41.014 138.567 40.91C138.375 40.806 138.227 40.656 138.123 40.46C138.023 40.264 137.957 40.03 137.925 39.758C137.897 39.486 137.883 39.186 137.883 38.858C137.883 38.534 137.897 38.236 137.925 37.964C137.957 37.688 138.023 37.452 138.123 37.256C138.227 37.06 138.375 36.908 138.567 36.8C138.759 36.688 139.017 36.632 139.341 36.632C139.649 36.632 139.891 36.682 140.067 36.782C140.247 36.882 140.381 37.01 140.469 37.166C140.557 37.318 140.611 37.484 140.631 37.664C140.655 37.84 140.667 38.006 140.667 38.162H139.803ZM141.196 36.716H142.06V38.354H143.068V36.716H143.932V41H143.068V39.098H142.06V41H141.196V36.716ZM146.923 36.716V37.424H145.393V38.432H146.833V39.14H145.393V40.292H146.983V41H144.529V36.716H146.923ZM149.926 36.716V37.424H148.99V41H148.126V37.424H147.19V36.716H149.926ZM152.809 36.716V37.424H151.873V41H151.009V37.424H150.073V36.716H152.809ZM155.578 36.716V37.424H154.048V38.432H155.488V39.14H154.048V40.292H155.638V41H153.184V36.716H155.578ZM131.557 45.654H131.941C132.113 45.654 132.251 45.602 132.355 45.498C132.463 45.394 132.517 45.232 132.517 45.012C132.517 44.796 132.471 44.632 132.379 44.52C132.287 44.408 132.133 44.352 131.917 44.352H131.557V45.654ZM130.693 43.716H132.205C132.425 43.716 132.609 43.754 132.757 43.83C132.909 43.902 133.031 43.998 133.123 44.118C133.215 44.238 133.281 44.376 133.321 44.532C133.361 44.684 133.381 44.84 133.381 45C133.381 45.22 133.347 45.412 133.279 45.576C133.215 45.74 133.123 45.874 133.003 45.978C132.887 46.082 132.745 46.16 132.577 46.212C132.409 46.264 132.223 46.29 132.019 46.29H131.557V48H130.693V43.716ZM133.804 48V43.716H134.668V47.292H136.198V48H133.804ZM138.369 46.386L137.955 44.46H137.943L137.529 46.386H138.369ZM138.483 43.716L139.617 48H138.717L138.519 47.094H137.379L137.181 48H136.281L137.415 43.716H138.483ZM140.611 46.662V46.788C140.611 46.888 140.619 46.98 140.635 47.064C140.651 47.144 140.681 47.212 140.725 47.268C140.769 47.324 140.827 47.368 140.899 47.4C140.975 47.432 141.069 47.448 141.181 47.448C141.313 47.448 141.431 47.406 141.535 47.322C141.643 47.234 141.697 47.1 141.697 46.92C141.697 46.824 141.683 46.742 141.655 46.674C141.631 46.602 141.589 46.538 141.529 46.482C141.469 46.426 141.389 46.376 141.289 46.332C141.193 46.284 141.073 46.236 140.929 46.188C140.737 46.124 140.571 46.054 140.431 45.978C140.291 45.902 140.173 45.814 140.077 45.714C139.985 45.61 139.917 45.492 139.873 45.36C139.829 45.224 139.807 45.068 139.807 44.892C139.807 44.468 139.925 44.152 140.161 43.944C140.397 43.736 140.721 43.632 141.133 43.632C141.325 43.632 141.501 43.654 141.661 43.698C141.825 43.738 141.965 43.806 142.081 43.902C142.201 43.994 142.293 44.114 142.357 44.262C142.425 44.406 142.459 44.58 142.459 44.784V44.904H141.631C141.631 44.7 141.595 44.544 141.523 44.436C141.451 44.324 141.331 44.268 141.163 44.268C141.067 44.268 140.987 44.282 140.923 44.31C140.859 44.338 140.807 44.376 140.767 44.424C140.731 44.468 140.705 44.52 140.689 44.58C140.677 44.64 140.671 44.702 140.671 44.766C140.671 44.898 140.699 45.01 140.755 45.102C140.811 45.19 140.931 45.272 141.115 45.348L141.781 45.636C141.945 45.708 142.079 45.784 142.183 45.864C142.287 45.94 142.369 46.024 142.429 46.116C142.493 46.204 142.537 46.302 142.561 46.41C142.585 46.518 142.597 46.638 142.597 46.77C142.597 47.222 142.465 47.552 142.201 47.76C141.941 47.964 141.577 48.066 141.109 48.066C140.621 48.066 140.271 47.96 140.059 47.748C139.851 47.536 139.747 47.232 139.747 46.836V46.662H140.611ZM145.535 43.716V44.424H144.599V48H143.735V44.424H142.799V43.716H145.535ZM145.951 48V43.716H146.815V48H145.951ZM148.23 45.858C148.23 46.146 148.236 46.392 148.248 46.596C148.264 46.796 148.292 46.96 148.332 47.088C148.376 47.212 148.436 47.304 148.512 47.364C148.592 47.42 148.696 47.448 148.824 47.448C148.952 47.448 149.054 47.42 149.13 47.364C149.21 47.304 149.27 47.212 149.31 47.088C149.354 46.96 149.382 46.796 149.394 46.596C149.41 46.392 149.418 46.146 149.418 45.858C149.418 45.57 149.41 45.326 149.394 45.126C149.382 44.926 149.354 44.762 149.31 44.634C149.27 44.506 149.21 44.414 149.13 44.358C149.054 44.298 148.952 44.268 148.824 44.268C148.696 44.268 148.592 44.298 148.512 44.358C148.436 44.414 148.376 44.506 148.332 44.634C148.292 44.762 148.264 44.926 148.248 45.126C148.236 45.326 148.23 45.57 148.23 45.858ZM149.904 48.51L149.394 48C149.234 48.044 149.044 48.066 148.824 48.066C148.5 48.066 148.242 48.014 148.05 47.91C147.858 47.806 147.71 47.656 147.606 47.46C147.506 47.264 147.44 47.03 147.408 46.758C147.38 46.486 147.366 46.186 147.366 45.858C147.366 45.534 147.38 45.236 147.408 44.964C147.44 44.688 147.506 44.452 147.606 44.256C147.71 44.06 147.858 43.908 148.05 43.8C148.242 43.688 148.5 43.632 148.824 43.632C149.148 43.632 149.406 43.688 149.598 43.8C149.79 43.908 149.936 44.06 150.036 44.256C150.14 44.452 150.206 44.688 150.234 44.964C150.266 45.236 150.282 45.534 150.282 45.858C150.282 46.222 150.262 46.552 150.222 46.848C150.182 47.144 150.092 47.394 149.952 47.598L150.414 48.048L149.904 48.51ZM151.6 43.716V46.704C151.6 46.812 151.606 46.912 151.618 47.004C151.634 47.092 151.66 47.17 151.696 47.238C151.736 47.302 151.788 47.354 151.852 47.394C151.92 47.43 152.004 47.448 152.104 47.448C152.208 47.448 152.292 47.43 152.356 47.394C152.42 47.354 152.47 47.302 152.506 47.238C152.546 47.17 152.572 47.092 152.584 47.004C152.6 46.912 152.608 46.812 152.608 46.704V43.716H153.472V46.704C153.472 46.976 153.434 47.202 153.358 47.382C153.282 47.558 153.18 47.698 153.052 47.802C152.924 47.906 152.778 47.976 152.614 48.012C152.45 48.048 152.28 48.066 152.104 48.066C151.928 48.066 151.758 48.05 151.594 48.018C151.43 47.986 151.284 47.922 151.156 47.826C151.028 47.726 150.926 47.586 150.85 47.406C150.774 47.226 150.736 46.992 150.736 46.704V43.716H151.6ZM156.413 43.716V44.424H154.883V45.432H156.323V46.14H154.883V47.292H156.473V48H154.019V43.716H156.413Z" fill="#1C1C1B"/>
<path d="M150.342 16.9189C149.898 20.2387 149.031 23.8838 149.031 25.3705C149.031 27.5114 148.915 30.7262 148.915 30.7262C146.522 30.7262 147.212 31.5937 142.685 31.5937C138.162 31.5937 138.851 30.7262 136.458 30.7262C136.458 30.7262 136.343 27.5114 136.343 25.3705C136.343 23.8593 135.454 20.2142 135.01 16.9189C134.824 15.5441 135.066 12.2488 135.066 12.2488C135.066 12.2488 141.433 11.941 142.72 11.941C144.011 11.941 150.307 12.2488 150.307 12.2488C150.307 12.2488 150.405 12.6371 150.426 13.2178C150.43 13.3158 149.919 13.3088 149.909 13.8825C149.895 14.4457 150.468 14.3233 150.475 14.5471C150.545 16.6426 150.472 15.9639 150.342 16.9189ZM151.413 14.5122C151.406 14.3128 151.343 14.0609 151.14 13.8405C151.35 13.5921 151.371 13.3158 151.367 13.1794C151.339 12.5217 151.231 12.0704 151.217 12.0215C151.119 11.6192 150.766 11.3288 150.353 11.3078C150.094 11.2973 144.018 11 142.72 11C141.422 11 135.283 11.2973 135.024 11.3078C134.548 11.3323 134.163 11.7066 134.128 12.1789C134.118 12.3188 133.88 15.5896 134.079 17.0448C134.275 18.4966 134.559 20.0288 134.807 21.3756C135.111 23.0337 135.405 24.6009 135.405 25.3705C135.405 27.5044 135.517 30.7297 135.517 30.7612C135.535 31.2649 135.951 31.6672 136.458 31.6672C137.312 31.6672 137.672 31.7861 138.165 31.9506C138.945 32.2094 139.914 32.5312 142.685 32.5312C145.459 32.5312 146.428 32.2094 147.208 31.9506C147.701 31.7861 148.058 31.6672 148.915 31.6672C149.422 31.6672 149.839 31.2649 149.856 30.7612C149.856 30.7297 149.972 27.5044 149.972 25.3705C149.972 24.6079 150.255 23.0337 150.559 21.3651C150.804 20.0218 151.08 18.4966 151.276 17.0448C151.308 16.8105 151.332 16.702 151.353 16.6041C151.451 16.2018 151.465 15.9954 151.413 14.5122Z" fill="#1C1C1B"/>
<path d="M148.52 16.793C148.45 16.7685 148.373 16.8035 148.348 16.8699C148.331 16.9084 146.844 20.7284 146.319 24.503C145.791 28.309 146.494 29.5858 146.526 29.6383C146.55 29.6802 146.596 29.7047 146.641 29.7047C146.652 29.7047 146.666 29.7047 146.68 29.7012C146.736 29.6837 146.778 29.6278 146.778 29.5683C146.557 22.7993 148.576 17.0204 148.597 16.9609C148.621 16.8944 148.586 16.8175 148.52 16.793Z" fill="#1C1C1B"/>
<path d="M147.544 14.2114C147.526 14.1519 147.467 14.1169 147.404 14.1309C147.362 14.1414 142.923 15.2503 138.036 13.998C137.987 13.984 137.934 14.0085 137.91 14.0504C137.882 14.0924 137.889 14.1484 137.924 14.1869C137.959 14.2254 138.809 15.1209 141.657 15.1839C141.751 15.1873 141.845 15.1873 141.94 15.1873C144.668 15.1873 147.439 14.3618 147.467 14.3513C147.526 14.3338 147.561 14.2708 147.544 14.2114Z" fill="#1C1C1B"/>
</g>
<defs>
<clipPath id="clip0_26_7854">
<rect width="227" height="61" fill="white"/>
</clipPath>
</defs>
</svg>
