<svg width="227" height="73" viewBox="0 0 227 73" fill="none" xmlns="http://www.w3.org/2000/svg">
<g clip-path="url(#clip0_22_635)">
<path d="M24.8542 72.1249C11.2344 72.1249 0.15625 61.177 0.15625 47.7187V0.317627H201.323C214.938 0.317627 226.016 11.2655 226.016 24.7239L226.021 72.1249" fill="white"/>
<path d="M24.8542 60.7916C11.2344 60.7916 0.15625 49.8385 0.15625 36.3801V0.317627H201.323C214.938 0.317627 226.016 11.2655 226.016 24.7239L226.021 60.7916" fill="white"/>
<path d="M201.323 5.98438H50.2708V36.3802C50.2708 46.7135 58.802 55.1198 69.2916 55.1198H220.349V24.724C220.349 14.3958 211.812 5.98438 201.323 5.98438Z" fill="white"/>
<path d="M218.458 53.2292H69.2916C59.8437 53.2292 52.1562 45.6719 52.1562 36.3802V7.875H201.323C210.771 7.875 218.458 15.4323 218.458 24.724V53.2292ZM201.323 5.98438H50.2708V36.3802C50.2708 46.7135 58.802 55.1198 69.2916 55.1198H220.349V24.724C220.349 14.3958 211.812 5.98438 201.323 5.98438Z" fill="#FCC42F"/>
<path d="M163.089 55.1198L176.099 28.5417L162.807 5.98438H201.323C211.812 5.98438 220.349 14.3906 220.349 24.724V55.1198" fill="#FCC42F"/>
<path d="M201.323 7.875H166.115L178.245 28.4583L166.12 53.2292H218.458V24.724C218.458 15.4323 210.771 7.875 201.323 7.875Z" fill="#FCC42F"/>
<path d="M206.281 41.6615H205.078C204.979 41.6615 204.885 41.6719 204.792 41.6875C205.354 35.4323 206.224 25.7708 206.646 21.3958C206.687 20.9531 206.359 20.5573 205.917 20.5156C205.464 20.4635 205.073 20.7969 205.031 21.2448C204.385 27.9635 202.677 47.1458 202.661 47.3385C202.63 47.6615 202.312 47.9271 201.943 47.9271H188.854C188.479 47.9271 188.167 47.6615 188.135 47.3385C188.12 47.1458 186.411 27.9635 185.766 21.2448C185.724 20.7969 185.333 20.4635 184.88 20.5156C184.437 20.5573 184.109 20.9531 184.151 21.3958C184.573 25.7708 185.443 35.4271 186.005 41.6875C185.911 41.6667 185.812 41.6562 185.719 41.6562H184.516C183.74 41.6562 183.104 42.2917 183.104 43.0677V48.1406C183.104 48.9167 183.74 49.5469 184.516 49.5469H185.719C186.297 49.5469 186.802 49.1927 187.016 48.6823C187.443 49.2135 188.104 49.5469 188.854 49.5469H201.943C202.687 49.5469 203.349 49.2135 203.781 48.6875C203.995 49.1927 204.495 49.5521 205.078 49.5521H206.281C207.057 49.5521 207.687 48.9219 207.687 48.1406V43.0677C207.687 42.2917 207.057 41.6615 206.281 41.6615Z" fill="#1C1C1B"/>
<path d="M190.344 25.1198V27.4115H191.016C191.411 27.4115 191.625 27.2292 191.625 26.6771V26.026C191.625 25.3333 191.401 25.1198 190.865 25.1198H190.344ZM190.344 22.0833V24.0521H190.802C191.24 24.0521 191.505 23.8646 191.505 23.2656V22.849C191.505 22.3125 191.323 22.0833 190.906 22.0833H190.344ZM192.677 22.7344V23C192.677 23.7656 192.443 24.2448 191.922 24.4896V24.5104C192.547 24.7604 192.797 25.3125 192.797 26.099V26.7083C192.797 27.8594 192.187 28.4792 191.016 28.4792H189.172V21.0156H190.938C192.156 21.0156 192.677 21.5833 192.677 22.7344Z" fill="#1C1C1B"/>
<path d="M194.833 26.1146H195.964L195.411 22.3385H195.385L194.833 26.1146ZM197.51 28.4792H196.328L196.125 27.125H194.688L194.479 28.4792H193.406L194.599 21.0156H196.313" fill="#1C1C1B"/>
<path d="M201.661 25.6926V26.6874C201.661 27.8801 201.062 28.5624 199.911 28.5624C198.76 28.5624 198.161 27.8801 198.161 26.6874V22.8072C198.161 21.6093 198.76 20.927 199.911 20.927C201.062 20.927 201.661 21.6093 201.661 22.8072V23.5312H200.552V22.7291C200.552 22.1978 200.318 21.9947 199.943 21.9947C199.573 21.9947 199.338 22.1978 199.338 22.7291V26.7603C199.338 27.2916 199.573 27.4843 199.943 27.4843C200.318 27.4843 200.552 27.2916 200.552 26.7603V25.6926" fill="#1C1C1B"/>
<path d="M192.703 31.2083V36.5365H193.365C193.734 36.5365 193.958 36.3438 193.958 35.8125V31.9323C193.958 31.401 193.734 31.2083 193.365 31.2083H192.703ZM191.531 30.1406H193.385C194.557 30.1406 195.13 30.7917 195.13 31.9844V35.7604C195.13 36.9531 194.557 37.6042 193.385 37.6042H191.531" fill="#1C1C1B"/>
<path d="M197.266 33.2865H198.875V34.349H197.266V36.5365H199.292V37.6042H196.094V30.1406H199.292V31.2031H197.266" fill="#1C1C1B"/>
<path d="M190.161 39.2656H193.786V40.3281H192.562V46.7292H191.385V40.3281H190.161" fill="#1C1C1B"/>
<path d="M195.688 40.3281V42.625H196.146C196.583 42.625 196.849 42.4323 196.849 41.8333V41.099C196.849 40.5677 196.667 40.3281 196.25 40.3281H195.688ZM196.969 46.7292C196.901 46.5365 196.859 46.4167 196.859 45.8125V44.6354C196.859 43.9479 196.625 43.6875 196.094 43.6875H195.688V46.7292H194.516V39.2656H196.286C197.5 39.2656 198.021 39.8281 198.021 40.9792V41.5677C198.021 42.3333 197.776 42.8229 197.255 43.0729V43.0938C197.839 43.3385 198.031 43.8906 198.031 44.6719V45.8229C198.031 46.1823 198.042 46.4531 198.161 46.7292" fill="#1C1C1B"/>
<path d="M199.016 46.7292H200.188V39.2656H199.016V46.7292Z" fill="#1C1C1B"/>
<path d="M207.125 17.6197H183.672V15.6666C183.672 15.5989 183.703 15.5676 183.698 15.5676H185.396C185.589 15.5676 185.771 15.4999 185.917 15.3697L188.047 13.5103C188.141 13.427 188.37 13.3437 188.661 13.3437H202.13C202.422 13.3437 202.656 13.427 202.75 13.5103L204.88 15.3697C205.026 15.4999 205.208 15.5676 205.401 15.5676H207.099C207.089 15.5676 207.125 15.5989 207.125 15.6666V17.6197ZM207.099 13.9791H205.698L203.792 12.3176C203.385 11.9583 202.781 11.7551 202.13 11.7551H188.661C188.016 11.7551 187.411 11.9583 187 12.3176L185.094 13.9791H183.698C182.807 13.9791 182.089 14.7395 182.089 15.6666V17.8124C182.089 18.1093 182.161 18.401 182.307 18.6614C182.37 18.7708 182.458 18.8697 182.562 18.9374C182.823 19.1093 183.12 19.1978 183.427 19.1978H207.37C207.677 19.1978 207.974 19.1093 208.234 18.9374C208.339 18.8697 208.427 18.7708 208.49 18.6614C208.63 18.401 208.708 18.1093 208.708 17.8124V15.6666C208.708 14.7395 207.984 13.9791 207.099 13.9791Z" fill="#1C1C1B"/>
<path d="M202.125 14.0781H188.667C188.297 14.0781 187.995 14.3802 187.995 14.75C187.995 15.1198 188.297 15.4219 188.667 15.4219H202.125C202.495 15.4219 202.797 15.1198 202.797 14.75C202.797 14.3802 202.495 14.0781 202.125 14.0781Z" fill="#1C1C1B"/>
<path d="M103.057 5.98438H50.2708V36.3802C50.2708 46.7135 58.802 55.1198 69.2916 55.1198H122.083V24.724C122.083 14.3958 113.547 5.98438 103.057 5.98438Z" fill="#FCC42F"/>
<path d="M63.8072 29.677C59.0051 29.677 55.1145 33.5676 55.1145 38.3697C55.1145 43.1718 59.0051 47.0624 63.8072 47.0624C68.6145 47.0624 72.5051 43.1718 72.5051 38.3697C72.5051 33.5676 68.6145 29.677 63.8072 29.677Z" fill="white"/>
<path d="M69.4792 39.7865H65.2292V44.0417H62.3906V39.7865H58.1406V36.9531H62.3906V32.7031H65.2292V36.9531H69.4792" fill="#1C1C1B"/>
<path d="M55.9426 26.9167V17.5156H58.427V24.8333H61.9843V26.9167" fill="#1C1C1B"/>
<path d="M63.0989 26.9167V17.5156H69.1718V19.599H65.5885V21.0729H68.651V23.1563H65.5885V24.8333H69.3176V26.9167" fill="#1C1C1B"/>
<path d="M75.2448 26.9167V19.599H72.7604V17.5156H80.2239V19.599H77.7343V26.9167" fill="#1C1C1B"/>
<path d="M83.7083 21.7969H84.6042C85.6042 21.7969 86.1094 21.3802 86.1094 20.5521C86.1094 20.1458 85.9792 19.8698 85.724 19.7135C85.4688 19.5573 85.0938 19.4792 84.6042 19.4792H83.7083V21.7969ZM81.2188 26.9167V17.5156H84.776C85.2813 17.5156 85.7604 17.5625 86.2188 17.6563C86.6771 17.7552 87.0729 17.9219 87.4167 18.151C87.7604 18.3802 88.0313 18.6927 88.2344 19.0833C88.4375 19.474 88.5365 19.9635 88.5365 20.5521C88.5365 21.2292 88.401 21.7865 88.125 22.2292C87.8542 22.6719 87.4844 23.0208 87.0208 23.2708L89.0573 26.9167H86.2813L84.6615 23.7604H83.7083V26.9167" fill="#1C1C1B"/>
<path d="M90.026 26.9167H92.5156V17.5156H90.026V26.9167Z" fill="#1C1C1B"/>
<path d="M75.5364 43.5937V34.1926H81.6666V36.276H78.026V38.0676H81.1458V40.151H78.026V43.5937" fill="#1C1C1B"/>
<path d="M85.0781 39.0208L84.9166 39.6718H86.651L86.4948 39.0208C86.3802 38.5676 86.2604 38.078 86.1458 37.5468C86.0312 37.0155 85.9166 36.5155 85.7968 36.0416H85.7395C85.6354 36.526 85.526 37.0312 85.4166 37.552C85.3073 38.078 85.1927 38.5676 85.0781 39.0208ZM81.4635 43.5937L84.3229 34.1926H87.3281L90.1927 43.5937H87.5625L87.0989 41.5989H84.4687L84.0052 43.5937" fill="#1C1C1B"/>
<path d="M94.7187 43.7656C94.1249 43.7656 93.552 43.6667 93.0103 43.4688C92.4635 43.2708 91.9895 42.974 91.578 42.5729C91.1666 42.1719 90.8385 41.6719 90.5989 41.0677C90.3593 40.4688 90.2395 39.7656 90.2395 38.9635C90.2395 38.1771 90.3645 37.474 90.6145 36.8594C90.8645 36.25 91.1978 35.7344 91.6197 35.3125C92.0364 34.8958 92.5208 34.5729 93.0676 34.349C93.6145 34.1302 94.1822 34.0156 94.7812 34.0156C95.4062 34.0156 95.9687 34.1406 96.4583 34.3854C96.953 34.6354 97.3645 34.9271 97.703 35.2604L96.401 36.8542C96.1718 36.651 95.9322 36.4844 95.6874 36.3542C95.4374 36.224 95.1562 36.1563 94.8385 36.1563C94.5572 36.1563 94.2968 36.2188 94.052 36.349C93.8072 36.474 93.5885 36.651 93.401 36.8802C93.2135 37.1146 93.0624 37.401 92.953 37.7344C92.8385 38.0729 92.7864 38.4531 92.7864 38.875C92.7864 39.7656 92.9687 40.4479 93.3437 40.9167C93.7135 41.3906 94.203 41.625 94.8072 41.625C95.177 41.625 95.4999 41.5469 95.7864 41.3854C96.0676 41.2292 96.3124 41.0365 96.5155 40.8177L97.8176 42.375C97.4114 42.8438 96.9478 43.1875 96.4218 43.4167C95.8958 43.651 95.328 43.7656 94.7187 43.7656Z" fill="#1C1C1B"/>
<path d="M98.776 43.5937H101.26V34.1926H98.776V43.5937Z" fill="#1C1C1B"/>
<path d="M103.031 43.5937V34.1926H105.521V41.5103H109.078V43.5937" fill="#1C1C1B"/>
<path d="M110.188 43.5937V34.1926H116.266V36.276H112.677V37.7499H115.745V39.8333H112.677V41.5103H116.411V43.5937" fill="#1C1C1B"/>
<path d="M28.5624 26.0625C26.8697 28.5521 28.3072 31.8281 30.052 33.4896C31.6458 35 32.9218 35.3594 33.0885 35.401L33.901 33.8438L36.2447 40.2552L29.6197 41.599L30.4999 39.9688L29.6041 39.4635C26.8124 37.6458 26.2239 35.1771 26.0312 34.4063C25.6978 33.0781 25.203 29.1094 28.5624 26.0625Z" fill="#1C1C1B"/>
<path d="M28.5312 26.1718C29.7344 28.927 33.2708 29.4635 35.6042 28.8697C37.6771 28.3437 38.6615 27.4895 38.8281 27.3333L38.8177 27.3176L37.9323 25.7864L44.599 27.2395L42.1875 33.5572L41.2917 31.9687L40.4219 32.4374C37.3958 33.828 34.9896 33.0103 34.2344 32.7603C32.9375 32.3333 29.3125 30.6353 28.5312 26.1718Z" fill="#1C1C1B"/>
<path d="M40.3177 19.5156C39.8541 22.8125 37.8698 24.3958 37.25 24.8958C36.1875 25.7552 32.802 27.8854 28.6198 26.1354C31.5937 26.6094 33.9531 23.9271 34.7135 21.6406C35.401 19.5885 35.1979 18.2917 35.1562 18.0885H35.1354L33.3698 18.0104L38.1823 13.1719L42.2083 18.6094L40.3906 18.5052" fill="#1C1C1B"/>
<path fill-rule="evenodd" clip-rule="evenodd" d="M20.0938 16.7291C18.5729 16.7291 17.3438 15.4999 17.3438 13.9791C17.3438 12.4583 18.5729 11.2239 20.0938 11.2239C21.6146 11.2239 22.849 12.4583 22.849 13.9791C22.849 15.4999 21.6146 16.7291 20.0938 16.7291Z" fill="#1C1C1B"/>
<path d="M15.8333 30.1146C16.0677 29.4688 16.4167 29.5104 16.4167 29.5104C16.4167 29.5104 16.7344 29.4427 16.9115 30.0938L19.4844 39.125C17.3385 38.5052 15.3802 37.4375 13.7135 36.0313L15.8333 30.1146ZM23.8594 5.98438C13.9167 5.98438 5.82812 14.0729 5.82812 24.0208C5.82812 33.9583 13.9167 42.0521 23.8594 42.0521C24.3906 42.0521 24.9115 42.0156 25.4323 41.9688L25.5521 43.7813L28.8542 40.5885L25.1615 37.776L25.3021 39.6771C24.8281 39.7188 24.3438 39.75 23.8594 39.75C23.0938 39.75 22.3438 39.6927 21.6094 39.5885L21.5365 39.1094L19.8229 24.5104C19.5885 21.7552 21.1615 21.3125 22.1354 21.7292L27.6042 23.9219C28.2292 24.1927 28.5313 23.6719 28.5313 23.6719C28.5313 23.6719 28.8854 23.1198 28.25 22.7135C28.25 22.7135 20.7969 17.776 19.2083 17.4792C17.0417 17.0729 14.8958 18.8281 14.4219 21.1146L11.776 34.0833C9.5 31.349 8.125 27.8438 8.125 24.0208C8.125 15.3438 15.1823 8.28646 23.8594 8.28646C28.4948 8.28646 32.6667 10.3021 35.5469 13.4948L37.1615 11.8594C33.8646 8.25 29.1198 5.98438 23.8594 5.98438Z" fill="#1C1C1B"/>
<path d="M88.335 66.4306H92.3767L92.6683 65.0973H89.8975L91.2308 58.9098H89.6892L88.1058 66.4306H88.335Z" fill="#1C1C1B"/>
<path d="M97.4417 62.0348C97.65 61.0973 96.775 60.5348 95.8167 60.5348C94.4 60.5348 93.6084 61.3473 93.3167 62.6806H94.7334C94.8792 61.9723 94.9 61.6598 95.6292 61.6598C96.1917 61.6598 96.0875 61.764 96.0042 62.264C95.9 62.7223 95.8167 62.6598 95.4209 62.764L94.525 62.9931C93.7542 63.2223 92.9834 63.6806 92.7125 64.8681C92.5042 65.9098 93.1292 66.5765 94.0042 66.5765C94.6292 66.5765 95.2334 66.264 95.5875 65.7848H95.2959C95.2542 66.1181 95.8167 66.4931 96.2959 66.4931C96.5042 66.4931 96.6917 66.4306 97.0042 66.2848L97.2542 65.139C96.8167 65.3681 96.8792 65.3056 96.8167 65.3056C96.65 65.3056 96.7542 65.3265 96.7959 65.1181L97.4417 62.0348ZM95.5667 64.3056C95.3792 65.0973 95.1709 65.389 94.525 65.389C94.0667 65.389 94.1084 65.2223 94.2125 64.764C94.2959 64.3681 94.3167 64.2431 94.65 64.0973C95.0042 63.9306 95.7542 63.764 95.65 63.8265L95.5667 64.3056Z" fill="#1C1C1B"/>
<path d="M97.5092 66.4306H98.7384L99.9675 60.6806H98.4884L97.28 66.4306H97.5092ZM98.8217 60.2847H100.051L100.363 58.8264H98.8842L98.5925 60.2847H98.8217Z" fill="#1C1C1B"/>
<path d="M104.021 62.4306L104.083 62.1806C104.208 61.514 103.896 60.5348 102.521 60.5348C101.417 60.5348 100.375 61.1806 100.167 62.2015C99.9792 63.0556 100.438 63.6598 101.188 63.9306L102 64.2431C102.354 64.389 102.313 64.4515 102.229 64.8473C102.125 65.3473 101.958 65.4515 101.375 65.4515C100.75 65.4515 100.792 65.3056 100.917 64.6806L101 64.3265H99.6667L99.5834 64.7015C99.3542 65.7431 99.8334 66.5765 101.188 66.5765C102.271 66.5765 103.417 65.889 103.667 64.7431C103.833 63.889 103.375 63.264 102.625 62.9931L101.979 62.764C101.458 62.5556 101.5 62.5765 101.583 62.1598C101.688 61.6598 101.896 61.6598 102.313 61.6598C102.875 61.6598 102.729 61.8681 102.646 62.2848L102.583 62.6181H103.979L104.021 62.4306Z" fill="#1C1C1B"/>
<path d="M108.281 62.4306L108.343 62.1806C108.468 61.514 108.156 60.5348 106.781 60.5348C105.677 60.5348 104.635 61.1806 104.427 62.2015C104.239 63.0556 104.697 63.6598 105.447 63.9306L106.26 64.2431C106.614 64.389 106.572 64.4515 106.489 64.8473C106.385 65.3473 106.218 65.4515 105.635 65.4515C105.01 65.4515 105.052 65.3056 105.177 64.6806L105.26 64.3265H103.927L103.843 64.7015C103.614 65.7431 104.093 66.5765 105.447 66.5765C106.531 66.5765 107.677 65.889 107.927 64.7431C108.093 63.889 107.635 63.264 106.885 62.9931L106.239 62.764C105.718 62.5556 105.76 62.5765 105.843 62.1598C105.947 61.6598 106.156 61.6598 106.572 61.6598C107.135 61.6598 106.989 61.8681 106.906 62.2848L106.843 62.6181H108.239L108.281 62.4306Z" fill="#1C1C1B"/>
<path d="M112.687 63.6806L112.791 63.1181C113.124 61.6181 112.708 60.5348 111.208 60.5348C109.52 60.5348 108.708 62.2223 108.416 63.639C107.895 66.1181 109.124 66.5765 109.999 66.5765C111.166 66.5765 112.228 65.639 112.52 64.2431H111.124C110.999 64.764 110.937 65.4515 110.166 65.4515C109.353 65.4515 109.645 64.7223 109.812 63.9931L109.833 63.889H112.645L112.687 63.6806ZM110.02 62.9515L110.041 62.8473C110.187 62.139 110.374 61.6598 111.062 61.6598C111.666 61.6598 111.583 61.9723 111.437 62.6598L111.416 62.764H110.062L110.02 62.9515Z" fill="#1C1C1B"/>
<path d="M112.838 66.4306H114.067L114.796 63.014C115.004 62.014 115.442 61.9931 115.942 61.9931C116.108 61.9931 116.317 62.0348 116.525 62.0973L116.817 60.6598C116.546 60.5556 116.483 60.5348 116.358 60.5348C115.754 60.5348 115.129 60.9723 114.796 61.514H115.108L115.296 60.6806H113.817L112.588 66.4306H112.838Z" fill="#1C1C1B"/>
<path d="M118.429 66.4306H119.658L121.262 58.9098H119.804L118.2 66.4306H118.429Z" fill="#1C1C1B"/>
<path d="M125.087 63.6806L125.191 63.1181C125.524 61.6181 125.108 60.5348 123.608 60.5348C121.92 60.5348 121.108 62.2223 120.816 63.639C120.295 66.1181 121.524 66.5765 122.399 66.5765C123.566 66.5765 124.628 65.639 124.92 64.2431H123.524C123.399 64.764 123.337 65.4515 122.566 65.4515C121.753 65.4515 122.045 64.7223 122.212 63.9931L122.233 63.889H125.045L125.087 63.6806ZM122.42 62.9515L122.441 62.8473C122.587 62.139 122.774 61.6598 123.462 61.6598C124.066 61.6598 123.983 61.9723 123.837 62.6598L123.816 62.764H122.462L122.42 62.9515Z" fill="#1C1C1B"/>
<path d="M127.637 66.4306H128.804L128.95 65.764H128.658C128.679 65.9306 129.054 66.5765 129.825 66.5765C131.096 66.5765 131.992 65.3265 132.387 63.4723C132.887 61.0973 131.95 60.5348 131.117 60.5348C130.554 60.5348 129.908 60.889 129.637 61.3056H129.95L130.471 58.9098H128.992L127.387 66.4306H127.637ZM129.408 63.6181C129.679 62.3265 129.804 61.764 130.617 61.764C131.242 61.764 131.158 62.0765 130.867 63.5348C130.596 64.7431 130.471 65.3265 129.721 65.3265C128.971 65.3265 129.158 64.764 129.408 63.6181Z" fill="#1C1C1B"/>
<path d="M132.614 63.5556C132.26 65.2223 132.718 66.5765 134.198 66.5765C135.698 66.5765 136.656 65.2223 137.01 63.5556C137.364 61.889 136.968 60.5348 135.406 60.5348C133.843 60.5348 132.968 61.889 132.614 63.5556ZM134.073 63.5556C134.323 62.3681 134.448 61.7015 135.239 61.7015C136.031 61.7015 135.781 62.3681 135.531 63.5556C135.239 64.9306 135.177 65.389 134.385 65.389C133.593 65.389 133.781 64.9306 134.073 63.5556Z" fill="#1C1C1B"/>
<path d="M139.828 66.4307H140.994L142.223 60.6807H140.744L139.911 64.6182C139.786 65.2223 139.494 65.3265 139.036 65.3265C138.578 65.3265 138.557 65.3265 138.661 64.7223L139.536 60.6807H138.057L137.223 64.6182C136.932 66.014 137.578 66.5765 138.39 66.5765C138.994 66.5765 139.682 66.2223 140.015 65.8057H139.723L139.578 66.4307H139.828Z" fill="#1C1C1B"/>
<path d="M144.721 64.2849C144.533 65.0974 144.408 65.4099 143.825 65.3891C143.033 65.3891 143.262 64.7432 143.512 63.5557C143.762 62.3682 143.887 61.7016 144.679 61.7016C145.325 61.6807 145.117 62.1599 144.971 62.8474H146.429C146.617 61.9724 146.471 60.5141 144.846 60.5349C143.283 60.5349 142.408 61.8891 142.054 63.5557C141.7 65.2224 142.096 66.5766 143.637 66.5766C144.971 66.5766 145.783 65.5766 146.179 64.0974H144.762L144.721 64.2849Z" fill="#1C1C1B"/>
<path d="M146.266 66.4306H147.495L148.308 62.639C148.454 61.9306 148.745 61.764 149.204 61.764C149.745 61.764 149.683 61.8473 149.537 62.5556L148.725 66.4306H150.183L151.079 62.1806C151.308 61.0973 150.683 60.5348 149.87 60.5348C149.308 60.5348 148.641 60.8681 148.35 61.2223L148.579 61.3681L149.1 58.9098H147.62L146.016 66.4306H146.266Z" fill="#1C1C1B"/>
<path d="M151.243 63.5556C150.889 65.2223 151.347 66.5765 152.826 66.5765C154.326 66.5765 155.285 65.2223 155.639 63.5556C155.993 61.889 155.597 60.5348 154.035 60.5348C152.472 60.5348 151.597 61.889 151.243 63.5556ZM152.701 63.5556C152.951 62.3681 153.076 61.7015 153.868 61.7015C154.66 61.7015 154.41 62.3681 154.16 63.5556C153.868 64.9306 153.805 65.389 153.014 65.389C152.222 65.389 152.41 64.9306 152.701 63.5556Z" fill="#1C1C1B"/>
<path d="M155.706 66.4306H156.935L157.748 62.639C157.894 61.9306 158.185 61.764 158.644 61.764C159.185 61.764 159.123 61.8473 158.977 62.5556L158.165 66.4306H159.623L160.519 62.1806C160.748 61.0973 160.123 60.5348 159.31 60.5348C158.706 60.5348 157.998 60.889 157.665 61.3056H157.956L158.102 60.6806H156.685L155.456 66.4306H155.706Z" fill="#1C1C1B"/>
<path d="M167.25 62.4306L167.312 62.1806C167.437 61.514 167.125 60.5348 165.75 60.5348C164.645 60.5348 163.604 61.1806 163.395 62.2015C163.208 63.0556 163.666 63.6598 164.416 63.9306L165.229 64.2431C165.583 64.389 165.541 64.4515 165.458 64.8473C165.354 65.3473 165.187 65.4515 164.604 65.4515C163.979 65.4515 164.02 65.3056 164.145 64.6806L164.229 64.3265H162.895L162.812 64.7015C162.583 65.7431 163.062 66.5765 164.416 66.5765C165.5 66.5765 166.645 65.889 166.895 64.7431C167.062 63.889 166.604 63.264 165.854 62.9931L165.208 62.764C164.687 62.5556 164.729 62.5765 164.812 62.1598C164.916 61.6598 165.125 61.6598 165.541 61.6598C166.104 61.6598 165.958 61.8681 165.875 62.2848L165.812 62.6181H167.208L167.25 62.4306Z" fill="#1C1C1B"/>
<path d="M169.926 66.4307H171.093L172.322 60.6807H170.843L170.01 64.6182C169.885 65.2223 169.593 65.3265 169.135 65.3265C168.676 65.3265 168.655 65.3265 168.76 64.7223L169.635 60.6807H168.155L167.322 64.6182C167.03 66.014 167.676 66.5765 168.489 66.5765C169.093 66.5765 169.78 66.2223 170.114 65.8057H169.822L169.676 66.4307H169.926Z" fill="#1C1C1B"/>
<path d="M171.986 66.4306H173.215L173.945 63.014C174.153 62.014 174.59 61.9931 175.09 61.9931C175.257 61.9931 175.465 62.0348 175.674 62.0973L175.965 60.6598C175.695 60.5556 175.632 60.5348 175.507 60.5348C174.903 60.5348 174.278 60.9723 173.945 61.514H174.257L174.445 60.6806H172.965L171.736 66.4306H171.986Z" fill="#1C1C1B"/>
<path d="M177.578 66.4306H178.807L180.411 58.9098H178.953L177.349 66.4306H177.578Z" fill="#1C1C1B"/>
<path d="M184.36 62.0348C184.569 61.0973 183.694 60.5348 182.735 60.5348C181.319 60.5348 180.527 61.3473 180.235 62.6806H181.652C181.798 61.9723 181.819 61.6598 182.548 61.6598C183.11 61.6598 183.006 61.764 182.923 62.264C182.819 62.7223 182.735 62.6598 182.34 62.764L181.444 62.9931C180.673 63.2223 179.902 63.6806 179.631 64.8681C179.423 65.9098 180.048 66.5765 180.923 66.5765C181.548 66.5765 182.152 66.264 182.506 65.7848H182.215C182.173 66.1181 182.735 66.4931 183.215 66.4931C183.423 66.4931 183.61 66.4306 183.923 66.2848L184.173 65.139C183.735 65.3681 183.798 65.3056 183.735 65.3056C183.569 65.3056 183.673 65.3265 183.715 65.1181L184.36 62.0348ZM182.485 64.3056C182.298 65.0973 182.09 65.389 181.444 65.389C180.985 65.389 181.027 65.2223 181.131 64.764C181.215 64.3681 181.235 64.2431 181.569 64.0973C181.923 63.9306 182.673 63.764 182.569 63.8265L182.485 64.3056Z" fill="#1C1C1B"/>
<path d="M186.786 66.4306H187.953L188.099 65.764H187.807C187.828 65.9306 188.203 66.5765 188.974 66.5765C190.245 66.5765 191.14 65.3265 191.536 63.4723C192.036 61.0973 191.099 60.5348 190.265 60.5348C189.703 60.5348 189.057 60.889 188.786 61.3056H189.099L189.62 58.9098H188.14L186.536 66.4306H186.786ZM188.557 63.6181C188.828 62.3265 188.953 61.764 189.765 61.764C190.39 61.764 190.307 62.0765 190.015 63.5348C189.745 64.7431 189.62 65.3265 188.87 65.3265C188.12 65.3265 188.307 64.764 188.557 63.6181Z" fill="#1C1C1B"/>
<path d="M191.763 63.5556C191.409 65.2223 191.867 66.5765 193.346 66.5765C194.846 66.5765 195.805 65.2223 196.159 63.5556C196.513 61.889 196.117 60.5348 194.555 60.5348C192.992 60.5348 192.117 61.889 191.763 63.5556ZM193.221 63.5556C193.471 62.3681 193.596 61.7015 194.388 61.7015C195.18 61.7015 194.93 62.3681 194.68 63.5556C194.388 64.9306 194.325 65.389 193.534 65.389C192.742 65.389 192.93 64.9306 193.221 63.5556Z" fill="#1C1C1B"/>
<path d="M198.976 66.4307H200.143L201.372 60.6807H199.893L199.06 64.6182C198.935 65.2223 198.643 65.3265 198.185 65.3265C197.726 65.3265 197.705 65.3265 197.81 64.7223L198.685 60.6807H197.205L196.372 64.6182C196.08 66.014 196.726 66.5765 197.539 66.5765C198.143 66.5765 198.83 66.2223 199.164 65.8057H198.872L198.726 66.4307H198.976Z" fill="#1C1C1B"/>
<path d="M201.515 61.8472H202.015L201.349 64.9931C201.12 66.0972 201.64 66.4931 202.37 66.4931C202.724 66.4931 203.015 66.4514 203.432 66.3681L203.682 65.1806C203.328 65.2431 203.203 65.2431 203.036 65.2431C202.661 65.2431 202.765 65.2847 202.849 64.8681L203.495 61.8472H204.37L204.62 60.6806H203.745L204.078 59.1389H202.599L202.265 60.6806H201.536L201.286 61.8472H201.515Z" fill="#1C1C1B"/>
<path d="M208.295 63.6806L208.4 63.1181C208.733 61.6181 208.316 60.5348 206.816 60.5348C205.129 60.5348 204.316 62.2223 204.025 63.639C203.504 66.1181 204.733 66.5765 205.608 66.5765C206.775 66.5765 207.837 65.639 208.129 64.2431H206.733C206.608 64.764 206.545 65.4515 205.775 65.4515C204.962 65.4515 205.254 64.7223 205.42 63.9931L205.441 63.889H208.254L208.295 63.6806ZM205.629 62.9515L205.65 62.8473C205.795 62.139 205.983 61.6598 206.67 61.6598C207.275 61.6598 207.191 61.9723 207.045 62.6598L207.025 62.764H205.67L205.629 62.9515Z" fill="#1C1C1B"/>
<path d="M208.488 66.4306H209.717L210.946 60.6806H209.467L208.259 66.4306H208.488ZM209.8 60.2847H211.03L211.342 58.8264H209.863L209.571 60.2847H209.8Z" fill="#1C1C1B"/>
<path d="M210.708 66.4306H211.937L213.541 58.9098H212.083L210.479 66.4306H210.708Z" fill="#1C1C1B"/>
<path d="M212.928 66.4306H214.157L215.761 58.9098H214.303L212.699 66.4306H212.928Z" fill="#1C1C1B"/>
<path d="M219.585 63.6806L219.69 63.1181C220.023 61.6181 219.606 60.5348 218.106 60.5348C216.419 60.5348 215.606 62.2223 215.315 63.639C214.794 66.1181 216.023 66.5765 216.898 66.5765C218.065 66.5765 219.127 65.639 219.419 64.2431H218.023C217.898 64.764 217.835 65.4515 217.065 65.4515C216.252 65.4515 216.544 64.7223 216.71 63.9931L216.731 63.889H219.544L219.585 63.6806ZM216.919 62.9515L216.94 62.8473C217.085 62.139 217.273 61.6598 217.96 61.6598C218.565 61.6598 218.481 61.9723 218.335 62.6598L218.315 62.764H216.96L216.919 62.9515Z" fill="#1C1C1B"/>
<path d="M132.069 35.6H132.897L132.309 36.464H131.745L132.069 35.6ZM133.311 36.716V37.424H131.781V38.432H133.221V39.14H131.781V40.292H133.371V41H130.917V36.716H133.311ZM133.806 41V36.716H134.67V40.292H136.2V41H133.806ZM137.735 35.6H138.563L137.975 36.464H137.411L137.735 35.6ZM138.977 36.716V37.424H137.447V38.432H138.887V39.14H137.447V40.292H139.037V41H136.583V36.716H138.977ZM139.49 36.716H140.774L141.386 39.74H141.398L142.016 36.716H143.294V41H142.502V37.58H142.49L141.728 41H141.056L140.294 37.58H140.282V41H139.49V36.716ZM146.307 36.716V37.424H144.777V38.432H146.217V39.14H144.777V40.292H146.367V41H143.913V36.716H146.307ZM147.798 36.716L148.842 39.65H148.854V36.716H149.646V41H148.662L147.606 38H147.594V41H146.802V36.716H147.798ZM152.755 36.716V37.424H151.819V41H150.955V37.424H150.019V36.716H152.755ZM153.826 39.662V39.788C153.826 39.888 153.834 39.98 153.85 40.064C153.866 40.144 153.896 40.212 153.94 40.268C153.984 40.324 154.042 40.368 154.114 40.4C154.19 40.432 154.284 40.448 154.396 40.448C154.528 40.448 154.646 40.406 154.75 40.322C154.858 40.234 154.912 40.1 154.912 39.92C154.912 39.824 154.898 39.742 154.87 39.674C154.846 39.602 154.804 39.538 154.744 39.482C154.684 39.426 154.604 39.376 154.504 39.332C154.408 39.284 154.288 39.236 154.144 39.188C153.952 39.124 153.786 39.054 153.646 38.978C153.506 38.902 153.388 38.814 153.292 38.714C153.2 38.61 153.132 38.492 153.088 38.36C153.044 38.224 153.022 38.068 153.022 37.892C153.022 37.468 153.14 37.152 153.376 36.944C153.612 36.736 153.936 36.632 154.348 36.632C154.54 36.632 154.716 36.654 154.876 36.698C155.04 36.738 155.18 36.806 155.296 36.902C155.416 36.994 155.508 37.114 155.572 37.262C155.64 37.406 155.674 37.58 155.674 37.784V37.904H154.846C154.846 37.7 154.81 37.544 154.738 37.436C154.666 37.324 154.546 37.268 154.378 37.268C154.282 37.268 154.202 37.282 154.138 37.31C154.074 37.338 154.022 37.376 153.982 37.424C153.946 37.468 153.92 37.52 153.904 37.58C153.892 37.64 153.886 37.702 153.886 37.766C153.886 37.898 153.914 38.01 153.97 38.102C154.026 38.19 154.146 38.272 154.33 38.348L154.996 38.636C155.16 38.708 155.294 38.784 155.398 38.864C155.502 38.94 155.584 39.024 155.644 39.116C155.708 39.204 155.752 39.302 155.776 39.41C155.8 39.518 155.812 39.638 155.812 39.77C155.812 40.222 155.68 40.552 155.416 40.76C155.156 40.964 154.792 41.066 154.324 41.066C153.836 41.066 153.486 40.96 153.274 40.748C153.066 40.536 152.962 40.232 152.962 39.836V39.662H153.826ZM126.594 47.364H126.978C127.13 47.364 127.252 47.338 127.344 47.286C127.436 47.234 127.508 47.148 127.56 47.028C127.616 46.908 127.652 46.75 127.668 46.554C127.688 46.358 127.698 46.114 127.698 45.822C127.698 45.578 127.69 45.364 127.674 45.18C127.658 44.996 127.624 44.844 127.572 44.724C127.524 44.6 127.45 44.508 127.35 44.448C127.254 44.384 127.124 44.352 126.96 44.352H126.594V47.364ZM125.73 43.716H127.146C127.446 43.716 127.688 43.766 127.872 43.866C128.056 43.962 128.198 44.102 128.298 44.286C128.402 44.466 128.472 44.684 128.508 44.94C128.544 45.196 128.562 45.482 128.562 45.798C128.562 46.174 128.538 46.502 128.49 46.782C128.446 47.058 128.368 47.286 128.256 47.466C128.144 47.646 127.994 47.78 127.806 47.868C127.618 47.956 127.38 48 127.092 48H125.73V43.716ZM130.009 44.496C130.009 44.656 129.997 44.804 129.973 44.94C129.953 45.072 129.913 45.188 129.853 45.288C129.793 45.384 129.711 45.464 129.607 45.528C129.507 45.588 129.377 45.626 129.217 45.642V45.222C129.321 45.202 129.399 45.146 129.451 45.054C129.503 44.962 129.529 44.86 129.529 44.748V44.652H129.217V43.716H130.009V44.496ZM133.086 43.716V44.424H131.556V45.432H132.996V46.14H131.556V47.292H133.146V48H130.692V43.716H133.086ZM133.598 43.716H134.882L135.494 46.74H135.506L136.124 43.716H137.402V48H136.61V44.58H136.598L135.836 48H135.164L134.402 44.58H134.39V48H133.598V43.716ZM138.886 47.364H139.222C139.43 47.364 139.598 47.318 139.726 47.226C139.854 47.134 139.918 46.964 139.918 46.716C139.918 46.592 139.9 46.49 139.864 46.41C139.832 46.326 139.786 46.26 139.726 46.212C139.67 46.16 139.602 46.124 139.522 46.104C139.442 46.084 139.354 46.074 139.258 46.074H138.886V47.364ZM138.886 45.474H139.132C139.372 45.474 139.546 45.432 139.654 45.348C139.766 45.26 139.822 45.114 139.822 44.91C139.822 44.706 139.772 44.562 139.672 44.478C139.572 44.394 139.414 44.352 139.198 44.352H138.886V45.474ZM138.022 43.716H139.468C139.644 43.716 139.806 43.734 139.954 43.77C140.106 43.806 140.236 43.866 140.344 43.95C140.452 44.034 140.536 44.146 140.596 44.286C140.656 44.426 140.686 44.598 140.686 44.802C140.686 45.034 140.632 45.234 140.524 45.402C140.416 45.566 140.254 45.678 140.038 45.738V45.75C140.278 45.782 140.468 45.884 140.608 46.056C140.748 46.228 140.818 46.458 140.818 46.746C140.818 46.914 140.796 47.074 140.752 47.226C140.708 47.378 140.632 47.512 140.524 47.628C140.42 47.74 140.282 47.83 140.11 47.898C139.942 47.966 139.732 48 139.48 48H138.022V43.716ZM143.144 46.386L142.73 44.46H142.718L142.304 46.386H143.144ZM143.258 43.716L144.392 48H143.492L143.294 47.094H142.154L141.956 48H141.056L142.19 43.716H143.258ZM144.69 48V43.716H145.554V47.292H147.084V48H144.69ZM147.467 48V43.716H148.331V47.292H149.861V48H147.467ZM152.032 46.386L151.618 44.46H151.606L151.192 46.386H152.032ZM152.146 43.716L153.28 48H152.38L152.182 47.094H151.042L150.844 48H149.944L151.078 43.716H152.146ZM155.48 44.988C155.48 44.908 155.47 44.826 155.45 44.742C155.434 44.658 155.406 44.582 155.366 44.514C155.326 44.442 155.274 44.384 155.21 44.34C155.15 44.292 155.076 44.268 154.988 44.268C154.78 44.268 154.63 44.384 154.538 44.616C154.446 44.848 154.4 45.232 154.4 45.768C154.4 46.024 154.408 46.256 154.424 46.464C154.44 46.672 154.468 46.85 154.508 46.998C154.552 47.142 154.612 47.254 154.688 47.334C154.768 47.41 154.87 47.448 154.994 47.448C155.046 47.448 155.102 47.434 155.162 47.406C155.226 47.378 155.284 47.336 155.336 47.28C155.392 47.224 155.438 47.154 155.474 47.07C155.51 46.982 155.528 46.88 155.528 46.764V46.326H154.958V45.69H156.356V48H155.72V47.604H155.708C155.604 47.772 155.478 47.892 155.33 47.964C155.186 48.032 155.012 48.066 154.808 48.066C154.544 48.066 154.328 48.02 154.16 47.928C153.996 47.836 153.866 47.694 153.77 47.502C153.678 47.31 153.616 47.074 153.584 46.794C153.552 46.51 153.536 46.182 153.536 45.81C153.536 45.45 153.558 45.134 153.602 44.862C153.65 44.59 153.73 44.364 153.842 44.184C153.954 44 154.102 43.862 154.286 43.77C154.47 43.678 154.7 43.632 154.976 43.632C155.448 43.632 155.788 43.75 155.996 43.986C156.204 44.218 156.308 44.552 156.308 44.988H155.48ZM159.306 43.716V44.424H157.776V45.432H159.216V46.14H157.776V47.292H159.366V48H156.912V43.716H159.306ZM160.497 46.662V46.788C160.497 46.888 160.505 46.98 160.521 47.064C160.537 47.144 160.567 47.212 160.611 47.268C160.655 47.324 160.713 47.368 160.785 47.4C160.861 47.432 160.955 47.448 161.067 47.448C161.199 47.448 161.317 47.406 161.421 47.322C161.529 47.234 161.583 47.1 161.583 46.92C161.583 46.824 161.569 46.742 161.541 46.674C161.517 46.602 161.475 46.538 161.415 46.482C161.355 46.426 161.275 46.376 161.175 46.332C161.079 46.284 160.959 46.236 160.815 46.188C160.623 46.124 160.457 46.054 160.317 45.978C160.177 45.902 160.059 45.814 159.963 45.714C159.871 45.61 159.803 45.492 159.759 45.36C159.715 45.224 159.693 45.068 159.693 44.892C159.693 44.468 159.811 44.152 160.047 43.944C160.283 43.736 160.607 43.632 161.019 43.632C161.211 43.632 161.387 43.654 161.547 43.698C161.711 43.738 161.851 43.806 161.967 43.902C162.087 43.994 162.179 44.114 162.243 44.262C162.311 44.406 162.345 44.58 162.345 44.784V44.904H161.517C161.517 44.7 161.481 44.544 161.409 44.436C161.337 44.324 161.217 44.268 161.049 44.268C160.953 44.268 160.873 44.282 160.809 44.31C160.745 44.338 160.693 44.376 160.653 44.424C160.617 44.468 160.591 44.52 160.575 44.58C160.563 44.64 160.557 44.702 160.557 44.766C160.557 44.898 160.585 45.01 160.641 45.102C160.697 45.19 160.817 45.272 161.001 45.348L161.667 45.636C161.831 45.708 161.965 45.784 162.069 45.864C162.173 45.94 162.255 46.024 162.315 46.116C162.379 46.204 162.423 46.302 162.447 46.41C162.471 46.518 162.483 46.638 162.483 46.77C162.483 47.222 162.351 47.552 162.087 47.76C161.827 47.964 161.463 48.066 160.995 48.066C160.507 48.066 160.157 47.96 159.945 47.748C159.737 47.536 159.633 47.232 159.633 46.836V46.662H160.497Z" fill="#1C1C1B"/>
<path d="M141.687 13.8987V12.7546H143.673V13.8956L141.687 13.8987ZM147.564 19.978V30.9112C147.564 31.2402 147.298 31.5059 146.969 31.5059H140.349C140.023 31.5059 139.755 31.2402 139.755 30.9112L139.791 19.9237C139.791 19.3139 141.031 15.2691 141.43 14.7771H143.978C144.494 15.1333 147.28 19.2807 147.564 19.978ZM146.498 16.8568C145.499 15.3747 144.82 14.4963 144.43 14.1824V12.6641C144.43 12.2958 144.129 12 143.76 12H141.602C141.234 12 140.932 12.2958 140.932 12.6641V14.2096C140.727 14.4239 140.398 14.9823 139.812 16.8478C139.438 18.0401 139.036 19.5584 139.036 19.9207L139 30.9112C139 31.6568 139.607 32.2605 140.349 32.2605H146.969C147.715 32.2605 148.318 31.6568 148.318 30.9112V19.9237C148.318 19.6913 147.709 18.6619 146.498 16.8568Z" fill="#1C1C1B"/>
<path d="M145.402 18.8552C145.402 18.8492 145.405 18.8431 145.405 18.8371C145.707 19.0363 146.374 20.0204 146.374 20.615V24.352C146.374 24.681 146.13 24.8289 145.888 24.8289C145.647 24.8289 145.402 24.681 145.402 24.352V18.8552ZM145.888 25.2334C146.329 25.2334 146.776 24.9285 146.776 24.352V20.615C146.776 20.2528 146.582 19.7306 146.256 19.2265C146.096 18.979 145.686 18.3994 145.339 18.3994C145.26 18.3994 145.001 18.4326 145.001 18.8552V24.352C145.001 24.9285 145.447 25.2334 145.888 25.2334Z" fill="#1C1C1B"/>
<path d="M140.503 20.0504C140.373 20.0504 140.268 20.1561 140.268 20.2828V30.4614C140.268 30.5912 140.373 30.6968 140.503 30.6968C140.63 30.6968 140.736 30.5912 140.736 30.4614V20.2828C140.736 20.1561 140.63 20.0504 140.503 20.0504Z" fill="#1C1C1B"/>
</g>
<defs>
<clipPath id="clip0_22_635">
<rect width="227" height="73" fill="white"/>
</clipPath>
</defs>
</svg>
