<svg width="230" height="61" viewBox="0 0 230 61" fill="none" xmlns="http://www.w3.org/2000/svg">
<g clip-path="url(#clip0_25_7344)">
<path d="M24.6979 60.4688C11.0781 60.4688 0 49.5208 0 36.0625V0H204.948C218.563 0 229.641 10.9479 229.641 24.4063V60.4688" fill="white"/>
<path d="M204.948 5.66663H50.1145V36.0625C50.1145 46.3958 58.6458 54.802 69.1353 54.802H223.974V24.4062C223.974 14.0729 215.437 5.66663 204.948 5.66663Z" fill="white"/>
<path d="M222.083 52.9114H69.1353C59.6874 52.9114 51.9999 45.3541 51.9999 36.0625V7.55725H204.948C214.396 7.55725 222.083 15.1145 222.083 24.4062V52.9114ZM204.948 5.66663H50.1145V36.0625C50.1145 46.3958 58.6458 54.802 69.1353 54.802H223.969V24.4062C223.969 14.0729 215.437 5.66663 204.948 5.66663Z" fill="#FCC42F"/>
<path d="M166.714 54.802L179.724 28.2239L166.432 5.66663H204.948C215.437 5.66663 223.969 14.0729 223.969 24.4062V54.802" fill="#FCC42F"/>
<path d="M204.948 7.55725H169.74L181.87 28.1406L169.74 52.9114H222.083V24.4062C222.083 15.1145 214.396 7.55725 204.948 7.55725Z" fill="#FCC42F"/>
<path d="M209.906 41.3438H208.703C208.604 41.3438 208.51 41.3542 208.417 41.3698C208.979 35.1094 209.849 25.4532 210.266 21.0782C210.312 20.6303 209.984 20.2344 209.536 20.1928C209.083 20.1459 208.698 20.4792 208.656 20.9219C208.005 27.6407 206.302 46.823 206.286 47.0157C206.255 47.3438 205.937 47.6094 205.568 47.6094H192.474C192.104 47.6094 191.792 47.3438 191.76 47.0157C191.74 46.823 190.036 27.6407 189.391 20.9219C189.349 20.4792 188.958 20.1459 188.505 20.1928C188.057 20.2344 187.729 20.6303 187.776 21.0782C188.193 25.4532 189.062 35.1094 189.625 41.3698C189.531 41.349 189.437 41.3386 189.339 41.3386H188.141C187.359 41.3386 186.729 41.9688 186.729 42.7448V47.8178C186.729 48.599 187.359 49.2292 188.141 49.2292H189.339C189.922 49.2292 190.427 48.8698 190.635 48.3646C191.068 48.8959 191.729 49.2292 192.474 49.2292H205.568C206.312 49.2292 206.974 48.8959 207.406 48.3646C207.615 48.875 208.12 49.2344 208.703 49.2344H209.906C210.682 49.2344 211.312 48.599 211.312 47.823V42.75C211.312 41.974 210.682 41.3438 209.906 41.3438Z" fill="#1C1C1B"/>
<path d="M193.969 24.802V27.0937H194.641C195.031 27.0937 195.245 26.9114 195.245 26.3593V25.7083C195.245 25.0156 195.021 24.802 194.49 24.802H193.969ZM193.969 21.7604V23.7343H194.427C194.865 23.7343 195.13 23.5416 195.13 22.9479V22.5312C195.13 21.9948 194.948 21.7604 194.531 21.7604H193.969ZM196.302 22.4114V22.677C196.302 23.4479 196.068 23.927 195.547 24.1718V24.1927C196.172 24.4375 196.417 24.9948 196.417 25.7812V26.3906C196.417 27.5416 195.812 28.1562 194.641 28.1562H192.792V20.6979H194.562C195.776 20.6979 196.302 21.2604 196.302 22.4114Z" fill="#1C1C1B"/>
<path d="M198.458 25.7916H199.589L199.031 22.0156H199.01L198.458 25.7916ZM201.135 28.1562H199.948L199.75 26.802H198.307L198.104 28.1562H197.031L198.224 20.6979H199.938" fill="#1C1C1B"/>
<path d="M205.281 25.375V26.3646C205.281 27.5625 204.687 28.2448 203.536 28.2448C202.38 28.2448 201.786 27.5625 201.786 26.3646V22.4844C201.786 21.2917 202.38 20.6094 203.536 20.6094C204.687 20.6094 205.281 21.2917 205.281 22.4844V23.2083H204.172V22.4115C204.172 21.8802 203.937 21.6771 203.568 21.6771C203.193 21.6771 202.958 21.8802 202.958 22.4115V26.4427C202.958 26.974 203.193 27.1667 203.568 27.1667C203.937 27.1667 204.172 26.974 204.172 26.4427V25.375" fill="#1C1C1B"/>
<path d="M196.323 30.8855V36.2188H196.984C197.359 36.2188 197.583 36.0261 197.583 35.4896V31.6094C197.583 31.0782 197.359 30.8855 196.984 30.8855H196.323ZM195.151 29.8177H197.005C198.182 29.8177 198.755 30.4688 198.755 31.6667V35.4375C198.755 36.6355 198.182 37.2813 197.005 37.2813H195.151" fill="#1C1C1B"/>
<path d="M200.891 32.9635H202.5V34.0312H200.891V36.2187H202.917V37.2812H199.719V29.8229H202.917V30.8854H200.891" fill="#1C1C1B"/>
<path d="M193.786 38.9427H197.411V40.0105H196.187V46.4063H195.01V40.0105H193.786" fill="#1C1C1B"/>
<path d="M199.312 40.0105V42.3021H199.771C200.203 42.3021 200.474 42.1094 200.474 41.5157V40.7813C200.474 40.2448 200.292 40.0105 199.875 40.0105H199.312ZM200.589 46.4063C200.526 46.2136 200.484 46.099 200.484 45.4896V44.3177C200.484 43.625 200.25 43.3698 199.714 43.3698H199.312V46.4063H198.135V38.9427H199.906C201.125 38.9427 201.646 39.5105 201.646 40.6615V41.25C201.646 42.0157 201.396 42.5052 200.88 42.75V42.7709C201.464 43.0157 201.656 43.573 201.656 44.349V45.5C201.656 45.8646 201.667 46.1302 201.781 46.4063" fill="#1C1C1B"/>
<path d="M202.641 46.4063H203.813V38.9427H202.641V46.4063Z" fill="#1C1C1B"/>
<path d="M210.745 17.2969H187.297V15.349C187.297 15.2813 187.328 15.25 187.323 15.25H189.021C189.208 15.25 189.396 15.1771 189.542 15.0521L191.667 13.1927C191.76 13.1094 191.995 13.0208 192.286 13.0208H205.755C206.047 13.0208 206.281 13.1094 206.375 13.1927L208.5 15.0521C208.646 15.1771 208.833 15.25 209.026 15.25H210.719C210.714 15.25 210.745 15.2813 210.745 15.349V17.2969ZM210.719 13.6615H209.323L207.417 12C207.01 11.6406 206.406 11.4375 205.755 11.4375H192.286C191.641 11.4375 191.036 11.6406 190.625 12L188.719 13.6615H187.323C186.432 13.6615 185.714 14.4167 185.714 15.349V17.4896C185.714 17.7917 185.786 18.0833 185.932 18.3438C185.99 18.4531 186.078 18.5469 186.187 18.6198C186.443 18.7917 186.745 18.8802 187.052 18.8802H210.99C211.297 18.8802 211.599 18.7917 211.859 18.6198C211.964 18.5469 212.052 18.4531 212.109 18.3438C212.255 18.0833 212.328 17.7917 212.328 17.4896V15.349C212.328 14.4167 211.609 13.6615 210.719 13.6615Z" fill="#1C1C1B"/>
<path d="M205.75 13.7604H192.292C191.922 13.7604 191.62 14.0625 191.62 14.427C191.62 14.802 191.922 15.0989 192.292 15.0989H205.75C206.12 15.0989 206.422 14.802 206.422 14.427C206.422 14.0625 206.12 13.7604 205.75 13.7604Z" fill="#1C1C1B"/>
<path d="M102.901 5.66663H50.1145V36.0625C50.1145 46.3958 58.6458 54.802 69.1353 54.802H121.927V24.4062C121.927 14.0729 113.391 5.66663 102.901 5.66663Z" fill="#FCC42F"/>
<path d="M63.651 29.3594C58.8489 29.3594 54.9583 33.25 54.9583 38.0521C54.9583 42.8542 58.8489 46.7448 63.651 46.7448C68.4583 46.7448 72.3489 42.8542 72.3489 38.0521C72.3489 33.25 68.4583 29.3594 63.651 29.3594Z" fill="white"/>
<path d="M69.3229 39.4688H65.0729V43.7188H62.2344V39.4688H57.9844V36.6355H62.2344V32.3802H65.0729V36.6355H69.3229" fill="#1C1C1B"/>
<path d="M55.7864 26.5937V17.1979H58.2708V24.5156H61.828V26.5937" fill="#1C1C1B"/>
<path d="M62.9426 26.5937V17.1979H69.0155V19.276H65.4322V20.7552H68.4947V22.8385H65.4322V24.5156H69.1614V26.5937" fill="#1C1C1B"/>
<path d="M75.0885 26.5937V19.276H72.6041V17.1979H80.0677V19.276H77.5781V26.5937" fill="#1C1C1B"/>
<path d="M83.5521 21.4739H84.4479C85.4479 21.4739 85.9531 21.0625 85.9531 20.2343C85.9531 19.8281 85.8229 19.5468 85.5677 19.3958C85.3125 19.2395 84.9375 19.1614 84.4479 19.1614H83.5521V21.4739ZM81.0625 26.5989V17.1979H84.6198C85.125 17.1979 85.6042 17.2448 86.0625 17.3385C86.5208 17.4375 86.9167 17.5989 87.2604 17.8333C87.6042 18.0625 87.875 18.375 88.0781 18.7656C88.2813 19.1562 88.3802 19.6458 88.3802 20.2343C88.3802 20.9062 88.2448 21.4687 87.9688 21.9114C87.6979 22.3541 87.3281 22.6979 86.8646 22.9531L88.901 26.5989H86.125L84.5052 23.4427H83.5521V26.5989" fill="#1C1C1B"/>
<path d="M89.8698 26.5989H92.3593V17.1979H89.8698V26.5989Z" fill="#1C1C1B"/>
<path d="M75.3801 43.276V33.8698H81.5103V35.9531H77.8697V37.75H80.9895V39.8333H77.8697V43.276" fill="#1C1C1B"/>
<path d="M84.9218 38.7031L84.7604 39.3541H86.4948L86.3385 38.7031C86.2239 38.25 86.1041 37.7604 85.9895 37.2291C85.875 36.6979 85.7604 36.1979 85.6406 35.7239H85.5833C85.4791 36.2031 85.3698 36.7083 85.2604 37.2343C85.151 37.7604 85.0364 38.25 84.9218 38.7031ZM81.3073 43.276L84.1666 33.8698H87.1718L90.0364 43.276H87.4062L86.9427 41.276H84.3125L83.8489 43.276" fill="#1C1C1B"/>
<path d="M94.5624 43.4479C93.9687 43.4479 93.3958 43.3489 92.8541 43.151C92.3072 42.9531 91.8333 42.651 91.4218 42.2552C91.0103 41.8541 90.6822 41.3541 90.4426 40.75C90.203 40.1458 90.0833 39.4479 90.0833 38.6458C90.0833 37.8541 90.2083 37.151 90.4583 36.5416C90.7083 35.927 91.0416 35.4114 91.4635 34.9948C91.8801 34.5729 92.3645 34.25 92.9114 34.0312C93.4583 33.8073 94.026 33.6979 94.6249 33.6979C95.2499 33.6979 95.8124 33.8229 96.302 34.0677C96.7968 34.3125 97.2083 34.6041 97.5468 34.9427L96.2447 36.5312C96.0155 36.3333 95.776 36.1666 95.5312 36.0312C95.2812 35.9062 94.9999 35.8385 94.6822 35.8385C94.401 35.8385 94.1405 35.901 93.8958 36.026C93.651 36.151 93.4322 36.3333 93.2447 36.5625C93.0572 36.7916 92.9062 37.0781 92.7968 37.4166C92.6822 37.75 92.6301 38.1354 92.6301 38.5573C92.6301 39.4479 92.8124 40.125 93.1874 40.5989C93.5572 41.0677 94.0468 41.3073 94.651 41.3073C95.0208 41.3073 95.3437 41.2291 95.6301 41.0677C95.9114 40.9062 96.1562 40.7187 96.3593 40.4948L97.6614 42.0573C97.2551 42.5208 96.7916 42.8698 96.2655 43.0989C95.7395 43.3333 95.1718 43.4479 94.5624 43.4479Z" fill="#1C1C1B"/>
<path d="M98.6198 43.276H101.104V33.8698H98.6198V43.276Z" fill="#1C1C1B"/>
<path d="M102.875 43.276V33.8698H105.365V41.1927H108.922V43.276" fill="#1C1C1B"/>
<path d="M110.031 43.276V33.8698H116.109V35.9531H112.521V37.4323H115.589V39.5156H112.521V41.1927H116.255V43.276" fill="#1C1C1B"/>
<path d="M28.4062 25.7448C26.7135 28.2343 28.151 31.5104 29.8958 33.1718C31.4895 34.6823 32.7655 35.0364 32.9322 35.0781L33.7447 33.5208L36.0885 39.9323L29.4635 41.2812L30.3437 39.6458L29.4478 39.1458C26.6562 37.3281 26.0676 34.8593 25.8749 34.0885C25.5416 32.7604 25.0468 28.7864 28.4062 25.7448Z" fill="#1C1C1B"/>
<path d="M28.375 25.8489C29.5781 28.6093 33.1146 29.1406 35.4479 28.552C37.5208 28.026 38.5052 27.1718 38.6719 27.0156L38.6615 27L37.776 25.4635L44.4427 26.9218L42.0313 33.2395L41.1354 31.6458L40.2656 32.1198C37.2396 33.5104 34.8333 32.6927 34.0781 32.4427C32.7813 32.0156 29.1562 30.3125 28.375 25.8489Z" fill="#1C1C1B"/>
<path d="M40.1613 19.1927C39.6978 22.4895 37.7134 24.0729 37.0936 24.5729C36.0311 25.4375 32.6457 27.5677 28.4634 25.8177C31.4373 26.2916 33.7967 23.6041 34.5571 21.3177C35.2446 19.2656 35.0415 17.9687 34.9998 17.7708L34.979 17.7656L33.2134 17.6927L38.0259 12.8541L42.0519 18.2864L40.2342 18.1823" fill="#1C1C1B"/>
<path fill-rule="evenodd" clip-rule="evenodd" d="M19.9375 16.4115C18.4167 16.4115 17.1875 15.1823 17.1875 13.6563C17.1875 12.1354 18.4167 10.9062 19.9375 10.9062C21.4583 10.9062 22.6927 12.1354 22.6927 13.6563C22.6927 15.1823 21.4583 16.4115 19.9375 16.4115Z" fill="#1C1C1B"/>
<path d="M15.6771 29.7968C15.9115 29.151 16.2604 29.1927 16.2604 29.1927C16.2604 29.1927 16.5781 29.125 16.7552 29.7708L19.3281 38.8073C17.1823 38.1823 15.224 37.1198 13.5573 35.7083L15.6771 29.7968ZM23.7031 5.66663C13.7604 5.66663 5.67188 13.7552 5.67188 23.6979C5.67188 33.6406 13.7604 41.7291 23.7031 41.7291C24.2344 41.7291 24.7552 41.6979 25.276 41.651L25.3958 43.4635L28.6979 40.2708L25.0052 37.4531L25.1458 39.3541C24.6719 39.401 24.1875 39.4323 23.7031 39.4323C22.9375 39.4323 22.1875 39.375 21.4531 39.2656L21.3802 38.7864L19.6667 24.1875C19.4323 21.4323 21.0052 20.9948 21.9792 21.4062L27.4479 23.6041C28.0729 23.875 28.375 23.3489 28.375 23.3489C28.375 23.3489 28.7292 22.802 28.0938 22.3958C28.0938 22.3958 20.6406 17.4583 19.0521 17.1562C16.8854 16.7552 14.7396 18.5104 14.2656 20.7968L11.6198 33.7604C9.34375 31.0312 7.96875 27.5208 7.96875 23.6979C7.96875 15.0208 15.026 7.9635 23.7031 7.9635C28.3385 7.9635 32.5104 9.97913 35.3906 13.177L37.0052 11.5364C33.7083 7.93225 28.9635 5.66663 23.7031 5.66663Z" fill="#1C1C1B"/>
<path d="M156.001 18.8077C155.522 23.8613 154.465 28.2667 152.859 31.8911C152.155 33.4934 151.267 35.0257 150.494 35.9944L150.483 36.0092L136.309 32.9777C136.571 32.6352 136.884 32.1969 137.112 31.8506C139.716 27.9278 141.355 22.6863 141.856 16.6935C141.937 15.7137 141.993 14.0341 141.982 13.058L156.203 16.0894C156.166 16.7229 156.06 18.1779 156.001 18.8077ZM156.793 15.2496L141.588 12.0119C141.444 11.9787 141.297 12.0156 141.182 12.115C141.072 12.2071 141.013 12.3507 141.017 12.4981L141.028 12.6491C141.068 13.3931 141.009 15.5074 140.917 16.6161C140.427 22.4506 138.843 27.5374 136.328 31.3313C136.029 31.7733 135.591 32.381 135.326 32.7089L135.105 32.9888C135.002 33.114 134.972 33.2871 135.027 33.4382C135.083 33.5929 135.215 33.707 135.374 33.7402L150.564 36.989C150.601 36.9963 150.63 37 150.663 37C150.807 37 150.94 36.9374 151.032 36.8232L151.227 36.5838C152.052 35.5561 152.984 33.9428 153.721 32.2705C155.367 28.554 156.45 24.0529 156.94 18.8925C157.003 18.1963 157.128 16.513 157.154 15.9789L157.165 15.7321C157.172 15.5 157.014 15.2975 156.793 15.2496Z" fill="#1C1C1B"/>
<path d="M143.941 21.1356L149.345 22.178C149.363 22.1817 149.378 22.1817 149.393 22.1817C149.503 22.1817 149.603 22.1043 149.621 21.9938C149.647 21.8649 149.566 21.7397 149.437 21.7176L144.03 20.6715C143.893 20.6457 143.779 20.7304 143.753 20.8593C143.728 20.9883 143.812 21.1098 143.941 21.1356Z" fill="#1C1C1B"/>
<path d="M143.577 22.6421L148.98 23.6845C148.995 23.6882 149.01 23.6882 149.024 23.6882C149.135 23.6882 149.234 23.6109 149.256 23.4967C149.282 23.3714 149.197 23.2462 149.069 23.2204L143.665 22.178C143.525 22.1522 143.411 22.237 143.389 22.3659C143.363 22.4948 143.448 22.6163 143.577 22.6421Z" fill="#1C1C1B"/>
<path d="M143.19 24.1596L148.593 25.202C148.608 25.2057 148.623 25.2057 148.638 25.2057C148.748 25.2057 148.851 25.1283 148.87 25.0141C148.895 24.8889 148.811 24.7637 148.685 24.7379L143.278 23.6955C143.146 23.6697 143.028 23.7544 143.002 23.8833C142.976 24.0086 143.061 24.1338 143.19 24.1596Z" fill="#1C1C1B"/>
<path d="M142.752 25.6036L148.155 26.646C148.173 26.6496 148.188 26.6533 148.203 26.6533C148.313 26.6533 148.413 26.5723 148.431 26.4618C148.457 26.3329 148.376 26.2076 148.247 26.1855L142.844 25.1395C142.704 25.1137 142.589 25.1984 142.567 25.3273C142.542 25.4562 142.626 25.5778 142.752 25.6036Z" fill="#1C1C1B"/>
<path d="M152.652 30.2299L140.07 27.5595C139.937 27.5337 139.82 27.6147 139.79 27.74C139.764 27.8689 139.845 27.9941 139.974 28.0199L152.557 30.6904C152.575 30.694 152.59 30.6977 152.605 30.6977C152.715 30.6977 152.811 30.6204 152.837 30.5099C152.862 30.3846 152.781 30.2557 152.652 30.2299Z" fill="#1C1C1B"/>
<path d="M151.603 22.6826L152.991 22.9699C153.006 22.9736 153.025 22.9773 153.039 22.9773C153.15 22.9773 153.246 22.8999 153.271 22.7894C153.297 22.6605 153.216 22.5353 153.087 22.5095L151.699 22.2222C151.577 22.1927 151.448 22.2774 151.422 22.4027C151.396 22.5316 151.478 22.6568 151.603 22.6826Z" fill="#1C1C1B"/>
<path d="M151.238 24.1891L152.627 24.4765C152.642 24.4801 152.656 24.4801 152.671 24.4801C152.781 24.4801 152.881 24.4065 152.903 24.296C152.929 24.167 152.848 24.0418 152.719 24.016L151.334 23.725C151.209 23.6956 151.083 23.7803 151.054 23.9092C151.028 24.0344 151.109 24.1597 151.238 24.1891Z" fill="#1C1C1B"/>
<path d="M150.851 25.703L152.24 25.994C152.255 25.9977 152.273 25.9977 152.288 25.9977C152.398 25.9977 152.494 25.924 152.52 25.8098C152.546 25.6846 152.465 25.5593 152.336 25.5335L150.947 25.2426C150.826 25.2131 150.697 25.2978 150.667 25.4267C150.641 25.552 150.726 25.6772 150.851 25.703Z" fill="#1C1C1B"/>
<path d="M150.413 27.1506L151.802 27.4379C151.816 27.4416 151.835 27.4452 151.85 27.4452C151.96 27.4452 152.056 27.3679 152.082 27.2574C152.107 27.1285 152.026 27.0032 151.897 26.9775L150.509 26.6865C150.384 26.657 150.258 26.7417 150.233 26.8706C150.207 26.9959 150.288 27.1248 150.413 27.1506Z" fill="#1C1C1B"/>
<path d="M150.464 31.7033L149.076 31.4123C148.951 31.3828 148.825 31.4676 148.796 31.5928C148.77 31.7217 148.851 31.8469 148.98 31.8727L150.369 32.1637C150.383 32.1674 150.402 32.1674 150.417 32.1674C150.523 32.1674 150.623 32.0937 150.649 31.9795C150.674 31.8543 150.593 31.7291 150.464 31.7033Z" fill="#1C1C1B"/>
<path d="M136.65 44.872H137.162C137.391 44.872 137.575 44.8027 137.714 44.664C137.858 44.5253 137.93 44.3093 137.93 44.016C137.93 43.728 137.868 43.5093 137.746 43.36C137.623 43.2107 137.418 43.136 137.13 43.136H136.65V44.872ZM135.498 42.288H137.514C137.807 42.288 138.052 42.3387 138.25 42.44C138.452 42.536 138.615 42.664 138.738 42.824C138.86 42.984 138.948 43.168 139.002 43.376C139.055 43.5787 139.082 43.7867 139.082 44C139.082 44.2933 139.036 44.5493 138.946 44.768C138.86 44.9867 138.738 45.1653 138.578 45.304C138.423 45.4427 138.234 45.5467 138.01 45.616C137.786 45.6853 137.538 45.72 137.266 45.72H136.65V48H135.498V42.288ZM141.733 45.848L141.181 43.28H141.165L140.613 45.848H141.733ZM141.885 42.288L143.397 48H142.197L141.933 46.792H140.413L140.149 48H138.949L140.461 42.288H141.885ZM144.947 44.872H145.459C145.688 44.872 145.872 44.8027 146.011 44.664C146.155 44.5253 146.227 44.3093 146.227 44.016C146.227 43.728 146.165 43.5093 146.043 43.36C145.92 43.2107 145.715 43.136 145.427 43.136H144.947V44.872ZM143.795 42.288H145.811C146.104 42.288 146.349 42.3387 146.547 42.44C146.749 42.536 146.912 42.664 147.035 42.824C147.157 42.984 147.245 43.168 147.299 43.376C147.352 43.5787 147.379 43.7867 147.379 44C147.379 44.2933 147.333 44.5493 147.243 44.768C147.157 44.9867 147.035 45.1653 146.875 45.304C146.72 45.4427 146.531 45.5467 146.307 45.616C146.083 45.6853 145.835 45.72 145.563 45.72H144.947V48H143.795V42.288ZM147.999 48V42.288H149.151V48H147.999ZM153.197 42.288V43.232H151.157V44.576H153.077V45.52H151.157V47.056H153.277V48H150.005V42.288H153.197ZM153.857 42.288H155.985C156.465 42.288 156.838 42.4107 157.105 42.656C157.372 42.896 157.505 43.264 157.505 43.76C157.505 44.144 157.428 44.4587 157.273 44.704C157.118 44.944 156.878 45.0987 156.553 45.168V45.184C156.841 45.2267 157.052 45.32 157.185 45.464C157.318 45.608 157.401 45.84 157.433 46.16C157.444 46.2667 157.452 46.384 157.457 46.512C157.462 46.6347 157.468 46.7733 157.473 46.928C157.484 47.232 157.5 47.464 157.521 47.624C157.553 47.784 157.622 47.8933 157.729 47.952V48H156.481C156.422 47.92 156.385 47.8293 156.369 47.728C156.353 47.6213 156.342 47.512 156.337 47.4L156.305 46.304C156.294 46.08 156.238 45.904 156.137 45.776C156.036 45.648 155.865 45.584 155.625 45.584H155.009V48H153.857V42.288ZM155.009 44.784H155.489C155.766 44.784 155.98 44.72 156.129 44.592C156.278 44.4587 156.353 44.2373 156.353 43.928C156.353 43.4 156.086 43.136 155.553 43.136H155.009V44.784Z" fill="#1C1C1B"/>
</g>
<defs>
<clipPath id="clip0_25_7344">
<rect width="230" height="61" fill="white"/>
</clipPath>
</defs>
</svg>
