<svg width="235" height="61" viewBox="0 0 235 61" fill="none" xmlns="http://www.w3.org/2000/svg">
<g clip-path="url(#clip0_79_960)">
<path d="M24.6979 60.4688C11.0781 60.4688 0 49.5208 0 36.0625V0H209.948C223.563 0 234.641 10.9479 234.641 24.4062V60.4688" fill="white"/>
<path d="M222.083 52.9113H69.1353C59.6874 52.9113 51.9999 45.354 51.9999 36.0623V7.55713H204.948C214.396 7.55713 222.083 15.1144 222.083 24.4061V52.9113ZM204.948 5.6665H50.1145V36.0623C50.1145 46.3957 58.6458 54.8019 69.1353 54.8019H223.969V24.4061C223.969 14.0728 215.437 5.6665 204.948 5.6665Z" fill="#333347"/>
<path d="M171.714 54.8019L184.724 28.2238L171.432 5.6665H209.948C220.437 5.6665 228.969 14.0728 228.969 24.4061V54.8019" fill="#333347"/>
<path d="M102.901 5.6665H50.1145V36.0623C50.1145 46.3957 58.6458 54.8019 69.1353 54.8019H121.927V24.4061C121.927 14.0728 113.391 5.6665 102.901 5.6665Z" fill="#333347"/>
<path d="M63.651 29.3594C58.8489 29.3594 54.9583 33.25 54.9583 38.0521C54.9583 42.8542 58.8489 46.7448 63.651 46.7448C68.4583 46.7448 72.3489 42.8542 72.3489 38.0521C72.3489 33.25 68.4583 29.3594 63.651 29.3594Z" fill="white"/>
<path d="M69.3229 39.4689H65.0729V43.7189H62.2344V39.4689H57.9844V36.6356H62.2344V32.3804H65.0729V36.6356H69.3229" fill="#1C1C1B"/>
<path d="M55.7864 26.5936V17.1978H58.2708V24.5155H61.828V26.5936" fill="white"/>
<path d="M62.9426 26.5936V17.1978H69.0155V19.2759H65.4322V20.755H68.4947V22.8384H65.4322V24.5155H69.1614V26.5936" fill="white"/>
<path d="M75.0885 26.5936V19.2759H72.6041V17.1978H80.0677V19.2759H77.5781V26.5936" fill="white"/>
<path d="M83.5521 21.4738H84.4479C85.4479 21.4738 85.9531 21.0623 85.9531 20.2342C85.9531 19.828 85.8229 19.5467 85.5677 19.3957C85.3125 19.2394 84.9375 19.1613 84.4479 19.1613H83.5521V21.4738ZM81.0625 26.5988V17.1978H84.6198C85.125 17.1978 85.6042 17.2446 86.0625 17.3384C86.5208 17.4373 86.9167 17.5988 87.2604 17.8332C87.6042 18.0623 87.875 18.3748 88.0781 18.7655C88.2813 19.1561 88.3802 19.6457 88.3802 20.2342C88.3802 20.9061 88.2448 21.4686 87.9688 21.9113C87.6979 22.354 87.3281 22.6978 86.8646 22.953L88.901 26.5988H86.125L84.5052 23.4425H83.5521V26.5988" fill="white"/>
<path d="M89.8698 26.5988H92.3593V17.1978H89.8698V26.5988Z" fill="white"/>
<path d="M75.3801 43.2759V33.8696H81.5103V35.953H77.8697V37.7498H80.9895V39.8332H77.8697V43.2759" fill="white"/>
<path d="M84.9218 38.703L84.7604 39.354H86.4948L86.3385 38.703C86.2239 38.2498 86.1041 37.7603 85.9895 37.229C85.875 36.6978 85.7604 36.1978 85.6406 35.7238H85.5833C85.4791 36.203 85.3698 36.7082 85.2604 37.2342C85.151 37.7603 85.0364 38.2498 84.9218 38.703ZM81.3073 43.2759L84.1666 33.8696H87.1718L90.0364 43.2759H87.4062L86.9427 41.2759H84.3125L83.8489 43.2759" fill="white"/>
<path d="M94.5624 43.4478C93.9687 43.4478 93.3958 43.3488 92.8541 43.1509C92.3072 42.953 91.8333 42.6509 91.4218 42.255C91.0103 41.854 90.6822 41.354 90.4426 40.7498C90.203 40.1457 90.0833 39.4478 90.0833 38.6457C90.0833 37.854 90.2083 37.1509 90.4583 36.5415C90.7083 35.9269 91.0416 35.4113 91.4635 34.9946C91.8801 34.5728 92.3645 34.2498 92.9114 34.0311C93.4583 33.8071 94.026 33.6978 94.6249 33.6978C95.2499 33.6978 95.8124 33.8228 96.302 34.0675C96.7968 34.3123 97.2083 34.604 97.5468 34.9425L96.2447 36.5311C96.0155 36.3332 95.776 36.1665 95.5312 36.0311C95.2812 35.9061 94.9999 35.8384 94.6822 35.8384C94.401 35.8384 94.1405 35.9009 93.8958 36.0259C93.651 36.1509 93.4322 36.3332 93.2447 36.5623C93.0572 36.7915 92.9062 37.078 92.7968 37.4165C92.6822 37.7498 92.6301 38.1353 92.6301 38.5571C92.6301 39.4478 92.8124 40.1248 93.1874 40.5988C93.5572 41.0675 94.0468 41.3071 94.651 41.3071C95.0208 41.3071 95.3437 41.229 95.6301 41.0675C95.9114 40.9061 96.1562 40.7186 96.3593 40.4946L97.6614 42.0571C97.2551 42.5207 96.7916 42.8696 96.2655 43.0988C95.7395 43.3332 95.1718 43.4478 94.5624 43.4478Z" fill="white"/>
<path d="M98.6198 43.2759H101.104V33.8696H98.6198V43.2759Z" fill="white"/>
<path d="M102.875 43.2759V33.8696H105.365V41.1925H108.922V43.2759" fill="white"/>
<path d="M110.031 43.2759V33.8696H116.109V35.953H112.521V37.4321H115.589V39.5155H112.521V41.1925H116.255V43.2759" fill="white"/>
<path d="M28.4062 25.7446C26.7135 28.2342 28.151 31.5103 29.8958 33.1717C31.4895 34.6821 32.7655 35.0363 32.9322 35.078L33.7447 33.5207L36.0885 39.9321L29.4635 41.2811L30.3437 39.6457L29.4478 39.1457C26.6562 37.328 26.0676 34.8592 25.8749 34.0884C25.5416 32.7603 25.0468 28.7863 28.4062 25.7446Z" fill="#333347"/>
<path d="M28.375 25.8488C29.5781 28.6092 33.1146 29.1405 35.4479 28.5519C37.5208 28.0259 38.5052 27.1717 38.6719 27.0155L38.6615 26.9998L37.776 25.4634L44.4427 26.9217L42.0313 33.2394L41.1354 31.6457L40.2656 32.1196C37.2396 33.5103 34.8333 32.6925 34.0781 32.4425C32.7813 32.0155 29.1562 30.3123 28.375 25.8488Z" fill="#333347"/>
<path d="M40.1613 19.1925C39.6978 22.4894 37.7134 24.0728 37.0936 24.5728C36.0311 25.4373 32.6457 27.5675 28.4634 25.8175C31.4373 26.2915 33.7967 23.604 34.5571 21.3175C35.2446 19.2655 35.0415 17.9686 34.9998 17.7707L34.979 17.7655L33.2134 17.6925L38.0259 12.854L42.0519 18.2863L40.2342 18.1821" fill="#333347"/>
<path fill-rule="evenodd" clip-rule="evenodd" d="M19.9375 16.4115C18.4167 16.4115 17.1875 15.1823 17.1875 13.6563C17.1875 12.1354 18.4167 10.9062 19.9375 10.9062C21.4583 10.9062 22.6927 12.1354 22.6927 13.6563C22.6927 15.1823 21.4583 16.4115 19.9375 16.4115Z" fill="#333347"/>
<path d="M15.6771 29.7967C15.9115 29.1509 16.2604 29.1925 16.2604 29.1925C16.2604 29.1925 16.5781 29.1248 16.7552 29.7707L19.3281 38.8071C17.1823 38.1821 15.224 37.1196 13.5573 35.7082L15.6771 29.7967ZM23.7031 5.6665C13.7604 5.6665 5.67188 13.755 5.67188 23.6978C5.67188 33.6405 13.7604 41.729 23.7031 41.729C24.2344 41.729 24.7552 41.6978 25.276 41.6509L25.3958 43.4634L28.6979 40.2707L25.0052 37.453L25.1458 39.354C24.6719 39.4009 24.1875 39.4321 23.7031 39.4321C22.9375 39.4321 22.1875 39.3748 21.4531 39.2655L21.3802 38.7863L19.6667 24.1873C19.4323 21.4321 21.0052 20.9946 21.9792 21.4061L27.4479 23.604C28.0729 23.8748 28.375 23.3488 28.375 23.3488C28.375 23.3488 28.7292 22.8019 28.0938 22.3957C28.0938 22.3957 20.6406 17.4582 19.0521 17.1561C16.8854 16.755 14.7396 18.5103 14.2656 20.7967L11.6198 33.7603C9.34375 31.0311 7.96875 27.5207 7.96875 23.6978C7.96875 15.0207 15.026 7.96338 23.7031 7.96338C28.3385 7.96338 32.5104 9.979 35.3906 13.1769L37.0052 11.5363C33.7083 7.93213 28.9635 5.6665 23.7031 5.6665Z" fill="#333347"/>
<path d="M129.6 18.432H132.792C133.512 18.432 134.072 18.616 134.472 18.984C134.872 19.344 135.072 19.896 135.072 20.64C135.072 21.216 134.956 21.688 134.724 22.056C134.492 22.416 134.132 22.648 133.644 22.752V22.776C134.076 22.84 134.392 22.98 134.592 23.196C134.792 23.412 134.916 23.76 134.964 24.24C134.98 24.4 134.992 24.576 135 24.768C135.008 24.952 135.016 25.16 135.024 25.392C135.04 25.848 135.064 26.196 135.096 26.436C135.144 26.676 135.248 26.84 135.408 26.928V27H133.536C133.448 26.88 133.392 26.744 133.368 26.592C133.344 26.432 133.328 26.268 133.32 26.1L133.272 24.456C133.256 24.12 133.172 23.856 133.02 23.664C132.868 23.472 132.612 23.376 132.252 23.376H131.328V27H129.6V18.432ZM131.328 22.176H132.048C132.464 22.176 132.784 22.08 133.008 21.888C133.232 21.688 133.344 21.356 133.344 20.892C133.344 20.1 132.944 19.704 132.144 19.704H131.328V22.176ZM139.844 23.772L139.016 19.92H138.992L138.164 23.772H139.844ZM140.072 18.432L142.34 27H140.54L140.144 25.188H137.864L137.468 27H135.668L137.936 18.432H140.072ZM144.328 24.324V24.576C144.328 24.776 144.344 24.96 144.376 25.128C144.408 25.288 144.468 25.424 144.556 25.536C144.644 25.648 144.76 25.736 144.904 25.8C145.056 25.864 145.244 25.896 145.468 25.896C145.732 25.896 145.968 25.812 146.176 25.644C146.392 25.468 146.5 25.2 146.5 24.84C146.5 24.648 146.472 24.484 146.416 24.348C146.368 24.204 146.284 24.076 146.164 23.964C146.044 23.852 145.884 23.752 145.684 23.664C145.492 23.568 145.252 23.472 144.964 23.376C144.58 23.248 144.248 23.108 143.968 22.956C143.688 22.804 143.452 22.628 143.26 22.428C143.076 22.22 142.94 21.984 142.852 21.72C142.764 21.448 142.72 21.136 142.72 20.784C142.72 19.936 142.956 19.304 143.428 18.888C143.9 18.472 144.548 18.264 145.372 18.264C145.756 18.264 146.108 18.308 146.428 18.396C146.756 18.476 147.036 18.612 147.268 18.804C147.508 18.988 147.692 19.228 147.82 19.524C147.956 19.812 148.024 20.16 148.024 20.568V20.808H146.368C146.368 20.4 146.296 20.088 146.152 19.872C146.008 19.648 145.768 19.536 145.432 19.536C145.24 19.536 145.08 19.564 144.952 19.62C144.824 19.676 144.72 19.752 144.64 19.848C144.568 19.936 144.516 20.04 144.484 20.16C144.46 20.28 144.448 20.404 144.448 20.532C144.448 20.796 144.504 21.02 144.616 21.204C144.728 21.38 144.968 21.544 145.336 21.696L146.668 22.272C146.996 22.416 147.264 22.568 147.472 22.728C147.68 22.88 147.844 23.048 147.964 23.232C148.092 23.408 148.18 23.604 148.228 23.82C148.276 24.036 148.3 24.276 148.3 24.54C148.3 25.444 148.036 26.104 147.508 26.52C146.988 26.928 146.26 27.132 145.324 27.132C144.348 27.132 143.648 26.92 143.224 26.496C142.808 26.072 142.6 25.464 142.6 24.672V24.324H144.328ZM150.707 22.716C150.707 23.292 150.719 23.784 150.743 24.192C150.775 24.592 150.831 24.92 150.911 25.176C150.999 25.424 151.119 25.608 151.271 25.728C151.431 25.84 151.639 25.896 151.895 25.896C152.151 25.896 152.355 25.84 152.507 25.728C152.667 25.608 152.787 25.424 152.867 25.176C152.955 24.92 153.011 24.592 153.035 24.192C153.067 23.784 153.083 23.292 153.083 22.716C153.083 22.14 153.067 21.652 153.035 21.252C153.011 20.852 152.955 20.524 152.867 20.268C152.787 20.012 152.667 19.828 152.507 19.716C152.355 19.596 152.151 19.536 151.895 19.536C151.639 19.536 151.431 19.596 151.271 19.716C151.119 19.828 150.999 20.012 150.911 20.268C150.831 20.524 150.775 20.852 150.743 21.252C150.719 21.652 150.707 22.14 150.707 22.716ZM148.979 22.716C148.979 22.068 149.007 21.472 149.063 20.928C149.127 20.376 149.259 19.904 149.459 19.512C149.667 19.12 149.963 18.816 150.347 18.6C150.731 18.376 151.247 18.264 151.895 18.264C152.543 18.264 153.059 18.376 153.443 18.6C153.827 18.816 154.119 19.12 154.319 19.512C154.527 19.904 154.659 20.376 154.715 20.928C154.779 21.472 154.811 22.068 154.811 22.716C154.811 23.372 154.779 23.972 154.715 24.516C154.659 25.06 154.527 25.528 154.319 25.92C154.119 26.312 153.827 26.612 153.443 26.82C153.059 27.028 152.543 27.132 151.895 27.132C151.247 27.132 150.731 27.028 150.347 26.82C149.963 26.612 149.667 26.312 149.459 25.92C149.259 25.528 149.127 25.06 149.063 24.516C149.007 23.972 148.979 23.372 148.979 22.716ZM155.911 27V18.432H157.639V27H155.911ZM158.92 18.432H162.112C162.832 18.432 163.392 18.616 163.792 18.984C164.192 19.344 164.392 19.896 164.392 20.64C164.392 21.216 164.276 21.688 164.044 22.056C163.812 22.416 163.452 22.648 162.964 22.752V22.776C163.396 22.84 163.712 22.98 163.912 23.196C164.112 23.412 164.236 23.76 164.284 24.24C164.3 24.4 164.312 24.576 164.32 24.768C164.328 24.952 164.336 25.16 164.344 25.392C164.36 25.848 164.384 26.196 164.416 26.436C164.464 26.676 164.568 26.84 164.728 26.928V27H162.856C162.768 26.88 162.712 26.744 162.688 26.592C162.664 26.432 162.648 26.268 162.64 26.1L162.592 24.456C162.576 24.12 162.492 23.856 162.34 23.664C162.188 23.472 161.932 23.376 161.572 23.376H160.648V27H158.92V18.432ZM160.648 22.176H161.368C161.784 22.176 162.104 22.08 162.328 21.888C162.552 21.688 162.664 21.356 162.664 20.892C162.664 20.1 162.264 19.704 161.464 19.704H160.648V22.176ZM134.028 33.432V39.6C134.028 40.512 133.816 41.164 133.392 41.556C132.968 41.94 132.32 42.132 131.448 42.132C130.992 42.132 130.616 42.072 130.32 41.952C130.032 41.824 129.8 41.648 129.624 41.424C129.456 41.192 129.34 40.924 129.276 40.62C129.212 40.316 129.18 39.996 129.18 39.66V39.288H130.764V39.552C130.764 40.008 130.812 40.348 130.908 40.572C131.012 40.788 131.22 40.896 131.532 40.896C131.844 40.896 132.048 40.788 132.144 40.572C132.248 40.348 132.3 40.008 132.3 39.552V33.432H134.028ZM139.943 33.432V34.848H136.883V36.864H139.763V38.28H136.883V40.584H140.063V42H135.155V33.432H139.943ZM145.948 33.432V34.848H144.076V42H142.348V34.848H140.476V33.432H145.948ZM149.617 38.772L148.789 34.92H148.765L147.937 38.772H149.617ZM149.845 33.432L152.113 42H150.313L149.917 40.188H147.637L147.241 42H145.441L147.709 33.432H149.845ZM154.437 40.728H155.109C155.525 40.728 155.861 40.636 156.117 40.452C156.373 40.268 156.501 39.928 156.501 39.432C156.501 39.184 156.465 38.98 156.393 38.82C156.329 38.652 156.237 38.52 156.117 38.424C156.005 38.32 155.869 38.248 155.709 38.208C155.549 38.168 155.373 38.148 155.181 38.148H154.437V40.728ZM154.437 36.948H154.929C155.409 36.948 155.757 36.864 155.973 36.696C156.197 36.52 156.309 36.228 156.309 35.82C156.309 35.412 156.209 35.124 156.009 34.956C155.809 34.788 155.493 34.704 155.061 34.704H154.437V36.948ZM152.709 33.432H155.601C155.953 33.432 156.277 33.468 156.573 33.54C156.877 33.612 157.137 33.732 157.353 33.9C157.569 34.068 157.737 34.292 157.857 34.572C157.977 34.852 158.037 35.196 158.037 35.604C158.037 36.068 157.929 36.468 157.713 36.804C157.497 37.132 157.173 37.356 156.741 37.476V37.5C157.221 37.564 157.601 37.768 157.881 38.112C158.161 38.456 158.301 38.916 158.301 39.492C158.301 39.828 158.257 40.148 158.169 40.452C158.081 40.756 157.929 41.024 157.713 41.256C157.505 41.48 157.229 41.66 156.885 41.796C156.549 41.932 156.129 42 155.625 42H152.709V33.432ZM159.377 42V33.432H161.105V40.584H164.165V42H159.377ZM169.72 33.432V34.848H166.66V36.864H169.54V38.28H166.66V40.584H169.84V42H164.932V33.432H169.72Z" fill="black"/>
<path fill-rule="evenodd" clip-rule="evenodd" d="M201.197 12.9917C200.489 12.7271 199.997 12.6406 199.67 12.6452C199.338 12.6499 199.233 12.7457 199.211 12.7697C199.191 12.7911 199.158 12.8426 199.156 12.9856C199.155 13.0935 199.173 13.2211 199.209 13.3514L203.625 17.6963H206.528C207.034 17.0728 208.172 15.8497 210.078 14.1794C210.602 13.7203 210.792 13.4037 210.848 13.2371C210.879 13.1441 210.868 13.1284 210.843 13.0951L210.839 13.0896C210.774 13.001 210.62 12.8791 210.352 12.7673C210.11 12.6663 209.831 12.5973 209.575 12.5601C209.389 12.5649 209.251 12.6081 209.006 12.6965L208.957 12.7142C208.87 12.7457 208.807 12.7781 208.743 12.811C208.611 12.8791 208.474 12.9492 208.116 13.0172C207.548 13.1251 207.141 13.1334 206.683 13.0237C206.386 12.9524 206.057 12.826 205.66 12.6733L205.66 12.6732L205.66 12.6732C205.522 12.6199 205.375 12.5634 205.218 12.505L205.215 12.5046C205.205 12.5034 205.171 12.4992 205.103 12.5017C205.005 12.5053 204.878 12.5207 204.721 12.5484C204.412 12.603 204.047 12.694 203.66 12.7904L203.637 12.7962C203.255 12.8913 202.848 12.9925 202.508 13.0468C202.338 13.0739 202.162 13.0935 201.999 13.0896C201.986 13.0893 201.969 13.0891 201.947 13.0889H201.947C201.777 13.0872 201.364 13.0832 201.197 12.9917ZM203.237 11.3164C202.706 11.4374 201.732 11.5442 201.732 11.5442C201.164 11.5236 200.749 11.4099 200.402 11.3145C200.125 11.2386 199.891 11.1743 199.654 11.1777C199.117 11.1852 198.651 11.3462 198.316 11.7135C197.98 12.0836 197.873 12.5579 197.868 12.9653C197.863 13.3667 197.954 13.7551 198.067 14.0649L198.126 14.2248L202.043 18.0789C200.564 18.4041 198.986 19.063 197.531 20.2082C194.761 22.3897 192.542 26.2534 192.227 32.6479C192.207 33.0641 192.184 33.4866 192.161 33.912C192.068 35.6616 191.972 37.462 192.008 39.0902C192.052 41.0844 192.292 43.0034 193.107 44.3151C194.572 46.6711 196.968 47.8112 199.268 48.348C201.56 48.883 203.85 48.8422 205.268 48.7579C206.563 48.7331 208.698 48.6558 210.887 48.1961C213.067 47.7382 215.413 46.8786 217.016 45.2058C218.305 43.8598 218.744 41.8774 218.878 39.7527C218.983 38.0805 218.904 36.1896 218.823 34.2644L218.823 34.2638C218.8 33.7301 218.778 33.1937 218.759 32.6587C218.548 26.6489 216.338 22.879 213.569 20.6473C211.772 19.1991 209.772 18.4248 208.001 18.0891C208.574 17.4656 209.506 16.5318 210.863 15.3427C211.456 14.8235 211.868 14.3043 212.051 13.7626C212.256 13.1522 212.144 12.5834 211.83 12.152C211.553 11.7717 211.15 11.5369 210.794 11.3889C210.425 11.2351 210.029 11.1428 209.687 11.097L209.649 11.092H209.611C209.197 11.092 208.898 11.1959 208.617 11.2976L208.57 11.3145C208.314 11.4071 208.037 11.5078 207.597 11.5912C207.212 11.6645 207.189 11.6582 207.042 11.6184L207.042 11.6184C207.013 11.6105 206.98 11.6013 206.937 11.5912C206.72 11.539 206.496 11.4529 206.141 11.3164C206.127 11.311 206.103 11.2985 206.069 11.2814C205.905 11.1967 205.523 11 205.086 11C204.442 11 203.825 11.163 203.453 11.2614L203.453 11.2614L203.453 11.2615L203.453 11.2615C203.367 11.2841 203.295 11.3034 203.237 11.3164ZM198.478 21.4108C196.129 23.2603 194.054 26.6676 193.756 32.7231C193.735 33.1559 193.712 33.5897 193.689 34.0222C193.596 35.7668 193.504 37.492 193.538 39.0565C193.582 41.0386 193.83 42.5793 194.407 43.5068C195.575 45.3858 197.528 46.37 199.616 46.8573C201.702 47.3443 203.827 47.3108 205.192 47.2289L205.207 47.228L205.223 47.2277C206.495 47.2037 208.521 47.1289 210.572 46.6981C212.641 46.2636 214.624 45.489 215.91 44.1468C216.806 43.2119 217.221 41.7042 217.35 39.6564C217.45 38.0726 217.375 36.2919 217.295 34.3813C217.272 33.835 217.249 33.2782 217.229 32.7124C217.032 27.0884 214.989 23.7575 212.609 21.8391C210.802 20.3832 208.757 19.7053 207.07 19.4905C208.467 20.9563 210.051 22.4306 210.916 22.9628L210.114 24.2664C209.751 23.9038 209.206 23.4291 208.577 22.8815L208.577 22.8815C207.672 22.0929 206.593 21.1533 205.636 20.1804C205.589 20.8038 205.548 21.5006 205.531 22.1621C205.516 22.7319 205.52 23.2613 205.55 23.6891C205.565 23.9031 205.586 24.0802 205.611 24.218C205.624 24.2864 205.636 24.3394 205.648 24.3787C205.659 24.4162 205.666 24.4328 205.667 24.4343L205.777 25.0318L204.298 25.119C204.12 24.7626 204.055 24.2519 204.023 23.7962C203.988 23.2997 203.985 22.7161 204.001 22.123C204.013 21.6509 204.036 21.1638 204.066 20.6965C202.822 21.8971 201.513 22.9378 200.548 23.7056L200.547 23.7058L200.547 23.7061C200.412 23.8133 200.284 23.9151 200.164 24.0113L199.362 22.7076C200.212 22.115 201.785 20.8255 203.179 19.4313C201.695 19.6286 200.007 20.2073 198.478 21.4108Z" fill="white"/>
</g>
<defs>
<clipPath id="clip0_79_960">
<rect width="235" height="61" fill="white"/>
</clipPath>
</defs>
</svg>
