<svg width="427" height="71" viewBox="0 0 427 71" fill="none" xmlns="http://www.w3.org/2000/svg">
<g clip-path="url(#clip0_26_17705)">
<path d="M426.141 70.3698H83.5573C76.6354 70.3698 71 64.7396 71 57.8125V8.61462H413.589C420.51 8.61462 426.141 14.25 426.141 21.1719V70.3698ZM73.4844 11.099V57.8125C73.4844 63.3698 78.0052 67.8855 83.5573 67.8855H423.661V21.1719C423.661 15.6198 419.141 11.099 413.589 11.099" fill="#AC348E"/>
<path d="M144.109 69.276H88.448C71.0782 69.0052 72.1928 57.3385 72.2397 47.0781V10H144.109L153.724 37.1406C154.297 38.7552 154.297 40.5208 153.724 42.1354" fill="#AC348E"/>
<path d="M95.0209 8.33329C95.0209 12.1979 90.1772 15.3281 84.2084 15.3281C78.2397 15.3281 73.4011 12.1979 73.4011 8.33329C73.4011 4.46871 78.2397 1.3385 84.2084 1.3385C90.1772 1.3385 95.0209 4.46871 95.0209 8.33329Z" fill="white"/>
<path d="M84.2083 15.7448C78.0208 15.7448 72.9895 12.4219 72.9895 8.33337C72.9895 4.25004 78.0208 0.927124 84.2083 0.927124C90.3958 0.927124 95.4322 4.25004 95.4322 8.33337C95.4322 12.4219 90.3958 15.7448 84.2083 15.7448ZM84.2083 1.75525C78.4791 1.75525 73.8176 4.70837 73.8176 8.33337C73.8176 11.9636 78.4791 14.9167 84.2083 14.9167C89.9426 14.9167 94.6041 11.9636 94.6041 8.33337C94.6041 4.70837 89.9426 1.75525 84.2083 1.75525Z" fill="#AC348E"/>
<path d="M79.9688 5.85413H83.6094V6.66142H80.9688V8.18746H83.4531V8.99996H80.9688V11.427H79.9688" fill="#AC348E"/>
<path d="M89.0365 11.427H87.9688L87.2605 9.57288C87.198 9.401 87.099 9.28121 86.9688 9.2135C86.8386 9.14579 86.6667 9.10933 86.4584 9.10933H85.4532V11.427H84.448V5.85413H86.8386C87.4688 5.85413 87.948 5.98954 88.2761 6.27079C88.6042 6.54683 88.7709 6.94267 88.7709 7.45829C88.7709 7.82808 88.672 8.14579 88.474 8.401C88.2813 8.66142 88.0053 8.84371 87.6407 8.95308C87.9688 9.02079 88.2084 9.24996 88.3542 9.64058L89.0365 11.427ZM86.6928 8.32808C87.073 8.32808 87.3595 8.25517 87.5417 8.11975C87.724 7.97392 87.8178 7.76038 87.8178 7.47392C87.8178 7.19267 87.724 6.98433 87.5417 6.84371C87.3647 6.70308 87.0834 6.63538 86.6928 6.63538H85.4324V8.32808" fill="#AC348E"/>
<path d="M29.1546 5C36.5036 5.13542 43.3421 8.02083 48.988 13.7292C49.3578 14.1042 49.3838 14.3438 48.9828 14.7083C48.4151 15.2083 47.889 15.75 47.3838 16.3177C47.0609 16.6823 46.863 16.6719 46.5192 16.3125C43.8474 13.5052 40.6963 11.401 37.0453 10.0781C32.3369 8.36979 27.5348 8.0625 22.6598 9.25521C16.1703 10.8385 11.1026 14.4635 7.49318 20.0573C4.0661 25.3698 2.90464 31.2083 3.89943 37.4479C4.55568 41.5573 6.21714 45.25 8.7536 48.5469C8.82652 48.6458 8.89423 48.75 8.98277 48.8333C9.09735 48.9375 9.22756 49.026 9.35256 49.125C9.40985 48.9792 9.49839 48.8438 9.52443 48.6927C10.0557 46.1562 10.5765 43.6198 11.0973 41.0833C11.8265 37.5312 12.5609 33.974 13.2744 30.4167C13.5609 28.974 13.7953 27.5156 14.6546 26.2708C16.1807 24.0677 18.1911 22.6823 20.9567 23.1615C22.1651 23.3698 23.3369 24.0104 24.4151 24.651C28.0453 26.8073 31.6234 29.0469 35.2171 31.2656C35.9307 31.7083 36.1182 32.1771 35.8578 32.7188C35.5765 33.3021 35.0088 33.4583 34.2224 33.1458C31.5505 32.0833 28.8421 31.0938 26.2276 29.9115C23.9776 28.8958 22.2067 30.1823 22.0817 32.5365C22.0192 33.7083 22.1442 34.901 22.2744 36.0729C22.7432 40.2917 23.2588 44.5052 23.7536 48.7188C24.0921 51.5938 24.4411 54.4688 24.764 57.349C24.8213 57.8177 25.0192 58.0625 25.488 58.0677C27.0921 58.1042 28.7067 58.125 30.3161 58.1562C30.7015 58.1615 30.7901 57.9427 30.7588 57.599C30.7067 56.9688 30.6703 56.3385 30.6338 55.7083C30.6286 55.599 30.6911 55.4896 30.7171 55.3854C30.8109 55.4219 30.9151 55.4375 30.9932 55.4948C32.6494 56.75 34.3057 58.0104 35.9619 59.2708C36.238 59.4792 36.1911 59.6406 35.9671 59.8542C34.4984 61.2656 33.0296 62.6875 31.5609 64.099C31.4828 64.1771 31.363 64.2083 31.2588 64.2604C31.2276 64.1458 31.1755 64.0312 31.1651 63.9167C31.113 63.3698 31.0401 62.8177 31.0401 62.2708C31.0401 61.7656 30.8369 61.6562 30.3682 61.6927C26.9255 61.9792 23.5453 61.6042 20.264 60.5781C12.8526 58.2656 7.22756 53.7031 3.46193 46.9115C0.857766 42.2083 -0.324526 37.1146 0.0765158 31.7656C0.842141 21.5885 5.71193 13.8646 14.5036 8.69271C18.8005 6.16146 23.5088 5.03125 29.1546 5ZM21.5401 57.0625C21.4463 56.6979 21.3942 56.4792 21.3317 56.2656C20.4463 53.151 19.5609 50.0365 18.6703 46.9219C18.264 45.5104 17.863 44.099 17.4098 42.7083C17.3265 42.4427 16.9984 42.0938 16.7796 42.0885C16.5036 42.0833 16.2067 42.375 15.9567 42.5833C15.8421 42.6771 15.8057 42.8646 15.7484 43.0208C14.7015 45.9323 13.6703 48.8542 12.5973 51.7552C12.4203 52.2448 12.5453 52.4948 12.9098 52.7812C14.7484 54.2292 16.7328 55.4271 18.8942 56.3177C19.5869 56.6042 20.3057 56.8542 21.0192 57.0938C21.1651 57.1406 21.3526 57.0781 21.5401 57.0625Z" fill="#AC348E"/>
<path d="M36.9203 37.0104C41.764 36.8125 45.337 32.2395 46.1442 27.8281C46.3317 26.8125 46.363 25.7656 46.4411 24.7291C46.4828 24.2135 46.2484 23.9427 45.6859 23.9635C45.1963 23.9843 44.7067 23.9427 44.2172 23.9218C44.0765 23.9114 43.9463 23.8645 43.8109 23.8333C43.8838 23.7031 43.9307 23.5416 44.0349 23.4375C45.3995 22.0573 46.7692 20.6927 48.139 19.3177C49.014 18.4375 49.8995 17.5573 50.7692 16.6666C51.0088 16.4218 51.1495 16.401 51.3734 16.7031C53.2588 19.2656 55.1651 21.8125 57.0557 24.3698C57.1234 24.4635 57.1599 24.5833 57.2067 24.6875C57.0765 24.7187 56.9463 24.7812 56.8161 24.7812C56.2849 24.7656 55.7536 24.7604 55.2276 24.6979C54.7276 24.6406 54.5401 24.7916 54.514 25.3125C54.4151 27.427 53.8161 29.401 52.738 31.2239C49.712 36.3541 43.0349 38.9531 37.3474 37.2031C37.2015 37.1562 37.0609 37.0729 36.9203 37.0104Z" fill="#AC348E"/>
<path d="M35.3787 37.1041C33.4777 41.2083 35.561 45.6927 38.087 48.1979C39.3423 49.4427 40.7589 50.4635 42.3995 51.1614C42.9048 51.375 43.1808 51.2864 43.3943 50.7812C43.5766 50.3541 43.8058 49.9427 44.035 49.5312C44.1079 49.401 44.2433 49.3125 44.3475 49.2031C44.4152 49.3229 44.5037 49.4323 44.5506 49.5573C45.4725 52.0677 46.3891 54.5729 47.3058 57.0833C47.4777 57.5416 47.6183 58.0104 47.8162 58.4583C47.9933 58.8437 47.8891 59 47.4881 59.0833C45.5245 59.4687 43.5714 59.8698 41.6131 60.2656C40.5714 60.4739 39.535 60.6927 38.4933 60.8958C38.2798 60.9375 38.0558 60.927 37.837 60.9427C37.8995 60.7448 37.9464 60.5312 38.035 60.3437C38.2225 59.9583 38.3839 59.552 38.6443 59.2135C39.0766 58.6458 38.8214 58.3906 38.3006 58.1198C36.4725 57.1718 35.0037 55.8073 33.8318 54.1198C30.4048 49.2031 30.8891 42.0156 34.9412 37.6145C35.0923 37.4479 35.2329 37.276 35.3787 37.1041Z" fill="#AC348E"/>
<path d="M36.0974 37.651C36.9464 38.7396 37.9099 39.6563 39.1391 40.2656C42.1026 41.7188 45.1599 41.7917 48.2276 40.7083C49.3891 40.2969 50.4672 39.651 51.5766 39.099C52.0766 38.849 52.1755 38.5104 51.8266 38.0208C51.5193 37.5937 51.2797 37.1094 51.0245 36.6458C50.9776 36.5573 50.988 36.4323 50.9724 36.3229C51.0714 36.3229 51.1703 36.3125 51.2641 36.3333C54.4307 37.026 57.5922 37.724 60.7589 38.4062C61.1495 38.4896 61.1547 38.6406 61.0349 38.9531C59.8891 41.9167 58.7485 44.8854 57.6078 47.8542C57.5662 47.9583 57.488 48.0469 57.4255 48.1458C57.3422 48.0677 57.2276 48.0052 57.1755 47.9062C56.8891 47.4167 56.5922 46.9271 56.337 46.4115C56.1287 45.9844 55.8995 45.9323 55.4828 46.1719C53.1755 47.5156 50.6755 48.0156 48.0193 47.8333C42.5245 47.4479 37.4516 43.2187 36.1235 37.8802C36.1078 37.8073 36.1026 37.724 36.0974 37.651Z" fill="#AC348E"/>
<path d="M18.2224 17.5781C18.2224 15.1927 20.1703 13.2344 22.5401 13.2448C24.8891 13.2552 26.811 15.1875 26.8214 17.5521C26.8318 19.9375 24.8787 21.8958 22.5037 21.8854C20.1547 21.875 18.2276 19.9323 18.2224 17.5781Z" fill="#AC348E"/>
<path d="M86.584 40.1309H88.0078C89.0703 40.1309 89.6016 39.7188 89.6016 38.8945C89.6016 38.4453 89.4902 38.1426 89.2676 37.9863C89.0449 37.8262 88.6777 37.7461 88.166 37.7461H86.584V40.1309ZM85.1133 45V36.4688H88.1895C88.6582 36.4688 89.0625 36.5039 89.4023 36.5742C89.7461 36.6445 90.0566 36.7656 90.334 36.9375C90.6113 37.1055 90.8203 37.3477 90.9609 37.6641C91.1016 37.9766 91.1719 38.3633 91.1719 38.8242C91.1719 39.3047 91.0293 39.7305 90.7441 40.1016C90.459 40.4688 90.0293 40.7168 89.4551 40.8457C89.9668 41.1309 90.3438 41.5762 90.5859 42.1816L91.7402 45H90.1289L89.1504 42.4629C88.9902 42.0449 88.8164 41.7617 88.6289 41.6133C88.4414 41.4648 88.1582 41.3906 87.7793 41.3906H86.6016V45H85.1133ZM97.0547 45.1348C95.7227 45.1348 94.6719 44.7344 93.9023 43.9336C93.1367 43.1289 92.7539 42.0488 92.7539 40.6934C92.7539 39.373 93.1387 38.3125 93.9082 37.5117C94.6816 36.7109 95.7363 36.3105 97.0723 36.3105C98.3652 36.3105 99.3926 36.7109 100.154 37.5117C100.92 38.3086 101.303 39.3691 101.303 40.6934C101.303 42.0527 100.926 43.1328 100.172 43.9336C99.418 44.7344 98.3789 45.1348 97.0547 45.1348ZM97.0195 43.8633C97.8906 43.8633 98.5527 43.5898 99.0059 43.043C99.459 42.4922 99.6855 41.709 99.6855 40.6934C99.6855 39.709 99.459 38.9453 99.0059 38.4023C98.5527 37.8555 97.8984 37.582 97.043 37.582C96.1797 37.582 95.5156 37.8555 95.0508 38.4023C94.5898 38.9453 94.3594 39.709 94.3594 40.6934C94.3594 41.7129 94.584 42.4961 95.0332 43.043C95.4824 43.5898 96.1445 43.8633 97.0195 43.8633ZM103.043 45V36.4688H104.531V43.7227H108.48V45H103.043ZM109.922 45V36.4688H111.41V43.7227H115.359V45H109.922ZM116.801 45V36.4688H122.186V37.7461H118.289V40.0254H121.975V41.3086H118.307V43.7227H122.355V45H116.801ZM125.596 40.1309H127.02C128.082 40.1309 128.613 39.7188 128.613 38.8945C128.613 38.4453 128.502 38.1426 128.279 37.9863C128.057 37.8262 127.689 37.7461 127.178 37.7461H125.596V40.1309ZM124.125 45V36.4688H127.201C127.67 36.4688 128.074 36.5039 128.414 36.5742C128.758 36.6445 129.068 36.7656 129.346 36.9375C129.623 37.1055 129.832 37.3477 129.973 37.6641C130.113 37.9766 130.184 38.3633 130.184 38.8242C130.184 39.3047 130.041 39.7305 129.756 40.1016C129.471 40.4688 129.041 40.7168 128.467 40.8457C128.979 41.1309 129.355 41.5762 129.598 42.1816L130.752 45H129.141L128.162 42.4629C128.002 42.0449 127.828 41.7617 127.641 41.6133C127.453 41.4648 127.17 41.3906 126.791 41.3906H125.613V45H124.125ZM134.795 45.1348C134.209 45.1348 133.645 45.0488 133.102 44.877C132.559 44.7051 132.131 44.4668 131.818 44.1621L132.451 43.0957C132.729 43.3105 133.088 43.4922 133.529 43.6406C133.975 43.7891 134.365 43.8633 134.701 43.8633C135.229 43.8633 135.617 43.7656 135.867 43.5703C136.121 43.375 136.248 43.0781 136.248 42.6797C136.248 42.5234 136.236 42.3984 136.213 42.3047C136.189 42.207 136.137 42.1074 136.055 42.0059C135.973 41.9004 135.85 41.8047 135.686 41.7188C135.525 41.6289 135.309 41.5352 135.035 41.4375C134.918 41.3984 134.719 41.334 134.438 41.2441C134.16 41.1543 133.957 41.0859 133.828 41.0391C133.125 40.7734 132.615 40.4609 132.299 40.1016C131.982 39.7383 131.824 39.248 131.824 38.6309C131.824 38.1309 131.955 37.7031 132.217 37.3477C132.482 36.9922 132.834 36.7305 133.271 36.5625C133.709 36.3945 134.209 36.3105 134.771 36.3105C135.533 36.3105 136.125 36.3848 136.547 36.5332C136.969 36.6816 137.367 36.9355 137.742 37.2949L136.98 38.2793C136.5 37.8223 135.834 37.5938 134.982 37.5938C134.518 37.5938 134.139 37.6738 133.846 37.834C133.557 37.9941 133.412 38.2383 133.412 38.5664C133.412 38.7266 133.426 38.8594 133.453 38.9648C133.48 39.0664 133.537 39.168 133.623 39.2695C133.713 39.3672 133.84 39.459 134.004 39.5449C134.168 39.627 134.387 39.7168 134.66 39.8145C134.758 39.8496 134.961 39.918 135.27 40.0195C135.582 40.1172 135.814 40.1953 135.967 40.2539C136.662 40.5312 137.146 40.8496 137.42 41.209C137.693 41.5684 137.83 42.0684 137.83 42.709C137.83 43.1348 137.746 43.5098 137.578 43.834C137.41 44.1543 137.182 44.4062 136.893 44.5898C136.604 44.7734 136.283 44.9102 135.932 45C135.58 45.0898 135.201 45.1348 134.795 45.1348Z" fill="white"/>
<path d="M241.908 68.795H242.314V10.2118H241.908V68.795Z" fill="#AC348E"/>
<path d="M251.435 39.5C251.435 42.8344 247.26 45.5384 242.111 45.5384C236.962 45.5384 232.78 42.8344 232.78 39.5C232.78 36.1656 236.962 33.4687 242.111 33.4687C247.26 33.4687 251.435 36.1656 251.435 39.5Z" fill="#AC348E"/>
<path d="M238.356 41.8747C238.02 41.6786 237.754 41.3984 237.572 41.0341C237.39 40.6698 237.299 40.2425 237.299 39.7452C237.299 39.2548 237.39 38.8275 237.572 38.4632C237.754 38.092 238.013 37.8188 238.349 37.6226C238.686 37.4265 239.085 37.3284 239.547 37.3284C240.01 37.3284 240.402 37.4265 240.745 37.6226C241.081 37.8188 241.341 38.092 241.516 38.4632C241.698 38.8275 241.789 39.2548 241.789 39.7452C241.789 40.2425 241.698 40.6698 241.516 41.0341C241.334 41.3984 241.074 41.6786 240.738 41.8747C240.402 42.0709 240.01 42.1689 239.547 42.1689C239.092 42.1689 238.693 42.0709 238.356 41.8747ZM240.57 41.0411C240.808 40.7399 240.934 40.3056 240.934 39.7452C240.934 39.1848 240.808 38.7575 240.57 38.4632C240.325 38.162 239.982 38.0149 239.547 38.0149C239.106 38.0149 238.77 38.162 238.525 38.4562C238.279 38.7575 238.16 39.1848 238.16 39.7452C238.16 40.3056 238.279 40.7399 238.525 41.0411C238.77 41.3353 239.106 41.4894 239.547 41.4894C239.982 41.4894 240.325 41.3353 240.57 41.0411Z" fill="white"/>
<path d="M243.141 41.6716C242.805 41.3353 242.637 40.845 242.637 40.2005V37.3915H243.477V40.2495C243.477 40.6558 243.575 40.9641 243.764 41.1742C243.953 41.3844 244.234 41.4894 244.612 41.4894C244.976 41.4894 245.263 41.3844 245.453 41.1672C245.642 40.9571 245.74 40.6488 245.74 40.2495V37.3915H246.58V40.2005C246.58 40.845 246.412 41.3283 246.076 41.6646C245.74 42.0008 245.256 42.1689 244.612 42.1689C243.96 42.1689 243.47 42.0078 243.141 41.6716Z" fill="white"/>
<path d="M338.949 68.9913H339.348V10.408H338.949V68.9913Z" fill="#AC348E"/>
<path d="M348.476 39.703C348.476 43.0304 344.301 45.7344 339.152 45.7344C333.996 45.7344 329.821 43.0304 329.821 39.703C329.821 36.3686 333.996 33.6647 339.152 33.6647C344.301 33.6647 348.476 36.3686 348.476 39.703Z" fill="#AC348E"/>
<path d="M335.397 42.0778C335.061 41.8746 334.795 41.6014 334.613 41.2302C334.431 40.8659 334.339 40.4386 334.339 39.9412C334.339 39.4509 334.431 39.0236 334.613 38.6593C334.788 38.295 335.054 38.0148 335.39 37.8187C335.726 37.6296 336.126 37.5315 336.588 37.5315C337.05 37.5315 337.443 37.6296 337.786 37.8187C338.122 38.0148 338.381 38.295 338.557 38.6593C338.739 39.0236 338.83 39.4509 338.83 39.9412C338.83 40.4386 338.739 40.8659 338.557 41.2302C338.374 41.6014 338.115 41.8746 337.779 42.0778C337.443 42.2739 337.05 42.372 336.588 42.372C336.133 42.372 335.733 42.2739 335.397 42.0778ZM337.611 41.2372C337.849 40.9359 337.975 40.5016 337.975 39.9412C337.975 39.3878 337.849 38.9605 337.611 38.6593C337.366 38.3581 337.022 38.211 336.588 38.211C336.147 38.211 335.811 38.3581 335.565 38.6593C335.32 38.9535 335.201 39.3808 335.201 39.9412C335.201 40.5016 335.32 40.9359 335.565 41.2372C335.811 41.5384 336.147 41.6855 336.588 41.6855C337.022 41.6855 337.366 41.5384 337.611 41.2372Z" fill="white"/>
<path d="M340.175 41.8677C339.845 41.5315 339.677 41.0481 339.677 40.4037V37.5876H340.518V40.4457C340.518 40.852 340.616 41.1602 340.805 41.3704C340.994 41.5805 341.281 41.6856 341.653 41.6856C342.024 41.6856 342.304 41.5805 342.493 41.3704C342.682 41.1532 342.781 40.852 342.781 40.4457V37.5876H343.621V40.4037C343.621 41.0411 343.453 41.5315 343.117 41.8677C342.781 42.204 342.297 42.3721 341.653 42.3721C341.001 42.3721 340.511 42.204 340.175 41.8677Z" fill="white"/>
<path d="M358.024 48.7606H360.272C360.882 48.7606 361.407 48.8657 361.841 49.0899C362.29 49.307 362.626 49.6222 362.857 50.0355C363.095 50.4488 363.214 50.9392 363.214 51.5066C363.214 52.074 363.095 52.5714 362.864 52.9847C362.633 53.405 362.297 53.7202 361.855 53.9374C361.414 54.1545 360.889 54.2666 360.272 54.2666H358.024V48.7606ZM360.167 53.1038C360.706 53.1038 361.113 52.9707 361.372 52.7115C361.645 52.4453 361.771 52.039 361.771 51.5066C361.771 50.4488 361.239 49.9165 360.167 49.9165H359.474V53.1038" fill="#231F20"/>
<path d="M364.062 48.7607H367.999V49.8745H365.477V50.9113H367.831V52.0251H365.477V53.1529H367.999V54.2667H364.062V48.7607ZM365.743 48.2844L366.549 47.0655H367.803L366.584 48.2844H365.743Z" fill="#231F20"/>
<path d="M369.925 53.9864C369.498 53.7482 369.176 53.419 368.945 52.9917C368.713 52.5643 368.601 52.067 368.601 51.5066C368.601 50.9462 368.713 50.4558 368.945 50.0285C369.176 49.6012 369.498 49.279 369.925 49.0408C370.353 48.8096 370.85 48.6906 371.424 48.6906C371.782 48.6906 372.132 48.7466 372.475 48.8517C372.811 48.9637 373.085 49.1109 373.288 49.293L372.846 50.3227C372.398 49.9935 371.936 49.8324 371.452 49.8324C371.011 49.8324 370.668 49.9725 370.43 50.2527C370.192 50.5399 370.079 50.9532 370.079 51.5066C370.079 52.06 370.192 52.4803 370.43 52.7675C370.668 53.0477 371.011 53.1948 371.452 53.1948C371.936 53.1948 372.398 53.0267 372.846 52.7044L373.288 53.7342C373.085 53.9163 372.811 54.0634 372.475 54.1755C372.132 54.2806 371.782 54.3366 371.424 54.3366C370.85 54.3366 370.353 54.2175 369.925 53.9864Z" fill="#231F20"/>
<path d="M379.123 48.7606V54.2666H377.701V52.039H375.473V54.2666H374.044V48.7606H375.473V50.9042H377.701V48.7606" fill="#231F20"/>
<path d="M380.11 48.7607H384.047V49.8745H381.525V50.9113H383.879V52.0251H381.525V53.1529H384.047V54.2667H380.11V48.7607ZM380.573 47.0655H381.834L382.632 48.2844H381.792L380.573 47.0655Z" fill="#231F20"/>
<path d="M386.156 49.9375H384.517V48.7606H389.266V49.9375H387.627V54.2666H386.156" fill="#231F20"/>
<path d="M389.855 48.7606H393.784V49.8744H391.27V50.9112H393.623V52.025H391.27V53.1528H393.784V54.2666H389.855" fill="#231F20"/>
<path d="M399.318 54.2666H397.777L397.07 52.4313C396.986 52.2281 396.79 52.123 396.488 52.123H395.963V54.2666H394.527V48.7606H397.091C397.756 48.7606 398.254 48.9007 398.59 49.1879C398.926 49.4751 399.094 49.8814 399.094 50.4138C399.094 50.7851 398.996 51.1073 398.793 51.3735C398.597 51.6467 398.317 51.8428 397.959 51.9549C398.114 51.9829 398.254 52.06 398.373 52.1721C398.499 52.2842 398.597 52.4383 398.667 52.6274L399.318 54.2666ZM397.532 50.8972C397.672 50.7991 397.742 50.652 397.742 50.4558C397.742 50.2457 397.672 50.0916 397.532 49.9935C397.399 49.9024 397.175 49.8604 396.86 49.8604H395.942V51.0373H396.86C397.168 51.0373 397.392 50.9952 397.532 50.8972Z" fill="#231F20"/>
<path d="M400.054 54.2666H401.511V48.7606H400.054V54.2666Z" fill="#231F20"/>
<path d="M402.499 48.7606H406.429V49.8744H403.914V50.9112H406.268V52.025H403.914V53.1528H406.429V54.2666H402.499" fill="#231F20"/>
<path d="M379.102 27.8366V27.885L379.157 27.8366" fill="#231F20"/>
<path d="M382.464 32.67L382.471 32.677L382.492 31.2059" fill="#231F20"/>
<path d="M382.464 39.3599V31.234L382.38 31.3391C382.121 31.6683 381.638 31.6473 381.252 31.6543C381.063 31.6543 380.692 31.4862 380.517 31.4021L379.102 33.1254V39.3599H377.168L378.941 41.1952L380.72 43.0235L382.492 41.1952L384.264 39.3599" fill="#231F20"/>
<path d="M378.633 28.3549L379.102 27.8926V27.8856" fill="#231F20"/>
<path d="M379.158 27.8366L379.851 27.1501L379.844 27.1431L379.158 27.8366Z" fill="#231F20"/>
<path d="M379.157 27.8366L379.102 27.885V27.8919L379.157 27.8366Z" fill="#231F20"/>
<path d="M391.179 34.0851L389.904 35.36L384.237 29.6929L383.886 29.3356L383.564 29.7419L382.759 31.0028L382.661 32.8662L387.529 37.7347L386.163 39.1077L388.713 39.1427L391.2 39.1847V35.353" fill="#231F20"/>
<path d="M381.869 27.3253L380.944 26.4006L380.769 26.2395L379.851 27.1502L379.158 27.8367L379.102 27.8927L378.632 28.355L377.694 29.2937H377.701L371.697 35.297L370.422 34.0221L370.401 35.4161V39.1148L372.895 39.0798L374.044 39.0587L375.445 39.0377L374.317 37.9099L374.072 37.6717L379.102 32.6351L380.223 31.2061C379.956 30.9609 379.907 30.5616 379.914 30.2184C379.921 29.9592 380.012 29.7 380.181 29.4758L380.272 29.3638L381.014 28.4111L381.539 27.7386L381.82 27.3743" fill="#231F20"/>
<path d="M381.007 31.2129L381.035 31.1919C381 31.1779 380.965 31.1639 380.937 31.1429" fill="#231F20"/>
<path d="M385.413 30.6105L384.145 29.2025L384.398 28.6981L384.412 28.6771L384.517 28.7822L384.419 28.6771C384.622 28.474 384.643 28.46 384.93 28.3549L385.133 28.2849L385.413 30.6105ZM384.496 29.1535L385.007 29.7209L384.888 28.6911C384.783 28.7332 384.748 28.7612 384.643 28.8733" fill="#231F20"/>
<path d="M386.527 31.1779C386.317 31.1779 386.114 31.1008 385.946 30.9678C385.749 30.8066 385.623 30.5755 385.588 30.3233V30.3163L385.343 28.2008L387.214 27.3812L387.459 30.0991C387.522 30.6245 387.151 31.1079 386.639 31.1709C386.604 31.1779 386.562 31.1779 386.527 31.1779ZM385.883 30.2883C385.904 30.4634 385.995 30.6245 386.128 30.7366C386.268 30.8487 386.436 30.8977 386.604 30.8767C386.954 30.8347 387.207 30.4984 387.165 30.1342L386.954 27.8155L385.665 28.3829" fill="#231F20"/>
<path d="M381.357 31.4231C381.203 31.4231 381.056 31.3881 380.909 31.3251C380.867 31.3111 380.832 31.29 380.797 31.269L380.769 31.248L380.398 30.8767C380.166 30.4775 380.202 29.9731 380.489 29.5948L382.814 26.5126C382.443 26.1483 382.345 25.714 382.282 25.3077C382.254 25.1046 382.261 24.6983 382.296 24.0959C381.224 24.4111 380.769 24.5582 380.699 24.6002C380.685 24.6072 380.678 24.6142 380.671 24.6212L380.678 24.6423L379.991 26.1904L379.956 26.7928L377.883 28.7192L377.82 28.474C377.729 28.1448 377.442 27.038 377.442 26.8629C377.442 26.6737 377.596 26.3305 377.624 26.2604C377.869 25.63 379.116 22.4427 379.284 22.2045C379.452 21.9733 379.606 21.7842 379.9 21.5951C380.166 21.4269 380.622 21.1677 380.643 21.1537L380.657 21.1467L389.385 17.5111H389.413C390.457 17.5111 391.55 17.9174 392.397 18.6319C393.301 19.3885 393.798 20.3622 393.798 21.3709V21.462L391.326 22.933C391.34 23.2412 391.326 23.4794 391.277 23.6475C391.241 23.7526 391.213 23.8577 391.185 23.9628C391.087 24.3691 390.989 24.7613 390.429 25.3217C389.735 26.0152 388.713 26.5897 388.061 26.8348C387.858 26.9049 387.459 27.052 387.003 27.2271L384.741 28.0747L384.482 28.1938L382.282 30.9538C382.051 31.255 381.708 31.4231 381.357 31.4231ZM380.958 31.0239C380.986 31.0379 381.007 31.0449 381.028 31.0589C381.385 31.213 381.806 31.1009 382.044 30.7717L384.299 27.9556L384.629 27.7945L386.898 26.9469C387.354 26.7788 387.753 26.6317 387.956 26.5546C388.601 26.3165 389.588 25.742 390.219 25.1116C390.723 24.6072 390.807 24.278 390.898 23.8927C390.926 23.7876 390.954 23.6756 390.989 23.5565C391.024 23.4584 391.052 23.2553 391.024 22.863L391.01 22.7719L393.504 21.2868C393.441 19.3324 391.305 17.8193 389.441 17.8053L380.783 21.4199C380.72 21.455 380.3 21.6931 380.054 21.8472C379.802 22.0013 379.683 22.1625 379.529 22.3796C379.41 22.5477 378.464 24.9225 377.897 26.3795C377.827 26.5266 377.743 26.7718 377.743 26.8629C377.743 26.9539 377.89 27.5564 378.044 28.1658L379.662 26.6597L379.697 26.1203L380.363 24.6212C380.363 24.5512 380.398 24.4601 380.524 24.355C380.566 24.327 380.657 24.257 382.415 23.7526L382.618 23.6966L382.604 23.9067C382.555 24.5792 382.548 25.0626 382.576 25.2587C382.646 25.735 382.751 26.0643 383.067 26.3515L383.214 26.4846L380.727 29.777C380.517 30.0502 380.482 30.4144 380.65 30.7086" fill="#231F20"/>
<path d="M278.544 48.9359V54.4418H277.276L277.269 51.92L276.226 54.4418H275.301L274.25 51.955V54.4418H272.989V48.9359H274.124L275.777 52.6976L277.409 48.9359" fill="#231F20"/>
<path d="M283.273 53.307H280.828L280.338 54.4418H278.88L281.458 48.9359H282.607L285.192 54.4418H283.756L283.273 53.307ZM282.803 52.2142L282.047 50.477L281.297 52.2142" fill="#231F20"/>
<path d="M290.25 51.3315V54.0985C289.956 54.2316 289.626 54.3367 289.262 54.4067C288.898 54.4768 288.527 54.5118 288.148 54.5118C287.546 54.5118 287.028 54.3997 286.586 54.1756C286.145 53.9444 285.809 53.6222 285.571 53.1948C285.332 52.7745 285.213 52.2632 285.213 51.6818C285.213 51.1143 285.332 50.617 285.571 50.1967C285.809 49.7694 286.145 49.4401 286.579 49.209C287.007 48.9778 287.518 48.8657 288.092 48.8657C288.492 48.8657 288.863 48.9148 289.22 49.0198C289.57 49.1249 289.858 49.265 290.082 49.4471L289.626 50.4769C289.374 50.3088 289.129 50.1897 288.891 50.1196C288.66 50.0426 288.408 50.0075 288.141 50.0075C287.651 50.0075 287.287 50.1406 287.042 50.4208C286.803 50.694 286.684 51.1143 286.684 51.6818C286.684 52.2702 286.81 52.7115 287.063 52.9917C287.308 53.2719 287.693 53.412 288.218 53.412C288.457 53.412 288.702 53.391 288.947 53.342V52.3192H287.987V51.3315" fill="#231F20"/>
<path d="M294.887 53.307H292.442L291.952 54.4418H290.502L293.073 48.9359H294.222L296.806 54.4418H295.377L294.887 53.307ZM294.418 52.2142L293.661 50.477L292.912 52.2142" fill="#231F20"/>
<path d="M297.808 54.3507C297.409 54.2456 297.08 54.0985 296.827 53.9094L297.283 52.8796C297.556 53.0477 297.836 53.1808 298.137 53.2719C298.446 53.363 298.747 53.405 299.048 53.405C299.356 53.405 299.594 53.363 299.763 53.2789C299.924 53.1948 300.008 53.0758 300.008 52.9216C300.008 52.7815 299.938 52.6695 299.784 52.5784C299.636 52.4873 299.356 52.3963 298.943 52.3122C298.418 52.2071 298.018 52.081 297.724 51.9269C297.437 51.7728 297.234 51.5977 297.122 51.3875C297.003 51.1844 296.946 50.9322 296.946 50.638C296.946 50.3018 297.038 50.0005 297.234 49.7273C297.423 49.4541 297.689 49.244 298.032 49.0899C298.383 48.9428 298.775 48.8657 299.216 48.8657C299.615 48.8657 300.001 48.9218 300.379 49.0338C300.75 49.1459 301.044 49.286 301.255 49.4682L300.806 50.4979C300.561 50.3298 300.309 50.1967 300.043 50.1056C299.77 50.0216 299.503 49.9725 299.237 49.9725C298.971 49.9725 298.761 50.0216 298.6 50.1266C298.439 50.2247 298.361 50.3578 298.361 50.5259C298.361 50.624 298.39 50.701 298.446 50.7641C298.502 50.8271 298.607 50.8832 298.761 50.9462C298.915 51.0023 299.153 51.0653 299.461 51.1354C299.959 51.2404 300.358 51.3735 300.638 51.5206C300.925 51.6747 301.128 51.8499 301.248 52.06C301.367 52.2632 301.423 52.5084 301.423 52.7886C301.423 53.3279 301.213 53.7482 300.799 54.0565C300.379 54.3577 299.791 54.5118 299.034 54.5118C298.621 54.5118 298.214 54.4628 297.808 54.3507Z" fill="#231F20"/>
<path d="M302.236 54.4418H303.693V48.9359H302.236V54.4418Z" fill="#231F20"/>
<path d="M309.612 48.9359V54.4418H308.533L306.039 51.3176V54.4418H304.68V48.9359H305.745L308.239 52.0461V48.9359" fill="#231F20"/>
<path d="M300.141 21.3568H282.439C282.131 21.3568 281.886 21.1046 281.886 20.7964C281.886 20.4882 282.131 20.236 282.439 20.236H300.141C300.449 20.236 300.694 20.4882 300.694 20.7964C300.694 21.1046 300.449 21.3568 300.141 21.3568Z" fill="#231F20"/>
<path d="M303.104 28.2359H279.504C279.301 28.2359 279.105 28.1308 279.007 27.9557C278.909 27.7805 278.895 27.5634 279 27.3882L283.084 20.6354C283.238 20.3692 283.588 20.2921 283.847 20.4462C284.106 20.6074 284.197 20.9506 284.036 21.2098L280.471 27.1221H302.116L298.551 21.2098C298.39 20.9506 298.474 20.6074 298.74 20.4462C298.992 20.2921 299.342 20.3692 299.503 20.6354L303.58 27.3882C303.685 27.5634 303.685 27.7805 303.587 27.9557C303.489 28.1308 303.3 28.2359 303.104 28.2359Z" fill="#231F20"/>
<path d="M281.858 30.6246C280.24 30.6246 278.93 29.3146 278.93 27.7035C278.93 27.3882 279.182 27.136 279.497 27.136C279.805 27.136 280.058 27.3882 280.058 27.7035C280.058 28.6912 280.863 29.4967 281.858 29.4967C282.839 29.4967 283.651 28.6912 283.651 27.7035C283.651 27.3882 283.903 27.136 284.211 27.136C284.52 27.136 284.772 27.3882 284.772 27.7035C284.772 29.3146 283.462 30.6246 281.858 30.6246Z" fill="#231F20"/>
<path d="M286.572 30.6246C284.961 30.6246 283.644 29.3146 283.644 27.7035C283.644 27.3882 283.903 27.136 284.211 27.136C284.52 27.136 284.772 27.3882 284.772 27.7035C284.772 28.6912 285.577 29.4967 286.572 29.4967C287.56 29.4967 288.365 28.6912 288.365 27.7035C288.365 27.3882 288.618 27.136 288.933 27.136C289.241 27.136 289.493 27.3882 289.493 27.7035C289.493 29.3146 288.183 30.6246 286.572 30.6246Z" fill="#231F20"/>
<path d="M291.294 30.6246C289.682 30.6246 288.365 29.3146 288.365 27.7035C288.365 27.3882 288.618 27.136 288.933 27.136C289.241 27.136 289.493 27.3882 289.493 27.7035C289.493 28.6912 290.299 29.4967 291.294 29.4967C292.281 29.4967 293.087 28.6912 293.087 27.7035C293.087 27.3882 293.339 27.136 293.647 27.136C293.963 27.136 294.215 27.3882 294.215 27.7035C294.215 29.3146 292.905 30.6246 291.294 30.6246Z" fill="#231F20"/>
<path d="M296.008 30.6246C294.397 30.6246 293.087 29.3146 293.087 27.7035C293.087 27.3882 293.339 27.136 293.647 27.136C293.962 27.136 294.214 27.3882 294.214 27.7035C294.214 28.6912 295.02 29.4967 296.008 29.4967C297.002 29.4967 297.808 28.6912 297.808 27.7035C297.808 27.3882 298.06 27.136 298.368 27.136C298.677 27.136 298.929 27.3882 298.929 27.7035C298.929 29.3146 297.619 30.6246 296.008 30.6246Z" fill="#231F20"/>
<path d="M300.729 30.6246C299.118 30.6246 297.808 29.3146 297.808 27.7035C297.808 27.3882 298.06 27.136 298.369 27.136C298.677 27.136 298.929 27.3882 298.929 27.7035C298.929 28.6912 299.735 29.4967 300.729 29.4967C301.717 29.4967 302.523 28.6912 302.523 27.7035C302.523 27.3882 302.775 27.136 303.09 27.136C303.398 27.136 303.65 27.3882 303.65 27.7035C303.65 29.3146 302.34 30.6246 300.729 30.6246Z" fill="#231F20"/>
<path d="M300.884 42.9816H281.697C281.388 42.9816 281.136 42.7294 281.136 42.4211V30.0642C281.136 29.749 281.388 29.4968 281.697 29.4968C282.012 29.4968 282.264 29.749 282.264 30.0642V41.8607H300.323V30.0782C300.323 29.77 300.575 29.5178 300.884 29.5178C301.192 29.5178 301.451 29.77 301.451 30.0782V42.4211C301.451 42.7294 301.192 42.9816 300.884 42.9816Z" fill="#231F20"/>
<path d="M289.458 42.8623C289.15 42.8623 288.891 42.6101 288.891 42.3019V29.1674C288.891 28.8522 289.15 28.6 289.458 28.6C289.767 28.6 290.019 28.8522 290.019 29.1674V42.3019C290.019 42.6101 289.767 42.8623 289.458 42.8623Z" fill="#231F20"/>
<path d="M287.399 37.2724C287.09 37.2724 286.838 37.0202 286.838 36.705V32.593C286.838 32.2848 287.09 32.0326 287.399 32.0326C287.707 32.0326 287.966 32.2848 287.966 32.593V36.705C287.966 37.0202 287.707 37.2724 287.399 37.2724Z" fill="#231F20"/>
<path d="M294.025 36.5859C293.885 36.5859 293.738 36.5299 293.633 36.4178C293.409 36.2006 293.409 35.8434 293.633 35.6262L297.283 31.9696C297.507 31.7454 297.864 31.7454 298.081 31.9696C298.298 32.1867 298.298 32.544 298.081 32.7611L294.425 36.4178C294.313 36.5299 294.172 36.5859 294.025 36.5859Z" fill="#231F20"/>
<path d="M295.63 38.4141C295.482 38.4141 295.335 38.3581 295.23 38.246C295.006 38.0288 295.006 37.6716 295.23 37.4544L297.402 35.2829C297.619 35.0587 297.976 35.0587 298.193 35.2829C298.418 35.5 298.418 35.8573 298.193 36.0744L296.029 38.246C295.917 38.3581 295.77 38.4141 295.63 38.4141Z" fill="#231F20"/>
<path d="M172.32 53.1318H169.875L169.385 54.2666H167.928L170.506 48.7606H171.647L174.232 54.2666H172.803L172.32 53.1318ZM171.843 52.039L171.094 50.2947L170.344 52.039" fill="#231F20"/>
<path d="M175.241 54.1755C174.842 54.0634 174.512 53.9163 174.26 53.7342L174.715 52.7044C174.982 52.8726 175.269 53.0057 175.57 53.0967C175.871 53.1878 176.179 53.2298 176.481 53.2298C176.789 53.2298 177.027 53.1878 177.195 53.1037C177.356 53.0197 177.44 52.8936 177.44 52.7395C177.44 52.5994 177.363 52.4873 177.216 52.4032C177.069 52.3122 176.782 52.2211 176.369 52.13C175.85 52.032 175.444 51.8989 175.157 51.7448C174.87 51.5976 174.666 51.4155 174.547 51.2124C174.435 51.0022 174.379 50.757 174.379 50.4628C174.379 50.1266 174.47 49.8254 174.659 49.5522C174.856 49.279 175.122 49.0688 175.465 48.9147C175.815 48.7606 176.208 48.6906 176.649 48.6906C177.048 48.6906 177.433 48.7466 177.805 48.8517C178.183 48.9708 178.47 49.1109 178.687 49.293L178.239 50.3227C177.994 50.1476 177.742 50.0215 177.468 49.9304C177.202 49.8394 176.936 49.7974 176.663 49.7974C176.404 49.7974 176.193 49.8464 176.032 49.9445C175.871 50.0495 175.787 50.1826 175.787 50.3507C175.787 50.4418 175.822 50.5189 175.878 50.5819C175.934 50.645 176.039 50.708 176.193 50.764C176.348 50.8271 176.579 50.8901 176.887 50.9532C177.391 51.0653 177.784 51.1914 178.071 51.3455C178.358 51.4996 178.561 51.6747 178.68 51.8779C178.799 52.088 178.855 52.3262 178.855 52.6134C178.855 53.1528 178.645 53.5661 178.232 53.8743C177.812 54.1825 177.223 54.3366 176.467 54.3366C176.053 54.3366 175.64 54.2806 175.241 54.1755Z" fill="#231F20"/>
<path d="M180.438 54.1755C180.039 54.0634 179.71 53.9163 179.458 53.7342L179.913 52.7044C180.186 52.8726 180.466 53.0057 180.768 53.0967C181.069 53.1878 181.377 53.2298 181.678 53.2298C181.987 53.2298 182.225 53.1878 182.393 53.1037C182.554 53.0197 182.638 52.8936 182.638 52.7395C182.638 52.5994 182.561 52.4873 182.414 52.4032C182.267 52.3122 181.987 52.2211 181.573 52.13C181.048 52.032 180.642 51.8989 180.361 51.7448C180.067 51.5976 179.864 51.4155 179.745 51.2124C179.633 51.0022 179.577 50.757 179.577 50.4628C179.577 50.1266 179.668 49.8254 179.864 49.5522C180.053 49.279 180.319 49.0688 180.663 48.9147C181.013 48.7606 181.405 48.6906 181.853 48.6906C182.246 48.6906 182.631 48.7466 183.002 48.8517C183.381 48.9708 183.675 49.1109 183.885 49.293L183.437 50.3227C183.198 50.1476 182.939 50.0215 182.673 49.9304C182.4 49.8394 182.134 49.7974 181.867 49.7974C181.601 49.7974 181.391 49.8464 181.23 49.9445C181.069 50.0495 180.992 50.1826 180.992 50.3507C180.992 50.4418 181.02 50.5189 181.076 50.5819C181.132 50.645 181.237 50.708 181.391 50.764C181.552 50.8271 181.783 50.8901 182.092 50.9532C182.589 51.0653 182.981 51.1914 183.268 51.3455C183.556 51.4996 183.759 51.6747 183.878 51.8779C183.997 52.088 184.053 52.3262 184.053 52.6134C184.053 53.1528 183.843 53.5661 183.43 53.8743C183.009 54.1825 182.421 54.3366 181.664 54.3366C181.251 54.3366 180.845 54.2806 180.438 54.1755Z" fill="#231F20"/>
<path d="M186.022 53.9934C185.601 53.7622 185.279 53.433 185.055 53.0057C184.831 52.5784 184.719 52.074 184.719 51.5066C184.719 50.9322 184.831 50.4348 185.062 50.0145C185.286 49.5872 185.608 49.265 186.022 49.0338C186.442 48.8026 186.932 48.6906 187.493 48.6906C188.053 48.6906 188.544 48.8026 188.957 49.0338C189.37 49.265 189.692 49.5872 189.909 50.0145C190.134 50.4348 190.246 50.9322 190.246 51.5066C190.246 52.074 190.134 52.5784 189.909 53.0057C189.692 53.433 189.37 53.7622 188.957 53.9934C188.544 54.2245 188.053 54.3366 187.493 54.3366C186.932 54.3366 186.442 54.2245 186.022 53.9934ZM188.459 52.7885C188.698 52.4943 188.817 52.067 188.817 51.5066C188.817 50.9462 188.698 50.5259 188.459 50.2317C188.228 49.9375 187.906 49.7974 187.493 49.7974C187.079 49.7974 186.757 49.9375 186.526 50.2317C186.295 50.5189 186.176 50.9462 186.176 51.5066C186.176 52.074 186.295 52.5013 186.526 52.7955C186.757 53.0827 187.079 53.2298 187.493 53.2298C187.906 53.2298 188.228 53.0827 188.459 52.7885Z" fill="#231F20"/>
<path d="M192.277 53.9864C191.85 53.7482 191.521 53.419 191.296 52.9917C191.065 52.5643 190.946 52.067 190.946 51.5066C190.946 50.9462 191.065 50.4558 191.296 50.0285C191.521 49.6012 191.85 49.279 192.277 49.0408C192.704 48.8096 193.202 48.6906 193.776 48.6906C194.133 48.6906 194.484 48.7466 194.82 48.8517C195.163 48.9637 195.429 49.1109 195.64 49.293L195.198 50.3227C194.75 49.9935 194.288 49.8324 193.804 49.8324C193.363 49.8324 193.02 49.9725 192.781 50.2527C192.543 50.5399 192.424 50.9532 192.424 51.5066C192.424 52.06 192.543 52.4803 192.781 52.7675C193.02 53.0477 193.363 53.1948 193.804 53.1948C194.288 53.1948 194.75 53.0267 195.198 52.7044L195.64 53.7342C195.429 53.9163 195.163 54.0634 194.82 54.1755C194.484 54.2806 194.133 54.3366 193.776 54.3366C193.202 54.3366 192.704 54.2175 192.277 53.9864Z" fill="#231F20"/>
<path d="M196.396 54.2666H197.853V48.7606H196.396V54.2666Z" fill="#231F20"/>
<path d="M202.561 53.1318H200.116L199.626 54.2666H198.168L200.746 48.7606H201.895L204.473 54.2666H203.044L202.561 53.1318ZM202.084 52.039L201.335 50.2947L200.585 52.039" fill="#231F20"/>
<path d="M205.314 49.9375H203.674V48.7606H208.424V49.9375H206.785V54.2666H205.314" fill="#231F20"/>
<path d="M209.012 54.2666H210.462V48.7606H209.012V54.2666Z" fill="#231F20"/>
<path d="M212.606 53.9934C212.192 53.7622 211.87 53.433 211.646 53.0057C211.422 52.5784 211.31 52.074 211.31 51.5066C211.31 50.9322 211.422 50.4348 211.646 50.0145C211.877 49.5872 212.199 49.265 212.613 49.0338C213.026 48.8026 213.516 48.6906 214.077 48.6906C214.637 48.6906 215.128 48.8026 215.548 49.0338C215.961 49.265 216.276 49.5872 216.501 50.0145C216.725 50.4348 216.837 50.9322 216.837 51.5066C216.837 52.074 216.725 52.5784 216.501 53.0057C216.276 53.433 215.961 53.7622 215.548 53.9934C215.128 54.2245 214.637 54.3366 214.077 54.3366C213.516 54.3366 213.026 54.2245 212.606 53.9934ZM215.051 52.7885C215.282 52.4943 215.401 52.067 215.401 51.5066C215.401 50.9462 215.282 50.5259 215.051 50.2317C214.819 49.9375 214.49 49.7974 214.077 49.7974C213.664 49.7974 213.341 49.9375 213.11 50.2317C212.879 50.5189 212.76 50.9462 212.76 51.5066C212.76 52.074 212.879 52.5013 213.11 52.7955C213.341 53.0827 213.664 53.2298 214.077 53.2298C214.49 53.2298 214.819 53.0827 215.051 52.7885Z" fill="#231F20"/>
<path d="M222.616 48.7606V54.2666H221.537L219.036 51.1423V54.2666H217.684V48.7606H218.742L221.243 51.8709V48.7606" fill="#231F20"/>
<path d="M194.183 19.4795C193.363 19.4795 192.543 19.7947 191.92 20.4182C190.673 21.6651 190.673 23.6965 191.92 24.9504L195.822 28.8452C195.969 29.0974 196.312 29.1325 196.508 28.9223L200.48 24.9504C201.734 23.6965 201.734 21.6651 200.48 20.4182C199.857 19.7947 199.037 19.4795 198.218 19.4795C197.503 19.4795 196.788 19.7177 196.2 20.194C195.619 19.7177 194.897 19.4795 194.183 19.4795ZM194.183 20.3481C194.778 20.3481 195.373 20.5793 195.836 21.0416L195.892 21.1047C196.067 21.2658 196.333 21.2658 196.508 21.1047L196.571 21.0416C197.489 20.117 198.946 20.117 199.871 21.0416C200.788 21.9593 200.788 23.4233 199.871 24.341L196.2 28.0116L192.529 24.341C191.612 23.4233 191.612 21.9593 192.529 21.0416C192.992 20.5793 193.587 20.3481 194.183 20.3481ZM204.62 28.7051C204.088 28.7051 203.562 28.9083 203.163 29.3076L200.648 31.8224C200.263 31.2059 199.59 30.7997 198.813 30.7997H191.85C189.966 30.7997 188.936 31.7944 188.067 32.663L186.197 34.5333L185.636 33.9659C185.552 33.8889 185.44 33.8398 185.328 33.8398C185.209 33.8398 185.097 33.8889 185.02 33.9659L182.407 36.5788C182.323 36.6559 182.281 36.768 182.281 36.887C182.281 37.0061 182.323 37.1112 182.407 37.1953L188.936 43.717C189.104 43.8921 189.377 43.8851 189.552 43.717L192.158 41.1111C192.326 40.936 192.326 40.6628 192.158 40.4946L191.598 39.9342L192.158 39.3668C192.592 38.9325 192.866 38.6243 193.594 38.6243H199.682C201.174 38.6243 202.421 37.8818 203.31 36.6068C204.326 35.1358 205.328 33.3005 206.126 32.1656C206.42 31.7383 206.617 31.248 206.638 30.7436C206.659 30.2393 206.476 29.7139 206.077 29.3076C205.678 28.9083 205.145 28.7051 204.62 28.7051ZM204.62 29.5668C204.921 29.5668 205.223 29.6859 205.461 29.924C205.692 30.1552 205.776 30.4144 205.769 30.7086C205.755 31.0098 205.629 31.3531 205.412 31.6683C204.557 32.8732 203.569 34.6945 202.596 36.1095C201.825 37.2163 200.9 37.7557 199.682 37.7557H193.594C192.578 37.7557 191.976 38.3161 191.542 38.7504L190.981 39.3178L186.813 35.1428L188.677 33.2794C189.545 32.4108 190.253 31.6683 191.85 31.6683H198.813C199.541 31.6683 200.116 32.2427 200.116 32.9712C200.116 33.6997 199.541 34.2742 198.813 34.2742H194.89C194.316 34.2742 194.316 35.1498 194.89 35.1498H198.813C200.011 35.1498 200.984 34.1691 200.984 32.9712C200.984 32.8872 200.984 32.8101 200.97 32.726L203.78 29.924C204.011 29.6859 204.319 29.5668 204.62 29.5668ZM185.328 34.8906L191.233 40.8029L189.237 42.7923L183.332 36.887" fill="#231F20"/>
<path d="M189.237 43.9832C189.09 43.9832 188.943 43.9272 188.838 43.8221L182.309 37.2934C182.204 37.1883 182.141 37.0412 182.141 36.8871C182.141 36.733 182.197 36.5859 182.309 36.4808L184.922 33.8749C185.132 33.6577 185.517 33.6577 185.734 33.8749L186.197 34.3372L187.962 32.565C188.768 31.7594 189.867 30.6596 191.85 30.6596H198.813C199.548 30.6596 200.235 31.0098 200.669 31.6053L203.065 29.2095C203.478 28.7962 204.032 28.5721 204.62 28.5721C205.208 28.5721 205.762 28.7962 206.175 29.2095C206.581 29.6228 206.792 30.1692 206.778 30.7506C206.757 31.255 206.567 31.7734 206.238 32.2427C205.846 32.7961 205.412 33.5106 204.949 34.2742C204.459 35.0868 203.948 35.9274 203.422 36.6839C202.483 38.0499 201.188 38.7644 199.681 38.7644H193.594C192.957 38.7644 192.711 39.0096 192.312 39.4089L191.794 39.9343L192.256 40.3966C192.361 40.5087 192.424 40.6488 192.424 40.8029C192.424 40.957 192.361 41.0971 192.256 41.2092L189.643 43.8151C189.538 43.9272 189.398 43.9832 189.244 43.9832H189.237ZM185.328 33.98C185.244 33.98 185.167 34.015 185.111 34.064L182.505 36.6769C182.449 36.733 182.414 36.81 182.414 36.8871C182.414 36.9641 182.449 37.0412 182.505 37.0972L189.034 43.6189C189.146 43.738 189.335 43.738 189.447 43.6189L192.06 41.0131C192.179 40.901 192.179 40.7118 192.06 40.5927L191.401 39.9343L192.116 39.2128C192.522 38.8065 192.845 38.4842 193.594 38.4842H199.681C201.089 38.4842 202.308 37.8117 203.191 36.5298C203.709 35.7733 204.221 34.9397 204.718 34.1271C205.18 33.3635 205.615 32.642 206.007 32.0886C206.315 31.6543 206.483 31.192 206.497 30.7436C206.518 30.2323 206.329 29.7629 205.979 29.4057C205.615 29.0484 205.131 28.8453 204.62 28.8453C204.102 28.8453 203.618 29.0484 203.261 29.4057L200.627 32.0466L200.529 31.8925C200.151 31.297 199.513 30.9328 198.813 30.9328H191.85C189.986 30.9328 188.971 31.9485 188.165 32.7611L186.197 34.7295L185.538 34.064C185.482 34.015 185.405 33.98 185.328 33.98ZM189.237 42.9955L183.136 36.8871L185.328 34.6945L191.43 40.8029L189.237 42.9955ZM183.528 36.8871L189.237 42.6032L191.037 40.8029L185.328 35.0868L183.528 36.8871ZM190.981 39.514L186.617 35.1498L188.634 33.1324C189.489 32.2707 190.232 31.5282 191.85 31.5282H198.813C199.618 31.5282 200.256 32.1657 200.256 32.9712C200.256 33.7838 199.618 34.4143 198.813 34.4143H194.89C194.659 34.4143 194.596 34.6034 194.596 34.7155C194.596 34.8206 194.659 35.0097 194.89 35.0097H198.813C199.934 35.0097 200.844 34.0991 200.844 32.9712C200.844 32.8942 200.844 32.8241 200.837 32.7471L200.823 32.684L203.681 29.826C204.186 29.3216 205.047 29.3216 205.559 29.826C205.804 30.0712 205.916 30.3584 205.902 30.7156C205.895 31.0519 205.755 31.4161 205.524 31.7454C205.096 32.3478 204.641 33.0973 204.158 33.8959C203.688 34.6735 203.191 35.4791 202.708 36.1936C201.902 37.3494 200.942 37.8958 199.681 37.8958H193.594C192.676 37.8958 192.123 38.3651 191.64 38.8485L190.981 39.514ZM187.009 35.1498L190.981 39.1217L191.444 38.6594C191.836 38.2671 192.48 37.6156 193.594 37.6156H199.681C200.844 37.6156 201.734 37.1112 202.476 36.0325C202.96 35.332 203.45 34.5264 203.92 33.7488C204.41 32.9502 204.865 32.1937 205.3 31.5842C205.496 31.297 205.615 30.9818 205.629 30.7086C205.636 30.4284 205.559 30.2183 205.363 30.0221C204.956 29.6158 204.277 29.6228 203.877 30.0221L201.117 32.7821C201.117 32.8452 201.125 32.9082 201.125 32.9712C201.125 34.2462 200.088 35.2899 198.813 35.2899H194.89C194.519 35.2899 194.316 34.9957 194.316 34.7155C194.316 34.4283 194.519 34.1411 194.89 34.1411H198.813C199.464 34.1411 199.976 33.6227 199.976 32.9712C199.976 32.3198 199.464 31.8084 198.813 31.8084H191.85C190.344 31.8084 189.671 32.4739 188.831 33.3215L187.009 35.1498ZM196.193 29.2025C196.172 29.2025 196.151 29.2025 196.13 29.1955C195.948 29.1745 195.794 29.0764 195.703 28.9223L191.822 25.0485C191.191 24.4181 190.841 23.5775 190.841 22.6878C190.841 21.7912 191.191 20.9506 191.822 20.3201C192.452 19.6897 193.293 19.3394 194.182 19.3394C194.911 19.3394 195.626 19.5846 196.2 20.0189C196.774 19.5846 197.489 19.3394 198.217 19.3394C199.114 19.3464 199.948 19.6897 200.578 20.3201C201.881 21.6231 201.881 23.7456 200.578 25.0485L196.606 29.0204C196.501 29.1325 196.354 29.2025 196.193 29.2025ZM194.182 19.6196C193.363 19.6196 192.592 19.9419 192.018 20.5163C191.437 21.0977 191.121 21.8682 191.121 22.6878C191.121 23.5004 191.437 24.271 192.018 24.8524L195.92 28.7542C195.99 28.8593 196.067 28.9083 196.158 28.9223C196.249 28.9293 196.347 28.9013 196.41 28.8313L200.382 24.8524C201.58 23.6545 201.58 21.7141 200.382 20.5163C199.808 19.9419 199.037 19.6196 198.217 19.6196C197.517 19.6196 196.83 19.8648 196.291 20.3061L196.2 20.3762L196.116 20.3061C195.569 19.8648 194.883 19.6196 194.182 19.6196ZM196.2 28.2078L192.431 24.4391C191.962 23.9698 191.703 23.3463 191.703 22.6878C191.703 22.0294 191.962 21.4129 192.431 20.9436C192.901 20.4672 193.524 20.208 194.182 20.208C194.834 20.208 195.457 20.4672 195.934 20.9436L195.99 20.9996C196.109 21.1187 196.291 21.1187 196.41 20.9996L196.466 20.9436C196.935 20.4672 197.559 20.208 198.217 20.208C198.876 20.208 199.492 20.4672 199.969 20.9436C200.949 21.9243 200.949 23.4584 199.969 24.4391L196.2 28.2078ZM194.182 20.4882C193.601 20.4882 193.048 20.7194 192.627 21.1327C191.759 22.0083 191.759 23.3743 192.627 24.243L196.2 27.8155L199.773 24.243C200.641 23.3743 200.641 22.0083 199.773 21.1327C199.352 20.7194 198.799 20.4882 198.217 20.4882C197.636 20.4882 197.083 20.7194 196.662 21.1327L196.606 21.1958C196.382 21.4199 196.018 21.4199 195.794 21.1958L195.731 21.1327C195.317 20.7194 194.764 20.4882 194.182 20.4882Z" fill="#231F20"/>
</g>
<defs>
<clipPath id="clip0_26_17705">
<rect width="427" height="71" fill="white"/>
</clipPath>
</defs>
</svg>
