<svg width="260" height="61" viewBox="0 0 260 61" fill="none" xmlns="http://www.w3.org/2000/svg">
<g clip-path="url(#clip0_79_1018)">
<path d="M24.6979 60.4688C11.0781 60.4688 0 49.5208 0 36.0625V0H234.948C248.563 0 259.641 10.9479 259.641 24.4062V60.4688" fill="white"/>
<path d="M222.083 52.9114H69.1353C59.6874 52.9114 51.9999 45.3541 51.9999 36.0625V7.55725H204.948C214.396 7.55725 222.083 15.1145 222.083 24.4062V52.9114ZM204.948 5.66663H50.1145V36.0625C50.1145 46.3958 58.6458 54.802 69.1353 54.802H223.969V24.4062C223.969 14.0729 215.437 5.66663 204.948 5.66663Z" fill="#333347"/>
<path d="M196.714 54.802L209.724 28.2239L196.432 5.66663H234.948C245.437 5.66663 253.969 14.0729 253.969 24.4062V54.802" fill="#333347"/>
<path d="M102.901 5.66663H50.1145V36.0625C50.1145 46.3958 58.6458 54.802 69.1353 54.802H121.927V24.4062C121.927 14.0729 113.391 5.66663 102.901 5.66663Z" fill="#333347"/>
<path d="M63.651 29.3594C58.8489 29.3594 54.9583 33.25 54.9583 38.0521C54.9583 42.8542 58.8489 46.7448 63.651 46.7448C68.4583 46.7448 72.3489 42.8542 72.3489 38.0521C72.3489 33.25 68.4583 29.3594 63.651 29.3594Z" fill="white"/>
<path d="M69.3229 39.4688H65.0729V43.7188H62.2344V39.4688H57.9844V36.6355H62.2344V32.3802H65.0729V36.6355H69.3229" fill="#1C1C1B"/>
<path d="M55.7864 26.5937V17.1979H58.2708V24.5156H61.828V26.5937" fill="white"/>
<path d="M62.9426 26.5937V17.1979H69.0155V19.276H65.4322V20.7552H68.4947V22.8385H65.4322V24.5156H69.1614V26.5937" fill="white"/>
<path d="M75.0885 26.5937V19.276H72.6041V17.1979H80.0677V19.276H77.5781V26.5937" fill="white"/>
<path d="M83.5521 21.4739H84.4479C85.4479 21.4739 85.9531 21.0625 85.9531 20.2343C85.9531 19.8281 85.8229 19.5468 85.5677 19.3958C85.3125 19.2395 84.9375 19.1614 84.4479 19.1614H83.5521V21.4739ZM81.0625 26.5989V17.1979H84.6198C85.125 17.1979 85.6042 17.2448 86.0625 17.3385C86.5208 17.4375 86.9167 17.5989 87.2604 17.8333C87.6042 18.0625 87.875 18.375 88.0781 18.7656C88.2813 19.1562 88.3802 19.6458 88.3802 20.2343C88.3802 20.9062 88.2448 21.4687 87.9688 21.9114C87.6979 22.3541 87.3281 22.6979 86.8646 22.9531L88.901 26.5989H86.125L84.5052 23.4427H83.5521V26.5989" fill="white"/>
<path d="M89.8698 26.5989H92.3593V17.1979H89.8698V26.5989Z" fill="white"/>
<path d="M75.3801 43.276V33.8698H81.5103V35.9531H77.8697V37.75H80.9895V39.8333H77.8697V43.276" fill="white"/>
<path d="M84.9218 38.7031L84.7604 39.3541H86.4948L86.3385 38.7031C86.2239 38.25 86.1041 37.7604 85.9895 37.2291C85.875 36.6979 85.7604 36.1979 85.6406 35.7239H85.5833C85.4791 36.2031 85.3698 36.7083 85.2604 37.2343C85.151 37.7604 85.0364 38.25 84.9218 38.7031ZM81.3073 43.276L84.1666 33.8698H87.1718L90.0364 43.276H87.4062L86.9427 41.276H84.3125L83.8489 43.276" fill="white"/>
<path d="M94.5624 43.4479C93.9687 43.4479 93.3958 43.3489 92.8541 43.151C92.3072 42.9531 91.8333 42.651 91.4218 42.2552C91.0103 41.8541 90.6822 41.3541 90.4426 40.75C90.203 40.1458 90.0833 39.4479 90.0833 38.6458C90.0833 37.8541 90.2083 37.151 90.4583 36.5416C90.7083 35.927 91.0416 35.4114 91.4635 34.9948C91.8801 34.5729 92.3645 34.25 92.9114 34.0312C93.4583 33.8073 94.026 33.6979 94.6249 33.6979C95.2499 33.6979 95.8124 33.8229 96.302 34.0677C96.7968 34.3125 97.2083 34.6041 97.5468 34.9427L96.2447 36.5312C96.0155 36.3333 95.776 36.1666 95.5312 36.0312C95.2812 35.9062 94.9999 35.8385 94.6822 35.8385C94.401 35.8385 94.1405 35.901 93.8958 36.026C93.651 36.151 93.4322 36.3333 93.2447 36.5625C93.0572 36.7916 92.9062 37.0781 92.7968 37.4166C92.6822 37.75 92.6301 38.1354 92.6301 38.5573C92.6301 39.4479 92.8124 40.125 93.1874 40.5989C93.5572 41.0677 94.0468 41.3073 94.651 41.3073C95.0208 41.3073 95.3437 41.2291 95.6301 41.0677C95.9114 40.9062 96.1562 40.7187 96.3593 40.4948L97.6614 42.0573C97.2551 42.5208 96.7916 42.8698 96.2655 43.0989C95.7395 43.3333 95.1718 43.4479 94.5624 43.4479Z" fill="white"/>
<path d="M98.6198 43.276H101.104V33.8698H98.6198V43.276Z" fill="white"/>
<path d="M102.875 43.276V33.8698H105.365V41.1927H108.922V43.276" fill="white"/>
<path d="M110.031 43.276V33.8698H116.109V35.9531H112.521V37.4323H115.589V39.5156H112.521V41.1927H116.255V43.276" fill="white"/>
<path d="M28.4062 25.7448C26.7135 28.2343 28.151 31.5104 29.8958 33.1718C31.4895 34.6823 32.7655 35.0364 32.9322 35.0781L33.7447 33.5208L36.0885 39.9323L29.4635 41.2812L30.3437 39.6458L29.4478 39.1458C26.6562 37.3281 26.0676 34.8593 25.8749 34.0885C25.5416 32.7604 25.0468 28.7864 28.4062 25.7448Z" fill="#333347"/>
<path d="M28.375 25.8489C29.5781 28.6093 33.1146 29.1406 35.4479 28.552C37.5208 28.026 38.5052 27.1718 38.6719 27.0156L38.6615 27L37.776 25.4635L44.4427 26.9218L42.0313 33.2395L41.1354 31.6458L40.2656 32.1198C37.2396 33.5104 34.8333 32.6927 34.0781 32.4427C32.7813 32.0156 29.1562 30.3125 28.375 25.8489Z" fill="#333347"/>
<path d="M40.1613 19.1927C39.6978 22.4895 37.7134 24.0729 37.0936 24.5729C36.0311 25.4375 32.6457 27.5677 28.4634 25.8177C31.4373 26.2916 33.7967 23.6041 34.5571 21.3177C35.2446 19.2656 35.0415 17.9687 34.9998 17.7708L34.979 17.7656L33.2134 17.6927L38.0259 12.8541L42.0519 18.2864L40.2342 18.1823" fill="#333347"/>
<path fill-rule="evenodd" clip-rule="evenodd" d="M19.9375 16.4115C18.4167 16.4115 17.1875 15.1823 17.1875 13.6563C17.1875 12.1354 18.4167 10.9062 19.9375 10.9062C21.4583 10.9062 22.6927 12.1354 22.6927 13.6563C22.6927 15.1823 21.4583 16.4115 19.9375 16.4115Z" fill="#333347"/>
<path d="M15.6771 29.7968C15.9115 29.151 16.2604 29.1927 16.2604 29.1927C16.2604 29.1927 16.5781 29.125 16.7552 29.7708L19.3281 38.8073C17.1823 38.1823 15.224 37.1198 13.5573 35.7083L15.6771 29.7968ZM23.7031 5.66663C13.7604 5.66663 5.67188 13.7552 5.67188 23.6979C5.67188 33.6406 13.7604 41.7291 23.7031 41.7291C24.2344 41.7291 24.7552 41.6979 25.276 41.651L25.3958 43.4635L28.6979 40.2708L25.0052 37.4531L25.1458 39.3541C24.6719 39.401 24.1875 39.4323 23.7031 39.4323C22.9375 39.4323 22.1875 39.375 21.4531 39.2656L21.3802 38.7864L19.6667 24.1875C19.4323 21.4323 21.0052 20.9948 21.9792 21.4062L27.4479 23.6041C28.0729 23.875 28.375 23.3489 28.375 23.3489C28.375 23.3489 28.7292 22.802 28.0938 22.3958C28.0938 22.3958 20.6406 17.4583 19.0521 17.1562C16.8854 16.7552 14.7396 18.5104 14.2656 20.7968L11.6198 33.7604C9.34375 31.0312 7.96875 27.5208 7.96875 23.6979C7.96875 15.0208 15.026 7.9635 23.7031 7.9635C28.3385 7.9635 32.5104 9.97913 35.3906 13.177L37.0052 11.5364C33.7083 7.93225 28.9635 5.66663 23.7031 5.66663Z" fill="#333347"/>
<path d="M130.992 24.324V24.576C130.992 24.776 131.008 24.96 131.04 25.128C131.072 25.288 131.132 25.424 131.22 25.536C131.308 25.648 131.424 25.736 131.568 25.8C131.72 25.864 131.908 25.896 132.132 25.896C132.396 25.896 132.632 25.812 132.84 25.644C133.056 25.468 133.164 25.2 133.164 24.84C133.164 24.648 133.136 24.484 133.08 24.348C133.032 24.204 132.948 24.076 132.828 23.964C132.708 23.852 132.548 23.752 132.348 23.664C132.156 23.568 131.916 23.472 131.628 23.376C131.244 23.248 130.912 23.108 130.632 22.956C130.352 22.804 130.116 22.628 129.924 22.428C129.74 22.22 129.604 21.984 129.516 21.72C129.428 21.448 129.384 21.136 129.384 20.784C129.384 19.936 129.62 19.304 130.092 18.888C130.564 18.472 131.212 18.264 132.036 18.264C132.42 18.264 132.772 18.308 133.092 18.396C133.42 18.476 133.7 18.612 133.932 18.804C134.172 18.988 134.356 19.228 134.484 19.524C134.62 19.812 134.688 20.16 134.688 20.568V20.808H133.032C133.032 20.4 132.96 20.088 132.816 19.872C132.672 19.648 132.432 19.536 132.096 19.536C131.904 19.536 131.744 19.564 131.616 19.62C131.488 19.676 131.384 19.752 131.304 19.848C131.232 19.936 131.18 20.04 131.148 20.16C131.124 20.28 131.112 20.404 131.112 20.532C131.112 20.796 131.168 21.02 131.28 21.204C131.392 21.38 131.632 21.544 132 21.696L133.332 22.272C133.66 22.416 133.928 22.568 134.136 22.728C134.344 22.88 134.508 23.048 134.628 23.232C134.756 23.408 134.844 23.604 134.892 23.82C134.94 24.036 134.964 24.276 134.964 24.54C134.964 25.444 134.7 26.104 134.172 26.52C133.652 26.928 132.924 27.132 131.988 27.132C131.012 27.132 130.312 26.92 129.888 26.496C129.472 26.072 129.264 25.464 129.264 24.672V24.324H130.992ZM139.399 23.772L138.571 19.92H138.547L137.719 23.772H139.399ZM139.627 18.432L141.895 27H140.095L139.699 25.188H137.419L137.023 27H135.223L137.491 18.432H139.627ZM144.219 22.308H144.987C145.331 22.308 145.607 22.204 145.815 21.996C146.031 21.788 146.139 21.464 146.139 21.024C146.139 20.592 146.047 20.264 145.863 20.04C145.679 19.816 145.371 19.704 144.939 19.704H144.219V22.308ZM142.491 18.432H145.515C145.955 18.432 146.323 18.508 146.619 18.66C146.923 18.804 147.167 18.996 147.351 19.236C147.535 19.476 147.667 19.752 147.747 20.064C147.827 20.368 147.867 20.68 147.867 21C147.867 21.44 147.799 21.824 147.663 22.152C147.535 22.48 147.351 22.748 147.111 22.956C146.879 23.164 146.595 23.32 146.259 23.424C145.923 23.528 145.551 23.58 145.143 23.58H144.219V27H142.491V18.432ZM148.797 27V18.432H150.525V27H148.797ZM153.799 18.432L155.887 24.3H155.911V18.432H157.495V27H155.527L153.415 21H153.391V27H151.807V18.432H153.799ZM163.392 25.728H164.16C164.464 25.728 164.708 25.676 164.892 25.572C165.076 25.468 165.22 25.296 165.324 25.056C165.436 24.816 165.508 24.5 165.54 24.108C165.58 23.716 165.6 23.228 165.6 22.644C165.6 22.156 165.584 21.728 165.552 21.36C165.52 20.992 165.452 20.688 165.348 20.448C165.252 20.2 165.104 20.016 164.904 19.896C164.712 19.768 164.452 19.704 164.124 19.704H163.392V25.728ZM161.664 18.432H164.496C165.096 18.432 165.58 18.532 165.948 18.732C166.316 18.924 166.6 19.204 166.8 19.572C167.008 19.932 167.148 20.368 167.22 20.88C167.292 21.392 167.328 21.964 167.328 22.596C167.328 23.348 167.28 24.004 167.184 24.564C167.096 25.116 166.94 25.572 166.716 25.932C166.492 26.292 166.192 26.56 165.816 26.736C165.44 26.912 164.964 27 164.388 27H161.664V18.432ZM173.259 18.432V19.848H170.199V21.864H173.079V23.28H170.199V25.584H173.379V27H168.471V18.432H173.259ZM131.592 33.432L133.68 39.3H133.704V33.432H135.288V42H133.32L131.208 36H131.184V42H129.6V33.432H131.592ZM138.039 37.716C138.039 38.292 138.051 38.784 138.075 39.192C138.107 39.592 138.163 39.92 138.243 40.176C138.331 40.424 138.451 40.608 138.603 40.728C138.763 40.84 138.971 40.896 139.227 40.896C139.483 40.896 139.687 40.84 139.839 40.728C139.999 40.608 140.119 40.424 140.199 40.176C140.287 39.92 140.343 39.592 140.367 39.192C140.399 38.784 140.415 38.292 140.415 37.716C140.415 37.14 140.399 36.652 140.367 36.252C140.343 35.852 140.287 35.524 140.199 35.268C140.119 35.012 139.999 34.828 139.839 34.716C139.687 34.596 139.483 34.536 139.227 34.536C138.971 34.536 138.763 34.596 138.603 34.716C138.451 34.828 138.331 35.012 138.243 35.268C138.163 35.524 138.107 35.852 138.075 36.252C138.051 36.652 138.039 37.14 138.039 37.716ZM136.311 37.716C136.311 37.068 136.339 36.472 136.395 35.928C136.459 35.376 136.591 34.904 136.791 34.512C136.999 34.12 137.295 33.816 137.679 33.6C138.063 33.376 138.579 33.264 139.227 33.264C139.875 33.264 140.391 33.376 140.775 33.6C141.159 33.816 141.451 34.12 141.651 34.512C141.859 34.904 141.991 35.376 142.047 35.928C142.111 36.472 142.143 37.068 142.143 37.716C142.143 38.372 142.111 38.972 142.047 39.516C141.991 40.06 141.859 40.528 141.651 40.92C141.451 41.312 141.159 41.612 140.775 41.82C140.391 42.028 139.875 42.132 139.227 42.132C138.579 42.132 138.063 42.028 137.679 41.82C137.295 41.612 136.999 41.312 136.791 40.92C136.591 40.528 136.459 40.06 136.395 39.516C136.339 38.972 136.311 38.372 136.311 37.716ZM145.955 31.404H147.299V32.82H145.955V31.404ZM143.891 31.404H145.235V32.82H143.891V31.404ZM147.947 33.432V34.848H144.887V36.864H147.767V38.28H144.887V40.584H148.067V42H143.159V33.432H147.947ZM148.936 42V33.432H150.664V40.584H153.724V42H148.936ZM159.365 33.432L161.453 39.3H161.477V33.432H163.061V42H161.093L158.981 36H158.957V42H157.373V33.432H159.365ZM167.84 38.772L167.012 34.92H166.988L166.16 38.772H167.84ZM168.068 33.432L170.336 42H168.536L168.14 40.188H165.86L165.464 42H163.664L165.932 33.432H168.068ZM175.292 33.432V34.848H173.42V42H171.692V34.848H169.82V33.432H175.292ZM177.661 33.432V39.408C177.661 39.624 177.673 39.824 177.697 40.008C177.729 40.184 177.781 40.34 177.853 40.476C177.933 40.604 178.037 40.708 178.165 40.788C178.301 40.86 178.469 40.896 178.669 40.896C178.877 40.896 179.045 40.86 179.173 40.788C179.301 40.708 179.401 40.604 179.473 40.476C179.553 40.34 179.605 40.184 179.629 40.008C179.661 39.824 179.677 39.624 179.677 39.408V33.432H181.405V39.408C181.405 39.952 181.329 40.404 181.177 40.764C181.025 41.116 180.821 41.396 180.565 41.604C180.309 41.812 180.017 41.952 179.689 42.024C179.361 42.096 179.021 42.132 178.669 42.132C178.317 42.132 177.977 42.1 177.649 42.036C177.321 41.972 177.029 41.844 176.773 41.652C176.517 41.452 176.313 41.172 176.161 40.812C176.009 40.452 175.933 39.984 175.933 39.408V33.432H177.661ZM182.498 33.432H185.69C186.41 33.432 186.97 33.616 187.37 33.984C187.77 34.344 187.97 34.896 187.97 35.64C187.97 36.216 187.854 36.688 187.622 37.056C187.39 37.416 187.03 37.648 186.542 37.752V37.776C186.974 37.84 187.29 37.98 187.49 38.196C187.69 38.412 187.814 38.76 187.862 39.24C187.878 39.4 187.89 39.576 187.898 39.768C187.906 39.952 187.914 40.16 187.922 40.392C187.938 40.848 187.962 41.196 187.994 41.436C188.042 41.676 188.146 41.84 188.306 41.928V42H186.434C186.346 41.88 186.29 41.744 186.266 41.592C186.242 41.432 186.226 41.268 186.218 41.1L186.17 39.456C186.154 39.12 186.07 38.856 185.918 38.664C185.766 38.472 185.51 38.376 185.15 38.376H184.226V42H182.498V33.432ZM184.226 37.176H184.946C185.362 37.176 185.682 37.08 185.906 36.888C186.13 36.688 186.242 36.356 186.242 35.892C186.242 35.1 185.842 34.704 185.042 34.704H184.226V37.176ZM193.954 33.432V34.848H190.894V36.864H193.774V38.28H190.894V40.584H194.074V42H189.166V33.432H193.954ZM194.944 42V33.432H196.672V40.584H199.732V42H194.944Z" fill="black"/>
<path d="M222.337 36.8405L216.602 36.8342C216.276 36.8342 216.006 36.5707 216.006 36.2444L216 30.5407C216 30.3023 216.144 30.0827 216.37 29.9948C216.59 29.9007 216.847 29.9509 217.016 30.1203L218.14 31.2372L227.803 21.6181C228.035 21.3923 228.411 21.3923 228.643 21.6181L231.304 24.2661C231.417 24.379 231.48 24.5233 231.48 24.6865C231.48 24.8433 231.417 24.9939 231.304 25.1069L221.641 34.7134L222.758 35.8303C222.927 35.9997 222.977 36.257 222.883 36.4766C222.795 36.6962 222.576 36.8405 222.337 36.8405ZM217.198 35.6483L220.894 35.6546L220.373 35.1338C220.141 34.9016 220.141 34.5252 220.373 34.293L230.036 24.6865L228.223 22.8794L218.56 32.4922C218.328 32.7243 217.951 32.7243 217.719 32.4922L217.192 31.9776" fill="white"/>
<path d="M234.473 28.2442C234.015 28.2442 233.575 28.0685 233.237 27.7547C232.885 27.4285 232.684 26.983 232.666 26.4998L232.578 23.7703L233.77 23.7327L233.858 26.4622C233.864 26.6253 233.933 26.7759 234.052 26.8888C234.171 27.0018 234.341 27.0457 234.498 27.0583C234.661 27.052 234.811 26.983 234.924 26.8637C235.037 26.7445 235.094 26.5877 235.088 26.4245L234.956 22.7852L236.148 22.7476L236.28 26.3806C236.299 26.8637 236.129 27.3218 235.797 27.6732C235.464 28.0246 235.019 28.2253 234.535 28.2379C234.51 28.2442 234.491 28.2442 234.473 28.2442Z" fill="white"/>
<path d="M234.473 28.2442C234.015 28.2442 233.575 28.0685 233.237 27.7547C232.885 27.4285 232.684 26.983 232.666 26.4998L232.578 23.7703L233.77 23.7327L233.858 26.4622C233.864 26.6253 233.933 26.7759 234.052 26.8888C234.171 27.0018 234.341 27.0457 234.498 27.0583C234.661 27.052 234.811 26.983 234.924 26.8637C235.037 26.7445 235.094 26.5877 235.088 26.4245L234.956 22.7852L236.148 22.7476L236.28 26.3806C236.299 26.8637 236.129 27.3218 235.797 27.6732C235.464 28.0246 235.019 28.2253 234.535 28.2379C234.51 28.2442 234.491 28.2442 234.473 28.2442Z" fill="white"/>
<path d="M232.063 28.6521C231.599 28.6521 231.166 28.4827 230.827 28.169C230.476 27.8364 230.269 27.3909 230.256 26.9078L230.168 24.1783L231.36 24.1406L231.448 26.8701C231.455 27.0395 231.524 27.1901 231.643 27.3031C231.762 27.416 231.919 27.485 232.082 27.4662C232.421 27.4537 232.691 27.1713 232.678 26.8325L232.546 23.1994L233.739 23.1555L233.87 26.7886C233.908 27.7862 233.124 28.6145 232.126 28.6521C232.101 28.6521 232.082 28.6521 232.063 28.6521Z" fill="white"/>
<path d="M234.115 36.8531C233.87 36.8531 233.651 36.7025 233.563 36.4829C233.469 36.2632 233.519 36.006 233.688 35.8366L234.811 34.7197L225.148 25.1069C224.916 24.881 224.916 24.5045 225.148 24.2723L227.803 21.6244C228.022 21.4048 228.424 21.4048 228.643 21.6244L238.733 31.6576L237.886 32.4984L228.223 22.8856L226.41 24.6927L236.073 34.2993C236.311 34.5314 236.311 34.9142 236.073 35.1401L235.552 35.6609H239.248L239.254 30.547H240.446L240.44 36.2507C240.44 36.577 240.176 36.8405 239.844 36.8405L234.115 36.8531Z" fill="white"/>
<path d="M228.198 41.3645C228.041 41.3645 227.891 41.308 227.771 41.1888L223.718 37.1668C223.548 36.9973 223.498 36.7401 223.586 36.5205C223.68 36.2946 223.9 36.1503 224.138 36.1503H225.726V25.1068C225.726 24.7806 225.989 24.5107 226.322 24.5107H230.08C230.407 24.5107 230.677 24.7806 230.677 25.1068V36.7464H229.484V25.7029H226.918V36.7464C226.918 37.0726 226.648 37.3362 226.322 37.3362H225.581L228.198 39.9339L231.831 36.326L232.678 37.1668L228.618 41.1888C228.499 41.308 228.349 41.3645 228.198 41.3645Z" fill="white"/>
<path d="M222.331 36.8405L216.602 36.8342C216.276 36.8342 216.006 36.5707 216.006 36.2444L216 30.5407C216 30.3023 216.144 30.0827 216.37 29.9948C216.59 29.9007 216.847 29.9509 217.016 30.1203L218.14 31.2372L227.803 21.6181C228.035 21.3923 228.411 21.3923 228.643 21.6181L231.304 24.2661C231.417 24.379 231.48 24.5233 231.48 24.6865C231.48 24.8433 231.417 24.9939 231.304 25.1069L221.214 35.1338L220.373 34.293L230.036 24.6865L228.223 22.8794L218.56 32.4922C218.328 32.7243 217.951 32.7243 217.719 32.4922L217.192 31.9776L217.198 35.6483L222.337 35.6546" fill="white"/>
<path d="M241.927 19.8236C241.494 19.8236 241.086 19.6542 240.779 19.353L235.182 13.7811C234.874 13.4799 234.705 13.0721 234.705 12.6454C234.705 12.2124 234.874 11.8109 235.175 11.5034L236.631 10.0539C237.246 9.45158 238.313 9.45158 238.928 10.0539L244.525 15.6259C245.158 16.2533 245.158 17.2761 244.525 17.9036L243.069 19.353C242.762 19.6542 242.36 19.8236 241.927 19.8236ZM237.779 10.7693C237.666 10.7693 237.56 10.8195 237.478 10.8948V10.901L236.023 12.3442C235.941 12.4258 235.897 12.5324 235.897 12.6454C235.897 12.7583 235.941 12.865 236.023 12.9403L241.62 18.5122C241.783 18.6754 242.065 18.6691 242.228 18.5122L243.684 17.069C243.847 16.8996 243.847 16.6298 243.678 16.4667L238.081 10.901C237.999 10.8195 237.892 10.7693 237.779 10.7693Z" fill="white"/>
<path d="M236 29.5L231.5 25.5L230.5 26.5L230 28.5L233 32.5L236 29.5Z" fill="#333347"/>
<path d="M234.115 36.8531C233.87 36.8531 233.651 36.7025 233.563 36.4829C233.469 36.2632 233.519 36.006 233.688 35.8366L234.811 34.7197L225.148 25.1069C224.916 24.881 224.916 24.5045 225.148 24.2723L227.803 21.6244C228.022 21.4048 228.424 21.4048 228.643 21.6244L238.313 31.2435L239.43 30.1266C239.599 29.9572 239.856 29.907 240.082 30.0011C240.302 30.089 240.446 30.3086 240.446 30.547L240.44 36.2507C240.44 36.577 240.176 36.8405 239.844 36.8405L234.115 36.8531ZM226.41 24.6927L236.073 34.2993C236.311 34.5314 236.311 34.9142 236.073 35.1401L235.552 35.6609H239.248L239.254 31.9839L238.733 32.4984C238.501 32.7306 238.125 32.7306 237.886 32.4984L228.223 22.8856" fill="white"/>
<path d="M224.5 37H226.5V25.5H230L230.5 37H231.5L228 41L224.5 37Z" fill="#333347"/>
<path d="M228.198 41.3645C228.041 41.3645 227.891 41.308 227.778 41.1888L223.718 37.1668C223.548 36.9973 223.498 36.7401 223.586 36.5205C223.68 36.2946 223.9 36.1503 224.138 36.1503H225.726V25.1068C225.726 24.7806 225.989 24.5107 226.322 24.5107H230.08C230.407 24.5107 230.677 24.7806 230.677 25.1068V36.1503H232.251C232.496 36.1503 232.716 36.2946 232.804 36.5205C232.898 36.7401 232.848 36.9973 232.678 37.1668L228.618 41.1888C228.499 41.308 228.349 41.3645 228.198 41.3645ZM225.581 37.3362L228.198 39.9339L230.815 37.3362H230.08C229.748 37.3362 229.484 37.0726 229.484 36.7464V25.7029H226.918V36.7464C226.918 37.0726 226.648 37.3362 226.322 37.3362" fill="white"/>
<path d="M230.501 22.0825L227.803 25.6841C227.345 26.2928 227.47 27.1587 228.085 27.6105C228.694 28.0685 229.566 27.943 230.024 27.3344L231.706 25.088C232.377 24.2096 233.13 23.8833 233.494 23.7892C234.303 23.5758 236.738 22.666 238.043 21.8817C239.342 21.0911 240.013 19.2589 239.944 17.6839L236.06 13.8187L227.815 16.3788C226.811 16.7176 226.447 17.2886 226.297 17.6275C226.146 17.9726 224.502 21.8378 224.502 21.8378C224.314 22.3209 224.207 22.8982 224.483 23.3876C224.759 23.877 225.387 24.8559 225.387 24.8559L227.2 23.0488C227.2 23.0488 227.131 22.0511 227.363 21.5366C227.602 21.0283 227.853 20.1812 228.392 19.9867C228.926 19.7985 229.861 19.4973 229.861 19.4973C229.861 19.4973 229.779 20.564 229.967 21.135C230.162 21.706 230.457 22.0448 230.457 22.0448" fill="#333347"/>
<path d="M228.913 28.4826C228.487 28.4826 228.072 28.3446 227.727 28.0873C227.301 27.7736 227.025 27.3093 226.949 26.7885C226.88 26.2677 227.012 25.7469 227.332 25.3265L229.76 22.0825C229.641 21.8879 229.509 21.637 229.403 21.3232C229.309 21.0283 229.265 20.6581 229.252 20.3255C229.02 20.4008 228.781 20.4824 228.593 20.5452C228.399 20.6142 228.167 21.1726 228.041 21.4675L227.909 21.7875C227.79 22.0385 227.771 22.6535 227.796 23.0111C227.809 23.1805 227.746 23.3499 227.627 23.4692L225.807 25.2763C225.682 25.4018 225.5 25.4645 225.324 25.4457C225.142 25.4269 224.985 25.3265 224.885 25.1759C224.885 25.1759 224.245 24.1782 223.963 23.6825C223.643 23.1115 223.636 22.415 223.95 21.6181C223.956 21.6056 225.6 17.7341 225.751 17.3953C226.071 16.6674 226.717 16.1215 227.621 15.8141L235.878 13.254C236.091 13.185 236.324 13.2414 236.481 13.3983L240.371 17.2698C240.477 17.3765 240.534 17.5145 240.54 17.6651C240.609 19.2651 239.95 21.4236 238.35 22.3836C236.995 23.2056 234.535 24.128 233.644 24.3664C233.513 24.3978 232.822 24.6112 232.182 25.4457L230.501 27.692C230.181 28.1124 229.723 28.3885 229.196 28.4638C229.102 28.4764 229.007 28.4826 228.913 28.4826ZM229.867 18.9075C229.999 18.9075 230.131 18.9514 230.231 19.033C230.388 19.1585 230.476 19.3467 230.457 19.5475C230.432 19.9114 230.425 20.6142 230.538 20.9467C230.683 21.3922 230.909 21.6621 230.915 21.6621C231.147 21.8628 231.166 22.1891 230.978 22.4401L228.286 26.0355C228.154 26.2049 228.104 26.412 228.135 26.619C228.16 26.8261 228.273 27.0144 228.443 27.1336C228.612 27.2653 228.819 27.3093 229.026 27.2904C229.233 27.2591 229.422 27.1461 229.547 26.983L231.229 24.7304C232.088 23.6135 233.061 23.2872 233.343 23.2182C234.058 23.0299 236.468 22.1389 237.729 21.3734C238.802 20.7271 239.342 19.2024 239.354 17.9349L235.891 14.4964L227.991 16.9435C227.42 17.138 227.025 17.4517 226.843 17.8659C226.692 18.211 225.054 22.0699 225.054 22.0699C224.885 22.5029 224.866 22.8542 225.004 23.0927C225.123 23.3123 225.318 23.626 225.494 23.9084L226.598 22.8166C226.592 22.4276 226.61 21.7562 226.824 21.2918L226.943 21.0158C227.175 20.451 227.501 19.673 228.192 19.4283C228.731 19.24 229.679 18.9326 229.679 18.9326C229.742 18.9137 229.804 18.9075 229.867 18.9075Z" fill="white"/>
<path d="M214.369 44.7H215.881C216.373 44.7 216.742 44.832 216.988 45.096C217.234 45.36 217.357 45.747 217.357 46.257V49.443C217.357 49.953 217.234 50.34 216.988 50.604C216.742 50.868 216.373 51 215.881 51H214.369V44.7ZM215.863 50.1C216.025 50.1 216.148 50.052 216.232 49.956C216.322 49.86 216.367 49.704 216.367 49.488V46.212C216.367 45.996 216.322 45.84 216.232 45.744C216.148 45.648 216.025 45.6 215.863 45.6H215.359V50.1H215.863ZM218.025 44.7H220.725V45.6H219.015V47.265H220.374V48.165H219.015V50.1H220.725V51H218.025V44.7ZM219.465 43.242H220.545L219.582 44.277H218.835L219.465 43.242ZM222.69 51.09C222.216 51.09 221.853 50.955 221.601 50.685C221.355 50.415 221.232 50.034 221.232 49.542V46.158C221.232 45.666 221.355 45.285 221.601 45.015C221.853 44.745 222.216 44.61 222.69 44.61C223.164 44.61 223.524 44.745 223.77 45.015C224.022 45.285 224.148 45.666 224.148 46.158V46.824H223.212V46.095C223.212 45.705 223.047 45.51 222.717 45.51C222.387 45.51 222.222 45.705 222.222 46.095V49.614C222.222 49.998 222.387 50.19 222.717 50.19C223.047 50.19 223.212 49.998 223.212 49.614V48.651H224.148V49.542C224.148 50.034 224.022 50.415 223.77 50.685C223.524 50.955 223.164 51.09 222.69 51.09ZM224.74 44.7H225.73V47.265H226.792V44.7H227.782V51H226.792V48.165H225.73V51H224.74V44.7ZM228.519 44.7H231.219V45.6H229.509V47.265H230.868V48.165H229.509V50.1H231.219V51H228.519V44.7ZM228.699 43.242H229.779L230.409 44.277H229.662L228.699 43.242ZM232.563 45.6H231.528V44.7H234.588V45.6H233.553V51H232.563V45.6ZM235.067 44.7H237.767V45.6H236.057V47.265H237.416V48.165H236.057V50.1H237.767V51H235.067V44.7ZM238.337 44.7H239.804C240.314 44.7 240.686 44.82 240.92 45.06C241.154 45.294 241.271 45.657 241.271 46.149V46.536C241.271 47.19 241.055 47.604 240.623 47.778V47.796C240.863 47.868 241.031 48.015 241.127 48.237C241.229 48.459 241.28 48.756 241.28 49.128V50.235C241.28 50.415 241.286 50.562 241.298 50.676C241.31 50.784 241.34 50.892 241.388 51H240.38C240.344 50.898 240.32 50.802 240.308 50.712C240.296 50.622 240.29 50.46 240.29 50.226V49.074C240.29 48.786 240.242 48.585 240.146 48.471C240.056 48.357 239.897 48.3 239.669 48.3H239.327V51H238.337V44.7ZM239.687 47.4C239.885 47.4 240.032 47.349 240.128 47.247C240.23 47.145 240.281 46.974 240.281 46.734V46.248C240.281 46.02 240.239 45.855 240.155 45.753C240.077 45.651 239.951 45.6 239.777 45.6H239.327V47.4H239.687ZM241.967 44.7H242.957V51H241.967V44.7ZM243.698 44.7H246.398V45.6H244.688V47.265H246.047V48.165H244.688V50.1H246.398V51H243.698V44.7Z" fill="white"/>
</g>
<defs>
<clipPath id="clip0_79_1018">
<rect width="260" height="61" fill="white"/>
</clipPath>
</defs>
</svg>
