<svg width="103" height="49" viewBox="0 0 103 49" fill="none" xmlns="http://www.w3.org/2000/svg">
<g clip-path="url(#clip0_26_18190)">
<path d="M54.1979 25.3385C54.1979 26.5 53.3594 27.4427 52.3229 27.4427H41.2552C40.2239 27.4427 39.3802 26.5 39.3802 25.3385C39.3802 25.2917 39.375 25.2552 39.3646 25.2135C39.3698 25.1823 39.375 25.1562 39.3802 25.125L40.1146 15.5781C40.1771 14.8125 40.8229 14.2187 41.5885 14.2187H51.6562L52.5573 22.1823H52.3541C52.3437 22.1823 52.3333 22.1823 52.3229 22.1823H43.2135C43.2083 22.1823 43.2031 22.1823 43.2031 22.1823H42.0677C40.9062 22.1823 39.9583 23.1979 39.9583 24.4479C39.9583 25.6927 40.9062 26.7031 42.0677 26.7031H43.6354C43.6406 26.7031 43.6406 26.7083 43.6458 26.7083H52.0416C52.7708 26.7083 53.3594 26.0833 53.3594 25.3125C53.3594 24.5469 52.7708 23.9219 52.0416 23.9219H42.7656C42.4739 23.9219 42.2396 24.1562 42.2396 24.4479C42.2396 24.7344 42.4739 24.9687 42.7656 24.9687H52.0416C52.1875 24.9687 52.3125 25.125 52.3125 25.3125C52.3125 25.5052 52.1875 25.6615 52.0416 25.6615H51.0677C51.0625 25.6615 51.0625 25.6615 51.0573 25.6615H42.0677C41.4844 25.6615 41.0052 25.1146 41.0052 24.4479C41.0052 23.776 41.4844 23.2292 42.0677 23.2292H52.3385C53.3646 23.2396 54.1979 24.1823 54.1979 25.3385ZM54.3958 22.1823H53.0833L52.1823 14.2187H53.3385L54.3958 22.1823ZM55.4427 22.9635C55.4479 22.9531 55.4583 22.9375 55.4635 22.9271C55.4687 22.9115 55.4791 22.8906 55.4844 22.875C55.4896 22.8594 55.4948 22.8437 55.5 22.8281C55.5 22.8125 55.5052 22.7969 55.5052 22.7812C55.5104 22.7604 55.5104 22.7448 55.5104 22.724C55.5104 22.7187 55.5156 22.7135 55.5156 22.7083C55.5156 22.6979 55.5104 22.6823 55.5104 22.6719C55.5104 22.6615 55.5104 22.651 55.5104 22.6354L54.3177 13.625C54.2812 13.3646 54.0625 13.1719 53.7969 13.1719H41.5885C40.2812 13.1719 39.1719 14.1927 39.0729 15.4948L38.3385 25.0469C38.3333 25.1042 38.3385 25.1562 38.3541 25.2083C38.3385 25.25 38.3333 25.2917 38.3333 25.3385C38.3333 27.0781 39.6458 28.4896 41.2552 28.4896H52.3229C53.9323 28.4896 55.2448 27.0781 55.2448 25.3385C55.2448 24.526 54.9583 23.7865 54.4948 23.2292H54.9896C55.0052 23.2292 55.0208 23.2292 55.0364 23.224C55.0469 23.224 55.0521 23.224 55.0625 23.224L55.0677 23.2187C55.0937 23.2187 55.1198 23.2083 55.1406 23.2031C55.151 23.2031 55.1614 23.1979 55.1719 23.1979C55.1927 23.1875 55.2135 23.1771 55.2344 23.1667C55.2448 23.1615 55.2552 23.1562 55.2656 23.151C55.2812 23.1406 55.3021 23.125 55.3177 23.1094C55.3281 23.1042 55.3385 23.0937 55.3437 23.0885C55.3594 23.0729 55.375 23.0573 55.3906 23.0417C55.3958 23.0312 55.4062 23.026 55.4114 23.0156C55.4271 22.9948 55.4375 22.9792 55.4427 22.9635Z" fill="black"/>
<path d="M72.0677 17.8646L68.7448 14.8125V17.7813H59.9739V24.0521H68.7448V27.0208L75.3906 20.9167" fill="black"/>
<path d="M17.8073 21.8958C16.4844 23.8489 17.6094 26.4114 18.9792 27.7135C20.2239 28.8958 21.2239 29.1771 21.3594 29.2083L21.9948 27.9896L23.8333 33.0104L18.6354 34.0677L19.3281 32.7916L18.625 32.3958C16.4427 30.9739 15.9792 29.0364 15.8281 28.4323C15.5677 27.3906 15.1771 24.2812 17.8073 21.8958Z" fill="black"/>
<path d="M17.7864 21.9791C18.7291 24.1406 21.5 24.5573 23.3281 24.0937C24.9531 23.6823 25.7239 23.0156 25.8541 22.8906L25.8489 22.8802L25.151 21.6771L30.375 22.8177L28.4791 27.7656L27.7864 26.5208L27.0989 26.8906C24.7291 27.9791 22.8437 27.3385 22.2552 27.1458C21.2396 26.8073 18.3958 25.4791 17.7864 21.9791Z" fill="black"/>
<path d="M27.0208 16.7656C26.6563 19.349 25.099 20.5885 24.6198 20.9792C23.7865 21.6562 21.1302 23.3281 17.8594 21.9531C20.1875 22.3281 22.0313 20.224 22.6302 18.4323C23.1667 16.8229 23.0104 15.8073 22.9792 15.651L22.9583 15.6458L21.5729 15.5885L25.349 11.7969L28.5 16.0573L27.0781 15.974" fill="black"/>
<path fill-rule="evenodd" clip-rule="evenodd" d="M11.1771 14.5833C9.98435 14.5833 9.02081 13.6198 9.02081 12.4271C9.02081 11.2344 9.98435 10.2708 11.1771 10.2708C12.3698 10.2708 13.3333 11.2344 13.3333 12.4271C13.3333 13.6198 12.3698 14.5833 11.1771 14.5833Z" fill="black"/>
<path d="M7.83854 25.0729C8.02083 24.5625 8.29687 24.5989 8.29687 24.5989C8.29687 24.5989 8.54167 24.5417 8.68229 25.0521L10.6979 32.1302C9.01563 31.6458 7.48438 30.8073 6.18229 29.7031L7.83854 25.0729ZM14.125 6.16666C6.33854 6.16666 0 12.5052 0 20.2969C0 28.0833 6.33854 34.4219 14.125 34.4219C14.5417 34.4219 14.9531 34.3958 15.3594 34.3594L15.4531 35.776L18.0365 33.276L15.1458 31.0729L15.2552 32.5625C14.8802 32.5937 14.5104 32.6198 14.125 32.6198C13.526 32.6198 12.9427 32.5729 12.3646 32.4896L12.3073 32.1146L10.9635 20.6771C10.7813 18.5208 12.0156 18.1771 12.776 18.5L17.0573 20.2187C17.5521 20.4323 17.7865 20.0208 17.7865 20.0208C17.7865 20.0208 18.0625 19.5937 17.5677 19.2708C17.5677 19.2708 11.7292 15.4062 10.4844 15.1719C8.78646 14.8542 7.10937 16.2292 6.72917 18.0208L4.66146 28.1771C2.875 26.0417 1.80208 23.2917 1.80208 20.2969C1.80208 13.4948 7.32813 7.96874 14.125 7.96874C17.7552 7.96874 21.026 9.54687 23.2813 12.0521L24.5469 10.7656C21.9635 7.9427 18.25 6.16666 14.125 6.16666Z" fill="black"/>
<path d="M87.2656 23.4844H89.0625V22.7239H87.2656V23.4844Z" fill="black"/>
<path d="M81.2969 13.7188L83.0208 11.8021L85.2083 14V28.8646L81.2969 26.8073V13.7188ZM93.0365 11.5625L95.4792 14.0156V29.1302H86.276V13.9115C86.3125 13.7396 86.2656 13.5521 86.1302 13.4167L84.2813 11.5625H93.0365ZM96.5417 13.7656C96.5417 13.7396 96.5417 13.7135 96.5365 13.6927C96.5313 13.6719 96.526 13.6563 96.5208 13.6354C96.5156 13.6198 96.5104 13.6094 96.5052 13.5938C96.4948 13.5729 96.4844 13.5521 96.474 13.5313C96.4688 13.5208 96.4635 13.5104 96.4583 13.5C96.4375 13.4688 96.4115 13.4427 96.3854 13.4167L93.6302 10.6563C93.5313 10.5573 93.3958 10.5 93.2552 10.5H82.9948H82.9896C82.9427 10.5 82.8958 10.5104 82.8542 10.5208C82.8438 10.5208 82.8333 10.526 82.8229 10.5313C82.7865 10.5417 82.7552 10.5573 82.7188 10.5781C82.7135 10.5833 82.7031 10.5885 82.6927 10.5938C82.6615 10.6198 82.6302 10.6406 82.599 10.6771L80.3698 13.1615C80.2865 13.2552 80.2344 13.3854 80.2344 13.5156V27.125C80.2344 27.3229 80.3438 27.5052 80.5208 27.599L80.7656 27.7292V28.4583H82.1458L85.3281 30.1354C85.4115 30.1771 85.4948 30.1927 85.5781 30.1927C85.6042 30.1927 85.625 30.1875 85.651 30.1875C85.6823 30.1927 85.7083 30.1927 85.7396 30.1927H86.2708V30.7656H87.6771V30.1927H94.0938V30.7656H95.5V30.1927H96.0104C96.3073 30.1927 96.5469 29.9583 96.5469 29.6615V13.7969C96.5469 13.7865 96.5417 13.776 96.5417 13.7656Z" fill="black"/>
<path d="M93.4479 15.0469V17.2969L91.9271 15.8906H88.3229V15.0469H93.4479ZM87.7917 18.5417H93.9792C94.276 18.5417 94.5156 18.3021 94.5156 18.0104V14.5156C94.5156 14.2187 94.276 13.9792 93.9792 13.9792H87.7917C87.5 13.9792 87.2604 14.2187 87.2604 14.5156V18.0104C87.2604 18.3021 87.5 18.5417 87.7917 18.5417Z" fill="black"/>
<path d="M4.09373 43.7813C3.96873 43.5573 3.80727 43.3854 3.60415 43.2656C3.40102 43.151 3.18227 43.0885 2.9479 43.0885C2.71352 43.0885 2.49477 43.1458 2.29165 43.2604C2.08852 43.375 1.92185 43.5469 1.79685 43.7656C1.67185 43.9896 1.60935 44.25 1.60935 44.5573C1.60935 44.8594 1.67185 45.125 1.79685 45.3542C1.92185 45.5833 2.08852 45.7604 2.29165 45.8802C2.49998 46 2.71873 46.0573 2.9479 46.0573C3.18227 46.0573 3.40102 46 3.60415 45.8802C3.80727 45.7656 3.96873 45.5938 4.09373 45.3646C4.21873 45.1406 4.28123 44.875 4.28123 44.5729C4.28123 44.2656 4.21873 44.0052 4.09373 43.7813ZM0.953104 43.3802C1.1354 43.0365 1.3854 42.7708 1.7031 42.5833C2.02081 42.3958 2.37498 42.2969 2.7656 42.2969C3.10415 42.2969 3.40623 42.3698 3.67185 42.5052C3.93227 42.6458 4.1406 42.8125 4.28123 43.0104V42.3698H5.2031V48.875H4.28123V46.1406C4.1406 46.3385 3.93227 46.5052 3.66144 46.6406C3.3854 46.7813 3.0781 46.849 2.72915 46.849C2.34894 46.849 2.00519 46.7552 1.69269 46.5573C1.3854 46.3646 1.1354 46.0938 0.953104 45.7448C0.765604 45.3958 0.677063 45 0.677063 44.5573C0.677063 44.1146 0.765604 43.7187 0.953104 43.3802Z" fill="black"/>
<path d="M10.3958 42.3698V46.7812H9.47915V46.2604C9.33852 46.4427 9.15102 46.5833 8.91665 46.6875C8.68748 46.7917 8.44269 46.8437 8.17706 46.8437C7.83331 46.8437 7.52081 46.7708 7.24477 46.625C6.97394 46.4844 6.75519 46.2708 6.59894 45.9896C6.44269 45.7031 6.36456 45.3646 6.36456 44.9635V42.3698H7.2656V44.8281C7.2656 45.2239 7.36456 45.5208 7.56248 45.7344C7.7604 45.9479 8.03123 46.0521 8.36977 46.0521C8.71352 46.0521 8.97915 45.9479 9.18227 45.7344C9.3854 45.5208 9.47915 45.2239 9.47915 44.8281V42.3698" fill="black"/>
<path d="M14.6823 44.1771C14.6771 43.8438 14.5573 43.5729 14.3229 43.3698C14.0886 43.1667 13.7969 43.0677 13.4531 43.0677C13.1354 43.0677 12.8646 43.1667 12.6406 43.3698C12.4167 43.5677 12.2865 43.8385 12.2448 44.1771H14.6823ZM15.6042 44.9167H12.2344C12.2604 45.2656 12.3906 45.5469 12.625 45.7604C12.8594 45.9792 13.1511 46.0833 13.4896 46.0833C13.9792 46.0833 14.3281 45.875 14.5313 45.4688H15.5156C15.3802 45.875 15.1406 46.2031 14.7917 46.4635C14.4427 46.7187 14.0104 46.849 13.4896 46.849C13.0677 46.849 12.6927 46.7552 12.3594 46.5677C12.0261 46.375 11.7656 46.1094 11.5729 45.7656C11.3854 45.4219 11.2917 45.026 11.2917 44.5729C11.2917 44.1198 11.3802 43.7188 11.5677 43.375C11.75 43.0313 12.0104 42.7656 12.3438 42.5781C12.6771 42.3906 13.0573 42.2969 13.4896 42.2969C13.9063 42.2969 14.2761 42.3906 14.6042 42.5729C14.9271 42.7552 15.1823 43.0052 15.3646 43.3333C15.5417 43.6615 15.6354 44.0417 15.6354 44.4688C15.6354 44.6302 15.625 44.7813 15.6042 44.9167Z" fill="black"/>
<path d="M18.375 43.1146H17.5625V46.7812H16.6406V43.1146H16.125V42.3698H16.6406V42.0573C16.6406 41.5521 16.776 41.1823 17.0469 40.9531C17.3125 40.7187 17.7396 40.6042 18.3125 40.6042V41.3646C18.0365 41.3646 17.8438 41.4167 17.7292 41.5208C17.6198 41.625 17.5625 41.8021 17.5625 42.0573V42.3698H18.375" fill="black"/>
<path d="M22.3021 43.7813C22.1771 43.5573 22.0104 43.3854 21.8125 43.2656C21.6094 43.151 21.3854 43.0885 21.1562 43.0885C20.9219 43.0885 20.7031 43.1458 20.4948 43.2604C20.2916 43.375 20.1302 43.5469 20.0052 43.7656C19.8802 43.9896 19.8177 44.25 19.8177 44.5573C19.8177 44.8594 19.8802 45.125 20.0052 45.3542C20.1302 45.5833 20.2969 45.7604 20.5 45.8802C20.7083 46 20.9271 46.0573 21.1562 46.0573C21.3854 46.0573 21.6094 46 21.8125 45.8802C22.0104 45.7656 22.1771 45.5938 22.3021 45.3646C22.4271 45.1406 22.4896 44.875 22.4896 44.5729C22.4896 44.2656 22.4271 44.0052 22.3021 43.7813ZM19.1562 43.3802C19.3385 43.0365 19.5937 42.7708 19.9114 42.5833C20.2239 42.3958 20.5781 42.2969 20.9583 42.2969C21.3073 42.2969 21.6094 42.3646 21.8698 42.5052C22.125 42.6406 22.3333 42.8073 22.4896 43.0104V42.3698H23.4114V46.7813H22.4896V46.125C22.3333 46.3333 22.125 46.5052 21.8594 46.6406C21.5937 46.7813 21.2864 46.849 20.9427 46.849C20.5677 46.849 20.2187 46.7552 19.9062 46.5573C19.5937 46.3646 19.3385 46.0938 19.1562 45.7448C18.9739 45.3958 18.8802 45 18.8802 44.5573C18.8802 44.1146 18.9739 43.7187 19.1562 43.3802Z" fill="black"/>
<path d="M25.5208 46.7812H24.6094V42.3698H25.5208V46.7812ZM24.6562 41.6198C24.5469 41.5052 24.4896 41.3698 24.4896 41.2031C24.4896 41.0364 24.5469 40.901 24.6562 40.7864C24.7708 40.6771 24.9062 40.6198 25.0729 40.6198C25.2344 40.6198 25.3698 40.6771 25.4791 40.7864C25.5937 40.901 25.651 41.0364 25.651 41.2031C25.651 41.3698 25.5937 41.5052 25.4791 41.6198C25.3698 41.7292 25.2344 41.7864 25.0729 41.7864C24.9062 41.7864 24.7708 41.7292 24.6562 41.6198Z" fill="black"/>
<path d="M28.1667 42.4896C28.3854 42.3594 28.651 42.2969 28.9531 42.2969V43.2396H28.7188C28.3646 43.2396 28.0938 43.3333 27.9115 43.5156C27.724 43.6979 27.6354 44.0104 27.6354 44.4583V46.7813H26.7188V42.3698H27.6354V43.0104C27.7656 42.7865 27.9427 42.6146 28.1667 42.4896Z" fill="black"/>
<path d="M32.8802 44.1771C32.875 43.8438 32.7552 43.5729 32.5208 43.3698C32.2864 43.1667 31.9948 43.0677 31.6458 43.0677C31.3333 43.0677 31.0677 43.1667 30.8437 43.3698C30.6198 43.5677 30.4844 43.8385 30.4427 44.1771H32.8802ZM33.8021 44.9167H30.4323C30.4583 45.2656 30.5885 45.5469 30.8229 45.7604C31.0625 45.9792 31.3489 46.0833 31.6875 46.0833C32.1823 46.0833 32.526 45.875 32.7291 45.4688H33.7135C33.5781 45.875 33.3385 46.2031 32.9896 46.4635C32.6406 46.7187 32.2083 46.849 31.6875 46.849C31.2708 46.849 30.8906 46.7552 30.5573 46.5677C30.2239 46.375 29.9635 46.1094 29.776 45.7656C29.5833 45.4219 29.4896 45.026 29.4896 44.5729C29.4896 44.1198 29.5781 43.7188 29.7656 43.375C29.9479 43.0313 30.2083 42.7656 30.5416 42.5781C30.875 42.3906 31.2552 42.2969 31.6875 42.2969C32.1041 42.2969 32.4739 42.3906 32.8021 42.5729C33.125 42.7552 33.3802 43.0052 33.5625 43.3333C33.7448 43.6615 33.8333 44.0417 33.8333 44.4688C33.8333 44.6302 33.8229 44.7813 33.8021 44.9167Z" fill="black"/>
<path d="M37.8437 43.7813C37.7187 43.5573 37.5521 43.3854 37.3541 43.2656C37.151 43.151 36.9323 43.0885 36.6979 43.0885C36.4635 43.0885 36.2448 43.1458 36.0416 43.2604C35.8385 43.375 35.6719 43.5469 35.5469 43.7656C35.4219 43.9896 35.3594 44.25 35.3594 44.5573C35.3594 44.8594 35.4219 45.125 35.5469 45.3542C35.6719 45.5833 35.8385 45.7604 36.0416 45.8802C36.25 46 36.4687 46.0573 36.6979 46.0573C36.9323 46.0573 37.151 46 37.3541 45.8802C37.5521 45.7656 37.7187 45.5938 37.8437 45.3646C37.9687 45.1406 38.0312 44.875 38.0312 44.5729C38.0312 44.2656 37.9687 44.0052 37.8437 43.7813ZM34.7031 43.3802C34.8854 43.0365 35.1354 42.7708 35.4531 42.5833C35.7708 42.3958 36.125 42.2969 36.5156 42.2969C36.8021 42.2969 37.0833 42.3646 37.3646 42.4844C37.6458 42.6146 37.8698 42.7812 38.0312 42.9844V40.8594H38.9531V46.7813H38.0312V46.1146C37.8802 46.3281 37.6771 46.5052 37.4114 46.6406C37.151 46.7813 36.8489 46.849 36.5052 46.849C36.1198 46.849 35.7708 46.7552 35.4531 46.5573C35.1354 46.3646 34.8854 46.0938 34.7031 45.7448C34.5156 45.3958 34.4271 45 34.4271 44.5573C34.4271 44.1146 34.5156 43.7187 34.7031 43.3802Z" fill="black"/>
<path d="M43.2396 44.1771C43.2344 43.8438 43.1146 43.5729 42.8802 43.3698C42.6458 43.1667 42.3541 43.0677 42.0104 43.0677C41.6927 43.0677 41.4271 43.1667 41.2031 43.3698C40.9791 43.5677 40.8437 43.8385 40.8021 44.1771H43.2396ZM44.1614 44.9167H40.7916C40.8177 45.2656 40.9479 45.5469 41.1875 45.7604C41.4219 45.9792 41.7083 46.0833 42.0469 46.0833C42.5416 46.0833 42.8854 45.875 43.0885 45.4688H44.0729C43.9375 45.875 43.6979 46.2031 43.3489 46.4635C43 46.7187 42.5625 46.849 42.0469 46.849C41.625 46.849 41.25 46.7552 40.9166 46.5677C40.5833 46.375 40.3229 46.1094 40.1302 45.7656C39.9427 45.4219 39.8489 45.026 39.8489 44.5729C39.8489 44.1198 39.9375 43.7188 40.125 43.375C40.3073 43.0313 40.5677 42.7656 40.901 42.5781C41.2344 42.3906 41.6146 42.2969 42.0469 42.2969C42.4635 42.2969 42.8333 42.3906 43.1614 42.5729C43.4844 42.7552 43.7396 43.0052 43.9219 43.3333C44.1041 43.6615 44.1927 44.0417 44.1927 44.4688C44.1927 44.6302 44.1823 44.7813 44.1614 44.9167Z" fill="black"/>
<path d="M51.3542 42.5156C51.6302 42.6563 51.849 42.875 52.0052 43.1563C52.1615 43.4375 52.2396 43.776 52.2396 44.1771V46.776H51.3334V44.3177C51.3334 43.9219 51.2344 43.6146 51.0417 43.4063C50.8438 43.1979 50.5729 43.0938 50.2292 43.0938C49.8906 43.0938 49.6198 43.1979 49.4219 43.4063C49.2188 43.6146 49.1198 43.9219 49.1198 44.3177V46.776H48.2188V44.3177C48.2188 43.9219 48.1198 43.6146 47.9219 43.4063C47.724 43.1979 47.4531 43.0938 47.1094 43.0938C46.7709 43.0938 46.5 43.1979 46.2969 43.4063C46.099 43.6146 46 43.9219 46 44.3177V46.776H45.0886V42.3698H46V42.875C46.1511 42.6927 46.3386 42.5521 46.5677 42.4479C46.7969 42.349 47.0417 42.2969 47.3021 42.2969C47.6563 42.2969 47.9688 42.375 48.2448 42.5208C48.5261 42.6719 48.7396 42.8854 48.8854 43.1719C49.0209 42.9062 49.2292 42.6927 49.5104 42.5365C49.7917 42.375 50.099 42.2969 50.4271 42.2969C50.7709 42.2969 51.0781 42.3698 51.3542 42.5156Z" fill="black"/>
<path d="M56.4844 44.1771C56.4792 43.8438 56.3646 43.5729 56.125 43.3698C55.8958 43.1667 55.6042 43.0677 55.2552 43.0677C54.9427 43.0677 54.6719 43.1667 54.4479 43.3698C54.224 43.5677 54.0885 43.8385 54.0469 44.1771H56.4844ZM57.4063 44.9167H54.0417C54.0677 45.2656 54.1979 45.5469 54.4323 45.7604C54.6667 45.9792 54.9531 46.0833 55.2969 46.0833C55.7865 46.0833 56.1302 45.875 56.3385 45.4688H57.3177C57.1875 45.875 56.9479 46.2031 56.5938 46.4635C56.2448 46.7187 55.8125 46.849 55.2969 46.849C54.875 46.849 54.4948 46.7552 54.1667 46.5677C53.8333 46.375 53.5677 46.1094 53.3802 45.7656C53.1875 45.4219 53.0938 45.026 53.0938 44.5729C53.0938 44.1198 53.1875 43.7188 53.3698 43.375C53.5573 43.0313 53.8125 42.7656 54.1458 42.5781C54.4792 42.3906 54.8646 42.2969 55.2969 42.2969C55.7083 42.2969 56.0833 42.3906 56.4063 42.5729C56.7344 42.7552 56.9844 43.0052 57.1667 43.3333C57.349 43.6615 57.4375 44.0417 57.4375 44.4688C57.4375 44.6302 57.4271 44.7813 57.4063 44.9167Z" fill="black"/>
<path d="M59.0052 46.6615C58.7292 46.5365 58.5104 46.3646 58.3542 46.151C58.1927 45.9375 58.1094 45.6927 58.0938 45.4271H59.0365C59.0573 45.6146 59.1458 45.7708 59.3073 45.8958C59.4688 46.0208 59.6771 46.0833 59.9219 46.0833C60.1771 46.0833 60.375 46.0313 60.5156 45.9375C60.6563 45.8385 60.7292 45.7083 60.7292 45.5573C60.7292 45.3906 60.6458 45.2656 60.4896 45.1875C60.3333 45.1094 60.0833 45.0208 59.7448 44.9219C59.4115 44.8333 59.1406 44.7448 58.9375 44.6615C58.7292 44.5729 58.5469 44.4427 58.3958 44.2656C58.2448 44.0885 58.1667 43.8594 58.1667 43.5729C58.1667 43.3385 58.2396 43.1198 58.375 42.9271C58.5156 42.7344 58.7135 42.5781 58.974 42.4688C59.2292 42.3542 59.526 42.2969 59.8646 42.2969C60.3646 42.2969 60.7708 42.4271 61.0781 42.6771C61.3802 42.9323 61.5469 43.276 61.5677 43.7135H60.6563C60.6406 43.5156 60.5573 43.3594 60.4167 43.2448C60.2708 43.125 60.0781 43.0677 59.8333 43.0677C59.5885 43.0677 59.4063 43.1146 59.2813 43.2031C59.151 43.2917 59.0885 43.4115 59.0885 43.5625C59.0885 43.6823 59.1302 43.7812 59.2135 43.8594C59.3021 43.9375 59.4063 44 59.526 44.0469C59.651 44.0937 59.8333 44.151 60.0729 44.2188C60.3906 44.3021 60.651 44.3906 60.8594 44.4792C61.0677 44.5677 61.2448 44.6979 61.3906 44.8646C61.5417 45.0365 61.6198 45.2656 61.625 45.5469C61.625 45.7969 61.5521 46.0208 61.4167 46.2188C61.276 46.4167 61.0833 46.5729 60.8281 46.6823C60.5729 46.7969 60.276 46.849 59.9375 46.849C59.5885 46.849 59.2813 46.7865 59.0052 46.6615Z" fill="black"/>
<path d="M65.7239 43.7813C65.5989 43.5573 65.4375 43.3854 65.2344 43.2656C65.0312 43.151 64.8073 43.0885 64.5781 43.0885C64.3437 43.0885 64.125 43.1458 63.9166 43.2604C63.7187 43.375 63.5521 43.5469 63.4271 43.7656C63.3021 43.9896 63.2396 44.25 63.2396 44.5573C63.2396 44.8594 63.3021 45.125 63.4271 45.3542C63.5521 45.5833 63.7187 45.7604 63.9219 45.8802C64.1302 46 64.3489 46.0573 64.5781 46.0573C64.8073 46.0573 65.0312 46 65.2344 45.8802C65.4375 45.7656 65.5989 45.5938 65.7239 45.3646C65.8489 45.1406 65.9114 44.875 65.9114 44.5729C65.9114 44.2656 65.8489 44.0052 65.7239 43.7813ZM62.5781 43.3802C62.7656 43.0365 63.0156 42.7708 63.3333 42.5833C63.6458 42.3958 64.0052 42.2969 64.3906 42.2969C64.6823 42.2969 64.9635 42.3646 65.2448 42.4844C65.526 42.6146 65.7448 42.7812 65.9114 42.9844V40.8594H66.8333V46.7813H65.9114V46.1146C65.7604 46.3281 65.5573 46.5052 65.2916 46.6406C65.026 46.7813 64.7239 46.849 64.3854 46.849C64 46.849 63.6458 46.7552 63.3333 46.5573C63.0156 46.3646 62.7656 46.0938 62.5781 45.7448C62.3958 45.3958 62.3021 45 62.3021 44.5573C62.3021 44.1146 62.3958 43.7187 62.5781 43.3802Z" fill="black"/>
<path d="M71.1198 44.1771C71.1146 43.8438 70.9948 43.5729 70.7604 43.3698C70.526 43.1667 70.2344 43.0677 69.8854 43.0677C69.5729 43.0677 69.3073 43.1667 69.0833 43.3698C68.8594 43.5677 68.7239 43.8385 68.6823 44.1771H71.1198ZM72.0417 44.9167H68.6719C68.6979 45.2656 68.8281 45.5469 69.0625 45.7604C69.3021 45.9792 69.5885 46.0833 69.9271 46.0833C70.4219 46.0833 70.7656 45.875 70.9687 45.4688H71.9531C71.8177 45.875 71.5781 46.2031 71.2292 46.4635C70.8802 46.7187 70.4479 46.849 69.9271 46.849C69.5052 46.849 69.1302 46.7552 68.7969 46.5677C68.4635 46.375 68.2031 46.1094 68.0104 45.7656C67.8229 45.4219 67.7292 45.026 67.7292 44.5729C67.7292 44.1198 67.8177 43.7188 68.0052 43.375C68.1875 43.0313 68.4479 42.7656 68.7812 42.5781C69.1146 42.3906 69.4948 42.2969 69.9271 42.2969C70.3437 42.2969 70.7135 42.3906 71.0417 42.5729C71.3646 42.7552 71.6198 43.0052 71.8021 43.3333C71.9792 43.6615 72.0729 44.0417 72.0729 44.4688C72.0729 44.6302 72.0625 44.7813 72.0417 44.9167Z" fill="black"/>
<path d="M72.9427 43.375C73.125 43.0313 73.3802 42.7656 73.7031 42.5781C74.0313 42.3906 74.4063 42.2969 74.8229 42.2969C75.3594 42.2969 75.8021 42.4271 76.1458 42.6771C76.4948 42.9323 76.7344 43.2917 76.8594 43.7656H75.875C75.7917 43.5469 75.6615 43.375 75.4896 43.25C75.3125 43.125 75.0886 43.0677 74.8229 43.0677C74.4531 43.0677 74.1511 43.1979 73.9323 43.4635C73.7083 43.7292 73.599 44.099 73.599 44.5677C73.599 45.0469 73.7083 45.4167 73.9323 45.6823C74.1511 45.9479 74.4531 46.0833 74.8229 46.0833C75.3542 46.0833 75.7031 45.849 75.875 45.3854H76.8594C76.7292 45.8333 76.4896 46.1875 76.1354 46.4531C75.7865 46.7188 75.349 46.849 74.8229 46.849C74.4063 46.849 74.0313 46.7552 73.7031 46.5677C73.3802 46.3802 73.125 46.1094 72.9427 45.7656C72.7552 45.4219 72.6615 45.0208 72.6615 44.5677C72.6615 44.1198 72.7552 43.7188 72.9427 43.375Z" fill="black"/>
<path d="M80.9479 42.5156C81.2136 42.6563 81.4219 42.875 81.5729 43.1563C81.724 43.4375 81.8021 43.776 81.8021 44.1771V46.776H80.8958V44.3177C80.8958 43.9219 80.7969 43.6146 80.599 43.4063C80.4011 43.1979 80.1354 43.0938 79.7917 43.0938C79.4531 43.0938 79.1823 43.1979 78.9792 43.4063C78.7813 43.6146 78.6823 43.9219 78.6823 44.3177V46.776H77.7708V40.8594H78.6823V42.8802C78.8333 42.6979 79.0313 42.5521 79.2708 42.4479C79.5052 42.349 79.7656 42.2969 80.0469 42.2969C80.3854 42.2969 80.6823 42.3698 80.9479 42.5156Z" fill="black"/>
<path d="M86.0469 44.1771C86.0417 43.8438 85.9219 43.5729 85.6875 43.3698C85.4531 43.1667 85.1615 43.0677 84.8125 43.0677C84.5 43.0677 84.2344 43.1667 84.0104 43.3698C83.7865 43.5677 83.651 43.8385 83.6094 44.1771H86.0469ZM86.9688 44.9167H83.599C83.625 45.2656 83.7552 45.5469 83.9896 45.7604C84.2292 45.9792 84.5156 46.0833 84.8542 46.0833C85.349 46.0833 85.6927 45.875 85.8958 45.4688H86.8802C86.7448 45.875 86.5052 46.2031 86.1563 46.4635C85.8073 46.7187 85.375 46.849 84.8542 46.849C84.4323 46.849 84.0573 46.7552 83.724 46.5677C83.3906 46.375 83.1302 46.1094 82.9375 45.7656C82.75 45.4219 82.6562 45.026 82.6562 44.5729C82.6562 44.1198 82.7448 43.7188 82.9323 43.375C83.1146 43.0313 83.375 42.7656 83.7083 42.5781C84.0417 42.3906 84.4219 42.2969 84.8542 42.2969C85.2708 42.2969 85.6406 42.3906 85.9688 42.5729C86.2917 42.7552 86.5469 43.0052 86.7292 43.3333C86.9063 43.6615 87 44.0417 87 44.4688C87 44.6302 86.9896 44.7813 86.9688 44.9167Z" fill="black"/>
<path d="M88.9583 43.1146V45.5521C88.9583 45.7187 89 45.8385 89.0781 45.9114C89.1511 45.9844 89.2865 46.0208 89.474 46.0208H90.0313V46.7812H89.3125C88.9011 46.7812 88.5886 46.6823 88.3698 46.4896C88.1511 46.2969 88.0417 45.9844 88.0417 45.5521V43.1146H87.5208V42.3698H88.0417V41.276H88.9583V42.3698H90.0313V43.1146" fill="black"/>
<path d="M91.5417 46.6615C91.2656 46.5365 91.0469 46.3646 90.8906 46.151C90.7292 45.9375 90.6406 45.6927 90.6302 45.4271H91.5729C91.5938 45.6146 91.6823 45.7708 91.8438 45.8958C92.0052 46.0208 92.2083 46.0833 92.4583 46.0833C92.7136 46.0833 92.9115 46.0313 93.0521 45.9375C93.1927 45.8385 93.2656 45.7083 93.2656 45.5573C93.2656 45.3906 93.1823 45.2656 93.0313 45.1875C92.8698 45.1094 92.6198 45.0208 92.2813 44.9219C91.9479 44.8333 91.6771 44.7448 91.474 44.6615C91.2656 44.5729 91.0833 44.4427 90.9323 44.2656C90.7813 44.0885 90.7031 43.8594 90.7031 43.5729C90.7031 43.3385 90.7761 43.1198 90.9115 42.9271C91.0521 42.7344 91.25 42.5781 91.5104 42.4688C91.7656 42.3542 92.0625 42.2969 92.4011 42.2969C92.9011 42.2969 93.3073 42.4271 93.6146 42.6771C93.9219 42.9323 94.0833 43.276 94.1042 43.7135H93.1927C93.1771 43.5156 93.099 43.3594 92.9531 43.2448C92.8073 43.125 92.6146 43.0677 92.3698 43.0677C92.125 43.0677 91.9427 43.1146 91.8177 43.2031C91.6875 43.2917 91.625 43.4115 91.625 43.5625C91.625 43.6823 91.6667 43.7812 91.7552 43.8594C91.8386 43.9375 91.9427 44 92.0625 44.0469C92.1875 44.0937 92.3698 44.151 92.6094 44.2188C92.9271 44.3021 93.1875 44.3906 93.3958 44.4792C93.6042 44.5677 93.7813 44.6979 93.9271 44.8646C94.0781 45.0365 94.1563 45.2656 94.1615 45.5469C94.1615 45.7969 94.0938 46.0208 93.9531 46.2188C93.8125 46.4167 93.6198 46.5729 93.3646 46.6823C93.1094 46.7969 92.8125 46.849 92.474 46.849C92.125 46.849 91.8125 46.7865 91.5417 46.6615Z" fill="black"/>
<path d="M95.099 46.6667C94.9844 46.5573 94.9271 46.4167 94.9271 46.25C94.9271 46.0833 94.9844 45.9479 95.099 45.8333C95.2083 45.7239 95.3438 45.6667 95.5104 45.6667C95.6719 45.6667 95.8073 45.7239 95.9219 45.8333C96.0313 45.9479 96.0886 46.0833 96.0886 46.25C96.0886 46.4167 96.0313 46.5573 95.9219 46.6667C95.8073 46.7812 95.6719 46.8333 95.5104 46.8333C95.3438 46.8333 95.2083 46.7812 95.099 46.6667Z" fill="black"/>
<path d="M98.9219 43.1146H98.1042V46.7812H97.1875V43.1146H96.6667V42.3698H97.1875V42.0573C97.1875 41.5521 97.3177 41.1823 97.5886 40.9531C97.8594 40.7187 98.2813 40.6042 98.8594 40.6042V41.3646C98.5781 41.3646 98.3854 41.4167 98.2709 41.5208C98.1615 41.625 98.1042 41.8021 98.1042 42.0573V42.3698H98.9219" fill="black"/>
<path d="M101.172 42.4896C101.396 42.3594 101.656 42.2969 101.964 42.2969V43.2396H101.729C101.37 43.2396 101.099 43.3333 100.917 43.5156C100.734 43.6979 100.641 44.0104 100.641 44.4583V46.7813H99.7292V42.3698H100.641V43.0104C100.776 42.7865 100.953 42.6146 101.172 42.4896Z" fill="black"/>
<path d="M101.552 31.2604C101.552 33.7865 99.4531 35.8385 96.875 35.8385H38.5573C35.9792 35.8385 33.8802 33.7865 33.8802 31.2604V10.8281C33.8802 8.30208 35.9792 6.25 38.5573 6.25H61.9479C62.0521 7.56771 62.5833 8.85938 63.5938 9.86979C64.724 10.9948 66.2031 11.5625 67.6823 11.5625C69.1615 11.5625 70.6406 11 71.7708 9.86979C72.776 8.85938 73.3073 7.56771 73.4167 6.25H96.875C99.4531 6.25 101.552 8.30208 101.552 10.8281V31.2604ZM64.349 2.44792C65.2396 1.55729 66.4219 1.06771 67.6823 1.06771C68.9427 1.06771 70.125 1.55729 71.0156 2.44792C72.8542 4.28646 72.8542 7.27604 71.0156 9.11458C70.125 10.0052 68.9427 10.4948 67.6823 10.4948C66.4219 10.4948 65.2396 10.0052 64.349 9.11458C62.5104 7.27604 62.5104 4.28646 64.349 2.44792ZM96.875 5.18229H73.4063C73.2708 3.90625 72.7448 2.67188 71.7708 1.69271C70.6406 0.567709 69.1615 0 67.6823 0C66.2031 0 64.724 0.567709 63.5938 1.69271C62.6198 2.67188 62.0885 3.90625 61.9583 5.18229H38.5573C35.3906 5.18229 32.8125 7.71354 32.8125 10.8281V31.2604C32.8125 34.375 35.3906 36.9063 38.5573 36.9063H96.875C100.042 36.9063 102.62 34.375 102.62 31.2604V10.8281C102.62 7.71354 100.042 5.18229 96.875 5.18229Z" fill="black"/>
<path d="M67.224 3.93228V4.54166H65.6615V5.49999H66.8594V6.09895H65.6615V7.68228H64.9115V3.93228" fill="black"/>
<path d="M68.5052 5.65624H69.1354C69.3386 5.65624 69.4896 5.60937 69.5886 5.51041C69.6927 5.41145 69.7396 5.27603 69.7396 5.09895C69.7396 4.92707 69.6927 4.79166 69.5886 4.69791C69.4896 4.60416 69.3386 4.55728 69.1354 4.55728H68.5052V5.65624ZM69.6875 7.68228L68.8594 6.21874H68.5052V7.68228H67.7552V3.93228H69.1615C69.4531 3.93228 69.6979 3.98437 69.9011 4.08332C70.1094 4.18749 70.2604 4.32811 70.3646 4.49999C70.4636 4.67187 70.5156 4.86457 70.5156 5.08332C70.5156 5.32811 70.4427 5.55207 70.3021 5.74999C70.1563 5.94791 69.9427 6.08332 69.6615 6.16145L70.5573 7.68228" fill="black"/>
</g>
<defs>
<clipPath id="clip0_26_18190">
<rect width="103" height="49" fill="white"/>
</clipPath>
</defs>
</svg>
