<svg width="227" height="61" viewBox="0 0 227 61" fill="none" xmlns="http://www.w3.org/2000/svg">
<g clip-path="url(#clip0_26_18191)">
<path d="M24.8542 60.7916C11.2344 60.7916 0.15625 49.8385 0.15625 36.3801V0.317627H201.323C214.938 0.317627 226.016 11.2655 226.016 24.7239L226.021 60.7916" fill="white"/>
<path d="M201.323 5.98438H50.2708V36.3802C50.2708 46.7135 58.802 55.1198 69.2916 55.1198H220.349V24.724C220.349 14.3958 211.812 5.98438 201.323 5.98438Z" fill="white"/>
<path d="M218.458 53.2292H69.2916C59.8437 53.2292 52.1562 45.6719 52.1562 36.3802V7.875H201.323C210.771 7.875 218.458 15.4323 218.458 24.724V53.2292ZM201.323 5.98438H50.2708V36.3802C50.2708 46.7135 58.802 55.1198 69.2916 55.1198H220.349V24.724C220.349 14.3958 211.812 5.98438 201.323 5.98438Z" fill="#FCC42F"/>
<path d="M163.089 55.1198L176.099 28.5417L162.807 5.98438H201.323C211.812 5.98438 220.349 14.3906 220.349 24.724V55.1198" fill="#FCC42F"/>
<path d="M201.323 7.875H166.115L178.245 28.4583L166.12 53.2292H218.458V24.724C218.458 15.4323 210.771 7.875 201.323 7.875Z" fill="#FCC42F"/>
<path d="M206.281 41.6615H205.078C204.979 41.6615 204.885 41.6719 204.792 41.6875C205.354 35.4323 206.224 25.7708 206.646 21.3958C206.687 20.9531 206.359 20.5573 205.917 20.5156C205.464 20.4635 205.073 20.7969 205.031 21.2448C204.385 27.9635 202.677 47.1458 202.661 47.3385C202.63 47.6615 202.312 47.9271 201.943 47.9271H188.854C188.479 47.9271 188.167 47.6615 188.135 47.3385C188.12 47.1458 186.411 27.9635 185.766 21.2448C185.724 20.7969 185.333 20.4635 184.88 20.5156C184.437 20.5573 184.109 20.9531 184.151 21.3958C184.573 25.7708 185.443 35.4271 186.005 41.6875C185.911 41.6667 185.812 41.6562 185.719 41.6562H184.516C183.74 41.6562 183.104 42.2917 183.104 43.0677V48.1406C183.104 48.9167 183.74 49.5469 184.516 49.5469H185.719C186.297 49.5469 186.802 49.1927 187.016 48.6823C187.443 49.2135 188.104 49.5469 188.854 49.5469H201.943C202.687 49.5469 203.349 49.2135 203.781 48.6875C203.995 49.1927 204.495 49.5521 205.078 49.5521H206.281C207.057 49.5521 207.687 48.9219 207.687 48.1406V43.0677C207.687 42.2917 207.057 41.6615 206.281 41.6615Z" fill="#1C1C1B"/>
<path d="M190.344 25.1198V27.4115H191.016C191.411 27.4115 191.625 27.2292 191.625 26.6771V26.026C191.625 25.3333 191.401 25.1198 190.865 25.1198H190.344ZM190.344 22.0833V24.0521H190.802C191.24 24.0521 191.505 23.8646 191.505 23.2656V22.849C191.505 22.3125 191.323 22.0833 190.906 22.0833H190.344ZM192.677 22.7344V23C192.677 23.7656 192.443 24.2448 191.922 24.4896V24.5104C192.547 24.7604 192.797 25.3125 192.797 26.099V26.7083C192.797 27.8594 192.187 28.4792 191.016 28.4792H189.172V21.0156H190.938C192.156 21.0156 192.677 21.5833 192.677 22.7344Z" fill="#1C1C1B"/>
<path d="M194.833 26.1146H195.964L195.411 22.3385H195.385L194.833 26.1146ZM197.51 28.4792H196.328L196.125 27.125H194.688L194.479 28.4792H193.406L194.599 21.0156H196.313" fill="#1C1C1B"/>
<path d="M201.661 25.6926V26.6874C201.661 27.8801 201.062 28.5624 199.911 28.5624C198.76 28.5624 198.161 27.8801 198.161 26.6874V22.8072C198.161 21.6093 198.76 20.927 199.911 20.927C201.062 20.927 201.661 21.6093 201.661 22.8072V23.5312H200.552V22.7291C200.552 22.1978 200.318 21.9947 199.943 21.9947C199.573 21.9947 199.338 22.1978 199.338 22.7291V26.7603C199.338 27.2916 199.573 27.4843 199.943 27.4843C200.318 27.4843 200.552 27.2916 200.552 26.7603V25.6926" fill="#1C1C1B"/>
<path d="M192.703 31.2083V36.5365H193.365C193.734 36.5365 193.958 36.3438 193.958 35.8125V31.9323C193.958 31.401 193.734 31.2083 193.365 31.2083H192.703ZM191.531 30.1406H193.385C194.557 30.1406 195.13 30.7917 195.13 31.9844V35.7604C195.13 36.9531 194.557 37.6042 193.385 37.6042H191.531" fill="#1C1C1B"/>
<path d="M197.266 33.2865H198.875V34.349H197.266V36.5365H199.292V37.6042H196.094V30.1406H199.292V31.2031H197.266" fill="#1C1C1B"/>
<path d="M190.161 39.2656H193.786V40.3281H192.562V46.7292H191.385V40.3281H190.161" fill="#1C1C1B"/>
<path d="M195.688 40.3281V42.625H196.146C196.583 42.625 196.849 42.4323 196.849 41.8333V41.099C196.849 40.5677 196.667 40.3281 196.25 40.3281H195.688ZM196.969 46.7292C196.901 46.5365 196.859 46.4167 196.859 45.8125V44.6354C196.859 43.9479 196.625 43.6875 196.094 43.6875H195.688V46.7292H194.516V39.2656H196.286C197.5 39.2656 198.021 39.8281 198.021 40.9792V41.5677C198.021 42.3333 197.776 42.8229 197.255 43.0729V43.0938C197.839 43.3385 198.031 43.8906 198.031 44.6719V45.8229C198.031 46.1823 198.042 46.4531 198.161 46.7292" fill="#1C1C1B"/>
<path d="M199.016 46.7292H200.188V39.2656H199.016V46.7292Z" fill="#1C1C1B"/>
<path d="M207.125 17.6197H183.672V15.6666C183.672 15.5989 183.703 15.5676 183.698 15.5676H185.396C185.589 15.5676 185.771 15.4999 185.917 15.3697L188.047 13.5103C188.141 13.427 188.37 13.3437 188.661 13.3437H202.13C202.422 13.3437 202.656 13.427 202.75 13.5103L204.88 15.3697C205.026 15.4999 205.208 15.5676 205.401 15.5676H207.099C207.089 15.5676 207.125 15.5989 207.125 15.6666V17.6197ZM207.099 13.9791H205.698L203.792 12.3176C203.385 11.9583 202.781 11.7551 202.13 11.7551H188.661C188.016 11.7551 187.411 11.9583 187 12.3176L185.094 13.9791H183.698C182.807 13.9791 182.089 14.7395 182.089 15.6666V17.8124C182.089 18.1093 182.161 18.401 182.307 18.6614C182.37 18.7708 182.458 18.8697 182.562 18.9374C182.823 19.1093 183.12 19.1978 183.427 19.1978H207.37C207.677 19.1978 207.974 19.1093 208.234 18.9374C208.339 18.8697 208.427 18.7708 208.49 18.6614C208.63 18.401 208.708 18.1093 208.708 17.8124V15.6666C208.708 14.7395 207.984 13.9791 207.099 13.9791Z" fill="#1C1C1B"/>
<path d="M202.125 14.0781H188.667C188.297 14.0781 187.995 14.3802 187.995 14.75C187.995 15.1198 188.297 15.4219 188.667 15.4219H202.125C202.495 15.4219 202.797 15.1198 202.797 14.75C202.797 14.3802 202.495 14.0781 202.125 14.0781Z" fill="#1C1C1B"/>
<path d="M103.057 5.98438H50.2708V36.3802C50.2708 46.7135 58.802 55.1198 69.2916 55.1198H122.083V24.724C122.083 14.3958 113.547 5.98438 103.057 5.98438Z" fill="#FCC42F"/>
<path d="M63.8072 29.677C59.0051 29.677 55.1145 33.5676 55.1145 38.3697C55.1145 43.1718 59.0051 47.0624 63.8072 47.0624C68.6145 47.0624 72.5051 43.1718 72.5051 38.3697C72.5051 33.5676 68.6145 29.677 63.8072 29.677Z" fill="white"/>
<path d="M69.4792 39.7865H65.2292V44.0417H62.3906V39.7865H58.1406V36.9531H62.3906V32.7031H65.2292V36.9531H69.4792" fill="#1C1C1B"/>
<path d="M55.9426 26.9167V17.5156H58.427V24.8333H61.9843V26.9167" fill="#1C1C1B"/>
<path d="M63.0989 26.9167V17.5156H69.1718V19.599H65.5885V21.0729H68.651V23.1563H65.5885V24.8333H69.3176V26.9167" fill="#1C1C1B"/>
<path d="M75.2448 26.9167V19.599H72.7604V17.5156H80.2239V19.599H77.7343V26.9167" fill="#1C1C1B"/>
<path d="M83.7083 21.7969H84.6042C85.6042 21.7969 86.1094 21.3802 86.1094 20.5521C86.1094 20.1458 85.9792 19.8698 85.724 19.7135C85.4688 19.5573 85.0938 19.4792 84.6042 19.4792H83.7083V21.7969ZM81.2188 26.9167V17.5156H84.776C85.2813 17.5156 85.7604 17.5625 86.2188 17.6563C86.6771 17.7552 87.0729 17.9219 87.4167 18.151C87.7604 18.3802 88.0313 18.6927 88.2344 19.0833C88.4375 19.474 88.5365 19.9635 88.5365 20.5521C88.5365 21.2292 88.401 21.7865 88.125 22.2292C87.8542 22.6719 87.4844 23.0208 87.0208 23.2708L89.0573 26.9167H86.2813L84.6615 23.7604H83.7083V26.9167" fill="#1C1C1B"/>
<path d="M90.026 26.9167H92.5156V17.5156H90.026V26.9167Z" fill="#1C1C1B"/>
<path d="M75.5364 43.5937V34.1926H81.6666V36.276H78.026V38.0676H81.1458V40.151H78.026V43.5937" fill="#1C1C1B"/>
<path d="M85.0781 39.0208L84.9166 39.6718H86.651L86.4948 39.0208C86.3802 38.5676 86.2604 38.078 86.1458 37.5468C86.0312 37.0155 85.9166 36.5155 85.7968 36.0416H85.7395C85.6354 36.526 85.526 37.0312 85.4166 37.552C85.3073 38.078 85.1927 38.5676 85.0781 39.0208ZM81.4635 43.5937L84.3229 34.1926H87.3281L90.1927 43.5937H87.5625L87.0989 41.5989H84.4687L84.0052 43.5937" fill="#1C1C1B"/>
<path d="M94.7187 43.7656C94.1249 43.7656 93.552 43.6667 93.0103 43.4688C92.4635 43.2708 91.9895 42.974 91.578 42.5729C91.1666 42.1719 90.8385 41.6719 90.5989 41.0677C90.3593 40.4688 90.2395 39.7656 90.2395 38.9635C90.2395 38.1771 90.3645 37.474 90.6145 36.8594C90.8645 36.25 91.1978 35.7344 91.6197 35.3125C92.0364 34.8958 92.5208 34.5729 93.0676 34.349C93.6145 34.1302 94.1822 34.0156 94.7812 34.0156C95.4062 34.0156 95.9687 34.1406 96.4583 34.3854C96.953 34.6354 97.3645 34.9271 97.703 35.2604L96.401 36.8542C96.1718 36.651 95.9322 36.4844 95.6874 36.3542C95.4374 36.224 95.1562 36.1563 94.8385 36.1563C94.5572 36.1563 94.2968 36.2188 94.052 36.349C93.8072 36.474 93.5885 36.651 93.401 36.8802C93.2135 37.1146 93.0624 37.401 92.953 37.7344C92.8385 38.0729 92.7864 38.4531 92.7864 38.875C92.7864 39.7656 92.9687 40.4479 93.3437 40.9167C93.7135 41.3906 94.203 41.625 94.8072 41.625C95.177 41.625 95.4999 41.5469 95.7864 41.3854C96.0676 41.2292 96.3124 41.0365 96.5155 40.8177L97.8176 42.375C97.4114 42.8438 96.9478 43.1875 96.4218 43.4167C95.8958 43.651 95.328 43.7656 94.7187 43.7656Z" fill="#1C1C1B"/>
<path d="M98.776 43.5937H101.26V34.1926H98.776V43.5937Z" fill="#1C1C1B"/>
<path d="M103.031 43.5937V34.1926H105.521V41.5103H109.078V43.5937" fill="#1C1C1B"/>
<path d="M110.188 43.5937V34.1926H116.266V36.276H112.677V37.7499H115.745V39.8333H112.677V41.5103H116.411V43.5937" fill="#1C1C1B"/>
<path d="M28.5624 26.0625C26.8697 28.5521 28.3072 31.8281 30.052 33.4896C31.6458 35 32.9218 35.3594 33.0885 35.401L33.901 33.8438L36.2447 40.2552L29.6197 41.599L30.4999 39.9688L29.6041 39.4635C26.8124 37.6458 26.2239 35.1771 26.0312 34.4063C25.6978 33.0781 25.203 29.1094 28.5624 26.0625Z" fill="#1C1C1B"/>
<path d="M28.5312 26.1718C29.7344 28.927 33.2708 29.4635 35.6042 28.8697C37.6771 28.3437 38.6615 27.4895 38.8281 27.3333L38.8177 27.3176L37.9323 25.7864L44.599 27.2395L42.1875 33.5572L41.2917 31.9687L40.4219 32.4374C37.3958 33.828 34.9896 33.0103 34.2344 32.7603C32.9375 32.3333 29.3125 30.6353 28.5312 26.1718Z" fill="#1C1C1B"/>
<path d="M40.3177 19.5156C39.8541 22.8125 37.8698 24.3958 37.25 24.8958C36.1875 25.7552 32.802 27.8854 28.6198 26.1354C31.5937 26.6094 33.9531 23.9271 34.7135 21.6406C35.401 19.5885 35.1979 18.2917 35.1562 18.0885H35.1354L33.3698 18.0104L38.1823 13.1719L42.2083 18.6094L40.3906 18.5052" fill="#1C1C1B"/>
<path fill-rule="evenodd" clip-rule="evenodd" d="M20.0938 16.7291C18.5729 16.7291 17.3438 15.4999 17.3438 13.9791C17.3438 12.4583 18.5729 11.2239 20.0938 11.2239C21.6146 11.2239 22.849 12.4583 22.849 13.9791C22.849 15.4999 21.6146 16.7291 20.0938 16.7291Z" fill="#1C1C1B"/>
<path d="M15.8333 30.1146C16.0677 29.4688 16.4167 29.5104 16.4167 29.5104C16.4167 29.5104 16.7344 29.4427 16.9115 30.0938L19.4844 39.125C17.3385 38.5052 15.3802 37.4375 13.7135 36.0313L15.8333 30.1146ZM23.8594 5.98438C13.9167 5.98438 5.82812 14.0729 5.82812 24.0208C5.82812 33.9583 13.9167 42.0521 23.8594 42.0521C24.3906 42.0521 24.9115 42.0156 25.4323 41.9688L25.5521 43.7813L28.8542 40.5885L25.1615 37.776L25.3021 39.6771C24.8281 39.7188 24.3438 39.75 23.8594 39.75C23.0938 39.75 22.3438 39.6927 21.6094 39.5885L21.5365 39.1094L19.8229 24.5104C19.5885 21.7552 21.1615 21.3125 22.1354 21.7292L27.6042 23.9219C28.2292 24.1927 28.5313 23.6719 28.5313 23.6719C28.5313 23.6719 28.8854 23.1198 28.25 22.7135C28.25 22.7135 20.7969 17.776 19.2083 17.4792C17.0417 17.0729 14.8958 18.8281 14.4219 21.1146L11.776 34.0833C9.5 31.349 8.125 27.8438 8.125 24.0208C8.125 15.3438 15.1823 8.28646 23.8594 8.28646C28.4948 8.28646 32.6667 10.3021 35.5469 13.4948L37.1615 11.8594C33.8646 8.25 29.1198 5.98438 23.8594 5.98438Z" fill="#1C1C1B"/>
<path d="M130.746 36.716H133.14V37.424H131.61V38.432H133.05V39.14H131.61V41H130.746V36.716ZM133.524 41V36.716H134.388V40.292H135.918V41H133.524ZM138.089 39.386L137.675 37.46H137.663L137.249 39.386H138.089ZM138.203 36.716L139.337 41H138.437L138.239 40.094H137.099L136.901 41H136.001L137.135 36.716H138.203ZM141.465 38.162C141.465 37.85 141.427 37.624 141.351 37.484C141.279 37.34 141.145 37.268 140.949 37.268C140.841 37.268 140.751 37.298 140.679 37.358C140.611 37.414 140.557 37.508 140.517 37.64C140.477 37.768 140.449 37.938 140.433 38.15C140.417 38.358 140.409 38.614 140.409 38.918C140.409 39.242 140.419 39.504 140.439 39.704C140.463 39.904 140.497 40.06 140.541 40.172C140.589 40.28 140.647 40.354 140.715 40.394C140.787 40.43 140.869 40.448 140.961 40.448C141.037 40.448 141.107 40.436 141.171 40.412C141.239 40.384 141.297 40.332 141.345 40.256C141.393 40.176 141.431 40.066 141.459 39.926C141.487 39.782 141.501 39.594 141.501 39.362H142.365C142.365 39.594 142.347 39.814 142.311 40.022C142.275 40.23 142.207 40.412 142.107 40.568C142.011 40.724 141.873 40.846 141.693 40.934C141.517 41.022 141.287 41.066 141.003 41.066C140.679 41.066 140.421 41.014 140.229 40.91C140.037 40.806 139.889 40.656 139.785 40.46C139.685 40.264 139.619 40.03 139.587 39.758C139.559 39.486 139.545 39.186 139.545 38.858C139.545 38.534 139.559 38.236 139.587 37.964C139.619 37.688 139.685 37.452 139.785 37.256C139.889 37.06 140.037 36.908 140.229 36.8C140.421 36.688 140.679 36.632 141.003 36.632C141.311 36.632 141.553 36.682 141.729 36.782C141.909 36.882 142.043 37.01 142.131 37.166C142.219 37.318 142.273 37.484 142.293 37.664C142.317 37.84 142.329 38.006 142.329 38.162H141.465ZM143.632 38.858C143.632 39.146 143.638 39.392 143.65 39.596C143.666 39.796 143.694 39.96 143.734 40.088C143.778 40.212 143.838 40.304 143.914 40.364C143.994 40.42 144.098 40.448 144.226 40.448C144.354 40.448 144.456 40.42 144.532 40.364C144.612 40.304 144.672 40.212 144.712 40.088C144.756 39.96 144.784 39.796 144.796 39.596C144.812 39.392 144.82 39.146 144.82 38.858C144.82 38.57 144.812 38.326 144.796 38.126C144.784 37.926 144.756 37.762 144.712 37.634C144.672 37.506 144.612 37.414 144.532 37.358C144.456 37.298 144.354 37.268 144.226 37.268C144.098 37.268 143.994 37.298 143.914 37.358C143.838 37.414 143.778 37.506 143.734 37.634C143.694 37.762 143.666 37.926 143.65 38.126C143.638 38.326 143.632 38.57 143.632 38.858ZM142.768 38.858C142.768 38.534 142.782 38.236 142.81 37.964C142.842 37.688 142.908 37.452 143.008 37.256C143.112 37.06 143.26 36.908 143.452 36.8C143.644 36.688 143.902 36.632 144.226 36.632C144.55 36.632 144.808 36.688 145 36.8C145.192 36.908 145.338 37.06 145.438 37.256C145.542 37.452 145.608 37.688 145.636 37.964C145.668 38.236 145.684 38.534 145.684 38.858C145.684 39.186 145.668 39.486 145.636 39.758C145.608 40.03 145.542 40.264 145.438 40.46C145.338 40.656 145.192 40.806 145 40.91C144.808 41.014 144.55 41.066 144.226 41.066C143.902 41.066 143.644 41.014 143.452 40.91C143.26 40.806 143.112 40.656 143.008 40.46C142.908 40.264 142.842 40.03 142.81 39.758C142.782 39.486 142.768 39.186 142.768 38.858ZM147.188 36.716L148.232 39.65H148.244V36.716H149.036V41H148.052L146.996 38H146.984V41H146.192V36.716H147.188ZM153.472 36.716V37.424H151.942V38.432H153.382V39.14H151.942V40.292H153.532V41H151.078V36.716H153.472ZM154.963 36.716L156.007 39.65H156.019V36.716H156.811V41H155.827L154.771 38H154.759V41H153.967V36.716H154.963ZM132.557 45.654H132.941C133.113 45.654 133.251 45.602 133.355 45.498C133.463 45.394 133.517 45.232 133.517 45.012C133.517 44.796 133.471 44.632 133.379 44.52C133.287 44.408 133.133 44.352 132.917 44.352H132.557V45.654ZM131.693 43.716H133.205C133.425 43.716 133.609 43.754 133.757 43.83C133.909 43.902 134.031 43.998 134.123 44.118C134.215 44.238 134.281 44.376 134.321 44.532C134.361 44.684 134.381 44.84 134.381 45C134.381 45.22 134.347 45.412 134.279 45.576C134.215 45.74 134.123 45.874 134.003 45.978C133.887 46.082 133.745 46.16 133.577 46.212C133.409 46.264 133.223 46.29 133.019 46.29H132.557V48H131.693V43.716ZM134.804 48V43.716H135.668V47.292H137.198V48H134.804ZM139.369 46.386L138.955 44.46H138.943L138.529 46.386H139.369ZM139.483 43.716L140.617 48H139.717L139.519 47.094H138.379L138.181 48H137.281L138.415 43.716H139.483ZM141.611 46.662V46.788C141.611 46.888 141.619 46.98 141.635 47.064C141.651 47.144 141.681 47.212 141.725 47.268C141.769 47.324 141.827 47.368 141.899 47.4C141.975 47.432 142.069 47.448 142.181 47.448C142.313 47.448 142.431 47.406 142.535 47.322C142.643 47.234 142.697 47.1 142.697 46.92C142.697 46.824 142.683 46.742 142.655 46.674C142.631 46.602 142.589 46.538 142.529 46.482C142.469 46.426 142.389 46.376 142.289 46.332C142.193 46.284 142.073 46.236 141.929 46.188C141.737 46.124 141.571 46.054 141.431 45.978C141.291 45.902 141.173 45.814 141.077 45.714C140.985 45.61 140.917 45.492 140.873 45.36C140.829 45.224 140.807 45.068 140.807 44.892C140.807 44.468 140.925 44.152 141.161 43.944C141.397 43.736 141.721 43.632 142.133 43.632C142.325 43.632 142.501 43.654 142.661 43.698C142.825 43.738 142.965 43.806 143.081 43.902C143.201 43.994 143.293 44.114 143.357 44.262C143.425 44.406 143.459 44.58 143.459 44.784V44.904H142.631C142.631 44.7 142.595 44.544 142.523 44.436C142.451 44.324 142.331 44.268 142.163 44.268C142.067 44.268 141.987 44.282 141.923 44.31C141.859 44.338 141.807 44.376 141.767 44.424C141.731 44.468 141.705 44.52 141.689 44.58C141.677 44.64 141.671 44.702 141.671 44.766C141.671 44.898 141.699 45.01 141.755 45.102C141.811 45.19 141.931 45.272 142.115 45.348L142.781 45.636C142.945 45.708 143.079 45.784 143.183 45.864C143.287 45.94 143.369 46.024 143.429 46.116C143.493 46.204 143.537 46.302 143.561 46.41C143.585 46.518 143.597 46.638 143.597 46.77C143.597 47.222 143.465 47.552 143.201 47.76C142.941 47.964 142.577 48.066 142.109 48.066C141.621 48.066 141.271 47.96 141.059 47.748C140.851 47.536 140.747 47.232 140.747 46.836V46.662H141.611ZM146.535 43.716V44.424H145.599V48H144.735V44.424H143.799V43.716H146.535ZM146.951 48V43.716H147.815V48H146.951ZM149.23 45.858C149.23 46.146 149.236 46.392 149.248 46.596C149.264 46.796 149.292 46.96 149.332 47.088C149.376 47.212 149.436 47.304 149.512 47.364C149.592 47.42 149.696 47.448 149.824 47.448C149.952 47.448 150.054 47.42 150.13 47.364C150.21 47.304 150.27 47.212 150.31 47.088C150.354 46.96 150.382 46.796 150.394 46.596C150.41 46.392 150.418 46.146 150.418 45.858C150.418 45.57 150.41 45.326 150.394 45.126C150.382 44.926 150.354 44.762 150.31 44.634C150.27 44.506 150.21 44.414 150.13 44.358C150.054 44.298 149.952 44.268 149.824 44.268C149.696 44.268 149.592 44.298 149.512 44.358C149.436 44.414 149.376 44.506 149.332 44.634C149.292 44.762 149.264 44.926 149.248 45.126C149.236 45.326 149.23 45.57 149.23 45.858ZM150.904 48.51L150.394 48C150.234 48.044 150.044 48.066 149.824 48.066C149.5 48.066 149.242 48.014 149.05 47.91C148.858 47.806 148.71 47.656 148.606 47.46C148.506 47.264 148.44 47.03 148.408 46.758C148.38 46.486 148.366 46.186 148.366 45.858C148.366 45.534 148.38 45.236 148.408 44.964C148.44 44.688 148.506 44.452 148.606 44.256C148.71 44.06 148.858 43.908 149.05 43.8C149.242 43.688 149.5 43.632 149.824 43.632C150.148 43.632 150.406 43.688 150.598 43.8C150.79 43.908 150.936 44.06 151.036 44.256C151.14 44.452 151.206 44.688 151.234 44.964C151.266 45.236 151.282 45.534 151.282 45.858C151.282 46.222 151.262 46.552 151.222 46.848C151.182 47.144 151.092 47.394 150.952 47.598L151.414 48.048L150.904 48.51ZM152.6 43.716V46.704C152.6 46.812 152.606 46.912 152.618 47.004C152.634 47.092 152.66 47.17 152.696 47.238C152.736 47.302 152.788 47.354 152.852 47.394C152.92 47.43 153.004 47.448 153.104 47.448C153.208 47.448 153.292 47.43 153.356 47.394C153.42 47.354 153.47 47.302 153.506 47.238C153.546 47.17 153.572 47.092 153.584 47.004C153.6 46.912 153.608 46.812 153.608 46.704V43.716H154.472V46.704C154.472 46.976 154.434 47.202 154.358 47.382C154.282 47.558 154.18 47.698 154.052 47.802C153.924 47.906 153.778 47.976 153.614 48.012C153.45 48.048 153.28 48.066 153.104 48.066C152.928 48.066 152.758 48.05 152.594 48.018C152.43 47.986 152.284 47.922 152.156 47.826C152.028 47.726 151.926 47.586 151.85 47.406C151.774 47.226 151.736 46.992 151.736 46.704V43.716H152.6ZM157.413 43.716V44.424H155.883V45.432H157.323V46.14H155.883V47.292H157.473V48H155.019V43.716H157.413Z" fill="#1C1C1B"/>
<path d="M143.497 31.9747C142.552 32.1339 141.664 32.192 140.969 32.1522V24.712C140.969 21.8841 142.852 18.4685 144.569 18.1869C145.021 18.1135 145.487 18.2726 145.927 18.6429C146.601 19.2183 147.118 20.2283 147.372 21.373V30.4995C147.372 30.4995 147.372 30.5026 147.372 30.5056C147.283 30.8056 145.875 31.5768 143.497 31.9747ZM141.382 17.0086C141.875 17.3085 142.619 17.4646 143.363 17.4646C144.287 17.4646 145.217 17.2259 145.649 16.7607C146.197 17.1677 147.21 18.1379 147.354 19.8212C147.057 19.1969 146.68 18.6613 146.233 18.2818C145.686 17.8166 145.083 17.6207 144.492 17.7186C142.377 18.0676 140.495 21.9177 140.495 24.712V32.088C140.189 32.0084 139.944 31.8768 139.831 31.7941V21.6729C139.831 19.2826 140.896 17.636 141.382 17.0086ZM143.363 12.8095C144.443 12.8095 145.034 13.1584 145.074 13.2808V16.1547C145.034 16.2863 144.443 16.6322 143.363 16.6322C142.282 16.6322 141.692 16.2863 141.649 16.1608V13.29C141.692 13.1584 142.279 12.8095 143.363 12.8095ZM148.201 20.2252C148.201 17.633 146.524 16.323 145.903 15.9252V13.2808C145.903 11.5731 140.819 11.5731 140.819 13.2808V16.1608C140.819 16.2282 140.829 16.2924 140.844 16.3536C140.354 16.9535 139.001 18.8602 139.001 21.6729V31.8829C138.998 31.8982 139.001 31.9166 139.001 31.9319V31.9349C139.001 31.9349 139.001 31.9349 139.001 31.938C139.001 31.9778 139.001 32.0176 139.014 32.0604C139.154 32.5042 139.99 32.8898 140.697 32.9694C140.908 32.9908 141.141 33 141.382 33C142.056 33 142.83 32.9296 143.635 32.7949C145.334 32.5103 148.201 31.7084 148.201 30.5179C148.201 30.5148 148.201 30.5118 148.201 30.5087C148.201 30.5056 148.201 30.5026 148.201 30.4995" fill="#1C1C1B"/>
</g>
<defs>
<clipPath id="clip0_26_18191">
<rect width="227" height="61" fill="white"/>
</clipPath>
</defs>
</svg>
