<svg width="255" height="61" viewBox="0 0 255 61" fill="none" xmlns="http://www.w3.org/2000/svg">
<g clip-path="url(#clip0_79_1368)">
<path d="M24.6979 60.4688C11.0781 60.4688 0 49.5208 0 36.0625V0H229.948C243.563 0 254.641 10.9479 254.641 24.4062V60.4688" fill="white"/>
<path d="M222.083 52.9113H69.1353C59.6874 52.9113 51.9999 45.354 51.9999 36.0623V7.55713H204.948C214.396 7.55713 222.083 15.1144 222.083 24.4061V52.9113ZM204.948 5.6665H50.1145V36.0623C50.1145 46.3957 58.6458 54.8019 69.1353 54.8019H223.969V24.4061C223.969 14.0728 215.437 5.6665 204.948 5.6665Z" fill="#333347"/>
<path d="M191.714 54.8019L204.724 28.2238L191.432 5.6665H229.948C240.437 5.6665 248.969 14.0728 248.969 24.4061V54.8019" fill="#333347"/>
<path d="M102.901 5.6665H50.1145V36.0623C50.1145 46.3957 58.6458 54.8019 69.1353 54.8019H121.927V24.4061C121.927 14.0728 113.391 5.6665 102.901 5.6665Z" fill="#333347"/>
<path d="M63.651 29.3594C58.8489 29.3594 54.9583 33.25 54.9583 38.0521C54.9583 42.8542 58.8489 46.7448 63.651 46.7448C68.4583 46.7448 72.3489 42.8542 72.3489 38.0521C72.3489 33.25 68.4583 29.3594 63.651 29.3594Z" fill="white"/>
<path d="M69.3229 39.4689H65.0729V43.7189H62.2344V39.4689H57.9844V36.6356H62.2344V32.3804H65.0729V36.6356H69.3229" fill="#1C1C1B"/>
<path d="M55.7864 26.5936V17.1978H58.2708V24.5155H61.828V26.5936" fill="white"/>
<path d="M62.9426 26.5936V17.1978H69.0155V19.2759H65.4322V20.755H68.4947V22.8384H65.4322V24.5155H69.1614V26.5936" fill="white"/>
<path d="M75.0885 26.5936V19.2759H72.6041V17.1978H80.0677V19.2759H77.5781V26.5936" fill="white"/>
<path d="M83.5521 21.4738H84.4479C85.4479 21.4738 85.9531 21.0623 85.9531 20.2342C85.9531 19.828 85.8229 19.5467 85.5677 19.3957C85.3125 19.2394 84.9375 19.1613 84.4479 19.1613H83.5521V21.4738ZM81.0625 26.5988V17.1978H84.6198C85.125 17.1978 85.6042 17.2446 86.0625 17.3384C86.5208 17.4373 86.9167 17.5988 87.2604 17.8332C87.6042 18.0623 87.875 18.3748 88.0781 18.7655C88.2813 19.1561 88.3802 19.6457 88.3802 20.2342C88.3802 20.9061 88.2448 21.4686 87.9688 21.9113C87.6979 22.354 87.3281 22.6978 86.8646 22.953L88.901 26.5988H86.125L84.5052 23.4425H83.5521V26.5988" fill="white"/>
<path d="M89.8698 26.5988H92.3593V17.1978H89.8698V26.5988Z" fill="white"/>
<path d="M75.3801 43.2759V33.8696H81.5103V35.953H77.8697V37.7498H80.9895V39.8332H77.8697V43.2759" fill="white"/>
<path d="M84.9218 38.703L84.7604 39.354H86.4948L86.3385 38.703C86.2239 38.2498 86.1041 37.7603 85.9895 37.229C85.875 36.6978 85.7604 36.1978 85.6406 35.7238H85.5833C85.4791 36.203 85.3698 36.7082 85.2604 37.2342C85.151 37.7603 85.0364 38.2498 84.9218 38.703ZM81.3073 43.2759L84.1666 33.8696H87.1718L90.0364 43.2759H87.4062L86.9427 41.2759H84.3125L83.8489 43.2759" fill="white"/>
<path d="M94.5624 43.4478C93.9687 43.4478 93.3958 43.3488 92.8541 43.1509C92.3072 42.953 91.8333 42.6509 91.4218 42.255C91.0103 41.854 90.6822 41.354 90.4426 40.7498C90.203 40.1457 90.0833 39.4478 90.0833 38.6457C90.0833 37.854 90.2083 37.1509 90.4583 36.5415C90.7083 35.9269 91.0416 35.4113 91.4635 34.9946C91.8801 34.5728 92.3645 34.2498 92.9114 34.0311C93.4583 33.8071 94.026 33.6978 94.6249 33.6978C95.2499 33.6978 95.8124 33.8228 96.302 34.0675C96.7968 34.3123 97.2083 34.604 97.5468 34.9425L96.2447 36.5311C96.0155 36.3332 95.776 36.1665 95.5312 36.0311C95.2812 35.9061 94.9999 35.8384 94.6822 35.8384C94.401 35.8384 94.1405 35.9009 93.8958 36.0259C93.651 36.1509 93.4322 36.3332 93.2447 36.5623C93.0572 36.7915 92.9062 37.078 92.7968 37.4165C92.6822 37.7498 92.6301 38.1353 92.6301 38.5571C92.6301 39.4478 92.8124 40.1248 93.1874 40.5988C93.5572 41.0675 94.0468 41.3071 94.651 41.3071C95.0208 41.3071 95.3437 41.229 95.6301 41.0675C95.9114 40.9061 96.1562 40.7186 96.3593 40.4946L97.6614 42.0571C97.2551 42.5207 96.7916 42.8696 96.2655 43.0988C95.7395 43.3332 95.1718 43.4478 94.5624 43.4478Z" fill="white"/>
<path d="M98.6198 43.2759H101.104V33.8696H98.6198V43.2759Z" fill="white"/>
<path d="M102.875 43.2759V33.8696H105.365V41.1925H108.922V43.2759" fill="white"/>
<path d="M110.031 43.2759V33.8696H116.109V35.953H112.521V37.4321H115.589V39.5155H112.521V41.1925H116.255V43.2759" fill="white"/>
<path d="M28.4062 25.7446C26.7135 28.2342 28.151 31.5103 29.8958 33.1717C31.4895 34.6821 32.7655 35.0363 32.9322 35.078L33.7447 33.5207L36.0885 39.9321L29.4635 41.2811L30.3437 39.6457L29.4478 39.1457C26.6562 37.328 26.0676 34.8592 25.8749 34.0884C25.5416 32.7603 25.0468 28.7863 28.4062 25.7446Z" fill="#333347"/>
<path d="M28.375 25.8488C29.5781 28.6092 33.1146 29.1405 35.4479 28.5519C37.5208 28.0259 38.5052 27.1717 38.6719 27.0155L38.6615 26.9998L37.776 25.4634L44.4427 26.9217L42.0313 33.2394L41.1354 31.6457L40.2656 32.1196C37.2396 33.5103 34.8333 32.6925 34.0781 32.4425C32.7813 32.0155 29.1562 30.3123 28.375 25.8488Z" fill="#333347"/>
<path d="M40.1613 19.1925C39.6978 22.4894 37.7134 24.0728 37.0936 24.5728C36.0311 25.4373 32.6457 27.5675 28.4634 25.8175C31.4373 26.2915 33.7967 23.604 34.5571 21.3175C35.2446 19.2655 35.0415 17.9686 34.9998 17.7707L34.979 17.7655L33.2134 17.6925L38.0259 12.854L42.0519 18.2863L40.2342 18.1821" fill="#333347"/>
<path fill-rule="evenodd" clip-rule="evenodd" d="M19.9375 16.4115C18.4167 16.4115 17.1875 15.1823 17.1875 13.6563C17.1875 12.1354 18.4167 10.9062 19.9375 10.9062C21.4583 10.9062 22.6927 12.1354 22.6927 13.6563C22.6927 15.1823 21.4583 16.4115 19.9375 16.4115Z" fill="#333347"/>
<path d="M15.6771 29.7967C15.9115 29.1509 16.2604 29.1925 16.2604 29.1925C16.2604 29.1925 16.5781 29.1248 16.7552 29.7707L19.3281 38.8071C17.1823 38.1821 15.224 37.1196 13.5573 35.7082L15.6771 29.7967ZM23.7031 5.6665C13.7604 5.6665 5.67188 13.755 5.67188 23.6978C5.67188 33.6405 13.7604 41.729 23.7031 41.729C24.2344 41.729 24.7552 41.6978 25.276 41.6509L25.3958 43.4634L28.6979 40.2707L25.0052 37.453L25.1458 39.354C24.6719 39.4009 24.1875 39.4321 23.7031 39.4321C22.9375 39.4321 22.1875 39.3748 21.4531 39.2655L21.3802 38.7863L19.6667 24.1873C19.4323 21.4321 21.0052 20.9946 21.9792 21.4061L27.4479 23.604C28.0729 23.8748 28.375 23.3488 28.375 23.3488C28.375 23.3488 28.7292 22.8019 28.0938 22.3957C28.0938 22.3957 20.6406 17.4582 19.0521 17.1561C16.8854 16.755 14.7396 18.5103 14.2656 20.7967L11.6198 33.7603C9.34375 31.0311 7.96875 27.5207 7.96875 23.6978C7.96875 15.0207 15.026 7.96338 23.7031 7.96338C28.3385 7.96338 32.5104 9.979 35.3906 13.1769L37.0052 11.5363C33.7083 7.93213 28.9635 5.6665 23.7031 5.6665Z" fill="#333347"/>
<path d="M134.616 18.432V19.848H132.744V27H131.016V19.848H129.144V18.432H134.616ZM138.285 23.772L137.457 19.92H137.433L136.605 23.772H138.285ZM138.513 18.432L140.781 27H138.981L138.585 25.188H136.305L135.909 27H134.109L136.377 18.432H138.513ZM141.413 18.432H143.981L145.205 24.48H145.229L146.465 18.432H149.021V27H147.437V20.16H147.413L145.889 27H144.545L143.021 20.16H142.997V27H141.413V18.432ZM151.988 22.308H152.756C153.1 22.308 153.376 22.204 153.584 21.996C153.8 21.788 153.908 21.464 153.908 21.024C153.908 20.592 153.816 20.264 153.632 20.04C153.448 19.816 153.14 19.704 152.708 19.704H151.988V22.308ZM150.26 18.432H153.284C153.724 18.432 154.092 18.508 154.388 18.66C154.692 18.804 154.936 18.996 155.12 19.236C155.304 19.476 155.436 19.752 155.516 20.064C155.596 20.368 155.636 20.68 155.636 21C155.636 21.44 155.568 21.824 155.432 22.152C155.304 22.48 155.12 22.748 154.88 22.956C154.648 23.164 154.364 23.32 154.028 23.424C153.692 23.528 153.32 23.58 152.912 23.58H151.988V27H150.26V18.432ZM158.031 22.716C158.031 23.292 158.043 23.784 158.067 24.192C158.099 24.592 158.155 24.92 158.235 25.176C158.323 25.424 158.443 25.608 158.595 25.728C158.755 25.84 158.963 25.896 159.219 25.896C159.475 25.896 159.679 25.84 159.831 25.728C159.991 25.608 160.111 25.424 160.191 25.176C160.279 24.92 160.335 24.592 160.359 24.192C160.391 23.784 160.407 23.292 160.407 22.716C160.407 22.14 160.391 21.652 160.359 21.252C160.335 20.852 160.279 20.524 160.191 20.268C160.111 20.012 159.991 19.828 159.831 19.716C159.679 19.596 159.475 19.536 159.219 19.536C158.963 19.536 158.755 19.596 158.595 19.716C158.443 19.828 158.323 20.012 158.235 20.268C158.155 20.524 158.099 20.852 158.067 21.252C158.043 21.652 158.031 22.14 158.031 22.716ZM156.303 22.716C156.303 22.068 156.331 21.472 156.387 20.928C156.451 20.376 156.583 19.904 156.783 19.512C156.991 19.12 157.287 18.816 157.671 18.6C158.055 18.376 158.571 18.264 159.219 18.264C159.867 18.264 160.383 18.376 160.767 18.6C161.151 18.816 161.443 19.12 161.643 19.512C161.851 19.904 161.983 20.376 162.039 20.928C162.103 21.472 162.135 22.068 162.135 22.716C162.135 23.372 162.103 23.972 162.039 24.516C161.983 25.06 161.851 25.528 161.643 25.92C161.443 26.312 161.151 26.612 160.767 26.82C160.383 27.028 159.867 27.132 159.219 27.132C158.571 27.132 158.055 27.028 157.671 26.82C157.287 26.612 156.991 26.312 156.783 25.92C156.583 25.528 156.451 25.06 156.387 24.516C156.331 23.972 156.303 23.372 156.303 22.716ZM165.143 18.432L167.231 24.3H167.255V18.432H168.839V27H166.871L164.759 21H164.735V27H163.151V18.432H165.143ZM129.6 33.432H131.328V36.708H133.344V33.432H135.072V42H133.344V38.196H131.328V42H129.6V33.432ZM137.648 33.432L138.776 36.744H138.8L140 33.432H141.872L139.652 38.628V42H137.924V38.628L135.704 33.432H137.648ZM146.306 35.976C146.306 35.816 146.286 35.652 146.246 35.484C146.214 35.316 146.158 35.164 146.078 35.028C145.998 34.884 145.894 34.768 145.766 34.68C145.646 34.584 145.498 34.536 145.322 34.536C144.906 34.536 144.606 34.768 144.422 35.232C144.238 35.696 144.146 36.464 144.146 37.536C144.146 38.048 144.162 38.512 144.194 38.928C144.226 39.344 144.282 39.7 144.362 39.996C144.45 40.284 144.57 40.508 144.722 40.668C144.882 40.82 145.086 40.896 145.334 40.896C145.438 40.896 145.55 40.868 145.67 40.812C145.798 40.756 145.914 40.672 146.018 40.56C146.13 40.448 146.222 40.308 146.294 40.14C146.366 39.964 146.402 39.76 146.402 39.528V38.652H145.262V37.38H148.058V42H146.786V41.208H146.762C146.554 41.544 146.302 41.784 146.006 41.928C145.718 42.064 145.37 42.132 144.962 42.132C144.434 42.132 144.002 42.04 143.666 41.856C143.338 41.672 143.078 41.388 142.886 41.004C142.702 40.62 142.578 40.148 142.514 39.588C142.45 39.02 142.418 38.364 142.418 37.62C142.418 36.9 142.462 36.268 142.55 35.724C142.646 35.18 142.806 34.728 143.03 34.368C143.254 34 143.55 33.724 143.918 33.54C144.286 33.356 144.746 33.264 145.298 33.264C146.242 33.264 146.922 33.5 147.338 33.972C147.754 34.436 147.962 35.104 147.962 35.976H146.306ZM149.254 42V33.432H150.982V42H149.254ZM154.568 31.2H156.224L155.048 32.928H153.92L154.568 31.2ZM157.052 33.432V34.848H153.992V36.864H156.872V38.28H153.992V40.584H157.172V42H152.264V33.432H157.052ZM160.033 33.432L162.121 39.3H162.145V33.432H163.729V42H161.761L159.649 36H159.625V42H158.041V33.432H160.033ZM165.016 42V33.432H166.744V42H165.016ZM169.574 37.716C169.574 38.292 169.586 38.784 169.61 39.192C169.642 39.592 169.698 39.92 169.778 40.176C169.866 40.424 169.986 40.608 170.138 40.728C170.298 40.84 170.506 40.896 170.762 40.896C171.018 40.896 171.222 40.84 171.374 40.728C171.534 40.608 171.654 40.424 171.734 40.176C171.822 39.92 171.878 39.592 171.902 39.192C171.934 38.784 171.95 38.292 171.95 37.716C171.95 37.14 171.934 36.652 171.902 36.252C171.878 35.852 171.822 35.524 171.734 35.268C171.654 35.012 171.534 34.828 171.374 34.716C171.222 34.596 171.018 34.536 170.762 34.536C170.506 34.536 170.298 34.596 170.138 34.716C169.986 34.828 169.866 35.012 169.778 35.268C169.698 35.524 169.642 35.852 169.61 36.252C169.586 36.652 169.574 37.14 169.574 37.716ZM172.922 43.02L171.902 42C171.582 42.088 171.202 42.132 170.762 42.132C170.114 42.132 169.598 42.028 169.214 41.82C168.83 41.612 168.534 41.312 168.326 40.92C168.126 40.528 167.994 40.06 167.93 39.516C167.874 38.972 167.846 38.372 167.846 37.716C167.846 37.068 167.874 36.472 167.93 35.928C167.994 35.376 168.126 34.904 168.326 34.512C168.534 34.12 168.83 33.816 169.214 33.6C169.598 33.376 170.114 33.264 170.762 33.264C171.41 33.264 171.926 33.376 172.31 33.6C172.694 33.816 172.986 34.12 173.186 34.512C173.394 34.904 173.526 35.376 173.582 35.928C173.646 36.472 173.678 37.068 173.678 37.716C173.678 38.444 173.638 39.104 173.558 39.696C173.478 40.288 173.298 40.788 173.018 41.196L173.942 42.096L172.922 43.02ZM176.314 33.432V39.408C176.314 39.624 176.326 39.824 176.35 40.008C176.382 40.184 176.434 40.34 176.506 40.476C176.586 40.604 176.69 40.708 176.818 40.788C176.954 40.86 177.122 40.896 177.322 40.896C177.53 40.896 177.698 40.86 177.826 40.788C177.954 40.708 178.054 40.604 178.126 40.476C178.206 40.34 178.258 40.184 178.282 40.008C178.314 39.824 178.33 39.624 178.33 39.408V33.432H180.058V39.408C180.058 39.952 179.982 40.404 179.83 40.764C179.678 41.116 179.474 41.396 179.218 41.604C178.962 41.812 178.67 41.952 178.342 42.024C178.014 42.096 177.674 42.132 177.322 42.132C176.97 42.132 176.63 42.1 176.302 42.036C175.974 41.972 175.682 41.844 175.426 41.652C175.17 41.452 174.966 41.172 174.814 40.812C174.662 40.452 174.586 39.984 174.586 39.408V33.432H176.314ZM185.939 33.432V34.848H182.879V36.864H185.759V38.28H182.879V40.584H186.059V42H181.151V33.432H185.939Z" fill="black"/>
<path fill-rule="evenodd" clip-rule="evenodd" d="M221.197 12.9917C220.489 12.7271 219.997 12.6406 219.67 12.6452C219.338 12.6499 219.233 12.7457 219.211 12.7697C219.191 12.7911 219.158 12.8426 219.156 12.9856C219.155 13.0935 219.173 13.2211 219.209 13.3514L223.625 17.6963H226.528C227.034 17.0728 228.172 15.8497 230.078 14.1794C230.602 13.7203 230.792 13.4037 230.848 13.2371C230.879 13.1441 230.868 13.1284 230.843 13.0951L230.839 13.0896C230.774 13.001 230.62 12.8791 230.352 12.7673C230.11 12.6663 229.831 12.5973 229.575 12.5601C229.389 12.5649 229.251 12.6081 229.006 12.6965L228.957 12.7142C228.87 12.7457 228.807 12.7781 228.743 12.811C228.611 12.8791 228.474 12.9492 228.116 13.0172C227.548 13.1251 227.141 13.1334 226.683 13.0237C226.386 12.9524 226.057 12.826 225.66 12.6733L225.66 12.6732L225.66 12.6732C225.522 12.6199 225.375 12.5634 225.218 12.505L225.215 12.5046C225.205 12.5034 225.171 12.4992 225.103 12.5017C225.005 12.5053 224.878 12.5207 224.721 12.5484C224.412 12.603 224.047 12.694 223.66 12.7904L223.637 12.7962C223.255 12.8913 222.848 12.9925 222.508 13.0468C222.338 13.0739 222.162 13.0935 221.999 13.0896C221.986 13.0893 221.969 13.0891 221.947 13.0889H221.947C221.777 13.0872 221.364 13.0832 221.197 12.9917ZM223.237 11.3164C222.706 11.4374 221.732 11.5442 221.732 11.5442C221.164 11.5236 220.749 11.4099 220.402 11.3145C220.125 11.2386 219.891 11.1743 219.654 11.1777C219.117 11.1852 218.651 11.3462 218.316 11.7135C217.98 12.0836 217.873 12.5579 217.868 12.9653C217.863 13.3667 217.954 13.7551 218.067 14.0649L218.126 14.2248L222.043 18.0789C220.564 18.4041 218.986 19.063 217.531 20.2082C214.761 22.3897 212.542 26.2534 212.227 32.6479C212.207 33.0641 212.184 33.4866 212.161 33.912C212.068 35.6616 211.972 37.462 212.008 39.0902C212.052 41.0844 212.292 43.0034 213.107 44.3151C214.572 46.6711 216.968 47.8112 219.268 48.348C221.56 48.883 223.85 48.8422 225.268 48.7579C226.563 48.7331 228.698 48.6558 230.887 48.1961C233.067 47.7382 235.413 46.8786 237.016 45.2058C238.305 43.8598 238.744 41.8774 238.878 39.7527C238.983 38.0805 238.904 36.1896 238.823 34.2644L238.823 34.2638C238.8 33.7301 238.778 33.1937 238.759 32.6587C238.548 26.6489 236.338 22.879 233.569 20.6473C231.772 19.1991 229.772 18.4248 228.001 18.0891C228.574 17.4656 229.506 16.5318 230.863 15.3427C231.456 14.8235 231.868 14.3043 232.051 13.7626C232.256 13.1522 232.144 12.5834 231.83 12.152C231.553 11.7717 231.15 11.5369 230.794 11.3889C230.425 11.2351 230.029 11.1428 229.687 11.097L229.649 11.092H229.611C229.197 11.092 228.898 11.1959 228.617 11.2976L228.57 11.3145C228.314 11.4071 228.037 11.5078 227.597 11.5912C227.212 11.6645 227.189 11.6582 227.042 11.6184L227.042 11.6184C227.013 11.6105 226.98 11.6013 226.937 11.5912C226.72 11.539 226.496 11.4529 226.141 11.3164C226.127 11.311 226.103 11.2985 226.069 11.2814C225.905 11.1967 225.523 11 225.086 11C224.442 11 223.825 11.163 223.453 11.2614L223.453 11.2614L223.453 11.2615L223.453 11.2615C223.367 11.2841 223.295 11.3034 223.237 11.3164ZM218.478 21.4108C216.129 23.2603 214.054 26.6676 213.756 32.7231C213.735 33.1559 213.712 33.5897 213.689 34.0222C213.596 35.7668 213.504 37.492 213.538 39.0565C213.582 41.0386 213.83 42.5793 214.407 43.5068C215.575 45.3858 217.528 46.37 219.616 46.8573C221.702 47.3443 223.827 47.3108 225.192 47.2289L225.207 47.228L225.223 47.2277C226.495 47.2037 228.521 47.1289 230.572 46.6981C232.641 46.2636 234.624 45.489 235.91 44.1468C236.806 43.2119 237.221 41.7042 237.35 39.6564C237.45 38.0726 237.375 36.2919 237.295 34.3813C237.272 33.835 237.249 33.2782 237.229 32.7124C237.032 27.0884 234.989 23.7575 232.609 21.8391C230.802 20.3832 228.757 19.7053 227.07 19.4905C228.467 20.9563 230.051 22.4306 230.916 22.9628L230.114 24.2664C229.751 23.9038 229.206 23.4291 228.577 22.8815L228.577 22.8815C227.672 22.0929 226.593 21.1533 225.636 20.1804C225.589 20.8038 225.548 21.5006 225.531 22.1621C225.516 22.7319 225.52 23.2613 225.55 23.6891C225.565 23.9031 225.586 24.0802 225.611 24.218C225.624 24.2864 225.636 24.3394 225.648 24.3787C225.659 24.4162 225.666 24.4328 225.667 24.4343L225.777 25.0318L224.298 25.119C224.12 24.7626 224.055 24.2519 224.023 23.7962C223.988 23.2997 223.985 22.7161 224.001 22.123C224.013 21.6509 224.036 21.1638 224.066 20.6965C222.822 21.8971 221.513 22.9378 220.548 23.7056L220.547 23.7058L220.547 23.7061C220.412 23.8133 220.284 23.9151 220.164 24.0113L219.362 22.7076C220.212 22.115 221.785 20.8255 223.179 19.4313C221.695 19.6286 220.007 20.2073 218.478 21.4108Z" fill="white"/>
</g>
<defs>
<clipPath id="clip0_79_1368">
<rect width="255" height="61" fill="white"/>
</clipPath>
</defs>
</svg>
