<svg width="215" height="37" viewBox="0 0 215 37" fill="none" xmlns="http://www.w3.org/2000/svg">
<g clip-path="url(#clip0_26_18655)">
<path d="M17.8073 22.0104C16.4844 23.9636 17.6094 26.5261 18.9792 27.8281C20.2239 29.0104 21.2239 29.2917 21.3594 29.3229L21.9896 28.1042L23.8281 33.125L18.6406 34.1823L19.3281 32.9011L18.625 32.5052C16.4427 31.0834 15.9792 29.1459 15.8281 28.5417C15.5677 27.5052 15.1771 24.3959 17.8073 22.0104Z" fill="black"/>
<path d="M17.7864 22.0938C18.7291 24.2552 21.5 24.6719 23.3281 24.2084C24.9531 23.7969 25.7239 23.125 25.8541 23.0052L25.8437 22.9948L25.151 21.7917L30.375 22.9323L28.4844 27.8802L27.7864 26.6354L27.0989 27.0052C24.7291 28.0938 22.8437 27.4531 22.2552 27.2552C21.2344 26.9219 18.3958 25.5886 17.7864 22.0938Z" fill="black"/>
<path d="M27.0208 16.875C26.6562 19.4583 25.0989 20.7031 24.6146 21.0938C23.7864 21.7708 21.1302 23.4375 17.8542 22.0677C20.1875 22.4375 22.0312 20.3333 22.6302 18.5417C23.1667 16.9375 23.0104 15.9219 22.9792 15.7604H22.9635L21.5729 15.7031L25.3489 11.9115L28.5 16.1667L27.0781 16.0886" fill="black"/>
<path fill-rule="evenodd" clip-rule="evenodd" d="M11.1771 14.6979C9.98435 14.6979 9.02081 13.7344 9.02081 12.5417C9.02081 11.3489 9.98435 10.3854 11.1771 10.3854C12.3698 10.3854 13.3333 11.3489 13.3333 12.5417C13.3333 13.7344 12.3698 14.6979 11.1771 14.6979Z" fill="black"/>
<path d="M7.83854 25.1823C8.02083 24.6771 8.29688 24.7083 8.29688 24.7083C8.29688 24.7083 8.54167 24.6562 8.68229 25.1667L10.6979 32.2448C9.01563 31.7552 7.48438 30.9219 6.17708 29.8177L7.83854 25.1823ZM14.125 6.28125C6.33854 6.28125 0 12.6198 0 20.4062C0 28.1979 6.33854 34.5365 14.125 34.5365C14.5417 34.5365 14.9531 34.5052 15.3594 34.4688L15.4531 35.8906L18.0365 33.3906L15.1458 31.1823L15.2552 32.6719C14.8802 32.7083 14.5104 32.7344 14.125 32.7344C13.526 32.7344 12.9427 32.6875 12.3646 32.6042L12.3073 32.2292L10.9635 20.7917C10.7813 18.6354 12.0156 18.2865 12.776 18.6094L17.0573 20.3333C17.5521 20.5417 17.7865 20.1354 17.7865 20.1354C17.7865 20.1354 18.0625 19.7031 17.5677 19.3854C17.5677 19.3854 11.7292 15.5156 10.4844 15.2865C8.78646 14.9688 7.10938 16.3438 6.72917 18.1354L4.66146 28.2917C2.875 26.151 1.80208 23.401 1.80208 20.4062C1.80208 13.6094 7.33333 8.08333 14.125 8.08333C17.7552 8.08333 21.026 9.65625 23.2812 12.1615L24.5469 10.8802C21.9635 8.05729 18.25 6.28125 14.125 6.28125Z" fill="black"/>
<path d="M123.312 3.93231V4.54169H121.75V5.50002H122.948V6.09898H121.75V7.68231H120.995V3.93231" fill="black"/>
<path d="M124.594 5.65627H125.224C125.427 5.65627 125.578 5.60939 125.677 5.51044C125.781 5.41148 125.828 5.27606 125.828 5.09898C125.828 4.9271 125.781 4.79169 125.677 4.69794C125.578 4.60419 125.427 4.55731 125.224 4.55731H124.594V5.65627ZM125.776 7.68231L124.948 6.21877H124.594V7.68231H123.844V3.93231H125.25C125.542 3.93231 125.786 3.98439 125.99 4.08335C126.193 4.18752 126.349 4.32815 126.453 4.50002C126.552 4.67189 126.604 4.8646 126.604 5.08335C126.604 5.32815 126.531 5.5521 126.385 5.75002C126.245 5.94794 126.031 6.08335 125.75 6.16148L126.646 7.68231" fill="black"/>
<path d="M213.693 31.3021C213.693 33.8281 211.599 35.8802 209.021 35.8802H38.5781C36 35.8802 33.9011 33.8281 33.9011 31.3021V10.8698C33.9011 8.34375 36 6.28646 38.5781 6.28646H118.036C118.151 7.59375 118.682 8.86979 119.682 9.86979C120.813 10.9948 122.292 11.5625 123.771 11.5625C125.25 11.5625 126.729 10.9948 127.854 9.86979C128.854 8.86979 129.385 7.59375 129.5 6.28646H209.021C211.599 6.28646 213.693 8.34375 213.693 10.8698V31.3021ZM120.438 2.44792C121.328 1.55729 122.51 1.06771 123.771 1.06771C125.026 1.06771 126.214 1.55729 127.104 2.44792C127.995 3.33854 128.484 4.52083 128.484 5.78125C128.484 7.04167 127.995 8.22396 127.104 9.11458C126.214 10.0052 125.026 10.4948 123.771 10.4948C122.51 10.4948 121.328 10.0052 120.438 9.11458C118.599 7.27604 118.599 4.28646 120.438 2.44792ZM209.021 5.21875H129.495C129.37 3.9375 128.844 2.68229 127.854 1.69271C126.729 0.567708 125.25 0 123.771 0C122.292 0 120.813 0.567708 119.682 1.69271C118.698 2.68229 118.167 3.9375 118.042 5.21875H38.5781C35.4115 5.21875 32.8333 7.75521 32.8333 10.8698V31.3021C32.8333 34.4167 35.4115 36.9479 38.5781 36.9479H209.021C212.182 36.9479 214.76 34.4167 214.76 31.3021V10.8698C214.76 7.75521 212.182 5.21875 209.021 5.21875Z" fill="black"/>
<path d="M72.3333 18.625L69.6562 16.1615V18.5573H64.5104V23.6094H69.6562V26L75.0104 21.0833" fill="black"/>
<path d="M39.7917 20.5521H45.5781V15.0833C45.5781 14.9375 45.6667 14.8021 45.8073 14.7448C45.9427 14.6875 46.099 14.7188 46.2031 14.8229L46.6875 15.3073L47.9271 14.0729L45.7344 11.8802L44.4635 11.3542C44.0625 11.8594 43.3958 12.1771 42.6875 12.1771C41.9792 12.1771 41.3177 11.8594 40.9167 11.3542L39.6302 11.8854L37.4479 14.0729L38.6875 15.3073L39.1667 14.8281C39.2708 14.724 39.4271 14.6927 39.5677 14.75C39.7031 14.8073 39.7917 14.9427 39.7917 15.0886V20.5521ZM45.9427 21.2865H39.4271C39.224 21.2865 39.0573 21.125 39.0573 20.9167V15.974L38.9479 16.0886C38.8021 16.2292 38.5677 16.2292 38.4271 16.0886L36.6667 14.3281C36.599 14.2604 36.5625 14.1667 36.5625 14.0729C36.5625 13.974 36.599 13.8802 36.6667 13.8073L39.1667 11.3125C39.2031 11.2813 39.2396 11.25 39.2865 11.2344L40.9062 10.5677C41.0729 10.4948 41.2917 10.5677 41.3802 10.7344C41.6094 11.1615 42.125 11.4427 42.6875 11.4427C43.2552 11.4427 43.7656 11.1615 44 10.7292C44.0625 10.6094 44.1875 10.5365 44.3229 10.5365C44.3698 10.5365 44.4271 10.5469 44.4688 10.5625L46.0833 11.2292C46.1302 11.2448 46.1719 11.2761 46.2031 11.3073L48.7083 13.8073C48.776 13.8802 48.8125 13.974 48.8125 14.0729C48.8125 14.1667 48.776 14.2604 48.7083 14.3281L46.9479 16.0886C46.8802 16.1563 46.7865 16.1927 46.6875 16.1927C46.5938 16.1927 46.5 16.1563 46.4323 16.0886L46.3125 15.9688V20.9167C46.3125 21.125 46.1458 21.2865 45.9427 21.2865Z" fill="black"/>
<path d="M60.9219 19.0625C60.9219 19.875 60.3333 20.5365 59.6094 20.5365H51.8698C51.1458 20.5365 50.5573 19.875 50.5573 19.0625C50.5573 19.0313 50.5521 19.0052 50.5469 18.974C50.5521 18.9531 50.5573 18.9323 50.5573 18.9167L51.0729 12.2396C51.1146 11.7031 51.5677 11.2865 52.1042 11.2865H59.1458L59.776 16.8594H59.6302C59.625 16.8594 59.6146 16.8542 59.6094 16.8542H53.2396C53.2344 16.8542 53.2344 16.8594 53.2292 16.8594H52.4427C51.625 16.8594 50.9635 17.5677 50.9635 18.4375C50.9635 19.3125 51.625 20.0209 52.4427 20.0209H59.4167C59.9219 20.0209 60.3333 19.5834 60.3333 19.0469C60.3333 18.5104 59.9219 18.0729 59.4167 18.0729H52.9271C52.724 18.0729 52.5625 18.2344 52.5625 18.4375C52.5625 18.6406 52.724 18.8021 52.9271 18.8021H59.4167C59.5156 18.8021 59.6042 18.9167 59.6042 19.0469C59.6042 19.1771 59.5156 19.2917 59.4167 19.2917H58.7292C58.7292 19.2865 58.7292 19.2865 58.724 19.2865H52.4427C52.0313 19.2865 51.6979 18.9063 51.6979 18.4375C51.6979 17.9688 52.0313 17.5886 52.4427 17.5886H59.6198C60.3385 17.5938 60.9219 18.2552 60.9219 19.0625ZM61.0573 16.8594H60.1406L59.5104 11.2865H60.3229L61.0573 16.8594ZM61.7917 17.4011C61.7969 17.3906 61.8021 17.3854 61.8073 17.375C61.8125 17.3646 61.8177 17.3542 61.8229 17.3386C61.8229 17.3281 61.8281 17.3177 61.8281 17.3073C61.8333 17.2969 61.8385 17.2865 61.8385 17.2709C61.8385 17.2604 61.8385 17.25 61.8385 17.2344C61.8385 17.2292 61.8438 17.2292 61.8438 17.224C61.8438 17.2136 61.8385 17.2084 61.8385 17.1979C61.8385 17.1927 61.8385 17.1823 61.8385 17.1719L61.0052 10.8698C60.9792 10.6927 60.8229 10.5573 60.6406 10.5573H52.1042C51.1875 10.5573 50.4167 11.2709 50.3438 12.1823L49.8281 18.8594C49.8281 18.8959 49.8333 18.9375 49.8385 18.974C49.8333 19 49.8281 19.0313 49.8281 19.0625C49.8281 20.2761 50.7448 21.2656 51.8698 21.2656H59.6094C60.7344 21.2656 61.651 20.2761 61.651 19.0625C61.651 18.4948 61.4531 17.9792 61.1302 17.5886H61.474C61.4844 17.5886 61.5 17.5886 61.5104 17.5834C61.5156 17.5834 61.5208 17.5834 61.526 17.5834H61.5312C61.5469 17.5781 61.5625 17.5781 61.5833 17.5729C61.5885 17.5677 61.5938 17.5677 61.6042 17.5625C61.6198 17.5573 61.6302 17.5521 61.6458 17.5417C61.6563 17.5365 61.6615 17.5365 61.6667 17.5313C61.6823 17.5261 61.6927 17.5156 61.7031 17.5052C61.7135 17.5 61.7188 17.4948 61.724 17.4896C61.7344 17.4792 61.7448 17.4688 61.7552 17.4584L61.7708 17.4375C61.7813 17.4271 61.7865 17.4115 61.7917 17.4011Z" fill="black"/>
<path d="M55.651 29.5365H55.2187C55.1927 29.2761 55.1146 29.0209 54.974 28.7709H55.651V29.5365ZM54.3958 30.9323L42.7969 28.4323L42.9583 27.6823L54.5573 30.1823L54.3958 30.9323ZM43.7865 29.5365V29.4167L44.3385 29.5365H43.7865ZM44.0312 24.7292C44.2969 25.0677 44.75 25.3698 45.2656 25.5313C45.849 25.7136 47.0208 25.875 48.526 25.0313L49.2552 25.6302L48.8698 26.1094C48.8073 26.1875 48.8177 26.3125 48.901 26.375C48.9323 26.4011 48.9792 26.4167 49.0208 26.4167C49.0729 26.4167 49.125 26.3906 49.1667 26.3438L49.5469 25.875L49.8854 26.1511L49.5052 26.625C49.4375 26.7031 49.4531 26.8229 49.5365 26.8906C49.5677 26.9167 49.6094 26.9323 49.651 26.9323C49.7083 26.9323 49.7604 26.9063 49.8021 26.8594L50.1771 26.3906L50.2917 26.4844C50.375 26.5521 50.4583 26.6198 50.5417 26.6823L50.1875 27.1302C50.1198 27.2136 50.1354 27.3281 50.2135 27.3959C50.25 27.4219 50.2917 27.4375 50.3333 27.4375C50.3854 27.4375 50.4427 27.4115 50.4792 27.3646L50.8542 26.9063C51.349 27.2396 51.8646 27.5156 52.4062 27.7136C53.5625 28.1406 54.224 28.8073 54.4167 29.3802L43.1302 26.9479C43.3021 26.2084 43.7344 25.2344 44.0312 24.7292ZM47.3854 23.6459C47.1771 23.4584 47.0781 23.1979 47.1615 23.0261C47.1927 22.9636 47.2448 22.9219 47.3229 22.9063C47.3542 22.9011 47.3802 22.8959 47.4115 22.8959C47.5469 22.8959 47.7031 22.9584 47.8333 23.0677C47.9531 23.1615 48.0521 23.2865 48.1406 23.4479C48.2448 23.6354 48.3229 23.8333 48.3854 24.0573C48.1615 24.0156 47.9583 23.9584 47.7656 23.8802C47.6146 23.8125 47.4896 23.7396 47.3854 23.6459ZM48.974 23.3906C49.0312 23.2292 49.099 23.1042 49.1823 22.9948C49.3229 22.8177 49.5156 22.7136 49.6771 22.7136C49.7135 22.7136 49.7552 22.7188 49.7917 22.7292C49.8542 22.7604 49.8958 22.8125 49.9219 22.8906C49.9635 23.0365 49.9115 23.2344 49.7917 23.4063C49.7031 23.5313 49.5885 23.6354 49.4323 23.7344C49.25 23.849 49.0573 23.9479 48.8385 24.0156C48.8594 23.7917 48.9062 23.5886 48.974 23.3906ZM55.3854 28.0156H54.3698C53.9375 27.6146 53.3594 27.2604 52.6719 27.0052C52.224 26.8386 51.7917 26.6198 51.3854 26.349C51.9375 26.5781 52.5052 26.7344 53.0781 26.8177C54.2917 26.9896 55.0781 27.5 55.3854 28.0156ZM56.2865 28.3542C56.1823 27.25 54.9427 26.3229 53.1875 26.0677C52.474 25.9688 51.7708 25.7396 51.0937 25.3906L49.0573 24.3386C49.2656 24.2604 49.4583 24.1667 49.6354 24.0521C49.8281 23.9271 49.9792 23.7865 50.099 23.625C50.2917 23.3646 50.3594 23.0469 50.2812 22.7865C50.2292 22.5938 50.1042 22.4531 49.9323 22.3802C49.599 22.25 49.1719 22.4011 48.8854 22.7656C48.776 22.9011 48.6875 23.0677 48.6198 23.2656C48.599 23.3281 48.5781 23.3854 48.5625 23.4479C48.5312 23.3854 48.5052 23.3229 48.4687 23.2604C48.3594 23.0625 48.2292 22.9011 48.0729 22.7761C47.8229 22.5677 47.5104 22.4792 47.2448 22.5365C47.0521 22.5781 46.901 22.6979 46.8177 22.8646C46.6615 23.1875 46.7917 23.625 47.1354 23.9271C47.2656 24.0469 47.4271 24.1459 47.6198 24.2292C47.7812 24.2969 47.9479 24.349 48.125 24.3906C46.9531 25.0417 46.0521 24.9844 45.4896 24.8073C44.9375 24.6354 44.6198 24.3073 44.5417 24.1302C44.4687 23.9531 44.3021 23.8281 44.1094 23.8021C43.9115 23.7761 43.724 23.8542 43.599 24.0104C43.224 24.4844 42.3958 26.2188 42.3125 27.2969C42.2708 27.3698 42.2344 27.4427 42.2187 27.5209L42.0573 28.2709C41.9687 28.6771 42.2292 29.0834 42.6406 29.1667L43.0312 29.2552V29.5365C43.0312 29.9531 43.3698 30.2917 43.7865 30.2917H47.8437L54.2344 31.6719C54.6406 31.7604 55.0469 31.5 55.1302 31.0938L55.2917 30.3386C55.2969 30.3229 55.2969 30.3073 55.3021 30.2917H55.651C56.0677 30.2917 56.4062 29.9531 56.4062 29.5365V28.7709C56.4062 28.6146 56.3594 28.474 56.2865 28.3542Z" fill="black"/>
<path d="M112.604 18.2552C112.75 18.1771 112.87 18.0573 112.958 17.8906C113.047 17.7292 113.089 17.5312 113.089 17.3021C113.089 16.9531 113 16.6875 112.818 16.5052C112.635 16.3177 112.411 16.224 112.151 16.224C111.885 16.224 111.667 16.3177 111.49 16.5052C111.312 16.6875 111.224 16.9531 111.224 17.3021C111.224 17.6458 111.307 17.9115 111.484 18.099C111.656 18.2865 111.875 18.3802 112.135 18.3802C112.302 18.3802 112.458 18.3385 112.604 18.2552ZM111.193 18.9479C110.911 18.7917 110.693 18.5729 110.531 18.2865C110.37 18 110.292 17.6719 110.292 17.3021C110.292 16.9271 110.37 16.599 110.536 16.3177C110.698 16.0312 110.922 15.8125 111.208 15.6562C111.495 15.5 111.812 15.4219 112.161 15.4219C112.516 15.4219 112.828 15.5 113.115 15.6562C113.401 15.8125 113.625 16.0312 113.792 16.3177C113.953 16.599 114.036 16.9271 114.036 17.3021C114.036 17.6719 113.953 18 113.781 18.2865C113.615 18.5729 113.385 18.7917 113.099 18.9479C112.812 19.1042 112.49 19.1771 112.135 19.1771C111.786 19.1771 111.469 19.1042 111.193 18.9479Z" fill="black"/>
<path d="M117.984 15.4792V19.1198H117.057V18.6615C116.937 18.8177 116.786 18.9427 116.594 19.0313C116.401 19.1198 116.198 19.1667 115.974 19.1667C115.687 19.1667 115.437 19.1094 115.219 18.9896C115 18.8646 114.828 18.6875 114.703 18.4531C114.578 18.2188 114.516 17.9427 114.516 17.6146V15.4792H115.438V17.4844C115.438 17.7761 115.51 17.9948 115.651 18.1511C115.797 18.3073 115.995 18.3854 116.245 18.3854C116.5 18.3854 116.698 18.3073 116.844 18.1511C116.984 17.9948 117.057 17.7761 117.057 17.4844V15.4792" fill="black"/>
<path d="M164.849 18.2552C164.995 18.1771 165.115 18.0573 165.203 17.8906C165.292 17.7292 165.333 17.5312 165.333 17.3021C165.333 16.9531 165.245 16.6875 165.062 16.5052C164.88 16.3177 164.656 16.224 164.396 16.224C164.13 16.224 163.911 16.3177 163.734 16.5052C163.552 16.6875 163.469 16.9531 163.469 17.3021C163.469 17.6458 163.552 17.9115 163.729 18.099C163.901 18.2865 164.12 18.3802 164.38 18.3802C164.547 18.3802 164.703 18.3385 164.849 18.2552ZM163.432 18.9479C163.156 18.7917 162.932 18.5729 162.771 18.2865C162.615 18 162.536 17.6719 162.536 17.3021C162.536 16.9271 162.615 16.599 162.781 16.3177C162.943 16.0312 163.167 15.8125 163.453 15.6562C163.74 15.5 164.057 15.4219 164.406 15.4219C164.755 15.4219 165.073 15.5 165.359 15.6562C165.646 15.8125 165.87 16.0312 166.031 16.3177C166.198 16.599 166.281 16.9271 166.281 17.3021C166.281 17.6719 166.198 18 166.026 18.2865C165.859 18.5729 165.63 18.7917 165.344 18.9479C165.057 19.1042 164.734 19.1771 164.38 19.1771C164.031 19.1771 163.714 19.1042 163.432 18.9479Z" fill="black"/>
<path d="M170.229 15.4792V19.1198H169.302V18.6615C169.182 18.8177 169.031 18.9427 168.839 19.0313C168.646 19.1198 168.443 19.1667 168.219 19.1667C167.932 19.1667 167.682 19.1094 167.464 18.9896C167.245 18.8646 167.073 18.6875 166.948 18.4531C166.823 18.2188 166.76 17.9427 166.76 17.6146V15.4792H167.682V17.4844C167.682 17.7761 167.75 17.9948 167.896 18.1511C168.042 18.3073 168.24 18.3854 168.49 18.3854C168.745 18.3854 168.943 18.3073 169.089 18.1511C169.229 17.9948 169.302 17.7761 169.302 17.4844V15.4792" fill="black"/>
<path d="M195.516 21.3698H191.312C191.219 21.3698 191.13 21.3333 191.057 21.2761L187.995 18.6302C187.927 18.5677 187.839 18.5365 187.75 18.5365H186.385V16.7031H189.505C189.922 16.7031 190.328 16.8698 190.62 17.1615L192.849 19.3958C192.948 19.4948 193 19.625 192.995 19.7708C192.995 19.8021 192.99 19.8333 192.984 19.8698C192.979 19.875 192.979 19.8854 192.979 19.8906C192.953 19.9844 192.901 20.0677 192.823 20.1302C192.63 20.3021 192.312 20.2813 192.12 20.0886L190.453 18.4271C190.307 18.2761 190.068 18.2761 189.917 18.4271C189.771 18.5729 189.771 18.8125 189.917 18.9583L191.583 20.6198C192.062 21.1042 192.828 21.1354 193.323 20.7031C193.437 20.599 193.531 20.4844 193.599 20.3542L195.542 20.3646C195.687 20.3646 195.818 20.4167 195.911 20.5208C196.01 20.625 196.052 20.7604 196.047 20.9011C196.031 21.1563 195.792 21.3698 195.516 21.3698ZM195.547 19.6042L193.745 19.599C193.708 19.3229 193.583 19.0625 193.385 18.8594L191.151 16.625C190.719 16.1927 190.12 15.9427 189.505 15.9427H186.01C185.802 15.9427 185.63 16.1146 185.63 16.3229V18.9167C185.63 19.125 185.802 19.2917 186.01 19.2917H187.604L190.562 21.8438C190.771 22.0261 191.036 22.125 191.312 22.125H195.516C196.193 22.125 196.76 21.6094 196.802 20.9479C196.823 20.599 196.703 20.2604 196.464 20.0052C196.229 19.75 195.891 19.6042 195.547 19.6042Z" fill="black"/>
<path d="M191.729 13.0781C191.932 12.5052 192.339 12.1563 192.833 12.1146C192.865 12.1146 192.896 12.1146 192.922 12.1146C193.401 12.1146 193.859 12.4011 194.099 12.8594C194.167 12.9844 194.297 13.0573 194.437 13.0573C194.578 13.0573 194.703 12.9844 194.771 12.8594C195.031 12.3698 195.531 12.0781 196.036 12.1146C196.536 12.1563 196.937 12.5052 197.141 13.0781C197.635 14.4636 195.687 16.125 194.437 16.9167C193.187 16.125 191.24 14.4636 191.729 13.0781ZM194.245 17.6823C194.302 17.7188 194.37 17.7396 194.437 17.7396C194.505 17.7396 194.568 17.7188 194.63 17.6823C195.047 17.4375 198.693 15.1875 197.854 12.8229C197.552 11.9688 196.896 11.4219 196.094 11.3646C195.474 11.3177 194.865 11.5729 194.437 12.0313C194.005 11.5729 193.401 11.3177 192.781 11.3646C191.979 11.4219 191.318 11.9688 191.016 12.8229C190.177 15.1875 193.823 17.4375 194.245 17.6823Z" fill="black"/>
<path d="M148.87 22.9948H145.776L145.344 21.1615H149.307L148.87 22.9948ZM149.75 20.8073C149.714 20.7552 149.646 20.724 149.583 20.724H145.234L145.01 19.7552C144.984 19.6615 144.896 19.5886 144.797 19.5886H143.734C143.615 19.5886 143.516 19.6875 143.516 19.8073C143.516 19.9271 143.615 20.0261 143.734 20.0261H144.625L144.854 20.9948L145.391 23.2656C145.411 23.3594 145.505 23.4323 145.604 23.4323H149.042C149.146 23.4323 149.234 23.3594 149.255 23.2656L149.792 20.9948C149.807 20.9271 149.792 20.8594 149.75 20.8073Z" fill="black"/>
<path d="M146.245 23.7761C145.953 23.7761 145.714 24.0156 145.714 24.3073C145.714 24.5938 145.953 24.8334 146.245 24.8334C146.531 24.8334 146.771 24.5938 146.771 24.3073C146.771 24.0156 146.531 23.7761 146.245 23.7761Z" fill="black"/>
<path d="M148.406 23.7761C148.115 23.7761 147.875 24.0156 147.875 24.3073C147.875 24.5938 148.115 24.8334 148.406 24.8334C148.698 24.8334 148.932 24.5938 148.932 24.3073C148.932 24.0156 148.698 23.7761 148.406 23.7761Z" fill="black"/>
<path d="M135.432 12.1354H137.052L136.505 15.1354H134.302L135.432 12.1354ZM146.49 15.1354H144.302L143.75 12.1354H145.359L146.49 15.1354ZM144.786 15.8646H146.599C146.469 16.2396 146.109 16.5052 145.693 16.5052C145.271 16.5052 144.917 16.2396 144.786 15.8646ZM143.042 16.5052C142.625 16.5052 142.271 16.2396 142.135 15.8646H143.953C143.818 16.2396 143.464 16.5052 143.042 16.5052ZM140.396 16.5052C139.979 16.5052 139.62 16.2396 139.49 15.8646H141.302C141.172 16.2396 140.818 16.5052 140.396 16.5052ZM137.75 16.5052C137.328 16.5052 136.974 16.2396 136.844 15.8646H138.656C138.526 16.2396 138.172 16.5052 137.75 16.5052ZM139.099 15.1354L139.313 12.1354H141.49L141.703 15.1354H139.099ZM135.104 16.5052C134.682 16.5052 134.328 16.2396 134.193 15.8646H136.01C135.875 16.2396 135.521 16.5052 135.104 16.5052ZM142.318 19.3542H140.729V22.0469H140.068V19.3542H138.474V22.0469H135.052V17.2292C135.068 17.2292 135.083 17.2344 135.104 17.2344C135.641 17.2344 136.12 16.9792 136.427 16.5886C136.734 16.9792 137.214 17.2344 137.75 17.2344C138.286 17.2344 138.766 16.9792 139.073 16.5886C139.38 16.9792 139.859 17.2344 140.396 17.2344C140.932 17.2344 141.411 16.9792 141.719 16.5886C142.031 16.9792 142.51 17.2344 143.042 17.2344C143.578 17.2344 144.057 16.9792 144.37 16.5886C144.677 16.9792 145.156 17.2344 145.693 17.2344C145.766 17.2344 145.844 17.224 145.911 17.2188V19.5833H146.641V16.9427C147.083 16.6406 147.38 16.125 147.38 15.5469C147.38 15.5365 147.375 15.5313 147.375 15.5208C147.38 15.4688 147.375 15.4219 147.354 15.375L145.953 11.6458C145.901 11.5052 145.766 11.4115 145.615 11.4115H135.182C135.031 11.4115 134.896 11.5052 134.844 11.6458L133.438 15.375C133.422 15.4219 133.417 15.4688 133.417 15.5208C133.417 15.5313 133.417 15.5365 133.417 15.5469C133.417 16.1979 133.786 16.7604 134.328 17.0417V22.4115C134.328 22.6094 134.49 22.7708 134.688 22.7708H143.51V22.0469H142.318" fill="black"/>
<path d="M89.0104 18.9896H90.2031V18.4844H89.0104V18.9896Z" fill="black"/>
<path d="M85.0573 12.5208L86.1979 11.25L87.6458 12.7083V22.5573L85.0573 21.1927V12.5208ZM92.8333 11.0937L94.4531 12.7135V22.7292H88.3542V12.6458C88.3802 12.5312 88.3489 12.4114 88.2604 12.3229L87.0312 11.0937H92.8333ZM95.1562 12.5469C95.1562 12.5364 95.1562 12.5156 95.151 12.5C95.1458 12.4896 95.1406 12.4792 95.1406 12.4635C95.1354 12.4583 95.1354 12.4427 95.1302 12.4375C95.125 12.4219 95.1198 12.4114 95.1094 12.3958C95.1042 12.3906 95.1042 12.3802 95.0989 12.375C95.0833 12.3542 95.0729 12.3385 95.0521 12.3229L93.2292 10.4896C93.1614 10.4219 93.0729 10.3854 92.9739 10.3854H86.1823C86.1771 10.3854 86.1771 10.3854 86.1719 10.3854C86.1406 10.3854 86.1146 10.3906 86.0833 10.401L86.0677 10.4062C86.0417 10.4167 86.0208 10.4271 86 10.4375C85.9896 10.4427 85.9844 10.4427 85.9792 10.4479C85.9583 10.4635 85.9375 10.4844 85.9167 10.5L84.4427 12.151C84.3854 12.2135 84.3542 12.2969 84.3542 12.3854V21.4062C84.3542 21.5364 84.4219 21.6562 84.5417 21.7135L84.7031 21.8021V22.2812H85.6198L87.7292 23.3958C87.7812 23.4219 87.8385 23.4375 87.8906 23.4375C87.9062 23.4375 87.9219 23.4323 87.9375 23.4323C87.9583 23.4323 87.9792 23.4375 88 23.4375H88.3489V23.8177H89.2812V23.4375H93.5312V23.8177H94.4635V23.4375H94.8021C95 23.4375 95.1562 23.276 95.1562 23.0833V12.5729C95.1562 12.5625 95.1562 12.5573 95.1562 12.5469Z" fill="black"/>
<path d="M93.1042 13.4011V14.8906L92.099 13.9583H89.7136V13.4011H93.1042ZM89.3594 15.7136H93.4583C93.6563 15.7136 93.8125 15.5573 93.8125 15.3646V13.0469C93.8125 12.849 93.6563 12.6927 93.4583 12.6927H89.3594C89.1615 12.6927 89.0052 12.849 89.0052 13.0469V15.3646C89.0052 15.5573 89.1615 15.7136 89.3594 15.7136Z" fill="black"/>
<path d="M74.0365 27.7136C74.2188 27.3906 74.4635 27.1354 74.776 26.9531C75.0885 26.7709 75.4375 26.6823 75.8177 26.6823C76.2865 26.6823 76.6875 26.7917 77.0208 27.0156C77.3594 27.2344 77.599 27.5469 77.75 27.9531H77.2604C77.1406 27.6667 76.9583 27.4479 76.7135 27.2865C76.4635 27.125 76.1719 27.0469 75.8177 27.0469C75.5104 27.0469 75.2344 27.1198 74.9896 27.2604C74.7448 27.4063 74.5521 27.6146 74.4115 27.8854C74.2708 28.1511 74.1979 28.4636 74.1979 28.8229C74.1979 29.1771 74.2708 29.4896 74.4115 29.7604C74.5521 30.0261 74.7448 30.2344 74.9896 30.375C75.2344 30.5209 75.5104 30.5938 75.8177 30.5938C76.1719 30.5938 76.4635 30.5156 76.7135 30.3542C76.9583 30.1979 77.1406 29.9792 77.2604 29.6979H77.75C77.599 30.099 77.3542 30.4063 77.0208 30.6302C76.6823 30.849 76.2865 30.9584 75.8177 30.9584C75.4375 30.9584 75.0885 30.8646 74.776 30.6875C74.4635 30.5052 74.2188 30.25 74.0365 29.9271C73.8594 29.6042 73.7656 29.2344 73.7656 28.8229C73.7656 28.4115 73.8594 28.0417 74.0365 27.7136Z" fill="black"/>
<path d="M81.0989 30.3802C81.3489 30.2396 81.5417 30.0313 81.6875 29.7604C81.8333 29.4896 81.901 29.1771 81.901 28.8229C81.901 28.4636 81.8333 28.1563 81.6875 27.8854C81.5417 27.6198 81.3489 27.4115 81.0989 27.2709C80.8489 27.125 80.5729 27.0521 80.2604 27.0521C79.9479 27.0521 79.6667 27.125 79.4219 27.2709C79.1719 27.4115 78.9739 27.6198 78.8333 27.8854C78.6875 28.1563 78.6146 28.4636 78.6146 28.8229C78.6146 29.1771 78.6875 29.4896 78.8333 29.7604C78.9739 30.0313 79.1719 30.2396 79.4219 30.3802C79.6667 30.5261 79.9479 30.599 80.2604 30.599C80.5729 30.599 80.8489 30.5261 81.0989 30.3802ZM79.2031 30.6927C78.8854 30.5104 78.6406 30.2552 78.4583 29.9271C78.276 29.6042 78.1823 29.2344 78.1823 28.8229C78.1823 28.4115 78.276 28.0417 78.4583 27.7136C78.6406 27.3906 78.8854 27.1354 79.2031 26.9531C79.5208 26.7709 79.8698 26.6823 80.2604 26.6823C80.651 26.6823 81.0052 26.7709 81.3229 26.9531C81.6354 27.1354 81.8854 27.3906 82.0677 27.7136C82.2448 28.0417 82.3333 28.4115 82.3333 28.8229C82.3333 29.2344 82.2448 29.6042 82.0677 29.9271C81.8854 30.2552 81.6354 30.5104 81.3229 30.6927C81.0052 30.875 80.651 30.9636 80.2604 30.9636C79.8698 30.9636 79.5208 30.875 79.2031 30.6927Z" fill="black"/>
<path d="M86.0573 30.9219H85.6354L83.3125 27.3959V30.9219H82.8958V26.7292H83.3125L85.6354 30.25V26.7292H86.0573" fill="black"/>
<path d="M89.2552 26.7292V27.0781H88.0885V30.9219H87.6719V27.0781H86.5V26.7292" fill="black"/>
<path d="M90.1302 27.0729V28.6354H91.7188V28.9844H90.1302V30.5729H91.9011V30.9219H89.7083V26.7188H91.9011V27.0729" fill="black"/>
<path d="M95.6771 30.9219H95.2604L92.9375 27.3959V30.9219H92.5156V26.7292H92.9375L95.2604 30.25V26.7292H95.6771" fill="black"/>
<path d="M96.8438 27.0729V28.6354H98.4323V28.9844H96.8438V30.5729H98.6146V30.9219H96.4219V26.7188H98.6146V27.0729" fill="black"/>
<path d="M99.6302 26.7292V29.3698C99.6302 29.7865 99.7292 30.0938 99.9323 30.2917C100.13 30.4896 100.401 30.5938 100.745 30.5938C101.089 30.5938 101.354 30.4948 101.547 30.2969C101.745 30.0938 101.839 29.7865 101.839 29.3698V26.7292H102.26V29.3646C102.26 29.8959 102.12 30.2969 101.839 30.5625C101.552 30.8281 101.187 30.9636 100.734 30.9636C100.286 30.9636 99.9167 30.8281 99.6354 30.5625C99.3542 30.2969 99.2135 29.8959 99.2135 29.3646V26.7292" fill="black"/>
<path d="M103.406 28.8281H104.255C104.583 28.8281 104.828 28.7448 104.995 28.5886C105.156 28.4271 105.245 28.2136 105.245 27.9479C105.245 27.6719 105.161 27.4584 105.005 27.3073C104.844 27.1563 104.594 27.0834 104.245 27.0834H103.406V28.8281ZM105.219 30.9219L104.182 29.1719H103.406V30.9219H102.99V26.7292H104.245C104.714 26.7292 105.068 26.8386 105.313 27.0625C105.552 27.2865 105.677 27.5834 105.677 27.9479C105.677 28.25 105.589 28.5104 105.417 28.724C105.24 28.9375 104.984 29.0781 104.641 29.1406L105.724 30.9219" fill="black"/>
<path d="M115.193 26.7812V30.9219H114.776V27.6146L113.297 30.9219H112.99L111.516 27.6302V30.9219H111.094V26.7812H111.542L113.141 30.3698L114.745 26.7812" fill="black"/>
<path d="M118.24 29.5781L117.411 27.3125L116.589 29.5781H118.24ZM118.37 29.9271H116.458L116.094 30.9219H115.651L117.182 26.7812H117.656L119.177 30.9219H118.734" fill="black"/>
<path d="M122.943 27.9531C122.823 27.6771 122.635 27.4584 122.391 27.3021C122.146 27.1459 121.859 27.0625 121.526 27.0625C121.214 27.0625 120.932 27.1354 120.687 27.2813C120.437 27.4219 120.24 27.6302 120.099 27.8959C119.953 28.1615 119.88 28.4688 119.88 28.8229C119.88 29.1771 119.953 29.4844 120.099 29.75C120.24 30.0209 120.437 30.224 120.687 30.3698C120.932 30.5156 121.214 30.5886 121.526 30.5886C121.818 30.5886 122.078 30.5261 122.312 30.3959C122.547 30.2709 122.734 30.0886 122.875 29.8594C123.021 29.625 123.099 29.349 123.12 29.0365H121.359V28.6979H123.562V29C123.547 29.3698 123.443 29.7031 123.266 30C123.083 30.3021 122.844 30.5365 122.542 30.7031C122.24 30.875 121.901 30.9636 121.526 30.9636C121.135 30.9636 120.786 30.8698 120.469 30.6927C120.151 30.5104 119.901 30.2552 119.724 29.9271C119.542 29.6042 119.448 29.2344 119.448 28.8229C119.448 28.4115 119.542 28.0417 119.724 27.7136C119.901 27.3906 120.151 27.1354 120.469 26.9531C120.786 26.7709 121.135 26.6823 121.526 26.6823C121.969 26.6823 122.365 26.7917 122.698 27.0156C123.036 27.2396 123.281 27.5521 123.432 27.9531" fill="black"/>
<path d="M126.427 29.5781L125.599 27.3125L124.771 29.5781H126.427ZM126.552 29.9271H124.646L124.281 30.9219H123.833L125.365 26.7812H125.839L127.365 30.9219H126.917" fill="black"/>
<path d="M128.37 30.8229C128.156 30.724 127.995 30.5886 127.875 30.4167C127.755 30.2448 127.687 30.0521 127.682 29.8438H128.125C128.146 30.0469 128.234 30.224 128.396 30.3802C128.552 30.5313 128.786 30.6094 129.099 30.6094C129.38 30.6094 129.609 30.5365 129.771 30.3906C129.937 30.2448 130.021 30.0625 130.021 29.8386C130.021 29.6563 129.974 29.5104 129.88 29.4011C129.792 29.2917 129.677 29.2084 129.542 29.1563C129.406 29.099 129.219 29.0417 128.979 28.9792C128.698 28.9011 128.474 28.8281 128.312 28.7552C128.146 28.6823 128.005 28.5729 127.891 28.4219C127.776 28.2709 127.719 28.0625 127.719 27.8021C127.719 27.5886 127.776 27.3959 127.885 27.224C127.995 27.0521 128.156 26.9219 128.359 26.8229C128.562 26.7292 128.797 26.6823 129.062 26.6823C129.448 26.6823 129.76 26.7761 130 26.9636C130.24 27.1563 130.375 27.4011 130.411 27.7031H129.953C129.927 27.5261 129.833 27.375 129.672 27.2396C129.51 27.1094 129.297 27.0417 129.026 27.0417C128.776 27.0417 128.562 27.1094 128.396 27.2396C128.229 27.375 128.141 27.5573 128.141 27.7917C128.141 27.9636 128.187 28.1094 128.281 28.2188C128.375 28.3229 128.49 28.4063 128.625 28.4636C128.766 28.5156 128.953 28.5781 129.187 28.6406C129.458 28.7188 129.677 28.7917 129.849 28.8698C130.016 28.9427 130.156 29.0521 130.276 29.2084C130.391 29.3594 130.448 29.5625 130.448 29.8177C130.448 30.0156 130.396 30.2031 130.292 30.375C130.187 30.5521 130.031 30.6927 129.828 30.8021C129.625 30.9115 129.38 30.9636 129.099 30.9636C128.823 30.9636 128.578 30.9167 128.37 30.8229Z" fill="black"/>
<path d="M131.047 30.9219H131.464V26.7292H131.047V30.9219Z" fill="black"/>
<path d="M135.37 30.9219H134.953L132.63 27.3959V30.9219H132.208V26.7292H132.63L134.953 30.25V26.7292H135.37" fill="black"/>
<path d="M140.875 26.7292L139.286 30.9219H138.807L137.214 26.7292H137.672L139.047 30.4688L140.432 26.7292" fill="black"/>
<path d="M144.021 30.3802C144.266 30.2396 144.464 30.0313 144.604 29.7604C144.75 29.4896 144.823 29.1771 144.823 28.8229C144.823 28.4636 144.75 28.1563 144.604 27.8854C144.464 27.6198 144.266 27.4115 144.021 27.2709C143.771 27.125 143.49 27.0521 143.177 27.0521C142.865 27.0521 142.589 27.125 142.339 27.2709C142.089 27.4115 141.896 27.6198 141.75 27.8854C141.604 28.1563 141.536 28.4636 141.536 28.8229C141.536 29.1771 141.604 29.4896 141.75 29.7604C141.896 30.0313 142.089 30.2396 142.339 30.3802C142.589 30.5261 142.865 30.599 143.177 30.599C143.49 30.599 143.771 30.5261 144.021 30.3802ZM142.125 30.6927C141.807 30.5104 141.557 30.2552 141.375 29.9271C141.193 29.6042 141.099 29.2344 141.099 28.8229C141.099 28.4115 141.193 28.0417 141.375 27.7136C141.557 27.3906 141.807 27.1354 142.125 26.9531C142.437 26.7709 142.792 26.6823 143.177 26.6823C143.573 26.6823 143.922 26.7709 144.24 26.9531C144.557 27.1354 144.802 27.3906 144.984 27.7136C145.161 28.0417 145.255 28.4115 145.255 28.8229C145.255 29.2344 145.161 29.6042 144.984 29.9271C144.802 30.2552 144.557 30.5104 144.24 30.6927C143.922 30.875 143.573 30.9636 143.177 30.9636C142.792 30.9636 142.437 30.875 142.125 30.6927Z" fill="black"/>
<path d="M146.234 30.5781H147.74V30.9219H145.812V26.7292H146.234" fill="black"/>
<path d="M150.854 30.3802C151.099 30.2396 151.297 30.0313 151.438 29.7604C151.583 29.4896 151.656 29.1771 151.656 28.8229C151.656 28.4636 151.583 28.1563 151.438 27.8854C151.297 27.6198 151.099 27.4115 150.854 27.2709C150.604 27.125 150.323 27.0521 150.016 27.0521C149.703 27.0521 149.422 27.125 149.172 27.2709C148.927 27.4115 148.729 27.6198 148.583 27.8854C148.438 28.1563 148.37 28.4636 148.37 28.8229C148.37 29.1771 148.438 29.4896 148.583 29.7604C148.729 30.0313 148.927 30.2396 149.172 30.3802C149.422 30.5261 149.703 30.599 150.016 30.599C150.323 30.599 150.604 30.5261 150.854 30.3802ZM148.958 30.6927C148.641 30.5104 148.391 30.2552 148.208 29.9271C148.026 29.6042 147.938 29.2344 147.938 28.8229C147.938 28.4115 148.026 28.0417 148.208 27.7136C148.391 27.3906 148.641 27.1354 148.958 26.9531C149.271 26.7709 149.625 26.6823 150.016 26.6823C150.406 26.6823 150.76 26.7709 151.073 26.9531C151.391 27.1354 151.641 27.3906 151.818 27.7136C152 28.0417 152.089 28.4115 152.089 28.8229C152.089 29.2344 152 29.6042 151.818 29.9271C151.641 30.2552 151.391 30.5104 151.073 30.6927C150.76 30.875 150.406 30.9636 150.016 30.9636C149.625 30.9636 149.271 30.875 148.958 30.6927Z" fill="black"/>
<path d="M155.807 30.9219H155.391L153.068 27.3959V30.9219H152.646V26.7292H153.068L155.391 30.25V26.7292H155.807" fill="black"/>
<path d="M159.005 26.7292V27.0781H157.844V30.9219H157.422V27.0781H156.25V26.7292" fill="black"/>
<path d="M161.766 29.5781L160.937 27.3125L160.109 29.5781H161.766ZM161.896 29.9271H159.984L159.62 30.9219H159.177L160.703 26.7812H161.182L162.703 30.9219H162.26" fill="black"/>
<path d="M163.167 30.9219H163.583V26.7292H163.167V30.9219Z" fill="black"/>
<path d="M164.75 28.8281H165.594C165.922 28.8281 166.167 28.7448 166.333 28.5886C166.5 28.4271 166.583 28.2136 166.583 27.9479C166.583 27.6719 166.505 27.4584 166.344 27.3073C166.182 27.1563 165.932 27.0834 165.589 27.0834H164.75V28.8281ZM166.562 30.9219L165.521 29.1719H164.75V30.9219H164.328V26.7292H165.589C166.057 26.7292 166.411 26.8386 166.651 27.0625C166.896 27.2865 167.016 27.5834 167.016 27.9479C167.016 28.25 166.927 28.5104 166.755 28.724C166.583 28.9375 166.323 29.0781 165.984 29.1406L167.062 30.9219" fill="black"/>
<path d="M168.062 27.0729V28.6354H169.646V28.9844H168.062V30.5729H169.828V30.9219H167.641V26.7188H169.828V27.0729" fill="black"/>
<path d="M177.594 29.5781L176.766 27.3125L175.938 29.5781H177.594ZM177.719 29.9271H175.807L175.443 30.9219H175L176.531 26.7812H177.005L178.526 30.9219H178.083" fill="black"/>
<path d="M179.531 30.8229C179.323 30.724 179.156 30.5886 179.036 30.4167C178.917 30.2448 178.854 30.0521 178.844 29.8438H179.292C179.307 30.0469 179.401 30.224 179.562 30.3802C179.719 30.5313 179.953 30.6094 180.26 30.6094C180.547 30.6094 180.771 30.5365 180.938 30.3906C181.104 30.2448 181.188 30.0625 181.188 29.8386C181.188 29.6563 181.141 29.5104 181.047 29.4011C180.953 29.2917 180.844 29.2084 180.703 29.1563C180.568 29.099 180.38 29.0417 180.141 28.9792C179.859 28.9011 179.641 28.8281 179.474 28.7552C179.312 28.6823 179.172 28.5729 179.057 28.4219C178.937 28.2709 178.88 28.0625 178.88 27.8021C178.88 27.5886 178.938 27.3959 179.047 27.224C179.161 27.0521 179.318 26.9219 179.521 26.8229C179.729 26.7292 179.964 26.6823 180.229 26.6823C180.615 26.6823 180.927 26.7761 181.167 26.9636C181.401 27.1563 181.542 27.4011 181.573 27.7031H181.12C181.094 27.5261 180.995 27.375 180.839 27.2396C180.677 27.1094 180.464 27.0417 180.188 27.0417C179.938 27.0417 179.729 27.1094 179.562 27.2396C179.391 27.375 179.307 27.5573 179.307 27.7917C179.307 27.9636 179.354 28.1094 179.448 28.2188C179.536 28.3229 179.651 28.4063 179.792 28.4636C179.927 28.5156 180.115 28.5781 180.349 28.6406C180.625 28.7188 180.844 28.7917 181.01 28.8698C181.177 28.9427 181.323 29.0521 181.438 29.2084C181.552 29.3594 181.615 29.5625 181.615 29.8177C181.615 30.0156 181.562 30.2031 181.453 30.375C181.349 30.5521 181.198 30.6927 180.995 30.8021C180.792 30.9115 180.547 30.9636 180.26 30.9636C179.984 30.9636 179.745 30.9167 179.531 30.8229Z" fill="black"/>
<path d="M182.755 30.8229C182.547 30.724 182.38 30.5886 182.26 30.4167C182.141 30.2448 182.073 30.0521 182.068 29.8438H182.51C182.531 30.0469 182.62 30.224 182.781 30.3802C182.943 30.5313 183.177 30.6094 183.484 30.6094C183.766 30.6094 183.995 30.5365 184.156 30.3906C184.323 30.2448 184.406 30.0625 184.406 29.8386C184.406 29.6563 184.359 29.5104 184.271 29.4011C184.177 29.2917 184.062 29.2084 183.927 29.1563C183.792 29.099 183.604 29.0417 183.365 28.9792C183.083 28.9011 182.859 28.8281 182.698 28.7552C182.531 28.6823 182.396 28.5729 182.281 28.4219C182.161 28.2709 182.104 28.0625 182.104 27.8021C182.104 27.5886 182.161 27.3959 182.271 27.224C182.385 27.0521 182.542 26.9219 182.745 26.8229C182.948 26.7292 183.182 26.6823 183.448 26.6823C183.839 26.6823 184.146 26.7761 184.385 26.9636C184.625 27.1563 184.76 27.4011 184.797 27.7031H184.344C184.312 27.5261 184.219 27.375 184.062 27.2396C183.901 27.1094 183.682 27.0417 183.411 27.0417C183.161 27.0417 182.948 27.1094 182.781 27.2396C182.615 27.375 182.531 27.5573 182.531 27.7917C182.531 27.9636 182.573 28.1094 182.667 28.2188C182.76 28.3229 182.875 28.4063 183.01 28.4636C183.151 28.5156 183.339 28.5781 183.573 28.6406C183.844 28.7188 184.068 28.7917 184.234 28.8698C184.401 28.9427 184.542 29.0521 184.661 29.2084C184.776 29.3594 184.833 29.5625 184.833 29.8177C184.833 30.0156 184.781 30.2031 184.677 30.375C184.573 30.5521 184.422 30.6927 184.214 30.8021C184.01 30.9115 183.766 30.9636 183.484 30.9636C183.208 30.9636 182.964 30.9167 182.755 30.8229Z" fill="black"/>
<path d="M188.156 30.3802C188.406 30.2396 188.599 30.0313 188.745 29.7604C188.891 29.4896 188.964 29.1771 188.964 28.8229C188.964 28.4636 188.891 28.1563 188.745 27.8854C188.599 27.6198 188.406 27.4115 188.156 27.2709C187.906 27.125 187.63 27.0521 187.318 27.0521C187.005 27.0521 186.724 27.125 186.479 27.2709C186.229 27.4115 186.031 27.6198 185.891 27.8854C185.745 28.1563 185.672 28.4636 185.672 28.8229C185.672 29.1771 185.745 29.4896 185.891 29.7604C186.031 30.0313 186.229 30.2396 186.479 30.3802C186.724 30.5261 187.005 30.599 187.318 30.599C187.63 30.599 187.906 30.5261 188.156 30.3802ZM186.26 30.6927C185.948 30.5104 185.698 30.2552 185.516 29.9271C185.333 29.6042 185.24 29.2344 185.24 28.8229C185.24 28.4115 185.333 28.0417 185.516 27.7136C185.698 27.3906 185.948 27.1354 186.26 26.9531C186.578 26.7709 186.927 26.6823 187.318 26.6823C187.708 26.6823 188.062 26.7709 188.38 26.9531C188.693 27.1354 188.943 27.3906 189.125 27.7136C189.302 28.0417 189.396 28.4115 189.396 28.8229C189.396 29.2344 189.302 29.6042 189.125 29.9271C188.943 30.2552 188.693 30.5104 188.38 30.6927C188.062 30.875 187.708 30.9636 187.318 30.9636C186.927 30.9636 186.578 30.875 186.26 30.6927Z" fill="black"/>
<path d="M190.031 27.7136C190.208 27.3906 190.453 27.1354 190.766 26.9531C191.078 26.7709 191.427 26.6823 191.813 26.6823C192.281 26.6823 192.682 26.7917 193.016 27.0156C193.349 27.2344 193.589 27.5469 193.745 27.9531H193.25C193.13 27.6667 192.948 27.4479 192.703 27.2865C192.458 27.125 192.161 27.0469 191.813 27.0469C191.505 27.0469 191.224 27.1198 190.979 27.2604C190.734 27.4063 190.542 27.6146 190.401 27.8854C190.26 28.1511 190.193 28.4636 190.193 28.8229C190.193 29.1771 190.26 29.4896 190.401 29.7604C190.542 30.0261 190.734 30.2344 190.979 30.375C191.224 30.5209 191.505 30.5938 191.813 30.5938C192.161 30.5938 192.458 30.5156 192.703 30.3542C192.948 30.1979 193.13 29.9792 193.25 29.6979H193.745C193.589 30.099 193.349 30.4063 193.01 30.6302C192.677 30.849 192.276 30.9584 191.813 30.9584C191.427 30.9584 191.078 30.8646 190.766 30.6875C190.453 30.5052 190.208 30.25 190.031 29.9271C189.849 29.6042 189.76 29.2344 189.76 28.8229C189.76 28.4115 189.849 28.0417 190.031 27.7136Z" fill="black"/>
<path d="M194.37 30.9219H194.786V26.7292H194.37V30.9219Z" fill="black"/>
<path d="M197.833 29.5781L197.005 27.3125L196.177 29.5781H197.833ZM197.964 29.9271H196.052L195.688 30.9219H195.245L196.771 26.7812H197.25L198.771 30.9219H198.328" fill="black"/>
<path d="M201.688 26.7292V27.0781H200.521V30.9219H200.104V27.0781H198.932V26.7292" fill="black"/>
<path d="M202.146 30.9219H202.563V26.7292H202.146V30.9219Z" fill="black"/>
<path d="M206.031 30.3802C206.281 30.2396 206.474 30.0313 206.62 29.7604C206.76 29.4896 206.833 29.1771 206.833 28.8229C206.833 28.4636 206.76 28.1563 206.62 27.8854C206.474 27.6198 206.281 27.4115 206.031 27.2709C205.781 27.125 205.505 27.0521 205.193 27.0521C204.88 27.0521 204.599 27.125 204.349 27.2709C204.104 27.4115 203.906 27.6198 203.76 27.8854C203.62 28.1563 203.547 28.4636 203.547 28.8229C203.547 29.1771 203.62 29.4896 203.76 29.7604C203.906 30.0313 204.104 30.2396 204.349 30.3802C204.599 30.5261 204.88 30.599 205.193 30.599C205.505 30.599 205.781 30.5261 206.031 30.3802ZM204.135 30.6927C203.818 30.5104 203.568 30.2552 203.385 29.9271C203.203 29.6042 203.115 29.2344 203.115 28.8229C203.115 28.4115 203.203 28.0417 203.385 27.7136C203.568 27.3906 203.818 27.1354 204.135 26.9531C204.448 26.7709 204.802 26.6823 205.193 26.6823C205.583 26.6823 205.938 26.7709 206.25 26.9531C206.568 27.1354 206.818 27.3906 206.995 27.7136C207.177 28.0417 207.266 28.4115 207.266 28.8229C207.266 29.2344 207.177 29.6042 206.995 29.9271C206.818 30.2552 206.568 30.5104 206.25 30.6927C205.938 30.875 205.583 30.9636 205.193 30.9636C204.802 30.9636 204.448 30.875 204.135 30.6927Z" fill="black"/>
<path d="M210.984 30.9219H210.568L208.245 27.3959V30.9219H207.823V26.7292H208.245L210.568 30.25V26.7292H210.984" fill="black"/>
</g>
<defs>
<clipPath id="clip0_26_18655">
<rect width="215" height="37" fill="white"/>
</clipPath>
</defs>
</svg>
