<svg width="230" height="61" viewBox="0 0 230 61" fill="none" xmlns="http://www.w3.org/2000/svg">
<g clip-path="url(#clip0_50_3422)">
<path d="M24.6979 60.4688C11.0781 60.4688 0 49.5208 0 36.0625V0H204.948C218.563 0 229.641 10.9479 229.641 24.4063V60.4688" fill="white"/>
<path d="M204.948 5.66663H50.1145V36.0625C50.1145 46.3958 58.6458 54.802 69.1353 54.802H223.974V24.4062C223.974 14.0729 215.437 5.66663 204.948 5.66663Z" fill="white"/>
<path d="M222.083 52.9114H69.1353C59.6874 52.9114 51.9999 45.3541 51.9999 36.0625V7.55725H204.948C214.396 7.55725 222.083 15.1145 222.083 24.4062V52.9114ZM204.948 5.66663H50.1145V36.0625C50.1145 46.3958 58.6458 54.802 69.1353 54.802H223.969V24.4062C223.969 14.0729 215.437 5.66663 204.948 5.66663Z" fill="#FCC42F"/>
<path d="M166.714 54.802L179.724 28.2239L166.432 5.66663H204.948C215.437 5.66663 223.969 14.0729 223.969 24.4062V54.802" fill="#FCC42F"/>
<path d="M204.948 7.55725H169.74L181.87 28.1406L169.74 52.9114H222.083V24.4062C222.083 15.1145 214.396 7.55725 204.948 7.55725Z" fill="#FCC42F"/>
<path d="M209.906 41.3438H208.703C208.604 41.3438 208.51 41.3542 208.417 41.3698C208.979 35.1094 209.849 25.4532 210.266 21.0782C210.312 20.6303 209.984 20.2344 209.536 20.1928C209.083 20.1459 208.698 20.4792 208.656 20.9219C208.005 27.6407 206.302 46.823 206.286 47.0157C206.255 47.3438 205.937 47.6094 205.568 47.6094H192.474C192.104 47.6094 191.792 47.3438 191.76 47.0157C191.74 46.823 190.036 27.6407 189.391 20.9219C189.349 20.4792 188.958 20.1459 188.505 20.1928C188.057 20.2344 187.729 20.6303 187.776 21.0782C188.193 25.4532 189.062 35.1094 189.625 41.3698C189.531 41.349 189.437 41.3386 189.339 41.3386H188.141C187.359 41.3386 186.729 41.9688 186.729 42.7448V47.8178C186.729 48.599 187.359 49.2292 188.141 49.2292H189.339C189.922 49.2292 190.427 48.8698 190.635 48.3646C191.068 48.8959 191.729 49.2292 192.474 49.2292H205.568C206.312 49.2292 206.974 48.8959 207.406 48.3646C207.615 48.875 208.12 49.2344 208.703 49.2344H209.906C210.682 49.2344 211.312 48.599 211.312 47.823V42.75C211.312 41.974 210.682 41.3438 209.906 41.3438Z" fill="#1C1C1B"/>
<path d="M193.969 24.802V27.0937H194.641C195.031 27.0937 195.245 26.9114 195.245 26.3593V25.7083C195.245 25.0156 195.021 24.802 194.49 24.802H193.969ZM193.969 21.7604V23.7343H194.427C194.865 23.7343 195.13 23.5416 195.13 22.9479V22.5312C195.13 21.9948 194.948 21.7604 194.531 21.7604H193.969ZM196.302 22.4114V22.677C196.302 23.4479 196.068 23.927 195.547 24.1718V24.1927C196.172 24.4375 196.417 24.9948 196.417 25.7812V26.3906C196.417 27.5416 195.812 28.1562 194.641 28.1562H192.792V20.6979H194.562C195.776 20.6979 196.302 21.2604 196.302 22.4114Z" fill="#1C1C1B"/>
<path d="M198.458 25.7916H199.589L199.031 22.0156H199.01L198.458 25.7916ZM201.135 28.1562H199.948L199.75 26.802H198.307L198.104 28.1562H197.031L198.224 20.6979H199.938" fill="#1C1C1B"/>
<path d="M205.281 25.375V26.3646C205.281 27.5625 204.687 28.2448 203.536 28.2448C202.38 28.2448 201.786 27.5625 201.786 26.3646V22.4844C201.786 21.2917 202.38 20.6094 203.536 20.6094C204.687 20.6094 205.281 21.2917 205.281 22.4844V23.2083H204.172V22.4115C204.172 21.8802 203.937 21.6771 203.568 21.6771C203.193 21.6771 202.958 21.8802 202.958 22.4115V26.4427C202.958 26.974 203.193 27.1667 203.568 27.1667C203.937 27.1667 204.172 26.974 204.172 26.4427V25.375" fill="#1C1C1B"/>
<path d="M196.323 30.8855V36.2188H196.984C197.359 36.2188 197.583 36.0261 197.583 35.4896V31.6094C197.583 31.0782 197.359 30.8855 196.984 30.8855H196.323ZM195.151 29.8177H197.005C198.182 29.8177 198.755 30.4688 198.755 31.6667V35.4375C198.755 36.6355 198.182 37.2813 197.005 37.2813H195.151" fill="#1C1C1B"/>
<path d="M200.891 32.9635H202.5V34.0312H200.891V36.2187H202.917V37.2812H199.719V29.8229H202.917V30.8854H200.891" fill="#1C1C1B"/>
<path d="M193.786 38.9427H197.411V40.0105H196.187V46.4063H195.01V40.0105H193.786" fill="#1C1C1B"/>
<path d="M199.312 40.0105V42.3021H199.771C200.203 42.3021 200.474 42.1094 200.474 41.5157V40.7813C200.474 40.2448 200.292 40.0105 199.875 40.0105H199.312ZM200.589 46.4063C200.526 46.2136 200.484 46.099 200.484 45.4896V44.3177C200.484 43.625 200.25 43.3698 199.714 43.3698H199.312V46.4063H198.135V38.9427H199.906C201.125 38.9427 201.646 39.5105 201.646 40.6615V41.25C201.646 42.0157 201.396 42.5052 200.88 42.75V42.7709C201.464 43.0157 201.656 43.573 201.656 44.349V45.5C201.656 45.8646 201.667 46.1302 201.781 46.4063" fill="#1C1C1B"/>
<path d="M202.641 46.4063H203.813V38.9427H202.641V46.4063Z" fill="#1C1C1B"/>
<path d="M210.745 17.2969H187.297V15.349C187.297 15.2813 187.328 15.25 187.323 15.25H189.021C189.208 15.25 189.396 15.1771 189.542 15.0521L191.667 13.1927C191.76 13.1094 191.995 13.0208 192.286 13.0208H205.755C206.047 13.0208 206.281 13.1094 206.375 13.1927L208.5 15.0521C208.646 15.1771 208.833 15.25 209.026 15.25H210.719C210.714 15.25 210.745 15.2813 210.745 15.349V17.2969ZM210.719 13.6615H209.323L207.417 12C207.01 11.6406 206.406 11.4375 205.755 11.4375H192.286C191.641 11.4375 191.036 11.6406 190.625 12L188.719 13.6615H187.323C186.432 13.6615 185.714 14.4167 185.714 15.349V17.4896C185.714 17.7917 185.786 18.0833 185.932 18.3438C185.99 18.4531 186.078 18.5469 186.187 18.6198C186.443 18.7917 186.745 18.8802 187.052 18.8802H210.99C211.297 18.8802 211.599 18.7917 211.859 18.6198C211.964 18.5469 212.052 18.4531 212.109 18.3438C212.255 18.0833 212.328 17.7917 212.328 17.4896V15.349C212.328 14.4167 211.609 13.6615 210.719 13.6615Z" fill="#1C1C1B"/>
<path d="M205.75 13.7604H192.292C191.922 13.7604 191.62 14.0625 191.62 14.427C191.62 14.802 191.922 15.0989 192.292 15.0989H205.75C206.12 15.0989 206.422 14.802 206.422 14.427C206.422 14.0625 206.12 13.7604 205.75 13.7604Z" fill="#1C1C1B"/>
<path d="M102.901 5.66663H50.1145V36.0625C50.1145 46.3958 58.6458 54.802 69.1353 54.802H121.927V24.4062C121.927 14.0729 113.391 5.66663 102.901 5.66663Z" fill="#FCC42F"/>
<path d="M63.651 29.3594C58.8489 29.3594 54.9583 33.25 54.9583 38.0521C54.9583 42.8542 58.8489 46.7448 63.651 46.7448C68.4583 46.7448 72.3489 42.8542 72.3489 38.0521C72.3489 33.25 68.4583 29.3594 63.651 29.3594Z" fill="white"/>
<path d="M69.3229 39.4688H65.0729V43.7188H62.2344V39.4688H57.9844V36.6355H62.2344V32.3802H65.0729V36.6355H69.3229" fill="#1C1C1B"/>
<path d="M55.7864 26.5937V17.1979H58.2708V24.5156H61.828V26.5937" fill="#1C1C1B"/>
<path d="M62.9426 26.5937V17.1979H69.0155V19.276H65.4322V20.7552H68.4947V22.8385H65.4322V24.5156H69.1614V26.5937" fill="#1C1C1B"/>
<path d="M75.0885 26.5937V19.276H72.6041V17.1979H80.0677V19.276H77.5781V26.5937" fill="#1C1C1B"/>
<path d="M83.5521 21.4739H84.4479C85.4479 21.4739 85.9531 21.0625 85.9531 20.2343C85.9531 19.8281 85.8229 19.5468 85.5677 19.3958C85.3125 19.2395 84.9375 19.1614 84.4479 19.1614H83.5521V21.4739ZM81.0625 26.5989V17.1979H84.6198C85.125 17.1979 85.6042 17.2448 86.0625 17.3385C86.5208 17.4375 86.9167 17.5989 87.2604 17.8333C87.6042 18.0625 87.875 18.375 88.0781 18.7656C88.2813 19.1562 88.3802 19.6458 88.3802 20.2343C88.3802 20.9062 88.2448 21.4687 87.9688 21.9114C87.6979 22.3541 87.3281 22.6979 86.8646 22.9531L88.901 26.5989H86.125L84.5052 23.4427H83.5521V26.5989" fill="#1C1C1B"/>
<path d="M89.8698 26.5989H92.3593V17.1979H89.8698V26.5989Z" fill="#1C1C1B"/>
<path d="M75.3801 43.276V33.8698H81.5103V35.9531H77.8697V37.75H80.9895V39.8333H77.8697V43.276" fill="#1C1C1B"/>
<path d="M84.9218 38.7031L84.7604 39.3541H86.4948L86.3385 38.7031C86.2239 38.25 86.1041 37.7604 85.9895 37.2291C85.875 36.6979 85.7604 36.1979 85.6406 35.7239H85.5833C85.4791 36.2031 85.3698 36.7083 85.2604 37.2343C85.151 37.7604 85.0364 38.25 84.9218 38.7031ZM81.3073 43.276L84.1666 33.8698H87.1718L90.0364 43.276H87.4062L86.9427 41.276H84.3125L83.8489 43.276" fill="#1C1C1B"/>
<path d="M94.5624 43.4479C93.9687 43.4479 93.3958 43.3489 92.8541 43.151C92.3072 42.9531 91.8333 42.651 91.4218 42.2552C91.0103 41.8541 90.6822 41.3541 90.4426 40.75C90.203 40.1458 90.0833 39.4479 90.0833 38.6458C90.0833 37.8541 90.2083 37.151 90.4583 36.5416C90.7083 35.927 91.0416 35.4114 91.4635 34.9948C91.8801 34.5729 92.3645 34.25 92.9114 34.0312C93.4583 33.8073 94.026 33.6979 94.6249 33.6979C95.2499 33.6979 95.8124 33.8229 96.302 34.0677C96.7968 34.3125 97.2083 34.6041 97.5468 34.9427L96.2447 36.5312C96.0155 36.3333 95.776 36.1666 95.5312 36.0312C95.2812 35.9062 94.9999 35.8385 94.6822 35.8385C94.401 35.8385 94.1405 35.901 93.8958 36.026C93.651 36.151 93.4322 36.3333 93.2447 36.5625C93.0572 36.7916 92.9062 37.0781 92.7968 37.4166C92.6822 37.75 92.6301 38.1354 92.6301 38.5573C92.6301 39.4479 92.8124 40.125 93.1874 40.5989C93.5572 41.0677 94.0468 41.3073 94.651 41.3073C95.0208 41.3073 95.3437 41.2291 95.6301 41.0677C95.9114 40.9062 96.1562 40.7187 96.3593 40.4948L97.6614 42.0573C97.2551 42.5208 96.7916 42.8698 96.2655 43.0989C95.7395 43.3333 95.1718 43.4479 94.5624 43.4479Z" fill="#1C1C1B"/>
<path d="M98.6198 43.276H101.104V33.8698H98.6198V43.276Z" fill="#1C1C1B"/>
<path d="M102.875 43.276V33.8698H105.365V41.1927H108.922V43.276" fill="#1C1C1B"/>
<path d="M110.031 43.276V33.8698H116.109V35.9531H112.521V37.4323H115.589V39.5156H112.521V41.1927H116.255V43.276" fill="#1C1C1B"/>
<path d="M28.4062 25.7448C26.7135 28.2343 28.151 31.5104 29.8958 33.1718C31.4895 34.6823 32.7655 35.0364 32.9322 35.0781L33.7447 33.5208L36.0885 39.9323L29.4635 41.2812L30.3437 39.6458L29.4478 39.1458C26.6562 37.3281 26.0676 34.8593 25.8749 34.0885C25.5416 32.7604 25.0468 28.7864 28.4062 25.7448Z" fill="#1C1C1B"/>
<path d="M28.375 25.8489C29.5781 28.6093 33.1146 29.1406 35.4479 28.552C37.5208 28.026 38.5052 27.1718 38.6719 27.0156L38.6615 27L37.776 25.4635L44.4427 26.9218L42.0313 33.2395L41.1354 31.6458L40.2656 32.1198C37.2396 33.5104 34.8333 32.6927 34.0781 32.4427C32.7813 32.0156 29.1562 30.3125 28.375 25.8489Z" fill="#1C1C1B"/>
<path d="M40.1613 19.1927C39.6978 22.4895 37.7134 24.0729 37.0936 24.5729C36.0311 25.4375 32.6457 27.5677 28.4634 25.8177C31.4373 26.2916 33.7967 23.6041 34.5571 21.3177C35.2446 19.2656 35.0415 17.9687 34.9998 17.7708L34.979 17.7656L33.2134 17.6927L38.0259 12.8541L42.0519 18.2864L40.2342 18.1823" fill="#1C1C1B"/>
<path fill-rule="evenodd" clip-rule="evenodd" d="M19.9375 16.4115C18.4167 16.4115 17.1875 15.1823 17.1875 13.6563C17.1875 12.1354 18.4167 10.9062 19.9375 10.9062C21.4583 10.9062 22.6927 12.1354 22.6927 13.6563C22.6927 15.1823 21.4583 16.4115 19.9375 16.4115Z" fill="#1C1C1B"/>
<path d="M15.6771 29.7968C15.9115 29.151 16.2604 29.1927 16.2604 29.1927C16.2604 29.1927 16.5781 29.125 16.7552 29.7708L19.3281 38.8073C17.1823 38.1823 15.224 37.1198 13.5573 35.7083L15.6771 29.7968ZM23.7031 5.66663C13.7604 5.66663 5.67188 13.7552 5.67188 23.6979C5.67188 33.6406 13.7604 41.7291 23.7031 41.7291C24.2344 41.7291 24.7552 41.6979 25.276 41.651L25.3958 43.4635L28.6979 40.2708L25.0052 37.4531L25.1458 39.3541C24.6719 39.401 24.1875 39.4323 23.7031 39.4323C22.9375 39.4323 22.1875 39.375 21.4531 39.2656L21.3802 38.7864L19.6667 24.1875C19.4323 21.4323 21.0052 20.9948 21.9792 21.4062L27.4479 23.6041C28.0729 23.875 28.375 23.3489 28.375 23.3489C28.375 23.3489 28.7292 22.802 28.0938 22.3958C28.0938 22.3958 20.6406 17.4583 19.0521 17.1562C16.8854 16.7552 14.7396 18.5104 14.2656 20.7968L11.6198 33.7604C9.34375 31.0312 7.96875 27.5208 7.96875 23.6979C7.96875 15.0208 15.026 7.9635 23.7031 7.9635C28.3385 7.9635 32.5104 9.97913 35.3906 13.177L37.0052 11.5364C33.7083 7.93225 28.9635 5.66663 23.7031 5.66663Z" fill="#1C1C1B"/>
<path d="M128.42 23.574L129.329 28.326H129.356L130.31 23.574H131.651L130.175 30H128.51L127.034 23.574H128.42ZM134.472 27.579L133.851 24.69H133.833L133.212 27.579H134.472ZM134.643 23.574L136.344 30H134.994L134.697 28.641H132.987L132.69 30H131.34L133.041 23.574H134.643ZM136.854 30V23.574H138.15V30H136.854ZM140.155 27.993V28.182C140.155 28.332 140.167 28.47 140.191 28.596C140.215 28.716 140.26 28.818 140.326 28.902C140.392 28.986 140.479 29.052 140.587 29.1C140.701 29.148 140.842 29.172 141.01 29.172C141.208 29.172 141.385 29.109 141.541 28.983C141.703 28.851 141.784 28.65 141.784 28.38C141.784 28.236 141.763 28.113 141.721 28.011C141.685 27.903 141.622 27.807 141.532 27.723C141.442 27.639 141.322 27.564 141.172 27.498C141.028 27.426 140.848 27.354 140.632 27.282C140.344 27.186 140.095 27.081 139.885 26.967C139.675 26.853 139.498 26.721 139.354 26.571C139.216 26.415 139.114 26.238 139.048 26.04C138.982 25.836 138.949 25.602 138.949 25.338C138.949 24.702 139.126 24.228 139.48 23.916C139.834 23.604 140.32 23.448 140.938 23.448C141.226 23.448 141.49 23.481 141.73 23.547C141.976 23.607 142.186 23.709 142.36 23.853C142.54 23.991 142.678 24.171 142.774 24.393C142.876 24.609 142.927 24.87 142.927 25.176V25.356H141.685C141.685 25.05 141.631 24.816 141.523 24.654C141.415 24.486 141.235 24.402 140.983 24.402C140.839 24.402 140.719 24.423 140.623 24.465C140.527 24.507 140.449 24.564 140.389 24.636C140.335 24.702 140.296 24.78 140.272 24.87C140.254 24.96 140.245 25.053 140.245 25.149C140.245 25.347 140.287 25.515 140.371 25.653C140.455 25.785 140.635 25.908 140.911 26.022L141.91 26.454C142.156 26.562 142.357 26.676 142.513 26.796C142.669 26.91 142.792 27.036 142.882 27.174C142.978 27.306 143.044 27.453 143.08 27.615C143.116 27.777 143.134 27.957 143.134 28.155C143.134 28.833 142.936 29.328 142.54 29.64C142.15 29.946 141.604 30.099 140.902 30.099C140.17 30.099 139.645 29.94 139.327 29.622C139.015 29.304 138.859 28.848 138.859 28.254V27.993H140.155ZM144.822 27.993V28.182C144.822 28.332 144.834 28.47 144.858 28.596C144.882 28.716 144.927 28.818 144.993 28.902C145.059 28.986 145.146 29.052 145.254 29.1C145.368 29.148 145.509 29.172 145.677 29.172C145.875 29.172 146.052 29.109 146.208 28.983C146.37 28.851 146.451 28.65 146.451 28.38C146.451 28.236 146.43 28.113 146.388 28.011C146.352 27.903 146.289 27.807 146.199 27.723C146.109 27.639 145.989 27.564 145.839 27.498C145.695 27.426 145.515 27.354 145.299 27.282C145.011 27.186 144.762 27.081 144.552 26.967C144.342 26.853 144.165 26.721 144.021 26.571C143.883 26.415 143.781 26.238 143.715 26.04C143.649 25.836 143.616 25.602 143.616 25.338C143.616 24.702 143.793 24.228 144.147 23.916C144.501 23.604 144.987 23.448 145.605 23.448C145.893 23.448 146.157 23.481 146.397 23.547C146.643 23.607 146.853 23.709 147.027 23.853C147.207 23.991 147.345 24.171 147.441 24.393C147.543 24.609 147.594 24.87 147.594 25.176V25.356H146.352C146.352 25.05 146.298 24.816 146.19 24.654C146.082 24.486 145.902 24.402 145.65 24.402C145.506 24.402 145.386 24.423 145.29 24.465C145.194 24.507 145.116 24.564 145.056 24.636C145.002 24.702 144.963 24.78 144.939 24.87C144.921 24.96 144.912 25.053 144.912 25.149C144.912 25.347 144.954 25.515 145.038 25.653C145.122 25.785 145.302 25.908 145.578 26.022L146.577 26.454C146.823 26.562 147.024 26.676 147.18 26.796C147.336 26.91 147.459 27.036 147.549 27.174C147.645 27.306 147.711 27.453 147.747 27.615C147.783 27.777 147.801 27.957 147.801 28.155C147.801 28.833 147.603 29.328 147.207 29.64C146.817 29.946 146.271 30.099 145.569 30.099C144.837 30.099 144.312 29.94 143.994 29.622C143.682 29.304 143.526 28.848 143.526 28.254V27.993H144.822ZM152.036 23.574V24.636H149.741V26.148H151.901V27.21H149.741V28.938H152.126V30H148.445V23.574H152.036ZM152.778 30V23.574H154.074V28.938H156.369V30H152.778ZM156.944 30V23.574H158.24V28.938H160.535V30H156.944ZM164.701 23.574V24.636H162.406V26.148H164.566V27.21H162.406V28.938H164.791V30H161.11V23.574H164.701ZM134.355 34.574V39.2C134.355 39.884 134.196 40.373 133.878 40.667C133.56 40.955 133.074 41.099 132.42 41.099C132.078 41.099 131.796 41.054 131.574 40.964C131.358 40.868 131.184 40.736 131.052 40.568C130.926 40.394 130.839 40.193 130.791 39.965C130.743 39.737 130.719 39.497 130.719 39.245V38.966H131.907V39.164C131.907 39.506 131.943 39.761 132.015 39.929C132.093 40.091 132.249 40.172 132.483 40.172C132.717 40.172 132.87 40.091 132.942 39.929C133.02 39.761 133.059 39.506 133.059 39.164V34.574H134.355ZM138.791 34.574V35.636H136.496V37.148H138.656V38.21H136.496V39.938H138.881V41H135.2V34.574H138.791ZM143.295 34.574V35.636H141.891V41H140.595V35.636H139.191V34.574H143.295ZM146.047 38.579L145.426 35.69H145.408L144.787 38.579H146.047ZM146.218 34.574L147.919 41H146.569L146.272 39.641H144.562L144.265 41H142.915L144.616 34.574H146.218ZM149.662 40.046H150.166C150.478 40.046 150.73 39.977 150.922 39.839C151.114 39.701 151.21 39.446 151.21 39.074C151.21 38.888 151.183 38.735 151.129 38.615C151.081 38.489 151.012 38.39 150.922 38.318C150.838 38.24 150.736 38.186 150.616 38.156C150.496 38.126 150.364 38.111 150.22 38.111H149.662V40.046ZM149.662 37.211H150.031C150.391 37.211 150.652 37.148 150.814 37.022C150.982 36.89 151.066 36.671 151.066 36.365C151.066 36.059 150.991 35.843 150.841 35.717C150.691 35.591 150.454 35.528 150.13 35.528H149.662V37.211ZM148.366 34.574H150.535C150.799 34.574 151.042 34.601 151.264 34.655C151.492 34.709 151.687 34.799 151.849 34.925C152.011 35.051 152.137 35.219 152.227 35.429C152.317 35.639 152.362 35.897 152.362 36.203C152.362 36.551 152.281 36.851 152.119 37.103C151.957 37.349 151.714 37.517 151.39 37.607V37.625C151.75 37.673 152.035 37.826 152.245 38.084C152.455 38.342 152.56 38.687 152.56 39.119C152.56 39.371 152.527 39.611 152.461 39.839C152.395 40.067 152.281 40.268 152.119 40.442C151.963 40.61 151.756 40.745 151.498 40.847C151.246 40.949 150.931 41 150.553 41H148.366V34.574ZM153.367 41V34.574H154.663V39.938H156.958V41H153.367ZM161.124 34.574V35.636H158.829V37.148H160.989V38.21H158.829V39.938H161.214V41H157.533V34.574H161.124Z" fill="#1C1C1B"/>
</g>
<defs>
<clipPath id="clip0_50_3422">
<rect width="230" height="61" fill="white"/>
</clipPath>
</defs>
</svg>
