<svg width="24" height="24" viewBox="0 0 24 24" fill="none" xmlns="http://www.w3.org/2000/svg">
<path fill-rule="evenodd" clip-rule="evenodd" d="M9.97817 6.63012C10.9765 5.25736 13.0235 5.25736 14.0219 6.63012L15.0181 8H8.9819L9.97817 6.63012ZM14.8306 6.04195L16.2546 8H17.3377C19.7267 8 21.4136 10.3404 20.6581 12.6068L19.1581 17.1068C18.6817 18.536 17.3442 19.5 15.8377 19.5H8.16229C6.65578 19.5 5.3183 18.536 4.8419 17.1068L3.3419 12.6068C2.58645 10.3404 4.27334 8 6.66229 8H7.7454L9.16944 6.04195C10.5672 4.12008 13.4329 4.12009 14.8306 6.04195ZM4.29058 12.2906C3.75097 10.6717 4.9559 9 6.66229 9H8.00001H16H17.3377C19.0441 9 20.2491 10.6717 19.7094 12.2906L18.2094 16.7906C17.8692 17.8114 16.9138 18.5 15.8377 18.5H8.16229C7.08621 18.5 6.13087 17.8114 5.79058 16.7906L4.29058 12.2906ZM12 11C11.4477 11 11 11.4477 11 12C11 12.5523 11.4477 13 12 13C12.5523 13 13 12.5523 13 12C13 11.4477 12.5523 11 12 11Z" fill="black"/>
</svg>
