<svg width="24" height="24" viewBox="0 0 24 24" fill="none" xmlns="http://www.w3.org/2000/svg">
<path fill-rule="evenodd" clip-rule="evenodd" d="M8.75083 5.87879C7.05214 5.87879 5.67507 7.25585 5.67507 8.95455V10.2727C5.67507 10.5154 5.47835 10.7121 5.23568 10.7121C4.99301 10.7121 4.79629 10.5154 4.79629 10.2727V8.95455C4.79629 6.77051 6.5668 5 8.75083 5H15.3417C17.5258 5 19.2963 6.77051 19.2963 8.95455V11.8483L21.3425 9.80211C21.5141 9.63051 21.7923 9.63051 21.9639 9.80211C22.1355 9.9737 22.1355 10.2519 21.9639 10.4235L19.1676 13.2198C18.996 13.3914 18.7178 13.3914 18.5462 13.2198L15.7499 10.4235C15.5783 10.2519 15.5783 9.9737 15.7499 9.80211C15.9215 9.63051 16.1997 9.63051 16.3713 9.80211L18.4175 11.8483V8.95455C18.4175 7.25585 17.0404 5.87879 15.3417 5.87879H8.75083ZM2.1287 14.0765L4.92498 11.2802C5.09658 11.1086 5.37478 11.1086 5.54638 11.2802L8.34266 14.0765C8.51426 14.2481 8.51426 14.5263 8.34266 14.6979C8.17107 14.8695 7.89286 14.8695 7.72127 14.6979L5.67507 12.6517V15.5455C5.67507 17.2441 7.05214 18.6212 8.75083 18.6212H15.3417C17.0404 18.6212 18.4175 17.2441 18.4175 15.5455V14.2273C18.4175 13.9846 18.6142 13.7879 18.8569 13.7879C19.0996 13.7879 19.2963 13.9846 19.2963 14.2273V15.5455C19.2963 17.7295 17.5258 19.5 15.3417 19.5H8.75083C6.5668 19.5 4.79629 17.7295 4.79629 15.5455V12.6517L2.75009 14.6979C2.5785 14.8695 2.30029 14.8695 2.1287 14.6979C1.9571 14.5263 1.9571 14.2481 2.1287 14.0765Z" fill="black"/>
</svg>
