<svg width="24" height="24" viewBox="0 0 24 24" fill="none" xmlns="http://www.w3.org/2000/svg">
<path fill-rule="evenodd" clip-rule="evenodd" d="M20.975 10.1575C21.2511 10.1575 21.475 9.93369 21.475 9.65755C21.475 9.3814 21.2511 9.15755 20.975 9.15755H18.5103C17.8257 9.15755 17.1692 8.88577 16.6852 8.40212C16.3209 8.03808 16.0768 7.57645 15.9784 7.07877H19.1265C19.4026 7.07877 19.6265 6.85491 19.6265 6.57877C19.6265 6.30263 19.4026 6.07877 19.1265 6.07877H12.9647C12.4435 6.07877 11.9438 5.87187 11.5753 5.5037C11.2069 5.13553 11 4.63627 11 4.11575C11 4.08516 11.0122 4.05576 11.0339 4.03402C11.0557 4.01228 11.0853 4 11.1162 4H20.975C21.2511 4 21.475 3.77614 21.475 3.5C21.475 3.22386 21.2511 3 20.975 3H11.1162C10.8203 3 10.5364 3.11747 10.327 3.32667C10.1177 3.53589 10 3.81973 10 4.11575C10 4.90171 10.3124 5.6554 10.8685 6.21105C11.4245 6.76668 12.1785 7.07877 12.9647 7.07877H14.9645C15.0724 7.84323 15.4258 8.55731 15.9784 9.10947C16.6499 9.78058 17.5607 10.1575 18.5103 10.1575H20.975Z" fill="black"/>
<path fill-rule="evenodd" clip-rule="evenodd" d="M6.63636 9.46154C6.63636 9.71644 6.83987 9.92308 7.09091 9.92308H8.90909C9.16013 9.92308 9.36364 9.71644 9.36364 9.46154C9.36364 9.20664 9.16013 9 8.90909 9H7.09091C6.83987 9 6.63636 9.20664 6.63636 9.46154ZM13 15.9231C13 18.727 10.7614 21 8 21C5.23858 21 3 18.727 3 15.9231C3 13.1192 5.23858 10.8462 8 10.8462C9.4681 10.8462 10.7884 11.4886 11.7031 12.5118L12.2264 12.0659C12.4187 11.9021 12.7054 11.9275 12.8668 12.1228C13.0282 12.3181 13.0031 12.6092 12.8108 12.773L12.2514 13.2496C12.726 14.026 13 14.9421 13 15.9231ZM4 15.9231C4 18.1662 5.79086 19.9846 8 19.9846C10.2091 19.9846 12 18.1662 12 15.9231C12 13.68 10.2091 11.8615 8 11.8615C5.79086 11.8615 4 13.68 4 15.9231ZM8 12.6923C7.74896 12.6923 7.54545 12.8989 7.54545 13.1538V15.9231C7.54545 16.178 7.74896 16.3846 8 16.3846C8.25104 16.3846 8.45455 16.178 8.45455 15.9231V13.1538C8.45455 12.8989 8.25104 12.6923 8 12.6923Z" fill="black"/>
</svg>
