<svg width="24" height="24" viewBox="0 0 24 24" fill="none" xmlns="http://www.w3.org/2000/svg">
<path fill-rule="evenodd" clip-rule="evenodd" d="M20.975 11.1575C21.2511 11.1575 21.475 10.9337 21.475 10.6575C21.475 10.3814 21.2511 10.1575 20.975 10.1575H18.5103C17.8257 10.1575 17.1692 9.88577 16.6852 9.40212C16.3209 9.03808 16.0768 8.57645 15.9784 8.07877H19.1265C19.4026 8.07877 19.6265 7.85491 19.6265 7.57877C19.6265 7.30263 19.4026 7.07877 19.1265 7.07877H12.9647C12.4435 7.07877 11.9438 6.87187 11.5753 6.5037C11.2069 6.13553 11 5.63627 11 5.11575C11 5.08516 11.0122 5.05576 11.0339 5.03402C11.0557 5.01228 11.0853 5 11.1162 5H20.975C21.2511 5 21.475 4.77614 21.475 4.5C21.475 4.22386 21.2511 4 20.975 4H11.1162C10.8203 4 10.5364 4.11747 10.327 4.32667C10.1177 4.53589 10 4.81973 10 5.11575C10 5.90171 10.3124 6.6554 10.8685 7.21105C11.4245 7.76668 12.1785 8.07877 12.9647 8.07877H14.9645C15.0724 8.84323 15.4258 9.55731 15.9784 10.1095C16.6499 10.7806 17.5607 11.1575 18.5103 11.1575H20.975Z" fill="black"/>
<path d="M11.8862 18.1293C12.0332 17.8955 11.9223 17.5959 11.6721 17.4792C11.4218 17.3625 11.1275 17.4739 10.9709 17.7014C10.6868 18.1139 10.3023 18.4511 9.8503 18.6789C9.24856 18.9822 8.56223 19.0741 7.9019 18.9398C7.24157 18.8054 6.6457 18.4527 6.2103 17.9384C6.09399 17.801 5.99094 17.6542 5.90192 17.5H8.5C8.77614 17.5 9 17.2761 9 17C9 16.7239 8.77614 16.5 8.5 16.5H5.54196C5.51996 16.3698 5.50648 16.2378 5.50183 16.1047C5.49472 15.9011 5.5084 15.6985 5.54196 15.5H8.5C8.77614 15.5 9 15.2761 9 15C9 14.7239 8.77614 14.5 8.5 14.5H5.90192C5.95627 14.4059 6.0159 14.3144 6.08067 14.2261C6.47913 13.6826 7.04894 13.2892 7.69829 13.1091C8.34763 12.929 9.0387 12.9728 9.66013 13.2334C10.127 13.4292 10.5341 13.7387 10.8462 14.1304C11.0183 14.3464 11.3197 14.437 11.5612 14.3032C11.8027 14.1693 11.8924 13.8627 11.7294 13.6397C11.3017 13.0546 10.721 12.5939 10.0468 12.3112C9.21827 11.9637 8.29685 11.9054 7.43105 12.1455C6.56525 12.3856 5.8055 12.9102 5.27422 13.6348C5.07692 13.9038 4.9154 14.1947 4.7919 14.5H3.5C3.22386 14.5 3 14.7239 3 15C3 15.2761 3.22386 15.5 3.5 15.5H4.53137C4.50478 15.711 4.49494 15.9249 4.50244 16.1396C4.50666 16.2605 4.51635 16.3808 4.53137 16.5H3.5C3.22386 16.5 3 16.7239 3 17C3 17.2761 3.22386 17.5 3.5 17.5H4.7919C4.9502 17.8913 5.17052 18.2578 5.44707 18.5845C6.0276 19.2702 6.82209 19.7406 7.70253 19.9197C8.58297 20.0988 9.49808 19.9763 10.3004 19.5719C10.9532 19.2429 11.5004 18.7428 11.8862 18.1293Z" fill="black"/>
</svg>
