<svg width="24" height="24" viewBox="0 0 24 24" fill="none" xmlns="http://www.w3.org/2000/svg">
<path fill-rule="evenodd" clip-rule="evenodd" d="M3.5 14C3.22386 14 3 14.2239 3 14.5C3 14.7761 3.22386 15 3.5 15L5.96471 15C6.64931 15 7.30581 15.2718 7.78979 15.7554C8.15408 16.1195 8.39818 16.5811 8.49663 17.0788L5.34853 17.0788C5.07239 17.0788 4.84853 17.3026 4.84853 17.5788C4.84853 17.8549 5.07239 18.0788 5.34853 18.0788L11.5103 18.0788C12.0315 18.0788 12.5313 18.2857 12.8997 18.6539C13.2681 19.022 13.475 19.5213 13.475 20.0418C13.475 20.0724 13.4628 20.1018 13.4411 20.1235C13.4193 20.1453 13.3898 20.1575 13.3588 20.1575L3.5 20.1575C3.22386 20.1575 3 20.3814 3 20.6575C3 20.9337 3.22386 21.1575 3.5 21.1575L13.3588 21.1575C13.6547 21.1575 13.9386 21.0401 14.148 20.8309C14.3573 20.6217 14.475 20.3378 14.475 20.0418C14.475 19.2558 14.1626 18.5021 13.6065 17.9465C13.0505 17.3909 12.2965 17.0788 11.5103 17.0788L9.51049 17.0788C9.40257 16.3143 9.0492 15.6002 8.49665 15.0481C7.82508 14.377 6.91431 14 5.96471 14L3.5 14Z" fill="black"/>
<path fill-rule="evenodd" clip-rule="evenodd" d="M14.6364 3.46154C14.6364 3.71644 14.8399 3.92308 15.0909 3.92308H16.9091C17.1601 3.92308 17.3636 3.71644 17.3636 3.46154C17.3636 3.20664 17.1601 3 16.9091 3H15.0909C14.8399 3 14.6364 3.20664 14.6364 3.46154ZM21 9.92308C21 12.727 18.7614 15 16 15C13.2386 15 11 12.727 11 9.92308C11 7.11917 13.2386 4.84615 16 4.84615C17.4681 4.84615 18.7884 5.48861 19.7031 6.51175L20.2264 6.0659C20.4187 5.90206 20.7054 5.92753 20.8668 6.12279C21.0282 6.31806 21.0031 6.60917 20.8108 6.77302L20.2514 7.24961C20.726 8.02604 21 8.94206 21 9.92308ZM12 9.92308C12 12.1662 13.7909 13.9846 16 13.9846C18.2091 13.9846 20 12.1662 20 9.92308C20 7.67995 18.2091 5.86154 16 5.86154C13.7909 5.86154 12 7.67995 12 9.92308ZM16 6.69231C15.749 6.69231 15.5455 6.89895 15.5455 7.15385V9.92308C15.5455 10.178 15.749 10.3846 16 10.3846C16.251 10.3846 16.4545 10.178 16.4545 9.92308V7.15385C16.4545 6.89895 16.251 6.69231 16 6.69231Z" fill="black"/>
</svg>
