<svg width="24" height="24" viewBox="0 0 24 24" fill="none" xmlns="http://www.w3.org/2000/svg">
<path d="M4.35406 6.34775C3.90745 5.96985 3.87921 5.29094 4.29289 4.87725L4.87725 4.2929C5.29093 3.87921 5.96984 3.90745 6.34774 4.35406L8.94047 7.41819C9.19354 7.71728 9.24208 8.12488 9.09342 8.465L11.6755 11.1219L10.9684 11.829L8.35056 9.13531C8.03653 9.22894 7.68438 9.16571 7.41819 8.94047L4.35406 6.34775Z" fill="black"/>
<path fill-rule="evenodd" clip-rule="evenodd" d="M12.4222 13.3249L12.732 13.6437C12.3605 14.395 12.4876 15.3303 13.1132 15.9559L17.6817 20.5244C18.4667 21.3094 19.7394 21.3094 20.5244 20.5244C21.3094 19.7394 21.3094 18.4667 20.5244 17.6817L15.9559 13.1132C15.2569 12.4142 14.1712 12.3376 13.3874 12.8834L13.1293 12.6178L12.4222 13.3249ZM13.6817 15.3873L18.2502 19.9559C18.7212 20.4269 19.4849 20.4269 19.9559 19.9559C20.4269 19.4849 20.4269 18.7212 19.9559 18.2502L15.3873 13.6817C14.9163 13.2107 14.1527 13.2107 13.6817 13.6817C13.2107 14.1527 13.2107 14.9163 13.6817 15.3873Z" fill="black"/>
<path fill-rule="evenodd" clip-rule="evenodd" d="M16.4142 4.29288C16.0237 3.90235 15.3905 3.90235 15 4.29288L14.2929 4.99998C13.9024 5.39051 13.9024 6.02367 14.2929 6.4142L15.6852 7.80655L10.7257 12.8834C9.94198 12.3376 8.85628 12.4142 8.15729 13.1132L3.58875 17.6817C2.80375 18.4667 2.80375 19.7394 3.58875 20.5244C4.37374 21.3094 5.64646 21.3094 6.43146 20.5244L11 15.9559C11.6256 15.3303 11.7526 14.395 11.3812 13.6437L16.3923 8.51358L19.3351 11.4564C19.5871 11.7084 19.9913 11.3928 19.8079 11.0872C19.2632 10.1794 19.1424 9.07879 19.4772 8.07439L19.6568 7.53553L16.4142 4.29288ZM10.4315 15.3873L5.86292 19.9559C5.39192 20.4269 4.62828 20.4269 4.15729 19.9559C3.68629 19.4849 3.68629 18.7212 4.15729 18.2502L8.72583 13.6817C9.19683 13.2107 9.96046 13.2107 10.4315 13.6817C10.9025 14.1527 10.9025 14.9163 10.4315 15.3873Z" fill="black"/>
</svg>
